<?xml version="1.0" ?>
<svg xmlns="http://www.w3.org/2000/svg" version="1.1" width="600" height="600">
  <defs/>
  <g>
    <path stroke-width="0" fill="rgb(0, 0, 0)" opacity="1.0" d="M 510.3515625 364.37506103515625 C 499.9864501953125 389.32183837890625 493.5269775390625 417.64996337890625 490.9732666015625 449.35943603515625 C 483.011474609375 441.5447998046875 475.4254150390625 434.556640625 468.21484375 428.3951416015625 C 449.73779296875 456.79833984375 419.9190673828125 471.0 378.7589111328125 471.0 C 350.5174560546875 471.0 328.660400390625 465.6650390625 313.1878662109375 454.9949951171875 C 297.7152099609375 444.1746826171875 287.950927734375 429.89794921875 283.8948974609375 412.1646728515625 C 255.3531494140625 448.9837646484375 222.605224609375 467.39324951171875 185.651123046875 467.39324951171875 C 167.474365234375 467.39324951171875 151.250732421875 463.260498046875 136.979736328125 454.9949951171875 C 122.7088623046875 446.5792236328125 111.4423828125 434.556640625 103.18017578125 418.9273681640625 C 94.918212890625 403.298095703125 90.787109375 385.11395263671875 90.787109375 364.37506103515625 C 90.787109375 335.52099609375 96.720703125 308.6956787109375 108.588134765625 283.899169921875 C 120.605712890625 259.1026916503906 137.054931640625 237.46209716796875 157.9354248046875 218.97747802734375 C 157.0341796875 214.61929321289062 154.555419921875 200.79336547851562 150.49951171875 177.49969482421875 C 149.59814453125 173.74264526367188 148.621826171875 168.10708618164062 147.5703125 160.59298706054688 C 175.661376953125 154.95742797851562 203.7525634765625 149.32186889648438 231.84375 143.686279296875 C 233.12060546875 154.05572509765625 234.3974609375 164.4251708984375 235.67431640625 174.79461669921875 C 249.49462890625 170.28616333007812 264.5166015625 167.1302490234375 280.7403564453125 165.32687377929688 C 282.01708984375 153.52972412109375 283.2940673828125 141.73263549804688 284.5709228515625 129.93551635742188 C 317.0936279296875 133.69253540039062 349.6160888671875 137.44961547851562 382.1387939453125 141.20663452148438 C 379.5850830078125 156.08453369140625 377.7073974609375 166.3037109375 376.505615234375 171.8641357421875 C 415.2623291015625 180.2799072265625 444.2547607421875 196.81088256835938 463.48291015625 221.45709228515625 C 482.711181640625 246.10333251953125 492.3251953125 280.21728515625 492.3251953125 323.79901123046875 C 492.3251953125 333.56732177734375 491.87451171875 343.0350341796875 490.9732666015625 352.2022705078125 C 499.6859130859375 357.462158203125 506.1455078125 361.51971435546875 510.3515625 364.37506103515625M 265.6431884765625 250.53662109375 C 259.484130859375 252.34002685546875 254.001220703125 254.51910400390625 249.194091796875 257.0738830566406 C 250.095458984375 261.1315002441406 252.423828125 270.52410888671875 256.1793212890625 285.251708984375 C 259.033447265625 276.8359375 262.1881103515625 265.26422119140625 265.6431884765625 250.53662109375M 357.80322265625 251.88916015625 C 350.89306640625 275.7839660644531 343.5322265625 298.02569580078125 335.7208251953125 318.6142578125 C 351.0433349609375 313.35443115234375 368.3936767578125 310.7244873046875 387.7720947265625 310.7244873046875 C 392.4288330078125 310.7244873046875 397.31103515625 311.1753234863281 402.4185791015625 312.0770263671875 C 401.0665283203125 297.34942626953125 397.085693359375 284.951171875 390.47607421875 274.88226318359375 C 383.8663330078125 264.81341552734375 372.9754638671875 257.1490478515625 357.80322265625 251.88916015625M 178.215087890625 351.07513427734375 C 178.215087890625 358.2886962890625 179.642333984375 363.2479248046875 182.496337890625 365.9530029296875 C 185.3505859375 368.6580810546875 190.0074462890625 370.0106201171875 196.466796875 370.0106201171875 C 200.37255859375 370.0106201171875 204.503662109375 368.7332763671875 208.860107421875 366.178466796875 C 202.55078125 353.705078125 195.039794921875 337.7000732421875 186.3270263671875 318.1634521484375 C 180.919189453125 330.787109375 178.215087890625 341.7576904296875 178.215087890625 351.07513427734375M 382.1387939453125 393.90545654296875 C 389.349365234375 393.90545654296875 394.456787109375 392.7783203125 397.4613037109375 390.52410888671875 C 400.6158447265625 388.11962890625 402.4185791015625 384.5880126953125 402.869140625 379.92926025390625 C 392.804443359375 375.72137451171875 383.94140625 373.617431640625 376.2802734375 373.617431640625 C 370.872314453125 373.617431640625 366.515869140625 374.51910400390625 363.2110595703125 376.322509765625 C 359.90625 378.1258544921875 358.2537841796875 380.60552978515625 358.2537841796875 383.76141357421875 C 358.2537841796875 386.76708984375 360.582275390625 389.2467041015625 365.239013671875 391.20037841796875 C 370.046142578125 393.0037841796875 375.679443359375 393.90545654296875 382.1387939453125 393.90545654296875"/>
  </g>
</svg>
