<?xml version="1.0" encoding="utf-8"?>
<svg xmlns="http://www.w3.org/2000/svg" xmlns:ev="http://www.w3.org/2001/xml-events" xmlns:xlink="http://www.w3.org/1999/xlink" version="1.1" baseProfile="full" width="7651.0" height="1597.0" viewBox="6.0 -1526.0 7651.0 1597.0">
<defs/>
<g><path d="M 1862.000000 -337.000000 C 1800.666667 -310.333333 1742.666667 -277.000000 1688.000000 -237.000000 C 1634.000000 -197.666667 1568.666667 -146.666667 1492.000000 -84.000000 C 1467.666667 -64.000000 1443.333333 -44.000000 1419.000000 -24.000000 C 1330.333333 -144.000000 1240.666667 -251.000000 1150.000000 -345.000000 C 1037.333333 -275.666667 909.666667 -214.000000 767.000000 -160.000000 C 624.333333 -106.666667 473.000000 -64.000000 313.000000 -32.000000 C 273.000000 -122.666667 231.000000 -205.666667 187.000000 -281.000000 C 143.000000 -357.000000 82.666667 -436.333333 6.000000 -519.000000 C 314.000000 -549.000000 564.666667 -599.666667 758.000000 -671.000000 C 606.000000 -772.333333 441.666667 -856.333333 265.000000 -923.000000 C 369.333333 -1043.333333 473.666667 -1163.666667 578.000000 -1284.000000 C 775.333333 -1194.000000 966.000000 -1087.666667 1150.000000 -965.000000 C 1198.666667 -1050.333333 1223.000000 -1148.333333 1223.000000 -1259.000000 C 1223.000000 -1325.000000 1214.666667 -1396.000000 1198.000000 -1472.000000 C 1368.333333 -1472.000000 1538.666667 -1472.000000 1709.000000 -1472.000000 C 1721.666667 -1400.000000 1728.000000 -1329.000000 1728.000000 -1259.000000 C 1728.000000 -1041.000000 1661.333333 -845.666667 1528.000000 -673.000000 C 1647.333333 -570.333333 1758.666667 -458.333333 1862.000000 -337.000000z "/>
</g>
<g><path d="M 3147.000000 71.000000 C 3066.333333 7.000000 2909.666667 -104.666667 2677.000000 -264.000000 C 2445.000000 -423.333333 2268.666667 -542.000000 2148.000000 -620.000000 C 2076.666667 -667.333333 2041.000000 -712.666667 2041.000000 -756.000000 C 2041.000000 -788.000000 2061.333333 -819.666667 2102.000000 -851.000000 C 2124.666667 -866.333333 2147.333333 -881.666667 2170.000000 -897.000000 C 2546.000000 -1149.000000 2832.000000 -1358.666667 3028.000000 -1526.000000 C 3153.333333 -1495.333333 3264.333333 -1469.666667 3361.000000 -1449.000000 C 3457.666667 -1429.000000 3559.666667 -1412.000000 3667.000000 -1398.000000 C 3401.000000 -1220.000000 3085.000000 -1018.333333 2719.000000 -793.000000 C 2708.333333 -786.333333 2703.000000 -780.000000 2703.000000 -774.000000 C 2703.000000 -766.000000 2709.666667 -758.333333 2723.000000 -751.000000 C 3032.333333 -574.333333 3343.333333 -386.666667 3656.000000 -188.000000 C 3575.333333 -158.666667 3500.666667 -126.000000 3432.000000 -90.000000 C 3363.333333 -54.000000 3281.000000 -8.000000 3185.000000 48.000000 C 3172.333333 55.666667 3159.666667 63.333333 3147.000000 71.000000z "/>
</g>
<g><path d="M 5762.000000 -473.000000 C 5716.000000 -362.333333 5687.333333 -236.666667 5676.000000 -96.000000 C 5640.666667 -130.666667 5607.000000 -161.666667 5575.000000 -189.000000 C 5493.000000 -63.000000 5360.666667 0.000000 5178.000000 0.000000 C 5052.666667 0.000000 4955.666667 -23.666667 4887.000000 -71.000000 C 4818.333333 -119.000000 4775.000000 -182.333333 4757.000000 -261.000000 C 4630.333333 -97.666667 4485.000000 -16.000000 4321.000000 -16.000000 C 4240.333333 -16.000000 4168.333333 -34.333333 4105.000000 -71.000000 C 4041.666667 -108.333333 3991.666667 -161.666667 3955.000000 -231.000000 C 3918.333333 -300.333333 3900.000000 -381.000000 3900.000000 -473.000000 C 3900.000000 -601.000000 3926.333333 -720.000000 3979.000000 -830.000000 C 4032.333333 -940.000000 4105.333333 -1036.000000 4198.000000 -1118.000000 C 4194.000000 -1137.333333 4183.000000 -1198.666667 4165.000000 -1302.000000 C 4161.000000 -1318.666667 4156.666667 -1343.666667 4152.000000 -1377.000000 C 4276.666667 -1402.000000 4401.333333 -1427.000000 4526.000000 -1452.000000 C 4531.666667 -1406.000000 4537.333333 -1360.000000 4543.000000 -1314.000000 C 4604.333333 -1334.000000 4671.000000 -1348.000000 4743.000000 -1356.000000 C 4748.666667 -1408.333333 4754.333333 -1460.666667 4760.000000 -1513.000000 C 4904.333333 -1496.333333 5048.666667 -1479.666667 5193.000000 -1463.000000 C 5181.666667 -1397.000000 5173.333333 -1351.666667 5168.000000 -1327.000000 C 5340.000000 -1289.666667 5468.666667 -1216.333333 5554.000000 -1107.000000 C 5639.333333 -997.666667 5682.000000 -846.333333 5682.000000 -653.000000 C 5682.000000 -609.666667 5680.000000 -567.666667 5676.000000 -527.000000 C 5714.666667 -503.666667 5743.333333 -485.666667 5762.000000 -473.000000z M 4676.000000 -978.000000 C 4648.666667 -970.000000 4624.333333 -960.333333 4603.000000 -949.000000 C 4607.000000 -931.000000 4617.333333 -889.333333 4634.000000 -824.000000 C 4646.666667 -861.333333 4660.666667 -912.666667 4676.000000 -978.000000z M 5085.000000 -972.000000 C 5054.333333 -866.000000 5021.666667 -767.333333 4987.000000 -676.000000 C 5055.000000 -699.333333 5132.000000 -711.000000 5218.000000 -711.000000 C 5238.666667 -711.000000 5260.333333 -709.000000 5283.000000 -705.000000 C 5277.000000 -770.333333 5259.333333 -825.333333 5230.000000 -870.000000 C 5200.666667 -914.666667 5152.333333 -948.666667 5085.000000 -972.000000z M 4288.000000 -532.000000 C 4288.000000 -500.000000 4294.333333 -478.000000 4307.000000 -466.000000 C 4319.666667 -454.000000 4340.333333 -448.000000 4369.000000 -448.000000 C 4386.333333 -448.000000 4404.666667 -453.666667 4424.000000 -465.000000 C 4396.000000 -520.333333 4362.666667 -591.333333 4324.000000 -678.000000 C 4300.000000 -622.000000 4288.000000 -573.333333 4288.000000 -532.000000z M 5193.000000 -342.000000 C 5225.000000 -342.000000 5247.666667 -347.000000 5261.000000 -357.000000 C 5275.000000 -367.666667 5283.000000 -383.333333 5285.000000 -404.000000 C 5240.333333 -422.666667 5201.000000 -432.000000 5167.000000 -432.000000 C 5143.000000 -432.000000 5123.666667 -428.000000 5109.000000 -420.000000 C 5094.333333 -412.000000 5087.000000 -401.000000 5087.000000 -387.000000 C 5087.000000 -373.666667 5097.333333 -362.666667 5118.000000 -354.000000 C 5139.333333 -346.000000 5164.333333 -342.000000 5193.000000 -342.000000z "/>
</g>
<g><path d="M 7141.000000 -139.000000 C 7111.666667 -395.000000 7067.333333 -614.666667 7008.000000 -798.000000 C 6949.333333 -981.333333 6873.333333 -1153.000000 6780.000000 -1313.000000 C 6929.666667 -1335.666667 7079.333333 -1358.333333 7229.000000 -1381.000000 C 7334.333333 -1219.666667 7419.000000 -1055.333333 7483.000000 -888.000000 C 7547.000000 -720.666667 7605.000000 -510.000000 7657.000000 -256.000000 C 7485.000000 -217.000000 7313.000000 -178.000000 7141.000000 -139.000000z M 6812.000000 -329.000000 C 6734.000000 -238.333333 6634.000000 -160.666667 6512.000000 -96.000000 C 6390.000000 -32.000000 6276.333333 0.000000 6171.000000 0.000000 C 6112.333333 0.000000 6057.000000 -13.333333 6005.000000 -40.000000 C 5953.000000 -67.333333 5910.000000 -110.666667 5876.000000 -170.000000 C 5842.666667 -229.333333 5825.333333 -305.000000 5824.000000 -397.000000 C 5822.666667 -526.333333 5830.333333 -644.333333 5847.000000 -751.000000 C 5863.666667 -858.333333 5892.333333 -1003.000000 5933.000000 -1185.000000 C 5944.666667 -1235.333333 5956.333333 -1285.666667 5968.000000 -1336.000000 C 6139.333333 -1328.333333 6310.666667 -1320.666667 6482.000000 -1313.000000 C 6437.333333 -1159.666667 6404.000000 -1036.333333 6382.000000 -943.000000 C 6360.666667 -849.666667 6340.333333 -734.333333 6321.000000 -597.000000 C 6318.333333 -574.333333 6317.000000 -559.666667 6317.000000 -553.000000 C 6317.000000 -526.333333 6323.333333 -513.000000 6336.000000 -513.000000 C 6354.000000 -513.000000 6386.333333 -537.666667 6433.000000 -587.000000 C 6479.666667 -637.000000 6550.333333 -721.666667 6645.000000 -841.000000 C 6660.333333 -725.666667 6681.000000 -628.000000 6707.000000 -548.000000 C 6733.666667 -468.666667 6768.666667 -395.666667 6812.000000 -329.000000z "/>
</g>
</svg>
