<?xml version="1.0" ?>
<svg xmlns="http://www.w3.org/2000/svg" version="1.1" width="600" height="600">
  <defs/>
  <g>
    <path stroke-width="0" fill="rgb(0, 0, 0)" opacity="1.0" d="M 366.11358642578125 480.0050048828125 C 347.93695068359375 465.5780029296875 312.63525390625 440.40576171875 260.20849609375 404.4884033203125 C 207.931884765625 368.571044921875 168.19873046875 341.8209228515625 141.0089111328125 324.2379150390625 C 124.93536376953125 313.56793212890625 116.8985595703125 303.3487548828125 116.8985595703125 293.5804443359375 C 116.8985595703125 286.366943359375 121.48028564453125 279.2285461425781 130.6436767578125 272.1653137207031 C 135.751220703125 268.7088317871094 140.858642578125 265.2523498535156 145.9661865234375 261.7958679199219 C 230.69024658203125 204.98934936523438 295.1346435546875 157.72573852539062 339.29931640625 120.0050048828125 C 367.5406494140625 126.91796875 392.55224609375 132.70382690429688 414.334228515625 137.362548828125 C 436.1162109375 141.87100219726562 459.099853515625 145.70318603515625 483.28515625 148.85910034179688 C 423.347412109375 188.98434448242188 352.14312744140625 234.444580078125 269.67236328125 285.23980712890625 C 267.268798828125 286.7426452636719 266.06707763671875 288.1703186035156 266.06707763671875 289.5228576660156 C 266.06707763671875 291.32623291015625 267.56927490234375 293.05450439453125 270.57366943359375 294.70758056640625 C 340.2757568359375 334.5322265625 410.3533935546875 376.8365478515625 480.806640625 421.62054443359375 C 462.6298828125 428.23291015625 445.8052978515625 435.59674072265625 430.3326416015625 443.71197509765625 C 414.8599853515625 451.8271484375 396.307861328125 462.1966552734375 374.6761474609375 474.8203125 C 371.82196044921875 476.54852294921875 368.9677734375 478.2767333984375 366.11358642578125 480.0050048828125"/>
  </g>
</svg>
