<?xml version="1.0" ?>
<svg xmlns="http://www.w3.org/2000/svg" version="1.1" width="600" height="600">
  <defs/>
  <g>
    <path stroke-width="0" fill="rgb(0, 0, 0)" opacity="1.0" d="M 509.56451416015625 393.0325927734375 C 495.7442626953125 399.0438232421875 482.67510986328125 406.55792236328125 470.3570556640625 415.5748291015625 C 458.18927001953125 424.44146728515625 443.4676513671875 435.93798828125 426.1923828125 450.064453125 C 420.7093505859375 454.57293701171875 415.226318359375 459.0814208984375 409.7432861328125 463.58984375 C 389.7640380859375 436.53912353515625 369.5594482421875 412.4189453125 349.1295166015625 391.22918701171875 C 323.74237060546875 406.8585205078125 294.9752197265625 420.759521484375 262.828125 432.932373046875 C 230.6810302734375 444.9549560546875 196.58111572265625 454.57293701171875 160.52828979492188 461.7864990234375 C 151.51510620117188 441.34814453125 142.05123901367188 422.6380615234375 132.13671875 405.65625 C 122.22219848632812 388.52410888671875 108.62728881835938 370.64056396484375 91.35198974609375 352.005615234375 C 160.75363159179688 345.242919921875 217.23635864257812 333.821533203125 260.8001708984375 317.74139404296875 C 226.54998779296875 294.8985595703125 189.520751953125 275.96307373046875 149.71246337890625 260.93487548828125 C 173.22189331054688 233.80902099609375 196.7313232421875 206.68316650390625 220.24075317382812 179.55731201171875 C 264.70587158203125 199.8453369140625 307.6688232421875 223.8153076171875 349.1295166015625 251.46713256835938 C 360.0955810546875 232.23104858398438 365.57861328125 210.13961791992188 365.57861328125 185.19287109375 C 365.57861328125 170.31497192382812 363.70086669921875 154.30996704101562 359.94537353515625 137.17782592773438 C 398.32659912109375 137.17782592773438 436.707763671875 137.17782592773438 475.0889892578125 137.17782592773438 C 477.94317626953125 153.40826416015625 479.3702392578125 169.41326904296875 479.3702392578125 185.19287109375 C 479.3702392578125 234.33502197265625 464.3482666015625 278.3675537109375 434.3043212890625 317.29052734375 C 461.19366455078125 340.4339599609375 486.2803955078125 365.6812744140625 509.56451416015625 393.0325927734375"/>
  </g>
</svg>
