<?xml version="1.0" encoding="utf-8"?>
<svg xmlns="http://www.w3.org/2000/svg" xmlns:ev="http://www.w3.org/2001/xml-events" xmlns:xlink="http://www.w3.org/1999/xlink" version="1.1" baseProfile="full" width="7651.0" height="1597.0" viewBox="6.0 -1526.0 7651.0 1597.0">
<defs/>
<g><path d="M 3147.000000 71.000000 C 3066.333333 7.000000 2909.666667 -104.666667 2677.000000 -264.000000 C 2445.000000 -423.333333 2268.666667 -542.000000 2148.000000 -620.000000 C 2076.666667 -667.333333 2041.000000 -712.666667 2041.000000 -756.000000 C 2041.000000 -788.000000 2061.333333 -819.666667 2102.000000 -851.000000 C 2124.666667 -866.333333 2147.333333 -881.666667 2170.000000 -897.000000 C 2546.000000 -1149.000000 2832.000000 -1358.666667 3028.000000 -1526.000000 C 3153.333333 -1495.333333 3264.333333 -1469.666667 3361.000000 -1449.000000 C 3457.666667 -1429.000000 3559.666667 -1412.000000 3667.000000 -1398.000000 C 3401.000000 -1220.000000 3085.000000 -1018.333333 2719.000000 -793.000000 C 2708.333333 -786.333333 2703.000000 -780.000000 2703.000000 -774.000000 C 2703.000000 -766.000000 2709.666667 -758.333333 2723.000000 -751.000000 C 3032.333333 -574.333333 3343.333333 -386.666667 3656.000000 -188.000000 C 3575.333333 -158.666667 3500.666667 -126.000000 3432.000000 -90.000000 C 3363.333333 -54.000000 3281.000000 -8.000000 3185.000000 48.000000 C 3172.333333 55.666667 3159.666667 63.333333 3147.000000 71.000000z "/>
</g></svg>
