<?xml version="1.0" encoding="utf-8"?>
<svg xmlns="http://www.w3.org/2000/svg" xmlns:ev="http://www.w3.org/2001/xml-events" xmlns:xlink="http://www.w3.org/1999/xlink" version="1.1" baseProfile="full" width="7651.0" height="1597.0" viewBox="6.0 -1526.0 7651.0 1597.0">
<defs/>
<g><path d="M 7141.000000 -139.000000 C 7111.666667 -395.000000 7067.333333 -614.666667 7008.000000 -798.000000 C 6949.333333 -981.333333 6873.333333 -1153.000000 6780.000000 -1313.000000 C 6929.666667 -1335.666667 7079.333333 -1358.333333 7229.000000 -1381.000000 C 7334.333333 -1219.666667 7419.000000 -1055.333333 7483.000000 -888.000000 C 7547.000000 -720.666667 7605.000000 -510.000000 7657.000000 -256.000000 C 7485.000000 -217.000000 7313.000000 -178.000000 7141.000000 -139.000000z M 6812.000000 -329.000000 C 6734.000000 -238.333333 6634.000000 -160.666667 6512.000000 -96.000000 C 6390.000000 -32.000000 6276.333333 0.000000 6171.000000 0.000000 C 6112.333333 0.000000 6057.000000 -13.333333 6005.000000 -40.000000 C 5953.000000 -67.333333 5910.000000 -110.666667 5876.000000 -170.000000 C 5842.666667 -229.333333 5825.333333 -305.000000 5824.000000 -397.000000 C 5822.666667 -526.333333 5830.333333 -644.333333 5847.000000 -751.000000 C 5863.666667 -858.333333 5892.333333 -1003.000000 5933.000000 -1185.000000 C 5944.666667 -1235.333333 5956.333333 -1285.666667 5968.000000 -1336.000000 C 6139.333333 -1328.333333 6310.666667 -1320.666667 6482.000000 -1313.000000 C 6437.333333 -1159.666667 6404.000000 -1036.333333 6382.000000 -943.000000 C 6360.666667 -849.666667 6340.333333 -734.333333 6321.000000 -597.000000 C 6318.333333 -574.333333 6317.000000 -559.666667 6317.000000 -553.000000 C 6317.000000 -526.333333 6323.333333 -513.000000 6336.000000 -513.000000 C 6354.000000 -513.000000 6386.333333 -537.666667 6433.000000 -587.000000 C 6479.666667 -637.000000 6550.333333 -721.666667 6645.000000 -841.000000 C 6660.333333 -725.666667 6681.000000 -628.000000 6707.000000 -548.000000 C 6733.666667 -468.666667 6768.666667 -395.666667 6812.000000 -329.000000z "/>
</g></svg>
