<?xml version="1.0" encoding="utf-8"?>
<svg xmlns="http://www.w3.org/2000/svg" xmlns:ev="http://www.w3.org/2001/xml-events" xmlns:xlink="http://www.w3.org/1999/xlink" version="1.1" baseProfile="full" width="7651.0" height="1597.0" viewBox="6.0 -1526.0 7651.0 1597.0">
<defs/>
<g><path d="M 1862.000000 -337.000000 C 1800.666667 -310.333333 1742.666667 -277.000000 1688.000000 -237.000000 C 1634.000000 -197.666667 1568.666667 -146.666667 1492.000000 -84.000000 C 1467.666667 -64.000000 1443.333333 -44.000000 1419.000000 -24.000000 C 1330.333333 -144.000000 1240.666667 -251.000000 1150.000000 -345.000000 C 1037.333333 -275.666667 909.666667 -214.000000 767.000000 -160.000000 C 624.333333 -106.666667 473.000000 -64.000000 313.000000 -32.000000 C 273.000000 -122.666667 231.000000 -205.666667 187.000000 -281.000000 C 143.000000 -357.000000 82.666667 -436.333333 6.000000 -519.000000 C 314.000000 -549.000000 564.666667 -599.666667 758.000000 -671.000000 C 606.000000 -772.333333 441.666667 -856.333333 265.000000 -923.000000 C 369.333333 -1043.333333 473.666667 -1163.666667 578.000000 -1284.000000 C 775.333333 -1194.000000 966.000000 -1087.666667 1150.000000 -965.000000 C 1198.666667 -1050.333333 1223.000000 -1148.333333 1223.000000 -1259.000000 C 1223.000000 -1325.000000 1214.666667 -1396.000000 1198.000000 -1472.000000 C 1368.333333 -1472.000000 1538.666667 -1472.000000 1709.000000 -1472.000000 C 1721.666667 -1400.000000 1728.000000 -1329.000000 1728.000000 -1259.000000 C 1728.000000 -1041.000000 1661.333333 -845.666667 1528.000000 -673.000000 C 1647.333333 -570.333333 1758.666667 -458.333333 1862.000000 -337.000000z "/>
</g></svg>
