<?xml version="1.0" ?>
<svg xmlns="http://www.w3.org/2000/svg" version="1.1" width="600" height="600">
  <defs/>
  <g>
    <path stroke-width="0" fill="rgb(0, 0, 0)" opacity="1.0" d="M 207.612060546875 319.1734619140625 C 204.7261962890625 320.42578125 201.99713134765625 321.9912109375 199.4249267578125 323.8697509765625 C 196.88406372070312 325.71697998046875 193.80996704101562 328.112060546875 190.20257568359375 331.05511474609375 C 189.05764770507812 331.994384765625 187.91268920898438 332.93359375 186.76776123046875 333.8729248046875 C 182.59573364257812 328.2373046875 178.37667846679688 323.2122802734375 174.11056518554688 318.7977294921875 C 168.809326171875 322.0538330078125 162.80224609375 324.949951171875 156.08941650390625 327.48590087890625 C 149.37655639648438 329.9906005859375 142.25592041015625 331.994384765625 134.72747802734375 333.4971923828125 C 132.84536743164062 329.23919677734375 130.86917114257812 325.34130859375 128.79885864257812 321.8033447265625 C 126.72854614257812 318.23419189453125 123.88967895507812 314.5084228515625 120.28231811523438 310.62615966796875 C 134.7745361328125 309.21728515625 146.569091796875 306.83782958984375 155.66592407226562 303.48779296875 C 148.513916015625 298.7288818359375 140.78158569335938 294.783935546875 132.46896362304688 291.653076171875 C 137.37811279296875 286.00189208984375 142.28729248046875 280.35064697265625 147.19644165039062 274.699462890625 C 156.48150634765625 278.9261474609375 165.452880859375 283.91986083984375 174.11056518554688 289.6806640625 C 176.40048217773438 285.673095703125 177.54541015625 281.07080078125 177.54541015625 275.87353515625 C 177.54541015625 272.77392578125 177.1533203125 269.4395751953125 176.36911010742188 265.870361328125 C 184.38372802734375 265.870361328125 192.39837646484375 265.870361328125 200.41302490234375 265.870361328125 C 201.009033203125 269.251708984375 201.3070068359375 272.5860595703125 201.3070068359375 275.87353515625 C 201.3070068359375 286.1114501953125 198.170166015625 295.284912109375 191.896484375 303.39385986328125 C 197.51144409179688 308.21539306640625 202.74996948242188 313.47528076171875 207.612060546875 319.1734619140625"/>
    <path stroke-width="0" fill="rgb(0, 0, 0)" opacity="1.0" d="M 268.07476806640625 338.3343505859375 C 264.2791748046875 335.3287353515625 256.9075927734375 330.08453369140625 245.96002197265625 322.60174560546875 C 235.04379272460938 315.11895751953125 226.746826171875 309.5460205078125 221.06915283203125 305.8829345703125 C 217.71270751953125 303.65997314453125 216.03451538085938 301.531005859375 216.03451538085938 299.4959716796875 C 216.03451538085938 297.99310302734375 216.99124145507812 296.5059814453125 218.90472412109375 295.034423828125 C 219.97125244140625 294.3143310546875 221.03778076171875 293.59423828125 222.10430908203125 292.8741455078125 C 239.79611206054688 281.0394287109375 253.253173828125 271.19287109375 262.4754943847656 263.3343505859375 C 268.37274169921875 264.7745361328125 273.5956115722656 265.97998046875 278.14404296875 266.9505615234375 C 282.69244384765625 267.8897705078125 287.4918212890625 268.68817138671875 292.54217529296875 269.34564208984375 C 280.026123046875 277.705078125 265.1575012207031 287.17596435546875 247.93621826171875 297.75830078125 C 247.434326171875 298.0714111328125 247.18338012695312 298.3687744140625 247.18338012695312 298.650634765625 C 247.18338012695312 299.02630615234375 247.4970703125 299.3863525390625 248.12445068359375 299.730712890625 C 262.67938232421875 308.027587890625 277.3127746582031 316.8409423828125 292.02459716796875 326.17095947265625 C 288.22900390625 327.54852294921875 284.7157287597656 329.0826416015625 281.4847717285156 330.7733154296875 C 278.25384521484375 332.4639892578125 274.37982177734375 334.624267578125 269.8627624511719 337.25421142578125 C 269.26678466796875 337.6142578125 268.6707763671875 337.974365234375 268.07476806640625 338.3343505859375"/>
    <path stroke-width="0" fill="rgb(0, 0, 0)" opacity="1.0" d="M 391.11749267578125 312.7864990234375 C 388.953125 317.98370361328125 387.604248046875 323.8853759765625 387.07098388671875 330.4915771484375 C 385.408447265625 328.863525390625 383.8243408203125 327.40765380859375 382.31866455078125 326.1240234375 C 378.4603271484375 332.04132080078125 372.23370361328125 335.0 363.63873291015625 335.0 C 357.741455078125 335.0 353.1773681640625 333.8885498046875 349.9464111328125 331.6656494140625 C 346.7154541015625 329.411376953125 344.676513671875 326.43707275390625 343.82958984375 322.74267578125 C 337.86956787109375 330.41326904296875 331.03125 334.24859619140625 323.3146057128906 334.24859619140625 C 319.51904296875 334.24859619140625 316.1312255859375 333.3875732421875 313.1512451171875 331.6656494140625 C 310.1712341308594 329.912353515625 307.818603515625 327.40765380859375 306.09332275390625 324.1514892578125 C 304.3680419921875 320.8953857421875 303.50543212890625 317.1070556640625 303.50543212890625 312.7864990234375 C 303.50543212890625 306.77520751953125 304.7444763183594 301.18658447265625 307.22259521484375 296.0206298828125 C 309.7320556640625 290.854736328125 313.16693115234375 286.3463134765625 317.5271301269531 282.49530029296875 C 317.33892822265625 281.58734130859375 316.82135009765625 278.70697021484375 315.974365234375 273.8541259765625 C 315.78619384765625 273.0714111328125 315.582275390625 271.8973388671875 315.3627014160156 270.3319091796875 C 321.22857666015625 269.1578369140625 327.0945129394531 267.98370361328125 332.96038818359375 266.80963134765625 C 333.22705078125 268.969970703125 333.49365234375 271.1302490234375 333.76031494140625 273.29052734375 C 336.646240234375 272.351318359375 339.78302001953125 271.69378662109375 343.17083740234375 271.318115234375 C 343.43743896484375 268.8603515625 343.7041015625 266.40264892578125 343.970703125 263.94488525390625 C 350.76202392578125 264.72760009765625 357.55322265625 265.5103759765625 364.34454345703125 266.2930908203125 C 363.811279296875 269.392578125 363.419189453125 271.5216064453125 363.168212890625 272.6800537109375 C 371.26129150390625 274.433349609375 377.31536865234375 277.87725830078125 381.33056640625 283.01190185546875 C 385.345703125 288.146484375 387.353271484375 295.25360107421875 387.353271484375 304.3331298828125 C 387.353271484375 306.3681640625 387.2591552734375 308.34063720703125 387.07098388671875 310.25048828125 C 388.890380859375 311.3463134765625 390.23919677734375 312.191650390625 391.11749267578125 312.7864990234375M 340.018310546875 289.07012939453125 C 338.732177734375 289.44580078125 337.5872802734375 289.8997802734375 336.58349609375 290.43206787109375 C 336.77166748046875 291.27740478515625 337.25787353515625 293.23419189453125 338.0421142578125 296.30242919921875 C 338.6380615234375 294.5491943359375 339.29681396484375 292.138427734375 340.018310546875 289.07012939453125M 359.2628173828125 289.3519287109375 C 357.81988525390625 294.3299560546875 356.2828369140625 298.96368408203125 354.65167236328125 303.25299072265625 C 357.85125732421875 302.15716552734375 361.47430419921875 301.6092529296875 365.5208740234375 301.6092529296875 C 366.4932861328125 301.6092529296875 367.51275634765625 301.70318603515625 368.57928466796875 301.89105224609375 C 368.2969970703125 298.82275390625 367.4656982421875 296.2398681640625 366.08544921875 294.14215087890625 C 364.70526123046875 292.04443359375 362.4310302734375 290.44775390625 359.2628173828125 289.3519287109375M 321.7618713378906 310.015625 C 321.7618713378906 311.5184326171875 322.05987548828125 312.5516357421875 322.6558837890625 313.115234375 C 323.2518615722656 313.67877197265625 324.22430419921875 313.9605712890625 325.5731201171875 313.9605712890625 C 326.38873291015625 313.9605712890625 327.2513427734375 313.6944580078125 328.1610107421875 313.16217041015625 C 326.84356689453125 310.5635986328125 325.275146484375 307.22918701171875 323.45574951171875 303.1590576171875 C 322.32647705078125 305.7889404296875 321.7618713378906 308.07452392578125 321.7618713378906 310.015625M 364.34454345703125 318.9385986328125 C 365.8502197265625 318.9385986328125 366.916748046875 318.703857421875 367.54412841796875 318.23419189453125 C 368.202880859375 317.7332763671875 368.57928466796875 316.99749755859375 368.67340087890625 316.02691650390625 C 366.57171630859375 315.1502685546875 364.720947265625 314.71197509765625 363.12115478515625 314.71197509765625 C 361.99188232421875 314.71197509765625 361.08221435546875 314.8997802734375 360.39208984375 315.2755126953125 C 359.7020263671875 315.6512451171875 359.35693359375 316.1678466796875 359.35693359375 316.8253173828125 C 359.35693359375 317.45147705078125 359.8431396484375 317.96807861328125 360.8155517578125 318.3751220703125 C 361.81939697265625 318.75079345703125 362.9957275390625 318.9385986328125 364.34454345703125 318.9385986328125"/>
    <path stroke-width="0" fill="rgb(0, 0, 0)" opacity="1.0" d="M 456.003173828125 328.47216796875 C 454.6229248046875 316.4495849609375 452.53692626953125 306.13336181640625 449.7451171875 297.52349853515625 C 446.9847412109375 288.91357421875 443.40869140625 280.8515625 439.01708984375 273.3375244140625 C 446.059326171875 272.27301025390625 453.1015625 271.20849609375 460.143798828125 270.14404296875 C 465.0999755859375 277.720703125 469.08380126953125 285.4383544921875 472.09515380859375 293.29681396484375 C 475.1065673828125 301.1552734375 477.8355712890625 311.048828125 480.2823486328125 322.9774169921875 C 472.18927001953125 324.80902099609375 464.09619140625 326.64056396484375 456.003173828125 328.47216796875M 440.5228271484375 319.5491943359375 C 436.8526611328125 323.80712890625 432.1474609375 327.45458984375 426.406982421875 330.4915771484375 C 420.6666259765625 333.4971923828125 415.3182373046875 335.0 410.362060546875 335.0 C 407.60162353515625 335.0 404.998046875 334.37384033203125 402.55126953125 333.1214599609375 C 400.10455322265625 331.83782958984375 398.081298828125 329.802734375 396.48150634765625 327.0162353515625 C 394.9130859375 324.22979736328125 394.0975341796875 320.67626953125 394.0347900390625 316.35565185546875 C 393.9720458984375 310.28173828125 394.332763671875 304.7401123046875 395.116943359375 299.730712890625 C 395.90118408203125 294.6900634765625 397.25006103515625 287.89605712890625 399.16351318359375 279.3487548828125 C 399.71246337890625 276.9849853515625 400.26141357421875 274.62115478515625 400.81036376953125 272.25732421875 C 408.8720703125 272.617431640625 416.9337158203125 272.97747802734375 424.99542236328125 273.3375244140625 C 422.893798828125 280.53851318359375 421.3253173828125 286.33062744140625 420.2901611328125 290.7138671875 C 419.286376953125 295.0970458984375 418.32965087890625 300.513427734375 417.419921875 306.9630126953125 C 417.29449462890625 308.027587890625 417.23175048828125 308.71630859375 417.23175048828125 309.0294189453125 C 417.23175048828125 310.28173828125 417.52978515625 310.907958984375 418.125732421875 310.907958984375 C 418.97265625 310.907958984375 420.49407958984375 309.74951171875 422.6898193359375 307.43267822265625 C 424.8856201171875 305.08453369140625 428.210693359375 301.10833740234375 432.6650390625 295.5040283203125 C 433.386474609375 300.92047119140625 434.35888671875 305.5072021484375 435.582275390625 309.2642822265625 C 436.8370361328125 312.989990234375 438.48388671875 316.41827392578125 440.5228271484375 319.5491943359375"/>
  </g>
</svg>
