<?xml version="1.0" ?>
<svg xmlns="http://www.w3.org/2000/svg" version="1.1" width="600" height="600">
  <defs/>
  <g>
    <path stroke-width="0" fill="rgb(0, 0, 0)" opacity="1.0" d="M 391.0816650390625 424.666259765625 C 384.4720458984375 366.9580078125 374.482421875 317.440185546875 361.11279296875 276.11273193359375 C 347.8934326171875 234.78521728515625 330.7684326171875 196.08767700195312 309.737548828125 160.02005004882812 C 343.4619140625 154.91046142578125 377.1864013671875 149.80087280273438 410.9107666015625 144.6912841796875 C 434.6455078125 181.05950927734375 453.7235107421875 218.10394287109375 468.14453125 255.82467651367188 C 482.565673828125 293.54541015625 495.6348876953125 341.034423828125 507.35205078125 398.29180908203125 C 468.59521484375 407.083251953125 429.8385009765625 415.874755859375 391.0816650390625 424.666259765625M 316.9481201171875 381.8359375 C 299.3724365234375 402.2742919921875 276.83935546875 419.7821044921875 249.34912109375 434.35943603515625 C 221.85888671875 448.7864990234375 196.246337890625 456.0 172.5115966796875 456.0 C 159.292236328125 456.0 146.823974609375 452.994384765625 135.1068115234375 446.98309326171875 C 123.3896484375 440.821533203125 113.700439453125 431.05322265625 106.0391845703125 417.67816162109375 C 98.5281982421875 404.3031005859375 94.62255859375 387.24609375 94.322021484375 366.5072021484375 C 94.0216064453125 337.3525390625 95.7491455078125 310.752685546875 99.504638671875 286.70758056640625 C 103.2601318359375 262.51220703125 109.7196044921875 229.90106201171875 118.883056640625 188.8741455078125 C 121.5118408203125 177.52786254882812 124.1407470703125 166.18161010742188 126.76953125 154.8353271484375 C 165.376220703125 156.56353759765625 203.982666015625 158.29180908203125 242.5892333984375 160.02005004882812 C 232.5245361328125 194.58486938476562 225.013427734375 222.386962890625 220.0562744140625 243.42642211914062 C 215.2491455078125 264.46588134765625 210.66748046875 290.4646301269531 206.31103515625 321.42266845703125 C 205.710205078125 326.5322265625 205.4097900390625 329.83843994140625 205.4097900390625 331.34124755859375 C 205.4097900390625 337.3525390625 206.8369140625 340.358154296875 209.6910400390625 340.358154296875 C 213.7469482421875 340.358154296875 221.03271484375 334.7977294921875 231.548095703125 323.6768798828125 C 242.0633544921875 312.40576171875 257.98681640625 293.3199768066406 279.3179931640625 266.4195556640625 C 282.7730712890625 292.41827392578125 287.429931640625 314.4345703125 293.2884521484375 332.4683837890625 C 299.2972412109375 350.3519287109375 307.183837890625 366.8077392578125 316.9481201171875 381.8359375"/>
  </g>
</svg>
