<?xml version="1.0" encoding="utf-8"?>
<svg xmlns="http://www.w3.org/2000/svg" xmlns:ev="http://www.w3.org/2001/xml-events" xmlns:xlink="http://www.w3.org/1999/xlink" version="1.1" baseProfile="full" width="7651.0" height="1597.0" viewBox="6.0 -1526.0 7651.0 1597.0">
<defs/>
<g><path d="M 5762.000000 -473.000000 C 5716.000000 -362.333333 5687.333333 -236.666667 5676.000000 -96.000000 C 5640.666667 -130.666667 5607.000000 -161.666667 5575.000000 -189.000000 C 5493.000000 -63.000000 5360.666667 0.000000 5178.000000 0.000000 C 5052.666667 0.000000 4955.666667 -23.666667 4887.000000 -71.000000 C 4818.333333 -119.000000 4775.000000 -182.333333 4757.000000 -261.000000 C 4630.333333 -97.666667 4485.000000 -16.000000 4321.000000 -16.000000 C 4240.333333 -16.000000 4168.333333 -34.333333 4105.000000 -71.000000 C 4041.666667 -108.333333 3991.666667 -161.666667 3955.000000 -231.000000 C 3918.333333 -300.333333 3900.000000 -381.000000 3900.000000 -473.000000 C 3900.000000 -601.000000 3926.333333 -720.000000 3979.000000 -830.000000 C 4032.333333 -940.000000 4105.333333 -1036.000000 4198.000000 -1118.000000 C 4194.000000 -1137.333333 4183.000000 -1198.666667 4165.000000 -1302.000000 C 4161.000000 -1318.666667 4156.666667 -1343.666667 4152.000000 -1377.000000 C 4276.666667 -1402.000000 4401.333333 -1427.000000 4526.000000 -1452.000000 C 4531.666667 -1406.000000 4537.333333 -1360.000000 4543.000000 -1314.000000 C 4604.333333 -1334.000000 4671.000000 -1348.000000 4743.000000 -1356.000000 C 4748.666667 -1408.333333 4754.333333 -1460.666667 4760.000000 -1513.000000 C 4904.333333 -1496.333333 5048.666667 -1479.666667 5193.000000 -1463.000000 C 5181.666667 -1397.000000 5173.333333 -1351.666667 5168.000000 -1327.000000 C 5340.000000 -1289.666667 5468.666667 -1216.333333 5554.000000 -1107.000000 C 5639.333333 -997.666667 5682.000000 -846.333333 5682.000000 -653.000000 C 5682.000000 -609.666667 5680.000000 -567.666667 5676.000000 -527.000000 C 5714.666667 -503.666667 5743.333333 -485.666667 5762.000000 -473.000000z M 4676.000000 -978.000000 C 4648.666667 -970.000000 4624.333333 -960.333333 4603.000000 -949.000000 C 4607.000000 -931.000000 4617.333333 -889.333333 4634.000000 -824.000000 C 4646.666667 -861.333333 4660.666667 -912.666667 4676.000000 -978.000000z M 5085.000000 -972.000000 C 5054.333333 -866.000000 5021.666667 -767.333333 4987.000000 -676.000000 C 5055.000000 -699.333333 5132.000000 -711.000000 5218.000000 -711.000000 C 5238.666667 -711.000000 5260.333333 -709.000000 5283.000000 -705.000000 C 5277.000000 -770.333333 5259.333333 -825.333333 5230.000000 -870.000000 C 5200.666667 -914.666667 5152.333333 -948.666667 5085.000000 -972.000000z M 4288.000000 -532.000000 C 4288.000000 -500.000000 4294.333333 -478.000000 4307.000000 -466.000000 C 4319.666667 -454.000000 4340.333333 -448.000000 4369.000000 -448.000000 C 4386.333333 -448.000000 4404.666667 -453.666667 4424.000000 -465.000000 C 4396.000000 -520.333333 4362.666667 -591.333333 4324.000000 -678.000000 C 4300.000000 -622.000000 4288.000000 -573.333333 4288.000000 -532.000000z M 5193.000000 -342.000000 C 5225.000000 -342.000000 5247.666667 -347.000000 5261.000000 -357.000000 C 5275.000000 -367.666667 5283.000000 -383.333333 5285.000000 -404.000000 C 5240.333333 -422.666667 5201.000000 -432.000000 5167.000000 -432.000000 C 5143.000000 -432.000000 5123.666667 -428.000000 5109.000000 -420.000000 C 5094.333333 -412.000000 5087.000000 -401.000000 5087.000000 -387.000000 C 5087.000000 -373.666667 5097.333333 -362.666667 5118.000000 -354.000000 C 5139.333333 -346.000000 5164.333333 -342.000000 5193.000000 -342.000000z "/>
</g></svg>
