<?xml version="1.0" ?>
<svg xmlns="http://www.w3.org/2000/svg" version="1.1" width="600" height="600">
  <defs/>
  <g>
    <path stroke-width="0" fill="rgb(0, 0, 0)" opacity="1.0" d="M 299.26220703125 343.8585205078125 C 283.27197265625 343.8585205078125 269.050537109375 342.6556396484375 256.597900390625 340.25 C 256.597900390625 364.0943603515625 256.597900390625 387.93865966796875 256.597900390625 411.78302001953125 C 285.889892578125 411.78302001953125 315.1817626953125 411.78302001953125 344.4736328125 411.78302001953125 C 344.4736328125 387.79718017578125 344.4736328125 363.811279296875 344.4736328125 339.825439453125 C 330.181396484375 342.51416015625 315.1109619140625 343.8585205078125 299.26220703125 343.8585205078125M 129.4539794921875 411.78302001953125 C 159.0289306640625 411.78302001953125 188.6038818359375 411.78302001953125 218.1788330078125 411.78302001953125 C 218.1788330078125 383.9764404296875 218.1788330078125 356.1697998046875 218.1788330078125 328.36322021484375 C 201.3394775390625 319.87261962890625 188.3916015625 308.83489990234375 179.335205078125 295.25 C 170.4202880859375 281.5235595703125 165.9627685546875 265.88677978515625 165.9627685546875 248.33963012695312 C 165.9627685546875 229.0943603515625 171.340087890625 212.25469970703125 182.0946044921875 197.82077026367188 C 192.8489990234375 183.24530029296875 208.2733154296875 171.92453002929688 228.3673095703125 163.85848999023438 C 248.461181640625 155.65093994140625 272.0928955078125 151.54718017578125 299.26220703125 151.54718017578125 C 326.4315185546875 151.54718017578125 350.063232421875 155.65093994140625 370.1571044921875 163.85848999023438 C 390.251220703125 171.92453002929688 405.67529296875 183.24530029296875 416.429931640625 197.82077026367188 C 427.1845703125 212.396240234375 432.5615234375 229.23583984375 432.5615234375 248.33963012695312 C 432.5615234375 265.4622802734375 428.24560546875 280.8160400390625 419.61376953125 294.40093994140625 C 411.12353515625 307.8443298339844 398.8828125 318.81134033203125 382.892822265625 327.3018798828125 C 382.892822265625 355.4622802734375 382.892822265625 383.6226806640625 382.892822265625 411.78302001953125 C 412.4677734375 411.78302001953125 442.042724609375 411.78302001953125 471.61767578125 411.78302001953125 C 471.61767578125 424.660400390625 471.61767578125 437.5377197265625 471.61767578125 450.41510009765625 C 357.56298828125 450.41510009765625 243.508544921875 450.41510009765625 129.4539794921875 450.41510009765625 C 129.4539794921875 437.5377197265625 129.4539794921875 424.660400390625 129.4539794921875 411.78302001953125M 204.3818359375 247.70281982421875 C 204.3818359375 261.57073974609375 208.5562744140625 273.5283203125 216.9052734375 283.5754699707031 C 225.3956298828125 293.62261962890625 236.786865234375 301.33489990234375 251.0791015625 306.7122802734375 C 265.5128173828125 311.9481201171875 281.5738525390625 314.5660400390625 299.26220703125 314.5660400390625 C 316.9505615234375 314.5660400390625 333.0115966796875 311.9481201171875 347.4453125 306.7122802734375 C 361.8790283203125 301.33489990234375 373.270263671875 293.62261962890625 381.6192626953125 283.5754699707031 C 390.109619140625 273.5283203125 394.3548583984375 261.57073974609375 394.3548583984375 247.70281982421875 C 394.3548583984375 233.83489990234375 390.109619140625 221.87738037109375 381.6192626953125 211.8302001953125 C 373.270263671875 201.78302001953125 361.8790283203125 194.14151000976562 347.4453125 188.90567016601562 C 333.0115966796875 183.52828979492188 316.9505615234375 180.83963012695312 299.26220703125 180.83963012695312 C 281.5738525390625 180.83963012695312 265.5128173828125 183.52828979492188 251.0791015625 188.90567016601562 C 236.786865234375 194.14151000976562 225.3956298828125 201.78302001953125 216.9052734375 211.8302001953125 C 208.5562744140625 221.87738037109375 204.3818359375 233.83489990234375 204.3818359375 247.70281982421875"/>
  </g>
</svg>
