<?xml version="1.0" ?>
<svg xmlns="http://www.w3.org/2000/svg" version="1.1" width="600" height="600">
  <defs/>
  <g>
    <path stroke-width="0" fill="rgb(0, 0, 0)" opacity="1.0" d="M 224.83279418945312 316.2735595703125 C 206.71990966796875 316.2735595703125 190.234375 312.311279296875 175.37615966796875 304.38677978515625 C 160.65945434570312 296.4622802734375 148.98513793945312 285.7075500488281 140.35321044921875 272.12261962890625 C 131.86279296875 258.5377197265625 127.61761474609375 243.46697998046875 127.61761474609375 226.910400390625 C 127.61761474609375 210.353759765625 131.86279296875 195.28302001953125 140.35321044921875 181.6981201171875 C 148.98513793945312 168.11322021484375 160.65945434570312 157.35848999023438 175.37615966796875 149.4339599609375 C 190.234375 141.50942993164062 206.71990966796875 137.54718017578125 224.83279418945312 137.54718017578125 C 243.08718872070312 137.54718017578125 259.57275390625 141.50942993164062 274.2894287109375 149.4339599609375 C 289.14764404296875 157.35848999023438 300.82196044921875 168.11322021484375 309.3123779296875 181.6981201171875 C 317.9443054199219 195.28302001953125 322.26025390625 210.353759765625 322.26025390625 226.910400390625 C 322.26025390625 243.46697998046875 317.9443054199219 258.5377197265625 309.3123779296875 272.12261962890625 C 300.82196044921875 285.7075500488281 289.14764404296875 296.4622802734375 274.2894287109375 304.38677978515625 C 259.57275390625 312.311279296875 243.08718872070312 316.2735595703125 224.83279418945312 316.2735595703125M 164.97540283203125 226.910400390625 C 164.97540283203125 244.59906005859375 170.3526611328125 259.03302001953125 181.107177734375 270.2122802734375 C 191.8616943359375 281.3915100097656 206.43692016601562 286.98114013671875 224.83279418945312 286.98114013671875 C 243.37017822265625 286.98114013671875 258.0161437988281 281.3915100097656 268.77069091796875 270.2122802734375 C 279.52520751953125 259.03302001953125 284.9024658203125 244.59906005859375 284.9024658203125 226.910400390625 C 284.9024658203125 209.2216796875 279.52520751953125 194.7877197265625 268.77069091796875 183.60848999023438 C 258.0161437988281 172.42926025390625 243.37017822265625 166.83963012695312 224.83279418945312 166.83963012695312 C 206.43692016601562 166.83963012695312 191.8616943359375 172.42926025390625 181.107177734375 183.60848999023438 C 170.3526611328125 194.7877197265625 164.97540283203125 209.2216796875 164.97540283203125 226.910400390625M 178.56005859375 358.938720703125 C 191.29568481445312 358.938720703125 204.03131103515625 358.938720703125 216.76690673828125 358.938720703125 C 216.76690673828125 388.58489990234375 216.76690673828125 418.23114013671875 216.76690673828125 447.8773193359375 C 285.7514953613281 447.8773193359375 354.736083984375 447.8773193359375 423.720703125 447.8773193359375 C 423.720703125 457.6414794921875 423.720703125 467.4056396484375 423.720703125 477.1697998046875 C 346.1749267578125 477.1697998046875 268.629150390625 477.1697998046875 191.08343505859375 477.1697998046875 C 182.7344970703125 477.1697998046875 178.56005859375 472.853759765625 178.56005859375 464.2216796875 C 178.56005859375 429.1273193359375 178.56005859375 394.03302001953125 178.56005859375 358.938720703125M 381.4808349609375 123.9622802734375 C 394.21649169921875 123.9622802734375 406.9521484375 123.9622802734375 419.687744140625 123.9622802734375 C 419.687744140625 154.95281982421875 419.687744140625 185.94338989257812 419.687744140625 216.9339599609375 C 437.3760986328125 216.9339599609375 455.064453125 216.9339599609375 472.7528076171875 216.9339599609375 C 472.7528076171875 226.6981201171875 472.7528076171875 236.4622802734375 472.7528076171875 246.22640991210938 C 455.064453125 246.22640991210938 437.3760986328125 246.22640991210938 419.687744140625 246.22640991210938 C 419.687744140625 293.632080078125 419.687744140625 341.0377197265625 419.687744140625 388.443359375 C 406.9521484375 388.443359375 394.21649169921875 388.443359375 381.4808349609375 388.443359375 C 381.4808349609375 300.28302001953125 381.4808349609375 212.12265014648438 381.4808349609375 123.9622802734375"/>
  </g>
</svg>
