<?xml version="1.0" ?>
<svg xmlns="http://www.w3.org/2000/svg" version="1.1" width="600" height="600">
  <defs/>
  <g>
    <path stroke-width="0" fill="rgb(0, 0, 0)" opacity="1.0" d="M 131.33160400390625 282.90618896484375 C 133.48336791992188 282.90618896484375 135.39346313476562 283.5084228515625 137.06185913085938 284.7127685546875 C 138.73025512695312 285.9017333984375 140.01663208007812 287.61572265625 140.92098999023438 289.85467529296875 C 141.8409423828125 292.07818603515625 142.30093383789062 294.703125 142.30093383789062 297.7296142578125 C 142.30093383789062 300.75604248046875 141.8409423828125 303.38873291015625 140.92098999023438 305.627685546875 C 140.01663208007812 307.8511962890625 138.73025512695312 309.565185546875 137.06185913085938 310.76953125 C 135.39346313476562 311.95849609375 133.48336791992188 312.552978515625 131.33160400390625 312.552978515625 C 129.17984008789062 312.552978515625 127.26974487304688 311.95849609375 125.60134887695312 310.76953125 C 123.94854736328125 309.565185546875 122.66217041015625 307.8511962890625 121.74221801757812 305.627685546875 C 120.83782958984375 303.38873291015625 120.38565063476562 300.75604248046875 120.38565063476562 297.7296142578125 C 120.38565063476562 294.703125 120.83782958984375 292.07818603515625 121.74221801757812 289.85467529296875 C 122.66217041015625 287.61572265625 123.94854736328125 285.9017333984375 125.60134887695312 284.7127685546875 C 127.26974487304688 283.5084228515625 129.17984008789062 282.90618896484375 131.33160400390625 282.90618896484375M 124.59564208984375 297.7296142578125 C 124.59564208984375 301.327392578125 125.2037353515625 304.16845703125 126.41995239257812 306.2530517578125 C 127.63616943359375 308.3221435546875 129.27337646484375 309.356689453125 131.33160400390625 309.356689453125 C 133.4053955078125 309.356689453125 135.04263305664062 308.3221435546875 136.24325561523438 306.2530517578125 C 137.45947265625 304.16845703125 138.06756591796875 301.327392578125 138.06756591796875 297.7296142578125 C 138.06756591796875 294.1318359375 137.45947265625 291.29840087890625 136.24325561523438 289.22930908203125 C 135.04263305664062 287.144775390625 133.4053955078125 286.10247802734375 131.33160400390625 286.10247802734375 C 129.27337646484375 286.10247802734375 127.63616943359375 287.144775390625 126.41995239257812 289.22930908203125 C 125.2037353515625 291.29840087890625 124.59564208984375 294.1318359375 124.59564208984375 297.7296142578125M 149.62161254882812 280.68267822265625 C 151.02496337890625 280.68267822265625 152.42828369140625 280.68267822265625 153.83160400390625 280.68267822265625 C 153.83160400390625 293.7689208984375 153.83160400390625 306.855224609375 153.83160400390625 319.9415283203125 C 152.42828369140625 319.9415283203125 151.02496337890625 319.9415283203125 149.62161254882812 319.9415283203125 C 149.62161254882812 306.855224609375 149.62161254882812 293.7689208984375 149.62161254882812 280.68267822265625"/>
    <path stroke-width="0" fill="rgb(0, 0, 0)" opacity="1.0" d="M 163.63150024414062 297.7296142578125 C 163.24169921875 297.7296142578125 162.90643310546875 297.6060791015625 162.62579345703125 297.3590087890625 C 162.3607177734375 297.09649658203125 162.22817993164062 296.77996826171875 162.22817993164062 296.409423828125 C 162.22817993164062 293.96197509765625 162.22817993164062 291.51458740234375 162.22817993164062 289.067138671875 C 162.22817993164062 288.943603515625 162.29052734375 288.8355712890625 162.415283203125 288.742919921875 C 162.55560302734375 288.6502685546875 162.71932983398438 288.60394287109375 162.90643310546875 288.60394287109375 C 167.29574584960938 288.60394287109375 171.68502807617188 288.60394287109375 176.0743408203125 288.60394287109375 C 176.0743408203125 287.2760009765625 176.0743408203125 285.9481201171875 176.0743408203125 284.6201171875 C 171.38876342773438 284.6201171875 166.70321655273438 284.6201171875 162.01766967773438 284.6201171875 C 162.01766967773438 283.5546875 162.01766967773438 282.4892578125 162.01766967773438 281.423828125 C 167.61538696289062 281.423828125 173.21310424804688 281.423828125 178.81082153320312 281.423828125 C 179.20062255859375 281.423828125 179.528076171875 281.55511474609375 179.79315185546875 281.817626953125 C 180.05819702148438 282.080078125 180.19073486328125 282.40435791015625 180.19073486328125 282.7904052734375 C 180.19073486328125 285.338134765625 180.19073486328125 287.88592529296875 180.19073486328125 290.4337158203125 C 180.19073486328125 290.8043212890625 180.12057495117188 291.1285400390625 179.98025512695312 291.406494140625 C 179.85549926757812 291.6689453125 179.6995849609375 291.80023193359375 179.51248168945312 291.80023193359375 C 175.1309814453125 291.80023193359375 170.74948120117188 291.80023193359375 166.36798095703125 291.80023193359375 C 166.36798095703125 292.71124267578125 166.36798095703125 293.622314453125 166.36798095703125 294.5333251953125 C 172.33990478515625 294.5333251953125 178.31185913085938 294.5333251953125 184.28378295898438 294.5333251953125 C 184.28378295898438 295.5987548828125 184.28378295898438 296.6641845703125 184.28378295898438 297.7296142578125 C 177.39968872070312 297.7296142578125 170.51559448242188 297.7296142578125 163.63150024414062 297.7296142578125M 166.41476440429688 306.3919677734375 C 175.84042358398438 306.3919677734375 185.26611328125 306.3919677734375 194.6917724609375 306.3919677734375 C 194.6917724609375 307.4573974609375 194.6917724609375 308.5228271484375 194.6917724609375 309.58831787109375 C 185.26611328125 309.58831787109375 175.84042358398438 309.58831787109375 166.41476440429688 309.58831787109375 C 166.41476440429688 308.5228271484375 166.41476440429688 307.4573974609375 166.41476440429688 306.3919677734375M 168.70684814453125 315.40185546875 C 168.70684814453125 313.6724853515625 169.71258544921875 312.4835205078125 171.7239990234375 311.8349609375 C 173.75103759765625 311.1710205078125 176.69802856445312 310.8389892578125 180.56497192382812 310.8389892578125 C 184.41632080078125 310.8389892578125 187.34771728515625 311.1710205078125 189.359130859375 311.8349609375 C 191.38616943359375 312.4835205078125 192.39968872070312 313.6724853515625 192.39968872070312 315.40185546875 C 192.39968872070312 317.1312255859375 191.38616943359375 318.3201904296875 189.359130859375 318.96875 C 187.34771728515625 319.6326904296875 184.41632080078125 319.9647216796875 180.56497192382812 319.9647216796875 C 176.69802856445312 319.9647216796875 173.75103759765625 319.6326904296875 171.7239990234375 318.96875 C 169.71258544921875 318.3201904296875 168.70684814453125 317.1312255859375 168.70684814453125 315.40185546875M 172.82327270507812 300.69427490234375 C 177.97662353515625 300.69427490234375 183.12994384765625 300.69427490234375 188.28326416015625 300.69427490234375 C 188.28326416015625 301.75970458984375 188.28326416015625 302.82513427734375 188.28326416015625 303.89056396484375 C 183.12994384765625 303.89056396484375 177.97662353515625 303.89056396484375 172.82327270507812 303.89056396484375 C 172.82327270507812 302.82513427734375 172.82327270507812 301.75970458984375 172.82327270507812 300.69427490234375M 172.91683959960938 315.40185546875 C 172.91683959960938 315.911376953125 173.54052734375 316.26654052734375 174.78793334960938 316.46728515625 C 176.03533935546875 316.66802978515625 177.96102905273438 316.76837158203125 180.56497192382812 316.76837158203125 C 183.16891479492188 316.76837158203125 185.0867919921875 316.66802978515625 186.318603515625 316.46728515625 C 187.56600952148438 316.26654052734375 188.189697265625 315.911376953125 188.189697265625 315.40185546875 C 188.189697265625 314.892333984375 187.56600952148438 314.537109375 186.318603515625 314.33642578125 C 185.0867919921875 314.13568115234375 183.16891479492188 314.0352783203125 180.56497192382812 314.0352783203125 C 177.96102905273438 314.0352783203125 176.03533935546875 314.13568115234375 174.78793334960938 314.33642578125 C 173.54052734375 314.537109375 172.91683959960938 314.892333984375 172.91683959960938 315.40185546875M 181.85134887695312 287.35321044921875 C 184.58004760742188 287.35321044921875 187.3087158203125 287.35321044921875 190.03741455078125 287.35321044921875 C 190.03741455078125 285.12969970703125 190.03741455078125 282.90618896484375 190.03741455078125 280.68267822265625 C 191.44073486328125 280.68267822265625 192.84405517578125 280.68267822265625 194.24740600585938 280.68267822265625 C 194.24740600585938 286.8436279296875 194.24740600585938 293.004638671875 194.24740600585938 299.1656494140625 C 192.84405517578125 299.1656494140625 191.44073486328125 299.1656494140625 190.03741455078125 299.1656494140625 C 190.03741455078125 296.2935791015625 190.03741455078125 293.4215087890625 190.03741455078125 290.54949951171875 C 187.3087158203125 290.54949951171875 184.58004760742188 290.54949951171875 181.85134887695312 290.54949951171875 C 181.85134887695312 289.48406982421875 181.85134887695312 288.41864013671875 181.85134887695312 287.35321044921875"/>
    <path stroke-width="0" fill="rgb(0, 0, 0)" opacity="1.0" d="M 200.0946044921875 309.31036376953125 C 204.10186767578125 307.11773681640625 207.32171630859375 304.2611083984375 209.754150390625 300.7406005859375 C 212.20217895507812 297.20458984375 213.47296142578125 292.94287109375 213.5665283203125 287.9554443359375 C 209.50466918945312 287.9554443359375 205.44281005859375 287.9554443359375 201.3809814453125 287.9554443359375 C 201.3809814453125 286.7664794921875 201.3809814453125 285.5775146484375 201.3809814453125 284.3885498046875 C 206.4173583984375 284.3885498046875 211.4537353515625 284.3885498046875 216.4901123046875 284.3885498046875 C 217.0826416015625 284.3885498046875 217.46466064453125 284.59698486328125 217.63616943359375 285.013916015625 C 217.82327270507812 285.4307861328125 217.88565063476562 286.1796875 217.82327270507812 287.26055908203125 C 217.65176391601562 291.815673828125 216.81756591796875 295.6990966796875 215.3206787109375 298.91082763671875 C 213.82379150390625 302.10711669921875 211.99169921875 304.7166748046875 209.8243408203125 306.73944091796875 C 207.67254638671875 308.74676513671875 205.193359375 310.584228515625 202.38668823242188 312.25189208984375 C 201.62265014648438 311.2713623046875 200.858642578125 310.2908935546875 200.0946044921875 309.31036376953125M 217.37890625 295.64501953125 C 219.35134887695312 295.64501953125 221.32379150390625 295.64501953125 223.2962646484375 295.64501953125 C 223.2962646484375 290.9046630859375 223.2962646484375 286.16424560546875 223.2962646484375 281.423828125 C 224.67620849609375 281.423828125 226.05612182617188 281.423828125 227.43606567382812 281.423828125 C 227.43606567382812 293.96197509765625 227.43606567382812 306.5001220703125 227.43606567382812 319.0382080078125 C 226.05612182617188 319.0382080078125 224.67620849609375 319.0382080078125 223.2962646484375 319.0382080078125 C 223.2962646484375 312.429443359375 223.2962646484375 305.8206787109375 223.2962646484375 299.2119140625 C 221.32379150390625 299.2119140625 219.35134887695312 299.2119140625 217.37890625 299.2119140625 C 217.37890625 298.02294921875 217.37890625 296.833984375 217.37890625 295.64501953125M 231.62265014648438 280.68267822265625 C 232.99481201171875 280.68267822265625 234.366943359375 280.68267822265625 235.73907470703125 280.68267822265625 C 235.73907470703125 293.7689208984375 235.73907470703125 306.855224609375 235.73907470703125 319.9415283203125 C 234.366943359375 319.9415283203125 232.99481201171875 319.9415283203125 231.62265014648438 319.9415283203125 C 231.62265014648438 306.855224609375 231.62265014648438 293.7689208984375 231.62265014648438 280.68267822265625"/>
    <path stroke-width="0" fill="rgb(0, 0, 0)" opacity="1.0" d="M 261.93450927734375 299.25823974609375 C 261.93450927734375 299.69061279296875 261.8019714355469 300.03802490234375 261.5368957519531 300.300537109375 C 261.28741455078125 300.56298828125 260.9521789550781 300.69427490234375 260.53118896484375 300.69427490234375 C 254.94906616210938 300.69427490234375 249.366943359375 300.69427490234375 243.78482055664062 300.69427490234375 C 243.36383056640625 300.69427490234375 243.02078247070312 300.56298828125 242.75570678710938 300.300537109375 C 242.5062255859375 300.03802490234375 242.38150024414062 299.69061279296875 242.38150024414062 299.25823974609375 C 242.38150024414062 293.560546875 242.38150024414062 287.86279296875 242.38150024414062 282.1650390625 C 243.76144409179688 282.1650390625 245.141357421875 282.1650390625 246.52130126953125 282.1650390625 C 246.52130126953125 284.18780517578125 246.52130126953125 286.2105712890625 246.52130126953125 288.2333984375 C 250.27911376953125 288.2333984375 254.03692626953125 288.2333984375 257.794677734375 288.2333984375 C 257.794677734375 286.2105712890625 257.794677734375 284.18780517578125 257.794677734375 282.1650390625 C 259.17462158203125 282.1650390625 260.5545654296875 282.1650390625 261.93450927734375 282.1650390625 C 261.93450927734375 287.86279296875 261.93450927734375 293.560546875 261.93450927734375 299.25823974609375M 257.794677734375 297.12738037109375 C 257.794677734375 295.3516845703125 257.794677734375 293.575927734375 257.794677734375 291.80023193359375 C 254.03692626953125 291.80023193359375 250.27911376953125 291.80023193359375 246.52130126953125 291.80023193359375 C 246.52130126953125 293.575927734375 246.52130126953125 295.3516845703125 246.52130126953125 297.12738037109375 C 250.27911376953125 297.12738037109375 254.03692626953125 297.12738037109375 257.794677734375 297.12738037109375M 246.80197143554688 305.39605712890625 C 248.205322265625 305.39605712890625 249.608642578125 305.39605712890625 251.011962890625 305.39605712890625 C 251.011962890625 306.63134765625 251.011962890625 307.86663818359375 251.011962890625 309.1019287109375 C 257.06182861328125 309.1019287109375 263.11175537109375 309.1019287109375 269.16162109375 309.1019287109375 C 269.16162109375 307.86663818359375 269.16162109375 306.63134765625 269.16162109375 305.39605712890625 C 270.5649719238281 305.39605712890625 271.9682922363281 305.39605712890625 273.37164306640625 305.39605712890625 C 273.37164306640625 309.27947998046875 273.37164306640625 313.16290283203125 273.37164306640625 317.04632568359375 C 273.37164306640625 317.2779541015625 273.270263671875 317.5250244140625 273.06756591796875 317.7874755859375 C 272.48284912109375 318.39739990234375 271.89813232421875 319.00732421875 271.31341552734375 319.61724853515625 C 271.07952880859375 319.848876953125 270.806640625 319.9647216796875 270.49481201171875 319.9647216796875 C 263.08837890625 319.9647216796875 255.68191528320312 319.9647216796875 248.27545166015625 319.9647216796875 C 247.85446166992188 319.9647216796875 247.50363159179688 319.8411865234375 247.22296142578125 319.5941162109375 C 246.94232177734375 319.3470458984375 246.80197143554688 319.0150146484375 246.80197143554688 318.59814453125 C 246.80197143554688 314.19744873046875 246.80197143554688 309.7967529296875 246.80197143554688 305.39605712890625M 269.16162109375 316.51361083984375 C 269.16162109375 315.193359375 269.16162109375 313.8731689453125 269.16162109375 312.552978515625 C 263.11175537109375 312.552978515625 257.06182861328125 312.552978515625 251.011962890625 312.552978515625 C 251.011962890625 313.8731689453125 251.011962890625 315.193359375 251.011962890625 316.51361083984375 C 257.06182861328125 316.51361083984375 263.11175537109375 316.51361083984375 269.16162109375 316.51361083984375M 269.16162109375 280.68267822265625 C 270.5649719238281 280.68267822265625 271.9682922363281 280.68267822265625 273.37164306640625 280.68267822265625 C 273.37164306640625 283.6937255859375 273.37164306640625 286.7047119140625 273.37164306640625 289.7156982421875 C 275.3206787109375 289.7156982421875 277.2697448730469 289.7156982421875 279.21881103515625 289.7156982421875 C 279.21881103515625 290.9046630859375 279.21881103515625 292.0936279296875 279.21881103515625 293.2825927734375 C 277.2697448730469 293.2825927734375 275.3206787109375 293.2825927734375 273.37164306640625 293.2825927734375 C 273.37164306640625 296.5792236328125 273.37164306640625 299.8758544921875 273.37164306640625 303.17254638671875 C 271.9682922363281 303.17254638671875 270.5649719238281 303.17254638671875 269.16162109375 303.17254638671875 C 269.16162109375 295.6759033203125 269.16162109375 288.1793212890625 269.16162109375 280.68267822265625"/>
    <path stroke-width="0" fill="rgb(0, 0, 0)" opacity="1.0" d="M 299.73077392578125 294.764892578125 C 294.97503662109375 294.764892578125 291.3341979980469 294.23992919921875 288.8082275390625 293.18994140625 C 286.29779052734375 292.139892578125 285.0426025390625 290.44140625 285.0426025390625 288.0943603515625 C 285.0426025390625 285.747314453125 286.29779052734375 284.048828125 288.8082275390625 282.99884033203125 C 291.3341979980469 281.9488525390625 294.97503662109375 281.423828125 299.73077392578125 281.423828125 C 304.5020751953125 281.423828125 308.1429443359375 281.9488525390625 310.6533203125 282.99884033203125 C 313.1636962890625 284.048828125 314.4189147949219 285.747314453125 314.4189147949219 288.0943603515625 C 314.4189147949219 290.44140625 313.1636962890625 292.139892578125 310.6533203125 293.18994140625 C 308.1429443359375 294.23992919921875 304.5020751953125 294.764892578125 299.73077392578125 294.764892578125M 281.0197448730469 297.7296142578125 C 293.58734130859375 297.7296142578125 306.1548767089844 297.7296142578125 318.72247314453125 297.7296142578125 C 318.72247314453125 298.7950439453125 318.72247314453125 299.8604736328125 318.72247314453125 300.9259033203125 C 306.1548767089844 300.9259033203125 293.58734130859375 300.9259033203125 281.0197448730469 300.9259033203125 C 281.0197448730469 299.8604736328125 281.0197448730469 298.7950439453125 281.0197448730469 297.7296142578125M 285.67413330078125 304.90966796875 C 294.5852355957031 304.90966796875 303.496337890625 304.90966796875 312.407470703125 304.90966796875 C 312.79730224609375 304.90966796875 313.124755859375 305.0408935546875 313.38983154296875 305.30340576171875 C 313.6548767089844 305.56591796875 313.78741455078125 305.8824462890625 313.78741455078125 306.2530517578125 C 313.78741455078125 308.6309814453125 313.78741455078125 311.0089111328125 313.78741455078125 313.3868408203125 C 313.78741455078125 313.556640625 313.7172546386719 313.7110595703125 313.576904296875 313.85003662109375 C 313.45220947265625 313.97357177734375 313.2962646484375 314.0352783203125 313.109130859375 314.0352783203125 C 305.42205810546875 314.0352783203125 297.73492431640625 314.0352783203125 290.0478210449219 314.0352783203125 C 290.0478210449219 314.94635009765625 290.0478210449219 315.85736083984375 290.0478210449219 316.76837158203125 C 298.1871032714844 316.76837158203125 306.326416015625 316.76837158203125 314.4656982421875 316.76837158203125 C 314.4656982421875 317.83380126953125 314.4656982421875 318.8992919921875 314.4656982421875 319.9647216796875 C 305.40643310546875 319.9647216796875 296.3471984863281 319.9647216796875 287.2879333496094 319.9647216796875 C 286.89813232421875 319.9647216796875 286.5706787109375 319.83343505859375 286.30560302734375 319.5709228515625 C 286.04052734375 319.3084716796875 285.90802001953125 318.984130859375 285.90802001953125 318.59814453125 C 285.90802001953125 316.23565673828125 285.90802001953125 313.8731689453125 285.90802001953125 311.5107421875 C 285.90802001953125 311.325439453125 285.9703674316406 311.1710205078125 286.0950927734375 311.0474853515625 C 286.2354431152344 310.90850830078125 286.399169921875 310.8389892578125 286.5862731933594 310.8389892578125 C 294.28118896484375 310.8389892578125 301.97607421875 310.8389892578125 309.6709899902344 310.8389892578125 C 309.6709899902344 309.927978515625 309.6709899902344 309.0169677734375 309.6709899902344 308.10595703125 C 301.67205810546875 308.10595703125 293.673095703125 308.10595703125 285.67413330078125 308.10595703125 C 285.67413330078125 307.04052734375 285.67413330078125 305.97509765625 285.67413330078125 304.90966796875M 289.2760009765625 288.0943603515625 C 289.2760009765625 289.3450927734375 290.22711181640625 290.24072265625 292.12939453125 290.7811279296875 C 294.0317077636719 291.30615234375 296.56549072265625 291.568603515625 299.73077392578125 291.568603515625 C 302.91162109375 291.568603515625 305.4532165527344 291.30615234375 307.35552978515625 290.7811279296875 C 309.2578125 290.24072265625 310.20892333984375 289.3450927734375 310.20892333984375 288.0943603515625 C 310.20892333984375 286.8436279296875 309.2578125 285.955810546875 307.35552978515625 285.4307861328125 C 305.4532165527344 284.890380859375 302.91162109375 284.6201171875 299.73077392578125 284.6201171875 C 296.56549072265625 284.6201171875 294.0317077636719 284.890380859375 292.12939453125 285.4307861328125 C 290.22711181640625 285.955810546875 289.2760009765625 286.8436279296875 289.2760009765625 288.0943603515625"/>
    <path stroke-width="0" fill="rgb(0, 0, 0)" opacity="1.0" d="M 331.75 314.0352783203125 C 330.08160400390625 314.0352783203125 328.56134033203125 313.6724853515625 327.189208984375 312.94671630859375 C 325.8326416015625 312.20556640625 324.7645263671875 311.1478271484375 323.98492431640625 309.7735595703125 C 323.205322265625 308.39935302734375 322.81549072265625 306.816650390625 322.81549072265625 305.0255126953125 C 322.81549072265625 303.23431396484375 323.205322265625 301.651611328125 323.98492431640625 300.27734375 C 324.7645263671875 298.903076171875 325.8326416015625 297.8531494140625 327.189208984375 297.12738037109375 C 328.56134033203125 296.38623046875 330.08160400390625 296.015625 331.75 296.015625 C 333.4339599609375 296.015625 334.9542236328125 296.38623046875 336.310791015625 297.12738037109375 C 337.6673583984375 297.8531494140625 338.7354736328125 298.903076171875 339.51507568359375 300.27734375 C 340.294677734375 301.651611328125 340.68450927734375 303.23431396484375 340.68450927734375 305.0255126953125 C 340.68450927734375 306.816650390625 340.294677734375 308.39935302734375 339.51507568359375 309.7735595703125 C 338.7354736328125 311.1478271484375 337.6673583984375 312.20556640625 336.310791015625 312.94671630859375 C 334.9542236328125 313.6724853515625 333.4339599609375 314.0352783203125 331.75 314.0352783203125M 321.435546875 288.8355712890625 C 328.1715087890625 288.8355712890625 334.907470703125 288.8355712890625 341.6434326171875 288.8355712890625 C 341.6434326171875 289.9010009765625 341.6434326171875 290.9664306640625 341.6434326171875 292.0318603515625 C 334.907470703125 292.0318603515625 328.1715087890625 292.0318603515625 321.435546875 292.0318603515625 C 321.435546875 290.9664306640625 321.435546875 289.9010009765625 321.435546875 288.8355712890625M 326.08990478515625 282.674560546875 C 329.7151794433594 282.674560546875 333.3404541015625 282.674560546875 336.9656982421875 282.674560546875 C 336.9656982421875 283.739990234375 336.9656982421875 284.805419921875 336.9656982421875 285.870849609375 C 333.3404541015625 285.870849609375 329.7151794433594 285.870849609375 326.08990478515625 285.870849609375 C 326.08990478515625 284.805419921875 326.08990478515625 283.739990234375 326.08990478515625 282.674560546875M 326.955322265625 305.0255126953125 C 326.955322265625 306.7239990234375 327.3996887207031 308.12139892578125 328.2884521484375 309.21771240234375 C 329.1928405761719 310.298583984375 330.3466796875 310.8389892578125 331.75 310.8389892578125 C 333.1533203125 310.8389892578125 334.30712890625 310.298583984375 335.2115478515625 309.21771240234375 C 336.11590576171875 308.12139892578125 336.568115234375 306.7239990234375 336.568115234375 305.0255126953125 C 336.568115234375 303.32696533203125 336.11590576171875 301.937255859375 335.2115478515625 300.85638427734375 C 334.30712890625 299.76007080078125 333.1533203125 299.2119140625 331.75 299.2119140625 C 330.3466796875 299.2119140625 329.1928405761719 299.76007080078125 328.2884521484375 300.85638427734375 C 327.3996887207031 301.937255859375 326.955322265625 303.32696533203125 326.955322265625 305.0255126953125M 344.0992431640625 281.423828125 C 345.47918701171875 281.423828125 346.859130859375 281.423828125 348.23907470703125 281.423828125 C 348.23907470703125 285.870849609375 348.23907470703125 290.31787109375 348.23907470703125 294.764892578125 C 349.78271484375 294.764892578125 351.326416015625 294.764892578125 352.87005615234375 294.764892578125 C 352.87005615234375 290.07080078125 352.87005615234375 285.37677001953125 352.87005615234375 280.68267822265625 C 354.2421875 280.68267822265625 355.61431884765625 280.68267822265625 356.9864501953125 280.68267822265625 C 356.9864501953125 293.7689208984375 356.9864501953125 306.855224609375 356.9864501953125 319.9415283203125 C 355.61431884765625 319.9415283203125 354.2421875 319.9415283203125 352.87005615234375 319.9415283203125 C 352.87005615234375 312.61474609375 352.87005615234375 305.2879638671875 352.87005615234375 297.961181640625 C 351.326416015625 297.961181640625 349.78271484375 297.961181640625 348.23907470703125 297.961181640625 C 348.23907470703125 304.98687744140625 348.23907470703125 312.0125732421875 348.23907470703125 319.0382080078125 C 346.859130859375 319.0382080078125 345.47918701171875 319.0382080078125 344.0992431640625 319.0382080078125 C 344.0992431640625 306.5001220703125 344.0992431640625 293.96197509765625 344.0992431640625 281.423828125"/>
    <path stroke-width="0" fill="rgb(0, 0, 0)" opacity="1.0" d="M 366.1549072265625 284.15692138671875 C 375.6429443359375 284.15692138671875 385.1309814453125 284.15692138671875 394.6190185546875 284.15692138671875 C 394.6190185546875 285.22235107421875 394.6190185546875 286.28778076171875 394.6190185546875 287.35321044921875 C 390.681884765625 287.35321044921875 386.7447509765625 287.35321044921875 382.80767822265625 287.35321044921875 C 382.63616943359375 288.51129150390625 382.246337890625 289.684814453125 381.63824462890625 290.873779296875 C 382.93243408203125 292.20166015625 384.9906005859375 293.575927734375 387.8128662109375 294.99652099609375 C 390.6507568359375 296.40167236328125 393.71466064453125 297.513427734375 397.004638671875 298.331787109375 C 396.318603515625 299.49755859375 395.632568359375 300.66339111328125 394.94647216796875 301.8292236328125 C 391.859130859375 301.10345458984375 388.810791015625 299.9608154296875 385.80145263671875 298.4012451171875 C 382.7921142578125 296.84173583984375 380.64031982421875 295.39794921875 379.34619140625 294.070068359375 C 377.64654541015625 296.00018310546875 375.55712890625 297.7373046875 373.07794189453125 299.2813720703125 C 370.6143798828125 300.81005859375 368.2442626953125 301.98358154296875 365.9677734375 302.802001953125 C 365.2037353515625 301.69793701171875 364.439697265625 300.5938720703125 363.6756591796875 299.4898681640625 C 365.858642578125 298.76416015625 368.0025634765625 297.7913818359375 370.10760498046875 296.571533203125 C 372.2281494140625 295.3516845703125 374.052490234375 293.9388427734375 375.58056640625 292.33294677734375 C 377.108642578125 290.72705078125 378.0831298828125 289.067138671875 378.504150390625 287.35321044921875 C 374.3876953125 287.35321044921875 370.27130126953125 287.35321044921875 366.1549072265625 287.35321044921875 C 366.1549072265625 286.28778076171875 366.1549072265625 285.22235107421875 366.1549072265625 284.15692138671875M 361.851318359375 306.3919677734375 C 374.4189453125 306.3919677734375 386.9864501953125 306.3919677734375 399.5540771484375 306.3919677734375 C 399.5540771484375 307.4573974609375 399.5540771484375 308.5228271484375 399.5540771484375 309.58831787109375 C 393.971923828125 309.58831787109375 388.38983154296875 309.58831787109375 382.80767822265625 309.58831787109375 C 382.80767822265625 313.28643798828125 382.80767822265625 316.98455810546875 382.80767822265625 320.68267822265625 C 381.40435791015625 320.68267822265625 380.00103759765625 320.68267822265625 378.59771728515625 320.68267822265625 C 378.59771728515625 316.98455810546875 378.59771728515625 313.28643798828125 378.59771728515625 309.58831787109375 C 373.01556396484375 309.58831787109375 367.4334716796875 309.58831787109375 361.851318359375 309.58831787109375 C 361.851318359375 308.5228271484375 361.851318359375 307.4573974609375 361.851318359375 306.3919677734375"/>
    <path stroke-width="0" fill="rgb(0, 0, 0)" opacity="1.0" d="M 401.35498046875 310.5379638671875 C 403.2728271484375 308.26806640625 404.86328125 306.036865234375 406.1263427734375 303.84423828125 C 407.4049072265625 301.63616943359375 408.47296142578125 298.8953857421875 409.33056640625 295.62188720703125 C 410.1881103515625 292.348388671875 410.71826171875 288.35687255859375 410.9210205078125 283.6473388671875 C 412.3321533203125 283.6473388671875 413.7432861328125 283.6473388671875 415.15435791015625 283.6473388671875 C 414.93603515625 287.7392578125 414.45269775390625 291.4991455078125 413.7042236328125 294.927001953125 C 414.1876220703125 297.3204345703125 415.3570556640625 299.968505859375 417.21258544921875 302.8714599609375 C 419.068115234375 305.7589111328125 420.9703369140625 308.044189453125 422.91943359375 309.727294921875 C 421.96051025390625 310.630615234375 421.0015869140625 311.53387451171875 420.0426025390625 312.4371337890625 C 418.4521484375 311.06292724609375 416.8851318359375 309.3026123046875 415.3414306640625 307.1563720703125 C 413.7978515625 304.99462890625 412.6517333984375 302.97955322265625 411.9033203125 301.1112060546875 C 410.35968017578125 305.2647705078125 407.9661865234375 309.194580078125 404.72296142578125 312.900390625 C 403.600341796875 312.1129150390625 402.4776611328125 311.325439453125 401.35498046875 310.5379638671875M 418.569091796875 294.1859130859375 C 420.83782958984375 294.1859130859375 423.1065673828125 294.1859130859375 425.375244140625 294.1859130859375 C 425.375244140625 289.931884765625 425.375244140625 285.6778564453125 425.375244140625 281.423828125 C 426.7239990234375 281.423828125 428.07275390625 281.423828125 429.4215087890625 281.423828125 C 429.4215087890625 293.96197509765625 429.4215087890625 306.5001220703125 429.4215087890625 319.0382080078125 C 428.07275390625 319.0382080078125 426.7239990234375 319.0382080078125 425.375244140625 319.0382080078125 C 425.375244140625 311.935302734375 425.375244140625 304.83245849609375 425.375244140625 297.7296142578125 C 423.1065673828125 297.7296142578125 420.83782958984375 297.7296142578125 418.569091796875 297.7296142578125 C 418.569091796875 296.54833984375 418.569091796875 295.36712646484375 418.569091796875 294.1859130859375M 433.7718505859375 280.68267822265625 C 435.12060546875 280.68267822265625 436.4693603515625 280.68267822265625 437.818115234375 280.68267822265625 C 437.818115234375 293.7689208984375 437.818115234375 306.855224609375 437.818115234375 319.9415283203125 C 436.4693603515625 319.9415283203125 435.12060546875 319.9415283203125 433.7718505859375 319.9415283203125 C 433.7718505859375 306.855224609375 433.7718505859375 293.7689208984375 433.7718505859375 280.68267822265625"/>
    <path stroke-width="0" fill="rgb(0, 0, 0)" opacity="1.0" d="M 461.39398193359375 303.89056396484375 C 459.63201904296875 303.89056396484375 458.06494140625 303.75927734375 456.69281005859375 303.496826171875 C 456.69281005859375 306.0986328125 456.69281005859375 308.700439453125 456.69281005859375 311.30224609375 C 459.92047119140625 311.30224609375 463.14813232421875 311.30224609375 466.375732421875 311.30224609375 C 466.375732421875 308.68499755859375 466.375732421875 306.0677490234375 466.375732421875 303.45050048828125 C 464.8009033203125 303.743896484375 463.140380859375 303.89056396484375 461.39398193359375 303.89056396484375M 442.6829833984375 311.30224609375 C 445.9417724609375 311.30224609375 449.20062255859375 311.30224609375 452.45947265625 311.30224609375 C 452.45947265625 308.26806640625 452.45947265625 305.23394775390625 452.45947265625 302.19976806640625 C 450.60394287109375 301.2733154296875 449.17724609375 300.06890869140625 448.1793212890625 298.5865478515625 C 447.197021484375 297.0887451171875 446.705810546875 295.382568359375 446.705810546875 293.4678955078125 C 446.705810546875 291.367919921875 447.29833984375 289.5303955078125 448.4833984375 287.9554443359375 C 449.66839599609375 286.364990234375 451.36798095703125 285.12969970703125 453.5821533203125 284.24957275390625 C 455.7962646484375 283.35400390625 458.40020751953125 282.90618896484375 461.39398193359375 282.90618896484375 C 464.3876953125 282.90618896484375 466.99169921875 283.35400390625 469.205810546875 284.24957275390625 C 471.419921875 285.12969970703125 473.1195068359375 286.364990234375 474.3045654296875 287.9554443359375 C 475.4896240234375 289.54583740234375 476.0821533203125 291.38330078125 476.0821533203125 293.4678955078125 C 476.0821533203125 295.33624267578125 475.6065673828125 297.0115966796875 474.6553955078125 298.493896484375 C 473.7198486328125 299.9608154296875 472.37109375 301.157470703125 470.609130859375 302.083984375 C 470.609130859375 305.15673828125 470.609130859375 308.2294921875 470.609130859375 311.30224609375 C 473.86798095703125 311.30224609375 477.1268310546875 311.30224609375 480.3856201171875 311.30224609375 C 480.3856201171875 312.7073974609375 480.3856201171875 314.112548828125 480.3856201171875 315.5177001953125 C 467.818115234375 315.5177001953125 455.25048828125 315.5177001953125 442.6829833984375 315.5177001953125 C 442.6829833984375 314.112548828125 442.6829833984375 312.7073974609375 442.6829833984375 311.30224609375M 450.939208984375 293.39837646484375 C 450.939208984375 294.91162109375 451.399169921875 296.21636962890625 452.319091796875 297.31268310546875 C 453.254638671875 298.40899658203125 454.5098876953125 299.25048828125 456.084716796875 299.8372802734375 C 457.6751708984375 300.4085693359375 459.4449462890625 300.69427490234375 461.39398193359375 300.69427490234375 C 463.343017578125 300.69427490234375 465.11279296875 300.4085693359375 466.7032470703125 299.8372802734375 C 468.293701171875 299.25048828125 469.548828125 298.40899658203125 470.46881103515625 297.31268310546875 C 471.40435791015625 296.21636962890625 471.87213134765625 294.91162109375 471.87213134765625 293.39837646484375 C 471.87213134765625 291.8851318359375 471.40435791015625 290.58038330078125 470.46881103515625 289.48406982421875 C 469.548828125 288.38775634765625 468.293701171875 287.553955078125 466.7032470703125 286.982666015625 C 465.11279296875 286.3958740234375 463.343017578125 286.10247802734375 461.39398193359375 286.10247802734375 C 459.4449462890625 286.10247802734375 457.6751708984375 286.3958740234375 456.084716796875 286.982666015625 C 454.5098876953125 287.553955078125 453.254638671875 288.38775634765625 452.319091796875 289.48406982421875 C 451.399169921875 290.58038330078125 450.939208984375 291.8851318359375 450.939208984375 293.39837646484375"/>
  </g>
</svg>
