<?xml version="1.0" encoding="utf-8"?>
<svg xmlns="http://www.w3.org/2000/svg" xmlns:ev="http://www.w3.org/2001/xml-events" xmlns:xlink="http://www.w3.org/1999/xlink" version="1.1" baseProfile="full" width="8546.0" height="1727.0" viewBox="75.0 -1568.0 8546.0 1727.0">
<defs/>
<g><path d="M 7119.000000 -256.000000 C 7100.333333 -256.000000 7085.333333 -261.000000 7074.000000 -271.000000 C 7063.333333 -281.666667 7058.666667 -296.666667 7060.000000 -316.000000 C 7069.000000 -637.333333 7078.000000 -958.666667 7087.000000 -1280.000000 C 7064.000000 -1280.000000 7041.000000 -1280.000000 7018.000000 -1280.000000 C 7018.000000 -1326.000000 7018.000000 -1372.000000 7018.000000 -1418.000000 C 7312.333333 -1418.000000 7606.666667 -1418.000000 7901.000000 -1418.000000 C 7901.000000 -1372.000000 7901.000000 -1326.000000 7901.000000 -1280.000000 C 7689.666667 -1280.000000 7478.333333 -1280.000000 7267.000000 -1280.000000 C 7258.000000 -984.666667 7249.000000 -689.333333 7240.000000 -394.000000 C 7475.666667 -394.000000 7711.333333 -394.000000 7947.000000 -394.000000 C 7947.000000 -348.000000 7947.000000 -302.000000 7947.000000 -256.000000 C 7671.000000 -256.000000 7395.000000 -256.000000 7119.000000 -256.000000z M 8191.000000 -1568.000000 C 8251.000000 -1568.000000 8311.000000 -1568.000000 8371.000000 -1568.000000 C 8371.000000 -1344.000000 8371.000000 -1120.000000 8371.000000 -896.000000 C 8454.333333 -896.000000 8537.666667 -896.000000 8621.000000 -896.000000 C 8621.000000 -850.000000 8621.000000 -804.000000 8621.000000 -758.000000 C 8537.666667 -758.000000 8454.333333 -758.000000 8371.000000 -758.000000 C 8371.000000 -463.000000 8371.000000 -168.000000 8371.000000 127.000000 C 8311.000000 127.000000 8251.000000 127.000000 8191.000000 127.000000 C 8191.000000 -438.000000 8191.000000 -1003.000000 8191.000000 -1568.000000z "/>
</g></svg>
