<?xml version="1.0" encoding="utf-8"?>
<svg xmlns="http://www.w3.org/2000/svg" xmlns:ev="http://www.w3.org/2001/xml-events" xmlns:xlink="http://www.w3.org/1999/xlink" version="1.1" baseProfile="full" width="8499.0" height="1696.0" viewBox="83.0 -1568.0 8499.0 1696.0">
<defs/>
<g><path d="M 541.000000 -630.000000 C 455.666667 -630.000000 378.000000 -648.666667 308.000000 -686.000000 C 238.666667 -723.333333 183.666667 -774.000000 143.000000 -838.000000 C 103.000000 -902.000000 83.000000 -973.000000 83.000000 -1051.000000 C 83.000000 -1129.000000 103.000000 -1200.000000 143.000000 -1264.000000 C 183.666667 -1328.000000 238.666667 -1378.666667 308.000000 -1416.000000 C 378.000000 -1453.333333 455.666667 -1472.000000 541.000000 -1472.000000 C 627.000000 -1472.000000 704.666667 -1453.333333 774.000000 -1416.000000 C 844.000000 -1378.666667 899.000000 -1328.000000 939.000000 -1264.000000 C 979.666667 -1200.000000 1000.000000 -1129.000000 1000.000000 -1051.000000 C 1000.000000 -973.000000 979.666667 -902.000000 939.000000 -838.000000 C 899.000000 -774.000000 844.000000 -723.333333 774.000000 -686.000000 C 704.666667 -648.666667 627.000000 -630.000000 541.000000 -630.000000z M 259.000000 -1051.000000 C 259.000000 -967.666667 284.333333 -899.666667 335.000000 -847.000000 C 385.666667 -794.333333 454.333333 -768.000000 541.000000 -768.000000 C 628.333333 -768.000000 697.333333 -794.333333 748.000000 -847.000000 C 798.666667 -899.666667 824.000000 -967.666667 824.000000 -1051.000000 C 824.000000 -1134.333333 798.666667 -1202.333333 748.000000 -1255.000000 C 697.333333 -1307.666667 628.333333 -1334.000000 541.000000 -1334.000000 C 454.333333 -1334.000000 385.666667 -1307.666667 335.000000 -1255.000000 C 284.333333 -1202.333333 259.000000 -1134.333333 259.000000 -1051.000000z M 323.000000 -429.000000 C 383.000000 -429.000000 443.000000 -429.000000 503.000000 -429.000000 C 503.000000 -289.333333 503.000000 -149.666667 503.000000 -10.000000 C 828.000000 -10.000000 1153.000000 -10.000000 1478.000000 -10.000000 C 1478.000000 36.000000 1478.000000 82.000000 1478.000000 128.000000 C 1112.666667 128.000000 747.333333 128.000000 382.000000 128.000000 C 342.666667 128.000000 323.000000 107.666667 323.000000 67.000000 C 323.000000 -98.333333 323.000000 -263.666667 323.000000 -429.000000z M 1279.000000 -1536.000000 C 1339.000000 -1536.000000 1399.000000 -1536.000000 1459.000000 -1536.000000 C 1459.000000 -1390.000000 1459.000000 -1244.000000 1459.000000 -1098.000000 C 1542.333333 -1098.000000 1625.666667 -1098.000000 1709.000000 -1098.000000 C 1709.000000 -1052.000000 1709.000000 -1006.000000 1709.000000 -960.000000 C 1625.666667 -960.000000 1542.333333 -960.000000 1459.000000 -960.000000 C 1459.000000 -736.666667 1459.000000 -513.333333 1459.000000 -290.000000 C 1399.000000 -290.000000 1339.000000 -290.000000 1279.000000 -290.000000 C 1279.000000 -705.333333 1279.000000 -1120.666667 1279.000000 -1536.000000z "/>
</g>
<g><path d="M 1955.000000 -704.000000 C 1915.000000 -704.000000 1895.000000 -724.000000 1895.000000 -764.000000 C 1895.000000 -1010.666667 1895.000000 -1257.333333 1895.000000 -1504.000000 C 1955.333333 -1504.000000 2015.666667 -1504.000000 2076.000000 -1504.000000 C 2076.000000 -1283.333333 2076.000000 -1062.666667 2076.000000 -842.000000 C 2317.666667 -842.000000 2559.333333 -842.000000 2801.000000 -842.000000 C 2801.000000 -796.000000 2801.000000 -750.000000 2801.000000 -704.000000 C 2519.000000 -704.000000 2237.000000 -704.000000 1955.000000 -704.000000z M 2052.000000 -197.000000 C 2052.000000 -304.333333 2104.000000 -385.333333 2208.000000 -440.000000 C 2312.666667 -494.666667 2465.000000 -522.000000 2665.000000 -522.000000 C 2864.333333 -522.000000 3016.000000 -494.666667 3120.000000 -440.000000 C 3224.666667 -385.333333 3277.000000 -304.333333 3277.000000 -197.000000 C 3277.000000 -89.666667 3224.666667 -8.666667 3120.000000 46.000000 C 3016.000000 100.666667 2864.333333 128.000000 2665.000000 128.000000 C 2465.000000 128.000000 2312.666667 100.666667 2208.000000 46.000000 C 2104.000000 -8.666667 2052.000000 -89.666667 2052.000000 -197.000000z M 2233.000000 -197.000000 C 2233.000000 -134.333333 2272.000000 -87.333333 2350.000000 -56.000000 C 2428.000000 -25.333333 2533.000000 -10.000000 2665.000000 -10.000000 C 2797.000000 -10.000000 2902.000000 -25.333333 2980.000000 -56.000000 C 3058.000000 -87.333333 3097.000000 -134.333333 3097.000000 -197.000000 C 3097.000000 -259.000000 3058.000000 -305.666667 2980.000000 -337.000000 C 2902.000000 -368.333333 2797.000000 -384.000000 2665.000000 -384.000000 C 2533.000000 -384.000000 2428.000000 -368.333333 2350.000000 -337.000000 C 2272.000000 -305.666667 2233.000000 -259.000000 2233.000000 -197.000000z M 2634.000000 -1152.000000 C 2782.666667 -1152.000000 2931.333333 -1152.000000 3080.000000 -1152.000000 C 3080.000000 -1194.666667 3080.000000 -1237.333333 3080.000000 -1280.000000 C 2931.333333 -1280.000000 2782.666667 -1280.000000 2634.000000 -1280.000000 C 2634.000000 -1326.000000 2634.000000 -1372.000000 2634.000000 -1418.000000 C 2782.666667 -1418.000000 2931.333333 -1418.000000 3080.000000 -1418.000000 C 3080.000000 -1468.000000 3080.000000 -1518.000000 3080.000000 -1568.000000 C 3140.000000 -1568.000000 3200.000000 -1568.000000 3260.000000 -1568.000000 C 3260.000000 -1233.333333 3260.000000 -898.666667 3260.000000 -564.000000 C 3200.000000 -564.000000 3140.000000 -564.000000 3080.000000 -564.000000 C 3080.000000 -714.000000 3080.000000 -864.000000 3080.000000 -1014.000000 C 2931.333333 -1014.000000 2782.666667 -1014.000000 2634.000000 -1014.000000 C 2634.000000 -1060.000000 2634.000000 -1106.000000 2634.000000 -1152.000000z "/>
</g>
<g><path d="M 4061.000000 -128.000000 C 3983.000000 -128.000000 3910.333333 -144.333333 3843.000000 -177.000000 C 3775.666667 -210.333333 3721.666667 -257.000000 3681.000000 -317.000000 C 3641.000000 -377.000000 3621.000000 -443.666667 3621.000000 -517.000000 C 3621.000000 -590.333333 3641.000000 -657.000000 3681.000000 -717.000000 C 3721.666667 -777.000000 3775.666667 -823.333333 3843.000000 -856.000000 C 3910.333333 -889.333333 3983.000000 -906.000000 4061.000000 -906.000000 C 4139.000000 -906.000000 4211.666667 -889.333333 4279.000000 -856.000000 C 4346.333333 -823.333333 4400.000000 -777.000000 4440.000000 -717.000000 C 4480.000000 -657.000000 4500.000000 -590.333333 4500.000000 -517.000000 C 4500.000000 -443.666667 4480.000000 -377.000000 4440.000000 -317.000000 C 4400.000000 -257.000000 4346.333333 -210.333333 4279.000000 -177.000000 C 4211.666667 -144.333333 4139.000000 -128.000000 4061.000000 -128.000000z M 3533.000000 -1216.000000 C 3878.666667 -1216.000000 4224.333333 -1216.000000 4570.000000 -1216.000000 C 4570.000000 -1170.000000 4570.000000 -1124.000000 4570.000000 -1078.000000 C 4224.333333 -1078.000000 3878.666667 -1078.000000 3533.000000 -1078.000000 C 3533.000000 -1124.000000 3533.000000 -1170.000000 3533.000000 -1216.000000z M 3765.000000 -1482.000000 C 3955.666667 -1482.000000 4146.333333 -1482.000000 4337.000000 -1482.000000 C 4337.000000 -1436.000000 4337.000000 -1390.000000 4337.000000 -1344.000000 C 4146.333333 -1344.000000 3955.666667 -1344.000000 3765.000000 -1344.000000 C 3765.000000 -1390.000000 3765.000000 -1436.000000 3765.000000 -1482.000000z M 3802.000000 -517.000000 C 3802.000000 -443.666667 3826.000000 -383.333333 3874.000000 -336.000000 C 3922.000000 -289.333333 3984.333333 -266.000000 4061.000000 -266.000000 C 4137.666667 -266.000000 4200.000000 -289.333333 4248.000000 -336.000000 C 4296.000000 -383.333333 4320.000000 -443.666667 4320.000000 -517.000000 C 4320.000000 -590.333333 4296.000000 -650.333333 4248.000000 -697.000000 C 4200.000000 -744.333333 4137.666667 -768.000000 4061.000000 -768.000000 C 3984.333333 -768.000000 3922.000000 -744.333333 3874.000000 -697.000000 C 3826.000000 -650.333333 3802.000000 -590.333333 3802.000000 -517.000000z M 4735.000000 -1568.000000 C 4795.000000 -1568.000000 4855.000000 -1568.000000 4915.000000 -1568.000000 C 4915.000000 -1344.000000 4915.000000 -1120.000000 4915.000000 -896.000000 C 4998.333333 -896.000000 5081.666667 -896.000000 5165.000000 -896.000000 C 5165.000000 -850.000000 5165.000000 -804.000000 5165.000000 -758.000000 C 5081.666667 -758.000000 4998.333333 -758.000000 4915.000000 -758.000000 C 4915.000000 -463.000000 4915.000000 -168.000000 4915.000000 127.000000 C 4855.000000 127.000000 4795.000000 127.000000 4735.000000 127.000000 C 4735.000000 -438.000000 4735.000000 -1003.000000 4735.000000 -1568.000000z "/>
</g>
<g><path d="M 5203.000000 -279.000000 C 5285.000000 -377.000000 5353.000000 -473.333333 5407.000000 -568.000000 C 5461.666667 -663.333333 5507.333333 -781.666667 5544.000000 -923.000000 C 5580.666667 -1064.333333 5603.333333 -1236.666667 5612.000000 -1440.000000 C 5672.333333 -1440.000000 5732.666667 -1440.000000 5793.000000 -1440.000000 C 5783.666667 -1263.333333 5763.000000 -1101.000000 5731.000000 -953.000000 C 5751.666667 -849.666667 5801.666667 -735.333333 5881.000000 -610.000000 C 5960.333333 -485.333333 6041.666667 -386.666667 6125.000000 -314.000000 C 6084.000000 -275.000000 6043.000000 -236.000000 6002.000000 -197.000000 C 5934.000000 -256.333333 5867.000000 -332.333333 5801.000000 -425.000000 C 5735.000000 -518.333333 5686.000000 -605.333333 5654.000000 -686.000000 C 5588.000000 -506.666667 5485.666667 -337.000000 5347.000000 -177.000000 C 5299.000000 -211.000000 5251.000000 -245.000000 5203.000000 -279.000000z M 5939.000000 -985.000000 C 6036.000000 -985.000000 6133.000000 -985.000000 6230.000000 -985.000000 C 6230.000000 -1168.666667 6230.000000 -1352.333333 6230.000000 -1536.000000 C 6287.666667 -1536.000000 6345.333333 -1536.000000 6403.000000 -1536.000000 C 6403.000000 -994.666667 6403.000000 -453.333333 6403.000000 88.000000 C 6345.333333 88.000000 6287.666667 88.000000 6230.000000 88.000000 C 6230.000000 -218.666667 6230.000000 -525.333333 6230.000000 -832.000000 C 6133.000000 -832.000000 6036.000000 -832.000000 5939.000000 -832.000000 C 5939.000000 -883.000000 5939.000000 -934.000000 5939.000000 -985.000000z M 6589.000000 -1568.000000 C 6646.666667 -1568.000000 6704.333333 -1568.000000 6762.000000 -1568.000000 C 6762.000000 -1003.000000 6762.000000 -438.000000 6762.000000 127.000000 C 6704.333333 127.000000 6646.666667 127.000000 6589.000000 127.000000 C 6589.000000 -438.000000 6589.000000 -1003.000000 6589.000000 -1568.000000z "/>
</g>
<g><path d="M 7770.000000 -566.000000 C 7694.666667 -566.000000 7627.666667 -571.666667 7569.000000 -583.000000 C 7569.000000 -470.666667 7569.000000 -358.333333 7569.000000 -246.000000 C 7707.000000 -246.000000 7845.000000 -246.000000 7983.000000 -246.000000 C 7983.000000 -359.000000 7983.000000 -472.000000 7983.000000 -585.000000 C 7915.666667 -572.333333 7844.666667 -566.000000 7770.000000 -566.000000z M 6970.000000 -246.000000 C 7109.333333 -246.000000 7248.666667 -246.000000 7388.000000 -246.000000 C 7388.000000 -377.000000 7388.000000 -508.000000 7388.000000 -639.000000 C 7308.666667 -679.000000 7247.666667 -731.000000 7205.000000 -795.000000 C 7163.000000 -859.666667 7142.000000 -933.333333 7142.000000 -1016.000000 C 7142.000000 -1106.666667 7167.333333 -1186.000000 7218.000000 -1254.000000 C 7268.666667 -1322.666667 7341.333333 -1376.000000 7436.000000 -1414.000000 C 7530.666667 -1452.666667 7642.000000 -1472.000000 7770.000000 -1472.000000 C 7898.000000 -1472.000000 8009.333333 -1452.666667 8104.000000 -1414.000000 C 8198.666667 -1376.000000 8271.333333 -1322.666667 8322.000000 -1254.000000 C 8372.666667 -1185.333333 8398.000000 -1106.000000 8398.000000 -1016.000000 C 8398.000000 -935.333333 8377.666667 -863.000000 8337.000000 -799.000000 C 8297.000000 -735.666667 8239.333333 -684.000000 8164.000000 -644.000000 C 8164.000000 -511.333333 8164.000000 -378.666667 8164.000000 -246.000000 C 8303.333333 -246.000000 8442.666667 -246.000000 8582.000000 -246.000000 C 8582.000000 -185.333333 8582.000000 -124.666667 8582.000000 -64.000000 C 8044.666667 -64.000000 7507.333333 -64.000000 6970.000000 -64.000000 C 6970.000000 -124.666667 6970.000000 -185.333333 6970.000000 -246.000000z M 7323.000000 -1019.000000 C 7323.000000 -953.666667 7342.666667 -897.333333 7382.000000 -850.000000 C 7422.000000 -802.666667 7475.666667 -766.333333 7543.000000 -741.000000 C 7611.000000 -716.333333 7686.666667 -704.000000 7770.000000 -704.000000 C 7853.333333 -704.000000 7929.000000 -716.333333 7997.000000 -741.000000 C 8065.000000 -766.333333 8118.666667 -802.666667 8158.000000 -850.000000 C 8198.000000 -897.333333 8218.000000 -953.666667 8218.000000 -1019.000000 C 8218.000000 -1084.333333 8198.000000 -1140.666667 8158.000000 -1188.000000 C 8118.666667 -1235.333333 8065.000000 -1271.333333 7997.000000 -1296.000000 C 7929.000000 -1321.333333 7853.333333 -1334.000000 7770.000000 -1334.000000 C 7686.666667 -1334.000000 7611.000000 -1321.333333 7543.000000 -1296.000000 C 7475.666667 -1271.333333 7422.000000 -1235.333333 7382.000000 -1188.000000 C 7342.666667 -1140.666667 7323.000000 -1084.333333 7323.000000 -1019.000000z "/>
</g>
</svg>
