<?xml version="1.0" encoding="utf-8"?>
<svg xmlns="http://www.w3.org/2000/svg" xmlns:ev="http://www.w3.org/2001/xml-events" xmlns:xlink="http://www.w3.org/1999/xlink" version="1.1" baseProfile="full" width="1077.0" height="1440.0" viewBox="2316.0 -1440.0 1077.0 1440.0">
<defs/>
<g><path d=""/>
</g>
<g><path d="M 3393.000000 -365.000000 C 3347.666667 -311.666667 3287.333333 -256.333333 3212.000000 -199.000000 C 3136.666667 -141.666667 3067.666667 -100.333333 3005.000000 -75.000000 C 2881.000000 -25.000000 2744.666667 0.000000 2596.000000 0.000000 C 2507.333333 0.000000 2437.666667 -31.000000 2387.000000 -93.000000 C 2341.666667 -151.666667 2318.000000 -228.000000 2316.000000 -322.000000 C 2316.000000 -694.666667 2316.000000 -1067.333333 2316.000000 -1440.000000 C 2367.000000 -1440.000000 2418.000000 -1440.000000 2469.000000 -1440.000000 C 2469.000000 -1059.000000 2469.000000 -678.000000 2469.000000 -297.000000 C 2469.000000 -247.666667 2479.666667 -209.333333 2501.000000 -182.000000 C 2523.000000 -155.333333 2553.333333 -142.000000 2592.000000 -142.000000 C 2757.333333 -142.000000 2898.000000 -175.333333 3014.000000 -242.000000 C 3138.666667 -314.000000 3233.000000 -394.666667 3297.000000 -484.000000 C 3329.000000 -444.333333 3361.000000 -404.666667 3393.000000 -365.000000z "/>
</g>
<g><path d=""/>
</g>
</svg>
