<?xml version="1.0" encoding="utf-8"?>
<svg xmlns="http://www.w3.org/2000/svg" xmlns:ev="http://www.w3.org/2001/xml-events" xmlns:xlink="http://www.w3.org/1999/xlink" version="1.1" baseProfile="full" width="8546.0" height="1727.0" viewBox="75.0 -1568.0 8546.0 1727.0">
<defs/>
<g><path d="M 1766.000000 -261.000000 C 1898.000000 -388.333333 2007.000000 -548.333333 2093.000000 -741.000000 C 2179.666667 -933.666667 2229.666667 -1166.666667 2243.000000 -1440.000000 C 2303.000000 -1440.000000 2363.000000 -1440.000000 2423.000000 -1440.000000 C 2411.666667 -1236.666667 2384.000000 -1056.333333 2340.000000 -899.000000 C 2374.666667 -801.666667 2442.000000 -694.333333 2542.000000 -577.000000 C 2642.000000 -460.333333 2738.666667 -369.333333 2832.000000 -304.000000 C 2794.333333 -262.333333 2756.666667 -220.666667 2719.000000 -179.000000 C 2639.666667 -235.666667 2555.000000 -311.333333 2465.000000 -406.000000 C 2375.666667 -501.333333 2309.333333 -590.666667 2266.000000 -674.000000 C 2180.000000 -476.000000 2057.000000 -300.000000 1897.000000 -146.000000 C 1853.333333 -184.333333 1809.666667 -222.666667 1766.000000 -261.000000z M 3007.000000 -1536.000000 C 3067.000000 -1536.000000 3127.000000 -1536.000000 3187.000000 -1536.000000 C 3187.000000 -1310.000000 3187.000000 -1084.000000 3187.000000 -858.000000 C 3270.333333 -858.000000 3353.666667 -858.000000 3437.000000 -858.000000 C 3437.000000 -806.666667 3437.000000 -755.333333 3437.000000 -704.000000 C 3353.666667 -704.000000 3270.333333 -704.000000 3187.000000 -704.000000 C 3187.000000 -416.333333 3187.000000 -128.666667 3187.000000 159.000000 C 3127.000000 159.000000 3067.000000 159.000000 3007.000000 159.000000 C 3007.000000 -406.000000 3007.000000 -971.000000 3007.000000 -1536.000000z "/>
</g></svg>
