<?xml version="1.0" ?>
<svg xmlns="http://www.w3.org/2000/svg" version="1.1" width="600" height="600">
  <defs/>
  <g>
    <path stroke-width="0" fill="rgb(0, 0, 0)" opacity="1.0" d="M 135.39013671875 393.7783203125 C 152.7955322265625 372.9764404296875 167.2291259765625 352.5283203125 178.6912841796875 332.4339599609375 C 190.2947998046875 312.1981201171875 199.988037109375 287.0802001953125 207.7708740234375 257.0802001953125 C 215.5537109375 227.0802001953125 220.364990234375 190.5 222.20458984375 147.33963012695312 C 235.010986328125 147.33963012695312 247.8172607421875 147.33963012695312 260.6236572265625 147.33963012695312 C 258.642578125 184.839599609375 254.255859375 219.29718017578125 247.4635009765625 250.7122802734375 C 251.8502197265625 272.646240234375 262.4632568359375 296.91510009765625 279.3026123046875 323.51885986328125 C 296.1419677734375 349.98114013671875 313.40576171875 370.924560546875 331.0941162109375 386.34906005859375 C 322.3914794921875 394.6273193359375 313.688720703125 402.9056396484375 304.986083984375 411.1839599609375 C 290.5523681640625 398.589599609375 276.3309326171875 382.45751953125 262.32177734375 362.7877197265625 C 248.3126220703125 342.9764404296875 237.911865234375 324.50946044921875 231.1195068359375 307.38677978515625 C 217.1103515625 345.45281982421875 195.3890380859375 381.46697998046875 165.95556640625 415.42926025390625 C 155.76708984375 408.2122802734375 145.57861328125 400.99530029296875 135.39013671875 393.7783203125M 291.6136474609375 243.9197998046875 C 312.202880859375 243.9197998046875 332.792236328125 243.9197998046875 353.3814697265625 243.9197998046875 C 353.3814697265625 204.9339599609375 353.3814697265625 165.9481201171875 353.3814697265625 126.9622802734375 C 365.6217041015625 126.9622802734375 377.8621826171875 126.9622802734375 390.1024169921875 126.9622802734375 C 390.1024169921875 241.867919921875 390.1024169921875 356.7735595703125 390.1024169921875 471.67926025390625 C 377.8621826171875 471.67926025390625 365.6217041015625 471.67926025390625 353.3814697265625 471.67926025390625 C 353.3814697265625 406.58489990234375 353.3814697265625 341.4906005859375 353.3814697265625 276.396240234375 C 332.792236328125 276.396240234375 312.202880859375 276.396240234375 291.6136474609375 276.396240234375 C 291.6136474609375 265.57073974609375 291.6136474609375 254.74530029296875 291.6136474609375 243.9197998046875M 429.5828857421875 120.1697998046875 C 441.8231201171875 120.1697998046875 454.0635986328125 120.1697998046875 466.3038330078125 120.1697998046875 C 466.3038330078125 240.09906005859375 466.3038330078125 360.0283203125 466.3038330078125 479.95751953125 C 454.0635986328125 479.95751953125 441.8231201171875 479.95751953125 429.5828857421875 479.95751953125 C 429.5828857421875 360.0283203125 429.5828857421875 240.09906005859375 429.5828857421875 120.1697998046875"/>
  </g>
</svg>
