<?xml version="1.0" encoding="utf-8"?>
<svg xmlns="http://www.w3.org/2000/svg" xmlns:ev="http://www.w3.org/2001/xml-events" xmlns:xlink="http://www.w3.org/1999/xlink" version="1.1" baseProfile="full" width="8499.0" height="1696.0" viewBox="83.0 -1568.0 8499.0 1696.0">
<defs/>
<g><path d="M 541.000000 -630.000000 C 455.666667 -630.000000 378.000000 -648.666667 308.000000 -686.000000 C 238.666667 -723.333333 183.666667 -774.000000 143.000000 -838.000000 C 103.000000 -902.000000 83.000000 -973.000000 83.000000 -1051.000000 C 83.000000 -1129.000000 103.000000 -1200.000000 143.000000 -1264.000000 C 183.666667 -1328.000000 238.666667 -1378.666667 308.000000 -1416.000000 C 378.000000 -1453.333333 455.666667 -1472.000000 541.000000 -1472.000000 C 627.000000 -1472.000000 704.666667 -1453.333333 774.000000 -1416.000000 C 844.000000 -1378.666667 899.000000 -1328.000000 939.000000 -1264.000000 C 979.666667 -1200.000000 1000.000000 -1129.000000 1000.000000 -1051.000000 C 1000.000000 -973.000000 979.666667 -902.000000 939.000000 -838.000000 C 899.000000 -774.000000 844.000000 -723.333333 774.000000 -686.000000 C 704.666667 -648.666667 627.000000 -630.000000 541.000000 -630.000000z M 259.000000 -1051.000000 C 259.000000 -967.666667 284.333333 -899.666667 335.000000 -847.000000 C 385.666667 -794.333333 454.333333 -768.000000 541.000000 -768.000000 C 628.333333 -768.000000 697.333333 -794.333333 748.000000 -847.000000 C 798.666667 -899.666667 824.000000 -967.666667 824.000000 -1051.000000 C 824.000000 -1134.333333 798.666667 -1202.333333 748.000000 -1255.000000 C 697.333333 -1307.666667 628.333333 -1334.000000 541.000000 -1334.000000 C 454.333333 -1334.000000 385.666667 -1307.666667 335.000000 -1255.000000 C 284.333333 -1202.333333 259.000000 -1134.333333 259.000000 -1051.000000z M 323.000000 -429.000000 C 383.000000 -429.000000 443.000000 -429.000000 503.000000 -429.000000 C 503.000000 -289.333333 503.000000 -149.666667 503.000000 -10.000000 C 828.000000 -10.000000 1153.000000 -10.000000 1478.000000 -10.000000 C 1478.000000 36.000000 1478.000000 82.000000 1478.000000 128.000000 C 1112.666667 128.000000 747.333333 128.000000 382.000000 128.000000 C 342.666667 128.000000 323.000000 107.666667 323.000000 67.000000 C 323.000000 -98.333333 323.000000 -263.666667 323.000000 -429.000000z M 1279.000000 -1536.000000 C 1339.000000 -1536.000000 1399.000000 -1536.000000 1459.000000 -1536.000000 C 1459.000000 -1390.000000 1459.000000 -1244.000000 1459.000000 -1098.000000 C 1542.333333 -1098.000000 1625.666667 -1098.000000 1709.000000 -1098.000000 C 1709.000000 -1052.000000 1709.000000 -1006.000000 1709.000000 -960.000000 C 1625.666667 -960.000000 1542.333333 -960.000000 1459.000000 -960.000000 C 1459.000000 -736.666667 1459.000000 -513.333333 1459.000000 -290.000000 C 1399.000000 -290.000000 1339.000000 -290.000000 1279.000000 -290.000000 C 1279.000000 -705.333333 1279.000000 -1120.666667 1279.000000 -1536.000000z "/>
</g></svg>
