<?xml version="1.0" ?>
<svg xmlns="http://www.w3.org/2000/svg" version="1.1" width="600" height="600">
  <defs/>
  <g>
    <path stroke-width="0" fill="rgb(0, 0, 0)" opacity="1.0" d="M 170.6610107421875 397.6357421875 C 162.324951171875 397.6357421875 158.1568603515625 393.4666748046875 158.1568603515625 385.1285400390625 C 158.1568603515625 307.02777099609375 158.1568603515625 228.92703247070312 158.1568603515625 150.8262939453125 C 170.73046875 150.8262939453125 183.303955078125 150.8262939453125 195.8775634765625 150.8262939453125 C 195.8775634765625 223.50723266601562 195.8775634765625 296.18817138671875 195.8775634765625 368.869140625 C 248.255859375 368.869140625 300.6341552734375 368.869140625 353.012451171875 368.869140625 C 353.012451171875 378.4580078125 353.012451171875 388.046875 353.012451171875 397.6357421875 C 292.2286376953125 397.6357421875 231.44482421875 397.6357421875 170.6610107421875 397.6357421875M 405.11279296875 124.1441650390625 C 417.616943359375 124.1441650390625 430.1209716796875 124.1441650390625 442.6251220703125 124.1441650390625 C 442.6251220703125 241.920654296875 442.6251220703125 359.6971435546875 442.6251220703125 477.4736328125 C 430.1209716796875 477.4736328125 417.616943359375 477.4736328125 405.11279296875 477.4736328125 C 405.11279296875 359.6971435546875 405.11279296875 241.920654296875 405.11279296875 124.1441650390625"/>
  </g>
</svg>
