<?xml version="1.0" ?>
<svg xmlns="http://www.w3.org/2000/svg" version="1.1" width="600" height="600">
  <defs/>
  <g>
    <path stroke-width="0" fill="rgb(0, 0, 0)" opacity="1.0" d="M 238.23486328125 217.82455444335938 C 265.188232421875 217.82455444335938 287.209228515625 223.17486572265625 304.298095703125 233.87548828125 C 321.3870849609375 244.57614135742188 329.9315185546875 259.9322509765625 329.9315185546875 279.94384765625 C 329.9315185546875 300.0943908691406 321.3870849609375 315.51995849609375 304.298095703125 326.2205810546875 C 287.209228515625 336.9212646484375 265.188232421875 342.2716064453125 238.23486328125 342.2716064453125 C 211.2816162109375 342.2716064453125 189.260498046875 336.9212646484375 172.1715087890625 326.2205810546875 C 155.2215576171875 315.51995849609375 146.74658203125 300.0943908691406 146.74658203125 279.94384765625 C 146.74658203125 259.9322509765625 155.2215576171875 244.57614135742188 172.1715087890625 233.87548828125 C 189.260498046875 223.17486572265625 211.2816162109375 217.82455444335938 238.23486328125 217.82455444335938M 130.2828369140625 168.83786010742188 C 202.3203125 168.83786010742188 274.35791015625 168.83786010742188 346.395263671875 168.83786010742188 C 346.395263671875 179.19107055664062 346.395263671875 189.5443115234375 346.395263671875 199.89752197265625 C 274.35791015625 199.89752197265625 202.3203125 199.89752197265625 130.2828369140625 199.89752197265625 C 130.2828369140625 189.5443115234375 130.2828369140625 179.19107055664062 130.2828369140625 168.83786010742188M 176.96484375 358.73944091796875 C 189.538330078125 358.73944091796875 202.1119384765625 358.73944091796875 214.685546875 358.73944091796875 C 214.685546875 366.5911865234375 214.685546875 374.4429931640625 214.685546875 382.29473876953125 C 269.911865234375 382.29473876953125 325.1383056640625 382.29473876953125 380.36474609375 382.29473876953125 C 380.36474609375 374.4429931640625 380.36474609375 366.5911865234375 380.36474609375 358.73944091796875 C 392.868896484375 358.73944091796875 405.3729248046875 358.73944091796875 417.876953125 358.73944091796875 C 417.876953125 388.96527099609375 417.876953125 419.1910400390625 417.876953125 449.4168701171875 C 417.876953125 451.50146484375 416.973876953125 453.7249755859375 415.167724609375 456.08740234375 C 409.957763671875 461.57672119140625 404.747802734375 467.0660400390625 399.53759765625 472.5552978515625 C 397.45361328125 474.63983154296875 395.0223388671875 475.68212890625 392.24365234375 475.68212890625 C 324.929931640625 475.68212890625 257.6162109375 475.68212890625 190.302490234375 475.68212890625 C 186.55126953125 475.68212890625 183.355712890625 474.5703125 180.716064453125 472.3468017578125 C 178.2152099609375 470.12335205078125 176.96484375 467.135498046875 176.96484375 463.38330078125 C 176.96484375 428.50201416015625 176.96484375 393.6207275390625 176.96484375 358.73944091796875M 178.632080078125 124.43716430664062 C 218.3671875 124.43716430664062 258.1025390625 124.43716430664062 297.837646484375 124.43716430664062 C 297.837646484375 134.79037475585938 297.837646484375 145.14361572265625 297.837646484375 155.496826171875 C 258.1025390625 155.496826171875 218.3671875 155.496826171875 178.632080078125 155.496826171875 C 178.632080078125 145.14361572265625 178.632080078125 134.79037475585938 178.632080078125 124.43716430664062M 183.42529296875 280.15228271484375 C 183.42529296875 289.880126953125 188.5657958984375 297.5234375 198.846923828125 303.08221435546875 C 209.1280517578125 308.50201416015625 222.25732421875 311.2119140625 238.23486328125 311.2119140625 C 254.2122802734375 311.2119140625 267.341552734375 308.50201416015625 277.622802734375 303.08221435546875 C 287.9039306640625 297.5234375 293.04443359375 289.880126953125 293.04443359375 280.15228271484375 C 293.04443359375 270.28546142578125 287.9039306640625 262.64215087890625 277.622802734375 257.22235107421875 C 267.341552734375 251.66357421875 254.2122802734375 248.88418579101562 238.23486328125 248.88418579101562 C 222.25732421875 248.88418579101562 209.1280517578125 251.66357421875 198.846923828125 257.22235107421875 C 188.5657958984375 262.64215087890625 183.42529296875 270.28546142578125 183.42529296875 280.15228271484375M 380.36474609375 444.6224365234375 C 380.36474609375 434.19976806640625 380.36474609375 423.777099609375 380.36474609375 413.3543701171875 C 325.1383056640625 413.3543701171875 269.911865234375 413.3543701171875 214.685546875 413.3543701171875 C 214.685546875 423.777099609375 214.685546875 434.19976806640625 214.685546875 444.6224365234375 C 269.911865234375 444.6224365234375 325.1383056640625 444.6224365234375 380.36474609375 444.6224365234375M 380.781494140625 126.31326293945312 C 393.28564453125 126.31326293945312 405.789794921875 126.31326293945312 418.2938232421875 126.31326293945312 C 418.2938232421875 153.82919311523438 418.2938232421875 181.3450927734375 418.2938232421875 208.86102294921875 C 435.66064453125 208.86102294921875 453.02734375 208.86102294921875 470.3941650390625 208.86102294921875 C 470.3941650390625 219.56167602539062 470.3941650390625 230.26229858398438 470.3941650390625 240.96295166015625 C 453.02734375 240.96295166015625 435.66064453125 240.96295166015625 418.2938232421875 240.96295166015625 C 418.2938232421875 274.73248291015625 418.2938232421875 308.50201416015625 418.2938232421875 342.2716064453125 C 405.789794921875 342.2716064453125 393.28564453125 342.2716064453125 380.781494140625 342.2716064453125 C 380.781494140625 270.28546142578125 380.781494140625 198.29937744140625 380.781494140625 126.31326293945312"/>
  </g>
</svg>
