<?xml version="1.0" ?>
<svg xmlns="http://www.w3.org/2000/svg" version="1.1" width="600" height="600">
  <defs/>
  <g>
    <path stroke-width="0" fill="rgb(0, 0, 0)" opacity="1.0" d="M 166.96881103515625 303.5660400390625 C 158.4783935546875 303.5660400390625 154.233154296875 299.32073974609375 154.233154296875 290.8302001953125 C 154.233154296875 238.4716796875 154.233154296875 186.11318969726562 154.233154296875 133.75473022460938 C 167.03955078125 133.75473022460938 179.845947265625 133.75473022460938 192.65234375 133.75473022460938 C 192.65234375 180.59432983398438 192.65234375 227.4339599609375 192.65234375 274.2735900878906 C 243.94854736328125 274.2735900878906 295.2447509765625 274.2735900878906 346.541015625 274.2735900878906 C 346.541015625 284.0377197265625 346.541015625 293.8018798828125 346.541015625 303.5660400390625 C 286.68359375 303.5660400390625 226.826171875 303.5660400390625 166.96881103515625 303.5660400390625M 187.55804443359375 411.1839599609375 C 187.55804443359375 388.40093994140625 198.5955810546875 371.20751953125 220.670654296875 359.603759765625 C 242.88720703125 348.0 275.2215576171875 342.1981201171875 317.673583984375 342.1981201171875 C 359.984130859375 342.1981201171875 392.17694091796875 348.0 414.25201416015625 359.603759765625 C 436.4686279296875 371.20751953125 447.576904296875 388.40093994140625 447.576904296875 411.1839599609375 C 447.576904296875 433.96697998046875 436.4686279296875 451.160400390625 414.25201416015625 462.76416015625 C 392.17694091796875 474.367919921875 359.984130859375 480.1697998046875 317.673583984375 480.1697998046875 C 275.2215576171875 480.1697998046875 242.88720703125 474.367919921875 220.670654296875 462.76416015625 C 198.5955810546875 451.160400390625 187.55804443359375 433.96697998046875 187.55804443359375 411.1839599609375M 225.9771728515625 411.1839599609375 C 225.9771728515625 424.48583984375 234.25531005859375 434.4622802734375 250.8116455078125 441.11322021484375 C 267.367919921875 447.6226806640625 289.65521240234375 450.8773193359375 317.673583984375 450.8773193359375 C 345.69195556640625 450.8773193359375 367.979248046875 447.6226806640625 384.53558349609375 441.11322021484375 C 401.09185791015625 434.4622802734375 409.37005615234375 424.48583984375 409.37005615234375 411.1839599609375 C 409.37005615234375 398.0235595703125 401.09185791015625 388.117919921875 384.53558349609375 381.46697998046875 C 367.979248046875 374.8160400390625 345.69195556640625 371.4906005859375 317.673583984375 371.4906005859375 C 289.65521240234375 371.4906005859375 267.367919921875 374.8160400390625 250.8116455078125 381.46697998046875 C 234.25531005859375 388.117919921875 225.9771728515625 398.0235595703125 225.9771728515625 411.1839599609375M 311.093505859375 208.4716796875 C 342.64959716796875 208.4716796875 374.20556640625 208.4716796875 405.7615966796875 208.4716796875 C 405.7615966796875 199.41510009765625 405.7615966796875 190.35848999023438 405.7615966796875 181.3018798828125 C 374.20556640625 181.3018798828125 342.64959716796875 181.3018798828125 311.093505859375 181.3018798828125 C 311.093505859375 171.53775024414062 311.093505859375 161.77359008789062 311.093505859375 152.00942993164062 C 342.64959716796875 152.00942993164062 374.20556640625 152.00942993164062 405.7615966796875 152.00942993164062 C 405.7615966796875 141.396240234375 405.7615966796875 130.78302001953125 405.7615966796875 120.1697998046875 C 418.4971923828125 120.1697998046875 431.23284912109375 120.1697998046875 443.96844482421875 120.1697998046875 C 443.96844482421875 191.20755004882812 443.96844482421875 262.24530029296875 443.96844482421875 333.28302001953125 C 431.23284912109375 333.28302001953125 418.4971923828125 333.28302001953125 405.7615966796875 333.28302001953125 C 405.7615966796875 301.4433898925781 405.7615966796875 269.603759765625 405.7615966796875 237.76416015625 C 374.20556640625 237.76416015625 342.64959716796875 237.76416015625 311.093505859375 237.76416015625 C 311.093505859375 228.0 311.093505859375 218.23583984375 311.093505859375 208.4716796875"/>
  </g>
</svg>
