<?xml version="1.0" ?>
<svg xmlns="http://www.w3.org/2000/svg" version="1.1" width="600" height="600">
  <defs/>
  <g>
    <path stroke-width="0" fill="rgb(0, 0, 0)" opacity="1.0" d="M 139.9156494140625 304.626220703125 C 136.30108642578125 304.626220703125 133.01129150390625 303.8447265625 130.04623413085938 302.2818603515625 C 127.10943603515625 300.71893310546875 124.77972412109375 298.597900390625 123.05718994140625 295.91864013671875 C 121.36285400390625 293.2393798828125 120.51571655273438 290.26708984375 120.51571655273438 287.00177001953125 C 120.51571655273438 283.7364501953125 121.36285400390625 280.76416015625 123.05718994140625 278.08489990234375 C 124.77972412109375 275.4056396484375 127.10943603515625 273.28460693359375 130.04623413085938 271.7216796875 C 133.01129150390625 270.1588134765625 136.30108642578125 269.3773193359375 139.9156494140625 269.3773193359375 C 143.55841064453125 269.3773193359375 146.84820556640625 270.1588134765625 149.7850341796875 271.7216796875 C 152.75009155273438 273.28460693359375 155.07977294921875 275.4056396484375 156.77410888671875 278.08489990234375 C 158.49664306640625 280.76416015625 159.35791015625 283.7364501953125 159.35791015625 287.00177001953125 C 159.35791015625 290.26708984375 158.49664306640625 293.2393798828125 156.77410888671875 295.91864013671875 C 155.07977294921875 298.597900390625 152.75009155273438 300.71893310546875 149.7850341796875 302.2818603515625 C 146.84820556640625 303.8447265625 143.55841064453125 304.626220703125 139.9156494140625 304.626220703125M 127.970703125 287.00177001953125 C 127.970703125 290.4903564453125 129.04376220703125 293.3370361328125 131.18991088867188 295.5418701171875 C 133.33602905273438 297.7467041015625 136.24462890625 298.84906005859375 139.9156494140625 298.84906005859375 C 143.61489868164062 298.84906005859375 146.53759765625 297.7467041015625 148.6837158203125 295.5418701171875 C 150.82986450195312 293.3370361328125 151.90292358398438 290.4903564453125 151.90292358398438 287.00177001953125 C 151.90292358398438 283.51318359375 150.82986450195312 280.66650390625 148.6837158203125 278.461669921875 C 146.53759765625 276.25689697265625 143.61489868164062 275.15447998046875 139.9156494140625 275.15447998046875 C 136.24462890625 275.15447998046875 133.33602905273438 276.25689697265625 131.18991088867188 278.461669921875 C 129.04376220703125 280.66650390625 127.970703125 283.51318359375 127.970703125 287.00177001953125M 130.68161010742188 313.0406494140625 C 133.22308349609375 313.0406494140625 135.76455688476562 313.0406494140625 138.3060302734375 313.0406494140625 C 138.3060302734375 318.8875732421875 138.3060302734375 324.7344970703125 138.3060302734375 330.58135986328125 C 152.07235717773438 330.58135986328125 165.83868408203125 330.58135986328125 179.60501098632812 330.58135986328125 C 179.60501098632812 332.507080078125 179.60501098632812 334.4327392578125 179.60501098632812 336.3585205078125 C 164.1302490234375 336.3585205078125 148.65548706054688 336.3585205078125 133.18072509765625 336.3585205078125 C 131.5146484375 336.3585205078125 130.68161010742188 335.50726318359375 130.68161010742188 333.8048095703125 C 130.68161010742188 326.8834228515625 130.68161010742188 319.9620361328125 130.68161010742188 313.0406494140625M 171.17578125 266.6981201171875 C 173.71725463867188 266.6981201171875 176.25872802734375 266.6981201171875 178.80020141601562 266.6981201171875 C 178.80020141601562 272.8101806640625 178.80020141601562 278.92218017578125 178.80020141601562 285.0341796875 C 182.33004760742188 285.0341796875 185.85986328125 285.0341796875 189.38970947265625 285.0341796875 C 189.38970947265625 286.95989990234375 189.38970947265625 288.8856201171875 189.38970947265625 290.811279296875 C 185.85986328125 290.811279296875 182.33004760742188 290.811279296875 178.80020141601562 290.811279296875 C 178.80020141601562 300.1607666015625 178.80020141601562 309.51025390625 178.80020141601562 318.85968017578125 C 176.25872802734375 318.85968017578125 173.71725463867188 318.85968017578125 171.17578125 318.85968017578125 C 171.17578125 301.47247314453125 171.17578125 284.0853271484375 171.17578125 266.6981201171875"/>
    <path stroke-width="0" fill="rgb(0, 0, 0)" opacity="1.0" d="M 199.80975341796875 301.5283203125 C 198.11541748046875 301.5283203125 197.26824951171875 300.6910400390625 197.26824951171875 299.0164794921875 C 197.26824951171875 288.69024658203125 197.26824951171875 278.364013671875 197.26824951171875 268.0377197265625 C 199.8238525390625 268.0377197265625 202.37945556640625 268.0377197265625 204.93505859375 268.0377197265625 C 204.93505859375 277.2755126953125 204.93505859375 286.51336669921875 204.93505859375 295.751220703125 C 215.17156982421875 295.751220703125 225.40805053710938 295.751220703125 235.64453125 295.751220703125 C 235.64453125 297.6768798828125 235.64453125 299.60260009765625 235.64453125 301.5283203125 C 223.69961547851562 301.5283203125 211.75466918945312 301.5283203125 199.80975341796875 301.5283203125M 203.91845703125 322.7529296875 C 203.91845703125 318.2596435546875 206.12109375 314.86871337890625 210.52630615234375 312.5802001953125 C 214.95977783203125 310.2916259765625 221.41229248046875 309.14739990234375 229.88388061523438 309.14739990234375 C 238.32720947265625 309.14739990234375 244.75149536132812 310.2916259765625 249.15673828125 312.5802001953125 C 253.5902099609375 314.86871337890625 255.80691528320312 318.2596435546875 255.80691528320312 322.7529296875 C 255.80691528320312 327.24627685546875 253.5902099609375 330.63720703125 249.15673828125 332.92572021484375 C 244.75149536132812 335.2142333984375 238.32720947265625 336.3585205078125 229.88388061523438 336.3585205078125 C 221.41229248046875 336.3585205078125 214.95977783203125 335.2142333984375 210.52630615234375 332.92572021484375 C 206.12109375 330.63720703125 203.91845703125 327.24627685546875 203.91845703125 322.7529296875M 211.58526611328125 322.7529296875 C 211.58526611328125 325.3763427734375 213.23721313476562 327.34393310546875 216.5411376953125 328.6556396484375 C 219.84503173828125 329.939453125 224.29263305664062 330.58135986328125 229.88388061523438 330.58135986328125 C 235.47512817382812 330.58135986328125 239.92269897460938 329.939453125 243.22662353515625 328.6556396484375 C 246.530517578125 327.34393310546875 248.1824951171875 325.3763427734375 248.1824951171875 322.7529296875 C 248.1824951171875 320.157470703125 246.530517578125 318.203857421875 243.22662353515625 316.89208984375 C 239.92269897460938 315.58038330078125 235.47512817382812 314.924560546875 229.88388061523438 314.924560546875 C 224.29263305664062 314.924560546875 219.84503173828125 315.58038330078125 216.5411376953125 316.89208984375 C 213.23721313476562 318.203857421875 211.58526611328125 320.157470703125 211.58526611328125 322.7529296875M 228.57077026367188 282.7735595703125 C 234.86798095703125 282.7735595703125 241.16519165039062 282.7735595703125 247.46240234375 282.7735595703125 C 247.46240234375 280.9874267578125 247.46240234375 279.2012939453125 247.46240234375 277.41510009765625 C 241.16519165039062 277.41510009765625 234.86798095703125 277.41510009765625 228.57077026367188 277.41510009765625 C 228.57077026367188 275.4893798828125 228.57077026367188 273.563720703125 228.57077026367188 271.637939453125 C 234.86798095703125 271.637939453125 241.16519165039062 271.637939453125 247.46240234375 271.637939453125 C 247.46240234375 269.5447998046875 247.46240234375 267.45166015625 247.46240234375 265.3585205078125 C 250.00390625 265.3585205078125 252.54534912109375 265.3585205078125 255.08685302734375 265.3585205078125 C 255.08685302734375 279.36871337890625 255.08685302734375 293.37890625 255.08685302734375 307.38916015625 C 252.54534912109375 307.38916015625 250.00390625 307.38916015625 247.46240234375 307.38916015625 C 247.46240234375 301.10968017578125 247.46240234375 294.8302001953125 247.46240234375 288.55072021484375 C 241.16519165039062 288.55072021484375 234.86798095703125 288.55072021484375 228.57077026367188 288.55072021484375 C 228.57077026367188 286.625 228.57077026367188 284.69927978515625 228.57077026367188 282.7735595703125"/>
    <path stroke-width="0" fill="rgb(0, 0, 0)" opacity="1.0" d="M 289.0155334472656 325.6414794921875 C 285.71160888671875 325.6414794921875 282.63360595703125 324.957763671875 279.781494140625 323.5902099609375 C 276.9294128417969 322.19476318359375 274.64208984375 320.24114990234375 272.9195251464844 317.7293701171875 C 271.2252197265625 315.217529296875 270.3780517578125 312.42669677734375 270.3780517578125 309.356689453125 C 270.3780517578125 306.2867431640625 271.2252197265625 303.495849609375 272.9195251464844 300.98406982421875 C 274.64208984375 298.4722900390625 276.9294128417969 296.5325927734375 279.781494140625 295.16510009765625 C 282.63360595703125 293.7696533203125 285.71160888671875 293.0718994140625 289.0155334472656 293.0718994140625 C 292.3194580078125 293.0718994140625 295.3974609375 293.7696533203125 298.24957275390625 295.16510009765625 C 301.1016845703125 296.5325927734375 303.3748779296875 298.4722900390625 305.0691833496094 300.98406982421875 C 306.76348876953125 303.495849609375 307.61065673828125 306.2867431640625 307.61065673828125 309.356689453125 C 307.61065673828125 312.42669677734375 306.76348876953125 315.217529296875 305.0691833496094 317.7293701171875 C 303.3748779296875 320.24114990234375 301.1016845703125 322.19476318359375 298.24957275390625 323.5902099609375 C 295.3974609375 324.957763671875 292.3194580078125 325.6414794921875 289.0155334472656 325.6414794921875M 266.6505432128906 280.0943603515625 C 281.29229736328125 280.0943603515625 295.93402099609375 280.0943603515625 310.5757141113281 280.0943603515625 C 310.5757141113281 282.02001953125 310.5757141113281 283.94573974609375 310.5757141113281 285.8714599609375 C 295.93402099609375 285.8714599609375 281.29229736328125 285.8714599609375 266.6505432128906 285.8714599609375 C 266.6505432128906 283.94573974609375 266.6505432128906 282.02001953125 266.6505432128906 280.0943603515625M 276.47760009765625 268.958740234375 C 284.5538330078125 268.958740234375 292.63006591796875 268.958740234375 300.7063293457031 268.958740234375 C 300.7063293457031 270.8843994140625 300.7063293457031 272.8101806640625 300.7063293457031 274.73583984375 C 292.63006591796875 274.73583984375 284.5538330078125 274.73583984375 276.47760009765625 274.73583984375 C 276.47760009765625 272.8101806640625 276.47760009765625 270.8843994140625 276.47760009765625 268.958740234375M 278.0448303222656 309.356689453125 C 278.0448303222656 312.42669677734375 279.0614013671875 314.952392578125 281.0946044921875 316.9339599609375 C 283.1277770996094 318.8875732421875 285.7680969238281 319.8643798828125 289.0155334472656 319.8643798828125 C 292.2629699707031 319.8643798828125 294.9032897949219 318.8875732421875 296.93646240234375 316.9339599609375 C 298.96966552734375 314.952392578125 299.9862365722656 312.42669677734375 299.9862365722656 309.356689453125 C 299.9862365722656 306.2867431640625 298.96966552734375 303.77496337890625 296.93646240234375 301.82135009765625 C 294.9032897949219 299.83984375 292.2629699707031 298.84906005859375 289.0155334472656 298.84906005859375 C 285.7680969238281 298.84906005859375 283.1277770996094 299.83984375 281.0946044921875 301.82135009765625 C 279.0614013671875 303.77496337890625 278.0448303222656 306.2867431640625 278.0448303222656 309.356689453125M 317.56475830078125 265.3585205078125 C 320.10626220703125 265.3585205078125 322.647705078125 265.3585205078125 325.189208984375 265.3585205078125 C 325.189208984375 274.73583984375 325.189208984375 284.11322021484375 325.189208984375 293.4906005859375 C 328.71905517578125 293.4906005859375 332.24884033203125 293.4906005859375 335.7786865234375 293.4906005859375 C 335.7786865234375 295.416259765625 335.7786865234375 297.34197998046875 335.7786865234375 299.2677001953125 C 332.24884033203125 299.2677001953125 328.71905517578125 299.2677001953125 325.189208984375 299.2677001953125 C 325.189208984375 311.6173095703125 325.189208984375 323.96697998046875 325.189208984375 336.316650390625 C 322.647705078125 336.316650390625 320.10626220703125 336.316650390625 317.56475830078125 336.316650390625 C 317.56475830078125 312.6639404296875 317.56475830078125 289.01123046875 317.56475830078125 265.3585205078125"/>
    <path stroke-width="0" fill="rgb(0, 0, 0)" opacity="1.0" d="M 337.3883056640625 319.3201904296875 C 340.86163330078125 315.217529296875 343.741943359375 311.18475341796875 346.029296875 307.2216796875 C 348.3448486328125 303.230712890625 350.27923583984375 298.27691650390625 351.83233642578125 292.3602294921875 C 353.38543701171875 286.443603515625 354.3455810546875 279.2291259765625 354.712646484375 270.71697998046875 C 357.268310546875 270.71697998046875 359.8238525390625 270.71697998046875 362.37945556640625 270.71697998046875 C 361.984130859375 278.11279296875 361.10870361328125 284.9085693359375 359.7532958984375 291.1043701171875 C 360.628662109375 295.43023681640625 362.74658203125 300.216552734375 366.10693359375 305.46343994140625 C 369.46734619140625 310.682373046875 372.9124755859375 314.8128662109375 376.4422607421875 317.85498046875 C 374.70562744140625 319.48760986328125 372.96893310546875 321.1202392578125 371.2322998046875 322.7529296875 C 368.3519287109375 320.26904296875 365.513916015625 317.08746337890625 362.71832275390625 313.2081298828125 C 359.9227294921875 309.3009033203125 357.84716796875 305.6588134765625 356.49169921875 302.2818603515625 C 353.69610595703125 309.789306640625 349.3614501953125 316.89208984375 343.48779296875 323.5902099609375 C 341.45465087890625 322.1668701171875 339.42144775390625 320.7435302734375 337.3883056640625 319.3201904296875M 368.563720703125 289.7647705078125 C 372.67242431640625 289.7647705078125 376.7811279296875 289.7647705078125 380.889892578125 289.7647705078125 C 380.889892578125 282.07586669921875 380.889892578125 274.386962890625 380.889892578125 266.6981201171875 C 383.33251953125 266.6981201171875 385.775146484375 266.6981201171875 388.2177734375 266.6981201171875 C 388.2177734375 289.36004638671875 388.2177734375 312.02197265625 388.2177734375 334.6839599609375 C 385.775146484375 334.6839599609375 383.33251953125 334.6839599609375 380.889892578125 334.6839599609375 C 380.889892578125 321.845947265625 380.889892578125 309.00787353515625 380.889892578125 296.1697998046875 C 376.7811279296875 296.1697998046875 372.67242431640625 296.1697998046875 368.563720703125 296.1697998046875 C 368.563720703125 294.0347900390625 368.563720703125 291.8997802734375 368.563720703125 289.7647705078125M 396.09637451171875 265.3585205078125 C 398.53900146484375 265.3585205078125 400.981689453125 265.3585205078125 403.42431640625 265.3585205078125 C 403.42431640625 289.01123046875 403.42431640625 312.6639404296875 403.42431640625 336.316650390625 C 400.981689453125 336.316650390625 398.53900146484375 336.316650390625 396.09637451171875 336.316650390625 C 396.09637451171875 312.6639404296875 396.09637451171875 289.01123046875 396.09637451171875 265.3585205078125"/>
    <path stroke-width="0" fill="rgb(0, 0, 0)" opacity="1.0" d="M 446.12109375 307.305419921875 C 442.93011474609375 307.305419921875 440.0921630859375 307.0682373046875 437.607177734375 306.59375 C 437.607177734375 311.29638671875 437.607177734375 315.9990234375 437.607177734375 320.70166015625 C 443.4525146484375 320.70166015625 449.29791259765625 320.70166015625 455.143310546875 320.70166015625 C 455.143310546875 315.9710693359375 455.143310546875 311.2406005859375 455.143310546875 306.510009765625 C 452.29119873046875 307.040283203125 449.2838134765625 307.305419921875 446.12109375 307.305419921875M 412.2347412109375 320.70166015625 C 418.1365966796875 320.70166015625 424.0384521484375 320.70166015625 429.9403076171875 320.70166015625 C 429.9403076171875 315.217529296875 429.9403076171875 309.7335205078125 429.9403076171875 304.2493896484375 C 426.5799560546875 302.57489013671875 423.99609375 300.39801025390625 422.1888427734375 297.71875 C 420.4097900390625 295.0115966796875 419.520263671875 291.92767333984375 419.520263671875 288.46697998046875 C 419.520263671875 284.67138671875 420.5933837890625 281.3502197265625 422.739501953125 278.5035400390625 C 424.8856201171875 275.62890625 427.963623046875 273.396240234375 431.9735107421875 271.805419921875 C 435.9833984375 270.18670654296875 440.69927978515625 269.3773193359375 446.12109375 269.3773193359375 C 451.54290771484375 269.3773193359375 456.2587890625 270.18670654296875 460.26861572265625 271.805419921875 C 464.278564453125 273.396240234375 467.35650634765625 275.62890625 469.502685546875 278.5035400390625 C 471.6488037109375 281.378173828125 472.72186279296875 284.69927978515625 472.72186279296875 288.46697998046875 C 472.72186279296875 291.84393310546875 471.860595703125 294.8720703125 470.1380615234375 297.55126953125 C 468.4437255859375 300.20263671875 466.00103759765625 302.3656005859375 462.81005859375 304.04010009765625 C 462.81005859375 309.59393310546875 462.81005859375 315.1478271484375 462.81005859375 320.70166015625 C 468.7119140625 320.70166015625 474.6138916015625 320.70166015625 480.5157470703125 320.70166015625 C 480.5157470703125 323.2413330078125 480.5157470703125 325.78106689453125 480.5157470703125 328.32073974609375 C 457.75537109375 328.32073974609375 434.9951171875 328.32073974609375 412.2347412109375 328.32073974609375 C 412.2347412109375 325.78106689453125 412.2347412109375 323.2413330078125 412.2347412109375 320.70166015625M 427.18707275390625 288.3414306640625 C 427.18707275390625 291.076416015625 428.0201416015625 293.43475341796875 429.68621826171875 295.416259765625 C 431.3804931640625 297.3978271484375 433.6536865234375 298.9188232421875 436.505859375 299.9793701171875 C 439.38616943359375 301.011962890625 442.59124755859375 301.5283203125 446.12109375 301.5283203125 C 449.65087890625 301.5283203125 452.85595703125 301.011962890625 455.736328125 299.9793701171875 C 458.61669921875 298.9188232421875 460.889892578125 297.3978271484375 462.55596923828125 295.416259765625 C 464.250244140625 293.43475341796875 465.097412109375 291.076416015625 465.097412109375 288.3414306640625 C 465.097412109375 285.6063232421875 464.250244140625 283.248046875 462.55596923828125 281.2664794921875 C 460.889892578125 279.28497314453125 458.61669921875 277.77789306640625 455.736328125 276.74530029296875 C 452.85595703125 275.68475341796875 449.65087890625 275.15447998046875 446.12109375 275.15447998046875 C 442.59124755859375 275.15447998046875 439.38616943359375 275.68475341796875 436.505859375 276.74530029296875 C 433.6536865234375 277.77789306640625 431.3804931640625 279.28497314453125 429.68621826171875 281.2664794921875 C 428.0201416015625 283.248046875 427.18707275390625 285.6063232421875 427.18707275390625 288.3414306640625"/>
  </g>
</svg>
