<?xml version="1.0" encoding="utf-8"?>
<svg xmlns="http://www.w3.org/2000/svg" xmlns:ev="http://www.w3.org/2001/xml-events" xmlns:xlink="http://www.w3.org/1999/xlink" version="1.1" baseProfile="full" width="15392.0" height="1727.0" viewBox="102.0 -1568.0 15392.0 1727.0">
<defs/>
<g><path d="M 1951.000000 -832.000000 C 1934.333333 -832.000000 1920.000000 -837.333333 1908.000000 -848.000000 C 1896.666667 -859.333333 1891.000000 -873.000000 1891.000000 -889.000000 C 1891.000000 -994.666667 1891.000000 -1100.333333 1891.000000 -1206.000000 C 1891.000000 -1211.333333 1893.666667 -1216.000000 1899.000000 -1220.000000 C 1905.000000 -1224.000000 1912.000000 -1226.000000 1920.000000 -1226.000000 C 2107.666667 -1226.000000 2295.333333 -1226.000000 2483.000000 -1226.000000 C 2483.000000 -1283.333333 2483.000000 -1340.666667 2483.000000 -1398.000000 C 2282.666667 -1398.000000 2082.333333 -1398.000000 1882.000000 -1398.000000 C 1882.000000 -1444.000000 1882.000000 -1490.000000 1882.000000 -1536.000000 C 2121.333333 -1536.000000 2360.666667 -1536.000000 2600.000000 -1536.000000 C 2616.666667 -1536.000000 2630.666667 -1530.333333 2642.000000 -1519.000000 C 2653.333333 -1507.666667 2659.000000 -1493.666667 2659.000000 -1477.000000 C 2659.000000 -1367.000000 2659.000000 -1257.000000 2659.000000 -1147.000000 C 2659.000000 -1131.000000 2656.000000 -1117.000000 2650.000000 -1105.000000 C 2644.666667 -1093.666667 2638.000000 -1088.000000 2630.000000 -1088.000000 C 2442.666667 -1088.000000 2255.333333 -1088.000000 2068.000000 -1088.000000 C 2068.000000 -1048.666667 2068.000000 -1009.333333 2068.000000 -970.000000 C 2323.333333 -970.000000 2578.666667 -970.000000 2834.000000 -970.000000 C 2834.000000 -924.000000 2834.000000 -878.000000 2834.000000 -832.000000 C 2539.666667 -832.000000 2245.333333 -832.000000 1951.000000 -832.000000z M 2070.000000 -458.000000 C 2473.000000 -458.000000 2876.000000 -458.000000 3279.000000 -458.000000 C 3279.000000 -412.000000 3279.000000 -366.000000 3279.000000 -320.000000 C 2876.000000 -320.000000 2473.000000 -320.000000 2070.000000 -320.000000 C 2070.000000 -366.000000 2070.000000 -412.000000 2070.000000 -458.000000z M 2168.000000 -69.000000 C 2168.000000 -143.666667 2211.000000 -195.000000 2297.000000 -223.000000 C 2383.666667 -251.666667 2509.666667 -266.000000 2675.000000 -266.000000 C 2839.666667 -266.000000 2965.000000 -251.666667 3051.000000 -223.000000 C 3137.666667 -195.000000 3181.000000 -143.666667 3181.000000 -69.000000 C 3181.000000 5.666667 3137.666667 57.000000 3051.000000 85.000000 C 2965.000000 113.666667 2839.666667 128.000000 2675.000000 128.000000 C 2509.666667 128.000000 2383.666667 113.666667 2297.000000 85.000000 C 2211.000000 57.000000 2168.000000 5.666667 2168.000000 -69.000000z M 2344.000000 -704.000000 C 2564.333333 -704.000000 2784.666667 -704.000000 3005.000000 -704.000000 C 3005.000000 -658.000000 3005.000000 -612.000000 3005.000000 -566.000000 C 2784.666667 -566.000000 2564.333333 -566.000000 2344.000000 -566.000000 C 2344.000000 -612.000000 2344.000000 -658.000000 2344.000000 -704.000000z M 2348.000000 -69.000000 C 2348.000000 -47.000000 2374.666667 -31.666667 2428.000000 -23.000000 C 2481.333333 -14.333333 2563.666667 -10.000000 2675.000000 -10.000000 C 2786.333333 -10.000000 2868.333333 -14.333333 2921.000000 -23.000000 C 2974.333333 -31.666667 3001.000000 -47.000000 3001.000000 -69.000000 C 3001.000000 -91.000000 2974.333333 -106.333333 2921.000000 -115.000000 C 2868.333333 -123.666667 2786.333333 -128.000000 2675.000000 -128.000000 C 2563.666667 -128.000000 2481.333333 -123.666667 2428.000000 -115.000000 C 2374.666667 -106.333333 2348.000000 -91.000000 2348.000000 -69.000000z M 2730.000000 -1280.000000 C 2846.666667 -1280.000000 2963.333333 -1280.000000 3080.000000 -1280.000000 C 3080.000000 -1376.000000 3080.000000 -1472.000000 3080.000000 -1568.000000 C 3140.000000 -1568.000000 3200.000000 -1568.000000 3260.000000 -1568.000000 C 3260.000000 -1302.000000 3260.000000 -1036.000000 3260.000000 -770.000000 C 3200.000000 -770.000000 3140.000000 -770.000000 3080.000000 -770.000000 C 3080.000000 -894.000000 3080.000000 -1018.000000 3080.000000 -1142.000000 C 2963.333333 -1142.000000 2846.666667 -1142.000000 2730.000000 -1142.000000 C 2730.000000 -1188.000000 2730.000000 -1234.000000 2730.000000 -1280.000000z "/>
</g></svg>
