<?xml version="1.0" ?>
<svg xmlns="http://www.w3.org/2000/svg" version="1.1" width="600" height="600">
  <defs/>
  <g>
    <path stroke-width="0" fill="rgb(0, 0, 0)" opacity="1.0" d="M 233.75 424.31787109375 C 218.8828125 424.31787109375 205.33544921875 421.0521240234375 193.108154296875 414.52056884765625 C 181.019775390625 407.85003662109375 171.501953125 398.33062744140625 164.5546875 385.96240234375 C 157.607421875 373.5941162109375 154.1337890625 359.3497314453125 154.1337890625 343.22930908203125 C 154.1337890625 327.10888671875 157.607421875 312.864501953125 164.5546875 300.4962158203125 C 171.501953125 288.12799072265625 181.019775390625 278.67803955078125 193.108154296875 272.146484375 C 205.33544921875 265.4759521484375 218.8828125 262.14068603515625 233.75 262.14068603515625 C 248.75634765625 262.14068603515625 262.3037109375 265.4759521484375 274.39208984375 272.146484375 C 286.48046875 278.67803955078125 295.998046875 288.12799072265625 302.9453125 300.4962158203125 C 309.892578125 312.864501953125 313.366455078125 327.10888671875 313.366455078125 343.22930908203125 C 313.366455078125 359.3497314453125 309.892578125 373.5941162109375 302.9453125 385.96240234375 C 295.998046875 398.33062744140625 286.48046875 407.85003662109375 274.39208984375 414.52056884765625 C 262.3037109375 421.0521240234375 248.75634765625 424.31787109375 233.75 424.31787109375M 141.8369140625 197.51995849609375 C 201.86181640625 197.51995849609375 261.88671875 197.51995849609375 321.91162109375 197.51995849609375 C 321.91162109375 207.10885620117188 321.91162109375 216.69775390625 321.91162109375 226.28662109375 C 261.88671875 226.28662109375 201.86181640625 226.28662109375 141.8369140625 226.28662109375 C 141.8369140625 216.69775390625 141.8369140625 207.10885620117188 141.8369140625 197.51995849609375M 183.3125 142.07122802734375 C 215.61767578125 142.07122802734375 247.922607421875 142.07122802734375 280.2275390625 142.07122802734375 C 280.2275390625 151.66009521484375 280.2275390625 161.24899291992188 280.2275390625 170.83786010742188 C 247.922607421875 170.83786010742188 215.61767578125 170.83786010742188 183.3125 170.83786010742188 C 183.3125 161.24899291992188 183.3125 151.66009521484375 183.3125 142.07122802734375M 191.02392578125 343.22930908203125 C 191.02392578125 358.51593017578125 194.98388671875 371.0926513671875 202.90380859375 380.95947265625 C 210.962890625 390.68731689453125 221.244873046875 395.55126953125 233.75 395.55126953125 C 246.25537109375 395.55126953125 256.537109375 390.68731689453125 264.59619140625 380.95947265625 C 272.6552734375 371.0926513671875 276.6845703125 358.51593017578125 276.6845703125 343.22930908203125 C 276.6845703125 327.94268798828125 272.6552734375 315.4354248046875 264.59619140625 305.70758056640625 C 256.537109375 295.84075927734375 246.25537109375 290.9073486328125 233.75 290.9073486328125 C 221.244873046875 290.9073486328125 210.962890625 295.84075927734375 202.90380859375 305.70758056640625 C 194.98388671875 315.4354248046875 191.02392578125 327.94268798828125 191.02392578125 343.22930908203125M 343.7958984375 130.814697265625 C 356.092529296875 130.814697265625 368.389404296875 130.814697265625 380.68603515625 130.814697265625 C 380.68603515625 170.83786010742188 380.68603515625 210.86102294921875 380.68603515625 250.88418579101562 C 394.44189453125 250.88418579101562 408.197509765625 250.88418579101562 421.953369140625 250.88418579101562 C 421.953369140625 208.63751220703125 421.953369140625 166.39083862304688 421.953369140625 124.1441650390625 C 434.1806640625 124.1441650390625 446.40771484375 124.1441650390625 458.63525390625 124.1441650390625 C 458.63525390625 241.920654296875 458.63525390625 359.6971435546875 458.63525390625 477.4736328125 C 446.40771484375 477.4736328125 434.1806640625 477.4736328125 421.953369140625 477.4736328125 C 421.953369140625 411.53271484375 421.953369140625 345.591796875 421.953369140625 279.65081787109375 C 408.197509765625 279.65081787109375 394.44189453125 279.65081787109375 380.68603515625 279.65081787109375 C 380.68603515625 342.8818359375 380.68603515625 406.1129150390625 380.68603515625 469.34393310546875 C 368.389404296875 469.34393310546875 356.092529296875 469.34393310546875 343.7958984375 469.34393310546875 C 343.7958984375 356.5008544921875 343.7958984375 243.65777587890625 343.7958984375 130.814697265625"/>
  </g>
</svg>
