<?xml version="1.0" ?>
<svg xmlns="http://www.w3.org/2000/svg" version="1.1" width="600" height="600">
  <defs/>
  <g>
    <path stroke-width="0" fill="rgb(0, 0, 0)" opacity="1.0" d="M 130.630126953125 296.5356140136719 C 153.27642822265625 289.44818115234375 175.15859985351562 279.789794921875 196.276611328125 267.56048583984375 C 217.5335693359375 255.33120727539062 235.52557373046875 241.2952880859375 250.25262451171875 225.45281982421875 C 264.97967529296875 209.61029052734375 273.9409484863281 193.1424560546875 277.1364440917969 176.04922485351562 C 231.77435302734375 176.04922485351562 186.41229248046875 176.04922485351562 141.05020141601562 176.04922485351562 C 141.05020141601562 165.41806030273438 141.05020141601562 154.78692626953125 141.05020141601562 144.15576171875 C 196.1376953125 144.15576171875 251.22515869140625 144.15576171875 306.3126525878906 144.15576171875 C 315.3433837890625 144.15576171875 319.44195556640625 148.9501953125 318.60833740234375 158.53909301757812 C 316.2464599609375 195.7828369140625 298.8101806640625 228.64910888671875 266.299560546875 257.1378173828125 C 233.9278564453125 285.62652587890625 193.77581787109375 307.7921142578125 145.84344482421875 323.6346435546875 C 140.7723388671875 314.60162353515625 135.70123291015625 305.568603515625 130.630126953125 296.5356140136719M 182.313720703125 344.2716064453125 C 257.1298828125 344.2716064453125 331.946044921875 344.2716064453125 406.76220703125 344.2716064453125 C 414.9593505859375 344.2716064453125 419.05792236328125 348.57958984375 419.05792236328125 357.1956787109375 C 419.05792236328125 388.602783203125 419.05792236328125 420.00982666015625 419.05792236328125 451.4168701171875 C 419.05792236328125 453.50146484375 418.15484619140625 455.7249755859375 416.34869384765625 458.08740234375 C 411.138671875 463.57672119140625 405.9285888671875 469.0660400390625 400.71856689453125 474.5552978515625 C 398.634521484375 476.63983154296875 396.2032470703125 477.68212890625 393.424560546875 477.68212890625 C 327.15283203125 477.68212890625 260.881103515625 477.68212890625 194.60940551757812 477.68212890625 C 186.41229248046875 477.68212890625 182.313720703125 473.44354248046875 182.313720703125 464.9664306640625 C 182.313720703125 424.73480224609375 182.313720703125 384.503173828125 182.313720703125 344.2716064453125M 382.3792724609375 446.6224365234375 C 382.3792724609375 422.85870361328125 382.3792724609375 399.094970703125 382.3792724609375 375.3311767578125 C 327.9169921875 375.3311767578125 273.45465087890625 375.3311767578125 218.99240112304688 375.3311767578125 C 218.99240112304688 399.094970703125 218.99240112304688 422.85870361328125 218.99240112304688 446.6224365234375 C 273.45465087890625 446.6224365234375 327.9169921875 446.6224365234375 382.3792724609375 446.6224365234375M 381.545654296875 124.1441650390625 C 394.04974365234375 124.1441650390625 406.5538330078125 124.1441650390625 419.05792236328125 124.1441650390625 C 419.05792236328125 151.31268310546875 419.05792236328125 178.48117065429688 419.05792236328125 205.649658203125 C 436.4246826171875 205.649658203125 453.79150390625 205.649658203125 471.1583251953125 205.649658203125 C 471.1583251953125 216.28082275390625 471.1583251953125 226.9119873046875 471.1583251953125 237.54315185546875 C 453.79150390625 237.54315185546875 436.4246826171875 237.54315185546875 419.05792236328125 237.54315185546875 C 419.05792236328125 266.6572265625 419.05792236328125 295.7712707519531 419.05792236328125 324.8853759765625 C 406.5538330078125 324.8853759765625 394.04974365234375 324.8853759765625 381.545654296875 324.8853759765625 C 381.545654296875 257.97161865234375 381.545654296875 191.05789184570312 381.545654296875 124.1441650390625"/>
  </g>
</svg>
