<?xml version="1.0" ?>
<svg xmlns="http://www.w3.org/2000/svg" version="1.1" width="600" height="600">
  <defs/>
  <g>
    <path stroke-width="0" fill="rgb(0, 0, 0)" opacity="1.0" d="M 171.335693359375 136.41226196289062 C 255.885009765625 136.41226196289062 340.433837890625 136.41226196289062 424.98291015625 136.41226196289062 C 424.98291015625 146.00115966796875 424.98291015625 155.59002685546875 424.98291015625 165.17892456054688 C 389.89892578125 165.17892456054688 354.814697265625 165.17892456054688 319.730712890625 165.17892456054688 C 318.202392578125 175.60162353515625 314.728759765625 186.16326904296875 309.309814453125 196.86392211914062 C 320.84228515625 208.8153076171875 339.183349609375 221.18356323242188 364.332763671875 233.96875 C 389.620849609375 246.61492919921875 416.923828125 256.6207275390625 446.24169921875 263.986083984375 C 440.128173828125 274.478271484375 434.014404296875 284.970458984375 427.90087890625 295.462646484375 C 400.389404296875 288.93109130859375 373.225341796875 278.6473388671875 346.40869140625 264.6114501953125 C 319.591796875 250.5755615234375 300.417236328125 237.5819091796875 288.884765625 225.63055419921875 C 273.739501953125 243.001708984375 255.12060546875 258.6357727050781 233.028076171875 272.53271484375 C 211.07470703125 286.2906494140625 189.95458984375 296.85235595703125 169.66845703125 304.21771240234375 C 162.860107421875 294.2813720703125 156.0517578125 284.3450927734375 149.243408203125 274.4088134765625 C 168.69580078125 267.87725830078125 187.801025390625 259.1221923828125 206.558837890625 248.14361572265625 C 225.45556640625 237.1650390625 241.71240234375 224.4493408203125 255.3291015625 209.99652099609375 C 268.94580078125 195.543701171875 277.6298828125 180.6044921875 281.381591796875 165.17892456054688 C 244.69970703125 165.17892456054688 208.017822265625 165.17892456054688 171.335693359375 165.17892456054688 C 171.335693359375 155.59002685546875 171.335693359375 146.00115966796875 171.335693359375 136.41226196289062M 132.986572265625 336.528076171875 C 244.9775390625 336.528076171875 356.968505859375 336.528076171875 468.95947265625 336.528076171875 C 468.95947265625 346.116943359375 468.95947265625 355.705810546875 468.95947265625 365.29473876953125 C 419.216552734375 365.29473876953125 369.473876953125 365.29473876953125 319.730712890625 365.29473876953125 C 319.730712890625 398.577880859375 319.730712890625 431.86102294921875 319.730712890625 465.1441650390625 C 307.2255859375 465.1441650390625 294.720458984375 465.1441650390625 282.21533203125 465.1441650390625 C 282.21533203125 431.86102294921875 282.21533203125 398.577880859375 282.21533203125 365.29473876953125 C 232.47216796875 365.29473876953125 182.7294921875 365.29473876953125 132.986572265625 365.29473876953125 C 132.986572265625 355.705810546875 132.986572265625 346.116943359375 132.986572265625 336.528076171875"/>
  </g>
</svg>
