<?xml version="1.0" ?>
<svg xmlns="http://www.w3.org/2000/svg" version="1.1" width="600" height="600">
  <defs/>
  <g>
    <path stroke-width="0" fill="rgb(0, 0, 0)" opacity="1.0" d="M 120.15936279296875 299.10711669921875 C 124.7369384765625 297.68963623046875 129.16006469726562 295.7579345703125 133.42874145507812 293.3121337890625 C 137.72549438476562 290.8662109375 141.36227416992188 288.05908203125 144.339111328125 284.89056396484375 C 147.31594848632812 281.7220458984375 149.1273193359375 278.428466796875 149.77322387695312 275.0098876953125 C 140.60403442382812 275.0098876953125 131.434814453125 275.0098876953125 122.265625 275.0098876953125 C 122.265625 272.88360595703125 122.265625 270.75738525390625 122.265625 268.63116455078125 C 133.40066528320312 268.63116455078125 144.53570556640625 268.63116455078125 155.67071533203125 268.63116455078125 C 157.49615478515625 268.63116455078125 158.3245849609375 269.59002685546875 158.15609741210938 271.5078125 C 157.67868041992188 278.95654296875 154.15423583984375 285.52978515625 147.58273315429688 291.2275390625 C 141.039306640625 296.92529296875 132.92324829101562 301.3583984375 123.2344970703125 304.52691650390625 C 122.20944213867188 302.7203369140625 121.18441772460938 300.9136962890625 120.15936279296875 299.10711669921875M 130.60635375976562 308.654296875 C 145.72921752929688 308.654296875 160.85211181640625 308.654296875 175.9749755859375 308.654296875 C 177.63186645507812 308.654296875 178.4603271484375 309.51593017578125 178.4603271484375 311.2391357421875 C 178.4603271484375 317.52056884765625 178.4603271484375 323.802001953125 178.4603271484375 330.0833740234375 C 178.4603271484375 330.500244140625 178.27780151367188 330.9449462890625 177.9127197265625 331.41748046875 C 176.85958862304688 332.515380859375 175.80645751953125 333.6131591796875 174.75332641601562 334.7110595703125 C 174.33209228515625 335.1279296875 173.84063720703125 335.33642578125 173.27896118164062 335.33642578125 C 159.88320922851562 335.33642578125 146.48748779296875 335.33642578125 133.09173583984375 335.33642578125 C 131.434814453125 335.33642578125 130.60635375976562 334.48870849609375 130.60635375976562 332.79327392578125 C 130.60635375976562 324.7469482421875 130.60635375976562 316.70062255859375 130.60635375976562 308.654296875M 171.04632568359375 329.12451171875 C 171.04632568359375 324.3717041015625 171.04632568359375 319.6190185546875 171.04632568359375 314.8662109375 C 160.03768920898438 314.8662109375 149.02902221679688 314.8662109375 138.02035522460938 314.8662109375 C 138.02035522460938 319.6190185546875 138.02035522460938 324.3717041015625 138.02035522460938 329.12451171875 C 149.02902221679688 329.12451171875 160.03768920898438 329.12451171875 171.04632568359375 329.12451171875M 170.87783813476562 264.62884521484375 C 173.40533447265625 264.62884521484375 175.93283081054688 264.62884521484375 178.4603271484375 264.62884521484375 C 178.4603271484375 270.0625 178.4603271484375 275.4962158203125 178.4603271484375 280.929931640625 C 181.97076416015625 280.929931640625 185.48117065429688 280.929931640625 188.9915771484375 280.929931640625 C 188.9915771484375 283.05615234375 188.9915771484375 285.182373046875 188.9915771484375 287.30859375 C 185.48117065429688 287.30859375 181.97076416015625 287.30859375 178.4603271484375 287.30859375 C 178.4603271484375 293.1314697265625 178.4603271484375 298.9542236328125 178.4603271484375 304.777099609375 C 175.93283081054688 304.777099609375 173.40533447265625 304.777099609375 170.87783813476562 304.777099609375 C 170.87783813476562 291.394287109375 170.87783813476562 278.0115966796875 170.87783813476562 264.62884521484375"/>
    <path stroke-width="0" fill="rgb(0, 0, 0)" opacity="1.0" d="M 191.3927001953125 319.11871337890625 C 196.95318603515625 313.81005859375 201.5447998046875 307.1395263671875 205.16757202148438 299.10711669921875 C 208.81838989257812 291.07470703125 210.92465209960938 281.3607177734375 211.486328125 269.96527099609375 C 214.0137939453125 269.96527099609375 216.54132080078125 269.96527099609375 219.06881713867188 269.96527099609375 C 218.59140014648438 278.4423828125 217.42593383789062 285.96063232421875 215.57244873046875 292.52001953125 C 217.03277587890625 296.577880859375 219.86917114257812 301.052734375 224.0816650390625 305.94439697265625 C 228.294189453125 310.808349609375 232.36627197265625 314.6021728515625 236.29791259765625 317.32598876953125 C 234.71121215820312 319.0631103515625 233.12451171875 320.80023193359375 231.53778076171875 322.537353515625 C 228.19589233398438 320.17486572265625 224.62930297851562 317.020263671875 220.83807373046875 313.07354736328125 C 217.07489013671875 309.0989990234375 214.28060913085938 305.3746337890625 212.4552001953125 301.900390625 C 208.83242797851562 310.1551513671875 203.65106201171875 317.4927978515625 196.91107177734375 323.91314697265625 C 195.07162475585938 322.31500244140625 193.23214721679688 320.71685791015625 191.3927001953125 319.11871337890625M 243.6697998046875 265.96295166015625 C 246.197265625 265.96295166015625 248.72479248046875 265.96295166015625 251.25228881835938 265.96295166015625 C 251.25228881835938 275.38507080078125 251.25228881835938 284.80718994140625 251.25228881835938 294.22930908203125 C 254.7626953125 294.22930908203125 258.27313232421875 294.22930908203125 261.78350830078125 294.22930908203125 C 261.78350830078125 296.369384765625 261.78350830078125 298.509521484375 261.78350830078125 300.649658203125 C 258.27313232421875 300.649658203125 254.7626953125 300.649658203125 251.25228881835938 300.649658203125 C 251.25228881835938 312.6427001953125 251.25228881835938 324.6357421875 251.25228881835938 336.62884521484375 C 248.72479248046875 336.62884521484375 246.197265625 336.62884521484375 243.6697998046875 336.62884521484375 C 243.6697998046875 313.07354736328125 243.6697998046875 289.51824951171875 243.6697998046875 265.96295166015625"/>
    <path stroke-width="0" fill="rgb(0, 0, 0)" opacity="1.0" d="M 287.64825439453125 283.764892578125 C 293.096435546875 283.764892578125 297.547607421875 284.8349609375 301.00189208984375 286.97509765625 C 304.45611572265625 289.115234375 306.1832275390625 292.18646240234375 306.1832275390625 296.18878173828125 C 306.1832275390625 300.2188720703125 304.45611572265625 303.303955078125 301.00189208984375 305.444091796875 C 297.547607421875 307.584228515625 293.096435546875 308.654296875 287.64825439453125 308.654296875 C 282.2001037597656 308.654296875 277.7489013671875 307.584228515625 274.2946472167969 305.444091796875 C 270.86846923828125 303.303955078125 269.1553955078125 300.2188720703125 269.1553955078125 296.18878173828125 C 269.1553955078125 292.18646240234375 270.86846923828125 289.115234375 274.2946472167969 286.97509765625 C 277.7489013671875 284.8349609375 282.2001037597656 283.764892578125 287.64825439453125 283.764892578125M 265.8275146484375 273.96759033203125 C 280.38873291015625 273.96759033203125 294.949951171875 273.96759033203125 309.5111083984375 273.96759033203125 C 309.5111083984375 276.0382080078125 309.5111083984375 278.10888671875 309.5111083984375 280.17950439453125 C 294.949951171875 280.17950439453125 280.38873291015625 280.17950439453125 265.8275146484375 280.17950439453125 C 265.8275146484375 278.10888671875 265.8275146484375 276.0382080078125 265.8275146484375 273.96759033203125M 275.2635192871094 311.9478759765625 C 277.8050537109375 311.9478759765625 280.34661865234375 311.9478759765625 282.88812255859375 311.9478759765625 C 282.88812255859375 313.51824951171875 282.88812255859375 315.088623046875 282.88812255859375 316.658935546875 C 294.05126953125 316.658935546875 305.21435546875 316.658935546875 316.37750244140625 316.658935546875 C 316.37750244140625 315.088623046875 316.37750244140625 313.51824951171875 316.37750244140625 311.9478759765625 C 318.90496826171875 311.9478759765625 321.4324951171875 311.9478759765625 323.9599914550781 311.9478759765625 C 323.9599914550781 317.9930419921875 323.9599914550781 324.0382080078125 323.9599914550781 330.0833740234375 C 323.9599914550781 330.500244140625 323.7774353027344 330.9449462890625 323.412353515625 331.41748046875 C 322.3592529296875 332.515380859375 321.30609130859375 333.6131591796875 320.25299072265625 334.7110595703125 C 319.83172607421875 335.1279296875 319.34027099609375 335.33642578125 318.77862548828125 335.33642578125 C 305.1722412109375 335.33642578125 291.5658874511719 335.33642578125 277.95953369140625 335.33642578125 C 277.2012634277344 335.33642578125 276.55535888671875 335.11407470703125 276.02178955078125 334.66937255859375 C 275.5162658691406 334.22467041015625 275.2635192871094 333.6270751953125 275.2635192871094 332.876708984375 C 275.2635192871094 325.900390625 275.2635192871094 318.92413330078125 275.2635192871094 311.9478759765625M 275.60052490234375 265.08740234375 C 283.6323547363281 265.08740234375 291.6641845703125 265.08740234375 299.69598388671875 265.08740234375 C 299.69598388671875 267.1580810546875 299.69598388671875 269.228759765625 299.69598388671875 271.29937744140625 C 291.6641845703125 271.29937744140625 283.6323547363281 271.29937744140625 275.60052490234375 271.29937744140625 C 275.60052490234375 269.228759765625 275.60052490234375 267.1580810546875 275.60052490234375 265.08740234375M 276.56939697265625 296.23046875 C 276.56939697265625 298.176025390625 277.60845947265625 299.7047119140625 279.6866455078125 300.81640625 C 281.7648010253906 301.900390625 284.4186706542969 302.4423828125 287.64825439453125 302.4423828125 C 290.8778381347656 302.4423828125 293.5317077636719 301.900390625 295.60986328125 300.81640625 C 297.68804931640625 299.7047119140625 298.72711181640625 298.176025390625 298.72711181640625 296.23046875 C 298.72711181640625 294.257080078125 297.68804931640625 292.7283935546875 295.60986328125 291.64447021484375 C 293.5317077636719 290.53271484375 290.8778381347656 289.976806640625 287.64825439453125 289.976806640625 C 284.4186706542969 289.976806640625 281.7648010253906 290.53271484375 279.6866455078125 291.64447021484375 C 277.60845947265625 292.7283935546875 276.56939697265625 294.257080078125 276.56939697265625 296.23046875M 316.37750244140625 329.12451171875 C 316.37750244140625 327.0399169921875 316.37750244140625 324.9554443359375 316.37750244140625 322.870849609375 C 305.21435546875 322.870849609375 294.05126953125 322.870849609375 282.88812255859375 322.870849609375 C 282.88812255859375 324.9554443359375 282.88812255859375 327.0399169921875 282.88812255859375 329.12451171875 C 294.05126953125 329.12451171875 305.21435546875 329.12451171875 316.37750244140625 329.12451171875M 316.46173095703125 265.462646484375 C 318.9892578125 265.462646484375 321.5167236328125 265.462646484375 324.04425048828125 265.462646484375 C 324.04425048828125 270.9658203125 324.04425048828125 276.468994140625 324.04425048828125 281.97216796875 C 327.5546569824219 281.97216796875 331.0650634765625 281.97216796875 334.57550048828125 281.97216796875 C 334.57550048828125 284.1123046875 334.57550048828125 286.25244140625 334.57550048828125 288.392578125 C 331.0650634765625 288.392578125 327.5546569824219 288.392578125 324.04425048828125 288.392578125 C 324.04425048828125 295.146484375 324.04425048828125 301.900390625 324.04425048828125 308.654296875 C 321.5167236328125 308.654296875 318.9892578125 308.654296875 316.46173095703125 308.654296875 C 316.46173095703125 294.257080078125 316.46173095703125 279.85986328125 316.46173095703125 265.462646484375"/>
    <path stroke-width="0" fill="rgb(0, 0, 0)" opacity="1.0" d="M 344.938232421875 319.3271484375 C 343.25323486328125 319.3271484375 342.41070556640625 318.49334716796875 342.41070556640625 316.82568359375 C 342.41070556640625 301.20556640625 342.41070556640625 285.58544921875 342.41070556640625 269.96527099609375 C 344.9522705078125 269.96527099609375 347.4937744140625 269.96527099609375 350.03533935546875 269.96527099609375 C 350.03533935546875 284.50146484375 350.03533935546875 299.03759765625 350.03533935546875 313.5738525390625 C 360.62274169921875 313.5738525390625 371.21014404296875 313.5738525390625 381.797607421875 313.5738525390625 C 381.797607421875 315.4915771484375 381.797607421875 317.409423828125 381.797607421875 319.3271484375 C 369.5111083984375 319.3271484375 357.22467041015625 319.3271484375 344.938232421875 319.3271484375M 392.328857421875 264.62884521484375 C 394.8563232421875 264.62884521484375 397.3837890625 264.62884521484375 399.91131591796875 264.62884521484375 C 399.91131591796875 288.18414306640625 399.91131591796875 311.73944091796875 399.91131591796875 335.29473876953125 C 397.3837890625 335.29473876953125 394.8563232421875 335.29473876953125 392.328857421875 335.29473876953125 C 392.328857421875 311.73944091796875 392.328857421875 288.18414306640625 392.328857421875 264.62884521484375"/>
    <path stroke-width="0" fill="rgb(0, 0, 0)" opacity="1.0" d="M 416.8876953125 319.3271484375 C 416.101318359375 319.3271484375 415.469482421875 319.11871337890625 414.9920654296875 318.7017822265625 C 414.542724609375 318.257080078125 414.34613037109375 317.6317138671875 414.40234375 316.82568359375 C 414.78143310546875 303.4290771484375 415.1605224609375 290.03240966796875 415.5396728515625 276.6357421875 C 414.57080078125 276.6357421875 413.6019287109375 276.6357421875 412.633056640625 276.6357421875 C 412.633056640625 274.718017578125 412.633056640625 272.80023193359375 412.633056640625 270.8824462890625 C 425.0318603515625 270.8824462890625 437.43060302734375 270.8824462890625 449.82940673828125 270.8824462890625 C 449.82940673828125 272.80023193359375 449.82940673828125 274.718017578125 449.82940673828125 276.6357421875 C 440.927001953125 276.6357421875 432.02459716796875 276.6357421875 423.1221923828125 276.6357421875 C 422.7430419921875 288.948486328125 422.3638916015625 301.2611083984375 421.98480224609375 313.5738525390625 C 431.9122314453125 313.5738525390625 441.8397216796875 313.5738525390625 451.76715087890625 313.5738525390625 C 451.76715087890625 315.4915771484375 451.76715087890625 317.409423828125 451.76715087890625 319.3271484375 C 440.140625 319.3271484375 428.51416015625 319.3271484375 416.8876953125 319.3271484375M 462.045654296875 264.62884521484375 C 464.5731201171875 264.62884521484375 467.10064697265625 264.62884521484375 469.628173828125 264.62884521484375 C 469.628173828125 273.96759033203125 469.628173828125 283.3062744140625 469.628173828125 292.64501953125 C 473.1385498046875 292.64501953125 476.64898681640625 292.64501953125 480.159423828125 292.64501953125 C 480.159423828125 294.5628662109375 480.159423828125 296.4805908203125 480.159423828125 298.39837646484375 C 476.64898681640625 298.39837646484375 473.1385498046875 298.39837646484375 469.628173828125 298.39837646484375 C 469.628173828125 310.6971435546875 469.628173828125 322.9959716796875 469.628173828125 335.29473876953125 C 467.10064697265625 335.29473876953125 464.5731201171875 335.29473876953125 462.045654296875 335.29473876953125 C 462.045654296875 311.73944091796875 462.045654296875 288.18414306640625 462.045654296875 264.62884521484375"/>
  </g>
</svg>
