<?xml version="1.0" encoding="utf-8"?>
<svg xmlns="http://www.w3.org/2000/svg" xmlns:ev="http://www.w3.org/2001/xml-events" xmlns:xlink="http://www.w3.org/1999/xlink" version="1.1" baseProfile="full" width="4663.0" height="1693.0" viewBox="522.0 -1615.0 4663.0 1693.0">
<defs/>
<g><path d="M 3409.000000 -1014.000000 C 3241.333333 -1014.000000 3073.666667 -1014.000000 2906.000000 -1014.000000 C 2906.000000 -924.000000 2906.000000 -834.000000 2906.000000 -744.000000 C 2916.666667 -716.666667 2924.000000 -691.333333 2928.000000 -668.000000 C 2932.666667 -645.333333 2937.000000 -612.333333 2941.000000 -569.000000 C 2942.333333 -559.000000 2943.000000 -543.333333 2943.000000 -522.000000 C 2943.000000 -444.000000 2930.000000 -368.333333 2904.000000 -295.000000 C 2878.666667 -221.666667 2837.333333 -158.666667 2780.000000 -106.000000 C 2741.333333 -67.333333 2687.000000 -31.000000 2617.000000 3.000000 C 2547.666667 37.000000 2476.333333 62.000000 2403.000000 78.000000 C 2391.666667 33.000000 2380.333333 -12.000000 2369.000000 -57.000000 C 2483.000000 -81.000000 2575.000000 -116.333333 2645.000000 -163.000000 C 2686.333333 -188.333333 2721.000000 -222.000000 2749.000000 -264.000000 C 2777.000000 -306.666667 2795.000000 -356.666667 2803.000000 -414.000000 C 2785.000000 -383.333333 2760.000000 -360.000000 2728.000000 -344.000000 C 2696.000000 -328.000000 2663.333333 -320.000000 2630.000000 -320.000000 C 2545.333333 -320.000000 2476.666667 -347.000000 2424.000000 -401.000000 C 2401.333333 -426.333333 2383.333333 -456.333333 2370.000000 -491.000000 C 2357.333333 -526.333333 2351.000000 -564.000000 2351.000000 -604.000000 C 2351.000000 -690.000000 2376.666667 -759.666667 2428.000000 -813.000000 C 2482.000000 -868.333333 2550.000000 -896.000000 2632.000000 -896.000000 C 2654.666667 -896.000000 2676.000000 -892.666667 2696.000000 -886.000000 C 2716.000000 -880.000000 2737.333333 -869.333333 2760.000000 -854.000000 C 2760.000000 -907.333333 2760.000000 -960.666667 2760.000000 -1014.000000 C 2540.000000 -1014.000000 2320.000000 -1014.000000 2100.000000 -1014.000000 C 2100.000000 -1060.000000 2100.000000 -1106.000000 2100.000000 -1152.000000 C 2320.000000 -1152.000000 2540.000000 -1152.000000 2760.000000 -1152.000000 C 2760.000000 -1248.000000 2760.000000 -1344.000000 2760.000000 -1440.000000 C 2808.666667 -1440.000000 2857.333333 -1440.000000 2906.000000 -1440.000000 C 2906.000000 -1344.000000 2906.000000 -1248.000000 2906.000000 -1152.000000 C 3028.333333 -1152.000000 3150.666667 -1152.000000 3273.000000 -1152.000000 C 3257.666667 -1177.333333 3213.000000 -1224.666667 3139.000000 -1294.000000 C 3065.666667 -1364.000000 3013.666667 -1406.333333 2983.000000 -1421.000000 C 3020.000000 -1447.333333 3057.000000 -1473.666667 3094.000000 -1500.000000 C 3128.666667 -1486.666667 3179.000000 -1447.666667 3245.000000 -1383.000000 C 3311.000000 -1318.333333 3353.000000 -1271.666667 3371.000000 -1243.000000 C 3339.666667 -1212.666667 3308.333333 -1182.333333 3277.000000 -1152.000000 C 3321.000000 -1152.000000 3365.000000 -1152.000000 3409.000000 -1152.000000 C 3409.000000 -1106.000000 3409.000000 -1060.000000 3409.000000 -1014.000000z M 2482.000000 -604.000000 C 2482.000000 -562.666667 2495.000000 -527.000000 2521.000000 -497.000000 C 2547.666667 -467.000000 2584.000000 -452.000000 2630.000000 -452.000000 C 2664.666667 -452.000000 2694.666667 -468.000000 2720.000000 -500.000000 C 2745.333333 -532.000000 2758.000000 -566.666667 2758.000000 -604.000000 C 2758.000000 -649.333333 2747.333333 -687.333333 2726.000000 -718.000000 C 2705.333333 -748.666667 2673.333333 -764.000000 2630.000000 -764.000000 C 2582.666667 -764.000000 2546.000000 -749.000000 2520.000000 -719.000000 C 2494.666667 -689.000000 2482.000000 -650.666667 2482.000000 -604.000000z M 3267.000000 -1615.000000 C 3301.666667 -1602.333333 3352.000000 -1564.000000 3418.000000 -1500.000000 C 3484.000000 -1436.000000 3526.000000 -1389.333333 3544.000000 -1360.000000 C 3512.000000 -1331.000000 3480.000000 -1302.000000 3448.000000 -1273.000000 C 3434.000000 -1296.333333 3389.333333 -1343.000000 3314.000000 -1413.000000 C 3239.333333 -1483.000000 3186.666667 -1525.333333 3156.000000 -1540.000000 C 3193.000000 -1565.000000 3230.000000 -1590.000000 3267.000000 -1615.000000z "/>
</g></svg>
