<?xml version="1.0" ?>
<svg xmlns="http://www.w3.org/2000/svg" version="1.1" width="600" height="600">
  <defs/>
  <g>
    <path stroke-width="0" fill="rgb(0, 0, 0)" opacity="1.0" d="M 414.9376220703125 376.38629150390625 C 405.3031005859375 387.72711181640625 392.48095703125 399.4931640625 376.470703125 411.6845703125 C 360.4605712890625 423.8759765625 345.79638671875 432.66510009765625 332.478271484375 438.052001953125 C 306.125244140625 448.6839599609375 277.151123046875 454.0 245.555908203125 454.0 C 226.712158203125 454.0 211.90625 447.40814208984375 201.138427734375 434.2244873046875 C 191.50390625 421.74957275390625 186.47412109375 405.51800537109375 186.049072265625 385.52984619140625 C 186.049072265625 306.285888671875 186.049072265625 227.04193115234375 186.049072265625 147.7979736328125 C 196.887939453125 147.7979736328125 207.7265625 147.7979736328125 218.5653076171875 147.7979736328125 C 218.5653076171875 228.81393432617188 218.5653076171875 309.82989501953125 218.5653076171875 390.8458251953125 C 218.5653076171875 401.3360595703125 220.832275390625 409.4873046875 225.3660888671875 415.2994384765625 C 230.0416259765625 420.9698486328125 236.48828125 423.8050537109375 244.705810546875 423.8050537109375 C 279.8431396484375 423.8050537109375 309.7381591796875 416.717041015625 334.3909912109375 402.541015625 C 360.8856201171875 387.23095703125 380.9337158203125 370.0780029296875 394.5352783203125 351.08209228515625 C 401.3360595703125 359.516845703125 408.1368408203125 367.9515380859375 414.9376220703125 376.38629150390625"/>
  </g>
</svg>
