<?xml version="1.0" ?>
<svg xmlns="http://www.w3.org/2000/svg" version="1.1" width="600" height="600">
  <defs/>
  <g>
    <path stroke-width="0" fill="rgb(0, 0, 0)" opacity="1.0" d="M 154.6109619140625 397.6357421875 C 150.7208251953125 397.6357421875 147.5947265625 396.593505859375 145.23291015625 394.50897216796875 C 143.0098876953125 392.28546142578125 142.037353515625 389.15869140625 142.315185546875 385.1285400390625 C 144.1907958984375 318.14532470703125 146.06640625 251.162109375 147.9420166015625 184.17892456054688 C 143.1488037109375 184.17892456054688 138.3555908203125 184.17892456054688 133.5623779296875 184.17892456054688 C 133.5623779296875 174.59002685546875 133.5623779296875 165.00115966796875 133.5623779296875 155.41226196289062 C 194.9019775390625 155.41226196289062 256.241455078125 155.41226196289062 317.5809326171875 155.41226196289062 C 317.5809326171875 165.00115966796875 317.5809326171875 174.59002685546875 317.5809326171875 184.17892456054688 C 273.5386962890625 184.17892456054688 229.49658203125 184.17892456054688 185.454345703125 184.17892456054688 C 183.5787353515625 245.7423095703125 181.703125 307.30572509765625 179.8275146484375 368.869140625 C 228.9407958984375 368.869140625 278.05419921875 368.869140625 327.16748046875 368.869140625 C 327.16748046875 378.4580078125 327.16748046875 388.046875 327.16748046875 397.6357421875 C 269.6485595703125 397.6357421875 212.1297607421875 397.6357421875 154.6109619140625 397.6357421875M 378.0174560546875 124.1441650390625 C 390.521484375 124.1441650390625 403.025634765625 124.1441650390625 415.5296630859375 124.1441650390625 C 415.5296630859375 170.83786010742188 415.5296630859375 217.53155517578125 415.5296630859375 264.2252502441406 C 432.896484375 264.2252502441406 450.263427734375 264.2252502441406 467.630126953125 264.2252502441406 C 467.630126953125 273.81414794921875 467.630126953125 283.40301513671875 467.630126953125 292.99188232421875 C 450.263427734375 292.99188232421875 432.896484375 292.99188232421875 415.5296630859375 292.99188232421875 C 415.5296630859375 354.48583984375 415.5296630859375 415.979736328125 415.5296630859375 477.4736328125 C 403.025634765625 477.4736328125 390.521484375 477.4736328125 378.0174560546875 477.4736328125 C 378.0174560546875 359.6971435546875 378.0174560546875 241.920654296875 378.0174560546875 124.1441650390625"/>
  </g>
</svg>
