<?xml version="1.0" encoding="utf-8"?>
<svg xmlns="http://www.w3.org/2000/svg" xmlns:ev="http://www.w3.org/2001/xml-events" xmlns:xlink="http://www.w3.org/1999/xlink" version="1.1" baseProfile="full" width="4663.0" height="1693.0" viewBox="522.0 -1615.0 4663.0 1693.0">
<defs/>
<g><path d="M 5185.000000 -365.000000 C 5139.666667 -311.666667 5079.333333 -256.333333 5004.000000 -199.000000 C 4928.666667 -141.666667 4859.666667 -100.333333 4797.000000 -75.000000 C 4673.000000 -25.000000 4536.666667 0.000000 4388.000000 0.000000 C 4299.333333 0.000000 4229.666667 -31.000000 4179.000000 -93.000000 C 4133.666667 -151.666667 4110.000000 -228.000000 4108.000000 -322.000000 C 4108.000000 -694.666667 4108.000000 -1067.333333 4108.000000 -1440.000000 C 4159.000000 -1440.000000 4210.000000 -1440.000000 4261.000000 -1440.000000 C 4261.000000 -1059.000000 4261.000000 -678.000000 4261.000000 -297.000000 C 4261.000000 -247.666667 4271.666667 -209.333333 4293.000000 -182.000000 C 4315.000000 -155.333333 4345.333333 -142.000000 4384.000000 -142.000000 C 4549.333333 -142.000000 4690.000000 -175.333333 4806.000000 -242.000000 C 4930.666667 -314.000000 5025.000000 -394.666667 5089.000000 -484.000000 C 5121.000000 -444.333333 5153.000000 -404.666667 5185.000000 -365.000000z "/>
</g></svg>
