<?xml version="1.0" ?>
<svg xmlns="http://www.w3.org/2000/svg" version="1.1" width="600" height="600">
  <defs/>
  <g>
    <path stroke-width="0" fill="rgb(0, 0, 0)" opacity="1.0" d="M 169.6273193359375 277.5662841796875 C 166.1536865234375 277.5662841796875 163.16632080078125 276.45452880859375 160.665283203125 274.23101806640625 C 158.30322265625 271.8685607910156 157.1221923828125 269.0196838378906 157.1221923828125 265.6844177246094 C 157.1221923828125 243.65777587890625 157.1221923828125 221.63116455078125 157.1221923828125 199.6044921875 C 157.1221923828125 198.49273681640625 157.67791748046875 197.51995849609375 158.78955078125 196.6861572265625 C 160.0400390625 195.85235595703125 161.49896240234375 195.4354248046875 163.16632080078125 195.4354248046875 C 202.27978515625 195.4354248046875 241.393310546875 195.4354248046875 280.50677490234375 195.4354248046875 C 280.50677490234375 183.48406982421875 280.50677490234375 171.53271484375 280.50677490234375 159.58135986328125 C 238.7532958984375 159.58135986328125 196.99981689453125 159.58135986328125 155.246337890625 159.58135986328125 C 155.246337890625 149.99246215820312 155.246337890625 140.40359497070312 155.246337890625 130.814697265625 C 205.128173828125 130.814697265625 255.01007080078125 130.814697265625 304.89190673828125 130.814697265625 C 308.3656005859375 130.814697265625 311.283447265625 131.99594116210938 313.64556884765625 134.35842895507812 C 316.00762939453125 136.72091674804688 317.18865966796875 139.63925170898438 317.18865966796875 143.11349487304688 C 317.18865966796875 166.04342651367188 317.18865966796875 188.97335815429688 317.18865966796875 211.9033203125 C 317.18865966796875 215.23855590820312 316.56341552734375 218.15692138671875 315.31292724609375 220.65838623046875 C 314.20135498046875 223.0208740234375 312.8118896484375 224.20208740234375 311.14453125 224.20208740234375 C 272.10052490234375 224.20208740234375 233.0565185546875 224.20208740234375 194.012451171875 224.20208740234375 C 194.012451171875 232.40127563476562 194.012451171875 240.6004638671875 194.012451171875 248.79965209960938 C 247.22900390625 248.79965209960938 300.44561767578125 248.79965209960938 353.66217041015625 248.79965209960938 C 353.66217041015625 258.3885498046875 353.66217041015625 267.9774169921875 353.66217041015625 277.5662841796875 C 292.3172607421875 277.5662841796875 230.9722900390625 277.5662841796875 169.6273193359375 277.5662841796875M 194.4293212890625 355.528076171875 C 278.42254638671875 355.528076171875 362.41583251953125 355.528076171875 446.4090576171875 355.528076171875 C 446.4090576171875 365.116943359375 446.4090576171875 374.705810546875 446.4090576171875 384.29473876953125 C 362.41583251953125 384.29473876953125 278.42254638671875 384.29473876953125 194.4293212890625 384.29473876953125 C 194.4293212890625 374.705810546875 194.4293212890625 365.116943359375 194.4293212890625 355.528076171875M 214.8544921875 436.61669921875 C 214.8544921875 421.0521240234375 223.8165283203125 410.3514404296875 241.74066162109375 404.5147705078125 C 259.8037109375 398.5390625 286.06463623046875 395.55126953125 320.52337646484375 395.55126953125 C 354.84326171875 395.55126953125 380.9652099609375 398.5390625 398.8892822265625 404.5147705078125 C 416.952392578125 410.3514404296875 425.98388671875 421.0521240234375 425.98388671875 436.61669921875 C 425.98388671875 452.1812744140625 416.952392578125 462.8818359375 398.8892822265625 468.7186279296875 C 380.9652099609375 474.69427490234375 354.84326171875 477.68212890625 320.52337646484375 477.68212890625 C 286.06463623046875 477.68212890625 259.8037109375 474.69427490234375 241.74066162109375 468.7186279296875 C 223.8165283203125 462.8818359375 214.8544921875 452.1812744140625 214.8544921875 436.61669921875M 251.536376953125 304.2484130859375 C 297.458251953125 304.2484130859375 343.380126953125 304.2484130859375 389.302001953125 304.2484130859375 C 389.302001953125 313.8372802734375 389.302001953125 323.4261474609375 389.302001953125 333.0150146484375 C 343.380126953125 333.0150146484375 297.458251953125 333.0150146484375 251.536376953125 333.0150146484375 C 251.536376953125 323.4261474609375 251.536376953125 313.8372802734375 251.536376953125 304.2484130859375M 252.3701171875 436.61669921875 C 252.3701171875 441.20263671875 257.927978515625 444.39892578125 269.043701171875 446.20556640625 C 280.15936279296875 448.01214599609375 297.3193359375 448.91546630859375 320.52337646484375 448.91546630859375 C 343.72747802734375 448.91546630859375 360.81793212890625 448.01214599609375 371.79473876953125 446.20556640625 C 382.910400390625 444.39892578125 388.46832275390625 441.20263671875 388.46832275390625 436.61669921875 C 388.46832275390625 432.03070068359375 382.910400390625 428.8343505859375 371.79473876953125 427.02783203125 C 360.81793212890625 425.22119140625 343.72747802734375 424.31787109375 320.52337646484375 424.31787109375 C 297.3193359375 424.31787109375 280.15936279296875 425.22119140625 269.043701171875 427.02783203125 C 257.927978515625 428.8343505859375 252.3701171875 432.03070068359375 252.3701171875 436.61669921875M 331.98651123046875 184.17892456054688 C 356.30218505859375 184.17892456054688 380.6177978515625 184.17892456054688 404.9334716796875 184.17892456054688 C 404.9334716796875 164.16732788085938 404.9334716796875 144.15576171875 404.9334716796875 124.1441650390625 C 417.43865966796875 124.1441650390625 429.94390869140625 124.1441650390625 442.4490966796875 124.1441650390625 C 442.4490966796875 179.59292602539062 442.4490966796875 235.04168701171875 442.4490966796875 290.4904479980469 C 429.94390869140625 290.4904479980469 417.43865966796875 290.4904479980469 404.9334716796875 290.4904479980469 C 404.9334716796875 264.64215087890625 404.9334716796875 238.79385375976562 404.9334716796875 212.945556640625 C 380.6177978515625 212.945556640625 356.30218505859375 212.945556640625 331.98651123046875 212.945556640625 C 331.98651123046875 203.356689453125 331.98651123046875 193.76779174804688 331.98651123046875 184.17892456054688"/>
  </g>
</svg>
