<?xml version="1.0" ?>
<svg xmlns="http://www.w3.org/2000/svg" version="1.1" width="600" height="600">
  <defs/>
  <g>
    <path stroke-width="0" fill="rgb(0, 0, 0)" opacity="1.0" d="M 141.5540771484375 381.79327392578125 C 177.263427734375 362.05963134765625 205.955810546875 336.350341796875 227.631591796875 304.665283203125 C 249.4461669921875 272.8413391113281 260.770263671875 234.48583984375 261.60400390625 189.59872436523438 C 225.4083251953125 189.59872436523438 189.2127685546875 189.59872436523438 153.01708984375 189.59872436523438 C 153.01708984375 178.8980712890625 153.01708984375 168.19744873046875 153.01708984375 157.496826171875 C 197.89697265625 157.496826171875 242.7767333984375 157.496826171875 287.656494140625 157.496826171875 C 292.9365234375 157.496826171875 296.340576171875 159.37289428710938 297.8690185546875 163.12506103515625 C 299.536376953125 166.87722778320312 300.0921630859375 173.61724853515625 299.536376953125 183.3450927734375 C 298.0079345703125 224.341064453125 290.5743408203125 259.29180908203125 277.2354736328125 288.19744873046875 C 263.8966064453125 316.964111328125 247.5703125 340.449951171875 228.2568359375 358.6549072265625 C 209.0821533203125 376.72088623046875 186.9896240234375 393.25823974609375 161.979248046875 408.2669677734375 C 155.1708984375 399.4423828125 148.362548828125 390.6177978515625 141.5540771484375 381.79327392578125M 295.576416015625 258.805419921875 C 313.1531982421875 258.805419921875 330.72998046875 258.805419921875 348.306640625 258.805419921875 C 348.306640625 216.14187622070312 348.306640625 173.478271484375 348.306640625 130.814697265625 C 360.603515625 130.814697265625 372.900146484375 130.814697265625 385.197021484375 130.814697265625 C 385.197021484375 243.65777587890625 385.197021484375 356.5008544921875 385.197021484375 469.34393310546875 C 372.900146484375 469.34393310546875 360.603515625 469.34393310546875 348.306640625 469.34393310546875 C 348.306640625 409.8651123046875 348.306640625 350.38623046875 348.306640625 290.9073486328125 C 330.72998046875 290.9073486328125 313.1531982421875 290.9073486328125 295.576416015625 290.9073486328125 C 295.576416015625 280.20672607421875 295.576416015625 269.5060729980469 295.576416015625 258.805419921875M 422.504150390625 124.1441650390625 C 434.7314453125 124.1441650390625 446.9588623046875 124.1441650390625 459.1861572265625 124.1441650390625 C 459.1861572265625 241.920654296875 459.1861572265625 359.6971435546875 459.1861572265625 477.4736328125 C 446.9588623046875 477.4736328125 434.7314453125 477.4736328125 422.504150390625 477.4736328125 C 422.504150390625 359.6971435546875 422.504150390625 241.920654296875 422.504150390625 124.1441650390625"/>
  </g>
</svg>
