<?xml version="1.0" ?>
<svg xmlns="http://www.w3.org/2000/svg" version="1.1" width="600" height="600">
  <defs/>
  <g>
    <path stroke-width="0" fill="rgb(0, 0, 0)" opacity="1.0" d="M 126.0372314453125 389.593505859375 C 153.5462646484375 363.0504150390625 176.261962890625 329.69775390625 194.1845703125 289.5356140136719 C 212.2459716796875 249.37347412109375 222.6661376953125 200.8037109375 225.44476318359375 143.8262939453125 C 237.9488525390625 143.8262939453125 250.4530029296875 143.8262939453125 262.95703125 143.8262939453125 C 260.59521484375 186.21194458007812 254.82940673828125 223.8031005859375 245.65972900390625 256.5998840332031 C 252.88433837890625 276.889404296875 266.91668701171875 299.263427734375 287.7568359375 323.7220458984375 C 308.59698486328125 348.04168701171875 328.74249267578125 367.010986328125 348.19329833984375 380.6300048828125 C 340.343505859375 389.3155517578125 332.49371337890625 398.00115966796875 324.6439208984375 406.686767578125 C 308.11077880859375 394.8743896484375 290.466064453125 379.101318359375 271.70989990234375 359.36767578125 C 253.0927734375 339.49505615234375 239.26873779296875 320.8731689453125 230.238037109375 303.50201416015625 C 212.3154296875 344.77587890625 186.68206787109375 381.46380615234375 153.33782958984375 413.56573486328125 C 144.23760986328125 405.574951171875 135.13739013671875 397.584228515625 126.0372314453125 389.593505859375M 384.66357421875 123.814697265625 C 397.16766357421875 123.814697265625 409.6717529296875 123.814697265625 422.17584228515625 123.814697265625 C 422.17584228515625 170.92529296875 422.17584228515625 218.035888671875 422.17584228515625 265.146484375 C 439.54266357421875 265.146484375 456.90948486328125 265.146484375 474.2762451171875 265.146484375 C 474.2762451171875 275.84710693359375 474.2762451171875 286.54779052734375 474.2762451171875 297.2484130859375 C 456.90948486328125 297.2484130859375 439.54266357421875 297.2484130859375 422.17584228515625 297.2484130859375 C 422.17584228515625 357.213623046875 422.17584228515625 417.178955078125 422.17584228515625 477.1441650390625 C 409.6717529296875 477.1441650390625 397.16766357421875 477.1441650390625 384.66357421875 477.1441650390625 C 384.66357421875 359.36767578125 384.66357421875 241.5911865234375 384.66357421875 123.814697265625"/>
  </g>
</svg>
