<?xml version="1.0" encoding="utf-8"?>
<svg xmlns="http://www.w3.org/2000/svg" xmlns:ev="http://www.w3.org/2001/xml-events" xmlns:xlink="http://www.w3.org/1999/xlink" version="1.1" baseProfile="full" width="15392.0" height="1727.0" viewBox="102.0 -1568.0 15392.0 1727.0">
<defs/>
<g><path d="M 14682.000000 -566.000000 C 14606.666667 -566.000000 14539.666667 -571.666667 14481.000000 -583.000000 C 14481.000000 -470.666667 14481.000000 -358.333333 14481.000000 -246.000000 C 14619.000000 -246.000000 14757.000000 -246.000000 14895.000000 -246.000000 C 14895.000000 -359.000000 14895.000000 -472.000000 14895.000000 -585.000000 C 14827.666667 -572.333333 14756.666667 -566.000000 14682.000000 -566.000000z M 13882.000000 -246.000000 C 14021.333333 -246.000000 14160.666667 -246.000000 14300.000000 -246.000000 C 14300.000000 -377.000000 14300.000000 -508.000000 14300.000000 -639.000000 C 14220.666667 -679.000000 14159.666667 -731.000000 14117.000000 -795.000000 C 14075.000000 -859.666667 14054.000000 -933.333333 14054.000000 -1016.000000 C 14054.000000 -1106.666667 14079.333333 -1186.000000 14130.000000 -1254.000000 C 14180.666667 -1322.666667 14253.333333 -1376.000000 14348.000000 -1414.000000 C 14442.666667 -1452.666667 14554.000000 -1472.000000 14682.000000 -1472.000000 C 14810.000000 -1472.000000 14921.333333 -1452.666667 15016.000000 -1414.000000 C 15110.666667 -1376.000000 15183.333333 -1322.666667 15234.000000 -1254.000000 C 15284.666667 -1185.333333 15310.000000 -1106.000000 15310.000000 -1016.000000 C 15310.000000 -935.333333 15289.666667 -863.000000 15249.000000 -799.000000 C 15209.000000 -735.666667 15151.333333 -684.000000 15076.000000 -644.000000 C 15076.000000 -511.333333 15076.000000 -378.666667 15076.000000 -246.000000 C 15215.333333 -246.000000 15354.666667 -246.000000 15494.000000 -246.000000 C 15494.000000 -185.333333 15494.000000 -124.666667 15494.000000 -64.000000 C 14956.666667 -64.000000 14419.333333 -64.000000 13882.000000 -64.000000 C 13882.000000 -124.666667 13882.000000 -185.333333 13882.000000 -246.000000z M 14235.000000 -1019.000000 C 14235.000000 -953.666667 14254.666667 -897.333333 14294.000000 -850.000000 C 14334.000000 -802.666667 14387.666667 -766.333333 14455.000000 -741.000000 C 14523.000000 -716.333333 14598.666667 -704.000000 14682.000000 -704.000000 C 14765.333333 -704.000000 14841.000000 -716.333333 14909.000000 -741.000000 C 14977.000000 -766.333333 15030.666667 -802.666667 15070.000000 -850.000000 C 15110.000000 -897.333333 15130.000000 -953.666667 15130.000000 -1019.000000 C 15130.000000 -1084.333333 15110.000000 -1140.666667 15070.000000 -1188.000000 C 15030.666667 -1235.333333 14977.000000 -1271.333333 14909.000000 -1296.000000 C 14841.000000 -1321.333333 14765.333333 -1334.000000 14682.000000 -1334.000000 C 14598.666667 -1334.000000 14523.000000 -1321.333333 14455.000000 -1296.000000 C 14387.666667 -1271.333333 14334.000000 -1235.333333 14294.000000 -1188.000000 C 14254.666667 -1140.666667 14235.000000 -1084.333333 14235.000000 -1019.000000z "/>
</g></svg>
