<?xml version="1.0" encoding="utf-8"?>
<svg xmlns="http://www.w3.org/2000/svg" xmlns:ev="http://www.w3.org/2001/xml-events" xmlns:xlink="http://www.w3.org/1999/xlink" version="1.1" baseProfile="full" width="15392.0" height="1727.0" viewBox="102.0 -1568.0 15392.0 1727.0">
<defs/>
<g><path d="M 10610.000000 -1418.000000 C 11015.666667 -1418.000000 11421.333333 -1418.000000 11827.000000 -1418.000000 C 11827.000000 -1372.000000 11827.000000 -1326.000000 11827.000000 -1280.000000 C 11658.666667 -1280.000000 11490.333333 -1280.000000 11322.000000 -1280.000000 C 11314.666667 -1230.000000 11298.000000 -1179.333333 11272.000000 -1128.000000 C 11327.333333 -1070.666667 11415.333333 -1011.333333 11536.000000 -950.000000 C 11657.333333 -889.333333 11788.333333 -841.333333 11929.000000 -806.000000 C 11899.666667 -755.666667 11870.333333 -705.333333 11841.000000 -655.000000 C 11709.000000 -686.333333 11578.666667 -735.666667 11450.000000 -803.000000 C 11321.333333 -870.333333 11229.333333 -932.666667 11174.000000 -990.000000 C 11101.333333 -906.666667 11012.000000 -831.666667 10906.000000 -765.000000 C 10800.666667 -699.000000 10699.333333 -648.333333 10602.000000 -613.000000 C 10569.333333 -660.666667 10536.666667 -708.333333 10504.000000 -756.000000 C 10597.333333 -787.333333 10689.000000 -829.333333 10779.000000 -882.000000 C 10869.666667 -934.666667 10947.666667 -995.666667 11013.000000 -1065.000000 C 11078.333333 -1134.333333 11120.000000 -1206.000000 11138.000000 -1280.000000 C 10962.000000 -1280.000000 10786.000000 -1280.000000 10610.000000 -1280.000000 C 10610.000000 -1326.000000 10610.000000 -1372.000000 10610.000000 -1418.000000z M 10426.000000 -458.000000 C 10963.333333 -458.000000 11500.666667 -458.000000 12038.000000 -458.000000 C 12038.000000 -412.000000 12038.000000 -366.000000 12038.000000 -320.000000 C 11799.333333 -320.000000 11560.666667 -320.000000 11322.000000 -320.000000 C 11322.000000 -160.333333 11322.000000 -0.666667 11322.000000 159.000000 C 11262.000000 159.000000 11202.000000 159.000000 11142.000000 159.000000 C 11142.000000 -0.666667 11142.000000 -160.333333 11142.000000 -320.000000 C 10903.333333 -320.000000 10664.666667 -320.000000 10426.000000 -320.000000 C 10426.000000 -366.000000 10426.000000 -412.000000 10426.000000 -458.000000z "/>
</g></svg>
