<?xml version="1.0" ?>
<svg xmlns="http://www.w3.org/2000/svg" version="1.1" width="600" height="600">
  <defs/>
  <g>
    <path stroke-width="0" fill="rgb(0, 0, 0)" opacity="1.0" d="M 425.4947509765625 248.38275146484375 C 389.86151123046875 248.38275146484375 354.22833251953125 248.38275146484375 318.59515380859375 248.38275146484375 C 318.59515380859375 267.5203857421875 318.59515380859375 286.65802001953125 318.59515380859375 305.7956237792969 C 320.862060546875 311.6077880859375 322.4205322265625 316.99468994140625 323.2706298828125 321.956298828125 C 324.262451171875 326.776123046875 325.183349609375 333.79327392578125 326.033447265625 343.0076904296875 C 326.31683349609375 345.13409423828125 326.45849609375 348.4654541015625 326.45849609375 353.00177001953125 C 326.45849609375 369.58770751953125 323.6956787109375 385.677490234375 318.17010498046875 401.2711181640625 C 312.7861328125 416.86474609375 304.00177001953125 430.2611083984375 291.81707763671875 441.46014404296875 C 283.5994873046875 449.6822509765625 272.0523681640625 457.40814208984375 257.1756591796875 464.637939453125 C 242.440673828125 471.86767578125 227.28057861328125 477.1837158203125 211.69549560546875 480.5859375 C 209.286865234375 471.01708984375 206.8782958984375 461.44830322265625 204.46966552734375 451.8795166015625 C 228.6973876953125 446.776123046875 248.2496337890625 439.2628173828125 263.1263427734375 429.339599609375 C 271.91064453125 423.9527587890625 279.27813720703125 416.7938232421875 285.22882080078125 407.86297607421875 C 291.17950439453125 398.790283203125 295.00494384765625 388.1583251953125 296.70513916015625 375.9669189453125 C 292.87969970703125 382.4879150390625 287.56658935546875 387.449462890625 280.76580810546875 390.85174560546875 C 273.96502685546875 394.25396728515625 267.0225830078125 395.955078125 259.9384765625 395.955078125 C 241.94476318359375 395.955078125 227.3514404296875 390.21380615234375 216.15850830078125 378.73126220703125 C 211.34124755859375 373.3443603515625 207.515869140625 366.96514892578125 204.68218994140625 359.5936279296875 C 201.990234375 352.080322265625 200.64422607421875 344.07086181640625 200.64422607421875 335.56524658203125 C 200.64422607421875 317.2781982421875 206.0989990234375 302.4642639160156 217.00860595703125 291.1234436035156 C 228.48486328125 279.35736083984375 242.9365234375 273.47430419921875 260.363525390625 273.47430419921875 C 265.18072509765625 273.47430419921875 269.714599609375 274.18310546875 273.96502685546875 275.6007080078125 C 278.21551513671875 276.8765563964844 282.7493896484375 279.14471435546875 287.56658935546875 282.40521240234375 C 287.56658935546875 271.06439208984375 287.56658935546875 259.72357177734375 287.56658935546875 248.38275146484375 C 240.811279296875 248.38275146484375 194.05596923828125 248.38275146484375 147.3006591796875 248.38275146484375 C 147.3006591796875 238.601318359375 147.3006591796875 228.81982421875 147.3006591796875 219.03839111328125 C 194.05596923828125 219.03839111328125 240.811279296875 219.03839111328125 287.56658935546875 219.03839111328125 C 287.56658935546875 198.62493896484375 287.56658935546875 178.21145629882812 287.56658935546875 157.7979736328125 C 297.90948486328125 157.7979736328125 308.25225830078125 157.7979736328125 318.59515380859375 157.7979736328125 C 318.59515380859375 178.21145629882812 318.59515380859375 198.62493896484375 318.59515380859375 219.03839111328125 C 344.5938720703125 219.03839111328125 370.59271240234375 219.03839111328125 396.59149169921875 219.03839111328125 C 393.33282470703125 213.6514892578125 383.84002685546875 203.5865478515625 368.11322021484375 188.84347534179688 C 352.52813720703125 173.95864868164062 341.4769287109375 164.95687866210938 334.95947265625 161.83816528320312 C 342.8228759765625 156.23861694335938 350.686279296875 150.63909912109375 358.5496826171875 145.03958129882812 C 365.91717529296875 147.87478637695312 376.61419677734375 156.16775512695312 390.64080810546875 169.91848754882812 C 404.66741943359375 183.66921997070312 413.5933837890625 193.59243774414062 417.4188232421875 199.6881103515625 C 410.759765625 206.13821411132812 404.10064697265625 212.58828735351562 397.44158935546875 219.03839111328125 C 406.79266357421875 219.03839111328125 416.1436767578125 219.03839111328125 425.4947509765625 219.03839111328125 C 425.4947509765625 228.81982421875 425.4947509765625 238.601318359375 425.4947509765625 248.38275146484375M 228.48486328125 335.56524658203125 C 228.48486328125 344.3543701171875 231.2476806640625 351.9385986328125 236.7733154296875 358.3177490234375 C 242.440673828125 364.697021484375 250.162353515625 367.8865966796875 259.9384765625 367.8865966796875 C 267.30596923828125 367.8865966796875 273.68170166015625 364.484375 279.06561279296875 357.67987060546875 C 284.4495849609375 350.8753662109375 287.14154052734375 343.50384521484375 287.14154052734375 335.56524658203125 C 287.14154052734375 325.92559814453125 284.8746337890625 317.84521484375 280.34075927734375 311.32427978515625 C 275.9486083984375 304.80328369140625 269.1478271484375 301.5428161621094 259.9384765625 301.5428161621094 C 249.8790283203125 301.5428161621094 242.08642578125 304.732421875 236.560791015625 311.11163330078125 C 231.1768798828125 317.4908447265625 228.48486328125 325.64202880859375 228.48486328125 335.56524658203125M 395.31634521484375 120.5859375 C 402.683837890625 123.27938842773438 413.380859375 131.43060302734375 427.407470703125 145.03958129882812 C 441.43408203125 158.6485595703125 450.360107421875 168.57174682617188 454.185546875 174.8092041015625 C 447.384765625 180.97576904296875 440.583984375 187.142333984375 433.783203125 193.30892944335938 C 430.807861328125 188.3472900390625 421.31512451171875 178.42410278320312 405.30499267578125 163.53927612304688 C 389.43646240234375 148.65444946289062 378.24359130859375 139.65267944335938 371.72613525390625 136.53396606445312 C 379.58953857421875 131.21795654296875 387.45294189453125 125.90194702148438 395.31634521484375 120.5859375"/>
  </g>
</svg>
