<?xml version="1.0" ?>
<svg xmlns="http://www.w3.org/2000/svg" version="1.1" width="600" height="600">
  <defs/>
  <g>
    <path stroke-width="0" fill="rgb(0, 0, 0)" opacity="1.0" d="M 299.423095703125 246.88418579101562 C 257.0443115234375 246.88418579101562 224.600341796875 242.15924072265625 202.0909423828125 232.70932006835938 C 179.7205810546875 223.2593994140625 168.535400390625 207.9727783203125 168.535400390625 186.84945678710938 C 168.535400390625 165.72610473632812 179.7205810546875 150.43948364257812 202.0909423828125 140.98956298828125 C 224.600341796875 131.53964233398438 257.0443115234375 126.814697265625 299.423095703125 126.814697265625 C 341.9407958984375 126.814697265625 374.384765625 131.53964233398438 396.7552490234375 140.98956298828125 C 419.1256103515625 150.43948364257812 430.31103515625 165.72610473632812 430.31103515625 186.84945678710938 C 430.31103515625 207.9727783203125 419.1256103515625 223.2593994140625 396.7552490234375 232.70932006835938 C 374.384765625 242.15924072265625 341.9407958984375 246.88418579101562 299.423095703125 246.88418579101562M 132.6871337890625 273.5662841796875 C 244.67822265625 273.5662841796875 356.6690673828125 273.5662841796875 468.66015625 273.5662841796875 C 468.66015625 283.1551818847656 468.66015625 292.74407958984375 468.66015625 302.33294677734375 C 356.6690673828125 302.33294677734375 244.67822265625 302.33294677734375 132.6871337890625 302.33294677734375 C 132.6871337890625 292.74407958984375 132.6871337890625 283.1551818847656 132.6871337890625 273.5662841796875M 174.1627197265625 338.18701171875 C 253.5706787109375 338.18701171875 332.978759765625 338.18701171875 412.38671875 338.18701171875 C 415.8604736328125 338.18701171875 418.7783203125 339.3682861328125 421.140380859375 341.730712890625 C 423.50244140625 344.09326171875 424.6834716796875 346.94207763671875 424.6834716796875 350.27734375 C 424.6834716796875 371.6785888671875 424.6834716796875 393.07989501953125 424.6834716796875 414.481201171875 C 424.6834716796875 416.00982666015625 424.0582275390625 417.3995361328125 422.8077392578125 418.6502685546875 C 421.6962890625 419.76202392578125 420.306640625 420.31787109375 418.6392822265625 420.31787109375 C 350.138671875 420.31787109375 281.637939453125 420.31787109375 213.13720703125 420.31787109375 C 213.13720703125 428.51708984375 213.13720703125 436.71630859375 213.13720703125 444.91546630859375 C 285.6673583984375 444.91546630859375 358.197509765625 444.91546630859375 430.7275390625 444.91546630859375 C 430.7275390625 454.50433349609375 430.7275390625 464.09326171875 430.7275390625 473.68212890625 C 349.9996337890625 473.68212890625 269.271728515625 473.68212890625 188.543701171875 473.68212890625 C 185.070068359375 473.68212890625 182.1522216796875 472.5008544921875 179.7900390625 470.138427734375 C 177.427978515625 467.77587890625 176.2469482421875 464.8575439453125 176.2469482421875 461.38330078125 C 176.2469482421875 440.12103271484375 176.2469482421875 418.85870361328125 176.2469482421875 397.596435546875 C 176.2469482421875 395.92877197265625 176.8026123046875 394.5390625 177.914306640625 393.4273681640625 C 179.164794921875 392.1766357421875 180.623779296875 391.55126953125 182.2911376953125 391.55126953125 C 250.8612060546875 391.55126953125 319.431396484375 391.55126953125 388.0015869140625 391.55126953125 C 388.0015869140625 383.35205078125 388.0015869140625 375.15283203125 388.0015869140625 366.95367431640625 C 316.721923828125 366.95367431640625 245.4423828125 366.95367431640625 174.1627197265625 366.95367431640625 C 174.1627197265625 357.36480712890625 174.1627197265625 347.77587890625 174.1627197265625 338.18701171875M 206.2593994140625 186.84945678710938 C 206.2593994140625 198.10595703125 214.735107421875 206.16616821289062 231.6866455078125 211.03009033203125 C 248.63818359375 215.75506591796875 271.2169189453125 218.1175537109375 299.423095703125 218.1175537109375 C 327.7681884765625 218.1175537109375 350.41650390625 215.75506591796875 367.3680419921875 211.03009033203125 C 384.319580078125 206.16616821289062 392.7952880859375 198.10595703125 392.7952880859375 186.84945678710938 C 392.7952880859375 175.59292602539062 384.319580078125 167.60220336914062 367.3680419921875 162.87722778320312 C 350.41650390625 158.0133056640625 327.7681884765625 155.58135986328125 299.423095703125 155.58135986328125 C 271.2169189453125 155.58135986328125 248.63818359375 158.0133056640625 231.6866455078125 162.87722778320312 C 214.735107421875 167.60220336914062 206.2593994140625 175.59292602539062 206.2593994140625 186.84945678710938"/>
  </g>
</svg>
