<?xml version="1.0" encoding="utf-8"?>
<svg xmlns="http://www.w3.org/2000/svg" xmlns:ev="http://www.w3.org/2001/xml-events" xmlns:xlink="http://www.w3.org/1999/xlink" version="1.1" baseProfile="full" width="8499.0" height="1696.0" viewBox="83.0 -1568.0 8499.0 1696.0">
<defs/>
<g><path d="M 1955.000000 -704.000000 C 1915.000000 -704.000000 1895.000000 -724.000000 1895.000000 -764.000000 C 1895.000000 -1010.666667 1895.000000 -1257.333333 1895.000000 -1504.000000 C 1955.333333 -1504.000000 2015.666667 -1504.000000 2076.000000 -1504.000000 C 2076.000000 -1283.333333 2076.000000 -1062.666667 2076.000000 -842.000000 C 2317.666667 -842.000000 2559.333333 -842.000000 2801.000000 -842.000000 C 2801.000000 -796.000000 2801.000000 -750.000000 2801.000000 -704.000000 C 2519.000000 -704.000000 2237.000000 -704.000000 1955.000000 -704.000000z M 2052.000000 -197.000000 C 2052.000000 -304.333333 2104.000000 -385.333333 2208.000000 -440.000000 C 2312.666667 -494.666667 2465.000000 -522.000000 2665.000000 -522.000000 C 2864.333333 -522.000000 3016.000000 -494.666667 3120.000000 -440.000000 C 3224.666667 -385.333333 3277.000000 -304.333333 3277.000000 -197.000000 C 3277.000000 -89.666667 3224.666667 -8.666667 3120.000000 46.000000 C 3016.000000 100.666667 2864.333333 128.000000 2665.000000 128.000000 C 2465.000000 128.000000 2312.666667 100.666667 2208.000000 46.000000 C 2104.000000 -8.666667 2052.000000 -89.666667 2052.000000 -197.000000z M 2233.000000 -197.000000 C 2233.000000 -134.333333 2272.000000 -87.333333 2350.000000 -56.000000 C 2428.000000 -25.333333 2533.000000 -10.000000 2665.000000 -10.000000 C 2797.000000 -10.000000 2902.000000 -25.333333 2980.000000 -56.000000 C 3058.000000 -87.333333 3097.000000 -134.333333 3097.000000 -197.000000 C 3097.000000 -259.000000 3058.000000 -305.666667 2980.000000 -337.000000 C 2902.000000 -368.333333 2797.000000 -384.000000 2665.000000 -384.000000 C 2533.000000 -384.000000 2428.000000 -368.333333 2350.000000 -337.000000 C 2272.000000 -305.666667 2233.000000 -259.000000 2233.000000 -197.000000z M 2634.000000 -1152.000000 C 2782.666667 -1152.000000 2931.333333 -1152.000000 3080.000000 -1152.000000 C 3080.000000 -1194.666667 3080.000000 -1237.333333 3080.000000 -1280.000000 C 2931.333333 -1280.000000 2782.666667 -1280.000000 2634.000000 -1280.000000 C 2634.000000 -1326.000000 2634.000000 -1372.000000 2634.000000 -1418.000000 C 2782.666667 -1418.000000 2931.333333 -1418.000000 3080.000000 -1418.000000 C 3080.000000 -1468.000000 3080.000000 -1518.000000 3080.000000 -1568.000000 C 3140.000000 -1568.000000 3200.000000 -1568.000000 3260.000000 -1568.000000 C 3260.000000 -1233.333333 3260.000000 -898.666667 3260.000000 -564.000000 C 3200.000000 -564.000000 3140.000000 -564.000000 3080.000000 -564.000000 C 3080.000000 -714.000000 3080.000000 -864.000000 3080.000000 -1014.000000 C 2931.333333 -1014.000000 2782.666667 -1014.000000 2634.000000 -1014.000000 C 2634.000000 -1060.000000 2634.000000 -1106.000000 2634.000000 -1152.000000z "/>
</g></svg>
