<?xml version="1.0" encoding="utf-8"?>
<svg xmlns="http://www.w3.org/2000/svg" xmlns:ev="http://www.w3.org/2001/xml-events" xmlns:xlink="http://www.w3.org/1999/xlink" version="1.1" baseProfile="full" width="15392.0" height="1727.0" viewBox="102.0 -1568.0 15392.0 1727.0">
<defs/>
<g><path d="M 7770.000000 -960.000000 C 7566.666667 -960.000000 7411.000000 -982.666667 7303.000000 -1028.000000 C 7195.666667 -1073.333333 7142.000000 -1146.666667 7142.000000 -1248.000000 C 7142.000000 -1349.333333 7195.666667 -1422.666667 7303.000000 -1468.000000 C 7411.000000 -1513.333333 7566.666667 -1536.000000 7770.000000 -1536.000000 C 7974.000000 -1536.000000 8129.666667 -1513.333333 8237.000000 -1468.000000 C 8344.333333 -1422.666667 8398.000000 -1349.333333 8398.000000 -1248.000000 C 8398.000000 -1146.666667 8344.333333 -1073.333333 8237.000000 -1028.000000 C 8129.666667 -982.666667 7974.000000 -960.000000 7770.000000 -960.000000z M 6970.000000 -832.000000 C 7507.333333 -832.000000 8044.666667 -832.000000 8582.000000 -832.000000 C 8582.000000 -786.000000 8582.000000 -740.000000 8582.000000 -694.000000 C 8044.666667 -694.000000 7507.333333 -694.000000 6970.000000 -694.000000 C 6970.000000 -740.000000 6970.000000 -786.000000 6970.000000 -832.000000z M 7169.000000 -522.000000 C 7550.000000 -522.000000 7931.000000 -522.000000 8312.000000 -522.000000 C 8328.666667 -522.000000 8342.666667 -516.333333 8354.000000 -505.000000 C 8365.333333 -493.666667 8371.000000 -480.000000 8371.000000 -464.000000 C 8371.000000 -361.333333 8371.000000 -258.666667 8371.000000 -156.000000 C 8371.000000 -148.666667 8368.000000 -142.000000 8362.000000 -136.000000 C 8356.666667 -130.666667 8350.000000 -128.000000 8342.000000 -128.000000 C 8013.333333 -128.000000 7684.666667 -128.000000 7356.000000 -128.000000 C 7356.000000 -88.666667 7356.000000 -49.333333 7356.000000 -10.000000 C 7704.000000 -10.000000 8052.000000 -10.000000 8400.000000 -10.000000 C 8400.000000 36.000000 8400.000000 82.000000 8400.000000 128.000000 C 8012.666667 128.000000 7625.333333 128.000000 7238.000000 128.000000 C 7221.333333 128.000000 7207.333333 122.333333 7196.000000 111.000000 C 7184.666667 99.666667 7179.000000 85.666667 7179.000000 69.000000 C 7179.000000 -33.000000 7179.000000 -135.000000 7179.000000 -237.000000 C 7179.000000 -245.000000 7181.666667 -251.666667 7187.000000 -257.000000 C 7193.000000 -263.000000 7200.000000 -266.000000 7208.000000 -266.000000 C 7537.000000 -266.000000 7866.000000 -266.000000 8195.000000 -266.000000 C 8195.000000 -305.333333 8195.000000 -344.666667 8195.000000 -384.000000 C 7853.000000 -384.000000 7511.000000 -384.000000 7169.000000 -384.000000 C 7169.000000 -430.000000 7169.000000 -476.000000 7169.000000 -522.000000z M 7323.000000 -1248.000000 C 7323.000000 -1194.000000 7363.666667 -1155.333333 7445.000000 -1132.000000 C 7526.333333 -1109.333333 7634.666667 -1098.000000 7770.000000 -1098.000000 C 7906.000000 -1098.000000 8014.666667 -1109.333333 8096.000000 -1132.000000 C 8177.333333 -1155.333333 8218.000000 -1194.000000 8218.000000 -1248.000000 C 8218.000000 -1302.000000 8177.333333 -1340.333333 8096.000000 -1363.000000 C 8014.666667 -1386.333333 7906.000000 -1398.000000 7770.000000 -1398.000000 C 7634.666667 -1398.000000 7526.333333 -1386.333333 7445.000000 -1363.000000 C 7363.666667 -1340.333333 7323.000000 -1302.000000 7323.000000 -1248.000000z "/>
</g></svg>
