<?xml version="1.0" ?>
<svg xmlns="http://www.w3.org/2000/svg" version="1.1" width="600" height="600">
  <defs/>
  <g>
    <path stroke-width="0" fill="rgb(0, 0, 0)" opacity="1.0" d="M 248.79937744140625 144.15576171875 C 267.9739990234375 144.15576171875 284.9949951171875 149.5755615234375 299.8622741699219 160.4151611328125 C 314.72955322265625 171.11581420898438 326.1926574707031 186.54141235351562 334.2515869140625 206.69195556640625 C 342.44940185546875 226.70355224609375 346.54833984375 250.32830810546875 346.54833984375 277.5662841796875 C 346.54833984375 304.8043212890625 342.44940185546875 328.49853515625 334.2515869140625 348.64910888671875 C 326.1926574707031 368.66064453125 314.72955322265625 384.0863037109375 299.8622741699219 394.9259033203125 C 284.9949951171875 405.62652587890625 267.9739990234375 410.976806640625 248.79937744140625 410.976806640625 C 229.624755859375 410.976806640625 212.60379028320312 405.62652587890625 197.73648071289062 394.9259033203125 C 183.00814819335938 384.0863037109375 171.5450439453125 368.66064453125 163.34719848632812 348.64910888671875 C 155.28829956054688 328.49853515625 151.25885009765625 304.8043212890625 151.25885009765625 277.5662841796875 C 151.25885009765625 250.32830810546875 155.28829956054688 226.70355224609375 163.34719848632812 206.69195556640625 C 171.5450439453125 186.54141235351562 183.00814819335938 171.11581420898438 197.73648071289062 160.4151611328125 C 212.60379028320312 149.5755615234375 229.624755859375 144.15576171875 248.79937744140625 144.15576171875M 188.7744140625 277.5662841796875 C 188.7744140625 309.9461669921875 194.193359375 335.5164794921875 205.03118896484375 354.27734375 C 215.8690185546875 372.89923095703125 230.45843505859375 382.210205078125 248.79937744140625 382.210205078125 C 267.279296875 382.210205078125 281.8686828613281 372.89923095703125 292.56756591796875 354.27734375 C 303.4053955078125 335.5164794921875 308.8243408203125 309.9461669921875 308.8243408203125 277.5662841796875 C 308.8243408203125 245.18646240234375 303.4053955078125 219.68560791015625 292.56756591796875 201.06369018554688 C 281.8686828613281 182.30282592773438 267.279296875 172.92239379882812 248.79937744140625 172.92239379882812 C 230.45843505859375 172.92239379882812 215.8690185546875 182.30282592773438 205.03118896484375 201.06369018554688 C 194.193359375 219.68560791015625 188.7744140625 245.18646240234375 188.7744140625 277.5662841796875M 411.7838134765625 124.1441650390625 C 424.28900146484375 124.1441650390625 436.794189453125 124.1441650390625 449.29937744140625 124.1441650390625 C 449.29937744140625 241.920654296875 449.29937744140625 359.6971435546875 449.29937744140625 477.4736328125 C 436.794189453125 477.4736328125 424.28900146484375 477.4736328125 411.7838134765625 477.4736328125 C 411.7838134765625 359.6971435546875 411.7838134765625 241.920654296875 411.7838134765625 124.1441650390625"/>
  </g>
</svg>
