<?xml version="1.0" ?>
<svg xmlns="http://www.w3.org/2000/svg" version="1.1" width="600" height="600">
  <defs/>
  <g>
    <path stroke-width="0" fill="rgb(0, 0, 0)" opacity="1.0" d="M 238.9888916015625 425.8302001953125 C 222.4326171875 425.8302001953125 207.00830078125 422.36322021484375 192.7161865234375 415.42926025390625 C 178.424072265625 408.353759765625 166.9619140625 398.4481201171875 158.330078125 385.7122802734375 C 149.839599609375 372.9764404296875 145.594482421875 358.825439453125 145.594482421875 343.2593994140625 C 145.594482421875 327.693359375 149.839599609375 313.54248046875 158.330078125 300.8066101074219 C 166.9619140625 288.07073974609375 178.424072265625 278.23583984375 192.7161865234375 271.3018798828125 C 207.00830078125 264.2264404296875 222.4326171875 260.68865966796875 238.9888916015625 260.68865966796875 C 255.545166015625 260.68865966796875 270.969482421875 264.2264404296875 285.26171875 271.3018798828125 C 299.553955078125 278.23583984375 310.945068359375 288.07073974609375 319.435546875 300.8066101074219 C 327.926025390625 313.54248046875 332.171142578125 327.693359375 332.171142578125 343.2593994140625 C 332.171142578125 358.825439453125 327.926025390625 372.9764404296875 319.435546875 385.7122802734375 C 310.945068359375 398.4481201171875 299.553955078125 408.353759765625 285.26171875 415.42926025390625 C 270.969482421875 422.36322021484375 255.545166015625 425.8302001953125 238.9888916015625 425.8302001953125M 126.91552734375 194.88677978515625 C 200.286865234375 194.88677978515625 273.658203125 194.88677978515625 347.0294189453125 194.88677978515625 C 347.0294189453125 204.65093994140625 347.0294189453125 214.41510009765625 347.0294189453125 224.17926025390625 C 273.658203125 224.17926025390625 200.286865234375 224.17926025390625 126.91552734375 224.17926025390625 C 126.91552734375 214.41510009765625 126.91552734375 204.65093994140625 126.91552734375 194.88677978515625M 176.159912109375 138.42453002929688 C 216.630859375 138.42453002929688 257.101806640625 138.42453002929688 297.57275390625 138.42453002929688 C 297.57275390625 148.18869018554688 297.57275390625 157.95281982421875 297.57275390625 167.71697998046875 C 257.101806640625 167.71697998046875 216.630859375 167.71697998046875 176.159912109375 167.71697998046875 C 176.159912109375 157.95281982421875 176.159912109375 148.18869018554688 176.159912109375 138.42453002929688M 184.013427734375 343.2593994140625 C 184.013427734375 358.825439453125 189.1077880859375 371.632080078125 199.2962646484375 381.67926025390625 C 209.4847412109375 391.58489990234375 222.715576171875 396.5377197265625 238.9888916015625 396.5377197265625 C 255.26220703125 396.5377197265625 268.4931640625 391.58489990234375 278.681640625 381.67926025390625 C 288.8701171875 371.632080078125 293.96435546875 358.825439453125 293.96435546875 343.2593994140625 C 293.96435546875 327.693359375 288.8701171875 314.95751953125 278.681640625 305.0518798828125 C 268.4931640625 295.00469970703125 255.26220703125 289.98114013671875 238.9888916015625 289.98114013671875 C 222.715576171875 289.98114013671875 209.4847412109375 295.00469970703125 199.2962646484375 305.0518798828125 C 189.1077880859375 314.95751953125 184.013427734375 327.693359375 184.013427734375 343.2593994140625M 382.05224609375 120.1697998046875 C 394.7879638671875 120.1697998046875 407.5235595703125 120.1697998046875 420.2591552734375 120.1697998046875 C 420.2591552734375 167.71697998046875 420.2591552734375 215.26416015625 420.2591552734375 262.81134033203125 C 437.9476318359375 262.81134033203125 455.6358642578125 262.81134033203125 473.32421875 262.81134033203125 C 473.32421875 272.5754699707031 473.32421875 282.3396301269531 473.32421875 292.103759765625 C 455.6358642578125 292.103759765625 437.9476318359375 292.103759765625 420.2591552734375 292.103759765625 C 420.2591552734375 354.7216796875 420.2591552734375 417.339599609375 420.2591552734375 479.95751953125 C 407.5235595703125 479.95751953125 394.7879638671875 479.95751953125 382.05224609375 479.95751953125 C 382.05224609375 360.0283203125 382.05224609375 240.09906005859375 382.05224609375 120.1697998046875"/>
  </g>
</svg>
