<?xml version="1.0" encoding="utf-8"?>
<svg xmlns="http://www.w3.org/2000/svg" xmlns:ev="http://www.w3.org/2001/xml-events" xmlns:xlink="http://www.w3.org/1999/xlink" version="1.1" baseProfile="full" width="15392.0" height="1727.0" viewBox="102.0 -1568.0 15392.0 1727.0">
<defs/>
<g><path d="M 9139.000000 -128.000000 C 9067.666667 -128.000000 9002.666667 -143.666667 8944.000000 -175.000000 C 8886.000000 -207.000000 8840.333333 -252.666667 8807.000000 -312.000000 C 8773.666667 -371.333333 8757.000000 -439.666667 8757.000000 -517.000000 C 8757.000000 -594.333333 8773.666667 -662.666667 8807.000000 -722.000000 C 8840.333333 -781.333333 8886.000000 -826.666667 8944.000000 -858.000000 C 9002.666667 -890.000000 9067.666667 -906.000000 9139.000000 -906.000000 C 9211.000000 -906.000000 9276.000000 -890.000000 9334.000000 -858.000000 C 9392.000000 -826.666667 9437.666667 -781.333333 9471.000000 -722.000000 C 9504.333333 -662.666667 9521.000000 -594.333333 9521.000000 -517.000000 C 9521.000000 -439.666667 9504.333333 -371.333333 9471.000000 -312.000000 C 9437.666667 -252.666667 9392.000000 -207.000000 9334.000000 -175.000000 C 9276.000000 -143.666667 9211.000000 -128.000000 9139.000000 -128.000000z M 8698.000000 -1216.000000 C 8986.000000 -1216.000000 9274.000000 -1216.000000 9562.000000 -1216.000000 C 9562.000000 -1170.000000 9562.000000 -1124.000000 9562.000000 -1078.000000 C 9274.000000 -1078.000000 8986.000000 -1078.000000 8698.000000 -1078.000000 C 8698.000000 -1124.000000 8698.000000 -1170.000000 8698.000000 -1216.000000z M 8897.000000 -1482.000000 C 9052.000000 -1482.000000 9207.000000 -1482.000000 9362.000000 -1482.000000 C 9362.000000 -1436.000000 9362.000000 -1390.000000 9362.000000 -1344.000000 C 9207.000000 -1344.000000 9052.000000 -1344.000000 8897.000000 -1344.000000 C 8897.000000 -1390.000000 8897.000000 -1436.000000 8897.000000 -1482.000000z M 8934.000000 -517.000000 C 8934.000000 -443.666667 8953.000000 -383.333333 8991.000000 -336.000000 C 9029.666667 -289.333333 9079.000000 -266.000000 9139.000000 -266.000000 C 9199.000000 -266.000000 9248.333333 -289.333333 9287.000000 -336.000000 C 9325.666667 -383.333333 9345.000000 -443.666667 9345.000000 -517.000000 C 9345.000000 -590.333333 9325.666667 -650.333333 9287.000000 -697.000000 C 9248.333333 -744.333333 9199.000000 -768.000000 9139.000000 -768.000000 C 9079.000000 -768.000000 9029.666667 -744.333333 8991.000000 -697.000000 C 8953.000000 -650.333333 8934.000000 -590.333333 8934.000000 -517.000000z M 9667.000000 -1536.000000 C 9726.000000 -1536.000000 9785.000000 -1536.000000 9844.000000 -1536.000000 C 9844.000000 -1344.000000 9844.000000 -1152.000000 9844.000000 -960.000000 C 9910.000000 -960.000000 9976.000000 -960.000000 10042.000000 -960.000000 C 10042.000000 -1162.666667 10042.000000 -1365.333333 10042.000000 -1568.000000 C 10100.666667 -1568.000000 10159.333333 -1568.000000 10218.000000 -1568.000000 C 10218.000000 -1003.000000 10218.000000 -438.000000 10218.000000 127.000000 C 10159.333333 127.000000 10100.666667 127.000000 10042.000000 127.000000 C 10042.000000 -189.333333 10042.000000 -505.666667 10042.000000 -822.000000 C 9976.000000 -822.000000 9910.000000 -822.000000 9844.000000 -822.000000 C 9844.000000 -518.666667 9844.000000 -215.333333 9844.000000 88.000000 C 9785.000000 88.000000 9726.000000 88.000000 9667.000000 88.000000 C 9667.000000 -453.333333 9667.000000 -994.666667 9667.000000 -1536.000000z "/>
</g></svg>
