<?xml version="1.0" encoding="utf-8"?>
<svg xmlns="http://www.w3.org/2000/svg" xmlns:ev="http://www.w3.org/2001/xml-events" xmlns:xlink="http://www.w3.org/1999/xlink" version="1.1" baseProfile="full" width="8546.0" height="1727.0" viewBox="75.0 -1568.0 8546.0 1727.0">
<defs/>
<g><path d="M 75.000000 -741.000000 C 183.666667 -775.000000 288.666667 -821.333333 390.000000 -880.000000 C 492.000000 -938.666667 578.333333 -1006.000000 649.000000 -1082.000000 C 719.666667 -1158.000000 762.666667 -1237.000000 778.000000 -1319.000000 C 560.333333 -1319.000000 342.666667 -1319.000000 125.000000 -1319.000000 C 125.000000 -1370.000000 125.000000 -1421.000000 125.000000 -1472.000000 C 389.333333 -1472.000000 653.666667 -1472.000000 918.000000 -1472.000000 C 961.333333 -1472.000000 981.000000 -1449.000000 977.000000 -1403.000000 C 965.666667 -1224.333333 882.000000 -1066.666667 726.000000 -930.000000 C 570.666667 -793.333333 378.000000 -687.000000 148.000000 -611.000000 C 123.666667 -654.333333 99.333333 -697.666667 75.000000 -741.000000z M 323.000000 -512.000000 C 682.000000 -512.000000 1041.000000 -512.000000 1400.000000 -512.000000 C 1439.333333 -512.000000 1459.000000 -491.333333 1459.000000 -450.000000 C 1459.000000 -299.333333 1459.000000 -148.666667 1459.000000 2.000000 C 1459.000000 12.000000 1454.666667 22.666667 1446.000000 34.000000 C 1421.000000 60.333333 1396.000000 86.666667 1371.000000 113.000000 C 1361.000000 123.000000 1349.333333 128.000000 1336.000000 128.000000 C 1018.000000 128.000000 700.000000 128.000000 382.000000 128.000000 C 342.666667 128.000000 323.000000 107.666667 323.000000 67.000000 C 323.000000 -126.000000 323.000000 -319.000000 323.000000 -512.000000z M 1283.000000 -21.000000 C 1283.000000 -135.000000 1283.000000 -249.000000 1283.000000 -363.000000 C 1021.666667 -363.000000 760.333333 -363.000000 499.000000 -363.000000 C 499.000000 -249.000000 499.000000 -135.000000 499.000000 -21.000000 C 760.333333 -21.000000 1021.666667 -21.000000 1283.000000 -21.000000z M 1279.000000 -1568.000000 C 1339.000000 -1568.000000 1399.000000 -1568.000000 1459.000000 -1568.000000 C 1459.000000 -1437.666667 1459.000000 -1307.333333 1459.000000 -1177.000000 C 1542.333333 -1177.000000 1625.666667 -1177.000000 1709.000000 -1177.000000 C 1709.000000 -1126.000000 1709.000000 -1075.000000 1709.000000 -1024.000000 C 1625.666667 -1024.000000 1542.333333 -1024.000000 1459.000000 -1024.000000 C 1459.000000 -884.333333 1459.000000 -744.666667 1459.000000 -605.000000 C 1399.000000 -605.000000 1339.000000 -605.000000 1279.000000 -605.000000 C 1279.000000 -926.000000 1279.000000 -1247.000000 1279.000000 -1568.000000z "/>
</g></svg>
