<?xml version="1.0" encoding="utf-8"?>
<svg xmlns="http://www.w3.org/2000/svg" xmlns:ev="http://www.w3.org/2001/xml-events" xmlns:xlink="http://www.w3.org/1999/xlink" version="1.1" baseProfile="full" width="15392.0" height="1727.0" viewBox="102.0 -1568.0 15392.0 1727.0">
<defs/>
<g><path d="M 570.000000 -1472.000000 C 662.000000 -1472.000000 743.666667 -1446.000000 815.000000 -1394.000000 C 886.333333 -1342.666667 941.333333 -1268.666667 980.000000 -1172.000000 C 1019.333333 -1076.000000 1039.000000 -962.666667 1039.000000 -832.000000 C 1039.000000 -701.333333 1019.333333 -587.666667 980.000000 -491.000000 C 941.333333 -395.000000 886.333333 -321.000000 815.000000 -269.000000 C 743.666667 -217.666667 662.000000 -192.000000 570.000000 -192.000000 C 478.000000 -192.000000 396.333333 -217.666667 325.000000 -269.000000 C 254.333333 -321.000000 199.333333 -395.000000 160.000000 -491.000000 C 121.333333 -587.666667 102.000000 -701.333333 102.000000 -832.000000 C 102.000000 -962.666667 121.333333 -1076.000000 160.000000 -1172.000000 C 199.333333 -1268.666667 254.333333 -1342.666667 325.000000 -1394.000000 C 396.333333 -1446.000000 478.000000 -1472.000000 570.000000 -1472.000000z M 282.000000 -832.000000 C 282.000000 -676.666667 308.000000 -554.000000 360.000000 -464.000000 C 412.000000 -374.666667 482.000000 -330.000000 570.000000 -330.000000 C 658.666667 -330.000000 728.666667 -374.666667 780.000000 -464.000000 C 832.000000 -554.000000 858.000000 -676.666667 858.000000 -832.000000 C 858.000000 -987.333333 832.000000 -1109.666667 780.000000 -1199.000000 C 728.666667 -1289.000000 658.666667 -1334.000000 570.000000 -1334.000000 C 482.000000 -1334.000000 412.000000 -1289.000000 360.000000 -1199.000000 C 308.000000 -1109.666667 282.000000 -987.333333 282.000000 -832.000000z M 1352.000000 -1568.000000 C 1412.000000 -1568.000000 1472.000000 -1568.000000 1532.000000 -1568.000000 C 1532.000000 -1003.000000 1532.000000 -438.000000 1532.000000 127.000000 C 1472.000000 127.000000 1412.000000 127.000000 1352.000000 127.000000 C 1352.000000 -438.000000 1352.000000 -1003.000000 1352.000000 -1568.000000z "/>
</g>
<g><path d="M 1951.000000 -832.000000 C 1934.333333 -832.000000 1920.000000 -837.333333 1908.000000 -848.000000 C 1896.666667 -859.333333 1891.000000 -873.000000 1891.000000 -889.000000 C 1891.000000 -994.666667 1891.000000 -1100.333333 1891.000000 -1206.000000 C 1891.000000 -1211.333333 1893.666667 -1216.000000 1899.000000 -1220.000000 C 1905.000000 -1224.000000 1912.000000 -1226.000000 1920.000000 -1226.000000 C 2107.666667 -1226.000000 2295.333333 -1226.000000 2483.000000 -1226.000000 C 2483.000000 -1283.333333 2483.000000 -1340.666667 2483.000000 -1398.000000 C 2282.666667 -1398.000000 2082.333333 -1398.000000 1882.000000 -1398.000000 C 1882.000000 -1444.000000 1882.000000 -1490.000000 1882.000000 -1536.000000 C 2121.333333 -1536.000000 2360.666667 -1536.000000 2600.000000 -1536.000000 C 2616.666667 -1536.000000 2630.666667 -1530.333333 2642.000000 -1519.000000 C 2653.333333 -1507.666667 2659.000000 -1493.666667 2659.000000 -1477.000000 C 2659.000000 -1367.000000 2659.000000 -1257.000000 2659.000000 -1147.000000 C 2659.000000 -1131.000000 2656.000000 -1117.000000 2650.000000 -1105.000000 C 2644.666667 -1093.666667 2638.000000 -1088.000000 2630.000000 -1088.000000 C 2442.666667 -1088.000000 2255.333333 -1088.000000 2068.000000 -1088.000000 C 2068.000000 -1048.666667 2068.000000 -1009.333333 2068.000000 -970.000000 C 2323.333333 -970.000000 2578.666667 -970.000000 2834.000000 -970.000000 C 2834.000000 -924.000000 2834.000000 -878.000000 2834.000000 -832.000000 C 2539.666667 -832.000000 2245.333333 -832.000000 1951.000000 -832.000000z M 2070.000000 -458.000000 C 2473.000000 -458.000000 2876.000000 -458.000000 3279.000000 -458.000000 C 3279.000000 -412.000000 3279.000000 -366.000000 3279.000000 -320.000000 C 2876.000000 -320.000000 2473.000000 -320.000000 2070.000000 -320.000000 C 2070.000000 -366.000000 2070.000000 -412.000000 2070.000000 -458.000000z M 2168.000000 -69.000000 C 2168.000000 -143.666667 2211.000000 -195.000000 2297.000000 -223.000000 C 2383.666667 -251.666667 2509.666667 -266.000000 2675.000000 -266.000000 C 2839.666667 -266.000000 2965.000000 -251.666667 3051.000000 -223.000000 C 3137.666667 -195.000000 3181.000000 -143.666667 3181.000000 -69.000000 C 3181.000000 5.666667 3137.666667 57.000000 3051.000000 85.000000 C 2965.000000 113.666667 2839.666667 128.000000 2675.000000 128.000000 C 2509.666667 128.000000 2383.666667 113.666667 2297.000000 85.000000 C 2211.000000 57.000000 2168.000000 5.666667 2168.000000 -69.000000z M 2344.000000 -704.000000 C 2564.333333 -704.000000 2784.666667 -704.000000 3005.000000 -704.000000 C 3005.000000 -658.000000 3005.000000 -612.000000 3005.000000 -566.000000 C 2784.666667 -566.000000 2564.333333 -566.000000 2344.000000 -566.000000 C 2344.000000 -612.000000 2344.000000 -658.000000 2344.000000 -704.000000z M 2348.000000 -69.000000 C 2348.000000 -47.000000 2374.666667 -31.666667 2428.000000 -23.000000 C 2481.333333 -14.333333 2563.666667 -10.000000 2675.000000 -10.000000 C 2786.333333 -10.000000 2868.333333 -14.333333 2921.000000 -23.000000 C 2974.333333 -31.666667 3001.000000 -47.000000 3001.000000 -69.000000 C 3001.000000 -91.000000 2974.333333 -106.333333 2921.000000 -115.000000 C 2868.333333 -123.666667 2786.333333 -128.000000 2675.000000 -128.000000 C 2563.666667 -128.000000 2481.333333 -123.666667 2428.000000 -115.000000 C 2374.666667 -106.333333 2348.000000 -91.000000 2348.000000 -69.000000z M 2730.000000 -1280.000000 C 2846.666667 -1280.000000 2963.333333 -1280.000000 3080.000000 -1280.000000 C 3080.000000 -1376.000000 3080.000000 -1472.000000 3080.000000 -1568.000000 C 3140.000000 -1568.000000 3200.000000 -1568.000000 3260.000000 -1568.000000 C 3260.000000 -1302.000000 3260.000000 -1036.000000 3260.000000 -770.000000 C 3200.000000 -770.000000 3140.000000 -770.000000 3080.000000 -770.000000 C 3080.000000 -894.000000 3080.000000 -1018.000000 3080.000000 -1142.000000 C 2963.333333 -1142.000000 2846.666667 -1142.000000 2730.000000 -1142.000000 C 2730.000000 -1188.000000 2730.000000 -1234.000000 2730.000000 -1280.000000z "/>
</g>
<g><path d="M 3510.000000 -332.000000 C 3681.333333 -426.666667 3819.000000 -550.000000 3923.000000 -702.000000 C 4027.666667 -854.666667 4082.000000 -1038.666667 4086.000000 -1254.000000 C 3912.333333 -1254.000000 3738.666667 -1254.000000 3565.000000 -1254.000000 C 3565.000000 -1305.333333 3565.000000 -1356.666667 3565.000000 -1408.000000 C 3780.333333 -1408.000000 3995.666667 -1408.000000 4211.000000 -1408.000000 C 4236.333333 -1408.000000 4252.666667 -1399.000000 4260.000000 -1381.000000 C 4268.000000 -1363.000000 4270.666667 -1330.666667 4268.000000 -1284.000000 C 4260.666667 -1087.333333 4225.000000 -919.666667 4161.000000 -781.000000 C 4097.000000 -643.000000 4018.666667 -530.333333 3926.000000 -443.000000 C 3834.000000 -356.333333 3728.000000 -277.000000 3608.000000 -205.000000 C 3575.333333 -247.333333 3542.666667 -289.666667 3510.000000 -332.000000z M 4249.000000 -922.000000 C 4333.333333 -922.000000 4417.666667 -922.000000 4502.000000 -922.000000 C 4502.000000 -1126.666667 4502.000000 -1331.333333 4502.000000 -1536.000000 C 4561.000000 -1536.000000 4620.000000 -1536.000000 4679.000000 -1536.000000 C 4679.000000 -994.666667 4679.000000 -453.333333 4679.000000 88.000000 C 4620.000000 88.000000 4561.000000 88.000000 4502.000000 88.000000 C 4502.000000 -197.333333 4502.000000 -482.666667 4502.000000 -768.000000 C 4417.666667 -768.000000 4333.333333 -768.000000 4249.000000 -768.000000 C 4249.000000 -819.333333 4249.000000 -870.666667 4249.000000 -922.000000z M 4858.000000 -1568.000000 C 4916.666667 -1568.000000 4975.333333 -1568.000000 5034.000000 -1568.000000 C 5034.000000 -1003.000000 5034.000000 -438.000000 5034.000000 127.000000 C 4975.333333 127.000000 4916.666667 127.000000 4858.000000 127.000000 C 4858.000000 -438.000000 4858.000000 -1003.000000 4858.000000 -1568.000000z "/>
</g>
<g><path d="M 6154.000000 -766.000000 C 6154.000000 -747.333333 6148.333333 -732.333333 6137.000000 -721.000000 C 6126.333333 -709.666667 6112.000000 -704.000000 6094.000000 -704.000000 C 5855.333333 -704.000000 5616.666667 -704.000000 5378.000000 -704.000000 C 5360.000000 -704.000000 5345.333333 -709.666667 5334.000000 -721.000000 C 5323.333333 -732.333333 5318.000000 -747.333333 5318.000000 -766.000000 C 5318.000000 -1012.000000 5318.000000 -1258.000000 5318.000000 -1504.000000 C 5377.000000 -1504.000000 5436.000000 -1504.000000 5495.000000 -1504.000000 C 5495.000000 -1416.666667 5495.000000 -1329.333333 5495.000000 -1242.000000 C 5655.666667 -1242.000000 5816.333333 -1242.000000 5977.000000 -1242.000000 C 5977.000000 -1329.333333 5977.000000 -1416.666667 5977.000000 -1504.000000 C 6036.000000 -1504.000000 6095.000000 -1504.000000 6154.000000 -1504.000000 C 6154.000000 -1258.000000 6154.000000 -1012.000000 6154.000000 -766.000000z M 5977.000000 -858.000000 C 5977.000000 -934.666667 5977.000000 -1011.333333 5977.000000 -1088.000000 C 5816.333333 -1088.000000 5655.666667 -1088.000000 5495.000000 -1088.000000 C 5495.000000 -1011.333333 5495.000000 -934.666667 5495.000000 -858.000000 C 5655.666667 -858.000000 5816.333333 -858.000000 5977.000000 -858.000000z M 5507.000000 -501.000000 C 5567.000000 -501.000000 5627.000000 -501.000000 5687.000000 -501.000000 C 5687.000000 -447.666667 5687.000000 -394.333333 5687.000000 -341.000000 C 5945.666667 -341.000000 6204.333333 -341.000000 6463.000000 -341.000000 C 6463.000000 -394.333333 6463.000000 -447.666667 6463.000000 -501.000000 C 6523.000000 -501.000000 6583.000000 -501.000000 6643.000000 -501.000000 C 6643.000000 -333.333333 6643.000000 -165.666667 6643.000000 2.000000 C 6643.000000 12.000000 6638.666667 22.666667 6630.000000 34.000000 C 6605.000000 60.333333 6580.000000 86.666667 6555.000000 113.000000 C 6545.000000 123.000000 6533.333333 128.000000 6520.000000 128.000000 C 6203.333333 128.000000 5886.666667 128.000000 5570.000000 128.000000 C 5552.000000 128.000000 5537.000000 122.666667 5525.000000 112.000000 C 5513.000000 101.333333 5507.000000 87.000000 5507.000000 69.000000 C 5507.000000 -121.000000 5507.000000 -311.000000 5507.000000 -501.000000z M 6463.000000 -21.000000 C 6463.000000 -78.000000 6463.000000 -135.000000 6463.000000 -192.000000 C 6204.333333 -192.000000 5945.666667 -192.000000 5687.000000 -192.000000 C 5687.000000 -135.000000 5687.000000 -78.000000 5687.000000 -21.000000 C 5945.666667 -21.000000 6204.333333 -21.000000 6463.000000 -21.000000z M 6463.000000 -1568.000000 C 6523.000000 -1568.000000 6583.000000 -1568.000000 6643.000000 -1568.000000 C 6643.000000 -1438.000000 6643.000000 -1308.000000 6643.000000 -1178.000000 C 6726.333333 -1178.000000 6809.666667 -1178.000000 6893.000000 -1178.000000 C 6893.000000 -1126.666667 6893.000000 -1075.333333 6893.000000 -1024.000000 C 6809.666667 -1024.000000 6726.333333 -1024.000000 6643.000000 -1024.000000 C 6643.000000 -881.666667 6643.000000 -739.333333 6643.000000 -597.000000 C 6583.000000 -597.000000 6523.000000 -597.000000 6463.000000 -597.000000 C 6463.000000 -920.666667 6463.000000 -1244.333333 6463.000000 -1568.000000z "/>
</g>
<g><path d="M 7770.000000 -960.000000 C 7566.666667 -960.000000 7411.000000 -982.666667 7303.000000 -1028.000000 C 7195.666667 -1073.333333 7142.000000 -1146.666667 7142.000000 -1248.000000 C 7142.000000 -1349.333333 7195.666667 -1422.666667 7303.000000 -1468.000000 C 7411.000000 -1513.333333 7566.666667 -1536.000000 7770.000000 -1536.000000 C 7974.000000 -1536.000000 8129.666667 -1513.333333 8237.000000 -1468.000000 C 8344.333333 -1422.666667 8398.000000 -1349.333333 8398.000000 -1248.000000 C 8398.000000 -1146.666667 8344.333333 -1073.333333 8237.000000 -1028.000000 C 8129.666667 -982.666667 7974.000000 -960.000000 7770.000000 -960.000000z M 6970.000000 -832.000000 C 7507.333333 -832.000000 8044.666667 -832.000000 8582.000000 -832.000000 C 8582.000000 -786.000000 8582.000000 -740.000000 8582.000000 -694.000000 C 8044.666667 -694.000000 7507.333333 -694.000000 6970.000000 -694.000000 C 6970.000000 -740.000000 6970.000000 -786.000000 6970.000000 -832.000000z M 7169.000000 -522.000000 C 7550.000000 -522.000000 7931.000000 -522.000000 8312.000000 -522.000000 C 8328.666667 -522.000000 8342.666667 -516.333333 8354.000000 -505.000000 C 8365.333333 -493.666667 8371.000000 -480.000000 8371.000000 -464.000000 C 8371.000000 -361.333333 8371.000000 -258.666667 8371.000000 -156.000000 C 8371.000000 -148.666667 8368.000000 -142.000000 8362.000000 -136.000000 C 8356.666667 -130.666667 8350.000000 -128.000000 8342.000000 -128.000000 C 8013.333333 -128.000000 7684.666667 -128.000000 7356.000000 -128.000000 C 7356.000000 -88.666667 7356.000000 -49.333333 7356.000000 -10.000000 C 7704.000000 -10.000000 8052.000000 -10.000000 8400.000000 -10.000000 C 8400.000000 36.000000 8400.000000 82.000000 8400.000000 128.000000 C 8012.666667 128.000000 7625.333333 128.000000 7238.000000 128.000000 C 7221.333333 128.000000 7207.333333 122.333333 7196.000000 111.000000 C 7184.666667 99.666667 7179.000000 85.666667 7179.000000 69.000000 C 7179.000000 -33.000000 7179.000000 -135.000000 7179.000000 -237.000000 C 7179.000000 -245.000000 7181.666667 -251.666667 7187.000000 -257.000000 C 7193.000000 -263.000000 7200.000000 -266.000000 7208.000000 -266.000000 C 7537.000000 -266.000000 7866.000000 -266.000000 8195.000000 -266.000000 C 8195.000000 -305.333333 8195.000000 -344.666667 8195.000000 -384.000000 C 7853.000000 -384.000000 7511.000000 -384.000000 7169.000000 -384.000000 C 7169.000000 -430.000000 7169.000000 -476.000000 7169.000000 -522.000000z M 7323.000000 -1248.000000 C 7323.000000 -1194.000000 7363.666667 -1155.333333 7445.000000 -1132.000000 C 7526.333333 -1109.333333 7634.666667 -1098.000000 7770.000000 -1098.000000 C 7906.000000 -1098.000000 8014.666667 -1109.333333 8096.000000 -1132.000000 C 8177.333333 -1155.333333 8218.000000 -1194.000000 8218.000000 -1248.000000 C 8218.000000 -1302.000000 8177.333333 -1340.333333 8096.000000 -1363.000000 C 8014.666667 -1386.333333 7906.000000 -1398.000000 7770.000000 -1398.000000 C 7634.666667 -1398.000000 7526.333333 -1386.333333 7445.000000 -1363.000000 C 7363.666667 -1340.333333 7323.000000 -1302.000000 7323.000000 -1248.000000z "/>
</g>
<g><path d="M 9139.000000 -128.000000 C 9067.666667 -128.000000 9002.666667 -143.666667 8944.000000 -175.000000 C 8886.000000 -207.000000 8840.333333 -252.666667 8807.000000 -312.000000 C 8773.666667 -371.333333 8757.000000 -439.666667 8757.000000 -517.000000 C 8757.000000 -594.333333 8773.666667 -662.666667 8807.000000 -722.000000 C 8840.333333 -781.333333 8886.000000 -826.666667 8944.000000 -858.000000 C 9002.666667 -890.000000 9067.666667 -906.000000 9139.000000 -906.000000 C 9211.000000 -906.000000 9276.000000 -890.000000 9334.000000 -858.000000 C 9392.000000 -826.666667 9437.666667 -781.333333 9471.000000 -722.000000 C 9504.333333 -662.666667 9521.000000 -594.333333 9521.000000 -517.000000 C 9521.000000 -439.666667 9504.333333 -371.333333 9471.000000 -312.000000 C 9437.666667 -252.666667 9392.000000 -207.000000 9334.000000 -175.000000 C 9276.000000 -143.666667 9211.000000 -128.000000 9139.000000 -128.000000z M 8698.000000 -1216.000000 C 8986.000000 -1216.000000 9274.000000 -1216.000000 9562.000000 -1216.000000 C 9562.000000 -1170.000000 9562.000000 -1124.000000 9562.000000 -1078.000000 C 9274.000000 -1078.000000 8986.000000 -1078.000000 8698.000000 -1078.000000 C 8698.000000 -1124.000000 8698.000000 -1170.000000 8698.000000 -1216.000000z M 8897.000000 -1482.000000 C 9052.000000 -1482.000000 9207.000000 -1482.000000 9362.000000 -1482.000000 C 9362.000000 -1436.000000 9362.000000 -1390.000000 9362.000000 -1344.000000 C 9207.000000 -1344.000000 9052.000000 -1344.000000 8897.000000 -1344.000000 C 8897.000000 -1390.000000 8897.000000 -1436.000000 8897.000000 -1482.000000z M 8934.000000 -517.000000 C 8934.000000 -443.666667 8953.000000 -383.333333 8991.000000 -336.000000 C 9029.666667 -289.333333 9079.000000 -266.000000 9139.000000 -266.000000 C 9199.000000 -266.000000 9248.333333 -289.333333 9287.000000 -336.000000 C 9325.666667 -383.333333 9345.000000 -443.666667 9345.000000 -517.000000 C 9345.000000 -590.333333 9325.666667 -650.333333 9287.000000 -697.000000 C 9248.333333 -744.333333 9199.000000 -768.000000 9139.000000 -768.000000 C 9079.000000 -768.000000 9029.666667 -744.333333 8991.000000 -697.000000 C 8953.000000 -650.333333 8934.000000 -590.333333 8934.000000 -517.000000z M 9667.000000 -1536.000000 C 9726.000000 -1536.000000 9785.000000 -1536.000000 9844.000000 -1536.000000 C 9844.000000 -1344.000000 9844.000000 -1152.000000 9844.000000 -960.000000 C 9910.000000 -960.000000 9976.000000 -960.000000 10042.000000 -960.000000 C 10042.000000 -1162.666667 10042.000000 -1365.333333 10042.000000 -1568.000000 C 10100.666667 -1568.000000 10159.333333 -1568.000000 10218.000000 -1568.000000 C 10218.000000 -1003.000000 10218.000000 -438.000000 10218.000000 127.000000 C 10159.333333 127.000000 10100.666667 127.000000 10042.000000 127.000000 C 10042.000000 -189.333333 10042.000000 -505.666667 10042.000000 -822.000000 C 9976.000000 -822.000000 9910.000000 -822.000000 9844.000000 -822.000000 C 9844.000000 -518.666667 9844.000000 -215.333333 9844.000000 88.000000 C 9785.000000 88.000000 9726.000000 88.000000 9667.000000 88.000000 C 9667.000000 -453.333333 9667.000000 -994.666667 9667.000000 -1536.000000z "/>
</g>
<g><path d="M 10610.000000 -1418.000000 C 11015.666667 -1418.000000 11421.333333 -1418.000000 11827.000000 -1418.000000 C 11827.000000 -1372.000000 11827.000000 -1326.000000 11827.000000 -1280.000000 C 11658.666667 -1280.000000 11490.333333 -1280.000000 11322.000000 -1280.000000 C 11314.666667 -1230.000000 11298.000000 -1179.333333 11272.000000 -1128.000000 C 11327.333333 -1070.666667 11415.333333 -1011.333333 11536.000000 -950.000000 C 11657.333333 -889.333333 11788.333333 -841.333333 11929.000000 -806.000000 C 11899.666667 -755.666667 11870.333333 -705.333333 11841.000000 -655.000000 C 11709.000000 -686.333333 11578.666667 -735.666667 11450.000000 -803.000000 C 11321.333333 -870.333333 11229.333333 -932.666667 11174.000000 -990.000000 C 11101.333333 -906.666667 11012.000000 -831.666667 10906.000000 -765.000000 C 10800.666667 -699.000000 10699.333333 -648.333333 10602.000000 -613.000000 C 10569.333333 -660.666667 10536.666667 -708.333333 10504.000000 -756.000000 C 10597.333333 -787.333333 10689.000000 -829.333333 10779.000000 -882.000000 C 10869.666667 -934.666667 10947.666667 -995.666667 11013.000000 -1065.000000 C 11078.333333 -1134.333333 11120.000000 -1206.000000 11138.000000 -1280.000000 C 10962.000000 -1280.000000 10786.000000 -1280.000000 10610.000000 -1280.000000 C 10610.000000 -1326.000000 10610.000000 -1372.000000 10610.000000 -1418.000000z M 10426.000000 -458.000000 C 10963.333333 -458.000000 11500.666667 -458.000000 12038.000000 -458.000000 C 12038.000000 -412.000000 12038.000000 -366.000000 12038.000000 -320.000000 C 11799.333333 -320.000000 11560.666667 -320.000000 11322.000000 -320.000000 C 11322.000000 -160.333333 11322.000000 -0.666667 11322.000000 159.000000 C 11262.000000 159.000000 11202.000000 159.000000 11142.000000 159.000000 C 11142.000000 -0.666667 11142.000000 -160.333333 11142.000000 -320.000000 C 10903.333333 -320.000000 10664.666667 -320.000000 10426.000000 -320.000000 C 10426.000000 -366.000000 10426.000000 -412.000000 10426.000000 -458.000000z "/>
</g>
<g><path d="M 12115.000000 -279.000000 C 12197.000000 -377.000000 12265.000000 -473.333333 12319.000000 -568.000000 C 12373.666667 -663.333333 12419.333333 -781.666667 12456.000000 -923.000000 C 12492.666667 -1064.333333 12515.333333 -1236.666667 12524.000000 -1440.000000 C 12584.333333 -1440.000000 12644.666667 -1440.000000 12705.000000 -1440.000000 C 12695.666667 -1263.333333 12675.000000 -1101.000000 12643.000000 -953.000000 C 12663.666667 -849.666667 12713.666667 -735.333333 12793.000000 -610.000000 C 12872.333333 -485.333333 12953.666667 -386.666667 13037.000000 -314.000000 C 12996.000000 -275.000000 12955.000000 -236.000000 12914.000000 -197.000000 C 12846.000000 -256.333333 12779.000000 -332.333333 12713.000000 -425.000000 C 12647.000000 -518.333333 12598.000000 -605.333333 12566.000000 -686.000000 C 12500.000000 -506.666667 12397.666667 -337.000000 12259.000000 -177.000000 C 12211.000000 -211.000000 12163.000000 -245.000000 12115.000000 -279.000000z M 12851.000000 -985.000000 C 12948.000000 -985.000000 13045.000000 -985.000000 13142.000000 -985.000000 C 13142.000000 -1168.666667 13142.000000 -1352.333333 13142.000000 -1536.000000 C 13199.666667 -1536.000000 13257.333333 -1536.000000 13315.000000 -1536.000000 C 13315.000000 -994.666667 13315.000000 -453.333333 13315.000000 88.000000 C 13257.333333 88.000000 13199.666667 88.000000 13142.000000 88.000000 C 13142.000000 -218.666667 13142.000000 -525.333333 13142.000000 -832.000000 C 13045.000000 -832.000000 12948.000000 -832.000000 12851.000000 -832.000000 C 12851.000000 -883.000000 12851.000000 -934.000000 12851.000000 -985.000000z M 13501.000000 -1568.000000 C 13558.666667 -1568.000000 13616.333333 -1568.000000 13674.000000 -1568.000000 C 13674.000000 -1003.000000 13674.000000 -438.000000 13674.000000 127.000000 C 13616.333333 127.000000 13558.666667 127.000000 13501.000000 127.000000 C 13501.000000 -438.000000 13501.000000 -1003.000000 13501.000000 -1568.000000z "/>
</g>
<g><path d="M 14682.000000 -566.000000 C 14606.666667 -566.000000 14539.666667 -571.666667 14481.000000 -583.000000 C 14481.000000 -470.666667 14481.000000 -358.333333 14481.000000 -246.000000 C 14619.000000 -246.000000 14757.000000 -246.000000 14895.000000 -246.000000 C 14895.000000 -359.000000 14895.000000 -472.000000 14895.000000 -585.000000 C 14827.666667 -572.333333 14756.666667 -566.000000 14682.000000 -566.000000z M 13882.000000 -246.000000 C 14021.333333 -246.000000 14160.666667 -246.000000 14300.000000 -246.000000 C 14300.000000 -377.000000 14300.000000 -508.000000 14300.000000 -639.000000 C 14220.666667 -679.000000 14159.666667 -731.000000 14117.000000 -795.000000 C 14075.000000 -859.666667 14054.000000 -933.333333 14054.000000 -1016.000000 C 14054.000000 -1106.666667 14079.333333 -1186.000000 14130.000000 -1254.000000 C 14180.666667 -1322.666667 14253.333333 -1376.000000 14348.000000 -1414.000000 C 14442.666667 -1452.666667 14554.000000 -1472.000000 14682.000000 -1472.000000 C 14810.000000 -1472.000000 14921.333333 -1452.666667 15016.000000 -1414.000000 C 15110.666667 -1376.000000 15183.333333 -1322.666667 15234.000000 -1254.000000 C 15284.666667 -1185.333333 15310.000000 -1106.000000 15310.000000 -1016.000000 C 15310.000000 -935.333333 15289.666667 -863.000000 15249.000000 -799.000000 C 15209.000000 -735.666667 15151.333333 -684.000000 15076.000000 -644.000000 C 15076.000000 -511.333333 15076.000000 -378.666667 15076.000000 -246.000000 C 15215.333333 -246.000000 15354.666667 -246.000000 15494.000000 -246.000000 C 15494.000000 -185.333333 15494.000000 -124.666667 15494.000000 -64.000000 C 14956.666667 -64.000000 14419.333333 -64.000000 13882.000000 -64.000000 C 13882.000000 -124.666667 13882.000000 -185.333333 13882.000000 -246.000000z M 14235.000000 -1019.000000 C 14235.000000 -953.666667 14254.666667 -897.333333 14294.000000 -850.000000 C 14334.000000 -802.666667 14387.666667 -766.333333 14455.000000 -741.000000 C 14523.000000 -716.333333 14598.666667 -704.000000 14682.000000 -704.000000 C 14765.333333 -704.000000 14841.000000 -716.333333 14909.000000 -741.000000 C 14977.000000 -766.333333 15030.666667 -802.666667 15070.000000 -850.000000 C 15110.000000 -897.333333 15130.000000 -953.666667 15130.000000 -1019.000000 C 15130.000000 -1084.333333 15110.000000 -1140.666667 15070.000000 -1188.000000 C 15030.666667 -1235.333333 14977.000000 -1271.333333 14909.000000 -1296.000000 C 14841.000000 -1321.333333 14765.333333 -1334.000000 14682.000000 -1334.000000 C 14598.666667 -1334.000000 14523.000000 -1321.333333 14455.000000 -1296.000000 C 14387.666667 -1271.333333 14334.000000 -1235.333333 14294.000000 -1188.000000 C 14254.666667 -1140.666667 14235.000000 -1084.333333 14235.000000 -1019.000000z "/>
</g>
</svg>
