<?xml version="1.0" ?>
<svg xmlns="http://www.w3.org/2000/svg" version="1.1" width="600" height="600">
  <defs/>
  <g>
    <path stroke-width="0" fill="rgb(0, 0, 0)" opacity="1.0" d="M 138.0078125 392.84130859375 C 155.098388671875 372.412841796875 169.270751953125 352.331787109375 180.525634765625 332.59814453125 C 191.919189453125 312.72552490234375 201.43701171875 288.0584716796875 209.0791015625 258.59698486328125 C 216.72119140625 229.135498046875 221.4453125 193.21194458007812 223.251708984375 150.8262939453125 C 235.826171875 150.8262939453125 248.401123046875 150.8262939453125 260.9755859375 150.8262939453125 C 259.030517578125 187.65313720703125 254.72314453125 221.4921875 248.0537109375 252.3433837890625 C 252.361083984375 273.88360595703125 262.781982421875 297.71685791015625 279.316650390625 323.84307861328125 C 295.85107421875 349.830322265625 312.802734375 370.3978271484375 330.171142578125 385.54547119140625 C 321.625732421875 393.6751708984375 313.08056640625 401.80487060546875 304.535400390625 409.9345703125 C 290.36279296875 397.5662841796875 276.398681640625 381.7237548828125 262.64306640625 362.4071044921875 C 248.88720703125 342.95135498046875 238.6748046875 324.81585693359375 232.00537109375 308.0006103515625 C 218.24951171875 345.38330078125 196.92138671875 380.7509765625 168.020263671875 414.1036376953125 C 158.01611328125 407.0162353515625 148.011962890625 399.92877197265625 138.0078125 392.84130859375M 291.405029296875 245.6728515625 C 311.62158203125 245.6728515625 331.83837890625 245.6728515625 352.05517578125 245.6728515625 C 352.05517578125 207.38681030273438 352.05517578125 169.10073852539062 352.05517578125 130.814697265625 C 364.07421875 130.814697265625 376.0927734375 130.814697265625 388.11181640625 130.814697265625 C 388.11181640625 243.65777587890625 388.11181640625 356.5008544921875 388.11181640625 469.34393310546875 C 376.0927734375 469.34393310546875 364.07421875 469.34393310546875 352.05517578125 469.34393310546875 C 352.05517578125 405.4180908203125 352.05517578125 341.4921875 352.05517578125 277.5662841796875 C 331.83837890625 277.5662841796875 311.62158203125 277.5662841796875 291.405029296875 277.5662841796875 C 291.405029296875 266.9351501464844 291.405029296875 256.30401611328125 291.405029296875 245.6728515625M 426.8779296875 124.1441650390625 C 438.89697265625 124.1441650390625 450.91552734375 124.1441650390625 462.9345703125 124.1441650390625 C 462.9345703125 241.920654296875 462.9345703125 359.6971435546875 462.9345703125 477.4736328125 C 450.91552734375 477.4736328125 438.89697265625 477.4736328125 426.8779296875 477.4736328125 C 426.8779296875 359.6971435546875 426.8779296875 241.920654296875 426.8779296875 124.1441650390625"/>
  </g>
</svg>
