<?xml version="1.0" ?>
<svg xmlns="http://www.w3.org/2000/svg" version="1.1" width="600" height="600">
  <defs/>
  <g>
    <path stroke-width="0" fill="rgb(0, 0, 0)" opacity="1.0" d="M 310.616455078125 291.32427978515625 C 310.616455078125 295.21539306640625 309.4354248046875 298.34222412109375 307.0733642578125 300.7046813964844 C 304.8502197265625 303.067138671875 301.86279296875 304.2484130859375 298.1112060546875 304.2484130859375 C 248.368408203125 304.2484130859375 198.62548828125 304.2484130859375 148.882568359375 304.2484130859375 C 145.1309814453125 304.2484130859375 142.07421875 303.067138671875 139.7120361328125 300.7046813964844 C 137.489013671875 298.34222412109375 136.3773193359375 295.21539306640625 136.3773193359375 291.32427978515625 C 136.3773193359375 240.04458618164062 136.3773193359375 188.76492309570312 136.3773193359375 137.4852294921875 C 148.6741943359375 137.4852294921875 160.970947265625 137.4852294921875 173.2677001953125 137.4852294921875 C 173.2677001953125 155.69021606445312 173.2677001953125 173.89517211914062 173.2677001953125 192.10015869140625 C 206.7537841796875 192.10015869140625 240.239990234375 192.10015869140625 273.72607421875 192.10015869140625 C 273.72607421875 173.89517211914062 273.72607421875 155.69021606445312 273.72607421875 137.4852294921875 C 286.02294921875 137.4852294921875 298.3197021484375 137.4852294921875 310.616455078125 137.4852294921875 C 310.616455078125 188.76492309570312 310.616455078125 240.04458618164062 310.616455078125 291.32427978515625M 273.72607421875 272.146484375 C 273.72607421875 256.1650390625 273.72607421875 240.18356323242188 273.72607421875 224.20208740234375 C 240.239990234375 224.20208740234375 206.7537841796875 224.20208740234375 173.2677001953125 224.20208740234375 C 173.2677001953125 240.18356323242188 173.2677001953125 256.1650390625 173.2677001953125 272.146484375 C 206.7537841796875 272.146484375 240.239990234375 272.146484375 273.72607421875 272.146484375M 175.768798828125 346.5645751953125 C 188.27392578125 346.5645751953125 200.7791748046875 346.5645751953125 213.2843017578125 346.5645751953125 C 213.2843017578125 357.68212890625 213.2843017578125 368.7996826171875 213.2843017578125 379.917236328125 C 267.195556640625 379.917236328125 321.10693359375 379.917236328125 375.0181884765625 379.917236328125 C 375.0181884765625 368.7996826171875 375.0181884765625 357.68212890625 375.0181884765625 346.5645751953125 C 387.5234375 346.5645751953125 400.028564453125 346.5645751953125 412.5338134765625 346.5645751953125 C 412.5338134765625 381.515380859375 412.5338134765625 416.46612548828125 412.5338134765625 451.4168701171875 C 412.5338134765625 453.50146484375 411.630615234375 455.7249755859375 409.8243408203125 458.08740234375 C 404.6138916015625 463.57672119140625 399.4033203125 469.0660400390625 394.19287109375 474.5552978515625 C 392.108642578125 476.63983154296875 389.6771240234375 477.68212890625 386.898193359375 477.68212890625 C 320.8985595703125 477.68212890625 254.8988037109375 477.68212890625 188.899169921875 477.68212890625 C 185.1475830078125 477.68212890625 182.0213623046875 476.5703125 179.520263671875 474.3468017578125 C 177.019287109375 472.12335205078125 175.768798828125 469.135498046875 175.768798828125 465.38330078125 C 175.768798828125 425.777099609375 175.768798828125 386.1707763671875 175.768798828125 346.5645751953125M 375.0181884765625 446.6224365234375 C 375.0181884765625 434.7406005859375 375.0181884765625 422.85870361328125 375.0181884765625 410.976806640625 C 321.10693359375 410.976806640625 267.195556640625 410.976806640625 213.2843017578125 410.976806640625 C 213.2843017578125 422.85870361328125 213.2843017578125 434.7406005859375 213.2843017578125 446.6224365234375 C 267.195556640625 446.6224365234375 321.10693359375 446.6224365234375 375.0181884765625 446.6224365234375M 375.0181884765625 124.1441650390625 C 387.5234375 124.1441650390625 400.028564453125 124.1441650390625 412.5338134765625 124.1441650390625 C 412.5338134765625 151.24319458007812 412.5338134765625 178.34222412109375 412.5338134765625 205.44122314453125 C 429.9022216796875 205.44122314453125 447.2703857421875 205.44122314453125 464.6387939453125 205.44122314453125 C 464.6387939453125 216.14187622070312 464.6387939453125 226.84246826171875 464.6387939453125 237.54315185546875 C 447.2703857421875 237.54315185546875 429.9022216796875 237.54315185546875 412.5338134765625 237.54315185546875 C 412.5338134765625 267.21307373046875 412.5338134765625 296.883056640625 412.5338134765625 326.552978515625 C 400.028564453125 326.552978515625 387.5234375 326.552978515625 375.0181884765625 326.552978515625 C 375.0181884765625 259.0833740234375 375.0181884765625 191.61376953125 375.0181884765625 124.1441650390625"/>
  </g>
</svg>
