<?xml version="1.0" encoding="utf-8"?>
<svg xmlns="http://www.w3.org/2000/svg" xmlns:ev="http://www.w3.org/2001/xml-events" xmlns:xlink="http://www.w3.org/1999/xlink" version="1.1" baseProfile="full" width="8499.0" height="1696.0" viewBox="83.0 -1568.0 8499.0 1696.0">
<defs/>
<g><path d="M 4061.000000 -128.000000 C 3983.000000 -128.000000 3910.333333 -144.333333 3843.000000 -177.000000 C 3775.666667 -210.333333 3721.666667 -257.000000 3681.000000 -317.000000 C 3641.000000 -377.000000 3621.000000 -443.666667 3621.000000 -517.000000 C 3621.000000 -590.333333 3641.000000 -657.000000 3681.000000 -717.000000 C 3721.666667 -777.000000 3775.666667 -823.333333 3843.000000 -856.000000 C 3910.333333 -889.333333 3983.000000 -906.000000 4061.000000 -906.000000 C 4139.000000 -906.000000 4211.666667 -889.333333 4279.000000 -856.000000 C 4346.333333 -823.333333 4400.000000 -777.000000 4440.000000 -717.000000 C 4480.000000 -657.000000 4500.000000 -590.333333 4500.000000 -517.000000 C 4500.000000 -443.666667 4480.000000 -377.000000 4440.000000 -317.000000 C 4400.000000 -257.000000 4346.333333 -210.333333 4279.000000 -177.000000 C 4211.666667 -144.333333 4139.000000 -128.000000 4061.000000 -128.000000z M 3533.000000 -1216.000000 C 3878.666667 -1216.000000 4224.333333 -1216.000000 4570.000000 -1216.000000 C 4570.000000 -1170.000000 4570.000000 -1124.000000 4570.000000 -1078.000000 C 4224.333333 -1078.000000 3878.666667 -1078.000000 3533.000000 -1078.000000 C 3533.000000 -1124.000000 3533.000000 -1170.000000 3533.000000 -1216.000000z M 3765.000000 -1482.000000 C 3955.666667 -1482.000000 4146.333333 -1482.000000 4337.000000 -1482.000000 C 4337.000000 -1436.000000 4337.000000 -1390.000000 4337.000000 -1344.000000 C 4146.333333 -1344.000000 3955.666667 -1344.000000 3765.000000 -1344.000000 C 3765.000000 -1390.000000 3765.000000 -1436.000000 3765.000000 -1482.000000z M 3802.000000 -517.000000 C 3802.000000 -443.666667 3826.000000 -383.333333 3874.000000 -336.000000 C 3922.000000 -289.333333 3984.333333 -266.000000 4061.000000 -266.000000 C 4137.666667 -266.000000 4200.000000 -289.333333 4248.000000 -336.000000 C 4296.000000 -383.333333 4320.000000 -443.666667 4320.000000 -517.000000 C 4320.000000 -590.333333 4296.000000 -650.333333 4248.000000 -697.000000 C 4200.000000 -744.333333 4137.666667 -768.000000 4061.000000 -768.000000 C 3984.333333 -768.000000 3922.000000 -744.333333 3874.000000 -697.000000 C 3826.000000 -650.333333 3802.000000 -590.333333 3802.000000 -517.000000z M 4735.000000 -1568.000000 C 4795.000000 -1568.000000 4855.000000 -1568.000000 4915.000000 -1568.000000 C 4915.000000 -1344.000000 4915.000000 -1120.000000 4915.000000 -896.000000 C 4998.333333 -896.000000 5081.666667 -896.000000 5165.000000 -896.000000 C 5165.000000 -850.000000 5165.000000 -804.000000 5165.000000 -758.000000 C 5081.666667 -758.000000 4998.333333 -758.000000 4915.000000 -758.000000 C 4915.000000 -463.000000 4915.000000 -168.000000 4915.000000 127.000000 C 4855.000000 127.000000 4795.000000 127.000000 4735.000000 127.000000 C 4735.000000 -438.000000 4735.000000 -1003.000000 4735.000000 -1568.000000z "/>
</g></svg>
