<?xml version="1.0" encoding="utf-8"?>
<svg xmlns="http://www.w3.org/2000/svg" xmlns:ev="http://www.w3.org/2001/xml-events" xmlns:xlink="http://www.w3.org/1999/xlink" version="1.1" baseProfile="full" width="15392.0" height="1727.0" viewBox="102.0 -1568.0 15392.0 1727.0">
<defs/>
<g><path d="M 570.000000 -1472.000000 C 662.000000 -1472.000000 743.666667 -1446.000000 815.000000 -1394.000000 C 886.333333 -1342.666667 941.333333 -1268.666667 980.000000 -1172.000000 C 1019.333333 -1076.000000 1039.000000 -962.666667 1039.000000 -832.000000 C 1039.000000 -701.333333 1019.333333 -587.666667 980.000000 -491.000000 C 941.333333 -395.000000 886.333333 -321.000000 815.000000 -269.000000 C 743.666667 -217.666667 662.000000 -192.000000 570.000000 -192.000000 C 478.000000 -192.000000 396.333333 -217.666667 325.000000 -269.000000 C 254.333333 -321.000000 199.333333 -395.000000 160.000000 -491.000000 C 121.333333 -587.666667 102.000000 -701.333333 102.000000 -832.000000 C 102.000000 -962.666667 121.333333 -1076.000000 160.000000 -1172.000000 C 199.333333 -1268.666667 254.333333 -1342.666667 325.000000 -1394.000000 C 396.333333 -1446.000000 478.000000 -1472.000000 570.000000 -1472.000000z M 282.000000 -832.000000 C 282.000000 -676.666667 308.000000 -554.000000 360.000000 -464.000000 C 412.000000 -374.666667 482.000000 -330.000000 570.000000 -330.000000 C 658.666667 -330.000000 728.666667 -374.666667 780.000000 -464.000000 C 832.000000 -554.000000 858.000000 -676.666667 858.000000 -832.000000 C 858.000000 -987.333333 832.000000 -1109.666667 780.000000 -1199.000000 C 728.666667 -1289.000000 658.666667 -1334.000000 570.000000 -1334.000000 C 482.000000 -1334.000000 412.000000 -1289.000000 360.000000 -1199.000000 C 308.000000 -1109.666667 282.000000 -987.333333 282.000000 -832.000000z M 1352.000000 -1568.000000 C 1412.000000 -1568.000000 1472.000000 -1568.000000 1532.000000 -1568.000000 C 1532.000000 -1003.000000 1532.000000 -438.000000 1532.000000 127.000000 C 1472.000000 127.000000 1412.000000 127.000000 1352.000000 127.000000 C 1352.000000 -438.000000 1352.000000 -1003.000000 1352.000000 -1568.000000z "/>
</g></svg>
