<?xml version="1.0" encoding="utf-8"?>
<svg xmlns="http://www.w3.org/2000/svg" xmlns:ev="http://www.w3.org/2001/xml-events" xmlns:xlink="http://www.w3.org/1999/xlink" version="1.1" baseProfile="full" width="4663.0" height="1693.0" viewBox="522.0 -1615.0 4663.0 1693.0">
<defs/>
<g><path d="M 1068.000000 42.000000 C 937.333333 -220.000000 764.333333 -460.000000 549.000000 -678.000000 C 531.000000 -696.000000 522.000000 -717.000000 522.000000 -741.000000 C 522.000000 -753.666667 526.000000 -766.000000 534.000000 -778.000000 C 710.666667 -1008.333333 887.333333 -1238.666667 1064.000000 -1469.000000 C 1108.000000 -1437.666667 1152.000000 -1406.333333 1196.000000 -1375.000000 C 1041.333333 -1179.000000 886.666667 -983.000000 732.000000 -787.000000 C 721.333333 -773.000000 716.000000 -759.666667 716.000000 -747.000000 C 716.000000 -734.333333 721.666667 -721.000000 733.000000 -707.000000 C 920.333333 -504.333333 1079.333333 -283.333333 1210.000000 -44.000000 C 1162.666667 -15.333333 1115.333333 13.333333 1068.000000 42.000000z "/>
</g></svg>
