<?xml version="1.0" ?>
<svg xmlns="http://www.w3.org/2000/svg" version="1.1" width="600" height="600">
  <defs/>
  <g>
    <path stroke-width="0" fill="rgb(0, 0, 0)" opacity="1.0" d="M 299.02197265625 343.0150146484375 C 283.321044921875 343.0150146484375 269.35693359375 341.83380126953125 257.12939453125 339.4713134765625 C 257.12939453125 362.8876953125 257.12939453125 386.303955078125 257.12939453125 409.7203369140625 C 285.891357421875 409.7203369140625 314.6533203125 409.7203369140625 343.415283203125 409.7203369140625 C 343.415283203125 386.1650390625 343.415283203125 362.6097412109375 343.415283203125 339.054443359375 C 329.3818359375 341.69482421875 314.583984375 343.0150146484375 299.02197265625 343.0150146484375M 132.285888671875 409.7203369140625 C 161.32568359375 409.7203369140625 190.36572265625 409.7203369140625 219.405517578125 409.7203369140625 C 219.405517578125 382.412841796875 219.405517578125 355.1053466796875 219.405517578125 327.79791259765625 C 202.870849609375 319.45977783203125 190.1572265625 308.6201477050781 181.2646484375 295.27911376953125 C 172.510986328125 281.799072265625 168.13427734375 266.4429626464844 168.13427734375 249.21075439453125 C 168.13427734375 230.31094360351562 173.4140625 213.77359008789062 183.97412109375 199.59872436523438 C 194.5341796875 185.28488159179688 209.67919921875 174.16732788085938 229.40966796875 166.24609375 C 249.14013671875 158.18588256835938 272.34423828125 154.15576171875 299.02197265625 154.15576171875 C 325.69970703125 154.15576171875 348.903564453125 158.18588256835938 368.63427734375 166.24609375 C 388.36474609375 174.16732788085938 403.509765625 185.28488159179688 414.06982421875 199.59872436523438 C 424.629638671875 213.91253662109375 429.90966796875 230.44989013671875 429.90966796875 249.21075439453125 C 429.90966796875 266.02606201171875 425.671875 281.104248046875 417.196044921875 294.4452819824219 C 408.859130859375 307.6473388671875 396.84033203125 318.41748046875 381.139404296875 326.755615234375 C 381.139404296875 354.4105224609375 381.139404296875 382.0654296875 381.139404296875 409.7203369140625 C 410.17919921875 409.7203369140625 439.21923828125 409.7203369140625 468.259033203125 409.7203369140625 C 468.259033203125 422.36651611328125 468.259033203125 435.0126953125 468.259033203125 447.658935546875 C 356.26806640625 447.658935546875 244.27685546875 447.658935546875 132.285888671875 447.658935546875 C 132.285888671875 435.0126953125 132.285888671875 422.36651611328125 132.285888671875 409.7203369140625M 205.858154296875 248.58538818359375 C 205.858154296875 262.20440673828125 209.957275390625 273.94732666015625 218.155029296875 283.81414794921875 C 226.49169921875 293.6809387207031 237.677001953125 301.2547607421875 251.710693359375 306.5356140136719 C 265.883056640625 311.677490234375 281.653564453125 314.2484130859375 299.02197265625 314.2484130859375 C 316.39013671875 314.2484130859375 332.16064453125 311.677490234375 346.333251953125 306.5356140136719 C 360.505859375 301.2547607421875 371.691162109375 293.6809387207031 379.888916015625 283.81414794921875 C 388.2255859375 273.94732666015625 392.39404296875 262.20440673828125 392.39404296875 248.58538818359375 C 392.39404296875 234.96640014648438 388.2255859375 223.2235107421875 379.888916015625 213.356689453125 C 371.691162109375 203.4898681640625 360.505859375 195.98550415039062 346.333251953125 190.84365844726562 C 332.16064453125 185.56280517578125 316.39013671875 182.92239379882812 299.02197265625 182.92239379882812 C 281.653564453125 182.92239379882812 265.883056640625 185.56280517578125 251.710693359375 190.84365844726562 C 237.677001953125 195.98550415039062 226.49169921875 203.4898681640625 218.155029296875 213.356689453125 C 209.957275390625 223.2235107421875 205.858154296875 234.96640014648438 205.858154296875 248.58538818359375"/>
  </g>
</svg>
