<?xml version="1.0" encoding="utf-8"?>
<svg xmlns="http://www.w3.org/2000/svg" xmlns:ev="http://www.w3.org/2001/xml-events" xmlns:xlink="http://www.w3.org/1999/xlink" version="1.1" baseProfile="full" width="8546.0" height="1727.0" viewBox="75.0 -1568.0 8546.0 1727.0">
<defs/>
<g><path d="M 5411.000000 -256.000000 C 5371.000000 -256.000000 5351.000000 -276.000000 5351.000000 -316.000000 C 5351.000000 -690.666667 5351.000000 -1065.333333 5351.000000 -1440.000000 C 5411.333333 -1440.000000 5471.666667 -1440.000000 5532.000000 -1440.000000 C 5532.000000 -1091.333333 5532.000000 -742.666667 5532.000000 -394.000000 C 5783.333333 -394.000000 6034.666667 -394.000000 6286.000000 -394.000000 C 6286.000000 -348.000000 6286.000000 -302.000000 6286.000000 -256.000000 C 5994.333333 -256.000000 5702.666667 -256.000000 5411.000000 -256.000000z M 6536.000000 -1568.000000 C 6596.000000 -1568.000000 6656.000000 -1568.000000 6716.000000 -1568.000000 C 6716.000000 -1003.000000 6716.000000 -438.000000 6716.000000 127.000000 C 6656.000000 127.000000 6596.000000 127.000000 6536.000000 127.000000 C 6536.000000 -438.000000 6536.000000 -1003.000000 6536.000000 -1568.000000z "/>
</g></svg>
