<?xml version="1.0" encoding="utf-8"?>
<svg xmlns="http://www.w3.org/2000/svg" xmlns:ev="http://www.w3.org/2001/xml-events" xmlns:xlink="http://www.w3.org/1999/xlink" version="1.1" baseProfile="full" width="15392.0" height="1727.0" viewBox="102.0 -1568.0 15392.0 1727.0">
<defs/>
<g><path d="M 6154.000000 -766.000000 C 6154.000000 -747.333333 6148.333333 -732.333333 6137.000000 -721.000000 C 6126.333333 -709.666667 6112.000000 -704.000000 6094.000000 -704.000000 C 5855.333333 -704.000000 5616.666667 -704.000000 5378.000000 -704.000000 C 5360.000000 -704.000000 5345.333333 -709.666667 5334.000000 -721.000000 C 5323.333333 -732.333333 5318.000000 -747.333333 5318.000000 -766.000000 C 5318.000000 -1012.000000 5318.000000 -1258.000000 5318.000000 -1504.000000 C 5377.000000 -1504.000000 5436.000000 -1504.000000 5495.000000 -1504.000000 C 5495.000000 -1416.666667 5495.000000 -1329.333333 5495.000000 -1242.000000 C 5655.666667 -1242.000000 5816.333333 -1242.000000 5977.000000 -1242.000000 C 5977.000000 -1329.333333 5977.000000 -1416.666667 5977.000000 -1504.000000 C 6036.000000 -1504.000000 6095.000000 -1504.000000 6154.000000 -1504.000000 C 6154.000000 -1258.000000 6154.000000 -1012.000000 6154.000000 -766.000000z M 5977.000000 -858.000000 C 5977.000000 -934.666667 5977.000000 -1011.333333 5977.000000 -1088.000000 C 5816.333333 -1088.000000 5655.666667 -1088.000000 5495.000000 -1088.000000 C 5495.000000 -1011.333333 5495.000000 -934.666667 5495.000000 -858.000000 C 5655.666667 -858.000000 5816.333333 -858.000000 5977.000000 -858.000000z M 5507.000000 -501.000000 C 5567.000000 -501.000000 5627.000000 -501.000000 5687.000000 -501.000000 C 5687.000000 -447.666667 5687.000000 -394.333333 5687.000000 -341.000000 C 5945.666667 -341.000000 6204.333333 -341.000000 6463.000000 -341.000000 C 6463.000000 -394.333333 6463.000000 -447.666667 6463.000000 -501.000000 C 6523.000000 -501.000000 6583.000000 -501.000000 6643.000000 -501.000000 C 6643.000000 -333.333333 6643.000000 -165.666667 6643.000000 2.000000 C 6643.000000 12.000000 6638.666667 22.666667 6630.000000 34.000000 C 6605.000000 60.333333 6580.000000 86.666667 6555.000000 113.000000 C 6545.000000 123.000000 6533.333333 128.000000 6520.000000 128.000000 C 6203.333333 128.000000 5886.666667 128.000000 5570.000000 128.000000 C 5552.000000 128.000000 5537.000000 122.666667 5525.000000 112.000000 C 5513.000000 101.333333 5507.000000 87.000000 5507.000000 69.000000 C 5507.000000 -121.000000 5507.000000 -311.000000 5507.000000 -501.000000z M 6463.000000 -21.000000 C 6463.000000 -78.000000 6463.000000 -135.000000 6463.000000 -192.000000 C 6204.333333 -192.000000 5945.666667 -192.000000 5687.000000 -192.000000 C 5687.000000 -135.000000 5687.000000 -78.000000 5687.000000 -21.000000 C 5945.666667 -21.000000 6204.333333 -21.000000 6463.000000 -21.000000z M 6463.000000 -1568.000000 C 6523.000000 -1568.000000 6583.000000 -1568.000000 6643.000000 -1568.000000 C 6643.000000 -1438.000000 6643.000000 -1308.000000 6643.000000 -1178.000000 C 6726.333333 -1178.000000 6809.666667 -1178.000000 6893.000000 -1178.000000 C 6893.000000 -1126.666667 6893.000000 -1075.333333 6893.000000 -1024.000000 C 6809.666667 -1024.000000 6726.333333 -1024.000000 6643.000000 -1024.000000 C 6643.000000 -881.666667 6643.000000 -739.333333 6643.000000 -597.000000 C 6583.000000 -597.000000 6523.000000 -597.000000 6463.000000 -597.000000 C 6463.000000 -920.666667 6463.000000 -1244.333333 6463.000000 -1568.000000z "/>
</g></svg>
