<?xml version="1.0" encoding="utf-8"?>
<svg xmlns="http://www.w3.org/2000/svg" xmlns:ev="http://www.w3.org/2001/xml-events" xmlns:xlink="http://www.w3.org/1999/xlink" version="1.1" baseProfile="full" width="8546.0" height="1727.0" viewBox="75.0 -1568.0 8546.0 1727.0">
<defs/>
<g><path d="M 75.000000 -741.000000 C 183.666667 -775.000000 288.666667 -821.333333 390.000000 -880.000000 C 492.000000 -938.666667 578.333333 -1006.000000 649.000000 -1082.000000 C 719.666667 -1158.000000 762.666667 -1237.000000 778.000000 -1319.000000 C 560.333333 -1319.000000 342.666667 -1319.000000 125.000000 -1319.000000 C 125.000000 -1370.000000 125.000000 -1421.000000 125.000000 -1472.000000 C 389.333333 -1472.000000 653.666667 -1472.000000 918.000000 -1472.000000 C 961.333333 -1472.000000 981.000000 -1449.000000 977.000000 -1403.000000 C 965.666667 -1224.333333 882.000000 -1066.666667 726.000000 -930.000000 C 570.666667 -793.333333 378.000000 -687.000000 148.000000 -611.000000 C 123.666667 -654.333333 99.333333 -697.666667 75.000000 -741.000000z M 323.000000 -512.000000 C 682.000000 -512.000000 1041.000000 -512.000000 1400.000000 -512.000000 C 1439.333333 -512.000000 1459.000000 -491.333333 1459.000000 -450.000000 C 1459.000000 -299.333333 1459.000000 -148.666667 1459.000000 2.000000 C 1459.000000 12.000000 1454.666667 22.666667 1446.000000 34.000000 C 1421.000000 60.333333 1396.000000 86.666667 1371.000000 113.000000 C 1361.000000 123.000000 1349.333333 128.000000 1336.000000 128.000000 C 1018.000000 128.000000 700.000000 128.000000 382.000000 128.000000 C 342.666667 128.000000 323.000000 107.666667 323.000000 67.000000 C 323.000000 -126.000000 323.000000 -319.000000 323.000000 -512.000000z M 1283.000000 -21.000000 C 1283.000000 -135.000000 1283.000000 -249.000000 1283.000000 -363.000000 C 1021.666667 -363.000000 760.333333 -363.000000 499.000000 -363.000000 C 499.000000 -249.000000 499.000000 -135.000000 499.000000 -21.000000 C 760.333333 -21.000000 1021.666667 -21.000000 1283.000000 -21.000000z M 1279.000000 -1568.000000 C 1339.000000 -1568.000000 1399.000000 -1568.000000 1459.000000 -1568.000000 C 1459.000000 -1437.666667 1459.000000 -1307.333333 1459.000000 -1177.000000 C 1542.333333 -1177.000000 1625.666667 -1177.000000 1709.000000 -1177.000000 C 1709.000000 -1126.000000 1709.000000 -1075.000000 1709.000000 -1024.000000 C 1625.666667 -1024.000000 1542.333333 -1024.000000 1459.000000 -1024.000000 C 1459.000000 -884.333333 1459.000000 -744.666667 1459.000000 -605.000000 C 1399.000000 -605.000000 1339.000000 -605.000000 1279.000000 -605.000000 C 1279.000000 -926.000000 1279.000000 -1247.000000 1279.000000 -1568.000000z "/>
</g>
<g><path d="M 1766.000000 -261.000000 C 1898.000000 -388.333333 2007.000000 -548.333333 2093.000000 -741.000000 C 2179.666667 -933.666667 2229.666667 -1166.666667 2243.000000 -1440.000000 C 2303.000000 -1440.000000 2363.000000 -1440.000000 2423.000000 -1440.000000 C 2411.666667 -1236.666667 2384.000000 -1056.333333 2340.000000 -899.000000 C 2374.666667 -801.666667 2442.000000 -694.333333 2542.000000 -577.000000 C 2642.000000 -460.333333 2738.666667 -369.333333 2832.000000 -304.000000 C 2794.333333 -262.333333 2756.666667 -220.666667 2719.000000 -179.000000 C 2639.666667 -235.666667 2555.000000 -311.333333 2465.000000 -406.000000 C 2375.666667 -501.333333 2309.333333 -590.666667 2266.000000 -674.000000 C 2180.000000 -476.000000 2057.000000 -300.000000 1897.000000 -146.000000 C 1853.333333 -184.333333 1809.666667 -222.666667 1766.000000 -261.000000z M 3007.000000 -1536.000000 C 3067.000000 -1536.000000 3127.000000 -1536.000000 3187.000000 -1536.000000 C 3187.000000 -1310.000000 3187.000000 -1084.000000 3187.000000 -858.000000 C 3270.333333 -858.000000 3353.666667 -858.000000 3437.000000 -858.000000 C 3437.000000 -806.666667 3437.000000 -755.333333 3437.000000 -704.000000 C 3353.666667 -704.000000 3270.333333 -704.000000 3187.000000 -704.000000 C 3187.000000 -416.333333 3187.000000 -128.666667 3187.000000 159.000000 C 3127.000000 159.000000 3067.000000 159.000000 3007.000000 159.000000 C 3007.000000 -406.000000 3007.000000 -971.000000 3007.000000 -1536.000000z "/>
</g>
<g><path d="M 4051.000000 -1109.000000 C 4180.333333 -1109.000000 4286.000000 -1083.333333 4368.000000 -1032.000000 C 4450.000000 -980.666667 4491.000000 -907.000000 4491.000000 -811.000000 C 4491.000000 -714.333333 4450.000000 -640.333333 4368.000000 -589.000000 C 4286.000000 -537.666667 4180.333333 -512.000000 4051.000000 -512.000000 C 3921.666667 -512.000000 3816.000000 -537.666667 3734.000000 -589.000000 C 3652.666667 -640.333333 3612.000000 -714.333333 3612.000000 -811.000000 C 3612.000000 -907.000000 3652.666667 -980.666667 3734.000000 -1032.000000 C 3816.000000 -1083.333333 3921.666667 -1109.000000 4051.000000 -1109.000000z M 3533.000000 -1344.000000 C 3878.666667 -1344.000000 4224.333333 -1344.000000 4570.000000 -1344.000000 C 4570.000000 -1294.333333 4570.000000 -1244.666667 4570.000000 -1195.000000 C 4224.333333 -1195.000000 3878.666667 -1195.000000 3533.000000 -1195.000000 C 3533.000000 -1244.666667 3533.000000 -1294.333333 3533.000000 -1344.000000z M 3757.000000 -433.000000 C 3817.333333 -433.000000 3877.666667 -433.000000 3938.000000 -433.000000 C 3938.000000 -395.333333 3938.000000 -357.666667 3938.000000 -320.000000 C 4203.000000 -320.000000 4468.000000 -320.000000 4733.000000 -320.000000 C 4733.000000 -357.666667 4733.000000 -395.333333 4733.000000 -433.000000 C 4793.000000 -433.000000 4853.000000 -433.000000 4913.000000 -433.000000 C 4913.000000 -288.000000 4913.000000 -143.000000 4913.000000 2.000000 C 4913.000000 12.000000 4908.666667 22.666667 4900.000000 34.000000 C 4875.000000 60.333333 4850.000000 86.666667 4825.000000 113.000000 C 4815.000000 123.000000 4803.333333 128.000000 4790.000000 128.000000 C 4467.000000 128.000000 4144.000000 128.000000 3821.000000 128.000000 C 3803.000000 128.000000 3787.666667 122.666667 3775.000000 112.000000 C 3763.000000 101.333333 3757.000000 87.000000 3757.000000 69.000000 C 3757.000000 -98.333333 3757.000000 -265.666667 3757.000000 -433.000000z M 3765.000000 -1557.000000 C 3955.666667 -1557.000000 4146.333333 -1557.000000 4337.000000 -1557.000000 C 4337.000000 -1507.333333 4337.000000 -1457.666667 4337.000000 -1408.000000 C 4146.333333 -1408.000000 3955.666667 -1408.000000 3765.000000 -1408.000000 C 3765.000000 -1457.666667 3765.000000 -1507.333333 3765.000000 -1557.000000z M 3788.000000 -810.000000 C 3788.000000 -763.333333 3812.666667 -726.666667 3862.000000 -700.000000 C 3911.333333 -674.000000 3974.333333 -661.000000 4051.000000 -661.000000 C 4127.666667 -661.000000 4190.666667 -674.000000 4240.000000 -700.000000 C 4289.333333 -726.666667 4314.000000 -763.333333 4314.000000 -810.000000 C 4314.000000 -857.333333 4289.333333 -894.000000 4240.000000 -920.000000 C 4190.666667 -946.666667 4127.666667 -960.000000 4051.000000 -960.000000 C 3974.333333 -960.000000 3911.333333 -946.666667 3862.000000 -920.000000 C 3812.666667 -894.000000 3788.000000 -857.333333 3788.000000 -810.000000z M 4733.000000 -21.000000 C 4733.000000 -71.000000 4733.000000 -121.000000 4733.000000 -171.000000 C 4468.000000 -171.000000 4203.000000 -171.000000 3938.000000 -171.000000 C 3938.000000 -121.000000 3938.000000 -71.000000 3938.000000 -21.000000 C 4203.000000 -21.000000 4468.000000 -21.000000 4733.000000 -21.000000z M 4735.000000 -1548.000000 C 4795.000000 -1548.000000 4855.000000 -1548.000000 4915.000000 -1548.000000 C 4915.000000 -1416.000000 4915.000000 -1284.000000 4915.000000 -1152.000000 C 4998.333333 -1152.000000 5081.666667 -1152.000000 5165.000000 -1152.000000 C 5165.000000 -1100.666667 5165.000000 -1049.333333 5165.000000 -998.000000 C 5081.666667 -998.000000 4998.333333 -998.000000 4915.000000 -998.000000 C 4915.000000 -836.000000 4915.000000 -674.000000 4915.000000 -512.000000 C 4855.000000 -512.000000 4795.000000 -512.000000 4735.000000 -512.000000 C 4735.000000 -857.333333 4735.000000 -1202.666667 4735.000000 -1548.000000z "/>
</g>
<g><path d="M 5411.000000 -256.000000 C 5371.000000 -256.000000 5351.000000 -276.000000 5351.000000 -316.000000 C 5351.000000 -690.666667 5351.000000 -1065.333333 5351.000000 -1440.000000 C 5411.333333 -1440.000000 5471.666667 -1440.000000 5532.000000 -1440.000000 C 5532.000000 -1091.333333 5532.000000 -742.666667 5532.000000 -394.000000 C 5783.333333 -394.000000 6034.666667 -394.000000 6286.000000 -394.000000 C 6286.000000 -348.000000 6286.000000 -302.000000 6286.000000 -256.000000 C 5994.333333 -256.000000 5702.666667 -256.000000 5411.000000 -256.000000z M 6536.000000 -1568.000000 C 6596.000000 -1568.000000 6656.000000 -1568.000000 6716.000000 -1568.000000 C 6716.000000 -1003.000000 6716.000000 -438.000000 6716.000000 127.000000 C 6656.000000 127.000000 6596.000000 127.000000 6536.000000 127.000000 C 6536.000000 -438.000000 6536.000000 -1003.000000 6536.000000 -1568.000000z "/>
</g>
<g><path d="M 7119.000000 -256.000000 C 7100.333333 -256.000000 7085.333333 -261.000000 7074.000000 -271.000000 C 7063.333333 -281.666667 7058.666667 -296.666667 7060.000000 -316.000000 C 7069.000000 -637.333333 7078.000000 -958.666667 7087.000000 -1280.000000 C 7064.000000 -1280.000000 7041.000000 -1280.000000 7018.000000 -1280.000000 C 7018.000000 -1326.000000 7018.000000 -1372.000000 7018.000000 -1418.000000 C 7312.333333 -1418.000000 7606.666667 -1418.000000 7901.000000 -1418.000000 C 7901.000000 -1372.000000 7901.000000 -1326.000000 7901.000000 -1280.000000 C 7689.666667 -1280.000000 7478.333333 -1280.000000 7267.000000 -1280.000000 C 7258.000000 -984.666667 7249.000000 -689.333333 7240.000000 -394.000000 C 7475.666667 -394.000000 7711.333333 -394.000000 7947.000000 -394.000000 C 7947.000000 -348.000000 7947.000000 -302.000000 7947.000000 -256.000000 C 7671.000000 -256.000000 7395.000000 -256.000000 7119.000000 -256.000000z M 8191.000000 -1568.000000 C 8251.000000 -1568.000000 8311.000000 -1568.000000 8371.000000 -1568.000000 C 8371.000000 -1344.000000 8371.000000 -1120.000000 8371.000000 -896.000000 C 8454.333333 -896.000000 8537.666667 -896.000000 8621.000000 -896.000000 C 8621.000000 -850.000000 8621.000000 -804.000000 8621.000000 -758.000000 C 8537.666667 -758.000000 8454.333333 -758.000000 8371.000000 -758.000000 C 8371.000000 -463.000000 8371.000000 -168.000000 8371.000000 127.000000 C 8311.000000 127.000000 8251.000000 127.000000 8191.000000 127.000000 C 8191.000000 -438.000000 8191.000000 -1003.000000 8191.000000 -1568.000000z "/>
</g>
</svg>
