<?xml version="1.0" encoding="utf-8"?>
<svg xmlns="http://www.w3.org/2000/svg" xmlns:ev="http://www.w3.org/2001/xml-events" xmlns:xlink="http://www.w3.org/1999/xlink" version="1.1" baseProfile="full" width="8499.0" height="1696.0" viewBox="83.0 -1568.0 8499.0 1696.0">
<defs/>
<g><path d="M 7770.000000 -566.000000 C 7694.666667 -566.000000 7627.666667 -571.666667 7569.000000 -583.000000 C 7569.000000 -470.666667 7569.000000 -358.333333 7569.000000 -246.000000 C 7707.000000 -246.000000 7845.000000 -246.000000 7983.000000 -246.000000 C 7983.000000 -359.000000 7983.000000 -472.000000 7983.000000 -585.000000 C 7915.666667 -572.333333 7844.666667 -566.000000 7770.000000 -566.000000z M 6970.000000 -246.000000 C 7109.333333 -246.000000 7248.666667 -246.000000 7388.000000 -246.000000 C 7388.000000 -377.000000 7388.000000 -508.000000 7388.000000 -639.000000 C 7308.666667 -679.000000 7247.666667 -731.000000 7205.000000 -795.000000 C 7163.000000 -859.666667 7142.000000 -933.333333 7142.000000 -1016.000000 C 7142.000000 -1106.666667 7167.333333 -1186.000000 7218.000000 -1254.000000 C 7268.666667 -1322.666667 7341.333333 -1376.000000 7436.000000 -1414.000000 C 7530.666667 -1452.666667 7642.000000 -1472.000000 7770.000000 -1472.000000 C 7898.000000 -1472.000000 8009.333333 -1452.666667 8104.000000 -1414.000000 C 8198.666667 -1376.000000 8271.333333 -1322.666667 8322.000000 -1254.000000 C 8372.666667 -1185.333333 8398.000000 -1106.000000 8398.000000 -1016.000000 C 8398.000000 -935.333333 8377.666667 -863.000000 8337.000000 -799.000000 C 8297.000000 -735.666667 8239.333333 -684.000000 8164.000000 -644.000000 C 8164.000000 -511.333333 8164.000000 -378.666667 8164.000000 -246.000000 C 8303.333333 -246.000000 8442.666667 -246.000000 8582.000000 -246.000000 C 8582.000000 -185.333333 8582.000000 -124.666667 8582.000000 -64.000000 C 8044.666667 -64.000000 7507.333333 -64.000000 6970.000000 -64.000000 C 6970.000000 -124.666667 6970.000000 -185.333333 6970.000000 -246.000000z M 7323.000000 -1019.000000 C 7323.000000 -953.666667 7342.666667 -897.333333 7382.000000 -850.000000 C 7422.000000 -802.666667 7475.666667 -766.333333 7543.000000 -741.000000 C 7611.000000 -716.333333 7686.666667 -704.000000 7770.000000 -704.000000 C 7853.333333 -704.000000 7929.000000 -716.333333 7997.000000 -741.000000 C 8065.000000 -766.333333 8118.666667 -802.666667 8158.000000 -850.000000 C 8198.000000 -897.333333 8218.000000 -953.666667 8218.000000 -1019.000000 C 8218.000000 -1084.333333 8198.000000 -1140.666667 8158.000000 -1188.000000 C 8118.666667 -1235.333333 8065.000000 -1271.333333 7997.000000 -1296.000000 C 7929.000000 -1321.333333 7853.333333 -1334.000000 7770.000000 -1334.000000 C 7686.666667 -1334.000000 7611.000000 -1321.333333 7543.000000 -1296.000000 C 7475.666667 -1271.333333 7422.000000 -1235.333333 7382.000000 -1188.000000 C 7342.666667 -1140.666667 7323.000000 -1084.333333 7323.000000 -1019.000000z "/>
</g></svg>
