<?xml version="1.0" encoding="utf-8"?>
<svg xmlns="http://www.w3.org/2000/svg" xmlns:ev="http://www.w3.org/2001/xml-events" xmlns:xlink="http://www.w3.org/1999/xlink" version="1.1" baseProfile="full" width="15392.0" height="1727.0" viewBox="102.0 -1568.0 15392.0 1727.0">
<defs/>
<g><path d="M 3510.000000 -332.000000 C 3681.333333 -426.666667 3819.000000 -550.000000 3923.000000 -702.000000 C 4027.666667 -854.666667 4082.000000 -1038.666667 4086.000000 -1254.000000 C 3912.333333 -1254.000000 3738.666667 -1254.000000 3565.000000 -1254.000000 C 3565.000000 -1305.333333 3565.000000 -1356.666667 3565.000000 -1408.000000 C 3780.333333 -1408.000000 3995.666667 -1408.000000 4211.000000 -1408.000000 C 4236.333333 -1408.000000 4252.666667 -1399.000000 4260.000000 -1381.000000 C 4268.000000 -1363.000000 4270.666667 -1330.666667 4268.000000 -1284.000000 C 4260.666667 -1087.333333 4225.000000 -919.666667 4161.000000 -781.000000 C 4097.000000 -643.000000 4018.666667 -530.333333 3926.000000 -443.000000 C 3834.000000 -356.333333 3728.000000 -277.000000 3608.000000 -205.000000 C 3575.333333 -247.333333 3542.666667 -289.666667 3510.000000 -332.000000z M 4249.000000 -922.000000 C 4333.333333 -922.000000 4417.666667 -922.000000 4502.000000 -922.000000 C 4502.000000 -1126.666667 4502.000000 -1331.333333 4502.000000 -1536.000000 C 4561.000000 -1536.000000 4620.000000 -1536.000000 4679.000000 -1536.000000 C 4679.000000 -994.666667 4679.000000 -453.333333 4679.000000 88.000000 C 4620.000000 88.000000 4561.000000 88.000000 4502.000000 88.000000 C 4502.000000 -197.333333 4502.000000 -482.666667 4502.000000 -768.000000 C 4417.666667 -768.000000 4333.333333 -768.000000 4249.000000 -768.000000 C 4249.000000 -819.333333 4249.000000 -870.666667 4249.000000 -922.000000z M 4858.000000 -1568.000000 C 4916.666667 -1568.000000 4975.333333 -1568.000000 5034.000000 -1568.000000 C 5034.000000 -1003.000000 5034.000000 -438.000000 5034.000000 127.000000 C 4975.333333 127.000000 4916.666667 127.000000 4858.000000 127.000000 C 4858.000000 -438.000000 4858.000000 -1003.000000 4858.000000 -1568.000000z "/>
</g></svg>
