<?xml version="1.0" ?>
<svg xmlns="http://www.w3.org/2000/svg" version="1.1" width="600" height="600">
  <defs/>
  <g>
    <path stroke-width="0" fill="rgb(0, 0, 0)" opacity="1.0" d="M 342.97576904296875 460.930908203125 C 315.2059326171875 405.2191162109375 278.43927001953125 354.18548583984375 232.67575073242188 307.82989501953125 C 228.85031127929688 304.00238037109375 226.93759155273438 299.53692626953125 226.93759155273438 294.43353271484375 C 226.93759155273438 291.7401123046875 227.78768920898438 289.1175537109375 229.48788452148438 286.56585693359375 C 267.0338134765625 237.58770751953125 304.5797424316406 188.60958862304688 342.12567138671875 139.63140869140625 C 351.47674560546875 146.29415893554688 360.82781982421875 152.95687866210938 370.1788330078125 159.61959838867188 C 337.3084716796875 201.297119140625 304.43804931640625 242.974609375 271.5676574707031 284.652099609375 C 269.30072021484375 287.6290588378906 268.16729736328125 290.4642639160156 268.16729736328125 293.15771484375 C 268.16729736328125 295.85113525390625 269.37158203125 298.68634033203125 271.7801818847656 301.663330078125 C 311.593017578125 344.7584228515625 345.3843994140625 391.751953125 373.1541748046875 442.643798828125 C 363.0947265625 448.739501953125 353.0352783203125 454.835205078125 342.97576904296875 460.930908203125"/>
  </g>
</svg>
