<?xml version="1.0" encoding="utf-8"?>
<svg xmlns="http://www.w3.org/2000/svg" xmlns:ev="http://www.w3.org/2001/xml-events" xmlns:xlink="http://www.w3.org/1999/xlink" version="1.1" baseProfile="full" width="8499.0" height="1696.0" viewBox="83.0 -1568.0 8499.0 1696.0">
<defs/>
<g><path d="M 5203.000000 -279.000000 C 5285.000000 -377.000000 5353.000000 -473.333333 5407.000000 -568.000000 C 5461.666667 -663.333333 5507.333333 -781.666667 5544.000000 -923.000000 C 5580.666667 -1064.333333 5603.333333 -1236.666667 5612.000000 -1440.000000 C 5672.333333 -1440.000000 5732.666667 -1440.000000 5793.000000 -1440.000000 C 5783.666667 -1263.333333 5763.000000 -1101.000000 5731.000000 -953.000000 C 5751.666667 -849.666667 5801.666667 -735.333333 5881.000000 -610.000000 C 5960.333333 -485.333333 6041.666667 -386.666667 6125.000000 -314.000000 C 6084.000000 -275.000000 6043.000000 -236.000000 6002.000000 -197.000000 C 5934.000000 -256.333333 5867.000000 -332.333333 5801.000000 -425.000000 C 5735.000000 -518.333333 5686.000000 -605.333333 5654.000000 -686.000000 C 5588.000000 -506.666667 5485.666667 -337.000000 5347.000000 -177.000000 C 5299.000000 -211.000000 5251.000000 -245.000000 5203.000000 -279.000000z M 5939.000000 -985.000000 C 6036.000000 -985.000000 6133.000000 -985.000000 6230.000000 -985.000000 C 6230.000000 -1168.666667 6230.000000 -1352.333333 6230.000000 -1536.000000 C 6287.666667 -1536.000000 6345.333333 -1536.000000 6403.000000 -1536.000000 C 6403.000000 -994.666667 6403.000000 -453.333333 6403.000000 88.000000 C 6345.333333 88.000000 6287.666667 88.000000 6230.000000 88.000000 C 6230.000000 -218.666667 6230.000000 -525.333333 6230.000000 -832.000000 C 6133.000000 -832.000000 6036.000000 -832.000000 5939.000000 -832.000000 C 5939.000000 -883.000000 5939.000000 -934.000000 5939.000000 -985.000000z M 6589.000000 -1568.000000 C 6646.666667 -1568.000000 6704.333333 -1568.000000 6762.000000 -1568.000000 C 6762.000000 -1003.000000 6762.000000 -438.000000 6762.000000 127.000000 C 6704.333333 127.000000 6646.666667 127.000000 6589.000000 127.000000 C 6589.000000 -438.000000 6589.000000 -1003.000000 6589.000000 -1568.000000z "/>
</g></svg>
