<?xml version="1.0" encoding="utf-8"?>
<svg xmlns="http://www.w3.org/2000/svg" xmlns:ev="http://www.w3.org/2001/xml-events" xmlns:xlink="http://www.w3.org/1999/xlink" version="1.1" baseProfile="full" width="15392.0" height="1727.0" viewBox="102.0 -1568.0 15392.0 1727.0">
<defs/>
<g><path d="M 12115.000000 -279.000000 C 12197.000000 -377.000000 12265.000000 -473.333333 12319.000000 -568.000000 C 12373.666667 -663.333333 12419.333333 -781.666667 12456.000000 -923.000000 C 12492.666667 -1064.333333 12515.333333 -1236.666667 12524.000000 -1440.000000 C 12584.333333 -1440.000000 12644.666667 -1440.000000 12705.000000 -1440.000000 C 12695.666667 -1263.333333 12675.000000 -1101.000000 12643.000000 -953.000000 C 12663.666667 -849.666667 12713.666667 -735.333333 12793.000000 -610.000000 C 12872.333333 -485.333333 12953.666667 -386.666667 13037.000000 -314.000000 C 12996.000000 -275.000000 12955.000000 -236.000000 12914.000000 -197.000000 C 12846.000000 -256.333333 12779.000000 -332.333333 12713.000000 -425.000000 C 12647.000000 -518.333333 12598.000000 -605.333333 12566.000000 -686.000000 C 12500.000000 -506.666667 12397.666667 -337.000000 12259.000000 -177.000000 C 12211.000000 -211.000000 12163.000000 -245.000000 12115.000000 -279.000000z M 12851.000000 -985.000000 C 12948.000000 -985.000000 13045.000000 -985.000000 13142.000000 -985.000000 C 13142.000000 -1168.666667 13142.000000 -1352.333333 13142.000000 -1536.000000 C 13199.666667 -1536.000000 13257.333333 -1536.000000 13315.000000 -1536.000000 C 13315.000000 -994.666667 13315.000000 -453.333333 13315.000000 88.000000 C 13257.333333 88.000000 13199.666667 88.000000 13142.000000 88.000000 C 13142.000000 -218.666667 13142.000000 -525.333333 13142.000000 -832.000000 C 13045.000000 -832.000000 12948.000000 -832.000000 12851.000000 -832.000000 C 12851.000000 -883.000000 12851.000000 -934.000000 12851.000000 -985.000000z M 13501.000000 -1568.000000 C 13558.666667 -1568.000000 13616.333333 -1568.000000 13674.000000 -1568.000000 C 13674.000000 -1003.000000 13674.000000 -438.000000 13674.000000 127.000000 C 13616.333333 127.000000 13558.666667 127.000000 13501.000000 127.000000 C 13501.000000 -438.000000 13501.000000 -1003.000000 13501.000000 -1568.000000z "/>
</g></svg>
