<?xml version="1.0" ?>
<svg xmlns="http://www.w3.org/2000/svg" version="1.1" width="600" height="600">
  <defs/>
  <g>
    <path stroke-width="0" fill="rgb(0, 0, 0)" opacity="1.0" d="M 136.8251953125 295.95001220703125 C 137.30743408203125 295.6500244140625 137.78390502929688 295.3277587890625 138.254638671875 294.98333740234375 C 138.73687744140625 294.638916015625 139.11004638671875 294.361083984375 139.37411499023438 294.1500244140625 C 138.88040161132812 293.70556640625 138.20297241210938 293.2166748046875 137.34185791015625 292.683349609375 C 136.49221801757812 292.1500244140625 135.57369995117188 291.6278076171875 134.58627319335938 291.11669921875 C 133.6103515625 290.6055908203125 132.69180297851562 290.1666259765625 131.8306884765625 289.79998779296875 C 132.0316162109375 289.5555419921875 132.2325439453125 289.31109619140625 132.4334716796875 289.066650390625 C 133.2257080078125 289.4111328125 134.11553955078125 289.8499755859375 135.10296630859375 290.38330078125 C 136.09036254882812 290.9166259765625 137.0548095703125 291.4666748046875 137.99630737304688 292.0333251953125 C 138.93780517578125 292.5888671875 139.68411254882812 293.111083984375 140.2352294921875 293.5999755859375 C 140.32135009765625 293.86669921875 140.40744018554688 294.13330078125 140.49356079101562 294.4000244140625 C 140.32135009765625 294.5555419921875 140.11468505859375 294.72222900390625 139.87356567382812 294.9000244140625 C 139.6439208984375 295.066650390625 139.39706420898438 295.24444580078125 139.13299560546875 295.433349609375 C 138.86892700195312 295.6221923828125 138.59909057617188 295.822265625 138.32354736328125 296.0333251953125 C 138.0479736328125 296.23333740234375 137.76669311523438 296.427734375 137.47964477539062 296.61669921875 C 137.26150512695312 296.3944091796875 137.0433349609375 296.1722412109375 136.8251953125 295.95001220703125M 129.67788696289062 311.75 C 130.44717407226562 311.96112060546875 131.25088500976562 312.13330078125 132.08901977539062 312.26666259765625 C 132.92718505859375 312.388916015625 133.98922729492188 312.45001220703125 135.27517700195312 312.45001220703125 C 135.73443603515625 312.45001220703125 136.26260375976562 312.36669921875 136.85964965820312 312.20001220703125 C 137.4566650390625 312.0333251953125 137.97909545898438 311.71112060546875 138.4268798828125 311.23333740234375 C 138.87466430664062 310.74444580078125 139.09854125976562 310.066650390625 139.09854125976562 309.20001220703125 C 139.09854125976562 308.5999755859375 138.96078491210938 307.977783203125 138.68521118164062 307.3333740234375 C 138.40966796875 306.677734375 138.042236328125 306.022216796875 137.58297729492188 305.36669921875 C 137.12371826171875 304.70001220703125 136.6185302734375 304.03887939453125 136.06741333007812 303.38330078125 C 135.51629638671875 302.7166748046875 134.96517944335938 302.072265625 134.4140625 301.45001220703125 C 134.10406494140625 301.0833740234375 133.74237060546875 300.70001220703125 133.32904052734375 300.29998779296875 C 132.92718505859375 299.888916015625 132.53680419921875 299.50555419921875 132.15792846679688 299.1500244140625 C 132.38754272460938 298.9222412109375 132.6171875 298.6944580078125 132.8468017578125 298.4666748046875 C 133.15682983398438 298.81109619140625 133.50701904296875 299.20001220703125 133.89736938476562 299.63330078125 C 134.28775024414062 300.0555419921875 134.65518188476562 300.45556640625 134.99960327148438 300.8333740234375 C 135.88369750976562 301.77777099609375 136.71038818359375 302.72222900390625 137.47964477539062 303.6666259765625 C 138.2489013671875 304.5999755859375 138.86892700195312 305.53887939453125 139.33966064453125 306.48333740234375 C 139.8218994140625 307.4166259765625 140.06301879882812 308.3499755859375 140.06301879882812 309.2833251953125 C 140.06301879882812 310.183349609375 139.87930297851562 310.905517578125 139.51190185546875 311.45001220703125 C 139.15594482421875 311.99444580078125 138.71392822265625 312.4000244140625 138.18576049804688 312.6666259765625 C 137.65762329101562 312.933349609375 137.11798095703125 313.111083984375 136.56686401367188 313.20001220703125 C 136.0272216796875 313.29998779296875 135.59664916992188 313.3499755859375 135.27517700195312 313.3499755859375 C 134.08108520507812 313.3499755859375 133.0419921875 313.29443359375 132.15792846679688 313.183349609375 C 131.27383422851562 313.0833740234375 130.49307250976562 312.9666748046875 129.815673828125 312.8333740234375 C 129.76974487304688 312.47222900390625 129.72381591796875 312.111083984375 129.67788696289062 311.75M 149.51809692382812 311.683349609375 C 149.2540283203125 310.96112060546875 148.90957641601562 310.1666259765625 148.48477172851562 309.29998779296875 C 148.0714111328125 308.4222412109375 147.60641479492188 307.5333251953125 147.08975219726562 306.63330078125 C 146.57308959960938 305.73333740234375 146.0277099609375 304.88330078125 145.45361328125 304.0833740234375 C 144.87954711914062 303.2833251953125 144.29397583007812 302.594482421875 143.69692993164062 302.01666259765625 C 143.94952392578125 301.8499755859375 144.20211791992188 301.683349609375 144.4547119140625 301.51666259765625 C 145.07473754882812 302.1944580078125 145.68325805664062 302.95001220703125 146.28030395507812 303.7833251953125 C 146.87734985351562 304.61669921875 147.43994140625 305.477783203125 147.96807861328125 306.36669921875 C 148.49624633789062 307.24444580078125 148.96697998046875 308.0999755859375 149.38034057617188 308.933349609375 C 149.80514526367188 309.76666259765625 150.14959716796875 310.51666259765625 150.41366577148438 311.183349609375 C 150.11514282226562 311.3499755859375 149.81661987304688 311.51666259765625 149.51809692382812 311.683349609375M 129.91900634765625 305.2833251953125 C 129.25308227539062 305.927734375 128.44363403320312 306.6444091796875 127.49066162109375 307.433349609375 C 126.54916381835938 308.22222900390625 125.55026245117188 308.9888916015625 124.49395751953125 309.73333740234375 C 123.43765258789062 310.477783203125 122.4215087890625 311.11669921875 121.44558715820312 311.6500244140625 C 121.23892211914062 311.38330078125 121.03225708007812 311.11669921875 120.8255615234375 310.8499755859375 C 121.48004150390625 310.51666259765625 122.203369140625 310.094482421875 122.99560546875 309.5833740234375 C 123.787841796875 309.06109619140625 124.58004760742188 308.5111083984375 125.37228393554688 307.933349609375 C 126.17599487304688 307.344482421875 126.92230224609375 306.75555419921875 127.6112060546875 306.1666259765625 C 128.31158447265625 305.5777587890625 128.87991333007812 305.04998779296875 129.31622314453125 304.5833740234375 C 129.51715087890625 304.816650390625 129.71807861328125 305.04998779296875 129.91900634765625 305.2833251953125"/>
    <path stroke-width="0" fill="rgb(0, 0, 0)" opacity="1.0" d="M 170.0816650390625 312.36669921875 C 170.12759399414062 312.1666259765625 170.16778564453125 311.96112060546875 170.20220947265625 311.75 C 170.23666381835938 311.53887939453125 170.25387573242188 311.3277587890625 170.25387573242188 311.11669921875 C 170.25387573242188 310.93890380859375 170.25387573242188 310.477783203125 170.25387573242188 309.73333740234375 C 170.25387573242188 308.9888916015625 170.25387573242188 308.0555419921875 170.25387573242188 306.933349609375 C 170.25387573242188 305.81109619140625 170.25387573242188 304.5999755859375 170.25387573242188 303.29998779296875 C 170.25387573242188 302.0 170.25387573242188 300.6944580078125 170.25387573242188 299.38330078125 C 170.25387573242188 298.072265625 170.25387573242188 296.8555908203125 170.25387573242188 295.73333740234375 C 170.25387573242188 294.611083984375 170.25387573242188 293.6666259765625 170.25387573242188 292.9000244140625 C 170.25387573242188 292.13330078125 170.25387573242188 291.6444091796875 170.25387573242188 291.433349609375 C 170.25387573242188 290.9444580078125 170.24240112304688 290.54443359375 170.21945190429688 290.23333740234375 C 170.19647216796875 289.9222412109375 170.17352294921875 289.6611328125 170.15054321289062 289.45001220703125 C 170.54666137695312 289.45001220703125 170.94277954101562 289.45001220703125 171.33889770507812 289.45001220703125 C 171.31594848632812 289.6611328125 171.2987060546875 289.9222412109375 171.2872314453125 290.23333740234375 C 171.2872314453125 290.54443359375 171.2872314453125 290.9444580078125 171.2872314453125 291.433349609375 C 171.2872314453125 291.6444091796875 171.2872314453125 292.1611328125 171.2872314453125 292.98333740234375 C 171.2872314453125 293.8055419921875 171.2872314453125 294.8277587890625 171.2872314453125 296.04998779296875 C 171.2872314453125 297.2611083984375 171.2872314453125 298.572265625 171.2872314453125 299.98333740234375 C 171.2872314453125 301.38330078125 171.2872314453125 302.76666259765625 171.2872314453125 304.13330078125 C 171.2872314453125 305.5 171.2872314453125 306.75 171.2872314453125 307.88330078125 C 171.2872314453125 309.01666259765625 171.2872314453125 309.9222412109375 171.2872314453125 310.5999755859375 C 171.2872314453125 311.27777099609375 171.2872314453125 311.61669921875 171.2872314453125 311.61669921875 C 172.42391967773438 311.0833740234375 173.6754150390625 310.38330078125 175.04171752929688 309.51666259765625 C 176.40802001953125 308.638916015625 177.73989868164062 307.61669921875 179.03732299804688 306.45001220703125 C 180.34622192382812 305.272216796875 181.46566772460938 304.0 182.39569091796875 302.63330078125 C 182.60235595703125 302.9111328125 182.80902099609375 303.1888427734375 183.01568603515625 303.4666748046875 C 182.02825927734375 304.81109619140625 180.903076171875 306.04998779296875 179.64010620117188 307.183349609375 C 178.38861083984375 308.3055419921875 177.0797119140625 309.31109619140625 175.71337890625 310.20001220703125 C 174.34707641601562 311.0888671875 173.00372314453125 311.8388671875 171.683349609375 312.45001220703125 C 171.4766845703125 312.53887939453125 171.2987060546875 312.63330078125 171.14944458007812 312.73333740234375 C 171.01165771484375 312.822265625 170.902587890625 312.9000244140625 170.82223510742188 312.9666748046875 C 170.57537841796875 312.76666259765625 170.32852172851562 312.566650390625 170.0816650390625 312.36669921875M 155.11538696289062 312.51666259765625 C 156.435791015625 311.5833740234375 157.60690307617188 310.43890380859375 158.62875366210938 309.0833740234375 C 159.650634765625 307.727783203125 160.43710327148438 306.183349609375 160.98822021484375 304.45001220703125 C 161.2408447265625 303.6611328125 161.43600463867188 302.70001220703125 161.57379150390625 301.566650390625 C 161.71157836914062 300.4222412109375 161.80917358398438 299.22222900390625 161.8665771484375 297.9666748046875 C 161.92398071289062 296.70001220703125 161.95843505859375 295.4888916015625 161.96990966796875 294.3333740234375 C 161.98138427734375 293.1666259765625 161.98712158203125 292.1666259765625 161.98712158203125 291.3333740234375 C 161.98712158203125 291.0333251953125 161.97564697265625 290.74444580078125 161.95269775390625 290.4666748046875 C 161.92971801757812 290.18890380859375 161.895263671875 289.9111328125 161.849365234375 289.63330078125 C 162.2569580078125 289.63330078125 162.66455078125 289.63330078125 163.0721435546875 289.63330078125 C 163.0491943359375 289.8333740234375 163.03195190429688 290.02777099609375 163.02047729492188 290.2166748046875 C 163.02047729492188 290.405517578125 163.01473999023438 290.594482421875 163.00326538085938 290.7833251953125 C 162.99176025390625 290.96112060546875 162.98602294921875 291.1444091796875 162.98602294921875 291.3333740234375 C 162.98602294921875 292.1666259765625 162.97454833984375 293.177734375 162.95159912109375 294.36669921875 C 162.92861938476562 295.54443359375 162.876953125 296.78887939453125 162.79656982421875 298.0999755859375 C 162.71621704101562 299.4111328125 162.60714721679688 300.655517578125 162.4693603515625 301.8333740234375 C 162.34307861328125 303.0111083984375 162.15936279296875 303.99444580078125 161.91824340820312 304.7833251953125 C 161.43600463867188 306.3944091796875 160.67822265625 307.93890380859375 159.6448974609375 309.4166259765625 C 158.62301635742188 310.88330078125 157.42892456054688 312.13330078125 156.0626220703125 313.1666259765625 C 155.74688720703125 312.95001220703125 155.43112182617188 312.73333740234375 155.11538696289062 312.51666259765625"/>
    <path stroke-width="0" fill="rgb(0, 0, 0)" opacity="1.0" d="M 209.96875 288.0 C 210.25579833984375 288.36669921875 210.56005859375 288.8055419921875 210.88153076171875 289.316650390625 C 211.21450805664062 289.8277587890625 211.5474853515625 290.3499755859375 211.88043212890625 290.88330078125 C 212.21340942382812 291.4166259765625 212.50045776367188 291.9222412109375 212.7415771484375 292.4000244140625 C 212.43157958984375 292.54443359375 212.12155151367188 292.68890380859375 211.81155395507812 292.8333740234375 C 211.51303100585938 292.20001220703125 211.08822631835938 291.45556640625 210.537109375 290.5999755859375 C 209.99746704101562 289.74444580078125 209.50949096679688 289.01666259765625 209.07318115234375 288.4166259765625 C 209.3717041015625 288.27777099609375 209.67022705078125 288.138916015625 209.96875 288.0M 213.30990600585938 286.88330078125 C 213.61990356445312 287.272216796875 213.9471435546875 287.727783203125 214.29159545898438 288.25 C 214.64752197265625 288.772216796875 214.99771118164062 289.29443359375 215.3421630859375 289.816650390625 C 215.68658447265625 290.3388671875 215.9678955078125 290.81109619140625 216.18603515625 291.23333740234375 C 215.87603759765625 291.38330078125 215.5660400390625 291.5333251953125 215.25604248046875 291.683349609375 C 214.87713623046875 290.96112060546875 214.43511962890625 290.20001220703125 213.929931640625 289.4000244140625 C 213.42471313476562 288.5999755859375 212.9310302734375 287.9000244140625 212.44879150390625 287.29998779296875 C 212.73583984375 287.1611328125 213.02288818359375 287.022216796875 213.30990600585938 286.88330078125M 211.3809814453125 293.70001220703125 C 211.30062866210938 293.8555908203125 211.22024536132812 294.0555419921875 211.139892578125 294.29998779296875 C 211.05950927734375 294.54443359375 211.00210571289062 294.7166748046875 210.9676513671875 294.816650390625 C 210.68063354492188 296.01666259765625 210.25006103515625 297.27777099609375 209.67596435546875 298.5999755859375 C 209.10189819335938 299.9222412109375 208.41876220703125 301.23333740234375 207.62652587890625 302.5333251953125 C 206.84576416015625 303.8333740234375 205.97314453125 305.04998779296875 205.00869750976562 306.183349609375 C 203.573486328125 307.8721923828125 201.81683349609375 309.433349609375 199.7386474609375 310.86669921875 C 197.67196655273438 312.28887939453125 195.0943603515625 313.522216796875 192.00579833984375 314.566650390625 C 191.7130126953125 314.28887939453125 191.42022705078125 314.0111083984375 191.12744140625 313.73333740234375 C 192.9300537109375 313.24444580078125 194.62359619140625 312.594482421875 196.20806884765625 311.7833251953125 C 197.79251098632812 310.97222900390625 199.26217651367188 310.04443359375 200.61700439453125 309.0 C 201.98330688476562 307.95556640625 203.18313598632812 306.822265625 204.21649169921875 305.5999755859375 C 205.18093872070312 304.477783203125 206.04779052734375 303.26666259765625 206.81707763671875 301.9666748046875 C 207.59780883789062 300.655517578125 208.26947021484375 299.344482421875 208.83209228515625 298.0333251953125 C 209.39468383789062 296.72222900390625 209.80801391601562 295.49444580078125 210.07208251953125 294.3499755859375 C 205.61724853515625 294.3499755859375 201.162353515625 294.3499755859375 196.70751953125 294.3499755859375 C 196.908447265625 294.02777099609375 197.109375 293.70556640625 197.310302734375 293.38330078125 C 197.5513916015625 293.38330078125 198.06808471679688 293.38330078125 198.86029052734375 293.38330078125 C 199.65252685546875 293.38330078125 200.57107543945312 293.38330078125 201.61590576171875 293.38330078125 C 202.66070556640625 293.38330078125 203.70553588867188 293.38330078125 204.7503662109375 293.38330078125 C 205.80667114257812 293.38330078125 206.719482421875 293.38330078125 207.48873901367188 293.38330078125 C 208.25799560546875 293.38330078125 208.740234375 293.38330078125 208.9354248046875 293.38330078125 C 209.31430053710938 293.38330078125 209.61282348632812 293.36669921875 209.83099365234375 293.3333740234375 C 210.04913330078125 293.29998779296875 210.23858642578125 293.24444580078125 210.39932250976562 293.1666259765625 C 210.7265625 293.344482421875 211.05377197265625 293.522216796875 211.3809814453125 293.70001220703125M 200.01422119140625 289.0999755859375 C 199.86495971679688 289.3778076171875 199.7099609375 289.677734375 199.5491943359375 290.0 C 199.39996337890625 290.31109619140625 199.25640869140625 290.594482421875 199.11865234375 290.8499755859375 C 198.56753540039062 291.9166259765625 197.84417724609375 293.111083984375 196.9486083984375 294.433349609375 C 196.06451416015625 295.75555419921875 194.9393310546875 297.0999755859375 193.57302856445312 298.4666748046875 C 192.21820068359375 299.8333740234375 190.56484985351562 301.138916015625 188.61297607421875 302.38330078125 C 188.314453125 302.1666259765625 188.01593017578125 301.95001220703125 187.7174072265625 301.73333740234375 C 189.129638671875 300.9444580078125 190.40411376953125 300.0555419921875 191.540771484375 299.066650390625 C 192.68893432617188 298.0777587890625 193.705078125 297.06109619140625 194.58914184570312 296.01666259765625 C 195.47323608398438 294.96112060546875 196.21954345703125 293.95001220703125 196.82806396484375 292.98333740234375 C 197.43658447265625 292.01666259765625 197.89010620117188 291.155517578125 198.18862915039062 290.4000244140625 C 198.28048706054688 290.23333740234375 198.38381958007812 289.977783203125 198.49862670898438 289.63330078125 C 198.62493896484375 289.27777099609375 198.7110595703125 288.96112060546875 198.7569580078125 288.683349609375 C 199.17605590820312 288.822265625 199.59512329101562 288.96112060546875 200.01422119140625 289.0999755859375"/>
    <path stroke-width="0" fill="rgb(0, 0, 0)" opacity="1.0" d="M 244.87857055664062 290.5 C 244.87857055664062 291.1666259765625 245.11395263671875 291.727783203125 245.584716796875 292.183349609375 C 246.06692504882812 292.638916015625 246.65249633789062 292.86669921875 247.34136962890625 292.86669921875 C 248.018798828125 292.86669921875 248.5986328125 292.638916015625 249.08087158203125 292.183349609375 C 249.57455444335938 291.727783203125 249.8214111328125 291.1666259765625 249.8214111328125 290.5 C 249.8214111328125 289.844482421875 249.57455444335938 289.2833251953125 249.08087158203125 288.816650390625 C 248.5986328125 288.3388671875 248.018798828125 288.0999755859375 247.34136962890625 288.0999755859375 C 246.65249633789062 288.0999755859375 246.06692504882812 288.3388671875 245.584716796875 288.816650390625 C 245.11395263671875 289.2833251953125 244.87857055664062 289.844482421875 244.87857055664062 290.5M 243.89691162109375 290.5 C 243.89691162109375 289.888916015625 244.05191040039062 289.3277587890625 244.36190795898438 288.816650390625 C 244.67190551757812 288.29443359375 245.08526611328125 287.888916015625 245.6019287109375 287.5999755859375 C 246.11859130859375 287.29998779296875 246.69842529296875 287.1500244140625 247.34136962890625 287.1500244140625 C 247.97286987304688 287.1500244140625 248.55270385742188 287.29998779296875 249.08087158203125 287.5999755859375 C 249.6090087890625 287.888916015625 250.028076171875 288.29443359375 250.33807373046875 288.816650390625 C 250.6480712890625 289.3277587890625 250.8031005859375 289.888916015625 250.8031005859375 290.5 C 250.8031005859375 291.1221923828125 250.6480712890625 291.683349609375 250.33807373046875 292.183349609375 C 250.028076171875 292.683349609375 249.6090087890625 293.0833740234375 249.08087158203125 293.38330078125 C 248.55270385742188 293.683349609375 247.97286987304688 293.8333740234375 247.34136962890625 293.8333740234375 C 246.69842529296875 293.8333740234375 246.11859130859375 293.683349609375 245.6019287109375 293.38330078125 C 245.08526611328125 293.0833740234375 244.67190551757812 292.683349609375 244.36190795898438 292.183349609375 C 244.05191040039062 291.683349609375 243.89691162109375 291.1221923828125 243.89691162109375 290.5M 245.619140625 292.26666259765625 C 245.55026245117188 292.4111328125 245.49859619140625 292.53887939453125 245.46414184570312 292.6500244140625 C 245.4296875 292.75 245.3895263671875 292.95001220703125 245.34359741210938 293.25 C 245.1943359375 294.1500244140625 244.97042846679688 295.13330078125 244.67190551757812 296.20001220703125 C 244.37338256835938 297.26666259765625 244.01171875 298.3499755859375 243.5869140625 299.45001220703125 C 243.17355346679688 300.54998779296875 242.70281982421875 301.594482421875 242.17465209960938 302.5833740234375 C 241.64651489257812 303.572265625 241.07241821289062 304.4444580078125 240.45242309570312 305.20001220703125 C 239.44204711914062 306.4111328125 238.35128784179688 307.52777099609375 237.18017578125 308.54998779296875 C 236.009033203125 309.572265625 234.65420532226562 310.49444580078125 233.11566162109375 311.316650390625 C 231.588623046875 312.138916015625 229.791748046875 312.861083984375 227.72506713867188 313.48333740234375 C 227.42654418945312 313.1611328125 227.12802124023438 312.8388671875 226.82949829101562 312.51666259765625 C 228.93063354492188 311.96112060546875 230.7562255859375 311.29998779296875 232.30621337890625 310.5333251953125 C 233.85623168945312 309.76666259765625 235.23403930664062 308.888916015625 236.43960571289062 307.9000244140625 C 237.64517211914062 306.9000244140625 238.71868896484375 305.8055419921875 239.66018676757812 304.61669921875 C 240.49835205078125 303.572265625 241.2388916015625 302.344482421875 241.88189697265625 300.933349609375 C 242.53631591796875 299.522216796875 243.08172607421875 298.0999755859375 243.51800537109375 296.6666259765625 C 243.96578979492188 295.22222900390625 244.27005004882812 293.933349609375 244.4307861328125 292.79998779296875 C 244.12078857421875 292.79998779296875 243.48931884765625 292.79998779296875 242.53631591796875 292.79998779296875 C 241.5948486328125 292.79998779296875 240.46389770507812 292.79998779296875 239.14352416992188 292.79998779296875 C 237.83462524414062 292.79998779296875 236.46258544921875 292.79998779296875 235.02737426757812 292.79998779296875 C 233.5921630859375 292.79998779296875 232.23159790039062 292.79998779296875 230.94564819335938 292.79998779296875 C 229.65972900390625 292.79998779296875 228.5689697265625 292.79998779296875 227.67340087890625 292.79998779296875 C 226.77783203125 292.79998779296875 226.22097778320312 292.79998779296875 226.0028076171875 292.79998779296875 C 225.45172119140625 292.79998779296875 224.9752197265625 292.8055419921875 224.5733642578125 292.816650390625 C 224.1829833984375 292.8277587890625 223.7811279296875 292.844482421875 223.3677978515625 292.86669921875 C 223.3677978515625 292.48333740234375 223.3677978515625 292.0999755859375 223.3677978515625 291.7166748046875 C 223.64334106445312 291.7388916015625 223.91317749023438 291.76666259765625 224.17724609375 291.79998779296875 C 224.45281982421875 291.8333740234375 224.73983764648438 291.8555908203125 225.03836059570312 291.86669921875 C 225.348388671875 291.8778076171875 225.68133544921875 291.88330078125 226.03726196289062 291.88330078125 C 226.20947265625 291.88330078125 226.64004516601562 291.88330078125 227.32894897460938 291.88330078125 C 228.02932739257812 291.88330078125 228.89044189453125 291.88330078125 229.91229248046875 291.88330078125 C 230.94564819335938 291.88330078125 232.05364990234375 291.88330078125 233.23623657226562 291.88330078125 C 234.43032836914062 291.88330078125 235.61865234375 291.88330078125 236.80126953125 291.88330078125 C 237.98388671875 291.88330078125 239.08038330078125 291.88330078125 240.09075927734375 291.88330078125 C 241.10113525390625 291.88330078125 241.94503784179688 291.88330078125 242.6224365234375 291.88330078125 C 243.31134033203125 291.88330078125 243.73614501953125 291.88330078125 243.89691162109375 291.88330078125 C 244.06912231445312 291.88330078125 244.22412109375 291.8778076171875 244.36190795898438 291.86669921875 C 244.51116943359375 291.8555908203125 244.67767333984375 291.8277587890625 244.86135864257812 291.7833251953125 C 245.11395263671875 291.9444580078125 245.36654663085938 292.1055908203125 245.619140625 292.26666259765625"/>
    <path stroke-width="0" fill="rgb(0, 0, 0)" opacity="1.0" d="M 253.644775390625 290.183349609375 C 263.12286376953125 290.183349609375 272.6009216308594 290.183349609375 282.0789794921875 290.183349609375 C 282.0789794921875 290.50555419921875 282.0789794921875 290.8277587890625 282.0789794921875 291.1500244140625 C 272.6009216308594 291.1500244140625 263.12286376953125 291.1500244140625 253.644775390625 291.1500244140625 C 253.644775390625 290.8277587890625 253.644775390625 290.50555419921875 253.644775390625 290.183349609375M 256.65869140625 295.5 C 264.15618896484375 295.5 271.6536865234375 295.5 279.15118408203125 295.5 C 279.15118408203125 295.8055419921875 279.15118408203125 296.111083984375 279.15118408203125 296.4166259765625 C 271.6536865234375 296.4166259765625 264.15618896484375 296.4166259765625 256.65869140625 296.4166259765625 C 256.65869140625 296.111083984375 256.65869140625 295.8055419921875 256.65869140625 295.5M 254.93646240234375 299.98333740234375 C 263.51324462890625 299.98333740234375 272.0899658203125 299.98333740234375 280.666748046875 299.98333740234375 C 280.666748046875 301.7833251953125 280.666748046875 303.5833740234375 280.666748046875 305.38330078125 C 280.34527587890625 305.38330078125 280.0238037109375 305.38330078125 279.7022705078125 305.38330078125 C 279.7022705078125 303.9000244140625 279.7022705078125 302.4166259765625 279.7022705078125 300.933349609375 C 271.76849365234375 300.933349609375 263.834716796875 300.933349609375 255.90093994140625 300.933349609375 C 255.90093994140625 302.4166259765625 255.90093994140625 303.9000244140625 255.90093994140625 305.38330078125 C 255.57943725585938 305.38330078125 255.2579345703125 305.38330078125 254.93646240234375 305.38330078125 C 254.93646240234375 303.5833740234375 254.93646240234375 301.7833251953125 254.93646240234375 299.98333740234375M 267.2677001953125 286.4000244140625 C 267.6006774902344 286.4000244140625 267.93365478515625 286.4000244140625 268.2666015625 286.4000244140625 C 268.2666015625 289.56109619140625 268.2666015625 292.72222900390625 268.2666015625 295.88330078125 C 267.93365478515625 295.88330078125 267.6006774902344 295.88330078125 267.2677001953125 295.88330078125 C 267.2677001953125 292.72222900390625 267.2677001953125 289.56109619140625 267.2677001953125 286.4000244140625M 271.0394287109375 303.11669921875 C 271.36090087890625 303.11669921875 271.682373046875 303.11669921875 272.0038757324219 303.11669921875 C 272.0038757324219 306.2611083984375 272.0038757324219 309.405517578125 272.0038757324219 312.54998779296875 C 272.0038757324219 312.96112060546875 272.1072082519531 313.22222900390625 272.3138732910156 313.3333740234375 C 272.52056884765625 313.45556640625 272.99127197265625 313.51666259765625 273.72613525390625 313.51666259765625 C 273.8983459472656 313.51666259765625 274.2312927246094 313.51666259765625 274.72503662109375 313.51666259765625 C 275.21875 313.51666259765625 275.76409912109375 313.51666259765625 276.36114501953125 313.51666259765625 C 276.95819091796875 313.51666259765625 277.5207824707031 313.51666259765625 278.0489501953125 313.51666259765625 C 278.57708740234375 313.51666259765625 278.95025634765625 313.51666259765625 279.16839599609375 313.51666259765625 C 279.6161804199219 313.51666259765625 279.94915771484375 313.4111328125 280.16729736328125 313.20001220703125 C 280.38543701171875 313.0 280.54620361328125 312.5777587890625 280.6495361328125 311.933349609375 C 280.75286865234375 311.27777099609375 280.81024169921875 310.28887939453125 280.8217468261719 308.9666748046875 C 280.91357421875 309.0333251953125 281.0111999511719 309.094482421875 281.1145324707031 309.1500244140625 C 281.2293701171875 309.1944580078125 281.34417724609375 309.2388916015625 281.458984375 309.2833251953125 C 281.58526611328125 309.3277587890625 281.6943359375 309.3721923828125 281.78619384765625 309.4166259765625 C 281.7402648925781 310.7833251953125 281.6427001953125 311.8277587890625 281.493408203125 312.54998779296875 C 281.35565185546875 313.272216796875 281.1145324707031 313.76666259765625 280.77008056640625 314.0333251953125 C 280.4371337890625 314.29998779296875 279.9261779785156 314.433349609375 279.2373046875 314.433349609375 C 279.1109924316406 314.433349609375 278.78375244140625 314.433349609375 278.255615234375 314.433349609375 C 277.7274475097656 314.433349609375 277.13616943359375 314.433349609375 276.481689453125 314.433349609375 C 275.8272705078125 314.433349609375 275.24169921875 314.433349609375 274.72503662109375 314.433349609375 C 274.2083435058594 314.433349609375 273.8983459472656 314.433349609375 273.79498291015625 314.433349609375 C 273.0831298828125 314.433349609375 272.5262756347656 314.38330078125 272.12445068359375 314.2833251953125 C 271.73406982421875 314.1944580078125 271.4527587890625 314.01666259765625 271.280517578125 313.75 C 271.11981201171875 313.48333740234375 271.0394287109375 313.0833740234375 271.0394287109375 312.54998779296875 C 271.0394287109375 309.405517578125 271.0394287109375 306.2611083984375 271.0394287109375 303.11669921875M 262.8759765625 303.183349609375 C 263.2089538574219 303.183349609375 263.54193115234375 303.183349609375 263.8748779296875 303.183349609375 C 263.71417236328125 304.8388671875 263.4385986328125 306.316650390625 263.0482177734375 307.61669921875 C 262.6693115234375 308.905517578125 262.1067199707031 310.0333251953125 261.36041259765625 311.0 C 260.6256103515625 311.9666748046875 259.6439208984375 312.79443359375 258.4154052734375 313.48333740234375 C 257.1983642578125 314.183349609375 255.66555786132812 314.75555419921875 253.8170166015625 315.20001220703125 C 253.7940673828125 315.1221923828125 253.74237060546875 315.0333251953125 253.6619873046875 314.933349609375 C 253.58163452148438 314.844482421875 253.49554443359375 314.75 253.4036865234375 314.6500244140625 C 253.32330322265625 314.54998779296875 253.2486572265625 314.4666748046875 253.17977905273438 314.4000244140625 C 255.016845703125 313.977783203125 256.52667236328125 313.45001220703125 257.70928955078125 312.816650390625 C 258.90338134765625 312.1722412109375 259.8505859375 311.3944091796875 260.55096435546875 310.48333740234375 C 261.2628173828125 309.56109619140625 261.7909851074219 308.5 262.13543701171875 307.29998779296875 C 262.4913635253906 306.0888671875 262.73822021484375 304.7166748046875 262.8759765625 303.183349609375"/>
    <path stroke-width="0" fill="rgb(0, 0, 0)" opacity="1.0" d="M 299.83526611328125 297.54998779296875 C 304.3131103515625 297.54998779296875 308.79095458984375 297.54998779296875 313.2687683105469 297.54998779296875 C 313.2687683105469 297.8555908203125 313.2687683105469 298.1611328125 313.2687683105469 298.4666748046875 C 308.79095458984375 298.4666748046875 304.3131103515625 298.4666748046875 299.83526611328125 298.4666748046875 C 299.83526611328125 298.1611328125 299.83526611328125 297.8555908203125 299.83526611328125 297.54998779296875M 286.28125 312.8333740234375 C 296.01763916015625 312.8333740234375 305.7540588378906 312.8333740234375 315.4904479980469 312.8333740234375 C 315.4904479980469 313.1444091796875 315.4904479980469 313.45556640625 315.4904479980469 313.76666259765625 C 305.7540588378906 313.76666259765625 296.01763916015625 313.76666259765625 286.28125 313.76666259765625 C 286.28125 313.45556640625 286.28125 313.1444091796875 286.28125 312.8333740234375M 299.2497253417969 286.98333740234375 C 299.57122802734375 286.98333740234375 299.8927001953125 286.98333740234375 300.21417236328125 286.98333740234375 C 300.21417236328125 295.7388916015625 300.21417236328125 304.49444580078125 300.21417236328125 313.25 C 299.8927001953125 313.25 299.57122802734375 313.25 299.2497253417969 313.25 C 299.2497253417969 304.49444580078125 299.2497253417969 295.7388916015625 299.2497253417969 286.98333740234375"/>
    <path stroke-width="0" fill="rgb(0, 0, 0)" opacity="1.0" d="M 326.82281494140625 312.54998779296875 C 329.64727783203125 311.46112060546875 332.04119873046875 310.04998779296875 334.0045166015625 308.316650390625 C 335.9678955078125 306.572265625 337.5867919921875 304.7611083984375 338.86126708984375 302.88330078125 C 340.15869140625 300.95001220703125 341.1346435546875 299.0111083984375 341.7890625 297.066650390625 C 342.44354248046875 295.1221923828125 342.91424560546875 293.3277587890625 343.2012939453125 291.683349609375 C 343.2242431640625 291.5833740234375 343.24725341796875 291.3778076171875 343.27020263671875 291.066650390625 C 343.30462646484375 290.75555419921875 343.3218994140625 290.50555419921875 343.3218994140625 290.316650390625 C 343.7294921875 290.36669921875 344.1370849609375 290.4166259765625 344.544677734375 290.4666748046875 C 344.46429443359375 290.70001220703125 344.3953857421875 290.95001220703125 344.3380126953125 291.2166748046875 C 344.28057861328125 291.48333740234375 344.2403564453125 291.6722412109375 344.2174072265625 291.7833251953125 C 343.86151123046875 293.727783203125 343.3333740234375 295.70001220703125 342.6329345703125 297.70001220703125 C 341.9326171875 299.6888427734375 340.973876953125 301.5888671875 339.7568359375 303.4000244140625 C 338.45941162109375 305.344482421875 336.84051513671875 307.18890380859375 334.900146484375 308.933349609375 C 332.959716796875 310.6666259765625 330.5887756347656 312.1278076171875 327.7872619628906 313.316650390625 C 327.46575927734375 313.06109619140625 327.144287109375 312.8055419921875 326.82281494140625 312.54998779296875M 323.41278076171875 290.95001220703125 C 323.7457275390625 291.4166259765625 324.1590576171875 292.04443359375 324.65277099609375 292.8333740234375 C 325.157958984375 293.611083984375 325.6803894042969 294.4444580078125 326.22003173828125 295.3333740234375 C 326.7596435546875 296.21112060546875 327.25909423828125 297.03887939453125 327.7183837890625 297.816650390625 C 328.1776123046875 298.594482421875 328.55078125 299.227783203125 328.83782958984375 299.7166748046875 C 328.5335693359375 299.888916015625 328.22930908203125 300.06109619140625 327.925048828125 300.23333740234375 C 327.63800048828125 299.655517578125 327.24761962890625 298.95001220703125 326.75390625 298.11669921875 C 326.27166748046875 297.2833251953125 325.7550048828125 296.427734375 325.2038879394531 295.54998779296875 C 324.65277099609375 294.6611328125 324.141845703125 293.8499755859375 323.67108154296875 293.11669921875 C 323.20037841796875 292.3721923828125 322.80999755859375 291.79998779296875 322.4999694824219 291.4000244140625 C 322.80426025390625 291.25 323.1084899902344 291.0999755859375 323.41278076171875 290.95001220703125"/>
    <path stroke-width="0" fill="rgb(0, 0, 0)" opacity="1.0" d="M 378.0078125 291.75 C 377.950439453125 291.905517578125 377.9044189453125 292.03887939453125 377.8699951171875 292.1500244140625 C 377.8355712890625 292.25 377.79541015625 292.45001220703125 377.74945068359375 292.75 C 377.6002197265625 293.638916015625 377.3763427734375 294.61669921875 377.0777587890625 295.683349609375 C 376.779296875 296.75 376.4176025390625 297.8333740234375 375.9927978515625 298.933349609375 C 375.5794677734375 300.0333251953125 375.10870361328125 301.0833740234375 374.58056640625 302.0833740234375 C 374.0523681640625 303.072265625 373.478271484375 303.93890380859375 372.8582763671875 304.683349609375 C 371.847900390625 305.8944091796875 370.75714111328125 307.01666259765625 369.5860595703125 308.04998779296875 C 368.4149169921875 309.072265625 367.06005859375 309.99444580078125 365.52154541015625 310.816650390625 C 363.9945068359375 311.6278076171875 362.1976318359375 312.344482421875 360.13092041015625 312.9666748046875 C 359.8323974609375 312.6444091796875 359.53387451171875 312.322265625 359.2353515625 312.0 C 361.32501220703125 311.45556640625 363.14483642578125 310.79998779296875 364.69488525390625 310.0333251953125 C 366.25634765625 309.25555419921875 367.6341552734375 308.3721923828125 368.8282470703125 307.38330078125 C 370.0338134765625 306.3944091796875 371.11309814453125 305.29998779296875 372.0660400390625 304.0999755859375 C 372.90423583984375 303.0555419921875 373.644775390625 301.8333740234375 374.2877197265625 300.433349609375 C 374.94219970703125 299.022216796875 375.487548828125 297.5999755859375 375.92388916015625 296.1666259765625 C 376.3717041015625 294.72222900390625 376.670166015625 293.433349609375 376.8194580078125 292.29998779296875 C 376.50946044921875 292.29998779296875 375.8779296875 292.29998779296875 374.92498779296875 292.29998779296875 C 373.9835205078125 292.29998779296875 372.8582763671875 292.29998779296875 371.54937744140625 292.29998779296875 C 370.240478515625 292.29998779296875 368.868408203125 292.29998779296875 367.4332275390625 292.29998779296875 C 365.998046875 292.29998779296875 364.637451171875 292.29998779296875 363.3515625 292.29998779296875 C 362.0655517578125 292.29998779296875 360.974853515625 292.29998779296875 360.07928466796875 292.29998779296875 C 359.1837158203125 292.29998779296875 358.6268310546875 292.29998779296875 358.40869140625 292.29998779296875 C 357.8575439453125 292.29998779296875 357.381103515625 292.3055419921875 356.979248046875 292.316650390625 C 356.5888671875 292.3277587890625 356.1812744140625 292.344482421875 355.7564697265625 292.36669921875 C 355.7564697265625 291.977783203125 355.7564697265625 291.5888671875 355.7564697265625 291.20001220703125 C 356.04345703125 291.22222900390625 356.31903076171875 291.25 356.5831298828125 291.2833251953125 C 356.84716796875 291.316650390625 357.13421630859375 291.3388671875 357.4442138671875 291.3499755859375 C 357.7542724609375 291.361083984375 358.08721923828125 291.36669921875 358.443115234375 291.36669921875 C 358.6153564453125 291.36669921875 359.0458984375 291.36669921875 359.73480224609375 291.36669921875 C 360.4351806640625 291.36669921875 361.29632568359375 291.36669921875 362.31817626953125 291.36669921875 C 363.3515625 291.36669921875 364.45947265625 291.36669921875 365.64208984375 291.36669921875 C 366.836181640625 291.36669921875 368.018798828125 291.36669921875 369.18994140625 291.36669921875 C 370.37255859375 291.36669921875 371.468994140625 291.36669921875 372.4793701171875 291.36669921875 C 373.50128173828125 291.36669921875 374.35089111328125 291.36669921875 375.0283203125 291.36669921875 C 375.71722412109375 291.36669921875 376.14202880859375 291.36669921875 376.302734375 291.36669921875 C 376.4749755859375 291.36669921875 376.6300048828125 291.361083984375 376.767822265625 291.3499755859375 C 376.91705322265625 291.3388671875 377.0777587890625 291.31109619140625 377.25 291.26666259765625 C 377.50262451171875 291.427734375 377.75518798828125 291.5888671875 378.0078125 291.75"/>
    <path stroke-width="0" fill="rgb(0, 0, 0)" opacity="1.0" d="M 386.9117431640625 312.9666748046875 C 388.7833251953125 312.9222412109375 390.9935302734375 312.861083984375 393.54241943359375 312.7833251953125 C 396.102783203125 312.6944580078125 398.846923828125 312.5999755859375 401.77471923828125 312.5 C 404.7139892578125 312.388916015625 407.6590576171875 312.26666259765625 410.60980224609375 312.13330078125 C 410.60406494140625 312.433349609375 410.598388671875 312.73333740234375 410.59259033203125 313.0333251953125 C 407.72216796875 313.155517578125 404.8460693359375 313.27777099609375 401.96417236328125 313.4000244140625 C 399.09375 313.522216796875 396.37261962890625 313.6278076171875 393.80078125 313.7166748046875 C 391.2288818359375 313.816650390625 388.978515625 313.9000244140625 387.049560546875 313.9666748046875 C 387.003662109375 313.63330078125 386.95770263671875 313.29998779296875 386.9117431640625 312.9666748046875M 386.515625 302.73333740234375 C 395.62060546875 302.73333740234375 404.7254638671875 302.73333740234375 413.8304443359375 302.73333740234375 C 413.8304443359375 303.04998779296875 413.8304443359375 303.36669921875 413.8304443359375 303.683349609375 C 404.7254638671875 303.683349609375 395.62060546875 303.683349609375 386.515625 303.683349609375 C 386.515625 303.36669921875 386.515625 303.04998779296875 386.515625 302.73333740234375M 391.94073486328125 296.61669921875 C 397.296875 296.61669921875 402.653076171875 296.61669921875 408.00927734375 296.61669921875 C 408.00927734375 296.93890380859375 408.00927734375 297.2611083984375 408.00927734375 297.5833740234375 C 402.653076171875 297.5833740234375 397.296875 297.5833740234375 391.94073486328125 297.5833740234375 C 391.94073486328125 297.2611083984375 391.94073486328125 296.93890380859375 391.94073486328125 296.61669921875M 396.5390625 303.26666259765625 C 396.8778076171875 303.3778076171875 397.216552734375 303.4888916015625 397.55523681640625 303.5999755859375 C 397.050048828125 304.6444091796875 396.4989013671875 305.76666259765625 395.90185546875 306.9666748046875 C 395.3048095703125 308.155517578125 394.6905517578125 309.3277587890625 394.05908203125 310.48333740234375 C 393.4390869140625 311.6278076171875 392.83056640625 312.6500244140625 392.2335205078125 313.54998779296875 C 391.9234619140625 313.43890380859375 391.613525390625 313.3277587890625 391.303466796875 313.2166748046875 C 391.9005126953125 312.3277587890625 392.5205078125 311.29998779296875 393.16351318359375 310.13330078125 C 393.8179931640625 308.95556640625 394.4437255859375 307.7611083984375 395.040771484375 306.54998779296875 C 395.6378173828125 305.3277587890625 396.13726806640625 304.23333740234375 396.5390625 303.26666259765625M 404.0308837890625 306.76666259765625 C 404.2777099609375 306.61669921875 404.5245361328125 306.4666748046875 404.77142333984375 306.316650390625 C 405.8277587890625 307.1722412109375 406.8782958984375 308.111083984375 407.923095703125 309.13330078125 C 408.9678955078125 310.155517578125 409.9266357421875 311.1666259765625 410.79925537109375 312.1666259765625 C 411.671875 313.1666259765625 412.3607177734375 314.072265625 412.865966796875 314.88330078125 C 412.60186767578125 315.0555419921875 412.3377685546875 315.227783203125 412.07373046875 315.4000244140625 C 411.5455322265625 314.5888671875 410.84521484375 313.677734375 409.97259521484375 312.6666259765625 C 409.0999755859375 311.655517578125 408.15277099609375 310.6278076171875 407.130859375 309.5833740234375 C 406.1090087890625 308.52777099609375 405.07568359375 307.5888671875 404.0308837890625 306.76666259765625M 399.8458251953125 287.4000244140625 C 398.938720703125 288.76666259765625 397.73895263671875 290.1722412109375 396.246337890625 291.61669921875 C 394.76519775390625 293.04998779296875 393.11181640625 294.4166259765625 391.2862548828125 295.7166748046875 C 389.47216796875 297.01666259765625 387.6064453125 298.1611328125 385.68896484375 299.1500244140625 C 385.64306640625 299.06109619140625 385.585693359375 298.977783203125 385.5167236328125 298.9000244140625 C 385.4478759765625 298.81109619140625 385.3790283203125 298.72222900390625 385.31005859375 298.63330078125 C 385.252685546875 298.54443359375 385.17803955078125 298.4666748046875 385.086181640625 298.4000244140625 C 387.003662109375 297.4666748046875 388.8751220703125 296.3499755859375 390.70068359375 295.04998779296875 C 392.53778076171875 293.75 394.20263671875 292.361083984375 395.6951904296875 290.88330078125 C 397.19927978515625 289.3944091796875 398.3934326171875 287.9111328125 399.2774658203125 286.433349609375 C 399.58746337890625 286.433349609375 399.8974609375 286.433349609375 400.20751953125 286.433349609375 C 401.080078125 287.63330078125 402.107666015625 288.816650390625 403.290283203125 289.98333740234375 C 404.472900390625 291.138916015625 405.73583984375 292.2388916015625 407.0792236328125 293.2833251953125 C 408.422607421875 294.3277587890625 409.78887939453125 295.27777099609375 411.17816162109375 296.13330078125 C 412.5673828125 296.9888916015625 413.9222412109375 297.70556640625 415.24267578125 298.2833251953125 C 415.16229248046875 298.361083984375 415.05322265625 298.4888916015625 414.9154052734375 298.6666259765625 C 414.78912353515625 298.8333740234375 414.6800537109375 298.97222900390625 414.58819580078125 299.0833740234375 C 412.820068359375 298.227783203125 411.01171875 297.183349609375 409.16314697265625 295.95001220703125 C 407.3145751953125 294.70556640625 405.57513427734375 293.3499755859375 403.9447021484375 291.88330078125 C 402.3258056640625 290.405517578125 400.95953369140625 288.9111328125 399.8458251953125 287.4000244140625"/>
    <path stroke-width="0" fill="rgb(0, 0, 0)" opacity="1.0" d="M 429.14111328125 290.98333740234375 C 429.40521240234375 290.8555908203125 429.6693115234375 290.727783203125 429.933349609375 290.5999755859375 C 430.6796875 291.36669921875 431.397216796875 292.21112060546875 432.086181640625 293.13330078125 C 432.7864990234375 294.04443359375 433.41229248046875 294.9444580078125 433.96337890625 295.8333740234375 C 434.5145263671875 296.72222900390625 434.945068359375 297.52777099609375 435.255126953125 298.25 C 434.95654296875 298.4000244140625 434.6580810546875 298.54998779296875 434.3594970703125 298.70001220703125 C 434.072509765625 297.9666748046875 433.6591796875 297.1500244140625 433.1195068359375 296.25 C 432.579833984375 295.3388671875 431.9598388671875 294.427734375 431.259521484375 293.51666259765625 C 430.570556640625 292.594482421875 429.864501953125 291.75 429.14111328125 290.98333740234375M 418.1187744140625 311.01666259765625 C 419.2440185546875 310.54998779296875 420.547119140625 309.99444580078125 422.02825927734375 309.3499755859375 C 423.5208740234375 308.6944580078125 425.111083984375 308.0 426.79888916015625 307.26666259765625 C 428.4866943359375 306.522216796875 430.18023681640625 305.77777099609375 431.8795166015625 305.0333251953125 C 431.9483642578125 305.3333740234375 432.01727294921875 305.63330078125 432.086181640625 305.933349609375 C 430.490234375 306.63330078125 428.8770751953125 307.3499755859375 427.2467041015625 308.0833740234375 C 425.61627197265625 308.8055419921875 424.049072265625 309.5 422.544921875 310.1666259765625 C 421.0523681640625 310.822265625 419.708984375 311.405517578125 418.514892578125 311.9166259765625 C 418.38287353515625 311.61669921875 418.2508544921875 311.316650390625 418.1187744140625 311.01666259765625M 438.42401123046875 305.48333740234375 C 438.67657470703125 305.322265625 438.92919921875 305.1611328125 439.1817626953125 305.0 C 439.99700927734375 305.74444580078125 440.84088134765625 306.53887939453125 441.7135009765625 307.38330078125 C 442.5860595703125 308.227783203125 443.44146728515625 309.0833740234375 444.2796630859375 309.95001220703125 C 445.1177978515625 310.8055419921875 445.892822265625 311.6278076171875 446.6046142578125 312.4166259765625 C 447.3280029296875 313.1944580078125 447.9307861328125 313.888916015625 448.4129638671875 314.5 C 448.1259765625 314.70556640625 447.8388671875 314.9111328125 447.5518798828125 315.11669921875 C 447.06964111328125 314.49444580078125 446.47833251953125 313.78887939453125 445.7779541015625 313.0 C 445.089111328125 312.21112060546875 444.331298828125 311.38330078125 443.504638671875 310.51666259765625 C 442.677978515625 309.638916015625 441.8282470703125 308.76666259765625 440.9556884765625 307.9000244140625 C 440.0831298828125 307.0333251953125 439.23919677734375 306.227783203125 438.42401123046875 305.48333740234375M 443.09130859375 287.88330078125 C 443.42425537109375 287.9222412109375 443.7572021484375 287.96112060546875 444.0902099609375 288.0 C 443.619384765625 291.77777099609375 442.99365234375 295.11669921875 442.212890625 298.01666259765625 C 441.43212890625 300.905517578125 440.3758544921875 303.4388427734375 439.04400634765625 305.61669921875 C 437.7236328125 307.7833251953125 436.02435302734375 309.6611328125 433.9461669921875 311.25 C 431.8680419921875 312.8388671875 429.296142578125 314.21112060546875 426.23052978515625 315.36669921875 C 426.18463134765625 315.29998779296875 426.1099853515625 315.2166748046875 426.00665283203125 315.11669921875 C 425.914794921875 315.02777099609375 425.81719970703125 314.93890380859375 425.7138671875 314.8499755859375 C 425.61053466796875 314.772216796875 425.5186767578125 314.70001220703125 425.4383544921875 314.63330078125 C 428.515380859375 313.566650390625 431.0872802734375 312.2611083984375 433.1539306640625 310.7166748046875 C 435.23211669921875 309.1722412109375 436.9256591796875 307.322265625 438.23455810546875 305.1666259765625 C 439.554931640625 303.0111083984375 440.5882568359375 300.5111083984375 441.3345947265625 297.6666259765625 C 442.0809326171875 294.81109619140625 442.66650390625 291.54998779296875 443.09130859375 287.88330078125M 422.38995361328125 287.95001220703125 C 422.699951171875 287.93890380859375 423.00994873046875 287.927734375 423.3199462890625 287.9166259765625 C 423.4635009765625 295.0833740234375 423.60699462890625 302.25 423.75048828125 309.4166259765625 C 423.4290771484375 309.427734375 423.1075439453125 309.43890380859375 422.78607177734375 309.45001220703125 C 422.654052734375 302.2833251953125 422.52197265625 295.11669921875 422.38995361328125 287.95001220703125"/>
    <path stroke-width="0" fill="rgb(0, 0, 0)" opacity="1.0" d="M 451.6163330078125 288.79998779296875 C 461.352783203125 288.79998779296875 471.08917236328125 288.79998779296875 480.8255615234375 288.79998779296875 C 480.8255615234375 289.1221923828125 480.8255615234375 289.4444580078125 480.8255615234375 289.76666259765625 C 471.08917236328125 289.76666259765625 461.352783203125 289.76666259765625 451.6163330078125 289.76666259765625 C 451.6163330078125 289.4444580078125 451.6163330078125 289.1221923828125 451.6163330078125 288.79998779296875M 465.1187744140625 289.13330078125 C 465.4344482421875 289.13330078125 465.750244140625 289.13330078125 466.06597900390625 289.13330078125 C 466.06597900390625 297.8333740234375 466.06597900390625 306.5333251953125 466.06597900390625 315.23333740234375 C 465.750244140625 315.23333740234375 465.4344482421875 315.23333740234375 465.1187744140625 315.23333740234375 C 465.1187744140625 306.5333251953125 465.1187744140625 297.8333740234375 465.1187744140625 289.13330078125M 465.73876953125 296.54998779296875 C 465.92822265625 296.3388671875 466.11767578125 296.1278076171875 466.30712890625 295.9166259765625 C 467.3863525390625 296.405517578125 468.5001220703125 296.95001220703125 469.648193359375 297.54998779296875 C 470.807861328125 298.138916015625 471.944580078125 298.75 473.0582275390625 299.38330078125 C 474.1719970703125 300.01666259765625 475.205322265625 300.6278076171875 476.1583251953125 301.2166748046875 C 477.12274169921875 301.79443359375 477.949462890625 302.322265625 478.6383056640625 302.79998779296875 C 478.4488525390625 303.072265625 478.2593994140625 303.344482421875 478.0699462890625 303.61669921875 C 477.392578125 303.1278076171875 476.5716552734375 302.5888671875 475.607177734375 302.0 C 474.6541748046875 301.4000244140625 473.620849609375 300.7833251953125 472.50714111328125 300.1500244140625 C 471.3934326171875 299.50555419921875 470.25677490234375 298.8721923828125 469.09710693359375 298.25 C 467.9375 297.6278076171875 466.8179931640625 297.06109619140625 465.73876953125 296.54998779296875"/>
  </g>
</svg>
