<?xml version="1.0" ?>
<svg xmlns="http://www.w3.org/2000/svg" version="1.1" width="600" height="600">
  <defs/>
  <g>
    <path stroke-width="0" fill="rgb(0, 0, 0)" opacity="1.0" d="M 121.22015380859375 263.625732421875 C 131.53280639648438 263.625732421875 141.84542846679688 263.625732421875 152.15805053710938 263.625732421875 C 152.15805053710938 264.51513671875 152.15805053710938 265.404541015625 152.15805053710938 266.2939453125 C 141.84542846679688 266.2939453125 131.53280639648438 266.2939453125 121.22015380859375 266.2939453125 C 121.22015380859375 265.404541015625 121.22015380859375 264.51513671875 121.22015380859375 263.625732421875M 122.6090087890625 289.354736328125 C 132.20327758789062 289.354736328125 141.79751586914062 289.354736328125 151.39178466796875 289.354736328125 C 151.39178466796875 290.244140625 151.39178466796875 291.133544921875 151.39178466796875 292.02294921875 C 141.79751586914062 292.02294921875 132.20327758789062 292.02294921875 122.6090087890625 292.02294921875 C 122.6090087890625 291.133544921875 122.6090087890625 290.244140625 122.6090087890625 289.354736328125M 120.02288818359375 322.7548828125 C 122.73672485351562 322.0242919921875 125.84967041015625 321.1507568359375 129.36172485351562 320.13433837890625 C 132.90567016601562 319.11785888671875 136.67312622070312 318.02197265625 140.66409301757812 316.84674072265625 C 144.68698120117188 315.6396484375 148.725830078125 314.46441650390625 152.7806396484375 313.3209228515625 C 152.9083251953125 314.2103271484375 153.03604125976562 315.0997314453125 153.16375732421875 315.9891357421875 C 147.38485717773438 317.672607421875 141.62191772460938 319.3719482421875 135.87493896484375 321.0872802734375 C 130.159912109375 322.802490234375 125.16323852539062 324.29541015625 120.88491821289062 325.5660400390625 C 120.59756469726562 324.62896728515625 120.31024169921875 323.69189453125 120.02288818359375 322.7548828125M 159.77276611328125 281.6837158203125 C 159.77276611328125 285.94012451171875 159.77276611328125 290.196533203125 159.77276611328125 294.45294189453125 C 171.79351806640625 294.45294189453125 183.81427001953125 294.45294189453125 195.83502197265625 294.45294189453125 C 195.83502197265625 290.196533203125 195.83502197265625 285.94012451171875 195.83502197265625 281.6837158203125 C 183.81427001953125 281.6837158203125 171.79351806640625 281.6837158203125 159.77276611328125 281.6837158203125M 159.77276611328125 297.12109375 C 159.77276611328125 301.4569091796875 159.77276611328125 305.792724609375 159.77276611328125 310.12860107421875 C 171.79351806640625 310.12860107421875 183.81427001953125 310.12860107421875 195.83502197265625 310.12860107421875 C 195.83502197265625 305.792724609375 195.83502197265625 301.4569091796875 195.83502197265625 297.12109375 C 183.81427001953125 297.12109375 171.79351806640625 297.12109375 159.77276611328125 297.12109375M 159.77276611328125 266.1986083984375 C 159.77276611328125 270.43914794921875 159.77276611328125 274.6796875 159.77276611328125 278.920166015625 C 171.79351806640625 278.920166015625 183.81427001953125 278.920166015625 195.83502197265625 278.920166015625 C 195.83502197265625 274.6796875 195.83502197265625 270.43914794921875 195.83502197265625 266.1986083984375 C 183.81427001953125 266.1986083984375 171.79351806640625 266.1986083984375 159.77276611328125 266.1986083984375M 157.09085083007812 263.5303955078125 C 170.88360595703125 263.5303955078125 184.67633056640625 263.5303955078125 198.46905517578125 263.5303955078125 C 198.46905517578125 279.9683837890625 198.46905517578125 296.40643310546875 198.46905517578125 312.84442138671875 C 184.67633056640625 312.84442138671875 170.88360595703125 312.84442138671875 157.09085083007812 312.84442138671875 C 157.09085083007812 296.40643310546875 157.09085083007812 279.9683837890625 157.09085083007812 263.5303955078125M 182.0902099609375 311.2244873046875 C 182.98416137695312 311.2244873046875 183.87814331054688 311.2244873046875 184.77212524414062 311.2244873046875 C 184.77212524414062 319.41961669921875 184.77212524414062 327.61480712890625 184.77212524414062 335.80999755859375 C 184.77212524414062 336.73114013671875 184.97964477539062 337.334716796875 185.39471435546875 337.62054443359375 C 185.8416748046875 337.938232421875 186.79953002929688 338.0970458984375 188.2681884765625 338.0970458984375 C 188.74710083007812 338.0970458984375 189.70492553710938 338.0970458984375 191.14166259765625 338.0970458984375 C 192.6103515625 338.0970458984375 194.1109619140625 338.0970458984375 195.64346313476562 338.0970458984375 C 197.17599487304688 338.0970458984375 198.24557495117188 338.0970458984375 198.85220336914062 338.0970458984375 C 199.7142333984375 338.0970458984375 200.352783203125 337.8587646484375 200.76785278320312 337.38232421875 C 201.21484375 336.9058837890625 201.53411865234375 335.87353515625 201.72567749023438 334.2852783203125 C 201.94918823242188 332.69708251953125 202.09283447265625 330.31475830078125 202.15670776367188 327.1383056640625 C 202.41213989257812 327.265380859375 202.66754150390625 327.4083251953125 202.9229736328125 327.567138671875 C 203.2103271484375 327.6942138671875 203.51364135742188 327.8212890625 203.83291625976562 327.9483642578125 C 204.18411254882812 328.07537841796875 204.4874267578125 328.170654296875 204.74285888671875 328.2342529296875 C 204.67898559570312 331.6011962890625 204.47146606445312 334.17413330078125 204.12026977539062 335.95294189453125 C 203.80099487304688 337.76348876953125 203.25820922851562 339.0023193359375 202.491943359375 339.6693115234375 C 201.72567749023438 340.33642578125 200.60821533203125 340.669921875 199.13955688476562 340.669921875 C 198.88412475585938 340.669921875 198.21365356445312 340.669921875 197.12811279296875 340.669921875 C 196.07449340820312 340.669921875 194.90911865234375 340.669921875 193.63201904296875 340.669921875 C 192.3868408203125 340.669921875 191.23745727539062 340.669921875 190.183837890625 340.669921875 C 189.16217041015625 340.669921875 188.49169921875 340.669921875 188.17242431640625 340.669921875 C 186.57601928710938 340.669921875 185.33084106445312 340.5428466796875 184.4368896484375 340.28875732421875 C 183.5748291015625 340.06640625 182.96820068359375 339.6058349609375 182.61700439453125 338.906982421875 C 182.26580810546875 338.20819091796875 182.0902099609375 337.17584228515625 182.0902099609375 335.80999755859375 C 182.0902099609375 327.61480712890625 182.0902099609375 319.41961669921875 182.0902099609375 311.2244873046875M 167.05227661132812 311.3197021484375 C 167.96221923828125 311.3197021484375 168.87216186523438 311.3197021484375 169.7821044921875 311.3197021484375 C 169.30319213867188 315.1632080078125 168.55288696289062 318.67315673828125 167.53118896484375 321.849609375 C 166.509521484375 324.9942626953125 165.07275390625 327.837158203125 163.22097778320312 330.3782958984375 C 161.40109252929688 332.91943359375 159.05441284179688 335.1429443359375 156.180908203125 337.048828125 C 153.30743408203125 338.9864501953125 149.7794189453125 340.622314453125 145.596923828125 341.95635986328125 C 145.46920776367188 341.7022705078125 145.29360961914062 341.4322509765625 145.07009887695312 341.1463623046875 C 144.8785400390625 340.89227294921875 144.65505981445312 340.622314453125 144.39962768554688 340.33642578125 C 144.1761474609375 340.082275390625 143.96859741210938 339.8917236328125 143.77703857421875 339.7646484375 C 147.86376953125 338.52581787109375 151.29598999023438 337.00115966796875 154.07369995117188 335.1905517578125 C 156.88333129882812 333.4117431640625 159.16616821289062 331.3153076171875 160.92218017578125 328.9012451171875 C 162.67819213867188 326.4871826171875 164.0191650390625 323.8189697265625 164.945068359375 320.89666748046875 C 165.90289306640625 317.974365234375 166.60528564453125 314.78204345703125 167.05227661132812 311.3197021484375M 135.68338012695312 264.7215576171875 C 136.57736206054688 264.7215576171875 137.47134399414062 264.7215576171875 138.36529541015625 264.7215576171875 C 138.36529541015625 282.716064453125 138.36529541015625 300.71044921875 138.36529541015625 318.7049560546875 C 137.47134399414062 318.95904541015625 136.57736206054688 319.213134765625 135.68338012695312 319.46728515625 C 135.68338012695312 301.21875 135.68338012695312 282.97015380859375 135.68338012695312 264.7215576171875"/>
    <path stroke-width="0" fill="rgb(0, 0, 0)" opacity="1.0" d="M 236.25543212890625 290.9747314453125 C 255.60357666015625 288.687744140625 274.95172119140625 286.40069580078125 294.29986572265625 284.1136474609375 C 294.44354248046875 284.9713134765625 294.58721923828125 285.82891845703125 294.73089599609375 286.6865234375 C 275.36676025390625 288.94183349609375 256.0026550292969 291.19708251953125 236.6385498046875 293.452392578125 C 236.51083374023438 292.62646484375 236.38311767578125 291.80059814453125 236.25543212890625 290.9747314453125M 273.51495361328125 263.625732421875 C 274.08966064453125 263.1492919921875 274.66436767578125 262.67279052734375 275.23907470703125 262.1962890625 C 277.3462829589844 263.657470703125 279.50140380859375 265.2774658203125 281.70440673828125 267.0562744140625 C 283.90740966796875 268.80328369140625 285.9507751464844 270.55029296875 287.8345031738281 272.29736328125 C 289.75018310546875 274.04443359375 291.31463623046875 275.5849609375 292.5278625488281 276.9190673828125 C 291.9212341308594 277.45904541015625 291.31463623046875 277.9990234375 290.7080078125 278.5390625 C 289.4947509765625 277.2049560546875 287.9302978515625 275.68023681640625 286.0146484375 273.9649658203125 C 284.13092041015625 272.21795654296875 282.0875244140625 270.42327880859375 279.884521484375 268.5809326171875 C 277.71343994140625 266.7386474609375 275.59027099609375 265.08685302734375 273.51495361328125 263.625732421875M 239.32046508789062 260.14752197265625 C 240.16656494140625 260.401611328125 241.01263427734375 260.65576171875 241.85870361328125 260.909912109375 C 239.5599365234375 266.2144775390625 236.87799072265625 271.32855224609375 233.81295776367188 276.25201416015625 C 230.74789428710938 281.1436767578125 227.42742919921875 285.7177734375 223.85153198242188 289.97418212890625 C 220.30755615234375 294.1988525390625 216.63589477539062 297.962890625 212.83648681640625 301.266357421875 C 212.70880126953125 301.0758056640625 212.5172119140625 300.8375244140625 212.26181030273438 300.5516357421875 C 212.038330078125 300.2657470703125 211.79885864257812 299.99578857421875 211.54342651367188 299.74169921875 C 211.28802490234375 299.455810546875 211.06451416015625 299.24932861328125 210.87295532226562 299.122314453125 C 214.67233276367188 296.0093994140625 218.32806396484375 292.4041748046875 221.840087890625 288.3065185546875 C 225.38406372070312 284.17718505859375 228.64068603515625 279.730224609375 231.60995483398438 274.965576171875 C 234.61114501953125 270.169189453125 237.18133544921875 265.22979736328125 239.32046508789062 260.14752197265625M 228.01809692382812 282.68426513671875 C 228.89608764648438 281.79486083984375 229.77410888671875 280.90545654296875 230.65213012695312 280.01611328125 C 230.65213012695312 280.0478515625 230.65213012695312 280.07958984375 230.65213012695312 280.111328125 C 230.65213012695312 300.5040283203125 230.65213012695312 320.89666748046875 230.65213012695312 341.289306640625 C 229.77410888671875 341.289306640625 228.89608764648438 341.289306640625 228.01809692382812 341.289306640625 C 228.01809692382812 321.7542724609375 228.01809692382812 302.21929931640625 228.01809692382812 282.68426513671875M 260.2490234375 260.2427978515625 C 261.14300537109375 260.2427978515625 262.0369873046875 260.2427978515625 262.93096923828125 260.2427978515625 C 263.4418029785156 271.04266357421875 264.3038330078125 281.1278076171875 265.51708984375 290.498291015625 C 266.7303466796875 299.8687744140625 268.358642578125 308.111572265625 270.40203857421875 315.22674560546875 C 272.477294921875 322.3101806640625 275.0474853515625 327.90069580078125 278.112548828125 331.998291015625 C 281.1776123046875 336.0640869140625 284.76947021484375 338.255859375 288.88812255859375 338.573486328125 C 290.4844970703125 338.636962890625 291.74566650390625 337.1917724609375 292.6715393066406 334.2376708984375 C 293.6293640136719 331.2835693359375 294.4115905761719 326.99542236328125 295.0182189941406 321.3731689453125 C 295.27362060546875 321.50018310546875 295.529052734375 321.64312744140625 295.78448486328125 321.80194091796875 C 296.07183837890625 321.92901611328125 296.35919189453125 322.0560302734375 296.64654541015625 322.18310546875 C 296.9658203125 322.3101806640625 297.22125244140625 322.40545654296875 297.41278076171875 322.468994140625 C 296.93389892578125 327.1065673828125 296.311279296875 330.8388671875 295.5450439453125 333.6658935546875 C 294.77874755859375 336.492919921875 293.8528747558594 338.50994873046875 292.767333984375 339.71697998046875 C 291.7137145996094 340.955810546875 290.420654296875 341.54345703125 288.88812255859375 341.47991943359375 C 284.96099853515625 341.321044921875 281.5128173828125 339.79638671875 278.5435791015625 336.9058837890625 C 275.6062316894531 334.04705810546875 273.08392333984375 330.1241455078125 270.9767150878906 325.13720703125 C 268.8695068359375 320.118408203125 267.11346435546875 314.2420654296875 265.70867919921875 307.508056640625 C 264.3038330078125 300.7740478515625 263.17041015625 293.4046630859375 262.308349609375 285.400146484375 C 261.4463195800781 277.36376953125 260.7598876953125 268.97802734375 260.2490234375 260.2427978515625"/>
    <path stroke-width="0" fill="rgb(0, 0, 0)" opacity="1.0" d="M 336.779541015625 336.0958251953125 C 353.97259521484375 336.0958251953125 371.1656494140625 336.0958251953125 388.358642578125 336.0958251953125 C 388.358642578125 336.9852294921875 388.358642578125 337.8746337890625 388.358642578125 338.7640380859375 C 371.1656494140625 338.7640380859375 353.97259521484375 338.7640380859375 336.779541015625 338.7640380859375 C 336.779541015625 337.8746337890625 336.779541015625 336.9852294921875 336.779541015625 336.0958251953125M 340.275634765625 290.5458984375 C 355.7286376953125 290.5458984375 371.18157958984375 290.5458984375 386.634521484375 290.5458984375 C 386.634521484375 291.435302734375 386.634521484375 292.32470703125 386.634521484375 293.214111328125 C 371.18157958984375 293.214111328125 355.7286376953125 293.214111328125 340.275634765625 293.214111328125 C 340.275634765625 292.32470703125 340.275634765625 291.435302734375 340.275634765625 290.5458984375M 362.16204833984375 259.52813720703125 C 363.07196044921875 259.52813720703125 363.98193359375 259.52813720703125 364.891845703125 259.52813720703125 C 364.891845703125 285.4794921875 364.891845703125 311.430908203125 364.891845703125 337.38232421875 C 363.98193359375 337.38232421875 363.07196044921875 337.38232421875 362.16204833984375 337.38232421875 C 362.16204833984375 311.430908203125 362.16204833984375 285.4794921875 362.16204833984375 259.52813720703125M 305.41064453125 276.442626953125 C 315.70733642578125 276.442626953125 326.00396728515625 276.442626953125 336.3006591796875 276.442626953125 C 336.3006591796875 277.33203125 336.3006591796875 278.221435546875 336.3006591796875 279.11077880859375 C 326.00396728515625 279.11077880859375 315.70733642578125 279.11077880859375 305.41064453125 279.11077880859375 C 305.41064453125 278.221435546875 305.41064453125 277.33203125 305.41064453125 276.442626953125M 321.31060791015625 299.97991943359375 C 322.2365417480469 298.89990234375 323.16241455078125 297.8199462890625 324.08831787109375 296.739990234375 C 324.08831787109375 311.62152099609375 324.08831787109375 326.5030517578125 324.08831787109375 341.3846435546875 C 323.16241455078125 341.3846435546875 322.2365417480469 341.3846435546875 321.31060791015625 341.3846435546875 C 321.31060791015625 327.5830078125 321.31060791015625 313.781494140625 321.31060791015625 299.97991943359375M 321.31060791015625 258.95635986328125 C 322.2365417480469 258.95635986328125 323.16241455078125 258.95635986328125 324.08831787109375 258.95635986328125 C 324.08831787109375 265.3092041015625 324.08831787109375 271.662109375 324.08831787109375 278.014892578125 C 323.16241455078125 278.014892578125 322.2365417480469 278.014892578125 321.31060791015625 278.014892578125 C 321.31060791015625 271.662109375 321.31060791015625 265.3092041015625 321.31060791015625 258.95635986328125M 323.9925537109375 297.2164306640625 C 324.7268981933594 297.75640869140625 325.87628173828125 298.6934814453125 327.44073486328125 300.027587890625 C 329.00518798828125 301.32989501953125 330.681396484375 302.743408203125 332.4693603515625 304.26806640625 C 334.2891845703125 305.792724609375 335.96539306640625 307.206298828125 337.4979248046875 308.50860595703125 C 339.03045654296875 309.7791748046875 340.1319580078125 310.7161865234375 340.80242919921875 311.3197021484375 C 340.227783203125 312.08209228515625 339.653076171875 312.84442138671875 339.078369140625 313.6068115234375 C 338.2801513671875 312.81268310546875 337.1307373046875 311.74853515625 335.63018798828125 310.4144287109375 C 334.12957763671875 309.048583984375 332.501220703125 307.60333251953125 330.7452392578125 306.07861328125 C 328.9892578125 304.553955078125 327.3289794921875 303.14044189453125 325.7645263671875 301.838134765625 C 324.23199462890625 300.5357666015625 323.03472900390625 299.5828857421875 322.17266845703125 298.9793701171875 C 322.779296875 298.3917236328125 323.38592529296875 297.8040771484375 323.9925537109375 297.2164306640625M 335.19915771484375 276.442626953125 C 335.422607421875 276.442626953125 335.6461181640625 276.442626953125 335.86962890625 276.442626953125 C 336.0771484375 276.3790283203125 336.28466796875 276.3155517578125 336.4921875 276.25201416015625 C 337.0509033203125 276.6173095703125 337.60968017578125 276.9825439453125 338.16839599609375 277.347900390625 C 335.90155029296875 282.6207275390625 332.900390625 287.6712646484375 329.164794921875 292.4993896484375 C 325.4612121582031 297.29583740234375 321.45428466796875 301.6793212890625 317.1440734863281 305.64984130859375 C 312.8338623046875 309.588623046875 308.58746337890625 312.97149658203125 304.40496826171875 315.79852294921875 C 304.2772216796875 315.54443359375 304.0856628417969 315.30615234375 303.83026123046875 315.08380126953125 C 303.60675048828125 314.8297119140625 303.3832702636719 314.5914306640625 303.1597900390625 314.369140625 C 302.936279296875 314.146728515625 302.7127685546875 313.9720458984375 302.4892883300781 313.844970703125 C 306.639892578125 311.2403564453125 310.8223876953125 308.0003662109375 315.036865234375 304.1251220703125 C 319.283203125 300.2498779296875 323.1943664550781 295.9935302734375 326.770263671875 291.35589599609375 C 330.3780517578125 286.71832275390625 333.18768310546875 282.0172119140625 335.19915771484375 277.2525634765625 C 335.19915771484375 276.9825439453125 335.19915771484375 276.71258544921875 335.19915771484375 276.442626953125"/>
    <path stroke-width="0" fill="rgb(0, 0, 0)" opacity="1.0" d="M 401.241455078125 334.9046630859375 C 406.4456787109375 334.77764892578125 412.59173583984375 334.6029052734375 419.6796875 334.380615234375 C 426.79949951171875 334.12646484375 434.43017578125 333.8564453125 442.57177734375 333.57061767578125 C 450.7452392578125 333.2529296875 458.9346923828125 332.903564453125 467.14007568359375 332.52239990234375 C 467.1241455078125 333.3800048828125 467.108154296875 334.2376708984375 467.0921630859375 335.0953369140625 C 459.11029052734375 335.4447021484375 451.1124267578125 335.7940673828125 443.09857177734375 336.1435546875 C 435.11669921875 336.492919921875 427.5498046875 336.794677734375 420.3980712890625 337.048828125 C 413.2462158203125 337.334716796875 406.9884033203125 337.5728759765625 401.62457275390625 337.76348876953125 C 401.49688720703125 336.810546875 401.369140625 335.857666015625 401.241455078125 334.9046630859375M 400.13995361328125 305.64984130859375 C 425.45855712890625 305.64984130859375 450.77716064453125 305.64984130859375 476.09576416015625 305.64984130859375 C 476.09576416015625 306.55511474609375 476.09576416015625 307.46038818359375 476.09576416015625 308.36566162109375 C 450.77716064453125 308.36566162109375 425.45855712890625 308.36566162109375 400.13995361328125 308.36566162109375 C 400.13995361328125 307.46038818359375 400.13995361328125 306.55511474609375 400.13995361328125 305.64984130859375M 415.2257080078125 288.16357421875 C 430.1199951171875 288.16357421875 445.01422119140625 288.16357421875 459.908447265625 288.16357421875 C 459.908447265625 289.08477783203125 459.908447265625 290.00592041015625 459.908447265625 290.9271240234375 C 445.01422119140625 290.9271240234375 430.1199951171875 290.9271240234375 415.2257080078125 290.9271240234375 C 415.2257080078125 290.00592041015625 415.2257080078125 289.08477783203125 415.2257080078125 288.16357421875M 428.01275634765625 307.17449951171875 C 428.95458984375 307.4921875 429.896484375 307.809814453125 430.83837890625 308.12744140625 C 429.43353271484375 311.11328125 427.9010009765625 314.32147216796875 426.24078369140625 317.75201416015625 C 424.58056640625 321.1507568359375 422.8724365234375 324.501953125 421.11639404296875 327.805419921875 C 419.392333984375 331.0771484375 417.70013427734375 333.9993896484375 416.0399169921875 336.57232666015625 C 415.1778564453125 336.25469970703125 414.3157958984375 335.93701171875 413.4537353515625 335.619384765625 C 415.114013671875 333.0782470703125 416.83807373046875 330.14007568359375 418.62603759765625 326.8048095703125 C 420.4459228515625 323.43780517578125 422.18597412109375 320.023193359375 423.84619140625 316.56085205078125 C 425.5064697265625 313.0667724609375 426.895263671875 309.93798828125 428.01275634765625 307.17449951171875M 448.8455810546875 317.18023681640625 C 449.531982421875 316.75146484375 450.2183837890625 316.3226318359375 450.9049072265625 315.893798828125 C 453.84222412109375 318.33966064453125 456.76361083984375 321.023681640625 459.66900634765625 323.946044921875 C 462.574462890625 326.86834716796875 465.2403564453125 329.7589111328125 467.6668701171875 332.61767578125 C 470.0933837890625 335.4764404296875 472.009033203125 338.06524658203125 473.413818359375 340.384033203125 C 472.67950439453125 340.8763427734375 471.9451904296875 341.3687744140625 471.2108154296875 341.861083984375 C 469.7421875 339.54229736328125 467.7945556640625 336.9376220703125 465.36810302734375 334.04705810546875 C 462.94158935546875 331.156494140625 460.3076171875 328.21832275390625 457.46600341796875 325.23248291015625 C 454.62445068359375 322.21484375 451.7509765625 319.53082275390625 448.8455810546875 317.18023681640625M 437.2078857421875 261.815185546875 C 434.6856689453125 265.72216796875 431.34918212890625 269.7403564453125 427.1986083984375 273.86968994140625 C 423.0799560546875 277.96728515625 418.48236083984375 281.874267578125 413.4058837890625 285.5906982421875 C 408.361328125 289.30712890625 403.173095703125 292.578857421875 397.8411865234375 295.4058837890625 C 397.71343994140625 295.1517333984375 397.5538330078125 294.91351318359375 397.36224365234375 294.691162109375 C 397.170654296875 294.43701171875 396.9791259765625 294.18292236328125 396.78753662109375 293.9288330078125 C 396.6279296875 293.6746826171875 396.42041015625 293.452392578125 396.1649169921875 293.26177978515625 C 401.49688720703125 290.59356689453125 406.7010498046875 287.4012451171875 411.777587890625 283.684814453125 C 416.885986328125 279.9683837890625 421.5155029296875 275.9979248046875 425.66607666015625 271.77325439453125 C 429.8486328125 267.516845703125 433.1690673828125 263.27630615234375 435.62750244140625 259.0516357421875 C 436.48956298828125 259.0516357421875 437.3515625 259.0516357421875 438.213623046875 259.0516357421875 C 440.64013671875 262.482177734375 443.4976806640625 265.8651123046875 446.7862548828125 269.2003173828125 C 450.07470703125 272.5037841796875 453.5867919921875 275.64849853515625 457.32232666015625 278.63433837890625 C 461.057861328125 281.62017822265625 464.8572998046875 284.33599853515625 468.720458984375 286.7818603515625 C 472.583740234375 289.22772216796875 476.3511962890625 291.2764892578125 480.02288818359375 292.92822265625 C 479.79937744140625 293.150634765625 479.49609375 293.515869140625 479.1129150390625 294.02410888671875 C 478.76171875 294.5006103515625 478.45843505859375 294.8975830078125 478.2030029296875 295.21527099609375 C 473.2861328125 292.7694091796875 468.257568359375 289.7835693359375 463.1171875 286.25775146484375 C 457.976806640625 282.7001953125 453.1397705078125 278.824951171875 448.6060791015625 274.63201904296875 C 444.104248046875 270.4073486328125 440.304931640625 266.1351318359375 437.2078857421875 261.815185546875"/>
  </g>
</svg>
