<?xml version="1.0" ?>
<svg xmlns="http://www.w3.org/2000/svg" version="1.1" width="600" height="600">
  <defs/>
  <g>
    <path stroke-width="0" fill="rgb(0, 0, 0)" opacity="1.0" d="M 197.1240234375 165.34326171875 C 211.175048828125 167.2720947265625 226.87890625 168.64981079101562 244.23583984375 169.4764404296875 C 261.730712890625 170.16531372070312 279.84521484375 170.509765625 298.57958984375 170.509765625 C 311.115478515625 170.509765625 323.237548828125 170.23419189453125 334.94677734375 169.68310546875 C 346.65576171875 169.13201904296875 357.81396484375 168.44314575195312 368.4208984375 167.61651611328125 C 379.02783203125 166.65213012695312 388.808349609375 165.756591796875 397.762451171875 164.92996215820312 C 397.762451171875 169.06314086914062 397.762451171875 173.19631958007812 397.762451171875 177.32949829101562 C 389.083984375 177.88058471679688 379.303466796875 178.5694580078125 368.4208984375 179.39608764648438 C 357.676025390625 180.0849609375 346.311279296875 180.7049560546875 334.326904296875 181.25604248046875 C 322.47998046875 181.80709838867188 310.564208984375 182.0826416015625 298.57958984375 182.0826416015625 C 279.569580078125 182.0826416015625 261.66162109375 181.66934204101562 244.855712890625 180.84271240234375 C 228.0498046875 180.01605224609375 212.139404296875 178.9827880859375 197.1240234375 177.74282836914062 C 197.1240234375 173.60964965820312 197.1240234375 169.4764404296875 197.1240234375 165.34326171875M 195.470947265625 317.4443359375 C 192.302734375 325.84844970703125 189.89208984375 334.2525634765625 188.239013671875 342.65673828125 C 186.723876953125 350.923095703125 185.966064453125 359.0516357421875 185.966064453125 367.04248046875 C 185.966064453125 384.6773681640625 195.057861328125 398.86798095703125 213.2412109375 409.6142578125 C 231.5625 420.3604736328125 258.14892578125 425.733642578125 293.000732421875 425.733642578125 C 311.872802734375 425.733642578125 329.781005859375 425.0447998046875 346.724609375 423.66705322265625 C 363.66845703125 422.289306640625 378.89013671875 420.498291015625 392.389892578125 418.2939453125 C 406.027587890625 416.08953857421875 416.97900390625 413.4029541015625 425.244140625 410.2342529296875 C 425.382080078125 414.2984619140625 425.519775390625 418.36279296875 425.657470703125 422.4271240234375 C 418.21875 424.906982421875 407.74951171875 427.2491455078125 394.249755859375 429.4534912109375 C 380.749755859375 431.6578369140625 365.252685546875 433.3800048828125 347.7578125 434.6199951171875 C 330.40087890625 435.9976806640625 312.1484375 436.6865234375 293.000732421875 436.6865234375 C 269.58251953125 436.6865234375 248.98828125 434.2066650390625 231.218017578125 429.246826171875 C 213.447998046875 424.1492919921875 199.603759765625 416.640625 189.685302734375 406.72100830078125 C 179.76708984375 396.66357421875 174.80810546875 384.057373046875 174.80810546875 368.90240478515625 C 174.80810546875 359.671630859375 175.634521484375 350.64752197265625 177.28759765625 341.830078125 C 179.078369140625 332.8748779296875 181.07568359375 324.1951904296875 183.27978515625 315.791015625 C 187.34375 316.3421630859375 191.4072265625 316.8931884765625 195.470947265625 317.4443359375"/>
  </g>
</svg>
