<?xml version="1.0" encoding="utf-8"?>
<svg xmlns="http://www.w3.org/2000/svg" xmlns:ev="http://www.w3.org/2001/xml-events" xmlns:xlink="http://www.w3.org/1999/xlink" version="1.1" baseProfile="full" width="14880.0" height="1739.0" viewBox="382.0 -1601.0 14880.0 1739.0">
<defs/>
<g><path d="M 382.000000 -1450.000000 C 774.333333 -1450.000000 1166.666667 -1450.000000 1559.000000 -1450.000000 C 1559.000000 -933.333333 1559.000000 -416.666667 1559.000000 100.000000 C 1539.666667 100.000000 1520.333333 100.000000 1501.000000 100.000000 C 1501.000000 -397.333333 1501.000000 -894.666667 1501.000000 -1392.000000 C 1147.333333 -1392.000000 793.666667 -1392.000000 440.000000 -1392.000000 C 440.000000 -889.666667 440.000000 -387.333333 440.000000 115.000000 C 420.666667 115.000000 401.333333 115.000000 382.000000 115.000000 C 382.000000 -406.666667 382.000000 -928.333333 382.000000 -1450.000000z M 417.000000 -764.000000 C 786.666667 -764.000000 1156.333333 -764.000000 1526.000000 -764.000000 C 1526.000000 -745.333333 1526.000000 -726.666667 1526.000000 -708.000000 C 1156.333333 -708.000000 786.666667 -708.000000 417.000000 -708.000000 C 417.000000 -726.666667 417.000000 -745.333333 417.000000 -764.000000z M 413.000000 -65.000000 C 786.000000 -65.000000 1159.000000 -65.000000 1532.000000 -65.000000 C 1532.000000 -46.666667 1532.000000 -28.333333 1532.000000 -10.000000 C 1159.000000 -10.000000 786.000000 -10.000000 413.000000 -10.000000 C 413.000000 -28.333333 413.000000 -46.666667 413.000000 -65.000000z "/>
</g>
<g><path d="M 2056.000000 -1158.000000 C 2606.666667 -1158.000000 3157.333333 -1158.000000 3708.000000 -1158.000000 C 3708.000000 -1138.666667 3708.000000 -1119.333333 3708.000000 -1100.000000 C 3157.333333 -1100.000000 2606.666667 -1100.000000 2056.000000 -1100.000000 C 2056.000000 -1119.333333 2056.000000 -1138.666667 2056.000000 -1158.000000z M 2427.000000 -317.000000 C 2726.333333 -317.000000 3025.666667 -317.000000 3325.000000 -317.000000 C 3325.000000 -297.666667 3325.000000 -278.333333 3325.000000 -259.000000 C 3025.666667 -259.000000 2726.333333 -259.000000 2427.000000 -259.000000 C 2427.000000 -278.333333 2427.000000 -297.666667 2427.000000 -317.000000z M 2849.000000 -1592.000000 C 2868.333333 -1592.000000 2887.666667 -1592.000000 2907.000000 -1592.000000 C 2907.000000 -1016.666667 2907.000000 -441.333333 2907.000000 134.000000 C 2887.666667 134.000000 2868.333333 134.000000 2849.000000 134.000000 C 2849.000000 -441.333333 2849.000000 -1016.666667 2849.000000 -1592.000000z M 2828.000000 -1146.000000 C 2844.000000 -1139.666667 2860.000000 -1133.333333 2876.000000 -1127.000000 C 2817.333333 -995.000000 2743.333333 -868.333333 2654.000000 -747.000000 C 2565.333333 -626.333333 2468.000000 -517.666667 2362.000000 -421.000000 C 2256.666667 -324.333333 2149.666667 -246.666667 2041.000000 -188.000000 C 2038.333333 -193.333333 2034.333333 -198.666667 2029.000000 -204.000000 C 2024.333333 -210.000000 2019.666667 -215.333333 2015.000000 -220.000000 C 2010.333333 -225.333333 2005.666667 -230.000000 2001.000000 -234.000000 C 2083.000000 -275.333333 2164.000000 -327.666667 2244.000000 -391.000000 C 2324.000000 -454.333333 2400.333333 -526.333333 2473.000000 -607.000000 C 2545.666667 -687.666667 2612.333333 -773.666667 2673.000000 -865.000000 C 2734.333333 -956.333333 2786.000000 -1050.000000 2828.000000 -1146.000000z M 2932.000000 -1140.000000 C 2986.666667 -1011.333333 3057.000000 -887.666667 3143.000000 -769.000000 C 3229.000000 -650.333333 3324.666667 -544.666667 3430.000000 -452.000000 C 3535.333333 -359.333333 3645.000000 -287.333333 3759.000000 -236.000000 C 3755.666667 -232.000000 3751.333333 -227.333333 3746.000000 -222.000000 C 3740.666667 -217.333333 3735.666667 -212.000000 3731.000000 -206.000000 C 3727.000000 -200.666667 3723.000000 -195.333333 3719.000000 -190.000000 C 3606.333333 -246.666667 3496.666667 -322.666667 3390.000000 -418.000000 C 3284.000000 -513.333333 3187.333333 -621.333333 3100.000000 -742.000000 C 3013.333333 -863.333333 2942.000000 -989.666667 2886.000000 -1121.000000 C 2901.333333 -1127.333333 2916.666667 -1133.666667 2932.000000 -1140.000000z "/>
</g>
<g><path d="M 5134.000000 -1450.000000 C 5124.000000 -1440.666667 5108.000000 -1425.666667 5086.000000 -1405.000000 C 5064.000000 -1385.000000 5048.000000 -1370.333333 5038.000000 -1361.000000 C 5003.333333 -1329.000000 4960.333333 -1291.000000 4909.000000 -1247.000000 C 4858.333333 -1203.000000 4804.333333 -1157.666667 4747.000000 -1111.000000 C 4690.333333 -1064.333333 4635.333333 -1019.333333 4582.000000 -976.000000 C 4528.666667 -933.333333 4483.000000 -896.000000 4445.000000 -864.000000 C 4402.333333 -826.666667 4373.333333 -795.333333 4358.000000 -770.000000 C 4342.666667 -745.333333 4343.000000 -720.666667 4359.000000 -696.000000 C 4375.000000 -671.333333 4406.666667 -639.000000 4454.000000 -599.000000 C 4495.333333 -565.666667 4540.333333 -529.000000 4589.000000 -489.000000 C 4637.666667 -449.666667 4687.666667 -408.000000 4739.000000 -364.000000 C 4791.000000 -320.000000 4843.333333 -274.666667 4896.000000 -228.000000 C 4948.666667 -182.000000 4999.666667 -135.666667 5049.000000 -89.000000 C 5098.333333 -42.333333 5144.000000 2.666667 5186.000000 46.000000 C 5169.333333 60.666667 5152.666667 75.333333 5136.000000 90.000000 C 5109.333333 59.333333 5077.333333 25.333333 5040.000000 -12.000000 C 5001.333333 -50.000000 4955.000000 -93.666667 4901.000000 -143.000000 C 4847.666667 -192.333333 4791.333333 -242.666667 4732.000000 -294.000000 C 4672.666667 -346.000000 4614.333333 -396.000000 4557.000000 -444.000000 C 4500.333333 -492.000000 4449.000000 -534.666667 4403.000000 -572.000000 C 4345.000000 -619.333333 4308.666667 -659.666667 4294.000000 -693.000000 C 4279.333333 -726.333333 4282.333333 -759.333333 4303.000000 -792.000000 C 4324.333333 -824.666667 4360.666667 -862.666667 4412.000000 -906.000000 C 4446.666667 -935.333333 4490.333333 -971.333333 4543.000000 -1014.000000 C 4596.333333 -1057.333333 4652.000000 -1103.000000 4710.000000 -1151.000000 C 4768.666667 -1199.000000 4824.000000 -1245.333333 4876.000000 -1290.000000 C 4928.000000 -1334.666667 4970.000000 -1374.333333 5002.000000 -1409.000000 C 5012.000000 -1421.000000 5024.666667 -1436.333333 5040.000000 -1455.000000 C 5055.333333 -1474.333333 5066.333333 -1490.333333 5073.000000 -1503.000000 C 5093.333333 -1485.333333 5113.666667 -1467.666667 5134.000000 -1450.000000z "/>
</g>
<g><path d="M 6860.000000 -1478.000000 C 6860.000000 -1474.666667 6859.333333 -1467.666667 6858.000000 -1457.000000 C 6856.666667 -1447.000000 6855.666667 -1436.666667 6855.000000 -1426.000000 C 6854.333333 -1416.000000 6854.000000 -1408.000000 6854.000000 -1402.000000 C 6852.666667 -1377.333333 6852.000000 -1344.666667 6852.000000 -1304.000000 C 6852.000000 -1264.000000 6852.000000 -1220.000000 6852.000000 -1172.000000 C 6852.000000 -1124.000000 6852.333333 -1075.666667 6853.000000 -1027.000000 C 6853.666667 -978.333333 6854.333333 -932.333333 6855.000000 -889.000000 C 6855.666667 -845.666667 6856.000000 -808.666667 6856.000000 -778.000000 C 6838.333333 -800.333333 6820.666667 -822.666667 6803.000000 -845.000000 C 6803.000000 -855.000000 6803.000000 -876.666667 6803.000000 -910.000000 C 6803.000000 -943.333333 6802.666667 -983.333333 6802.000000 -1030.000000 C 6801.333333 -1076.666667 6800.666667 -1124.333333 6800.000000 -1173.000000 C 6799.333333 -1221.666667 6798.666667 -1266.333333 6798.000000 -1307.000000 C 6797.333333 -1348.333333 6796.333333 -1380.000000 6795.000000 -1402.000000 C 6795.000000 -1414.666667 6794.000000 -1429.666667 6792.000000 -1447.000000 C 6790.000000 -1464.333333 6788.333333 -1474.666667 6787.000000 -1478.000000 C 6811.333333 -1478.000000 6835.666667 -1478.000000 6860.000000 -1478.000000z M 5906.000000 -1183.000000 C 5953.333333 -1184.333333 6008.000000 -1186.000000 6070.000000 -1188.000000 C 6132.000000 -1190.666667 6199.000000 -1193.333333 6271.000000 -1196.000000 C 6343.666667 -1198.666667 6418.666667 -1201.000000 6496.000000 -1203.000000 C 6573.333333 -1205.000000 6650.000000 -1206.666667 6726.000000 -1208.000000 C 6802.666667 -1209.333333 6876.333333 -1210.000000 6947.000000 -1210.000000 C 7014.333333 -1210.000000 7076.333333 -1209.666667 7133.000000 -1209.000000 C 7190.333333 -1208.333333 7241.000000 -1208.000000 7285.000000 -1208.000000 C 7329.666667 -1208.000000 7368.000000 -1207.666667 7400.000000 -1207.000000 C 7432.000000 -1206.333333 7457.333333 -1206.000000 7476.000000 -1206.000000 C 7476.000000 -1186.666667 7476.000000 -1167.333333 7476.000000 -1148.000000 C 7428.666667 -1150.666667 7364.000000 -1152.666667 7282.000000 -1154.000000 C 7200.666667 -1155.333333 7089.333333 -1156.000000 6948.000000 -1156.000000 C 6870.000000 -1156.000000 6786.000000 -1155.333333 6696.000000 -1154.000000 C 6606.000000 -1152.666667 6513.666667 -1150.333333 6419.000000 -1147.000000 C 6325.000000 -1143.666667 6234.000000 -1139.333333 6146.000000 -1134.000000 C 6058.666667 -1129.333333 5979.333333 -1123.666667 5908.000000 -1117.000000 C 5907.333333 -1139.000000 5906.666667 -1161.000000 5906.000000 -1183.000000z M 6881.000000 -636.000000 C 6881.000000 -569.333333 6868.666667 -513.333333 6844.000000 -468.000000 C 6820.000000 -423.333333 6788.666667 -389.666667 6750.000000 -367.000000 C 6712.000000 -345.000000 6671.333333 -334.000000 6628.000000 -334.000000 C 6584.666667 -334.000000 6544.666667 -340.333333 6508.000000 -353.000000 C 6471.333333 -365.666667 6439.333333 -384.666667 6412.000000 -410.000000 C 6385.333333 -436.000000 6364.666667 -467.000000 6350.000000 -503.000000 C 6335.333333 -539.000000 6328.000000 -580.000000 6328.000000 -626.000000 C 6328.000000 -680.666667 6341.333333 -731.000000 6368.000000 -777.000000 C 6395.333333 -823.666667 6431.333333 -861.333333 6476.000000 -890.000000 C 6520.666667 -918.666667 6569.333333 -933.000000 6622.000000 -933.000000 C 6687.333333 -933.000000 6741.000000 -918.333333 6783.000000 -889.000000 C 6825.666667 -859.666667 6857.333333 -818.666667 6878.000000 -766.000000 C 6899.333333 -713.333333 6910.000000 -652.666667 6910.000000 -584.000000 C 6910.000000 -517.333333 6902.000000 -451.666667 6886.000000 -387.000000 C 6870.000000 -322.333333 6842.333333 -260.666667 6803.000000 -202.000000 C 6764.333333 -144.000000 6710.666667 -91.000000 6642.000000 -43.000000 C 6574.000000 5.000000 6486.666667 45.666667 6380.000000 79.000000 C 6362.000000 63.000000 6344.000000 47.000000 6326.000000 31.000000 C 6420.000000 7.666667 6500.000000 -22.666667 6566.000000 -60.000000 C 6632.666667 -98.000000 6687.000000 -142.666667 6729.000000 -194.000000 C 6771.666667 -245.333333 6802.666667 -302.666667 6822.000000 -366.000000 C 6842.000000 -429.333333 6852.000000 -498.000000 6852.000000 -572.000000 C 6852.000000 -683.333333 6830.000000 -762.333333 6786.000000 -809.000000 C 6742.000000 -855.666667 6688.666667 -879.000000 6626.000000 -879.000000 C 6584.000000 -879.000000 6544.666667 -868.000000 6508.000000 -846.000000 C 6471.333333 -824.666667 6441.666667 -795.000000 6419.000000 -757.000000 C 6397.000000 -719.666667 6386.000000 -676.000000 6386.000000 -626.000000 C 6386.000000 -549.333333 6409.666667 -490.333333 6457.000000 -449.000000 C 6504.333333 -408.333333 6561.333333 -388.000000 6628.000000 -388.000000 C 6678.000000 -388.000000 6719.333333 -400.666667 6752.000000 -426.000000 C 6784.666667 -452.000000 6809.333333 -488.000000 6826.000000 -534.000000 C 6842.666667 -580.000000 6851.000000 -633.000000 6851.000000 -693.000000 C 6861.000000 -674.000000 6871.000000 -655.000000 6881.000000 -636.000000z M 7140.000000 -1500.000000 C 7162.000000 -1470.000000 7188.000000 -1432.000000 7218.000000 -1386.000000 C 7248.000000 -1340.000000 7273.333333 -1298.333333 7294.000000 -1261.000000 C 7275.333333 -1251.666667 7256.666667 -1242.333333 7238.000000 -1233.000000 C 7218.000000 -1271.000000 7193.333333 -1313.000000 7164.000000 -1359.000000 C 7135.333333 -1405.000000 7109.666667 -1443.666667 7087.000000 -1475.000000 C 7104.666667 -1483.333333 7122.333333 -1491.666667 7140.000000 -1500.000000z M 7350.000000 -1544.000000 C 7371.333333 -1514.666667 7396.333333 -1477.666667 7425.000000 -1433.000000 C 7454.333333 -1389.000000 7480.333333 -1347.333333 7503.000000 -1308.000000 C 7484.000000 -1298.333333 7465.000000 -1288.666667 7446.000000 -1279.000000 C 7425.333333 -1319.666667 7401.000000 -1362.000000 7373.000000 -1406.000000 C 7345.666667 -1450.666667 7320.000000 -1488.333333 7296.000000 -1519.000000 C 7314.000000 -1527.333333 7332.000000 -1535.666667 7350.000000 -1544.000000z "/>
</g>
<g><path d="M 8273.000000 -1469.000000 C 8269.666667 -1445.666667 8267.333333 -1424.333333 8266.000000 -1405.000000 C 8264.666667 -1386.333333 8263.333333 -1364.000000 8262.000000 -1338.000000 C 8260.666667 -1282.000000 8258.333333 -1212.000000 8255.000000 -1128.000000 C 8251.666667 -1044.000000 8249.000000 -954.000000 8247.000000 -858.000000 C 8245.000000 -762.000000 8243.000000 -665.333333 8241.000000 -568.000000 C 8239.666667 -470.666667 8239.000000 -380.666667 8239.000000 -298.000000 C 8239.000000 -222.000000 8254.333333 -161.000000 8285.000000 -115.000000 C 8315.666667 -69.000000 8358.333333 -35.666667 8413.000000 -15.000000 C 8468.333333 5.000000 8532.000000 15.000000 8604.000000 15.000000 C 8700.000000 15.000000 8785.333333 3.333333 8860.000000 -20.000000 C 8934.666667 -44.000000 9000.333333 -75.333333 9057.000000 -114.000000 C 9114.333333 -153.333333 9164.333333 -196.666667 9207.000000 -244.000000 C 9250.333333 -291.333333 9289.333333 -338.666667 9324.000000 -386.000000 C 9338.000000 -370.000000 9352.000000 -354.000000 9366.000000 -338.000000 C 9331.333333 -293.333333 9290.666667 -247.000000 9244.000000 -199.000000 C 9197.333333 -151.000000 9143.000000 -106.666667 9081.000000 -66.000000 C 9019.666667 -26.000000 8949.000000 6.333333 8869.000000 31.000000 C 8789.000000 56.333333 8698.666667 69.000000 8598.000000 69.000000 C 8518.666667 69.000000 8447.666667 57.000000 8385.000000 33.000000 C 8322.333333 9.666667 8272.666667 -30.000000 8236.000000 -86.000000 C 8199.333333 -142.666667 8181.000000 -221.000000 8181.000000 -321.000000 C 8181.000000 -383.666667 8181.666667 -451.000000 8183.000000 -523.000000 C 8184.333333 -595.666667 8186.333333 -669.666667 8189.000000 -745.000000 C 8191.666667 -820.333333 8193.666667 -894.000000 8195.000000 -966.000000 C 8197.000000 -1038.666667 8198.666667 -1107.000000 8200.000000 -1171.000000 C 8201.333333 -1235.000000 8202.000000 -1290.666667 8202.000000 -1338.000000 C 8202.000000 -1364.000000 8201.333333 -1387.666667 8200.000000 -1409.000000 C 8198.666667 -1431.000000 8196.333333 -1451.000000 8193.000000 -1469.000000 C 8219.666667 -1469.000000 8246.333333 -1469.000000 8273.000000 -1469.000000z "/>
</g>
<g><path d="M 10045.000000 -1039.000000 C 10373.333333 -1039.000000 10701.666667 -1039.000000 11030.000000 -1039.000000 C 11030.000000 -1020.333333 11030.000000 -1001.666667 11030.000000 -983.000000 C 10701.666667 -983.000000 10373.333333 -983.000000 10045.000000 -983.000000 C 10045.000000 -1001.666667 10045.000000 -1020.333333 10045.000000 -1039.000000z M 9750.000000 -551.000000 C 10292.000000 -551.000000 10834.000000 -551.000000 11376.000000 -551.000000 C 11376.000000 -532.333333 11376.000000 -513.666667 11376.000000 -495.000000 C 10834.000000 -495.000000 10292.000000 -495.000000 9750.000000 -495.000000 C 9750.000000 -513.666667 9750.000000 -532.333333 9750.000000 -551.000000z M 10537.000000 -716.000000 C 10556.333333 -716.000000 10575.666667 -716.000000 10595.000000 -716.000000 C 10595.000000 -464.000000 10595.000000 -212.000000 10595.000000 40.000000 C 10595.000000 64.666667 10590.333333 83.000000 10581.000000 95.000000 C 10572.333333 107.000000 10557.000000 116.333333 10535.000000 123.000000 C 10514.333333 128.333333 10482.000000 131.000000 10438.000000 131.000000 C 10394.000000 131.666667 10330.333333 132.000000 10247.000000 132.000000 C 10245.666667 127.333333 10243.333333 122.000000 10240.000000 116.000000 C 10237.333333 110.666667 10234.333333 104.666667 10231.000000 98.000000 C 10227.666667 91.333333 10224.000000 85.666667 10220.000000 81.000000 C 10267.333333 81.000000 10309.666667 81.333333 10347.000000 82.000000 C 10385.000000 82.666667 10416.666667 82.666667 10442.000000 82.000000 C 10468.000000 81.333333 10486.333333 81.000000 10497.000000 81.000000 C 10512.333333 79.666667 10522.666667 76.000000 10528.000000 70.000000 C 10534.000000 64.000000 10537.000000 54.666667 10537.000000 42.000000 C 10537.000000 -210.666667 10537.000000 -463.333333 10537.000000 -716.000000z M 11015.000000 -1039.000000 C 11019.333333 -1039.000000 11023.666667 -1039.000000 11028.000000 -1039.000000 C 11032.666667 -1040.333333 11037.333333 -1041.666667 11042.000000 -1043.000000 C 11055.333333 -1033.333333 11068.666667 -1023.666667 11082.000000 -1014.000000 C 11040.000000 -969.333333 10990.666667 -924.333333 10934.000000 -879.000000 C 10878.000000 -834.333333 10819.666667 -792.333333 10759.000000 -753.000000 C 10699.000000 -714.333333 10641.666667 -681.000000 10587.000000 -653.000000 C 10583.000000 -659.000000 10577.000000 -665.666667 10569.000000 -673.000000 C 10561.666667 -680.333333 10554.666667 -685.666667 10548.000000 -689.000000 C 10603.333333 -716.333333 10660.000000 -748.666667 10718.000000 -786.000000 C 10776.666667 -824.000000 10831.666667 -863.666667 10883.000000 -905.000000 C 10935.000000 -947.000000 10979.000000 -987.000000 11015.000000 -1025.000000 C 11015.000000 -1029.666667 11015.000000 -1034.333333 11015.000000 -1039.000000z M 10529.000000 -1601.000000 C 10548.333333 -1601.000000 10567.666667 -1601.000000 10587.000000 -1601.000000 C 10587.000000 -1511.000000 10587.000000 -1421.000000 10587.000000 -1331.000000 C 10567.666667 -1331.000000 10548.333333 -1331.000000 10529.000000 -1331.000000 C 10529.000000 -1421.000000 10529.000000 -1511.000000 10529.000000 -1601.000000z M 9779.000000 -1363.000000 C 10300.333333 -1363.000000 10821.666667 -1363.000000 11343.000000 -1363.000000 C 11343.000000 -1228.000000 11343.000000 -1093.000000 11343.000000 -958.000000 C 11324.000000 -958.000000 11305.000000 -958.000000 11286.000000 -958.000000 C 11286.000000 -1074.000000 11286.000000 -1190.000000 11286.000000 -1306.000000 C 10802.666667 -1306.000000 10319.333333 -1306.000000 9836.000000 -1306.000000 C 9836.000000 -1190.000000 9836.000000 -1074.000000 9836.000000 -958.000000 C 9817.000000 -958.000000 9798.000000 -958.000000 9779.000000 -958.000000 C 9779.000000 -1093.000000 9779.000000 -1228.000000 9779.000000 -1363.000000z "/>
</g>
<g><path d="M 11923.000000 -1196.000000 C 12364.000000 -1196.000000 12805.000000 -1196.000000 13246.000000 -1196.000000 C 13246.000000 -1177.333333 13246.000000 -1158.666667 13246.000000 -1140.000000 C 12805.000000 -1140.000000 12364.000000 -1140.000000 11923.000000 -1140.000000 C 11923.000000 -1158.666667 11923.000000 -1177.333333 11923.000000 -1196.000000z M 11833.000000 -636.000000 C 12282.333333 -636.000000 12731.666667 -636.000000 13181.000000 -636.000000 C 13181.000000 -617.333333 13181.000000 -598.666667 13181.000000 -580.000000 C 12731.666667 -580.000000 12282.333333 -580.000000 11833.000000 -580.000000 C 11833.000000 -598.666667 11833.000000 -617.333333 11833.000000 -636.000000z M 11635.000000 12.000000 C 12200.333333 12.000000 12765.666667 12.000000 13331.000000 12.000000 C 13331.000000 30.333333 13331.000000 48.666667 13331.000000 67.000000 C 12765.666667 67.000000 12200.333333 67.000000 11635.000000 67.000000 C 11635.000000 48.666667 11635.000000 30.333333 11635.000000 12.000000z M 12455.000000 -1594.000000 C 12474.333333 -1594.000000 12493.666667 -1594.000000 12513.000000 -1594.000000 C 12513.000000 -1049.333333 12513.000000 -504.666667 12513.000000 40.000000 C 12493.666667 40.000000 12474.333333 40.000000 12455.000000 40.000000 C 12455.000000 -504.666667 12455.000000 -1049.333333 12455.000000 -1594.000000z M 12036.000000 -1555.000000 C 12054.666667 -1551.333333 12073.333333 -1547.666667 12092.000000 -1544.000000 C 12065.333333 -1445.333333 12033.000000 -1349.666667 11995.000000 -1257.000000 C 11957.666667 -1165.000000 11915.666667 -1079.333333 11869.000000 -1000.000000 C 11823.000000 -920.666667 11774.000000 -850.333333 11722.000000 -789.000000 C 11718.000000 -793.000000 11712.666667 -796.666667 11706.000000 -800.000000 C 11700.000000 -804.000000 11693.666667 -808.333333 11687.000000 -813.000000 C 11680.333333 -817.666667 11674.666667 -820.666667 11670.000000 -822.000000 C 11724.666667 -882.000000 11774.666667 -950.666667 11820.000000 -1028.000000 C 11866.000000 -1105.333333 11907.000000 -1188.666667 11943.000000 -1278.000000 C 11979.666667 -1368.000000 12010.666667 -1460.333333 12036.000000 -1555.000000z "/>
</g>
<g><path d="M 13747.000000 -877.000000 C 13917.333333 -877.000000 14087.666667 -877.000000 14258.000000 -877.000000 C 14258.000000 -858.000000 14258.000000 -839.000000 14258.000000 -820.000000 C 14087.666667 -820.000000 13917.333333 -820.000000 13747.000000 -820.000000 C 13747.000000 -839.000000 13747.000000 -858.000000 13747.000000 -877.000000z M 14233.000000 -877.000000 C 14251.666667 -877.000000 14270.333333 -877.000000 14289.000000 -877.000000 C 14289.000000 -877.000000 14289.000000 -874.666667 14289.000000 -870.000000 C 14289.000000 -866.000000 14289.000000 -860.666667 14289.000000 -854.000000 C 14289.000000 -848.000000 14289.000000 -843.000000 14289.000000 -839.000000 C 14285.000000 -687.000000 14280.666667 -565.333333 14276.000000 -474.000000 C 14271.333333 -383.333333 14265.333333 -315.666667 14258.000000 -271.000000 C 14251.333333 -226.333333 14241.666667 -196.000000 14229.000000 -180.000000 C 14217.666667 -168.666667 14205.000000 -160.333333 14191.000000 -155.000000 C 14177.000000 -150.333333 14157.000000 -147.333333 14131.000000 -146.000000 C 14107.000000 -144.666667 14073.333333 -144.666667 14030.000000 -146.000000 C 13987.333333 -147.333333 13941.666667 -150.000000 13893.000000 -154.000000 C 13891.666667 -161.333333 13889.666667 -170.000000 13887.000000 -180.000000 C 13885.000000 -190.666667 13881.333333 -199.666667 13876.000000 -207.000000 C 13928.666667 -202.333333 13978.000000 -199.666667 14024.000000 -199.000000 C 14070.000000 -198.333333 14101.333333 -198.000000 14118.000000 -198.000000 C 14132.000000 -198.000000 14144.000000 -199.000000 14154.000000 -201.000000 C 14164.666667 -203.000000 14173.000000 -207.666667 14179.000000 -215.000000 C 14190.333333 -227.666667 14199.333333 -255.666667 14206.000000 -299.000000 C 14212.666667 -343.000000 14218.000000 -410.000000 14222.000000 -500.000000 C 14226.666667 -590.666667 14230.333333 -712.000000 14233.000000 -864.000000 C 14233.000000 -868.333333 14233.000000 -872.666667 14233.000000 -877.000000z M 14736.000000 -1523.000000 C 14747.666667 -1535.666667 14759.333333 -1548.333333 14771.000000 -1561.000000 C 14815.666667 -1539.000000 14862.000000 -1514.333333 14910.000000 -1487.000000 C 14958.000000 -1459.666667 15002.666667 -1432.000000 15044.000000 -1404.000000 C 15086.000000 -1376.666667 15120.333333 -1351.666667 15147.000000 -1329.000000 C 15136.000000 -1314.666667 15125.000000 -1300.333333 15114.000000 -1286.000000 C 15087.333333 -1309.333333 15052.666667 -1335.000000 15010.000000 -1363.000000 C 14968.000000 -1391.000000 14923.333333 -1419.000000 14876.000000 -1447.000000 C 14828.666667 -1475.666667 14782.000000 -1501.000000 14736.000000 -1523.000000z M 15060.000000 -975.000000 C 15078.666667 -970.000000 15097.333333 -965.000000 15116.000000 -960.000000 C 15032.666667 -709.333333 14918.666667 -495.000000 14774.000000 -317.000000 C 14629.333333 -139.000000 14456.000000 7.666667 14254.000000 123.000000 C 14251.333333 119.000000 14247.000000 114.000000 14241.000000 108.000000 C 14235.666667 102.666667 14230.333333 97.000000 14225.000000 91.000000 C 14220.333333 85.666667 14215.333333 81.000000 14210.000000 77.000000 C 14414.666667 -30.333333 14588.000000 -172.333333 14730.000000 -349.000000 C 14872.000000 -525.666667 14982.000000 -734.333333 15060.000000 -975.000000z M 13757.000000 -1231.000000 C 14254.333333 -1231.000000 14751.666667 -1231.000000 15249.000000 -1231.000000 C 15249.000000 -1212.333333 15249.000000 -1193.666667 15249.000000 -1175.000000 C 14751.666667 -1175.000000 14254.333333 -1175.000000 13757.000000 -1175.000000 C 13757.000000 -1193.666667 13757.000000 -1212.333333 13757.000000 -1231.000000z M 13724.000000 -1231.000000 C 13743.333333 -1231.000000 13762.666667 -1231.000000 13782.000000 -1231.000000 C 13782.000000 -1058.000000 13782.000000 -885.000000 13782.000000 -712.000000 C 13782.000000 -648.000000 13779.333333 -579.333333 13774.000000 -506.000000 C 13768.666667 -433.333333 13759.333333 -359.000000 13746.000000 -283.000000 C 13732.666667 -207.000000 13712.333333 -133.000000 13685.000000 -61.000000 C 13658.333333 10.333333 13622.666667 76.666667 13578.000000 138.000000 C 13575.333333 134.000000 13571.000000 129.666667 13565.000000 125.000000 C 13559.666667 121.000000 13554.000000 117.000000 13548.000000 113.000000 C 13542.666667 109.666667 13537.333333 106.666667 13532.000000 104.000000 C 13590.000000 23.333333 13632.333333 -64.333333 13659.000000 -159.000000 C 13685.666667 -253.666667 13703.000000 -349.000000 13711.000000 -445.000000 C 13719.666667 -541.000000 13724.000000 -630.666667 13724.000000 -714.000000 C 13724.000000 -886.333333 13724.000000 -1058.666667 13724.000000 -1231.000000z M 14540.000000 -1592.000000 C 14559.333333 -1592.000000 14578.666667 -1592.000000 14598.000000 -1592.000000 C 14599.333333 -1394.666667 14608.000000 -1211.000000 14624.000000 -1041.000000 C 14640.000000 -871.666667 14662.666667 -719.000000 14692.000000 -583.000000 C 14721.333333 -447.666667 14756.666667 -332.000000 14798.000000 -236.000000 C 14840.000000 -140.000000 14886.666667 -66.333333 14938.000000 -15.000000 C 14990.000000 35.666667 15046.333333 61.000000 15107.000000 61.000000 C 15139.666667 61.000000 15163.333333 33.000000 15178.000000 -23.000000 C 15193.333333 -79.666667 15203.333333 -175.000000 15208.000000 -309.000000 C 15214.666667 -303.666667 15223.333333 -298.333333 15234.000000 -293.000000 C 15245.333333 -288.333333 15254.666667 -284.666667 15262.000000 -282.000000 C 15256.666667 -182.000000 15249.000000 -102.666667 15239.000000 -44.000000 C 15229.000000 14.666667 15213.333333 56.666667 15192.000000 82.000000 C 15170.666667 108.000000 15141.000000 121.000000 15103.000000 121.000000 C 15042.333333 121.000000 14986.333333 101.000000 14935.000000 61.000000 C 14884.333333 21.666667 14838.333333 -34.666667 14797.000000 -108.000000 C 14756.333333 -182.000000 14720.333333 -270.333333 14689.000000 -373.000000 C 14657.666667 -476.333333 14631.000000 -591.666667 14609.000000 -719.000000 C 14587.666667 -846.333333 14571.000000 -983.666667 14559.000000 -1131.000000 C 14547.666667 -1278.333333 14541.333333 -1432.000000 14540.000000 -1592.000000z "/>
</g>
</svg>
