<?xml version="1.0" ?>
<svg xmlns="http://www.w3.org/2000/svg" version="1.1" width="600" height="600">
  <defs/>
  <g>
    <path stroke-width="0" fill="rgb(0, 0, 0)" opacity="1.0" d="M 292.220947265625 126.6505126953125 C 296.234130859375 126.6505126953125 300.24755859375 126.6505126953125 304.2607421875 126.6505126953125 C 304.2607421875 142.498291015625 304.2607421875 158.34600830078125 304.2607421875 174.19378662109375 C 300.24755859375 174.19378662109375 296.234130859375 174.19378662109375 292.220947265625 174.19378662109375 C 292.220947265625 158.34600830078125 292.220947265625 142.498291015625 292.220947265625 126.6505126953125M 292.220947265625 356.68511962890625 C 296.234130859375 356.68511962890625 300.24755859375 356.68511962890625 304.2607421875 356.68511962890625 C 304.2607421875 394.19378662109375 304.2607421875 431.702392578125 304.2607421875 469.2110595703125 C 300.24755859375 469.2110595703125 296.234130859375 469.2110595703125 292.220947265625 469.2110595703125 C 292.220947265625 431.702392578125 292.220947265625 394.19378662109375 292.220947265625 356.68511962890625M 133.6279296875 165.8892822265625 C 243.92333984375 165.8892822265625 354.218994140625 165.8892822265625 464.514404296875 165.8892822265625 C 464.514404296875 185.54324340820312 464.514404296875 205.19723510742188 464.514404296875 224.8511962890625 C 460.501220703125 224.8511962890625 456.48779296875 224.8511962890625 452.474609375 224.8511962890625 C 452.474609375 209.00344848632812 452.474609375 193.15573120117188 452.474609375 177.30795288085938 C 350.20556640625 177.30795288085938 247.936767578125 177.30795288085938 145.66748046875 177.30795288085938 C 145.66748046875 193.15573120117188 145.66748046875 209.00344848632812 145.66748046875 224.8511962890625 C 141.654296875 224.8511962890625 137.64111328125 224.8511962890625 133.6279296875 224.8511962890625 C 133.6279296875 205.19723510742188 133.6279296875 185.54324340820312 133.6279296875 165.8892822265625M 230.15380859375 196.82351684570312 C 234.028564453125 196.82351684570312 237.9033203125 196.82351684570312 241.7783203125 196.82351684570312 C 241.7783203125 242.5675048828125 241.7783203125 288.3114318847656 241.7783203125 334.05535888671875 C 237.9033203125 334.05535888671875 234.028564453125 334.05535888671875 230.15380859375 334.05535888671875 C 230.15380859375 288.3114318847656 230.15380859375 242.5675048828125 230.15380859375 196.82351684570312M 356.36376953125 196.82351684570312 C 360.23876953125 196.82351684570312 364.113525390625 196.82351684570312 367.988525390625 196.82351684570312 C 367.988525390625 242.5675048828125 367.988525390625 288.3114318847656 367.988525390625 334.05535888671875 C 364.113525390625 334.05535888671875 360.23876953125 334.05535888671875 356.36376953125 334.05535888671875 C 356.36376953125 288.3114318847656 356.36376953125 242.5675048828125 356.36376953125 196.82351684570312M 163.1044921875 228.380615234375 C 252.7802734375 228.380615234375 342.455810546875 228.380615234375 432.13134765625 228.380615234375 C 432.13134765625 232.25604248046875 432.13134765625 236.13150024414062 432.13134765625 240.00692749023438 C 342.455810546875 240.00692749023438 252.7802734375 240.00692749023438 163.1044921875 240.00692749023438 C 163.1044921875 236.13150024414062 163.1044921875 232.25604248046875 163.1044921875 228.380615234375M 205.451416015625 398.622802734375 C 267.587646484375 398.622802734375 329.72412109375 398.622802734375 391.8603515625 398.622802734375 C 391.8603515625 402.498291015625 391.8603515625 406.37371826171875 391.8603515625 410.2491455078125 C 329.72412109375 410.2491455078125 267.587646484375 410.2491455078125 205.451416015625 410.2491455078125 C 205.451416015625 406.37371826171875 205.451416015625 402.498291015625 205.451416015625 398.622802734375M 140.47802734375 463.1903076171875 C 247.31396484375 463.1903076171875 354.149658203125 463.1903076171875 460.9853515625 463.1903076171875 C 460.9853515625 467.06573486328125 460.9853515625 470.941162109375 460.9853515625 474.816650390625 C 354.149658203125 474.816650390625 247.31396484375 474.816650390625 140.47802734375 474.816650390625 C 140.47802734375 470.941162109375 140.47802734375 467.06573486328125 140.47802734375 463.1903076171875M 171.615478515625 277.3771667480469 C 255.40966796875 277.3771667480469 339.20361328125 277.3771667480469 422.997802734375 277.3771667480469 C 422.997802734375 281.2525939941406 422.997802734375 285.1280212402344 422.997802734375 289.00347900390625 C 339.20361328125 289.00347900390625 255.40966796875 289.00347900390625 171.615478515625 289.00347900390625 C 171.615478515625 285.1280212402344 171.615478515625 281.2525939941406 171.615478515625 277.3771667480469M 123.663818359375 329.2802734375 C 241.01708984375 329.2802734375 358.37060546875 329.2802734375 475.723876953125 329.2802734375 C 475.723876953125 333.22491455078125 475.723876953125 337.1695556640625 475.723876953125 341.11419677734375 C 358.37060546875 341.11419677734375 241.01708984375 341.11419677734375 123.663818359375 341.11419677734375 C 123.663818359375 337.1695556640625 123.663818359375 333.22491455078125 123.663818359375 329.2802734375M 234.512939453125 332.39447021484375 C 237.834228515625 333.8477783203125 241.155517578125 335.301025390625 244.476806640625 336.75433349609375 C 236.173583984375 349.76470947265625 225.656005859375 362.2906494140625 212.92431640625 374.3321533203125 C 200.192626953125 386.23529052734375 186.353759765625 396.9619140625 171.407958984375 406.5120849609375 C 156.600341796875 416.062255859375 141.862060546875 423.8131103515625 127.19287109375 429.76470947265625 C 126.777587890625 428.380615234375 126.016357421875 427.20416259765625 124.909423828125 426.23529052734375 C 123.80224609375 425.1280517578125 122.695068359375 424.020751953125 121.587890625 422.9134521484375 C 120.619140625 421.80621337890625 119.581298828125 420.9066162109375 118.474365234375 420.21453857421875 C 133.42041015625 415.0933837890625 148.227783203125 408.03460693359375 162.89697265625 399.0380859375 C 177.704345703125 390.04150390625 191.40478515625 379.79931640625 203.998291015625 368.3114013671875 C 216.591796875 356.68511962890625 226.76318359375 344.7127685546875 234.512939453125 332.39447021484375M 364.874755859375 332.39447021484375 C 372.762939453125 344.1591796875 383.00341796875 355.5086669921875 395.596923828125 366.44287109375 C 408.32861328125 377.23876953125 422.16748046875 386.9273681640625 437.113525390625 395.5086669921875 C 452.19775390625 403.9515380859375 467.281982421875 410.456787109375 482.366455078125 415.02423095703125 C 481.5361328125 415.71624755859375 480.498291015625 416.75433349609375 479.252685546875 418.138427734375 C 478.145751953125 419.5224609375 477.107666015625 420.83740234375 476.138916015625 422.0830078125 C 475.30859375 423.1903076171875 474.478271484375 424.297607421875 473.64794921875 425.40484619140625 C 458.5634765625 420.0069580078125 443.41015625 412.8096923828125 428.1875 403.8131103515625 C 413.10302734375 394.816650390625 399.056640625 384.57440185546875 386.048095703125 373.0865478515625 C 373.177978515625 361.460205078125 362.522216796875 349.4879150390625 354.080322265625 337.1695556640625 C 357.678466796875 335.577880859375 361.276611328125 333.9862060546875 364.874755859375 332.39447021484375"/>
  </g>
</svg>
