<?xml version="1.0" encoding="utf-8"?>
<svg xmlns="http://www.w3.org/2000/svg" xmlns:ev="http://www.w3.org/2001/xml-events" xmlns:xlink="http://www.w3.org/1999/xlink" version="1.1" baseProfile="full" width="49628.0" height="1744.0" viewBox="213.0 -1596.0 49628.0 1744.0">
<defs/>
<g><path d="M 3721.000000 -104.000000 C 3658.333333 -174.000000 3597.000000 -232.333333 3537.000000 -279.000000 C 3477.666667 -325.666667 3416.000000 -360.666667 3352.000000 -384.000000 C 3288.000000 -408.000000 3216.333333 -420.000000 3137.000000 -420.000000 C 3099.000000 -420.000000 3062.333333 -412.666667 3027.000000 -398.000000 C 2991.666667 -383.333333 2963.000000 -363.000000 2941.000000 -337.000000 C 2919.666667 -311.000000 2909.000000 -280.666667 2909.000000 -246.000000 C 2909.000000 -186.000000 2933.000000 -140.333333 2981.000000 -109.000000 C 3029.000000 -78.333333 3086.333333 -63.000000 3153.000000 -63.000000 C 3229.666667 -63.000000 3291.000000 -80.333333 3337.000000 -115.000000 C 3383.000000 -149.666667 3418.000000 -196.666667 3442.000000 -256.000000 C 3466.666667 -316.000000 3483.000000 -385.333333 3491.000000 -464.000000 C 3499.666667 -542.666667 3504.000000 -626.000000 3504.000000 -714.000000 C 3504.000000 -806.000000 3490.000000 -885.333333 3462.000000 -952.000000 C 3434.666667 -1018.666667 3397.666667 -1069.666667 3351.000000 -1105.000000 C 3304.333333 -1140.333333 3251.666667 -1158.000000 3193.000000 -1158.000000 C 3145.666667 -1158.000000 3091.666667 -1146.000000 3031.000000 -1122.000000 C 2970.333333 -1098.666667 2908.000000 -1067.000000 2844.000000 -1027.000000 C 2780.666667 -987.666667 2719.666667 -943.666667 2661.000000 -895.000000 C 2602.333333 -846.333333 2551.333333 -797.666667 2508.000000 -749.000000 C 2509.666667 -776.333333 2511.333333 -803.666667 2513.000000 -831.000000 C 2554.333333 -869.666667 2602.000000 -910.666667 2656.000000 -954.000000 C 2710.666667 -998.000000 2768.666667 -1039.000000 2830.000000 -1077.000000 C 2891.333333 -1115.666667 2954.000000 -1147.333333 3018.000000 -1172.000000 C 3082.000000 -1197.333333 3143.666667 -1210.000000 3203.000000 -1210.000000 C 3283.666667 -1210.000000 3350.000000 -1186.333333 3402.000000 -1139.000000 C 3454.666667 -1091.666667 3494.000000 -1028.333333 3520.000000 -949.000000 C 3546.666667 -870.333333 3560.000000 -783.666667 3560.000000 -689.000000 C 3560.000000 -580.333333 3553.000000 -483.666667 3539.000000 -399.000000 C 3525.666667 -315.000000 3503.333333 -244.000000 3472.000000 -186.000000 C 3440.666667 -128.666667 3399.000000 -85.333333 3347.000000 -56.000000 C 3295.666667 -26.666667 3232.000000 -12.000000 3156.000000 -12.000000 C 3105.333333 -12.000000 3057.000000 -19.333333 3011.000000 -34.000000 C 2965.666667 -48.666667 2928.666667 -72.666667 2900.000000 -106.000000 C 2871.333333 -140.000000 2857.000000 -185.333333 2857.000000 -242.000000 C 2857.000000 -288.000000 2869.666667 -328.333333 2895.000000 -363.000000 C 2921.000000 -397.666667 2955.666667 -424.000000 2999.000000 -442.000000 C 3042.333333 -460.666667 3090.333333 -470.000000 3143.000000 -470.000000 C 3257.000000 -470.000000 3361.666667 -445.333333 3457.000000 -396.000000 C 3552.333333 -347.333333 3653.666667 -267.333333 3761.000000 -156.000000 C 3747.666667 -138.666667 3734.333333 -121.333333 3721.000000 -104.000000z M 2534.000000 -1110.000000 C 2525.333333 -1108.666667 2505.333333 -1105.666667 2474.000000 -1101.000000 C 2442.666667 -1096.333333 2405.666667 -1091.333333 2363.000000 -1086.000000 C 2321.000000 -1081.333333 2277.333333 -1075.666667 2232.000000 -1069.000000 C 2186.666667 -1063.000000 2144.000000 -1056.666667 2104.000000 -1050.000000 C 2101.666667 -1073.000000 2099.333333 -1096.000000 2097.000000 -1119.000000 C 2112.333333 -1117.666667 2127.000000 -1117.333333 2141.000000 -1118.000000 C 2155.000000 -1118.666667 2168.333333 -1119.666667 2181.000000 -1121.000000 C 2203.000000 -1122.333333 2231.666667 -1125.000000 2267.000000 -1129.000000 C 2303.000000 -1133.000000 2341.333333 -1137.333333 2382.000000 -1142.000000 C 2423.333333 -1147.333333 2462.666667 -1153.000000 2500.000000 -1159.000000 C 2537.333333 -1165.666667 2567.333333 -1173.000000 2590.000000 -1181.000000 C 2602.333333 -1169.333333 2614.666667 -1157.666667 2627.000000 -1146.000000 C 2615.000000 -1128.000000 2602.333333 -1108.333333 2589.000000 -1087.000000 C 2575.666667 -1066.333333 2562.666667 -1045.000000 2550.000000 -1023.000000 C 2537.333333 -1001.666667 2525.666667 -981.333333 2515.000000 -962.000000 C 2513.000000 -908.333333 2511.000000 -854.666667 2509.000000 -801.000000 C 2486.333333 -762.333333 2458.333333 -718.666667 2425.000000 -670.000000 C 2391.666667 -621.333333 2355.666667 -569.666667 2317.000000 -515.000000 C 2279.000000 -461.000000 2240.333333 -406.333333 2201.000000 -351.000000 C 2162.333333 -296.333333 2125.666667 -244.666667 2091.000000 -196.000000 C 2077.666667 -212.666667 2064.333333 -229.333333 2051.000000 -246.000000 C 2073.666667 -275.333333 2102.333333 -313.333333 2137.000000 -360.000000 C 2171.666667 -406.666667 2208.000000 -456.333333 2246.000000 -509.000000 C 2284.666667 -562.333333 2322.000000 -615.000000 2358.000000 -667.000000 C 2394.000000 -719.000000 2425.333333 -765.333333 2452.000000 -806.000000 C 2478.666667 -847.333333 2497.333333 -878.333333 2508.000000 -899.000000 C 2511.666667 -947.333333 2515.333333 -995.666667 2519.000000 -1044.000000 C 2524.000000 -1066.000000 2529.000000 -1088.000000 2534.000000 -1110.000000z M 2521.000000 -1379.000000 C 2521.000000 -1395.666667 2521.000000 -1414.000000 2521.000000 -1434.000000 C 2521.000000 -1454.666667 2519.666667 -1474.000000 2517.000000 -1492.000000 C 2543.333333 -1490.666667 2569.666667 -1489.333333 2596.000000 -1488.000000 C 2592.000000 -1468.666667 2587.000000 -1431.666667 2581.000000 -1377.000000 C 2575.666667 -1323.000000 2569.333333 -1258.000000 2562.000000 -1182.000000 C 2555.333333 -1106.000000 2549.000000 -1025.333333 2543.000000 -940.000000 C 2537.000000 -854.666667 2532.000000 -770.666667 2528.000000 -688.000000 C 2524.666667 -605.333333 2523.000000 -531.000000 2523.000000 -465.000000 C 2523.000000 -401.000000 2523.000000 -347.000000 2523.000000 -303.000000 C 2523.000000 -259.666667 2523.333333 -218.000000 2524.000000 -178.000000 C 2524.666667 -138.666667 2525.666667 -91.333333 2527.000000 -36.000000 C 2528.333333 -20.000000 2529.333333 -5.333333 2530.000000 8.000000 C 2530.666667 22.000000 2531.333333 36.000000 2532.000000 50.000000 C 2509.000000 50.000000 2486.000000 50.000000 2463.000000 50.000000 C 2464.333333 43.333333 2465.666667 31.333333 2467.000000 14.000000 C 2468.333333 -3.333333 2469.000000 -19.666667 2469.000000 -35.000000 C 2469.000000 -96.333333 2469.000000 -147.666667 2469.000000 -189.000000 C 2469.000000 -231.000000 2469.000000 -272.333333 2469.000000 -313.000000 C 2469.000000 -353.666667 2469.000000 -404.333333 2469.000000 -465.000000 C 2469.000000 -493.000000 2470.333333 -533.000000 2473.000000 -585.000000 C 2475.666667 -637.666667 2478.666667 -696.333333 2482.000000 -761.000000 C 2486.000000 -825.666667 2490.333333 -891.666667 2495.000000 -959.000000 C 2499.666667 -1026.333333 2503.666667 -1089.666667 2507.000000 -1149.000000 C 2511.000000 -1208.333333 2514.333333 -1258.333333 2517.000000 -1299.000000 C 2519.666667 -1340.333333 2521.000000 -1367.000000 2521.000000 -1379.000000z "/>
</g></svg>
