<?xml version="1.0" ?>
<svg xmlns="http://www.w3.org/2000/svg" version="1.1" width="600" height="600">
  <defs/>
  <g>
    <path stroke-width="0" fill="rgb(0, 0, 0)" opacity="1.0" d="M 227.762939453125 232.9053955078125 C 231.5465087890625 232.9053955078125 235.3302001953125 232.9053955078125 239.11376953125 232.9053955078125 C 239.11376953125 301.2162170410156 239.11376953125 369.52703857421875 239.11376953125 437.83782958984375 C 239.11376953125 446.7567138671875 241.0732421875 452.56756591796875 244.991943359375 455.270263671875 C 249.0458984375 457.97296142578125 257.1536865234375 459.3243408203125 269.3154296875 459.3243408203125 C 272.2882080078125 459.3243408203125 277.82861328125 459.3243408203125 285.936279296875 459.3243408203125 C 294.17919921875 459.3243408203125 303.1654052734375 459.3243408203125 312.894775390625 459.3243408203125 C 322.75927734375 459.3243408203125 332.015625 459.3243408203125 340.6640625 459.3243408203125 C 349.447509765625 459.3243408203125 355.9337158203125 459.3243408203125 360.1226806640625 459.3243408203125 C 369.1763916015625 459.3243408203125 375.932861328125 456.95947265625 380.3922119140625 452.229736328125 C 384.986572265625 447.6351318359375 388.1622314453125 438.9189453125 389.9188232421875 426.0810546875 C 391.8106689453125 413.2432861328125 393.297119140625 394.5946044921875 394.378173828125 370.1351318359375 C 396.134765625 371.4864501953125 398.026611328125 372.770263671875 400.0535888671875 373.9864501953125 C 402.2156982421875 375.06756591796875 404.175048828125 375.87841796875 405.9317626953125 376.4189453125 C 404.98583984375 401.148681640625 403.2967529296875 420.4053955078125 400.8643798828125 434.189208984375 C 398.567138671875 447.83782958984375 394.2430419921875 457.3648681640625 387.891845703125 462.770263671875 C 381.540771484375 468.310791015625 372.01416015625 471.0810546875 359.3118896484375 471.0810546875 C 357.6903076171875 471.0810546875 353.839111328125 471.0810546875 347.75830078125 471.0810546875 C 341.677490234375 471.0810546875 334.5831298828125 471.0810546875 326.475341796875 471.0810546875 C 318.502685546875 471.0810546875 310.46240234375 471.0810546875 302.3546142578125 471.0810546875 C 294.3819580078125 471.0810546875 287.490234375 471.0810546875 281.6796875 471.0810546875 C 275.869140625 471.0810546875 272.153076171875 471.0810546875 270.531494140625 471.0810546875 C 259.7210693359375 471.0810546875 251.140380859375 470.1351318359375 244.789306640625 468.2432861328125 C 238.5732421875 466.4864501953125 234.1815185546875 463.1756591796875 231.614013671875 458.310791015625 C 229.046630859375 453.5810546875 227.762939453125 446.689208984375 227.762939453125 437.6351318359375 C 227.762939453125 369.39190673828125 227.762939453125 301.1486511230469 227.762939453125 232.9053955078125M 232.4248046875 137.43243408203125 C 234.5194091796875 134.5946044921875 236.6138916015625 131.75674438476562 238.70849609375 128.91891479492188 C 254.7889404296875 134.0540771484375 271.4774169921875 140.270263671875 288.7740478515625 147.56756591796875 C 306.205810546875 154.8648681640625 322.6241455078125 162.29730224609375 338.0289306640625 169.8648681640625 C 353.56884765625 177.29730224609375 366.338623046875 184.25674438476562 376.3382568359375 190.74325561523438 C 374.17626953125 194.12161254882812 372.01416015625 197.5 369.85205078125 200.87838745117188 C 359.71728515625 194.12161254882812 346.8798828125 186.89190673828125 331.340087890625 179.18917846679688 C 315.9351806640625 171.35134887695312 299.58447265625 163.78378295898438 282.287841796875 156.48648071289062 C 265.1263427734375 149.0540771484375 248.50537109375 142.70269775390625 232.4248046875 137.43243408203125M 167.35986328125 267.770263671875 C 170.873291015625 268.5810852050781 174.386474609375 269.39190673828125 177.89990234375 270.20269775390625 C 176.143310546875 286.8243408203125 173.17041015625 304.52703857421875 168.9814453125 323.310791015625 C 164.7923583984375 342.0946044921875 159.3870849609375 360.06756591796875 152.7657470703125 377.229736328125 C 146.144287109375 394.39190673828125 137.8338623046875 409.0540771484375 127.834228515625 421.2161865234375 C 124.726318359375 418.9864501953125 121.6182861328125 416.7567138671875 118.51025390625 414.52703857421875 C 128.23974609375 402.9053955078125 136.347412109375 388.7161865234375 142.833740234375 371.95947265625 C 149.3199462890625 355.20269775390625 154.590087890625 337.770263671875 158.6439208984375 319.66217041015625 C 162.69775390625 301.4189147949219 165.6031494140625 284.12164306640625 167.35986328125 267.770263671875M 397.4185791015625 262.0946044921875 C 400.526611328125 260.6756591796875 403.634521484375 259.25677490234375 406.7425537109375 257.83782958984375 C 418.9041748046875 273.10809326171875 430.1875 289.5946044921875 440.5926513671875 307.29730224609375 C 450.9976806640625 324.8648681640625 459.916259765625 342.229736328125 467.348388671875 359.39190673828125 C 474.9156494140625 376.4189453125 480.253173828125 391.95947265625 483.3612060546875 406.0135498046875 C 479.9154052734375 407.43243408203125 476.4696044921875 408.851318359375 473.0238037109375 410.270263671875 C 469.915771484375 396.2161865234375 464.5782470703125 380.60809326171875 457.0108642578125 363.4459228515625 C 449.443603515625 346.148681640625 440.5250244140625 328.7161865234375 430.255126953125 311.148681640625 C 420.120361328125 293.4459533691406 409.1749267578125 277.0946044921875 397.4185791015625 262.0946044921875"/>
  </g>
</svg>
