<?xml version="1.0" encoding="utf-8"?>
<svg xmlns="http://www.w3.org/2000/svg" xmlns:ev="http://www.w3.org/2001/xml-events" xmlns:xlink="http://www.w3.org/1999/xlink" version="1.1" baseProfile="full" width="30496.0" height="1753.0" viewBox="136.0 -1597.0 30496.0 1753.0">
<defs/>
<g><path d="M 586.000000 -1584.000000 C 604.333333 -1584.000000 622.666667 -1584.000000 641.000000 -1584.000000 C 641.000000 -1331.333333 641.000000 -1078.666667 641.000000 -826.000000 C 641.000000 -728.666667 636.000000 -634.000000 626.000000 -542.000000 C 616.666667 -450.666667 596.666667 -363.666667 566.000000 -281.000000 C 535.333333 -198.333333 490.333333 -120.666667 431.000000 -48.000000 C 371.666667 24.666667 292.000000 92.666667 192.000000 156.000000 C 189.333333 152.000000 185.666667 147.333333 181.000000 142.000000 C 177.000000 136.666667 172.333333 131.666667 167.000000 127.000000 C 161.666667 123.000000 157.333333 119.666667 154.000000 117.000000 C 250.000000 55.666667 326.666667 -10.000000 384.000000 -80.000000 C 441.333333 -150.666667 484.333333 -225.666667 513.000000 -305.000000 C 542.333333 -384.333333 561.666667 -467.333333 571.000000 -554.000000 C 581.000000 -641.333333 586.000000 -732.000000 586.000000 -826.000000 C 586.000000 -1078.666667 586.000000 -1331.333333 586.000000 -1584.000000z M 1283.000000 -1584.000000 C 1301.333333 -1584.000000 1319.666667 -1584.000000 1338.000000 -1584.000000 C 1338.000000 -1011.333333 1338.000000 -438.666667 1338.000000 134.000000 C 1319.666667 134.000000 1301.333333 134.000000 1283.000000 134.000000 C 1283.000000 -438.666667 1283.000000 -1011.333333 1283.000000 -1584.000000z M 136.000000 -570.000000 C 686.666667 -570.000000 1237.333333 -570.000000 1788.000000 -570.000000 C 1788.000000 -551.666667 1788.000000 -533.333333 1788.000000 -515.000000 C 1237.333333 -515.000000 686.666667 -515.000000 136.000000 -515.000000 C 136.000000 -533.333333 136.000000 -551.666667 136.000000 -570.000000z M 204.000000 -1167.000000 C 718.333333 -1167.000000 1232.666667 -1167.000000 1747.000000 -1167.000000 C 1747.000000 -1148.000000 1747.000000 -1129.000000 1747.000000 -1110.000000 C 1232.666667 -1110.000000 718.333333 -1110.000000 204.000000 -1110.000000 C 204.000000 -1129.000000 204.000000 -1148.000000 204.000000 -1167.000000z "/>
</g>
<g><path d="M 2358.000000 -935.000000 C 2376.333333 -930.666667 2394.666667 -926.333333 2413.000000 -922.000000 C 2371.000000 -806.666667 2317.333333 -698.666667 2252.000000 -598.000000 C 2186.666667 -497.333333 2116.333333 -412.000000 2041.000000 -342.000000 C 2038.333333 -344.666667 2033.666667 -347.666667 2027.000000 -351.000000 C 2021.000000 -355.000000 2014.333333 -359.333333 2007.000000 -364.000000 C 2000.333333 -368.666667 1994.333333 -372.000000 1989.000000 -374.000000 C 2068.333333 -442.000000 2139.666667 -525.333333 2203.000000 -624.000000 C 2266.333333 -722.666667 2318.000000 -826.333333 2358.000000 -935.000000z M 3360.000000 -910.000000 C 3375.333333 -916.333333 3390.666667 -922.666667 3406.000000 -929.000000 C 3456.000000 -867.666667 3504.333333 -800.666667 3551.000000 -728.000000 C 3597.666667 -656.000000 3639.000000 -585.333333 3675.000000 -516.000000 C 3711.000000 -447.333333 3738.000000 -386.000000 3756.000000 -332.000000 C 3738.666667 -324.333333 3721.333333 -316.666667 3704.000000 -309.000000 C 3687.333333 -363.000000 3661.000000 -424.666667 3625.000000 -494.000000 C 3589.000000 -564.000000 3548.000000 -635.333333 3502.000000 -708.000000 C 3456.000000 -781.333333 3408.666667 -848.666667 3360.000000 -910.000000z M 2849.000000 -1594.000000 C 2868.333333 -1594.000000 2887.666667 -1594.000000 2907.000000 -1594.000000 C 2907.000000 -1464.000000 2907.000000 -1334.000000 2907.000000 -1204.000000 C 2887.666667 -1204.000000 2868.333333 -1204.000000 2849.000000 -1204.000000 C 2849.000000 -1334.000000 2849.000000 -1464.000000 2849.000000 -1594.000000z M 2047.000000 -1231.000000 C 2603.000000 -1231.000000 3159.000000 -1231.000000 3715.000000 -1231.000000 C 3715.000000 -1212.333333 3715.000000 -1193.666667 3715.000000 -1175.000000 C 3159.000000 -1175.000000 2603.000000 -1175.000000 2047.000000 -1175.000000 C 2047.000000 -1193.666667 2047.000000 -1212.333333 2047.000000 -1231.000000z M 3120.000000 -1206.000000 C 3139.333333 -1206.000000 3158.666667 -1206.000000 3178.000000 -1206.000000 C 3178.000000 -793.666667 3178.000000 -381.333333 3178.000000 31.000000 C 3178.000000 61.666667 3172.666667 83.666667 3162.000000 97.000000 C 3152.000000 110.333333 3135.333333 119.666667 3112.000000 125.000000 C 3088.000000 129.666667 3050.333333 132.666667 2999.000000 134.000000 C 2947.666667 135.333333 2880.333333 136.000000 2797.000000 136.000000 C 2795.000000 128.666667 2791.666667 119.000000 2787.000000 107.000000 C 2782.333333 95.666667 2777.000000 85.666667 2771.000000 77.000000 C 2820.333333 78.333333 2865.666667 79.333333 2907.000000 80.000000 C 2949.000000 80.666667 2984.666667 80.666667 3014.000000 80.000000 C 3044.000000 79.333333 3064.666667 79.000000 3076.000000 79.000000 C 3094.000000 77.666667 3105.666667 73.666667 3111.000000 67.000000 C 3117.000000 61.000000 3120.000000 49.666667 3120.000000 33.000000 C 3120.000000 -380.000000 3120.000000 -793.000000 3120.000000 -1206.000000z M 2646.000000 -1210.000000 C 2664.333333 -1210.000000 2682.666667 -1210.000000 2701.000000 -1210.000000 C 2701.000000 -1112.666667 2701.000000 -1015.333333 2701.000000 -918.000000 C 2701.000000 -832.000000 2696.333333 -743.333333 2687.000000 -652.000000 C 2677.666667 -560.666667 2656.666667 -468.333333 2624.000000 -375.000000 C 2591.333333 -282.333333 2542.000000 -191.666667 2476.000000 -103.000000 C 2410.000000 -15.000000 2320.666667 68.666667 2208.000000 148.000000 C 2205.333333 142.666667 2201.333333 137.666667 2196.000000 133.000000 C 2191.333333 129.000000 2186.333333 124.666667 2181.000000 120.000000 C 2175.666667 115.333333 2171.333333 111.666667 2168.000000 109.000000 C 2278.000000 32.333333 2365.333333 -49.000000 2430.000000 -135.000000 C 2494.666667 -221.666667 2542.333333 -309.666667 2573.000000 -399.000000 C 2603.666667 -489.000000 2623.333333 -577.666667 2632.000000 -665.000000 C 2641.333333 -753.000000 2646.000000 -837.333333 2646.000000 -918.000000 C 2646.000000 -1015.333333 2646.000000 -1112.666667 2646.000000 -1210.000000z "/>
</g>
<g><path d="M 5063.000000 -1596.000000 C 5082.333333 -1596.000000 5101.666667 -1596.000000 5121.000000 -1596.000000 C 5121.000000 -1480.000000 5121.000000 -1364.000000 5121.000000 -1248.000000 C 5101.666667 -1248.000000 5082.333333 -1248.000000 5063.000000 -1248.000000 C 5063.000000 -1364.000000 5063.000000 -1480.000000 5063.000000 -1596.000000z M 5063.000000 -687.000000 C 5082.333333 -687.000000 5101.666667 -687.000000 5121.000000 -687.000000 C 5121.000000 -413.333333 5121.000000 -139.666667 5121.000000 134.000000 C 5101.666667 134.000000 5082.333333 134.000000 5063.000000 134.000000 C 5063.000000 -139.666667 5063.000000 -413.333333 5063.000000 -687.000000z M 4564.000000 -1286.000000 C 4920.333333 -1286.000000 5276.666667 -1286.000000 5633.000000 -1286.000000 C 5633.000000 -1183.000000 5633.000000 -1080.000000 5633.000000 -977.000000 C 5614.666667 -977.000000 5596.333333 -977.000000 5578.000000 -977.000000 C 5578.000000 -1061.000000 5578.000000 -1145.000000 5578.000000 -1229.000000 C 5258.666667 -1229.000000 4939.333333 -1229.000000 4620.000000 -1229.000000 C 4620.000000 -1145.000000 4620.000000 -1061.000000 4620.000000 -977.000000 C 4601.333333 -977.000000 4582.666667 -977.000000 4564.000000 -977.000000 C 4564.000000 -1080.000000 4564.000000 -1183.000000 4564.000000 -1286.000000z M 4792.000000 -987.000000 C 4792.000000 -898.000000 4792.000000 -809.000000 4792.000000 -720.000000 C 4998.333333 -720.000000 5204.666667 -720.000000 5411.000000 -720.000000 C 5411.000000 -809.000000 5411.000000 -898.000000 5411.000000 -987.000000 C 5204.666667 -987.000000 4998.333333 -987.000000 4792.000000 -987.000000z M 4737.000000 -1043.000000 C 4980.000000 -1043.000000 5223.000000 -1043.000000 5466.000000 -1043.000000 C 5466.000000 -916.000000 5466.000000 -789.000000 5466.000000 -662.000000 C 5223.000000 -662.000000 4980.000000 -662.000000 4737.000000 -662.000000 C 4737.000000 -789.000000 4737.000000 -916.000000 4737.000000 -1043.000000z M 4643.000000 -482.000000 C 4934.666667 -482.000000 5226.333333 -482.000000 5518.000000 -482.000000 C 5518.000000 -463.333333 5518.000000 -444.666667 5518.000000 -426.000000 C 5244.666667 -426.000000 4971.333333 -426.000000 4698.000000 -426.000000 C 4698.000000 -279.666667 4698.000000 -133.333333 4698.000000 13.000000 C 4679.666667 13.000000 4661.333333 13.000000 4643.000000 13.000000 C 4643.000000 -152.000000 4643.000000 -317.000000 4643.000000 -482.000000z M 5501.000000 -482.000000 C 5519.333333 -482.000000 5537.666667 -482.000000 5556.000000 -482.000000 C 5556.000000 -341.666667 5556.000000 -201.333333 5556.000000 -61.000000 C 5556.000000 -43.666667 5553.333333 -29.666667 5548.000000 -19.000000 C 5543.333333 -9.000000 5532.666667 -0.666667 5516.000000 6.000000 C 5500.666667 10.666667 5478.000000 13.666667 5448.000000 15.000000 C 5418.000000 16.333333 5378.666667 17.000000 5330.000000 17.000000 C 5328.666667 8.333333 5326.000000 -0.666667 5322.000000 -10.000000 C 5318.000000 -20.000000 5313.666667 -29.333333 5309.000000 -38.000000 C 5352.333333 -36.666667 5388.333333 -36.000000 5417.000000 -36.000000 C 5445.666667 -36.000000 5465.333333 -36.000000 5476.000000 -36.000000 C 5486.000000 -37.333333 5492.666667 -39.666667 5496.000000 -43.000000 C 5499.333333 -46.333333 5501.000000 -52.333333 5501.000000 -61.000000 C 5501.000000 -201.333333 5501.000000 -341.666667 5501.000000 -482.000000z M 4671.000000 -1549.000000 C 4687.000000 -1555.666667 4703.000000 -1562.333333 4719.000000 -1569.000000 C 4747.666667 -1529.000000 4774.333333 -1486.333333 4799.000000 -1441.000000 C 4823.666667 -1395.666667 4841.333333 -1356.333333 4852.000000 -1323.000000 C 4834.666667 -1315.333333 4817.333333 -1307.666667 4800.000000 -1300.000000 C 4788.666667 -1334.666667 4771.000000 -1375.333333 4747.000000 -1422.000000 C 4723.666667 -1468.666667 4698.333333 -1511.000000 4671.000000 -1549.000000z M 5459.000000 -1567.000000 C 5476.000000 -1559.333333 5493.000000 -1551.666667 5510.000000 -1544.000000 C 5486.000000 -1500.000000 5459.666667 -1455.666667 5431.000000 -1411.000000 C 5402.333333 -1366.333333 5375.000000 -1326.666667 5349.000000 -1292.000000 C 5334.333333 -1299.000000 5319.666667 -1306.000000 5305.000000 -1313.000000 C 5330.333333 -1346.333333 5357.666667 -1387.666667 5387.000000 -1437.000000 C 5417.000000 -1486.333333 5441.000000 -1529.666667 5459.000000 -1567.000000z M 3934.000000 -1185.000000 C 4106.666667 -1185.000000 4279.333333 -1185.000000 4452.000000 -1185.000000 C 4452.000000 -1165.666667 4452.000000 -1146.333333 4452.000000 -1127.000000 C 4279.333333 -1127.000000 4106.666667 -1127.000000 3934.000000 -1127.000000 C 3934.000000 -1146.333333 3934.000000 -1165.666667 3934.000000 -1185.000000z M 4188.000000 -1594.000000 C 4207.000000 -1591.333333 4226.000000 -1588.666667 4245.000000 -1586.000000 C 4229.666667 -1496.666667 4212.333333 -1399.333333 4193.000000 -1294.000000 C 4173.666667 -1189.333333 4153.000000 -1083.000000 4131.000000 -975.000000 C 4109.666667 -867.666667 4088.333333 -765.666667 4067.000000 -669.000000 C 4046.333333 -572.333333 4027.000000 -487.666667 4009.000000 -415.000000 C 3990.333333 -423.333333 3971.666667 -431.666667 3953.000000 -440.000000 C 3971.000000 -510.000000 3990.666667 -593.000000 4012.000000 -689.000000 C 4033.333333 -785.000000 4054.333333 -886.000000 4075.000000 -992.000000 C 4096.333333 -1098.666667 4116.333333 -1203.666667 4135.000000 -1307.000000 C 4154.333333 -1411.000000 4172.000000 -1506.666667 4188.000000 -1594.000000z M 3997.000000 -536.000000 C 4009.333333 -549.333333 4021.666667 -562.666667 4034.000000 -576.000000 C 4102.000000 -532.666667 4169.666667 -483.333333 4237.000000 -428.000000 C 4305.000000 -373.333333 4367.000000 -318.000000 4423.000000 -262.000000 C 4479.666667 -206.666667 4524.000000 -155.333333 4556.000000 -108.000000 C 4542.666667 -93.000000 4529.333333 -78.000000 4516.000000 -63.000000 C 4484.000000 -110.333333 4439.666667 -162.000000 4383.000000 -218.000000 C 4327.000000 -274.666667 4265.333333 -330.666667 4198.000000 -386.000000 C 4130.666667 -442.000000 4063.666667 -492.000000 3997.000000 -536.000000z M 4433.000000 -1185.000000 C 4437.000000 -1185.000000 4441.000000 -1185.000000 4445.000000 -1185.000000 C 4448.666667 -1186.000000 4452.333333 -1187.000000 4456.000000 -1188.000000 C 4467.666667 -1185.000000 4479.333333 -1182.000000 4491.000000 -1179.000000 C 4477.000000 -935.666667 4448.333333 -728.000000 4405.000000 -556.000000 C 4362.333333 -384.000000 4306.333333 -242.000000 4237.000000 -130.000000 C 4168.333333 -18.000000 4087.333333 70.666667 3994.000000 136.000000 C 3988.666667 130.000000 3982.000000 122.000000 3974.000000 112.000000 C 3966.666667 102.666667 3958.333333 94.666667 3949.000000 88.000000 C 4037.666667 30.666667 4115.666667 -52.333333 4183.000000 -161.000000 C 4251.000000 -269.666667 4306.333333 -407.000000 4349.000000 -573.000000 C 4392.333333 -739.000000 4420.333333 -937.000000 4433.000000 -1167.000000 C 4433.000000 -1173.000000 4433.000000 -1179.000000 4433.000000 -1185.000000z "/>
</g>
<g><path d="M 5831.000000 -659.000000 C 5892.333333 -674.333333 5962.000000 -691.666667 6040.000000 -711.000000 C 6118.000000 -731.000000 6201.333333 -752.666667 6290.000000 -776.000000 C 6379.333333 -800.000000 6469.000000 -823.666667 6559.000000 -847.000000 C 6560.666667 -829.000000 6562.333333 -811.000000 6564.000000 -793.000000 C 6435.333333 -757.000000 6307.000000 -722.000000 6179.000000 -688.000000 C 6051.666667 -654.000000 5940.666667 -624.333333 5846.000000 -599.000000 C 5841.000000 -619.000000 5836.000000 -639.000000 5831.000000 -659.000000z M 5891.000000 -1486.000000 C 6139.666667 -1486.000000 6388.333333 -1486.000000 6637.000000 -1486.000000 C 6637.000000 -1467.333333 6637.000000 -1448.666667 6637.000000 -1430.000000 C 6388.333333 -1430.000000 6139.666667 -1430.000000 5891.000000 -1430.000000 C 5891.000000 -1448.666667 5891.000000 -1467.333333 5891.000000 -1486.000000z M 6225.000000 -1117.000000 C 6244.000000 -1117.000000 6263.000000 -1117.000000 6282.000000 -1117.000000 C 6282.000000 -730.000000 6282.000000 -343.000000 6282.000000 44.000000 C 6282.000000 70.000000 6277.333333 89.000000 6268.000000 101.000000 C 6259.333333 113.000000 6245.000000 121.666667 6225.000000 127.000000 C 6205.666667 131.666667 6175.000000 134.333333 6133.000000 135.000000 C 6091.666667 135.666667 6032.666667 136.000000 5956.000000 136.000000 C 5954.666667 130.000000 5951.666667 122.000000 5947.000000 112.000000 C 5942.333333 102.666667 5937.666667 93.333333 5933.000000 84.000000 C 5995.666667 85.333333 6049.666667 86.000000 6095.000000 86.000000 C 6140.333333 86.000000 6170.000000 85.333333 6184.000000 84.000000 C 6198.000000 83.333333 6208.333333 80.333333 6215.000000 75.000000 C 6221.666667 69.666667 6225.000000 60.000000 6225.000000 46.000000 C 6225.000000 -341.666667 6225.000000 -729.333333 6225.000000 -1117.000000z M 6612.000000 -1486.000000 C 6616.666667 -1486.000000 6621.333333 -1486.000000 6626.000000 -1486.000000 C 6629.666667 -1487.333333 6633.333333 -1488.666667 6637.000000 -1490.000000 C 6650.666667 -1481.666667 6664.333333 -1473.333333 6678.000000 -1465.000000 C 6644.666667 -1415.000000 6605.333333 -1364.666667 6560.000000 -1314.000000 C 6514.666667 -1263.333333 6467.333333 -1216.000000 6418.000000 -1172.000000 C 6368.666667 -1128.000000 6321.000000 -1089.333333 6275.000000 -1056.000000 C 6269.666667 -1062.666667 6263.000000 -1069.000000 6255.000000 -1075.000000 C 6247.666667 -1081.666667 6240.666667 -1087.000000 6234.000000 -1091.000000 C 6280.000000 -1123.000000 6326.666667 -1160.333333 6374.000000 -1203.000000 C 6421.333333 -1245.666667 6466.000000 -1290.666667 6508.000000 -1338.000000 C 6550.666667 -1385.333333 6585.333333 -1431.000000 6612.000000 -1475.000000 C 6612.000000 -1478.666667 6612.000000 -1482.333333 6612.000000 -1486.000000z M 6831.000000 -1231.000000 C 7082.666667 -1231.000000 7334.333333 -1231.000000 7586.000000 -1231.000000 C 7586.000000 -1212.333333 7586.000000 -1193.666667 7586.000000 -1175.000000 C 7334.333333 -1175.000000 7082.666667 -1175.000000 6831.000000 -1175.000000 C 6831.000000 -1193.666667 6831.000000 -1212.333333 6831.000000 -1231.000000z M 6927.000000 -1590.000000 C 6945.666667 -1586.000000 6964.333333 -1582.000000 6983.000000 -1578.000000 C 6956.333333 -1482.000000 6924.666667 -1388.666667 6888.000000 -1298.000000 C 6851.333333 -1207.333333 6811.333333 -1122.333333 6768.000000 -1043.000000 C 6724.666667 -964.333333 6678.000000 -894.333333 6628.000000 -833.000000 C 6625.333333 -835.666667 6620.666667 -839.333333 6614.000000 -844.000000 C 6608.000000 -848.666667 6601.666667 -852.666667 6595.000000 -856.000000 C 6589.000000 -860.000000 6583.333333 -863.333333 6578.000000 -866.000000 C 6629.333333 -926.000000 6676.666667 -994.333333 6720.000000 -1071.000000 C 6763.333333 -1148.333333 6802.666667 -1231.000000 6838.000000 -1319.000000 C 6873.333333 -1407.666667 6903.000000 -1498.000000 6927.000000 -1590.000000z M 7371.000000 -1219.000000 C 7390.000000 -1216.000000 7409.000000 -1213.000000 7428.000000 -1210.000000 C 7387.333333 -979.333333 7330.000000 -778.666667 7256.000000 -608.000000 C 7182.666667 -438.000000 7086.333333 -292.000000 6967.000000 -170.000000 C 6848.333333 -48.000000 6700.000000 55.333333 6522.000000 140.000000 C 6519.333333 134.666667 6515.333333 129.000000 6510.000000 123.000000 C 6505.333333 117.666667 6500.333333 111.666667 6495.000000 105.000000 C 6490.333333 99.000000 6486.000000 94.000000 6482.000000 90.000000 C 6660.000000 12.000000 6807.000000 -86.000000 6923.000000 -204.000000 C 7039.666667 -322.666667 7133.333333 -465.333333 7204.000000 -632.000000 C 7275.333333 -799.333333 7331.000000 -995.000000 7371.000000 -1219.000000z M 6822.000000 -1164.000000 C 6860.000000 -969.333333 6912.666667 -788.333333 6980.000000 -621.000000 C 7047.333333 -454.333333 7132.000000 -310.000000 7234.000000 -188.000000 C 7336.666667 -66.666667 7459.666667 24.666667 7603.000000 86.000000 C 7599.000000 90.000000 7594.000000 94.666667 7588.000000 100.000000 C 7582.666667 106.000000 7577.333333 111.666667 7572.000000 117.000000 C 7567.333333 122.333333 7563.000000 127.333333 7559.000000 132.000000 C 7415.666667 66.000000 7292.333333 -29.333333 7189.000000 -154.000000 C 7086.333333 -279.333333 7000.666667 -426.666667 6932.000000 -596.000000 C 6863.333333 -766.000000 6809.333333 -951.333333 6770.000000 -1152.000000 C 6787.333333 -1156.000000 6804.666667 -1160.000000 6822.000000 -1164.000000z "/>
</g>
<g><path d="M 8271.000000 -924.000000 C 8675.000000 -972.000000 9079.000000 -1020.000000 9483.000000 -1068.000000 C 9486.000000 -1050.000000 9489.000000 -1032.000000 9492.000000 -1014.000000 C 9087.666667 -966.666667 8683.333333 -919.333333 8279.000000 -872.000000 C 8276.333333 -889.333333 8273.666667 -906.666667 8271.000000 -924.000000z M 9049.000000 -1498.000000 C 9061.000000 -1508.000000 9073.000000 -1518.000000 9085.000000 -1528.000000 C 9129.000000 -1497.333333 9174.000000 -1463.333333 9220.000000 -1426.000000 C 9266.000000 -1389.333333 9308.666667 -1352.666667 9348.000000 -1316.000000 C 9388.000000 -1279.333333 9420.666667 -1247.000000 9446.000000 -1219.000000 C 9433.333333 -1207.666667 9420.666667 -1196.333333 9408.000000 -1185.000000 C 9382.666667 -1213.000000 9350.000000 -1245.000000 9310.000000 -1281.000000 C 9270.666667 -1317.666667 9228.000000 -1355.333333 9182.000000 -1394.000000 C 9136.666667 -1432.666667 9092.333333 -1467.333333 9049.000000 -1498.000000z M 8335.000000 -1571.000000 C 8352.666667 -1565.666667 8370.333333 -1560.333333 8388.000000 -1555.000000 C 8340.000000 -1443.666667 8284.000000 -1336.333333 8220.000000 -1233.000000 C 8156.000000 -1130.333333 8086.666667 -1034.333333 8012.000000 -945.000000 C 7938.000000 -856.333333 7861.333333 -777.333333 7782.000000 -708.000000 C 7779.333333 -712.000000 7775.333333 -717.000000 7770.000000 -723.000000 C 7765.333333 -729.000000 7760.333333 -734.666667 7755.000000 -740.000000 C 7749.666667 -746.000000 7745.000000 -750.333333 7741.000000 -753.000000 C 7820.333333 -818.333333 7896.666667 -894.000000 7970.000000 -980.000000 C 8044.000000 -1066.666667 8112.000000 -1160.000000 8174.000000 -1260.000000 C 8236.666667 -1360.666667 8290.333333 -1464.333333 8335.000000 -1571.000000z M 8099.000000 -1098.000000 C 8117.333333 -1116.666667 8135.666667 -1135.333333 8154.000000 -1154.000000 C 8154.000000 -1153.333333 8154.000000 -1152.666667 8154.000000 -1152.000000 C 8154.000000 -724.000000 8154.000000 -296.000000 8154.000000 132.000000 C 8135.666667 132.000000 8117.333333 132.000000 8099.000000 132.000000 C 8099.000000 -278.000000 8099.000000 -688.000000 8099.000000 -1098.000000z M 8772.000000 -1569.000000 C 8790.666667 -1569.000000 8809.333333 -1569.000000 8828.000000 -1569.000000 C 8838.666667 -1342.333333 8856.666667 -1130.666667 8882.000000 -934.000000 C 8907.333333 -737.333333 8941.333333 -564.333333 8984.000000 -415.000000 C 9027.333333 -266.333333 9081.000000 -149.000000 9145.000000 -63.000000 C 9209.000000 22.333333 9284.000000 68.333333 9370.000000 75.000000 C 9403.333333 76.333333 9429.666667 46.000000 9449.000000 -16.000000 C 9469.000000 -78.000000 9485.333333 -168.000000 9498.000000 -286.000000 C 9503.333333 -283.333333 9508.666667 -280.333333 9514.000000 -277.000000 C 9520.000000 -274.333333 9526.000000 -271.666667 9532.000000 -269.000000 C 9538.666667 -266.333333 9544.000000 -264.333333 9548.000000 -263.000000 C 9538.000000 -165.666667 9525.000000 -87.333333 9509.000000 -28.000000 C 9493.000000 31.333333 9473.666667 73.666667 9451.000000 99.000000 C 9429.000000 125.000000 9402.000000 137.333333 9370.000000 136.000000 C 9288.000000 132.666667 9216.000000 100.666667 9154.000000 40.000000 C 9092.666667 -20.000000 9040.000000 -102.333333 8996.000000 -207.000000 C 8952.000000 -312.333333 8915.333333 -435.666667 8886.000000 -577.000000 C 8856.666667 -718.333333 8833.000000 -873.000000 8815.000000 -1041.000000 C 8797.000000 -1209.666667 8782.666667 -1385.666667 8772.000000 -1569.000000z "/>
</g>
<g><path d="M 10514.000000 -1572.000000 C 10530.666667 -1579.333333 10547.333333 -1586.666667 10564.000000 -1594.000000 C 10600.000000 -1542.666667 10634.333333 -1486.000000 10667.000000 -1424.000000 C 10699.666667 -1362.666667 10722.333333 -1311.000000 10735.000000 -1269.000000 C 10718.333333 -1260.000000 10701.666667 -1251.000000 10685.000000 -1242.000000 C 10671.000000 -1286.666667 10648.333333 -1340.000000 10617.000000 -1402.000000 C 10585.666667 -1464.666667 10551.333333 -1521.333333 10514.000000 -1572.000000z M 11238.000000 -1596.000000 C 11256.000000 -1587.000000 11274.000000 -1578.000000 11292.000000 -1569.000000 C 11263.333333 -1513.666667 11231.333333 -1455.000000 11196.000000 -1393.000000 C 11161.333333 -1331.000000 11127.333333 -1277.666667 11094.000000 -1233.000000 C 11078.666667 -1240.666667 11063.333333 -1248.333333 11048.000000 -1256.000000 C 11069.333333 -1286.666667 11091.666667 -1321.666667 11115.000000 -1361.000000 C 11139.000000 -1401.000000 11162.000000 -1441.666667 11184.000000 -1483.000000 C 11206.000000 -1525.000000 11224.000000 -1562.666667 11238.000000 -1596.000000z M 10712.000000 -632.000000 C 10732.333333 -632.000000 10752.666667 -632.000000 10773.000000 -632.000000 C 10763.000000 -550.000000 10747.666667 -470.333333 10727.000000 -393.000000 C 10706.333333 -316.333333 10678.000000 -244.333333 10642.000000 -177.000000 C 10606.666667 -110.333333 10561.000000 -50.333333 10505.000000 3.000000 C 10449.666667 56.333333 10380.333333 100.666667 10297.000000 136.000000 C 10291.666667 130.000000 10285.000000 123.333333 10277.000000 116.000000 C 10269.666667 109.333333 10263.000000 103.333333 10257.000000 98.000000 C 10337.666667 64.666667 10405.000000 22.333333 10459.000000 -29.000000 C 10513.666667 -80.333333 10558.000000 -138.333333 10592.000000 -203.000000 C 10626.000000 -267.666667 10652.000000 -336.000000 10670.000000 -408.000000 C 10688.666667 -480.000000 10702.666667 -554.666667 10712.000000 -632.000000z M 10988.000000 -639.000000 C 11007.333333 -639.000000 11026.666667 -639.000000 11046.000000 -639.000000 C 11046.000000 -423.333333 11046.000000 -207.666667 11046.000000 8.000000 C 11046.000000 28.000000 11049.666667 41.333333 11057.000000 48.000000 C 11065.000000 54.666667 11083.000000 58.000000 11111.000000 58.000000 C 11119.666667 58.000000 11137.333333 58.000000 11164.000000 58.000000 C 11191.333333 58.000000 11219.000000 58.000000 11247.000000 58.000000 C 11275.666667 58.000000 11295.666667 58.000000 11307.000000 58.000000 C 11325.000000 58.000000 11338.333333 52.333333 11347.000000 41.000000 C 11356.333333 30.333333 11362.333333 7.000000 11365.000000 -29.000000 C 11368.333333 -65.000000 11370.666667 -119.333333 11372.000000 -192.000000 C 11377.333333 -188.000000 11383.000000 -184.333333 11389.000000 -181.000000 C 11395.666667 -178.333333 11402.333333 -175.666667 11409.000000 -173.000000 C 11416.333333 -170.333333 11422.666667 -168.333333 11428.000000 -167.000000 C 11426.666667 -93.000000 11422.666667 -35.666667 11416.000000 5.000000 C 11410.000000 46.333333 11399.000000 74.666667 11383.000000 90.000000 C 11367.000000 105.333333 11343.666667 113.000000 11313.000000 113.000000 C 11307.666667 113.000000 11295.333333 113.000000 11276.000000 113.000000 C 11256.666667 113.000000 11235.000000 113.000000 11211.000000 113.000000 C 11187.666667 113.000000 11166.333333 113.000000 11147.000000 113.000000 C 11128.333333 113.000000 11116.333333 113.000000 11111.000000 113.000000 C 11079.000000 113.000000 11054.000000 110.000000 11036.000000 104.000000 C 11018.000000 98.666667 11005.333333 88.333333 10998.000000 73.000000 C 10991.333333 57.666667 10988.000000 36.000000 10988.000000 8.000000 C 10988.000000 -207.666667 10988.000000 -423.333333 10988.000000 -639.000000z M 10525.000000 -1148.000000 C 10525.000000 -985.333333 10525.000000 -822.666667 10525.000000 -660.000000 C 10771.000000 -660.000000 11017.000000 -660.000000 11263.000000 -660.000000 C 11263.000000 -822.666667 11263.000000 -985.333333 11263.000000 -1148.000000 C 11017.000000 -1148.000000 10771.000000 -1148.000000 10525.000000 -1148.000000z M 10470.000000 -1204.000000 C 10752.666667 -1204.000000 11035.333333 -1204.000000 11318.000000 -1204.000000 C 11318.000000 -1004.333333 11318.000000 -804.666667 11318.000000 -605.000000 C 11035.333333 -605.000000 10752.666667 -605.000000 10470.000000 -605.000000 C 10470.000000 -804.666667 10470.000000 -1004.333333 10470.000000 -1204.000000z M 10061.000000 -1455.000000 C 10080.000000 -1455.000000 10099.000000 -1455.000000 10118.000000 -1455.000000 C 10118.000000 -927.000000 10118.000000 -399.000000 10118.000000 129.000000 C 10099.000000 129.000000 10080.000000 129.000000 10061.000000 129.000000 C 10061.000000 -399.000000 10061.000000 -927.000000 10061.000000 -1455.000000z M 9709.000000 -1052.000000 C 9938.333333 -1052.000000 10167.666667 -1052.000000 10397.000000 -1052.000000 C 10397.000000 -1033.333333 10397.000000 -1014.666667 10397.000000 -996.000000 C 10167.666667 -996.000000 9938.333333 -996.000000 9709.000000 -996.000000 C 9709.000000 -1014.666667 9709.000000 -1033.333333 9709.000000 -1052.000000z M 10063.000000 -1035.000000 C 10078.333333 -1029.333333 10093.666667 -1023.666667 10109.000000 -1018.000000 C 10088.333333 -951.333333 10063.000000 -882.000000 10033.000000 -810.000000 C 10003.000000 -738.666667 9970.000000 -668.333333 9934.000000 -599.000000 C 9898.000000 -529.666667 9861.000000 -465.333333 9823.000000 -406.000000 C 9785.666667 -346.666667 9748.333333 -296.333333 9711.000000 -255.000000 C 9707.666667 -261.666667 9701.666667 -269.333333 9693.000000 -278.000000 C 9685.000000 -287.333333 9677.666667 -294.666667 9671.000000 -300.000000 C 9707.000000 -338.000000 9743.666667 -385.000000 9781.000000 -441.000000 C 9819.000000 -497.666667 9856.000000 -559.333333 9892.000000 -626.000000 C 9928.000000 -692.666667 9960.666667 -761.000000 9990.000000 -831.000000 C 10019.333333 -901.666667 10043.666667 -969.666667 10063.000000 -1035.000000z M 10332.000000 -1559.000000 C 10348.000000 -1544.333333 10364.000000 -1529.666667 10380.000000 -1515.000000 C 10327.333333 -1493.000000 10264.333333 -1472.000000 10191.000000 -1452.000000 C 10118.333333 -1432.666667 10042.000000 -1415.333333 9962.000000 -1400.000000 C 9882.000000 -1384.666667 9805.000000 -1371.000000 9731.000000 -1359.000000 C 9729.666667 -1365.666667 9726.666667 -1373.000000 9722.000000 -1381.000000 C 9717.333333 -1389.666667 9713.000000 -1397.666667 9709.000000 -1405.000000 C 9782.333333 -1418.333333 9858.333333 -1432.666667 9937.000000 -1448.000000 C 10015.666667 -1463.333333 10089.666667 -1480.333333 10159.000000 -1499.000000 C 10229.000000 -1518.333333 10286.666667 -1538.333333 10332.000000 -1559.000000z M 10111.000000 -826.000000 C 10123.666667 -814.000000 10143.000000 -795.000000 10169.000000 -769.000000 C 10195.666667 -743.000000 10224.666667 -714.333333 10256.000000 -683.000000 C 10287.333333 -652.333333 10315.666667 -623.666667 10341.000000 -597.000000 C 10367.000000 -570.333333 10385.000000 -550.666667 10395.000000 -538.000000 C 10381.666667 -522.666667 10368.333333 -507.333333 10355.000000 -492.000000 C 10343.000000 -507.333333 10324.666667 -529.333333 10300.000000 -558.000000 C 10276.000000 -586.666667 10249.333333 -617.000000 10220.000000 -649.000000 C 10190.666667 -681.000000 10163.000000 -710.666667 10137.000000 -738.000000 C 10111.666667 -766.000000 10091.333333 -786.333333 10076.000000 -799.000000 C 10087.666667 -808.000000 10099.333333 -817.000000 10111.000000 -826.000000z "/>
</g>
<g><path d="M 11635.000000 -315.000000 C 12200.333333 -315.000000 12765.666667 -315.000000 13331.000000 -315.000000 C 13331.000000 -295.666667 13331.000000 -276.333333 13331.000000 -257.000000 C 12765.666667 -257.000000 12200.333333 -257.000000 11635.000000 -257.000000 C 11635.000000 -276.333333 11635.000000 -295.666667 11635.000000 -315.000000z M 12449.000000 -1597.000000 C 12468.333333 -1597.000000 12487.666667 -1597.000000 12507.000000 -1597.000000 C 12507.000000 -1521.000000 12507.000000 -1445.000000 12507.000000 -1369.000000 C 12487.666667 -1369.000000 12468.333333 -1369.000000 12449.000000 -1369.000000 C 12449.000000 -1445.000000 12449.000000 -1521.000000 12449.000000 -1597.000000z M 11808.000000 -678.000000 C 12232.333333 -678.000000 12656.666667 -678.000000 13081.000000 -678.000000 C 13081.000000 -659.333333 13081.000000 -640.666667 13081.000000 -622.000000 C 12656.666667 -622.000000 12232.333333 -622.000000 11808.000000 -622.000000 C 11808.000000 -640.666667 11808.000000 -659.333333 11808.000000 -678.000000z M 12449.000000 -461.000000 C 12468.333333 -461.000000 12487.666667 -461.000000 12507.000000 -461.000000 C 12507.000000 -290.000000 12507.000000 -119.000000 12507.000000 52.000000 C 12507.000000 76.000000 12502.666667 93.666667 12494.000000 105.000000 C 12486.000000 117.000000 12471.000000 125.666667 12449.000000 131.000000 C 12427.666667 135.666667 12392.000000 138.333333 12342.000000 139.000000 C 12292.000000 139.666667 12222.666667 140.000000 12134.000000 140.000000 C 12132.666667 132.666667 12129.666667 124.666667 12125.000000 116.000000 C 12121.000000 108.000000 12116.333333 99.333333 12111.000000 90.000000 C 12162.333333 91.333333 12208.000000 92.000000 12248.000000 92.000000 C 12288.666667 92.000000 12322.666667 91.666667 12350.000000 91.000000 C 12378.000000 90.333333 12397.666667 90.000000 12409.000000 90.000000 C 12425.666667 88.666667 12436.333333 85.333333 12441.000000 80.000000 C 12446.333333 75.333333 12449.000000 66.666667 12449.000000 54.000000 C 12449.000000 -117.666667 12449.000000 -289.333333 12449.000000 -461.000000z M 13068.000000 -678.000000 C 13073.000000 -678.000000 13078.000000 -678.000000 13083.000000 -678.000000 C 13087.333333 -679.333333 13091.666667 -680.666667 13096.000000 -682.000000 C 13112.000000 -670.333333 13128.000000 -658.666667 13144.000000 -647.000000 C 13089.333333 -612.333333 13025.000000 -580.000000 12951.000000 -550.000000 C 12877.666667 -520.000000 12801.666667 -493.000000 12723.000000 -469.000000 C 12644.333333 -445.666667 12569.000000 -426.333333 12497.000000 -411.000000 C 12492.333333 -417.000000 12486.000000 -424.000000 12478.000000 -432.000000 C 12470.666667 -440.000000 12463.666667 -446.333333 12457.000000 -451.000000 C 12528.333333 -466.333333 12601.666667 -485.000000 12677.000000 -507.000000 C 12753.000000 -529.666667 12825.000000 -554.000000 12893.000000 -580.000000 C 12961.666667 -606.666667 13020.000000 -634.000000 13068.000000 -662.000000 C 13068.000000 -667.333333 13068.000000 -672.666667 13068.000000 -678.000000z M 11964.000000 -1129.000000 C 11964.000000 -1049.666667 11964.000000 -970.333333 11964.000000 -891.000000 C 12310.666667 -891.000000 12657.333333 -891.000000 13004.000000 -891.000000 C 13004.000000 -970.333333 13004.000000 -1049.666667 13004.000000 -1129.000000 C 12657.333333 -1129.000000 12310.666667 -1129.000000 11964.000000 -1129.000000z M 11908.000000 -1187.000000 C 12292.666667 -1187.000000 12677.333333 -1187.000000 13062.000000 -1187.000000 C 13062.000000 -1069.000000 13062.000000 -951.000000 13062.000000 -833.000000 C 12677.333333 -833.000000 12292.666667 -833.000000 11908.000000 -833.000000 C 11908.000000 -951.000000 11908.000000 -1069.000000 11908.000000 -1187.000000z M 11645.000000 -1402.000000 C 12201.000000 -1402.000000 12757.000000 -1402.000000 13313.000000 -1402.000000 C 13313.000000 -1383.333333 13313.000000 -1364.666667 13313.000000 -1346.000000 C 12757.000000 -1346.000000 12201.000000 -1346.000000 11645.000000 -1346.000000 C 11645.000000 -1364.666667 11645.000000 -1383.333333 11645.000000 -1402.000000z "/>
</g>
<g><path d="M 14367.000000 -1597.000000 C 14386.333333 -1597.000000 14405.666667 -1597.000000 14425.000000 -1597.000000 C 14425.000000 -1515.333333 14425.000000 -1433.666667 14425.000000 -1352.000000 C 14405.666667 -1352.000000 14386.333333 -1352.000000 14367.000000 -1352.000000 C 14367.000000 -1433.666667 14367.000000 -1515.333333 14367.000000 -1597.000000z M 14143.000000 -1346.000000 C 14162.666667 -1346.000000 14182.333333 -1346.000000 14202.000000 -1346.000000 C 14192.000000 -1257.333333 14175.000000 -1178.666667 14151.000000 -1110.000000 C 14127.666667 -1042.000000 14094.000000 -982.000000 14050.000000 -930.000000 C 14006.666667 -878.000000 13950.000000 -833.333333 13880.000000 -796.000000 C 13810.666667 -759.333333 13724.666667 -729.000000 13622.000000 -705.000000 C 13620.000000 -709.666667 13617.000000 -714.666667 13613.000000 -720.000000 C 13609.000000 -725.333333 13604.666667 -730.666667 13600.000000 -736.000000 C 13596.000000 -742.000000 13592.000000 -746.333333 13588.000000 -749.000000 C 13688.000000 -771.666667 13771.333333 -800.333333 13838.000000 -835.000000 C 13905.333333 -869.666667 13959.666667 -911.333333 14001.000000 -960.000000 C 14043.000000 -1008.666667 14074.666667 -1065.000000 14096.000000 -1129.000000 C 14118.000000 -1193.000000 14133.666667 -1265.333333 14143.000000 -1346.000000z M 14580.000000 -1342.000000 C 14598.666667 -1342.000000 14617.333333 -1342.000000 14636.000000 -1342.000000 C 14636.000000 -1202.666667 14636.000000 -1063.333333 14636.000000 -924.000000 C 14636.000000 -904.666667 14641.666667 -891.666667 14653.000000 -885.000000 C 14665.000000 -879.000000 14692.666667 -876.000000 14736.000000 -876.000000 C 14746.000000 -876.000000 14765.666667 -876.000000 14795.000000 -876.000000 C 14825.000000 -876.000000 14857.666667 -876.000000 14893.000000 -876.000000 C 14929.000000 -876.000000 14962.666667 -876.000000 14994.000000 -876.000000 C 15025.333333 -876.000000 15047.333333 -876.000000 15060.000000 -876.000000 C 15090.000000 -876.000000 15109.666667 -884.000000 15119.000000 -900.000000 C 15128.333333 -916.666667 15134.333333 -957.000000 15137.000000 -1021.000000 C 15145.000000 -1016.333333 15153.666667 -1012.333333 15163.000000 -1009.000000 C 15173.000000 -1005.666667 15182.333333 -1003.333333 15191.000000 -1002.000000 C 15188.333333 -953.333333 15183.333333 -916.000000 15176.000000 -890.000000 C 15169.333333 -864.000000 15157.333333 -846.000000 15140.000000 -836.000000 C 15122.666667 -826.666667 15098.000000 -822.000000 15066.000000 -822.000000 C 15060.000000 -822.000000 15041.000000 -822.000000 15009.000000 -822.000000 C 14977.000000 -822.000000 14941.333333 -822.000000 14902.000000 -822.000000 C 14863.333333 -822.000000 14828.000000 -822.000000 14796.000000 -822.000000 C 14764.000000 -822.000000 14744.666667 -822.000000 14738.000000 -822.000000 C 14696.666667 -822.000000 14664.333333 -824.333333 14641.000000 -829.000000 C 14618.333333 -834.333333 14602.333333 -844.333333 14593.000000 -859.000000 C 14584.333333 -873.666667 14580.000000 -895.666667 14580.000000 -925.000000 C 14580.000000 -1064.000000 14580.000000 -1203.000000 14580.000000 -1342.000000z M 13605.000000 -1382.000000 C 14140.666667 -1382.000000 14676.333333 -1382.000000 15212.000000 -1382.000000 C 15212.000000 -1288.666667 15212.000000 -1195.333333 15212.000000 -1102.000000 C 15193.333333 -1102.000000 15174.666667 -1102.000000 15156.000000 -1102.000000 C 15156.000000 -1177.000000 15156.000000 -1252.000000 15156.000000 -1327.000000 C 14658.333333 -1327.000000 14160.666667 -1327.000000 13663.000000 -1327.000000 C 13663.000000 -1246.333333 13663.000000 -1165.666667 13663.000000 -1085.000000 C 13643.666667 -1085.000000 13624.333333 -1085.000000 13605.000000 -1085.000000 C 13605.000000 -1184.000000 13605.000000 -1283.000000 13605.000000 -1382.000000z M 13555.000000 -534.000000 C 14120.333333 -534.000000 14685.666667 -534.000000 15251.000000 -534.000000 C 15251.000000 -514.666667 15251.000000 -495.333333 15251.000000 -476.000000 C 14685.666667 -476.000000 14120.333333 -476.000000 13555.000000 -476.000000 C 13555.000000 -495.333333 13555.000000 -514.666667 13555.000000 -534.000000z M 14367.000000 -816.000000 C 14387.000000 -816.000000 14407.000000 -816.000000 14427.000000 -816.000000 C 14417.000000 -711.333333 14402.333333 -614.666667 14383.000000 -526.000000 C 14363.666667 -438.000000 14335.333333 -358.333333 14298.000000 -287.000000 C 14261.333333 -215.666667 14212.000000 -152.666667 14150.000000 -98.000000 C 14088.666667 -44.000000 14011.333333 2.666667 13918.000000 42.000000 C 13824.666667 82.000000 13711.333333 114.666667 13578.000000 140.000000 C 13576.666667 134.666667 13574.000000 129.000000 13570.000000 123.000000 C 13566.666667 117.666667 13562.666667 111.666667 13558.000000 105.000000 C 13553.333333 99.000000 13549.333333 94.000000 13546.000000 90.000000 C 13677.333333 66.000000 13788.666667 35.000000 13880.000000 -3.000000 C 13972.000000 -41.000000 14047.666667 -86.000000 14107.000000 -138.000000 C 14166.333333 -190.666667 14213.666667 -250.666667 14249.000000 -318.000000 C 14284.333333 -385.333333 14311.000000 -460.333333 14329.000000 -543.000000 C 14347.000000 -626.333333 14359.666667 -717.333333 14367.000000 -816.000000z M 14484.000000 -518.000000 C 14525.333333 -334.000000 14609.000000 -194.333333 14735.000000 -99.000000 C 14861.000000 -3.666667 15038.666667 57.333333 15268.000000 84.000000 C 15262.666667 88.000000 15257.333333 93.000000 15252.000000 99.000000 C 15247.333333 105.666667 15243.000000 112.333333 15239.000000 119.000000 C 15235.000000 125.666667 15231.666667 132.000000 15229.000000 138.000000 C 15075.666667 116.666667 14944.666667 80.666667 14836.000000 30.000000 C 14727.333333 -20.666667 14639.666667 -89.666667 14573.000000 -177.000000 C 14506.333333 -265.000000 14458.333333 -375.000000 14429.000000 -507.000000 C 14447.333333 -510.666667 14465.666667 -514.333333 14484.000000 -518.000000z "/>
</g>
<g><path d="M 16500.000000 -1574.000000 C 16518.666667 -1574.000000 16537.333333 -1574.000000 16556.000000 -1574.000000 C 16556.000000 -1004.666667 16556.000000 -435.333333 16556.000000 134.000000 C 16537.333333 134.000000 16518.666667 134.000000 16500.000000 134.000000 C 16500.000000 -435.333333 16500.000000 -1004.666667 16500.000000 -1574.000000z M 15980.000000 -972.000000 C 16355.666667 -972.000000 16731.333333 -972.000000 17107.000000 -972.000000 C 17107.000000 -952.666667 17107.000000 -933.333333 17107.000000 -914.000000 C 16731.333333 -914.000000 16355.666667 -914.000000 15980.000000 -914.000000 C 15980.000000 -933.333333 15980.000000 -952.666667 15980.000000 -972.000000z M 15898.000000 -497.000000 C 16328.000000 -497.000000 16758.000000 -497.000000 17188.000000 -497.000000 C 17188.000000 -478.000000 17188.000000 -459.000000 17188.000000 -440.000000 C 16758.000000 -440.000000 16328.000000 -440.000000 15898.000000 -440.000000 C 15898.000000 -459.000000 15898.000000 -478.000000 15898.000000 -497.000000z M 16036.000000 -1471.000000 C 16052.666667 -1478.000000 16069.333333 -1485.000000 16086.000000 -1492.000000 C 16114.000000 -1449.333333 16140.666667 -1403.000000 16166.000000 -1353.000000 C 16192.000000 -1303.666667 16215.000000 -1255.666667 16235.000000 -1209.000000 C 16255.666667 -1162.333333 16271.333333 -1121.666667 16282.000000 -1087.000000 C 16264.666667 -1076.666667 16247.333333 -1066.333333 16230.000000 -1056.000000 C 16219.333333 -1092.000000 16203.666667 -1134.000000 16183.000000 -1182.000000 C 16163.000000 -1230.000000 16140.000000 -1279.000000 16114.000000 -1329.000000 C 16088.666667 -1379.666667 16062.666667 -1427.000000 16036.000000 -1471.000000z M 16986.000000 -1509.000000 C 17004.000000 -1500.000000 17022.000000 -1491.000000 17040.000000 -1482.000000 C 17018.000000 -1436.000000 16993.666667 -1386.666667 16967.000000 -1334.000000 C 16940.333333 -1282.000000 16913.000000 -1231.333333 16885.000000 -1182.000000 C 16857.666667 -1132.666667 16831.333333 -1088.666667 16806.000000 -1050.000000 C 16791.333333 -1057.666667 16776.666667 -1065.333333 16762.000000 -1073.000000 C 16787.333333 -1111.666667 16813.666667 -1156.333333 16841.000000 -1207.000000 C 16869.000000 -1258.333333 16895.666667 -1311.000000 16921.000000 -1365.000000 C 16946.333333 -1419.000000 16968.000000 -1467.000000 16986.000000 -1509.000000z M 15934.000000 -1588.000000 C 15952.666667 -1582.666667 15971.333333 -1577.333333 15990.000000 -1572.000000 C 15946.000000 -1464.666667 15895.666667 -1360.333333 15839.000000 -1259.000000 C 15782.333333 -1158.333333 15721.333333 -1064.000000 15656.000000 -976.000000 C 15590.666667 -888.666667 15523.333333 -809.666667 15454.000000 -739.000000 C 15451.333333 -743.000000 15447.333333 -748.000000 15442.000000 -754.000000 C 15437.333333 -760.666667 15432.333333 -766.666667 15427.000000 -772.000000 C 15422.333333 -778.000000 15417.333333 -783.000000 15412.000000 -787.000000 C 15481.333333 -852.333333 15548.000000 -927.333333 15612.000000 -1012.000000 C 15676.000000 -1097.333333 15735.666667 -1189.000000 15791.000000 -1287.000000 C 15847.000000 -1385.000000 15894.666667 -1485.333333 15934.000000 -1588.000000z M 15719.000000 -1129.000000 C 15737.000000 -1147.000000 15755.000000 -1165.000000 15773.000000 -1183.000000 C 15774.333333 -1182.333333 15775.666667 -1181.666667 15777.000000 -1181.000000 C 15777.000000 -743.666667 15777.000000 -306.333333 15777.000000 131.000000 C 15757.666667 131.000000 15738.333333 131.000000 15719.000000 131.000000 C 15719.000000 -289.000000 15719.000000 -709.000000 15719.000000 -1129.000000z "/>
</g>
<g><path d="M 18457.000000 -956.000000 C 18476.333333 -956.000000 18495.666667 -956.000000 18515.000000 -956.000000 C 18515.000000 -592.000000 18515.000000 -228.000000 18515.000000 136.000000 C 18495.666667 136.000000 18476.333333 136.000000 18457.000000 136.000000 C 18457.000000 -228.000000 18457.000000 -592.000000 18457.000000 -956.000000z M 17841.000000 -632.000000 C 18259.333333 -632.000000 18677.666667 -632.000000 19096.000000 -632.000000 C 19096.000000 -613.333333 19096.000000 -594.666667 19096.000000 -576.000000 C 18677.666667 -576.000000 18259.333333 -576.000000 17841.000000 -576.000000 C 17841.000000 -594.666667 17841.000000 -613.333333 17841.000000 -632.000000z M 18553.000000 -618.000000 C 18595.000000 -534.666667 18648.000000 -453.000000 18712.000000 -373.000000 C 18776.000000 -293.000000 18845.333333 -220.666667 18920.000000 -156.000000 C 18995.333333 -92.000000 19069.333333 -40.666667 19142.000000 -2.000000 C 19138.666667 2.000000 19134.333333 6.333333 19129.000000 11.000000 C 19123.666667 16.333333 19118.666667 21.666667 19114.000000 27.000000 C 19110.000000 32.333333 19106.000000 37.333333 19102.000000 42.000000 C 19029.333333 0.000000 18955.000000 -55.000000 18879.000000 -123.000000 C 18803.666667 -191.000000 18733.333333 -265.666667 18668.000000 -347.000000 C 18602.666667 -429.000000 18547.666667 -512.333333 18503.000000 -597.000000 C 18519.666667 -604.000000 18536.333333 -611.000000 18553.000000 -618.000000z M 18422.000000 -622.000000 C 18437.333333 -615.000000 18452.666667 -608.000000 18468.000000 -601.000000 C 18423.333333 -515.000000 18366.666667 -430.333333 18298.000000 -347.000000 C 18230.000000 -264.333333 18156.333333 -189.333333 18077.000000 -122.000000 C 17997.666667 -54.666667 17919.000000 -0.666667 17841.000000 40.000000 C 17837.000000 35.333333 17832.666667 30.333333 17828.000000 25.000000 C 17823.333333 19.666667 17818.666667 14.333333 17814.000000 9.000000 C 17810.000000 4.333333 17805.333333 0.000000 17800.000000 -4.000000 C 17878.000000 -41.333333 17956.333333 -92.333333 18035.000000 -157.000000 C 18114.333333 -222.333333 18187.666667 -295.333333 18255.000000 -376.000000 C 18323.000000 -456.666667 18378.666667 -538.666667 18422.000000 -622.000000z M 18056.000000 -1442.000000 C 18056.000000 -1293.000000 18056.000000 -1144.000000 18056.000000 -995.000000 C 18344.666667 -995.000000 18633.333333 -995.000000 18922.000000 -995.000000 C 18922.000000 -1144.000000 18922.000000 -1293.000000 18922.000000 -1442.000000 C 18633.333333 -1442.000000 18344.666667 -1442.000000 18056.000000 -1442.000000z M 18000.000000 -1498.000000 C 18325.666667 -1498.000000 18651.333333 -1498.000000 18977.000000 -1498.000000 C 18977.000000 -1311.000000 18977.000000 -1124.000000 18977.000000 -937.000000 C 18651.333333 -937.000000 18325.666667 -937.000000 18000.000000 -937.000000 C 18000.000000 -1124.000000 18000.000000 -1311.000000 18000.000000 -1498.000000z M 17854.000000 -1588.000000 C 17872.666667 -1582.666667 17891.333333 -1577.333333 17910.000000 -1572.000000 C 17866.000000 -1464.666667 17815.666667 -1360.333333 17759.000000 -1259.000000 C 17702.333333 -1158.333333 17641.333333 -1064.000000 17576.000000 -976.000000 C 17510.666667 -888.666667 17443.333333 -809.666667 17374.000000 -739.000000 C 17371.333333 -743.000000 17367.333333 -748.000000 17362.000000 -754.000000 C 17357.333333 -760.666667 17352.333333 -766.666667 17347.000000 -772.000000 C 17342.333333 -778.000000 17337.333333 -783.000000 17332.000000 -787.000000 C 17401.333333 -852.333333 17468.000000 -927.333333 17532.000000 -1012.000000 C 17596.000000 -1097.333333 17655.666667 -1189.000000 17711.000000 -1287.000000 C 17767.000000 -1385.000000 17814.666667 -1485.333333 17854.000000 -1588.000000z M 17639.000000 -1129.000000 C 17657.000000 -1147.000000 17675.000000 -1165.000000 17693.000000 -1183.000000 C 17694.333333 -1182.333333 17695.666667 -1181.666667 17697.000000 -1181.000000 C 17697.000000 -743.666667 17697.000000 -306.333333 17697.000000 131.000000 C 17677.666667 131.000000 17658.333333 131.000000 17639.000000 131.000000 C 17639.000000 -289.000000 17639.000000 -709.000000 17639.000000 -1129.000000z "/>
</g>
<g><path d="M 19941.000000 -1488.000000 C 20238.000000 -1488.000000 20535.000000 -1488.000000 20832.000000 -1488.000000 C 20832.000000 -1469.333333 20832.000000 -1450.666667 20832.000000 -1432.000000 C 20535.000000 -1432.000000 20238.000000 -1432.000000 19941.000000 -1432.000000 C 19941.000000 -1450.666667 19941.000000 -1469.333333 19941.000000 -1488.000000z M 19926.000000 -975.000000 C 20239.666667 -975.000000 20553.333333 -975.000000 20867.000000 -975.000000 C 20867.000000 -956.000000 20867.000000 -937.000000 20867.000000 -918.000000 C 20553.333333 -918.000000 20239.666667 -918.000000 19926.000000 -918.000000 C 19926.000000 -937.000000 19926.000000 -956.000000 19926.000000 -975.000000z M 19926.000000 -716.000000 C 20239.666667 -716.000000 20553.333333 -716.000000 20867.000000 -716.000000 C 20867.000000 -697.000000 20867.000000 -678.000000 20867.000000 -659.000000 C 20553.333333 -659.000000 20239.666667 -659.000000 19926.000000 -659.000000 C 19926.000000 -678.000000 19926.000000 -697.000000 19926.000000 -716.000000z M 19945.000000 -27.000000 C 20245.000000 -27.000000 20545.000000 -27.000000 20845.000000 -27.000000 C 20845.000000 -7.666667 20845.000000 11.666667 20845.000000 31.000000 C 20545.000000 31.000000 20245.000000 31.000000 19945.000000 31.000000 C 19945.000000 11.666667 19945.000000 -7.666667 19945.000000 -27.000000z M 19763.000000 -1231.000000 C 20184.000000 -1231.000000 20605.000000 -1231.000000 21026.000000 -1231.000000 C 21026.000000 -1212.333333 21026.000000 -1193.666667 21026.000000 -1175.000000 C 20605.000000 -1175.000000 20184.000000 -1175.000000 19763.000000 -1175.000000 C 19763.000000 -1193.666667 19763.000000 -1212.333333 19763.000000 -1231.000000z M 19918.000000 -459.000000 C 20236.666667 -459.000000 20555.333333 -459.000000 20874.000000 -459.000000 C 20874.000000 -262.333333 20874.000000 -65.666667 20874.000000 131.000000 C 20855.666667 131.000000 20837.333333 131.000000 20819.000000 131.000000 C 20819.000000 -47.000000 20819.000000 -225.000000 20819.000000 -403.000000 C 20537.333333 -403.000000 20255.666667 -403.000000 19974.000000 -403.000000 C 19974.000000 -223.333333 19974.000000 -43.666667 19974.000000 136.000000 C 19955.333333 136.000000 19936.666667 136.000000 19918.000000 136.000000 C 19918.000000 -62.333333 19918.000000 -260.666667 19918.000000 -459.000000z M 19774.000000 -1588.000000 C 19792.666667 -1582.666667 19811.333333 -1577.333333 19830.000000 -1572.000000 C 19786.000000 -1464.666667 19735.666667 -1360.333333 19679.000000 -1259.000000 C 19622.333333 -1158.333333 19561.333333 -1064.000000 19496.000000 -976.000000 C 19430.666667 -888.666667 19363.333333 -809.666667 19294.000000 -739.000000 C 19291.333333 -743.000000 19287.333333 -748.000000 19282.000000 -754.000000 C 19277.333333 -760.666667 19272.333333 -766.666667 19267.000000 -772.000000 C 19262.333333 -778.000000 19257.333333 -783.000000 19252.000000 -787.000000 C 19321.333333 -852.333333 19388.000000 -927.333333 19452.000000 -1012.000000 C 19516.000000 -1097.333333 19575.666667 -1189.000000 19631.000000 -1287.000000 C 19687.000000 -1385.000000 19734.666667 -1485.333333 19774.000000 -1588.000000z M 19559.000000 -1129.000000 C 19577.000000 -1147.000000 19595.000000 -1165.000000 19613.000000 -1183.000000 C 19614.333333 -1182.333333 19615.666667 -1181.666667 19617.000000 -1181.000000 C 19617.000000 -743.666667 19617.000000 -306.333333 19617.000000 131.000000 C 19597.666667 131.000000 19578.333333 131.000000 19559.000000 131.000000 C 19559.000000 -289.000000 19559.000000 -709.000000 19559.000000 -1129.000000z "/>
</g>
<g><path d="M 21590.000000 -6.000000 C 21921.000000 -6.000000 22252.000000 -6.000000 22583.000000 -6.000000 C 22583.000000 12.666667 22583.000000 31.333333 22583.000000 50.000000 C 22252.000000 50.000000 21921.000000 50.000000 21590.000000 50.000000 C 21590.000000 31.333333 21590.000000 12.666667 21590.000000 -6.000000z M 21564.000000 -609.000000 C 21914.000000 -609.000000 22264.000000 -609.000000 22614.000000 -609.000000 C 22614.000000 -362.000000 22614.000000 -115.000000 22614.000000 132.000000 C 22595.333333 132.000000 22576.666667 132.000000 22558.000000 132.000000 C 22558.000000 -95.666667 22558.000000 -323.333333 22558.000000 -551.000000 C 22245.666667 -551.000000 21933.333333 -551.000000 21621.000000 -551.000000 C 21621.000000 -321.333333 21621.000000 -91.666667 21621.000000 138.000000 C 21602.000000 138.000000 21583.000000 138.000000 21564.000000 138.000000 C 21564.000000 -111.000000 21564.000000 -360.000000 21564.000000 -609.000000z M 22072.000000 -1183.000000 C 22020.000000 -1095.666667 21951.000000 -1005.333333 21865.000000 -912.000000 C 21779.000000 -818.666667 21683.333333 -729.666667 21578.000000 -645.000000 C 21472.666667 -560.333333 21363.666667 -486.666667 21251.000000 -424.000000 C 21247.000000 -430.666667 21241.666667 -437.333333 21235.000000 -444.000000 C 21229.000000 -451.333333 21222.000000 -458.333333 21214.000000 -465.000000 C 21328.000000 -526.333333 21438.000000 -599.333333 21544.000000 -684.000000 C 21650.666667 -769.333333 21747.000000 -860.000000 21833.000000 -956.000000 C 21919.666667 -1052.000000 21988.666667 -1147.333333 22040.000000 -1242.000000 C 22057.666667 -1242.000000 22075.333333 -1242.000000 22093.000000 -1242.000000 C 22143.000000 -1166.666667 22201.666667 -1092.333333 22269.000000 -1019.000000 C 22336.333333 -946.333333 22408.333333 -876.666667 22485.000000 -810.000000 C 22561.666667 -743.333333 22640.000000 -682.666667 22720.000000 -628.000000 C 22800.000000 -574.000000 22878.000000 -528.000000 22954.000000 -490.000000 C 22947.333333 -483.333333 22940.333333 -475.000000 22933.000000 -465.000000 C 22926.333333 -455.666667 22920.333333 -448.000000 22915.000000 -442.000000 C 22813.000000 -496.666667 22709.000000 -563.666667 22603.000000 -643.000000 C 22497.666667 -722.333333 22398.666667 -808.333333 22306.000000 -901.000000 C 22214.000000 -994.333333 22136.000000 -1088.333333 22072.000000 -1183.000000z M 22301.000000 -1509.000000 C 22315.000000 -1520.666667 22329.000000 -1532.333333 22343.000000 -1544.000000 C 22408.333333 -1500.000000 22474.666667 -1451.000000 22542.000000 -1397.000000 C 22610.000000 -1343.666667 22673.333333 -1290.333333 22732.000000 -1237.000000 C 22791.333333 -1184.333333 22839.000000 -1136.000000 22875.000000 -1092.000000 C 22859.666667 -1078.666667 22844.333333 -1065.333333 22829.000000 -1052.000000 C 22793.000000 -1095.333333 22746.000000 -1144.333333 22688.000000 -1199.000000 C 22630.666667 -1253.666667 22568.000000 -1308.000000 22500.000000 -1362.000000 C 22432.666667 -1416.666667 22366.333333 -1465.666667 22301.000000 -1509.000000z M 21800.000000 -1542.000000 C 21817.666667 -1535.666667 21835.333333 -1529.333333 21853.000000 -1523.000000 C 21808.333333 -1461.000000 21757.666667 -1400.666667 21701.000000 -1342.000000 C 21645.000000 -1283.333333 21586.666667 -1228.000000 21526.000000 -1176.000000 C 21465.333333 -1124.000000 21405.666667 -1077.666667 21347.000000 -1037.000000 C 21344.333333 -1041.000000 21339.666667 -1045.000000 21333.000000 -1049.000000 C 21327.000000 -1053.666667 21320.666667 -1058.333333 21314.000000 -1063.000000 C 21307.333333 -1068.333333 21301.666667 -1072.333333 21297.000000 -1075.000000 C 21358.333333 -1115.000000 21419.666667 -1159.666667 21481.000000 -1209.000000 C 21542.333333 -1259.000000 21600.000000 -1312.333333 21654.000000 -1369.000000 C 21708.666667 -1426.333333 21757.333333 -1484.000000 21800.000000 -1542.000000z "/>
</g>
<g><path d="M 23161.000000 -1227.000000 C 23723.000000 -1227.000000 24285.000000 -1227.000000 24847.000000 -1227.000000 C 24847.000000 -1208.333333 24847.000000 -1189.666667 24847.000000 -1171.000000 C 24285.000000 -1171.000000 23723.000000 -1171.000000 23161.000000 -1171.000000 C 23161.000000 -1189.666667 23161.000000 -1208.333333 23161.000000 -1227.000000z M 23405.000000 -33.000000 C 23803.666667 -33.000000 24202.333333 -33.000000 24601.000000 -33.000000 C 24601.000000 -13.666667 24601.000000 5.666667 24601.000000 25.000000 C 24202.333333 25.000000 23803.666667 25.000000 23405.000000 25.000000 C 23405.000000 5.666667 23405.000000 -13.666667 23405.000000 -33.000000z M 23969.000000 -1596.000000 C 23988.333333 -1596.000000 24007.666667 -1596.000000 24027.000000 -1596.000000 C 24027.000000 -1282.333333 24027.000000 -968.666667 24027.000000 -655.000000 C 24007.666667 -655.000000 23988.333333 -655.000000 23969.000000 -655.000000 C 23969.000000 -968.666667 23969.000000 -1282.333333 23969.000000 -1596.000000z M 23382.000000 -687.000000 C 23797.333333 -687.000000 24212.666667 -687.000000 24628.000000 -687.000000 C 24628.000000 -414.000000 24628.000000 -141.000000 24628.000000 132.000000 C 24609.333333 132.000000 24590.666667 132.000000 24572.000000 132.000000 C 24572.000000 -122.000000 24572.000000 -376.000000 24572.000000 -630.000000 C 24193.666667 -630.000000 23815.333333 -630.000000 23437.000000 -630.000000 C 23437.000000 -373.333333 23437.000000 -116.666667 23437.000000 140.000000 C 23418.666667 140.000000 23400.333333 140.000000 23382.000000 140.000000 C 23382.000000 -135.666667 23382.000000 -411.333333 23382.000000 -687.000000z "/>
</g>
<g><path d="M 26250.000000 -1404.000000 C 26269.333333 -1404.000000 26288.666667 -1404.000000 26308.000000 -1404.000000 C 26308.000000 -941.000000 26308.000000 -478.000000 26308.000000 -15.000000 C 26288.666667 -15.000000 26269.333333 -15.000000 26250.000000 -15.000000 C 26250.000000 -478.000000 26250.000000 -941.000000 26250.000000 -1404.000000z M 25855.000000 -1432.000000 C 26145.333333 -1432.000000 26435.666667 -1432.000000 26726.000000 -1432.000000 C 26726.000000 -921.333333 26726.000000 -410.666667 26726.000000 100.000000 C 26707.666667 100.000000 26689.333333 100.000000 26671.000000 100.000000 C 26671.000000 -392.333333 26671.000000 -884.666667 26671.000000 -1377.000000 C 26417.333333 -1377.000000 26163.666667 -1377.000000 25910.000000 -1377.000000 C 25910.000000 -879.666667 25910.000000 -382.333333 25910.000000 115.000000 C 25891.666667 115.000000 25873.333333 115.000000 25855.000000 115.000000 C 25855.000000 -400.666667 25855.000000 -916.333333 25855.000000 -1432.000000z M 25882.000000 -758.000000 C 26156.333333 -758.000000 26430.666667 -758.000000 26705.000000 -758.000000 C 26705.000000 -739.666667 26705.000000 -721.333333 26705.000000 -703.000000 C 26430.666667 -703.000000 26156.333333 -703.000000 25882.000000 -703.000000 C 25882.000000 -721.333333 25882.000000 -739.666667 25882.000000 -758.000000z M 25882.000000 -48.000000 C 26154.000000 -48.000000 26426.000000 -48.000000 26698.000000 -48.000000 C 26698.000000 -28.666667 26698.000000 -9.333333 26698.000000 10.000000 C 26426.000000 10.000000 26154.000000 10.000000 25882.000000 10.000000 C 25882.000000 -9.333333 25882.000000 -28.666667 25882.000000 -48.000000z M 25402.000000 -730.000000 C 25420.333333 -730.000000 25438.666667 -730.000000 25457.000000 -730.000000 C 25457.000000 -442.666667 25457.000000 -155.333333 25457.000000 132.000000 C 25438.666667 132.000000 25420.333333 132.000000 25402.000000 132.000000 C 25402.000000 -155.333333 25402.000000 -442.666667 25402.000000 -730.000000z M 25371.000000 -1596.000000 C 25389.000000 -1587.000000 25407.000000 -1578.000000 25425.000000 -1569.000000 C 25403.000000 -1523.666667 25378.000000 -1475.666667 25350.000000 -1425.000000 C 25322.000000 -1375.000000 25293.333333 -1326.333333 25264.000000 -1279.000000 C 25235.333333 -1231.666667 25208.333333 -1190.000000 25183.000000 -1154.000000 C 25168.333333 -1161.666667 25153.666667 -1169.333333 25139.000000 -1177.000000 C 25164.333333 -1213.000000 25191.333333 -1255.666667 25220.000000 -1305.000000 C 25248.666667 -1355.000000 25276.333333 -1405.666667 25303.000000 -1457.000000 C 25330.333333 -1508.333333 25353.000000 -1554.666667 25371.000000 -1596.000000z M 25611.000000 -1384.000000 C 25630.000000 -1375.000000 25649.000000 -1366.000000 25668.000000 -1357.000000 C 25626.000000 -1288.333333 25577.666667 -1213.666667 25523.000000 -1133.000000 C 25469.000000 -1052.333333 25414.000000 -974.000000 25358.000000 -898.000000 C 25302.666667 -822.666667 25250.000000 -757.000000 25200.000000 -701.000000 C 25185.333333 -709.333333 25170.666667 -717.666667 25156.000000 -726.000000 C 25193.333333 -768.000000 25232.666667 -816.000000 25274.000000 -870.000000 C 25315.333333 -924.666667 25356.333333 -982.000000 25397.000000 -1042.000000 C 25438.333333 -1102.666667 25477.333333 -1162.333333 25514.000000 -1221.000000 C 25550.666667 -1279.666667 25583.000000 -1334.000000 25611.000000 -1384.000000z M 25054.000000 -1227.000000 C 25066.333333 -1238.000000 25078.666667 -1249.000000 25091.000000 -1260.000000 C 25126.333333 -1230.000000 25162.000000 -1197.333333 25198.000000 -1162.000000 C 25234.000000 -1127.333333 25267.000000 -1092.666667 25297.000000 -1058.000000 C 25327.000000 -1023.333333 25351.000000 -992.666667 25369.000000 -966.000000 C 25356.666667 -952.333333 25344.333333 -938.666667 25332.000000 -925.000000 C 25314.666667 -953.666667 25290.666667 -985.666667 25260.000000 -1021.000000 C 25230.000000 -1057.000000 25197.000000 -1093.000000 25161.000000 -1129.000000 C 25125.666667 -1165.000000 25090.000000 -1197.666667 25054.000000 -1227.000000z M 25548.000000 -964.000000 C 25564.333333 -971.000000 25580.666667 -978.000000 25597.000000 -985.000000 C 25628.333333 -945.000000 25658.333333 -901.333333 25687.000000 -854.000000 C 25715.666667 -806.666667 25741.333333 -760.666667 25764.000000 -716.000000 C 25787.333333 -671.333333 25805.333333 -631.666667 25818.000000 -597.000000 C 25800.666667 -588.000000 25783.333333 -579.000000 25766.000000 -570.000000 C 25753.333333 -606.000000 25735.333333 -646.666667 25712.000000 -692.000000 C 25689.333333 -737.333333 25664.000000 -783.666667 25636.000000 -831.000000 C 25608.000000 -878.333333 25578.666667 -922.666667 25548.000000 -964.000000z M 25031.000000 -737.000000 C 25118.333333 -742.333333 25222.333333 -748.666667 25343.000000 -756.000000 C 25463.666667 -764.000000 25588.000000 -772.333333 25716.000000 -781.000000 C 25715.666667 -763.333333 25715.333333 -745.666667 25715.000000 -728.000000 C 25593.000000 -718.666667 25473.000000 -709.333333 25355.000000 -700.000000 C 25237.666667 -691.333333 25133.666667 -684.000000 25043.000000 -678.000000 C 25039.000000 -697.666667 25035.000000 -717.333333 25031.000000 -737.000000z M 25590.000000 -520.000000 C 25606.000000 -524.666667 25622.000000 -529.333333 25638.000000 -534.000000 C 25668.666667 -474.666667 25697.000000 -410.000000 25723.000000 -340.000000 C 25749.666667 -270.666667 25767.333333 -210.333333 25776.000000 -159.000000 C 25757.333333 -154.000000 25738.666667 -149.000000 25720.000000 -144.000000 C 25715.333333 -178.666667 25706.000000 -217.333333 25692.000000 -260.000000 C 25678.666667 -302.666667 25663.333333 -346.666667 25646.000000 -392.000000 C 25628.666667 -438.000000 25610.000000 -480.666667 25590.000000 -520.000000z M 25183.000000 -528.000000 C 25202.000000 -524.666667 25221.000000 -521.333333 25240.000000 -518.000000 C 25224.666667 -428.666667 25204.666667 -341.000000 25180.000000 -255.000000 C 25156.000000 -169.666667 25127.333333 -96.333333 25094.000000 -35.000000 C 25092.000000 -37.000000 25087.333333 -39.666667 25080.000000 -43.000000 C 25072.666667 -46.333333 25065.333333 -50.000000 25058.000000 -54.000000 C 25051.333333 -58.000000 25045.666667 -60.333333 25041.000000 -61.000000 C 25076.333333 -121.666667 25105.333333 -193.000000 25128.000000 -275.000000 C 25150.666667 -357.666667 25169.000000 -442.000000 25183.000000 -528.000000z "/>
</g>
<g><path d="M 27648.000000 -1380.000000 C 27995.666667 -1380.000000 28343.333333 -1380.000000 28691.000000 -1380.000000 C 28691.000000 -1361.666667 28691.000000 -1343.333333 28691.000000 -1325.000000 C 28343.333333 -1325.000000 27995.666667 -1325.000000 27648.000000 -1325.000000 C 27648.000000 -1343.333333 27648.000000 -1361.666667 27648.000000 -1380.000000z M 27625.000000 -891.000000 C 27987.333333 -891.000000 28349.666667 -891.000000 28712.000000 -891.000000 C 28712.000000 -871.666667 28712.000000 -852.333333 28712.000000 -833.000000 C 28349.666667 -833.000000 27987.333333 -833.000000 27625.000000 -833.000000 C 27625.000000 -852.333333 27625.000000 -871.666667 27625.000000 -891.000000z M 27940.000000 -12.000000 C 28155.000000 -12.000000 28370.000000 -12.000000 28585.000000 -12.000000 C 28585.000000 6.666667 28585.000000 25.333333 28585.000000 44.000000 C 28370.000000 44.000000 28155.000000 44.000000 27940.000000 44.000000 C 27940.000000 25.333333 27940.000000 6.666667 27940.000000 -12.000000z M 27909.000000 -1594.000000 C 27928.333333 -1594.000000 27947.666667 -1594.000000 27967.000000 -1594.000000 C 27967.000000 -1427.333333 27967.000000 -1260.666667 27967.000000 -1094.000000 C 27947.666667 -1094.000000 27928.333333 -1094.000000 27909.000000 -1094.000000 C 27909.000000 -1260.666667 27909.000000 -1427.333333 27909.000000 -1594.000000z M 28381.000000 -1594.000000 C 28400.333333 -1594.000000 28419.666667 -1594.000000 28439.000000 -1594.000000 C 28439.000000 -1427.333333 28439.000000 -1260.666667 28439.000000 -1094.000000 C 28419.666667 -1094.000000 28400.333333 -1094.000000 28381.000000 -1094.000000 C 28381.000000 -1260.666667 28381.000000 -1427.333333 28381.000000 -1594.000000z M 27909.000000 -503.000000 C 28146.333333 -503.000000 28383.666667 -503.000000 28621.000000 -503.000000 C 28621.000000 -293.000000 28621.000000 -83.000000 28621.000000 127.000000 C 28602.000000 127.000000 28583.000000 127.000000 28564.000000 127.000000 C 28564.000000 -63.666667 28564.000000 -254.333333 28564.000000 -445.000000 C 28365.000000 -445.000000 28166.000000 -445.000000 27967.000000 -445.000000 C 27967.000000 -252.666667 27967.000000 -60.333333 27967.000000 132.000000 C 27947.666667 132.000000 27928.333333 132.000000 27909.000000 132.000000 C 27909.000000 -79.666667 27909.000000 -291.333333 27909.000000 -503.000000z M 28097.000000 -1125.000000 C 28117.000000 -1121.333333 28137.000000 -1117.666667 28157.000000 -1114.000000 C 28113.666667 -920.666667 28049.666667 -750.666667 27965.000000 -604.000000 C 27880.333333 -457.333333 27777.333333 -334.000000 27656.000000 -234.000000 C 27653.333333 -238.000000 27649.333333 -242.333333 27644.000000 -247.000000 C 27638.666667 -252.333333 27632.666667 -257.666667 27626.000000 -263.000000 C 27620.000000 -268.333333 27614.666667 -272.666667 27610.000000 -276.000000 C 27734.000000 -368.666667 27836.333333 -487.333333 27917.000000 -632.000000 C 27997.666667 -776.666667 28057.666667 -941.000000 28097.000000 -1125.000000z M 27055.000000 -1021.000000 C 27231.000000 -1021.000000 27407.000000 -1021.000000 27583.000000 -1021.000000 C 27583.000000 -1002.666667 27583.000000 -984.333333 27583.000000 -966.000000 C 27407.000000 -966.000000 27231.000000 -966.000000 27055.000000 -966.000000 C 27055.000000 -984.333333 27055.000000 -1002.666667 27055.000000 -1021.000000z M 27064.000000 -1519.000000 C 27234.333333 -1519.000000 27404.666667 -1519.000000 27575.000000 -1519.000000 C 27575.000000 -1500.333333 27575.000000 -1481.666667 27575.000000 -1463.000000 C 27404.666667 -1463.000000 27234.333333 -1463.000000 27064.000000 -1463.000000 C 27064.000000 -1481.666667 27064.000000 -1500.333333 27064.000000 -1519.000000z M 27055.000000 -770.000000 C 27231.000000 -770.000000 27407.000000 -770.000000 27583.000000 -770.000000 C 27583.000000 -751.333333 27583.000000 -732.666667 27583.000000 -714.000000 C 27407.000000 -714.000000 27231.000000 -714.000000 27055.000000 -714.000000 C 27055.000000 -732.666667 27055.000000 -751.333333 27055.000000 -770.000000z M 26970.000000 -1275.000000 C 27191.000000 -1275.000000 27412.000000 -1275.000000 27633.000000 -1275.000000 C 27633.000000 -1255.666667 27633.000000 -1236.333333 27633.000000 -1217.000000 C 27412.000000 -1217.000000 27191.000000 -1217.000000 26970.000000 -1217.000000 C 26970.000000 -1236.333333 26970.000000 -1255.666667 26970.000000 -1275.000000z M 27084.000000 -518.000000 C 27250.333333 -518.000000 27416.666667 -518.000000 27583.000000 -518.000000 C 27583.000000 -339.000000 27583.000000 -160.000000 27583.000000 19.000000 C 27416.666667 19.000000 27250.333333 19.000000 27084.000000 19.000000 C 27084.000000 0.000000 27084.000000 -19.000000 27084.000000 -38.000000 C 27231.000000 -38.000000 27378.000000 -38.000000 27525.000000 -38.000000 C 27525.000000 -179.000000 27525.000000 -320.000000 27525.000000 -461.000000 C 27378.000000 -461.000000 27231.000000 -461.000000 27084.000000 -461.000000 C 27084.000000 -480.000000 27084.000000 -499.000000 27084.000000 -518.000000z M 27055.000000 -518.000000 C 27074.000000 -518.000000 27093.000000 -518.000000 27112.000000 -518.000000 C 27112.000000 -305.666667 27112.000000 -93.333333 27112.000000 119.000000 C 27093.000000 119.000000 27074.000000 119.000000 27055.000000 119.000000 C 27055.000000 -93.333333 27055.000000 -305.666667 27055.000000 -518.000000z "/>
</g>
<g><path d="M 29725.000000 -292.000000 C 29965.666667 -292.000000 30206.333333 -292.000000 30447.000000 -292.000000 C 30447.000000 -273.333333 30447.000000 -254.666667 30447.000000 -236.000000 C 30206.333333 -236.000000 29965.666667 -236.000000 29725.000000 -236.000000 C 29725.000000 -254.666667 29725.000000 -273.333333 29725.000000 -292.000000z M 29724.000000 8.000000 C 29964.333333 8.000000 30204.666667 8.000000 30445.000000 8.000000 C 30445.000000 26.333333 30445.000000 44.666667 30445.000000 63.000000 C 30204.666667 63.000000 29964.333333 63.000000 29724.000000 63.000000 C 29724.000000 44.666667 29724.000000 26.333333 29724.000000 8.000000z M 29580.000000 -1344.000000 C 29919.000000 -1344.000000 30258.000000 -1344.000000 30597.000000 -1344.000000 C 30597.000000 -1324.666667 30597.000000 -1305.333333 30597.000000 -1286.000000 C 30258.000000 -1286.000000 29919.000000 -1286.000000 29580.000000 -1286.000000 C 29580.000000 -1305.333333 29580.000000 -1324.666667 29580.000000 -1344.000000z M 29537.000000 -797.000000 C 29902.000000 -797.000000 30267.000000 -797.000000 30632.000000 -797.000000 C 30632.000000 -777.666667 30632.000000 -758.333333 30632.000000 -739.000000 C 30267.000000 -739.000000 29902.000000 -739.000000 29537.000000 -739.000000 C 29537.000000 -758.333333 29537.000000 -777.666667 29537.000000 -797.000000z M 29916.000000 -1332.000000 C 29935.000000 -1332.000000 29954.000000 -1332.000000 29973.000000 -1332.000000 C 29973.000000 -1142.666667 29973.000000 -953.333333 29973.000000 -764.000000 C 29954.000000 -764.000000 29935.000000 -764.000000 29916.000000 -764.000000 C 29916.000000 -953.333333 29916.000000 -1142.666667 29916.000000 -1332.000000z M 30198.000000 -1332.000000 C 30217.000000 -1332.000000 30236.000000 -1332.000000 30255.000000 -1332.000000 C 30255.000000 -1142.666667 30255.000000 -953.333333 30255.000000 -764.000000 C 30236.000000 -764.000000 30217.000000 -764.000000 30198.000000 -764.000000 C 30198.000000 -953.333333 30198.000000 -1142.666667 30198.000000 -1332.000000z M 30363.000000 -1596.000000 C 30381.000000 -1587.000000 30399.000000 -1578.000000 30417.000000 -1569.000000 C 30395.000000 -1529.000000 30371.666667 -1489.000000 30347.000000 -1449.000000 C 30323.000000 -1409.666667 30300.000000 -1375.333333 30278.000000 -1346.000000 C 30262.666667 -1353.666667 30247.333333 -1361.333333 30232.000000 -1369.000000 C 30254.000000 -1399.666667 30277.333333 -1437.000000 30302.000000 -1481.000000 C 30327.333333 -1525.666667 30347.666667 -1564.000000 30363.000000 -1596.000000z M 30488.000000 -1198.000000 C 30507.000000 -1189.666667 30526.000000 -1181.333333 30545.000000 -1173.000000 C 30519.666667 -1121.666667 30492.000000 -1067.000000 30462.000000 -1009.000000 C 30432.000000 -951.000000 30403.333333 -901.333333 30376.000000 -860.000000 C 30361.333333 -867.666667 30346.666667 -875.333333 30332.000000 -883.000000 C 30350.000000 -911.000000 30368.666667 -943.666667 30388.000000 -981.000000 C 30407.333333 -1018.333333 30425.666667 -1056.000000 30443.000000 -1094.000000 C 30461.000000 -1132.666667 30476.000000 -1167.333333 30488.000000 -1198.000000z M 29739.000000 -1569.000000 C 29755.000000 -1576.000000 29771.000000 -1583.000000 29787.000000 -1590.000000 C 29813.666667 -1555.333333 29839.000000 -1516.666667 29863.000000 -1474.000000 C 29887.666667 -1432.000000 29904.666667 -1395.666667 29914.000000 -1365.000000 C 29896.666667 -1356.000000 29879.333333 -1347.000000 29862.000000 -1338.000000 C 29851.333333 -1370.000000 29834.333333 -1407.333333 29811.000000 -1450.000000 C 29788.333333 -1493.333333 29764.333333 -1533.000000 29739.000000 -1569.000000z M 29629.000000 -1179.000000 C 29645.666667 -1184.666667 29662.333333 -1190.333333 29679.000000 -1196.000000 C 29709.000000 -1148.666667 29736.333333 -1096.000000 29761.000000 -1038.000000 C 29785.666667 -980.666667 29802.666667 -931.666667 29812.000000 -891.000000 C 29794.666667 -883.333333 29777.333333 -875.666667 29760.000000 -868.000000 C 29750.000000 -910.000000 29732.666667 -960.333333 29708.000000 -1019.000000 C 29684.000000 -1078.333333 29657.666667 -1131.666667 29629.000000 -1179.000000z M 29699.000000 -589.000000 C 29961.333333 -589.000000 30223.666667 -589.000000 30486.000000 -589.000000 C 30486.000000 -350.333333 30486.000000 -111.666667 30486.000000 127.000000 C 30467.333333 127.000000 30448.666667 127.000000 30430.000000 127.000000 C 30430.000000 -93.333333 30430.000000 -313.666667 30430.000000 -534.000000 C 30204.666667 -534.000000 29979.333333 -534.000000 29754.000000 -534.000000 C 29754.000000 -311.333333 29754.000000 -88.666667 29754.000000 134.000000 C 29735.666667 134.000000 29717.333333 134.000000 29699.000000 134.000000 C 29699.000000 -107.000000 29699.000000 -348.000000 29699.000000 -589.000000z M 28969.000000 -1021.000000 C 29136.000000 -1021.000000 29303.000000 -1021.000000 29470.000000 -1021.000000 C 29470.000000 -1002.666667 29470.000000 -984.333333 29470.000000 -966.000000 C 29303.000000 -966.000000 29136.000000 -966.000000 28969.000000 -966.000000 C 28969.000000 -984.333333 28969.000000 -1002.666667 28969.000000 -1021.000000z M 28979.000000 -1519.000000 C 29140.000000 -1519.000000 29301.000000 -1519.000000 29462.000000 -1519.000000 C 29462.000000 -1500.333333 29462.000000 -1481.666667 29462.000000 -1463.000000 C 29301.000000 -1463.000000 29140.000000 -1463.000000 28979.000000 -1463.000000 C 28979.000000 -1481.666667 28979.000000 -1500.333333 28979.000000 -1519.000000z M 28969.000000 -770.000000 C 29136.000000 -770.000000 29303.000000 -770.000000 29470.000000 -770.000000 C 29470.000000 -751.333333 29470.000000 -732.666667 29470.000000 -714.000000 C 29303.000000 -714.000000 29136.000000 -714.000000 28969.000000 -714.000000 C 28969.000000 -732.666667 28969.000000 -751.333333 28969.000000 -770.000000z M 28890.000000 -1275.000000 C 29100.000000 -1275.000000 29310.000000 -1275.000000 29520.000000 -1275.000000 C 29520.000000 -1255.666667 29520.000000 -1236.333333 29520.000000 -1217.000000 C 29310.000000 -1217.000000 29100.000000 -1217.000000 28890.000000 -1217.000000 C 28890.000000 -1236.333333 28890.000000 -1255.666667 28890.000000 -1275.000000z M 28998.000000 -518.000000 C 29154.666667 -518.000000 29311.333333 -518.000000 29468.000000 -518.000000 C 29468.000000 -339.000000 29468.000000 -160.000000 29468.000000 19.000000 C 29311.333333 19.000000 29154.666667 19.000000 28998.000000 19.000000 C 28998.000000 0.000000 28998.000000 -19.000000 28998.000000 -38.000000 C 29136.000000 -38.000000 29274.000000 -38.000000 29412.000000 -38.000000 C 29412.000000 -179.000000 29412.000000 -320.000000 29412.000000 -461.000000 C 29274.000000 -461.000000 29136.000000 -461.000000 28998.000000 -461.000000 C 28998.000000 -480.000000 28998.000000 -499.000000 28998.000000 -518.000000z M 28969.000000 -518.000000 C 28988.333333 -518.000000 29007.666667 -518.000000 29027.000000 -518.000000 C 29027.000000 -305.666667 29027.000000 -93.333333 29027.000000 119.000000 C 29007.666667 119.000000 28988.333333 119.000000 28969.000000 119.000000 C 28969.000000 -93.333333 28969.000000 -305.666667 28969.000000 -518.000000z "/>
</g>
</svg>
