<?xml version="1.0" ?>
<svg xmlns="http://www.w3.org/2000/svg" version="1.1" width="600" height="600">
  <defs/>
  <g>
    <path stroke-width="0" fill="rgb(0, 0, 0)" opacity="1.0" d="M 421.84375 311.890625 C 421.84375 296.265625 417.9375 282.828125 410.125 271.578125 C 402.3125 260.328125 391.6875 251.578125 378.25 245.328125 C 364.96875 239.078125 349.890625 235.953125 333.015625 235.953125 C 314.734375 235.953125 297.78125 237.28125 282.15625 239.9375 C 266.6875 242.59375 252.46875 245.71875 239.5 249.3125 C 226.53125 252.90625 214.96875 256.1875 204.8125 259.15625 C 197.3125 261.34375 191.140625 263.375 186.296875 265.25 C 181.609375 266.96875 177.0 268.6875 172.46875 270.40625 C 170.515625 264.3125 168.5625 258.21875 166.609375 252.125 C 171.765625 251.5 177.078125 250.640625 182.546875 249.546875 C 188.171875 248.453125 194.109375 247.359375 200.359375 246.265625 C 210.515625 243.765625 222.625 240.71875 236.6875 237.125 C 250.90625 233.53125 266.296875 230.328125 282.859375 227.515625 C 299.578125 224.703125 316.296875 223.296875 333.015625 223.296875 C 351.921875 223.296875 369.109375 226.65625 384.578125 233.375 C 400.046875 240.09375 412.234375 250.09375 421.140625 263.375 C 430.203125 276.5 434.734375 292.828125 434.734375 312.359375 C 434.734375 336.890625 429.8125 358.53125 419.96875 377.28125 C 410.125 396.03125 396.296875 412.203125 378.484375 425.796875 C 360.828125 439.234375 340.28125 450.328125 316.84375 459.078125 C 293.40625 467.828125 268.25 474.390625 241.375 478.765625 C 238.328125 474.78125 235.28125 470.796875 232.234375 466.8125 C 258.953125 463.0625 283.796875 457.125 306.765625 449.0 C 329.734375 440.71875 349.8125 430.328125 367.0 417.828125 C 384.34375 405.171875 397.78125 390.015625 407.3125 372.359375 C 417.0 354.546875 421.84375 334.390625 421.84375 311.890625M 220.515625 122.515625 C 232.234375 125.171875 246.296875 127.828125 262.703125 130.484375 C 279.109375 132.984375 295.984375 135.25 313.328125 137.28125 C 330.671875 139.15625 347.078125 140.71875 362.546875 141.96875 C 378.015625 143.0625 390.828125 143.765625 400.984375 144.078125 C 400.28125 148.6875 399.578125 153.296875 398.875 157.90625 C 387.15625 157.125 373.484375 156.03125 357.859375 154.625 C 342.234375 153.21875 325.984375 151.578125 309.109375 149.703125 C 292.390625 147.671875 276.140625 145.5625 260.359375 143.375 C 244.578125 141.1875 230.4375 139.0 217.9375 136.8125 C 218.796875 132.046875 219.65625 127.28125 220.515625 122.515625"/>
  </g>
</svg>
