<?xml version="1.0" encoding="utf-8"?>
<svg xmlns="http://www.w3.org/2000/svg" xmlns:ev="http://www.w3.org/2001/xml-events" xmlns:xlink="http://www.w3.org/1999/xlink" version="1.1" baseProfile="full" width="17092.0" height="1734.0" viewBox="113.0 -1596.0 17092.0 1734.0">
<defs/>
<g><path d="M 113.000000 -10.000000 C 678.333333 -10.000000 1243.666667 -10.000000 1809.000000 -10.000000 C 1809.000000 8.666667 1809.000000 27.333333 1809.000000 46.000000 C 1243.666667 46.000000 678.333333 46.000000 113.000000 46.000000 C 113.000000 27.333333 113.000000 8.666667 113.000000 -10.000000z M 190.000000 -1219.000000 C 371.000000 -1219.000000 552.000000 -1219.000000 733.000000 -1219.000000 C 733.000000 -1200.666667 733.000000 -1182.333333 733.000000 -1164.000000 C 552.000000 -1164.000000 371.000000 -1164.000000 190.000000 -1164.000000 C 190.000000 -1182.333333 190.000000 -1200.666667 190.000000 -1219.000000z M 1173.000000 -1219.000000 C 1365.666667 -1219.000000 1558.333333 -1219.000000 1751.000000 -1219.000000 C 1751.000000 -1200.666667 1751.000000 -1182.333333 1751.000000 -1164.000000 C 1558.333333 -1164.000000 1365.666667 -1164.000000 1173.000000 -1164.000000 C 1173.000000 -1182.333333 1173.000000 -1200.666667 1173.000000 -1219.000000z M 213.000000 -828.000000 C 388.333333 -828.000000 563.666667 -828.000000 739.000000 -828.000000 C 739.000000 -809.333333 739.000000 -790.666667 739.000000 -772.000000 C 563.666667 -772.000000 388.333333 -772.000000 213.000000 -772.000000 C 213.000000 -790.666667 213.000000 -809.333333 213.000000 -828.000000z M 1177.000000 -828.000000 C 1360.666667 -828.000000 1544.333333 -828.000000 1728.000000 -828.000000 C 1728.000000 -809.333333 1728.000000 -790.666667 1728.000000 -772.000000 C 1544.333333 -772.000000 1360.666667 -772.000000 1177.000000 -772.000000 C 1177.000000 -790.666667 1177.000000 -809.333333 1177.000000 -828.000000z M 180.000000 -422.000000 C 367.000000 -422.000000 554.000000 -422.000000 741.000000 -422.000000 C 741.000000 -403.000000 741.000000 -384.000000 741.000000 -365.000000 C 554.000000 -365.000000 367.000000 -365.000000 180.000000 -365.000000 C 180.000000 -384.000000 180.000000 -403.000000 180.000000 -422.000000z M 1173.000000 -422.000000 C 1368.333333 -422.000000 1563.666667 -422.000000 1759.000000 -422.000000 C 1759.000000 -403.000000 1759.000000 -384.000000 1759.000000 -365.000000 C 1563.666667 -365.000000 1368.333333 -365.000000 1173.000000 -365.000000 C 1173.000000 -384.000000 1173.000000 -403.000000 1173.000000 -422.000000z M 708.000000 -1572.000000 C 726.666667 -1572.000000 745.333333 -1572.000000 764.000000 -1572.000000 C 764.000000 -1044.000000 764.000000 -516.000000 764.000000 12.000000 C 745.333333 12.000000 726.666667 12.000000 708.000000 12.000000 C 708.000000 -516.000000 708.000000 -1044.000000 708.000000 -1572.000000z M 1152.000000 -1572.000000 C 1170.666667 -1572.000000 1189.333333 -1572.000000 1208.000000 -1572.000000 C 1208.000000 -1041.666667 1208.000000 -511.333333 1208.000000 19.000000 C 1189.333333 19.000000 1170.666667 19.000000 1152.000000 19.000000 C 1152.000000 -511.333333 1152.000000 -1041.666667 1152.000000 -1572.000000z "/>
</g></svg>
