<?xml version="1.0" encoding="utf-8"?>
<svg xmlns="http://www.w3.org/2000/svg" xmlns:ev="http://www.w3.org/2001/xml-events" xmlns:xlink="http://www.w3.org/1999/xlink" version="1.1" baseProfile="full" width="49628.0" height="1744.0" viewBox="213.0 -1596.0 49628.0 1744.0">
<defs/>
<g><path d="M 7822.000000 -482.000000 C 7841.333333 -496.000000 7860.000000 -511.333333 7878.000000 -528.000000 C 7896.000000 -544.666667 7915.666667 -564.000000 7937.000000 -586.000000 C 7966.333333 -615.333333 7998.000000 -650.333333 8032.000000 -691.000000 C 8066.000000 -732.333333 8101.333333 -776.333333 8138.000000 -823.000000 C 8174.666667 -869.666667 8209.666667 -914.666667 8243.000000 -958.000000 C 8277.000000 -1001.333333 8307.666667 -1039.666667 8335.000000 -1073.000000 C 8379.666667 -1128.333333 8423.000000 -1159.333333 8465.000000 -1166.000000 C 8507.666667 -1173.333333 8557.000000 -1146.333333 8613.000000 -1085.000000 C 8646.333333 -1049.000000 8683.333333 -1006.333333 8724.000000 -957.000000 C 8765.333333 -907.666667 8808.666667 -856.666667 8854.000000 -804.000000 C 8899.333333 -752.000000 8944.000000 -702.333333 8988.000000 -655.000000 C 9014.666667 -624.333333 9047.333333 -588.000000 9086.000000 -546.000000 C 9125.333333 -504.666667 9167.333333 -461.333333 9212.000000 -416.000000 C 9256.666667 -370.666667 9301.666667 -325.333333 9347.000000 -280.000000 C 9393.000000 -235.333333 9436.333333 -195.000000 9477.000000 -159.000000 C 9461.666667 -142.333333 9446.333333 -125.666667 9431.000000 -109.000000 C 9379.666667 -157.666667 9325.666667 -211.333333 9269.000000 -270.000000 C 9213.000000 -329.333333 9157.666667 -389.000000 9103.000000 -449.000000 C 9049.000000 -509.666667 8998.333333 -565.333333 8951.000000 -616.000000 C 8907.666667 -663.333333 8863.000000 -714.000000 8817.000000 -768.000000 C 8771.666667 -822.000000 8728.666667 -873.000000 8688.000000 -921.000000 C 8647.333333 -969.000000 8612.000000 -1009.000000 8582.000000 -1041.000000 C 8550.000000 -1076.333333 8523.000000 -1098.000000 8501.000000 -1106.000000 C 8479.666667 -1114.666667 8459.333333 -1112.666667 8440.000000 -1100.000000 C 8421.333333 -1087.333333 8399.000000 -1065.666667 8373.000000 -1035.000000 C 8347.666667 -1003.000000 8318.000000 -965.666667 8284.000000 -923.000000 C 8250.000000 -881.000000 8214.666667 -837.333333 8178.000000 -792.000000 C 8142.000000 -746.666667 8106.666667 -702.333333 8072.000000 -659.000000 C 8037.333333 -616.333333 8006.000000 -579.000000 7978.000000 -547.000000 C 7961.333333 -526.333333 7943.000000 -505.333333 7923.000000 -484.000000 C 7903.000000 -463.333333 7886.666667 -445.333333 7874.000000 -430.000000 C 7856.666667 -447.333333 7839.333333 -464.666667 7822.000000 -482.000000z "/>
</g></svg>
