<?xml version="1.0" encoding="utf-8"?>
<svg xmlns="http://www.w3.org/2000/svg" xmlns:ev="http://www.w3.org/2001/xml-events" xmlns:xlink="http://www.w3.org/1999/xlink" version="1.1" baseProfile="full" width="34199.0" height="1607.0" viewBox="282.0 -1509.0 34199.0 1607.0">
<defs/>
<g><path d="M 21540.000000 -1342.000000 C 21539.333333 -1335.333333 21537.666667 -1327.000000 21535.000000 -1317.000000 C 21532.333333 -1307.000000 21529.666667 -1294.333333 21527.000000 -1279.000000 C 21520.333333 -1240.333333 21512.666667 -1189.333333 21504.000000 -1126.000000 C 21496.000000 -1062.666667 21488.666667 -994.666667 21482.000000 -922.000000 C 21476.000000 -850.000000 21471.666667 -781.000000 21469.000000 -715.000000 C 21467.000000 -649.000000 21467.666667 -593.666667 21471.000000 -549.000000 C 21494.333333 -643.666667 21532.000000 -731.666667 21584.000000 -813.000000 C 21636.666667 -894.333333 21700.000000 -965.333333 21774.000000 -1026.000000 C 21848.666667 -1086.666667 21929.666667 -1134.000000 22017.000000 -1168.000000 C 22105.000000 -1202.000000 22195.666667 -1219.000000 22289.000000 -1219.000000 C 22405.666667 -1219.000000 22504.000000 -1197.666667 22584.000000 -1155.000000 C 22664.000000 -1112.333333 22724.666667 -1055.000000 22766.000000 -983.000000 C 22808.000000 -911.666667 22829.000000 -832.333333 22829.000000 -745.000000 C 22829.000000 -646.333333 22808.666667 -556.666667 22768.000000 -476.000000 C 22728.000000 -395.333333 22666.666667 -331.333333 22584.000000 -284.000000 C 22501.333333 -236.666667 22396.000000 -213.000000 22268.000000 -213.000000 C 22195.333333 -213.000000 22127.333333 -226.000000 22064.000000 -252.000000 C 22000.666667 -278.666667 21943.666667 -316.666667 21893.000000 -366.000000 C 21842.333333 -415.333333 21799.000000 -475.000000 21763.000000 -545.000000 C 21778.333333 -559.333333 21793.666667 -573.666667 21809.000000 -588.000000 C 21839.666667 -518.666667 21877.666667 -460.000000 21923.000000 -412.000000 C 21969.000000 -364.000000 22021.666667 -327.666667 22081.000000 -303.000000 C 22140.333333 -279.000000 22206.666667 -267.000000 22280.000000 -267.000000 C 22376.000000 -267.000000 22461.333333 -285.333333 22536.000000 -322.000000 C 22610.666667 -359.333333 22669.333333 -413.000000 22712.000000 -483.000000 C 22755.333333 -553.666667 22777.000000 -639.000000 22777.000000 -739.000000 C 22777.000000 -817.000000 22758.666667 -888.333333 22722.000000 -953.000000 C 22686.000000 -1017.666667 22632.000000 -1069.333333 22560.000000 -1108.000000 C 22488.000000 -1147.333333 22399.000000 -1167.000000 22293.000000 -1167.000000 C 22193.000000 -1167.000000 22100.333333 -1149.333333 22015.000000 -1114.000000 C 21930.333333 -1079.333333 21854.333333 -1031.666667 21787.000000 -971.000000 C 21719.666667 -911.000000 21663.000000 -844.000000 21617.000000 -770.000000 C 21571.000000 -696.000000 21537.333333 -620.333333 21516.000000 -543.000000 C 21510.666667 -526.333333 21506.000000 -504.666667 21502.000000 -478.000000 C 21498.000000 -451.333333 21496.666667 -425.000000 21498.000000 -399.000000 C 21499.333333 -382.333333 21501.666667 -363.333333 21505.000000 -342.000000 C 21508.333333 -321.333333 21511.666667 -300.666667 21515.000000 -280.000000 C 21519.000000 -260.000000 21523.000000 -242.333333 21527.000000 -227.000000 C 21510.333333 -223.000000 21493.666667 -219.000000 21477.000000 -215.000000 C 21463.000000 -269.000000 21450.000000 -337.333333 21438.000000 -420.000000 C 21426.000000 -503.333333 21420.000000 -589.333333 21420.000000 -678.000000 C 21420.000000 -732.666667 21422.000000 -790.333333 21426.000000 -851.000000 C 21430.666667 -912.333333 21436.000000 -971.000000 21442.000000 -1027.000000 C 21448.666667 -1083.666667 21454.666667 -1134.666667 21460.000000 -1180.000000 C 21466.000000 -1225.333333 21470.333333 -1260.000000 21473.000000 -1284.000000 C 21474.333333 -1298.666667 21475.000000 -1310.333333 21475.000000 -1319.000000 C 21475.000000 -1327.666667 21474.333333 -1337.333333 21473.000000 -1348.000000 C 21495.333333 -1346.000000 21517.666667 -1344.000000 21540.000000 -1342.000000z M 22212.000000 -1496.000000 C 22222.666667 -1452.000000 22233.333333 -1394.000000 22244.000000 -1322.000000 C 22254.666667 -1250.666667 22263.666667 -1171.666667 22271.000000 -1085.000000 C 22278.333333 -999.000000 22282.000000 -910.666667 22282.000000 -820.000000 C 22282.000000 -708.666667 22275.000000 -606.000000 22261.000000 -512.000000 C 22247.666667 -418.666667 22226.000000 -334.000000 22196.000000 -258.000000 C 22166.000000 -182.000000 22125.666667 -114.000000 22075.000000 -54.000000 C 22024.333333 5.333333 21962.000000 56.000000 21888.000000 98.000000 C 21871.333333 86.333333 21854.666667 74.666667 21838.000000 63.000000 C 21910.000000 26.333333 21970.666667 -19.333333 22020.000000 -74.000000 C 22070.000000 -128.666667 22110.333333 -192.000000 22141.000000 -264.000000 C 22172.333333 -336.000000 22195.000000 -418.000000 22209.000000 -510.000000 C 22223.000000 -602.666667 22230.000000 -705.333333 22230.000000 -818.000000 C 22230.000000 -908.666667 22226.666667 -992.666667 22220.000000 -1070.000000 C 22214.000000 -1148.000000 22206.666667 -1215.000000 22198.000000 -1271.000000 C 22190.000000 -1327.666667 22182.666667 -1368.000000 22176.000000 -1392.000000 C 22172.000000 -1410.000000 22167.333333 -1428.000000 22162.000000 -1446.000000 C 22157.333333 -1464.000000 22152.333333 -1479.333333 22147.000000 -1492.000000 C 22168.666667 -1493.333333 22190.333333 -1494.666667 22212.000000 -1496.000000z "/>
</g></svg>
