<?xml version="1.0" ?>
<svg xmlns="http://www.w3.org/2000/svg" version="1.1" width="600" height="600">
  <defs/>
  <g>
    <path stroke-width="0" fill="rgb(0, 0, 0)" opacity="1.0" d="M 120.09091186523438 320.7916259765625 C 120.09091186523438 307.4583740234375 120.09091186523438 294.125 120.09091186523438 280.7916259765625 C 131.0 280.7916259765625 141.90908813476562 280.7916259765625 152.81817626953125 280.7916259765625 C 152.81817626953125 294.125 152.81817626953125 307.4583740234375 152.81817626953125 320.7916259765625 C 141.90908813476562 320.7916259765625 131.0 320.7916259765625 120.09091186523438 320.7916259765625M 136.45455932617188 299.1666259765625 C 140.79403686523438 293.7083740234375 145.13351440429688 288.25 149.4730224609375 282.7916259765625 C 140.79403686523438 282.7916259765625 132.11505126953125 282.7916259765625 123.43606567382812 282.7916259765625 C 127.77557373046875 288.25 132.11505126953125 293.7083740234375 136.45455932617188 299.1666259765625M 137.7542724609375 300.7916259765625 C 142.09375 306.25 146.4332275390625 311.7083740234375 150.77273559570312 317.1666259765625 C 150.77273559570312 306.2569580078125 150.77273559570312 295.34722900390625 150.77273559570312 284.4375 C 146.4332275390625 289.888916015625 142.09375 295.34027099609375 137.7542724609375 300.7916259765625M 123.43606567382812 318.7916259765625 C 132.11505126953125 318.7916259765625 140.79403686523438 318.7916259765625 149.4730224609375 318.7916259765625 C 145.13351440429688 313.34027099609375 140.79403686523438 307.888916015625 136.45455932617188 302.4375 C 132.11505126953125 307.888916015625 127.77557373046875 313.34027099609375 123.43606567382812 318.7916259765625M 122.1363525390625 284.4375 C 122.1363525390625 295.34722900390625 122.1363525390625 306.2569580078125 122.1363525390625 317.1666259765625 C 126.47586059570312 311.7083740234375 130.81533813476562 306.25 135.15481567382812 300.7916259765625 C 130.81533813476562 295.34027099609375 126.47586059570312 289.888916015625 122.1363525390625 284.4375"/>
    <path stroke-width="0" fill="rgb(0, 0, 0)" opacity="1.0" d="M 161.0 320.7916259765625 C 161.0 307.4583740234375 161.0 294.125 161.0 280.7916259765625 C 171.90908813476562 280.7916259765625 182.81817626953125 280.7916259765625 193.72726440429688 280.7916259765625 C 193.72726440429688 294.125 193.72726440429688 307.4583740234375 193.72726440429688 320.7916259765625 C 182.81817626953125 320.7916259765625 171.90908813476562 320.7916259765625 161.0 320.7916259765625M 177.3636474609375 299.1666259765625 C 181.703125 293.7083740234375 186.0426025390625 288.25 190.38211059570312 282.7916259765625 C 181.703125 282.7916259765625 173.02413940429688 282.7916259765625 164.34515380859375 282.7916259765625 C 168.68466186523438 288.25 173.02413940429688 293.7083740234375 177.3636474609375 299.1666259765625M 178.66336059570312 300.7916259765625 C 183.00283813476562 306.25 187.34234619140625 311.7083740234375 191.68182373046875 317.1666259765625 C 191.68182373046875 306.2569580078125 191.68182373046875 295.34722900390625 191.68182373046875 284.4375 C 187.34234619140625 289.888916015625 183.00283813476562 295.34027099609375 178.66336059570312 300.7916259765625M 164.34515380859375 318.7916259765625 C 173.02413940429688 318.7916259765625 181.703125 318.7916259765625 190.38211059570312 318.7916259765625 C 186.0426025390625 313.34027099609375 181.703125 307.888916015625 177.3636474609375 302.4375 C 173.02413940429688 307.888916015625 168.68466186523438 313.34027099609375 164.34515380859375 318.7916259765625M 163.04547119140625 284.4375 C 163.04547119140625 295.34722900390625 163.04547119140625 306.2569580078125 163.04547119140625 317.1666259765625 C 167.38494873046875 311.7083740234375 171.72442626953125 306.25 176.06390380859375 300.7916259765625 C 171.72442626953125 295.34027099609375 167.38494873046875 289.888916015625 163.04547119140625 284.4375"/>
    <path stroke-width="0" fill="rgb(0, 0, 0)" opacity="1.0" d="M 201.90908813476562 320.7916259765625 C 201.90908813476562 307.4583740234375 201.90908813476562 294.125 201.90908813476562 280.7916259765625 C 212.81817626953125 280.7916259765625 223.72726440429688 280.7916259765625 234.6363525390625 280.7916259765625 C 234.6363525390625 294.125 234.6363525390625 307.4583740234375 234.6363525390625 320.7916259765625 C 223.72726440429688 320.7916259765625 212.81817626953125 320.7916259765625 201.90908813476562 320.7916259765625M 218.27273559570312 299.1666259765625 C 222.61221313476562 293.7083740234375 226.95172119140625 288.25 231.29119873046875 282.7916259765625 C 222.61221313476562 282.7916259765625 213.9332275390625 282.7916259765625 205.2542724609375 282.7916259765625 C 209.59375 288.25 213.9332275390625 293.7083740234375 218.27273559570312 299.1666259765625M 219.57244873046875 300.7916259765625 C 223.91192626953125 306.25 228.25143432617188 311.7083740234375 232.59091186523438 317.1666259765625 C 232.59091186523438 306.2569580078125 232.59091186523438 295.34722900390625 232.59091186523438 284.4375 C 228.25143432617188 289.888916015625 223.91192626953125 295.34027099609375 219.57244873046875 300.7916259765625M 205.2542724609375 318.7916259765625 C 213.9332275390625 318.7916259765625 222.61221313476562 318.7916259765625 231.29119873046875 318.7916259765625 C 226.95172119140625 313.34027099609375 222.61221313476562 307.888916015625 218.27273559570312 302.4375 C 213.9332275390625 307.888916015625 209.59375 313.34027099609375 205.2542724609375 318.7916259765625M 203.95452880859375 284.4375 C 203.95452880859375 295.34722900390625 203.95452880859375 306.2569580078125 203.95452880859375 317.1666259765625 C 208.29403686523438 311.7083740234375 212.633544921875 306.25 216.9730224609375 300.7916259765625 C 212.633544921875 295.34027099609375 208.29403686523438 289.888916015625 203.95452880859375 284.4375"/>
    <path stroke-width="0" fill="rgb(0, 0, 0)" opacity="1.0" d="M 242.81817626953125 320.7916259765625 C 242.81817626953125 307.4583740234375 242.81817626953125 294.125 242.81817626953125 280.7916259765625 C 253.727294921875 280.7916259765625 264.6363525390625 280.7916259765625 275.54547119140625 280.7916259765625 C 275.54547119140625 294.125 275.54547119140625 307.4583740234375 275.54547119140625 320.7916259765625 C 264.6363525390625 320.7916259765625 253.727294921875 320.7916259765625 242.81817626953125 320.7916259765625M 259.18182373046875 299.1666259765625 C 263.52130126953125 293.7083740234375 267.86077880859375 288.25 272.2002868652344 282.7916259765625 C 263.52130126953125 282.7916259765625 254.84234619140625 282.7916259765625 246.16336059570312 282.7916259765625 C 250.50283813476562 288.25 254.84234619140625 293.7083740234375 259.18182373046875 299.1666259765625M 260.4815368652344 300.7916259765625 C 264.8210144042969 306.25 269.1605224609375 311.7083740234375 273.5 317.1666259765625 C 273.5 306.2569580078125 273.5 295.34722900390625 273.5 284.4375 C 269.1605224609375 289.888916015625 264.8210144042969 295.34027099609375 260.4815368652344 300.7916259765625M 246.16336059570312 318.7916259765625 C 254.84234619140625 318.7916259765625 263.52130126953125 318.7916259765625 272.2002868652344 318.7916259765625 C 267.86077880859375 313.34027099609375 263.52130126953125 307.888916015625 259.18182373046875 302.4375 C 254.84234619140625 307.888916015625 250.50283813476562 313.34027099609375 246.16336059570312 318.7916259765625M 244.8636474609375 284.4375 C 244.8636474609375 295.34722900390625 244.8636474609375 306.2569580078125 244.8636474609375 317.1666259765625 C 249.203125 311.7083740234375 253.5426025390625 306.25 257.8821105957031 300.7916259765625 C 253.5426025390625 295.34027099609375 249.203125 289.888916015625 244.8636474609375 284.4375"/>
    <path stroke-width="0" fill="rgb(0, 0, 0)" opacity="1.0" d="M 283.727294921875 320.7916259765625 C 283.727294921875 307.4583740234375 283.727294921875 294.125 283.727294921875 280.7916259765625 C 294.6363525390625 280.7916259765625 305.54547119140625 280.7916259765625 316.45452880859375 280.7916259765625 C 316.45452880859375 294.125 316.45452880859375 307.4583740234375 316.45452880859375 320.7916259765625 C 305.54547119140625 320.7916259765625 294.6363525390625 320.7916259765625 283.727294921875 320.7916259765625M 300.0909118652344 299.1666259765625 C 304.430419921875 293.7083740234375 308.7698974609375 288.25 313.109375 282.7916259765625 C 304.430419921875 282.7916259765625 295.75140380859375 282.7916259765625 287.07244873046875 282.7916259765625 C 291.41192626953125 288.25 295.75140380859375 293.7083740234375 300.0909118652344 299.1666259765625M 301.390625 300.7916259765625 C 305.7301025390625 306.25 310.069580078125 311.7083740234375 314.4090881347656 317.1666259765625 C 314.4090881347656 306.2569580078125 314.4090881347656 295.34722900390625 314.4090881347656 284.4375 C 310.069580078125 289.888916015625 305.7301025390625 295.34027099609375 301.390625 300.7916259765625M 287.07244873046875 318.7916259765625 C 295.75140380859375 318.7916259765625 304.430419921875 318.7916259765625 313.109375 318.7916259765625 C 308.7698974609375 313.34027099609375 304.430419921875 307.888916015625 300.0909118652344 302.4375 C 295.75140380859375 307.888916015625 291.41192626953125 313.34027099609375 287.07244873046875 318.7916259765625M 285.7727355957031 284.4375 C 285.7727355957031 295.34722900390625 285.7727355957031 306.2569580078125 285.7727355957031 317.1666259765625 C 290.1122131347656 311.7083740234375 294.45172119140625 306.25 298.79119873046875 300.7916259765625 C 294.45172119140625 295.34027099609375 290.1122131347656 289.888916015625 285.7727355957031 284.4375"/>
    <path stroke-width="0" fill="rgb(0, 0, 0)" opacity="1.0" d="M 324.6363525390625 320.7916259765625 C 324.6363525390625 307.4583740234375 324.6363525390625 294.125 324.6363525390625 280.7916259765625 C 335.54547119140625 280.7916259765625 346.45452880859375 280.7916259765625 357.3636474609375 280.7916259765625 C 357.3636474609375 294.125 357.3636474609375 307.4583740234375 357.3636474609375 320.7916259765625 C 346.45452880859375 320.7916259765625 335.54547119140625 320.7916259765625 324.6363525390625 320.7916259765625M 341.0 299.1666259765625 C 345.3394775390625 293.7083740234375 349.678955078125 288.25 354.0184326171875 282.7916259765625 C 345.3394775390625 282.7916259765625 336.6605224609375 282.7916259765625 327.9815368652344 282.7916259765625 C 332.321044921875 288.25 336.6605224609375 293.7083740234375 341.0 299.1666259765625M 342.2996826171875 300.7916259765625 C 346.63922119140625 306.25 350.97869873046875 311.7083740234375 355.31817626953125 317.1666259765625 C 355.31817626953125 306.2569580078125 355.31817626953125 295.34722900390625 355.31817626953125 284.4375 C 350.97869873046875 289.888916015625 346.63922119140625 295.34027099609375 342.2996826171875 300.7916259765625M 327.9815368652344 318.7916259765625 C 336.6605224609375 318.7916259765625 345.3394775390625 318.7916259765625 354.0184326171875 318.7916259765625 C 349.678955078125 313.34027099609375 345.3394775390625 307.888916015625 341.0 302.4375 C 336.6605224609375 307.888916015625 332.321044921875 313.34027099609375 327.9815368652344 318.7916259765625M 326.68182373046875 284.4375 C 326.68182373046875 295.34722900390625 326.68182373046875 306.2569580078125 326.68182373046875 317.1666259765625 C 331.02130126953125 311.7083740234375 335.36077880859375 306.25 339.7003173828125 300.7916259765625 C 335.36077880859375 295.34027099609375 331.02130126953125 289.888916015625 326.68182373046875 284.4375"/>
    <path stroke-width="0" fill="rgb(0, 0, 0)" opacity="1.0" d="M 365.54547119140625 320.7916259765625 C 365.54547119140625 307.4583740234375 365.54547119140625 294.125 365.54547119140625 280.7916259765625 C 376.45458984375 280.7916259765625 387.3636474609375 280.7916259765625 398.272705078125 280.7916259765625 C 398.272705078125 294.125 398.272705078125 307.4583740234375 398.272705078125 320.7916259765625 C 387.3636474609375 320.7916259765625 376.45458984375 320.7916259765625 365.54547119140625 320.7916259765625M 381.9090576171875 299.1666259765625 C 386.24859619140625 293.7083740234375 390.58807373046875 288.25 394.92755126953125 282.7916259765625 C 386.24859619140625 282.7916259765625 377.569580078125 282.7916259765625 368.890625 282.7916259765625 C 373.2301025390625 288.25 377.569580078125 293.7083740234375 381.9090576171875 299.1666259765625M 383.20880126953125 300.7916259765625 C 387.54833984375 306.25 391.8878173828125 311.7083740234375 396.227294921875 317.1666259765625 C 396.227294921875 306.2569580078125 396.227294921875 295.34722900390625 396.227294921875 284.4375 C 391.8878173828125 289.888916015625 387.54833984375 295.34027099609375 383.20880126953125 300.7916259765625M 368.890625 318.7916259765625 C 377.569580078125 318.7916259765625 386.24859619140625 318.7916259765625 394.92755126953125 318.7916259765625 C 390.58807373046875 313.34027099609375 386.24859619140625 307.888916015625 381.9090576171875 302.4375 C 377.569580078125 307.888916015625 373.2301025390625 313.34027099609375 368.890625 318.7916259765625M 367.5909423828125 284.4375 C 367.5909423828125 295.34722900390625 367.5909423828125 306.2569580078125 367.5909423828125 317.1666259765625 C 371.930419921875 311.7083740234375 376.2698974609375 306.25 380.609375 300.7916259765625 C 376.2698974609375 295.34027099609375 371.930419921875 289.888916015625 367.5909423828125 284.4375"/>
    <path stroke-width="0" fill="rgb(0, 0, 0)" opacity="1.0" d="M 406.45458984375 320.7916259765625 C 406.45458984375 307.4583740234375 406.45458984375 294.125 406.45458984375 280.7916259765625 C 417.3636474609375 280.7916259765625 428.272705078125 280.7916259765625 439.18182373046875 280.7916259765625 C 439.18182373046875 294.125 439.18182373046875 307.4583740234375 439.18182373046875 320.7916259765625 C 428.272705078125 320.7916259765625 417.3636474609375 320.7916259765625 406.45458984375 320.7916259765625M 422.81817626953125 299.1666259765625 C 427.15771484375 293.7083740234375 431.4971923828125 288.25 435.836669921875 282.7916259765625 C 427.15771484375 282.7916259765625 418.47869873046875 282.7916259765625 409.7996826171875 282.7916259765625 C 414.13922119140625 288.25 418.47869873046875 293.7083740234375 422.81817626953125 299.1666259765625M 424.117919921875 300.7916259765625 C 428.4573974609375 306.25 432.796875 311.7083740234375 437.1363525390625 317.1666259765625 C 437.1363525390625 306.2569580078125 437.1363525390625 295.34722900390625 437.1363525390625 284.4375 C 432.796875 289.888916015625 428.4573974609375 295.34027099609375 424.117919921875 300.7916259765625M 409.7996826171875 318.7916259765625 C 418.47869873046875 318.7916259765625 427.15771484375 318.7916259765625 435.836669921875 318.7916259765625 C 431.4971923828125 313.34027099609375 427.15771484375 307.888916015625 422.81817626953125 302.4375 C 418.47869873046875 307.888916015625 414.13922119140625 313.34027099609375 409.7996826171875 318.7916259765625M 408.5 284.4375 C 408.5 295.34722900390625 408.5 306.2569580078125 408.5 317.1666259765625 C 412.8394775390625 311.7083740234375 417.178955078125 306.25 421.5184326171875 300.7916259765625 C 417.178955078125 295.34027099609375 412.8394775390625 289.888916015625 408.5 284.4375"/>
    <path stroke-width="0" fill="rgb(0, 0, 0)" opacity="1.0" d="M 447.3636474609375 320.7916259765625 C 447.3636474609375 307.4583740234375 447.3636474609375 294.125 447.3636474609375 280.7916259765625 C 458.272705078125 280.7916259765625 469.18182373046875 280.7916259765625 480.0909423828125 280.7916259765625 C 480.0909423828125 294.125 480.0909423828125 307.4583740234375 480.0909423828125 320.7916259765625 C 469.18182373046875 320.7916259765625 458.272705078125 320.7916259765625 447.3636474609375 320.7916259765625M 463.727294921875 299.1666259765625 C 468.0667724609375 293.7083740234375 472.40625 288.25 476.7457275390625 282.7916259765625 C 468.0667724609375 282.7916259765625 459.3878173828125 282.7916259765625 450.70880126953125 282.7916259765625 C 455.04833984375 288.25 459.3878173828125 293.7083740234375 463.727294921875 299.1666259765625M 465.0269775390625 300.7916259765625 C 469.366455078125 306.25 473.70599365234375 311.7083740234375 478.04547119140625 317.1666259765625 C 478.04547119140625 306.2569580078125 478.04547119140625 295.34722900390625 478.04547119140625 284.4375 C 473.70599365234375 289.888916015625 469.366455078125 295.34027099609375 465.0269775390625 300.7916259765625M 450.70880126953125 318.7916259765625 C 459.3878173828125 318.7916259765625 468.0667724609375 318.7916259765625 476.7457275390625 318.7916259765625 C 472.40625 313.34027099609375 468.0667724609375 307.888916015625 463.727294921875 302.4375 C 459.3878173828125 307.888916015625 455.04833984375 313.34027099609375 450.70880126953125 318.7916259765625M 449.4090576171875 284.4375 C 449.4090576171875 295.34722900390625 449.4090576171875 306.2569580078125 449.4090576171875 317.1666259765625 C 453.74859619140625 311.7083740234375 458.08807373046875 306.25 462.42755126953125 300.7916259765625 C 458.08807373046875 295.34027099609375 453.74859619140625 289.888916015625 449.4090576171875 284.4375"/>
  </g>
</svg>
