<?xml version="1.0" ?>
<svg xmlns="http://www.w3.org/2000/svg" version="1.1" width="600" height="600">
  <defs/>
  <g>
    <path stroke-width="0" fill="rgb(0, 0, 0)" opacity="1.0" d="M 136.366455078125 178.60812377929688 C 247.916015625 178.60812377929688 359.4658203125 178.60812377929688 471.015625 178.60812377929688 C 471.015625 182.39187622070312 471.015625 186.17568969726562 471.015625 189.95947265625 C 359.4658203125 189.95947265625 247.916015625 189.95947265625 136.366455078125 189.95947265625 C 136.366455078125 186.17568969726562 136.366455078125 182.39187622070312 136.366455078125 178.60812377929688M 221.700927734375 316.4459228515625 C 287.0361328125 316.4459228515625 352.37158203125 316.4459228515625 417.70703125 316.4459228515625 C 417.70703125 320.229736328125 417.70703125 324.0135498046875 417.70703125 327.79730224609375 C 352.37158203125 327.79730224609375 287.0361328125 327.79730224609375 221.700927734375 327.79730224609375 C 221.700927734375 324.0135498046875 221.700927734375 320.229736328125 221.700927734375 316.4459228515625M 215.011962890625 249.5540771484375 C 281.833740234375 249.5540771484375 348.65576171875 249.5540771484375 415.477294921875 249.5540771484375 C 415.477294921875 253.4053955078125 415.477294921875 257.25677490234375 415.477294921875 261.10809326171875 C 352.439208984375 261.10809326171875 289.401123046875 261.10809326171875 226.363037109375 261.10809326171875 C 226.363037109375 332.45947265625 226.363037109375 403.810791015625 226.363037109375 475.16217041015625 C 222.579345703125 475.16217041015625 218.795654296875 475.16217041015625 215.011962890625 475.16217041015625 C 215.011962890625 399.95947265625 215.011962890625 324.75677490234375 215.011962890625 249.5540771484375M 411.626220703125 249.5540771484375 C 415.477294921875 249.5540771484375 419.32861328125 249.5540771484375 423.1796875 249.5540771484375 C 423.1796875 317.39190673828125 423.1796875 385.229736328125 423.1796875 453.06756591796875 C 423.1796875 458.7432861328125 422.23388671875 462.93243408203125 420.342041015625 465.6351318359375 C 418.58544921875 468.47296142578125 415.1396484375 470.5 410.004638671875 471.7161865234375 C 405.139892578125 472.79730224609375 397.302490234375 473.33782958984375 386.491943359375 473.33782958984375 C 375.681396484375 473.33782958984375 361.49267578125 473.33782958984375 343.926025390625 473.33782958984375 C 343.655517578125 471.7161865234375 342.980224609375 469.8243408203125 341.899169921875 467.66217041015625 C 340.81787109375 465.5 339.804443359375 463.47296142578125 338.858642578125 461.5810546875 C 349.398681640625 461.851318359375 358.925537109375 462.0540771484375 367.438720703125 462.189208984375 C 376.0869140625 462.3243408203125 383.451416015625 462.3243408203125 389.532470703125 462.189208984375 C 395.61328125 462.0540771484375 400.0048828125 461.9864501953125 402.70751953125 461.9864501953125 C 406.220947265625 461.7161865234375 408.585693359375 460.9053955078125 409.8017578125 459.5540771484375 C 411.01806640625 458.33782958984375 411.626220703125 456.1756591796875 411.626220703125 453.06756591796875 C 411.626220703125 385.229736328125 411.626220703125 317.39190673828125 411.626220703125 249.5540771484375M 270.753173828125 124.89190673828125 C 274.334228515625 125.97299194335938 277.9150390625 127.05404663085938 281.495849609375 128.1351318359375 C 272.982666015625 155.56756591796875 262.037353515625 182.729736328125 248.659423828125 209.62164306640625 C 235.281494140625 236.51348876953125 219.2685546875 261.6486511230469 200.62060546875 285.02703857421875 C 181.97265625 308.270263671875 160.5546875 328.60809326171875 136.366455078125 346.04052734375 C 136.09619140625 344.95947265625 135.488037109375 343.9459228515625 134.542236328125 343.0 C 133.7314453125 341.9189453125 132.920654296875 340.9053955078125 132.10986328125 339.95947265625 C 131.299072265625 338.87841796875 130.5556640625 337.93243408203125 129.880126953125 337.12158203125 C 147.447021484375 324.689208984375 163.527587890625 310.43243408203125 178.12158203125 294.3513488769531 C 192.850830078125 278.270263671875 206.093505859375 261.04052734375 217.849853515625 242.66217041015625 C 229.7412109375 224.14862060546875 240.07861328125 204.95947265625 248.862060546875 185.0946044921875 C 257.6455078125 165.229736328125 264.9423828125 145.16217041015625 270.753173828125 124.89190673828125M 221.700927734375 383.74322509765625 C 287.0361328125 383.74322509765625 352.37158203125 383.74322509765625 417.70703125 383.74322509765625 C 417.70703125 387.66217041015625 417.70703125 391.5810546875 417.70703125 395.5 C 352.37158203125 395.5 287.0361328125 395.5 221.700927734375 395.5 C 221.700927734375 391.5810546875 221.700927734375 387.66217041015625 221.700927734375 383.74322509765625"/>
  </g>
</svg>
