<?xml version="1.0" ?>
<svg xmlns="http://www.w3.org/2000/svg" version="1.1" width="600" height="600">
  <defs/>
  <g>
    <path stroke-width="0" fill="rgb(0, 0, 0)" opacity="1.0" d="M 277.0205078125 142.1446533203125 C 276.194091796875 145.58895874023438 275.57421875 148.8955078125 275.1611328125 152.06427001953125 C 274.74755859375 155.23306274414062 274.265625 158.6773681640625 273.71435546875 162.39724731445312 C 272.750244140625 171.35247802734375 271.5103759765625 181.82318115234375 269.9952392578125 193.80938720703125 C 268.6175537109375 205.65786743164062 267.0335693359375 218.26406860351562 265.24267578125 231.62799072265625 C 263.589599609375 244.991943359375 261.9366455078125 258.56256103515625 260.2835693359375 272.33984375 C 258.768310546875 285.97930908203125 257.2529296875 299.2743835449219 255.7376708984375 312.22503662109375 C 254.222412109375 325.1756591796875 253.051513671875 337.093017578125 252.2249755859375 347.97705078125 C 251.5362548828125 358.861083984375 251.1917724609375 368.1607666015625 251.1917724609375 375.8759765625 C 251.1917724609375 397.7818603515625 257.2529296875 415.48565673828125 269.375244140625 428.98736572265625 C 281.63525390625 442.4891357421875 300.57666015625 449.239990234375 326.19873046875 449.239990234375 C 347.826171875 449.239990234375 367.042724609375 446.34674072265625 383.8486328125 440.560302734375 C 400.654541015625 434.63604736328125 413.81005859375 425.95635986328125 423.31494140625 414.521240234375 C 432.820068359375 402.9483642578125 437.57275390625 388.96441650390625 437.57275390625 372.5694580078125 C 437.57275390625 359.34326171875 433.9912109375 345.014892578125 426.82763671875 329.5843505859375 C 419.80224609375 314.15380859375 408.09326171875 300.169921875 391.70068359375 287.6325988769531 C 396.453125 286.737060546875 401.20556640625 285.841552734375 405.9580078125 284.946044921875 C 419.87109375 298.44775390625 430.478271484375 312.29388427734375 437.779296875 326.4844970703125 C 445.080078125 340.53729248046875 448.73046875 356.17449951171875 448.73046875 373.3961181640625 C 448.73046875 392.68426513671875 443.427001953125 408.8037109375 432.820068359375 421.7542724609375 C 422.213134765625 434.7049560546875 407.81787109375 444.3489990234375 389.63427734375 450.6865234375 C 371.45068359375 457.161865234375 350.5810546875 460.3995361328125 327.025390625 460.3995361328125 C 312.14794921875 460.3995361328125 297.958984375 457.7818603515625 284.45947265625 452.5465087890625 C 270.95947265625 447.44891357421875 260.008056640625 438.838134765625 251.6051025390625 426.714111328125 C 243.33984375 414.452392578125 239.207275390625 397.8507080078125 239.207275390625 376.9093017578125 C 239.207275390625 367.9541015625 239.8271484375 356.58782958984375 241.06689453125 342.810546875 C 242.306640625 329.0333251953125 243.890869140625 314.01605224609375 245.8194580078125 297.7589111328125 C 247.7479248046875 281.501708984375 249.745361328125 264.968994140625 251.8116455078125 248.16073608398438 C 254.015869140625 231.35244750976562 255.9443359375 215.50860595703125 257.597412109375 200.629150390625 C 259.38818359375 185.6119384765625 260.8345947265625 172.73019409179688 261.9366455078125 161.98391723632812 C 262.4876708984375 157.43740844726562 262.7630615234375 153.4420166015625 262.7630615234375 149.9976806640625 C 262.7630615234375 146.55337524414062 262.4876708984375 143.52236938476562 261.9366455078125 140.90469360351562 C 266.9644775390625 141.31802368164062 271.99267578125 141.7313232421875 277.0205078125 142.1446533203125M 164.2003173828125 198.35589599609375 C 175.0828857421875 201.52468872070312 186.9986572265625 204.28012084960938 199.9473876953125 206.62225341796875 C 212.896240234375 208.82659912109375 225.7073974609375 210.54876708984375 238.3807373046875 211.78875732421875 C 251.1917724609375 212.89093017578125 262.625244140625 213.4420166015625 272.681396484375 213.4420166015625 C 287.69677734375 213.4420166015625 302.02294921875 213.16644287109375 315.66064453125 212.6153564453125 C 329.29833984375 211.926513671875 342.72900390625 210.61767578125 355.95361328125 208.6888427734375 C 355.95361328125 212.822021484375 355.95361328125 216.9552001953125 355.95361328125 221.08837890625 C 342.17822265625 222.05279541015625 328.81591796875 222.87945556640625 315.8671875 223.56829833984375 C 302.918212890625 224.25717163085938 288.66064453125 224.60159301757812 273.0947265625 224.60159301757812 C 263.1763916015625 224.60159301757812 251.742919921875 224.050537109375 238.7939453125 222.94833374023438 C 225.8450927734375 221.7083740234375 212.758544921875 220.05511474609375 199.5341796875 217.988525390625 C 186.309814453125 215.7841796875 174.1875 213.37310791015625 163.167236328125 210.75543212890625 C 163.511474609375 206.62225341796875 163.85595703125 202.48907470703125 164.2003173828125 198.35589599609375M 153.6622314453125 297.138916015625 C 164.9578857421875 301.13433837890625 177.2869873046875 304.44085693359375 190.6490478515625 307.05853271484375 C 204.0111083984375 309.5384521484375 217.373291015625 311.32952880859375 230.7353515625 312.43170166015625 C 244.0975341796875 313.3961181640625 256.3575439453125 313.8782958984375 267.515625 313.8782958984375 C 282.53076171875 313.8782958984375 296.857177734375 313.602783203125 310.49462890625 313.0516357421875 C 324.13232421875 312.50054931640625 338.321044921875 311.053955078125 353.060546875 308.7117919921875 C 353.060546875 313.0516357421875 353.060546875 317.3914794921875 353.060546875 321.7313232421875 C 337.77001953125 323.3846435546875 323.305908203125 324.48681640625 309.668212890625 325.037841796875 C 296.03076171875 325.5889892578125 282.11767578125 325.864501953125 267.9288330078125 325.864501953125 C 250.9852294921875 325.864501953125 232.0439453125 324.6934814453125 211.10546875 322.351318359375 C 190.1668701171875 319.87139892578125 170.74365234375 315.73822021484375 152.835693359375 309.9517822265625 C 153.1112060546875 305.6807861328125 153.3865966796875 301.40985107421875 153.6622314453125 297.138916015625"/>
  </g>
</svg>
