<?xml version="1.0" encoding="utf-8"?>
<svg xmlns="http://www.w3.org/2000/svg" xmlns:ev="http://www.w3.org/2001/xml-events" xmlns:xlink="http://www.w3.org/1999/xlink" version="1.1" baseProfile="full" width="17103.0" height="1740.3" viewBox="60.0 -1597.0 17103.0 1740.3">
<defs/>
<g><path d="M 2112.000000 -1482.000000 C 2263.000000 -1482.000000 2414.000000 -1482.000000 2565.000000 -1482.000000 C 2565.000000 -1048.666667 2565.000000 -615.333333 2565.000000 -182.000000 C 2414.000000 -182.000000 2263.000000 -182.000000 2112.000000 -182.000000 C 2112.000000 -201.333333 2112.000000 -220.666667 2112.000000 -240.000000 C 2244.333333 -240.000000 2376.666667 -240.000000 2509.000000 -240.000000 C 2509.000000 -635.666667 2509.000000 -1031.333333 2509.000000 -1427.000000 C 2376.666667 -1427.000000 2244.333333 -1427.000000 2112.000000 -1427.000000 C 2112.000000 -1445.333333 2112.000000 -1463.666667 2112.000000 -1482.000000z M 2112.000000 -1077.000000 C 2256.666667 -1077.000000 2401.333333 -1077.000000 2546.000000 -1077.000000 C 2546.000000 -1058.000000 2546.000000 -1039.000000 2546.000000 -1020.000000 C 2401.333333 -1020.000000 2256.666667 -1020.000000 2112.000000 -1020.000000 C 2112.000000 -1039.000000 2112.000000 -1058.000000 2112.000000 -1077.000000z M 2112.000000 -662.000000 C 2256.666667 -662.000000 2401.333333 -662.000000 2546.000000 -662.000000 C 2546.000000 -643.666667 2546.000000 -625.333333 2546.000000 -607.000000 C 2401.333333 -607.000000 2256.666667 -607.000000 2112.000000 -607.000000 C 2112.000000 -625.333333 2112.000000 -643.666667 2112.000000 -662.000000z M 2081.000000 -1482.000000 C 2100.333333 -1482.000000 2119.666667 -1482.000000 2139.000000 -1482.000000 C 2139.000000 -993.666667 2139.000000 -505.333333 2139.000000 -17.000000 C 2119.666667 -17.000000 2100.333333 -17.000000 2081.000000 -17.000000 C 2081.000000 -505.333333 2081.000000 -993.666667 2081.000000 -1482.000000z M 2813.000000 -1498.000000 C 3101.666667 -1498.000000 3390.333333 -1498.000000 3679.000000 -1498.000000 C 3679.000000 -1336.666667 3679.000000 -1175.333333 3679.000000 -1014.000000 C 3390.333333 -1014.000000 3101.666667 -1014.000000 2813.000000 -1014.000000 C 2813.000000 -1033.000000 2813.000000 -1052.000000 2813.000000 -1071.000000 C 3082.333333 -1071.000000 3351.666667 -1071.000000 3621.000000 -1071.000000 C 3621.000000 -1194.666667 3621.000000 -1318.333333 3621.000000 -1442.000000 C 3351.666667 -1442.000000 3082.333333 -1442.000000 2813.000000 -1442.000000 C 2813.000000 -1460.666667 2813.000000 -1479.333333 2813.000000 -1498.000000z M 2817.000000 -670.000000 C 3128.000000 -670.000000 3439.000000 -670.000000 3750.000000 -670.000000 C 3750.000000 -651.333333 3750.000000 -632.666667 3750.000000 -614.000000 C 3439.000000 -614.000000 3128.000000 -614.000000 2817.000000 -614.000000 C 2817.000000 -632.666667 2817.000000 -651.333333 2817.000000 -670.000000z M 2782.000000 -1498.000000 C 2800.666667 -1498.000000 2819.333333 -1498.000000 2838.000000 -1498.000000 C 2838.000000 -984.666667 2838.000000 -471.333333 2838.000000 42.000000 C 2819.333333 42.000000 2800.666667 42.000000 2782.000000 42.000000 C 2782.000000 -471.333333 2782.000000 -984.666667 2782.000000 -1498.000000z M 2575.000000 56.000000 C 2637.666667 45.333333 2710.000000 32.666667 2792.000000 18.000000 C 2874.666667 3.333333 2962.333333 -12.666667 3055.000000 -30.000000 C 3148.333333 -47.333333 3242.333333 -64.333333 3337.000000 -81.000000 C 3338.333333 -64.333333 3339.666667 -47.666667 3341.000000 -31.000000 C 3207.666667 -3.666667 3074.666667 22.333333 2942.000000 47.000000 C 2810.000000 71.666667 2694.000000 93.666667 2594.000000 113.000000 C 2587.666667 94.000000 2581.333333 75.000000 2575.000000 56.000000z M 3239.000000 -1062.000000 C 3259.000000 -1062.000000 3279.000000 -1062.000000 3299.000000 -1062.000000 C 3301.000000 -889.333333 3312.333333 -733.333333 3333.000000 -594.000000 C 3353.666667 -455.333333 3381.333333 -336.666667 3416.000000 -238.000000 C 3450.666667 -139.333333 3489.333333 -63.666667 3532.000000 -11.000000 C 3574.666667 41.000000 3619.666667 67.000000 3667.000000 67.000000 C 3691.666667 65.666667 3709.000000 41.666667 3719.000000 -5.000000 C 3729.000000 -51.666667 3736.000000 -126.666667 3740.000000 -230.000000 C 3748.000000 -224.000000 3756.666667 -218.333333 3766.000000 -213.000000 C 3775.333333 -207.666667 3784.666667 -204.000000 3794.000000 -202.000000 C 3790.000000 -121.333333 3783.333333 -57.333333 3774.000000 -10.000000 C 3765.333333 37.333333 3752.333333 71.666667 3735.000000 93.000000 C 3717.666667 114.333333 3694.333333 125.000000 3665.000000 125.000000 C 3616.333333 125.000000 3571.000000 105.666667 3529.000000 67.000000 C 3487.000000 29.000000 3449.000000 -25.333333 3415.000000 -96.000000 C 3381.000000 -166.666667 3351.333333 -250.666667 3326.000000 -348.000000 C 3301.333333 -446.000000 3281.666667 -555.000000 3267.000000 -675.000000 C 3252.333333 -795.666667 3243.000000 -924.666667 3239.000000 -1062.000000z "/>
</g></svg>
