<?xml version="1.0" ?>
<svg xmlns="http://www.w3.org/2000/svg" version="1.1" width="600" height="600">
  <defs/>
  <g>
    <path stroke-width="0" fill="rgb(0, 0, 0)" opacity="1.0" d="M 418.1783447265625 139.35604858398438 C 420.6610107421875 143.88433837890625 423.581787109375 149.72732543945312 426.940673828125 156.88497924804688 C 430.2996826171875 163.89651489257812 433.658447265625 171.127197265625 437.0174560546875 178.57699584960938 C 440.3763427734375 186.02676391601562 443.22412109375 192.74618530273438 445.5606689453125 198.7352294921875 C 441.3255615234375 200.26901245117188 437.0904541015625 201.80279541015625 432.8553466796875 203.33657836914062 C 430.956787109375 197.3475341796875 428.4010009765625 190.701171875 425.188232421875 183.39743041992188 C 421.975341796875 175.94766235351562 418.689453125 168.5709228515625 415.33056640625 161.26718139648438 C 412.11767578125 153.96347045898438 409.1239013671875 147.90139770507812 406.34912109375 143.0809326171875 C 410.292236328125 141.83932495117188 414.2352294921875 140.59768676757812 418.1783447265625 139.35604858398438M 458.4852294921875 127.0858154296875 C 461.2598876953125 131.90628051757812 464.3267822265625 137.74923706054688 467.6856689453125 144.61471557617188 C 471.190673828125 151.480224609375 474.62255859375 158.5648193359375 477.9814453125 165.8685302734375 C 481.3404541015625 173.1722412109375 484.1151123046875 179.89166259765625 486.3056640625 186.02676391601562 C 481.924560546875 187.560546875 477.5433349609375 189.09432983398438 473.162109375 190.62811279296875 C 469.51123046875 181.13327026367188 465.2030029296875 170.61593627929688 460.2376708984375 159.07608032226562 C 455.4183349609375 147.53622436523438 450.818115234375 138.11444091796875 446.4368896484375 130.81069946289062 C 450.453125 129.569091796875 454.4691162109375 128.32745361328125 458.4852294921875 127.0858154296875M 374.366455078125 261.83929443359375 C 374.366455078125 291.7845458984375 372.6871337890625 317.8587646484375 369.328125 340.06207275390625 C 365.96923828125 362.1192626953125 360.0545654296875 381.32806396484375 351.5843505859375 397.6883544921875 C 343.2601318359375 413.902587890625 331.7230224609375 428.2178955078125 316.9730224609375 440.63421630859375 C 302.2230224609375 452.9044189453125 283.530029296875 464.2252197265625 260.8939208984375 474.596435546875 C 257.0968017578125 470.944580078125 253.2999267578125 467.292724609375 249.5028076171875 463.640869140625 C 267.4656982421875 456.0450439453125 283.3839111328125 447.57275390625 297.2576904296875 438.2239990234375 C 311.1314697265625 428.875244140625 322.8875732421875 417.043212890625 332.5262451171875 402.7279052734375 C 342.164794921875 388.41265869140625 349.466796875 370.15338134765625 354.43212890625 347.9500732421875 C 359.3974609375 325.746826171875 361.880126953125 298.1387939453125 361.880126953125 265.1259765625 C 361.880126953125 234.3043212890625 361.880126953125 203.482666015625 361.880126953125 172.66098022460938 C 361.880126953125 164.48080444335938 361.5880126953125 157.46923828125 361.00390625 151.62628173828125 C 360.4197998046875 145.63723754882812 360.127685546875 142.64273071289062 360.127685546875 142.64273071289062 C 365.4581298828125 142.64273071289062 370.7884521484375 142.64273071289062 376.1190185546875 142.64273071289062 C 376.1190185546875 142.64273071289062 375.826904296875 145.63723754882812 375.2427978515625 151.62628173828125 C 374.6585693359375 157.46923828125 374.366455078125 164.48080444335938 374.366455078125 172.66098022460938 C 374.366455078125 202.3870849609375 374.366455078125 232.11322021484375 374.366455078125 261.83929443359375M 223.434814453125 144.3956298828125 C 223.434814453125 144.3956298828125 223.2156982421875 146.6597900390625 222.777587890625 151.18807983398438 C 222.3394775390625 155.57028198242188 222.1204833984375 160.90200805664062 222.1204833984375 167.18319702148438 C 222.1204833984375 219.84295654296875 222.1204833984375 272.50274658203125 222.1204833984375 325.1624755859375 C 222.1204833984375 329.10650634765625 222.2664794921875 333.63482666015625 222.55859375 338.7474365234375 C 222.8507080078125 343.71392822265625 223.0697021484375 348.02313232421875 223.2156982421875 351.67498779296875 C 223.3616943359375 355.32684326171875 223.434814453125 357.15277099609375 223.434814453125 357.15277099609375 C 218.25048828125 357.15277099609375 213.06591796875 357.15277099609375 207.881591796875 357.15277099609375 C 207.881591796875 357.15277099609375 208.027587890625 355.39990234375 208.3197021484375 351.89410400390625 C 208.61181640625 348.3883056640625 208.90380859375 344.15216064453125 209.1959228515625 339.1856689453125 C 209.488037109375 334.07305908203125 209.634033203125 329.398681640625 209.634033203125 325.1624755859375 C 209.634033203125 272.5757751464844 209.634033203125 219.98904418945312 209.634033203125 167.40231323242188 C 209.634033203125 164.33474731445312 209.56103515625 160.53680419921875 209.4150390625 156.00851440429688 C 209.26904296875 151.33413696289062 208.90380859375 147.46316528320312 208.3197021484375 144.3956298828125 C 213.3580322265625 144.3956298828125 218.396484375 144.3956298828125 223.434814453125 144.3956298828125M 115.65771484375 231.821044921875 C 115.65771484375 231.821044921875 117.848388671875 231.96713256835938 122.2294921875 232.25927734375 C 126.6107177734375 232.55142211914062 131.8681640625 232.84356689453125 138.001708984375 233.1357421875 C 144.1353759765625 233.4278564453125 149.6119384765625 233.57394409179688 154.43115234375 233.57394409179688 C 248.2615966796875 233.57394409179688 342.091796875 233.57394409179688 435.922119140625 233.57394409179688 C 443.3701171875 233.57394409179688 450.3070068359375 233.28179931640625 456.7327880859375 232.697509765625 C 463.304443359375 232.11322021484375 466.59033203125 231.821044921875 466.59033203125 231.821044921875 C 466.59033203125 237.0067138671875 466.59033203125 242.19232177734375 466.59033203125 247.37796020507812 C 466.59033203125 247.37796020507812 463.304443359375 247.23187255859375 456.7327880859375 246.93975830078125 C 450.3070068359375 246.50152587890625 443.3701171875 246.28240966796875 435.922119140625 246.28240966796875 C 342.091796875 246.28240966796875 248.2615966796875 246.28240966796875 154.43115234375 246.28240966796875 C 149.4659423828125 246.28240966796875 143.9163818359375 246.35543823242188 137.78271484375 246.50152587890625 C 131.7950439453125 246.50152587890625 126.6107177734375 246.6475830078125 122.2294921875 246.93975830078125 C 117.848388671875 247.23187255859375 115.65771484375 247.37796020507812 115.65771484375 247.37796020507812 C 115.65771484375 242.19232177734375 115.65771484375 237.0067138671875 115.65771484375 231.821044921875"/>
  </g>
</svg>
