<?xml version="1.0" encoding="utf-8"?>
<svg xmlns="http://www.w3.org/2000/svg" xmlns:ev="http://www.w3.org/2001/xml-events" xmlns:xlink="http://www.w3.org/1999/xlink" version="1.1" baseProfile="full" width="5549.0" height="1736.0" viewBox="96.0 -1596.0 5549.0 1736.0">
<defs/>
<g><path d="M 501.000000 -1594.000000 C 519.666667 -1594.000000 538.333333 -1594.000000 557.000000 -1594.000000 C 557.000000 -1517.666667 557.000000 -1441.333333 557.000000 -1365.000000 C 538.333333 -1365.000000 519.666667 -1365.000000 501.000000 -1365.000000 C 501.000000 -1441.333333 501.000000 -1517.666667 501.000000 -1594.000000z M 134.000000 -1402.000000 C 399.666667 -1402.000000 665.333333 -1402.000000 931.000000 -1402.000000 C 931.000000 -1383.333333 931.000000 -1364.666667 931.000000 -1346.000000 C 665.333333 -1346.000000 399.666667 -1346.000000 134.000000 -1346.000000 C 134.000000 -1364.666667 134.000000 -1383.333333 134.000000 -1402.000000z M 96.000000 -996.000000 C 387.333333 -996.000000 678.666667 -996.000000 970.000000 -996.000000 C 970.000000 -977.000000 970.000000 -958.000000 970.000000 -939.000000 C 678.666667 -939.000000 387.333333 -939.000000 96.000000 -939.000000 C 96.000000 -958.000000 96.000000 -977.000000 96.000000 -996.000000z M 250.000000 -540.000000 C 442.000000 -540.000000 634.000000 -540.000000 826.000000 -540.000000 C 826.000000 -521.333333 826.000000 -502.666667 826.000000 -484.000000 C 634.000000 -484.000000 442.000000 -484.000000 250.000000 -484.000000 C 250.000000 -502.666667 250.000000 -521.333333 250.000000 -540.000000z M 250.000000 -294.000000 C 442.000000 -294.000000 634.000000 -294.000000 826.000000 -294.000000 C 826.000000 -275.333333 826.000000 -256.666667 826.000000 -238.000000 C 634.000000 -238.000000 442.000000 -238.000000 250.000000 -238.000000 C 250.000000 -256.666667 250.000000 -275.333333 250.000000 -294.000000z M 267.000000 -1302.000000 C 284.333333 -1306.333333 301.666667 -1310.666667 319.000000 -1315.000000 C 339.000000 -1271.666667 357.666667 -1224.000000 375.000000 -1172.000000 C 392.333333 -1120.000000 404.333333 -1075.666667 411.000000 -1039.000000 C 392.333333 -1033.666667 373.666667 -1028.333333 355.000000 -1023.000000 C 350.333333 -1060.333333 339.666667 -1105.000000 323.000000 -1157.000000 C 306.333333 -1209.666667 287.666667 -1258.000000 267.000000 -1302.000000z M 758.000000 -1321.000000 C 776.666667 -1313.333333 795.333333 -1305.666667 814.000000 -1298.000000 C 796.000000 -1250.666667 776.666667 -1201.333333 756.000000 -1150.000000 C 736.000000 -1098.666667 717.000000 -1054.000000 699.000000 -1016.000000 C 683.000000 -1023.000000 667.000000 -1030.000000 651.000000 -1037.000000 C 669.000000 -1075.000000 688.333333 -1121.666667 709.000000 -1177.000000 C 730.333333 -1232.333333 746.666667 -1280.333333 758.000000 -1321.000000z M 215.000000 -776.000000 C 419.333333 -776.000000 623.666667 -776.000000 828.000000 -776.000000 C 828.000000 -757.333333 828.000000 -738.666667 828.000000 -720.000000 C 642.333333 -720.000000 456.666667 -720.000000 271.000000 -720.000000 C 271.000000 -436.000000 271.000000 -152.000000 271.000000 132.000000 C 252.333333 132.000000 233.666667 132.000000 215.000000 132.000000 C 215.000000 -170.666667 215.000000 -473.333333 215.000000 -776.000000z M 803.000000 -776.000000 C 821.333333 -776.000000 839.666667 -776.000000 858.000000 -776.000000 C 858.000000 -502.000000 858.000000 -228.000000 858.000000 46.000000 C 858.000000 68.000000 855.000000 85.000000 849.000000 97.000000 C 843.666667 109.000000 832.000000 118.333333 814.000000 125.000000 C 794.666667 129.666667 767.000000 132.333333 731.000000 133.000000 C 695.666667 133.666667 650.333333 134.000000 595.000000 134.000000 C 593.666667 126.666667 590.333333 117.000000 585.000000 105.000000 C 580.333333 93.666667 575.333333 83.666667 570.000000 75.000000 C 621.333333 76.333333 664.666667 77.333333 700.000000 78.000000 C 735.333333 78.666667 759.333333 78.333333 772.000000 77.000000 C 784.666667 75.666667 793.000000 73.000000 797.000000 69.000000 C 801.000000 65.000000 803.000000 57.333333 803.000000 46.000000 C 803.000000 -228.000000 803.000000 -502.000000 803.000000 -776.000000z M 1114.000000 -1421.000000 C 1346.333333 -1421.000000 1578.666667 -1421.000000 1811.000000 -1421.000000 C 1811.000000 -1402.333333 1811.000000 -1383.666667 1811.000000 -1365.000000 C 1578.666667 -1365.000000 1346.333333 -1365.000000 1114.000000 -1365.000000 C 1114.000000 -1383.666667 1114.000000 -1402.333333 1114.000000 -1421.000000z M 1116.000000 -641.000000 C 1320.000000 -641.000000 1524.000000 -641.000000 1728.000000 -641.000000 C 1728.000000 -622.666667 1728.000000 -604.333333 1728.000000 -586.000000 C 1524.000000 -586.000000 1320.000000 -586.000000 1116.000000 -586.000000 C 1116.000000 -604.333333 1116.000000 -622.666667 1116.000000 -641.000000z M 1114.000000 -428.000000 C 1314.666667 -428.000000 1515.333333 -428.000000 1716.000000 -428.000000 C 1716.000000 -409.000000 1716.000000 -390.000000 1716.000000 -371.000000 C 1515.333333 -371.000000 1314.666667 -371.000000 1114.000000 -371.000000 C 1114.000000 -390.000000 1114.000000 -409.000000 1114.000000 -428.000000z M 1116.000000 -202.000000 C 1322.666667 -202.000000 1529.333333 -202.000000 1736.000000 -202.000000 C 1736.000000 -183.333333 1736.000000 -164.666667 1736.000000 -146.000000 C 1529.333333 -146.000000 1322.666667 -146.000000 1116.000000 -146.000000 C 1116.000000 -164.666667 1116.000000 -183.333333 1116.000000 -202.000000z M 1087.000000 -1596.000000 C 1105.333333 -1596.000000 1123.666667 -1596.000000 1142.000000 -1596.000000 C 1142.000000 -1440.333333 1142.000000 -1284.666667 1142.000000 -1129.000000 C 1123.666667 -1129.000000 1105.333333 -1129.000000 1087.000000 -1129.000000 C 1087.000000 -1284.666667 1087.000000 -1440.333333 1087.000000 -1596.000000z M 1087.000000 -1158.000000 C 1302.000000 -1158.000000 1517.000000 -1158.000000 1732.000000 -1158.000000 C 1732.000000 -1040.000000 1732.000000 -922.000000 1732.000000 -804.000000 C 1517.000000 -804.000000 1302.000000 -804.000000 1087.000000 -804.000000 C 1087.000000 -822.666667 1087.000000 -841.333333 1087.000000 -860.000000 C 1282.666667 -860.000000 1478.333333 -860.000000 1674.000000 -860.000000 C 1674.000000 -940.000000 1674.000000 -1020.000000 1674.000000 -1100.000000 C 1478.333333 -1100.000000 1282.666667 -1100.000000 1087.000000 -1100.000000 C 1087.000000 -1119.333333 1087.000000 -1138.666667 1087.000000 -1158.000000z M 1087.000000 -820.000000 C 1105.333333 -820.000000 1123.666667 -820.000000 1142.000000 -820.000000 C 1142.000000 -547.333333 1142.000000 -274.666667 1142.000000 -2.000000 C 1142.000000 24.666667 1149.333333 42.666667 1164.000000 52.000000 C 1179.333333 62.000000 1213.666667 67.000000 1267.000000 67.000000 C 1279.666667 67.000000 1305.000000 67.000000 1343.000000 67.000000 C 1381.000000 67.000000 1423.333333 67.000000 1470.000000 67.000000 C 1516.666667 67.000000 1560.333333 67.000000 1601.000000 67.000000 C 1642.333333 67.000000 1671.333333 67.000000 1688.000000 67.000000 C 1712.000000 67.000000 1730.333333 62.666667 1743.000000 54.000000 C 1756.333333 46.000000 1765.333333 30.000000 1770.000000 6.000000 C 1775.333333 -17.333333 1778.666667 -52.000000 1780.000000 -98.000000 C 1787.333333 -92.666667 1796.333333 -87.666667 1807.000000 -83.000000 C 1818.333333 -79.000000 1828.333333 -75.666667 1837.000000 -73.000000 C 1835.000000 -21.666667 1829.666667 18.333333 1821.000000 47.000000 C 1813.000000 75.666667 1798.666667 95.666667 1778.000000 107.000000 C 1757.333333 119.000000 1727.333333 125.000000 1688.000000 125.000000 C 1681.333333 125.000000 1664.000000 125.000000 1636.000000 125.000000 C 1608.000000 125.000000 1575.000000 125.000000 1537.000000 125.000000 C 1499.000000 125.000000 1460.666667 125.000000 1422.000000 125.000000 C 1384.000000 125.000000 1351.333333 125.000000 1324.000000 125.000000 C 1296.666667 125.000000 1279.666667 125.000000 1273.000000 125.000000 C 1224.333333 125.000000 1186.333333 121.666667 1159.000000 115.000000 C 1132.333333 109.000000 1113.666667 96.666667 1103.000000 78.000000 C 1092.333333 59.333333 1087.000000 32.000000 1087.000000 -4.000000 C 1087.000000 -276.000000 1087.000000 -548.000000 1087.000000 -820.000000z "/>
</g></svg>
