<?xml version="1.0" encoding="utf-8"?>
<svg xmlns="http://www.w3.org/2000/svg" xmlns:ev="http://www.w3.org/2001/xml-events" xmlns:xlink="http://www.w3.org/1999/xlink" version="1.1" baseProfile="full" width="1557.0" height="1575.0" viewBox="156.0 -1500.0 1557.0 1575.0">
<defs/>
<g><path d="M 1119.000000 -1215.000000 C 1092.333333 -1242.333333 1062.333333 -1271.000000 1029.000000 -1301.000000 C 995.666667 -1331.000000 961.666667 -1360.333333 927.000000 -1389.000000 C 893.000000 -1417.666667 861.000000 -1443.000000 831.000000 -1465.000000 C 845.333333 -1476.666667 859.666667 -1488.333333 874.000000 -1500.000000 C 894.000000 -1485.333333 921.333333 -1464.000000 956.000000 -1436.000000 C 990.666667 -1408.000000 1026.333333 -1378.000000 1063.000000 -1346.000000 C 1100.333333 -1314.000000 1132.000000 -1284.666667 1158.000000 -1258.000000 C 1145.000000 -1243.666667 1132.000000 -1229.333333 1119.000000 -1215.000000z M 420.000000 -1342.000000 C 425.333333 -1333.333333 431.000000 -1322.666667 437.000000 -1310.000000 C 443.666667 -1298.000000 450.666667 -1285.333333 458.000000 -1272.000000 C 466.000000 -1258.666667 473.333333 -1246.333333 480.000000 -1235.000000 C 514.666667 -1173.000000 555.000000 -1096.333333 601.000000 -1005.000000 C 647.000000 -913.666667 691.666667 -820.666667 735.000000 -726.000000 C 765.000000 -659.333333 793.333333 -590.666667 820.000000 -520.000000 C 846.666667 -450.000000 871.333333 -381.000000 894.000000 -313.000000 C 917.333333 -245.000000 939.333333 -180.000000 960.000000 -118.000000 C 980.666667 -56.000000 999.333333 1.333333 1016.000000 54.000000 C 994.000000 61.000000 972.000000 68.000000 950.000000 75.000000 C 931.333333 3.000000 908.666667 -75.666667 882.000000 -161.000000 C 856.000000 -247.000000 827.000000 -336.000000 795.000000 -428.000000 C 763.000000 -520.000000 726.333333 -611.666667 685.000000 -703.000000 C 651.000000 -777.000000 617.666667 -847.333333 585.000000 -914.000000 C 552.333333 -980.666667 522.666667 -1039.000000 496.000000 -1089.000000 C 470.000000 -1139.666667 448.000000 -1178.666667 430.000000 -1206.000000 C 421.333333 -1221.333333 409.666667 -1239.333333 395.000000 -1260.000000 C 381.000000 -1281.333333 368.333333 -1299.000000 357.000000 -1313.000000 C 378.000000 -1322.666667 399.000000 -1332.333333 420.000000 -1342.000000z M 156.000000 -783.000000 C 173.333333 -788.333333 193.666667 -794.666667 217.000000 -802.000000 C 241.000000 -810.000000 262.000000 -818.000000 280.000000 -826.000000 C 316.000000 -840.000000 365.000000 -861.000000 427.000000 -889.000000 C 489.000000 -917.000000 558.000000 -948.333333 634.000000 -983.000000 C 710.666667 -1017.666667 790.000000 -1051.000000 872.000000 -1083.000000 C 954.666667 -1115.000000 1035.666667 -1141.000000 1115.000000 -1161.000000 C 1195.000000 -1181.666667 1267.333333 -1192.000000 1332.000000 -1192.000000 C 1412.000000 -1192.000000 1480.000000 -1179.333333 1536.000000 -1154.000000 C 1592.000000 -1128.666667 1635.333333 -1092.000000 1666.000000 -1044.000000 C 1697.333333 -996.666667 1713.000000 -940.666667 1713.000000 -876.000000 C 1713.000000 -818.000000 1700.333333 -763.000000 1675.000000 -711.000000 C 1650.333333 -659.666667 1608.666667 -617.666667 1550.000000 -585.000000 C 1492.000000 -552.333333 1411.666667 -536.000000 1309.000000 -536.000000 C 1254.333333 -536.000000 1203.333333 -541.666667 1156.000000 -553.000000 C 1108.666667 -564.333333 1067.000000 -576.333333 1031.000000 -589.000000 C 1031.666667 -609.666667 1032.333333 -630.333333 1033.000000 -651.000000 C 1065.000000 -635.666667 1104.666667 -621.333333 1152.000000 -608.000000 C 1199.333333 -595.333333 1253.000000 -589.000000 1313.000000 -589.000000 C 1405.666667 -589.000000 1476.666667 -603.666667 1526.000000 -633.000000 C 1576.000000 -663.000000 1610.666667 -700.333333 1630.000000 -745.000000 C 1649.333333 -789.666667 1659.000000 -834.333333 1659.000000 -879.000000 C 1659.000000 -923.000000 1647.666667 -964.666667 1625.000000 -1004.000000 C 1603.000000 -1044.000000 1568.000000 -1076.333333 1520.000000 -1101.000000 C 1472.000000 -1126.333333 1409.000000 -1139.000000 1331.000000 -1139.000000 C 1264.333333 -1139.000000 1190.666667 -1127.666667 1110.000000 -1105.000000 C 1029.333333 -1082.333333 945.333333 -1053.666667 858.000000 -1019.000000 C 771.333333 -985.000000 686.333333 -948.333333 603.000000 -909.000000 C 519.666667 -870.333333 442.333333 -833.666667 371.000000 -799.000000 C 300.333333 -764.333333 240.666667 -736.000000 192.000000 -714.000000 C 180.000000 -737.000000 168.000000 -760.000000 156.000000 -783.000000z "/>
</g>
</svg>
