<?xml version="1.0" encoding="utf-8"?>
<svg xmlns="http://www.w3.org/2000/svg" xmlns:ev="http://www.w3.org/2001/xml-events" xmlns:xlink="http://www.w3.org/1999/xlink" version="1.1" baseProfile="full" width="16896.0" height="1920.0" viewBox="192.0 -1690.0 16896.0 1920.0">
<defs/>
<g><path d="M 11712.000000 230.000000 C 11712.000000 -410.000000 11712.000000 -1050.000000 11712.000000 -1690.000000 C 12224.000000 -1690.000000 12736.000000 -1690.000000 13248.000000 -1690.000000 C 13248.000000 -1050.000000 13248.000000 -410.000000 13248.000000 230.000000 C 12736.000000 230.000000 12224.000000 230.000000 11712.000000 230.000000z M 12480.000000 -808.000000 C 12683.666667 -1070.000000 12887.333333 -1332.000000 13091.000000 -1594.000000 C 12683.666667 -1594.000000 12276.333333 -1594.000000 11869.000000 -1594.000000 C 12072.666667 -1332.000000 12276.333333 -1070.000000 12480.000000 -808.000000z M 12541.000000 -730.000000 C 12744.666667 -468.000000 12948.333333 -206.000000 13152.000000 56.000000 C 13152.000000 -467.666667 13152.000000 -991.333333 13152.000000 -1515.000000 C 12948.333333 -1253.333333 12744.666667 -991.666667 12541.000000 -730.000000z M 11869.000000 134.000000 C 12276.333333 134.000000 12683.666667 134.000000 13091.000000 134.000000 C 12887.333333 -127.666667 12683.666667 -389.333333 12480.000000 -651.000000 C 12276.333333 -389.333333 12072.666667 -127.666667 11869.000000 134.000000z M 11808.000000 -1515.000000 C 11808.000000 -991.333333 11808.000000 -467.666667 11808.000000 56.000000 C 12011.666667 -206.000000 12215.333333 -468.000000 12419.000000 -730.000000 C 12215.333333 -991.666667 12011.666667 -1253.333333 11808.000000 -1515.000000z "/>
</g></svg>
