<?xml version="1.0" ?>
<svg xmlns="http://www.w3.org/2000/svg" version="1.1" width="600" height="600">
  <defs/>
  <g>
    <path stroke-width="0" fill="rgb(0, 0, 0)" opacity="1.0" d="M 261.8583984375 177.04586791992188 C 333.07177734375 177.04586791992188 404.28515625 177.04586791992188 475.4990234375 177.04586791992188 C 475.4990234375 180.83029174804688 475.4990234375 184.61468505859375 475.4990234375 188.39907836914062 C 404.28515625 188.39907836914062 333.07177734375 188.39907836914062 261.8583984375 188.39907836914062 C 261.8583984375 184.61468505859375 261.8583984375 180.83029174804688 261.8583984375 177.04586791992188M 269.90869140625 234.43121337890625 C 326.53515625 234.43121337890625 383.16259765625 234.43121337890625 439.7890625 234.43121337890625 C 439.7890625 238.28439331054688 439.7890625 242.13763427734375 439.7890625 245.9908447265625 C 383.16259765625 245.9908447265625 326.53515625 245.9908447265625 269.90869140625 245.9908447265625 C 269.90869140625 242.13763427734375 269.90869140625 238.28439331054688 269.90869140625 234.43121337890625M 210.8740234375 320.0963134765625 C 301.3525390625 320.0963134765625 391.83203125 320.0963134765625 482.310546875 320.0963134765625 C 482.310546875 323.8807373046875 482.310546875 327.6651611328125 482.310546875 331.44952392578125 C 391.83203125 331.44952392578125 301.3525390625 331.44952392578125 210.8740234375 331.44952392578125 C 210.8740234375 327.6651611328125 210.8740234375 323.8807373046875 210.8740234375 320.0963134765625M 242.8681640625 411.541259765625 C 322.27001953125 411.541259765625 401.67041015625 411.541259765625 481.072265625 411.541259765625 C 481.072265625 415.39453125 481.072265625 419.2476806640625 481.072265625 423.1009521484375 C 401.67041015625 423.1009521484375 322.27001953125 423.1009521484375 242.8681640625 423.1009521484375 C 242.8681640625 419.2476806640625 242.8681640625 415.39453125 242.8681640625 411.541259765625M 279.40380859375 122.55047607421875 C 283.4638671875 123.51376342773438 287.5224609375 124.47708129882812 291.58251953125 125.44036865234375 C 283.4638671875 150.761474609375 273.27978515625 174.912841796875 261.03271484375 197.89450073242188 C 248.9228515625 220.87615966796875 235.85009765625 240.41741943359375 221.81396484375 256.51837158203125 C 221.1259765625 255.83026123046875 220.09423828125 255.07339477539062 218.7177734375 254.24771118164062 C 217.34130859375 253.42202758789062 215.896484375 252.5963134765625 214.3828125 251.7706298828125 C 213.00634765625 250.80734252929688 211.69970703125 250.05047607421875 210.4609375 249.5 C 225.18505859375 233.94952392578125 238.46484375 214.95870971679688 250.29931640625 192.52752685546875 C 262.271484375 169.95870971679688 271.97314453125 146.63302612304688 279.40380859375 122.55047607421875M 263.9228515625 234.43121337890625 C 267.70654296875 234.43121337890625 271.49169921875 234.43121337890625 275.275390625 234.43121337890625 C 273.486328125 250.25689697265625 271.28515625 267.52752685546875 268.67041015625 286.24310302734375 C 266.05517578125 304.82110595703125 263.23486328125 323.53668212890625 260.20703125 342.389892578125 C 257.3173828125 361.2431640625 254.49609375 379.133056640625 251.744140625 396.05963134765625 C 248.9921875 412.9862060546875 246.44580078125 427.77978515625 244.10693359375 440.44036865234375 C 240.1162109375 439.82110595703125 236.125 439.20184326171875 232.134765625 438.58258056640625 C 234.74951171875 425.9219970703125 237.50146484375 411.12841796875 240.39111328125 394.20184326171875 C 243.4189453125 377.2752685546875 246.37744140625 359.4541015625 249.26708984375 340.738525390625 C 252.1572265625 321.88531494140625 254.84033203125 303.3073425292969 257.3173828125 285.00457763671875 C 259.79443359375 266.564208984375 261.99658203125 249.7064208984375 263.9228515625 234.43121337890625M 346.28271484375 240.83026123046875 C 349.998046875 240.83026123046875 353.71337890625 240.83026123046875 357.42919921875 240.83026123046875 C 356.052734375 254.45413208007812 354.5390625 269.2477111816406 352.8876953125 285.21099853515625 C 351.37451171875 301.03668212890625 349.72314453125 317.0 347.93408203125 333.1009521484375 C 346.28271484375 349.20184326171875 344.4931640625 364.47705078125 342.56689453125 378.9266357421875 C 340.77783203125 393.238525390625 339.12646484375 405.83026123046875 337.61328125 416.70184326171875 C 333.8974609375 416.70184326171875 330.18212890625 416.70184326171875 326.466796875 416.70184326171875 C 328.1181640625 405.83026123046875 329.837890625 393.1009521484375 331.626953125 378.5137939453125 C 333.55322265625 363.78900146484375 335.4111328125 348.37615966796875 337.2001953125 332.2752685546875 C 338.9892578125 316.17431640625 340.640625 300.2798156738281 342.154296875 284.59173583984375 C 343.8056640625 268.9036865234375 345.18212890625 254.3165283203125 346.28271484375 240.83026123046875M 435.04150390625 234.43121337890625 C 438.89453125 234.43121337890625 442.7470703125 234.43121337890625 446.6005859375 234.43121337890625 C 446.6005859375 234.43121337890625 446.6005859375 235.05047607421875 446.6005859375 236.28900146484375 C 446.6005859375 237.38992309570312 446.6005859375 238.62844848632812 446.6005859375 240.00457763671875 C 446.6005859375 241.24310302734375 446.6005859375 242.27523803710938 446.6005859375 243.10092163085938 C 444.94921875 282.73394775390625 443.2294921875 316.17431640625 441.4404296875 343.4219970703125 C 439.7890625 370.66973876953125 437.99951171875 392.89453125 436.0732421875 410.0963134765625 C 434.14697265625 427.1605224609375 431.80712890625 440.37158203125 429.05517578125 449.7293701171875 C 426.4404296875 458.9495849609375 423.41357421875 465.4862060546875 419.97314453125 469.3394775390625 C 417.0830078125 473.0550537109375 413.7802734375 475.6009521484375 410.06494140625 476.97705078125 C 406.349609375 478.35321044921875 401.876953125 479.041259765625 396.64794921875 479.041259765625 C 391.1435546875 479.17889404296875 383.78173828125 479.110107421875 374.5615234375 478.8348388671875 C 365.47900390625 478.697265625 355.91552734375 478.35321044921875 345.86962890625 477.802734375 C 345.5947265625 475.6009521484375 345.25048828125 473.4678955078125 344.837890625 471.4036865234375 C 344.5625 469.3394775390625 343.73681640625 467.481689453125 342.36083984375 465.83026123046875 C 353.919921875 466.93115234375 364.515625 467.5504150390625 374.14892578125 467.6881103515625 C 383.9189453125 467.82568359375 390.73046875 467.89453125 394.583984375 467.89453125 C 398.29931640625 467.89453125 401.2578125 467.6192626953125 403.4599609375 467.06884765625 C 405.798828125 466.518310546875 407.86279296875 465.0733642578125 409.65234375 462.73394775390625 C 412.81689453125 459.56884765625 415.56982421875 453.37615966796875 417.90869140625 444.156005859375 C 420.3857421875 434.79815673828125 422.587890625 421.518310546875 424.51416015625 404.3165283203125 C 426.578125 386.97705078125 428.43603515625 364.61468505859375 430.08740234375 337.2293701171875 C 431.87646484375 309.84405517578125 433.52783203125 276.610107421875 435.04150390625 237.52752685546875 C 435.04150390625 236.49542236328125 435.04150390625 235.46331787109375 435.04150390625 234.43121337890625M 139.041015625 136.587158203125 C 141.51806640625 133.76605224609375 143.9951171875 130.9449462890625 146.47216796875 128.12387084960938 C 154.72900390625 132.389892578125 163.123046875 137.27523803710938 171.65478515625 142.77981567382812 C 180.32421875 148.14678955078125 188.23681640625 153.58258056640625 195.392578125 159.087158203125 C 202.685546875 164.59173583984375 208.603515625 169.88992309570312 213.14453125 174.98165893554688 C 210.73583984375 178.14678955078125 208.328125 181.31192016601562 205.919921875 184.47708129882812 C 201.24072265625 179.52294921875 195.18603515625 174.15597534179688 187.75537109375 168.37615966796875 C 180.32421875 162.458740234375 172.412109375 156.74771118164062 164.017578125 151.24313354492188 C 155.623046875 145.60092163085938 147.2978515625 140.71560668945312 139.041015625 136.587158203125M 118.8125 242.27523803710938 C 121.220703125 239.38531494140625 123.62890625 236.49542236328125 126.037109375 233.60552978515625 C 134.431640625 237.32110595703125 142.962890625 241.65594482421875 151.63232421875 246.610107421875 C 160.43994140625 251.42660522460938 168.55859375 256.51837158203125 175.98974609375 261.88531494140625 C 183.55859375 267.11468505859375 189.7509765625 271.93121337890625 194.56689453125 276.3348693847656 C 192.29638671875 279.5688171386719 190.02587890625 282.802734375 187.75537109375 286.03668212890625 C 183.076171875 281.2201843261719 176.8837890625 276.197265625 169.177734375 270.9678955078125 C 161.47216796875 265.6009216308594 153.28369140625 260.44036865234375 144.6142578125 255.48623657226562 C 135.94482421875 250.39450073242188 127.34423828125 245.9908447265625 118.8125 242.27523803710938M 129.958984375 465.83026123046875 C 136.2890625 455.5091552734375 143.23779296875 443.12384033203125 150.806640625 428.67431640625 C 158.5126953125 414.087158203125 166.2880859375 398.74310302734375 174.1318359375 382.6422119140625 C 181.9755859375 366.541259765625 189.0625 351.197265625 195.392578125 336.610107421875 C 198.5576171875 339.01837158203125 201.72314453125 341.4266357421875 204.8876953125 343.8348388671875 C 198.8330078125 357.5963134765625 192.021484375 372.32110595703125 184.45263671875 388.0091552734375 C 176.8837890625 403.697265625 169.24658203125 419.041259765625 161.54052734375 434.041259765625 C 153.9716796875 448.9036865234375 146.7470703125 462.1834716796875 139.86669921875 473.8807373046875 C 136.56396484375 471.197265625 133.26171875 468.5137939453125 129.958984375 465.83026123046875"/>
  </g>
</svg>
