<?xml version="1.0" encoding="utf-8"?>
<svg xmlns="http://www.w3.org/2000/svg" xmlns:ev="http://www.w3.org/2001/xml-events" xmlns:xlink="http://www.w3.org/1999/xlink" version="1.1" baseProfile="full" width="20903.0" height="1740.0" viewBox="106.0 -1596.0 20903.0 1740.0">
<defs/>
<g><path d="M 7309.000000 -1350.000000 C 7309.000000 -1310.000000 7322.666667 -1276.333333 7350.000000 -1249.000000 C 7378.000000 -1221.666667 7412.000000 -1208.000000 7452.000000 -1208.000000 C 7491.333333 -1208.000000 7525.000000 -1221.666667 7553.000000 -1249.000000 C 7581.666667 -1276.333333 7596.000000 -1310.000000 7596.000000 -1350.000000 C 7596.000000 -1389.333333 7581.666667 -1423.000000 7553.000000 -1451.000000 C 7525.000000 -1479.666667 7491.333333 -1494.000000 7452.000000 -1494.000000 C 7412.000000 -1494.000000 7378.000000 -1479.666667 7350.000000 -1451.000000 C 7322.666667 -1423.000000 7309.000000 -1389.333333 7309.000000 -1350.000000z M 7252.000000 -1350.000000 C 7252.000000 -1386.666667 7261.000000 -1420.333333 7279.000000 -1451.000000 C 7297.000000 -1482.333333 7321.000000 -1506.666667 7351.000000 -1524.000000 C 7381.000000 -1542.000000 7414.666667 -1551.000000 7452.000000 -1551.000000 C 7488.666667 -1551.000000 7522.333333 -1542.000000 7553.000000 -1524.000000 C 7583.666667 -1506.666667 7608.000000 -1482.333333 7626.000000 -1451.000000 C 7644.000000 -1420.333333 7653.000000 -1386.666667 7653.000000 -1350.000000 C 7653.000000 -1312.666667 7644.000000 -1279.000000 7626.000000 -1249.000000 C 7608.000000 -1219.000000 7583.666667 -1195.000000 7553.000000 -1177.000000 C 7522.333333 -1159.000000 7488.666667 -1150.000000 7452.000000 -1150.000000 C 7414.666667 -1150.000000 7381.000000 -1159.000000 7351.000000 -1177.000000 C 7321.000000 -1195.000000 7297.000000 -1219.000000 7279.000000 -1249.000000 C 7261.000000 -1279.000000 7252.000000 -1312.666667 7252.000000 -1350.000000z M 7352.000000 -1244.000000 C 7348.000000 -1235.333333 7345.000000 -1227.666667 7343.000000 -1221.000000 C 7341.000000 -1215.000000 7338.666667 -1203.000000 7336.000000 -1185.000000 C 7327.333333 -1131.000000 7314.333333 -1072.000000 7297.000000 -1008.000000 C 7279.666667 -944.000000 7258.666667 -879.000000 7234.000000 -813.000000 C 7210.000000 -747.000000 7182.666667 -684.333333 7152.000000 -625.000000 C 7121.333333 -565.666667 7088.000000 -513.333333 7052.000000 -468.000000 C 6993.333333 -395.333333 6930.000000 -328.333333 6862.000000 -267.000000 C 6794.000000 -205.666667 6715.333333 -150.333333 6626.000000 -101.000000 C 6537.333333 -51.666667 6433.000000 -8.333333 6313.000000 29.000000 C 6295.666667 9.666667 6278.333333 -9.666667 6261.000000 -29.000000 C 6383.000000 -62.333333 6489.000000 -102.000000 6579.000000 -148.000000 C 6669.000000 -194.000000 6749.000000 -246.666667 6819.000000 -306.000000 C 6889.000000 -366.000000 6951.333333 -431.666667 7006.000000 -503.000000 C 7054.666667 -565.666667 7097.666667 -639.333333 7135.000000 -724.000000 C 7173.000000 -808.666667 7204.666667 -894.000000 7230.000000 -980.000000 C 7256.000000 -1066.666667 7273.666667 -1144.000000 7283.000000 -1212.000000 C 7265.000000 -1212.000000 7228.333333 -1212.000000 7173.000000 -1212.000000 C 7118.333333 -1212.000000 7052.666667 -1212.000000 6976.000000 -1212.000000 C 6900.000000 -1212.000000 6820.333333 -1212.000000 6737.000000 -1212.000000 C 6653.666667 -1212.000000 6574.666667 -1212.000000 6500.000000 -1212.000000 C 6425.333333 -1212.000000 6362.000000 -1212.000000 6310.000000 -1212.000000 C 6258.000000 -1212.000000 6225.666667 -1212.000000 6213.000000 -1212.000000 C 6181.000000 -1212.000000 6153.333333 -1211.666667 6130.000000 -1211.000000 C 6107.333333 -1210.333333 6084.000000 -1209.333333 6060.000000 -1208.000000 C 6060.000000 -1231.000000 6060.000000 -1254.000000 6060.000000 -1277.000000 C 6076.000000 -1275.666667 6091.666667 -1274.000000 6107.000000 -1272.000000 C 6123.000000 -1270.000000 6139.666667 -1268.666667 6157.000000 -1268.000000 C 6175.000000 -1267.333333 6194.333333 -1267.000000 6215.000000 -1267.000000 C 6225.000000 -1267.000000 6250.000000 -1267.000000 6290.000000 -1267.000000 C 6330.666667 -1267.000000 6380.666667 -1267.000000 6440.000000 -1267.000000 C 6500.000000 -1267.000000 6564.333333 -1267.000000 6633.000000 -1267.000000 C 6702.333333 -1267.000000 6771.333333 -1267.000000 6840.000000 -1267.000000 C 6908.666667 -1267.000000 6972.333333 -1267.000000 7031.000000 -1267.000000 C 7089.666667 -1267.000000 7138.666667 -1267.000000 7178.000000 -1267.000000 C 7218.000000 -1267.000000 7242.666667 -1267.000000 7252.000000 -1267.000000 C 7262.000000 -1267.000000 7271.000000 -1267.333333 7279.000000 -1268.000000 C 7287.666667 -1268.666667 7297.333333 -1270.333333 7308.000000 -1273.000000 C 7322.666667 -1263.333333 7337.333333 -1253.666667 7352.000000 -1244.000000z "/>
</g></svg>
