<?xml version="1.0" ?>
<svg xmlns="http://www.w3.org/2000/svg" version="1.1" width="600" height="600">
  <defs/>
  <g>
    <path stroke-width="0" fill="rgb(0, 0, 0)" opacity="1.0" d="M 312.54754638671875 438.137939453125 C 313.09918212890625 435.6551513671875 313.58184814453125 433.10345458984375 313.99554443359375 430.4827880859375 C 314.40924072265625 427.862060546875 314.61614990234375 425.24139404296875 314.61614990234375 422.6207275390625 C 314.61614990234375 420.413818359375 314.61614990234375 414.689697265625 314.61614990234375 405.4482421875 C 314.61614990234375 396.2069091796875 314.61614990234375 384.6207275390625 314.61614990234375 370.68963623046875 C 314.61614990234375 356.75860595703125 314.61614990234375 341.72412109375 314.61614990234375 325.586181640625 C 314.61614990234375 309.4482421875 314.61614990234375 293.24139404296875 314.61614990234375 276.96551513671875 C 314.61614990234375 260.68963623046875 314.61614990234375 245.586181640625 314.61614990234375 231.6551513671875 C 314.61614990234375 217.72412109375 314.61614990234375 206.0 314.61614990234375 196.48275756835938 C 314.61614990234375 186.96551513671875 314.61614990234375 180.89654541015625 314.61614990234375 178.27584838867188 C 314.61614990234375 172.20687866210938 314.47821044921875 167.24136352539062 314.202392578125 163.37930297851562 C 313.9266357421875 159.51724243164062 313.6507568359375 156.27584838867188 313.375 153.6551513671875 C 318.13275146484375 153.6551513671875 322.89056396484375 153.6551513671875 327.6483154296875 153.6551513671875 C 327.37255859375 156.27584838867188 327.1656494140625 159.51724243164062 327.02777099609375 163.37930297851562 C 327.02777099609375 167.24136352539062 327.02777099609375 172.20687866210938 327.02777099609375 178.27584838867188 C 327.02777099609375 180.89654541015625 327.02777099609375 187.31033325195312 327.02777099609375 197.5172119140625 C 327.02777099609375 207.72412109375 327.02777099609375 220.41375732421875 327.02777099609375 235.586181640625 C 327.02777099609375 250.62066650390625 327.02777099609375 266.89654541015625 327.02777099609375 284.4137878417969 C 327.02777099609375 301.7930908203125 327.02777099609375 318.96551513671875 327.02777099609375 335.9310302734375 C 327.02777099609375 352.89654541015625 327.02777099609375 368.413818359375 327.02777099609375 382.4827880859375 C 327.02777099609375 396.5517578125 327.02777099609375 407.7930908203125 327.02777099609375 416.2069091796875 C 327.02777099609375 424.6207275390625 327.02777099609375 428.82757568359375 327.02777099609375 428.82757568359375 C 340.6805419921875 422.2069091796875 355.71240234375 413.5172119140625 372.123291015625 402.75860595703125 C 388.5341796875 391.862060546875 404.53143310546875 379.17242431640625 420.1148681640625 364.68963623046875 C 435.836181640625 350.0689697265625 449.2822265625 334.27587890625 460.45263671875 317.310302734375 C 462.9349365234375 320.75860595703125 465.417236328125 324.2069091796875 467.899658203125 327.6551513671875 C 456.03955078125 344.3448486328125 442.524658203125 359.72412109375 427.35498046875 373.7930908203125 C 412.3231201171875 387.72412109375 396.60174560546875 400.2069091796875 380.19085693359375 411.24139404296875 C 363.7799072265625 422.27587890625 347.64483642578125 431.586181640625 331.7855224609375 439.17242431640625 C 329.30322265625 440.27587890625 327.1656494140625 441.4482421875 325.37286376953125 442.689697265625 C 323.71795654296875 443.7930908203125 322.40789794921875 444.75860595703125 321.4425048828125 445.586181640625 C 318.4775390625 443.10345458984375 315.51251220703125 440.6207275390625 312.54754638671875 438.137939453125M 132.78594970703125 440.0 C 148.645263671875 428.413818359375 162.7117919921875 414.2069091796875 174.9854736328125 397.3792724609375 C 187.2591552734375 380.5517578125 196.705810546875 361.3792724609375 203.3253173828125 339.862060546875 C 206.3592529296875 330.0689697265625 208.70367431640625 318.137939453125 210.3585205078125 304.0689697265625 C 212.013427734375 289.862060546875 213.1856689453125 274.96551513671875 213.87518310546875 259.3793029785156 C 214.564697265625 243.6551513671875 214.9783935546875 228.62069702148438 215.1163330078125 214.27584838867188 C 215.2542724609375 199.7930908203125 215.32318115234375 187.37930297851562 215.32318115234375 177.03448486328125 C 215.32318115234375 173.31033325195312 215.185302734375 169.72412109375 214.90948486328125 166.27584838867188 C 214.6336669921875 162.82757568359375 214.219970703125 159.37930297851562 213.6683349609375 155.9310302734375 C 218.56402587890625 155.9310302734375 223.459716796875 155.9310302734375 228.35540771484375 155.9310302734375 C 228.07958984375 158.41378784179688 227.87274169921875 160.82757568359375 227.73480224609375 163.17239379882812 C 227.73480224609375 165.51724243164062 227.6658935546875 167.862060546875 227.5279541015625 170.20687866210938 C 227.3900146484375 172.41378784179688 227.32110595703125 174.68963623046875 227.32110595703125 177.03448486328125 C 227.32110595703125 187.37930297851562 227.18316650390625 199.9310302734375 226.90740966796875 214.68963623046875 C 226.631591796875 229.31033325195312 226.010986328125 244.75860595703125 225.045654296875 261.03448486328125 C 224.08026123046875 277.31036376953125 222.77020263671875 292.75860595703125 221.11529541015625 307.3792724609375 C 219.59832763671875 322.0 217.39178466796875 334.2069091796875 214.49578857421875 344.0 C 208.70367431640625 364.0 199.601806640625 383.17242431640625 187.190185546875 401.5172119140625 C 174.91650390625 419.72412109375 160.57421875 435.24139404296875 144.16326904296875 448.0689697265625 C 140.370849609375 445.3792724609375 136.578369140625 442.689697265625 132.78594970703125 440.0"/>
  </g>
</svg>
