<?xml version="1.0" ?>
<svg xmlns="http://www.w3.org/2000/svg" version="1.1" width="600" height="600">
  <defs/>
  <g>
    <path stroke-width="0" fill="rgb(0, 0, 0)" opacity="1.0" d="M 156.0 480.125 C 156.0 360.125 156.0 240.125 156.0 120.125 C 252.0 120.125 348.0 120.125 444.0 120.125 C 444.0 240.125 444.0 360.125 444.0 480.125 C 348.0 480.125 252.0 480.125 156.0 480.125M 300.0 285.5 C 338.1875 236.375 376.375 187.25 414.5625 138.125 C 338.1875 138.125 261.8125 138.125 185.4375 138.125 C 223.625 187.25 261.8125 236.375 300.0 285.5M 311.4375 300.125 C 349.625 349.25 387.8125 398.375 426.0 447.5 C 426.0 349.3125 426.0 251.125 426.0 152.9375 C 387.8125 202.0 349.625 251.0625 311.4375 300.125M 185.4375 462.125 C 261.8125 462.125 338.1875 462.125 414.5625 462.125 C 376.375 413.0625 338.1875 364.0 300.0 314.9375 C 261.8125 364.0 223.625 413.0625 185.4375 462.125M 174.0 152.9375 C 174.0 251.125 174.0 349.3125 174.0 447.5 C 212.1875 398.375 250.375 349.25 288.5625 300.125 C 250.375 251.0625 212.1875 202.0 174.0 152.9375"/>
  </g>
</svg>
