<?xml version="1.0" encoding="utf-8"?>
<svg xmlns="http://www.w3.org/2000/svg" xmlns:ev="http://www.w3.org/2001/xml-events" xmlns:xlink="http://www.w3.org/1999/xlink" version="1.1" baseProfile="full" width="34199.0" height="1607.0" viewBox="282.0 -1509.0 34199.0 1607.0">
<defs/>
<g><path d="M 27414.000000 -1398.000000 C 27430.666667 -1396.666667 27448.666667 -1395.333333 27468.000000 -1394.000000 C 27488.000000 -1392.666667 27511.000000 -1392.000000 27537.000000 -1392.000000 C 27555.000000 -1392.000000 27584.000000 -1392.666667 27624.000000 -1394.000000 C 27664.000000 -1395.333333 27710.000000 -1397.000000 27762.000000 -1399.000000 C 27814.000000 -1401.000000 27866.333333 -1403.000000 27919.000000 -1405.000000 C 27972.333333 -1407.666667 28020.333333 -1410.333333 28063.000000 -1413.000000 C 28106.333333 -1415.666667 28138.333333 -1418.333333 28159.000000 -1421.000000 C 28173.000000 -1422.333333 28186.666667 -1424.000000 28200.000000 -1426.000000 C 28213.333333 -1428.666667 28224.666667 -1431.333333 28234.000000 -1434.000000 C 28248.000000 -1420.000000 28262.000000 -1406.000000 28276.000000 -1392.000000 C 28270.666667 -1388.000000 28262.333333 -1382.000000 28251.000000 -1374.000000 C 28239.666667 -1366.666667 28230.000000 -1360.000000 28222.000000 -1354.000000 C 28192.666667 -1328.000000 28155.666667 -1296.000000 28111.000000 -1258.000000 C 28066.333333 -1220.666667 28018.000000 -1180.000000 27966.000000 -1136.000000 C 27914.000000 -1092.666667 27861.333333 -1049.000000 27808.000000 -1005.000000 C 27755.333333 -961.000000 27705.000000 -919.333333 27657.000000 -880.000000 C 27609.000000 -841.333333 27567.000000 -808.000000 27531.000000 -780.000000 C 27639.666667 -792.666667 27752.333333 -803.666667 27869.000000 -813.000000 C 27985.666667 -823.000000 28101.333333 -831.000000 28216.000000 -837.000000 C 28331.333333 -843.666667 28442.000000 -847.000000 28548.000000 -847.000000 C 28548.000000 -827.666667 28548.000000 -808.333333 28548.000000 -789.000000 C 28452.000000 -793.000000 28362.000000 -794.000000 28278.000000 -792.000000 C 28194.666667 -790.000000 28124.666667 -784.666667 28068.000000 -776.000000 C 28018.666667 -768.000000 27969.666667 -751.000000 27921.000000 -725.000000 C 27872.333333 -699.666667 27827.333333 -667.333333 27786.000000 -628.000000 C 27745.333333 -589.333333 27712.666667 -546.333333 27688.000000 -499.000000 C 27664.000000 -451.666667 27652.000000 -402.333333 27652.000000 -351.000000 C 27652.000000 -273.000000 27670.333333 -211.333333 27707.000000 -166.000000 C 27744.333333 -120.666667 27791.333333 -86.666667 27848.000000 -64.000000 C 27905.333333 -42.000000 27963.333333 -25.666667 28022.000000 -15.000000 C 28082.666667 -6.333333 28132.666667 -2.666667 28172.000000 -4.000000 C 28212.000000 -5.333333 28248.666667 -7.333333 28282.000000 -10.000000 C 28277.333333 10.000000 28272.666667 30.000000 28268.000000 50.000000 C 28045.333333 58.666667 27878.000000 29.000000 27766.000000 -39.000000 C 27654.000000 -107.666667 27598.000000 -210.000000 27598.000000 -346.000000 C 27598.000000 -416.000000 27615.000000 -479.333333 27649.000000 -536.000000 C 27683.000000 -593.333333 27723.666667 -641.666667 27771.000000 -681.000000 C 27818.333333 -721.000000 27863.000000 -750.000000 27905.000000 -768.000000 C 27789.000000 -758.000000 27659.666667 -745.333333 27517.000000 -730.000000 C 27375.000000 -714.666667 27237.666667 -696.000000 27105.000000 -674.000000 C 27103.000000 -692.666667 27101.000000 -711.333333 27099.000000 -730.000000 C 27151.666667 -736.000000 27207.666667 -742.333333 27267.000000 -749.000000 C 27326.333333 -756.333333 27379.666667 -762.666667 27427.000000 -768.000000 C 27488.333333 -812.666667 27554.333333 -863.333333 27625.000000 -920.000000 C 27696.333333 -977.333333 27766.666667 -1035.333333 27836.000000 -1094.000000 C 27905.333333 -1153.333333 27968.000000 -1207.333333 28024.000000 -1256.000000 C 28080.666667 -1304.666667 28124.333333 -1342.333333 28155.000000 -1369.000000 C 28137.000000 -1367.666667 28107.000000 -1366.000000 28065.000000 -1364.000000 C 28023.666667 -1362.000000 27976.666667 -1359.666667 27924.000000 -1357.000000 C 27872.000000 -1355.000000 27819.666667 -1352.666667 27767.000000 -1350.000000 C 27714.333333 -1347.333333 27667.666667 -1345.000000 27627.000000 -1343.000000 C 27587.000000 -1341.000000 27558.000000 -1339.333333 27540.000000 -1338.000000 C 27514.666667 -1336.666667 27490.666667 -1335.000000 27468.000000 -1333.000000 C 27446.000000 -1331.666667 27429.333333 -1330.333333 27418.000000 -1329.000000 C 27416.666667 -1352.000000 27415.333333 -1375.000000 27414.000000 -1398.000000z "/>
</g></svg>
