<?xml version="1.0" ?>
<svg xmlns="http://www.w3.org/2000/svg" version="1.1" width="600" height="600">
  <defs/>
  <g>
    <path stroke-width="0" fill="rgb(0, 0, 0)" opacity="1.0" d="M 197.0560302734375 276.6994323730469 C 197.0560302734375 321.9942626953125 197.0560302734375 367.2890625 197.0560302734375 412.58380126953125 C 193.1724853515625 412.58380126953125 189.288818359375 412.58380126953125 185.4053955078125 412.58380126953125 C 185.4053955078125 371.17340087890625 185.4053955078125 329.76300048828125 185.4053955078125 288.35260009765625 C 163.69921875 288.35260009765625 141.9930419921875 288.35260009765625 120.286865234375 288.35260009765625 C 120.286865234375 284.46820068359375 120.286865234375 280.58380126953125 120.286865234375 276.6994323730469 C 145.8765869140625 276.6994323730469 171.46630859375 276.6994323730469 197.0560302734375 276.6994323730469M 197.0560302734375 406.96533203125 C 208.42919921875 423.33526611328125 224.17138671875 435.61273193359375 244.282470703125 443.7977294921875 C 264.3936767578125 451.84393310546875 287.6256103515625 456.35260009765625 313.97802734375 457.32373046875 C 324.10302734375 457.6011962890625 336.6551513671875 457.8092041015625 351.634521484375 457.947998046875 C 366.7525634765625 458.086669921875 382.6334228515625 458.086669921875 399.277099609375 457.947998046875 C 415.9208984375 457.8092041015625 431.732421875 457.53179931640625 446.711669921875 457.1156005859375 C 461.8297119140625 456.699462890625 474.5899658203125 456.283203125 484.9923095703125 455.8670654296875 C 484.4375 456.5606689453125 483.8133544921875 457.6705322265625 483.119873046875 459.196533203125 C 482.42626953125 460.7225341796875 481.80224609375 462.24853515625 481.2474365234375 463.7745361328125 C 480.831298828125 465.4393310546875 480.484619140625 466.89599609375 480.2071533203125 468.14453125 C 470.359619140625 468.4219970703125 458.2236328125 468.699462890625 443.799072265625 468.97686767578125 C 429.37451171875 469.25433349609375 414.1177978515625 469.46240234375 398.02880859375 469.6011962890625 C 381.93994140625 469.7398681640625 366.54443359375 469.7398681640625 351.842529296875 469.6011962890625 C 337.279296875 469.46240234375 324.9351806640625 469.25433349609375 314.810302734375 468.97686767578125 C 286.5159912109375 467.8670654296875 262.174560546875 463.0809326171875 241.7860107421875 454.6185302734375 C 221.5361328125 446.2947998046875 204.892333984375 434.017333984375 191.8548583984375 417.7861328125 C 180.620361328125 427.3583984375 169.1083984375 436.9306640625 157.319091796875 446.5029296875 C 145.66845703125 455.9364013671875 134.0872802734375 465.161865234375 122.575439453125 474.17919921875 C 120.078857421875 470.2947998046875 117.582275390625 466.410400390625 115.085693359375 462.5260009765625 C 125.765380859375 455.3121337890625 137.4853515625 446.7109375 150.24560546875 436.7225341796875 C 163.005859375 426.734130859375 175.1417236328125 416.8150634765625 186.6536865234375 406.96533203125 C 190.12109375 406.96533203125 193.588623046875 406.96533203125 197.0560302734375 406.96533203125M 127.776611328125 133.32369995117188 C 130.758544921875 131.17340087890625 133.740478515625 129.02313232421875 136.7225341796875 126.87283325195312 C 145.46044921875 133.1156005859375 154.198486328125 140.2601318359375 162.9364013671875 148.30636596679688 C 171.81298828125 156.2138671875 179.71875 164.19076538085938 186.6536865234375 172.23699951171875 C 193.727294921875 180.14450073242188 199.275146484375 187.56646728515625 203.29736328125 194.50289916992188 C 200.1072998046875 196.93063354492188 196.9173583984375 199.3583984375 193.727294921875 201.7861328125 C 189.705078125 194.84970092773438 184.1571044921875 187.28903198242188 177.08349609375 179.10406494140625 C 170.148681640625 170.9190673828125 162.381591796875 162.87283325195312 153.7823486328125 154.96533203125 C 145.32177734375 146.91909790039062 136.6531982421875 139.7052001953125 127.776611328125 133.32369995117188M 286.099853515625 173.69363403320312 C 288.596435546875 170.9190673828125 291.093017578125 168.14453125 293.589599609375 165.36993408203125 C 306.904541015625 170.08670043945312 320.774169921875 175.56646728515625 335.1988525390625 181.80926513671875 C 349.7620849609375 187.91329956054688 363.6318359375 194.08673095703125 376.80810546875 200.3294677734375 C 390.123046875 206.572265625 401.1495361328125 212.46820068359375 409.887451171875 218.017333984375 C 407.321533203125 221.20809936523438 404.7557373046875 224.39883422851562 402.1898193359375 227.589599609375 C 393.729248046875 222.31793212890625 382.9801025390625 216.4219970703125 369.942626953125 209.9017333984375 C 356.905029296875 203.38150024414062 343.03515625 196.93063354492188 328.333251953125 190.54913330078125 C 313.77001953125 184.16763305664062 299.6922607421875 178.54913330078125 286.099853515625 173.69363403320312M 246.155029296875 217.60116577148438 C 316.05859375 217.60116577148438 385.962158203125 217.60116577148438 455.86572265625 217.60116577148438 C 455.86572265625 221.48553466796875 455.86572265625 225.36993408203125 455.86572265625 229.25433349609375 C 389.7763671875 229.25433349609375 323.6868896484375 229.25433349609375 257.5975341796875 229.25433349609375 C 257.5975341796875 294.38726806640625 257.5975341796875 359.520263671875 257.5975341796875 424.6531982421875 C 253.7833251953125 424.6531982421875 249.96923828125 424.6531982421875 246.155029296875 424.6531982421875 C 246.155029296875 355.6358642578125 246.155029296875 286.6184997558594 246.155029296875 217.60116577148438M 449.8323974609375 217.60116577148438 C 453.854736328125 217.60116577148438 457.8768310546875 217.60116577148438 461.899169921875 217.60116577148438 C 461.899169921875 280.51446533203125 461.899169921875 343.427734375 461.899169921875 406.341064453125 C 461.899169921875 411.33526611328125 461.06689453125 415.0115966796875 459.402587890625 417.36993408203125 C 457.7381591796875 419.589599609375 454.9642333984375 421.32373046875 451.0806884765625 422.572265625 C 446.7811279296875 423.68206787109375 440.3316650390625 424.375732421875 431.732421875 424.6531982421875 C 423.2718505859375 424.9306640625 411.6212158203125 425.0693359375 396.7806396484375 425.0693359375 C 396.503173828125 423.127197265625 395.8790283203125 421.1156005859375 394.908203125 419.03466796875 C 393.937255859375 416.9537353515625 392.96630859375 415.0809326171875 391.9954833984375 413.41619873046875 C 404.478271484375 413.693603515625 415.2967529296875 413.8323974609375 424.4508056640625 413.8323974609375 C 433.6048583984375 413.8323974609375 439.63818359375 413.8323974609375 442.55078125 413.8323974609375 C 445.4635009765625 413.554931640625 447.4052734375 412.9306640625 448.3760986328125 411.95953369140625 C 449.346923828125 410.8497314453125 449.8323974609375 408.97686767578125 449.8323974609375 406.341064453125 C 449.8323974609375 343.427734375 449.8323974609375 280.51446533203125 449.8323974609375 217.60116577148438M 242.826171875 136.86126708984375 C 312.244384765625 136.86126708984375 381.66259765625 136.86126708984375 451.0806884765625 136.86126708984375 C 451.0806884765625 140.74566650390625 451.0806884765625 144.63006591796875 451.0806884765625 148.51446533203125 C 381.66259765625 148.51446533203125 312.244384765625 148.51446533203125 242.826171875 148.51446533203125 C 242.826171875 144.63006591796875 242.826171875 140.74566650390625 242.826171875 136.86126708984375M 252.188232421875 277.947998046875 C 320.427490234375 277.947998046875 388.666748046875 277.947998046875 456.906005859375 277.947998046875 C 456.906005859375 281.8323974609375 456.906005859375 285.7167663574219 456.906005859375 289.6011657714844 C 388.666748046875 289.6011657714844 320.427490234375 289.6011657714844 252.188232421875 289.6011657714844 C 252.188232421875 285.7167663574219 252.188232421875 281.8323974609375 252.188232421875 277.947998046875M 252.188232421875 339.5433349609375 C 320.427490234375 339.5433349609375 388.666748046875 339.5433349609375 456.906005859375 339.5433349609375 C 456.906005859375 343.56646728515625 456.906005859375 347.589599609375 456.906005859375 351.61273193359375 C 388.666748046875 351.61273193359375 320.427490234375 351.61273193359375 252.188232421875 351.61273193359375 C 252.188232421875 347.589599609375 252.188232421875 343.56646728515625 252.188232421875 339.5433349609375M 346.433349609375 220.51446533203125 C 350.24755859375 220.51446533203125 354.0616455078125 220.51446533203125 357.8758544921875 220.51446533203125 C 357.8758544921875 288.00579833984375 357.8758544921875 355.4970703125 357.8758544921875 422.9884033203125 C 354.0616455078125 422.9884033203125 350.24755859375 422.9884033203125 346.433349609375 422.9884033203125 C 346.433349609375 355.4970703125 346.433349609375 288.00579833984375 346.433349609375 220.51446533203125M 448.1680908203125 136.86126708984375 C 449.138916015625 136.86126708984375 450.10986328125 136.86126708984375 451.0806884765625 136.86126708984375 C 451.9822998046875 136.6531982421875 452.8837890625 136.44509887695312 453.7852783203125 136.23699951171875 C 456.697998046875 138.17919921875 459.610595703125 140.12139892578125 462.523193359375 142.0635986328125 C 454.062744140625 149.8323974609375 444.0765380859375 157.39306640625 432.5645751953125 164.74566650390625 C 421.19140625 172.0982666015625 409.1939697265625 178.75723266601562 396.572509765625 184.7225341796875 C 384.0897216796875 190.6878662109375 371.8843994140625 195.82080078125 359.9564208984375 200.12139892578125 C 358.8468017578125 198.734130859375 357.5291748046875 197.2774658203125 356.00341796875 195.75146484375 C 354.6165771484375 194.08673095703125 353.298828125 192.76876831054688 352.050537109375 191.79769897460938 C 363.9786376953125 187.77456665039062 375.9759521484375 182.98843383789062 388.0426025390625 177.43930053710938 C 400.248046875 171.75143432617188 411.5518798828125 165.64739990234375 421.9542236328125 159.12716674804688 C 432.4952392578125 152.60693359375 441.233154296875 146.15606689453125 448.1680908203125 139.77456665039062 C 448.1680908203125 138.80349731445312 448.1680908203125 137.83236694335938 448.1680908203125 136.86126708984375"/>
  </g>
</svg>
