<?xml version="1.0" ?>
<svg xmlns="http://www.w3.org/2000/svg" version="1.1" width="600" height="600">
  <defs/>
  <g>
    <path stroke-width="0" fill="rgb(0, 0, 0)" opacity="1.0" d="M 263.56689453125 456.753173828125 C 337.747314453125 456.753173828125 411.927734375 456.753173828125 486.1080322265625 456.753173828125 C 486.1080322265625 460.61077880859375 486.1080322265625 464.4683837890625 486.1080322265625 468.3260498046875 C 411.927734375 468.3260498046875 337.747314453125 468.3260498046875 263.56689453125 468.3260498046875 C 263.56689453125 464.4683837890625 263.56689453125 460.61077880859375 263.56689453125 456.753173828125M 278.6510009765625 259.1871337890625 C 345.32373046875 259.1871337890625 411.99658203125 259.1871337890625 478.6693115234375 259.1871337890625 C 478.6693115234375 263.0447692871094 478.6693115234375 266.90240478515625 478.6693115234375 270.7600402832031 C 411.99658203125 270.7600402832031 345.32373046875 270.7600402832031 278.6510009765625 270.7600402832031 C 278.6510009765625 266.90240478515625 278.6510009765625 263.0447692871094 278.6510009765625 259.1871337890625M 373.0811767578125 124.652099609375 C 377.007080078125 124.652099609375 380.93310546875 124.652099609375 384.859130859375 124.652099609375 C 384.859130859375 237.21240234375 384.859130859375 349.772705078125 384.859130859375 462.33294677734375 C 380.93310546875 462.33294677734375 377.007080078125 462.33294677734375 373.0811767578125 462.33294677734375 C 373.0811767578125 349.772705078125 373.0811767578125 237.21240234375 373.0811767578125 124.652099609375M 128.223876953125 198.01605224609375 C 172.6494140625 198.01605224609375 217.0750732421875 198.01605224609375 261.5006103515625 198.01605224609375 C 261.5006103515625 201.87368774414062 261.5006103515625 205.7313232421875 261.5006103515625 209.5889892578125 C 217.0750732421875 209.5889892578125 172.6494140625 209.5889892578125 128.223876953125 209.5889892578125 C 128.223876953125 205.7313232421875 128.223876953125 201.87368774414062 128.223876953125 198.01605224609375M 196.8251953125 300.1056213378906 C 200.820068359375 295.42132568359375 204.81494140625 290.737060546875 208.809814453125 286.05279541015625 C 208.809814453125 350.59930419921875 208.809814453125 415.14581298828125 208.809814453125 479.69232177734375 C 204.81494140625 479.69232177734375 200.820068359375 479.69232177734375 196.8251953125 479.69232177734375 C 196.8251953125 419.830078125 196.8251953125 359.96783447265625 196.8251953125 300.1056213378906M 196.8251953125 122.17221069335938 C 200.820068359375 122.17221069335938 204.81494140625 122.17221069335938 208.809814453125 122.17221069335938 C 208.809814453125 149.72674560546875 208.809814453125 177.28128051757812 208.809814453125 204.8358154296875 C 204.81494140625 204.8358154296875 200.820068359375 204.8358154296875 196.8251953125 204.8358154296875 C 196.8251953125 177.28128051757812 196.8251953125 149.72674560546875 196.8251953125 122.17221069335938M 208.3966064453125 288.119384765625 C 211.56494140625 290.4615478515625 216.524169921875 294.52581787109375 223.27392578125 300.3122863769531 C 230.02392578125 305.9609375 237.255859375 312.09185791015625 244.97021484375 318.7049560546875 C 252.8221435546875 325.3179931640625 260.05419921875 331.44891357421875 266.6663818359375 337.09759521484375 C 273.278564453125 342.6085205078125 278.031005859375 346.67279052734375 280.923828125 349.29046630859375 C 278.4443359375 352.5970458984375 275.96484375 355.903564453125 273.4852294921875 359.2100830078125 C 270.0413818359375 355.7657470703125 265.082275390625 351.150390625 258.6077880859375 345.36395263671875 C 252.13330078125 339.439697265625 245.10791015625 333.17108154296875 237.531494140625 326.5579833984375 C 229.955078125 319.94488525390625 222.791748046875 313.81396484375 216.0419921875 308.16534423828125 C 209.4296875 302.51666259765625 204.263916015625 298.38348388671875 200.544677734375 295.7657775878906 C 203.161865234375 293.21697998046875 205.779296875 290.6681823730469 208.3966064453125 288.119384765625M 256.748046875 198.01605224609375 C 257.71240234375 198.01605224609375 258.6767578125 198.01605224609375 259.640869140625 198.01605224609375 C 260.536376953125 197.74050903320312 261.431640625 197.4649658203125 262.3271484375 197.18942260742188 C 264.73779296875 198.7738037109375 267.1485595703125 200.35821533203125 269.5592041015625 201.94256591796875 C 259.7786865234375 224.8128662109375 246.829833984375 246.71871948242188 230.712646484375 267.66015625 C 214.733154296875 288.4638366699219 197.445068359375 307.4764404296875 178.848388671875 324.69805908203125 C 160.251708984375 341.7818603515625 141.930419921875 356.45465087890625 123.8846435546875 368.7164306640625 C 123.3336181640625 367.6142578125 122.507080078125 366.5809326171875 121.405029296875 365.61651611328125 C 120.4407958984375 364.51434326171875 119.4765625 363.4810791015625 118.51220703125 362.51666259765625 C 117.5479736328125 361.55224609375 116.583740234375 360.79449462890625 115.619384765625 360.243408203125 C 133.5274658203125 348.946044921875 151.5732421875 334.8931884765625 169.756591796875 318.0849609375 C 188.077880859375 301.27667236328125 204.9527587890625 282.81512451171875 220.381103515625 262.7003173828125 C 235.947265625 242.58551025390625 248.069580078125 222.1951904296875 256.748046875 201.52926635742188 C 256.748046875 200.35821533203125 256.748046875 199.1871337890625 256.748046875 198.01605224609375"/>
  </g>
</svg>
