<?xml version="1.0" encoding="utf-8"?>
<svg xmlns="http://www.w3.org/2000/svg" xmlns:ev="http://www.w3.org/2001/xml-events" xmlns:xlink="http://www.w3.org/1999/xlink" version="1.1" baseProfile="full" width="9216.0" height="1920.0" viewBox="192.0 -1690.0 9216.0 1920.0">
<defs/>
<g><path d="M 2112.000000 230.000000 C 2112.000000 -410.000000 2112.000000 -1050.000000 2112.000000 -1690.000000 C 2624.000000 -1690.000000 3136.000000 -1690.000000 3648.000000 -1690.000000 C 3648.000000 -1050.000000 3648.000000 -410.000000 3648.000000 230.000000 C 3136.000000 230.000000 2624.000000 230.000000 2112.000000 230.000000z M 2880.000000 -808.000000 C 3083.666667 -1070.000000 3287.333333 -1332.000000 3491.000000 -1594.000000 C 3083.666667 -1594.000000 2676.333333 -1594.000000 2269.000000 -1594.000000 C 2472.666667 -1332.000000 2676.333333 -1070.000000 2880.000000 -808.000000z M 2941.000000 -730.000000 C 3144.666667 -468.000000 3348.333333 -206.000000 3552.000000 56.000000 C 3552.000000 -467.666667 3552.000000 -991.333333 3552.000000 -1515.000000 C 3348.333333 -1253.333333 3144.666667 -991.666667 2941.000000 -730.000000z M 2269.000000 134.000000 C 2676.333333 134.000000 3083.666667 134.000000 3491.000000 134.000000 C 3287.333333 -127.666667 3083.666667 -389.333333 2880.000000 -651.000000 C 2676.333333 -389.333333 2472.666667 -127.666667 2269.000000 134.000000z M 2208.000000 -1515.000000 C 2208.000000 -991.333333 2208.000000 -467.666667 2208.000000 56.000000 C 2411.666667 -206.000000 2615.333333 -468.000000 2819.000000 -730.000000 C 2615.333333 -991.666667 2411.666667 -1253.333333 2208.000000 -1515.000000z "/>
</g></svg>
