<?xml version="1.0" encoding="utf-8"?>
<svg xmlns="http://www.w3.org/2000/svg" xmlns:ev="http://www.w3.org/2001/xml-events" xmlns:xlink="http://www.w3.org/1999/xlink" version="1.1" baseProfile="full" width="49628.0" height="1744.0" viewBox="213.0 -1596.0 49628.0 1744.0">
<defs/>
<g><path d="M 34692.000000 -1377.000000 C 35245.666667 -1377.000000 35799.333333 -1377.000000 36353.000000 -1377.000000 C 36353.000000 -1357.666667 36353.000000 -1338.333333 36353.000000 -1319.000000 C 35799.333333 -1319.000000 35245.666667 -1319.000000 34692.000000 -1319.000000 C 34692.000000 -1338.333333 34692.000000 -1357.666667 34692.000000 -1377.000000z M 35489.000000 -1594.000000 C 35508.333333 -1594.000000 35527.666667 -1594.000000 35547.000000 -1594.000000 C 35547.000000 -1515.000000 35547.000000 -1436.000000 35547.000000 -1357.000000 C 35527.666667 -1357.000000 35508.333333 -1357.000000 35489.000000 -1357.000000 C 35489.000000 -1436.000000 35489.000000 -1515.000000 35489.000000 -1594.000000z M 35750.000000 -1356.000000 C 35768.666667 -1356.000000 35787.333333 -1356.000000 35806.000000 -1356.000000 C 35806.000000 -1176.666667 35806.000000 -997.333333 35806.000000 -818.000000 C 35806.000000 -796.000000 35802.666667 -779.666667 35796.000000 -769.000000 C 35790.000000 -758.333333 35776.666667 -749.666667 35756.000000 -743.000000 C 35736.666667 -737.666667 35704.666667 -734.666667 35660.000000 -734.000000 C 35615.333333 -733.333333 35557.666667 -733.000000 35487.000000 -733.000000 C 35485.666667 -742.333333 35483.333333 -751.666667 35480.000000 -761.000000 C 35477.333333 -771.000000 35474.666667 -780.333333 35472.000000 -789.000000 C 35532.000000 -787.666667 35584.000000 -786.666667 35628.000000 -786.000000 C 35672.666667 -785.333333 35702.000000 -785.666667 35716.000000 -787.000000 C 35730.000000 -788.333333 35739.000000 -791.333333 35743.000000 -796.000000 C 35747.666667 -800.666667 35750.000000 -808.000000 35750.000000 -818.000000 C 35750.000000 -997.333333 35750.000000 -1176.666667 35750.000000 -1356.000000z M 35336.000000 -1357.000000 C 35354.333333 -1357.000000 35372.666667 -1357.000000 35391.000000 -1357.000000 C 35391.000000 -1336.000000 35391.000000 -1315.000000 35391.000000 -1294.000000 C 35391.000000 -1246.666667 35387.666667 -1195.666667 35381.000000 -1141.000000 C 35375.000000 -1087.000000 35360.333333 -1032.333333 35337.000000 -977.000000 C 35314.333333 -922.333333 35279.333333 -868.000000 35232.000000 -814.000000 C 35184.666667 -760.000000 35120.666667 -708.666667 35040.000000 -660.000000 C 35037.333333 -665.333333 35033.333333 -670.333333 35028.000000 -675.000000 C 35023.333333 -679.666667 35018.333333 -684.333333 35013.000000 -689.000000 C 35007.666667 -694.333333 35003.333333 -698.333333 35000.000000 -701.000000 C 35078.000000 -745.666667 35139.666667 -793.666667 35185.000000 -845.000000 C 35230.333333 -896.333333 35263.333333 -948.333333 35284.000000 -1001.000000 C 35305.333333 -1054.333333 35319.333333 -1106.000000 35326.000000 -1156.000000 C 35332.666667 -1206.000000 35336.000000 -1252.000000 35336.000000 -1294.000000 C 35336.000000 -1315.000000 35336.000000 -1336.000000 35336.000000 -1357.000000z M 35950.000000 -1167.000000 C 35966.000000 -1176.666667 35982.000000 -1186.333333 35998.000000 -1196.000000 C 36044.000000 -1158.666667 36091.333333 -1116.666667 36140.000000 -1070.000000 C 36188.666667 -1023.333333 36234.000000 -977.666667 36276.000000 -933.000000 C 36318.666667 -888.333333 36352.666667 -848.000000 36378.000000 -812.000000 C 36361.333333 -800.000000 36344.666667 -788.000000 36328.000000 -776.000000 C 36304.000000 -811.333333 36271.000000 -852.000000 36229.000000 -898.000000 C 36187.666667 -944.666667 36142.666667 -991.666667 36094.000000 -1039.000000 C 36045.333333 -1086.333333 35997.333333 -1129.000000 35950.000000 -1167.000000z M 35027.000000 -1185.000000 C 35046.666667 -1179.000000 35066.333333 -1173.000000 35086.000000 -1167.000000 C 35045.333333 -1098.333333 34990.000000 -1030.333333 34920.000000 -963.000000 C 34850.000000 -895.666667 34778.666667 -839.666667 34706.000000 -795.000000 C 34700.666667 -801.000000 34693.666667 -807.666667 34685.000000 -815.000000 C 34677.000000 -822.333333 34670.000000 -828.333333 34664.000000 -833.000000 C 34712.666667 -861.666667 34760.333333 -895.000000 34807.000000 -933.000000 C 34853.666667 -971.666667 34896.333333 -1012.666667 34935.000000 -1056.000000 C 34974.333333 -1099.333333 35005.000000 -1142.333333 35027.000000 -1185.000000z M 35165.000000 -516.000000 C 35233.666667 -406.000000 35328.333333 -309.333333 35449.000000 -226.000000 C 35570.333333 -143.333333 35710.333333 -75.000000 35869.000000 -21.000000 C 36028.333333 33.000000 36197.333333 70.666667 36376.000000 92.000000 C 36372.666667 96.000000 36368.666667 101.000000 36364.000000 107.000000 C 36359.333333 113.666667 36355.000000 119.666667 36351.000000 125.000000 C 36347.666667 131.000000 36344.666667 137.333333 36342.000000 144.000000 C 36162.666667 120.000000 35993.333333 79.666667 35834.000000 23.000000 C 35674.666667 -33.000000 35533.333333 -104.333333 35410.000000 -191.000000 C 35287.333333 -277.666667 35190.333333 -378.333333 35119.000000 -493.000000 C 35134.333333 -500.666667 35149.666667 -508.333333 35165.000000 -516.000000z M 35340.000000 -737.000000 C 35362.333333 -732.666667 35384.666667 -728.333333 35407.000000 -724.000000 C 35340.333333 -642.000000 35252.333333 -557.333333 35143.000000 -470.000000 C 35034.333333 -383.333333 34907.333333 -306.000000 34762.000000 -238.000000 C 34759.333333 -243.333333 34755.333333 -248.000000 34750.000000 -252.000000 C 34744.666667 -256.666667 34739.666667 -261.666667 34735.000000 -267.000000 C 34731.000000 -272.333333 34726.333333 -276.000000 34721.000000 -278.000000 C 34863.000000 -342.000000 34987.333333 -416.000000 35094.000000 -500.000000 C 35201.333333 -584.000000 35283.333333 -663.000000 35340.000000 -737.000000z M 35230.000000 -586.000000 C 35481.666667 -586.000000 35733.333333 -586.000000 35985.000000 -586.000000 C 35985.000000 -567.333333 35985.000000 -548.666667 35985.000000 -530.000000 C 35716.666667 -530.000000 35448.333333 -530.000000 35180.000000 -530.000000 C 35196.666667 -548.666667 35213.333333 -567.333333 35230.000000 -586.000000z M 35971.000000 -586.000000 C 35976.333333 -586.000000 35981.666667 -586.000000 35987.000000 -586.000000 C 35992.000000 -587.000000 35997.000000 -588.000000 36002.000000 -589.000000 C 36014.000000 -579.666667 36026.000000 -570.333333 36038.000000 -561.000000 C 35978.000000 -458.333333 35901.000000 -368.333333 35807.000000 -291.000000 C 35713.000000 -213.666667 35607.000000 -147.000000 35489.000000 -91.000000 C 35371.666667 -35.666667 35247.333333 11.333333 35116.000000 50.000000 C 34984.666667 88.666667 34851.666667 119.333333 34717.000000 142.000000 C 34716.333333 136.666667 34714.000000 130.666667 34710.000000 124.000000 C 34706.000000 118.000000 34701.666667 112.000000 34697.000000 106.000000 C 34693.000000 100.666667 34688.333333 96.000000 34683.000000 92.000000 C 34816.333333 70.666667 34947.333333 42.000000 35076.000000 6.000000 C 35205.333333 -30.000000 35327.666667 -74.666667 35443.000000 -128.000000 C 35558.333333 -182.000000 35661.333333 -245.666667 35752.000000 -319.000000 C 35843.333333 -393.000000 35916.333333 -477.333333 35971.000000 -572.000000 C 35971.000000 -576.666667 35971.000000 -581.333333 35971.000000 -586.000000z "/>
</g></svg>
