<?xml version="1.0" ?>
<svg xmlns="http://www.w3.org/2000/svg" version="1.1" width="600" height="600">
  <defs/>
  <g>
    <path stroke-width="0" fill="rgb(0, 0, 0)" opacity="1.0" d="M 265.8399658203125 161.67739868164062 C 336.1649169921875 161.67739868164062 406.48992919921875 161.67739868164062 476.81494140625 161.67739868164062 C 476.81494140625 165.54837036132812 476.81494140625 169.41934204101562 476.81494140625 173.29031372070312 C 406.48992919921875 173.29031372070312 336.1649169921875 173.29031372070312 265.8399658203125 173.29031372070312 C 265.8399658203125 169.41934204101562 265.8399658203125 165.54837036132812 265.8399658203125 161.67739868164062M 254.2342529296875 255.61749267578125 C 329.8785400390625 255.61749267578125 405.52276611328125 255.61749267578125 481.1669921875 255.61749267578125 C 481.1669921875 259.48846435546875 481.1669921875 263.35943603515625 481.1669921875 267.23040771484375 C 405.52276611328125 267.23040771484375 329.8785400390625 267.23040771484375 254.2342529296875 267.23040771484375 C 254.2342529296875 263.35943603515625 254.2342529296875 259.48846435546875 254.2342529296875 255.61749267578125M 254.2342529296875 400.9862060546875 C 329.8785400390625 400.9862060546875 405.52276611328125 400.9862060546875 481.1669921875 400.9862060546875 C 481.1669921875 404.995361328125 481.1669921875 409.004638671875 481.1669921875 413.0137939453125 C 405.52276611328125 413.0137939453125 329.8785400390625 413.0137939453125 254.2342529296875 413.0137939453125 C 254.2342529296875 409.004638671875 254.2342529296875 404.995361328125 254.2342529296875 400.9862060546875M 288.8441162109375 350.8018798828125 C 343.28033447265625 350.8018798828125 397.716552734375 350.8018798828125 452.15283203125 350.8018798828125 C 452.15283203125 354.67279052734375 452.15283203125 358.54376220703125 452.15283203125 362.41473388671875 C 397.716552734375 362.41473388671875 343.28033447265625 362.41473388671875 288.8441162109375 362.41473388671875 C 288.8441162109375 358.54376220703125 288.8441162109375 354.67279052734375 288.8441162109375 350.8018798828125M 274.1297607421875 207.0921630859375 C 339.13543701171875 207.0921630859375 404.14111328125 207.0921630859375 469.1468505859375 207.0921630859375 C 469.1468505859375 211.10137939453125 469.1468505859375 215.110595703125 469.1468505859375 219.11981201171875 C 404.14111328125 219.11981201171875 339.13543701171875 219.11981201171875 274.1297607421875 219.11981201171875 C 274.1297607421875 215.110595703125 274.1297607421875 211.10137939453125 274.1297607421875 207.0921630859375M 318.68731689453125 121.86175537109375 C 322.555908203125 121.86175537109375 326.4244384765625 121.86175537109375 330.29302978515625 121.86175537109375 C 330.29302978515625 168.17510986328125 330.29302978515625 214.48846435546875 330.29302978515625 260.80181884765625 C 326.4244384765625 260.80181884765625 322.555908203125 260.80181884765625 318.68731689453125 260.80181884765625 C 318.68731689453125 214.48846435546875 318.68731689453125 168.17510986328125 318.68731689453125 121.86175537109375M 411.118408203125 121.86175537109375 C 415.0560302734375 121.86175537109375 418.99365234375 121.86175537109375 422.93133544921875 121.86175537109375 C 422.93133544921875 168.17510986328125 422.93133544921875 214.48846435546875 422.93133544921875 260.80181884765625 C 418.99365234375 260.80181884765625 415.0560302734375 260.80181884765625 411.118408203125 260.80181884765625 C 411.118408203125 214.48846435546875 411.118408203125 168.17510986328125 411.118408203125 121.86175537109375M 361.794189453125 259.76495361328125 C 365.5936279296875 259.76495361328125 369.3931884765625 259.76495361328125 373.192626953125 259.76495361328125 C 373.192626953125 308.84332275390625 373.192626953125 357.921630859375 373.192626953125 407.0 C 369.3931884765625 407.0 365.5936279296875 407.0 361.794189453125 407.0 C 361.794189453125 357.921630859375 361.794189453125 308.84332275390625 361.794189453125 259.76495361328125M 445.313720703125 298.3363952636719 C 449.3204345703125 298.3363952636719 453.3271484375 298.3363952636719 457.333984375 298.3363952636719 C 457.333984375 352.7373046875 457.333984375 407.13824462890625 457.333984375 461.5391845703125 C 457.333984375 466.37786865234375 456.573974609375 469.97235107421875 455.05419921875 472.32257080078125 C 453.534423828125 474.6728515625 450.9783935546875 476.5391845703125 447.38623046875 477.921630859375 C 443.37939453125 478.889404296875 437.231201171875 479.4423828125 428.94140625 479.5806884765625 C 420.789794921875 479.7188720703125 410.0821533203125 479.78802490234375 396.81854248046875 479.78802490234375 C 396.54217529296875 478.26727294921875 395.92047119140625 476.331787109375 394.95330810546875 473.9815673828125 C 393.98614501953125 471.76959228515625 393.01904296875 469.7650146484375 392.0518798828125 467.9677734375 C 403.6575927734375 468.2442626953125 413.6053466796875 468.45159912109375 421.89508056640625 468.58984375 C 430.322998046875 468.7281494140625 435.849609375 468.65899658203125 438.474609375 468.3824462890625 C 441.3760986328125 468.10595703125 443.2412109375 467.48388671875 444.0703125 466.51611328125 C 444.899169921875 465.54840087890625 445.313720703125 463.889404296875 445.313720703125 461.5391845703125 C 445.313720703125 407.13824462890625 445.313720703125 352.7373046875 445.313720703125 298.3363952636719M 282.62677001953125 298.3363952636719 C 338.58282470703125 298.3363952636719 394.538818359375 298.3363952636719 450.494873046875 298.3363952636719 C 450.494873046875 302.2073669433594 450.494873046875 306.078369140625 450.494873046875 309.9493408203125 C 398.33831787109375 309.9493408203125 346.1817626953125 309.9493408203125 294.02520751953125 309.9493408203125 C 294.02520751953125 366.56219482421875 294.02520751953125 423.17510986328125 294.02520751953125 479.78802490234375 C 290.22576904296875 479.78802490234375 286.42620849609375 479.78802490234375 282.62677001953125 479.78802490234375 C 282.62677001953125 419.30413818359375 282.62677001953125 358.8203125 282.62677001953125 298.3363952636719M 137.348388671875 241.7235107421875 C 171.405517578125 241.7235107421875 205.4627685546875 241.7235107421875 239.5198974609375 241.7235107421875 C 239.5198974609375 245.594482421875 239.5198974609375 249.46542358398438 239.5198974609375 253.33639526367188 C 205.4627685546875 253.33639526367188 171.405517578125 253.33639526367188 137.348388671875 253.33639526367188 C 137.348388671875 249.46542358398438 137.348388671875 245.594482421875 137.348388671875 241.7235107421875M 139.6280517578125 137.0 C 172.5799560546875 137.0 205.53179931640625 137.0 238.48370361328125 137.0 C 238.48370361328125 140.87094116210938 238.48370361328125 144.741943359375 238.48370361328125 148.61288452148438 C 205.53179931640625 148.61288452148438 172.5799560546875 148.61288452148438 139.6280517578125 148.61288452148438 C 139.6280517578125 144.741943359375 139.6280517578125 140.87094116210938 139.6280517578125 137.0M 137.348388671875 294.81103515625 C 171.405517578125 294.81103515625 205.4627685546875 294.81103515625 239.5198974609375 294.81103515625 C 239.5198974609375 298.6129150390625 239.5198974609375 302.41473388671875 239.5198974609375 306.216552734375 C 205.4627685546875 306.216552734375 171.405517578125 306.216552734375 137.348388671875 306.216552734375 C 137.348388671875 302.41473388671875 137.348388671875 298.6129150390625 137.348388671875 294.81103515625M 120.5615234375 188.42855834960938 C 163.39208984375 188.42855834960938 206.22259521484375 188.42855834960938 249.05316162109375 188.42855834960938 C 249.05316162109375 192.43780517578125 249.05316162109375 196.44699096679688 249.05316162109375 200.45623779296875 C 206.22259521484375 200.45623779296875 163.39208984375 200.45623779296875 120.5615234375 200.45623779296875 C 120.5615234375 196.44699096679688 120.5615234375 192.43780517578125 120.5615234375 188.42855834960938M 143.77294921875 347.69122314453125 C 176.2412109375 347.69122314453125 208.70953369140625 347.69122314453125 241.1778564453125 347.69122314453125 C 241.1778564453125 384.741943359375 241.1778564453125 421.7926025390625 241.1778564453125 458.84332275390625 C 208.70953369140625 458.84332275390625 176.2412109375 458.84332275390625 143.77294921875 458.84332275390625 C 143.77294921875 454.97235107421875 143.77294921875 451.10137939453125 143.77294921875 447.23040771484375 C 172.3726806640625 447.23040771484375 200.972412109375 447.23040771484375 229.5721435546875 447.23040771484375 C 229.5721435546875 418.0599365234375 229.5721435546875 388.889404296875 229.5721435546875 359.7188720703125 C 200.972412109375 359.7188720703125 172.3726806640625 359.7188720703125 143.77294921875 359.7188720703125 C 143.77294921875 355.70965576171875 143.77294921875 351.700439453125 143.77294921875 347.69122314453125M 137.348388671875 347.69122314453125 C 141.2860107421875 347.69122314453125 145.2236328125 347.69122314453125 149.1612548828125 347.69122314453125 C 149.1612548828125 391.58526611328125 149.1612548828125 435.479248046875 149.1612548828125 479.373291015625 C 145.2236328125 479.373291015625 141.2860107421875 479.373291015625 137.348388671875 479.373291015625 C 137.348388671875 435.479248046875 137.348388671875 391.58526611328125 137.348388671875 347.69122314453125"/>
  </g>
</svg>
