<?xml version="1.0" encoding="utf-8"?>
<svg xmlns="http://www.w3.org/2000/svg" xmlns:ev="http://www.w3.org/2001/xml-events" xmlns:xlink="http://www.w3.org/1999/xlink" version="1.1" baseProfile="full" width="30496.0" height="1753.0" viewBox="136.0 -1597.0 30496.0 1753.0">
<defs/>
<g><path d="M 29725.000000 -292.000000 C 29965.666667 -292.000000 30206.333333 -292.000000 30447.000000 -292.000000 C 30447.000000 -273.333333 30447.000000 -254.666667 30447.000000 -236.000000 C 30206.333333 -236.000000 29965.666667 -236.000000 29725.000000 -236.000000 C 29725.000000 -254.666667 29725.000000 -273.333333 29725.000000 -292.000000z M 29724.000000 8.000000 C 29964.333333 8.000000 30204.666667 8.000000 30445.000000 8.000000 C 30445.000000 26.333333 30445.000000 44.666667 30445.000000 63.000000 C 30204.666667 63.000000 29964.333333 63.000000 29724.000000 63.000000 C 29724.000000 44.666667 29724.000000 26.333333 29724.000000 8.000000z M 29580.000000 -1344.000000 C 29919.000000 -1344.000000 30258.000000 -1344.000000 30597.000000 -1344.000000 C 30597.000000 -1324.666667 30597.000000 -1305.333333 30597.000000 -1286.000000 C 30258.000000 -1286.000000 29919.000000 -1286.000000 29580.000000 -1286.000000 C 29580.000000 -1305.333333 29580.000000 -1324.666667 29580.000000 -1344.000000z M 29537.000000 -797.000000 C 29902.000000 -797.000000 30267.000000 -797.000000 30632.000000 -797.000000 C 30632.000000 -777.666667 30632.000000 -758.333333 30632.000000 -739.000000 C 30267.000000 -739.000000 29902.000000 -739.000000 29537.000000 -739.000000 C 29537.000000 -758.333333 29537.000000 -777.666667 29537.000000 -797.000000z M 29916.000000 -1332.000000 C 29935.000000 -1332.000000 29954.000000 -1332.000000 29973.000000 -1332.000000 C 29973.000000 -1142.666667 29973.000000 -953.333333 29973.000000 -764.000000 C 29954.000000 -764.000000 29935.000000 -764.000000 29916.000000 -764.000000 C 29916.000000 -953.333333 29916.000000 -1142.666667 29916.000000 -1332.000000z M 30198.000000 -1332.000000 C 30217.000000 -1332.000000 30236.000000 -1332.000000 30255.000000 -1332.000000 C 30255.000000 -1142.666667 30255.000000 -953.333333 30255.000000 -764.000000 C 30236.000000 -764.000000 30217.000000 -764.000000 30198.000000 -764.000000 C 30198.000000 -953.333333 30198.000000 -1142.666667 30198.000000 -1332.000000z M 30363.000000 -1596.000000 C 30381.000000 -1587.000000 30399.000000 -1578.000000 30417.000000 -1569.000000 C 30395.000000 -1529.000000 30371.666667 -1489.000000 30347.000000 -1449.000000 C 30323.000000 -1409.666667 30300.000000 -1375.333333 30278.000000 -1346.000000 C 30262.666667 -1353.666667 30247.333333 -1361.333333 30232.000000 -1369.000000 C 30254.000000 -1399.666667 30277.333333 -1437.000000 30302.000000 -1481.000000 C 30327.333333 -1525.666667 30347.666667 -1564.000000 30363.000000 -1596.000000z M 30488.000000 -1198.000000 C 30507.000000 -1189.666667 30526.000000 -1181.333333 30545.000000 -1173.000000 C 30519.666667 -1121.666667 30492.000000 -1067.000000 30462.000000 -1009.000000 C 30432.000000 -951.000000 30403.333333 -901.333333 30376.000000 -860.000000 C 30361.333333 -867.666667 30346.666667 -875.333333 30332.000000 -883.000000 C 30350.000000 -911.000000 30368.666667 -943.666667 30388.000000 -981.000000 C 30407.333333 -1018.333333 30425.666667 -1056.000000 30443.000000 -1094.000000 C 30461.000000 -1132.666667 30476.000000 -1167.333333 30488.000000 -1198.000000z M 29739.000000 -1569.000000 C 29755.000000 -1576.000000 29771.000000 -1583.000000 29787.000000 -1590.000000 C 29813.666667 -1555.333333 29839.000000 -1516.666667 29863.000000 -1474.000000 C 29887.666667 -1432.000000 29904.666667 -1395.666667 29914.000000 -1365.000000 C 29896.666667 -1356.000000 29879.333333 -1347.000000 29862.000000 -1338.000000 C 29851.333333 -1370.000000 29834.333333 -1407.333333 29811.000000 -1450.000000 C 29788.333333 -1493.333333 29764.333333 -1533.000000 29739.000000 -1569.000000z M 29629.000000 -1179.000000 C 29645.666667 -1184.666667 29662.333333 -1190.333333 29679.000000 -1196.000000 C 29709.000000 -1148.666667 29736.333333 -1096.000000 29761.000000 -1038.000000 C 29785.666667 -980.666667 29802.666667 -931.666667 29812.000000 -891.000000 C 29794.666667 -883.333333 29777.333333 -875.666667 29760.000000 -868.000000 C 29750.000000 -910.000000 29732.666667 -960.333333 29708.000000 -1019.000000 C 29684.000000 -1078.333333 29657.666667 -1131.666667 29629.000000 -1179.000000z M 29699.000000 -589.000000 C 29961.333333 -589.000000 30223.666667 -589.000000 30486.000000 -589.000000 C 30486.000000 -350.333333 30486.000000 -111.666667 30486.000000 127.000000 C 30467.333333 127.000000 30448.666667 127.000000 30430.000000 127.000000 C 30430.000000 -93.333333 30430.000000 -313.666667 30430.000000 -534.000000 C 30204.666667 -534.000000 29979.333333 -534.000000 29754.000000 -534.000000 C 29754.000000 -311.333333 29754.000000 -88.666667 29754.000000 134.000000 C 29735.666667 134.000000 29717.333333 134.000000 29699.000000 134.000000 C 29699.000000 -107.000000 29699.000000 -348.000000 29699.000000 -589.000000z M 28969.000000 -1021.000000 C 29136.000000 -1021.000000 29303.000000 -1021.000000 29470.000000 -1021.000000 C 29470.000000 -1002.666667 29470.000000 -984.333333 29470.000000 -966.000000 C 29303.000000 -966.000000 29136.000000 -966.000000 28969.000000 -966.000000 C 28969.000000 -984.333333 28969.000000 -1002.666667 28969.000000 -1021.000000z M 28979.000000 -1519.000000 C 29140.000000 -1519.000000 29301.000000 -1519.000000 29462.000000 -1519.000000 C 29462.000000 -1500.333333 29462.000000 -1481.666667 29462.000000 -1463.000000 C 29301.000000 -1463.000000 29140.000000 -1463.000000 28979.000000 -1463.000000 C 28979.000000 -1481.666667 28979.000000 -1500.333333 28979.000000 -1519.000000z M 28969.000000 -770.000000 C 29136.000000 -770.000000 29303.000000 -770.000000 29470.000000 -770.000000 C 29470.000000 -751.333333 29470.000000 -732.666667 29470.000000 -714.000000 C 29303.000000 -714.000000 29136.000000 -714.000000 28969.000000 -714.000000 C 28969.000000 -732.666667 28969.000000 -751.333333 28969.000000 -770.000000z M 28890.000000 -1275.000000 C 29100.000000 -1275.000000 29310.000000 -1275.000000 29520.000000 -1275.000000 C 29520.000000 -1255.666667 29520.000000 -1236.333333 29520.000000 -1217.000000 C 29310.000000 -1217.000000 29100.000000 -1217.000000 28890.000000 -1217.000000 C 28890.000000 -1236.333333 28890.000000 -1255.666667 28890.000000 -1275.000000z M 28998.000000 -518.000000 C 29154.666667 -518.000000 29311.333333 -518.000000 29468.000000 -518.000000 C 29468.000000 -339.000000 29468.000000 -160.000000 29468.000000 19.000000 C 29311.333333 19.000000 29154.666667 19.000000 28998.000000 19.000000 C 28998.000000 0.000000 28998.000000 -19.000000 28998.000000 -38.000000 C 29136.000000 -38.000000 29274.000000 -38.000000 29412.000000 -38.000000 C 29412.000000 -179.000000 29412.000000 -320.000000 29412.000000 -461.000000 C 29274.000000 -461.000000 29136.000000 -461.000000 28998.000000 -461.000000 C 28998.000000 -480.000000 28998.000000 -499.000000 28998.000000 -518.000000z M 28969.000000 -518.000000 C 28988.333333 -518.000000 29007.666667 -518.000000 29027.000000 -518.000000 C 29027.000000 -305.666667 29027.000000 -93.333333 29027.000000 119.000000 C 29007.666667 119.000000 28988.333333 119.000000 28969.000000 119.000000 C 28969.000000 -93.333333 28969.000000 -305.666667 28969.000000 -518.000000z "/>
</g></svg>
