<?xml version="1.0" ?>
<svg xmlns="http://www.w3.org/2000/svg" version="1.1" width="600" height="600">
  <defs/>
  <g>
    <path stroke-width="0" fill="rgb(0, 0, 0)" opacity="1.0" d="M 343.12744140625 121.20687866210938 C 347.126953125 121.20687866210938 351.12646484375 121.20687866210938 355.12548828125 121.20687866210938 C 355.12548828125 139.89654541015625 355.12548828125 158.586181640625 355.12548828125 177.27584838867188 C 351.12646484375 177.27584838867188 347.126953125 177.27584838867188 343.12744140625 177.27584838867188 C 343.12744140625 158.586181640625 343.12744140625 139.89654541015625 343.12744140625 121.20687866210938M 240.729736328125 169.0 C 315.89013671875 169.0 391.05126953125 169.0 466.2119140625 169.0 C 466.2119140625 191.2069091796875 466.2119140625 213.41375732421875 466.2119140625 235.62066650390625 C 462.41943359375 235.62066650390625 458.626708984375 235.62066650390625 454.834228515625 235.62066650390625 C 454.834228515625 217.34481811523438 454.834228515625 199.0689697265625 454.834228515625 180.7930908203125 C 387.258544921875 180.7930908203125 319.68310546875 180.7930908203125 252.107177734375 180.7930908203125 C 252.107177734375 199.2069091796875 252.107177734375 217.62066650390625 252.107177734375 236.03448486328125 C 248.3148193359375 236.03448486328125 244.5220947265625 236.03448486328125 240.729736328125 236.03448486328125 C 240.729736328125 213.68963623046875 240.729736328125 191.34481811523438 240.729736328125 169.0M 274.44873046875 237.27584838867188 C 327.1298828125 237.27584838867188 379.8115234375 237.27584838867188 432.492919921875 237.27584838867188 C 432.492919921875 241.137939453125 432.492919921875 245.0 432.492919921875 248.862060546875 C 379.8115234375 248.862060546875 327.1298828125 248.862060546875 274.44873046875 248.862060546875 C 274.44873046875 245.0 274.44873046875 241.137939453125 274.44873046875 237.27584838867188M 243.8326416015625 310.72412109375 C 319.2001953125 310.72412109375 394.56787109375 310.72412109375 469.935302734375 310.72412109375 C 469.935302734375 314.586181640625 469.935302734375 318.4482421875 469.935302734375 322.310302734375 C 394.56787109375 322.310302734375 319.2001953125 322.310302734375 243.8326416015625 322.310302734375 C 243.8326416015625 318.4482421875 243.8326416015625 314.586181640625 243.8326416015625 310.72412109375M 305.89208984375 313.62066650390625 C 309.96044921875 313.62066650390625 314.028564453125 313.62066650390625 318.096923828125 313.62066650390625 C 316.855712890625 334.72412109375 314.51123046875 353.96551513671875 311.0634765625 371.3448486328125 C 307.61572265625 388.72412109375 302.51318359375 404.310302734375 295.755615234375 418.10345458984375 C 288.998046875 431.75860595703125 279.8271484375 443.689697265625 268.24267578125 453.89654541015625 C 256.79638671875 464.10345458984375 242.177734375 472.6551513671875 224.387451171875 479.5517578125 C 223.835693359375 478.72412109375 223.0772705078125 477.75860595703125 222.1119384765625 476.6551513671875 C 221.284423828125 475.689697265625 220.3189697265625 474.6551513671875 219.2158203125 473.5517578125 C 218.112548828125 472.586181640625 217.0782470703125 471.82757568359375 216.11279296875 471.27587890625 C 233.4893798828125 464.6551513671875 247.7630615234375 456.4482421875 258.93359375 446.6551513671875 C 270.1044921875 436.862060546875 278.9306640625 425.4827880859375 285.412353515625 412.5172119140625 C 291.89404296875 399.5517578125 296.65185546875 384.7930908203125 299.68603515625 368.24139404296875 C 302.72021484375 351.68963623046875 304.78857421875 333.4827880859375 305.89208984375 313.62066650390625M 379.742431640625 314.03448486328125 C 383.534912109375 314.03448486328125 387.32763671875 314.03448486328125 391.1201171875 314.03448486328125 C 391.1201171875 359.27587890625 391.1201171875 404.5172119140625 391.1201171875 449.75860595703125 C 391.1201171875 454.03448486328125 391.947509765625 456.72412109375 393.6025390625 457.82757568359375 C 395.25732421875 459.0689697265625 398.98095703125 459.689697265625 404.77294921875 459.689697265625 C 406.56591796875 459.689697265625 410.220458984375 459.689697265625 415.73681640625 459.689697265625 C 421.39111328125 459.689697265625 427.183349609375 459.689697265625 433.113525390625 459.689697265625 C 439.043701171875 459.689697265625 443.11181640625 459.689697265625 445.318359375 459.689697265625 C 448.904052734375 459.689697265625 451.59326171875 458.5172119140625 453.38623046875 456.17242431640625 C 455.31689453125 453.82757568359375 456.696044921875 448.9310302734375 457.5234375 441.4827880859375 C 458.35107421875 434.03448486328125 458.902587890625 422.6551513671875 459.17822265625 407.3448486328125 C 460.143798828125 408.17242431640625 461.2470703125 409.0 462.48828125 409.82757568359375 C 463.7294921875 410.5172119140625 465.03955078125 411.137939453125 466.41845703125 411.689697265625 C 467.935546875 412.24139404296875 469.245849609375 412.6551513671875 470.34912109375 412.9310302734375 C 470.0732421875 428.5172119140625 469.245849609375 440.6551513671875 467.86669921875 449.3448486328125 C 466.487548828125 457.89654541015625 464.14306640625 463.75860595703125 460.833251953125 466.9310302734375 C 457.5234375 470.10345458984375 452.69677734375 471.689697265625 446.352783203125 471.689697265625 C 445.38720703125 471.689697265625 442.8359375 471.689697265625 438.69873046875 471.689697265625 C 434.5615234375 471.689697265625 430.010498046875 471.689697265625 425.0458984375 471.689697265625 C 420.218994140625 471.689697265625 415.8056640625 471.689697265625 411.806396484375 471.689697265625 C 407.94482421875 471.689697265625 405.46240234375 471.689697265625 404.359375 471.689697265625 C 398.015380859375 471.689697265625 393.05078125 471.137939453125 389.465087890625 470.03448486328125 C 385.87939453125 468.9310302734375 383.328125 466.7930908203125 381.81103515625 463.6207275390625 C 380.43212890625 460.4482421875 379.742431640625 455.82757568359375 379.742431640625 449.75860595703125 C 379.742431640625 404.5172119140625 379.742431640625 359.27587890625 379.742431640625 314.03448486328125M 131.50537109375 138.37930297851562 C 162.60400390625 138.37930297851562 193.7025146484375 138.37930297851562 224.8011474609375 138.37930297851562 C 224.8011474609375 142.24136352539062 224.8011474609375 146.10345458984375 224.8011474609375 149.96551513671875 C 197.6329345703125 149.96551513671875 170.46484375 149.96551513671875 143.296630859375 149.96551513671875 C 143.296630859375 259.5517272949219 143.296630859375 369.137939453125 143.296630859375 478.72412109375 C 139.3662109375 478.72412109375 135.435791015625 478.72412109375 131.50537109375 478.72412109375 C 131.50537109375 365.27587890625 131.50537109375 251.82757568359375 131.50537109375 138.37930297851562M 221.6981201171875 138.37930297851562 C 222.456787109375 138.37930297851562 223.215087890625 138.37930297851562 223.9736328125 138.37930297851562 C 224.8011474609375 138.10342407226562 225.6285400390625 137.82757568359375 226.4560546875 137.55172729492188 C 228.9383544921875 139.41378784179688 231.4207763671875 141.27584838867188 233.9031982421875 143.13790893554688 C 229.6279296875 153.48275756835938 225.0079345703125 164.51724243164062 220.043212890625 176.24136352539062 C 215.2164306640625 187.82757568359375 210.251708984375 199.55169677734375 205.1490478515625 211.41378784179688 C 200.04638671875 223.13790893554688 194.8057861328125 234.37930297851562 189.4273681640625 245.137939453125 C 206.3902587890625 262.6551513671875 217.6297607421875 278.862060546875 223.146240234375 293.75860595703125 C 228.8004150390625 308.5172119140625 231.627685546875 322.5172119140625 231.627685546875 335.75860595703125 C 231.627685546875 344.310302734375 230.5244140625 352.3792724609375 228.31787109375 359.96551513671875 C 226.2491455078125 367.413818359375 222.8013916015625 372.862060546875 217.974609375 376.310302734375 C 215.6302490234375 377.96551513671875 212.871826171875 379.27587890625 209.7000732421875 380.24139404296875 C 206.5281982421875 381.0689697265625 203.080322265625 381.75860595703125 199.3568115234375 382.310302734375 C 190.116943359375 383.137939453125 180.876953125 383.137939453125 171.636962890625 382.310302734375 C 171.3612060546875 380.9310302734375 170.8785400390625 379.137939453125 170.18896484375 376.9310302734375 C 169.4993896484375 374.72412109375 168.5340576171875 372.6551513671875 167.2928466796875 370.72412109375 C 172.8092041015625 371.0 177.9808349609375 371.2069091796875 182.8076171875 371.3448486328125 C 187.7724609375 371.4827880859375 192.25439453125 371.413818359375 196.25390625 371.137939453125 C 202.0460205078125 370.586181640625 206.666015625 369.27587890625 210.11376953125 367.2069091796875 C 213.8372802734375 364.586181640625 216.3885498046875 360.310302734375 217.7677001953125 354.3792724609375 C 219.28466796875 348.310302734375 220.043212890625 342.10345458984375 220.043212890625 335.75860595703125 C 220.043212890625 323.3448486328125 217.0091552734375 309.89654541015625 210.941162109375 295.4137878417969 C 204.873291015625 280.7930908203125 193.2198486328125 264.586181640625 175.981201171875 246.7930908203125 C 180.394287109375 237.55172729492188 184.7384033203125 228.24139404296875 189.0135498046875 218.862060546875 C 193.288818359375 209.48272705078125 197.426025390625 200.24139404296875 201.4254150390625 191.13790893554688 C 205.4248046875 181.89654541015625 209.0794677734375 173.06893920898438 212.3892822265625 164.6551513671875 C 215.8370361328125 156.10342407226562 218.9400634765625 148.24136352539062 221.6981201171875 141.0689697265625 C 221.6981201171875 140.17239379882812 221.6981201171875 139.27584838867188 221.6981201171875 138.37930297851562"/>
  </g>
</svg>
