<?xml version="1.0" encoding="utf-8"?>
<svg xmlns="http://www.w3.org/2000/svg" xmlns:ev="http://www.w3.org/2001/xml-events" xmlns:xlink="http://www.w3.org/1999/xlink" version="1.1" baseProfile="full" width="7374.0" height="1584.0" viewBox="204.0 -1453.0 7374.0 1584.0">
<defs/>
<g><path d="M 6922.000000 -851.000000 C 6940.333333 -851.000000 6958.666667 -851.000000 6977.000000 -851.000000 C 6977.000000 -578.333333 6977.000000 -305.666667 6977.000000 -33.000000 C 6977.000000 -2.333333 6984.000000 17.666667 6998.000000 27.000000 C 7012.666667 37.000000 7041.666667 42.000000 7085.000000 42.000000 C 7095.000000 42.000000 7114.333333 42.000000 7143.000000 42.000000 C 7172.333333 42.000000 7204.666667 42.000000 7240.000000 42.000000 C 7276.000000 42.000000 7309.333333 42.000000 7340.000000 42.000000 C 7370.666667 42.000000 7393.666667 42.000000 7409.000000 42.000000 C 7439.666667 42.000000 7462.666667 33.000000 7478.000000 15.000000 C 7493.333333 -3.000000 7504.000000 -38.000000 7510.000000 -90.000000 C 7516.000000 -142.666667 7519.666667 -220.666667 7521.000000 -324.000000 C 7527.000000 -320.666667 7533.000000 -316.666667 7539.000000 -312.000000 C 7545.666667 -307.333333 7552.666667 -303.666667 7560.000000 -301.000000 C 7567.333333 -299.000000 7573.333333 -296.666667 7578.000000 -294.000000 C 7575.333333 -190.000000 7569.666667 -109.333333 7561.000000 -52.000000 C 7552.333333 4.666667 7536.666667 44.000000 7514.000000 66.000000 C 7491.333333 88.666667 7456.333333 100.000000 7409.000000 100.000000 C 7401.666667 100.000000 7382.333333 100.000000 7351.000000 100.000000 C 7319.666667 100.000000 7285.000000 100.000000 7247.000000 100.000000 C 7209.000000 100.000000 7174.666667 100.000000 7144.000000 100.000000 C 7113.333333 100.000000 7094.333333 100.000000 7087.000000 100.000000 C 7044.333333 100.000000 7010.666667 96.333333 6986.000000 89.000000 C 6962.000000 82.333333 6945.333333 69.333333 6936.000000 50.000000 C 6926.666667 30.666667 6922.000000 3.000000 6922.000000 -33.000000 C 6922.000000 -305.666667 6922.000000 -578.333333 6922.000000 -851.000000z M 5887.000000 -876.000000 C 6443.000000 -876.000000 6999.000000 -876.000000 7555.000000 -876.000000 C 7555.000000 -856.666667 7555.000000 -837.333333 7555.000000 -818.000000 C 6999.000000 -818.000000 6443.000000 -818.000000 5887.000000 -818.000000 C 5887.000000 -837.333333 5887.000000 -856.666667 5887.000000 -876.000000z M 6048.000000 -1430.000000 C 6500.333333 -1430.000000 6952.666667 -1430.000000 7405.000000 -1430.000000 C 7405.000000 -1411.666667 7405.000000 -1393.333333 7405.000000 -1375.000000 C 6952.666667 -1375.000000 6500.333333 -1375.000000 6048.000000 -1375.000000 C 6048.000000 -1393.333333 6048.000000 -1411.666667 6048.000000 -1430.000000z M 6430.000000 -835.000000 C 6449.333333 -835.000000 6468.666667 -835.000000 6488.000000 -835.000000 C 6478.666667 -726.333333 6464.333333 -623.000000 6445.000000 -525.000000 C 6426.333333 -427.000000 6396.666667 -336.333333 6356.000000 -253.000000 C 6316.000000 -170.333333 6261.000000 -96.333333 6191.000000 -31.000000 C 6121.000000 34.333333 6031.666667 88.333333 5923.000000 131.000000 C 5920.333333 125.666667 5914.666667 119.000000 5906.000000 111.000000 C 5898.000000 103.666667 5891.000000 97.333333 5885.000000 92.000000 C 5991.000000 51.333333 6077.666667 -0.333333 6145.000000 -63.000000 C 6212.333333 -125.666667 6265.333333 -197.333333 6304.000000 -278.000000 C 6343.333333 -358.666667 6372.333333 -446.000000 6391.000000 -540.000000 C 6409.666667 -634.666667 6422.666667 -733.000000 6430.000000 -835.000000z "/>
</g></svg>
