<?xml version="1.0" ?>
<svg xmlns="http://www.w3.org/2000/svg" version="1.1" width="600" height="600">
  <defs/>
  <g>
    <path stroke-width="0" fill="rgb(0, 0, 0)" opacity="1.0" d="M 144.3193359375 138.24453735351562 C 182.1328125 138.24453735351562 219.9462890625 138.24453735351562 257.75927734375 138.24453735351562 C 257.75927734375 214.98394775390625 257.75927734375 291.72332763671875 257.75927734375 368.462646484375 C 219.9462890625 368.462646484375 182.1328125 368.462646484375 144.3193359375 368.462646484375 C 144.3193359375 364.46728515625 144.3193359375 360.47186279296875 144.3193359375 356.4764404296875 C 178.34423828125 356.4764404296875 212.3701171875 356.4764404296875 246.39501953125 356.4764404296875 C 246.39501953125 287.7279052734375 246.39501953125 218.97930908203125 246.39501953125 150.23077392578125 C 212.3701171875 150.23077392578125 178.34423828125 150.23077392578125 144.3193359375 150.23077392578125 C 144.3193359375 146.2353515625 144.3193359375 142.23995971679688 144.3193359375 138.24453735351562M 144.3193359375 245.08724975585938 C 180.548828125 245.08724975585938 216.77734375 245.08724975585938 253.0068359375 245.08724975585938 C 253.0068359375 248.8759765625 253.0068359375 252.66473388671875 253.0068359375 256.4534912109375 C 216.77734375 256.4534912109375 180.548828125 256.4534912109375 144.3193359375 256.4534912109375 C 144.3193359375 252.66473388671875 144.3193359375 248.8759765625 144.3193359375 245.08724975585938M 310.24365234375 129.56484985351562 C 358.73291015625 129.56484985351562 407.22216796875 129.56484985351562 455.71142578125 129.56484985351562 C 455.71142578125 133.35360717773438 455.71142578125 137.142333984375 455.71142578125 140.93109130859375 C 407.22216796875 140.93109130859375 358.73291015625 140.93109130859375 310.24365234375 140.93109130859375 C 310.24365234375 137.142333984375 310.24365234375 133.35360717773438 310.24365234375 129.56484985351562M 310.24365234375 227.521240234375 C 358.73291015625 227.521240234375 407.22216796875 227.521240234375 455.71142578125 227.521240234375 C 455.71142578125 231.37887573242188 455.71142578125 235.23651123046875 455.71142578125 239.0941162109375 C 407.22216796875 239.0941162109375 358.73291015625 239.0941162109375 310.24365234375 239.0941162109375 C 310.24365234375 235.23651123046875 310.24365234375 231.37887573242188 310.24365234375 227.521240234375M 305.904296875 328.370849609375 C 355.49560546875 328.370849609375 405.0869140625 328.370849609375 454.67822265625 328.370849609375 C 454.67822265625 332.1595458984375 454.67822265625 335.9483642578125 454.67822265625 339.737060546875 C 405.0869140625 339.737060546875 355.49560546875 339.737060546875 305.904296875 339.737060546875 C 305.904296875 335.9483642578125 305.904296875 332.1595458984375 305.904296875 328.370849609375M 136.880859375 138.24453735351562 C 140.806640625 138.24453735351562 144.732421875 138.24453735351562 148.658203125 138.24453735351562 C 148.658203125 228.2100830078125 148.658203125 318.1756591796875 148.658203125 408.1412353515625 C 144.732421875 408.1412353515625 140.806640625 408.1412353515625 136.880859375 408.1412353515625 C 136.880859375 318.1756591796875 136.880859375 228.2100830078125 136.880859375 138.24453735351562M 451.37255859375 129.56484985351562 C 455.3671875 129.56484985351562 459.36181640625 129.56484985351562 463.35693359375 129.56484985351562 C 463.35693359375 234.6854248046875 463.35693359375 339.80596923828125 463.35693359375 444.926513671875 C 463.35693359375 451.2640380859375 462.2548828125 455.9483642578125 460.05078125 458.9793701171875 C 457.984375 462.0103759765625 454.4716796875 464.2147216796875 449.5126953125 465.5924072265625 C 444.416015625 466.694580078125 436.56396484375 467.3145751953125 425.95654296875 467.452392578125 C 415.48779296875 467.590087890625 401.50537109375 467.6590576171875 384.0107421875 467.6590576171875 C 383.7353515625 466.55682373046875 383.32177734375 465.24798583984375 382.77099609375 463.73248291015625 C 382.22021484375 462.354736328125 381.60009765625 460.90814208984375 380.9111328125 459.39263916015625 C 380.3603515625 458.014892578125 379.67138671875 456.63720703125 378.84521484375 455.25946044921875 C 388.90087890625 455.5350341796875 398.19921875 455.67279052734375 406.740234375 455.67279052734375 C 415.41845703125 455.67279052734375 422.7880859375 455.6038818359375 428.849609375 455.46612548828125 C 434.9111328125 455.328369140625 439.1123046875 455.25946044921875 441.4541015625 455.25946044921875 C 445.17333984375 454.98388671875 447.72216796875 454.08837890625 449.099609375 452.5728759765625 C 450.61474609375 451.1951904296875 451.37255859375 448.7841796875 451.37255859375 445.33984375 C 451.37255859375 340.08154296875 451.37255859375 234.82318115234375 451.37255859375 129.56484985351562M 303.837890625 129.56484985351562 C 307.6953125 129.56484985351562 311.55224609375 129.56484985351562 315.4091796875 129.56484985351562 C 315.4091796875 175.99423217773438 315.4091796875 222.42364501953125 315.4091796875 268.85302734375 C 315.4091796875 284.9724426269531 314.513671875 301.98736572265625 312.72314453125 319.8978271484375 C 311.0703125 337.6705322265625 307.5576171875 355.5120849609375 302.18505859375 373.4224853515625 C 296.9501953125 391.1951904296875 289.09814453125 408.416748046875 278.62939453125 425.0872802734375 C 268.16015625 441.75775146484375 254.177734375 457.119384765625 236.68310546875 471.1722412109375 C 236.27001953125 470.070068359375 235.5810546875 468.9678955078125 234.61669921875 467.86566162109375 C 233.65283203125 466.9012451171875 232.61962890625 465.86798095703125 231.517578125 464.7657470703125 C 230.55322265625 463.8013916015625 229.65771484375 463.04364013671875 228.8310546875 462.4925537109375 C 245.77490234375 448.9908447265625 259.2060546875 434.3179931640625 269.1240234375 418.47418212890625 C 279.04248046875 402.4925537109375 286.48095703125 386.0286865234375 291.4404296875 369.0826416015625 C 296.537109375 351.99884033203125 299.84326171875 334.98388671875 301.3583984375 318.037841796875 C 303.01171875 301.09185791015625 303.837890625 284.6968994140625 303.837890625 268.85302734375 C 303.837890625 222.42364501953125 303.837890625 175.99423217773438 303.837890625 129.56484985351562"/>
  </g>
</svg>
