<?xml version="1.0" encoding="utf-8"?>
<svg xmlns="http://www.w3.org/2000/svg" xmlns:ev="http://www.w3.org/2001/xml-events" xmlns:xlink="http://www.w3.org/1999/xlink" version="1.1" baseProfile="full" width="49628.0" height="1744.0" viewBox="213.0 -1596.0 49628.0 1744.0">
<defs/>
<g><path d="M 10950.000000 -1298.000000 C 10950.000000 -1253.333333 10950.000000 -1204.666667 10950.000000 -1152.000000 C 10950.000000 -1099.333333 10950.000000 -1047.666667 10950.000000 -997.000000 C 10950.000000 -947.000000 10950.000000 -902.000000 10950.000000 -862.000000 C 10950.000000 -808.000000 10951.000000 -749.333333 10953.000000 -686.000000 C 10955.666667 -622.666667 10958.666667 -559.666667 10962.000000 -497.000000 C 10965.333333 -434.333333 10968.333333 -376.666667 10971.000000 -324.000000 C 10973.666667 -272.000000 10975.000000 -229.333333 10975.000000 -196.000000 C 10975.000000 -125.333333 10949.666667 -72.333333 10899.000000 -37.000000 C 10848.333333 -2.333333 10782.000000 15.000000 10700.000000 15.000000 C 10633.333333 15.000000 10574.666667 6.333333 10524.000000 -11.000000 C 10474.000000 -29.000000 10434.666667 -55.333333 10406.000000 -90.000000 C 10378.000000 -124.666667 10364.000000 -167.666667 10364.000000 -219.000000 C 10364.000000 -253.666667 10374.666667 -288.000000 10396.000000 -322.000000 C 10418.000000 -356.666667 10454.000000 -385.666667 10504.000000 -409.000000 C 10554.000000 -432.333333 10620.666667 -444.000000 10704.000000 -444.000000 C 10778.000000 -444.000000 10847.333333 -436.000000 10912.000000 -420.000000 C 10976.666667 -404.666667 11036.666667 -384.000000 11092.000000 -358.000000 C 11148.000000 -332.000000 11200.666667 -301.333333 11250.000000 -266.000000 C 11299.333333 -230.666667 11345.666667 -194.000000 11389.000000 -156.000000 C 11377.000000 -136.000000 11365.000000 -116.000000 11353.000000 -96.000000 C 11293.000000 -158.666667 11228.000000 -212.000000 11158.000000 -256.000000 C 11088.000000 -300.666667 11015.000000 -334.333333 10939.000000 -357.000000 C 10863.000000 -380.333333 10784.666667 -392.000000 10704.000000 -392.000000 C 10620.666667 -392.000000 10552.000000 -376.000000 10498.000000 -344.000000 C 10444.666667 -312.000000 10418.000000 -270.333333 10418.000000 -219.000000 C 10418.000000 -159.000000 10443.666667 -113.666667 10495.000000 -83.000000 C 10547.000000 -53.000000 10616.666667 -38.000000 10704.000000 -38.000000 C 10766.666667 -38.000000 10813.333333 -47.666667 10844.000000 -67.000000 C 10874.666667 -86.333333 10895.333333 -112.000000 10906.000000 -144.000000 C 10917.333333 -176.000000 10923.000000 -210.666667 10923.000000 -248.000000 C 10923.000000 -273.333333 10921.666667 -309.666667 10919.000000 -357.000000 C 10916.333333 -404.333333 10913.000000 -457.000000 10909.000000 -515.000000 C 10905.666667 -573.666667 10902.666667 -632.666667 10900.000000 -692.000000 C 10897.333333 -751.333333 10896.000000 -806.000000 10896.000000 -856.000000 C 10896.000000 -896.000000 10896.000000 -942.333333 10896.000000 -995.000000 C 10896.000000 -1048.333333 10896.000000 -1102.000000 10896.000000 -1156.000000 C 10896.000000 -1210.666667 10896.000000 -1258.000000 10896.000000 -1298.000000 C 10914.000000 -1298.000000 10932.000000 -1298.000000 10950.000000 -1298.000000z M 10404.000000 -889.000000 C 10514.666667 -881.000000 10626.000000 -877.666667 10738.000000 -879.000000 C 10850.000000 -880.333333 10957.666667 -884.666667 11061.000000 -892.000000 C 11165.000000 -900.000000 11258.000000 -908.666667 11340.000000 -918.000000 C 11340.000000 -898.000000 11340.000000 -878.000000 11340.000000 -858.000000 C 11260.000000 -850.666667 11167.666667 -843.333333 11063.000000 -836.000000 C 10958.333333 -829.333333 10849.333333 -825.000000 10736.000000 -823.000000 C 10622.666667 -821.000000 10512.000000 -823.000000 10404.000000 -829.000000 C 10404.000000 -849.000000 10404.000000 -869.000000 10404.000000 -889.000000z M 10435.000000 -1331.000000 C 10501.666667 -1325.666667 10573.666667 -1322.666667 10651.000000 -1322.000000 C 10728.333333 -1321.333333 10806.000000 -1322.666667 10884.000000 -1326.000000 C 10962.666667 -1329.333333 11037.000000 -1333.666667 11107.000000 -1339.000000 C 11177.666667 -1345.000000 11239.666667 -1351.666667 11293.000000 -1359.000000 C 11293.000000 -1340.000000 11293.000000 -1321.000000 11293.000000 -1302.000000 C 11242.333333 -1296.666667 11181.666667 -1291.333333 11111.000000 -1286.000000 C 11040.333333 -1281.333333 10965.666667 -1277.333333 10887.000000 -1274.000000 C 10808.333333 -1270.666667 10730.000000 -1268.666667 10652.000000 -1268.000000 C 10574.000000 -1267.333333 10501.666667 -1269.000000 10435.000000 -1273.000000 C 10435.000000 -1292.333333 10435.000000 -1311.666667 10435.000000 -1331.000000z M 10038.000000 -1428.000000 C 10035.333333 -1420.666667 10032.666667 -1412.333333 10030.000000 -1403.000000 C 10027.333333 -1394.333333 10025.000000 -1385.000000 10023.000000 -1375.000000 C 10021.000000 -1365.666667 10019.000000 -1355.333333 10017.000000 -1344.000000 C 10007.666667 -1298.000000 9998.000000 -1249.000000 9988.000000 -1197.000000 C 9978.666667 -1145.000000 9969.666667 -1091.333333 9961.000000 -1036.000000 C 9953.000000 -981.333333 9945.666667 -926.333333 9939.000000 -871.000000 C 9933.000000 -816.333333 9928.000000 -762.333333 9924.000000 -709.000000 C 9920.666667 -656.333333 9919.000000 -606.333333 9919.000000 -559.000000 C 9919.000000 -484.333333 9921.333333 -416.000000 9926.000000 -354.000000 C 9931.333333 -292.000000 9938.666667 -223.333333 9948.000000 -148.000000 C 9959.333333 -184.000000 9973.000000 -225.000000 9989.000000 -271.000000 C 10005.000000 -317.000000 10021.333333 -362.000000 10038.000000 -406.000000 C 10054.666667 -450.000000 10069.333333 -487.333333 10082.000000 -518.000000 C 10094.666667 -507.333333 10107.333333 -496.666667 10120.000000 -486.000000 C 10106.000000 -451.333333 10089.666667 -408.333333 10071.000000 -357.000000 C 10053.000000 -305.666667 10036.000000 -256.333333 10020.000000 -209.000000 C 10004.000000 -161.666667 9992.666667 -124.000000 9986.000000 -96.000000 C 9983.333333 -83.333333 9981.000000 -69.666667 9979.000000 -55.000000 C 9977.000000 -40.333333 9976.666667 -26.333333 9978.000000 -13.000000 C 9979.333333 -4.333333 9980.666667 5.000000 9982.000000 15.000000 C 9983.333333 25.666667 9984.666667 34.000000 9986.000000 40.000000 C 9968.000000 42.000000 9950.000000 44.000000 9932.000000 46.000000 C 9912.666667 -25.333333 9896.333333 -111.333333 9883.000000 -212.000000 C 9869.666667 -312.666667 9863.000000 -427.666667 9863.000000 -557.000000 C 9863.000000 -625.666667 9866.666667 -697.333333 9874.000000 -772.000000 C 9882.000000 -847.333333 9891.333333 -921.000000 9902.000000 -993.000000 C 9913.333333 -1065.666667 9924.000000 -1133.000000 9934.000000 -1195.000000 C 9944.000000 -1257.000000 9952.333333 -1309.333333 9959.000000 -1352.000000 C 9961.666667 -1370.000000 9963.666667 -1386.000000 9965.000000 -1400.000000 C 9966.333333 -1414.000000 9967.000000 -1426.000000 9967.000000 -1436.000000 C 9990.666667 -1433.333333 10014.333333 -1430.666667 10038.000000 -1428.000000z "/>
</g></svg>
