<?xml version="1.0" encoding="utf-8"?>
<svg xmlns="http://www.w3.org/2000/svg" xmlns:ev="http://www.w3.org/2001/xml-events" xmlns:xlink="http://www.w3.org/1999/xlink" version="1.1" baseProfile="full" width="49628.0" height="1744.0" viewBox="213.0 -1596.0 49628.0 1744.0">
<defs/>
<g><path d="M 4869.000000 -1306.000000 C 4857.666667 -1204.666667 4842.333333 -1099.666667 4823.000000 -991.000000 C 4803.666667 -883.000000 4780.666667 -783.666667 4754.000000 -693.000000 C 4714.000000 -559.666667 4672.000000 -451.000000 4628.000000 -367.000000 C 4584.000000 -283.666667 4538.666667 -222.333333 4492.000000 -183.000000 C 4445.333333 -144.333333 4397.666667 -125.000000 4349.000000 -125.000000 C 4306.333333 -125.000000 4262.333333 -142.000000 4217.000000 -176.000000 C 4171.666667 -210.666667 4133.333333 -262.666667 4102.000000 -332.000000 C 4070.666667 -401.333333 4055.000000 -487.666667 4055.000000 -591.000000 C 4055.000000 -689.666667 4075.333333 -783.000000 4116.000000 -871.000000 C 4157.333333 -959.666667 4214.333333 -1038.666667 4287.000000 -1108.000000 C 4360.333333 -1177.333333 4445.333333 -1231.666667 4542.000000 -1271.000000 C 4638.666667 -1311.000000 4742.000000 -1331.000000 4852.000000 -1331.000000 C 4958.000000 -1331.000000 5053.666667 -1313.333333 5139.000000 -1278.000000 C 5224.333333 -1242.666667 5297.333333 -1194.666667 5358.000000 -1134.000000 C 5418.666667 -1073.333333 5465.333333 -1003.000000 5498.000000 -923.000000 C 5530.666667 -843.000000 5547.000000 -758.000000 5547.000000 -668.000000 C 5547.000000 -534.000000 5517.333333 -417.666667 5458.000000 -319.000000 C 5399.333333 -220.333333 5317.000000 -141.333333 5211.000000 -82.000000 C 5105.000000 -23.333333 4980.000000 13.666667 4836.000000 29.000000 C 4825.333333 9.666667 4814.666667 -9.666667 4804.000000 -29.000000 C 4828.000000 -30.333333 4854.000000 -32.333333 4882.000000 -35.000000 C 4910.666667 -38.333333 4934.666667 -42.000000 4954.000000 -46.000000 C 5015.333333 -58.666667 5077.666667 -80.666667 5141.000000 -112.000000 C 5204.333333 -143.333333 5262.333333 -184.333333 5315.000000 -235.000000 C 5368.333333 -285.666667 5411.333333 -347.000000 5444.000000 -419.000000 C 5476.666667 -491.666667 5493.000000 -576.000000 5493.000000 -672.000000 C 5493.000000 -751.333333 5478.666667 -827.000000 5450.000000 -899.000000 C 5421.333333 -971.666667 5379.333333 -1036.000000 5324.000000 -1092.000000 C 5269.333333 -1148.666667 5202.333333 -1193.666667 5123.000000 -1227.000000 C 5043.666667 -1260.333333 4953.333333 -1277.000000 4852.000000 -1277.000000 C 4743.333333 -1277.000000 4643.333333 -1256.666667 4552.000000 -1216.000000 C 4461.333333 -1176.000000 4382.666667 -1122.666667 4316.000000 -1056.000000 C 4249.333333 -989.333333 4198.000000 -915.666667 4162.000000 -835.000000 C 4126.666667 -754.333333 4109.000000 -673.666667 4109.000000 -593.000000 C 4109.000000 -497.000000 4122.333333 -418.666667 4149.000000 -358.000000 C 4175.666667 -297.333333 4208.000000 -252.666667 4246.000000 -224.000000 C 4284.000000 -196.000000 4319.666667 -182.000000 4353.000000 -182.000000 C 4386.333333 -182.000000 4422.000000 -198.666667 4460.000000 -232.000000 C 4498.666667 -265.333333 4538.333333 -320.666667 4579.000000 -398.000000 C 4620.333333 -476.000000 4660.000000 -579.333333 4698.000000 -708.000000 C 4726.000000 -802.000000 4749.666667 -900.000000 4769.000000 -1002.000000 C 4788.333333 -1104.666667 4802.666667 -1205.333333 4812.000000 -1304.000000 C 4831.000000 -1304.666667 4850.000000 -1305.333333 4869.000000 -1306.000000z "/>
</g></svg>
