<?xml version="1.0" ?>
<svg xmlns="http://www.w3.org/2000/svg" version="1.1" width="600" height="600">
  <defs/>
  <g>
    <path stroke-width="0" fill="rgb(0, 0, 0)" opacity="1.0" d="M 426.55792236328125 144.23162841796875 C 425.0521240234375 147.09414672851562 423.3203125 150.86065673828125 421.36273193359375 155.53106689453125 C 419.55572509765625 160.05084228515625 417.974609375 164.34463500976562 416.6192626953125 168.41241455078125 C 411.34881591796875 182.87570190429688 404.948974609375 198.39358520507812 397.419677734375 214.96609497070312 C 389.890380859375 231.387939453125 381.38238525390625 247.80978393554688 371.8955078125 264.23162841796875 C 362.40863037109375 280.5028076171875 351.717041015625 296.0207214355469 339.82086181640625 310.7852783203125 C 325.66583251953125 328.7137451171875 309.4779052734375 346.7928466796875 291.25714111328125 365.0225830078125 C 273.03631591796875 383.2523193359375 252.85791015625 400.72882080078125 230.72186279296875 417.45196533203125 C 208.58584594726562 434.02447509765625 184.266357421875 448.7890625 157.76333618164062 461.7457275390625 C 153.99871826171875 458.4312744140625 150.23406982421875 455.11676025390625 146.46945190429688 451.80224609375 C 187.72979736328125 432.06591796875 223.1173095703125 409.16571044921875 252.63201904296875 383.1016845703125 C 282.146728515625 356.88702392578125 307.5955810546875 330.295654296875 328.97869873046875 303.32769775390625 C 347.8018798828125 279.97552490234375 363.23681640625 256.0207214355469 375.28369140625 231.4632568359375 C 387.4810791015625 206.75518798828125 397.19384765625 184.00564575195312 404.421875 163.21469116210938 C 405.6265869140625 160.05084228515625 406.90655517578125 156.20904541015625 408.2618408203125 151.68927001953125 C 409.7677001953125 147.01882934570312 410.97235107421875 142.80035400390625 411.8758544921875 139.03390502929688 C 416.7698974609375 140.7664794921875 421.6639404296875 142.49905395507812 426.55792236328125 144.23162841796875M 206.55294799804688 204.11865234375 C 217.39508056640625 211.0489501953125 228.99014282226562 218.95855712890625 241.338134765625 227.84747314453125 C 253.83670043945312 236.585693359375 266.2599792480469 245.47457885742188 278.60797119140625 254.51412963867188 C 291.1065368652344 263.40301513671875 302.70159912109375 272.06591796875 313.3931884765625 280.5028076171875 C 324.084716796875 288.7890625 333.0445556640625 296.0207214355469 340.2725830078125 302.19775390625 C 360.752197265625 319.5235595703125 380.7047119140625 337.0 400.1302490234375 354.62713623046875 C 419.706298828125 372.2542724609375 437.9271240234375 390.4840087890625 454.79266357421875 409.31640625 C 451.47979736328125 412.630859375 448.1668701171875 415.94537353515625 444.85400390625 419.2598876953125 C 427.3861083984375 399.5235595703125 409.31591796875 381.14312744140625 390.64337158203125 364.11865234375 C 372.121337890625 347.09417724609375 352.5452880859375 329.76837158203125 331.9151611328125 312.1412353515625 C 324.23529052734375 305.51226806640625 314.97430419921875 297.9039611816406 304.13214111328125 289.31640625 C 293.2900390625 280.72882080078125 281.61968994140625 271.9152526855469 269.12109375 262.8757019042969 C 256.6225280761719 253.68548583984375 244.19924926757812 244.947265625 231.85125732421875 236.6610107421875 C 219.65386962890625 228.22412109375 208.51055908203125 220.841796875 198.42135620117188 214.51412963867188 C 201.13189697265625 211.0489501953125 203.8424072265625 207.58380126953125 206.55294799804688 204.11865234375"/>
  </g>
</svg>
