<?xml version="1.0" ?>
<svg xmlns="http://www.w3.org/2000/svg" version="1.1" width="600" height="600">
  <defs/>
  <g>
    <path stroke-width="0" fill="rgb(0, 0, 0)" opacity="1.0" d="M 208.63916015625 221.5172119140625 C 212.36279296875 223.24139404296875 216.08642578125 224.96551513671875 219.809814453125 226.68963623046875 C 214.84521484375 237.03448486328125 209.259765625 248.0 203.053955078125 259.586181640625 C 196.98583984375 271.03448486328125 190.780029296875 282.2069091796875 184.43603515625 293.10345458984375 C 178.09228515625 304.0 172.024169921875 313.5172119140625 166.23193359375 321.6551513671875 C 163.197998046875 319.9310302734375 160.1640625 318.2069091796875 157.1298828125 316.4827880859375 C 162.92236328125 308.3448486328125 168.990234375 298.68963623046875 175.333984375 287.5172424316406 C 181.677978515625 276.2069091796875 187.81494140625 264.75860595703125 193.7451171875 253.17242431640625 C 199.81298828125 241.4482421875 204.777587890625 230.89654541015625 208.63916015625 221.5172119140625M 265.940673828125 281.9310302734375 C 269.664306640625 283.6551513671875 273.3876953125 285.3793029785156 277.111328125 287.10345458984375 C 269.112548828125 300.62066650390625 260.21728515625 314.89654541015625 250.42578125 329.9310302734375 C 240.63427734375 344.82757568359375 230.498046875 359.862060546875 220.016845703125 375.03448486328125 C 209.53564453125 390.0689697265625 199.0546875 404.4827880859375 188.573486328125 418.27587890625 C 178.230224609375 432.0689697265625 168.30078125 444.3448486328125 158.784912109375 455.10345458984375 C 155.68212890625 453.24139404296875 152.5791015625 451.3792724609375 149.47607421875 449.5172119140625 C 159.1298828125 438.75860595703125 169.128173828125 426.4827880859375 179.471435546875 412.689697265625 C 189.95263671875 398.89654541015625 200.43359375 384.413818359375 210.914794921875 369.24139404296875 C 221.39599609375 353.9310302734375 231.394287109375 338.82757568359375 240.91015625 323.9310302734375 C 250.42578125 308.89654541015625 258.769287109375 294.89654541015625 265.940673828125 281.9310302734375M 236.152099609375 383.72412109375 C 239.60009765625 382.413818359375 243.047607421875 381.10345458984375 246.495361328125 379.7930908203125 C 253.942626953125 389.310302734375 260.975830078125 399.6551513671875 267.595458984375 410.82757568359375 C 274.21533203125 421.862060546875 280.076416015625 432.89654541015625 285.178955078125 443.9310302734375 C 290.41943359375 454.82757568359375 294.212158203125 464.689697265625 296.556640625 473.5172119140625 C 292.8330078125 475.10345458984375 289.109375 476.689697265625 285.385986328125 478.27587890625 C 283.04150390625 469.4482421875 279.31787109375 459.586181640625 274.21533203125 448.689697265625 C 269.25048828125 437.6551513671875 263.458251953125 426.4827880859375 256.838623046875 415.17242431640625 C 250.218994140625 403.72412109375 243.323486328125 393.24139404296875 236.152099609375 383.72412109375M 133.75439453125 302.2069091796875 C 136.512451171875 299.72412109375 139.270751953125 297.24139404296875 142.02880859375 294.75860595703125 C 152.096435546875 302.3448486328125 162.02587890625 310.75860595703125 171.8173828125 320.0 C 181.60888671875 329.10345458984375 190.64208984375 338.2069091796875 198.91650390625 347.310302734375 C 207.3291015625 356.413818359375 214.017822265625 364.68963623046875 218.982421875 372.137939453125 C 215.948486328125 374.89654541015625 212.91455078125 377.6551513671875 209.88037109375 380.413818359375 C 204.915771484375 373.10345458984375 198.22705078125 364.82757568359375 189.814697265625 355.586181640625 C 181.5400390625 346.2069091796875 172.5068359375 336.82757568359375 162.71533203125 327.4482421875 C 152.923828125 318.0689697265625 143.27001953125 309.6551513671875 133.75439453125 302.2069091796875M 122.583740234375 446.82757568359375 C 142.1669921875 445.4482421875 165.680419921875 443.862060546875 193.12451171875 442.0689697265625 C 220.706298828125 440.27587890625 248.977783203125 438.413818359375 277.938720703125 436.4827880859375 C 277.938720703125 439.9310302734375 277.938720703125 443.3792724609375 277.938720703125 446.82757568359375 C 249.80517578125 449.17242431640625 222.292236328125 451.4482421875 195.39990234375 453.6551513671875 C 168.507568359375 456.0 144.856201171875 457.862060546875 124.4453125 459.24139404296875 C 123.82470703125 455.10345458984375 123.2041015625 450.96551513671875 122.583740234375 446.82757568359375M 373.510009765625 221.5172119140625 C 377.37158203125 223.24139404296875 381.23291015625 224.96551513671875 385.094482421875 226.68963623046875 C 379.85400390625 237.31036376953125 373.923828125 248.62066650390625 367.30419921875 260.62066650390625 C 360.6845703125 272.48272705078125 353.995849609375 284.0 347.23828125 295.17242431640625 C 340.480712890625 306.2069091796875 333.9990234375 316.0 327.79296875 324.5517578125 C 324.759033203125 323.10345458984375 321.72509765625 321.6551513671875 318.69091796875 320.2069091796875 C 324.759033203125 311.6551513671875 331.171875 301.586181640625 337.929443359375 290.0 C 344.68701171875 278.2758483886719 351.237548828125 266.4137878417969 357.58154296875 254.41378784179688 C 364.063232421875 242.27584838867188 369.372802734375 231.31036376953125 373.510009765625 221.5172119140625M 432.67333984375 281.5172424316406 C 436.534912109375 283.2413635253906 440.396240234375 284.96551513671875 444.257568359375 286.68963623046875 C 436.12109375 300.2069091796875 427.087890625 314.62066650390625 417.158447265625 329.9310302734375 C 407.22900390625 345.10345458984375 396.8857421875 360.3448486328125 386.12890625 375.6551513671875 C 375.371826171875 390.82757568359375 364.683837890625 405.3792724609375 354.06494140625 419.310302734375 C 343.44580078125 433.10345458984375 333.37841796875 445.4482421875 323.862548828125 456.3448486328125 C 320.82861328125 454.6207275390625 317.794677734375 452.89654541015625 314.760498046875 451.17242431640625 C 324.2763671875 440.27587890625 334.412841796875 427.862060546875 345.169677734375 413.9310302734375 C 355.926513671875 399.862060546875 366.545654296875 385.10345458984375 377.02685546875 369.6551513671875 C 387.645751953125 354.0689697265625 397.781982421875 338.75860595703125 407.435791015625 323.72412109375 C 417.227294921875 308.5517578125 425.639892578125 294.4827575683594 432.67333984375 281.5172424316406M 407.642578125 381.24139404296875 C 411.090576171875 379.6551513671875 414.5380859375 378.0689697265625 417.98583984375 376.4827880859375 C 426.812255859375 386.27587890625 435.155517578125 396.96551513671875 443.0166015625 408.5517578125 C 451.015380859375 420.0 458.11767578125 431.3792724609375 464.323486328125 442.689697265625 C 470.529541015625 453.862060546875 475.218505859375 464.0 478.390380859375 473.10345458984375 C 474.666748046875 474.82757568359375 470.943115234375 476.5517578125 467.219482421875 478.27587890625 C 464.0478515625 469.17242431640625 459.358642578125 458.96551513671875 453.15283203125 447.6551513671875 C 446.947021484375 436.2069091796875 439.91357421875 424.75860595703125 432.052734375 413.310302734375 C 424.329833984375 401.72412109375 416.193115234375 391.03448486328125 407.642578125 381.24139404296875M 293.660400390625 302.2069091796875 C 296.62548828125 299.72412109375 299.590576171875 297.24139404296875 302.5556640625 294.75860595703125 C 312.7607421875 302.62066650390625 323.03515625 311.3792724609375 333.37841796875 321.03448486328125 C 343.7216796875 330.5517578125 353.2373046875 339.9310302734375 361.92578125 349.17242431640625 C 370.751953125 358.413818359375 377.785400390625 366.89654541015625 383.02587890625 374.6207275390625 C 379.85400390625 377.3792724609375 376.681884765625 380.137939453125 373.510009765625 382.89654541015625 C 368.26953125 375.17242431640625 361.30517578125 366.5517578125 352.61669921875 357.03448486328125 C 344.06640625 347.5172119140625 334.61962890625 337.9310302734375 324.2763671875 328.27587890625 C 313.93310546875 318.62066650390625 303.72802734375 309.9310302734375 293.660400390625 302.2069091796875M 297.7978515625 446.82757568359375 C 317.794677734375 445.4482421875 341.85986328125 443.862060546875 369.993408203125 442.0689697265625 C 398.126953125 440.27587890625 426.881103515625 438.27587890625 456.255859375 436.0689697265625 C 456.255859375 439.5172119140625 456.255859375 442.96551513671875 456.255859375 446.413818359375 C 427.846435546875 449.03448486328125 399.919921875 451.4482421875 372.475830078125 453.6551513671875 C 345.169677734375 456.0 320.897705078125 457.862060546875 299.659423828125 459.24139404296875 C 299.038818359375 455.10345458984375 298.41845703125 450.96551513671875 297.7978515625 446.82757568359375M 128.582763671875 198.96551513671875 C 243.599365234375 198.96551513671875 358.615966796875 198.96551513671875 473.63232421875 198.96551513671875 C 473.63232421875 202.82757568359375 473.63232421875 206.68963623046875 473.63232421875 210.55169677734375 C 358.615966796875 210.55169677734375 243.599365234375 210.55169677734375 128.582763671875 210.55169677734375 C 128.582763671875 206.68963623046875 128.582763671875 202.82757568359375 128.582763671875 198.96551513671875M 192.090087890625 127.7930908203125 C 195.537841796875 126.48272705078125 198.985595703125 125.17242431640625 202.433349609375 123.862060546875 C 208.2255859375 130.75860595703125 213.94873046875 138.27584838867188 219.60302734375 146.41378784179688 C 225.395263671875 154.41378784179688 230.56689453125 162.27584838867188 235.117919921875 170.0 C 239.806884765625 177.586181640625 243.46142578125 184.48275756835938 246.081787109375 190.68963623046875 C 242.358154296875 192.55172729492188 238.634521484375 194.41378784179688 234.910888671875 196.27584838867188 C 232.566650390625 190.0689697265625 229.0498046875 183.03448486328125 224.36083984375 175.17239379882812 C 219.809814453125 167.17242431640625 214.707275390625 159.03448486328125 209.052978515625 150.75860595703125 C 203.53662109375 142.34481811523438 197.88232421875 134.68966674804688 192.090087890625 127.7930908203125M 392.334716796875 122.62066650390625 C 396.127197265625 124.48275756835938 399.919921875 126.34481811523438 403.712158203125 128.20687866210938 C 396.26513671875 139.9310302734375 388.0595703125 152.48275756835938 379.095458984375 165.862060546875 C 370.13134765625 179.24136352539062 361.64990234375 190.55172729492188 353.651123046875 199.7930908203125 C 350.7548828125 198.0689697265625 347.85888671875 196.3448486328125 344.962890625 194.62066650390625 C 350.203369140625 188.27584838867188 355.7197265625 180.89654541015625 361.511962890625 172.48275756835938 C 367.442138671875 163.9310302734375 373.096435546875 155.31033325195312 378.474853515625 146.62066650390625 C 383.9912109375 137.7930908203125 388.611083984375 129.7930908203125 392.334716796875 122.62066650390625"/>
  </g>
</svg>
