<?xml version="1.0" encoding="utf-8"?>
<svg xmlns="http://www.w3.org/2000/svg" xmlns:ev="http://www.w3.org/2001/xml-events" xmlns:xlink="http://www.w3.org/1999/xlink" version="1.1" baseProfile="full" width="7335.0" height="1586.0" viewBox="138.0 -1540.0 7335.0 1586.0">
<defs/>
<g><path d="M 5255.000000 -1473.000000 C 5271.666667 -1451.000000 5289.666667 -1424.666667 5309.000000 -1394.000000 C 5328.333333 -1363.333333 5347.333333 -1332.000000 5366.000000 -1300.000000 C 5385.333333 -1268.000000 5402.000000 -1238.000000 5416.000000 -1210.000000 C 5398.333333 -1201.000000 5380.666667 -1192.000000 5363.000000 -1183.000000 C 5345.000000 -1221.000000 5320.333333 -1265.666667 5289.000000 -1317.000000 C 5257.666667 -1368.333333 5229.000000 -1412.000000 5203.000000 -1448.000000 C 5220.333333 -1456.333333 5237.666667 -1464.666667 5255.000000 -1473.000000z M 5449.000000 -1540.000000 C 5467.000000 -1516.666667 5486.000000 -1489.333333 5506.000000 -1458.000000 C 5526.666667 -1426.666667 5547.000000 -1395.333333 5567.000000 -1364.000000 C 5587.000000 -1332.666667 5603.333333 -1304.333333 5616.000000 -1279.000000 C 5598.000000 -1270.000000 5580.000000 -1261.000000 5562.000000 -1252.000000 C 5540.666667 -1295.333333 5515.000000 -1341.000000 5485.000000 -1389.000000 C 5455.666667 -1437.000000 5427.000000 -1479.000000 5399.000000 -1515.000000 C 5415.666667 -1523.333333 5432.333333 -1531.666667 5449.000000 -1540.000000z M 4729.000000 -1457.000000 C 4727.666667 -1437.000000 4726.333333 -1414.333333 4725.000000 -1389.000000 C 4723.666667 -1364.333333 4722.333333 -1340.333333 4721.000000 -1317.000000 C 4715.000000 -1116.333333 4696.000000 -943.000000 4664.000000 -797.000000 C 4632.000000 -651.000000 4589.000000 -525.666667 4535.000000 -421.000000 C 4481.000000 -317.000000 4418.666667 -228.000000 4348.000000 -154.000000 C 4278.000000 -80.666667 4201.333333 -16.000000 4118.000000 40.000000 C 4099.666667 24.666667 4081.333333 9.333333 4063.000000 -6.000000 C 4084.333333 -16.000000 4108.000000 -30.666667 4134.000000 -50.000000 C 4160.666667 -69.333333 4183.666667 -86.666667 4203.000000 -102.000000 C 4260.333333 -148.000000 4316.000000 -204.333333 4370.000000 -271.000000 C 4424.000000 -337.666667 4472.666667 -418.333333 4516.000000 -513.000000 C 4559.333333 -607.666667 4594.333333 -720.666667 4621.000000 -852.000000 C 4648.333333 -984.000000 4662.666667 -1138.333333 4664.000000 -1315.000000 C 4664.000000 -1330.333333 4663.666667 -1346.000000 4663.000000 -1362.000000 C 4662.333333 -1378.000000 4661.333333 -1394.333333 4660.000000 -1411.000000 C 4658.666667 -1427.666667 4656.666667 -1443.000000 4654.000000 -1457.000000 C 4679.000000 -1457.000000 4704.000000 -1457.000000 4729.000000 -1457.000000z M 5412.000000 -1071.000000 C 5410.000000 -1054.333333 5408.333333 -1039.333333 5407.000000 -1026.000000 C 5405.666667 -1012.666667 5404.333333 -999.000000 5403.000000 -985.000000 C 5401.666667 -953.000000 5399.666667 -906.666667 5397.000000 -846.000000 C 5394.333333 -785.333333 5390.000000 -717.666667 5384.000000 -643.000000 C 5378.666667 -569.000000 5371.333333 -494.666667 5362.000000 -420.000000 C 5353.333333 -346.000000 5342.666667 -278.000000 5330.000000 -216.000000 C 5317.333333 -154.000000 5302.000000 -105.666667 5284.000000 -71.000000 C 5266.000000 -37.666667 5244.000000 -15.000000 5218.000000 -3.000000 C 5192.666667 9.000000 5159.666667 15.000000 5119.000000 15.000000 C 5077.666667 15.000000 5030.666667 14.000000 4978.000000 12.000000 C 4926.000000 10.666667 4873.666667 8.666667 4821.000000 6.000000 C 4818.333333 -15.333333 4815.666667 -36.666667 4813.000000 -58.000000 C 4869.666667 -52.666667 4923.333333 -48.333333 4974.000000 -45.000000 C 5024.666667 -41.666667 5071.666667 -40.000000 5115.000000 -40.000000 C 5139.000000 -40.000000 5161.333333 -43.666667 5182.000000 -51.000000 C 5202.666667 -59.000000 5218.666667 -74.666667 5230.000000 -98.000000 C 5248.000000 -132.666667 5263.333333 -180.333333 5276.000000 -241.000000 C 5288.666667 -301.666667 5299.333333 -369.000000 5308.000000 -443.000000 C 5317.333333 -517.666667 5324.666667 -592.333333 5330.000000 -667.000000 C 5335.333333 -742.333333 5338.666667 -812.000000 5340.000000 -876.000000 C 5342.000000 -940.666667 5343.000000 -993.666667 5343.000000 -1035.000000 C 4981.000000 -1035.000000 4619.000000 -1035.000000 4257.000000 -1035.000000 C 4213.000000 -1035.000000 4177.333333 -1034.666667 4150.000000 -1034.000000 C 4122.666667 -1033.333333 4095.000000 -1031.666667 4067.000000 -1029.000000 C 4067.000000 -1052.666667 4067.000000 -1076.333333 4067.000000 -1100.000000 C 4093.666667 -1098.666667 4122.333333 -1097.000000 4153.000000 -1095.000000 C 4183.666667 -1093.000000 4217.666667 -1092.000000 4255.000000 -1092.000000 C 4591.000000 -1092.000000 4927.000000 -1092.000000 5263.000000 -1092.000000 C 5289.666667 -1092.000000 5310.333333 -1092.666667 5325.000000 -1094.000000 C 5339.666667 -1095.333333 5351.666667 -1096.666667 5361.000000 -1098.000000 C 5378.000000 -1089.000000 5395.000000 -1080.000000 5412.000000 -1071.000000z "/>
</g></svg>
