<?xml version="1.0" ?>
<svg xmlns="http://www.w3.org/2000/svg" version="1.1" width="600" height="600">
  <defs/>
  <g>
    <path stroke-width="0" fill="rgb(0, 0, 0)" opacity="1.0" d="M 127.29248046875 133.32110595703125 C 240.958984375 133.32110595703125 354.625 133.32110595703125 468.291015625 133.32110595703125 C 468.291015625 137.10552978515625 468.291015625 140.889892578125 468.291015625 144.67431640625 C 354.625 144.67431640625 240.958984375 144.67431640625 127.29248046875 144.67431640625 C 127.29248046875 140.889892578125 127.29248046875 137.10552978515625 127.29248046875 133.32110595703125M 293.8701171875 138.06881713867188 C 297.7919921875 138.06881713867188 301.7138671875 138.06881713867188 305.6357421875 138.06881713867188 C 305.6357421875 187.197265625 305.6357421875 236.32568359375 305.6357421875 285.4541320800781 C 305.6357421875 299.9036865234375 304.81005859375 314.215576171875 303.15869140625 328.389892578125 C 301.50732421875 342.564208984375 297.654296875 356.25689697265625 291.599609375 369.4678955078125 C 285.68212890625 382.67889404296875 276.3935546875 395.2706298828125 263.7333984375 407.2431640625 C 251.07373046875 419.0780029296875 233.734375 429.9495849609375 211.716796875 439.8577880859375 C 189.83642578125 449.76605224609375 162.1083984375 458.50457763671875 128.53125 466.0733642578125 C 127.98046875 465.38531494140625 127.29248046875 464.4219970703125 126.466796875 463.1834716796875 C 125.779296875 461.9449462890625 125.02197265625 460.6375732421875 124.1962890625 459.261474609375 C 123.37060546875 458.02294921875 122.61376953125 456.85321044921875 121.92578125 455.7523193359375 C 155.22705078125 448.73394775390625 182.54345703125 440.5458984375 203.873046875 431.1881103515625 C 225.34033203125 421.692626953125 242.12841796875 411.37158203125 254.23828125 400.2247314453125 C 266.34814453125 388.94036865234375 275.22412109375 377.03668212890625 280.86572265625 364.5137939453125 C 286.6455078125 351.9908447265625 290.22314453125 339.12384033203125 291.599609375 325.912841796875 C 293.11279296875 312.70184326171875 293.8701171875 299.215576171875 293.8701171875 285.4541320800781 C 293.8701171875 236.32568359375 293.8701171875 187.197265625 293.8701171875 138.06881713867188M 177.2451171875 265.63763427734375 C 177.2451171875 283.8715515136719 177.2451171875 302.10552978515625 177.2451171875 320.3394775390625 C 262.08203125 320.3394775390625 346.9189453125 320.3394775390625 431.755859375 320.3394775390625 C 431.755859375 302.10552978515625 431.755859375 283.8715515136719 431.755859375 265.63763427734375 C 346.9189453125 265.63763427734375 262.08203125 265.63763427734375 177.2451171875 265.63763427734375M 177.2451171875 199.78900146484375 C 177.2451171875 217.74771118164062 177.2451171875 235.7064208984375 177.2451171875 253.6651611328125 C 262.08203125 253.6651611328125 346.9189453125 253.6651611328125 431.755859375 253.6651611328125 C 431.755859375 235.7064208984375 431.755859375 217.74771118164062 431.755859375 199.78900146484375 C 346.9189453125 199.78900146484375 262.08203125 199.78900146484375 177.2451171875 199.78900146484375M 165.4794921875 188.2293701171875 C 258.36669921875 188.2293701171875 351.25390625 188.2293701171875 444.140625 188.2293701171875 C 444.140625 236.05047607421875 444.140625 283.8715515136719 444.140625 331.692626953125 C 351.25390625 331.692626953125 258.36669921875 331.692626953125 165.4794921875 331.692626953125 C 165.4794921875 283.8715515136719 165.4794921875 236.05047607421875 165.4794921875 188.2293701171875M 194.3779296875 340.156005859375 C 205.79931640625 361.4862060546875 219.90478515625 379.16973876953125 236.69287109375 393.2064208984375 C 253.619140625 407.2431640625 273.6416015625 418.52752685546875 296.759765625 427.05963134765625 C 319.87841796875 435.4541015625 346.57470703125 441.784423828125 376.84912109375 446.0504150390625 C 407.1240234375 450.4541015625 441.1826171875 453.6881103515625 479.025390625 455.7523193359375 C 477.923828125 457.12841796875 476.822265625 458.91741943359375 475.72265625 461.1192626953125 C 474.62109375 463.458740234375 473.865234375 465.52294921875 473.451171875 467.3118896484375 C 435.33349609375 464.97247314453125 401.0 461.39453125 370.4501953125 456.5780029296875 C 340.03857421875 451.8990478515625 313.06689453125 445.087158203125 289.53515625 436.1422119140625 C 266.00390625 427.05963134765625 245.56884765625 415.087158203125 228.22998046875 400.2247314453125 C 210.89111328125 385.2247314453125 196.57958984375 366.5091552734375 185.29541015625 344.0780029296875 C 188.3232421875 342.7706298828125 191.35009765625 341.46331787109375 194.3779296875 340.156005859375"/>
  </g>
</svg>
