<?xml version="1.0" encoding="utf-8"?>
<svg xmlns="http://www.w3.org/2000/svg" xmlns:ev="http://www.w3.org/2001/xml-events" xmlns:xlink="http://www.w3.org/1999/xlink" version="1.1" baseProfile="full" width="41856.0" height="1776.0" viewBox="67.0 -1634.0 41856.0 1776.0">
<defs/>
<g><path d="M 19956.000000 -1323.000000 C 20303.666667 -1323.000000 20651.333333 -1323.000000 20999.000000 -1323.000000 C 20999.000000 -1304.333333 20999.000000 -1285.666667 20999.000000 -1267.000000 C 20651.333333 -1267.000000 20303.666667 -1267.000000 19956.000000 -1267.000000 C 19956.000000 -1285.666667 19956.000000 -1304.333333 19956.000000 -1323.000000z M 20018.000000 -1073.000000 C 20329.000000 -1073.000000 20640.000000 -1073.000000 20951.000000 -1073.000000 C 20951.000000 -1054.000000 20951.000000 -1035.000000 20951.000000 -1016.000000 C 20640.000000 -1016.000000 20329.000000 -1016.000000 20018.000000 -1016.000000 C 20018.000000 -1035.000000 20018.000000 -1054.000000 20018.000000 -1073.000000z M 19914.000000 -804.000000 C 20281.333333 -804.000000 20648.666667 -804.000000 21016.000000 -804.000000 C 21016.000000 -785.000000 21016.000000 -766.000000 21016.000000 -747.000000 C 20648.666667 -747.000000 20281.333333 -747.000000 19914.000000 -747.000000 C 19914.000000 -766.000000 19914.000000 -785.000000 19914.000000 -804.000000z M 20759.000000 -1596.000000 C 20777.666667 -1587.666667 20796.333333 -1579.333333 20815.000000 -1571.000000 C 20794.333333 -1528.333333 20771.000000 -1484.666667 20745.000000 -1440.000000 C 20719.666667 -1395.333333 20696.333333 -1357.000000 20675.000000 -1325.000000 C 20659.333333 -1331.333333 20643.666667 -1337.666667 20628.000000 -1344.000000 C 20650.000000 -1377.333333 20673.666667 -1418.666667 20699.000000 -1468.000000 C 20725.000000 -1517.333333 20745.000000 -1560.000000 20759.000000 -1596.000000z M 20122.000000 -1569.000000 C 20138.666667 -1574.666667 20155.333333 -1580.333333 20172.000000 -1586.000000 C 20196.000000 -1550.000000 20219.666667 -1510.000000 20243.000000 -1466.000000 C 20267.000000 -1422.000000 20284.000000 -1384.666667 20294.000000 -1354.000000 C 20277.000000 -1345.666667 20260.000000 -1337.333333 20243.000000 -1329.000000 C 20232.333333 -1361.000000 20215.666667 -1399.666667 20193.000000 -1445.000000 C 20171.000000 -1490.333333 20147.333333 -1531.666667 20122.000000 -1569.000000z M 20934.000000 -643.000000 C 20949.333333 -632.333333 20964.666667 -621.666667 20980.000000 -611.000000 C 20942.666667 -561.000000 20899.666667 -510.666667 20851.000000 -460.000000 C 20802.333333 -409.333333 20757.666667 -365.333333 20717.000000 -328.000000 C 20703.333333 -338.333333 20689.666667 -348.666667 20676.000000 -359.000000 C 20703.333333 -384.333333 20733.000000 -413.666667 20765.000000 -447.000000 C 20797.000000 -480.333333 20828.000000 -514.333333 20858.000000 -549.000000 C 20888.000000 -583.666667 20913.333333 -615.000000 20934.000000 -643.000000z M 20003.000000 -609.000000 C 20017.000000 -617.333333 20031.000000 -625.666667 20045.000000 -634.000000 C 20085.666667 -594.000000 20125.333333 -549.000000 20164.000000 -499.000000 C 20203.333333 -449.000000 20232.666667 -405.666667 20252.000000 -369.000000 C 20237.333333 -358.666667 20222.666667 -348.333333 20208.000000 -338.000000 C 20187.333333 -375.333333 20157.666667 -419.333333 20119.000000 -470.000000 C 20081.000000 -521.333333 20042.333333 -567.666667 20003.000000 -609.000000z M 19839.000000 -13.000000 C 19903.000000 -46.333333 19980.333333 -88.666667 20071.000000 -140.000000 C 20162.333333 -191.333333 20254.666667 -244.666667 20348.000000 -300.000000 C 20353.666667 -283.333333 20359.333333 -266.666667 20365.000000 -250.000000 C 20279.666667 -198.666667 20194.000000 -148.000000 20108.000000 -98.000000 C 20022.666667 -48.000000 19944.666667 -3.333333 19874.000000 36.000000 C 19862.333333 19.666667 19850.666667 3.333333 19839.000000 -13.000000z M 20436.000000 -1283.000000 C 20454.666667 -1283.000000 20473.333333 -1283.000000 20492.000000 -1283.000000 C 20492.000000 -842.666667 20492.000000 -402.333333 20492.000000 38.000000 C 20492.000000 65.333333 20488.333333 85.333333 20481.000000 98.000000 C 20474.333333 110.666667 20461.333333 120.333333 20442.000000 127.000000 C 20422.666667 131.666667 20392.666667 134.666667 20352.000000 136.000000 C 20311.333333 137.333333 20262.000000 138.000000 20204.000000 138.000000 C 20202.666667 130.666667 20199.666667 120.333333 20195.000000 107.000000 C 20191.000000 94.333333 20186.333333 83.666667 20181.000000 75.000000 C 20233.666667 76.333333 20280.666667 77.000000 20322.000000 77.000000 C 20364.000000 77.000000 20391.333333 76.333333 20404.000000 75.000000 C 20418.000000 73.666667 20426.666667 70.666667 20430.000000 66.000000 C 20434.000000 62.000000 20436.000000 53.333333 20436.000000 40.000000 C 20436.000000 -401.000000 20436.000000 -842.000000 20436.000000 -1283.000000z M 20490.000000 -672.000000 C 20522.000000 -568.000000 20565.000000 -470.666667 20619.000000 -380.000000 C 20673.000000 -289.333333 20736.666667 -210.000000 20810.000000 -142.000000 C 20883.333333 -74.000000 20964.333333 -21.666667 21053.000000 15.000000 C 21047.666667 19.000000 21042.333333 23.333333 21037.000000 28.000000 C 21032.333333 33.333333 21027.666667 38.666667 21023.000000 44.000000 C 21018.333333 49.333333 21014.333333 54.666667 21011.000000 60.000000 C 20923.666667 18.666667 20842.666667 -37.333333 20768.000000 -108.000000 C 20694.000000 -179.333333 20629.000000 -261.666667 20573.000000 -355.000000 C 20517.666667 -448.333333 20473.333333 -549.000000 20440.000000 -657.000000 C 20456.666667 -662.000000 20473.333333 -667.000000 20490.000000 -672.000000z M 19313.000000 -1160.000000 C 19517.333333 -1160.000000 19721.666667 -1160.000000 19926.000000 -1160.000000 C 19926.000000 -1140.666667 19926.000000 -1121.333333 19926.000000 -1102.000000 C 19721.666667 -1102.000000 19517.333333 -1102.000000 19313.000000 -1102.000000 C 19313.000000 -1121.333333 19313.000000 -1140.666667 19313.000000 -1160.000000z M 19619.000000 -1596.000000 C 19637.333333 -1596.000000 19655.666667 -1596.000000 19674.000000 -1596.000000 C 19674.000000 -1020.333333 19674.000000 -444.666667 19674.000000 131.000000 C 19655.666667 131.000000 19637.333333 131.000000 19619.000000 131.000000 C 19619.000000 -444.666667 19619.000000 -1020.333333 19619.000000 -1596.000000z M 19615.000000 -1144.000000 C 19631.666667 -1139.000000 19648.333333 -1134.000000 19665.000000 -1129.000000 C 19649.666667 -1052.333333 19629.333333 -972.666667 19604.000000 -890.000000 C 19579.333333 -807.333333 19551.666667 -726.000000 19521.000000 -646.000000 C 19490.333333 -566.000000 19458.000000 -492.000000 19424.000000 -424.000000 C 19390.000000 -356.666667 19356.333333 -299.333333 19323.000000 -252.000000 C 19317.666667 -258.000000 19310.333333 -265.333333 19301.000000 -274.000000 C 19292.333333 -283.333333 19285.000000 -290.666667 19279.000000 -296.000000 C 19312.333333 -340.666667 19345.333333 -395.666667 19378.000000 -461.000000 C 19411.333333 -526.333333 19443.000000 -597.333333 19473.000000 -674.000000 C 19503.666667 -750.666667 19531.000000 -829.333333 19555.000000 -910.000000 C 19579.666667 -990.666667 19599.666667 -1068.666667 19615.000000 -1144.000000z M 19665.000000 -958.000000 C 19676.333333 -945.333333 19693.333333 -922.000000 19716.000000 -888.000000 C 19739.333333 -854.000000 19764.666667 -817.000000 19792.000000 -777.000000 C 19820.000000 -737.666667 19845.333333 -701.000000 19868.000000 -667.000000 C 19891.333333 -633.000000 19907.333333 -608.333333 19916.000000 -593.000000 C 19902.000000 -576.333333 19888.000000 -559.666667 19874.000000 -543.000000 C 19864.000000 -563.666667 19847.666667 -592.333333 19825.000000 -629.000000 C 19802.333333 -665.666667 19778.333333 -704.000000 19753.000000 -744.000000 C 19727.666667 -784.000000 19703.666667 -821.000000 19681.000000 -855.000000 C 19658.333333 -889.000000 19641.333333 -913.666667 19630.000000 -929.000000 C 19641.666667 -938.666667 19653.333333 -948.333333 19665.000000 -958.000000z "/>
</g></svg>
