<?xml version="1.0" ?>
<svg xmlns="http://www.w3.org/2000/svg" version="1.1" width="600" height="600">
  <defs/>
  <g>
    <path stroke-width="0" fill="rgb(0, 0, 0)" opacity="1.0" d="M 357.6282958984375 122.24188232421875 C 361.5982666015625 122.24188232421875 365.568115234375 122.24188232421875 369.5379638671875 122.24188232421875 C 369.5379638671875 146.06390380859375 369.5379638671875 169.88592529296875 369.5379638671875 193.70794677734375 C 365.568115234375 193.70794677734375 361.5982666015625 193.70794677734375 357.6282958984375 193.70794677734375 C 357.6282958984375 169.88592529296875 357.6282958984375 146.06390380859375 357.6282958984375 122.24188232421875M 357.6282958984375 308.9161376953125 C 361.5982666015625 308.9161376953125 365.568115234375 308.9161376953125 369.5379638671875 308.9161376953125 C 369.5379638671875 365.116943359375 369.5379638671875 421.3177490234375 369.5379638671875 477.5185546875 C 365.568115234375 477.5185546875 361.5982666015625 477.5185546875 357.6282958984375 477.5185546875 C 357.6282958984375 421.3177490234375 357.6282958984375 365.116943359375 357.6282958984375 308.9161376953125M 255.16455078125 185.9041748046875 C 328.33349609375 185.9041748046875 401.5023193359375 185.9041748046875 474.6712646484375 185.9041748046875 C 474.6712646484375 207.05648803710938 474.6712646484375 228.20880126953125 474.6712646484375 249.361083984375 C 470.9066162109375 249.361083984375 467.1422119140625 249.361083984375 463.3775634765625 249.361083984375 C 463.3775634765625 232.11065673828125 463.3775634765625 214.8602294921875 463.3775634765625 197.60980224609375 C 397.80615234375 197.60980224609375 332.23486328125 197.60980224609375 266.6634521484375 197.60980224609375 C 266.6634521484375 214.8602294921875 266.6634521484375 232.11065673828125 266.6634521484375 249.361083984375 C 262.8304443359375 249.361083984375 258.9974365234375 249.361083984375 255.16455078125 249.361083984375 C 255.16455078125 228.20880126953125 255.16455078125 207.05648803710938 255.16455078125 185.9041748046875M 301.981689453125 247.3074951171875 C 301.981689453125 265.584716796875 301.981689453125 283.8619384765625 301.981689453125 302.13916015625 C 344.349853515625 302.13916015625 386.7178955078125 302.13916015625 429.0860595703125 302.13916015625 C 429.0860595703125 283.8619384765625 429.0860595703125 265.584716796875 429.0860595703125 247.3074951171875 C 386.7178955078125 247.3074951171875 344.349853515625 247.3074951171875 301.981689453125 247.3074951171875M 290.68798828125 235.80718994140625 C 340.585205078125 235.80718994140625 390.482421875 235.80718994140625 440.3797607421875 235.80718994140625 C 440.3797607421875 261.88818359375 440.3797607421875 287.96917724609375 440.3797607421875 314.0501708984375 C 390.482421875 314.0501708984375 340.585205078125 314.0501708984375 290.68798828125 314.0501708984375 C 290.68798828125 287.96917724609375 290.68798828125 261.88818359375 290.68798828125 235.80718994140625M 271.38623046875 351.015380859375 C 331.276611328125 351.015380859375 391.1669921875 351.015380859375 451.0572509765625 351.015380859375 C 451.0572509765625 354.84881591796875 451.0572509765625 358.6822509765625 451.0572509765625 362.51568603515625 C 394.931396484375 362.51568603515625 338.8056640625 362.51568603515625 282.6798095703125 362.51568603515625 C 282.6798095703125 392.5670166015625 282.6798095703125 422.618408203125 282.6798095703125 452.669677734375 C 278.915283203125 452.669677734375 275.1507568359375 452.669677734375 271.38623046875 452.669677734375 C 271.38623046875 418.784912109375 271.38623046875 384.900146484375 271.38623046875 351.015380859375M 447.5665283203125 351.015380859375 C 451.3311767578125 351.015380859375 455.0955810546875 351.015380859375 458.8602294921875 351.015380859375 C 458.8602294921875 379.8345947265625 458.8602294921875 408.65374755859375 458.8602294921875 437.472900390625 C 458.8602294921875 441.032470703125 458.3126220703125 443.9075927734375 457.2174072265625 446.09814453125 C 456.25927734375 448.1517333984375 454.06884765625 449.86309814453125 450.6466064453125 451.232177734375 C 447.498046875 452.1905517578125 442.84375 452.806640625 436.68359375 453.0804443359375 C 430.5234375 453.354248046875 422.44677734375 453.49114990234375 412.4537353515625 453.49114990234375 C 412.179931640625 451.71136474609375 411.63232421875 449.86309814453125 410.81103515625 447.9464111328125 C 409.9896240234375 445.89276123046875 409.099853515625 443.97607421875 408.1416015625 442.19622802734375 C 417.0396728515625 442.4700927734375 424.4317626953125 442.60693359375 430.318115234375 442.60693359375 C 436.2044677734375 442.60693359375 440.2427978515625 442.60693359375 442.43310546875 442.60693359375 C 444.4864501953125 442.3331298828125 445.8553466796875 441.85400390625 446.5399169921875 441.16943359375 C 447.224365234375 440.48486328125 447.5665283203125 439.252685546875 447.5665283203125 437.472900390625 C 447.5665283203125 408.65374755859375 447.5665283203125 379.8345947265625 447.5665283203125 351.015380859375M 277.1357421875 131.89389038085938 C 280.421142578125 130.52484130859375 283.70654296875 129.15573120117188 286.991943359375 127.78665161132812 C 292.878173828125 136.00115966796875 298.35400390625 144.76327514648438 303.4189453125 154.07302856445312 C 308.4840087890625 163.38278198242188 312.1116943359375 171.46035766601562 314.302001953125 178.30575561523438 C 310.74267578125 179.88021850585938 307.18359375 181.45465087890625 303.624267578125 183.02911376953125 C 301.297119140625 175.90988159179688 297.66943359375 167.5584716796875 292.741455078125 157.97491455078125 C 287.9501953125 148.391357421875 282.748291015625 139.69766235351562 277.1357421875 131.89389038085938M 438.9423828125 128.1973876953125 C 442.43310546875 129.77182006835938 445.923828125 131.34628295898438 449.41455078125 132.92071533203125 C 444.4864501953125 141.9566650390625 439.0792236328125 151.06106567382812 433.19287109375 160.23388671875 C 427.3065185546875 169.40673828125 421.6939697265625 177.55279541015625 416.3551025390625 184.6719970703125 C 413.343505859375 183.23446655273438 410.331787109375 181.79693603515625 407.3201904296875 180.35940551757812 C 412.522216796875 173.51397705078125 418.1346435546875 165.02569580078125 424.157958984375 154.89447021484375 C 430.318115234375 144.76327514648438 435.2462158203125 135.8642578125 438.9423828125 128.1973876953125M 125.80126953125 206.645751953125 C 161.25634765625 206.645751953125 196.71142578125 206.645751953125 232.16650390625 206.645751953125 C 232.16650390625 210.6160888671875 232.16650390625 214.58642578125 232.16650390625 218.5567626953125 C 196.71142578125 218.5567626953125 161.25634765625 218.5567626953125 125.80126953125 218.5567626953125 C 125.80126953125 214.58642578125 125.80126953125 210.6160888671875 125.80126953125 206.645751953125M 177.957275390625 122.65261840820312 C 181.858642578125 123.20022583007812 185.760009765625 123.74786376953125 189.6614990234375 124.29550170898438 C 186.512939453125 142.64120483398438 182.953857421875 162.62979125976562 178.98388671875 184.26126098632812 C 175.0140380859375 205.755859375 170.7703857421875 227.59271240234375 166.2529296875 249.77182006835938 C 161.872314453125 271.81402587890625 157.4918212890625 292.760986328125 153.111328125 312.6126708984375 C 148.86767578125 332.46435546875 144.897705078125 349.8516845703125 141.20166015625 364.774658203125 C 137.36865234375 363.0633544921875 133.53564453125 361.35198974609375 129.70263671875 359.640625 C 133.3988037109375 345.2652587890625 137.4371337890625 328.22021484375 141.817626953125 308.50543212890625 C 146.1982421875 288.7906494140625 150.51025390625 268.049072265625 154.75390625 246.28067016601562 C 159.134521484375 224.3753662109375 163.2413330078125 202.81231689453125 167.07421875 181.591552734375 C 171.044189453125 160.23388671875 174.671875 140.58758544921875 177.957275390625 122.65261840820312M 138.737548828125 339.92584228515625 C 141.27001953125 337.18768310546875 143.8026123046875 334.44952392578125 146.335205078125 331.71136474609375 C 160.298095703125 340.6103515625 174.192626953125 350.7415771484375 188.018798828125 362.10498046875 C 201.9818115234375 373.3314208984375 214.712890625 384.69482421875 226.211669921875 396.195068359375 C 237.84765625 407.5584716796875 246.950927734375 418.10040283203125 253.521728515625 427.8209228515625 C 250.783935546875 430.90130615234375 248.046142578125 433.98175048828125 245.3082275390625 437.06219482421875 C 238.7374267578125 427.3416748046875 229.634033203125 416.7313232421875 217.998291015625 405.23101806640625 C 206.499267578125 393.5938720703125 193.8367919921875 382.09356689453125 180.0106201171875 370.73016357421875 C 166.1844482421875 359.2298583984375 152.4267578125 348.9617919921875 138.737548828125 339.92584228515625M 228.26513671875 206.645751953125 C 229.08642578125 206.645751953125 229.9078369140625 206.645751953125 230.729248046875 206.645751953125 C 231.4820556640625 206.44039916992188 232.235107421875 206.23504638671875 232.9879150390625 206.0296630859375 C 235.383544921875 206.645751953125 237.7791748046875 207.2618408203125 240.1748046875 207.8779296875 C 237.300048828125 257.8493957519531 231.4136962890625 300.49627685546875 222.515625 335.818603515625 C 213.754638671875 371.140869140625 202.255615234375 400.3023681640625 188.018798828125 423.30291748046875 C 173.9189453125 446.303466796875 157.2864990234375 464.51226806640625 138.12158203125 477.92926025390625 C 137.0264892578125 476.69708251953125 135.657470703125 475.05419921875 134.014892578125 473.0006103515625 C 132.509033203125 471.0838623046875 130.7978515625 469.44091796875 128.88134765625 468.0718994140625 C 147.088134765625 456.29779052734375 163.1043701171875 439.252685546875 176.9305419921875 416.9366455078125 C 190.8935546875 394.62066650390625 202.255615234375 366.4176025390625 211.0167236328125 332.32745361328125 C 219.914794921875 298.2373046875 225.664306640625 257.5755920410156 228.26513671875 210.34228515625 C 228.26513671875 209.110107421875 228.26513671875 207.8779296875 228.26513671875 206.645751953125"/>
  </g>
</svg>
