<?xml version="1.0" ?>
<svg xmlns="http://www.w3.org/2000/svg" version="1.1" width="600" height="600">
  <defs/>
  <g>
    <path stroke-width="0" fill="rgb(0, 0, 0)" opacity="1.0" d="M 132.38323974609375 266.451416015625 C 133.554931640625 266.5162353515625 134.64523315429688 266.59722900390625 135.6541748046875 266.6944580078125 C 136.66314697265625 266.7916259765625 137.88363647460938 266.84027099609375 139.31570434570312 266.84027099609375 C 140.32464599609375 266.84027099609375 142.09844970703125 266.84027099609375 144.63711547851562 266.84027099609375 C 147.20831298828125 266.84027099609375 150.15377807617188 266.84027099609375 153.47357177734375 266.84027099609375 C 156.7933349609375 266.84027099609375 160.09683227539062 266.84027099609375 163.38406372070312 266.84027099609375 C 166.70382690429688 266.84027099609375 169.63302612304688 266.84027099609375 172.17169189453125 266.84027099609375 C 174.74288940429688 266.84027099609375 176.532958984375 266.84027099609375 177.54190063476562 266.84027099609375 C 178.615966796875 266.84027099609375 179.83645629882812 266.807861328125 181.20343017578125 266.7430419921875 C 182.57037353515625 266.67822265625 183.82342529296875 266.5810546875 184.96258544921875 266.451416015625 C 184.96258544921875 267.60186767578125 184.96258544921875 268.7523193359375 184.96258544921875 269.90277099609375 C 183.75833129882812 269.77313232421875 182.489013671875 269.692138671875 181.15460205078125 269.65972900390625 C 179.8201904296875 269.6273193359375 178.615966796875 269.611083984375 177.54190063476562 269.611083984375 C 176.532958984375 269.611083984375 174.7591552734375 269.611083984375 172.22052001953125 269.611083984375 C 169.71441650390625 269.611083984375 166.80145263671875 269.611083984375 163.481689453125 269.611083984375 C 160.16192626953125 269.611083984375 156.8421630859375 269.611083984375 153.52236938476562 269.611083984375 C 150.23516845703125 269.611083984375 147.30593872070312 269.611083984375 144.7347412109375 269.611083984375 C 142.16354370117188 269.611083984375 140.42230224609375 269.611083984375 139.510986328125 269.611083984375 C 138.01382446289062 269.611083984375 136.6956787109375 269.6273193359375 135.55654907226562 269.65972900390625 C 134.41741943359375 269.692138671875 133.35964965820312 269.77313232421875 132.38323974609375 269.90277099609375 C 132.38323974609375 268.7523193359375 132.38323974609375 267.60186767578125 132.38323974609375 266.451416015625M 120.95932006835938 289.4930419921875 C 122.13101196289062 289.557861328125 123.2701416015625 289.6226806640625 124.37673950195312 289.6875 C 125.515869140625 289.7523193359375 126.80145263671875 289.78472900390625 128.2335205078125 289.78472900390625 C 128.9169921875 289.78472900390625 130.46298217773438 289.78472900390625 132.87142944335938 289.78472900390625 C 135.2799072265625 289.78472900390625 138.22540283203125 289.78472900390625 141.7078857421875 289.78472900390625 C 145.22296142578125 289.78472900390625 148.99838256835938 289.78472900390625 153.0341796875 289.78472900390625 C 157.06997680664062 289.78472900390625 161.10577392578125 289.78472900390625 165.14157104492188 289.78472900390625 C 169.1773681640625 289.78472900390625 172.92025756835938 289.78472900390625 176.37020874023438 289.78472900390625 C 179.85272216796875 289.78472900390625 182.76565551757812 289.78472900390625 185.10903930664062 289.78472900390625 C 187.452392578125 289.78472900390625 188.93328857421875 289.78472900390625 189.55166625976562 289.78472900390625 C 190.56060791015625 289.78472900390625 191.569580078125 289.7523193359375 192.57852172851562 289.6875 C 193.62002563476562 289.6226806640625 194.64523315429688 289.557861328125 195.6541748046875 289.4930419921875 C 195.6541748046875 290.5787353515625 195.6541748046875 291.66436767578125 195.6541748046875 292.75 C 194.77542114257812 292.71759033203125 193.78274536132812 292.6851806640625 192.6761474609375 292.65277099609375 C 191.60211181640625 292.620361328125 190.56060791015625 292.6041259765625 189.55166625976562 292.6041259765625 C 188.93328857421875 292.6041259765625 187.452392578125 292.6041259765625 185.10903930664062 292.6041259765625 C 182.76565551757812 292.6041259765625 179.85272216796875 292.6041259765625 176.37020874023438 292.6041259765625 C 172.92025756835938 292.6041259765625 169.1773681640625 292.6041259765625 165.14157104492188 292.6041259765625 C 161.10577392578125 292.6041259765625 157.06997680664062 292.6041259765625 153.0341796875 292.6041259765625 C 148.99838256835938 292.6041259765625 145.22296142578125 292.6041259765625 141.7078857421875 292.6041259765625 C 138.22540283203125 292.6041259765625 135.2799072265625 292.6041259765625 132.87142944335938 292.6041259765625 C 130.46298217773438 292.6041259765625 128.9169921875 292.6041259765625 128.2335205078125 292.6041259765625 C 126.80145263671875 292.6041259765625 125.53213500976562 292.6041259765625 124.425537109375 292.6041259765625 C 123.35150146484375 292.6041259765625 122.19610595703125 292.65277099609375 120.95932006835938 292.75 C 120.95932006835938 291.66436767578125 120.95932006835938 290.5787353515625 120.95932006835938 289.4930419921875M 161.2359619140625 290.513916015625 C 161.2359619140625 296.120361328125 160.9267578125 301.4189453125 160.30838012695312 306.40972900390625 C 159.69000244140625 311.3680419921875 158.29046630859375 315.807861328125 156.10983276367188 319.7291259765625 C 154.90560913085938 321.7384033203125 153.35964965820312 323.7314453125 151.471923828125 325.7083740234375 C 149.61676025390625 327.65277099609375 147.550048828125 329.5 145.27175903320312 331.25 C 142.99349975585938 332.96759033203125 140.56875610351562 334.49072265625 137.99755859375 335.8194580078125 C 137.0537109375 335.0740966796875 136.10983276367188 334.3287353515625 135.16598510742188 333.5833740234375 C 139.10415649414062 331.8333740234375 142.7005615234375 329.6458740234375 145.95526123046875 327.0208740234375 C 149.20993041992188 324.3958740234375 151.74856567382812 321.5115966796875 153.57119750976562 318.3680419921875 C 155.94711303710938 314.5115966796875 157.34661865234375 310.2337646484375 157.76971435546875 305.53472900390625 C 158.22537231445312 300.83563232421875 158.469482421875 295.8287353515625 158.50204467773438 290.513916015625 C 159.413330078125 290.513916015625 160.32464599609375 290.513916015625 161.2359619140625 290.513916015625"/>
    <path stroke-width="0" fill="rgb(0, 0, 0)" opacity="1.0" d="M 276.5492248535156 271.40972900390625 C 276.35394287109375 271.6365966796875 276.10986328125 272.00927734375 275.8169250488281 272.52777099609375 C 275.5565490722656 273.013916015625 275.36126708984375 273.4189453125 275.2310791015625 273.7430419921875 C 274.02685546875 276.9189453125 272.4483337402344 280.40277099609375 270.49554443359375 284.1944580078125 C 268.57525634765625 287.986083984375 266.42718505859375 291.6805419921875 264.05126953125 295.27777099609375 C 261.67535400390625 298.84259033203125 259.2506103515625 301.9537353515625 256.77703857421875 304.611083984375 C 253.32708740234375 308.370361328125 249.60049438476562 312.0 245.59722900390625 315.5 C 241.593994140625 319.0 237.36288452148438 322.27313232421875 232.90399169921875 325.3194580078125 C 228.445068359375 328.3333740234375 223.67697143554688 330.9583740234375 218.59967041015625 333.1944580078125 C 217.85110473632812 332.38427734375 217.10250854492188 331.5740966796875 216.35394287109375 330.763916015625 C 221.43124389648438 328.72222900390625 226.2481689453125 326.226806640625 230.80471801757812 323.27777099609375 C 235.36126708984375 320.2962646484375 239.6737060546875 316.99072265625 243.7420654296875 313.361083984375 C 247.84295654296875 309.7314453125 251.65093994140625 305.97222900390625 255.16598510742188 302.0833740234375 C 257.34661865234375 299.620361328125 259.59234619140625 296.6875 261.9031677246094 293.28472900390625 C 264.2139892578125 289.8819580078125 266.2969970703125 286.3819580078125 268.15216064453125 282.78472900390625 C 270.03985595703125 279.1875 271.423095703125 275.914306640625 272.3018798828125 272.96527099609375 C 271.8787536621094 272.96527099609375 270.60943603515625 272.96527099609375 268.493896484375 272.96527099609375 C 266.410888671875 272.96527099609375 263.8885498046875 272.96527099609375 260.9267578125 272.96527099609375 C 257.96502685546875 272.96527099609375 254.84051513671875 272.96527099609375 251.55328369140625 272.96527099609375 C 248.26605224609375 272.96527099609375 245.1416015625 272.96527099609375 242.1798095703125 272.96527099609375 C 239.21807861328125 272.96527099609375 236.72824096679688 272.96527099609375 234.7103271484375 272.96527099609375 C 232.7249755859375 272.96527099609375 231.520751953125 272.96527099609375 231.09765625 272.96527099609375 C 230.15377807617188 272.96527099609375 229.0634765625 272.9976806640625 227.82669067382812 273.0625 C 226.6224365234375 273.1273193359375 225.54840087890625 273.1759033203125 224.60455322265625 273.2083740234375 C 223.66070556640625 273.24072265625 223.18878173828125 273.2569580078125 223.18878173828125 273.2569580078125 C 223.18878173828125 272.0740966796875 223.18878173828125 270.8912353515625 223.18878173828125 269.7083740234375 C 223.18878173828125 269.7083740234375 223.6444091796875 269.74072265625 224.55572509765625 269.8055419921875 C 225.467041015625 269.870361328125 226.52481079101562 269.951416015625 227.72906494140625 270.048583984375 C 228.9658203125 270.1458740234375 230.08868408203125 270.1944580078125 231.09765625 270.1944580078125 C 231.520751953125 270.1944580078125 232.6761474609375 270.1944580078125 234.56387329101562 270.1944580078125 C 236.484130859375 270.1944580078125 238.84378051757812 270.1944580078125 241.64279174804688 270.1944580078125 C 244.474365234375 270.1944580078125 247.43612670898438 270.1944580078125 250.528076171875 270.1944580078125 C 253.6199951171875 270.1944580078125 256.581787109375 270.1944580078125 259.413330078125 270.1944580078125 C 262.2774658203125 270.1944580078125 264.6859130859375 270.1944580078125 266.63873291015625 270.1944580078125 C 268.62408447265625 270.1944580078125 269.86083984375 270.1944580078125 270.34906005859375 270.1944580078125 C 271.3580322265625 270.1944580078125 272.2042236328125 270.16204833984375 272.8876953125 270.09722900390625 C 273.5711975097656 270.03240966796875 274.15704345703125 269.9351806640625 274.6452331542969 269.8055419921875 C 275.2799072265625 270.34027099609375 275.91455078125 270.875 276.5492248535156 271.40972900390625M 257.99755859375 302.5694580078125 C 260.6663818359375 304.8055419921875 263.335205078125 307.2037353515625 266.00408935546875 309.763916015625 C 268.7054443359375 312.3240966796875 271.34173583984375 314.932861328125 273.9129333496094 317.59027099609375 C 276.484130859375 320.21527099609375 278.8763427734375 322.7430419921875 281.0895080566406 325.173583984375 C 283.30267333984375 327.6041259765625 285.2554931640625 329.84027099609375 286.94793701171875 331.8819580078125 C 286.16680908203125 332.5625 285.38568115234375 333.2430419921875 284.60455322265625 333.923583984375 C 282.4239196777344 331.201416015625 279.7550964355469 328.1064453125 276.5980529785156 324.638916015625 C 273.4410095214844 321.138916015625 270.08868408203125 317.6226806640625 266.54107666015625 314.09027099609375 C 263.0260314941406 310.52545166015625 259.54351806640625 307.3009033203125 256.09356689453125 304.4166259765625 C 256.7282409667969 303.8009033203125 257.3629150390625 303.1851806640625 257.99755859375 302.5694580078125"/>
    <path stroke-width="0" fill="rgb(0, 0, 0)" opacity="1.0" d="M 332.2042236328125 325.4166259765625 C 332.2042236328125 324.86572265625 332.2042236328125 323.34259033203125 332.2042236328125 320.84722900390625 C 332.2042236328125 318.3194580078125 332.2042236328125 315.2083740234375 332.2042236328125 311.513916015625 C 332.2042236328125 307.78704833984375 332.2042236328125 303.84954833984375 332.2042236328125 299.701416015625 C 332.2042236328125 295.5208740234375 332.2042236328125 291.4537353515625 332.2042236328125 287.5 C 332.2042236328125 283.5462646484375 332.2042236328125 280.0625 332.2042236328125 277.048583984375 C 332.2042236328125 274.03472900390625 332.2042236328125 271.879638671875 332.2042236328125 270.5833740234375 C 332.2042236328125 269.5787353515625 332.17169189453125 268.2662353515625 332.1065673828125 266.6458740234375 C 332.04150390625 265.02545166015625 331.9276123046875 263.59954833984375 331.76483154296875 262.3680419921875 C 333.00164794921875 262.3680419921875 334.2384033203125 262.3680419921875 335.4752197265625 262.3680419921875 C 335.3775634765625 263.53472900390625 335.2799072265625 264.97686767578125 335.1822509765625 266.6944580078125 C 335.0845947265625 268.41204833984375 335.0357666015625 269.7083740234375 335.0357666015625 270.5833740234375 C 335.0357666015625 273.6944580078125 335.0357666015625 277.16204833984375 335.0357666015625 280.986083984375 C 335.0357666015625 284.8101806640625 335.0357666015625 288.71527099609375 335.0357666015625 292.701416015625 C 335.0357666015625 296.65509033203125 335.05206298828125 300.52777099609375 335.0845947265625 304.3194580078125 C 335.1171875 308.0787353515625 335.1334228515625 311.4814453125 335.1334228515625 314.52777099609375 C 335.1334228515625 317.5740966796875 335.1334228515625 320.085693359375 335.1334228515625 322.0625 C 335.1334228515625 324.0069580078125 335.1334228515625 325.125 335.1334228515625 325.4166259765625 C 335.1334228515625 326.5509033203125 335.1334228515625 327.6689453125 335.1334228515625 328.7708740234375 C 335.1334228515625 329.84027099609375 335.166015625 330.8773193359375 335.2310791015625 331.8819580078125 C 335.29620361328125 332.8865966796875 335.344970703125 333.7939453125 335.3775634765625 334.6041259765625 C 334.22216796875 334.6041259765625 333.06671142578125 334.6041259765625 331.91131591796875 334.6041259765625 C 332.04150390625 333.40509033203125 332.12286376953125 331.9791259765625 332.1553955078125 330.326416015625 C 332.18792724609375 328.673583984375 332.2042236328125 327.03704833984375 332.2042236328125 325.4166259765625M 334.449951171875 287.15972900390625 C 337.50933837890625 288.09954833984375 340.8291015625 289.21759033203125 344.4093017578125 290.513916015625 C 348.02197265625 291.77777099609375 351.69976806640625 293.138916015625 355.442626953125 294.59722900390625 C 359.21807861328125 296.0555419921875 362.8470458984375 297.5462646484375 366.32952880859375 299.0694580078125 C 369.8446044921875 300.59259033203125 373.0341796875 302.067138671875 375.8983154296875 303.4930419921875 C 375.491455078125 304.46527099609375 375.0845947265625 305.4375 374.67779541015625 306.40972900390625 C 371.9764404296875 304.9189453125 368.8519287109375 303.379638671875 365.3043212890625 301.7916259765625 C 361.78924560546875 300.2037353515625 358.14404296875 298.66436767578125 354.36859130859375 297.173583984375 C 350.5931396484375 295.682861328125 346.9642333984375 294.3541259765625 343.481689453125 293.1875 C 340.03173828125 291.9884033203125 337.0211181640625 291.0162353515625 334.449951171875 290.2708740234375 C 334.449951171875 289.2337646484375 334.449951171875 288.19677734375 334.449951171875 287.15972900390625"/>
    <path stroke-width="0" fill="rgb(0, 0, 0)" opacity="1.0" d="M 448.93328857421875 291.6319580078125 C 449.82830810546875 291.6319580078125 450.723388671875 291.6319580078125 451.618408203125 291.6319580078125 C 451.618408203125 304.8865966796875 451.618408203125 318.1412353515625 451.618408203125 331.3958740234375 C 451.618408203125 332.8865966796875 451.96014404296875 333.8587646484375 452.64361572265625 334.3125 C 453.359619140625 334.798583984375 454.775390625 335.0416259765625 456.8909912109375 335.0416259765625 C 457.379150390625 335.0416259765625 458.322998046875 335.0416259765625 459.7225341796875 335.0416259765625 C 461.15460205078125 335.0416259765625 462.73309326171875 335.0416259765625 464.4581298828125 335.0416259765625 C 466.21563720703125 335.0416259765625 467.84295654296875 335.0416259765625 469.340087890625 335.0416259765625 C 470.8372802734375 335.0416259765625 471.9600830078125 335.0416259765625 472.708740234375 335.0416259765625 C 474.205810546875 335.0416259765625 475.3287353515625 334.6041259765625 476.0772705078125 333.7291259765625 C 476.825927734375 332.8541259765625 477.34661865234375 331.15277099609375 477.6395263671875 328.625 C 477.9324951171875 326.0648193359375 478.1114501953125 322.27313232421875 478.17657470703125 317.25 C 478.469482421875 317.41204833984375 478.762451171875 317.6064453125 479.0552978515625 317.8333740234375 C 479.38079833984375 318.0601806640625 479.7225341796875 318.2384033203125 480.08056640625 318.3680419921875 C 480.4385986328125 318.46527099609375 480.73150634765625 318.5787353515625 480.9593505859375 318.7083740234375 C 480.8291015625 323.763916015625 480.552490234375 327.6851806640625 480.12939453125 330.47222900390625 C 479.706298828125 333.226806640625 478.94140625 335.138916015625 477.8348388671875 336.2083740234375 C 476.728271484375 337.3101806640625 475.01953125 337.861083984375 472.708740234375 337.861083984375 C 472.3507080078125 337.861083984375 471.4068603515625 337.861083984375 469.87713623046875 337.861083984375 C 468.347412109375 337.861083984375 466.655029296875 337.861083984375 464.7998046875 337.861083984375 C 462.9447021484375 337.861083984375 461.26849365234375 337.861083984375 459.7713623046875 337.861083984375 C 458.274169921875 337.861083984375 457.34661865234375 337.861083984375 456.9886474609375 337.861083984375 C 454.9056396484375 337.861083984375 453.261962890625 337.682861328125 452.0577392578125 337.326416015625 C 450.8861083984375 337.0023193359375 450.0723876953125 336.370361328125 449.61676025390625 335.4305419921875 C 449.1611328125 334.49072265625 448.93328857421875 333.1458740234375 448.93328857421875 331.3958740234375 C 448.93328857421875 318.1412353515625 448.93328857421875 304.8865966796875 448.93328857421875 291.6319580078125M 398.4044189453125 290.4166259765625 C 425.54840087890625 290.4166259765625 452.69244384765625 290.4166259765625 479.83642578125 290.4166259765625 C 479.83642578125 291.3564453125 479.83642578125 292.2962646484375 479.83642578125 293.236083984375 C 452.69244384765625 293.236083984375 425.54840087890625 293.236083984375 398.4044189453125 293.236083984375 C 398.4044189453125 292.2962646484375 398.4044189453125 291.3564453125 398.4044189453125 290.4166259765625M 406.264404296875 263.486083984375 C 428.347412109375 263.486083984375 450.430419921875 263.486083984375 472.513427734375 263.486083984375 C 472.513427734375 264.3773193359375 472.513427734375 265.2685546875 472.513427734375 266.15972900390625 C 450.430419921875 266.15972900390625 428.347412109375 266.15972900390625 406.264404296875 266.15972900390625 C 406.264404296875 265.2685546875 406.264404296875 264.3773193359375 406.264404296875 263.486083984375M 424.91375732421875 292.40972900390625 C 425.85760498046875 292.40972900390625 426.80145263671875 292.40972900390625 427.745361328125 292.40972900390625 C 427.2896728515625 297.692138671875 426.58990478515625 302.71527099609375 425.64605712890625 307.4791259765625 C 424.7347412109375 312.2430419921875 423.286376953125 316.65045166015625 421.301025390625 320.701416015625 C 419.3482666015625 324.71990966796875 416.66314697265625 328.317138671875 413.2457275390625 331.4930419921875 C 409.82830810546875 334.6689453125 405.467041015625 337.2939453125 400.16192626953125 339.3680419921875 C 400.03173828125 339.1087646484375 399.75506591796875 338.78472900390625 399.33197021484375 338.3958740234375 C 398.94140625 338.039306640625 398.59967041015625 337.7314453125 398.3067626953125 337.47222900390625 C 403.481689453125 335.495361328125 407.7127685546875 332.9837646484375 411.0 329.9375 C 414.2872314453125 326.8912353515625 416.87469482421875 323.40740966796875 418.762451171875 319.486083984375 C 420.68267822265625 315.5648193359375 422.09844970703125 311.3194580078125 423.009765625 306.75 C 423.9210205078125 302.14813232421875 424.55572509765625 297.3680419921875 424.91375732421875 292.40972900390625"/>
  </g>
</svg>
