<?xml version="1.0" encoding="utf-8"?>
<svg xmlns="http://www.w3.org/2000/svg" xmlns:ev="http://www.w3.org/2001/xml-events" xmlns:xlink="http://www.w3.org/1999/xlink" version="1.1" baseProfile="full" width="20903.0" height="1740.0" viewBox="106.0 -1596.0 20903.0 1740.0">
<defs/>
<g><path d="M 1035.000000 -1023.000000 C 1063.000000 -1041.000000 1090.666667 -1060.333333 1118.000000 -1081.000000 C 1146.000000 -1101.666667 1167.666667 -1118.333333 1183.000000 -1131.000000 C 1154.333333 -1157.666667 1115.000000 -1187.000000 1065.000000 -1219.000000 C 1015.666667 -1251.000000 962.333333 -1282.333333 905.000000 -1313.000000 C 848.333333 -1343.666667 795.000000 -1370.000000 745.000000 -1392.000000 C 756.666667 -1406.666667 768.333333 -1421.333333 780.000000 -1436.000000 C 826.000000 -1415.333333 877.666667 -1389.000000 935.000000 -1357.000000 C 992.333333 -1325.000000 1048.333333 -1292.000000 1103.000000 -1258.000000 C 1157.666667 -1224.666667 1201.000000 -1193.333333 1233.000000 -1164.000000 C 1238.000000 -1148.000000 1243.000000 -1132.000000 1248.000000 -1116.000000 C 1238.000000 -1106.666667 1226.000000 -1096.666667 1212.000000 -1086.000000 C 1198.666667 -1076.000000 1184.333333 -1065.333333 1169.000000 -1054.000000 C 1153.666667 -1042.666667 1138.000000 -1030.666667 1122.000000 -1018.000000 C 1106.000000 -1006.000000 1089.666667 -994.333333 1073.000000 -983.000000 C 1060.333333 -996.333333 1047.666667 -1009.666667 1035.000000 -1023.000000z M 620.000000 -75.000000 C 664.666667 -62.333333 711.333333 -52.000000 760.000000 -44.000000 C 808.666667 -36.666667 870.333333 -33.000000 945.000000 -33.000000 C 971.666667 -33.000000 1002.333333 -38.000000 1037.000000 -48.000000 C 1071.666667 -58.000000 1102.000000 -77.333333 1128.000000 -106.000000 C 1154.000000 -135.333333 1167.000000 -176.000000 1167.000000 -228.000000 C 1167.000000 -264.000000 1159.000000 -301.333333 1143.000000 -340.000000 C 1127.000000 -379.333333 1105.666667 -418.666667 1079.000000 -458.000000 C 1052.333333 -498.000000 1023.000000 -537.666667 991.000000 -577.000000 C 959.000000 -617.000000 927.000000 -655.666667 895.000000 -693.000000 C 877.000000 -715.000000 856.000000 -738.000000 832.000000 -762.000000 C 808.666667 -786.666667 786.000000 -809.666667 764.000000 -831.000000 C 777.333333 -844.666667 790.666667 -858.333333 804.000000 -872.000000 C 822.000000 -851.333333 842.333333 -828.000000 865.000000 -802.000000 C 887.666667 -776.666667 909.000000 -752.666667 929.000000 -730.000000 C 980.333333 -673.333333 1028.333333 -616.666667 1073.000000 -560.000000 C 1117.666667 -504.000000 1153.666667 -447.666667 1181.000000 -391.000000 C 1209.000000 -335.000000 1223.000000 -279.000000 1223.000000 -223.000000 C 1223.000000 -169.000000 1212.333333 -125.666667 1191.000000 -93.000000 C 1170.333333 -60.333333 1144.666667 -36.000000 1114.000000 -20.000000 C 1083.333333 -4.000000 1052.000000 6.666667 1020.000000 12.000000 C 988.666667 18.000000 963.666667 21.000000 945.000000 21.000000 C 875.666667 21.000000 815.333333 17.666667 764.000000 11.000000 C 712.666667 5.000000 667.333333 -2.000000 628.000000 -10.000000 C 625.333333 -31.666667 622.666667 -53.333333 620.000000 -75.000000z M 1772.000000 -79.000000 C 1756.666667 -122.333333 1736.666667 -170.000000 1712.000000 -222.000000 C 1688.000000 -274.666667 1661.000000 -328.000000 1631.000000 -382.000000 C 1601.000000 -436.000000 1569.333333 -487.000000 1536.000000 -535.000000 C 1502.666667 -583.000000 1468.666667 -624.333333 1434.000000 -659.000000 C 1448.666667 -669.000000 1463.333333 -679.000000 1478.000000 -689.000000 C 1514.000000 -648.333333 1549.333333 -603.000000 1584.000000 -553.000000 C 1618.666667 -503.000000 1651.333333 -451.333333 1682.000000 -398.000000 C 1712.666667 -345.333333 1740.000000 -294.000000 1764.000000 -244.000000 C 1788.666667 -194.000000 1808.666667 -149.000000 1824.000000 -109.000000 C 1806.666667 -99.000000 1789.333333 -89.000000 1772.000000 -79.000000z M 634.000000 -463.000000 C 595.333333 -424.333333 548.333333 -381.333333 493.000000 -334.000000 C 438.333333 -286.666667 380.333333 -240.666667 319.000000 -196.000000 C 257.666667 -151.333333 198.666667 -113.000000 142.000000 -81.000000 C 130.000000 -97.000000 118.000000 -113.000000 106.000000 -129.000000 C 144.000000 -149.000000 186.000000 -174.333333 232.000000 -205.000000 C 278.000000 -236.333333 324.000000 -269.333333 370.000000 -304.000000 C 416.666667 -339.333333 460.000000 -374.666667 500.000000 -410.000000 C 540.666667 -445.333333 573.666667 -477.000000 599.000000 -505.000000 C 610.666667 -491.000000 622.333333 -477.000000 634.000000 -463.000000z "/>
</g></svg>
