<?xml version="1.0" encoding="utf-8"?>
<svg xmlns="http://www.w3.org/2000/svg" xmlns:ev="http://www.w3.org/2001/xml-events" xmlns:xlink="http://www.w3.org/1999/xlink" version="1.1" baseProfile="full" width="17103.0" height="1740.3" viewBox="60.0 -1597.0 17103.0 1740.3">
<defs/>
<g><path d="M 5873.000000 -943.000000 C 6438.333333 -943.000000 7003.666667 -943.000000 7569.000000 -943.000000 C 7569.000000 -924.333333 7569.000000 -905.666667 7569.000000 -887.000000 C 7003.666667 -887.000000 6438.333333 -887.000000 5873.000000 -887.000000 C 5873.000000 -905.666667 5873.000000 -924.333333 5873.000000 -943.000000z M 6044.000000 -1319.000000 C 6419.666667 -1319.000000 6795.333333 -1319.000000 7171.000000 -1319.000000 C 7171.000000 -1300.333333 7171.000000 -1281.666667 7171.000000 -1263.000000 C 6795.333333 -1263.000000 6419.666667 -1263.000000 6044.000000 -1263.000000 C 6044.000000 -1281.666667 6044.000000 -1300.333333 6044.000000 -1319.000000z M 6330.000000 -324.000000 C 6647.000000 -324.000000 6964.000000 -324.000000 7281.000000 -324.000000 C 7281.000000 -305.000000 7281.000000 -286.000000 7281.000000 -267.000000 C 6964.000000 -267.000000 6647.000000 -267.000000 6330.000000 -267.000000 C 6330.000000 -286.000000 6330.000000 -305.000000 6330.000000 -324.000000z M 6330.000000 10.000000 C 6647.000000 10.000000 6964.000000 10.000000 7281.000000 10.000000 C 7281.000000 28.333333 7281.000000 46.666667 7281.000000 65.000000 C 6964.000000 65.000000 6647.000000 65.000000 6330.000000 65.000000 C 6330.000000 46.666667 6330.000000 28.333333 6330.000000 10.000000z M 6578.000000 -1596.000000 C 6596.666667 -1596.000000 6615.333333 -1596.000000 6634.000000 -1596.000000 C 6634.000000 -1370.000000 6634.000000 -1144.000000 6634.000000 -918.000000 C 6615.333333 -918.000000 6596.666667 -918.000000 6578.000000 -918.000000 C 6578.000000 -1144.000000 6578.000000 -1370.000000 6578.000000 -1596.000000z M 7415.000000 -1519.000000 C 7431.000000 -1508.666667 7447.000000 -1498.333333 7463.000000 -1488.000000 C 7332.333333 -1326.666667 7183.333333 -1177.666667 7016.000000 -1041.000000 C 6849.333333 -905.000000 6671.000000 -782.666667 6481.000000 -674.000000 C 6291.000000 -565.333333 6094.666667 -470.666667 5892.000000 -390.000000 C 5890.000000 -394.666667 5886.000000 -400.000000 5880.000000 -406.000000 C 5874.000000 -412.000000 5868.000000 -418.000000 5862.000000 -424.000000 C 5856.666667 -430.666667 5851.333333 -436.000000 5846.000000 -440.000000 C 6052.666667 -516.666667 6252.000000 -609.000000 6444.000000 -717.000000 C 6636.000000 -825.000000 6814.666667 -946.333333 6980.000000 -1081.000000 C 7146.000000 -1216.333333 7291.000000 -1362.333333 7415.000000 -1519.000000z M 6301.000000 -636.000000 C 6639.666667 -636.000000 6978.333333 -636.000000 7317.000000 -636.000000 C 7317.000000 -381.666667 7317.000000 -127.333333 7317.000000 127.000000 C 7298.000000 127.000000 7279.000000 127.000000 7260.000000 127.000000 C 7260.000000 -108.666667 7260.000000 -344.333333 7260.000000 -580.000000 C 6959.666667 -580.000000 6659.333333 -580.000000 6359.000000 -580.000000 C 6359.000000 -342.000000 6359.000000 -104.000000 6359.000000 134.000000 C 6339.666667 134.000000 6320.333333 134.000000 6301.000000 134.000000 C 6301.000000 -122.666667 6301.000000 -379.333333 6301.000000 -636.000000z "/>
</g></svg>
