<?xml version="1.0" encoding="utf-8"?>
<svg xmlns="http://www.w3.org/2000/svg" xmlns:ev="http://www.w3.org/2001/xml-events" xmlns:xlink="http://www.w3.org/1999/xlink" version="1.1" baseProfile="full" width="7482.0" height="1643.0" viewBox="79.0 -1509.0 7482.0 1643.0">
<defs/>
<g><path d="M 7250.000000 -1436.000000 C 7261.333333 -1415.333333 7274.666667 -1388.666667 7290.000000 -1356.000000 C 7305.333333 -1324.000000 7320.666667 -1291.000000 7336.000000 -1257.000000 C 7351.333333 -1223.000000 7364.333333 -1192.333333 7375.000000 -1165.000000 C 7355.666667 -1158.000000 7336.333333 -1151.000000 7317.000000 -1144.000000 C 7308.333333 -1171.333333 7296.666667 -1201.666667 7282.000000 -1235.000000 C 7267.333333 -1269.000000 7252.333333 -1302.666667 7237.000000 -1336.000000 C 7222.333333 -1369.333333 7208.666667 -1397.000000 7196.000000 -1419.000000 C 7214.000000 -1424.666667 7232.000000 -1430.333333 7250.000000 -1436.000000z M 7434.000000 -1492.000000 C 7446.666667 -1470.000000 7460.666667 -1443.333333 7476.000000 -1412.000000 C 7492.000000 -1380.666667 7507.666667 -1348.333333 7523.000000 -1315.000000 C 7538.333333 -1281.666667 7551.000000 -1251.000000 7561.000000 -1223.000000 C 7541.000000 -1216.000000 7521.000000 -1209.000000 7501.000000 -1202.000000 C 7484.333333 -1245.333333 7464.666667 -1293.333333 7442.000000 -1346.000000 C 7420.000000 -1398.666667 7399.000000 -1441.666667 7379.000000 -1475.000000 C 7397.333333 -1480.666667 7415.666667 -1486.333333 7434.000000 -1492.000000z M 7050.000000 -877.000000 C 7050.000000 -740.333333 7042.333333 -621.333333 7027.000000 -520.000000 C 7011.666667 -419.333333 6984.666667 -331.666667 6946.000000 -257.000000 C 6908.000000 -183.000000 6855.333333 -117.666667 6788.000000 -61.000000 C 6720.666667 -5.000000 6635.333333 46.666667 6532.000000 94.000000 C 6514.666667 77.333333 6497.333333 60.666667 6480.000000 44.000000 C 6562.000000 9.333333 6634.666667 -29.333333 6698.000000 -72.000000 C 6761.333333 -114.666667 6815.000000 -168.666667 6859.000000 -234.000000 C 6903.000000 -299.333333 6936.333333 -382.666667 6959.000000 -484.000000 C 6981.666667 -585.333333 6993.000000 -711.333333 6993.000000 -862.000000 C 6993.000000 -1002.666667 6993.000000 -1143.333333 6993.000000 -1284.000000 C 6993.000000 -1321.333333 6991.666667 -1353.333333 6989.000000 -1380.000000 C 6986.333333 -1407.333333 6985.000000 -1421.000000 6985.000000 -1421.000000 C 7009.333333 -1421.000000 7033.666667 -1421.000000 7058.000000 -1421.000000 C 7058.000000 -1421.000000 7056.666667 -1407.333333 7054.000000 -1380.000000 C 7051.333333 -1353.333333 7050.000000 -1321.333333 7050.000000 -1284.000000 C 7050.000000 -1148.333333 7050.000000 -1012.666667 7050.000000 -877.000000z M 6361.000000 -1413.000000 C 6361.000000 -1413.000000 6360.000000 -1402.666667 6358.000000 -1382.000000 C 6356.000000 -1362.000000 6355.000000 -1337.666667 6355.000000 -1309.000000 C 6355.000000 -1068.666667 6355.000000 -828.333333 6355.000000 -588.000000 C 6355.000000 -570.000000 6355.666667 -549.333333 6357.000000 -526.000000 C 6358.333333 -503.333333 6359.333333 -483.666667 6360.000000 -467.000000 C 6360.666667 -450.333333 6361.000000 -442.000000 6361.000000 -442.000000 C 6337.333333 -442.000000 6313.666667 -442.000000 6290.000000 -442.000000 C 6290.000000 -442.000000 6290.666667 -450.000000 6292.000000 -466.000000 C 6293.333333 -482.000000 6294.666667 -501.333333 6296.000000 -524.000000 C 6297.333333 -547.333333 6298.000000 -568.666667 6298.000000 -588.000000 C 6298.000000 -828.000000 6298.000000 -1068.000000 6298.000000 -1308.000000 C 6298.000000 -1322.000000 6297.666667 -1339.333333 6297.000000 -1360.000000 C 6296.333333 -1381.333333 6294.666667 -1399.000000 6292.000000 -1413.000000 C 6315.000000 -1413.000000 6338.000000 -1413.000000 6361.000000 -1413.000000z M 5869.000000 -1014.000000 C 5869.000000 -1014.000000 5879.000000 -1013.333333 5899.000000 -1012.000000 C 5919.000000 -1010.666667 5943.000000 -1009.333333 5971.000000 -1008.000000 C 5999.000000 -1006.666667 6024.000000 -1006.000000 6046.000000 -1006.000000 C 6474.333333 -1006.000000 6902.666667 -1006.000000 7331.000000 -1006.000000 C 7365.000000 -1006.000000 7396.666667 -1007.333333 7426.000000 -1010.000000 C 7456.000000 -1012.666667 7471.000000 -1014.000000 7471.000000 -1014.000000 C 7471.000000 -990.333333 7471.000000 -966.666667 7471.000000 -943.000000 C 7471.000000 -943.000000 7456.000000 -943.666667 7426.000000 -945.000000 C 7396.666667 -947.000000 7365.000000 -948.000000 7331.000000 -948.000000 C 6902.666667 -948.000000 6474.333333 -948.000000 6046.000000 -948.000000 C 6023.333333 -948.000000 5998.000000 -947.666667 5970.000000 -947.000000 C 5942.666667 -947.000000 5919.000000 -946.333333 5899.000000 -945.000000 C 5879.000000 -943.666667 5869.000000 -943.000000 5869.000000 -943.000000 C 5869.000000 -966.666667 5869.000000 -990.333333 5869.000000 -1014.000000z "/>
</g></svg>
