<?xml version="1.0" encoding="utf-8"?>
<svg xmlns="http://www.w3.org/2000/svg" xmlns:ev="http://www.w3.org/2001/xml-events" xmlns:xlink="http://www.w3.org/1999/xlink" version="1.1" baseProfile="full" width="17092.0" height="1734.0" viewBox="113.0 -1596.0 17092.0 1734.0">
<defs/>
<g><path d="M 14231.000000 -1484.000000 C 14248.333333 -1484.000000 14265.666667 -1484.000000 14283.000000 -1484.000000 C 14283.000000 -1025.333333 14283.000000 -566.666667 14283.000000 -108.000000 C 14283.000000 -74.666667 14287.666667 -48.000000 14297.000000 -28.000000 C 14307.000000 -8.000000 14325.333333 6.000000 14352.000000 14.000000 C 14378.666667 22.666667 14416.333333 27.000000 14465.000000 27.000000 C 14479.000000 27.000000 14505.666667 27.000000 14545.000000 27.000000 C 14584.333333 27.000000 14629.000000 27.000000 14679.000000 27.000000 C 14729.666667 27.000000 14780.666667 27.000000 14832.000000 27.000000 C 14883.333333 27.000000 14930.000000 27.000000 14972.000000 27.000000 C 15014.666667 27.000000 15046.000000 27.000000 15066.000000 27.000000 C 15110.000000 27.000000 15142.333333 18.333333 15163.000000 1.000000 C 15184.333333 -16.333333 15199.000000 -47.333333 15207.000000 -92.000000 C 15215.666667 -136.666667 15222.666667 -199.333333 15228.000000 -280.000000 C 15235.333333 -275.333333 15244.000000 -270.666667 15254.000000 -266.000000 C 15264.666667 -261.333333 15274.333333 -257.666667 15283.000000 -255.000000 C 15278.333333 -172.333333 15270.000000 -106.666667 15258.000000 -58.000000 C 15246.666667 -9.333333 15225.666667 25.333333 15195.000000 46.000000 C 15164.333333 66.666667 15117.666667 77.000000 15055.000000 77.000000 C 15045.666667 77.000000 15021.333333 77.000000 14982.000000 77.000000 C 14943.333333 77.000000 14897.333333 77.000000 14844.000000 77.000000 C 14791.333333 77.000000 14738.000000 77.000000 14684.000000 77.000000 C 14630.666667 77.000000 14584.666667 77.000000 14546.000000 77.000000 C 14507.333333 77.000000 14483.666667 77.000000 14475.000000 77.000000 C 14412.333333 77.000000 14363.333333 71.666667 14328.000000 61.000000 C 14292.666667 51.000000 14267.666667 32.333333 14253.000000 5.000000 C 14238.333333 -21.666667 14231.000000 -59.666667 14231.000000 -109.000000 C 14231.000000 -567.333333 14231.000000 -1025.666667 14231.000000 -1484.000000z M 14262.000000 -1484.000000 C 14561.333333 -1484.000000 14860.666667 -1484.000000 15160.000000 -1484.000000 C 15160.000000 -1166.000000 15160.000000 -848.000000 15160.000000 -530.000000 C 15141.666667 -530.000000 15123.333333 -530.000000 15105.000000 -530.000000 C 15105.000000 -829.333333 15105.000000 -1128.666667 15105.000000 -1428.000000 C 14824.000000 -1428.000000 14543.000000 -1428.000000 14262.000000 -1428.000000 C 14262.000000 -1446.666667 14262.000000 -1465.333333 14262.000000 -1484.000000z M 14260.000000 -718.000000 C 14553.666667 -718.000000 14847.333333 -718.000000 15141.000000 -718.000000 C 15141.000000 -699.333333 15141.000000 -680.666667 15141.000000 -662.000000 C 14847.333333 -662.000000 14553.666667 -662.000000 14260.000000 -662.000000 C 14260.000000 -680.666667 14260.000000 -699.333333 14260.000000 -718.000000z M 14665.000000 -1473.000000 C 14683.666667 -1473.000000 14702.333333 -1473.000000 14721.000000 -1473.000000 C 14721.000000 -1213.000000 14721.000000 -953.000000 14721.000000 -693.000000 C 14702.333333 -693.000000 14683.666667 -693.000000 14665.000000 -693.000000 C 14665.000000 -953.000000 14665.000000 -1213.000000 14665.000000 -1473.000000z M 13532.000000 -538.000000 C 13580.666667 -553.333333 13636.666667 -571.000000 13700.000000 -591.000000 C 13763.333333 -611.666667 13830.333333 -633.666667 13901.000000 -657.000000 C 13972.333333 -681.000000 14044.666667 -704.666667 14118.000000 -728.000000 C 14121.000000 -709.333333 14124.000000 -690.666667 14127.000000 -672.000000 C 14026.333333 -638.666667 13926.000000 -605.000000 13826.000000 -571.000000 C 13726.000000 -537.000000 13637.000000 -506.666667 13559.000000 -480.000000 C 13550.000000 -499.333333 13541.000000 -518.666667 13532.000000 -538.000000z M 13561.000000 -1181.000000 C 13739.000000 -1181.000000 13917.000000 -1181.000000 14095.000000 -1181.000000 C 14095.000000 -1161.666667 14095.000000 -1142.333333 14095.000000 -1123.000000 C 13917.000000 -1123.000000 13739.000000 -1123.000000 13561.000000 -1123.000000 C 13561.000000 -1142.333333 13561.000000 -1161.666667 13561.000000 -1181.000000z M 13816.000000 -1594.000000 C 13835.333333 -1594.000000 13854.666667 -1594.000000 13874.000000 -1594.000000 C 13874.000000 -1047.333333 13874.000000 -500.666667 13874.000000 46.000000 C 13874.000000 70.666667 13869.666667 88.666667 13861.000000 100.000000 C 13853.000000 111.333333 13840.666667 119.666667 13824.000000 125.000000 C 13807.333333 129.666667 13783.666667 132.666667 13753.000000 134.000000 C 13722.333333 135.333333 13680.666667 135.333333 13628.000000 134.000000 C 13626.666667 128.000000 13623.666667 119.333333 13619.000000 108.000000 C 13615.000000 97.333333 13610.333333 88.333333 13605.000000 81.000000 C 13649.666667 82.333333 13688.333333 83.000000 13721.000000 83.000000 C 13753.666667 83.000000 13775.333333 82.333333 13786.000000 81.000000 C 13806.000000 81.000000 13816.000000 70.000000 13816.000000 48.000000 C 13816.000000 -499.333333 13816.000000 -1046.666667 13816.000000 -1594.000000z "/>
</g></svg>
