<?xml version="1.0" ?>
<svg xmlns="http://www.w3.org/2000/svg" version="1.1" width="600" height="600">
  <defs/>
  <g>
    <path stroke-width="0" fill="rgb(0, 0, 0)" opacity="1.0" d="M 469.072998046875 427.5321044921875 C 456.137451171875 413.08258056640625 443.477294921875 401.041259765625 431.0924072265625 391.40826416015625 C 418.8450927734375 381.7752685546875 406.11614990234375 374.55047607421875 392.905517578125 369.73394775390625 C 379.69488525390625 364.77978515625 364.90179443359375 362.302734375 348.526123046875 362.302734375 C 340.68231201171875 362.302734375 333.11376953125 363.8165283203125 325.8204345703125 366.84405517578125 C 318.52703857421875 369.87158203125 312.60980224609375 374.06884765625 308.06866455078125 379.435791015625 C 303.6651611328125 384.802734375 301.46337890625 391.064208984375 301.46337890625 398.22021484375 C 301.46337890625 410.60546875 306.4173583984375 420.0321044921875 316.32525634765625 426.5 C 326.23321533203125 432.83026123046875 338.0677490234375 435.99542236328125 351.82879638671875 435.99542236328125 C 367.65399169921875 435.99542236328125 380.31414794921875 432.41741943359375 389.80926513671875 425.261474609375 C 399.30438232421875 418.10546875 406.5289306640625 408.4036865234375 411.48291015625 396.156005859375 C 416.57452392578125 383.7706298828125 419.94598388671875 369.458740234375 421.5972900390625 353.22021484375 C 423.38623046875 336.981689453125 424.28070068359375 319.77978515625 424.28070068359375 301.61468505859375 C 424.28070068359375 282.62384033203125 421.390869140625 266.2477111816406 415.61126708984375 252.48623657226562 C 409.96923828125 238.72476196289062 402.33184814453125 228.197265625 392.6990966796875 220.9036865234375 C 383.06634521484375 213.610107421875 372.19512939453125 209.96331787109375 360.08538818359375 209.96331787109375 C 350.3150634765625 209.96331787109375 339.16864013671875 212.44036865234375 326.64605712890625 217.39450073242188 C 314.12347412109375 222.21099853515625 301.2569580078125 228.74771118164062 288.04632568359375 237.00457763671875 C 274.97332763671875 245.12384033203125 262.38201904296875 254.2064208984375 250.27227783203125 264.2522888183594 C 238.16253662109375 274.29815673828125 227.63531494140625 284.34405517578125 218.690673828125 294.389892578125 C 219.03466796875 288.7477111816406 219.378662109375 283.1054992675781 219.72271728515625 277.46331787109375 C 228.25457763671875 269.48162841796875 238.09375 261.0183410644531 249.24017333984375 252.07339477539062 C 260.52423095703125 242.9908447265625 272.496337890625 234.52752685546875 285.156494140625 226.6834716796875 C 297.816650390625 218.70184326171875 310.7520751953125 212.16513061523438 323.962646484375 207.07339477539062 C 337.17327880859375 201.84402465820312 349.90228271484375 199.2293701171875 362.14959716796875 199.2293701171875 C 378.80047607421875 199.2293701171875 392.49267578125 204.11468505859375 403.226318359375 213.88531494140625 C 414.0975341796875 223.65597534179688 422.216552734375 236.7293701171875 427.5833740234375 253.10549926757812 C 433.0877685546875 269.34405517578125 435.8399658203125 287.23394775390625 435.8399658203125 306.7752685546875 C 435.8399658203125 329.2064208984375 434.39501953125 349.1605224609375 431.5052490234375 366.63763427734375 C 428.7530517578125 383.97705078125 424.14306640625 398.633056640625 417.6754150390625 410.60546875 C 411.20770263671875 422.44036865234375 402.6070556640625 431.38531494140625 391.8734130859375 437.44036865234375 C 381.2774658203125 443.49542236328125 368.1356201171875 446.52294921875 352.44805908203125 446.52294921875 C 341.9896240234375 446.52294921875 332.01287841796875 445.0091552734375 322.51776123046875 441.981689453125 C 313.1602783203125 438.9541015625 305.52288818359375 434.0 299.6055908203125 427.1192626953125 C 293.6883544921875 420.1009521484375 290.729736328125 410.7431640625 290.729736328125 399.0458984375 C 290.729736328125 389.55047607421875 293.3443603515625 381.2247314453125 298.57354736328125 374.06884765625 C 303.94036865234375 366.912841796875 311.09613037109375 361.47705078125 320.040771484375 357.761474609375 C 328.98541259765625 353.90826416015625 338.89337158203125 351.981689453125 349.7646484375 351.981689453125 C 373.2960205078125 351.981689453125 394.90087890625 357.0733642578125 414.57916259765625 367.25689697265625 C 434.2574462890625 377.302734375 455.17431640625 393.8165283203125 477.32958984375 416.79815673828125 C 474.577392578125 420.37615966796875 471.8251953125 423.9541015625 469.072998046875 427.5321044921875M 224.05743408203125 219.87158203125 C 222.26849365234375 220.14678955078125 218.14019775390625 220.76605224609375 211.6724853515625 221.7293701171875 C 205.204833984375 222.69265747070312 197.56744384765625 223.72476196289062 188.7603759765625 224.82568359375 C 180.0909423828125 225.78900146484375 171.077392578125 226.958740234375 161.71990966796875 228.33486938476562 C 152.3624267578125 229.57339477539062 143.5552978515625 230.8807373046875 135.2987060546875 232.25689697265625 C 134.81707763671875 227.5091552734375 134.33538818359375 222.761474609375 133.853759765625 218.01376342773438 C 137.018798828125 218.28900146484375 140.0462646484375 218.3577880859375 142.93603515625 218.22018432617188 C 145.825927734375 218.08258056640625 148.578125 217.87615966796875 151.19268798828125 217.60092163085938 C 155.73388671875 217.32568359375 161.651123046875 216.77523803710938 168.9444580078125 215.94952392578125 C 176.37542724609375 215.12384033203125 184.2879638671875 214.2293701171875 192.6822509765625 213.26605224609375 C 201.214111328125 212.16513061523438 209.3331298828125 210.99542236328125 217.039306640625 209.75689697265625 C 224.7454833984375 208.3807373046875 230.93798828125 206.86697387695312 235.61676025390625 205.21560668945312 C 238.16253662109375 207.62384033203125 240.70831298828125 210.0321044921875 243.25408935546875 212.44036865234375 C 240.777099609375 216.15594482421875 238.16253662109375 220.215576171875 235.41033935546875 224.6192626953125 C 232.65814208984375 228.88531494140625 229.9747314453125 233.28900146484375 227.360107421875 237.83026123046875 C 224.7454833984375 242.23394775390625 222.33734130859375 246.43121337890625 220.13555908203125 250.42202758789062 C 219.72271728515625 261.5 219.30987548828125 272.5779724121094 218.89703369140625 283.65594482421875 C 214.21826171875 291.63763427734375 208.43865966796875 300.6513671875 201.55810546875 310.697265625 C 194.6776123046875 320.74310302734375 187.2467041015625 331.40826416015625 179.2652587890625 342.692626953125 C 171.42144775390625 353.8394775390625 163.4400634765625 365.12384033203125 155.321044921875 376.5458984375 C 147.339599609375 387.83026123046875 139.77105712890625 398.49542236328125 132.61529541015625 408.541259765625 C 129.86309814453125 405.1009521484375 127.11083984375 401.6605224609375 124.358642578125 398.22021484375 C 129.0374755859375 392.1651611328125 134.95465087890625 384.32110595703125 142.11041259765625 374.6881103515625 C 149.26617431640625 365.0550537109375 156.76593017578125 354.802734375 164.6097412109375 343.93115234375 C 172.5911865234375 332.9219970703125 180.29736328125 322.05047607421875 187.728271484375 311.3165283203125 C 195.15924072265625 300.58258056640625 201.626953125 291.01837158203125 207.13134765625 282.62384033203125 C 212.63580322265625 274.09173583984375 216.48883056640625 267.69268798828125 218.690673828125 263.4266052246094 C 219.447509765625 253.44955444335938 220.204345703125 243.47247314453125 220.96124267578125 233.49542236328125 C 221.9932861328125 228.95413208007812 223.025390625 224.412841796875 224.05743408203125 219.87158203125M 221.3740234375 164.34402465820312 C 221.3740234375 160.9036865234375 221.3740234375 157.1192626953125 221.3740234375 152.99081420898438 C 221.3740234375 148.72479248046875 221.09881591796875 144.73394775390625 220.54840087890625 141.01834106445312 C 225.9840087890625 141.2935791015625 231.41961669921875 141.56881713867188 236.855224609375 141.84405517578125 C 236.029541015625 145.83486938476562 234.99749755859375 153.47250366210938 233.75897216796875 164.75689697265625 C 232.65814208984375 175.9036865234375 231.35076904296875 189.32110595703125 229.83709716796875 205.0091552734375 C 228.46099853515625 220.697265625 227.1536865234375 237.3486328125 225.91522216796875 254.96331787109375 C 224.67669677734375 272.5779724121094 223.64459228515625 289.91741943359375 222.8189697265625 306.981689453125 C 222.13092041015625 324.0458984375 221.786865234375 339.389892578125 221.786865234375 353.0137939453125 C 221.786865234375 366.2247314453125 221.786865234375 377.37158203125 221.786865234375 386.4541015625 C 221.786865234375 395.3990478515625 221.85565185546875 404.0 221.9932861328125 412.25689697265625 C 222.13092041015625 420.37615966796875 222.33734130859375 430.14678955078125 222.612548828125 441.56884765625 C 222.88775634765625 444.87158203125 223.09417724609375 447.8990478515625 223.2318115234375 450.6513671875 C 223.36944580078125 453.541259765625 223.50701904296875 456.43115234375 223.64459228515625 459.32110595703125 C 218.89703369140625 459.32110595703125 214.14947509765625 459.32110595703125 209.4019775390625 459.32110595703125 C 209.6771240234375 457.9449462890625 209.952392578125 455.4678955078125 210.22760009765625 451.889892578125 C 210.5028076171875 448.3118896484375 210.64044189453125 444.94036865234375 210.64044189453125 441.7752685546875 C 210.64044189453125 429.11468505859375 210.64044189453125 418.518310546875 210.64044189453125 409.9862060546875 C 210.64044189453125 401.3165283203125 210.64044189453125 392.784423828125 210.64044189453125 384.389892578125 C 210.64044189453125 375.99542236328125 210.64044189453125 365.53668212890625 210.64044189453125 353.0137939453125 C 210.64044189453125 347.23394775390625 210.9156494140625 338.97705078125 211.466064453125 328.24310302734375 C 212.01654052734375 317.37158203125 212.63580322265625 305.261474609375 213.3238525390625 291.912841796875 C 214.14947509765625 278.564208984375 215.0439453125 264.94036865234375 216.00726318359375 251.04129028320312 C 216.97052001953125 237.1422119140625 217.79620361328125 224.06881713867188 218.4842529296875 211.82110595703125 C 219.30987548828125 199.57339477539062 219.9979248046875 189.25228881835938 220.54840087890625 180.8577880859375 C 221.09881591796875 172.32568359375 221.3740234375 166.82110595703125 221.3740234375 164.34402465820312"/>
  </g>
</svg>
