<?xml version="1.0" encoding="utf-8"?>
<svg xmlns="http://www.w3.org/2000/svg" xmlns:ev="http://www.w3.org/2001/xml-events" xmlns:xlink="http://www.w3.org/1999/xlink" version="1.1" baseProfile="full" width="11171.0" height="1744.0" viewBox="190.0 -1596.0 11171.0 1744.0">
<defs/>
<g><path d="M 472.000000 -657.000000 C 794.666667 -657.000000 1117.333333 -657.000000 1440.000000 -657.000000 C 1440.000000 -638.333333 1440.000000 -619.666667 1440.000000 -601.000000 C 1117.333333 -601.000000 794.666667 -601.000000 472.000000 -601.000000 C 472.000000 -619.666667 472.000000 -638.333333 472.000000 -657.000000z M 440.000000 -399.000000 C 786.666667 -399.000000 1133.333333 -399.000000 1480.000000 -399.000000 C 1480.000000 -380.666667 1480.000000 -362.333333 1480.000000 -344.000000 C 1133.333333 -344.000000 786.666667 -344.000000 440.000000 -344.000000 C 440.000000 -362.333333 440.000000 -380.666667 440.000000 -399.000000z M 914.000000 -634.000000 C 933.333333 -634.000000 952.666667 -634.000000 972.000000 -634.000000 C 972.000000 -575.000000 972.000000 -516.000000 972.000000 -457.000000 C 972.000000 -418.333333 967.000000 -377.333333 957.000000 -334.000000 C 947.666667 -290.666667 926.666667 -246.000000 894.000000 -200.000000 C 861.333333 -154.666667 811.333333 -111.333333 744.000000 -70.000000 C 676.666667 -28.666667 586.000000 9.333333 472.000000 44.000000 C 468.666667 38.000000 463.333333 30.333333 456.000000 21.000000 C 448.666667 12.333333 442.666667 5.333333 438.000000 0.000000 C 548.000000 -30.666667 635.000000 -65.333333 699.000000 -104.000000 C 763.000000 -143.333333 810.333333 -183.333333 841.000000 -224.000000 C 871.666667 -265.333333 891.333333 -306.000000 900.000000 -346.000000 C 909.333333 -386.666667 914.000000 -423.666667 914.000000 -457.000000 C 914.000000 -516.000000 914.000000 -575.000000 914.000000 -634.000000z M 987.000000 -382.000000 C 1023.000000 -287.333333 1082.333333 -208.666667 1165.000000 -146.000000 C 1248.333333 -83.333333 1350.333333 -39.666667 1471.000000 -15.000000 C 1463.000000 -10.333333 1455.333333 -3.333333 1448.000000 6.000000 C 1441.333333 16.000000 1435.333333 25.000000 1430.000000 33.000000 C 1310.000000 2.333333 1206.333333 -47.000000 1119.000000 -115.000000 C 1032.333333 -183.000000 970.333333 -267.666667 933.000000 -369.000000 C 951.000000 -373.333333 969.000000 -377.666667 987.000000 -382.000000z M 630.000000 -849.000000 C 646.000000 -855.333333 662.000000 -861.666667 678.000000 -868.000000 C 703.333333 -838.666667 726.666667 -805.000000 748.000000 -767.000000 C 770.000000 -729.000000 785.666667 -696.000000 795.000000 -668.000000 C 777.666667 -660.333333 760.333333 -652.666667 743.000000 -645.000000 C 734.333333 -674.333333 719.666667 -708.000000 699.000000 -746.000000 C 678.333333 -784.000000 655.333333 -818.333333 630.000000 -849.000000z M 1215.000000 -876.000000 C 1232.333333 -867.000000 1249.666667 -858.000000 1267.000000 -849.000000 C 1246.333333 -813.000000 1224.666667 -776.000000 1202.000000 -738.000000 C 1180.000000 -700.666667 1158.333333 -667.666667 1137.000000 -639.000000 C 1123.333333 -646.666667 1109.666667 -654.333333 1096.000000 -662.000000 C 1115.333333 -692.000000 1136.666667 -727.666667 1160.000000 -769.000000 C 1184.000000 -810.333333 1202.333333 -846.000000 1215.000000 -876.000000z M 223.000000 -1240.000000 C 421.333333 -1240.000000 619.666667 -1240.000000 818.000000 -1240.000000 C 818.000000 -1221.666667 818.000000 -1203.333333 818.000000 -1185.000000 C 619.666667 -1185.000000 421.333333 -1185.000000 223.000000 -1185.000000 C 223.000000 -1203.333333 223.000000 -1221.666667 223.000000 -1240.000000z M 1102.000000 -1240.000000 C 1303.000000 -1240.000000 1504.000000 -1240.000000 1705.000000 -1240.000000 C 1705.000000 -1221.666667 1705.000000 -1203.333333 1705.000000 -1185.000000 C 1504.000000 -1185.000000 1303.000000 -1185.000000 1102.000000 -1185.000000 C 1102.000000 -1203.333333 1102.000000 -1221.666667 1102.000000 -1240.000000z M 1682.000000 -1503.000000 C 1701.333333 -1503.000000 1720.666667 -1503.000000 1740.000000 -1503.000000 C 1740.000000 -991.000000 1740.000000 -479.000000 1740.000000 33.000000 C 1740.000000 61.000000 1735.666667 81.666667 1727.000000 95.000000 C 1719.000000 108.333333 1704.666667 118.333333 1684.000000 125.000000 C 1666.000000 129.666667 1636.666667 132.333333 1596.000000 133.000000 C 1556.000000 133.666667 1505.333333 134.000000 1444.000000 134.000000 C 1442.666667 126.666667 1439.333333 116.666667 1434.000000 104.000000 C 1429.333333 92.000000 1424.333333 81.666667 1419.000000 73.000000 C 1473.000000 74.333333 1521.000000 75.000000 1563.000000 75.000000 C 1605.000000 75.000000 1633.000000 74.333333 1647.000000 73.000000 C 1660.333333 71.666667 1669.333333 68.333333 1674.000000 63.000000 C 1679.333333 58.333333 1682.000000 49.000000 1682.000000 35.000000 C 1682.000000 -477.666667 1682.000000 -990.333333 1682.000000 -1503.000000z M 227.000000 -1503.000000 C 434.333333 -1503.000000 641.666667 -1503.000000 849.000000 -1503.000000 C 849.000000 -1305.333333 849.000000 -1107.666667 849.000000 -910.000000 C 641.666667 -910.000000 434.333333 -910.000000 227.000000 -910.000000 C 227.000000 -928.666667 227.000000 -947.333333 227.000000 -966.000000 C 415.666667 -966.000000 604.333333 -966.000000 793.000000 -966.000000 C 793.000000 -1126.666667 793.000000 -1287.333333 793.000000 -1448.000000 C 604.333333 -1448.000000 415.666667 -1448.000000 227.000000 -1448.000000 C 227.000000 -1466.333333 227.000000 -1484.666667 227.000000 -1503.000000z M 1703.000000 -1503.000000 C 1703.000000 -1484.666667 1703.000000 -1466.333333 1703.000000 -1448.000000 C 1508.333333 -1448.000000 1313.666667 -1448.000000 1119.000000 -1448.000000 C 1119.000000 -1287.333333 1119.000000 -1126.666667 1119.000000 -966.000000 C 1313.666667 -966.000000 1508.333333 -966.000000 1703.000000 -966.000000 C 1703.000000 -947.333333 1703.000000 -928.666667 1703.000000 -910.000000 C 1490.000000 -910.000000 1277.000000 -910.000000 1064.000000 -910.000000 C 1064.000000 -1107.666667 1064.000000 -1305.333333 1064.000000 -1503.000000 C 1277.000000 -1503.000000 1490.000000 -1503.000000 1703.000000 -1503.000000z M 190.000000 -1503.000000 C 209.333333 -1503.000000 228.666667 -1503.000000 248.000000 -1503.000000 C 248.000000 -956.000000 248.000000 -409.000000 248.000000 138.000000 C 228.666667 138.000000 209.333333 138.000000 190.000000 138.000000 C 190.000000 -409.000000 190.000000 -956.000000 190.000000 -1503.000000z "/>
</g>
<g><path d="M 3070.000000 -593.000000 C 3088.666667 -593.000000 3107.333333 -593.000000 3126.000000 -593.000000 C 3126.000000 -350.666667 3126.000000 -108.333333 3126.000000 134.000000 C 3107.333333 134.000000 3088.666667 134.000000 3070.000000 134.000000 C 3070.000000 -108.333333 3070.000000 -350.666667 3070.000000 -593.000000z M 2456.000000 -597.000000 C 2550.666667 -598.333333 2662.333333 -600.000000 2791.000000 -602.000000 C 2919.666667 -604.000000 3056.666667 -606.666667 3202.000000 -610.000000 C 3347.333333 -614.000000 3492.666667 -618.000000 3638.000000 -622.000000 C 3637.000000 -604.666667 3636.000000 -587.333333 3635.000000 -570.000000 C 3493.666667 -566.000000 3351.666667 -561.666667 3209.000000 -557.000000 C 3066.333333 -553.000000 2931.000000 -549.333333 2803.000000 -546.000000 C 2675.000000 -542.666667 2561.000000 -540.000000 2461.000000 -538.000000 C 2459.333333 -557.666667 2457.666667 -577.333333 2456.000000 -597.000000z M 3588.000000 -1536.000000 C 3604.666667 -1520.666667 3621.333333 -1505.333333 3638.000000 -1490.000000 C 3574.000000 -1470.666667 3498.333333 -1453.000000 3411.000000 -1437.000000 C 3324.333333 -1421.000000 3231.666667 -1406.666667 3133.000000 -1394.000000 C 3035.000000 -1381.333333 2935.333333 -1370.000000 2834.000000 -1360.000000 C 2732.666667 -1350.666667 2634.666667 -1342.666667 2540.000000 -1336.000000 C 2538.666667 -1342.666667 2536.333333 -1350.666667 2533.000000 -1360.000000 C 2530.333333 -1370.000000 2527.000000 -1378.000000 2523.000000 -1384.000000 C 2615.000000 -1392.000000 2711.333333 -1400.666667 2812.000000 -1410.000000 C 2913.333333 -1420.000000 3012.333333 -1431.333333 3109.000000 -1444.000000 C 3205.666667 -1456.666667 3295.333333 -1470.666667 3378.000000 -1486.000000 C 3460.666667 -1501.333333 3530.666667 -1518.000000 3588.000000 -1536.000000z M 3389.000000 -1252.000000 C 3405.666667 -1241.666667 3422.333333 -1231.333333 3439.000000 -1221.000000 C 3378.333333 -1148.333333 3309.666667 -1071.000000 3233.000000 -989.000000 C 3156.333333 -907.000000 3078.333333 -827.333333 2999.000000 -750.000000 C 2919.666667 -672.666667 2844.666667 -604.333333 2774.000000 -545.000000 C 2760.666667 -555.333333 2747.333333 -565.666667 2734.000000 -576.000000 C 2785.333333 -619.333333 2840.333333 -668.666667 2899.000000 -724.000000 C 2958.333333 -780.000000 3017.333333 -838.333333 3076.000000 -899.000000 C 3134.666667 -960.333333 3190.666667 -1021.333333 3244.000000 -1082.000000 C 3298.000000 -1142.666667 3346.333333 -1199.333333 3389.000000 -1252.000000z M 3009.000000 -1407.000000 C 3025.666667 -1397.000000 3042.333333 -1387.000000 3059.000000 -1377.000000 C 3029.000000 -1335.666667 2995.000000 -1292.333333 2957.000000 -1247.000000 C 2919.666667 -1201.666667 2882.000000 -1157.333333 2844.000000 -1114.000000 C 2806.666667 -1071.333333 2771.333333 -1034.000000 2738.000000 -1002.000000 C 2724.000000 -1010.333333 2710.000000 -1018.666667 2696.000000 -1027.000000 C 2730.666667 -1060.333333 2767.000000 -1099.000000 2805.000000 -1143.000000 C 2843.666667 -1187.666667 2880.666667 -1233.333333 2916.000000 -1280.000000 C 2952.000000 -1326.666667 2983.000000 -1369.000000 3009.000000 -1407.000000z M 3383.000000 -363.000000 C 3396.333333 -372.000000 3409.666667 -381.000000 3423.000000 -390.000000 C 3467.000000 -348.666667 3510.000000 -303.000000 3552.000000 -253.000000 C 3594.000000 -203.666667 3632.666667 -155.000000 3668.000000 -107.000000 C 3703.333333 -59.000000 3730.666667 -16.333333 3750.000000 21.000000 C 3736.000000 31.333333 3722.000000 41.666667 3708.000000 52.000000 C 3688.666667 13.333333 3661.333333 -30.333333 3626.000000 -79.000000 C 3590.666667 -127.666667 3551.666667 -176.666667 3509.000000 -226.000000 C 3467.000000 -276.000000 3425.000000 -321.666667 3383.000000 -363.000000z M 3333.000000 -860.000000 C 3346.000000 -869.666667 3359.000000 -879.333333 3372.000000 -889.000000 C 3422.666667 -848.333333 3473.666667 -802.666667 3525.000000 -752.000000 C 3576.333333 -701.333333 3623.333333 -651.333333 3666.000000 -602.000000 C 3709.333333 -552.666667 3743.666667 -507.666667 3769.000000 -467.000000 C 3755.666667 -456.000000 3742.333333 -445.000000 3729.000000 -434.000000 C 3704.333333 -474.666667 3670.666667 -520.000000 3628.000000 -570.000000 C 3585.333333 -620.000000 3538.333333 -670.333333 3487.000000 -721.000000 C 3435.666667 -771.666667 3384.333333 -818.000000 3333.000000 -860.000000z M 2540.000000 -1110.000000 C 2551.000000 -1121.333333 2562.000000 -1132.666667 2573.000000 -1144.000000 C 2627.666667 -1112.000000 2683.000000 -1075.666667 2739.000000 -1035.000000 C 2795.666667 -995.000000 2848.000000 -954.333333 2896.000000 -913.000000 C 2944.000000 -872.333333 2982.666667 -835.000000 3012.000000 -801.000000 C 3000.666667 -787.333333 2989.333333 -773.666667 2978.000000 -760.000000 C 2948.666667 -796.000000 2910.000000 -834.666667 2862.000000 -876.000000 C 2814.000000 -918.000000 2762.000000 -959.333333 2706.000000 -1000.000000 C 2650.666667 -1041.333333 2595.333333 -1078.000000 2540.000000 -1110.000000z M 2456.000000 -1578.000000 C 2473.666667 -1573.666667 2491.333333 -1569.333333 2509.000000 -1565.000000 C 2468.333333 -1455.000000 2421.333333 -1348.000000 2368.000000 -1244.000000 C 2315.333333 -1140.666667 2257.666667 -1043.333333 2195.000000 -952.000000 C 2133.000000 -861.333333 2069.000000 -780.000000 2003.000000 -708.000000 C 2000.333333 -712.000000 1996.666667 -717.000000 1992.000000 -723.000000 C 1987.333333 -729.000000 1982.333333 -734.333333 1977.000000 -739.000000 C 1972.333333 -744.333333 1967.333333 -749.000000 1962.000000 -753.000000 C 2028.666667 -820.333333 2092.333333 -897.666667 2153.000000 -985.000000 C 2213.666667 -1073.000000 2269.666667 -1167.666667 2321.000000 -1269.000000 C 2372.333333 -1370.333333 2417.333333 -1473.333333 2456.000000 -1578.000000z M 2266.000000 -1123.000000 C 2283.000000 -1141.000000 2300.000000 -1159.000000 2317.000000 -1177.000000 C 2318.333333 -1175.666667 2319.666667 -1174.333333 2321.000000 -1173.000000 C 2321.000000 -736.666667 2321.000000 -300.333333 2321.000000 136.000000 C 2302.666667 136.000000 2284.333333 136.000000 2266.000000 136.000000 C 2266.000000 -283.666667 2266.000000 -703.333333 2266.000000 -1123.000000z M 2761.000000 -392.000000 C 2779.666667 -386.000000 2798.333333 -380.000000 2817.000000 -374.000000 C 2778.333333 -302.666667 2729.000000 -228.333333 2669.000000 -151.000000 C 2609.000000 -73.666667 2547.000000 -7.333333 2483.000000 48.000000 C 2477.666667 42.666667 2471.000000 36.666667 2463.000000 30.000000 C 2455.666667 24.000000 2448.666667 18.333333 2442.000000 13.000000 C 2483.333333 -22.333333 2524.333333 -62.333333 2565.000000 -107.000000 C 2606.333333 -152.333333 2643.666667 -199.666667 2677.000000 -249.000000 C 2711.000000 -298.333333 2739.000000 -346.000000 2761.000000 -392.000000z "/>
</g>
<g><path d="M 4441.000000 -1037.000000 C 4678.333333 -1037.000000 4915.666667 -1037.000000 5153.000000 -1037.000000 C 5153.000000 -1018.333333 5153.000000 -999.666667 5153.000000 -981.000000 C 4915.666667 -981.000000 4678.333333 -981.000000 4441.000000 -981.000000 C 4441.000000 -999.666667 4441.000000 -1018.333333 4441.000000 -1037.000000z M 3957.000000 29.000000 C 4519.000000 29.000000 5081.000000 29.000000 5643.000000 29.000000 C 5643.000000 47.333333 5643.000000 65.666667 5643.000000 84.000000 C 5081.000000 84.000000 4519.000000 84.000000 3957.000000 84.000000 C 3957.000000 65.666667 3957.000000 47.333333 3957.000000 29.000000z M 4074.000000 -1519.000000 C 4274.333333 -1519.000000 4474.666667 -1519.000000 4675.000000 -1519.000000 C 4675.000000 -1500.333333 4675.000000 -1481.666667 4675.000000 -1463.000000 C 4474.666667 -1463.000000 4274.333333 -1463.000000 4074.000000 -1463.000000 C 4074.000000 -1481.666667 4074.000000 -1500.333333 4074.000000 -1519.000000z M 4656.000000 -1519.000000 C 4659.333333 -1519.000000 4662.666667 -1519.000000 4666.000000 -1519.000000 C 4670.333333 -1520.333333 4674.666667 -1521.666667 4679.000000 -1523.000000 C 4691.333333 -1515.666667 4703.666667 -1508.333333 4716.000000 -1501.000000 C 4680.000000 -1411.666667 4633.000000 -1327.666667 4575.000000 -1249.000000 C 4517.666667 -1170.333333 4453.666667 -1098.333333 4383.000000 -1033.000000 C 4313.000000 -967.666667 4240.000000 -910.333333 4164.000000 -861.000000 C 4088.666667 -811.666667 4015.333333 -770.333333 3944.000000 -737.000000 C 3940.000000 -743.666667 3934.333333 -751.666667 3927.000000 -761.000000 C 3920.333333 -771.000000 3913.666667 -778.333333 3907.000000 -783.000000 C 3977.666667 -813.000000 4049.666667 -852.000000 4123.000000 -900.000000 C 4197.000000 -948.000000 4268.000000 -1003.333333 4336.000000 -1066.000000 C 4404.666667 -1128.666667 4466.666667 -1196.666667 4522.000000 -1270.000000 C 4578.000000 -1343.333333 4622.666667 -1421.000000 4656.000000 -1503.000000 C 4656.000000 -1508.333333 4656.000000 -1513.666667 4656.000000 -1519.000000z M 4867.000000 -1592.000000 C 4921.000000 -1479.333333 4990.333333 -1371.000000 5075.000000 -1267.000000 C 5160.333333 -1163.666667 5254.666667 -1071.666667 5358.000000 -991.000000 C 5462.000000 -910.333333 5569.000000 -848.000000 5679.000000 -804.000000 C 5674.333333 -800.666667 5669.333333 -796.333333 5664.000000 -791.000000 C 5658.666667 -785.666667 5653.666667 -780.000000 5649.000000 -774.000000 C 5645.000000 -768.666667 5641.000000 -763.333333 5637.000000 -758.000000 C 5528.333333 -806.666667 5422.000000 -872.666667 5318.000000 -956.000000 C 5214.666667 -1039.333333 5120.000000 -1133.666667 5034.000000 -1239.000000 C 4948.666667 -1345.000000 4877.666667 -1456.000000 4821.000000 -1572.000000 C 4836.333333 -1578.666667 4851.666667 -1585.333333 4867.000000 -1592.000000z M 4063.000000 -1321.000000 C 4073.666667 -1332.000000 4084.333333 -1343.000000 4095.000000 -1354.000000 C 4135.000000 -1332.000000 4174.666667 -1306.666667 4214.000000 -1278.000000 C 4254.000000 -1249.333333 4291.000000 -1219.666667 4325.000000 -1189.000000 C 4359.000000 -1159.000000 4385.333333 -1130.666667 4404.000000 -1104.000000 C 4394.000000 -1092.000000 4384.000000 -1080.000000 4374.000000 -1068.000000 C 4342.000000 -1106.000000 4296.666667 -1149.000000 4238.000000 -1197.000000 C 4180.000000 -1245.000000 4121.666667 -1286.333333 4063.000000 -1321.000000z M 5341.000000 -1580.000000 C 5357.000000 -1569.333333 5373.000000 -1558.666667 5389.000000 -1548.000000 C 5341.666667 -1499.333333 5286.333333 -1449.333333 5223.000000 -1398.000000 C 5159.666667 -1346.666667 5102.000000 -1302.333333 5050.000000 -1265.000000 C 5037.000000 -1275.333333 5024.000000 -1285.666667 5011.000000 -1296.000000 C 5045.666667 -1321.333333 5083.333333 -1350.666667 5124.000000 -1384.000000 C 5165.333333 -1417.333333 5205.000000 -1451.333333 5243.000000 -1486.000000 C 5281.666667 -1520.666667 5314.333333 -1552.000000 5341.000000 -1580.000000z M 5556.000000 -1352.000000 C 5571.666667 -1340.333333 5587.333333 -1328.666667 5603.000000 -1317.000000 C 5555.666667 -1269.666667 5499.666667 -1221.000000 5435.000000 -1171.000000 C 5370.333333 -1121.000000 5310.333333 -1078.666667 5255.000000 -1044.000000 C 5242.333333 -1054.333333 5229.666667 -1064.666667 5217.000000 -1075.000000 C 5252.333333 -1099.666667 5291.000000 -1128.000000 5333.000000 -1160.000000 C 5375.666667 -1192.000000 5416.666667 -1224.666667 5456.000000 -1258.000000 C 5496.000000 -1292.000000 5529.333333 -1323.333333 5556.000000 -1352.000000z M 4353.000000 -720.000000 C 4353.000000 -608.000000 4353.000000 -496.000000 4353.000000 -384.000000 C 4652.333333 -384.000000 4951.666667 -384.000000 5251.000000 -384.000000 C 5251.000000 -496.000000 5251.000000 -608.000000 5251.000000 -720.000000 C 4951.666667 -720.000000 4652.333333 -720.000000 4353.000000 -720.000000z M 4295.000000 -776.000000 C 4633.000000 -776.000000 4971.000000 -776.000000 5309.000000 -776.000000 C 5309.000000 -626.666667 5309.000000 -477.333333 5309.000000 -328.000000 C 4971.000000 -328.000000 4633.000000 -328.000000 4295.000000 -328.000000 C 4295.000000 -477.333333 4295.000000 -626.666667 4295.000000 -776.000000z M 4406.000000 -292.000000 C 4423.333333 -297.666667 4440.666667 -303.333333 4458.000000 -309.000000 C 4487.333333 -261.666667 4514.666667 -209.000000 4540.000000 -151.000000 C 4566.000000 -93.666667 4584.666667 -44.000000 4596.000000 -2.000000 C 4578.333333 5.000000 4560.666667 12.000000 4543.000000 19.000000 C 4531.000000 -23.000000 4512.666667 -73.333333 4488.000000 -132.000000 C 4463.333333 -191.333333 4436.000000 -244.666667 4406.000000 -292.000000z M 5149.000000 -319.000000 C 5167.666667 -310.000000 5186.333333 -301.000000 5205.000000 -292.000000 C 5177.000000 -236.666667 5147.000000 -180.000000 5115.000000 -122.000000 C 5083.000000 -64.000000 5052.333333 -13.000000 5023.000000 31.000000 C 5007.666667 22.666667 4992.333333 14.333333 4977.000000 6.000000 C 4997.000000 -22.000000 5018.000000 -55.333333 5040.000000 -94.000000 C 5062.000000 -132.666667 5082.333333 -171.666667 5101.000000 -211.000000 C 5120.333333 -251.000000 5136.333333 -287.000000 5149.000000 -319.000000z "/>
</g>
<g><path d="M 6029.000000 -1010.000000 C 6205.000000 -1010.000000 6381.000000 -1010.000000 6557.000000 -1010.000000 C 6557.000000 -991.333333 6557.000000 -972.666667 6557.000000 -954.000000 C 6381.000000 -954.000000 6205.000000 -954.000000 6029.000000 -954.000000 C 6029.000000 -972.666667 6029.000000 -991.333333 6029.000000 -1010.000000z M 6023.000000 -369.000000 C 6201.666667 -369.000000 6380.333333 -369.000000 6559.000000 -369.000000 C 6559.000000 -350.333333 6559.000000 -331.666667 6559.000000 -313.000000 C 6380.333333 -313.000000 6201.666667 -313.000000 6023.000000 -313.000000 C 6023.000000 -331.666667 6023.000000 -350.333333 6023.000000 -369.000000z M 6023.000000 -697.000000 C 6201.666667 -697.000000 6380.333333 -697.000000 6559.000000 -697.000000 C 6559.000000 -677.666667 6559.000000 -658.333333 6559.000000 -639.000000 C 6380.333333 -639.000000 6201.666667 -639.000000 6023.000000 -639.000000 C 6023.000000 -658.333333 6023.000000 -677.666667 6023.000000 -697.000000z M 6526.000000 -1010.000000 C 6544.666667 -1010.000000 6563.333333 -1010.000000 6582.000000 -1010.000000 C 6582.000000 -663.666667 6582.000000 -317.333333 6582.000000 29.000000 C 6582.000000 50.333333 6578.333333 66.666667 6571.000000 78.000000 C 6564.333333 90.000000 6552.000000 98.666667 6534.000000 104.000000 C 6516.000000 108.666667 6488.000000 111.666667 6450.000000 113.000000 C 6412.666667 114.333333 6362.000000 115.000000 6298.000000 115.000000 C 6296.666667 107.666667 6293.333333 98.666667 6288.000000 88.000000 C 6282.666667 78.000000 6277.666667 69.000000 6273.000000 61.000000 C 6326.333333 62.333333 6372.666667 63.000000 6412.000000 63.000000 C 6452.000000 63.000000 6478.666667 62.333333 6492.000000 61.000000 C 6504.666667 60.333333 6513.333333 57.666667 6518.000000 53.000000 C 6523.333333 48.333333 6526.000000 40.333333 6526.000000 29.000000 C 6526.000000 -317.333333 6526.000000 -663.666667 6526.000000 -1010.000000z M 6002.000000 -1010.000000 C 6020.666667 -1010.000000 6039.333333 -1010.000000 6058.000000 -1010.000000 C 6058.000000 -874.333333 6058.000000 -738.666667 6058.000000 -603.000000 C 6058.000000 -547.666667 6055.666667 -488.333333 6051.000000 -425.000000 C 6046.333333 -361.666667 6037.666667 -297.000000 6025.000000 -231.000000 C 6012.333333 -165.000000 5994.333333 -100.333333 5971.000000 -37.000000 C 5948.333333 26.333333 5917.666667 85.333333 5879.000000 140.000000 C 5876.333333 134.666667 5872.000000 129.666667 5866.000000 125.000000 C 5860.666667 121.000000 5855.333333 116.666667 5850.000000 112.000000 C 5845.333333 108.000000 5840.333333 104.666667 5835.000000 102.000000 C 5885.000000 32.666667 5921.666667 -43.333333 5945.000000 -126.000000 C 5969.000000 -208.666667 5984.333333 -291.000000 5991.000000 -373.000000 C 5998.333333 -455.666667 6002.000000 -532.333333 6002.000000 -603.000000 C 6002.000000 -738.666667 6002.000000 -874.333333 6002.000000 -1010.000000z M 6872.000000 -1010.000000 C 7056.333333 -1010.000000 7240.666667 -1010.000000 7425.000000 -1010.000000 C 7425.000000 -991.333333 7425.000000 -972.666667 7425.000000 -954.000000 C 7240.666667 -954.000000 7056.333333 -954.000000 6872.000000 -954.000000 C 6872.000000 -972.666667 6872.000000 -991.333333 6872.000000 -1010.000000z M 6866.000000 -361.000000 C 7053.000000 -361.000000 7240.000000 -361.000000 7427.000000 -361.000000 C 7427.000000 -342.333333 7427.000000 -323.666667 7427.000000 -305.000000 C 7240.000000 -305.000000 7053.000000 -305.000000 6866.000000 -305.000000 C 6866.000000 -323.666667 6866.000000 -342.333333 6866.000000 -361.000000z M 6866.000000 -697.000000 C 7053.000000 -697.000000 7240.000000 -697.000000 7427.000000 -697.000000 C 7427.000000 -677.666667 7427.000000 -658.333333 7427.000000 -639.000000 C 7240.000000 -639.000000 7053.000000 -639.000000 6866.000000 -639.000000 C 6866.000000 -658.333333 6866.000000 -677.666667 6866.000000 -697.000000z M 7402.000000 -1010.000000 C 7420.333333 -1010.000000 7438.666667 -1010.000000 7457.000000 -1010.000000 C 7457.000000 -662.333333 7457.000000 -314.666667 7457.000000 33.000000 C 7457.000000 57.000000 7453.000000 74.666667 7445.000000 86.000000 C 7437.666667 98.000000 7425.000000 107.000000 7407.000000 113.000000 C 7388.333333 118.333333 7359.333333 121.333333 7320.000000 122.000000 C 7280.666667 122.666667 7226.000000 123.000000 7156.000000 123.000000 C 7153.333333 115.000000 7150.000000 106.000000 7146.000000 96.000000 C 7142.000000 86.000000 7137.666667 77.000000 7133.000000 69.000000 C 7189.000000 70.333333 7238.000000 71.000000 7280.000000 71.000000 C 7322.666667 71.000000 7350.333333 70.333333 7363.000000 69.000000 C 7377.000000 67.666667 7387.000000 64.666667 7393.000000 60.000000 C 7399.000000 56.000000 7402.000000 47.666667 7402.000000 35.000000 C 7402.000000 -313.333333 7402.000000 -661.666667 7402.000000 -1010.000000z M 6837.000000 -1010.000000 C 6855.666667 -1010.000000 6874.333333 -1010.000000 6893.000000 -1010.000000 C 6893.000000 -853.333333 6893.000000 -696.666667 6893.000000 -540.000000 C 6893.000000 -488.666667 6890.666667 -433.333333 6886.000000 -374.000000 C 6881.333333 -315.333333 6872.666667 -256.000000 6860.000000 -196.000000 C 6847.333333 -136.000000 6828.333333 -77.000000 6803.000000 -19.000000 C 6778.333333 38.333333 6746.333333 91.333333 6707.000000 140.000000 C 6704.333333 134.666667 6700.000000 129.666667 6694.000000 125.000000 C 6688.000000 121.000000 6682.333333 116.666667 6677.000000 112.000000 C 6672.333333 108.000000 6668.000000 104.666667 6664.000000 102.000000 C 6715.333333 40.666667 6753.000000 -27.333333 6777.000000 -102.000000 C 6801.666667 -177.333333 6817.666667 -252.666667 6825.000000 -328.000000 C 6833.000000 -404.000000 6837.000000 -474.666667 6837.000000 -540.000000 C 6837.000000 -696.666667 6837.000000 -853.333333 6837.000000 -1010.000000z M 5998.000000 -1524.000000 C 6016.666667 -1524.000000 6035.333333 -1524.000000 6054.000000 -1524.000000 C 6054.000000 -1427.000000 6054.000000 -1330.000000 6054.000000 -1233.000000 C 6502.666667 -1233.000000 6951.333333 -1233.000000 7400.000000 -1233.000000 C 7400.000000 -1330.000000 7400.000000 -1427.000000 7400.000000 -1524.000000 C 7418.333333 -1524.000000 7436.666667 -1524.000000 7455.000000 -1524.000000 C 7455.000000 -1408.333333 7455.000000 -1292.666667 7455.000000 -1177.000000 C 6969.333333 -1177.000000 6483.666667 -1177.000000 5998.000000 -1177.000000 C 5998.000000 -1292.666667 5998.000000 -1408.333333 5998.000000 -1524.000000z M 6689.000000 -1596.000000 C 6708.333333 -1596.000000 6727.666667 -1596.000000 6747.000000 -1596.000000 C 6747.000000 -1468.333333 6747.000000 -1340.666667 6747.000000 -1213.000000 C 6727.666667 -1213.000000 6708.333333 -1213.000000 6689.000000 -1213.000000 C 6689.000000 -1340.666667 6689.000000 -1468.333333 6689.000000 -1596.000000z "/>
</g>
<g><path d="M 8388.000000 -321.000000 C 8761.333333 -321.000000 9134.666667 -321.000000 9508.000000 -321.000000 C 9508.000000 -301.666667 9508.000000 -282.333333 9508.000000 -263.000000 C 9134.666667 -263.000000 8761.333333 -263.000000 8388.000000 -263.000000 C 8388.000000 -282.333333 8388.000000 -301.666667 8388.000000 -321.000000z M 8980.000000 -968.000000 C 9147.000000 -968.000000 9314.000000 -968.000000 9481.000000 -968.000000 C 9481.000000 -948.666667 9481.000000 -929.333333 9481.000000 -910.000000 C 9314.000000 -910.000000 9147.000000 -910.000000 8980.000000 -910.000000 C 8980.000000 -929.333333 8980.000000 -948.666667 8980.000000 -968.000000z M 8949.000000 -1450.000000 C 8967.666667 -1450.000000 8986.333333 -1450.000000 9005.000000 -1450.000000 C 9005.000000 -1066.000000 9005.000000 -682.000000 9005.000000 -298.000000 C 8986.333333 -298.000000 8967.666667 -298.000000 8949.000000 -298.000000 C 8949.000000 -682.000000 8949.000000 -1066.000000 8949.000000 -1450.000000z M 8571.000000 -1094.000000 C 8589.666667 -1094.000000 8608.333333 -1094.000000 8627.000000 -1094.000000 C 8627.000000 -825.333333 8627.000000 -556.666667 8627.000000 -288.000000 C 8608.333333 -288.000000 8589.666667 -288.000000 8571.000000 -288.000000 C 8571.000000 -556.666667 8571.000000 -825.333333 8571.000000 -1094.000000z M 9370.000000 -1584.000000 C 9387.666667 -1570.000000 9405.333333 -1556.000000 9423.000000 -1542.000000 C 9368.333333 -1521.333333 9303.333333 -1502.000000 9228.000000 -1484.000000 C 9153.333333 -1466.000000 9073.333333 -1449.666667 8988.000000 -1435.000000 C 8903.333333 -1420.333333 8816.666667 -1407.333333 8728.000000 -1396.000000 C 8640.000000 -1384.666667 8555.000000 -1375.000000 8473.000000 -1367.000000 C 8471.666667 -1373.666667 8469.000000 -1381.333333 8465.000000 -1390.000000 C 8461.666667 -1399.333333 8458.000000 -1407.666667 8454.000000 -1415.000000 C 8534.666667 -1423.666667 8618.333333 -1433.666667 8705.000000 -1445.000000 C 8792.333333 -1457.000000 8877.333333 -1470.000000 8960.000000 -1484.000000 C 9043.333333 -1498.000000 9120.333333 -1513.333333 9191.000000 -1530.000000 C 9261.666667 -1546.666667 9321.333333 -1564.666667 9370.000000 -1584.000000z M 7774.000000 -1457.000000 C 7932.666667 -1457.000000 8091.333333 -1457.000000 8250.000000 -1457.000000 C 8250.000000 -1438.000000 8250.000000 -1419.000000 8250.000000 -1400.000000 C 8091.333333 -1400.000000 7932.666667 -1400.000000 7774.000000 -1400.000000 C 7774.000000 -1419.000000 7774.000000 -1438.000000 7774.000000 -1457.000000z M 8225.000000 -1457.000000 C 8229.000000 -1457.000000 8233.000000 -1457.000000 8237.000000 -1457.000000 C 8240.666667 -1459.000000 8244.333333 -1461.000000 8248.000000 -1463.000000 C 8262.333333 -1456.666667 8276.666667 -1450.333333 8291.000000 -1444.000000 C 8257.666667 -1385.333333 8217.333333 -1315.333333 8170.000000 -1234.000000 C 8122.666667 -1152.666667 8073.666667 -1069.333333 8023.000000 -984.000000 C 7972.333333 -898.666667 7923.333333 -819.000000 7876.000000 -745.000000 C 7858.666667 -751.333333 7841.333333 -757.666667 7824.000000 -764.000000 C 7858.666667 -818.000000 7894.666667 -876.333333 7932.000000 -939.000000 C 7970.000000 -1001.666667 8007.333333 -1064.666667 8044.000000 -1128.000000 C 8080.666667 -1191.333333 8114.666667 -1250.333333 8146.000000 -1305.000000 C 8177.333333 -1360.333333 8203.666667 -1407.333333 8225.000000 -1446.000000 C 8225.000000 -1449.666667 8225.000000 -1453.333333 8225.000000 -1457.000000z M 7930.000000 -906.000000 C 8062.333333 -906.000000 8194.666667 -906.000000 8327.000000 -906.000000 C 8327.000000 -887.000000 8327.000000 -868.000000 8327.000000 -849.000000 C 8185.000000 -849.000000 8043.000000 -849.000000 7901.000000 -849.000000 C 7910.666667 -868.000000 7920.333333 -887.000000 7930.000000 -906.000000z M 8306.000000 -906.000000 C 8309.666667 -906.000000 8313.333333 -906.000000 8317.000000 -906.000000 C 8321.666667 -906.666667 8326.333333 -907.333333 8331.000000 -908.000000 C 8342.333333 -903.666667 8353.666667 -899.333333 8365.000000 -895.000000 C 8327.000000 -625.000000 8259.333333 -406.333333 8162.000000 -239.000000 C 8064.666667 -71.666667 7947.666667 55.333333 7811.000000 142.000000 C 7808.333333 136.666667 7804.000000 131.000000 7798.000000 125.000000 C 7792.000000 119.666667 7786.333333 114.333333 7781.000000 109.000000 C 7776.333333 104.333333 7771.333333 100.666667 7766.000000 98.000000 C 7900.666667 16.000000 8015.333333 -105.333333 8110.000000 -266.000000 C 8204.666667 -426.666667 8270.000000 -634.333333 8306.000000 -889.000000 C 8306.000000 -894.666667 8306.000000 -900.333333 8306.000000 -906.000000z M 7933.000000 -649.000000 C 7974.333333 -507.000000 8029.000000 -391.666667 8097.000000 -303.000000 C 8165.666667 -215.000000 8246.000000 -147.000000 8338.000000 -99.000000 C 8430.666667 -51.000000 8533.666667 -18.333333 8647.000000 -1.000000 C 8760.333333 16.333333 8882.000000 25.000000 9012.000000 25.000000 C 9021.333333 25.000000 9042.333333 25.000000 9075.000000 25.000000 C 9107.666667 25.000000 9146.333333 25.000000 9191.000000 25.000000 C 9235.666667 25.000000 9280.333333 25.000000 9325.000000 25.000000 C 9370.333333 25.000000 9410.333333 25.000000 9445.000000 25.000000 C 9480.333333 25.000000 9504.333333 25.000000 9517.000000 25.000000 C 9513.666667 29.000000 9510.000000 34.333333 9506.000000 41.000000 C 9502.000000 48.333333 9498.333333 55.333333 9495.000000 62.000000 C 9492.333333 69.333333 9490.333333 75.666667 9489.000000 81.000000 C 9457.666667 81.000000 9426.333333 81.000000 9395.000000 81.000000 C 9267.333333 81.000000 9139.666667 81.000000 9012.000000 81.000000 C 8872.666667 81.000000 8744.000000 71.666667 8626.000000 53.000000 C 8508.666667 34.333333 8402.666667 -0.333333 8308.000000 -51.000000 C 8213.333333 -101.666667 8130.333333 -173.333333 8059.000000 -266.000000 C 7988.333333 -358.666667 7930.333333 -478.666667 7885.000000 -626.000000 C 7901.000000 -633.666667 7917.000000 -641.333333 7933.000000 -649.000000z "/>
</g>
<g><path d="M 10765.000000 -1490.000000 C 10954.666667 -1490.000000 11144.333333 -1490.000000 11334.000000 -1490.000000 C 11334.000000 -1471.333333 11334.000000 -1452.666667 11334.000000 -1434.000000 C 11144.333333 -1434.000000 10954.666667 -1434.000000 10765.000000 -1434.000000 C 10765.000000 -1452.666667 10765.000000 -1471.333333 10765.000000 -1490.000000z M 10765.000000 -1043.000000 C 10954.666667 -1043.000000 11144.333333 -1043.000000 11334.000000 -1043.000000 C 11334.000000 -1024.333333 11334.000000 -1005.666667 11334.000000 -987.000000 C 11144.333333 -987.000000 10954.666667 -987.000000 10765.000000 -987.000000 C 10765.000000 -1005.666667 10765.000000 -1024.333333 10765.000000 -1043.000000z M 10762.000000 -586.000000 C 10954.666667 -586.000000 11147.333333 -586.000000 11340.000000 -586.000000 C 11340.000000 -567.333333 11340.000000 -548.666667 11340.000000 -530.000000 C 11147.333333 -530.000000 10954.666667 -530.000000 10762.000000 -530.000000 C 10762.000000 -548.666667 10762.000000 -567.333333 10762.000000 -586.000000z M 11305.000000 -1490.000000 C 11323.666667 -1490.000000 11342.333333 -1490.000000 11361.000000 -1490.000000 C 11361.000000 -986.333333 11361.000000 -482.666667 11361.000000 21.000000 C 11361.000000 47.666667 11356.666667 67.666667 11348.000000 81.000000 C 11340.000000 95.000000 11325.000000 105.000000 11303.000000 111.000000 C 11282.333333 116.333333 11250.666667 119.666667 11208.000000 121.000000 C 11165.333333 122.333333 11109.333333 123.000000 11040.000000 123.000000 C 11038.666667 113.666667 11035.333333 103.333333 11030.000000 92.000000 C 11025.333333 80.666667 11020.333333 70.333333 11015.000000 61.000000 C 11075.000000 62.333333 11128.000000 63.000000 11174.000000 63.000000 C 11220.666667 63.000000 11251.666667 62.333333 11267.000000 61.000000 C 11281.000000 60.333333 11290.666667 57.333333 11296.000000 52.000000 C 11302.000000 46.666667 11305.000000 36.333333 11305.000000 21.000000 C 11305.000000 -482.666667 11305.000000 -986.333333 11305.000000 -1490.000000z M 10740.000000 -1490.000000 C 10758.666667 -1490.000000 10777.333333 -1490.000000 10796.000000 -1490.000000 C 10796.000000 -1260.333333 10796.000000 -1030.666667 10796.000000 -801.000000 C 10796.000000 -729.000000 10793.666667 -652.000000 10789.000000 -570.000000 C 10785.000000 -488.000000 10776.000000 -404.666667 10762.000000 -320.000000 C 10748.666667 -236.000000 10728.666667 -154.000000 10702.000000 -74.000000 C 10675.333333 6.000000 10639.000000 80.000000 10593.000000 148.000000 C 10590.333333 144.000000 10586.000000 139.666667 10580.000000 135.000000 C 10574.666667 131.000000 10568.666667 126.666667 10562.000000 122.000000 C 10555.333333 117.333333 10549.666667 114.333333 10545.000000 113.000000 C 10605.000000 23.666667 10648.666667 -73.666667 10676.000000 -179.000000 C 10703.333333 -285.000000 10720.666667 -391.666667 10728.000000 -499.000000 C 10736.000000 -606.333333 10740.000000 -707.000000 10740.000000 -801.000000 C 10740.000000 -1030.666667 10740.000000 -1260.333333 10740.000000 -1490.000000z M 9719.000000 -1309.000000 C 10018.666667 -1309.000000 10318.333333 -1309.000000 10618.000000 -1309.000000 C 10618.000000 -1290.666667 10618.000000 -1272.333333 10618.000000 -1254.000000 C 10318.333333 -1254.000000 10018.666667 -1254.000000 9719.000000 -1254.000000 C 9719.000000 -1272.333333 9719.000000 -1290.666667 9719.000000 -1309.000000z M 9919.000000 -1025.000000 C 10091.000000 -1025.000000 10263.000000 -1025.000000 10435.000000 -1025.000000 C 10435.000000 -1006.666667 10435.000000 -988.333333 10435.000000 -970.000000 C 10263.000000 -970.000000 10091.000000 -970.000000 9919.000000 -970.000000 C 9919.000000 -988.333333 9919.000000 -1006.666667 9919.000000 -1025.000000z M 9921.000000 -716.000000 C 10093.000000 -716.000000 10265.000000 -716.000000 10437.000000 -716.000000 C 10437.000000 -697.000000 10437.000000 -678.000000 10437.000000 -659.000000 C 10265.000000 -659.000000 10093.000000 -659.000000 9921.000000 -659.000000 C 9921.000000 -678.000000 9921.000000 -697.000000 9921.000000 -716.000000z M 9690.000000 -399.000000 C 10003.666667 -399.000000 10317.333333 -399.000000 10631.000000 -399.000000 C 10631.000000 -380.666667 10631.000000 -362.333333 10631.000000 -344.000000 C 10317.333333 -344.000000 10003.666667 -344.000000 9690.000000 -344.000000 C 9690.000000 -362.333333 9690.000000 -380.666667 9690.000000 -399.000000z M 9894.000000 -1571.000000 C 9912.333333 -1571.000000 9930.666667 -1571.000000 9949.000000 -1571.000000 C 9949.000000 -1170.333333 9949.000000 -769.666667 9949.000000 -369.000000 C 9930.666667 -369.000000 9912.333333 -369.000000 9894.000000 -369.000000 C 9894.000000 -769.666667 9894.000000 -1170.333333 9894.000000 -1571.000000z M 10408.000000 -1571.000000 C 10426.666667 -1571.000000 10445.333333 -1571.000000 10464.000000 -1571.000000 C 10464.000000 -1170.333333 10464.000000 -769.666667 10464.000000 -369.000000 C 10445.333333 -369.000000 10426.666667 -369.000000 10408.000000 -369.000000 C 10408.000000 -769.666667 10408.000000 -1170.333333 10408.000000 -1571.000000z M 9986.000000 -275.000000 C 10005.333333 -270.333333 10024.666667 -265.666667 10044.000000 -261.000000 C 10009.333333 -187.000000 9966.333333 -115.000000 9915.000000 -45.000000 C 9863.666667 25.000000 9811.666667 84.000000 9759.000000 132.000000 C 9757.000000 130.000000 9752.666667 126.666667 9746.000000 122.000000 C 9739.333333 117.333333 9732.666667 112.666667 9726.000000 108.000000 C 9720.000000 104.000000 9714.333333 100.666667 9709.000000 98.000000 C 9765.666667 50.666667 9818.333333 -5.666667 9867.000000 -71.000000 C 9915.666667 -136.333333 9955.333333 -204.333333 9986.000000 -275.000000z M 10253.000000 -242.000000 C 10269.000000 -249.666667 10285.000000 -257.333333 10301.000000 -265.000000 C 10326.333333 -235.666667 10351.000000 -203.333333 10375.000000 -168.000000 C 10399.666667 -132.666667 10422.333333 -98.333333 10443.000000 -65.000000 C 10463.666667 -31.666667 10479.666667 -1.666667 10491.000000 25.000000 C 10474.333333 34.666667 10457.666667 44.333333 10441.000000 54.000000 C 10431.000000 26.666667 10415.666667 -3.666667 10395.000000 -37.000000 C 10374.333333 -71.000000 10351.333333 -106.333333 10326.000000 -143.000000 C 10301.333333 -179.666667 10277.000000 -212.666667 10253.000000 -242.000000z "/>
</g>
</svg>
