<?xml version="1.0" encoding="utf-8"?>
<svg xmlns="http://www.w3.org/2000/svg" xmlns:ev="http://www.w3.org/2001/xml-events" xmlns:xlink="http://www.w3.org/1999/xlink" version="1.1" baseProfile="full" width="30496.0" height="1753.0" viewBox="136.0 -1597.0 30496.0 1753.0">
<defs/>
<g><path d="M 18457.000000 -956.000000 C 18476.333333 -956.000000 18495.666667 -956.000000 18515.000000 -956.000000 C 18515.000000 -592.000000 18515.000000 -228.000000 18515.000000 136.000000 C 18495.666667 136.000000 18476.333333 136.000000 18457.000000 136.000000 C 18457.000000 -228.000000 18457.000000 -592.000000 18457.000000 -956.000000z M 17841.000000 -632.000000 C 18259.333333 -632.000000 18677.666667 -632.000000 19096.000000 -632.000000 C 19096.000000 -613.333333 19096.000000 -594.666667 19096.000000 -576.000000 C 18677.666667 -576.000000 18259.333333 -576.000000 17841.000000 -576.000000 C 17841.000000 -594.666667 17841.000000 -613.333333 17841.000000 -632.000000z M 18553.000000 -618.000000 C 18595.000000 -534.666667 18648.000000 -453.000000 18712.000000 -373.000000 C 18776.000000 -293.000000 18845.333333 -220.666667 18920.000000 -156.000000 C 18995.333333 -92.000000 19069.333333 -40.666667 19142.000000 -2.000000 C 19138.666667 2.000000 19134.333333 6.333333 19129.000000 11.000000 C 19123.666667 16.333333 19118.666667 21.666667 19114.000000 27.000000 C 19110.000000 32.333333 19106.000000 37.333333 19102.000000 42.000000 C 19029.333333 0.000000 18955.000000 -55.000000 18879.000000 -123.000000 C 18803.666667 -191.000000 18733.333333 -265.666667 18668.000000 -347.000000 C 18602.666667 -429.000000 18547.666667 -512.333333 18503.000000 -597.000000 C 18519.666667 -604.000000 18536.333333 -611.000000 18553.000000 -618.000000z M 18422.000000 -622.000000 C 18437.333333 -615.000000 18452.666667 -608.000000 18468.000000 -601.000000 C 18423.333333 -515.000000 18366.666667 -430.333333 18298.000000 -347.000000 C 18230.000000 -264.333333 18156.333333 -189.333333 18077.000000 -122.000000 C 17997.666667 -54.666667 17919.000000 -0.666667 17841.000000 40.000000 C 17837.000000 35.333333 17832.666667 30.333333 17828.000000 25.000000 C 17823.333333 19.666667 17818.666667 14.333333 17814.000000 9.000000 C 17810.000000 4.333333 17805.333333 0.000000 17800.000000 -4.000000 C 17878.000000 -41.333333 17956.333333 -92.333333 18035.000000 -157.000000 C 18114.333333 -222.333333 18187.666667 -295.333333 18255.000000 -376.000000 C 18323.000000 -456.666667 18378.666667 -538.666667 18422.000000 -622.000000z M 18056.000000 -1442.000000 C 18056.000000 -1293.000000 18056.000000 -1144.000000 18056.000000 -995.000000 C 18344.666667 -995.000000 18633.333333 -995.000000 18922.000000 -995.000000 C 18922.000000 -1144.000000 18922.000000 -1293.000000 18922.000000 -1442.000000 C 18633.333333 -1442.000000 18344.666667 -1442.000000 18056.000000 -1442.000000z M 18000.000000 -1498.000000 C 18325.666667 -1498.000000 18651.333333 -1498.000000 18977.000000 -1498.000000 C 18977.000000 -1311.000000 18977.000000 -1124.000000 18977.000000 -937.000000 C 18651.333333 -937.000000 18325.666667 -937.000000 18000.000000 -937.000000 C 18000.000000 -1124.000000 18000.000000 -1311.000000 18000.000000 -1498.000000z M 17854.000000 -1588.000000 C 17872.666667 -1582.666667 17891.333333 -1577.333333 17910.000000 -1572.000000 C 17866.000000 -1464.666667 17815.666667 -1360.333333 17759.000000 -1259.000000 C 17702.333333 -1158.333333 17641.333333 -1064.000000 17576.000000 -976.000000 C 17510.666667 -888.666667 17443.333333 -809.666667 17374.000000 -739.000000 C 17371.333333 -743.000000 17367.333333 -748.000000 17362.000000 -754.000000 C 17357.333333 -760.666667 17352.333333 -766.666667 17347.000000 -772.000000 C 17342.333333 -778.000000 17337.333333 -783.000000 17332.000000 -787.000000 C 17401.333333 -852.333333 17468.000000 -927.333333 17532.000000 -1012.000000 C 17596.000000 -1097.333333 17655.666667 -1189.000000 17711.000000 -1287.000000 C 17767.000000 -1385.000000 17814.666667 -1485.333333 17854.000000 -1588.000000z M 17639.000000 -1129.000000 C 17657.000000 -1147.000000 17675.000000 -1165.000000 17693.000000 -1183.000000 C 17694.333333 -1182.333333 17695.666667 -1181.666667 17697.000000 -1181.000000 C 17697.000000 -743.666667 17697.000000 -306.333333 17697.000000 131.000000 C 17677.666667 131.000000 17658.333333 131.000000 17639.000000 131.000000 C 17639.000000 -289.000000 17639.000000 -709.000000 17639.000000 -1129.000000z "/>
</g></svg>
