<?xml version="1.0" encoding="utf-8"?>
<svg xmlns="http://www.w3.org/2000/svg" xmlns:ev="http://www.w3.org/2001/xml-events" xmlns:xlink="http://www.w3.org/1999/xlink" version="1.1" baseProfile="full" width="6902.0" height="1593.0" viewBox="204.0 -1503.0 6902.0 1593.0">
<defs/>
<g><path d="M 3391.000000 -1267.000000 C 3387.000000 -1262.333333 3382.000000 -1254.666667 3376.000000 -1244.000000 C 3370.666667 -1234.000000 3366.666667 -1225.666667 3364.000000 -1219.000000 C 3339.333333 -1153.666667 3307.000000 -1082.000000 3267.000000 -1004.000000 C 3227.666667 -926.000000 3183.666667 -850.000000 3135.000000 -776.000000 C 3086.333333 -702.666667 3036.666667 -638.666667 2986.000000 -584.000000 C 2915.333333 -506.666667 2839.000000 -432.000000 2757.000000 -360.000000 C 2675.000000 -288.000000 2588.333333 -220.666667 2497.000000 -158.000000 C 2405.666667 -96.000000 2308.000000 -42.000000 2204.000000 4.000000 C 2188.666667 -12.666667 2173.333333 -29.333333 2158.000000 -46.000000 C 2262.000000 -88.000000 2360.666667 -139.333333 2454.000000 -200.000000 C 2547.333333 -261.333333 2635.666667 -329.333333 2719.000000 -404.000000 C 2803.000000 -478.666667 2881.000000 -556.000000 2953.000000 -636.000000 C 2997.666667 -686.666667 3043.666667 -747.000000 3091.000000 -817.000000 C 3138.333333 -887.000000 3181.000000 -959.000000 3219.000000 -1033.000000 C 3257.666667 -1107.000000 3286.000000 -1174.333333 3304.000000 -1235.000000 C 3295.333333 -1235.000000 3269.333333 -1235.000000 3226.000000 -1235.000000 C 3183.333333 -1235.000000 3131.666667 -1235.000000 3071.000000 -1235.000000 C 3010.333333 -1235.000000 2946.333333 -1235.000000 2879.000000 -1235.000000 C 2811.666667 -1235.000000 2747.666667 -1235.000000 2687.000000 -1235.000000 C 2626.333333 -1235.000000 2575.333333 -1235.000000 2534.000000 -1235.000000 C 2493.333333 -1235.000000 2468.666667 -1235.000000 2460.000000 -1235.000000 C 2440.666667 -1235.000000 2418.333333 -1234.333333 2393.000000 -1233.000000 C 2368.333333 -1231.666667 2346.333333 -1230.666667 2327.000000 -1230.000000 C 2307.666667 -1229.333333 2298.000000 -1229.000000 2298.000000 -1229.000000 C 2298.000000 -1253.333333 2298.000000 -1277.666667 2298.000000 -1302.000000 C 2298.000000 -1302.000000 2307.333333 -1301.333333 2326.000000 -1300.000000 C 2344.666667 -1298.666667 2366.333333 -1297.000000 2391.000000 -1295.000000 C 2416.333333 -1293.000000 2439.333333 -1292.000000 2460.000000 -1292.000000 C 2468.666667 -1292.000000 2492.333333 -1292.000000 2531.000000 -1292.000000 C 2570.333333 -1292.000000 2618.666667 -1292.000000 2676.000000 -1292.000000 C 2734.000000 -1292.000000 2794.666667 -1292.000000 2858.000000 -1292.000000 C 2921.333333 -1292.000000 2982.000000 -1292.000000 3040.000000 -1292.000000 C 3098.666667 -1292.000000 3148.000000 -1292.000000 3188.000000 -1292.000000 C 3228.666667 -1292.000000 3254.000000 -1292.000000 3264.000000 -1292.000000 C 3284.666667 -1292.000000 3302.000000 -1292.666667 3316.000000 -1294.000000 C 3330.000000 -1295.333333 3342.000000 -1297.333333 3352.000000 -1300.000000 C 3365.000000 -1289.000000 3378.000000 -1278.000000 3391.000000 -1267.000000z M 3011.000000 -626.000000 C 3065.666667 -580.000000 3120.333333 -530.666667 3175.000000 -478.000000 C 3230.333333 -425.333333 3284.333333 -371.666667 3337.000000 -317.000000 C 3389.666667 -263.000000 3438.666667 -211.000000 3484.000000 -161.000000 C 3529.333333 -111.000000 3569.333333 -65.000000 3604.000000 -23.000000 C 3588.000000 -9.000000 3572.000000 5.000000 3556.000000 19.000000 C 3511.333333 -37.000000 3456.666667 -100.666667 3392.000000 -172.000000 C 3327.333333 -244.000000 3258.666667 -316.333333 3186.000000 -389.000000 C 3114.000000 -462.333333 3042.666667 -528.666667 2972.000000 -588.000000 C 2985.000000 -600.666667 2998.000000 -613.333333 3011.000000 -626.000000z "/>
</g></svg>
