<?xml version="1.0" ?>
<svg xmlns="http://www.w3.org/2000/svg" version="1.1" width="600" height="600">
  <defs/>
  <g>
    <path stroke-width="0" fill="rgb(0, 0, 0)" opacity="1.0" d="M 132.36007690429688 269.5283203125 C 133.53048706054688 269.59307861328125 134.61962890625 269.6739501953125 135.62747192382812 269.7711181640625 C 136.63531494140625 269.86822509765625 137.85452270507812 269.916748046875 139.2850341796875 269.916748046875 C 140.29287719726562 269.916748046875 142.06475830078125 269.916748046875 144.60064697265625 269.916748046875 C 147.1690673828125 269.916748046875 150.11135864257812 269.916748046875 153.42752075195312 269.916748046875 C 156.74371337890625 269.916748046875 160.04360961914062 269.916748046875 163.3272705078125 269.916748046875 C 166.64346313476562 269.916748046875 169.56948852539062 269.916748046875 172.10540771484375 269.916748046875 C 174.67379760742188 269.916748046875 176.46194458007812 269.916748046875 177.46978759765625 269.916748046875 C 178.54266357421875 269.916748046875 179.7618408203125 269.8843994140625 181.1273193359375 269.81964111328125 C 182.49282836914062 269.7548828125 183.7445068359375 269.6578369140625 184.88241577148438 269.5283203125 C 184.88241577148438 270.677490234375 184.88241577148438 271.82659912109375 184.88241577148438 272.9757080078125 C 183.67950439453125 272.84625244140625 182.41156005859375 272.76531982421875 181.07855224609375 272.73291015625 C 179.74560546875 272.7005615234375 178.54266357421875 272.68438720703125 177.46978759765625 272.68438720703125 C 176.46194458007812 272.68438720703125 174.6900634765625 272.68438720703125 172.1541748046875 272.68438720703125 C 169.6507568359375 272.68438720703125 166.74099731445312 272.68438720703125 163.4248046875 272.68438720703125 C 160.108642578125 272.68438720703125 156.79248046875 272.68438720703125 153.47628784179688 272.68438720703125 C 150.192626953125 272.68438720703125 147.2666015625 272.68438720703125 144.69818115234375 272.68438720703125 C 142.1297607421875 272.68438720703125 140.39041137695312 272.68438720703125 139.4801025390625 272.68438720703125 C 137.98455810546875 272.68438720703125 136.6678466796875 272.7005615234375 135.52993774414062 272.73291015625 C 134.39202880859375 272.76531982421875 133.33541870117188 272.84625244140625 132.36007690429688 272.9757080078125 C 132.36007690429688 271.82659912109375 132.36007690429688 270.677490234375 132.36007690429688 269.5283203125M 120.94851684570312 292.5433349609375 C 122.11892700195312 292.60809326171875 123.2568359375 292.6728515625 124.36224365234375 292.737548828125 C 125.5001220703125 292.80230712890625 126.78433227539062 292.834716796875 128.21484375 292.834716796875 C 128.8975830078125 292.834716796875 130.44189453125 292.834716796875 132.84774780273438 292.834716796875 C 135.25360107421875 292.834716796875 138.19589233398438 292.834716796875 141.67462158203125 292.834716796875 C 145.18585205078125 292.834716796875 148.95718383789062 292.834716796875 152.98861694335938 292.834716796875 C 157.02005004882812 292.834716796875 161.05148315429688 292.834716796875 165.08291625976562 292.834716796875 C 169.11431884765625 292.834716796875 172.8531494140625 292.834716796875 176.29937744140625 292.834716796875 C 179.77810668945312 292.834716796875 182.68789672851562 292.834716796875 185.02871704101562 292.834716796875 C 187.36953735351562 292.834716796875 188.84881591796875 292.834716796875 189.466552734375 292.834716796875 C 190.47439575195312 292.834716796875 191.48223876953125 292.80230712890625 192.4901123046875 292.737548828125 C 193.53048706054688 292.6728515625 194.55459594726562 292.60809326171875 195.56243896484375 292.5433349609375 C 195.56243896484375 293.62774658203125 195.56243896484375 294.712158203125 195.56243896484375 295.7965087890625 C 194.68463134765625 295.76416015625 193.69305419921875 295.7318115234375 192.587646484375 295.699462890625 C 191.5147705078125 295.66705322265625 190.47439575195312 295.65087890625 189.466552734375 295.65087890625 C 188.84881591796875 295.65087890625 187.36953735351562 295.65087890625 185.02871704101562 295.65087890625 C 182.68789672851562 295.65087890625 179.77810668945312 295.65087890625 176.29937744140625 295.65087890625 C 172.8531494140625 295.65087890625 169.11431884765625 295.65087890625 165.08291625976562 295.65087890625 C 161.05148315429688 295.65087890625 157.02005004882812 295.65087890625 152.98861694335938 295.65087890625 C 148.95718383789062 295.65087890625 145.18585205078125 295.65087890625 141.67462158203125 295.65087890625 C 138.19589233398438 295.65087890625 135.25360107421875 295.65087890625 132.84774780273438 295.65087890625 C 130.44189453125 295.65087890625 128.8975830078125 295.65087890625 128.21484375 295.65087890625 C 126.78433227539062 295.65087890625 125.51638793945312 295.65087890625 124.4110107421875 295.65087890625 C 123.338134765625 295.65087890625 122.1839599609375 295.699462890625 120.94851684570312 295.7965087890625 C 120.94851684570312 294.712158203125 120.94851684570312 293.62774658203125 120.94851684570312 292.5433349609375M 161.1815185546875 293.56298828125 C 161.1815185546875 299.1629638671875 160.8726806640625 304.45550537109375 160.25494384765625 309.4404296875 C 159.63723754882812 314.39306640625 158.23922729492188 318.8277587890625 156.06097412109375 322.7445068359375 C 154.8580322265625 324.75146484375 153.313720703125 326.7421875 151.42807006835938 328.716796875 C 149.57492065429688 330.658935546875 147.51043701171875 332.5040283203125 145.234619140625 334.25201416015625 C 142.95883178710938 335.9676513671875 140.53671264648438 337.489013671875 137.96829223632812 338.816162109375 C 137.02548217773438 338.0716552734375 136.0826416015625 337.3271484375 135.13980102539062 336.5826416015625 C 139.07369995117188 334.834716796875 142.66619873046875 332.64971923828125 145.9173583984375 330.0277099609375 C 149.16851806640625 327.40576171875 151.70440673828125 324.52484130859375 153.52505493164062 321.385009765625 C 155.89840698242188 317.532958984375 157.29638671875 313.2601318359375 157.71905517578125 308.56646728515625 C 158.1741943359375 303.872802734375 158.41802978515625 298.8717041015625 158.4505615234375 293.56298828125 C 159.36087036132812 293.56298828125 160.27120971679688 293.56298828125 161.1815185546875 293.56298828125"/>
    <path stroke-width="0" fill="rgb(0, 0, 0)" opacity="1.0" d="M 276.36981201171875 274.48095703125 C 276.17474365234375 274.70751953125 275.930908203125 275.07977294921875 275.6383056640625 275.59765625 C 275.37823486328125 276.083251953125 275.18316650390625 276.48785400390625 275.0531005859375 276.8115234375 C 273.85015869140625 279.98382568359375 272.27337646484375 283.463623046875 270.32269287109375 287.2508544921875 C 268.4045104980469 291.03814697265625 266.25872802734375 294.72833251953125 263.8854064941406 298.3214111328125 C 261.5120544433594 301.882080078125 259.0899658203125 304.9896240234375 256.61907958984375 307.6439208984375 C 253.1728515625 311.3988037109375 249.45028686523438 315.0242919921875 245.45135498046875 318.520263671875 C 241.45245361328125 322.01617431640625 237.2259521484375 325.2855224609375 232.77188110351562 328.328369140625 C 228.31781005859375 331.3387451171875 223.55487060546875 333.960693359375 218.48306274414062 336.1942138671875 C 217.73529052734375 335.385009765625 216.987548828125 334.57568359375 216.23977661132812 333.7664794921875 C 221.31158447265625 331.7271728515625 226.123291015625 329.23468017578125 230.67489624023438 326.2890625 C 235.22650146484375 323.31097412109375 239.53427124023438 320.00927734375 243.59820556640625 316.3837890625 C 247.69467163085938 312.7584228515625 251.49850463867188 309.00347900390625 255.009765625 305.11907958984375 C 257.18804931640625 302.658935546875 259.43133544921875 299.7294921875 261.7396240234375 296.33062744140625 C 264.0479736328125 292.9317626953125 266.1286926269531 289.43585205078125 267.98187255859375 285.8427734375 C 269.8675231933594 282.249755859375 271.249267578125 278.9803466796875 272.1270751953125 276.03466796875 C 271.70440673828125 276.03466796875 270.43646240234375 276.03466796875 268.3232421875 276.03466796875 C 266.24249267578125 276.03466796875 263.72283935546875 276.03466796875 260.7642822265625 276.03466796875 C 257.80572509765625 276.03466796875 254.68463134765625 276.03466796875 251.40097045898438 276.03466796875 C 248.1173095703125 276.03466796875 244.9962158203125 276.03466796875 242.03765869140625 276.03466796875 C 239.0791015625 276.03466796875 236.59197998046875 276.03466796875 234.57626342773438 276.03466796875 C 232.59307861328125 276.03466796875 231.39013671875 276.03466796875 230.96749877929688 276.03466796875 C 230.024658203125 276.03466796875 228.93551635742188 276.0670166015625 227.7000732421875 276.1318359375 C 226.49716186523438 276.196533203125 225.42425537109375 276.2451171875 224.4814453125 276.2774658203125 C 223.53860473632812 276.309814453125 223.06719970703125 276.3260498046875 223.06719970703125 276.3260498046875 C 223.06719970703125 275.14453125 223.06719970703125 273.9630126953125 223.06719970703125 272.781494140625 C 223.06719970703125 272.781494140625 223.5223388671875 272.8138427734375 224.43267822265625 272.87860107421875 C 225.343017578125 272.943359375 226.39962768554688 273.0242919921875 227.6025390625 273.12139892578125 C 228.83798217773438 273.218505859375 229.95962524414062 273.26708984375 230.96749877929688 273.26708984375 C 231.39013671875 273.26708984375 232.5443115234375 273.26708984375 234.42996215820312 273.26708984375 C 236.34814453125 273.26708984375 238.70523071289062 273.26708984375 241.501220703125 273.26708984375 C 244.3297119140625 273.26708984375 247.28826904296875 273.26708984375 250.37686157226562 273.26708984375 C 253.4654541015625 273.26708984375 256.42401123046875 273.26708984375 259.25250244140625 273.26708984375 C 262.113525390625 273.26708984375 264.5193786621094 273.26708984375 266.4700622558594 273.26708984375 C 268.4532775878906 273.26708984375 269.688720703125 273.26708984375 270.1763916015625 273.26708984375 C 271.1842346191406 273.26708984375 272.029541015625 273.23468017578125 272.7122802734375 273.169921875 C 273.39501953125 273.105224609375 273.980224609375 273.008056640625 274.4678955078125 272.87860107421875 C 275.10186767578125 273.4127197265625 275.73583984375 273.94683837890625 276.36981201171875 274.48095703125M 257.8382568359375 305.6046142578125 C 260.50421142578125 307.838134765625 263.1701354980469 310.2335205078125 265.8360900878906 312.790771484375 C 268.5345458984375 315.34796142578125 271.16796875 317.9537353515625 273.73638916015625 320.60809326171875 C 276.3048095703125 323.2301025390625 278.69439697265625 325.7548828125 280.9051818847656 328.1826171875 C 283.115966796875 330.61041259765625 285.066650390625 332.84393310546875 286.75726318359375 334.88323974609375 C 285.97698974609375 335.56298828125 285.19671630859375 336.2427978515625 284.41644287109375 336.92254638671875 C 282.2381591796875 334.2034912109375 279.57220458984375 331.1121826171875 276.4185791015625 327.6485595703125 C 273.26495361328125 324.152587890625 269.9162902832031 320.6405029296875 266.3725280761719 317.1121826171875 C 262.86126708984375 313.55145263671875 259.382568359375 310.33062744140625 255.93634033203125 307.44970703125 C 256.5703125 306.834716796875 257.20428466796875 306.21966552734375 257.8382568359375 305.6046142578125"/>
    <path stroke-width="0" fill="rgb(0, 0, 0)" opacity="1.0" d="M 331.9644775390625 328.4254150390625 C 331.9644775390625 327.8751220703125 331.9644775390625 326.353759765625 331.9644775390625 323.86126708984375 C 331.9644775390625 321.33642578125 331.9644775390625 318.2288818359375 331.9644775390625 314.5386962890625 C 331.9644775390625 310.816162109375 331.9644775390625 306.88323974609375 331.9644775390625 302.7398681640625 C 331.9644775390625 298.56414794921875 331.9644775390625 294.501708984375 331.9644775390625 290.5526123046875 C 331.9644775390625 286.60345458984375 331.9644775390625 283.1236572265625 331.9644775390625 280.11328125 C 331.9644775390625 277.1029052734375 331.9644775390625 274.9503173828125 331.9644775390625 273.655517578125 C 331.9644775390625 272.65203857421875 331.9320068359375 271.341064453125 331.866943359375 269.7225341796875 C 331.80194091796875 268.10400390625 331.68817138671875 266.6798095703125 331.525634765625 265.44970703125 C 332.76104736328125 265.44970703125 333.9964599609375 265.44970703125 335.23193359375 265.44970703125 C 335.1343994140625 266.614990234375 335.036865234375 268.05548095703125 334.9393310546875 269.7711181640625 C 334.841796875 271.4866943359375 334.79302978515625 272.781494140625 334.79302978515625 273.655517578125 C 334.79302978515625 276.76300048828125 334.79302978515625 280.2265625 334.79302978515625 284.0462646484375 C 334.79302978515625 287.86590576171875 334.79302978515625 291.7664794921875 334.79302978515625 295.74798583984375 C 334.79302978515625 299.6971435546875 334.80926513671875 303.5653076171875 334.841796875 307.35260009765625 C 334.874267578125 311.1075439453125 334.89056396484375 314.50634765625 334.89056396484375 317.54913330078125 C 334.89056396484375 320.5919189453125 334.89056396484375 323.1005859375 334.89056396484375 325.07513427734375 C 334.89056396484375 327.017333984375 334.89056396484375 328.13409423828125 334.89056396484375 328.4254150390625 C 334.89056396484375 329.558349609375 334.89056396484375 330.6751708984375 334.89056396484375 331.7757568359375 C 334.89056396484375 332.84393310546875 334.92303466796875 333.8797607421875 334.98809814453125 334.88323974609375 C 335.0531005859375 335.88671875 335.10186767578125 336.7930908203125 335.1343994140625 337.602294921875 C 333.980224609375 337.602294921875 332.8260498046875 337.602294921875 331.671875 337.602294921875 C 331.80194091796875 336.4046630859375 331.88323974609375 334.9803466796875 331.915771484375 333.3294677734375 C 331.9482421875 331.6785888671875 331.9644775390625 330.0439453125 331.9644775390625 328.4254150390625M 334.20782470703125 290.21270751953125 C 337.263916015625 291.15142822265625 340.580078125 292.2681884765625 344.15631103515625 293.56298828125 C 347.76513671875 294.825439453125 351.43890380859375 296.1849365234375 355.177734375 297.6416015625 C 358.9490966796875 299.0982666015625 362.5740966796875 300.5872802734375 366.0528564453125 302.108642578125 C 369.5640869140625 303.63006591796875 372.750244140625 305.1029052734375 375.6112060546875 306.52716064453125 C 375.204833984375 307.498291015625 374.7984619140625 308.4693603515625 374.39202880859375 309.4404296875 C 371.693603515625 307.951416015625 368.572509765625 306.41387939453125 365.0286865234375 304.8277587890625 C 361.5174560546875 303.2415771484375 357.876220703125 301.70404052734375 354.1048583984375 300.21502685546875 C 350.33349609375 298.72601318359375 346.70849609375 297.3988037109375 343.229736328125 296.2335205078125 C 339.7835693359375 295.03582763671875 336.7762451171875 294.064697265625 334.20782470703125 293.3201904296875 C 334.20782470703125 292.284423828125 334.20782470703125 291.24853515625 334.20782470703125 290.21270751953125"/>
    <path stroke-width="0" fill="rgb(0, 0, 0)" opacity="1.0" d="M 462.8558349609375 276.423095703125 C 463.7987060546875 276.73065185546875 464.74151611328125 277.03814697265625 465.68438720703125 277.345703125 C 461.75048828125 288.9017333984375 456.74365234375 298.85546875 450.6640625 307.2069091796875 C 444.58441162109375 315.5260009765625 437.269287109375 322.53411865234375 428.71875 328.231201171875 C 420.168212890625 333.89599609375 410.10595703125 338.654296875 398.5318603515625 342.50634765625 C 398.466796875 342.27978515625 398.32049560546875 342.004638671875 398.0928955078125 341.680908203125 C 397.8978271484375 341.38958740234375 397.6702880859375 341.06591796875 397.41015625 340.7098388671875 C 397.1826171875 340.353759765625 396.93878173828125 340.09478759765625 396.6787109375 339.9329833984375 C 408.1552734375 336.37225341796875 418.13629150390625 331.7918701171875 426.621826171875 326.19189453125 C 435.1072998046875 320.5595703125 442.3248291015625 313.680908203125 448.2744140625 305.5560302734375 C 454.256591796875 297.3988037109375 459.1170654296875 287.6878662109375 462.8558349609375 276.423095703125M 413.8935546875 276.7144775390625 C 417.5347900390625 287.39654541015625 422.395263671875 296.97802734375 428.4749755859375 305.458984375 C 434.5545654296875 313.93988037109375 441.96722412109375 321.1259765625 450.71282958984375 327.017333984375 C 459.45843505859375 332.8763427734375 469.5369873046875 337.2138671875 480.948486328125 340.030029296875 C 480.75341796875 340.19189453125 480.52587890625 340.4346923828125 480.2657470703125 340.7584228515625 C 480.0382080078125 341.08209228515625 479.79437255859375 341.38958740234375 479.5343017578125 341.680908203125 C 479.274169921875 342.004638671875 479.0628662109375 342.27978515625 478.9002685546875 342.50634765625 C 467.456298828125 339.5283203125 457.3614501953125 335.0450439453125 448.6158447265625 329.056640625 C 439.9027099609375 323.0682373046875 432.4576416015625 315.7364501953125 426.2803955078125 307.061279296875 C 420.103271484375 298.3861083984375 415.096435546875 288.545654296875 411.2601318359375 277.5399169921875 C 412.137939453125 277.2647705078125 413.0157470703125 276.9896240234375 413.8935546875 276.7144775390625M 397.1663818359375 275.5006103515625 C 424.9962158203125 275.5006103515625 452.8260498046875 275.5006103515625 480.6558837890625 275.5006103515625 C 480.6558837890625 276.40692138671875 480.6558837890625 277.31329345703125 480.6558837890625 278.21966552734375 C 452.8260498046875 278.21966552734375 424.9962158203125 278.21966552734375 397.1663818359375 278.21966552734375 C 397.1663818359375 277.31329345703125 397.1663818359375 276.40692138671875 397.1663818359375 275.5006103515625M 437.10675048828125 258.50634765625 C 438.049560546875 258.50634765625 438.992431640625 258.50634765625 439.93524169921875 258.50634765625 C 439.93524169921875 264.7052001953125 439.93524169921875 270.904052734375 439.93524169921875 277.1029052734375 C 438.992431640625 277.1029052734375 438.049560546875 277.1029052734375 437.10675048828125 277.1029052734375 C 437.10675048828125 270.904052734375 437.10675048828125 264.7052001953125 437.10675048828125 258.50634765625"/>
  </g>
</svg>
