<?xml version="1.0" ?>
<svg xmlns="http://www.w3.org/2000/svg" version="1.1" width="600" height="600">
  <defs/>
  <g>
    <path stroke-width="0" fill="rgb(0, 0, 0)" opacity="1.0" d="M 213.0631103515625 245.24041748046875 C 304.0187072753906 245.24041748046875 394.9742431640625 245.24041748046875 485.92987060546875 245.24041748046875 C 485.92987060546875 249.2822265625 485.92987060546875 253.32403564453125 485.92987060546875 257.3658447265625 C 394.9742431640625 257.3658447265625 304.0187072753906 257.3658447265625 213.0631103515625 257.3658447265625 C 213.0631103515625 253.32403564453125 213.0631103515625 249.2822265625 213.0631103515625 245.24041748046875M 244.40310668945312 148.2369384765625 C 313.42071533203125 148.2369384765625 382.43829345703125 148.2369384765625 451.4559326171875 148.2369384765625 C 451.4559326171875 225.0313720703125 451.4559326171875 301.8258056640625 451.4559326171875 378.6202392578125 C 447.41650390625 378.6202392578125 443.377197265625 378.6202392578125 439.3377685546875 378.6202392578125 C 439.3377685546875 305.79791259765625 439.3377685546875 232.97561645507812 439.3377685546875 160.15328979492188 C 374.35955810546875 160.15328979492188 309.38134765625 160.15328979492188 244.40310668945312 160.15328979492188 C 244.40310668945312 156.18118286132812 244.40310668945312 152.20904541015625 244.40310668945312 148.2369384765625M 236.88153076171875 343.2891845703125 C 307.1527099609375 343.2891845703125 377.42388916015625 343.2891845703125 447.695068359375 343.2891845703125 C 447.695068359375 347.2613525390625 447.695068359375 351.23345947265625 447.695068359375 355.20556640625 C 377.42388916015625 355.20556640625 307.1527099609375 355.20556640625 236.88153076171875 355.20556640625 C 236.88153076171875 351.23345947265625 236.88153076171875 347.2613525390625 236.88153076171875 343.2891845703125M 324.215576171875 151.79092407226562 C 328.11566162109375 151.79092407226562 332.0157470703125 151.79092407226562 335.91583251953125 151.79092407226562 C 335.91583251953125 195.2752685546875 335.91583251953125 238.75958251953125 335.91583251953125 282.243896484375 C 335.91583251953125 295.344970703125 335.35870361328125 309.07318115234375 334.244384765625 323.4285888671875 C 333.13006591796875 337.64459228515625 330.6925048828125 351.9302978515625 326.93170166015625 366.28570556640625 C 323.3101806640625 380.64111328125 317.39044189453125 394.6480712890625 309.1723937988281 408.306640625 C 301.0936279296875 421.96514892578125 290.0201721191406 434.857177734375 275.9520263671875 446.9825439453125 C 261.88385009765625 459.1080322265625 243.9852294921875 470.11846923828125 222.25619506835938 480.013916015625 C 221.83831787109375 479.31707763671875 221.14187622070312 478.3414306640625 220.1668701171875 477.08709716796875 C 219.19183349609375 475.832763671875 218.28643798828125 474.578369140625 217.45071411132812 473.32403564453125 C 216.7542724609375 472.20904541015625 215.98818969726562 471.23345947265625 215.1524658203125 470.397216796875 C 236.3243408203125 461.3380126953125 253.59616088867188 451.0244140625 266.9678955078125 439.4564208984375 C 280.4789123535156 427.7491455078125 291.2041320800781 415.4146728515625 299.14361572265625 402.4530029296875 C 307.08306884765625 389.49127197265625 312.79388427734375 376.18115234375 316.276123046875 362.52264404296875 C 319.75830078125 348.8641357421875 321.91729736328125 335.20556640625 322.7530517578125 321.5469970703125 C 323.72802734375 307.88848876953125 324.215576171875 294.92681884765625 324.215576171875 282.6620178222656 C 324.215576171875 239.038330078125 324.215576171875 195.41461181640625 324.215576171875 151.79092407226562M 223.92764282226562 120.013916015625 C 227.8277587890625 121.12890625 231.72781372070312 122.243896484375 235.6279296875 123.35888671875 C 226.43484497070312 145.79791259765625 215.91854858398438 167.6097412109375 204.0789794921875 188.79443359375 C 192.23944091796875 209.8397216796875 179.49453735351562 229.56097412109375 165.84423828125 247.95819091796875 C 152.19390869140625 266.21600341796875 138.12576293945312 282.731689453125 123.63970947265625 297.5052185058594 C 123.08258056640625 296.66900634765625 122.246826171875 295.6236877441406 121.13250732421875 294.36932373046875 C 120.15750122070312 292.9755859375 119.11282348632812 291.72125244140625 117.99853515625 290.60626220703125 C 117.02349853515625 289.3519287109375 115.97882080078125 288.3066101074219 114.86453247070312 287.47039794921875 C 129.35055541992188 273.81182861328125 143.27944946289062 258.13238525390625 156.65115356445312 240.43206787109375 C 170.02288818359375 222.59231567382812 182.48922729492188 203.42855834960938 194.05020141601562 182.94076538085938 C 205.75045776367188 162.45294189453125 215.70962524414062 141.47732543945312 223.92764282226562 120.013916015625M 179.00701904296875 214.7177734375 C 182.767822265625 211.0244140625 186.52862548828125 207.33099365234375 190.28939819335938 203.63763427734375 C 190.5679931640625 203.70733642578125 190.8465576171875 203.7769775390625 191.1251220703125 203.8466796875 C 191.1251220703125 295.9024353027344 191.1251220703125 387.95819091796875 191.1251220703125 480.013916015625 C 187.08575439453125 480.013916015625 183.04638671875 480.013916015625 179.00701904296875 480.013916015625 C 179.00701904296875 391.5819091796875 179.00701904296875 303.14984130859375 179.00701904296875 214.7177734375"/>
  </g>
</svg>
