<?xml version="1.0" encoding="utf-8"?>
<svg xmlns="http://www.w3.org/2000/svg" xmlns:ev="http://www.w3.org/2001/xml-events" xmlns:xlink="http://www.w3.org/1999/xlink" version="1.1" baseProfile="full" width="30496.0" height="1753.0" viewBox="136.0 -1597.0 30496.0 1753.0">
<defs/>
<g><path d="M 23161.000000 -1227.000000 C 23723.000000 -1227.000000 24285.000000 -1227.000000 24847.000000 -1227.000000 C 24847.000000 -1208.333333 24847.000000 -1189.666667 24847.000000 -1171.000000 C 24285.000000 -1171.000000 23723.000000 -1171.000000 23161.000000 -1171.000000 C 23161.000000 -1189.666667 23161.000000 -1208.333333 23161.000000 -1227.000000z M 23405.000000 -33.000000 C 23803.666667 -33.000000 24202.333333 -33.000000 24601.000000 -33.000000 C 24601.000000 -13.666667 24601.000000 5.666667 24601.000000 25.000000 C 24202.333333 25.000000 23803.666667 25.000000 23405.000000 25.000000 C 23405.000000 5.666667 23405.000000 -13.666667 23405.000000 -33.000000z M 23969.000000 -1596.000000 C 23988.333333 -1596.000000 24007.666667 -1596.000000 24027.000000 -1596.000000 C 24027.000000 -1282.333333 24027.000000 -968.666667 24027.000000 -655.000000 C 24007.666667 -655.000000 23988.333333 -655.000000 23969.000000 -655.000000 C 23969.000000 -968.666667 23969.000000 -1282.333333 23969.000000 -1596.000000z M 23382.000000 -687.000000 C 23797.333333 -687.000000 24212.666667 -687.000000 24628.000000 -687.000000 C 24628.000000 -414.000000 24628.000000 -141.000000 24628.000000 132.000000 C 24609.333333 132.000000 24590.666667 132.000000 24572.000000 132.000000 C 24572.000000 -122.000000 24572.000000 -376.000000 24572.000000 -630.000000 C 24193.666667 -630.000000 23815.333333 -630.000000 23437.000000 -630.000000 C 23437.000000 -373.333333 23437.000000 -116.666667 23437.000000 140.000000 C 23418.666667 140.000000 23400.333333 140.000000 23382.000000 140.000000 C 23382.000000 -135.666667 23382.000000 -411.333333 23382.000000 -687.000000z "/>
</g></svg>
