<?xml version="1.0" ?>
<svg xmlns="http://www.w3.org/2000/svg" version="1.1" width="600" height="600">
  <defs/>
  <g>
    <path stroke-width="0" fill="rgb(0, 0, 0)" opacity="1.0" d="M 292.096923828125 122.03652954101562 C 296.066650390625 122.03652954101562 300.03662109375 122.03652954101562 304.006591796875 122.03652954101562 C 304.006591796875 138.80776977539062 304.006591796875 155.57901000976562 304.006591796875 172.35025024414062 C 300.03662109375 172.35025024414062 296.066650390625 172.35025024414062 292.096923828125 172.35025024414062 C 292.096923828125 155.57901000976562 292.096923828125 138.80776977539062 292.096923828125 122.03652954101562M 246.10107421875 173.58242797851562 C 250.139404296875 173.58242797851562 254.177734375 173.58242797851562 258.216064453125 173.58242797851562 C 256.16259765625 191.79119873046875 252.671875 207.9464111328125 247.74365234375 222.04791259765625 C 242.95263671875 236.0125732421875 236.03955078125 248.33428955078125 227.004638671875 259.01312255859375 C 218.106689453125 269.69195556640625 206.470703125 278.86480712890625 192.096923828125 286.53167724609375 C 177.8603515625 294.0616149902344 160.201171875 300.29095458984375 139.11962890625 305.2196044921875 C 138.708984375 304.26123046875 138.093017578125 303.23443603515625 137.271728515625 302.13916015625 C 136.450439453125 301.0439453125 135.560546875 299.94866943359375 134.602294921875 298.8533935546875 C 133.781005859375 297.6212158203125 132.95947265625 296.7313232421875 132.13818359375 296.1836853027344 C 152.672119140625 291.52880859375 169.783447265625 285.64178466796875 183.472900390625 278.52252197265625 C 197.298828125 271.4033203125 208.455810546875 262.8465576171875 216.94287109375 252.85226440429688 C 225.567138671875 242.85797119140625 232.069580078125 231.28924560546875 236.4501953125 218.14605712890625 C 240.967529296875 205.00286865234375 244.1845703125 190.1483154296875 246.10107421875 173.58242797851562M 335.833984375 174.40390014648438 C 339.6669921875 174.40390014648438 343.499755859375 174.40390014648438 347.332763671875 174.40390014648438 C 347.332763671875 203.0177001953125 347.332763671875 231.6314697265625 347.332763671875 260.24530029296875 C 347.332763671875 264.21563720703125 348.49658203125 266.8853454589844 350.82373046875 268.2544250488281 C 353.28759765625 269.4866027832031 358.96875 270.1026916503906 367.86669921875 270.1026916503906 C 369.920166015625 270.1026916503906 373.95849609375 270.1026916503906 379.981689453125 270.1026916503906 C 386.141845703125 270.1026916503906 392.849609375 270.1026916503906 400.104736328125 270.1026916503906 C 407.4970703125 270.1026916503906 414.41015625 270.1026916503906 420.843994140625 270.1026916503906 C 427.27783203125 270.1026916503906 431.79541015625 270.1026916503906 434.396240234375 270.1026916503906 C 440.556396484375 270.1026916503906 444.594970703125 268.45977783203125 446.51123046875 265.17401123046875 C 448.427734375 261.75128173828125 449.65966796875 253.46832275390625 450.20751953125 240.32516479492188 C 451.85009765625 241.28350830078125 453.6298828125 242.10498046875 455.546142578125 242.78948974609375 C 457.599609375 243.47406005859375 459.51611328125 243.9532470703125 461.295654296875 244.22705078125 C 460.748046875 254.22134399414062 459.721435546875 261.88818359375 458.215576171875 267.22760009765625 C 456.8466796875 272.5670166015625 454.382568359375 276.2635498046875 450.823486328125 278.3171691894531 C 447.264404296875 280.23388671875 442.19921875 281.1922607421875 435.62841796875 281.1922607421875 C 434.396240234375 281.1922607421875 430.494873046875 281.1922607421875 423.924072265625 281.1922607421875 C 417.353271484375 281.1922607421875 410.029541015625 281.1922607421875 401.952880859375 281.1922607421875 C 394.01318359375 281.1922607421875 386.7578125 281.1922607421875 380.18701171875 281.1922607421875 C 373.6162109375 281.1922607421875 369.646484375 281.1922607421875 368.27734375 281.1922607421875 C 359.7900390625 281.1922607421875 353.150634765625 280.71307373046875 348.359619140625 279.75469970703125 C 343.705078125 278.6594543457031 340.419677734375 276.6058349609375 338.50341796875 273.5938415527344 C 336.7236328125 270.58184814453125 335.833984375 266.06390380859375 335.833984375 260.0399169921875 C 335.833984375 231.49456787109375 335.833984375 202.94921875 335.833984375 174.40390014648438M 135.62890625 166.18939208984375 C 245.6220703125 166.18939208984375 355.61474609375 166.18939208984375 465.60791015625 166.18939208984375 C 465.60791015625 185.35653686523438 465.60791015625 204.523681640625 465.60791015625 223.69082641601562 C 461.774658203125 223.69082641601562 457.94189453125 223.69082641601562 454.10888671875 223.69082641601562 C 454.10888671875 208.28863525390625 454.10888671875 192.886474609375 454.10888671875 177.48431396484375 C 351.918701171875 177.48431396484375 249.728759765625 177.48431396484375 147.53857421875 177.48431396484375 C 147.53857421875 194.05020141601562 147.53857421875 210.6160888671875 147.53857421875 227.18197631835938 C 143.56884765625 227.18197631835938 139.598876953125 227.18197631835938 135.62890625 227.18197631835938 C 135.62890625 206.85113525390625 135.62890625 186.520263671875 135.62890625 166.18939208984375M 125.362060546875 340.3365478515625 C 241.446533203125 340.3365478515625 357.531494140625 340.3365478515625 473.615966796875 340.3365478515625 C 473.615966796875 344.306884765625 473.615966796875 348.2772216796875 473.615966796875 352.24755859375 C 357.531494140625 352.24755859375 241.446533203125 352.24755859375 125.362060546875 352.24755859375 C 125.362060546875 348.2772216796875 125.362060546875 344.306884765625 125.362060546875 340.3365478515625M 292.096923828125 282.4244384765625 C 296.20361328125 282.4244384765625 300.310302734375 282.4244384765625 304.417236328125 282.4244384765625 C 302.36376953125 303.91900634765625 299.35205078125 323.77069091796875 295.38232421875 341.9794921875 C 291.412353515625 360.05133056640625 285.594482421875 376.411865234375 277.928466796875 391.06103515625 C 270.3994140625 405.710205078125 260.269287109375 418.6480712890625 247.538330078125 429.87451171875 C 234.9443359375 440.96405029296875 219.064697265625 450.547607421875 199.89990234375 458.625244140625 C 180.735107421875 466.8397216796875 157.463134765625 473.5482177734375 130.0849609375 478.750732421875 C 129.81103515625 477.65545654296875 129.263427734375 476.49169921875 128.442138671875 475.259521484375 C 127.7578125 474.164306640625 126.936279296875 472.93212890625 125.97802734375 471.56304931640625 C 125.019775390625 470.33087158203125 124.198486328125 469.3040771484375 123.513916015625 468.48260498046875 C 150.481689453125 463.55389404296875 173.3427734375 457.18768310546875 192.096923828125 449.3839111328125 C 210.98828125 441.58013916015625 226.525634765625 432.3388671875 238.708740234375 421.6600341796875 C 250.89208984375 410.84423828125 260.611572265625 398.52252197265625 267.866943359375 384.69482421875 C 275.1220703125 370.8670654296875 280.597900390625 355.46490478515625 284.2939453125 338.48828125 C 287.989990234375 321.374755859375 290.591064453125 302.68682861328125 292.096923828125 282.4244384765625M 316.121337890625 343.62237548828125 C 324.608642578125 381.40899658203125 341.788818359375 410.09130859375 367.661376953125 429.66912841796875 C 393.533935546875 449.24700927734375 430.015869140625 461.77410888671875 477.106689453125 467.25042724609375 C 476.01171875 468.0718994140625 474.91650390625 469.09869384765625 473.8212890625 470.33087158203125 C 472.863037109375 471.699951171875 471.973388671875 473.06903076171875 471.15185546875 474.4381103515625 C 470.33056640625 475.80718994140625 469.646240234375 477.1077880859375 469.0986328125 478.3399658203125 C 437.61328125 473.95892333984375 410.714111328125 466.56591796875 388.400634765625 456.160888671875 C 366.087158203125 445.755859375 348.0859375 431.5858154296875 334.396484375 413.65087890625 C 320.707275390625 395.5789794921875 310.85107421875 372.9891357421875 304.827880859375 345.88134765625 C 308.59228515625 345.12835693359375 312.35693359375 344.3753662109375 316.121337890625 343.62237548828125"/>
  </g>
</svg>
