<?xml version="1.0" encoding="utf-8"?>
<svg xmlns="http://www.w3.org/2000/svg" xmlns:ev="http://www.w3.org/2001/xml-events" xmlns:xlink="http://www.w3.org/1999/xlink" version="1.1" baseProfile="full" width="49628.0" height="1744.0" viewBox="213.0 -1596.0 49628.0 1744.0">
<defs/>
<g><path d="M 16587.000000 -1467.000000 C 16584.333333 -1453.000000 16581.666667 -1439.333333 16579.000000 -1426.000000 C 16576.333333 -1413.333333 16574.000000 -1401.333333 16572.000000 -1390.000000 C 16570.666667 -1378.666667 16568.666667 -1368.333333 16566.000000 -1359.000000 C 16552.000000 -1285.000000 16532.666667 -1206.333333 16508.000000 -1123.000000 C 16484.000000 -1039.666667 16457.000000 -957.000000 16427.000000 -875.000000 C 16397.666667 -793.666667 16367.000000 -718.000000 16335.000000 -648.000000 C 16303.000000 -578.000000 16271.666667 -518.666667 16241.000000 -470.000000 C 16203.000000 -410.000000 16160.333333 -351.000000 16113.000000 -293.000000 C 16065.666667 -235.666667 16015.333333 -188.666667 15962.000000 -152.000000 C 15908.666667 -116.000000 15852.666667 -98.000000 15794.000000 -98.000000 C 15750.666667 -98.000000 15711.333333 -109.666667 15676.000000 -133.000000 C 15640.666667 -157.000000 15613.000000 -192.000000 15593.000000 -238.000000 C 15573.666667 -284.000000 15564.000000 -340.333333 15564.000000 -407.000000 C 15564.000000 -482.333333 15578.666667 -557.333333 15608.000000 -632.000000 C 15637.333333 -707.333333 15677.000000 -776.666667 15727.000000 -840.000000 C 15777.000000 -903.333333 15832.000000 -956.000000 15892.000000 -998.000000 C 15978.666667 -1060.666667 16068.000000 -1105.666667 16160.000000 -1133.000000 C 16252.666667 -1161.000000 16345.666667 -1175.000000 16439.000000 -1175.000000 C 16558.333333 -1175.000000 16664.666667 -1150.000000 16758.000000 -1100.000000 C 16851.333333 -1050.000000 16924.333333 -980.666667 16977.000000 -892.000000 C 17030.333333 -804.000000 17057.000000 -702.000000 17057.000000 -586.000000 C 17057.000000 -466.666667 17029.333333 -361.666667 16974.000000 -271.000000 C 16919.333333 -181.000000 16841.000000 -108.000000 16739.000000 -52.000000 C 16637.666667 3.333333 16516.666667 40.000000 16376.000000 58.000000 C 16365.000000 41.333333 16354.000000 24.666667 16343.000000 8.000000 C 16437.666667 -1.333333 16525.333333 -20.666667 16606.000000 -50.000000 C 16686.666667 -79.333333 16756.333333 -119.000000 16815.000000 -169.000000 C 16874.333333 -219.000000 16920.333333 -278.666667 16953.000000 -348.000000 C 16985.666667 -418.000000 17002.000000 -497.333333 17002.000000 -586.000000 C 17002.000000 -688.000000 16978.333333 -779.333333 16931.000000 -860.000000 C 16883.666667 -940.666667 16817.000000 -1004.666667 16731.000000 -1052.000000 C 16645.000000 -1099.333333 16545.000000 -1123.000000 16431.000000 -1123.000000 C 16345.666667 -1123.000000 16258.666667 -1109.333333 16170.000000 -1082.000000 C 16082.000000 -1054.666667 15996.333333 -1009.666667 15913.000000 -947.000000 C 15855.666667 -904.333333 15804.333333 -852.666667 15759.000000 -792.000000 C 15714.333333 -731.333333 15679.333333 -667.666667 15654.000000 -601.000000 C 15629.333333 -534.333333 15617.000000 -469.666667 15617.000000 -407.000000 C 15617.000000 -327.666667 15633.666667 -265.333333 15667.000000 -220.000000 C 15700.333333 -174.666667 15743.333333 -152.000000 15796.000000 -152.000000 C 15833.333333 -152.000000 15871.000000 -163.000000 15909.000000 -185.000000 C 15947.666667 -207.666667 15984.666667 -237.000000 16020.000000 -273.000000 C 16056.000000 -309.666667 16089.666667 -349.000000 16121.000000 -391.000000 C 16152.333333 -433.666667 16179.666667 -475.000000 16203.000000 -515.000000 C 16229.666667 -559.666667 16257.666667 -613.333333 16287.000000 -676.000000 C 16317.000000 -738.666667 16346.333333 -808.000000 16375.000000 -884.000000 C 16403.666667 -960.000000 16430.000000 -1038.666667 16454.000000 -1120.000000 C 16478.666667 -1201.333333 16498.000000 -1282.333333 16512.000000 -1363.000000 C 16514.666667 -1373.666667 16517.000000 -1389.333333 16519.000000 -1410.000000 C 16521.000000 -1431.333333 16522.000000 -1452.333333 16522.000000 -1473.000000 C 16543.666667 -1471.000000 16565.333333 -1469.000000 16587.000000 -1467.000000z M 15825.000000 -1356.000000 C 15829.666667 -1335.333333 15835.333333 -1310.333333 15842.000000 -1281.000000 C 15849.333333 -1252.333333 15856.333333 -1225.333333 15863.000000 -1200.000000 C 15873.000000 -1160.000000 15887.333333 -1113.000000 15906.000000 -1059.000000 C 15924.666667 -1005.666667 15944.333333 -950.666667 15965.000000 -894.000000 C 15986.333333 -838.000000 16008.333333 -785.333333 16031.000000 -736.000000 C 16053.666667 -686.666667 16074.000000 -645.333333 16092.000000 -612.000000 C 16124.666667 -552.000000 16162.000000 -491.000000 16204.000000 -429.000000 C 16246.666667 -367.000000 16291.666667 -313.666667 16339.000000 -269.000000 C 16323.666667 -255.000000 16308.333333 -241.000000 16293.000000 -227.000000 C 16253.666667 -270.333333 16213.000000 -321.000000 16171.000000 -379.000000 C 16129.666667 -437.666667 16088.333333 -504.666667 16047.000000 -580.000000 C 16029.000000 -612.000000 16009.333333 -652.000000 15988.000000 -700.000000 C 15967.333333 -748.000000 15945.666667 -800.000000 15923.000000 -856.000000 C 15901.000000 -912.666667 15880.000000 -969.333333 15860.000000 -1026.000000 C 15840.000000 -1083.333333 15823.000000 -1136.333333 15809.000000 -1185.000000 C 15801.666667 -1211.666667 15793.000000 -1239.333333 15783.000000 -1268.000000 C 15773.666667 -1296.666667 15765.666667 -1318.666667 15759.000000 -1334.000000 C 15781.000000 -1341.333333 15803.000000 -1348.666667 15825.000000 -1356.000000z "/>
</g></svg>
