<?xml version="1.0" ?>
<svg xmlns="http://www.w3.org/2000/svg" version="1.1" width="600" height="600">
  <defs/>
  <g>
    <path stroke-width="0" fill="rgb(0, 0, 0)" opacity="1.0" d="M 293.48553466796875 189.43896484375 C 355.982666015625 189.43896484375 418.479736328125 189.43896484375 480.97686767578125 189.43896484375 C 480.97686767578125 193.382568359375 480.97686767578125 197.326171875 480.97686767578125 201.269775390625 C 416.67626953125 201.269775390625 352.375732421875 201.269775390625 288.07513427734375 201.269775390625 C 289.87860107421875 197.326171875 291.68206787109375 193.382568359375 293.48553466796875 189.43896484375M 340.7225341796875 274.745361328125 C 384.838134765625 274.745361328125 428.9537353515625 274.745361328125 473.0693359375 274.745361328125 C 473.0693359375 278.55059814453125 473.0693359375 282.3558349609375 473.0693359375 286.1610412597656 C 428.9537353515625 286.1610412597656 384.838134765625 286.1610412597656 340.7225341796875 286.1610412597656 C 340.7225341796875 282.3558349609375 340.7225341796875 278.55059814453125 340.7225341796875 274.745361328125M 340.7225341796875 362.33489990234375 C 386.6416015625 362.33489990234375 432.5606689453125 362.33489990234375 478.479736328125 362.33489990234375 C 478.479736328125 366.34765625 478.479736328125 370.3604736328125 478.479736328125 374.373291015625 C 432.5606689453125 374.373291015625 386.6416015625 374.373291015625 340.7225341796875 374.373291015625 C 340.7225341796875 370.3604736328125 340.7225341796875 366.34765625 340.7225341796875 362.33489990234375M 335.10400390625 192.96743774414062 C 339.127197265625 192.96743774414062 343.1502685546875 192.96743774414062 347.17340087890625 192.96743774414062 C 347.17340087890625 288.4441833496094 347.17340087890625 383.9208984375 347.17340087890625 479.397705078125 C 343.1502685546875 479.397705078125 339.127197265625 479.397705078125 335.10400390625 479.397705078125 C 335.10400390625 383.9208984375 335.10400390625 288.4441833496094 335.10400390625 192.96743774414062M 315.127197265625 126.75640869140625 C 319.01153564453125 127.7249755859375 322.89593505859375 128.693603515625 326.78033447265625 129.66220092773438 C 319.28900146484375 150.2796630859375 310.61846923828125 170.41281127929688 300.768798828125 190.06161499023438 C 290.9190673828125 209.57208251953125 280.3063659667969 227.90640258789062 268.9306335449219 245.06451416015625 C 257.6936340332031 262.08428955078125 245.9017333984375 277.3744201660156 233.554931640625 290.93487548828125 C 233.13873291015625 290.38140869140625 232.30633544921875 289.68951416015625 231.05780029296875 288.85931396484375 C 229.80926513671875 287.89068603515625 228.4913330078125 286.922119140625 227.10403442382812 285.9534912109375 C 225.85549926757812 284.84649658203125 224.67630004882812 284.01629638671875 223.56646728515625 283.4627685546875 C 236.19073486328125 270.455810546875 248.052001953125 255.580810546875 259.1502685546875 238.8377685546875 C 270.38726806640625 222.09478759765625 280.7919006347656 204.17559814453125 290.3641357421875 185.08023071289062 C 299.9364013671875 165.84652709960938 308.19073486328125 146.40521240234375 315.127197265625 126.75640869140625M 228.35260009765625 122.39767456054688 C 232.0982666015625 123.50466918945312 235.84393310546875 124.61163330078125 239.589599609375 125.71859741210938 C 230.84970092773438 147.99652099609375 220.65316772460938 169.79013061523438 209.0 191.09942626953125 C 197.48553466796875 212.27035522460938 185.0 232.12673950195312 171.5433349609375 250.66860961914062 C 158.08670043945312 269.07208251953125 144.14450073242188 285.53839111328125 129.71676635742188 300.06744384765625 C 129.16183471679688 299.3755798339844 128.3294677734375 298.406982421875 127.21966552734375 297.16162109375 C 126.24856567382812 295.916259765625 125.20809936523438 294.6709289550781 124.0982666015625 293.42559814453125 C 123.12716674804688 292.0418701171875 122.08670043945312 291.0732421875 120.97686767578125 290.519775390625 C 135.40463256835938 276.8209228515625 149.20809936523438 260.9773254394531 162.38726806640625 242.98895263671875 C 175.56646728515625 225.0006103515625 187.77456665039062 205.766845703125 199.01156616210938 185.28778076171875 C 210.38726806640625 164.67034912109375 220.16763305664062 143.70697021484375 228.35260009765625 122.39767456054688M 183.61273193359375 217.6668701171875 C 187.3583984375 213.79244995117188 191.10403442382812 209.91802978515625 194.84970092773438 206.04360961914062 C 195.12716674804688 206.32037353515625 195.40460205078125 206.59707641601562 195.68206787109375 206.87384033203125 C 195.68206787109375 297.64593505859375 195.68206787109375 388.41802978515625 195.68206787109375 479.19012451171875 C 191.65896606445312 479.19012451171875 187.63583374023438 479.19012451171875 183.61273193359375 479.19012451171875 C 183.61273193359375 392.01568603515625 183.61273193359375 304.84130859375 183.61273193359375 217.6668701171875"/>
  </g>
</svg>
