<?xml version="1.0" ?>
<svg xmlns="http://www.w3.org/2000/svg" version="1.1" width="600" height="600">
  <defs/>
  <g>
    <path stroke-width="0" fill="rgb(0, 0, 0)" opacity="1.0" d="M 334.48291015625 194.62164306640625 C 378.06201171875 194.62164306640625 421.6416015625 194.62164306640625 465.22119140625 194.62164306640625 C 465.22119140625 198.54055786132812 465.22119140625 202.45947265625 465.22119140625 206.37838745117188 C 421.6416015625 206.37838745117188 378.06201171875 206.37838745117188 334.48291015625 206.37838745117188 C 334.48291015625 202.45947265625 334.48291015625 198.54055786132812 334.48291015625 194.62164306640625M 123.8828125 150.229736328125 C 189.28564453125 150.229736328125 254.6884765625 150.229736328125 320.09130859375 150.229736328125 C 320.09130859375 154.14865112304688 320.09130859375 158.06756591796875 320.09130859375 161.98648071289062 C 254.6884765625 161.98648071289062 189.28564453125 161.98648071289062 123.8828125 161.98648071289062 C 123.8828125 158.06756591796875 123.8828125 154.14865112304688 123.8828125 150.229736328125M 386.37255859375 200.9053955078125 C 388.2646484375 200.9053955078125 390.15625 200.9053955078125 392.04833984375 200.9053955078125 C 392.04833984375 224.75674438476562 392.04833984375 248.60809326171875 392.04833984375 272.45947265625 C 392.04833984375 276.9189147949219 392.58837890625 284.75677490234375 393.66943359375 295.97296142578125 C 394.7509765625 307.0540771484375 396.84521484375 320.0946044921875 399.953125 335.0946044921875 C 403.0615234375 349.95947265625 407.79052734375 365.43243408203125 414.14208984375 381.5135498046875 C 420.4931640625 397.5946044921875 428.9384765625 413.1351318359375 439.478515625 428.1351318359375 C 450.15380859375 443.0 463.39697265625 455.70269775390625 479.20703125 466.2432861328125 C 478.8017578125 467.0540771484375 478.05859375 467.93243408203125 476.9775390625 468.87841796875 C 475.89599609375 469.95947265625 474.8154296875 471.10809326171875 473.734375 472.3243408203125 C 472.78857421875 473.54052734375 472.044921875 474.4864501953125 471.50439453125 475.16217041015625 C 454.8837890625 463.54052734375 441.16796875 450.0946044921875 430.357421875 434.8243408203125 C 419.68212890625 419.4189453125 411.236328125 403.87841796875 405.0205078125 388.20269775390625 C 398.8046875 372.52703857421875 394.27783203125 358.20269775390625 391.43994140625 345.229736328125 C 388.7373046875 332.25677490234375 387.04833984375 322.25677490234375 386.37255859375 315.229736328125 C 385.83203125 322.25677490234375 384.0751953125 332.189208984375 381.1025390625 345.02703857421875 C 378.2646484375 357.8648681640625 373.67041015625 372.12158203125 367.3193359375 387.79730224609375 C 360.96826171875 403.33782958984375 352.25244140625 418.810791015625 341.171875 434.2161865234375 C 330.22607421875 449.62158203125 316.17236328125 463.4053955078125 299.01123046875 475.56756591796875 C 298.60595703125 474.89190673828125 297.86279296875 474.0135498046875 296.78125 472.93243408203125 C 295.7001953125 471.851318359375 294.68701171875 470.770263671875 293.7412109375 469.689208984375 C 292.93017578125 468.7432861328125 292.11962890625 467.8648681640625 291.30859375 467.0540771484375 C 307.9296875 455.97296142578125 321.6455078125 442.93243408203125 332.45556640625 427.93243408203125 C 343.4013671875 412.79730224609375 352.1171875 397.25677490234375 358.603515625 381.310791015625 C 365.08984375 365.3648681640625 369.95458984375 350.02703857421875 373.197265625 335.29730224609375 C 376.4404296875 320.43243408203125 378.53515625 307.45947265625 379.48095703125 296.37835693359375 C 380.4267578125 285.16217041015625 380.89990234375 277.189208984375 380.89990234375 272.45947265625 C 380.89990234375 248.60809326171875 380.89990234375 224.75674438476562 380.89990234375 200.9053955078125 C 382.72412109375 200.9053955078125 384.54833984375 200.9053955078125 386.37255859375 200.9053955078125M 343.806640625 126.10812377929688 C 347.7255859375 126.78378295898438 351.64404296875 127.45944213867188 355.56298828125 128.1351318359375 C 352.455078125 148.54052734375 348.603515625 168.47296142578125 344.00927734375 187.93243408203125 C 339.55029296875 207.39190673828125 334.34765625 225.6351318359375 328.40185546875 242.66217041015625 C 322.59130859375 259.689208984375 315.8349609375 274.8243408203125 308.13232421875 288.06756591796875 C 307.591796875 287.52703857421875 306.64599609375 286.9189147949219 305.29443359375 286.24322509765625 C 304.07861328125 285.43243408203125 302.7275390625 284.689208984375 301.24072265625 284.0135192871094 C 299.75439453125 283.33782958984375 298.40283203125 282.8648681640625 297.18701171875 282.5946044921875 C 305.15966796875 269.62164306640625 312.11865234375 254.75677490234375 318.064453125 238.0 C 324.1455078125 221.24325561523438 329.212890625 203.4053955078125 333.2666015625 184.48648071289062 C 337.45556640625 165.56756591796875 340.96875 146.10809326171875 343.806640625 126.10812377929688M 460.96435546875 194.62164306640625 C 461.775390625 194.62164306640625 462.5859375 194.62164306640625 463.39697265625 194.62164306640625 C 464.275390625 194.35134887695312 465.1533203125 194.08108520507812 466.03173828125 193.810791015625 C 468.53173828125 194.89190673828125 471.03125 195.97296142578125 473.53125 197.0540771484375 C 471.36962890625 207.0540771484375 469.00439453125 217.66217041015625 466.43701171875 228.87838745117188 C 463.86962890625 240.0946044921875 461.099609375 250.770263671875 458.12646484375 260.9053955078125 C 455.15380859375 270.9053955078125 452.11328125 279.689208984375 449.00537109375 287.25677490234375 C 445.62744140625 286.3783874511719 442.24853515625 285.5 438.87060546875 284.62164306640625 C 441.97900390625 277.3243408203125 444.8837890625 268.7432556152344 447.58642578125 258.8783874511719 C 450.2890625 249.01348876953125 452.7890625 238.74322509765625 455.08642578125 228.06756591796875 C 457.5185546875 217.39190673828125 459.47802734375 207.52703857421875 460.96435546875 198.47296142578125 C 460.96435546875 197.18917846679688 460.96435546875 195.9053955078125 460.96435546875 194.62164306640625M 274.890625 156.51351928710938 C 278.8095703125 156.51351928710938 282.72802734375 156.51351928710938 286.64697265625 156.51351928710938 C 286.64697265625 197.25677490234375 286.64697265625 238.0 286.64697265625 278.74322509765625 C 286.64697265625 282.93243408203125 285.97119140625 286.04052734375 284.61962890625 288.06756591796875 C 283.40380859375 290.0946044921875 280.97119140625 291.6486511230469 277.32275390625 292.729736328125 C 273.67431640625 293.810791015625 267.9990234375 294.48651123046875 260.29638671875 294.75677490234375 C 252.72900390625 294.89190673828125 242.32421875 294.95947265625 229.08154296875 294.95947265625 C 228.81103515625 293.47296142578125 228.203125 291.7837829589844 227.25732421875 289.89190673828125 C 226.3115234375 287.8648681640625 225.365234375 286.10809326171875 224.41943359375 284.62164306640625 C 235.22998046875 284.89190673828125 244.62109375 285.02703857421875 252.59375 285.02703857421875 C 260.70166015625 285.02703857421875 265.9716796875 284.89190673828125 268.404296875 284.62164306640625 C 272.728515625 284.35137939453125 274.890625 282.52703857421875 274.890625 279.1486511230469 C 274.890625 238.270263671875 274.890625 197.39190673828125 274.890625 156.51351928710938M 150.84130859375 189.14865112304688 C 179.08349609375 189.14865112304688 207.3251953125 189.14865112304688 235.5673828125 189.14865112304688 C 235.5673828125 213.1351318359375 235.5673828125 237.12161254882812 235.5673828125 261.10809326171875 C 207.3251953125 261.10809326171875 179.08349609375 261.10809326171875 150.84130859375 261.10809326171875 C 150.84130859375 257.25677490234375 150.84130859375 253.4053955078125 150.84130859375 249.5540771484375 C 175.3671875 249.5540771484375 199.89306640625 249.5540771484375 224.41943359375 249.5540771484375 C 224.41943359375 233.33782958984375 224.41943359375 217.12164306640625 224.41943359375 200.9053955078125 C 199.89306640625 200.9053955078125 175.3671875 200.9053955078125 150.84130859375 200.9053955078125 C 150.84130859375 196.98648071289062 150.84130859375 193.06756591796875 150.84130859375 189.14865112304688M 144.5576171875 189.14865112304688 C 148.34130859375 189.14865112304688 152.125 189.14865112304688 155.90869140625 189.14865112304688 C 155.90869140625 218.47296142578125 155.90869140625 247.79730224609375 155.90869140625 277.12164306640625 C 152.125 277.12164306640625 148.34130859375 277.12164306640625 144.5576171875 277.12164306640625 C 144.5576171875 247.79730224609375 144.5576171875 218.47296142578125 144.5576171875 189.14865112304688M 148.40869140625 353.33782958984375 C 178.2724609375 353.33782958984375 208.13623046875 353.33782958984375 238.0 353.33782958984375 C 238.0 378.9459228515625 238.0 404.5540771484375 238.0 430.16217041015625 C 208.13623046875 430.16217041015625 178.2724609375 430.16217041015625 148.40869140625 430.16217041015625 C 148.40869140625 426.2432861328125 148.40869140625 422.3243408203125 148.40869140625 418.4053955078125 C 174.48876953125 418.4053955078125 200.56884765625 418.4053955078125 226.64892578125 418.4053955078125 C 226.64892578125 400.5 226.64892578125 382.5946044921875 226.64892578125 364.689208984375 C 200.56884765625 364.689208984375 174.48876953125 364.689208984375 148.40869140625 364.689208984375 C 148.40869140625 360.9053955078125 148.40869140625 357.12158203125 148.40869140625 353.33782958984375M 142.328125 353.33782958984375 C 146.0439453125 353.33782958984375 149.759765625 353.33782958984375 153.47607421875 353.33782958984375 C 153.47607421875 383.74322509765625 153.47607421875 414.148681640625 153.47607421875 444.5540771484375 C 149.759765625 444.5540771484375 146.0439453125 444.5540771484375 142.328125 444.5540771484375 C 142.328125 414.148681640625 142.328125 383.74322509765625 142.328125 353.33782958984375M 120.84228515625 310.56756591796875 C 188.54248046875 310.56756591796875 256.24267578125 310.56756591796875 323.9423828125 310.56756591796875 C 323.9423828125 314.35137939453125 323.9423828125 318.1351318359375 323.9423828125 321.9189453125 C 256.24267578125 321.9189453125 188.54248046875 321.9189453125 120.84228515625 321.9189453125 C 120.84228515625 318.1351318359375 120.84228515625 314.35137939453125 120.84228515625 310.56756591796875M 274.890625 316.851318359375 C 278.8095703125 316.851318359375 282.72802734375 316.851318359375 286.64697265625 316.851318359375 C 286.64697265625 363.9459228515625 286.64697265625 411.04052734375 286.64697265625 458.1351318359375 C 286.64697265625 462.729736328125 285.90380859375 466.10809326171875 284.4169921875 468.270263671875 C 283.06591796875 470.56756591796875 280.4306640625 472.2567138671875 276.51220703125 473.33782958984375 C 272.59326171875 474.2838134765625 266.71484375 474.8243408203125 258.87744140625 474.95947265625 C 251.17529296875 475.0946044921875 240.70263671875 475.16217041015625 227.4599609375 475.16217041015625 C 227.189453125 473.9459228515625 226.58154296875 472.3243408203125 225.6357421875 470.29730224609375 C 224.82470703125 468.4053955078125 223.87890625 466.5810546875 222.7978515625 464.8243408203125 C 234.28369140625 464.95947265625 244.01318359375 465.02703857421875 251.98583984375 465.02703857421875 C 260.09375 465.02703857421875 265.431640625 464.95947265625 267.9990234375 464.8243408203125 C 270.83642578125 464.5540771484375 272.66064453125 464.0135498046875 273.4716796875 463.20269775390625 C 274.41748046875 462.39190673828125 274.890625 460.83782958984375 274.890625 458.54052734375 C 274.890625 411.310791015625 274.890625 364.0810546875 274.890625 316.851318359375"/>
  </g>
</svg>
