<?xml version="1.0" encoding="utf-8"?>
<svg xmlns="http://www.w3.org/2000/svg" xmlns:ev="http://www.w3.org/2001/xml-events" xmlns:xlink="http://www.w3.org/1999/xlink" version="1.1" baseProfile="full" width="5418.0" height="1722.0" viewBox="52.0 -1588.0 5418.0 1722.0">
<defs/>
<g><path d="M 522.000000 -989.000000 C 957.333333 -989.000000 1392.666667 -989.000000 1828.000000 -989.000000 C 1828.000000 -969.666667 1828.000000 -950.333333 1828.000000 -931.000000 C 1392.666667 -931.000000 957.333333 -931.000000 522.000000 -931.000000 C 522.000000 -950.333333 522.000000 -969.666667 522.000000 -989.000000z M 672.000000 -1453.000000 C 1002.333333 -1453.000000 1332.666667 -1453.000000 1663.000000 -1453.000000 C 1663.000000 -1085.666667 1663.000000 -718.333333 1663.000000 -351.000000 C 1643.666667 -351.000000 1624.333333 -351.000000 1605.000000 -351.000000 C 1605.000000 -699.333333 1605.000000 -1047.666667 1605.000000 -1396.000000 C 1294.000000 -1396.000000 983.000000 -1396.000000 672.000000 -1396.000000 C 672.000000 -1415.000000 672.000000 -1434.000000 672.000000 -1453.000000z M 636.000000 -520.000000 C 972.333333 -520.000000 1308.666667 -520.000000 1645.000000 -520.000000 C 1645.000000 -501.000000 1645.000000 -482.000000 1645.000000 -463.000000 C 1308.666667 -463.000000 972.333333 -463.000000 636.000000 -463.000000 C 636.000000 -482.000000 636.000000 -501.000000 636.000000 -520.000000z M 1054.000000 -1436.000000 C 1072.666667 -1436.000000 1091.333333 -1436.000000 1110.000000 -1436.000000 C 1110.000000 -1228.000000 1110.000000 -1020.000000 1110.000000 -812.000000 C 1110.000000 -749.333333 1107.333333 -683.666667 1102.000000 -615.000000 C 1096.666667 -547.000000 1085.000000 -478.666667 1067.000000 -410.000000 C 1049.666667 -341.333333 1021.333333 -274.333333 982.000000 -209.000000 C 943.333333 -143.666667 890.333333 -82.000000 823.000000 -24.000000 C 755.666667 34.000000 670.000000 86.666667 566.000000 134.000000 C 564.000000 130.666667 560.666667 126.000000 556.000000 120.000000 C 551.333333 114.000000 547.000000 108.000000 543.000000 102.000000 C 539.666667 96.666667 536.000000 92.000000 532.000000 88.000000 C 633.333333 44.666667 716.000000 -4.666667 780.000000 -60.000000 C 844.666667 -116.000000 896.000000 -175.000000 934.000000 -237.000000 C 972.000000 -299.000000 999.333333 -362.666667 1016.000000 -428.000000 C 1032.666667 -493.333333 1043.000000 -558.666667 1047.000000 -624.000000 C 1051.666667 -689.333333 1054.000000 -751.333333 1054.000000 -810.000000 C 1054.000000 -1018.666667 1054.000000 -1227.333333 1054.000000 -1436.000000z M 574.000000 -1588.000000 C 592.666667 -1582.666667 611.333333 -1577.333333 630.000000 -1572.000000 C 586.000000 -1464.666667 535.666667 -1360.333333 479.000000 -1259.000000 C 422.333333 -1158.333333 361.333333 -1064.000000 296.000000 -976.000000 C 230.666667 -888.666667 163.333333 -809.666667 94.000000 -739.000000 C 91.333333 -743.000000 87.333333 -748.000000 82.000000 -754.000000 C 77.333333 -760.666667 72.333333 -766.666667 67.000000 -772.000000 C 62.333333 -778.000000 57.333333 -783.000000 52.000000 -787.000000 C 121.333333 -852.333333 188.000000 -927.333333 252.000000 -1012.000000 C 316.000000 -1097.333333 375.666667 -1189.000000 431.000000 -1287.000000 C 487.000000 -1385.000000 534.666667 -1485.333333 574.000000 -1588.000000z M 359.000000 -1135.000000 C 377.000000 -1152.666667 395.000000 -1170.333333 413.000000 -1188.000000 C 414.333333 -1187.666667 415.666667 -1187.333333 417.000000 -1187.000000 C 417.000000 -746.666667 417.000000 -306.333333 417.000000 134.000000 C 397.666667 134.000000 378.333333 134.000000 359.000000 134.000000 C 359.000000 -289.000000 359.000000 -712.000000 359.000000 -1135.000000z "/>
</g>
<g><path d="M 2454.000000 -1398.000000 C 2470.666667 -1396.666667 2488.666667 -1395.333333 2508.000000 -1394.000000 C 2528.000000 -1392.666667 2551.000000 -1392.000000 2577.000000 -1392.000000 C 2595.000000 -1392.000000 2624.000000 -1392.666667 2664.000000 -1394.000000 C 2704.000000 -1395.333333 2750.000000 -1397.000000 2802.000000 -1399.000000 C 2854.000000 -1401.000000 2906.333333 -1403.000000 2959.000000 -1405.000000 C 3012.333333 -1407.666667 3060.333333 -1410.333333 3103.000000 -1413.000000 C 3146.333333 -1415.666667 3178.333333 -1418.333333 3199.000000 -1421.000000 C 3213.000000 -1422.333333 3226.666667 -1424.000000 3240.000000 -1426.000000 C 3253.333333 -1428.666667 3264.666667 -1431.333333 3274.000000 -1434.000000 C 3288.000000 -1420.000000 3302.000000 -1406.000000 3316.000000 -1392.000000 C 3310.666667 -1388.000000 3302.333333 -1382.000000 3291.000000 -1374.000000 C 3279.666667 -1366.666667 3270.000000 -1360.000000 3262.000000 -1354.000000 C 3232.666667 -1328.000000 3195.666667 -1296.000000 3151.000000 -1258.000000 C 3106.333333 -1220.666667 3058.000000 -1180.000000 3006.000000 -1136.000000 C 2954.000000 -1092.666667 2901.333333 -1049.000000 2848.000000 -1005.000000 C 2795.333333 -961.000000 2745.000000 -919.333333 2697.000000 -880.000000 C 2649.000000 -841.333333 2607.000000 -808.000000 2571.000000 -780.000000 C 2679.666667 -792.666667 2792.333333 -803.666667 2909.000000 -813.000000 C 3025.666667 -823.000000 3141.333333 -831.000000 3256.000000 -837.000000 C 3371.333333 -843.666667 3482.000000 -847.000000 3588.000000 -847.000000 C 3588.000000 -827.666667 3588.000000 -808.333333 3588.000000 -789.000000 C 3492.000000 -793.000000 3402.000000 -794.000000 3318.000000 -792.000000 C 3234.666667 -790.000000 3164.666667 -784.666667 3108.000000 -776.000000 C 3058.666667 -768.000000 3009.666667 -751.000000 2961.000000 -725.000000 C 2912.333333 -699.666667 2867.333333 -667.333333 2826.000000 -628.000000 C 2785.333333 -589.333333 2752.666667 -546.333333 2728.000000 -499.000000 C 2704.000000 -451.666667 2692.000000 -402.333333 2692.000000 -351.000000 C 2692.000000 -273.000000 2710.333333 -211.333333 2747.000000 -166.000000 C 2784.333333 -120.666667 2831.333333 -86.666667 2888.000000 -64.000000 C 2945.333333 -42.000000 3003.333333 -25.666667 3062.000000 -15.000000 C 3122.666667 -6.333333 3172.666667 -2.666667 3212.000000 -4.000000 C 3252.000000 -5.333333 3288.666667 -7.333333 3322.000000 -10.000000 C 3317.333333 10.000000 3312.666667 30.000000 3308.000000 50.000000 C 3085.333333 58.666667 2918.000000 29.000000 2806.000000 -39.000000 C 2694.000000 -107.666667 2638.000000 -210.000000 2638.000000 -346.000000 C 2638.000000 -416.000000 2655.000000 -479.333333 2689.000000 -536.000000 C 2723.000000 -593.333333 2763.666667 -641.666667 2811.000000 -681.000000 C 2858.333333 -721.000000 2903.000000 -750.000000 2945.000000 -768.000000 C 2829.000000 -758.000000 2699.666667 -745.333333 2557.000000 -730.000000 C 2415.000000 -714.666667 2277.666667 -696.000000 2145.000000 -674.000000 C 2143.000000 -692.666667 2141.000000 -711.333333 2139.000000 -730.000000 C 2191.666667 -736.000000 2247.666667 -742.333333 2307.000000 -749.000000 C 2366.333333 -756.333333 2419.666667 -762.666667 2467.000000 -768.000000 C 2528.333333 -812.666667 2594.333333 -863.333333 2665.000000 -920.000000 C 2736.333333 -977.333333 2806.666667 -1035.333333 2876.000000 -1094.000000 C 2945.333333 -1153.333333 3008.000000 -1207.333333 3064.000000 -1256.000000 C 3120.666667 -1304.666667 3164.333333 -1342.333333 3195.000000 -1369.000000 C 3177.000000 -1367.666667 3147.000000 -1366.000000 3105.000000 -1364.000000 C 3063.666667 -1362.000000 3016.666667 -1359.666667 2964.000000 -1357.000000 C 2912.000000 -1355.000000 2859.666667 -1352.666667 2807.000000 -1350.000000 C 2754.333333 -1347.333333 2707.666667 -1345.000000 2667.000000 -1343.000000 C 2627.000000 -1341.000000 2598.000000 -1339.333333 2580.000000 -1338.000000 C 2554.666667 -1336.666667 2530.666667 -1335.000000 2508.000000 -1333.000000 C 2486.000000 -1331.666667 2469.333333 -1330.333333 2458.000000 -1329.000000 C 2456.666667 -1352.000000 2455.333333 -1375.000000 2454.000000 -1398.000000z "/>
</g>
<g><path d="M 4212.000000 -1254.000000 C 4339.333333 -1238.666667 4466.333333 -1230.000000 4593.000000 -1228.000000 C 4719.666667 -1226.000000 4830.333333 -1230.000000 4925.000000 -1240.000000 C 4995.000000 -1249.333333 5066.666667 -1262.000000 5140.000000 -1278.000000 C 5214.000000 -1294.000000 5280.666667 -1312.000000 5340.000000 -1332.000000 C 5343.666667 -1312.333333 5347.333333 -1292.666667 5351.000000 -1273.000000 C 5295.000000 -1256.333333 5230.000000 -1240.333333 5156.000000 -1225.000000 C 5082.666667 -1209.666667 5010.666667 -1197.333333 4940.000000 -1188.000000 C 4844.000000 -1178.000000 4732.000000 -1173.333333 4604.000000 -1174.000000 C 4476.000000 -1174.666667 4347.333333 -1180.666667 4218.000000 -1192.000000 C 4216.000000 -1212.666667 4214.000000 -1233.333333 4212.000000 -1254.000000z M 4172.000000 -868.000000 C 4276.000000 -856.666667 4380.666667 -849.333333 4486.000000 -846.000000 C 4591.333333 -842.666667 4692.333333 -843.000000 4789.000000 -847.000000 C 4885.666667 -851.666667 4970.000000 -859.333333 5042.000000 -870.000000 C 5121.333333 -880.000000 5199.333333 -893.666667 5276.000000 -911.000000 C 5352.666667 -928.333333 5414.000000 -944.666667 5460.000000 -960.000000 C 5463.333333 -940.000000 5466.666667 -920.000000 5470.000000 -900.000000 C 5422.666667 -886.000000 5363.000000 -871.666667 5291.000000 -857.000000 C 5219.666667 -842.333333 5142.333333 -830.000000 5059.000000 -820.000000 C 4982.333333 -809.333333 4895.333333 -801.333333 4798.000000 -796.000000 C 4700.666667 -791.333333 4598.666667 -790.000000 4492.000000 -792.000000 C 4386.000000 -794.000000 4280.666667 -798.666667 4176.000000 -806.000000 C 4174.666667 -826.666667 4173.333333 -847.333333 4172.000000 -868.000000z M 4844.000000 -1357.000000 C 4838.666667 -1379.000000 4832.333333 -1401.000000 4825.000000 -1423.000000 C 4818.333333 -1445.666667 4812.000000 -1465.333333 4806.000000 -1482.000000 C 4829.000000 -1486.666667 4852.000000 -1491.333333 4875.000000 -1496.000000 C 4880.333333 -1450.000000 4890.666667 -1397.333333 4906.000000 -1338.000000 C 4921.333333 -1279.333333 4938.000000 -1221.000000 4956.000000 -1163.000000 C 4974.666667 -1105.666667 4991.000000 -1056.666667 5005.000000 -1016.000000 C 5025.666667 -960.666667 5047.666667 -904.666667 5071.000000 -848.000000 C 5095.000000 -792.000000 5121.666667 -736.000000 5151.000000 -680.000000 C 5181.000000 -624.666667 5214.333333 -570.000000 5251.000000 -516.000000 C 5259.000000 -504.666667 5268.000000 -493.666667 5278.000000 -483.000000 C 5288.000000 -472.333333 5298.333333 -461.666667 5309.000000 -451.000000 C 5294.333333 -432.000000 5279.666667 -413.000000 5265.000000 -394.000000 C 5229.000000 -405.333333 5189.000000 -414.333333 5145.000000 -421.000000 C 5101.666667 -428.333333 5057.666667 -434.333333 5013.000000 -439.000000 C 4968.333333 -444.333333 4925.000000 -449.000000 4883.000000 -453.000000 C 4884.666667 -469.666667 4886.333333 -486.333333 4888.000000 -503.000000 C 4950.666667 -496.333333 5014.000000 -489.000000 5078.000000 -481.000000 C 5142.000000 -473.666667 5190.000000 -467.666667 5222.000000 -463.000000 C 5167.333333 -542.333333 5117.333333 -629.666667 5072.000000 -725.000000 C 5027.333333 -820.333333 4989.000000 -910.666667 4957.000000 -996.000000 C 4941.666667 -1038.666667 4927.000000 -1081.333333 4913.000000 -1124.000000 C 4899.000000 -1166.666667 4886.333333 -1208.000000 4875.000000 -1248.000000 C 4863.666667 -1288.666667 4853.333333 -1325.000000 4844.000000 -1357.000000z M 4362.000000 -488.000000 C 4339.333333 -453.333333 4321.000000 -418.666667 4307.000000 -384.000000 C 4293.666667 -349.333333 4287.000000 -309.666667 4287.000000 -265.000000 C 4287.000000 -177.666667 4326.000000 -109.666667 4404.000000 -61.000000 C 4482.666667 -12.333333 4609.000000 12.000000 4783.000000 12.000000 C 4871.000000 12.000000 4947.666667 8.666667 5013.000000 2.000000 C 5078.333333 -4.666667 5146.333333 -15.000000 5217.000000 -29.000000 C 5217.000000 -8.333333 5217.000000 12.333333 5217.000000 33.000000 C 5150.333333 44.333333 5083.333333 52.333333 5016.000000 57.000000 C 4948.666667 62.333333 4872.333333 65.000000 4787.000000 65.000000 C 4663.666667 65.000000 4561.000000 52.666667 4479.000000 28.000000 C 4397.000000 4.000000 4335.666667 -32.666667 4295.000000 -82.000000 C 4254.333333 -131.333333 4234.000000 -192.333333 4234.000000 -265.000000 C 4234.000000 -312.333333 4240.000000 -354.000000 4252.000000 -390.000000 C 4264.000000 -426.666667 4280.333333 -465.000000 4301.000000 -505.000000 C 4321.333333 -499.333333 4341.666667 -493.666667 4362.000000 -488.000000z "/>
</g>
</svg>
