<?xml version="1.0" encoding="utf-8"?>
<svg xmlns="http://www.w3.org/2000/svg" xmlns:ev="http://www.w3.org/2001/xml-events" xmlns:xlink="http://www.w3.org/1999/xlink" version="1.1" baseProfile="full" width="20873.0" height="1742.0" viewBox="84.0 -1596.0 20873.0 1742.0">
<defs/>
<g><path d="M 109.000000 -1498.000000 C 324.333333 -1498.000000 539.666667 -1498.000000 755.000000 -1498.000000 C 755.000000 -1479.333333 755.000000 -1460.666667 755.000000 -1442.000000 C 539.666667 -1442.000000 324.333333 -1442.000000 109.000000 -1442.000000 C 109.000000 -1460.666667 109.000000 -1479.333333 109.000000 -1498.000000z M 138.000000 -958.000000 C 338.333333 -958.000000 538.666667 -958.000000 739.000000 -958.000000 C 739.000000 -939.333333 739.000000 -920.666667 739.000000 -902.000000 C 538.666667 -902.000000 338.333333 -902.000000 138.000000 -902.000000 C 138.000000 -920.666667 138.000000 -939.333333 138.000000 -958.000000z M 84.000000 -257.000000 C 140.666667 -272.333333 205.666667 -290.666667 279.000000 -312.000000 C 353.000000 -333.333333 431.666667 -356.333333 515.000000 -381.000000 C 599.000000 -406.333333 683.333333 -431.000000 768.000000 -455.000000 C 770.666667 -436.333333 773.333333 -417.666667 776.000000 -399.000000 C 655.333333 -363.666667 535.000000 -328.000000 415.000000 -292.000000 C 295.666667 -256.000000 191.333333 -224.666667 102.000000 -198.000000 C 96.000000 -217.666667 90.000000 -237.333333 84.000000 -257.000000z M 914.000000 -1119.000000 C 914.000000 -1029.666667 914.000000 -940.333333 914.000000 -851.000000 C 1165.000000 -851.000000 1416.000000 -851.000000 1667.000000 -851.000000 C 1667.000000 -940.333333 1667.000000 -1029.666667 1667.000000 -1119.000000 C 1416.000000 -1119.000000 1165.000000 -1119.000000 914.000000 -1119.000000z M 914.000000 -795.000000 C 914.000000 -704.000000 914.000000 -613.000000 914.000000 -522.000000 C 1165.000000 -522.000000 1416.000000 -522.000000 1667.000000 -522.000000 C 1667.000000 -613.000000 1667.000000 -704.000000 1667.000000 -795.000000 C 1416.000000 -795.000000 1165.000000 -795.000000 914.000000 -795.000000z M 914.000000 -1444.000000 C 914.000000 -1355.000000 914.000000 -1266.000000 914.000000 -1177.000000 C 1165.000000 -1177.000000 1416.000000 -1177.000000 1667.000000 -1177.000000 C 1667.000000 -1266.000000 1667.000000 -1355.000000 1667.000000 -1444.000000 C 1416.000000 -1444.000000 1165.000000 -1444.000000 914.000000 -1444.000000z M 858.000000 -1500.000000 C 1146.000000 -1500.000000 1434.000000 -1500.000000 1722.000000 -1500.000000 C 1722.000000 -1155.000000 1722.000000 -810.000000 1722.000000 -465.000000 C 1434.000000 -465.000000 1146.000000 -465.000000 858.000000 -465.000000 C 858.000000 -810.000000 858.000000 -1155.000000 858.000000 -1500.000000z M 1380.000000 -499.000000 C 1398.666667 -499.000000 1417.333333 -499.000000 1436.000000 -499.000000 C 1436.000000 -327.000000 1436.000000 -155.000000 1436.000000 17.000000 C 1436.000000 36.333333 1440.333333 49.000000 1449.000000 55.000000 C 1458.333333 61.666667 1478.333333 65.000000 1509.000000 65.000000 C 1519.000000 65.000000 1539.000000 65.000000 1569.000000 65.000000 C 1599.666667 65.000000 1631.000000 65.000000 1663.000000 65.000000 C 1695.000000 65.000000 1717.333333 65.000000 1730.000000 65.000000 C 1748.000000 65.000000 1761.333333 60.000000 1770.000000 50.000000 C 1779.333333 40.000000 1786.000000 18.333333 1790.000000 -15.000000 C 1794.666667 -48.333333 1797.666667 -98.333333 1799.000000 -165.000000 C 1804.333333 -162.333333 1809.666667 -159.333333 1815.000000 -156.000000 C 1821.000000 -153.333333 1827.333333 -150.666667 1834.000000 -148.000000 C 1841.333333 -145.333333 1847.666667 -143.333333 1853.000000 -142.000000 C 1851.666667 -71.333333 1847.333333 -17.333333 1840.000000 20.000000 C 1833.333333 58.000000 1822.000000 84.000000 1806.000000 98.000000 C 1790.000000 112.000000 1766.666667 119.000000 1736.000000 119.000000 C 1730.666667 119.000000 1716.666667 119.000000 1694.000000 119.000000 C 1672.000000 119.000000 1647.666667 119.000000 1621.000000 119.000000 C 1595.000000 119.000000 1571.000000 119.000000 1549.000000 119.000000 C 1527.666667 119.000000 1513.666667 119.000000 1507.000000 119.000000 C 1473.666667 119.000000 1447.666667 116.333333 1429.000000 111.000000 C 1411.000000 106.333333 1398.333333 96.666667 1391.000000 82.000000 C 1383.666667 67.333333 1380.000000 45.666667 1380.000000 17.000000 C 1380.000000 -155.000000 1380.000000 -327.000000 1380.000000 -499.000000z M 1066.000000 -497.000000 C 1085.000000 -497.000000 1104.000000 -497.000000 1123.000000 -497.000000 C 1113.000000 -416.333333 1097.333333 -342.666667 1076.000000 -276.000000 C 1054.666667 -210.000000 1024.666667 -150.333333 986.000000 -97.000000 C 948.000000 -43.666667 899.000000 3.000000 839.000000 43.000000 C 779.000000 83.666667 705.333333 118.000000 618.000000 146.000000 C 615.333333 140.666667 611.666667 135.000000 607.000000 129.000000 C 603.000000 123.666667 598.333333 118.000000 593.000000 112.000000 C 588.333333 106.666667 584.000000 102.666667 580.000000 100.000000 C 665.333333 74.000000 737.000000 42.000000 795.000000 4.000000 C 853.666667 -33.333333 901.333333 -77.333333 938.000000 -128.000000 C 974.666667 -178.666667 1002.666667 -234.666667 1022.000000 -296.000000 C 1042.000000 -357.333333 1056.666667 -424.333333 1066.000000 -497.000000z M 411.000000 -1475.000000 C 429.666667 -1475.000000 448.333333 -1475.000000 467.000000 -1475.000000 C 467.000000 -1097.333333 467.000000 -719.666667 467.000000 -342.000000 C 448.333333 -336.666667 429.666667 -331.333333 411.000000 -326.000000 C 411.000000 -709.000000 411.000000 -1092.000000 411.000000 -1475.000000z "/>
</g></svg>
