<?xml version="1.0" encoding="utf-8"?>
<svg xmlns="http://www.w3.org/2000/svg" xmlns:ev="http://www.w3.org/2001/xml-events" xmlns:xlink="http://www.w3.org/1999/xlink" version="1.1" baseProfile="full" width="30496.0" height="1753.0" viewBox="136.0 -1597.0 30496.0 1753.0">
<defs/>
<g><path d="M 19941.000000 -1488.000000 C 20238.000000 -1488.000000 20535.000000 -1488.000000 20832.000000 -1488.000000 C 20832.000000 -1469.333333 20832.000000 -1450.666667 20832.000000 -1432.000000 C 20535.000000 -1432.000000 20238.000000 -1432.000000 19941.000000 -1432.000000 C 19941.000000 -1450.666667 19941.000000 -1469.333333 19941.000000 -1488.000000z M 19926.000000 -975.000000 C 20239.666667 -975.000000 20553.333333 -975.000000 20867.000000 -975.000000 C 20867.000000 -956.000000 20867.000000 -937.000000 20867.000000 -918.000000 C 20553.333333 -918.000000 20239.666667 -918.000000 19926.000000 -918.000000 C 19926.000000 -937.000000 19926.000000 -956.000000 19926.000000 -975.000000z M 19926.000000 -716.000000 C 20239.666667 -716.000000 20553.333333 -716.000000 20867.000000 -716.000000 C 20867.000000 -697.000000 20867.000000 -678.000000 20867.000000 -659.000000 C 20553.333333 -659.000000 20239.666667 -659.000000 19926.000000 -659.000000 C 19926.000000 -678.000000 19926.000000 -697.000000 19926.000000 -716.000000z M 19945.000000 -27.000000 C 20245.000000 -27.000000 20545.000000 -27.000000 20845.000000 -27.000000 C 20845.000000 -7.666667 20845.000000 11.666667 20845.000000 31.000000 C 20545.000000 31.000000 20245.000000 31.000000 19945.000000 31.000000 C 19945.000000 11.666667 19945.000000 -7.666667 19945.000000 -27.000000z M 19763.000000 -1231.000000 C 20184.000000 -1231.000000 20605.000000 -1231.000000 21026.000000 -1231.000000 C 21026.000000 -1212.333333 21026.000000 -1193.666667 21026.000000 -1175.000000 C 20605.000000 -1175.000000 20184.000000 -1175.000000 19763.000000 -1175.000000 C 19763.000000 -1193.666667 19763.000000 -1212.333333 19763.000000 -1231.000000z M 19918.000000 -459.000000 C 20236.666667 -459.000000 20555.333333 -459.000000 20874.000000 -459.000000 C 20874.000000 -262.333333 20874.000000 -65.666667 20874.000000 131.000000 C 20855.666667 131.000000 20837.333333 131.000000 20819.000000 131.000000 C 20819.000000 -47.000000 20819.000000 -225.000000 20819.000000 -403.000000 C 20537.333333 -403.000000 20255.666667 -403.000000 19974.000000 -403.000000 C 19974.000000 -223.333333 19974.000000 -43.666667 19974.000000 136.000000 C 19955.333333 136.000000 19936.666667 136.000000 19918.000000 136.000000 C 19918.000000 -62.333333 19918.000000 -260.666667 19918.000000 -459.000000z M 19774.000000 -1588.000000 C 19792.666667 -1582.666667 19811.333333 -1577.333333 19830.000000 -1572.000000 C 19786.000000 -1464.666667 19735.666667 -1360.333333 19679.000000 -1259.000000 C 19622.333333 -1158.333333 19561.333333 -1064.000000 19496.000000 -976.000000 C 19430.666667 -888.666667 19363.333333 -809.666667 19294.000000 -739.000000 C 19291.333333 -743.000000 19287.333333 -748.000000 19282.000000 -754.000000 C 19277.333333 -760.666667 19272.333333 -766.666667 19267.000000 -772.000000 C 19262.333333 -778.000000 19257.333333 -783.000000 19252.000000 -787.000000 C 19321.333333 -852.333333 19388.000000 -927.333333 19452.000000 -1012.000000 C 19516.000000 -1097.333333 19575.666667 -1189.000000 19631.000000 -1287.000000 C 19687.000000 -1385.000000 19734.666667 -1485.333333 19774.000000 -1588.000000z M 19559.000000 -1129.000000 C 19577.000000 -1147.000000 19595.000000 -1165.000000 19613.000000 -1183.000000 C 19614.333333 -1182.333333 19615.666667 -1181.666667 19617.000000 -1181.000000 C 19617.000000 -743.666667 19617.000000 -306.333333 19617.000000 131.000000 C 19597.666667 131.000000 19578.333333 131.000000 19559.000000 131.000000 C 19559.000000 -289.000000 19559.000000 -709.000000 19559.000000 -1129.000000z "/>
</g></svg>
