<?xml version="1.0" encoding="utf-8"?>
<svg xmlns="http://www.w3.org/2000/svg" xmlns:ev="http://www.w3.org/2001/xml-events" xmlns:xlink="http://www.w3.org/1999/xlink" version="1.1" baseProfile="full" width="20873.0" height="1742.0" viewBox="84.0 -1596.0 20873.0 1742.0">
<defs/>
<g><path d="M 18659.000000 -1453.000000 C 18675.666667 -1431.666667 18693.333333 -1405.666667 18712.000000 -1375.000000 C 18731.333333 -1344.333333 18750.666667 -1313.000000 18770.000000 -1281.000000 C 18789.333333 -1249.000000 18806.000000 -1218.666667 18820.000000 -1190.000000 C 18802.000000 -1181.333333 18784.000000 -1172.666667 18766.000000 -1164.000000 C 18748.000000 -1202.000000 18723.333333 -1246.666667 18692.000000 -1298.000000 C 18660.666667 -1349.333333 18632.333333 -1392.666667 18607.000000 -1428.000000 C 18624.333333 -1436.333333 18641.666667 -1444.666667 18659.000000 -1453.000000z M 18852.000000 -1521.000000 C 18870.000000 -1497.666667 18889.333333 -1470.333333 18910.000000 -1439.000000 C 18930.666667 -1407.666667 18950.666667 -1376.333333 18970.000000 -1345.000000 C 18990.000000 -1313.666667 19006.666667 -1285.333333 19020.000000 -1260.000000 C 19002.000000 -1251.000000 18984.000000 -1242.000000 18966.000000 -1233.000000 C 18944.000000 -1276.333333 18918.333333 -1322.000000 18889.000000 -1370.000000 C 18859.666667 -1418.000000 18831.000000 -1460.000000 18803.000000 -1496.000000 C 18819.333333 -1504.333333 18835.666667 -1512.666667 18852.000000 -1521.000000z M 17764.000000 -1409.000000 C 17762.666667 -1392.333333 17761.000000 -1376.000000 17759.000000 -1360.000000 C 17757.000000 -1344.000000 17756.000000 -1323.333333 17756.000000 -1298.000000 C 17756.000000 -1284.000000 17756.000000 -1251.333333 17756.000000 -1200.000000 C 17756.000000 -1148.666667 17756.000000 -1086.666667 17756.000000 -1014.000000 C 17756.000000 -942.000000 17756.000000 -865.666667 17756.000000 -785.000000 C 17756.000000 -704.333333 17756.000000 -626.666667 17756.000000 -552.000000 C 17756.000000 -477.333333 17756.000000 -412.000000 17756.000000 -356.000000 C 17756.000000 -300.666667 17756.000000 -261.333333 17756.000000 -238.000000 C 17756.000000 -182.000000 17767.333333 -143.333333 17790.000000 -122.000000 C 17813.333333 -100.666667 17850.000000 -85.000000 17900.000000 -75.000000 C 17932.000000 -69.666667 17974.666667 -65.000000 18028.000000 -61.000000 C 18082.000000 -57.666667 18134.666667 -56.000000 18186.000000 -56.000000 C 18237.333333 -56.000000 18292.000000 -56.666667 18350.000000 -58.000000 C 18408.666667 -60.000000 18467.000000 -63.333333 18525.000000 -68.000000 C 18583.000000 -72.666667 18638.666667 -78.666667 18692.000000 -86.000000 C 18745.333333 -94.000000 18791.666667 -103.000000 18831.000000 -113.000000 C 18831.000000 -89.333333 18831.000000 -65.666667 18831.000000 -42.000000 C 18781.000000 -34.666667 18718.666667 -28.000000 18644.000000 -22.000000 C 18569.333333 -16.000000 18491.666667 -11.000000 18411.000000 -7.000000 C 18330.333333 -3.666667 18255.333333 -2.000000 18186.000000 -2.000000 C 18134.666667 -2.000000 18082.666667 -3.000000 18030.000000 -5.000000 C 17978.000000 -7.000000 17932.666667 -11.000000 17894.000000 -17.000000 C 17830.000000 -29.000000 17781.333333 -49.333333 17748.000000 -78.000000 C 17715.333333 -106.666667 17699.000000 -157.333333 17699.000000 -230.000000 C 17699.000000 -256.000000 17699.000000 -297.333333 17699.000000 -354.000000 C 17699.000000 -411.333333 17699.000000 -478.000000 17699.000000 -554.000000 C 17699.000000 -630.000000 17699.000000 -708.000000 17699.000000 -788.000000 C 17699.000000 -868.000000 17699.000000 -944.000000 17699.000000 -1016.000000 C 17699.000000 -1088.666667 17699.000000 -1150.333333 17699.000000 -1201.000000 C 17699.000000 -1251.666667 17699.000000 -1284.000000 17699.000000 -1298.000000 C 17699.000000 -1314.666667 17698.666667 -1329.000000 17698.000000 -1341.000000 C 17697.333333 -1353.000000 17696.333333 -1364.666667 17695.000000 -1376.000000 C 17693.666667 -1388.000000 17691.666667 -1399.000000 17689.000000 -1409.000000 C 17714.000000 -1409.000000 17739.000000 -1409.000000 17764.000000 -1409.000000z M 17727.000000 -787.000000 C 17781.000000 -798.333333 17842.666667 -813.333333 17912.000000 -832.000000 C 17982.000000 -850.666667 18054.666667 -871.000000 18130.000000 -893.000000 C 18206.000000 -915.666667 18280.333333 -940.000000 18353.000000 -966.000000 C 18426.333333 -992.666667 18493.000000 -1019.333333 18553.000000 -1046.000000 C 18577.000000 -1058.000000 18600.333333 -1070.000000 18623.000000 -1082.000000 C 18645.666667 -1094.000000 18665.333333 -1105.666667 18682.000000 -1117.000000 C 18692.666667 -1095.333333 18703.333333 -1073.666667 18714.000000 -1052.000000 C 18696.000000 -1044.666667 18674.333333 -1035.333333 18649.000000 -1024.000000 C 18624.333333 -1013.333333 18599.333333 -1003.000000 18574.000000 -993.000000 C 18511.333333 -965.666667 18442.000000 -939.000000 18366.000000 -913.000000 C 18290.666667 -887.000000 18214.000000 -861.666667 18136.000000 -837.000000 C 18058.000000 -813.000000 17983.666667 -791.000000 17913.000000 -771.000000 C 17843.000000 -751.000000 17781.000000 -734.000000 17727.000000 -720.000000 C 17727.000000 -742.333333 17727.000000 -764.666667 17727.000000 -787.000000z "/>
</g></svg>
