<?xml version="1.0" ?>
<svg xmlns="http://www.w3.org/2000/svg" version="1.1" width="600" height="600">
  <defs/>
  <g>
    <path stroke-width="0" fill="rgb(0, 0, 0)" opacity="1.0" d="M 152.53341674804688 334.373779296875 C 152.53341674804688 332.272705078125 152.53341674804688 329.340087890625 152.53341674804688 325.57574462890625 C 152.53341674804688 321.7677001953125 152.53341674804688 317.54376220703125 152.53341674804688 312.904052734375 C 152.53341674804688 308.2205810546875 152.53341674804688 303.40576171875 152.53341674804688 298.4595947265625 C 152.53341674804688 293.4697265625 152.53341674804688 288.6767578125 152.53341674804688 284.080810546875 C 152.53341674804688 279.4410400390625 152.53341674804688 275.32659912109375 152.53341674804688 271.73736572265625 C 152.53341674804688 268.1043701171875 152.53341674804688 265.324951171875 152.53341674804688 263.39898681640625 C 152.53341674804688 262.3046875 152.53341674804688 261.31988525390625 152.53341674804688 260.4444580078125 C 152.53341674804688 259.56903076171875 152.48959350585938 258.693603515625 152.4019775390625 257.81817626953125 C 152.31436157226562 256.89898681640625 152.13909912109375 255.8485107421875 151.876220703125 254.6666259765625 C 153.56298828125 254.6666259765625 155.24972534179688 254.6666259765625 156.93646240234375 254.6666259765625 C 156.67361450195312 256.4613037109375 156.49835205078125 257.9932861328125 156.41073608398438 259.26263427734375 C 156.3231201171875 260.48822021484375 156.279296875 261.86700439453125 156.279296875 263.39898681640625 C 156.279296875 265.23736572265625 156.279296875 267.99493408203125 156.279296875 271.6717529296875 C 156.279296875 275.3046875 156.279296875 279.46295166015625 156.279296875 284.146484375 C 156.279296875 288.78619384765625 156.279296875 293.60101318359375 156.279296875 298.5909423828125 C 156.279296875 303.53704833984375 156.279296875 308.35186767578125 156.279296875 313.03533935546875 C 156.279296875 317.675048828125 156.279296875 321.78955078125 156.279296875 325.3787841796875 C 156.279296875 328.92425537109375 156.279296875 331.61614990234375 156.279296875 333.45458984375 C 156.279296875 336.6060791015625 156.87075805664062 339.0791015625 158.05368041992188 340.873779296875 C 159.236572265625 342.6683349609375 161.317626953125 343.9595947265625 164.29681396484375 344.7474365234375 C 167.2760009765625 345.4915771484375 171.46002197265625 345.8636474609375 176.84884643554688 345.8636474609375 C 182.2376708984375 345.8636474609375 187.05694580078125 345.75421142578125 191.30667114257812 345.53533935546875 C 195.556396484375 345.3165283203125 199.63088989257812 344.96630859375 203.53012084960938 344.48486328125 C 207.47317504882812 343.9595947265625 211.54763793945312 343.324951171875 215.7535400390625 342.580810546875 C 215.66592407226562 344.0909423828125 215.57830810546875 345.60101318359375 215.49069213867188 347.111083984375 C 211.46002197265625 347.68017578125 207.49505615234375 348.16162109375 203.5958251953125 348.5555419921875 C 199.74041748046875 348.949462890625 195.556396484375 349.2340087890625 191.0438232421875 349.4090576171875 C 186.57501220703125 349.5404052734375 181.33953857421875 349.6060791015625 175.33734130859375 349.6060791015625 C 170.82476806640625 349.6060791015625 167.05694580078125 349.27777099609375 164.03396606445312 348.6212158203125 C 161.05474853515625 347.96466064453125 158.71084594726562 346.97979736328125 157.002197265625 345.6666259765625 C 155.33734130859375 344.353515625 154.17633056640625 342.755859375 153.5191650390625 340.873779296875 C 152.86199951171875 338.9915771484375 152.53341674804688 336.824951171875 152.53341674804688 334.373779296875M 219.63088989257812 277.1212158203125 C 219.2803955078125 277.5589599609375 218.90798950195312 278.1060791015625 218.513671875 278.76263427734375 C 218.1632080078125 279.37542724609375 217.81271362304688 279.92254638671875 217.46221923828125 280.404052734375 C 215.97262573242188 283.0302734375 214.30776977539062 285.8316650390625 212.46768188476562 288.80810546875 C 210.67141723632812 291.7845458984375 208.7218017578125 294.89227294921875 206.61883544921875 298.13134765625 C 204.515869140625 301.370361328125 202.21575927734375 304.5875244140625 199.718505859375 307.7828369140625 C 197.26504516601562 310.9781494140625 194.65826416015625 314.0421142578125 191.89813232421875 316.9747314453125 C 190.67141723632812 316.208740234375 189.4447021484375 315.4427490234375 188.21795654296875 314.6767578125 C 191.76669311523438 311.437744140625 195.162109375 307.67340087890625 198.4041748046875 303.38385009765625 C 201.69003295898438 299.09423828125 204.62539672851562 294.870361328125 207.21029663085938 290.712158203125 C 209.795166015625 286.5538330078125 211.74481201171875 283.0740966796875 213.05914306640625 280.272705078125 C 213.05914306640625 280.272705078125 211.63525390625 280.5791015625 208.78750610351562 281.19189453125 C 205.93975830078125 281.76092529296875 202.12814331054688 282.5269775390625 197.35269165039062 283.4898681640625 C 192.62103271484375 284.452880859375 187.2760009765625 285.5252685546875 181.317626953125 286.70703125 C 175.403076171875 287.888916015625 169.3570556640625 289.114501953125 163.17962646484375 290.38385009765625 C 157.002197265625 291.6531982421875 151.06573486328125 292.85693359375 145.37020874023438 293.99493408203125 C 139.718505859375 295.0892333984375 134.74588012695312 296.095947265625 130.45236206054688 297.01513671875 C 126.1588134765625 297.89056396484375 123.00439453125 298.5252685546875 120.98904418945312 298.919189453125 C 120.682373046875 297.4090576171875 120.37567138671875 295.89898681640625 120.06900024414062 294.388916015625 C 122.25958251953125 294.1700439453125 125.39212036132812 293.71044921875 129.46658325195312 293.0101318359375 C 133.54107666015625 292.2659912109375 138.25082397460938 291.39056396484375 143.5958251953125 290.38385009765625 C 148.94085693359375 289.3770751953125 154.52682495117188 288.2828369140625 160.35379028320312 287.10101318359375 C 166.22454833984375 285.919189453125 171.98574829101562 284.75927734375 177.637451171875 283.6212158203125 C 183.33294677734375 282.483154296875 188.61227416992188 281.4107666015625 193.475341796875 280.404052734375 C 198.38226318359375 279.3973388671875 202.50054931640625 278.565673828125 205.83023071289062 277.9090576171875 C 209.159912109375 277.208740234375 211.37240600585938 276.7491455078125 212.46768188476562 276.5302734375 C 213.38772583007812 276.355224609375 214.26397705078125 276.114501953125 215.09637451171875 275.80810546875 C 215.92880249023438 275.501708984375 216.520263671875 275.23907470703125 216.87075805664062 275.02020263671875 C 217.79080200195312 275.72052001953125 218.71084594726562 276.4208984375 219.63088989257812 277.1212158203125"/>
    <path stroke-width="0" fill="rgb(0, 0, 0)" opacity="1.0" d="M 287.9112854003906 293.53533935546875 C 292.1171875 295.986572265625 296.366943359375 298.5909423828125 300.66046142578125 301.3485107421875 C 304.9539794921875 304.1060791015625 309.18182373046875 306.9730224609375 313.34393310546875 309.949462890625 C 317.5060119628906 312.88214111328125 321.5147705078125 315.79296875 325.3702392578125 318.68182373046875 C 329.22564697265625 321.5706787109375 332.7962646484375 324.3939208984375 336.0821533203125 327.1514892578125 C 335.162109375 328.2020263671875 334.2420654296875 329.2525634765625 333.322021484375 330.30303955078125 C 330.29901123046875 327.63299560546875 326.85980224609375 324.80975341796875 323.00439453125 321.8333740234375 C 319.1927490234375 318.85693359375 315.162109375 315.8804931640625 310.912353515625 312.904052734375 C 306.66265869140625 309.88385009765625 302.3691101074219 306.951171875 298.03173828125 304.1060791015625 C 293.73822021484375 301.260986328125 289.5103759765625 298.56903076171875 285.3482971191406 296.0302734375 C 286.20263671875 295.19866943359375 287.05694580078125 294.36700439453125 287.9112854003906 293.53533935546875M 343.90252685546875 268.91412353515625 C 343.5958251953125 269.5269775390625 343.2891845703125 270.3148193359375 342.98248291015625 271.27777099609375 C 342.67578125 272.24072265625 342.434814453125 272.9410400390625 342.25958251953125 273.3787841796875 C 341.07666015625 278.062255859375 339.389892578125 283.0084228515625 337.1993408203125 288.2171630859375 C 335.05255126953125 293.4259033203125 332.4676513671875 298.5909423828125 329.4447021484375 303.712158203125 C 326.46551513671875 308.8333740234375 323.13580322265625 313.626220703125 319.45562744140625 318.0909423828125 C 313.97918701171875 324.744140625 306.9912109375 331.1346435546875 298.49176025390625 337.26263427734375 C 289.9923400878906 343.39056396484375 279.80615234375 348.599365234375 267.93316650390625 352.888916015625 C 266.81597900390625 351.83837890625 265.69879150390625 350.787841796875 264.58160400390625 349.73736572265625 C 271.46002197265625 347.723876953125 278.09747314453125 344.98822021484375 284.49395751953125 341.5302734375 C 290.89044189453125 338.02862548828125 296.82696533203125 334.0673828125 302.30340576171875 329.646484375 C 307.77984619140625 325.2255859375 312.4895935058594 320.629638671875 316.4326171875 315.85858154296875 C 320.11279296875 311.3939208984375 323.42059326171875 306.60101318359375 326.35595703125 301.47979736328125 C 329.33514404296875 296.35858154296875 331.89813232421875 291.2154541015625 334.044921875 286.050537109375 C 336.191650390625 280.885498046875 337.81268310546875 276.0269775390625 338.907958984375 271.4747314453125 C 321.952880859375 271.4747314453125 304.997802734375 271.4747314453125 288.042724609375 271.4747314453125 C 288.7875061035156 270.20538330078125 289.5323181152344 268.93603515625 290.277099609375 267.6666259765625 C 305.0416259765625 267.6666259765625 319.8061218261719 267.6666259765625 334.5706787109375 267.6666259765625 C 336.01641845703125 267.6666259765625 337.155517578125 267.60101318359375 337.9879150390625 267.4697265625 C 338.82037353515625 267.33837890625 339.54327392578125 267.1195068359375 340.1566162109375 266.8131103515625 C 341.4052734375 267.513427734375 342.65386962890625 268.21380615234375 343.90252685546875 268.91412353515625M 300.66046142578125 251.9090576171875 C 300.047119140625 253.00335693359375 299.4337158203125 254.1851806640625 298.82037353515625 255.45452880859375 C 298.20703125 256.723876953125 297.637451171875 257.8619384765625 297.1116943359375 258.86865234375 C 294.921142578125 262.983154296875 292.0295715332031 267.71044921875 288.43701171875 273.050537109375 C 284.8882751464844 278.39056396484375 280.46331787109375 283.8619384765625 275.162109375 289.46466064453125 C 269.86090087890625 295.0235595703125 263.50823974609375 300.3636474609375 256.10406494140625 305.48486328125 C 255.00875854492188 304.6531982421875 253.91348266601562 303.821533203125 252.81817626953125 302.9898681640625 C 259.871826171875 298.5252685546875 266.13690185546875 293.4915771484375 271.61334228515625 287.888916015625 C 277.0898132324219 282.242431640625 281.6681213378906 276.6834716796875 285.3482971191406 271.212158203125 C 289.0722961425781 265.74072265625 291.81048583984375 260.9915771484375 293.56298828125 256.96466064453125 C 293.9134521484375 256.30810546875 294.3515625 255.30133056640625 294.8773193359375 253.9444580078125 C 295.4468994140625 252.5875244140625 295.81927490234375 251.3619384765625 295.9945068359375 250.2677001953125 C 297.5498352050781 250.8148193359375 299.1051330566406 251.3619384765625 300.66046142578125 251.9090576171875"/>
    <path stroke-width="0" fill="rgb(0, 0, 0)" opacity="1.0" d="M 456.344970703125 253.287841796875 C 457.4403076171875 254.7322998046875 458.6231689453125 256.4613037109375 459.89373779296875 258.4747314453125 C 461.164306640625 260.48822021484375 462.4129638671875 262.54547119140625 463.6396484375 264.646484375 C 464.91015625 266.7474365234375 466.0054931640625 268.7171630859375 466.925537109375 270.5555419921875 C 465.7645263671875 271.146484375 464.603515625 271.73736572265625 463.4425048828125 272.3282470703125 C 462.25958251953125 269.8333740234375 460.6385498046875 266.90069580078125 458.57940673828125 263.5302734375 C 456.520263671875 260.159912109375 454.6363525390625 257.29296875 452.927734375 254.9293212890625 C 454.0667724609375 254.38214111328125 455.2059326171875 253.83502197265625 456.344970703125 253.287841796875M 469.09417724609375 248.888916015625 C 470.277099609375 250.4208984375 471.5257568359375 252.2154541015625 472.840087890625 254.272705078125 C 474.1982421875 256.3299560546875 475.53448486328125 258.38720703125 476.848876953125 260.4444580078125 C 478.1632080078125 262.501708984375 479.236572265625 264.3619384765625 480.0689697265625 266.0252685546875 C 478.8861083984375 266.61614990234375 477.703125 267.20703125 476.520263671875 267.7979736328125 C 475.1182861328125 264.952880859375 473.4315185546875 261.95452880859375 471.46002197265625 258.80303955078125 C 469.53228759765625 255.6514892578125 467.6484375 252.8939208984375 465.808349609375 250.5302734375 C 466.903564453125 249.983154296875 467.9989013671875 249.43603515625 469.09417724609375 248.888916015625M 421.77764892578125 254.33837890625 C 421.69000244140625 255.6514892578125 421.6024169921875 257.1397705078125 421.5147705078125 258.80303955078125 C 421.4271240234375 260.42254638671875 421.33953857421875 261.998291015625 421.251953125 263.5302734375 C 420.85760498046875 276.70538330078125 419.6090087890625 288.0858154296875 417.5059814453125 297.6717529296875 C 415.403076171875 307.257568359375 412.57720947265625 315.486572265625 409.0284423828125 322.35858154296875 C 405.479736328125 329.1868896484375 401.38330078125 335.0302734375 396.73931884765625 339.888916015625 C 392.13909912109375 344.7037353515625 387.10076904296875 348.949462890625 381.624267578125 352.626220703125 C 380.41949462890625 351.6195068359375 379.21466064453125 350.61279296875 378.0098876953125 349.6060791015625 C 379.41180419921875 348.949462890625 380.9671630859375 347.986572265625 382.67578125 346.7171630859375 C 384.42822265625 345.44781494140625 385.93975830078125 344.30975341796875 387.2103271484375 343.30303955078125 C 390.97808837890625 340.2828369140625 394.6363525390625 336.58416748046875 398.18505859375 332.20703125 C 401.73382568359375 327.8299560546875 404.93206787109375 322.53369140625 407.77984619140625 316.31817626953125 C 410.6275634765625 310.1026611328125 412.927734375 302.6834716796875 414.68017578125 294.06060791015625 C 416.4764404296875 285.3939208984375 417.41839599609375 275.26092529296875 417.5059814453125 263.66162109375 C 417.5059814453125 262.6549072265625 417.484130859375 261.62628173828125 417.4403076171875 260.57574462890625 C 417.396484375 259.5252685546875 417.330810546875 258.452880859375 417.2431640625 257.35858154296875 C 417.155517578125 256.2642822265625 417.0240478515625 255.257568359375 416.848876953125 254.33837890625 C 418.4918212890625 254.33837890625 420.13470458984375 254.33837890625 421.77764892578125 254.33837890625M 466.66265869140625 279.68182373046875 C 466.53125 280.776123046875 466.42169189453125 281.76092529296875 466.33404541015625 282.6363525390625 C 466.2464599609375 283.51177978515625 466.1588134765625 284.4090576171875 466.0711669921875 285.3282470703125 C 465.9835205078125 287.4293212890625 465.85211181640625 290.47137451171875 465.6768798828125 294.45452880859375 C 465.50164794921875 298.437744140625 465.21685791015625 302.8804931640625 464.82257080078125 307.7828369140625 C 464.4720458984375 312.64141845703125 463.9901123046875 317.5218505859375 463.37677001953125 322.42425537109375 C 462.8072509765625 327.2828369140625 462.106201171875 331.7474365234375 461.2738037109375 335.81817626953125 C 460.44140625 339.888916015625 459.4337158203125 343.062255859375 458.2508544921875 345.33837890625 C 457.06787109375 347.5269775390625 455.62213134765625 349.01513671875 453.9134521484375 349.80303955078125 C 452.2486572265625 350.5909423828125 450.0799560546875 350.98486328125 447.407470703125 350.98486328125 C 444.69110107421875 350.98486328125 441.6024169921875 350.919189453125 438.14129638671875 350.787841796875 C 434.7239990234375 350.7003173828125 431.2847900390625 350.56903076171875 427.8236083984375 350.3939208984375 C 427.6484375 348.9932861328125 427.47314453125 347.59259033203125 427.29791259765625 346.19189453125 C 431.0218505859375 346.5421142578125 434.5487060546875 346.82659912109375 437.87841796875 347.04541015625 C 441.2081298828125 347.2642822265625 444.29681396484375 347.373779296875 447.14453125 347.373779296875 C 448.7218017578125 347.373779296875 450.189453125 347.13299560546875 451.547607421875 346.6514892578125 C 452.90576171875 346.126220703125 453.957275390625 345.09765625 454.70208740234375 343.565673828125 C 455.885009765625 341.28955078125 456.8927001953125 338.159912109375 457.72509765625 334.1767578125 C 458.5574951171875 330.193603515625 459.25848388671875 325.772705078125 459.8280029296875 320.9141845703125 C 460.44140625 316.01177978515625 460.92333984375 311.10943603515625 461.2738037109375 306.20703125 C 461.62432861328125 301.260986328125 461.8433837890625 296.6868896484375 461.9310302734375 292.48486328125 C 462.06243896484375 288.239013671875 462.128173828125 284.75927734375 462.128173828125 282.04547119140625 C 438.33843994140625 282.04547119140625 414.5487060546875 282.04547119140625 390.759033203125 282.04547119140625 C 387.867431640625 282.04547119140625 385.5235595703125 282.0673828125 383.727294921875 282.111083984375 C 381.93096923828125 282.1549072265625 380.11279296875 282.2642822265625 378.272705078125 282.43939208984375 C 378.272705078125 280.885498046875 378.272705078125 279.3316650390625 378.272705078125 277.77777099609375 C 380.02520751953125 277.8653564453125 381.9090576171875 277.9747314453125 383.9244384765625 278.1060791015625 C 385.93975830078125 278.23736572265625 388.17413330078125 278.30303955078125 390.6275634765625 278.30303955078125 C 412.7086181640625 278.30303955078125 434.7896728515625 278.30303955078125 456.8707275390625 278.30303955078125 C 458.6231689453125 278.30303955078125 459.98138427734375 278.25927734375 460.9451904296875 278.1717529296875 C 461.9090576171875 278.08416748046875 462.69769287109375 277.99664306640625 463.31103515625 277.9090576171875 C 464.42822265625 278.5 465.54541015625 279.0909423828125 466.66265869140625 279.68182373046875"/>
  </g>
</svg>
