<?xml version="1.0" encoding="utf-8"?>
<svg xmlns="http://www.w3.org/2000/svg" xmlns:ev="http://www.w3.org/2001/xml-events" xmlns:xlink="http://www.w3.org/1999/xlink" version="1.1" baseProfile="full" width="20873.0" height="1742.0" viewBox="84.0 -1596.0 20873.0 1742.0">
<defs/>
<g><path d="M 2511.000000 -924.000000 C 2915.000000 -972.000000 3319.000000 -1020.000000 3723.000000 -1068.000000 C 3726.000000 -1050.000000 3729.000000 -1032.000000 3732.000000 -1014.000000 C 3327.666667 -966.666667 2923.333333 -919.333333 2519.000000 -872.000000 C 2516.333333 -889.333333 2513.666667 -906.666667 2511.000000 -924.000000z M 3289.000000 -1498.000000 C 3301.000000 -1508.000000 3313.000000 -1518.000000 3325.000000 -1528.000000 C 3369.000000 -1497.333333 3414.000000 -1463.333333 3460.000000 -1426.000000 C 3506.000000 -1389.333333 3548.666667 -1352.666667 3588.000000 -1316.000000 C 3628.000000 -1279.333333 3660.666667 -1247.000000 3686.000000 -1219.000000 C 3673.333333 -1207.666667 3660.666667 -1196.333333 3648.000000 -1185.000000 C 3622.666667 -1213.000000 3590.000000 -1245.000000 3550.000000 -1281.000000 C 3510.666667 -1317.666667 3468.000000 -1355.333333 3422.000000 -1394.000000 C 3376.666667 -1432.666667 3332.333333 -1467.333333 3289.000000 -1498.000000z M 2575.000000 -1571.000000 C 2592.666667 -1565.666667 2610.333333 -1560.333333 2628.000000 -1555.000000 C 2580.000000 -1443.666667 2524.000000 -1336.333333 2460.000000 -1233.000000 C 2396.000000 -1130.333333 2326.666667 -1034.333333 2252.000000 -945.000000 C 2178.000000 -856.333333 2101.333333 -777.333333 2022.000000 -708.000000 C 2019.333333 -712.000000 2015.333333 -717.000000 2010.000000 -723.000000 C 2005.333333 -729.000000 2000.333333 -734.666667 1995.000000 -740.000000 C 1989.666667 -746.000000 1985.000000 -750.333333 1981.000000 -753.000000 C 2060.333333 -818.333333 2136.666667 -894.000000 2210.000000 -980.000000 C 2284.000000 -1066.666667 2352.000000 -1160.000000 2414.000000 -1260.000000 C 2476.666667 -1360.666667 2530.333333 -1464.333333 2575.000000 -1571.000000z M 2339.000000 -1098.000000 C 2357.333333 -1116.666667 2375.666667 -1135.333333 2394.000000 -1154.000000 C 2394.000000 -1153.333333 2394.000000 -1152.666667 2394.000000 -1152.000000 C 2394.000000 -724.000000 2394.000000 -296.000000 2394.000000 132.000000 C 2375.666667 132.000000 2357.333333 132.000000 2339.000000 132.000000 C 2339.000000 -278.000000 2339.000000 -688.000000 2339.000000 -1098.000000z M 3012.000000 -1569.000000 C 3030.666667 -1569.000000 3049.333333 -1569.000000 3068.000000 -1569.000000 C 3078.666667 -1342.333333 3096.666667 -1130.666667 3122.000000 -934.000000 C 3147.333333 -737.333333 3181.333333 -564.333333 3224.000000 -415.000000 C 3267.333333 -266.333333 3321.000000 -149.000000 3385.000000 -63.000000 C 3449.000000 22.333333 3524.000000 68.333333 3610.000000 75.000000 C 3643.333333 76.333333 3669.666667 46.000000 3689.000000 -16.000000 C 3709.000000 -78.000000 3725.333333 -168.000000 3738.000000 -286.000000 C 3743.333333 -283.333333 3748.666667 -280.333333 3754.000000 -277.000000 C 3760.000000 -274.333333 3766.000000 -271.666667 3772.000000 -269.000000 C 3778.666667 -266.333333 3784.000000 -264.333333 3788.000000 -263.000000 C 3778.000000 -165.666667 3765.000000 -87.333333 3749.000000 -28.000000 C 3733.000000 31.333333 3713.666667 73.666667 3691.000000 99.000000 C 3669.000000 125.000000 3642.000000 137.333333 3610.000000 136.000000 C 3528.000000 132.666667 3456.000000 100.666667 3394.000000 40.000000 C 3332.666667 -20.000000 3280.000000 -102.333333 3236.000000 -207.000000 C 3192.000000 -312.333333 3155.333333 -435.666667 3126.000000 -577.000000 C 3096.666667 -718.333333 3073.000000 -873.000000 3055.000000 -1041.000000 C 3037.000000 -1209.666667 3022.666667 -1385.666667 3012.000000 -1569.000000z "/>
</g></svg>
