<?xml version="1.0" ?>
<svg xmlns="http://www.w3.org/2000/svg" version="1.1" width="600" height="600">
  <defs/>
  <g>
    <path stroke-width="0" fill="rgb(0, 0, 0)" opacity="1.0" d="M 193.20703125 237.91085815429688 C 261.16845703125 237.91085815429688 329.1298828125 237.91085815429688 397.09130859375 237.91085815429688 C 397.09130859375 241.775146484375 397.09130859375 245.63943481445312 397.09130859375 249.50372314453125 C 329.1298828125 249.50372314453125 261.16845703125 249.50372314453125 193.20703125 249.50372314453125 C 193.20703125 245.63943481445312 193.20703125 241.775146484375 193.20703125 237.91085815429688M 132.14501953125 338.9344482421875 C 244.333251953125 338.9344482421875 356.521484375 338.9344482421875 468.709716796875 338.9344482421875 C 468.709716796875 342.7987060546875 468.709716796875 346.66302490234375 468.709716796875 350.52734375 C 356.521484375 350.52734375 244.333251953125 350.52734375 132.14501953125 350.52734375 C 132.14501953125 346.66302490234375 132.14501953125 342.7987060546875 132.14501953125 338.9344482421875M 295.045654296875 304.7768859863281 C 299.04736328125 304.7768859863281 303.04931640625 304.7768859863281 307.051025390625 304.7768859863281 C 307.051025390625 356.94482421875 307.051025390625 409.1126708984375 307.051025390625 461.2806396484375 C 307.051025390625 466.386962890625 306.0849609375 470.1822509765625 304.153076171875 472.66650390625 C 302.359130859375 475.150634765625 299.185546875 477.082763671875 294.631591796875 478.462890625 C 290.353759765625 479.5670166015625 283.6611328125 480.1190185546875 274.5537109375 480.1190185546875 C 265.4462890625 480.257080078125 252.267822265625 480.3260498046875 235.018798828125 480.3260498046875 C 234.742919921875 479.3599853515625 234.259765625 478.255859375 233.56982421875 477.0137939453125 C 233.017822265625 475.90972900390625 232.396728515625 474.6676025390625 231.70703125 473.28753662109375 C 231.01708984375 471.90740966796875 230.258056640625 470.73431396484375 229.43017578125 469.76824951171875 C 239.2275390625 469.76824951171875 247.990234375 469.8372802734375 255.7177734375 469.97528076171875 C 263.583251953125 470.11328125 270.137939453125 470.11328125 275.381591796875 469.97528076171875 C 280.763427734375 469.8372802734375 284.55810546875 469.76824951171875 286.76611328125 469.76824951171875 C 289.93994140625 469.49224853515625 292.078857421875 468.733154296875 293.182861328125 467.4910888671875 C 294.4248046875 466.2490234375 295.045654296875 464.31683349609375 295.045654296875 461.69464111328125 C 295.045654296875 409.38873291015625 295.045654296875 357.082763671875 295.045654296875 304.7768859863281M 393.986572265625 237.91085815429688 C 394.88330078125 237.91085815429688 395.780517578125 237.91085815429688 396.677490234375 237.91085815429688 C 397.643310546875 237.63482666015625 398.609130859375 237.35882568359375 399.5751953125 237.08282470703125 C 402.3349609375 239.08392333984375 405.094970703125 241.0850830078125 407.854736328125 243.08624267578125 C 399.1611328125 252.33294677734375 388.949951171875 261.6486511230469 377.220458984375 271.0333557128906 C 365.62890625 280.280029296875 353.5546875 288.9747009277344 340.997314453125 297.1173095703125 C 328.577880859375 305.1219482421875 316.710693359375 312.0224609375 305.39501953125 317.81884765625 C 304.567138671875 316.5767822265625 303.3251953125 315.1966552734375 301.66943359375 313.67852783203125 C 300.1513671875 312.16046142578125 298.70263671875 311.05633544921875 297.322509765625 310.3663330078125 C 308.77587890625 304.7078857421875 320.50537109375 298.0143737792969 332.5107421875 290.2857971191406 C 344.654052734375 282.419189453125 356.03857421875 274.20758056640625 366.663818359375 265.65093994140625 C 377.427490234375 256.956298828125 386.534912109375 248.6756591796875 393.986572265625 240.80908203125 C 393.986572265625 239.843017578125 393.986572265625 238.87692260742188 393.986572265625 237.91085815429688M 293.3896484375 121.56814575195312 C 297.391357421875 121.56814575195312 301.393310546875 121.56814575195312 305.39501953125 121.56814575195312 C 305.39501953125 140.19952392578125 305.39501953125 158.8309326171875 305.39501953125 177.46234130859375 C 301.393310546875 177.46234130859375 297.391357421875 177.46234130859375 293.3896484375 177.46234130859375 C 293.3896484375 158.8309326171875 293.3896484375 140.19952392578125 293.3896484375 121.56814575195312M 138.14794921875 170.83782958984375 C 246.05810546875 170.83782958984375 353.96875 170.83782958984375 461.87890625 170.83782958984375 C 461.87890625 198.784912109375 461.87890625 226.73202514648438 461.87890625 254.67913818359375 C 457.9462890625 254.67913818359375 454.013427734375 254.67913818359375 450.08056640625 254.67913818359375 C 450.08056640625 230.66534423828125 450.08056640625 206.65151977539062 450.08056640625 182.63772583007812 C 350.035888671875 182.63772583007812 249.990966796875 182.63772583007812 149.9462890625 182.63772583007812 C 149.9462890625 206.65151977539062 149.9462890625 230.66534423828125 149.9462890625 254.67913818359375 C 146.013427734375 254.67913818359375 142.08056640625 254.67913818359375 138.14794921875 254.67913818359375 C 138.14794921875 226.73202514648438 138.14794921875 198.784912109375 138.14794921875 170.83782958984375"/>
  </g>
</svg>
