<?xml version="1.0" ?>
<svg xmlns="http://www.w3.org/2000/svg" version="1.1" width="600" height="600">
  <defs/>
  <g>
    <path stroke-width="0" fill="rgb(0, 0, 0)" opacity="1.0" d="M 167.509765625 136.37838745117188 C 171.22607421875 136.37838745117188 174.94189453125 136.37838745117188 178.65771484375 136.37838745117188 C 178.65771484375 171.24325561523438 178.65771484375 206.10809326171875 178.65771484375 240.97296142578125 C 178.65771484375 257.3243408203125 178.18505859375 275.16217041015625 177.2392578125 294.4864501953125 C 176.42822265625 313.6756591796875 174.5361328125 333.270263671875 171.5634765625 353.270263671875 C 168.5908203125 373.1351318359375 164.1318359375 392.66217041015625 158.185546875 411.851318359375 C 152.37548828125 431.04052734375 144.53759765625 448.9459228515625 134.67333984375 465.56756591796875 C 134.267578125 464.89190673828125 133.38916015625 464.148681640625 132.0380859375 463.33782958984375 C 130.68701171875 462.52703857421875 129.40283203125 461.7838134765625 128.18701171875 461.10809326171875 C 127.10595703125 460.43243408203125 126.02490234375 460.02703857421875 124.94384765625 459.89190673828125 C 134.67333984375 443.54052734375 142.37548828125 425.97296142578125 148.05078125 407.189208984375 C 153.7265625 388.270263671875 157.91552734375 369.148681640625 160.6181640625 349.8243408203125 C 163.32080078125 330.5 165.14501953125 311.5810546875 166.0908203125 293.06756591796875 C 167.03662109375 274.5540771484375 167.509765625 257.189208984375 167.509765625 240.97296142578125 C 167.509765625 206.10809326171875 167.509765625 171.24325561523438 167.509765625 136.37838745117188M 172.982421875 136.37838745117188 C 264.53271484375 136.37838745117188 356.08349609375 136.37838745117188 447.63427734375 136.37838745117188 C 447.63427734375 163.0 447.63427734375 189.62161254882812 447.63427734375 216.24322509765625 C 356.08349609375 216.24322509765625 264.53271484375 216.24322509765625 172.982421875 216.24322509765625 C 172.982421875 212.45947265625 172.982421875 208.6756591796875 172.982421875 204.89190673828125 C 260.74951171875 204.89190673828125 348.51611328125 204.89190673828125 436.283203125 204.89190673828125 C 436.283203125 185.83782958984375 436.283203125 166.78378295898438 436.283203125 147.729736328125 C 348.51611328125 147.729736328125 260.74951171875 147.729736328125 172.982421875 147.729736328125 C 172.982421875 143.94595336914062 172.982421875 140.16217041015625 172.982421875 136.37838745117188M 188.79248046875 250.5 C 279.3974609375 250.5 370.001953125 250.5 460.6064453125 250.5 C 460.6064453125 254.21621704101562 460.6064453125 257.93243408203125 460.6064453125 261.6486511230469 C 370.001953125 261.6486511230469 279.3974609375 261.6486511230469 188.79248046875 261.6486511230469 C 188.79248046875 257.93243408203125 188.79248046875 254.21621704101562 188.79248046875 250.5M 205.6162109375 371.9189453125 C 284.73486328125 371.9189453125 363.853515625 371.9189453125 442.97216796875 371.9189453125 C 442.97216796875 375.770263671875 442.97216796875 379.62158203125 442.97216796875 383.47296142578125 C 363.853515625 383.47296142578125 284.73486328125 383.47296142578125 205.6162109375 383.47296142578125 C 205.6162109375 379.62158203125 205.6162109375 375.770263671875 205.6162109375 371.9189453125M 172.982421875 441.04052734375 C 273.7216796875 441.04052734375 374.46142578125 441.04052734375 475.20068359375 441.04052734375 C 475.20068359375 444.8243408203125 475.20068359375 448.60809326171875 475.20068359375 452.39190673828125 C 374.46142578125 452.39190673828125 273.7216796875 452.39190673828125 172.982421875 452.39190673828125 C 172.982421875 448.60809326171875 172.982421875 444.8243408203125 172.982421875 441.04052734375M 315.2744140625 327.52703857421875 C 319.193359375 327.52703857421875 323.11181640625 327.52703857421875 327.03076171875 327.52703857421875 C 327.03076171875 367.45947265625 327.03076171875 407.39190673828125 327.03076171875 447.3243408203125 C 323.11181640625 447.3243408203125 319.193359375 447.3243408203125 315.2744140625 447.3243408203125 C 315.2744140625 407.39190673828125 315.2744140625 367.45947265625 315.2744140625 327.52703857421875M 195.4814453125 321.648681640625 C 213.31884765625 321.10809326171875 234.39892578125 320.5 258.72265625 319.8243408203125 C 283.1806640625 319.0135498046875 309.53125 318.06756591796875 337.7734375 316.9864501953125 C 366.15087890625 315.9053955078125 394.595703125 314.75677490234375 423.10791015625 313.54052734375 C 422.837890625 317.12164306640625 422.56787109375 320.70269775390625 422.29736328125 324.2838134765625 C 395.13623046875 325.6351318359375 367.7724609375 326.9189453125 340.2060546875 328.1351318359375 C 312.7744140625 329.2161865234375 286.76220703125 330.16217041015625 262.16845703125 330.97296142578125 C 237.7099609375 331.7838134765625 216.15673828125 332.5946044921875 197.5087890625 333.4053955078125 C 196.8330078125 329.4864501953125 196.1572265625 325.56756591796875 195.4814453125 321.648681640625M 283.8564453125 251.91891479492188 C 287.5048828125 253.33782958984375 291.15380859375 254.75677490234375 294.80224609375 256.1756591796875 C 288.31591796875 268.20269775390625 280.74853515625 281.10809326171875 272.10009765625 294.89190673828125 C 263.5869140625 308.54052734375 255.546875 320.16217041015625 247.9794921875 329.75677490234375 C 244.87158203125 328.33782958984375 241.763671875 326.9189453125 238.65576171875 325.5 C 243.92578125 319.0135498046875 249.33056640625 311.4459228515625 254.87109375 302.79730224609375 C 260.41162109375 294.0135498046875 265.7490234375 285.0946044921875 270.88427734375 276.04052734375 C 276.154296875 266.9864807128906 280.478515625 258.9459533691406 283.8564453125 251.91891479492188M 357.43505859375 280.70269775390625 C 360.00244140625 278.4053955078125 362.56982421875 276.10809326171875 365.13720703125 273.810791015625 C 376.0830078125 279.75677490234375 387.09619140625 286.5135192871094 398.1767578125 294.0810546875 C 409.392578125 301.5135498046875 419.79736328125 309.148681640625 429.3916015625 316.9864501953125 C 438.98583984375 324.689208984375 446.755859375 331.9189453125 452.70166015625 338.6756591796875 C 450.13427734375 341.4459228515625 447.56640625 344.2161865234375 444.9990234375 346.9864501953125 C 439.05322265625 340.229736328125 431.2158203125 332.8648681640625 421.486328125 324.89190673828125 C 411.89208984375 316.7838134765625 401.4873046875 308.87835693359375 390.271484375 301.1756591796875 C 379.19091796875 293.47296142578125 368.24560546875 286.6486511230469 357.43505859375 280.70269775390625"/>
  </g>
</svg>
