<?xml version="1.0" encoding="utf-8"?>
<svg xmlns="http://www.w3.org/2000/svg" xmlns:ev="http://www.w3.org/2001/xml-events" xmlns:xlink="http://www.w3.org/1999/xlink" version="1.1" baseProfile="full" width="30496.0" height="1753.0" viewBox="136.0 -1597.0 30496.0 1753.0">
<defs/>
<g><path d="M 5063.000000 -1596.000000 C 5082.333333 -1596.000000 5101.666667 -1596.000000 5121.000000 -1596.000000 C 5121.000000 -1480.000000 5121.000000 -1364.000000 5121.000000 -1248.000000 C 5101.666667 -1248.000000 5082.333333 -1248.000000 5063.000000 -1248.000000 C 5063.000000 -1364.000000 5063.000000 -1480.000000 5063.000000 -1596.000000z M 5063.000000 -687.000000 C 5082.333333 -687.000000 5101.666667 -687.000000 5121.000000 -687.000000 C 5121.000000 -413.333333 5121.000000 -139.666667 5121.000000 134.000000 C 5101.666667 134.000000 5082.333333 134.000000 5063.000000 134.000000 C 5063.000000 -139.666667 5063.000000 -413.333333 5063.000000 -687.000000z M 4564.000000 -1286.000000 C 4920.333333 -1286.000000 5276.666667 -1286.000000 5633.000000 -1286.000000 C 5633.000000 -1183.000000 5633.000000 -1080.000000 5633.000000 -977.000000 C 5614.666667 -977.000000 5596.333333 -977.000000 5578.000000 -977.000000 C 5578.000000 -1061.000000 5578.000000 -1145.000000 5578.000000 -1229.000000 C 5258.666667 -1229.000000 4939.333333 -1229.000000 4620.000000 -1229.000000 C 4620.000000 -1145.000000 4620.000000 -1061.000000 4620.000000 -977.000000 C 4601.333333 -977.000000 4582.666667 -977.000000 4564.000000 -977.000000 C 4564.000000 -1080.000000 4564.000000 -1183.000000 4564.000000 -1286.000000z M 4792.000000 -987.000000 C 4792.000000 -898.000000 4792.000000 -809.000000 4792.000000 -720.000000 C 4998.333333 -720.000000 5204.666667 -720.000000 5411.000000 -720.000000 C 5411.000000 -809.000000 5411.000000 -898.000000 5411.000000 -987.000000 C 5204.666667 -987.000000 4998.333333 -987.000000 4792.000000 -987.000000z M 4737.000000 -1043.000000 C 4980.000000 -1043.000000 5223.000000 -1043.000000 5466.000000 -1043.000000 C 5466.000000 -916.000000 5466.000000 -789.000000 5466.000000 -662.000000 C 5223.000000 -662.000000 4980.000000 -662.000000 4737.000000 -662.000000 C 4737.000000 -789.000000 4737.000000 -916.000000 4737.000000 -1043.000000z M 4643.000000 -482.000000 C 4934.666667 -482.000000 5226.333333 -482.000000 5518.000000 -482.000000 C 5518.000000 -463.333333 5518.000000 -444.666667 5518.000000 -426.000000 C 5244.666667 -426.000000 4971.333333 -426.000000 4698.000000 -426.000000 C 4698.000000 -279.666667 4698.000000 -133.333333 4698.000000 13.000000 C 4679.666667 13.000000 4661.333333 13.000000 4643.000000 13.000000 C 4643.000000 -152.000000 4643.000000 -317.000000 4643.000000 -482.000000z M 5501.000000 -482.000000 C 5519.333333 -482.000000 5537.666667 -482.000000 5556.000000 -482.000000 C 5556.000000 -341.666667 5556.000000 -201.333333 5556.000000 -61.000000 C 5556.000000 -43.666667 5553.333333 -29.666667 5548.000000 -19.000000 C 5543.333333 -9.000000 5532.666667 -0.666667 5516.000000 6.000000 C 5500.666667 10.666667 5478.000000 13.666667 5448.000000 15.000000 C 5418.000000 16.333333 5378.666667 17.000000 5330.000000 17.000000 C 5328.666667 8.333333 5326.000000 -0.666667 5322.000000 -10.000000 C 5318.000000 -20.000000 5313.666667 -29.333333 5309.000000 -38.000000 C 5352.333333 -36.666667 5388.333333 -36.000000 5417.000000 -36.000000 C 5445.666667 -36.000000 5465.333333 -36.000000 5476.000000 -36.000000 C 5486.000000 -37.333333 5492.666667 -39.666667 5496.000000 -43.000000 C 5499.333333 -46.333333 5501.000000 -52.333333 5501.000000 -61.000000 C 5501.000000 -201.333333 5501.000000 -341.666667 5501.000000 -482.000000z M 4671.000000 -1549.000000 C 4687.000000 -1555.666667 4703.000000 -1562.333333 4719.000000 -1569.000000 C 4747.666667 -1529.000000 4774.333333 -1486.333333 4799.000000 -1441.000000 C 4823.666667 -1395.666667 4841.333333 -1356.333333 4852.000000 -1323.000000 C 4834.666667 -1315.333333 4817.333333 -1307.666667 4800.000000 -1300.000000 C 4788.666667 -1334.666667 4771.000000 -1375.333333 4747.000000 -1422.000000 C 4723.666667 -1468.666667 4698.333333 -1511.000000 4671.000000 -1549.000000z M 5459.000000 -1567.000000 C 5476.000000 -1559.333333 5493.000000 -1551.666667 5510.000000 -1544.000000 C 5486.000000 -1500.000000 5459.666667 -1455.666667 5431.000000 -1411.000000 C 5402.333333 -1366.333333 5375.000000 -1326.666667 5349.000000 -1292.000000 C 5334.333333 -1299.000000 5319.666667 -1306.000000 5305.000000 -1313.000000 C 5330.333333 -1346.333333 5357.666667 -1387.666667 5387.000000 -1437.000000 C 5417.000000 -1486.333333 5441.000000 -1529.666667 5459.000000 -1567.000000z M 3934.000000 -1185.000000 C 4106.666667 -1185.000000 4279.333333 -1185.000000 4452.000000 -1185.000000 C 4452.000000 -1165.666667 4452.000000 -1146.333333 4452.000000 -1127.000000 C 4279.333333 -1127.000000 4106.666667 -1127.000000 3934.000000 -1127.000000 C 3934.000000 -1146.333333 3934.000000 -1165.666667 3934.000000 -1185.000000z M 4188.000000 -1594.000000 C 4207.000000 -1591.333333 4226.000000 -1588.666667 4245.000000 -1586.000000 C 4229.666667 -1496.666667 4212.333333 -1399.333333 4193.000000 -1294.000000 C 4173.666667 -1189.333333 4153.000000 -1083.000000 4131.000000 -975.000000 C 4109.666667 -867.666667 4088.333333 -765.666667 4067.000000 -669.000000 C 4046.333333 -572.333333 4027.000000 -487.666667 4009.000000 -415.000000 C 3990.333333 -423.333333 3971.666667 -431.666667 3953.000000 -440.000000 C 3971.000000 -510.000000 3990.666667 -593.000000 4012.000000 -689.000000 C 4033.333333 -785.000000 4054.333333 -886.000000 4075.000000 -992.000000 C 4096.333333 -1098.666667 4116.333333 -1203.666667 4135.000000 -1307.000000 C 4154.333333 -1411.000000 4172.000000 -1506.666667 4188.000000 -1594.000000z M 3997.000000 -536.000000 C 4009.333333 -549.333333 4021.666667 -562.666667 4034.000000 -576.000000 C 4102.000000 -532.666667 4169.666667 -483.333333 4237.000000 -428.000000 C 4305.000000 -373.333333 4367.000000 -318.000000 4423.000000 -262.000000 C 4479.666667 -206.666667 4524.000000 -155.333333 4556.000000 -108.000000 C 4542.666667 -93.000000 4529.333333 -78.000000 4516.000000 -63.000000 C 4484.000000 -110.333333 4439.666667 -162.000000 4383.000000 -218.000000 C 4327.000000 -274.666667 4265.333333 -330.666667 4198.000000 -386.000000 C 4130.666667 -442.000000 4063.666667 -492.000000 3997.000000 -536.000000z M 4433.000000 -1185.000000 C 4437.000000 -1185.000000 4441.000000 -1185.000000 4445.000000 -1185.000000 C 4448.666667 -1186.000000 4452.333333 -1187.000000 4456.000000 -1188.000000 C 4467.666667 -1185.000000 4479.333333 -1182.000000 4491.000000 -1179.000000 C 4477.000000 -935.666667 4448.333333 -728.000000 4405.000000 -556.000000 C 4362.333333 -384.000000 4306.333333 -242.000000 4237.000000 -130.000000 C 4168.333333 -18.000000 4087.333333 70.666667 3994.000000 136.000000 C 3988.666667 130.000000 3982.000000 122.000000 3974.000000 112.000000 C 3966.666667 102.666667 3958.333333 94.666667 3949.000000 88.000000 C 4037.666667 30.666667 4115.666667 -52.333333 4183.000000 -161.000000 C 4251.000000 -269.666667 4306.333333 -407.000000 4349.000000 -573.000000 C 4392.333333 -739.000000 4420.333333 -937.000000 4433.000000 -1167.000000 C 4433.000000 -1173.000000 4433.000000 -1179.000000 4433.000000 -1185.000000z "/>
</g></svg>
