<?xml version="1.0" encoding="utf-8"?>
<svg xmlns="http://www.w3.org/2000/svg" xmlns:ev="http://www.w3.org/2001/xml-events" xmlns:xlink="http://www.w3.org/1999/xlink" version="1.1" baseProfile="full" width="17092.0" height="1734.0" viewBox="113.0 -1596.0 17092.0 1734.0">
<defs/>
<g><path d="M 6931.000000 -691.000000 C 6949.666667 -691.000000 6968.333333 -691.000000 6987.000000 -691.000000 C 6987.000000 -462.666667 6987.000000 -234.333333 6987.000000 -6.000000 C 6987.000000 20.000000 6993.666667 37.333333 7007.000000 46.000000 C 7020.333333 55.333333 7048.666667 60.000000 7092.000000 60.000000 C 7102.666667 60.000000 7122.333333 60.000000 7151.000000 60.000000 C 7179.666667 60.000000 7211.666667 60.000000 7247.000000 60.000000 C 7282.333333 60.000000 7315.333333 60.000000 7346.000000 60.000000 C 7376.666667 60.000000 7399.000000 60.000000 7413.000000 60.000000 C 7443.666667 60.000000 7466.333333 51.666667 7481.000000 35.000000 C 7495.666667 18.333333 7506.000000 -15.666667 7512.000000 -67.000000 C 7518.000000 -118.333333 7522.000000 -195.333333 7524.000000 -298.000000 C 7529.333333 -294.000000 7535.000000 -290.000000 7541.000000 -286.000000 C 7547.666667 -282.000000 7554.333333 -278.666667 7561.000000 -276.000000 C 7568.333333 -274.000000 7574.666667 -271.666667 7580.000000 -269.000000 C 7577.333333 -166.333333 7571.666667 -86.666667 7563.000000 -30.000000 C 7555.000000 26.000000 7539.666667 64.333333 7517.000000 85.000000 C 7495.000000 106.333333 7461.000000 117.000000 7415.000000 117.000000 C 7407.666667 117.000000 7388.333333 117.000000 7357.000000 117.000000 C 7326.333333 117.000000 7292.000000 117.000000 7254.000000 117.000000 C 7216.666667 117.000000 7182.666667 117.000000 7152.000000 117.000000 C 7121.333333 117.000000 7102.000000 117.000000 7094.000000 117.000000 C 7052.000000 117.000000 7019.000000 113.666667 6995.000000 107.000000 C 6971.666667 101.000000 6955.000000 89.000000 6945.000000 71.000000 C 6935.666667 53.000000 6931.000000 26.666667 6931.000000 -8.000000 C 6931.000000 -235.666667 6931.000000 -463.333333 6931.000000 -691.000000z M 6447.000000 -678.000000 C 6466.333333 -678.000000 6485.666667 -678.000000 6505.000000 -678.000000 C 6496.333333 -569.333333 6481.333333 -471.666667 6460.000000 -385.000000 C 6438.666667 -298.333333 6406.333333 -222.333333 6363.000000 -157.000000 C 6319.666667 -92.333333 6261.000000 -36.666667 6187.000000 10.000000 C 6113.666667 57.333333 6020.666667 96.333333 5908.000000 127.000000 C 5906.666667 123.000000 5903.666667 118.000000 5899.000000 112.000000 C 5894.333333 106.666667 5889.666667 101.333333 5885.000000 96.000000 C 5881.000000 90.666667 5876.333333 86.333333 5871.000000 83.000000 C 5982.333333 54.333333 6073.666667 18.000000 6145.000000 -26.000000 C 6216.333333 -70.000000 6272.666667 -123.000000 6314.000000 -185.000000 C 6355.333333 -247.000000 6386.000000 -319.000000 6406.000000 -401.000000 C 6426.000000 -483.000000 6439.666667 -575.333333 6447.000000 -678.000000z M 6924.000000 -1139.000000 C 6937.333333 -1149.666667 6950.666667 -1160.333333 6964.000000 -1171.000000 C 7034.000000 -1123.666667 7105.000000 -1070.333333 7177.000000 -1011.000000 C 7249.666667 -951.666667 7316.666667 -892.333333 7378.000000 -833.000000 C 7440.000000 -774.333333 7489.333333 -720.666667 7526.000000 -672.000000 C 7511.333333 -659.333333 7496.666667 -646.666667 7482.000000 -634.000000 C 7446.000000 -683.333333 7397.666667 -738.000000 7337.000000 -798.000000 C 7276.333333 -858.666667 7210.000000 -918.666667 7138.000000 -978.000000 C 7066.666667 -1038.000000 6995.333333 -1091.666667 6924.000000 -1139.000000z M 6515.000000 -1315.000000 C 6532.666667 -1306.666667 6550.333333 -1298.333333 6568.000000 -1290.000000 C 6541.333333 -1235.333333 6511.666667 -1176.666667 6479.000000 -1114.000000 C 6446.333333 -1051.333333 6413.333333 -990.666667 6380.000000 -932.000000 C 6346.666667 -874.000000 6314.666667 -822.666667 6284.000000 -778.000000 C 6269.333333 -785.666667 6254.666667 -793.333333 6240.000000 -801.000000 C 6270.666667 -845.666667 6303.000000 -898.000000 6337.000000 -958.000000 C 6371.000000 -1018.000000 6403.666667 -1079.666667 6435.000000 -1143.000000 C 6466.333333 -1206.333333 6493.000000 -1263.666667 6515.000000 -1315.000000z M 5956.000000 -801.000000 C 6066.000000 -803.000000 6196.666667 -806.333333 6348.000000 -811.000000 C 6500.000000 -815.666667 6662.333333 -821.000000 6835.000000 -827.000000 C 7007.666667 -833.666667 7181.333333 -841.000000 7356.000000 -849.000000 C 7354.666667 -832.333333 7353.333333 -815.666667 7352.000000 -799.000000 C 7182.666667 -791.000000 7012.666667 -783.333333 6842.000000 -776.000000 C 6671.333333 -769.333333 6510.333333 -762.666667 6359.000000 -756.000000 C 6207.666667 -750.000000 6075.333333 -745.000000 5962.000000 -741.000000 C 5960.000000 -761.000000 5958.000000 -781.000000 5956.000000 -801.000000z M 5898.000000 -1336.000000 C 6448.333333 -1336.000000 6998.666667 -1336.000000 7549.000000 -1336.000000 C 7549.000000 -1317.666667 7549.000000 -1299.333333 7549.000000 -1281.000000 C 6998.666667 -1281.000000 6448.333333 -1281.000000 5898.000000 -1281.000000 C 5898.000000 -1299.333333 5898.000000 -1317.666667 5898.000000 -1336.000000z M 6687.000000 -1596.000000 C 6706.333333 -1596.000000 6725.666667 -1596.000000 6745.000000 -1596.000000 C 6745.000000 -1500.000000 6745.000000 -1404.000000 6745.000000 -1308.000000 C 6725.666667 -1308.000000 6706.333333 -1308.000000 6687.000000 -1308.000000 C 6687.000000 -1404.000000 6687.000000 -1500.000000 6687.000000 -1596.000000z "/>
</g></svg>
