<?xml version="1.0" encoding="utf-8"?>
<svg xmlns="http://www.w3.org/2000/svg" xmlns:ev="http://www.w3.org/2001/xml-events" xmlns:xlink="http://www.w3.org/1999/xlink" version="1.1" baseProfile="full" width="7407.0" height="1730.0" viewBox="179.0 -1594.0 7407.0 1730.0">
<defs/>
<g><path d="M 4307.000000 -828.000000 C 4307.000000 -610.333333 4307.000000 -392.666667 4307.000000 -175.000000 C 4288.333333 -175.000000 4269.666667 -175.000000 4251.000000 -175.000000 C 4251.000000 -374.000000 4251.000000 -573.000000 4251.000000 -772.000000 C 4146.666667 -772.000000 4042.333333 -772.000000 3938.000000 -772.000000 C 3938.000000 -790.666667 3938.000000 -809.333333 3938.000000 -828.000000 C 4061.000000 -828.000000 4184.000000 -828.000000 4307.000000 -828.000000z M 4307.000000 -202.000000 C 4361.666667 -123.333333 4437.333333 -64.333333 4534.000000 -25.000000 C 4630.666667 13.666667 4742.333333 35.333333 4869.000000 40.000000 C 4917.666667 41.333333 4978.000000 42.333333 5050.000000 43.000000 C 5122.666667 43.666667 5199.000000 43.666667 5279.000000 43.000000 C 5359.000000 42.333333 5435.000000 41.000000 5507.000000 39.000000 C 5579.666667 37.000000 5641.000000 35.000000 5691.000000 33.000000 C 5688.333333 36.333333 5685.333333 41.666667 5682.000000 49.000000 C 5678.666667 56.333333 5675.666667 63.666667 5673.000000 71.000000 C 5671.000000 79.000000 5669.333333 86.000000 5668.000000 92.000000 C 5620.666667 93.333333 5562.333333 94.666667 5493.000000 96.000000 C 5423.666667 97.333333 5350.333333 98.333333 5273.000000 99.000000 C 5195.666667 99.666667 5121.666667 99.666667 5051.000000 99.000000 C 4981.000000 98.333333 4921.666667 97.333333 4873.000000 96.000000 C 4737.000000 90.666667 4620.000000 67.666667 4522.000000 27.000000 C 4424.666667 -13.000000 4344.666667 -72.000000 4282.000000 -150.000000 C 4228.000000 -104.000000 4172.666667 -58.000000 4116.000000 -12.000000 C 4060.000000 33.333333 4004.333333 77.666667 3949.000000 121.000000 C 3937.000000 102.333333 3925.000000 83.666667 3913.000000 65.000000 C 3964.333333 30.333333 4020.666667 -11.000000 4082.000000 -59.000000 C 4143.333333 -107.000000 4201.666667 -154.666667 4257.000000 -202.000000 C 4273.666667 -202.000000 4290.333333 -202.000000 4307.000000 -202.000000z M 3974.000000 -1517.000000 C 3988.333333 -1527.333333 4002.666667 -1537.666667 4017.000000 -1548.000000 C 4059.000000 -1518.000000 4101.000000 -1483.666667 4143.000000 -1445.000000 C 4185.666667 -1407.000000 4223.666667 -1368.666667 4257.000000 -1330.000000 C 4291.000000 -1292.000000 4317.666667 -1256.333333 4337.000000 -1223.000000 C 4321.666667 -1211.333333 4306.333333 -1199.666667 4291.000000 -1188.000000 C 4271.666667 -1221.333333 4245.000000 -1257.666667 4211.000000 -1297.000000 C 4177.666667 -1336.333333 4140.333333 -1375.000000 4099.000000 -1413.000000 C 4058.333333 -1451.666667 4016.666667 -1486.333333 3974.000000 -1517.000000z M 4735.000000 -1323.000000 C 4747.000000 -1336.333333 4759.000000 -1349.666667 4771.000000 -1363.000000 C 4835.000000 -1340.333333 4901.666667 -1314.000000 4971.000000 -1284.000000 C 5041.000000 -1254.666667 5107.666667 -1225.000000 5171.000000 -1195.000000 C 5235.000000 -1165.000000 5288.000000 -1136.666667 5330.000000 -1110.000000 C 5317.666667 -1094.666667 5305.333333 -1079.333333 5293.000000 -1064.000000 C 5252.333333 -1089.333333 5200.666667 -1117.666667 5138.000000 -1149.000000 C 5075.333333 -1180.333333 5008.666667 -1211.333333 4938.000000 -1242.000000 C 4868.000000 -1272.666667 4800.333333 -1299.666667 4735.000000 -1323.000000z M 4543.000000 -1112.000000 C 4879.000000 -1112.000000 5215.000000 -1112.000000 5551.000000 -1112.000000 C 5551.000000 -1093.333333 5551.000000 -1074.666667 5551.000000 -1056.000000 C 5233.333333 -1056.000000 4915.666667 -1056.000000 4598.000000 -1056.000000 C 4598.000000 -743.000000 4598.000000 -430.000000 4598.000000 -117.000000 C 4579.666667 -117.000000 4561.333333 -117.000000 4543.000000 -117.000000 C 4543.000000 -448.666667 4543.000000 -780.333333 4543.000000 -1112.000000z M 5522.000000 -1112.000000 C 5541.333333 -1112.000000 5560.666667 -1112.000000 5580.000000 -1112.000000 C 5580.000000 -809.666667 5580.000000 -507.333333 5580.000000 -205.000000 C 5580.000000 -181.000000 5576.000000 -163.333333 5568.000000 -152.000000 C 5560.000000 -141.333333 5546.666667 -133.000000 5528.000000 -127.000000 C 5507.333333 -121.666667 5476.333333 -118.333333 5435.000000 -117.000000 C 5394.333333 -115.666667 5338.333333 -115.000000 5267.000000 -115.000000 C 5265.666667 -124.333333 5262.666667 -134.000000 5258.000000 -144.000000 C 5253.333333 -154.000000 5248.666667 -163.000000 5244.000000 -171.000000 C 5304.000000 -169.666667 5356.000000 -169.000000 5400.000000 -169.000000 C 5444.000000 -169.000000 5473.000000 -169.000000 5487.000000 -169.000000 C 5501.000000 -170.333333 5510.333333 -173.333333 5515.000000 -178.000000 C 5519.666667 -183.333333 5522.000000 -192.333333 5522.000000 -205.000000 C 5522.000000 -507.333333 5522.000000 -809.666667 5522.000000 -1112.000000z M 4527.000000 -1500.000000 C 4860.666667 -1500.000000 5194.333333 -1500.000000 5528.000000 -1500.000000 C 5528.000000 -1481.333333 5528.000000 -1462.666667 5528.000000 -1444.000000 C 5194.333333 -1444.000000 4860.666667 -1444.000000 4527.000000 -1444.000000 C 4527.000000 -1462.666667 4527.000000 -1481.333333 4527.000000 -1500.000000z M 4572.000000 -822.000000 C 4900.000000 -822.000000 5228.000000 -822.000000 5556.000000 -822.000000 C 5556.000000 -803.333333 5556.000000 -784.666667 5556.000000 -766.000000 C 5228.000000 -766.000000 4900.000000 -766.000000 4572.000000 -766.000000 C 4572.000000 -784.666667 4572.000000 -803.333333 4572.000000 -822.000000z M 4572.000000 -526.000000 C 4900.000000 -526.000000 5228.000000 -526.000000 5556.000000 -526.000000 C 5556.000000 -506.666667 5556.000000 -487.333333 5556.000000 -468.000000 C 5228.000000 -468.000000 4900.000000 -468.000000 4572.000000 -468.000000 C 4572.000000 -487.333333 4572.000000 -506.666667 4572.000000 -526.000000z M 5025.000000 -1098.000000 C 5043.333333 -1098.000000 5061.666667 -1098.000000 5080.000000 -1098.000000 C 5080.000000 -773.666667 5080.000000 -449.333333 5080.000000 -125.000000 C 5061.666667 -125.000000 5043.333333 -125.000000 5025.000000 -125.000000 C 5025.000000 -449.333333 5025.000000 -773.666667 5025.000000 -1098.000000z M 5514.000000 -1500.000000 C 5518.666667 -1500.000000 5523.333333 -1500.000000 5528.000000 -1500.000000 C 5532.333333 -1501.000000 5536.666667 -1502.000000 5541.000000 -1503.000000 C 5555.000000 -1493.666667 5569.000000 -1484.333333 5583.000000 -1475.000000 C 5542.333333 -1437.666667 5494.333333 -1401.333333 5439.000000 -1366.000000 C 5384.333333 -1330.666667 5326.666667 -1298.666667 5266.000000 -1270.000000 C 5206.000000 -1241.333333 5147.333333 -1216.666667 5090.000000 -1196.000000 C 5084.666667 -1202.666667 5078.333333 -1209.666667 5071.000000 -1217.000000 C 5064.333333 -1225.000000 5058.000000 -1231.333333 5052.000000 -1236.000000 C 5109.333333 -1255.333333 5167.000000 -1278.333333 5225.000000 -1305.000000 C 5283.666667 -1332.333333 5338.000000 -1361.666667 5388.000000 -1393.000000 C 5438.666667 -1424.333333 5480.666667 -1455.333333 5514.000000 -1486.000000 C 5514.000000 -1490.666667 5514.000000 -1495.333333 5514.000000 -1500.000000z "/>
</g></svg>
