<?xml version="1.0" ?>
<svg xmlns="http://www.w3.org/2000/svg" version="1.1" width="600" height="600">
  <defs/>
  <g>
    <path stroke-width="0" fill="rgb(0, 0, 0)" opacity="1.0" d="M 144.97625732421875 211.2764892578125 C 249.27154541015625 211.2764892578125 353.56683349609375 211.2764892578125 457.862060546875 211.2764892578125 C 457.862060546875 215.28570556640625 457.862060546875 219.294921875 457.862060546875 223.30413818359375 C 353.56683349609375 223.30413818359375 249.27154541015625 223.30413818359375 144.97625732421875 223.30413818359375 C 144.97625732421875 219.294921875 144.97625732421875 215.28570556640625 144.97625732421875 211.2764892578125M 454.3372802734375 211.2764892578125 C 458.27685546875 211.2764892578125 462.2164306640625 211.2764892578125 466.156005859375 211.2764892578125 C 466.156005859375 211.2764892578125 466.156005859375 211.89862060546875 466.156005859375 213.14285278320312 C 466.156005859375 214.24884033203125 466.0869140625 215.49310302734375 465.94873046875 216.87554931640625 C 465.8104248046875 218.258056640625 465.7413330078125 219.294921875 465.7413330078125 219.98617553710938 C 463.114990234375 262.56683349609375 460.626708984375 298.6497802734375 458.27685546875 328.2349853515625 C 455.927001953125 357.8203125 453.300537109375 382.0137939453125 450.397705078125 400.815673828125 C 447.633056640625 419.6175537109375 444.592041015625 434.2718505859375 441.2744140625 444.77880859375 C 437.956787109375 455.28570556640625 434.08636474609375 462.8203125 429.66302490234375 467.3824462890625 C 425.9307861328125 471.52996826171875 421.9912109375 474.225830078125 417.84423828125 475.47003173828125 C 413.69732666015625 476.71429443359375 408.30633544921875 477.47467041015625 401.6712646484375 477.75115966796875 C 395.589111328125 478.02764892578125 386.534912109375 477.889404296875 374.50885009765625 477.33642578125 C 362.6209716796875 476.783447265625 350.4566650390625 476.0921630859375 338.015869140625 475.2626953125 C 337.73944091796875 473.4654541015625 337.393798828125 471.4608154296875 336.9791259765625 469.24884033203125 C 336.564453125 467.17510986328125 335.73504638671875 465.2396240234375 334.490966796875 463.4423828125 C 349.0052490234375 464.6866455078125 362.41363525390625 465.51611328125 374.7161865234375 465.930908203125 C 387.156982421875 466.3455810546875 395.658203125 466.552978515625 400.21978759765625 466.552978515625 C 404.6431884765625 466.552978515625 408.30633544921875 466.2073974609375 411.20916748046875 465.51611328125 C 414.11199951171875 464.82489013671875 416.6693115234375 463.30413818359375 418.8809814453125 460.95391845703125 C 422.88970947265625 456.9447021484375 426.55279541015625 449.7557373046875 429.870361328125 439.3870849609375 C 433.18792724609375 429.0184326171875 436.22900390625 414.364013671875 438.99365234375 395.4239501953125 C 441.75830078125 376.48388671875 444.3846435546875 352.22119140625 446.872802734375 322.63592529296875 C 449.3609619140625 293.0506896972656 451.84912109375 257.036865234375 454.3372802734375 214.594482421875 C 454.3372802734375 213.48846435546875 454.3372802734375 212.38250732421875 454.3372802734375 211.2764892578125M 283.06903076171875 120.86175537109375 C 287.07769775390625 120.86175537109375 291.08642578125 120.86175537109375 295.09515380859375 120.86175537109375 C 295.09515380859375 139.594482421875 295.09515380859375 158.32717895507812 295.09515380859375 177.05990600585938 C 295.09515380859375 195.44699096679688 294.2657470703125 214.73272705078125 292.60699462890625 234.91705322265625 C 291.08642578125 254.963134765625 287.69976806640625 275.56219482421875 282.447021484375 296.71429443359375 C 277.33245849609375 317.8663330078125 269.24591064453125 339.0184326171875 258.18743896484375 360.1705322265625 C 247.12896728515625 381.184326171875 232.2691650390625 401.8525390625 213.60791015625 422.17510986328125 C 194.94677734375 442.4976806640625 171.24017333984375 461.783447265625 142.48809814453125 480.0322265625 C 141.9351806640625 478.92626953125 141.1749267578125 477.889404296875 140.207275390625 476.921630859375 C 139.3779296875 476.0921630859375 138.4102783203125 475.1243896484375 137.304443359375 474.0184326171875 C 136.3367919921875 473.0506591796875 135.300048828125 472.290283203125 134.1942138671875 471.7373046875 C 162.255126953125 453.626708984375 185.4088134765625 434.6866455078125 203.6552734375 414.91705322265625 C 222.0400390625 395.1474609375 236.6234130859375 375.0322265625 247.40545654296875 354.5714111328125 C 258.18743896484375 333.97235107421875 266.06658935546875 313.4423828125 271.04290771484375 292.9815673828125 C 276.157470703125 272.520751953125 279.4058837890625 252.54376220703125 280.7882080078125 233.05068969726562 C 282.3087158203125 213.5576171875 283.06903076171875 194.89401245117188 283.06903076171875 177.05990600585938 C 283.06903076171875 158.32717895507812 283.06903076171875 139.594482421875 283.06903076171875 120.86175537109375"/>
  </g>
</svg>
