<?xml version="1.0" encoding="utf-8"?>
<svg xmlns="http://www.w3.org/2000/svg" xmlns:ev="http://www.w3.org/2001/xml-events" xmlns:xlink="http://www.w3.org/1999/xlink" version="1.1" baseProfile="full" width="900.0" height="1444.0" viewBox="102.0 -1419.0 900.0 1444.0">
<defs/>
<g><path d="M 566.000000 25.000000 C 540.500000 25.000000 515.750000 23.770833 491.750000 21.312500 C 467.750000 18.854167 444.500000 15.166667 422.000000 10.250000 C 377.000000 0.416667 335.000000 -14.333333 296.000000 -34.000000 C 257.333333 -54.000000 221.833333 -76.666667 189.500000 -102.000000 C 157.166667 -127.333333 128.000000 -155.333333 102.000000 -186.000000 C 118.000000 -202.666667 134.000000 -219.333333 150.000000 -236.000000 C 175.666667 -206.666667 203.833333 -180.250000 234.500000 -156.750000 C 265.166667 -133.250000 298.333333 -112.666667 334.000000 -95.000000 C 370.000000 -77.333333 407.333333 -64.083333 446.000000 -55.250000 C 484.666667 -46.416667 524.666667 -42.000000 566.000000 -42.000000 C 593.833333 -42.000000 620.250000 -43.708333 645.250000 -47.125000 C 670.250000 -50.541667 693.833333 -55.666667 716.000000 -62.500000 C 760.333333 -76.166667 799.000000 -96.666667 832.000000 -124.000000 C 865.000000 -151.666667 889.750000 -183.333333 906.250000 -219.000000 C 922.750000 -254.666667 931.000000 -294.333333 931.000000 -338.000000 C 931.000000 -369.333333 928.000000 -397.416667 922.000000 -422.250000 C 916.000000 -447.083333 907.000000 -468.666667 895.000000 -487.000000 C 871.666667 -524.333333 840.666667 -554.666667 802.000000 -578.000000 C 783.000000 -590.000000 762.833333 -601.583333 741.500000 -612.750000 C 720.166667 -623.916667 697.666667 -634.666667 674.000000 -645.000000 C 638.500000 -661.000000 603.000000 -677.000000 567.500000 -693.000000 C 532.000000 -709.000000 496.500000 -725.000000 461.000000 -741.000000 C 441.000000 -750.000000 420.500000 -760.083333 399.500000 -771.250000 C 378.500000 -782.416667 357.000000 -794.666667 335.000000 -808.000000 C 313.000000 -821.666667 292.666667 -837.416667 274.000000 -855.250000 C 255.333333 -873.083333 238.333333 -893.000000 223.000000 -915.000000 C 207.666667 -937.000000 196.166667 -962.000000 188.500000 -990.000000 C 180.833333 -1018.000000 177.000000 -1049.000000 177.000000 -1083.000000 C 177.000000 -1117.000000 181.250000 -1148.666667 189.750000 -1178.000000 C 198.250000 -1207.333333 211.000000 -1234.333333 228.000000 -1259.000000 C 245.333333 -1284.000000 265.750000 -1306.250000 289.250000 -1325.750000 C 312.750000 -1345.250000 339.333333 -1362.000000 369.000000 -1376.000000 C 399.000000 -1390.333333 430.916667 -1401.083333 464.750000 -1408.250000 C 498.583333 -1415.416667 534.333333 -1419.000000 572.000000 -1419.000000 C 614.333333 -1419.000000 654.166667 -1414.916667 691.500000 -1406.750000 C 728.833333 -1398.583333 763.666667 -1386.333333 796.000000 -1370.000000 C 828.333333 -1353.666667 857.500000 -1335.833333 883.500000 -1316.500000 C 909.500000 -1297.166667 932.333333 -1276.333333 952.000000 -1254.000000 C 937.333333 -1238.000000 922.666667 -1222.000000 908.000000 -1206.000000 C 888.333333 -1227.666667 866.500000 -1247.250000 842.500000 -1264.750000 C 818.500000 -1282.250000 792.333333 -1297.666667 764.000000 -1311.000000 C 736.000000 -1324.666667 706.000000 -1334.916667 674.000000 -1341.750000 C 642.000000 -1348.583333 608.000000 -1352.000000 572.000000 -1352.000000 C 523.333333 -1352.000000 479.500000 -1346.083333 440.500000 -1334.250000 C 401.500000 -1322.416667 367.333333 -1304.666667 338.000000 -1281.000000 C 308.666667 -1257.333333 286.666667 -1229.666667 272.000000 -1198.000000 C 257.333333 -1166.333333 250.000000 -1130.666667 250.000000 -1091.000000 C 250.000000 -1062.000000 253.333333 -1035.666667 260.000000 -1012.000000 C 266.666667 -988.333333 276.666667 -967.333333 290.000000 -949.000000 C 316.666667 -913.000000 349.000000 -884.333333 387.000000 -863.000000 C 425.666667 -841.666667 461.000000 -823.333333 493.000000 -808.000000 C 528.666667 -792.000000 564.333333 -776.000000 600.000000 -760.000000 C 635.666667 -744.000000 671.333333 -728.000000 707.000000 -712.000000 C 733.000000 -700.666667 758.083333 -688.416667 782.250000 -675.250000 C 806.416667 -662.083333 829.666667 -648.000000 852.000000 -633.000000 C 874.666667 -618.000000 895.083333 -601.000000 913.250000 -582.000000 C 931.416667 -563.000000 947.333333 -542.000000 961.000000 -519.000000 C 974.666667 -496.333333 984.916667 -470.416667 991.750000 -441.250000 C 998.583333 -412.083333 1002.000000 -379.666667 1002.000000 -344.000000 C 1002.000000 -308.666667 997.500000 -275.166667 988.500000 -243.500000 C 979.500000 -211.833333 966.000000 -182.000000 948.000000 -154.000000 C 930.333333 -126.333333 908.916667 -101.583333 883.750000 -79.750000 C 858.583333 -57.916667 829.666667 -39.000000 797.000000 -23.000000 C 764.333333 -7.000000 728.750000 5.000000 690.250000 13.000000 C 651.750000 21.000000 610.333333 25.000000 566.000000 25.000000z "/>
</g>
</svg>
