<?xml version="1.0" ?>
<svg xmlns="http://www.w3.org/2000/svg" version="1.1" width="600" height="600">
  <defs/>
  <g>
    <path stroke-width="0" fill="rgb(0, 0, 0)" opacity="1.0" d="M 240.37396240234375 411.977294921875 C 240.37396240234375 404.7137451171875 240.37396240234375 394.5750732421875 240.37396240234375 381.5611572265625 C 240.37396240234375 368.39599609375 240.37396240234375 353.793212890625 240.37396240234375 337.7528076171875 C 240.37396240234375 321.5611572265625 240.37396240234375 304.91552734375 240.37396240234375 287.8158874511719 C 240.37396240234375 270.56494140625 240.37396240234375 253.99496459960938 240.37396240234375 238.10592651367188 C 240.37396240234375 222.06558227539062 240.37396240234375 207.84109497070312 240.37396240234375 195.43252563476562 C 240.37396240234375 182.87261962890625 240.37396240234375 173.26358032226562 240.37396240234375 166.60531616210938 C 240.37396240234375 162.82220458984375 240.37396240234375 159.41741943359375 240.37396240234375 156.39093017578125 C 240.37396240234375 153.36444091796875 240.22271728515625 150.33798217773438 239.92022705078125 147.31149291992188 C 239.61776733398438 144.1336669921875 239.0128173828125 140.50189208984375 238.10537719726562 136.4161376953125 C 243.92807006835938 136.4161376953125 249.750732421875 136.4161376953125 255.57342529296875 136.4161376953125 C 254.66598510742188 142.62045288085938 254.06103515625 147.91677856445312 253.758544921875 152.30517578125 C 253.45608520507812 156.542236328125 253.30484008789062 161.3089599609375 253.30484008789062 166.60531616210938 C 253.30484008789062 172.96090698242188 253.30484008789062 182.49432373046875 253.30484008789062 195.20556640625 C 253.30484008789062 207.76547241210938 253.30484008789062 222.1412353515625 253.30484008789062 238.33291625976562 C 253.30484008789062 254.373291015625 253.30484008789062 271.0189208984375 253.30484008789062 288.2698669433594 C 253.30484008789062 305.3694763183594 253.30484008789062 322.01513671875 253.30484008789062 338.206787109375 C 253.30484008789062 354.2471923828125 253.30484008789062 368.47161865234375 253.30484008789062 380.88018798828125 C 253.30484008789062 393.137451171875 253.30484008789062 402.44384765625 253.30484008789062 408.79949951171875 C 253.30484008789062 419.69482421875 255.3465576171875 428.24462890625 259.42999267578125 434.44891357421875 C 263.513427734375 440.6531982421875 270.697265625 445.1173095703125 280.9814453125 447.84112548828125 C 291.2656555175781 450.41363525390625 305.70892333984375 451.6998291015625 324.311279296875 451.6998291015625 C 342.91357421875 451.6998291015625 359.5498046875 451.321533203125 374.21990966796875 450.56494140625 C 388.8900146484375 449.808349609375 402.9552001953125 448.59771728515625 416.4154052734375 446.93316650390625 C 430.02685546875 445.1173095703125 444.092041015625 442.923095703125 458.61090087890625 440.3505859375 C 458.30841064453125 445.5712890625 458.0059814453125 450.79193115234375 457.7034912109375 456.0125732421875 C 443.78955078125 457.9798583984375 430.10247802734375 459.6444091796875 416.6422119140625 461.00634765625 C 403.333251953125 462.36822509765625 388.8900146484375 463.351806640625 373.3125 463.9571533203125 C 357.88616943359375 464.4111328125 339.81317138671875 464.6380615234375 319.093505859375 464.6380615234375 C 303.5159606933594 464.6380615234375 290.50946044921875 463.503173828125 280.07403564453125 461.2332763671875 C 269.7898254394531 458.96343994140625 261.69854736328125 455.55859375 255.80026245117188 451.0189208984375 C 250.05322265625 446.47918701171875 246.04541015625 440.95587158203125 243.77682495117188 434.44891357421875 C 241.50823974609375 427.9420166015625 240.37396240234375 420.451416015625 240.37396240234375 411.977294921875M 471.9954833984375 214.04541015625 C 470.78558349609375 215.55865478515625 469.50006103515625 217.4501953125 468.138916015625 219.72003173828125 C 466.928955078125 221.838623046875 465.7191162109375 223.73013305664062 464.5091552734375 225.39471435546875 C 459.3670654296875 234.47415161132812 453.6199951171875 244.15890502929688 447.26806640625 254.44891357421875 C 441.0672607421875 264.73895263671875 434.337158203125 275.48297119140625 427.07769775390625 286.68096923828125 C 419.8182373046875 297.8789367675781 411.87823486328125 309.0012512207031 403.2576904296875 320.04791259765625 C 394.788330078125 331.0946044921875 385.7896728515625 341.687255859375 376.2615966796875 351.82598876953125 C 372.0269775390625 349.17779541015625 367.792236328125 346.5296630859375 363.5576171875 343.8814697265625 C 375.807861328125 332.6834716796875 387.52886962890625 319.66961669921875 398.72052001953125 304.83984375 C 410.0633544921875 290.0101013183594 420.19635009765625 275.4073181152344 429.119384765625 261.0315246582031 C 438.04248046875 246.65576171875 444.7725830078125 234.62548828125 449.30975341796875 224.94073486328125 C 449.30975341796875 224.94073486328125 444.39453125 226.0 434.56396484375 228.1185302734375 C 424.7335205078125 230.08575439453125 411.5758056640625 232.73394775390625 395.0908203125 236.06304931640625 C 378.757080078125 239.3922119140625 360.30596923828125 243.099609375 339.737548828125 247.18536376953125 C 319.32037353515625 251.2711181640625 298.449462890625 255.50820922851562 277.1248779296875 259.8966064453125 C 255.80026245117188 264.28497314453125 235.3074951171875 268.4464111328125 215.646484375 272.3808288574219 C 196.13674926757812 276.1639404296875 178.97119140625 279.6444091796875 164.14984130859375 282.82220458984375 C 149.32846069335938 285.84869384765625 138.43930053710938 288.0428771972656 131.48236083984375 289.40478515625 C 130.42367553710938 284.1841125488281 129.36502075195312 278.96343994140625 128.30633544921875 273.74273681640625 C 135.86825561523438 272.98614501953125 146.68179321289062 271.397216796875 160.7469482421875 268.9760437011719 C 174.8121337890625 266.4035339355469 191.07025146484375 263.3770446777344 209.52133178710938 259.8966064453125 C 227.972412109375 256.4161376953125 247.25531005859375 252.633056640625 267.3699951171875 248.54730224609375 C 287.63592529296875 244.4615478515625 307.5238037109375 240.45144653320312 327.0335693359375 236.51702880859375 C 346.69451904296875 232.58258056640625 364.918701171875 228.87518310546875 381.7061767578125 225.39471435546875 C 398.6448974609375 221.91424560546875 412.861328125 219.03909301757812 424.35540771484375 216.76922607421875 C 435.8494873046875 214.34805297851562 443.487060546875 212.7591552734375 447.26806640625 212.00253295898438 C 450.44403076171875 211.397216796875 453.46881103515625 210.56494140625 456.34228515625 209.50567626953125 C 459.2158203125 208.4464111328125 461.257568359375 207.53848266601562 462.46746826171875 206.7818603515625 C 465.64349365234375 209.20303344726562 468.8194580078125 211.62420654296875 471.9954833984375 214.04541015625"/>
  </g>
</svg>
