<?xml version="1.0" ?>
<svg xmlns="http://www.w3.org/2000/svg" version="1.1" width="600" height="600">
  <defs/>
  <g>
    <path stroke-width="0" fill="rgb(0, 0, 0)" opacity="1.0" d="M 230.97509765625 163.74612426757812 C 314.13818359375 163.74612426757812 397.301513671875 163.74612426757812 480.464599609375 163.74612426757812 C 480.464599609375 167.5457763671875 480.464599609375 171.34539794921875 480.464599609375 175.14508056640625 C 397.301513671875 175.14508056640625 314.13818359375 175.14508056640625 230.97509765625 175.14508056640625 C 230.97509765625 171.34539794921875 230.97509765625 167.5457763671875 230.97509765625 163.74612426757812M 434.255126953125 168.09844970703125 C 438.123291015625 168.09844970703125 441.9912109375 168.09844970703125 445.859375 168.09844970703125 C 445.859375 263.08978271484375 445.859375 358.0811767578125 445.859375 453.072509765625 C 445.859375 460.3955078125 444.546875 465.64593505859375 441.92236328125 468.8238525390625 C 439.435546875 472.001708984375 435.153076171875 474.281494140625 429.07470703125 475.6632080078125 C 423.272705078125 476.7685546875 413.8095703125 477.39031982421875 400.68603515625 477.52850341796875 C 387.562255859375 477.6666259765625 370.77783203125 477.7357177734375 350.33203125 477.7357177734375 C 350.055908203125 475.8013916015625 349.434326171875 473.6597900390625 348.46728515625 471.3109130859375 C 347.5 468.9620361328125 346.39501953125 466.6822509765625 345.15185546875 464.47149658203125 C 357.5849609375 464.747802734375 369.1201171875 464.955078125 379.757080078125 465.09326171875 C 390.39404296875 465.2314453125 399.442626953125 465.2314453125 406.90234375 465.09326171875 C 414.50048828125 464.955078125 419.88818359375 464.747802734375 423.0654296875 464.47149658203125 C 427.624267578125 464.1951904296875 430.59423828125 463.29705810546875 431.975830078125 461.7772216796875 C 433.4951171875 460.3955078125 434.255126953125 457.632080078125 434.255126953125 453.487060546875 C 434.255126953125 358.3575439453125 434.255126953125 263.22796630859375 434.255126953125 168.09844970703125M 249.6246337890625 244.57513427734375 C 253.4927978515625 244.57513427734375 257.36083984375 244.57513427734375 261.228759765625 244.57513427734375 C 261.228759765625 297.83935546875 261.228759765625 351.1036376953125 261.228759765625 404.36785888671875 C 257.36083984375 404.36785888671875 253.4927978515625 404.36785888671875 249.6246337890625 404.36785888671875 C 249.6246337890625 351.1036376953125 249.6246337890625 297.83935546875 249.6246337890625 244.57513427734375M 256.04833984375 244.57513427734375 C 292.864013671875 244.57513427734375 329.679443359375 244.57513427734375 366.4951171875 244.57513427734375 C 366.4951171875 288.02935791015625 366.4951171875 331.48358154296875 366.4951171875 374.93780517578125 C 329.679443359375 374.93780517578125 292.864013671875 374.93780517578125 256.04833984375 374.93780517578125 C 256.04833984375 371.0 256.04833984375 367.0621337890625 256.04833984375 363.1243896484375 C 288.9267578125 363.1243896484375 321.80517578125 363.1243896484375 354.68359375 363.1243896484375 C 354.68359375 327.5457763671875 354.68359375 291.9671936035156 354.68359375 256.38861083984375 C 321.80517578125 256.38861083984375 288.9267578125 256.38861083984375 256.04833984375 256.38861083984375 C 256.04833984375 252.45077514648438 256.04833984375 248.512939453125 256.04833984375 244.57513427734375M 213.7760009765625 121.88082885742188 C 217.6441650390625 122.84799194335938 221.5120849609375 123.81521606445312 225.3802490234375 124.78237915039062 C 217.6441650390625 146.75128173828125 208.7337646484375 168.16754150390625 198.649169921875 189.03109741210938 C 188.564697265625 209.7564697265625 177.5821533203125 229.37649536132812 165.70166015625 247.89117431640625 C 153.9593505859375 266.2677001953125 141.7335205078125 282.9171142578125 129.024169921875 297.83935546875 C 128.4716796875 297.0103759765625 127.642822265625 296.04315185546875 126.53759765625 294.93780517578125 C 125.570556640625 293.6943054199219 124.5345458984375 292.4507751464844 123.4293212890625 291.2072448730469 C 122.46240234375 289.8255615234375 121.42626953125 288.8583984375 120.321044921875 288.3056945800781 C 133.0303955078125 274.48876953125 145.1180419921875 258.73748779296875 156.5841064453125 241.05181884765625 C 168.188232421875 223.22796630859375 178.825439453125 204.16061401367188 188.4954833984375 183.8497314453125 C 198.1656494140625 163.53884887695312 206.5924072265625 142.882568359375 213.7760009765625 121.88082885742188M 174.8192138671875 217.83935546875 C 178.549072265625 214.10882568359375 182.279052734375 210.37823486328125 186.0089111328125 206.64764404296875 C 186.2852783203125 206.78582763671875 186.5615234375 206.92401123046875 186.8377685546875 207.06219482421875 C 186.8377685546875 297.63214111328125 186.8377685546875 388.20208740234375 186.8377685546875 478.77203369140625 C 182.83154296875 478.77203369140625 178.825439453125 478.77203369140625 174.8192138671875 478.77203369140625 C 174.8192138671875 391.79443359375 174.8192138671875 304.81689453125 174.8192138671875 217.83935546875"/>
  </g>
</svg>
