<?xml version="1.0" ?>
<svg xmlns="http://www.w3.org/2000/svg" version="1.1" width="600" height="600">
  <defs/>
  <g>
    <path stroke-width="0" fill="rgb(0, 0, 0)" opacity="1.0" d="M 144.694091796875 213.606201171875 C 144.694091796875 232.94989013671875 144.694091796875 252.29360961914062 144.694091796875 271.6372985839844 C 192.699462890625 271.6372985839844 240.70458984375 271.6372985839844 288.7099609375 271.6372985839844 C 288.7099609375 252.29360961914062 288.7099609375 232.94989013671875 288.7099609375 213.606201171875 C 240.70458984375 213.606201171875 192.699462890625 213.606201171875 144.694091796875 213.606201171875M 144.694091796875 144.3834228515625 C 144.694091796875 163.45077514648438 144.694091796875 182.51812744140625 144.694091796875 201.58551025390625 C 192.699462890625 201.58551025390625 240.70458984375 201.58551025390625 288.7099609375 201.58551025390625 C 288.7099609375 182.51812744140625 288.7099609375 163.45077514648438 288.7099609375 144.3834228515625 C 240.70458984375 144.3834228515625 192.699462890625 144.3834228515625 144.694091796875 144.3834228515625M 133.08984375 132.77719116210938 C 188.831298828125 132.77719116210938 244.57275390625 132.77719116210938 300.314208984375 132.77719116210938 C 300.314208984375 182.93264770507812 300.314208984375 233.08807373046875 300.314208984375 283.2435302734375 C 244.57275390625 283.2435302734375 188.831298828125 283.2435302734375 133.08984375 283.2435302734375 C 133.08984375 233.08807373046875 133.08984375 182.93264770507812 133.08984375 132.77719116210938M 131.639404296875 340.445556640625 C 187.8642578125 340.445556640625 244.08935546875 340.445556640625 300.314208984375 340.445556640625 C 300.314208984375 344.3143310546875 300.314208984375 348.18310546875 300.314208984375 352.05181884765625 C 244.08935546875 352.05181884765625 187.8642578125 352.05181884765625 131.639404296875 352.05181884765625 C 131.639404296875 348.18310546875 131.639404296875 344.3143310546875 131.639404296875 340.445556640625M 118.7919921875 439.3056640625 C 134.540283203125 436.81866455078125 152.775390625 433.9171142578125 173.497314453125 430.60107421875 C 194.357177734375 427.28497314453125 216.736572265625 423.76165771484375 240.635498046875 420.0311279296875 C 264.53466796875 416.162353515625 288.64111328125 412.2244873046875 312.954345703125 408.2176513671875 C 313.092529296875 411.94818115234375 313.230712890625 415.67877197265625 313.368896484375 419.4093017578125 C 290.022216796875 423.001708984375 266.676025390625 426.8013916015625 243.329345703125 430.80828857421875 C 219.98291015625 434.815185546875 197.810546875 438.5457763671875 176.812744140625 442.0 C 155.952880859375 445.4542236328125 137.44140625 448.49395751953125 121.278564453125 451.119140625 C 120.44970703125 447.18133544921875 119.620849609375 443.2435302734375 118.7919921875 439.3056640625M 313.368896484375 134.02072143554688 C 364.275390625 134.02072143554688 415.181396484375 134.02072143554688 466.087890625 134.02072143554688 C 466.087890625 137.88946533203125 466.087890625 141.75820922851562 466.087890625 145.626953125 C 415.181396484375 145.626953125 364.275390625 145.626953125 313.368896484375 145.626953125 C 313.368896484375 141.75820922851562 313.368896484375 137.88946533203125 313.368896484375 134.02072143554688M 308.602783203125 259.4093017578125 C 362.962890625 259.4093017578125 417.322998046875 259.4093017578125 471.682861328125 259.4093017578125 C 471.682861328125 263.34716796875 471.682861328125 267.28497314453125 471.682861328125 271.2227783203125 C 417.322998046875 271.2227783203125 362.962890625 271.2227783203125 308.602783203125 271.2227783203125 C 308.602783203125 267.28497314453125 308.602783203125 263.34716796875 308.602783203125 259.4093017578125M 462.565185546875 134.02072143554688 C 463.39404296875 134.02072143554688 464.222900390625 134.02072143554688 465.0517578125 134.02072143554688 C 465.811767578125 133.744384765625 466.5712890625 133.46804809570312 467.331298828125 133.19171142578125 C 470.232177734375 134.9188232421875 473.13330078125 136.64593505859375 476.034423828125 138.373046875 C 469.127197265625 148.45941162109375 461.045654296875 158.61483764648438 451.7900390625 168.83938598632812 C 442.5341796875 179.06390380859375 432.93310546875 188.66665649414062 422.98681640625 197.64764404296875 C 413.040283203125 206.628662109375 403.301025390625 214.57339477539062 393.76904296875 221.48187255859375 C 392.6640625 220.23834228515625 391.3515625 218.99481201171875 389.83203125 217.75128173828125 C 388.450439453125 216.36962890625 387.13818359375 215.26425170898438 385.894775390625 214.43524169921875 C 395.150634765625 208.0794677734375 404.54443359375 200.48013305664062 414.076416015625 191.63729858398438 C 423.6083984375 182.65628051757812 432.656982421875 173.39895629882812 441.221923828125 163.86529541015625 C 449.925048828125 154.33160400390625 457.039306640625 145.14334106445312 462.565185546875 136.30050659179688 C 462.565185546875 135.54058837890625 462.565185546875 134.7806396484375 462.565185546875 134.02072143554688M 338.442138671875 186.04144287109375 C 341.205078125 183.69256591796875 343.968017578125 181.34368896484375 346.730712890625 178.99481201171875 C 358.47314453125 185.626953125 370.146484375 193.36444091796875 381.75048828125 202.20724487304688 C 393.492919921875 210.91192626953125 404.337158203125 219.8238525390625 414.28369140625 228.9429931640625 C 424.22998046875 238.06219482421875 432.104248046875 246.35232543945312 437.906494140625 253.8134765625 C 435.00537109375 256.57684326171875 432.104248046875 259.3402404785156 429.203369140625 262.1036376953125 C 423.401123046875 254.22796630859375 415.595947265625 245.73056030273438 405.787841796875 236.61138916015625 C 395.9794921875 227.35406494140625 385.2041015625 218.303955078125 373.4619140625 209.46112060546875 C 361.857666015625 200.48013305664062 350.1845703125 192.673583984375 338.442138671875 186.04144287109375M 468.16015625 259.4093017578125 C 469.05810546875 259.4093017578125 469.9560546875 259.4093017578125 470.85400390625 259.4093017578125 C 471.821044921875 259.13299560546875 472.787841796875 258.85662841796875 473.7548828125 258.580322265625 C 476.517822265625 259.8929138183594 479.28076171875 261.2055358886719 482.043701171875 262.51812744140625 C 475.96533203125 277.71673583984375 469.4033203125 293.3989562988281 462.35791015625 309.56475830078125 C 455.312744140625 325.7305908203125 448.336181640625 339.20208740234375 441.42919921875 349.979248046875 C 437.975341796875 348.32122802734375 434.52197265625 346.6632080078125 431.068115234375 345.00518798828125 C 435.626953125 338.0966796875 440.047607421875 330.0828857421875 444.330078125 320.9637451171875 C 448.750732421875 311.7064208984375 453.033203125 302.0345458984375 457.177490234375 291.94818115234375 C 461.322021484375 281.86181640625 464.98291015625 272.19000244140625 468.16015625 262.9326477050781 C 468.16015625 261.7581787109375 468.16015625 260.5837707519531 468.16015625 259.4093017578125M 384.237060546875 265.419677734375 C 388.105224609375 265.419677734375 391.97314453125 265.419677734375 395.84130859375 265.419677734375 C 395.84130859375 326.5595703125 395.84130859375 387.699462890625 395.84130859375 448.83935546875 C 395.84130859375 454.36614990234375 394.943359375 458.442138671875 393.1474609375 461.0673828125 C 391.48974609375 463.69256591796875 388.381591796875 465.696044921875 383.82275390625 467.0777587890625 C 378.98779296875 468.18310546875 371.665771484375 468.8048095703125 361.857666015625 468.9429931640625 C 352.049560546875 469.0811767578125 339.478271484375 469.1502685546875 324.14404296875 469.1502685546875 C 323.867919921875 467.4921875 323.177001953125 465.48876953125 322.072021484375 463.139892578125 C 321.10498046875 460.92919921875 319.930908203125 458.78759765625 318.54931640625 456.71502685546875 C 333.468994140625 456.9913330078125 345.90185546875 457.1986083984375 355.848388671875 457.3367919921875 C 365.794921875 457.4749755859375 372.494873046875 457.4058837890625 375.948486328125 457.1295166015625 C 379.402099609375 456.85321044921875 381.6123046875 456.09326171875 382.579345703125 454.8497314453125 C 383.6845703125 453.744384765625 384.237060546875 451.740966796875 384.237060546875 448.83935546875 C 384.237060546875 387.699462890625 384.237060546875 326.5595703125 384.237060546875 265.419677734375M 211.210693359375 137.95855712890625 C 215.009765625 137.95855712890625 218.808837890625 137.95855712890625 222.607666015625 137.95855712890625 C 222.607666015625 186.8013916015625 222.607666015625 235.64422607421875 222.607666015625 284.487060546875 C 222.607666015625 284.487060546875 222.607666015625 284.487060546875 222.607666015625 284.487060546875 C 222.607666015625 333.12261962890625 222.607666015625 381.7581787109375 222.607666015625 430.393798828125 C 218.808837890625 430.393798828125 215.009765625 430.393798828125 211.210693359375 430.393798828125 C 211.210693359375 381.7581787109375 211.210693359375 333.12261962890625 211.210693359375 284.487060546875 C 211.210693359375 284.487060546875 211.210693359375 284.487060546875 211.210693359375 284.487060546875 C 211.210693359375 235.64422607421875 211.210693359375 186.8013916015625 211.210693359375 137.95855712890625"/>
  </g>
</svg>
