<?xml version="1.0" encoding="utf-8"?>
<svg xmlns="http://www.w3.org/2000/svg" xmlns:ev="http://www.w3.org/2001/xml-events" xmlns:xlink="http://www.w3.org/1999/xlink" version="1.1" baseProfile="full" width="13258.0" height="1736.0" viewBox="94.0 -1596.0 13258.0 1736.0">
<defs/>
<g><path d="M 12457.000000 -526.000000 C 12717.333333 -526.000000 12977.666667 -526.000000 13238.000000 -526.000000 C 13238.000000 -308.333333 13238.000000 -90.666667 13238.000000 127.000000 C 13219.666667 127.000000 13201.333333 127.000000 13183.000000 127.000000 C 13183.000000 -71.333333 13183.000000 -269.666667 13183.000000 -468.000000 C 12960.333333 -468.000000 12737.666667 -468.000000 12515.000000 -468.000000 C 12515.000000 -267.333333 12515.000000 -66.666667 12515.000000 134.000000 C 12495.666667 134.000000 12476.333333 134.000000 12457.000000 134.000000 C 12457.000000 -86.000000 12457.000000 -306.000000 12457.000000 -526.000000z M 12392.000000 -1192.000000 C 12653.666667 -1192.000000 12915.333333 -1192.000000 13177.000000 -1192.000000 C 13177.000000 -1045.000000 13177.000000 -898.000000 13177.000000 -751.000000 C 13157.666667 -751.000000 13138.333333 -751.000000 13119.000000 -751.000000 C 13119.000000 -879.666667 13119.000000 -1008.333333 13119.000000 -1137.000000 C 12876.666667 -1137.000000 12634.333333 -1137.000000 12392.000000 -1137.000000 C 12392.000000 -1155.333333 12392.000000 -1173.666667 12392.000000 -1192.000000z M 12712.000000 -1492.000000 C 12731.333333 -1489.333333 12750.666667 -1486.666667 12770.000000 -1484.000000 C 12758.666667 -1408.666667 12745.333333 -1325.333333 12730.000000 -1234.000000 C 12714.666667 -1143.333333 12698.666667 -1055.333333 12682.000000 -970.000000 C 12665.333333 -885.333333 12650.000000 -813.000000 12636.000000 -753.000000 C 12616.666667 -753.000000 12597.333333 -753.000000 12578.000000 -753.000000 C 12589.333333 -799.000000 12601.000000 -852.666667 12613.000000 -914.000000 C 12625.666667 -975.333333 12637.666667 -1040.000000 12649.000000 -1108.000000 C 12660.333333 -1176.000000 12671.333333 -1242.666667 12682.000000 -1308.000000 C 12693.333333 -1374.000000 12703.333333 -1435.333333 12712.000000 -1492.000000z M 12363.000000 -1507.000000 C 12674.000000 -1507.000000 12985.000000 -1507.000000 13296.000000 -1507.000000 C 13296.000000 -1488.666667 13296.000000 -1470.333333 13296.000000 -1452.000000 C 12985.000000 -1452.000000 12674.000000 -1452.000000 12363.000000 -1452.000000 C 12363.000000 -1470.333333 12363.000000 -1488.666667 12363.000000 -1507.000000z M 12317.000000 -772.000000 C 12662.000000 -772.000000 13007.000000 -772.000000 13352.000000 -772.000000 C 13352.000000 -753.333333 13352.000000 -734.666667 13352.000000 -716.000000 C 13007.000000 -716.000000 12662.000000 -716.000000 12317.000000 -716.000000 C 12317.000000 -734.666667 12317.000000 -753.333333 12317.000000 -772.000000z M 12495.000000 -25.000000 C 12732.666667 -25.000000 12970.333333 -25.000000 13208.000000 -25.000000 C 13208.000000 -6.333333 13208.000000 12.333333 13208.000000 31.000000 C 12970.333333 31.000000 12732.666667 31.000000 12495.000000 31.000000 C 12495.000000 12.333333 12495.000000 -6.333333 12495.000000 -25.000000z M 11699.000000 -1014.000000 C 11875.000000 -1014.000000 12051.000000 -1014.000000 12227.000000 -1014.000000 C 12227.000000 -995.333333 12227.000000 -976.666667 12227.000000 -958.000000 C 12051.000000 -958.000000 11875.000000 -958.000000 11699.000000 -958.000000 C 11699.000000 -976.666667 11699.000000 -995.333333 11699.000000 -1014.000000z M 11710.000000 -1519.000000 C 11880.333333 -1519.000000 12050.666667 -1519.000000 12221.000000 -1519.000000 C 12221.000000 -1500.333333 12221.000000 -1481.666667 12221.000000 -1463.000000 C 12050.666667 -1463.000000 11880.333333 -1463.000000 11710.000000 -1463.000000 C 11710.000000 -1481.666667 11710.000000 -1500.333333 11710.000000 -1519.000000z M 11699.000000 -758.000000 C 11875.000000 -758.000000 12051.000000 -758.000000 12227.000000 -758.000000 C 12227.000000 -739.666667 12227.000000 -721.333333 12227.000000 -703.000000 C 12051.000000 -703.000000 11875.000000 -703.000000 11699.000000 -703.000000 C 11699.000000 -721.333333 11699.000000 -739.666667 11699.000000 -758.000000z M 11610.000000 -1271.000000 C 11836.666667 -1271.000000 12063.333333 -1271.000000 12290.000000 -1271.000000 C 12290.000000 -1251.666667 12290.000000 -1232.333333 12290.000000 -1213.000000 C 12063.333333 -1213.000000 11836.666667 -1213.000000 11610.000000 -1213.000000 C 11610.000000 -1232.333333 11610.000000 -1251.666667 11610.000000 -1271.000000z M 11729.000000 -503.000000 C 11895.333333 -503.000000 12061.666667 -503.000000 12228.000000 -503.000000 C 12228.000000 -324.333333 12228.000000 -145.666667 12228.000000 33.000000 C 12061.666667 33.000000 11895.333333 33.000000 11729.000000 33.000000 C 11729.000000 14.333333 11729.000000 -4.333333 11729.000000 -23.000000 C 11876.333333 -23.000000 12023.666667 -23.000000 12171.000000 -23.000000 C 12171.000000 -163.666667 12171.000000 -304.333333 12171.000000 -445.000000 C 12023.666667 -445.000000 11876.333333 -445.000000 11729.000000 -445.000000 C 11729.000000 -464.333333 11729.000000 -483.666667 11729.000000 -503.000000z M 11699.000000 -503.000000 C 11718.000000 -503.000000 11737.000000 -503.000000 11756.000000 -503.000000 C 11756.000000 -291.333333 11756.000000 -79.666667 11756.000000 132.000000 C 11737.000000 132.000000 11718.000000 132.000000 11699.000000 132.000000 C 11699.000000 -79.666667 11699.000000 -291.333333 11699.000000 -503.000000z "/>
</g></svg>
