<?xml version="1.0" encoding="utf-8"?>
<svg xmlns="http://www.w3.org/2000/svg" xmlns:ev="http://www.w3.org/2001/xml-events" xmlns:xlink="http://www.w3.org/1999/xlink" version="1.1" baseProfile="full" width="17098.0" height="1737.3" viewBox="90.0 -1596.0 17098.0 1737.3">
<defs/>
<g><path d="M 16312.000000 -1536.000000 C 16260.000000 -1459.333333 16191.000000 -1378.666667 16105.000000 -1294.000000 C 16019.000000 -1209.333333 15923.666667 -1128.333333 15819.000000 -1051.000000 C 15715.000000 -973.666667 15607.333333 -905.666667 15496.000000 -847.000000 C 15493.333333 -851.666667 15490.000000 -856.666667 15486.000000 -862.000000 C 15482.666667 -867.333333 15479.000000 -872.333333 15475.000000 -877.000000 C 15471.000000 -882.333333 15466.666667 -887.000000 15462.000000 -891.000000 C 15573.333333 -948.333333 15681.666667 -1015.666667 15787.000000 -1093.000000 C 15893.000000 -1171.000000 15988.666667 -1253.000000 16074.000000 -1339.000000 C 16160.000000 -1425.666667 16228.666667 -1510.666667 16280.000000 -1594.000000 C 16297.666667 -1594.000000 16315.333333 -1594.000000 16333.000000 -1594.000000 C 16383.000000 -1528.666667 16441.666667 -1463.000000 16509.000000 -1397.000000 C 16576.333333 -1331.000000 16648.000000 -1267.666667 16724.000000 -1207.000000 C 16800.000000 -1147.000000 16877.666667 -1092.000000 16957.000000 -1042.000000 C 17036.333333 -992.666667 17113.333333 -950.000000 17188.000000 -914.000000 C 17181.333333 -908.666667 17174.000000 -901.000000 17166.000000 -891.000000 C 17158.666667 -881.000000 17153.000000 -872.666667 17149.000000 -866.000000 C 17075.000000 -904.666667 16998.666667 -949.000000 16920.000000 -999.000000 C 16841.333333 -1049.666667 16764.333333 -1104.666667 16689.000000 -1164.000000 C 16614.333333 -1224.000000 16544.666667 -1285.333333 16480.000000 -1348.000000 C 16415.333333 -1410.666667 16359.333333 -1473.333333 16312.000000 -1536.000000z M 15844.000000 -1000.000000 C 16163.333333 -1000.000000 16482.666667 -1000.000000 16802.000000 -1000.000000 C 16802.000000 -981.000000 16802.000000 -962.000000 16802.000000 -943.000000 C 16482.666667 -943.000000 16163.333333 -943.000000 15844.000000 -943.000000 C 15844.000000 -962.000000 15844.000000 -981.000000 15844.000000 -1000.000000z M 15575.000000 -620.000000 C 16075.000000 -620.000000 16575.000000 -620.000000 17075.000000 -620.000000 C 17075.000000 -601.000000 17075.000000 -582.000000 17075.000000 -563.000000 C 16575.000000 -563.000000 16075.000000 -563.000000 15575.000000 -563.000000 C 15575.000000 -582.000000 15575.000000 -601.000000 15575.000000 -620.000000z M 15496.000000 10.000000 C 16046.666667 10.000000 16597.333333 10.000000 17148.000000 10.000000 C 17148.000000 28.333333 17148.000000 46.666667 17148.000000 65.000000 C 16597.333333 65.000000 16046.666667 65.000000 15496.000000 65.000000 C 15496.000000 46.666667 15496.000000 28.333333 15496.000000 10.000000z M 16285.000000 -981.000000 C 16304.333333 -981.000000 16323.666667 -981.000000 16343.000000 -981.000000 C 16343.000000 -639.333333 16343.000000 -297.666667 16343.000000 44.000000 C 16323.666667 44.000000 16304.333333 44.000000 16285.000000 44.000000 C 16285.000000 -297.666667 16285.000000 -639.333333 16285.000000 -981.000000z M 15775.000000 -440.000000 C 15791.000000 -445.666667 15807.000000 -451.333333 15823.000000 -457.000000 C 15851.000000 -419.666667 15878.000000 -378.666667 15904.000000 -334.000000 C 15930.666667 -289.333333 15953.333333 -245.000000 15972.000000 -201.000000 C 15991.333333 -157.666667 16005.000000 -118.666667 16013.000000 -84.000000 C 15996.333333 -77.000000 15979.666667 -70.000000 15963.000000 -63.000000 C 15955.000000 -97.666667 15941.333333 -137.000000 15922.000000 -181.000000 C 15903.333333 -225.666667 15881.000000 -270.333333 15855.000000 -315.000000 C 15829.666667 -359.666667 15803.000000 -401.333333 15775.000000 -440.000000z M 16808.000000 -467.000000 C 16825.666667 -458.000000 16843.333333 -449.000000 16861.000000 -440.000000 C 16827.000000 -377.333333 16788.000000 -311.000000 16744.000000 -241.000000 C 16700.666667 -171.000000 16659.666667 -111.666667 16621.000000 -63.000000 C 16606.333333 -70.666667 16591.666667 -78.333333 16577.000000 -86.000000 C 16603.000000 -119.333333 16630.000000 -158.333333 16658.000000 -203.000000 C 16686.000000 -248.333333 16713.333333 -294.333333 16740.000000 -341.000000 C 16767.333333 -387.666667 16790.000000 -429.666667 16808.000000 -467.000000z "/>
</g></svg>
