<?xml version="1.0" ?>
<svg xmlns="http://www.w3.org/2000/svg" version="1.1" width="600" height="600">
  <defs/>
  <g>
    <path stroke-width="0" fill="rgb(0, 0, 0)" opacity="1.0" d="M 175.56210327148438 134.373046875 C 258.1727294921875 134.373046875 340.7833251953125 134.373046875 423.3939208984375 134.373046875 C 423.3939208984375 138.37997436523438 423.3939208984375 142.38687133789062 423.3939208984375 146.39376831054688 C 340.7833251953125 146.39376831054688 258.1727294921875 146.39376831054688 175.56210327148438 146.39376831054688 C 175.56210327148438 142.38687133789062 175.56210327148438 138.37997436523438 175.56210327148438 134.373046875M 170.79611206054688 134.373046875 C 174.6641845703125 134.373046875 178.5322265625 134.373046875 182.4002685546875 134.373046875 C 182.4002685546875 173.75128173828125 182.4002685546875 213.1295166015625 182.4002685546875 252.50775146484375 C 182.4002685546875 268.397216796875 181.77862548828125 285.59930419921875 180.53533935546875 304.114013671875 C 179.43017578125 322.490478515625 177.08169555664062 341.21240234375 173.48992919921875 360.27978515625 C 169.89816284179688 379.208984375 164.648681640625 397.7236328125 157.74142456054688 415.8238525390625 C 150.83419799804688 433.78582763671875 141.50942993164062 450.5733642578125 129.76712036132812 466.1865234375 C 129.3526611328125 465.4957275390625 128.59286499023438 464.6666259765625 127.48773193359375 463.699462890625 C 126.382568359375 462.7322998046875 125.20831298828125 461.76513671875 123.96502685546875 460.79791259765625 C 122.85986328125 459.9688720703125 121.75469970703125 459.278076171875 120.6495361328125 458.72540283203125 C 132.11557006835938 443.5267333984375 141.1640625 427.2918701171875 147.79501342773438 410.020751953125 C 154.42596435546875 392.61138916015625 159.399169921875 374.78759765625 162.71466064453125 356.5491943359375 C 166.03012084960938 338.1727294921875 168.17135620117188 320.210693359375 169.13836669921875 302.6632080078125 C 170.2435302734375 284.9775390625 170.79611206054688 268.2590637207031 170.79611206054688 252.50775146484375 C 170.79611206054688 213.1295166015625 170.79611206054688 173.75128173828125 170.79611206054688 134.373046875M 418.6279296875 134.373046875 C 422.3577880859375 134.373046875 426.0877685546875 134.373046875 429.817626953125 134.373046875 C 430.09393310546875 158.0 430.3702392578125 182.24871826171875 430.646484375 207.11917114257812 C 430.92279052734375 231.8514404296875 431.40625 256.23834228515625 432.0970458984375 280.27978515625 C 432.9259033203125 304.18310546875 434.03106689453125 326.6356201171875 435.4124755859375 347.6373291015625 C 436.7939453125 368.6390380859375 438.58984375 387.1536865234375 440.8001708984375 403.18133544921875 C 443.010498046875 419.208984375 445.77337646484375 431.7823486328125 449.0888671875 440.90155029296875 C 452.404296875 450.158935546875 456.4796142578125 454.78759765625 461.314697265625 454.78759765625 C 464.2156982421875 454.78759765625 466.35693359375 448.2935791015625 467.7384033203125 435.3056640625 C 469.25799560546875 422.17962646484375 470.1558837890625 406.2210693359375 470.4322509765625 387.4300537109375 C 471.81365966796875 388.535400390625 473.47137451171875 389.5716552734375 475.4053955078125 390.538818359375 C 477.3394775390625 391.36785888671875 478.9971923828125 392.0587158203125 480.378662109375 392.61138916015625 C 479.8260498046875 410.9879150390625 478.9971923828125 425.4957275390625 477.89202880859375 436.13470458984375 C 476.925048828125 446.6356201171875 474.990966796875 454.0966796875 472.0899658203125 458.51812744140625 C 469.3270263671875 463.0777587890625 465.32086181640625 465.4957275390625 460.07135009765625 465.77203369140625 C 452.0589599609375 465.77203369140625 445.566162109375 460.2452392578125 440.5928955078125 449.19171142578125 C 435.7578125 438.2763671875 431.9588623046875 422.7322998046875 429.19598388671875 402.5595703125 C 426.43310546875 382.3868408203125 424.42999267578125 358.55267333984375 423.1866455078125 331.0570068359375 C 422.08154296875 303.42315673828125 421.18359375 272.9568176269531 420.49285888671875 239.65802001953125 C 419.8021240234375 206.3592529296875 419.18048095703125 171.26425170898438 418.6279296875 134.373046875M 291.39654541015625 190.53887939453125 C 295.4027099609375 190.53887939453125 299.408935546875 190.53887939453125 303.4151306152344 190.53887939453125 C 303.4151306152344 267.7063903808594 303.4151306152344 344.8739013671875 303.4151306152344 422.04144287109375 C 299.408935546875 422.04144287109375 295.4027099609375 422.04144287109375 291.39654541015625 422.04144287109375 C 291.39654541015625 344.8739013671875 291.39654541015625 267.7063903808594 291.39654541015625 190.53887939453125M 226.95196533203125 255.4093017578125 C 226.95196533203125 281.6614990234375 226.95196533203125 307.91363525390625 226.95196533203125 334.165771484375 C 274.2665710449219 334.165771484375 321.5811767578125 334.165771484375 368.895751953125 334.165771484375 C 368.895751953125 307.91363525390625 368.895751953125 281.6614990234375 368.895751953125 255.4093017578125 C 321.5811767578125 255.4093017578125 274.2665710449219 255.4093017578125 226.95196533203125 255.4093017578125M 214.93338012695312 243.8031005859375 C 270.12225341796875 243.8031005859375 325.31109619140625 243.8031005859375 380.49993896484375 243.8031005859375 C 380.49993896484375 277.86181640625 380.49993896484375 311.9205322265625 380.49993896484375 345.979248046875 C 325.31109619140625 345.979248046875 270.12225341796875 345.979248046875 214.93338012695312 345.979248046875 C 214.93338012695312 311.9205322265625 214.93338012695312 277.86181640625 214.93338012695312 243.8031005859375M 376.97723388671875 169.8134765625 C 380.7762451171875 172.71502685546875 384.5751953125 175.6165771484375 388.37420654296875 178.51812744140625 C 373.5926513671875 182.8013916015625 355.979248046875 186.60101318359375 335.5338134765625 189.9171142578125 C 315.08837890625 193.233154296875 293.6759033203125 196.06561279296875 271.29644775390625 198.41448974609375 C 248.9169921875 200.76339721679688 227.228271484375 202.766845703125 206.23025512695312 204.42486572265625 C 205.9539794921875 203.04318237304688 205.40139770507812 201.3851318359375 204.572509765625 199.45077514648438 C 203.88180541992188 197.51641845703125 202.98385620117188 195.85836791992188 201.87869262695312 194.4766845703125 C 217.2127685546875 193.09500122070312 233.09942626953125 191.64422607421875 249.53866577148438 190.12432861328125 C 265.9779052734375 188.46630859375 282.14080810546875 186.60101318359375 298.0274658203125 184.52850341796875 C 314.05224609375 182.45596313476562 328.833740234375 180.17617797851562 342.3719482421875 177.68911743164062 C 355.91015625 175.06390380859375 367.44525146484375 172.43869018554688 376.97723388671875 169.8134765625M 184.26522827148438 422.4559326171875 C 200.7044677734375 421.626953125 219.97564697265625 420.5906982421875 242.078857421875 419.34716796875 C 264.32012939453125 417.9654541015625 288.150146484375 416.445556640625 313.56878662109375 414.78759765625 C 339.1256103515625 412.9913330078125 364.8895263671875 411.3333740234375 390.86083984375 409.8134765625 C 390.72265625 413.6131591796875 390.58447265625 417.41278076171875 390.44635009765625 421.21240234375 C 365.30401611328125 422.8704833984375 340.230712890625 424.52850341796875 315.22650146484375 426.1865234375 C 290.3604431152344 427.7064208984375 266.7376708984375 429.22625732421875 244.35821533203125 430.74609375 C 222.11691284179688 432.1278076171875 202.5003662109375 433.371337890625 185.508544921875 434.4766845703125 C 185.0941162109375 430.46978759765625 184.6796875 426.462890625 184.26522827148438 422.4559326171875M 347.137939453125 368.3626708984375 C 350.3153076171875 366.91192626953125 353.49261474609375 365.46112060546875 356.669921875 364.0103759765625 C 365.0968017578125 372.438720703125 373.17822265625 381.834228515625 380.91436767578125 392.1968994140625 C 388.6505126953125 402.5595703125 395.5577392578125 412.85321044921875 401.6361083984375 423.0777587890625 C 407.7144775390625 433.30224609375 412.0660400390625 442.628662109375 414.6907958984375 451.0570068359375 C 411.2371826171875 452.78411865234375 407.7835693359375 454.51123046875 404.3299560546875 456.23834228515625 C 401.4288330078125 447.81005859375 397.00823974609375 438.48358154296875 391.0679931640625 428.259033203125 C 385.1278076171875 418.0345458984375 378.358642578125 407.671875 370.7607421875 397.1710205078125 C 363.16278076171875 386.67010498046875 355.28851318359375 377.0673828125 347.137939453125 368.3626708984375"/>
  </g>
</svg>
