<?xml version="1.0" encoding="utf-8"?>
<svg xmlns="http://www.w3.org/2000/svg" xmlns:ev="http://www.w3.org/2001/xml-events" xmlns:xlink="http://www.w3.org/1999/xlink" version="1.1" baseProfile="full" width="49628.0" height="1744.0" viewBox="213.0 -1596.0 49628.0 1744.0">
<defs/>
<g><path d="M 27804.000000 -580.000000 C 28074.000000 -580.000000 28344.000000 -580.000000 28614.000000 -580.000000 C 28614.000000 -345.666667 28614.000000 -111.333333 28614.000000 123.000000 C 28594.666667 123.000000 28575.333333 123.000000 28556.000000 123.000000 C 28556.000000 -92.666667 28556.000000 -308.333333 28556.000000 -524.000000 C 28324.333333 -524.000000 28092.666667 -524.000000 27861.000000 -524.000000 C 27861.000000 -304.666667 27861.000000 -85.333333 27861.000000 134.000000 C 27842.000000 134.000000 27823.000000 134.000000 27804.000000 134.000000 C 27804.000000 -104.000000 27804.000000 -342.000000 27804.000000 -580.000000z M 28579.000000 -1553.000000 C 28595.000000 -1537.000000 28611.000000 -1521.000000 28627.000000 -1505.000000 C 28558.333333 -1485.000000 28475.000000 -1466.333333 28377.000000 -1449.000000 C 28279.000000 -1431.666667 28176.333333 -1416.000000 28069.000000 -1402.000000 C 27962.333333 -1388.666667 27859.666667 -1377.666667 27761.000000 -1369.000000 C 27759.666667 -1375.666667 27757.000000 -1383.333333 27753.000000 -1392.000000 C 27749.666667 -1400.666667 27746.000000 -1409.000000 27742.000000 -1417.000000 C 27815.333333 -1424.333333 27891.000000 -1432.333333 27969.000000 -1441.000000 C 28047.000000 -1450.333333 28124.000000 -1461.000000 28200.000000 -1473.000000 C 28276.000000 -1485.666667 28346.666667 -1498.333333 28412.000000 -1511.000000 C 28477.333333 -1523.666667 28533.000000 -1537.666667 28579.000000 -1553.000000z M 28168.000000 -1440.000000 C 28186.666667 -1440.000000 28205.333333 -1440.000000 28224.000000 -1440.000000 C 28224.000000 -1143.000000 28224.000000 -846.000000 28224.000000 -549.000000 C 28205.333333 -549.000000 28186.666667 -549.000000 28168.000000 -549.000000 C 28168.000000 -846.000000 28168.000000 -1143.000000 28168.000000 -1440.000000z M 27679.000000 -1031.000000 C 28024.000000 -1031.000000 28369.000000 -1031.000000 28714.000000 -1031.000000 C 28714.000000 -1012.333333 28714.000000 -993.666667 28714.000000 -975.000000 C 28369.000000 -975.000000 28024.000000 -975.000000 27679.000000 -975.000000 C 27679.000000 -993.666667 27679.000000 -1012.333333 27679.000000 -1031.000000z M 27836.000000 -21.000000 C 28087.666667 -21.000000 28339.333333 -21.000000 28591.000000 -21.000000 C 28591.000000 -2.333333 28591.000000 16.333333 28591.000000 35.000000 C 28339.333333 35.000000 28087.666667 35.000000 27836.000000 35.000000 C 27836.000000 16.333333 27836.000000 -2.333333 27836.000000 -21.000000z M 27059.000000 -1014.000000 C 27240.666667 -1014.000000 27422.333333 -1014.000000 27604.000000 -1014.000000 C 27604.000000 -995.333333 27604.000000 -976.666667 27604.000000 -958.000000 C 27422.333333 -958.000000 27240.666667 -958.000000 27059.000000 -958.000000 C 27059.000000 -976.666667 27059.000000 -995.333333 27059.000000 -1014.000000z M 27070.000000 -1519.000000 C 27246.000000 -1519.000000 27422.000000 -1519.000000 27598.000000 -1519.000000 C 27598.000000 -1500.333333 27598.000000 -1481.666667 27598.000000 -1463.000000 C 27422.000000 -1463.000000 27246.000000 -1463.000000 27070.000000 -1463.000000 C 27070.000000 -1481.666667 27070.000000 -1500.333333 27070.000000 -1519.000000z M 27059.000000 -758.000000 C 27240.666667 -758.000000 27422.333333 -758.000000 27604.000000 -758.000000 C 27604.000000 -739.666667 27604.000000 -721.333333 27604.000000 -703.000000 C 27422.333333 -703.000000 27240.666667 -703.000000 27059.000000 -703.000000 C 27059.000000 -721.333333 27059.000000 -739.666667 27059.000000 -758.000000z M 26970.000000 -1271.000000 C 27202.333333 -1271.000000 27434.666667 -1271.000000 27667.000000 -1271.000000 C 27667.000000 -1251.666667 27667.000000 -1232.333333 27667.000000 -1213.000000 C 27434.666667 -1213.000000 27202.333333 -1213.000000 26970.000000 -1213.000000 C 26970.000000 -1232.333333 26970.000000 -1251.666667 26970.000000 -1271.000000z M 27089.000000 -503.000000 C 27261.333333 -503.000000 27433.666667 -503.000000 27606.000000 -503.000000 C 27606.000000 -324.333333 27606.000000 -145.666667 27606.000000 33.000000 C 27433.666667 33.000000 27261.333333 33.000000 27089.000000 33.000000 C 27089.000000 14.333333 27089.000000 -4.333333 27089.000000 -23.000000 C 27242.000000 -23.000000 27395.000000 -23.000000 27548.000000 -23.000000 C 27548.000000 -163.666667 27548.000000 -304.333333 27548.000000 -445.000000 C 27395.000000 -445.000000 27242.000000 -445.000000 27089.000000 -445.000000 C 27089.000000 -464.333333 27089.000000 -483.666667 27089.000000 -503.000000z M 27059.000000 -503.000000 C 27078.000000 -503.000000 27097.000000 -503.000000 27116.000000 -503.000000 C 27116.000000 -291.333333 27116.000000 -79.666667 27116.000000 132.000000 C 27097.000000 132.000000 27078.000000 132.000000 27059.000000 132.000000 C 27059.000000 -79.666667 27059.000000 -291.333333 27059.000000 -503.000000z "/>
</g></svg>
