<?xml version="1.0" ?>
<svg xmlns="http://www.w3.org/2000/svg" version="1.1" width="600" height="600">
  <defs/>
  <g>
    <path stroke-width="0" fill="rgb(0, 0, 0)" opacity="1.0" d="M 389.592041015625 153.06756591796875 C 389.32177734375 155.3648681640625 389.119140625 157.8648681640625 388.98388671875 160.56756591796875 C 388.8486328125 163.27029418945312 388.7138671875 165.97296142578125 388.57861328125 168.67568969726562 C 388.443359375 171.24322509765625 388.3759765625 173.6756591796875 388.3759765625 175.97296142578125 C 388.3759765625 183.270263671875 388.3759765625 191.44595336914062 388.3759765625 200.5 C 388.3759765625 209.55404663085938 388.308349609375 218.47296142578125 388.173095703125 227.25677490234375 C 388.0380859375 235.9053955078125 387.835205078125 243.60809326171875 387.56494140625 250.3648681640625 C 387.294921875 258.60809326171875 386.95703125 268.33782958984375 386.5517578125 279.5540771484375 C 386.28125 290.6351318359375 385.808349609375 301.4459228515625 385.1328125 311.9864501953125 C 384.45703125 322.52703857421875 383.30859375 331.310791015625 381.68701171875 338.33782958984375 C 380.470703125 345.229736328125 377.835693359375 350.16217041015625 373.78173828125 353.1351318359375 C 369.72802734375 355.97296142578125 363.849609375 357.39190673828125 356.1474609375 357.39190673828125 C 351.1474609375 357.39190673828125 345.6748046875 357.0540771484375 339.72900390625 356.37841796875 C 333.783447265625 355.70269775390625 328.242919921875 355.02703857421875 323.10791015625 354.351318359375 C 318.108154296875 353.54052734375 314.32470703125 352.8648681640625 311.75732421875 352.3243408203125 C 311.892333984375 348.54052734375 312.02734375 344.7567138671875 312.16259765625 340.97296142578125 C 319.5947265625 342.729736328125 327.162109375 344.0810546875 334.8642578125 345.02703857421875 C 342.56689453125 345.97296142578125 348.850341796875 346.4459228515625 353.71484375 346.4459228515625 C 359.66064453125 346.4459228515625 363.917236328125 345.70269775390625 366.48486328125 344.2161865234375 C 369.1875 342.5946044921875 370.944091796875 339.2838134765625 371.7548828125 334.2838134765625 C 372.70068359375 329.148681640625 373.51171875 321.851318359375 374.187255859375 312.39190673828125 C 374.86279296875 302.93243408203125 375.470703125 292.729736328125 376.011474609375 281.7837829589844 C 376.68701171875 270.70269775390625 377.02490234375 260.43243408203125 377.02490234375 250.97296142578125 C 377.295166015625 243.270263671875 377.43017578125 234.89190673828125 377.43017578125 225.83782958984375 C 377.43017578125 216.64862060546875 377.43017578125 207.66217041015625 377.43017578125 198.87838745117188 C 377.43017578125 190.09457397460938 377.43017578125 182.45947265625 377.43017578125 175.97296142578125 C 377.43017578125 173.40542602539062 377.36279296875 170.77029418945312 377.2275390625 168.06756591796875 C 377.09228515625 165.229736328125 376.95751953125 162.52700805664062 376.822265625 159.95947265625 C 376.822265625 157.39190673828125 376.552001953125 155.0946044921875 376.011474609375 153.06756591796875 C 380.5380859375 153.06756591796875 385.065185546875 153.06756591796875 389.592041015625 153.06756591796875M 235.138427734375 165.83782958984375 C 234.8682861328125 168.4053955078125 234.66552734375 171.91891479492188 234.5303955078125 176.37838745117188 C 234.3951416015625 180.70272827148438 234.32763671875 184.68917846679688 234.32763671875 188.33782958984375 C 234.32763671875 197.93243408203125 234.2601318359375 209.689208984375 234.125 223.60809326171875 C 233.98974609375 237.52703857421875 233.854736328125 252.05404663085938 233.7196044921875 267.189208984375 C 233.5843505859375 282.3243408203125 233.516845703125 296.9189453125 233.516845703125 310.97296142578125 C 233.516845703125 325.02703857421875 233.516845703125 337.39190673828125 233.516845703125 348.06756591796875 C 233.516845703125 358.60809326171875 233.652099609375 366.10809326171875 233.9222412109375 370.56756591796875 C 234.462890625 381.9189453125 235.138427734375 391.7838134765625 235.94921875 400.16217041015625 C 236.895263671875 408.4053955078125 239.5302734375 415.29730224609375 243.8543701171875 420.83782958984375 C 248.178466796875 426.2432861328125 255.4754638671875 430.29730224609375 265.745361328125 433.0 C 276.150390625 435.70269775390625 290.8121337890625 437.0540771484375 309.730224609375 437.0540771484375 C 325.270263671875 437.0540771484375 340.40478515625 436.7161865234375 355.1337890625 436.04052734375 C 369.998046875 435.229736328125 383.51123046875 434.2161865234375 395.6728515625 433.0 C 407.9697265625 431.648681640625 417.7666015625 430.29730224609375 425.0634765625 428.9459228515625 C 424.928466796875 433.06756591796875 424.79345703125 437.189208984375 424.658203125 441.310791015625 C 416.009765625 442.12158203125 405.334716796875 443.06756591796875 392.63232421875 444.148681640625 C 379.93017578125 445.0946044921875 366.349609375 445.97296142578125 351.890625 446.7838134765625 C 337.56689453125 447.5946044921875 323.37841796875 448.0 309.32470703125 448.0 C 289.595947265625 448.0 273.9884033203125 446.648681640625 262.5023193359375 443.9459228515625 C 251.1513671875 441.2432861328125 242.7733154296875 436.9189453125 237.3681640625 430.97296142578125 C 231.962890625 424.89190673828125 228.382080078125 416.9189453125 226.625244140625 407.0540771484375 C 225.003662109375 397.189208984375 223.9227294921875 385.29730224609375 223.3822021484375 371.37841796875 C 223.3822021484375 365.83782958984375 223.314697265625 357.93243408203125 223.179443359375 347.66217041015625 C 223.0443115234375 337.25677490234375 222.976806640625 325.5 222.976806640625 312.39190673828125 C 222.976806640625 299.2837829589844 222.976806640625 285.9053955078125 222.976806640625 272.25677490234375 C 222.976806640625 258.60809326171875 223.0443115234375 245.83782958984375 223.179443359375 233.94595336914062 C 223.314697265625 222.0540771484375 223.3822021484375 212.0540771484375 223.3822021484375 203.94595336914062 C 223.3822021484375 195.70269775390625 223.3822021484375 190.5 223.3822021484375 188.33782958984375 C 223.3822021484375 184.68917846679688 223.314697265625 181.24325561523438 223.179443359375 178.0 C 223.0443115234375 174.75674438476562 222.5714111328125 170.70269775390625 221.7606201171875 165.83782958984375 C 226.2198486328125 165.83782958984375 230.67919921875 165.83782958984375 235.138427734375 165.83782958984375M 132.3720703125 264.3513488769531 C 139.128662109375 264.3513488769531 145.141845703125 264.1486511230469 150.4119873046875 263.74322509765625 C 155.6820068359375 263.33782958984375 160.41162109375 263.0 164.6005859375 262.729736328125 C 173.654296875 261.9189147949219 186.3565673828125 260.770263671875 202.707275390625 259.2837829589844 C 219.05810546875 257.66217041015625 237.57080078125 255.83782958984375 258.2457275390625 253.810791015625 C 278.9205322265625 251.78378295898438 300.3387451171875 249.8243408203125 322.5 247.93243408203125 C 344.6611328125 245.9053955078125 366.2822265625 244.08108520507812 387.3623046875 242.45947265625 C 408.577880859375 240.70269775390625 427.63134765625 239.41891479492188 444.5224609375 238.60809326171875 C 449.38720703125 238.33782958984375 453.6435546875 238.1351318359375 457.2919921875 238.0 C 460.940673828125 237.8648681640625 464.4541015625 237.66217041015625 467.832275390625 237.39190673828125 C 467.832275390625 241.91891479492188 467.832275390625 246.44595336914062 467.832275390625 250.97296142578125 C 466.210693359375 250.83782958984375 464.18359375 250.770263671875 461.75146484375 250.770263671875 C 459.319091796875 250.770263671875 456.61669921875 250.770263671875 453.6435546875 250.770263671875 C 450.670654296875 250.770263671875 447.63037109375 250.770263671875 444.5224609375 250.770263671875 C 433.84716796875 250.770263671875 420.80712890625 251.24322509765625 405.40234375 252.189208984375 C 390.132568359375 253.0 373.5791015625 254.14865112304688 355.741943359375 255.6351318359375 C 338.0400390625 256.98651123046875 319.9326171875 258.54052734375 301.419677734375 260.29730224609375 C 282.906982421875 261.9189147949219 265.0020751953125 263.6756591796875 247.70556640625 265.56756591796875 C 230.408935546875 267.3243408203125 214.666259765625 269.0135192871094 200.4776611328125 270.6351318359375 C 186.424072265625 272.1216125488281 174.8704833984375 273.4053955078125 165.8167724609375 274.4864807128906 C 161.89794921875 275.02703857421875 158.1820068359375 275.5 154.6685791015625 275.9053955078125 C 151.1551513671875 276.1756591796875 147.7093505859375 276.5810852050781 144.3311767578125 277.12164306640625 C 140.952880859375 277.66217041015625 137.439453125 278.20269775390625 133.791015625 278.74322509765625 C 133.3179931640625 273.9459228515625 132.8450927734375 269.1486511230469 132.3720703125 264.3513488769531"/>
  </g>
</svg>
