<?xml version="1.0" ?>
<svg xmlns="http://www.w3.org/2000/svg" version="1.1" width="600" height="600">
  <defs/>
  <g>
    <path stroke-width="0" fill="rgb(0, 0, 0)" opacity="1.0" d="M 237.8565673828125 129.4019775390625 C 237.557861328125 131.64218139648438 237.3338623046875 133.88238525390625 237.1845703125 136.12258911132812 C 237.0352783203125 138.21343994140625 236.8858642578125 140.52828979492188 236.736572265625 143.06719970703125 C 236.5872802734375 145.45672607421875 236.4378662109375 148.21966552734375 236.28857421875 151.35592651367188 C 236.28857421875 155.68701171875 236.0645751953125 163.60235595703125 235.616455078125 175.10205078125 C 235.16845703125 186.452392578125 234.720458984375 199.74423217773438 234.2724609375 214.97760009765625 C 233.8243408203125 230.2109375 233.4510498046875 245.59365844726562 233.15234375 261.1257019042969 C 232.8536376953125 276.5084228515625 232.704345703125 290.39764404296875 232.704345703125 302.79339599609375 C 232.704345703125 313.3970031738281 232.779052734375 324.896728515625 232.9283447265625 337.29248046875 C 233.07763671875 349.53887939453125 233.3016357421875 361.71063232421875 233.600341796875 373.8077392578125 C 233.8990478515625 385.75543212890625 234.1231689453125 397.0311279296875 234.2724609375 407.634765625 C 234.4217529296875 418.23834228515625 234.4964599609375 427.12445068359375 234.4964599609375 434.2930908203125 C 234.4964599609375 443.25390625 233.3016357421875 450.4971923828125 230.9122314453125 456.02301025390625 C 228.672119140625 461.548828125 225.461181640625 465.5811767578125 221.2796630859375 468.1201171875 C 217.09814453125 470.808349609375 211.8712158203125 472.1524658203125 205.598876953125 472.1524658203125 C 199.3265380859375 472.1524658203125 191.7847900390625 470.4349365234375 182.9736328125 467.0 C 174.311767578125 463.5650634765625 165.724609375 459.00994873046875 157.212158203125 453.33477783203125 C 148.8489990234375 447.51025390625 141.8299560546875 440.93902587890625 136.155029296875 433.62103271484375 C 130.62939453125 426.30303955078125 127.8665771484375 418.76104736328125 127.8665771484375 410.9949951171875 C 127.8665771484375 399.6446533203125 132.49609375 388.3690185546875 141.7552490234375 377.16802978515625 C 151.0145263671875 365.967041015625 162.9617919921875 355.51275634765625 177.5972900390625 345.80523681640625 C 192.2327880859375 335.9483642578125 207.3162841796875 327.8836669921875 222.8477783203125 321.611083984375 C 242.41162109375 313.2476806640625 262.27392578125 306.97509765625 282.43505859375 302.79339599609375 C 302.59619140625 298.46234130859375 321.5625 296.29681396484375 339.334228515625 296.29681396484375 C 359.495361328125 296.29681396484375 376.8189697265625 299.6571044921875 391.30517578125 306.3777160644531 C 405.791259765625 313.09832763671875 416.9918212890625 322.3577880859375 424.906982421875 334.15618896484375 C 432.971435546875 345.80523681640625 437.003662109375 358.94775390625 437.003662109375 373.58367919921875 C 437.003662109375 391.0572509765625 433.046142578125 405.991943359375 425.1309814453125 418.3876953125 C 417.365234375 430.783447265625 406.761962890625 440.8643798828125 393.3211669921875 448.63037109375 C 380.02978515625 456.2470703125 365.095703125 461.9222412109375 348.518798828125 465.6558837890625 C 339.259521484375 467.7467041015625 330.1497802734375 469.01617431640625 321.189208984375 469.4642333984375 C 312.3780517578125 470.0616455078125 304.8363037109375 470.36029052734375 298.56396484375 470.36029052734375 C 296.995849609375 465.95458984375 295.4278564453125 461.548828125 293.8597412109375 457.14312744140625 C 300.4307861328125 457.4417724609375 307.8978271484375 457.5164794921875 316.260986328125 457.3671875 C 324.7734375 457.2177734375 333.5098876953125 456.09765625 342.470458984375 454.0068359375 C 355.9111328125 451.16925048828125 368.8292236328125 446.61419677734375 381.224609375 440.3416748046875 C 393.769287109375 434.069091796875 403.9991455078125 425.48162841796875 411.914306640625 414.579345703125 C 419.829345703125 403.677001953125 423.786865234375 390.1611328125 423.786865234375 374.03173828125 C 423.786865234375 359.395751953125 419.829345703125 347.2239990234375 411.914306640625 337.5164794921875 C 403.9991455078125 327.8089599609375 393.5452880859375 320.565673828125 380.552490234375 315.78656005859375 C 367.7091064453125 310.8581237792969 353.9697265625 308.3939208984375 339.334228515625 308.3939208984375 C 319.3223876953125 308.3939208984375 300.50537109375 310.4847412109375 282.883056640625 314.66644287109375 C 265.2608642578125 318.6988220214844 246.369140625 324.896728515625 226.2080078125 333.2601318359375 C 211.423095703125 338.935302734375 197.534423828125 346.2532958984375 184.5416259765625 355.21405029296875 C 171.6982421875 364.0255126953125 161.3936767578125 373.35968017578125 153.6279296875 383.216552734375 C 145.8621826171875 392.924072265625 141.979248046875 402.03424072265625 141.979248046875 410.5469970703125 C 141.979248046875 416.9688720703125 144.144775390625 423.09210205078125 148.4757080078125 428.9166259765625 C 152.806640625 434.591796875 158.2574462890625 439.6695556640625 164.82861328125 444.14996337890625 C 171.399658203125 448.48101806640625 178.269287109375 451.99066162109375 185.437744140625 454.67889404296875 C 192.6060791015625 457.2177734375 198.87841796875 458.48724365234375 204.2547607421875 458.48724365234375 C 210.3778076171875 458.48724365234375 214.8580322265625 456.17236328125 217.695556640625 451.5426025390625 C 220.532958984375 446.912841796875 221.9517822265625 441.3123779296875 221.9517822265625 434.7410888671875 C 221.9517822265625 425.6309814453125 221.802490234375 413.533935546875 221.503662109375 398.44989013671875 C 221.2049560546875 383.36590576171875 220.9063720703125 367.46044921875 220.607666015625 350.733642578125 C 220.3089599609375 333.85748291015625 220.15966796875 318.25079345703125 220.15966796875 303.91351318359375 C 220.15966796875 291.368408203125 220.3089599609375 277.3298034667969 220.607666015625 261.7977600097656 C 220.9063720703125 246.11636352539062 221.2049560546875 230.58428955078125 221.503662109375 215.20159912109375 C 221.802490234375 199.81893920898438 222.10107421875 186.452392578125 222.3997802734375 175.10205078125 C 222.698486328125 163.60235595703125 222.8477783203125 155.98568725585938 222.8477783203125 152.25201416015625 C 222.8477783203125 149.26507568359375 222.7730712890625 146.502197265625 222.623779296875 143.96328735351562 C 222.4744873046875 141.42437744140625 222.3250732421875 138.885498046875 222.17578125 136.34661865234375 C 222.0264892578125 133.65835571289062 221.653076171875 131.34347534179688 221.0556640625 129.4019775390625 C 226.656005859375 129.4019775390625 232.25634765625 129.4019775390625 237.8565673828125 129.4019775390625M 382.3446044921875 178.01431274414062 C 391.9024658203125 183.39077758789062 402.5057373046875 190.03671264648438 414.1544189453125 197.95208740234375 C 425.9522705078125 205.86746215820312 437.2276611328125 213.85748291015625 447.980224609375 221.92221069335938 C 458.7327880859375 229.83758544921875 467.0960693359375 236.85687255859375 473.0697021484375 242.9801025390625 C 470.232177734375 246.7137451171875 467.3946533203125 250.44741821289062 464.55712890625 254.18109130859375 C 459.180908203125 248.3565673828125 452.8338623046875 242.4573974609375 445.51611328125 236.4835205078125 C 438.1983642578125 230.5096435546875 430.4326171875 224.6104736328125 422.2188720703125 218.78594970703125 C 414.005126953125 212.81207275390625 405.791259765625 207.21157836914062 397.5775146484375 201.98443603515625 C 389.5130615234375 196.60797119140625 381.8966064453125 191.90353393554688 374.7281494140625 187.87118530273438 C 377.26708984375 184.5855712890625 379.8057861328125 181.2999267578125 382.3446044921875 178.01431274414062M 130.3306884765625 213.1854248046875 C 141.2325439453125 214.67889404296875 150.342529296875 215.72433471679688 157.66015625 216.32171630859375 C 164.9779052734375 216.769775390625 172.6690673828125 216.9937744140625 180.7333984375 216.9937744140625 C 190.7392578125 216.9937744140625 202.2386474609375 216.4710693359375 215.2313232421875 215.42562866210938 C 228.3734130859375 214.2308349609375 241.8887939453125 212.6627197265625 255.777587890625 210.72122192382812 C 269.6663818359375 208.63034057617188 283.181884765625 206.1661376953125 296.3238525390625 203.32855224609375 C 309.615234375 200.49099731445312 321.4132080078125 197.5040283203125 331.7177734375 194.36776733398438 C 331.8670654296875 198.9228515625 332.0164794921875 203.4779052734375 332.1658935546875 208.03298950195312 C 322.0106201171875 210.57186889648438 310.287353515625 213.11074829101562 296.995849609375 215.649658203125 C 283.7044677734375 218.0391845703125 269.965087890625 220.27938842773438 255.777587890625 222.3702392578125 C 241.590087890625 224.311767578125 227.9254150390625 225.95458984375 214.7833251953125 227.2987060546875 C 201.7906494140625 228.49346923828125 190.440673828125 229.09085083007812 180.7333984375 229.09085083007812 C 170.7276611328125 229.09085083007812 161.6923828125 228.8668212890625 153.6279296875 228.41879272460938 C 145.5634765625 227.97076416015625 137.9471435546875 227.522705078125 130.7786865234375 227.07467651367188 C 130.62939453125 222.4449462890625 130.47998046875 217.815185546875 130.3306884765625 213.1854248046875"/>
  </g>
</svg>
