<?xml version="1.0" ?>
<svg xmlns="http://www.w3.org/2000/svg" version="1.1" width="600" height="600">
  <defs/>
  <g>
    <path stroke-width="0" fill="rgb(0, 0, 0)" opacity="1.0" d="M 310.6904296875 128.34661865234375 C 310.3916015625 130.28811645507812 310.0185546875 133.49905395507812 309.5703125 137.97946166992188 C 309.1220703125 142.31051635742188 308.7490234375 146.86557006835938 308.4501953125 151.64468383789062 C 308.1513671875 156.42376708984375 308.00244140625 160.38143920898438 308.00244140625 163.51773071289062 C 308.00244140625 172.62786865234375 308.00244140625 185.24765014648438 308.00244140625 201.37710571289062 C 308.00244140625 217.357177734375 308.00244140625 234.00933837890625 308.00244140625 251.33355712890625 C 308.00244140625 262.68389892578125 308.30126953125 275.8263854980469 308.8984375 290.76104736328125 C 309.49560546875 305.6957092285156 310.09326171875 321.00372314453125 310.6904296875 336.68511962890625 C 311.28759765625 352.2171630859375 311.810546875 367.00250244140625 312.25830078125 381.04107666015625 C 312.85546875 394.9302978515625 313.154296875 406.72869873046875 313.154296875 416.43621826171875 C 313.154296875 424.5009765625 311.73583984375 431.8935546875 308.8984375 438.61419677734375 C 306.06103515625 445.33477783203125 301.8046875 451.2340087890625 296.12939453125 456.311767578125 C 290.60400390625 461.240234375 283.73388671875 465.1231689453125 275.5205078125 467.9608154296875 C 267.4560546875 470.94775390625 258.1220703125 472.441162109375 247.51904296875 472.441162109375 C 228.552734375 472.441162109375 211.9755859375 470.425048828125 197.7880859375 466.3927001953125 C 183.6005859375 462.36029052734375 172.6240234375 456.0877685546875 164.8583984375 447.574951171875 C 157.0927734375 439.062255859375 153.20947265625 428.234619140625 153.20947265625 415.09210205078125 C 153.20947265625 404.1898193359375 156.56982421875 394.18359375 163.2900390625 385.07342529296875 C 170.0107421875 375.81396484375 180.6884765625 368.4212646484375 195.32421875 362.89544677734375 C 209.95947265625 357.22027587890625 228.92578125 354.3826904296875 252.22314453125 354.3826904296875 C 272.23486328125 354.3826904296875 291.6494140625 356.69757080078125 310.46630859375 361.32733154296875 C 329.283203125 365.95703125 347.12939453125 372.1549072265625 364.00537109375 379.92095947265625 C 380.880859375 387.68701171875 396.4873046875 396.34912109375 410.82373046875 405.90728759765625 C 425.16064453125 415.4654541015625 437.7802734375 425.09832763671875 448.68212890625 434.80584716796875 C 445.99365234375 439.2862548828125 443.3056640625 443.7666015625 440.61767578125 448.2470703125 C 430.01416015625 437.3447265625 417.619140625 427.039794921875 403.431640625 417.332275390625 C 389.244140625 407.47540283203125 373.86181640625 398.8133544921875 357.28515625 391.345947265625 C 340.857421875 383.72930908203125 323.68310546875 377.75543212890625 305.76220703125 373.42437744140625 C 287.84130859375 369.09332275390625 269.84521484375 366.9278564453125 251.77490234375 366.9278564453125 C 223.99755859375 366.9278564453125 202.71630859375 371.408203125 187.931640625 380.3690185546875 C 173.14697265625 389.18048095703125 165.75439453125 400.75482177734375 165.75439453125 415.09210205078125 C 165.75439453125 428.234619140625 172.39990234375 439.062255859375 185.69140625 447.574951171875 C 198.98291015625 456.0877685546875 218.84521484375 460.3441162109375 245.27880859375 460.3441162109375 C 263.05078125 460.3441162109375 276.78955078125 456.16241455078125 286.4970703125 447.79901123046875 C 296.353515625 439.43560791015625 301.28173828125 427.5625 301.28173828125 412.1798095703125 C 301.28173828125 403.81640625 300.98291015625 392.98876953125 300.3857421875 379.69696044921875 C 299.78857421875 366.2557373046875 299.19091796875 351.91845703125 298.59375 336.68511962890625 C 297.99658203125 321.30242919921875 297.39892578125 306.14373779296875 296.8017578125 291.2091064453125 C 296.353515625 276.2744140625 296.12939453125 262.9825744628906 296.12939453125 251.33355712890625 C 296.12939453125 243.26882934570312 296.12939453125 233.561279296875 296.12939453125 222.2109375 C 296.12939453125 210.860595703125 296.12939453125 199.73428344726562 296.12939453125 188.83197021484375 C 296.12939453125 177.9296875 296.12939453125 169.4915771484375 296.12939453125 163.51773071289062 C 296.12939453125 160.082763671875 295.98046875 156.05038452148438 295.681640625 151.420654296875 C 295.3828125 146.64157104492188 295.08447265625 142.01181030273438 294.78564453125 137.53143310546875 C 294.48681640625 133.051025390625 294.03857421875 129.98944091796875 293.44140625 128.34661865234375 C 299.19091796875 128.34661865234375 304.94091796875 128.34661865234375 310.6904296875 128.34661865234375M 299.04150390625 219.522705078125 C 307.40478515625 219.522705078125 317.41064453125 219.37335205078125 329.0595703125 219.07467651367188 C 340.857421875 218.77597045898438 353.32763671875 218.2532958984375 366.46923828125 217.50653076171875 C 379.76123046875 216.75979614257812 392.9775390625 215.86370849609375 406.11962890625 214.81829833984375 C 419.4111328125 213.62350463867188 431.58203125 212.27938842773438 442.6337890625 210.78594970703125 C 442.78271484375 215.26632690429688 442.9326171875 219.74673461914062 443.08154296875 224.22711181640625 C 431.880859375 225.27255249023438 419.78466796875 226.3179931640625 406.79150390625 227.3634033203125 C 393.798828125 228.4088134765625 380.6572265625 229.30490112304688 367.36572265625 230.0516357421875 C 354.2236328125 230.6490478515625 341.6787109375 231.1717529296875 329.7314453125 231.61978149414062 C 317.93359375 232.06781005859375 307.70361328125 232.29183959960938 299.04150390625 232.29183959960938 C 299.04150390625 228.03546142578125 299.04150390625 223.77908325195312 299.04150390625 219.522705078125"/>
  </g>
</svg>
