<?xml version="1.0" encoding="utf-8"?>
<svg xmlns="http://www.w3.org/2000/svg" xmlns:ev="http://www.w3.org/2001/xml-events" xmlns:xlink="http://www.w3.org/1999/xlink" version="1.1" baseProfile="full" width="34199.0" height="1607.0" viewBox="282.0 -1509.0 34199.0 1607.0">
<defs/>
<g><path d="M 359.000000 -1308.000000 C 357.666667 -1300.000000 356.333333 -1288.000000 355.000000 -1272.000000 C 353.666667 -1256.000000 352.666667 -1238.666667 352.000000 -1220.000000 C 351.333333 -1201.333333 350.333333 -1184.333333 349.000000 -1169.000000 C 348.333333 -1131.000000 348.000000 -1084.000000 348.000000 -1028.000000 C 348.666667 -972.666667 350.333333 -913.333333 353.000000 -850.000000 C 355.666667 -787.333333 359.666667 -726.666667 365.000000 -668.000000 C 377.666667 -546.666667 399.333333 -440.666667 430.000000 -350.000000 C 460.666667 -260.000000 497.666667 -190.333333 541.000000 -141.000000 C 585.000000 -91.666667 632.666667 -67.000000 684.000000 -67.000000 C 709.333333 -67.000000 734.666667 -77.000000 760.000000 -97.000000 C 786.000000 -117.000000 810.666667 -145.000000 834.000000 -181.000000 C 858.000000 -217.666667 880.333333 -260.666667 901.000000 -310.000000 C 922.333333 -359.333333 940.666667 -412.666667 956.000000 -470.000000 C 972.000000 -456.666667 988.000000 -443.333333 1004.000000 -430.000000 C 969.333333 -325.333333 933.666667 -242.000000 897.000000 -180.000000 C 861.000000 -118.666667 825.000000 -74.666667 789.000000 -48.000000 C 753.000000 -21.333333 717.333333 -8.000000 682.000000 -8.000000 C 632.000000 -8.000000 581.666667 -29.000000 531.000000 -71.000000 C 480.333333 -113.000000 435.666667 -181.666667 397.000000 -277.000000 C 359.000000 -372.333333 331.000000 -500.000000 313.000000 -660.000000 C 307.666667 -712.666667 303.333333 -771.333333 300.000000 -836.000000 C 297.333333 -900.666667 295.333333 -962.666667 294.000000 -1022.000000 C 292.666667 -1082.000000 292.000000 -1129.333333 292.000000 -1164.000000 C 292.000000 -1181.333333 291.666667 -1206.333333 291.000000 -1239.000000 C 290.333333 -1271.666667 287.333333 -1295.666667 282.000000 -1311.000000 C 307.666667 -1310.000000 333.333333 -1309.000000 359.000000 -1308.000000z M 1398.000000 -1244.000000 C 1430.000000 -1199.333333 1460.666667 -1150.333333 1490.000000 -1097.000000 C 1519.333333 -1044.333333 1546.333333 -987.666667 1571.000000 -927.000000 C 1596.333333 -867.000000 1619.000000 -804.333333 1639.000000 -739.000000 C 1659.666667 -673.666667 1677.000000 -606.666667 1691.000000 -538.000000 C 1705.666667 -470.000000 1716.666667 -400.000000 1724.000000 -328.000000 C 1705.333333 -319.666667 1686.666667 -311.333333 1668.000000 -303.000000 C 1659.333333 -399.000000 1644.666667 -490.666667 1624.000000 -578.000000 C 1604.000000 -666.000000 1579.333333 -748.666667 1550.000000 -826.000000 C 1521.333333 -904.000000 1489.333333 -976.000000 1454.000000 -1042.000000 C 1419.333333 -1108.666667 1382.666667 -1168.333333 1344.000000 -1221.000000 C 1362.000000 -1228.666667 1380.000000 -1236.333333 1398.000000 -1244.000000z "/>
</g>
<g><path d="M 3370.000000 -649.000000 C 3370.000000 -715.666667 3353.333333 -773.000000 3320.000000 -821.000000 C 3286.666667 -869.000000 3241.333333 -906.333333 3184.000000 -933.000000 C 3127.333333 -959.666667 3063.000000 -973.000000 2991.000000 -973.000000 C 2913.000000 -973.000000 2840.666667 -967.333333 2774.000000 -956.000000 C 2708.000000 -944.666667 2647.333333 -931.333333 2592.000000 -916.000000 C 2536.666667 -900.666667 2487.333333 -886.666667 2444.000000 -874.000000 C 2412.000000 -864.666667 2385.666667 -856.000000 2365.000000 -848.000000 C 2345.000000 -840.666667 2325.333333 -833.333333 2306.000000 -826.000000 C 2297.666667 -852.000000 2289.333333 -878.000000 2281.000000 -904.000000 C 2303.000000 -906.666667 2325.666667 -910.333333 2349.000000 -915.000000 C 2373.000000 -919.666667 2398.333333 -924.333333 2425.000000 -929.000000 C 2468.333333 -939.666667 2520.000000 -952.666667 2580.000000 -968.000000 C 2640.666667 -983.333333 2706.333333 -997.000000 2777.000000 -1009.000000 C 2848.333333 -1021.000000 2919.666667 -1027.000000 2991.000000 -1027.000000 C 3071.666667 -1027.000000 3145.000000 -1012.666667 3211.000000 -984.000000 C 3277.000000 -955.333333 3329.000000 -912.666667 3367.000000 -856.000000 C 3405.666667 -800.000000 3425.000000 -730.333333 3425.000000 -647.000000 C 3425.000000 -542.333333 3404.000000 -450.000000 3362.000000 -370.000000 C 3320.000000 -290.000000 3261.000000 -221.000000 3185.000000 -163.000000 C 3109.666667 -105.666667 3022.000000 -58.333333 2922.000000 -21.000000 C 2822.000000 16.333333 2714.666667 44.333333 2600.000000 63.000000 C 2587.000000 46.000000 2574.000000 29.000000 2561.000000 12.000000 C 2675.000000 -4.000000 2781.000000 -29.333333 2879.000000 -64.000000 C 2977.000000 -99.333333 3062.666667 -143.666667 3136.000000 -197.000000 C 3210.000000 -251.000000 3267.333333 -315.666667 3308.000000 -391.000000 C 3349.333333 -467.000000 3370.000000 -553.000000 3370.000000 -649.000000z M 2511.000000 -1457.000000 C 2561.000000 -1445.666667 2621.000000 -1434.333333 2691.000000 -1423.000000 C 2761.000000 -1412.333333 2833.000000 -1402.666667 2907.000000 -1394.000000 C 2981.000000 -1386.000000 3051.000000 -1379.333333 3117.000000 -1374.000000 C 3183.000000 -1369.333333 3237.666667 -1366.333333 3281.000000 -1365.000000 C 3278.000000 -1345.333333 3275.000000 -1325.666667 3272.000000 -1306.000000 C 3222.000000 -1309.333333 3163.666667 -1314.000000 3097.000000 -1320.000000 C 3030.333333 -1326.000000 2961.000000 -1333.000000 2889.000000 -1341.000000 C 2817.666667 -1349.666667 2748.333333 -1358.666667 2681.000000 -1368.000000 C 2613.666667 -1377.333333 2553.333333 -1386.666667 2500.000000 -1396.000000 C 2503.666667 -1416.333333 2507.333333 -1436.666667 2511.000000 -1457.000000z "/>
</g>
<g><path d="M 4439.000000 -1473.000000 C 4489.000000 -1459.666667 4547.333333 -1447.000000 4614.000000 -1435.000000 C 4680.666667 -1423.000000 4749.000000 -1411.666667 4819.000000 -1401.000000 C 4889.666667 -1391.000000 4956.000000 -1382.666667 5018.000000 -1376.000000 C 5080.000000 -1370.000000 5132.000000 -1365.666667 5174.000000 -1363.000000 C 5170.333333 -1344.000000 5166.666667 -1325.000000 5163.000000 -1306.000000 C 5117.000000 -1309.333333 5064.000000 -1314.666667 5004.000000 -1322.000000 C 4944.666667 -1330.000000 4882.000000 -1338.666667 4816.000000 -1348.000000 C 4750.000000 -1358.000000 4683.666667 -1368.666667 4617.000000 -1380.000000 C 4551.000000 -1392.000000 4488.000000 -1403.666667 4428.000000 -1415.000000 C 4431.666667 -1434.333333 4435.333333 -1453.666667 4439.000000 -1473.000000z M 5182.000000 -983.000000 C 5172.000000 -975.666667 5156.666667 -963.333333 5136.000000 -946.000000 C 5115.333333 -928.666667 5102.000000 -916.666667 5096.000000 -910.000000 C 5080.666667 -894.666667 5055.666667 -870.666667 5021.000000 -838.000000 C 4986.333333 -805.333333 4947.666667 -768.333333 4905.000000 -727.000000 C 4863.000000 -686.333333 4822.000000 -647.000000 4782.000000 -609.000000 C 4742.666667 -571.666667 4711.000000 -540.333333 4687.000000 -515.000000 C 4698.333333 -517.000000 4711.666667 -518.666667 4727.000000 -520.000000 C 4742.333333 -521.333333 4754.666667 -522.000000 4764.000000 -522.000000 C 4811.333333 -522.000000 4849.000000 -508.666667 4877.000000 -482.000000 C 4905.000000 -455.333333 4925.333333 -420.666667 4938.000000 -378.000000 C 4944.666667 -358.000000 4952.333333 -332.333333 4961.000000 -301.000000 C 4970.333333 -270.333333 4979.333333 -239.000000 4988.000000 -207.000000 C 4997.333333 -175.000000 5005.666667 -147.000000 5013.000000 -123.000000 C 5027.000000 -79.666667 5048.000000 -48.666667 5076.000000 -30.000000 C 5104.666667 -11.333333 5149.666667 -2.000000 5211.000000 -2.000000 C 5247.000000 -2.000000 5286.666667 -3.666667 5330.000000 -7.000000 C 5373.333333 -11.000000 5415.333333 -16.666667 5456.000000 -24.000000 C 5497.333333 -31.333333 5532.000000 -39.333333 5560.000000 -48.000000 C 5558.666667 -24.333333 5557.333333 -0.666667 5556.000000 23.000000 C 5529.333333 28.333333 5495.666667 33.000000 5455.000000 37.000000 C 5415.000000 41.666667 5373.666667 45.666667 5331.000000 49.000000 C 5288.333333 52.333333 5249.000000 54.000000 5213.000000 54.000000 C 5149.000000 54.000000 5094.666667 43.000000 5050.000000 21.000000 C 5006.000000 -1.000000 4975.000000 -44.333333 4957.000000 -109.000000 C 4952.333333 -128.333333 4945.333333 -154.333333 4936.000000 -187.000000 C 4927.333333 -219.666667 4918.333333 -252.333333 4909.000000 -285.000000 C 4900.333333 -317.666667 4892.000000 -344.333333 4884.000000 -365.000000 C 4872.666667 -398.333333 4856.000000 -425.000000 4834.000000 -445.000000 C 4812.666667 -465.666667 4785.333333 -476.000000 4752.000000 -476.000000 C 4718.666667 -476.000000 4689.000000 -470.666667 4663.000000 -460.000000 C 4637.666667 -449.333333 4614.333333 -434.333333 4593.000000 -415.000000 C 4577.666667 -401.000000 4555.333333 -379.666667 4526.000000 -351.000000 C 4497.333333 -323.000000 4465.333333 -290.666667 4430.000000 -254.000000 C 4395.333333 -218.000000 4360.333333 -180.666667 4325.000000 -142.000000 C 4289.666667 -103.333333 4257.000000 -67.333333 4227.000000 -34.000000 C 4197.000000 -1.333333 4173.666667 26.000000 4157.000000 48.000000 C 4135.333333 32.666667 4113.666667 17.333333 4092.000000 2.000000 C 4098.000000 -3.333333 4106.333333 -10.333333 4117.000000 -19.000000 C 4128.333333 -28.333333 4139.666667 -38.666667 4151.000000 -50.000000 C 4159.666667 -58.666667 4183.666667 -82.333333 4223.000000 -121.000000 C 4262.333333 -160.333333 4310.333333 -208.333333 4367.000000 -265.000000 C 4423.666667 -322.333333 4485.000000 -384.333333 4551.000000 -451.000000 C 4617.000000 -517.666667 4683.000000 -583.333333 4749.000000 -648.000000 C 4815.000000 -712.666667 4875.333333 -772.000000 4930.000000 -826.000000 C 4985.333333 -880.666667 5029.666667 -924.000000 5063.000000 -956.000000 C 5029.666667 -953.333333 4987.666667 -949.666667 4937.000000 -945.000000 C 4886.333333 -941.000000 4832.666667 -936.666667 4776.000000 -932.000000 C 4719.333333 -927.333333 4663.333333 -922.333333 4608.000000 -917.000000 C 4552.666667 -912.333333 4502.666667 -908.333333 4458.000000 -905.000000 C 4413.333333 -901.666667 4378.333333 -899.000000 4353.000000 -897.000000 C 4323.000000 -895.666667 4297.000000 -893.666667 4275.000000 -891.000000 C 4253.666667 -888.333333 4232.333333 -885.666667 4211.000000 -883.000000 C 4209.000000 -906.666667 4207.000000 -930.333333 4205.000000 -954.000000 C 4226.333333 -952.666667 4248.666667 -951.666667 4272.000000 -951.000000 C 4295.333333 -950.333333 4320.333333 -950.666667 4347.000000 -952.000000 C 4372.333333 -953.333333 4409.000000 -955.666667 4457.000000 -959.000000 C 4505.000000 -962.333333 4558.333333 -966.000000 4617.000000 -970.000000 C 4676.333333 -974.666667 4735.000000 -980.000000 4793.000000 -986.000000 C 4851.666667 -992.000000 4905.000000 -997.000000 4953.000000 -1001.000000 C 5001.000000 -1005.666667 5037.666667 -1010.000000 5063.000000 -1014.000000 C 5078.333333 -1016.666667 5092.666667 -1019.333333 5106.000000 -1022.000000 C 5119.333333 -1025.333333 5130.666667 -1029.000000 5140.000000 -1033.000000 C 5154.000000 -1016.333333 5168.000000 -999.666667 5182.000000 -983.000000z "/>
</g>
<g><path d="M 6499.000000 -1507.000000 C 6497.666667 -1497.000000 6496.666667 -1487.000000 6496.000000 -1477.000000 C 6495.333333 -1467.666667 6494.666667 -1457.333333 6494.000000 -1446.000000 C 6493.333333 -1435.333333 6492.666667 -1423.000000 6492.000000 -1409.000000 C 6492.000000 -1389.666667 6491.000000 -1354.333333 6489.000000 -1303.000000 C 6487.000000 -1252.333333 6485.000000 -1193.000000 6483.000000 -1125.000000 C 6481.000000 -1057.000000 6479.333333 -988.333333 6478.000000 -919.000000 C 6476.666667 -850.333333 6476.000000 -788.333333 6476.000000 -733.000000 C 6476.000000 -685.666667 6476.333333 -634.333333 6477.000000 -579.000000 C 6477.666667 -524.333333 6478.666667 -470.000000 6480.000000 -416.000000 C 6481.333333 -362.666667 6482.333333 -312.333333 6483.000000 -265.000000 C 6483.666667 -217.666667 6484.000000 -178.000000 6484.000000 -146.000000 C 6484.000000 -106.000000 6478.666667 -73.666667 6468.000000 -49.000000 C 6458.000000 -24.333333 6443.666667 -6.333333 6425.000000 5.000000 C 6406.333333 17.000000 6383.000000 23.000000 6355.000000 23.000000 C 6327.000000 23.000000 6293.333333 15.333333 6254.000000 0.000000 C 6215.333333 -15.333333 6177.000000 -35.666667 6139.000000 -61.000000 C 6101.666667 -87.000000 6070.333333 -116.333333 6045.000000 -149.000000 C 6020.333333 -181.666667 6008.000000 -215.333333 6008.000000 -250.000000 C 6008.000000 -300.666667 6028.666667 -351.000000 6070.000000 -401.000000 C 6111.333333 -451.000000 6164.666667 -497.666667 6230.000000 -541.000000 C 6295.333333 -585.000000 6362.666667 -621.000000 6432.000000 -649.000000 C 6519.333333 -686.333333 6608.000000 -714.333333 6698.000000 -733.000000 C 6788.000000 -752.333333 6872.666667 -762.000000 6952.000000 -762.000000 C 7042.000000 -762.000000 7119.333333 -747.000000 7184.000000 -717.000000 C 7248.666667 -687.000000 7298.666667 -645.666667 7334.000000 -593.000000 C 7370.000000 -541.000000 7388.000000 -482.333333 7388.000000 -417.000000 C 7388.000000 -339.000000 7370.333333 -272.333333 7335.000000 -217.000000 C 7300.333333 -161.666667 7253.000000 -116.666667 7193.000000 -82.000000 C 7133.666667 -48.000000 7067.000000 -22.666667 6993.000000 -6.000000 C 6951.666667 3.333333 6911.000000 9.000000 6871.000000 11.000000 C 6831.666667 13.666667 6798.000000 15.000000 6770.000000 15.000000 C 6763.000000 -4.666667 6756.000000 -24.333333 6749.000000 -44.000000 C 6778.333333 -42.666667 6811.666667 -42.333333 6849.000000 -43.000000 C 6887.000000 -43.666667 6926.000000 -48.666667 6966.000000 -58.000000 C 7026.000000 -70.666667 7083.666667 -91.000000 7139.000000 -119.000000 C 7195.000000 -147.000000 7240.666667 -185.333333 7276.000000 -234.000000 C 7311.333333 -282.666667 7329.000000 -343.000000 7329.000000 -415.000000 C 7329.000000 -480.333333 7311.333333 -534.666667 7276.000000 -578.000000 C 7240.666667 -621.333333 7194.000000 -653.666667 7136.000000 -675.000000 C 7078.666667 -697.000000 7017.333333 -708.000000 6952.000000 -708.000000 C 6862.666667 -708.000000 6778.666667 -698.666667 6700.000000 -680.000000 C 6621.333333 -662.000000 6537.000000 -634.333333 6447.000000 -597.000000 C 6381.000000 -571.666667 6319.000000 -539.000000 6261.000000 -499.000000 C 6203.666667 -459.666667 6157.666667 -418.000000 6123.000000 -374.000000 C 6088.333333 -330.666667 6071.000000 -290.000000 6071.000000 -252.000000 C 6071.000000 -223.333333 6080.666667 -196.000000 6100.000000 -170.000000 C 6119.333333 -144.666667 6143.666667 -122.000000 6173.000000 -102.000000 C 6202.333333 -82.666667 6233.000000 -67.000000 6265.000000 -55.000000 C 6297.000000 -43.666667 6325.000000 -38.000000 6349.000000 -38.000000 C 6376.333333 -38.000000 6396.333333 -48.333333 6409.000000 -69.000000 C 6421.666667 -89.666667 6428.000000 -114.666667 6428.000000 -144.000000 C 6428.000000 -184.666667 6427.333333 -238.666667 6426.000000 -306.000000 C 6424.666667 -373.333333 6423.333333 -444.333333 6422.000000 -519.000000 C 6420.666667 -594.333333 6420.000000 -664.000000 6420.000000 -728.000000 C 6420.000000 -784.000000 6420.666667 -846.666667 6422.000000 -916.000000 C 6423.333333 -986.000000 6424.666667 -1055.333333 6426.000000 -1124.000000 C 6427.333333 -1192.666667 6428.666667 -1252.333333 6430.000000 -1303.000000 C 6431.333333 -1354.333333 6432.000000 -1388.333333 6432.000000 -1405.000000 C 6432.000000 -1418.333333 6431.666667 -1430.666667 6431.000000 -1442.000000 C 6430.333333 -1453.333333 6429.666667 -1464.666667 6429.000000 -1476.000000 C 6428.333333 -1488.000000 6426.666667 -1498.333333 6424.000000 -1507.000000 C 6449.000000 -1507.000000 6474.000000 -1507.000000 6499.000000 -1507.000000z M 7144.000000 -1290.000000 C 7186.666667 -1266.000000 7234.000000 -1236.333333 7286.000000 -1201.000000 C 7338.666667 -1165.666667 7389.000000 -1130.000000 7437.000000 -1094.000000 C 7485.000000 -1058.666667 7522.333333 -1027.333333 7549.000000 -1000.000000 C 7536.333333 -983.333333 7523.666667 -966.666667 7511.000000 -950.000000 C 7487.000000 -976.000000 7458.666667 -1002.333333 7426.000000 -1029.000000 C 7393.333333 -1055.666667 7358.666667 -1082.000000 7322.000000 -1108.000000 C 7285.333333 -1134.666667 7248.666667 -1159.666667 7212.000000 -1183.000000 C 7176.000000 -1207.000000 7142.000000 -1228.000000 7110.000000 -1246.000000 C 7121.333333 -1260.666667 7132.666667 -1275.333333 7144.000000 -1290.000000z M 6019.000000 -1133.000000 C 6067.666667 -1126.333333 6108.333333 -1121.666667 6141.000000 -1119.000000 C 6173.666667 -1117.000000 6208.000000 -1116.000000 6244.000000 -1116.000000 C 6288.666667 -1116.000000 6340.000000 -1118.333333 6398.000000 -1123.000000 C 6456.666667 -1128.333333 6517.000000 -1135.333333 6579.000000 -1144.000000 C 6641.000000 -1153.333333 6701.333333 -1164.333333 6760.000000 -1177.000000 C 6819.333333 -1189.666667 6872.000000 -1203.000000 6918.000000 -1217.000000 C 6918.666667 -1196.666667 6919.333333 -1176.333333 6920.000000 -1156.000000 C 6874.666667 -1144.666667 6822.333333 -1133.333333 6763.000000 -1122.000000 C 6703.666667 -1111.333333 6642.333333 -1101.333333 6579.000000 -1092.000000 C 6515.666667 -1083.333333 6454.666667 -1076.000000 6396.000000 -1070.000000 C 6338.000000 -1064.666667 6287.333333 -1062.000000 6244.000000 -1062.000000 C 6199.333333 -1062.000000 6159.000000 -1063.000000 6123.000000 -1065.000000 C 6087.000000 -1067.000000 6053.000000 -1069.000000 6021.000000 -1071.000000 C 6020.333333 -1091.666667 6019.666667 -1112.333333 6019.000000 -1133.000000z "/>
</g>
<g><path d="M 8475.000000 -1480.000000 C 8473.666667 -1470.000000 8472.000000 -1459.333333 8470.000000 -1448.000000 C 8468.000000 -1437.333333 8465.666667 -1425.000000 8463.000000 -1411.000000 C 8461.000000 -1394.333333 8456.666667 -1364.000000 8450.000000 -1320.000000 C 8443.333333 -1276.000000 8435.333333 -1227.333333 8426.000000 -1174.000000 C 8417.333333 -1120.666667 8407.333333 -1070.333333 8396.000000 -1023.000000 C 8382.000000 -969.666667 8366.000000 -911.000000 8348.000000 -847.000000 C 8330.000000 -783.000000 8309.000000 -715.333333 8285.000000 -644.000000 C 8261.666667 -573.333333 8235.000000 -500.333333 8205.000000 -425.000000 C 8175.000000 -350.333333 8141.000000 -274.666667 8103.000000 -198.000000 C 8065.666667 -121.333333 8023.333333 -45.000000 7976.000000 31.000000 C 7955.333333 22.666667 7934.666667 14.333333 7914.000000 6.000000 C 7956.666667 -49.333333 7996.666667 -112.666667 8034.000000 -184.000000 C 8072.000000 -256.000000 8107.000000 -331.000000 8139.000000 -409.000000 C 8171.000000 -487.000000 8200.000000 -564.000000 8226.000000 -640.000000 C 8252.666667 -716.666667 8275.000000 -787.333333 8293.000000 -852.000000 C 8311.666667 -917.333333 8326.333333 -973.333333 8337.000000 -1020.000000 C 8355.000000 -1086.000000 8370.333333 -1161.333333 8383.000000 -1246.000000 C 8395.666667 -1330.666667 8402.666667 -1410.666667 8404.000000 -1486.000000 C 8427.666667 -1484.000000 8451.333333 -1482.000000 8475.000000 -1480.000000z M 9135.000000 -1250.000000 C 9165.666667 -1214.000000 9198.333333 -1167.666667 9233.000000 -1111.000000 C 9267.666667 -1055.000000 9302.000000 -995.000000 9336.000000 -931.000000 C 9370.000000 -867.000000 9401.333333 -805.333333 9430.000000 -746.000000 C 9458.666667 -686.666667 9481.333333 -635.000000 9498.000000 -591.000000 C 9480.000000 -581.666667 9462.000000 -572.333333 9444.000000 -563.000000 C 9428.666667 -607.666667 9407.666667 -660.000000 9381.000000 -720.000000 C 9354.333333 -780.000000 9324.333333 -841.666667 9291.000000 -905.000000 C 9257.666667 -968.333333 9223.333333 -1027.666667 9188.000000 -1083.000000 C 9152.666667 -1139.000000 9118.333333 -1185.000000 9085.000000 -1221.000000 C 9101.666667 -1230.666667 9118.333333 -1240.333333 9135.000000 -1250.000000z M 7870.000000 -1031.000000 C 7895.333333 -1029.666667 7918.333333 -1029.000000 7939.000000 -1029.000000 C 7959.666667 -1029.000000 7982.666667 -1029.666667 8008.000000 -1031.000000 C 8035.333333 -1032.333333 8071.666667 -1034.666667 8117.000000 -1038.000000 C 8162.333333 -1041.333333 8212.000000 -1045.000000 8266.000000 -1049.000000 C 8320.666667 -1053.666667 8374.666667 -1058.000000 8428.000000 -1062.000000 C 8481.333333 -1066.666667 8530.000000 -1070.666667 8574.000000 -1074.000000 C 8618.000000 -1077.333333 8651.666667 -1079.000000 8675.000000 -1079.000000 C 8722.333333 -1079.000000 8766.666667 -1072.333333 8808.000000 -1059.000000 C 8849.333333 -1045.666667 8883.333333 -1018.666667 8910.000000 -978.000000 C 8937.333333 -938.000000 8951.000000 -877.666667 8951.000000 -797.000000 C 8951.000000 -720.333333 8947.000000 -638.666667 8939.000000 -552.000000 C 8931.666667 -465.333333 8919.666667 -383.333333 8903.000000 -306.000000 C 8886.333333 -228.666667 8864.666667 -164.333333 8838.000000 -113.000000 C 8810.000000 -51.666667 8775.000000 -12.333333 8733.000000 5.000000 C 8691.666667 22.333333 8644.666667 31.000000 8592.000000 31.000000 C 8556.000000 31.000000 8517.000000 27.666667 8475.000000 21.000000 C 8433.666667 15.000000 8399.000000 8.666667 8371.000000 2.000000 C 8368.000000 -20.333333 8365.000000 -42.666667 8362.000000 -65.000000 C 8391.333333 -56.333333 8420.333333 -49.000000 8449.000000 -43.000000 C 8477.666667 -37.666667 8504.666667 -33.666667 8530.000000 -31.000000 C 8556.000000 -28.333333 8578.666667 -27.000000 8598.000000 -27.000000 C 8636.000000 -27.000000 8671.333333 -33.333333 8704.000000 -46.000000 C 8736.666667 -58.666667 8765.333333 -90.666667 8790.000000 -142.000000 C 8812.666667 -193.333333 8831.666667 -254.666667 8847.000000 -326.000000 C 8862.333333 -398.000000 8873.666667 -474.000000 8881.000000 -554.000000 C 8889.000000 -634.000000 8893.000000 -711.666667 8893.000000 -787.000000 C 8893.000000 -853.666667 8883.333333 -904.000000 8864.000000 -938.000000 C 8845.333333 -972.000000 8819.333333 -995.333333 8786.000000 -1008.000000 C 8752.666667 -1020.666667 8715.000000 -1027.000000 8673.000000 -1027.000000 C 8637.000000 -1027.000000 8588.666667 -1024.666667 8528.000000 -1020.000000 C 8468.000000 -1016.000000 8404.000000 -1010.666667 8336.000000 -1004.000000 C 8268.666667 -998.000000 8205.666667 -992.000000 8147.000000 -986.000000 C 8089.000000 -980.000000 8044.000000 -975.666667 8012.000000 -973.000000 C 7995.333333 -972.333333 7974.000000 -970.333333 7948.000000 -967.000000 C 7922.666667 -963.666667 7900.000000 -960.666667 7880.000000 -958.000000 C 7876.666667 -982.333333 7873.333333 -1006.666667 7870.000000 -1031.000000z "/>
</g>
<g><path d="M 9972.000000 -1254.000000 C 10099.333333 -1238.666667 10226.333333 -1230.000000 10353.000000 -1228.000000 C 10479.666667 -1226.000000 10590.333333 -1230.000000 10685.000000 -1240.000000 C 10755.000000 -1249.333333 10826.666667 -1262.000000 10900.000000 -1278.000000 C 10974.000000 -1294.000000 11040.666667 -1312.000000 11100.000000 -1332.000000 C 11103.666667 -1312.333333 11107.333333 -1292.666667 11111.000000 -1273.000000 C 11055.000000 -1256.333333 10990.000000 -1240.333333 10916.000000 -1225.000000 C 10842.666667 -1209.666667 10770.666667 -1197.333333 10700.000000 -1188.000000 C 10604.000000 -1178.000000 10492.000000 -1173.333333 10364.000000 -1174.000000 C 10236.000000 -1174.666667 10107.333333 -1180.666667 9978.000000 -1192.000000 C 9976.000000 -1212.666667 9974.000000 -1233.333333 9972.000000 -1254.000000z M 9932.000000 -868.000000 C 10036.000000 -856.666667 10140.666667 -849.333333 10246.000000 -846.000000 C 10351.333333 -842.666667 10452.333333 -843.000000 10549.000000 -847.000000 C 10645.666667 -851.666667 10730.000000 -859.333333 10802.000000 -870.000000 C 10881.333333 -880.000000 10959.333333 -893.666667 11036.000000 -911.000000 C 11112.666667 -928.333333 11174.000000 -944.666667 11220.000000 -960.000000 C 11223.333333 -940.000000 11226.666667 -920.000000 11230.000000 -900.000000 C 11182.666667 -886.000000 11123.000000 -871.666667 11051.000000 -857.000000 C 10979.666667 -842.333333 10902.333333 -830.000000 10819.000000 -820.000000 C 10742.333333 -809.333333 10655.333333 -801.333333 10558.000000 -796.000000 C 10460.666667 -791.333333 10358.666667 -790.000000 10252.000000 -792.000000 C 10146.000000 -794.000000 10040.666667 -798.666667 9936.000000 -806.000000 C 9934.666667 -826.666667 9933.333333 -847.333333 9932.000000 -868.000000z M 10604.000000 -1357.000000 C 10598.666667 -1379.000000 10592.333333 -1401.000000 10585.000000 -1423.000000 C 10578.333333 -1445.666667 10572.000000 -1465.333333 10566.000000 -1482.000000 C 10589.000000 -1486.666667 10612.000000 -1491.333333 10635.000000 -1496.000000 C 10640.333333 -1450.000000 10650.666667 -1397.333333 10666.000000 -1338.000000 C 10681.333333 -1279.333333 10698.000000 -1221.000000 10716.000000 -1163.000000 C 10734.666667 -1105.666667 10751.000000 -1056.666667 10765.000000 -1016.000000 C 10785.666667 -960.666667 10807.666667 -904.666667 10831.000000 -848.000000 C 10855.000000 -792.000000 10881.666667 -736.000000 10911.000000 -680.000000 C 10941.000000 -624.666667 10974.333333 -570.000000 11011.000000 -516.000000 C 11019.000000 -504.666667 11028.000000 -493.666667 11038.000000 -483.000000 C 11048.000000 -472.333333 11058.333333 -461.666667 11069.000000 -451.000000 C 11054.333333 -432.000000 11039.666667 -413.000000 11025.000000 -394.000000 C 10989.000000 -405.333333 10949.000000 -414.333333 10905.000000 -421.000000 C 10861.666667 -428.333333 10817.666667 -434.333333 10773.000000 -439.000000 C 10728.333333 -444.333333 10685.000000 -449.000000 10643.000000 -453.000000 C 10644.666667 -469.666667 10646.333333 -486.333333 10648.000000 -503.000000 C 10710.666667 -496.333333 10774.000000 -489.000000 10838.000000 -481.000000 C 10902.000000 -473.666667 10950.000000 -467.666667 10982.000000 -463.000000 C 10927.333333 -542.333333 10877.333333 -629.666667 10832.000000 -725.000000 C 10787.333333 -820.333333 10749.000000 -910.666667 10717.000000 -996.000000 C 10701.666667 -1038.666667 10687.000000 -1081.333333 10673.000000 -1124.000000 C 10659.000000 -1166.666667 10646.333333 -1208.000000 10635.000000 -1248.000000 C 10623.666667 -1288.666667 10613.333333 -1325.000000 10604.000000 -1357.000000z M 10122.000000 -488.000000 C 10099.333333 -453.333333 10081.000000 -418.666667 10067.000000 -384.000000 C 10053.666667 -349.333333 10047.000000 -309.666667 10047.000000 -265.000000 C 10047.000000 -177.666667 10086.000000 -109.666667 10164.000000 -61.000000 C 10242.666667 -12.333333 10369.000000 12.000000 10543.000000 12.000000 C 10631.000000 12.000000 10707.666667 8.666667 10773.000000 2.000000 C 10838.333333 -4.666667 10906.333333 -15.000000 10977.000000 -29.000000 C 10977.000000 -8.333333 10977.000000 12.333333 10977.000000 33.000000 C 10910.333333 44.333333 10843.333333 52.333333 10776.000000 57.000000 C 10708.666667 62.333333 10632.333333 65.000000 10547.000000 65.000000 C 10423.666667 65.000000 10321.000000 52.666667 10239.000000 28.000000 C 10157.000000 4.000000 10095.666667 -32.666667 10055.000000 -82.000000 C 10014.333333 -131.333333 9994.000000 -192.333333 9994.000000 -265.000000 C 9994.000000 -312.333333 10000.000000 -354.000000 10012.000000 -390.000000 C 10024.000000 -426.666667 10040.333333 -465.000000 10061.000000 -505.000000 C 10081.333333 -499.333333 10101.666667 -493.666667 10122.000000 -488.000000z "/>
</g>
<g><path d="M 12814.000000 -1450.000000 C 12804.000000 -1440.666667 12788.000000 -1425.666667 12766.000000 -1405.000000 C 12744.000000 -1385.000000 12728.000000 -1370.333333 12718.000000 -1361.000000 C 12683.333333 -1329.000000 12640.333333 -1291.000000 12589.000000 -1247.000000 C 12538.333333 -1203.000000 12484.333333 -1157.666667 12427.000000 -1111.000000 C 12370.333333 -1064.333333 12315.333333 -1019.333333 12262.000000 -976.000000 C 12208.666667 -933.333333 12163.000000 -896.000000 12125.000000 -864.000000 C 12082.333333 -826.666667 12053.333333 -795.333333 12038.000000 -770.000000 C 12022.666667 -745.333333 12023.000000 -720.666667 12039.000000 -696.000000 C 12055.000000 -671.333333 12086.666667 -639.000000 12134.000000 -599.000000 C 12175.333333 -565.666667 12220.333333 -529.000000 12269.000000 -489.000000 C 12317.666667 -449.666667 12367.666667 -408.000000 12419.000000 -364.000000 C 12471.000000 -320.000000 12523.333333 -274.666667 12576.000000 -228.000000 C 12628.666667 -182.000000 12679.666667 -135.666667 12729.000000 -89.000000 C 12778.333333 -42.333333 12824.000000 2.666667 12866.000000 46.000000 C 12849.333333 60.666667 12832.666667 75.333333 12816.000000 90.000000 C 12789.333333 59.333333 12757.333333 25.333333 12720.000000 -12.000000 C 12681.333333 -50.000000 12635.000000 -93.666667 12581.000000 -143.000000 C 12527.666667 -192.333333 12471.333333 -242.666667 12412.000000 -294.000000 C 12352.666667 -346.000000 12294.333333 -396.000000 12237.000000 -444.000000 C 12180.333333 -492.000000 12129.000000 -534.666667 12083.000000 -572.000000 C 12025.000000 -619.333333 11988.666667 -659.666667 11974.000000 -693.000000 C 11959.333333 -726.333333 11962.333333 -759.333333 11983.000000 -792.000000 C 12004.333333 -824.666667 12040.666667 -862.666667 12092.000000 -906.000000 C 12126.666667 -935.333333 12170.333333 -971.333333 12223.000000 -1014.000000 C 12276.333333 -1057.333333 12332.000000 -1103.000000 12390.000000 -1151.000000 C 12448.666667 -1199.000000 12504.000000 -1245.333333 12556.000000 -1290.000000 C 12608.000000 -1334.666667 12650.000000 -1374.333333 12682.000000 -1409.000000 C 12692.000000 -1421.000000 12704.666667 -1436.333333 12720.000000 -1455.000000 C 12735.333333 -1474.333333 12746.333333 -1490.333333 12753.000000 -1503.000000 C 12773.333333 -1485.333333 12793.666667 -1467.666667 12814.000000 -1450.000000z "/>
</g>
<g><path d="M 14868.000000 -1467.000000 C 14867.333333 -1457.000000 14866.666667 -1444.000000 14866.000000 -1428.000000 C 14865.333333 -1412.666667 14865.000000 -1394.333333 14865.000000 -1373.000000 C 14865.000000 -1361.666667 14865.333333 -1342.333333 14866.000000 -1315.000000 C 14866.666667 -1288.333333 14867.333333 -1257.333333 14868.000000 -1222.000000 C 14869.333333 -1186.666667 14870.333333 -1150.333333 14871.000000 -1113.000000 C 14871.666667 -1076.333333 14872.333333 -1042.000000 14873.000000 -1010.000000 C 14873.666667 -978.000000 14874.000000 -951.666667 14874.000000 -931.000000 C 14874.000000 -823.666667 14873.000000 -721.666667 14871.000000 -625.000000 C 14869.000000 -528.333333 14857.666667 -437.333333 14837.000000 -352.000000 C 14817.000000 -267.333333 14778.666667 -188.333333 14722.000000 -115.000000 C 14666.000000 -42.333333 14584.333333 23.666667 14477.000000 83.000000 C 14457.666667 68.000000 14438.333333 53.000000 14419.000000 38.000000 C 14442.333333 29.333333 14467.666667 17.000000 14495.000000 1.000000 C 14522.333333 -15.000000 14546.333333 -31.333333 14567.000000 -48.000000 C 14633.666667 -99.333333 14684.333333 -154.666667 14719.000000 -214.000000 C 14754.333333 -273.333333 14779.000000 -338.666667 14793.000000 -410.000000 C 14807.666667 -482.000000 14815.666667 -561.000000 14817.000000 -647.000000 C 14819.000000 -733.000000 14820.000000 -827.666667 14820.000000 -931.000000 C 14820.000000 -957.000000 14819.333333 -991.666667 14818.000000 -1035.000000 C 14817.333333 -1078.333333 14816.000000 -1123.333333 14814.000000 -1170.000000 C 14812.000000 -1216.666667 14810.333333 -1258.666667 14809.000000 -1296.000000 C 14807.666667 -1333.333333 14806.333333 -1358.333333 14805.000000 -1371.000000 C 14803.666667 -1391.666667 14801.333333 -1409.333333 14798.000000 -1424.000000 C 14795.333333 -1438.666667 14792.666667 -1453.000000 14790.000000 -1467.000000 C 14816.000000 -1467.000000 14842.000000 -1467.000000 14868.000000 -1467.000000z M 14223.000000 -1048.000000 C 14247.666667 -1044.666667 14278.666667 -1041.000000 14316.000000 -1037.000000 C 14354.000000 -1033.000000 14394.000000 -1030.000000 14436.000000 -1028.000000 C 14478.666667 -1026.000000 14517.333333 -1025.000000 14552.000000 -1025.000000 C 14627.333333 -1025.000000 14703.000000 -1027.000000 14779.000000 -1031.000000 C 14855.000000 -1035.000000 14929.333333 -1041.666667 15002.000000 -1051.000000 C 15075.333333 -1061.000000 15144.666667 -1074.666667 15210.000000 -1092.000000 C 15210.000000 -1071.000000 15210.000000 -1050.000000 15210.000000 -1029.000000 C 15147.333333 -1016.333333 15079.333333 -1005.333333 15006.000000 -996.000000 C 14933.333333 -987.333333 14858.333333 -981.000000 14781.000000 -977.000000 C 14703.666667 -973.666667 14626.666667 -972.000000 14550.000000 -972.000000 C 14516.666667 -972.000000 14478.666667 -972.333333 14436.000000 -973.000000 C 14394.000000 -974.333333 14354.000000 -976.000000 14316.000000 -978.000000 C 14278.666667 -980.000000 14247.666667 -982.333333 14223.000000 -985.000000 C 14223.000000 -1006.000000 14223.000000 -1027.000000 14223.000000 -1048.000000z M 13882.000000 -1442.000000 C 13879.333333 -1430.666667 13876.000000 -1416.666667 13872.000000 -1400.000000 C 13868.000000 -1383.333333 13864.000000 -1366.666667 13860.000000 -1350.000000 C 13841.333333 -1264.000000 13824.333333 -1173.000000 13809.000000 -1077.000000 C 13793.666667 -981.000000 13782.333333 -882.333333 13775.000000 -781.000000 C 13767.666667 -680.333333 13767.000000 -579.000000 13773.000000 -477.000000 C 13779.000000 -375.000000 13794.000000 -275.000000 13818.000000 -177.000000 C 13832.000000 -229.000000 13849.333333 -287.666667 13870.000000 -353.000000 C 13890.666667 -418.333333 13911.333333 -481.000000 13932.000000 -541.000000 C 13946.666667 -533.333333 13961.333333 -525.666667 13976.000000 -518.000000 C 13964.000000 -484.666667 13950.000000 -443.000000 13934.000000 -393.000000 C 13918.000000 -343.666667 13902.666667 -295.333333 13888.000000 -248.000000 C 13873.333333 -200.666667 13863.000000 -163.333333 13857.000000 -136.000000 C 13854.333333 -123.333333 13852.333333 -110.000000 13851.000000 -96.000000 C 13849.666667 -82.000000 13849.666667 -69.333333 13851.000000 -58.000000 C 13852.333333 -48.666667 13853.666667 -39.333333 13855.000000 -30.000000 C 13856.333333 -21.333333 13857.666667 -14.000000 13859.000000 -8.000000 C 13843.000000 -4.666667 13827.000000 -1.333333 13811.000000 2.000000 C 13799.000000 -38.000000 13785.666667 -89.000000 13771.000000 -151.000000 C 13756.333333 -213.000000 13743.666667 -282.000000 13733.000000 -358.000000 C 13723.000000 -434.000000 13718.000000 -512.333333 13718.000000 -593.000000 C 13718.000000 -697.000000 13723.333333 -797.000000 13734.000000 -893.000000 C 13745.333333 -989.000000 13757.666667 -1077.333333 13771.000000 -1158.000000 C 13784.333333 -1238.666667 13794.333333 -1305.666667 13801.000000 -1359.000000 C 13803.666667 -1377.000000 13805.666667 -1394.333333 13807.000000 -1411.000000 C 13808.333333 -1427.666667 13809.000000 -1441.333333 13809.000000 -1452.000000 C 13833.333333 -1448.666667 13857.666667 -1445.333333 13882.000000 -1442.000000z "/>
</g>
<g><path d="M 15844.000000 -1300.000000 C 15912.000000 -1290.666667 15988.000000 -1284.000000 16072.000000 -1280.000000 C 16156.666667 -1276.666667 16244.333333 -1275.000000 16335.000000 -1275.000000 C 16395.666667 -1275.000000 16454.333333 -1276.333333 16511.000000 -1279.000000 C 16567.666667 -1281.666667 16621.666667 -1285.000000 16673.000000 -1289.000000 C 16724.333333 -1293.666667 16771.666667 -1298.000000 16815.000000 -1302.000000 C 16815.000000 -1282.000000 16815.000000 -1262.000000 16815.000000 -1242.000000 C 16773.000000 -1239.333333 16725.666667 -1236.000000 16673.000000 -1232.000000 C 16621.000000 -1228.666667 16566.000000 -1225.666667 16508.000000 -1223.000000 C 16450.666667 -1220.333333 16393.000000 -1219.000000 16335.000000 -1219.000000 C 16243.000000 -1219.000000 16156.333333 -1221.000000 16075.000000 -1225.000000 C 15993.666667 -1229.000000 15916.666667 -1234.000000 15844.000000 -1240.000000 C 15844.000000 -1260.000000 15844.000000 -1280.000000 15844.000000 -1300.000000z M 15836.000000 -564.000000 C 15820.666667 -523.333333 15809.000000 -482.666667 15801.000000 -442.000000 C 15793.666667 -402.000000 15790.000000 -362.666667 15790.000000 -324.000000 C 15790.000000 -238.666667 15834.000000 -170.000000 15922.000000 -118.000000 C 16010.666667 -66.000000 16139.333333 -40.000000 16308.000000 -40.000000 C 16399.333333 -40.000000 16486.000000 -43.333333 16568.000000 -50.000000 C 16650.000000 -56.666667 16723.666667 -65.333333 16789.000000 -76.000000 C 16855.000000 -86.666667 16908.000000 -99.666667 16948.000000 -115.000000 C 16948.666667 -95.333333 16949.333333 -75.666667 16950.000000 -56.000000 C 16914.000000 -44.000000 16863.333333 -32.666667 16798.000000 -22.000000 C 16732.666667 -11.333333 16657.666667 -3.000000 16573.000000 3.000000 C 16489.000000 9.666667 16400.666667 13.000000 16308.000000 13.000000 C 16194.666667 13.000000 16095.000000 1.000000 16009.000000 -23.000000 C 15923.000000 -47.666667 15856.000000 -84.000000 15808.000000 -132.000000 C 15760.000000 -180.666667 15736.000000 -241.666667 15736.000000 -315.000000 C 15736.000000 -359.666667 15740.000000 -403.333333 15748.000000 -446.000000 C 15756.666667 -489.333333 15766.333333 -531.333333 15777.000000 -572.000000 C 15796.666667 -569.333333 15816.333333 -566.666667 15836.000000 -564.000000z "/>
</g>
<g><path d="M 18399.000000 -1215.000000 C 18372.333333 -1242.333333 18342.333333 -1271.000000 18309.000000 -1301.000000 C 18275.666667 -1331.000000 18241.666667 -1360.333333 18207.000000 -1389.000000 C 18173.000000 -1417.666667 18141.000000 -1443.000000 18111.000000 -1465.000000 C 18125.333333 -1476.666667 18139.666667 -1488.333333 18154.000000 -1500.000000 C 18174.000000 -1485.333333 18201.333333 -1464.000000 18236.000000 -1436.000000 C 18270.666667 -1408.000000 18306.333333 -1378.000000 18343.000000 -1346.000000 C 18380.333333 -1314.000000 18412.000000 -1284.666667 18438.000000 -1258.000000 C 18425.000000 -1243.666667 18412.000000 -1229.333333 18399.000000 -1215.000000z M 17700.000000 -1342.000000 C 17705.333333 -1333.333333 17711.000000 -1322.666667 17717.000000 -1310.000000 C 17723.666667 -1298.000000 17730.666667 -1285.333333 17738.000000 -1272.000000 C 17746.000000 -1258.666667 17753.333333 -1246.333333 17760.000000 -1235.000000 C 17794.666667 -1173.000000 17835.000000 -1096.333333 17881.000000 -1005.000000 C 17927.000000 -913.666667 17971.666667 -820.666667 18015.000000 -726.000000 C 18045.000000 -659.333333 18073.333333 -590.666667 18100.000000 -520.000000 C 18126.666667 -450.000000 18151.333333 -381.000000 18174.000000 -313.000000 C 18197.333333 -245.000000 18219.333333 -180.000000 18240.000000 -118.000000 C 18260.666667 -56.000000 18279.333333 1.333333 18296.000000 54.000000 C 18274.000000 61.000000 18252.000000 68.000000 18230.000000 75.000000 C 18211.333333 3.000000 18188.666667 -75.666667 18162.000000 -161.000000 C 18136.000000 -247.000000 18107.000000 -336.000000 18075.000000 -428.000000 C 18043.000000 -520.000000 18006.333333 -611.666667 17965.000000 -703.000000 C 17931.000000 -777.000000 17897.666667 -847.333333 17865.000000 -914.000000 C 17832.333333 -980.666667 17802.666667 -1039.000000 17776.000000 -1089.000000 C 17750.000000 -1139.666667 17728.000000 -1178.666667 17710.000000 -1206.000000 C 17701.333333 -1221.333333 17689.666667 -1239.333333 17675.000000 -1260.000000 C 17661.000000 -1281.333333 17648.333333 -1299.000000 17637.000000 -1313.000000 C 17658.000000 -1322.666667 17679.000000 -1332.333333 17700.000000 -1342.000000z M 17436.000000 -783.000000 C 17453.333333 -788.333333 17473.666667 -794.666667 17497.000000 -802.000000 C 17521.000000 -810.000000 17542.000000 -818.000000 17560.000000 -826.000000 C 17596.000000 -840.000000 17645.000000 -861.000000 17707.000000 -889.000000 C 17769.000000 -917.000000 17838.000000 -948.333333 17914.000000 -983.000000 C 17990.666667 -1017.666667 18070.000000 -1051.000000 18152.000000 -1083.000000 C 18234.666667 -1115.000000 18315.666667 -1141.000000 18395.000000 -1161.000000 C 18475.000000 -1181.666667 18547.333333 -1192.000000 18612.000000 -1192.000000 C 18692.000000 -1192.000000 18760.000000 -1179.333333 18816.000000 -1154.000000 C 18872.000000 -1128.666667 18915.333333 -1092.000000 18946.000000 -1044.000000 C 18977.333333 -996.666667 18993.000000 -940.666667 18993.000000 -876.000000 C 18993.000000 -818.000000 18980.333333 -763.000000 18955.000000 -711.000000 C 18930.333333 -659.666667 18888.666667 -617.666667 18830.000000 -585.000000 C 18772.000000 -552.333333 18691.666667 -536.000000 18589.000000 -536.000000 C 18534.333333 -536.000000 18483.333333 -541.666667 18436.000000 -553.000000 C 18388.666667 -564.333333 18347.000000 -576.333333 18311.000000 -589.000000 C 18311.666667 -609.666667 18312.333333 -630.333333 18313.000000 -651.000000 C 18345.000000 -635.666667 18384.666667 -621.333333 18432.000000 -608.000000 C 18479.333333 -595.333333 18533.000000 -589.000000 18593.000000 -589.000000 C 18685.666667 -589.000000 18756.666667 -603.666667 18806.000000 -633.000000 C 18856.000000 -663.000000 18890.666667 -700.333333 18910.000000 -745.000000 C 18929.333333 -789.666667 18939.000000 -834.333333 18939.000000 -879.000000 C 18939.000000 -923.000000 18927.666667 -964.666667 18905.000000 -1004.000000 C 18883.000000 -1044.000000 18848.000000 -1076.333333 18800.000000 -1101.000000 C 18752.000000 -1126.333333 18689.000000 -1139.000000 18611.000000 -1139.000000 C 18544.333333 -1139.000000 18470.666667 -1127.666667 18390.000000 -1105.000000 C 18309.333333 -1082.333333 18225.333333 -1053.666667 18138.000000 -1019.000000 C 18051.333333 -985.000000 17966.333333 -948.333333 17883.000000 -909.000000 C 17799.666667 -870.333333 17722.333333 -833.666667 17651.000000 -799.000000 C 17580.333333 -764.333333 17520.666667 -736.000000 17472.000000 -714.000000 C 17460.000000 -737.000000 17448.000000 -760.000000 17436.000000 -783.000000z "/>
</g>
<g><path d="M 20185.000000 -1476.000000 C 20183.666667 -1467.333333 20182.000000 -1453.000000 20180.000000 -1433.000000 C 20178.000000 -1413.666667 20176.333333 -1393.333333 20175.000000 -1372.000000 C 20173.666667 -1350.666667 20173.000000 -1333.000000 20173.000000 -1319.000000 C 20173.000000 -1278.333333 20173.000000 -1222.000000 20173.000000 -1150.000000 C 20173.000000 -1078.666667 20173.000000 -1004.333333 20173.000000 -927.000000 C 20173.000000 -876.333333 20174.333333 -817.666667 20177.000000 -751.000000 C 20179.666667 -684.333333 20182.333333 -616.000000 20185.000000 -546.000000 C 20187.666667 -476.666667 20190.000000 -410.666667 20192.000000 -348.000000 C 20194.666667 -286.000000 20196.000000 -233.333333 20196.000000 -190.000000 C 20196.000000 -154.000000 20189.666667 -121.000000 20177.000000 -91.000000 C 20164.333333 -61.000000 20145.333333 -34.666667 20120.000000 -12.000000 C 20095.333333 10.000000 20064.666667 27.333333 20028.000000 40.000000 C 19992.000000 53.333333 19950.333333 60.000000 19903.000000 60.000000 C 19818.333333 60.000000 19744.333333 51.000000 19681.000000 33.000000 C 19617.666667 15.000000 19568.666667 -13.000000 19534.000000 -51.000000 C 19499.333333 -89.000000 19482.000000 -137.333333 19482.000000 -196.000000 C 19482.000000 -244.666667 19497.000000 -289.333333 19527.000000 -330.000000 C 19557.000000 -371.333333 19604.666667 -404.333333 19670.000000 -429.000000 C 19735.333333 -454.333333 19820.000000 -467.000000 19924.000000 -467.000000 C 20013.333333 -467.000000 20100.000000 -456.666667 20184.000000 -436.000000 C 20268.000000 -415.333333 20347.666667 -387.666667 20423.000000 -353.000000 C 20498.333333 -318.333333 20568.000000 -279.666667 20632.000000 -237.000000 C 20696.000000 -194.333333 20752.333333 -151.333333 20801.000000 -108.000000 C 20789.000000 -88.000000 20777.000000 -68.000000 20765.000000 -48.000000 C 20717.666667 -96.666667 20662.333333 -142.666667 20599.000000 -186.000000 C 20535.666667 -230.000000 20467.000000 -268.666667 20393.000000 -302.000000 C 20319.666667 -336.000000 20243.000000 -362.666667 20163.000000 -382.000000 C 20083.000000 -401.333333 20002.666667 -411.000000 19922.000000 -411.000000 C 19798.000000 -411.000000 19703.000000 -391.000000 19637.000000 -351.000000 C 19571.000000 -311.666667 19538.000000 -260.000000 19538.000000 -196.000000 C 19538.000000 -137.333333 19567.666667 -89.000000 19627.000000 -51.000000 C 19686.333333 -13.000000 19775.000000 6.000000 19893.000000 6.000000 C 19972.333333 6.000000 20033.666667 -12.666667 20077.000000 -50.000000 C 20121.000000 -87.333333 20143.000000 -140.333333 20143.000000 -209.000000 C 20143.000000 -246.333333 20141.666667 -294.666667 20139.000000 -354.000000 C 20136.333333 -414.000000 20133.666667 -478.000000 20131.000000 -546.000000 C 20128.333333 -614.666667 20125.666667 -682.333333 20123.000000 -749.000000 C 20121.000000 -815.666667 20120.000000 -875.000000 20120.000000 -927.000000 C 20120.000000 -963.000000 20120.000000 -1006.333333 20120.000000 -1057.000000 C 20120.000000 -1107.666667 20120.000000 -1157.333333 20120.000000 -1206.000000 C 20120.000000 -1254.666667 20120.000000 -1292.333333 20120.000000 -1319.000000 C 20120.000000 -1334.333333 20119.333333 -1352.333333 20118.000000 -1373.000000 C 20116.666667 -1394.333333 20115.333333 -1415.000000 20114.000000 -1435.000000 C 20112.666667 -1455.000000 20110.666667 -1468.666667 20108.000000 -1476.000000 C 20133.666667 -1476.000000 20159.333333 -1476.000000 20185.000000 -1476.000000z M 20133.000000 -1069.000000 C 20170.333333 -1069.000000 20215.000000 -1069.666667 20267.000000 -1071.000000 C 20319.666667 -1072.333333 20375.333333 -1074.666667 20434.000000 -1078.000000 C 20493.333333 -1081.333333 20552.333333 -1085.333333 20611.000000 -1090.000000 C 20670.333333 -1095.333333 20724.666667 -1101.333333 20774.000000 -1108.000000 C 20774.666667 -1088.000000 20775.333333 -1068.000000 20776.000000 -1048.000000 C 20726.000000 -1043.333333 20672.000000 -1038.666667 20614.000000 -1034.000000 C 20556.000000 -1029.333333 20497.333333 -1025.333333 20438.000000 -1022.000000 C 20379.333333 -1019.333333 20323.333333 -1017.000000 20270.000000 -1015.000000 C 20217.333333 -1013.000000 20171.666667 -1012.000000 20133.000000 -1012.000000 C 20133.000000 -1031.000000 20133.000000 -1050.000000 20133.000000 -1069.000000z "/>
</g>
<g><path d="M 21540.000000 -1342.000000 C 21539.333333 -1335.333333 21537.666667 -1327.000000 21535.000000 -1317.000000 C 21532.333333 -1307.000000 21529.666667 -1294.333333 21527.000000 -1279.000000 C 21520.333333 -1240.333333 21512.666667 -1189.333333 21504.000000 -1126.000000 C 21496.000000 -1062.666667 21488.666667 -994.666667 21482.000000 -922.000000 C 21476.000000 -850.000000 21471.666667 -781.000000 21469.000000 -715.000000 C 21467.000000 -649.000000 21467.666667 -593.666667 21471.000000 -549.000000 C 21494.333333 -643.666667 21532.000000 -731.666667 21584.000000 -813.000000 C 21636.666667 -894.333333 21700.000000 -965.333333 21774.000000 -1026.000000 C 21848.666667 -1086.666667 21929.666667 -1134.000000 22017.000000 -1168.000000 C 22105.000000 -1202.000000 22195.666667 -1219.000000 22289.000000 -1219.000000 C 22405.666667 -1219.000000 22504.000000 -1197.666667 22584.000000 -1155.000000 C 22664.000000 -1112.333333 22724.666667 -1055.000000 22766.000000 -983.000000 C 22808.000000 -911.666667 22829.000000 -832.333333 22829.000000 -745.000000 C 22829.000000 -646.333333 22808.666667 -556.666667 22768.000000 -476.000000 C 22728.000000 -395.333333 22666.666667 -331.333333 22584.000000 -284.000000 C 22501.333333 -236.666667 22396.000000 -213.000000 22268.000000 -213.000000 C 22195.333333 -213.000000 22127.333333 -226.000000 22064.000000 -252.000000 C 22000.666667 -278.666667 21943.666667 -316.666667 21893.000000 -366.000000 C 21842.333333 -415.333333 21799.000000 -475.000000 21763.000000 -545.000000 C 21778.333333 -559.333333 21793.666667 -573.666667 21809.000000 -588.000000 C 21839.666667 -518.666667 21877.666667 -460.000000 21923.000000 -412.000000 C 21969.000000 -364.000000 22021.666667 -327.666667 22081.000000 -303.000000 C 22140.333333 -279.000000 22206.666667 -267.000000 22280.000000 -267.000000 C 22376.000000 -267.000000 22461.333333 -285.333333 22536.000000 -322.000000 C 22610.666667 -359.333333 22669.333333 -413.000000 22712.000000 -483.000000 C 22755.333333 -553.666667 22777.000000 -639.000000 22777.000000 -739.000000 C 22777.000000 -817.000000 22758.666667 -888.333333 22722.000000 -953.000000 C 22686.000000 -1017.666667 22632.000000 -1069.333333 22560.000000 -1108.000000 C 22488.000000 -1147.333333 22399.000000 -1167.000000 22293.000000 -1167.000000 C 22193.000000 -1167.000000 22100.333333 -1149.333333 22015.000000 -1114.000000 C 21930.333333 -1079.333333 21854.333333 -1031.666667 21787.000000 -971.000000 C 21719.666667 -911.000000 21663.000000 -844.000000 21617.000000 -770.000000 C 21571.000000 -696.000000 21537.333333 -620.333333 21516.000000 -543.000000 C 21510.666667 -526.333333 21506.000000 -504.666667 21502.000000 -478.000000 C 21498.000000 -451.333333 21496.666667 -425.000000 21498.000000 -399.000000 C 21499.333333 -382.333333 21501.666667 -363.333333 21505.000000 -342.000000 C 21508.333333 -321.333333 21511.666667 -300.666667 21515.000000 -280.000000 C 21519.000000 -260.000000 21523.000000 -242.333333 21527.000000 -227.000000 C 21510.333333 -223.000000 21493.666667 -219.000000 21477.000000 -215.000000 C 21463.000000 -269.000000 21450.000000 -337.333333 21438.000000 -420.000000 C 21426.000000 -503.333333 21420.000000 -589.333333 21420.000000 -678.000000 C 21420.000000 -732.666667 21422.000000 -790.333333 21426.000000 -851.000000 C 21430.666667 -912.333333 21436.000000 -971.000000 21442.000000 -1027.000000 C 21448.666667 -1083.666667 21454.666667 -1134.666667 21460.000000 -1180.000000 C 21466.000000 -1225.333333 21470.333333 -1260.000000 21473.000000 -1284.000000 C 21474.333333 -1298.666667 21475.000000 -1310.333333 21475.000000 -1319.000000 C 21475.000000 -1327.666667 21474.333333 -1337.333333 21473.000000 -1348.000000 C 21495.333333 -1346.000000 21517.666667 -1344.000000 21540.000000 -1342.000000z M 22212.000000 -1496.000000 C 22222.666667 -1452.000000 22233.333333 -1394.000000 22244.000000 -1322.000000 C 22254.666667 -1250.666667 22263.666667 -1171.666667 22271.000000 -1085.000000 C 22278.333333 -999.000000 22282.000000 -910.666667 22282.000000 -820.000000 C 22282.000000 -708.666667 22275.000000 -606.000000 22261.000000 -512.000000 C 22247.666667 -418.666667 22226.000000 -334.000000 22196.000000 -258.000000 C 22166.000000 -182.000000 22125.666667 -114.000000 22075.000000 -54.000000 C 22024.333333 5.333333 21962.000000 56.000000 21888.000000 98.000000 C 21871.333333 86.333333 21854.666667 74.666667 21838.000000 63.000000 C 21910.000000 26.333333 21970.666667 -19.333333 22020.000000 -74.000000 C 22070.000000 -128.666667 22110.333333 -192.000000 22141.000000 -264.000000 C 22172.333333 -336.000000 22195.000000 -418.000000 22209.000000 -510.000000 C 22223.000000 -602.666667 22230.000000 -705.333333 22230.000000 -818.000000 C 22230.000000 -908.666667 22226.666667 -992.666667 22220.000000 -1070.000000 C 22214.000000 -1148.000000 22206.666667 -1215.000000 22198.000000 -1271.000000 C 22190.000000 -1327.666667 22182.666667 -1368.000000 22176.000000 -1392.000000 C 22172.000000 -1410.000000 22167.333333 -1428.000000 22162.000000 -1446.000000 C 22157.333333 -1464.000000 22152.333333 -1479.333333 22147.000000 -1492.000000 C 22168.666667 -1493.333333 22190.333333 -1494.666667 22212.000000 -1496.000000z "/>
</g>
<g><path d="M 23633.000000 -1469.000000 C 23629.666667 -1445.666667 23627.333333 -1424.333333 23626.000000 -1405.000000 C 23624.666667 -1386.333333 23623.333333 -1364.000000 23622.000000 -1338.000000 C 23620.666667 -1282.000000 23618.333333 -1212.000000 23615.000000 -1128.000000 C 23611.666667 -1044.000000 23609.000000 -954.000000 23607.000000 -858.000000 C 23605.000000 -762.000000 23603.000000 -665.333333 23601.000000 -568.000000 C 23599.666667 -470.666667 23599.000000 -380.666667 23599.000000 -298.000000 C 23599.000000 -222.000000 23614.333333 -161.000000 23645.000000 -115.000000 C 23675.666667 -69.000000 23718.333333 -35.666667 23773.000000 -15.000000 C 23828.333333 5.000000 23892.000000 15.000000 23964.000000 15.000000 C 24060.000000 15.000000 24145.333333 3.333333 24220.000000 -20.000000 C 24294.666667 -44.000000 24360.333333 -75.333333 24417.000000 -114.000000 C 24474.333333 -153.333333 24524.333333 -196.666667 24567.000000 -244.000000 C 24610.333333 -291.333333 24649.333333 -338.666667 24684.000000 -386.000000 C 24698.000000 -370.000000 24712.000000 -354.000000 24726.000000 -338.000000 C 24691.333333 -293.333333 24650.666667 -247.000000 24604.000000 -199.000000 C 24557.333333 -151.000000 24503.000000 -106.666667 24441.000000 -66.000000 C 24379.666667 -26.000000 24309.000000 6.333333 24229.000000 31.000000 C 24149.000000 56.333333 24058.666667 69.000000 23958.000000 69.000000 C 23878.666667 69.000000 23807.666667 57.000000 23745.000000 33.000000 C 23682.333333 9.666667 23632.666667 -30.000000 23596.000000 -86.000000 C 23559.333333 -142.666667 23541.000000 -221.000000 23541.000000 -321.000000 C 23541.000000 -383.666667 23541.666667 -451.000000 23543.000000 -523.000000 C 23544.333333 -595.666667 23546.333333 -669.666667 23549.000000 -745.000000 C 23551.666667 -820.333333 23553.666667 -894.000000 23555.000000 -966.000000 C 23557.000000 -1038.666667 23558.666667 -1107.000000 23560.000000 -1171.000000 C 23561.333333 -1235.000000 23562.000000 -1290.666667 23562.000000 -1338.000000 C 23562.000000 -1364.000000 23561.333333 -1387.666667 23560.000000 -1409.000000 C 23558.666667 -1431.000000 23556.333333 -1451.000000 23553.000000 -1469.000000 C 23579.666667 -1469.000000 23606.333333 -1469.000000 23633.000000 -1469.000000z "/>
</g>
<g><path d="M 26114.000000 -1494.000000 C 26114.000000 -1490.000000 26113.333333 -1482.666667 26112.000000 -1472.000000 C 26110.666667 -1462.000000 26109.666667 -1452.000000 26109.000000 -1442.000000 C 26108.333333 -1432.000000 26108.000000 -1423.666667 26108.000000 -1417.000000 C 26106.666667 -1392.333333 26106.000000 -1360.000000 26106.000000 -1320.000000 C 26106.000000 -1280.000000 26106.000000 -1236.000000 26106.000000 -1188.000000 C 26106.000000 -1140.000000 26106.333333 -1091.666667 26107.000000 -1043.000000 C 26107.666667 -994.333333 26108.333333 -948.000000 26109.000000 -904.000000 C 26109.666667 -860.666667 26110.000000 -823.666667 26110.000000 -793.000000 C 26092.000000 -815.333333 26074.000000 -837.666667 26056.000000 -860.000000 C 26056.000000 -870.666667 26056.000000 -892.333333 26056.000000 -925.000000 C 26056.000000 -958.333333 26055.666667 -998.333333 26055.000000 -1045.000000 C 26054.333333 -1092.333333 26053.666667 -1140.000000 26053.000000 -1188.000000 C 26052.333333 -1236.666667 26051.666667 -1281.333333 26051.000000 -1322.000000 C 26051.000000 -1363.333333 26050.333333 -1395.000000 26049.000000 -1417.000000 C 26049.000000 -1429.666667 26048.000000 -1444.666667 26046.000000 -1462.000000 C 26044.000000 -1479.333333 26042.333333 -1490.000000 26041.000000 -1494.000000 C 26065.333333 -1494.000000 26089.666667 -1494.000000 26114.000000 -1494.000000z M 25160.000000 -1198.000000 C 25207.333333 -1199.333333 25262.000000 -1201.333333 25324.000000 -1204.000000 C 25386.000000 -1206.666667 25453.000000 -1209.000000 25525.000000 -1211.000000 C 25597.666667 -1213.666667 25672.666667 -1216.000000 25750.000000 -1218.000000 C 25827.333333 -1220.000000 25904.000000 -1221.666667 25980.000000 -1223.000000 C 26056.666667 -1224.333333 26130.000000 -1225.000000 26200.000000 -1225.000000 C 26268.000000 -1225.000000 26330.333333 -1224.666667 26387.000000 -1224.000000 C 26444.333333 -1223.333333 26495.000000 -1223.000000 26539.000000 -1223.000000 C 26583.000000 -1223.000000 26621.000000 -1222.666667 26653.000000 -1222.000000 C 26685.000000 -1221.333333 26710.666667 -1221.000000 26730.000000 -1221.000000 C 26730.000000 -1202.000000 26730.000000 -1183.000000 26730.000000 -1164.000000 C 26682.666667 -1166.000000 26618.000000 -1167.666667 26536.000000 -1169.000000 C 26454.000000 -1170.333333 26342.666667 -1171.000000 26202.000000 -1171.000000 C 26124.000000 -1171.000000 26039.666667 -1170.333333 25949.000000 -1169.000000 C 25859.000000 -1167.666667 25767.000000 -1165.333333 25673.000000 -1162.000000 C 25579.000000 -1159.333333 25488.000000 -1155.333333 25400.000000 -1150.000000 C 25312.666667 -1144.666667 25233.333333 -1139.000000 25162.000000 -1133.000000 C 25161.333333 -1154.666667 25160.666667 -1176.333333 25160.000000 -1198.000000z M 26135.000000 -651.000000 C 26135.000000 -584.333333 26122.666667 -528.666667 26098.000000 -484.000000 C 26074.000000 -439.333333 26042.666667 -405.666667 26004.000000 -383.000000 C 25966.000000 -360.333333 25925.333333 -349.000000 25882.000000 -349.000000 C 25838.000000 -349.000000 25797.666667 -355.333333 25761.000000 -368.000000 C 25725.000000 -381.333333 25693.333333 -400.666667 25666.000000 -426.000000 C 25639.333333 -452.000000 25618.666667 -482.666667 25604.000000 -518.000000 C 25589.333333 -554.000000 25582.000000 -595.000000 25582.000000 -641.000000 C 25582.000000 -696.333333 25595.333333 -747.000000 25622.000000 -793.000000 C 25649.333333 -839.000000 25685.333333 -876.333333 25730.000000 -905.000000 C 25774.666667 -933.666667 25823.333333 -948.000000 25876.000000 -948.000000 C 25941.333333 -948.000000 25995.000000 -933.333333 26037.000000 -904.000000 C 26079.000000 -874.666667 26110.666667 -833.666667 26132.000000 -781.000000 C 26153.333333 -729.000000 26164.000000 -668.333333 26164.000000 -599.000000 C 26164.000000 -532.333333 26156.000000 -466.666667 26140.000000 -402.000000 C 26124.000000 -337.333333 26096.333333 -276.000000 26057.000000 -218.000000 C 26018.333333 -160.000000 25964.666667 -107.000000 25896.000000 -59.000000 C 25827.333333 -11.000000 25740.000000 29.666667 25634.000000 63.000000 C 25616.000000 47.000000 25598.000000 31.000000 25580.000000 15.000000 C 25673.333333 -7.666667 25753.333333 -37.666667 25820.000000 -75.000000 C 25886.666667 -113.000000 25941.000000 -157.666667 25983.000000 -209.000000 C 26025.666667 -260.333333 26056.666667 -317.666667 26076.000000 -381.000000 C 26096.000000 -444.333333 26106.000000 -513.333333 26106.000000 -588.000000 C 26106.000000 -699.333333 26084.000000 -778.333333 26040.000000 -825.000000 C 25996.000000 -871.666667 25942.666667 -895.000000 25880.000000 -895.000000 C 25837.333333 -895.000000 25797.666667 -884.000000 25761.000000 -862.000000 C 25725.000000 -840.000000 25695.666667 -810.000000 25673.000000 -772.000000 C 25651.000000 -734.666667 25640.000000 -691.000000 25640.000000 -641.000000 C 25640.000000 -564.333333 25663.666667 -505.333333 25711.000000 -464.000000 C 25758.333333 -423.333333 25815.333333 -403.000000 25882.000000 -403.000000 C 25931.333333 -403.000000 25972.333333 -415.666667 26005.000000 -441.000000 C 26037.666667 -467.000000 26062.333333 -503.000000 26079.000000 -549.000000 C 26095.666667 -595.000000 26104.000000 -648.000000 26104.000000 -708.000000 C 26114.333333 -689.000000 26124.666667 -670.000000 26135.000000 -651.000000z "/>
</g>
<g><path d="M 27414.000000 -1398.000000 C 27430.666667 -1396.666667 27448.666667 -1395.333333 27468.000000 -1394.000000 C 27488.000000 -1392.666667 27511.000000 -1392.000000 27537.000000 -1392.000000 C 27555.000000 -1392.000000 27584.000000 -1392.666667 27624.000000 -1394.000000 C 27664.000000 -1395.333333 27710.000000 -1397.000000 27762.000000 -1399.000000 C 27814.000000 -1401.000000 27866.333333 -1403.000000 27919.000000 -1405.000000 C 27972.333333 -1407.666667 28020.333333 -1410.333333 28063.000000 -1413.000000 C 28106.333333 -1415.666667 28138.333333 -1418.333333 28159.000000 -1421.000000 C 28173.000000 -1422.333333 28186.666667 -1424.000000 28200.000000 -1426.000000 C 28213.333333 -1428.666667 28224.666667 -1431.333333 28234.000000 -1434.000000 C 28248.000000 -1420.000000 28262.000000 -1406.000000 28276.000000 -1392.000000 C 28270.666667 -1388.000000 28262.333333 -1382.000000 28251.000000 -1374.000000 C 28239.666667 -1366.666667 28230.000000 -1360.000000 28222.000000 -1354.000000 C 28192.666667 -1328.000000 28155.666667 -1296.000000 28111.000000 -1258.000000 C 28066.333333 -1220.666667 28018.000000 -1180.000000 27966.000000 -1136.000000 C 27914.000000 -1092.666667 27861.333333 -1049.000000 27808.000000 -1005.000000 C 27755.333333 -961.000000 27705.000000 -919.333333 27657.000000 -880.000000 C 27609.000000 -841.333333 27567.000000 -808.000000 27531.000000 -780.000000 C 27639.666667 -792.666667 27752.333333 -803.666667 27869.000000 -813.000000 C 27985.666667 -823.000000 28101.333333 -831.000000 28216.000000 -837.000000 C 28331.333333 -843.666667 28442.000000 -847.000000 28548.000000 -847.000000 C 28548.000000 -827.666667 28548.000000 -808.333333 28548.000000 -789.000000 C 28452.000000 -793.000000 28362.000000 -794.000000 28278.000000 -792.000000 C 28194.666667 -790.000000 28124.666667 -784.666667 28068.000000 -776.000000 C 28018.666667 -768.000000 27969.666667 -751.000000 27921.000000 -725.000000 C 27872.333333 -699.666667 27827.333333 -667.333333 27786.000000 -628.000000 C 27745.333333 -589.333333 27712.666667 -546.333333 27688.000000 -499.000000 C 27664.000000 -451.666667 27652.000000 -402.333333 27652.000000 -351.000000 C 27652.000000 -273.000000 27670.333333 -211.333333 27707.000000 -166.000000 C 27744.333333 -120.666667 27791.333333 -86.666667 27848.000000 -64.000000 C 27905.333333 -42.000000 27963.333333 -25.666667 28022.000000 -15.000000 C 28082.666667 -6.333333 28132.666667 -2.666667 28172.000000 -4.000000 C 28212.000000 -5.333333 28248.666667 -7.333333 28282.000000 -10.000000 C 28277.333333 10.000000 28272.666667 30.000000 28268.000000 50.000000 C 28045.333333 58.666667 27878.000000 29.000000 27766.000000 -39.000000 C 27654.000000 -107.666667 27598.000000 -210.000000 27598.000000 -346.000000 C 27598.000000 -416.000000 27615.000000 -479.333333 27649.000000 -536.000000 C 27683.000000 -593.333333 27723.666667 -641.666667 27771.000000 -681.000000 C 27818.333333 -721.000000 27863.000000 -750.000000 27905.000000 -768.000000 C 27789.000000 -758.000000 27659.666667 -745.333333 27517.000000 -730.000000 C 27375.000000 -714.666667 27237.666667 -696.000000 27105.000000 -674.000000 C 27103.000000 -692.666667 27101.000000 -711.333333 27099.000000 -730.000000 C 27151.666667 -736.000000 27207.666667 -742.333333 27267.000000 -749.000000 C 27326.333333 -756.333333 27379.666667 -762.666667 27427.000000 -768.000000 C 27488.333333 -812.666667 27554.333333 -863.333333 27625.000000 -920.000000 C 27696.333333 -977.333333 27766.666667 -1035.333333 27836.000000 -1094.000000 C 27905.333333 -1153.333333 27968.000000 -1207.333333 28024.000000 -1256.000000 C 28080.666667 -1304.666667 28124.333333 -1342.333333 28155.000000 -1369.000000 C 28137.000000 -1367.666667 28107.000000 -1366.000000 28065.000000 -1364.000000 C 28023.666667 -1362.000000 27976.666667 -1359.666667 27924.000000 -1357.000000 C 27872.000000 -1355.000000 27819.666667 -1352.666667 27767.000000 -1350.000000 C 27714.333333 -1347.333333 27667.666667 -1345.000000 27627.000000 -1343.000000 C 27587.000000 -1341.000000 27558.000000 -1339.333333 27540.000000 -1338.000000 C 27514.666667 -1336.666667 27490.666667 -1335.000000 27468.000000 -1333.000000 C 27446.000000 -1331.666667 27429.333333 -1330.333333 27418.000000 -1329.000000 C 27416.666667 -1352.000000 27415.333333 -1375.000000 27414.000000 -1398.000000z "/>
</g>
<g><path d="M 29013.000000 -1164.000000 C 29042.333333 -1160.000000 29073.666667 -1157.000000 29107.000000 -1155.000000 C 29140.333333 -1153.000000 29180.666667 -1152.000000 29228.000000 -1152.000000 C 29288.000000 -1152.000000 29352.333333 -1154.000000 29421.000000 -1158.000000 C 29489.666667 -1162.666667 29563.000000 -1172.000000 29641.000000 -1186.000000 C 29719.000000 -1200.666667 29801.000000 -1222.000000 29887.000000 -1250.000000 C 29887.666667 -1229.000000 29888.333333 -1208.000000 29889.000000 -1187.000000 C 29818.333333 -1167.666667 29746.000000 -1151.000000 29672.000000 -1137.000000 C 29598.666667 -1123.666667 29524.666667 -1113.333333 29450.000000 -1106.000000 C 29375.333333 -1099.333333 29300.666667 -1096.000000 29226.000000 -1096.000000 C 29194.000000 -1096.000000 29158.666667 -1096.333333 29120.000000 -1097.000000 C 29082.000000 -1097.666667 29047.666667 -1098.666667 29017.000000 -1100.000000 C 29015.666667 -1121.333333 29014.333333 -1142.666667 29013.000000 -1164.000000z M 29628.000000 -1501.000000 C 29620.000000 -1473.000000 29610.666667 -1437.000000 29600.000000 -1393.000000 C 29590.000000 -1349.000000 29579.000000 -1303.666667 29567.000000 -1257.000000 C 29555.000000 -1210.333333 29542.666667 -1168.333333 29530.000000 -1131.000000 C 29498.000000 -1039.000000 29458.000000 -942.666667 29410.000000 -842.000000 C 29362.000000 -741.333333 29311.000000 -644.666667 29257.000000 -552.000000 C 29203.000000 -459.333333 29150.000000 -379.000000 29098.000000 -311.000000 C 29076.666667 -322.666667 29055.333333 -334.333333 29034.000000 -346.000000 C 29076.666667 -393.333333 29119.333333 -448.666667 29162.000000 -512.000000 C 29204.666667 -575.333333 29245.000000 -642.333333 29283.000000 -713.000000 C 29321.666667 -784.333333 29357.333333 -855.333333 29390.000000 -926.000000 C 29422.666667 -997.333333 29449.333333 -1063.666667 29470.000000 -1125.000000 C 29488.000000 -1177.666667 29506.000000 -1239.666667 29524.000000 -1311.000000 C 29542.000000 -1383.000000 29552.333333 -1449.000000 29555.000000 -1509.000000 C 29579.333333 -1506.333333 29603.666667 -1503.666667 29628.000000 -1501.000000z M 30083.000000 -914.000000 C 30081.666667 -875.333333 30080.333333 -844.333333 30079.000000 -821.000000 C 30077.666667 -798.333333 30077.666667 -773.666667 30079.000000 -747.000000 C 30080.333333 -712.333333 30081.666667 -670.000000 30083.000000 -620.000000 C 30085.000000 -570.000000 30087.333333 -517.000000 30090.000000 -461.000000 C 30092.666667 -405.666667 30095.000000 -352.000000 30097.000000 -300.000000 C 30099.000000 -248.666667 30100.000000 -204.333333 30100.000000 -167.000000 C 30100.000000 -125.000000 30088.666667 -85.666667 30066.000000 -49.000000 C 30044.000000 -12.333333 30010.666667 16.666667 29966.000000 38.000000 C 29922.000000 60.000000 29866.000000 71.000000 29798.000000 71.000000 C 29736.666667 71.000000 29680.333333 63.333333 29629.000000 48.000000 C 29578.333333 32.666667 29537.333333 7.666667 29506.000000 -27.000000 C 29474.666667 -61.666667 29459.000000 -107.000000 29459.000000 -163.000000 C 29459.000000 -219.666667 29475.666667 -265.666667 29509.000000 -301.000000 C 29543.000000 -337.000000 29586.333333 -363.666667 29639.000000 -381.000000 C 29691.666667 -398.333333 29745.333333 -407.000000 29800.000000 -407.000000 C 29904.000000 -407.000000 29998.333333 -392.666667 30083.000000 -364.000000 C 30168.333333 -335.333333 30245.333333 -299.000000 30314.000000 -255.000000 C 30382.666667 -211.666667 30443.000000 -169.000000 30495.000000 -127.000000 C 30483.000000 -109.000000 30471.000000 -91.000000 30459.000000 -73.000000 C 30419.000000 -107.666667 30375.666667 -142.000000 30329.000000 -176.000000 C 30282.333333 -210.000000 30231.333333 -240.333333 30176.000000 -267.000000 C 30121.333333 -293.666667 30063.000000 -315.333333 30001.000000 -332.000000 C 29939.000000 -348.666667 29873.333333 -357.000000 29804.000000 -357.000000 C 29718.666667 -357.000000 29649.000000 -338.666667 29595.000000 -302.000000 C 29541.000000 -266.000000 29514.000000 -220.333333 29514.000000 -165.000000 C 29514.000000 -111.000000 29536.333333 -67.333333 29581.000000 -34.000000 C 29626.333333 -1.333333 29697.666667 15.000000 29795.000000 15.000000 C 29857.666667 15.000000 29907.333333 6.000000 29944.000000 -12.000000 C 29981.333333 -30.666667 30008.000000 -55.333333 30024.000000 -86.000000 C 30040.000000 -116.666667 30048.000000 -148.666667 30048.000000 -182.000000 C 30048.000000 -227.333333 30047.000000 -280.000000 30045.000000 -340.000000 C 30043.000000 -400.000000 30040.333333 -463.666667 30037.000000 -531.000000 C 30034.333333 -598.333333 30031.666667 -665.000000 30029.000000 -731.000000 C 30026.333333 -797.666667 30024.333333 -858.666667 30023.000000 -914.000000 C 30043.000000 -914.000000 30063.000000 -914.000000 30083.000000 -914.000000z M 30520.000000 -914.000000 C 30488.000000 -943.333333 30447.000000 -974.000000 30397.000000 -1006.000000 C 30347.666667 -1038.000000 30296.666667 -1068.333333 30244.000000 -1097.000000 C 30191.333333 -1125.666667 30144.666667 -1149.666667 30104.000000 -1169.000000 C 30114.000000 -1183.666667 30124.000000 -1198.333333 30134.000000 -1213.000000 C 30168.666667 -1197.666667 30206.000000 -1179.333333 30246.000000 -1158.000000 C 30286.666667 -1137.333333 30326.666667 -1115.000000 30366.000000 -1091.000000 C 30406.000000 -1067.666667 30442.666667 -1044.666667 30476.000000 -1022.000000 C 30509.333333 -1000.000000 30536.333333 -980.666667 30557.000000 -964.000000 C 30544.666667 -947.333333 30532.333333 -930.666667 30520.000000 -914.000000z "/>
</g>
<g><path d="M 31611.000000 -1250.000000 C 31657.000000 -1240.666667 31713.333333 -1233.666667 31780.000000 -1229.000000 C 31846.666667 -1225.000000 31916.333333 -1223.000000 31989.000000 -1223.000000 C 32062.333333 -1223.000000 32132.000000 -1225.333333 32198.000000 -1230.000000 C 32264.666667 -1235.333333 32320.000000 -1242.000000 32364.000000 -1250.000000 C 32364.000000 -1229.000000 32364.000000 -1208.000000 32364.000000 -1187.000000 C 32320.000000 -1181.666667 32264.666667 -1177.333333 32198.000000 -1174.000000 C 32132.000000 -1170.666667 32062.333333 -1169.000000 31989.000000 -1169.000000 C 31916.333333 -1169.000000 31846.333333 -1170.666667 31779.000000 -1174.000000 C 31711.666667 -1177.333333 31655.666667 -1181.666667 31611.000000 -1187.000000 C 31611.000000 -1208.000000 31611.000000 -1229.000000 31611.000000 -1250.000000z M 31607.000000 -505.000000 C 31597.000000 -467.666667 31589.000000 -433.333333 31583.000000 -402.000000 C 31577.000000 -370.666667 31574.000000 -341.666667 31574.000000 -315.000000 C 31574.000000 -291.666667 31578.333333 -267.666667 31587.000000 -243.000000 C 31596.333333 -219.000000 31614.000000 -196.333333 31640.000000 -175.000000 C 31666.666667 -154.333333 31705.000000 -137.666667 31755.000000 -125.000000 C 31805.000000 -112.333333 31871.000000 -106.000000 31953.000000 -106.000000 C 32039.666667 -106.000000 32122.000000 -110.000000 32200.000000 -118.000000 C 32278.000000 -126.666667 32352.333333 -139.333333 32423.000000 -156.000000 C 32423.666667 -134.666667 32424.333333 -113.333333 32425.000000 -92.000000 C 32367.666667 -79.333333 32299.000000 -69.000000 32219.000000 -61.000000 C 32139.000000 -53.666667 32053.333333 -50.000000 31962.000000 -50.000000 C 31806.000000 -50.000000 31693.333333 -73.000000 31624.000000 -119.000000 C 31555.333333 -165.000000 31521.000000 -229.000000 31521.000000 -311.000000 C 31521.000000 -336.333333 31523.333333 -365.333333 31528.000000 -398.000000 C 31533.333333 -430.666667 31540.333333 -469.000000 31549.000000 -513.000000 C 31568.333333 -510.333333 31587.666667 -507.666667 31607.000000 -505.000000z M 31175.000000 -1417.000000 C 31172.333333 -1409.000000 31169.666667 -1400.666667 31167.000000 -1392.000000 C 31165.000000 -1383.333333 31162.666667 -1374.000000 31160.000000 -1364.000000 C 31157.333333 -1354.666667 31154.666667 -1344.000000 31152.000000 -1332.000000 C 31143.333333 -1286.000000 31134.000000 -1237.666667 31124.000000 -1187.000000 C 31114.666667 -1137.000000 31105.666667 -1085.333333 31097.000000 -1032.000000 C 31089.000000 -978.666667 31081.666667 -925.000000 31075.000000 -871.000000 C 31069.000000 -817.666667 31064.000000 -765.000000 31060.000000 -713.000000 C 31056.000000 -661.666667 31054.000000 -611.666667 31054.000000 -563.000000 C 31054.000000 -488.333333 31056.333333 -420.000000 31061.000000 -358.000000 C 31065.666667 -296.000000 31072.333333 -227.333333 31081.000000 -152.000000 C 31093.666667 -187.333333 31108.000000 -227.333333 31124.000000 -272.000000 C 31140.000000 -317.333333 31156.000000 -361.666667 31172.000000 -405.000000 C 31188.000000 -448.333333 31201.666667 -485.333333 31213.000000 -516.000000 C 31227.333333 -506.000000 31241.666667 -496.000000 31256.000000 -486.000000 C 31242.000000 -448.666667 31225.333333 -404.666667 31206.000000 -354.000000 C 31186.666667 -303.333333 31169.000000 -254.333333 31153.000000 -207.000000 C 31137.000000 -159.666667 31126.333333 -122.666667 31121.000000 -96.000000 C 31118.333333 -83.333333 31116.000000 -69.666667 31114.000000 -55.000000 C 31112.666667 -40.333333 31112.666667 -26.333333 31114.000000 -13.000000 C 31115.333333 -4.333333 31116.333333 5.000000 31117.000000 15.000000 C 31118.333333 25.666667 31119.666667 34.000000 31121.000000 40.000000 C 31103.333333 42.000000 31085.666667 44.000000 31068.000000 46.000000 C 31048.666667 -25.333333 31032.333333 -112.333333 31019.000000 -215.000000 C 31006.333333 -317.666667 31000.000000 -433.666667 31000.000000 -563.000000 C 31000.000000 -631.666667 31003.333333 -702.333333 31010.000000 -775.000000 C 31017.333333 -848.333333 31026.333333 -920.000000 31037.000000 -990.000000 C 31048.333333 -1060.666667 31059.000000 -1126.000000 31069.000000 -1186.000000 C 31079.666667 -1246.666667 31088.000000 -1298.000000 31094.000000 -1340.000000 C 31096.666667 -1358.000000 31098.666667 -1373.666667 31100.000000 -1387.000000 C 31101.333333 -1400.333333 31102.000000 -1413.000000 31102.000000 -1425.000000 C 31126.333333 -1422.333333 31150.666667 -1419.666667 31175.000000 -1417.000000z "/>
</g>
<g><path d="M 34441.000000 -104.000000 C 34378.333333 -174.000000 34317.000000 -232.333333 34257.000000 -279.000000 C 34197.666667 -325.666667 34136.000000 -360.666667 34072.000000 -384.000000 C 34008.000000 -408.000000 33936.333333 -420.000000 33857.000000 -420.000000 C 33819.000000 -420.000000 33782.333333 -412.666667 33747.000000 -398.000000 C 33711.666667 -383.333333 33683.000000 -363.000000 33661.000000 -337.000000 C 33639.666667 -311.000000 33629.000000 -280.666667 33629.000000 -246.000000 C 33629.000000 -186.000000 33653.000000 -140.333333 33701.000000 -109.000000 C 33749.000000 -78.333333 33806.333333 -63.000000 33873.000000 -63.000000 C 33949.666667 -63.000000 34011.000000 -80.333333 34057.000000 -115.000000 C 34103.000000 -149.666667 34138.000000 -196.666667 34162.000000 -256.000000 C 34186.666667 -316.000000 34203.000000 -385.333333 34211.000000 -464.000000 C 34219.666667 -542.666667 34224.000000 -626.000000 34224.000000 -714.000000 C 34224.000000 -806.000000 34210.000000 -885.333333 34182.000000 -952.000000 C 34154.666667 -1018.666667 34117.666667 -1069.666667 34071.000000 -1105.000000 C 34024.333333 -1140.333333 33971.666667 -1158.000000 33913.000000 -1158.000000 C 33865.666667 -1158.000000 33811.666667 -1146.000000 33751.000000 -1122.000000 C 33690.333333 -1098.666667 33628.000000 -1067.000000 33564.000000 -1027.000000 C 33500.666667 -987.666667 33439.666667 -943.666667 33381.000000 -895.000000 C 33322.333333 -846.333333 33271.333333 -797.666667 33228.000000 -749.000000 C 33229.666667 -776.333333 33231.333333 -803.666667 33233.000000 -831.000000 C 33274.333333 -869.666667 33322.000000 -910.666667 33376.000000 -954.000000 C 33430.666667 -998.000000 33488.666667 -1039.000000 33550.000000 -1077.000000 C 33611.333333 -1115.666667 33674.000000 -1147.333333 33738.000000 -1172.000000 C 33802.000000 -1197.333333 33863.666667 -1210.000000 33923.000000 -1210.000000 C 34003.666667 -1210.000000 34070.000000 -1186.333333 34122.000000 -1139.000000 C 34174.666667 -1091.666667 34214.000000 -1028.333333 34240.000000 -949.000000 C 34266.666667 -870.333333 34280.000000 -783.666667 34280.000000 -689.000000 C 34280.000000 -580.333333 34273.000000 -483.666667 34259.000000 -399.000000 C 34245.666667 -315.000000 34223.333333 -244.000000 34192.000000 -186.000000 C 34160.666667 -128.666667 34119.000000 -85.333333 34067.000000 -56.000000 C 34015.666667 -26.666667 33952.000000 -12.000000 33876.000000 -12.000000 C 33825.333333 -12.000000 33777.000000 -19.333333 33731.000000 -34.000000 C 33685.666667 -48.666667 33648.666667 -72.666667 33620.000000 -106.000000 C 33591.333333 -140.000000 33577.000000 -185.333333 33577.000000 -242.000000 C 33577.000000 -288.000000 33589.666667 -328.333333 33615.000000 -363.000000 C 33641.000000 -397.666667 33675.666667 -424.000000 33719.000000 -442.000000 C 33762.333333 -460.666667 33810.333333 -470.000000 33863.000000 -470.000000 C 33977.000000 -470.000000 34081.666667 -445.333333 34177.000000 -396.000000 C 34272.333333 -347.333333 34373.666667 -267.333333 34481.000000 -156.000000 C 34467.666667 -138.666667 34454.333333 -121.333333 34441.000000 -104.000000z M 33254.000000 -1110.000000 C 33245.333333 -1108.666667 33225.333333 -1105.666667 33194.000000 -1101.000000 C 33162.666667 -1096.333333 33125.666667 -1091.333333 33083.000000 -1086.000000 C 33041.000000 -1081.333333 32997.333333 -1075.666667 32952.000000 -1069.000000 C 32906.666667 -1063.000000 32864.000000 -1056.666667 32824.000000 -1050.000000 C 32821.666667 -1073.000000 32819.333333 -1096.000000 32817.000000 -1119.000000 C 32832.333333 -1117.666667 32847.000000 -1117.333333 32861.000000 -1118.000000 C 32875.000000 -1118.666667 32888.333333 -1119.666667 32901.000000 -1121.000000 C 32923.000000 -1122.333333 32951.666667 -1125.000000 32987.000000 -1129.000000 C 33023.000000 -1133.000000 33061.333333 -1137.333333 33102.000000 -1142.000000 C 33143.333333 -1147.333333 33182.666667 -1153.000000 33220.000000 -1159.000000 C 33257.333333 -1165.666667 33287.333333 -1173.000000 33310.000000 -1181.000000 C 33322.333333 -1169.333333 33334.666667 -1157.666667 33347.000000 -1146.000000 C 33335.000000 -1128.000000 33322.333333 -1108.333333 33309.000000 -1087.000000 C 33295.666667 -1066.333333 33282.666667 -1045.000000 33270.000000 -1023.000000 C 33257.333333 -1001.666667 33245.666667 -981.333333 33235.000000 -962.000000 C 33233.000000 -908.333333 33231.000000 -854.666667 33229.000000 -801.000000 C 33206.333333 -762.333333 33178.333333 -718.666667 33145.000000 -670.000000 C 33111.666667 -621.333333 33075.666667 -569.666667 33037.000000 -515.000000 C 32999.000000 -461.000000 32960.333333 -406.333333 32921.000000 -351.000000 C 32882.333333 -296.333333 32845.666667 -244.666667 32811.000000 -196.000000 C 32797.666667 -212.666667 32784.333333 -229.333333 32771.000000 -246.000000 C 32793.666667 -275.333333 32822.333333 -313.333333 32857.000000 -360.000000 C 32891.666667 -406.666667 32928.000000 -456.333333 32966.000000 -509.000000 C 33004.666667 -562.333333 33042.000000 -615.000000 33078.000000 -667.000000 C 33114.000000 -719.000000 33145.333333 -765.333333 33172.000000 -806.000000 C 33198.666667 -847.333333 33217.333333 -878.333333 33228.000000 -899.000000 C 33231.666667 -947.333333 33235.333333 -995.666667 33239.000000 -1044.000000 C 33244.000000 -1066.000000 33249.000000 -1088.000000 33254.000000 -1110.000000z M 33241.000000 -1379.000000 C 33241.000000 -1395.666667 33241.000000 -1414.000000 33241.000000 -1434.000000 C 33241.000000 -1454.666667 33239.666667 -1474.000000 33237.000000 -1492.000000 C 33263.333333 -1490.666667 33289.666667 -1489.333333 33316.000000 -1488.000000 C 33312.000000 -1468.666667 33307.000000 -1431.666667 33301.000000 -1377.000000 C 33295.666667 -1323.000000 33289.333333 -1258.000000 33282.000000 -1182.000000 C 33275.333333 -1106.000000 33269.000000 -1025.333333 33263.000000 -940.000000 C 33257.000000 -854.666667 33252.000000 -770.666667 33248.000000 -688.000000 C 33244.666667 -605.333333 33243.000000 -531.000000 33243.000000 -465.000000 C 33243.000000 -401.000000 33243.000000 -347.000000 33243.000000 -303.000000 C 33243.000000 -259.666667 33243.333333 -218.000000 33244.000000 -178.000000 C 33244.666667 -138.666667 33245.666667 -91.333333 33247.000000 -36.000000 C 33248.333333 -20.000000 33249.333333 -5.333333 33250.000000 8.000000 C 33250.666667 22.000000 33251.333333 36.000000 33252.000000 50.000000 C 33229.000000 50.000000 33206.000000 50.000000 33183.000000 50.000000 C 33184.333333 43.333333 33185.666667 31.333333 33187.000000 14.000000 C 33188.333333 -3.333333 33189.000000 -19.666667 33189.000000 -35.000000 C 33189.000000 -96.333333 33189.000000 -147.666667 33189.000000 -189.000000 C 33189.000000 -231.000000 33189.000000 -272.333333 33189.000000 -313.000000 C 33189.000000 -353.666667 33189.000000 -404.333333 33189.000000 -465.000000 C 33189.000000 -493.000000 33190.333333 -533.000000 33193.000000 -585.000000 C 33195.666667 -637.666667 33198.666667 -696.333333 33202.000000 -761.000000 C 33206.000000 -825.666667 33210.333333 -891.666667 33215.000000 -959.000000 C 33219.666667 -1026.333333 33223.666667 -1089.666667 33227.000000 -1149.000000 C 33231.000000 -1208.333333 33234.333333 -1258.333333 33237.000000 -1299.000000 C 33239.666667 -1340.333333 33241.000000 -1367.000000 33241.000000 -1379.000000z "/>
</g>
</svg>
