<?xml version="1.0" ?>
<svg xmlns="http://www.w3.org/2000/svg" version="1.1" width="600" height="600">
  <defs/>
  <g>
    <path stroke-width="0" fill="rgb(0, 0, 0)" opacity="1.0" d="M 140.4326171875 133.60549926757812 C 188.802734375 133.60549926757812 237.1728515625 133.60549926757812 285.54296875 133.60549926757812 C 285.54296875 137.45870971679688 285.54296875 141.31195068359375 285.54296875 145.16513061523438 C 237.1728515625 145.16513061523438 188.802734375 145.16513061523438 140.4326171875 145.16513061523438 C 140.4326171875 141.31195068359375 140.4326171875 137.45870971679688 140.4326171875 133.60549926757812M 278.11181640625 133.60549926757812 C 281.896484375 133.60549926757812 285.68017578125 133.60549926757812 289.46484375 133.60549926757812 C 289.46484375 237.09173583984375 289.46484375 340.5780029296875 289.46484375 444.064208984375 C 289.46484375 450.66973876953125 288.50146484375 455.5550537109375 286.5751953125 458.72021484375 C 284.6484375 461.88531494140625 281.13916015625 464.087158203125 276.0478515625 465.32568359375 C 271.09375 466.4266357421875 263.18115234375 467.11468505859375 252.31005859375 467.389892578125 C 241.43896484375 467.6651611328125 228.50341796875 467.802734375 213.50390625 467.802734375 C 213.228515625 466.4266357421875 212.7470703125 464.912841796875 212.05908203125 463.261474609375 C 211.37060546875 461.7476806640625 210.68310546875 460.02752685546875 209.99462890625 458.1009521484375 C 209.4443359375 456.3118896484375 208.75634765625 454.79815673828125 207.9306640625 453.55963134765625 C 217.701171875 453.8348388671875 226.71435546875 454.041259765625 234.97119140625 454.17889404296875 C 243.365234375 454.3165283203125 250.52099609375 454.3165283203125 256.4384765625 454.17889404296875 C 262.35546875 454.041259765625 266.48388671875 453.97247314453125 268.8232421875 453.97247314453125 C 272.53857421875 453.697265625 275.015625 452.87158203125 276.25439453125 451.49542236328125 C 277.49267578125 450.1192626953125 278.11181640625 447.77978515625 278.11181640625 444.47705078125 C 278.11181640625 340.85321044921875 278.11181640625 237.2293701171875 278.11181640625 133.60549926757812M 133.00146484375 389.7752685546875 C 145.38671875 383.16973876953125 159.6982421875 375.46331787109375 175.93603515625 366.656005859375 C 192.17431640625 357.71099853515625 209.4443359375 348.0780029296875 227.74658203125 337.75689697265625 C 246.1865234375 327.435791015625 264.5576171875 317.11468505859375 282.859375 306.7935791015625 C 283.8916015625 310.0963134765625 284.923828125 313.3990478515625 285.95556640625 316.70184326171875 C 269.02978515625 326.47247314453125 251.759765625 336.3807373046875 234.1455078125 346.4266357421875 C 216.6689453125 356.47247314453125 199.88037109375 366.03668212890625 183.77978515625 375.1192626953125 C 167.6796875 384.064208984375 153.02392578125 392.11468505859375 139.8134765625 399.2706298828125 C 137.54296875 396.10546875 135.2724609375 392.94036865234375 133.00146484375 389.7752685546875M 317.3310546875 133.60549926757812 C 365.63232421875 133.60549926757812 413.93359375 133.60549926757812 462.23486328125 133.60549926757812 C 462.23486328125 137.45870971679688 462.23486328125 141.31195068359375 462.23486328125 145.16513061523438 C 413.93359375 145.16513061523438 365.63232421875 145.16513061523438 317.3310546875 145.16513061523438 C 317.3310546875 141.31195068359375 317.3310546875 137.45870971679688 317.3310546875 133.60549926757812M 456.04248046875 133.60549926757812 C 459.82666015625 133.60549926757812 463.61083984375 133.60549926757812 467.39501953125 133.60549926757812 C 467.39501953125 236.8165283203125 467.39501953125 340.02752685546875 467.39501953125 443.238525390625 C 467.39501953125 450.1192626953125 466.36328125 455.21099853515625 464.298828125 458.5137939453125 C 462.23486328125 461.8165283203125 458.51953125 464.087158203125 453.15234375 465.32568359375 C 447.6484375 466.4266357421875 438.978515625 467.11468505859375 427.14404296875 467.389892578125 C 415.447265625 467.6651611328125 401.1357421875 467.802734375 384.20947265625 467.802734375 C 383.93408203125 466.4266357421875 383.453125 464.912841796875 382.7646484375 463.261474609375 C 382.21435546875 461.7476806640625 381.66357421875 460.02752685546875 381.11328125 458.1009521484375 C 380.56298828125 456.3118896484375 379.875 454.79815673828125 379.04931640625 453.55963134765625 C 389.6455078125 453.8348388671875 399.484375 454.041259765625 408.56689453125 454.17889404296875 C 417.78662109375 454.3165283203125 425.69921875 454.3165283203125 432.3046875 454.17889404296875 C 438.90966796875 454.041259765625 443.52001953125 453.97247314453125 446.13427734375 453.97247314453125 C 450.125 453.697265625 452.73974609375 452.802734375 453.97802734375 451.28900146484375 C 455.35400390625 449.912841796875 456.04248046875 447.366943359375 456.04248046875 443.6513671875 C 456.04248046875 340.302734375 456.04248046875 236.95413208007812 456.04248046875 133.60549926757812M 325.58740234375 195.9449462890625 C 328.7529296875 194.087158203125 331.91748046875 192.2293701171875 335.08251953125 190.37158203125 C 343.33935546875 198.21560668945312 351.7333984375 206.8165283203125 360.265625 216.17431640625 C 368.79736328125 225.39447021484375 376.84765625 234.40826416015625 384.416015625 243.215576171875 C 391.984375 251.88531494140625 398.03955078125 259.38531494140625 402.58056640625 265.715576171875 C 399.34716796875 268.33026123046875 396.11279296875 270.9449462890625 392.87890625 273.55963134765625 C 388.20068359375 266.67889404296875 382.07666015625 258.76605224609375 374.50830078125 249.82110595703125 C 366.939453125 240.87615966796875 358.8896484375 231.65594482421875 350.357421875 222.16055297851562 C 341.82568359375 212.52752685546875 333.56884765625 203.78900146484375 325.58740234375 195.9449462890625M 151.5791015625 199.04129028320312 C 154.744140625 197.1834716796875 157.9091796875 195.32568359375 161.07421875 193.4678955078125 C 169.0556640625 201.44952392578125 177.31201171875 210.05047607421875 185.84423828125 219.2706298828125 C 194.513671875 228.49081420898438 202.56396484375 237.50457763671875 209.99462890625 246.31195068359375 C 217.56298828125 254.98165893554688 223.6181640625 262.6192626953125 228.1591796875 269.22479248046875 C 224.994140625 271.49542236328125 221.82958984375 273.76605224609375 218.6640625 276.03668212890625 C 213.84765625 269.43121337890625 207.6552734375 261.65594482421875 200.0869140625 252.71099853515625 C 192.65576171875 243.62844848632812 184.6748046875 234.40826416015625 176.142578125 225.05047607421875 C 167.74853515625 215.69265747070312 159.560546875 207.02294921875 151.5791015625 199.04129028320312M 308.86767578125 382.96331787109375 C 321.39013671875 376.08258056640625 335.908203125 368.0321044921875 352.42138671875 358.8118896484375 C 368.93505859375 349.59173583984375 386.47998046875 339.61468505859375 405.0576171875 328.8807373046875 C 423.63525390625 318.14678955078125 442.0751953125 307.34405517578125 460.376953125 296.47247314453125 C 461.54638671875 299.912841796875 462.716796875 303.35321044921875 463.88623046875 306.7935791015625 C 446.6845703125 316.8394775390625 429.20849609375 327.09173583984375 411.45654296875 337.55047607421875 C 393.84228515625 348.0091552734375 376.84765625 357.91741943359375 360.4716796875 367.2752685546875 C 344.09619140625 376.633056640625 329.16552734375 385.02752685546875 315.6796875 392.458740234375 C 313.4091796875 389.2935791015625 311.138671875 386.12841796875 308.86767578125 382.96331787109375"/>
  </g>
</svg>
