<?xml version="1.0" ?>
<svg xmlns="http://www.w3.org/2000/svg" version="1.1" width="600" height="600">
  <defs/>
  <g>
    <path stroke-width="0" fill="rgb(0, 0, 0)" opacity="1.0" d="M 123.331787109375 221.08056640625 C 241.331787109375 221.08056640625 359.331787109375 221.08056640625 477.331787109375 221.08056640625 C 477.331787109375 224.94708251953125 477.331787109375 228.8135986328125 477.331787109375 232.68011474609375 C 359.331787109375 232.68011474609375 241.331787109375 232.68011474609375 123.331787109375 232.68011474609375 C 123.331787109375 228.8135986328125 123.331787109375 224.94708251953125 123.331787109375 221.08056640625M 278.0 120.827392578125 C 281.9976501464844 121.65594482421875 285.9953308105469 122.48446655273438 289.99298095703125 123.31301879882812 C 282.549072265625 142.369384765625 274.27801513671875 163.08285522460938 265.1799011230469 185.45339965820312 C 256.081787109375 207.68585205078125 246.63900756835938 230.2635498046875 236.85162353515625 253.18643188476562 C 227.06427001953125 276.10931396484375 217.483642578125 297.85845947265625 208.10980224609375 318.433837890625 C 198.87384033203125 338.87109375 190.53387451171875 356.96087646484375 183.0899658203125 372.703125 C 179.57476806640625 371.253173828125 176.0595703125 369.80322265625 172.54437255859375 368.353271484375 C 180.12615966796875 352.88720703125 188.46612548828125 334.935546875 197.56423950195312 314.498291015625 C 206.80023193359375 293.92291259765625 216.24298095703125 272.31182861328125 225.89251708984375 249.66513061523438 C 235.54205322265625 226.88031005859375 244.84698486328125 204.3717041015625 253.8072509765625 182.13925170898438 C 262.76751708984375 159.90679931640625 270.831787109375 139.46951293945312 278.0 120.827392578125M 401.23828125 223.98043823242188 C 404.891357421875 225.1541748046875 408.54443359375 226.32797241210938 412.1973876953125 227.501708984375 C 405.304931640625 262.99078369140625 395.58642578125 294.82049560546875 383.04205322265625 322.99078369140625 C 370.4976806640625 351.02301025390625 353.6109619140625 375.533935546875 332.38201904296875 396.5235595703125 C 311.2908935546875 417.51324462890625 284.4100341796875 434.9815673828125 251.739501953125 448.92864990234375 C 219.206787109375 462.7376708984375 179.43692016601562 473.0943603515625 132.42990112304688 479.99884033203125 C 131.87850952148438 478.4798583984375 130.91354370117188 476.7537841796875 129.5350341796875 474.82049560546875 C 128.29440307617188 473.02532958984375 126.98480224609375 471.437255859375 125.6063232421875 470.056396484375 C 172.4754638671875 463.15185546875 211.831787109375 452.9332275390625 243.67523193359375 439.40045166015625 C 275.65655517578125 425.86767578125 301.91705322265625 408.95166015625 322.456787109375 388.6524658203125 C 343.13433837890625 368.2152099609375 359.607421875 344.256591796875 371.87615966796875 316.7767333984375 C 384.28271484375 289.296875 394.070068359375 258.36480712890625 401.23828125 223.98043823242188M 186.81192016601562 345.98272705078125 C 189.15536499023438 343.0828857421875 191.49884033203125 340.1829833984375 193.84228515625 337.2830810546875 C 218.2418212890625 345.1541748046875 243.26165771484375 354.40625 268.90185546875 365.03912353515625 C 294.54205322265625 375.67205810546875 319.5618896484375 386.995361328125 343.96142578125 399.00921630859375 C 368.3609619140625 410.8848876953125 390.96844482421875 422.9677734375 411.78387451171875 435.2578125 C 432.7371826171875 447.40966796875 450.5198974609375 459.1473388671875 465.1319580078125 470.47064208984375 C 462.3060302734375 473.92291259765625 459.4801025390625 477.3751220703125 456.6541748046875 480.827392578125 C 442.45556640625 469.64208984375 424.9486083984375 457.90447998046875 404.1331787109375 445.614501953125 C 383.3177490234375 433.32452392578125 360.7791748046875 421.172607421875 336.51751708984375 409.1588134765625 C 312.3936767578125 397.00689697265625 287.4427490234375 385.54547119140625 261.66473388671875 374.7744140625 C 236.0245361328125 363.8653564453125 211.0736083984375 354.26812744140625 186.81192016601562 345.98272705078125"/>
  </g>
</svg>
