<?xml version="1.0" ?>
<svg xmlns="http://www.w3.org/2000/svg" version="1.1" width="600" height="600">
  <defs/>
  <g>
    <path stroke-width="0" fill="rgb(0, 0, 0)" opacity="1.0" d="M 363.51953125 157.72445678710938 C 366.9638671875 162.1331787109375 370.6142578125 167.50631713867188 374.47119140625 173.84384155273438 C 378.46630859375 180.181396484375 382.4609375 186.65670776367188 386.4560546875 193.26980590820312 C 390.451171875 199.88287353515625 393.89453125 206.15155029296875 396.787109375 212.07574462890625 C 393.068359375 213.8668212890625 389.3486328125 215.65786743164062 385.62939453125 217.44891357421875 C 381.91015625 209.59585571289062 376.8134765625 200.3651123046875 370.3388671875 189.756591796875 C 363.8642578125 179.14810180664062 358.009765625 170.19287109375 352.775390625 162.89093017578125 C 356.3564453125 161.16876220703125 359.9384765625 159.44662475585938 363.51953125 157.72445678710938M 403.3994140625 143.671630859375 C 407.119140625 148.49368286132812 411.1142578125 154.142333984375 415.3837890625 160.61767578125 C 419.654296875 167.09298706054688 423.787109375 173.56829833984375 427.7822265625 180.04360961914062 C 431.91455078125 186.51895141601562 435.3583984375 192.374267578125 438.11328125 197.60964965820312 C 434.39404296875 199.46957397460938 430.6748046875 201.32949829101562 426.955078125 203.18942260742188 C 422.40966796875 194.23419189453125 417.1064453125 184.79678344726562 411.044921875 174.87713623046875 C 404.9833984375 164.95751953125 399.060546875 156.27783203125 393.2744140625 148.83810424804688 C 396.6494140625 147.11593627929688 400.0244140625 145.393798828125 403.3994140625 143.671630859375M 178.58544921875 166.81744384765625 C 178.309814453125 170.26174926757812 177.965576171875 173.63717651367188 177.55224609375 176.9437255859375 C 177.13916015625 180.25027465820312 176.932373046875 184.52120971679688 176.932373046875 189.756591796875 C 176.932373046875 192.64981079101562 176.932373046875 199.40066528320312 176.932373046875 210.0091552734375 C 176.932373046875 220.61767578125 176.932373046875 233.4305419921875 176.932373046875 248.44775390625 C 176.932373046875 263.32720947265625 176.932373046875 279.1021728515625 176.932373046875 295.7726745605469 C 176.932373046875 312.44317626953125 176.932373046875 328.49365234375 176.932373046875 343.9241943359375 C 176.932373046875 359.354736328125 176.932373046875 372.8564453125 176.932373046875 384.42938232421875 C 176.932373046875 395.864501953125 176.932373046875 403.99310302734375 176.932373046875 408.815185546875 C 176.932373046875 420.3880615234375 179.2744140625 428.37890625 183.9580078125 432.78759765625 C 188.779296875 437.1962890625 196.355712890625 440.4339599609375 206.687255859375 442.5006103515625 C 213.29931640625 443.602783203125 222.115478515625 444.567138671875 233.135986328125 445.393798828125 C 244.2939453125 446.0826416015625 255.176513671875 446.4271240234375 265.78369140625 446.4271240234375 C 276.390869140625 446.4271240234375 287.6865234375 446.289306640625 299.6708984375 446.0137939453125 C 311.79296875 445.6004638671875 323.8466796875 444.91162109375 335.8310546875 443.9471435546875 C 347.81591796875 442.9827880859375 359.318359375 441.7427978515625 370.3388671875 440.227294921875 C 381.359375 438.5740966796875 390.9326171875 436.714111328125 399.060546875 434.64752197265625 C 399.060546875 439.5384521484375 399.060546875 444.42938232421875 399.060546875 449.3203125 C 388.728515625 450.8358154296875 375.8486328125 452.21356201171875 360.42041015625 453.4534912109375 C 344.9921875 454.6934814453125 328.943359375 455.72674560546875 312.275390625 456.5533447265625 C 295.607421875 457.24224853515625 280.110107421875 457.586669921875 265.78369140625 457.586669921875 C 255.176513671875 457.586669921875 244.431640625 457.3800048828125 233.54931640625 456.9666748046875 C 222.804443359375 456.5533447265625 213.43701171875 455.72674560546875 205.447509765625 454.48681640625 C 192.22314453125 452.00689697265625 182.167236328125 447.8048095703125 175.279296875 441.880615234375 C 168.529541015625 435.95635986328125 165.154541015625 425.48565673828125 165.154541015625 410.4683837890625 C 165.154541015625 405.09527587890625 165.154541015625 396.5533447265625 165.154541015625 384.84271240234375 C 165.154541015625 372.9942626953125 165.154541015625 359.21697998046875 165.154541015625 343.5108642578125 C 165.154541015625 327.8048095703125 165.154541015625 311.6854248046875 165.154541015625 295.1527099609375 C 165.154541015625 278.6199645996094 165.154541015625 262.91387939453125 165.154541015625 248.034423828125 C 165.154541015625 233.0172119140625 165.154541015625 220.27325439453125 165.154541015625 209.80252075195312 C 165.154541015625 199.33181762695312 165.154541015625 192.64981079101562 165.154541015625 189.756591796875 C 165.154541015625 186.31228637695312 165.08544921875 183.35015869140625 164.94775390625 180.87026977539062 C 164.810302734375 178.39035034179688 164.603515625 175.97933959960938 164.327880859375 173.63717651367188 C 164.05224609375 171.15728759765625 163.63916015625 168.884033203125 163.088134765625 166.81744384765625 C 168.25390625 166.81744384765625 173.419677734375 166.81744384765625 178.58544921875 166.81744384765625M 170.940185546875 295.3593444824219 C 182.09814453125 293.0172119140625 194.84033203125 289.9173278808594 209.166748046875 286.0596923828125 C 223.630859375 282.2020568847656 238.64599609375 278.0 254.21240234375 273.4534912109375 C 269.916259765625 268.76922607421875 285.27587890625 263.74053955078125 300.291015625 258.36737060546875 C 315.44384765625 252.85647583007812 329.21923828125 247.3455810546875 341.6171875 241.83465576171875 C 346.576171875 239.354736328125 351.3974609375 236.87484741210938 356.0810546875 234.39495849609375 C 360.7646484375 231.9150390625 364.82861328125 229.5040283203125 368.2724609375 227.161865234375 C 370.4765625 231.63946533203125 372.6806640625 236.11712646484375 374.884765625 240.5947265625 C 371.1650390625 242.1102294921875 366.6884765625 244.03900146484375 361.45361328125 246.38116455078125 C 356.3564453125 248.58551025390625 351.19091796875 250.72100830078125 345.9560546875 252.78759765625 C 333.0078125 258.436279296875 318.6806640625 263.9471740722656 302.97705078125 269.3203125 C 287.410888671875 274.6934509277344 271.5693359375 279.9288024902344 255.4521484375 285.0263977050781 C 239.3349609375 289.9862060546875 223.97509765625 294.53271484375 209.37353515625 298.6658935546875 C 194.909423828125 302.799072265625 182.09814453125 306.3122863769531 170.940185546875 309.20550537109375 C 170.940185546875 304.5901184082031 170.940185546875 299.9747314453125 170.940185546875 295.3593444824219"/>
  </g>
</svg>
