<?xml version="1.0" encoding="utf-8"?>
<svg xmlns="http://www.w3.org/2000/svg" xmlns:ev="http://www.w3.org/2001/xml-events" xmlns:xlink="http://www.w3.org/1999/xlink" version="1.1" baseProfile="full" width="41856.0" height="1776.0" viewBox="67.0 -1634.0 41856.0 1776.0">
<defs/>
<g><path d="M 39011.000000 -1480.000000 C 39011.666667 -1464.666667 39014.666667 -1447.333333 39020.000000 -1428.000000 C 39025.333333 -1409.333333 39031.000000 -1385.666667 39037.000000 -1357.000000 C 39051.666667 -1307.666667 39069.333333 -1244.666667 39090.000000 -1168.000000 C 39111.333333 -1092.000000 39134.000000 -1010.000000 39158.000000 -922.000000 C 39182.666667 -834.666667 39207.333333 -746.333333 39232.000000 -657.000000 C 39257.333333 -568.333333 39280.666667 -485.000000 39302.000000 -407.000000 C 39324.000000 -329.000000 39342.666667 -262.000000 39358.000000 -206.000000 C 39373.333333 -150.666667 39384.333333 -112.666667 39391.000000 -92.000000 C 39394.333333 -79.333333 39398.000000 -66.333333 39402.000000 -53.000000 C 39406.000000 -39.666667 39410.333333 -26.000000 39415.000000 -12.000000 C 39420.333333 1.333333 39425.000000 14.333333 39429.000000 27.000000 C 39405.333333 33.333333 39381.666667 39.666667 39358.000000 46.000000 C 39355.333333 28.000000 39351.666667 8.333333 39347.000000 -13.000000 C 39343.000000 -35.000000 39337.666667 -55.666667 39331.000000 -75.000000 C 39326.333333 -94.333333 39316.666667 -129.666667 39302.000000 -181.000000 C 39288.000000 -233.000000 39271.000000 -296.000000 39251.000000 -370.000000 C 39231.666667 -444.666667 39210.333333 -523.666667 39187.000000 -607.000000 C 39164.333333 -691.000000 39141.333333 -774.333333 39118.000000 -857.000000 C 39095.333333 -939.666667 39074.333333 -1015.666667 39055.000000 -1085.000000 C 39035.666667 -1155.000000 39019.666667 -1213.000000 39007.000000 -1259.000000 C 38994.333333 -1305.666667 38986.000000 -1333.333333 38982.000000 -1342.000000 C 38972.666667 -1370.000000 38964.333333 -1393.666667 38957.000000 -1413.000000 C 38950.333333 -1432.333333 38944.000000 -1448.333333 38938.000000 -1461.000000 C 38962.333333 -1467.333333 38986.666667 -1473.666667 39011.000000 -1480.000000z M 40113.000000 -1204.000000 C 40089.666667 -1158.000000 40058.666667 -1106.666667 40020.000000 -1050.000000 C 39982.000000 -994.000000 39939.666667 -937.000000 39893.000000 -879.000000 C 39846.333333 -821.666667 39799.666667 -767.666667 39753.000000 -717.000000 C 39706.333333 -666.333333 39663.666667 -623.666667 39625.000000 -589.000000 C 39604.000000 -600.000000 39583.000000 -611.000000 39562.000000 -622.000000 C 39604.000000 -655.333333 39648.000000 -695.333333 39694.000000 -742.000000 C 39740.000000 -788.666667 39784.333333 -838.000000 39827.000000 -890.000000 C 39870.333333 -942.000000 39909.333333 -992.000000 39944.000000 -1040.000000 C 39978.666667 -1088.000000 40006.000000 -1129.333333 40026.000000 -1164.000000 C 40013.333333 -1161.333333 39980.333333 -1154.666667 39927.000000 -1144.000000 C 39874.333333 -1134.000000 39807.333333 -1121.000000 39726.000000 -1105.000000 C 39644.666667 -1089.000000 39556.666667 -1071.666667 39462.000000 -1053.000000 C 39367.333333 -1034.333333 39272.000000 -1015.666667 39176.000000 -997.000000 C 39080.000000 -979.000000 38990.000000 -961.666667 38906.000000 -945.000000 C 38822.000000 -928.333333 38750.666667 -913.666667 38692.000000 -901.000000 C 38633.333333 -889.000000 38593.666667 -880.666667 38573.000000 -876.000000 C 38566.666667 -899.000000 38560.333333 -922.000000 38554.000000 -945.000000 C 38583.333333 -947.000000 38610.666667 -949.666667 38636.000000 -953.000000 C 38662.000000 -956.333333 38690.333333 -960.666667 38721.000000 -966.000000 C 38735.000000 -968.666667 38767.333333 -974.666667 38818.000000 -984.000000 C 38869.333333 -993.333333 38932.000000 -1005.000000 39006.000000 -1019.000000 C 39080.666667 -1033.666667 39160.666667 -1049.000000 39246.000000 -1065.000000 C 39332.000000 -1081.000000 39417.666667 -1097.000000 39503.000000 -1113.000000 C 39588.333333 -1129.000000 39667.666667 -1144.000000 39741.000000 -1158.000000 C 39815.000000 -1172.000000 39876.333333 -1184.000000 39925.000000 -1194.000000 C 39974.333333 -1204.666667 40005.000000 -1211.000000 40017.000000 -1213.000000 C 40025.666667 -1215.666667 40035.000000 -1218.333333 40045.000000 -1221.000000 C 40055.666667 -1223.666667 40064.666667 -1227.000000 40072.000000 -1231.000000 C 40085.666667 -1222.000000 40099.333333 -1213.000000 40113.000000 -1204.000000z "/>
</g></svg>
