<?xml version="1.0" ?>
<svg xmlns="http://www.w3.org/2000/svg" version="1.1" width="600" height="600">
  <defs/>
  <g>
    <path stroke-width="0" fill="rgb(0, 0, 0)" opacity="1.0" d="M 145.01840209960938 325.44512939453125 C 145.01840209960938 323.89154052734375 145.01840209960938 321.7230224609375 145.01840209960938 318.939453125 C 145.01840209960938 316.12359619140625 145.01840209960938 313.000244140625 145.01840209960938 309.5693359375 C 145.01840209960938 306.10614013671875 145.01840209960938 302.5457763671875 145.01840209960938 298.888427734375 C 145.01840209960938 295.1986083984375 145.01840209960938 291.65447998046875 145.01840209960938 288.2559814453125 C 145.01840209960938 284.82513427734375 145.01840209960938 281.78271484375 145.01840209960938 279.128662109375 C 145.01840209960938 276.44219970703125 145.01840209960938 274.386962890625 145.01840209960938 272.9627685546875 C 145.01840209960938 272.15362548828125 145.01840209960938 271.4254150390625 145.01840209960938 270.778076171875 C 145.01840209960938 270.1307373046875 144.98568725585938 269.4833984375 144.92025756835938 268.8360595703125 C 144.85479736328125 268.1563720703125 144.72393798828125 267.37957763671875 144.52761840820312 266.50567626953125 C 145.78732299804688 266.50567626953125 147.04702758789062 266.50567626953125 148.3067626953125 266.50567626953125 C 148.11041259765625 267.83270263671875 147.97955322265625 268.96551513671875 147.91412353515625 269.9041748046875 C 147.84866333007812 270.8104248046875 147.81594848632812 271.8299560546875 147.81594848632812 272.9627685546875 C 147.81594848632812 274.32220458984375 147.81594848632812 276.361328125 147.81594848632812 279.080078125 C 147.81594848632812 281.7664794921875 147.81594848632812 284.84130859375 147.81594848632812 288.3045654296875 C 147.81594848632812 291.7353515625 147.81594848632812 295.29571533203125 147.81594848632812 298.9854736328125 C 147.81594848632812 302.6429443359375 147.81594848632812 306.2032470703125 147.81594848632812 309.66644287109375 C 147.81594848632812 313.0972900390625 147.81594848632812 316.1397705078125 147.81594848632812 318.7938232421875 C 147.81594848632812 321.41552734375 147.81594848632812 323.40606689453125 147.81594848632812 324.76544189453125 C 147.81594848632812 327.0958251953125 148.25765991210938 328.924560546875 149.14111328125 330.2515869140625 C 150.0245361328125 331.57861328125 151.5787353515625 332.533447265625 153.80368041992188 333.11602783203125 C 156.02862548828125 333.666259765625 159.15338134765625 333.94140625 163.17791748046875 333.94140625 C 167.20245361328125 333.94140625 170.8016357421875 333.8604736328125 173.9754638671875 333.6986083984375 C 177.1492919921875 333.5367431640625 180.19223022460938 333.27783203125 183.10430908203125 332.92181396484375 C 186.049072265625 332.533447265625 189.092041015625 332.0640869140625 192.23312377929688 331.513916015625 C 192.16769409179688 332.6304931640625 192.10223388671875 333.7471923828125 192.03680419921875 334.86376953125 C 189.02658081054688 335.2845458984375 186.0654296875 335.640625 183.15338134765625 335.931884765625 C 180.2740478515625 336.22320556640625 177.1492919921875 336.43359375 173.77914428710938 336.56304931640625 C 170.44171142578125 336.66015625 166.53170776367188 336.708740234375 162.049072265625 336.708740234375 C 158.67892456054688 336.708740234375 155.86502075195312 336.4659423828125 153.60736083984375 335.98046875 C 151.38241577148438 335.4949951171875 149.63189697265625 334.7667236328125 148.3558349609375 333.79571533203125 C 147.11248779296875 332.82470703125 146.24539184570312 331.643310546875 145.75460815429688 330.2515869140625 C 145.2637939453125 328.85980224609375 145.01840209960938 327.2576904296875 145.01840209960938 325.44512939453125M 195.12884521484375 283.1097412109375 C 194.8670654296875 283.433349609375 194.58895874023438 283.83795166015625 194.29449462890625 284.323486328125 C 194.03271484375 284.776611328125 193.77096557617188 285.18115234375 193.50921630859375 285.5372314453125 C 192.396728515625 287.47918701171875 191.15338134765625 289.5506591796875 189.77914428710938 291.7515869140625 C 188.4376220703125 293.9525146484375 186.98159790039062 296.25048828125 185.41104125976562 298.6456298828125 C 183.84048461914062 301.040771484375 182.1226806640625 303.419677734375 180.25765991210938 305.782470703125 C 178.42535400390625 308.145263671875 176.478515625 310.410888671875 174.41717529296875 312.5794677734375 C 173.50103759765625 312.0130615234375 172.58486938476562 311.4466552734375 171.668701171875 310.88018798828125 C 174.31903076171875 308.485107421875 176.85479736328125 305.7015380859375 179.27606201171875 302.5296630859375 C 181.73004150390625 299.35772705078125 183.92230224609375 296.234375 185.85275268554688 293.1595458984375 C 187.78323364257812 290.084716796875 189.2392578125 287.5115966796875 190.22085571289062 285.4400634765625 C 190.22085571289062 285.4400634765625 189.157470703125 285.6666259765625 187.03067016601562 286.11981201171875 C 184.90386962890625 286.54052734375 182.0572509765625 287.10699462890625 178.49078369140625 287.81903076171875 C 174.95706176757812 288.5311279296875 170.96524047851562 289.3240966796875 166.51531982421875 290.197998046875 C 162.09814453125 291.0718994140625 157.58282470703125 291.9781494140625 152.96932983398438 292.916748046875 C 148.3558349609375 293.85540771484375 143.92230224609375 294.7454833984375 139.668701171875 295.5870361328125 C 135.44784545898438 296.39617919921875 131.73416137695312 297.140625 128.52761840820312 297.8203125 C 125.32107543945312 298.4676513671875 122.96524047851562 298.93695068359375 121.46011352539062 299.228271484375 C 121.2310791015625 298.111572265625 121.00204467773438 296.9949951171875 120.77301025390625 295.8782958984375 C 122.40899658203125 295.71649169921875 124.74847412109375 295.3765869140625 127.79141235351562 294.8587646484375 C 130.8343505859375 294.30853271484375 134.35174560546875 293.66119384765625 138.34356689453125 292.916748046875 C 142.33538818359375 292.17236328125 146.50714111328125 291.3631591796875 150.85888671875 290.4892578125 C 155.24334716796875 289.6153564453125 159.5460205078125 288.7576904296875 163.76687622070312 287.9161376953125 C 168.02044677734375 287.0745849609375 171.96319580078125 286.2816162109375 175.5950927734375 285.5372314453125 C 179.25970458984375 284.792724609375 182.33538818359375 284.17779541015625 184.82208251953125 283.69232177734375 C 187.30877685546875 283.1744384765625 188.96115112304688 282.8345947265625 189.77914428710938 282.6727294921875 C 190.46624755859375 282.5433349609375 191.12066650390625 282.365234375 191.74234008789062 282.138671875 C 192.364013671875 281.912109375 192.80572509765625 281.71795654296875 193.06747436523438 281.55615234375 C 193.75460815429688 282.073974609375 194.44171142578125 282.59185791015625 195.12884521484375 283.1097412109375"/>
    <path stroke-width="0" fill="rgb(0, 0, 0)" opacity="1.0" d="M 246.1226806640625 295.2471923828125 C 249.2637939453125 297.0596923828125 252.4376220703125 298.9854736328125 255.6441650390625 301.02459716796875 C 258.8507080078125 303.063720703125 262.0081787109375 305.1837158203125 265.1165771484375 307.3846435546875 C 268.2249450683594 309.55316162109375 271.21881103515625 311.70556640625 274.09814453125 313.84173583984375 C 276.9775085449219 315.9779052734375 279.6441650390625 318.0655517578125 282.09814453125 320.10467529296875 C 281.4110412597656 320.8814697265625 280.72393798828125 321.65826416015625 280.03680419921875 322.43505859375 C 277.7791442871094 320.460693359375 275.21063232421875 318.373046875 272.331298828125 316.172119140625 C 269.48468017578125 313.97119140625 266.47442626953125 311.770263671875 263.30059814453125 309.5693359375 C 260.12677001953125 307.3360595703125 256.92022705078125 305.16748046875 253.68096923828125 303.063720703125 C 250.47442626953125 300.9598388671875 247.31695556640625 298.96929931640625 244.20858764648438 297.092041015625 C 244.84661865234375 296.47705078125 245.48468017578125 295.86212158203125 246.1226806640625 295.2471923828125M 287.93865966796875 277.041015625 C 287.7095947265625 277.494140625 287.4805908203125 278.07672119140625 287.25152587890625 278.788818359375 C 287.0224914550781 279.5008544921875 286.842529296875 280.0186767578125 286.711669921875 280.3424072265625 C 285.8282165527344 283.80560302734375 284.5684814453125 287.4630126953125 282.9324951171875 291.31463623046875 C 281.3292236328125 295.166259765625 279.3987731933594 298.9854736328125 277.14111328125 302.7723388671875 C 274.9161376953125 306.55926513671875 272.429443359375 310.1033935546875 269.68096923828125 313.40478515625 C 265.59100341796875 318.324462890625 260.3721923828125 323.050048828125 254.0245361328125 327.581298828125 C 247.6768798828125 332.1126708984375 240.06951904296875 335.9642333984375 231.20245361328125 339.13623046875 C 230.36810302734375 338.359375 229.53375244140625 337.5826416015625 228.69940185546875 336.8057861328125 C 233.83639526367188 335.31689453125 238.79345703125 333.2940673828125 243.570556640625 330.737060546875 C 248.34765625 328.14776611328125 252.78118896484375 325.21856689453125 256.87115478515625 321.9495849609375 C 260.96112060546875 318.6805419921875 264.478515625 315.28204345703125 267.4233093261719 311.75408935546875 C 270.1717529296875 308.45269775390625 272.6421203613281 304.9085693359375 274.8343505859375 301.1217041015625 C 277.0592956542969 297.3348388671875 278.973388671875 293.53173828125 280.5766906738281 289.7125244140625 C 282.1799621582031 285.89324951171875 283.39056396484375 282.300537109375 284.2085876464844 278.9344482421875 C 271.5460205078125 278.9344482421875 258.8834228515625 278.9344482421875 246.22085571289062 278.9344482421875 C 246.777099609375 277.99578857421875 247.33331298828125 277.05712890625 247.88958740234375 276.1185302734375 C 258.9161376953125 276.1185302734375 269.9427490234375 276.1185302734375 280.96929931640625 276.1185302734375 C 282.049072265625 276.1185302734375 282.8997802734375 276.0699462890625 283.521484375 275.972900390625 C 284.14312744140625 275.87579345703125 284.68304443359375 275.7139892578125 285.14111328125 275.4874267578125 C 286.0736083984375 276.0052490234375 287.0061340332031 276.52313232421875 287.93865966796875 277.041015625M 255.6441650390625 264.466552734375 C 255.18609619140625 265.2757568359375 254.72802734375 266.149658203125 254.26992797851562 267.0882568359375 C 253.81185913085938 268.02691650390625 253.38650512695312 268.868408203125 252.99386596679688 269.61285400390625 C 251.35787963867188 272.6552734375 249.1983642578125 276.15087890625 246.51531982421875 280.099609375 C 243.86502075195312 284.04833984375 240.56033325195312 288.0941162109375 236.60122680664062 292.237060546875 C 232.64212036132812 296.34765625 227.89776611328125 300.29632568359375 222.36810302734375 304.083251953125 C 221.55010986328125 303.46826171875 220.73211669921875 302.853271484375 219.91412353515625 302.23834228515625 C 225.1820068359375 298.93695068359375 229.86093139648438 295.21478271484375 233.950927734375 291.0718994140625 C 238.0408935546875 286.8966064453125 241.46011352539062 282.7860107421875 244.20858764648438 278.740234375 C 246.98977661132812 274.69439697265625 249.03475952148438 271.1826171875 250.34356689453125 268.2049560546875 C 250.60531616210938 267.71942138671875 250.9324951171875 266.9749755859375 251.32513427734375 265.97161865234375 C 251.75051879882812 264.96826171875 252.02862548828125 264.06201171875 252.15948486328125 263.2528076171875 C 253.321044921875 263.65740966796875 254.48260498046875 264.06201171875 255.6441650390625 264.466552734375"/>
    <path stroke-width="0" fill="rgb(0, 0, 0)" opacity="1.0" d="M 371.9140625 265.48614501953125 C 372.7320556640625 266.55419921875 373.61553955078125 267.83270263671875 374.564453125 269.321533203125 C 375.5133056640625 270.8104248046875 376.44580078125 272.3316650390625 377.3619384765625 273.88525390625 C 378.31085205078125 275.4388427734375 379.1287841796875 276.89532470703125 379.81591796875 278.2547607421875 C 378.9488525390625 278.691650390625 378.081787109375 279.128662109375 377.2147216796875 279.5655517578125 C 376.331298828125 277.720703125 375.12066650390625 275.5521240234375 373.58282470703125 273.0599365234375 C 372.04498291015625 270.56768798828125 370.6380615234375 268.4476318359375 369.3619384765625 266.69989013671875 C 370.212646484375 266.2952880859375 371.0633544921875 265.8907470703125 371.9140625 265.48614501953125M 381.435546875 262.2332763671875 C 382.3189697265625 263.3660888671875 383.25152587890625 264.693115234375 384.233154296875 266.21435546875 C 385.2474365234375 267.735595703125 386.245361328125 269.2568359375 387.22698974609375 270.778076171875 C 388.2086181640625 272.29931640625 389.01025390625 273.67486572265625 389.63189697265625 274.90478515625 C 388.74847412109375 275.34173583984375 387.864990234375 275.7786865234375 386.9815673828125 276.21563720703125 C 385.9345703125 274.11181640625 384.6748046875 271.89471435546875 383.20245361328125 269.5643310546875 C 381.76275634765625 267.23388671875 380.3558349609375 265.19482421875 378.9815673828125 263.447021484375 C 379.799560546875 263.04248046875 380.6175537109375 262.63787841796875 381.435546875 262.2332763671875M 346.09814453125 266.262939453125 C 346.03271484375 267.23388671875 345.96728515625 268.3343505859375 345.90185546875 269.5643310546875 C 345.83636474609375 270.7618408203125 345.77099609375 271.92706298828125 345.70550537109375 273.0599365234375 C 345.4110107421875 282.80224609375 344.478515625 291.217529296875 342.907958984375 298.3057861328125 C 341.33740234375 305.39404296875 339.22698974609375 311.47900390625 336.57666015625 316.560546875 C 333.9263916015625 321.6097412109375 330.8670654296875 325.9306640625 327.3988037109375 329.5233154296875 C 323.96319580078125 333.0836181640625 320.2004089355469 336.22320556640625 316.11041259765625 338.9420166015625 C 315.21063232421875 338.19757080078125 314.31085205078125 337.453125 313.4110412597656 336.708740234375 C 314.45806884765625 336.22320556640625 315.61962890625 335.5111083984375 316.89569091796875 334.572509765625 C 318.2044677734375 333.6339111328125 319.33331298828125 332.7923583984375 320.2822265625 332.04791259765625 C 323.09613037109375 329.81463623046875 325.8282165527344 327.07965087890625 328.478515625 323.843017578125 C 331.12884521484375 320.6063232421875 333.517333984375 316.69000244140625 335.6441650390625 312.09393310546875 C 337.77099609375 307.4979248046875 339.48876953125 302.01177978515625 340.79754638671875 295.63555908203125 C 342.1390380859375 289.22698974609375 342.842529296875 281.734130859375 342.907958984375 273.156982421875 C 342.907958984375 272.41259765625 342.8916015625 271.6519775390625 342.85888671875 270.8751220703125 C 342.826171875 270.098388671875 342.777099609375 269.30535888671875 342.711669921875 268.4962158203125 C 342.646240234375 267.68701171875 342.54803466796875 266.942626953125 342.41717529296875 266.262939453125 C 343.6441650390625 266.262939453125 344.87115478515625 266.262939453125 346.09814453125 266.262939453125M 379.61962890625 285.003173828125 C 379.521484375 285.81231689453125 379.439697265625 286.54052734375 379.374267578125 287.1878662109375 C 379.30877685546875 287.835205078125 379.24334716796875 288.498779296875 379.17791748046875 289.178466796875 C 379.1124267578125 290.7320556640625 379.0142822265625 292.98150634765625 378.8834228515625 295.9268798828125 C 378.7525634765625 298.8721923828125 378.53985595703125 302.15740966796875 378.245361328125 305.782470703125 C 377.983642578125 309.3751220703125 377.62371826171875 312.9840087890625 377.1656494140625 316.60906982421875 C 376.74029541015625 320.2017822265625 376.216796875 323.503173828125 375.5950927734375 326.51324462890625 C 374.973388671875 329.5233154296875 374.2208251953125 331.869873046875 373.33740234375 333.552978515625 C 372.4539794921875 335.1712646484375 371.374267578125 336.271728515625 370.09814453125 336.8543701171875 C 368.85479736328125 337.43695068359375 367.23516845703125 337.728271484375 365.2392578125 337.728271484375 C 363.21063232421875 337.728271484375 360.90386962890625 337.6796875 358.31903076171875 337.5826416015625 C 355.766845703125 337.517822265625 353.1983642578125 337.4207763671875 350.613525390625 337.291259765625 C 350.48260498046875 336.255615234375 350.35174560546875 335.2198486328125 350.2208251953125 334.18408203125 C 353.00201416015625 334.44305419921875 355.635986328125 334.6534423828125 358.1226806640625 334.81524658203125 C 360.609375 334.97705078125 362.9161376953125 335.0579833984375 365.04296875 335.0579833984375 C 366.2208251953125 335.0579833984375 367.31695556640625 334.8800048828125 368.331298828125 334.52392578125 C 369.3455810546875 334.13555908203125 370.130859375 333.37493896484375 370.6871337890625 332.24212646484375 C 371.570556640625 330.55908203125 372.3231201171875 328.244873046875 372.94482421875 325.29949951171875 C 373.56640625 322.3541259765625 374.0899658203125 319.0850830078125 374.51531982421875 315.492431640625 C 374.973388671875 311.86737060546875 375.33331298828125 308.2423095703125 375.5950927734375 304.6173095703125 C 375.8568115234375 300.9598388671875 376.02044677734375 297.5775146484375 376.08587646484375 294.4703369140625 C 376.18408203125 291.330810546875 376.233154296875 288.7576904296875 376.233154296875 286.7509765625 C 358.46624755859375 286.7509765625 340.69940185546875 286.7509765625 322.9324951171875 286.7509765625 C 320.77301025390625 286.7509765625 319.0224914550781 286.76708984375 317.68096923828125 286.79949951171875 C 316.3394775390625 286.83184814453125 314.9815979003906 286.91278076171875 313.60736083984375 287.042236328125 C 313.60736083984375 285.89324951171875 313.60736083984375 284.74420166015625 313.60736083984375 283.59521484375 C 314.9161376953125 283.659912109375 316.3231201171875 283.7408447265625 317.8282165527344 283.83795166015625 C 319.33331298828125 283.93505859375 321.00201416015625 283.983642578125 322.8343505859375 283.983642578125 C 339.32513427734375 283.983642578125 355.81591796875 283.983642578125 372.3067626953125 283.983642578125 C 373.61553955078125 283.983642578125 374.6298828125 283.95123291015625 375.3497314453125 283.886474609375 C 376.06951904296875 283.82177734375 376.658447265625 283.757080078125 377.1165771484375 283.69232177734375 C 377.950927734375 284.1292724609375 378.7852783203125 284.566162109375 379.61962890625 285.003173828125"/>
    <path stroke-width="0" fill="rgb(0, 0, 0)" opacity="1.0" d="M 426.6871337890625 265.146240234375 C 426.7198486328125 265.8907470703125 426.8670654296875 266.73223876953125 427.1287841796875 267.6708984375 C 427.390625 268.5771484375 427.668701171875 269.72613525390625 427.96319580078125 271.117919921875 C 428.6829833984375 273.5130615234375 429.55010986328125 276.5716552734375 430.564453125 280.2938232421875 C 431.6114501953125 283.983642578125 432.723876953125 287.9647216796875 433.90185546875 292.237060546875 C 435.1124267578125 296.47705078125 436.3231201171875 300.765625 437.53369140625 305.102783203125 C 438.777099609375 309.40753173828125 439.9222412109375 313.453369140625 440.9693603515625 317.240234375 C 442.049072265625 321.027099609375 442.9652099609375 324.2799072265625 443.7177734375 326.998779296875 C 444.4703369140625 329.6851806640625 445.01025390625 331.530029296875 445.33740234375 332.533447265625 C 445.50103759765625 333.14837646484375 445.68096923828125 333.779541015625 445.8773193359375 334.4268798828125 C 446.0736083984375 335.07421875 446.2862548828125 335.7376708984375 446.51531982421875 336.4173583984375 C 446.777099609375 337.064697265625 447.006103515625 337.6959228515625 447.20245361328125 338.31085205078125 C 446.0408935546875 338.6182861328125 444.87933349609375 338.92578125 443.7177734375 339.2332763671875 C 443.5869140625 338.359375 443.406982421875 337.404541015625 443.17791748046875 336.368896484375 C 442.9815673828125 335.30078125 442.7198486328125 334.29736328125 442.39263916015625 333.3587646484375 C 442.16357421875 332.420166015625 441.68914794921875 330.7047119140625 440.9693603515625 328.2125244140625 C 440.2822265625 325.6878662109375 439.4478759765625 322.6292724609375 438.46624755859375 319.03656005859375 C 437.517333984375 315.4114990234375 436.4703369140625 311.5760498046875 435.32513427734375 307.5302734375 C 434.212646484375 303.45208740234375 433.0838623046875 299.40625 431.9385986328125 295.392822265625 C 430.826171875 291.37939453125 429.7955322265625 287.6895751953125 428.84661865234375 284.323486328125 C 427.897705078125 280.9249267578125 427.1124267578125 278.10906982421875 426.49078369140625 275.87579345703125 C 425.869140625 273.610107421875 425.4600830078125 272.26690673828125 425.2637939453125 271.84619140625 C 424.80572509765625 270.48675537109375 424.396728515625 269.3377685546875 424.03680419921875 268.39910888671875 C 423.7095947265625 267.46044921875 423.3988037109375 266.6837158203125 423.104248046875 266.0687255859375 C 424.298583984375 265.76123046875 425.4927978515625 265.4537353515625 426.6871337890625 265.146240234375M 480.77301025390625 278.5460205078125 C 479.6278076171875 280.779296875 478.1063232421875 283.27154541015625 476.2086181640625 286.022705078125 C 474.343505859375 288.741455078125 472.265869140625 291.5087890625 469.9754638671875 294.32470703125 C 467.68505859375 297.1082763671875 465.3946533203125 299.72991943359375 463.104248046875 302.1898193359375 C 460.81390380859375 304.649658203125 458.7198486328125 306.7210693359375 456.82208251953125 308.4041748046875 C 455.7913818359375 307.8701171875 454.7607421875 307.3360595703125 453.73004150390625 306.802001953125 C 455.7913818359375 305.1837158203125 457.950927734375 303.24169921875 460.2086181640625 300.97607421875 C 462.46624755859375 298.71038818359375 464.64208984375 296.31524658203125 466.7362060546875 293.7906494140625 C 468.86297607421875 291.26611328125 470.777099609375 288.838623046875 472.478515625 286.5081787109375 C 474.179931640625 284.17779541015625 475.521484375 282.17108154296875 476.5030517578125 280.488037109375 C 475.88134765625 280.61749267578125 474.26171875 280.941162109375 471.6441650390625 281.458984375 C 469.059326171875 281.94451904296875 465.77099609375 282.57568359375 461.7791748046875 283.3524169921875 C 457.78729248046875 284.1292724609375 453.46826171875 284.9708251953125 448.82208251953125 285.8770751953125 C 444.1759033203125 286.7833251953125 439.4969482421875 287.6895751953125 434.7852783203125 288.5958251953125 C 430.0736083984375 289.4697265625 425.65643310546875 290.311279296875 421.53369140625 291.12042236328125 C 417.4110107421875 291.9295654296875 413.9100341796875 292.64166259765625 411.0306396484375 293.256591796875 C 408.1513671875 293.8392333984375 406.2044677734375 294.2437744140625 405.190185546875 294.4703369140625 C 404.87933349609375 293.353759765625 404.5684814453125 292.237060546875 404.2576904296875 291.12042236328125 C 405.6973876953125 291.0233154296875 407.038818359375 290.89385986328125 408.2822265625 290.7320556640625 C 409.55828857421875 290.5701904296875 410.9488525390625 290.35980224609375 412.4539794921875 290.10089111328125 C 413.14111328125 289.971435546875 414.72802734375 289.68011474609375 417.2147216796875 289.22698974609375 C 419.734130859375 288.77386474609375 422.809814453125 288.2073974609375 426.44171142578125 287.5277099609375 C 430.1063232421875 286.815673828125 434.03271484375 286.0712890625 438.2208251953125 285.29443359375 C 442.44171142578125 284.51763916015625 446.646240234375 283.7408447265625 450.8343505859375 282.96405029296875 C 455.0224609375 282.187255859375 458.9161376953125 281.458984375 462.51531982421875 280.779296875 C 466.147216796875 280.099609375 469.157470703125 279.51702880859375 471.5460205078125 279.031494140625 C 473.96728515625 278.513671875 475.472412109375 278.2061767578125 476.06134033203125 278.10906982421875 C 476.4866943359375 277.9796142578125 476.94476318359375 277.85015869140625 477.435546875 277.720703125 C 477.9591064453125 277.5911865234375 478.4007568359375 277.42938232421875 478.7607421875 277.23516845703125 C 479.4315185546875 277.672119140625 480.10223388671875 278.10906982421875 480.77301025390625 278.5460205078125"/>
  </g>
</svg>
