<?xml version="1.0" ?>
<svg xmlns="http://www.w3.org/2000/svg" version="1.1" width="600" height="600">
  <defs/>
  <g>
    <path stroke-width="0" fill="rgb(0, 0, 0)" opacity="1.0" d="M 396.6358642578125 142.6551513671875 C 400.08349609375 147.20687866210938 403.7381591796875 152.65518188476562 407.5994873046875 159.0 C 411.5987548828125 165.34481811523438 415.5980224609375 171.82757568359375 419.597412109375 178.44827270507812 C 423.5966796875 185.0689697265625 427.0443115234375 191.34481811523438 429.9404296875 197.27584838867188 C 426.2169189453125 199.0689697265625 422.493408203125 200.862060546875 418.7698974609375 202.6551513671875 C 415.184326171875 194.7930908203125 410.081787109375 185.55172729492188 403.4622802734375 174.9310302734375 C 396.9805908203125 164.31033325195312 391.11962890625 155.27584838867188 385.879150390625 147.82757568359375 C 389.4647216796875 146.10342407226562 393.05029296875 144.37930297851562 396.6358642578125 142.6551513671875M 436.7667236328125 128.7930908203125 C 440.490234375 133.62069702148438 444.420654296875 139.27584838867188 448.557861328125 145.75860595703125 C 452.8328857421875 152.24136352539062 457.0390625 158.72412109375 461.17626953125 165.20687866210938 C 465.3134765625 171.68966674804688 468.6922607421875 177.55169677734375 471.3125 182.7930908203125 C 467.5889892578125 184.6551513671875 463.865478515625 186.51724243164062 460.1419677734375 188.37930297851562 C 455.591064453125 179.41378784179688 450.28173828125 169.96551513671875 444.2137451171875 160.03448486328125 C 438.1458740234375 150.10342407226562 432.2158203125 141.41378784179688 426.4237060546875 133.96551513671875 C 429.8714599609375 132.24136352539062 433.319091796875 130.51724243164062 436.7667236328125 128.7930908203125M 413.598388671875 213.41378784179688 C 412.633056640625 215.3448486328125 411.667724609375 217.82757568359375 410.702392578125 220.862060546875 C 409.737060546875 223.89654541015625 409.0474853515625 226.03448486328125 408.6337890625 227.27584838867188 C 405.1861572265625 242.17242431640625 400.0146484375 257.82757568359375 393.1192626953125 274.24139404296875 C 386.223876953125 290.6551513671875 378.0184326171875 306.9310302734375 368.5029296875 323.0689697265625 C 359.125244140625 339.2069091796875 348.644287109375 354.310302734375 337.0601806640625 368.3792724609375 C 319.82177734375 389.3448486328125 298.721923828125 408.72412109375 273.760986328125 426.5172119140625 C 248.937744140625 444.17242431640625 217.9775390625 459.4827880859375 180.880615234375 472.4482421875 C 177.364013671875 469.0 173.847412109375 465.5517578125 170.330810546875 462.10345458984375 C 191.982177734375 456.03448486328125 212.323486328125 447.96551513671875 231.3544921875 437.89654541015625 C 250.3857421875 427.82757568359375 268.037841796875 416.310302734375 284.310791015625 403.3448486328125 C 300.7216796875 390.3792724609375 315.1329345703125 376.310302734375 327.5445556640625 361.137939453125 C 339.1287841796875 347.2069091796875 349.540771484375 332.17242431640625 358.780517578125 316.03448486328125 C 368.158203125 299.75860595703125 376.2257080078125 283.4827575683594 382.983154296875 267.2069091796875 C 389.740478515625 250.9310302734375 394.7052001953125 235.68963623046875 397.8770751953125 221.48275756835938 C 344.3692626953125 221.48275756835938 290.861328125 221.48275756835938 237.353515625 221.48275756835938 C 239.766845703125 217.48272705078125 242.18017578125 213.48275756835938 244.5936279296875 209.48275756835938 C 247.4896240234375 209.48275756835938 253.6954345703125 209.48275756835938 263.2109375 209.48275756835938 C 272.7265625 209.48275756835938 283.7591552734375 209.48275756835938 296.30859375 209.48275756835938 C 308.858154296875 209.48275756835938 321.40771484375 209.48275756835938 333.957275390625 209.48275756835938 C 346.6446533203125 209.48275756835938 357.6082763671875 209.48275756835938 366.8480224609375 209.48275756835938 C 376.0877685546875 209.48275756835938 381.8798828125 209.48275756835938 384.2242431640625 209.48275756835938 C 388.775146484375 209.48275756835938 392.36083984375 209.27584838867188 394.98095703125 208.862060546875 C 397.6011962890625 208.44827270507812 399.876708984375 207.75860595703125 401.807373046875 206.7930908203125 C 405.73779296875 209.0 409.6680908203125 211.2069091796875 413.598388671875 213.41378784179688M 277.0706787109375 156.31033325195312 C 275.27783203125 159.75860595703125 273.4161376953125 163.48272705078125 271.4853515625 167.48275756835938 C 269.692626953125 171.34481811523438 267.96875 174.862060546875 266.31396484375 178.03448486328125 C 259.6943359375 191.27584838867188 251.00634765625 206.10345458984375 240.24951171875 222.5172119140625 C 229.630615234375 238.9310302734375 216.1158447265625 255.62066650390625 199.704833984375 272.586181640625 C 183.431884765625 289.55169677734375 163.5733642578125 305.75860595703125 140.129150390625 321.2069091796875 C 136.5435791015625 318.5172119140625 132.9580078125 315.82757568359375 129.3724365234375 313.137939453125 C 146.3349609375 303.3448486328125 161.642578125 292.3103332519531 175.29541015625 280.03448486328125 C 189.0860595703125 267.75860595703125 201.290771484375 255.137939453125 211.90966796875 242.17242431640625 C 222.528564453125 229.0689697265625 231.492431640625 216.5172119140625 238.801513671875 204.5172119140625 C 246.110595703125 192.51724243164062 251.557861328125 181.82757568359375 255.1435546875 172.44827270507812 C 256.246826171875 170.37930297851562 257.4879150390625 167.20687866210938 258.866943359375 162.9310302734375 C 260.384033203125 158.5172119140625 261.418212890625 154.586181640625 261.9698486328125 151.13790893554688 C 267.00341796875 152.862060546875 272.037109375 154.586181640625 277.0706787109375 156.31033325195312"/>
  </g>
</svg>
