<?xml version="1.0" encoding="utf-8"?>
<svg xmlns="http://www.w3.org/2000/svg" xmlns:ev="http://www.w3.org/2001/xml-events" xmlns:xlink="http://www.w3.org/1999/xlink" version="1.1" baseProfile="full" width="30496.0" height="1753.0" viewBox="136.0 -1597.0 30496.0 1753.0">
<defs/>
<g><path d="M 2358.000000 -935.000000 C 2376.333333 -930.666667 2394.666667 -926.333333 2413.000000 -922.000000 C 2371.000000 -806.666667 2317.333333 -698.666667 2252.000000 -598.000000 C 2186.666667 -497.333333 2116.333333 -412.000000 2041.000000 -342.000000 C 2038.333333 -344.666667 2033.666667 -347.666667 2027.000000 -351.000000 C 2021.000000 -355.000000 2014.333333 -359.333333 2007.000000 -364.000000 C 2000.333333 -368.666667 1994.333333 -372.000000 1989.000000 -374.000000 C 2068.333333 -442.000000 2139.666667 -525.333333 2203.000000 -624.000000 C 2266.333333 -722.666667 2318.000000 -826.333333 2358.000000 -935.000000z M 3360.000000 -910.000000 C 3375.333333 -916.333333 3390.666667 -922.666667 3406.000000 -929.000000 C 3456.000000 -867.666667 3504.333333 -800.666667 3551.000000 -728.000000 C 3597.666667 -656.000000 3639.000000 -585.333333 3675.000000 -516.000000 C 3711.000000 -447.333333 3738.000000 -386.000000 3756.000000 -332.000000 C 3738.666667 -324.333333 3721.333333 -316.666667 3704.000000 -309.000000 C 3687.333333 -363.000000 3661.000000 -424.666667 3625.000000 -494.000000 C 3589.000000 -564.000000 3548.000000 -635.333333 3502.000000 -708.000000 C 3456.000000 -781.333333 3408.666667 -848.666667 3360.000000 -910.000000z M 2849.000000 -1594.000000 C 2868.333333 -1594.000000 2887.666667 -1594.000000 2907.000000 -1594.000000 C 2907.000000 -1464.000000 2907.000000 -1334.000000 2907.000000 -1204.000000 C 2887.666667 -1204.000000 2868.333333 -1204.000000 2849.000000 -1204.000000 C 2849.000000 -1334.000000 2849.000000 -1464.000000 2849.000000 -1594.000000z M 2047.000000 -1231.000000 C 2603.000000 -1231.000000 3159.000000 -1231.000000 3715.000000 -1231.000000 C 3715.000000 -1212.333333 3715.000000 -1193.666667 3715.000000 -1175.000000 C 3159.000000 -1175.000000 2603.000000 -1175.000000 2047.000000 -1175.000000 C 2047.000000 -1193.666667 2047.000000 -1212.333333 2047.000000 -1231.000000z M 3120.000000 -1206.000000 C 3139.333333 -1206.000000 3158.666667 -1206.000000 3178.000000 -1206.000000 C 3178.000000 -793.666667 3178.000000 -381.333333 3178.000000 31.000000 C 3178.000000 61.666667 3172.666667 83.666667 3162.000000 97.000000 C 3152.000000 110.333333 3135.333333 119.666667 3112.000000 125.000000 C 3088.000000 129.666667 3050.333333 132.666667 2999.000000 134.000000 C 2947.666667 135.333333 2880.333333 136.000000 2797.000000 136.000000 C 2795.000000 128.666667 2791.666667 119.000000 2787.000000 107.000000 C 2782.333333 95.666667 2777.000000 85.666667 2771.000000 77.000000 C 2820.333333 78.333333 2865.666667 79.333333 2907.000000 80.000000 C 2949.000000 80.666667 2984.666667 80.666667 3014.000000 80.000000 C 3044.000000 79.333333 3064.666667 79.000000 3076.000000 79.000000 C 3094.000000 77.666667 3105.666667 73.666667 3111.000000 67.000000 C 3117.000000 61.000000 3120.000000 49.666667 3120.000000 33.000000 C 3120.000000 -380.000000 3120.000000 -793.000000 3120.000000 -1206.000000z M 2646.000000 -1210.000000 C 2664.333333 -1210.000000 2682.666667 -1210.000000 2701.000000 -1210.000000 C 2701.000000 -1112.666667 2701.000000 -1015.333333 2701.000000 -918.000000 C 2701.000000 -832.000000 2696.333333 -743.333333 2687.000000 -652.000000 C 2677.666667 -560.666667 2656.666667 -468.333333 2624.000000 -375.000000 C 2591.333333 -282.333333 2542.000000 -191.666667 2476.000000 -103.000000 C 2410.000000 -15.000000 2320.666667 68.666667 2208.000000 148.000000 C 2205.333333 142.666667 2201.333333 137.666667 2196.000000 133.000000 C 2191.333333 129.000000 2186.333333 124.666667 2181.000000 120.000000 C 2175.666667 115.333333 2171.333333 111.666667 2168.000000 109.000000 C 2278.000000 32.333333 2365.333333 -49.000000 2430.000000 -135.000000 C 2494.666667 -221.666667 2542.333333 -309.666667 2573.000000 -399.000000 C 2603.666667 -489.000000 2623.333333 -577.666667 2632.000000 -665.000000 C 2641.333333 -753.000000 2646.000000 -837.333333 2646.000000 -918.000000 C 2646.000000 -1015.333333 2646.000000 -1112.666667 2646.000000 -1210.000000z "/>
</g></svg>
