<?xml version="1.0" ?>
<svg xmlns="http://www.w3.org/2000/svg" version="1.1" width="600" height="600">
  <defs/>
  <g>
    <path stroke-width="0" fill="rgb(0, 0, 0)" opacity="1.0" d="M 314.0382080078125 165.412841796875 C 311.69873046875 186.33029174804688 308.5338134765625 208.00457763671875 304.54296875 230.435791015625 C 300.55224609375 252.7293701171875 295.8046875 273.23394775390625 290.30029296875 291.94952392578125 C 282.043701171875 319.47247314453125 273.374267578125 341.9036865234375 264.2919921875 359.24310302734375 C 255.209716796875 376.4449462890625 245.8521728515625 389.10546875 236.219482421875 397.2247314453125 C 226.586669921875 405.2064208984375 216.74755859375 409.197265625 206.7020263671875 409.197265625 C 197.89501953125 409.197265625 188.812744140625 405.6881103515625 179.455078125 398.66973876953125 C 170.09765625 391.5137939453125 162.18505859375 380.77978515625 155.71728515625 366.4678955078125 C 149.2496337890625 352.15594482421875 146.0157470703125 334.3348388671875 146.0157470703125 313.00457763671875 C 146.0157470703125 292.63763427734375 150.212890625 273.37158203125 158.607177734375 255.2064208984375 C 167.1390380859375 236.9036865234375 178.90478515625 220.59634399414062 193.904296875 206.284423828125 C 209.0413818359375 191.97247314453125 226.586669921875 180.75689697265625 246.540283203125 172.63760375976562 C 266.49365234375 164.3807373046875 287.8233642578125 160.25228881835938 310.529052734375 160.25228881835938 C 332.4091796875 160.25228881835938 352.15625 163.89907836914062 369.7703857421875 171.19265747070312 C 387.3846435546875 178.48623657226562 402.4530029296875 188.39450073242188 414.9754638671875 200.91741943359375 C 427.498046875 213.44036865234375 437.1307373046875 227.958740234375 443.8736572265625 244.47247314453125 C 450.6165771484375 260.9862365722656 453.988037109375 278.5321044921875 453.988037109375 297.110107421875 C 453.988037109375 324.7706298828125 447.8643798828125 348.784423828125 435.6170654296875 369.1513671875 C 423.50732421875 389.518310546875 406.512451171875 405.82568359375 384.63232421875 418.0733642578125 C 362.7523193359375 430.1834716796875 336.9503173828125 437.82110595703125 307.2264404296875 440.9862060546875 C 305.024658203125 436.99542236328125 302.8228759765625 433.00457763671875 300.62109375 429.0137939453125 C 305.5751953125 428.738525390625 310.94189453125 428.32568359375 316.7215576171875 427.7752685546875 C 322.6387939453125 427.087158203125 327.5927734375 426.33026123046875 331.58349609375 425.50457763671875 C 344.2437744140625 422.889892578125 357.1102294921875 418.3486328125 370.1832275390625 411.8807373046875 C 383.2562255859375 405.412841796875 395.2283935546875 396.9495849609375 406.099609375 386.4908447265625 C 417.1085205078125 376.0321044921875 425.984375 363.37158203125 432.7271728515625 348.5091552734375 C 439.4700927734375 333.5091552734375 442.841552734375 316.1009521484375 442.841552734375 296.284423828125 C 442.841552734375 279.90826416015625 439.8829345703125 264.28900146484375 433.9656982421875 249.42660522460938 C 428.0484619140625 234.42660522460938 419.3790283203125 221.14678955078125 407.957275390625 209.587158203125 C 396.67333984375 197.88992309570312 382.843505859375 188.60092163085938 366.4677734375 181.72018432617188 C 350.092041015625 174.83944702148438 331.4459228515625 171.39907836914062 310.529052734375 171.39907836914062 C 288.0986328125 171.39907836914062 267.45703125 175.59634399414062 248.6043701171875 183.9908447265625 C 229.889404296875 192.24771118164062 213.6513671875 203.25689697265625 199.8902587890625 217.01837158203125 C 186.1292724609375 230.77981567382812 175.533203125 245.98623657226562 168.102294921875 262.63763427734375 C 160.808837890625 279.28900146484375 157.1622314453125 295.94036865234375 157.1622314453125 312.59173583984375 C 157.1622314453125 332.40826416015625 159.91455078125 348.5780029296875 165.4189453125 361.1009521484375 C 170.9232177734375 373.62384033203125 177.597412109375 382.843994140625 185.441162109375 388.761474609375 C 193.284912109375 394.541259765625 200.6470947265625 397.43115234375 207.527587890625 397.43115234375 C 214.408203125 397.43115234375 221.770263671875 393.9908447265625 229.6141357421875 387.110107421875 C 237.595458984375 380.2293701171875 245.783447265625 368.807373046875 254.1776123046875 352.84405517578125 C 262.70947265625 336.74310302734375 270.897216796875 315.412841796875 278.7410888671875 288.85321044921875 C 284.520751953125 269.44952392578125 289.4058837890625 249.22018432617188 293.3966064453125 228.1651611328125 C 297.3873291015625 206.97247314453125 300.345947265625 186.19265747070312 302.2724609375 165.82568359375 C 306.1943359375 165.68807983398438 310.1162109375 165.55044555664062 314.0382080078125 165.412841796875"/>
  </g>
</svg>
