<?xml version="1.0" encoding="utf-8"?>
<svg xmlns="http://www.w3.org/2000/svg" xmlns:ev="http://www.w3.org/2001/xml-events" xmlns:xlink="http://www.w3.org/1999/xlink" version="1.1" baseProfile="full" width="7382.0" height="1730.0" viewBox="204.0 -1596.0 7382.0 1730.0">
<defs/>
<g><path d="M 7215.000000 -1227.000000 C 7234.333333 -1220.666667 7253.666667 -1214.333333 7273.000000 -1208.000000 C 7192.333333 -970.000000 7089.666667 -765.000000 6965.000000 -593.000000 C 6840.333333 -421.666667 6690.333333 -277.333333 6515.000000 -160.000000 C 6339.666667 -43.333333 6133.333333 54.666667 5896.000000 134.000000 C 5894.666667 129.333333 5891.666667 123.666667 5887.000000 117.000000 C 5883.000000 111.000000 5878.333333 104.333333 5873.000000 97.000000 C 5868.333333 89.666667 5863.333333 84.333333 5858.000000 81.000000 C 6093.333333 7.666667 6298.000000 -86.666667 6472.000000 -202.000000 C 6646.000000 -318.000000 6794.000000 -459.666667 6916.000000 -627.000000 C 7038.666667 -795.000000 7138.333333 -995.000000 7215.000000 -1227.000000z M 6211.000000 -1221.000000 C 6285.666667 -1001.000000 6385.333333 -803.666667 6510.000000 -629.000000 C 6634.666667 -454.333333 6786.666667 -306.333333 6966.000000 -185.000000 C 7145.333333 -64.333333 7352.000000 25.000000 7586.000000 83.000000 C 7582.000000 86.333333 7577.333333 91.333333 7572.000000 98.000000 C 7567.333333 104.666667 7562.333333 111.000000 7557.000000 117.000000 C 7551.666667 123.666667 7547.333333 129.333333 7544.000000 134.000000 C 7309.333333 72.666667 7102.333333 -19.666667 6923.000000 -143.000000 C 6744.333333 -266.333333 6591.666667 -417.333333 6465.000000 -596.000000 C 6338.333333 -774.666667 6235.666667 -977.333333 6157.000000 -1204.000000 C 6175.000000 -1209.666667 6193.000000 -1215.333333 6211.000000 -1221.000000z M 5868.000000 -1246.000000 C 6438.666667 -1246.000000 7009.333333 -1246.000000 7580.000000 -1246.000000 C 7580.000000 -1227.333333 7580.000000 -1208.666667 7580.000000 -1190.000000 C 7009.333333 -1190.000000 6438.666667 -1190.000000 5868.000000 -1190.000000 C 5868.000000 -1208.666667 5868.000000 -1227.333333 5868.000000 -1246.000000z M 6687.000000 -1596.000000 C 6706.333333 -1596.000000 6725.666667 -1596.000000 6745.000000 -1596.000000 C 6745.000000 -1468.333333 6745.000000 -1340.666667 6745.000000 -1213.000000 C 6725.666667 -1213.000000 6706.333333 -1213.000000 6687.000000 -1213.000000 C 6687.000000 -1340.666667 6687.000000 -1468.333333 6687.000000 -1596.000000z "/>
</g></svg>
