<?xml version="1.0" encoding="utf-8"?>
<svg xmlns="http://www.w3.org/2000/svg" xmlns:ev="http://www.w3.org/2001/xml-events" xmlns:xlink="http://www.w3.org/1999/xlink" version="1.1" baseProfile="full" width="41856.0" height="1776.0" viewBox="67.0 -1634.0 41856.0 1776.0">
<defs/>
<g><path d="M 13903.000000 -1098.000000 C 14225.333333 -1098.000000 14547.666667 -1098.000000 14870.000000 -1098.000000 C 14870.000000 -1079.000000 14870.000000 -1060.000000 14870.000000 -1041.000000 C 14547.666667 -1041.000000 14225.333333 -1041.000000 13903.000000 -1041.000000 C 13903.000000 -1060.000000 13903.000000 -1079.000000 13903.000000 -1098.000000z M 13903.000000 -801.000000 C 14225.333333 -801.000000 14547.666667 -801.000000 14870.000000 -801.000000 C 14870.000000 -781.666667 14870.000000 -762.333333 14870.000000 -743.000000 C 14547.666667 -743.000000 14225.333333 -743.000000 13903.000000 -743.000000 C 13903.000000 -762.333333 13903.000000 -781.666667 13903.000000 -801.000000z M 14845.000000 -1396.000000 C 14864.333333 -1396.000000 14883.666667 -1396.000000 14903.000000 -1396.000000 C 14903.000000 -925.666667 14903.000000 -455.333333 14903.000000 15.000000 C 14903.000000 51.000000 14897.000000 77.000000 14885.000000 93.000000 C 14873.666667 109.000000 14853.333333 119.666667 14824.000000 125.000000 C 14794.666667 129.666667 14747.666667 132.666667 14683.000000 134.000000 C 14618.333333 135.333333 14535.000000 135.333333 14433.000000 134.000000 C 14431.666667 129.333333 14429.333333 123.333333 14426.000000 116.000000 C 14422.666667 109.333333 14419.333333 102.000000 14416.000000 94.000000 C 14413.333333 86.666667 14410.000000 79.666667 14406.000000 73.000000 C 14467.333333 74.333333 14524.000000 75.333333 14576.000000 76.000000 C 14628.666667 76.666667 14673.666667 76.666667 14711.000000 76.000000 C 14748.333333 75.333333 14774.000000 75.000000 14788.000000 75.000000 C 14809.333333 73.666667 14824.000000 68.666667 14832.000000 60.000000 C 14840.666667 52.000000 14845.000000 37.666667 14845.000000 17.000000 C 14845.000000 -454.000000 14845.000000 -925.000000 14845.000000 -1396.000000z M 13553.000000 -447.000000 C 13661.000000 -453.666667 13786.666667 -461.666667 13930.000000 -471.000000 C 14073.333333 -481.000000 14226.000000 -491.666667 14388.000000 -503.000000 C 14550.666667 -514.333333 14712.666667 -526.000000 14874.000000 -538.000000 C 14873.333333 -521.333333 14872.666667 -504.666667 14872.000000 -488.000000 C 14714.666667 -474.666667 14557.000000 -462.000000 14399.000000 -450.000000 C 14241.000000 -438.000000 14090.333333 -426.333333 13947.000000 -415.000000 C 13803.666667 -404.333333 13676.333333 -395.333333 13565.000000 -388.000000 C 13561.000000 -407.666667 13557.000000 -427.333333 13553.000000 -447.000000z M 15166.000000 -937.000000 C 15182.000000 -927.333333 15198.000000 -917.666667 15214.000000 -908.000000 C 15091.333333 -738.000000 14945.333333 -588.333333 14776.000000 -459.000000 C 14607.333333 -329.666667 14421.666667 -217.333333 14219.000000 -122.000000 C 14017.000000 -26.666667 13804.666667 53.666667 13582.000000 119.000000 C 13580.666667 113.666667 13577.666667 107.666667 13573.000000 101.000000 C 13569.000000 95.000000 13564.666667 88.333333 13560.000000 81.000000 C 13555.333333 74.333333 13550.666667 69.000000 13546.000000 65.000000 C 13770.000000 3.666667 13983.000000 -73.666667 14185.000000 -167.000000 C 14387.000000 -260.333333 14571.666667 -371.000000 14739.000000 -499.000000 C 14907.000000 -627.000000 15049.333333 -773.000000 15166.000000 -937.000000z M 14356.000000 -1599.000000 C 14377.000000 -1591.333333 14398.000000 -1583.666667 14419.000000 -1576.000000 C 14398.333333 -1536.666667 14376.000000 -1495.333333 14352.000000 -1452.000000 C 14328.666667 -1409.333333 14306.333333 -1373.333333 14285.000000 -1344.000000 C 14268.333333 -1351.000000 14251.666667 -1358.000000 14235.000000 -1365.000000 C 14255.666667 -1397.000000 14277.666667 -1435.666667 14301.000000 -1481.000000 C 14325.000000 -1526.333333 14343.333333 -1565.666667 14356.000000 -1599.000000z M 13870.000000 -1396.000000 C 14201.666667 -1396.000000 14533.333333 -1396.000000 14865.000000 -1396.000000 C 14865.000000 -1377.333333 14865.000000 -1358.666667 14865.000000 -1340.000000 C 14552.000000 -1340.000000 14239.000000 -1340.000000 13926.000000 -1340.000000 C 13926.000000 -1040.000000 13926.000000 -740.000000 13926.000000 -440.000000 C 13907.333333 -440.000000 13888.666667 -440.000000 13870.000000 -440.000000 C 13870.000000 -758.666667 13870.000000 -1077.333333 13870.000000 -1396.000000z "/>
</g></svg>
