<?xml version="1.0" ?>
<svg xmlns="http://www.w3.org/2000/svg" version="1.1" width="600" height="600">
  <defs/>
  <g>
    <path stroke-width="0" fill="rgb(0, 0, 0)" opacity="1.0" d="M 199.4287109375 198.51837158203125 C 267.751953125 198.51837158203125 336.076171875 198.51837158203125 404.3994140625 198.51837158203125 C 404.3994140625 202.44036865234375 404.3994140625 206.36236572265625 404.3994140625 210.284423828125 C 336.076171875 210.284423828125 267.751953125 210.284423828125 199.4287109375 210.284423828125 C 199.4287109375 206.36236572265625 199.4287109375 202.44036865234375 199.4287109375 198.51837158203125M 221.30859375 263.3348693847656 C 225.162109375 263.3348693847656 229.0146484375 263.3348693847656 232.8681640625 263.3348693847656 C 232.8681640625 313.4266357421875 232.8681640625 363.518310546875 232.8681640625 413.610107421875 C 229.0146484375 413.610107421875 225.162109375 413.610107421875 221.30859375 413.610107421875 C 221.30859375 363.518310546875 221.30859375 313.4266357421875 221.30859375 263.3348693847656M 227.294921875 263.3348693847656 C 277.8662109375 263.3348693847656 328.4384765625 263.3348693847656 379.009765625 263.3348693847656 C 379.009765625 302.9678955078125 379.009765625 342.6009521484375 379.009765625 382.23394775390625 C 328.4384765625 382.23394775390625 277.8662109375 382.23394775390625 227.294921875 382.23394775390625 C 227.294921875 378.3118896484375 227.294921875 374.389892578125 227.294921875 370.4678955078125 C 274.0126953125 370.4678955078125 320.732421875 370.4678955078125 367.451171875 370.4678955078125 C 367.451171875 338.610107421875 367.451171875 306.7523193359375 367.451171875 274.8945007324219 C 320.732421875 274.8945007324219 274.0126953125 274.8945007324219 227.294921875 274.8945007324219 C 227.294921875 271.041259765625 227.294921875 267.1880798339844 227.294921875 263.3348693847656M 141.6318359375 132.25689697265625 C 246.904296875 132.25689697265625 352.17578125 132.25689697265625 457.4482421875 132.25689697265625 C 457.4482421875 136.11007690429688 457.4482421875 139.96331787109375 457.4482421875 143.8165283203125 C 356.1669921875 143.8165283203125 254.8857421875 143.8165283203125 153.6044921875 143.8165283203125 C 153.6044921875 251.84405517578125 153.6044921875 359.87158203125 153.6044921875 467.8990478515625 C 149.6142578125 467.8990478515625 145.623046875 467.8990478515625 141.6318359375 467.8990478515625 C 141.6318359375 356.018310546875 141.6318359375 244.13763427734375 141.6318359375 132.25689697265625M 447.5400390625 132.25689697265625 C 451.5302734375 132.25689697265625 455.521484375 132.25689697265625 459.5126953125 132.25689697265625 C 459.5126953125 236.77520751953125 459.5126953125 341.2935791015625 459.5126953125 445.8118896484375 C 459.5126953125 451.866943359375 458.3427734375 456.3394775390625 456.0029296875 459.2293701171875 C 453.8017578125 462.1192626953125 450.4990234375 464.11468505859375 446.095703125 465.215576171875 C 441.8291015625 466.17889404296875 434.810546875 466.79815673828125 425.041015625 467.0733642578125 C 415.2705078125 467.3486328125 401.6474609375 467.3486328125 384.1708984375 467.0733642578125 C 383.8955078125 466.110107421875 383.4130859375 465.0091552734375 382.7255859375 463.7706298828125 C 382.1748046875 462.5321044921875 381.5556640625 461.156005859375 380.8681640625 459.6422119140625 C 380.1806640625 458.26605224609375 379.4228515625 457.0963134765625 378.59765625 456.133056640625 C 393.1845703125 456.2706298828125 405.775390625 456.3394775390625 416.37109375 456.3394775390625 C 427.10546875 456.3394775390625 434.19140625 456.2706298828125 437.6318359375 456.133056640625 C 441.34765625 455.8577880859375 443.8935546875 454.96331787109375 445.26953125 453.4495849609375 C 446.783203125 452.0733642578125 447.5400390625 449.6651611328125 447.5400390625 446.2247314453125 C 447.5400390625 341.56884765625 447.5400390625 236.912841796875 447.5400390625 132.25689697265625"/>
  </g>
</svg>
