<?xml version="1.0" ?>
<svg xmlns="http://www.w3.org/2000/svg" version="1.1" width="600" height="600">
  <defs/>
  <g>
    <path stroke-width="0" fill="rgb(0, 0, 0)" opacity="1.0" d="M 220.83740234375 359.4053955078125 C 273.67333984375 359.4053955078125 326.5087890625 359.4053955078125 379.3447265625 359.4053955078125 C 379.3447265625 363.189208984375 379.3447265625 366.97296142578125 379.3447265625 370.75677490234375 C 326.5087890625 370.75677490234375 273.67333984375 370.75677490234375 220.83740234375 370.75677490234375 C 220.83740234375 366.97296142578125 220.83740234375 363.189208984375 220.83740234375 359.4053955078125M 204.21630859375 415.5540771484375 C 264.4169921875 415.5540771484375 324.6171875 415.5540771484375 384.8173828125 415.5540771484375 C 384.8173828125 419.33782958984375 384.8173828125 423.12158203125 384.8173828125 426.9053955078125 C 324.6171875 426.9053955078125 264.4169921875 426.9053955078125 204.21630859375 426.9053955078125 C 204.21630859375 423.12158203125 204.21630859375 419.33782958984375 204.21630859375 415.5540771484375M 242.728515625 362.24322509765625 C 246.57958984375 362.24322509765625 250.4306640625 362.24322509765625 254.2822265625 362.24322509765625 C 254.2822265625 382.310791015625 254.2822265625 402.37841796875 254.2822265625 422.4459228515625 C 250.4306640625 422.4459228515625 246.57958984375 422.4459228515625 242.728515625 422.4459228515625 C 242.728515625 402.37841796875 242.728515625 382.310791015625 242.728515625 362.24322509765625M 233.404296875 159.1351318359375 C 276.17333984375 159.1351318359375 318.94189453125 159.1351318359375 361.71044921875 159.1351318359375 C 361.71044921875 180.48651123046875 361.71044921875 201.83782958984375 361.71044921875 223.189208984375 C 357.99462890625 223.189208984375 354.27783203125 223.189208984375 350.56201171875 223.189208984375 C 350.56201171875 205.5540771484375 350.56201171875 187.91891479492188 350.56201171875 170.28378295898438 C 311.50927734375 170.28378295898438 272.45751953125 170.28378295898438 233.404296875 170.28378295898438 C 233.404296875 166.56756591796875 233.404296875 162.85134887695312 233.404296875 159.1351318359375M 218.60791015625 217.10809326171875 C 275.294921875 217.10809326171875 331.9814453125 217.10809326171875 388.6689453125 217.10809326171875 C 388.6689453125 220.8243408203125 388.6689453125 224.54052734375 388.6689453125 228.25677490234375 C 331.9814453125 228.25677490234375 275.294921875 228.25677490234375 218.60791015625 228.25677490234375 C 218.60791015625 224.54052734375 218.60791015625 220.8243408203125 218.60791015625 217.10809326171875M 283.06494140625 125.28378295898438 C 286.8486328125 125.75677490234375 290.6318359375 126.229736328125 294.41552734375 126.70269775390625 C 292.9296875 137.10812377929688 291.037109375 148.25677490234375 288.740234375 160.14865112304688 C 286.57763671875 171.9053955078125 284.34814453125 183.3243408203125 282.05126953125 194.4053955078125 C 279.88916015625 205.35134887695312 277.93017578125 214.94595336914062 276.17333984375 223.189208984375 C 272.119140625 223.189208984375 268.0654296875 223.189208984375 264.01123046875 223.189208984375 C 266.44384765625 214.6756591796875 268.80859375 204.74322509765625 271.10595703125 193.39190673828125 C 273.40283203125 181.90542602539062 275.56494140625 170.21621704101562 277.591796875 158.3243408203125 C 279.75439453125 146.29730224609375 281.57861328125 135.28378295898438 283.06494140625 125.28378295898438M 246.57958984375 264.9459533691406 C 246.57958984375 282.3108215332031 246.57958984375 299.6756591796875 246.57958984375 317.04052734375 C 282.52392578125 317.04052734375 318.46923828125 317.04052734375 354.41357421875 317.04052734375 C 354.41357421875 299.6756591796875 354.41357421875 282.3108215332031 354.41357421875 264.9459533691406 C 318.46923828125 264.9459533691406 282.52392578125 264.9459533691406 246.57958984375 264.9459533691406M 235.228515625 253.5946044921875 C 278.80810546875 253.5946044921875 322.3876953125 253.5946044921875 365.966796875 253.5946044921875 C 365.966796875 278.52703857421875 365.966796875 303.45947265625 365.966796875 328.39190673828125 C 322.3876953125 328.39190673828125 278.80810546875 328.39190673828125 235.228515625 328.39190673828125 C 235.228515625 303.45947265625 235.228515625 278.52703857421875 235.228515625 253.5946044921875M 308.80712890625 326.770263671875 C 312.5908203125 326.770263671875 316.3740234375 326.770263671875 320.15771484375 326.770263671875 C 320.15771484375 376.56756591796875 320.15771484375 426.3648681640625 320.15771484375 476.16217041015625 C 316.3740234375 476.16217041015625 312.5908203125 476.16217041015625 308.80712890625 476.16217041015625 C 308.80712890625 426.3648681640625 308.80712890625 376.56756591796875 308.80712890625 326.770263671875M 385.0205078125 151.6351318359375 C 414.8837890625 151.6351318359375 444.748046875 151.6351318359375 474.611328125 151.6351318359375 C 474.611328125 155.5540771484375 474.611328125 159.47296142578125 474.611328125 163.39190673828125 C 444.748046875 163.39190673828125 414.8837890625 163.39190673828125 385.0205078125 163.39190673828125 C 385.0205078125 159.47296142578125 385.0205078125 155.5540771484375 385.0205078125 151.6351318359375M 378.12890625 256.83782958984375 C 412.654296875 256.83782958984375 447.18017578125 256.83782958984375 481.70556640625 256.83782958984375 C 481.70556640625 260.5540466308594 481.70556640625 264.270263671875 481.70556640625 267.9864807128906 C 447.18017578125 267.9864807128906 412.654296875 267.9864807128906 378.12890625 267.9864807128906 C 378.12890625 264.270263671875 378.12890625 260.5540466308594 378.12890625 256.83782958984375M 429.0048828125 259.06756591796875 C 432.923828125 259.06756591796875 436.8427734375 259.06756591796875 440.76123046875 259.06756591796875 C 440.76123046875 325.0810546875 440.76123046875 391.0946044921875 440.76123046875 457.10809326171875 C 440.76123046875 462.648681640625 439.88330078125 466.6351318359375 438.12646484375 469.06756591796875 C 436.5048828125 471.5 433.46435546875 473.2567138671875 429.0048828125 474.33782958984375 C 424.951171875 475.2838134765625 418.5322265625 475.89190673828125 409.7490234375 476.16217041015625 C 401.1005859375 476.43243408203125 389.884765625 476.56756591796875 376.1015625 476.56756591796875 C 375.83154296875 475.0810546875 375.15576171875 473.12158203125 374.07470703125 470.689208984375 C 373.12841796875 468.39190673828125 372.25048828125 466.3648681640625 371.43994140625 464.60809326171875 C 383.87158203125 464.87841796875 394.6142578125 465.0810546875 403.66845703125 465.2161865234375 C 412.85693359375 465.351318359375 419.005859375 465.2838134765625 422.11328125 465.0135498046875 C 424.951171875 464.7432861328125 426.775390625 464.06756591796875 427.58642578125 462.9864501953125 C 428.5322265625 461.9053955078125 429.0048828125 460.0810546875 429.0048828125 457.5135498046875 C 429.0048828125 391.3648681640625 429.0048828125 325.2161865234375 429.0048828125 259.06756591796875M 192.4599609375 125.89190673828125 C 196.244140625 127.24322509765625 200.02734375 128.5946044921875 203.81103515625 129.94595336914062 C 195.16259765625 144.1351318359375 184.3525390625 159.0 171.3798828125 174.54055786132812 C 158.4072265625 189.94595336914062 145.43505859375 203.3243408203125 132.46240234375 214.6756591796875 C 132.05712890625 213.8648681640625 131.31396484375 212.98648071289062 130.23291015625 212.04052734375 C 129.1513671875 210.95947265625 128.07080078125 209.9459228515625 126.98974609375 209.0 C 126.0439453125 207.91891479492188 125.16552734375 207.10809326171875 124.3544921875 206.56756591796875 C 132.86767578125 199.270263671875 141.380859375 191.09457397460938 149.89404296875 182.04055786132812 C 158.54296875 172.98651123046875 166.58251953125 163.5946044921875 174.0146484375 153.8648681640625 C 181.447265625 144.1351318359375 187.59521484375 134.81082153320312 192.4599609375 125.89190673828125M 202.5947265625 199.87838745117188 C 206.37890625 201.02703857421875 210.16162109375 202.17568969726562 213.94580078125 203.3243408203125 C 206.37890625 218.189208984375 197.9326171875 233.05404663085938 188.60888671875 247.91891479492188 C 179.28515625 262.6486511230469 169.42041015625 276.56756591796875 159.015625 289.6756591796875 C 148.61083984375 302.7838134765625 138.205078125 314.54052734375 127.80029296875 324.9459228515625 C 127.26025390625 324.1351318359375 126.38134765625 323.189208984375 125.16552734375 322.10809326171875 C 124.083984375 321.02703857421875 122.935546875 320.0135498046875 121.7197265625 319.06756591796875 C 120.63818359375 317.98651123046875 119.5576171875 317.1756591796875 118.4765625 316.6351318359375 C 134.01611328125 301.6351318359375 149.2861328125 283.8648681640625 164.28564453125 263.3243408203125 C 179.42041015625 242.64865112304688 192.18994140625 221.5 202.5947265625 199.87838745117188M 173.00146484375 256.83782958984375 C 176.64990234375 253.05404663085938 180.29833984375 249.270263671875 183.94677734375 245.48648071289062 C 184.08251953125 245.75677490234375 184.216796875 246.02703857421875 184.3525390625 246.29730224609375 C 184.3525390625 322.5810546875 184.3525390625 398.8648681640625 184.3525390625 475.148681640625 C 180.568359375 475.148681640625 176.78515625 475.148681640625 173.00146484375 475.148681640625 C 173.00146484375 402.37841796875 173.00146484375 329.60809326171875 173.00146484375 256.83782958984375"/>
  </g>
</svg>
