<?xml version="1.0" ?>
<svg xmlns="http://www.w3.org/2000/svg" version="1.1" width="600" height="600">
  <defs/>
  <g>
    <path stroke-width="0" fill="rgb(0, 0, 0)" opacity="1.0" d="M 367.421875 417.862060546875 C 369.904296875 414.96551513671875 372.38671875 412.0689697265625 374.868896484375 409.17242431640625 C 386.3154296875 413.862060546875 398.24462890625 419.310302734375 410.656494140625 425.5172119140625 C 423.068359375 431.586181640625 434.859619140625 437.72412109375 446.0302734375 443.9310302734375 C 457.200927734375 450.137939453125 466.44091796875 455.72412109375 473.75 460.689697265625 C 471.267822265625 464.0 468.785400390625 467.310302734375 466.302978515625 470.6207275390625 C 458.85595703125 465.6551513671875 449.546875 460.0 438.376220703125 453.6551513671875 C 427.343505859375 447.310302734375 415.55224609375 440.96551513671875 403.00244140625 434.6207275390625 C 390.590576171875 428.137939453125 378.73046875 422.5517578125 367.421875 417.862060546875M 171.93505859375 339.24139404296875 C 258.9560546875 339.24139404296875 345.976806640625 339.24139404296875 432.997802734375 339.24139404296875 C 432.997802734375 343.03448486328125 432.997802734375 346.82757568359375 432.997802734375 350.6207275390625 C 345.976806640625 350.6207275390625 258.9560546875 350.6207275390625 171.93505859375 350.6207275390625 C 171.93505859375 346.82757568359375 171.93505859375 343.03448486328125 171.93505859375 339.24139404296875M 127.045654296875 380.413818359375 C 243.99267578125 380.413818359375 360.940185546875 380.413818359375 477.887451171875 380.413818359375 C 477.887451171875 384.27587890625 477.887451171875 388.137939453125 477.887451171875 392.0 C 360.940185546875 392.0 243.99267578125 392.0 127.045654296875 392.0 C 127.045654296875 388.137939453125 127.045654296875 384.27587890625 127.045654296875 380.413818359375M 133.044677734375 151.58621215820312 C 245.716796875 151.58621215820312 358.388671875 151.58621215820312 471.060791015625 151.58621215820312 C 471.060791015625 155.58621215820312 471.060791015625 159.586181640625 471.060791015625 163.58621215820312 C 358.388671875 163.58621215820312 245.716796875 163.58621215820312 133.044677734375 163.58621215820312 C 133.044677734375 159.586181640625 133.044677734375 155.58621215820312 133.044677734375 151.58621215820312M 296.260498046875 383.310302734375 C 300.259765625 383.310302734375 304.25927734375 383.310302734375 308.2587890625 383.310302734375 C 308.2587890625 409.5172119140625 308.2587890625 435.72412109375 308.2587890625 461.9310302734375 C 308.2587890625 466.75860595703125 307.5 470.3448486328125 305.983154296875 472.689697265625 C 304.60400390625 475.03448486328125 301.638916015625 476.75860595703125 297.087890625 477.862060546875 C 292.812744140625 478.82757568359375 285.986328125 479.3792724609375 276.6083984375 479.5172119140625 C 267.230712890625 479.6551513671875 254.61181640625 479.72412109375 238.752197265625 479.72412109375 C 238.4765625 478.2069091796875 237.85595703125 476.413818359375 236.890380859375 474.3448486328125 C 235.925048828125 472.413818359375 234.959716796875 470.5517578125 233.994384765625 468.75860595703125 C 248.750732421875 469.03448486328125 260.748779296875 469.17242431640625 269.98876953125 469.17242431640625 C 279.366455078125 469.17242431640625 285.779296875 469.03448486328125 289.22705078125 468.75860595703125 C 292.123291015625 468.4827880859375 293.985107421875 467.862060546875 294.8125 466.89654541015625 C 295.77783203125 465.9310302734375 296.260498046875 464.27587890625 296.260498046875 461.9310302734375 C 296.260498046875 435.72412109375 296.260498046875 409.5172119140625 296.260498046875 383.310302734375M 220.34130859375 407.9310302734375 C 224.06494140625 409.3792724609375 227.78857421875 410.82757568359375 231.511962890625 412.27587890625 C 222.82373046875 419.4482421875 212.894287109375 426.6207275390625 201.7236328125 433.7930908203125 C 190.69091796875 440.96551513671875 179.244140625 447.72412109375 167.384033203125 454.0689697265625 C 155.66162109375 460.413818359375 144.353271484375 465.7930908203125 133.458251953125 470.2069091796875 C 132.90673828125 469.5172119140625 131.94140625 468.689697265625 130.562255859375 467.72412109375 C 129.321044921875 466.75860595703125 128.010986328125 465.72412109375 126.6318359375 464.6207275390625 C 125.390625 463.6551513671875 124.21826171875 462.89654541015625 123.115234375 462.3448486328125 C 140.353759765625 455.4482421875 157.73046875 447.24139404296875 175.244873046875 437.72412109375 C 192.897216796875 428.2069091796875 207.929443359375 418.27587890625 220.34130859375 407.9310302734375M 296.260498046875 121.7930908203125 C 300.259765625 121.7930908203125 304.25927734375 121.7930908203125 308.2587890625 121.7930908203125 C 308.2587890625 134.68966674804688 308.2587890625 147.586181640625 308.2587890625 160.48275756835938 C 304.25927734375 160.48275756835938 300.259765625 160.48275756835938 296.260498046875 160.48275756835938 C 296.260498046875 147.586181640625 296.260498046875 134.68966674804688 296.260498046875 121.7930908203125M 185.17431640625 200.2069091796875 C 185.17431640625 233.4482421875 185.17431640625 266.68963623046875 185.17431640625 299.9310302734375 C 263.507080078125 299.9310302734375 341.839599609375 299.9310302734375 420.17236328125 299.9310302734375 C 420.17236328125 266.68963623046875 420.17236328125 233.4482421875 420.17236328125 200.2069091796875 C 341.839599609375 200.2069091796875 263.507080078125 200.2069091796875 185.17431640625 200.2069091796875M 173.590087890625 188.20687866210938 C 259.6455078125 188.20687866210938 345.701171875 188.20687866210938 431.756591796875 188.20687866210938 C 431.756591796875 229.24139404296875 431.756591796875 270.27587890625 431.756591796875 311.310302734375 C 345.701171875 311.310302734375 259.6455078125 311.310302734375 173.590087890625 311.310302734375 C 173.590087890625 270.27587890625 173.590087890625 229.24139404296875 173.590087890625 188.20687866210938M 243.51025390625 233.10345458984375 C 243.51025390625 243.72412109375 243.51025390625 254.34481811523438 243.51025390625 264.96551513671875 C 282.53857421875 264.96551513671875 321.56689453125 264.96551513671875 360.595458984375 264.96551513671875 C 360.595458984375 254.34481811523438 360.595458984375 243.72412109375 360.595458984375 233.10345458984375 C 321.56689453125 233.10345458984375 282.53857421875 233.10345458984375 243.51025390625 233.10345458984375M 231.92578125 221.5172119140625 C 278.677001953125 221.5172119140625 325.428466796875 221.5172119140625 372.1796875 221.5172119140625 C 372.1796875 239.9310302734375 372.1796875 258.3448181152344 372.1796875 276.75860595703125 C 325.428466796875 276.75860595703125 278.677001953125 276.75860595703125 231.92578125 276.75860595703125 C 231.92578125 258.3448181152344 231.92578125 239.9310302734375 231.92578125 221.5172119140625"/>
  </g>
</svg>
