<?xml version="1.0" encoding="utf-8"?>
<svg xmlns="http://www.w3.org/2000/svg" xmlns:ev="http://www.w3.org/2001/xml-events" xmlns:xlink="http://www.w3.org/1999/xlink" version="1.1" baseProfile="full" width="20873.0" height="1742.0" viewBox="84.0 -1596.0 20873.0 1742.0">
<defs/>
<g><path d="M 13924.000000 -1300.000000 C 13992.000000 -1290.666667 14068.000000 -1284.000000 14152.000000 -1280.000000 C 14236.666667 -1276.666667 14324.333333 -1275.000000 14415.000000 -1275.000000 C 14475.666667 -1275.000000 14534.333333 -1276.333333 14591.000000 -1279.000000 C 14647.666667 -1281.666667 14701.666667 -1285.000000 14753.000000 -1289.000000 C 14804.333333 -1293.666667 14851.666667 -1298.000000 14895.000000 -1302.000000 C 14895.000000 -1282.000000 14895.000000 -1262.000000 14895.000000 -1242.000000 C 14853.000000 -1239.333333 14805.666667 -1236.000000 14753.000000 -1232.000000 C 14701.000000 -1228.666667 14646.000000 -1225.666667 14588.000000 -1223.000000 C 14530.666667 -1220.333333 14473.000000 -1219.000000 14415.000000 -1219.000000 C 14323.000000 -1219.000000 14236.333333 -1221.000000 14155.000000 -1225.000000 C 14073.666667 -1229.000000 13996.666667 -1234.000000 13924.000000 -1240.000000 C 13924.000000 -1260.000000 13924.000000 -1280.000000 13924.000000 -1300.000000z M 13916.000000 -564.000000 C 13900.666667 -523.333333 13889.000000 -482.666667 13881.000000 -442.000000 C 13873.666667 -402.000000 13870.000000 -362.666667 13870.000000 -324.000000 C 13870.000000 -238.666667 13914.000000 -170.000000 14002.000000 -118.000000 C 14090.666667 -66.000000 14219.333333 -40.000000 14388.000000 -40.000000 C 14479.333333 -40.000000 14566.000000 -43.333333 14648.000000 -50.000000 C 14730.000000 -56.666667 14803.666667 -65.333333 14869.000000 -76.000000 C 14935.000000 -86.666667 14988.000000 -99.666667 15028.000000 -115.000000 C 15028.666667 -95.333333 15029.333333 -75.666667 15030.000000 -56.000000 C 14994.000000 -44.000000 14943.333333 -32.666667 14878.000000 -22.000000 C 14812.666667 -11.333333 14737.666667 -3.000000 14653.000000 3.000000 C 14569.000000 9.666667 14480.666667 13.000000 14388.000000 13.000000 C 14274.666667 13.000000 14175.000000 1.000000 14089.000000 -23.000000 C 14003.000000 -47.666667 13936.000000 -84.000000 13888.000000 -132.000000 C 13840.000000 -180.666667 13816.000000 -241.666667 13816.000000 -315.000000 C 13816.000000 -359.666667 13820.000000 -403.333333 13828.000000 -446.000000 C 13836.666667 -489.333333 13846.333333 -531.333333 13857.000000 -572.000000 C 13876.666667 -569.333333 13896.333333 -566.666667 13916.000000 -564.000000z "/>
</g></svg>
