<?xml version="1.0" ?>
<svg xmlns="http://www.w3.org/2000/svg" version="1.1" width="600" height="600">
  <defs/>
  <g>
    <path stroke-width="0" fill="rgb(0, 0, 0)" opacity="1.0" d="M 154.66815185546875 272.33428955078125 C 154.26885986328125 272.7054443359375 153.6300048828125 273.302001953125 152.75155639648438 274.1239013671875 C 151.87310791015625 274.9193115234375 151.2342529296875 275.5025634765625 150.8349609375 275.873779296875 C 149.45074462890625 277.1463623046875 147.73379516601562 278.65765380859375 145.68411254882812 280.407470703125 C 143.66104125976562 282.1573486328125 141.5048828125 283.960205078125 139.21560668945312 285.816162109375 C 136.95297241210938 287.67205810546875 134.75686645507812 289.461669921875 132.6273193359375 291.18505859375 C 130.49777221679688 292.8818359375 128.67434692382812 294.3665771484375 127.15704345703125 295.63916015625 C 125.45343017578125 297.1239013671875 124.29547119140625 298.3699951171875 123.6832275390625 299.3775634765625 C 123.07098388671875 300.3585205078125 123.08428955078125 301.3394775390625 123.72314453125 302.3204345703125 C 124.36203002929688 303.30145263671875 125.62643432617188 304.5872802734375 127.51641845703125 306.1781005859375 C 129.16680908203125 307.5037841796875 130.963623046875 308.96197509765625 132.90682983398438 310.552734375 C 134.85003662109375 312.11700439453125 136.84649658203125 313.7740478515625 138.89617919921875 315.52392578125 C 140.97250366210938 317.2738037109375 143.06210327148438 319.07666015625 145.1650390625 320.93255615234375 C 147.26797485351562 322.761962890625 149.30435180664062 324.6046142578125 151.274169921875 326.46051025390625 C 153.2440185546875 328.31640625 155.06744384765625 330.1060791015625 156.74444580078125 331.82940673828125 C 156.0789794921875 332.4127197265625 155.41348266601562 332.9959716796875 154.74798583984375 333.5792236328125 C 153.6832275390625 332.359619140625 152.405517578125 331.00750732421875 150.91482543945312 329.52276611328125 C 149.37091064453125 328.01153564453125 147.52084350585938 326.27490234375 145.36468505859375 324.31298828125 C 143.23513793945312 322.35101318359375 140.98580932617188 320.3492431640625 138.61666870117188 318.3077392578125 C 136.24755859375 316.23974609375 133.91836547851562 314.25128173828125 131.62908935546875 312.3424072265625 C 129.366455078125 310.4334716796875 127.3167724609375 308.736572265625 125.48004150390625 307.2518310546875 C 123.16415405273438 305.36944580078125 121.71340942382812 303.765380859375 121.12777709960938 302.43975830078125 C 120.54214477539062 301.1141357421875 120.66192626953125 299.8017578125 121.48712158203125 298.5025634765625 C 122.33895874023438 297.2034912109375 123.78970336914062 295.6922607421875 125.83938598632812 293.9688720703125 C 127.22360229492188 292.80230712890625 128.9671630859375 291.37060546875 131.07009887695312 289.67376708984375 C 133.19964599609375 287.950439453125 135.42236328125 286.13427734375 137.73825073242188 284.225341796875 C 140.08074951171875 282.31640625 142.2901611328125 280.4737548828125 144.366455078125 278.6973876953125 C 146.44277954101562 276.9210205078125 148.11978149414062 275.343505859375 149.39752197265625 273.96484375 C 149.79681396484375 273.48760986328125 150.30258178710938 272.8778076171875 150.91482543945312 272.13543701171875 C 151.52706909179688 271.3665771484375 151.96627807617188 270.730224609375 152.23248291015625 270.22650146484375 C 153.04437255859375 270.9290771484375 153.85626220703125 271.6317138671875 154.66815185546875 272.33428955078125"/>
    <path stroke-width="0" fill="rgb(0, 0, 0)" opacity="1.0" d="M 223.58563232421875 271.22076416015625 C 223.58563232421875 271.35333251953125 223.55899047851562 271.6317138671875 223.50576782226562 272.055908203125 C 223.4525146484375 272.45361328125 223.41259765625 272.86456298828125 223.385986328125 273.28875732421875 C 223.35934448242188 273.68646240234375 223.34603881835938 274.004638671875 223.34603881835938 274.24322509765625 C 223.29281616210938 275.2242431640625 223.26617431640625 276.5233154296875 223.26617431640625 278.140625 C 223.26617431640625 279.7314453125 223.26617431640625 281.48126220703125 223.26617431640625 283.39019775390625 C 223.26617431640625 285.29913330078125 223.27947998046875 287.2213134765625 223.30612182617188 289.15673828125 C 223.33273315429688 291.09222412109375 223.35934448242188 292.921630859375 223.385986328125 294.64495849609375 C 223.41259765625 296.3682861328125 223.4259033203125 297.83978271484375 223.4259033203125 299.059326171875 C 222.72048950195312 298.171142578125 222.01507568359375 297.282958984375 221.30966186523438 296.394775390625 C 221.30966186523438 295.99713134765625 221.30966186523438 295.13543701171875 221.30966186523438 293.809814453125 C 221.30966186523438 292.484130859375 221.29635620117188 290.89337158203125 221.26974487304688 289.0374755859375 C 221.24310302734375 287.1815185546875 221.21649169921875 285.285888671875 221.18988037109375 283.3504638671875 C 221.16326904296875 281.41497802734375 221.13665771484375 279.63861083984375 221.11001586914062 278.0213623046875 C 221.08340454101562 276.3775634765625 221.04345703125 275.1181640625 220.990234375 274.24322509765625 C 220.990234375 273.739501953125 220.9503173828125 273.1429443359375 220.87045288085938 272.45361328125 C 220.79058837890625 271.7642822265625 220.72402954101562 271.35333251953125 220.67080688476562 271.22076416015625 C 221.64239501953125 271.22076416015625 222.614013671875 271.22076416015625 223.58563232421875 271.22076416015625M 185.49334716796875 282.9527587890625 C 187.38330078125 282.89971923828125 189.56610107421875 282.83343505859375 192.04168701171875 282.75390625 C 194.51730346679688 282.6478271484375 197.19253540039062 282.541748046875 200.06744384765625 282.43572998046875 C 202.96893310546875 282.3297119140625 205.963623046875 282.23687744140625 209.05145263671875 282.1573486328125 C 212.1392822265625 282.07781982421875 215.20053100585938 282.01153564453125 218.23513793945312 281.95849609375 C 221.29635620117188 281.905517578125 224.23779296875 281.87896728515625 227.0594482421875 281.87896728515625 C 229.74798583984375 281.87896728515625 232.22360229492188 281.8922119140625 234.48623657226562 281.918701171875 C 236.7755126953125 281.94525146484375 238.798583984375 281.95849609375 240.55545043945312 281.95849609375 C 242.33895874023438 281.95849609375 243.86956787109375 281.9718017578125 245.14727783203125 281.998291015625 C 246.42501831054688 282.0247802734375 247.43655395507812 282.03802490234375 248.181884765625 282.03802490234375 C 248.181884765625 282.806884765625 248.181884765625 283.5758056640625 248.181884765625 284.34466552734375 C 246.29193115234375 284.2386474609375 243.7098388671875 284.1590576171875 240.4356689453125 284.1060791015625 C 237.1881103515625 284.05303955078125 232.74267578125 284.0264892578125 227.099365234375 284.0264892578125 C 223.98492431640625 284.0264892578125 220.630859375 284.05303955078125 217.03726196289062 284.1060791015625 C 213.44366455078125 284.1590576171875 209.75686645507812 284.2518310546875 205.9769287109375 284.3843994140625 C 202.22360229492188 284.5169677734375 198.59005737304688 284.6893310546875 195.0762939453125 284.90142822265625 C 191.58917236328125 285.0870361328125 188.42144775390625 285.3123779296875 185.57321166992188 285.5775146484375 C 185.54656982421875 284.70263671875 185.51995849609375 283.82763671875 185.49334716796875 282.9527587890625M 224.42413330078125 304.7066650390625 C 224.42413330078125 307.35791015625 223.93167114257812 309.58502197265625 222.94674682617188 311.387939453125 C 221.98846435546875 313.164306640625 220.73736572265625 314.503173828125 219.19342041015625 315.40460205078125 C 217.67611694335938 316.279541015625 216.05233764648438 316.717041015625 214.32208251953125 316.717041015625 C 212.59182739257812 316.717041015625 210.99468994140625 316.465087890625 209.53060913085938 315.96142578125 C 208.0665283203125 315.4576416015625 206.788818359375 314.7020263671875 205.69741821289062 313.69451904296875 C 204.63262939453125 312.6605224609375 203.80746459960938 311.42767333984375 203.22183227539062 309.9959716796875 C 202.63619995117188 308.56427001953125 202.3433837890625 306.9337158203125 202.3433837890625 305.10430908203125 C 202.3433837890625 302.9302978515625 202.87576293945312 300.92852783203125 203.9405517578125 299.09912109375 C 205.03192138671875 297.24322509765625 206.46939086914062 295.7452392578125 208.25286865234375 294.605224609375 C 210.036376953125 293.465087890625 211.97958374023438 292.8951416015625 214.08251953125 292.8951416015625 C 216.69122314453125 292.8951416015625 218.83407592773438 293.4783935546875 220.51107788085938 294.64495849609375 C 222.2147216796875 295.8115234375 223.4791259765625 297.44207763671875 224.30435180664062 299.53662109375 C 225.15615844726562 301.631103515625 225.58206176757812 304.0438232421875 225.58206176757812 306.774658203125 C 225.58206176757812 309.4259033203125 225.26263427734375 312.0374755859375 224.623779296875 314.6092529296875 C 223.98492431640625 317.18096923828125 222.88018798828125 319.6334228515625 221.30966186523438 321.966552734375 C 219.7657470703125 324.273193359375 217.62289428710938 326.3809814453125 214.881103515625 328.2899169921875 C 212.16592407226562 330.1988525390625 208.67880249023438 331.816162109375 204.419677734375 333.14178466796875 C 203.70098876953125 332.5054931640625 202.98223876953125 331.869140625 202.26351928710938 331.23284912109375 C 206.016845703125 330.304931640625 209.211181640625 329.09857177734375 211.84649658203125 327.61383056640625 C 214.5084228515625 326.10260009765625 216.67791748046875 324.32623291015625 218.35491943359375 322.28472900390625 C 220.05856323242188 320.24322509765625 221.29635620117188 317.963134765625 222.06832885742188 315.4443359375 C 222.86688232421875 312.9256591796875 223.26617431640625 310.19482421875 223.26617431640625 307.2518310546875 C 223.26617431640625 302.82421875 222.38775634765625 299.68243408203125 220.630859375 297.8265380859375 C 218.87399291992188 295.9705810546875 216.74444580078125 295.04266357421875 214.24224853515625 295.04266357421875 C 212.56521606445312 295.04266357421875 210.99468994140625 295.4801025390625 209.53060913085938 296.35504150390625 C 208.0665283203125 297.2034912109375 206.88198852539062 298.38330078125 205.9769287109375 299.89453125 C 205.09848022460938 301.3792724609375 204.65927124023438 303.1158447265625 204.65927124023438 305.10430908203125 C 204.65927124023438 308.1533203125 205.604248046875 310.499755859375 207.49423217773438 312.1435546875 C 209.38421630859375 313.76080322265625 211.66015625 314.5694580078125 214.32208251953125 314.5694580078125 C 216.31854248046875 314.5694580078125 217.96893310546875 314.065673828125 219.27328491210938 313.0582275390625 C 220.57763671875 312.024169921875 221.56256103515625 310.592529296875 222.22802734375 308.76312255859375 C 222.89352416992188 306.9337158203125 223.22625732421875 304.825927734375 223.22625732421875 302.43975830078125 C 223.62554931640625 303.19537353515625 224.02484130859375 303.9510498046875 224.42413330078125 304.7066650390625M 234.7657470703125 270.3458251953125 C 235.6441650390625 271.5389404296875 236.68234252929688 273.0501708984375 237.88018798828125 274.8795166015625 C 239.07806396484375 276.70892333984375 240.089599609375 278.365966796875 240.914794921875 279.8507080078125 C 240.16946411132812 280.221923828125 239.42413330078125 280.59307861328125 238.67877197265625 280.9642333984375 C 237.88018798828125 279.4530029296875 236.89529418945312 277.78271484375 235.72406005859375 275.95330810546875 C 234.57940673828125 274.1239013671875 233.5545654296875 272.586181640625 232.64950561523438 271.340087890625 C 233.35491943359375 271.0086669921875 234.06033325195312 270.67724609375 234.7657470703125 270.3458251953125M 243.15081787109375 268.595947265625 C 244.00265502929688 269.7625732421875 245.00088500976562 271.2340087890625 246.1455078125 273.0103759765625 C 247.3167724609375 274.76025390625 248.35491943359375 276.41729736328125 249.25997924804688 277.9815673828125 C 248.5013427734375 278.365966796875 247.74267578125 278.75042724609375 246.9840087890625 279.1348876953125 C 246.1588134765625 277.517578125 245.18722534179688 275.833984375 244.0692138671875 274.08416748046875 C 242.97781372070312 272.30780029296875 241.95297241210938 270.809814453125 240.99468994140625 269.5902099609375 C 241.71337890625 269.2587890625 242.43212890625 268.9273681640625 243.15081787109375 268.595947265625"/>
    <path stroke-width="0" fill="rgb(0, 0, 0)" opacity="1.0" d="M 280.00531005859375 271.57867431640625 C 279.8721923828125 272.506591796875 279.779052734375 273.35504150390625 279.725830078125 274.1239013671875 C 279.6725769042969 274.86627197265625 279.61932373046875 275.75445556640625 279.56610107421875 276.7884521484375 C 279.5128479003906 279.01556396484375 279.419677734375 281.7994384765625 279.2865905761719 285.1400146484375 C 279.15350341796875 288.480712890625 279.0470275878906 292.0599365234375 278.9671630859375 295.8778076171875 C 278.8872985839844 299.6956787109375 278.80743408203125 303.5400390625 278.72760009765625 307.41094970703125 C 278.6743469238281 311.2818603515625 278.6477355957031 314.861083984375 278.6477355957031 318.148681640625 C 278.6477355957031 321.171142578125 279.2599792480469 323.59710693359375 280.4844665527344 325.426513671875 C 281.7089538574219 327.25592041015625 283.41259765625 328.58154296875 285.59539794921875 329.4034423828125 C 287.8048095703125 330.1988525390625 290.346923828125 330.5965576171875 293.2218017578125 330.5965576171875 C 297.05499267578125 330.5965576171875 300.4622802734375 330.132568359375 303.44366455078125 329.20458984375 C 306.42498779296875 328.2501220703125 309.0470275878906 327.0040283203125 311.3096618652344 325.46630859375 C 313.59893798828125 323.9019775390625 315.59539794921875 322.1787109375 317.29901123046875 320.2962646484375 C 319.029296875 318.413818359375 320.5865478515625 316.5313720703125 321.970703125 314.64898681640625 C 322.52972412109375 315.2852783203125 323.0887451171875 315.921630859375 323.647705078125 316.55792236328125 C 322.2635498046875 318.33428955078125 320.6397705078125 320.17694091796875 318.7763671875 322.08587646484375 C 316.91302490234375 323.99481201171875 314.7435607910156 325.7579345703125 312.2679443359375 327.375244140625 C 309.8189697265625 328.96600341796875 306.997314453125 330.2518310546875 303.8030090332031 331.23284912109375 C 300.60870361328125 332.2403564453125 297.00177001953125 332.74407958984375 292.98223876953125 332.74407958984375 C 289.8145446777344 332.74407958984375 286.9795837402344 332.266845703125 284.47735595703125 331.3123779296875 C 281.97515869140625 330.3843994140625 279.99200439453125 328.806884765625 278.5279541015625 326.579833984375 C 277.06390380859375 324.32623291015625 276.33184814453125 321.2109375 276.33184814453125 317.2340087890625 C 276.33184814453125 314.7418212890625 276.35845947265625 312.06396484375 276.4117126464844 309.2005615234375 C 276.4649658203125 306.3106689453125 276.5447998046875 303.36773681640625 276.6512756347656 300.37176513671875 C 276.75775146484375 297.37579345703125 276.8376159667969 294.44610595703125 276.890869140625 291.58270263671875 C 276.970703125 288.69281005859375 277.0372619628906 285.9752197265625 277.09051513671875 283.429931640625 C 277.14373779296875 280.884765625 277.17034912109375 278.6708984375 277.17034912109375 276.7884521484375 C 277.17034912109375 275.75445556640625 277.14373779296875 274.813232421875 277.09051513671875 273.96484375 C 277.0372619628906 273.08990478515625 276.944091796875 272.2945556640625 276.81097412109375 271.57867431640625 C 277.8757629394531 271.57867431640625 278.9405517578125 271.57867431640625 280.00531005859375 271.57867431640625"/>
    <path stroke-width="0" fill="rgb(0, 0, 0)" opacity="1.0" d="M 391.08782958984375 281.202880859375 C 391.85980224609375 281.45477294921875 392.6317138671875 281.7066650390625 393.4036865234375 281.95849609375 C 390.1827392578125 291.42364501953125 386.0833740234375 299.57635498046875 381.1055908203125 306.416748046875 C 376.1278076171875 313.2305908203125 370.138427734375 318.9705810546875 363.13751220703125 323.63690185546875 C 356.1365966796875 328.27667236328125 347.89794921875 332.174072265625 338.42144775390625 335.3291015625 C 338.36822509765625 335.1435546875 338.2484130859375 334.91815185546875 338.0621337890625 334.65301513671875 C 337.90240478515625 334.4144287109375 337.716064453125 334.1492919921875 337.50311279296875 333.857666015625 C 337.3167724609375 333.56597900390625 337.11712646484375 333.3538818359375 336.9041748046875 333.2213134765625 C 346.30078125 330.304931640625 354.472900390625 326.5533447265625 361.4205322265625 321.966552734375 C 368.36822509765625 317.353271484375 374.2777099609375 311.71929931640625 379.1490478515625 305.0645751953125 C 384.0469970703125 298.38330078125 388.026611328125 290.42938232421875 391.08782958984375 281.202880859375M 350.99908447265625 281.4415283203125 C 353.98046875 290.1907958984375 357.9600830078125 298.03857421875 362.9378662109375 304.9849853515625 C 367.9156494140625 311.931396484375 373.98486328125 317.8172607421875 381.1455078125 322.64263916015625 C 388.30615234375 327.4415283203125 396.55810546875 330.9942626953125 405.9014892578125 333.3009033203125 C 405.7418212890625 333.4334716796875 405.555419921875 333.63226318359375 405.342529296875 333.89739990234375 C 405.1561279296875 334.16253662109375 404.95654296875 334.4144287109375 404.7435302734375 334.65301513671875 C 404.5306396484375 334.91815185546875 404.3575439453125 335.1435546875 404.2244873046875 335.3291015625 C 394.8544921875 332.889892578125 386.58917236328125 329.2178955078125 379.4285888671875 324.31298828125 C 372.2945556640625 319.4080810546875 366.19873046875 313.40289306640625 361.14111328125 306.29736328125 C 356.0833740234375 299.19189453125 351.9840087890625 291.1319580078125 348.84295654296875 282.1175537109375 C 349.5616455078125 281.8922119140625 350.2803955078125 281.6668701171875 350.99908447265625 281.4415283203125M 337.303466796875 280.447265625 C 360.089599609375 280.447265625 382.875732421875 280.447265625 405.66192626953125 280.447265625 C 405.66192626953125 281.18963623046875 405.66192626953125 281.9320068359375 405.66192626953125 282.67431640625 C 382.875732421875 282.67431640625 360.089599609375 282.67431640625 337.303466796875 282.67431640625 C 337.303466796875 281.9320068359375 337.303466796875 281.18963623046875 337.303466796875 280.447265625M 370.00531005859375 266.5279541015625 C 370.77728271484375 266.5279541015625 371.5491943359375 266.5279541015625 372.3211669921875 266.5279541015625 C 372.3211669921875 271.605224609375 372.3211669921875 276.68243408203125 372.3211669921875 281.7596435546875 C 371.5491943359375 281.7596435546875 370.77728271484375 281.7596435546875 370.00531005859375 281.7596435546875 C 370.00531005859375 276.68243408203125 370.00531005859375 271.605224609375 370.00531005859375 266.5279541015625"/>
    <path stroke-width="0" fill="rgb(0, 0, 0)" opacity="1.0" d="M 427.4232177734375 288.6795654296875 C 440.53326416015625 288.6795654296875 453.643310546875 288.6795654296875 466.7532958984375 288.6795654296875 C 466.7532958984375 289.421875 466.7532958984375 290.164306640625 466.7532958984375 290.9066162109375 C 453.643310546875 290.9066162109375 440.53326416015625 290.9066162109375 427.4232177734375 290.9066162109375 C 427.4232177734375 290.164306640625 427.4232177734375 289.421875 427.4232177734375 288.6795654296875M 415.6441650390625 308.0870361328125 C 437.28570556640625 308.0870361328125 458.92724609375 308.0870361328125 480.5687255859375 308.0870361328125 C 480.5687255859375 308.82940673828125 480.5687255859375 309.57177734375 480.5687255859375 310.3140869140625 C 458.92724609375 310.3140869140625 437.28570556640625 310.3140869140625 415.6441650390625 310.3140869140625 C 415.6441650390625 309.57177734375 415.6441650390625 308.82940673828125 415.6441650390625 308.0870361328125M 447.06829833984375 301.52508544921875 C 447.84027099609375 301.52508544921875 448.61224365234375 301.52508544921875 449.3841552734375 301.52508544921875 C 449.3841552734375 311.5469970703125 449.3841552734375 321.56884765625 449.3841552734375 331.5908203125 C 449.3841552734375 332.57177734375 449.1978759765625 333.3009033203125 448.8251953125 333.778076171875 C 448.4791259765625 334.25537109375 447.86688232421875 334.62652587890625 446.98846435546875 334.8916015625 C 446.1632080078125 335.103759765625 444.8721923828125 335.2098388671875 443.1153564453125 335.2098388671875 C 441.35845947265625 335.236328125 438.8162841796875 335.24957275390625 435.4888916015625 335.24957275390625 C 435.4356689453125 335.06396484375 435.34246826171875 334.85186767578125 435.2093505859375 334.61328125 C 435.1029052734375 334.401123046875 434.983154296875 334.16253662109375 434.85003662109375 333.89739990234375 C 434.7169189453125 333.63226318359375 434.570556640625 333.40692138671875 434.41082763671875 333.2213134765625 C 436.30078125 333.2213134765625 437.9910888671875 333.234619140625 439.4818115234375 333.2611083984375 C 440.9991455078125 333.28759765625 442.2635498046875 333.28759765625 443.2750244140625 333.2611083984375 C 444.313232421875 333.234619140625 445.04522705078125 333.2213134765625 445.47119140625 333.2213134765625 C 446.0833740234375 333.1683349609375 446.4959716796875 333.0224609375 446.708984375 332.78387451171875 C 446.948486328125 332.5452880859375 447.06829833984375 332.174072265625 447.06829833984375 331.6702880859375 C 447.06829833984375 321.62188720703125 447.06829833984375 311.573486328125 447.06829833984375 301.52508544921875M 466.1544189453125 288.6795654296875 C 466.327392578125 288.6795654296875 466.50048828125 288.6795654296875 466.6734619140625 288.6795654296875 C 466.85980224609375 288.62652587890625 467.046142578125 288.573486328125 467.232421875 288.52044677734375 C 467.76483154296875 288.9049072265625 468.2972412109375 289.289306640625 468.82958984375 289.67376708984375 C 467.152587890625 291.45013427734375 465.18280029296875 293.23974609375 462.920166015625 295.04266357421875 C 460.68408203125 296.81903076171875 458.35491943359375 298.4893798828125 455.93255615234375 300.0535888671875 C 453.53680419921875 301.59136962890625 451.24755859375 302.9169921875 449.06475830078125 304.030517578125 C 448.905029296875 303.79193115234375 448.66546630859375 303.52679443359375 448.3460693359375 303.23516845703125 C 448.05322265625 302.9434814453125 447.77374267578125 302.7314453125 447.507568359375 302.598876953125 C 449.7169189453125 301.5118408203125 451.9796142578125 300.2259521484375 454.29547119140625 298.7412109375 C 456.637939453125 297.22998046875 458.8341064453125 295.6524658203125 460.8837890625 294.0086669921875 C 462.9600830078125 292.33831787109375 464.7169189453125 290.74755859375 466.1544189453125 289.236328125 C 466.1544189453125 289.05072021484375 466.1544189453125 288.8651123046875 466.1544189453125 288.6795654296875M 446.7489013671875 266.3291015625 C 447.52081298828125 266.3291015625 448.2928466796875 266.3291015625 449.06475830078125 266.3291015625 C 449.06475830078125 269.9083251953125 449.06475830078125 273.48760986328125 449.06475830078125 277.06689453125 C 448.2928466796875 277.06689453125 447.52081298828125 277.06689453125 446.7489013671875 277.06689453125 C 446.7489013671875 273.48760986328125 446.7489013671875 269.9083251953125 446.7489013671875 266.3291015625M 416.8021240234375 275.79425048828125 C 437.618408203125 275.79425048828125 458.434814453125 275.79425048828125 479.2510986328125 275.79425048828125 C 479.2510986328125 281.1630859375 479.2510986328125 286.531982421875 479.2510986328125 291.90087890625 C 478.492431640625 291.90087890625 477.7337646484375 291.90087890625 476.97509765625 291.90087890625 C 476.97509765625 287.28759765625 476.97509765625 282.67431640625 476.97509765625 278.06109619140625 C 457.6761474609375 278.06109619140625 438.3770751953125 278.06109619140625 419.07806396484375 278.06109619140625 C 419.07806396484375 282.67431640625 419.07806396484375 287.28759765625 419.07806396484375 291.90087890625 C 418.3194580078125 291.90087890625 417.560791015625 291.90087890625 416.8021240234375 291.90087890625 C 416.8021240234375 286.531982421875 416.8021240234375 281.1630859375 416.8021240234375 275.79425048828125"/>
  </g>
</svg>
