<?xml version="1.0" encoding="utf-8"?>
<svg xmlns="http://www.w3.org/2000/svg" xmlns:ev="http://www.w3.org/2001/xml-events" xmlns:xlink="http://www.w3.org/1999/xlink" version="1.1" baseProfile="full" width="3543.0" height="1643.0" viewBox="117.0 -1505.0 3543.0 1643.0">
<defs/>
<g><path d="M 2383.000000 -774.000000 C 2711.333333 -774.000000 3039.666667 -774.000000 3368.000000 -774.000000 C 3368.000000 -755.333333 3368.000000 -736.666667 3368.000000 -718.000000 C 3039.666667 -718.000000 2711.333333 -718.000000 2383.000000 -718.000000 C 2383.000000 -736.666667 2383.000000 -755.333333 2383.000000 -774.000000z M 2588.000000 -564.000000 C 2780.666667 -564.000000 2973.333333 -564.000000 3166.000000 -564.000000 C 3166.000000 -545.666667 3166.000000 -527.333333 3166.000000 -509.000000 C 2973.333333 -509.000000 2780.666667 -509.000000 2588.000000 -509.000000 C 2588.000000 -527.333333 2588.000000 -545.666667 2588.000000 -564.000000z M 2588.000000 -349.000000 C 2780.666667 -349.000000 2973.333333 -349.000000 3166.000000 -349.000000 C 3166.000000 -330.666667 3166.000000 -312.333333 3166.000000 -294.000000 C 2973.333333 -294.000000 2780.666667 -294.000000 2588.000000 -294.000000 C 2588.000000 -312.333333 2588.000000 -330.666667 2588.000000 -349.000000z M 3141.000000 -758.000000 C 3160.333333 -758.000000 3179.666667 -758.000000 3199.000000 -758.000000 C 3199.000000 -472.666667 3199.000000 -187.333333 3199.000000 98.000000 C 3179.666667 98.000000 3160.333333 98.000000 3141.000000 98.000000 C 3141.000000 -187.333333 3141.000000 -472.666667 3141.000000 -758.000000z M 2556.000000 -758.000000 C 2575.000000 -758.000000 2594.000000 -758.000000 2613.000000 -758.000000 C 2613.000000 -532.333333 2613.000000 -306.666667 2613.000000 -81.000000 C 2594.000000 -81.000000 2575.000000 -81.000000 2556.000000 -81.000000 C 2556.000000 -306.666667 2556.000000 -532.333333 2556.000000 -758.000000z M 2360.000000 -96.000000 C 2426.666667 -98.666667 2503.000000 -102.000000 2589.000000 -106.000000 C 2675.666667 -110.666667 2768.333333 -116.000000 2867.000000 -122.000000 C 2966.333333 -128.000000 3066.666667 -134.000000 3168.000000 -140.000000 C 3167.333333 -121.333333 3166.666667 -102.666667 3166.000000 -84.000000 C 3018.666667 -75.333333 2874.000000 -66.666667 2732.000000 -58.000000 C 2590.000000 -50.000000 2467.333333 -42.666667 2364.000000 -36.000000 C 2362.666667 -56.000000 2361.333333 -76.000000 2360.000000 -96.000000z M 2143.000000 -1240.000000 C 2341.333333 -1240.000000 2539.666667 -1240.000000 2738.000000 -1240.000000 C 2738.000000 -1221.666667 2738.000000 -1203.333333 2738.000000 -1185.000000 C 2539.666667 -1185.000000 2341.333333 -1185.000000 2143.000000 -1185.000000 C 2143.000000 -1203.333333 2143.000000 -1221.666667 2143.000000 -1240.000000z M 3022.000000 -1240.000000 C 3223.000000 -1240.000000 3424.000000 -1240.000000 3625.000000 -1240.000000 C 3625.000000 -1221.666667 3625.000000 -1203.333333 3625.000000 -1185.000000 C 3424.000000 -1185.000000 3223.000000 -1185.000000 3022.000000 -1185.000000 C 3022.000000 -1203.333333 3022.000000 -1221.666667 3022.000000 -1240.000000z M 3602.000000 -1503.000000 C 3621.333333 -1503.000000 3640.666667 -1503.000000 3660.000000 -1503.000000 C 3660.000000 -992.333333 3660.000000 -481.666667 3660.000000 29.000000 C 3660.000000 57.000000 3655.000000 78.333333 3645.000000 93.000000 C 3635.666667 107.666667 3620.000000 118.333333 3598.000000 125.000000 C 3576.000000 129.666667 3541.666667 132.333333 3495.000000 133.000000 C 3448.333333 133.666667 3388.666667 134.000000 3316.000000 134.000000 C 3314.666667 129.333333 3313.000000 123.333333 3311.000000 116.000000 C 3309.000000 109.333333 3306.333333 102.000000 3303.000000 94.000000 C 3300.333333 86.666667 3297.000000 79.666667 3293.000000 73.000000 C 3357.000000 74.333333 3413.666667 75.000000 3463.000000 75.000000 C 3512.333333 75.000000 3545.333333 74.333333 3562.000000 73.000000 C 3577.333333 71.666667 3587.666667 68.000000 3593.000000 62.000000 C 3599.000000 56.666667 3602.000000 46.333333 3602.000000 31.000000 C 3602.000000 -480.333333 3602.000000 -991.666667 3602.000000 -1503.000000z M 2147.000000 -1503.000000 C 2354.333333 -1503.000000 2561.666667 -1503.000000 2769.000000 -1503.000000 C 2769.000000 -1305.333333 2769.000000 -1107.666667 2769.000000 -910.000000 C 2561.666667 -910.000000 2354.333333 -910.000000 2147.000000 -910.000000 C 2147.000000 -928.666667 2147.000000 -947.333333 2147.000000 -966.000000 C 2335.666667 -966.000000 2524.333333 -966.000000 2713.000000 -966.000000 C 2713.000000 -1126.666667 2713.000000 -1287.333333 2713.000000 -1448.000000 C 2524.333333 -1448.000000 2335.666667 -1448.000000 2147.000000 -1448.000000 C 2147.000000 -1466.333333 2147.000000 -1484.666667 2147.000000 -1503.000000z M 3623.000000 -1503.000000 C 3623.000000 -1484.666667 3623.000000 -1466.333333 3623.000000 -1448.000000 C 3428.333333 -1448.000000 3233.666667 -1448.000000 3039.000000 -1448.000000 C 3039.000000 -1287.333333 3039.000000 -1126.666667 3039.000000 -966.000000 C 3233.666667 -966.000000 3428.333333 -966.000000 3623.000000 -966.000000 C 3623.000000 -947.333333 3623.000000 -928.666667 3623.000000 -910.000000 C 3410.000000 -910.000000 3197.000000 -910.000000 2984.000000 -910.000000 C 2984.000000 -1107.666667 2984.000000 -1305.333333 2984.000000 -1503.000000 C 3197.000000 -1503.000000 3410.000000 -1503.000000 3623.000000 -1503.000000z M 2110.000000 -1503.000000 C 2129.333333 -1503.000000 2148.666667 -1503.000000 2168.000000 -1503.000000 C 2168.000000 -956.000000 2168.000000 -409.000000 2168.000000 138.000000 C 2148.666667 138.000000 2129.333333 138.000000 2110.000000 138.000000 C 2110.000000 -409.000000 2110.000000 -956.000000 2110.000000 -1503.000000z "/>
</g></svg>
