<?xml version="1.0" encoding="utf-8"?>
<svg xmlns="http://www.w3.org/2000/svg" xmlns:ev="http://www.w3.org/2001/xml-events" xmlns:xlink="http://www.w3.org/1999/xlink" version="1.1" baseProfile="full" width="11171.0" height="1744.0" viewBox="190.0 -1596.0 11171.0 1744.0">
<defs/>
<g><path d="M 8388.000000 -321.000000 C 8761.333333 -321.000000 9134.666667 -321.000000 9508.000000 -321.000000 C 9508.000000 -301.666667 9508.000000 -282.333333 9508.000000 -263.000000 C 9134.666667 -263.000000 8761.333333 -263.000000 8388.000000 -263.000000 C 8388.000000 -282.333333 8388.000000 -301.666667 8388.000000 -321.000000z M 8980.000000 -968.000000 C 9147.000000 -968.000000 9314.000000 -968.000000 9481.000000 -968.000000 C 9481.000000 -948.666667 9481.000000 -929.333333 9481.000000 -910.000000 C 9314.000000 -910.000000 9147.000000 -910.000000 8980.000000 -910.000000 C 8980.000000 -929.333333 8980.000000 -948.666667 8980.000000 -968.000000z M 8949.000000 -1450.000000 C 8967.666667 -1450.000000 8986.333333 -1450.000000 9005.000000 -1450.000000 C 9005.000000 -1066.000000 9005.000000 -682.000000 9005.000000 -298.000000 C 8986.333333 -298.000000 8967.666667 -298.000000 8949.000000 -298.000000 C 8949.000000 -682.000000 8949.000000 -1066.000000 8949.000000 -1450.000000z M 8571.000000 -1094.000000 C 8589.666667 -1094.000000 8608.333333 -1094.000000 8627.000000 -1094.000000 C 8627.000000 -825.333333 8627.000000 -556.666667 8627.000000 -288.000000 C 8608.333333 -288.000000 8589.666667 -288.000000 8571.000000 -288.000000 C 8571.000000 -556.666667 8571.000000 -825.333333 8571.000000 -1094.000000z M 9370.000000 -1584.000000 C 9387.666667 -1570.000000 9405.333333 -1556.000000 9423.000000 -1542.000000 C 9368.333333 -1521.333333 9303.333333 -1502.000000 9228.000000 -1484.000000 C 9153.333333 -1466.000000 9073.333333 -1449.666667 8988.000000 -1435.000000 C 8903.333333 -1420.333333 8816.666667 -1407.333333 8728.000000 -1396.000000 C 8640.000000 -1384.666667 8555.000000 -1375.000000 8473.000000 -1367.000000 C 8471.666667 -1373.666667 8469.000000 -1381.333333 8465.000000 -1390.000000 C 8461.666667 -1399.333333 8458.000000 -1407.666667 8454.000000 -1415.000000 C 8534.666667 -1423.666667 8618.333333 -1433.666667 8705.000000 -1445.000000 C 8792.333333 -1457.000000 8877.333333 -1470.000000 8960.000000 -1484.000000 C 9043.333333 -1498.000000 9120.333333 -1513.333333 9191.000000 -1530.000000 C 9261.666667 -1546.666667 9321.333333 -1564.666667 9370.000000 -1584.000000z M 7774.000000 -1457.000000 C 7932.666667 -1457.000000 8091.333333 -1457.000000 8250.000000 -1457.000000 C 8250.000000 -1438.000000 8250.000000 -1419.000000 8250.000000 -1400.000000 C 8091.333333 -1400.000000 7932.666667 -1400.000000 7774.000000 -1400.000000 C 7774.000000 -1419.000000 7774.000000 -1438.000000 7774.000000 -1457.000000z M 8225.000000 -1457.000000 C 8229.000000 -1457.000000 8233.000000 -1457.000000 8237.000000 -1457.000000 C 8240.666667 -1459.000000 8244.333333 -1461.000000 8248.000000 -1463.000000 C 8262.333333 -1456.666667 8276.666667 -1450.333333 8291.000000 -1444.000000 C 8257.666667 -1385.333333 8217.333333 -1315.333333 8170.000000 -1234.000000 C 8122.666667 -1152.666667 8073.666667 -1069.333333 8023.000000 -984.000000 C 7972.333333 -898.666667 7923.333333 -819.000000 7876.000000 -745.000000 C 7858.666667 -751.333333 7841.333333 -757.666667 7824.000000 -764.000000 C 7858.666667 -818.000000 7894.666667 -876.333333 7932.000000 -939.000000 C 7970.000000 -1001.666667 8007.333333 -1064.666667 8044.000000 -1128.000000 C 8080.666667 -1191.333333 8114.666667 -1250.333333 8146.000000 -1305.000000 C 8177.333333 -1360.333333 8203.666667 -1407.333333 8225.000000 -1446.000000 C 8225.000000 -1449.666667 8225.000000 -1453.333333 8225.000000 -1457.000000z M 7930.000000 -906.000000 C 8062.333333 -906.000000 8194.666667 -906.000000 8327.000000 -906.000000 C 8327.000000 -887.000000 8327.000000 -868.000000 8327.000000 -849.000000 C 8185.000000 -849.000000 8043.000000 -849.000000 7901.000000 -849.000000 C 7910.666667 -868.000000 7920.333333 -887.000000 7930.000000 -906.000000z M 8306.000000 -906.000000 C 8309.666667 -906.000000 8313.333333 -906.000000 8317.000000 -906.000000 C 8321.666667 -906.666667 8326.333333 -907.333333 8331.000000 -908.000000 C 8342.333333 -903.666667 8353.666667 -899.333333 8365.000000 -895.000000 C 8327.000000 -625.000000 8259.333333 -406.333333 8162.000000 -239.000000 C 8064.666667 -71.666667 7947.666667 55.333333 7811.000000 142.000000 C 7808.333333 136.666667 7804.000000 131.000000 7798.000000 125.000000 C 7792.000000 119.666667 7786.333333 114.333333 7781.000000 109.000000 C 7776.333333 104.333333 7771.333333 100.666667 7766.000000 98.000000 C 7900.666667 16.000000 8015.333333 -105.333333 8110.000000 -266.000000 C 8204.666667 -426.666667 8270.000000 -634.333333 8306.000000 -889.000000 C 8306.000000 -894.666667 8306.000000 -900.333333 8306.000000 -906.000000z M 7933.000000 -649.000000 C 7974.333333 -507.000000 8029.000000 -391.666667 8097.000000 -303.000000 C 8165.666667 -215.000000 8246.000000 -147.000000 8338.000000 -99.000000 C 8430.666667 -51.000000 8533.666667 -18.333333 8647.000000 -1.000000 C 8760.333333 16.333333 8882.000000 25.000000 9012.000000 25.000000 C 9021.333333 25.000000 9042.333333 25.000000 9075.000000 25.000000 C 9107.666667 25.000000 9146.333333 25.000000 9191.000000 25.000000 C 9235.666667 25.000000 9280.333333 25.000000 9325.000000 25.000000 C 9370.333333 25.000000 9410.333333 25.000000 9445.000000 25.000000 C 9480.333333 25.000000 9504.333333 25.000000 9517.000000 25.000000 C 9513.666667 29.000000 9510.000000 34.333333 9506.000000 41.000000 C 9502.000000 48.333333 9498.333333 55.333333 9495.000000 62.000000 C 9492.333333 69.333333 9490.333333 75.666667 9489.000000 81.000000 C 9457.666667 81.000000 9426.333333 81.000000 9395.000000 81.000000 C 9267.333333 81.000000 9139.666667 81.000000 9012.000000 81.000000 C 8872.666667 81.000000 8744.000000 71.666667 8626.000000 53.000000 C 8508.666667 34.333333 8402.666667 -0.333333 8308.000000 -51.000000 C 8213.333333 -101.666667 8130.333333 -173.333333 8059.000000 -266.000000 C 7988.333333 -358.666667 7930.333333 -478.666667 7885.000000 -626.000000 C 7901.000000 -633.666667 7917.000000 -641.333333 7933.000000 -649.000000z "/>
</g></svg>
