<?xml version="1.0" ?>
<svg xmlns="http://www.w3.org/2000/svg" version="1.1" width="600" height="600">
  <defs/>
  <g>
    <path stroke-width="0" fill="rgb(0, 0, 0)" opacity="1.0" d="M 276.828125 169.03125 C 287.609375 171.21875 300.8125 172.859375 316.4375 173.953125 C 332.0625 174.890625 348.390625 175.359375 365.421875 175.359375 C 382.609375 175.359375 398.9375 174.8125 414.40625 173.71875 C 430.03125 172.46875 443.0 170.90625 453.3125 169.03125 C 453.3125 173.953125 453.3125 178.875 453.3125 183.796875 C 443.0 185.046875 430.03125 186.0625 414.40625 186.84375 C 398.9375 187.625 382.609375 188.015625 365.421875 188.015625 C 348.390625 188.015625 331.984375 187.625 316.203125 186.84375 C 300.421875 186.0625 287.296875 185.046875 276.828125 183.796875 C 276.828125 178.875 276.828125 173.953125 276.828125 169.03125M 275.890625 343.640625 C 273.546875 352.390625 271.671875 360.4375 270.265625 367.78125 C 268.859375 375.125 268.15625 381.921875 268.15625 388.171875 C 268.15625 393.640625 269.171875 399.265625 271.203125 405.046875 C 273.390625 410.671875 277.53125 415.984375 283.625 420.984375 C 289.875 425.828125 298.859375 429.734375 310.578125 432.703125 C 322.296875 435.671875 337.765625 437.15625 356.984375 437.15625 C 377.296875 437.15625 396.59375 436.21875 414.875 434.34375 C 433.15625 432.3125 450.578125 429.34375 467.140625 425.4375 C 467.296875 430.4375 467.453125 435.4375 467.609375 440.4375 C 454.171875 443.40625 438.078125 445.828125 419.328125 447.703125 C 400.578125 449.421875 380.5 450.28125 359.09375 450.28125 C 322.53125 450.28125 296.125 444.890625 279.875 434.109375 C 263.78125 423.328125 255.734375 408.328125 255.734375 389.109375 C 255.734375 383.171875 256.28125 376.375 257.375 368.71875 C 258.625 361.0625 260.265625 352.078125 262.296875 341.765625 C 266.828125 342.390625 271.359375 343.015625 275.890625 343.640625M 174.640625 129.890625 C 174.015625 131.765625 173.390625 133.71875 172.765625 135.75 C 172.296875 137.78125 171.75 139.96875 171.125 142.3125 C 170.5 144.5 169.875 147.0 169.25 149.8125 C 167.21875 160.59375 165.03125 171.921875 162.6875 183.796875 C 160.5 195.515625 158.390625 207.625 156.359375 220.125 C 154.484375 232.625 152.765625 245.203125 151.203125 257.859375 C 149.796875 270.359375 148.625 282.703125 147.6875 294.890625 C 146.75 306.921875 146.28125 318.640625 146.28125 330.046875 C 146.28125 347.546875 146.828125 363.5625 147.921875 378.09375 C 149.015625 392.625 150.578125 408.71875 152.609375 426.375 C 155.578125 418.09375 158.9375 408.71875 162.6875 398.25 C 166.4375 387.625 170.1875 377.234375 173.9375 367.078125 C 177.6875 356.921875 180.890625 348.25 183.546875 341.0625 C 186.90625 343.40625 190.265625 345.75 193.625 348.09375 C 190.34375 356.84375 186.4375 367.15625 181.90625 379.03125 C 177.375 390.90625 173.234375 402.390625 169.484375 413.484375 C 165.734375 424.578125 163.234375 433.25 161.984375 439.5 C 161.359375 442.46875 160.8125 445.671875 160.34375 449.109375 C 160.03125 452.546875 160.03125 455.828125 160.34375 458.953125 C 160.65625 460.984375 160.890625 463.171875 161.046875 465.515625 C 161.359375 468.015625 161.671875 469.96875 161.984375 471.375 C 157.84375 471.84375 153.703125 472.3125 149.5625 472.78125 C 145.03125 456.0625 141.203125 435.671875 138.078125 411.609375 C 135.109375 387.546875 133.625 360.359375 133.625 330.046875 C 133.625 313.953125 134.40625 297.390625 135.96875 280.359375 C 137.6875 263.171875 139.796875 246.375 142.296875 229.96875 C 144.953125 213.40625 147.453125 198.09375 149.796875 184.03125 C 152.296875 169.8125 154.25 157.78125 155.65625 147.9375 C 156.28125 143.71875 156.75 140.046875 157.0625 136.921875 C 157.375 133.796875 157.53125 130.828125 157.53125 128.015625 C 163.234375 128.640625 168.9375 129.265625 174.640625 129.890625"/>
  </g>
</svg>
