<?xml version="1.0" ?>
<svg xmlns="http://www.w3.org/2000/svg" version="1.1" width="600" height="600">
  <defs/>
  <g>
    <path stroke-width="0" fill="rgb(0, 0, 0)" opacity="1.0" d="M 127.99819946289062 271.265869140625 C 128.73651123046875 271.265869140625 129.47479248046875 271.265869140625 130.21310424804688 271.265869140625 C 130.21310424804688 278.265869140625 130.21310424804688 285.26580810546875 130.21310424804688 292.26580810546875 C 130.21310424804688 295.22784423828125 130.11126708984375 298.44305419921875 129.9075927734375 301.911376953125 C 129.70394897460938 305.35443115234375 129.32205200195312 308.8861083984375 128.761962890625 312.50634765625 C 128.20187377929688 316.1265869140625 127.37445068359375 319.6708984375 126.27972412109375 323.1392822265625 C 125.18499755859375 326.582275390625 123.70840454101562 329.7847900390625 121.84991455078125 332.746826171875 C 121.6971435546875 332.594970703125 121.50619506835938 332.4429931640625 121.27706909179688 332.2911376953125 C 121.07339477539062 332.16455078125 120.85699462890625 332.02532958984375 120.62786865234375 331.8734130859375 C 120.39874267578125 331.7215576171875 120.195068359375 331.594970703125 120.01687622070312 331.49365234375 C 121.82443237304688 328.582275390625 123.26284790039062 325.4683837890625 124.33212280273438 322.15185546875 C 125.40139770507812 318.81011962890625 126.19061279296875 315.405029296875 126.69979858398438 311.93670654296875 C 127.23443603515625 308.44305419921875 127.578125 305.02532958984375 127.73086547851562 301.68353271484375 C 127.90908813476562 298.31646728515625 127.99819946289062 295.17724609375 127.99819946289062 292.26580810546875 C 127.99819946289062 285.26580810546875 127.99819946289062 278.265869140625 127.99819946289062 271.265869140625M 129.02926635742188 271.265869140625 C 146.35397338867188 271.265869140625 163.67868041992188 271.265869140625 181.00338745117188 271.265869140625 C 181.00338745117188 275.44305419921875 181.00338745117188 279.6202392578125 181.00338745117188 283.7974853515625 C 163.67868041992188 283.7974853515625 146.35397338867188 283.7974853515625 129.02926635742188 283.7974853515625 C 129.02926635742188 283.10125732421875 129.02926635742188 282.405029296875 129.02926635742188 281.7088623046875 C 145.64114379882812 281.7088623046875 162.25299072265625 281.7088623046875 178.8648681640625 281.7088623046875 C 178.8648681640625 278.93670654296875 178.8648681640625 276.16455078125 178.8648681640625 273.39239501953125 C 162.25299072265625 273.39239501953125 145.64114379882812 273.39239501953125 129.02926635742188 273.39239501953125 C 129.02926635742188 272.68353271484375 129.02926635742188 271.97467041015625 129.02926635742188 271.265869140625M 142.166015625 284.746826171875 C 142.75155639648438 284.430419921875 143.33712768554688 284.1138916015625 143.92266845703125 283.7974853515625 C 144.991943359375 284.73419189453125 146.02301025390625 285.81011962890625 147.01589965820312 287.02532958984375 C 148.03427124023438 288.240478515625 148.734375 289.3291015625 149.11627197265625 290.2911376953125 C 148.53070068359375 290.658203125 147.94515991210938 291.02532958984375 147.359619140625 291.39239501953125 C 146.92681884765625 290.430419921875 146.2266845703125 289.31646728515625 145.25924682617188 288.0506591796875 C 144.31729125976562 286.7847900390625 143.28619384765625 285.68353271484375 142.166015625 284.746826171875M 170.3870849609375 283.68353271484375 C 171.04901123046875 284.0379638671875 171.7109375 284.39239501953125 172.37286376953125 284.746826171875 C 171.43087768554688 285.9620361328125 170.43798828125 287.17724609375 169.39419555664062 288.39239501953125 C 168.37582397460938 289.582275390625 167.40838623046875 290.582275390625 166.49188232421875 291.39239501953125 C 165.95724487304688 291.10125732421875 165.422607421875 290.81011962890625 164.88796997070312 290.51898193359375 C 165.75357055664062 289.60760498046875 166.72100830078125 288.48101806640625 167.790283203125 287.1392822265625 C 168.885009765625 285.7974853515625 169.7506103515625 284.64556884765625 170.3870849609375 283.68353271484375M 138.99639892578125 312.6202392578125 C 151.90399169921875 312.6202392578125 164.81161499023438 312.6202392578125 177.71920776367188 312.6202392578125 C 177.71920776367188 319.3797607421875 177.71920776367188 326.1392822265625 177.71920776367188 332.89874267578125 C 177.00634765625 332.89874267578125 176.29351806640625 332.89874267578125 175.58065795898438 332.89874267578125 C 175.58065795898438 326.8607177734375 175.58065795898438 320.82275390625 175.58065795898438 314.7847900390625 C 164.0987548828125 314.7847900390625 152.61685180664062 314.7847900390625 141.13491821289062 314.7847900390625 C 141.13491821289062 320.8861083984375 141.13491821289062 326.9873046875 141.13491821289062 333.088623046875 C 140.42208862304688 333.088623046875 139.709228515625 333.088623046875 138.99639892578125 333.088623046875 C 138.99639892578125 326.26580810546875 138.99639892578125 319.44305419921875 138.99639892578125 312.6202392578125M 137.54522705078125 300.16455078125 C 137.54522705078125 302.2025146484375 137.54522705078125 304.240478515625 137.54522705078125 306.2784423828125 C 151.25479125976562 306.2784423828125 164.96435546875 306.2784423828125 178.67391967773438 306.2784423828125 C 178.67391967773438 304.240478515625 178.67391967773438 302.2025146484375 178.67391967773438 300.16455078125 C 164.96435546875 300.16455078125 151.25479125976562 300.16455078125 137.54522705078125 300.16455078125M 137.54522705078125 292.0 C 137.54522705078125 293.9873046875 137.54522705078125 295.97467041015625 137.54522705078125 297.9620361328125 C 151.25479125976562 297.9620361328125 164.96435546875 297.9620361328125 178.67391967773438 297.9620361328125 C 178.67391967773438 295.97467041015625 178.67391967773438 293.9873046875 178.67391967773438 292.0 C 164.96435546875 292.0 151.25479125976562 292.0 137.54522705078125 292.0M 135.330322265625 289.8734130859375 C 150.47830200195312 289.8734130859375 165.62628173828125 289.8734130859375 180.77426147460938 289.8734130859375 C 180.77426147460938 296.0506591796875 180.77426147460938 302.22784423828125 180.77426147460938 308.405029296875 C 165.62628173828125 308.405029296875 150.47830200195312 308.405029296875 135.330322265625 308.405029296875 C 135.330322265625 302.22784423828125 135.330322265625 296.0506591796875 135.330322265625 289.8734130859375M 156.67752075195312 290.594970703125 C 157.40310668945312 290.594970703125 158.128662109375 290.594970703125 158.854248046875 290.594970703125 C 158.854248046875 296.18988037109375 158.854248046875 301.7847900390625 158.854248046875 307.3797607421875 C 158.128662109375 307.3797607421875 157.40310668945312 307.3797607421875 156.67752075195312 307.3797607421875 C 156.67752075195312 301.7847900390625 156.67752075195312 296.18988037109375 156.67752075195312 290.594970703125M 139.95111083984375 320.3291015625 C 152.14584350585938 320.3291015625 164.34060668945312 320.3291015625 176.53536987304688 320.3291015625 C 176.53536987304688 321.0379638671875 176.53536987304688 321.746826171875 176.53536987304688 322.4556884765625 C 164.34060668945312 322.4556884765625 152.14584350585938 322.4556884765625 139.95111083984375 322.4556884765625 C 139.95111083984375 321.746826171875 139.95111083984375 321.0379638671875 139.95111083984375 320.3291015625M 139.95111083984375 328.3797607421875 C 152.14584350585938 328.3797607421875 164.34060668945312 328.3797607421875 176.53536987304688 328.3797607421875 C 176.53536987304688 329.075927734375 176.53536987304688 329.77215576171875 176.53536987304688 330.4683837890625 C 164.34060668945312 330.4683837890625 152.14584350585938 330.4683837890625 139.95111083984375 330.4683837890625 C 139.95111083984375 329.77215576171875 139.95111083984375 329.075927734375 139.95111083984375 328.3797607421875"/>
    <path stroke-width="0" fill="rgb(0, 0, 0)" opacity="1.0" d="M 231.7554931640625 272.1392822265625 C 231.65365600585938 272.6708984375 231.53909301757812 273.44305419921875 231.41180419921875 274.4556884765625 C 231.28448486328125 275.44305419921875 231.18267822265625 276.35443115234375 231.10629272460938 277.18988037109375 C 230.7498779296875 279.7974853515625 230.3934326171875 282.44305419921875 230.03701782226562 285.1265869140625 C 229.7060546875 287.81011962890625 229.247802734375 290.51898193359375 228.6622314453125 293.253173828125 C 228.07669067382812 295.9620361328125 227.27474975585938 298.7215576171875 226.25637817382812 301.5316162109375 C 225.03436279296875 304.84814453125 223.6468505859375 307.9620361328125 222.0938720703125 310.8734130859375 C 220.56634521484375 313.7847900390625 218.92425537109375 316.35443115234375 217.1676025390625 318.582275390625 C 215.41094970703125 320.7847900390625 213.51425170898438 322.50634765625 211.47756958007812 323.746826171875 C 209.44085693359375 324.9873046875 207.30230712890625 325.60760498046875 205.06195068359375 325.60760498046875 C 203.5853271484375 325.60760498046875 202.27420043945312 325.18988037109375 201.12857055664062 324.35443115234375 C 199.98291015625 323.51898193359375 199.07913208007812 322.3797607421875 198.41720581054688 320.93670654296875 C 197.75527954101562 319.4683837890625 197.42431640625 317.759521484375 197.42431640625 315.81011962890625 C 197.42431640625 312.417724609375 197.94622802734375 309.2911376953125 198.99002075195312 306.430419921875 C 200.05929565429688 303.5443115234375 201.42132568359375 300.911376953125 203.076171875 298.5316162109375 C 204.24725341796875 296.68353271484375 205.7747802734375 294.82275390625 207.65875244140625 292.9493408203125 C 209.54269409179688 291.0506591796875 211.75759887695312 289.3038330078125 214.30349731445312 287.7088623046875 C 216.849365234375 286.088623046875 219.70074462890625 284.7847900390625 222.85763549804688 283.7974853515625 C 226.03997802734375 282.7847900390625 229.54058837890625 282.2784423828125 233.359375 282.2784423828125 C 236.00711059570312 282.2784423828125 238.552978515625 282.7215576171875 240.99700927734375 283.60760498046875 C 243.44107055664062 284.4683837890625 245.63052368164062 285.746826171875 247.56539916992188 287.44305419921875 C 249.52569580078125 289.1138916015625 251.07870483398438 291.2025146484375 252.224365234375 293.7088623046875 C 253.39544677734375 296.2152099609375 253.98101806640625 299.088623046875 253.98101806640625 302.3291015625 C 253.98101806640625 306.2784423828125 253.6373291015625 309.82275390625 252.94992065429688 312.9620361328125 C 252.26254272460938 316.075927734375 251.21875 318.759521484375 249.8184814453125 321.0126953125 C 248.41827392578125 323.240478515625 246.67431640625 324.93670654296875 244.58673095703125 326.10125732421875 C 242.5245361328125 327.26580810546875 240.10595703125 327.84814453125 237.33096313476562 327.84814453125 C 234.19952392578125 327.84814453125 231.73004150390625 327.10125732421875 229.92245483398438 325.60760498046875 C 228.1148681640625 324.088623046875 227.21109008789062 322.088623046875 227.21109008789062 319.60760498046875 C 227.21109008789062 318.06329345703125 227.6566162109375 316.6708984375 228.54766845703125 315.430419921875 C 229.46420288085938 314.18988037109375 230.711669921875 313.2152099609375 232.29013061523438 312.50634765625 C 233.89404296875 311.7974853515625 235.68887329101562 311.44305419921875 237.67465209960938 311.44305419921875 C 240.373291015625 311.44305419921875 242.85552978515625 311.8734130859375 245.121337890625 312.73419189453125 C 247.38717651367188 313.569580078125 249.4493408203125 314.6329345703125 251.30783081054688 315.924072265625 C 253.16632080078125 317.2152099609375 254.80841064453125 318.5570068359375 256.234130859375 319.9493408203125 C 257.6597900390625 321.341796875 258.85638427734375 322.594970703125 259.82379150390625 323.7088623046875 C 259.2891845703125 324.3797607421875 258.7545166015625 325.0506591796875 258.21990966796875 325.7215576171875 C 257.2779235839844 324.5570068359375 256.11956787109375 323.2784423828125 254.7447509765625 321.8861083984375 C 253.39544677734375 320.4683837890625 251.85519409179688 319.1138916015625 250.1240234375 317.82275390625 C 248.392822265625 316.5316162109375 246.4833984375 315.48101806640625 244.39578247070312 314.6708984375 C 242.30816650390625 313.83544921875 240.06777954101562 313.417724609375 237.67465209960938 313.417724609375 C 234.84872436523438 313.417724609375 232.722900390625 314.075927734375 231.2972412109375 315.39239501953125 C 229.89700317382812 316.7088623046875 229.19686889648438 318.088623046875 229.19686889648438 319.5316162109375 C 229.19686889648438 321.3797607421875 229.90972900390625 322.89874267578125 231.33541870117188 324.088623046875 C 232.78656005859375 325.2784423828125 234.78509521484375 325.8734130859375 237.33096313476562 325.8734130859375 C 240.10595703125 325.8734130859375 242.4227294921875 325.240478515625 244.28121948242188 323.97467041015625 C 246.13970947265625 322.68353271484375 247.61630249023438 320.93670654296875 248.7110595703125 318.73419189453125 C 249.8057861328125 316.50634765625 250.594970703125 313.9873046875 251.07870483398438 311.17724609375 C 251.587890625 308.341796875 251.84246826171875 305.417724609375 251.84246826171875 302.405029296875 C 251.84246826171875 300.22784423828125 251.4605712890625 298.06329345703125 250.69683837890625 295.911376953125 C 249.93304443359375 293.73419189453125 248.77468872070312 291.77215576171875 247.2216796875 290.02532958984375 C 245.69415283203125 288.2784423828125 243.77203369140625 286.8861083984375 241.45529174804688 285.84814453125 C 239.1385498046875 284.7847900390625 236.4144287109375 284.253173828125 233.28302001953125 284.253173828125 C 229.23507690429688 284.253173828125 225.416259765625 284.89874267578125 221.82656860351562 286.18988037109375 C 218.23687744140625 287.48101806640625 214.9781494140625 289.2911376953125 212.05038452148438 291.6202392578125 C 209.1480712890625 293.9493408203125 206.66583251953125 296.6961669921875 204.60369873046875 299.8607177734375 C 203.43258666992188 301.7088623046875 202.46514892578125 303.49365234375 201.70138549804688 305.2152099609375 C 200.96307373046875 306.93670654296875 200.40298461914062 308.658203125 200.0211181640625 310.3797607421875 C 199.6646728515625 312.075927734375 199.48648071289062 313.8607177734375 199.48648071289062 315.73419189453125 C 199.48648071289062 318.1392822265625 200.08474731445312 320.0379638671875 201.28131103515625 321.430419921875 C 202.47787475585938 322.7974853515625 203.712646484375 323.48101806640625 204.98556518554688 323.48101806640625 C 206.89498901367188 323.48101806640625 208.75347900390625 322.911376953125 210.56103515625 321.77215576171875 C 212.36862182617188 320.6329345703125 214.09982299804688 319.02532958984375 215.754638671875 316.9493408203125 C 217.4349365234375 314.84814453125 219.02609252929688 312.405029296875 220.52816772460938 309.6202392578125 C 222.05569458007812 306.81011962890625 223.43048095703125 303.746826171875 224.6524658203125 300.430419921875 C 225.4671630859375 298.15185546875 226.154541015625 295.658203125 226.71466064453125 292.9493408203125 C 227.27474975585938 290.2152099609375 227.72027587890625 287.50634765625 228.05123901367188 284.82275390625 C 228.40765380859375 282.1138916015625 228.68771362304688 279.68353271484375 228.891357421875 277.5316162109375 C 228.99322509765625 276.6202392578125 229.04412841796875 275.73419189453125 229.04412841796875 274.8734130859375 C 229.04412841796875 273.9873046875 228.99322509765625 273.02532958984375 228.891357421875 271.9873046875 C 229.8460693359375 272.0379638671875 230.80078125 272.088623046875 231.7554931640625 272.1392822265625M 204.0308837890625 279.0126953125 C 204.51458740234375 281.088623046875 205.15106201171875 283.31646728515625 205.94027709960938 285.6961669921875 C 206.7294921875 288.075927734375 207.55691528320312 290.405029296875 208.42251586914062 292.68353271484375 C 209.31356811523438 294.93670654296875 210.1409912109375 297.0126953125 210.90472412109375 298.911376953125 C 211.6939697265625 300.81011962890625 212.35589599609375 302.341796875 212.89053344726562 303.50634765625 C 213.62884521484375 305.10125732421875 214.58352661132812 306.911376953125 215.754638671875 308.93670654296875 C 216.92575073242188 310.9620361328125 218.09683227539062 312.6961669921875 219.2679443359375 314.1392822265625 C 218.88607788085938 314.6961669921875 218.50418090820312 315.253173828125 218.122314453125 315.81011962890625 C 217.33306884765625 314.89874267578125 216.480224609375 313.77215576171875 215.56369018554688 312.430419921875 C 214.67263793945312 311.088623046875 213.84521484375 309.73419189453125 213.08148193359375 308.3670654296875 C 212.31768798828125 306.97467041015625 211.66851806640625 305.7215576171875 211.13385009765625 304.60760498046875 C 210.49740600585938 303.1392822265625 209.72091674804688 301.3038330078125 208.80438232421875 299.10125732421875 C 207.913330078125 296.8734130859375 207.03500366210938 294.60760498046875 206.16940307617188 292.3038330078125 C 205.32925415039062 290.0 204.64187622070312 288.02532958984375 204.10723876953125 286.3797607421875 C 203.8526611328125 285.49365234375 203.5853271484375 284.658203125 203.3052978515625 283.8734130859375 C 203.05068969726562 283.06329345703125 202.78338623046875 282.31646728515625 202.50335693359375 281.6329345703125 C 202.24874877929688 280.9493408203125 202.00689697265625 280.341796875 201.77777099609375 279.81011962890625 C 202.52880859375 279.5443115234375 203.27984619140625 279.2784423828125 204.0308837890625 279.0126953125"/>
    <path stroke-width="0" fill="rgb(0, 0, 0)" opacity="1.0" d="M 271.7767028808594 283.7974853515625 C 272.8968811035156 283.9493408203125 274.09344482421875 284.06329345703125 275.36639404296875 284.1392822265625 C 276.63934326171875 284.2152099609375 278.1795654296875 284.253173828125 279.9871826171875 284.253173828125 C 282.2784423828125 284.253173828125 284.7352294921875 284.17724609375 287.35748291015625 284.02532958984375 C 289.979736328125 283.84814453125 292.78021240234375 283.49365234375 295.7588806152344 282.9620361328125 C 298.737548828125 282.405029296875 301.8689880371094 281.594970703125 305.1531677246094 280.5316162109375 C 305.1786193847656 281.3291015625 305.2041015625 282.1265869140625 305.22955322265625 282.924072265625 C 302.53094482421875 283.658203125 299.76861572265625 284.2911376953125 296.9427185058594 284.82275390625 C 294.1422424316406 285.3291015625 291.3163146972656 285.7215576171875 288.4649353027344 286.0 C 285.6135559082031 286.253173828125 282.76214599609375 286.3797607421875 279.9107666015625 286.3797607421875 C 278.68878173828125 286.3797607421875 277.3394470214844 286.3670654296875 275.86285400390625 286.341796875 C 274.41168212890625 286.31646728515625 273.1005554199219 286.2784423828125 271.929443359375 286.22784423828125 C 271.8785400390625 285.417724609375 271.82763671875 284.60760498046875 271.7767028808594 283.7974853515625M 295.262451171875 271.0 C 294.9569091796875 272.06329345703125 294.6004943847656 273.430419921875 294.19317626953125 275.10125732421875 C 293.811279296875 276.77215576171875 293.3912048339844 278.49365234375 292.9329528808594 280.26580810546875 C 292.4747009277344 282.0379638671875 292.00372314453125 283.6329345703125 291.5199890136719 285.0506591796875 C 290.2979736328125 288.5443115234375 288.77044677734375 292.2025146484375 286.9374084472656 296.02532958984375 C 285.1043701171875 299.84814453125 283.15679931640625 303.51898193359375 281.0946044921875 307.0379638671875 C 279.032470703125 310.5570068359375 277.00848388671875 313.60760498046875 275.022705078125 316.18988037109375 C 274.2080078125 315.746826171875 273.393310546875 315.3038330078125 272.57867431640625 314.8607177734375 C 274.2080078125 313.06329345703125 275.83740234375 310.9620361328125 277.46673583984375 308.5570068359375 C 279.0960998535156 306.15191650390625 280.6363525390625 303.60760498046875 282.0875244140625 300.924072265625 C 283.5641174316406 298.2152099609375 284.9261779785156 295.51898193359375 286.17364501953125 292.83544921875 C 287.421142578125 290.1265869140625 288.4394836425781 287.60760498046875 289.22869873046875 285.2784423828125 C 289.91607666015625 283.2784423828125 290.60345458984375 280.924072265625 291.2908630371094 278.2152099609375 C 291.978271484375 275.48101806640625 292.37286376953125 272.97467041015625 292.4747009277344 270.6961669921875 C 293.4039306640625 270.7974853515625 294.33319091796875 270.89874267578125 295.262451171875 271.0M 312.6380615234375 293.2911376953125 C 312.5871276855469 294.759521484375 312.5362243652344 295.93670654296875 312.48529052734375 296.82275390625 C 312.43438720703125 297.68353271484375 312.43438720703125 298.6202392578125 312.48529052734375 299.6329345703125 C 312.5362243652344 300.9493408203125 312.5871276855469 302.5570068359375 312.6380615234375 304.4556884765625 C 312.71441650390625 306.35443115234375 312.80352783203125 308.3670654296875 312.9053955078125 310.49365234375 C 313.0072021484375 312.594970703125 313.0963134765625 314.6329345703125 313.17266845703125 316.60760498046875 C 313.24908447265625 318.5570068359375 313.2872619628906 320.240478515625 313.2872619628906 321.658203125 C 313.2872619628906 323.253173828125 312.85443115234375 324.746826171875 311.9888610839844 326.1392822265625 C 311.1487121582031 327.5316162109375 309.87579345703125 328.6329345703125 308.1700439453125 329.4429931640625 C 306.48974609375 330.2784423828125 304.3512268066406 330.6961669921875 301.7544250488281 330.6961669921875 C 299.4122314453125 330.6961669921875 297.2609558105469 330.405029296875 295.30059814453125 329.82275390625 C 293.3657531738281 329.240478515625 291.800048828125 328.2911376953125 290.60345458984375 326.97467041015625 C 289.40692138671875 325.658203125 288.8086242675781 323.93670654296875 288.8086242675781 321.81011962890625 C 288.8086242675781 319.658203125 289.4450988769531 317.911376953125 290.718017578125 316.569580078125 C 292.01641845703125 315.2025146484375 293.6712646484375 314.18988037109375 295.6824951171875 313.5316162109375 C 297.6937255859375 312.8734130859375 299.7431640625 312.5443115234375 301.830810546875 312.5443115234375 C 305.8023681640625 312.5443115234375 309.40478515625 313.088623046875 312.6380615234375 314.17724609375 C 315.89678955078125 315.26580810546875 318.8372802734375 316.64556884765625 321.45953369140625 318.31646728515625 C 324.081787109375 319.9620361328125 326.38580322265625 321.582275390625 328.37158203125 323.17724609375 C 327.913330078125 323.8607177734375 327.455078125 324.5443115234375 326.996826171875 325.22784423828125 C 325.46929931640625 323.911376953125 323.814453125 322.60760498046875 322.0323486328125 321.31646728515625 C 320.250244140625 320.02532958984375 318.3026428222656 318.8734130859375 316.1895751953125 317.8607177734375 C 314.1019287109375 316.84814453125 311.8742980957031 316.02532958984375 309.5066223144531 315.39239501953125 C 307.13897705078125 314.759521484375 304.63128662109375 314.44305419921875 301.9835510253906 314.44305419921875 C 298.7248229980469 314.44305419921875 296.06439208984375 315.1392822265625 294.0022277832031 316.5316162109375 C 291.9400634765625 317.89874267578125 290.90899658203125 319.6329345703125 290.90899658203125 321.73419189453125 C 290.90899658203125 323.7847900390625 291.7618408203125 325.4429931640625 293.46759033203125 326.7088623046875 C 295.19879150390625 327.9493408203125 297.9228515625 328.569580078125 301.6398620605469 328.569580078125 C 304.032958984375 328.569580078125 305.9296875 328.22784423828125 307.32989501953125 327.5443115234375 C 308.755615234375 326.83544921875 309.77392578125 325.89874267578125 310.38494873046875 324.73419189453125 C 310.9959716796875 323.569580078125 311.30145263671875 322.35443115234375 311.30145263671875 321.088623046875 C 311.30145263671875 319.3670654296875 311.2632751464844 317.3670654296875 311.1868896484375 315.088623046875 C 311.11053466796875 312.81011962890625 311.0086975097656 310.39239501953125 310.88140869140625 307.83544921875 C 310.7795715332031 305.2784423828125 310.677734375 302.746826171875 310.5758972167969 300.240478515625 C 310.47406005859375 297.7088623046875 310.397705078125 295.39239501953125 310.3467712402344 293.2911376953125 C 311.11053466796875 293.2911376953125 311.8742980957031 293.2911376953125 312.6380615234375 293.2911376953125M 329.3262939453125 293.2911376953125 C 328.104248046875 292.17724609375 326.53857421875 291.0126953125 324.629150390625 289.7974853515625 C 322.74517822265625 288.582275390625 320.797607421875 287.430419921875 318.7863464355469 286.341796875 C 316.7751159667969 285.253173828125 314.99298095703125 284.341796875 313.44000244140625 283.60760498046875 C 313.8218994140625 283.0506591796875 314.2037658691406 282.49365234375 314.58563232421875 281.93670654296875 C 315.90948486328125 282.51898193359375 317.335205078125 283.2152099609375 318.86273193359375 284.02532958984375 C 320.41571044921875 284.81011962890625 321.9432373046875 285.658203125 323.4453125 286.569580078125 C 324.97283935546875 287.4556884765625 326.373046875 288.3291015625 327.64599609375 289.18988037109375 C 328.9189453125 290.02532958984375 329.9500732421875 290.759521484375 330.7392578125 291.39239501953125 C 330.26824951171875 292.02532958984375 329.79730224609375 292.658203125 329.3262939453125 293.2911376953125"/>
    <path stroke-width="0" fill="rgb(0, 0, 0)" opacity="1.0" d="M 351.1317138671875 311.594970703125 C 366.30517578125 311.594970703125 381.4786376953125 311.594970703125 396.652099609375 311.594970703125 C 396.652099609375 318.759521484375 396.652099609375 325.924072265625 396.652099609375 333.088623046875 C 395.91375732421875 333.088623046875 395.1754150390625 333.088623046875 394.4371337890625 333.088623046875 C 394.4371337890625 326.658203125 394.4371337890625 320.22784423828125 394.4371337890625 313.7974853515625 C 380.7275390625 313.7974853515625 367.01800537109375 313.7974853515625 353.3084716796875 313.7974853515625 C 353.3084716796875 320.3038330078125 353.3084716796875 326.81011962890625 353.3084716796875 333.31646728515625 C 352.5828857421875 333.31646728515625 351.8572998046875 333.31646728515625 351.1317138671875 333.31646728515625 C 351.1317138671875 326.075927734375 351.1317138671875 318.83544921875 351.1317138671875 311.594970703125M 352.1246337890625 319.911376953125 C 366.59796142578125 319.911376953125 381.0712890625 319.911376953125 395.5445556640625 319.911376953125 C 395.5445556640625 320.6202392578125 395.5445556640625 321.3291015625 395.5445556640625 322.0379638671875 C 381.0712890625 322.0379638671875 366.59796142578125 322.0379638671875 352.1246337890625 322.0379638671875 C 352.1246337890625 321.3291015625 352.1246337890625 320.6202392578125 352.1246337890625 319.911376953125M 352.1246337890625 328.49365234375 C 366.59796142578125 328.49365234375 381.0712890625 328.49365234375 395.5445556640625 328.49365234375 C 395.5445556640625 329.2025146484375 395.5445556640625 329.911376953125 395.5445556640625 330.6202392578125 C 381.0712890625 330.6202392578125 366.59796142578125 330.6202392578125 352.1246337890625 330.6202392578125 C 352.1246337890625 329.911376953125 352.1246337890625 329.2025146484375 352.1246337890625 328.49365234375M 372.2879638671875 267.39239501953125 C 373.02630615234375 267.39239501953125 373.76458740234375 267.39239501953125 374.5029296875 267.39239501953125 C 374.5029296875 280.253173828125 374.5029296875 293.1138916015625 374.5029296875 305.97467041015625 C 373.76458740234375 305.97467041015625 373.02630615234375 305.97467041015625 372.2879638671875 305.97467041015625 C 372.2879638671875 293.1138916015625 372.2879638671875 280.253173828125 372.2879638671875 267.39239501953125M 349.64239501953125 273.088623046875 C 365.18499755859375 273.088623046875 380.7275390625 273.088623046875 396.2701416015625 273.088623046875 C 396.2701416015625 279.1392822265625 396.2701416015625 285.18988037109375 396.2701416015625 291.240478515625 C 380.434814453125 291.240478515625 364.59942626953125 291.240478515625 348.7640380859375 291.240478515625 C 348.7640380859375 290.5443115234375 348.7640380859375 289.84814453125 348.7640380859375 289.15191650390625 C 363.87384033203125 289.15191650390625 378.983642578125 289.15191650390625 394.09344482421875 289.15191650390625 C 394.09344482421875 284.5316162109375 394.09344482421875 279.911376953125 394.09344482421875 275.2911376953125 C 379.27642822265625 275.2911376953125 364.45941162109375 275.2911376953125 349.64239501953125 275.2911376953125 C 349.64239501953125 274.5570068359375 349.64239501953125 273.82275390625 349.64239501953125 273.088623046875M 341.66107177734375 281.06329345703125 C 363.02099609375 281.06329345703125 384.38092041015625 281.06329345703125 405.7408447265625 281.06329345703125 C 405.7408447265625 281.759521484375 405.7408447265625 282.4556884765625 405.7408447265625 283.15191650390625 C 384.38092041015625 283.15191650390625 363.02099609375 283.15191650390625 341.66107177734375 283.15191650390625 C 341.66107177734375 282.4556884765625 341.66107177734375 281.759521484375 341.66107177734375 281.06329345703125M 346.35821533203125 296.8607177734375 C 364.68853759765625 296.8607177734375 383.01885986328125 296.8607177734375 401.3492431640625 296.8607177734375 C 401.3492431640625 297.569580078125 401.3492431640625 298.2784423828125 401.3492431640625 298.9873046875 C 383.01885986328125 298.9873046875 364.68853759765625 298.9873046875 346.35821533203125 298.9873046875 C 346.35821533203125 298.2784423828125 346.35821533203125 297.569580078125 346.35821533203125 296.8607177734375M 341.50830078125 304.8734130859375 C 362.9700927734375 304.8734130859375 384.43182373046875 304.8734130859375 405.8935546875 304.8734130859375 C 405.8935546875 305.60760498046875 405.8935546875 306.341796875 405.8935546875 307.075927734375 C 384.43182373046875 307.075927734375 362.9700927734375 307.075927734375 341.50830078125 307.075927734375 C 341.50830078125 306.341796875 341.50830078125 305.60760498046875 341.50830078125 304.8734130859375"/>
    <path stroke-width="0" fill="rgb(0, 0, 0)" opacity="1.0" d="M 434.038330078125 297.9620361328125 C 449.364501953125 297.9620361328125 464.690673828125 297.9620361328125 480.016845703125 297.9620361328125 C 480.016845703125 298.6961669921875 480.016845703125 299.430419921875 480.016845703125 300.16455078125 C 464.690673828125 300.16455078125 449.364501953125 300.16455078125 434.038330078125 300.16455078125 C 434.038330078125 299.430419921875 434.038330078125 298.6961669921875 434.038330078125 297.9620361328125M 442.630615234375 306.84814453125 C 453.87066650390625 306.84814453125 465.1107177734375 306.84814453125 476.350830078125 306.84814453125 C 476.350830078125 307.5570068359375 476.350830078125 308.26580810546875 476.350830078125 308.97467041015625 C 465.1107177734375 308.97467041015625 453.87066650390625 308.97467041015625 442.630615234375 308.97467041015625 C 442.630615234375 308.26580810546875 442.630615234375 307.5570068359375 442.630615234375 306.84814453125M 446.9459228515625 298.83544921875 C 447.63330078125 299.02532958984375 448.3206787109375 299.2152099609375 449.008056640625 299.405029296875 C 447.0986328125 303.3038330078125 444.5909423828125 306.924072265625 441.4849853515625 310.26580810546875 C 438.3790283203125 313.582275390625 435.158447265625 316.3797607421875 431.8233642578125 318.658203125 C 431.74700927734375 318.50634765625 431.60693359375 318.341796875 431.4033203125 318.16455078125 C 431.19964599609375 317.9620361328125 430.9832763671875 317.77215576171875 430.75408935546875 317.594970703125 C 430.5504150390625 317.39239501953125 430.34674072265625 317.240478515625 430.14306640625 317.1392822265625 C 433.52911376953125 314.9873046875 436.72418212890625 312.3291015625 439.72833251953125 309.16455078125 C 442.73248291015625 305.97467041015625 445.1383056640625 302.5316162109375 446.9459228515625 298.83544921875M 475.70159912109375 306.84814453125 C 476.4271240234375 306.84814453125 477.1527099609375 306.84814453125 477.8782958984375 306.84814453125 C 477.8782958984375 306.84814453125 477.8656005859375 307.02532958984375 477.840087890625 307.3797607421875 C 477.814697265625 307.7088623046875 477.7764892578125 308.0 477.7255859375 308.253173828125 C 477.34368896484375 313.5443115234375 476.923583984375 317.7974853515625 476.46533203125 321.0126953125 C 476.0325927734375 324.2025146484375 475.5743408203125 326.6202392578125 475.090576171875 328.26580810546875 C 474.6068115234375 329.93670654296875 474.02130126953125 331.1138916015625 473.33392333984375 331.7974853515625 C 472.8502197265625 332.2784423828125 472.341064453125 332.594970703125 471.806396484375 332.746826171875 C 471.271728515625 332.89874267578125 470.5843505859375 332.9873046875 469.7442626953125 333.0126953125 C 469.0059814453125 333.0126953125 467.987548828125 333.0 466.689208984375 332.97467041015625 C 465.416259765625 332.97467041015625 464.06689453125 332.924072265625 462.6412353515625 332.82275390625 C 462.6412353515625 332.51898193359375 462.59033203125 332.16455078125 462.488525390625 331.759521484375 C 462.3865966796875 331.35443115234375 462.24664306640625 331.0 462.06842041015625 330.6961669921875 C 463.67230224609375 330.84814453125 465.13616943359375 330.9493408203125 466.4600830078125 331.0 C 467.809326171875 331.0506591796875 468.7640380859375 331.075927734375 469.32415771484375 331.075927734375 C 469.8587646484375 331.075927734375 470.3043212890625 331.0379638671875 470.6607666015625 330.9620361328125 C 471.0426025390625 330.8861083984375 471.34814453125 330.6708984375 471.5772705078125 330.31646728515625 C 472.162841796875 329.7847900390625 472.6846923828125 328.7088623046875 473.1429443359375 327.088623046875 C 473.626708984375 325.4683837890625 474.07220458984375 323.06329345703125 474.4796142578125 319.8734130859375 C 474.886962890625 316.68353271484375 475.29425048828125 312.51898193359375 475.70159912109375 307.3797607421875 C 475.70159912109375 307.2025146484375 475.70159912109375 307.02532958984375 475.70159912109375 306.84814453125M 444.2344970703125 282.2784423828125 C 444.2344970703125 284.97467041015625 444.2344970703125 287.6708984375 444.2344970703125 290.3670654296875 C 453.64154052734375 290.3670654296875 463.048583984375 290.3670654296875 472.45556640625 290.3670654296875 C 472.45556640625 287.6708984375 472.45556640625 284.97467041015625 472.45556640625 282.2784423828125 C 463.048583984375 282.2784423828125 453.64154052734375 282.2784423828125 444.2344970703125 282.2784423828125M 444.2344970703125 272.06329345703125 C 444.2344970703125 274.746826171875 444.2344970703125 277.430419921875 444.2344970703125 280.1138916015625 C 453.64154052734375 280.1138916015625 463.048583984375 280.1138916015625 472.45556640625 280.1138916015625 C 472.45556640625 277.430419921875 472.45556640625 274.746826171875 472.45556640625 272.06329345703125 C 463.048583984375 272.06329345703125 453.64154052734375 272.06329345703125 444.2344970703125 272.06329345703125M 442.0196533203125 269.97467041015625 C 452.8778076171875 269.97467041015625 463.7359619140625 269.97467041015625 474.5941162109375 269.97467041015625 C 474.5941162109375 277.50634765625 474.5941162109375 285.0379638671875 474.5941162109375 292.569580078125 C 463.7359619140625 292.569580078125 452.8778076171875 292.569580078125 442.0196533203125 292.569580078125 C 442.0196533203125 285.0379638671875 442.0196533203125 277.50634765625 442.0196533203125 269.97467041015625M 414.7532958984375 283.68353271484375 C 421.76715087890625 283.68353271484375 428.78106689453125 283.68353271484375 435.794921875 283.68353271484375 C 435.794921875 284.405029296875 435.794921875 285.1265869140625 435.794921875 285.84814453125 C 428.78106689453125 285.84814453125 421.76715087890625 285.84814453125 414.7532958984375 285.84814453125 C 414.7532958984375 285.1265869140625 414.7532958984375 284.405029296875 414.7532958984375 283.68353271484375M 424.4912109375 267.6961669921875 C 425.22955322265625 267.6961669921875 425.96783447265625 267.6961669921875 426.7061767578125 267.6961669921875 C 426.7061767578125 282.48101806640625 426.7061767578125 297.265869140625 426.7061767578125 312.0506591796875 C 425.96783447265625 312.0506591796875 425.22955322265625 312.0506591796875 424.4912109375 312.0506591796875 C 424.4912109375 297.265869140625 424.4912109375 282.48101806640625 424.4912109375 267.6961669921875M 413.5694580078125 316.26580810546875 C 415.42791748046875 315.430419921875 417.5537109375 314.44305419921875 419.94683837890625 313.3038330078125 C 422.365478515625 312.16455078125 424.924072265625 310.93670654296875 427.6226806640625 309.6202392578125 C 430.34674072265625 308.3038330078125 433.07086181640625 306.9873046875 435.794921875 305.6708984375 C 435.97314453125 306.3797607421875 436.1513671875 307.088623046875 436.32958984375 307.7974853515625 C 432.5107421875 309.64556884765625 428.67919921875 311.50634765625 424.8349609375 313.3797607421875 C 420.99066162109375 315.253173828125 417.5792236328125 316.924072265625 414.6004638671875 318.39239501953125 C 414.2568359375 317.68353271484375 413.9130859375 316.97467041015625 413.5694580078125 316.26580810546875M 465.35260009765625 307.15185546875 C 465.9381103515625 307.44305419921875 466.523681640625 307.73419189453125 467.1092529296875 308.02532958984375 C 466.21820068359375 311.2911376953125 464.9833984375 314.5570068359375 463.405029296875 317.82275390625 C 461.8265380859375 321.06329345703125 460.03173828125 324.0506591796875 458.0205078125 326.7847900390625 C 456.00921630859375 329.49365234375 453.85791015625 331.6961669921875 451.566650390625 333.39239501953125 C 451.363037109375 333.1392822265625 451.0828857421875 332.8734130859375 450.7265625 332.594970703125 C 450.3955078125 332.341796875 450.0645751953125 332.15185546875 449.733642578125 332.02532958984375 C 451.9739990234375 330.405029296875 454.125244140625 328.26580810546875 456.18743896484375 325.60760498046875 C 458.2496337890625 322.924072265625 460.0699462890625 319.97467041015625 461.6483154296875 316.759521484375 C 463.226806640625 313.51898193359375 464.4615478515625 310.31646728515625 465.35260009765625 307.15185546875M 453.552490234375 307.4556884765625 C 454.13800048828125 307.77215576171875 454.72357177734375 308.088623046875 455.30908203125 308.405029296875 C 454.0361328125 311.16455078125 452.39404296875 313.9493408203125 450.3828125 316.759521484375 C 448.39703369140625 319.5443115234375 446.18212890625 322.1138916015625 443.73809814453125 324.4683837890625 C 441.31951904296875 326.82275390625 438.88818359375 328.77215576171875 436.44415283203125 330.31646728515625 C 436.26593017578125 330.088623046875 436.0240478515625 329.81011962890625 435.71856689453125 329.48101806640625 C 435.43853759765625 329.17724609375 435.145751953125 328.924072265625 434.8402099609375 328.7215576171875 C 437.2333984375 327.3291015625 439.63922119140625 325.49365234375 442.05780029296875 323.2152099609375 C 444.47637939453125 320.911376953125 446.6912841796875 318.39239501953125 448.7025146484375 315.658203125 C 450.71380615234375 312.89874267578125 452.3304443359375 310.16455078125 453.552490234375 307.4556884765625"/>
  </g>
</svg>
