<?xml version="1.0" encoding="utf-8"?>
<svg xmlns="http://www.w3.org/2000/svg" xmlns:ev="http://www.w3.org/2001/xml-events" xmlns:xlink="http://www.w3.org/1999/xlink" version="1.1" baseProfile="full" width="49628.0" height="1744.0" viewBox="213.0 -1596.0 49628.0 1744.0">
<defs/>
<g><path d="M 46977.000000 -891.000000 C 46990.333333 -900.666667 47003.666667 -910.333333 47017.000000 -920.000000 C 47072.333333 -874.000000 47129.333333 -824.000000 47188.000000 -770.000000 C 47246.666667 -716.000000 47303.666667 -661.666667 47359.000000 -607.000000 C 47415.000000 -553.000000 47467.000000 -501.000000 47515.000000 -451.000000 C 47563.000000 -401.000000 47603.666667 -357.000000 47637.000000 -319.000000 C 47621.666667 -306.000000 47606.333333 -293.000000 47591.000000 -280.000000 C 47559.000000 -320.000000 47519.333333 -365.333333 47472.000000 -416.000000 C 47424.666667 -466.666667 47373.000000 -519.666667 47317.000000 -575.000000 C 47261.666667 -631.000000 47204.666667 -685.666667 47146.000000 -739.000000 C 47088.000000 -793.000000 47031.666667 -843.666667 46977.000000 -891.000000z M 47013.000000 -1596.000000 C 47032.333333 -1596.000000 47051.666667 -1596.000000 47071.000000 -1596.000000 C 47071.000000 -1498.666667 47071.000000 -1401.333333 47071.000000 -1304.000000 C 47071.000000 -1244.666667 47068.000000 -1181.000000 47062.000000 -1113.000000 C 47056.000000 -1045.666667 47043.333333 -976.000000 47024.000000 -904.000000 C 47005.333333 -832.666667 46975.000000 -760.333333 46933.000000 -687.000000 C 46891.666667 -614.333333 46834.666667 -543.000000 46762.000000 -473.000000 C 46690.000000 -403.666667 46599.000000 -337.000000 46489.000000 -273.000000 C 46486.333333 -276.333333 46482.666667 -280.666667 46478.000000 -286.000000 C 46474.000000 -291.333333 46469.333333 -296.666667 46464.000000 -302.000000 C 46458.666667 -308.000000 46453.666667 -312.333333 46449.000000 -315.000000 C 46557.666667 -376.333333 46647.000000 -440.666667 46717.000000 -508.000000 C 46787.666667 -575.333333 46843.000000 -644.000000 46883.000000 -714.000000 C 46923.666667 -784.666667 46953.333333 -854.000000 46972.000000 -922.000000 C 46990.666667 -990.666667 47002.000000 -1057.333333 47006.000000 -1122.000000 C 47010.666667 -1186.666667 47013.000000 -1247.333333 47013.000000 -1304.000000 C 47013.000000 -1401.333333 47013.000000 -1498.666667 47013.000000 -1596.000000z M 46289.000000 -1258.000000 C 46781.333333 -1258.000000 47273.666667 -1258.000000 47766.000000 -1258.000000 C 47766.000000 -1238.666667 47766.000000 -1219.333333 47766.000000 -1200.000000 C 47292.333333 -1200.000000 46818.666667 -1200.000000 46345.000000 -1200.000000 C 46345.000000 -754.000000 46345.000000 -308.000000 46345.000000 138.000000 C 46326.333333 138.000000 46307.666667 138.000000 46289.000000 138.000000 C 46289.000000 -327.333333 46289.000000 -792.666667 46289.000000 -1258.000000z M 47737.000000 -1258.000000 C 47755.666667 -1258.000000 47774.333333 -1258.000000 47793.000000 -1258.000000 C 47793.000000 -833.000000 47793.000000 -408.000000 47793.000000 17.000000 C 47793.000000 49.000000 47787.666667 72.666667 47777.000000 88.000000 C 47767.000000 103.333333 47749.333333 114.333333 47724.000000 121.000000 C 47696.666667 126.333333 47654.000000 129.333333 47596.000000 130.000000 C 47538.666667 130.666667 47466.666667 131.000000 47380.000000 131.000000 C 47378.666667 124.333333 47376.666667 117.333333 47374.000000 110.000000 C 47371.333333 103.333333 47368.666667 95.666667 47366.000000 87.000000 C 47364.000000 79.000000 47361.000000 71.666667 47357.000000 65.000000 C 47410.333333 66.333333 47459.333333 67.333333 47504.000000 68.000000 C 47549.333333 68.666667 47588.333333 68.666667 47621.000000 68.000000 C 47653.666667 67.333333 47676.333333 67.000000 47689.000000 67.000000 C 47708.333333 65.666667 47721.000000 61.333333 47727.000000 54.000000 C 47733.666667 47.333333 47737.000000 35.666667 47737.000000 19.000000 C 47737.000000 -406.666667 47737.000000 -832.333333 47737.000000 -1258.000000z "/>
</g></svg>
