<?xml version="1.0" encoding="utf-8"?>
<svg xmlns="http://www.w3.org/2000/svg" xmlns:ev="http://www.w3.org/2001/xml-events" xmlns:xlink="http://www.w3.org/1999/xlink" version="1.1" baseProfile="full" width="17092.0" height="1734.0" viewBox="113.0 -1596.0 17092.0 1734.0">
<defs/>
<g><path d="M 10527.000000 -1596.000000 C 10546.333333 -1596.000000 10565.666667 -1596.000000 10585.000000 -1596.000000 C 10585.000000 -1519.666667 10585.000000 -1443.333333 10585.000000 -1367.000000 C 10565.666667 -1367.000000 10546.333333 -1367.000000 10527.000000 -1367.000000 C 10527.000000 -1443.333333 10527.000000 -1519.666667 10527.000000 -1596.000000z M 10527.000000 -488.000000 C 10546.333333 -488.000000 10565.666667 -488.000000 10585.000000 -488.000000 C 10585.000000 -307.333333 10585.000000 -126.666667 10585.000000 54.000000 C 10565.666667 54.000000 10546.333333 54.000000 10527.000000 54.000000 C 10527.000000 -126.666667 10527.000000 -307.333333 10527.000000 -488.000000z M 9763.000000 -1407.000000 C 10294.333333 -1407.000000 10825.666667 -1407.000000 11357.000000 -1407.000000 C 11357.000000 -1312.333333 11357.000000 -1217.666667 11357.000000 -1123.000000 C 11337.666667 -1123.000000 11318.333333 -1123.000000 11299.000000 -1123.000000 C 11299.000000 -1199.333333 11299.000000 -1275.666667 11299.000000 -1352.000000 C 10806.333333 -1352.000000 10313.666667 -1352.000000 9821.000000 -1352.000000 C 9821.000000 -1275.666667 9821.000000 -1199.333333 9821.000000 -1123.000000 C 9801.666667 -1123.000000 9782.333333 -1123.000000 9763.000000 -1123.000000 C 9763.000000 -1217.666667 9763.000000 -1312.333333 9763.000000 -1407.000000z M 10228.000000 -1258.000000 C 10246.666667 -1258.000000 10265.333333 -1258.000000 10284.000000 -1258.000000 C 10284.000000 -1037.666667 10284.000000 -817.333333 10284.000000 -597.000000 C 10265.333333 -597.000000 10246.666667 -597.000000 10228.000000 -597.000000 C 10228.000000 -817.333333 10228.000000 -1037.666667 10228.000000 -1258.000000z M 10836.000000 -1258.000000 C 10854.666667 -1258.000000 10873.333333 -1258.000000 10892.000000 -1258.000000 C 10892.000000 -1037.666667 10892.000000 -817.333333 10892.000000 -597.000000 C 10873.333333 -597.000000 10854.666667 -597.000000 10836.000000 -597.000000 C 10836.000000 -817.333333 10836.000000 -1037.666667 10836.000000 -1258.000000z M 9905.000000 -1106.000000 C 10337.000000 -1106.000000 10769.000000 -1106.000000 11201.000000 -1106.000000 C 11201.000000 -1087.333333 11201.000000 -1068.666667 11201.000000 -1050.000000 C 10769.000000 -1050.000000 10337.000000 -1050.000000 9905.000000 -1050.000000 C 9905.000000 -1068.666667 9905.000000 -1087.333333 9905.000000 -1106.000000z M 10109.000000 -286.000000 C 10408.333333 -286.000000 10707.666667 -286.000000 11007.000000 -286.000000 C 11007.000000 -267.333333 11007.000000 -248.666667 11007.000000 -230.000000 C 10707.666667 -230.000000 10408.333333 -230.000000 10109.000000 -230.000000 C 10109.000000 -248.666667 10109.000000 -267.333333 10109.000000 -286.000000z M 9796.000000 25.000000 C 10310.666667 25.000000 10825.333333 25.000000 11340.000000 25.000000 C 11340.000000 43.666667 11340.000000 62.333333 11340.000000 81.000000 C 10825.333333 81.000000 10310.666667 81.000000 9796.000000 81.000000 C 9796.000000 62.333333 9796.000000 43.666667 9796.000000 25.000000z M 9946.000000 -870.000000 C 10349.666667 -870.000000 10753.333333 -870.000000 11157.000000 -870.000000 C 11157.000000 -851.333333 11157.000000 -832.666667 11157.000000 -814.000000 C 10753.333333 -814.000000 10349.666667 -814.000000 9946.000000 -814.000000 C 9946.000000 -832.666667 9946.000000 -851.333333 9946.000000 -870.000000z M 9715.000000 -620.000000 C 10280.333333 -620.000000 10845.666667 -620.000000 11411.000000 -620.000000 C 11411.000000 -601.000000 11411.000000 -582.000000 11411.000000 -563.000000 C 10845.666667 -563.000000 10280.333333 -563.000000 9715.000000 -563.000000 C 9715.000000 -582.000000 9715.000000 -601.000000 9715.000000 -620.000000z M 10249.000000 -605.000000 C 10265.000000 -598.000000 10281.000000 -591.000000 10297.000000 -584.000000 C 10257.000000 -521.333333 10206.333333 -461.000000 10145.000000 -403.000000 C 10083.666667 -345.666667 10017.000000 -294.000000 9945.000000 -248.000000 C 9873.666667 -202.000000 9802.666667 -164.666667 9732.000000 -136.000000 C 9730.000000 -142.666667 9726.333333 -148.333333 9721.000000 -153.000000 C 9715.666667 -158.333333 9710.333333 -163.666667 9705.000000 -169.000000 C 9700.333333 -174.333333 9695.333333 -178.666667 9690.000000 -182.000000 C 9762.000000 -206.666667 9833.333333 -240.666667 9904.000000 -284.000000 C 9975.333333 -327.333333 10041.333333 -376.666667 10102.000000 -432.000000 C 10162.666667 -488.000000 10211.666667 -545.666667 10249.000000 -605.000000z M 10877.000000 -605.000000 C 10915.000000 -548.333333 10964.333333 -493.666667 11025.000000 -441.000000 C 11086.333333 -389.000000 11153.000000 -342.333333 11225.000000 -301.000000 C 11297.666667 -260.333333 11370.333333 -229.000000 11443.000000 -207.000000 C 11439.000000 -203.666667 11434.000000 -198.666667 11428.000000 -192.000000 C 11422.666667 -185.333333 11417.666667 -179.000000 11413.000000 -173.000000 C 11409.000000 -167.666667 11405.000000 -162.333333 11401.000000 -157.000000 C 11328.333333 -183.000000 11255.333333 -217.666667 11182.000000 -261.000000 C 11109.333333 -304.333333 11041.666667 -353.666667 10979.000000 -409.000000 C 10917.000000 -465.000000 10865.666667 -522.666667 10825.000000 -582.000000 C 10842.333333 -589.666667 10859.666667 -597.333333 10877.000000 -605.000000z "/>
</g></svg>
