<?xml version="1.0" ?>
<svg xmlns="http://www.w3.org/2000/svg" version="1.1" width="600" height="600">
  <defs/>
  <g>
    <path stroke-width="0" fill="rgb(0, 0, 0)" opacity="1.0" d="M 332.9461669921875 146.03103637695312 C 332.9461669921875 146.72109985351562 332.8082275390625 148.17022705078125 332.5322265625 150.37838745117188 C 332.2562255859375 152.44851684570312 332.0491943359375 154.58770751953125 331.9112548828125 156.79586791992188 C 331.7733154296875 158.86599731445312 331.7042236328125 160.52212524414062 331.7042236328125 161.76422119140625 C 331.42822265625 166.87060546875 331.290283203125 173.63311767578125 331.290283203125 182.0517578125 C 331.290283203125 190.33236694335938 331.290283203125 199.4410400390625 331.290283203125 209.3778076171875 C 331.290283203125 219.31454467773438 331.359375 229.3203125 331.497314453125 239.39505004882812 C 331.63525390625 249.46981811523438 331.7733154296875 258.9925231933594 331.9112548828125 267.96319580078125 C 332.0491943359375 276.9338684082031 332.1182861328125 284.59344482421875 332.1182861328125 290.9419250488281 C 328.46142578125 286.3185729980469 324.8045654296875 281.6952209472656 321.1478271484375 277.0718994140625 C 321.1478271484375 275.001708984375 321.1478271484375 270.5163879394531 321.1478271484375 263.6158752441406 C 321.1478271484375 256.7153625488281 321.0787353515625 248.43475341796875 320.9407958984375 238.77398681640625 C 320.8028564453125 229.11328125 320.664794921875 219.24554443359375 320.52685546875 209.1707763671875 C 320.388916015625 199.09603881835938 320.2508544921875 189.84933471679688 320.1129150390625 181.43069458007812 C 319.9749755859375 172.87405395507812 319.7679443359375 166.31857299804688 319.491943359375 161.76422119140625 C 319.491943359375 159.14202880859375 319.284912109375 156.03680419921875 318.8709716796875 152.44851684570312 C 318.4569091796875 148.86026000976562 318.112060546875 146.72109985351562 317.8359375 146.03103637695312 C 322.872802734375 146.03103637695312 327.909423828125 146.03103637695312 332.9461669921875 146.03103637695312M 135.478515625 207.10064697265625 C 145.2760009765625 206.8245849609375 156.5914306640625 206.47958374023438 169.4246826171875 206.0655517578125 C 182.258056640625 205.51351928710938 196.1263427734375 204.96145629882812 211.029541015625 204.409423828125 C 226.0706787109375 203.85739135742188 241.594970703125 203.37432861328125 257.6021728515625 202.9603271484375 C 273.609375 202.5462646484375 289.478515625 202.20126342773438 305.2095947265625 201.92523193359375 C 321.0787353515625 201.64923095703125 336.3270263671875 201.51123046875 350.9542236328125 201.51123046875 C 364.8916015625 201.51123046875 377.7249755859375 201.58023071289062 389.4542236328125 201.71823120117188 C 401.3216552734375 201.85623168945312 411.80908203125 201.92523193359375 420.9166259765625 201.92523193359375 C 430.162109375 201.92523193359375 438.0968017578125 201.9942626953125 444.720458984375 202.13226318359375 C 451.3441162109375 202.270263671875 456.5877685546875 202.33929443359375 460.4515380859375 202.33929443359375 C 460.4515380859375 206.34158325195312 460.4515380859375 210.3438720703125 460.4515380859375 214.34619140625 C 450.654052734375 213.79412841796875 437.268798828125 213.380126953125 420.295654296875 213.10406494140625 C 403.4605712890625 212.82806396484375 380.415771484375 212.6900634765625 351.1612548828125 212.6900634765625 C 335.01611328125 212.6900634765625 317.6290283203125 212.82806396484375 299.0 213.10406494140625 C 280.3709716796875 213.380126953125 261.2589111328125 213.86312866210938 241.6639404296875 214.55319213867188 C 222.2069091796875 215.24325561523438 203.3709716796875 216.14031982421875 185.1558837890625 217.244384765625 C 167.078857421875 218.21044921875 150.65771484375 219.383544921875 135.8924560546875 220.763671875 C 135.7545166015625 216.20928955078125 135.616455078125 211.65496826171875 135.478515625 207.10064697265625M 337.29296875 320.338134765625 C 337.29296875 334.13916015625 334.7401123046875 345.7320556640625 329.6343994140625 355.11669921875 C 324.6666259765625 364.3634033203125 318.180908203125 371.33294677734375 310.1773681640625 376.0252685546875 C 302.311767578125 380.57965087890625 293.894287109375 382.8568115234375 284.9246826171875 382.8568115234375 C 275.9552001953125 382.8568115234375 267.675537109375 381.54571533203125 260.0859375 378.92352294921875 C 252.4964599609375 376.30133056640625 245.872802734375 372.3680419921875 240.215087890625 367.1236572265625 C 234.6953125 361.7412109375 230.41748046875 355.32373046875 227.3817138671875 347.8712158203125 C 224.345947265625 340.41864013671875 222.827880859375 331.9310302734375 222.827880859375 322.40826416015625 C 222.827880859375 311.0914306640625 225.5877685546875 300.671630859375 231.1075439453125 291.14892578125 C 236.7652587890625 281.48822021484375 244.216796875 273.69061279296875 253.46240234375 267.75616455078125 C 262.7078857421875 261.82171630859375 272.7813720703125 258.8544921875 283.6827392578125 258.8544921875 C 297.2060546875 258.8544921875 308.314453125 261.8907470703125 317.008056640625 267.96319580078125 C 325.839599609375 274.03564453125 332.394287109375 282.5232849121094 336.6719970703125 293.42608642578125 C 341.0877685546875 304.32891845703125 343.295654296875 316.88787841796875 343.295654296875 331.1029052734375 C 343.295654296875 344.9039306640625 341.6397705078125 358.49798583984375 338.327880859375 371.885009765625 C 335.01611328125 385.27197265625 329.2894287109375 398.0379638671875 321.1478271484375 410.182861328125 C 313.144287109375 422.18975830078125 302.0357666015625 433.16162109375 287.822509765625 443.09832763671875 C 273.747314453125 453.0350341796875 255.670166015625 461.4537353515625 233.5914306640625 468.354248046875 C 229.8656005859375 465.0419921875 226.1397705078125 461.729736328125 222.4139404296875 458.41748046875 C 241.8709716796875 453.587158203125 258.4300537109375 447.3076171875 272.0914306640625 439.5791015625 C 285.890625 431.71246337890625 297.1370849609375 422.4658203125 305.83056640625 411.8389892578125 C 314.662109375 401.212158203125 321.0787353515625 389.34326171875 325.08056640625 376.2322998046875 C 329.220458984375 363.121337890625 331.290283203125 348.90625 331.290283203125 333.587158203125 C 331.290283203125 310.5394287109375 326.736572265625 294.1851806640625 317.6290283203125 284.5244140625 C 308.521484375 274.86370849609375 297.4820556640625 270.0333557128906 284.5107421875 270.0333557128906 C 275.817138671875 270.0333557128906 267.675537109375 272.3105163574219 260.0859375 276.8648681640625 C 252.4964599609375 281.28118896484375 246.355712890625 287.42266845703125 241.6639404296875 295.28924560546875 C 237.1102294921875 303.017822265625 234.833251953125 312.0574951171875 234.833251953125 322.40826416015625 C 234.833251953125 338.27947998046875 239.7320556640625 350.493408203125 249.529541015625 359.050048828125 C 259.3270263671875 367.4686279296875 271.12548828125 371.677978515625 284.9246826171875 371.677978515625 C 295.274169921875 371.677978515625 303.8297119140625 369.0557861328125 310.5914306640625 363.8114013671875 C 317.35302734375 358.428955078125 322.458740234375 350.9764404296875 325.9085693359375 341.4537353515625 C 329.3583984375 331.9310302734375 331.083251953125 320.95916748046875 331.083251953125 308.5382080078125 C 333.1531982421875 312.4715576171875 335.22314453125 316.40484619140625 337.29296875 320.338134765625M 390.9031982421875 141.47671508789062 C 395.4569091796875 147.68716430664062 400.838623046875 155.55377197265625 407.04833984375 165.07647705078125 C 413.258056640625 174.59918212890625 418.5018310546875 183.22482299804688 422.779541015625 190.95343017578125 C 418.915771484375 192.88555908203125 415.0518798828125 194.81768798828125 411.1881103515625 196.74984741210938 C 407.04833984375 188.88327026367188 401.942626953125 180.1885986328125 395.8709716796875 170.6658935546875 C 389.937255859375 161.1431884765625 384.62451171875 153.13858032226562 379.9327392578125 146.652099609375 C 383.589599609375 144.92697143554688 387.2464599609375 143.20184326171875 390.9031982421875 141.47671508789062M 434.3709716796875 132.36801147460938 C 438.7867431640625 138.44049072265625 443.96142578125 146.10006713867188 449.8951416015625 155.34674072265625 C 455.966796875 164.4554443359375 461.3486328125 173.0810546875 466.040283203125 181.22369384765625 C 462.1075439453125 183.22482299804688 458.1746826171875 185.22598266601562 454.241943359375 187.22714233398438 C 449.964111328125 178.80850219726562 444.9273681640625 170.04486083984375 439.1317138671875 160.9361572265625 C 433.4739990234375 151.68948364257812 428.1612548828125 143.89187622070312 423.1934814453125 137.54339599609375 C 426.9193115234375 135.81826782226562 430.6451416015625 134.09317016601562 434.3709716796875 132.36801147460938"/>
  </g>
</svg>
