<?xml version="1.0" ?>
<svg xmlns="http://www.w3.org/2000/svg" version="1.1" width="600" height="600">
  <defs/>
  <g>
    <path stroke-width="0" fill="rgb(0, 0, 0)" opacity="1.0" d="M 378.87646484375 141.770263671875 C 382.254638671875 146.229736328125 385.835693359375 151.56756591796875 389.6192626953125 157.78378295898438 C 393.5380859375 164.0 397.456787109375 170.41891479492188 401.3756103515625 177.04055786132812 C 405.2943115234375 183.66217041015625 408.672607421875 189.81082153320312 411.51025390625 195.48648071289062 C 407.86181640625 197.31082153320312 404.2132568359375 199.1351318359375 400.5648193359375 200.95947265625 C 398.267578125 195.82431030273438 395.2271728515625 189.94595336914062 391.4434814453125 183.3243408203125 C 387.659912109375 176.70272827148438 383.6734619140625 170.14865112304688 379.4844970703125 163.66217041015625 C 375.4306640625 157.17568969726562 371.579345703125 151.56756591796875 367.930908203125 146.83782958984375 C 371.579345703125 145.14865112304688 375.2279052734375 143.45947265625 378.87646484375 141.770263671875M 418.6046142578125 127.78378295898438 C 422.253173828125 132.51351928710938 426.1043701171875 138.12161254882812 430.158203125 144.60812377929688 C 434.3472900390625 151.0946044921875 438.46875 157.58108520507812 442.5225830078125 164.06756591796875 C 446.5765380859375 170.55404663085938 449.88720703125 176.3648681640625 452.4547119140625 181.5 C 448.80615234375 183.3243408203125 445.15771484375 185.14865112304688 441.5091552734375 186.97296142578125 C 437.0499267578125 177.91891479492188 431.847412109375 168.45944213867188 425.901611328125 158.5946044921875 C 419.9559326171875 148.729736328125 414.01025390625 140.14865112304688 408.064453125 132.85134887695312 C 411.577880859375 131.16217041015625 415.0911865234375 129.47299194335938 418.6046142578125 127.78378295898438M 291.312255859375 186.97296142578125 C 290.2310791015625 183.05404663085938 289.0150146484375 178.8648681640625 287.6636962890625 174.4053955078125 C 286.447509765625 169.81082153320312 285.1636962890625 165.5540771484375 283.8125 161.6351318359375 C 288.5421142578125 161.02703857421875 293.2716064453125 160.41891479492188 298.0010986328125 159.81082153320312 C 298.406494140625 164.67568969726562 299.6903076171875 171.56756591796875 301.852294921875 180.48648071289062 C 304.1495361328125 189.4053955078125 306.8521728515625 198.8648681640625 309.9600830078125 208.8648681640625 C 313.068115234375 218.8648681640625 316.041015625 228.189208984375 318.878662109375 236.83782958984375 C 324.824462890625 254.1351318359375 332.7296142578125 271.83782958984375 342.593994140625 289.9459533691406 C 352.45849609375 307.9189453125 362.4581298828125 323.79730224609375 372.5928955078125 337.5810546875 C 374.7548828125 340.148681640625 376.9171142578125 342.7838134765625 379.0791015625 345.4864501953125 C 381.2412109375 348.0540771484375 383.4708251953125 350.4864501953125 385.76806640625 352.7838134765625 C 383.2005615234375 355.89190673828125 380.633056640625 359.0 378.065673828125 362.10809326171875 C 374.1468505859375 360.75677490234375 368.674072265625 359.6756591796875 361.6473388671875 358.8648681640625 C 354.7557373046875 357.9189453125 347.1883544921875 357.04052734375 338.945556640625 356.229736328125 C 330.8377685546875 355.4189453125 322.7974853515625 354.7432861328125 314.8248291015625 354.20269775390625 C 306.8521728515625 353.52703857421875 299.8929443359375 353.0540771484375 293.947265625 352.7838134765625 C 294.217529296875 349.270263671875 294.4876708984375 345.7567138671875 294.758056640625 342.24322509765625 C 303.1361083984375 342.7838134765625 311.85205078125 343.52703857421875 320.9056396484375 344.47296142578125 C 329.9593505859375 345.2838134765625 338.607666015625 346.02703857421875 346.8505859375 346.70269775390625 C 355.228759765625 347.37835693359375 361.985107421875 348.12158203125 367.1201171875 348.93243408203125 C 360.9041748046875 340.0135498046875 354.1475830078125 329.47296142578125 346.8505859375 317.310791015625 C 339.688720703125 305.1486511230469 332.7296142578125 292.3108215332031 325.9730224609375 278.79730224609375 C 319.216552734375 265.2837829589844 313.4735107421875 252.1756591796875 308.7440185546875 239.47296142578125 C 304.6900634765625 227.85134887695312 301.1766357421875 217.648681640625 298.203857421875 208.8648681640625 C 295.3660888671875 199.94595336914062 293.06884765625 192.64865112304688 291.312255859375 186.97296142578125M 148.0068359375 229.33782958984375 C 167.1953125 231.5 186.5865478515625 233.12161254882812 206.1802978515625 234.20269775390625 C 225.774169921875 235.14862060546875 244.624755859375 235.41891479492188 262.732177734375 235.01351928710938 C 280.9747314453125 234.60809326171875 297.122802734375 233.79730224609375 311.17626953125 232.58108520507812 C 320.22998046875 231.5 330.5673828125 230.0810546875 342.1885986328125 228.3243408203125 C 353.9449462890625 226.43243408203125 365.8363037109375 224.0 377.8629150390625 221.02703857421875 C 389.8895263671875 218.0540771484375 400.8350830078125 214.74322509765625 410.6995849609375 211.0946044921875 C 411.1048583984375 215.21624755859375 411.51025390625 219.33782958984375 411.9156494140625 223.45947265625 C 402.05126953125 226.43243408203125 391.2408447265625 229.06756591796875 379.4844970703125 231.3648681640625 C 367.86328125 233.66217041015625 356.44482421875 235.75674438476562 345.22900390625 237.64865112304688 C 334.1484375 239.4053955078125 324.3514404296875 240.82431030273438 315.8382568359375 241.9053955078125 C 292.1905517578125 244.47296142578125 265.6375732421875 245.68917846679688 236.17919921875 245.5540771484375 C 206.7208251953125 245.4189453125 177.600341796875 244.20269775390625 148.817626953125 241.9053955078125 C 148.54736328125 237.71624755859375 148.2772216796875 233.52703857421875 148.0068359375 229.33782958984375M 190.16748046875 344.87841796875 C 184.8973388671875 354.47296142578125 180.5731201171875 363.66217041015625 177.1949462890625 372.4459228515625 C 173.8167724609375 381.0946044921875 172.1275634765625 390.4864501953125 172.1275634765625 400.62158203125 C 172.1275634765625 421.16217041015625 181.11376953125 436.29730224609375 199.0860595703125 446.02703857421875 C 217.1934814453125 455.7567138671875 241.8546142578125 460.89190673828125 273.0697021484375 461.43243408203125 C 291.447265625 461.56756591796875 308.7440185546875 460.7567138671875 324.9595947265625 459.0 C 341.1751708984375 457.37841796875 356.03955078125 454.9459228515625 369.552490234375 451.70269775390625 C 369.552490234375 455.95947265625 369.552490234375 460.2161865234375 369.552490234375 464.47296142578125 C 356.3096923828125 466.770263671875 341.850830078125 468.66217041015625 326.17578125 470.148681640625 C 310.5006103515625 471.770263671875 292.6634521484375 472.4459228515625 272.664306640625 472.1756591796875 C 250.0975341796875 471.9053955078125 230.4361572265625 469.20269775390625 213.6800537109375 464.06756591796875 C 196.9239501953125 458.93243408203125 183.951416015625 450.95947265625 174.7625732421875 440.148681640625 C 165.57373046875 429.33782958984375 160.9793701171875 415.75677490234375 160.9793701171875 399.4053955078125 C 160.9793701171875 389.54052734375 162.7359619140625 379.9459228515625 166.2493896484375 370.62158203125 C 169.7628173828125 361.29730224609375 173.6815185546875 351.83782958984375 178.0057373046875 342.24322509765625 C 182.0595703125 343.12158203125 186.113525390625 344.0 190.16748046875 344.87841796875"/>
  </g>
</svg>
