<?xml version="1.0" encoding="utf-8"?>
<svg xmlns="http://www.w3.org/2000/svg" xmlns:ev="http://www.w3.org/2001/xml-events" xmlns:xlink="http://www.w3.org/1999/xlink" version="1.1" baseProfile="full" width="17098.0" height="1737.3" viewBox="90.0 -1596.0 17098.0 1737.3">
<defs/>
<g><path d="M 355.000000 -1465.000000 C 753.666667 -1465.000000 1152.333333 -1465.000000 1551.000000 -1465.000000 C 1551.000000 -1445.666667 1551.000000 -1426.333333 1551.000000 -1407.000000 C 1152.333333 -1407.000000 753.666667 -1407.000000 355.000000 -1407.000000 C 355.000000 -1426.333333 355.000000 -1445.666667 355.000000 -1465.000000z M 332.000000 -1465.000000 C 350.666667 -1465.000000 369.333333 -1465.000000 388.000000 -1465.000000 C 388.000000 -1275.000000 388.000000 -1085.000000 388.000000 -895.000000 C 388.000000 -818.333333 385.000000 -735.333333 379.000000 -646.000000 C 373.666667 -557.333333 362.333333 -467.000000 345.000000 -375.000000 C 327.666667 -283.666667 302.333333 -194.333333 269.000000 -107.000000 C 235.666667 -20.333333 190.666667 60.666667 134.000000 136.000000 C 132.000000 132.666667 128.333333 128.666667 123.000000 124.000000 C 117.666667 119.333333 112.000000 114.666667 106.000000 110.000000 C 100.666667 106.000000 95.333333 102.666667 90.000000 100.000000 C 145.333333 26.666667 189.000000 -51.666667 221.000000 -135.000000 C 253.000000 -219.000000 277.000000 -305.000000 293.000000 -393.000000 C 309.000000 -481.666667 319.333333 -568.333333 324.000000 -653.000000 C 329.333333 -738.333333 332.000000 -819.000000 332.000000 -895.000000 C 332.000000 -1085.000000 332.000000 -1275.000000 332.000000 -1465.000000z M 1528.000000 -1465.000000 C 1546.000000 -1465.000000 1564.000000 -1465.000000 1582.000000 -1465.000000 C 1583.333333 -1351.000000 1584.666667 -1234.000000 1586.000000 -1114.000000 C 1587.333333 -994.666667 1589.666667 -877.000000 1593.000000 -761.000000 C 1597.000000 -645.666667 1602.333333 -537.333333 1609.000000 -436.000000 C 1615.666667 -334.666667 1624.333333 -245.333333 1635.000000 -168.000000 C 1645.666667 -90.666667 1659.000000 -30.000000 1675.000000 14.000000 C 1691.000000 58.666667 1710.666667 81.000000 1734.000000 81.000000 C 1748.000000 81.000000 1758.333333 49.666667 1765.000000 -13.000000 C 1772.333333 -76.333333 1776.666667 -153.333333 1778.000000 -244.000000 C 1784.666667 -238.666667 1792.666667 -233.666667 1802.000000 -229.000000 C 1811.333333 -225.000000 1819.333333 -221.666667 1826.000000 -219.000000 C 1823.333333 -130.333333 1819.333333 -60.333333 1814.000000 -9.000000 C 1809.333333 41.666667 1800.000000 77.666667 1786.000000 99.000000 C 1772.666667 121.000000 1753.333333 132.666667 1728.000000 134.000000 C 1689.333333 134.000000 1658.000000 107.333333 1634.000000 54.000000 C 1610.666667 1.333333 1592.333333 -73.666667 1579.000000 -171.000000 C 1565.666667 -268.333333 1556.000000 -383.333333 1550.000000 -516.000000 C 1544.666667 -649.333333 1540.333333 -796.333333 1537.000000 -957.000000 C 1533.666667 -1117.666667 1530.666667 -1287.000000 1528.000000 -1465.000000z M 914.000000 -1194.000000 C 933.333333 -1194.000000 952.666667 -1194.000000 972.000000 -1194.000000 C 972.000000 -821.666667 972.000000 -449.333333 972.000000 -77.000000 C 952.666667 -77.000000 933.333333 -77.000000 914.000000 -77.000000 C 914.000000 -449.333333 914.000000 -821.666667 914.000000 -1194.000000z M 603.000000 -881.000000 C 603.000000 -754.333333 603.000000 -627.666667 603.000000 -501.000000 C 831.333333 -501.000000 1059.666667 -501.000000 1288.000000 -501.000000 C 1288.000000 -627.666667 1288.000000 -754.333333 1288.000000 -881.000000 C 1059.666667 -881.000000 831.333333 -881.000000 603.000000 -881.000000z M 545.000000 -937.000000 C 811.333333 -937.000000 1077.666667 -937.000000 1344.000000 -937.000000 C 1344.000000 -772.666667 1344.000000 -608.333333 1344.000000 -444.000000 C 1077.666667 -444.000000 811.333333 -444.000000 545.000000 -444.000000 C 545.000000 -608.333333 545.000000 -772.666667 545.000000 -937.000000z M 1327.000000 -1294.000000 C 1345.333333 -1280.000000 1363.666667 -1266.000000 1382.000000 -1252.000000 C 1310.666667 -1231.333333 1225.666667 -1213.000000 1127.000000 -1197.000000 C 1028.333333 -1181.000000 925.000000 -1167.333333 817.000000 -1156.000000 C 709.000000 -1144.666667 604.333333 -1135.000000 503.000000 -1127.000000 C 501.666667 -1133.666667 499.000000 -1141.666667 495.000000 -1151.000000 C 491.666667 -1160.333333 487.333333 -1168.333333 482.000000 -1175.000000 C 556.000000 -1181.666667 632.666667 -1188.666667 712.000000 -1196.000000 C 791.333333 -1204.000000 869.333333 -1213.000000 946.000000 -1223.000000 C 1023.333333 -1233.000000 1094.666667 -1244.000000 1160.000000 -1256.000000 C 1225.333333 -1268.666667 1281.000000 -1281.333333 1327.000000 -1294.000000z M 397.000000 -75.000000 C 476.333333 -79.000000 569.333333 -84.000000 676.000000 -90.000000 C 783.333333 -96.666667 898.333333 -104.000000 1021.000000 -112.000000 C 1144.333333 -120.666667 1268.666667 -128.666667 1394.000000 -136.000000 C 1393.333333 -117.666667 1392.666667 -99.333333 1392.000000 -81.000000 C 1270.666667 -73.000000 1149.666667 -65.000000 1029.000000 -57.000000 C 909.000000 -49.666667 795.000000 -42.333333 687.000000 -35.000000 C 579.666667 -28.333333 485.000000 -22.333333 403.000000 -17.000000 C 401.000000 -36.333333 399.000000 -55.666667 397.000000 -75.000000z M 1183.000000 -336.000000 C 1198.333333 -343.000000 1213.666667 -350.000000 1229.000000 -357.000000 C 1269.666667 -316.333333 1308.666667 -271.000000 1346.000000 -221.000000 C 1383.333333 -171.000000 1416.666667 -121.333333 1446.000000 -72.000000 C 1475.333333 -22.666667 1496.333333 22.333333 1509.000000 63.000000 C 1492.333333 71.333333 1475.666667 79.666667 1459.000000 88.000000 C 1445.000000 47.333333 1423.666667 2.333333 1395.000000 -47.000000 C 1366.333333 -96.333333 1333.666667 -146.333333 1297.000000 -197.000000 C 1260.333333 -247.666667 1222.333333 -294.000000 1183.000000 -336.000000z "/>
</g></svg>
