<?xml version="1.0" ?>
<svg xmlns="http://www.w3.org/2000/svg" version="1.1" width="600" height="600">
  <defs/>
  <g>
    <path stroke-width="0" fill="rgb(0, 0, 0)" opacity="1.0" d="M 403.251708984375 197.6705322265625 C 407.2744140625 198.98846435546875 411.297119140625 200.30633544921875 415.3199462890625 201.624267578125 C 398.535400390625 251.15029907226562 377.173095703125 293.80926513671875 351.2332763671875 329.6011962890625 C 325.29345703125 365.25433349609375 294.0823974609375 395.28900146484375 257.60009765625 419.7052001953125 C 221.1177978515625 443.982666015625 178.185302734375 464.375732421875 128.802490234375 480.8843994140625 C 128.5250244140625 479.913330078125 127.9007568359375 478.734130859375 126.9298095703125 477.3468017578125 C 126.0975341796875 476.0982666015625 125.1265869140625 474.71099853515625 124.0167236328125 473.1849365234375 C 123.0457763671875 471.658935546875 122.0054931640625 470.54913330078125 120.8956298828125 469.85546875 C 169.8624267578125 454.5953369140625 212.4481201171875 434.96533203125 248.6529541015625 410.96533203125 C 284.8577880859375 386.82659912109375 315.6527099609375 357.3468017578125 341.03759765625 322.5260009765625 C 366.561279296875 287.56646728515625 387.2994384765625 245.947998046875 403.251708984375 197.6705322265625M 194.345703125 198.9190673828125 C 209.8818359375 244.69943237304688 230.619873046875 285.76300048828125 256.5596923828125 322.10986328125 C 282.49951171875 358.4566650390625 314.126708984375 389.25433349609375 351.4412841796875 414.5029296875 C 388.755859375 439.61273193359375 431.7578125 458.2022705078125 480.447021484375 470.27166748046875 C 479.61474609375 470.96533203125 478.643798828125 472.0057373046875 477.533935546875 473.39306640625 C 476.56298828125 474.78033447265625 475.5225830078125 476.0982666015625 474.412841796875 477.3468017578125 C 473.3031005859375 478.734130859375 472.4014892578125 479.913330078125 471.7078857421875 480.8843994140625 C 422.8800048828125 468.12139892578125 379.8087158203125 448.907470703125 342.494140625 423.2427978515625 C 305.318359375 397.5780029296875 273.5523681640625 366.15606689453125 247.1964111328125 328.97686767578125 C 220.8404541015625 291.79766845703125 199.4781494140625 249.624267578125 183.1097412109375 202.4566650390625 C 186.85498046875 201.2774658203125 190.600341796875 200.0982666015625 194.345703125 198.9190673828125M 122.9764404296875 193.71676635742188 C 241.717041015625 193.71676635742188 360.4578857421875 193.71676635742188 479.1986083984375 193.71676635742188 C 479.1986083984375 197.60113525390625 479.1986083984375 201.48556518554688 479.1986083984375 205.36993408203125 C 360.4578857421875 205.36993408203125 241.717041015625 205.36993408203125 122.9764404296875 205.36993408203125 C 122.9764404296875 201.48556518554688 122.9764404296875 197.60113525390625 122.9764404296875 193.71676635742188M 293.3887939453125 120.8843994140625 C 297.41162109375 120.8843994140625 301.4342041015625 120.8843994140625 305.45703125 120.8843994140625 C 305.45703125 147.45086669921875 305.45703125 174.01736450195312 305.45703125 200.58380126953125 C 301.4342041015625 200.58380126953125 297.41162109375 200.58380126953125 293.3887939453125 200.58380126953125 C 293.3887939453125 174.01736450195312 293.3887939453125 147.45086669921875 293.3887939453125 120.8843994140625"/>
  </g>
</svg>
