<?xml version="1.0" ?>
<svg xmlns="http://www.w3.org/2000/svg" version="1.1" width="600" height="600">
  <defs/>
  <g>
    <path stroke-width="0" fill="rgb(0, 0, 0)" opacity="1.0" d="M 377.13330078125 162.67141723632812 C 381.10302734375 162.67141723632812 385.07275390625 162.67141723632812 389.04248046875 162.67141723632812 C 389.04248046875 257.754150390625 389.04248046875 352.83685302734375 389.04248046875 447.9195556640625 C 385.07275390625 447.9195556640625 381.10302734375 447.9195556640625 377.13330078125 447.9195556640625 C 377.13330078125 352.83685302734375 377.13330078125 257.754150390625 377.13330078125 162.67141723632812M 296.0244140625 156.92129516601562 C 355.64111328125 156.92129516601562 415.25732421875 156.92129516601562 474.8740234375 156.92129516601562 C 474.8740234375 261.7929382324219 474.8740234375 366.66455078125 474.8740234375 471.5362548828125 C 471.109375 471.5362548828125 467.34521484375 471.5362548828125 463.58056640625 471.5362548828125 C 463.58056640625 370.4295654296875 463.58056640625 269.3228759765625 463.58056640625 168.21621704101562 C 411.4931640625 168.21621704101562 359.4052734375 168.21621704101562 307.31787109375 168.21621704101562 C 307.31787109375 270.34967041015625 307.31787109375 372.483154296875 307.31787109375 474.61669921875 C 303.55322265625 474.61669921875 299.7890625 474.61669921875 296.0244140625 474.61669921875 C 296.0244140625 368.71820068359375 296.0244140625 262.81976318359375 296.0244140625 156.92129516601562M 301.568359375 295.33544921875 C 357.89990234375 295.33544921875 414.23095703125 295.33544921875 470.56201171875 295.33544921875 C 470.56201171875 299.10040283203125 470.56201171875 302.8653869628906 470.56201171875 306.63037109375 C 414.23095703125 306.63037109375 357.89990234375 306.63037109375 301.568359375 306.63037109375 C 301.568359375 302.8653869628906 301.568359375 299.10040283203125 301.568359375 295.33544921875M 301.568359375 441.142578125 C 357.42041015625 441.142578125 413.2724609375 441.142578125 469.12451171875 441.142578125 C 469.12451171875 445.1129150390625 469.12451171875 449.083251953125 469.12451171875 453.0535888671875 C 413.2724609375 453.0535888671875 357.42041015625 453.0535888671875 301.568359375 453.0535888671875 C 301.568359375 449.083251953125 301.568359375 445.1129150390625 301.568359375 441.142578125M 203.00634765625 301.0855712890625 C 206.77099609375 301.0855712890625 210.53515625 301.0855712890625 214.2998046875 301.0855712890625 C 214.2998046875 360.093017578125 214.2998046875 419.10040283203125 214.2998046875 478.1077880859375 C 210.53515625 478.1077880859375 206.77099609375 478.1077880859375 203.00634765625 478.1077880859375 C 203.00634765625 419.10040283203125 203.00634765625 360.093017578125 203.00634765625 301.0855712890625M 196.640625 123.24188232421875 C 200.3369140625 125.09014892578125 204.03271484375 126.93838500976562 207.72900390625 128.78665161132812 C 203.21142578125 138.096435546875 198.078125 147.95379638671875 192.32861328125 158.35882568359375 C 186.5791015625 168.62692260742188 180.69287109375 178.6212158203125 174.66943359375 188.34170532226562 C 168.783203125 198.06219482421875 163.2392578125 206.61895751953125 158.037109375 214.01199340820312 C 155.025390625 212.43756103515625 152.013671875 210.86309814453125 149.001953125 209.28863525390625 C 154.2041015625 201.8956298828125 159.74853515625 193.13351440429688 165.634765625 183.00228881835938 C 171.52099609375 172.73419189453125 177.2021484375 162.32916259765625 182.677734375 151.7872314453125 C 188.29052734375 141.24530029296875 192.9443359375 131.73019409179688 196.640625 123.24188232421875M 245.921875 166.7786865234375 C 249.8232421875 168.62692260742188 253.724609375 170.47518920898438 257.6259765625 172.32345581054688 C 249.001953125 186.42498779296875 239.0771484375 201.75872802734375 227.85205078125 218.3245849609375 C 216.763671875 234.89047241210938 205.47021484375 250.9771728515625 193.97119140625 266.584716796875 C 182.60888671875 282.0553283691406 171.794921875 295.540771484375 161.52783203125 307.04107666015625 C 158.51611328125 305.3297119140625 155.50439453125 303.61834716796875 152.49267578125 301.90704345703125 C 160.1591796875 293.28179931640625 168.2353515625 283.4244384765625 176.72265625 272.3348388671875 C 185.21044921875 261.1083984375 193.62890625 249.33428955078125 201.9794921875 237.0125732421875 C 210.466796875 224.55392456054688 218.47509765625 212.30062866210938 226.00390625 200.25271606445312 C 233.533203125 188.20480346679688 240.17236328125 177.04678344726562 245.921875 166.7786865234375M 131.54833984375 199.02053833007812 C 134.0810546875 196.76156616210938 136.61328125 194.5025634765625 139.14599609375 192.24359130859375 C 146.4013671875 198.40444946289062 153.72509765625 205.11294555664062 161.1171875 212.36907958984375 C 168.50927734375 219.48828125 175.28564453125 226.6075439453125 181.44580078125 233.72674560546875 C 187.60595703125 240.84600830078125 192.53369140625 247.14373779296875 196.22998046875 252.62008666992188 C 193.697265625 255.42669677734375 191.1650390625 258.23333740234375 188.63232421875 261.0399169921875 C 185.0732421875 255.15289306640625 180.14501953125 248.581298828125 173.84814453125 241.32516479492188 C 167.68798828125 233.93212890625 160.91162109375 226.5390625 153.51953125 219.14605712890625 C 146.26416015625 211.75299072265625 138.9404296875 205.04449462890625 131.54833984375 199.02053833007812M 232.9853515625 253.03082275390625 C 236.33935546875 251.59326171875 239.693359375 250.15573120117188 243.046875 248.71820068359375 C 249.48095703125 256.93267822265625 255.64111328125 265.9001770019531 261.52734375 275.62066650390625 C 267.41357421875 285.34112548828125 272.6845703125 294.78778076171875 277.3388671875 303.96063232421875 C 282.1298828125 313.13348388671875 285.826171875 321.279541015625 288.4267578125 328.39874267578125 C 284.86767578125 330.24700927734375 281.30859375 332.09527587890625 277.74951171875 333.94354248046875 C 275.1484375 326.55047607421875 271.45263671875 318.1990966796875 266.6611328125 308.88934326171875 C 262.0068359375 299.57958984375 256.8046875 290.064453125 251.05517578125 280.343994140625 C 245.3056640625 270.6235046386719 239.2822265625 261.51910400390625 232.9853515625 253.03082275390625M 126.82568359375 299.6480407714844 C 144.7587890625 298.55279541015625 166.11376953125 297.25213623046875 190.89111328125 295.74615478515625 C 215.66845703125 294.103271484375 241.19921875 292.39190673828125 267.482421875 290.6120910644531 C 267.41357421875 294.24017333984375 267.345703125 297.86822509765625 267.27685546875 301.49627685546875 C 242.2255859375 303.41302490234375 217.5849609375 305.3297119140625 193.35498046875 307.2464599609375 C 169.26220703125 309.0262451171875 147.90673828125 310.5322265625 129.28955078125 311.764404296875 C 128.46826171875 307.7255859375 127.64697265625 303.68682861328125 126.82568359375 299.6480407714844M 241.60986328125 344.211669921875 C 244.89501953125 343.2532958984375 248.1806640625 342.294921875 251.4658203125 341.3365478515625 C 257.7626953125 353.5213623046875 263.5810546875 366.801513671875 268.919921875 381.1768798828125 C 274.3955078125 395.415283203125 278.0234375 407.80548095703125 279.802734375 418.347412109375 C 275.9697265625 419.37420654296875 272.13671875 420.4010009765625 268.3037109375 421.4278564453125 C 267.345703125 414.30859375 265.42919921875 406.367919921875 262.55419921875 397.6058349609375 C 259.81640625 388.84368896484375 256.66796875 379.8077392578125 253.10888671875 370.498046875 C 249.54931640625 361.05133056640625 245.71630859375 352.2891845703125 241.60986328125 344.211669921875M 158.037109375 342.5687255859375 C 161.9384765625 343.2532958984375 165.83984375 343.9378662109375 169.7412109375 344.62237548828125 C 166.5927734375 362.968017578125 162.48583984375 380.97149658203125 157.4208984375 398.63262939453125 C 152.49267578125 416.1568603515625 146.6064453125 431.216796875 139.76171875 443.81231689453125 C 139.35107421875 443.401611328125 138.39306640625 442.85400390625 136.88720703125 442.16943359375 C 135.38134765625 441.48486328125 133.87548828125 440.73193359375 132.36962890625 439.910400390625 C 131.0009765625 439.0889892578125 129.8369140625 438.60980224609375 128.87890625 438.472900390625 C 136.13427734375 426.0142822265625 142.08935546875 411.3651123046875 146.7431640625 394.525390625 C 151.3974609375 377.54876708984375 155.162109375 360.2298583984375 158.037109375 342.5687255859375"/>
  </g>
</svg>
