<?xml version="1.0" encoding="utf-8"?>
<svg xmlns="http://www.w3.org/2000/svg" xmlns:ev="http://www.w3.org/2001/xml-events" xmlns:xlink="http://www.w3.org/1999/xlink" version="1.1" baseProfile="full" width="41856.0" height="1776.0" viewBox="67.0 -1634.0 41856.0 1776.0">
<defs/>
<g><path d="M 9051.000000 -1455.000000 C 9049.666667 -1443.666667 9048.666667 -1431.333333 9048.000000 -1418.000000 C 9047.333333 -1404.666667 9046.666667 -1391.333333 9046.000000 -1378.000000 C 9045.333333 -1365.333333 9045.000000 -1353.333333 9045.000000 -1342.000000 C 9045.000000 -1306.000000 9045.000000 -1265.666667 9045.000000 -1221.000000 C 9045.000000 -1176.333333 9044.666667 -1132.333333 9044.000000 -1089.000000 C 9043.333333 -1046.333333 9042.333333 -1008.333333 9041.000000 -975.000000 C 9039.666667 -934.333333 9038.000000 -886.333333 9036.000000 -831.000000 C 9034.666667 -776.333333 9032.333333 -723.000000 9029.000000 -671.000000 C 9025.666667 -619.000000 9020.000000 -575.666667 9012.000000 -541.000000 C 9006.000000 -507.000000 8993.000000 -482.666667 8973.000000 -468.000000 C 8953.000000 -454.000000 8924.000000 -447.000000 8886.000000 -447.000000 C 8861.333333 -447.000000 8834.333333 -448.666667 8805.000000 -452.000000 C 8775.666667 -455.333333 8748.333333 -458.666667 8723.000000 -462.000000 C 8698.333333 -466.000000 8679.666667 -469.333333 8667.000000 -472.000000 C 8667.666667 -490.666667 8668.333333 -509.333333 8669.000000 -528.000000 C 8705.666667 -519.333333 8743.000000 -512.666667 8781.000000 -508.000000 C 8819.000000 -503.333333 8850.000000 -501.000000 8874.000000 -501.000000 C 8903.333333 -501.000000 8924.333333 -504.666667 8937.000000 -512.000000 C 8950.333333 -520.000000 8959.000000 -536.333333 8963.000000 -561.000000 C 8967.666667 -586.333333 8971.666667 -622.333333 8975.000000 -669.000000 C 8978.333333 -715.666667 8981.333333 -766.000000 8984.000000 -820.000000 C 8987.333333 -874.666667 8989.000000 -925.333333 8989.000000 -972.000000 C 8990.333333 -1010.000000 8991.000000 -1051.333333 8991.000000 -1096.000000 C 8991.000000 -1141.333333 8991.000000 -1185.666667 8991.000000 -1229.000000 C 8991.000000 -1272.333333 8991.000000 -1310.000000 8991.000000 -1342.000000 C 8991.000000 -1354.666667 8990.666667 -1367.666667 8990.000000 -1381.000000 C 8989.333333 -1395.000000 8988.666667 -1408.333333 8988.000000 -1421.000000 C 8988.000000 -1433.666667 8986.666667 -1445.000000 8984.000000 -1455.000000 C 9006.333333 -1455.000000 9028.666667 -1455.000000 9051.000000 -1455.000000z M 8289.000000 -1392.000000 C 8287.666667 -1379.333333 8286.666667 -1362.000000 8286.000000 -1340.000000 C 8285.333333 -1318.666667 8285.000000 -1299.000000 8285.000000 -1281.000000 C 8285.000000 -1233.666667 8284.666667 -1175.666667 8284.000000 -1107.000000 C 8283.333333 -1038.333333 8282.666667 -966.666667 8282.000000 -892.000000 C 8281.333333 -817.333333 8281.000000 -745.333333 8281.000000 -676.000000 C 8281.000000 -606.666667 8281.000000 -545.666667 8281.000000 -493.000000 C 8281.000000 -441.000000 8281.666667 -404.000000 8283.000000 -382.000000 C 8285.666667 -326.000000 8289.000000 -277.333333 8293.000000 -236.000000 C 8297.666667 -195.333333 8310.666667 -161.333333 8332.000000 -134.000000 C 8353.333333 -107.333333 8389.333333 -87.333333 8440.000000 -74.000000 C 8491.333333 -60.666667 8563.666667 -54.000000 8657.000000 -54.000000 C 8733.666667 -54.000000 8808.333333 -55.666667 8881.000000 -59.000000 C 8954.333333 -63.000000 9021.000000 -68.000000 9081.000000 -74.000000 C 9141.666667 -80.666667 9190.000000 -87.333333 9226.000000 -94.000000 C 9225.333333 -73.666667 9224.666667 -53.333333 9224.000000 -33.000000 C 9181.333333 -29.000000 9128.666667 -24.333333 9066.000000 -19.000000 C 9003.333333 -14.333333 8936.333333 -10.000000 8865.000000 -6.000000 C 8794.333333 -2.000000 8724.333333 0.000000 8655.000000 0.000000 C 8557.666667 0.000000 8480.666667 -6.666667 8424.000000 -20.000000 C 8368.000000 -33.333333 8326.666667 -54.666667 8300.000000 -84.000000 C 8273.333333 -114.000000 8255.666667 -153.333333 8247.000000 -202.000000 C 8239.000000 -250.666667 8233.666667 -309.333333 8231.000000 -378.000000 C 8231.000000 -405.333333 8230.666667 -444.333333 8230.000000 -495.000000 C 8229.333333 -546.333333 8229.000000 -604.333333 8229.000000 -669.000000 C 8229.000000 -733.666667 8229.000000 -799.666667 8229.000000 -867.000000 C 8229.000000 -934.333333 8229.333333 -997.333333 8230.000000 -1056.000000 C 8230.666667 -1114.666667 8231.000000 -1164.000000 8231.000000 -1204.000000 C 8231.000000 -1244.666667 8231.000000 -1270.333333 8231.000000 -1281.000000 C 8231.000000 -1299.000000 8230.666667 -1316.000000 8230.000000 -1332.000000 C 8229.333333 -1348.000000 8227.000000 -1368.000000 8223.000000 -1392.000000 C 8245.000000 -1392.000000 8267.000000 -1392.000000 8289.000000 -1392.000000z M 7782.000000 -906.000000 C 7815.333333 -906.000000 7845.000000 -907.000000 7871.000000 -909.000000 C 7897.000000 -911.000000 7920.333333 -912.666667 7941.000000 -914.000000 C 7985.666667 -918.000000 8048.333333 -923.666667 8129.000000 -931.000000 C 8209.666667 -939.000000 8301.000000 -948.000000 8403.000000 -958.000000 C 8505.000000 -968.000000 8610.666667 -977.666667 8720.000000 -987.000000 C 8829.333333 -997.000000 8936.000000 -1006.000000 9040.000000 -1014.000000 C 9144.666667 -1022.666667 9238.666667 -1029.000000 9322.000000 -1033.000000 C 9346.000000 -1034.333333 9367.000000 -1035.333333 9385.000000 -1036.000000 C 9403.000000 -1036.666667 9420.333333 -1037.666667 9437.000000 -1039.000000 C 9437.000000 -1016.666667 9437.000000 -994.333333 9437.000000 -972.000000 C 9429.000000 -972.666667 9419.000000 -973.000000 9407.000000 -973.000000 C 9395.000000 -973.000000 9381.666667 -973.000000 9367.000000 -973.000000 C 9352.333333 -973.000000 9337.333333 -973.000000 9322.000000 -973.000000 C 9269.333333 -973.000000 9205.000000 -970.666667 9129.000000 -966.000000 C 9053.666667 -962.000000 8972.000000 -956.333333 8884.000000 -949.000000 C 8796.666667 -942.333333 8707.333333 -934.666667 8616.000000 -926.000000 C 8524.666667 -918.000000 8436.333333 -909.333333 8351.000000 -900.000000 C 8265.666667 -891.333333 8188.000000 -883.000000 8118.000000 -875.000000 C 8048.666667 -867.666667 7991.666667 -861.333333 7947.000000 -856.000000 C 7927.666667 -853.333333 7909.333333 -851.000000 7892.000000 -849.000000 C 7874.666667 -847.666667 7857.666667 -845.666667 7841.000000 -843.000000 C 7824.333333 -840.333333 7807.000000 -837.666667 7789.000000 -835.000000 C 7786.666667 -858.666667 7784.333333 -882.333333 7782.000000 -906.000000z "/>
</g></svg>
