<?xml version="1.0" ?>
<svg xmlns="http://www.w3.org/2000/svg" version="1.1" width="600" height="600">
  <defs/>
  <g>
    <path stroke-width="0" fill="rgb(0, 0, 0)" opacity="1.0" d="M 132.2335205078125 168.75860595703125 C 246.0755615234375 168.75860595703125 359.917724609375 168.75860595703125 473.759765625 168.75860595703125 C 473.759765625 172.75860595703125 473.759765625 176.75860595703125 473.759765625 180.75860595703125 C 359.917724609375 180.75860595703125 246.0755615234375 180.75860595703125 132.2335205078125 180.75860595703125 C 132.2335205078125 176.75860595703125 132.2335205078125 172.75860595703125 132.2335205078125 168.75860595703125M 168.43408203125 234.75860595703125 C 258.4871826171875 234.75860595703125 348.54052734375 234.75860595703125 438.593505859375 234.75860595703125 C 438.593505859375 238.55172729492188 438.593505859375 242.34481811523438 438.593505859375 246.137939453125 C 348.54052734375 246.137939453125 258.4871826171875 246.137939453125 168.43408203125 246.137939453125 C 168.43408203125 242.34481811523438 168.43408203125 238.55172729492188 168.43408203125 234.75860595703125M 147.748046875 290.4137878417969 C 250.764404296875 290.4137878417969 353.78076171875 290.4137878417969 456.79736328125 290.4137878417969 C 456.79736328125 312.75860595703125 456.79736328125 335.10345458984375 456.79736328125 357.4482421875 C 452.935791015625 357.4482421875 449.07470703125 357.4482421875 445.213134765625 357.4482421875 C 445.213134765625 339.03448486328125 445.213134765625 320.62066650390625 445.213134765625 302.2069091796875 C 349.91943359375 302.2069091796875 254.6258544921875 302.2069091796875 159.3321533203125 302.2069091796875 C 159.3321533203125 320.62066650390625 159.3321533203125 339.03448486328125 159.3321533203125 357.4482421875 C 155.4708251953125 357.4482421875 151.609375 357.4482421875 147.748046875 357.4482421875 C 147.748046875 335.10345458984375 147.748046875 312.75860595703125 147.748046875 290.4137878417969M 295.85986328125 121.7930908203125 C 299.859375 121.7930908203125 303.858642578125 121.7930908203125 307.85791015625 121.7930908203125 C 307.85791015625 161.03445434570312 307.85791015625 200.27587890625 307.85791015625 239.5172119140625 C 303.858642578125 239.5172119140625 299.859375 239.5172119140625 295.85986328125 239.5172119140625 C 295.85986328125 200.27587890625 295.85986328125 161.03445434570312 295.85986328125 121.7930908203125M 341.162353515625 329.310302734375 C 345.02392578125 329.310302734375 348.88525390625 329.310302734375 352.74658203125 329.310302734375 C 352.74658203125 368.3448486328125 352.74658203125 407.3792724609375 352.74658203125 446.413818359375 C 352.74658203125 451.5172119140625 353.98779296875 454.75860595703125 356.469970703125 456.137939453125 C 358.952392578125 457.6551513671875 364.6064453125 458.413818359375 373.4326171875 458.413818359375 C 375.501220703125 458.413818359375 379.50048828125 458.413818359375 385.430419921875 458.413818359375 C 391.3603515625 458.413818359375 397.9111328125 458.413818359375 405.08203125 458.413818359375 C 412.25341796875 458.413818359375 419.0107421875 458.413818359375 425.3544921875 458.413818359375 C 431.6982421875 458.413818359375 436.18017578125 458.413818359375 438.80029296875 458.413818359375 C 444.1787109375 458.413818359375 448.177978515625 457.10345458984375 450.79833984375 454.4827880859375 C 453.41845703125 452.0 455.34912109375 446.75860595703125 456.59033203125 438.75860595703125 C 457.83154296875 430.6207275390625 458.52099609375 418.3448486328125 458.658935546875 401.9310302734375 C 459.76220703125 402.75860595703125 460.9345703125 403.5172119140625 462.17578125 404.2069091796875 C 463.5546875 404.75860595703125 464.93359375 405.310302734375 466.31298828125 405.862060546875 C 467.82958984375 406.413818359375 469.14013671875 406.96551513671875 470.2431640625 407.5172119140625 C 469.69140625 424.4827880859375 468.51953125 437.4482421875 466.7265625 446.413818359375 C 465.07177734375 455.3792724609375 462.17578125 461.5172119140625 458.03857421875 464.82757568359375 C 454.0390625 468.137939453125 447.90234375 469.7930908203125 439.6279296875 469.7930908203125 C 438.11083984375 469.7930908203125 434.1806640625 469.7930908203125 427.8369140625 469.7930908203125 C 421.4931640625 469.7930908203125 414.390869140625 469.7930908203125 406.5302734375 469.7930908203125 C 398.66943359375 469.7930908203125 391.63623046875 469.7930908203125 385.430419921875 469.7930908203125 C 379.224609375 469.7930908203125 375.501220703125 469.7930908203125 374.260009765625 469.7930908203125 C 365.7099609375 469.7930908203125 359.021240234375 469.17242431640625 354.194580078125 467.9310302734375 C 349.505615234375 466.82757568359375 346.126953125 464.6207275390625 344.05859375 461.310302734375 C 342.1279296875 458.0 341.162353515625 453.03448486328125 341.162353515625 446.413818359375 C 341.162353515625 407.3792724609375 341.162353515625 368.3448486328125 341.162353515625 329.310302734375M 243.110595703125 330.137939453125 C 247.10986328125 330.137939453125 251.1092529296875 330.137939453125 255.1085205078125 330.137939453125 C 253.1778564453125 350.68963623046875 249.8681640625 369.03448486328125 245.17919921875 385.17242431640625 C 240.6282958984375 401.17242431640625 233.8707275390625 415.17242431640625 224.9068603515625 427.17242431640625 C 216.080810546875 439.17242431640625 204.2899169921875 449.4482421875 189.5338134765625 458.0 C 174.9156494140625 466.689697265625 156.505126953125 473.7930908203125 134.3021240234375 479.310302734375 C 134.0262451171875 478.3448486328125 133.4056396484375 477.24139404296875 132.4403076171875 476.0 C 131.47509765625 474.89654541015625 130.4407958984375 473.72412109375 129.33740234375 472.4827880859375 C 128.3721923828125 471.24139404296875 127.4757080078125 470.2069091796875 126.6483154296875 469.3792724609375 C 148.71337890625 464.137939453125 166.84814453125 457.586181640625 181.052490234375 449.72412109375 C 195.3948974609375 441.72412109375 206.772216796875 432.0689697265625 215.1844482421875 420.75860595703125 C 223.734619140625 409.310302734375 230.078369140625 396.137939453125 234.215576171875 381.24139404296875 C 238.4908447265625 366.2069091796875 241.4556884765625 349.17242431640625 243.110595703125 330.137939453125"/>
  </g>
</svg>
