<?xml version="1.0" ?>
<svg xmlns="http://www.w3.org/2000/svg" version="1.1" width="600" height="600">
  <defs/>
  <g>
    <path stroke-width="0" fill="rgb(0, 0, 0)" opacity="1.0" d="M 143.58447265625 208.54922485351562 C 252.235107421875 208.54922485351562 360.88623046875 208.54922485351562 469.537109375 208.54922485351562 C 469.537109375 234.24871826171875 469.537109375 259.94818115234375 469.537109375 285.64764404296875 C 465.531005859375 285.64764404296875 461.524658203125 285.64764404296875 457.5185546875 285.64764404296875 C 457.5185546875 263.885986328125 457.5185546875 242.12432861328125 457.5185546875 220.3626708984375 C 356.8798828125 220.3626708984375 256.241455078125 220.3626708984375 155.60302734375 220.3626708984375 C 155.60302734375 242.12432861328125 155.60302734375 263.885986328125 155.60302734375 285.64764404296875 C 151.5966796875 285.64764404296875 147.59033203125 285.64764404296875 143.58447265625 285.64764404296875 C 143.58447265625 259.94818115234375 143.58447265625 234.24871826171875 143.58447265625 208.54922485351562M 161.6123046875 302.43524169921875 C 251.751708984375 302.43524169921875 341.891357421875 302.43524169921875 432.03076171875 302.43524169921875 C 432.03076171875 306.373046875 432.03076171875 310.3109130859375 432.03076171875 314.24871826171875 C 341.891357421875 314.24871826171875 251.751708984375 314.24871826171875 161.6123046875 314.24871826171875 C 161.6123046875 310.3109130859375 161.6123046875 306.373046875 161.6123046875 302.43524169921875M 428.92236328125 302.43524169921875 C 432.79052734375 302.43524169921875 436.658447265625 302.43524169921875 440.526611328125 302.43524169921875 C 440.526611328125 302.43524169921875 440.526611328125 302.9188232421875 440.526611328125 303.885986328125 C 440.526611328125 304.71502685546875 440.526611328125 305.82037353515625 440.526611328125 307.20208740234375 C 440.526611328125 308.445556640625 440.526611328125 309.48187255859375 440.526611328125 310.3109130859375 C 438.5927734375 346.6494140625 436.589599609375 375.8031005859375 434.517333984375 397.77203369140625 C 432.445068359375 419.602783203125 429.95849609375 436.18310546875 427.0576171875 447.512939453125 C 424.294677734375 458.70465087890625 420.841064453125 466.442138671875 416.69677734375 470.72540283203125 C 413.933837890625 473.9033203125 410.618408203125 475.975830078125 406.750244140625 476.9429931640625 C 403.020263671875 478.04833984375 398.1162109375 478.73919677734375 392.037841796875 479.0155029296875 C 385.545166015625 479.2918701171875 376.08203125 479.2227783203125 363.649169921875 478.80828857421875 C 351.216064453125 478.393798828125 337.9541015625 477.70294189453125 323.86328125 476.7357177734375 C 323.587158203125 474.8013916015625 323.103515625 472.79791259765625 322.412841796875 470.72540283203125 C 321.860107421875 468.791015625 320.893310546875 466.92572021484375 319.51171875 465.1295166015625 C 335.1220703125 466.51123046875 349.558349609375 467.3402099609375 362.8203125 467.6165771484375 C 376.08203125 468.0311279296875 384.854248046875 468.23834228515625 389.13671875 468.23834228515625 C 393.695556640625 468.23834228515625 397.3564453125 467.9620361328125 400.119384765625 467.4093017578125 C 402.882080078125 466.99481201171875 405.230712890625 465.82037353515625 407.164794921875 463.885986328125 C 410.480224609375 460.4317626953125 413.4501953125 453.3160400390625 416.074951171875 442.538818359375 C 418.837890625 431.62347412109375 421.1865234375 415.18133544921875 423.120361328125 393.21240234375 C 425.192626953125 371.1053466796875 427.12646484375 341.744384765625 428.92236328125 305.1295166015625 C 428.92236328125 304.2314453125 428.92236328125 303.33331298828125 428.92236328125 302.43524169921875M 285.321044921875 237.97927856445312 C 289.3271484375 237.97927856445312 293.33349609375 237.97927856445312 297.339599609375 237.97927856445312 C 295.9580078125 263.1260681152344 293.8857421875 286.4766845703125 291.123046875 308.03106689453125 C 288.360107421875 329.44732666015625 283.801513671875 349.0673828125 277.44677734375 366.89117431640625 C 271.092041015625 384.57684326171875 262.181640625 400.535400390625 250.715576171875 414.766845703125 C 239.249755859375 428.998291015625 224.330078125 441.3643798828125 205.956787109375 451.86529541015625 C 187.7216796875 462.5042724609375 165.135009765625 471.278076171875 138.19677734375 478.1865234375 C 137.64404296875 477.2193603515625 136.88427734375 476.114013671875 135.91748046875 474.8704833984375 C 134.9501953125 473.626953125 133.9833984375 472.3834228515625 133.016357421875 471.139892578125 C 132.1875 470.0345458984375 131.3583984375 469.0673828125 130.52978515625 468.23834228515625 C 157.053466796875 461.606201171875 179.225830078125 453.3160400390625 197.04638671875 443.367919921875 C 215.00537109375 433.419677734375 229.57958984375 421.67529296875 240.769287109375 408.13470458984375 C 251.958984375 394.4559326171875 260.52392578125 379.050048828125 266.464111328125 361.9171142578125 C 272.404541015625 344.78411865234375 276.756103515625 325.85491943359375 279.518798828125 305.1295166015625 C 282.28173828125 284.4041442871094 284.2158203125 262.0207214355469 285.321044921875 237.97927856445312M 436.589599609375 124.40414428710938 C 440.1123046875 126.4075927734375 443.635009765625 128.41107177734375 447.15771484375 130.41448974609375 C 439.007080078125 143.67874145507812 429.613037109375 157.70291137695312 418.97607421875 172.48703002929688 C 408.3388671875 187.13296508789062 398.392578125 199.77545166015625 389.13671875 210.41448974609375 C 386.23583984375 208.41107177734375 383.334716796875 206.4075927734375 380.43359375 204.40414428710938 C 386.511962890625 197.35751342773438 393.073974609375 189.13644409179688 400.119384765625 179.74093627929688 C 407.164794921875 170.20724487304688 413.86474609375 160.6044921875 420.219482421875 150.93264770507812 C 426.573974609375 141.26080322265625 432.03076171875 132.41793823242188 436.589599609375 124.40414428710938M 167.20703125 133.73056030273438 C 170.522705078125 132.00344848632812 173.838134765625 130.27633666992188 177.153564453125 128.54922485351562 C 183.23193359375 135.18133544921875 189.172119140625 142.50433349609375 194.974365234375 150.51812744140625 C 200.7763671875 158.39376831054688 206.094970703125 166.20034790039062 210.929931640625 173.93783569335938 C 215.903076171875 181.537109375 219.771240234375 188.23834228515625 222.5341796875 194.04144287109375 C 219.21875 196.18307495117188 215.903076171875 198.32470703125 212.587646484375 200.46630859375 C 209.686767578125 194.3868408203125 205.818603515625 187.5474853515625 200.983642578125 179.94818115234375 C 196.1484375 172.210693359375 190.829833984375 164.2659912109375 185.02783203125 156.11398315429688 C 179.225830078125 147.82382202148438 173.285400390625 140.36270141601562 167.20703125 133.73056030273438M 275.37451171875 124.40414428710938 C 278.68994140625 123.36785888671875 282.00537109375 122.33160400390625 285.321044921875 121.29531860351562 C 292.22802734375 132.76339721679688 298.720947265625 145.1986083984375 304.79931640625 158.60104370117188 C 310.877685546875 172.00344848632812 314.884033203125 183.33334350585938 316.81787109375 192.59066772460938 C 313.3642578125 193.90328979492188 309.910888671875 195.21588134765625 306.45703125 196.52850341796875 C 305.07568359375 190.1727294921875 302.796142578125 182.8497314453125 299.618896484375 174.5595703125 C 296.441650390625 166.13125610351562 292.711669921875 157.56475830078125 288.42919921875 148.860107421875 C 284.284912109375 140.01727294921875 279.933349609375 131.86529541015625 275.37451171875 124.40414428710938"/>
  </g>
</svg>
