<?xml version="1.0" ?>
<svg xmlns="http://www.w3.org/2000/svg" version="1.1" width="600" height="600">
  <defs/>
  <g>
    <path stroke-width="0" fill="rgb(0, 0, 0)" opacity="1.0" d="M 220.182861328125 433.413818359375 C 254.10791015625 419.89654541015625 282.861328125 402.3792724609375 306.443359375 380.862060546875 C 330.025634765625 359.2069091796875 349.470458984375 336.72412109375 364.778076171875 313.413818359375 C 380.361572265625 289.4137878417969 392.083740234375 265.3448486328125 399.9443359375 241.2069091796875 C 407.804931640625 217.0689697265625 413.459228515625 194.7930908203125 416.90673828125 174.37930297851562 C 417.1826171875 173.13790893554688 417.45849609375 170.586181640625 417.734375 166.72412109375 C 418.14794921875 162.862060546875 418.35498046875 159.75860595703125 418.35498046875 157.41378784179688 C 423.250732421875 158.03448486328125 428.146240234375 158.6551513671875 433.0419921875 159.27584838867188 C 432.07666015625 162.17239379882812 431.2490234375 165.27584838867188 430.5595703125 168.58621215820312 C 429.8701171875 171.89654541015625 429.387451171875 174.24139404296875 429.111572265625 175.62066650390625 C 424.83642578125 199.75860595703125 418.492919921875 224.24139404296875 410.08056640625 249.0689697265625 C 401.66796875 273.75860595703125 390.153076171875 297.3448486328125 375.534912109375 319.82757568359375 C 359.951416015625 343.96551513671875 340.506591796875 366.862060546875 317.2001953125 388.5172119140625 C 293.893798828125 410.03448486328125 265.416259765625 428.17242431640625 231.766845703125 442.9310302734375 C 227.905517578125 439.75860595703125 224.044189453125 436.586181640625 220.182861328125 433.413818359375M 179.224365234375 165.27584838867188 C 183.2236328125 171.0689697265625 188.188232421875 178.862060546875 194.118408203125 188.6551513671875 C 200.186279296875 198.31033325195312 206.461181640625 208.6551513671875 212.942626953125 219.68963623046875 C 219.424072265625 230.586181640625 225.423095703125 240.862060546875 230.939453125 250.51724243164062 C 236.455810546875 260.17242431640625 240.937744140625 268.03448486328125 244.385498046875 274.10345458984375 C 240.730712890625 276.2413635253906 237.076416015625 278.3793029785156 233.421875 280.5172424316406 C 229.97412109375 273.3448181152344 225.285400390625 264.586181640625 219.355224609375 254.24139404296875 C 213.563232421875 243.89654541015625 207.357421875 233.27587890625 200.73779296875 222.37930297851562 C 194.118408203125 211.34481811523438 187.9814453125 201.27584838867188 182.327392578125 192.17242431640625 C 176.673095703125 182.9310302734375 171.984375 175.82757568359375 168.2607421875 170.862060546875 C 171.91552734375 169.0 175.56982421875 167.13790893554688 179.224365234375 165.27584838867188"/>
  </g>
</svg>
