<?xml version="1.0" encoding="utf-8"?>
<svg xmlns="http://www.w3.org/2000/svg" xmlns:ev="http://www.w3.org/2001/xml-events" xmlns:xlink="http://www.w3.org/1999/xlink" version="1.1" baseProfile="full" width="5184.0" height="1536.0" viewBox="361.0 -1473.0 5184.0 1536.0">
<defs/>
<g><path d="M 4731.000000 -1250.000000 C 4777.000000 -1240.666667 4833.333333 -1233.666667 4900.000000 -1229.000000 C 4966.666667 -1225.000000 5036.333333 -1223.000000 5109.000000 -1223.000000 C 5182.333333 -1223.000000 5252.000000 -1225.333333 5318.000000 -1230.000000 C 5384.666667 -1235.333333 5440.000000 -1242.000000 5484.000000 -1250.000000 C 5484.000000 -1229.000000 5484.000000 -1208.000000 5484.000000 -1187.000000 C 5440.000000 -1181.666667 5384.666667 -1177.333333 5318.000000 -1174.000000 C 5252.000000 -1170.666667 5182.333333 -1169.000000 5109.000000 -1169.000000 C 5036.333333 -1169.000000 4966.333333 -1170.666667 4899.000000 -1174.000000 C 4831.666667 -1177.333333 4775.666667 -1181.666667 4731.000000 -1187.000000 C 4731.000000 -1208.000000 4731.000000 -1229.000000 4731.000000 -1250.000000z M 4727.000000 -505.000000 C 4717.000000 -467.666667 4709.000000 -433.333333 4703.000000 -402.000000 C 4697.000000 -370.666667 4694.000000 -341.666667 4694.000000 -315.000000 C 4694.000000 -291.666667 4698.333333 -267.666667 4707.000000 -243.000000 C 4716.333333 -219.000000 4734.000000 -196.333333 4760.000000 -175.000000 C 4786.666667 -154.333333 4825.000000 -137.666667 4875.000000 -125.000000 C 4925.000000 -112.333333 4991.000000 -106.000000 5073.000000 -106.000000 C 5159.666667 -106.000000 5242.000000 -110.000000 5320.000000 -118.000000 C 5398.000000 -126.666667 5472.333333 -139.333333 5543.000000 -156.000000 C 5543.666667 -134.666667 5544.333333 -113.333333 5545.000000 -92.000000 C 5487.666667 -79.333333 5419.000000 -69.000000 5339.000000 -61.000000 C 5259.000000 -53.666667 5173.333333 -50.000000 5082.000000 -50.000000 C 4926.000000 -50.000000 4813.333333 -73.000000 4744.000000 -119.000000 C 4675.333333 -165.000000 4641.000000 -229.000000 4641.000000 -311.000000 C 4641.000000 -336.333333 4643.333333 -365.333333 4648.000000 -398.000000 C 4653.333333 -430.666667 4660.333333 -469.000000 4669.000000 -513.000000 C 4688.333333 -510.333333 4707.666667 -507.666667 4727.000000 -505.000000z M 4295.000000 -1417.000000 C 4292.333333 -1409.000000 4289.666667 -1400.666667 4287.000000 -1392.000000 C 4285.000000 -1383.333333 4282.666667 -1374.000000 4280.000000 -1364.000000 C 4277.333333 -1354.666667 4274.666667 -1344.000000 4272.000000 -1332.000000 C 4263.333333 -1286.000000 4254.000000 -1237.666667 4244.000000 -1187.000000 C 4234.666667 -1137.000000 4225.666667 -1085.333333 4217.000000 -1032.000000 C 4209.000000 -978.666667 4201.666667 -925.000000 4195.000000 -871.000000 C 4189.000000 -817.666667 4184.000000 -765.000000 4180.000000 -713.000000 C 4176.000000 -661.666667 4174.000000 -611.666667 4174.000000 -563.000000 C 4174.000000 -488.333333 4176.333333 -420.000000 4181.000000 -358.000000 C 4185.666667 -296.000000 4192.333333 -227.333333 4201.000000 -152.000000 C 4213.666667 -187.333333 4228.000000 -227.333333 4244.000000 -272.000000 C 4260.000000 -317.333333 4276.000000 -361.666667 4292.000000 -405.000000 C 4308.000000 -448.333333 4321.666667 -485.333333 4333.000000 -516.000000 C 4347.333333 -506.000000 4361.666667 -496.000000 4376.000000 -486.000000 C 4362.000000 -448.666667 4345.333333 -404.666667 4326.000000 -354.000000 C 4306.666667 -303.333333 4289.000000 -254.333333 4273.000000 -207.000000 C 4257.000000 -159.666667 4246.333333 -122.666667 4241.000000 -96.000000 C 4238.333333 -83.333333 4236.000000 -69.666667 4234.000000 -55.000000 C 4232.666667 -40.333333 4232.666667 -26.333333 4234.000000 -13.000000 C 4235.333333 -4.333333 4236.333333 5.000000 4237.000000 15.000000 C 4238.333333 25.666667 4239.666667 34.000000 4241.000000 40.000000 C 4223.333333 42.000000 4205.666667 44.000000 4188.000000 46.000000 C 4168.666667 -25.333333 4152.333333 -112.333333 4139.000000 -215.000000 C 4126.333333 -317.666667 4120.000000 -433.666667 4120.000000 -563.000000 C 4120.000000 -631.666667 4123.333333 -702.333333 4130.000000 -775.000000 C 4137.333333 -848.333333 4146.333333 -920.000000 4157.000000 -990.000000 C 4168.333333 -1060.666667 4179.000000 -1126.000000 4189.000000 -1186.000000 C 4199.666667 -1246.666667 4208.000000 -1298.000000 4214.000000 -1340.000000 C 4216.666667 -1358.000000 4218.666667 -1373.666667 4220.000000 -1387.000000 C 4221.333333 -1400.333333 4222.000000 -1413.000000 4222.000000 -1425.000000 C 4246.333333 -1422.333333 4270.666667 -1419.666667 4295.000000 -1417.000000z "/>
</g></svg>
