<?xml version="1.0" ?>
<svg xmlns="http://www.w3.org/2000/svg" version="1.1" width="600" height="600">
  <defs/>
  <g>
    <path stroke-width="0" fill="rgb(0, 0, 0)" opacity="1.0" d="M 228.346435546875 241.94036865234375 C 277.317138671875 241.94036865234375 326.2880859375 241.94036865234375 375.2589111328125 241.94036865234375 C 375.2589111328125 245.7935791015625 375.2589111328125 249.64678955078125 375.2589111328125 253.5 C 326.2880859375 253.5 277.317138671875 253.5 228.346435546875 253.5 C 228.346435546875 249.64678955078125 228.346435546875 245.7935791015625 228.346435546875 241.94036865234375M 128.478759765625 461.9862060546875 C 244.440673828125 461.9862060546875 360.402587890625 461.9862060546875 476.3643798828125 461.9862060546875 C 476.3643798828125 465.7706298828125 476.3643798828125 469.5550537109375 476.3643798828125 473.3394775390625 C 360.402587890625 473.3394775390625 244.440673828125 473.3394775390625 128.478759765625 473.3394775390625 C 128.478759765625 469.5550537109375 128.478759765625 465.7706298828125 128.478759765625 461.9862060546875M 152.620361328125 142.4449462890625 C 193.956787109375 142.4449462890625 235.29296875 142.4449462890625 276.62939453125 142.4449462890625 C 276.62939453125 146.29815673828125 276.62939453125 150.15139770507812 276.62939453125 154.00457763671875 C 235.29296875 154.00457763671875 193.956787109375 154.00457763671875 152.620361328125 154.00457763671875 C 152.620361328125 150.15139770507812 152.620361328125 146.29815673828125 152.620361328125 142.4449462890625M 272.708984375 142.4449462890625 C 273.396728515625 142.4449462890625 274.08447265625 142.4449462890625 274.7723388671875 142.4449462890625 C 275.66650390625 142.16970825195312 276.560546875 141.89450073242188 277.454833984375 141.6192626953125 C 279.9996337890625 143.13302612304688 282.54443359375 144.64678955078125 285.0892333984375 146.16055297851562 C 277.6611328125 164.60092163085938 267.963134765625 181.94036865234375 255.99560546875 198.17889404296875 C 244.16552734375 214.41741943359375 230.9599609375 229.27981567382812 216.378662109375 242.76605224609375 C 201.93505859375 256.2522888183594 186.8724365234375 268.087158203125 171.190673828125 278.2706298828125 C 155.646728515625 288.4541320800781 140.51513671875 296.98626708984375 125.79638671875 303.8669738769531 C 124.9710693359375 302.4908447265625 123.8017578125 300.8394470214844 122.2886962890625 298.912841796875 C 120.9130859375 296.8486328125 119.53759765625 295.3348693847656 118.161865234375 294.37158203125 C 132.7431640625 288.17889404296875 147.5994873046875 280.1284484863281 162.73095703125 270.2201843261719 C 178.0 260.31195068359375 192.64990234375 248.889892578125 206.680908203125 235.95413208007812 C 220.849365234375 223.01837158203125 233.642333984375 208.98165893554688 245.0596923828125 193.84402465820312 C 256.6146240234375 178.7064208984375 265.8310546875 162.67431640625 272.708984375 145.74771118164062 C 272.708984375 144.64678955078125 272.708984375 143.5458984375 272.708984375 142.4449462890625M 316.246337890625 127.37615966796875 C 327.388427734375 150.63302612304688 341.694580078125 172.99542236328125 359.16455078125 194.46331787109375 C 376.7720947265625 215.7935791015625 396.236572265625 234.784423828125 417.55810546875 251.435791015625 C 439.017333984375 268.087158203125 461.095458984375 280.9541320800781 483.7926025390625 290.03668212890625 C 482.8297119140625 290.7247619628906 481.7979736328125 291.6192626953125 480.697509765625 292.7201843261719 C 479.5970458984375 293.82110595703125 478.5653076171875 294.9908447265625 477.6024169921875 296.2293701171875 C 476.777099609375 297.33026123046875 475.9517822265625 298.43121337890625 475.1263427734375 299.5321044921875 C 452.704345703125 289.4862365722656 430.7637939453125 275.86236572265625 409.3046875 258.6605529785156 C 387.9830322265625 241.45870971679688 368.44970703125 221.98626708984375 350.7047119140625 200.24310302734375 C 333.09716796875 178.36239624023438 318.4471435546875 155.44955444335938 306.754638671875 131.50457763671875 C 309.9185791015625 130.12844848632812 313.0823974609375 128.75228881835938 316.246337890625 127.37615966796875M 150.3505859375 183.3165283203125 C 152.551513671875 181.04586791992188 154.75244140625 178.77523803710938 156.953369140625 176.50457763671875 C 165.20703125 181.04586791992188 173.3916015625 186.27523803710938 181.507568359375 192.19265747070312 C 189.76123046875 198.11007690429688 197.395751953125 204.23394775390625 204.4111328125 210.564208984375 C 211.4266357421875 216.75689697265625 216.8602294921875 222.60552978515625 220.7119140625 228.110107421875 C 218.6484375 230.587158203125 216.5850830078125 233.064208984375 214.521728515625 235.54129028320312 C 207.9189453125 227.697265625 198.56494140625 218.82110595703125 186.459716796875 208.912841796875 C 174.4921875 199.00457763671875 162.455810546875 190.47247314453125 150.3505859375 183.3165283203125M 414.0504150390625 129.85321044921875 C 417.351806640625 132.0550537109375 420.6531982421875 134.25689697265625 423.95458984375 136.45870971679688 C 414.1878662109375 146.50457763671875 402.7706298828125 156.82568359375 389.7025146484375 167.42202758789062 C 376.6343994140625 178.01837158203125 364.735595703125 187.16970825195312 354.006103515625 194.87615966796875 C 351.32373046875 192.74310302734375 348.641357421875 190.610107421875 345.9588623046875 188.47708129882812 C 353.1119384765625 183.24771118164062 360.884033203125 177.19265747070312 369.275146484375 170.31192016601562 C 377.8037109375 163.43118286132812 385.9884033203125 156.412841796875 393.829345703125 149.25689697265625 C 401.8076171875 142.10092163085938 408.548095703125 135.63302612304688 414.0504150390625 129.85321044921875M 458.4130859375 176.91741943359375 C 461.6456298828125 179.32568359375 464.8782958984375 181.73394775390625 468.1109619140625 184.1422119140625 C 458.34423828125 193.912841796875 446.789306640625 203.958740234375 433.4461669921875 214.27981567382812 C 420.10302734375 224.60092163085938 407.7227783203125 233.3394775390625 396.3052978515625 240.49542236328125 C 393.6917724609375 238.36236572265625 391.078125 236.2293701171875 388.4644775390625 234.0963134765625 C 395.755126953125 229.00457763671875 403.7335205078125 223.15594482421875 412.399658203125 216.55047607421875 C 421.203369140625 209.9449462890625 429.6632080078125 203.20184326171875 437.779296875 196.32110595703125 C 446.03271484375 189.30276489257812 452.9107666015625 182.83486938476562 458.4130859375 176.91741943359375M 210.1885986328125 307.37615966796875 C 210.1885986328125 330.49542236328125 210.1885986328125 353.61468505859375 210.1885986328125 376.73394775390625 C 271.952392578125 376.73394775390625 333.7161865234375 376.73394775390625 395.47998046875 376.73394775390625 C 395.47998046875 353.61468505859375 395.47998046875 330.49542236328125 395.47998046875 307.37615966796875 C 333.7161865234375 307.37615966796875 271.952392578125 307.37615966796875 210.1885986328125 307.37615966796875M 198.220947265625 295.8165283203125 C 267.963134765625 295.8165283203125 337.7054443359375 295.8165283203125 407.4476318359375 295.8165283203125 C 407.4476318359375 326.6422119140625 407.4476318359375 357.4678955078125 407.4476318359375 388.2935791015625 C 337.7054443359375 388.2935791015625 267.963134765625 388.2935791015625 198.220947265625 388.2935791015625 C 198.220947265625 357.4678955078125 198.220947265625 326.6422119140625 198.220947265625 295.8165283203125M 221.12451171875 395.7247314453125 C 224.7010498046875 394.5550537109375 228.277587890625 393.38531494140625 231.85400390625 392.215576171875 C 237.90673828125 401.9862060546875 243.5465087890625 412.8577880859375 248.7738037109375 424.83026123046875 C 254.1385498046875 436.6651611328125 257.990234375 446.91741943359375 260.3287353515625 455.587158203125 C 256.6834716796875 457.0321044921875 253.0380859375 458.47705078125 249.392822265625 459.9219970703125 C 246.916748046875 451.2523193359375 243.1337890625 440.8624267578125 238.044189453125 428.7523193359375 C 232.95458984375 416.50457763671875 227.314697265625 405.49542236328125 221.12451171875 395.7247314453125M 374.43359375 390.1513671875 C 378.28515625 392.0091552734375 382.1368408203125 393.866943359375 385.9884033203125 395.7247314453125 C 380.2109375 407.14678955078125 374.0208740234375 418.843994140625 367.4180908203125 430.8165283203125 C 360.815185546875 442.78900146484375 354.487548828125 453.3165283203125 348.4349365234375 462.3990478515625 C 345.2711181640625 460.67889404296875 342.1072998046875 458.958740234375 338.9434814453125 457.238525390625 C 343.0701904296875 451.458740234375 347.4033203125 444.5780029296875 351.9427490234375 436.5963134765625 C 356.482177734375 428.61468505859375 360.677734375 420.564208984375 364.529296875 412.4449462890625 C 368.5185546875 404.1881103515625 371.8199462890625 396.75689697265625 374.43359375 390.1513671875"/>
  </g>
</svg>
