<?xml version="1.0" encoding="utf-8"?>
<svg xmlns="http://www.w3.org/2000/svg" xmlns:ev="http://www.w3.org/2001/xml-events" xmlns:xlink="http://www.w3.org/1999/xlink" version="1.1" baseProfile="full" width="41856.0" height="1776.0" viewBox="67.0 -1634.0 41856.0 1776.0">
<defs/>
<g><path d="M 33187.000000 -442.000000 C 33447.666667 -442.000000 33708.333333 -442.000000 33969.000000 -442.000000 C 33969.000000 -423.333333 33969.000000 -404.666667 33969.000000 -386.000000 C 33708.333333 -386.000000 33447.666667 -386.000000 33187.000000 -386.000000 C 33187.000000 -404.666667 33187.000000 -423.333333 33187.000000 -442.000000z M 33105.000000 -165.000000 C 33402.000000 -165.000000 33699.000000 -165.000000 33996.000000 -165.000000 C 33996.000000 -146.333333 33996.000000 -127.666667 33996.000000 -109.000000 C 33699.000000 -109.000000 33402.000000 -109.000000 33105.000000 -109.000000 C 33105.000000 -127.666667 33105.000000 -146.333333 33105.000000 -165.000000z M 33295.000000 -428.000000 C 33314.000000 -428.000000 33333.000000 -428.000000 33352.000000 -428.000000 C 33352.000000 -329.000000 33352.000000 -230.000000 33352.000000 -131.000000 C 33333.000000 -131.000000 33314.000000 -131.000000 33295.000000 -131.000000 C 33295.000000 -230.000000 33295.000000 -329.000000 33295.000000 -428.000000z M 33249.000000 -1430.000000 C 33460.000000 -1430.000000 33671.000000 -1430.000000 33882.000000 -1430.000000 C 33882.000000 -1324.666667 33882.000000 -1219.333333 33882.000000 -1114.000000 C 33863.666667 -1114.000000 33845.333333 -1114.000000 33827.000000 -1114.000000 C 33827.000000 -1201.000000 33827.000000 -1288.000000 33827.000000 -1375.000000 C 33634.333333 -1375.000000 33441.666667 -1375.000000 33249.000000 -1375.000000 C 33249.000000 -1393.333333 33249.000000 -1411.666667 33249.000000 -1430.000000z M 33176.000000 -1144.000000 C 33455.666667 -1144.000000 33735.333333 -1144.000000 34015.000000 -1144.000000 C 34015.000000 -1125.666667 34015.000000 -1107.333333 34015.000000 -1089.000000 C 33735.333333 -1089.000000 33455.666667 -1089.000000 33176.000000 -1089.000000 C 33176.000000 -1107.333333 33176.000000 -1125.666667 33176.000000 -1144.000000z M 33494.000000 -1597.000000 C 33512.666667 -1594.666667 33531.333333 -1592.333333 33550.000000 -1590.000000 C 33542.666667 -1538.666667 33533.333333 -1483.666667 33522.000000 -1425.000000 C 33511.333333 -1367.000000 33500.333333 -1310.666667 33489.000000 -1256.000000 C 33478.333333 -1202.000000 33468.666667 -1154.666667 33460.000000 -1114.000000 C 33440.000000 -1114.000000 33420.000000 -1114.000000 33400.000000 -1114.000000 C 33412.000000 -1156.000000 33423.666667 -1205.000000 33435.000000 -1261.000000 C 33446.333333 -1317.666667 33457.000000 -1375.333333 33467.000000 -1434.000000 C 33477.666667 -1493.333333 33486.666667 -1547.666667 33494.000000 -1597.000000z M 33314.000000 -908.000000 C 33314.000000 -822.333333 33314.000000 -736.666667 33314.000000 -651.000000 C 33491.333333 -651.000000 33668.666667 -651.000000 33846.000000 -651.000000 C 33846.000000 -736.666667 33846.000000 -822.333333 33846.000000 -908.000000 C 33668.666667 -908.000000 33491.333333 -908.000000 33314.000000 -908.000000z M 33258.000000 -964.000000 C 33473.000000 -964.000000 33688.000000 -964.000000 33903.000000 -964.000000 C 33903.000000 -841.000000 33903.000000 -718.000000 33903.000000 -595.000000 C 33688.000000 -595.000000 33473.000000 -595.000000 33258.000000 -595.000000 C 33258.000000 -718.000000 33258.000000 -841.000000 33258.000000 -964.000000z M 33621.000000 -603.000000 C 33639.666667 -603.000000 33658.333333 -603.000000 33677.000000 -603.000000 C 33677.000000 -357.333333 33677.000000 -111.666667 33677.000000 134.000000 C 33658.333333 134.000000 33639.666667 134.000000 33621.000000 134.000000 C 33621.000000 -111.666667 33621.000000 -357.333333 33621.000000 -603.000000z M 33997.000000 -1467.000000 C 34144.333333 -1467.000000 34291.666667 -1467.000000 34439.000000 -1467.000000 C 34439.000000 -1447.666667 34439.000000 -1428.333333 34439.000000 -1409.000000 C 34291.666667 -1409.000000 34144.333333 -1409.000000 33997.000000 -1409.000000 C 33997.000000 -1428.333333 33997.000000 -1447.666667 33997.000000 -1467.000000z M 33963.000000 -948.000000 C 34133.333333 -948.000000 34303.666667 -948.000000 34474.000000 -948.000000 C 34474.000000 -929.666667 34474.000000 -911.333333 34474.000000 -893.000000 C 34303.666667 -893.000000 34133.333333 -893.000000 33963.000000 -893.000000 C 33963.000000 -911.333333 33963.000000 -929.666667 33963.000000 -948.000000z M 34214.000000 -937.000000 C 34233.333333 -937.000000 34252.666667 -937.000000 34272.000000 -937.000000 C 34272.000000 -611.333333 34272.000000 -285.666667 34272.000000 40.000000 C 34272.000000 67.333333 34267.666667 87.000000 34259.000000 99.000000 C 34251.000000 111.000000 34236.000000 119.666667 34214.000000 125.000000 C 34194.000000 129.666667 34162.333333 132.666667 34119.000000 134.000000 C 34076.333333 135.333333 34021.000000 136.000000 33953.000000 136.000000 C 33951.666667 128.666667 33948.333333 119.000000 33943.000000 107.000000 C 33938.333333 95.666667 33934.000000 85.666667 33930.000000 77.000000 C 33991.333333 78.333333 34044.333333 79.333333 34089.000000 80.000000 C 34134.333333 80.666667 34164.666667 80.333333 34180.000000 79.000000 C 34194.000000 77.666667 34203.000000 74.333333 34207.000000 69.000000 C 34211.666667 63.666667 34214.000000 54.666667 34214.000000 42.000000 C 34214.000000 -284.333333 34214.000000 -610.666667 34214.000000 -937.000000z M 33047.000000 -1594.000000 C 33065.666667 -1587.333333 33084.333333 -1580.666667 33103.000000 -1574.000000 C 33060.333333 -1504.000000 33007.000000 -1430.666667 32943.000000 -1354.000000 C 32879.000000 -1278.000000 32815.000000 -1212.000000 32751.000000 -1156.000000 C 32749.000000 -1160.000000 32745.333333 -1164.333333 32740.000000 -1169.000000 C 32734.666667 -1174.333333 32729.333333 -1179.333333 32724.000000 -1184.000000 C 32719.333333 -1189.333333 32715.000000 -1193.333333 32711.000000 -1196.000000 C 32753.000000 -1232.000000 32795.000000 -1272.333333 32837.000000 -1317.000000 C 32879.666667 -1361.666667 32919.333333 -1408.000000 32956.000000 -1456.000000 C 32992.666667 -1504.000000 33023.000000 -1550.000000 33047.000000 -1594.000000z M 33097.000000 -1229.000000 C 33115.666667 -1223.333333 33134.333333 -1217.666667 33153.000000 -1212.000000 C 33115.666667 -1138.666667 33074.000000 -1065.333333 33028.000000 -992.000000 C 32982.000000 -919.333333 32933.333333 -850.666667 32882.000000 -786.000000 C 32830.666667 -721.333333 32779.333333 -663.333333 32728.000000 -612.000000 C 32725.333333 -616.000000 32721.000000 -620.666667 32715.000000 -626.000000 C 32709.666667 -631.333333 32704.000000 -636.333333 32698.000000 -641.000000 C 32692.666667 -646.333333 32687.333333 -650.333333 32682.000000 -653.000000 C 32758.666667 -727.000000 32834.000000 -814.666667 32908.000000 -916.000000 C 32982.666667 -1018.000000 33045.666667 -1122.333333 33097.000000 -1229.000000z M 32951.000000 -948.000000 C 32969.000000 -966.666667 32987.000000 -985.333333 33005.000000 -1004.000000 C 33005.666667 -1002.666667 33006.333333 -1001.333333 33007.000000 -1000.000000 C 33007.000000 -623.666667 33007.000000 -247.333333 33007.000000 129.000000 C 32988.333333 129.000000 32969.666667 129.000000 32951.000000 129.000000 C 32951.000000 -230.000000 32951.000000 -589.000000 32951.000000 -948.000000z "/>
</g></svg>
