<?xml version="1.0" encoding="utf-8"?>
<svg xmlns="http://www.w3.org/2000/svg" xmlns:ev="http://www.w3.org/2001/xml-events" xmlns:xlink="http://www.w3.org/1999/xlink" version="1.1" baseProfile="full" width="5474.0" height="1561.0" viewBox="190.0 -1496.0 5474.0 1561.0">
<defs/>
<g><path d="M 795.000000 -1480.000000 C 793.666667 -1470.000000 792.000000 -1459.333333 790.000000 -1448.000000 C 788.000000 -1437.333333 785.666667 -1425.000000 783.000000 -1411.000000 C 781.000000 -1394.333333 776.666667 -1364.000000 770.000000 -1320.000000 C 763.333333 -1276.000000 755.333333 -1227.333333 746.000000 -1174.000000 C 737.333333 -1120.666667 727.333333 -1070.333333 716.000000 -1023.000000 C 702.000000 -969.666667 686.000000 -911.000000 668.000000 -847.000000 C 650.000000 -783.000000 629.000000 -715.333333 605.000000 -644.000000 C 581.666667 -573.333333 555.000000 -500.333333 525.000000 -425.000000 C 495.000000 -350.333333 461.000000 -274.666667 423.000000 -198.000000 C 385.666667 -121.333333 343.333333 -45.000000 296.000000 31.000000 C 275.333333 22.666667 254.666667 14.333333 234.000000 6.000000 C 276.666667 -49.333333 316.666667 -112.666667 354.000000 -184.000000 C 392.000000 -256.000000 427.000000 -331.000000 459.000000 -409.000000 C 491.000000 -487.000000 520.000000 -564.000000 546.000000 -640.000000 C 572.666667 -716.666667 595.000000 -787.333333 613.000000 -852.000000 C 631.666667 -917.333333 646.333333 -973.333333 657.000000 -1020.000000 C 675.000000 -1086.000000 690.333333 -1161.333333 703.000000 -1246.000000 C 715.666667 -1330.666667 722.666667 -1410.666667 724.000000 -1486.000000 C 747.666667 -1484.000000 771.333333 -1482.000000 795.000000 -1480.000000z M 1455.000000 -1250.000000 C 1485.666667 -1214.000000 1518.333333 -1167.666667 1553.000000 -1111.000000 C 1587.666667 -1055.000000 1622.000000 -995.000000 1656.000000 -931.000000 C 1690.000000 -867.000000 1721.333333 -805.333333 1750.000000 -746.000000 C 1778.666667 -686.666667 1801.333333 -635.000000 1818.000000 -591.000000 C 1800.000000 -581.666667 1782.000000 -572.333333 1764.000000 -563.000000 C 1748.666667 -607.666667 1727.666667 -660.000000 1701.000000 -720.000000 C 1674.333333 -780.000000 1644.333333 -841.666667 1611.000000 -905.000000 C 1577.666667 -968.333333 1543.333333 -1027.666667 1508.000000 -1083.000000 C 1472.666667 -1139.000000 1438.333333 -1185.000000 1405.000000 -1221.000000 C 1421.666667 -1230.666667 1438.333333 -1240.333333 1455.000000 -1250.000000z M 190.000000 -1031.000000 C 215.333333 -1029.666667 238.333333 -1029.000000 259.000000 -1029.000000 C 279.666667 -1029.000000 302.666667 -1029.666667 328.000000 -1031.000000 C 355.333333 -1032.333333 391.666667 -1034.666667 437.000000 -1038.000000 C 482.333333 -1041.333333 532.000000 -1045.000000 586.000000 -1049.000000 C 640.666667 -1053.666667 694.666667 -1058.000000 748.000000 -1062.000000 C 801.333333 -1066.666667 850.000000 -1070.666667 894.000000 -1074.000000 C 938.000000 -1077.333333 971.666667 -1079.000000 995.000000 -1079.000000 C 1042.333333 -1079.000000 1086.666667 -1072.333333 1128.000000 -1059.000000 C 1169.333333 -1045.666667 1203.333333 -1018.666667 1230.000000 -978.000000 C 1257.333333 -938.000000 1271.000000 -877.666667 1271.000000 -797.000000 C 1271.000000 -720.333333 1267.000000 -638.666667 1259.000000 -552.000000 C 1251.666667 -465.333333 1239.666667 -383.333333 1223.000000 -306.000000 C 1206.333333 -228.666667 1184.666667 -164.333333 1158.000000 -113.000000 C 1130.000000 -51.666667 1095.000000 -12.333333 1053.000000 5.000000 C 1011.666667 22.333333 964.666667 31.000000 912.000000 31.000000 C 876.000000 31.000000 837.000000 27.666667 795.000000 21.000000 C 753.666667 15.000000 719.000000 8.666667 691.000000 2.000000 C 688.000000 -20.333333 685.000000 -42.666667 682.000000 -65.000000 C 711.333333 -56.333333 740.333333 -49.000000 769.000000 -43.000000 C 797.666667 -37.666667 824.666667 -33.666667 850.000000 -31.000000 C 876.000000 -28.333333 898.666667 -27.000000 918.000000 -27.000000 C 956.000000 -27.000000 991.333333 -33.333333 1024.000000 -46.000000 C 1056.666667 -58.666667 1085.333333 -90.666667 1110.000000 -142.000000 C 1132.666667 -193.333333 1151.666667 -254.666667 1167.000000 -326.000000 C 1182.333333 -398.000000 1193.666667 -474.000000 1201.000000 -554.000000 C 1209.000000 -634.000000 1213.000000 -711.666667 1213.000000 -787.000000 C 1213.000000 -853.666667 1203.333333 -904.000000 1184.000000 -938.000000 C 1165.333333 -972.000000 1139.333333 -995.333333 1106.000000 -1008.000000 C 1072.666667 -1020.666667 1035.000000 -1027.000000 993.000000 -1027.000000 C 957.000000 -1027.000000 908.666667 -1024.666667 848.000000 -1020.000000 C 788.000000 -1016.000000 724.000000 -1010.666667 656.000000 -1004.000000 C 588.666667 -998.000000 525.666667 -992.000000 467.000000 -986.000000 C 409.000000 -980.000000 364.000000 -975.666667 332.000000 -973.000000 C 315.333333 -972.333333 294.000000 -970.333333 268.000000 -967.000000 C 242.666667 -963.666667 220.000000 -960.666667 200.000000 -958.000000 C 196.666667 -982.333333 193.333333 -1006.666667 190.000000 -1031.000000z "/>
</g>
<g><path d="M 2292.000000 -1254.000000 C 2419.333333 -1238.666667 2546.333333 -1230.000000 2673.000000 -1228.000000 C 2799.666667 -1226.000000 2910.333333 -1230.000000 3005.000000 -1240.000000 C 3075.000000 -1249.333333 3146.666667 -1262.000000 3220.000000 -1278.000000 C 3294.000000 -1294.000000 3360.666667 -1312.000000 3420.000000 -1332.000000 C 3423.666667 -1312.333333 3427.333333 -1292.666667 3431.000000 -1273.000000 C 3375.000000 -1256.333333 3310.000000 -1240.333333 3236.000000 -1225.000000 C 3162.666667 -1209.666667 3090.666667 -1197.333333 3020.000000 -1188.000000 C 2924.000000 -1178.000000 2812.000000 -1173.333333 2684.000000 -1174.000000 C 2556.000000 -1174.666667 2427.333333 -1180.666667 2298.000000 -1192.000000 C 2296.000000 -1212.666667 2294.000000 -1233.333333 2292.000000 -1254.000000z M 2252.000000 -868.000000 C 2356.000000 -856.666667 2460.666667 -849.333333 2566.000000 -846.000000 C 2671.333333 -842.666667 2772.333333 -843.000000 2869.000000 -847.000000 C 2965.666667 -851.666667 3050.000000 -859.333333 3122.000000 -870.000000 C 3201.333333 -880.000000 3279.333333 -893.666667 3356.000000 -911.000000 C 3432.666667 -928.333333 3494.000000 -944.666667 3540.000000 -960.000000 C 3543.333333 -940.000000 3546.666667 -920.000000 3550.000000 -900.000000 C 3502.666667 -886.000000 3443.000000 -871.666667 3371.000000 -857.000000 C 3299.666667 -842.333333 3222.333333 -830.000000 3139.000000 -820.000000 C 3062.333333 -809.333333 2975.333333 -801.333333 2878.000000 -796.000000 C 2780.666667 -791.333333 2678.666667 -790.000000 2572.000000 -792.000000 C 2466.000000 -794.000000 2360.666667 -798.666667 2256.000000 -806.000000 C 2254.666667 -826.666667 2253.333333 -847.333333 2252.000000 -868.000000z M 2924.000000 -1357.000000 C 2918.666667 -1379.000000 2912.333333 -1401.000000 2905.000000 -1423.000000 C 2898.333333 -1445.666667 2892.000000 -1465.333333 2886.000000 -1482.000000 C 2909.000000 -1486.666667 2932.000000 -1491.333333 2955.000000 -1496.000000 C 2960.333333 -1450.000000 2970.666667 -1397.333333 2986.000000 -1338.000000 C 3001.333333 -1279.333333 3018.000000 -1221.000000 3036.000000 -1163.000000 C 3054.666667 -1105.666667 3071.000000 -1056.666667 3085.000000 -1016.000000 C 3105.666667 -960.666667 3127.666667 -904.666667 3151.000000 -848.000000 C 3175.000000 -792.000000 3201.666667 -736.000000 3231.000000 -680.000000 C 3261.000000 -624.666667 3294.333333 -570.000000 3331.000000 -516.000000 C 3339.000000 -504.666667 3348.000000 -493.666667 3358.000000 -483.000000 C 3368.000000 -472.333333 3378.333333 -461.666667 3389.000000 -451.000000 C 3374.333333 -432.000000 3359.666667 -413.000000 3345.000000 -394.000000 C 3309.000000 -405.333333 3269.000000 -414.333333 3225.000000 -421.000000 C 3181.666667 -428.333333 3137.666667 -434.333333 3093.000000 -439.000000 C 3048.333333 -444.333333 3005.000000 -449.000000 2963.000000 -453.000000 C 2964.666667 -469.666667 2966.333333 -486.333333 2968.000000 -503.000000 C 3030.666667 -496.333333 3094.000000 -489.000000 3158.000000 -481.000000 C 3222.000000 -473.666667 3270.000000 -467.666667 3302.000000 -463.000000 C 3247.333333 -542.333333 3197.333333 -629.666667 3152.000000 -725.000000 C 3107.333333 -820.333333 3069.000000 -910.666667 3037.000000 -996.000000 C 3021.666667 -1038.666667 3007.000000 -1081.333333 2993.000000 -1124.000000 C 2979.000000 -1166.666667 2966.333333 -1208.000000 2955.000000 -1248.000000 C 2943.666667 -1288.666667 2933.333333 -1325.000000 2924.000000 -1357.000000z M 2442.000000 -488.000000 C 2419.333333 -453.333333 2401.000000 -418.666667 2387.000000 -384.000000 C 2373.666667 -349.333333 2367.000000 -309.666667 2367.000000 -265.000000 C 2367.000000 -177.666667 2406.000000 -109.666667 2484.000000 -61.000000 C 2562.666667 -12.333333 2689.000000 12.000000 2863.000000 12.000000 C 2951.000000 12.000000 3027.666667 8.666667 3093.000000 2.000000 C 3158.333333 -4.666667 3226.333333 -15.000000 3297.000000 -29.000000 C 3297.000000 -8.333333 3297.000000 12.333333 3297.000000 33.000000 C 3230.333333 44.333333 3163.333333 52.333333 3096.000000 57.000000 C 3028.666667 62.333333 2952.333333 65.000000 2867.000000 65.000000 C 2743.666667 65.000000 2641.000000 52.666667 2559.000000 28.000000 C 2477.000000 4.000000 2415.666667 -32.666667 2375.000000 -82.000000 C 2334.333333 -131.333333 2314.000000 -192.333333 2314.000000 -265.000000 C 2314.000000 -312.333333 2320.000000 -354.000000 2332.000000 -390.000000 C 2344.000000 -426.666667 2360.333333 -465.000000 2381.000000 -505.000000 C 2401.333333 -499.333333 2421.666667 -493.666667 2442.000000 -488.000000z "/>
</g>
<g><path d="M 4875.000000 -1023.000000 C 4903.000000 -1041.000000 4930.666667 -1060.333333 4958.000000 -1081.000000 C 4986.000000 -1101.666667 5007.666667 -1118.333333 5023.000000 -1131.000000 C 4994.333333 -1157.666667 4955.000000 -1187.000000 4905.000000 -1219.000000 C 4855.666667 -1251.000000 4802.333333 -1282.333333 4745.000000 -1313.000000 C 4688.333333 -1343.666667 4635.000000 -1370.000000 4585.000000 -1392.000000 C 4596.666667 -1406.666667 4608.333333 -1421.333333 4620.000000 -1436.000000 C 4666.000000 -1415.333333 4717.666667 -1389.000000 4775.000000 -1357.000000 C 4832.333333 -1325.000000 4888.333333 -1292.000000 4943.000000 -1258.000000 C 4997.666667 -1224.666667 5041.000000 -1193.333333 5073.000000 -1164.000000 C 5078.000000 -1148.000000 5083.000000 -1132.000000 5088.000000 -1116.000000 C 5078.000000 -1106.666667 5066.000000 -1096.666667 5052.000000 -1086.000000 C 5038.666667 -1076.000000 5024.333333 -1065.333333 5009.000000 -1054.000000 C 4993.666667 -1042.666667 4978.000000 -1030.666667 4962.000000 -1018.000000 C 4946.000000 -1006.000000 4929.666667 -994.333333 4913.000000 -983.000000 C 4900.333333 -996.333333 4887.666667 -1009.666667 4875.000000 -1023.000000z M 4460.000000 -75.000000 C 4504.666667 -62.333333 4551.333333 -52.000000 4600.000000 -44.000000 C 4648.666667 -36.666667 4710.333333 -33.000000 4785.000000 -33.000000 C 4811.666667 -33.000000 4842.333333 -38.000000 4877.000000 -48.000000 C 4911.666667 -58.000000 4942.000000 -77.333333 4968.000000 -106.000000 C 4994.000000 -135.333333 5007.000000 -176.000000 5007.000000 -228.000000 C 5007.000000 -264.000000 4999.000000 -301.333333 4983.000000 -340.000000 C 4967.000000 -379.333333 4945.666667 -418.666667 4919.000000 -458.000000 C 4892.333333 -498.000000 4863.000000 -537.666667 4831.000000 -577.000000 C 4799.000000 -617.000000 4767.000000 -655.666667 4735.000000 -693.000000 C 4717.000000 -715.000000 4696.000000 -738.000000 4672.000000 -762.000000 C 4648.666667 -786.666667 4626.000000 -809.666667 4604.000000 -831.000000 C 4617.333333 -844.666667 4630.666667 -858.333333 4644.000000 -872.000000 C 4662.000000 -851.333333 4682.333333 -828.000000 4705.000000 -802.000000 C 4727.666667 -776.666667 4749.000000 -752.666667 4769.000000 -730.000000 C 4820.333333 -673.333333 4868.333333 -616.666667 4913.000000 -560.000000 C 4957.666667 -504.000000 4993.666667 -447.666667 5021.000000 -391.000000 C 5049.000000 -335.000000 5063.000000 -279.000000 5063.000000 -223.000000 C 5063.000000 -169.000000 5052.333333 -125.666667 5031.000000 -93.000000 C 5010.333333 -60.333333 4984.666667 -36.000000 4954.000000 -20.000000 C 4923.333333 -4.000000 4892.000000 6.666667 4860.000000 12.000000 C 4828.666667 18.000000 4803.666667 21.000000 4785.000000 21.000000 C 4715.666667 21.000000 4655.333333 17.666667 4604.000000 11.000000 C 4552.666667 5.000000 4507.333333 -2.000000 4468.000000 -10.000000 C 4465.333333 -31.666667 4462.666667 -53.333333 4460.000000 -75.000000z M 5612.000000 -79.000000 C 5596.666667 -122.333333 5576.666667 -170.000000 5552.000000 -222.000000 C 5528.000000 -274.666667 5501.000000 -328.000000 5471.000000 -382.000000 C 5441.000000 -436.000000 5409.333333 -487.000000 5376.000000 -535.000000 C 5342.666667 -583.000000 5308.666667 -624.333333 5274.000000 -659.000000 C 5288.666667 -669.000000 5303.333333 -679.000000 5318.000000 -689.000000 C 5354.000000 -648.333333 5389.333333 -603.000000 5424.000000 -553.000000 C 5458.666667 -503.000000 5491.333333 -451.333333 5522.000000 -398.000000 C 5552.666667 -345.333333 5580.000000 -294.000000 5604.000000 -244.000000 C 5628.666667 -194.000000 5648.666667 -149.000000 5664.000000 -109.000000 C 5646.666667 -99.000000 5629.333333 -89.000000 5612.000000 -79.000000z M 4474.000000 -463.000000 C 4435.333333 -424.333333 4388.333333 -381.333333 4333.000000 -334.000000 C 4278.333333 -286.666667 4220.333333 -240.666667 4159.000000 -196.000000 C 4097.666667 -151.333333 4038.666667 -113.000000 3982.000000 -81.000000 C 3970.000000 -97.000000 3958.000000 -113.000000 3946.000000 -129.000000 C 3984.000000 -149.000000 4026.000000 -174.333333 4072.000000 -205.000000 C 4118.000000 -236.333333 4164.000000 -269.333333 4210.000000 -304.000000 C 4256.666667 -339.333333 4300.000000 -374.666667 4340.000000 -410.000000 C 4380.666667 -445.333333 4413.666667 -477.000000 4439.000000 -505.000000 C 4450.666667 -491.000000 4462.333333 -477.000000 4474.000000 -463.000000z "/>
</g>
</svg>
