<?xml version="1.0" encoding="utf-8"?>
<svg xmlns="http://www.w3.org/2000/svg" xmlns:ev="http://www.w3.org/2001/xml-events" xmlns:xlink="http://www.w3.org/1999/xlink" version="1.1" baseProfile="full" width="30496.0" height="1753.0" viewBox="136.0 -1597.0 30496.0 1753.0">
<defs/>
<g><path d="M 14367.000000 -1597.000000 C 14386.333333 -1597.000000 14405.666667 -1597.000000 14425.000000 -1597.000000 C 14425.000000 -1515.333333 14425.000000 -1433.666667 14425.000000 -1352.000000 C 14405.666667 -1352.000000 14386.333333 -1352.000000 14367.000000 -1352.000000 C 14367.000000 -1433.666667 14367.000000 -1515.333333 14367.000000 -1597.000000z M 14143.000000 -1346.000000 C 14162.666667 -1346.000000 14182.333333 -1346.000000 14202.000000 -1346.000000 C 14192.000000 -1257.333333 14175.000000 -1178.666667 14151.000000 -1110.000000 C 14127.666667 -1042.000000 14094.000000 -982.000000 14050.000000 -930.000000 C 14006.666667 -878.000000 13950.000000 -833.333333 13880.000000 -796.000000 C 13810.666667 -759.333333 13724.666667 -729.000000 13622.000000 -705.000000 C 13620.000000 -709.666667 13617.000000 -714.666667 13613.000000 -720.000000 C 13609.000000 -725.333333 13604.666667 -730.666667 13600.000000 -736.000000 C 13596.000000 -742.000000 13592.000000 -746.333333 13588.000000 -749.000000 C 13688.000000 -771.666667 13771.333333 -800.333333 13838.000000 -835.000000 C 13905.333333 -869.666667 13959.666667 -911.333333 14001.000000 -960.000000 C 14043.000000 -1008.666667 14074.666667 -1065.000000 14096.000000 -1129.000000 C 14118.000000 -1193.000000 14133.666667 -1265.333333 14143.000000 -1346.000000z M 14580.000000 -1342.000000 C 14598.666667 -1342.000000 14617.333333 -1342.000000 14636.000000 -1342.000000 C 14636.000000 -1202.666667 14636.000000 -1063.333333 14636.000000 -924.000000 C 14636.000000 -904.666667 14641.666667 -891.666667 14653.000000 -885.000000 C 14665.000000 -879.000000 14692.666667 -876.000000 14736.000000 -876.000000 C 14746.000000 -876.000000 14765.666667 -876.000000 14795.000000 -876.000000 C 14825.000000 -876.000000 14857.666667 -876.000000 14893.000000 -876.000000 C 14929.000000 -876.000000 14962.666667 -876.000000 14994.000000 -876.000000 C 15025.333333 -876.000000 15047.333333 -876.000000 15060.000000 -876.000000 C 15090.000000 -876.000000 15109.666667 -884.000000 15119.000000 -900.000000 C 15128.333333 -916.666667 15134.333333 -957.000000 15137.000000 -1021.000000 C 15145.000000 -1016.333333 15153.666667 -1012.333333 15163.000000 -1009.000000 C 15173.000000 -1005.666667 15182.333333 -1003.333333 15191.000000 -1002.000000 C 15188.333333 -953.333333 15183.333333 -916.000000 15176.000000 -890.000000 C 15169.333333 -864.000000 15157.333333 -846.000000 15140.000000 -836.000000 C 15122.666667 -826.666667 15098.000000 -822.000000 15066.000000 -822.000000 C 15060.000000 -822.000000 15041.000000 -822.000000 15009.000000 -822.000000 C 14977.000000 -822.000000 14941.333333 -822.000000 14902.000000 -822.000000 C 14863.333333 -822.000000 14828.000000 -822.000000 14796.000000 -822.000000 C 14764.000000 -822.000000 14744.666667 -822.000000 14738.000000 -822.000000 C 14696.666667 -822.000000 14664.333333 -824.333333 14641.000000 -829.000000 C 14618.333333 -834.333333 14602.333333 -844.333333 14593.000000 -859.000000 C 14584.333333 -873.666667 14580.000000 -895.666667 14580.000000 -925.000000 C 14580.000000 -1064.000000 14580.000000 -1203.000000 14580.000000 -1342.000000z M 13605.000000 -1382.000000 C 14140.666667 -1382.000000 14676.333333 -1382.000000 15212.000000 -1382.000000 C 15212.000000 -1288.666667 15212.000000 -1195.333333 15212.000000 -1102.000000 C 15193.333333 -1102.000000 15174.666667 -1102.000000 15156.000000 -1102.000000 C 15156.000000 -1177.000000 15156.000000 -1252.000000 15156.000000 -1327.000000 C 14658.333333 -1327.000000 14160.666667 -1327.000000 13663.000000 -1327.000000 C 13663.000000 -1246.333333 13663.000000 -1165.666667 13663.000000 -1085.000000 C 13643.666667 -1085.000000 13624.333333 -1085.000000 13605.000000 -1085.000000 C 13605.000000 -1184.000000 13605.000000 -1283.000000 13605.000000 -1382.000000z M 13555.000000 -534.000000 C 14120.333333 -534.000000 14685.666667 -534.000000 15251.000000 -534.000000 C 15251.000000 -514.666667 15251.000000 -495.333333 15251.000000 -476.000000 C 14685.666667 -476.000000 14120.333333 -476.000000 13555.000000 -476.000000 C 13555.000000 -495.333333 13555.000000 -514.666667 13555.000000 -534.000000z M 14367.000000 -816.000000 C 14387.000000 -816.000000 14407.000000 -816.000000 14427.000000 -816.000000 C 14417.000000 -711.333333 14402.333333 -614.666667 14383.000000 -526.000000 C 14363.666667 -438.000000 14335.333333 -358.333333 14298.000000 -287.000000 C 14261.333333 -215.666667 14212.000000 -152.666667 14150.000000 -98.000000 C 14088.666667 -44.000000 14011.333333 2.666667 13918.000000 42.000000 C 13824.666667 82.000000 13711.333333 114.666667 13578.000000 140.000000 C 13576.666667 134.666667 13574.000000 129.000000 13570.000000 123.000000 C 13566.666667 117.666667 13562.666667 111.666667 13558.000000 105.000000 C 13553.333333 99.000000 13549.333333 94.000000 13546.000000 90.000000 C 13677.333333 66.000000 13788.666667 35.000000 13880.000000 -3.000000 C 13972.000000 -41.000000 14047.666667 -86.000000 14107.000000 -138.000000 C 14166.333333 -190.666667 14213.666667 -250.666667 14249.000000 -318.000000 C 14284.333333 -385.333333 14311.000000 -460.333333 14329.000000 -543.000000 C 14347.000000 -626.333333 14359.666667 -717.333333 14367.000000 -816.000000z M 14484.000000 -518.000000 C 14525.333333 -334.000000 14609.000000 -194.333333 14735.000000 -99.000000 C 14861.000000 -3.666667 15038.666667 57.333333 15268.000000 84.000000 C 15262.666667 88.000000 15257.333333 93.000000 15252.000000 99.000000 C 15247.333333 105.666667 15243.000000 112.333333 15239.000000 119.000000 C 15235.000000 125.666667 15231.666667 132.000000 15229.000000 138.000000 C 15075.666667 116.666667 14944.666667 80.666667 14836.000000 30.000000 C 14727.333333 -20.666667 14639.666667 -89.666667 14573.000000 -177.000000 C 14506.333333 -265.000000 14458.333333 -375.000000 14429.000000 -507.000000 C 14447.333333 -510.666667 14465.666667 -514.333333 14484.000000 -518.000000z "/>
</g></svg>
