<?xml version="1.0" ?>
<svg xmlns="http://www.w3.org/2000/svg" version="1.1" width="600" height="600">
  <defs/>
  <g>
    <path stroke-width="0" fill="rgb(0, 0, 0)" opacity="1.0" d="M 151.68438720703125 283.526123046875 C 180.61016845703125 283.526123046875 209.53598022460938 283.526123046875 238.4617919921875 283.526123046875 C 238.4617919921875 284.8060302734375 238.4617919921875 286.0859375 238.4617919921875 287.3658447265625 C 209.53598022460938 287.3658447265625 180.61016845703125 287.3658447265625 151.68438720703125 287.3658447265625 C 151.68438720703125 286.0859375 151.68438720703125 284.8060302734375 151.68438720703125 283.526123046875M 161.65115356445312 252.808349609375 C 183.6002197265625 252.808349609375 205.54925537109375 252.808349609375 227.49835205078125 252.808349609375 C 227.49835205078125 277.1265869140625 227.49835205078125 301.44482421875 227.49835205078125 325.7630615234375 C 226.21371459960938 325.7630615234375 224.92913818359375 325.7630615234375 223.64453125 325.7630615234375 C 223.64453125 302.70263671875 223.64453125 279.64227294921875 223.64453125 256.5819091796875 C 202.98007202148438 256.5819091796875 182.31561279296875 256.5819091796875 161.65115356445312 256.5819091796875 C 161.65115356445312 255.32403564453125 161.65115356445312 254.06622314453125 161.65115356445312 252.808349609375M 159.25912475585938 314.574951171875 C 181.60687255859375 314.574951171875 203.95458984375 314.574951171875 226.30230712890625 314.574951171875 C 226.30230712890625 315.832763671875 226.30230712890625 317.090576171875 226.30230712890625 318.348388671875 C 203.95458984375 318.348388671875 181.60687255859375 318.348388671875 159.25912475585938 318.348388671875 C 159.25912475585938 317.090576171875 159.25912475585938 315.832763671875 159.25912475585938 314.574951171875M 187.033203125 253.933837890625 C 188.27352905273438 253.933837890625 189.51385498046875 253.933837890625 190.754150390625 253.933837890625 C 190.754150390625 267.703857421875 190.754150390625 281.473876953125 190.754150390625 295.243896484375 C 190.754150390625 299.392578125 190.57696533203125 303.7398681640625 190.22259521484375 308.28570556640625 C 189.86822509765625 312.7874755859375 189.093017578125 317.311279296875 187.89700317382812 321.857177734375 C 186.74530029296875 326.40301513671875 184.8626708984375 330.83856201171875 182.24917602539062 335.16375732421875 C 179.67996215820312 339.48895263671875 176.15835571289062 343.5714111328125 171.68438720703125 347.4111328125 C 167.21041870117188 351.2508544921875 161.51828002929688 354.737548828125 154.60797119140625 357.87109375 C 154.47509765625 357.650390625 154.25360107421875 357.3414306640625 153.94351196289062 356.9442138671875 C 153.63345336914062 356.5469970703125 153.34552001953125 356.1497802734375 153.07974243164062 355.75262451171875 C 152.85824584960938 355.3995361328125 152.6146240234375 355.090576171875 152.34884643554688 354.8258056640625 C 159.08193969726562 351.95703125 164.57473754882812 348.6910400390625 168.82723999023438 345.02783203125 C 173.1240234375 341.320556640625 176.53488159179688 337.4146728515625 179.059814453125 333.31011962890625 C 181.584716796875 329.20556640625 183.40087890625 324.99072265625 184.50830078125 320.66552734375 C 185.61572265625 316.34033203125 186.30230712890625 312.01513671875 186.568115234375 307.68988037109375 C 186.878173828125 303.36468505859375 187.033203125 299.2601318359375 187.033203125 295.3763427734375 C 187.033203125 281.5621337890625 187.033203125 267.7479248046875 187.033203125 253.933837890625M 155.1395263671875 243.87109375 C 156.37985229492188 244.22412109375 157.62014770507812 244.5772705078125 158.8604736328125 244.9302978515625 C 155.9368896484375 252.0360107421875 152.59246826171875 258.943115234375 148.82723999023438 265.651611328125 C 145.06201171875 272.31591796875 141.00885009765625 278.56097412109375 136.66778564453125 284.38677978515625 C 132.32669067382812 290.16839599609375 127.85272216796875 295.39837646484375 123.245849609375 300.07666015625 C 123.06866455078125 299.8118896484375 122.80288696289062 299.4808349609375 122.44851684570312 299.0836181640625 C 122.138427734375 298.64227294921875 121.80621337890625 298.24505615234375 121.45181274414062 297.8919677734375 C 121.14175415039062 297.4947509765625 120.80950927734375 297.16375732421875 120.45513916015625 296.89892578125 C 125.06201171875 292.57373046875 129.49169921875 287.60858154296875 133.74417114257812 282.00347900390625 C 137.99667358398438 276.354248046875 141.96124267578125 270.28570556640625 145.63787841796875 263.79791259765625 C 149.35879516601562 257.31011962890625 152.52603149414062 250.6678466796875 155.1395263671875 243.87109375M 140.85382080078125 273.860595703125 C 142.04983520507812 272.6910400390625 143.245849609375 271.521484375 144.44186401367188 270.3519287109375 C 144.53045654296875 270.3740234375 144.61904907226562 270.39605712890625 144.7076416015625 270.4180908203125 C 144.7076416015625 299.569091796875 144.7076416015625 328.7200927734375 144.7076416015625 357.87109375 C 143.42303466796875 357.87109375 142.138427734375 357.87109375 140.85382080078125 357.87109375 C 140.85382080078125 329.8675537109375 140.85382080078125 301.8641357421875 140.85382080078125 273.860595703125"/>
    <path stroke-width="0" fill="rgb(0, 0, 0)" opacity="1.0" d="M 280.05645751953125 256.449462890625 C 281.16387939453125 256.5377197265625 282.35992431640625 256.6259765625 283.64453125 256.71429443359375 C 284.9734191894531 256.80255126953125 286.50164794921875 256.8466796875 288.229248046875 256.8466796875 C 289.42523193359375 256.8466796875 291.3521728515625 256.80255126953125 294.00994873046875 256.71429443359375 C 296.66778564453125 256.6259765625 299.7242431640625 256.51568603515625 303.17938232421875 256.38330078125 C 306.634521484375 256.2508544921875 310.11181640625 256.11846923828125 313.61126708984375 255.986083984375 C 317.155029296875 255.8095703125 320.3443908691406 255.63299560546875 323.17938232421875 255.4564208984375 C 326.05865478515625 255.2799072265625 328.1849365234375 255.1033935546875 329.55810546875 254.92681884765625 C 330.48834228515625 254.83856201171875 331.396484375 254.72821044921875 332.2823486328125 254.5958251953125 C 333.1683349609375 254.4193115234375 333.92138671875 254.24273681640625 334.54150390625 254.06622314453125 C 335.47174072265625 254.9930419921875 336.4019775390625 255.91986083984375 337.33221435546875 256.8466796875 C 336.97784423828125 257.11151123046875 336.42413330078125 257.50872802734375 335.67108154296875 258.038330078125 C 334.91802978515625 258.5238037109375 334.2757568359375 258.96514892578125 333.744140625 259.36236572265625 C 331.79510498046875 261.0836181640625 329.336669921875 263.20208740234375 326.3687744140625 265.7177734375 C 323.40087890625 268.1893310546875 320.1893615722656 270.88153076171875 316.73419189453125 273.79443359375 C 313.279052734375 276.6632080078125 309.77960205078125 279.55401611328125 306.2358703613281 282.4669189453125 C 302.7364196777344 285.3797607421875 299.39202880859375 288.13818359375 296.20263671875 290.7421875 C 293.0132751464844 293.302001953125 290.22259521484375 295.50872802734375 287.83056640625 297.36236572265625 C 295.0509338378906 296.5238037109375 302.5370788574219 295.79559326171875 310.2890319824219 295.177734375 C 318.04095458984375 294.51568603515625 325.7264404296875 293.986083984375 333.34552001953125 293.5888671875 C 341.00885009765625 293.1474609375 348.36212158203125 292.92681884765625 355.4052734375 292.92681884765625 C 355.4052734375 294.20672607421875 355.4052734375 295.48663330078125 355.4052734375 296.76654052734375 C 349.02655029296875 296.501708984375 343.0465087890625 296.435546875 337.465087890625 296.56793212890625 C 331.927978515625 296.7003173828125 327.27685546875 297.053466796875 323.5115966796875 297.627197265625 C 320.233642578125 298.15679931640625 316.97784423828125 299.2822265625 313.7441711425781 301.00347900390625 C 310.510498046875 302.68060302734375 307.5204772949219 304.8211669921875 304.7740783691406 307.425048828125 C 302.07196044921875 309.98486328125 299.90142822265625 312.83160400390625 298.262451171875 315.96514892578125 C 296.66778564453125 319.0987548828125 295.87042236328125 322.36468505859375 295.87042236328125 325.7630615234375 C 295.87042236328125 330.92681884765625 297.08856201171875 335.00927734375 299.52490234375 338.010498046875 C 302.0055236816406 341.0115966796875 305.1284484863281 343.262451171875 308.8936767578125 344.7630615234375 C 312.70318603515625 346.219482421875 316.5570068359375 347.30078125 320.45513916015625 348.0069580078125 C 324.48614501953125 348.5806884765625 327.80841064453125 348.823486328125 330.42193603515625 348.7352294921875 C 333.0797119140625 348.64691162109375 335.51605224609375 348.5145263671875 337.73089599609375 348.3380126953125 C 337.4207763671875 349.6619873046875 337.1107177734375 350.986083984375 336.8006591796875 352.31011962890625 C 322.0055236816406 352.88385009765625 310.88702392578125 350.91986083984375 303.4451904296875 346.4180908203125 C 296.0032958984375 341.87225341796875 292.2823791503906 335.0975341796875 292.2823791503906 326.0941162109375 C 292.2823791503906 321.4599609375 293.4119567871094 317.26708984375 295.67108154296875 313.51568603515625 C 297.93023681640625 309.7200927734375 300.63232421875 306.52032470703125 303.77740478515625 303.9163818359375 C 306.9224853515625 301.268310546875 309.8903503417969 299.34844970703125 312.6810302734375 298.15679931640625 C 304.9734191894531 298.81884765625 296.37982177734375 299.6573486328125 286.90032958984375 300.6724853515625 C 277.465087890625 301.68756103515625 268.3399658203125 302.92333984375 259.52490234375 304.3797607421875 C 259.39202880859375 303.14404296875 259.2591247558594 301.90826416015625 259.126220703125 300.6724853515625 C 262.62567138671875 300.2752685546875 266.34661865234375 299.85595703125 270.2890319824219 299.4146728515625 C 274.2314453125 298.92913818359375 277.77520751953125 298.5098876953125 280.9202575683594 298.15679931640625 C 284.99554443359375 295.19976806640625 289.38092041015625 291.84552001953125 294.076416015625 288.0941162109375 C 298.816162109375 284.2984619140625 303.4894714355469 280.458740234375 308.0963134765625 276.574951171875 C 312.70318603515625 272.64691162109375 316.8670959472656 269.072021484375 320.5880126953125 265.85015869140625 C 324.353271484375 262.62835693359375 327.25469970703125 260.134765625 329.2923583984375 258.36932373046875 C 328.0963134765625 258.4576416015625 326.10296630859375 258.56793212890625 323.3122863769531 258.7003173828125 C 320.5658874511719 258.832763671875 317.4429626464844 258.98724365234375 313.9435119628906 259.16375732421875 C 310.48834228515625 259.296142578125 307.01104736328125 259.45068359375 303.5115966796875 259.627197265625 C 300.01214599609375 259.8037109375 296.9114074707031 259.95819091796875 294.20928955078125 260.090576171875 C 291.5514831542969 260.2230224609375 289.62457275390625 260.3333740234375 288.4285583496094 260.421630859375 C 286.74530029296875 260.5098876953125 285.1506042480469 260.6202392578125 283.64453125 260.75262451171875 C 282.1827087402344 260.84088134765625 281.0752868652344 260.92913818359375 280.322265625 261.0174560546875 C 280.233642578125 259.4947509765625 280.14508056640625 257.97216796875 280.05645751953125 256.449462890625"/>
    <path stroke-width="0" fill="rgb(0, 0, 0)" opacity="1.0" d="M 396.8670654296875 265.9825439453125 C 405.3277587890625 266.9976806640625 413.766357421875 267.5714111328125 422.1827392578125 267.703857421875 C 430.59912109375 267.83624267578125 437.952392578125 267.5714111328125 444.2425537109375 266.909423828125 C 448.8936767578125 266.29150390625 453.65557861328125 265.4530029296875 458.5281982421875 264.39373779296875 C 463.4451904296875 263.33447265625 467.8748779296875 262.142822265625 471.8172607421875 260.81884765625 C 472.0609130859375 262.12078857421875 472.3045654296875 263.4227294921875 472.54815673828125 264.7247314453125 C 468.82720947265625 265.828125 464.50830078125 266.8873291015625 459.59130859375 267.9024658203125 C 454.71868896484375 268.91754150390625 449.93463134765625 269.7340087890625 445.23919677734375 270.3519287109375 C 438.8604736328125 271.013916015625 431.4185791015625 271.3228759765625 422.91357421875 271.27874755859375 C 414.40863037109375 271.234619140625 405.859375 270.83740234375 397.2657470703125 270.08709716796875 C 397.13287353515625 268.71893310546875 397.0 267.35076904296875 396.8670654296875 265.9825439453125M 394.20928955078125 291.53662109375 C 401.11962890625 292.286865234375 408.07415771484375 292.7723388671875 415.07305908203125 292.9930419921875 C 422.072021484375 293.2137451171875 428.782958984375 293.191650390625 435.2059326171875 292.92681884765625 C 441.6290283203125 292.617919921875 447.2325439453125 292.1103515625 452.0166015625 291.4041748046875 C 457.2879638671875 290.7421875 462.47064208984375 289.83740234375 467.56475830078125 288.68988037109375 C 472.65887451171875 287.5423583984375 476.73419189453125 286.4610595703125 479.7906494140625 285.44598388671875 C 480.01220703125 286.77001953125 480.233642578125 288.0941162109375 480.45513916015625 289.4180908203125 C 477.31005859375 290.344970703125 473.345458984375 291.2938232421875 468.5614013671875 292.2647705078125 C 463.8216552734375 293.23577880859375 458.6832275390625 294.05224609375 453.1461181640625 294.71429443359375 C 448.052001953125 295.42041015625 442.27130126953125 295.9500732421875 435.803955078125 296.3031005859375 C 429.336669921875 296.612060546875 422.5592041015625 296.7003173828125 415.47174072265625 296.56793212890625 C 408.4285888671875 296.435546875 401.4296875 296.1265869140625 394.47509765625 295.64111328125 C 394.386474609375 294.27294921875 394.2978515625 292.90478515625 394.20928955078125 291.53662109375M 438.8604736328125 259.16375732421875 C 438.506103515625 257.70733642578125 438.08526611328125 256.2508544921875 437.5980224609375 254.79443359375 C 437.155029296875 253.2938232421875 436.73419189453125 251.99188232421875 436.3355712890625 250.88848876953125 C 437.86376953125 250.57958984375 439.3919677734375 250.2706298828125 440.9202880859375 249.961669921875 C 441.274658203125 253.0069580078125 441.961181640625 256.49365234375 442.98004150390625 260.421630859375 C 443.9989013671875 264.305419921875 445.1063232421875 268.167236328125 446.30230712890625 272.0069580078125 C 447.5426025390625 275.80255126953125 448.6279296875 279.04644775390625 449.55810546875 281.7386474609375 C 450.9312744140625 285.40185546875 452.39306640625 289.10919189453125 453.9434814453125 292.860595703125 C 455.5382080078125 296.56793212890625 457.31005859375 300.2752685546875 459.2591552734375 303.9825439453125 C 461.25244140625 307.645751953125 463.46728515625 311.2647705078125 465.90362548828125 314.8397216796875 C 466.4351806640625 315.59002685546875 467.033203125 316.3182373046875 467.6976318359375 317.0244140625 C 468.36212158203125 317.73052978515625 469.0487060546875 318.43670654296875 469.7574462890625 319.142822265625 C 468.782958984375 320.40069580078125 467.808349609375 321.6585693359375 466.8338623046875 322.9163818359375 C 464.44183349609375 322.16607666015625 461.7840576171875 321.57025146484375 458.8604736328125 321.12890625 C 455.98114013671875 320.6434326171875 453.05755615234375 320.2462158203125 450.0897216796875 319.937255859375 C 447.121826171875 319.584228515625 444.2425537109375 319.2752685546875 441.4517822265625 319.010498046875 C 441.5625 317.9071044921875 441.67333984375 316.8037109375 441.7840576171875 315.7003173828125 C 445.94793701171875 316.1417236328125 450.1561279296875 316.627197265625 454.40863037109375 317.15679931640625 C 458.6611328125 317.64227294921875 461.8504638671875 318.03948974609375 463.9766845703125 318.348388671875 C 460.3443603515625 313.096435546875 457.02215576171875 307.31475830078125 454.00994873046875 301.00347900390625 C 451.0421142578125 294.6922607421875 448.4949951171875 288.71197509765625 446.3687744140625 283.062744140625 C 445.34991455078125 280.23809814453125 444.3753662109375 277.4134521484375 443.4451904296875 274.5888671875 C 442.514892578125 271.76422119140625 441.67333984375 269.02789306640625 440.9202880859375 266.3797607421875 C 440.167236328125 263.68756103515625 439.4805908203125 261.2822265625 438.8604736328125 259.16375732421875M 406.8338623046875 316.693359375 C 405.3277587890625 318.9884033203125 404.109619140625 321.28338623046875 403.17938232421875 323.578369140625 C 402.29345703125 325.8734130859375 401.8504638671875 328.4993896484375 401.8504638671875 331.4564208984375 C 401.8504638671875 337.23809814453125 404.44183349609375 341.7398681640625 409.62457275390625 344.961669921875 C 414.8515625 348.1834716796875 423.245849609375 349.79443359375 434.8072509765625 349.79443359375 C 440.65447998046875 349.79443359375 445.74859619140625 349.57373046875 450.0897216796875 349.1324462890625 C 454.4307861328125 348.6910400390625 458.9490966796875 348.0069580078125 463.64453125 347.08013916015625 C 463.64453125 348.44830322265625 463.64453125 349.8165283203125 463.64453125 351.1846923828125 C 459.21484375 351.9349365234375 454.76300048828125 352.464599609375 450.2890625 352.7735595703125 C 445.8150634765625 353.1265869140625 440.7430419921875 353.3031005859375 435.07305908203125 353.3031005859375 C 426.878173828125 353.3031005859375 420.05645751953125 352.48663330078125 414.60797119140625 350.8536376953125 C 409.159423828125 349.2647705078125 405.0841064453125 346.83740234375 402.382080078125 343.5714111328125 C 399.679931640625 340.305419921875 398.328857421875 336.26708984375 398.328857421875 331.4564208984375 C 398.328857421875 328.3228759765625 398.7275390625 325.564453125 399.52490234375 323.18115234375 C 400.322265625 320.7537841796875 401.40753173828125 318.216064453125 402.78076171875 315.56793212890625 C 404.13177490234375 315.943115234375 405.4827880859375 316.3182373046875 406.8338623046875 316.693359375"/>
  </g>
</svg>
