<?xml version="1.0" encoding="utf-8"?>
<svg xmlns="http://www.w3.org/2000/svg" xmlns:ev="http://www.w3.org/2001/xml-events" xmlns:xlink="http://www.w3.org/1999/xlink" version="1.1" baseProfile="full" width="17103.0" height="1740.3" viewBox="60.0 -1597.0 17103.0 1740.3">
<defs/>
<g><path d="M 10116.000000 -1114.000000 C 10134.000000 -1105.666667 10152.000000 -1097.333333 10170.000000 -1089.000000 C 10146.000000 -1039.000000 10119.000000 -986.000000 10089.000000 -930.000000 C 10059.666667 -874.666667 10029.666667 -820.666667 9999.000000 -768.000000 C 9968.333333 -715.333333 9939.000000 -669.333333 9911.000000 -630.000000 C 9896.333333 -638.333333 9881.666667 -646.666667 9867.000000 -655.000000 C 9895.000000 -694.333333 9924.333333 -741.000000 9955.000000 -795.000000 C 9985.666667 -849.666667 10015.333333 -905.000000 10044.000000 -961.000000 C 10073.333333 -1017.666667 10097.333333 -1068.666667 10116.000000 -1114.000000z M 10393.000000 -822.000000 C 10411.000000 -813.666667 10429.000000 -805.333333 10447.000000 -797.000000 C 10408.333333 -731.666667 10365.333333 -662.666667 10318.000000 -590.000000 C 10270.666667 -518.000000 10221.666667 -445.333333 10171.000000 -372.000000 C 10120.333333 -299.333333 10069.666667 -229.666667 10019.000000 -163.000000 C 9969.000000 -96.333333 9921.000000 -37.000000 9875.000000 15.000000 C 9860.000000 6.000000 9845.000000 -3.000000 9830.000000 -12.000000 C 9876.666667 -64.000000 9925.000000 -123.333333 9975.000000 -190.000000 C 10025.666667 -256.666667 10076.333333 -326.666667 10127.000000 -400.000000 C 10177.666667 -474.000000 10226.000000 -547.000000 10272.000000 -619.000000 C 10318.000000 -691.666667 10358.333333 -759.333333 10393.000000 -822.000000z M 10249.000000 -330.000000 C 10265.666667 -336.333333 10282.333333 -342.666667 10299.000000 -349.000000 C 10335.000000 -303.000000 10369.000000 -253.000000 10401.000000 -199.000000 C 10433.000000 -145.666667 10461.333333 -92.333333 10486.000000 -39.000000 C 10511.333333 13.666667 10529.666667 61.333333 10541.000000 104.000000 C 10523.000000 111.666667 10505.000000 119.333333 10487.000000 127.000000 C 10475.666667 84.333333 10457.666667 36.666667 10433.000000 -16.000000 C 10409.000000 -69.333333 10381.000000 -123.333333 10349.000000 -178.000000 C 10317.000000 -233.333333 10283.666667 -284.000000 10249.000000 -330.000000z M 9754.000000 -724.000000 C 9767.333333 -736.000000 9780.666667 -748.000000 9794.000000 -760.000000 C 9842.666667 -723.333333 9890.666667 -682.666667 9938.000000 -638.000000 C 9985.333333 -594.000000 10029.000000 -550.000000 10069.000000 -506.000000 C 10109.666667 -462.000000 10142.000000 -422.000000 10166.000000 -386.000000 C 10151.333333 -372.666667 10136.666667 -359.333333 10122.000000 -346.000000 C 10098.000000 -381.333333 10065.666667 -421.333333 10025.000000 -466.000000 C 9985.000000 -511.333333 9941.333333 -556.666667 9894.000000 -602.000000 C 9846.666667 -647.333333 9800.000000 -688.000000 9754.000000 -724.000000z M 9700.000000 -25.000000 C 9794.666667 -31.666667 9908.333333 -39.333333 10041.000000 -48.000000 C 10174.333333 -56.666667 10311.000000 -65.666667 10451.000000 -75.000000 C 10451.000000 -58.333333 10451.000000 -41.666667 10451.000000 -25.000000 C 10315.000000 -13.666667 10182.000000 -2.666667 10052.000000 8.000000 C 9922.000000 19.333333 9807.666667 28.333333 9709.000000 35.000000 C 9706.000000 15.000000 9703.000000 -5.000000 9700.000000 -25.000000z M 10913.000000 -1114.000000 C 10931.666667 -1105.666667 10950.333333 -1097.333333 10969.000000 -1089.000000 C 10943.666667 -1037.666667 10915.000000 -983.000000 10883.000000 -925.000000 C 10851.000000 -867.666667 10818.666667 -812.000000 10786.000000 -758.000000 C 10753.333333 -704.666667 10722.000000 -657.333333 10692.000000 -616.000000 C 10677.333333 -623.000000 10662.666667 -630.000000 10648.000000 -637.000000 C 10677.333333 -678.333333 10708.333333 -727.000000 10741.000000 -783.000000 C 10773.666667 -839.666667 10805.333333 -897.000000 10836.000000 -955.000000 C 10867.333333 -1013.666667 10893.000000 -1066.666667 10913.000000 -1114.000000z M 11199.000000 -824.000000 C 11217.666667 -815.666667 11236.333333 -807.333333 11255.000000 -799.000000 C 11215.666667 -733.666667 11172.000000 -664.000000 11124.000000 -590.000000 C 11076.000000 -516.666667 11026.000000 -443.000000 10974.000000 -369.000000 C 10922.000000 -295.666667 10870.333333 -225.333333 10819.000000 -158.000000 C 10767.666667 -91.333333 10719.000000 -31.666667 10673.000000 21.000000 C 10658.333333 12.666667 10643.666667 4.333333 10629.000000 -4.000000 C 10675.000000 -56.666667 10724.000000 -116.666667 10776.000000 -184.000000 C 10828.000000 -252.000000 10879.333333 -323.333333 10930.000000 -398.000000 C 10981.333333 -473.333333 11030.333333 -547.333333 11077.000000 -620.000000 C 11124.333333 -693.333333 11165.000000 -761.333333 11199.000000 -824.000000z M 11078.000000 -342.000000 C 11094.666667 -349.666667 11111.333333 -357.333333 11128.000000 -365.000000 C 11170.666667 -317.666667 11211.000000 -266.000000 11249.000000 -210.000000 C 11287.666667 -154.666667 11322.000000 -99.666667 11352.000000 -45.000000 C 11382.000000 9.000000 11404.666667 58.000000 11420.000000 102.000000 C 11402.000000 110.333333 11384.000000 118.666667 11366.000000 127.000000 C 11350.666667 83.000000 11328.000000 33.666667 11298.000000 -21.000000 C 11268.000000 -76.333333 11234.000000 -131.666667 11196.000000 -187.000000 C 11158.666667 -243.000000 11119.333333 -294.666667 11078.000000 -342.000000z M 10527.000000 -724.000000 C 10541.333333 -736.000000 10555.666667 -748.000000 10570.000000 -760.000000 C 10619.333333 -722.000000 10669.000000 -679.666667 10719.000000 -633.000000 C 10769.000000 -587.000000 10815.000000 -541.666667 10857.000000 -497.000000 C 10899.666667 -452.333333 10933.666667 -411.333333 10959.000000 -374.000000 C 10943.666667 -360.666667 10928.333333 -347.333333 10913.000000 -334.000000 C 10887.666667 -371.333333 10854.000000 -413.000000 10812.000000 -459.000000 C 10770.666667 -505.000000 10725.000000 -551.333333 10675.000000 -598.000000 C 10625.000000 -644.666667 10575.666667 -686.666667 10527.000000 -724.000000z M 10547.000000 -25.000000 C 10643.666667 -31.666667 10760.000000 -39.333333 10896.000000 -48.000000 C 11032.000000 -56.666667 11171.000000 -66.333333 11313.000000 -77.000000 C 11313.000000 -60.333333 11313.000000 -43.666667 11313.000000 -27.000000 C 11175.666667 -14.333333 11040.666667 -2.666667 10908.000000 8.000000 C 10776.000000 19.333333 10658.666667 28.333333 10556.000000 35.000000 C 10553.000000 15.000000 10550.000000 -5.000000 10547.000000 -25.000000z M 9729.000000 -1223.000000 C 10285.000000 -1223.000000 10841.000000 -1223.000000 11397.000000 -1223.000000 C 11397.000000 -1204.333333 11397.000000 -1185.666667 11397.000000 -1167.000000 C 10841.000000 -1167.000000 10285.000000 -1167.000000 9729.000000 -1167.000000 C 9729.000000 -1185.666667 9729.000000 -1204.333333 9729.000000 -1223.000000z M 10036.000000 -1567.000000 C 10052.666667 -1573.333333 10069.333333 -1579.666667 10086.000000 -1586.000000 C 10114.000000 -1552.666667 10141.666667 -1516.333333 10169.000000 -1477.000000 C 10197.000000 -1438.333333 10222.000000 -1400.333333 10244.000000 -1363.000000 C 10266.666667 -1326.333333 10284.333333 -1293.000000 10297.000000 -1263.000000 C 10279.000000 -1254.000000 10261.000000 -1245.000000 10243.000000 -1236.000000 C 10231.666667 -1266.000000 10214.666667 -1300.000000 10192.000000 -1338.000000 C 10170.000000 -1376.666667 10145.333333 -1416.000000 10118.000000 -1456.000000 C 10091.333333 -1496.666667 10064.000000 -1533.666667 10036.000000 -1567.000000z M 11004.000000 -1592.000000 C 11022.333333 -1583.000000 11040.666667 -1574.000000 11059.000000 -1565.000000 C 11023.000000 -1508.333333 10983.333333 -1447.666667 10940.000000 -1383.000000 C 10896.666667 -1318.333333 10855.666667 -1263.666667 10817.000000 -1219.000000 C 10803.000000 -1227.333333 10789.000000 -1235.666667 10775.000000 -1244.000000 C 10800.333333 -1274.666667 10827.000000 -1310.333333 10855.000000 -1351.000000 C 10883.666667 -1392.333333 10911.000000 -1434.000000 10937.000000 -1476.000000 C 10963.666667 -1518.666667 10986.000000 -1557.333333 11004.000000 -1592.000000z "/>
</g></svg>
