<?xml version="1.0" encoding="utf-8"?>
<svg xmlns="http://www.w3.org/2000/svg" xmlns:ev="http://www.w3.org/2001/xml-events" xmlns:xlink="http://www.w3.org/1999/xlink" version="1.1" baseProfile="full" width="41856.0" height="1776.0" viewBox="67.0 -1634.0 41856.0 1776.0">
<defs/>
<g><path d="M 2352.000000 -1131.000000 C 2352.000000 -1038.666667 2352.000000 -946.333333 2352.000000 -854.000000 C 2703.333333 -854.000000 3054.666667 -854.000000 3406.000000 -854.000000 C 3406.000000 -946.333333 3406.000000 -1038.666667 3406.000000 -1131.000000 C 3054.666667 -1131.000000 2703.333333 -1131.000000 2352.000000 -1131.000000z M 2352.000000 -799.000000 C 2352.000000 -705.333333 2352.000000 -611.666667 2352.000000 -518.000000 C 2703.333333 -518.000000 3054.666667 -518.000000 3406.000000 -518.000000 C 3406.000000 -611.666667 3406.000000 -705.333333 3406.000000 -799.000000 C 3054.666667 -799.000000 2703.333333 -799.000000 2352.000000 -799.000000z M 2352.000000 -1463.000000 C 2352.000000 -1371.333333 2352.000000 -1279.666667 2352.000000 -1188.000000 C 2703.333333 -1188.000000 3054.666667 -1188.000000 3406.000000 -1188.000000 C 3406.000000 -1279.666667 3406.000000 -1371.333333 3406.000000 -1463.000000 C 3054.666667 -1463.000000 2703.333333 -1463.000000 2352.000000 -1463.000000z M 2294.000000 -1519.000000 C 2684.000000 -1519.000000 3074.000000 -1519.000000 3464.000000 -1519.000000 C 3464.000000 -1166.333333 3464.000000 -813.666667 3464.000000 -461.000000 C 3074.000000 -461.000000 2684.000000 -461.000000 2294.000000 -461.000000 C 2294.000000 -813.666667 2294.000000 -1166.333333 2294.000000 -1519.000000z M 3037.000000 -493.000000 C 3056.333333 -493.000000 3075.666667 -493.000000 3095.000000 -493.000000 C 3095.000000 -327.333333 3095.000000 -161.666667 3095.000000 4.000000 C 3095.000000 28.000000 3102.333333 43.666667 3117.000000 51.000000 C 3131.666667 59.000000 3162.666667 63.000000 3210.000000 63.000000 C 3222.000000 63.000000 3244.333333 63.000000 3277.000000 63.000000 C 3310.333333 63.000000 3347.333333 63.000000 3388.000000 63.000000 C 3429.333333 63.000000 3467.666667 63.000000 3503.000000 63.000000 C 3538.333333 63.000000 3564.333333 63.000000 3581.000000 63.000000 C 3611.666667 63.000000 3634.333333 56.666667 3649.000000 44.000000 C 3663.666667 31.333333 3673.666667 4.666667 3679.000000 -36.000000 C 3685.000000 -77.333333 3689.333333 -139.666667 3692.000000 -223.000000 C 3697.333333 -219.000000 3703.000000 -215.000000 3709.000000 -211.000000 C 3715.666667 -207.000000 3722.333333 -203.666667 3729.000000 -201.000000 C 3736.333333 -199.000000 3742.666667 -197.333333 3748.000000 -196.000000 C 3745.333333 -111.333333 3739.333333 -46.000000 3730.000000 0.000000 C 3721.333333 46.000000 3705.666667 77.666667 3683.000000 95.000000 C 3661.000000 112.333333 3627.666667 121.000000 3583.000000 121.000000 C 3576.333333 121.000000 3560.333333 121.000000 3535.000000 121.000000 C 3510.333333 121.000000 3481.333333 121.000000 3448.000000 121.000000 C 3414.666667 121.000000 3381.000000 121.000000 3347.000000 121.000000 C 3313.666667 121.000000 3284.666667 121.000000 3260.000000 121.000000 C 3236.000000 121.000000 3220.666667 121.000000 3214.000000 121.000000 C 3169.333333 121.000000 3133.666667 118.000000 3107.000000 112.000000 C 3081.000000 106.666667 3062.666667 95.333333 3052.000000 78.000000 C 3042.000000 60.666667 3037.000000 36.000000 3037.000000 4.000000 C 3037.000000 -161.666667 3037.000000 -327.333333 3037.000000 -493.000000z M 2584.000000 -490.000000 C 2604.666667 -490.000000 2625.333333 -490.000000 2646.000000 -490.000000 C 2634.000000 -406.666667 2615.333333 -332.000000 2590.000000 -266.000000 C 2564.666667 -200.000000 2529.000000 -141.666667 2483.000000 -91.000000 C 2437.666667 -40.333333 2379.666667 3.000000 2309.000000 39.000000 C 2239.000000 75.666667 2153.000000 106.333333 2051.000000 131.000000 C 2049.666667 127.000000 2046.666667 121.666667 2042.000000 115.000000 C 2037.333333 109.000000 2032.333333 103.000000 2027.000000 97.000000 C 2022.333333 91.000000 2018.000000 86.333333 2014.000000 83.000000 C 2114.000000 61.000000 2198.000000 32.666667 2266.000000 -2.000000 C 2334.666667 -36.666667 2390.666667 -77.333333 2434.000000 -124.000000 C 2478.000000 -170.666667 2511.333333 -224.333333 2534.000000 -285.000000 C 2557.333333 -345.666667 2574.000000 -414.000000 2584.000000 -490.000000z "/>
</g></svg>
