<?xml version="1.0" encoding="utf-8"?>
<svg xmlns="http://www.w3.org/2000/svg" xmlns:ev="http://www.w3.org/2001/xml-events" xmlns:xlink="http://www.w3.org/1999/xlink" version="1.1" baseProfile="full" width="30496.0" height="1753.0" viewBox="136.0 -1597.0 30496.0 1753.0">
<defs/>
<g><path d="M 21590.000000 -6.000000 C 21921.000000 -6.000000 22252.000000 -6.000000 22583.000000 -6.000000 C 22583.000000 12.666667 22583.000000 31.333333 22583.000000 50.000000 C 22252.000000 50.000000 21921.000000 50.000000 21590.000000 50.000000 C 21590.000000 31.333333 21590.000000 12.666667 21590.000000 -6.000000z M 21564.000000 -609.000000 C 21914.000000 -609.000000 22264.000000 -609.000000 22614.000000 -609.000000 C 22614.000000 -362.000000 22614.000000 -115.000000 22614.000000 132.000000 C 22595.333333 132.000000 22576.666667 132.000000 22558.000000 132.000000 C 22558.000000 -95.666667 22558.000000 -323.333333 22558.000000 -551.000000 C 22245.666667 -551.000000 21933.333333 -551.000000 21621.000000 -551.000000 C 21621.000000 -321.333333 21621.000000 -91.666667 21621.000000 138.000000 C 21602.000000 138.000000 21583.000000 138.000000 21564.000000 138.000000 C 21564.000000 -111.000000 21564.000000 -360.000000 21564.000000 -609.000000z M 22072.000000 -1183.000000 C 22020.000000 -1095.666667 21951.000000 -1005.333333 21865.000000 -912.000000 C 21779.000000 -818.666667 21683.333333 -729.666667 21578.000000 -645.000000 C 21472.666667 -560.333333 21363.666667 -486.666667 21251.000000 -424.000000 C 21247.000000 -430.666667 21241.666667 -437.333333 21235.000000 -444.000000 C 21229.000000 -451.333333 21222.000000 -458.333333 21214.000000 -465.000000 C 21328.000000 -526.333333 21438.000000 -599.333333 21544.000000 -684.000000 C 21650.666667 -769.333333 21747.000000 -860.000000 21833.000000 -956.000000 C 21919.666667 -1052.000000 21988.666667 -1147.333333 22040.000000 -1242.000000 C 22057.666667 -1242.000000 22075.333333 -1242.000000 22093.000000 -1242.000000 C 22143.000000 -1166.666667 22201.666667 -1092.333333 22269.000000 -1019.000000 C 22336.333333 -946.333333 22408.333333 -876.666667 22485.000000 -810.000000 C 22561.666667 -743.333333 22640.000000 -682.666667 22720.000000 -628.000000 C 22800.000000 -574.000000 22878.000000 -528.000000 22954.000000 -490.000000 C 22947.333333 -483.333333 22940.333333 -475.000000 22933.000000 -465.000000 C 22926.333333 -455.666667 22920.333333 -448.000000 22915.000000 -442.000000 C 22813.000000 -496.666667 22709.000000 -563.666667 22603.000000 -643.000000 C 22497.666667 -722.333333 22398.666667 -808.333333 22306.000000 -901.000000 C 22214.000000 -994.333333 22136.000000 -1088.333333 22072.000000 -1183.000000z M 22301.000000 -1509.000000 C 22315.000000 -1520.666667 22329.000000 -1532.333333 22343.000000 -1544.000000 C 22408.333333 -1500.000000 22474.666667 -1451.000000 22542.000000 -1397.000000 C 22610.000000 -1343.666667 22673.333333 -1290.333333 22732.000000 -1237.000000 C 22791.333333 -1184.333333 22839.000000 -1136.000000 22875.000000 -1092.000000 C 22859.666667 -1078.666667 22844.333333 -1065.333333 22829.000000 -1052.000000 C 22793.000000 -1095.333333 22746.000000 -1144.333333 22688.000000 -1199.000000 C 22630.666667 -1253.666667 22568.000000 -1308.000000 22500.000000 -1362.000000 C 22432.666667 -1416.666667 22366.333333 -1465.666667 22301.000000 -1509.000000z M 21800.000000 -1542.000000 C 21817.666667 -1535.666667 21835.333333 -1529.333333 21853.000000 -1523.000000 C 21808.333333 -1461.000000 21757.666667 -1400.666667 21701.000000 -1342.000000 C 21645.000000 -1283.333333 21586.666667 -1228.000000 21526.000000 -1176.000000 C 21465.333333 -1124.000000 21405.666667 -1077.666667 21347.000000 -1037.000000 C 21344.333333 -1041.000000 21339.666667 -1045.000000 21333.000000 -1049.000000 C 21327.000000 -1053.666667 21320.666667 -1058.333333 21314.000000 -1063.000000 C 21307.333333 -1068.333333 21301.666667 -1072.333333 21297.000000 -1075.000000 C 21358.333333 -1115.000000 21419.666667 -1159.666667 21481.000000 -1209.000000 C 21542.333333 -1259.000000 21600.000000 -1312.333333 21654.000000 -1369.000000 C 21708.666667 -1426.333333 21757.333333 -1484.000000 21800.000000 -1542.000000z "/>
</g></svg>
