<?xml version="1.0" ?>
<svg xmlns="http://www.w3.org/2000/svg" version="1.1" width="600" height="600">
  <defs/>
  <g>
    <path stroke-width="0" fill="rgb(0, 0, 0)" opacity="1.0" d="M 230.91845703125 286.39886474609375 C 314.4249267578125 286.39886474609375 397.9312744140625 286.39886474609375 481.437744140625 286.39886474609375 C 481.437744140625 290.4219665527344 481.437744140625 294.4450988769531 481.437744140625 298.46820068359375 C 397.9312744140625 298.46820068359375 314.4249267578125 298.46820068359375 230.91845703125 298.46820068359375 C 230.91845703125 294.4450988769531 230.91845703125 290.4219665527344 230.91845703125 286.39886474609375M 277.7347412109375 335.092529296875 C 338.9775390625 335.092529296875 400.2200927734375 335.092529296875 461.4627685546875 335.092529296875 C 461.4627685546875 338.97686767578125 461.4627685546875 342.86126708984375 461.4627685546875 346.74566650390625 C 400.2200927734375 346.74566650390625 338.9775390625 346.74566650390625 277.7347412109375 346.74566650390625 C 277.7347412109375 342.86126708984375 277.7347412109375 338.97686767578125 277.7347412109375 335.092529296875M 301.2469482421875 291.1849670410156 C 304.9923095703125 292.2254333496094 308.737548828125 293.2658996582031 312.48291015625 294.3063659667969 C 302.0792236328125 315.6705322265625 288.4158935546875 335.5086669921875 271.49267578125 353.82080078125 C 254.5693359375 371.9942626953125 237.02197265625 387.32373046875 218.850341796875 399.80926513671875 C 218.4342041015625 398.97686767578125 217.6712646484375 398.07513427734375 216.5615234375 397.10400390625 C 215.4517822265625 395.99420166015625 214.272705078125 394.9537353515625 213.0242919921875 393.982666015625 C 211.91455078125 392.872802734375 210.8048095703125 392.04046630859375 209.695068359375 391.48553466796875 C 228.1441650390625 379.693603515625 245.552978515625 365.127197265625 261.9212646484375 347.7861328125 C 278.2896728515625 330.306396484375 291.398193359375 311.4393310546875 301.2469482421875 291.1849670410156M 457.925537109375 335.092529296875 C 461.87890625 335.092529296875 465.832275390625 335.092529296875 469.78564453125 335.092529296875 C 469.78564453125 335.092529296875 469.71630859375 336.0635986328125 469.57763671875 338.00579833984375 C 469.43896484375 339.80926513671875 469.2308349609375 341.4046630859375 468.953369140625 342.7918701171875 C 466.8726806640625 371.7861328125 464.5838623046875 395.092529296875 462.0870361328125 412.71099853515625 C 459.728759765625 430.1907958984375 457.23193359375 443.4393310546875 454.596435546875 452.4566650390625 C 451.9608154296875 461.61273193359375 448.7703857421875 468.0635986328125 445.0250244140625 471.8092041015625 C 442.3895263671875 474.445068359375 439.615234375 476.17919921875 436.7021484375 477.0115966796875 C 433.7891845703125 477.84393310546875 430.0438232421875 478.3294677734375 425.46630859375 478.46820068359375 C 421.4434814453125 478.46820068359375 415.8948974609375 478.3988037109375 408.8204345703125 478.2601318359375 C 401.8846435546875 478.2601318359375 394.5328369140625 477.982666015625 386.7647705078125 477.427734375 C 386.7647705078125 475.76300048828125 386.4873046875 473.82080078125 385.9324951171875 471.6011962890625 C 385.377685546875 469.3814697265625 384.6146240234375 467.4393310546875 383.6436767578125 465.7745361328125 C 392.3826904296875 466.60693359375 400.35888671875 467.161865234375 407.572021484375 467.4393310546875 C 414.9239501953125 467.716796875 420.125732421875 467.85546875 423.177490234375 467.85546875 C 426.0904541015625 467.85546875 428.5179443359375 467.64739990234375 430.4599609375 467.231201171875 C 432.540771484375 466.8150634765625 434.205322265625 465.6358642578125 435.4537353515625 463.693603515625 C 438.6441650390625 460.78033447265625 441.48779296875 454.8843994140625 443.9847412109375 446.0057373046875 C 446.6202392578125 437.127197265625 449.0478515625 423.947998046875 451.2672119140625 406.46820068359375 C 453.4866943359375 388.9884033203125 455.7061767578125 366.1676025390625 457.925537109375 338.00579833984375 C 457.925537109375 337.03466796875 457.925537109375 336.0635986328125 457.925537109375 335.092529296875M 286.473876953125 200.4566650390625 C 286.473876953125 215.231201171875 286.473876953125 230.00579833984375 286.473876953125 244.78033447265625 C 337.72900390625 244.78033447265625 388.984130859375 244.78033447265625 440.2393798828125 244.78033447265625 C 440.2393798828125 230.00579833984375 440.2393798828125 215.231201171875 440.2393798828125 200.4566650390625 C 388.984130859375 200.4566650390625 337.72900390625 200.4566650390625 286.473876953125 200.4566650390625M 286.473876953125 144.47976684570312 C 286.473876953125 159.18496704101562 286.473876953125 173.89019775390625 286.473876953125 188.59536743164062 C 337.72900390625 188.59536743164062 388.984130859375 188.59536743164062 440.2393798828125 188.59536743164062 C 440.2393798828125 173.89019775390625 440.2393798828125 159.18496704101562 440.2393798828125 144.47976684570312 C 388.984130859375 144.47976684570312 337.72900390625 144.47976684570312 286.473876953125 144.47976684570312M 274.4056396484375 133.03469848632812 C 333.567626953125 133.03469848632812 392.7294921875 133.03469848632812 451.8914794921875 133.03469848632812 C 451.8914794921875 174.30636596679688 451.8914794921875 215.57803344726562 451.8914794921875 256.8497314453125 C 392.7294921875 256.8497314453125 333.567626953125 256.8497314453125 274.4056396484375 256.8497314453125 C 274.4056396484375 215.57803344726562 274.4056396484375 174.30636596679688 274.4056396484375 133.03469848632812M 125.8419189453125 208.15606689453125 C 164.057861328125 208.15606689453125 202.27392578125 208.15606689453125 240.4898681640625 208.15606689453125 C 240.4898681640625 212.10983276367188 240.4898681640625 216.0635986328125 240.4898681640625 220.017333984375 C 202.27392578125 220.017333984375 164.057861328125 220.017333984375 125.8419189453125 220.017333984375 C 125.8419189453125 216.0635986328125 125.8419189453125 212.10983276367188 125.8419189453125 208.15606689453125M 178.900390625 120.54913330078125 C 182.923095703125 120.54913330078125 186.94580078125 120.54913330078125 190.9686279296875 120.54913330078125 C 190.9686279296875 201.56646728515625 190.9686279296875 282.58380126953125 190.9686279296875 363.6011962890625 C 186.94580078125 363.6011962890625 182.923095703125 363.6011962890625 178.900390625 363.6011962890625 C 178.900390625 282.58380126953125 178.900390625 201.56646728515625 178.900390625 120.54913330078125M 119.3916015625 386.699462890625 C 129.517822265625 382.12139892578125 141.1005859375 376.71099853515625 154.1397705078125 370.46820068359375 C 167.3177490234375 364.2254638671875 181.258544921875 357.4970703125 195.9622802734375 350.283203125 C 210.8048095703125 343.0693359375 225.6473388671875 335.85546875 240.4898681640625 328.6416015625 C 241.4608154296875 332.5260009765625 242.431884765625 336.410400390625 243.40283203125 340.2947998046875 C 222.5955810546875 350.4219970703125 201.718994140625 360.6185302734375 180.7730712890625 370.8843994140625 C 159.8271484375 381.1502685546875 141.2392578125 390.306396484375 125.0096435546875 398.35260009765625 C 123.136962890625 394.46820068359375 121.2642822265625 390.58380126953125 119.3916015625 386.699462890625M 401.5379638671875 336.7572021484375 C 404.7283935546875 338.35260009765625 407.9188232421875 339.947998046875 411.1092529296875 341.5433349609375 C 406.254150390625 359.4393310546875 399.526611328125 377.33526611328125 390.92626953125 395.231201171875 C 382.3258056640625 412.9884033203125 372.5465087890625 429.3583984375 361.5880126953125 444.341064453125 C 350.6295166015625 459.1849365234375 338.9080810546875 471.25433349609375 326.4237060546875 480.54913330078125 C 325.31396484375 479.161865234375 323.7882080078125 477.7052001953125 321.84619140625 476.17919921875 C 320.0428466796875 474.7918701171875 318.239501953125 473.75146484375 316.436279296875 473.05780029296875 C 328.6431884765625 464.17919921875 340.3646240234375 452.4566650390625 351.6005859375 437.89013671875 C 362.83642578125 423.1849365234375 372.7545166015625 407.02313232421875 381.3548583984375 389.4046630859375 C 389.9552001953125 371.64739990234375 396.682861328125 354.0982666015625 401.5379638671875 336.7572021484375M 337.2435302734375 338.4219970703125 C 340.4339599609375 340.15606689453125 343.6243896484375 341.89019775390625 346.8148193359375 343.624267578125 C 339.8790283203125 358.74566650390625 330.9320068359375 374.00579833984375 319.9735107421875 389.4046630859375 C 309.1536865234375 404.66473388671875 297.0855712890625 418.74566650390625 283.7689208984375 431.64739990234375 C 270.5909423828125 444.54913330078125 257.34375 455.231201171875 244.027099609375 463.693603515625 C 243.0560302734375 462.445068359375 241.73828125 460.9190673828125 240.07373046875 459.1156005859375 C 238.5477294921875 457.45086669921875 236.95263671875 456.0635986328125 235.2879638671875 454.9537353515625 C 248.3271484375 447.32373046875 261.435791015625 437.265869140625 274.61376953125 424.78033447265625 C 287.7916259765625 412.15606689453125 299.85986328125 398.35260009765625 310.818359375 383.36993408203125 C 321.7767333984375 368.24853515625 330.585205078125 353.265869140625 337.2435302734375 338.4219970703125"/>
  </g>
</svg>
