<?xml version="1.0" encoding="utf-8"?>
<svg xmlns="http://www.w3.org/2000/svg" xmlns:ev="http://www.w3.org/2001/xml-events" xmlns:xlink="http://www.w3.org/1999/xlink" version="1.1" baseProfile="full" width="7216.0" height="1556.0" viewBox="186.0 -1496.0 7216.0 1556.0">
<defs/>
<g><path d="M 1085.000000 -1471.000000 C 1082.333333 -1457.000000 1079.333333 -1436.666667 1076.000000 -1410.000000 C 1072.666667 -1384.000000 1070.000000 -1360.000000 1068.000000 -1338.000000 C 1058.666667 -1269.333333 1049.333333 -1199.666667 1040.000000 -1129.000000 C 1031.333333 -1058.333333 1019.333333 -987.000000 1004.000000 -915.000000 C 988.666667 -843.666667 967.666667 -771.000000 941.000000 -697.000000 C 909.000000 -609.666667 872.666667 -527.666667 832.000000 -451.000000 C 792.000000 -374.333333 749.000000 -306.666667 703.000000 -248.000000 C 657.000000 -190.000000 607.333333 -144.666667 554.000000 -112.000000 C 500.666667 -79.333333 444.666667 -63.000000 386.000000 -63.000000 C 347.333333 -63.000000 313.000000 -74.000000 283.000000 -96.000000 C 253.000000 -118.000000 229.333333 -148.000000 212.000000 -186.000000 C 194.666667 -224.666667 186.000000 -269.666667 186.000000 -321.000000 C 186.000000 -410.333333 199.666667 -492.666667 227.000000 -568.000000 C 255.000000 -644.000000 290.666667 -713.333333 334.000000 -776.000000 C 364.666667 -824.666667 404.666667 -873.666667 454.000000 -923.000000 C 503.333333 -973.000000 561.333333 -1019.000000 628.000000 -1061.000000 C 694.666667 -1103.666667 769.333333 -1138.000000 852.000000 -1164.000000 C 935.333333 -1190.666667 1027.000000 -1204.000000 1127.000000 -1204.000000 C 1196.333333 -1204.000000 1263.000000 -1192.333333 1327.000000 -1169.000000 C 1391.000000 -1146.333333 1448.333333 -1112.666667 1499.000000 -1068.000000 C 1550.333333 -1024.000000 1591.000000 -969.000000 1621.000000 -903.000000 C 1651.666667 -837.000000 1667.000000 -761.333333 1667.000000 -676.000000 C 1667.000000 -572.000000 1658.000000 -478.666667 1640.000000 -396.000000 C 1622.000000 -314.000000 1594.666667 -243.333333 1558.000000 -184.000000 C 1521.333333 -125.333333 1475.666667 -80.666667 1421.000000 -50.000000 C 1367.000000 -19.333333 1303.666667 -4.000000 1231.000000 -4.000000 C 1149.000000 -4.000000 1084.333333 -23.666667 1037.000000 -63.000000 C 989.666667 -103.000000 966.000000 -155.666667 966.000000 -221.000000 C 966.000000 -261.666667 977.666667 -298.333333 1001.000000 -331.000000 C 1025.000000 -363.666667 1057.666667 -389.333333 1099.000000 -408.000000 C 1141.000000 -426.666667 1188.000000 -436.000000 1240.000000 -436.000000 C 1310.666667 -436.000000 1375.666667 -424.666667 1435.000000 -402.000000 C 1494.333333 -380.000000 1548.333333 -352.000000 1597.000000 -318.000000 C 1645.666667 -284.000000 1688.666667 -248.666667 1726.000000 -212.000000 C 1763.333333 -175.333333 1794.666667 -142.333333 1820.000000 -113.000000 C 1806.000000 -95.333333 1792.000000 -77.666667 1778.000000 -60.000000 C 1753.333333 -90.666667 1723.000000 -124.333333 1687.000000 -161.000000 C 1651.666667 -198.333333 1611.333333 -234.000000 1566.000000 -268.000000 C 1520.666667 -302.000000 1470.666667 -329.666667 1416.000000 -351.000000 C 1361.333333 -373.000000 1302.666667 -384.000000 1240.000000 -384.000000 C 1166.000000 -384.000000 1110.333333 -366.666667 1073.000000 -332.000000 C 1036.333333 -297.333333 1018.000000 -261.000000 1018.000000 -223.000000 C 1018.000000 -174.333333 1036.666667 -134.333333 1074.000000 -103.000000 C 1112.000000 -71.666667 1164.333333 -56.000000 1231.000000 -56.000000 C 1303.666667 -56.000000 1364.333333 -72.666667 1413.000000 -106.000000 C 1461.666667 -140.000000 1500.333333 -186.000000 1529.000000 -244.000000 C 1557.666667 -302.666667 1578.333333 -369.000000 1591.000000 -443.000000 C 1604.333333 -517.666667 1611.000000 -594.666667 1611.000000 -674.000000 C 1611.000000 -731.333333 1601.000000 -788.333333 1581.000000 -845.000000 C 1561.000000 -902.333333 1530.666667 -954.000000 1490.000000 -1000.000000 C 1450.000000 -1046.000000 1399.666667 -1082.666667 1339.000000 -1110.000000 C 1278.333333 -1138.000000 1207.000000 -1152.000000 1125.000000 -1152.000000 C 1019.000000 -1152.000000 919.000000 -1135.000000 825.000000 -1101.000000 C 731.000000 -1067.000000 645.666667 -1019.333333 569.000000 -958.000000 C 493.000000 -896.666667 428.000000 -824.333333 374.000000 -741.000000 C 343.333333 -692.333333 318.000000 -645.333333 298.000000 -600.000000 C 278.666667 -554.666667 264.000000 -509.333333 254.000000 -464.000000 C 244.666667 -419.333333 240.000000 -372.333333 240.000000 -323.000000 C 240.000000 -259.666667 255.666667 -209.666667 287.000000 -173.000000 C 318.333333 -137.000000 350.666667 -119.000000 384.000000 -119.000000 C 434.000000 -119.000000 482.666667 -134.000000 530.000000 -164.000000 C 577.333333 -194.000000 622.666667 -236.333333 666.000000 -291.000000 C 710.000000 -346.333333 751.666667 -410.666667 791.000000 -484.000000 C 831.000000 -558.000000 867.000000 -638.666667 899.000000 -726.000000 C 920.333333 -786.000000 938.333333 -851.666667 953.000000 -923.000000 C 967.666667 -995.000000 979.333333 -1066.333333 988.000000 -1137.000000 C 997.333333 -1208.333333 1004.666667 -1272.333333 1010.000000 -1329.000000 C 1012.666667 -1353.000000 1014.000000 -1376.333333 1014.000000 -1399.000000 C 1014.000000 -1422.333333 1012.666667 -1447.666667 1010.000000 -1475.000000 C 1035.000000 -1473.666667 1060.000000 -1472.333333 1085.000000 -1471.000000z M 359.000000 -1290.000000 C 371.666667 -1235.333333 388.333333 -1176.666667 409.000000 -1114.000000 C 429.666667 -1051.333333 451.333333 -990.000000 474.000000 -930.000000 C 497.333333 -870.666667 519.000000 -816.000000 539.000000 -766.000000 C 559.666667 -716.000000 577.000000 -675.666667 591.000000 -645.000000 C 610.333333 -603.000000 635.333333 -555.333333 666.000000 -502.000000 C 696.666667 -448.666667 727.333333 -403.000000 758.000000 -365.000000 C 748.000000 -350.333333 738.000000 -335.666667 728.000000 -321.000000 C 707.333333 -345.000000 685.000000 -374.666667 661.000000 -410.000000 C 637.666667 -445.333333 616.000000 -481.000000 596.000000 -517.000000 C 576.000000 -553.666667 559.000000 -586.666667 545.000000 -616.000000 C 528.333333 -654.666667 508.000000 -703.000000 484.000000 -761.000000 C 460.666667 -819.666667 437.666667 -879.333333 415.000000 -940.000000 C 393.000000 -1000.666667 375.000000 -1052.666667 361.000000 -1096.000000 C 354.333333 -1119.333333 347.333333 -1141.333333 340.000000 -1162.000000 C 333.333333 -1183.333333 326.333333 -1203.000000 319.000000 -1221.000000 C 312.333333 -1239.000000 306.000000 -1255.000000 300.000000 -1269.000000 C 319.666667 -1276.000000 339.333333 -1283.000000 359.000000 -1290.000000z "/>
</g>
<g><path d="M 2404.000000 -1300.000000 C 2472.000000 -1290.666667 2548.000000 -1284.000000 2632.000000 -1280.000000 C 2716.666667 -1276.666667 2804.333333 -1275.000000 2895.000000 -1275.000000 C 2955.666667 -1275.000000 3014.333333 -1276.333333 3071.000000 -1279.000000 C 3127.666667 -1281.666667 3181.666667 -1285.000000 3233.000000 -1289.000000 C 3284.333333 -1293.666667 3331.666667 -1298.000000 3375.000000 -1302.000000 C 3375.000000 -1282.000000 3375.000000 -1262.000000 3375.000000 -1242.000000 C 3333.000000 -1239.333333 3285.666667 -1236.000000 3233.000000 -1232.000000 C 3181.000000 -1228.666667 3126.000000 -1225.666667 3068.000000 -1223.000000 C 3010.666667 -1220.333333 2953.000000 -1219.000000 2895.000000 -1219.000000 C 2803.000000 -1219.000000 2716.333333 -1221.000000 2635.000000 -1225.000000 C 2553.666667 -1229.000000 2476.666667 -1234.000000 2404.000000 -1240.000000 C 2404.000000 -1260.000000 2404.000000 -1280.000000 2404.000000 -1300.000000z M 2396.000000 -564.000000 C 2380.666667 -523.333333 2369.000000 -482.666667 2361.000000 -442.000000 C 2353.666667 -402.000000 2350.000000 -362.666667 2350.000000 -324.000000 C 2350.000000 -238.666667 2394.000000 -170.000000 2482.000000 -118.000000 C 2570.666667 -66.000000 2699.333333 -40.000000 2868.000000 -40.000000 C 2959.333333 -40.000000 3046.000000 -43.333333 3128.000000 -50.000000 C 3210.000000 -56.666667 3283.666667 -65.333333 3349.000000 -76.000000 C 3415.000000 -86.666667 3468.000000 -99.666667 3508.000000 -115.000000 C 3508.666667 -95.333333 3509.333333 -75.666667 3510.000000 -56.000000 C 3474.000000 -44.000000 3423.333333 -32.666667 3358.000000 -22.000000 C 3292.666667 -11.333333 3217.666667 -3.000000 3133.000000 3.000000 C 3049.000000 9.666667 2960.666667 13.000000 2868.000000 13.000000 C 2754.666667 13.000000 2655.000000 1.000000 2569.000000 -23.000000 C 2483.000000 -47.666667 2416.000000 -84.000000 2368.000000 -132.000000 C 2320.000000 -180.666667 2296.000000 -241.666667 2296.000000 -315.000000 C 2296.000000 -359.666667 2300.000000 -403.333333 2308.000000 -446.000000 C 2316.666667 -489.333333 2326.333333 -531.333333 2337.000000 -572.000000 C 2356.666667 -569.333333 2376.333333 -566.666667 2396.000000 -564.000000z "/>
</g>
<g><path d="M 4879.000000 -1359.000000 C 4873.666667 -1378.333333 4867.666667 -1399.000000 4861.000000 -1421.000000 C 4855.000000 -1443.666667 4848.666667 -1464.666667 4842.000000 -1484.000000 C 4865.000000 -1487.333333 4888.000000 -1490.666667 4911.000000 -1494.000000 C 4913.666667 -1469.333333 4920.333333 -1435.000000 4931.000000 -1391.000000 C 4942.333333 -1347.000000 4955.666667 -1300.333333 4971.000000 -1251.000000 C 4986.333333 -1201.666667 5001.000000 -1156.000000 5015.000000 -1114.000000 C 5044.333333 -1028.000000 5083.333333 -940.333333 5132.000000 -851.000000 C 5180.666667 -762.333333 5230.000000 -684.000000 5280.000000 -616.000000 C 5290.000000 -603.333333 5300.333333 -590.666667 5311.000000 -578.000000 C 5322.333333 -565.333333 5333.666667 -553.000000 5345.000000 -541.000000 C 5332.333333 -525.666667 5319.666667 -510.333333 5307.000000 -495.000000 C 5287.666667 -501.666667 5260.666667 -507.000000 5226.000000 -511.000000 C 5191.333333 -515.666667 5153.666667 -520.000000 5113.000000 -524.000000 C 5073.000000 -528.000000 5033.333333 -531.666667 4994.000000 -535.000000 C 4955.333333 -538.333333 4921.333333 -540.333333 4892.000000 -541.000000 C 4893.333333 -558.333333 4894.666667 -575.666667 4896.000000 -593.000000 C 4936.666667 -590.333333 4979.333333 -586.666667 5024.000000 -582.000000 C 5069.333333 -578.000000 5112.333333 -574.333333 5153.000000 -571.000000 C 5194.333333 -567.666667 5227.666667 -564.333333 5253.000000 -561.000000 C 5222.333333 -604.333333 5189.000000 -656.000000 5153.000000 -716.000000 C 5117.666667 -776.000000 5083.333333 -839.333333 5050.000000 -906.000000 C 5016.666667 -972.666667 4988.333333 -1037.333333 4965.000000 -1100.000000 C 4944.333333 -1158.000000 4927.000000 -1208.666667 4913.000000 -1252.000000 C 4899.000000 -1295.333333 4887.666667 -1331.000000 4879.000000 -1359.000000z M 4172.000000 -1150.000000 C 4266.666667 -1140.000000 4362.333333 -1132.333333 4459.000000 -1127.000000 C 4555.666667 -1121.666667 4648.666667 -1120.000000 4738.000000 -1122.000000 C 4828.000000 -1124.000000 4907.666667 -1128.333333 4977.000000 -1135.000000 C 5021.666667 -1139.666667 5072.666667 -1146.333333 5130.000000 -1155.000000 C 5188.000000 -1164.333333 5246.666667 -1176.333333 5306.000000 -1191.000000 C 5365.333333 -1205.666667 5419.333333 -1222.000000 5468.000000 -1240.000000 C 5470.000000 -1219.666667 5472.000000 -1199.333333 5474.000000 -1179.000000 C 5425.333333 -1165.000000 5372.000000 -1152.000000 5314.000000 -1140.000000 C 5256.666667 -1128.666667 5200.333333 -1118.333333 5145.000000 -1109.000000 C 5090.333333 -1100.333333 5042.000000 -1093.666667 5000.000000 -1089.000000 C 4883.333333 -1075.666667 4752.333333 -1069.333333 4607.000000 -1070.000000 C 4461.666667 -1070.666667 4318.000000 -1077.000000 4176.000000 -1089.000000 C 4174.666667 -1109.333333 4173.333333 -1129.666667 4172.000000 -1150.000000z M 4380.000000 -580.000000 C 4354.000000 -532.666667 4332.666667 -487.333333 4316.000000 -444.000000 C 4299.333333 -401.333333 4291.000000 -355.000000 4291.000000 -305.000000 C 4291.000000 -204.333333 4335.333333 -130.000000 4424.000000 -82.000000 C 4513.333333 -34.000000 4634.666667 -8.666667 4788.000000 -6.000000 C 4879.333333 -4.666667 4965.000000 -8.000000 5045.000000 -16.000000 C 5125.000000 -24.666667 5198.333333 -37.333333 5265.000000 -54.000000 C 5265.000000 -32.666667 5265.000000 -11.333333 5265.000000 10.000000 C 5199.666667 21.333333 5128.000000 30.666667 5050.000000 38.000000 C 4972.666667 46.000000 4885.000000 49.333333 4787.000000 48.000000 C 4675.666667 46.666667 4578.666667 33.000000 4496.000000 7.000000 C 4413.333333 -18.333333 4349.333333 -57.333333 4304.000000 -110.000000 C 4258.666667 -163.333333 4236.000000 -230.333333 4236.000000 -311.000000 C 4236.000000 -359.666667 4244.333333 -407.000000 4261.000000 -453.000000 C 4278.333333 -499.000000 4298.000000 -545.666667 4320.000000 -593.000000 C 4340.000000 -588.666667 4360.000000 -584.333333 4380.000000 -580.000000z "/>
</g>
<g><path d="M 6812.000000 -1496.000000 C 6810.666667 -1482.000000 6809.333333 -1466.333333 6808.000000 -1449.000000 C 6806.666667 -1431.666667 6805.333333 -1407.000000 6804.000000 -1375.000000 C 6804.000000 -1361.000000 6804.000000 -1337.000000 6804.000000 -1303.000000 C 6804.000000 -1269.000000 6804.000000 -1229.333333 6804.000000 -1184.000000 C 6804.000000 -1139.333333 6804.000000 -1093.666667 6804.000000 -1047.000000 C 6804.000000 -1000.333333 6804.000000 -956.666667 6804.000000 -916.000000 C 6804.000000 -841.333333 6805.333333 -766.666667 6808.000000 -692.000000 C 6810.666667 -617.333333 6813.666667 -546.666667 6817.000000 -480.000000 C 6820.333333 -413.333333 6823.000000 -354.666667 6825.000000 -304.000000 C 6827.666667 -253.333333 6829.000000 -214.666667 6829.000000 -188.000000 C 6829.000000 -153.333333 6821.333333 -116.666667 6806.000000 -78.000000 C 6790.666667 -40.000000 6761.666667 -7.666667 6719.000000 19.000000 C 6676.333333 46.333333 6613.333333 60.000000 6530.000000 60.000000 C 6407.333333 60.000000 6312.333333 40.000000 6245.000000 0.000000 C 6177.666667 -40.666667 6144.000000 -102.666667 6144.000000 -186.000000 C 6144.000000 -238.666667 6160.666667 -283.666667 6194.000000 -321.000000 C 6227.333333 -359.000000 6275.000000 -388.666667 6337.000000 -410.000000 C 6399.000000 -431.333333 6473.000000 -442.000000 6559.000000 -442.000000 C 6656.333333 -442.000000 6748.000000 -429.666667 6834.000000 -405.000000 C 6920.666667 -381.000000 7000.333333 -350.333333 7073.000000 -313.000000 C 7146.333333 -275.666667 7210.666667 -237.666667 7266.000000 -199.000000 C 7322.000000 -161.000000 7367.333333 -128.666667 7402.000000 -102.000000 C 7389.000000 -82.666667 7376.000000 -63.333333 7363.000000 -44.000000 C 7322.333333 -81.333333 7273.666667 -119.666667 7217.000000 -159.000000 C 7161.000000 -199.000000 7098.666667 -236.333333 7030.000000 -271.000000 C 6961.333333 -305.666667 6887.000000 -333.666667 6807.000000 -355.000000 C 6727.000000 -377.000000 6642.333333 -388.000000 6553.000000 -388.000000 C 6436.333333 -388.000000 6348.000000 -368.333333 6288.000000 -329.000000 C 6228.000000 -290.333333 6198.000000 -243.333333 6198.000000 -188.000000 C 6198.000000 -153.333333 6208.333333 -121.333333 6229.000000 -92.000000 C 6250.333333 -62.666667 6285.333333 -39.000000 6334.000000 -21.000000 C 6382.666667 -3.000000 6448.000000 6.000000 6530.000000 6.000000 C 6569.333333 6.000000 6607.333333 0.666667 6644.000000 -10.000000 C 6680.666667 -21.333333 6710.333333 -41.000000 6733.000000 -69.000000 C 6756.333333 -97.000000 6768.000000 -136.666667 6768.000000 -188.000000 C 6768.000000 -232.666667 6767.000000 -288.333333 6765.000000 -355.000000 C 6763.000000 -421.666667 6761.000000 -490.666667 6759.000000 -562.000000 C 6757.000000 -634.000000 6755.000000 -701.333333 6753.000000 -764.000000 C 6751.666667 -826.666667 6751.000000 -877.333333 6751.000000 -916.000000 C 6751.000000 -956.666667 6751.000000 -996.666667 6751.000000 -1036.000000 C 6751.000000 -1076.000000 6751.000000 -1115.666667 6751.000000 -1155.000000 C 6751.000000 -1195.000000 6751.000000 -1235.000000 6751.000000 -1275.000000 C 6751.000000 -1315.666667 6751.000000 -1356.000000 6751.000000 -1396.000000 C 6751.000000 -1411.333333 6750.666667 -1429.666667 6750.000000 -1451.000000 C 6749.333333 -1473.000000 6748.333333 -1488.000000 6747.000000 -1496.000000 C 6768.666667 -1496.000000 6790.333333 -1496.000000 6812.000000 -1496.000000z M 6140.000000 -1258.000000 C 6168.000000 -1252.666667 6203.333333 -1247.333333 6246.000000 -1242.000000 C 6289.333333 -1237.333333 6335.333333 -1232.666667 6384.000000 -1228.000000 C 6432.666667 -1223.333333 6480.000000 -1220.000000 6526.000000 -1218.000000 C 6572.000000 -1216.000000 6612.333333 -1215.000000 6647.000000 -1215.000000 C 6761.000000 -1215.000000 6880.333333 -1220.000000 7005.000000 -1230.000000 C 7129.666667 -1240.666667 7246.666667 -1255.000000 7356.000000 -1273.000000 C 7356.000000 -1252.666667 7356.000000 -1232.333333 7356.000000 -1212.000000 C 7277.333333 -1204.000000 7198.000000 -1196.000000 7118.000000 -1188.000000 C 7038.000000 -1180.666667 6958.666667 -1174.333333 6880.000000 -1169.000000 C 6801.333333 -1164.333333 6724.333333 -1162.000000 6649.000000 -1162.000000 C 6601.666667 -1162.000000 6545.333333 -1163.666667 6480.000000 -1167.000000 C 6414.666667 -1171.000000 6351.333333 -1175.333333 6290.000000 -1180.000000 C 6228.666667 -1185.333333 6178.666667 -1190.000000 6140.000000 -1194.000000 C 6140.000000 -1215.333333 6140.000000 -1236.666667 6140.000000 -1258.000000z M 6132.000000 -856.000000 C 6169.333333 -851.333333 6209.000000 -846.666667 6251.000000 -842.000000 C 6293.666667 -837.333333 6337.333333 -833.666667 6382.000000 -831.000000 C 6426.666667 -829.000000 6470.333333 -827.000000 6513.000000 -825.000000 C 6556.333333 -823.000000 6597.333333 -822.000000 6636.000000 -822.000000 C 6703.333333 -822.000000 6776.333333 -823.666667 6855.000000 -827.000000 C 6933.666667 -831.000000 7016.333333 -837.333333 7103.000000 -846.000000 C 7189.666667 -855.333333 7276.333333 -867.000000 7363.000000 -881.000000 C 7363.000000 -860.666667 7363.000000 -840.333333 7363.000000 -820.000000 C 7299.000000 -810.666667 7235.000000 -802.666667 7171.000000 -796.000000 C 7107.000000 -790.000000 7044.333333 -784.666667 6983.000000 -780.000000 C 6921.666667 -776.000000 6861.666667 -773.000000 6803.000000 -771.000000 C 6745.000000 -769.000000 6689.333333 -768.000000 6636.000000 -768.000000 C 6586.000000 -768.000000 6531.333333 -769.333333 6472.000000 -772.000000 C 6413.333333 -774.666667 6354.333333 -777.666667 6295.000000 -781.000000 C 6236.333333 -785.000000 6182.000000 -789.666667 6132.000000 -795.000000 C 6132.000000 -815.333333 6132.000000 -835.666667 6132.000000 -856.000000z "/>
</g>
</svg>
