<?xml version="1.0" ?>
<svg xmlns="http://www.w3.org/2000/svg" version="1.1" width="600" height="600">
  <defs/>
  <g>
    <path stroke-width="0" fill="rgb(0, 0, 0)" opacity="1.0" d="M 292.68408203125 391.03424072265625 C 342.10205078125 391.03424072265625 391.5205078125 391.03424072265625 440.9384765625 391.03424072265625 C 440.9384765625 394.86767578125 440.9384765625 398.7010498046875 440.9384765625 402.5345458984375 C 391.5205078125 402.5345458984375 342.10205078125 402.5345458984375 292.68408203125 402.5345458984375 C 292.68408203125 398.7010498046875 292.68408203125 394.86767578125 292.68408203125 391.03424072265625M 292.478515625 452.64288330078125 C 341.82861328125 452.64288330078125 391.177734375 452.64288330078125 440.52783203125 452.64288330078125 C 440.52783203125 456.4078369140625 440.52783203125 460.1728515625 440.52783203125 463.93780517578125 C 391.177734375 463.93780517578125 341.82861328125 463.93780517578125 292.478515625 463.93780517578125 C 292.478515625 460.1728515625 292.478515625 456.4078369140625 292.478515625 452.64288330078125M 262.91015625 174.9931640625 C 332.51953125 174.9931640625 402.12939453125 174.9931640625 471.7392578125 174.9931640625 C 471.7392578125 178.9635009765625 471.7392578125 182.933837890625 471.7392578125 186.9041748046875 C 402.12939453125 186.9041748046875 332.51953125 186.9041748046875 262.91015625 186.9041748046875 C 262.91015625 182.933837890625 262.91015625 178.9635009765625 262.91015625 174.9931640625M 254.08056640625 287.3262939453125 C 329.02880859375 287.3262939453125 403.9775390625 287.3262939453125 478.92578125 287.3262939453125 C 478.92578125 291.296630859375 478.92578125 295.2669677734375 478.92578125 299.2373046875 C 403.9775390625 299.2373046875 329.02880859375 299.2373046875 254.08056640625 299.2373046875 C 254.08056640625 295.2669677734375 254.08056640625 291.296630859375 254.08056640625 287.3262939453125M 331.90380859375 177.45751953125 C 335.80517578125 177.45751953125 339.70654296875 177.45751953125 343.60791015625 177.45751953125 C 343.60791015625 216.33941650390625 343.60791015625 255.22134399414062 343.60791015625 294.103271484375 C 339.70654296875 294.103271484375 335.80517578125 294.103271484375 331.90380859375 294.103271484375 C 331.90380859375 255.22134399414062 331.90380859375 216.33941650390625 331.90380859375 177.45751953125M 389.80908203125 177.45751953125 C 393.71044921875 177.45751953125 397.61181640625 177.45751953125 401.51318359375 177.45751953125 C 401.51318359375 216.33941650390625 401.51318359375 255.22134399414062 401.51318359375 294.103271484375 C 397.61181640625 294.103271484375 393.71044921875 294.103271484375 389.80908203125 294.103271484375 C 389.80908203125 255.22134399414062 389.80908203125 216.33941650390625 389.80908203125 177.45751953125M 423.68994140625 123.24188232421875 C 427.38623046875 125.09014892578125 431.08203125 126.93838500976562 434.7783203125 128.78665161132812 C 430.2607421875 137.00115966796875 425.46923828125 145.21563720703125 420.404296875 153.43011474609375 C 415.4765625 161.50772094726562 410.75341796875 168.5584716796875 406.236328125 174.58242797851562 C 403.08740234375 173.00799560546875 399.939453125 171.43353271484375 396.79052734375 169.85910034179688 C 401.30810546875 163.56134033203125 406.099609375 155.89447021484375 411.1640625 146.85855102539062 C 416.3662109375 137.68569946289062 420.54150390625 129.8134765625 423.68994140625 123.24188232421875M 449.357421875 204.97604370117188 C 453.2587890625 206.68740844726562 457.16015625 208.39874267578125 461.0615234375 210.110107421875 C 455.859375 220.65203857421875 450.1787109375 231.87847900390625 444.0185546875 243.78948974609375 C 437.8583984375 255.70050048828125 431.97216796875 265.9001770019531 426.359375 274.38848876953125 C 423.34765625 272.81402587890625 420.3359375 271.2395935058594 417.32421875 269.6651611328125 C 421.0205078125 263.9150085449219 424.853515625 257.20648193359375 428.8232421875 249.5396728515625 C 432.79345703125 241.872802734375 436.5576171875 234.13748168945312 440.1171875 226.333740234375 C 443.81298828125 218.39306640625 446.89306640625 211.2738037109375 449.357421875 204.97604370117188M 295.55859375 128.78665161132812 C 298.84423828125 127.34912109375 302.12939453125 125.91159057617188 305.4150390625 124.47406005859375 C 310.890625 131.59326171875 316.0927734375 139.53396606445312 321.0205078125 148.29608154296875 C 326.08544921875 156.92129516601562 329.576171875 164.38278198242188 331.4931640625 170.6805419921875 C 327.93359375 172.52880859375 324.37451171875 174.3770751953125 320.8154296875 176.225341796875 C 318.62548828125 169.65374755859375 315.13427734375 161.98687744140625 310.34326171875 153.22476196289062 C 305.68896484375 144.32571411132812 300.7607421875 136.1796875 295.55859375 128.78665161132812M 272.9716796875 208.8779296875 C 276.3935546875 207.7142333984375 279.81640625 206.55047607421875 283.23828125 205.38677978515625 C 289.3984375 215.10723876953125 295.01123046875 225.9229736328125 300.076171875 237.833984375 C 305.14111328125 249.60809326171875 308.6318359375 259.67083740234375 310.54833984375 268.0222473144531 C 306.9892578125 269.5966796875 303.43017578125 271.171142578125 299.87109375 272.74560546875 C 297.8173828125 264.120361328125 294.25830078125 253.7838134765625 289.193359375 241.73590087890625 C 284.26513671875 229.55105590820312 278.85791015625 218.59841918945312 272.9716796875 208.8779296875M 287.34521484375 330.0416259765625 C 341.21240234375 330.0416259765625 395.0791015625 330.0416259765625 448.94677734375 330.0416259765625 C 448.94677734375 379.05474853515625 448.94677734375 428.06787109375 448.94677734375 477.08099365234375 C 445.11376953125 477.08099365234375 441.2802734375 477.08099365234375 437.44775390625 477.08099365234375 C 437.44775390625 431.8328857421875 437.44775390625 386.584716796875 437.44775390625 341.3365478515625 C 391.177734375 341.3365478515625 344.90869140625 341.3365478515625 298.638671875 341.3365478515625 C 298.638671875 387.06390380859375 298.638671875 432.791259765625 298.638671875 478.5185546875 C 294.8740234375 478.5185546875 291.10986328125 478.5185546875 287.34521484375 478.5185546875 C 287.34521484375 429.0262451171875 287.34521484375 379.533935546875 287.34521484375 330.0416259765625M 137.4482421875 241.32516479492188 C 171.73974609375 241.32516479492188 206.03125 241.32516479492188 240.32275390625 241.32516479492188 C 240.32275390625 245.09014892578125 240.32275390625 248.8551025390625 240.32275390625 252.62008666992188 C 206.03125 252.62008666992188 171.73974609375 252.62008666992188 137.4482421875 252.62008666992188 C 137.4482421875 248.8551025390625 137.4482421875 245.09014892578125 137.4482421875 241.32516479492188M 139.50146484375 139.05477905273438 C 172.56103515625 139.05477905273438 205.62060546875 139.05477905273438 238.68017578125 139.05477905273438 C 238.68017578125 142.88818359375 238.68017578125 146.72164916992188 238.68017578125 150.5550537109375 C 205.62060546875 150.5550537109375 172.56103515625 150.5550537109375 139.50146484375 150.5550537109375 C 139.50146484375 146.72164916992188 139.50146484375 142.88818359375 139.50146484375 139.05477905273438M 137.4482421875 292.87109375 C 171.73974609375 292.87109375 206.03125 292.87109375 240.32275390625 292.87109375 C 240.32275390625 296.70452880859375 240.32275390625 300.5379333496094 240.32275390625 304.371337890625 C 206.03125 304.371337890625 171.73974609375 304.371337890625 137.4482421875 304.371337890625 C 137.4482421875 300.5379333496094 137.4482421875 296.70452880859375 137.4482421875 292.87109375M 121.2265625 189.16314697265625 C 164.34765625 189.16314697265625 207.46875 189.16314697265625 250.58984375 189.16314697265625 C 250.58984375 193.13351440429688 250.58984375 197.10382080078125 250.58984375 201.07415771484375 C 207.46875 201.07415771484375 164.34765625 201.07415771484375 121.2265625 201.07415771484375 C 121.2265625 197.10382080078125 121.2265625 193.13351440429688 121.2265625 189.16314697265625M 143.40283203125 344.62237548828125 C 175.57275390625 344.62237548828125 207.74267578125 344.62237548828125 239.912109375 344.62237548828125 C 239.912109375 381.3822021484375 239.912109375 418.14202880859375 239.912109375 454.90185546875 C 207.74267578125 454.90185546875 175.57275390625 454.90185546875 143.40283203125 454.90185546875 C 143.40283203125 451.0 143.40283203125 447.09814453125 143.40283203125 443.19622802734375 C 171.73974609375 443.19622802734375 200.07666015625 443.19622802734375 228.4130859375 443.19622802734375 C 228.4130859375 414.24017333984375 228.4130859375 385.2840576171875 228.4130859375 356.3280029296875 C 200.07666015625 356.3280029296875 171.73974609375 356.3280029296875 143.40283203125 356.3280029296875 C 143.40283203125 352.4261474609375 143.40283203125 348.52423095703125 143.40283203125 344.62237548828125M 137.4482421875 344.62237548828125 C 141.41845703125 344.62237548828125 145.3876953125 344.62237548828125 149.35791015625 344.62237548828125 C 149.35791015625 388.22760009765625 149.35791015625 431.8328857421875 149.35791015625 475.4381103515625 C 145.3876953125 475.4381103515625 141.41845703125 475.4381103515625 137.4482421875 475.4381103515625 C 137.4482421875 431.8328857421875 137.4482421875 388.22760009765625 137.4482421875 344.62237548828125"/>
  </g>
</svg>
