<?xml version="1.0" ?>
<svg xmlns="http://www.w3.org/2000/svg" version="1.1" width="600" height="600">
  <defs/>
  <g>
    <path stroke-width="0" fill="rgb(0, 0, 0)" opacity="1.0" d="M 395.1363525390625 136.64944458007812 C 398.917236328125 141.64312744140625 403.0006103515625 147.62045288085938 407.3865966796875 154.58132934570312 C 411.7725830078125 161.542236328125 416.0828857421875 168.65447998046875 420.3175048828125 175.91802978515625 C 424.7034912109375 183.18157958984375 428.484375 189.99118041992188 431.660400390625 196.3468017578125 C 427.652587890625 198.38967895507812 423.6446533203125 200.43252563476562 419.636962890625 202.47540283203125 C 415.553466796875 193.84994506835938 409.957763671875 183.71124267578125 402.8494873046875 172.05926513671875 C 395.7412109375 160.40731811523438 389.238037109375 150.49560546875 383.3397216796875 142.3240966796875 C 387.27197265625 140.43252563476562 391.2041015625 138.54098510742188 395.1363525390625 136.64944458007812M 439.146728515625 121.44137573242188 C 443.2301025390625 126.73773193359375 447.5404052734375 132.94198608398438 452.0775146484375 140.05422973632812 C 456.765869140625 147.16647338867188 461.378662109375 154.2786865234375 465.9158935546875 161.39093017578125 C 470.4530029296875 168.503173828125 474.1583251953125 174.93441772460938 477.0318603515625 180.68475341796875 C 472.948486328125 182.72763061523438 468.864990234375 184.7705078125 464.7816162109375 186.81338500976562 C 459.94189453125 176.977294921875 454.1192626953125 166.61160278320312 447.3135986328125 155.71627807617188 C 440.6590576171875 144.82095336914062 434.15576171875 135.28750610351562 427.8038330078125 127.11602783203125 C 431.584716796875 125.22445678710938 435.36572265625 123.33291625976562 439.146728515625 121.44137573242188M 275.8092041015625 140.28121948242188 C 275.5067138671875 144.82095336914062 275.204345703125 149.9659423828125 274.90185546875 155.71627807617188 C 274.599365234375 161.31524658203125 274.296875 166.76290893554688 273.994384765625 172.05926513671875 C 272.63330078125 217.60781860351562 268.322998046875 256.95208740234375 261.0634765625 290.092041015625 C 253.8040771484375 323.2320556640625 244.0491943359375 351.68096923828125 231.7989501953125 375.4388427734375 C 219.548583984375 399.04541015625 205.40771484375 419.2471923828125 189.37646484375 436.04412841796875 C 173.49658203125 452.6898193359375 156.1041259765625 467.36822509765625 137.19921875 480.0794677734375 C 133.040283203125 476.5989990234375 128.881103515625 473.1185302734375 124.72216796875 469.6380615234375 C 129.561767578125 467.36822509765625 134.9306640625 464.0390625 140.8291015625 459.65069580078125 C 146.8785400390625 455.2623291015625 152.09619140625 451.327880859375 156.482177734375 447.847412109375 C 169.48876953125 437.40606689453125 182.1170654296875 424.619140625 194.367431640625 409.48675537109375 C 206.61767578125 394.3543701171875 217.6580810546875 376.04412841796875 227.4886474609375 354.55615234375 C 237.319091796875 333.068115234375 245.2591552734375 307.41864013671875 251.30859375 277.6078186035156 C 257.5093994140625 247.64566040039062 260.760986328125 212.61410522460938 261.0634765625 172.51324462890625 C 261.0634765625 169.03277587890625 260.9879150390625 165.4766845703125 260.836669921875 161.84490966796875 C 260.6854248046875 158.213134765625 260.4586181640625 154.50567626953125 260.1561279296875 150.72256469726562 C 259.853515625 146.93948364257812 259.39990234375 143.45901489257812 258.794921875 140.28121948242188 C 264.4664306640625 140.28121948242188 270.1378173828125 140.28121948242188 275.8092041015625 140.28121948242188M 430.7529296875 227.89785766601562 C 430.2991943359375 231.68096923828125 429.921142578125 235.08575439453125 429.61865234375 238.11224365234375 C 429.316162109375 241.13873291015625 429.0137939453125 244.2408447265625 428.711181640625 247.41867065429688 C 428.40869140625 254.68222045898438 427.9549560546875 265.1992492675781 427.35009765625 278.9697265625 C 426.7451171875 292.740234375 425.7620849609375 308.099609375 424.40087890625 325.04791259765625 C 423.1910400390625 341.84490966796875 421.5274658203125 358.717529296875 419.4100341796875 375.66583251953125 C 417.4439697265625 392.4627685546875 415.024169921875 407.8978271484375 412.150634765625 421.97100830078125 C 409.277099609375 436.04412841796875 405.798583984375 447.01513671875 401.7152099609375 454.88397216796875 C 397.6317138671875 462.4501953125 392.640869140625 467.59521484375 386.7425537109375 470.31903076171875 C 380.9954833984375 473.0428466796875 373.5091552734375 474.40478515625 364.28369140625 474.40478515625 C 354.9068603515625 474.40478515625 344.2445068359375 474.17779541015625 332.2967529296875 473.723876953125 C 320.500244140625 473.421142578125 308.6279296875 472.96722412109375 296.68017578125 472.3619384765625 C 296.0751953125 467.51953125 295.47021484375 462.67718505859375 294.865234375 457.8348388671875 C 307.720458984375 459.04541015625 319.895263671875 460.02899169921875 331.389404296875 460.78564453125 C 342.8834228515625 461.542236328125 353.5457763671875 461.9205322265625 363.376220703125 461.9205322265625 C 368.82080078125 461.9205322265625 373.8873291015625 461.0882568359375 378.57568359375 459.4237060546875 C 383.2640380859375 457.6077880859375 386.893798828125 454.05169677734375 389.46484375 448.75537109375 C 393.54833984375 440.886474609375 397.02685546875 430.06683349609375 399.9002685546875 416.29638671875 C 402.7738037109375 402.52587890625 405.1937255859375 387.24212646484375 407.1597900390625 370.44512939453125 C 409.277099609375 353.496826171875 410.940673828125 336.548583984375 412.150634765625 319.6002502441406 C 413.360595703125 302.5006408691406 414.11669921875 286.687255859375 414.419189453125 272.16015625 C 414.8729248046875 257.4817199707031 415.0997314453125 245.45144653320312 415.0997314453125 236.06936645507812 C 332.977294921875 236.06936645507812 250.85498046875 236.06936645507812 168.732421875 236.06936645507812 C 158.750732421875 236.06936645507812 150.6595458984375 236.14501953125 144.458740234375 236.29632568359375 C 138.2579345703125 236.44766235351562 131.9815673828125 236.82598876953125 125.629638671875 237.4312744140625 C 125.629638671875 232.05926513671875 125.629638671875 226.687255859375 125.629638671875 221.31524658203125 C 131.67919921875 221.617919921875 138.182373046875 221.9962158203125 145.139404296875 222.4501953125 C 152.09619140625 222.9041748046875 159.809326171875 223.13116455078125 168.27880859375 223.13116455078125 C 244.5029296875 223.13116455078125 320.72705078125 223.13116455078125 396.951171875 223.13116455078125 C 403.0006103515625 223.13116455078125 407.6890869140625 222.9798583984375 411.016357421875 222.67718505859375 C 414.343505859375 222.37451171875 417.0657958984375 222.0718994140625 419.1832275390625 221.76922607421875 C 423.039794921875 223.81210327148438 426.8963623046875 225.85498046875 430.7529296875 227.89785766601562"/>
  </g>
</svg>
