<?xml version="1.0" ?>
<svg xmlns="http://www.w3.org/2000/svg" version="1.1" width="600" height="600">
  <defs/>
  <g>
    <path stroke-width="0" fill="rgb(0, 0, 0)" opacity="1.0" d="M 393.941650390625 178.68963623046875 C 393.941650390625 186.96551513671875 396.7686767578125 193.9310302734375 402.4228515625 199.58621215820312 C 408.2149658203125 205.24139404296875 415.248291015625 208.0689697265625 423.522705078125 208.0689697265625 C 431.6591796875 208.0689697265625 438.6234130859375 205.24139404296875 444.41552734375 199.58621215820312 C 450.345458984375 193.9310302734375 453.310546875 186.96551513671875 453.310546875 178.68963623046875 C 453.310546875 170.55169677734375 450.345458984375 163.58621215820312 444.41552734375 157.7930908203125 C 438.6234130859375 151.862060546875 431.6591796875 148.89654541015625 423.522705078125 148.89654541015625 C 415.248291015625 148.89654541015625 408.2149658203125 151.862060546875 402.4228515625 157.7930908203125 C 396.7686767578125 163.58621215820312 393.941650390625 170.55169677734375 393.941650390625 178.68963623046875M 382.150634765625 178.68963623046875 C 382.150634765625 171.10345458984375 384.0123291015625 164.13790893554688 387.73583984375 157.7930908203125 C 391.4593505859375 151.31033325195312 396.4239501953125 146.27584838867188 402.6297607421875 142.68963623046875 C 408.8355712890625 138.96551513671875 415.7998046875 137.10342407226562 423.522705078125 137.10342407226562 C 431.1075439453125 137.10342407226562 438.0718994140625 138.96551513671875 444.41552734375 142.68963623046875 C 450.75927734375 146.27584838867188 455.7928466796875 151.31033325195312 459.516357421875 157.7930908203125 C 463.2398681640625 164.13790893554688 465.1015625 171.10345458984375 465.1015625 178.68963623046875 C 465.1015625 186.41378784179688 463.2398681640625 193.37930297851562 459.516357421875 199.58621215820312 C 455.7928466796875 205.7930908203125 450.75927734375 210.75860595703125 444.41552734375 214.48275756835938 C 438.0718994140625 218.2069091796875 431.1075439453125 220.0689697265625 423.522705078125 220.0689697265625 C 415.7998046875 220.0689697265625 408.8355712890625 218.2069091796875 402.6297607421875 214.48275756835938 C 396.4239501953125 210.75860595703125 391.4593505859375 205.7930908203125 387.73583984375 199.58621215820312 C 384.0123291015625 193.37930297851562 382.150634765625 186.41378784179688 382.150634765625 178.68963623046875M 402.836669921875 200.62066650390625 C 402.0091552734375 202.41375732421875 401.3885498046875 204.0 400.974853515625 205.37930297851562 C 400.5611572265625 206.62066650390625 400.0784912109375 209.10345458984375 399.52685546875 212.82757568359375 C 397.734130859375 224.0 395.044921875 236.2069091796875 391.4593505859375 249.44827270507812 C 387.8736572265625 262.68963623046875 383.5296630859375 276.137939453125 378.4271240234375 289.7930908203125 C 373.4625244140625 303.4482727050781 367.8082275390625 316.413818359375 361.464599609375 328.68963623046875 C 355.120849609375 340.96551513671875 348.2254638671875 351.7930908203125 340.778564453125 361.17242431640625 C 328.642822265625 376.2069091796875 315.5416259765625 390.0689697265625 301.47509765625 402.75860595703125 C 287.4085693359375 415.4482421875 271.1356201171875 426.89654541015625 252.6561279296875 437.10345458984375 C 234.314453125 447.310302734375 212.7320556640625 456.27587890625 187.9088134765625 464.0 C 184.3232421875 460.0 180.7376708984375 456.0 177.152099609375 452.0 C 202.3890380859375 445.10345458984375 224.316162109375 436.89654541015625 242.93359375 427.3792724609375 C 261.551025390625 417.862060546875 278.099853515625 406.96551513671875 292.580078125 394.68963623046875 C 307.060302734375 382.27587890625 319.95458984375 368.68963623046875 331.262939453125 353.9310302734375 C 341.3302001953125 340.96551513671875 350.22509765625 325.72412109375 357.947998046875 308.2069091796875 C 365.80859375 290.68963623046875 372.359130859375 273.03448486328125 377.5997314453125 255.24139404296875 C 382.97802734375 237.31036376953125 386.632568359375 221.31033325195312 388.563232421875 207.24139404296875 C 384.83984375 207.24139404296875 377.2548828125 207.24139404296875 365.80859375 207.24139404296875 C 354.5003662109375 207.24139404296875 340.9163818359375 207.24139404296875 325.05712890625 207.24139404296875 C 309.3358154296875 207.24139404296875 292.85595703125 207.24139404296875 275.6175537109375 207.24139404296875 C 258.379150390625 207.24139404296875 242.0372314453125 207.24139404296875 226.5916748046875 207.24139404296875 C 211.1461181640625 207.24139404296875 198.044921875 207.24139404296875 187.2882080078125 207.24139404296875 C 176.531494140625 207.24139404296875 169.843017578125 207.24139404296875 167.2227783203125 207.24139404296875 C 160.603271484375 207.24139404296875 154.880126953125 207.31036376953125 150.0533447265625 207.44827270507812 C 145.3646240234375 207.586181640625 140.537841796875 207.7930908203125 135.5731201171875 208.0689697265625 C 135.5731201171875 203.31033325195312 135.5731201171875 198.55172729492188 135.5731201171875 193.7930908203125 C 138.8829345703125 194.0689697265625 142.1236572265625 194.41378784179688 145.295654296875 194.82757568359375 C 148.6053466796875 195.24136352539062 152.052978515625 195.51724243164062 155.638671875 195.6551513671875 C 159.362060546875 195.7930908203125 163.3614501953125 195.862060546875 167.636474609375 195.862060546875 C 169.705078125 195.862060546875 174.8765869140625 195.862060546875 183.1510009765625 195.862060546875 C 191.5633544921875 195.862060546875 201.9063720703125 195.862060546875 214.1800537109375 195.862060546875 C 226.5916748046875 195.862060546875 239.8997802734375 195.862060546875 254.1041259765625 195.862060546875 C 268.4464111328125 195.862060546875 282.7198486328125 195.862060546875 296.9241943359375 195.862060546875 C 311.1285400390625 195.862060546875 324.2987060546875 195.862060546875 336.4344482421875 195.862060546875 C 348.5701904296875 195.862060546875 358.7064208984375 195.862060546875 366.8428955078125 195.862060546875 C 375.1173095703125 195.862060546875 380.2198486328125 195.862060546875 382.150634765625 195.862060546875 C 384.21923828125 195.862060546875 386.0809326171875 195.7930908203125 387.73583984375 195.6551513671875 C 389.528564453125 195.51724243164062 391.5283203125 195.17239379882812 393.7347412109375 194.62066650390625 C 396.7686767578125 196.62066650390625 399.802734375 198.62069702148438 402.836669921875 200.62066650390625"/>
  </g>
</svg>
