<?xml version="1.0" encoding="utf-8"?>
<svg xmlns="http://www.w3.org/2000/svg" xmlns:ev="http://www.w3.org/2001/xml-events" xmlns:xlink="http://www.w3.org/1999/xlink" version="1.1" baseProfile="full" width="17092.0" height="1734.0" viewBox="113.0 -1596.0 17092.0 1734.0">
<defs/>
<g><path d="M 16583.000000 -851.000000 C 16604.000000 -843.666667 16625.000000 -836.333333 16646.000000 -829.000000 C 16624.666667 -763.000000 16600.666667 -692.000000 16574.000000 -616.000000 C 16548.000000 -540.666667 16521.000000 -464.333333 16493.000000 -387.000000 C 16465.000000 -309.666667 16436.666667 -235.666667 16408.000000 -165.000000 C 16380.000000 -95.000000 16353.333333 -32.333333 16328.000000 23.000000 C 16310.666667 16.000000 16293.333333 9.000000 16276.000000 2.000000 C 16301.333333 -53.333333 16328.333333 -116.333333 16357.000000 -187.000000 C 16386.333333 -258.333333 16414.666667 -332.666667 16442.000000 -410.000000 C 16469.333333 -487.333333 16495.000000 -564.000000 16519.000000 -640.000000 C 16543.666667 -716.666667 16565.000000 -787.000000 16583.000000 -851.000000z M 16090.000000 -10.000000 C 16169.333333 -13.333333 16263.000000 -18.000000 16371.000000 -24.000000 C 16479.000000 -30.000000 16595.333333 -36.666667 16720.000000 -44.000000 C 16845.333333 -52.000000 16971.333333 -59.000000 17098.000000 -65.000000 C 17097.333333 -47.333333 17096.666667 -29.666667 17096.000000 -12.000000 C 16975.333333 -4.000000 16854.000000 3.666667 16732.000000 11.000000 C 16610.666667 19.000000 16496.000000 26.000000 16388.000000 32.000000 C 16280.000000 38.666667 16184.333333 44.666667 16101.000000 50.000000 C 16097.333333 30.000000 16093.666667 10.000000 16090.000000 -10.000000z M 16798.000000 -465.000000 C 16813.333333 -472.666667 16828.666667 -480.333333 16844.000000 -488.000000 C 16891.333333 -425.333333 16938.666667 -357.333333 16986.000000 -284.000000 C 17033.333333 -211.333333 17076.000000 -140.333333 17114.000000 -71.000000 C 17152.666667 -1.666667 17183.000000 59.000000 17205.000000 111.000000 C 17187.666667 120.000000 17170.333333 129.000000 17153.000000 138.000000 C 17133.000000 86.000000 17103.666667 25.000000 17065.000000 -45.000000 C 17026.333333 -115.000000 16984.000000 -186.666667 16938.000000 -260.000000 C 16892.000000 -334.000000 16845.333333 -402.333333 16798.000000 -465.000000z M 16454.000000 -1565.000000 C 16473.333333 -1561.000000 16492.666667 -1557.000000 16512.000000 -1553.000000 C 16488.000000 -1452.333333 16458.666667 -1355.666667 16424.000000 -1263.000000 C 16389.333333 -1171.000000 16350.000000 -1086.000000 16306.000000 -1008.000000 C 16262.666667 -930.000000 16215.000000 -860.333333 16163.000000 -799.000000 C 16159.000000 -802.333333 16153.666667 -806.000000 16147.000000 -810.000000 C 16141.000000 -814.000000 16134.666667 -818.000000 16128.000000 -822.000000 C 16121.333333 -826.000000 16115.000000 -829.000000 16109.000000 -831.000000 C 16163.666667 -890.333333 16212.666667 -958.333333 16256.000000 -1035.000000 C 16300.000000 -1111.666667 16338.666667 -1194.666667 16372.000000 -1284.000000 C 16405.333333 -1374.000000 16432.666667 -1467.666667 16454.000000 -1565.000000z M 16854.000000 -1567.000000 C 16880.666667 -1477.000000 16913.333333 -1385.333333 16952.000000 -1292.000000 C 16991.333333 -1198.666667 17033.000000 -1112.333333 17077.000000 -1033.000000 C 17121.666667 -953.666667 17164.333333 -889.000000 17205.000000 -839.000000 C 17199.666667 -836.333333 17194.000000 -832.333333 17188.000000 -827.000000 C 17182.666667 -822.333333 17177.000000 -817.000000 17171.000000 -811.000000 C 17165.666667 -805.666667 17160.333333 -800.333333 17155.000000 -795.000000 C 17114.333333 -849.000000 17072.000000 -917.666667 17028.000000 -1001.000000 C 16984.666667 -1085.000000 16943.333333 -1174.666667 16904.000000 -1270.000000 C 16865.333333 -1365.333333 16832.000000 -1458.000000 16804.000000 -1548.000000 C 16820.666667 -1554.333333 16837.333333 -1560.666667 16854.000000 -1567.000000z M 15473.000000 -1167.000000 C 15694.000000 -1167.000000 15915.000000 -1167.000000 16136.000000 -1167.000000 C 16136.000000 -1148.000000 16136.000000 -1129.000000 16136.000000 -1110.000000 C 15915.000000 -1110.000000 15694.000000 -1110.000000 15473.000000 -1110.000000 C 15473.000000 -1129.000000 15473.000000 -1148.000000 15473.000000 -1167.000000z M 15796.000000 -1596.000000 C 15814.666667 -1596.000000 15833.333333 -1596.000000 15852.000000 -1596.000000 C 15852.000000 -1020.333333 15852.000000 -444.666667 15852.000000 131.000000 C 15833.333333 131.000000 15814.666667 131.000000 15796.000000 131.000000 C 15796.000000 -444.666667 15796.000000 -1020.333333 15796.000000 -1596.000000z M 15790.000000 -1144.000000 C 15806.666667 -1139.000000 15823.333333 -1134.000000 15840.000000 -1129.000000 C 15823.333333 -1052.333333 15801.000000 -972.333333 15773.000000 -889.000000 C 15745.666667 -805.666667 15715.666667 -724.333333 15683.000000 -645.000000 C 15651.000000 -565.666667 15616.666667 -492.000000 15580.000000 -424.000000 C 15543.333333 -356.666667 15507.000000 -299.333333 15471.000000 -252.000000 C 15466.333333 -258.000000 15459.666667 -265.333333 15451.000000 -274.000000 C 15443.000000 -283.333333 15435.000000 -290.666667 15427.000000 -296.000000 C 15463.000000 -340.666667 15498.666667 -395.333333 15534.000000 -460.000000 C 15570.000000 -524.666667 15604.333333 -595.333333 15637.000000 -672.000000 C 15669.666667 -748.666667 15699.000000 -827.333333 15725.000000 -908.000000 C 15751.666667 -988.666667 15773.333333 -1067.333333 15790.000000 -1144.000000z M 15842.000000 -891.000000 C 15854.666667 -878.333333 15874.333333 -856.333333 15901.000000 -825.000000 C 15928.333333 -793.666667 15957.666667 -759.666667 15989.000000 -723.000000 C 16020.333333 -686.333333 16048.666667 -652.333333 16074.000000 -621.000000 C 16100.000000 -589.666667 16118.000000 -567.000000 16128.000000 -553.000000 C 16112.000000 -536.333333 16096.000000 -519.666667 16080.000000 -503.000000 C 16068.666667 -522.333333 16050.333333 -548.666667 16025.000000 -582.000000 C 16000.333333 -615.333333 15973.333333 -650.000000 15944.000000 -686.000000 C 15915.333333 -722.666667 15888.333333 -756.666667 15863.000000 -788.000000 C 15837.666667 -819.333333 15818.000000 -842.666667 15804.000000 -858.000000 C 15816.666667 -869.000000 15829.333333 -880.000000 15842.000000 -891.000000z "/>
</g></svg>
