<?xml version="1.0" ?>
<svg xmlns="http://www.w3.org/2000/svg" version="1.1" width="600" height="600">
  <defs/>
  <g>
    <path stroke-width="0" fill="rgb(0, 0, 0)" opacity="1.0" d="M 298.127197265625 140.65802001953125 C 287.35205078125 156.5474853515625 273.053955078125 173.2659912109375 255.233154296875 190.8134765625 C 237.41259765625 208.3609619140625 217.657958984375 225.14849853515625 195.96923828125 241.1761474609375 C 174.41845703125 257.20379638671875 152.108154296875 271.29705810546875 129.0380859375 283.4559631347656 C 128.4853515625 282.48876953125 127.794677734375 281.4525146484375 126.9658203125 280.34716796875 C 126.275146484375 279.2418212890625 125.515380859375 278.2055358886719 124.6865234375 277.23834228515625 C 123.857666015625 276.13299560546875 122.959716796875 275.1658020019531 121.99267578125 274.3367919921875 C 145.062744140625 262.4542236328125 167.511474609375 248.4991455078125 189.338134765625 232.47149658203125 C 211.30322265625 216.30569458007812 231.126953125 199.31088256835938 248.8095703125 181.48703002929688 C 266.630126953125 163.52505493164062 280.859130859375 145.90847778320312 291.496337890625 128.63729858398438 C 295.1572265625 128.63729858398438 298.81787109375 128.63729858398438 302.478759765625 128.63729858398438 C 312.839599609375 142.17788696289062 324.996337890625 155.78756713867188 338.948974609375 169.46630859375 C 352.90185546875 183.14508056640625 367.752197265625 196.27114868164062 383.500732421875 208.84454345703125 C 399.249267578125 221.27978515625 415.343017578125 232.67877197265625 431.7822265625 243.04144287109375 C 448.2216796875 253.2659912109375 464.177490234375 262.10882568359375 479.6494140625 269.5699462890625 C 478.268310546875 270.67529296875 476.74853515625 272.2642517089844 475.0908203125 274.3367919921875 C 473.571044921875 276.4093017578125 472.39697265625 278.13641357421875 471.568115234375 279.51812744140625 C 456.23388671875 271.50433349609375 440.416259765625 262.3160400390625 424.115234375 251.953369140625 C 407.814453125 241.4525146484375 391.858642578125 230.05352783203125 376.248046875 217.7564697265625 C 360.776123046875 205.32122802734375 346.339599609375 192.60964965820312 332.939697265625 179.62176513671875 C 319.539794921875 166.63385009765625 307.935546875 153.64593505859375 298.127197265625 140.65802001953125M 201.149658203125 251.74609375 C 267.32080078125 251.74609375 333.4921875 251.74609375 399.66357421875 251.74609375 C 399.66357421875 255.68392944335938 399.66357421875 259.62176513671875 399.66357421875 263.5595703125 C 333.4921875 263.5595703125 267.32080078125 263.5595703125 201.149658203125 263.5595703125 C 201.149658203125 259.62176513671875 201.149658203125 255.68392944335938 201.149658203125 251.74609375M 145.408203125 330.5025634765625 C 249.016845703125 330.5025634765625 352.625244140625 330.5025634765625 456.23388671875 330.5025634765625 C 456.23388671875 334.4404296875 456.23388671875 338.37823486328125 456.23388671875 342.3160400390625 C 352.625244140625 342.3160400390625 249.016845703125 342.3160400390625 145.408203125 342.3160400390625 C 145.408203125 338.37823486328125 145.408203125 334.4404296875 145.408203125 330.5025634765625M 129.0380859375 461.072509765625 C 243.145751953125 461.072509765625 357.25341796875 461.072509765625 471.36083984375 461.072509765625 C 471.36083984375 464.8721923828125 471.36083984375 468.671875 471.36083984375 472.47149658203125 C 357.25341796875 472.47149658203125 243.145751953125 472.47149658203125 129.0380859375 472.47149658203125 C 129.0380859375 468.671875 129.0380859375 464.8721923828125 129.0380859375 461.072509765625M 292.532470703125 255.68392944335938 C 296.53857421875 255.68392944335938 300.544921875 255.68392944335938 304.551025390625 255.68392944335938 C 304.551025390625 326.49566650390625 304.551025390625 397.30743408203125 304.551025390625 468.119140625 C 300.544921875 468.119140625 296.53857421875 468.119140625 292.532470703125 468.119140625 C 292.532470703125 397.30743408203125 292.532470703125 326.49566650390625 292.532470703125 255.68392944335938M 186.8515625 367.80828857421875 C 190.1669921875 366.63385009765625 193.482421875 365.45941162109375 196.798095703125 364.28497314453125 C 202.60009765625 372.0224609375 208.195068359375 380.5198974609375 213.58251953125 389.7772216796875 C 219.1083984375 399.0345458984375 223.80517578125 408.2227783203125 227.67333984375 417.34197998046875 C 231.679443359375 426.322998046875 234.511474609375 434.4058837890625 236.169189453125 441.5906982421875 C 232.715576171875 443.04144287109375 229.26220703125 444.4921875 225.808349609375 445.9429931640625 C 224.150634765625 438.7581787109375 221.318603515625 430.606201171875 217.3125 421.487060546875 C 213.4443359375 412.229736328125 208.816650390625 402.97235107421875 203.428955078125 393.71502685546875 C 198.179443359375 384.45770263671875 192.653564453125 375.8221435546875 186.8515625 367.80828857421875M 400.906982421875 362.21240234375 C 404.567626953125 364.0777587890625 408.228759765625 365.9429931640625 411.889404296875 367.80828857421875 C 404.843994140625 380.79620361328125 396.7626953125 394.5440673828125 387.64501953125 409.05181884765625 C 378.66552734375 423.5595703125 370.169677734375 435.856689453125 362.157470703125 445.9429931640625 C 359.118408203125 444.35406494140625 356.078857421875 442.76513671875 353.039794921875 441.1761474609375 C 358.427490234375 434.2677001953125 364.022216796875 426.184814453125 369.824462890625 416.927490234375 C 375.62646484375 407.531982421875 381.29052734375 397.998291015625 386.816162109375 388.326416015625 C 392.480224609375 378.654541015625 397.177001953125 369.949951171875 400.906982421875 362.21240234375"/>
  </g>
</svg>
