<?xml version="1.0" ?>
<svg xmlns="http://www.w3.org/2000/svg" version="1.1" width="600" height="600">
  <defs/>
  <g>
    <path stroke-width="0" fill="rgb(0, 0, 0)" opacity="1.0" d="M 128.974609375 165.75689697265625 C 243.26025390625 165.75689697265625 357.54541015625 165.75689697265625 471.8310546875 165.75689697265625 C 471.8310546875 169.74771118164062 471.8310546875 173.738525390625 471.8310546875 177.7293701171875 C 357.54541015625 177.7293701171875 243.26025390625 177.7293701171875 128.974609375 177.7293701171875 C 128.974609375 173.738525390625 128.974609375 169.74771118164062 128.974609375 165.75689697265625M 293.48779296875 120.96331787109375 C 297.47802734375 120.96331787109375 301.46923828125 120.96331787109375 305.4599609375 120.96331787109375 C 305.4599609375 137.27066040039062 305.4599609375 153.57797241210938 305.4599609375 169.88531494140625 C 301.46923828125 169.88531494140625 297.47802734375 169.88531494140625 293.48779296875 169.88531494140625 C 293.48779296875 153.57797241210938 293.48779296875 137.27066040039062 293.48779296875 120.96331787109375M 347.3623046875 170.09173583984375 C 351.2158203125 170.09173583984375 355.068359375 170.09173583984375 358.92138671875 170.09173583984375 C 358.92138671875 207.110107421875 358.92138671875 244.12844848632812 358.92138671875 281.14678955078125 C 358.92138671875 285.6880798339844 358.23388671875 289.05963134765625 356.857421875 291.261474609375 C 355.61865234375 293.46331787109375 352.8671875 295.2522888183594 348.6005859375 296.6284484863281 C 344.6103515625 297.7293701171875 338.0048828125 298.3486328125 328.78466796875 298.4862365722656 C 319.564453125 298.62384033203125 307.662109375 298.6926574707031 293.07470703125 298.6926574707031 C 292.7998046875 296.76605224609375 292.31787109375 294.8394470214844 291.6298828125 292.912841796875 C 291.0791015625 290.8486328125 290.529296875 288.9220275878906 289.978515625 287.1330261230469 C 302.36376953125 287.40826416015625 313.09716796875 287.61468505859375 322.1796875 287.7522888183594 C 331.39990234375 287.889892578125 337.4541015625 287.82110595703125 340.34423828125 287.5458679199219 C 343.23388671875 287.2706298828125 345.091796875 286.6513671875 345.91748046875 285.6880798339844 C 346.880859375 284.7247619628906 347.3623046875 283.21099853515625 347.3623046875 281.14678955078125 C 347.3623046875 244.12844848632812 347.3623046875 207.110107421875 347.3623046875 170.09173583984375M 261.90625 169.88531494140625 C 265.68994140625 169.88531494140625 269.47509765625 169.88531494140625 273.2587890625 169.88531494140625 C 273.2587890625 174.22018432617188 273.2587890625 178.5550537109375 273.2587890625 182.88992309570312 C 273.2587890625 192.66055297851562 272.5712890625 203.18807983398438 271.19482421875 214.47247314453125 C 269.95654296875 225.6192626953125 266.9287109375 236.9036865234375 262.11279296875 248.32568359375 C 257.43359375 259.610107421875 250.208984375 270.82568359375 240.43896484375 281.97247314453125 C 230.6689453125 293.1192626953125 217.4580078125 303.715576171875 200.80712890625 313.761474609375 C 200.25634765625 312.6605224609375 199.4306640625 311.62841796875 198.330078125 310.6651611328125 C 197.36669921875 309.70184326171875 196.33447265625 308.738525390625 195.23388671875 307.7752685546875 C 194.13330078125 306.67431640625 193.23828125 305.8486328125 192.55029296875 305.29815673828125 C 208.65087890625 296.0779724121094 221.38037109375 286.16973876953125 230.7373046875 275.5733947753906 C 240.0947265625 264.97705078125 246.90625 254.24310302734375 251.17236328125 243.37158203125 C 255.57568359375 232.36236572265625 258.4658203125 221.697265625 259.841796875 211.37615966796875 C 261.21826171875 201.0550537109375 261.90625 191.55963134765625 261.90625 182.88992309570312 C 261.90625 178.5550537109375 261.90625 174.22018432617188 261.90625 169.88531494140625M 388.6455078125 209.10552978515625 C 391.9482421875 207.110107421875 395.25048828125 205.11468505859375 398.55322265625 203.1192626953125 C 408.04833984375 210.82568359375 417.818359375 219.49542236328125 427.8642578125 229.12844848632812 C 437.91015625 238.761474609375 447.267578125 248.18804931640625 455.93701171875 257.40826416015625 C 464.744140625 266.6284484863281 471.76220703125 274.9541320800781 476.9912109375 282.38531494140625 C 473.55078125 284.86236572265625 470.111328125 287.3394470214844 466.67041015625 289.8165283203125 C 461.716796875 282.52294921875 454.90478515625 274.1284484863281 446.2353515625 264.6330261230469 C 437.70361328125 255.0 428.4150390625 245.29815673828125 418.369140625 235.52752685546875 C 408.3232421875 225.75689697265625 398.41552734375 216.94952392578125 388.6455078125 209.10552978515625M 198.12353515625 205.389892578125 C 202.18359375 206.62844848632812 206.24267578125 207.86697387695312 210.30224609375 209.10552978515625 C 201.90771484375 223.27981567382812 190.486328125 237.3165283203125 176.037109375 251.215576171875 C 161.587890625 265.11468505859375 146.8642578125 276.67431640625 131.8642578125 285.8945007324219 C 130.763671875 284.65594482421875 129.31884765625 283.2798156738281 127.529296875 281.76605224609375 C 125.87841796875 280.2523193359375 124.43310546875 279.0137634277344 123.19482421875 278.05047607421875 C 133.24072265625 272.1330261230469 143.0791015625 265.2522888183594 152.71240234375 257.40826416015625 C 162.34521484375 249.42660522460938 171.15185546875 240.96331787109375 179.13330078125 232.01837158203125 C 187.25244140625 223.07339477539062 193.58251953125 214.19723510742188 198.12353515625 205.389892578125M 226.60888671875 343.4862060546875 C 240.783203125 366.192626953125 260.3232421875 386.14678955078125 285.23095703125 403.3486328125 C 310.27587890625 420.412841796875 339.17431640625 434.518310546875 371.92578125 445.6651611328125 C 404.814453125 456.8118896484375 439.69873046875 464.587158203125 476.57861328125 468.9908447265625 C 475.890625 469.8165283203125 475.06494140625 470.8486328125 474.1015625 472.087158203125 C 473.13818359375 473.46331787109375 472.24365234375 474.70184326171875 471.41796875 475.802734375 C 470.73046875 477.041259765625 470.111328125 478.3486328125 469.560546875 479.7247314453125 C 432.54345703125 474.7706298828125 397.58984375 466.4449462890625 364.701171875 454.7476806640625 C 331.8125 443.1881103515625 302.638671875 428.46331787109375 277.18115234375 410.5733642578125 C 251.8603515625 392.6834716796875 231.837890625 371.9036865234375 217.11376953125 348.23394775390625 C 220.27880859375 346.6513671875 223.4443359375 345.06884765625 226.60888671875 343.4862060546875M 262.73193359375 297.8669738769531 C 267.34130859375 298.761474609375 271.9521484375 299.6559753417969 276.5615234375 300.55047607421875 C 262.80029296875 317.47705078125 244.6357421875 334.9541015625 222.06787109375 352.981689453125 C 199.63720703125 370.87158203125 173.42236328125 386.8348388671875 143.42333984375 400.87158203125 C 142.873046875 399.7706298828125 142.04736328125 398.807373046875 140.94677734375 397.981689453125 C 139.845703125 397.018310546875 138.81396484375 395.9862060546875 137.85009765625 394.88531494140625 C 137.0244140625 393.784423828125 136.06103515625 393.02752685546875 134.96044921875 392.61468505859375 C 164.271484375 379.4036865234375 189.935546875 364.12841796875 211.95361328125 346.78900146484375 C 234.1083984375 329.44952392578125 251.03466796875 313.1422119140625 262.73193359375 297.8669738769531M 240.02587890625 329.03668212890625 C 291.97412109375 329.03668212890625 343.921875 329.03668212890625 395.8701171875 329.03668212890625 C 395.8701171875 332.889892578125 395.8701171875 336.74310302734375 395.8701171875 340.5963134765625 C 340.48193359375 340.5963134765625 285.09326171875 340.5963134765625 229.705078125 340.5963134765625 C 233.14599609375 336.74310302734375 236.58544921875 332.889892578125 240.02587890625 329.03668212890625M 392.97998046875 329.03668212890625 C 394.08056640625 329.03668212890625 395.18212890625 329.03668212890625 396.28271484375 329.03668212890625 C 397.31494140625 328.83026123046875 398.34716796875 328.62384033203125 399.37890625 328.41741943359375 C 401.85595703125 330.343994140625 404.3330078125 332.2706298828125 406.81005859375 334.197265625 C 394.42529296875 355.389892578125 378.53125 373.9678955078125 359.1279296875 389.93115234375 C 339.72509765625 405.89453125 317.8447265625 419.656005859375 293.48779296875 431.215576171875 C 269.2685546875 442.6375732421875 243.603515625 452.3394775390625 216.49462890625 460.32110595703125 C 189.3857421875 468.302734375 161.9326171875 474.633056640625 134.134765625 479.3118896484375 C 133.9970703125 478.21099853515625 133.515625 476.97247314453125 132.68994140625 475.5963134765625 C 131.8642578125 474.3577880859375 130.97021484375 473.1192626953125 130.00634765625 471.8807373046875 C 129.1806640625 470.77978515625 128.21728515625 469.8165283203125 127.11669921875 468.9908447265625 C 154.638671875 464.587158203125 181.67919921875 458.66973876953125 208.23828125 451.238525390625 C 234.93408203125 443.807373046875 260.1865234375 434.587158203125 283.99267578125 423.5780029296875 C 307.798828125 412.43115234375 329.0595703125 399.28900146484375 347.77490234375 384.1513671875 C 366.62744140625 368.87615966796875 381.69580078125 351.4678955078125 392.97998046875 331.9266357421875 C 392.97998046875 330.96331787109375 392.97998046875 330.0 392.97998046875 329.03668212890625"/>
  </g>
</svg>
