<?xml version="1.0" ?>
<svg xmlns="http://www.w3.org/2000/svg" version="1.1" width="600" height="600">
  <defs/>
  <g>
    <path stroke-width="0" fill="rgb(0, 0, 0)" opacity="1.0" d="M 292.18310546875 327.2752685546875 C 347.9150390625 327.2752685546875 403.6474609375 327.2752685546875 459.37939453125 327.2752685546875 C 459.37939453125 375.64678955078125 459.37939453125 424.018310546875 459.37939453125 472.389892578125 C 455.388671875 472.389892578125 451.3984375 472.389892578125 447.40771484375 472.389892578125 C 447.40771484375 427.87158203125 447.40771484375 383.35321044921875 447.40771484375 338.8348388671875 C 399.587890625 338.8348388671875 351.76806640625 338.8348388671875 303.94873046875 338.8348388671875 C 303.94873046875 384.110107421875 303.94873046875 429.38531494140625 303.94873046875 474.6605224609375 C 300.02685546875 474.6605224609375 296.10498046875 474.6605224609375 292.18310546875 474.6605224609375 C 292.18310546875 425.5321044921875 292.18310546875 376.4036865234375 292.18310546875 327.2752685546875M 452.1552734375 126.42660522460938 C 455.45751953125 129.7293701171875 458.76025390625 133.0321044921875 462.06298828125 136.33486938476562 C 447.88916015625 140.46331787109375 430.68798828125 144.31649780273438 410.458984375 147.89450073242188 C 390.23046875 151.47250366210938 369.03857421875 154.7064208984375 346.88330078125 157.59634399414062 C 324.86572265625 160.3486328125 303.67333984375 162.6192626953125 283.30712890625 164.40826416015625 C 283.03173828125 163.03213500976562 282.4814453125 161.44952392578125 281.65576171875 159.66055297851562 C 280.96728515625 157.87158203125 280.2109375 156.1513671875 279.38525390625 154.5 C 294.5224609375 152.98623657226562 310.14111328125 151.33486938476562 326.24169921875 149.54586791992188 C 342.341796875 147.6192626953125 358.23583984375 145.41741943359375 373.92333984375 142.94036865234375 C 389.611328125 140.32571411132812 404.19775390625 137.71099853515625 417.68359375 135.09634399414062 C 431.16943359375 132.48165893554688 442.66015625 129.59176635742188 452.1552734375 126.42660522460938M 367.318359375 149.75228881835938 C 371.17138671875 149.75228881835938 375.0244140625 149.75228881835938 378.87744140625 149.75228881835938 C 378.87744140625 211.05963134765625 378.87744140625 272.3669738769531 378.87744140625 333.67431640625 C 375.0244140625 333.67431640625 371.17138671875 333.67431640625 367.318359375 333.67431640625 C 367.318359375 272.3669738769531 367.318359375 211.05963134765625 367.318359375 149.75228881835938M 266.380859375 234.17889404296875 C 337.59423828125 234.17889404296875 408.8076171875 234.17889404296875 480.02099609375 234.17889404296875 C 480.02099609375 238.0321044921875 480.02099609375 241.88531494140625 480.02099609375 245.738525390625 C 408.8076171875 245.738525390625 337.59423828125 245.738525390625 266.380859375 245.738525390625 C 266.380859375 241.88531494140625 266.380859375 238.0321044921875 266.380859375 234.17889404296875M 298.7880859375 442.6651611328125 C 350.73583984375 442.6651611328125 402.68408203125 442.6651611328125 454.6318359375 442.6651611328125 C 454.6318359375 446.518310546875 454.6318359375 450.37158203125 454.6318359375 454.2247314453125 C 402.68408203125 454.2247314453125 350.73583984375 454.2247314453125 298.7880859375 454.2247314453125 C 298.7880859375 450.37158203125 298.7880859375 446.518310546875 298.7880859375 442.6651611328125M 138.4033203125 237.68807983398438 C 175.90185546875 237.68807983398438 213.40087890625 237.68807983398438 250.89990234375 237.68807983398438 C 250.89990234375 241.54129028320312 250.89990234375 245.39450073242188 250.89990234375 249.24771118164062 C 213.40087890625 249.24771118164062 175.90185546875 249.24771118164062 138.4033203125 249.24771118164062 C 138.4033203125 245.39450073242188 138.4033203125 241.54129028320312 138.4033203125 237.68807983398438M 140.673828125 133.4449462890625 C 177.0029296875 133.4449462890625 213.33203125 133.4449462890625 249.6611328125 133.4449462890625 C 249.6611328125 137.29815673828125 249.6611328125 141.15139770507812 249.6611328125 145.00457763671875 C 213.33203125 145.00457763671875 177.0029296875 145.00457763671875 140.673828125 145.00457763671875 C 140.673828125 141.15139770507812 140.673828125 137.29815673828125 140.673828125 133.4449462890625M 138.4033203125 290.5321044921875 C 175.90185546875 290.5321044921875 213.40087890625 290.5321044921875 250.89990234375 290.5321044921875 C 250.89990234375 294.3165283203125 250.89990234375 298.1009216308594 250.89990234375 301.88531494140625 C 213.40087890625 301.88531494140625 175.90185546875 301.88531494140625 138.4033203125 301.88531494140625 C 138.4033203125 298.1009216308594 138.4033203125 294.3165283203125 138.4033203125 290.5321044921875M 120.0322265625 184.63760375976562 C 167.98974609375 184.63760375976562 215.94677734375 184.63760375976562 263.90380859375 184.63760375976562 C 263.90380859375 188.62844848632812 263.90380859375 192.6192626953125 263.90380859375 196.610107421875 C 215.94677734375 196.610107421875 167.98974609375 196.610107421875 120.0322265625 196.610107421875 C 120.0322265625 192.6192626953125 120.0322265625 188.62844848632812 120.0322265625 184.63760375976562M 144.595703125 343.16973876953125 C 180.16796875 343.16973876953125 215.740234375 343.16973876953125 251.3125 343.16973876953125 C 251.3125 380.05047607421875 251.3125 416.93115234375 251.3125 453.8118896484375 C 215.740234375 453.8118896484375 180.16796875 453.8118896484375 144.595703125 453.8118896484375 C 144.595703125 449.958740234375 144.595703125 446.10546875 144.595703125 442.2523193359375 C 176.17724609375 442.2523193359375 207.7587890625 442.2523193359375 239.34033203125 442.2523193359375 C 239.34033203125 413.215576171875 239.34033203125 384.17889404296875 239.34033203125 355.1422119140625 C 207.7587890625 355.1422119140625 176.17724609375 355.1422119140625 144.595703125 355.1422119140625 C 144.595703125 351.1513671875 144.595703125 347.1605224609375 144.595703125 343.16973876953125M 138.4033203125 343.16973876953125 C 142.3251953125 343.16973876953125 146.2470703125 343.16973876953125 150.1689453125 343.16973876953125 C 150.1689453125 386.8624267578125 150.1689453125 430.5550537109375 150.1689453125 474.2476806640625 C 146.2470703125 474.2476806640625 142.3251953125 474.2476806640625 138.4033203125 474.2476806640625 C 138.4033203125 430.5550537109375 138.4033203125 386.8624267578125 138.4033203125 343.16973876953125"/>
  </g>
</svg>
