<?xml version="1.0" encoding="utf-8"?>
<svg xmlns="http://www.w3.org/2000/svg" xmlns:ev="http://www.w3.org/2001/xml-events" xmlns:xlink="http://www.w3.org/1999/xlink" version="1.1" baseProfile="full" width="20903.0" height="1740.0" viewBox="106.0 -1596.0 20903.0 1740.0">
<defs/>
<g><path d="M 7818.000000 -1369.000000 C 8368.333333 -1369.000000 8918.666667 -1369.000000 9469.000000 -1369.000000 C 9469.000000 -1349.666667 9469.000000 -1330.333333 9469.000000 -1311.000000 C 8918.666667 -1311.000000 8368.333333 -1311.000000 7818.000000 -1311.000000 C 7818.000000 -1330.333333 7818.000000 -1349.666667 7818.000000 -1369.000000z M 7993.000000 -1050.000000 C 8428.333333 -1050.000000 8863.666667 -1050.000000 9299.000000 -1050.000000 C 9299.000000 -1031.666667 9299.000000 -1013.333333 9299.000000 -995.000000 C 8863.666667 -995.000000 8428.333333 -995.000000 7993.000000 -995.000000 C 7993.000000 -1013.333333 7993.000000 -1031.666667 7993.000000 -1050.000000z M 7893.000000 -781.000000 C 8391.000000 -781.000000 8889.000000 -781.000000 9387.000000 -781.000000 C 9387.000000 -673.000000 9387.000000 -565.000000 9387.000000 -457.000000 C 9368.333333 -457.000000 9349.666667 -457.000000 9331.000000 -457.000000 C 9331.000000 -546.000000 9331.000000 -635.000000 9331.000000 -724.000000 C 8870.333333 -724.000000 8409.666667 -724.000000 7949.000000 -724.000000 C 7949.000000 -635.000000 7949.000000 -546.000000 7949.000000 -457.000000 C 7930.333333 -457.000000 7911.666667 -457.000000 7893.000000 -457.000000 C 7893.000000 -565.000000 7893.000000 -673.000000 7893.000000 -781.000000z M 8609.000000 -1596.000000 C 8628.333333 -1596.000000 8647.666667 -1596.000000 8667.000000 -1596.000000 C 8667.000000 -1406.333333 8667.000000 -1216.666667 8667.000000 -1027.000000 C 8647.666667 -1027.000000 8628.333333 -1027.000000 8609.000000 -1027.000000 C 8609.000000 -1216.666667 8609.000000 -1406.333333 8609.000000 -1596.000000z M 8828.000000 -593.000000 C 8846.666667 -593.000000 8865.333333 -593.000000 8884.000000 -593.000000 C 8884.000000 -404.333333 8884.000000 -215.666667 8884.000000 -27.000000 C 8884.000000 -2.333333 8890.000000 13.333333 8902.000000 20.000000 C 8914.000000 27.333333 8941.333333 31.000000 8984.000000 31.000000 C 8994.000000 31.000000 9013.333333 31.000000 9042.000000 31.000000 C 9070.666667 31.000000 9102.333333 31.000000 9137.000000 31.000000 C 9171.666667 31.000000 9204.333333 31.000000 9235.000000 31.000000 C 9265.666667 31.000000 9287.333333 31.000000 9300.000000 31.000000 C 9326.000000 31.000000 9345.333333 24.666667 9358.000000 12.000000 C 9370.666667 0.000000 9380.000000 -25.333333 9386.000000 -64.000000 C 9392.000000 -103.333333 9395.333333 -162.666667 9396.000000 -242.000000 C 9401.333333 -238.000000 9407.000000 -234.333333 9413.000000 -231.000000 C 9419.666667 -228.333333 9426.333333 -225.666667 9433.000000 -223.000000 C 9440.333333 -220.333333 9446.666667 -217.666667 9452.000000 -215.000000 C 9449.333333 -133.000000 9443.666667 -70.333333 9435.000000 -27.000000 C 9427.000000 16.333333 9413.000000 46.000000 9393.000000 62.000000 C 9373.666667 78.000000 9344.000000 86.000000 9304.000000 86.000000 C 9296.666667 86.000000 9277.666667 86.000000 9247.000000 86.000000 C 9216.333333 86.000000 9182.000000 86.000000 9144.000000 86.000000 C 9106.000000 86.000000 9072.000000 86.000000 9042.000000 86.000000 C 9012.000000 86.000000 8994.000000 86.000000 8988.000000 86.000000 C 8946.666667 86.000000 8914.333333 83.000000 8891.000000 77.000000 C 8868.333333 71.666667 8852.000000 61.000000 8842.000000 45.000000 C 8832.666667 29.000000 8828.000000 5.000000 8828.000000 -27.000000 C 8828.000000 -215.666667 8828.000000 -404.333333 8828.000000 -593.000000z M 8354.000000 -589.000000 C 8373.333333 -589.000000 8392.666667 -589.000000 8412.000000 -589.000000 C 8402.666667 -489.666667 8386.666667 -401.000000 8364.000000 -323.000000 C 8342.000000 -245.666667 8309.333333 -178.000000 8266.000000 -120.000000 C 8223.333333 -62.000000 8166.333333 -12.333333 8095.000000 29.000000 C 8024.333333 71.000000 7935.333333 105.333333 7828.000000 132.000000 C 7826.666667 127.333333 7823.666667 122.000000 7819.000000 116.000000 C 7814.333333 110.666667 7809.333333 105.000000 7804.000000 99.000000 C 7799.333333 93.000000 7795.000000 88.000000 7791.000000 84.000000 C 7897.666667 58.666667 7985.333333 27.000000 8054.000000 -11.000000 C 8123.333333 -49.666667 8178.333333 -96.333333 8219.000000 -151.000000 C 8260.333333 -206.333333 8291.000000 -270.000000 8311.000000 -342.000000 C 8331.666667 -414.666667 8346.000000 -497.000000 8354.000000 -589.000000z "/>
</g></svg>
