<?xml version="1.0" encoding="utf-8"?>
<svg xmlns="http://www.w3.org/2000/svg" xmlns:ev="http://www.w3.org/2001/xml-events" xmlns:xlink="http://www.w3.org/1999/xlink" version="1.1" baseProfile="full" width="14880.0" height="1739.0" viewBox="382.0 -1601.0 14880.0 1739.0">
<defs/>
<g><path d="M 8273.000000 -1469.000000 C 8269.666667 -1445.666667 8267.333333 -1424.333333 8266.000000 -1405.000000 C 8264.666667 -1386.333333 8263.333333 -1364.000000 8262.000000 -1338.000000 C 8260.666667 -1282.000000 8258.333333 -1212.000000 8255.000000 -1128.000000 C 8251.666667 -1044.000000 8249.000000 -954.000000 8247.000000 -858.000000 C 8245.000000 -762.000000 8243.000000 -665.333333 8241.000000 -568.000000 C 8239.666667 -470.666667 8239.000000 -380.666667 8239.000000 -298.000000 C 8239.000000 -222.000000 8254.333333 -161.000000 8285.000000 -115.000000 C 8315.666667 -69.000000 8358.333333 -35.666667 8413.000000 -15.000000 C 8468.333333 5.000000 8532.000000 15.000000 8604.000000 15.000000 C 8700.000000 15.000000 8785.333333 3.333333 8860.000000 -20.000000 C 8934.666667 -44.000000 9000.333333 -75.333333 9057.000000 -114.000000 C 9114.333333 -153.333333 9164.333333 -196.666667 9207.000000 -244.000000 C 9250.333333 -291.333333 9289.333333 -338.666667 9324.000000 -386.000000 C 9338.000000 -370.000000 9352.000000 -354.000000 9366.000000 -338.000000 C 9331.333333 -293.333333 9290.666667 -247.000000 9244.000000 -199.000000 C 9197.333333 -151.000000 9143.000000 -106.666667 9081.000000 -66.000000 C 9019.666667 -26.000000 8949.000000 6.333333 8869.000000 31.000000 C 8789.000000 56.333333 8698.666667 69.000000 8598.000000 69.000000 C 8518.666667 69.000000 8447.666667 57.000000 8385.000000 33.000000 C 8322.333333 9.666667 8272.666667 -30.000000 8236.000000 -86.000000 C 8199.333333 -142.666667 8181.000000 -221.000000 8181.000000 -321.000000 C 8181.000000 -383.666667 8181.666667 -451.000000 8183.000000 -523.000000 C 8184.333333 -595.666667 8186.333333 -669.666667 8189.000000 -745.000000 C 8191.666667 -820.333333 8193.666667 -894.000000 8195.000000 -966.000000 C 8197.000000 -1038.666667 8198.666667 -1107.000000 8200.000000 -1171.000000 C 8201.333333 -1235.000000 8202.000000 -1290.666667 8202.000000 -1338.000000 C 8202.000000 -1364.000000 8201.333333 -1387.666667 8200.000000 -1409.000000 C 8198.666667 -1431.000000 8196.333333 -1451.000000 8193.000000 -1469.000000 C 8219.666667 -1469.000000 8246.333333 -1469.000000 8273.000000 -1469.000000z "/>
</g></svg>
