<?xml version="1.0" ?>
<svg xmlns="http://www.w3.org/2000/svg" version="1.1" width="600" height="600">
  <defs/>
  <g>
    <path stroke-width="0" fill="rgb(0, 0, 0)" opacity="1.0" d="M 130.81109619140625 264.1861572265625 C 131.73825073242188 264.1861572265625 132.66537475585938 264.1861572265625 133.592529296875 264.1861572265625 C 133.592529296875 272.92333984375 133.592529296875 281.6605224609375 133.592529296875 290.397705078125 C 133.592529296875 294.09478759765625 133.46463012695312 298.10791015625 133.2088623046875 302.43701171875 C 132.953125 306.7344970703125 132.47357177734375 311.142578125 131.77020263671875 315.6612548828125 C 131.06686401367188 320.179931640625 130.02783203125 324.6038818359375 128.65313720703125 328.9329833984375 C 127.27841186523438 333.23046875 125.42413330078125 337.227783203125 123.09030151367188 340.92486572265625 C 122.89849853515625 340.7352294921875 122.65872192382812 340.545654296875 122.3709716796875 340.3560791015625 C 122.115234375 340.19805908203125 121.84347534179688 340.0242919921875 121.55575561523438 339.834716796875 C 121.26800537109375 339.64508056640625 121.01226806640625 339.487060546875 120.7884521484375 339.3607177734375 C 123.058349609375 335.726806640625 124.86465454101562 331.840087890625 126.2073974609375 327.7005615234375 C 127.55014038085938 323.52947998046875 128.54122924804688 319.2794189453125 129.18063354492188 314.9503173828125 C 129.85198974609375 310.589599609375 130.28359985351562 306.32373046875 130.47543334960938 302.152587890625 C 130.69921875 297.94989013671875 130.81109619140625 294.0316162109375 130.81109619140625 290.397705078125 C 130.81109619140625 281.6605224609375 130.81109619140625 272.92333984375 130.81109619140625 264.1861572265625M 132.10589599609375 264.1861572265625 C 153.86160278320312 264.1861572265625 175.61727905273438 264.1861572265625 197.37298583984375 264.1861572265625 C 197.37298583984375 269.4000244140625 197.37298583984375 274.6138916015625 197.37298583984375 279.8277587890625 C 175.61727905273438 279.8277587890625 153.86160278320312 279.8277587890625 132.10589599609375 279.8277587890625 C 132.10589599609375 278.958740234375 132.10589599609375 278.08978271484375 132.10589599609375 277.2208251953125 C 152.9664306640625 277.2208251953125 173.82696533203125 277.2208251953125 194.6875 277.2208251953125 C 194.6875 273.76068115234375 194.6875 270.30059814453125 194.6875 266.8404541015625 C 173.82696533203125 266.8404541015625 152.9664306640625 266.8404541015625 132.10589599609375 266.8404541015625 C 132.10589599609375 265.9556884765625 132.10589599609375 265.0709228515625 132.10589599609375 264.1861572265625M 148.60250854492188 281.0126953125 C 149.33782958984375 280.61773681640625 150.0731201171875 280.2227783203125 150.80844116210938 279.8277587890625 C 152.15118408203125 280.9969482421875 153.44598388671875 282.33984375 154.69281005859375 283.856689453125 C 155.97161865234375 285.3734130859375 156.85079956054688 286.732177734375 157.33035278320312 287.9329833984375 C 156.59503173828125 288.39111328125 155.8597412109375 288.849365234375 155.12442016601562 289.3074951171875 C 154.5809326171875 288.10675048828125 153.70175170898438 286.71636962890625 152.48687744140625 285.13641357421875 C 151.30398559570312 283.55645751953125 150.00918579101562 282.181884765625 148.60250854492188 281.0126953125M 184.04144287109375 279.685546875 C 184.87265014648438 280.1279296875 185.703857421875 280.5703125 186.53509521484375 281.0126953125 C 185.35220336914062 282.52947998046875 184.10537719726562 284.0462646484375 182.79458618164062 285.56298828125 C 181.51577758789062 287.04815673828125 180.3009033203125 288.29632568359375 179.14999389648438 289.3074951171875 C 178.47860717773438 288.944091796875 177.8072509765625 288.58074951171875 177.1358642578125 288.21734619140625 C 178.22283935546875 287.07977294921875 179.43771362304688 285.673583984375 180.78045654296875 283.99884033203125 C 182.15518188476562 282.3240966796875 183.2421875 280.8863525390625 184.04144287109375 279.685546875M 144.62222290039062 315.803466796875 C 160.83108520507812 315.803466796875 177.03997802734375 315.803466796875 193.24884033203125 315.803466796875 C 193.24884033203125 324.240478515625 193.24884033203125 332.677490234375 193.24884033203125 341.11444091796875 C 192.35366821289062 341.11444091796875 191.45849609375 341.11444091796875 190.5633544921875 341.11444091796875 C 190.5633544921875 333.5780029296875 190.5633544921875 326.0416259765625 190.5633544921875 318.50518798828125 C 176.14480590820312 318.50518798828125 161.72625732421875 318.50518798828125 147.30770874023438 318.50518798828125 C 147.30770874023438 326.12060546875 147.30770874023438 333.73602294921875 147.30770874023438 341.3514404296875 C 146.41253662109375 341.3514404296875 145.51739501953125 341.3514404296875 144.62222290039062 341.3514404296875 C 144.62222290039062 332.83544921875 144.62222290039062 324.3194580078125 144.62222290039062 315.803466796875M 142.7999267578125 300.25665283203125 C 142.7999267578125 302.8004150390625 142.7999267578125 305.3441162109375 142.7999267578125 307.8878173828125 C 160.01583862304688 307.8878173828125 177.23178100585938 307.8878173828125 194.44772338867188 307.8878173828125 C 194.44772338867188 305.3441162109375 194.44772338867188 302.8004150390625 194.44772338867188 300.25665283203125 C 177.23178100585938 300.25665283203125 160.01583862304688 300.25665283203125 142.7999267578125 300.25665283203125M 142.7999267578125 290.06591796875 C 142.7999267578125 292.54644775390625 142.7999267578125 295.0269775390625 142.7999267578125 297.50750732421875 C 160.01583862304688 297.50750732421875 177.23178100585938 297.50750732421875 194.44772338867188 297.50750732421875 C 194.44772338867188 295.0269775390625 194.44772338867188 292.54644775390625 194.44772338867188 290.06591796875 C 177.23178100585938 290.06591796875 160.01583862304688 290.06591796875 142.7999267578125 290.06591796875M 140.01852416992188 287.41156005859375 C 159.040771484375 287.41156005859375 178.06301879882812 287.41156005859375 197.08526611328125 287.41156005859375 C 197.08526611328125 295.12176513671875 197.08526611328125 302.83197021484375 197.08526611328125 310.542236328125 C 178.06301879882812 310.542236328125 159.040771484375 310.542236328125 140.01852416992188 310.542236328125 C 140.01852416992188 302.83197021484375 140.01852416992188 295.12176513671875 140.01852416992188 287.41156005859375M 166.82550048828125 288.3121337890625 C 167.73663330078125 288.3121337890625 168.64779663085938 288.3121337890625 169.5589599609375 288.3121337890625 C 169.5589599609375 295.2955322265625 169.5589599609375 302.27899169921875 169.5589599609375 309.262451171875 C 168.64779663085938 309.262451171875 167.73663330078125 309.262451171875 166.82550048828125 309.262451171875 C 166.82550048828125 302.27899169921875 166.82550048828125 295.2955322265625 166.82550048828125 288.3121337890625M 145.82110595703125 325.4254150390625 C 161.13479614257812 325.4254150390625 176.44851684570312 325.4254150390625 191.76220703125 325.4254150390625 C 191.76220703125 326.3101806640625 191.76220703125 327.1949462890625 191.76220703125 328.07977294921875 C 176.44851684570312 328.07977294921875 161.13479614257812 328.07977294921875 145.82110595703125 328.07977294921875 C 145.82110595703125 327.1949462890625 145.82110595703125 326.3101806640625 145.82110595703125 325.4254150390625M 145.82110595703125 335.4739990234375 C 161.13479614257812 335.4739990234375 176.44851684570312 335.4739990234375 191.76220703125 335.4739990234375 C 191.76220703125 336.34295654296875 191.76220703125 337.2119140625 191.76220703125 338.0809326171875 C 176.44851684570312 338.0809326171875 161.13479614257812 338.0809326171875 145.82110595703125 338.0809326171875 C 145.82110595703125 337.2119140625 145.82110595703125 336.34295654296875 145.82110595703125 335.4739990234375"/>
    <path stroke-width="0" fill="rgb(0, 0, 0)" opacity="1.0" d="M 261.1054992675781 265.27630615234375 C 260.97760009765625 265.93988037109375 260.833740234375 266.9036865234375 260.67388916015625 268.1676025390625 C 260.5140380859375 269.4000244140625 260.38616943359375 270.53759765625 260.2902526855469 271.580322265625 C 259.8426818847656 274.8350830078125 259.39508056640625 278.13720703125 258.947509765625 281.4866943359375 C 258.5318908691406 284.836181640625 257.9564208984375 288.21734619140625 257.22113037109375 291.63006591796875 C 256.4858093261719 295.01116943359375 255.478759765625 298.45550537109375 254.199951171875 301.9630126953125 C 252.66537475585938 306.1025390625 250.92300415039062 309.98919677734375 248.97283935546875 313.62310791015625 C 247.05462646484375 317.25701904296875 244.9925537109375 320.46435546875 242.78659057617188 323.2451171875 C 240.58065795898438 325.9942626953125 238.19888305664062 328.1429443359375 235.64126586914062 329.6912841796875 C 233.08364868164062 331.23968505859375 230.39816284179688 332.013916015625 227.58477783203125 332.013916015625 C 225.73052978515625 332.013916015625 224.08404541015625 331.49249267578125 222.6453857421875 330.44970703125 C 221.20672607421875 329.40692138671875 220.07177734375 327.9849853515625 219.24057006835938 326.183837890625 C 218.40936279296875 324.35107421875 217.99374389648438 322.2181396484375 217.99374389648438 319.78497314453125 C 217.99374389648438 315.5506591796875 218.64913940429688 311.648193359375 219.95989990234375 308.07745361328125 C 221.30264282226562 304.47515869140625 223.0130615234375 301.1888427734375 225.09112548828125 298.218505859375 C 226.56173706054688 295.9117431640625 228.47994995117188 293.5892333984375 230.84573364257812 291.2508544921875 C 233.2115478515625 288.88092041015625 235.992919921875 286.7005615234375 239.18994140625 284.7098388671875 C 242.386962890625 282.6875 245.96762084960938 281.06011962890625 249.93194580078125 279.8277587890625 C 253.92819213867188 278.56378173828125 258.3240966796875 277.9317626953125 263.11962890625 277.9317626953125 C 266.44451904296875 277.9317626953125 269.64154052734375 278.4847412109375 272.7106628417969 279.59075927734375 C 275.77978515625 280.6651611328125 278.52923583984375 282.2608642578125 280.958984375 284.3780517578125 C 283.420654296875 286.463623046875 285.370849609375 289.070556640625 286.80950927734375 292.1988525390625 C 288.2801513671875 295.3271484375 289.01544189453125 298.9136962890625 289.01544189453125 302.9583740234375 C 289.01544189453125 307.8878173828125 288.5838623046875 312.311767578125 287.72064208984375 316.2301025390625 C 286.85748291015625 320.11676025390625 285.54669189453125 323.46630859375 283.788330078125 326.27862548828125 C 282.02996826171875 329.059326171875 279.84002685546875 331.176513671875 277.21844482421875 332.63006591796875 C 274.6288757324219 334.0836181640625 271.59173583984375 334.8104248046875 268.1069641113281 334.8104248046875 C 264.17462158203125 334.8104248046875 261.07354736328125 333.87823486328125 258.80364990234375 332.013916015625 C 256.53375244140625 330.117919921875 255.3988037109375 327.62158203125 255.3988037109375 324.52484130859375 C 255.3988037109375 322.5972900390625 255.95831298828125 320.859375 257.0772705078125 319.31097412109375 C 258.2281799316406 317.76263427734375 259.79473876953125 316.5460205078125 261.77685546875 315.6612548828125 C 263.791015625 314.7764892578125 266.0448913574219 314.3341064453125 268.53857421875 314.3341064453125 C 271.9273986816406 314.3341064453125 275.04449462890625 314.87127685546875 277.88983154296875 315.9456787109375 C 280.73516845703125 316.9884033203125 283.32476806640625 318.31561279296875 285.6585693359375 319.9271240234375 C 287.9924011230469 321.5386962890625 290.05450439453125 323.2135009765625 291.84478759765625 324.951416015625 C 293.6351318359375 326.68939208984375 295.13775634765625 328.2535400390625 296.35260009765625 329.6439208984375 C 295.68121337890625 330.4813232421875 295.0098571777344 331.3187255859375 294.3385009765625 332.15606689453125 C 293.15557861328125 330.7025146484375 291.700927734375 329.10675048828125 289.97454833984375 327.3687744140625 C 288.2801513671875 325.5992431640625 286.345947265625 323.90869140625 284.1719665527344 322.297119140625 C 281.99798583984375 320.685546875 279.6002197265625 319.3741455078125 276.97869873046875 318.363037109375 C 274.35711669921875 317.3201904296875 271.54376220703125 316.798828125 268.53857421875 316.798828125 C 264.9898681640625 316.798828125 262.32037353515625 317.62042236328125 260.530029296875 319.2635498046875 C 258.77166748046875 320.90673828125 257.89251708984375 322.62890625 257.89251708984375 324.4300537109375 C 257.89251708984375 326.73681640625 258.78765869140625 328.63275146484375 260.5780029296875 330.117919921875 C 262.4002685546875 331.60308837890625 264.9099426269531 332.345703125 268.1069641113281 332.345703125 C 271.59173583984375 332.345703125 274.5009765625 331.5556640625 276.8348388671875 329.9757080078125 C 279.16864013671875 328.3641357421875 281.02288818359375 326.183837890625 282.39764404296875 323.4346923828125 C 283.7723388671875 320.6539306640625 284.763427734375 317.50982666015625 285.370849609375 314.0023193359375 C 286.01025390625 310.46319580078125 286.3299560546875 306.8134765625 286.3299560546875 303.05322265625 C 286.3299560546875 300.33563232421875 285.85040283203125 297.6339111328125 284.89129638671875 294.947998046875 C 283.93218994140625 292.23046875 282.4775390625 289.781494140625 280.5273742675781 287.6011962890625 C 278.6091613769531 285.4207763671875 276.1954345703125 283.682861328125 273.2861328125 282.38726806640625 C 270.3768310546875 281.06011962890625 266.9560546875 280.39654541015625 263.0237121582031 280.39654541015625 C 257.9404602050781 280.39654541015625 253.14492797851562 281.2022705078125 248.63714599609375 282.8138427734375 C 244.12933349609375 284.4254150390625 240.03717041015625 286.684814453125 236.360595703125 289.5919189453125 C 232.71600341796875 292.4990234375 229.59890747070312 295.92755126953125 227.00933837890625 299.87744140625 C 225.5386962890625 302.1842041015625 224.32382202148438 304.4119873046875 223.36471557617188 306.5606689453125 C 222.43759155273438 308.70947265625 221.7342529296875 310.858154296875 221.25469970703125 313.0069580078125 C 220.80712890625 315.12408447265625 220.58331298828125 317.351806640625 220.58331298828125 319.690185546875 C 220.58331298828125 322.692138671875 221.33462524414062 325.06201171875 222.83721923828125 326.79998779296875 C 224.33981323242188 328.50634765625 225.890380859375 329.3594970703125 227.4888916015625 329.3594970703125 C 229.88662719726562 329.3594970703125 232.220458984375 328.6485595703125 234.4903564453125 327.2265625 C 236.76022338867188 325.80462646484375 238.9342041015625 323.798095703125 241.01226806640625 321.2069091796875 C 243.12228393554688 318.584228515625 245.12042236328125 315.534912109375 247.00665283203125 312.0589599609375 C 248.92486572265625 308.55145263671875 250.6512451171875 304.7279052734375 252.18582153320312 300.58843994140625 C 253.2088623046875 297.7445068359375 254.07208251953125 294.6319580078125 254.775390625 291.2508544921875 C 255.478759765625 287.838134765625 256.0382080078125 284.45703125 256.453857421875 281.1075439453125 C 256.90142822265625 277.72637939453125 257.25311279296875 274.69287109375 257.50885009765625 272.0069580078125 C 257.63671875 270.869384765625 257.70068359375 269.763427734375 257.70068359375 268.68902587890625 C 257.70068359375 267.5830078125 257.63671875 266.38226318359375 257.50885009765625 265.086669921875 C 258.7077331542969 265.14990234375 259.9066162109375 265.213134765625 261.1054992675781 265.27630615234375M 226.28997802734375 273.85546875 C 226.89743041992188 276.4466552734375 227.69668579101562 279.22735595703125 228.687744140625 282.19769287109375 C 229.6788330078125 285.16802978515625 230.71786499023438 288.07513427734375 231.80484008789062 290.9190673828125 C 232.92379760742188 293.7314453125 233.96282958984375 296.322509765625 234.92193603515625 298.6925048828125 C 235.91302490234375 301.06243896484375 236.74423217773438 302.97418212890625 237.41561889648438 304.427734375 C 238.34274291992188 306.41845703125 239.5416259765625 308.6778564453125 241.01226806640625 311.205810546875 C 242.48287963867188 313.73370361328125 243.9534912109375 315.89825439453125 245.42413330078125 317.699462890625 C 244.944580078125 318.39459228515625 244.46502685546875 319.08978271484375 243.9854736328125 319.78497314453125 C 242.994384765625 318.64739990234375 241.92340087890625 317.2412109375 240.7724609375 315.56646728515625 C 239.65353393554688 313.8917236328125 238.614501953125 312.201171875 237.6553955078125 310.49481201171875 C 236.6962890625 308.7568359375 235.88104248046875 307.19268798828125 235.20965576171875 305.80230712890625 C 234.410400390625 303.96954345703125 233.43533325195312 301.6785888671875 232.28439331054688 298.929443359375 C 231.16546630859375 296.14874267578125 230.06246948242188 293.32061767578125 228.97549438476562 290.445068359375 C 227.92047119140625 287.569580078125 227.05728149414062 285.1048583984375 226.38589477539062 283.0509033203125 C 226.06619262695312 281.94488525390625 225.73052978515625 280.902099609375 225.37884521484375 279.92254638671875 C 225.05914306640625 278.911376953125 224.72344970703125 277.97918701171875 224.37179565429688 277.1259765625 C 224.05206298828125 276.2728271484375 223.74835205078125 275.51446533203125 223.46063232421875 274.850830078125 C 224.40374755859375 274.51904296875 225.34686279296875 274.187255859375 226.28997802734375 273.85546875"/>
    <path stroke-width="0" fill="rgb(0, 0, 0)" opacity="1.0" d="M 311.36260986328125 279.8277587890625 C 312.769287109375 280.017333984375 314.2718505859375 280.1595458984375 315.8703918457031 280.25433349609375 C 317.4689025878906 280.34912109375 319.403076171875 280.39654541015625 321.6729736328125 280.39654541015625 C 324.55029296875 280.39654541015625 327.6354064941406 280.3017578125 330.9283447265625 280.1121826171875 C 334.22125244140625 279.89093017578125 337.73797607421875 279.44854736328125 341.478515625 278.78497314453125 C 345.218994140625 278.08978271484375 349.15130615234375 277.07861328125 353.27545166015625 275.75146484375 C 353.30743408203125 276.746826171875 353.33941650390625 277.7421875 353.37139892578125 278.737548828125 C 349.9825439453125 279.6539306640625 346.5137939453125 280.4439697265625 342.965087890625 281.1075439453125 C 339.4483642578125 281.739501953125 335.899658203125 282.229248046875 332.31903076171875 282.576904296875 C 328.7384033203125 282.89288330078125 325.15771484375 283.0509033203125 321.5770568847656 283.0509033203125 C 320.04248046875 283.0509033203125 318.34808349609375 283.0350341796875 316.4938049316406 283.00347900390625 C 314.6715087890625 282.97186279296875 313.0250244140625 282.9244384765625 311.5544128417969 282.86126708984375 C 311.490478515625 281.85009765625 311.426513671875 280.83892822265625 311.36260986328125 279.8277587890625M 340.8551025390625 263.8543701171875 C 340.471435546875 265.1815185546875 340.0238037109375 266.88787841796875 339.5123291015625 268.973388671875 C 339.03277587890625 271.0589599609375 338.5052490234375 273.20770263671875 337.9298095703125 275.419677734375 C 337.3543701171875 277.631591796875 336.76287841796875 279.622314453125 336.15545654296875 281.39190673828125 C 334.620849609375 285.7525634765625 332.70263671875 290.3187255859375 330.40081787109375 295.0902099609375 C 328.0989685058594 299.8616943359375 325.65325927734375 304.44354248046875 323.06365966796875 308.8358154296875 C 320.4740905761719 313.2281494140625 317.9324645996094 317.03582763671875 315.43878173828125 320.25897216796875 C 314.4157409667969 319.7059326171875 313.3927001953125 319.1529541015625 312.3696594238281 318.5999755859375 C 314.4157409667969 316.3564453125 316.46185302734375 313.73370361328125 318.5079345703125 310.7318115234375 C 320.55401611328125 307.7298583984375 322.48822021484375 304.55413818359375 324.31048583984375 301.20458984375 C 326.1647644042969 297.823486328125 327.87518310546875 294.45819091796875 329.44171142578125 291.108642578125 C 331.00823974609375 287.7275390625 332.28704833984375 284.58343505859375 333.27813720703125 281.67626953125 C 334.141357421875 279.179931640625 335.0045166015625 276.2412109375 335.86773681640625 272.860107421875 C 336.73089599609375 269.4473876953125 337.2264404296875 266.319091796875 337.3543701171875 263.47515869140625 C 338.521240234375 263.6015625 339.6881103515625 263.7279052734375 340.8551025390625 263.8543701171875M 362.6746826171875 291.677490234375 C 362.6107177734375 293.51025390625 362.54681396484375 294.9796142578125 362.48291015625 296.0855712890625 C 362.4189453125 297.159912109375 362.4189453125 298.3291015625 362.48291015625 299.59307861328125 C 362.54681396484375 301.2362060546875 362.6107177734375 303.2427978515625 362.6746826171875 305.61273193359375 C 362.7706298828125 307.982666015625 362.88250732421875 310.49481201171875 363.0103759765625 313.149169921875 C 363.13824462890625 315.7718505859375 363.25018310546875 318.31561279296875 363.3460693359375 320.78033447265625 C 363.4420166015625 323.2135009765625 363.48992919921875 325.3148193359375 363.48992919921875 327.0843505859375 C 363.48992919921875 329.07513427734375 362.9464111328125 330.93951416015625 361.8594970703125 332.677490234375 C 360.804443359375 334.4154052734375 359.2059326171875 335.78997802734375 357.06396484375 336.8011474609375 C 354.95391845703125 337.84393310546875 352.2684326171875 338.3653564453125 349.0074462890625 338.3653564453125 C 346.066162109375 338.3653564453125 343.36474609375 338.001953125 340.90301513671875 337.275146484375 C 338.4732666015625 336.54833984375 336.50714111328125 335.3634033203125 335.0045166015625 333.72021484375 C 333.501953125 332.0770263671875 332.7506103515625 329.9283447265625 332.7506103515625 327.27398681640625 C 332.7506103515625 324.5880126953125 333.54986572265625 322.40771484375 335.14837646484375 320.73291015625 C 336.77886962890625 319.026611328125 338.85693359375 317.76263427734375 341.382568359375 316.9410400390625 C 343.908203125 316.11944580078125 346.4818115234375 315.70867919921875 349.1033935546875 315.70867919921875 C 354.0906982421875 315.70867919921875 358.614501953125 316.3880615234375 362.6746826171875 317.746826171875 C 366.76690673828125 319.1055908203125 370.45947265625 320.8277587890625 373.7523193359375 322.913330078125 C 377.0452880859375 324.96728515625 379.9385986328125 326.9896240234375 382.4322509765625 328.9803466796875 C 381.8568115234375 329.83349609375 381.2813720703125 330.68670654296875 380.70587158203125 331.5399169921875 C 378.78765869140625 329.896728515625 376.7095947265625 328.2694091796875 374.4716796875 326.6578369140625 C 372.2337646484375 325.0462646484375 369.7880859375 323.6085205078125 367.134521484375 322.344482421875 C 364.51300048828125 321.08056640625 361.715576171875 320.0535888671875 358.74237060546875 319.2635498046875 C 355.7691650390625 318.4736328125 352.6201171875 318.07861328125 349.295166015625 318.07861328125 C 345.2030029296875 318.07861328125 341.86212158203125 318.9476318359375 339.27252197265625 320.685546875 C 336.6829833984375 322.39190673828125 335.38818359375 324.55645751953125 335.38818359375 327.17919921875 C 335.38818359375 329.73876953125 336.45916748046875 331.8084716796875 338.6011962890625 333.388427734375 C 340.775146484375 334.936767578125 344.1959228515625 335.7109375 348.86358642578125 335.7109375 C 351.8687744140625 335.7109375 354.25054931640625 335.284423828125 356.0089111328125 334.43121337890625 C 357.79925537109375 333.54644775390625 359.07806396484375 332.37725830078125 359.8453369140625 330.9237060546875 C 360.61260986328125 329.4700927734375 360.99627685546875 327.953369140625 360.99627685546875 326.3734130859375 C 360.99627685546875 324.22467041015625 360.94830322265625 321.72833251953125 360.8524169921875 318.8843994140625 C 360.7564697265625 316.04046630859375 360.62860107421875 313.022705078125 360.46875 309.8311767578125 C 360.34088134765625 306.63970947265625 360.2130126953125 303.479736328125 360.0850830078125 300.3514404296875 C 359.957275390625 297.1915283203125 359.861328125 294.3001708984375 359.79736328125 291.677490234375 C 360.7564697265625 291.677490234375 361.715576171875 291.677490234375 362.6746826171875 291.677490234375M 383.631103515625 291.677490234375 C 382.0965576171875 290.287109375 380.13037109375 288.83349609375 377.732666015625 287.3167724609375 C 375.3668212890625 285.79998779296875 372.921142578125 284.36224365234375 370.3955078125 283.00347900390625 C 367.869873046875 281.64471435546875 365.6319580078125 280.50714111328125 363.6817626953125 279.59075927734375 C 364.16131591796875 278.89556884765625 364.640869140625 278.20037841796875 365.12042236328125 277.50518798828125 C 366.7828369140625 278.23199462890625 368.57318115234375 279.1009521484375 370.49139404296875 280.1121826171875 C 372.44158935546875 281.0916748046875 374.3597412109375 282.1502685546875 376.24603271484375 283.287841796875 C 378.16424560546875 284.393798828125 379.922607421875 285.4840087890625 381.5211181640625 286.558349609375 C 383.11962890625 287.6011962890625 384.4144287109375 288.51751708984375 385.405517578125 289.3074951171875 C 384.81402587890625 290.0975341796875 384.22259521484375 290.887451171875 383.631103515625 291.677490234375"/>
    <path stroke-width="0" fill="rgb(0, 0, 0)" opacity="1.0" d="M 423.05035400390625 297.50750732421875 C 442.29638671875 297.50750732421875 461.54241943359375 297.50750732421875 480.7884521484375 297.50750732421875 C 480.7884521484375 298.42388916015625 480.7884521484375 299.34027099609375 480.7884521484375 300.25665283203125 C 461.54241943359375 300.25665283203125 442.29638671875 300.25665283203125 423.05035400390625 300.25665283203125 C 423.05035400390625 299.34027099609375 423.05035400390625 298.42388916015625 423.05035400390625 297.50750732421875M 433.84027099609375 308.598876953125 C 447.955078125 308.598876953125 462.0699462890625 308.598876953125 476.18475341796875 308.598876953125 C 476.18475341796875 309.483642578125 476.18475341796875 310.368408203125 476.18475341796875 311.253173828125 C 462.0699462890625 311.253173828125 447.955078125 311.253173828125 433.84027099609375 311.253173828125 C 433.84027099609375 310.368408203125 433.84027099609375 309.483642578125 433.84027099609375 308.598876953125M 439.25921630859375 298.59765625 C 440.1224365234375 298.834716796875 440.985595703125 299.0716552734375 441.84881591796875 299.30865478515625 C 439.4510498046875 304.1749267578125 436.302001953125 308.693603515625 432.401611328125 312.86474609375 C 428.501220703125 317.0042724609375 424.45703125 320.4959716796875 420.2689208984375 323.33984375 C 420.17303466796875 323.1502685546875 419.9971923828125 322.94488525390625 419.741455078125 322.72369384765625 C 419.48565673828125 322.470947265625 419.21392822265625 322.23388671875 418.92620849609375 322.0126953125 C 418.67041015625 321.7598876953125 418.4146728515625 321.5703125 418.158935546875 321.4439697265625 C 422.41094970703125 318.75799560546875 426.4232177734375 315.4400634765625 430.1956787109375 311.49017333984375 C 433.9681396484375 307.5086669921875 436.98931884765625 303.211181640625 439.25921630859375 298.59765625M 475.3695068359375 308.598876953125 C 476.2806396484375 308.598876953125 477.1917724609375 308.598876953125 478.10296630859375 308.598876953125 C 478.10296630859375 308.598876953125 478.08697509765625 308.820068359375 478.0550537109375 309.262451171875 C 478.0230712890625 309.6732177734375 477.97509765625 310.03662109375 477.9111328125 310.35260009765625 C 477.43157958984375 316.95684814453125 476.904052734375 322.2655029296875 476.32861328125 326.27862548828125 C 475.78515625 330.2601318359375 475.20965576171875 333.27783203125 474.60223388671875 335.331787109375 C 473.99481201171875 337.4173583984375 473.259521484375 338.88671875 472.39630126953125 339.7398681640625 C 471.78887939453125 340.34027099609375 471.1494140625 340.7352294921875 470.47808837890625 340.92486572265625 C 469.80670166015625 341.11444091796875 468.9434814453125 341.22503662109375 467.88848876953125 341.25665283203125 C 466.96136474609375 341.25665283203125 465.68255615234375 341.2408447265625 464.0521240234375 341.209228515625 C 462.45355224609375 341.209228515625 460.7591552734375 341.14605712890625 458.96881103515625 341.0196533203125 C 458.96881103515625 340.6405029296875 458.9049072265625 340.19805908203125 458.7769775390625 339.6925048828125 C 458.649169921875 339.1868896484375 458.4732666015625 338.7445068359375 458.24951171875 338.3653564453125 C 460.26361083984375 338.554931640625 462.1019287109375 338.6812744140625 463.76434326171875 338.7445068359375 C 465.458740234375 338.8077392578125 466.65765380859375 338.83929443359375 467.3609619140625 338.83929443359375 C 468.0323486328125 338.83929443359375 468.591796875 338.7918701171875 469.0394287109375 338.6971435546875 C 469.51898193359375 338.602294921875 469.902587890625 338.333740234375 470.1903076171875 337.891357421875 C 470.9256591796875 337.227783203125 471.5810546875 335.884765625 472.156494140625 333.8624267578125 C 472.763916015625 331.840087890625 473.32342529296875 328.838134765625 473.8349609375 324.856689453125 C 474.346435546875 320.8751220703125 474.8580322265625 315.67706298828125 475.3695068359375 309.262451171875 C 475.3695068359375 309.041259765625 475.3695068359375 308.820068359375 475.3695068359375 308.598876953125M 435.8543701171875 277.9317626953125 C 435.8543701171875 281.297119140625 435.8543701171875 284.66241455078125 435.8543701171875 288.0277099609375 C 447.6673583984375 288.0277099609375 459.4803466796875 288.0277099609375 471.2933349609375 288.0277099609375 C 471.2933349609375 284.66241455078125 471.2933349609375 281.297119140625 471.2933349609375 277.9317626953125 C 459.4803466796875 277.9317626953125 447.6673583984375 277.9317626953125 435.8543701171875 277.9317626953125M 435.8543701171875 265.1815185546875 C 435.8543701171875 268.531005859375 435.8543701171875 271.88055419921875 435.8543701171875 275.2301025390625 C 447.6673583984375 275.2301025390625 459.4803466796875 275.2301025390625 471.2933349609375 275.2301025390625 C 471.2933349609375 271.88055419921875 471.2933349609375 268.531005859375 471.2933349609375 265.1815185546875 C 459.4803466796875 265.1815185546875 447.6673583984375 265.1815185546875 435.8543701171875 265.1815185546875M 433.072998046875 262.5745849609375 C 446.708251953125 262.5745849609375 460.343505859375 262.5745849609375 473.97882080078125 262.5745849609375 C 473.97882080078125 271.975341796875 473.97882080078125 281.3760986328125 473.97882080078125 290.77685546875 C 460.343505859375 290.77685546875 446.708251953125 290.77685546875 433.072998046875 290.77685546875 C 433.072998046875 281.3760986328125 433.072998046875 271.975341796875 433.072998046875 262.5745849609375M 398.83294677734375 279.685546875 C 407.6407470703125 279.685546875 416.448486328125 279.685546875 425.25628662109375 279.685546875 C 425.25628662109375 280.58612060546875 425.25628662109375 281.4866943359375 425.25628662109375 282.38726806640625 C 416.448486328125 282.38726806640625 407.6407470703125 282.38726806640625 398.83294677734375 282.38726806640625 C 398.83294677734375 281.4866943359375 398.83294677734375 280.58612060546875 398.83294677734375 279.685546875M 411.0615234375 259.73065185546875 C 411.9886474609375 259.73065185546875 412.915771484375 259.73065185546875 413.84295654296875 259.73065185546875 C 413.84295654296875 278.1845703125 413.84295654296875 296.6385498046875 413.84295654296875 315.092529296875 C 412.915771484375 315.092529296875 411.9886474609375 315.092529296875 411.0615234375 315.092529296875 C 411.0615234375 296.6385498046875 411.0615234375 278.1845703125 411.0615234375 259.73065185546875M 397.3463134765625 320.353759765625 C 399.68017578125 319.31097412109375 402.34967041015625 318.07861328125 405.3548583984375 316.6566162109375 C 408.39202880859375 315.23468017578125 411.60504150390625 313.7021484375 414.993896484375 312.0589599609375 C 418.4146728515625 310.415771484375 421.83544921875 308.77264404296875 425.25628662109375 307.1295166015625 C 425.4801025390625 308.0142822265625 425.703857421875 308.8990478515625 425.92767333984375 309.7838134765625 C 421.13214111328125 312.090576171875 416.32061767578125 314.4130859375 411.4931640625 316.75146484375 C 406.6656494140625 319.08978271484375 402.38165283203125 321.17529296875 398.64111328125 323.008056640625 C 398.20953369140625 322.123291015625 397.7779541015625 321.238525390625 397.3463134765625 320.353759765625M 462.3736572265625 308.97802734375 C 463.1090087890625 309.3414306640625 463.84423828125 309.704833984375 464.57958984375 310.0682373046875 C 463.46063232421875 314.14453125 461.91009521484375 318.2208251953125 459.92791748046875 322.297119140625 C 457.94580078125 326.341796875 455.69189453125 330.070556640625 453.166259765625 333.4832763671875 C 450.640625 336.8643798828125 447.9390869140625 339.613525390625 445.061767578125 341.7305908203125 C 444.8060302734375 341.4146728515625 444.454345703125 341.0828857421875 444.00677490234375 340.7352294921875 C 443.5911865234375 340.4193115234375 443.175537109375 340.1822509765625 442.75994873046875 340.0242919921875 C 445.5733642578125 338.001953125 448.2747802734375 335.331787109375 450.8643798828125 332.013916015625 C 453.4539794921875 328.66436767578125 455.7398681640625 324.9830322265625 457.72198486328125 320.969970703125 C 459.7041015625 316.92523193359375 461.254638671875 312.927978515625 462.3736572265625 308.97802734375M 447.55548095703125 309.35723876953125 C 448.290771484375 309.752197265625 449.026123046875 310.147216796875 449.76141357421875 310.542236328125 C 448.16290283203125 313.98651123046875 446.100830078125 317.46240234375 443.5751953125 320.969970703125 C 441.08154296875 324.44586181640625 438.30010986328125 327.6531982421875 435.23095703125 330.5919189453125 C 432.19384765625 333.5306396484375 429.140625 335.9637451171875 426.071533203125 337.891357421875 C 425.8477783203125 337.60693359375 425.54400634765625 337.25933837890625 425.160400390625 336.8485107421875 C 424.8087158203125 336.4693603515625 424.4410400390625 336.15338134765625 424.057373046875 335.90057373046875 C 427.0626220703125 334.16259765625 430.083740234375 331.8717041015625 433.1209716796875 329.0277099609375 C 436.1580810546875 326.1522216796875 438.93951416015625 323.008056640625 441.46514892578125 319.5953369140625 C 443.99078369140625 316.15106201171875 446.0208740234375 312.73834228515625 447.55548095703125 309.35723876953125"/>
  </g>
</svg>
