<?xml version="1.0" encoding="utf-8"?>
<svg xmlns="http://www.w3.org/2000/svg" xmlns:ev="http://www.w3.org/2001/xml-events" xmlns:xlink="http://www.w3.org/1999/xlink" version="1.1" baseProfile="full" width="11171.0" height="1744.0" viewBox="190.0 -1596.0 11171.0 1744.0">
<defs/>
<g><path d="M 6029.000000 -1010.000000 C 6205.000000 -1010.000000 6381.000000 -1010.000000 6557.000000 -1010.000000 C 6557.000000 -991.333333 6557.000000 -972.666667 6557.000000 -954.000000 C 6381.000000 -954.000000 6205.000000 -954.000000 6029.000000 -954.000000 C 6029.000000 -972.666667 6029.000000 -991.333333 6029.000000 -1010.000000z M 6023.000000 -369.000000 C 6201.666667 -369.000000 6380.333333 -369.000000 6559.000000 -369.000000 C 6559.000000 -350.333333 6559.000000 -331.666667 6559.000000 -313.000000 C 6380.333333 -313.000000 6201.666667 -313.000000 6023.000000 -313.000000 C 6023.000000 -331.666667 6023.000000 -350.333333 6023.000000 -369.000000z M 6023.000000 -697.000000 C 6201.666667 -697.000000 6380.333333 -697.000000 6559.000000 -697.000000 C 6559.000000 -677.666667 6559.000000 -658.333333 6559.000000 -639.000000 C 6380.333333 -639.000000 6201.666667 -639.000000 6023.000000 -639.000000 C 6023.000000 -658.333333 6023.000000 -677.666667 6023.000000 -697.000000z M 6526.000000 -1010.000000 C 6544.666667 -1010.000000 6563.333333 -1010.000000 6582.000000 -1010.000000 C 6582.000000 -663.666667 6582.000000 -317.333333 6582.000000 29.000000 C 6582.000000 50.333333 6578.333333 66.666667 6571.000000 78.000000 C 6564.333333 90.000000 6552.000000 98.666667 6534.000000 104.000000 C 6516.000000 108.666667 6488.000000 111.666667 6450.000000 113.000000 C 6412.666667 114.333333 6362.000000 115.000000 6298.000000 115.000000 C 6296.666667 107.666667 6293.333333 98.666667 6288.000000 88.000000 C 6282.666667 78.000000 6277.666667 69.000000 6273.000000 61.000000 C 6326.333333 62.333333 6372.666667 63.000000 6412.000000 63.000000 C 6452.000000 63.000000 6478.666667 62.333333 6492.000000 61.000000 C 6504.666667 60.333333 6513.333333 57.666667 6518.000000 53.000000 C 6523.333333 48.333333 6526.000000 40.333333 6526.000000 29.000000 C 6526.000000 -317.333333 6526.000000 -663.666667 6526.000000 -1010.000000z M 6002.000000 -1010.000000 C 6020.666667 -1010.000000 6039.333333 -1010.000000 6058.000000 -1010.000000 C 6058.000000 -874.333333 6058.000000 -738.666667 6058.000000 -603.000000 C 6058.000000 -547.666667 6055.666667 -488.333333 6051.000000 -425.000000 C 6046.333333 -361.666667 6037.666667 -297.000000 6025.000000 -231.000000 C 6012.333333 -165.000000 5994.333333 -100.333333 5971.000000 -37.000000 C 5948.333333 26.333333 5917.666667 85.333333 5879.000000 140.000000 C 5876.333333 134.666667 5872.000000 129.666667 5866.000000 125.000000 C 5860.666667 121.000000 5855.333333 116.666667 5850.000000 112.000000 C 5845.333333 108.000000 5840.333333 104.666667 5835.000000 102.000000 C 5885.000000 32.666667 5921.666667 -43.333333 5945.000000 -126.000000 C 5969.000000 -208.666667 5984.333333 -291.000000 5991.000000 -373.000000 C 5998.333333 -455.666667 6002.000000 -532.333333 6002.000000 -603.000000 C 6002.000000 -738.666667 6002.000000 -874.333333 6002.000000 -1010.000000z M 6872.000000 -1010.000000 C 7056.333333 -1010.000000 7240.666667 -1010.000000 7425.000000 -1010.000000 C 7425.000000 -991.333333 7425.000000 -972.666667 7425.000000 -954.000000 C 7240.666667 -954.000000 7056.333333 -954.000000 6872.000000 -954.000000 C 6872.000000 -972.666667 6872.000000 -991.333333 6872.000000 -1010.000000z M 6866.000000 -361.000000 C 7053.000000 -361.000000 7240.000000 -361.000000 7427.000000 -361.000000 C 7427.000000 -342.333333 7427.000000 -323.666667 7427.000000 -305.000000 C 7240.000000 -305.000000 7053.000000 -305.000000 6866.000000 -305.000000 C 6866.000000 -323.666667 6866.000000 -342.333333 6866.000000 -361.000000z M 6866.000000 -697.000000 C 7053.000000 -697.000000 7240.000000 -697.000000 7427.000000 -697.000000 C 7427.000000 -677.666667 7427.000000 -658.333333 7427.000000 -639.000000 C 7240.000000 -639.000000 7053.000000 -639.000000 6866.000000 -639.000000 C 6866.000000 -658.333333 6866.000000 -677.666667 6866.000000 -697.000000z M 7402.000000 -1010.000000 C 7420.333333 -1010.000000 7438.666667 -1010.000000 7457.000000 -1010.000000 C 7457.000000 -662.333333 7457.000000 -314.666667 7457.000000 33.000000 C 7457.000000 57.000000 7453.000000 74.666667 7445.000000 86.000000 C 7437.666667 98.000000 7425.000000 107.000000 7407.000000 113.000000 C 7388.333333 118.333333 7359.333333 121.333333 7320.000000 122.000000 C 7280.666667 122.666667 7226.000000 123.000000 7156.000000 123.000000 C 7153.333333 115.000000 7150.000000 106.000000 7146.000000 96.000000 C 7142.000000 86.000000 7137.666667 77.000000 7133.000000 69.000000 C 7189.000000 70.333333 7238.000000 71.000000 7280.000000 71.000000 C 7322.666667 71.000000 7350.333333 70.333333 7363.000000 69.000000 C 7377.000000 67.666667 7387.000000 64.666667 7393.000000 60.000000 C 7399.000000 56.000000 7402.000000 47.666667 7402.000000 35.000000 C 7402.000000 -313.333333 7402.000000 -661.666667 7402.000000 -1010.000000z M 6837.000000 -1010.000000 C 6855.666667 -1010.000000 6874.333333 -1010.000000 6893.000000 -1010.000000 C 6893.000000 -853.333333 6893.000000 -696.666667 6893.000000 -540.000000 C 6893.000000 -488.666667 6890.666667 -433.333333 6886.000000 -374.000000 C 6881.333333 -315.333333 6872.666667 -256.000000 6860.000000 -196.000000 C 6847.333333 -136.000000 6828.333333 -77.000000 6803.000000 -19.000000 C 6778.333333 38.333333 6746.333333 91.333333 6707.000000 140.000000 C 6704.333333 134.666667 6700.000000 129.666667 6694.000000 125.000000 C 6688.000000 121.000000 6682.333333 116.666667 6677.000000 112.000000 C 6672.333333 108.000000 6668.000000 104.666667 6664.000000 102.000000 C 6715.333333 40.666667 6753.000000 -27.333333 6777.000000 -102.000000 C 6801.666667 -177.333333 6817.666667 -252.666667 6825.000000 -328.000000 C 6833.000000 -404.000000 6837.000000 -474.666667 6837.000000 -540.000000 C 6837.000000 -696.666667 6837.000000 -853.333333 6837.000000 -1010.000000z M 5998.000000 -1524.000000 C 6016.666667 -1524.000000 6035.333333 -1524.000000 6054.000000 -1524.000000 C 6054.000000 -1427.000000 6054.000000 -1330.000000 6054.000000 -1233.000000 C 6502.666667 -1233.000000 6951.333333 -1233.000000 7400.000000 -1233.000000 C 7400.000000 -1330.000000 7400.000000 -1427.000000 7400.000000 -1524.000000 C 7418.333333 -1524.000000 7436.666667 -1524.000000 7455.000000 -1524.000000 C 7455.000000 -1408.333333 7455.000000 -1292.666667 7455.000000 -1177.000000 C 6969.333333 -1177.000000 6483.666667 -1177.000000 5998.000000 -1177.000000 C 5998.000000 -1292.666667 5998.000000 -1408.333333 5998.000000 -1524.000000z M 6689.000000 -1596.000000 C 6708.333333 -1596.000000 6727.666667 -1596.000000 6747.000000 -1596.000000 C 6747.000000 -1468.333333 6747.000000 -1340.666667 6747.000000 -1213.000000 C 6727.666667 -1213.000000 6708.333333 -1213.000000 6689.000000 -1213.000000 C 6689.000000 -1340.666667 6689.000000 -1468.333333 6689.000000 -1596.000000z "/>
</g></svg>
