<?xml version="1.0" encoding="utf-8"?>
<svg xmlns="http://www.w3.org/2000/svg" xmlns:ev="http://www.w3.org/2001/xml-events" xmlns:xlink="http://www.w3.org/1999/xlink" version="1.1" baseProfile="full" width="30496.0" height="1753.0" viewBox="136.0 -1597.0 30496.0 1753.0">
<defs/>
<g><path d="M 11635.000000 -315.000000 C 12200.333333 -315.000000 12765.666667 -315.000000 13331.000000 -315.000000 C 13331.000000 -295.666667 13331.000000 -276.333333 13331.000000 -257.000000 C 12765.666667 -257.000000 12200.333333 -257.000000 11635.000000 -257.000000 C 11635.000000 -276.333333 11635.000000 -295.666667 11635.000000 -315.000000z M 12449.000000 -1597.000000 C 12468.333333 -1597.000000 12487.666667 -1597.000000 12507.000000 -1597.000000 C 12507.000000 -1521.000000 12507.000000 -1445.000000 12507.000000 -1369.000000 C 12487.666667 -1369.000000 12468.333333 -1369.000000 12449.000000 -1369.000000 C 12449.000000 -1445.000000 12449.000000 -1521.000000 12449.000000 -1597.000000z M 11808.000000 -678.000000 C 12232.333333 -678.000000 12656.666667 -678.000000 13081.000000 -678.000000 C 13081.000000 -659.333333 13081.000000 -640.666667 13081.000000 -622.000000 C 12656.666667 -622.000000 12232.333333 -622.000000 11808.000000 -622.000000 C 11808.000000 -640.666667 11808.000000 -659.333333 11808.000000 -678.000000z M 12449.000000 -461.000000 C 12468.333333 -461.000000 12487.666667 -461.000000 12507.000000 -461.000000 C 12507.000000 -290.000000 12507.000000 -119.000000 12507.000000 52.000000 C 12507.000000 76.000000 12502.666667 93.666667 12494.000000 105.000000 C 12486.000000 117.000000 12471.000000 125.666667 12449.000000 131.000000 C 12427.666667 135.666667 12392.000000 138.333333 12342.000000 139.000000 C 12292.000000 139.666667 12222.666667 140.000000 12134.000000 140.000000 C 12132.666667 132.666667 12129.666667 124.666667 12125.000000 116.000000 C 12121.000000 108.000000 12116.333333 99.333333 12111.000000 90.000000 C 12162.333333 91.333333 12208.000000 92.000000 12248.000000 92.000000 C 12288.666667 92.000000 12322.666667 91.666667 12350.000000 91.000000 C 12378.000000 90.333333 12397.666667 90.000000 12409.000000 90.000000 C 12425.666667 88.666667 12436.333333 85.333333 12441.000000 80.000000 C 12446.333333 75.333333 12449.000000 66.666667 12449.000000 54.000000 C 12449.000000 -117.666667 12449.000000 -289.333333 12449.000000 -461.000000z M 13068.000000 -678.000000 C 13073.000000 -678.000000 13078.000000 -678.000000 13083.000000 -678.000000 C 13087.333333 -679.333333 13091.666667 -680.666667 13096.000000 -682.000000 C 13112.000000 -670.333333 13128.000000 -658.666667 13144.000000 -647.000000 C 13089.333333 -612.333333 13025.000000 -580.000000 12951.000000 -550.000000 C 12877.666667 -520.000000 12801.666667 -493.000000 12723.000000 -469.000000 C 12644.333333 -445.666667 12569.000000 -426.333333 12497.000000 -411.000000 C 12492.333333 -417.000000 12486.000000 -424.000000 12478.000000 -432.000000 C 12470.666667 -440.000000 12463.666667 -446.333333 12457.000000 -451.000000 C 12528.333333 -466.333333 12601.666667 -485.000000 12677.000000 -507.000000 C 12753.000000 -529.666667 12825.000000 -554.000000 12893.000000 -580.000000 C 12961.666667 -606.666667 13020.000000 -634.000000 13068.000000 -662.000000 C 13068.000000 -667.333333 13068.000000 -672.666667 13068.000000 -678.000000z M 11964.000000 -1129.000000 C 11964.000000 -1049.666667 11964.000000 -970.333333 11964.000000 -891.000000 C 12310.666667 -891.000000 12657.333333 -891.000000 13004.000000 -891.000000 C 13004.000000 -970.333333 13004.000000 -1049.666667 13004.000000 -1129.000000 C 12657.333333 -1129.000000 12310.666667 -1129.000000 11964.000000 -1129.000000z M 11908.000000 -1187.000000 C 12292.666667 -1187.000000 12677.333333 -1187.000000 13062.000000 -1187.000000 C 13062.000000 -1069.000000 13062.000000 -951.000000 13062.000000 -833.000000 C 12677.333333 -833.000000 12292.666667 -833.000000 11908.000000 -833.000000 C 11908.000000 -951.000000 11908.000000 -1069.000000 11908.000000 -1187.000000z M 11645.000000 -1402.000000 C 12201.000000 -1402.000000 12757.000000 -1402.000000 13313.000000 -1402.000000 C 13313.000000 -1383.333333 13313.000000 -1364.666667 13313.000000 -1346.000000 C 12757.000000 -1346.000000 12201.000000 -1346.000000 11645.000000 -1346.000000 C 11645.000000 -1364.666667 11645.000000 -1383.333333 11645.000000 -1402.000000z "/>
</g></svg>
