<?xml version="1.0" encoding="utf-8"?>
<svg xmlns="http://www.w3.org/2000/svg" xmlns:ev="http://www.w3.org/2001/xml-events" xmlns:xlink="http://www.w3.org/1999/xlink" version="1.1" baseProfile="full" width="16896.0" height="1920.0" viewBox="192.0 -1690.0 16896.0 1920.0">
<defs/>
<g><path d="M 5952.000000 230.000000 C 5952.000000 -410.000000 5952.000000 -1050.000000 5952.000000 -1690.000000 C 6464.000000 -1690.000000 6976.000000 -1690.000000 7488.000000 -1690.000000 C 7488.000000 -1050.000000 7488.000000 -410.000000 7488.000000 230.000000 C 6976.000000 230.000000 6464.000000 230.000000 5952.000000 230.000000z M 6720.000000 -808.000000 C 6923.666667 -1070.000000 7127.333333 -1332.000000 7331.000000 -1594.000000 C 6923.666667 -1594.000000 6516.333333 -1594.000000 6109.000000 -1594.000000 C 6312.666667 -1332.000000 6516.333333 -1070.000000 6720.000000 -808.000000z M 6781.000000 -730.000000 C 6984.666667 -468.000000 7188.333333 -206.000000 7392.000000 56.000000 C 7392.000000 -467.666667 7392.000000 -991.333333 7392.000000 -1515.000000 C 7188.333333 -1253.333333 6984.666667 -991.666667 6781.000000 -730.000000z M 6109.000000 134.000000 C 6516.333333 134.000000 6923.666667 134.000000 7331.000000 134.000000 C 7127.333333 -127.666667 6923.666667 -389.333333 6720.000000 -651.000000 C 6516.333333 -389.333333 6312.666667 -127.666667 6109.000000 134.000000z M 6048.000000 -1515.000000 C 6048.000000 -991.333333 6048.000000 -467.666667 6048.000000 56.000000 C 6251.666667 -206.000000 6455.333333 -468.000000 6659.000000 -730.000000 C 6455.333333 -991.666667 6251.666667 -1253.333333 6048.000000 -1515.000000z "/>
</g></svg>
