<?xml version="1.0" encoding="utf-8"?>
<svg xmlns="http://www.w3.org/2000/svg" xmlns:ev="http://www.w3.org/2001/xml-events" xmlns:xlink="http://www.w3.org/1999/xlink" version="1.1" baseProfile="full" width="49628.0" height="1744.0" viewBox="213.0 -1596.0 49628.0 1744.0">
<defs/>
<g><path d="M 213.000000 -1164.000000 C 242.333333 -1160.000000 273.666667 -1157.000000 307.000000 -1155.000000 C 340.333333 -1153.000000 380.666667 -1152.000000 428.000000 -1152.000000 C 488.000000 -1152.000000 552.333333 -1154.000000 621.000000 -1158.000000 C 689.666667 -1162.666667 763.000000 -1172.000000 841.000000 -1186.000000 C 919.000000 -1200.666667 1001.000000 -1222.000000 1087.000000 -1250.000000 C 1087.666667 -1229.000000 1088.333333 -1208.000000 1089.000000 -1187.000000 C 1018.333333 -1167.666667 946.000000 -1151.000000 872.000000 -1137.000000 C 798.666667 -1123.666667 724.666667 -1113.333333 650.000000 -1106.000000 C 575.333333 -1099.333333 500.666667 -1096.000000 426.000000 -1096.000000 C 394.000000 -1096.000000 358.666667 -1096.333333 320.000000 -1097.000000 C 282.000000 -1097.666667 247.666667 -1098.666667 217.000000 -1100.000000 C 215.666667 -1121.333333 214.333333 -1142.666667 213.000000 -1164.000000z M 828.000000 -1501.000000 C 820.000000 -1473.000000 810.666667 -1437.000000 800.000000 -1393.000000 C 790.000000 -1349.000000 779.000000 -1303.666667 767.000000 -1257.000000 C 755.000000 -1210.333333 742.666667 -1168.333333 730.000000 -1131.000000 C 698.000000 -1039.000000 658.000000 -942.666667 610.000000 -842.000000 C 562.000000 -741.333333 511.000000 -644.666667 457.000000 -552.000000 C 403.000000 -459.333333 350.000000 -379.000000 298.000000 -311.000000 C 276.666667 -322.666667 255.333333 -334.333333 234.000000 -346.000000 C 276.666667 -393.333333 319.333333 -448.666667 362.000000 -512.000000 C 404.666667 -575.333333 445.000000 -642.333333 483.000000 -713.000000 C 521.666667 -784.333333 557.333333 -855.333333 590.000000 -926.000000 C 622.666667 -997.333333 649.333333 -1063.666667 670.000000 -1125.000000 C 688.000000 -1177.666667 706.000000 -1239.666667 724.000000 -1311.000000 C 742.000000 -1383.000000 752.333333 -1449.000000 755.000000 -1509.000000 C 779.333333 -1506.333333 803.666667 -1503.666667 828.000000 -1501.000000z M 1283.000000 -914.000000 C 1281.666667 -875.333333 1280.333333 -844.333333 1279.000000 -821.000000 C 1277.666667 -798.333333 1277.666667 -773.666667 1279.000000 -747.000000 C 1280.333333 -712.333333 1281.666667 -670.000000 1283.000000 -620.000000 C 1285.000000 -570.000000 1287.333333 -517.000000 1290.000000 -461.000000 C 1292.666667 -405.666667 1295.000000 -352.000000 1297.000000 -300.000000 C 1299.000000 -248.666667 1300.000000 -204.333333 1300.000000 -167.000000 C 1300.000000 -125.000000 1288.666667 -85.666667 1266.000000 -49.000000 C 1244.000000 -12.333333 1210.666667 16.666667 1166.000000 38.000000 C 1122.000000 60.000000 1066.000000 71.000000 998.000000 71.000000 C 936.666667 71.000000 880.333333 63.333333 829.000000 48.000000 C 778.333333 32.666667 737.333333 7.666667 706.000000 -27.000000 C 674.666667 -61.666667 659.000000 -107.000000 659.000000 -163.000000 C 659.000000 -219.666667 675.666667 -265.666667 709.000000 -301.000000 C 743.000000 -337.000000 786.333333 -363.666667 839.000000 -381.000000 C 891.666667 -398.333333 945.333333 -407.000000 1000.000000 -407.000000 C 1104.000000 -407.000000 1198.333333 -392.666667 1283.000000 -364.000000 C 1368.333333 -335.333333 1445.333333 -299.000000 1514.000000 -255.000000 C 1582.666667 -211.666667 1643.000000 -169.000000 1695.000000 -127.000000 C 1683.000000 -109.000000 1671.000000 -91.000000 1659.000000 -73.000000 C 1619.000000 -107.666667 1575.666667 -142.000000 1529.000000 -176.000000 C 1482.333333 -210.000000 1431.333333 -240.333333 1376.000000 -267.000000 C 1321.333333 -293.666667 1263.000000 -315.333333 1201.000000 -332.000000 C 1139.000000 -348.666667 1073.333333 -357.000000 1004.000000 -357.000000 C 918.666667 -357.000000 849.000000 -338.666667 795.000000 -302.000000 C 741.000000 -266.000000 714.000000 -220.333333 714.000000 -165.000000 C 714.000000 -111.000000 736.333333 -67.333333 781.000000 -34.000000 C 826.333333 -1.333333 897.666667 15.000000 995.000000 15.000000 C 1057.666667 15.000000 1107.333333 6.000000 1144.000000 -12.000000 C 1181.333333 -30.666667 1208.000000 -55.333333 1224.000000 -86.000000 C 1240.000000 -116.666667 1248.000000 -148.666667 1248.000000 -182.000000 C 1248.000000 -227.333333 1247.000000 -280.000000 1245.000000 -340.000000 C 1243.000000 -400.000000 1240.333333 -463.666667 1237.000000 -531.000000 C 1234.333333 -598.333333 1231.666667 -665.000000 1229.000000 -731.000000 C 1226.333333 -797.666667 1224.333333 -858.666667 1223.000000 -914.000000 C 1243.000000 -914.000000 1263.000000 -914.000000 1283.000000 -914.000000z M 1720.000000 -914.000000 C 1688.000000 -943.333333 1647.000000 -974.000000 1597.000000 -1006.000000 C 1547.666667 -1038.000000 1496.666667 -1068.333333 1444.000000 -1097.000000 C 1391.333333 -1125.666667 1344.666667 -1149.666667 1304.000000 -1169.000000 C 1314.000000 -1183.666667 1324.000000 -1198.333333 1334.000000 -1213.000000 C 1368.666667 -1197.666667 1406.000000 -1179.333333 1446.000000 -1158.000000 C 1486.666667 -1137.333333 1526.666667 -1115.000000 1566.000000 -1091.000000 C 1606.000000 -1067.666667 1642.666667 -1044.666667 1676.000000 -1022.000000 C 1709.333333 -1000.000000 1736.333333 -980.666667 1757.000000 -964.000000 C 1744.666667 -947.333333 1732.333333 -930.666667 1720.000000 -914.000000z "/>
</g></svg>
