<?xml version="1.0" encoding="utf-8"?>
<svg xmlns="http://www.w3.org/2000/svg" xmlns:ev="http://www.w3.org/2001/xml-events" xmlns:xlink="http://www.w3.org/1999/xlink" version="1.1" baseProfile="full" width="17098.0" height="1737.3" viewBox="90.0 -1596.0 17098.0 1737.3">
<defs/>
<g><path d="M 9780.000000 -1165.000000 C 10304.333333 -1165.000000 10828.666667 -1165.000000 11353.000000 -1165.000000 C 11353.000000 -1041.000000 11353.000000 -917.000000 11353.000000 -793.000000 C 11333.666667 -793.000000 11314.333333 -793.000000 11295.000000 -793.000000 C 11295.000000 -898.000000 11295.000000 -1003.000000 11295.000000 -1108.000000 C 10809.333333 -1108.000000 10323.666667 -1108.000000 9838.000000 -1108.000000 C 9838.000000 -1003.000000 9838.000000 -898.000000 9838.000000 -793.000000 C 9818.666667 -793.000000 9799.333333 -793.000000 9780.000000 -793.000000 C 9780.000000 -917.000000 9780.000000 -1041.000000 9780.000000 -1165.000000z M 9867.000000 -712.000000 C 10302.000000 -712.000000 10737.000000 -712.000000 11172.000000 -712.000000 C 11172.000000 -693.000000 11172.000000 -674.000000 11172.000000 -655.000000 C 10737.000000 -655.000000 10302.000000 -655.000000 9867.000000 -655.000000 C 9867.000000 -674.000000 9867.000000 -693.000000 9867.000000 -712.000000z M 11157.000000 -712.000000 C 11175.666667 -712.000000 11194.333333 -712.000000 11213.000000 -712.000000 C 11213.000000 -712.000000 11213.000000 -709.666667 11213.000000 -705.000000 C 11213.000000 -701.000000 11213.000000 -695.666667 11213.000000 -689.000000 C 11213.000000 -683.000000 11213.000000 -678.000000 11213.000000 -674.000000 C 11203.666667 -498.666667 11194.000000 -358.000000 11184.000000 -252.000000 C 11174.000000 -146.666667 11162.000000 -66.666667 11148.000000 -12.000000 C 11134.666667 42.000000 11118.000000 79.333333 11098.000000 100.000000 C 11084.666667 115.333333 11068.666667 125.333333 11050.000000 130.000000 C 11032.000000 135.333333 11008.333333 138.666667 10979.000000 140.000000 C 10947.666667 141.333333 10902.000000 141.000000 10842.000000 139.000000 C 10782.000000 137.000000 10718.000000 133.666667 10650.000000 129.000000 C 10648.666667 119.666667 10646.333333 110.000000 10643.000000 100.000000 C 10640.333333 90.666667 10635.666667 81.666667 10629.000000 73.000000 C 10704.333333 79.666667 10774.000000 83.666667 10838.000000 85.000000 C 10902.000000 87.000000 10944.333333 88.000000 10965.000000 88.000000 C 10987.000000 88.000000 11004.666667 86.666667 11018.000000 84.000000 C 11031.333333 82.000000 11042.666667 76.333333 11052.000000 67.000000 C 11068.000000 50.333333 11082.333333 16.000000 11095.000000 -36.000000 C 11108.333333 -88.666667 11119.666667 -168.000000 11129.000000 -274.000000 C 11139.000000 -380.666667 11148.333333 -522.333333 11157.000000 -699.000000 C 11157.000000 -703.333333 11157.000000 -707.666667 11157.000000 -712.000000z M 10464.000000 -1023.000000 C 10483.333333 -1023.000000 10502.666667 -1023.000000 10522.000000 -1023.000000 C 10515.333333 -901.666667 10505.333333 -789.000000 10492.000000 -685.000000 C 10478.666667 -581.666667 10456.666667 -487.000000 10426.000000 -401.000000 C 10395.333333 -315.666667 10352.333333 -238.666667 10297.000000 -170.000000 C 10241.666667 -101.333333 10169.666667 -41.666667 10081.000000 9.000000 C 9993.000000 60.333333 9884.000000 102.666667 9754.000000 136.000000 C 9751.333333 131.333333 9747.666667 126.000000 9743.000000 120.000000 C 9738.333333 114.000000 9733.666667 108.000000 9729.000000 102.000000 C 9725.000000 96.666667 9721.000000 92.000000 9717.000000 88.000000 C 9845.000000 56.000000 9952.000000 16.000000 10038.000000 -32.000000 C 10124.666667 -80.000000 10195.000000 -136.666667 10249.000000 -202.000000 C 10303.000000 -268.000000 10344.333333 -342.333333 10373.000000 -425.000000 C 10401.666667 -507.666667 10422.666667 -599.000000 10436.000000 -699.000000 C 10449.333333 -799.000000 10458.666667 -907.000000 10464.000000 -1023.000000z M 11194.000000 -1571.000000 C 11211.000000 -1561.333333 11228.000000 -1551.666667 11245.000000 -1542.000000 C 11205.666667 -1478.000000 11160.333333 -1410.333333 11109.000000 -1339.000000 C 11057.666667 -1268.333333 11009.666667 -1207.333333 10965.000000 -1156.000000 C 10951.000000 -1165.666667 10937.000000 -1175.333333 10923.000000 -1185.000000 C 10952.333333 -1219.000000 10984.000000 -1258.666667 11018.000000 -1304.000000 C 11052.000000 -1350.000000 11084.333333 -1396.333333 11115.000000 -1443.000000 C 11145.666667 -1489.666667 11172.000000 -1532.333333 11194.000000 -1571.000000z M 9894.000000 -1526.000000 C 9910.000000 -1534.333333 9926.000000 -1542.666667 9942.000000 -1551.000000 C 9971.333333 -1519.000000 10000.000000 -1483.666667 10028.000000 -1445.000000 C 10056.000000 -1407.000000 10081.666667 -1369.333333 10105.000000 -1332.000000 C 10129.000000 -1295.333333 10147.666667 -1263.000000 10161.000000 -1235.000000 C 10145.000000 -1224.666667 10129.000000 -1214.333333 10113.000000 -1204.000000 C 10099.000000 -1233.333333 10080.333333 -1266.333333 10057.000000 -1303.000000 C 10033.666667 -1340.333333 10008.000000 -1378.666667 9980.000000 -1418.000000 C 9952.000000 -1458.000000 9923.333333 -1494.000000 9894.000000 -1526.000000z M 10416.000000 -1571.000000 C 10432.000000 -1576.000000 10448.000000 -1581.000000 10464.000000 -1586.000000 C 10497.333333 -1530.666667 10528.666667 -1470.666667 10558.000000 -1406.000000 C 10587.333333 -1341.333333 10606.666667 -1286.666667 10616.000000 -1242.000000 C 10599.333333 -1235.666667 10582.666667 -1229.333333 10566.000000 -1223.000000 C 10559.333333 -1253.666667 10548.333333 -1289.000000 10533.000000 -1329.000000 C 10517.666667 -1369.666667 10499.666667 -1411.000000 10479.000000 -1453.000000 C 10459.000000 -1495.666667 10438.000000 -1535.000000 10416.000000 -1571.000000z "/>
</g></svg>
