<?xml version="1.0" ?>
<svg xmlns="http://www.w3.org/2000/svg" version="1.1" width="600" height="600">
  <defs/>
  <g>
    <path stroke-width="0" fill="rgb(0, 0, 0)" opacity="1.0" d="M 367.252197265625 176.064208984375 C 367.252197265625 185.28439331054688 367.252197265625 195.33029174804688 367.252197265625 206.20184326171875 C 367.252197265625 217.07339477539062 367.252197265625 227.738525390625 367.252197265625 238.197265625 C 367.252197265625 248.51837158203125 367.252197265625 257.8073425292969 367.252197265625 266.064208984375 C 367.252197265625 277.21099853515625 367.458740234375 289.32110595703125 367.87158203125 302.39453125 C 368.421875 315.4678955078125 369.041259765625 328.47247314453125 369.729248046875 341.40826416015625 C 370.417236328125 354.343994140625 371.036376953125 366.2476806640625 371.5869140625 377.1192626953125 C 372.137451171875 387.85321044921875 372.41259765625 396.6605224609375 372.41259765625 403.541259765625 C 372.41259765625 418.12841796875 367.18359375 429.06884765625 356.72509765625 436.3624267578125 C 346.2666015625 443.518310546875 332.574462890625 447.0963134765625 315.648193359375 447.0963134765625 C 301.88720703125 447.0963134765625 289.777587890625 445.307373046875 279.319091796875 441.7293701171875 C 268.998291015625 438.0137939453125 260.87939453125 432.5780029296875 254.962158203125 425.4219970703125 C 249.182373046875 418.26605224609375 246.29248046875 409.389892578125 246.29248046875 398.7935791015625 C 246.29248046875 391.6375732421875 248.494384765625 384.55047607421875 252.89794921875 377.5321044921875 C 257.43896484375 370.37615966796875 264.8701171875 364.389892578125 275.19091796875 359.5733642578125 C 285.511474609375 354.75689697265625 299.272705078125 352.3486328125 316.473876953125 352.3486328125 C 331.748779296875 352.3486328125 346.06005859375 354.0 359.408447265625 357.302734375 C 372.756591796875 360.4678955078125 385.1416015625 364.73394775390625 396.563232421875 370.1009521484375 C 408.12255859375 375.4678955078125 418.993896484375 381.79815673828125 429.177001953125 389.09173583984375 C 439.360107421875 396.38531494140625 448.924072265625 403.9541015625 457.86865234375 411.79815673828125 C 455.391845703125 415.9266357421875 452.914794921875 420.0550537109375 450.437744140625 424.1834716796875 C 438.052734375 411.2476806640625 424.6357421875 400.238525390625 410.186767578125 391.156005859375 C 395.737548828125 381.935791015625 380.669189453125 374.9862060546875 364.981689453125 370.307373046875 C 349.2939453125 365.4908447265625 333.125 363.08258056640625 316.473876953125 363.08258056640625 C 299.272705078125 363.08258056640625 285.098876953125 366.38531494140625 273.952392578125 372.9908447265625 C 262.943603515625 379.5963134765625 257.43896484375 388.197265625 257.43896484375 398.7935791015625 C 257.43896484375 411.17889404296875 262.737060546875 420.53668212890625 273.3330078125 426.866943359375 C 284.066650390625 433.05963134765625 298.447021484375 436.156005859375 316.473876953125 436.156005859375 C 329.409423828125 436.156005859375 339.0419921875 434.1605224609375 345.3720703125 430.16973876953125 C 351.702392578125 426.17889404296875 355.968017578125 420.8807373046875 358.169921875 414.2752685546875 C 360.50927734375 407.66973876953125 361.678955078125 400.5137939453125 361.678955078125 392.807373046875 C 361.678955078125 387.5780029296875 361.40380859375 380.0780029296875 360.853271484375 370.307373046875 C 360.302734375 360.53668212890625 359.61474609375 349.6651611328125 358.7890625 337.692626953125 C 358.10107421875 325.58258056640625 357.48193359375 313.4036865234375 356.931396484375 301.15594482421875 C 356.380859375 288.90826416015625 356.105712890625 277.62384033203125 356.105712890625 267.302734375 C 356.105712890625 259.0458679199219 356.105712890625 249.48165893554688 356.105712890625 238.610107421875 C 356.105712890625 227.60089111328125 356.105712890625 216.52294921875 356.105712890625 205.37615966796875 C 356.105712890625 194.09173583984375 356.105712890625 184.32110595703125 356.105712890625 176.064208984375 C 359.8212890625 176.064208984375 363.53662109375 176.064208984375 367.252197265625 176.064208984375M 254.54931640625 260.4908447265625 C 277.392578125 262.1422119140625 300.37353515625 262.83026123046875 323.4921875 262.5550537109375 C 346.610595703125 262.2798156738281 368.834716796875 261.38531494140625 390.164306640625 259.87158203125 C 411.631591796875 258.2201843261719 430.828369140625 256.43121337890625 447.75439453125 254.50457763671875 C 447.75439453125 258.6330261230469 447.75439453125 262.761474609375 447.75439453125 266.889892578125 C 431.2412109375 268.4036865234375 412.18212890625 269.91741943359375 390.5771484375 271.43121337890625 C 368.97216796875 272.8073425292969 346.472900390625 273.70184326171875 323.079345703125 274.11468505859375 C 299.685546875 274.52752685546875 276.842041015625 274.11468505859375 254.54931640625 272.87615966796875 C 254.54931640625 268.7477111816406 254.54931640625 264.6192626953125 254.54931640625 260.4908447265625M 260.947998046875 169.25228881835938 C 274.709228515625 170.35321044921875 289.5712890625 170.97250366210938 305.533935546875 171.110107421875 C 321.49658203125 171.24771118164062 337.5283203125 170.97250366210938 353.628662109375 170.28439331054688 C 369.866943359375 169.5963134765625 385.21044921875 168.70184326171875 399.659423828125 167.60092163085938 C 414.246337890625 166.36239624023438 427.0439453125 164.98623657226562 438.052734375 163.47247314453125 C 438.052734375 167.39450073242188 438.052734375 171.3165283203125 438.052734375 175.238525390625 C 427.59423828125 176.33944702148438 415.072021484375 177.44036865234375 400.485107421875 178.54129028320312 C 385.8984375 179.50457763671875 370.486083984375 180.33026123046875 354.248046875 181.01834106445312 C 338.010009765625 181.7064208984375 321.8408203125 182.1192626953125 305.740234375 182.25689697265625 C 289.639892578125 182.39450073242188 274.709228515625 182.05047607421875 260.947998046875 181.22476196289062 C 260.947998046875 177.23394775390625 260.947998046875 173.24313354492188 260.947998046875 169.25228881835938M 179.0009765625 149.2293701171875 C 178.45068359375 150.74313354492188 177.900146484375 152.46328735351562 177.349853515625 154.38992309570312 C 176.79931640625 156.17889404296875 176.317626953125 158.10549926757812 175.90478515625 160.16973876953125 C 175.491943359375 162.09634399414062 175.0791015625 164.22933959960938 174.666259765625 166.56881713867188 C 172.73974609375 176.064208984375 170.744384765625 186.17889404296875 168.68017578125 196.912841796875 C 166.75390625 207.64678955078125 164.89599609375 218.72476196289062 163.107177734375 230.14678955078125 C 161.455810546875 241.43121337890625 159.942138671875 252.784423828125 158.56591796875 264.2064208984375 C 157.327392578125 275.4908447265625 156.29541015625 286.63763427734375 155.4697265625 297.64678955078125 C 154.78173828125 308.51837158203125 154.4375 318.8394775390625 154.4375 328.610107421875 C 154.4375 344.02294921875 154.919189453125 358.12841796875 155.882568359375 370.9266357421875 C 156.9833984375 383.7247314453125 158.4970703125 397.8990478515625 160.423583984375 413.4495849609375 C 162.762939453125 406.018310546875 165.583984375 397.5550537109375 168.88671875 388.05963134765625 C 172.189453125 378.564208984375 175.560791015625 369.2752685546875 179.0009765625 360.192626953125 C 182.44140625 351.110107421875 185.46875 343.4036865234375 188.083251953125 337.0733642578125 C 190.697998046875 339.2752685546875 193.3125 341.47705078125 195.92724609375 343.67889404296875 C 193.037353515625 350.8348388671875 189.666015625 359.71099853515625 185.812744140625 370.307373046875 C 182.097412109375 380.9036865234375 178.588134765625 391.087158203125 175.28564453125 400.8577880859375 C 171.98291015625 410.62841796875 169.6435546875 418.4036865234375 168.267578125 424.1834716796875 C 167.717041015625 426.79815673828125 167.2353515625 429.6192626953125 166.822509765625 432.64678955078125 C 166.40966796875 435.67431640625 166.341064453125 438.564208984375 166.6162109375 441.3165283203125 C 166.891357421875 443.10546875 167.166748046875 445.0321044921875 167.44189453125 447.0963134765625 C 167.717041015625 449.29815673828125 167.9921875 451.018310546875 168.267578125 452.2568359375 C 164.552001953125 452.66973876953125 160.83642578125 453.08258056640625 157.12109375 453.49542236328125 C 153.13037109375 438.7706298828125 149.7587890625 421.018310546875 147.006591796875 400.238525390625 C 144.25439453125 379.458740234375 142.87841796875 355.72021484375 142.87841796875 329.02294921875 C 142.87841796875 314.8486328125 143.63525390625 300.0550537109375 145.14892578125 284.6422119140625 C 146.80029296875 269.09173583984375 148.7265625 253.88531494140625 150.9287109375 239.02294921875 C 153.267822265625 224.02294921875 155.4697265625 210.12384033203125 157.533935546875 197.32568359375 C 159.597900390625 184.52752685546875 161.318115234375 173.72476196289062 162.6943359375 164.91741943359375 C 163.24462890625 161.20184326171875 163.657470703125 157.89907836914062 163.9326171875 155.00918579101562 C 164.207763671875 152.1192626953125 164.345458984375 149.6422119140625 164.345458984375 147.57797241210938 C 169.230712890625 148.12844848632812 174.11572265625 148.67892456054688 179.0009765625 149.2293701171875"/>
  </g>
</svg>
