<?xml version="1.0" ?>
<svg xmlns="http://www.w3.org/2000/svg" version="1.1" width="600" height="600">
  <defs/>
  <g>
    <path stroke-width="0" fill="rgb(0, 0, 0)" opacity="1.0" d="M 342.1348876953125 185.28570556640625 C 336.0548095703125 179.0380859375 329.2147216796875 172.4857177734375 321.6146240234375 165.62857055664062 C 314.0145263671875 158.77142333984375 306.262451171875 152.066650390625 298.3583984375 145.5142822265625 C 290.6062927246094 138.9619140625 283.3102111816406 133.17141723632812 276.4701232910156 128.14285278320312 C 279.7381591796875 125.4761962890625 283.0062255859375 122.80950927734375 286.27423095703125 120.14285278320312 C 290.83428955078125 123.4952392578125 297.06634521484375 128.37142944335938 304.970458984375 134.77142333984375 C 312.87451171875 141.17141723632812 321.00665283203125 148.028564453125 329.36669921875 155.34286499023438 C 337.87884521484375 162.65713500976562 345.098876953125 169.36190795898438 351.0269775390625 175.4571533203125 C 348.06292724609375 178.73333740234375 345.098876953125 182.009521484375 342.1348876953125 185.28570556640625M 182.76107788085938 156.25714111328125 C 183.97708129882812 158.23809814453125 185.26910400390625 160.67620849609375 186.63711547851562 163.57144165039062 C 188.15713500976562 166.31427001953125 189.75314331054688 169.20950317382812 191.4251708984375 172.25714111328125 C 193.24920654296875 175.30477905273438 194.92120361328125 178.12380981445312 196.44122314453125 180.71429443359375 C 204.3453369140625 194.88571166992188 213.54141235351562 212.40951538085938 224.029541015625 233.28570556640625 C 234.51763916015625 254.16189575195312 244.7017822265625 275.4190368652344 254.58187866210938 297.05712890625 C 261.4219665527344 312.29522705078125 267.88201904296875 327.990478515625 273.96209716796875 344.142822265625 C 280.04217529296875 360.142822265625 285.6662292480469 375.914306640625 290.83428955078125 391.4571533203125 C 296.15435791015625 407.0 301.17041015625 421.857177734375 305.8824462890625 436.028564453125 C 310.594482421875 450.20001220703125 314.8505859375 463.30474853515625 318.650634765625 475.3428955078125 C 313.634521484375 476.94287109375 308.61846923828125 478.5428466796875 303.6024169921875 480.142822265625 C 299.34637451171875 463.6856689453125 294.1783447265625 445.70477294921875 288.0982666015625 426.20001220703125 C 282.1701965332031 406.5428466796875 275.55810546875 386.20001220703125 268.26202392578125 365.17138671875 C 260.9659423828125 344.142822265625 252.6058349609375 323.19049072265625 243.1817626953125 302.31427001953125 C 235.4296875 285.3999938964844 227.82958984375 269.32379150390625 220.38150024414062 254.085693359375 C 212.93341064453125 238.84759521484375 206.16934204101562 225.5142822265625 200.08926391601562 214.085693359375 C 194.16119384765625 202.5047607421875 189.1451416015625 193.59048461914062 185.04110717773438 187.34286499023438 C 183.0650634765625 183.83807373046875 180.405029296875 179.72378540039062 177.06100463867188 175.0 C 173.86895751953125 170.12380981445312 170.98095703125 166.08572387695312 168.39691162109375 162.88571166992188 C 173.18496704101562 160.67620849609375 177.9730224609375 158.46664428710938 182.76107788085938 156.25714111328125M 122.56838989257812 284.028564453125 C 126.52044677734375 282.80950927734375 131.156494140625 281.36187744140625 136.4765625 279.68572998046875 C 141.9486083984375 277.8571472167969 146.73666381835938 276.028564453125 150.84072875976562 274.20001220703125 C 159.048828125 271.0 170.220947265625 266.20001220703125 184.35708618164062 259.79998779296875 C 198.49325561523438 253.39999389648438 214.22543334960938 246.23809814453125 231.55361938476562 238.31427001953125 C 249.0338134765625 230.39047241210938 267.12200927734375 222.77142333984375 285.8182373046875 215.4571533203125 C 304.66644287109375 208.14285278320312 323.1346435546875 202.20001220703125 341.22283935546875 197.62857055664062 C 359.46307373046875 192.90475463867188 375.95526123046875 190.5428466796875 390.69940185546875 190.5428466796875 C 408.9395751953125 190.5428466796875 424.44378662109375 193.43807983398438 437.2119140625 199.22857666015625 C 449.9801025390625 205.01904296875 459.8602294921875 213.39999389648438 466.852294921875 224.37142944335938 C 473.996337890625 235.19049072265625 477.568359375 247.990478515625 477.568359375 262.77142333984375 C 477.568359375 276.028564453125 474.68035888671875 288.6000061035156 468.904296875 300.4857177734375 C 463.2802734375 312.21905517578125 453.7801513671875 321.81903076171875 440.4039306640625 329.28570556640625 C 427.1798095703125 336.75238037109375 408.8636474609375 340.4857177734375 385.455322265625 340.4857177734375 C 372.9912109375 340.4857177734375 361.36309814453125 339.1904296875 350.5709228515625 336.5999755859375 C 339.77880859375 334.009521484375 330.27874755859375 331.26666259765625 322.0706787109375 328.3714599609375 C 322.22265625 323.6475830078125 322.3746337890625 318.923828125 322.526611328125 314.20001220703125 C 329.82275390625 317.70477294921875 338.8668212890625 320.98095703125 349.658935546875 324.028564453125 C 360.4510498046875 326.923828125 372.687255859375 328.3714599609375 386.36737060546875 328.3714599609375 C 407.49560546875 328.3714599609375 423.68377685546875 325.01904296875 434.931884765625 318.31427001953125 C 446.33203125 311.4571533203125 454.236083984375 302.923828125 458.6441650390625 292.71429443359375 C 463.05224609375 282.5047607421875 465.2562255859375 272.29522705078125 465.2562255859375 262.085693359375 C 465.2562255859375 252.028564453125 462.6722412109375 242.5047607421875 457.504150390625 233.5142822265625 C 452.48809814453125 224.37142944335938 444.508056640625 216.98095703125 433.56390380859375 211.34283447265625 C 422.6197509765625 205.5523681640625 408.255615234375 202.65713500976562 390.471435546875 202.65713500976562 C 375.271240234375 202.65713500976562 358.47503662109375 205.24761962890625 340.08282470703125 210.4285888671875 C 321.690673828125 215.6094970703125 302.5384521484375 222.16192626953125 282.626220703125 230.085693359375 C 262.865966796875 237.85714721679688 243.48574829101562 246.23809814453125 224.48553466796875 255.22857666015625 C 205.4853515625 264.066650390625 187.8531494140625 272.4476318359375 171.58895874023438 280.3714294433594 C 155.47677612304688 288.29522705078125 141.87261962890625 294.77142333984375 130.7764892578125 299.79998779296875 C 128.04046630859375 294.5428466796875 125.304443359375 289.28570556640625 122.56838989257812 284.028564453125"/>
  </g>
</svg>
