<?xml version="1.0" encoding="utf-8"?>
<svg xmlns="http://www.w3.org/2000/svg" xmlns:ev="http://www.w3.org/2001/xml-events" xmlns:xlink="http://www.w3.org/1999/xlink" version="1.1" baseProfile="full" width="5549.0" height="1736.0" viewBox="96.0 -1596.0 5549.0 1736.0">
<defs/>
<g><path d="M 2711.000000 -1400.000000 C 3050.333333 -1400.000000 3389.666667 -1400.000000 3729.000000 -1400.000000 C 3729.000000 -1381.333333 3729.000000 -1362.666667 3729.000000 -1344.000000 C 3389.666667 -1344.000000 3050.333333 -1344.000000 2711.000000 -1344.000000 C 2711.000000 -1362.666667 2711.000000 -1381.333333 2711.000000 -1400.000000z M 2655.000000 -947.000000 C 3020.000000 -947.000000 3385.000000 -947.000000 3750.000000 -947.000000 C 3750.000000 -928.333333 3750.000000 -909.666667 3750.000000 -891.000000 C 3385.000000 -891.000000 3020.000000 -891.000000 2655.000000 -891.000000 C 2655.000000 -909.666667 2655.000000 -928.333333 2655.000000 -947.000000z M 2655.000000 -246.000000 C 3020.000000 -246.000000 3385.000000 -246.000000 3750.000000 -246.000000 C 3750.000000 -226.666667 3750.000000 -207.333333 3750.000000 -188.000000 C 3385.000000 -188.000000 3020.000000 -188.000000 2655.000000 -188.000000 C 2655.000000 -207.333333 2655.000000 -226.666667 2655.000000 -246.000000z M 2822.000000 -488.000000 C 3084.666667 -488.000000 3347.333333 -488.000000 3610.000000 -488.000000 C 3610.000000 -469.333333 3610.000000 -450.666667 3610.000000 -432.000000 C 3347.333333 -432.000000 3084.666667 -432.000000 2822.000000 -432.000000 C 2822.000000 -450.666667 2822.000000 -469.333333 2822.000000 -488.000000z M 2751.000000 -1181.000000 C 3064.666667 -1181.000000 3378.333333 -1181.000000 3692.000000 -1181.000000 C 3692.000000 -1161.666667 3692.000000 -1142.333333 3692.000000 -1123.000000 C 3378.333333 -1123.000000 3064.666667 -1123.000000 2751.000000 -1123.000000 C 2751.000000 -1142.333333 2751.000000 -1161.666667 2751.000000 -1181.000000z M 2966.000000 -1592.000000 C 2984.666667 -1592.000000 3003.333333 -1592.000000 3022.000000 -1592.000000 C 3022.000000 -1368.666667 3022.000000 -1145.333333 3022.000000 -922.000000 C 3003.333333 -922.000000 2984.666667 -922.000000 2966.000000 -922.000000 C 2966.000000 -1145.333333 2966.000000 -1368.666667 2966.000000 -1592.000000z M 3412.000000 -1592.000000 C 3431.000000 -1592.000000 3450.000000 -1592.000000 3469.000000 -1592.000000 C 3469.000000 -1368.666667 3469.000000 -1145.333333 3469.000000 -922.000000 C 3450.000000 -922.000000 3431.000000 -922.000000 3412.000000 -922.000000 C 3412.000000 -1145.333333 3412.000000 -1368.666667 3412.000000 -1592.000000z M 3174.000000 -927.000000 C 3192.333333 -927.000000 3210.666667 -927.000000 3229.000000 -927.000000 C 3229.000000 -690.333333 3229.000000 -453.666667 3229.000000 -217.000000 C 3210.666667 -217.000000 3192.333333 -217.000000 3174.000000 -217.000000 C 3174.000000 -453.666667 3174.000000 -690.333333 3174.000000 -927.000000z M 3577.000000 -741.000000 C 3596.333333 -741.000000 3615.666667 -741.000000 3635.000000 -741.000000 C 3635.000000 -478.666667 3635.000000 -216.333333 3635.000000 46.000000 C 3635.000000 69.333333 3631.333333 86.666667 3624.000000 98.000000 C 3616.666667 109.333333 3604.333333 118.333333 3587.000000 125.000000 C 3567.666667 129.666667 3538.000000 132.333333 3498.000000 133.000000 C 3458.666667 133.666667 3407.000000 134.000000 3343.000000 134.000000 C 3341.666667 126.666667 3338.666667 117.333333 3334.000000 106.000000 C 3329.333333 95.333333 3324.666667 85.666667 3320.000000 77.000000 C 3376.000000 78.333333 3424.000000 79.333333 3464.000000 80.000000 C 3504.666667 80.666667 3531.333333 80.333333 3544.000000 79.000000 C 3558.000000 77.666667 3567.000000 74.666667 3571.000000 70.000000 C 3575.000000 65.333333 3577.000000 57.333333 3577.000000 46.000000 C 3577.000000 -216.333333 3577.000000 -478.666667 3577.000000 -741.000000z M 2792.000000 -741.000000 C 3062.000000 -741.000000 3332.000000 -741.000000 3602.000000 -741.000000 C 3602.000000 -722.333333 3602.000000 -703.666667 3602.000000 -685.000000 C 3350.333333 -685.000000 3098.666667 -685.000000 2847.000000 -685.000000 C 2847.000000 -412.000000 2847.000000 -139.000000 2847.000000 134.000000 C 2828.666667 134.000000 2810.333333 134.000000 2792.000000 134.000000 C 2792.000000 -157.666667 2792.000000 -449.333333 2792.000000 -741.000000z M 2091.000000 -1014.000000 C 2255.333333 -1014.000000 2419.666667 -1014.000000 2584.000000 -1014.000000 C 2584.000000 -995.333333 2584.000000 -976.666667 2584.000000 -958.000000 C 2419.666667 -958.000000 2255.333333 -958.000000 2091.000000 -958.000000 C 2091.000000 -976.666667 2091.000000 -995.333333 2091.000000 -1014.000000z M 2102.000000 -1519.000000 C 2261.000000 -1519.000000 2420.000000 -1519.000000 2579.000000 -1519.000000 C 2579.000000 -1500.333333 2579.000000 -1481.666667 2579.000000 -1463.000000 C 2420.000000 -1463.000000 2261.000000 -1463.000000 2102.000000 -1463.000000 C 2102.000000 -1481.666667 2102.000000 -1500.333333 2102.000000 -1519.000000z M 2091.000000 -758.000000 C 2255.333333 -758.000000 2419.666667 -758.000000 2584.000000 -758.000000 C 2584.000000 -739.666667 2584.000000 -721.333333 2584.000000 -703.000000 C 2419.666667 -703.000000 2255.333333 -703.000000 2091.000000 -703.000000 C 2091.000000 -721.333333 2091.000000 -739.666667 2091.000000 -758.000000z M 2010.000000 -1271.000000 C 2216.666667 -1271.000000 2423.333333 -1271.000000 2630.000000 -1271.000000 C 2630.000000 -1251.666667 2630.000000 -1232.333333 2630.000000 -1213.000000 C 2423.333333 -1213.000000 2216.666667 -1213.000000 2010.000000 -1213.000000 C 2010.000000 -1232.333333 2010.000000 -1251.666667 2010.000000 -1271.000000z M 2122.000000 -503.000000 C 2278.666667 -503.000000 2435.333333 -503.000000 2592.000000 -503.000000 C 2592.000000 -324.333333 2592.000000 -145.666667 2592.000000 33.000000 C 2435.333333 33.000000 2278.666667 33.000000 2122.000000 33.000000 C 2122.000000 14.333333 2122.000000 -4.333333 2122.000000 -23.000000 C 2260.000000 -23.000000 2398.000000 -23.000000 2536.000000 -23.000000 C 2536.000000 -163.666667 2536.000000 -304.333333 2536.000000 -445.000000 C 2398.000000 -445.000000 2260.000000 -445.000000 2122.000000 -445.000000 C 2122.000000 -464.333333 2122.000000 -483.666667 2122.000000 -503.000000z M 2091.000000 -503.000000 C 2110.000000 -503.000000 2129.000000 -503.000000 2148.000000 -503.000000 C 2148.000000 -291.333333 2148.000000 -79.666667 2148.000000 132.000000 C 2129.000000 132.000000 2110.000000 132.000000 2091.000000 132.000000 C 2091.000000 -79.666667 2091.000000 -291.333333 2091.000000 -503.000000z "/>
</g></svg>
