<?xml version="1.0" encoding="utf-8"?>
<svg xmlns="http://www.w3.org/2000/svg" xmlns:ev="http://www.w3.org/2001/xml-events" xmlns:xlink="http://www.w3.org/1999/xlink" version="1.1" baseProfile="full" width="3391.0" height="1736.0" viewBox="88.0 -1592.0 3391.0 1736.0">
<defs/>
<g><path d="M 950.000000 -1532.000000 C 912.000000 -1470.666667 863.333333 -1405.333333 804.000000 -1336.000000 C 745.333333 -1267.333333 679.333333 -1198.000000 606.000000 -1128.000000 C 533.333333 -1058.000000 456.000000 -990.666667 374.000000 -926.000000 C 292.666667 -861.333333 209.666667 -803.000000 125.000000 -751.000000 C 122.333333 -755.666667 119.000000 -760.666667 115.000000 -766.000000 C 111.000000 -771.333333 106.666667 -776.333333 102.000000 -781.000000 C 98.000000 -786.333333 93.333333 -791.000000 88.000000 -795.000000 C 172.666667 -846.333333 256.000000 -904.000000 338.000000 -968.000000 C 420.000000 -1032.000000 497.666667 -1099.333333 571.000000 -1170.000000 C 645.000000 -1241.333333 711.666667 -1312.666667 771.000000 -1384.000000 C 830.333333 -1456.000000 879.333333 -1525.333333 918.000000 -1592.000000 C 936.000000 -1592.000000 954.000000 -1592.000000 972.000000 -1592.000000 C 1021.333333 -1522.666667 1079.666667 -1451.666667 1147.000000 -1379.000000 C 1214.333333 -1307.000000 1287.000000 -1236.333333 1365.000000 -1167.000000 C 1443.000000 -1098.333333 1522.333333 -1033.666667 1603.000000 -973.000000 C 1683.666667 -913.000000 1761.333333 -860.666667 1836.000000 -816.000000 C 1829.333333 -810.666667 1822.000000 -803.333333 1814.000000 -794.000000 C 1806.666667 -785.333333 1800.333333 -777.333333 1795.000000 -770.000000 C 1719.666667 -816.000000 1642.000000 -869.333333 1562.000000 -930.000000 C 1482.000000 -990.666667 1403.666667 -1055.000000 1327.000000 -1123.000000 C 1251.000000 -1191.000000 1180.666667 -1259.666667 1116.000000 -1329.000000 C 1052.000000 -1399.000000 996.666667 -1466.666667 950.000000 -1532.000000z M 532.000000 -970.000000 C 820.000000 -970.000000 1108.000000 -970.000000 1396.000000 -970.000000 C 1396.000000 -950.666667 1396.000000 -931.333333 1396.000000 -912.000000 C 1108.000000 -912.000000 820.000000 -912.000000 532.000000 -912.000000 C 532.000000 -931.333333 532.000000 -950.666667 532.000000 -970.000000z M 300.000000 -612.000000 C 707.000000 -612.000000 1114.000000 -612.000000 1521.000000 -612.000000 C 1521.000000 -593.000000 1521.000000 -574.000000 1521.000000 -555.000000 C 1114.000000 -555.000000 707.000000 -555.000000 300.000000 -555.000000 C 300.000000 -574.000000 300.000000 -593.000000 300.000000 -612.000000z M 1501.000000 -612.000000 C 1504.333333 -612.000000 1507.666667 -612.000000 1511.000000 -612.000000 C 1515.000000 -614.000000 1519.000000 -616.000000 1523.000000 -618.000000 C 1537.000000 -612.333333 1551.000000 -606.666667 1565.000000 -601.000000 C 1535.666667 -538.333333 1500.000000 -463.333333 1458.000000 -376.000000 C 1416.666667 -289.333333 1373.000000 -200.333333 1327.000000 -109.000000 C 1281.000000 -18.333333 1237.333333 66.000000 1196.000000 144.000000 C 1177.333333 138.333333 1158.666667 132.666667 1140.000000 127.000000 C 1172.000000 69.000000 1205.000000 6.666667 1239.000000 -60.000000 C 1273.000000 -127.333333 1306.666667 -194.666667 1340.000000 -262.000000 C 1373.333333 -329.333333 1403.666667 -392.333333 1431.000000 -451.000000 C 1459.000000 -510.333333 1482.333333 -560.333333 1501.000000 -601.000000 C 1501.000000 -604.666667 1501.000000 -608.333333 1501.000000 -612.000000z "/>
</g>
<g><path d="M 2302.000000 -1450.000000 C 2694.333333 -1450.000000 3086.666667 -1450.000000 3479.000000 -1450.000000 C 3479.000000 -933.333333 3479.000000 -416.666667 3479.000000 100.000000 C 3459.666667 100.000000 3440.333333 100.000000 3421.000000 100.000000 C 3421.000000 -397.333333 3421.000000 -894.666667 3421.000000 -1392.000000 C 3067.333333 -1392.000000 2713.666667 -1392.000000 2360.000000 -1392.000000 C 2360.000000 -889.666667 2360.000000 -387.333333 2360.000000 115.000000 C 2340.666667 115.000000 2321.333333 115.000000 2302.000000 115.000000 C 2302.000000 -406.666667 2302.000000 -928.333333 2302.000000 -1450.000000z M 2337.000000 -764.000000 C 2706.666667 -764.000000 3076.333333 -764.000000 3446.000000 -764.000000 C 3446.000000 -745.333333 3446.000000 -726.666667 3446.000000 -708.000000 C 3076.333333 -708.000000 2706.666667 -708.000000 2337.000000 -708.000000 C 2337.000000 -726.666667 2337.000000 -745.333333 2337.000000 -764.000000z M 2333.000000 -65.000000 C 2706.000000 -65.000000 3079.000000 -65.000000 3452.000000 -65.000000 C 3452.000000 -46.666667 3452.000000 -28.333333 3452.000000 -10.000000 C 3079.000000 -10.000000 2706.000000 -10.000000 2333.000000 -10.000000 C 2333.000000 -28.333333 2333.000000 -46.666667 2333.000000 -65.000000z "/>
</g>
</svg>
