<?xml version="1.0" ?>
<svg xmlns="http://www.w3.org/2000/svg" version="1.1" width="600" height="600">
  <defs/>
  <g>
    <path stroke-width="0" fill="rgb(0, 0, 0)" opacity="1.0" d="M 126.57669067382812 310.38458251953125 C 139.52163696289062 310.38458251953125 152.46661376953125 310.38458251953125 165.41156005859375 310.38458251953125 C 165.41156005859375 310.9967041015625 165.41156005859375 311.60888671875 165.41156005859375 312.2210693359375 C 152.46661376953125 312.2210693359375 139.52163696289062 312.2210693359375 126.57669067382812 312.2210693359375 C 126.57669067382812 311.60888671875 126.57669067382812 310.9967041015625 126.57669067382812 310.38458251953125M 126.76910400390625 302.9752197265625 C 140.002685546875 302.9752197265625 153.23623657226562 302.9752197265625 166.46978759765625 302.9752197265625 C 166.46978759765625 308.548095703125 166.46978759765625 314.12091064453125 166.46978759765625 319.6937255859375 C 153.23623657226562 319.6937255859375 140.002685546875 319.6937255859375 126.76910400390625 319.6937255859375 C 126.76910400390625 319.1026611328125 126.76910400390625 318.5115966796875 126.76910400390625 317.9205322265625 C 139.404052734375 317.9205322265625 152.03900146484375 317.9205322265625 164.67398071289062 317.9205322265625 C 164.67398071289062 313.519287109375 164.67398071289062 309.1180419921875 164.67398071289062 304.716796875 C 152.03900146484375 304.716796875 139.404052734375 304.716796875 126.76910400390625 304.716796875 C 126.76910400390625 304.13623046875 126.76910400390625 303.5557861328125 126.76910400390625 302.9752197265625M 144.66326904296875 303.57684326171875 C 145.28326416015625 303.57684326171875 145.90325927734375 303.57684326171875 146.52325439453125 303.57684326171875 C 146.52325439453125 310.141845703125 146.52325439453125 316.706787109375 146.52325439453125 323.271728515625 C 146.52325439453125 324.2005615234375 146.833251953125 324.8232421875 147.4532470703125 325.139892578125 C 148.07321166992188 325.4776611328125 149.38803100585938 325.646484375 151.39764404296875 325.646484375 C 151.8038330078125 325.646484375 152.50933837890625 325.646484375 153.51416015625 325.646484375 C 154.51898193359375 325.646484375 155.68411254882812 325.646484375 157.00961303710938 325.646484375 C 158.35650634765625 325.646484375 159.703369140625 325.646484375 161.05023193359375 325.646484375 C 162.41848754882812 325.646484375 163.64776611328125 325.646484375 164.73809814453125 325.646484375 C 165.84982299804688 325.646484375 166.67291259765625 325.646484375 167.20736694335938 325.646484375 C 168.40460205078125 325.646484375 169.29180908203125 325.44598388671875 169.86904907226562 325.044921875 C 170.4462890625 324.6649169921875 170.841796875 323.8839111328125 171.05557250976562 322.7017822265625 C 171.290771484375 321.49853515625 171.45111083984375 319.72540283203125 171.53662109375 317.38226318359375 C 171.77178955078125 317.530029296875 172.06039428710938 317.67779541015625 172.4024658203125 317.8255615234375 C 172.76589965820312 317.97332763671875 173.08657836914062 318.08941650390625 173.364501953125 318.173828125 C 173.23623657226562 320.6436767578125 173.00106811523438 322.55401611328125 172.65899658203125 323.905029296875 C 172.31695556640625 325.23486328125 171.72903442382812 326.15313720703125 170.89523315429688 326.6597900390625 C 170.08285522460938 327.1875 168.85354614257812 327.45135498046875 167.20736694335938 327.45135498046875 C 166.97219848632812 327.45135498046875 166.32015991210938 327.45135498046875 165.25119018554688 327.45135498046875 C 164.1822509765625 327.45135498046875 162.93157958984375 327.45135498046875 161.49920654296875 327.45135498046875 C 160.08819580078125 327.45135498046875 158.66650390625 327.45135498046875 157.23410034179688 327.45135498046875 C 155.80169677734375 327.45135498046875 154.56173706054688 327.45135498046875 153.51416015625 327.45135498046875 C 152.46661376953125 327.45135498046875 151.81454467773438 327.45135498046875 151.5579833984375 327.45135498046875 C 149.804931640625 327.45135498046875 148.42596435546875 327.3458251953125 147.42117309570312 327.13470458984375 C 146.41635131835938 326.9447021484375 145.70016479492188 326.5330810546875 145.2725830078125 325.89984130859375 C 144.86639404296875 325.28765869140625 144.66326904296875 324.3905029296875 144.66326904296875 323.2083740234375 C 144.66326904296875 316.66455078125 144.66326904296875 310.1207275390625 144.66326904296875 303.57684326171875M 125.71084594726562 302.9752197265625 C 126.3094482421875 302.9752197265625 126.9080810546875 302.9752197265625 127.50668334960938 302.9752197265625 C 127.50668334960938 309.7618408203125 127.50668334960938 316.5484619140625 127.50668334960938 323.3350830078125 C 126.9080810546875 323.3350830078125 126.3094482421875 323.3350830078125 125.71084594726562 323.3350830078125 C 125.71084594726562 316.5484619140625 125.71084594726562 309.7618408203125 125.71084594726562 302.9752197265625M 123.6905517578125 276.50433349609375 C 138.46337890625 276.50433349609375 153.23623657226562 276.50433349609375 168.00909423828125 276.50433349609375 C 168.00909423828125 277.0953369140625 168.00909423828125 277.6864013671875 168.00909423828125 278.2774658203125 C 153.23623657226562 278.2774658203125 138.46337890625 278.2774658203125 123.6905517578125 278.2774658203125 C 123.6905517578125 277.6864013671875 123.6905517578125 277.0953369140625 123.6905517578125 276.50433349609375M 126.64083862304688 289.83477783203125 C 131.28005981445312 289.83477783203125 135.91928100585938 289.83477783203125 140.55853271484375 289.83477783203125 C 140.55853271484375 290.4468994140625 140.55853271484375 291.05908203125 140.55853271484375 291.6712646484375 C 135.91928100585938 291.6712646484375 131.28005981445312 291.6712646484375 126.64083862304688 291.6712646484375 C 126.64083862304688 291.05908203125 126.64083862304688 290.4468994140625 126.64083862304688 289.83477783203125M 125.35809326171875 296.2308349609375 C 130.4462890625 296.2308349609375 135.53448486328125 296.2308349609375 140.62265014648438 296.2308349609375 C 140.62265014648438 296.83245849609375 140.62265014648438 297.43408203125 140.62265014648438 298.03570556640625 C 135.53448486328125 298.03570556640625 130.4462890625 298.03570556640625 125.35809326171875 298.03570556640625 C 125.35809326171875 297.43408203125 125.35809326171875 296.83245849609375 125.35809326171875 296.2308349609375M 150.72421264648438 296.2308349609375 C 156.07965087890625 296.2308349609375 161.43505859375 296.2308349609375 166.79049682617188 296.2308349609375 C 166.79049682617188 296.83245849609375 166.79049682617188 297.43408203125 166.79049682617188 298.03570556640625 C 161.43505859375 298.03570556640625 156.07965087890625 298.03570556640625 150.72421264648438 298.03570556640625 C 150.72421264648438 297.43408203125 150.72421264648438 296.83245849609375 150.72421264648438 296.2308349609375M 150.72421264648438 289.83477783203125 C 155.545166015625 289.83477783203125 160.36611938476562 289.83477783203125 165.18707275390625 289.83477783203125 C 165.18707275390625 290.4468994140625 165.18707275390625 291.05908203125 165.18707275390625 291.6712646484375 C 160.36611938476562 291.6712646484375 155.545166015625 291.6712646484375 150.72421264648438 291.6712646484375 C 150.72421264648438 291.05908203125 150.72421264648438 290.4468994140625 150.72421264648438 289.83477783203125M 144.66326904296875 277.1375732421875 C 145.28326416015625 277.1375732421875 145.90325927734375 277.1375732421875 146.52325439453125 277.1375732421875 C 146.52325439453125 284.91632080078125 146.52325439453125 292.695068359375 146.52325439453125 300.47381591796875 C 145.90325927734375 300.47381591796875 145.28326416015625 300.47381591796875 144.66326904296875 300.47381591796875 C 144.66326904296875 292.695068359375 144.66326904296875 284.91632080078125 144.66326904296875 277.1375732421875M 120.740234375 283.438720703125 C 137.45858764648438 283.438720703125 154.17691040039062 283.438720703125 170.89523315429688 283.438720703125 C 170.89523315429688 287.2066650390625 170.89523315429688 290.97467041015625 170.89523315429688 294.74267578125 C 170.28594970703125 294.74267578125 169.6766357421875 294.74267578125 169.06735229492188 294.74267578125 C 169.06735229492188 291.58685302734375 169.06735229492188 288.4310302734375 169.06735229492188 285.275146484375 C 153.56759643554688 285.275146484375 138.06787109375 285.275146484375 122.56814575195312 285.275146484375 C 122.56814575195312 288.4310302734375 122.56814575195312 291.58685302734375 122.56814575195312 294.74267578125 C 121.95883178710938 294.74267578125 121.34954833984375 294.74267578125 120.740234375 294.74267578125 C 120.740234375 290.97467041015625 120.740234375 287.2066650390625 120.740234375 283.438720703125"/>
    <path stroke-width="0" fill="rgb(0, 0, 0)" opacity="1.0" d="M 190.90594482421875 280.525634765625 C 205.048095703125 280.525634765625 219.19027709960938 280.525634765625 233.33245849609375 280.525634765625 C 233.33245849609375 281.1378173828125 233.33245849609375 281.74993896484375 233.33245849609375 282.36212158203125 C 219.19027709960938 282.36212158203125 205.048095703125 282.36212158203125 190.90594482421875 282.36212158203125 C 190.90594482421875 281.74993896484375 190.90594482421875 281.1378173828125 190.90594482421875 280.525634765625M 191.57937622070312 289.043212890625 C 203.44467163085938 289.043212890625 215.30999755859375 289.043212890625 227.17529296875 289.043212890625 C 227.17529296875 289.63427734375 227.17529296875 290.22528076171875 227.17529296875 290.81634521484375 C 215.30999755859375 290.81634521484375 203.44467163085938 290.81634521484375 191.57937622070312 290.81634521484375 C 191.57937622070312 290.22528076171875 191.57937622070312 289.63427734375 191.57937622070312 289.043212890625M 184.748779296875 297.4974365234375 C 197.64028930664062 297.4974365234375 210.53179931640625 297.4974365234375 223.42330932617188 297.4974365234375 C 223.42330932617188 298.0885009765625 223.42330932617188 298.6795654296875 223.42330932617188 299.27056884765625 C 210.53179931640625 299.27056884765625 197.64028930664062 299.27056884765625 184.748779296875 299.27056884765625 C 184.748779296875 298.6795654296875 184.748779296875 298.0885009765625 184.748779296875 297.4974365234375M 193.24691772460938 273.5279541015625 C 193.8883056640625 273.6756591796875 194.5296630859375 273.823486328125 195.1710205078125 273.97119140625 C 193.65313720703125 278.50970458984375 191.7076416015625 282.720947265625 189.3345947265625 286.6051025390625 C 186.98291015625 290.468017578125 184.37466430664062 293.75048828125 181.5098876953125 296.4525146484375 C 181.42437744140625 296.32586669921875 181.27471923828125 296.1885986328125 181.0609130859375 296.0408935546875 C 180.8685302734375 295.87200927734375 180.65472412109375 295.71368408203125 180.4195556640625 295.56591796875 C 180.18438720703125 295.39703369140625 179.99197387695312 295.2703857421875 179.84234619140625 295.1859130859375 C 182.7498779296875 292.58953857421875 185.35809326171875 289.41259765625 187.66702270507812 285.6551513671875 C 189.997314453125 281.8765869140625 191.8572998046875 277.834228515625 193.24691772460938 273.5279541015625M 211.04489135742188 301.075439453125 C 211.60073852539062 301.27593994140625 212.1566162109375 301.47650146484375 212.71246337890625 301.677001953125 C 210.4249267578125 305.58221435546875 207.67770385742188 309.19189453125 204.47088623046875 312.50604248046875 C 201.2640380859375 315.799072265625 197.78994750976562 318.764892578125 194.04864501953125 321.403564453125 C 190.32870483398438 324.0211181640625 186.42703247070312 326.322021484375 182.34365844726562 328.3062744140625 C 182.279541015625 328.20074462890625 182.16192626953125 328.052978515625 181.99090576171875 327.86297607421875 C 181.81988525390625 327.6729736328125 181.63815307617188 327.4935302734375 181.44573974609375 327.32470703125 C 181.27471923828125 327.17694091796875 181.10369873046875 327.03973388671875 180.93264770507812 326.9130859375 C 185.03741455078125 325.055419921875 188.97113037109375 322.8389892578125 192.73382568359375 320.263671875 C 196.49652099609375 317.6883544921875 199.93853759765625 314.78582763671875 203.05987548828125 311.55615234375 C 206.20257568359375 308.3052978515625 208.8642578125 304.811767578125 211.04489135742188 301.075439453125M 222.42919921875 297.4974365234375 C 223.02780151367188 297.4974365234375 223.62640380859375 297.4974365234375 224.22500610351562 297.4974365234375 C 224.310546875 301.71923828125 224.43881225585938 305.60333251953125 224.60983276367188 309.149658203125 C 224.80224609375 312.696044921875 225.14431762695312 315.7674560546875 225.63601684570312 318.36383056640625 C 226.12774658203125 320.939208984375 226.82257080078125 322.944580078125 227.720458984375 324.3800048828125 C 228.6397705078125 325.83648681640625 229.81561279296875 326.56475830078125 231.24798583984375 326.56475830078125 C 231.99624633789062 326.56475830078125 232.48797607421875 325.72039794921875 232.72314453125 324.03167724609375 C 232.97967529296875 322.3428955078125 233.11865234375 320.1475830078125 233.1400146484375 317.445556640625 C 233.35382080078125 317.5933837890625 233.63174438476562 317.7410888671875 233.97381591796875 317.888916015625 C 234.33724975585938 318.03662109375 234.61517333984375 318.1527099609375 234.80758666992188 318.2371826171875 C 234.72207641601562 320.7913818359375 234.56173706054688 322.7967529296875 234.32656860351562 324.2532958984375 C 234.11276245117188 325.7098388671875 233.760009765625 326.72308349609375 233.268310546875 327.29302978515625 C 232.776611328125 327.88409423828125 232.06039428710938 328.20074462890625 231.11972045898438 328.242919921875 C 229.2811279296875 328.242919921875 227.7952880859375 327.5357666015625 226.6622314453125 326.1214599609375 C 225.52911376953125 324.7071533203125 224.67398071289062 322.670166015625 224.09674072265625 320.0103759765625 C 223.51950073242188 317.3505859375 223.11331176757812 314.1314697265625 222.87814331054688 310.3529052734375 C 222.66433715820312 306.55322265625 222.51470947265625 302.26806640625 222.42919921875 297.4974365234375M 187.66702270507812 305.223388671875 C 188.0946044921875 304.85400390625 188.52218627929688 304.48455810546875 188.94976806640625 304.1151123046875 C 191.49383544921875 305.48724365234375 194.059326171875 307.0281982421875 196.64617919921875 308.738037109375 C 199.2330322265625 310.4478759765625 201.734375 312.21051025390625 204.15017700195312 314.02587890625 C 206.56600952148438 315.8201904296875 208.7894287109375 317.614501953125 210.8204345703125 319.40875244140625 C 212.872802734375 321.181884765625 214.57241821289062 322.84954833984375 215.9193115234375 324.41162109375 C 215.448974609375 324.8443603515625 214.9786376953125 325.277099609375 214.50830078125 325.7098388671875 C 213.1400146484375 324.12664794921875 211.45111083984375 322.448486328125 209.44146728515625 320.67529296875 C 207.43185424804688 318.8809814453125 205.2191162109375 317.065673828125 202.80331420898438 315.2291259765625 C 200.38751220703125 313.37152099609375 197.88616943359375 311.5877685546875 195.29931640625 309.8779296875 C 192.71246337890625 308.14697265625 190.16836547851562 306.595458984375 187.66702270507812 305.223388671875"/>
    <path stroke-width="0" fill="rgb(0, 0, 0)" opacity="1.0" d="M 253.11865234375 297.7823486328125 C 253.11865234375 304.674560546875 253.11865234375 311.566650390625 253.11865234375 318.4588623046875 C 252.52005004882812 318.4588623046875 251.92144775390625 318.4588623046875 251.32281494140625 318.4588623046875 C 251.32281494140625 312.15771484375 251.32281494140625 305.856689453125 251.32281494140625 299.5555419921875 C 247.97702026367188 299.5555419921875 244.6312255859375 299.5555419921875 241.285400390625 299.5555419921875 C 241.285400390625 298.9644775390625 241.285400390625 298.3734130859375 241.285400390625 297.7823486328125 C 245.22982788085938 297.7823486328125 249.17425537109375 297.7823486328125 253.11865234375 297.7823486328125M 253.11865234375 317.6038818359375 C 254.8717041015625 320.09478759765625 257.2982482910156 321.96295166015625 260.398193359375 323.2083740234375 C 263.49810791015625 324.4327392578125 267.0791015625 325.1187744140625 271.14111328125 325.26654052734375 C 272.7017517089844 325.30877685546875 274.6365661621094 325.3404541015625 276.94549560546875 325.361572265625 C 279.2757873535156 325.3826904296875 281.72369384765625 325.3826904296875 284.2891540527344 325.361572265625 C 286.8546142578125 325.3404541015625 289.29180908203125 325.2982177734375 291.60076904296875 325.23486328125 C 293.9310302734375 325.17156982421875 295.8979187011719 325.1082763671875 297.5013427734375 325.044921875 C 297.41583251953125 325.15045166015625 297.31964111328125 325.3193359375 297.21270751953125 325.551513671875 C 297.1058349609375 325.78369140625 297.0096130371094 326.01593017578125 296.9241027832031 326.2481689453125 C 296.8599853515625 326.50146484375 296.8065185546875 326.72308349609375 296.7637634277344 326.9130859375 C 295.245849609375 326.955322265625 293.3752136230469 326.99749755859375 291.15179443359375 327.03973388671875 C 288.9283752441406 327.0819091796875 286.57672119140625 327.1136474609375 284.09674072265625 327.13470458984375 C 281.61676025390625 327.15582275390625 279.24371337890625 327.15582275390625 276.9775390625 327.13470458984375 C 274.7327575683594 327.1136474609375 272.83001708984375 327.0819091796875 271.2693786621094 327.03973388671875 C 266.9080810546875 326.870849609375 263.15606689453125 326.142578125 260.01336669921875 324.85491943359375 C 256.89202880859375 323.58837890625 254.3265380859375 321.72021484375 252.31695556640625 319.25042724609375 C 250.58526611328125 320.70697021484375 248.810791015625 322.16351318359375 246.99359130859375 323.6199951171875 C 245.19775390625 325.055419921875 243.41259765625 326.459228515625 241.63815307617188 327.831298828125 C 241.25335693359375 327.240234375 240.8685302734375 326.649169921875 240.48370361328125 326.05810546875 C 242.1298828125 324.96044921875 243.9364013671875 323.6517333984375 245.90325927734375 322.1318359375 C 247.8701171875 320.6119384765625 249.74078369140625 319.1026611328125 251.51522827148438 317.6038818359375 C 252.0496826171875 317.6038818359375 252.58416748046875 317.6038818359375 253.11865234375 317.6038818359375M 242.43988037109375 275.966064453125 C 242.89950561523438 275.63885498046875 243.35919189453125 275.3116455078125 243.81881713867188 274.9844970703125 C 245.16567993164062 275.93438720703125 246.5125732421875 277.021484375 247.85943603515625 278.245849609375 C 249.2276611328125 279.44903564453125 250.4462890625 280.662841796875 251.51522827148438 281.88720703125 C 252.60556030273438 283.09039306640625 253.460693359375 284.2197265625 254.0806884765625 285.275146484375 C 253.5889892578125 285.64459228515625 253.0972900390625 286.0140380859375 252.60556030273438 286.3834228515625 C 251.98556518554688 285.3280029296875 251.13043212890625 284.177490234375 250.04010009765625 282.93206787109375 C 248.97113037109375 281.6866455078125 247.77392578125 280.4622802734375 246.44842529296875 279.259033203125 C 245.144287109375 278.03472900390625 243.80810546875 276.93707275390625 242.43988037109375 275.966064453125M 266.84393310546875 282.10882568359375 C 267.228759765625 281.6866455078125 267.61358642578125 281.264404296875 267.9984130859375 280.84228515625 C 270.05078125 281.5599365234375 272.18865966796875 282.393798828125 274.4120788574219 283.34368896484375 C 276.6568603515625 284.2724609375 278.79473876953125 285.21185302734375 280.82574462890625 286.1617431640625 C 282.8781433105469 287.1116943359375 284.5777587890625 288.0087890625 285.92462158203125 288.85321044921875 C 285.52911376953125 289.3387451171875 285.13360595703125 289.82421875 284.73809814453125 290.3096923828125 C 283.43402099609375 289.507568359375 281.777099609375 288.6104736328125 279.76751708984375 287.6182861328125 C 277.75787353515625 286.62615966796875 275.6199951171875 285.64459228515625 273.35382080078125 284.673583984375 C 271.1090393066406 283.7025146484375 268.9390869140625 282.84765625 266.84393310546875 282.10882568359375M 260.6867980957031 288.78985595703125 C 271.4617919921875 288.78985595703125 282.23675537109375 288.78985595703125 293.01177978515625 288.78985595703125 C 293.01177978515625 289.38092041015625 293.01177978515625 289.97198486328125 293.01177978515625 290.56304931640625 C 282.82470703125 290.56304931640625 272.63763427734375 290.56304931640625 262.4505615234375 290.56304931640625 C 262.4505615234375 300.47381591796875 262.4505615234375 310.38458251953125 262.4505615234375 320.29534912109375 C 261.8626403808594 320.29534912109375 261.27471923828125 320.29534912109375 260.6867980957031 320.29534912109375 C 260.6867980957031 309.79351806640625 260.6867980957031 299.29168701171875 260.6867980957031 288.78985595703125M 292.081787109375 288.78985595703125 C 292.7017822265625 288.78985595703125 293.3217468261719 288.78985595703125 293.9417419433594 288.78985595703125 C 293.9417419433594 298.3629150390625 293.9417419433594 307.9359130859375 293.9417419433594 317.5089111328125 C 293.9417419433594 318.26885986328125 293.8134765625 318.8282470703125 293.5569152832031 319.1871337890625 C 293.30035400390625 319.52484130859375 292.872802734375 319.7886962890625 292.274169921875 319.97869873046875 C 291.6114501953125 320.1475830078125 290.6173095703125 320.25311279296875 289.29180908203125 320.29534912109375 C 287.98773193359375 320.3375244140625 286.19189453125 320.358642578125 283.9043273925781 320.358642578125 C 283.861572265625 320.0631103515625 283.765380859375 319.757080078125 283.61572265625 319.4404296875 C 283.466064453125 319.123779296875 283.31640625 318.83880615234375 283.166748046875 318.58544921875 C 285.09088134765625 318.627685546875 286.7584228515625 318.6488037109375 288.16943359375 318.6488037109375 C 289.5804443359375 318.6488037109375 290.51043701171875 318.6488037109375 290.9593811035156 318.6488037109375 C 291.4083251953125 318.6065673828125 291.7076416015625 318.5115966796875 291.8572998046875 318.36383056640625 C 292.0069580078125 318.1949462890625 292.081787109375 317.9100341796875 292.081787109375 317.5089111328125 C 292.081787109375 307.9359130859375 292.081787109375 298.3629150390625 292.081787109375 288.78985595703125M 260.1737060546875 276.50433349609375 C 270.87384033203125 276.50433349609375 281.57403564453125 276.50433349609375 292.274169921875 276.50433349609375 C 292.274169921875 277.0953369140625 292.274169921875 277.6864013671875 292.274169921875 278.2774658203125 C 281.57403564453125 278.2774658203125 270.87384033203125 278.2774658203125 260.1737060546875 278.2774658203125 C 260.1737060546875 277.6864013671875 260.1737060546875 277.0953369140625 260.1737060546875 276.50433349609375M 261.61676025390625 297.972412109375 C 272.1352233886719 297.972412109375 282.6536560058594 297.972412109375 293.172119140625 297.972412109375 C 293.172119140625 298.56341552734375 293.172119140625 299.15447998046875 293.172119140625 299.74554443359375 C 282.6536560058594 299.74554443359375 272.1352233886719 299.74554443359375 261.61676025390625 299.74554443359375 C 261.61676025390625 299.15447998046875 261.61676025390625 298.56341552734375 261.61676025390625 297.972412109375M 261.61676025390625 307.3448486328125 C 272.1352233886719 307.3448486328125 282.6536560058594 307.3448486328125 293.172119140625 307.3448486328125 C 293.172119140625 307.95703125 293.172119140625 308.5692138671875 293.172119140625 309.18133544921875 C 282.6536560058594 309.18133544921875 272.1352233886719 309.18133544921875 261.61676025390625 309.18133544921875 C 261.61676025390625 308.5692138671875 261.61676025390625 307.95703125 261.61676025390625 307.3448486328125M 276.1437683105469 289.233154296875 C 276.731689453125 289.233154296875 277.3196105957031 289.233154296875 277.90753173828125 289.233154296875 C 277.90753173828125 299.5028076171875 277.90753173828125 309.77239990234375 277.90753173828125 320.0419921875 C 277.3196105957031 320.0419921875 276.731689453125 320.0419921875 276.1437683105469 320.0419921875 C 276.1437683105469 309.77239990234375 276.1437683105469 299.5028076171875 276.1437683105469 289.233154296875M 291.8252258300781 276.50433349609375 C 291.974853515625 276.50433349609375 292.1245422363281 276.50433349609375 292.274169921875 276.50433349609375 C 292.41314697265625 276.47265625 292.5521240234375 276.44097900390625 292.6910705566406 276.4093017578125 C 293.1400146484375 276.704833984375 293.5889892578125 277.0003662109375 294.0379638671875 277.2958984375 C 292.73382568359375 278.47802734375 291.1945495605469 279.62847900390625 289.42010498046875 280.74725341796875 C 287.6670227050781 281.8660888671875 285.8177490234375 282.8792724609375 283.87225341796875 283.7869873046875 C 281.9481506347656 284.6947021484375 280.06683349609375 285.4757080078125 278.22821044921875 286.130126953125 C 278.05718994140625 285.91900634765625 277.8540954589844 285.6973876953125 277.6189270019531 285.4652099609375 C 277.4051513671875 285.21185302734375 277.2020263671875 285.0113525390625 277.0096435546875 284.863525390625 C 278.84820556640625 284.25140380859375 280.697509765625 283.52313232421875 282.55743408203125 282.67877197265625 C 284.43878173828125 281.81329345703125 286.1811828613281 280.884521484375 287.78460693359375 279.892333984375 C 289.409423828125 278.90020751953125 290.75628662109375 277.91864013671875 291.8252258300781 276.9476318359375 C 291.8252258300781 276.79986572265625 291.8252258300781 276.652099609375 291.8252258300781 276.50433349609375"/>
    <path stroke-width="0" fill="rgb(0, 0, 0)" opacity="1.0" d="M 323.47674560546875 276.88427734375 C 333.0010986328125 276.88427734375 342.525390625 276.88427734375 352.0496826171875 276.88427734375 C 352.0496826171875 277.475341796875 352.0496826171875 278.06640625 352.0496826171875 278.657470703125 C 342.525390625 278.657470703125 333.0010986328125 278.657470703125 323.47674560546875 278.657470703125 C 323.47674560546875 278.06640625 323.47674560546875 277.475341796875 323.47674560546875 276.88427734375M 322.9957275390625 293.1278076171875 C 333.05450439453125 293.1278076171875 343.11328125 293.1278076171875 353.172119140625 293.1278076171875 C 353.172119140625 293.72943115234375 353.172119140625 294.3310546875 353.172119140625 294.9326171875 C 343.11328125 294.9326171875 333.05450439453125 294.9326171875 322.9957275390625 294.9326171875 C 322.9957275390625 294.3310546875 322.9957275390625 293.72943115234375 322.9957275390625 293.1278076171875M 322.9957275390625 301.3287353515625 C 333.05450439453125 301.3287353515625 343.11328125 301.3287353515625 353.172119140625 301.3287353515625 C 353.172119140625 301.9302978515625 353.172119140625 302.531982421875 353.172119140625 303.133544921875 C 343.11328125 303.133544921875 333.05450439453125 303.133544921875 322.9957275390625 303.133544921875 C 322.9957275390625 302.531982421875 322.9957275390625 301.9302978515625 322.9957275390625 301.3287353515625M 323.60504150390625 323.14508056640625 C 333.2255859375 323.14508056640625 342.8460693359375 323.14508056640625 352.46661376953125 323.14508056640625 C 352.46661376953125 323.7572021484375 352.46661376953125 324.369384765625 352.46661376953125 324.9815673828125 C 342.8460693359375 324.9815673828125 333.2255859375 324.9815673828125 323.60504150390625 324.9815673828125 C 323.60504150390625 324.369384765625 323.60504150390625 323.7572021484375 323.60504150390625 323.14508056640625M 317.7685546875 285.0218505859375 C 331.2694091796875 285.0218505859375 344.7701416015625 285.0218505859375 358.27099609375 285.0218505859375 C 358.27099609375 285.6129150390625 358.27099609375 286.2039794921875 358.27099609375 286.7950439453125 C 344.7701416015625 286.7950439453125 331.2694091796875 286.7950439453125 317.7685546875 286.7950439453125 C 317.7685546875 286.2039794921875 317.7685546875 285.6129150390625 317.7685546875 285.0218505859375M 322.73919677734375 309.46630859375 C 332.95831298828125 309.46630859375 343.17742919921875 309.46630859375 353.3966064453125 309.46630859375 C 353.3966064453125 315.69354248046875 353.3966064453125 321.9207763671875 353.3966064453125 328.14794921875 C 352.80865478515625 328.14794921875 352.22076416015625 328.14794921875 351.6328125 328.14794921875 C 351.6328125 322.5118408203125 351.6328125 316.8756103515625 351.6328125 311.239501953125 C 342.6002197265625 311.239501953125 333.567626953125 311.239501953125 324.5350036621094 311.239501953125 C 324.5350036621094 316.92840576171875 324.5350036621094 322.6173095703125 324.5350036621094 328.3062744140625 C 323.9364013671875 328.3062744140625 323.3377685546875 328.3062744140625 322.73919677734375 328.3062744140625 C 322.73919677734375 322.0262451171875 322.73919677734375 315.746337890625 322.73919677734375 309.46630859375M 318.121337890625 273.7178955078125 C 318.71990966796875 273.88677978515625 319.31854248046875 274.0556640625 319.91717529296875 274.2244873046875 C 318.50616455078125 277.62310791015625 316.89202880859375 280.92669677734375 315.0748291015625 284.13525390625 C 313.25762939453125 287.32275390625 311.30145263671875 290.3096923828125 309.206298828125 293.09613037109375 C 307.11114501953125 295.8614501953125 304.951904296875 298.3629150390625 302.7284851074219 300.6004638671875 C 302.6429748535156 300.47381591796875 302.51470947265625 300.31549072265625 302.34368896484375 300.12548828125 C 302.19403076171875 299.9144287109375 302.03369140625 299.72442626953125 301.8626403808594 299.5555419921875 C 301.7130126953125 299.3656005859375 301.55267333984375 299.207275390625 301.3816223144531 299.08056640625 C 303.60504150390625 297.01190185546875 305.742919921875 294.6370849609375 307.7952880859375 291.95623779296875 C 309.84765625 289.2542724609375 311.7611083984375 286.35174560546875 313.5355224609375 283.24871826171875 C 315.33135986328125 280.1456298828125 316.8599853515625 276.96875 318.121337890625 273.7178955078125M 311.22662353515625 288.2515869140625 C 311.8038330078125 287.681640625 312.3810729980469 287.1116943359375 312.95831298828125 286.541748046875 C 313.0010681152344 286.5628662109375 313.0438232421875 286.583984375 313.0865783691406 286.6051025390625 C 313.0865783691406 300.45269775390625 313.0865783691406 314.30029296875 313.0865783691406 328.14794921875 C 312.46661376953125 328.14794921875 311.84661865234375 328.14794921875 311.22662353515625 328.14794921875 C 311.22662353515625 314.84912109375 311.22662353515625 301.5504150390625 311.22662353515625 288.2515869140625"/>
    <path stroke-width="0" fill="rgb(0, 0, 0)" opacity="1.0" d="M 365.48638916015625 292.0828857421875 C 383.31640625 292.0828857421875 401.146484375 292.0828857421875 418.9764404296875 292.0828857421875 C 418.9764404296875 292.6739501953125 418.9764404296875 293.2650146484375 418.9764404296875 293.8560791015625 C 401.146484375 293.8560791015625 383.31640625 293.8560791015625 365.48638916015625 293.8560791015625 C 365.48638916015625 293.2650146484375 365.48638916015625 292.6739501953125 365.48638916015625 292.0828857421875M 393.866943359375 292.747802734375 C 395.342041015625 297.89849853515625 397.28759765625 302.71142578125 399.703369140625 307.1865234375 C 402.119140625 311.66168212890625 405.00537109375 315.56689453125 408.36181640625 318.902099609375 C 411.73974609375 322.21630859375 415.50244140625 324.7916259765625 419.64990234375 326.6280517578125 C 419.4788818359375 326.733642578125 419.307861328125 326.8919677734375 419.1368408203125 327.10302734375 C 418.9871826171875 327.31414794921875 418.8267822265625 327.504150390625 418.65576171875 327.6729736328125 C 418.506103515625 327.86297607421875 418.3671875 328.0318603515625 418.2388916015625 328.17962646484375 C 414.048583984375 326.1953125 410.25390625 323.4827880859375 406.8546142578125 320.0419921875 C 403.476806640625 316.6011962890625 400.55853271484375 312.60107421875 398.0999755859375 308.04144287109375 C 395.641357421875 303.48187255859375 393.653076171875 298.5423583984375 392.13525390625 293.2227783203125 C 392.71246337890625 293.064453125 393.2896728515625 292.9061279296875 393.866943359375 292.747802734375M 391.52587890625 273.59124755859375 C 392.13525390625 273.59124755859375 392.7445068359375 273.59124755859375 393.35382080078125 273.59124755859375 C 393.35382080078125 275.828857421875 393.27899169921875 278.44635009765625 393.12933349609375 281.44384765625 C 393.0010986328125 284.44140625 392.6910400390625 287.6605224609375 392.1993408203125 291.101318359375 C 391.7076416015625 294.52099609375 390.895263671875 298.0040283203125 389.76214599609375 301.5504150390625 C 388.62908935546875 305.0966796875 387.0469970703125 308.5269775390625 385.0159912109375 311.841064453125 C 382.98504638671875 315.1552734375 380.398193359375 318.2371826171875 377.2554931640625 321.0869140625 C 374.11279296875 323.91552734375 370.26458740234375 326.3009033203125 365.7108154296875 328.242919921875 C 365.56121826171875 328.052978515625 365.33673095703125 327.82080078125 365.03741455078125 327.54638671875 C 364.759521484375 327.29302978515625 364.51361083984375 327.0819091796875 364.2998046875 326.9130859375 C 368.810791015625 325.01324462890625 372.626953125 322.69122314453125 375.748291015625 319.947021484375 C 378.86956787109375 317.1817626953125 381.42437744140625 314.1737060546875 383.41259765625 310.9228515625 C 385.40087890625 307.65093994140625 386.9508056640625 304.2734375 388.0625 300.7904052734375 C 389.17425537109375 297.28631591796875 389.9652099609375 293.8560791015625 390.43560791015625 290.499755859375 C 390.90594482421875 287.143310546875 391.2052001953125 284.0191650390625 391.33349609375 281.127197265625 C 391.4617919921875 278.21417236328125 391.52587890625 275.7021484375 391.52587890625 273.59124755859375"/>
    <path stroke-width="0" fill="rgb(0, 0, 0)" opacity="1.0" d="M 436.58203125 293.792724609375 C 447.46392822265625 293.792724609375 458.3458251953125 293.792724609375 469.2276611328125 293.792724609375 C 469.2276611328125 294.373291015625 469.2276611328125 294.9537353515625 469.2276611328125 295.53424072265625 C 458.3458251953125 295.53424072265625 447.46392822265625 295.53424072265625 436.58203125 295.53424072265625 C 436.58203125 294.9537353515625 436.58203125 294.373291015625 436.58203125 293.792724609375M 426.929443359375 307.81982421875 C 444.8663330078125 307.81982421875 462.8033447265625 307.81982421875 480.740234375 307.81982421875 C 480.740234375 308.4320068359375 480.740234375 309.04412841796875 480.740234375 309.65631103515625 C 462.8033447265625 309.65631103515625 444.8663330078125 309.65631103515625 426.929443359375 309.65631103515625 C 426.929443359375 309.04412841796875 426.929443359375 308.4320068359375 426.929443359375 307.81982421875M 452.776611328125 302.91192626953125 C 453.3966064453125 302.91192626953125 454.0166015625 302.91192626953125 454.6365966796875 302.91192626953125 C 454.6365966796875 310.3212890625 454.6365966796875 317.7305908203125 454.6365966796875 325.139892578125 C 454.6365966796875 326.047607421875 454.465576171875 326.70196533203125 454.12347412109375 327.10302734375 C 453.80279541015625 327.504150390625 453.2362060546875 327.7890625 452.423828125 327.9580078125 C 451.6328125 328.105712890625 450.392822265625 328.20074462890625 448.703857421875 328.242919921875 C 447.036376953125 328.28515625 444.7060546875 328.3062744140625 441.7130126953125 328.3062744140625 C 441.62744140625 328.0740966796875 441.488525390625 327.7890625 441.296142578125 327.45135498046875 C 441.10369873046875 327.13470458984375 440.9112548828125 326.83917236328125 440.7188720703125 326.56475830078125 C 442.55743408203125 326.60699462890625 444.19293212890625 326.6280517578125 445.6253662109375 326.6280517578125 C 447.0791015625 326.649169921875 448.2869873046875 326.649169921875 449.2490234375 326.6280517578125 C 450.21112060546875 326.6280517578125 450.895263671875 326.60699462890625 451.30145263671875 326.56475830078125 C 451.92138671875 326.4803466796875 452.31695556640625 326.3431396484375 452.48797607421875 326.15313720703125 C 452.680419921875 325.9842529296875 452.776611328125 325.6676025390625 452.776611328125 325.2032470703125 C 452.776611328125 317.7728271484375 452.776611328125 310.34234619140625 452.776611328125 302.91192626953125M 468.7786865234375 293.792724609375 C 468.92840576171875 293.792724609375 469.0780029296875 293.792724609375 469.2276611328125 293.792724609375 C 469.36663818359375 293.75048828125 469.505615234375 293.70831298828125 469.64453125 293.66607666015625 C 470.0828857421875 293.97216796875 470.5211181640625 294.27825927734375 470.9593505859375 294.5843505859375 C 469.59112548828125 295.87200927734375 467.96630859375 297.12799072265625 466.0849609375 298.352294921875 C 464.20361328125 299.5555419921875 462.23681640625 300.663818359375 460.18438720703125 301.677001953125 C 458.1534423828125 302.6903076171875 456.197265625 303.5662841796875 454.31591796875 304.30511474609375 C 454.1448974609375 304.093994140625 453.9417724609375 303.89349365234375 453.70654296875 303.7034912109375 C 453.4927978515625 303.492431640625 453.2896728515625 303.30242919921875 453.0972900390625 303.133544921875 C 454.9786376953125 302.45806884765625 456.9027099609375 301.63482666015625 458.86962890625 300.663818359375 C 460.83642578125 299.6927490234375 462.6964111328125 298.6478271484375 464.449462890625 297.529052734375 C 466.20257568359375 296.4102783203125 467.6456298828125 295.30206298828125 468.7786865234375 294.204345703125 C 468.7786865234375 294.067138671875 468.7786865234375 293.929931640625 468.7786865234375 293.792724609375M 428.62908935546875 284.07196044921875 C 445.5291748046875 284.07196044921875 462.42919921875 284.07196044921875 479.3292236328125 284.07196044921875 C 479.3292236328125 288.1566162109375 479.3292236328125 292.2412109375 479.3292236328125 296.32586669921875 C 478.709228515625 296.32586669921875 478.0892333984375 296.32586669921875 477.46923828125 296.32586669921875 C 477.46923828125 292.84283447265625 477.46923828125 289.35980224609375 477.46923828125 285.8768310546875 C 461.8092041015625 285.8768310546875 446.14910888671875 285.8768310546875 430.489013671875 285.8768310546875 C 430.489013671875 289.35980224609375 430.489013671875 292.84283447265625 430.489013671875 296.32586669921875 C 429.86907958984375 296.32586669921875 429.2490234375 296.32586669921875 428.62908935546875 296.32586669921875 C 428.62908935546875 292.2412109375 428.62908935546875 288.1566162109375 428.62908935546875 284.07196044921875M 474.0379638671875 273.8446044921875 C 474.5831298828125 274.150634765625 475.1282958984375 274.45672607421875 475.6734619140625 274.7628173828125 C 474.49755859375 276.4937744140625 473.12939453125 278.298583984375 471.5687255859375 280.17730712890625 C 470.00799560546875 282.034912109375 468.56494140625 283.628662109375 467.23944091796875 284.95855712890625 C 466.8118896484375 284.66302490234375 466.38427734375 284.36749267578125 465.9566650390625 284.07196044921875 C 466.8118896484375 283.164306640625 467.7418212890625 282.10882568359375 468.7467041015625 280.90557861328125 C 469.75146484375 279.6812744140625 470.7242431640625 278.4569091796875 471.6649169921875 277.2325439453125 C 472.626953125 275.9871826171875 473.41796875 274.8577880859375 474.0379638671875 273.8446044921875M 432.95831298828125 275.111083984375 C 433.45001220703125 274.8472900390625 433.9417724609375 274.5833740234375 434.4334716796875 274.31951904296875 C 435.69482421875 275.7127685546875 436.91339111328125 277.2325439453125 438.0892333984375 278.87908935546875 C 439.26513671875 280.5045166015625 440.1202392578125 281.92938232421875 440.65472412109375 283.1536865234375 C 440.16302490234375 283.4598388671875 439.6712646484375 283.765869140625 439.1795654296875 284.07196044921875 C 438.60235595703125 282.84765625 437.715087890625 281.401611328125 436.5179443359375 279.7340087890625 C 435.342041015625 278.0452880859375 434.155517578125 276.50433349609375 432.95831298828125 275.111083984375M 449.0887451171875 273.8446044921875 C 449.5804443359375 273.6651611328125 450.0721435546875 273.4857177734375 450.5638427734375 273.3062744140625 C 451.67559814453125 274.8472900390625 452.73388671875 276.5465087890625 453.7386474609375 278.4041748046875 C 454.743408203125 280.26171875 455.4276123046875 281.8660888671875 455.791015625 283.217041015625 C 455.2779541015625 283.438720703125 454.76483154296875 283.66033935546875 454.251708984375 283.8819580078125 C 453.84552001953125 282.5098876953125 453.161376953125 280.884521484375 452.1993408203125 279.0057373046875 C 451.2373046875 277.10595703125 450.200439453125 275.385498046875 449.0887451171875 273.8446044921875"/>
  </g>
</svg>
