<?xml version="1.0" encoding="utf-8"?>
<svg xmlns="http://www.w3.org/2000/svg" xmlns:ev="http://www.w3.org/2001/xml-events" xmlns:xlink="http://www.w3.org/1999/xlink" version="1.1" baseProfile="full" width="19012.0" height="1920.0" viewBox="113.0 -1690.0 19012.0 1920.0">
<defs/>
<g><path d="M 113.000000 -10.000000 C 678.333333 -10.000000 1243.666667 -10.000000 1809.000000 -10.000000 C 1809.000000 8.666667 1809.000000 27.333333 1809.000000 46.000000 C 1243.666667 46.000000 678.333333 46.000000 113.000000 46.000000 C 113.000000 27.333333 113.000000 8.666667 113.000000 -10.000000z M 190.000000 -1219.000000 C 371.000000 -1219.000000 552.000000 -1219.000000 733.000000 -1219.000000 C 733.000000 -1200.666667 733.000000 -1182.333333 733.000000 -1164.000000 C 552.000000 -1164.000000 371.000000 -1164.000000 190.000000 -1164.000000 C 190.000000 -1182.333333 190.000000 -1200.666667 190.000000 -1219.000000z M 1173.000000 -1219.000000 C 1365.666667 -1219.000000 1558.333333 -1219.000000 1751.000000 -1219.000000 C 1751.000000 -1200.666667 1751.000000 -1182.333333 1751.000000 -1164.000000 C 1558.333333 -1164.000000 1365.666667 -1164.000000 1173.000000 -1164.000000 C 1173.000000 -1182.333333 1173.000000 -1200.666667 1173.000000 -1219.000000z M 213.000000 -828.000000 C 388.333333 -828.000000 563.666667 -828.000000 739.000000 -828.000000 C 739.000000 -809.333333 739.000000 -790.666667 739.000000 -772.000000 C 563.666667 -772.000000 388.333333 -772.000000 213.000000 -772.000000 C 213.000000 -790.666667 213.000000 -809.333333 213.000000 -828.000000z M 1177.000000 -828.000000 C 1360.666667 -828.000000 1544.333333 -828.000000 1728.000000 -828.000000 C 1728.000000 -809.333333 1728.000000 -790.666667 1728.000000 -772.000000 C 1544.333333 -772.000000 1360.666667 -772.000000 1177.000000 -772.000000 C 1177.000000 -790.666667 1177.000000 -809.333333 1177.000000 -828.000000z M 180.000000 -422.000000 C 367.000000 -422.000000 554.000000 -422.000000 741.000000 -422.000000 C 741.000000 -403.000000 741.000000 -384.000000 741.000000 -365.000000 C 554.000000 -365.000000 367.000000 -365.000000 180.000000 -365.000000 C 180.000000 -384.000000 180.000000 -403.000000 180.000000 -422.000000z M 1173.000000 -422.000000 C 1368.333333 -422.000000 1563.666667 -422.000000 1759.000000 -422.000000 C 1759.000000 -403.000000 1759.000000 -384.000000 1759.000000 -365.000000 C 1563.666667 -365.000000 1368.333333 -365.000000 1173.000000 -365.000000 C 1173.000000 -384.000000 1173.000000 -403.000000 1173.000000 -422.000000z M 708.000000 -1572.000000 C 726.666667 -1572.000000 745.333333 -1572.000000 764.000000 -1572.000000 C 764.000000 -1044.000000 764.000000 -516.000000 764.000000 12.000000 C 745.333333 12.000000 726.666667 12.000000 708.000000 12.000000 C 708.000000 -516.000000 708.000000 -1044.000000 708.000000 -1572.000000z M 1152.000000 -1572.000000 C 1170.666667 -1572.000000 1189.333333 -1572.000000 1208.000000 -1572.000000 C 1208.000000 -1041.666667 1208.000000 -511.333333 1208.000000 19.000000 C 1189.333333 19.000000 1170.666667 19.000000 1152.000000 19.000000 C 1152.000000 -511.333333 1152.000000 -1041.666667 1152.000000 -1572.000000z "/>
</g>
<g><path d="M 2145.000000 -1400.000000 C 2639.000000 -1400.000000 3133.000000 -1400.000000 3627.000000 -1400.000000 C 3627.000000 -1381.333333 3627.000000 -1362.666667 3627.000000 -1344.000000 C 3133.000000 -1344.000000 2639.000000 -1344.000000 2145.000000 -1344.000000 C 2145.000000 -1362.666667 2145.000000 -1381.333333 2145.000000 -1400.000000z M 2033.000000 -939.000000 C 2598.333333 -939.000000 3163.666667 -939.000000 3729.000000 -939.000000 C 3729.000000 -920.333333 3729.000000 -901.666667 3729.000000 -883.000000 C 3163.666667 -883.000000 2598.333333 -883.000000 2033.000000 -883.000000 C 2033.000000 -901.666667 2033.000000 -920.333333 2033.000000 -939.000000z M 2352.000000 -338.000000 C 2710.333333 -338.000000 3068.666667 -338.000000 3427.000000 -338.000000 C 3427.000000 -318.666667 3427.000000 -299.333333 3427.000000 -280.000000 C 3068.666667 -280.000000 2710.333333 -280.000000 2352.000000 -280.000000 C 2352.000000 -299.333333 2352.000000 -318.666667 2352.000000 -338.000000z M 2356.000000 2.000000 C 2714.333333 2.000000 3072.666667 2.000000 3431.000000 2.000000 C 3431.000000 20.666667 3431.000000 39.333333 3431.000000 58.000000 C 3072.666667 58.000000 2714.333333 58.000000 2356.000000 58.000000 C 2356.000000 39.333333 2356.000000 20.666667 2356.000000 2.000000z M 2849.000000 -1596.000000 C 2868.333333 -1596.000000 2887.666667 -1596.000000 2907.000000 -1596.000000 C 2907.000000 -1523.000000 2907.000000 -1450.000000 2907.000000 -1377.000000 C 2887.666667 -1377.000000 2868.333333 -1377.000000 2849.000000 -1377.000000 C 2849.000000 -1450.000000 2849.000000 -1523.000000 2849.000000 -1596.000000z M 2325.000000 -664.000000 C 2700.666667 -664.000000 3076.333333 -664.000000 3452.000000 -664.000000 C 3452.000000 -399.000000 3452.000000 -134.000000 3452.000000 131.000000 C 3433.333333 131.000000 3414.666667 131.000000 3396.000000 131.000000 C 3396.000000 -115.666667 3396.000000 -362.333333 3396.000000 -609.000000 C 3057.666667 -609.000000 2719.333333 -609.000000 2381.000000 -609.000000 C 2381.000000 -360.000000 2381.000000 -111.000000 2381.000000 138.000000 C 2362.333333 138.000000 2343.666667 138.000000 2325.000000 138.000000 C 2325.000000 -129.333333 2325.000000 -396.666667 2325.000000 -664.000000z M 3293.000000 -1317.000000 C 3311.000000 -1310.000000 3329.000000 -1303.000000 3347.000000 -1296.000000 C 3321.000000 -1240.666667 3291.333333 -1181.666667 3258.000000 -1119.000000 C 3224.666667 -1056.333333 3193.333333 -1002.666667 3164.000000 -958.000000 C 3148.666667 -965.000000 3133.333333 -972.000000 3118.000000 -979.000000 C 3138.666667 -1008.333333 3159.666667 -1043.000000 3181.000000 -1083.000000 C 3203.000000 -1123.666667 3224.000000 -1164.333333 3244.000000 -1205.000000 C 3264.000000 -1246.333333 3280.333333 -1283.666667 3293.000000 -1317.000000z M 2431.000000 -1294.000000 C 2447.000000 -1299.666667 2463.000000 -1305.333333 2479.000000 -1311.000000 C 2514.333333 -1260.333333 2545.333333 -1203.666667 2572.000000 -1141.000000 C 2599.333333 -1079.000000 2617.666667 -1025.666667 2627.000000 -981.000000 C 2608.333333 -974.000000 2589.666667 -967.000000 2571.000000 -960.000000 C 2561.666667 -1007.333333 2544.333333 -1062.000000 2519.000000 -1124.000000 C 2493.666667 -1186.000000 2464.333333 -1242.666667 2431.000000 -1294.000000z "/>
</g>
<g><path d="M 4032.000000 230.000000 C 4032.000000 -410.000000 4032.000000 -1050.000000 4032.000000 -1690.000000 C 4544.000000 -1690.000000 5056.000000 -1690.000000 5568.000000 -1690.000000 C 5568.000000 -1050.000000 5568.000000 -410.000000 5568.000000 230.000000 C 5056.000000 230.000000 4544.000000 230.000000 4032.000000 230.000000z M 4800.000000 -808.000000 C 5003.666667 -1070.000000 5207.333333 -1332.000000 5411.000000 -1594.000000 C 5003.666667 -1594.000000 4596.333333 -1594.000000 4189.000000 -1594.000000 C 4392.666667 -1332.000000 4596.333333 -1070.000000 4800.000000 -808.000000z M 4861.000000 -730.000000 C 5064.666667 -468.000000 5268.333333 -206.000000 5472.000000 56.000000 C 5472.000000 -467.666667 5472.000000 -991.333333 5472.000000 -1515.000000 C 5268.333333 -1253.333333 5064.666667 -991.666667 4861.000000 -730.000000z M 4189.000000 134.000000 C 4596.333333 134.000000 5003.666667 134.000000 5411.000000 134.000000 C 5207.333333 -127.666667 5003.666667 -389.333333 4800.000000 -651.000000 C 4596.333333 -389.333333 4392.666667 -127.666667 4189.000000 134.000000z M 4128.000000 -1515.000000 C 4128.000000 -991.333333 4128.000000 -467.666667 4128.000000 56.000000 C 4331.666667 -206.000000 4535.333333 -468.000000 4739.000000 -730.000000 C 4535.333333 -991.666667 4331.666667 -1253.333333 4128.000000 -1515.000000z "/>
</g>
<g><path d="M 6403.000000 -1140.000000 C 6737.000000 -1140.000000 7071.000000 -1140.000000 7405.000000 -1140.000000 C 7405.000000 -1121.666667 7405.000000 -1103.333333 7405.000000 -1085.000000 C 7071.000000 -1085.000000 6737.000000 -1085.000000 6403.000000 -1085.000000 C 6403.000000 -1103.333333 6403.000000 -1121.666667 6403.000000 -1140.000000z M 6161.000000 -764.000000 C 6607.666667 -764.000000 7054.333333 -764.000000 7501.000000 -764.000000 C 7501.000000 -745.333333 7501.000000 -726.666667 7501.000000 -708.000000 C 7054.333333 -708.000000 6607.666667 -708.000000 6161.000000 -708.000000 C 6161.000000 -726.666667 6161.000000 -745.333333 6161.000000 -764.000000z M 6778.000000 -1121.000000 C 6797.000000 -1121.000000 6816.000000 -1121.000000 6835.000000 -1121.000000 C 6835.000000 -1023.666667 6835.000000 -926.333333 6835.000000 -829.000000 C 6835.000000 -774.333333 6829.000000 -716.333333 6817.000000 -655.000000 C 6805.000000 -594.333333 6778.666667 -533.333333 6738.000000 -472.000000 C 6698.000000 -410.666667 6635.333333 -351.333333 6550.000000 -294.000000 C 6464.666667 -237.333333 6349.333333 -185.333333 6204.000000 -138.000000 C 6201.333333 -143.333333 6198.000000 -148.333333 6194.000000 -153.000000 C 6190.000000 -158.333333 6185.666667 -163.666667 6181.000000 -169.000000 C 6177.000000 -174.333333 6173.000000 -178.666667 6169.000000 -182.000000 C 6311.000000 -227.333333 6423.333333 -276.333333 6506.000000 -329.000000 C 6588.666667 -382.333333 6649.000000 -438.000000 6687.000000 -496.000000 C 6725.666667 -554.666667 6750.333333 -612.333333 6761.000000 -669.000000 C 6772.333333 -726.333333 6778.000000 -779.666667 6778.000000 -829.000000 C 6778.000000 -926.333333 6778.000000 -1023.666667 6778.000000 -1121.000000z M 6497.000000 -1346.000000 C 6516.333333 -1341.333333 6535.666667 -1336.666667 6555.000000 -1332.000000 C 6519.000000 -1241.333333 6471.333333 -1156.666667 6412.000000 -1078.000000 C 6353.333333 -999.333333 6291.000000 -932.333333 6225.000000 -877.000000 C 6222.333333 -879.666667 6217.666667 -883.333333 6211.000000 -888.000000 C 6205.000000 -892.666667 6198.666667 -896.666667 6192.000000 -900.000000 C 6185.333333 -904.000000 6179.666667 -907.333333 6175.000000 -910.000000 C 6242.333333 -962.666667 6304.333333 -1027.000000 6361.000000 -1103.000000 C 6418.333333 -1179.000000 6463.666667 -1260.000000 6497.000000 -1346.000000z M 6851.000000 -730.000000 C 6898.333333 -587.333333 6976.666667 -471.000000 7086.000000 -381.000000 C 7195.333333 -291.000000 7331.333333 -228.000000 7494.000000 -192.000000 C 7486.000000 -185.333333 7478.333333 -177.333333 7471.000000 -168.000000 C 7464.333333 -158.666667 7458.333333 -149.333333 7453.000000 -140.000000 C 7291.000000 -182.666667 7153.333333 -251.666667 7040.000000 -347.000000 C 6926.666667 -442.333333 6845.000000 -565.333333 6795.000000 -716.000000 C 6813.666667 -720.666667 6832.333333 -725.333333 6851.000000 -730.000000z M 5969.000000 -1473.000000 C 6489.333333 -1473.000000 7009.666667 -1473.000000 7530.000000 -1473.000000 C 7530.000000 -1453.666667 7530.000000 -1434.333333 7530.000000 -1415.000000 C 7028.333333 -1415.000000 6526.666667 -1415.000000 6025.000000 -1415.000000 C 6025.000000 -900.333333 6025.000000 -385.666667 6025.000000 129.000000 C 6006.333333 129.000000 5987.666667 129.000000 5969.000000 129.000000 C 5969.000000 -405.000000 5969.000000 -939.000000 5969.000000 -1473.000000z M 6010.000000 -29.000000 C 6529.666667 -29.000000 7049.333333 -29.000000 7569.000000 -29.000000 C 7569.000000 -9.666667 7569.000000 9.666667 7569.000000 29.000000 C 7049.333333 29.000000 6529.666667 29.000000 6010.000000 29.000000 C 6010.000000 9.666667 6010.000000 -9.666667 6010.000000 -29.000000z "/>
</g>
<g><path d="M 8851.000000 -691.000000 C 8869.666667 -691.000000 8888.333333 -691.000000 8907.000000 -691.000000 C 8907.000000 -462.666667 8907.000000 -234.333333 8907.000000 -6.000000 C 8907.000000 20.000000 8913.666667 37.333333 8927.000000 46.000000 C 8940.333333 55.333333 8968.666667 60.000000 9012.000000 60.000000 C 9022.666667 60.000000 9042.333333 60.000000 9071.000000 60.000000 C 9099.666667 60.000000 9131.666667 60.000000 9167.000000 60.000000 C 9202.333333 60.000000 9235.333333 60.000000 9266.000000 60.000000 C 9296.666667 60.000000 9319.000000 60.000000 9333.000000 60.000000 C 9363.666667 60.000000 9386.333333 51.666667 9401.000000 35.000000 C 9415.666667 18.333333 9426.000000 -15.666667 9432.000000 -67.000000 C 9438.000000 -118.333333 9442.000000 -195.333333 9444.000000 -298.000000 C 9449.333333 -294.000000 9455.000000 -290.000000 9461.000000 -286.000000 C 9467.666667 -282.000000 9474.333333 -278.666667 9481.000000 -276.000000 C 9488.333333 -274.000000 9494.666667 -271.666667 9500.000000 -269.000000 C 9497.333333 -166.333333 9491.666667 -86.666667 9483.000000 -30.000000 C 9475.000000 26.000000 9459.666667 64.333333 9437.000000 85.000000 C 9415.000000 106.333333 9381.000000 117.000000 9335.000000 117.000000 C 9327.666667 117.000000 9308.333333 117.000000 9277.000000 117.000000 C 9246.333333 117.000000 9212.000000 117.000000 9174.000000 117.000000 C 9136.666667 117.000000 9102.666667 117.000000 9072.000000 117.000000 C 9041.333333 117.000000 9022.000000 117.000000 9014.000000 117.000000 C 8972.000000 117.000000 8939.000000 113.666667 8915.000000 107.000000 C 8891.666667 101.000000 8875.000000 89.000000 8865.000000 71.000000 C 8855.666667 53.000000 8851.000000 26.666667 8851.000000 -8.000000 C 8851.000000 -235.666667 8851.000000 -463.333333 8851.000000 -691.000000z M 8367.000000 -678.000000 C 8386.333333 -678.000000 8405.666667 -678.000000 8425.000000 -678.000000 C 8416.333333 -569.333333 8401.333333 -471.666667 8380.000000 -385.000000 C 8358.666667 -298.333333 8326.333333 -222.333333 8283.000000 -157.000000 C 8239.666667 -92.333333 8181.000000 -36.666667 8107.000000 10.000000 C 8033.666667 57.333333 7940.666667 96.333333 7828.000000 127.000000 C 7826.666667 123.000000 7823.666667 118.000000 7819.000000 112.000000 C 7814.333333 106.666667 7809.666667 101.333333 7805.000000 96.000000 C 7801.000000 90.666667 7796.333333 86.333333 7791.000000 83.000000 C 7902.333333 54.333333 7993.666667 18.000000 8065.000000 -26.000000 C 8136.333333 -70.000000 8192.666667 -123.000000 8234.000000 -185.000000 C 8275.333333 -247.000000 8306.000000 -319.000000 8326.000000 -401.000000 C 8346.000000 -483.000000 8359.666667 -575.333333 8367.000000 -678.000000z M 8844.000000 -1139.000000 C 8857.333333 -1149.666667 8870.666667 -1160.333333 8884.000000 -1171.000000 C 8954.000000 -1123.666667 9025.000000 -1070.333333 9097.000000 -1011.000000 C 9169.666667 -951.666667 9236.666667 -892.333333 9298.000000 -833.000000 C 9360.000000 -774.333333 9409.333333 -720.666667 9446.000000 -672.000000 C 9431.333333 -659.333333 9416.666667 -646.666667 9402.000000 -634.000000 C 9366.000000 -683.333333 9317.666667 -738.000000 9257.000000 -798.000000 C 9196.333333 -858.666667 9130.000000 -918.666667 9058.000000 -978.000000 C 8986.666667 -1038.000000 8915.333333 -1091.666667 8844.000000 -1139.000000z M 8435.000000 -1315.000000 C 8452.666667 -1306.666667 8470.333333 -1298.333333 8488.000000 -1290.000000 C 8461.333333 -1235.333333 8431.666667 -1176.666667 8399.000000 -1114.000000 C 8366.333333 -1051.333333 8333.333333 -990.666667 8300.000000 -932.000000 C 8266.666667 -874.000000 8234.666667 -822.666667 8204.000000 -778.000000 C 8189.333333 -785.666667 8174.666667 -793.333333 8160.000000 -801.000000 C 8190.666667 -845.666667 8223.000000 -898.000000 8257.000000 -958.000000 C 8291.000000 -1018.000000 8323.666667 -1079.666667 8355.000000 -1143.000000 C 8386.333333 -1206.333333 8413.000000 -1263.666667 8435.000000 -1315.000000z M 7876.000000 -801.000000 C 7986.000000 -803.000000 8116.666667 -806.333333 8268.000000 -811.000000 C 8420.000000 -815.666667 8582.333333 -821.000000 8755.000000 -827.000000 C 8927.666667 -833.666667 9101.333333 -841.000000 9276.000000 -849.000000 C 9274.666667 -832.333333 9273.333333 -815.666667 9272.000000 -799.000000 C 9102.666667 -791.000000 8932.666667 -783.333333 8762.000000 -776.000000 C 8591.333333 -769.333333 8430.333333 -762.666667 8279.000000 -756.000000 C 8127.666667 -750.000000 7995.333333 -745.000000 7882.000000 -741.000000 C 7880.000000 -761.000000 7878.000000 -781.000000 7876.000000 -801.000000z M 7818.000000 -1336.000000 C 8368.333333 -1336.000000 8918.666667 -1336.000000 9469.000000 -1336.000000 C 9469.000000 -1317.666667 9469.000000 -1299.333333 9469.000000 -1281.000000 C 8918.666667 -1281.000000 8368.333333 -1281.000000 7818.000000 -1281.000000 C 7818.000000 -1299.333333 7818.000000 -1317.666667 7818.000000 -1336.000000z M 8607.000000 -1596.000000 C 8626.333333 -1596.000000 8645.666667 -1596.000000 8665.000000 -1596.000000 C 8665.000000 -1500.000000 8665.000000 -1404.000000 8665.000000 -1308.000000 C 8645.666667 -1308.000000 8626.333333 -1308.000000 8607.000000 -1308.000000 C 8607.000000 -1404.000000 8607.000000 -1500.000000 8607.000000 -1596.000000z "/>
</g>
<g><path d="M 9798.000000 -1396.000000 C 9934.333333 -1396.000000 10070.666667 -1396.000000 10207.000000 -1396.000000 C 10207.000000 -1058.000000 10207.000000 -720.000000 10207.000000 -382.000000 C 10070.666667 -382.000000 9934.333333 -382.000000 9798.000000 -382.000000 C 9798.000000 -401.333333 9798.000000 -420.666667 9798.000000 -440.000000 C 9915.000000 -440.000000 10032.000000 -440.000000 10149.000000 -440.000000 C 10149.000000 -740.000000 10149.000000 -1040.000000 10149.000000 -1340.000000 C 10032.000000 -1340.000000 9915.000000 -1340.000000 9798.000000 -1340.000000 C 9798.000000 -1358.666667 9798.000000 -1377.333333 9798.000000 -1396.000000z M 9777.000000 -1396.000000 C 9796.000000 -1396.000000 9815.000000 -1396.000000 9834.000000 -1396.000000 C 9834.000000 -992.000000 9834.000000 -588.000000 9834.000000 -184.000000 C 9815.000000 -184.000000 9796.000000 -184.000000 9777.000000 -184.000000 C 9777.000000 -588.000000 9777.000000 -992.000000 9777.000000 -1396.000000z M 10374.000000 -346.000000 C 10690.666667 -346.000000 11007.333333 -346.000000 11324.000000 -346.000000 C 11324.000000 -327.333333 11324.000000 -308.666667 11324.000000 -290.000000 C 11007.333333 -290.000000 10690.666667 -290.000000 10374.000000 -290.000000 C 10374.000000 -308.666667 10374.000000 -327.333333 10374.000000 -346.000000z M 10374.000000 -8.000000 C 10690.666667 -8.000000 11007.333333 -8.000000 11324.000000 -8.000000 C 11324.000000 10.666667 11324.000000 29.333333 11324.000000 48.000000 C 11007.333333 48.000000 10690.666667 48.000000 10374.000000 48.000000 C 10374.000000 29.333333 10374.000000 10.666667 10374.000000 -8.000000z M 10349.000000 -670.000000 C 10685.000000 -670.000000 11021.000000 -670.000000 11357.000000 -670.000000 C 11357.000000 -405.000000 11357.000000 -140.000000 11357.000000 125.000000 C 11337.666667 125.000000 11318.333333 125.000000 11299.000000 125.000000 C 11299.000000 -121.333333 11299.000000 -367.666667 11299.000000 -614.000000 C 11001.333333 -614.000000 10703.666667 -614.000000 10406.000000 -614.000000 C 10406.000000 -365.333333 10406.000000 -116.666667 10406.000000 132.000000 C 10387.000000 132.000000 10368.000000 132.000000 10349.000000 132.000000 C 10349.000000 -135.333333 10349.000000 -402.666667 10349.000000 -670.000000z M 10474.000000 -1144.000000 C 10474.000000 -1061.000000 10474.000000 -978.000000 10474.000000 -895.000000 C 10724.000000 -895.000000 10974.000000 -895.000000 11224.000000 -895.000000 C 11224.000000 -978.000000 11224.000000 -1061.000000 11224.000000 -1144.000000 C 10974.000000 -1144.000000 10724.000000 -1144.000000 10474.000000 -1144.000000z M 10474.000000 -1448.000000 C 10474.000000 -1365.333333 10474.000000 -1282.666667 10474.000000 -1200.000000 C 10724.000000 -1200.000000 10974.000000 -1200.000000 11224.000000 -1200.000000 C 11224.000000 -1282.666667 11224.000000 -1365.333333 11224.000000 -1448.000000 C 10974.000000 -1448.000000 10724.000000 -1448.000000 10474.000000 -1448.000000z M 10418.000000 -1503.000000 C 10705.333333 -1503.000000 10992.666667 -1503.000000 11280.000000 -1503.000000 C 11280.000000 -1281.000000 11280.000000 -1059.000000 11280.000000 -837.000000 C 10992.666667 -837.000000 10705.333333 -837.000000 10418.000000 -837.000000 C 10418.000000 -1059.000000 10418.000000 -1281.000000 10418.000000 -1503.000000z "/>
</g>
<g><path d="M 12447.000000 -1596.000000 C 12466.333333 -1596.000000 12485.666667 -1596.000000 12505.000000 -1596.000000 C 12505.000000 -1519.666667 12505.000000 -1443.333333 12505.000000 -1367.000000 C 12485.666667 -1367.000000 12466.333333 -1367.000000 12447.000000 -1367.000000 C 12447.000000 -1443.333333 12447.000000 -1519.666667 12447.000000 -1596.000000z M 12447.000000 -488.000000 C 12466.333333 -488.000000 12485.666667 -488.000000 12505.000000 -488.000000 C 12505.000000 -307.333333 12505.000000 -126.666667 12505.000000 54.000000 C 12485.666667 54.000000 12466.333333 54.000000 12447.000000 54.000000 C 12447.000000 -126.666667 12447.000000 -307.333333 12447.000000 -488.000000z M 11683.000000 -1407.000000 C 12214.333333 -1407.000000 12745.666667 -1407.000000 13277.000000 -1407.000000 C 13277.000000 -1312.333333 13277.000000 -1217.666667 13277.000000 -1123.000000 C 13257.666667 -1123.000000 13238.333333 -1123.000000 13219.000000 -1123.000000 C 13219.000000 -1199.333333 13219.000000 -1275.666667 13219.000000 -1352.000000 C 12726.333333 -1352.000000 12233.666667 -1352.000000 11741.000000 -1352.000000 C 11741.000000 -1275.666667 11741.000000 -1199.333333 11741.000000 -1123.000000 C 11721.666667 -1123.000000 11702.333333 -1123.000000 11683.000000 -1123.000000 C 11683.000000 -1217.666667 11683.000000 -1312.333333 11683.000000 -1407.000000z M 12148.000000 -1258.000000 C 12166.666667 -1258.000000 12185.333333 -1258.000000 12204.000000 -1258.000000 C 12204.000000 -1037.666667 12204.000000 -817.333333 12204.000000 -597.000000 C 12185.333333 -597.000000 12166.666667 -597.000000 12148.000000 -597.000000 C 12148.000000 -817.333333 12148.000000 -1037.666667 12148.000000 -1258.000000z M 12756.000000 -1258.000000 C 12774.666667 -1258.000000 12793.333333 -1258.000000 12812.000000 -1258.000000 C 12812.000000 -1037.666667 12812.000000 -817.333333 12812.000000 -597.000000 C 12793.333333 -597.000000 12774.666667 -597.000000 12756.000000 -597.000000 C 12756.000000 -817.333333 12756.000000 -1037.666667 12756.000000 -1258.000000z M 11825.000000 -1106.000000 C 12257.000000 -1106.000000 12689.000000 -1106.000000 13121.000000 -1106.000000 C 13121.000000 -1087.333333 13121.000000 -1068.666667 13121.000000 -1050.000000 C 12689.000000 -1050.000000 12257.000000 -1050.000000 11825.000000 -1050.000000 C 11825.000000 -1068.666667 11825.000000 -1087.333333 11825.000000 -1106.000000z M 12029.000000 -286.000000 C 12328.333333 -286.000000 12627.666667 -286.000000 12927.000000 -286.000000 C 12927.000000 -267.333333 12927.000000 -248.666667 12927.000000 -230.000000 C 12627.666667 -230.000000 12328.333333 -230.000000 12029.000000 -230.000000 C 12029.000000 -248.666667 12029.000000 -267.333333 12029.000000 -286.000000z M 11716.000000 25.000000 C 12230.666667 25.000000 12745.333333 25.000000 13260.000000 25.000000 C 13260.000000 43.666667 13260.000000 62.333333 13260.000000 81.000000 C 12745.333333 81.000000 12230.666667 81.000000 11716.000000 81.000000 C 11716.000000 62.333333 11716.000000 43.666667 11716.000000 25.000000z M 11866.000000 -870.000000 C 12269.666667 -870.000000 12673.333333 -870.000000 13077.000000 -870.000000 C 13077.000000 -851.333333 13077.000000 -832.666667 13077.000000 -814.000000 C 12673.333333 -814.000000 12269.666667 -814.000000 11866.000000 -814.000000 C 11866.000000 -832.666667 11866.000000 -851.333333 11866.000000 -870.000000z M 11635.000000 -620.000000 C 12200.333333 -620.000000 12765.666667 -620.000000 13331.000000 -620.000000 C 13331.000000 -601.000000 13331.000000 -582.000000 13331.000000 -563.000000 C 12765.666667 -563.000000 12200.333333 -563.000000 11635.000000 -563.000000 C 11635.000000 -582.000000 11635.000000 -601.000000 11635.000000 -620.000000z M 12169.000000 -605.000000 C 12185.000000 -598.000000 12201.000000 -591.000000 12217.000000 -584.000000 C 12177.000000 -521.333333 12126.333333 -461.000000 12065.000000 -403.000000 C 12003.666667 -345.666667 11937.000000 -294.000000 11865.000000 -248.000000 C 11793.666667 -202.000000 11722.666667 -164.666667 11652.000000 -136.000000 C 11650.000000 -142.666667 11646.333333 -148.333333 11641.000000 -153.000000 C 11635.666667 -158.333333 11630.333333 -163.666667 11625.000000 -169.000000 C 11620.333333 -174.333333 11615.333333 -178.666667 11610.000000 -182.000000 C 11682.000000 -206.666667 11753.333333 -240.666667 11824.000000 -284.000000 C 11895.333333 -327.333333 11961.333333 -376.666667 12022.000000 -432.000000 C 12082.666667 -488.000000 12131.666667 -545.666667 12169.000000 -605.000000z M 12797.000000 -605.000000 C 12835.000000 -548.333333 12884.333333 -493.666667 12945.000000 -441.000000 C 13006.333333 -389.000000 13073.000000 -342.333333 13145.000000 -301.000000 C 13217.666667 -260.333333 13290.333333 -229.000000 13363.000000 -207.000000 C 13359.000000 -203.666667 13354.000000 -198.666667 13348.000000 -192.000000 C 13342.666667 -185.333333 13337.666667 -179.000000 13333.000000 -173.000000 C 13329.000000 -167.666667 13325.000000 -162.333333 13321.000000 -157.000000 C 13248.333333 -183.000000 13175.333333 -217.666667 13102.000000 -261.000000 C 13029.333333 -304.333333 12961.666667 -353.666667 12899.000000 -409.000000 C 12837.000000 -465.000000 12785.666667 -522.666667 12745.000000 -582.000000 C 12762.333333 -589.666667 12779.666667 -597.333333 12797.000000 -605.000000z "/>
</g>
<g><path d="M 14634.000000 -1532.000000 C 14596.000000 -1459.333333 14546.000000 -1383.666667 14484.000000 -1305.000000 C 14422.666667 -1226.333333 14354.333333 -1150.000000 14279.000000 -1076.000000 C 14203.666667 -1002.666667 14125.000000 -936.333333 14043.000000 -877.000000 C 14039.000000 -883.666667 14033.000000 -891.000000 14025.000000 -899.000000 C 14017.666667 -907.666667 14010.666667 -914.666667 14004.000000 -920.000000 C 14086.000000 -976.000000 14165.000000 -1041.000000 14241.000000 -1115.000000 C 14317.666667 -1189.666667 14387.333333 -1268.000000 14450.000000 -1350.000000 C 14512.666667 -1432.000000 14562.666667 -1512.666667 14600.000000 -1592.000000 C 14619.000000 -1592.000000 14638.000000 -1592.000000 14657.000000 -1592.000000 C 14707.000000 -1510.000000 14766.666667 -1428.333333 14836.000000 -1347.000000 C 14905.333333 -1265.666667 14978.333333 -1189.333333 15055.000000 -1118.000000 C 15131.666667 -1047.333333 15206.333333 -987.000000 15279.000000 -937.000000 C 15274.333333 -930.333333 15268.000000 -922.333333 15260.000000 -913.000000 C 15252.666667 -904.333333 15246.333333 -897.000000 15241.000000 -891.000000 C 15167.000000 -945.000000 15091.666667 -1007.333333 15015.000000 -1078.000000 C 14939.000000 -1149.333333 14868.000000 -1224.000000 14802.000000 -1302.000000 C 14736.000000 -1380.000000 14680.000000 -1456.666667 14634.000000 -1532.000000z M 14122.000000 -666.000000 C 14444.333333 -666.000000 14766.666667 -666.000000 15089.000000 -666.000000 C 15089.000000 -647.666667 15089.000000 -629.333333 15089.000000 -611.000000 C 14766.666667 -611.000000 14444.333333 -611.000000 14122.000000 -611.000000 C 14122.000000 -629.333333 14122.000000 -647.666667 14122.000000 -666.000000z M 15066.000000 -666.000000 C 15084.666667 -666.000000 15103.333333 -666.000000 15122.000000 -666.000000 C 15122.000000 -487.666667 15122.000000 -309.333333 15122.000000 -131.000000 C 15122.000000 -109.000000 15118.666667 -92.000000 15112.000000 -80.000000 C 15106.000000 -68.666667 15093.333333 -60.666667 15074.000000 -56.000000 C 15053.333333 -50.666667 15022.666667 -47.333333 14982.000000 -46.000000 C 14942.000000 -44.666667 14889.333333 -44.000000 14824.000000 -44.000000 C 14822.666667 -53.333333 14819.666667 -62.666667 14815.000000 -72.000000 C 14811.000000 -81.333333 14806.333333 -90.666667 14801.000000 -100.000000 C 14861.666667 -98.666667 14912.000000 -98.000000 14952.000000 -98.000000 C 14992.000000 -98.000000 15019.333333 -98.666667 15034.000000 -100.000000 C 15048.000000 -101.333333 15056.666667 -103.666667 15060.000000 -107.000000 C 15064.000000 -111.000000 15066.000000 -119.000000 15066.000000 -131.000000 C 15066.000000 -309.333333 15066.000000 -487.666667 15066.000000 -666.000000z M 14292.000000 -1008.000000 C 14524.333333 -1008.000000 14756.666667 -1008.000000 14989.000000 -1008.000000 C 14989.000000 -989.333333 14989.000000 -970.666667 14989.000000 -952.000000 C 14756.666667 -952.000000 14524.333333 -952.000000 14292.000000 -952.000000 C 14292.000000 -970.666667 14292.000000 -989.333333 14292.000000 -1008.000000z M 14536.000000 -645.000000 C 14554.666667 -645.000000 14573.333333 -645.000000 14592.000000 -645.000000 C 14592.000000 -386.000000 14592.000000 -127.000000 14592.000000 132.000000 C 14573.333333 132.000000 14554.666667 132.000000 14536.000000 132.000000 C 14536.000000 -127.000000 14536.000000 -386.000000 14536.000000 -645.000000z M 13814.000000 -1596.000000 C 13833.333333 -1596.000000 13852.666667 -1596.000000 13872.000000 -1596.000000 C 13872.000000 -1020.333333 13872.000000 -444.666667 13872.000000 131.000000 C 13852.666667 131.000000 13833.333333 131.000000 13814.000000 131.000000 C 13814.000000 -444.666667 13814.000000 -1020.333333 13814.000000 -1596.000000z M 13615.000000 -1235.000000 C 13633.333333 -1231.666667 13651.666667 -1228.333333 13670.000000 -1225.000000 C 13668.666667 -1171.000000 13664.000000 -1113.000000 13656.000000 -1051.000000 C 13648.000000 -989.000000 13636.000000 -929.000000 13620.000000 -871.000000 C 13604.000000 -813.666667 13583.000000 -764.666667 13557.000000 -724.000000 C 13540.333333 -732.333333 13523.666667 -740.666667 13507.000000 -749.000000 C 13531.666667 -787.000000 13551.666667 -833.666667 13567.000000 -889.000000 C 13582.333333 -944.333333 13593.666667 -1002.000000 13601.000000 -1062.000000 C 13609.000000 -1122.000000 13613.666667 -1179.666667 13615.000000 -1235.000000z M 13945.000000 -1300.000000 C 13960.333333 -1307.666667 13975.666667 -1315.333333 13991.000000 -1323.000000 C 14017.666667 -1279.666667 14042.333333 -1232.000000 14065.000000 -1180.000000 C 14088.333333 -1128.000000 14104.666667 -1084.666667 14114.000000 -1050.000000 C 14098.000000 -1040.000000 14082.000000 -1030.000000 14066.000000 -1020.000000 C 14056.000000 -1056.666667 14039.333333 -1101.666667 14016.000000 -1155.000000 C 13992.666667 -1208.333333 13969.000000 -1256.666667 13945.000000 -1300.000000z "/>
</g>
<g><path d="M 16151.000000 -1484.000000 C 16168.333333 -1484.000000 16185.666667 -1484.000000 16203.000000 -1484.000000 C 16203.000000 -1025.333333 16203.000000 -566.666667 16203.000000 -108.000000 C 16203.000000 -74.666667 16207.666667 -48.000000 16217.000000 -28.000000 C 16227.000000 -8.000000 16245.333333 6.000000 16272.000000 14.000000 C 16298.666667 22.666667 16336.333333 27.000000 16385.000000 27.000000 C 16399.000000 27.000000 16425.666667 27.000000 16465.000000 27.000000 C 16504.333333 27.000000 16549.000000 27.000000 16599.000000 27.000000 C 16649.666667 27.000000 16700.666667 27.000000 16752.000000 27.000000 C 16803.333333 27.000000 16850.000000 27.000000 16892.000000 27.000000 C 16934.666667 27.000000 16966.000000 27.000000 16986.000000 27.000000 C 17030.000000 27.000000 17062.333333 18.333333 17083.000000 1.000000 C 17104.333333 -16.333333 17119.000000 -47.333333 17127.000000 -92.000000 C 17135.666667 -136.666667 17142.666667 -199.333333 17148.000000 -280.000000 C 17155.333333 -275.333333 17164.000000 -270.666667 17174.000000 -266.000000 C 17184.666667 -261.333333 17194.333333 -257.666667 17203.000000 -255.000000 C 17198.333333 -172.333333 17190.000000 -106.666667 17178.000000 -58.000000 C 17166.666667 -9.333333 17145.666667 25.333333 17115.000000 46.000000 C 17084.333333 66.666667 17037.666667 77.000000 16975.000000 77.000000 C 16965.666667 77.000000 16941.333333 77.000000 16902.000000 77.000000 C 16863.333333 77.000000 16817.333333 77.000000 16764.000000 77.000000 C 16711.333333 77.000000 16658.000000 77.000000 16604.000000 77.000000 C 16550.666667 77.000000 16504.666667 77.000000 16466.000000 77.000000 C 16427.333333 77.000000 16403.666667 77.000000 16395.000000 77.000000 C 16332.333333 77.000000 16283.333333 71.666667 16248.000000 61.000000 C 16212.666667 51.000000 16187.666667 32.333333 16173.000000 5.000000 C 16158.333333 -21.666667 16151.000000 -59.666667 16151.000000 -109.000000 C 16151.000000 -567.333333 16151.000000 -1025.666667 16151.000000 -1484.000000z M 16182.000000 -1484.000000 C 16481.333333 -1484.000000 16780.666667 -1484.000000 17080.000000 -1484.000000 C 17080.000000 -1166.000000 17080.000000 -848.000000 17080.000000 -530.000000 C 17061.666667 -530.000000 17043.333333 -530.000000 17025.000000 -530.000000 C 17025.000000 -829.333333 17025.000000 -1128.666667 17025.000000 -1428.000000 C 16744.000000 -1428.000000 16463.000000 -1428.000000 16182.000000 -1428.000000 C 16182.000000 -1446.666667 16182.000000 -1465.333333 16182.000000 -1484.000000z M 16180.000000 -718.000000 C 16473.666667 -718.000000 16767.333333 -718.000000 17061.000000 -718.000000 C 17061.000000 -699.333333 17061.000000 -680.666667 17061.000000 -662.000000 C 16767.333333 -662.000000 16473.666667 -662.000000 16180.000000 -662.000000 C 16180.000000 -680.666667 16180.000000 -699.333333 16180.000000 -718.000000z M 16585.000000 -1473.000000 C 16603.666667 -1473.000000 16622.333333 -1473.000000 16641.000000 -1473.000000 C 16641.000000 -1213.000000 16641.000000 -953.000000 16641.000000 -693.000000 C 16622.333333 -693.000000 16603.666667 -693.000000 16585.000000 -693.000000 C 16585.000000 -953.000000 16585.000000 -1213.000000 16585.000000 -1473.000000z M 15452.000000 -538.000000 C 15500.666667 -553.333333 15556.666667 -571.000000 15620.000000 -591.000000 C 15683.333333 -611.666667 15750.333333 -633.666667 15821.000000 -657.000000 C 15892.333333 -681.000000 15964.666667 -704.666667 16038.000000 -728.000000 C 16041.000000 -709.333333 16044.000000 -690.666667 16047.000000 -672.000000 C 15946.333333 -638.666667 15846.000000 -605.000000 15746.000000 -571.000000 C 15646.000000 -537.000000 15557.000000 -506.666667 15479.000000 -480.000000 C 15470.000000 -499.333333 15461.000000 -518.666667 15452.000000 -538.000000z M 15481.000000 -1181.000000 C 15659.000000 -1181.000000 15837.000000 -1181.000000 16015.000000 -1181.000000 C 16015.000000 -1161.666667 16015.000000 -1142.333333 16015.000000 -1123.000000 C 15837.000000 -1123.000000 15659.000000 -1123.000000 15481.000000 -1123.000000 C 15481.000000 -1142.333333 15481.000000 -1161.666667 15481.000000 -1181.000000z M 15736.000000 -1594.000000 C 15755.333333 -1594.000000 15774.666667 -1594.000000 15794.000000 -1594.000000 C 15794.000000 -1047.333333 15794.000000 -500.666667 15794.000000 46.000000 C 15794.000000 70.666667 15789.666667 88.666667 15781.000000 100.000000 C 15773.000000 111.333333 15760.666667 119.666667 15744.000000 125.000000 C 15727.333333 129.666667 15703.666667 132.666667 15673.000000 134.000000 C 15642.333333 135.333333 15600.666667 135.333333 15548.000000 134.000000 C 15546.666667 128.000000 15543.666667 119.333333 15539.000000 108.000000 C 15535.000000 97.333333 15530.333333 88.333333 15525.000000 81.000000 C 15569.666667 82.333333 15608.333333 83.000000 15641.000000 83.000000 C 15673.666667 83.000000 15695.333333 82.333333 15706.000000 81.000000 C 15726.000000 81.000000 15736.000000 70.000000 15736.000000 48.000000 C 15736.000000 -499.333333 15736.000000 -1046.666667 15736.000000 -1594.000000z "/>
</g>
<g><path d="M 18503.000000 -851.000000 C 18524.000000 -843.666667 18545.000000 -836.333333 18566.000000 -829.000000 C 18544.666667 -763.000000 18520.666667 -692.000000 18494.000000 -616.000000 C 18468.000000 -540.666667 18441.000000 -464.333333 18413.000000 -387.000000 C 18385.000000 -309.666667 18356.666667 -235.666667 18328.000000 -165.000000 C 18300.000000 -95.000000 18273.333333 -32.333333 18248.000000 23.000000 C 18230.666667 16.000000 18213.333333 9.000000 18196.000000 2.000000 C 18221.333333 -53.333333 18248.333333 -116.333333 18277.000000 -187.000000 C 18306.333333 -258.333333 18334.666667 -332.666667 18362.000000 -410.000000 C 18389.333333 -487.333333 18415.000000 -564.000000 18439.000000 -640.000000 C 18463.666667 -716.666667 18485.000000 -787.000000 18503.000000 -851.000000z M 18010.000000 -10.000000 C 18089.333333 -13.333333 18183.000000 -18.000000 18291.000000 -24.000000 C 18399.000000 -30.000000 18515.333333 -36.666667 18640.000000 -44.000000 C 18765.333333 -52.000000 18891.333333 -59.000000 19018.000000 -65.000000 C 19017.333333 -47.333333 19016.666667 -29.666667 19016.000000 -12.000000 C 18895.333333 -4.000000 18774.000000 3.666667 18652.000000 11.000000 C 18530.666667 19.000000 18416.000000 26.000000 18308.000000 32.000000 C 18200.000000 38.666667 18104.333333 44.666667 18021.000000 50.000000 C 18017.333333 30.000000 18013.666667 10.000000 18010.000000 -10.000000z M 18718.000000 -465.000000 C 18733.333333 -472.666667 18748.666667 -480.333333 18764.000000 -488.000000 C 18811.333333 -425.333333 18858.666667 -357.333333 18906.000000 -284.000000 C 18953.333333 -211.333333 18996.000000 -140.333333 19034.000000 -71.000000 C 19072.666667 -1.666667 19103.000000 59.000000 19125.000000 111.000000 C 19107.666667 120.000000 19090.333333 129.000000 19073.000000 138.000000 C 19053.000000 86.000000 19023.666667 25.000000 18985.000000 -45.000000 C 18946.333333 -115.000000 18904.000000 -186.666667 18858.000000 -260.000000 C 18812.000000 -334.000000 18765.333333 -402.333333 18718.000000 -465.000000z M 18374.000000 -1565.000000 C 18393.333333 -1561.000000 18412.666667 -1557.000000 18432.000000 -1553.000000 C 18408.000000 -1452.333333 18378.666667 -1355.666667 18344.000000 -1263.000000 C 18309.333333 -1171.000000 18270.000000 -1086.000000 18226.000000 -1008.000000 C 18182.666667 -930.000000 18135.000000 -860.333333 18083.000000 -799.000000 C 18079.000000 -802.333333 18073.666667 -806.000000 18067.000000 -810.000000 C 18061.000000 -814.000000 18054.666667 -818.000000 18048.000000 -822.000000 C 18041.333333 -826.000000 18035.000000 -829.000000 18029.000000 -831.000000 C 18083.666667 -890.333333 18132.666667 -958.333333 18176.000000 -1035.000000 C 18220.000000 -1111.666667 18258.666667 -1194.666667 18292.000000 -1284.000000 C 18325.333333 -1374.000000 18352.666667 -1467.666667 18374.000000 -1565.000000z M 18774.000000 -1567.000000 C 18800.666667 -1477.000000 18833.333333 -1385.333333 18872.000000 -1292.000000 C 18911.333333 -1198.666667 18953.000000 -1112.333333 18997.000000 -1033.000000 C 19041.666667 -953.666667 19084.333333 -889.000000 19125.000000 -839.000000 C 19119.666667 -836.333333 19114.000000 -832.333333 19108.000000 -827.000000 C 19102.666667 -822.333333 19097.000000 -817.000000 19091.000000 -811.000000 C 19085.666667 -805.666667 19080.333333 -800.333333 19075.000000 -795.000000 C 19034.333333 -849.000000 18992.000000 -917.666667 18948.000000 -1001.000000 C 18904.666667 -1085.000000 18863.333333 -1174.666667 18824.000000 -1270.000000 C 18785.333333 -1365.333333 18752.000000 -1458.000000 18724.000000 -1548.000000 C 18740.666667 -1554.333333 18757.333333 -1560.666667 18774.000000 -1567.000000z M 17393.000000 -1167.000000 C 17614.000000 -1167.000000 17835.000000 -1167.000000 18056.000000 -1167.000000 C 18056.000000 -1148.000000 18056.000000 -1129.000000 18056.000000 -1110.000000 C 17835.000000 -1110.000000 17614.000000 -1110.000000 17393.000000 -1110.000000 C 17393.000000 -1129.000000 17393.000000 -1148.000000 17393.000000 -1167.000000z M 17716.000000 -1596.000000 C 17734.666667 -1596.000000 17753.333333 -1596.000000 17772.000000 -1596.000000 C 17772.000000 -1020.333333 17772.000000 -444.666667 17772.000000 131.000000 C 17753.333333 131.000000 17734.666667 131.000000 17716.000000 131.000000 C 17716.000000 -444.666667 17716.000000 -1020.333333 17716.000000 -1596.000000z M 17710.000000 -1144.000000 C 17726.666667 -1139.000000 17743.333333 -1134.000000 17760.000000 -1129.000000 C 17743.333333 -1052.333333 17721.000000 -972.333333 17693.000000 -889.000000 C 17665.666667 -805.666667 17635.666667 -724.333333 17603.000000 -645.000000 C 17571.000000 -565.666667 17536.666667 -492.000000 17500.000000 -424.000000 C 17463.333333 -356.666667 17427.000000 -299.333333 17391.000000 -252.000000 C 17386.333333 -258.000000 17379.666667 -265.333333 17371.000000 -274.000000 C 17363.000000 -283.333333 17355.000000 -290.666667 17347.000000 -296.000000 C 17383.000000 -340.666667 17418.666667 -395.333333 17454.000000 -460.000000 C 17490.000000 -524.666667 17524.333333 -595.333333 17557.000000 -672.000000 C 17589.666667 -748.666667 17619.000000 -827.333333 17645.000000 -908.000000 C 17671.666667 -988.666667 17693.333333 -1067.333333 17710.000000 -1144.000000z M 17762.000000 -891.000000 C 17774.666667 -878.333333 17794.333333 -856.333333 17821.000000 -825.000000 C 17848.333333 -793.666667 17877.666667 -759.666667 17909.000000 -723.000000 C 17940.333333 -686.333333 17968.666667 -652.333333 17994.000000 -621.000000 C 18020.000000 -589.666667 18038.000000 -567.000000 18048.000000 -553.000000 C 18032.000000 -536.333333 18016.000000 -519.666667 18000.000000 -503.000000 C 17988.666667 -522.333333 17970.333333 -548.666667 17945.000000 -582.000000 C 17920.333333 -615.333333 17893.333333 -650.000000 17864.000000 -686.000000 C 17835.333333 -722.666667 17808.333333 -756.666667 17783.000000 -788.000000 C 17757.666667 -819.333333 17738.000000 -842.666667 17724.000000 -858.000000 C 17736.666667 -869.000000 17749.333333 -880.000000 17762.000000 -891.000000z "/>
</g>
</svg>
