<?xml version="1.0" ?>
<svg xmlns="http://www.w3.org/2000/svg" version="1.1" width="600" height="600">
  <defs/>
  <g>
    <path stroke-width="0" fill="rgb(0, 0, 0)" opacity="1.0" d="M 230.95166015625 266.5810852050781 C 312.84033203125 266.5810852050781 394.7294921875 266.5810852050781 476.6181640625 266.5810852050781 C 476.6181640625 270.5 476.6181640625 274.4189453125 476.6181640625 278.33782958984375 C 394.7294921875 278.33782958984375 312.84033203125 278.33782958984375 230.95166015625 278.33782958984375 C 230.95166015625 274.4189453125 230.95166015625 270.5 230.95166015625 266.5810852050781M 343.85302734375 125.29730224609375 C 347.63623046875 125.29730224609375 351.42041015625 125.29730224609375 355.20361328125 125.29730224609375 C 355.20361328125 241.91891479492188 355.20361328125 358.54052734375 355.20361328125 475.16217041015625 C 351.42041015625 475.16217041015625 347.63623046875 475.16217041015625 343.85302734375 475.16217041015625 C 343.85302734375 358.54052734375 343.85302734375 241.91891479492188 343.85302734375 125.29730224609375M 144.1982421875 137.45947265625 C 146.42822265625 134.75674438476562 148.65771484375 132.0540771484375 150.88720703125 129.35134887695312 C 159.6708984375 133.1351318359375 168.724609375 137.59457397460938 178.04833984375 142.729736328125 C 187.37255859375 147.729736328125 196.22314453125 152.729736328125 204.6015625 157.729736328125 C 213.11474609375 162.5946044921875 220.07373046875 167.12164306640625 225.47900390625 171.31082153320312 C 223.31689453125 174.68917846679688 221.15478515625 178.06756591796875 218.99267578125 181.44595336914062 C 213.4521484375 177.25677490234375 206.4931640625 172.52703857421875 198.115234375 167.25674438476562 C 189.73681640625 161.85134887695312 180.818359375 156.58108520507812 171.359375 151.44595336914062 C 162.03564453125 146.310791015625 152.98193359375 141.64865112304688 144.1982421875 137.45947265625M 125.14501953125 244.08108520507812 C 127.23974609375 240.97296142578125 129.333984375 237.8648681640625 131.4287109375 234.75677490234375 C 140.2119140625 237.8648681640625 149.46826171875 241.58108520507812 159.19775390625 245.9053955078125 C 168.92724609375 250.0946044921875 178.1162109375 254.28378295898438 186.76416015625 258.47296142578125 C 195.5478515625 262.66217041015625 202.77734375 266.5810852050781 208.45263671875 270.229736328125 C 206.62841796875 273.8108215332031 204.80419921875 277.39190673828125 202.97998046875 280.97296142578125 C 197.0341796875 277.3243408203125 189.669921875 273.33782958984375 180.88623046875 269.0135192871094 C 172.23779296875 264.5540771484375 163.048828125 260.16217041015625 153.31982421875 255.83782958984375 C 143.59033203125 251.37838745117188 134.19873046875 247.45947265625 125.14501953125 244.08108520507812M 137.7119140625 461.5810546875 C 144.603515625 451.4459228515625 152.44091796875 439.2161865234375 161.224609375 424.89190673828125 C 170.14306640625 410.43243408203125 178.994140625 395.229736328125 187.77783203125 379.2838134765625 C 196.5615234375 363.33782958984375 204.6015625 348.1351318359375 211.8984375 333.6756591796875 C 214.66845703125 336.10809326171875 217.43896484375 338.54052734375 220.208984375 340.97296142578125 C 213.4521484375 354.75677490234375 205.8173828125 369.4189453125 197.30419921875 384.95947265625 C 188.92626953125 400.5 180.345703125 415.6351318359375 171.56201171875 430.3648681640625 C 162.9140625 444.95947265625 154.87353515625 458.1351318359375 147.44140625 469.89190673828125 C 144.1982421875 467.12158203125 140.955078125 464.351318359375 137.7119140625 461.5810546875"/>
  </g>
</svg>
