<?xml version="1.0" encoding="utf-8"?>
<svg xmlns="http://www.w3.org/2000/svg" xmlns:ev="http://www.w3.org/2001/xml-events" xmlns:xlink="http://www.w3.org/1999/xlink" version="1.1" baseProfile="full" width="15230.0" height="1737.3" viewBox="90.0 -1596.0 15230.0 1737.3">
<defs/>
<g><path d="M 355.000000 -1465.000000 C 753.666667 -1465.000000 1152.333333 -1465.000000 1551.000000 -1465.000000 C 1551.000000 -1445.666667 1551.000000 -1426.333333 1551.000000 -1407.000000 C 1152.333333 -1407.000000 753.666667 -1407.000000 355.000000 -1407.000000 C 355.000000 -1426.333333 355.000000 -1445.666667 355.000000 -1465.000000z M 332.000000 -1465.000000 C 350.666667 -1465.000000 369.333333 -1465.000000 388.000000 -1465.000000 C 388.000000 -1275.000000 388.000000 -1085.000000 388.000000 -895.000000 C 388.000000 -818.333333 385.000000 -735.333333 379.000000 -646.000000 C 373.666667 -557.333333 362.333333 -467.000000 345.000000 -375.000000 C 327.666667 -283.666667 302.333333 -194.333333 269.000000 -107.000000 C 235.666667 -20.333333 190.666667 60.666667 134.000000 136.000000 C 132.000000 132.666667 128.333333 128.666667 123.000000 124.000000 C 117.666667 119.333333 112.000000 114.666667 106.000000 110.000000 C 100.666667 106.000000 95.333333 102.666667 90.000000 100.000000 C 145.333333 26.666667 189.000000 -51.666667 221.000000 -135.000000 C 253.000000 -219.000000 277.000000 -305.000000 293.000000 -393.000000 C 309.000000 -481.666667 319.333333 -568.333333 324.000000 -653.000000 C 329.333333 -738.333333 332.000000 -819.000000 332.000000 -895.000000 C 332.000000 -1085.000000 332.000000 -1275.000000 332.000000 -1465.000000z M 1528.000000 -1465.000000 C 1546.000000 -1465.000000 1564.000000 -1465.000000 1582.000000 -1465.000000 C 1583.333333 -1351.000000 1584.666667 -1234.000000 1586.000000 -1114.000000 C 1587.333333 -994.666667 1589.666667 -877.000000 1593.000000 -761.000000 C 1597.000000 -645.666667 1602.333333 -537.333333 1609.000000 -436.000000 C 1615.666667 -334.666667 1624.333333 -245.333333 1635.000000 -168.000000 C 1645.666667 -90.666667 1659.000000 -30.000000 1675.000000 14.000000 C 1691.000000 58.666667 1710.666667 81.000000 1734.000000 81.000000 C 1748.000000 81.000000 1758.333333 49.666667 1765.000000 -13.000000 C 1772.333333 -76.333333 1776.666667 -153.333333 1778.000000 -244.000000 C 1784.666667 -238.666667 1792.666667 -233.666667 1802.000000 -229.000000 C 1811.333333 -225.000000 1819.333333 -221.666667 1826.000000 -219.000000 C 1823.333333 -130.333333 1819.333333 -60.333333 1814.000000 -9.000000 C 1809.333333 41.666667 1800.000000 77.666667 1786.000000 99.000000 C 1772.666667 121.000000 1753.333333 132.666667 1728.000000 134.000000 C 1689.333333 134.000000 1658.000000 107.333333 1634.000000 54.000000 C 1610.666667 1.333333 1592.333333 -73.666667 1579.000000 -171.000000 C 1565.666667 -268.333333 1556.000000 -383.333333 1550.000000 -516.000000 C 1544.666667 -649.333333 1540.333333 -796.333333 1537.000000 -957.000000 C 1533.666667 -1117.666667 1530.666667 -1287.000000 1528.000000 -1465.000000z M 914.000000 -1194.000000 C 933.333333 -1194.000000 952.666667 -1194.000000 972.000000 -1194.000000 C 972.000000 -821.666667 972.000000 -449.333333 972.000000 -77.000000 C 952.666667 -77.000000 933.333333 -77.000000 914.000000 -77.000000 C 914.000000 -449.333333 914.000000 -821.666667 914.000000 -1194.000000z M 603.000000 -881.000000 C 603.000000 -754.333333 603.000000 -627.666667 603.000000 -501.000000 C 831.333333 -501.000000 1059.666667 -501.000000 1288.000000 -501.000000 C 1288.000000 -627.666667 1288.000000 -754.333333 1288.000000 -881.000000 C 1059.666667 -881.000000 831.333333 -881.000000 603.000000 -881.000000z M 545.000000 -937.000000 C 811.333333 -937.000000 1077.666667 -937.000000 1344.000000 -937.000000 C 1344.000000 -772.666667 1344.000000 -608.333333 1344.000000 -444.000000 C 1077.666667 -444.000000 811.333333 -444.000000 545.000000 -444.000000 C 545.000000 -608.333333 545.000000 -772.666667 545.000000 -937.000000z M 1327.000000 -1294.000000 C 1345.333333 -1280.000000 1363.666667 -1266.000000 1382.000000 -1252.000000 C 1310.666667 -1231.333333 1225.666667 -1213.000000 1127.000000 -1197.000000 C 1028.333333 -1181.000000 925.000000 -1167.333333 817.000000 -1156.000000 C 709.000000 -1144.666667 604.333333 -1135.000000 503.000000 -1127.000000 C 501.666667 -1133.666667 499.000000 -1141.666667 495.000000 -1151.000000 C 491.666667 -1160.333333 487.333333 -1168.333333 482.000000 -1175.000000 C 556.000000 -1181.666667 632.666667 -1188.666667 712.000000 -1196.000000 C 791.333333 -1204.000000 869.333333 -1213.000000 946.000000 -1223.000000 C 1023.333333 -1233.000000 1094.666667 -1244.000000 1160.000000 -1256.000000 C 1225.333333 -1268.666667 1281.000000 -1281.333333 1327.000000 -1294.000000z M 397.000000 -75.000000 C 476.333333 -79.000000 569.333333 -84.000000 676.000000 -90.000000 C 783.333333 -96.666667 898.333333 -104.000000 1021.000000 -112.000000 C 1144.333333 -120.666667 1268.666667 -128.666667 1394.000000 -136.000000 C 1393.333333 -117.666667 1392.666667 -99.333333 1392.000000 -81.000000 C 1270.666667 -73.000000 1149.666667 -65.000000 1029.000000 -57.000000 C 909.000000 -49.666667 795.000000 -42.333333 687.000000 -35.000000 C 579.666667 -28.333333 485.000000 -22.333333 403.000000 -17.000000 C 401.000000 -36.333333 399.000000 -55.666667 397.000000 -75.000000z M 1183.000000 -336.000000 C 1198.333333 -343.000000 1213.666667 -350.000000 1229.000000 -357.000000 C 1269.666667 -316.333333 1308.666667 -271.000000 1346.000000 -221.000000 C 1383.333333 -171.000000 1416.666667 -121.333333 1446.000000 -72.000000 C 1475.333333 -22.666667 1496.333333 22.333333 1509.000000 63.000000 C 1492.333333 71.333333 1475.666667 79.666667 1459.000000 88.000000 C 1445.000000 47.333333 1423.666667 2.333333 1395.000000 -47.000000 C 1366.333333 -96.333333 1333.666667 -146.333333 1297.000000 -197.000000 C 1260.333333 -247.666667 1222.333333 -294.000000 1183.000000 -336.000000z "/>
</g>
<g><path d="M 2367.000000 -1373.000000 C 2808.000000 -1373.000000 3249.000000 -1373.000000 3690.000000 -1373.000000 C 3690.000000 -1353.666667 3690.000000 -1334.333333 3690.000000 -1315.000000 C 3249.000000 -1315.000000 2808.000000 -1315.000000 2367.000000 -1315.000000 C 2367.000000 -1334.333333 2367.000000 -1353.666667 2367.000000 -1373.000000z M 2388.000000 -1104.000000 C 2758.000000 -1104.000000 3128.000000 -1104.000000 3498.000000 -1104.000000 C 3498.000000 -1085.333333 3498.000000 -1066.666667 3498.000000 -1048.000000 C 3128.000000 -1048.000000 2758.000000 -1048.000000 2388.000000 -1048.000000 C 2388.000000 -1066.666667 2388.000000 -1085.333333 2388.000000 -1104.000000z M 2175.000000 -837.000000 C 2577.000000 -837.000000 2979.000000 -837.000000 3381.000000 -837.000000 C 3381.000000 -818.333333 3381.000000 -799.666667 3381.000000 -781.000000 C 2979.000000 -781.000000 2577.000000 -781.000000 2175.000000 -781.000000 C 2175.000000 -799.666667 2175.000000 -818.333333 2175.000000 -837.000000z M 2440.000000 -1594.000000 C 2460.000000 -1589.333333 2480.000000 -1584.666667 2500.000000 -1580.000000 C 2452.666667 -1436.666667 2392.000000 -1303.666667 2318.000000 -1181.000000 C 2244.666667 -1059.000000 2163.333333 -955.333333 2074.000000 -870.000000 C 2071.333333 -874.000000 2066.666667 -878.333333 2060.000000 -883.000000 C 2054.000000 -888.333333 2047.333333 -893.333333 2040.000000 -898.000000 C 2032.666667 -903.333333 2026.666667 -907.333333 2022.000000 -910.000000 C 2112.666667 -992.000000 2194.000000 -1092.333333 2266.000000 -1211.000000 C 2338.666667 -1330.333333 2396.666667 -1458.000000 2440.000000 -1594.000000z M 2995.000000 -724.000000 C 3012.333333 -717.666667 3029.666667 -711.333333 3047.000000 -705.000000 C 2975.666667 -581.666667 2890.000000 -467.666667 2790.000000 -363.000000 C 2690.000000 -259.000000 2581.666667 -165.333333 2465.000000 -82.000000 C 2349.000000 0.666667 2227.333333 73.333333 2100.000000 136.000000 C 2098.000000 132.666667 2094.333333 128.000000 2089.000000 122.000000 C 2083.666667 116.000000 2078.000000 110.333333 2072.000000 105.000000 C 2066.666667 100.333333 2061.333333 96.000000 2056.000000 92.000000 C 2184.000000 33.333333 2306.666667 -36.666667 2424.000000 -118.000000 C 2541.333333 -199.333333 2648.666667 -291.000000 2746.000000 -393.000000 C 2844.000000 -495.666667 2927.000000 -606.000000 2995.000000 -724.000000z M 3350.000000 -837.000000 C 3368.666667 -837.000000 3387.333333 -837.000000 3406.000000 -837.000000 C 3408.666667 -703.666667 3412.666667 -581.000000 3418.000000 -469.000000 C 3424.000000 -357.000000 3434.666667 -260.000000 3450.000000 -178.000000 C 3465.333333 -96.666667 3487.000000 -33.333333 3515.000000 12.000000 C 3543.666667 58.000000 3580.333333 81.000000 3625.000000 81.000000 C 3648.333333 81.000000 3663.666667 54.333333 3671.000000 1.000000 C 3679.000000 -52.333333 3683.333333 -121.666667 3684.000000 -207.000000 C 3690.666667 -202.333333 3699.333333 -197.666667 3710.000000 -193.000000 C 3721.333333 -188.333333 3730.000000 -184.666667 3736.000000 -182.000000 C 3733.333333 -101.333333 3728.333333 -38.000000 3721.000000 8.000000 C 3714.333333 54.000000 3703.333333 86.000000 3688.000000 104.000000 C 3672.666667 122.666667 3650.333333 132.666667 3621.000000 134.000000 C 3563.666667 134.000000 3517.333333 111.666667 3482.000000 67.000000 C 3446.666667 22.333333 3420.000000 -42.000000 3402.000000 -126.000000 C 3384.000000 -210.000000 3371.333333 -311.666667 3364.000000 -431.000000 C 3357.333333 -551.000000 3352.666667 -686.333333 3350.000000 -837.000000z M 2266.000000 -593.000000 C 2279.333333 -604.666667 2292.666667 -616.333333 2306.000000 -628.000000 C 2385.333333 -584.666667 2465.333333 -536.000000 2546.000000 -482.000000 C 2626.666667 -428.000000 2704.666667 -372.333333 2780.000000 -315.000000 C 2855.333333 -258.333333 2924.666667 -201.666667 2988.000000 -145.000000 C 3052.000000 -89.000000 3105.000000 -36.333333 3147.000000 13.000000 C 3132.333333 26.666667 3117.666667 40.333333 3103.000000 54.000000 C 3060.333333 4.000000 3007.666667 -49.000000 2945.000000 -105.000000 C 2882.333333 -161.666667 2813.333333 -219.000000 2738.000000 -277.000000 C 2662.666667 -335.666667 2584.666667 -392.000000 2504.000000 -446.000000 C 2423.333333 -500.666667 2344.000000 -549.666667 2266.000000 -593.000000z "/>
</g>
<g><path d="M 4481.000000 -979.000000 C 4603.333333 -979.000000 4725.666667 -979.000000 4848.000000 -979.000000 C 4848.000000 -960.000000 4848.000000 -941.000000 4848.000000 -922.000000 C 4725.666667 -922.000000 4603.333333 -922.000000 4481.000000 -922.000000 C 4481.000000 -941.000000 4481.000000 -960.000000 4481.000000 -979.000000z M 4466.000000 -1594.000000 C 4484.666667 -1594.000000 4503.333333 -1594.000000 4522.000000 -1594.000000 C 4522.000000 -1078.666667 4522.000000 -563.333333 4522.000000 -48.000000 C 4503.333333 -44.000000 4484.666667 -40.000000 4466.000000 -36.000000 C 4466.000000 -555.333333 4466.000000 -1074.666667 4466.000000 -1594.000000z M 4115.000000 -1215.000000 C 4134.000000 -1215.000000 4153.000000 -1215.000000 4172.000000 -1215.000000 C 4172.000000 -806.666667 4172.000000 -398.333333 4172.000000 10.000000 C 4153.000000 13.000000 4134.000000 16.000000 4115.000000 19.000000 C 4115.000000 -392.333333 4115.000000 -803.666667 4115.000000 -1215.000000z M 3946.000000 31.000000 C 4020.000000 18.333333 4106.333333 3.000000 4205.000000 -15.000000 C 4303.666667 -33.000000 4409.000000 -52.333333 4521.000000 -73.000000 C 4633.000000 -93.666667 4746.000000 -114.666667 4860.000000 -136.000000 C 4861.000000 -115.666667 4862.000000 -95.333333 4863.000000 -75.000000 C 4754.333333 -55.666667 4645.000000 -35.666667 4535.000000 -15.000000 C 4425.000000 5.000000 4320.666667 24.333333 4222.000000 43.000000 C 4123.333333 61.666667 4035.666667 78.666667 3959.000000 94.000000 C 3954.666667 73.000000 3950.333333 52.000000 3946.000000 31.000000z M 5547.000000 -1171.000000 C 5565.000000 -1157.000000 5583.000000 -1143.000000 5601.000000 -1129.000000 C 5551.000000 -1088.333333 5493.333333 -1047.000000 5428.000000 -1005.000000 C 5362.666667 -963.666667 5293.666667 -923.000000 5221.000000 -883.000000 C 5149.000000 -843.666667 5077.666667 -806.000000 5007.000000 -770.000000 C 5005.000000 -776.666667 5001.333333 -784.000000 4996.000000 -792.000000 C 4990.666667 -800.000000 4985.333333 -807.333333 4980.000000 -814.000000 C 5049.333333 -848.666667 5119.333333 -886.333333 5190.000000 -927.000000 C 5261.333333 -968.333333 5328.333333 -1009.666667 5391.000000 -1051.000000 C 5453.666667 -1093.000000 5505.666667 -1133.000000 5547.000000 -1171.000000z M 4971.000000 -1594.000000 C 4992.000000 -1594.000000 5013.000000 -1594.000000 5034.000000 -1594.000000 C 5034.000000 -1103.666667 5034.000000 -613.333333 5034.000000 -123.000000 C 5034.000000 -75.666667 5041.000000 -44.000000 5055.000000 -28.000000 C 5069.000000 -12.000000 5101.666667 -4.000000 5153.000000 -4.000000 C 5165.000000 -4.000000 5186.666667 -4.000000 5218.000000 -4.000000 C 5249.333333 -4.000000 5284.000000 -4.000000 5322.000000 -4.000000 C 5360.666667 -4.000000 5397.000000 -4.000000 5431.000000 -4.000000 C 5465.000000 -4.000000 5489.666667 -4.000000 5505.000000 -4.000000 C 5538.333333 -4.000000 5563.000000 -14.000000 5579.000000 -34.000000 C 5595.000000 -54.666667 5606.000000 -91.666667 5612.000000 -145.000000 C 5618.666667 -198.333333 5623.333333 -274.000000 5626.000000 -372.000000 C 5636.000000 -364.666667 5646.000000 -358.666667 5656.000000 -354.000000 C 5666.666667 -350.000000 5676.333333 -346.666667 5685.000000 -344.000000 C 5681.000000 -244.000000 5674.333333 -165.000000 5665.000000 -107.000000 C 5656.333333 -49.666667 5640.000000 -9.333333 5616.000000 14.000000 C 5592.000000 38.000000 5555.000000 50.000000 5505.000000 50.000000 C 5495.666667 50.000000 5474.333333 50.000000 5441.000000 50.000000 C 5407.666667 50.000000 5370.333333 50.000000 5329.000000 50.000000 C 5287.666667 50.000000 5250.333333 50.000000 5217.000000 50.000000 C 5183.666667 50.000000 5163.000000 50.000000 5155.000000 50.000000 C 5107.666667 50.000000 5070.666667 45.333333 5044.000000 36.000000 C 5017.333333 27.333333 4998.333333 10.333333 4987.000000 -15.000000 C 4976.333333 -41.000000 4971.000000 -78.333333 4971.000000 -127.000000 C 4971.000000 -616.000000 4971.000000 -1105.000000 4971.000000 -1594.000000z "/>
</g>
<g><path d="M 6820.000000 -1596.000000 C 6838.666667 -1592.000000 6857.333333 -1588.000000 6876.000000 -1584.000000 C 6851.333333 -1480.000000 6820.666667 -1380.333333 6784.000000 -1285.000000 C 6748.000000 -1189.666667 6706.666667 -1101.333333 6660.000000 -1020.000000 C 6614.000000 -939.333333 6563.000000 -867.333333 6507.000000 -804.000000 C 6504.333333 -808.000000 6500.000000 -812.333333 6494.000000 -817.000000 C 6488.666667 -821.666667 6482.666667 -826.000000 6476.000000 -830.000000 C 6470.000000 -834.666667 6464.333333 -838.333333 6459.000000 -841.000000 C 6515.000000 -901.000000 6565.666667 -970.333333 6611.000000 -1049.000000 C 6657.000000 -1127.666667 6697.333333 -1213.333333 6732.000000 -1306.000000 C 6767.333333 -1399.333333 6796.666667 -1496.000000 6820.000000 -1596.000000z M 7500.000000 -1250.000000 C 7519.000000 -1250.000000 7538.000000 -1250.000000 7557.000000 -1250.000000 C 7557.000000 -1250.000000 7557.000000 -1247.000000 7557.000000 -1241.000000 C 7557.000000 -1235.666667 7557.000000 -1229.333333 7557.000000 -1222.000000 C 7557.000000 -1215.333333 7556.333333 -1210.000000 7555.000000 -1206.000000 C 7542.333333 -983.333333 7529.666667 -796.000000 7517.000000 -644.000000 C 7504.333333 -492.666667 7490.666667 -369.000000 7476.000000 -273.000000 C 7462.000000 -177.000000 7446.666667 -102.666667 7430.000000 -50.000000 C 7413.333333 2.666667 7395.000000 40.333333 7375.000000 63.000000 C 7358.333333 83.666667 7341.000000 97.000000 7323.000000 103.000000 C 7305.000000 109.666667 7282.666667 113.666667 7256.000000 115.000000 C 7231.333333 116.333333 7199.000000 116.333333 7159.000000 115.000000 C 7119.666667 113.666667 7079.000000 111.333333 7037.000000 108.000000 C 7035.666667 97.333333 7034.000000 86.666667 7032.000000 76.000000 C 7030.000000 65.333333 7026.000000 56.000000 7020.000000 48.000000 C 7070.666667 52.000000 7116.666667 54.666667 7158.000000 56.000000 C 7200.000000 57.333333 7230.000000 58.000000 7248.000000 58.000000 C 7266.000000 58.000000 7280.666667 56.333333 7292.000000 53.000000 C 7303.333333 49.666667 7314.333333 42.333333 7325.000000 31.000000 C 7343.000000 11.666667 7360.000000 -24.333333 7376.000000 -77.000000 C 7392.000000 -130.333333 7407.000000 -206.000000 7421.000000 -304.000000 C 7435.000000 -402.000000 7448.333333 -526.666667 7461.000000 -678.000000 C 7473.666667 -830.000000 7486.666667 -1015.000000 7500.000000 -1233.000000 C 7500.000000 -1238.666667 7500.000000 -1244.333333 7500.000000 -1250.000000z M 6735.000000 -1250.000000 C 6995.666667 -1250.000000 7256.333333 -1250.000000 7517.000000 -1250.000000 C 7517.000000 -1230.666667 7517.000000 -1211.333333 7517.000000 -1192.000000 C 7250.666667 -1192.000000 6984.333333 -1192.000000 6718.000000 -1192.000000 C 6723.666667 -1211.333333 6729.333333 -1230.666667 6735.000000 -1250.000000z M 6991.000000 -1235.000000 C 7008.333333 -1226.000000 7025.666667 -1217.000000 7043.000000 -1208.000000 C 7013.000000 -1091.333333 6972.333333 -973.666667 6921.000000 -855.000000 C 6870.333333 -737.000000 6811.666667 -628.000000 6745.000000 -528.000000 C 6678.333333 -428.000000 6606.666667 -346.666667 6530.000000 -284.000000 C 6523.333333 -290.666667 6515.333333 -297.333333 6506.000000 -304.000000 C 6497.333333 -311.333333 6488.666667 -317.666667 6480.000000 -323.000000 C 6536.000000 -367.666667 6590.333333 -423.333333 6643.000000 -490.000000 C 6695.666667 -557.333333 6744.000000 -632.000000 6788.000000 -714.000000 C 6832.000000 -796.000000 6871.333333 -881.333333 6906.000000 -970.000000 C 6940.666667 -1059.333333 6969.000000 -1147.666667 6991.000000 -1235.000000z M 7271.000000 -1235.000000 C 7289.000000 -1226.666667 7307.000000 -1218.333333 7325.000000 -1210.000000 C 7300.333333 -1076.666667 7267.333333 -944.666667 7226.000000 -814.000000 C 7185.333333 -683.333333 7137.333333 -559.333333 7082.000000 -442.000000 C 7027.333333 -325.333333 6965.333333 -219.333333 6896.000000 -124.000000 C 6827.333333 -28.666667 6751.333333 51.000000 6668.000000 115.000000 C 6662.000000 109.000000 6653.666667 102.000000 6643.000000 94.000000 C 6633.000000 86.666667 6622.666667 80.333333 6612.000000 75.000000 C 6695.333333 15.000000 6772.000000 -61.666667 6842.000000 -155.000000 C 6912.666667 -249.000000 6975.666667 -354.000000 7031.000000 -470.000000 C 7086.333333 -586.666667 7134.000000 -710.333333 7174.000000 -841.000000 C 7214.666667 -971.666667 7247.000000 -1103.000000 7271.000000 -1235.000000z M 5844.000000 -511.000000 C 5903.333333 -527.666667 5970.666667 -547.333333 6046.000000 -570.000000 C 6121.333333 -593.333333 6201.666667 -618.666667 6287.000000 -646.000000 C 6372.333333 -673.333333 6457.666667 -700.666667 6543.000000 -728.000000 C 6545.666667 -711.333333 6548.333333 -694.666667 6551.000000 -678.000000 C 6429.666667 -638.000000 6308.333333 -598.000000 6187.000000 -558.000000 C 6066.333333 -518.666667 5959.333333 -483.666667 5866.000000 -453.000000 C 5858.666667 -472.333333 5851.333333 -491.666667 5844.000000 -511.000000z M 6217.000000 -1592.000000 C 6236.333333 -1592.000000 6255.666667 -1592.000000 6275.000000 -1592.000000 C 6275.000000 -1016.666667 6275.000000 -441.333333 6275.000000 134.000000 C 6255.666667 134.000000 6236.333333 134.000000 6217.000000 134.000000 C 6217.000000 -441.333333 6217.000000 -1016.666667 6217.000000 -1592.000000z M 5994.000000 -1482.000000 C 6013.333333 -1479.666667 6032.666667 -1477.333333 6052.000000 -1475.000000 C 6041.333333 -1389.000000 6028.333333 -1304.666667 6013.000000 -1222.000000 C 5997.666667 -1139.333333 5980.333333 -1061.666667 5961.000000 -989.000000 C 5942.333333 -917.000000 5920.000000 -852.333333 5894.000000 -795.000000 C 5890.666667 -797.666667 5885.333333 -800.333333 5878.000000 -803.000000 C 5871.333333 -806.333333 5864.333333 -809.666667 5857.000000 -813.000000 C 5849.666667 -816.333333 5843.666667 -818.666667 5839.000000 -820.000000 C 5867.000000 -877.333333 5890.666667 -941.666667 5910.000000 -1013.000000 C 5929.333333 -1085.000000 5946.000000 -1161.000000 5960.000000 -1241.000000 C 5974.000000 -1321.000000 5985.333333 -1401.333333 5994.000000 -1482.000000z M 5967.000000 -1179.000000 C 6148.333333 -1179.000000 6329.666667 -1179.000000 6511.000000 -1179.000000 C 6511.000000 -1159.666667 6511.000000 -1140.333333 6511.000000 -1121.000000 C 6328.666667 -1121.000000 6146.333333 -1121.000000 5964.000000 -1121.000000 C 5965.000000 -1140.333333 5966.000000 -1159.666667 5967.000000 -1179.000000z "/>
</g>
<g><path d="M 8310.000000 -1386.000000 C 8711.333333 -1386.000000 9112.666667 -1386.000000 9514.000000 -1386.000000 C 9514.000000 -1367.666667 9514.000000 -1349.333333 9514.000000 -1331.000000 C 9112.666667 -1331.000000 8711.333333 -1331.000000 8310.000000 -1331.000000 C 8310.000000 -1349.333333 8310.000000 -1367.666667 8310.000000 -1386.000000z M 9291.000000 -1365.000000 C 9309.666667 -1365.000000 9328.333333 -1365.000000 9347.000000 -1365.000000 C 9347.000000 -906.666667 9347.000000 -448.333333 9347.000000 10.000000 C 9347.000000 45.333333 9340.666667 70.666667 9328.000000 86.000000 C 9316.000000 101.333333 9295.333333 112.333333 9266.000000 119.000000 C 9238.000000 124.333333 9192.333333 127.333333 9129.000000 128.000000 C 9065.666667 128.666667 8984.666667 129.000000 8886.000000 129.000000 C 8884.666667 119.666667 8881.666667 109.333333 8877.000000 98.000000 C 8872.333333 86.666667 8867.000000 75.666667 8861.000000 65.000000 C 8921.000000 66.333333 8976.666667 67.333333 9028.000000 68.000000 C 9079.333333 68.666667 9123.000000 68.666667 9159.000000 68.000000 C 9195.666667 67.333333 9221.666667 66.333333 9237.000000 65.000000 C 9259.000000 63.666667 9273.333333 59.333333 9280.000000 52.000000 C 9287.333333 45.333333 9291.000000 32.000000 9291.000000 12.000000 C 9291.000000 -447.000000 9291.000000 -906.000000 9291.000000 -1365.000000z M 8400.000000 -996.000000 C 8418.666667 -996.000000 8437.333333 -996.000000 8456.000000 -996.000000 C 8456.000000 -739.000000 8456.000000 -482.000000 8456.000000 -225.000000 C 8437.333333 -225.000000 8418.666667 -225.000000 8400.000000 -225.000000 C 8400.000000 -482.000000 8400.000000 -739.000000 8400.000000 -996.000000z M 8431.000000 -996.000000 C 8608.666667 -996.000000 8786.333333 -996.000000 8964.000000 -996.000000 C 8964.000000 -786.333333 8964.000000 -576.666667 8964.000000 -367.000000 C 8786.333333 -367.000000 8608.666667 -367.000000 8431.000000 -367.000000 C 8431.000000 -386.000000 8431.000000 -405.000000 8431.000000 -424.000000 C 8589.666667 -424.000000 8748.333333 -424.000000 8907.000000 -424.000000 C 8907.000000 -595.666667 8907.000000 -767.333333 8907.000000 -939.000000 C 8748.333333 -939.000000 8589.666667 -939.000000 8431.000000 -939.000000 C 8431.000000 -958.000000 8431.000000 -977.000000 8431.000000 -996.000000z M 8227.000000 -1588.000000 C 8245.666667 -1583.333333 8264.333333 -1578.666667 8283.000000 -1574.000000 C 8245.666667 -1468.000000 8202.666667 -1364.666667 8154.000000 -1264.000000 C 8105.333333 -1164.000000 8052.333333 -1069.333333 7995.000000 -980.000000 C 7938.333333 -891.333333 7879.333333 -811.000000 7818.000000 -739.000000 C 7815.333333 -743.000000 7811.333333 -747.666667 7806.000000 -753.000000 C 7801.333333 -759.000000 7796.333333 -765.000000 7791.000000 -771.000000 C 7786.333333 -777.666667 7781.333333 -782.333333 7776.000000 -785.000000 C 7837.333333 -851.666667 7895.666667 -927.666667 7951.000000 -1013.000000 C 8007.000000 -1099.000000 8058.333333 -1191.000000 8105.000000 -1289.000000 C 8151.666667 -1387.000000 8192.333333 -1486.666667 8227.000000 -1588.000000z M 8039.000000 -1125.000000 C 8057.000000 -1143.000000 8075.000000 -1161.000000 8093.000000 -1179.000000 C 8094.333333 -1178.333333 8095.666667 -1177.666667 8097.000000 -1177.000000 C 8097.000000 -740.000000 8097.000000 -303.000000 8097.000000 134.000000 C 8077.666667 134.000000 8058.333333 134.000000 8039.000000 134.000000 C 8039.000000 -285.666667 8039.000000 -705.333333 8039.000000 -1125.000000z "/>
</g>
<g><path d="M 9780.000000 -1165.000000 C 10304.333333 -1165.000000 10828.666667 -1165.000000 11353.000000 -1165.000000 C 11353.000000 -1041.000000 11353.000000 -917.000000 11353.000000 -793.000000 C 11333.666667 -793.000000 11314.333333 -793.000000 11295.000000 -793.000000 C 11295.000000 -898.000000 11295.000000 -1003.000000 11295.000000 -1108.000000 C 10809.333333 -1108.000000 10323.666667 -1108.000000 9838.000000 -1108.000000 C 9838.000000 -1003.000000 9838.000000 -898.000000 9838.000000 -793.000000 C 9818.666667 -793.000000 9799.333333 -793.000000 9780.000000 -793.000000 C 9780.000000 -917.000000 9780.000000 -1041.000000 9780.000000 -1165.000000z M 9867.000000 -712.000000 C 10302.000000 -712.000000 10737.000000 -712.000000 11172.000000 -712.000000 C 11172.000000 -693.000000 11172.000000 -674.000000 11172.000000 -655.000000 C 10737.000000 -655.000000 10302.000000 -655.000000 9867.000000 -655.000000 C 9867.000000 -674.000000 9867.000000 -693.000000 9867.000000 -712.000000z M 11157.000000 -712.000000 C 11175.666667 -712.000000 11194.333333 -712.000000 11213.000000 -712.000000 C 11213.000000 -712.000000 11213.000000 -709.666667 11213.000000 -705.000000 C 11213.000000 -701.000000 11213.000000 -695.666667 11213.000000 -689.000000 C 11213.000000 -683.000000 11213.000000 -678.000000 11213.000000 -674.000000 C 11203.666667 -498.666667 11194.000000 -358.000000 11184.000000 -252.000000 C 11174.000000 -146.666667 11162.000000 -66.666667 11148.000000 -12.000000 C 11134.666667 42.000000 11118.000000 79.333333 11098.000000 100.000000 C 11084.666667 115.333333 11068.666667 125.333333 11050.000000 130.000000 C 11032.000000 135.333333 11008.333333 138.666667 10979.000000 140.000000 C 10947.666667 141.333333 10902.000000 141.000000 10842.000000 139.000000 C 10782.000000 137.000000 10718.000000 133.666667 10650.000000 129.000000 C 10648.666667 119.666667 10646.333333 110.000000 10643.000000 100.000000 C 10640.333333 90.666667 10635.666667 81.666667 10629.000000 73.000000 C 10704.333333 79.666667 10774.000000 83.666667 10838.000000 85.000000 C 10902.000000 87.000000 10944.333333 88.000000 10965.000000 88.000000 C 10987.000000 88.000000 11004.666667 86.666667 11018.000000 84.000000 C 11031.333333 82.000000 11042.666667 76.333333 11052.000000 67.000000 C 11068.000000 50.333333 11082.333333 16.000000 11095.000000 -36.000000 C 11108.333333 -88.666667 11119.666667 -168.000000 11129.000000 -274.000000 C 11139.000000 -380.666667 11148.333333 -522.333333 11157.000000 -699.000000 C 11157.000000 -703.333333 11157.000000 -707.666667 11157.000000 -712.000000z M 10464.000000 -1023.000000 C 10483.333333 -1023.000000 10502.666667 -1023.000000 10522.000000 -1023.000000 C 10515.333333 -901.666667 10505.333333 -789.000000 10492.000000 -685.000000 C 10478.666667 -581.666667 10456.666667 -487.000000 10426.000000 -401.000000 C 10395.333333 -315.666667 10352.333333 -238.666667 10297.000000 -170.000000 C 10241.666667 -101.333333 10169.666667 -41.666667 10081.000000 9.000000 C 9993.000000 60.333333 9884.000000 102.666667 9754.000000 136.000000 C 9751.333333 131.333333 9747.666667 126.000000 9743.000000 120.000000 C 9738.333333 114.000000 9733.666667 108.000000 9729.000000 102.000000 C 9725.000000 96.666667 9721.000000 92.000000 9717.000000 88.000000 C 9845.000000 56.000000 9952.000000 16.000000 10038.000000 -32.000000 C 10124.666667 -80.000000 10195.000000 -136.666667 10249.000000 -202.000000 C 10303.000000 -268.000000 10344.333333 -342.333333 10373.000000 -425.000000 C 10401.666667 -507.666667 10422.666667 -599.000000 10436.000000 -699.000000 C 10449.333333 -799.000000 10458.666667 -907.000000 10464.000000 -1023.000000z M 11194.000000 -1571.000000 C 11211.000000 -1561.333333 11228.000000 -1551.666667 11245.000000 -1542.000000 C 11205.666667 -1478.000000 11160.333333 -1410.333333 11109.000000 -1339.000000 C 11057.666667 -1268.333333 11009.666667 -1207.333333 10965.000000 -1156.000000 C 10951.000000 -1165.666667 10937.000000 -1175.333333 10923.000000 -1185.000000 C 10952.333333 -1219.000000 10984.000000 -1258.666667 11018.000000 -1304.000000 C 11052.000000 -1350.000000 11084.333333 -1396.333333 11115.000000 -1443.000000 C 11145.666667 -1489.666667 11172.000000 -1532.333333 11194.000000 -1571.000000z M 9894.000000 -1526.000000 C 9910.000000 -1534.333333 9926.000000 -1542.666667 9942.000000 -1551.000000 C 9971.333333 -1519.000000 10000.000000 -1483.666667 10028.000000 -1445.000000 C 10056.000000 -1407.000000 10081.666667 -1369.333333 10105.000000 -1332.000000 C 10129.000000 -1295.333333 10147.666667 -1263.000000 10161.000000 -1235.000000 C 10145.000000 -1224.666667 10129.000000 -1214.333333 10113.000000 -1204.000000 C 10099.000000 -1233.333333 10080.333333 -1266.333333 10057.000000 -1303.000000 C 10033.666667 -1340.333333 10008.000000 -1378.666667 9980.000000 -1418.000000 C 9952.000000 -1458.000000 9923.333333 -1494.000000 9894.000000 -1526.000000z M 10416.000000 -1571.000000 C 10432.000000 -1576.000000 10448.000000 -1581.000000 10464.000000 -1586.000000 C 10497.333333 -1530.666667 10528.666667 -1470.666667 10558.000000 -1406.000000 C 10587.333333 -1341.333333 10606.666667 -1286.666667 10616.000000 -1242.000000 C 10599.333333 -1235.666667 10582.666667 -1229.333333 10566.000000 -1223.000000 C 10559.333333 -1253.666667 10548.333333 -1289.000000 10533.000000 -1329.000000 C 10517.666667 -1369.666667 10499.666667 -1411.000000 10479.000000 -1453.000000 C 10459.000000 -1495.666667 10438.000000 -1535.000000 10416.000000 -1571.000000z "/>
</g>
<g><path d="M 11735.000000 -1102.000000 C 11735.000000 -1008.666667 11735.000000 -915.333333 11735.000000 -822.000000 C 11966.666667 -822.000000 12198.333333 -822.000000 12430.000000 -822.000000 C 12430.000000 -915.333333 12430.000000 -1008.666667 12430.000000 -1102.000000 C 12198.333333 -1102.000000 11966.666667 -1102.000000 11735.000000 -1102.000000z M 11735.000000 -1436.000000 C 11735.000000 -1344.000000 11735.000000 -1252.000000 11735.000000 -1160.000000 C 11966.666667 -1160.000000 12198.333333 -1160.000000 12430.000000 -1160.000000 C 12430.000000 -1252.000000 12430.000000 -1344.000000 12430.000000 -1436.000000 C 12198.333333 -1436.000000 11966.666667 -1436.000000 11735.000000 -1436.000000z M 11679.000000 -1492.000000 C 11948.000000 -1492.000000 12217.000000 -1492.000000 12486.000000 -1492.000000 C 12486.000000 -1250.000000 12486.000000 -1008.000000 12486.000000 -766.000000 C 12217.000000 -766.000000 11948.000000 -766.000000 11679.000000 -766.000000 C 11679.000000 -1008.000000 11679.000000 -1250.000000 11679.000000 -1492.000000z M 11672.000000 -490.000000 C 11943.333333 -490.000000 12214.666667 -490.000000 12486.000000 -490.000000 C 12486.000000 -471.333333 12486.000000 -452.666667 12486.000000 -434.000000 C 12214.666667 -434.000000 11943.333333 -434.000000 11672.000000 -434.000000 C 11672.000000 -452.666667 11672.000000 -471.333333 11672.000000 -490.000000z M 11610.000000 -13.000000 C 11686.000000 -25.000000 11774.000000 -39.000000 11874.000000 -55.000000 C 11974.666667 -71.000000 12082.666667 -88.000000 12198.000000 -106.000000 C 12313.333333 -124.666667 12429.666667 -143.666667 12547.000000 -163.000000 C 12547.666667 -145.000000 12548.333333 -127.000000 12549.000000 -109.000000 C 12436.333333 -91.666667 12323.666667 -73.333333 12211.000000 -54.000000 C 12098.333333 -34.666667 11991.333333 -16.666667 11890.000000 0.000000 C 11789.333333 16.666667 11700.000000 31.333333 11622.000000 44.000000 C 11618.000000 25.000000 11614.000000 6.000000 11610.000000 -13.000000z M 12549.000000 -1486.000000 C 12794.666667 -1486.000000 13040.333333 -1486.000000 13286.000000 -1486.000000 C 13286.000000 -1467.333333 13286.000000 -1448.666667 13286.000000 -1430.000000 C 13040.333333 -1430.000000 12794.666667 -1430.000000 12549.000000 -1430.000000 C 12549.000000 -1448.666667 12549.000000 -1467.333333 12549.000000 -1486.000000z M 12526.000000 -881.000000 C 12788.333333 -881.000000 13050.666667 -881.000000 13313.000000 -881.000000 C 13313.000000 -862.000000 13313.000000 -843.000000 13313.000000 -824.000000 C 13050.666667 -824.000000 12788.333333 -824.000000 12526.000000 -824.000000 C 12526.000000 -843.000000 12526.000000 -862.000000 12526.000000 -881.000000z M 13269.000000 -1486.000000 C 13273.000000 -1486.000000 13277.000000 -1486.000000 13281.000000 -1486.000000 C 13284.666667 -1487.333333 13288.333333 -1488.666667 13292.000000 -1490.000000 C 13306.000000 -1481.666667 13320.000000 -1473.333333 13334.000000 -1465.000000 C 13300.666667 -1416.333333 13261.666667 -1367.333333 13217.000000 -1318.000000 C 13172.333333 -1268.666667 13126.000000 -1222.333333 13078.000000 -1179.000000 C 13030.000000 -1135.666667 12983.000000 -1097.333333 12937.000000 -1064.000000 C 12931.666667 -1070.000000 12925.333333 -1076.000000 12918.000000 -1082.000000 C 12911.333333 -1088.666667 12905.000000 -1094.000000 12899.000000 -1098.000000 C 12943.666667 -1128.666667 12989.000000 -1165.333333 13035.000000 -1208.000000 C 13081.000000 -1251.333333 13124.666667 -1296.000000 13166.000000 -1342.000000 C 13208.000000 -1388.000000 13242.333333 -1432.333333 13269.000000 -1475.000000 C 13269.000000 -1478.666667 13269.000000 -1482.333333 13269.000000 -1486.000000z M 12670.000000 -1235.000000 C 12683.333333 -1246.333333 12696.666667 -1257.666667 12710.000000 -1269.000000 C 12766.666667 -1237.000000 12823.000000 -1199.666667 12879.000000 -1157.000000 C 12935.666667 -1115.000000 12988.000000 -1072.000000 13036.000000 -1028.000000 C 13084.000000 -984.000000 13122.000000 -944.000000 13150.000000 -908.000000 C 13136.000000 -894.666667 13122.000000 -881.333333 13108.000000 -868.000000 C 13080.000000 -906.000000 13042.333333 -947.000000 12995.000000 -991.000000 C 12947.666667 -1035.666667 12895.666667 -1079.333333 12839.000000 -1122.000000 C 12783.000000 -1165.333333 12726.666667 -1203.000000 12670.000000 -1235.000000z M 13296.000000 -881.000000 C 13300.333333 -881.000000 13304.666667 -881.000000 13309.000000 -881.000000 C 13313.666667 -882.333333 13318.333333 -883.666667 13323.000000 -885.000000 C 13336.333333 -878.666667 13349.666667 -872.333333 13363.000000 -866.000000 C 13333.666667 -792.666667 13302.000000 -717.000000 13268.000000 -639.000000 C 13234.000000 -561.000000 13200.333333 -496.000000 13167.000000 -444.000000 C 13150.333333 -452.000000 13133.666667 -460.000000 13117.000000 -468.000000 C 13139.000000 -501.333333 13160.333333 -540.000000 13181.000000 -584.000000 C 13202.333333 -628.666667 13223.000000 -675.333333 13243.000000 -724.000000 C 13263.000000 -772.666667 13280.666667 -819.333333 13296.000000 -864.000000 C 13296.000000 -869.666667 13296.000000 -875.333333 13296.000000 -881.000000z M 12891.000000 -852.000000 C 12909.666667 -852.000000 12928.333333 -852.000000 12947.000000 -852.000000 C 12947.000000 -557.000000 12947.000000 -262.000000 12947.000000 33.000000 C 12947.000000 59.666667 12942.666667 79.333333 12934.000000 92.000000 C 12926.000000 104.666667 12911.000000 114.333333 12889.000000 121.000000 C 12865.666667 126.333333 12830.333333 129.333333 12783.000000 130.000000 C 12735.666667 130.666667 12675.000000 131.000000 12601.000000 131.000000 C 12599.666667 123.000000 12596.333333 113.333333 12591.000000 102.000000 C 12586.333333 91.333333 12580.666667 81.000000 12574.000000 71.000000 C 12646.000000 72.333333 12706.000000 73.333333 12754.000000 74.000000 C 12802.000000 74.666667 12834.333333 74.333333 12851.000000 73.000000 C 12867.666667 71.666667 12878.333333 68.000000 12883.000000 62.000000 C 12888.333333 56.666667 12891.000000 47.000000 12891.000000 33.000000 C 12891.000000 -262.000000 12891.000000 -557.000000 12891.000000 -852.000000z M 12056.000000 -1467.000000 C 12074.333333 -1467.000000 12092.666667 -1467.000000 12111.000000 -1467.000000 C 12111.000000 -1231.333333 12111.000000 -995.666667 12111.000000 -760.000000 C 12111.000000 -760.000000 12111.000000 -760.000000 12111.000000 -760.000000 C 12111.000000 -525.333333 12111.000000 -290.666667 12111.000000 -56.000000 C 12092.666667 -56.000000 12074.333333 -56.000000 12056.000000 -56.000000 C 12056.000000 -290.666667 12056.000000 -525.333333 12056.000000 -760.000000 C 12056.000000 -760.000000 12056.000000 -760.000000 12056.000000 -760.000000 C 12056.000000 -995.666667 12056.000000 -1231.333333 12056.000000 -1467.000000z "/>
</g>
<g><path d="M 13897.000000 -1286.000000 C 14067.333333 -1286.000000 14237.666667 -1286.000000 14408.000000 -1286.000000 C 14408.000000 -1267.666667 14408.000000 -1249.333333 14408.000000 -1231.000000 C 14237.666667 -1231.000000 14067.333333 -1231.000000 13897.000000 -1231.000000 C 13897.000000 -1249.333333 13897.000000 -1267.666667 13897.000000 -1286.000000z M 14771.000000 -1596.000000 C 14789.333333 -1596.000000 14807.666667 -1596.000000 14826.000000 -1596.000000 C 14826.000000 -1020.333333 14826.000000 -444.666667 14826.000000 131.000000 C 14807.666667 131.000000 14789.333333 131.000000 14771.000000 131.000000 C 14771.000000 -444.666667 14771.000000 -1020.333333 14771.000000 -1596.000000z M 13690.000000 -891.000000 C 13702.000000 -903.000000 13714.000000 -915.000000 13726.000000 -927.000000 C 13786.000000 -895.000000 13847.000000 -858.333333 13909.000000 -817.000000 C 13971.666667 -775.666667 14030.000000 -734.000000 14084.000000 -692.000000 C 14138.666667 -650.666667 14182.666667 -612.000000 14216.000000 -576.000000 C 14203.000000 -562.000000 14190.000000 -548.000000 14177.000000 -534.000000 C 14143.666667 -568.666667 14100.000000 -607.333333 14046.000000 -650.000000 C 13992.666667 -692.666667 13935.000000 -735.000000 13873.000000 -777.000000 C 13811.000000 -819.666667 13750.000000 -857.666667 13690.000000 -891.000000z M 13985.000000 -1596.000000 C 14004.333333 -1592.000000 14023.666667 -1588.000000 14043.000000 -1584.000000 C 14009.666667 -1462.666667 13969.000000 -1347.333333 13921.000000 -1238.000000 C 13873.000000 -1129.333333 13819.000000 -1029.333333 13759.000000 -938.000000 C 13699.666667 -846.666667 13634.333333 -765.666667 13563.000000 -695.000000 C 13560.333333 -699.000000 13555.666667 -703.000000 13549.000000 -707.000000 C 13543.000000 -711.666667 13536.666667 -716.333333 13530.000000 -721.000000 C 13524.000000 -725.666667 13517.666667 -729.333333 13511.000000 -732.000000 C 13583.666667 -799.333333 13649.666667 -877.666667 13709.000000 -967.000000 C 13769.000000 -1057.000000 13822.000000 -1155.333333 13868.000000 -1262.000000 C 13914.000000 -1369.333333 13953.000000 -1480.666667 13985.000000 -1596.000000z M 14494.000000 -1150.000000 C 14538.666667 -1069.333333 14592.000000 -990.333333 14654.000000 -913.000000 C 14716.666667 -835.666667 14784.666667 -762.000000 14858.000000 -692.000000 C 14931.333333 -622.666667 15007.333333 -560.333333 15086.000000 -505.000000 C 15164.666667 -449.666667 15242.666667 -404.333333 15320.000000 -369.000000 C 15316.000000 -366.333333 15311.333333 -362.333333 15306.000000 -357.000000 C 15301.333333 -351.666667 15297.000000 -346.333333 15293.000000 -341.000000 C 15289.000000 -336.333333 15285.000000 -331.333333 15281.000000 -326.000000 C 15204.333333 -364.666667 15126.666667 -412.666667 15048.000000 -470.000000 C 14969.333333 -528.000000 14892.666667 -592.333333 14818.000000 -663.000000 C 14744.000000 -734.333333 14675.333333 -809.666667 14612.000000 -889.000000 C 14548.666667 -968.333333 14494.000000 -1048.333333 14448.000000 -1129.000000 C 14463.333333 -1136.000000 14478.666667 -1143.000000 14494.000000 -1150.000000z M 14388.000000 -1286.000000 C 14392.000000 -1286.000000 14396.000000 -1286.000000 14400.000000 -1286.000000 C 14404.333333 -1287.333333 14408.666667 -1288.666667 14413.000000 -1290.000000 C 14424.666667 -1285.666667 14436.333333 -1281.333333 14448.000000 -1277.000000 C 14409.333333 -1025.666667 14348.333333 -808.666667 14265.000000 -626.000000 C 14182.333333 -444.000000 14083.333333 -291.333333 13968.000000 -168.000000 C 13852.666667 -44.666667 13727.333333 55.000000 13592.000000 131.000000 C 13588.000000 125.666667 13583.000000 120.333333 13577.000000 115.000000 C 13571.666667 110.333333 13566.333333 105.333333 13561.000000 100.000000 C 13555.666667 94.666667 13550.666667 90.666667 13546.000000 88.000000 C 13682.666667 15.333333 13808.000000 -81.333333 13922.000000 -202.000000 C 14036.000000 -323.333333 14133.333333 -472.000000 14214.000000 -648.000000 C 14294.666667 -824.000000 14352.666667 -1031.666667 14388.000000 -1271.000000 C 14388.000000 -1276.000000 14388.000000 -1281.000000 14388.000000 -1286.000000z "/>
</g>
</svg>
