<?xml version="1.0" encoding="utf-8"?>
<svg xmlns="http://www.w3.org/2000/svg" xmlns:ev="http://www.w3.org/2001/xml-events" xmlns:xlink="http://www.w3.org/1999/xlink" version="1.1" baseProfile="full" width="14880.0" height="1739.0" viewBox="382.0 -1601.0 14880.0 1739.0">
<defs/>
<g><path d="M 13747.000000 -877.000000 C 13917.333333 -877.000000 14087.666667 -877.000000 14258.000000 -877.000000 C 14258.000000 -858.000000 14258.000000 -839.000000 14258.000000 -820.000000 C 14087.666667 -820.000000 13917.333333 -820.000000 13747.000000 -820.000000 C 13747.000000 -839.000000 13747.000000 -858.000000 13747.000000 -877.000000z M 14233.000000 -877.000000 C 14251.666667 -877.000000 14270.333333 -877.000000 14289.000000 -877.000000 C 14289.000000 -877.000000 14289.000000 -874.666667 14289.000000 -870.000000 C 14289.000000 -866.000000 14289.000000 -860.666667 14289.000000 -854.000000 C 14289.000000 -848.000000 14289.000000 -843.000000 14289.000000 -839.000000 C 14285.000000 -687.000000 14280.666667 -565.333333 14276.000000 -474.000000 C 14271.333333 -383.333333 14265.333333 -315.666667 14258.000000 -271.000000 C 14251.333333 -226.333333 14241.666667 -196.000000 14229.000000 -180.000000 C 14217.666667 -168.666667 14205.000000 -160.333333 14191.000000 -155.000000 C 14177.000000 -150.333333 14157.000000 -147.333333 14131.000000 -146.000000 C 14107.000000 -144.666667 14073.333333 -144.666667 14030.000000 -146.000000 C 13987.333333 -147.333333 13941.666667 -150.000000 13893.000000 -154.000000 C 13891.666667 -161.333333 13889.666667 -170.000000 13887.000000 -180.000000 C 13885.000000 -190.666667 13881.333333 -199.666667 13876.000000 -207.000000 C 13928.666667 -202.333333 13978.000000 -199.666667 14024.000000 -199.000000 C 14070.000000 -198.333333 14101.333333 -198.000000 14118.000000 -198.000000 C 14132.000000 -198.000000 14144.000000 -199.000000 14154.000000 -201.000000 C 14164.666667 -203.000000 14173.000000 -207.666667 14179.000000 -215.000000 C 14190.333333 -227.666667 14199.333333 -255.666667 14206.000000 -299.000000 C 14212.666667 -343.000000 14218.000000 -410.000000 14222.000000 -500.000000 C 14226.666667 -590.666667 14230.333333 -712.000000 14233.000000 -864.000000 C 14233.000000 -868.333333 14233.000000 -872.666667 14233.000000 -877.000000z M 14736.000000 -1523.000000 C 14747.666667 -1535.666667 14759.333333 -1548.333333 14771.000000 -1561.000000 C 14815.666667 -1539.000000 14862.000000 -1514.333333 14910.000000 -1487.000000 C 14958.000000 -1459.666667 15002.666667 -1432.000000 15044.000000 -1404.000000 C 15086.000000 -1376.666667 15120.333333 -1351.666667 15147.000000 -1329.000000 C 15136.000000 -1314.666667 15125.000000 -1300.333333 15114.000000 -1286.000000 C 15087.333333 -1309.333333 15052.666667 -1335.000000 15010.000000 -1363.000000 C 14968.000000 -1391.000000 14923.333333 -1419.000000 14876.000000 -1447.000000 C 14828.666667 -1475.666667 14782.000000 -1501.000000 14736.000000 -1523.000000z M 15060.000000 -975.000000 C 15078.666667 -970.000000 15097.333333 -965.000000 15116.000000 -960.000000 C 15032.666667 -709.333333 14918.666667 -495.000000 14774.000000 -317.000000 C 14629.333333 -139.000000 14456.000000 7.666667 14254.000000 123.000000 C 14251.333333 119.000000 14247.000000 114.000000 14241.000000 108.000000 C 14235.666667 102.666667 14230.333333 97.000000 14225.000000 91.000000 C 14220.333333 85.666667 14215.333333 81.000000 14210.000000 77.000000 C 14414.666667 -30.333333 14588.000000 -172.333333 14730.000000 -349.000000 C 14872.000000 -525.666667 14982.000000 -734.333333 15060.000000 -975.000000z M 13757.000000 -1231.000000 C 14254.333333 -1231.000000 14751.666667 -1231.000000 15249.000000 -1231.000000 C 15249.000000 -1212.333333 15249.000000 -1193.666667 15249.000000 -1175.000000 C 14751.666667 -1175.000000 14254.333333 -1175.000000 13757.000000 -1175.000000 C 13757.000000 -1193.666667 13757.000000 -1212.333333 13757.000000 -1231.000000z M 13724.000000 -1231.000000 C 13743.333333 -1231.000000 13762.666667 -1231.000000 13782.000000 -1231.000000 C 13782.000000 -1058.000000 13782.000000 -885.000000 13782.000000 -712.000000 C 13782.000000 -648.000000 13779.333333 -579.333333 13774.000000 -506.000000 C 13768.666667 -433.333333 13759.333333 -359.000000 13746.000000 -283.000000 C 13732.666667 -207.000000 13712.333333 -133.000000 13685.000000 -61.000000 C 13658.333333 10.333333 13622.666667 76.666667 13578.000000 138.000000 C 13575.333333 134.000000 13571.000000 129.666667 13565.000000 125.000000 C 13559.666667 121.000000 13554.000000 117.000000 13548.000000 113.000000 C 13542.666667 109.666667 13537.333333 106.666667 13532.000000 104.000000 C 13590.000000 23.333333 13632.333333 -64.333333 13659.000000 -159.000000 C 13685.666667 -253.666667 13703.000000 -349.000000 13711.000000 -445.000000 C 13719.666667 -541.000000 13724.000000 -630.666667 13724.000000 -714.000000 C 13724.000000 -886.333333 13724.000000 -1058.666667 13724.000000 -1231.000000z M 14540.000000 -1592.000000 C 14559.333333 -1592.000000 14578.666667 -1592.000000 14598.000000 -1592.000000 C 14599.333333 -1394.666667 14608.000000 -1211.000000 14624.000000 -1041.000000 C 14640.000000 -871.666667 14662.666667 -719.000000 14692.000000 -583.000000 C 14721.333333 -447.666667 14756.666667 -332.000000 14798.000000 -236.000000 C 14840.000000 -140.000000 14886.666667 -66.333333 14938.000000 -15.000000 C 14990.000000 35.666667 15046.333333 61.000000 15107.000000 61.000000 C 15139.666667 61.000000 15163.333333 33.000000 15178.000000 -23.000000 C 15193.333333 -79.666667 15203.333333 -175.000000 15208.000000 -309.000000 C 15214.666667 -303.666667 15223.333333 -298.333333 15234.000000 -293.000000 C 15245.333333 -288.333333 15254.666667 -284.666667 15262.000000 -282.000000 C 15256.666667 -182.000000 15249.000000 -102.666667 15239.000000 -44.000000 C 15229.000000 14.666667 15213.333333 56.666667 15192.000000 82.000000 C 15170.666667 108.000000 15141.000000 121.000000 15103.000000 121.000000 C 15042.333333 121.000000 14986.333333 101.000000 14935.000000 61.000000 C 14884.333333 21.666667 14838.333333 -34.666667 14797.000000 -108.000000 C 14756.333333 -182.000000 14720.333333 -270.333333 14689.000000 -373.000000 C 14657.666667 -476.333333 14631.000000 -591.666667 14609.000000 -719.000000 C 14587.666667 -846.333333 14571.000000 -983.666667 14559.000000 -1131.000000 C 14547.666667 -1278.333333 14541.333333 -1432.000000 14540.000000 -1592.000000z "/>
</g></svg>
