<?xml version="1.0" encoding="utf-8"?>
<svg xmlns="http://www.w3.org/2000/svg" xmlns:ev="http://www.w3.org/2001/xml-events" xmlns:xlink="http://www.w3.org/1999/xlink" version="1.1" baseProfile="full" width="17098.0" height="1737.3" viewBox="90.0 -1596.0 17098.0 1737.3">
<defs/>
<g><path d="M 13897.000000 -1286.000000 C 14067.333333 -1286.000000 14237.666667 -1286.000000 14408.000000 -1286.000000 C 14408.000000 -1267.666667 14408.000000 -1249.333333 14408.000000 -1231.000000 C 14237.666667 -1231.000000 14067.333333 -1231.000000 13897.000000 -1231.000000 C 13897.000000 -1249.333333 13897.000000 -1267.666667 13897.000000 -1286.000000z M 14771.000000 -1596.000000 C 14789.333333 -1596.000000 14807.666667 -1596.000000 14826.000000 -1596.000000 C 14826.000000 -1020.333333 14826.000000 -444.666667 14826.000000 131.000000 C 14807.666667 131.000000 14789.333333 131.000000 14771.000000 131.000000 C 14771.000000 -444.666667 14771.000000 -1020.333333 14771.000000 -1596.000000z M 13690.000000 -891.000000 C 13702.000000 -903.000000 13714.000000 -915.000000 13726.000000 -927.000000 C 13786.000000 -895.000000 13847.000000 -858.333333 13909.000000 -817.000000 C 13971.666667 -775.666667 14030.000000 -734.000000 14084.000000 -692.000000 C 14138.666667 -650.666667 14182.666667 -612.000000 14216.000000 -576.000000 C 14203.000000 -562.000000 14190.000000 -548.000000 14177.000000 -534.000000 C 14143.666667 -568.666667 14100.000000 -607.333333 14046.000000 -650.000000 C 13992.666667 -692.666667 13935.000000 -735.000000 13873.000000 -777.000000 C 13811.000000 -819.666667 13750.000000 -857.666667 13690.000000 -891.000000z M 13985.000000 -1596.000000 C 14004.333333 -1592.000000 14023.666667 -1588.000000 14043.000000 -1584.000000 C 14009.666667 -1462.666667 13969.000000 -1347.333333 13921.000000 -1238.000000 C 13873.000000 -1129.333333 13819.000000 -1029.333333 13759.000000 -938.000000 C 13699.666667 -846.666667 13634.333333 -765.666667 13563.000000 -695.000000 C 13560.333333 -699.000000 13555.666667 -703.000000 13549.000000 -707.000000 C 13543.000000 -711.666667 13536.666667 -716.333333 13530.000000 -721.000000 C 13524.000000 -725.666667 13517.666667 -729.333333 13511.000000 -732.000000 C 13583.666667 -799.333333 13649.666667 -877.666667 13709.000000 -967.000000 C 13769.000000 -1057.000000 13822.000000 -1155.333333 13868.000000 -1262.000000 C 13914.000000 -1369.333333 13953.000000 -1480.666667 13985.000000 -1596.000000z M 14494.000000 -1150.000000 C 14538.666667 -1069.333333 14592.000000 -990.333333 14654.000000 -913.000000 C 14716.666667 -835.666667 14784.666667 -762.000000 14858.000000 -692.000000 C 14931.333333 -622.666667 15007.333333 -560.333333 15086.000000 -505.000000 C 15164.666667 -449.666667 15242.666667 -404.333333 15320.000000 -369.000000 C 15316.000000 -366.333333 15311.333333 -362.333333 15306.000000 -357.000000 C 15301.333333 -351.666667 15297.000000 -346.333333 15293.000000 -341.000000 C 15289.000000 -336.333333 15285.000000 -331.333333 15281.000000 -326.000000 C 15204.333333 -364.666667 15126.666667 -412.666667 15048.000000 -470.000000 C 14969.333333 -528.000000 14892.666667 -592.333333 14818.000000 -663.000000 C 14744.000000 -734.333333 14675.333333 -809.666667 14612.000000 -889.000000 C 14548.666667 -968.333333 14494.000000 -1048.333333 14448.000000 -1129.000000 C 14463.333333 -1136.000000 14478.666667 -1143.000000 14494.000000 -1150.000000z M 14388.000000 -1286.000000 C 14392.000000 -1286.000000 14396.000000 -1286.000000 14400.000000 -1286.000000 C 14404.333333 -1287.333333 14408.666667 -1288.666667 14413.000000 -1290.000000 C 14424.666667 -1285.666667 14436.333333 -1281.333333 14448.000000 -1277.000000 C 14409.333333 -1025.666667 14348.333333 -808.666667 14265.000000 -626.000000 C 14182.333333 -444.000000 14083.333333 -291.333333 13968.000000 -168.000000 C 13852.666667 -44.666667 13727.333333 55.000000 13592.000000 131.000000 C 13588.000000 125.666667 13583.000000 120.333333 13577.000000 115.000000 C 13571.666667 110.333333 13566.333333 105.333333 13561.000000 100.000000 C 13555.666667 94.666667 13550.666667 90.666667 13546.000000 88.000000 C 13682.666667 15.333333 13808.000000 -81.333333 13922.000000 -202.000000 C 14036.000000 -323.333333 14133.333333 -472.000000 14214.000000 -648.000000 C 14294.666667 -824.000000 14352.666667 -1031.666667 14388.000000 -1271.000000 C 14388.000000 -1276.000000 14388.000000 -1281.000000 14388.000000 -1286.000000z "/>
</g></svg>
