<?xml version="1.0" ?>
<svg xmlns="http://www.w3.org/2000/svg" version="1.1" width="600" height="600">
  <defs/>
  <g>
    <path stroke-width="0" fill="rgb(0, 0, 0)" opacity="1.0" d="M 356.34033203125 275.3218078613281 C 360.69970703125 276.84429931640625 365.058837890625 278.3667907714844 369.418212890625 279.8892822265625 C 364.989501953125 293.5916748046875 360.007568359375 308.3321533203125 354.47216796875 324.1107177734375 C 349.074951171875 339.7508544921875 343.47021484375 355.5986328125 337.657958984375 371.65399169921875 C 331.845703125 387.7093505859375 325.964111328125 403.0726318359375 320.013427734375 417.74395751953125 C 314.201171875 432.27685546875 308.66552734375 445.2872314453125 303.406982421875 456.77508544921875 C 299.808837890625 455.32177734375 296.210693359375 453.8685302734375 292.612548828125 452.41522216796875 C 297.871337890625 440.9273681640625 303.47607421875 427.8477783203125 309.4267578125 413.176513671875 C 315.515869140625 398.3668212890625 321.397216796875 382.93426513671875 327.0712890625 366.87890625 C 332.745361328125 350.823486328125 338.0732421875 334.9066162109375 343.05517578125 319.1280517578125 C 348.17529296875 303.2110595703125 352.60400390625 288.6090087890625 356.34033203125 275.3218078613281M 254.002197265625 449.92388916015625 C 270.470458984375 449.2318115234375 289.9140625 448.262939453125 312.3330078125 447.017333984375 C 334.751708984375 445.7716064453125 358.900634765625 444.3875732421875 384.779296875 442.86505126953125 C 410.79638671875 441.20416259765625 436.95166015625 439.7508544921875 463.245361328125 438.50518798828125 C 463.107177734375 442.1729736328125 462.968505859375 445.8408203125 462.830322265625 449.5086669921875 C 437.781982421875 451.1695556640625 412.59521484375 452.76123046875 387.270263671875 454.28369140625 C 362.08349609375 455.94464111328125 338.28076171875 457.39794921875 315.86181640625 458.6435546875 C 293.44287109375 460.0277099609375 273.584228515625 461.2733154296875 256.28564453125 462.380615234375 C 255.5244140625 458.2283935546875 254.763427734375 454.07611083984375 254.002197265625 449.92388916015625M 400.970703125 355.460205078125 C 404.15380859375 353.8685302734375 407.33642578125 352.27685546875 410.51953125 350.68511962890625 C 420.34521484375 363.69549560546875 430.17041015625 377.8131103515625 439.99609375 393.0380859375 C 449.82177734375 408.12457275390625 458.678466796875 422.86505126953125 466.566650390625 437.259521484375 C 474.593017578125 451.65399169921875 480.889892578125 464.2491455078125 485.456787109375 475.04498291015625 C 481.8583984375 476.9134521484375 478.2607421875 478.781982421875 474.662353515625 480.6505126953125 C 470.5107421875 469.85467529296875 464.421630859375 457.1903076171875 456.395263671875 442.657470703125 C 448.368896484375 428.12457275390625 439.5810546875 413.24566650390625 430.0322265625 398.020751953125 C 420.4833984375 382.657470703125 410.79638671875 368.4705810546875 400.970703125 355.460205078125M 329.562255859375 127.08651733398438 C 333.57568359375 127.91696166992188 337.588623046875 128.74740600585938 341.60205078125 129.57785034179688 C 336.6201171875 150.47750854492188 330.53076171875 170.54672241210938 323.334716796875 189.78546142578125 C 316.138671875 208.88580322265625 307.9736328125 226.53286743164062 298.840087890625 242.72662353515625 C 289.844970703125 258.92041015625 279.949951171875 273.38409423828125 269.15576171875 286.1176452636719 C 268.325439453125 285.42559814453125 267.218505859375 284.66436767578125 265.83447265625 283.83392333984375 C 264.5888671875 283.00347900390625 263.2744140625 282.17303466796875 261.890380859375 281.3425598144531 C 260.50634765625 280.5121154785156 259.19189453125 279.8892822265625 257.9462890625 279.47406005859375 C 269.294189453125 267.15570068359375 279.4658203125 253.0380859375 288.4609375 237.12109375 C 297.594482421875 221.20416259765625 305.62109375 203.97235107421875 312.54052734375 185.42559814453125 C 319.4599609375 166.740478515625 325.1337890625 147.29412841796875 329.562255859375 127.08651733398438M 412.59521484375 126.67129516601562 C 418.130615234375 145.35641479492188 424.911865234375 164.38754272460938 432.938232421875 183.76470947265625 C 441.103515625 203.14187622070312 449.75244140625 221.06573486328125 458.88623046875 237.53631591796875 C 468.157958984375 254.00689697265625 477.01513671875 267.4325256347656 485.456787109375 277.81317138671875 C 484.349365234375 278.3667907714844 483.17333984375 279.1972351074219 481.927734375 280.30450439453125 C 480.820556640625 281.27337646484375 479.644287109375 282.380615234375 478.39892578125 283.62628173828125 C 477.291748046875 284.73358154296875 476.184814453125 285.8408203125 475.07763671875 286.9481201171875 C 466.635986328125 275.7370300292969 457.84814453125 261.48095703125 448.714599609375 244.179931640625 C 439.71923828125 226.740478515625 431.139404296875 208.12457275390625 422.974365234375 188.33218383789062 C 414.947998046875 168.539794921875 408.028564453125 149.30105590820312 402.216064453125 130.61590576171875 C 405.67578125 129.301025390625 409.1357421875 127.98617553710938 412.59521484375 126.67129516601562M 125.923828125 209.71624755859375 C 171.799560546875 209.71624755859375 217.67529296875 209.71624755859375 263.551025390625 209.71624755859375 C 263.551025390625 213.660888671875 263.551025390625 217.60552978515625 263.551025390625 221.5501708984375 C 217.67529296875 221.5501708984375 171.799560546875 221.5501708984375 125.923828125 221.5501708984375 C 125.923828125 217.60552978515625 125.923828125 213.660888671875 125.923828125 209.71624755859375M 192.972900390625 120.6505126953125 C 196.847900390625 120.6505126953125 200.72265625 120.6505126953125 204.59765625 120.6505126953125 C 204.59765625 240.16607666015625 204.59765625 359.681640625 204.59765625 479.197265625 C 200.72265625 479.197265625 196.847900390625 479.197265625 192.972900390625 479.197265625 C 192.972900390625 359.681640625 192.972900390625 240.16607666015625 192.972900390625 120.6505126953125M 191.7275390625 214.4913330078125 C 195.187255859375 215.5294189453125 198.646728515625 216.56747436523438 202.106689453125 217.60552978515625 C 198.646728515625 233.52249145507812 194.010986328125 250.13150024414062 188.198486328125 267.4325256347656 C 182.524658203125 284.73358154296875 176.29736328125 301.619384765625 169.51611328125 318.0899658203125 C 162.87353515625 334.560546875 155.74658203125 349.85467529296875 148.13525390625 363.9722900390625 C 140.523681640625 377.9515380859375 132.981689453125 389.85467529296875 125.5087890625 399.681640625 C 124.539794921875 398.43597412109375 123.15625 396.9134521484375 121.35693359375 395.11419677734375 C 119.6962890625 393.17645263671875 118.03564453125 391.65399169921875 116.375 390.5467529296875 C 123.847900390625 381.27337646484375 131.251953125 369.92388916015625 138.58642578125 356.498291015625 C 146.059326171875 343.0726318359375 153.186279296875 328.4013671875 159.96728515625 312.48443603515625 C 166.74853515625 296.5674743652344 172.83740234375 280.23529052734375 178.234619140625 263.4878845214844 C 183.770263671875 246.740478515625 188.267822265625 230.40829467773438 191.7275390625 214.4913330078125M 202.521728515625 267.0173034667969 C 205.151123046875 269.6470642089844 209.233642578125 274.21453857421875 214.76904296875 280.7197265625 C 220.443115234375 287.22491455078125 226.5322265625 294.28375244140625 233.036376953125 301.89617919921875 C 239.54052734375 309.5086669921875 245.422119140625 316.5675048828125 250.680908203125 323.0726318359375 C 256.078125 329.577880859375 259.814453125 334.28375244140625 261.890380859375 337.1903076171875 C 258.569091796875 340.6505126953125 255.247802734375 344.1107177734375 251.926513671875 347.5709228515625 C 249.573974609375 343.55712890625 245.76806640625 338.0899658203125 240.50927734375 331.1695556640625 C 235.388916015625 324.2491455078125 229.7841796875 317.0518798828125 223.6953125 309.577880859375 C 217.744384765625 301.96539306640625 212.1396484375 294.90655517578125 206.881103515625 288.4013671875 C 201.622314453125 281.89617919921875 197.539794921875 277.0518798828125 194.633544921875 273.8685302734375 C 197.26318359375 271.58477783203125 199.892333984375 269.301025390625 202.521728515625 267.0173034667969"/>
  </g>
</svg>
