<?xml version="1.0" ?>
<svg xmlns="http://www.w3.org/2000/svg" version="1.1" width="600" height="600">
  <defs/>
  <g>
    <path stroke-width="0" fill="rgb(0, 0, 0)" opacity="1.0" d="M 153.8331298828125 153.16317749023438 C 153.5296630859375 154.98480224609375 153.2261962890625 157.71725463867188 152.922607421875 161.36053466796875 C 152.619140625 165.0037841796875 152.3914794921875 168.95068359375 152.23974609375 173.20114135742188 C 152.088134765625 177.45159912109375 151.8604736328125 181.32257080078125 151.556884765625 184.81402587890625 C 151.4051513671875 193.466796875 151.329345703125 204.16888427734375 151.329345703125 216.9202880859375 C 151.48095703125 229.5198974609375 151.8604736328125 243.03036499023438 152.4674072265625 257.45159912109375 C 153.0743408203125 271.7210693359375 153.98486328125 285.53509521484375 155.1988525390625 298.89373779296875 C 158.0821533203125 326.5218505859375 163.0140380859375 350.658447265625 169.9945068359375 371.3035888671875 C 176.9749755859375 391.7969970703125 185.39697265625 407.66033935546875 195.2607421875 418.89373779296875 C 205.2762451171875 430.12713623046875 216.1263427734375 435.74383544921875 227.81103515625 435.74383544921875 C 233.57763671875 435.74383544921875 239.343994140625 433.466796875 245.1104736328125 428.9127197265625 C 251.0286865234375 424.358642578125 256.6434326171875 417.98291015625 261.9547119140625 409.78558349609375 C 267.417724609375 401.4364013671875 272.5013427734375 391.6451416015625 277.20556640625 380.4117431640625 C 282.0615234375 369.1783447265625 286.234619140625 357.0341796875 289.724853515625 343.9791259765625 C 293.3668212890625 347.01519775390625 297.0089111328125 350.05126953125 300.65087890625 353.0872802734375 C 292.7598876953125 376.9202880859375 284.6412353515625 395.8956298828125 276.2950439453125 410.0133056640625 C 268.1005859375 423.9791259765625 259.9061279296875 433.99810791015625 251.711669921875 440.0701904296875 C 243.51708984375 446.142333984375 235.3985595703125 449.1783447265625 227.3558349609375 449.1783447265625 C 215.974609375 449.1783447265625 204.5174560546875 444.3966064453125 192.9844970703125 434.8330078125 C 181.45166015625 425.2694091796875 171.2843017578125 409.6337890625 162.48291015625 387.926025390625 C 153.8331298828125 366.21820068359375 147.459716796875 337.14801025390625 143.3624267578125 300.7153625488281 C 142.1484375 288.72296142578125 141.162109375 275.36431884765625 140.4033203125 260.63946533203125 C 139.79638671875 245.91461181640625 139.341064453125 231.79693603515625 139.03759765625 218.28652954101562 C 138.7340087890625 204.624267578125 138.5823974609375 193.84628295898438 138.5823974609375 185.95254516601562 C 138.5823974609375 182.00567626953125 138.5064697265625 176.31307983398438 138.354736328125 168.874755859375 C 138.2030029296875 161.43643188476562 137.5201416015625 155.97152709960938 136.30615234375 152.48007202148438 C 142.1484375 152.707763671875 147.9908447265625 152.93548583984375 153.8331298828125 153.16317749023438M 390.3348388671875 167.73623657226562 C 397.6187744140625 177.90701293945312 404.5992431640625 189.06451416015625 411.2762451171875 201.208740234375 C 417.9532470703125 213.20111083984375 424.09912109375 226.1043701171875 429.7138671875 239.91839599609375 C 435.4803466796875 253.58062744140625 440.6397705078125 267.85009765625 445.1922607421875 282.72674560546875 C 449.896484375 297.6033935546875 453.842041015625 312.85955810546875 457.02880859375 328.4952392578125 C 460.3671875 343.9791259765625 462.87109375 359.91839599609375 464.5404052734375 376.3131103515625 C 460.2913818359375 378.21063232421875 456.0423583984375 380.108154296875 451.7933349609375 382.00567626953125 C 449.8206787109375 360.1461181640625 446.482177734375 339.27325439453125 441.7779541015625 319.3870849609375 C 437.2254638671875 299.34912109375 431.6107177734375 280.5256042480469 424.9337158203125 262.91650390625 C 418.4085693359375 245.15557861328125 411.12451171875 228.76092529296875 403.081787109375 213.732421875 C 395.1907958984375 198.55218505859375 386.8446044921875 184.9658203125 378.0430908203125 172.97341918945312 C 382.140380859375 171.22772216796875 386.237548828125 169.48196411132812 390.3348388671875 167.73623657226562"/>
  </g>
</svg>
