<?xml version="1.0" encoding="utf-8"?>
<svg xmlns="http://www.w3.org/2000/svg" xmlns:ev="http://www.w3.org/2001/xml-events" xmlns:xlink="http://www.w3.org/1999/xlink" version="1.1" baseProfile="full" width="34199.0" height="1607.0" viewBox="282.0 -1509.0 34199.0 1607.0">
<defs/>
<g><path d="M 20185.000000 -1476.000000 C 20183.666667 -1467.333333 20182.000000 -1453.000000 20180.000000 -1433.000000 C 20178.000000 -1413.666667 20176.333333 -1393.333333 20175.000000 -1372.000000 C 20173.666667 -1350.666667 20173.000000 -1333.000000 20173.000000 -1319.000000 C 20173.000000 -1278.333333 20173.000000 -1222.000000 20173.000000 -1150.000000 C 20173.000000 -1078.666667 20173.000000 -1004.333333 20173.000000 -927.000000 C 20173.000000 -876.333333 20174.333333 -817.666667 20177.000000 -751.000000 C 20179.666667 -684.333333 20182.333333 -616.000000 20185.000000 -546.000000 C 20187.666667 -476.666667 20190.000000 -410.666667 20192.000000 -348.000000 C 20194.666667 -286.000000 20196.000000 -233.333333 20196.000000 -190.000000 C 20196.000000 -154.000000 20189.666667 -121.000000 20177.000000 -91.000000 C 20164.333333 -61.000000 20145.333333 -34.666667 20120.000000 -12.000000 C 20095.333333 10.000000 20064.666667 27.333333 20028.000000 40.000000 C 19992.000000 53.333333 19950.333333 60.000000 19903.000000 60.000000 C 19818.333333 60.000000 19744.333333 51.000000 19681.000000 33.000000 C 19617.666667 15.000000 19568.666667 -13.000000 19534.000000 -51.000000 C 19499.333333 -89.000000 19482.000000 -137.333333 19482.000000 -196.000000 C 19482.000000 -244.666667 19497.000000 -289.333333 19527.000000 -330.000000 C 19557.000000 -371.333333 19604.666667 -404.333333 19670.000000 -429.000000 C 19735.333333 -454.333333 19820.000000 -467.000000 19924.000000 -467.000000 C 20013.333333 -467.000000 20100.000000 -456.666667 20184.000000 -436.000000 C 20268.000000 -415.333333 20347.666667 -387.666667 20423.000000 -353.000000 C 20498.333333 -318.333333 20568.000000 -279.666667 20632.000000 -237.000000 C 20696.000000 -194.333333 20752.333333 -151.333333 20801.000000 -108.000000 C 20789.000000 -88.000000 20777.000000 -68.000000 20765.000000 -48.000000 C 20717.666667 -96.666667 20662.333333 -142.666667 20599.000000 -186.000000 C 20535.666667 -230.000000 20467.000000 -268.666667 20393.000000 -302.000000 C 20319.666667 -336.000000 20243.000000 -362.666667 20163.000000 -382.000000 C 20083.000000 -401.333333 20002.666667 -411.000000 19922.000000 -411.000000 C 19798.000000 -411.000000 19703.000000 -391.000000 19637.000000 -351.000000 C 19571.000000 -311.666667 19538.000000 -260.000000 19538.000000 -196.000000 C 19538.000000 -137.333333 19567.666667 -89.000000 19627.000000 -51.000000 C 19686.333333 -13.000000 19775.000000 6.000000 19893.000000 6.000000 C 19972.333333 6.000000 20033.666667 -12.666667 20077.000000 -50.000000 C 20121.000000 -87.333333 20143.000000 -140.333333 20143.000000 -209.000000 C 20143.000000 -246.333333 20141.666667 -294.666667 20139.000000 -354.000000 C 20136.333333 -414.000000 20133.666667 -478.000000 20131.000000 -546.000000 C 20128.333333 -614.666667 20125.666667 -682.333333 20123.000000 -749.000000 C 20121.000000 -815.666667 20120.000000 -875.000000 20120.000000 -927.000000 C 20120.000000 -963.000000 20120.000000 -1006.333333 20120.000000 -1057.000000 C 20120.000000 -1107.666667 20120.000000 -1157.333333 20120.000000 -1206.000000 C 20120.000000 -1254.666667 20120.000000 -1292.333333 20120.000000 -1319.000000 C 20120.000000 -1334.333333 20119.333333 -1352.333333 20118.000000 -1373.000000 C 20116.666667 -1394.333333 20115.333333 -1415.000000 20114.000000 -1435.000000 C 20112.666667 -1455.000000 20110.666667 -1468.666667 20108.000000 -1476.000000 C 20133.666667 -1476.000000 20159.333333 -1476.000000 20185.000000 -1476.000000z M 20133.000000 -1069.000000 C 20170.333333 -1069.000000 20215.000000 -1069.666667 20267.000000 -1071.000000 C 20319.666667 -1072.333333 20375.333333 -1074.666667 20434.000000 -1078.000000 C 20493.333333 -1081.333333 20552.333333 -1085.333333 20611.000000 -1090.000000 C 20670.333333 -1095.333333 20724.666667 -1101.333333 20774.000000 -1108.000000 C 20774.666667 -1088.000000 20775.333333 -1068.000000 20776.000000 -1048.000000 C 20726.000000 -1043.333333 20672.000000 -1038.666667 20614.000000 -1034.000000 C 20556.000000 -1029.333333 20497.333333 -1025.333333 20438.000000 -1022.000000 C 20379.333333 -1019.333333 20323.333333 -1017.000000 20270.000000 -1015.000000 C 20217.333333 -1013.000000 20171.666667 -1012.000000 20133.000000 -1012.000000 C 20133.000000 -1031.000000 20133.000000 -1050.000000 20133.000000 -1069.000000z "/>
</g></svg>
