<?xml version="1.0" encoding="utf-8"?>
<svg xmlns="http://www.w3.org/2000/svg" xmlns:ev="http://www.w3.org/2001/xml-events" xmlns:xlink="http://www.w3.org/1999/xlink" version="1.1" baseProfile="full" width="20903.0" height="1740.0" viewBox="106.0 -1596.0 20903.0 1740.0">
<defs/>
<g><path d="M 5282.000000 -1500.000000 C 5298.666667 -1478.000000 5316.333333 -1451.666667 5335.000000 -1421.000000 C 5354.333333 -1390.333333 5373.666667 -1359.000000 5393.000000 -1327.000000 C 5412.333333 -1295.000000 5429.000000 -1264.666667 5443.000000 -1236.000000 C 5425.000000 -1227.333333 5407.000000 -1218.666667 5389.000000 -1210.000000 C 5371.666667 -1248.000000 5347.000000 -1292.666667 5315.000000 -1344.000000 C 5283.666667 -1395.333333 5255.333333 -1439.000000 5230.000000 -1475.000000 C 5247.333333 -1483.333333 5264.666667 -1491.666667 5282.000000 -1500.000000z M 5476.000000 -1567.000000 C 5494.000000 -1543.666667 5513.000000 -1516.333333 5533.000000 -1485.000000 C 5553.666667 -1453.666667 5574.000000 -1422.333333 5594.000000 -1391.000000 C 5614.000000 -1359.666667 5630.333333 -1331.333333 5643.000000 -1306.000000 C 5625.000000 -1297.000000 5607.000000 -1288.000000 5589.000000 -1279.000000 C 5567.000000 -1322.333333 5541.333333 -1368.000000 5512.000000 -1416.000000 C 5482.666667 -1464.000000 5454.000000 -1506.000000 5426.000000 -1542.000000 C 5442.666667 -1550.333333 5459.333333 -1558.666667 5476.000000 -1567.000000z M 5364.000000 -1158.000000 C 5359.333333 -1148.666667 5354.666667 -1136.666667 5350.000000 -1122.000000 C 5345.333333 -1107.333333 5342.000000 -1097.000000 5340.000000 -1091.000000 C 5323.333333 -1019.000000 5298.333333 -943.333333 5265.000000 -864.000000 C 5231.666667 -784.666667 5192.000000 -706.000000 5146.000000 -628.000000 C 5100.666667 -550.000000 5050.000000 -477.000000 4994.000000 -409.000000 C 4910.666667 -307.666667 4808.666667 -214.000000 4688.000000 -128.000000 C 4568.000000 -42.666667 4418.333333 31.333333 4239.000000 94.000000 C 4222.000000 77.333333 4205.000000 60.666667 4188.000000 44.000000 C 4292.666667 14.666667 4391.000000 -24.333333 4483.000000 -73.000000 C 4575.000000 -121.666667 4660.333333 -177.333333 4739.000000 -240.000000 C 4818.333333 -302.666667 4888.000000 -370.666667 4948.000000 -444.000000 C 5004.000000 -511.333333 5054.333333 -584.000000 5099.000000 -662.000000 C 5144.333333 -740.666667 5183.333333 -819.333333 5216.000000 -898.000000 C 5248.666667 -976.666667 5272.666667 -1050.333333 5288.000000 -1119.000000 C 5029.333333 -1119.000000 4770.666667 -1119.000000 4512.000000 -1119.000000 C 4523.666667 -1138.333333 4535.333333 -1157.666667 4547.000000 -1177.000000 C 4561.000000 -1177.000000 4591.000000 -1177.000000 4637.000000 -1177.000000 C 4683.000000 -1177.000000 4736.333333 -1177.000000 4797.000000 -1177.000000 C 4857.666667 -1177.000000 4918.333333 -1177.000000 4979.000000 -1177.000000 C 5040.333333 -1177.000000 5093.333333 -1177.000000 5138.000000 -1177.000000 C 5182.666667 -1177.000000 5210.666667 -1177.000000 5222.000000 -1177.000000 C 5244.000000 -1177.000000 5261.333333 -1178.000000 5274.000000 -1180.000000 C 5286.666667 -1182.000000 5297.666667 -1185.333333 5307.000000 -1190.000000 C 5326.000000 -1179.333333 5345.000000 -1168.666667 5364.000000 -1158.000000z M 4704.000000 -1434.000000 C 4695.333333 -1417.333333 4686.333333 -1399.333333 4677.000000 -1380.000000 C 4668.333333 -1361.333333 4660.000000 -1344.333333 4652.000000 -1329.000000 C 4620.000000 -1265.000000 4578.000000 -1193.333333 4526.000000 -1114.000000 C 4474.666667 -1034.666667 4409.333333 -954.000000 4330.000000 -872.000000 C 4251.333333 -790.000000 4155.333333 -711.666667 4042.000000 -637.000000 C 4024.666667 -650.000000 4007.333333 -663.000000 3990.000000 -676.000000 C 4072.000000 -723.333333 4146.000000 -776.666667 4212.000000 -836.000000 C 4278.666667 -895.333333 4337.666667 -956.333333 4389.000000 -1019.000000 C 4440.333333 -1082.333333 4483.666667 -1143.000000 4519.000000 -1201.000000 C 4554.333333 -1259.000000 4580.666667 -1310.666667 4598.000000 -1356.000000 C 4603.333333 -1366.000000 4609.333333 -1381.333333 4616.000000 -1402.000000 C 4623.333333 -1423.333333 4628.333333 -1442.333333 4631.000000 -1459.000000 C 4655.333333 -1450.666667 4679.666667 -1442.333333 4704.000000 -1434.000000z "/>
</g></svg>
