<?xml version="1.0" ?>
<svg xmlns="http://www.w3.org/2000/svg" version="1.1" width="600" height="600">
  <defs/>
  <g>
    <path stroke-width="0" fill="rgb(0, 0, 0)" opacity="1.0" d="M 375.6339111328125 151.99542236328125 C 377.835693359375 163.69265747070312 380.7254638671875 176.69723510742188 384.303466796875 191.0091552734375 C 388.0189208984375 205.1834716796875 392.972900390625 219.83944702148438 399.1654052734375 234.97705078125 C 405.495361328125 249.97705078125 413.4769287109375 264.7706298828125 423.109619140625 279.3577880859375 C 432.7423095703125 293.807373046875 444.71435546875 307.2247314453125 459.02587890625 319.610107421875 C 455.7921142578125 323.05047607421875 452.5582275390625 326.4908447265625 449.3243408203125 329.93115234375 C 434.5999755859375 314.656005859375 422.0086669921875 298.48626708984375 411.55029296875 281.4220275878906 C 401.0919189453125 264.3577880859375 392.0096435546875 245.57339477539062 384.303466796875 225.06881713867188 C 376.73486328125 204.42660522460938 369.64794921875 181.37615966796875 363.0426025390625 155.91741943359375 C 367.23974609375 154.61007690429688 371.436767578125 153.30276489257812 375.6339111328125 151.99542236328125M 141.145751953125 174.70184326171875 C 146.3748779296875 175.11468505859375 153.1177978515625 175.11468505859375 161.3743896484375 174.70184326171875 C 169.4935302734375 174.42660522460938 179.3326416015625 173.60092163085938 190.891845703125 172.22476196289062 C 202.5887451171875 170.8486328125 214.4232177734375 169.197265625 226.3953857421875 167.27066040039062 C 238.505126953125 165.34402465820312 249.582763671875 163.3486328125 259.6282958984375 161.28439331054688 C 269.673828125 159.08258056640625 277.1737060546875 156.94955444335938 282.127685546875 154.88531494140625 C 283.2972412109375 158.80734252929688 284.467041015625 162.7293701171875 285.63671875 166.6513671875 C 283.2972412109375 167.20184326171875 279.719482421875 168.02752685546875 274.903076171875 169.12844848632812 C 270.224365234375 170.09173583984375 266.4400634765625 171.12384033203125 263.5501708984375 172.22476196289062 C 259.009033203125 175.66513061523438 252.9542236328125 181.30734252929688 245.3856201171875 189.1513671875 C 237.9547119140625 196.8577880859375 230.0419921875 206.4908447265625 221.6478271484375 218.05047607421875 C 213.3912353515625 229.47247314453125 205.54736328125 242.40826416015625 198.116455078125 256.8577880859375 C 190.6854248046875 271.3073425292969 184.5618896484375 286.6513671875 179.7454833984375 302.889892578125 C 175.066650390625 319.12841796875 172.727294921875 335.91741943359375 172.727294921875 353.25689697265625 C 172.727294921875 369.7706298828125 175.135498046875 383.5321044921875 179.951904296875 394.541259765625 C 184.9058837890625 405.412841796875 191.5111083984375 414.0137939453125 199.7677001953125 420.343994140625 C 208.1619873046875 426.67431640625 217.51953125 431.215576171875 227.84033203125 433.9678955078125 C 238.1611328125 436.72021484375 248.757080078125 438.0963134765625 259.6282958984375 438.0963134765625 C 292.65478515625 438.0963134765625 318.80078125 427.2247314453125 338.0662841796875 405.481689453125 C 357.331787109375 383.738525390625 369.716796875 353.1192626953125 375.2210693359375 313.62384033203125 C 380.8631591796875 273.9908447265625 379.4183349609375 227.6834716796875 370.8863525390625 174.70184326171875 C 374.739501953125 185.09173583984375 378.5926513671875 195.48162841796875 382.4456787109375 205.87158203125 C 386.1611328125 229.95413208007812 388.0189208984375 253.69268798828125 388.0189208984375 277.087158203125 C 388.0189208984375 300.48162841796875 385.6107177734375 322.56878662109375 380.7943115234375 343.3486328125 C 376.1156005859375 363.9908447265625 368.6846923828125 382.3624267578125 358.50146484375 398.46331787109375 C 348.3182373046875 414.4266357421875 335.0389404296875 426.9495849609375 318.6632080078125 436.0321044921875 C 302.28759765625 445.11468505859375 282.4716796875 449.656005859375 259.2154541015625 449.656005859375 C 243.8031005859375 449.656005859375 230.11083984375 447.52294921875 218.1387939453125 443.2568359375 C 206.1666259765625 439.12841796875 195.9146728515625 433.00457763671875 187.3828125 424.88531494140625 C 178.9886474609375 416.76605224609375 172.5897216796875 406.8577880859375 168.1861572265625 395.1605224609375 C 163.9202880859375 383.46331787109375 161.7872314453125 370.1834716796875 161.7872314453125 355.32110595703125 C 161.7872314453125 334.4036865234375 164.53955078125 314.7935791015625 170.0439453125 296.4908447265625 C 175.54833984375 278.18804931640625 182.56640625 261.33026123046875 191.0982666015625 245.91741943359375 C 199.7677001953125 230.36697387695312 208.9189453125 216.60552978515625 218.5516357421875 204.63302612304688 C 228.184326171875 192.52294921875 237.1290283203125 182.54586791992188 245.3856201171875 174.70184326171875 C 237.1290283203125 176.21560668945312 227.6339111328125 177.79815673828125 216.9002685546875 179.44952392578125 C 206.30419921875 180.96331787109375 196.12109375 182.40826416015625 186.3507080078125 183.784423828125 C 176.718017578125 185.02294921875 169.0118408203125 186.0550537109375 163.232177734375 186.8807373046875 C 159.7919921875 187.15597534179688 156.3515625 187.56881713867188 152.911376953125 188.1192626953125 C 149.47119140625 188.66973876953125 145.893310546875 189.22021484375 142.177734375 189.7706298828125 C 141.833740234375 184.7476806640625 141.4896240234375 179.72479248046875 141.145751953125 174.70184326171875"/>
  </g>
</svg>
