<?xml version="1.0" encoding="utf-8"?>
<svg xmlns="http://www.w3.org/2000/svg" xmlns:ev="http://www.w3.org/2001/xml-events" xmlns:xlink="http://www.w3.org/1999/xlink" version="1.1" baseProfile="full" width="13258.0" height="1736.0" viewBox="94.0 -1596.0 13258.0 1736.0">
<defs/>
<g><path d="M 2093.000000 -1156.000000 C 2596.000000 -1156.000000 3099.000000 -1156.000000 3602.000000 -1156.000000 C 3602.000000 -1136.666667 3602.000000 -1117.333333 3602.000000 -1098.000000 C 3099.000000 -1098.000000 2596.000000 -1098.000000 2093.000000 -1098.000000 C 2093.000000 -1117.333333 2093.000000 -1136.666667 2093.000000 -1156.000000z M 3585.000000 -1156.000000 C 3604.000000 -1156.000000 3623.000000 -1156.000000 3642.000000 -1156.000000 C 3642.000000 -1156.000000 3642.000000 -1153.000000 3642.000000 -1147.000000 C 3642.000000 -1141.666667 3641.666667 -1135.666667 3641.000000 -1129.000000 C 3640.333333 -1122.333333 3640.000000 -1117.333333 3640.000000 -1114.000000 C 3627.333333 -908.666667 3615.333333 -734.666667 3604.000000 -592.000000 C 3592.666667 -449.333333 3580.000000 -332.666667 3566.000000 -242.000000 C 3552.666667 -151.333333 3538.000000 -80.666667 3522.000000 -30.000000 C 3506.000000 20.666667 3487.333333 57.000000 3466.000000 79.000000 C 3448.000000 99.000000 3429.000000 112.000000 3409.000000 118.000000 C 3389.000000 124.000000 3363.000000 127.666667 3331.000000 129.000000 C 3301.666667 130.333333 3258.000000 129.666667 3200.000000 127.000000 C 3142.666667 124.333333 3084.000000 121.000000 3024.000000 117.000000 C 3022.666667 108.333333 3021.000000 98.666667 3019.000000 88.000000 C 3017.000000 78.000000 3013.000000 68.666667 3007.000000 60.000000 C 3077.000000 66.000000 3141.666667 70.000000 3201.000000 72.000000 C 3261.000000 74.000000 3302.000000 75.000000 3324.000000 75.000000 C 3345.333333 75.000000 3363.000000 73.333333 3377.000000 70.000000 C 3391.000000 66.666667 3403.333333 59.333333 3414.000000 48.000000 C 3433.333333 28.666667 3451.000000 -6.000000 3467.000000 -56.000000 C 3483.000000 -106.000000 3497.666667 -176.666667 3511.000000 -268.000000 C 3524.333333 -359.333333 3537.000000 -476.333333 3549.000000 -619.000000 C 3561.000000 -761.666667 3573.000000 -935.333333 3585.000000 -1140.000000 C 3585.000000 -1145.333333 3585.000000 -1150.666667 3585.000000 -1156.000000z M 2759.000000 -1592.000000 C 2778.333333 -1592.000000 2797.666667 -1592.000000 2817.000000 -1592.000000 C 2817.000000 -1501.666667 2817.000000 -1411.333333 2817.000000 -1321.000000 C 2817.000000 -1232.333333 2813.000000 -1139.333333 2805.000000 -1042.000000 C 2797.666667 -945.333333 2781.333333 -846.000000 2756.000000 -744.000000 C 2731.333333 -642.000000 2692.333333 -540.000000 2639.000000 -438.000000 C 2585.666667 -336.666667 2514.000000 -237.000000 2424.000000 -139.000000 C 2334.000000 -41.000000 2219.666667 52.000000 2081.000000 140.000000 C 2078.333333 134.666667 2074.666667 129.666667 2070.000000 125.000000 C 2066.000000 121.000000 2061.333333 116.333333 2056.000000 111.000000 C 2051.333333 106.333333 2046.333333 102.666667 2041.000000 100.000000 C 2176.333333 12.666667 2288.000000 -78.666667 2376.000000 -174.000000 C 2464.666667 -269.333333 2535.000000 -366.333333 2587.000000 -465.000000 C 2639.000000 -564.333333 2677.000000 -663.333333 2701.000000 -762.000000 C 2725.666667 -860.666667 2741.333333 -957.000000 2748.000000 -1051.000000 C 2755.333333 -1145.000000 2759.000000 -1235.000000 2759.000000 -1321.000000 C 2759.000000 -1411.333333 2759.000000 -1501.666667 2759.000000 -1592.000000z "/>
</g></svg>
