<?xml version="1.0" encoding="utf-8"?>
<svg xmlns="http://www.w3.org/2000/svg" xmlns:ev="http://www.w3.org/2001/xml-events" xmlns:xlink="http://www.w3.org/1999/xlink" version="1.1" baseProfile="full" width="17098.0" height="1737.3" viewBox="90.0 -1596.0 17098.0 1737.3">
<defs/>
<g><path d="M 8310.000000 -1386.000000 C 8711.333333 -1386.000000 9112.666667 -1386.000000 9514.000000 -1386.000000 C 9514.000000 -1367.666667 9514.000000 -1349.333333 9514.000000 -1331.000000 C 9112.666667 -1331.000000 8711.333333 -1331.000000 8310.000000 -1331.000000 C 8310.000000 -1349.333333 8310.000000 -1367.666667 8310.000000 -1386.000000z M 9291.000000 -1365.000000 C 9309.666667 -1365.000000 9328.333333 -1365.000000 9347.000000 -1365.000000 C 9347.000000 -906.666667 9347.000000 -448.333333 9347.000000 10.000000 C 9347.000000 45.333333 9340.666667 70.666667 9328.000000 86.000000 C 9316.000000 101.333333 9295.333333 112.333333 9266.000000 119.000000 C 9238.000000 124.333333 9192.333333 127.333333 9129.000000 128.000000 C 9065.666667 128.666667 8984.666667 129.000000 8886.000000 129.000000 C 8884.666667 119.666667 8881.666667 109.333333 8877.000000 98.000000 C 8872.333333 86.666667 8867.000000 75.666667 8861.000000 65.000000 C 8921.000000 66.333333 8976.666667 67.333333 9028.000000 68.000000 C 9079.333333 68.666667 9123.000000 68.666667 9159.000000 68.000000 C 9195.666667 67.333333 9221.666667 66.333333 9237.000000 65.000000 C 9259.000000 63.666667 9273.333333 59.333333 9280.000000 52.000000 C 9287.333333 45.333333 9291.000000 32.000000 9291.000000 12.000000 C 9291.000000 -447.000000 9291.000000 -906.000000 9291.000000 -1365.000000z M 8400.000000 -996.000000 C 8418.666667 -996.000000 8437.333333 -996.000000 8456.000000 -996.000000 C 8456.000000 -739.000000 8456.000000 -482.000000 8456.000000 -225.000000 C 8437.333333 -225.000000 8418.666667 -225.000000 8400.000000 -225.000000 C 8400.000000 -482.000000 8400.000000 -739.000000 8400.000000 -996.000000z M 8431.000000 -996.000000 C 8608.666667 -996.000000 8786.333333 -996.000000 8964.000000 -996.000000 C 8964.000000 -786.333333 8964.000000 -576.666667 8964.000000 -367.000000 C 8786.333333 -367.000000 8608.666667 -367.000000 8431.000000 -367.000000 C 8431.000000 -386.000000 8431.000000 -405.000000 8431.000000 -424.000000 C 8589.666667 -424.000000 8748.333333 -424.000000 8907.000000 -424.000000 C 8907.000000 -595.666667 8907.000000 -767.333333 8907.000000 -939.000000 C 8748.333333 -939.000000 8589.666667 -939.000000 8431.000000 -939.000000 C 8431.000000 -958.000000 8431.000000 -977.000000 8431.000000 -996.000000z M 8227.000000 -1588.000000 C 8245.666667 -1583.333333 8264.333333 -1578.666667 8283.000000 -1574.000000 C 8245.666667 -1468.000000 8202.666667 -1364.666667 8154.000000 -1264.000000 C 8105.333333 -1164.000000 8052.333333 -1069.333333 7995.000000 -980.000000 C 7938.333333 -891.333333 7879.333333 -811.000000 7818.000000 -739.000000 C 7815.333333 -743.000000 7811.333333 -747.666667 7806.000000 -753.000000 C 7801.333333 -759.000000 7796.333333 -765.000000 7791.000000 -771.000000 C 7786.333333 -777.666667 7781.333333 -782.333333 7776.000000 -785.000000 C 7837.333333 -851.666667 7895.666667 -927.666667 7951.000000 -1013.000000 C 8007.000000 -1099.000000 8058.333333 -1191.000000 8105.000000 -1289.000000 C 8151.666667 -1387.000000 8192.333333 -1486.666667 8227.000000 -1588.000000z M 8039.000000 -1125.000000 C 8057.000000 -1143.000000 8075.000000 -1161.000000 8093.000000 -1179.000000 C 8094.333333 -1178.333333 8095.666667 -1177.666667 8097.000000 -1177.000000 C 8097.000000 -740.000000 8097.000000 -303.000000 8097.000000 134.000000 C 8077.666667 134.000000 8058.333333 134.000000 8039.000000 134.000000 C 8039.000000 -285.666667 8039.000000 -705.333333 8039.000000 -1125.000000z "/>
</g></svg>
