<?xml version="1.0" ?>
<svg xmlns="http://www.w3.org/2000/svg" version="1.1" width="600" height="600">
  <defs/>
  <g>
    <path stroke-width="0" fill="rgb(0, 0, 0)" opacity="1.0" d="M 315.100341796875 235.34481811523438 C 320.8924560546875 231.62066650390625 326.6156005859375 227.62066650390625 332.269775390625 223.34481811523438 C 338.0618896484375 219.0689697265625 342.5438232421875 215.62066650390625 345.7156982421875 213.0 C 339.78570556640625 207.48275756835938 331.649169921875 201.41378784179688 321.30615234375 194.7930908203125 C 311.10107421875 188.17239379882812 300.0685119628906 181.68963623046875 288.20855712890625 175.34481811523438 C 276.4864501953125 169.0 265.45391845703125 163.55172729492188 255.11090087890625 159.0 C 257.5242614746094 155.96551513671875 259.9376220703125 152.9310302734375 262.35101318359375 149.89654541015625 C 271.8665771484375 154.17239379882812 282.5543518066406 159.62066650390625 294.4143371582031 166.24136352539062 C 306.2743225097656 172.862060546875 317.8585205078125 179.68963623046875 329.1668701171875 186.72412109375 C 340.4752197265625 193.62069702148438 349.439208984375 200.10345458984375 356.0587158203125 206.17242431640625 C 357.093017578125 209.48275756835938 358.1273193359375 212.7930908203125 359.16162109375 216.10345458984375 C 357.093017578125 218.03448486328125 354.61065673828125 220.10345458984375 351.714599609375 222.31033325195312 C 348.95648193359375 224.37930297851562 345.99151611328125 226.586181640625 342.81964111328125 228.9310302734375 C 339.64776611328125 231.27587890625 336.406982421875 233.75860595703125 333.09722900390625 236.37930297851562 C 329.7874755859375 238.862060546875 326.40869140625 241.27587890625 322.9610595703125 243.62066650390625 C 320.3408203125 240.862060546875 317.7205810546875 238.10345458984375 315.100341796875 235.34481811523438M 229.25335693359375 431.4827880859375 C 238.49310302734375 434.10345458984375 248.1466064453125 436.24139404296875 258.21380615234375 437.89654541015625 C 268.281005859375 439.413818359375 281.037353515625 440.17242431640625 296.4829406738281 440.17242431640625 C 301.99920654296875 440.17242431640625 308.3429260253906 439.137939453125 315.51409912109375 437.0689697265625 C 322.68524169921875 435.0 328.96002197265625 431.0 334.33837890625 425.0689697265625 C 339.71673583984375 419.0 342.40594482421875 410.586181640625 342.40594482421875 399.82757568359375 C 342.40594482421875 392.3792724609375 340.75103759765625 384.6551513671875 337.4412841796875 376.6551513671875 C 334.13153076171875 368.5172119140625 329.718505859375 360.3792724609375 324.20220947265625 352.24139404296875 C 318.68597412109375 343.96551513671875 312.6180419921875 335.75860595703125 305.99853515625 327.6207275390625 C 299.37896728515625 319.3448486328125 292.75946044921875 311.3448486328125 286.13995361328125 303.62066650390625 C 282.41644287109375 299.0689697265625 278.0723876953125 294.3103332519531 273.10772705078125 289.3448181152344 C 268.281005859375 284.2413635253906 263.5921630859375 279.48272705078125 259.041259765625 275.0689697265625 C 261.79937744140625 272.2413635253906 264.5574951171875 269.4137878417969 267.3156433105469 266.586181640625 C 271.03912353515625 270.862060546875 275.24530029296875 275.68963623046875 279.93414306640625 281.0689697265625 C 284.6229553222656 286.3103332519531 289.0359802246094 291.2758483886719 293.1731872558594 295.96551513671875 C 303.7919921875 307.68963623046875 313.7213134765625 319.413818359375 322.9610595703125 331.137939453125 C 332.2008056640625 342.72412109375 339.64776611328125 354.3792724609375 345.302001953125 366.10345458984375 C 351.09405517578125 377.68963623046875 353.9901123046875 389.27587890625 353.9901123046875 400.862060546875 C 353.9901123046875 412.03448486328125 351.7835693359375 421.0 347.37060546875 427.75860595703125 C 343.095458984375 434.5172119140625 337.7860107421875 439.5517578125 331.44232177734375 442.862060546875 C 325.0986328125 446.17242431640625 318.61700439453125 448.3792724609375 311.9974670410156 449.4827880859375 C 305.515869140625 450.72412109375 300.3443603515625 451.3448486328125 296.4829406738281 451.3448486328125 C 282.140625 451.3448486328125 269.6600646972656 450.6551513671875 259.041259765625 449.27587890625 C 248.42242431640625 448.03448486328125 239.04473876953125 446.586181640625 230.90826416015625 444.9310302734375 C 230.35662841796875 440.4482421875 229.80499267578125 435.96551513671875 229.25335693359375 431.4827880859375M 467.556396484375 430.6551513671875 C 464.384521484375 421.689697265625 460.247314453125 411.82757568359375 455.144775390625 401.0689697265625 C 450.18011474609375 390.17242431640625 444.5948486328125 379.137939453125 438.3890380859375 367.96551513671875 C 432.18328857421875 356.7930908203125 425.6326904296875 346.24139404296875 418.73736572265625 336.310302734375 C 411.842041015625 326.3792724609375 404.8087158203125 317.82757568359375 397.6375732421875 310.6551513671875 C 400.6715087890625 308.586181640625 403.70556640625 306.5172119140625 406.739501953125 304.4482421875 C 414.1864013671875 312.862060546875 421.4954833984375 322.24139404296875 428.6666259765625 332.586181640625 C 435.8377685546875 342.9310302734375 442.59521484375 353.62066650390625 448.93896484375 364.6551513671875 C 455.28265380859375 375.5517578125 460.9368896484375 386.17242431640625 465.9014892578125 396.5172119140625 C 471.0040283203125 406.862060546875 475.1412353515625 416.17242431640625 478.3131103515625 424.4482421875 C 474.7275390625 426.5172119140625 471.1419677734375 428.586181640625 467.556396484375 430.6551513671875M 232.1494140625 351.2069091796875 C 224.15081787109375 359.2069091796875 214.42837524414062 368.10345458984375 202.98211669921875 377.89654541015625 C 191.67376708984375 387.689697265625 179.67584228515625 397.2069091796875 166.98843383789062 406.4482421875 C 154.30099487304688 415.689697265625 142.09625244140625 423.6207275390625 130.3741455078125 430.24139404296875 C 127.891845703125 426.9310302734375 125.40951538085938 423.6207275390625 122.92718505859375 420.310302734375 C 130.78787231445312 416.17242431640625 139.47601318359375 410.9310302734375 148.9915771484375 404.586181640625 C 158.50714111328125 398.10345458984375 168.022705078125 391.27587890625 177.53829956054688 384.10345458984375 C 187.1917724609375 376.7930908203125 196.15570068359375 369.4827880859375 204.43011474609375 362.17242431640625 C 212.84246826171875 354.862060546875 219.6688232421875 348.310302734375 224.9093017578125 342.5172119140625 C 227.32266235351562 345.413818359375 229.73602294921875 348.310302734375 232.1494140625 351.2069091796875"/>
  </g>
</svg>
