<?xml version="1.0" ?>
<svg xmlns="http://www.w3.org/2000/svg" version="1.1" width="600" height="600">
  <defs/>
  <g>
    <path stroke-width="0" fill="rgb(0, 0, 0)" opacity="1.0" d="M 264.700439453125 272.79193115234375 C 279.2193603515625 281.2660827636719 293.88946533203125 290.2698669433594 308.7108154296875 299.80328369140625 C 323.53216552734375 309.3367004394531 338.126708984375 319.2484130859375 352.49432373046875 329.5384521484375 C 366.8619384765625 339.67718505859375 380.7001953125 349.740234375 394.00927734375 359.72760009765625 C 407.3182373046875 369.71502685546875 419.6441650390625 379.47540283203125 430.987060546875 389.0087890625 C 427.81103515625 392.640625 424.635009765625 396.27239990234375 421.458984375 399.9041748046875 C 411.0235595703125 390.67340087890625 399.1513671875 380.9129638671875 385.8424072265625 370.6229248046875 C 372.68463134765625 360.3328857421875 358.770751953125 350.0428466796875 344.1005859375 339.7528076171875 C 329.43048095703125 329.31146240234375 314.609130859375 319.1727600097656 299.63653564453125 309.3367004394531 C 284.815185546875 299.5006408691406 270.22064208984375 290.1942138671875 255.85302734375 281.41741943359375 C 258.80218505859375 278.542236328125 261.7513427734375 275.6671142578125 264.700439453125 272.79193115234375M 457.983154296875 187.67214965820312 C 456.92431640625 189.79067993164062 455.86572265625 192.5145263671875 454.80712890625 195.8436279296875 C 453.7484130859375 199.17276000976562 452.9166259765625 201.59396362304688 452.3116455078125 203.107177734375 C 448.228271484375 219.29888916015625 442.405517578125 236.39849853515625 434.8436279296875 254.40606689453125 C 427.432861328125 272.41363525390625 418.5098876953125 290.2698669433594 408.074462890625 307.97479248046875 C 397.790283203125 325.6796875 386.296142578125 342.24969482421875 373.59210205078125 357.68475341796875 C 354.68731689453125 380.68603515625 330.56475830078125 402.779296875 301.22454833984375 423.9647216796875 C 271.88427734375 445.1500244140625 236.72137451171875 463.1575927734375 195.73577880859375 477.9874267578125 C 191.87921142578125 474.3555908203125 188.02264404296875 470.723876953125 184.166015625 467.092041015625 C 207.91046142578125 460.131103515625 230.8231201171875 450.67340087890625 252.90386962890625 438.71875 C 274.98468017578125 426.61285400390625 295.47747802734375 412.91802978515625 314.38226318359375 397.63427734375 C 333.28704833984375 382.3505859375 349.545166015625 366.4615478515625 363.1566162109375 349.96722412109375 C 375.86065673828125 334.53216552734375 387.279052734375 317.962158203125 397.412109375 300.25726318359375 C 407.6962890625 282.5523376464844 416.543701171875 264.7717590332031 423.9544677734375 246.91552734375 C 431.365234375 229.05926513671875 436.9609375 212.2623291015625 440.741943359375 196.52459716796875 C 382.212646484375 196.52459716796875 323.68341064453125 196.52459716796875 265.1541748046875 196.52459716796875 C 267.7252197265625 192.13619995117188 270.29632568359375 187.747802734375 272.8673095703125 183.35940551757812 C 323.83465576171875 183.35940551757812 374.80194091796875 183.35940551757812 425.769287109375 183.35940551757812 C 430.76025390625 183.35940551757812 434.6923828125 183.13241577148438 437.56591796875 182.67843627929688 C 440.439453125 182.22445678710938 442.934814453125 181.46783447265625 445.05224609375 180.4085693359375 C 449.362548828125 182.82974243164062 453.6728515625 185.25094604492188 457.983154296875 187.67214965820312M 308.7108154296875 128.88272094726562 C 306.593505859375 132.66583251953125 304.47613525390625 136.7515869140625 302.35882568359375 141.13998413085938 C 300.24151611328125 145.52838134765625 298.275390625 149.46279907226562 296.46051025390625 152.94326782226562 C 288.89862060546875 167.167724609375 278.9168701171875 183.51071166992188 266.51531982421875 201.97225952148438 C 254.2650146484375 220.43380737304688 238.989990234375 239.34930419921875 220.69012451171875 258.71881103515625 C 202.3902587890625 277.93695068359375 180.460693359375 296.39849853515625 154.90142822265625 314.1033935546875 C 151.1204833984375 311.2282409667969 147.3394775390625 308.35308837890625 143.55853271484375 305.4779357910156 C 167.90789794921875 290.0428771972656 189.5350341796875 272.640625 208.4398193359375 253.2711181640625 C 227.3446044921875 233.75030517578125 243.14898681640625 214.53216552734375 255.85302734375 195.61663818359375 C 268.70831298828125 176.70114135742188 278.16064453125 160.282470703125 284.210205078125 146.36065673828125 C 285.42010498046875 144.09078979492188 286.9324951171875 140.6103515625 288.74737548828125 135.9193115234375 C 290.7135009765625 131.228271484375 291.99896240234375 126.99118041992188 292.60394287109375 123.20806884765625 C 297.972900390625 125.09963989257812 303.34185791015625 126.99118041992188 308.7108154296875 128.88272094726562"/>
  </g>
</svg>
