<?xml version="1.0" ?>
<svg xmlns="http://www.w3.org/2000/svg" version="1.1" width="600" height="600">
  <defs/>
  <g>
    <path stroke-width="0" fill="rgb(0, 0, 0)" opacity="1.0" d="M 130.85726928710938 262.164306640625 C 131.7874755859375 262.164306640625 132.71771240234375 262.164306640625 133.64794921875 262.164306640625 C 133.64794921875 271.027587890625 133.64794921875 279.890869140625 133.64794921875 288.754150390625 C 133.64794921875 292.50457763671875 133.5196533203125 296.5755615234375 133.26303100585938 300.9671630859375 C 133.00640869140625 305.32666015625 132.5252685546875 309.79833984375 131.819580078125 314.3822021484375 C 131.11386108398438 318.96612548828125 130.07138061523438 323.453857421875 128.69204711914062 327.84539794921875 C 127.312744140625 332.20489501953125 125.4522705078125 336.2598876953125 123.11065673828125 340.0103759765625 C 122.918212890625 339.8179931640625 122.6776123046875 339.62567138671875 122.38894653320312 339.433349609375 C 122.13232421875 339.2730712890625 121.85964965820312 339.0968017578125 121.57098388671875 338.9044189453125 C 121.28228759765625 338.71209716796875 121.02566528320312 338.5518798828125 120.80111694335938 338.423583984375 C 123.07858276367188 334.7373046875 124.89093017578125 330.79449462890625 126.2381591796875 326.59521484375 C 127.58541870117188 322.36395263671875 128.57980346679688 318.05255126953125 129.22134399414062 313.6610107421875 C 129.89495849609375 309.23736572265625 130.32797241210938 304.909912109375 130.52044677734375 300.67864990234375 C 130.7449951171875 296.415283203125 130.85726928710938 292.4404296875 130.85726928710938 288.754150390625 C 130.85726928710938 279.890869140625 130.85726928710938 271.027587890625 130.85726928710938 262.164306640625M 132.1563720703125 262.164306640625 C 153.98477172851562 262.164306640625 175.81314086914062 262.164306640625 197.64154052734375 262.164306640625 C 197.64154052734375 267.45343017578125 197.64154052734375 272.7425537109375 197.64154052734375 278.0316162109375 C 175.81314086914062 278.0316162109375 153.98477172851562 278.0316162109375 132.1563720703125 278.0316162109375 C 132.1563720703125 277.150146484375 132.1563720703125 276.26861572265625 132.1563720703125 275.3870849609375 C 153.08660888671875 275.3870849609375 174.016845703125 275.3870849609375 194.94708251953125 275.3870849609375 C 194.94708251953125 271.8770751953125 194.94708251953125 268.36700439453125 194.94708251953125 264.85693359375 C 174.016845703125 264.85693359375 153.08660888671875 264.85693359375 132.1563720703125 264.85693359375 C 132.1563720703125 263.95941162109375 132.1563720703125 263.0618896484375 132.1563720703125 262.164306640625M 148.70809936523438 279.23370361328125 C 149.44586181640625 278.8330078125 150.18365478515625 278.432373046875 150.92141723632812 278.0316162109375 C 152.26864624023438 279.2176513671875 153.5677490234375 280.580078125 154.81875610351562 282.11865234375 C 156.10183715820312 283.6573486328125 156.98394775390625 285.03570556640625 157.46511840820312 286.2537841796875 C 156.72735595703125 286.7186279296875 155.98956298828125 287.18341064453125 155.25180053710938 287.648193359375 C 154.70648193359375 286.43011474609375 153.82437133789062 285.0196533203125 152.60546875 283.41693115234375 C 151.41860961914062 281.81414794921875 150.11947631835938 280.4197998046875 148.70809936523438 279.23370361328125M 184.26544189453125 277.88739013671875 C 185.09942626953125 278.336181640625 185.93344116210938 278.784912109375 186.7674560546875 279.23370361328125 C 185.58059692382812 280.7723388671875 184.32958984375 282.31103515625 183.01443481445312 283.84967041015625 C 181.73135375976562 285.35626220703125 180.51242065429688 286.6224365234375 179.357666015625 287.648193359375 C 178.68405151367188 287.279541015625 178.01043701171875 286.91094970703125 177.3367919921875 286.54229736328125 C 178.42742919921875 285.3883056640625 179.6463623046875 283.96185302734375 180.99359130859375 282.262939453125 C 182.37289428710938 280.56396484375 183.4635009765625 279.10546875 184.26544189453125 277.88739013671875M 144.71450805664062 314.5264892578125 C 160.9775390625 314.5264892578125 177.24057006835938 314.5264892578125 193.50360107421875 314.5264892578125 C 193.50360107421875 323.085205078125 193.50360107421875 331.6439208984375 193.50360107421875 340.20263671875 C 192.60546875 340.20263671875 191.70730590820312 340.20263671875 190.80914306640625 340.20263671875 C 190.80914306640625 332.5574951171875 190.80914306640625 324.912353515625 190.80914306640625 317.2672119140625 C 176.3424072265625 317.2672119140625 161.87570190429688 317.2672119140625 147.40899658203125 317.2672119140625 C 147.40899658203125 324.99249267578125 147.40899658203125 332.7177734375 147.40899658203125 340.443115234375 C 146.51083374023438 340.443115234375 145.6126708984375 340.443115234375 144.71450805664062 340.443115234375 C 144.71450805664062 331.80419921875 144.71450805664062 323.16534423828125 144.71450805664062 314.5264892578125M 142.88613891601562 298.75531005859375 C 142.88613891601562 301.33575439453125 142.88613891601562 303.91619873046875 142.88613891601562 306.49664306640625 C 160.15957641601562 306.49664306640625 177.43304443359375 306.49664306640625 194.70648193359375 306.49664306640625 C 194.70648193359375 303.91619873046875 194.70648193359375 301.33575439453125 194.70648193359375 298.75531005859375 C 177.43304443359375 298.75531005859375 160.15957641601562 298.75531005859375 142.88613891601562 298.75531005859375M 142.88613891601562 288.41754150390625 C 142.88613891601562 290.933837890625 142.88613891601562 293.4501953125 142.88613891601562 295.966552734375 C 160.15957641601562 295.966552734375 177.43304443359375 295.966552734375 194.70648193359375 295.966552734375 C 194.70648193359375 293.4501953125 194.70648193359375 290.933837890625 194.70648193359375 288.41754150390625 C 177.43304443359375 288.41754150390625 160.15957641601562 288.41754150390625 142.88613891601562 288.41754150390625M 140.09542846679688 285.724853515625 C 159.18124389648438 285.724853515625 178.26702880859375 285.724853515625 197.35284423828125 285.724853515625 C 197.35284423828125 293.54638671875 197.35284423828125 301.3677978515625 197.35284423828125 309.1893310546875 C 178.26702880859375 309.1893310546875 159.18124389648438 309.1893310546875 140.09542846679688 309.1893310546875 C 140.09542846679688 301.3677978515625 140.09542846679688 293.54638671875 140.09542846679688 285.724853515625M 166.99197387695312 286.638427734375 C 167.90618896484375 286.638427734375 168.82037353515625 286.638427734375 169.73455810546875 286.638427734375 C 169.73455810546875 293.72265625 169.73455810546875 300.806884765625 169.73455810546875 307.89105224609375 C 168.82037353515625 307.89105224609375 167.90618896484375 307.89105224609375 166.99197387695312 307.89105224609375 C 166.99197387695312 300.806884765625 166.99197387695312 293.72265625 166.99197387695312 286.638427734375M 145.91738891601562 324.28729248046875 C 161.28228759765625 324.28729248046875 176.64715576171875 324.28729248046875 192.01202392578125 324.28729248046875 C 192.01202392578125 325.184814453125 192.01202392578125 326.0823974609375 192.01202392578125 326.97991943359375 C 176.64715576171875 326.97991943359375 161.28228759765625 326.97991943359375 145.91738891601562 326.97991943359375 C 145.91738891601562 326.0823974609375 145.91738891601562 325.184814453125 145.91738891601562 324.28729248046875M 145.91738891601562 334.4808349609375 C 161.28228759765625 334.4808349609375 176.64715576171875 334.4808349609375 192.01202392578125 334.4808349609375 C 192.01202392578125 335.3623046875 192.01202392578125 336.243896484375 192.01202392578125 337.1253662109375 C 176.64715576171875 337.1253662109375 161.28228759765625 337.1253662109375 145.91738891601562 337.1253662109375 C 145.91738891601562 336.243896484375 145.91738891601562 335.3623046875 145.91738891601562 334.4808349609375"/>
    <path stroke-width="0" fill="rgb(0, 0, 0)" opacity="1.0" d="M 261.5870056152344 263.270263671875 C 261.45867919921875 263.943359375 261.3143310546875 264.92108154296875 261.15399169921875 266.2032470703125 C 260.99359130859375 267.45343017578125 260.86529541015625 268.607421875 260.76904296875 269.665283203125 C 260.3199768066406 272.9669189453125 259.8708801269531 276.31671142578125 259.42181396484375 279.71453857421875 C 259.00482177734375 283.1124267578125 258.42742919921875 286.54229736328125 257.68963623046875 290.0042724609375 C 256.951904296875 293.4342041015625 255.94146728515625 296.92822265625 254.65838623046875 300.486328125 C 253.11868286132812 304.685546875 251.3704833984375 308.6282958984375 249.41378784179688 312.314697265625 C 247.48916625976562 316.0009765625 245.42022705078125 319.254638671875 243.2069091796875 322.075439453125 C 240.99359130859375 324.8642578125 238.60385131835938 327.0440673828125 236.03768920898438 328.61474609375 C 233.47152709960938 330.1854248046875 230.77706909179688 330.9708251953125 227.95428466796875 330.9708251953125 C 226.09381103515625 330.9708251953125 224.44186401367188 330.44189453125 222.9984130859375 329.384033203125 C 221.554931640625 328.32623291015625 220.41619873046875 326.8837890625 219.58221435546875 325.056640625 C 218.74819946289062 323.1973876953125 218.3311767578125 321.03369140625 218.3311767578125 318.5654296875 C 218.3311767578125 314.27001953125 218.98876953125 310.31121826171875 220.30392456054688 306.68896484375 C 221.65115356445312 303.03466796875 223.36727905273438 299.700927734375 225.4522705078125 296.687744140625 C 226.92782592773438 294.3477783203125 228.85244750976562 291.99169921875 231.22613525390625 289.61962890625 C 233.599853515625 287.2154541015625 236.39053344726562 285.003662109375 239.59823608398438 282.984130859375 C 242.80593872070312 280.9326171875 246.3985595703125 279.28179931640625 250.3760986328125 278.0316162109375 C 254.3857421875 276.74945068359375 258.79632568359375 276.10833740234375 263.60784912109375 276.10833740234375 C 266.94384765625 276.10833740234375 270.15155029296875 276.6693115234375 273.23095703125 277.791259765625 C 276.31036376953125 278.881103515625 279.0689697265625 280.4998779296875 281.5068359375 282.6475830078125 C 283.97674560546875 284.76324462890625 285.9334411621094 287.40777587890625 287.37689208984375 290.58123779296875 C 288.8524475097656 293.75469970703125 289.5902099609375 297.3929443359375 289.5902099609375 301.49603271484375 C 289.5902099609375 306.49664306640625 289.15716552734375 310.984375 288.29107666015625 314.959228515625 C 287.4250183105469 318.9019775390625 286.10986328125 322.29986572265625 284.34564208984375 325.15277099609375 C 282.5813903808594 327.9736328125 280.3841247558594 330.121337890625 277.7538146972656 331.5958251953125 C 275.15557861328125 333.0704345703125 272.1082763671875 333.80767822265625 268.61187744140625 333.80767822265625 C 264.6663818359375 333.80767822265625 261.554931640625 332.862060546875 259.2774658203125 330.9708251953125 C 257.0 329.0474853515625 255.86126708984375 326.51513671875 255.86126708984375 323.37371826171875 C 255.86126708984375 321.4183349609375 256.422607421875 319.6552734375 257.5452880859375 318.0845947265625 C 258.7000732421875 316.513916015625 260.2718505859375 315.27978515625 262.2606201171875 314.3822021484375 C 264.281494140625 313.48468017578125 266.54290771484375 313.035888671875 269.044921875 313.035888671875 C 272.445068359375 313.035888671875 275.57257080078125 313.580810546875 278.42742919921875 314.67071533203125 C 281.28228759765625 315.728515625 283.8804931640625 317.0748291015625 286.2221374511719 318.709716796875 C 288.5637512207031 320.344482421875 290.6327209472656 322.04345703125 292.42901611328125 323.80645751953125 C 294.225341796875 325.5694580078125 295.73297119140625 327.15625 296.951904296875 328.566650390625 C 296.27825927734375 329.4161376953125 295.6046447753906 330.26556396484375 294.9310302734375 331.114990234375 C 293.74420166015625 329.6405029296875 292.28466796875 328.021728515625 290.5525207519531 326.2586669921875 C 288.8524475097656 324.463623046875 286.91180419921875 322.7486572265625 284.7305603027344 321.11383056640625 C 282.54931640625 319.47900390625 280.1435546875 318.148681640625 277.51324462890625 317.1229248046875 C 274.8829345703125 316.06512451171875 272.0601501464844 315.5362548828125 269.044921875 315.5362548828125 C 265.484375 315.5362548828125 262.805908203125 316.36962890625 261.0096435546875 318.0364990234375 C 259.2453918457031 319.703369140625 258.36328125 321.450439453125 258.36328125 323.27752685546875 C 258.36328125 325.6175537109375 259.26141357421875 327.5408935546875 261.0577392578125 329.0474853515625 C 262.8861083984375 330.5540771484375 265.4041748046875 331.307373046875 268.61187744140625 331.307373046875 C 272.1082763671875 331.307373046875 275.02728271484375 330.5059814453125 277.368896484375 328.9031982421875 C 279.71051025390625 327.2684326171875 281.57098388671875 325.056640625 282.9502868652344 322.267822265625 C 284.32958984375 319.44696044921875 285.323974609375 316.2574462890625 285.9334411621094 312.6993408203125 C 286.5749816894531 309.109130859375 286.895751953125 305.40673828125 286.895751953125 301.59222412109375 C 286.895751953125 298.83544921875 286.41461181640625 296.0947265625 285.4522705078125 293.37005615234375 C 284.489990234375 290.61328125 283.03045654296875 288.1290283203125 281.07379150390625 285.917236328125 C 279.149169921875 283.7054443359375 276.72735595703125 281.9423828125 273.808349609375 280.62811279296875 C 270.88934326171875 279.28179931640625 267.45709228515625 278.608642578125 263.5116271972656 278.608642578125 C 258.411376953125 278.608642578125 253.599853515625 279.426025390625 249.07696533203125 281.06085205078125 C 244.55413818359375 282.6956787109375 240.44827270507812 284.98760986328125 236.75942993164062 287.93670654296875 C 233.1026611328125 290.8857421875 229.97515869140625 294.36376953125 227.37689208984375 298.37066650390625 C 225.9013671875 300.710693359375 224.68243408203125 302.9705810546875 223.72012329101562 305.15032958984375 C 222.7899169921875 307.330078125 222.08419799804688 309.50982666015625 221.60305786132812 311.6895751953125 C 221.15399169921875 313.8372802734375 220.929443359375 316.09716796875 220.929443359375 318.46923828125 C 220.929443359375 321.5145263671875 221.6832275390625 323.91864013671875 223.19085693359375 325.681640625 C 224.698486328125 327.41265869140625 226.25421142578125 328.27813720703125 227.85806274414062 328.27813720703125 C 230.26382446289062 328.27813720703125 232.60546875 327.556884765625 234.8829345703125 326.1143798828125 C 237.16036987304688 324.67193603515625 239.34161376953125 322.636474609375 241.4266357421875 320.0079345703125 C 243.543701171875 317.3472900390625 245.54852294921875 314.2540283203125 247.4410400390625 310.7279052734375 C 249.36566162109375 307.1697998046875 251.09783935546875 303.2911376953125 252.63751220703125 299.0919189453125 C 253.66400146484375 296.2069091796875 254.53009033203125 293.04949951171875 255.23577880859375 289.61962890625 C 255.94146728515625 286.15765380859375 256.5028076171875 282.72772216796875 256.9197998046875 279.32989501953125 C 257.368896484375 275.89996337890625 257.72174072265625 272.82269287109375 257.97833251953125 270.0980224609375 C 258.1066589355469 268.9439697265625 258.1708068847656 267.82208251953125 258.1708068847656 266.732177734375 C 258.1708068847656 265.6102294921875 258.1066589355469 264.39215087890625 257.97833251953125 263.077880859375 C 259.18121337890625 263.14202880859375 260.3841247558594 263.20611572265625 261.5870056152344 263.270263671875M 226.65518188476562 271.97320556640625 C 227.2646484375 274.60174560546875 228.06655883789062 277.422607421875 229.06094360351562 280.435791015625 C 230.05532836914062 283.448974609375 231.09783935546875 286.3980712890625 232.18844604492188 289.28302001953125 C 233.3111572265625 292.13592529296875 234.3536376953125 294.76446533203125 235.31594848632812 297.1685791015625 C 236.31036376953125 299.57275390625 237.14434814453125 301.5120849609375 237.81796264648438 302.986572265625 C 238.74819946289062 305.006103515625 239.95108032226562 307.29803466796875 241.4266357421875 309.8624267578125 C 242.90216064453125 312.4268798828125 244.377685546875 314.6226806640625 245.85324096679688 316.4498291015625 C 245.3720703125 317.155029296875 244.89093017578125 317.8602294921875 244.4097900390625 318.5654296875 C 243.4154052734375 317.41143798828125 242.3408203125 315.9849853515625 241.18603515625 314.28607177734375 C 240.0633544921875 312.587158203125 239.02084350585938 310.8721923828125 238.05853271484375 309.1412353515625 C 237.09622192382812 307.378173828125 236.27825927734375 305.79144287109375 235.60464477539062 304.3809814453125 C 234.802734375 302.5218505859375 233.82437133789062 300.19781494140625 232.66961669921875 297.40899658203125 C 231.54690551757812 294.588134765625 230.44024658203125 291.71923828125 229.34963989257812 288.80218505859375 C 228.29110717773438 285.8851318359375 227.42501831054688 283.3848876953125 226.75140380859375 281.30126953125 C 226.43063354492188 280.1793212890625 226.09381103515625 279.12152099609375 225.740966796875 278.1278076171875 C 225.42019653320312 277.10205078125 225.08340454101562 276.15643310546875 224.73056030273438 275.2908935546875 C 224.4097900390625 274.4254150390625 224.10504150390625 273.6561279296875 223.81634521484375 272.98297119140625 C 224.76263427734375 272.6463623046875 225.70889282226562 272.309814453125 226.65518188476562 271.97320556640625"/>
    <path stroke-width="0" fill="rgb(0, 0, 0)" opacity="1.0" d="M 312.01202392578125 278.0316162109375 C 313.42340087890625 278.2239990234375 314.9310302734375 278.36822509765625 316.5348815917969 278.46435546875 C 318.13873291015625 278.560546875 320.0793762207031 278.608642578125 322.35687255859375 278.608642578125 C 325.2437744140625 278.608642578125 328.3392333984375 278.512451171875 331.64312744140625 278.32012939453125 C 334.94708251953125 278.09576416015625 338.47552490234375 277.64697265625 342.228515625 276.97381591796875 C 345.9815673828125 276.26861572265625 349.927001953125 275.24285888671875 354.06494140625 273.89654541015625 C 354.0970458984375 274.90625 354.129150390625 275.916015625 354.16119384765625 276.92578125 C 350.76104736328125 277.8553466796875 347.2806396484375 278.65673828125 343.7200927734375 279.32989501953125 C 340.191650390625 279.970947265625 336.631103515625 280.46783447265625 333.03851318359375 280.8204345703125 C 329.44586181640625 281.1409912109375 325.8532409667969 281.30126953125 322.2606201171875 281.30126953125 C 320.720947265625 281.30126953125 319.0208435058594 281.2852783203125 317.160400390625 281.253173828125 C 315.3320007324219 281.22113037109375 313.6800537109375 281.173095703125 312.2044677734375 281.10894775390625 C 312.14031982421875 280.08319091796875 312.076171875 279.057373046875 312.01202392578125 278.0316162109375M 341.60302734375 261.8277587890625 C 341.2181396484375 263.174072265625 340.76904296875 264.905029296875 340.25579833984375 267.02069091796875 C 339.774658203125 269.1363525390625 339.245361328125 271.31610107421875 338.66796875 273.5599365234375 C 338.09063720703125 275.8038330078125 337.4971923828125 277.82330322265625 336.8876953125 279.618408203125 C 335.3480224609375 284.0419921875 333.42340087890625 288.6739501953125 331.1138916015625 293.5142822265625 C 328.8043212890625 298.3546142578125 326.3504333496094 303.00262451171875 323.752197265625 307.45831298828125 C 321.1539611816406 311.9139404296875 318.6038513183594 315.776611328125 316.1018371582031 319.0462646484375 C 315.07537841796875 318.48529052734375 314.0489196777344 317.92431640625 313.0224609375 317.3634033203125 C 315.07537841796875 315.08740234375 317.1282958984375 312.4268798828125 319.18121337890625 309.381591796875 C 321.234130859375 306.33636474609375 323.1748046875 303.1148681640625 325.0032043457031 299.71697998046875 C 326.8636474609375 296.287109375 328.5798034667969 292.8731689453125 330.15155029296875 289.475341796875 C 331.72332763671875 286.04541015625 333.00640869140625 282.85595703125 334.00079345703125 279.9068603515625 C 334.86688232421875 277.37451171875 335.73297119140625 274.39337158203125 336.5989990234375 270.9635009765625 C 337.465087890625 267.50152587890625 337.9622802734375 264.32806396484375 338.09063720703125 261.443115234375 C 339.26141357421875 261.5712890625 340.4322509765625 261.69952392578125 341.60302734375 261.8277587890625M 363.49560546875 290.0523681640625 C 363.431396484375 291.91156005859375 363.3673095703125 293.402099609375 363.3031005859375 294.5240478515625 C 363.23895263671875 295.6138916015625 363.23895263671875 296.7999267578125 363.3031005859375 298.0821533203125 C 363.3673095703125 299.7490234375 363.431396484375 301.7845458984375 363.49560546875 304.188720703125 C 363.591796875 306.5927734375 363.7041015625 309.1412353515625 363.8323974609375 311.8338623046875 C 363.960693359375 314.494384765625 364.072998046875 317.0748291015625 364.169189453125 319.5751953125 C 364.26544189453125 322.04345703125 364.31353759765625 324.175048828125 364.31353759765625 325.97021484375 C 364.31353759765625 327.9896240234375 363.76824951171875 329.88092041015625 362.6776123046875 331.6439208984375 C 361.61907958984375 333.406982421875 360.0152587890625 334.8013916015625 357.8660888671875 335.8271484375 C 355.7490234375 336.885009765625 353.0545654296875 337.41387939453125 349.78271484375 337.41387939453125 C 346.83160400390625 337.41387939453125 344.12109375 337.0452880859375 341.65118408203125 336.3079833984375 C 339.21331787109375 335.5706787109375 337.2406005859375 334.36865234375 335.73297119140625 332.7017822265625 C 334.225341796875 331.034912109375 333.4715576171875 328.8551025390625 333.4715576171875 326.1624755859375 C 333.4715576171875 323.43780517578125 334.2734375 321.22601318359375 335.8773193359375 319.527099609375 C 337.51324462890625 317.796142578125 339.5982666015625 316.513916015625 342.13232421875 315.680419921875 C 344.6663818359375 314.8470458984375 347.24859619140625 314.4302978515625 349.87890625 314.4302978515625 C 354.8829345703125 314.4302978515625 359.42181396484375 315.1195068359375 363.49560546875 316.49786376953125 C 367.6014404296875 317.876220703125 371.30633544921875 319.623291015625 374.6102294921875 321.7388916015625 C 377.9141845703125 323.822509765625 380.817138671875 325.8740234375 383.31915283203125 327.89349365234375 C 382.7418212890625 328.75897216796875 382.1644287109375 329.62451171875 381.5870361328125 330.489990234375 C 379.662353515625 328.8231201171875 377.577392578125 327.1722412109375 375.33203125 325.5374755859375 C 373.08660888671875 323.902587890625 370.6326904296875 322.444091796875 367.9703369140625 321.161865234375 C 365.34002685546875 319.87969970703125 362.53326416015625 318.837890625 359.55010986328125 318.0364990234375 C 356.56695556640625 317.235107421875 353.4073486328125 316.83447265625 350.07135009765625 316.83447265625 C 345.96551513671875 316.83447265625 342.61346435546875 317.7159423828125 340.0152587890625 319.47900390625 C 337.4169921875 321.2099609375 336.117919921875 323.40576171875 336.117919921875 326.06634521484375 C 336.117919921875 328.662841796875 337.1925048828125 330.762451171875 339.34161376953125 332.36517333984375 C 341.5228271484375 333.9359130859375 344.955078125 334.72125244140625 349.6383056640625 334.72125244140625 C 352.653564453125 334.72125244140625 355.0433349609375 334.2884521484375 356.80755615234375 333.4229736328125 C 358.6038818359375 332.52545166015625 359.886962890625 331.33941650390625 360.65673828125 329.8648681640625 C 361.4266357421875 328.390380859375 361.8115234375 326.8516845703125 361.8115234375 325.2489013671875 C 361.8115234375 323.0692138671875 361.763427734375 320.536865234375 361.667236328125 317.65185546875 C 361.57098388671875 314.766845703125 361.44268798828125 311.70562744140625 361.28228759765625 308.468017578125 C 361.15399169921875 305.23046875 361.025634765625 302.02496337890625 360.8973388671875 298.85150146484375 C 360.76904296875 295.64599609375 360.6728515625 292.712890625 360.608642578125 290.0523681640625 C 361.57098388671875 290.0523681640625 362.53326416015625 290.0523681640625 363.49560546875 290.0523681640625M 384.5220947265625 290.0523681640625 C 382.98236083984375 288.64190673828125 381.0096435546875 287.1673583984375 378.6038818359375 285.62872314453125 C 376.2301025390625 284.090087890625 373.7762451171875 282.631591796875 371.2421875 281.253173828125 C 368.7081298828125 279.87481689453125 366.46270751953125 278.7208251953125 364.5059814453125 277.791259765625 C 364.9871826171875 277.0860595703125 365.46832275390625 276.38079833984375 365.949462890625 275.67559814453125 C 367.61749267578125 276.412841796875 369.413818359375 277.29437255859375 371.33837890625 278.32012939453125 C 373.29510498046875 279.3138427734375 375.2197265625 280.3876953125 377.1123046875 281.54168701171875 C 379.036865234375 282.66363525390625 380.8011474609375 283.76953125 382.40496826171875 284.859375 C 384.0087890625 285.917236328125 385.3079833984375 286.8468017578125 386.3023681640625 287.648193359375 C 385.7088623046875 288.4495849609375 385.115478515625 289.2509765625 384.5220947265625 290.0523681640625"/>
    <path stroke-width="0" fill="rgb(0, 0, 0)" opacity="1.0" d="M 465.83721923828125 264.953125 C 466.382568359375 265.94683837890625 467.0240478515625 267.22906494140625 467.7618408203125 268.79974365234375 C 468.4996337890625 270.33837890625 469.23736572265625 271.9251708984375 469.97509765625 273.5599365234375 C 470.712890625 275.19476318359375 471.33837890625 276.6693115234375 471.8516845703125 277.98358154296875 C 470.92138671875 278.32012939453125 469.9912109375 278.65673828125 469.0609130859375 278.9932861328125 C 468.6439208984375 277.6790771484375 468.08258056640625 276.22052001953125 467.37689208984375 274.6177978515625 C 466.67120361328125 272.98297119140625 465.949462890625 271.3641357421875 465.211669921875 269.76141357421875 C 464.5059814453125 268.15869140625 463.848388671875 266.828369140625 463.239013671875 265.7705078125 C 464.10504150390625 265.498046875 464.97113037109375 265.2255859375 465.83721923828125 264.953125M 474.6904296875 262.260498046875 C 475.2999267578125 263.318359375 475.9735107421875 264.60052490234375 476.7113037109375 266.10711669921875 C 477.48114013671875 267.61370849609375 478.2349853515625 269.16839599609375 478.9727783203125 270.7711181640625 C 479.71051025390625 272.3739013671875 480.3199462890625 273.84844970703125 480.8011474609375 275.19476318359375 C 479.83880615234375 275.5313720703125 478.87646484375 275.867919921875 477.9141845703125 276.2044677734375 C 477.1123046875 274.12091064453125 476.166015625 271.81292724609375 475.07537841796875 269.28057861328125 C 474.016845703125 266.74822998046875 473.00640869140625 264.6806640625 472.0440673828125 263.077880859375 C 472.92626953125 262.805419921875 473.808349609375 262.532958984375 474.6904296875 262.260498046875M 456.214111328125 291.8314208984375 C 456.214111328125 298.4027099609375 455.84521484375 304.12457275390625 455.107421875 308.9969482421875 C 454.36968994140625 313.8372802734375 453.070556640625 318.05255126953125 451.2100830078125 321.6427001953125 C 449.3817138671875 325.20086669921875 446.84765625 328.34228515625 443.60784912109375 331.06695556640625 C 440.3680419921875 333.75958251953125 436.26220703125 336.243896484375 431.290283203125 338.519775390625 C 430.456298828125 337.7183837890625 429.622314453125 336.9169921875 428.788330078125 336.1156005859375 C 432.7337646484375 334.44873046875 436.2301025390625 332.589599609375 439.2774658203125 330.53802490234375 C 442.3248291015625 328.48651123046875 444.906982421875 325.8900146484375 447.0240478515625 322.7486572265625 C 449.14111328125 319.607177734375 450.7449951171875 315.600341796875 451.8355712890625 310.7279052734375 C 452.92620849609375 305.8555908203125 453.4715576171875 299.797119140625 453.4715576171875 292.5526123046875 C 453.4715576171875 285.78900146484375 453.4715576171875 279.025390625 453.4715576171875 272.26171875 C 453.4715576171875 270.46661376953125 453.4073486328125 268.927978515625 453.279052734375 267.645751953125 C 453.1507568359375 266.33154296875 453.08660888671875 265.67437744140625 453.08660888671875 265.67437744140625 C 454.2574462890625 265.67437744140625 455.42822265625 265.67437744140625 456.5989990234375 265.67437744140625 C 456.5989990234375 265.67437744140625 456.534912109375 266.33154296875 456.4066162109375 267.645751953125 C 456.27825927734375 268.927978515625 456.214111328125 270.46661376953125 456.214111328125 272.26171875 C 456.214111328125 278.784912109375 456.214111328125 285.30816650390625 456.214111328125 291.8314208984375M 423.06256103515625 266.05902099609375 C 423.06256103515625 266.05902099609375 423.014404296875 266.555908203125 422.918212890625 267.54962158203125 C 422.82196044921875 268.51123046875 422.77386474609375 269.6812744140625 422.77386474609375 271.05963134765625 C 422.77386474609375 282.61553955078125 422.77386474609375 294.17144775390625 422.77386474609375 305.727294921875 C 422.77386474609375 306.5927734375 422.805908203125 307.5865478515625 422.8701171875 308.70849609375 C 422.9342041015625 309.79833984375 422.98236083984375 310.74395751953125 423.014404296875 311.54534912109375 C 423.0465087890625 312.3466796875 423.06256103515625 312.7474365234375 423.06256103515625 312.7474365234375 C 421.923828125 312.7474365234375 420.7850341796875 312.7474365234375 419.6463623046875 312.7474365234375 C 419.6463623046875 312.7474365234375 419.67840576171875 312.36279296875 419.7425537109375 311.5933837890625 C 419.8067626953125 310.8240966796875 419.870849609375 309.89453125 419.93505859375 308.80462646484375 C 419.99920654296875 307.6827392578125 420.03125 306.65692138671875 420.03125 305.727294921875 C 420.03125 294.1875 420.03125 282.6475830078125 420.03125 271.10772705078125 C 420.03125 270.4345703125 420.0152587890625 269.60113525390625 419.983154296875 268.607421875 C 419.9510498046875 267.5816650390625 419.870849609375 266.732177734375 419.7425537109375 266.05902099609375 C 420.8492431640625 266.05902099609375 421.9559326171875 266.05902099609375 423.06256103515625 266.05902099609375M 399.3897705078125 285.24407958984375 C 399.3897705078125 285.24407958984375 399.870849609375 285.276123046875 400.83319091796875 285.3402099609375 C 401.7955322265625 285.404296875 402.9503173828125 285.46844482421875 404.2974853515625 285.5325927734375 C 405.644775390625 285.5966796875 406.84765625 285.62872314453125 407.90618896484375 285.62872314453125 C 428.515625 285.62872314453125 449.1251220703125 285.62872314453125 469.73455810546875 285.62872314453125 C 471.3704833984375 285.62872314453125 472.8941650390625 285.5645751953125 474.3055419921875 285.4364013671875 C 475.7490234375 285.30816650390625 476.470703125 285.24407958984375 476.470703125 285.24407958984375 C 476.470703125 286.38201904296875 476.470703125 287.52001953125 476.470703125 288.657958984375 C 476.470703125 288.657958984375 475.7490234375 288.6258544921875 474.3055419921875 288.561767578125 C 472.8941650390625 288.465576171875 471.3704833984375 288.41754150390625 469.73455810546875 288.41754150390625 C 449.1251220703125 288.41754150390625 428.515625 288.41754150390625 407.90618896484375 288.41754150390625 C 406.8155517578125 288.41754150390625 405.59661865234375 288.43359375 404.2493896484375 288.465576171875 C 402.9342041015625 288.465576171875 401.7955322265625 288.4976806640625 400.83319091796875 288.561767578125 C 399.870849609375 288.6258544921875 399.3897705078125 288.657958984375 399.3897705078125 288.657958984375 C 399.3897705078125 287.52001953125 399.3897705078125 286.38201904296875 399.3897705078125 285.24407958984375"/>
  </g>
</svg>
