<?xml version="1.0" ?>
<svg xmlns="http://www.w3.org/2000/svg" version="1.1" width="600" height="600">
  <defs/>
  <g>
    <path stroke-width="0" fill="rgb(0, 0, 0)" opacity="1.0" d="M 199.25634765625 443.767822265625 C 267.22314453125 443.767822265625 335.18994140625 443.767822265625 403.1572265625 443.767822265625 C 403.1572265625 447.60125732421875 403.1572265625 451.4346923828125 403.1572265625 455.26806640625 C 335.18994140625 455.26806640625 267.22314453125 455.26806640625 199.25634765625 455.26806640625 C 199.25634765625 451.4346923828125 199.25634765625 447.60125732421875 199.25634765625 443.767822265625M 193.91748046875 319.93438720703125 C 265.78564453125 319.93438720703125 337.654296875 319.93438720703125 409.5224609375 319.93438720703125 C 409.5224609375 370.65887451171875 409.5224609375 421.38330078125 409.5224609375 472.1077880859375 C 405.68994140625 472.1077880859375 401.8564453125 472.1077880859375 398.02392578125 472.1077880859375 C 398.02392578125 425.3536376953125 398.02392578125 378.59954833984375 398.02392578125 331.84539794921875 C 333.8896484375 331.84539794921875 269.755859375 331.84539794921875 205.62158203125 331.84539794921875 C 205.62158203125 379.01025390625 205.62158203125 426.1751708984375 205.62158203125 473.3399658203125 C 201.72021484375 473.3399658203125 197.81884765625 473.3399658203125 193.91748046875 473.3399658203125 C 193.91748046875 422.204833984375 193.91748046875 371.069580078125 193.91748046875 319.93438720703125M 298.22900390625 202.05648803710938 C 287.5517578125 219.991455078125 273.38330078125 238.54251098632812 255.72412109375 257.70965576171875 C 238.06494140625 276.87677001953125 218.42138671875 295.1540222167969 196.7919921875 312.5413818359375 C 175.1630859375 329.9287109375 152.78125 345.05706787109375 129.646484375 357.9263916015625 C 128.8251953125 356.557373046875 127.72998046875 355.188232421875 126.36083984375 353.81915283203125 C 125.12890625 352.31317138671875 123.69140625 350.8756103515625 122.048828125 349.506591796875 C 145.45751953125 336.9110107421875 168.044921875 321.9195556640625 189.810546875 304.5322265625 C 211.71337890625 287.00799560546875 231.494140625 268.38848876953125 249.1533203125 248.6737060546875 C 266.94921875 228.95892333984375 281.11767578125 209.38104248046875 291.658203125 189.94012451171875 C 295.2861328125 189.94012451171875 298.9140625 189.94012451171875 302.54150390625 189.94012451171875 C 312.80810546875 205.41073608398438 324.8544921875 220.67596435546875 338.68115234375 235.73590087890625 C 352.50732421875 250.65887451171875 367.29150390625 264.96575927734375 383.0341796875 278.6565856933594 C 398.7763671875 292.347412109375 414.861328125 304.8060302734375 431.28857421875 316.03253173828125 C 447.7158203125 327.1220703125 463.73193359375 336.5687255859375 479.337890625 344.37249755859375 C 477.96875 345.7415771484375 476.53173828125 347.45294189453125 475.025390625 349.506591796875 C 473.65673828125 351.42327880859375 472.4248046875 352.9976806640625 471.32958984375 354.2298583984375 C 450.384765625 343.00341796875 429.02978515625 329.244140625 407.26416015625 312.95208740234375 C 385.634765625 296.6600341796875 365.30615234375 278.9988708496094 346.2783203125 259.9686279296875 C 327.38720703125 240.801513671875 311.37109375 221.4974365234375 298.22900390625 202.05648803710938M 345.251953125 135.1083984375 C 348.12646484375 132.7125244140625 351.0009765625 130.31658935546875 353.8759765625 127.92071533203125 C 367.29150390625 136.9566650390625 380.912109375 147.0194091796875 394.73828125 158.10897827148438 C 408.701171875 169.06161499023438 421.7060546875 180.01425170898438 433.75244140625 190.9669189453125 C 445.93603515625 201.78265380859375 455.7236328125 211.70849609375 463.1162109375 220.74444580078125 C 459.96728515625 223.48260498046875 456.81884765625 226.22076416015625 453.67041015625 228.95892333984375 C 446.2783203125 220.05987548828125 436.62744140625 209.99713134765625 424.7177734375 198.77069091796875 C 412.94482421875 187.54421997070312 400.0771484375 176.38619995117188 386.1142578125 165.296630859375 C 372.28759765625 154.0701904296875 358.66748046875 144.0074462890625 345.251953125 135.1083984375M 242.37744140625 128.33145141601562 C 246.0048828125 129.632080078125 249.6328125 130.93267822265625 253.26025390625 132.23333740234375 C 244.08837890625 144.96578979492188 233.6845703125 157.35598754882812 222.048828125 169.40390014648438 C 210.5498046875 181.4517822265625 198.57177734375 192.815185546875 186.1142578125 203.4940185546875 C 173.6572265625 214.1728515625 161.4052734375 223.68798828125 149.35888671875 232.03936767578125 C 148.8115234375 231.2178955078125 147.85302734375 230.396484375 146.484375 229.57501220703125 C 145.251953125 228.61666870117188 143.95166015625 227.65829467773438 142.58251953125 226.699951171875 C 141.2138671875 225.60467529296875 140.05029296875 224.78323364257812 139.091796875 224.235595703125 C 151.68603515625 216.0211181640625 164.27978515625 206.8482666015625 176.8740234375 196.717041015625 C 189.46826171875 186.44894409179688 201.3095703125 175.49627685546875 212.39794921875 163.85910034179688 C 223.623046875 152.08499145507812 233.6162109375 140.24246215820312 242.37744140625 128.33145141601562"/>
  </g>
</svg>
