<?xml version="1.0" encoding="utf-8"?>
<svg xmlns="http://www.w3.org/2000/svg" xmlns:ev="http://www.w3.org/2001/xml-events" xmlns:xlink="http://www.w3.org/1999/xlink" version="1.1" baseProfile="full" width="13258.0" height="1736.0" viewBox="94.0 -1596.0 13258.0 1736.0">
<defs/>
<g><path d="M 449.000000 -1588.000000 C 468.333333 -1581.666667 487.666667 -1575.333333 507.000000 -1569.000000 C 483.666667 -1521.666667 458.666667 -1471.000000 432.000000 -1417.000000 C 405.333333 -1363.000000 377.333333 -1310.666667 348.000000 -1260.000000 C 319.333333 -1210.000000 291.666667 -1165.000000 265.000000 -1125.000000 C 249.000000 -1131.333333 233.000000 -1137.666667 217.000000 -1144.000000 C 243.666667 -1184.000000 271.333333 -1230.000000 300.000000 -1282.000000 C 329.333333 -1334.666667 357.000000 -1388.000000 383.000000 -1442.000000 C 409.000000 -1496.666667 431.000000 -1545.333333 449.000000 -1588.000000z M 94.000000 -1165.000000 C 159.333333 -1167.666667 234.333333 -1170.666667 319.000000 -1174.000000 C 404.333333 -1177.333333 496.000000 -1181.000000 594.000000 -1185.000000 C 692.000000 -1189.666667 791.666667 -1194.000000 893.000000 -1198.000000 C 892.333333 -1179.333333 891.666667 -1160.666667 891.000000 -1142.000000 C 795.000000 -1137.333333 699.000000 -1132.666667 603.000000 -1128.000000 C 507.000000 -1123.333333 416.333333 -1119.000000 331.000000 -1115.000000 C 246.333333 -1111.666667 170.000000 -1108.000000 102.000000 -1104.000000 C 99.333333 -1124.333333 96.666667 -1144.666667 94.000000 -1165.000000z M 213.000000 -920.000000 C 415.333333 -920.000000 617.666667 -920.000000 820.000000 -920.000000 C 820.000000 -901.333333 820.000000 -882.666667 820.000000 -864.000000 C 636.333333 -864.000000 452.666667 -864.000000 269.000000 -864.000000 C 269.000000 -532.000000 269.000000 -200.000000 269.000000 132.000000 C 250.333333 132.000000 231.666667 132.000000 213.000000 132.000000 C 213.000000 -218.666667 213.000000 -569.333333 213.000000 -920.000000z M 799.000000 -920.000000 C 817.333333 -920.000000 835.666667 -920.000000 854.000000 -920.000000 C 854.000000 -601.666667 854.000000 -283.333333 854.000000 35.000000 C 854.000000 59.000000 850.333333 77.333333 843.000000 90.000000 C 836.333333 102.666667 823.333333 112.333333 804.000000 119.000000 C 784.000000 124.333333 753.666667 127.333333 713.000000 128.000000 C 673.000000 128.666667 621.666667 129.000000 559.000000 129.000000 C 557.666667 121.000000 554.666667 111.333333 550.000000 100.000000 C 545.333333 88.666667 540.666667 78.333333 536.000000 69.000000 C 592.000000 70.333333 640.333333 71.000000 681.000000 71.000000 C 722.333333 71.000000 750.666667 70.333333 766.000000 69.000000 C 780.000000 69.000000 789.000000 66.666667 793.000000 62.000000 C 797.000000 58.000000 799.000000 49.333333 799.000000 36.000000 C 799.000000 -282.666667 799.000000 -601.333333 799.000000 -920.000000z M 244.000000 -636.000000 C 436.000000 -636.000000 628.000000 -636.000000 820.000000 -636.000000 C 820.000000 -617.333333 820.000000 -598.666667 820.000000 -580.000000 C 628.000000 -580.000000 436.000000 -580.000000 244.000000 -580.000000 C 244.000000 -598.666667 244.000000 -617.333333 244.000000 -636.000000z M 244.000000 -342.000000 C 436.000000 -342.000000 628.000000 -342.000000 820.000000 -342.000000 C 820.000000 -322.666667 820.000000 -303.333333 820.000000 -284.000000 C 628.000000 -284.000000 436.000000 -284.000000 244.000000 -284.000000 C 244.000000 -303.333333 244.000000 -322.666667 244.000000 -342.000000z M 1066.000000 -1596.000000 C 1084.333333 -1596.000000 1102.666667 -1596.000000 1121.000000 -1596.000000 C 1121.000000 -1364.000000 1121.000000 -1132.000000 1121.000000 -900.000000 C 1121.000000 -872.000000 1128.666667 -853.000000 1144.000000 -843.000000 C 1159.333333 -833.666667 1192.666667 -829.000000 1244.000000 -829.000000 C 1255.333333 -829.000000 1279.000000 -829.000000 1315.000000 -829.000000 C 1351.000000 -829.000000 1391.000000 -829.000000 1435.000000 -829.000000 C 1479.000000 -829.000000 1520.666667 -829.000000 1560.000000 -829.000000 C 1599.333333 -829.000000 1627.333333 -829.000000 1644.000000 -829.000000 C 1673.333333 -829.000000 1695.333333 -835.000000 1710.000000 -847.000000 C 1724.666667 -859.666667 1734.666667 -883.666667 1740.000000 -919.000000 C 1746.000000 -954.333333 1750.333333 -1007.000000 1753.000000 -1077.000000 C 1758.333333 -1073.000000 1763.666667 -1069.000000 1769.000000 -1065.000000 C 1775.000000 -1061.666667 1781.333333 -1059.000000 1788.000000 -1057.000000 C 1795.333333 -1055.000000 1802.333333 -1052.666667 1809.000000 -1050.000000 C 1806.333333 -977.333333 1800.333333 -920.666667 1791.000000 -880.000000 C 1782.333333 -840.000000 1766.666667 -812.333333 1744.000000 -797.000000 C 1722.000000 -781.666667 1689.000000 -774.000000 1645.000000 -774.000000 C 1639.000000 -774.000000 1622.333333 -774.000000 1595.000000 -774.000000 C 1568.333333 -774.000000 1536.666667 -774.000000 1500.000000 -774.000000 C 1464.000000 -774.000000 1428.000000 -774.000000 1392.000000 -774.000000 C 1356.000000 -774.000000 1325.000000 -774.000000 1299.000000 -774.000000 C 1273.000000 -774.000000 1256.666667 -774.000000 1250.000000 -774.000000 C 1202.666667 -774.000000 1165.333333 -777.000000 1138.000000 -783.000000 C 1111.333333 -789.666667 1092.666667 -802.333333 1082.000000 -821.000000 C 1071.333333 -839.666667 1066.000000 -866.000000 1066.000000 -900.000000 C 1066.000000 -1132.000000 1066.000000 -1364.000000 1066.000000 -1596.000000z M 1667.000000 -1427.000000 C 1682.333333 -1411.333333 1697.666667 -1395.666667 1713.000000 -1380.000000 C 1660.333333 -1357.333333 1600.333333 -1333.666667 1533.000000 -1309.000000 C 1465.666667 -1285.000000 1395.666667 -1261.666667 1323.000000 -1239.000000 C 1251.000000 -1217.000000 1180.666667 -1195.666667 1112.000000 -1175.000000 C 1110.666667 -1181.666667 1108.000000 -1189.000000 1104.000000 -1197.000000 C 1100.000000 -1205.666667 1095.666667 -1213.000000 1091.000000 -1219.000000 C 1157.000000 -1239.666667 1225.666667 -1262.000000 1297.000000 -1286.000000 C 1369.000000 -1310.666667 1437.333333 -1335.000000 1502.000000 -1359.000000 C 1566.666667 -1383.666667 1621.666667 -1406.333333 1667.000000 -1427.000000z M 1066.000000 -707.000000 C 1084.333333 -707.000000 1102.666667 -707.000000 1121.000000 -707.000000 C 1121.000000 -475.666667 1121.000000 -244.333333 1121.000000 -13.000000 C 1121.000000 15.000000 1129.000000 34.000000 1145.000000 44.000000 C 1161.000000 54.666667 1196.666667 60.000000 1252.000000 60.000000 C 1264.666667 60.000000 1289.000000 60.000000 1325.000000 60.000000 C 1361.666667 60.000000 1403.000000 60.000000 1449.000000 60.000000 C 1495.666667 60.000000 1538.666667 60.000000 1578.000000 60.000000 C 1618.000000 60.000000 1647.000000 60.000000 1665.000000 60.000000 C 1697.000000 60.000000 1721.000000 53.333333 1737.000000 40.000000 C 1753.000000 27.333333 1763.666667 1.333333 1769.000000 -38.000000 C 1775.000000 -78.000000 1779.333333 -137.666667 1782.000000 -217.000000 C 1790.666667 -211.666667 1800.000000 -206.666667 1810.000000 -202.000000 C 1820.666667 -198.000000 1830.333333 -194.666667 1839.000000 -192.000000 C 1835.666667 -110.000000 1829.333333 -47.000000 1820.000000 -3.000000 C 1811.333333 41.000000 1795.000000 71.666667 1771.000000 89.000000 C 1747.666667 106.333333 1713.000000 115.000000 1667.000000 115.000000 C 1659.000000 115.000000 1641.000000 115.000000 1613.000000 115.000000 C 1585.666667 115.000000 1553.333333 115.000000 1516.000000 115.000000 C 1479.333333 115.000000 1442.000000 115.000000 1404.000000 115.000000 C 1366.666667 115.000000 1334.000000 115.000000 1306.000000 115.000000 C 1278.666667 115.000000 1262.000000 115.000000 1256.000000 115.000000 C 1207.333333 115.000000 1168.666667 111.666667 1140.000000 105.000000 C 1112.000000 99.000000 1092.666667 86.666667 1082.000000 68.000000 C 1071.333333 49.333333 1066.000000 22.333333 1066.000000 -13.000000 C 1066.000000 -244.333333 1066.000000 -475.666667 1066.000000 -707.000000z M 1697.000000 -578.000000 C 1710.666667 -562.666667 1724.333333 -547.333333 1738.000000 -532.000000 C 1689.333333 -501.333333 1630.000000 -472.333333 1560.000000 -445.000000 C 1490.000000 -418.333333 1416.333333 -393.333333 1339.000000 -370.000000 C 1261.666667 -347.333333 1187.333333 -326.333333 1116.000000 -307.000000 C 1114.666667 -313.666667 1111.666667 -321.333333 1107.000000 -330.000000 C 1102.333333 -339.333333 1098.000000 -347.000000 1094.000000 -353.000000 C 1164.666667 -372.333333 1238.333333 -394.000000 1315.000000 -418.000000 C 1391.666667 -442.666667 1463.666667 -468.333333 1531.000000 -495.000000 C 1598.333333 -522.333333 1653.666667 -550.000000 1697.000000 -578.000000z M 668.000000 -1434.000000 C 682.000000 -1441.000000 696.000000 -1448.000000 710.000000 -1455.000000 C 747.333333 -1413.000000 783.666667 -1367.000000 819.000000 -1317.000000 C 854.333333 -1267.000000 886.666667 -1218.000000 916.000000 -1170.000000 C 945.333333 -1122.000000 968.333333 -1079.666667 985.000000 -1043.000000 C 971.000000 -1034.000000 957.000000 -1025.000000 943.000000 -1016.000000 C 927.666667 -1054.000000 905.000000 -1097.333333 875.000000 -1146.000000 C 845.666667 -1194.666667 813.000000 -1244.333333 777.000000 -1295.000000 C 741.666667 -1345.666667 705.333333 -1392.000000 668.000000 -1434.000000z "/>
</g>
<g><path d="M 2093.000000 -1156.000000 C 2596.000000 -1156.000000 3099.000000 -1156.000000 3602.000000 -1156.000000 C 3602.000000 -1136.666667 3602.000000 -1117.333333 3602.000000 -1098.000000 C 3099.000000 -1098.000000 2596.000000 -1098.000000 2093.000000 -1098.000000 C 2093.000000 -1117.333333 2093.000000 -1136.666667 2093.000000 -1156.000000z M 3585.000000 -1156.000000 C 3604.000000 -1156.000000 3623.000000 -1156.000000 3642.000000 -1156.000000 C 3642.000000 -1156.000000 3642.000000 -1153.000000 3642.000000 -1147.000000 C 3642.000000 -1141.666667 3641.666667 -1135.666667 3641.000000 -1129.000000 C 3640.333333 -1122.333333 3640.000000 -1117.333333 3640.000000 -1114.000000 C 3627.333333 -908.666667 3615.333333 -734.666667 3604.000000 -592.000000 C 3592.666667 -449.333333 3580.000000 -332.666667 3566.000000 -242.000000 C 3552.666667 -151.333333 3538.000000 -80.666667 3522.000000 -30.000000 C 3506.000000 20.666667 3487.333333 57.000000 3466.000000 79.000000 C 3448.000000 99.000000 3429.000000 112.000000 3409.000000 118.000000 C 3389.000000 124.000000 3363.000000 127.666667 3331.000000 129.000000 C 3301.666667 130.333333 3258.000000 129.666667 3200.000000 127.000000 C 3142.666667 124.333333 3084.000000 121.000000 3024.000000 117.000000 C 3022.666667 108.333333 3021.000000 98.666667 3019.000000 88.000000 C 3017.000000 78.000000 3013.000000 68.666667 3007.000000 60.000000 C 3077.000000 66.000000 3141.666667 70.000000 3201.000000 72.000000 C 3261.000000 74.000000 3302.000000 75.000000 3324.000000 75.000000 C 3345.333333 75.000000 3363.000000 73.333333 3377.000000 70.000000 C 3391.000000 66.666667 3403.333333 59.333333 3414.000000 48.000000 C 3433.333333 28.666667 3451.000000 -6.000000 3467.000000 -56.000000 C 3483.000000 -106.000000 3497.666667 -176.666667 3511.000000 -268.000000 C 3524.333333 -359.333333 3537.000000 -476.333333 3549.000000 -619.000000 C 3561.000000 -761.666667 3573.000000 -935.333333 3585.000000 -1140.000000 C 3585.000000 -1145.333333 3585.000000 -1150.666667 3585.000000 -1156.000000z M 2759.000000 -1592.000000 C 2778.333333 -1592.000000 2797.666667 -1592.000000 2817.000000 -1592.000000 C 2817.000000 -1501.666667 2817.000000 -1411.333333 2817.000000 -1321.000000 C 2817.000000 -1232.333333 2813.000000 -1139.333333 2805.000000 -1042.000000 C 2797.666667 -945.333333 2781.333333 -846.000000 2756.000000 -744.000000 C 2731.333333 -642.000000 2692.333333 -540.000000 2639.000000 -438.000000 C 2585.666667 -336.666667 2514.000000 -237.000000 2424.000000 -139.000000 C 2334.000000 -41.000000 2219.666667 52.000000 2081.000000 140.000000 C 2078.333333 134.666667 2074.666667 129.666667 2070.000000 125.000000 C 2066.000000 121.000000 2061.333333 116.333333 2056.000000 111.000000 C 2051.333333 106.333333 2046.333333 102.666667 2041.000000 100.000000 C 2176.333333 12.666667 2288.000000 -78.666667 2376.000000 -174.000000 C 2464.666667 -269.333333 2535.000000 -366.333333 2587.000000 -465.000000 C 2639.000000 -564.333333 2677.000000 -663.333333 2701.000000 -762.000000 C 2725.666667 -860.666667 2741.333333 -957.000000 2748.000000 -1051.000000 C 2755.333333 -1145.000000 2759.000000 -1235.000000 2759.000000 -1321.000000 C 2759.000000 -1411.333333 2759.000000 -1501.666667 2759.000000 -1592.000000z "/>
</g>
<g><path d="M 4243.000000 -1196.000000 C 4684.000000 -1196.000000 5125.000000 -1196.000000 5566.000000 -1196.000000 C 5566.000000 -1177.333333 5566.000000 -1158.666667 5566.000000 -1140.000000 C 5125.000000 -1140.000000 4684.000000 -1140.000000 4243.000000 -1140.000000 C 4243.000000 -1158.666667 4243.000000 -1177.333333 4243.000000 -1196.000000z M 4153.000000 -636.000000 C 4602.333333 -636.000000 5051.666667 -636.000000 5501.000000 -636.000000 C 5501.000000 -617.333333 5501.000000 -598.666667 5501.000000 -580.000000 C 5051.666667 -580.000000 4602.333333 -580.000000 4153.000000 -580.000000 C 4153.000000 -598.666667 4153.000000 -617.333333 4153.000000 -636.000000z M 3955.000000 12.000000 C 4520.333333 12.000000 5085.666667 12.000000 5651.000000 12.000000 C 5651.000000 30.333333 5651.000000 48.666667 5651.000000 67.000000 C 5085.666667 67.000000 4520.333333 67.000000 3955.000000 67.000000 C 3955.000000 48.666667 3955.000000 30.333333 3955.000000 12.000000z M 4775.000000 -1594.000000 C 4794.333333 -1594.000000 4813.666667 -1594.000000 4833.000000 -1594.000000 C 4833.000000 -1049.333333 4833.000000 -504.666667 4833.000000 40.000000 C 4813.666667 40.000000 4794.333333 40.000000 4775.000000 40.000000 C 4775.000000 -504.666667 4775.000000 -1049.333333 4775.000000 -1594.000000z M 4356.000000 -1555.000000 C 4374.666667 -1551.333333 4393.333333 -1547.666667 4412.000000 -1544.000000 C 4385.333333 -1445.333333 4353.000000 -1349.666667 4315.000000 -1257.000000 C 4277.666667 -1165.000000 4235.666667 -1079.333333 4189.000000 -1000.000000 C 4143.000000 -920.666667 4094.000000 -850.333333 4042.000000 -789.000000 C 4038.000000 -793.000000 4032.666667 -796.666667 4026.000000 -800.000000 C 4020.000000 -804.000000 4013.666667 -808.333333 4007.000000 -813.000000 C 4000.333333 -817.666667 3994.666667 -820.666667 3990.000000 -822.000000 C 4044.666667 -882.000000 4094.666667 -950.666667 4140.000000 -1028.000000 C 4186.000000 -1105.333333 4227.000000 -1188.666667 4263.000000 -1278.000000 C 4299.666667 -1368.000000 4330.666667 -1460.333333 4356.000000 -1555.000000z "/>
</g>
<g><path d="M 6067.000000 -877.000000 C 6237.333333 -877.000000 6407.666667 -877.000000 6578.000000 -877.000000 C 6578.000000 -858.000000 6578.000000 -839.000000 6578.000000 -820.000000 C 6407.666667 -820.000000 6237.333333 -820.000000 6067.000000 -820.000000 C 6067.000000 -839.000000 6067.000000 -858.000000 6067.000000 -877.000000z M 6553.000000 -877.000000 C 6571.666667 -877.000000 6590.333333 -877.000000 6609.000000 -877.000000 C 6609.000000 -877.000000 6609.000000 -874.666667 6609.000000 -870.000000 C 6609.000000 -866.000000 6609.000000 -860.666667 6609.000000 -854.000000 C 6609.000000 -848.000000 6609.000000 -843.000000 6609.000000 -839.000000 C 6605.000000 -687.000000 6600.666667 -565.333333 6596.000000 -474.000000 C 6591.333333 -383.333333 6585.333333 -315.666667 6578.000000 -271.000000 C 6571.333333 -226.333333 6561.666667 -196.000000 6549.000000 -180.000000 C 6537.666667 -168.666667 6525.000000 -160.333333 6511.000000 -155.000000 C 6497.000000 -150.333333 6477.000000 -147.333333 6451.000000 -146.000000 C 6427.000000 -144.666667 6393.333333 -144.666667 6350.000000 -146.000000 C 6307.333333 -147.333333 6261.666667 -150.000000 6213.000000 -154.000000 C 6211.666667 -161.333333 6209.666667 -170.000000 6207.000000 -180.000000 C 6205.000000 -190.666667 6201.333333 -199.666667 6196.000000 -207.000000 C 6248.666667 -202.333333 6298.000000 -199.666667 6344.000000 -199.000000 C 6390.000000 -198.333333 6421.333333 -198.000000 6438.000000 -198.000000 C 6452.000000 -198.000000 6464.000000 -199.000000 6474.000000 -201.000000 C 6484.666667 -203.000000 6493.000000 -207.666667 6499.000000 -215.000000 C 6510.333333 -227.666667 6519.333333 -255.666667 6526.000000 -299.000000 C 6532.666667 -343.000000 6538.000000 -410.000000 6542.000000 -500.000000 C 6546.666667 -590.666667 6550.333333 -712.000000 6553.000000 -864.000000 C 6553.000000 -868.333333 6553.000000 -872.666667 6553.000000 -877.000000z M 7056.000000 -1523.000000 C 7067.666667 -1535.666667 7079.333333 -1548.333333 7091.000000 -1561.000000 C 7135.666667 -1539.000000 7182.000000 -1514.333333 7230.000000 -1487.000000 C 7278.000000 -1459.666667 7322.666667 -1432.000000 7364.000000 -1404.000000 C 7406.000000 -1376.666667 7440.333333 -1351.666667 7467.000000 -1329.000000 C 7456.000000 -1314.666667 7445.000000 -1300.333333 7434.000000 -1286.000000 C 7407.333333 -1309.333333 7372.666667 -1335.000000 7330.000000 -1363.000000 C 7288.000000 -1391.000000 7243.333333 -1419.000000 7196.000000 -1447.000000 C 7148.666667 -1475.666667 7102.000000 -1501.000000 7056.000000 -1523.000000z M 7380.000000 -975.000000 C 7398.666667 -970.000000 7417.333333 -965.000000 7436.000000 -960.000000 C 7352.666667 -709.333333 7238.666667 -495.000000 7094.000000 -317.000000 C 6949.333333 -139.000000 6776.000000 7.666667 6574.000000 123.000000 C 6571.333333 119.000000 6567.000000 114.000000 6561.000000 108.000000 C 6555.666667 102.666667 6550.333333 97.000000 6545.000000 91.000000 C 6540.333333 85.666667 6535.333333 81.000000 6530.000000 77.000000 C 6734.666667 -30.333333 6908.000000 -172.333333 7050.000000 -349.000000 C 7192.000000 -525.666667 7302.000000 -734.333333 7380.000000 -975.000000z M 6077.000000 -1231.000000 C 6574.333333 -1231.000000 7071.666667 -1231.000000 7569.000000 -1231.000000 C 7569.000000 -1212.333333 7569.000000 -1193.666667 7569.000000 -1175.000000 C 7071.666667 -1175.000000 6574.333333 -1175.000000 6077.000000 -1175.000000 C 6077.000000 -1193.666667 6077.000000 -1212.333333 6077.000000 -1231.000000z M 6044.000000 -1231.000000 C 6063.333333 -1231.000000 6082.666667 -1231.000000 6102.000000 -1231.000000 C 6102.000000 -1058.000000 6102.000000 -885.000000 6102.000000 -712.000000 C 6102.000000 -648.000000 6099.333333 -579.333333 6094.000000 -506.000000 C 6088.666667 -433.333333 6079.333333 -359.000000 6066.000000 -283.000000 C 6052.666667 -207.000000 6032.333333 -133.000000 6005.000000 -61.000000 C 5978.333333 10.333333 5942.666667 76.666667 5898.000000 138.000000 C 5895.333333 134.000000 5891.000000 129.666667 5885.000000 125.000000 C 5879.666667 121.000000 5874.000000 117.000000 5868.000000 113.000000 C 5862.666667 109.666667 5857.333333 106.666667 5852.000000 104.000000 C 5910.000000 23.333333 5952.333333 -64.333333 5979.000000 -159.000000 C 6005.666667 -253.666667 6023.000000 -349.000000 6031.000000 -445.000000 C 6039.666667 -541.000000 6044.000000 -630.666667 6044.000000 -714.000000 C 6044.000000 -886.333333 6044.000000 -1058.666667 6044.000000 -1231.000000z M 6860.000000 -1592.000000 C 6879.333333 -1592.000000 6898.666667 -1592.000000 6918.000000 -1592.000000 C 6919.333333 -1394.666667 6928.000000 -1211.000000 6944.000000 -1041.000000 C 6960.000000 -871.666667 6982.666667 -719.000000 7012.000000 -583.000000 C 7041.333333 -447.666667 7076.666667 -332.000000 7118.000000 -236.000000 C 7160.000000 -140.000000 7206.666667 -66.333333 7258.000000 -15.000000 C 7310.000000 35.666667 7366.333333 61.000000 7427.000000 61.000000 C 7459.666667 61.000000 7483.333333 33.000000 7498.000000 -23.000000 C 7513.333333 -79.666667 7523.333333 -175.000000 7528.000000 -309.000000 C 7534.666667 -303.666667 7543.333333 -298.333333 7554.000000 -293.000000 C 7565.333333 -288.333333 7574.666667 -284.666667 7582.000000 -282.000000 C 7576.666667 -182.000000 7569.000000 -102.666667 7559.000000 -44.000000 C 7549.000000 14.666667 7533.333333 56.666667 7512.000000 82.000000 C 7490.666667 108.000000 7461.000000 121.000000 7423.000000 121.000000 C 7362.333333 121.000000 7306.333333 101.000000 7255.000000 61.000000 C 7204.333333 21.666667 7158.333333 -34.666667 7117.000000 -108.000000 C 7076.333333 -182.000000 7040.333333 -270.333333 7009.000000 -373.000000 C 6977.666667 -476.333333 6951.000000 -591.666667 6929.000000 -719.000000 C 6907.666667 -846.333333 6891.000000 -983.666667 6879.000000 -1131.000000 C 6867.666667 -1278.333333 6861.333333 -1432.000000 6860.000000 -1592.000000z "/>
</g>
<g><path d="M 8440.000000 -405.000000 C 8742.333333 -405.000000 9044.666667 -405.000000 9347.000000 -405.000000 C 9347.000000 -386.000000 9347.000000 -367.000000 9347.000000 -348.000000 C 9044.666667 -348.000000 8742.333333 -348.000000 8440.000000 -348.000000 C 8440.000000 -367.000000 8440.000000 -386.000000 8440.000000 -405.000000z M 9325.000000 -405.000000 C 9329.666667 -405.000000 9334.333333 -405.000000 9339.000000 -405.000000 C 9342.666667 -406.333333 9346.333333 -407.666667 9350.000000 -409.000000 C 9362.333333 -401.333333 9374.666667 -393.666667 9387.000000 -386.000000 C 9343.666667 -308.000000 9285.333333 -239.000000 9212.000000 -179.000000 C 9139.333333 -119.666667 9057.000000 -69.000000 8965.000000 -27.000000 C 8873.666667 14.333333 8777.666667 48.666667 8677.000000 76.000000 C 8577.000000 103.333333 8477.000000 124.666667 8377.000000 140.000000 C 8374.333333 132.666667 8370.000000 123.666667 8364.000000 113.000000 C 8358.666667 103.000000 8352.666667 94.666667 8346.000000 88.000000 C 8443.333333 75.333333 8541.333333 56.000000 8640.000000 30.000000 C 8738.666667 4.666667 8832.333333 -27.000000 8921.000000 -65.000000 C 9010.333333 -103.666667 9090.000000 -150.000000 9160.000000 -204.000000 C 9230.666667 -258.666667 9285.666667 -321.333333 9325.000000 -392.000000 C 9325.000000 -396.333333 9325.000000 -400.666667 9325.000000 -405.000000z M 8663.000000 -355.000000 C 8714.333333 -279.666667 8784.000000 -212.000000 8872.000000 -152.000000 C 8960.666667 -92.666667 9061.000000 -42.333333 9173.000000 -1.000000 C 9285.000000 39.666667 9401.000000 69.333333 9521.000000 88.000000 C 9515.000000 94.666667 9508.333333 102.666667 9501.000000 112.000000 C 9494.333333 122.000000 9489.000000 130.000000 9485.000000 136.000000 C 9364.333333 114.666667 9247.666667 82.000000 9135.000000 38.000000 C 9022.333333 -5.333333 8921.000000 -58.333333 8831.000000 -121.000000 C 8741.000000 -183.666667 8669.000000 -255.333333 8615.000000 -336.000000 C 8631.000000 -342.333333 8647.000000 -348.666667 8663.000000 -355.000000z M 8404.000000 -1453.000000 C 8765.666667 -1453.000000 9127.333333 -1453.000000 9489.000000 -1453.000000 C 9489.000000 -1434.000000 9489.000000 -1415.000000 9489.000000 -1396.000000 C 9127.333333 -1396.000000 8765.666667 -1396.000000 8404.000000 -1396.000000 C 8404.000000 -1415.000000 8404.000000 -1434.000000 8404.000000 -1453.000000z M 8573.000000 -943.000000 C 8847.000000 -943.000000 9121.000000 -943.000000 9395.000000 -943.000000 C 9395.000000 -924.333333 9395.000000 -905.666667 9395.000000 -887.000000 C 9121.000000 -887.000000 8847.000000 -887.000000 8573.000000 -887.000000 C 8573.000000 -905.666667 8573.000000 -924.333333 8573.000000 -943.000000z M 8573.000000 -758.000000 C 8847.000000 -758.000000 9121.000000 -758.000000 9395.000000 -758.000000 C 9395.000000 -739.666667 9395.000000 -721.333333 9395.000000 -703.000000 C 9121.000000 -703.000000 8847.000000 -703.000000 8573.000000 -703.000000 C 8573.000000 -721.333333 8573.000000 -739.666667 8573.000000 -758.000000z M 8723.000000 -1596.000000 C 8742.000000 -1596.000000 8761.000000 -1596.000000 8780.000000 -1596.000000 C 8780.000000 -1489.000000 8780.000000 -1382.000000 8780.000000 -1275.000000 C 8761.000000 -1275.000000 8742.000000 -1275.000000 8723.000000 -1275.000000 C 8723.000000 -1382.000000 8723.000000 -1489.000000 8723.000000 -1596.000000z M 8938.000000 -1108.000000 C 8956.333333 -1108.000000 8974.666667 -1108.000000 8993.000000 -1108.000000 C 8993.000000 -921.666667 8993.000000 -735.333333 8993.000000 -549.000000 C 8974.666667 -549.000000 8956.333333 -549.000000 8938.000000 -549.000000 C 8938.000000 -735.333333 8938.000000 -921.666667 8938.000000 -1108.000000z M 9133.000000 -1596.000000 C 9151.666667 -1596.000000 9170.333333 -1596.000000 9189.000000 -1596.000000 C 9189.000000 -1489.000000 9189.000000 -1382.000000 9189.000000 -1275.000000 C 9170.333333 -1275.000000 9151.666667 -1275.000000 9133.000000 -1275.000000 C 9133.000000 -1382.000000 9133.000000 -1489.000000 9133.000000 -1596.000000z M 8644.000000 -1300.000000 C 8662.666667 -1295.333333 8681.333333 -1290.666667 8700.000000 -1286.000000 C 8661.333333 -1206.666667 8614.000000 -1130.333333 8558.000000 -1057.000000 C 8502.666667 -983.666667 8446.666667 -920.666667 8390.000000 -868.000000 C 8388.000000 -872.000000 8383.666667 -876.000000 8377.000000 -880.000000 C 8370.333333 -884.666667 8363.666667 -889.000000 8357.000000 -893.000000 C 8351.000000 -897.666667 8345.333333 -901.333333 8340.000000 -904.000000 C 8400.666667 -954.000000 8457.666667 -1013.666667 8511.000000 -1083.000000 C 8565.000000 -1153.000000 8609.333333 -1225.333333 8644.000000 -1300.000000z M 8993.000000 -1296.000000 C 9011.666667 -1288.333333 9030.333333 -1280.666667 9049.000000 -1273.000000 C 9032.333333 -1238.333333 9014.666667 -1204.000000 8996.000000 -1170.000000 C 8977.333333 -1136.000000 8959.666667 -1106.333333 8943.000000 -1081.000000 C 8927.666667 -1087.333333 8912.333333 -1093.666667 8897.000000 -1100.000000 C 8913.666667 -1128.000000 8931.333333 -1161.000000 8950.000000 -1199.000000 C 8968.666667 -1237.000000 8983.000000 -1269.333333 8993.000000 -1296.000000z M 9444.000000 -1125.000000 C 9444.000000 -1106.333333 9444.000000 -1087.666667 9444.000000 -1069.000000 C 9165.000000 -1069.000000 8886.000000 -1069.000000 8607.000000 -1069.000000 C 8607.000000 -902.666667 8607.000000 -736.333333 8607.000000 -570.000000 C 8900.333333 -570.000000 9193.666667 -570.000000 9487.000000 -570.000000 C 9487.000000 -551.666667 9487.000000 -533.333333 9487.000000 -515.000000 C 9175.333333 -515.000000 8863.666667 -515.000000 8552.000000 -515.000000 C 8552.000000 -718.333333 8552.000000 -921.666667 8552.000000 -1125.000000 C 8849.333333 -1125.000000 9146.666667 -1125.000000 9444.000000 -1125.000000z M 7847.000000 -1021.000000 C 8005.666667 -1021.000000 8164.333333 -1021.000000 8323.000000 -1021.000000 C 8323.000000 -1002.666667 8323.000000 -984.333333 8323.000000 -966.000000 C 8164.333333 -966.000000 8005.666667 -966.000000 7847.000000 -966.000000 C 7847.000000 -984.333333 7847.000000 -1002.666667 7847.000000 -1021.000000z M 7860.000000 -1519.000000 C 8013.000000 -1519.000000 8166.000000 -1519.000000 8319.000000 -1519.000000 C 8319.000000 -1500.333333 8319.000000 -1481.666667 8319.000000 -1463.000000 C 8166.000000 -1463.000000 8013.000000 -1463.000000 7860.000000 -1463.000000 C 7860.000000 -1481.666667 7860.000000 -1500.333333 7860.000000 -1519.000000z M 7847.000000 -770.000000 C 8005.666667 -770.000000 8164.333333 -770.000000 8323.000000 -770.000000 C 8323.000000 -751.333333 8323.000000 -732.666667 8323.000000 -714.000000 C 8164.333333 -714.000000 8005.666667 -714.000000 7847.000000 -714.000000 C 7847.000000 -732.666667 7847.000000 -751.333333 7847.000000 -770.000000z M 7770.000000 -1275.000000 C 7971.000000 -1275.000000 8172.000000 -1275.000000 8373.000000 -1275.000000 C 8373.000000 -1255.666667 8373.000000 -1236.333333 8373.000000 -1217.000000 C 8172.000000 -1217.000000 7971.000000 -1217.000000 7770.000000 -1217.000000 C 7770.000000 -1236.333333 7770.000000 -1255.666667 7770.000000 -1275.000000z M 7876.000000 -518.000000 C 8025.000000 -518.000000 8174.000000 -518.000000 8323.000000 -518.000000 C 8323.000000 -339.000000 8323.000000 -160.000000 8323.000000 19.000000 C 8174.000000 19.000000 8025.000000 19.000000 7876.000000 19.000000 C 7876.000000 0.000000 7876.000000 -19.000000 7876.000000 -38.000000 C 8006.666667 -38.000000 8137.333333 -38.000000 8268.000000 -38.000000 C 8268.000000 -179.000000 8268.000000 -320.000000 8268.000000 -461.000000 C 8137.333333 -461.000000 8006.666667 -461.000000 7876.000000 -461.000000 C 7876.000000 -480.000000 7876.000000 -499.000000 7876.000000 -518.000000z M 7847.000000 -518.000000 C 7866.333333 -518.000000 7885.666667 -518.000000 7905.000000 -518.000000 C 7905.000000 -305.666667 7905.000000 -93.333333 7905.000000 119.000000 C 7885.666667 119.000000 7866.333333 119.000000 7847.000000 119.000000 C 7847.000000 -93.333333 7847.000000 -305.666667 7847.000000 -518.000000z "/>
</g>
<g><path d="M 9725.000000 -503.000000 C 10284.333333 -503.000000 10843.666667 -503.000000 11403.000000 -503.000000 C 11403.000000 -483.666667 11403.000000 -464.333333 11403.000000 -445.000000 C 10843.666667 -445.000000 10284.333333 -445.000000 9725.000000 -445.000000 C 9725.000000 -464.333333 9725.000000 -483.666667 9725.000000 -503.000000z M 9936.000000 -962.000000 C 10356.000000 -962.000000 10776.000000 -962.000000 11196.000000 -962.000000 C 11196.000000 -803.333333 11196.000000 -644.666667 11196.000000 -486.000000 C 11177.333333 -486.000000 11158.666667 -486.000000 11140.000000 -486.000000 C 11140.000000 -626.000000 11140.000000 -766.000000 11140.000000 -906.000000 C 10757.333333 -906.000000 10374.666667 -906.000000 9992.000000 -906.000000 C 9992.000000 -766.000000 9992.000000 -626.000000 9992.000000 -486.000000 C 9973.333333 -486.000000 9954.666667 -486.000000 9936.000000 -486.000000 C 9936.000000 -644.666667 9936.000000 -803.333333 9936.000000 -962.000000z M 10522.000000 -1212.000000 C 10541.000000 -1212.000000 10560.000000 -1212.000000 10579.000000 -1212.000000 C 10579.000000 -1046.000000 10579.000000 -880.000000 10579.000000 -714.000000 C 10579.000000 -651.333333 10574.666667 -588.666667 10566.000000 -526.000000 C 10558.000000 -463.333333 10539.333333 -401.000000 10510.000000 -339.000000 C 10480.666667 -277.000000 10435.333333 -217.333333 10374.000000 -160.000000 C 10312.666667 -103.333333 10229.333333 -49.333333 10124.000000 2.000000 C 10019.333333 53.333333 9887.000000 99.333333 9727.000000 140.000000 C 9724.333333 134.666667 9721.000000 129.000000 9717.000000 123.000000 C 9713.000000 117.666667 9709.000000 112.000000 9705.000000 106.000000 C 9701.666667 100.666667 9698.000000 96.000000 9694.000000 92.000000 C 9851.333333 52.666667 9981.000000 8.666667 10083.000000 -40.000000 C 10185.666667 -88.666667 10266.666667 -140.000000 10326.000000 -194.000000 C 10386.000000 -248.666667 10429.666667 -305.000000 10457.000000 -363.000000 C 10485.000000 -421.666667 10502.666667 -480.333333 10510.000000 -539.000000 C 10518.000000 -598.333333 10522.000000 -656.666667 10522.000000 -714.000000 C 10522.000000 -880.000000 10522.000000 -1046.000000 10522.000000 -1212.000000z M 10629.000000 -490.000000 C 10689.000000 -327.333333 10788.333333 -198.666667 10927.000000 -104.000000 C 11066.333333 -9.333333 11238.333333 54.666667 11443.000000 88.000000 C 11438.333333 92.000000 11433.333333 97.000000 11428.000000 103.000000 C 11422.666667 109.666667 11418.000000 116.000000 11414.000000 122.000000 C 11410.666667 128.666667 11407.000000 134.666667 11403.000000 140.000000 C 11265.666667 113.333333 11142.333333 74.000000 11033.000000 22.000000 C 10923.666667 -30.000000 10830.333333 -96.666667 10753.000000 -178.000000 C 10675.666667 -260.000000 10615.666667 -358.000000 10573.000000 -472.000000 C 10591.666667 -478.000000 10610.333333 -484.000000 10629.000000 -490.000000z M 9752.000000 -1388.000000 C 10288.333333 -1388.000000 10824.666667 -1388.000000 11361.000000 -1388.000000 C 11361.000000 -1369.333333 11361.000000 -1350.666667 11361.000000 -1332.000000 C 10824.666667 -1332.000000 10288.333333 -1332.000000 9752.000000 -1332.000000 C 9752.000000 -1350.666667 9752.000000 -1369.333333 9752.000000 -1388.000000z M 10189.000000 -1594.000000 C 10207.666667 -1594.000000 10226.333333 -1594.000000 10245.000000 -1594.000000 C 10245.000000 -1430.000000 10245.000000 -1266.000000 10245.000000 -1102.000000 C 10226.333333 -1102.000000 10207.666667 -1102.000000 10189.000000 -1102.000000 C 10189.000000 -1266.000000 10189.000000 -1430.000000 10189.000000 -1594.000000z M 10865.000000 -1594.000000 C 10883.666667 -1594.000000 10902.333333 -1594.000000 10921.000000 -1594.000000 C 10921.000000 -1430.000000 10921.000000 -1266.000000 10921.000000 -1102.000000 C 10902.333333 -1102.000000 10883.666667 -1102.000000 10865.000000 -1102.000000 C 10865.000000 -1266.000000 10865.000000 -1430.000000 10865.000000 -1594.000000z "/>
</g>
<g><path d="M 12457.000000 -526.000000 C 12717.333333 -526.000000 12977.666667 -526.000000 13238.000000 -526.000000 C 13238.000000 -308.333333 13238.000000 -90.666667 13238.000000 127.000000 C 13219.666667 127.000000 13201.333333 127.000000 13183.000000 127.000000 C 13183.000000 -71.333333 13183.000000 -269.666667 13183.000000 -468.000000 C 12960.333333 -468.000000 12737.666667 -468.000000 12515.000000 -468.000000 C 12515.000000 -267.333333 12515.000000 -66.666667 12515.000000 134.000000 C 12495.666667 134.000000 12476.333333 134.000000 12457.000000 134.000000 C 12457.000000 -86.000000 12457.000000 -306.000000 12457.000000 -526.000000z M 12392.000000 -1192.000000 C 12653.666667 -1192.000000 12915.333333 -1192.000000 13177.000000 -1192.000000 C 13177.000000 -1045.000000 13177.000000 -898.000000 13177.000000 -751.000000 C 13157.666667 -751.000000 13138.333333 -751.000000 13119.000000 -751.000000 C 13119.000000 -879.666667 13119.000000 -1008.333333 13119.000000 -1137.000000 C 12876.666667 -1137.000000 12634.333333 -1137.000000 12392.000000 -1137.000000 C 12392.000000 -1155.333333 12392.000000 -1173.666667 12392.000000 -1192.000000z M 12712.000000 -1492.000000 C 12731.333333 -1489.333333 12750.666667 -1486.666667 12770.000000 -1484.000000 C 12758.666667 -1408.666667 12745.333333 -1325.333333 12730.000000 -1234.000000 C 12714.666667 -1143.333333 12698.666667 -1055.333333 12682.000000 -970.000000 C 12665.333333 -885.333333 12650.000000 -813.000000 12636.000000 -753.000000 C 12616.666667 -753.000000 12597.333333 -753.000000 12578.000000 -753.000000 C 12589.333333 -799.000000 12601.000000 -852.666667 12613.000000 -914.000000 C 12625.666667 -975.333333 12637.666667 -1040.000000 12649.000000 -1108.000000 C 12660.333333 -1176.000000 12671.333333 -1242.666667 12682.000000 -1308.000000 C 12693.333333 -1374.000000 12703.333333 -1435.333333 12712.000000 -1492.000000z M 12363.000000 -1507.000000 C 12674.000000 -1507.000000 12985.000000 -1507.000000 13296.000000 -1507.000000 C 13296.000000 -1488.666667 13296.000000 -1470.333333 13296.000000 -1452.000000 C 12985.000000 -1452.000000 12674.000000 -1452.000000 12363.000000 -1452.000000 C 12363.000000 -1470.333333 12363.000000 -1488.666667 12363.000000 -1507.000000z M 12317.000000 -772.000000 C 12662.000000 -772.000000 13007.000000 -772.000000 13352.000000 -772.000000 C 13352.000000 -753.333333 13352.000000 -734.666667 13352.000000 -716.000000 C 13007.000000 -716.000000 12662.000000 -716.000000 12317.000000 -716.000000 C 12317.000000 -734.666667 12317.000000 -753.333333 12317.000000 -772.000000z M 12495.000000 -25.000000 C 12732.666667 -25.000000 12970.333333 -25.000000 13208.000000 -25.000000 C 13208.000000 -6.333333 13208.000000 12.333333 13208.000000 31.000000 C 12970.333333 31.000000 12732.666667 31.000000 12495.000000 31.000000 C 12495.000000 12.333333 12495.000000 -6.333333 12495.000000 -25.000000z M 11699.000000 -1014.000000 C 11875.000000 -1014.000000 12051.000000 -1014.000000 12227.000000 -1014.000000 C 12227.000000 -995.333333 12227.000000 -976.666667 12227.000000 -958.000000 C 12051.000000 -958.000000 11875.000000 -958.000000 11699.000000 -958.000000 C 11699.000000 -976.666667 11699.000000 -995.333333 11699.000000 -1014.000000z M 11710.000000 -1519.000000 C 11880.333333 -1519.000000 12050.666667 -1519.000000 12221.000000 -1519.000000 C 12221.000000 -1500.333333 12221.000000 -1481.666667 12221.000000 -1463.000000 C 12050.666667 -1463.000000 11880.333333 -1463.000000 11710.000000 -1463.000000 C 11710.000000 -1481.666667 11710.000000 -1500.333333 11710.000000 -1519.000000z M 11699.000000 -758.000000 C 11875.000000 -758.000000 12051.000000 -758.000000 12227.000000 -758.000000 C 12227.000000 -739.666667 12227.000000 -721.333333 12227.000000 -703.000000 C 12051.000000 -703.000000 11875.000000 -703.000000 11699.000000 -703.000000 C 11699.000000 -721.333333 11699.000000 -739.666667 11699.000000 -758.000000z M 11610.000000 -1271.000000 C 11836.666667 -1271.000000 12063.333333 -1271.000000 12290.000000 -1271.000000 C 12290.000000 -1251.666667 12290.000000 -1232.333333 12290.000000 -1213.000000 C 12063.333333 -1213.000000 11836.666667 -1213.000000 11610.000000 -1213.000000 C 11610.000000 -1232.333333 11610.000000 -1251.666667 11610.000000 -1271.000000z M 11729.000000 -503.000000 C 11895.333333 -503.000000 12061.666667 -503.000000 12228.000000 -503.000000 C 12228.000000 -324.333333 12228.000000 -145.666667 12228.000000 33.000000 C 12061.666667 33.000000 11895.333333 33.000000 11729.000000 33.000000 C 11729.000000 14.333333 11729.000000 -4.333333 11729.000000 -23.000000 C 11876.333333 -23.000000 12023.666667 -23.000000 12171.000000 -23.000000 C 12171.000000 -163.666667 12171.000000 -304.333333 12171.000000 -445.000000 C 12023.666667 -445.000000 11876.333333 -445.000000 11729.000000 -445.000000 C 11729.000000 -464.333333 11729.000000 -483.666667 11729.000000 -503.000000z M 11699.000000 -503.000000 C 11718.000000 -503.000000 11737.000000 -503.000000 11756.000000 -503.000000 C 11756.000000 -291.333333 11756.000000 -79.666667 11756.000000 132.000000 C 11737.000000 132.000000 11718.000000 132.000000 11699.000000 132.000000 C 11699.000000 -79.666667 11699.000000 -291.333333 11699.000000 -503.000000z "/>
</g>
</svg>
