<?xml version="1.0" encoding="utf-8"?>
<svg xmlns="http://www.w3.org/2000/svg" xmlns:ev="http://www.w3.org/2001/xml-events" xmlns:xlink="http://www.w3.org/1999/xlink" version="1.1" baseProfile="full" width="49628.0" height="1744.0" viewBox="213.0 -1596.0 49628.0 1744.0">
<defs/>
<g><path d="M 48662.000000 -1196.000000 C 48680.666667 -1190.333333 48699.333333 -1184.666667 48718.000000 -1179.000000 C 48673.333333 -1125.000000 48622.666667 -1072.333333 48566.000000 -1021.000000 C 48510.000000 -970.333333 48451.666667 -922.333333 48391.000000 -877.000000 C 48330.333333 -832.333333 48271.000000 -792.666667 48213.000000 -758.000000 C 48210.333333 -762.000000 48206.000000 -766.666667 48200.000000 -772.000000 C 48194.666667 -778.000000 48188.666667 -783.666667 48182.000000 -789.000000 C 48176.000000 -794.333333 48170.333333 -799.000000 48165.000000 -803.000000 C 48255.666667 -851.666667 48345.333333 -910.666667 48434.000000 -980.000000 C 48523.333333 -1050.000000 48599.333333 -1122.000000 48662.000000 -1196.000000z M 49175.000000 -1162.000000 C 49186.666667 -1173.333333 49198.333333 -1184.666667 49210.000000 -1196.000000 C 49274.000000 -1158.666667 49339.333333 -1116.666667 49406.000000 -1070.000000 C 49473.333333 -1023.333333 49536.000000 -976.666667 49594.000000 -930.000000 C 49652.666667 -883.333333 49700.666667 -841.333333 49738.000000 -804.000000 C 49725.000000 -789.333333 49712.000000 -774.666667 49699.000000 -760.000000 C 49662.333333 -798.666667 49615.000000 -841.666667 49557.000000 -889.000000 C 49499.666667 -936.333333 49437.666667 -984.000000 49371.000000 -1032.000000 C 49304.333333 -1080.000000 49239.000000 -1123.333333 49175.000000 -1162.000000z M 48956.000000 -952.000000 C 48902.666667 -880.666667 48832.666667 -805.000000 48746.000000 -725.000000 C 48659.333333 -645.000000 48563.000000 -567.000000 48457.000000 -491.000000 C 48351.000000 -415.666667 48242.333333 -348.666667 48131.000000 -290.000000 C 48128.333333 -295.333333 48125.000000 -300.333333 48121.000000 -305.000000 C 48117.000000 -310.333333 48112.666667 -315.666667 48108.000000 -321.000000 C 48104.000000 -327.000000 48099.333333 -332.000000 48094.000000 -336.000000 C 48206.666667 -392.000000 48316.000000 -457.666667 48422.000000 -533.000000 C 48528.666667 -609.000000 48625.666667 -688.000000 48713.000000 -770.000000 C 48801.000000 -852.000000 48871.333333 -931.333333 48924.000000 -1008.000000 C 48941.666667 -1008.000000 48959.333333 -1008.000000 48977.000000 -1008.000000 C 49028.333333 -948.000000 49088.333333 -887.000000 49157.000000 -825.000000 C 49225.666667 -763.000000 49298.333333 -703.000000 49375.000000 -645.000000 C 49451.666667 -587.666667 49530.000000 -534.333333 49610.000000 -485.000000 C 49690.000000 -435.666667 49767.000000 -393.000000 49841.000000 -357.000000 C 49836.333333 -351.666667 49830.000000 -344.000000 49822.000000 -334.000000 C 49814.666667 -324.000000 49808.333333 -315.666667 49803.000000 -309.000000 C 49729.000000 -347.666667 49652.000000 -391.666667 49572.000000 -441.000000 C 49492.666667 -491.000000 49415.333333 -544.333333 49340.000000 -601.000000 C 49264.666667 -658.333333 49194.000000 -716.666667 49128.000000 -776.000000 C 49062.000000 -836.000000 49004.666667 -894.666667 48956.000000 -952.000000z M 48442.000000 -490.000000 C 48786.666667 -490.000000 49131.333333 -490.000000 49476.000000 -490.000000 C 49476.000000 -285.000000 49476.000000 -80.000000 49476.000000 125.000000 C 49457.000000 125.000000 49438.000000 125.000000 49419.000000 125.000000 C 49419.000000 -61.333333 49419.000000 -247.666667 49419.000000 -434.000000 C 49111.666667 -434.000000 48804.333333 -434.000000 48497.000000 -434.000000 C 48497.000000 -243.333333 48497.000000 -52.666667 48497.000000 138.000000 C 48478.666667 138.000000 48460.333333 138.000000 48442.000000 138.000000 C 48442.000000 -71.333333 48442.000000 -280.666667 48442.000000 -490.000000z M 48470.000000 6.000000 C 48798.333333 6.000000 49126.666667 6.000000 49455.000000 6.000000 C 49455.000000 24.333333 49455.000000 42.666667 49455.000000 61.000000 C 49126.666667 61.000000 48798.333333 61.000000 48470.000000 61.000000 C 48470.000000 42.666667 48470.000000 24.333333 48470.000000 6.000000z M 48927.000000 -1596.000000 C 48946.333333 -1596.000000 48965.666667 -1596.000000 48985.000000 -1596.000000 C 48985.000000 -1519.666667 48985.000000 -1443.333333 48985.000000 -1367.000000 C 48965.666667 -1367.000000 48946.333333 -1367.000000 48927.000000 -1367.000000 C 48927.000000 -1443.333333 48927.000000 -1519.666667 48927.000000 -1596.000000z M 48180.000000 -1394.000000 C 48700.000000 -1394.000000 49220.000000 -1394.000000 49740.000000 -1394.000000 C 49740.000000 -1299.333333 49740.000000 -1204.666667 49740.000000 -1110.000000 C 49720.666667 -1110.000000 49701.333333 -1110.000000 49682.000000 -1110.000000 C 49682.000000 -1186.000000 49682.000000 -1262.000000 49682.000000 -1338.000000 C 49200.666667 -1338.000000 48719.333333 -1338.000000 48238.000000 -1338.000000 C 48238.000000 -1262.000000 48238.000000 -1186.000000 48238.000000 -1110.000000 C 48218.666667 -1110.000000 48199.333333 -1110.000000 48180.000000 -1110.000000 C 48180.000000 -1204.666667 48180.000000 -1299.333333 48180.000000 -1394.000000z "/>
</g></svg>
