<?xml version="1.0" ?>
<svg xmlns="http://www.w3.org/2000/svg" version="1.1" width="600" height="600">
  <defs/>
  <g>
    <path stroke-width="0" fill="rgb(0, 0, 0)" opacity="1.0" d="M 129.34689331054688 277.612548828125 C 142.08950805664062 277.612548828125 154.83209228515625 277.612548828125 167.57470703125 277.612548828125 C 167.57470703125 278.2247314453125 167.57470703125 278.8369140625 167.57470703125 279.44903564453125 C 154.83209228515625 279.44903564453125 142.08950805664062 279.44903564453125 129.34689331054688 279.44903564453125 C 129.34689331054688 278.8369140625 129.34689331054688 278.2247314453125 129.34689331054688 277.612548828125M 128.61172485351562 277.612548828125 C 129.2083740234375 277.612548828125 129.80502319335938 277.612548828125 130.40167236328125 277.612548828125 C 130.40167236328125 283.628662109375 130.40167236328125 289.644775390625 130.40167236328125 295.660888671875 C 130.40167236328125 298.0885009765625 130.3057861328125 300.716552734375 130.114013671875 303.545166015625 C 129.94354248046875 306.35272216796875 129.581298828125 309.2130126953125 129.02725219726562 312.1260986328125 C 128.47323608398438 315.01806640625 127.66351318359375 317.8466796875 126.59805297851562 320.6119384765625 C 125.53262329101562 323.356201171875 124.09429931640625 325.9208984375 122.28305053710938 328.3062744140625 C 122.2191162109375 328.20074462890625 122.1019287109375 328.0740966796875 121.93145751953125 327.92626953125 C 121.760986328125 327.778564453125 121.57986450195312 327.6307373046875 121.38809204101562 327.4830322265625 C 121.21762084960938 327.3563232421875 121.04714965820312 327.2508544921875 120.87667846679688 327.1663818359375 C 122.64529418945312 324.8443603515625 124.041015625 322.364013671875 125.0638427734375 319.72540283203125 C 126.086669921875 317.065673828125 126.853759765625 314.342529296875 127.36517333984375 311.55615234375 C 127.8765869140625 308.74859619140625 128.20687866210938 306.00439453125 128.35601806640625 303.32354736328125 C 128.5264892578125 300.62158203125 128.61172485351562 298.0673828125 128.61172485351562 295.660888671875 C 128.61172485351562 289.644775390625 128.61172485351562 283.628662109375 128.61172485351562 277.612548828125M 166.83956909179688 277.612548828125 C 167.41488647460938 277.612548828125 167.990234375 277.612548828125 168.56558227539062 277.612548828125 C 168.60818481445312 281.22222900390625 168.65081787109375 284.9268798828125 168.69342041015625 288.7265625 C 168.73605346679688 292.505126953125 168.81060791015625 296.2308349609375 168.91717529296875 299.90386962890625 C 169.04501342773438 303.5557861328125 169.21548461914062 306.9859619140625 169.4285888671875 310.194580078125 C 169.64166259765625 313.4031982421875 169.91867065429688 316.2318115234375 170.25961303710938 318.68048095703125 C 170.60055541992188 321.129150390625 171.0267333984375 323.050048828125 171.53814697265625 324.44329833984375 C 172.04953002929688 325.85760498046875 172.67816162109375 326.56475830078125 173.4239501953125 326.56475830078125 C 173.87142944335938 326.56475830078125 174.20172119140625 325.5726318359375 174.414794921875 323.58837890625 C 174.64920043945312 321.5830078125 174.7877197265625 319.1448974609375 174.830322265625 316.2740478515625 C 175.04342651367188 316.44287109375 175.29913330078125 316.6011962890625 175.59744262695312 316.7490234375 C 175.895751953125 316.8756103515625 176.15145874023438 316.981201171875 176.36456298828125 317.065673828125 C 176.27932739257812 319.8731689453125 176.15145874023438 322.089599609375 175.98098754882812 323.71502685546875 C 175.83184814453125 325.3193359375 175.53350830078125 326.459228515625 175.08602905273438 327.13470458984375 C 174.65985107421875 327.831298828125 174.04190063476562 328.20074462890625 173.232177734375 328.242919921875 C 171.99627685546875 328.242919921875 170.9947509765625 327.3985595703125 170.2276611328125 325.7098388671875 C 169.48184204101562 324.042236328125 168.89584350585938 321.66741943359375 168.46966552734375 318.58544921875 C 168.04351806640625 315.5035400390625 167.73452758789062 311.8621826171875 167.54275512695312 307.6614990234375 C 167.37228393554688 303.43963623046875 167.2337646484375 298.7850341796875 167.12722778320312 293.69775390625 C 167.02069091796875 288.6104736328125 166.9248046875 283.24871826171875 166.83956909179688 277.612548828125M 147.2142333984375 286.1934814453125 C 147.83218383789062 286.1934814453125 148.45013427734375 286.1934814453125 149.068115234375 286.1934814453125 C 149.068115234375 297.98291015625 149.068115234375 309.77239990234375 149.068115234375 321.5618896484375 C 148.45013427734375 321.5618896484375 147.83218383789062 321.5618896484375 147.2142333984375 321.5618896484375 C 147.2142333984375 309.77239990234375 147.2142333984375 297.98291015625 147.2142333984375 286.1934814453125M 137.27374267578125 296.104248046875 C 137.27374267578125 300.114990234375 137.27374267578125 304.125732421875 137.27374267578125 308.136474609375 C 144.57196044921875 308.136474609375 151.87017822265625 308.136474609375 159.16842651367188 308.136474609375 C 159.16842651367188 304.125732421875 159.16842651367188 300.114990234375 159.16842651367188 296.104248046875 C 151.87017822265625 296.104248046875 144.57196044921875 296.104248046875 137.27374267578125 296.104248046875M 135.41986083984375 294.3310546875 C 143.93270874023438 294.3310546875 152.44552612304688 294.3310546875 160.9583740234375 294.3310546875 C 160.9583740234375 299.534423828125 160.9583740234375 304.73785400390625 160.9583740234375 309.9412841796875 C 152.44552612304688 309.9412841796875 143.93270874023438 309.9412841796875 135.41986083984375 309.9412841796875 C 135.41986083984375 304.73785400390625 135.41986083984375 299.534423828125 135.41986083984375 294.3310546875M 160.41497802734375 283.027099609375 C 161.0009765625 283.4703369140625 161.58697509765625 283.91363525390625 162.17294311523438 284.35693359375 C 159.89291381835938 285.0113525390625 157.17605590820312 285.591796875 154.02236938476562 286.09844970703125 C 150.86868286132812 286.6051025390625 147.56582641601562 287.037841796875 144.11383056640625 287.39666748046875 C 140.66180419921875 287.7554931640625 137.31634521484375 288.0616455078125 134.07742309570312 288.31494140625 C 134.0347900390625 288.10382080078125 133.9495849609375 287.85052490234375 133.82171630859375 287.55499267578125 C 133.71517944335938 287.25946044921875 133.57666015625 287.006103515625 133.40618896484375 286.7950439453125 C 135.77145385742188 286.583984375 138.22195434570312 286.3623046875 140.7576904296875 286.130126953125 C 143.29342651367188 285.8768310546875 145.78656005859375 285.591796875 148.237060546875 285.275146484375 C 150.7088623046875 284.95855712890625 152.9888916015625 284.6102294921875 155.0771484375 284.23028564453125 C 157.1654052734375 283.8292236328125 158.9447021484375 283.4281005859375 160.41497802734375 283.027099609375M 130.6893310546875 321.625244140625 C 133.22506713867188 321.49853515625 136.1976318359375 321.3402099609375 139.60702514648438 321.1502685546875 C 143.0377197265625 320.939208984375 146.7135009765625 320.70697021484375 150.63427734375 320.45361328125 C 154.576416015625 320.17919921875 158.55047607421875 319.9259033203125 162.5565185546875 319.6937255859375 C 162.53521728515625 320.27423095703125 162.51388549804688 320.854736328125 162.49258422851562 321.43524169921875 C 158.61441040039062 321.68853759765625 154.74685668945312 321.94189453125 150.88998413085938 322.1951904296875 C 147.05441284179688 322.4273681640625 143.41064453125 322.6595458984375 139.9586181640625 322.8917236328125 C 136.52792358398438 323.10284423828125 133.5020751953125 323.2928466796875 130.881103515625 323.461669921875 C 130.81719970703125 322.84954833984375 130.75326538085938 322.2374267578125 130.6893310546875 321.625244140625M 155.81231689453125 313.3609619140625 C 156.30239868164062 313.1392822265625 156.79251098632812 312.91766357421875 157.2825927734375 312.696044921875 C 158.58242797851562 313.98370361328125 159.82901000976562 315.41912841796875 161.02227783203125 317.0023193359375 C 162.215576171875 318.58544921875 163.281005859375 320.15814208984375 164.21859741210938 321.72021484375 C 165.15618896484375 323.28228759765625 165.827392578125 324.7071533203125 166.23226928710938 325.99481201171875 C 165.69955444335938 326.2586669921875 165.16683959960938 326.5225830078125 164.63412475585938 326.786376953125 C 164.1866455078125 325.498779296875 163.5047607421875 324.0738525390625 162.58847045898438 322.5118408203125 C 161.67221069335938 320.94970703125 160.62808227539062 319.3665771484375 159.45608520507812 317.76220703125 C 158.28411865234375 316.157958984375 157.06951904296875 314.69085693359375 155.81231689453125 313.3609619140625"/>
    <path stroke-width="0" fill="rgb(0, 0, 0)" opacity="1.0" d="M 193.65658569335938 280.525634765625 C 207.75228881835938 280.525634765625 221.84799194335938 280.525634765625 235.9437255859375 280.525634765625 C 235.9437255859375 281.1378173828125 235.9437255859375 281.74993896484375 235.9437255859375 282.36212158203125 C 221.84799194335938 282.36212158203125 207.75228881835938 282.36212158203125 193.65658569335938 282.36212158203125 C 193.65658569335938 281.74993896484375 193.65658569335938 281.1378173828125 193.65658569335938 280.525634765625M 194.32778930664062 289.043212890625 C 206.15414428710938 289.043212890625 217.98046875 289.043212890625 229.80679321289062 289.043212890625 C 229.80679321289062 289.63427734375 229.80679321289062 290.22528076171875 229.80679321289062 290.81634521484375 C 217.98046875 290.81634521484375 206.15414428710938 290.81634521484375 194.32778930664062 290.81634521484375 C 194.32778930664062 290.22528076171875 194.32778930664062 289.63427734375 194.32778930664062 289.043212890625M 187.5196533203125 297.4974365234375 C 200.36883544921875 297.4974365234375 213.21795654296875 297.4974365234375 226.067138671875 297.4974365234375 C 226.067138671875 298.0885009765625 226.067138671875 298.6795654296875 226.067138671875 299.27056884765625 C 213.21795654296875 299.27056884765625 200.36883544921875 299.27056884765625 187.5196533203125 299.27056884765625 C 187.5196533203125 298.6795654296875 187.5196533203125 298.0885009765625 187.5196533203125 297.4974365234375M 195.9898681640625 273.5279541015625 C 196.629150390625 273.6756591796875 197.26840209960938 273.823486328125 197.90765380859375 273.97119140625 C 196.39474487304688 278.50970458984375 194.45565795898438 282.720947265625 192.09039306640625 286.6051025390625 C 189.74642944335938 290.468017578125 187.14675903320312 293.75048828125 184.2913818359375 296.4525146484375 C 184.2061767578125 296.32586669921875 184.0570068359375 296.1885986328125 183.84393310546875 296.0408935546875 C 183.65213012695312 295.87200927734375 183.43905639648438 295.71368408203125 183.20465087890625 295.56591796875 C 182.97024536132812 295.39703369140625 182.77847290039062 295.2703857421875 182.62933349609375 295.1859130859375 C 185.52731323242188 292.58953857421875 188.126953125 289.41259765625 190.42831420898438 285.6551513671875 C 192.7509765625 281.8765869140625 194.60479736328125 277.834228515625 195.9898681640625 273.5279541015625M 213.7293701171875 301.075439453125 C 214.28338623046875 301.27593994140625 214.83743286132812 301.47650146484375 215.39144897460938 301.677001953125 C 213.11141967773438 305.58221435546875 210.37326049804688 309.19189453125 207.17694091796875 312.50604248046875 C 203.98065185546875 315.799072265625 200.51797485351562 318.764892578125 196.7889404296875 321.403564453125 C 193.08123779296875 324.0211181640625 189.1923828125 326.322021484375 185.1224365234375 328.3062744140625 C 185.05850219726562 328.20074462890625 184.94131469726562 328.052978515625 184.77084350585938 327.86297607421875 C 184.60037231445312 327.6729736328125 184.41925048828125 327.4935302734375 184.22747802734375 327.32470703125 C 184.0570068359375 327.17694091796875 183.88653564453125 327.03973388671875 183.716064453125 326.9130859375 C 187.80734252929688 325.055419921875 191.7281494140625 322.8389892578125 195.47845458984375 320.263671875 C 199.22879028320312 317.6883544921875 202.65951538085938 314.78582763671875 205.77056884765625 311.55615234375 C 208.9029541015625 308.3052978515625 211.555908203125 304.811767578125 213.7293701171875 301.075439453125M 225.07626342773438 297.4974365234375 C 225.67291259765625 297.4974365234375 226.26956176757812 297.4974365234375 226.8662109375 297.4974365234375 C 226.95144653320312 301.71923828125 227.07928466796875 305.60333251953125 227.249755859375 309.149658203125 C 227.4415283203125 312.696044921875 227.782470703125 315.7674560546875 228.2725830078125 318.36383056640625 C 228.76266479492188 320.939208984375 229.4552001953125 322.944580078125 230.35015869140625 324.3800048828125 C 231.26644897460938 325.83648681640625 232.43841552734375 326.56475830078125 233.86611938476562 326.56475830078125 C 234.61190795898438 326.56475830078125 235.10202026367188 325.72039794921875 235.33642578125 324.03167724609375 C 235.59210205078125 322.3428955078125 235.73062133789062 320.1475830078125 235.75192260742188 317.445556640625 C 235.96502685546875 317.5933837890625 236.24203491210938 317.7410888671875 236.58297729492188 317.888916015625 C 236.94522094726562 318.03662109375 237.22222900390625 318.1527099609375 237.41400146484375 318.2371826171875 C 237.32876586914062 320.7913818359375 237.1689453125 322.7967529296875 236.9345703125 324.2532958984375 C 236.72146606445312 325.7098388671875 236.369873046875 326.72308349609375 235.87979125976562 327.29302978515625 C 235.38967895507812 327.88409423828125 234.67584228515625 328.20074462890625 233.73825073242188 328.242919921875 C 231.90570068359375 328.242919921875 230.42474365234375 327.5357666015625 229.29541015625 326.1214599609375 C 228.166015625 324.7071533203125 227.31369018554688 322.670166015625 226.73834228515625 320.0103759765625 C 226.16302490234375 317.3505859375 225.75814819335938 314.1314697265625 225.52374267578125 310.3529052734375 C 225.3106689453125 306.55322265625 225.1614990234375 302.26806640625 225.07626342773438 297.4974365234375M 190.42831420898438 305.223388671875 C 190.8544921875 304.85400390625 191.2806396484375 304.48455810546875 191.70681762695312 304.1151123046875 C 194.2425537109375 305.48724365234375 196.79962158203125 307.0281982421875 199.37796020507812 308.738037109375 C 201.95632934570312 310.4478759765625 204.44943237304688 312.21051025390625 206.85733032226562 314.02587890625 C 209.26519775390625 315.8201904296875 211.4813232421875 317.614501953125 213.50564575195312 319.40875244140625 C 215.55126953125 321.181884765625 217.24530029296875 322.84954833984375 218.5877685546875 324.41162109375 C 218.11895751953125 324.8443603515625 217.65017700195312 325.277099609375 217.181396484375 325.7098388671875 C 215.817626953125 324.12664794921875 214.13424682617188 322.448486328125 212.1312255859375 320.67529296875 C 210.12820434570312 318.8809814453125 207.92276000976562 317.065673828125 205.51486206054688 315.2291259765625 C 203.10699462890625 313.37152099609375 200.61386108398438 311.5877685546875 198.0355224609375 309.8779296875 C 195.4571533203125 308.14697265625 192.92141723632812 306.595458984375 190.42831420898438 305.223388671875"/>
    <path stroke-width="0" fill="rgb(0, 0, 0)" opacity="1.0" d="M 261.22650146484375 293.00115966796875 C 265.13665771484375 293.00115966796875 269.0467834472656 293.00115966796875 272.9569396972656 293.00115966796875 C 272.9569396972656 293.602783203125 272.9569396972656 294.204345703125 272.9569396972656 294.8060302734375 C 269.0467834472656 294.8060302734375 265.13665771484375 294.8060302734375 261.22650146484375 294.8060302734375 C 261.22650146484375 294.204345703125 261.22650146484375 293.602783203125 261.22650146484375 293.00115966796875M 260.7470703125 273.5279541015625 C 261.34368896484375 273.5279541015625 261.9403381347656 273.5279541015625 262.5369873046875 273.5279541015625 C 262.5369873046875 289.8453369140625 262.5369873046875 306.1627197265625 262.5369873046875 322.4801025390625 C 261.9403381347656 322.6068115234375 261.34368896484375 322.73345947265625 260.7470703125 322.860107421875 C 260.7470703125 306.416015625 260.7470703125 289.97198486328125 260.7470703125 273.5279541015625M 249.52801513671875 285.52850341796875 C 250.13531494140625 285.52850341796875 250.74261474609375 285.52850341796875 251.34991455078125 285.52850341796875 C 251.34991455078125 298.4578857421875 251.34991455078125 311.38726806640625 251.34991455078125 324.316650390625 C 250.74261474609375 324.41162109375 250.13531494140625 324.506591796875 249.52801513671875 324.60162353515625 C 249.52801513671875 311.5772705078125 249.52801513671875 298.5528564453125 249.52801513671875 285.52850341796875M 244.12625122070312 324.9815673828125 C 246.49151611328125 324.58050537109375 249.25100708007812 324.094970703125 252.40469360351562 323.5250244140625 C 255.55838012695312 322.955078125 258.9251708984375 322.3428955078125 262.5050048828125 321.68853759765625 C 266.08489990234375 321.0341796875 269.69671630859375 320.3692626953125 273.34051513671875 319.6937255859375 C 273.3724670410156 320.3375244140625 273.4044189453125 320.98138427734375 273.4364013671875 321.625244140625 C 269.96307373046875 322.2374267578125 266.46844482421875 322.87066650390625 262.9525146484375 323.5250244140625 C 259.43658447265625 324.1583251953125 256.10174560546875 324.7705078125 252.94805908203125 325.361572265625 C 249.79437255859375 325.95263671875 246.99227905273438 326.4908447265625 244.54177856445312 326.9764404296875 C 244.40325927734375 326.31146240234375 244.2647705078125 325.646484375 244.12625122070312 324.9815673828125M 295.29913330078125 286.92169189453125 C 295.87445068359375 287.364990234375 296.4497985839844 287.80828857421875 297.025146484375 288.2515869140625 C 295.4269714355469 289.53924560546875 293.5837707519531 290.8480224609375 291.4955139160156 292.1778564453125 C 289.4072570800781 293.4866943359375 287.2018127441406 294.7742919921875 284.879150390625 296.0408935546875 C 282.57781982421875 297.28631591796875 280.29779052734375 298.47900390625 278.0390625 299.618896484375 C 277.97515869140625 299.40777587890625 277.85797119140625 299.17559814453125 277.6874694824219 298.9222412109375 C 277.5169982910156 298.6689453125 277.3465576171875 298.436767578125 277.17608642578125 298.2257080078125 C 279.3921813964844 297.12799072265625 281.62957763671875 295.935302734375 283.8883056640625 294.647705078125 C 286.1683349609375 293.3388671875 288.30987548828125 292.0301513671875 290.3128662109375 290.72137451171875 C 292.31591796875 289.3914794921875 293.97796630859375 288.12493896484375 295.29913330078125 286.92169189453125M 276.8883972167969 273.5279541015625 C 277.55963134765625 273.5279541015625 278.2308349609375 273.5279541015625 278.9020690917969 273.5279541015625 C 278.9020690917969 289.0537109375 278.9020690917969 304.57952880859375 278.9020690917969 320.1053466796875 C 278.9020690917969 321.6041259765625 279.12579345703125 322.6068115234375 279.57330322265625 323.1134033203125 C 280.0207824707031 323.6199951171875 281.06488037109375 323.87335205078125 282.7056884765625 323.87335205078125 C 283.0892333984375 323.87335205078125 283.78173828125 323.87335205078125 284.78326416015625 323.87335205078125 C 285.7847900390625 323.87335205078125 286.892822265625 323.87335205078125 288.107421875 323.87335205078125 C 289.34332275390625 323.87335205078125 290.5046691894531 323.87335205078125 291.5914001464844 323.87335205078125 C 292.67816162109375 323.87335205078125 293.466552734375 323.87335205078125 293.9566650390625 323.87335205078125 C 295.0220947265625 323.87335205078125 295.810546875 323.55670166015625 296.32196044921875 322.9234619140625 C 296.8333435058594 322.26904296875 297.1849365234375 321.09747314453125 297.376708984375 319.40875244140625 C 297.58978271484375 317.719970703125 297.7389831542969 315.3240966796875 297.82421875 312.2210693359375 C 298.1438293457031 312.4532470703125 298.4634704589844 312.64324951171875 298.7830810546875 312.791015625 C 299.1240234375 312.91766357421875 299.4330139160156 313.023193359375 299.71002197265625 313.107666015625 C 299.5821533203125 316.2740478515625 299.36907958984375 318.7755126953125 299.0707702636719 320.6119384765625 C 298.79376220703125 322.4273681640625 298.27166748046875 323.7044677734375 297.50457763671875 324.44329833984375 C 296.7374572753906 325.2032470703125 295.5548095703125 325.58319091796875 293.9566650390625 325.58319091796875 C 293.6583251953125 325.58319091796875 292.97650146484375 325.58319091796875 291.9110412597656 325.58319091796875 C 290.8455810546875 325.58319091796875 289.6523132324219 325.58319091796875 288.3311767578125 325.58319091796875 C 287.010009765625 325.58319091796875 285.8167724609375 325.58319091796875 284.7513122558594 325.58319091796875 C 283.68585205078125 325.58319091796875 283.0252990722656 325.58319091796875 282.76959228515625 325.58319091796875 C 281.2566833496094 325.58319091796875 280.07403564453125 325.4354248046875 279.2216796875 325.139892578125 C 278.3693542480469 324.865478515625 277.7620544433594 324.3271484375 277.3998107910156 323.5250244140625 C 277.0588684082031 322.7017822265625 276.8883972167969 321.5196533203125 276.8883972167969 319.97869873046875 C 276.8883972167969 304.4951171875 276.8883972167969 289.011474609375 276.8883972167969 273.5279541015625"/>
    <path stroke-width="0" fill="rgb(0, 0, 0)" opacity="1.0" d="M 335.98809814453125 273.464599609375 C 336.584716796875 273.59124755859375 337.181396484375 273.7178955078125 337.77801513671875 273.8446044921875 C 336.9896240234375 277.1375732421875 336.0093994140625 280.29345703125 334.83740234375 283.31201171875 C 333.686767578125 286.3306884765625 332.3656005859375 289.12762451171875 330.8740234375 291.70294189453125 C 329.4037170410156 294.25714111328125 327.7735900878906 296.5369873046875 325.9836730957031 298.5423583984375 C 325.8984375 298.4156494140625 325.7599182128906 298.2784423828125 325.5681457519531 298.13067626953125 C 325.3976745605469 297.98291015625 325.20587158203125 297.845703125 324.9927978515625 297.71905517578125 C 324.801025390625 297.5712890625 324.61993408203125 297.4552001953125 324.4494323730469 297.3707275390625 C 326.2393798828125 295.470947265625 327.85882568359375 293.27557373046875 329.3078308105469 290.78466796875 C 330.77813720703125 288.2938232421875 332.06732177734375 285.581298828125 333.17535400390625 282.6470947265625 C 334.3046875 279.6917724609375 335.2423095703125 276.6309814453125 335.98809814453125 273.464599609375M 357.7230224609375 284.4202880859375 C 358.330322265625 284.4202880859375 358.9376220703125 284.4202880859375 359.544921875 284.4202880859375 C 359.544921875 284.4202880859375 359.544921875 284.5152587890625 359.544921875 284.7052001953125 C 359.544921875 284.8741455078125 359.544921875 285.07464599609375 359.544921875 285.306884765625 C 359.544921875 285.5179443359375 359.5235595703125 285.68682861328125 359.48095703125 285.8134765625 C 359.07611083984375 292.86395263671875 358.67120361328125 298.795654296875 358.266357421875 303.6085205078125 C 357.86151123046875 308.4002685546875 357.4246826171875 312.3160400390625 356.95587158203125 315.35577392578125 C 356.5084228515625 318.3955078125 356.018310546875 320.7491455078125 355.485595703125 322.41680908203125 C 354.952880859375 324.08447265625 354.36688232421875 325.277099609375 353.72760009765625 325.99481201171875 C 353.19488525390625 326.649169921875 352.640869140625 327.0714111328125 352.0655517578125 327.2613525390625 C 351.49017333984375 327.47247314453125 350.7763671875 327.59912109375 349.92401123046875 327.641357421875 C 349.1356201171875 327.68359375 348.10211181640625 327.68359375 346.8236083984375 327.641357421875 C 345.56634521484375 327.59912109375 344.26654052734375 327.5252685546875 342.924072265625 327.419677734375 C 342.8814697265625 327.0819091796875 342.82818603515625 326.74420166015625 342.7642822265625 326.40643310546875 C 342.7003173828125 326.0687255859375 342.572509765625 325.773193359375 342.3807373046875 325.5198974609375 C 344.00018310546875 325.646484375 345.470458984375 325.73095703125 346.7916259765625 325.773193359375 C 348.134033203125 325.8154296875 349.09295654296875 325.83648681640625 349.6683349609375 325.83648681640625 C 350.24365234375 325.83648681640625 350.71240234375 325.78369140625 351.07470703125 325.67822265625 C 351.4368896484375 325.5726318359375 351.78851318359375 325.3404541015625 352.12945556640625 324.9815673828125 C 352.70477294921875 324.369384765625 353.2481689453125 323.2294921875 353.75958251953125 321.5618896484375 C 354.27099609375 319.8731689453125 354.75042724609375 317.477294921875 355.1978759765625 314.37420654296875 C 355.6453857421875 311.2711181640625 356.071533203125 307.32373046875 356.4764404296875 302.531982421875 C 356.88128662109375 297.71905517578125 357.29681396484375 291.86126708984375 357.7230224609375 284.95855712890625 C 357.7230224609375 284.77911376953125 357.7230224609375 284.5997314453125 357.7230224609375 284.4202880859375M 333.271240234375 284.4202880859375 C 341.60296630859375 284.4202880859375 349.9346923828125 284.4202880859375 358.266357421875 284.4202880859375 C 358.266357421875 285.032470703125 358.266357421875 285.64459228515625 358.266357421875 286.25677490234375 C 349.7535400390625 286.25677490234375 341.24072265625 286.25677490234375 332.7279052734375 286.25677490234375 C 332.90899658203125 285.64459228515625 333.090087890625 285.032470703125 333.271240234375 284.4202880859375M 341.45379638671875 284.895263671875 C 342.0078125 285.18017578125 342.56182861328125 285.4652099609375 343.1158447265625 285.7501220703125 C 342.156982421875 289.4442138671875 340.857177734375 293.1700439453125 339.21636962890625 296.927490234375 C 337.596923828125 300.663818359375 335.72174072265625 304.1151123046875 333.59088134765625 307.281494140625 C 331.46002197265625 310.4478759765625 329.1693115234375 313.023193359375 326.71881103515625 315.0074462890625 C 326.5057373046875 314.79638671875 326.2500305175781 314.5853271484375 325.95172119140625 314.37420654296875 C 325.6746826171875 314.1419677734375 325.3976745605469 313.94146728515625 325.12066650390625 313.7725830078125 C 326.91058349609375 312.3582763671875 328.64727783203125 310.595703125 330.33062744140625 308.4847412109375 C 332.0140380859375 306.35272216796875 333.55889892578125 303.988525390625 334.96527099609375 301.39208984375 C 336.37164306640625 298.795654296875 337.62890625 296.0936279296875 338.7369384765625 293.2861328125 C 339.844970703125 290.45751953125 340.7506103515625 287.6605224609375 341.45379638671875 284.895263671875M 350.4034423828125 284.895263671875 C 350.978759765625 285.1590576171875 351.55413818359375 285.4229736328125 352.12945556640625 285.68682861328125 C 351.341064453125 289.90869140625 350.2862548828125 294.0882568359375 348.965087890625 298.2257080078125 C 347.665283203125 302.363037109375 346.13104248046875 306.2894287109375 344.3624267578125 310.004638671875 C 342.6151123046875 313.69873046875 340.6334228515625 317.0550537109375 338.41729736328125 320.07373046875 C 336.2225341796875 323.09228515625 333.7933349609375 325.6148681640625 331.12969970703125 327.641357421875 C 330.93792724609375 327.45135498046875 330.67156982421875 327.229736328125 330.33062744140625 326.9764404296875 C 330.010986328125 326.74420166015625 329.68072509765625 326.543701171875 329.33978271484375 326.374755859375 C 332.00341796875 324.4749755859375 334.453857421875 322.04736328125 336.6912841796875 319.09210205078125 C 338.95001220703125 316.11572265625 340.96368408203125 312.791015625 342.7322998046875 309.1180419921875 C 344.5009765625 305.4239501953125 346.0245361328125 301.5081787109375 347.30303955078125 297.3707275390625 C 348.60284423828125 293.23333740234375 349.6363525390625 289.0748291015625 350.4034423828125 284.895263671875M 304.79217529296875 307.81982421875 C 306.6886291503906 307.2921142578125 308.8408203125 306.6693115234375 311.2486877441406 305.95166015625 C 313.6565856933594 305.21282958984375 316.2242736816406 304.41064453125 318.9517822265625 303.545166015625 C 321.6793212890625 302.6796875 324.40679931640625 301.814208984375 327.13433837890625 300.94873046875 C 327.21954345703125 301.47650146484375 327.3048095703125 302.00421142578125 327.3900451660156 302.531982421875 C 323.5118408203125 303.7984619140625 319.6336669921875 305.0650634765625 315.7554931640625 306.33160400390625 C 311.89862060546875 307.5770263671875 308.47857666015625 308.685302734375 305.495361328125 309.65631103515625 C 305.26092529296875 309.04412841796875 305.02655029296875 308.4320068359375 304.79217529296875 307.81982421875M 316.71435546875 273.59124755859375 C 317.33233642578125 273.59124755859375 317.95025634765625 273.59124755859375 318.5682373046875 273.59124755859375 C 318.5682373046875 291.8084716796875 318.5682373046875 310.0257568359375 318.5682373046875 328.242919921875 C 317.95025634765625 328.242919921875 317.33233642578125 328.242919921875 316.71435546875 328.242919921875 C 316.71435546875 310.0257568359375 316.71435546875 291.8084716796875 316.71435546875 273.59124755859375M 309.58660888671875 277.07427978515625 C 310.20458984375 277.148193359375 310.822509765625 277.2220458984375 311.44049072265625 277.2958984375 C 311.09954833984375 280.01904296875 310.68402099609375 282.6893310546875 310.19390869140625 285.306884765625 C 309.70379638671875 287.92437744140625 309.1497802734375 290.38360595703125 308.5318298339844 292.68450927734375 C 307.9351806640625 294.96429443359375 307.2213439941406 297.01190185546875 306.39031982421875 298.8272705078125 C 306.28375244140625 298.74285888671875 306.11328125 298.658447265625 305.87890625 298.573974609375 C 305.66583251953125 298.46844482421875 305.44207763671875 298.3629150390625 305.2076721191406 298.25732421875 C 304.9732666015625 298.15179443359375 304.781494140625 298.077880859375 304.63232421875 298.03570556640625 C 305.52728271484375 296.2203369140625 306.28375244140625 294.1832275390625 306.9017333984375 291.924560546875 C 307.5196533203125 289.644775390625 308.0523681640625 287.23834228515625 308.4998779296875 284.7052001953125 C 308.9473571777344 282.172119140625 309.3096008300781 279.62847900390625 309.58660888671875 277.07427978515625M 308.7236328125 286.66839599609375 C 314.51959228515625 286.66839599609375 320.3155517578125 286.66839599609375 326.11151123046875 286.66839599609375 C 326.11151123046875 287.28057861328125 326.11151123046875 287.8927001953125 326.11151123046875 288.5048828125 C 320.2835693359375 288.5048828125 314.4556579589844 288.5048828125 308.6277160644531 288.5048828125 C 308.65966796875 287.8927001953125 308.691650390625 287.28057861328125 308.7236328125 286.66839599609375"/>
    <path stroke-width="0" fill="rgb(0, 0, 0)" opacity="1.0" d="M 383.613037109375 280.114013671875 C 396.44091796875 280.114013671875 409.268798828125 280.114013671875 422.0965576171875 280.114013671875 C 422.0965576171875 280.6944580078125 422.0965576171875 281.2750244140625 422.0965576171875 281.85546875 C 409.268798828125 281.85546875 396.44091796875 281.85546875 383.613037109375 281.85546875 C 383.613037109375 281.2750244140625 383.613037109375 280.6944580078125 383.613037109375 280.114013671875M 414.9688720703125 280.7789306640625 C 415.56549072265625 280.7789306640625 416.162109375 280.7789306640625 416.7587890625 280.7789306640625 C 416.7587890625 295.29150390625 416.7587890625 309.8040771484375 416.7587890625 324.316650390625 C 416.7587890625 325.4354248046875 416.55633544921875 326.237548828125 416.1514892578125 326.72308349609375 C 415.7679443359375 327.2086181640625 415.1072998046875 327.556884765625 414.1697998046875 327.76800537109375 C 413.2747802734375 327.9368896484375 411.815185546875 328.0318603515625 409.79083251953125 328.052978515625 C 407.7664794921875 328.0740966796875 405.177490234375 328.0845947265625 402.0238037109375 328.0845947265625 C 401.981201171875 327.7890625 401.88531494140625 327.4619140625 401.73614501953125 327.10302734375 C 401.5869140625 326.74420166015625 401.41650390625 326.3958740234375 401.2247314453125 326.05810546875 C 403.14251708984375 326.100341796875 404.9217529296875 326.13201904296875 406.56256103515625 326.15313720703125 C 408.20330810546875 326.17425537109375 409.5989990234375 326.17425537109375 410.749755859375 326.15313720703125 C 411.92169189453125 326.13201904296875 412.75274658203125 326.100341796875 413.2427978515625 326.05810546875 C 413.946044921875 326.01593017578125 414.4041748046875 325.87872314453125 414.61724853515625 325.646484375 C 414.85162353515625 325.4354248046875 414.9688720703125 325.01324462890625 414.9688720703125 324.3800048828125 C 414.9688720703125 309.8463134765625 414.9688720703125 295.3126220703125 414.9688720703125 280.7789306640625M 386.48974609375 292.462890625 C 387.08642578125 292.462890625 387.6829833984375 292.462890625 388.2796630859375 292.462890625 C 388.2796630859375 300.6004638671875 388.2796630859375 308.738037109375 388.2796630859375 316.8756103515625 C 387.6829833984375 316.8756103515625 387.08642578125 316.8756103515625 386.48974609375 316.8756103515625 C 386.48974609375 308.738037109375 386.48974609375 300.6004638671875 386.48974609375 292.462890625M 387.4805908203125 292.462890625 C 393.159423828125 292.462890625 398.838134765625 292.462890625 404.51690673828125 292.462890625 C 404.51690673828125 299.1016845703125 404.51690673828125 305.74053955078125 404.51690673828125 312.37939453125 C 398.838134765625 312.37939453125 393.159423828125 312.37939453125 387.4805908203125 312.37939453125 C 387.4805908203125 311.77777099609375 387.4805908203125 311.1761474609375 387.4805908203125 310.5745849609375 C 392.5521240234375 310.5745849609375 397.62353515625 310.5745849609375 402.69500732421875 310.5745849609375 C 402.69500732421875 305.138916015625 402.69500732421875 299.70330810546875 402.69500732421875 294.2677001953125 C 397.62353515625 294.2677001953125 392.5521240234375 294.2677001953125 387.4805908203125 294.2677001953125 C 387.4805908203125 293.66607666015625 387.4805908203125 293.064453125 387.4805908203125 292.462890625M 380.96014404296875 273.7178955078125 C 381.5567626953125 273.86566162109375 382.1534423828125 274.013427734375 382.75006103515625 274.16119384765625 C 381.5567626953125 277.517578125 380.182373046875 280.78948974609375 378.6268310546875 283.97698974609375 C 377.0712890625 287.143310546875 375.37725830078125 290.140869140625 373.544677734375 292.969482421875 C 371.73345947265625 295.7769775390625 369.84765625 298.3206787109375 367.88720703125 300.6004638671875 C 367.802001953125 300.47381591796875 367.6741943359375 300.3260498046875 367.503662109375 300.15716552734375 C 367.35455322265625 299.9671630859375 367.1947021484375 299.7772216796875 367.02423095703125 299.58721923828125 C 366.8751220703125 299.3760986328125 366.71527099609375 299.2283935546875 366.5447998046875 299.1439208984375 C 368.50518798828125 297.03302001953125 370.36968994140625 294.6265869140625 372.1383056640625 291.924560546875 C 373.92828369140625 289.2015380859375 375.56903076171875 286.2884521484375 377.0606689453125 283.18536376953125 C 378.55224609375 280.08233642578125 379.85205078125 276.926513671875 380.96014404296875 273.7178955078125M 374.9510498046875 288.37823486328125 C 375.52642822265625 287.80828857421875 376.10174560546875 287.23834228515625 376.6771240234375 286.66839599609375 C 376.7197265625 286.68951416015625 376.7623291015625 286.71063232421875 376.804931640625 286.731689453125 C 376.804931640625 300.56878662109375 376.804931640625 314.4058837890625 376.804931640625 328.242919921875 C 376.18701171875 328.242919921875 375.56903076171875 328.242919921875 374.9510498046875 328.242919921875 C 374.9510498046875 314.9547119140625 374.9510498046875 301.66650390625 374.9510498046875 288.37823486328125"/>
    <path stroke-width="0" fill="rgb(0, 0, 0)" opacity="1.0" d="M 430.5987548828125 287.1116943359375 C 447.3580322265625 287.1116943359375 464.117431640625 287.1116943359375 480.876708984375 287.1116943359375 C 480.876708984375 291.0379638671875 480.876708984375 294.96429443359375 480.876708984375 298.890625 C 480.25872802734375 298.890625 479.6407470703125 298.890625 479.0228271484375 298.890625 C 479.0228271484375 295.56591796875 479.0228271484375 292.2412109375 479.0228271484375 288.91650390625 C 463.4993896484375 288.91650390625 447.97607421875 288.91650390625 432.45263671875 288.91650390625 C 432.45263671875 292.2412109375 432.45263671875 295.56591796875 432.45263671875 298.890625 C 431.834716796875 298.890625 431.2166748046875 298.890625 430.5987548828125 298.890625 C 430.5987548828125 294.96429443359375 430.5987548828125 291.0379638671875 430.5987548828125 287.1116943359375M 433.37957763671875 301.45538330078125 C 447.28350830078125 301.45538330078125 461.18743896484375 301.45538330078125 475.09136962890625 301.45538330078125 C 475.09136962890625 302.0570068359375 475.09136962890625 302.6585693359375 475.09136962890625 303.26025390625 C 461.18743896484375 303.26025390625 447.28350830078125 303.26025390625 433.37957763671875 303.26025390625 C 433.37957763671875 302.6585693359375 433.37957763671875 302.0570068359375 433.37957763671875 301.45538330078125M 474.6119384765625 301.45538330078125 C 475.2086181640625 301.45538330078125 475.80517578125 301.45538330078125 476.40185546875 301.45538330078125 C 476.40185546875 301.45538330078125 476.40185546875 301.529296875 476.40185546875 301.677001953125 C 476.40185546875 301.8037109375 476.40185546875 301.9725341796875 476.40185546875 302.18365478515625 C 476.40185546875 302.3736572265625 476.40185546875 302.531982421875 476.40185546875 302.6585693359375 C 476.103515625 308.2103271484375 475.7945556640625 312.66436767578125 475.47491455078125 316.020751953125 C 475.1552734375 319.35595703125 474.771728515625 321.8890380859375 474.32421875 323.6199951171875 C 473.8980712890625 325.329833984375 473.3653564453125 326.511962890625 472.72607421875 327.1663818359375 C 472.2999267578125 327.65185546875 471.78851318359375 327.968505859375 471.19189453125 328.1163330078125 C 470.6165771484375 328.28515625 469.860107421875 328.3907470703125 468.9224853515625 328.43292236328125 C 467.9210205078125 328.47515869140625 466.4613037109375 328.464599609375 464.5435791015625 328.4012451171875 C 462.625732421875 328.33795166015625 460.58013916015625 328.232421875 458.4066162109375 328.0845947265625 C 458.364013671875 327.7890625 458.2894287109375 327.4830322265625 458.182861328125 327.1663818359375 C 458.09765625 326.870849609375 457.948486328125 326.58587646484375 457.73541259765625 326.31146240234375 C 460.143310546875 326.5225830078125 462.37005615234375 326.649169921875 464.41571044921875 326.69140625 C 466.4613037109375 326.7547607421875 467.814453125 326.786376953125 468.4749755859375 326.786376953125 C 469.17822265625 326.786376953125 469.742919921875 326.74420166015625 470.1690673828125 326.6597900390625 C 470.59521484375 326.596435546875 470.95751953125 326.4169921875 471.25579833984375 326.1214599609375 C 471.7672119140625 325.59375 472.225341796875 324.506591796875 472.6302490234375 322.860107421875 C 473.056396484375 321.1925048828125 473.41864013671875 318.68048095703125 473.7169189453125 315.3240966796875 C 474.03662109375 311.9466552734375 474.33489990234375 307.4609375 474.6119384765625 301.86700439453125 C 474.6119384765625 301.72979736328125 474.6119384765625 301.59259033203125 474.6119384765625 301.45538330078125M 452.4615478515625 291.60791015625 C 453.0794677734375 291.60791015625 453.6973876953125 291.60791015625 454.31536865234375 291.60791015625 C 454.102294921875 295.4498291015625 453.78265380859375 299.01727294921875 453.3564453125 302.310302734375 C 452.9302978515625 305.58221435546875 452.2271728515625 308.5797119140625 451.2469482421875 311.3028564453125 C 450.2667236328125 314.0047607421875 448.892333984375 316.44287109375 447.1236572265625 318.6171875 C 445.3551025390625 320.7913818359375 443.0537109375 322.6806640625 440.21966552734375 324.28497314453125 C 437.40692138671875 325.910400390625 433.9229736328125 327.2508544921875 429.7677001953125 328.3062744140625 C 429.6824951171875 328.15850830078125 429.5653076171875 327.9896240234375 429.4161376953125 327.7996826171875 C 429.2669677734375 327.60968017578125 429.1177978515625 327.419677734375 428.9686279296875 327.229736328125 C 428.8408203125 327.060791015625 428.71295166015625 326.9130859375 428.5850830078125 326.786376953125 C 432.6763916015625 325.773193359375 436.096435546875 324.506591796875 438.84521484375 322.98675537109375 C 441.6153564453125 321.4669189453125 443.86346435546875 319.672607421875 445.5894775390625 317.6038818359375 C 447.3154296875 315.51409912109375 448.6365966796875 313.160400390625 449.5528564453125 310.5428466796875 C 450.4691162109375 307.92535400390625 451.140380859375 305.03338623046875 451.5665283203125 301.86700439453125 C 451.99267578125 298.70062255859375 452.291015625 295.28094482421875 452.4615478515625 291.60791015625M 475.7945556640625 274.2562255859375 C 476.337890625 274.562255859375 476.88128662109375 274.86834716796875 477.4246826171875 275.1744384765625 C 476.16748046875 277.200927734375 474.71844482421875 279.343505859375 473.07769775390625 281.6021728515625 C 471.4368896484375 283.8397216796875 469.9027099609375 285.771240234375 468.4749755859375 287.39666748046875 C 468.02752685546875 287.090576171875 467.580078125 286.78448486328125 467.132568359375 286.4783935546875 C 468.07012939453125 285.40185546875 469.082275390625 284.1458740234375 470.1690673828125 282.71044921875 C 471.25579833984375 281.25390625 472.28924560546875 279.78680419921875 473.26947021484375 278.30914306640625 C 474.24969482421875 276.83154296875 475.09136962890625 275.48052978515625 475.7945556640625 274.2562255859375M 434.2425537109375 275.6810302734375 C 434.75396728515625 275.417236328125 435.265380859375 275.1533203125 435.77679443359375 274.88946533203125 C 436.71435546875 275.9027099609375 437.630615234375 277.021484375 438.525634765625 278.245849609375 C 439.42059326171875 279.44903564453125 440.240966796875 280.6417236328125 440.98681640625 281.8238525390625 C 441.75390625 282.98486328125 442.3505859375 284.0086669921875 442.7767333984375 284.895263671875 C 442.2652587890625 285.222412109375 441.75390625 285.54962158203125 441.24249267578125 285.8768310546875 C 440.79498291015625 284.947998046875 440.1983642578125 283.903076171875 439.4525146484375 282.7420654296875 C 438.706787109375 281.5599365234375 437.8863525390625 280.34619140625 436.99139404296875 279.1007080078125 C 436.096435546875 277.834228515625 435.18017578125 276.6943359375 434.2425537109375 275.6810302734375M 450.92724609375 274.2562255859375 C 451.438720703125 274.097900390625 451.9500732421875 273.9395751953125 452.4615478515625 273.78125 C 453.5269775390625 275.5333251953125 454.5284423828125 277.43310546875 455.466064453125 279.480712890625 C 456.40362548828125 281.5283203125 457.0216064453125 283.25927734375 457.3199462890625 284.673583984375 C 456.78717041015625 284.8741455078125 456.2545166015625 285.07464599609375 455.72174072265625 285.275146484375 C 455.5086669921875 284.30419921875 455.15704345703125 283.18536376953125 454.6669921875 281.9188232421875 C 454.1768798828125 280.63116455078125 453.6015625 279.3223876953125 452.94091796875 277.9925537109375 C 452.30169677734375 276.64154052734375 451.6304931640625 275.3961181640625 450.92724609375 274.2562255859375"/>
  </g>
</svg>
