<?xml version="1.0" ?>
<svg xmlns="http://www.w3.org/2000/svg" version="1.1" width="600" height="600">
  <defs/>
  <g>
    <path stroke-width="0" fill="rgb(0, 0, 0)" opacity="1.0" d="M 229.3203125 144.59173583984375 C 237.0263671875 146.93121337890625 247.34716796875 149.6834716796875 260.28271484375 152.8486328125 C 273.2177734375 156.01376342773438 286.97900390625 159.17889404296875 301.5654296875 162.34402465820312 C 316.2900390625 165.50918579101562 330.4638671875 168.261474609375 344.08740234375 170.60092163085938 C 357.7109375 172.802734375 368.85693359375 174.3165283203125 377.5263671875 175.1422119140625 C 376.49462890625 179.064208984375 375.46240234375 182.98623657226562 374.43017578125 186.90826416015625 C 367.27490234375 185.94497680664062 358.60546875 184.63760375976562 348.421875 182.98623657226562 C 338.23876953125 181.197265625 327.22998046875 179.20184326171875 315.3955078125 177.0 C 303.69873046875 174.66055297851562 292.0703125 172.32110595703125 280.51123046875 169.98165893554688 C 269.08935546875 167.64218139648438 258.63134765625 165.37155151367188 249.13623046875 163.16973876953125 C 239.64111328125 160.83026123046875 231.8662109375 158.83486938476562 225.81103515625 157.18350219726562 C 226.98046875 152.98623657226562 228.150390625 148.78900146484375 229.3203125 144.59173583984375M 209.09130859375 209.61468505859375 C 207.8525390625 217.5963134765625 206.4765625 227.435791015625 204.962890625 239.13302612304688 C 203.44921875 250.83026123046875 201.8671875 263.0780029296875 200.2158203125 275.87615966796875 C 198.70166015625 288.53668212890625 197.119140625 300.5091552734375 195.4677734375 311.7935791015625 C 193.9541015625 322.94036865234375 192.578125 332.09173583984375 191.33984375 339.2476806640625 C 211.7060546875 318.8807373046875 233.65478515625 303.94952392578125 257.18603515625 294.4541320800781 C 280.85498046875 284.958740234375 306.03759765625 280.21099853515625 332.734375 280.21099853515625 C 350.2109375 280.21099853515625 365.8984375 283.3073425292969 379.79736328125 289.5 C 393.69580078125 295.6926574707031 404.70458984375 304.5 412.82373046875 315.9219970703125 C 421.08056640625 327.2064208984375 425.20849609375 340.3486328125 425.20849609375 355.3486328125 C 425.20849609375 372.55047607421875 420.94287109375 387.89453125 412.41064453125 401.3807373046875 C 404.0166015625 414.866943359375 391.494140625 426.0137939453125 374.84326171875 434.82110595703125 C 358.1923828125 443.4908447265625 337.48193359375 449.61468505859375 312.7119140625 453.192626953125 C 288.07958984375 456.7706298828125 259.52587890625 457.1834716796875 227.0498046875 454.43115234375 C 225.81103515625 450.23394775390625 224.572265625 446.03668212890625 223.333984375 441.8394775390625 C 267.2314453125 446.3807373046875 303.14794921875 445.21099853515625 331.0830078125 438.33026123046875 C 359.15576171875 431.4495849609375 380.00341796875 420.64678955078125 393.626953125 405.9219970703125 C 407.25048828125 391.05963134765625 414.06201171875 373.99542236328125 414.06201171875 354.7293701171875 C 414.06201171875 342.2064208984375 410.484375 331.12841796875 403.32861328125 321.49542236328125 C 396.1728515625 311.86236572265625 386.5400390625 304.36236572265625 374.43017578125 298.99542236328125 C 362.32080078125 293.6284484863281 348.5595703125 290.9449462890625 333.1474609375 290.9449462890625 C 303.56103515625 290.9449462890625 277.4150390625 296.24310302734375 254.70947265625 306.8394775390625 C 232.00341796875 317.29815673828125 213.01318359375 331.8165283203125 197.73828125 350.39453125 C 195.26171875 353.0091552734375 193.2666015625 355.83026123046875 191.75244140625 358.8577880859375 C 190.37646484375 361.88531494140625 189.275390625 364.56884765625 188.44970703125 366.90826416015625 C 184.115234375 365.87615966796875 179.7802734375 364.84405517578125 175.4453125 363.8118896484375 C 177.0966796875 357.2064208984375 178.748046875 348.67431640625 180.3994140625 338.215576171875 C 182.05078125 327.7568359375 183.7021484375 316.47247314453125 185.353515625 304.36236572265625 C 187.0048828125 292.11468505859375 188.5185546875 279.935791015625 189.89453125 267.82568359375 C 191.408203125 255.715576171875 192.64697265625 244.36236572265625 193.6103515625 233.76605224609375 C 194.7109375 223.16973876953125 195.537109375 214.56881713867188 196.0869140625 207.96331787109375 C 200.421875 208.51373291015625 204.7568359375 209.064208984375 209.09130859375 209.61468505859375"/>
  </g>
</svg>
