<?xml version="1.0" ?>
<svg xmlns="http://www.w3.org/2000/svg" version="1.1" width="600" height="600">
  <defs/>
  <g>
    <path stroke-width="0" fill="rgb(0, 0, 0)" opacity="1.0" d="M 132.84555053710938 265.6710205078125 C 134.09735107421875 265.74053955078125 135.26223754882812 265.827392578125 136.34017944335938 265.93157958984375 C 137.41815185546875 266.0357666015625 138.72210693359375 266.087890625 140.25210571289062 266.087890625 C 141.33004760742188 266.087890625 143.22515869140625 266.087890625 145.93740844726562 266.087890625 C 148.6844482421875 266.087890625 151.83135986328125 266.087890625 155.37814331054688 266.087890625 C 158.92495727539062 266.087890625 162.454345703125 266.087890625 165.96640014648438 266.087890625 C 169.51318359375 266.087890625 172.6427001953125 266.087890625 175.35498046875 266.087890625 C 178.10198974609375 266.087890625 180.01449584960938 266.087890625 181.09243774414062 266.087890625 C 182.23992919921875 266.087890625 183.54388427734375 266.05316162109375 185.00433349609375 265.983642578125 C 186.46478271484375 265.9141845703125 187.80352783203125 265.80999755859375 189.02056884765625 265.6710205078125 C 189.02056884765625 266.9041748046875 189.02056884765625 268.13726806640625 189.02056884765625 269.370361328125 C 187.7340087890625 269.2314453125 186.37786865234375 269.14459228515625 184.95217895507812 269.10986328125 C 183.52651977539062 269.07513427734375 182.23992919921875 269.0577392578125 181.09243774414062 269.0577392578125 C 180.01449584960938 269.0577392578125 178.119384765625 269.0577392578125 175.40713500976562 269.0577392578125 C 172.72964477539062 269.0577392578125 169.61749267578125 269.0577392578125 166.07070922851562 269.0577392578125 C 162.52389526367188 269.0577392578125 158.97711181640625 269.0577392578125 155.4302978515625 269.0577392578125 C 151.91827392578125 269.0577392578125 148.78875732421875 269.0577392578125 146.04171752929688 269.0577392578125 C 143.29470825195312 269.0577392578125 141.43435668945312 269.0577392578125 140.46072387695312 269.0577392578125 C 138.8612060546875 269.0577392578125 137.45291137695312 269.07513427734375 136.23587036132812 269.10986328125 C 135.01882934570312 269.14459228515625 133.88873291015625 269.2314453125 132.84555053710938 269.370361328125 C 132.84555053710938 268.13726806640625 132.84555053710938 266.9041748046875 132.84555053710938 265.6710205078125M 120.640380859375 290.36785888671875 C 121.8922119140625 290.43731689453125 123.1092529296875 290.5068359375 124.29150390625 290.5762939453125 C 125.508544921875 290.645751953125 126.88204956054688 290.68048095703125 128.41204833984375 290.68048095703125 C 129.14227294921875 290.68048095703125 130.79397583007812 290.68048095703125 133.36712646484375 290.68048095703125 C 135.9403076171875 290.68048095703125 139.08721923828125 290.68048095703125 142.80789184570312 290.68048095703125 C 146.56332397460938 290.68048095703125 150.596923828125 290.68048095703125 154.90872192382812 290.68048095703125 C 159.22052001953125 290.68048095703125 163.53231811523438 290.68048095703125 167.8441162109375 290.68048095703125 C 172.1558837890625 290.68048095703125 176.15472412109375 290.68048095703125 179.84063720703125 290.68048095703125 C 183.561279296875 290.68048095703125 186.67343139648438 290.68048095703125 189.17706298828125 290.68048095703125 C 191.6806640625 290.68048095703125 193.2628173828125 290.68048095703125 193.92349243164062 290.68048095703125 C 195.00146484375 290.68048095703125 196.07940673828125 290.645751953125 197.1573486328125 290.5762939453125 C 198.27008056640625 290.5068359375 199.36541748046875 290.43731689453125 200.443359375 290.36785888671875 C 200.443359375 291.531494140625 200.443359375 292.69512939453125 200.443359375 293.8587646484375 C 199.50448608398438 293.82403564453125 198.44393920898438 293.789306640625 197.26165771484375 293.7545166015625 C 196.11416625976562 293.7198486328125 195.00146484375 293.70245361328125 193.92349243164062 293.70245361328125 C 193.2628173828125 293.70245361328125 191.6806640625 293.70245361328125 189.17706298828125 293.70245361328125 C 186.67343139648438 293.70245361328125 183.561279296875 293.70245361328125 179.84063720703125 293.70245361328125 C 176.15472412109375 293.70245361328125 172.1558837890625 293.70245361328125 167.8441162109375 293.70245361328125 C 163.53231811523438 293.70245361328125 159.22052001953125 293.70245361328125 154.90872192382812 293.70245361328125 C 150.596923828125 293.70245361328125 146.56332397460938 293.70245361328125 142.80789184570312 293.70245361328125 C 139.08721923828125 293.70245361328125 135.9403076171875 293.70245361328125 133.36712646484375 293.70245361328125 C 130.79397583007812 293.70245361328125 129.14227294921875 293.70245361328125 128.41204833984375 293.70245361328125 C 126.88204956054688 293.70245361328125 125.52593994140625 293.70245361328125 124.34365844726562 293.70245361328125 C 123.1961669921875 293.70245361328125 121.96176147460938 293.7545166015625 120.640380859375 293.8587646484375 C 120.640380859375 292.69512939453125 120.640380859375 291.531494140625 120.640380859375 290.36785888671875M 163.67138671875 291.4620361328125 C 163.67138671875 297.47119140625 163.341064453125 303.15045166015625 162.68038940429688 308.49969482421875 C 162.01971435546875 313.814208984375 160.52447509765625 318.57293701171875 158.19473266601562 322.77587890625 C 156.90814208984375 324.929443359375 155.25643920898438 327.065673828125 153.23965454101562 329.1845703125 C 151.25759887695312 331.2686767578125 149.049560546875 333.24859619140625 146.615478515625 335.124267578125 C 144.181396484375 336.96527099609375 141.59085083007812 338.5977783203125 138.84381103515625 340.02197265625 C 137.83541870117188 339.2230224609375 136.82699584960938 338.42413330078125 135.818603515625 337.625244140625 C 140.02609252929688 335.74951171875 143.86843872070312 333.4049072265625 147.345703125 330.59130859375 C 150.82293701171875 327.77777099609375 153.53521728515625 324.68634033203125 155.48248291015625 321.3170166015625 C 158.0208740234375 317.1834716796875 159.51608276367188 312.59844970703125 159.9681396484375 307.56182861328125 C 160.4549560546875 302.52520751953125 160.71572875976562 297.1585693359375 160.75051879882812 291.4620361328125 C 161.72415161132812 291.4620361328125 162.69775390625 291.4620361328125 163.67138671875 291.4620361328125"/>
    <path stroke-width="0" fill="rgb(0, 0, 0)" opacity="1.0" d="M 286.8704833984375 270.985595703125 C 286.6618347167969 271.22869873046875 286.40106201171875 271.628173828125 286.08807373046875 272.1839599609375 C 285.8099365234375 272.7049560546875 285.6012878417969 273.13916015625 285.4621887207031 273.48651123046875 C 284.17559814453125 276.89056396484375 282.4891357421875 280.6246337890625 280.40277099609375 284.6885986328125 C 278.3511962890625 288.752685546875 276.05621337890625 292.7125244140625 273.517822265625 296.568115234375 C 270.97943115234375 300.38897705078125 268.3888854980469 303.72357177734375 265.74615478515625 306.5718994140625 C 262.0602722167969 310.6011962890625 258.0788269042969 314.49151611328125 253.80181884765625 318.242919921875 C 249.5247802734375 321.994384765625 245.00433349609375 325.50262451171875 240.24050903320312 328.7677001953125 C 235.4766845703125 331.99810791015625 230.38250732421875 334.8116455078125 224.95797729492188 337.2083740234375 C 224.158203125 336.34002685546875 223.35845947265625 335.4716796875 222.55868530273438 334.603271484375 C 227.98318481445312 332.4149169921875 233.1295166015625 329.7403564453125 237.9976806640625 326.57940673828125 C 242.8658447265625 323.3837890625 247.47320556640625 319.84075927734375 251.81976318359375 315.950439453125 C 256.20111083984375 312.06005859375 260.26947021484375 308.03076171875 264.02490234375 303.862548828125 C 266.35467529296875 301.22265625 268.7539978027344 298.0791015625 271.22283935546875 294.431884765625 C 273.6916809082031 290.78466796875 275.9171142578125 287.03326416015625 277.899169921875 283.1776123046875 C 279.91595458984375 279.322021484375 281.393798828125 275.81378173828125 282.3326416015625 272.65283203125 C 281.880615234375 272.65283203125 280.52447509765625 272.65283203125 278.2642822265625 272.65283203125 C 276.038818359375 272.65283203125 273.3439636230469 272.65283203125 270.1796569824219 272.65283203125 C 267.0153503417969 272.65283203125 263.67718505859375 272.65283203125 260.1651611328125 272.65283203125 C 256.65313720703125 272.65283203125 253.31500244140625 272.65283203125 250.15069580078125 272.65283203125 C 246.98638916015625 272.65283203125 244.3262939453125 272.65283203125 242.17041015625 272.65283203125 C 240.04925537109375 272.65283203125 238.7626953125 272.65283203125 238.31063842773438 272.65283203125 C 237.30224609375 272.65283203125 236.13735961914062 272.6876220703125 234.81597900390625 272.757080078125 C 233.5294189453125 272.8265380859375 232.38189697265625 272.878662109375 231.37353515625 272.91339111328125 C 230.3651123046875 272.9481201171875 229.86090087890625 272.9654541015625 229.86090087890625 272.9654541015625 C 229.86090087890625 271.6976318359375 229.86090087890625 270.4298095703125 229.86090087890625 269.1619873046875 C 229.86090087890625 269.1619873046875 230.34771728515625 269.1966552734375 231.32135009765625 269.26617431640625 C 232.29498291015625 269.33563232421875 233.42510986328125 269.4224853515625 234.711669921875 269.52667236328125 C 236.03302001953125 269.630859375 237.232666015625 269.6829833984375 238.31063842773438 269.6829833984375 C 238.7626953125 269.6829833984375 239.99710083007812 269.6829833984375 242.013916015625 269.6829833984375 C 244.06549072265625 269.6829833984375 246.58648681640625 269.6829833984375 249.57693481445312 269.6829833984375 C 252.60214233398438 269.6829833984375 255.76644897460938 269.6829833984375 259.06982421875 269.6829833984375 C 262.37322998046875 269.6829833984375 265.53753662109375 269.6829833984375 268.562744140625 269.6829833984375 C 271.62274169921875 269.6829833984375 274.1958923339844 269.6829833984375 276.2822265625 269.6829833984375 C 278.40338134765625 269.6829833984375 279.7247314453125 269.6829833984375 280.2463073730469 269.6829833984375 C 281.32427978515625 269.6829833984375 282.22833251953125 269.64825439453125 282.95855712890625 269.57879638671875 C 283.68878173828125 269.50927734375 284.314697265625 269.40509033203125 284.8363037109375 269.26617431640625 C 285.51434326171875 269.83929443359375 286.1924133300781 270.41241455078125 286.8704833984375 270.985595703125M 267.05010986328125 304.383544921875 C 269.9014892578125 306.7802734375 272.7528076171875 309.3507080078125 275.60418701171875 312.09478759765625 C 278.49029541015625 314.8388671875 281.306884765625 317.63507080078125 284.05389404296875 320.4833984375 C 286.8009338378906 323.29693603515625 289.3567199707031 326.00628662109375 291.72125244140625 328.6114501953125 C 294.08575439453125 331.216552734375 296.172119140625 333.61328125 297.98028564453125 335.8016357421875 C 297.145751953125 336.53106689453125 296.31121826171875 337.260498046875 295.4766845703125 337.989990234375 C 293.14691162109375 335.07220458984375 290.29559326171875 331.7550048828125 286.9226379394531 328.038330078125 C 283.5496826171875 324.286865234375 279.9681396484375 320.51806640625 276.17791748046875 316.73193359375 C 272.4224853515625 312.91107177734375 268.70184326171875 309.45489501953125 265.01593017578125 306.36346435546875 C 265.6940002441406 305.7034912109375 266.3720703125 305.04351806640625 267.05010986328125 304.383544921875"/>
    <path stroke-width="0" fill="rgb(0, 0, 0)" opacity="1.0" d="M 346.33148193359375 328.8719482421875 C 346.33148193359375 328.28143310546875 346.33148193359375 326.64886474609375 346.33148193359375 323.9742431640625 C 346.33148193359375 321.264892578125 346.33148193359375 317.9302978515625 346.33148193359375 313.970458984375 C 346.33148193359375 309.9759521484375 346.33148193359375 305.755615234375 346.33148193359375 301.3094482421875 C 346.33148193359375 296.82861328125 346.33148193359375 292.4693603515625 346.33148193359375 288.23162841796875 C 346.33148193359375 283.993896484375 346.33148193359375 280.2598876953125 346.33148193359375 277.029541015625 C 346.33148193359375 273.79913330078125 346.33148193359375 271.4892578125 346.33148193359375 270.099853515625 C 346.33148193359375 269.02301025390625 346.2967529296875 267.6162109375 346.2271728515625 265.87945556640625 C 346.1575927734375 264.1427001953125 346.03594970703125 262.6143798828125 345.862060546875 261.29443359375 C 347.1834716796875 261.29443359375 348.5047607421875 261.29443359375 349.826171875 261.29443359375 C 349.7218017578125 262.544921875 349.61749267578125 264.090576171875 349.51318359375 265.93157958984375 C 349.40887451171875 267.7725830078125 349.356689453125 269.1619873046875 349.356689453125 270.099853515625 C 349.356689453125 273.43438720703125 349.356689453125 277.151123046875 349.356689453125 281.2498779296875 C 349.356689453125 285.3486328125 349.356689453125 289.5341796875 349.356689453125 293.806640625 C 349.356689453125 298.04437255859375 349.37408447265625 302.1951904296875 349.40887451171875 306.25927734375 C 349.443603515625 310.28857421875 349.4610595703125 313.935791015625 349.4610595703125 317.20086669921875 C 349.4610595703125 320.46600341796875 349.4610595703125 323.157958984375 349.4610595703125 325.27685546875 C 349.4610595703125 327.3609619140625 349.4610595703125 328.559326171875 349.4610595703125 328.8719482421875 C 349.4610595703125 330.087646484375 349.4610595703125 331.2860107421875 349.4610595703125 332.467041015625 C 349.4610595703125 333.61328125 349.49578857421875 334.724853515625 349.56536865234375 335.8016357421875 C 349.6348876953125 336.87841796875 349.68707275390625 337.85101318359375 349.7218017578125 338.7193603515625 C 348.4874267578125 338.7193603515625 347.2529296875 338.7193603515625 346.0185546875 338.7193603515625 C 346.1575927734375 337.4342041015625 346.24456787109375 335.90582275390625 346.27935791015625 334.13433837890625 C 346.3140869140625 332.36279296875 346.33148193359375 330.60870361328125 346.33148193359375 328.8719482421875M 348.7308349609375 287.866943359375 C 351.9993896484375 288.874267578125 355.54620361328125 290.0726318359375 359.3712158203125 291.4620361328125 C 363.23095703125 292.81671142578125 367.1602783203125 294.27557373046875 371.1590576171875 295.83868408203125 C 375.1927490234375 297.4017333984375 379.06982421875 298.99957275390625 382.79052734375 300.63214111328125 C 386.5458984375 302.26470947265625 389.95361328125 303.84515380859375 393.01361083984375 305.37353515625 C 392.5789794921875 306.41552734375 392.144287109375 307.4576416015625 391.70965576171875 308.49969482421875 C 388.823486328125 306.90185546875 385.4853515625 305.251953125 381.6951904296875 303.5499267578125 C 377.939697265625 301.847900390625 374.04522705078125 300.19793701171875 370.0115966796875 298.60009765625 C 365.97796630859375 297.0023193359375 362.100830078125 295.578125 358.38018798828125 294.32769775390625 C 354.6943359375 293.04248046875 351.47784423828125 292.00042724609375 348.7308349609375 291.2015380859375 C 348.7308349609375 290.0899658203125 348.7308349609375 288.97845458984375 348.7308349609375 287.866943359375"/>
    <path stroke-width="0" fill="rgb(0, 0, 0)" opacity="1.0" d="M 477.9281005859375 261.45068359375 C 477.40655517578125 261.93701171875 476.572021484375 262.71856689453125 475.424560546875 263.79534912109375 C 474.27703857421875 264.83740234375 473.4425048828125 265.6015625 472.9208984375 266.087890625 C 471.11273193359375 267.75518798828125 468.869873046875 269.735107421875 466.1923828125 272.027587890625 C 463.5496826171875 274.3201904296875 460.733154296875 276.68212890625 457.74267578125 279.1136474609375 C 454.7869873046875 281.54510498046875 451.9183349609375 283.8897705078125 449.136474609375 286.14752197265625 C 446.35467529296875 288.37060546875 443.9727783203125 290.3157958984375 441.99072265625 291.9830322265625 C 439.7652587890625 293.92822265625 438.252685546875 295.560791015625 437.452880859375 296.8807373046875 C 436.65313720703125 298.1658935546875 436.6705322265625 299.451171875 437.50506591796875 300.736328125 C 438.339599609375 302.02154541015625 439.9913330078125 303.7061767578125 442.460205078125 305.79034423828125 C 444.6160888671875 307.527099609375 446.9632568359375 309.4375 449.5015869140625 311.52166748046875 C 452.03997802734375 313.571044921875 454.64794921875 315.74200439453125 457.325439453125 318.0345458984375 C 460.0377197265625 320.3270263671875 462.767333984375 322.6890869140625 465.51434326171875 325.1204833984375 C 468.2613525390625 327.51727294921875 470.9215087890625 329.931396484375 473.49462890625 332.36279296875 C 476.06781005859375 334.7943115234375 478.44970703125 337.138916015625 480.640380859375 339.396728515625 C 479.7711181640625 340.160888671875 478.9017333984375 340.925048828125 478.032470703125 341.68927001953125 C 476.6416015625 340.0914306640625 474.97247314453125 338.3199462890625 473.02520751953125 336.374755859375 C 471.0084228515625 334.3948974609375 468.5916748046875 332.11968994140625 465.775146484375 329.54931640625 C 462.9932861328125 326.9788818359375 460.0550537109375 324.3563232421875 456.9603271484375 321.6817626953125 C 453.86553955078125 318.972412109375 450.822998046875 316.3671875 447.83251953125 313.8663330078125 C 444.8768310546875 311.3653564453125 442.1993408203125 309.14227294921875 439.800048828125 307.1971435546875 C 436.77484130859375 304.73089599609375 434.8797607421875 302.62939453125 434.11474609375 300.89263916015625 C 433.3497314453125 299.1558837890625 433.5062255859375 297.4365234375 434.584228515625 295.7344970703125 C 435.6968994140625 294.032470703125 437.592041015625 292.052490234375 440.26953125 289.79473876953125 C 442.07763671875 288.266357421875 444.35528564453125 286.39068603515625 447.102294921875 284.1676025390625 C 449.88409423828125 281.9097900390625 452.78759765625 279.53045654296875 455.81280517578125 277.029541015625 C 458.872802734375 274.528564453125 461.7589111328125 272.11444091796875 464.47119140625 269.7872314453125 C 467.1834716796875 267.4599609375 469.37408447265625 265.3931884765625 471.043212890625 263.5869140625 C 471.56475830078125 262.961669921875 472.2254638671875 262.16278076171875 473.02520751953125 261.190185546875 C 473.824951171875 260.182861328125 474.39874267578125 259.3492431640625 474.7464599609375 258.68927001953125 C 475.8070068359375 259.6097412109375 476.8675537109375 260.5302734375 477.9281005859375 261.45068359375"/>
  </g>
</svg>
