<?xml version="1.0" encoding="utf-8"?>
<svg xmlns="http://www.w3.org/2000/svg" xmlns:ev="http://www.w3.org/2001/xml-events" xmlns:xlink="http://www.w3.org/1999/xlink" version="1.1" baseProfile="full" width="11226.0" height="1737.0" viewBox="179.0 -1601.0 11226.0 1737.0">
<defs/>
<g><path d="M 10028.000000 -954.000000 C 10367.333333 -954.000000 10706.666667 -954.000000 11046.000000 -954.000000 C 11046.000000 -935.666667 11046.000000 -917.333333 11046.000000 -899.000000 C 10706.666667 -899.000000 10367.333333 -899.000000 10028.000000 -899.000000 C 10028.000000 -917.333333 10028.000000 -935.666667 10028.000000 -954.000000z M 9727.000000 -511.000000 C 10286.333333 -511.000000 10845.666667 -511.000000 11405.000000 -511.000000 C 11405.000000 -491.666667 11405.000000 -472.333333 11405.000000 -453.000000 C 10845.666667 -453.000000 10286.333333 -453.000000 9727.000000 -453.000000 C 9727.000000 -472.333333 9727.000000 -491.666667 9727.000000 -511.000000z M 10533.000000 -666.000000 C 10552.333333 -666.000000 10571.666667 -666.000000 10591.000000 -666.000000 C 10591.000000 -432.000000 10591.000000 -198.000000 10591.000000 36.000000 C 10591.000000 64.666667 10585.666667 85.333333 10575.000000 98.000000 C 10565.000000 110.666667 10547.333333 119.666667 10522.000000 125.000000 C 10497.333333 129.666667 10458.666667 132.666667 10406.000000 134.000000 C 10354.000000 135.333333 10281.333333 136.000000 10188.000000 136.000000 C 10185.333333 128.666667 10181.000000 119.666667 10175.000000 109.000000 C 10169.000000 99.000000 10163.000000 89.666667 10157.000000 81.000000 C 10214.333333 82.333333 10265.333333 83.000000 10310.000000 83.000000 C 10355.333333 83.666667 10393.000000 83.666667 10423.000000 83.000000 C 10453.000000 83.000000 10474.333333 82.333333 10487.000000 81.000000 C 10506.333333 78.333333 10518.666667 74.000000 10524.000000 68.000000 C 10530.000000 62.666667 10533.000000 52.666667 10533.000000 38.000000 C 10533.000000 -196.666667 10533.000000 -431.333333 10533.000000 -666.000000z M 11032.000000 -954.000000 C 11036.666667 -954.000000 11041.333333 -954.000000 11046.000000 -954.000000 C 11050.333333 -955.333333 11054.666667 -956.666667 11059.000000 -958.000000 C 11072.666667 -948.333333 11086.333333 -938.666667 11100.000000 -929.000000 C 11057.333333 -888.333333 11006.666667 -848.666667 10948.000000 -810.000000 C 10889.333333 -772.000000 10828.000000 -737.000000 10764.000000 -705.000000 C 10700.666667 -673.000000 10639.666667 -645.333333 10581.000000 -622.000000 C 10575.666667 -628.666667 10569.333333 -635.000000 10562.000000 -641.000000 C 10555.333333 -647.666667 10549.000000 -653.666667 10543.000000 -659.000000 C 10601.666667 -680.333333 10661.666667 -706.333333 10723.000000 -737.000000 C 10784.333333 -767.666667 10842.333333 -800.666667 10897.000000 -836.000000 C 10951.666667 -871.333333 10996.666667 -906.333333 11032.000000 -941.000000 C 11032.000000 -945.333333 11032.000000 -949.666667 11032.000000 -954.000000z M 9780.000000 -1261.000000 C 10307.000000 -1261.000000 10834.000000 -1261.000000 11361.000000 -1261.000000 C 11361.000000 -1132.000000 11361.000000 -1003.000000 11361.000000 -874.000000 C 11341.666667 -874.000000 11322.333333 -874.000000 11303.000000 -874.000000 C 11303.000000 -984.000000 11303.000000 -1094.000000 11303.000000 -1204.000000 C 10814.666667 -1204.000000 10326.333333 -1204.000000 9838.000000 -1204.000000 C 9838.000000 -1094.000000 9838.000000 -984.000000 9838.000000 -874.000000 C 9818.666667 -874.000000 9799.333333 -874.000000 9780.000000 -874.000000 C 9780.000000 -1003.000000 9780.000000 -1132.000000 9780.000000 -1261.000000z M 11196.000000 -1584.000000 C 11213.000000 -1574.333333 11230.000000 -1564.666667 11247.000000 -1555.000000 C 11210.333333 -1500.333333 11167.666667 -1443.333333 11119.000000 -1384.000000 C 11070.333333 -1325.333333 11025.333333 -1275.000000 10984.000000 -1233.000000 C 10970.666667 -1242.333333 10957.333333 -1251.666667 10944.000000 -1261.000000 C 10970.666667 -1289.666667 10999.666667 -1323.000000 11031.000000 -1361.000000 C 11062.333333 -1399.666667 11092.666667 -1438.333333 11122.000000 -1477.000000 C 11152.000000 -1516.333333 11176.666667 -1552.000000 11196.000000 -1584.000000z M 9915.000000 -1544.000000 C 9930.333333 -1552.333333 9945.666667 -1560.666667 9961.000000 -1569.000000 C 10000.333333 -1525.000000 10038.333333 -1477.000000 10075.000000 -1425.000000 C 10111.666667 -1373.666667 10138.333333 -1328.666667 10155.000000 -1290.000000 C 10139.666667 -1280.333333 10124.333333 -1270.666667 10109.000000 -1261.000000 C 10091.000000 -1299.666667 10063.333333 -1345.333333 10026.000000 -1398.000000 C 9989.333333 -1451.333333 9952.333333 -1500.000000 9915.000000 -1544.000000z M 10418.000000 -1584.000000 C 10433.333333 -1589.666667 10448.666667 -1595.333333 10464.000000 -1601.000000 C 10498.666667 -1552.333333 10531.666667 -1498.666667 10563.000000 -1440.000000 C 10594.333333 -1381.333333 10615.666667 -1330.666667 10627.000000 -1288.000000 C 10611.000000 -1281.000000 10595.000000 -1274.000000 10579.000000 -1267.000000 C 10566.333333 -1310.333333 10545.000000 -1361.666667 10515.000000 -1421.000000 C 10485.000000 -1481.000000 10452.666667 -1535.333333 10418.000000 -1584.000000z "/>
</g></svg>
