<?xml version="1.0" encoding="utf-8"?>
<svg xmlns="http://www.w3.org/2000/svg" xmlns:ev="http://www.w3.org/2001/xml-events" xmlns:xlink="http://www.w3.org/1999/xlink" version="1.1" baseProfile="full" width="11171.0" height="1744.0" viewBox="190.0 -1596.0 11171.0 1744.0">
<defs/>
<g><path d="M 472.000000 -657.000000 C 794.666667 -657.000000 1117.333333 -657.000000 1440.000000 -657.000000 C 1440.000000 -638.333333 1440.000000 -619.666667 1440.000000 -601.000000 C 1117.333333 -601.000000 794.666667 -601.000000 472.000000 -601.000000 C 472.000000 -619.666667 472.000000 -638.333333 472.000000 -657.000000z M 440.000000 -399.000000 C 786.666667 -399.000000 1133.333333 -399.000000 1480.000000 -399.000000 C 1480.000000 -380.666667 1480.000000 -362.333333 1480.000000 -344.000000 C 1133.333333 -344.000000 786.666667 -344.000000 440.000000 -344.000000 C 440.000000 -362.333333 440.000000 -380.666667 440.000000 -399.000000z M 914.000000 -634.000000 C 933.333333 -634.000000 952.666667 -634.000000 972.000000 -634.000000 C 972.000000 -575.000000 972.000000 -516.000000 972.000000 -457.000000 C 972.000000 -418.333333 967.000000 -377.333333 957.000000 -334.000000 C 947.666667 -290.666667 926.666667 -246.000000 894.000000 -200.000000 C 861.333333 -154.666667 811.333333 -111.333333 744.000000 -70.000000 C 676.666667 -28.666667 586.000000 9.333333 472.000000 44.000000 C 468.666667 38.000000 463.333333 30.333333 456.000000 21.000000 C 448.666667 12.333333 442.666667 5.333333 438.000000 0.000000 C 548.000000 -30.666667 635.000000 -65.333333 699.000000 -104.000000 C 763.000000 -143.333333 810.333333 -183.333333 841.000000 -224.000000 C 871.666667 -265.333333 891.333333 -306.000000 900.000000 -346.000000 C 909.333333 -386.666667 914.000000 -423.666667 914.000000 -457.000000 C 914.000000 -516.000000 914.000000 -575.000000 914.000000 -634.000000z M 987.000000 -382.000000 C 1023.000000 -287.333333 1082.333333 -208.666667 1165.000000 -146.000000 C 1248.333333 -83.333333 1350.333333 -39.666667 1471.000000 -15.000000 C 1463.000000 -10.333333 1455.333333 -3.333333 1448.000000 6.000000 C 1441.333333 16.000000 1435.333333 25.000000 1430.000000 33.000000 C 1310.000000 2.333333 1206.333333 -47.000000 1119.000000 -115.000000 C 1032.333333 -183.000000 970.333333 -267.666667 933.000000 -369.000000 C 951.000000 -373.333333 969.000000 -377.666667 987.000000 -382.000000z M 630.000000 -849.000000 C 646.000000 -855.333333 662.000000 -861.666667 678.000000 -868.000000 C 703.333333 -838.666667 726.666667 -805.000000 748.000000 -767.000000 C 770.000000 -729.000000 785.666667 -696.000000 795.000000 -668.000000 C 777.666667 -660.333333 760.333333 -652.666667 743.000000 -645.000000 C 734.333333 -674.333333 719.666667 -708.000000 699.000000 -746.000000 C 678.333333 -784.000000 655.333333 -818.333333 630.000000 -849.000000z M 1215.000000 -876.000000 C 1232.333333 -867.000000 1249.666667 -858.000000 1267.000000 -849.000000 C 1246.333333 -813.000000 1224.666667 -776.000000 1202.000000 -738.000000 C 1180.000000 -700.666667 1158.333333 -667.666667 1137.000000 -639.000000 C 1123.333333 -646.666667 1109.666667 -654.333333 1096.000000 -662.000000 C 1115.333333 -692.000000 1136.666667 -727.666667 1160.000000 -769.000000 C 1184.000000 -810.333333 1202.333333 -846.000000 1215.000000 -876.000000z M 223.000000 -1240.000000 C 421.333333 -1240.000000 619.666667 -1240.000000 818.000000 -1240.000000 C 818.000000 -1221.666667 818.000000 -1203.333333 818.000000 -1185.000000 C 619.666667 -1185.000000 421.333333 -1185.000000 223.000000 -1185.000000 C 223.000000 -1203.333333 223.000000 -1221.666667 223.000000 -1240.000000z M 1102.000000 -1240.000000 C 1303.000000 -1240.000000 1504.000000 -1240.000000 1705.000000 -1240.000000 C 1705.000000 -1221.666667 1705.000000 -1203.333333 1705.000000 -1185.000000 C 1504.000000 -1185.000000 1303.000000 -1185.000000 1102.000000 -1185.000000 C 1102.000000 -1203.333333 1102.000000 -1221.666667 1102.000000 -1240.000000z M 1682.000000 -1503.000000 C 1701.333333 -1503.000000 1720.666667 -1503.000000 1740.000000 -1503.000000 C 1740.000000 -991.000000 1740.000000 -479.000000 1740.000000 33.000000 C 1740.000000 61.000000 1735.666667 81.666667 1727.000000 95.000000 C 1719.000000 108.333333 1704.666667 118.333333 1684.000000 125.000000 C 1666.000000 129.666667 1636.666667 132.333333 1596.000000 133.000000 C 1556.000000 133.666667 1505.333333 134.000000 1444.000000 134.000000 C 1442.666667 126.666667 1439.333333 116.666667 1434.000000 104.000000 C 1429.333333 92.000000 1424.333333 81.666667 1419.000000 73.000000 C 1473.000000 74.333333 1521.000000 75.000000 1563.000000 75.000000 C 1605.000000 75.000000 1633.000000 74.333333 1647.000000 73.000000 C 1660.333333 71.666667 1669.333333 68.333333 1674.000000 63.000000 C 1679.333333 58.333333 1682.000000 49.000000 1682.000000 35.000000 C 1682.000000 -477.666667 1682.000000 -990.333333 1682.000000 -1503.000000z M 227.000000 -1503.000000 C 434.333333 -1503.000000 641.666667 -1503.000000 849.000000 -1503.000000 C 849.000000 -1305.333333 849.000000 -1107.666667 849.000000 -910.000000 C 641.666667 -910.000000 434.333333 -910.000000 227.000000 -910.000000 C 227.000000 -928.666667 227.000000 -947.333333 227.000000 -966.000000 C 415.666667 -966.000000 604.333333 -966.000000 793.000000 -966.000000 C 793.000000 -1126.666667 793.000000 -1287.333333 793.000000 -1448.000000 C 604.333333 -1448.000000 415.666667 -1448.000000 227.000000 -1448.000000 C 227.000000 -1466.333333 227.000000 -1484.666667 227.000000 -1503.000000z M 1703.000000 -1503.000000 C 1703.000000 -1484.666667 1703.000000 -1466.333333 1703.000000 -1448.000000 C 1508.333333 -1448.000000 1313.666667 -1448.000000 1119.000000 -1448.000000 C 1119.000000 -1287.333333 1119.000000 -1126.666667 1119.000000 -966.000000 C 1313.666667 -966.000000 1508.333333 -966.000000 1703.000000 -966.000000 C 1703.000000 -947.333333 1703.000000 -928.666667 1703.000000 -910.000000 C 1490.000000 -910.000000 1277.000000 -910.000000 1064.000000 -910.000000 C 1064.000000 -1107.666667 1064.000000 -1305.333333 1064.000000 -1503.000000 C 1277.000000 -1503.000000 1490.000000 -1503.000000 1703.000000 -1503.000000z M 190.000000 -1503.000000 C 209.333333 -1503.000000 228.666667 -1503.000000 248.000000 -1503.000000 C 248.000000 -956.000000 248.000000 -409.000000 248.000000 138.000000 C 228.666667 138.000000 209.333333 138.000000 190.000000 138.000000 C 190.000000 -409.000000 190.000000 -956.000000 190.000000 -1503.000000z "/>
</g></svg>
