<?xml version="1.0" encoding="utf-8"?>
<svg xmlns="http://www.w3.org/2000/svg" xmlns:ev="http://www.w3.org/2001/xml-events" xmlns:xlink="http://www.w3.org/1999/xlink" version="1.1" baseProfile="full" width="17103.0" height="1740.3" viewBox="60.0 -1597.0 17103.0 1740.3">
<defs/>
<g><path d="M 16458.000000 -100.000000 C 16656.000000 -100.000000 16854.000000 -100.000000 17052.000000 -100.000000 C 17052.000000 -81.333333 17052.000000 -62.666667 17052.000000 -44.000000 C 16854.000000 -44.000000 16656.000000 -44.000000 16458.000000 -44.000000 C 16458.000000 -62.666667 16458.000000 -81.333333 16458.000000 -100.000000z M 15502.000000 -893.000000 C 15753.666667 -893.000000 16005.333333 -893.000000 16257.000000 -893.000000 C 16257.000000 -873.666667 16257.000000 -854.333333 16257.000000 -835.000000 C 16005.333333 -835.000000 15753.666667 -835.000000 15502.000000 -835.000000 C 15502.000000 -854.333333 15502.000000 -873.666667 15502.000000 -893.000000z M 16424.000000 -975.000000 C 16639.666667 -975.000000 16855.333333 -975.000000 17071.000000 -975.000000 C 17071.000000 -622.333333 17071.000000 -269.666667 17071.000000 83.000000 C 17052.333333 83.000000 17033.666667 83.000000 17015.000000 83.000000 C 17015.000000 -250.666667 17015.000000 -584.333333 17015.000000 -918.000000 C 16836.333333 -918.000000 16657.666667 -918.000000 16479.000000 -918.000000 C 16479.000000 -581.333333 16479.000000 -244.666667 16479.000000 92.000000 C 16460.666667 92.000000 16442.333333 92.000000 16424.000000 92.000000 C 16424.000000 -263.666667 16424.000000 -619.333333 16424.000000 -975.000000z M 15892.000000 -1156.000000 C 15911.000000 -1152.000000 15930.000000 -1148.000000 15949.000000 -1144.000000 C 15925.000000 -1077.333333 15897.666667 -1005.333333 15867.000000 -928.000000 C 15836.333333 -850.666667 15805.000000 -773.000000 15773.000000 -695.000000 C 15741.000000 -617.000000 15709.333333 -542.333333 15678.000000 -471.000000 C 15646.666667 -400.333333 15618.000000 -337.333333 15592.000000 -282.000000 C 15573.666667 -289.000000 15555.333333 -296.000000 15537.000000 -303.000000 C 15562.333333 -357.000000 15590.666667 -419.333333 15622.000000 -490.000000 C 15653.333333 -561.333333 15685.000000 -635.666667 15717.000000 -713.000000 C 15749.000000 -790.333333 15780.000000 -867.000000 15810.000000 -943.000000 C 15840.000000 -1019.666667 15867.333333 -1090.666667 15892.000000 -1156.000000z M 16236.000000 -893.000000 C 16239.666667 -893.000000 16243.333333 -893.000000 16247.000000 -893.000000 C 16251.000000 -894.333333 16255.000000 -895.666667 16259.000000 -897.000000 C 16270.333333 -892.333333 16281.666667 -887.666667 16293.000000 -883.000000 C 16265.000000 -674.333333 16215.666667 -502.000000 16145.000000 -366.000000 C 16075.000000 -230.666667 15988.000000 -123.333333 15884.000000 -44.000000 C 15780.666667 35.333333 15664.333333 96.000000 15535.000000 138.000000 C 15531.000000 132.000000 15525.666667 124.000000 15519.000000 114.000000 C 15513.000000 104.666667 15506.666667 97.333333 15500.000000 92.000000 C 15624.000000 54.000000 15736.666667 -3.000000 15838.000000 -79.000000 C 15939.333333 -155.666667 16024.333333 -259.000000 16093.000000 -389.000000 C 16162.333333 -519.000000 16210.000000 -681.666667 16236.000000 -877.000000 C 16236.000000 -882.333333 16236.000000 -887.666667 16236.000000 -893.000000z M 15606.000000 -411.000000 C 15618.666667 -423.666667 15631.333333 -436.333333 15644.000000 -449.000000 C 15728.666667 -413.666667 15813.666667 -371.000000 15899.000000 -321.000000 C 15985.000000 -271.000000 16064.333333 -219.000000 16137.000000 -165.000000 C 16210.333333 -111.000000 16269.333333 -60.000000 16314.000000 -12.000000 C 16300.000000 2.333333 16286.000000 16.666667 16272.000000 31.000000 C 16227.333333 -17.666667 16168.666667 -69.000000 16096.000000 -123.000000 C 16024.000000 -177.000000 15945.000000 -229.000000 15859.000000 -279.000000 C 15773.666667 -329.666667 15689.333333 -373.666667 15606.000000 -411.000000z M 15477.000000 -1400.000000 C 16039.000000 -1400.000000 16601.000000 -1400.000000 17163.000000 -1400.000000 C 17163.000000 -1381.333333 17163.000000 -1362.666667 17163.000000 -1344.000000 C 16601.000000 -1344.000000 16039.000000 -1344.000000 15477.000000 -1344.000000 C 15477.000000 -1362.666667 15477.000000 -1381.333333 15477.000000 -1400.000000z M 15957.000000 -1594.000000 C 15975.666667 -1594.000000 15994.333333 -1594.000000 16013.000000 -1594.000000 C 16013.000000 -1438.333333 16013.000000 -1282.666667 16013.000000 -1127.000000 C 15994.333333 -1127.000000 15975.666667 -1127.000000 15957.000000 -1127.000000 C 15957.000000 -1282.666667 15957.000000 -1438.333333 15957.000000 -1594.000000z M 16618.000000 -1594.000000 C 16636.333333 -1594.000000 16654.666667 -1594.000000 16673.000000 -1594.000000 C 16673.000000 -1435.666667 16673.000000 -1277.333333 16673.000000 -1119.000000 C 16654.666667 -1119.000000 16636.333333 -1119.000000 16618.000000 -1119.000000 C 16618.000000 -1277.333333 16618.000000 -1435.666667 16618.000000 -1594.000000z "/>
</g></svg>
