<?xml version="1.0" encoding="utf-8"?>
<svg xmlns="http://www.w3.org/2000/svg" xmlns:ev="http://www.w3.org/2001/xml-events" xmlns:xlink="http://www.w3.org/1999/xlink" version="1.1" baseProfile="full" width="41856.0" height="1776.0" viewBox="67.0 -1634.0 41856.0 1776.0">
<defs/>
<g><path d="M 25937.000000 -1507.000000 C 25934.333333 -1489.000000 25932.333333 -1469.000000 25931.000000 -1447.000000 C 25930.333333 -1425.666667 25930.000000 -1408.666667 25930.000000 -1396.000000 C 25930.000000 -1383.333333 25930.000000 -1362.000000 25930.000000 -1332.000000 C 25930.000000 -1302.666667 25930.000000 -1272.000000 25930.000000 -1240.000000 C 25930.000000 -1208.000000 25930.000000 -1181.333333 25930.000000 -1160.000000 C 25910.666667 -1160.000000 25891.333333 -1160.000000 25872.000000 -1160.000000 C 25872.000000 -1182.666667 25872.000000 -1210.000000 25872.000000 -1242.000000 C 25872.000000 -1274.000000 25872.000000 -1304.333333 25872.000000 -1333.000000 C 25872.000000 -1362.333333 25872.000000 -1383.333333 25872.000000 -1396.000000 C 25872.000000 -1408.666667 25871.666667 -1425.666667 25871.000000 -1447.000000 C 25870.333333 -1469.000000 25868.666667 -1489.000000 25866.000000 -1507.000000 C 25889.666667 -1507.000000 25913.333333 -1507.000000 25937.000000 -1507.000000z M 26602.000000 -1167.000000 C 26599.333333 -1161.000000 26596.000000 -1151.000000 26592.000000 -1137.000000 C 26588.000000 -1123.000000 26584.666667 -1107.000000 26582.000000 -1089.000000 C 26578.666667 -1058.333333 26571.666667 -1018.666667 26561.000000 -970.000000 C 26551.000000 -921.333333 26538.000000 -868.000000 26522.000000 -810.000000 C 26506.000000 -752.666667 26486.333333 -695.333333 26463.000000 -638.000000 C 26440.333333 -581.333333 26414.333333 -528.666667 26385.000000 -480.000000 C 26339.666667 -407.333333 26282.666667 -338.333333 26214.000000 -273.000000 C 26146.000000 -207.666667 26065.000000 -149.333333 25971.000000 -98.000000 C 25877.000000 -46.666667 25769.666667 -3.666667 25649.000000 31.000000 C 25632.333333 12.333333 25615.666667 -6.333333 25599.000000 -25.000000 C 25619.666667 -27.666667 25640.333333 -31.666667 25661.000000 -37.000000 C 25682.333333 -43.000000 25703.333333 -49.333333 25724.000000 -56.000000 C 25800.666667 -77.333333 25877.333333 -109.666667 25954.000000 -153.000000 C 26031.333333 -197.000000 26103.000000 -249.000000 26169.000000 -309.000000 C 26235.000000 -369.000000 26289.000000 -433.666667 26331.000000 -503.000000 C 26368.333333 -564.333333 26400.666667 -633.333333 26428.000000 -710.000000 C 26455.333333 -787.333333 26477.333333 -863.000000 26494.000000 -937.000000 C 26510.666667 -1011.000000 26521.000000 -1074.333333 26525.000000 -1127.000000 C 26127.333333 -1127.000000 25729.666667 -1127.000000 25332.000000 -1127.000000 C 25332.000000 -1103.666667 25332.000000 -1072.333333 25332.000000 -1033.000000 C 25332.000000 -994.333333 25332.000000 -954.000000 25332.000000 -912.000000 C 25332.000000 -870.000000 25332.000000 -831.333333 25332.000000 -796.000000 C 25332.000000 -760.666667 25332.000000 -736.000000 25332.000000 -722.000000 C 25332.000000 -709.333333 25332.666667 -694.333333 25334.000000 -677.000000 C 25335.333333 -659.666667 25336.666667 -646.000000 25338.000000 -636.000000 C 25315.000000 -636.000000 25292.000000 -636.000000 25269.000000 -636.000000 C 25271.666667 -646.000000 25273.333333 -659.666667 25274.000000 -677.000000 C 25274.666667 -694.333333 25275.000000 -708.666667 25275.000000 -720.000000 C 25275.000000 -735.333333 25275.000000 -758.333333 25275.000000 -789.000000 C 25275.000000 -819.666667 25275.000000 -853.333333 25275.000000 -890.000000 C 25275.000000 -926.666667 25275.000000 -960.666667 25275.000000 -992.000000 C 25275.000000 -1023.333333 25275.000000 -1046.666667 25275.000000 -1062.000000 C 25275.000000 -1081.333333 25274.666667 -1103.000000 25274.000000 -1127.000000 C 25273.333333 -1151.666667 25271.666667 -1173.333333 25269.000000 -1192.000000 C 25292.333333 -1190.666667 25317.666667 -1189.000000 25345.000000 -1187.000000 C 25372.333333 -1185.666667 25401.333333 -1185.000000 25432.000000 -1185.000000 C 25773.333333 -1185.000000 26114.666667 -1185.000000 26456.000000 -1185.000000 C 26488.000000 -1185.000000 26511.333333 -1186.000000 26526.000000 -1188.000000 C 26540.666667 -1190.666667 26551.666667 -1193.333333 26559.000000 -1196.000000 C 26573.333333 -1186.333333 26587.666667 -1176.666667 26602.000000 -1167.000000z "/>
</g></svg>
