<?xml version="1.0" ?>
<svg xmlns="http://www.w3.org/2000/svg" version="1.1" width="600" height="600">
  <defs/>
  <g>
    <path stroke-width="0" fill="rgb(0, 0, 0)" opacity="1.0" d="M 152.80133056640625 308.0023193359375 C 162.74826049804688 308.0023193359375 172.6951904296875 308.0023193359375 182.64212036132812 308.0023193359375 C 182.64212036132812 316.27764892578125 182.64212036132812 324.552978515625 182.64212036132812 332.828369140625 C 181.94161987304688 332.828369140625 181.24114990234375 332.828369140625 180.5406494140625 332.828369140625 C 180.5406494140625 325.28802490234375 180.5406494140625 317.7476806640625 180.5406494140625 310.2073974609375 C 172.03289794921875 310.2073974609375 163.525146484375 310.2073974609375 155.01739501953125 310.2073974609375 C 155.01739501953125 317.83642578125 155.01739501953125 325.4654541015625 155.01739501953125 333.094482421875 C 154.27871704101562 333.094482421875 153.54000854492188 333.094482421875 152.80133056640625 333.094482421875 C 152.80133056640625 324.73040771484375 152.80133056640625 316.3663330078125 152.80133056640625 308.0023193359375M 150.3177490234375 282.6820068359375 C 160.31564331054688 282.6820068359375 170.31353759765625 282.6820068359375 180.3114013671875 282.6820068359375 C 180.3114013671875 288.270751953125 180.3114013671875 293.85943603515625 180.3114013671875 299.4481201171875 C 179.57269287109375 299.4481201171875 178.83401489257812 299.4481201171875 178.09530639648438 299.4481201171875 C 178.09530639648438 294.55645751953125 178.09530639648438 289.66473388671875 178.09530639648438 284.7730712890625 C 168.83612060546875 284.7730712890625 159.57693481445312 284.7730712890625 150.3177490234375 284.7730712890625 C 150.3177490234375 284.0760498046875 150.3177490234375 283.3790283203125 150.3177490234375 282.6820068359375M 162.54446411132812 271.2764892578125 C 163.28317260742188 271.37786865234375 164.0218505859375 271.479248046875 164.76055908203125 271.5806884765625 C 164.3275146484375 274.4447021484375 163.81808471679688 277.6129150390625 163.23220825195312 281.08526611328125 C 162.6463623046875 284.5322265625 162.0350341796875 287.87786865234375 161.39822387695312 291.12213134765625 C 160.76141357421875 294.34100341796875 160.175537109375 297.09100341796875 159.640625 299.37213134765625 C 158.90191650390625 299.37213134765625 158.16323852539062 299.37213134765625 157.42453002929688 299.37213134765625 C 157.85757446289062 297.623291015625 158.3033447265625 295.58294677734375 158.7618408203125 293.25115966796875 C 159.24578857421875 290.91937255859375 159.70431518554688 288.4608154296875 160.1373291015625 285.8756103515625 C 160.57037353515625 283.290283203125 160.99066162109375 280.7557373046875 161.39822387695312 278.2718505859375 C 161.83123779296875 275.7626953125 162.21331787109375 273.430908203125 162.54446411132812 271.2764892578125M 149.209716796875 270.70623779296875 C 161.09255981445312 270.70623779296875 172.97537231445312 270.70623779296875 184.85821533203125 270.70623779296875 C 184.85821533203125 271.4031982421875 184.85821533203125 272.1002197265625 184.85821533203125 272.7972412109375 C 172.97537231445312 272.7972412109375 161.09255981445312 272.7972412109375 149.209716796875 272.7972412109375 C 149.209716796875 272.1002197265625 149.209716796875 271.4031982421875 149.209716796875 270.70623779296875M 147.4521484375 298.6497802734375 C 160.634033203125 298.6497802734375 173.81594848632812 298.6497802734375 186.99786376953125 298.6497802734375 C 186.99786376953125 299.35943603515625 186.99786376953125 300.069091796875 186.99786376953125 300.77880859375 C 173.81594848632812 300.77880859375 160.634033203125 300.77880859375 147.4521484375 300.77880859375 C 147.4521484375 300.069091796875 147.4521484375 299.35943603515625 147.4521484375 298.6497802734375M 154.25323486328125 327.049560546875 C 163.3341064453125 327.049560546875 172.41497802734375 327.049560546875 181.495849609375 327.049560546875 C 181.495849609375 327.75921630859375 181.495849609375 328.4688720703125 181.495849609375 329.1785888671875 C 172.41497802734375 329.1785888671875 163.3341064453125 329.1785888671875 154.25323486328125 329.1785888671875 C 154.25323486328125 328.4688720703125 154.25323486328125 327.75921630859375 154.25323486328125 327.049560546875M 123.83932495117188 289.4493408203125 C 130.56399536132812 289.4493408203125 137.2886962890625 289.4493408203125 144.01336669921875 289.4493408203125 C 144.01336669921875 290.15899658203125 144.01336669921875 290.86865234375 144.01336669921875 291.578369140625 C 137.2886962890625 291.578369140625 130.56399536132812 291.578369140625 123.83932495117188 291.578369140625 C 123.83932495117188 290.86865234375 123.83932495117188 290.15899658203125 123.83932495117188 289.4493408203125M 124.25961303710938 270.25 C 130.76779174804688 270.25 137.27593994140625 270.25 143.78411865234375 270.25 C 143.78411865234375 270.959716796875 143.78411865234375 271.66937255859375 143.78411865234375 272.3790283203125 C 137.27593994140625 272.3790283203125 130.76779174804688 272.3790283203125 124.25961303710938 272.3790283203125 C 124.25961303710938 271.66937255859375 124.25961303710938 270.959716796875 124.25961303710938 270.25M 123.83932495117188 299.1820068359375 C 130.56399536132812 299.1820068359375 137.2886962890625 299.1820068359375 144.01336669921875 299.1820068359375 C 144.01336669921875 299.8790283203125 144.01336669921875 300.5760498046875 144.01336669921875 301.2730712890625 C 137.2886962890625 301.2730712890625 130.56399536132812 301.2730712890625 123.83932495117188 301.2730712890625 C 123.83932495117188 300.5760498046875 123.83932495117188 299.8790283203125 123.83932495117188 299.1820068359375M 120.43875122070312 279.6785888671875 C 129.09933471679688 279.6785888671875 137.75991821289062 279.6785888671875 146.42050170898438 279.6785888671875 C 146.42050170898438 280.41357421875 146.42050170898438 281.14862060546875 146.42050170898438 281.8836669921875 C 137.75991821289062 281.8836669921875 129.09933471679688 281.8836669921875 120.43875122070312 281.8836669921875 C 120.43875122070312 281.14862060546875 120.43875122070312 280.41357421875 120.43875122070312 279.6785888671875M 124.98556518554688 308.876708984375 C 131.34091186523438 308.876708984375 137.69622802734375 308.876708984375 144.05157470703125 308.876708984375 C 144.05157470703125 315.6693115234375 144.05157470703125 322.46197509765625 144.05157470703125 329.254638671875 C 137.69622802734375 329.254638671875 131.34091186523438 329.254638671875 124.98556518554688 329.254638671875 C 124.98556518554688 328.544921875 124.98556518554688 327.83526611328125 124.98556518554688 327.1256103515625 C 130.61492919921875 327.1256103515625 136.24432373046875 327.1256103515625 141.87368774414062 327.1256103515625 C 141.87368774414062 321.77764892578125 141.87368774414062 316.4296875 141.87368774414062 311.081787109375 C 136.24432373046875 311.081787109375 130.61492919921875 311.081787109375 124.98556518554688 311.081787109375 C 124.98556518554688 310.3468017578125 124.98556518554688 309.61175537109375 124.98556518554688 308.876708984375M 123.83932495117188 308.876708984375 C 124.56527709960938 308.876708984375 125.29122924804688 308.876708984375 126.01718139648438 308.876708984375 C 126.01718139648438 316.9239501953125 126.01718139648438 324.97119140625 126.01718139648438 333.0184326171875 C 125.29122924804688 333.0184326171875 124.56527709960938 333.0184326171875 123.83932495117188 333.0184326171875 C 123.83932495117188 324.97119140625 123.83932495117188 316.9239501953125 123.83932495117188 308.876708984375"/>
    <path stroke-width="0" fill="rgb(0, 0, 0)" opacity="1.0" d="M 207.51580810546875 267.626708984375 C 208.2545166015625 267.8675537109375 208.99322509765625 268.1082763671875 209.73190307617188 268.34912109375 C 208.84039306640625 270.14862060546875 207.88516235351562 272.07489013671875 206.86627197265625 274.12786865234375 C 205.84738159179688 276.180908203125 204.77752685546875 278.1705322265625 203.65676879882812 280.0968017578125 C 202.56146240234375 281.9976806640625 201.50436401367188 283.70849609375 200.4854736328125 285.229248046875 C 199.87411499023438 284.98846435546875 199.26278686523438 284.7476806640625 198.65145874023438 284.5069580078125 C 199.67034912109375 282.9862060546875 200.72744750976562 281.2373046875 201.82275390625 279.2603759765625 C 202.94354248046875 277.258056640625 204.00064086914062 275.23040771484375 204.99404907226562 273.17742919921875 C 205.98748779296875 271.09912109375 206.82806396484375 269.24884033203125 207.51580810546875 267.626708984375M 193.95181274414062 283.70849609375 C 196.44808959960938 283.607177734375 199.313720703125 283.49310302734375 202.5487060546875 283.3663330078125 C 205.80917358398438 283.2396240234375 209.31161499023438 283.1002197265625 213.0560302734375 282.9481201171875 C 216.80047607421875 282.770751953125 220.60858154296875 282.60595703125 224.4803466796875 282.45391845703125 C 224.45489501953125 283.16357421875 224.42941284179688 283.873291015625 224.4039306640625 284.58294677734375 C 220.73593139648438 284.7603759765625 217.06793212890625 284.93780517578125 213.39990234375 285.115234375 C 209.73190307617188 285.2926025390625 206.26766967773438 285.4573974609375 203.0072021484375 285.60943603515625 C 199.772216796875 285.7362060546875 196.85565185546875 285.8756103515625 194.25747680664062 286.02764892578125 C 194.15557861328125 285.254638671875 194.0537109375 284.4815673828125 193.95181274414062 283.70849609375M 198.49862670898438 293.0230712890625 C 206.22946166992188 293.0230712890625 213.96029663085938 293.0230712890625 221.691162109375 293.0230712890625 C 221.691162109375 293.73272705078125 221.691162109375 294.4423828125 221.691162109375 295.152099609375 C 214.67352294921875 295.152099609375 207.65591430664062 295.152099609375 200.6383056640625 295.152099609375 C 200.6383056640625 307.774169921875 200.6383056640625 320.39630126953125 200.6383056640625 333.0184326171875 C 199.925048828125 333.0184326171875 199.21185302734375 333.0184326171875 198.49862670898438 333.0184326171875 C 198.49862670898438 319.6866455078125 198.49862670898438 306.3548583984375 198.49862670898438 293.0230712890625M 220.88876342773438 293.0230712890625 C 221.58926391601562 293.0230712890625 222.28973388671875 293.0230712890625 222.990234375 293.0230712890625 C 222.990234375 305.1256103515625 222.990234375 317.2281494140625 222.990234375 329.3306884765625 C 222.990234375 330.2430419921875 222.85012817382812 330.9400634765625 222.5699462890625 331.421630859375 C 222.31521606445312 331.9031982421875 221.81851196289062 332.270751953125 221.07980346679688 332.524169921875 C 220.31564331054688 332.7269287109375 219.15664672851562 332.84100341796875 217.60284423828125 332.8663330078125 C 216.07449340820312 332.8917236328125 214.1131591796875 332.9044189453125 211.71875 332.9044189453125 C 211.66778564453125 332.6002197265625 211.55316162109375 332.23272705078125 211.3748779296875 331.8018798828125 C 211.19656372070312 331.3709716796875 211.01824951171875 330.9781494140625 210.8399658203125 330.623291015625 C 212.9796142578125 330.6739501953125 214.82635498046875 330.6993408203125 216.38018798828125 330.6993408203125 C 217.95944213867188 330.6993408203125 219.04202270507812 330.6739501953125 219.62789916992188 330.623291015625 C 220.16281127929688 330.623291015625 220.50668334960938 330.5345458984375 220.65951538085938 330.357177734375 C 220.81234741210938 330.205078125 220.88876342773438 329.8756103515625 220.88876342773438 329.36865234375 C 220.88876342773438 317.25341796875 220.88876342773438 305.13824462890625 220.88876342773438 293.0230712890625M 199.68307495117188 303.8203125 C 207.01910400390625 303.8203125 214.35513305664062 303.8203125 221.691162109375 303.8203125 C 221.691162109375 304.52996826171875 221.691162109375 305.2396240234375 221.691162109375 305.9493408203125 C 214.35513305664062 305.9493408203125 207.01910400390625 305.9493408203125 199.68307495117188 305.9493408203125 C 199.68307495117188 305.2396240234375 199.68307495117188 304.52996826171875 199.68307495117188 303.8203125M 199.68307495117188 314.9976806640625 C 207.01910400390625 314.9976806640625 214.35513305664062 314.9976806640625 221.691162109375 314.9976806640625 C 221.691162109375 315.73272705078125 221.691162109375 316.4677734375 221.691162109375 317.2027587890625 C 214.35513305664062 317.2027587890625 207.01910400390625 317.2027587890625 199.68307495117188 317.2027587890625 C 199.68307495117188 316.4677734375 199.68307495117188 315.73272705078125 199.68307495117188 314.9976806640625M 231.09042358398438 267.32257080078125 C 231.7908935546875 267.32257080078125 232.49139404296875 267.32257080078125 233.19189453125 267.32257080078125 C 233.19189453125 276.142822265625 233.19189453125 284.963134765625 233.19189453125 293.783447265625 C 233.19189453125 294.847900390625 233.48483276367188 295.5703125 234.0706787109375 295.950439453125 C 234.65655517578125 296.3052978515625 235.93017578125 296.48272705078125 237.89154052734375 296.48272705078125 C 238.32455444335938 296.48272705078125 239.22882080078125 296.48272705078125 240.60430908203125 296.48272705078125 C 241.97982788085938 296.48272705078125 243.5081787109375 296.48272705078125 245.1893310546875 296.48272705078125 C 246.87051391601562 296.48272705078125 248.4625244140625 296.48272705078125 249.96539306640625 296.48272705078125 C 251.46826171875 296.48272705078125 252.5380859375 296.48272705078125 253.1749267578125 296.48272705078125 C 254.29568481445312 296.48272705078125 255.13629150390625 296.254638671875 255.6966552734375 295.79840087890625 C 256.257080078125 295.31683349609375 256.63916015625 294.4044189453125 256.8428955078125 293.06103515625 C 257.0721740722656 291.7177734375 257.23773193359375 289.7154541015625 257.3396301269531 287.05413818359375 C 257.54339599609375 287.20623779296875 257.7471923828125 287.3582763671875 257.9509582519531 287.5103759765625 C 258.1802062988281 287.6370849609375 258.42218017578125 287.73846435546875 258.67694091796875 287.81451416015625 C 258.95709228515625 287.89056396484375 259.2245788574219 287.979248046875 259.47930908203125 288.0806884765625 C 259.3774108886719 290.84332275390625 259.1481628417969 292.9976806640625 258.79156494140625 294.5438232421875 C 258.46038818359375 296.06451416015625 257.86181640625 297.1163330078125 256.9957580566406 297.6993408203125 C 256.1551513671875 298.2822265625 254.894287109375 298.57373046875 253.213134765625 298.57373046875 C 252.98388671875 298.57373046875 252.3470458984375 298.57373046875 251.30267333984375 298.57373046875 C 250.2838134765625 298.57373046875 249.0738525390625 298.57373046875 247.67291259765625 298.57373046875 C 246.29736328125 298.57373046875 244.921875 298.57373046875 243.54638671875 298.57373046875 C 242.17086791992188 298.57373046875 240.98641967773438 298.57373046875 239.99298095703125 298.57373046875 C 238.99957275390625 298.57373046875 238.37548828125 298.57373046875 238.12078857421875 298.57373046875 C 236.312255859375 298.57373046875 234.88580322265625 298.459716796875 233.8414306640625 298.2315673828125 C 232.82254028320312 297.9781494140625 232.10931396484375 297.49658203125 231.70175170898438 296.786865234375 C 231.294189453125 296.0771484375 231.09042358398438 295.0760498046875 231.09042358398438 293.783447265625 C 231.09042358398438 284.963134765625 231.09042358398438 276.142822265625 231.09042358398438 267.32257080078125M 254.0537109375 273.7476806640625 C 254.63955688476562 274.34332275390625 255.22543334960938 274.93896484375 255.811279296875 275.5345458984375 C 253.79898071289062 276.39630126953125 251.5064697265625 277.29608154296875 248.93377685546875 278.23388671875 C 246.361083984375 279.14630126953125 243.68646240234375 280.033447265625 240.91000366210938 280.8951416015625 C 238.15899658203125 281.7315673828125 235.4716796875 282.5426025390625 232.8480224609375 283.328369140625 C 232.79705810546875 283.07489013671875 232.6951904296875 282.79608154296875 232.5423583984375 282.491943359375 C 232.3895263671875 282.1624755859375 232.22393798828125 281.8836669921875 232.04562377929688 281.655517578125 C 234.5673828125 280.86981201171875 237.1910400390625 280.020751953125 239.91656494140625 279.1082763671875 C 242.6676025390625 278.1705322265625 245.27850341796875 277.245361328125 247.74932861328125 276.33294677734375 C 250.22012329101562 275.3951416015625 252.32159423828125 274.533447265625 254.0537109375 273.7476806640625M 231.09042358398438 301.1209716796875 C 231.7908935546875 301.1209716796875 232.49139404296875 301.1209716796875 233.19189453125 301.1209716796875 C 233.19189453125 309.9158935546875 233.19189453125 318.7108154296875 233.19189453125 327.5057373046875 C 233.19189453125 328.5703125 233.49755859375 329.2926025390625 234.10888671875 329.6728515625 C 234.72021484375 330.078369140625 236.0830078125 330.2811279296875 238.19720458984375 330.2811279296875 C 238.68118286132812 330.2811279296875 239.61090087890625 330.2811279296875 240.98641967773438 330.2811279296875 C 242.38739013671875 330.2811279296875 243.9666748046875 330.2811279296875 245.7242431640625 330.2811279296875 C 247.50732421875 330.2811279296875 249.1502685546875 330.2811279296875 250.65313720703125 330.2811279296875 C 252.18148803710938 330.2811279296875 253.28955078125 330.2811279296875 253.977294921875 330.2811279296875 C 255.199951171875 330.2811279296875 256.116943359375 330.02764892578125 256.728271484375 329.520751953125 C 257.3396301269531 329.0391845703125 257.7471923828125 328.0506591796875 257.9509582519531 326.5552978515625 C 258.1802062988281 325.0345458984375 258.34576416015625 322.76611328125 258.44769287109375 319.75 C 258.77880859375 319.9527587890625 259.13543701171875 320.142822265625 259.51751708984375 320.3203125 C 259.925048828125 320.47235107421875 260.29443359375 320.59912109375 260.62554931640625 320.700439453125 C 260.4981994628906 323.8179931640625 260.2561950683594 326.213134765625 259.89959716796875 327.885986328125 C 259.5684509277344 329.5587158203125 258.94439697265625 330.724609375 258.0273742675781 331.3836669921875 C 257.1358642578125 332.0426025390625 255.811279296875 332.37213134765625 254.0537109375 332.37213134765625 C 253.748046875 332.37213134765625 253.060302734375 332.37213134765625 251.99044799804688 332.37213134765625 C 250.94610595703125 332.37213134765625 249.710693359375 332.37213134765625 248.28424072265625 332.37213134765625 C 246.88323974609375 332.37213134765625 245.456787109375 332.37213134765625 244.0048828125 332.37213134765625 C 242.57843017578125 332.37213134765625 241.33029174804688 332.37213134765625 240.26043701171875 332.37213134765625 C 239.21609497070312 332.37213134765625 238.57928466796875 332.37213134765625 238.35003662109375 332.37213134765625 C 236.49053955078125 332.37213134765625 235.01315307617188 332.245361328125 233.9178466796875 331.991943359375 C 232.8480224609375 331.7637939453125 232.10931396484375 331.294921875 231.70175170898438 330.58526611328125 C 231.294189453125 329.8756103515625 231.09042358398438 328.84912109375 231.09042358398438 327.5057373046875 C 231.09042358398438 318.7108154296875 231.09042358398438 309.9158935546875 231.09042358398438 301.1209716796875M 255.199951171875 306.025390625 C 255.72213745117188 306.6082763671875 256.24432373046875 307.1912841796875 256.7664794921875 307.774169921875 C 254.90701293945312 308.9400634765625 252.63998413085938 310.0426025390625 249.96539306640625 311.081787109375 C 247.29080200195312 312.0955810546875 244.47610473632812 313.04608154296875 241.52133178710938 313.93316650390625 C 238.5665283203125 314.794921875 235.72637939453125 315.59332275390625 233.0008544921875 316.328369140625 C 232.94989013671875 316.07489013671875 232.83526611328125 315.783447265625 232.656982421875 315.45391845703125 C 232.47866821289062 315.09912109375 232.3131103515625 314.8076171875 232.1602783203125 314.5794677734375 C 234.86032104492188 313.844482421875 237.67501831054688 313.020751953125 240.60430908203125 312.1082763671875 C 243.53363037109375 311.1705322265625 246.28466796875 310.1947021484375 248.85736083984375 309.180908203125 C 251.4300537109375 308.1417236328125 253.54425048828125 307.08984375 255.199951171875 306.025390625M 215.88345336914062 273.4815673828125 C 216.41839599609375 273.2154541015625 216.95330810546875 272.9493408203125 217.48822021484375 272.68316650390625 C 218.9146728515625 274.27996826171875 220.30291748046875 276.02880859375 221.6529541015625 277.9296875 C 223.00296020507812 279.8306884765625 224.23837280273438 281.69354248046875 225.35916137695312 283.5184326171875 C 226.47991943359375 285.34332275390625 227.35873413085938 286.9527587890625 227.99554443359375 288.3468017578125 C 227.46063232421875 288.68896484375 226.92572021484375 289.0311279296875 226.39077758789062 289.373291015625 C 225.804931640625 287.9285888671875 224.93887329101562 286.2811279296875 223.7926025390625 284.430908203125 C 222.67181396484375 282.5806884765625 221.42367553710938 280.6923828125 220.04818725585938 278.76611328125 C 218.69815063476562 276.83984375 217.30990600585938 275.078369140625 215.88345336914062 273.4815673828125"/>
    <path stroke-width="0" fill="rgb(0, 0, 0)" opacity="1.0" d="M 279.1184387207031 282.52996826171875 C 295.9683837890625 282.52996826171875 312.81829833984375 282.52996826171875 329.668212890625 282.52996826171875 C 329.668212890625 283.2396240234375 329.668212890625 283.9493408203125 329.668212890625 284.65899658203125 C 312.81829833984375 284.65899658203125 295.9683837890625 284.65899658203125 279.1184387207031 284.65899658203125 C 279.1184387207031 283.9493408203125 279.1184387207031 283.2396240234375 279.1184387207031 282.52996826171875M 275.6796875 303.8203125 C 292.8480224609375 303.8203125 310.0163269042969 303.8203125 327.1846618652344 303.8203125 C 327.1846618652344 304.52996826171875 327.1846618652344 305.2396240234375 327.1846618652344 305.9493408203125 C 310.0163269042969 305.9493408203125 292.8480224609375 305.9493408203125 275.6796875 305.9493408203125 C 275.6796875 305.2396240234375 275.6796875 304.52996826171875 275.6796875 303.8203125M 268.1144104003906 328.4561767578125 C 289.71490478515625 328.4561767578125 311.3154296875 328.4561767578125 332.91595458984375 328.4561767578125 C 332.91595458984375 329.1531982421875 332.91595458984375 329.8502197265625 332.91595458984375 330.5472412109375 C 311.3154296875 330.5472412109375 289.71490478515625 330.5472412109375 268.1144104003906 330.5472412109375 C 268.1144104003906 329.8502197265625 268.1144104003906 329.1531982421875 268.1144104003906 328.4561767578125M 299.4453430175781 267.39862060546875 C 300.18402099609375 267.39862060546875 300.9227294921875 267.39862060546875 301.66143798828125 267.39862060546875 C 301.66143798828125 288.10595703125 301.66143798828125 308.8133544921875 301.66143798828125 329.520751953125 C 300.9227294921875 329.520751953125 300.18402099609375 329.520751953125 299.4453430175781 329.520751953125 C 299.4453430175781 308.8133544921875 299.4453430175781 288.10595703125 299.4453430175781 267.39862060546875M 283.43597412109375 268.88134765625 C 284.14923095703125 269.020751953125 284.8624572753906 269.16015625 285.57568359375 269.299560546875 C 284.5567626953125 273.0506591796875 283.32135009765625 276.68780517578125 281.86944580078125 280.2108154296875 C 280.4429931640625 283.70849609375 278.8382568359375 286.9654541015625 277.05517578125 289.9815673828125 C 275.297607421875 292.9976806640625 273.4253845214844 295.671630859375 271.43853759765625 298.00341796875 C 271.28570556640625 297.85137939453125 271.0819396972656 297.71197509765625 270.82720947265625 297.58526611328125 C 270.59796142578125 297.43316650390625 270.35595703125 297.2684326171875 270.10125732421875 297.09100341796875 C 269.8465270996094 296.91357421875 269.6300048828125 296.799560546875 269.45172119140625 296.74884033203125 C 271.5404357910156 294.4677734375 273.45086669921875 291.857177734375 275.1829833984375 288.91705322265625 C 276.9405517578125 285.9769287109375 278.5071105957031 282.8087158203125 279.88262939453125 279.4124755859375 C 281.2835693359375 275.99078369140625 282.4680480957031 272.48040771484375 283.43597412109375 268.88134765625"/>
    <path stroke-width="0" fill="rgb(0, 0, 0)" opacity="1.0" d="M 341.703857421875 281.35137939453125 C 363.177001953125 281.35137939453125 384.650146484375 281.35137939453125 406.123291015625 281.35137939453125 C 406.123291015625 282.06103515625 406.123291015625 282.770751953125 406.123291015625 283.48040771484375 C 384.650146484375 283.48040771484375 363.177001953125 283.48040771484375 341.703857421875 283.48040771484375 C 341.703857421875 282.770751953125 341.703857421875 282.06103515625 341.703857421875 281.35137939453125M 351.0267333984375 326.745361328125 C 366.2591552734375 326.745361328125 381.4915771484375 326.745361328125 396.7239990234375 326.745361328125 C 396.7239990234375 327.48040771484375 396.7239990234375 328.2154541015625 396.7239990234375 328.950439453125 C 381.4915771484375 328.950439453125 366.2591552734375 328.950439453125 351.0267333984375 328.950439453125 C 351.0267333984375 328.2154541015625 351.0267333984375 327.48040771484375 351.0267333984375 326.745361328125M 372.5762939453125 267.32257080078125 C 373.31500244140625 267.32257080078125 374.0537109375 267.32257080078125 374.7923583984375 267.32257080078125 C 374.7923583984375 279.2476806640625 374.7923583984375 291.1728515625 374.7923583984375 303.097900390625 C 374.0537109375 303.097900390625 373.31500244140625 303.097900390625 372.5762939453125 303.097900390625 C 372.5762939453125 291.1728515625 372.5762939453125 279.2476806640625 372.5762939453125 267.32257080078125M 350.14794921875 301.88134765625 C 366.0172119140625 301.88134765625 381.88641357421875 301.88134765625 397.75567626953125 301.88134765625 C 397.75567626953125 312.2603759765625 397.75567626953125 322.639404296875 397.75567626953125 333.0184326171875 C 397.04248046875 333.0184326171875 396.3292236328125 333.0184326171875 395.615966796875 333.0184326171875 C 395.615966796875 323.36175537109375 395.615966796875 313.705078125 395.615966796875 304.04840087890625 C 381.16046142578125 304.04840087890625 366.7049560546875 304.04840087890625 352.2493896484375 304.04840087890625 C 352.2493896484375 313.80645751953125 352.2493896484375 323.56451416015625 352.2493896484375 333.32257080078125 C 351.5489501953125 333.32257080078125 350.84844970703125 333.32257080078125 350.14794921875 333.32257080078125 C 350.14794921875 322.8421630859375 350.14794921875 312.36175537109375 350.14794921875 301.88134765625"/>
    <path stroke-width="0" fill="rgb(0, 0, 0)" opacity="1.0" d="M 439.78497314453125 275.5345458984375 C 453.06878662109375 275.5345458984375 466.3525390625 275.5345458984375 479.6363525390625 275.5345458984375 C 479.6363525390625 276.2315673828125 479.6363525390625 276.9285888671875 479.6363525390625 277.6256103515625 C 466.3525390625 277.6256103515625 453.06878662109375 277.6256103515625 439.78497314453125 277.6256103515625 C 439.78497314453125 276.9285888671875 439.78497314453125 276.2315673828125 439.78497314453125 275.5345458984375M 438.9061279296875 294.1256103515625 C 452.7503662109375 294.1256103515625 466.5946044921875 294.1256103515625 480.438720703125 294.1256103515625 C 480.438720703125 294.860595703125 480.438720703125 295.5955810546875 480.438720703125 296.3306884765625 C 466.5946044921875 296.3306884765625 452.7503662109375 296.3306884765625 438.9061279296875 296.3306884765625 C 438.9061279296875 295.5955810546875 438.9061279296875 294.860595703125 438.9061279296875 294.1256103515625M 450.94183349609375 327.5438232421875 C 459.1566162109375 327.5438232421875 467.3714599609375 327.5438232421875 475.5863037109375 327.5438232421875 C 475.5863037109375 328.25341796875 475.5863037109375 328.963134765625 475.5863037109375 329.6728515625 C 467.3714599609375 329.6728515625 459.1566162109375 329.6728515625 450.94183349609375 329.6728515625 C 450.94183349609375 328.963134765625 450.94183349609375 328.25341796875 450.94183349609375 327.5438232421875M 449.75732421875 267.39862060546875 C 450.49609375 267.39862060546875 451.2347412109375 267.39862060546875 451.97344970703125 267.39862060546875 C 451.97344970703125 273.7349853515625 451.97344970703125 280.0714111328125 451.97344970703125 286.4078369140625 C 451.2347412109375 286.4078369140625 450.49609375 286.4078369140625 449.75732421875 286.4078369140625 C 449.75732421875 280.0714111328125 449.75732421875 273.7349853515625 449.75732421875 267.39862060546875M 467.791748046875 267.39862060546875 C 468.5303955078125 267.39862060546875 469.2691650390625 267.39862060546875 470.0078125 267.39862060546875 C 470.0078125 273.7349853515625 470.0078125 280.0714111328125 470.0078125 286.4078369140625 C 469.2691650390625 286.4078369140625 468.5303955078125 286.4078369140625 467.791748046875 286.4078369140625 C 467.791748046875 280.0714111328125 467.791748046875 273.7349853515625 467.791748046875 267.39862060546875M 449.75732421875 308.876708984375 C 458.82550048828125 308.876708984375 467.8936767578125 308.876708984375 476.9617919921875 308.876708984375 C 476.9617919921875 316.860595703125 476.9617919921875 324.844482421875 476.9617919921875 332.828369140625 C 476.23583984375 332.828369140625 475.5098876953125 332.828369140625 474.783935546875 332.828369140625 C 474.783935546875 325.5794677734375 474.783935546875 318.3306884765625 474.783935546875 311.081787109375 C 467.180419921875 311.081787109375 459.576904296875 311.081787109375 451.97344970703125 311.081787109375 C 451.97344970703125 318.39404296875 451.97344970703125 325.7061767578125 451.97344970703125 333.0184326171875 C 451.2347412109375 333.0184326171875 450.49609375 333.0184326171875 449.75732421875 333.0184326171875 C 449.75732421875 324.97119140625 449.75732421875 316.9239501953125 449.75732421875 308.876708984375M 456.9405517578125 285.229248046875 C 457.7047119140625 285.36865234375 458.4688720703125 285.508056640625 459.2330322265625 285.6474609375 C 457.577392578125 292.9976806640625 455.132080078125 299.4608154296875 451.89703369140625 305.036865234375 C 448.66204833984375 310.6129150390625 444.7265625 315.3018798828125 440.09063720703125 319.10369873046875 C 439.98876953125 318.95159912109375 439.8359375 318.786865234375 439.63214111328125 318.60943603515625 C 439.4283447265625 318.40667724609375 439.1990966796875 318.20391845703125 438.9443359375 318.00115966796875 C 438.715087890625 317.79840087890625 438.5113525390625 317.6336669921875 438.3330078125 317.5069580078125 C 443.0709228515625 313.98388671875 446.9808349609375 309.47235107421875 450.06304931640625 303.97235107421875 C 453.14520263671875 298.47235107421875 455.437744140625 292.22467041015625 456.9405517578125 285.229248046875M 417.1273193359375 289.18316650390625 C 423.85205078125 289.18316650390625 430.57672119140625 289.18316650390625 437.3013916015625 289.18316650390625 C 437.3013916015625 289.88018798828125 437.3013916015625 290.5771484375 437.3013916015625 291.274169921875 C 430.57672119140625 291.274169921875 423.85205078125 291.274169921875 417.1273193359375 291.274169921875 C 417.1273193359375 290.5771484375 417.1273193359375 289.88018798828125 417.1273193359375 289.18316650390625M 417.47119140625 270.25 C 423.9793701171875 270.25 430.487548828125 270.25 436.9957275390625 270.25 C 436.9957275390625 270.959716796875 436.9957275390625 271.66937255859375 436.9957275390625 272.3790283203125 C 430.487548828125 272.3790283203125 423.9793701171875 272.3790283203125 417.47119140625 272.3790283203125 C 417.47119140625 271.66937255859375 417.47119140625 270.959716796875 417.47119140625 270.25M 417.1273193359375 298.725830078125 C 423.85205078125 298.725830078125 430.57672119140625 298.725830078125 437.3013916015625 298.725830078125 C 437.3013916015625 299.43548583984375 437.3013916015625 300.1451416015625 437.3013916015625 300.8548583984375 C 430.57672119140625 300.8548583984375 423.85205078125 300.8548583984375 417.1273193359375 300.8548583984375 C 417.1273193359375 300.1451416015625 417.1273193359375 299.43548583984375 417.1273193359375 298.725830078125M 413.879638671875 279.5264892578125 C 422.32373046875 279.5264892578125 430.76776123046875 279.5264892578125 439.2117919921875 279.5264892578125 C 439.2117919921875 280.26153564453125 439.2117919921875 280.99658203125 439.2117919921875 281.7315673828125 C 430.76776123046875 281.7315673828125 422.32373046875 281.7315673828125 413.879638671875 281.7315673828125 C 413.879638671875 280.99658203125 413.879638671875 280.26153564453125 413.879638671875 279.5264892578125M 418.23541259765625 308.30645751953125 C 424.5906982421875 308.30645751953125 430.946044921875 308.30645751953125 437.3013916015625 308.30645751953125 C 437.3013916015625 315.11175537109375 437.3013916015625 321.91705322265625 437.3013916015625 328.72235107421875 C 430.946044921875 328.72235107421875 424.5906982421875 328.72235107421875 418.23541259765625 328.72235107421875 C 418.23541259765625 328.0 418.23541259765625 327.27764892578125 418.23541259765625 326.5552978515625 C 423.85205078125 326.5552978515625 429.46868896484375 326.5552978515625 435.0853271484375 326.5552978515625 C 435.0853271484375 321.1947021484375 435.0853271484375 315.8341064453125 435.0853271484375 310.4735107421875 C 429.46868896484375 310.4735107421875 423.85205078125 310.4735107421875 418.23541259765625 310.4735107421875 C 418.23541259765625 309.75115966796875 418.23541259765625 309.02880859375 418.23541259765625 308.30645751953125M 417.1273193359375 308.30645751953125 C 417.853271484375 308.30645751953125 418.57928466796875 308.30645751953125 419.30523681640625 308.30645751953125 C 419.30523681640625 316.3790283203125 419.30523681640625 324.45159912109375 419.30523681640625 332.524169921875 C 418.57928466796875 332.524169921875 417.853271484375 332.524169921875 417.1273193359375 332.524169921875 C 417.1273193359375 324.45159912109375 417.1273193359375 316.3790283203125 417.1273193359375 308.30645751953125"/>
  </g>
</svg>
