<?xml version="1.0" ?>
<svg xmlns="http://www.w3.org/2000/svg" version="1.1" width="600" height="600">
  <defs/>
  <g>
    <path stroke-width="0" fill="rgb(0, 0, 0)" opacity="1.0" d="M 195.6944580078125 304.2122802734375 C 195.6944580078125 299.611572265625 194.53704833984375 295.6549072265625 192.22222900390625 292.3424072265625 C 189.90740966796875 289.0299072265625 186.75927734375 286.45355224609375 182.77777099609375 284.61328125 C 178.84259033203125 282.77301025390625 174.375 281.8529052734375 169.375 281.8529052734375 C 163.95834350585938 281.8529052734375 158.9351806640625 282.243896484375 154.3055419921875 283.02606201171875 C 149.72222900390625 283.80816650390625 145.50927734375 284.728271484375 141.66665649414062 285.7864990234375 C 137.82406616210938 286.8446044921875 134.39813232421875 287.810791015625 131.38888549804688 288.6849365234375 C 129.16665649414062 289.3289794921875 127.33795166015625 289.9271240234375 125.90277099609375 290.4791259765625 C 124.51388549804688 290.9852294921875 123.14816284179688 291.4913330078125 121.8055419921875 291.9974365234375 C 121.22686767578125 290.203125 120.64816284179688 288.4088134765625 120.0694580078125 286.6146240234375 C 121.59722900390625 286.4305419921875 123.17129516601562 286.177490234375 124.79165649414062 285.85546875 C 126.45834350585938 285.533447265625 128.21759033203125 285.21136474609375 130.0694580078125 284.88934326171875 C 133.07870483398438 284.1531982421875 136.66665649414062 283.256103515625 140.83334350585938 282.19793701171875 C 145.04629516601562 281.1397705078125 149.60647583007812 280.1966552734375 154.51388549804688 279.3685302734375 C 159.46759033203125 278.5404052734375 164.42129516601562 278.1263427734375 169.375 278.1263427734375 C 174.97686767578125 278.1263427734375 180.0694580078125 279.115478515625 184.65277099609375 281.09375 C 189.23611450195312 283.072021484375 192.84722900390625 286.0164794921875 195.48611450195312 289.9271240234375 C 198.17129516601562 293.7916259765625 199.51388549804688 298.599365234375 199.51388549804688 304.3502197265625 C 199.51388549804688 311.5733642578125 198.0555419921875 317.9453125 195.13888549804688 323.4661865234375 C 192.22222900390625 328.9869384765625 188.125 333.7486572265625 182.84722900390625 337.7513427734375 C 177.61575317382812 341.7078857421875 171.52777099609375 344.974365234375 164.58334350585938 347.55078125 C 157.63888549804688 350.127197265625 150.1851806640625 352.0594482421875 142.22222900390625 353.34765625 C 141.3194580078125 352.1744384765625 140.41665649414062 351.0013427734375 139.51388549804688 349.828125 C 147.4305419921875 348.7239990234375 154.79165649414062 346.9757080078125 161.59722900390625 344.5833740234375 C 168.40277099609375 342.14495849609375 174.35186767578125 339.08551025390625 179.4444580078125 335.4049072265625 C 184.58334350585938 331.6783447265625 188.5648193359375 327.2156982421875 191.38888549804688 322.0169677734375 C 194.25927734375 316.7720947265625 195.6944580078125 310.8372802734375 195.6944580078125 304.2122802734375M 136.04165649414062 248.45184326171875 C 139.51388549804688 249.23394775390625 143.6805419921875 250.01605224609375 148.54165649414062 250.7982177734375 C 153.40277099609375 251.5343017578125 158.40277099609375 252.201416015625 163.54168701171875 252.79949951171875 C 168.6805419921875 253.3515625 173.54168701171875 253.8116455078125 178.125 254.1796875 C 182.70834350585938 254.501708984375 186.504638671875 254.708740234375 189.51388549804688 254.80078125 C 189.3055419921875 256.157958984375 189.09722900390625 257.51519775390625 188.88888549804688 258.8724365234375 C 185.41668701171875 258.642333984375 181.36575317382812 258.3203125 176.73611450195312 257.90625 C 172.10650634765625 257.4921875 167.29168701171875 257.0091552734375 162.29168701171875 256.45703125 C 157.33795166015625 255.85894775390625 152.52313232421875 255.23785400390625 147.84722900390625 254.59375 C 143.17129516601562 253.94964599609375 138.98147583007812 253.3055419921875 135.27777099609375 252.6614990234375 C 135.53240966796875 251.25823974609375 135.78704833984375 249.85504150390625 136.04165649414062 248.45184326171875"/>
    <path stroke-width="0" fill="rgb(0, 0, 0)" opacity="1.0" d="M 269.9305419921875 247.34765625 C 273.40277099609375 248.267822265625 277.4537048339844 249.1419677734375 282.0833435058594 249.9700927734375 C 286.7129821777344 250.7982177734375 291.4583435058594 251.580322265625 296.3194580078125 252.31640625 C 301.22686767578125 253.00653076171875 305.8333435058594 253.58160400390625 310.138916015625 254.04168701171875 C 314.4444580078125 254.45574951171875 318.0555419921875 254.7547607421875 320.97222900390625 254.9388427734375 C 320.71759033203125 256.25 320.4630126953125 257.56121826171875 320.2083740234375 258.8724365234375 C 317.013916015625 258.642333984375 313.3333740234375 258.2742919921875 309.16668701171875 257.76824951171875 C 305.04632568359375 257.2161865234375 300.6944580078125 256.6180419921875 296.1111145019531 255.9739990234375 C 291.52777099609375 255.28387451171875 286.92132568359375 254.5477294921875 282.29168701171875 253.765625 C 277.7083435058594 252.9375 273.3333435058594 252.13238525390625 269.16668701171875 251.35028076171875 C 269.42132568359375 250.01605224609375 269.6759338378906 248.681884765625 269.9305419921875 247.34765625M 321.52777099609375 281.16278076171875 C 320.8333740234375 281.6688232421875 319.7685546875 282.51995849609375 318.3333740234375 283.7161865234375 C 316.89813232421875 284.912353515625 315.97222900390625 285.740478515625 315.5555419921875 286.2005615234375 C 314.49072265625 287.2586669921875 312.754638671875 288.9149169921875 310.34722900390625 291.1693115234375 C 307.9398193359375 293.423583984375 305.254638671875 295.97698974609375 302.29168701171875 298.8294677734375 C 299.375 301.6358642578125 296.52777099609375 304.3502197265625 293.75 306.97265625 C 291.0185546875 309.549072265625 288.8194580078125 311.71136474609375 287.15277099609375 313.4595947265625 C 287.9398193359375 313.3216552734375 288.8657531738281 313.20660400390625 289.9305419921875 313.1146240234375 C 290.995361328125 313.0225830078125 291.85186767578125 312.9765625 292.5 312.9765625 C 295.78704833984375 312.9765625 298.40277099609375 313.896728515625 300.34722900390625 315.7369384765625 C 302.29168701171875 317.5772705078125 303.7037048339844 319.9696044921875 304.5833435058594 322.9140625 C 305.04632568359375 324.2943115234375 305.5787048339844 326.0655517578125 306.1805725097656 328.2279052734375 C 306.8287048339844 330.34417724609375 307.4537353515625 332.5064697265625 308.0555419921875 334.71484375 C 308.7037353515625 336.9232177734375 309.28240966796875 338.85546875 309.79168701171875 340.51171875 C 310.763916015625 343.502197265625 312.22222900390625 345.6414794921875 314.16668701171875 346.9296875 C 316.15740966796875 348.2178955078125 319.28240966796875 348.8619384765625 323.54168701171875 348.8619384765625 C 326.04168701171875 348.8619384765625 328.79632568359375 348.7469482421875 331.8055419921875 348.5169677734375 C 334.8148193359375 348.2408447265625 337.73150634765625 347.849853515625 340.5555419921875 347.34375 C 343.4259033203125 346.837646484375 345.8333740234375 346.28558349609375 347.77777099609375 345.6875 C 347.6851806640625 347.32073974609375 347.59259033203125 348.9539794921875 347.5 350.5872802734375 C 345.64813232421875 350.955322265625 343.3101806640625 351.27734375 340.48614501953125 351.5533447265625 C 337.7083740234375 351.87542724609375 334.8380126953125 352.1514892578125 331.875 352.3814697265625 C 328.91204833984375 352.611572265625 326.1805419921875 352.7265625 323.6805419921875 352.7265625 C 319.236083984375 352.7265625 315.4630126953125 351.9674072265625 312.361083984375 350.44921875 C 309.3055419921875 348.9310302734375 307.15277099609375 345.9405517578125 305.90277099609375 341.4779052734375 C 305.5787048339844 340.1436767578125 305.09259033203125 338.349365234375 304.4444580078125 336.0950927734375 C 303.84259033203125 333.8406982421875 303.21759033203125 331.58636474609375 302.5694580078125 329.33203125 C 301.96759033203125 327.07769775390625 301.388916015625 325.2374267578125 300.8333435058594 323.8111572265625 C 300.04632568359375 321.5108642578125 298.888916015625 319.6705322265625 297.3611145019531 318.2904052734375 C 295.879638671875 316.8641357421875 293.98150634765625 316.1510009765625 291.66668701171875 316.1510009765625 C 289.35186767578125 316.1510009765625 287.29168701171875 316.51910400390625 285.4861145019531 317.2552490234375 C 283.72686767578125 317.9913330078125 282.10650634765625 319.0264892578125 280.625 320.3607177734375 C 279.5601806640625 321.3267822265625 278.00927734375 322.799072265625 275.97222900390625 324.77734375 C 273.98150634765625 326.7095947265625 271.75927734375 328.94097900390625 269.3055419921875 331.4713134765625 C 266.89813232421875 333.9556884765625 264.46759033203125 336.5321044921875 262.013916015625 339.2005615234375 C 259.5601806640625 341.868896484375 257.29168701171875 344.353271484375 255.20834350585938 346.6536865234375 C 253.125 348.907958984375 251.504638671875 350.7943115234375 250.34722900390625 352.3125 C 248.84259033203125 351.25433349609375 247.33798217773438 350.1961669921875 245.83334350585938 349.1380615234375 C 246.25 348.76995849609375 246.82870483398438 348.286865234375 247.5694580078125 347.6888427734375 C 248.35647583007812 347.044677734375 249.14352416992188 346.33160400390625 249.9305419921875 345.5494384765625 C 250.53240966796875 344.951416015625 252.1990966796875 343.318115234375 254.9305419921875 340.6497802734375 C 257.66204833984375 337.935302734375 260.995361328125 334.622802734375 264.9305419921875 330.7122802734375 C 268.8657531738281 326.755615234375 273.125 322.47698974609375 277.7083435058594 317.8763427734375 C 282.29168701171875 313.275634765625 286.875 308.743896484375 291.4583435058594 304.28125 C 296.04168701171875 299.818603515625 300.23150634765625 295.7239990234375 304.02777099609375 291.9974365234375 C 307.870361328125 288.224853515625 310.9490966796875 285.234375 313.263916015625 283.02606201171875 C 310.9490966796875 283.2100830078125 308.03240966796875 283.463134765625 304.513916015625 283.78515625 C 300.995361328125 284.06121826171875 297.2685546875 284.3602294921875 293.3333435058594 284.68231201171875 C 289.39813232421875 285.00433349609375 285.50927734375 285.349365234375 281.66668701171875 285.7174072265625 C 277.8240966796875 286.03948974609375 274.35186767578125 286.3155517578125 271.25 286.5455322265625 C 268.14813232421875 286.775634765625 265.71759033203125 286.9595947265625 263.9583435058594 287.09765625 C 261.875 287.189697265625 260.0694580078125 287.32769775390625 258.54168701171875 287.51171875 C 257.0601806640625 287.69573974609375 255.57870483398438 287.8797607421875 254.09722900390625 288.0638427734375 C 253.95834350585938 286.4305419921875 253.8194580078125 284.79730224609375 253.6805419921875 283.1640625 C 255.16204833984375 283.256103515625 256.7129821777344 283.3250732421875 258.3333435058594 283.37109375 C 259.9537048339844 283.4171142578125 261.6898193359375 283.39410400390625 263.54168701171875 283.3021240234375 C 265.3009338378906 283.2100830078125 267.84722900390625 283.049072265625 271.1805419921875 282.81903076171875 C 274.513916015625 282.5889892578125 278.21759033203125 282.3359375 282.29168701171875 282.0599365234375 C 286.41204833984375 281.73785400390625 290.4861145019531 281.36981201171875 294.513916015625 280.95574951171875 C 298.5879821777344 280.54168701171875 302.29168701171875 280.1966552734375 305.625 279.92059326171875 C 308.9583740234375 279.5985107421875 311.504638671875 279.29949951171875 313.263916015625 279.0234375 C 314.3287353515625 278.83941650390625 315.3240966796875 278.6553955078125 316.25 278.47137451171875 C 317.1759033203125 278.2413330078125 317.9630126953125 277.98828125 318.611083984375 277.7122802734375 C 319.5833740234375 278.8624267578125 320.5555419921875 280.0125732421875 321.52777099609375 281.16278076171875"/>
    <path stroke-width="0" fill="rgb(0, 0, 0)" opacity="1.0" d="M 423.54168701171875 262.73699951171875 C 426.736083984375 263.381103515625 430.648193359375 263.8641357421875 435.27783203125 264.18621826171875 C 439.90740966796875 264.4622802734375 444.745361328125 264.60028076171875 449.79168701171875 264.60028076171875 C 454.88427734375 264.60028076171875 459.72222900390625 264.439208984375 464.3055419921875 264.1171875 C 468.9351806640625 263.7491455078125 472.77783203125 263.2890625 475.8333740234375 262.73699951171875 C 475.8333740234375 264.18621826171875 475.8333740234375 265.63543701171875 475.8333740234375 267.08465576171875 C 472.77783203125 267.45269775390625 468.9351806640625 267.751708984375 464.3055419921875 267.9818115234375 C 459.72222900390625 268.2117919921875 454.88427734375 268.32684326171875 449.79168701171875 268.32684326171875 C 444.745361328125 268.32684326171875 439.88427734375 268.2117919921875 435.2083740234375 267.9818115234375 C 430.53240966796875 267.751708984375 426.6435546875 267.45269775390625 423.54168701171875 267.08465576171875 C 423.54168701171875 265.63543701171875 423.54168701171875 264.18621826171875 423.54168701171875 262.73699951171875M 423.263916015625 314.1497802734375 C 422.5694580078125 316.72613525390625 422.013916015625 319.095458984375 421.59722900390625 321.2578125 C 421.1805419921875 323.420166015625 420.97222900390625 325.42144775390625 420.97222900390625 327.26171875 C 420.97222900390625 328.8719482421875 421.273193359375 330.5281982421875 421.875 332.23046875 C 422.523193359375 333.88671875 423.75 335.450927734375 425.5555419921875 336.9232177734375 C 427.40740966796875 338.349365234375 430.0694580078125 339.49957275390625 433.54168701171875 340.3736572265625 C 437.013916015625 341.247802734375 441.59722900390625 341.6849365234375 447.29168701171875 341.6849365234375 C 453.3101806640625 341.6849365234375 459.02783203125 341.4088134765625 464.4444580078125 340.8568115234375 C 469.861083984375 340.2586669921875 475.023193359375 339.384521484375 479.9305419921875 338.234375 C 479.97686767578125 339.70660400390625 480.023193359375 341.1788330078125 480.0694580078125 342.6510009765625 C 476.0880126953125 343.525146484375 471.3194580078125 344.23828125 465.763916015625 344.7904052734375 C 460.2083740234375 345.29644775390625 454.25927734375 345.5494384765625 447.91668701171875 345.5494384765625 C 437.0833740234375 345.5494384765625 429.25927734375 343.9622802734375 424.4444580078125 340.7877197265625 C 419.67596435546875 337.61328125 417.29168701171875 333.1966552734375 417.29168701171875 327.5377197265625 C 417.29168701171875 325.78948974609375 417.4537353515625 323.7882080078125 417.77783203125 321.5338134765625 C 418.148193359375 319.279541015625 418.63427734375 316.6341552734375 419.236083984375 313.59765625 C 420.5787353515625 313.78167724609375 421.9212646484375 313.9656982421875 423.263916015625 314.1497802734375M 393.263916015625 251.2122802734375 C 393.0787353515625 251.76434326171875 392.8935546875 252.33941650390625 392.7083740234375 252.9375 C 392.5694580078125 253.53558349609375 392.40740966796875 254.1796875 392.22222900390625 254.86981201171875 C 392.03704833984375 255.513916015625 391.85186767578125 256.25 391.66668701171875 257.078125 C 391.0648193359375 260.25262451171875 390.41668701171875 263.588134765625 389.72222900390625 267.08465576171875 C 389.0740966796875 270.53515625 388.4490966796875 274.1007080078125 387.84722900390625 277.78125 C 387.29168701171875 281.4617919921875 386.78240966796875 285.1654052734375 386.3194580078125 288.8919677734375 C 385.90283203125 292.572509765625 385.5555419921875 296.20703125 385.27783203125 299.7955322265625 C 385.0 303.338134765625 384.861083984375 306.78863525390625 384.861083984375 310.1470947265625 C 384.861083984375 315.2999267578125 385.023193359375 320.015625 385.34722900390625 324.2943115234375 C 385.6712646484375 328.5728759765625 386.13427734375 333.3116455078125 386.736083984375 338.5103759765625 C 387.61572265625 336.072021484375 388.611083984375 333.3116455078125 389.72222900390625 330.2291259765625 C 390.8333740234375 327.1007080078125 391.9444580078125 324.041259765625 393.0555419921875 321.05078125 C 394.16668701171875 318.060302734375 395.11572265625 315.5069580078125 395.90283203125 313.390625 C 396.898193359375 314.0806884765625 397.8935546875 314.7708740234375 398.888916015625 315.4609375 C 397.91668701171875 318.037353515625 396.75927734375 321.07379150390625 395.41668701171875 324.5703125 C 394.0740966796875 328.06683349609375 392.84722900390625 331.4483642578125 391.736083984375 334.71484375 C 390.625 337.9813232421875 389.88427734375 340.53472900390625 389.513916015625 342.375 C 389.3287353515625 343.2491455078125 389.16668701171875 344.1922607421875 389.02783203125 345.2044677734375 C 388.9351806640625 346.216552734375 388.9351806640625 347.1827392578125 389.02783203125 348.1029052734375 C 389.120361328125 348.700927734375 389.1898193359375 349.3450927734375 389.236083984375 350.03515625 C 389.3287353515625 350.771240234375 389.4212646484375 351.3463134765625 389.513916015625 351.7603759765625 C 388.28704833984375 351.8984375 387.0601806640625 352.0364990234375 385.8333740234375 352.1744384765625 C 384.49072265625 347.251708984375 383.35650634765625 341.247802734375 382.4305419921875 334.1627197265625 C 381.55096435546875 327.07769775390625 381.111083984375 319.072509765625 381.111083984375 310.1470947265625 C 381.111083984375 305.408447265625 381.3426513671875 300.53167724609375 381.8055419921875 295.5169677734375 C 382.3148193359375 290.4561767578125 382.9398193359375 285.5103759765625 383.6805419921875 280.6796875 C 384.4676513671875 275.802978515625 385.2083740234375 271.2943115234375 385.90283203125 267.1536865234375 C 386.6435546875 262.967041015625 387.22222900390625 259.42449951171875 387.638916015625 256.52606201171875 C 387.8240966796875 255.28387451171875 387.96295166015625 254.20269775390625 388.0555419921875 253.2825927734375 C 388.148193359375 252.3624267578125 388.1944580078125 251.48828125 388.1944580078125 250.66015625 C 389.88427734375 250.84417724609375 391.5740966796875 251.0281982421875 393.263916015625 251.2122802734375"/>
  </g>
</svg>
