<?xml version="1.0" encoding="utf-8"?>
<svg xmlns="http://www.w3.org/2000/svg" xmlns:ev="http://www.w3.org/2001/xml-events" xmlns:xlink="http://www.w3.org/1999/xlink" version="1.1" baseProfile="full" width="30496.0" height="1753.0" viewBox="136.0 -1597.0 30496.0 1753.0">
<defs/>
<g><path d="M 10514.000000 -1572.000000 C 10530.666667 -1579.333333 10547.333333 -1586.666667 10564.000000 -1594.000000 C 10600.000000 -1542.666667 10634.333333 -1486.000000 10667.000000 -1424.000000 C 10699.666667 -1362.666667 10722.333333 -1311.000000 10735.000000 -1269.000000 C 10718.333333 -1260.000000 10701.666667 -1251.000000 10685.000000 -1242.000000 C 10671.000000 -1286.666667 10648.333333 -1340.000000 10617.000000 -1402.000000 C 10585.666667 -1464.666667 10551.333333 -1521.333333 10514.000000 -1572.000000z M 11238.000000 -1596.000000 C 11256.000000 -1587.000000 11274.000000 -1578.000000 11292.000000 -1569.000000 C 11263.333333 -1513.666667 11231.333333 -1455.000000 11196.000000 -1393.000000 C 11161.333333 -1331.000000 11127.333333 -1277.666667 11094.000000 -1233.000000 C 11078.666667 -1240.666667 11063.333333 -1248.333333 11048.000000 -1256.000000 C 11069.333333 -1286.666667 11091.666667 -1321.666667 11115.000000 -1361.000000 C 11139.000000 -1401.000000 11162.000000 -1441.666667 11184.000000 -1483.000000 C 11206.000000 -1525.000000 11224.000000 -1562.666667 11238.000000 -1596.000000z M 10712.000000 -632.000000 C 10732.333333 -632.000000 10752.666667 -632.000000 10773.000000 -632.000000 C 10763.000000 -550.000000 10747.666667 -470.333333 10727.000000 -393.000000 C 10706.333333 -316.333333 10678.000000 -244.333333 10642.000000 -177.000000 C 10606.666667 -110.333333 10561.000000 -50.333333 10505.000000 3.000000 C 10449.666667 56.333333 10380.333333 100.666667 10297.000000 136.000000 C 10291.666667 130.000000 10285.000000 123.333333 10277.000000 116.000000 C 10269.666667 109.333333 10263.000000 103.333333 10257.000000 98.000000 C 10337.666667 64.666667 10405.000000 22.333333 10459.000000 -29.000000 C 10513.666667 -80.333333 10558.000000 -138.333333 10592.000000 -203.000000 C 10626.000000 -267.666667 10652.000000 -336.000000 10670.000000 -408.000000 C 10688.666667 -480.000000 10702.666667 -554.666667 10712.000000 -632.000000z M 10988.000000 -639.000000 C 11007.333333 -639.000000 11026.666667 -639.000000 11046.000000 -639.000000 C 11046.000000 -423.333333 11046.000000 -207.666667 11046.000000 8.000000 C 11046.000000 28.000000 11049.666667 41.333333 11057.000000 48.000000 C 11065.000000 54.666667 11083.000000 58.000000 11111.000000 58.000000 C 11119.666667 58.000000 11137.333333 58.000000 11164.000000 58.000000 C 11191.333333 58.000000 11219.000000 58.000000 11247.000000 58.000000 C 11275.666667 58.000000 11295.666667 58.000000 11307.000000 58.000000 C 11325.000000 58.000000 11338.333333 52.333333 11347.000000 41.000000 C 11356.333333 30.333333 11362.333333 7.000000 11365.000000 -29.000000 C 11368.333333 -65.000000 11370.666667 -119.333333 11372.000000 -192.000000 C 11377.333333 -188.000000 11383.000000 -184.333333 11389.000000 -181.000000 C 11395.666667 -178.333333 11402.333333 -175.666667 11409.000000 -173.000000 C 11416.333333 -170.333333 11422.666667 -168.333333 11428.000000 -167.000000 C 11426.666667 -93.000000 11422.666667 -35.666667 11416.000000 5.000000 C 11410.000000 46.333333 11399.000000 74.666667 11383.000000 90.000000 C 11367.000000 105.333333 11343.666667 113.000000 11313.000000 113.000000 C 11307.666667 113.000000 11295.333333 113.000000 11276.000000 113.000000 C 11256.666667 113.000000 11235.000000 113.000000 11211.000000 113.000000 C 11187.666667 113.000000 11166.333333 113.000000 11147.000000 113.000000 C 11128.333333 113.000000 11116.333333 113.000000 11111.000000 113.000000 C 11079.000000 113.000000 11054.000000 110.000000 11036.000000 104.000000 C 11018.000000 98.666667 11005.333333 88.333333 10998.000000 73.000000 C 10991.333333 57.666667 10988.000000 36.000000 10988.000000 8.000000 C 10988.000000 -207.666667 10988.000000 -423.333333 10988.000000 -639.000000z M 10525.000000 -1148.000000 C 10525.000000 -985.333333 10525.000000 -822.666667 10525.000000 -660.000000 C 10771.000000 -660.000000 11017.000000 -660.000000 11263.000000 -660.000000 C 11263.000000 -822.666667 11263.000000 -985.333333 11263.000000 -1148.000000 C 11017.000000 -1148.000000 10771.000000 -1148.000000 10525.000000 -1148.000000z M 10470.000000 -1204.000000 C 10752.666667 -1204.000000 11035.333333 -1204.000000 11318.000000 -1204.000000 C 11318.000000 -1004.333333 11318.000000 -804.666667 11318.000000 -605.000000 C 11035.333333 -605.000000 10752.666667 -605.000000 10470.000000 -605.000000 C 10470.000000 -804.666667 10470.000000 -1004.333333 10470.000000 -1204.000000z M 10061.000000 -1455.000000 C 10080.000000 -1455.000000 10099.000000 -1455.000000 10118.000000 -1455.000000 C 10118.000000 -927.000000 10118.000000 -399.000000 10118.000000 129.000000 C 10099.000000 129.000000 10080.000000 129.000000 10061.000000 129.000000 C 10061.000000 -399.000000 10061.000000 -927.000000 10061.000000 -1455.000000z M 9709.000000 -1052.000000 C 9938.333333 -1052.000000 10167.666667 -1052.000000 10397.000000 -1052.000000 C 10397.000000 -1033.333333 10397.000000 -1014.666667 10397.000000 -996.000000 C 10167.666667 -996.000000 9938.333333 -996.000000 9709.000000 -996.000000 C 9709.000000 -1014.666667 9709.000000 -1033.333333 9709.000000 -1052.000000z M 10063.000000 -1035.000000 C 10078.333333 -1029.333333 10093.666667 -1023.666667 10109.000000 -1018.000000 C 10088.333333 -951.333333 10063.000000 -882.000000 10033.000000 -810.000000 C 10003.000000 -738.666667 9970.000000 -668.333333 9934.000000 -599.000000 C 9898.000000 -529.666667 9861.000000 -465.333333 9823.000000 -406.000000 C 9785.666667 -346.666667 9748.333333 -296.333333 9711.000000 -255.000000 C 9707.666667 -261.666667 9701.666667 -269.333333 9693.000000 -278.000000 C 9685.000000 -287.333333 9677.666667 -294.666667 9671.000000 -300.000000 C 9707.000000 -338.000000 9743.666667 -385.000000 9781.000000 -441.000000 C 9819.000000 -497.666667 9856.000000 -559.333333 9892.000000 -626.000000 C 9928.000000 -692.666667 9960.666667 -761.000000 9990.000000 -831.000000 C 10019.333333 -901.666667 10043.666667 -969.666667 10063.000000 -1035.000000z M 10332.000000 -1559.000000 C 10348.000000 -1544.333333 10364.000000 -1529.666667 10380.000000 -1515.000000 C 10327.333333 -1493.000000 10264.333333 -1472.000000 10191.000000 -1452.000000 C 10118.333333 -1432.666667 10042.000000 -1415.333333 9962.000000 -1400.000000 C 9882.000000 -1384.666667 9805.000000 -1371.000000 9731.000000 -1359.000000 C 9729.666667 -1365.666667 9726.666667 -1373.000000 9722.000000 -1381.000000 C 9717.333333 -1389.666667 9713.000000 -1397.666667 9709.000000 -1405.000000 C 9782.333333 -1418.333333 9858.333333 -1432.666667 9937.000000 -1448.000000 C 10015.666667 -1463.333333 10089.666667 -1480.333333 10159.000000 -1499.000000 C 10229.000000 -1518.333333 10286.666667 -1538.333333 10332.000000 -1559.000000z M 10111.000000 -826.000000 C 10123.666667 -814.000000 10143.000000 -795.000000 10169.000000 -769.000000 C 10195.666667 -743.000000 10224.666667 -714.333333 10256.000000 -683.000000 C 10287.333333 -652.333333 10315.666667 -623.666667 10341.000000 -597.000000 C 10367.000000 -570.333333 10385.000000 -550.666667 10395.000000 -538.000000 C 10381.666667 -522.666667 10368.333333 -507.333333 10355.000000 -492.000000 C 10343.000000 -507.333333 10324.666667 -529.333333 10300.000000 -558.000000 C 10276.000000 -586.666667 10249.333333 -617.000000 10220.000000 -649.000000 C 10190.666667 -681.000000 10163.000000 -710.666667 10137.000000 -738.000000 C 10111.666667 -766.000000 10091.333333 -786.333333 10076.000000 -799.000000 C 10087.666667 -808.000000 10099.333333 -817.000000 10111.000000 -826.000000z "/>
</g></svg>
