<?xml version="1.0" encoding="utf-8"?>
<svg xmlns="http://www.w3.org/2000/svg" xmlns:ev="http://www.w3.org/2001/xml-events" xmlns:xlink="http://www.w3.org/1999/xlink" version="1.1" baseProfile="full" width="5418.0" height="1722.0" viewBox="52.0 -1588.0 5418.0 1722.0">
<defs/>
<g><path d="M 522.000000 -989.000000 C 957.333333 -989.000000 1392.666667 -989.000000 1828.000000 -989.000000 C 1828.000000 -969.666667 1828.000000 -950.333333 1828.000000 -931.000000 C 1392.666667 -931.000000 957.333333 -931.000000 522.000000 -931.000000 C 522.000000 -950.333333 522.000000 -969.666667 522.000000 -989.000000z M 672.000000 -1453.000000 C 1002.333333 -1453.000000 1332.666667 -1453.000000 1663.000000 -1453.000000 C 1663.000000 -1085.666667 1663.000000 -718.333333 1663.000000 -351.000000 C 1643.666667 -351.000000 1624.333333 -351.000000 1605.000000 -351.000000 C 1605.000000 -699.333333 1605.000000 -1047.666667 1605.000000 -1396.000000 C 1294.000000 -1396.000000 983.000000 -1396.000000 672.000000 -1396.000000 C 672.000000 -1415.000000 672.000000 -1434.000000 672.000000 -1453.000000z M 636.000000 -520.000000 C 972.333333 -520.000000 1308.666667 -520.000000 1645.000000 -520.000000 C 1645.000000 -501.000000 1645.000000 -482.000000 1645.000000 -463.000000 C 1308.666667 -463.000000 972.333333 -463.000000 636.000000 -463.000000 C 636.000000 -482.000000 636.000000 -501.000000 636.000000 -520.000000z M 1054.000000 -1436.000000 C 1072.666667 -1436.000000 1091.333333 -1436.000000 1110.000000 -1436.000000 C 1110.000000 -1228.000000 1110.000000 -1020.000000 1110.000000 -812.000000 C 1110.000000 -749.333333 1107.333333 -683.666667 1102.000000 -615.000000 C 1096.666667 -547.000000 1085.000000 -478.666667 1067.000000 -410.000000 C 1049.666667 -341.333333 1021.333333 -274.333333 982.000000 -209.000000 C 943.333333 -143.666667 890.333333 -82.000000 823.000000 -24.000000 C 755.666667 34.000000 670.000000 86.666667 566.000000 134.000000 C 564.000000 130.666667 560.666667 126.000000 556.000000 120.000000 C 551.333333 114.000000 547.000000 108.000000 543.000000 102.000000 C 539.666667 96.666667 536.000000 92.000000 532.000000 88.000000 C 633.333333 44.666667 716.000000 -4.666667 780.000000 -60.000000 C 844.666667 -116.000000 896.000000 -175.000000 934.000000 -237.000000 C 972.000000 -299.000000 999.333333 -362.666667 1016.000000 -428.000000 C 1032.666667 -493.333333 1043.000000 -558.666667 1047.000000 -624.000000 C 1051.666667 -689.333333 1054.000000 -751.333333 1054.000000 -810.000000 C 1054.000000 -1018.666667 1054.000000 -1227.333333 1054.000000 -1436.000000z M 574.000000 -1588.000000 C 592.666667 -1582.666667 611.333333 -1577.333333 630.000000 -1572.000000 C 586.000000 -1464.666667 535.666667 -1360.333333 479.000000 -1259.000000 C 422.333333 -1158.333333 361.333333 -1064.000000 296.000000 -976.000000 C 230.666667 -888.666667 163.333333 -809.666667 94.000000 -739.000000 C 91.333333 -743.000000 87.333333 -748.000000 82.000000 -754.000000 C 77.333333 -760.666667 72.333333 -766.666667 67.000000 -772.000000 C 62.333333 -778.000000 57.333333 -783.000000 52.000000 -787.000000 C 121.333333 -852.333333 188.000000 -927.333333 252.000000 -1012.000000 C 316.000000 -1097.333333 375.666667 -1189.000000 431.000000 -1287.000000 C 487.000000 -1385.000000 534.666667 -1485.333333 574.000000 -1588.000000z M 359.000000 -1135.000000 C 377.000000 -1152.666667 395.000000 -1170.333333 413.000000 -1188.000000 C 414.333333 -1187.666667 415.666667 -1187.333333 417.000000 -1187.000000 C 417.000000 -746.666667 417.000000 -306.333333 417.000000 134.000000 C 397.666667 134.000000 378.333333 134.000000 359.000000 134.000000 C 359.000000 -289.000000 359.000000 -712.000000 359.000000 -1135.000000z "/>
</g></svg>
