<?xml version="1.0" ?>
<svg xmlns="http://www.w3.org/2000/svg" version="1.1" width="600" height="600">
  <defs/>
  <g>
    <path stroke-width="0" fill="rgb(0, 0, 0)" opacity="1.0" d="M 301.298828125 144.52703857421875 C 300.7587890625 148.17568969726562 300.35302734375 152.229736328125 300.0830078125 156.68917846679688 C 299.94775390625 161.01351928710938 299.8798828125 164.45947265625 299.8798828125 167.02703857421875 C 299.8798828125 169.59457397460938 299.8798828125 173.91891479492188 299.8798828125 180.0 C 299.8798828125 185.94595336914062 299.8798828125 192.16217041015625 299.8798828125 198.64865112304688 C 299.8798828125 205.1351318359375 299.8798828125 210.54052734375 299.8798828125 214.8648681640625 C 295.96142578125 214.8648681640625 292.04248046875 214.8648681640625 288.1240234375 214.8648681640625 C 288.1240234375 210.270263671875 288.1240234375 204.729736328125 288.1240234375 198.24322509765625 C 288.1240234375 191.75674438476562 288.1240234375 185.60809326171875 288.1240234375 179.79730224609375 C 288.1240234375 173.85134887695312 288.1240234375 169.59457397460938 288.1240234375 167.02703857421875 C 288.1240234375 164.45947265625 288.05615234375 161.01351928710938 287.9208984375 156.68917846679688 C 287.7861328125 152.229736328125 287.4482421875 148.17568969726562 286.90771484375 144.52703857421875 C 291.70458984375 144.52703857421875 296.501953125 144.52703857421875 301.298828125 144.52703857421875M 436.09130859375 213.44595336914062 C 435.55078125 214.66217041015625 434.875 216.689208984375 434.06396484375 219.52703857421875 C 433.25341796875 222.3648681640625 432.57763671875 225.60809326171875 432.037109375 229.25677490234375 C 431.361328125 235.47296142578125 429.9423828125 243.51348876953125 427.78076171875 253.37838745117188 C 425.75390625 263.2432556152344 423.11865234375 274.0540771484375 419.87548828125 285.810791015625 C 416.63232421875 297.43243408203125 412.64599609375 309.0540771484375 407.91650390625 320.6756591796875 C 403.322265625 332.16217041015625 398.05224609375 342.83782958984375 392.1064453125 352.70269775390625 C 382.91748046875 367.43243408203125 371.36376953125 381.4189453125 357.4453125 394.66217041015625 C 343.662109375 407.9053955078125 327.244140625 419.729736328125 308.1904296875 430.1351318359375 C 289.13720703125 440.54052734375 267.38134765625 449.2567138671875 242.9228515625 456.2838134765625 C 239.544921875 452.5 236.166015625 448.7161865234375 232.7880859375 444.93243408203125 C 236.97705078125 444.39190673828125 241.16650390625 443.5810546875 245.35498046875 442.5 C 249.6796875 441.2838134765625 253.93603515625 440.0 258.125 438.648681640625 C 273.66455078125 434.3243408203125 289.205078125 427.770263671875 304.74462890625 418.9864501953125 C 320.419921875 410.06756591796875 334.9462890625 399.52703857421875 348.32421875 387.3648681640625 C 361.7021484375 375.20269775390625 372.6474609375 362.0946044921875 381.16064453125 348.04052734375 C 388.72802734375 335.608154296875 395.28173828125 321.62164306640625 400.822265625 306.0810546875 C 406.36279296875 290.4053955078125 410.82177734375 275.06756591796875 414.2001953125 260.06756591796875 C 417.578125 245.06756591796875 419.6728515625 232.229736328125 420.4833984375 221.5540771484375 C 339.87890625 221.5540771484375 259.2734375 221.5540771484375 178.66845703125 221.5540771484375 C 178.66845703125 226.2838134765625 178.66845703125 232.6351318359375 178.66845703125 240.60809326171875 C 178.66845703125 248.44595336914062 178.66845703125 256.62164306640625 178.66845703125 265.1351318359375 C 178.66845703125 273.6486511230469 178.66845703125 281.48651123046875 178.66845703125 288.6486511230469 C 178.66845703125 295.810791015625 178.66845703125 300.810791015625 178.66845703125 303.648681640625 C 178.66845703125 306.2161865234375 178.8037109375 309.25677490234375 179.07373046875 312.770263671875 C 179.34423828125 316.2838134765625 179.6142578125 319.0540771484375 179.884765625 321.0810546875 C 175.22265625 321.0810546875 170.560546875 321.0810546875 165.89892578125 321.0810546875 C 166.43896484375 319.0540771484375 166.77734375 316.2838134765625 166.912109375 312.770263671875 C 167.04736328125 309.25677490234375 167.11474609375 306.351318359375 167.11474609375 304.0540771484375 C 167.11474609375 300.9459533691406 167.11474609375 296.2837829589844 167.11474609375 290.06756591796875 C 167.11474609375 283.8513488769531 167.11474609375 277.02703857421875 167.11474609375 269.5946044921875 C 167.11474609375 262.16217041015625 167.11474609375 255.270263671875 167.11474609375 248.91891479492188 C 167.11474609375 242.56756591796875 167.11474609375 237.83782958984375 167.11474609375 234.729736328125 C 167.11474609375 230.810791015625 167.04736328125 226.41891479492188 166.912109375 221.5540771484375 C 166.77734375 216.5540771484375 166.43896484375 212.16217041015625 165.89892578125 208.37838745117188 C 170.62841796875 208.648681640625 175.76318359375 208.98651123046875 181.3037109375 209.39190673828125 C 186.84423828125 209.66217041015625 192.72216796875 209.79730224609375 198.93798828125 209.79730224609375 C 268.12451171875 209.79730224609375 337.31103515625 209.79730224609375 406.49755859375 209.79730224609375 C 412.98388671875 209.79730224609375 417.71337890625 209.5946044921875 420.6865234375 209.189208984375 C 423.6591796875 208.648681640625 425.888671875 208.10809326171875 427.375 207.56756591796875 C 430.28076171875 209.52703857421875 433.185546875 211.48651123046875 436.09130859375 213.44595336914062"/>
  </g>
</svg>
