<?xml version="1.0" ?>
<svg xmlns="http://www.w3.org/2000/svg" version="1.1" width="600" height="600">
  <defs/>
  <g>
    <path stroke-width="0" fill="rgb(0, 0, 0)" opacity="1.0" d="M 342.7542724609375 309.539794921875 C 346.6290283203125 309.539794921875 350.5040283203125 309.539794921875 354.37890625 309.539794921875 C 354.37890625 356.94464111328125 354.37890625 404.3494873046875 354.37890625 451.75433349609375 C 354.37890625 457.1522216796875 355.7626953125 460.7508544921875 358.530517578125 462.5501708984375 C 361.29833984375 464.4879150390625 367.1796875 465.456787109375 376.175048828125 465.456787109375 C 378.38916015625 465.456787109375 382.4716796875 465.456787109375 388.42236328125 465.456787109375 C 394.373046875 465.456787109375 401.015625 465.456787109375 408.350341796875 465.456787109375 C 415.6849365234375 465.456787109375 422.53515625 465.456787109375 428.9010009765625 465.456787109375 C 435.266845703125 465.456787109375 439.90283203125 465.456787109375 442.8089599609375 465.456787109375 C 449.1748046875 465.456787109375 453.880126953125 463.7266845703125 456.924560546875 460.2664794921875 C 459.9691162109375 456.80621337890625 462.1141357421875 449.7474365234375 463.359619140625 439.0899658203125 C 464.6051025390625 428.4324951171875 465.4354248046875 412.4464111328125 465.8505859375 391.1314697265625 C 466.957763671875 391.9619140625 468.134033203125 392.7923583984375 469.3795166015625 393.622802734375 C 470.763427734375 394.4532470703125 472.1473388671875 395.14532470703125 473.53125 395.698974609375 C 475.053466796875 396.11419677734375 476.3681640625 396.5986328125 477.4752197265625 397.1522216796875 C 476.9217529296875 418.4671630859375 475.745361328125 435.0069580078125 473.9464111328125 446.7716064453125 C 472.28564453125 458.39794921875 469.102783203125 466.3564453125 464.3975830078125 470.6470947265625 C 459.830810546875 475.07611083984375 452.77294921875 477.2906494140625 443.22412109375 477.2906494140625 C 441.701904296875 477.2906494140625 437.6885986328125 477.2906494140625 431.184326171875 477.2906494140625 C 424.8184814453125 477.2906494140625 417.6915283203125 477.2906494140625 409.8033447265625 477.2906494140625 C 402.0535888671875 477.2906494140625 394.9957275390625 477.2906494140625 388.6300048828125 477.2906494140625 C 382.26416015625 477.2906494140625 378.2508544921875 477.2906494140625 376.5902099609375 477.2906494140625 C 367.8717041015625 477.2906494140625 361.021484375 476.5986328125 356.03955078125 475.21453857421875 C 351.1959228515625 473.9688720703125 347.7362060546875 471.4775390625 345.660400390625 467.740478515625 C 343.722900390625 464.00341796875 342.7542724609375 458.536376953125 342.7542724609375 451.339111328125 C 342.7542724609375 404.0726318359375 342.7542724609375 356.80621337890625 342.7542724609375 309.539794921875M 242.2843017578125 312.23876953125 C 246.297607421875 312.23876953125 250.310791015625 312.23876953125 254.3240966796875 312.23876953125 C 252.5250244140625 334.79931640625 249.411376953125 355.07611083984375 244.98291015625 373.0692138671875 C 240.554443359375 391.062255859375 233.8426513671875 406.8408203125 224.847412109375 420.40484619140625 C 215.85205078125 433.8304443359375 203.6739501953125 445.3875732421875 188.3128662109375 455.07611083984375 C 173.090087890625 464.903076171875 153.784912109375 473.0 130.3973388671875 479.3668212890625 C 130.1204833984375 478.53631591796875 129.497802734375 477.498291015625 128.529052734375 476.2525634765625 C 127.5604248046875 475.14532470703125 126.5916748046875 474.0380859375 125.6229248046875 472.9307861328125 C 124.7926025390625 471.823486328125 123.823974609375 470.92388916015625 122.716796875 470.2318115234375 C 145.82763671875 464.2802734375 164.786865234375 456.737060546875 179.5943603515625 447.60205078125 C 194.4019775390625 438.4671630859375 206.095703125 427.46368408203125 214.67578125 414.5916748046875 C 223.2559814453125 401.7197265625 229.621826171875 386.7716064453125 233.7734375 369.7474365234375 C 237.925048828125 352.72314453125 240.761962890625 333.55364990234375 242.2843017578125 312.23876953125M 341.3011474609375 216.5294189453125 C 344.0689697265625 214.31488037109375 346.836669921875 212.100341796875 349.6044921875 209.88580322265625 C 364.13525390625 219.71282958984375 378.87353515625 230.78546142578125 393.819580078125 243.10382080078125 C 408.90380859375 255.42214965820312 422.8118896484375 267.740478515625 435.5435791015625 280.058837890625 C 448.4136962890625 292.23876953125 458.654541015625 303.380615234375 466.265869140625 313.48443603515625 C 463.2213134765625 316.11419677734375 460.1766357421875 318.74395751953125 457.1322021484375 321.37371826171875 C 449.6591796875 311.1314697265625 439.6259765625 299.7820129394531 427.03271484375 287.32525634765625 C 414.439453125 274.7301025390625 400.6697998046875 262.27337646484375 385.7237548828125 249.95501708984375 C 370.916259765625 237.498291015625 356.1087646484375 226.35641479492188 341.3011474609375 216.5294189453125M 256.39990234375 179.9896240234375 C 260.067138671875 181.7197265625 263.7344970703125 183.4498291015625 267.4017333984375 185.179931640625 C 261.8663330078125 196.5294189453125 255.7078857421875 208.7093505859375 248.927001953125 221.7197265625 C 242.14599609375 234.7301025390625 235.2957763671875 247.32525634765625 228.376220703125 259.50518798828125 C 221.456787109375 271.54669189453125 214.814208984375 282.20416259765625 208.4483642578125 291.4775085449219 C 205.40380859375 289.88580322265625 202.3592529296875 288.29412841796875 199.314697265625 286.7024230957031 C 205.6805419921875 277.4290771484375 212.3924560546875 266.56402587890625 219.4501953125 254.10726928710938 C 226.508056640625 241.6505126953125 233.2890625 228.8477783203125 239.7933349609375 215.698974609375 C 246.297607421875 202.5501708984375 251.8331298828125 190.64706420898438 256.39990234375 179.9896240234375M 140.361328125 286.7024230957031 C 163.1954345703125 286.2872009277344 190.3194580078125 285.59515380859375 221.733642578125 284.62628173828125 C 253.2861328125 283.6574401855469 286.9837646484375 282.5501708984375 322.8262939453125 281.30450439453125 C 358.6688232421875 279.92041015625 394.7191162109375 278.3979187011719 430.976806640625 276.7370300292969 C 430.699951171875 280.1972351074219 430.4232177734375 283.6574401855469 430.146484375 287.1176452636719 C 394.9957275390625 288.778564453125 359.706787109375 290.3702392578125 324.2794189453125 291.8927307128906 C 288.85205078125 293.2768249511719 255.4312744140625 294.660888671875 224.01708984375 296.04498291015625 C 192.6029052734375 297.2906494140625 165.1328125 298.3287353515625 141.6068115234375 299.1591796875 C 141.191650390625 295.0069274902344 140.7764892578125 290.85467529296875 140.361328125 286.7024230957031M 128.321533203125 175.6297607421875 C 242.5611572265625 175.6297607421875 356.8006591796875 175.6297607421875 471.0401611328125 175.6297607421875 C 471.0401611328125 179.43600463867188 471.0401611328125 183.24221801757812 471.0401611328125 187.04843139648438 C 356.8006591796875 187.04843139648438 242.5611572265625 187.04843139648438 128.321533203125 187.04843139648438 C 128.321533203125 183.24221801757812 128.321533203125 179.43600463867188 128.321533203125 175.6297607421875M 292.1041259765625 121.6505126953125 C 296.117431640625 121.6505126953125 300.130615234375 121.6505126953125 304.1439208984375 121.6505126953125 C 304.1439208984375 141.58132934570312 304.1439208984375 161.51211547851562 304.1439208984375 181.44290161132812 C 300.130615234375 181.44290161132812 296.117431640625 181.44290161132812 292.1041259765625 181.44290161132812 C 292.1041259765625 161.51211547851562 292.1041259765625 141.58132934570312 292.1041259765625 121.6505126953125"/>
  </g>
</svg>
