<?xml version="1.0" encoding="utf-8"?>
<svg xmlns="http://www.w3.org/2000/svg" xmlns:ev="http://www.w3.org/2001/xml-events" xmlns:xlink="http://www.w3.org/1999/xlink" version="1.1" baseProfile="full" width="20903.0" height="1740.0" viewBox="106.0 -1596.0 20903.0 1740.0">
<defs/>
<g><path d="M 15556.000000 -2.000000 C 15664.666667 -4.666667 15793.000000 -8.333333 15941.000000 -13.000000 C 16089.666667 -18.333333 16249.000000 -24.000000 16419.000000 -30.000000 C 16589.666667 -36.666667 16760.666667 -44.000000 16932.000000 -52.000000 C 16931.666667 -34.000000 16931.333333 -16.000000 16931.000000 2.000000 C 16764.333333 9.333333 16597.333333 16.666667 16430.000000 24.000000 C 16263.333333 31.333333 16105.333333 37.666667 15956.000000 43.000000 C 15806.666667 49.000000 15676.000000 54.000000 15564.000000 58.000000 C 15561.333333 38.000000 15558.666667 18.000000 15556.000000 -2.000000z M 15533.000000 -616.000000 C 16061.666667 -616.000000 16590.333333 -616.000000 17119.000000 -616.000000 C 17119.000000 -597.000000 17119.000000 -578.000000 17119.000000 -559.000000 C 16590.333333 -559.000000 16061.666667 -559.000000 15533.000000 -559.000000 C 15533.000000 -578.000000 15533.000000 -597.000000 15533.000000 -616.000000z M 15848.000000 -983.000000 C 16159.000000 -983.000000 16470.000000 -983.000000 16781.000000 -983.000000 C 16781.000000 -963.666667 16781.000000 -944.333333 16781.000000 -925.000000 C 16470.000000 -925.000000 16159.000000 -925.000000 15848.000000 -925.000000 C 15848.000000 -944.333333 15848.000000 -963.666667 15848.000000 -983.000000z M 16115.000000 -584.000000 C 16134.666667 -577.333333 16154.333333 -570.666667 16174.000000 -564.000000 C 16144.666667 -501.333333 16112.666667 -434.000000 16078.000000 -362.000000 C 16043.333333 -290.666667 16007.666667 -220.333333 15971.000000 -151.000000 C 15935.000000 -82.333333 15899.666667 -21.000000 15865.000000 33.000000 C 15847.000000 26.333333 15829.000000 19.666667 15811.000000 13.000000 C 15845.666667 -40.333333 15881.666667 -102.000000 15919.000000 -172.000000 C 15957.000000 -242.666667 15993.333333 -314.333333 16028.000000 -387.000000 C 16062.666667 -460.333333 16091.666667 -526.000000 16115.000000 -584.000000z M 16550.000000 -374.000000 C 16564.333333 -383.000000 16578.666667 -392.000000 16593.000000 -401.000000 C 16654.333333 -349.666667 16715.333333 -293.333333 16776.000000 -232.000000 C 16836.666667 -170.666667 16892.333333 -110.000000 16943.000000 -50.000000 C 16993.666667 10.000000 17033.666667 64.333333 17063.000000 113.000000 C 17047.666667 123.333333 17032.333333 133.666667 17017.000000 144.000000 C 16986.333333 95.333333 16945.666667 40.666667 16895.000000 -20.000000 C 16844.333333 -80.666667 16789.333333 -142.333333 16730.000000 -205.000000 C 16670.666667 -268.333333 16610.666667 -324.666667 16550.000000 -374.000000z M 16307.000000 -1536.000000 C 16254.333333 -1454.000000 16184.666667 -1369.666667 16098.000000 -1283.000000 C 16012.000000 -1197.000000 15916.000000 -1115.000000 15810.000000 -1037.000000 C 15704.666667 -959.000000 15596.333333 -890.333333 15485.000000 -831.000000 C 15482.333333 -836.333333 15479.000000 -841.333333 15475.000000 -846.000000 C 15471.000000 -851.333333 15467.000000 -856.666667 15463.000000 -862.000000 C 15459.666667 -867.333333 15455.333333 -872.000000 15450.000000 -876.000000 C 15561.333333 -932.000000 15670.000000 -999.000000 15776.000000 -1077.000000 C 15882.666667 -1155.000000 15979.333333 -1238.333333 16066.000000 -1327.000000 C 16153.333333 -1416.333333 16222.666667 -1505.333333 16274.000000 -1594.000000 C 16292.000000 -1594.000000 16310.000000 -1594.000000 16328.000000 -1594.000000 C 16378.666667 -1522.000000 16438.333333 -1451.000000 16507.000000 -1381.000000 C 16575.666667 -1311.666667 16649.000000 -1245.666667 16727.000000 -1183.000000 C 16805.000000 -1120.333333 16884.333333 -1063.333333 16965.000000 -1012.000000 C 17045.666667 -960.666667 17124.333333 -917.666667 17201.000000 -883.000000 C 17196.333333 -878.333333 17190.000000 -870.666667 17182.000000 -860.000000 C 17174.666667 -850.000000 17168.333333 -841.666667 17163.000000 -835.000000 C 17060.333333 -886.333333 16955.333333 -949.000000 16848.000000 -1023.000000 C 16740.666667 -1097.666667 16639.666667 -1179.000000 16545.000000 -1267.000000 C 16451.000000 -1355.666667 16371.666667 -1445.333333 16307.000000 -1536.000000z "/>
</g></svg>
