<?xml version="1.0" encoding="utf-8"?>
<svg xmlns="http://www.w3.org/2000/svg" xmlns:ev="http://www.w3.org/2001/xml-events" xmlns:xlink="http://www.w3.org/1999/xlink" version="1.1" baseProfile="full" width="7488.0" height="1736.0" viewBox="98.0 -1596.0 7488.0 1736.0">
<defs/>
<g><path d="M 952.000000 -1536.000000 C 914.000000 -1470.666667 866.000000 -1402.000000 808.000000 -1330.000000 C 750.666667 -1258.666667 685.333333 -1187.000000 612.000000 -1115.000000 C 539.333333 -1043.666667 462.666667 -975.333333 382.000000 -910.000000 C 301.333333 -844.666667 218.666667 -785.666667 134.000000 -733.000000 C 132.000000 -737.000000 129.000000 -741.666667 125.000000 -747.000000 C 121.000000 -752.333333 116.666667 -757.333333 112.000000 -762.000000 C 108.000000 -767.333333 103.333333 -772.000000 98.000000 -776.000000 C 210.666667 -844.666667 320.000000 -924.333333 426.000000 -1015.000000 C 532.666667 -1106.333333 628.666667 -1202.000000 714.000000 -1302.000000 C 800.000000 -1402.666667 868.666667 -1500.666667 920.000000 -1596.000000 C 937.666667 -1596.000000 955.333333 -1596.000000 973.000000 -1596.000000 C 1021.666667 -1521.333333 1079.666667 -1446.333333 1147.000000 -1371.000000 C 1214.333333 -1295.666667 1286.333333 -1222.333333 1363.000000 -1151.000000 C 1439.666667 -1079.666667 1518.000000 -1014.000000 1598.000000 -954.000000 C 1678.000000 -894.000000 1756.000000 -842.333333 1832.000000 -799.000000 C 1825.333333 -793.666667 1817.666667 -786.000000 1809.000000 -776.000000 C 1801.000000 -766.666667 1795.000000 -759.000000 1791.000000 -753.000000 C 1714.333333 -799.000000 1636.333333 -852.333333 1557.000000 -913.000000 C 1477.666667 -973.666667 1400.333333 -1038.666667 1325.000000 -1108.000000 C 1250.333333 -1177.333333 1181.000000 -1248.333333 1117.000000 -1321.000000 C 1053.000000 -1393.666667 998.000000 -1465.333333 952.000000 -1536.000000z M 968.000000 -611.000000 C 1177.333333 -611.000000 1386.666667 -611.000000 1596.000000 -611.000000 C 1596.000000 -591.666667 1596.000000 -572.333333 1596.000000 -553.000000 C 1386.666667 -553.000000 1177.333333 -553.000000 968.000000 -553.000000 C 968.000000 -572.333333 968.000000 -591.666667 968.000000 -611.000000z M 148.000000 21.000000 C 692.666667 21.000000 1237.333333 21.000000 1782.000000 21.000000 C 1782.000000 39.666667 1782.000000 58.333333 1782.000000 77.000000 C 1237.333333 77.000000 692.666667 77.000000 148.000000 77.000000 C 148.000000 58.333333 148.000000 39.666667 148.000000 21.000000z M 943.000000 -1098.000000 C 962.000000 -1098.000000 981.000000 -1098.000000 1000.000000 -1098.000000 C 1000.000000 -716.666667 1000.000000 -335.333333 1000.000000 46.000000 C 981.000000 46.000000 962.000000 46.000000 943.000000 46.000000 C 943.000000 -335.333333 943.000000 -716.666667 943.000000 -1098.000000z M 426.000000 -735.000000 C 444.666667 -735.000000 463.333333 -735.000000 482.000000 -735.000000 C 482.000000 -476.000000 482.000000 -217.000000 482.000000 42.000000 C 463.333333 42.000000 444.666667 42.000000 426.000000 42.000000 C 426.000000 -217.000000 426.000000 -476.000000 426.000000 -735.000000z "/>
</g>
<g><path d="M 2291.000000 -432.000000 C 2688.333333 -432.000000 3085.666667 -432.000000 3483.000000 -432.000000 C 3483.000000 -243.333333 3483.000000 -54.666667 3483.000000 134.000000 C 3463.666667 134.000000 3444.333333 134.000000 3425.000000 134.000000 C 3425.000000 -35.333333 3425.000000 -204.666667 3425.000000 -374.000000 C 3066.000000 -374.000000 2707.000000 -374.000000 2348.000000 -374.000000 C 2348.000000 -202.666667 2348.000000 -31.333333 2348.000000 140.000000 C 2329.000000 140.000000 2310.000000 140.000000 2291.000000 140.000000 C 2291.000000 -50.666667 2291.000000 -241.333333 2291.000000 -432.000000z M 2317.000000 -213.000000 C 2696.000000 -213.000000 3075.000000 -213.000000 3454.000000 -213.000000 C 3454.000000 -194.333333 3454.000000 -175.666667 3454.000000 -157.000000 C 3075.000000 -157.000000 2696.000000 -157.000000 2317.000000 -157.000000 C 2317.000000 -175.666667 2317.000000 -194.333333 2317.000000 -213.000000z M 2317.000000 13.000000 C 2696.000000 13.000000 3075.000000 13.000000 3454.000000 13.000000 C 3454.000000 31.666667 3454.000000 50.333333 3454.000000 69.000000 C 3075.000000 69.000000 2696.000000 69.000000 2317.000000 69.000000 C 2317.000000 50.333333 2317.000000 31.666667 2317.000000 13.000000z M 2845.000000 -1596.000000 C 2864.333333 -1596.000000 2883.666667 -1596.000000 2903.000000 -1596.000000 C 2903.000000 -1257.333333 2903.000000 -918.666667 2903.000000 -580.000000 C 2883.666667 -580.000000 2864.333333 -580.000000 2845.000000 -580.000000 C 2845.000000 -918.666667 2845.000000 -1257.333333 2845.000000 -1596.000000z M 2252.000000 -1446.000000 C 2659.000000 -1446.000000 3066.000000 -1446.000000 3473.000000 -1446.000000 C 3473.000000 -1286.666667 3473.000000 -1127.333333 3473.000000 -968.000000 C 3058.333333 -968.000000 2643.666667 -968.000000 2229.000000 -968.000000 C 2229.000000 -986.333333 2229.000000 -1004.666667 2229.000000 -1023.000000 C 2624.666667 -1023.000000 3020.333333 -1023.000000 3416.000000 -1023.000000 C 3416.000000 -1144.666667 3416.000000 -1266.333333 3416.000000 -1388.000000 C 3028.000000 -1388.000000 2640.000000 -1388.000000 2252.000000 -1388.000000 C 2252.000000 -1407.333333 2252.000000 -1426.666667 2252.000000 -1446.000000z M 2043.000000 -1236.000000 C 2602.333333 -1236.000000 3161.666667 -1236.000000 3721.000000 -1236.000000 C 3721.000000 -1217.666667 3721.000000 -1199.333333 3721.000000 -1181.000000 C 3161.666667 -1181.000000 2602.333333 -1181.000000 2043.000000 -1181.000000 C 2043.000000 -1199.333333 2043.000000 -1217.666667 2043.000000 -1236.000000z M 2166.000000 -820.000000 C 2646.000000 -820.000000 3126.000000 -820.000000 3606.000000 -820.000000 C 3606.000000 -801.333333 3606.000000 -782.666667 3606.000000 -764.000000 C 3126.000000 -764.000000 2646.000000 -764.000000 2166.000000 -764.000000 C 2166.000000 -782.666667 2166.000000 -801.333333 2166.000000 -820.000000z M 2039.000000 -609.000000 C 2601.000000 -609.000000 3163.000000 -609.000000 3725.000000 -609.000000 C 3725.000000 -589.666667 3725.000000 -570.333333 3725.000000 -551.000000 C 3163.000000 -551.000000 2601.000000 -551.000000 2039.000000 -551.000000 C 2039.000000 -570.333333 2039.000000 -589.666667 2039.000000 -609.000000z "/>
</g>
<g><path d="M 5134.000000 -1450.000000 C 5124.000000 -1440.666667 5108.000000 -1425.666667 5086.000000 -1405.000000 C 5064.000000 -1385.000000 5048.000000 -1370.333333 5038.000000 -1361.000000 C 5003.333333 -1329.000000 4960.333333 -1291.000000 4909.000000 -1247.000000 C 4858.333333 -1203.000000 4804.333333 -1157.666667 4747.000000 -1111.000000 C 4690.333333 -1064.333333 4635.333333 -1019.333333 4582.000000 -976.000000 C 4528.666667 -933.333333 4483.000000 -896.000000 4445.000000 -864.000000 C 4402.333333 -826.666667 4373.333333 -795.333333 4358.000000 -770.000000 C 4342.666667 -745.333333 4343.000000 -720.666667 4359.000000 -696.000000 C 4375.000000 -671.333333 4406.666667 -639.000000 4454.000000 -599.000000 C 4495.333333 -565.666667 4540.333333 -529.000000 4589.000000 -489.000000 C 4637.666667 -449.666667 4687.666667 -408.000000 4739.000000 -364.000000 C 4791.000000 -320.000000 4843.333333 -274.666667 4896.000000 -228.000000 C 4948.666667 -182.000000 4999.666667 -135.666667 5049.000000 -89.000000 C 5098.333333 -42.333333 5144.000000 2.666667 5186.000000 46.000000 C 5169.333333 60.666667 5152.666667 75.333333 5136.000000 90.000000 C 5109.333333 59.333333 5077.333333 25.333333 5040.000000 -12.000000 C 5001.333333 -50.000000 4955.000000 -93.666667 4901.000000 -143.000000 C 4847.666667 -192.333333 4791.333333 -242.666667 4732.000000 -294.000000 C 4672.666667 -346.000000 4614.333333 -396.000000 4557.000000 -444.000000 C 4500.333333 -492.000000 4449.000000 -534.666667 4403.000000 -572.000000 C 4345.000000 -619.333333 4308.666667 -659.666667 4294.000000 -693.000000 C 4279.333333 -726.333333 4282.333333 -759.333333 4303.000000 -792.000000 C 4324.333333 -824.666667 4360.666667 -862.666667 4412.000000 -906.000000 C 4446.666667 -935.333333 4490.333333 -971.333333 4543.000000 -1014.000000 C 4596.333333 -1057.333333 4652.000000 -1103.000000 4710.000000 -1151.000000 C 4768.666667 -1199.000000 4824.000000 -1245.333333 4876.000000 -1290.000000 C 4928.000000 -1334.666667 4970.000000 -1374.333333 5002.000000 -1409.000000 C 5012.000000 -1421.000000 5024.666667 -1436.333333 5040.000000 -1455.000000 C 5055.333333 -1474.333333 5066.333333 -1490.333333 5073.000000 -1503.000000 C 5093.333333 -1485.333333 5113.666667 -1467.666667 5134.000000 -1450.000000z "/>
</g>
<g><path d="M 7215.000000 -1227.000000 C 7234.333333 -1220.666667 7253.666667 -1214.333333 7273.000000 -1208.000000 C 7192.333333 -970.000000 7089.666667 -765.000000 6965.000000 -593.000000 C 6840.333333 -421.666667 6690.333333 -277.333333 6515.000000 -160.000000 C 6339.666667 -43.333333 6133.333333 54.666667 5896.000000 134.000000 C 5894.666667 129.333333 5891.666667 123.666667 5887.000000 117.000000 C 5883.000000 111.000000 5878.333333 104.333333 5873.000000 97.000000 C 5868.333333 89.666667 5863.333333 84.333333 5858.000000 81.000000 C 6093.333333 7.666667 6298.000000 -86.666667 6472.000000 -202.000000 C 6646.000000 -318.000000 6794.000000 -459.666667 6916.000000 -627.000000 C 7038.666667 -795.000000 7138.333333 -995.000000 7215.000000 -1227.000000z M 6211.000000 -1221.000000 C 6285.666667 -1001.000000 6385.333333 -803.666667 6510.000000 -629.000000 C 6634.666667 -454.333333 6786.666667 -306.333333 6966.000000 -185.000000 C 7145.333333 -64.333333 7352.000000 25.000000 7586.000000 83.000000 C 7582.000000 86.333333 7577.333333 91.333333 7572.000000 98.000000 C 7567.333333 104.666667 7562.333333 111.000000 7557.000000 117.000000 C 7551.666667 123.666667 7547.333333 129.333333 7544.000000 134.000000 C 7309.333333 72.666667 7102.333333 -19.666667 6923.000000 -143.000000 C 6744.333333 -266.333333 6591.666667 -417.333333 6465.000000 -596.000000 C 6338.333333 -774.666667 6235.666667 -977.333333 6157.000000 -1204.000000 C 6175.000000 -1209.666667 6193.000000 -1215.333333 6211.000000 -1221.000000z M 5868.000000 -1246.000000 C 6438.666667 -1246.000000 7009.333333 -1246.000000 7580.000000 -1246.000000 C 7580.000000 -1227.333333 7580.000000 -1208.666667 7580.000000 -1190.000000 C 7009.333333 -1190.000000 6438.666667 -1190.000000 5868.000000 -1190.000000 C 5868.000000 -1208.666667 5868.000000 -1227.333333 5868.000000 -1246.000000z M 6687.000000 -1596.000000 C 6706.333333 -1596.000000 6725.666667 -1596.000000 6745.000000 -1596.000000 C 6745.000000 -1468.333333 6745.000000 -1340.666667 6745.000000 -1213.000000 C 6725.666667 -1213.000000 6706.333333 -1213.000000 6687.000000 -1213.000000 C 6687.000000 -1340.666667 6687.000000 -1468.333333 6687.000000 -1596.000000z "/>
</g>
</svg>
