<?xml version="1.0" ?>
<svg xmlns="http://www.w3.org/2000/svg" version="1.1" width="600" height="600">
  <defs/>
  <g>
    <path stroke-width="0" fill="rgb(0, 0, 0)" opacity="1.0" d="M 190.41189575195312 480.0 C 190.41189575195312 472.5 190.41189575195312 465.0 190.41189575195312 457.5 C 190.41189575195312 450.0 190.41189575195312 442.5 190.41189575195312 435.0 C 190.41189575195312 427.5 190.41189575195312 420.0 190.41189575195312 412.5 C 190.41189575195312 405.0 190.41189575195312 397.5 190.41189575195312 390.0 C 190.41189575195312 382.5 190.41189575195312 375.0 190.41189575195312 367.5 C 190.41189575195312 360.0 190.41189575195312 352.5 190.41189575195312 345.0 C 190.41189575195312 337.5 190.41189575195312 330.0 190.41189575195312 322.5 C 190.41189575195312 315.0 190.41189575195312 307.5 190.41189575195312 300.0 C 190.41189575195312 292.5 190.41189575195312 285.0 190.41189575195312 277.5 C 190.41189575195312 270.0 190.41189575195312 262.5 190.41189575195312 255.0 C 190.41189575195312 247.5 190.41189575195312 240.0 190.41189575195312 232.5 C 190.41189575195312 225.0 190.41189575195312 217.5 190.41189575195312 210.0 C 190.41189575195312 202.5 190.41189575195312 195.0 190.41189575195312 187.5 C 190.41189575195312 180.0 190.41189575195312 172.5 190.41189575195312 165.0 C 190.41189575195312 157.5 190.41189575195312 150.0 190.41189575195312 142.5 C 190.41189575195312 135.0 190.41189575195312 127.5 190.41189575195312 120.0 C 198.7069091796875 120.0 207.001953125 120.0 215.29696655273438 120.0 C 223.59197998046875 120.0 231.88702392578125 120.0 240.18203735351562 120.0 C 248.47705078125 120.0 256.7720642089844 120.0 265.06707763671875 120.0 C 273.36212158203125 120.0 281.6571350097656 120.0 289.9521484375 120.0 C 301.814453125 120.0 312.88165283203125 120.79629516601562 323.15374755859375 122.38882446289062 C 333.42578125 123.98135375976562 342.90277099609375 126.37014770507812 351.5845947265625 129.55523681640625 C 360.26641845703125 132.65423583984375 367.938232421875 136.67861938476562 374.60003662109375 141.62841796875 C 381.2618408203125 146.57818603515625 386.91363525390625 152.453369140625 391.555419921875 159.25393676757812 C 396.28314208984375 165.96844482421875 399.8289794921875 173.78048706054688 402.19281005859375 182.69009399414062 C 404.556640625 191.59970092773438 405.7386474609375 201.60687255859375 405.7386474609375 212.71160888671875 C 405.7386474609375 223.29986572265625 404.556640625 233.0703125 402.19281005859375 242.02294921875 C 399.8289794921875 250.97561645507812 396.28314208984375 259.1104736328125 391.555419921875 266.42755126953125 C 386.91363525390625 273.6585388183594 381.2618408203125 280.0071716308594 374.60003662109375 285.47344970703125 C 367.938232421875 290.93975830078125 360.26641845703125 295.523681640625 351.5845947265625 299.2252502441406 C 342.90277099609375 302.92681884765625 333.42578125 305.7030029296875 323.15374755859375 307.5538024902344 C 312.88165283203125 309.40460205078125 301.814453125 310.3299865722656 289.9521484375 310.3299865722656 C 283.18292236328125 310.3299865722656 276.41363525390625 310.3299865722656 269.6444091796875 310.3299865722656 C 262.8751525878906 310.3299865722656 256.10589599609375 310.3299865722656 249.33663940429688 310.3299865722656 C 242.5673828125 310.3299865722656 235.79812622070312 310.3299865722656 229.02886962890625 310.3299865722656 C 222.2596435546875 310.3299865722656 215.4903564453125 310.3299865722656 208.72113037109375 310.3299865722656 C 208.72113037109375 317.3995666503906 208.72113037109375 324.4691467285156 208.72113037109375 331.53875732421875 C 208.72113037109375 338.60833740234375 208.72113037109375 345.67791748046875 208.72113037109375 352.74749755859375 C 208.72113037109375 359.81707763671875 208.72113037109375 366.88665771484375 208.72113037109375 373.95623779296875 C 208.72113037109375 381.02581787109375 208.72113037109375 388.09539794921875 208.72113037109375 395.16497802734375 C 208.72113037109375 402.23455810546875 208.72113037109375 409.30419921875 208.72113037109375 416.373779296875 C 208.72113037109375 423.443359375 208.72113037109375 430.512939453125 208.72113037109375 437.58251953125 C 208.72113037109375 444.652099609375 208.72113037109375 451.7216796875 208.72113037109375 458.791259765625 C 208.72113037109375 465.86083984375 208.72113037109375 472.930419921875 208.72113037109375 480.0 C 202.6180419921875 480.0 196.51498413085938 480.0 190.41189575195312 480.0M 208.72113037109375 294.5767517089844 C 221.18515014648438 294.5767517089844 233.649169921875 294.5767517089844 246.11318969726562 294.5767517089844 C 258.57720947265625 294.5767517089844 271.0412292480469 294.5767517089844 283.5052490234375 294.5767517089844 C 291.7572937011719 294.5767517089844 299.53118896484375 294.1571044921875 306.8269348144531 293.31781005859375 C 314.1226806640625 292.4784851074219 320.9403076171875 291.2195129394531 327.2797546386719 289.5408935546875 C 339.95867919921875 286.18365478515625 350.7249755859375 281.14776611328125 359.5787353515625 274.43328857421875 C 368.4324951171875 267.71881103515625 375.07281494140625 259.21807861328125 379.49969482421875 248.93115234375 C 383.92657470703125 238.64419555664062 386.1400146484375 226.571044921875 386.1400146484375 212.71160888671875 C 386.1400146484375 198.6800537109375 383.92657470703125 186.73599243164062 379.49969482421875 176.87948608398438 C 375.07281494140625 167.02297973632812 368.4324951171875 159.25393676757812 359.5787353515625 153.57244873046875 C 350.7249755859375 147.80487060546875 339.95867919921875 143.47918701171875 327.2797546386719 140.59539794921875 C 320.9403076171875 139.15350341796875 314.1226806640625 138.07208251953125 306.8269348144531 137.35113525390625 C 299.53118896484375 136.63021850585938 291.7572937011719 136.26971435546875 283.5052490234375 136.26971435546875 C 271.0412292480469 136.26971435546875 258.57720947265625 136.26971435546875 246.11318969726562 136.26971435546875 C 233.649169921875 136.26971435546875 221.18515014648438 136.26971435546875 208.72113037109375 136.26971435546875 C 208.72113037109375 149.46200561523438 208.72113037109375 162.65423583984375 208.72113037109375 175.84649658203125 C 208.72113037109375 189.03875732421875 208.72113037109375 202.23098754882812 208.72113037109375 215.42324829101562 C 208.72113037109375 228.615478515625 208.72113037109375 241.8077392578125 208.72113037109375 255.0 C 208.72113037109375 268.1922607421875 208.72113037109375 281.384521484375 208.72113037109375 294.5767517089844M 390.0081787109375 480.0 C 385.635009765625 472.7044677734375 381.2618408203125 465.408935546875 376.888671875 458.11334228515625 C 372.51556396484375 450.8177490234375 368.14239501953125 443.522216796875 363.76922607421875 436.2266845703125 C 359.3961181640625 428.93115234375 355.02294921875 421.6356201171875 350.6497802734375 414.34002685546875 C 346.2766418457031 407.04449462890625 341.90350341796875 399.7489013671875 337.53033447265625 392.453369140625 C 333.15716552734375 385.1578369140625 328.7840270996094 377.8623046875 324.410888671875 370.56671142578125 C 320.0377197265625 363.27117919921875 315.66455078125 355.9755859375 311.2914123535156 348.6800537109375 C 306.91827392578125 341.384521484375 302.54510498046875 334.0889892578125 298.1719665527344 326.79339599609375 C 293.798828125 319.49786376953125 289.4256591796875 312.2023010253906 285.052490234375 304.90673828125 C 292.0151672363281 304.3041687011719 298.97784423828125 303.7015686035156 305.94049072265625 303.0989990234375 C 310.33514404296875 310.4698791503906 314.7297668457031 317.84075927734375 319.1243896484375 325.21160888671875 C 323.51904296875 332.58251953125 327.9136962890625 339.953369140625 332.308349609375 347.32421875 C 336.7030029296875 354.69512939453125 341.09759521484375 362.0660400390625 345.49224853515625 369.4368896484375 C 349.88690185546875 376.8077392578125 354.28155517578125 384.1785888671875 358.67620849609375 391.54949951171875 C 363.07080078125 398.92041015625 367.4654541015625 406.291259765625 371.860107421875 413.662109375 C 376.2547607421875 421.032958984375 380.6494140625 428.40386962890625 385.0440673828125 435.7747802734375 C 389.438720703125 443.1456298828125 393.83331298828125 450.5164794921875 398.22796630859375 457.88739013671875 C 402.62255859375 465.25823974609375 407.01727294921875 472.629150390625 411.411865234375 480.0 C 404.27734375 480.0 397.1427001953125 480.0 390.0081787109375 480.0"/>
  </g>
</svg>
