<?xml version="1.0" encoding="utf-8"?>
<svg xmlns="http://www.w3.org/2000/svg" xmlns:ev="http://www.w3.org/2001/xml-events" xmlns:xlink="http://www.w3.org/1999/xlink" version="1.1" baseProfile="full" width="20903.0" height="1740.0" viewBox="106.0 -1596.0 20903.0 1740.0">
<defs/>
<g><path d="M 18008.000000 -1321.000000 C 18023.333333 -1328.666667 18038.666667 -1336.333333 18054.000000 -1344.000000 C 18097.333333 -1298.000000 18139.000000 -1247.333333 18179.000000 -1192.000000 C 18219.666667 -1137.333333 18256.000000 -1083.333333 18288.000000 -1030.000000 C 18320.000000 -976.666667 18345.000000 -928.333333 18363.000000 -885.000000 C 18345.666667 -876.000000 18328.333333 -867.000000 18311.000000 -858.000000 C 18294.333333 -902.000000 18270.333333 -951.000000 18239.000000 -1005.000000 C 18207.666667 -1059.666667 18171.666667 -1114.333333 18131.000000 -1169.000000 C 18091.000000 -1224.333333 18050.000000 -1275.000000 18008.000000 -1321.000000z M 17368.000000 -119.000000 C 17433.333333 -147.000000 17509.000000 -180.333333 17595.000000 -219.000000 C 17681.666667 -258.333333 17774.000000 -300.000000 17872.000000 -344.000000 C 17970.000000 -388.666667 18068.333333 -433.333333 18167.000000 -478.000000 C 18171.000000 -460.000000 18175.000000 -442.000000 18179.000000 -424.000000 C 18086.333333 -382.000000 17992.666667 -339.000000 17898.000000 -295.000000 C 17803.333333 -251.666667 17712.333333 -210.000000 17625.000000 -170.000000 C 17538.333333 -130.666667 17460.333333 -95.666667 17391.000000 -65.000000 C 17383.333333 -83.000000 17375.666667 -101.000000 17368.000000 -119.000000z M 18547.000000 -451.000000 C 18561.666667 -460.666667 18576.333333 -470.333333 18591.000000 -480.000000 C 18638.333333 -435.333333 18687.333333 -387.666667 18738.000000 -337.000000 C 18788.666667 -286.333333 18838.333333 -235.000000 18887.000000 -183.000000 C 18935.666667 -131.666667 18980.666667 -82.333333 19022.000000 -35.000000 C 19064.000000 11.666667 19099.000000 53.333333 19127.000000 90.000000 C 19110.333333 102.333333 19093.666667 114.666667 19077.000000 127.000000 C 19049.000000 89.666667 19014.666667 47.333333 18974.000000 0.000000 C 18934.000000 -47.333333 18890.000000 -97.000000 18842.000000 -149.000000 C 18794.000000 -201.666667 18744.666667 -254.000000 18694.000000 -306.000000 C 18643.333333 -358.000000 18594.333333 -406.333333 18547.000000 -451.000000z M 18818.000000 -1507.000000 C 18837.333333 -1504.666667 18856.666667 -1502.333333 18876.000000 -1500.000000 C 18848.666667 -1273.333333 18812.333333 -1073.000000 18767.000000 -899.000000 C 18721.666667 -725.666667 18660.333333 -573.666667 18583.000000 -443.000000 C 18506.333333 -313.000000 18407.666667 -200.333333 18287.000000 -105.000000 C 18166.333333 -9.666667 18017.000000 72.666667 17839.000000 142.000000 C 17836.333333 138.000000 17832.000000 133.000000 17826.000000 127.000000 C 17820.666667 121.666667 17815.000000 116.333333 17809.000000 111.000000 C 17803.000000 106.333333 17797.666667 102.000000 17793.000000 98.000000 C 17971.666667 34.000000 18121.000000 -44.333333 18241.000000 -137.000000 C 18361.666667 -229.666667 18460.000000 -340.666667 18536.000000 -470.000000 C 18612.666667 -599.333333 18672.666667 -749.333333 18716.000000 -920.000000 C 18759.333333 -1091.333333 18793.333333 -1287.000000 18818.000000 -1507.000000z M 17616.000000 -1503.000000 C 17634.000000 -1503.666667 17652.000000 -1504.333333 17670.000000 -1505.000000 C 17678.333333 -1075.000000 17686.666667 -645.000000 17695.000000 -215.000000 C 17676.333333 -214.333333 17657.666667 -213.666667 17639.000000 -213.000000 C 17631.333333 -643.000000 17623.666667 -1073.000000 17616.000000 -1503.000000z "/>
</g></svg>
