<?xml version="1.0" ?>
<svg xmlns="http://www.w3.org/2000/svg" version="1.1" width="600" height="600">
  <defs/>
  <g>
    <path stroke-width="0" fill="rgb(0, 0, 0)" opacity="1.0" d="M 257.98046875 179.8243408203125 C 328.45068359375 179.8243408203125 398.92138671875 179.8243408203125 469.39111328125 179.8243408203125 C 469.39111328125 183.60809326171875 469.39111328125 187.39190673828125 469.39111328125 191.17568969726562 C 398.92138671875 191.17568969726562 328.45068359375 191.17568969726562 257.98046875 191.17568969726562 C 257.98046875 187.39190673828125 257.98046875 183.60809326171875 257.98046875 179.8243408203125M 270.5478515625 230.5 C 333.58544921875 230.5 396.6240234375 230.5 459.662109375 230.5 C 459.662109375 234.35134887695312 459.662109375 238.20269775390625 459.662109375 242.0540771484375 C 396.6240234375 242.0540771484375 333.58544921875 242.0540771484375 270.5478515625 242.0540771484375 C 270.5478515625 238.20269775390625 270.5478515625 234.35134887695312 270.5478515625 230.5M 249.46728515625 285.02703857421875 C 323.923828125 285.02703857421875 398.38037109375 285.02703857421875 472.8369140625 285.02703857421875 C 472.8369140625 288.87835693359375 472.8369140625 292.729736328125 472.8369140625 296.5810852050781 C 398.38037109375 296.5810852050781 323.923828125 296.5810852050781 249.46728515625 296.5810852050781 C 249.46728515625 292.729736328125 249.46728515625 288.87835693359375 249.46728515625 285.02703857421875M 420.74462890625 124.48648071289062 C 424.52783203125 126.17568969726562 428.31201171875 127.8648681640625 432.09521484375 129.55404663085938 C 427.90673828125 138.20269775390625 423.1767578125 147.0540771484375 417.90673828125 156.10812377929688 C 412.771484375 165.16217041015625 408.04248046875 172.93243408203125 403.71826171875 179.41891479492188 C 400.54248046875 178.1351318359375 397.36669921875 176.85134887695312 394.19140625 175.56756591796875 C 398.65087890625 168.810791015625 403.44775390625 160.43243408203125 408.5830078125 150.43243408203125 C 413.85302734375 140.43243408203125 417.90673828125 131.78378295898438 420.74462890625 124.48648071289062M 291.6279296875 129.95947265625 C 295.005859375 128.81082153320312 298.384765625 127.66217041015625 301.7626953125 126.51351928710938 C 306.626953125 133.81082153320312 311.42431640625 141.91891479492188 316.15380859375 150.83782958984375 C 321.0185546875 159.75674438476562 324.46435546875 167.3243408203125 326.4912109375 173.54055786132812 C 323.04541015625 175.229736328125 319.599609375 176.91891479492188 316.15380859375 178.60812377929688 C 313.9921875 172.12161254882812 310.61328125 164.28378295898438 306.01953125 155.0946044921875 C 301.5595703125 145.9053955078125 296.7626953125 137.52703857421875 291.6279296875 129.95947265625M 456.21630859375 317.66217041015625 C 459.32421875 319.8243408203125 462.43212890625 321.9864501953125 465.5400390625 324.148681640625 C 457.97265625 334.2838134765625 449.2568359375 344.4864501953125 439.392578125 354.75677490234375 C 429.5283203125 365.02703857421875 420.47412109375 373.9459228515625 412.2314453125 381.5135498046875 C 409.46142578125 379.4189453125 406.69091796875 377.3243408203125 403.9208984375 375.229736328125 C 409.46142578125 370.0946044921875 415.474609375 364.148681640625 421.96044921875 357.39190673828125 C 428.44677734375 350.6351318359375 434.73046875 343.7432861328125 440.8115234375 336.7161865234375 C 446.89208984375 329.689208984375 452.02734375 323.33782958984375 456.21630859375 317.66217041015625M 267.5068359375 324.5540771484375 C 270.3447265625 322.8648681640625 273.1826171875 321.1756591796875 276.0205078125 319.4864501953125 C 284.26318359375 327.5946044921875 292.3037109375 336.7161865234375 300.14111328125 346.851318359375 C 308.11376953125 356.9864501953125 314.05908203125 365.770263671875 317.97802734375 373.20269775390625 C 315.00537109375 375.29730224609375 312.0322265625 377.39190673828125 309.0595703125 379.4864501953125 C 304.87060546875 371.9189453125 298.857421875 363.0 291.01953125 352.729736328125 C 283.3173828125 342.3243408203125 275.47998046875 332.93243408203125 267.5068359375 324.5540771484375M 234.26513671875 445.3648681640625 C 247.2373046875 438.60809326171875 262.9130859375 430.02703857421875 281.2900390625 419.62158203125 C 299.80322265625 409.2161865234375 318.5185546875 398.4053955078125 337.43701171875 387.189208984375 C 338.58544921875 390.56756591796875 339.734375 393.9459228515625 340.8828125 397.3243408203125 C 323.5859375 407.729736328125 306.2216796875 418.0 288.7900390625 428.1351318359375 C 271.4931640625 438.270263671875 255.68310546875 447.3243408203125 241.359375 455.29730224609375 C 238.9951171875 451.9864501953125 236.6298828125 448.6756591796875 234.26513671875 445.3648681640625M 355.27392578125 187.93243408203125 C 359.0576171875 187.93243408203125 362.84130859375 187.93243408203125 366.625 187.93243408203125 C 366.625 277.189208984375 366.625 366.4459228515625 366.625 455.70269775390625 C 366.625 461.2432861328125 365.8818359375 465.29730224609375 364.3955078125 467.8648681640625 C 363.0439453125 470.43243408203125 360.4091796875 472.39190673828125 356.490234375 473.7432861328125 C 352.5712890625 474.689208984375 346.490234375 475.29730224609375 338.24755859375 475.56756591796875 C 330.0048828125 475.83782958984375 320.00537109375 475.97296142578125 308.2490234375 475.97296142578125 C 307.978515625 474.4864501953125 307.3701171875 472.39190673828125 306.4248046875 469.689208984375 C 305.61376953125 467.12158203125 304.66796875 464.95947265625 303.5869140625 463.20269775390625 C 314.26220703125 463.47296142578125 323.78857421875 463.60809326171875 332.1669921875 463.60809326171875 C 340.68017578125 463.60809326171875 346.220703125 463.47296142578125 348.78759765625 463.20269775390625 C 351.62548828125 462.93243408203125 353.38232421875 462.3243408203125 354.05810546875 461.37841796875 C 354.86865234375 460.56756591796875 355.27392578125 458.810791015625 355.27392578125 456.10809326171875 C 355.27392578125 366.7161865234375 355.27392578125 277.3243408203125 355.27392578125 187.93243408203125M 366.2197265625 311.7838134765625 C 372.7060546875 332.8648681640625 381.421875 352.5946044921875 392.3671875 370.97296142578125 C 403.31298828125 389.351318359375 416.2177734375 405.43243408203125 431.08203125 419.2161865234375 C 445.9462890625 433.0 462.36474609375 443.60809326171875 480.3369140625 451.04052734375 C 479.255859375 451.851318359375 478.1748046875 452.729736328125 477.09375 453.6756591796875 C 476.14794921875 454.7567138671875 475.20166015625 455.83782958984375 474.255859375 456.9189453125 C 473.31005859375 458.0 472.49951171875 459.0810546875 471.82373046875 460.16217041015625 C 454.12158203125 451.7838134765625 437.703125 440.43243408203125 422.56884765625 426.10809326171875 C 407.5693359375 411.648681640625 394.39404296875 394.95947265625 383.04345703125 376.04052734375 C 371.8271484375 357.12158203125 362.84130859375 336.7161865234375 356.0849609375 314.8243408203125 C 359.462890625 313.810791015625 362.84130859375 312.79730224609375 366.2197265625 311.7838134765625M 127.6474609375 212.8648681640625 C 169.0654296875 212.8648681640625 210.482421875 212.8648681640625 251.8994140625 212.8648681640625 C 251.8994140625 216.7838134765625 251.8994140625 220.70269775390625 251.8994140625 224.62164306640625 C 210.482421875 224.62164306640625 169.0654296875 224.62164306640625 127.6474609375 224.62164306640625 C 127.6474609375 220.70269775390625 127.6474609375 216.7838134765625 127.6474609375 212.8648681640625M 189.67236328125 124.48648071289062 C 193.388671875 124.48648071289062 197.1044921875 124.48648071289062 200.8203125 124.48648071289062 C 200.8203125 241.1756591796875 200.8203125 357.8648681640625 200.8203125 474.5540771484375 C 197.1044921875 474.5540771484375 193.388671875 474.5540771484375 189.67236328125 474.5540771484375 C 189.67236328125 357.8648681640625 189.67236328125 241.1756591796875 189.67236328125 124.48648071289062M 188.861328125 216.10809326171875 C 192.2392578125 217.12164306640625 195.6181640625 218.1351318359375 198.99609375 219.14865112304688 C 195.88818359375 234.68917846679688 191.7666015625 250.83782958984375 186.6318359375 267.5946044921875 C 181.6318359375 284.35137939453125 176.02392578125 300.83782958984375 169.80810546875 317.0540771484375 C 163.59228515625 333.270263671875 157.0380859375 348.270263671875 150.146484375 362.0540771484375 C 143.2548828125 375.70269775390625 136.43115234375 387.3243408203125 129.6748046875 396.9189453125 C 128.59375 395.70269775390625 127.107421875 394.2161865234375 125.21533203125 392.45947265625 C 123.458984375 390.56756591796875 121.97216796875 389.0810546875 120.755859375 388.0 C 127.5126953125 378.9459228515625 134.20166015625 367.79730224609375 140.82275390625 354.5540771484375 C 147.5791015625 341.310791015625 153.998046875 326.9189453125 160.0791015625 311.37835693359375 C 166.294921875 295.83782958984375 171.8349609375 279.89190673828125 176.69970703125 263.54052734375 C 181.69921875 247.189208984375 185.75341796875 231.37838745117188 188.861328125 216.10809326171875M 198.99609375 253.810791015625 C 201.2939453125 256.3783874511719 204.7392578125 261.10809326171875 209.333984375 268.0 C 214.0634765625 274.89190673828125 219.1982421875 282.39190673828125 224.73828125 290.5 C 230.4140625 298.47296142578125 235.548828125 305.9053955078125 240.1435546875 312.79730224609375 C 244.873046875 319.689208984375 248.1162109375 324.689208984375 249.87255859375 327.79730224609375 C 247.03515625 331.1756591796875 244.197265625 334.5540771484375 241.359375 337.93243408203125 C 239.33251953125 333.74322509765625 236.021484375 327.93243408203125 231.427734375 320.5 C 226.8330078125 313.06756591796875 221.96875 305.29730224609375 216.83349609375 297.189208984375 C 211.6982421875 289.0810852050781 206.833984375 281.5810852050781 202.2392578125 274.689208984375 C 197.64501953125 267.79730224609375 194.19921875 262.79730224609375 191.90185546875 259.689208984375 C 194.2666015625 257.729736328125 196.6318359375 255.770263671875 198.99609375 253.810791015625"/>
  </g>
</svg>
