<?xml version="1.0" ?>
<svg xmlns="http://www.w3.org/2000/svg" version="1.1" width="600" height="600">
  <defs/>
  <g>
    <path stroke-width="0" fill="rgb(0, 0, 0)" opacity="1.0" d="M 139.71981811523438 244.9310302734375 C 251.90921020507812 244.9310302734375 364.0986328125 244.9310302734375 476.28802490234375 244.9310302734375 C 476.28802490234375 248.862060546875 476.28802490234375 252.7930908203125 476.28802490234375 256.72412109375 C 364.0986328125 256.72412109375 251.90921020507812 256.72412109375 139.71981811523438 256.72412109375 C 139.71981811523438 252.7930908203125 139.71981811523438 248.862060546875 139.71981811523438 244.9310302734375M 170.33572387695312 173.75860595703125 C 246.32388305664062 173.75860595703125 322.3120422363281 173.75860595703125 398.3001708984375 173.75860595703125 C 398.3001708984375 177.62066650390625 398.3001708984375 181.48275756835938 398.3001708984375 185.34481811523438 C 322.3120422363281 185.34481811523438 246.32388305664062 185.34481811523438 170.33572387695312 185.34481811523438 C 170.33572387695312 181.48275756835938 170.33572387695312 177.62066650390625 170.33572387695312 173.75860595703125M 280.3875427246094 120.7930908203125 C 284.2490234375 120.7930908203125 288.1104736328125 120.7930908203125 291.971923828125 120.7930908203125 C 291.971923828125 163.96548461914062 291.971923828125 207.137939453125 291.971923828125 250.31033325195312 C 288.1104736328125 250.31033325195312 284.2490234375 250.31033325195312 280.3875427246094 250.31033325195312 C 280.3875427246094 207.137939453125 280.3875427246094 163.96548461914062 280.3875427246094 120.7930908203125M 424.57196044921875 290.4482727050781 C 427.743896484375 293.62066650390625 430.915771484375 296.7930908203125 434.08770751953125 299.96551513671875 C 418.50390625 304.24139404296875 399.8861083984375 308.17242431640625 378.234375 311.75860595703125 C 356.720458984375 315.3448486328125 334.1722412109375 318.586181640625 310.5897216796875 321.4827880859375 C 287.0072021484375 324.3792724609375 264.25213623046875 326.7930908203125 242.32452392578125 328.72412109375 C 242.0487060546875 327.3448486328125 241.4970703125 325.68963623046875 240.66958618164062 323.75860595703125 C 239.84213256835938 321.68963623046875 239.0836181640625 320.17242431640625 238.39410400390625 319.2069091796875 C 254.52947998046875 317.5517578125 271.216552734375 315.68963623046875 288.45526123046875 313.62066650390625 C 305.83184814453125 311.413818359375 322.9326171875 309.137939453125 339.757568359375 306.7930908203125 C 356.58258056640625 304.4482421875 372.30426025390625 301.89654541015625 386.922607421875 299.137939453125 C 401.678955078125 296.24139404296875 414.228759765625 293.3448181152344 424.57196044921875 290.4482727050781M 450.0162353515625 141.89654541015625 C 453.3260498046875 144.03448486328125 456.63592529296875 146.17239379882812 459.94573974609375 148.31033325195312 C 432.6396484375 179.62069702148438 401.47210693359375 208.24136352539062 366.443115234375 234.17242431640625 C 331.552001953125 260.10345458984375 294.31640625 283.4137878417969 254.73635864257812 304.10345458984375 C 215.15631103515625 324.6551513671875 174.74884033203125 342.6551513671875 133.51388549804688 358.10345458984375 C 132.96224975585938 357.0 132.13479614257812 355.82757568359375 131.03152465820312 354.586181640625 C 129.92822265625 353.2069091796875 128.75601196289062 351.89654541015625 127.51483154296875 350.6551513671875 C 126.41156005859375 349.27587890625 125.37722778320312 348.17242431640625 124.411865234375 347.3448486328125 C 166.47427368164062 332.72412109375 207.43341064453125 315.2069091796875 247.28924560546875 294.7930908203125 C 287.1451110839844 274.24139404296875 324.38067626953125 251.137939453125 358.9959716796875 225.48275756835938 C 393.7491455078125 199.68963623046875 424.0892333984375 171.82757568359375 450.0162353515625 141.89654541015625M 241.08331298828125 289.62066650390625 C 245.08270263671875 290.17242431640625 249.08209228515625 290.72412109375 253.08145141601562 291.27587890625 C 250.59906005859375 303.0 247.70297241210938 315.55169677734375 244.39315795898438 328.9310302734375 C 241.08331298828125 342.31036376953125 237.77349853515625 355.2069091796875 234.46365356445312 367.6207275390625 C 231.15383911132812 380.03448486328125 228.05087280273438 390.862060546875 225.15478515625 400.10345458984375 C 221.224365234375 399.4827880859375 217.2939453125 398.862060546875 213.36349487304688 398.24139404296875 C 216.53543090820312 388.862060546875 219.77630615234375 377.89654541015625 223.08612060546875 365.3448486328125 C 226.39596557617188 352.7930908203125 229.6368408203125 339.82757568359375 232.80874633789062 326.4482421875 C 235.98065185546875 313.0689697265625 238.73886108398438 300.7930908203125 241.08331298828125 289.62066650390625M 420.227783203125 367.2069091796875 C 424.296142578125 367.2069091796875 428.364501953125 367.2069091796875 432.43280029296875 367.2069091796875 C 432.43280029296875 367.2069091796875 432.36383056640625 367.68963623046875 432.2259521484375 368.6551513671875 C 432.2259521484375 369.4827880859375 432.2259521484375 370.5172119140625 432.2259521484375 371.75860595703125 C 432.2259521484375 373.0 432.0880126953125 373.96551513671875 431.81219482421875 374.6551513671875 C 428.6402587890625 395.6207275390625 425.537353515625 412.7930908203125 422.5032958984375 426.17242431640625 C 419.607177734375 439.5517578125 416.5042724609375 449.96551513671875 413.1944580078125 457.413818359375 C 409.88458251953125 465.0 406.1610107421875 470.6551513671875 402.02374267578125 474.3792724609375 C 398.98974609375 476.862060546875 395.74884033203125 478.4482421875 392.3011474609375 479.137939453125 C 388.9913330078125 479.96551513671875 384.50927734375 480.3792724609375 378.85498046875 480.3792724609375 C 373.33856201171875 480.6551513671875 364.92608642578125 480.586181640625 353.61749267578125 480.17242431640625 C 342.44683837890625 479.75860595703125 330.58660888671875 479.0689697265625 318.0368347167969 478.10345458984375 C 317.89892578125 476.72412109375 317.4851989746094 474.9310302734375 316.795654296875 472.72412109375 C 316.1061096191406 470.6551513671875 315.2096862792969 468.72412109375 314.1064147949219 466.9310302734375 C 327.62158203125 468.17242431640625 340.3092041015625 469.0 352.16943359375 469.413818359375 C 364.1676025390625 469.82757568359375 372.30426025390625 470.03448486328125 376.5794677734375 470.03448486328125 C 380.9925537109375 470.03448486328125 384.4403076171875 469.82757568359375 386.922607421875 469.413818359375 C 389.54296875 469.0 391.74951171875 468.03448486328125 393.54229736328125 466.5172119140625 C 398.9207763671875 461.96551513671875 403.6097412109375 452.5172119140625 407.60906982421875 438.17242431640625 C 411.746337890625 423.689697265625 415.95263671875 400.7930908203125 420.227783203125 369.4827880859375 C 420.227783203125 368.72412109375 420.227783203125 367.96551513671875 420.227783203125 367.2069091796875M 225.15478515625 367.2069091796875 C 291.9029846191406 367.2069091796875 358.65118408203125 367.2069091796875 425.3994140625 367.2069091796875 C 425.3994140625 371.137939453125 425.3994140625 375.0689697265625 425.3994140625 379.0 C 358.16851806640625 379.0 290.9376220703125 379.0 223.70672607421875 379.0 C 224.18939208984375 375.0689697265625 224.67208862304688 371.137939453125 225.15478515625 367.2069091796875"/>
  </g>
</svg>
