<?xml version="1.0" ?>
<svg xmlns="http://www.w3.org/2000/svg" version="1.1" width="600" height="600">
  <defs/>
  <g>
    <path stroke-width="0" fill="rgb(0, 0, 0)" opacity="1.0" d="M 127.9140625 256.89654541015625 C 244.861328125 256.89654541015625 361.80859375 256.89654541015625 478.755859375 256.89654541015625 C 478.755859375 260.75860595703125 478.755859375 264.62066650390625 478.755859375 268.4827575683594 C 361.80859375 268.4827575683594 244.861328125 268.4827575683594 127.9140625 268.4827575683594 C 127.9140625 264.62066650390625 127.9140625 260.75860595703125 127.9140625 256.89654541015625M 163.287841796875 179.10345458984375 C 240.999755859375 179.10345458984375 318.7119140625 179.10345458984375 396.423828125 179.10345458984375 C 396.423828125 182.96551513671875 396.423828125 186.82757568359375 396.423828125 190.68963623046875 C 318.7119140625 190.68963623046875 240.999755859375 190.68963623046875 163.287841796875 190.68963623046875 C 163.287841796875 186.82757568359375 163.287841796875 182.96551513671875 163.287841796875 179.10345458984375M 222.4510498046875 384.96551513671875 C 288.0269775390625 384.96551513671875 353.60302734375 384.96551513671875 419.178955078125 384.96551513671875 C 419.178955078125 388.89654541015625 419.178955078125 392.82757568359375 419.178955078125 396.75860595703125 C 353.60302734375 396.75860595703125 288.0269775390625 396.75860595703125 222.4510498046875 396.75860595703125 C 222.4510498046875 392.82757568359375 222.4510498046875 388.89654541015625 222.4510498046875 384.96551513671875M 222.4510498046875 454.0689697265625 C 288.0269775390625 454.0689697265625 353.60302734375 454.0689697265625 419.178955078125 454.0689697265625 C 419.178955078125 457.862060546875 419.178955078125 461.6551513671875 419.178955078125 465.4482421875 C 353.60302734375 465.4482421875 288.0269775390625 465.4482421875 222.4510498046875 465.4482421875 C 222.4510498046875 461.6551513671875 222.4510498046875 457.862060546875 222.4510498046875 454.0689697265625M 273.7532958984375 121.7930908203125 C 277.61474609375 121.7930908203125 281.476318359375 121.7930908203125 285.3377685546875 121.7930908203125 C 285.3377685546875 168.55172729492188 285.3377685546875 215.31033325195312 285.3377685546875 262.0689697265625 C 281.476318359375 262.0689697265625 277.61474609375 262.0689697265625 273.7532958984375 262.0689697265625 C 273.7532958984375 215.31033325195312 273.7532958984375 168.55172729492188 273.7532958984375 121.7930908203125M 446.8988037109375 137.72412109375 C 450.2086181640625 139.862060546875 453.5184326171875 141.99996948242188 456.8282470703125 144.13790893554688 C 429.7979736328125 177.51724243164062 398.9752197265625 208.3448486328125 364.35986328125 236.62066650390625 C 329.882568359375 264.75860595703125 292.99169921875 290.0689697265625 253.6875 312.55169677734375 C 214.38330078125 335.03448486328125 173.7689208984375 354.6207275390625 131.844482421875 371.310302734375 C 131.4306640625 370.3448486328125 130.603271484375 369.24139404296875 129.362060546875 368.0 C 128.120849609375 366.75860595703125 126.879638671875 365.5172119140625 125.6385498046875 364.27587890625 C 124.53515625 362.89654541015625 123.4320068359375 361.7930908203125 122.3287353515625 360.96551513671875 C 165.08056640625 345.10345458984375 206.3155517578125 326.0 246.0335693359375 303.6551513671875 C 285.75146484375 281.3103332519531 322.711181640625 256.2069091796875 356.912841796875 228.34481811523438 C 391.2523193359375 200.34481811523438 421.24755859375 170.13790893554688 446.8988037109375 137.72412109375M 216.451904296875 320.413818359375 C 286.5098876953125 320.413818359375 356.568115234375 320.413818359375 426.6260986328125 320.413818359375 C 426.6260986328125 373.03448486328125 426.6260986328125 425.6551513671875 426.6260986328125 478.27587890625 C 422.6956787109375 478.27587890625 418.7652587890625 478.27587890625 414.8348388671875 478.27587890625 C 414.8348388671875 429.5172119140625 414.8348388671875 380.75860595703125 414.8348388671875 332.0 C 352.70654296875 332.0 290.578369140625 332.0 228.4500732421875 332.0 C 228.4500732421875 381.24139404296875 228.4500732421875 430.4827880859375 228.4500732421875 479.72412109375 C 224.45068359375 479.72412109375 220.4512939453125 479.72412109375 216.451904296875 479.72412109375 C 216.451904296875 426.6207275390625 216.451904296875 373.5172119140625 216.451904296875 320.413818359375"/>
  </g>
</svg>
