<?xml version="1.0" ?>
<svg xmlns="http://www.w3.org/2000/svg" version="1.1" width="600" height="600">
  <defs/>
  <g>
    <path stroke-width="0" fill="rgb(0, 0, 0)" opacity="1.0" d="M 150.66299438476562 261.19354248046875 C 150.5303955078125 261.4566650390625 150.3812255859375 261.9500732421875 150.2154541015625 262.673583984375 C 150.0828857421875 263.397216796875 149.95028686523438 264.03857421875 149.81768798828125 264.59771728515625 C 149.38674926757812 266.9329833984375 148.92263793945312 270.15625 148.4254150390625 274.267578125 C 147.96133422851562 278.37890625 147.56353759765625 282.8848876953125 147.2320556640625 287.78558349609375 C 146.9337158203125 292.686279296875 146.7845458984375 297.5047607421875 146.7845458984375 302.240966796875 C 146.7845458984375 305.3984375 147.03314208984375 308.7862548828125 147.5303955078125 312.4041748046875 C 148.02761840820312 315.9892578125 148.69061279296875 319.508544921875 149.51934814453125 322.9620361328125 C 150.34805297851562 326.3826904296875 151.20993041992188 329.474365234375 152.10498046875 332.2371826171875 C 151.14364624023438 332.56610107421875 150.18231201171875 332.89501953125 149.22100830078125 333.223876953125 C 148.359130859375 330.3624267578125 147.5303955078125 327.1556396484375 146.73480224609375 323.6033935546875 C 145.939208984375 320.018310546875 145.29281616210938 316.3345947265625 144.79559326171875 312.55218505859375 C 144.33148193359375 308.769775390625 144.09945678710938 305.201171875 144.09945678710938 301.8463134765625 C 144.09945678710938 298.4256591796875 144.19888305664062 294.9063720703125 144.39779663085938 291.2884521484375 C 144.62982177734375 287.67047119140625 144.91159057617188 284.15118408203125 145.24310302734375 280.7305908203125 C 145.60772705078125 277.3099365234375 145.939208984375 274.2017822265625 146.23757934570312 271.40606689453125 C 146.53591918945312 268.5775146484375 146.7679443359375 266.2916259765625 146.9337158203125 264.54840087890625 C 147.0 263.759033203125 147.04971313476562 263.06829833984375 147.0828857421875 262.476318359375 C 147.11602783203125 261.88427734375 147.13259887695312 261.42376708984375 147.13259887695312 261.0948486328125 C 148.30938720703125 261.12774658203125 149.48617553710938 261.16064453125 150.66299438476562 261.19354248046875M 136.93923950195312 274.16888427734375 C 142.07733154296875 274.16888427734375 147.447509765625 273.98797607421875 153.04971313476562 273.626220703125 C 158.65191650390625 273.23150634765625 164.05523681640625 272.7216796875 169.25967407226562 272.0968017578125 C 174.49725341796875 271.47186279296875 179.08837890625 270.748291015625 183.03314208984375 269.926025390625 C 183.0662841796875 270.9620361328125 183.09945678710938 271.99810791015625 183.13259887695312 273.0341796875 C 179.51934814453125 273.626220703125 175.74032592773438 274.1524658203125 171.79559326171875 274.6129150390625 C 167.88397216796875 275.0733642578125 163.92263793945312 275.4844970703125 159.91159057617188 275.8463134765625 C 155.9337158203125 276.2081298828125 151.98895263671875 276.4876708984375 148.07733154296875 276.68499755859375 C 144.19888305664062 276.8494873046875 140.51934814453125 276.93170166015625 137.03866577148438 276.93170166015625 C 136.01104736328125 276.93170166015625 134.60220336914062 276.8988037109375 132.81216430664062 276.8330078125 C 131.0220947265625 276.7672119140625 129.2320556640625 276.68499755859375 127.44198608398438 276.5863037109375 C 125.68508911132812 276.4876708984375 124.22653198242188 276.421875 123.0662841796875 276.3890380859375 C 123.03314208984375 275.270751953125 123.0 274.1524658203125 122.96685791015625 273.0341796875 C 124.06076049804688 273.23150634765625 125.552490234375 273.4288330078125 127.44198608398438 273.626220703125 C 129.3646240234375 273.823486328125 131.23757934570312 273.9715576171875 133.06076049804688 274.0701904296875 C 134.88397216796875 274.135986328125 136.17678833007812 274.16888427734375 136.93923950195312 274.16888427734375M 175.32595825195312 282.50665283203125 C 175.193359375 282.769775390625 175.07733154296875 283.04931640625 174.9779052734375 283.3453369140625 C 174.87844848632812 283.6085205078125 174.76242065429688 283.8880615234375 174.62982177734375 284.18408203125 C 174.49725341796875 284.4801025390625 174.3646240234375 284.8089599609375 174.2320556640625 285.1707763671875 C 172.2762451171875 291.12396240234375 169.955810546875 296.6002197265625 167.27072143554688 301.599609375 C 164.6187744140625 306.56610107421875 161.68508911132812 311.0391845703125 158.4696044921875 315.01898193359375 C 155.254150390625 318.99871826171875 151.82321166992188 322.435791015625 148.17678833007812 325.3302001953125 C 145.1270751953125 327.731201171875 141.96133422851562 329.62237548828125 138.6795654296875 331.0037841796875 C 135.39779663085938 332.352294921875 132.46408081054688 333.02655029296875 129.87844848632812 333.02655029296875 C 128.0220947265625 333.02655029296875 126.34805297851562 332.6483154296875 124.85635375976562 331.891845703125 C 123.36465454101562 331.1353759765625 122.20440673828125 330.01708984375 121.37570190429688 328.5369873046875 C 120.54696655273438 327.0240478515625 120.13259887695312 325.1986083984375 120.13259887695312 323.06072998046875 C 120.13259887695312 319.9031982421875 120.8287353515625 316.7950439453125 122.22100830078125 313.7362060546875 C 123.61325073242188 310.67742919921875 125.50274658203125 307.7830810546875 127.88949584960938 305.0531005859375 C 130.2762451171875 302.290283203125 132.9779052734375 299.823486328125 135.99447631835938 297.6527099609375 C 139.044189453125 295.4490966796875 142.22650146484375 293.689453125 145.54144287109375 292.373779296875 C 148.7237548828125 291.12396240234375 152.07180786132812 290.1536865234375 155.58563232421875 289.4630126953125 C 159.13259887695312 288.7393798828125 162.19888305664062 288.37762451171875 164.7845458984375 288.37762451171875 C 170.9171142578125 288.37762451171875 176.0220947265625 289.43011474609375 180.09945678710938 291.53509521484375 C 184.20993041992188 293.607177734375 187.30938720703125 296.337158203125 189.39779663085938 299.724853515625 C 191.51934814453125 303.112548828125 192.58010864257812 306.763427734375 192.58010864257812 310.67742919921875 C 192.58010864257812 314.065185546875 191.9337158203125 317.27197265625 190.640869140625 320.29791259765625 C 189.3812255859375 323.29095458984375 187.45855712890625 326.00439453125 184.8729248046875 328.4383544921875 C 182.3204345703125 330.83935546875 179.10498046875 332.8785400390625 175.22650146484375 334.55596923828125 C 171.34805297851562 336.2333984375 166.7900390625 337.51611328125 161.552490234375 338.4041748046875 C 160.955810546875 337.51611328125 160.359130859375 336.6280517578125 159.76242065429688 335.74005126953125 C 165.09945678710938 335.180908203125 170.0220947265625 333.8817138671875 174.5303955078125 331.842529296875 C 179.07183837890625 329.7703857421875 182.71823120117188 326.958251953125 185.4696044921875 323.40606689453125 C 188.254150390625 319.821044921875 189.64642333984375 315.5123291015625 189.64642333984375 310.4801025390625 C 189.64642333984375 306.99365234375 188.68508911132812 303.7703857421875 186.76242065429688 300.81024169921875 C 184.83978271484375 297.85009765625 182.07180786132812 295.4490966796875 178.45855712890625 293.607177734375 C 174.87844848632812 291.765380859375 170.48617553710938 290.8443603515625 165.28176879882812 290.8443603515625 C 161.60220336914062 290.8443603515625 158.05523681640625 291.30487060546875 154.640869140625 292.225830078125 C 151.22650146484375 293.146728515625 148.24310302734375 294.14990234375 145.69061279296875 295.23529052734375 C 141.6795654296875 296.87982177734375 137.96685791015625 299.1986083984375 134.552490234375 302.191650390625 C 131.1712646484375 305.1846923828125 128.43646240234375 308.50665283203125 126.34805297851562 312.157470703125 C 124.29281616210938 315.77545166015625 123.26519775390625 319.409912109375 123.26519775390625 323.06072998046875 C 123.26519775390625 325.39599609375 123.84530639648438 327.13916015625 125.00552368164062 328.290283203125 C 126.19888305664062 329.4085693359375 127.7900390625 329.9677734375 129.77899169921875 329.9677734375 C 132.26519775390625 329.9677734375 134.98342895507812 329.39215087890625 137.9337158203125 328.240966796875 C 140.88397216796875 327.056884765625 143.98342895507812 325.1492919921875 147.2320556640625 322.51806640625 C 152.27072143554688 318.3409423828125 156.92816162109375 313.16064453125 161.20440673828125 306.97723388671875 C 165.5137939453125 300.7938232421875 168.87844848632812 293.2783203125 171.29833984375 284.43072509765625 C 171.36465454101562 284.101806640625 171.43093872070312 283.8057861328125 171.49722290039062 283.542724609375 C 171.56353759765625 283.2467041015625 171.62982177734375 282.9342041015625 171.69613647460938 282.6053466796875 C 171.79559326171875 282.2435302734375 171.84530639648438 281.898193359375 171.84530639648438 281.56927490234375 C 173.00552368164062 281.8817138671875 174.16574096679688 282.1942138671875 175.32595825195312 282.50665283203125"/>
    <path stroke-width="0" fill="rgb(0, 0, 0)" opacity="1.0" d="M 274.4751281738281 262.624267578125 C 274.4419860839844 263.11767578125 274.4088439941406 263.759033203125 274.37567138671875 264.54840087890625 C 274.342529296875 265.30487060546875 274.3259582519531 266.2093505859375 274.3259582519531 267.2618408203125 C 274.3259582519531 267.82098388671875 274.342529296875 268.77484130859375 274.37567138671875 270.12335205078125 C 274.4088439941406 271.43896484375 274.4419860839844 272.9683837890625 274.4751281738281 274.7115478515625 C 274.54144287109375 276.45477294921875 274.5911560058594 278.247314453125 274.6242980957031 280.08917236328125 C 274.657470703125 281.898193359375 274.69061279296875 283.592041015625 274.7237548828125 285.1707763671875 C 274.75689697265625 286.74951171875 274.77349853515625 288.0487060546875 274.77349853515625 289.06829833984375 C 274.77349853515625 294.36370849609375 274.7237548828125 299.39593505859375 274.6242980957031 304.16510009765625 C 274.52484130859375 308.9342041015625 273.9613037109375 313.42376708984375 272.9337158203125 317.6337890625 C 271.939208984375 321.8109130859375 270.03314208984375 325.7083740234375 267.2154541015625 329.326416015625 C 264.4309387207031 332.91143798828125 260.37017822265625 336.1676025390625 255.03314208984375 339.0948486328125 C 254.07183837890625 338.3548583984375 253.1104736328125 337.61480712890625 252.149169921875 336.874755859375 C 253.30938720703125 336.4471435546875 254.56906127929688 335.8387451171875 255.92816162109375 335.04931640625 C 257.28729248046875 334.25994873046875 258.48065185546875 333.4541015625 259.50830078125 332.6318359375 C 262.8232116699219 330.09930419921875 265.342529296875 327.369384765625 267.0662841796875 324.442138671875 C 268.82318115234375 321.514892578125 270.0497131347656 318.2916259765625 270.745849609375 314.7723388671875 C 271.47515869140625 311.2200927734375 271.8729248046875 307.32257080078125 271.939208984375 303.0797119140625 C 272.0386657714844 298.8367919921875 272.08837890625 294.1663818359375 272.08837890625 289.06829833984375 C 272.08837890625 287.78558349609375 272.05523681640625 286.07525634765625 271.98895263671875 283.9373779296875 C 271.955810546875 281.79949951171875 271.8894958496094 279.579345703125 271.7900390625 277.27703857421875 C 271.69061279296875 274.9747314453125 271.60772705078125 272.902587890625 271.54144287109375 271.06072998046875 C 271.47515869140625 269.2188720703125 271.4088134765625 267.9854736328125 271.342529296875 267.36053466796875 C 271.2762451171875 266.3409423828125 271.16021728515625 265.4693603515625 270.9944763183594 264.7457275390625 C 270.86187744140625 264.02215576171875 270.7292785644531 263.31500244140625 270.5966796875 262.624267578125 C 271.8894958496094 262.624267578125 273.18231201171875 262.624267578125 274.4751281738281 262.624267578125M 242.4033203125 283.2960205078125 C 243.62982177734375 283.46044921875 245.1712646484375 283.641357421875 247.02761840820312 283.8387451171875 C 248.9171142578125 284.0360107421875 250.90606689453125 284.18408203125 252.99447631835938 284.28271484375 C 255.11602783203125 284.38140869140625 257.0386657714844 284.43072509765625 258.7624206542969 284.43072509765625 C 262.50830078125 284.43072509765625 266.2707214355469 284.33203125 270.0497131347656 284.134765625 C 273.8287353515625 283.9373779296875 277.52484130859375 283.6085205078125 281.13812255859375 283.14801025390625 C 284.7845153808594 282.6546630859375 288.2320556640625 281.98040771484375 291.48065185546875 281.125244140625 C 291.48065185546875 282.1612548828125 291.48065185546875 283.19732666015625 291.48065185546875 284.2333984375 C 288.3646240234375 284.8582763671875 284.9833984375 285.4010009765625 281.3370056152344 285.8614501953125 C 277.7237548828125 286.2890625 273.99444580078125 286.60150146484375 270.149169921875 286.798828125 C 266.3038635253906 286.96331787109375 262.47515869140625 287.0455322265625 258.6629638671875 287.0455322265625 C 257.0055236816406 287.0455322265625 255.11602783203125 287.029052734375 252.99447631835938 286.9962158203125 C 250.90606689453125 286.930419921875 248.9171142578125 286.84820556640625 247.02761840820312 286.74951171875 C 245.1712646484375 286.65087890625 243.62982177734375 286.5357666015625 242.4033203125 286.4041748046875 C 242.4033203125 285.3681640625 242.4033203125 284.33203125 242.4033203125 283.2960205078125M 225.447509765625 263.857666015625 C 225.31491088867188 264.41680908203125 225.149169921875 265.1075439453125 224.95025634765625 265.9298095703125 C 224.75137329101562 266.7520751953125 224.552490234375 267.5743408203125 224.35357666015625 268.3966064453125 C 223.4254150390625 272.63946533203125 222.58010864257812 277.1290283203125 221.81768798828125 281.865234375 C 221.05523681640625 286.60150146484375 220.49169921875 291.4693603515625 220.1270751953125 296.46868896484375 C 219.76242065429688 301.4351806640625 219.72927856445312 306.4345703125 220.02761840820312 311.466796875 C 220.32595825195312 316.4990234375 221.07183837890625 321.4326171875 222.26519775390625 326.267578125 C 222.96133422851562 323.70208740234375 223.82318115234375 320.8077392578125 224.850830078125 317.58447265625 C 225.87844848632812 314.3612060546875 226.90606689453125 311.2694091796875 227.9337158203125 308.309326171875 C 228.66299438476562 308.6875 229.39227294921875 309.0657958984375 230.12155151367188 309.44403076171875 C 229.52484130859375 311.08856201171875 228.8287353515625 313.14422607421875 228.03314208984375 315.6109619140625 C 227.237548828125 318.044921875 226.47512817382812 320.429443359375 225.745849609375 322.76470947265625 C 225.01657104492188 325.0999755859375 224.50274658203125 326.9417724609375 224.20440673828125 328.290283203125 C 224.07180786132812 328.915283203125 223.97235107421875 329.57305908203125 223.90606689453125 330.2637939453125 C 223.83978271484375 330.9544677734375 223.83978271484375 331.579345703125 223.90606689453125 332.1385498046875 C 223.97235107421875 332.5989990234375 224.03866577148438 333.0594482421875 224.10498046875 333.5198974609375 C 224.1712646484375 333.947509765625 224.23757934570312 334.309326171875 224.30386352539062 334.6053466796875 C 223.50830078125 334.769775390625 222.71270751953125 334.9342041015625 221.9171142578125 335.0986328125 C 221.3204345703125 333.125244140625 220.657470703125 330.609130859375 219.92816162109375 327.55029296875 C 219.19888305664062 324.491455078125 218.56906127929688 321.0872802734375 218.03866577148438 317.3377685546875 C 217.54144287109375 313.5882568359375 217.29281616210938 309.7236328125 217.29281616210938 305.74383544921875 C 217.29281616210938 300.6129150390625 217.55801391601562 295.6793212890625 218.08837890625 290.943115234375 C 218.65191650390625 286.20684814453125 219.26519775390625 281.84881591796875 219.92816162109375 277.86907958984375 C 220.59115600585938 273.8892822265625 221.08837890625 270.58380126953125 221.41989135742188 267.95257568359375 C 221.552490234375 267.06451416015625 221.65191650390625 266.2093505859375 221.71823120117188 265.3870849609375 C 221.78451538085938 264.5648193359375 221.81768798828125 263.89056396484375 221.81768798828125 263.36431884765625 C 223.02761840820312 263.52880859375 224.23757934570312 263.6932373046875 225.447509765625 263.857666015625"/>
    <path stroke-width="0" fill="rgb(0, 0, 0)" opacity="1.0" d="M 352.8895263671875 262.42694091796875 C 352.75689697265625 263.11767578125 352.60772705078125 264.120849609375 352.4420166015625 265.4364013671875 C 352.2762451171875 266.71917724609375 352.1436767578125 267.9031982421875 352.044189453125 268.9886474609375 C 351.580078125 272.3763427734375 351.11602783203125 275.81341552734375 350.65191650390625 279.2998046875 C 350.22100830078125 282.78619384765625 349.62432861328125 286.3055419921875 348.86187744140625 289.857666015625 C 348.09942626953125 293.376953125 347.05523681640625 296.9620361328125 345.729248046875 300.6129150390625 C 344.13812255859375 304.92156982421875 342.33148193359375 308.96710205078125 340.30938720703125 312.74951171875 C 338.3204345703125 316.531982421875 336.18231201171875 319.870361328125 333.89501953125 322.76470947265625 C 331.60772705078125 325.626220703125 329.13812255859375 327.86273193359375 326.4862060546875 329.474365234375 C 323.834228515625 331.0860595703125 321.0496826171875 331.891845703125 318.132568359375 331.891845703125 C 316.2099609375 331.891845703125 314.50274658203125 331.34912109375 313.01104736328125 330.2637939453125 C 311.51934814453125 329.1783447265625 310.342529296875 327.69830322265625 309.48065185546875 325.823486328125 C 308.6187744140625 323.9158935546875 308.1878356933594 321.69580078125 308.1878356933594 319.1632080078125 C 308.1878356933594 314.755859375 308.8674011230469 310.69384765625 310.22650146484375 306.97723388671875 C 311.6187744140625 303.2276611328125 313.39227294921875 299.80712890625 315.54693603515625 296.71533203125 C 317.0718078613281 294.3143310546875 319.0607604980469 291.89691162109375 321.5137939453125 289.4630126953125 C 323.96685791015625 286.9962158203125 326.850830078125 284.72674560546875 330.165771484375 282.6546630859375 C 333.48065185546875 280.5496826171875 337.193359375 278.85577392578125 341.3038330078125 277.57305908203125 C 345.447509765625 276.2574462890625 350.0054931640625 275.599609375 354.9779052734375 275.599609375 C 358.4254150390625 275.599609375 361.7403564453125 276.1751708984375 364.922607421875 277.326416015625 C 368.10498046875 278.44464111328125 370.955810546875 280.1055908203125 373.47509765625 282.309326171875 C 376.027587890625 284.4801025390625 378.0496826171875 287.19354248046875 379.54144287109375 290.44970703125 C 381.0662841796875 293.70587158203125 381.8287353515625 297.43896484375 381.8287353515625 301.64892578125 C 381.8287353515625 306.7799072265625 381.3812255859375 311.38458251953125 380.4862060546875 315.4630126953125 C 379.5911865234375 319.508544921875 378.2320556640625 322.99493408203125 376.4088134765625 325.9222412109375 C 374.58563232421875 328.8165283203125 372.31494140625 331.020263671875 369.5966796875 332.533203125 C 366.91162109375 334.046142578125 363.762451171875 334.8026123046875 360.149169921875 334.8026123046875 C 356.07183837890625 334.8026123046875 352.8563232421875 333.8323974609375 350.50274658203125 331.891845703125 C 348.149169921875 329.91839599609375 346.97235107421875 327.320068359375 346.97235107421875 324.0968017578125 C 346.97235107421875 322.0904541015625 347.552490234375 320.281494140625 348.71270751953125 318.6697998046875 C 349.90606689453125 317.0582275390625 351.5303955078125 315.7918701171875 353.58563232421875 314.8709716796875 C 355.67401123046875 313.9500732421875 358.01104736328125 313.48956298828125 360.5966796875 313.48956298828125 C 364.1104736328125 313.48956298828125 367.342529296875 314.0487060546875 370.2928466796875 315.1669921875 C 373.24310302734375 316.25238037109375 375.92822265625 317.6337890625 378.3480224609375 319.3111572265625 C 380.7679443359375 320.9886474609375 382.90606689453125 322.7318115234375 384.762451171875 324.540771484375 C 386.6187744140625 326.34979248046875 388.1767578125 327.9779052734375 389.43646240234375 329.425048828125 C 388.7403564453125 330.296630859375 388.044189453125 331.168212890625 387.3480224609375 332.03985595703125 C 386.12158203125 330.52685546875 384.61328125 328.86590576171875 382.8232421875 327.056884765625 C 381.0662841796875 325.215087890625 379.060791015625 323.4554443359375 376.806640625 321.7779541015625 C 374.552490234375 320.1005859375 372.0662841796875 318.735595703125 369.3480224609375 317.68310546875 C 366.62982177734375 316.59771728515625 363.71270751953125 316.0550537109375 360.5966796875 316.0550537109375 C 356.9171142578125 316.0550537109375 354.149169921875 316.91015625 352.2928466796875 318.6204833984375 C 350.4696044921875 320.330810546875 349.5579833984375 322.12335205078125 349.5579833984375 323.99810791015625 C 349.5579833984375 326.39910888671875 350.4862060546875 328.37255859375 352.342529296875 329.91839599609375 C 354.2320556640625 331.4642333984375 356.834228515625 332.2371826171875 360.149169921875 332.2371826171875 C 363.762451171875 332.2371826171875 366.77899169921875 331.4149169921875 369.1988525390625 329.7703857421875 C 371.6187744140625 328.093017578125 373.54144287109375 325.823486328125 374.96685791015625 322.9620361328125 C 376.3922119140625 320.06768798828125 377.419921875 316.7950439453125 378.0496826171875 313.14422607421875 C 378.71270751953125 309.46044921875 379.044189453125 305.66162109375 379.044189453125 301.74761962890625 C 379.044189453125 298.9190673828125 378.5469970703125 296.10693359375 377.552490234375 293.3111572265625 C 376.5579833984375 290.48260498046875 375.0496826171875 287.93359375 373.027587890625 285.66412353515625 C 371.0386962890625 283.3946533203125 368.535888671875 281.585693359375 365.519287109375 280.2371826171875 C 362.50274658203125 278.85577392578125 358.955810546875 278.16510009765625 354.87841796875 278.16510009765625 C 349.60772705078125 278.16510009765625 344.6353759765625 279.0037841796875 339.9613037109375 280.68121337890625 C 335.28729248046875 282.358642578125 331.044189453125 284.7103271484375 327.2320556640625 287.7362060546875 C 323.4530029296875 290.76220703125 320.22100830078125 294.330810546875 317.535888671875 298.442138671875 C 316.01104736328125 300.8431396484375 314.7513732910156 303.16192626953125 313.75689697265625 305.3984375 C 312.7955627441406 307.635009765625 312.0662841796875 309.87158203125 311.5690612792969 312.108154296875 C 311.10498046875 314.31182861328125 310.8729248046875 316.630615234375 310.8729248046875 319.06451416015625 C 310.8729248046875 322.1890869140625 311.65191650390625 324.6558837890625 313.2099609375 326.46490478515625 C 314.7679443359375 328.240966796875 316.37567138671875 329.1290283203125 318.03314208984375 329.1290283203125 C 320.51934814453125 329.1290283203125 322.939208984375 328.3890380859375 325.2928466796875 326.908935546875 C 327.64642333984375 325.4288330078125 329.9005126953125 323.34033203125 332.05523681640625 320.64324951171875 C 334.24310302734375 317.913330078125 336.31488037109375 314.7393798828125 338.27069091796875 311.1214599609375 C 340.2596435546875 307.4705810546875 342.0496826171875 303.4908447265625 343.640869140625 299.18212890625 C 344.70166015625 296.2220458984375 345.5966796875 292.9822998046875 346.325927734375 289.4630126953125 C 347.05523681640625 285.91082763671875 347.6353759765625 282.3914794921875 348.0662841796875 278.9051513671875 C 348.5303955078125 275.3858642578125 348.89501953125 272.22833251953125 349.16021728515625 269.4326171875 C 349.29278564453125 268.24853515625 349.359130859375 267.097412109375 349.359130859375 265.9791259765625 C 349.359130859375 264.82794189453125 349.29278564453125 263.578125 349.16021728515625 262.2296142578125 C 350.4033203125 262.29541015625 351.64642333984375 262.36114501953125 352.8895263671875 262.42694091796875M 316.7900390625 271.35675048828125 C 317.41986083984375 274.05377197265625 318.2486267089844 276.9481201171875 319.2762451171875 280.03985595703125 C 320.3038330078125 283.131591796875 321.3812255859375 286.157470703125 322.50830078125 289.11767578125 C 323.66851806640625 292.044921875 324.745849609375 294.741943359375 325.7403564453125 297.208740234375 C 326.7679443359375 299.675537109375 327.62982177734375 301.6654052734375 328.325927734375 303.1783447265625 C 329.28729248046875 305.25048828125 330.5303955078125 307.6021728515625 332.05523681640625 310.2333984375 C 333.580078125 312.8646240234375 335.10498046875 315.11767578125 336.62982177734375 316.992431640625 C 336.132568359375 317.71600341796875 335.6353759765625 318.4395751953125 335.13812255859375 319.1632080078125 C 334.1104736328125 317.9791259765625 333.0 316.5155029296875 331.806640625 314.7723388671875 C 330.6463623046875 313.029052734375 329.569091796875 311.2694091796875 328.5745849609375 309.49334716796875 C 327.580078125 307.68438720703125 326.73480224609375 306.0562744140625 326.0386962890625 304.609130859375 C 325.2099609375 302.701416015625 324.1988525390625 300.31689453125 323.0054931640625 297.4554443359375 C 321.84527587890625 294.56103515625 320.70166015625 291.6173095703125 319.5745849609375 288.624267578125 C 318.48065185546875 285.6312255859375 317.58563232421875 283.0657958984375 316.8894958496094 280.9278564453125 C 316.5580139160156 279.7767333984375 316.2099609375 278.69134521484375 315.84527587890625 277.6717529296875 C 315.5137939453125 276.6192626953125 315.1657409667969 275.64892578125 314.80108642578125 274.76092529296875 C 314.4696044921875 273.87286376953125 314.1546936035156 273.08349609375 313.8563537597656 272.392822265625 C 314.834228515625 272.04742431640625 315.8121643066406 271.70208740234375 316.7900390625 271.35675048828125"/>
    <path stroke-width="0" fill="rgb(0, 0, 0)" opacity="1.0" d="M 412.2596435546875 270.46868896484375 C 412.193359375 270.8634033203125 412.1270751953125 271.4554443359375 412.060791015625 272.2447509765625 C 411.99444580078125 273.0341796875 411.9447021484375 273.8892822265625 411.91162109375 274.81024169921875 C 411.87841796875 275.731201171875 411.8287353515625 276.56988525390625 411.762451171875 277.326416015625 C 411.729248046875 279.201171875 411.71270751953125 281.5198974609375 411.71270751953125 284.28271484375 C 411.745849609375 287.01263427734375 411.8287353515625 289.93994140625 411.9613037109375 293.06451416015625 C 412.0938720703125 296.15625 412.2928466796875 299.1492919921875 412.5579833984375 302.04364013671875 C 413.1878662109375 308.02972412109375 414.26519775390625 313.25933837890625 415.7900390625 317.732421875 C 417.31494140625 322.17266845703125 419.1546630859375 325.6097412109375 421.30938720703125 328.04364013671875 C 423.4971923828125 330.4775390625 425.867431640625 331.6944580078125 428.419921875 331.6944580078125 C 429.6795654296875 331.6944580078125 430.939208984375 331.201171875 432.1988525390625 330.21441650390625 C 433.49169921875 329.2276611328125 434.71820068359375 327.8463134765625 435.87841796875 326.0701904296875 C 437.07177734375 324.26123046875 438.18231201171875 322.1397705078125 439.2099609375 319.70587158203125 C 440.270751953125 317.27197265625 441.18231201171875 314.6407470703125 441.9447021484375 311.8121337890625 C 442.7403564453125 312.469970703125 443.535888671875 313.1278076171875 444.33148193359375 313.78558349609375 C 442.60772705078125 318.94940185546875 440.834228515625 323.06072998046875 439.01104736328125 326.1195068359375 C 437.220947265625 329.1455078125 435.430908203125 331.3162841796875 433.640869140625 332.6318359375 C 431.850830078125 333.947509765625 430.077392578125 334.6053466796875 428.3204345703125 334.6053466796875 C 425.834228515625 334.6053466796875 423.33148193359375 333.56927490234375 420.8121337890625 331.4971923828125 C 418.2928466796875 329.425048828125 416.07177734375 326.037353515625 414.149169921875 321.333984375 C 412.2596435546875 316.630615234375 410.867431640625 310.33203125 409.972412109375 302.4383544921875 C 409.7071533203125 299.8399658203125 409.49169921875 296.94561767578125 409.325927734375 293.7552490234375 C 409.193359375 290.5648193359375 409.09393310546875 287.5059814453125 409.027587890625 284.5787353515625 C 408.9613037109375 281.61859130859375 408.92816162109375 279.2833251953125 408.92816162109375 277.57305908203125 C 408.92816162109375 276.7178955078125 408.91162109375 275.4844970703125 408.87841796875 273.87286376953125 C 408.8453369140625 272.26123046875 408.6961669921875 271.0771484375 408.430908203125 270.3206787109375 C 409.7071533203125 270.3699951171875 410.9833984375 270.41937255859375 412.2596435546875 270.46868896484375M 463.922607421875 273.626220703125 C 465.5137939453125 275.829833984375 467.0386962890625 278.247314453125 468.4971923828125 280.8785400390625 C 469.955810546875 283.4769287109375 471.29833984375 286.2725830078125 472.52484130859375 289.265625 C 473.7845458984375 292.225830078125 474.91162109375 295.3175048828125 475.90606689453125 298.540771484375 C 476.9337158203125 301.7640380859375 477.7955322265625 305.069580078125 478.49169921875 308.457275390625 C 479.220947265625 311.8121337890625 479.7679443359375 315.265625 480.132568359375 318.81787109375 C 479.20440673828125 319.22900390625 478.2762451171875 319.64013671875 477.3480224609375 320.05126953125 C 476.9171142578125 315.31500244140625 476.1878662109375 310.79254150390625 475.16021728515625 306.48388671875 C 474.165771484375 302.142333984375 472.939208984375 298.0638427734375 471.48065185546875 294.24853515625 C 470.05523681640625 290.400390625 468.464111328125 286.84820556640625 466.7071533203125 283.592041015625 C 464.9833984375 280.302978515625 463.16021728515625 277.3592529296875 461.237548828125 274.76092529296875 C 462.132568359375 274.3826904296875 463.027587890625 274.00439453125 463.922607421875 273.626220703125"/>
  </g>
</svg>
