<?xml version="1.0" ?>
<svg xmlns="http://www.w3.org/2000/svg" version="1.1" width="600" height="600">
  <defs/>
  <g>
    <path stroke-width="0" fill="rgb(0, 0, 0)" opacity="1.0" d="M 342.4571533203125 326.59173583984375 C 346.308837890625 326.59173583984375 350.160400390625 326.59173583984375 354.0120849609375 326.59173583984375 C 354.0120849609375 376.61468505859375 354.0120849609375 426.6375732421875 354.0120849609375 476.6605224609375 C 350.160400390625 476.6605224609375 346.308837890625 476.6605224609375 342.4571533203125 476.6605224609375 C 342.4571533203125 426.6375732421875 342.4571533203125 376.61468505859375 342.4571533203125 326.59173583984375M 215.7657470703125 325.76605224609375 C 235.299072265625 325.4908447265625 258.340087890625 325.14678955078125 284.888916015625 324.73394775390625 C 311.437744140625 324.32110595703125 339.70599365234375 323.7706298828125 369.69378662109375 323.08258056640625 C 399.6815185546875 322.25689697265625 429.6693115234375 321.43115234375 459.656982421875 320.60546875 C 459.45068359375 324.1834716796875 459.244384765625 327.761474609375 459.0380859375 331.3394775390625 C 429.87567138671875 332.1651611328125 400.57568359375 333.05963134765625 371.13812255859375 334.02294921875 C 341.7005615234375 334.8486328125 313.77618408203125 335.60546875 287.364990234375 336.2935791015625 C 260.9537353515625 336.981689453125 237.43121337890625 337.5321044921875 216.79742431640625 337.9449462890625 C 216.4534912109375 333.88531494140625 216.109619140625 329.82568359375 215.7657470703125 325.76605224609375M 449.340087890625 131.935791015625 C 452.7791748046875 135.10092163085938 456.218017578125 138.26605224609375 459.656982421875 141.43118286132812 C 446.451416015625 145.42202758789062 430.8385009765625 149.06881713867188 412.818359375 152.37155151367188 C 394.93572998046875 155.67431640625 375.81512451171875 158.63302612304688 355.4564208984375 161.24771118164062 C 335.2353515625 163.86236572265625 314.67034912109375 166.20184326171875 293.76141357421875 168.26605224609375 C 272.8525390625 170.19265747070312 252.6314697265625 171.84405517578125 233.09808349609375 173.22018432617188 C 232.822998046875 171.84405517578125 232.341552734375 170.19265747070312 231.65374755859375 168.26605224609375 C 231.103515625 166.20184326171875 230.41571044921875 164.55047607421875 229.59039306640625 163.31192016601562 C 248.57342529296875 161.66055297851562 268.45062255859375 159.87158203125 289.22198486328125 157.9449462890625 C 310.130859375 155.8807373046875 330.558349609375 153.54129028320312 350.50433349609375 150.92660522460938 C 370.45037841796875 148.31195068359375 388.95196533203125 145.42202758789062 406.00921630859375 142.25689697265625 C 423.0665283203125 139.09173583984375 437.5101318359375 135.6513671875 449.340087890625 131.935791015625M 408.2789306640625 190.55963134765625 C 411.7178955078125 192.69265747070312 415.1568603515625 194.82568359375 418.5958251953125 196.958740234375 C 406.0780029296875 211.95870971679688 391.90948486328125 227.92202758789062 376.0902099609375 244.8486328125 C 360.27099609375 261.7752380371094 344.1766357421875 278.2201843261719 327.80718994140625 294.1834716796875 C 311.437744140625 310.14678955078125 295.96240234375 324.2523193359375 281.38116455078125 336.5 C 278.6300048828125 334.366943359375 275.8787841796875 332.23394775390625 273.12762451171875 330.1009521484375 C 283.71966552734375 321.156005859375 295.0682373046875 310.97247314453125 307.17340087890625 299.55047607421875 C 319.41607666015625 287.9908447265625 331.59002685546875 275.9495544433594 343.6951904296875 263.4266052246094 C 355.80035400390625 250.76605224609375 367.35528564453125 238.17431640625 378.35992431640625 225.6513671875 C 389.502197265625 213.12844848632812 399.47515869140625 201.43118286132812 408.2789306640625 190.55963134765625M 329.87054443359375 158.564208984375 C 333.30950927734375 160.62844848632812 336.74847412109375 162.69265747070312 340.18743896484375 164.75689697265625 C 333.997314453125 173.28900146484375 326.9818115234375 182.23394775390625 319.1409912109375 191.59173583984375 C 311.437744140625 200.94955444335938 303.6656494140625 210.10089111328125 295.8248291015625 219.04586791992188 C 288.12158203125 227.85321044921875 280.8309326171875 235.55963134765625 273.9530029296875 242.1651611328125 C 271.06427001953125 240.4449462890625 268.175537109375 238.72476196289062 265.28680419921875 237.00457763671875 C 272.43988037109375 230.12384033203125 279.93682861328125 222.1422119140625 287.77764892578125 213.05963134765625 C 295.75604248046875 203.8394775390625 303.39056396484375 194.412841796875 310.68115234375 184.77981567382812 C 318.10931396484375 175.14678955078125 324.50579833984375 166.40826416015625 329.87054443359375 158.564208984375M 407.0408935546875 374.06884765625 C 409.79205322265625 372.21099853515625 412.54327392578125 370.35321044921875 415.29443359375 368.49542236328125 C 424.373291015625 377.02752685546875 433.245849609375 386.4541015625 441.9119873046875 396.7752685546875 C 450.578125 406.958740234375 458.556640625 417.00457763671875 465.84716796875 426.912841796875 C 473.1376953125 436.82110595703125 478.7777099609375 445.62841796875 482.766845703125 453.3348388671875 C 479.878173828125 455.4678955078125 476.989501953125 457.6009521484375 474.1007080078125 459.73394775390625 C 470.111572265625 451.7523193359375 464.4716796875 442.738525390625 457.1810302734375 432.692626953125 C 449.890380859375 422.64678955078125 441.84326171875 412.5321044921875 433.03955078125 402.3486328125 C 424.373291015625 392.02752685546875 415.70709228515625 382.6009521484375 407.0408935546875 374.06884765625M 396.7239990234375 271.47705078125 C 399.40643310546875 269.48162841796875 402.08880615234375 267.48626708984375 404.77117919921875 265.4908447265625 C 415.22564697265625 273.88531494140625 425.7489013671875 283.3119201660156 436.3408203125 293.7706298828125 C 446.932861328125 304.2293701171875 456.6307373046875 314.55047607421875 465.4345703125 324.73394775390625 C 474.375732421875 334.91741943359375 481.4600830078125 344.2064208984375 486.687255859375 352.6009521484375 C 483.9361572265625 354.87158203125 481.1849365234375 357.1422119140625 478.433837890625 359.412841796875 C 473.3441162109375 351.018310546875 466.3974609375 341.6605224609375 457.59375 331.3394775390625 C 448.7899169921875 321.018310546875 439.092041015625 310.62841796875 428.50006103515625 300.16973876953125 C 417.9080810546875 289.71099853515625 407.3160400390625 280.14678955078125 396.7239990234375 271.47705078125M 233.09808349609375 219.87158203125 C 235.3677978515625 217.5321044921875 237.6375732421875 215.19268798828125 239.90728759765625 212.85321044921875 C 251.18707275390625 219.458740234375 262.60443115234375 226.958740234375 274.15936279296875 235.35321044921875 C 285.851806640625 243.610107421875 296.650146484375 252.00457763671875 306.55438232421875 260.53668212890625 C 316.4586181640625 268.93121337890625 324.43701171875 276.63763427734375 330.48956298828125 283.65594482421875 C 328.151123046875 286.47705078125 325.81256103515625 289.29815673828125 323.47406005859375 292.1192626953125 C 317.4215087890625 284.6880798339844 309.443115234375 276.7064208984375 299.53887939453125 268.17431640625 C 289.63470458984375 259.50457763671875 278.90509033203125 250.97247314453125 267.3502197265625 242.5780029296875 C 255.932861328125 234.04586791992188 244.51544189453125 226.47705078125 233.09808349609375 219.87158203125M 215.7657470703125 123.26605224609375 C 219.4110107421875 124.16055297851562 223.05633544921875 125.0550537109375 226.70166015625 125.94955444335938 C 218.310546875 148.65597534179688 208.6126708984375 170.74313354492188 197.6080322265625 192.21099853515625 C 186.7408447265625 213.54129028320312 174.842041015625 233.63302612304688 161.91156005859375 252.48623657226562 C 149.11865234375 271.20184326171875 135.9129638671875 287.9908447265625 122.294677734375 302.85321044921875 C 121.7445068359375 302.02752685546875 120.9879150390625 300.99542236328125 120.02496337890625 299.75689697265625 C 119.06207275390625 298.51837158203125 118.0303955078125 297.41741943359375 116.929931640625 296.4541320800781 C 115.967041015625 295.35321044921875 114.935302734375 294.389892578125 113.8348388671875 293.564208984375 C 127.5906982421875 279.6651611328125 140.7275390625 263.70184326171875 153.245361328125 245.67431640625 C 165.76318359375 227.5091552734375 177.318115234375 207.9678955078125 187.91015625 187.05047607421875 C 198.5020751953125 166.13302612304688 207.787353515625 144.87155151367188 215.7657470703125 123.26605224609375M 176.5615234375 217.18807983398438 C 180.06927490234375 213.47247314453125 183.5770263671875 209.75689697265625 187.08477783203125 206.04129028320312 C 187.35986328125 206.3165283203125 187.635009765625 206.59173583984375 187.91015625 206.86697387695312 C 187.91015625 296.935791015625 187.91015625 387.00457763671875 187.91015625 477.0733642578125 C 184.1273193359375 477.0733642578125 180.3443603515625 477.0733642578125 176.5615234375 477.0733642578125 C 176.5615234375 390.4449462890625 176.5615234375 303.8165283203125 176.5615234375 217.18807983398438M 278.69879150390625 368.08258056640625 C 282.5504150390625 369.32110595703125 286.40203857421875 370.55963134765625 290.25372314453125 371.79815673828125 C 282.2752685546875 386.52294921875 272.095947265625 401.866943359375 259.7156982421875 417.83026123046875 C 247.33544921875 433.7935791015625 234.54248046875 447.4862060546875 221.33685302734375 458.90826416015625 C 220.23638916015625 457.807373046875 218.86083984375 456.56884765625 217.2100830078125 455.192626953125 C 215.69696044921875 453.9541015625 214.2525634765625 452.784423828125 212.87701416015625 451.6834716796875 C 221.4056396484375 444.389892578125 229.865478515625 436.133056640625 238.25653076171875 426.912841796875 C 246.78515625 417.5550537109375 254.48846435546875 407.784423828125 261.36639404296875 397.6009521484375 C 268.38189697265625 387.41741943359375 274.15936279296875 377.5780029296875 278.69879150390625 368.08258056640625"/>
  </g>
</svg>
