<?xml version="1.0" ?>
<svg xmlns="http://www.w3.org/2000/svg" version="1.1" width="600" height="600">
  <defs/>
  <g>
    <path stroke-width="0" fill="rgb(0, 0, 0)" opacity="1.0" d="M 120.241943359375 282.9798583984375 C 129.73385620117188 282.9798583984375 139.22579956054688 282.9798583984375 148.71774291992188 282.9798583984375 C 148.71774291992188 295.45831298828125 148.71774291992188 307.936767578125 148.71774291992188 320.4151611328125 C 148.25 320.4151611328125 147.78225708007812 320.4151611328125 147.31451416015625 320.4151611328125 C 147.31451416015625 308.4036865234375 147.31451416015625 296.3922119140625 147.31451416015625 284.38067626953125 C 138.758056640625 284.38067626953125 130.20159912109375 284.38067626953125 121.64517211914062 284.38067626953125 C 121.64517211914062 296.512939453125 121.64517211914062 308.64520263671875 121.64517211914062 320.7774658203125 C 121.17742919921875 320.7774658203125 120.70968627929688 320.7774658203125 120.241943359375 320.7774658203125 C 120.241943359375 308.17822265625 120.241943359375 295.5791015625 120.241943359375 282.9798583984375M 121.08871459960938 299.5479736328125 C 130.03225708007812 299.5479736328125 138.97579956054688 299.5479736328125 147.91934204101562 299.5479736328125 C 147.91934204101562 299.99884033203125 147.91934204101562 300.44970703125 147.91934204101562 300.9005126953125 C 138.97579956054688 300.9005126953125 130.03225708007812 300.9005126953125 121.08871459960938 300.9005126953125 C 121.08871459960938 300.44970703125 121.08871459960938 299.99884033203125 121.08871459960938 299.5479736328125M 120.991943359375 316.43017578125 C 130.01611328125 316.43017578125 139.04031372070312 316.43017578125 148.06451416015625 316.43017578125 C 148.06451416015625 316.8729248046875 148.06451416015625 317.315673828125 148.06451416015625 317.75848388671875 C 139.04031372070312 317.75848388671875 130.01611328125 317.75848388671875 120.991943359375 317.75848388671875 C 120.991943359375 317.315673828125 120.991943359375 316.8729248046875 120.991943359375 316.43017578125"/>
    <path stroke-width="0" fill="rgb(0, 0, 0)" opacity="1.0" d="M 160.741943359375 290.0322265625 C 174.06451416015625 290.0322265625 187.3870849609375 290.0322265625 200.70965576171875 290.0322265625 C 200.70965576171875 290.4991455078125 200.70965576171875 290.966064453125 200.70965576171875 291.4329833984375 C 187.3870849609375 291.4329833984375 174.06451416015625 291.4329833984375 160.741943359375 291.4329833984375 C 160.741943359375 290.966064453125 160.741943359375 290.4991455078125 160.741943359375 290.0322265625M 169.71774291992188 310.3438720703125 C 176.95965576171875 310.3438720703125 184.20159912109375 310.3438720703125 191.44354248046875 310.3438720703125 C 191.44354248046875 310.810791015625 191.44354248046875 311.2777099609375 191.44354248046875 311.74468994140625 C 184.20159912109375 311.74468994140625 176.95965576171875 311.74468994140625 169.71774291992188 311.74468994140625 C 169.71774291992188 311.2777099609375 169.71774291992188 310.810791015625 169.71774291992188 310.3438720703125M 179.92742919921875 279.55029296875 C 180.3951416015625 279.55029296875 180.8629150390625 279.55029296875 181.33062744140625 279.55029296875 C 181.33062744140625 293.4456787109375 181.33062744140625 307.34100341796875 181.33062744140625 321.236328125 C 180.8629150390625 321.236328125 180.3951416015625 321.236328125 179.92742919921875 321.236328125 C 179.92742919921875 307.34100341796875 179.92742919921875 293.4456787109375 179.92742919921875 279.55029296875M 179.41934204101562 290.322021484375 C 179.80645751953125 290.4749755859375 180.19354248046875 290.6279296875 180.58062744140625 290.7808837890625 C 179.16128540039062 293.96893310546875 177.3709716796875 297.0281982421875 175.20968627929688 299.9586181640625 C 173.06451416015625 302.8729248046875 170.70968627929688 305.4974365234375 168.14517211914062 307.83209228515625 C 165.59677124023438 310.166748046875 163.008056640625 312.04254150390625 160.3790283203125 313.45947265625 C 160.31451416015625 313.3306884765625 160.21774291992188 313.20184326171875 160.08871459960938 313.072998046875 C 159.97579956054688 312.9281005859375 159.8629150390625 312.79931640625 159.75 312.6866455078125 C 159.6370849609375 312.55780029296875 159.52420043945312 312.445068359375 159.41128540039062 312.3485107421875 C 161.39517211914062 311.3502197265625 163.35482788085938 310.08624267578125 165.29031372070312 308.556640625 C 167.22579956054688 307.02703857421875 169.07257080078125 305.2880859375 170.83062744140625 303.33984375 C 172.58871459960938 301.3916015625 174.20159912109375 299.3145751953125 175.66934204101562 297.108642578125 C 177.15322875976562 294.90283203125 178.40322875976562 292.640625 179.41934204101562 290.322021484375M 181.93548583984375 290.4669189453125 C 183.258056640625 293.574462890625 184.95968627929688 296.561279296875 187.04031372070312 299.42724609375 C 189.1209716796875 302.29327392578125 191.43548583984375 304.8453369140625 193.98388671875 307.0833740234375 C 196.53225708007812 309.3214111328125 199.18548583984375 311.0604248046875 201.94354248046875 312.3001708984375 C 201.8629150390625 312.39678955078125 201.758056640625 312.509521484375 201.6290283203125 312.6383056640625 C 201.5 312.7509765625 201.3790283203125 312.87982177734375 201.26611328125 313.02471923828125 C 201.16934204101562 313.153564453125 201.07257080078125 313.2823486328125 200.97579956054688 313.4111328125 C 198.25 312.04254150390625 195.59677124023438 310.20703125 193.01611328125 307.904541015625 C 190.45159912109375 305.60205078125 188.1129150390625 302.99365234375 186.0 300.079345703125 C 183.90322875976562 297.14892578125 182.17742919921875 294.0977783203125 180.82257080078125 290.92578125 C 181.19354248046875 290.7728271484375 181.56451416015625 290.619873046875 181.93548583984375 290.4669189453125"/>
    <path stroke-width="0" fill="rgb(0, 0, 0)" opacity="1.0" d="M 235.20965576171875 282.9798583984375 C 234.96774291992188 283.205322265625 234.58062744140625 283.56756591796875 234.04840087890625 284.06671142578125 C 233.51611328125 284.54974365234375 233.1290283203125 284.9039306640625 232.8870849609375 285.12939453125 C 232.04840087890625 285.9022216796875 231.008056640625 286.82000732421875 229.76611328125 287.8826904296875 C 228.54031372070312 288.94537353515625 227.23388671875 290.040283203125 225.84677124023438 291.1673583984375 C 224.47579956054688 292.29443359375 223.14517211914062 293.3812255859375 221.85482788085938 294.4278564453125 C 220.56451416015625 295.45831298828125 219.45965576171875 296.3599853515625 218.54031372070312 297.1328125 C 217.508056640625 298.0345458984375 216.80645751953125 298.791259765625 216.43548583984375 299.403076171875 C 216.06451416015625 299.99884033203125 216.07257080078125 300.5946044921875 216.45965576171875 301.1903076171875 C 216.84677124023438 301.78607177734375 217.6129150390625 302.5670166015625 218.758056640625 303.5330810546875 C 219.758056640625 304.338134765625 220.84677124023438 305.22369384765625 222.02420043945312 306.18975830078125 C 223.20159912109375 307.1397705078125 224.41128540039062 308.14605712890625 225.65322875976562 309.208740234375 C 226.91128540039062 310.27142333984375 228.17742919921875 311.3663330078125 229.45159912109375 312.493408203125 C 230.72579956054688 313.6043701171875 231.95965576171875 314.723388671875 233.15322875976562 315.8504638671875 C 234.34677124023438 316.9775390625 235.45159912109375 318.06439208984375 236.46774291992188 319.1109619140625 C 236.06451416015625 319.4652099609375 235.66128540039062 319.8194580078125 235.258056640625 320.1737060546875 C 234.6129150390625 319.4329833984375 233.83871459960938 318.61181640625 232.93548583984375 317.710205078125 C 232.0 316.79241943359375 230.8790283203125 315.73779296875 229.57257080078125 314.5462646484375 C 228.28225708007812 313.35479736328125 226.91937255859375 312.13916015625 225.48385620117188 310.89935302734375 C 224.04837036132812 309.6434326171875 222.6370849609375 308.4359130859375 221.25 307.276611328125 C 219.8790283203125 306.1173095703125 218.6370849609375 305.0867919921875 217.52420043945312 304.1851806640625 C 216.1209716796875 303.0419921875 215.241943359375 302.06787109375 214.8870849609375 301.2628173828125 C 214.53225708007812 300.457763671875 214.6048583984375 299.6607666015625 215.10482788085938 298.87176513671875 C 215.6209716796875 298.082763671875 216.5 297.1650390625 217.741943359375 296.11846923828125 C 218.58062744140625 295.4100341796875 219.6370849609375 294.54052734375 220.91128540039062 293.51007080078125 C 222.20159912109375 292.4635009765625 223.54840087890625 291.360595703125 224.95159912109375 290.2012939453125 C 226.3709716796875 289.0419921875 227.70965576171875 287.9229736328125 228.96774291992188 286.84417724609375 C 230.22579956054688 285.765380859375 231.241943359375 284.807373046875 232.01611328125 283.9700927734375 C 232.258056640625 283.6802978515625 232.56451416015625 283.3099365234375 232.93548583984375 282.859130859375 C 233.30645751953125 282.3922119140625 233.57257080078125 282.0057373046875 233.73385620117188 281.6998291015625 C 234.22579956054688 282.12646484375 234.71774291992188 282.55322265625 235.20965576171875 282.9798583984375"/>
    <path stroke-width="0" fill="rgb(0, 0, 0)" opacity="1.0" d="M 276.9677429199219 282.3035888671875 C 276.9677429199219 282.3841552734375 276.95159912109375 282.55322265625 276.91937255859375 282.810791015625 C 276.8870849609375 283.0523681640625 276.8629150390625 283.3018798828125 276.8467712402344 283.55950927734375 C 276.83062744140625 283.801025390625 276.82257080078125 283.9942626953125 276.82257080078125 284.13916015625 C 276.7903137207031 284.73486328125 276.774169921875 285.52386474609375 276.774169921875 286.50604248046875 C 276.774169921875 287.47210693359375 276.774169921875 288.5347900390625 276.774169921875 289.694091796875 C 276.774169921875 290.8533935546875 276.7822570800781 292.02069091796875 276.79840087890625 293.196044921875 C 276.81451416015625 294.3714599609375 276.83062744140625 295.482421875 276.8467712402344 296.529052734375 C 276.8629150390625 297.57562255859375 276.8709716796875 298.46923828125 276.8709716796875 299.20989990234375 C 276.44354248046875 298.6705322265625 276.01611328125 298.131103515625 275.58868408203125 297.5916748046875 C 275.58868408203125 297.3502197265625 275.58868408203125 296.826904296875 275.58868408203125 296.0218505859375 C 275.58868408203125 295.216796875 275.58062744140625 294.250732421875 275.56451416015625 293.1236572265625 C 275.54840087890625 291.99658203125 275.5322265625 290.8453369140625 275.51611328125 289.669921875 C 275.5 288.4945068359375 275.4838562011719 287.415771484375 275.4677429199219 286.43359375 C 275.45159912109375 285.435302734375 275.42742919921875 284.6705322265625 275.3951416015625 284.13916015625 C 275.3951416015625 283.833251953125 275.3709716796875 283.470947265625 275.32257080078125 283.0523681640625 C 275.274169921875 282.6336669921875 275.23388671875 282.3841552734375 275.20159912109375 282.3035888671875 C 275.79034423828125 282.3035888671875 276.3790283203125 282.3035888671875 276.9677429199219 282.3035888671875M 253.8870849609375 289.42840576171875 C 255.03225708007812 289.396240234375 256.3548278808594 289.35595703125 257.8548278808594 289.3076171875 C 259.3548278808594 289.2432861328125 260.9757995605469 289.1788330078125 262.7177429199219 289.11444091796875 C 264.4757995605469 289.050048828125 266.2903137207031 288.99365234375 268.1612854003906 288.94537353515625 C 270.0322570800781 288.8970947265625 271.8870849609375 288.8568115234375 273.7257995605469 288.8245849609375 C 275.58062744140625 288.79241943359375 277.3629150390625 288.77630615234375 279.07257080078125 288.77630615234375 C 280.70159912109375 288.77630615234375 282.20159912109375 288.78436279296875 283.57257080078125 288.80047607421875 C 284.95965576171875 288.8165283203125 286.18548583984375 288.8245849609375 287.25 288.8245849609375 C 288.33062744140625 288.8245849609375 289.258056640625 288.8326416015625 290.0322570800781 288.8487548828125 C 290.80645751953125 288.8648681640625 291.41937255859375 288.8729248046875 291.8709716796875 288.8729248046875 C 291.8709716796875 289.33984375 291.8709716796875 289.8067626953125 291.8709716796875 290.273681640625 C 290.7257995605469 290.2093505859375 289.1612854003906 290.1610107421875 287.17742919921875 290.1287841796875 C 285.20965576171875 290.09661865234375 282.51611328125 290.08050537109375 279.0967712402344 290.08050537109375 C 277.20965576171875 290.08050537109375 275.17742919921875 290.09661865234375 273.0 290.1287841796875 C 270.82257080078125 290.1610107421875 268.58868408203125 290.2174072265625 266.29840087890625 290.2978515625 C 264.024169921875 290.37841796875 261.82257080078125 290.4830322265625 259.69354248046875 290.61181640625 C 257.58062744140625 290.72454833984375 255.66128540039062 290.8614501953125 253.93548583984375 291.0224609375 C 253.91937255859375 290.4910888671875 253.9031982421875 289.959716796875 253.8870849609375 289.42840576171875M 277.4757995605469 302.639404296875 C 277.4757995605469 304.24957275390625 277.17742919921875 305.60205078125 276.58062744140625 306.69696044921875 C 276.0 307.7757568359375 275.241943359375 308.5888671875 274.30645751953125 309.13629150390625 C 273.3870849609375 309.6676025390625 272.4032287597656 309.93328857421875 271.3548278808594 309.93328857421875 C 270.30645751953125 309.93328857421875 269.33868408203125 309.78033447265625 268.45159912109375 309.47442626953125 C 267.56451416015625 309.16845703125 266.79034423828125 308.7095947265625 266.1290283203125 308.0977783203125 C 265.48388671875 307.4698486328125 264.9838562011719 306.7210693359375 264.6290283203125 305.85162353515625 C 264.2742004394531 304.982177734375 264.0967712402344 303.991943359375 264.0967712402344 302.8809814453125 C 264.0967712402344 301.5606689453125 264.41937255859375 300.34503173828125 265.06451416015625 299.2340087890625 C 265.7257995605469 298.10693359375 266.5967712402344 297.197265625 267.67742919921875 296.5048828125 C 268.758056640625 295.8125 269.93548583984375 295.46636962890625 271.20965576171875 295.46636962890625 C 272.79034423828125 295.46636962890625 274.08868408203125 295.820556640625 275.1048278808594 296.529052734375 C 276.1370849609375 297.23748779296875 276.9032287597656 298.22772216796875 277.4031982421875 299.499755859375 C 277.91937255859375 300.771728515625 278.17742919921875 302.2369384765625 278.17742919921875 303.8953857421875 C 278.17742919921875 305.5054931640625 277.98388671875 307.0914306640625 277.5967712402344 308.65325927734375 C 277.20965576171875 310.215087890625 276.54034423828125 311.7044677734375 275.58868408203125 313.121337890625 C 274.6532287597656 314.5220947265625 273.3548278808594 315.80218505859375 271.69354248046875 316.96148681640625 C 270.04840087890625 318.1207275390625 267.93548583984375 319.1029052734375 265.3548278808594 319.907958984375 C 264.91937255859375 319.5216064453125 264.48388671875 319.1351318359375 264.04840087890625 318.74871826171875 C 266.32257080078125 318.1851806640625 268.258056640625 317.4525146484375 269.8548278808594 316.5509033203125 C 271.46771240234375 315.63311767578125 272.7822570800781 314.5543212890625 273.79840087890625 313.3145751953125 C 274.83062744140625 312.07476806640625 275.58062744140625 310.6900634765625 276.04840087890625 309.160400390625 C 276.5322570800781 307.630859375 276.774169921875 305.972412109375 276.774169921875 304.1851806640625 C 276.774169921875 301.49627685546875 276.241943359375 299.5882568359375 275.17742919921875 298.461181640625 C 274.1129150390625 297.3341064453125 272.82257080078125 296.77056884765625 271.30645751953125 296.77056884765625 C 270.2903137207031 296.77056884765625 269.33868408203125 297.0362548828125 268.45159912109375 297.56756591796875 C 267.56451416015625 298.082763671875 266.8467712402344 298.79931640625 266.29840087890625 299.717041015625 C 265.76611328125 300.6187744140625 265.5 301.67333984375 265.5 302.8809814453125 C 265.5 304.73260498046875 266.07257080078125 306.1575927734375 267.2177429199219 307.15582275390625 C 268.3629150390625 308.13800048828125 269.741943359375 308.62908935546875 271.3548278808594 308.62908935546875 C 272.56451416015625 308.62908935546875 273.56451416015625 308.32318115234375 274.3548278808594 307.7113037109375 C 275.1451416015625 307.0833740234375 275.741943359375 306.21392822265625 276.1451416015625 305.1029052734375 C 276.54840087890625 303.991943359375 276.75 302.7119140625 276.75 301.2628173828125 C 276.991943359375 301.7216796875 277.23388671875 302.1805419921875 277.4757995605469 302.639404296875M 283.741943359375 281.77227783203125 C 284.274169921875 282.496826171875 284.9031982421875 283.41461181640625 285.6290283203125 284.52557373046875 C 286.3548278808594 285.6365966796875 286.9677429199219 286.64288330078125 287.4677429199219 287.5445556640625 C 287.01611328125 287.77001953125 286.56451416015625 287.995361328125 286.1129150390625 288.2208251953125 C 285.6290283203125 287.30303955078125 285.0322570800781 286.2886962890625 284.32257080078125 285.17767333984375 C 283.6290283203125 284.06671142578125 283.008056640625 283.1328125 282.45965576171875 282.3760986328125 C 282.8870849609375 282.1748046875 283.31451416015625 281.9735107421875 283.741943359375 281.77227783203125M 288.82257080078125 280.7095947265625 C 289.3387145996094 281.4180908203125 289.94354248046875 282.3116455078125 290.6370849609375 283.39044189453125 C 291.3467712402344 284.453125 291.9757995605469 285.45947265625 292.524169921875 286.409423828125 C 292.06451416015625 286.64288330078125 291.6048278808594 286.8763427734375 291.1451416015625 287.10986328125 C 290.6451416015625 286.127685546875 290.05645751953125 285.105224609375 289.3790283203125 284.04254150390625 C 288.71771240234375 282.9637451171875 288.0967712402344 282.0540771484375 287.51611328125 281.31341552734375 C 287.95159912109375 281.11212158203125 288.3870849609375 280.910888671875 288.82257080078125 280.7095947265625"/>
    <path stroke-width="0" fill="rgb(0, 0, 0)" opacity="1.0" d="M 311.1531982421875 282.52099609375 C 311.07257080078125 283.08453369140625 311.01611328125 283.5997314453125 310.98388671875 284.06671142578125 C 310.95159912109375 284.517578125 310.9193420410156 285.05694580078125 310.8870849609375 285.68487548828125 C 310.8548583984375 287.037353515625 310.7983703613281 288.72802734375 310.7177429199219 290.7567138671875 C 310.6370849609375 292.7855224609375 310.57257080078125 294.95916748046875 310.524169921875 297.2777099609375 C 310.4757995605469 299.5963134765625 310.42742919921875 301.9310302734375 310.3790283203125 304.28173828125 C 310.3467712402344 306.632568359375 310.33062744140625 308.80621337890625 310.33062744140625 310.802734375 C 310.33062744140625 312.6383056640625 310.70159912109375 314.111572265625 311.44354248046875 315.2225341796875 C 312.18548583984375 316.33349609375 313.21771240234375 317.1385498046875 314.5403137207031 317.6376953125 C 315.8790283203125 318.1207275390625 317.4193420410156 318.3623046875 319.1612854003906 318.3623046875 C 321.48388671875 318.3623046875 323.54833984375 318.08050537109375 325.3548583984375 317.5169677734375 C 327.1612548828125 316.93731689453125 328.75 316.1805419921875 330.1209716796875 315.2467041015625 C 331.508056640625 314.2967529296875 332.71771240234375 313.2501220703125 333.75 312.10693359375 C 334.79833984375 310.9637451171875 335.741943359375 309.820556640625 336.58062744140625 308.6773681640625 C 336.9193115234375 309.0638427734375 337.258056640625 309.45025634765625 337.5968017578125 309.836669921875 C 336.758056640625 310.91546630859375 335.774169921875 312.0345458984375 334.6451416015625 313.19378662109375 C 333.51611328125 314.35308837890625 332.20159912109375 315.423828125 330.70159912109375 316.406005859375 C 329.2177734375 317.3720703125 327.508056640625 318.1529541015625 325.57257080078125 318.74871826171875 C 323.6370849609375 319.360595703125 321.45159912109375 319.66650390625 319.01611328125 319.66650390625 C 317.0967712402344 319.66650390625 315.3790283203125 319.37664794921875 313.8629150390625 318.7969970703125 C 312.34674072265625 318.23345947265625 311.1451416015625 317.27545166015625 310.258056640625 315.9229736328125 C 309.3709716796875 314.5543212890625 308.92742919921875 312.6624755859375 308.92742919921875 310.24725341796875 C 308.92742919921875 308.7337646484375 308.94354248046875 307.1075439453125 308.9757995605469 305.36859130859375 C 309.008056640625 303.613525390625 309.05645751953125 301.8262939453125 309.1209716796875 300.00689697265625 C 309.18548583984375 298.1875 309.23388671875 296.4083251953125 309.26611328125 294.6693115234375 C 309.31451416015625 292.914306640625 309.3548583984375 291.263916015625 309.3870849609375 289.71826171875 C 309.4193420410156 288.1724853515625 309.43548583984375 286.82806396484375 309.43548583984375 285.68487548828125 C 309.43548583984375 285.05694580078125 309.4193420410156 284.4853515625 309.3870849609375 283.9700927734375 C 309.3548583984375 283.438720703125 309.2983703613281 282.9556884765625 309.2177429199219 282.52099609375 C 309.8629150390625 282.52099609375 310.508056640625 282.52099609375 311.1531982421875 282.52099609375"/>
    <path stroke-width="0" fill="rgb(0, 0, 0)" opacity="1.0" d="M 354.024169921875 292.90625 C 361.96771240234375 292.90625 369.9112548828125 292.90625 377.8548583984375 292.90625 C 377.8548583984375 293.35711669921875 377.8548583984375 293.80792236328125 377.8548583984375 294.2587890625 C 369.9112548828125 294.2587890625 361.96771240234375 294.2587890625 354.024169921875 294.2587890625 C 354.024169921875 293.80792236328125 354.024169921875 293.35711669921875 354.024169921875 292.90625M 346.8870849609375 304.6923828125 C 360.0 304.6923828125 373.1129150390625 304.6923828125 386.225830078125 304.6923828125 C 386.225830078125 305.1431884765625 386.225830078125 305.593994140625 386.225830078125 306.04486083984375 C 373.1129150390625 306.04486083984375 360.0 306.04486083984375 346.8870849609375 306.04486083984375 C 346.8870849609375 305.593994140625 346.8870849609375 305.1431884765625 346.8870849609375 304.6923828125M 365.92742919921875 300.707275390625 C 366.3951416015625 300.707275390625 366.8629150390625 300.707275390625 367.33062744140625 300.707275390625 C 367.33062744140625 306.7935791015625 367.33062744140625 312.87982177734375 367.33062744140625 318.966064453125 C 367.33062744140625 319.56182861328125 367.21771240234375 320.004638671875 366.991943359375 320.29443359375 C 366.7822265625 320.584228515625 366.4112548828125 320.8096923828125 365.8790283203125 320.970703125 C 365.3790283203125 321.0994873046875 364.5968017578125 321.16387939453125 363.5322265625 321.16387939453125 C 362.46771240234375 321.17999267578125 360.9273681640625 321.18804931640625 358.9112548828125 321.18804931640625 C 358.8790283203125 321.0753173828125 358.82257080078125 320.946533203125 358.741943359375 320.8016357421875 C 358.6773681640625 320.67279052734375 358.6048583984375 320.52789306640625 358.524169921875 320.36688232421875 C 358.44354248046875 320.20587158203125 358.3548583984375 320.0689697265625 358.258056640625 319.956298828125 C 359.4031982421875 319.956298828125 360.42742919921875 319.96435546875 361.33062744140625 319.98046875 C 362.25 319.99658203125 363.01611328125 319.99658203125 363.6290283203125 319.98046875 C 364.258056640625 319.96435546875 364.70159912109375 319.956298828125 364.95965576171875 319.956298828125 C 365.33062744140625 319.924072265625 365.58062744140625 319.8355712890625 365.70965576171875 319.69061279296875 C 365.8548583984375 319.54571533203125 365.92742919921875 319.3203125 365.92742919921875 319.014404296875 C 365.92742919921875 312.9119873046875 365.92742919921875 306.8096923828125 365.92742919921875 300.707275390625M 377.491943359375 292.90625 C 377.5968017578125 292.90625 377.70159912109375 292.90625 377.80645751953125 292.90625 C 377.9193115234375 292.8740234375 378.0322265625 292.84185791015625 378.1451416015625 292.8096923828125 C 378.46771240234375 293.0430908203125 378.790283203125 293.276611328125 379.1129150390625 293.51007080078125 C 378.0968017578125 294.5888671875 376.9031982421875 295.6756591796875 375.5322265625 296.77056884765625 C 374.1773681640625 297.849365234375 372.76611328125 298.86370849609375 371.29833984375 299.813720703125 C 369.8468017578125 300.74755859375 368.459716796875 301.5526123046875 367.1370849609375 302.2288818359375 C 367.040283203125 302.083984375 366.8951416015625 301.9229736328125 366.70159912109375 301.745849609375 C 366.524169921875 301.5687255859375 366.3548583984375 301.43994140625 366.19354248046875 301.359375 C 367.5322265625 300.69921875 368.9031982421875 299.9183349609375 370.30645751953125 299.01666259765625 C 371.725830078125 298.098876953125 373.05645751953125 297.140869140625 374.29833984375 296.142578125 C 375.55645751953125 295.12823486328125 376.6209716796875 294.16217041015625 377.491943359375 293.244384765625 C 377.491943359375 293.1317138671875 377.491943359375 293.01898193359375 377.491943359375 292.90625M 365.73388671875 279.33294677734375 C 366.20159912109375 279.33294677734375 366.66937255859375 279.33294677734375 367.1370849609375 279.33294677734375 C 367.1370849609375 281.506591796875 367.1370849609375 283.6802978515625 367.1370849609375 285.85394287109375 C 366.66937255859375 285.85394287109375 366.20159912109375 285.85394287109375 365.73388671875 285.85394287109375 C 365.73388671875 283.6802978515625 365.73388671875 281.506591796875 365.73388671875 279.33294677734375M 347.58868408203125 285.0810546875 C 360.20159912109375 285.0810546875 372.81451416015625 285.0810546875 385.4273681640625 285.0810546875 C 385.4273681640625 288.341552734375 385.4273681640625 291.60205078125 385.4273681640625 294.862548828125 C 384.9677734375 294.862548828125 384.508056640625 294.862548828125 384.04833984375 294.862548828125 C 384.04833984375 292.0609130859375 384.04833984375 289.25933837890625 384.04833984375 286.457763671875 C 372.3548583984375 286.457763671875 360.6612548828125 286.457763671875 348.96771240234375 286.457763671875 C 348.96771240234375 289.25933837890625 348.96771240234375 292.0609130859375 348.96771240234375 294.862548828125 C 348.508056640625 294.862548828125 348.04840087890625 294.862548828125 347.58868408203125 294.862548828125 C 347.58868408203125 291.60205078125 347.58868408203125 288.341552734375 347.58868408203125 285.0810546875"/>
    <path stroke-width="0" fill="rgb(0, 0, 0)" opacity="1.0" d="M 399.45965576171875 289.11444091796875 C 410.1290283203125 289.11444091796875 420.79833984375 289.11444091796875 431.4677734375 289.11444091796875 C 431.4677734375 289.5653076171875 431.4677734375 290.01611328125 431.4677734375 290.4669189453125 C 420.79833984375 290.4669189453125 410.1290283203125 290.4669189453125 399.45965576171875 290.4669189453125 C 399.45965576171875 290.01611328125 399.45965576171875 289.5653076171875 399.45965576171875 289.11444091796875M 397.2822265625 302.639404296875 C 408.1531982421875 302.639404296875 419.024169921875 302.639404296875 429.8951416015625 302.639404296875 C 429.8951416015625 303.09027099609375 429.8951416015625 303.5411376953125 429.8951416015625 303.991943359375 C 419.024169921875 303.991943359375 408.1531982421875 303.991943359375 397.2822265625 303.991943359375 C 397.2822265625 303.5411376953125 397.2822265625 303.09027099609375 397.2822265625 302.639404296875M 392.491943359375 318.289794921875 C 406.1693115234375 318.289794921875 419.8468017578125 318.289794921875 433.524169921875 318.289794921875 C 433.524169921875 318.73260498046875 433.524169921875 319.1754150390625 433.524169921875 319.6181640625 C 419.8468017578125 319.6181640625 406.1693115234375 319.6181640625 392.491943359375 319.6181640625 C 392.491943359375 319.1754150390625 392.491943359375 318.73260498046875 392.491943359375 318.289794921875M 412.33062744140625 279.50201416015625 C 412.79833984375 279.50201416015625 413.26611328125 279.50201416015625 413.73388671875 279.50201416015625 C 413.73388671875 292.65673828125 413.73388671875 305.8114013671875 413.73388671875 318.966064453125 C 413.26611328125 318.966064453125 412.79833984375 318.966064453125 412.33062744140625 318.966064453125 C 412.33062744140625 305.8114013671875 412.33062744140625 292.65673828125 412.33062744140625 279.50201416015625M 402.19354248046875 280.4439697265625 C 402.6451416015625 280.532470703125 403.0968017578125 280.62103271484375 403.54833984375 280.7095947265625 C 402.9031982421875 283.09259033203125 402.1209716796875 285.403076171875 401.20159912109375 287.64117431640625 C 400.29840087890625 289.8631591796875 399.2822265625 291.93212890625 398.1531982421875 293.84814453125 C 397.040283203125 295.76422119140625 395.8548583984375 297.462890625 394.5968017578125 298.9442138671875 C 394.5 298.84765625 394.3709716796875 298.759033203125 394.20965576171875 298.6785888671875 C 394.06451416015625 298.5819091796875 393.9112548828125 298.477294921875 393.75 298.36456298828125 C 393.58868408203125 298.2518310546875 393.45159912109375 298.179443359375 393.3387451171875 298.147216796875 C 394.6612548828125 296.6981201171875 395.8709716796875 295.0396728515625 396.9677734375 293.17193603515625 C 398.08062744140625 291.30419921875 399.07257080078125 289.29150390625 399.94354248046875 287.13397216796875 C 400.8306884765625 284.9603271484375 401.5806884765625 282.7303466796875 402.19354248046875 280.4439697265625"/>
    <path stroke-width="0" fill="rgb(0, 0, 0)" opacity="1.0" d="M 443.5887451171875 296.81884765625 C 447.70965576171875 296.81884765625 451.8306884765625 296.81884765625 455.95159912109375 296.81884765625 C 455.95159912109375 297.2777099609375 455.95159912109375 297.73663330078125 455.95159912109375 298.195556640625 C 451.8306884765625 298.195556640625 447.70965576171875 298.195556640625 443.5887451171875 298.195556640625 C 443.5887451171875 297.73663330078125 443.5887451171875 297.2777099609375 443.5887451171875 296.81884765625M 455.3468017578125 296.81884765625 C 455.79833984375 296.81884765625 456.25 296.81884765625 456.70159912109375 296.81884765625 C 456.70159912109375 296.81884765625 456.70159912109375 296.875244140625 456.70159912109375 296.9879150390625 C 456.70159912109375 297.08453369140625 456.70159912109375 297.21337890625 456.70159912109375 297.3743896484375 C 456.70159912109375 297.519287109375 456.70159912109375 297.6400146484375 456.70159912109375 297.73663330078125 C 456.6048583984375 301.40771484375 456.5 304.34619140625 456.3870849609375 306.552001953125 C 456.274169921875 308.7418212890625 456.1290283203125 310.3760986328125 455.95159912109375 311.454833984375 C 455.790283203125 312.53363037109375 455.55645751953125 313.2662353515625 455.25 313.6527099609375 C 454.975830078125 313.9263916015625 454.6693115234375 314.127685546875 454.33062744140625 314.2564697265625 C 453.991943359375 314.369140625 453.508056640625 314.441650390625 452.8790283203125 314.473876953125 C 452.29833984375 314.50604248046875 451.48388671875 314.50604248046875 450.43548583984375 314.473876953125 C 449.4031982421875 314.441650390625 448.29833984375 314.377197265625 447.1209716796875 314.2806396484375 C 447.0887451171875 314.103515625 447.040283203125 313.8941650390625 446.975830078125 313.6527099609375 C 446.9273681640625 313.39501953125 446.83868408203125 313.17767333984375 446.70965576171875 313.0006103515625 C 447.98388671875 313.11328125 449.1773681640625 313.17767333984375 450.290283203125 313.19378662109375 C 451.4031982421875 313.20989990234375 452.1612548828125 313.21795654296875 452.56451416015625 313.21795654296875 C 452.9031982421875 313.21795654296875 453.19354248046875 313.19378662109375 453.43548583984375 313.1455078125 C 453.69354248046875 313.09716796875 453.8951416015625 312.9844970703125 454.040283203125 312.807373046875 C 454.314453125 312.50146484375 454.5322265625 311.8251953125 454.69354248046875 310.778564453125 C 454.8548583984375 309.7159423828125 454.98388671875 308.0977783203125 455.08062744140625 305.924072265625 C 455.19354248046875 303.73431396484375 455.2822265625 300.803955078125 455.3468017578125 297.1328125 C 455.3468017578125 297.0281982421875 455.3468017578125 296.92352294921875 455.3468017578125 296.81884765625M 467.51611328125 281.216796875 C 467.79833984375 280.910888671875 468.08062744140625 280.60498046875 468.3629150390625 280.29901123046875 C 469.44354248046875 280.830322265625 470.56451416015625 281.4261474609375 471.725830078125 282.08624267578125 C 472.8870849609375 282.74639892578125 473.9677734375 283.41461181640625 474.9677734375 284.0908203125 C 475.98388671875 284.7509765625 476.814453125 285.35479736328125 477.45965576171875 285.9022216796875 C 477.19354248046875 286.2484130859375 476.9273681640625 286.5946044921875 476.6612548828125 286.9407958984375 C 476.01611328125 286.377197265625 475.17742919921875 285.75732421875 474.1451416015625 285.0810546875 C 473.1290283203125 284.40484619140625 472.04833984375 283.72857666015625 470.9031982421875 283.0523681640625 C 469.758056640625 282.3599853515625 468.6290283203125 281.7481689453125 467.51611328125 281.216796875M 475.3548583984375 294.4520263671875 C 475.80645751953125 294.57275390625 476.258056640625 294.6934814453125 476.70965576171875 294.81427001953125 C 474.69354248046875 300.8682861328125 471.93548583984375 306.04486083984375 468.43548583984375 310.3438720703125 C 464.9354248046875 314.64288330078125 460.741943359375 318.1851806640625 455.8548583984375 320.970703125 C 455.790283203125 320.8740234375 455.68548583984375 320.7532958984375 455.540283203125 320.6083984375 C 455.4112548828125 320.4796142578125 455.2822265625 320.34271240234375 455.1531982421875 320.19781494140625 C 455.040283203125 320.0689697265625 454.9193115234375 319.956298828125 454.790283203125 319.85968017578125 C 459.741943359375 317.26739501953125 463.93548583984375 313.83782958984375 467.3709716796875 309.571044921875 C 470.806396484375 305.30419921875 473.4677734375 300.2645263671875 475.3548583984375 294.4520263671875M 443.83062744140625 288.26910400390625 C 455.8629150390625 288.26910400390625 467.8951416015625 288.26910400390625 479.9273681640625 288.26910400390625 C 479.9273681640625 288.719970703125 479.9273681640625 289.1707763671875 479.9273681640625 289.62158203125 C 467.8951416015625 289.62158203125 455.8629150390625 289.62158203125 443.83062744140625 289.62158203125 C 443.83062744140625 289.1707763671875 443.83062744140625 288.719970703125 443.83062744140625 288.26910400390625M 443.0322265625 288.26910400390625 C 443.5 288.26910400390625 443.9677734375 288.26910400390625 444.43548583984375 288.26910400390625 C 444.43548583984375 292.4473876953125 444.43548583984375 296.6256103515625 444.43548583984375 300.803955078125 C 444.43548583984375 302.349609375 444.3709716796875 304.008056640625 444.241943359375 305.7791748046875 C 444.1129150390625 307.5341796875 443.8870849609375 309.3294677734375 443.56451416015625 311.1650390625 C 443.241943359375 313.0006103515625 442.75 314.787841796875 442.0887451171875 316.5267333984375 C 441.44354248046875 318.24957275390625 440.5806884765625 319.85162353515625 439.5 321.33294677734375 C 439.4354248046875 321.236328125 439.33062744140625 321.1317138671875 439.18548583984375 321.01898193359375 C 439.05645751953125 320.92236328125 438.9193115234375 320.8258056640625 438.774169921875 320.7291259765625 C 438.6451416015625 320.648681640625 438.51611328125 320.576171875 438.3870849609375 320.51177978515625 C 439.790283203125 318.56353759765625 440.814453125 316.44622802734375 441.45965576171875 314.15985107421875 C 442.1048583984375 311.87353515625 442.524169921875 309.571044921875 442.7177734375 307.25244140625 C 442.92742919921875 304.933837890625 443.0322265625 302.76824951171875 443.0322265625 300.755615234375 C 443.0322265625 296.59344482421875 443.0322265625 292.4312744140625 443.0322265625 288.26910400390625M 462.774169921875 279.55029296875 C 463.241943359375 279.55029296875 463.709716796875 279.55029296875 464.1773681640625 279.55029296875 C 464.20965576171875 284.3162841796875 464.4193115234375 288.752197265625 464.806396484375 292.85797119140625 C 465.19354248046875 296.9476318359375 465.741943359375 300.6348876953125 466.45159912109375 303.91949462890625 C 467.1612548828125 307.18804931640625 468.01611328125 309.9815673828125 469.01611328125 312.3001708984375 C 470.0322265625 314.6187744140625 471.1612548828125 316.39794921875 472.4031982421875 317.6376953125 C 473.6612548828125 318.8614501953125 475.024169921875 319.4732666015625 476.491943359375 319.4732666015625 C 477.2822265625 319.4732666015625 477.8548583984375 318.7969970703125 478.20965576171875 317.44451904296875 C 478.58062744140625 316.075927734375 478.82257080078125 313.7734375 478.93548583984375 310.537109375 C 479.0968017578125 310.6658935546875 479.306396484375 310.794677734375 479.56451416015625 310.92352294921875 C 479.83868408203125 311.0362548828125 480.06451416015625 311.124755859375 480.241943359375 311.189208984375 C 480.1129150390625 313.6043701171875 479.9273681640625 315.5203857421875 479.68548583984375 316.93731689453125 C 479.44354248046875 318.354248046875 479.064453125 319.36859130859375 478.54833984375 319.98046875 C 478.0322265625 320.6083984375 477.31451416015625 320.92236328125 476.3951416015625 320.92236328125 C 474.9273681640625 320.92236328125 473.57257080078125 320.4393310546875 472.33062744140625 319.4732666015625 C 471.1048583984375 318.5233154296875 469.991943359375 317.1627197265625 468.991943359375 315.3916015625 C 468.008056640625 313.6043701171875 467.1370849609375 311.470947265625 466.3790283203125 308.9913330078125 C 465.6209716796875 306.4957275390625 464.975830078125 303.710205078125 464.44354248046875 300.6348876953125 C 463.92742919921875 297.55950927734375 463.524169921875 294.24267578125 463.23388671875 290.684326171875 C 462.959716796875 287.1259765625 462.806396484375 283.41461181640625 462.774169921875 279.55029296875"/>
  </g>
</svg>
