<?xml version="1.0" encoding="utf-8"?>
<svg xmlns="http://www.w3.org/2000/svg" xmlns:ev="http://www.w3.org/2001/xml-events" xmlns:xlink="http://www.w3.org/1999/xlink" version="1.1" baseProfile="full" width="49628.0" height="1744.0" viewBox="213.0 -1596.0 49628.0 1744.0">
<defs/>
<g><path d="M 25436.000000 -1354.000000 C 25454.000000 -1352.666667 25472.000000 -1351.666667 25490.000000 -1351.000000 C 25508.000000 -1350.333333 25527.333333 -1350.000000 25548.000000 -1350.000000 C 25568.000000 -1350.000000 25599.666667 -1350.666667 25643.000000 -1352.000000 C 25687.000000 -1353.333333 25736.333333 -1354.333333 25791.000000 -1355.000000 C 25846.333333 -1356.333333 25901.666667 -1358.333333 25957.000000 -1361.000000 C 26013.000000 -1363.666667 26063.666667 -1366.000000 26109.000000 -1368.000000 C 26154.333333 -1370.000000 26188.666667 -1371.666667 26212.000000 -1373.000000 C 26222.000000 -1374.333333 26234.666667 -1375.666667 26250.000000 -1377.000000 C 26265.333333 -1379.000000 26278.333333 -1382.000000 26289.000000 -1386.000000 C 26306.666667 -1367.666667 26324.333333 -1349.333333 26342.000000 -1331.000000 C 26336.000000 -1327.000000 26326.000000 -1320.000000 26312.000000 -1310.000000 C 26298.000000 -1300.666667 26287.666667 -1292.666667 26281.000000 -1286.000000 C 26237.666667 -1248.000000 26189.333333 -1205.666667 26136.000000 -1159.000000 C 26082.666667 -1112.333333 26028.000000 -1065.333333 25972.000000 -1018.000000 C 25916.666667 -970.666667 25863.666667 -925.333333 25813.000000 -882.000000 C 25763.000000 -839.333333 25718.666667 -801.333333 25680.000000 -768.000000 C 25752.666667 -797.333333 25819.000000 -817.000000 25879.000000 -827.000000 C 25939.666667 -837.666667 25996.333333 -843.000000 26049.000000 -843.000000 C 26148.333333 -843.000000 26235.666667 -826.333333 26311.000000 -793.000000 C 26387.000000 -759.666667 26446.000000 -712.333333 26488.000000 -651.000000 C 26530.666667 -589.666667 26552.000000 -516.666667 26552.000000 -432.000000 C 26552.000000 -314.000000 26511.666667 -216.666667 26431.000000 -140.000000 C 26350.333333 -63.333333 26238.333333 -8.666667 26095.000000 24.000000 C 25951.666667 56.666667 25785.666667 65.333333 25597.000000 50.000000 C 25591.333333 29.333333 25585.666667 8.666667 25580.000000 -12.000000 C 25713.333333 4.000000 25836.000000 5.666667 25948.000000 -7.000000 C 26060.000000 -20.333333 26157.000000 -45.333333 26239.000000 -82.000000 C 26321.000000 -119.333333 26384.333333 -168.000000 26429.000000 -228.000000 C 26473.666667 -288.666667 26496.000000 -358.000000 26496.000000 -436.000000 C 26496.000000 -544.666667 26455.000000 -631.333333 26373.000000 -696.000000 C 26291.000000 -760.666667 26181.666667 -793.000000 26045.000000 -793.000000 C 25953.666667 -793.000000 25874.333333 -784.000000 25807.000000 -766.000000 C 25740.333333 -748.000000 25678.666667 -722.000000 25622.000000 -688.000000 C 25566.000000 -654.000000 25509.666667 -612.333333 25453.000000 -563.000000 C 25397.000000 -514.333333 25334.333333 -458.666667 25265.000000 -396.000000 C 25247.333333 -412.000000 25229.666667 -428.000000 25212.000000 -444.000000 C 25273.333333 -492.000000 25341.666667 -547.333333 25417.000000 -610.000000 C 25492.333333 -673.333333 25570.333333 -738.666667 25651.000000 -806.000000 C 25731.666667 -874.000000 25809.666667 -940.666667 25885.000000 -1006.000000 C 25961.000000 -1071.333333 26029.000000 -1131.333333 26089.000000 -1186.000000 C 26149.000000 -1241.333333 26197.000000 -1286.333333 26233.000000 -1321.000000 C 26206.333333 -1319.666667 26169.333333 -1318.000000 26122.000000 -1316.000000 C 26074.666667 -1314.000000 26022.000000 -1311.666667 25964.000000 -1309.000000 C 25906.666667 -1307.000000 25850.000000 -1305.000000 25794.000000 -1303.000000 C 25738.666667 -1301.000000 25689.000000 -1299.000000 25645.000000 -1297.000000 C 25601.666667 -1295.000000 25569.666667 -1293.333333 25549.000000 -1292.000000 C 25531.666667 -1290.666667 25513.333333 -1289.333333 25494.000000 -1288.000000 C 25474.666667 -1286.666667 25456.000000 -1285.000000 25438.000000 -1283.000000 C 25437.333333 -1306.666667 25436.666667 -1330.333333 25436.000000 -1354.000000z "/>
</g></svg>
