<?xml version="1.0" ?>
<svg xmlns="http://www.w3.org/2000/svg" version="1.1" width="600" height="600">
  <defs/>
  <g>
    <path stroke-width="0" fill="rgb(0, 0, 0)" opacity="1.0" d="M 211.855224609375 214.62213134765625 C 207.82098388671875 221.12289428710938 202.65438842773438 228.047607421875 196.3553466796875 235.39630126953125 C 190.12710571289062 242.67431640625 183.12030029296875 250.0230712890625 175.33502197265625 257.4423828125 C 167.62045288085938 264.86175537109375 159.41049194335938 271.99847412109375 150.70510864257812 278.8525390625 C 142.07049560546875 285.70660400390625 133.2589111328125 291.889404296875 124.27041625976562 297.40093994140625 C 123.9873046875 296.90631103515625 123.63345336914062 296.3763427734375 123.20880126953125 295.81103515625 C 122.78414916992188 295.24578857421875 122.3240966796875 294.7158203125 121.82867431640625 294.22119140625 C 121.40402221679688 293.6558837890625 120.9085693359375 293.1612548828125 120.34237670898438 292.7373046875 C 129.33087158203125 287.2965087890625 138.17782592773438 281.184326171875 146.88320922851562 274.40093994140625 C 155.588623046875 267.6175537109375 163.833984375 260.4808349609375 171.61929321289062 252.99078369140625 C 179.47537231445312 245.43011474609375 186.55294799804688 237.86944580078125 192.85195922851562 230.30877685546875 C 199.1510009765625 222.67742919921875 204.35299682617188 215.3287353515625 208.45797729492188 208.2626953125 C 210.36892700195312 208.2626953125 212.27984619140625 208.2626953125 214.1907958984375 208.2626953125 C 219.42819213867188 215.61138916015625 225.62106323242188 223.13671875 232.7694091796875 230.8387451171875 C 239.917724609375 238.47003173828125 247.63226318359375 245.9600830078125 255.91302490234375 253.3087158203125 C 264.1937561035156 260.5867919921875 272.61602783203125 267.44085693359375 281.17987060546875 273.8709716796875 C 289.74371337890625 280.23040771484375 297.98907470703125 285.77728271484375 305.91595458984375 290.51153564453125 C 305.20819091796875 291.0767822265625 304.4296875 291.85406494140625 303.58038330078125 292.84332275390625 C 302.80181884765625 293.76190185546875 302.12945556640625 294.60986328125 301.5632629394531 295.3870849609375 C 293.56561279296875 290.51153564453125 285.32025146484375 284.858642578125 276.82720947265625 278.4285888671875 C 268.3341064453125 271.99847412109375 260.01800537109375 265.1796875 251.8787841796875 257.97235107421875 C 243.81036376953125 250.7650146484375 236.34356689453125 243.4869384765625 229.47833251953125 236.13824462890625 C 222.68386840820312 228.71890258789062 216.80950927734375 221.546875 211.855224609375 214.62213134765625M 167.47891235351562 274.18896484375 C 198.053955078125 274.18896484375 228.6290283203125 274.18896484375 259.2040710449219 274.18896484375 C 259.2040710449219 276.23809814453125 259.2040710449219 278.2872314453125 259.2040710449219 280.33642578125 C 228.6290283203125 280.33642578125 198.053955078125 280.33642578125 167.47891235351562 280.33642578125 C 167.47891235351562 278.2872314453125 167.47891235351562 276.23809814453125 167.47891235351562 274.18896484375M 142.8489990234375 312.1336669921875 C 186.0574951171875 312.1336669921875 229.2659912109375 312.1336669921875 272.4744873046875 312.1336669921875 C 272.4744873046875 314.1474609375 272.4744873046875 316.1612548828125 272.4744873046875 318.17510986328125 C 229.2659912109375 318.17510986328125 186.0574951171875 318.17510986328125 142.8489990234375 318.17510986328125 C 142.8489990234375 316.1612548828125 142.8489990234375 314.1474609375 142.8489990234375 312.1336669921875M 270.3512268066406 312.1336669921875 C 270.7051086425781 312.1336669921875 271.0589599609375 312.1336669921875 271.412841796875 312.1336669921875 C 271.8375244140625 311.921630859375 272.26214599609375 311.709716796875 272.68682861328125 311.4976806640625 C 274.173095703125 312.09832763671875 275.6593933105469 312.69891357421875 277.14569091796875 313.299560546875 C 274.03155517578125 319.941650390625 270.24505615234375 327.89093017578125 265.78619384765625 337.1474609375 C 261.39813232421875 346.3333740234375 256.7623291015625 355.7664794921875 251.8787841796875 365.447021484375 C 246.99530029296875 375.05682373046875 242.3594970703125 383.995361328125 237.97140502929688 392.2626953125 C 235.98968505859375 391.66204833984375 234.00796508789062 391.0614013671875 232.0262451171875 390.4608154296875 C 235.4234619140625 384.3133544921875 238.9268798828125 377.70660400390625 242.53643798828125 370.64056396484375 C 246.14599609375 363.50384521484375 249.72015380859375 356.36712646484375 253.2589111328125 349.23040771484375 C 256.7976989746094 342.09368896484375 260.01800537109375 335.416259765625 262.9197998046875 329.1981201171875 C 265.8923645019531 322.90936279296875 268.3695068359375 317.60986328125 270.3512268066406 313.299560546875 C 270.3512268066406 312.910888671875 270.3512268066406 312.52227783203125 270.3512268066406 312.1336669921875"/>
    <path stroke-width="0" fill="rgb(0, 0, 0)" opacity="1.0" d="M 355.3880615234375 223.3133544921875 C 397.03955078125 223.3133544921875 438.69091796875 223.3133544921875 480.3424072265625 223.3133544921875 C 480.3424072265625 278.07525634765625 480.3424072265625 332.837158203125 480.3424072265625 387.59912109375 C 478.2899169921875 387.59912109375 476.2374267578125 387.59912109375 474.1849365234375 387.59912109375 C 474.1849365234375 334.8863525390625 474.1849365234375 282.173583984375 474.1849365234375 229.4608154296875 C 436.638427734375 229.4608154296875 399.092041015625 229.4608154296875 361.5455322265625 229.4608154296875 C 361.5455322265625 282.7034912109375 361.5455322265625 335.94622802734375 361.5455322265625 389.18896484375 C 359.49310302734375 389.18896484375 357.4405517578125 389.18896484375 355.3880615234375 389.18896484375 C 355.3880615234375 333.8970947265625 355.3880615234375 278.605224609375 355.3880615234375 223.3133544921875M 359.10382080078125 296.0230712890625 C 398.348876953125 296.0230712890625 437.59393310546875 296.0230712890625 476.8389892578125 296.0230712890625 C 476.8389892578125 298.00152587890625 476.8389892578125 299.98004150390625 476.8389892578125 301.95849609375 C 437.59393310546875 301.95849609375 398.348876953125 301.95849609375 359.10382080078125 301.95849609375 C 359.10382080078125 299.98004150390625 359.10382080078125 298.00152587890625 359.10382080078125 296.0230712890625M 358.67913818359375 370.110595703125 C 398.278076171875 370.110595703125 437.8770751953125 370.110595703125 477.4759521484375 370.110595703125 C 477.4759521484375 372.05377197265625 477.4759521484375 373.9969482421875 477.4759521484375 375.9400634765625 C 437.8770751953125 375.9400634765625 398.278076171875 375.9400634765625 358.67913818359375 375.9400634765625 C 358.67913818359375 373.9969482421875 358.67913818359375 372.05377197265625 358.67913818359375 370.110595703125"/>
  </g>
</svg>
