<?xml version="1.0" encoding="utf-8"?>
<svg xmlns="http://www.w3.org/2000/svg" xmlns:ev="http://www.w3.org/2001/xml-events" xmlns:xlink="http://www.w3.org/1999/xlink" version="1.1" baseProfile="full" width="17103.0" height="1740.3" viewBox="60.0 -1597.0 17103.0 1740.3">
<defs/>
<g><path d="M 134.000000 -996.000000 C 676.333333 -996.000000 1218.666667 -996.000000 1761.000000 -996.000000 C 1761.000000 -977.000000 1761.000000 -958.000000 1761.000000 -939.000000 C 1218.666667 -939.000000 676.333333 -939.000000 134.000000 -939.000000 C 134.000000 -958.000000 134.000000 -977.000000 134.000000 -996.000000z M 282.000000 -1340.000000 C 649.333333 -1340.000000 1016.666667 -1340.000000 1384.000000 -1340.000000 C 1384.000000 -1321.333333 1384.000000 -1302.666667 1384.000000 -1284.000000 C 1016.666667 -1284.000000 649.333333 -1284.000000 282.000000 -1284.000000 C 282.000000 -1302.666667 282.000000 -1321.333333 282.000000 -1340.000000z M 814.000000 -1596.000000 C 832.666667 -1596.000000 851.333333 -1596.000000 870.000000 -1596.000000 C 870.000000 -1387.333333 870.000000 -1178.666667 870.000000 -970.000000 C 851.333333 -970.000000 832.666667 -970.000000 814.000000 -970.000000 C 814.000000 -1178.666667 814.000000 -1387.333333 814.000000 -1596.000000z M 1511.000000 -776.000000 C 1526.333333 -760.666667 1541.666667 -745.333333 1557.000000 -730.000000 C 1481.666667 -709.333333 1391.666667 -690.333333 1287.000000 -673.000000 C 1183.000000 -655.666667 1074.000000 -640.000000 960.000000 -626.000000 C 846.000000 -612.000000 736.000000 -600.333333 630.000000 -591.000000 C 628.666667 -597.666667 626.000000 -605.666667 622.000000 -615.000000 C 618.000000 -625.000000 614.333333 -632.333333 611.000000 -637.000000 C 689.000000 -645.000000 769.666667 -654.000000 853.000000 -664.000000 C 937.000000 -674.666667 1019.666667 -685.666667 1101.000000 -697.000000 C 1182.333333 -708.333333 1258.333333 -720.666667 1329.000000 -734.000000 C 1400.333333 -748.000000 1461.000000 -762.000000 1511.000000 -776.000000z M 1634.000000 -1494.000000 C 1650.000000 -1483.666667 1666.000000 -1473.333333 1682.000000 -1463.000000 C 1550.000000 -1311.666667 1399.333333 -1173.333333 1230.000000 -1048.000000 C 1061.333333 -922.666667 881.333333 -810.000000 690.000000 -710.000000 C 498.666667 -610.666667 303.333333 -523.666667 104.000000 -449.000000 C 101.333333 -454.333333 97.333333 -460.000000 92.000000 -466.000000 C 86.666667 -472.666667 81.000000 -479.000000 75.000000 -485.000000 C 69.666667 -491.666667 64.666667 -497.000000 60.000000 -501.000000 C 263.333333 -571.666667 461.333333 -656.333333 654.000000 -755.000000 C 846.666667 -854.333333 1026.666667 -966.000000 1194.000000 -1090.000000 C 1362.000000 -1214.666667 1508.666667 -1349.333333 1634.000000 -1494.000000z M 624.000000 -780.000000 C 643.333333 -777.333333 662.666667 -774.666667 682.000000 -772.000000 C 670.000000 -715.333333 656.000000 -654.666667 640.000000 -590.000000 C 624.000000 -525.333333 608.000000 -463.000000 592.000000 -403.000000 C 576.000000 -343.000000 561.000000 -290.666667 547.000000 -246.000000 C 528.000000 -249.000000 509.000000 -252.000000 490.000000 -255.000000 C 505.333333 -300.333333 521.000000 -353.333333 537.000000 -414.000000 C 553.000000 -474.666667 568.666667 -537.333333 584.000000 -602.000000 C 599.333333 -666.666667 612.666667 -726.000000 624.000000 -780.000000z M 1490.000000 -405.000000 C 1509.666667 -405.000000 1529.333333 -405.000000 1549.000000 -405.000000 C 1549.000000 -405.000000 1548.666667 -402.666667 1548.000000 -398.000000 C 1548.000000 -394.000000 1548.000000 -389.000000 1548.000000 -383.000000 C 1548.000000 -377.000000 1547.333333 -372.333333 1546.000000 -369.000000 C 1530.666667 -267.666667 1515.666667 -184.666667 1501.000000 -120.000000 C 1487.000000 -55.333333 1472.000000 -5.000000 1456.000000 31.000000 C 1440.000000 67.666667 1422.000000 95.000000 1402.000000 113.000000 C 1387.333333 125.000000 1371.666667 132.666667 1355.000000 136.000000 C 1339.000000 140.000000 1317.333333 142.000000 1290.000000 142.000000 C 1263.333333 143.333333 1222.666667 143.000000 1168.000000 141.000000 C 1114.000000 139.000000 1056.666667 135.666667 996.000000 131.000000 C 995.333333 124.333333 993.333333 115.666667 990.000000 105.000000 C 986.666667 95.000000 982.333333 85.666667 977.000000 77.000000 C 1042.333333 83.000000 1103.666667 87.000000 1161.000000 89.000000 C 1219.000000 91.000000 1258.333333 92.000000 1279.000000 92.000000 C 1300.333333 92.000000 1317.000000 91.000000 1329.000000 89.000000 C 1341.666667 87.000000 1352.333333 82.333333 1361.000000 75.000000 C 1387.000000 53.000000 1409.666667 7.333333 1429.000000 -62.000000 C 1449.000000 -132.000000 1469.333333 -242.666667 1490.000000 -394.000000 C 1490.000000 -397.666667 1490.000000 -401.333333 1490.000000 -405.000000z M 547.000000 -405.000000 C 869.666667 -405.000000 1192.333333 -405.000000 1515.000000 -405.000000 C 1515.000000 -386.000000 1515.000000 -367.000000 1515.000000 -348.000000 C 1190.000000 -348.000000 865.000000 -348.000000 540.000000 -348.000000 C 542.333333 -367.000000 544.666667 -386.000000 547.000000 -405.000000z "/>
</g>
<g><path d="M 2112.000000 -1482.000000 C 2263.000000 -1482.000000 2414.000000 -1482.000000 2565.000000 -1482.000000 C 2565.000000 -1048.666667 2565.000000 -615.333333 2565.000000 -182.000000 C 2414.000000 -182.000000 2263.000000 -182.000000 2112.000000 -182.000000 C 2112.000000 -201.333333 2112.000000 -220.666667 2112.000000 -240.000000 C 2244.333333 -240.000000 2376.666667 -240.000000 2509.000000 -240.000000 C 2509.000000 -635.666667 2509.000000 -1031.333333 2509.000000 -1427.000000 C 2376.666667 -1427.000000 2244.333333 -1427.000000 2112.000000 -1427.000000 C 2112.000000 -1445.333333 2112.000000 -1463.666667 2112.000000 -1482.000000z M 2112.000000 -1077.000000 C 2256.666667 -1077.000000 2401.333333 -1077.000000 2546.000000 -1077.000000 C 2546.000000 -1058.000000 2546.000000 -1039.000000 2546.000000 -1020.000000 C 2401.333333 -1020.000000 2256.666667 -1020.000000 2112.000000 -1020.000000 C 2112.000000 -1039.000000 2112.000000 -1058.000000 2112.000000 -1077.000000z M 2112.000000 -662.000000 C 2256.666667 -662.000000 2401.333333 -662.000000 2546.000000 -662.000000 C 2546.000000 -643.666667 2546.000000 -625.333333 2546.000000 -607.000000 C 2401.333333 -607.000000 2256.666667 -607.000000 2112.000000 -607.000000 C 2112.000000 -625.333333 2112.000000 -643.666667 2112.000000 -662.000000z M 2081.000000 -1482.000000 C 2100.333333 -1482.000000 2119.666667 -1482.000000 2139.000000 -1482.000000 C 2139.000000 -993.666667 2139.000000 -505.333333 2139.000000 -17.000000 C 2119.666667 -17.000000 2100.333333 -17.000000 2081.000000 -17.000000 C 2081.000000 -505.333333 2081.000000 -993.666667 2081.000000 -1482.000000z M 2813.000000 -1498.000000 C 3101.666667 -1498.000000 3390.333333 -1498.000000 3679.000000 -1498.000000 C 3679.000000 -1336.666667 3679.000000 -1175.333333 3679.000000 -1014.000000 C 3390.333333 -1014.000000 3101.666667 -1014.000000 2813.000000 -1014.000000 C 2813.000000 -1033.000000 2813.000000 -1052.000000 2813.000000 -1071.000000 C 3082.333333 -1071.000000 3351.666667 -1071.000000 3621.000000 -1071.000000 C 3621.000000 -1194.666667 3621.000000 -1318.333333 3621.000000 -1442.000000 C 3351.666667 -1442.000000 3082.333333 -1442.000000 2813.000000 -1442.000000 C 2813.000000 -1460.666667 2813.000000 -1479.333333 2813.000000 -1498.000000z M 2817.000000 -670.000000 C 3128.000000 -670.000000 3439.000000 -670.000000 3750.000000 -670.000000 C 3750.000000 -651.333333 3750.000000 -632.666667 3750.000000 -614.000000 C 3439.000000 -614.000000 3128.000000 -614.000000 2817.000000 -614.000000 C 2817.000000 -632.666667 2817.000000 -651.333333 2817.000000 -670.000000z M 2782.000000 -1498.000000 C 2800.666667 -1498.000000 2819.333333 -1498.000000 2838.000000 -1498.000000 C 2838.000000 -984.666667 2838.000000 -471.333333 2838.000000 42.000000 C 2819.333333 42.000000 2800.666667 42.000000 2782.000000 42.000000 C 2782.000000 -471.333333 2782.000000 -984.666667 2782.000000 -1498.000000z M 2575.000000 56.000000 C 2637.666667 45.333333 2710.000000 32.666667 2792.000000 18.000000 C 2874.666667 3.333333 2962.333333 -12.666667 3055.000000 -30.000000 C 3148.333333 -47.333333 3242.333333 -64.333333 3337.000000 -81.000000 C 3338.333333 -64.333333 3339.666667 -47.666667 3341.000000 -31.000000 C 3207.666667 -3.666667 3074.666667 22.333333 2942.000000 47.000000 C 2810.000000 71.666667 2694.000000 93.666667 2594.000000 113.000000 C 2587.666667 94.000000 2581.333333 75.000000 2575.000000 56.000000z M 3239.000000 -1062.000000 C 3259.000000 -1062.000000 3279.000000 -1062.000000 3299.000000 -1062.000000 C 3301.000000 -889.333333 3312.333333 -733.333333 3333.000000 -594.000000 C 3353.666667 -455.333333 3381.333333 -336.666667 3416.000000 -238.000000 C 3450.666667 -139.333333 3489.333333 -63.666667 3532.000000 -11.000000 C 3574.666667 41.000000 3619.666667 67.000000 3667.000000 67.000000 C 3691.666667 65.666667 3709.000000 41.666667 3719.000000 -5.000000 C 3729.000000 -51.666667 3736.000000 -126.666667 3740.000000 -230.000000 C 3748.000000 -224.000000 3756.666667 -218.333333 3766.000000 -213.000000 C 3775.333333 -207.666667 3784.666667 -204.000000 3794.000000 -202.000000 C 3790.000000 -121.333333 3783.333333 -57.333333 3774.000000 -10.000000 C 3765.333333 37.333333 3752.333333 71.666667 3735.000000 93.000000 C 3717.666667 114.333333 3694.333333 125.000000 3665.000000 125.000000 C 3616.333333 125.000000 3571.000000 105.666667 3529.000000 67.000000 C 3487.000000 29.000000 3449.000000 -25.333333 3415.000000 -96.000000 C 3381.000000 -166.666667 3351.333333 -250.666667 3326.000000 -348.000000 C 3301.333333 -446.000000 3281.666667 -555.000000 3267.000000 -675.000000 C 3252.333333 -795.666667 3243.000000 -924.666667 3239.000000 -1062.000000z "/>
</g>
<g><path d="M 4706.000000 -1027.000000 C 4951.666667 -1027.000000 5197.333333 -1027.000000 5443.000000 -1027.000000 C 5443.000000 -1008.666667 5443.000000 -990.333333 5443.000000 -972.000000 C 5197.333333 -972.000000 4951.666667 -972.000000 4706.000000 -972.000000 C 4706.000000 -990.333333 4706.000000 -1008.666667 4706.000000 -1027.000000z M 4564.000000 -666.000000 C 4910.666667 -666.000000 5257.333333 -666.000000 5604.000000 -666.000000 C 5604.000000 -647.666667 5604.000000 -629.333333 5604.000000 -611.000000 C 5257.333333 -611.000000 4910.666667 -611.000000 4564.000000 -611.000000 C 4564.000000 -629.333333 4564.000000 -647.666667 4564.000000 -666.000000z M 5063.000000 -1530.000000 C 5025.666667 -1464.666667 4977.666667 -1397.000000 4919.000000 -1327.000000 C 4860.333333 -1257.666667 4795.000000 -1191.000000 4723.000000 -1127.000000 C 4651.666667 -1063.000000 4577.000000 -1006.000000 4499.000000 -956.000000 C 4495.000000 -962.666667 4489.333333 -970.000000 4482.000000 -978.000000 C 4475.333333 -986.666667 4468.666667 -993.333333 4462.000000 -998.000000 C 4540.000000 -1045.333333 4615.333333 -1101.333333 4688.000000 -1166.000000 C 4761.333333 -1230.666667 4827.666667 -1299.333333 4887.000000 -1372.000000 C 4947.000000 -1445.333333 4994.666667 -1517.333333 5030.000000 -1588.000000 C 5049.333333 -1588.000000 5068.666667 -1588.000000 5088.000000 -1588.000000 C 5135.333333 -1513.333333 5192.000000 -1440.000000 5258.000000 -1368.000000 C 5324.000000 -1296.666667 5394.000000 -1230.333333 5468.000000 -1169.000000 C 5542.666667 -1107.666667 5614.333333 -1056.000000 5683.000000 -1014.000000 C 5678.333333 -1008.666667 5672.000000 -1001.333333 5664.000000 -992.000000 C 5656.000000 -983.333333 5650.333333 -976.000000 5647.000000 -970.000000 C 5576.333333 -1016.000000 5504.333333 -1069.333333 5431.000000 -1130.000000 C 5358.333333 -1190.666667 5290.000000 -1255.333333 5226.000000 -1324.000000 C 5162.000000 -1393.333333 5107.666667 -1462.000000 5063.000000 -1530.000000z M 5036.000000 -1008.000000 C 5055.333333 -1008.000000 5074.666667 -1008.000000 5094.000000 -1008.000000 C 5094.000000 -657.333333 5094.000000 -306.666667 5094.000000 44.000000 C 5094.000000 68.666667 5090.000000 87.000000 5082.000000 99.000000 C 5074.666667 111.000000 5061.333333 119.666667 5042.000000 125.000000 C 5024.000000 129.666667 4996.000000 132.333333 4958.000000 133.000000 C 4920.666667 133.666667 4870.000000 134.000000 4806.000000 134.000000 C 4804.666667 128.000000 4801.333333 119.333333 4796.000000 108.000000 C 4790.666667 97.333333 4785.666667 87.666667 4781.000000 79.000000 C 4835.666667 80.333333 4883.000000 81.000000 4923.000000 81.000000 C 4963.666667 81.000000 4990.666667 81.000000 5004.000000 81.000000 C 5018.000000 79.666667 5026.666667 76.666667 5030.000000 72.000000 C 5034.000000 67.333333 5036.000000 58.666667 5036.000000 46.000000 C 5036.000000 -305.333333 5036.000000 -656.666667 5036.000000 -1008.000000z M 4740.000000 -476.000000 C 4758.000000 -471.666667 4776.000000 -467.333333 4794.000000 -463.000000 C 4762.000000 -377.000000 4720.666667 -293.333333 4670.000000 -212.000000 C 4620.000000 -130.666667 4567.333333 -61.333333 4512.000000 -4.000000 C 4509.333333 -8.000000 4505.000000 -12.000000 4499.000000 -16.000000 C 4493.666667 -20.666667 4488.000000 -25.333333 4482.000000 -30.000000 C 4476.666667 -35.333333 4471.333333 -39.333333 4466.000000 -42.000000 C 4522.000000 -97.333333 4573.666667 -163.000000 4621.000000 -239.000000 C 4668.333333 -315.000000 4708.000000 -394.000000 4740.000000 -476.000000z M 5313.000000 -451.000000 C 5327.666667 -458.666667 5342.333333 -466.333333 5357.000000 -474.000000 C 5393.666667 -429.333333 5430.666667 -380.666667 5468.000000 -328.000000 C 5505.333333 -276.000000 5540.000000 -225.333333 5572.000000 -176.000000 C 5604.000000 -126.666667 5629.666667 -83.333333 5649.000000 -46.000000 C 5633.000000 -36.333333 5617.000000 -26.666667 5601.000000 -17.000000 C 5581.666667 -54.333333 5556.000000 -98.333333 5524.000000 -149.000000 C 5492.000000 -199.666667 5457.666667 -251.333333 5421.000000 -304.000000 C 5384.333333 -357.333333 5348.333333 -406.333333 5313.000000 -451.000000z M 4013.000000 -1511.000000 C 4163.333333 -1511.000000 4313.666667 -1511.000000 4464.000000 -1511.000000 C 4464.000000 -1492.333333 4464.000000 -1473.666667 4464.000000 -1455.000000 C 4332.666667 -1455.000000 4201.333333 -1455.000000 4070.000000 -1455.000000 C 4070.000000 -925.333333 4070.000000 -395.666667 4070.000000 134.000000 C 4051.000000 134.000000 4032.000000 134.000000 4013.000000 134.000000 C 4013.000000 -414.333333 4013.000000 -962.666667 4013.000000 -1511.000000z M 4449.000000 -1511.000000 C 4452.666667 -1511.000000 4456.333333 -1511.000000 4460.000000 -1511.000000 C 4464.000000 -1512.333333 4468.000000 -1513.666667 4472.000000 -1515.000000 C 4484.000000 -1506.000000 4496.000000 -1497.000000 4508.000000 -1488.000000 C 4487.333333 -1438.000000 4465.000000 -1384.666667 4441.000000 -1328.000000 C 4417.666667 -1272.000000 4393.666667 -1215.333333 4369.000000 -1158.000000 C 4344.333333 -1101.333333 4319.000000 -1047.000000 4293.000000 -995.000000 C 4375.000000 -910.333333 4429.333333 -832.000000 4456.000000 -760.000000 C 4483.333333 -688.666667 4497.000000 -621.000000 4497.000000 -557.000000 C 4497.000000 -515.666667 4491.666667 -476.666667 4481.000000 -440.000000 C 4471.000000 -404.000000 4454.333333 -377.666667 4431.000000 -361.000000 C 4419.666667 -353.000000 4406.333333 -346.666667 4391.000000 -342.000000 C 4375.666667 -338.000000 4359.000000 -334.666667 4341.000000 -332.000000 C 4296.333333 -328.000000 4251.666667 -328.000000 4207.000000 -332.000000 C 4205.666667 -338.666667 4203.333333 -347.333333 4200.000000 -358.000000 C 4196.666667 -368.666667 4192.000000 -378.666667 4186.000000 -388.000000 C 4212.666667 -386.666667 4237.666667 -385.666667 4261.000000 -385.000000 C 4285.000000 -384.333333 4306.666667 -384.666667 4326.000000 -386.000000 C 4354.000000 -388.666667 4376.333333 -395.000000 4393.000000 -405.000000 C 4411.000000 -417.666667 4423.333333 -438.333333 4430.000000 -467.000000 C 4437.333333 -496.333333 4441.000000 -526.333333 4441.000000 -557.000000 C 4441.000000 -617.000000 4426.333333 -682.000000 4397.000000 -752.000000 C 4367.666667 -822.666667 4311.333333 -901.000000 4228.000000 -987.000000 C 4249.333333 -1031.666667 4270.333333 -1076.666667 4291.000000 -1122.000000 C 4311.666667 -1167.333333 4331.666667 -1212.000000 4351.000000 -1256.000000 C 4370.333333 -1300.666667 4388.000000 -1343.333333 4404.000000 -1384.000000 C 4420.666667 -1425.333333 4435.666667 -1463.333333 4449.000000 -1498.000000 C 4449.000000 -1502.333333 4449.000000 -1506.666667 4449.000000 -1511.000000z "/>
</g>
<g><path d="M 5873.000000 -943.000000 C 6438.333333 -943.000000 7003.666667 -943.000000 7569.000000 -943.000000 C 7569.000000 -924.333333 7569.000000 -905.666667 7569.000000 -887.000000 C 7003.666667 -887.000000 6438.333333 -887.000000 5873.000000 -887.000000 C 5873.000000 -905.666667 5873.000000 -924.333333 5873.000000 -943.000000z M 6044.000000 -1319.000000 C 6419.666667 -1319.000000 6795.333333 -1319.000000 7171.000000 -1319.000000 C 7171.000000 -1300.333333 7171.000000 -1281.666667 7171.000000 -1263.000000 C 6795.333333 -1263.000000 6419.666667 -1263.000000 6044.000000 -1263.000000 C 6044.000000 -1281.666667 6044.000000 -1300.333333 6044.000000 -1319.000000z M 6330.000000 -324.000000 C 6647.000000 -324.000000 6964.000000 -324.000000 7281.000000 -324.000000 C 7281.000000 -305.000000 7281.000000 -286.000000 7281.000000 -267.000000 C 6964.000000 -267.000000 6647.000000 -267.000000 6330.000000 -267.000000 C 6330.000000 -286.000000 6330.000000 -305.000000 6330.000000 -324.000000z M 6330.000000 10.000000 C 6647.000000 10.000000 6964.000000 10.000000 7281.000000 10.000000 C 7281.000000 28.333333 7281.000000 46.666667 7281.000000 65.000000 C 6964.000000 65.000000 6647.000000 65.000000 6330.000000 65.000000 C 6330.000000 46.666667 6330.000000 28.333333 6330.000000 10.000000z M 6578.000000 -1596.000000 C 6596.666667 -1596.000000 6615.333333 -1596.000000 6634.000000 -1596.000000 C 6634.000000 -1370.000000 6634.000000 -1144.000000 6634.000000 -918.000000 C 6615.333333 -918.000000 6596.666667 -918.000000 6578.000000 -918.000000 C 6578.000000 -1144.000000 6578.000000 -1370.000000 6578.000000 -1596.000000z M 7415.000000 -1519.000000 C 7431.000000 -1508.666667 7447.000000 -1498.333333 7463.000000 -1488.000000 C 7332.333333 -1326.666667 7183.333333 -1177.666667 7016.000000 -1041.000000 C 6849.333333 -905.000000 6671.000000 -782.666667 6481.000000 -674.000000 C 6291.000000 -565.333333 6094.666667 -470.666667 5892.000000 -390.000000 C 5890.000000 -394.666667 5886.000000 -400.000000 5880.000000 -406.000000 C 5874.000000 -412.000000 5868.000000 -418.000000 5862.000000 -424.000000 C 5856.666667 -430.666667 5851.333333 -436.000000 5846.000000 -440.000000 C 6052.666667 -516.666667 6252.000000 -609.000000 6444.000000 -717.000000 C 6636.000000 -825.000000 6814.666667 -946.333333 6980.000000 -1081.000000 C 7146.000000 -1216.333333 7291.000000 -1362.333333 7415.000000 -1519.000000z M 6301.000000 -636.000000 C 6639.666667 -636.000000 6978.333333 -636.000000 7317.000000 -636.000000 C 7317.000000 -381.666667 7317.000000 -127.333333 7317.000000 127.000000 C 7298.000000 127.000000 7279.000000 127.000000 7260.000000 127.000000 C 7260.000000 -108.666667 7260.000000 -344.333333 7260.000000 -580.000000 C 6959.666667 -580.000000 6659.333333 -580.000000 6359.000000 -580.000000 C 6359.000000 -342.000000 6359.000000 -104.000000 6359.000000 134.000000 C 6339.666667 134.000000 6320.333333 134.000000 6301.000000 134.000000 C 6301.000000 -122.666667 6301.000000 -379.333333 6301.000000 -636.000000z "/>
</g>
<g><path d="M 8876.000000 -1594.000000 C 8895.333333 -1594.000000 8914.666667 -1594.000000 8934.000000 -1594.000000 C 8934.000000 -1503.666667 8934.000000 -1413.333333 8934.000000 -1323.000000 C 8914.666667 -1323.000000 8895.333333 -1323.000000 8876.000000 -1323.000000 C 8876.000000 -1413.333333 8876.000000 -1503.666667 8876.000000 -1594.000000z M 8381.000000 -1363.000000 C 8744.333333 -1363.000000 9107.666667 -1363.000000 9471.000000 -1363.000000 C 9471.000000 -1255.666667 9471.000000 -1148.333333 9471.000000 -1041.000000 C 9452.666667 -1041.000000 9434.333333 -1041.000000 9416.000000 -1041.000000 C 9416.000000 -1129.333333 9416.000000 -1217.666667 9416.000000 -1306.000000 C 9089.333333 -1306.000000 8762.666667 -1306.000000 8436.000000 -1306.000000 C 8436.000000 -1217.000000 8436.000000 -1128.000000 8436.000000 -1039.000000 C 8417.666667 -1039.000000 8399.333333 -1039.000000 8381.000000 -1039.000000 C 8381.000000 -1147.000000 8381.000000 -1255.000000 8381.000000 -1363.000000z M 8544.000000 -1033.000000 C 8798.666667 -1033.000000 9053.333333 -1033.000000 9308.000000 -1033.000000 C 9308.000000 -1014.333333 9308.000000 -995.666667 9308.000000 -977.000000 C 9053.333333 -977.000000 8798.666667 -977.000000 8544.000000 -977.000000 C 8544.000000 -995.666667 8544.000000 -1014.333333 8544.000000 -1033.000000z M 8396.000000 -678.000000 C 8760.333333 -678.000000 9124.666667 -678.000000 9489.000000 -678.000000 C 9489.000000 -659.333333 9489.000000 -640.666667 9489.000000 -622.000000 C 9124.666667 -622.000000 8760.333333 -622.000000 8396.000000 -622.000000 C 8396.000000 -640.666667 8396.000000 -659.333333 8396.000000 -678.000000z M 8696.000000 -664.000000 C 8715.666667 -664.000000 8735.333333 -664.000000 8755.000000 -664.000000 C 8749.000000 -562.000000 8737.666667 -469.000000 8721.000000 -385.000000 C 8704.333333 -301.000000 8679.666667 -225.666667 8647.000000 -159.000000 C 8614.333333 -93.000000 8570.000000 -35.333333 8514.000000 14.000000 C 8458.666667 63.333333 8388.000000 104.666667 8302.000000 138.000000 C 8299.333333 134.000000 8295.666667 129.333333 8291.000000 124.000000 C 8287.000000 119.333333 8282.333333 114.333333 8277.000000 109.000000 C 8271.666667 104.333333 8266.666667 100.666667 8262.000000 98.000000 C 8346.000000 66.000000 8415.000000 26.333333 8469.000000 -21.000000 C 8523.000000 -68.333333 8565.666667 -123.333333 8597.000000 -186.000000 C 8628.333333 -248.666667 8651.333333 -320.000000 8666.000000 -400.000000 C 8680.666667 -480.000000 8690.666667 -568.000000 8696.000000 -664.000000z M 9053.000000 -662.000000 C 9071.333333 -662.000000 9089.666667 -662.000000 9108.000000 -662.000000 C 9108.000000 -443.333333 9108.000000 -224.666667 9108.000000 -6.000000 C 9108.000000 14.666667 9112.000000 27.666667 9120.000000 33.000000 C 9128.000000 39.000000 9146.000000 42.000000 9174.000000 42.000000 C 9182.666667 42.000000 9200.333333 42.000000 9227.000000 42.000000 C 9254.333333 42.000000 9282.333333 42.000000 9311.000000 42.000000 C 9339.666667 42.000000 9359.333333 42.000000 9370.000000 42.000000 C 9387.333333 42.000000 9400.333333 36.333333 9409.000000 25.000000 C 9418.333333 13.666667 9425.000000 -10.000000 9429.000000 -46.000000 C 9433.000000 -82.000000 9435.666667 -137.000000 9437.000000 -211.000000 C 9441.666667 -207.000000 9447.000000 -203.000000 9453.000000 -199.000000 C 9459.000000 -195.666667 9465.333333 -192.666667 9472.000000 -190.000000 C 9479.333333 -187.333333 9485.666667 -185.333333 9491.000000 -184.000000 C 9489.666667 -108.666667 9485.666667 -50.000000 9479.000000 -8.000000 C 9472.333333 33.333333 9461.000000 61.666667 9445.000000 77.000000 C 9429.000000 92.333333 9405.666667 100.000000 9375.000000 100.000000 C 9370.333333 100.000000 9358.000000 100.000000 9338.000000 100.000000 C 9318.000000 100.000000 9296.000000 100.000000 9272.000000 100.000000 C 9248.666667 100.000000 9227.333333 100.000000 9208.000000 100.000000 C 9189.333333 100.000000 9177.333333 100.000000 9172.000000 100.000000 C 9141.333333 100.000000 9117.333333 97.333333 9100.000000 92.000000 C 9082.666667 86.666667 9070.333333 76.333333 9063.000000 61.000000 C 9056.333333 45.666667 9053.000000 23.333333 9053.000000 -6.000000 C 9053.000000 -224.666667 9053.000000 -443.333333 9053.000000 -662.000000z M 7853.000000 -1511.000000 C 8003.333333 -1511.000000 8153.666667 -1511.000000 8304.000000 -1511.000000 C 8304.000000 -1492.333333 8304.000000 -1473.666667 8304.000000 -1455.000000 C 8172.666667 -1455.000000 8041.333333 -1455.000000 7910.000000 -1455.000000 C 7910.000000 -925.333333 7910.000000 -395.666667 7910.000000 134.000000 C 7891.000000 134.000000 7872.000000 134.000000 7853.000000 134.000000 C 7853.000000 -414.333333 7853.000000 -962.666667 7853.000000 -1511.000000z M 8289.000000 -1511.000000 C 8292.666667 -1511.000000 8296.333333 -1511.000000 8300.000000 -1511.000000 C 8304.000000 -1512.333333 8308.000000 -1513.666667 8312.000000 -1515.000000 C 8324.000000 -1506.000000 8336.000000 -1497.000000 8348.000000 -1488.000000 C 8327.333333 -1438.000000 8305.000000 -1384.666667 8281.000000 -1328.000000 C 8257.666667 -1272.000000 8233.666667 -1215.333333 8209.000000 -1158.000000 C 8184.333333 -1101.333333 8159.000000 -1047.000000 8133.000000 -995.000000 C 8215.000000 -910.333333 8269.333333 -832.000000 8296.000000 -760.000000 C 8323.333333 -688.666667 8337.000000 -621.000000 8337.000000 -557.000000 C 8337.000000 -515.666667 8331.666667 -476.666667 8321.000000 -440.000000 C 8311.000000 -404.000000 8294.333333 -377.666667 8271.000000 -361.000000 C 8259.666667 -353.000000 8246.333333 -346.666667 8231.000000 -342.000000 C 8215.666667 -338.000000 8199.000000 -334.666667 8181.000000 -332.000000 C 8136.333333 -328.000000 8091.666667 -328.000000 8047.000000 -332.000000 C 8045.666667 -338.666667 8043.333333 -347.333333 8040.000000 -358.000000 C 8036.666667 -368.666667 8032.000000 -378.666667 8026.000000 -388.000000 C 8052.666667 -386.666667 8077.666667 -385.666667 8101.000000 -385.000000 C 8125.000000 -384.333333 8146.666667 -384.666667 8166.000000 -386.000000 C 8194.000000 -388.666667 8216.333333 -395.000000 8233.000000 -405.000000 C 8251.000000 -417.666667 8263.333333 -438.333333 8270.000000 -467.000000 C 8277.333333 -496.333333 8281.000000 -526.333333 8281.000000 -557.000000 C 8281.000000 -617.000000 8266.333333 -682.000000 8237.000000 -752.000000 C 8207.666667 -822.666667 8151.333333 -901.000000 8068.000000 -987.000000 C 8089.333333 -1031.666667 8110.333333 -1076.666667 8131.000000 -1122.000000 C 8151.666667 -1167.333333 8171.666667 -1212.000000 8191.000000 -1256.000000 C 8210.333333 -1300.666667 8228.000000 -1343.333333 8244.000000 -1384.000000 C 8260.666667 -1425.333333 8275.666667 -1463.333333 8289.000000 -1498.000000 C 8289.000000 -1502.333333 8289.000000 -1506.666667 8289.000000 -1511.000000z "/>
</g>
<g><path d="M 10116.000000 -1114.000000 C 10134.000000 -1105.666667 10152.000000 -1097.333333 10170.000000 -1089.000000 C 10146.000000 -1039.000000 10119.000000 -986.000000 10089.000000 -930.000000 C 10059.666667 -874.666667 10029.666667 -820.666667 9999.000000 -768.000000 C 9968.333333 -715.333333 9939.000000 -669.333333 9911.000000 -630.000000 C 9896.333333 -638.333333 9881.666667 -646.666667 9867.000000 -655.000000 C 9895.000000 -694.333333 9924.333333 -741.000000 9955.000000 -795.000000 C 9985.666667 -849.666667 10015.333333 -905.000000 10044.000000 -961.000000 C 10073.333333 -1017.666667 10097.333333 -1068.666667 10116.000000 -1114.000000z M 10393.000000 -822.000000 C 10411.000000 -813.666667 10429.000000 -805.333333 10447.000000 -797.000000 C 10408.333333 -731.666667 10365.333333 -662.666667 10318.000000 -590.000000 C 10270.666667 -518.000000 10221.666667 -445.333333 10171.000000 -372.000000 C 10120.333333 -299.333333 10069.666667 -229.666667 10019.000000 -163.000000 C 9969.000000 -96.333333 9921.000000 -37.000000 9875.000000 15.000000 C 9860.000000 6.000000 9845.000000 -3.000000 9830.000000 -12.000000 C 9876.666667 -64.000000 9925.000000 -123.333333 9975.000000 -190.000000 C 10025.666667 -256.666667 10076.333333 -326.666667 10127.000000 -400.000000 C 10177.666667 -474.000000 10226.000000 -547.000000 10272.000000 -619.000000 C 10318.000000 -691.666667 10358.333333 -759.333333 10393.000000 -822.000000z M 10249.000000 -330.000000 C 10265.666667 -336.333333 10282.333333 -342.666667 10299.000000 -349.000000 C 10335.000000 -303.000000 10369.000000 -253.000000 10401.000000 -199.000000 C 10433.000000 -145.666667 10461.333333 -92.333333 10486.000000 -39.000000 C 10511.333333 13.666667 10529.666667 61.333333 10541.000000 104.000000 C 10523.000000 111.666667 10505.000000 119.333333 10487.000000 127.000000 C 10475.666667 84.333333 10457.666667 36.666667 10433.000000 -16.000000 C 10409.000000 -69.333333 10381.000000 -123.333333 10349.000000 -178.000000 C 10317.000000 -233.333333 10283.666667 -284.000000 10249.000000 -330.000000z M 9754.000000 -724.000000 C 9767.333333 -736.000000 9780.666667 -748.000000 9794.000000 -760.000000 C 9842.666667 -723.333333 9890.666667 -682.666667 9938.000000 -638.000000 C 9985.333333 -594.000000 10029.000000 -550.000000 10069.000000 -506.000000 C 10109.666667 -462.000000 10142.000000 -422.000000 10166.000000 -386.000000 C 10151.333333 -372.666667 10136.666667 -359.333333 10122.000000 -346.000000 C 10098.000000 -381.333333 10065.666667 -421.333333 10025.000000 -466.000000 C 9985.000000 -511.333333 9941.333333 -556.666667 9894.000000 -602.000000 C 9846.666667 -647.333333 9800.000000 -688.000000 9754.000000 -724.000000z M 9700.000000 -25.000000 C 9794.666667 -31.666667 9908.333333 -39.333333 10041.000000 -48.000000 C 10174.333333 -56.666667 10311.000000 -65.666667 10451.000000 -75.000000 C 10451.000000 -58.333333 10451.000000 -41.666667 10451.000000 -25.000000 C 10315.000000 -13.666667 10182.000000 -2.666667 10052.000000 8.000000 C 9922.000000 19.333333 9807.666667 28.333333 9709.000000 35.000000 C 9706.000000 15.000000 9703.000000 -5.000000 9700.000000 -25.000000z M 10913.000000 -1114.000000 C 10931.666667 -1105.666667 10950.333333 -1097.333333 10969.000000 -1089.000000 C 10943.666667 -1037.666667 10915.000000 -983.000000 10883.000000 -925.000000 C 10851.000000 -867.666667 10818.666667 -812.000000 10786.000000 -758.000000 C 10753.333333 -704.666667 10722.000000 -657.333333 10692.000000 -616.000000 C 10677.333333 -623.000000 10662.666667 -630.000000 10648.000000 -637.000000 C 10677.333333 -678.333333 10708.333333 -727.000000 10741.000000 -783.000000 C 10773.666667 -839.666667 10805.333333 -897.000000 10836.000000 -955.000000 C 10867.333333 -1013.666667 10893.000000 -1066.666667 10913.000000 -1114.000000z M 11199.000000 -824.000000 C 11217.666667 -815.666667 11236.333333 -807.333333 11255.000000 -799.000000 C 11215.666667 -733.666667 11172.000000 -664.000000 11124.000000 -590.000000 C 11076.000000 -516.666667 11026.000000 -443.000000 10974.000000 -369.000000 C 10922.000000 -295.666667 10870.333333 -225.333333 10819.000000 -158.000000 C 10767.666667 -91.333333 10719.000000 -31.666667 10673.000000 21.000000 C 10658.333333 12.666667 10643.666667 4.333333 10629.000000 -4.000000 C 10675.000000 -56.666667 10724.000000 -116.666667 10776.000000 -184.000000 C 10828.000000 -252.000000 10879.333333 -323.333333 10930.000000 -398.000000 C 10981.333333 -473.333333 11030.333333 -547.333333 11077.000000 -620.000000 C 11124.333333 -693.333333 11165.000000 -761.333333 11199.000000 -824.000000z M 11078.000000 -342.000000 C 11094.666667 -349.666667 11111.333333 -357.333333 11128.000000 -365.000000 C 11170.666667 -317.666667 11211.000000 -266.000000 11249.000000 -210.000000 C 11287.666667 -154.666667 11322.000000 -99.666667 11352.000000 -45.000000 C 11382.000000 9.000000 11404.666667 58.000000 11420.000000 102.000000 C 11402.000000 110.333333 11384.000000 118.666667 11366.000000 127.000000 C 11350.666667 83.000000 11328.000000 33.666667 11298.000000 -21.000000 C 11268.000000 -76.333333 11234.000000 -131.666667 11196.000000 -187.000000 C 11158.666667 -243.000000 11119.333333 -294.666667 11078.000000 -342.000000z M 10527.000000 -724.000000 C 10541.333333 -736.000000 10555.666667 -748.000000 10570.000000 -760.000000 C 10619.333333 -722.000000 10669.000000 -679.666667 10719.000000 -633.000000 C 10769.000000 -587.000000 10815.000000 -541.666667 10857.000000 -497.000000 C 10899.666667 -452.333333 10933.666667 -411.333333 10959.000000 -374.000000 C 10943.666667 -360.666667 10928.333333 -347.333333 10913.000000 -334.000000 C 10887.666667 -371.333333 10854.000000 -413.000000 10812.000000 -459.000000 C 10770.666667 -505.000000 10725.000000 -551.333333 10675.000000 -598.000000 C 10625.000000 -644.666667 10575.666667 -686.666667 10527.000000 -724.000000z M 10547.000000 -25.000000 C 10643.666667 -31.666667 10760.000000 -39.333333 10896.000000 -48.000000 C 11032.000000 -56.666667 11171.000000 -66.333333 11313.000000 -77.000000 C 11313.000000 -60.333333 11313.000000 -43.666667 11313.000000 -27.000000 C 11175.666667 -14.333333 11040.666667 -2.666667 10908.000000 8.000000 C 10776.000000 19.333333 10658.666667 28.333333 10556.000000 35.000000 C 10553.000000 15.000000 10550.000000 -5.000000 10547.000000 -25.000000z M 9729.000000 -1223.000000 C 10285.000000 -1223.000000 10841.000000 -1223.000000 11397.000000 -1223.000000 C 11397.000000 -1204.333333 11397.000000 -1185.666667 11397.000000 -1167.000000 C 10841.000000 -1167.000000 10285.000000 -1167.000000 9729.000000 -1167.000000 C 9729.000000 -1185.666667 9729.000000 -1204.333333 9729.000000 -1223.000000z M 10036.000000 -1567.000000 C 10052.666667 -1573.333333 10069.333333 -1579.666667 10086.000000 -1586.000000 C 10114.000000 -1552.666667 10141.666667 -1516.333333 10169.000000 -1477.000000 C 10197.000000 -1438.333333 10222.000000 -1400.333333 10244.000000 -1363.000000 C 10266.666667 -1326.333333 10284.333333 -1293.000000 10297.000000 -1263.000000 C 10279.000000 -1254.000000 10261.000000 -1245.000000 10243.000000 -1236.000000 C 10231.666667 -1266.000000 10214.666667 -1300.000000 10192.000000 -1338.000000 C 10170.000000 -1376.666667 10145.333333 -1416.000000 10118.000000 -1456.000000 C 10091.333333 -1496.666667 10064.000000 -1533.666667 10036.000000 -1567.000000z M 11004.000000 -1592.000000 C 11022.333333 -1583.000000 11040.666667 -1574.000000 11059.000000 -1565.000000 C 11023.000000 -1508.333333 10983.333333 -1447.666667 10940.000000 -1383.000000 C 10896.666667 -1318.333333 10855.666667 -1263.666667 10817.000000 -1219.000000 C 10803.000000 -1227.333333 10789.000000 -1235.666667 10775.000000 -1244.000000 C 10800.333333 -1274.666667 10827.000000 -1310.333333 10855.000000 -1351.000000 C 10883.666667 -1392.333333 10911.000000 -1434.000000 10937.000000 -1476.000000 C 10963.666667 -1518.666667 10986.000000 -1557.333333 11004.000000 -1592.000000z "/>
</g>
<g><path d="M 12530.000000 -1430.000000 C 12725.333333 -1430.000000 12920.666667 -1430.000000 13116.000000 -1430.000000 C 13116.000000 -1411.666667 13116.000000 -1393.333333 13116.000000 -1375.000000 C 12920.666667 -1375.000000 12725.333333 -1375.000000 12530.000000 -1375.000000 C 12530.000000 -1393.333333 12530.000000 -1411.666667 12530.000000 -1430.000000z M 12388.000000 -572.000000 C 12673.333333 -572.000000 12958.666667 -572.000000 13244.000000 -572.000000 C 13244.000000 -553.333333 13244.000000 -534.666667 13244.000000 -516.000000 C 12958.666667 -516.000000 12673.333333 -516.000000 12388.000000 -516.000000 C 12388.000000 -534.666667 12388.000000 -553.333333 12388.000000 -572.000000z M 12167.000000 23.000000 C 12560.000000 23.000000 12953.000000 23.000000 13346.000000 23.000000 C 13346.000000 41.666667 13346.000000 60.333333 13346.000000 79.000000 C 12953.000000 79.000000 12560.000000 79.000000 12167.000000 79.000000 C 12167.000000 60.333333 12167.000000 41.666667 12167.000000 23.000000z M 12346.000000 -290.000000 C 12634.666667 -290.000000 12923.333333 -290.000000 13212.000000 -290.000000 C 13212.000000 -271.333333 13212.000000 -252.666667 13212.000000 -234.000000 C 12923.333333 -234.000000 12634.666667 -234.000000 12346.000000 -234.000000 C 12346.000000 -252.666667 12346.000000 -271.333333 12346.000000 -290.000000z M 13092.000000 -1430.000000 C 13096.000000 -1430.000000 13100.000000 -1430.000000 13104.000000 -1430.000000 C 13108.000000 -1431.333333 13112.000000 -1432.666667 13116.000000 -1434.000000 C 13128.000000 -1426.333333 13140.000000 -1418.666667 13152.000000 -1411.000000 C 13110.000000 -1319.000000 13054.333333 -1234.666667 12985.000000 -1158.000000 C 12915.666667 -1081.333333 12838.333333 -1012.666667 12753.000000 -952.000000 C 12668.333333 -892.000000 12579.666667 -840.333333 12487.000000 -797.000000 C 12395.000000 -754.333333 12305.000000 -719.666667 12217.000000 -693.000000 C 12213.000000 -701.000000 12207.666667 -709.666667 12201.000000 -719.000000 C 12195.000000 -728.333333 12188.666667 -735.666667 12182.000000 -741.000000 C 12269.333333 -764.333333 12358.000000 -796.666667 12448.000000 -838.000000 C 12538.666667 -879.333333 12625.333333 -928.666667 12708.000000 -986.000000 C 12791.333333 -1044.000000 12866.333333 -1109.000000 12933.000000 -1181.000000 C 12999.666667 -1253.666667 13052.666667 -1332.333333 13092.000000 -1417.000000 C 13092.000000 -1421.333333 13092.000000 -1425.666667 13092.000000 -1430.000000z M 12520.000000 -1371.000000 C 12567.333333 -1271.000000 12632.666667 -1179.333333 12716.000000 -1096.000000 C 12799.333333 -1013.333333 12895.333333 -942.333333 13004.000000 -883.000000 C 13112.666667 -824.333333 13230.000000 -781.000000 13356.000000 -753.000000 C 13348.000000 -747.666667 13340.333333 -740.000000 13333.000000 -730.000000 C 13326.333333 -720.666667 13320.333333 -712.333333 13315.000000 -705.000000 C 13191.000000 -735.666667 13074.333333 -781.666667 12965.000000 -843.000000 C 12855.666667 -904.333333 12758.666667 -978.000000 12674.000000 -1064.000000 C 12589.333333 -1150.666667 12522.000000 -1246.666667 12472.000000 -1352.000000 C 12488.000000 -1358.333333 12504.000000 -1364.666667 12520.000000 -1371.000000z M 12626.000000 -1597.000000 C 12647.666667 -1594.000000 12669.333333 -1591.000000 12691.000000 -1588.000000 C 12643.666667 -1502.000000 12580.333333 -1410.000000 12501.000000 -1312.000000 C 12421.666667 -1214.000000 12327.000000 -1125.333333 12217.000000 -1046.000000 C 12214.333333 -1051.333333 12210.000000 -1056.333333 12204.000000 -1061.000000 C 12198.666667 -1065.666667 12193.000000 -1069.666667 12187.000000 -1073.000000 C 12181.666667 -1077.000000 12176.333333 -1080.333333 12171.000000 -1083.000000 C 12242.333333 -1133.000000 12307.000000 -1187.666667 12365.000000 -1247.000000 C 12423.666667 -1306.333333 12475.000000 -1366.333333 12519.000000 -1427.000000 C 12563.666667 -1488.333333 12599.333333 -1545.000000 12626.000000 -1597.000000z M 12451.000000 -762.000000 C 12470.333333 -758.333333 12489.666667 -754.666667 12509.000000 -751.000000 C 12483.000000 -666.333333 12448.666667 -586.000000 12406.000000 -510.000000 C 12363.333333 -434.000000 12317.000000 -369.000000 12267.000000 -315.000000 C 12264.333333 -319.000000 12260.000000 -322.666667 12254.000000 -326.000000 C 12248.666667 -330.000000 12242.666667 -334.333333 12236.000000 -339.000000 C 12230.000000 -343.666667 12224.333333 -347.000000 12219.000000 -349.000000 C 12271.666667 -401.666667 12317.666667 -463.666667 12357.000000 -535.000000 C 12397.000000 -607.000000 12428.333333 -682.666667 12451.000000 -762.000000z M 12739.000000 -783.000000 C 12758.333333 -783.000000 12777.666667 -783.000000 12797.000000 -783.000000 C 12797.000000 -506.666667 12797.000000 -230.333333 12797.000000 46.000000 C 12777.666667 46.000000 12758.333333 46.000000 12739.000000 46.000000 C 12739.000000 -230.333333 12739.000000 -506.666667 12739.000000 -783.000000z M 11693.000000 -1511.000000 C 11843.333333 -1511.000000 11993.666667 -1511.000000 12144.000000 -1511.000000 C 12144.000000 -1492.333333 12144.000000 -1473.666667 12144.000000 -1455.000000 C 12012.666667 -1455.000000 11881.333333 -1455.000000 11750.000000 -1455.000000 C 11750.000000 -925.333333 11750.000000 -395.666667 11750.000000 134.000000 C 11731.000000 134.000000 11712.000000 134.000000 11693.000000 134.000000 C 11693.000000 -414.333333 11693.000000 -962.666667 11693.000000 -1511.000000z M 12129.000000 -1511.000000 C 12132.666667 -1511.000000 12136.333333 -1511.000000 12140.000000 -1511.000000 C 12144.000000 -1512.333333 12148.000000 -1513.666667 12152.000000 -1515.000000 C 12164.000000 -1506.000000 12176.000000 -1497.000000 12188.000000 -1488.000000 C 12167.333333 -1438.000000 12145.000000 -1384.666667 12121.000000 -1328.000000 C 12097.666667 -1272.000000 12073.666667 -1215.333333 12049.000000 -1158.000000 C 12024.333333 -1101.333333 11999.000000 -1047.000000 11973.000000 -995.000000 C 12055.000000 -910.333333 12109.333333 -832.000000 12136.000000 -760.000000 C 12163.333333 -688.666667 12177.000000 -621.000000 12177.000000 -557.000000 C 12177.000000 -515.666667 12171.666667 -476.666667 12161.000000 -440.000000 C 12151.000000 -404.000000 12134.333333 -377.666667 12111.000000 -361.000000 C 12099.666667 -353.000000 12086.333333 -346.666667 12071.000000 -342.000000 C 12055.666667 -338.000000 12039.000000 -334.666667 12021.000000 -332.000000 C 11976.333333 -328.000000 11931.666667 -328.000000 11887.000000 -332.000000 C 11885.666667 -338.666667 11883.333333 -347.333333 11880.000000 -358.000000 C 11876.666667 -368.666667 11872.000000 -378.666667 11866.000000 -388.000000 C 11892.666667 -386.666667 11917.666667 -385.666667 11941.000000 -385.000000 C 11965.000000 -384.333333 11986.666667 -384.666667 12006.000000 -386.000000 C 12034.000000 -388.666667 12056.333333 -395.000000 12073.000000 -405.000000 C 12091.000000 -417.666667 12103.333333 -438.333333 12110.000000 -467.000000 C 12117.333333 -496.333333 12121.000000 -526.333333 12121.000000 -557.000000 C 12121.000000 -617.000000 12106.333333 -682.000000 12077.000000 -752.000000 C 12047.666667 -822.666667 11991.333333 -901.000000 11908.000000 -987.000000 C 11929.333333 -1031.666667 11950.333333 -1076.666667 11971.000000 -1122.000000 C 11991.666667 -1167.333333 12011.666667 -1212.000000 12031.000000 -1256.000000 C 12050.333333 -1300.666667 12068.000000 -1343.333333 12084.000000 -1384.000000 C 12100.666667 -1425.333333 12115.666667 -1463.333333 12129.000000 -1498.000000 C 12129.000000 -1502.333333 12129.000000 -1506.666667 12129.000000 -1511.000000z "/>
</g>
<g><path d="M 14717.000000 -165.000000 C 14729.000000 -179.000000 14741.000000 -193.000000 14753.000000 -207.000000 C 14808.333333 -184.333333 14866.000000 -158.000000 14926.000000 -128.000000 C 14986.000000 -98.666667 15043.000000 -69.000000 15097.000000 -39.000000 C 15151.000000 -9.000000 15195.666667 18.000000 15231.000000 42.000000 C 15219.000000 58.000000 15207.000000 74.000000 15195.000000 90.000000 C 15159.000000 66.000000 15114.000000 38.666667 15060.000000 8.000000 C 15006.666667 -22.666667 14949.666667 -53.333333 14889.000000 -84.000000 C 14829.000000 -115.333333 14771.666667 -142.333333 14717.000000 -165.000000z M 13772.000000 -545.000000 C 14192.666667 -545.000000 14613.333333 -545.000000 15034.000000 -545.000000 C 15034.000000 -526.666667 15034.000000 -508.333333 15034.000000 -490.000000 C 14613.333333 -490.000000 14192.666667 -490.000000 13772.000000 -490.000000 C 13772.000000 -508.333333 13772.000000 -526.666667 13772.000000 -545.000000z M 13555.000000 -346.000000 C 14120.333333 -346.000000 14685.666667 -346.000000 15251.000000 -346.000000 C 15251.000000 -327.333333 15251.000000 -308.666667 15251.000000 -290.000000 C 14685.666667 -290.000000 14120.333333 -290.000000 13555.000000 -290.000000 C 13555.000000 -308.666667 13555.000000 -327.333333 13555.000000 -346.000000z M 13584.000000 -1452.000000 C 14128.666667 -1452.000000 14673.333333 -1452.000000 15218.000000 -1452.000000 C 15218.000000 -1432.666667 15218.000000 -1413.333333 15218.000000 -1394.000000 C 14673.333333 -1394.000000 14128.666667 -1394.000000 13584.000000 -1394.000000 C 13584.000000 -1413.333333 13584.000000 -1432.666667 13584.000000 -1452.000000z M 14373.000000 -332.000000 C 14392.333333 -332.000000 14411.666667 -332.000000 14431.000000 -332.000000 C 14431.000000 -205.333333 14431.000000 -78.666667 14431.000000 48.000000 C 14431.000000 71.333333 14427.333333 88.666667 14420.000000 100.000000 C 14413.333333 111.333333 14399.000000 119.666667 14377.000000 125.000000 C 14356.333333 129.666667 14323.333333 132.333333 14278.000000 133.000000 C 14232.666667 133.666667 14171.666667 134.000000 14095.000000 134.000000 C 14093.666667 126.666667 14090.666667 118.000000 14086.000000 108.000000 C 14081.333333 98.666667 14076.666667 89.666667 14072.000000 81.000000 C 14143.333333 82.333333 14201.333333 83.000000 14246.000000 83.000000 C 14291.333333 83.000000 14322.333333 82.333333 14339.000000 81.000000 C 14353.000000 79.666667 14362.000000 76.666667 14366.000000 72.000000 C 14370.666667 67.333333 14373.000000 59.333333 14373.000000 48.000000 C 14373.000000 -78.666667 14373.000000 -205.333333 14373.000000 -332.000000z M 14006.000000 -213.000000 C 14024.000000 -206.000000 14042.000000 -199.000000 14060.000000 -192.000000 C 14018.000000 -157.333333 13970.000000 -122.666667 13916.000000 -88.000000 C 13862.666667 -53.333333 13807.333333 -20.666667 13750.000000 10.000000 C 13693.333333 40.666667 13638.666667 66.666667 13586.000000 88.000000 C 13583.333333 84.666667 13578.666667 80.666667 13572.000000 76.000000 C 13566.000000 71.333333 13559.666667 66.333333 13553.000000 61.000000 C 13547.000000 56.333333 13541.333333 52.666667 13536.000000 50.000000 C 13619.333333 16.666667 13703.333333 -23.000000 13788.000000 -69.000000 C 13873.333333 -115.000000 13946.000000 -163.000000 14006.000000 -213.000000z M 14373.000000 -1596.000000 C 14392.333333 -1596.000000 14411.666667 -1596.000000 14431.000000 -1596.000000 C 14431.000000 -1533.666667 14431.000000 -1471.333333 14431.000000 -1409.000000 C 14411.666667 -1409.000000 14392.333333 -1409.000000 14373.000000 -1409.000000 C 14373.000000 -1471.333333 14373.000000 -1533.666667 14373.000000 -1596.000000z M 13836.000000 -1217.000000 C 13836.000000 -1056.333333 13836.000000 -895.666667 13836.000000 -735.000000 C 14214.666667 -735.000000 14593.333333 -735.000000 14972.000000 -735.000000 C 14972.000000 -895.666667 14972.000000 -1056.333333 14972.000000 -1217.000000 C 14593.333333 -1217.000000 14214.666667 -1217.000000 13836.000000 -1217.000000z M 13780.000000 -1275.000000 C 14196.000000 -1275.000000 14612.000000 -1275.000000 15028.000000 -1275.000000 C 15028.000000 -1076.666667 15028.000000 -878.333333 15028.000000 -680.000000 C 14612.000000 -680.000000 14196.000000 -680.000000 13780.000000 -680.000000 C 13780.000000 -878.333333 13780.000000 -1076.666667 13780.000000 -1275.000000z M 14118.000000 -1058.000000 C 14118.000000 -1006.666667 14118.000000 -955.333333 14118.000000 -904.000000 C 14306.666667 -904.000000 14495.333333 -904.000000 14684.000000 -904.000000 C 14684.000000 -955.333333 14684.000000 -1006.666667 14684.000000 -1058.000000 C 14495.333333 -1058.000000 14306.666667 -1058.000000 14118.000000 -1058.000000z M 14062.000000 -1114.000000 C 14288.000000 -1114.000000 14514.000000 -1114.000000 14740.000000 -1114.000000 C 14740.000000 -1025.000000 14740.000000 -936.000000 14740.000000 -847.000000 C 14514.000000 -847.000000 14288.000000 -847.000000 14062.000000 -847.000000 C 14062.000000 -936.000000 14062.000000 -1025.000000 14062.000000 -1114.000000z "/>
</g>
<g><path d="M 16458.000000 -100.000000 C 16656.000000 -100.000000 16854.000000 -100.000000 17052.000000 -100.000000 C 17052.000000 -81.333333 17052.000000 -62.666667 17052.000000 -44.000000 C 16854.000000 -44.000000 16656.000000 -44.000000 16458.000000 -44.000000 C 16458.000000 -62.666667 16458.000000 -81.333333 16458.000000 -100.000000z M 15502.000000 -893.000000 C 15753.666667 -893.000000 16005.333333 -893.000000 16257.000000 -893.000000 C 16257.000000 -873.666667 16257.000000 -854.333333 16257.000000 -835.000000 C 16005.333333 -835.000000 15753.666667 -835.000000 15502.000000 -835.000000 C 15502.000000 -854.333333 15502.000000 -873.666667 15502.000000 -893.000000z M 16424.000000 -975.000000 C 16639.666667 -975.000000 16855.333333 -975.000000 17071.000000 -975.000000 C 17071.000000 -622.333333 17071.000000 -269.666667 17071.000000 83.000000 C 17052.333333 83.000000 17033.666667 83.000000 17015.000000 83.000000 C 17015.000000 -250.666667 17015.000000 -584.333333 17015.000000 -918.000000 C 16836.333333 -918.000000 16657.666667 -918.000000 16479.000000 -918.000000 C 16479.000000 -581.333333 16479.000000 -244.666667 16479.000000 92.000000 C 16460.666667 92.000000 16442.333333 92.000000 16424.000000 92.000000 C 16424.000000 -263.666667 16424.000000 -619.333333 16424.000000 -975.000000z M 15892.000000 -1156.000000 C 15911.000000 -1152.000000 15930.000000 -1148.000000 15949.000000 -1144.000000 C 15925.000000 -1077.333333 15897.666667 -1005.333333 15867.000000 -928.000000 C 15836.333333 -850.666667 15805.000000 -773.000000 15773.000000 -695.000000 C 15741.000000 -617.000000 15709.333333 -542.333333 15678.000000 -471.000000 C 15646.666667 -400.333333 15618.000000 -337.333333 15592.000000 -282.000000 C 15573.666667 -289.000000 15555.333333 -296.000000 15537.000000 -303.000000 C 15562.333333 -357.000000 15590.666667 -419.333333 15622.000000 -490.000000 C 15653.333333 -561.333333 15685.000000 -635.666667 15717.000000 -713.000000 C 15749.000000 -790.333333 15780.000000 -867.000000 15810.000000 -943.000000 C 15840.000000 -1019.666667 15867.333333 -1090.666667 15892.000000 -1156.000000z M 16236.000000 -893.000000 C 16239.666667 -893.000000 16243.333333 -893.000000 16247.000000 -893.000000 C 16251.000000 -894.333333 16255.000000 -895.666667 16259.000000 -897.000000 C 16270.333333 -892.333333 16281.666667 -887.666667 16293.000000 -883.000000 C 16265.000000 -674.333333 16215.666667 -502.000000 16145.000000 -366.000000 C 16075.000000 -230.666667 15988.000000 -123.333333 15884.000000 -44.000000 C 15780.666667 35.333333 15664.333333 96.000000 15535.000000 138.000000 C 15531.000000 132.000000 15525.666667 124.000000 15519.000000 114.000000 C 15513.000000 104.666667 15506.666667 97.333333 15500.000000 92.000000 C 15624.000000 54.000000 15736.666667 -3.000000 15838.000000 -79.000000 C 15939.333333 -155.666667 16024.333333 -259.000000 16093.000000 -389.000000 C 16162.333333 -519.000000 16210.000000 -681.666667 16236.000000 -877.000000 C 16236.000000 -882.333333 16236.000000 -887.666667 16236.000000 -893.000000z M 15606.000000 -411.000000 C 15618.666667 -423.666667 15631.333333 -436.333333 15644.000000 -449.000000 C 15728.666667 -413.666667 15813.666667 -371.000000 15899.000000 -321.000000 C 15985.000000 -271.000000 16064.333333 -219.000000 16137.000000 -165.000000 C 16210.333333 -111.000000 16269.333333 -60.000000 16314.000000 -12.000000 C 16300.000000 2.333333 16286.000000 16.666667 16272.000000 31.000000 C 16227.333333 -17.666667 16168.666667 -69.000000 16096.000000 -123.000000 C 16024.000000 -177.000000 15945.000000 -229.000000 15859.000000 -279.000000 C 15773.666667 -329.666667 15689.333333 -373.666667 15606.000000 -411.000000z M 15477.000000 -1400.000000 C 16039.000000 -1400.000000 16601.000000 -1400.000000 17163.000000 -1400.000000 C 17163.000000 -1381.333333 17163.000000 -1362.666667 17163.000000 -1344.000000 C 16601.000000 -1344.000000 16039.000000 -1344.000000 15477.000000 -1344.000000 C 15477.000000 -1362.666667 15477.000000 -1381.333333 15477.000000 -1400.000000z M 15957.000000 -1594.000000 C 15975.666667 -1594.000000 15994.333333 -1594.000000 16013.000000 -1594.000000 C 16013.000000 -1438.333333 16013.000000 -1282.666667 16013.000000 -1127.000000 C 15994.333333 -1127.000000 15975.666667 -1127.000000 15957.000000 -1127.000000 C 15957.000000 -1282.666667 15957.000000 -1438.333333 15957.000000 -1594.000000z M 16618.000000 -1594.000000 C 16636.333333 -1594.000000 16654.666667 -1594.000000 16673.000000 -1594.000000 C 16673.000000 -1435.666667 16673.000000 -1277.333333 16673.000000 -1119.000000 C 16654.666667 -1119.000000 16636.333333 -1119.000000 16618.000000 -1119.000000 C 16618.000000 -1277.333333 16618.000000 -1435.666667 16618.000000 -1594.000000z "/>
</g>
</svg>
