<?xml version="1.0" encoding="utf-8"?>
<svg xmlns="http://www.w3.org/2000/svg" xmlns:ev="http://www.w3.org/2001/xml-events" xmlns:xlink="http://www.w3.org/1999/xlink" version="1.1" baseProfile="full" width="49628.0" height="1744.0" viewBox="213.0 -1596.0 49628.0 1744.0">
<defs/>
<g><path d="M 13887.000000 -1363.000000 C 13910.333333 -1361.666667 13932.666667 -1360.666667 13954.000000 -1360.000000 C 13976.000000 -1359.333333 13996.666667 -1359.000000 14016.000000 -1359.000000 C 14039.333333 -1359.000000 14072.666667 -1360.000000 14116.000000 -1362.000000 C 14159.333333 -1364.000000 14205.666667 -1366.333333 14255.000000 -1369.000000 C 14304.333333 -1371.666667 14349.666667 -1374.000000 14391.000000 -1376.000000 C 14433.000000 -1378.666667 14463.000000 -1380.666667 14481.000000 -1382.000000 C 14493.666667 -1383.333333 14504.333333 -1385.000000 14513.000000 -1387.000000 C 14522.333333 -1389.000000 14531.333333 -1391.333333 14540.000000 -1394.000000 C 14553.333333 -1382.333333 14566.666667 -1370.666667 14580.000000 -1359.000000 C 14575.333333 -1353.000000 14570.000000 -1346.000000 14564.000000 -1338.000000 C 14558.666667 -1330.666667 14552.000000 -1321.000000 14544.000000 -1309.000000 C 14524.666667 -1279.666667 14501.000000 -1235.666667 14473.000000 -1177.000000 C 14445.000000 -1118.333333 14415.000000 -1053.666667 14383.000000 -983.000000 C 14351.000000 -912.333333 14319.666667 -844.666667 14289.000000 -780.000000 C 14269.666667 -738.666667 14248.000000 -691.333333 14224.000000 -638.000000 C 14200.666667 -585.333333 14176.333333 -531.000000 14151.000000 -475.000000 C 14126.333333 -419.666667 14101.666667 -368.333333 14077.000000 -321.000000 C 14053.000000 -273.666667 14030.000000 -235.000000 14008.000000 -205.000000 C 13978.666667 -165.666667 13949.000000 -139.666667 13919.000000 -127.000000 C 13889.000000 -114.333333 13857.333333 -108.000000 13824.000000 -108.000000 C 13765.333333 -108.000000 13716.666667 -128.000000 13678.000000 -168.000000 C 13639.333333 -208.000000 13620.000000 -259.666667 13620.000000 -323.000000 C 13620.000000 -390.333333 13635.000000 -452.666667 13665.000000 -510.000000 C 13695.666667 -568.000000 13738.000000 -618.666667 13792.000000 -662.000000 C 13846.666667 -706.000000 13912.000000 -739.666667 13988.000000 -763.000000 C 14064.000000 -787.000000 14148.333333 -799.000000 14241.000000 -799.000000 C 14344.333333 -799.000000 14444.666667 -786.666667 14542.000000 -762.000000 C 14639.333333 -738.000000 14730.666667 -706.666667 14816.000000 -668.000000 C 14902.000000 -630.000000 14980.666667 -589.000000 15052.000000 -545.000000 C 15124.000000 -501.666667 15186.333333 -460.000000 15239.000000 -420.000000 C 15228.666667 -399.666667 15218.333333 -379.333333 15208.000000 -359.000000 C 15154.666667 -403.666667 15092.666667 -448.666667 15022.000000 -494.000000 C 14951.333333 -540.000000 14873.666667 -582.000000 14789.000000 -620.000000 C 14705.000000 -658.666667 14616.333333 -689.333333 14523.000000 -712.000000 C 14429.666667 -735.333333 14333.666667 -747.000000 14235.000000 -747.000000 C 14117.000000 -747.000000 14016.000000 -726.666667 13932.000000 -686.000000 C 13848.666667 -646.000000 13785.000000 -594.000000 13741.000000 -530.000000 C 13697.666667 -466.000000 13676.000000 -398.000000 13676.000000 -326.000000 C 13676.000000 -272.666667 13691.333333 -231.666667 13722.000000 -203.000000 C 13752.666667 -175.000000 13786.666667 -161.000000 13824.000000 -161.000000 C 13849.333333 -161.000000 13872.333333 -165.666667 13893.000000 -175.000000 C 13913.666667 -185.000000 13934.666667 -203.333333 13956.000000 -230.000000 C 13980.666667 -260.000000 14005.000000 -297.000000 14029.000000 -341.000000 C 14053.666667 -385.000000 14077.666667 -433.000000 14101.000000 -485.000000 C 14125.000000 -537.666667 14148.000000 -590.000000 14170.000000 -642.000000 C 14192.666667 -694.000000 14213.666667 -741.000000 14233.000000 -783.000000 C 14261.000000 -845.000000 14289.666667 -908.000000 14319.000000 -972.000000 C 14349.000000 -1036.666667 14378.333333 -1099.333333 14407.000000 -1160.000000 C 14435.666667 -1221.333333 14462.000000 -1277.666667 14486.000000 -1329.000000 C 14467.333333 -1327.666667 14436.666667 -1326.000000 14394.000000 -1324.000000 C 14352.000000 -1322.000000 14306.333333 -1319.666667 14257.000000 -1317.000000 C 14207.666667 -1314.333333 14161.000000 -1312.000000 14117.000000 -1310.000000 C 14073.666667 -1308.666667 14041.333333 -1307.333333 14020.000000 -1306.000000 C 13998.000000 -1304.666667 13976.333333 -1303.333333 13955.000000 -1302.000000 C 13934.333333 -1300.666667 13913.000000 -1298.666667 13891.000000 -1296.000000 C 13889.666667 -1318.333333 13888.333333 -1340.666667 13887.000000 -1363.000000z M 15024.000000 -975.000000 C 15017.333333 -838.333333 15003.666667 -715.333333 14983.000000 -606.000000 C 14963.000000 -496.666667 14931.666667 -399.000000 14889.000000 -313.000000 C 14847.000000 -227.000000 14790.000000 -150.666667 14718.000000 -84.000000 C 14646.666667 -18.000000 14556.666667 41.333333 14448.000000 94.000000 C 14432.000000 79.333333 14416.000000 64.666667 14400.000000 50.000000 C 14507.333333 5.333333 14596.000000 -49.333333 14666.000000 -114.000000 C 14736.000000 -178.666667 14791.333333 -250.666667 14832.000000 -330.000000 C 14872.666667 -409.333333 14902.666667 -492.000000 14922.000000 -578.000000 C 14941.333333 -664.666667 14954.333333 -751.000000 14961.000000 -837.000000 C 14962.333333 -857.666667 14963.000000 -880.666667 14963.000000 -906.000000 C 14963.666667 -932.000000 14963.666667 -957.000000 14963.000000 -981.000000 C 14983.333333 -979.000000 15003.666667 -977.000000 15024.000000 -975.000000z "/>
</g></svg>
