<?xml version="1.0" encoding="utf-8"?>
<svg xmlns="http://www.w3.org/2000/svg" xmlns:ev="http://www.w3.org/2001/xml-events" xmlns:xlink="http://www.w3.org/1999/xlink" version="1.1" baseProfile="full" width="11226.0" height="1737.0" viewBox="179.0 -1601.0 11226.0 1737.0">
<defs/>
<g><path d="M 7811.000000 -1008.000000 C 8367.000000 -1008.000000 8923.000000 -1008.000000 9479.000000 -1008.000000 C 9479.000000 -989.333333 9479.000000 -970.666667 9479.000000 -952.000000 C 8923.000000 -952.000000 8367.000000 -952.000000 7811.000000 -952.000000 C 7811.000000 -970.666667 7811.000000 -989.333333 7811.000000 -1008.000000z M 8696.000000 -987.000000 C 8742.000000 -824.333333 8802.666667 -672.333333 8878.000000 -531.000000 C 8953.333333 -389.666667 9043.333333 -266.333333 9148.000000 -161.000000 C 9253.333333 -56.333333 9370.666667 25.000000 9500.000000 83.000000 C 9494.666667 86.333333 9489.333333 91.333333 9484.000000 98.000000 C 9479.333333 104.666667 9474.333333 110.666667 9469.000000 116.000000 C 9464.333333 122.000000 9460.000000 127.333333 9456.000000 132.000000 C 9325.333333 69.333333 9207.000000 -16.333333 9101.000000 -125.000000 C 8995.666667 -233.666667 8904.666667 -360.000000 8828.000000 -504.000000 C 8751.333333 -648.000000 8689.333333 -804.000000 8642.000000 -972.000000 C 8660.000000 -977.000000 8678.000000 -982.000000 8696.000000 -987.000000z M 8623.000000 -1592.000000 C 8642.000000 -1592.000000 8661.000000 -1592.000000 8680.000000 -1592.000000 C 8680.000000 -1521.333333 8677.666667 -1438.666667 8673.000000 -1344.000000 C 8669.000000 -1249.333333 8659.333333 -1147.666667 8644.000000 -1039.000000 C 8628.666667 -931.000000 8603.333333 -821.000000 8568.000000 -709.000000 C 8532.666667 -597.000000 8483.333333 -488.666667 8420.000000 -384.000000 C 8356.666667 -279.333333 8276.000000 -182.000000 8178.000000 -92.000000 C 8080.000000 -2.666667 7960.000000 72.666667 7818.000000 134.000000 C 7813.333333 128.000000 7806.333333 120.666667 7797.000000 112.000000 C 7788.333333 104.000000 7780.666667 97.333333 7774.000000 92.000000 C 7914.666667 32.000000 8033.666667 -41.333333 8131.000000 -128.000000 C 8228.333333 -215.333333 8308.000000 -310.333333 8370.000000 -413.000000 C 8432.000000 -516.333333 8480.333333 -623.000000 8515.000000 -733.000000 C 8549.666667 -843.666667 8574.333333 -952.000000 8589.000000 -1058.000000 C 8603.666667 -1164.000000 8613.000000 -1262.666667 8617.000000 -1354.000000 C 8621.000000 -1446.000000 8623.000000 -1525.333333 8623.000000 -1592.000000z "/>
</g></svg>
