<?xml version="1.0" ?>
<svg xmlns="http://www.w3.org/2000/svg" version="1.1" width="600" height="600">
  <defs/>
  <g>
    <path stroke-width="0" fill="rgb(0, 0, 0)" opacity="1.0" d="M 138.53640747070312 330.5029296875 C 179.39105224609375 330.5029296875 220.2457275390625 330.5029296875 261.100341796875 330.5029296875 C 261.100341796875 332.4586181640625 261.100341796875 334.41424560546875 261.100341796875 336.36993408203125 C 220.2457275390625 336.36993408203125 179.39105224609375 336.36993408203125 138.53640747070312 336.36993408203125 C 138.53640747070312 334.41424560546875 138.53640747070312 332.4586181640625 138.53640747070312 330.5029296875M 139.14364624023438 306.8323974609375 C 180.9091796875 306.8323974609375 222.67474365234375 306.8323974609375 264.44024658203125 306.8323974609375 C 264.44024658203125 324.6358642578125 264.44024658203125 342.4393310546875 264.44024658203125 360.2427978515625 C 222.67474365234375 360.2427978515625 180.9091796875 360.2427978515625 139.14364624023438 360.2427978515625 C 139.14364624023438 358.3544921875 139.14364624023438 356.46630859375 139.14364624023438 354.5780029296875 C 179.01995849609375 354.5780029296875 218.896240234375 354.5780029296875 258.7725524902344 354.5780029296875 C 258.7725524902344 340.517333984375 258.7725524902344 326.4566650390625 258.7725524902344 312.39599609375 C 218.896240234375 312.39599609375 179.01995849609375 312.39599609375 139.14364624023438 312.39599609375 C 139.14364624023438 310.54144287109375 139.14364624023438 308.6868896484375 139.14364624023438 306.8323974609375M 195.61822509765625 308.75433349609375 C 197.57492065429688 308.75433349609375 199.5316162109375 308.75433349609375 201.48834228515625 308.75433349609375 C 201.48834228515625 329.72735595703125 201.48834228515625 350.70037841796875 201.48834228515625 371.67340087890625 C 201.48834228515625 374.640625 202.4666748046875 376.63006591796875 204.42340087890625 377.6416015625 C 206.38009643554688 378.7205810546875 210.5296630859375 379.2601318359375 216.8720703125 379.2601318359375 C 218.154052734375 379.2601318359375 220.38064575195312 379.2601318359375 223.5518798828125 379.2601318359375 C 226.72308349609375 379.2601318359375 230.40032958984375 379.2601318359375 234.5836181640625 379.2601318359375 C 238.83441162109375 379.2601318359375 243.08517456054688 379.2601318359375 247.3359375 379.2601318359375 C 251.6541748046875 379.2601318359375 255.53387451171875 379.2601318359375 258.9749755859375 379.2601318359375 C 262.4835510253906 379.2601318359375 265.08123779296875 379.2601318359375 266.76806640625 379.2601318359375 C 270.5465087890625 379.2601318359375 273.34661865234375 378.61944580078125 275.16839599609375 377.338134765625 C 276.99017333984375 376.124267578125 278.2384033203125 373.62908935546875 278.9131164550781 369.85260009765625 C 279.65533447265625 366.0086669921875 280.161376953125 360.34393310546875 280.4312744140625 352.8583984375 C 281.1734619140625 353.3304443359375 282.0843505859375 353.802490234375 283.16387939453125 354.2745361328125 C 284.3109130859375 354.74664306640625 285.3230285644531 355.1175537109375 286.2001647949219 355.38726806640625 C 285.79534912109375 363.2774658203125 285.0531311035156 369.38055419921875 283.97357177734375 373.696533203125 C 282.8940124511719 377.945068359375 281.03851318359375 380.87860107421875 278.4070739746094 382.4970703125 C 275.8431091308594 384.18304443359375 271.96343994140625 385.0260009765625 266.76806640625 385.0260009765625 C 266.0258483886719 385.0260009765625 263.96795654296875 385.0260009765625 260.59429931640625 385.0260009765625 C 257.220703125 385.0260009765625 253.27352905273438 385.0260009765625 248.75286865234375 385.0260009765625 C 244.2996826171875 385.0260009765625 239.812744140625 385.0260009765625 235.2921142578125 385.0260009765625 C 230.77142333984375 385.0260009765625 226.8580322265625 385.0260009765625 223.5518798828125 385.0260009765625 C 220.2457275390625 385.0260009765625 218.18780517578125 385.0260009765625 217.37811279296875 385.0260009765625 C 211.84536743164062 385.0260009765625 207.493408203125 384.6888427734375 204.32217407226562 384.01446533203125 C 201.15097045898438 383.407470703125 198.890625 382.092529296875 197.54119873046875 380.0693359375 C 196.25921630859375 378.1136474609375 195.61822509765625 375.24755859375 195.61822509765625 371.4710693359375 C 195.61822509765625 350.5655517578125 195.61822509765625 329.659912109375 195.61822509765625 308.75433349609375M 135.80377197265625 306.8323974609375 C 137.6929931640625 306.8323974609375 139.58224487304688 306.8323974609375 141.47146606445312 306.8323974609375 C 141.47146606445312 328.51348876953125 141.47146606445312 350.194580078125 141.47146606445312 371.875732421875 C 139.58224487304688 371.875732421875 137.6929931640625 371.875732421875 135.80377197265625 371.875732421875 C 135.80377197265625 350.194580078125 135.80377197265625 328.51348876953125 135.80377197265625 306.8323974609375M 129.4276123046875 222.26589965820312 C 176.0511474609375 222.26589965820312 222.67474365234375 222.26589965820312 269.29827880859375 222.26589965820312 C 269.29827880859375 224.15411376953125 269.29827880859375 226.0423583984375 269.29827880859375 227.9306640625 C 222.67474365234375 227.9306640625 176.0511474609375 227.9306640625 129.4276123046875 227.9306640625 C 129.4276123046875 226.0423583984375 129.4276123046875 224.15411376953125 129.4276123046875 222.26589965820312M 138.73883056640625 264.85260009765625 C 153.38037109375 264.85260009765625 168.02191162109375 264.85260009765625 182.66348266601562 264.85260009765625 C 182.66348266601562 266.80828857421875 182.66348266601562 268.76397705078125 182.66348266601562 270.71966552734375 C 168.02191162109375 270.71966552734375 153.38037109375 270.71966552734375 138.73883056640625 270.71966552734375 C 138.73883056640625 268.76397705078125 138.73883056640625 266.80828857421875 138.73883056640625 264.85260009765625M 134.69046020507812 285.2861328125 C 150.74893188476562 285.2861328125 166.80743408203125 285.2861328125 182.86590576171875 285.2861328125 C 182.86590576171875 287.2081298828125 182.86590576171875 289.13006591796875 182.86590576171875 291.052001953125 C 166.80743408203125 291.052001953125 150.74893188476562 291.052001953125 134.69046020507812 291.052001953125 C 134.69046020507812 289.13006591796875 134.69046020507812 287.2081298828125 134.69046020507812 285.2861328125M 214.7467041015625 285.2861328125 C 231.6485595703125 285.2861328125 248.55047607421875 285.2861328125 265.45233154296875 285.2861328125 C 265.45233154296875 287.2081298828125 265.45233154296875 289.13006591796875 265.45233154296875 291.052001953125 C 248.55047607421875 291.052001953125 231.6485595703125 291.052001953125 214.7467041015625 291.052001953125 C 214.7467041015625 289.13006591796875 214.7467041015625 287.2081298828125 214.7467041015625 285.2861328125M 214.7467041015625 264.85260009765625 C 229.96176147460938 264.85260009765625 245.17681884765625 264.85260009765625 260.39190673828125 264.85260009765625 C 260.39190673828125 266.80828857421875 260.39190673828125 268.76397705078125 260.39190673828125 270.71966552734375 C 245.17681884765625 270.71966552734375 229.96176147460938 270.71966552734375 214.7467041015625 270.71966552734375 C 214.7467041015625 268.76397705078125 214.7467041015625 266.80828857421875 214.7467041015625 264.85260009765625M 195.61822509765625 224.28900146484375 C 197.57492065429688 224.28900146484375 199.5316162109375 224.28900146484375 201.48834228515625 224.28900146484375 C 201.48834228515625 249.1396484375 201.48834228515625 273.9903564453125 201.48834228515625 298.841064453125 C 199.5316162109375 298.841064453125 197.57492065429688 298.841064453125 195.61822509765625 298.841064453125 C 195.61822509765625 273.9903564453125 195.61822509765625 249.1396484375 195.61822509765625 224.28900146484375M 120.11639404296875 244.4190673828125 C 172.87994384765625 244.4190673828125 225.64349365234375 244.4190673828125 278.4070739746094 244.4190673828125 C 278.4070739746094 256.4566650390625 278.4070739746094 268.49420166015625 278.4070739746094 280.53179931640625 C 276.484130859375 280.53179931640625 274.5611572265625 280.53179931640625 272.63818359375 280.53179931640625 C 272.63818359375 270.44989013671875 272.63818359375 260.3680419921875 272.63818359375 250.2861328125 C 223.72055053710938 250.2861328125 174.80291748046875 250.2861328125 125.88528442382812 250.2861328125 C 125.88528442382812 260.3680419921875 125.88528442382812 270.44989013671875 125.88528442382812 280.53179931640625 C 123.96234130859375 280.53179931640625 122.03936767578125 280.53179931640625 120.11639404296875 280.53179931640625 C 120.11639404296875 268.49420166015625 120.11639404296875 256.4566650390625 120.11639404296875 244.4190673828125"/>
    <path stroke-width="0" fill="rgb(0, 0, 0)" opacity="1.0" d="M 341.5614013671875 235.11273193359375 C 386.194580078125 235.11273193359375 430.82763671875 235.11273193359375 475.46075439453125 235.11273193359375 C 475.46075439453125 237.06842041015625 475.46075439453125 239.0240478515625 475.46075439453125 240.979736328125 C 430.82763671875 240.979736328125 386.194580078125 240.979736328125 341.5614013671875 240.979736328125 C 341.5614013671875 239.0240478515625 341.5614013671875 237.06842041015625 341.5614013671875 235.11273193359375M 343.68682861328125 262.32373046875 C 381.13409423828125 262.32373046875 418.5814208984375 262.32373046875 456.0286865234375 262.32373046875 C 456.0286865234375 264.2119140625 456.0286865234375 266.1002197265625 456.0286865234375 267.9884033203125 C 418.5814208984375 267.9884033203125 381.13409423828125 267.9884033203125 343.68682861328125 267.9884033203125 C 343.68682861328125 266.1002197265625 343.68682861328125 264.2119140625 343.68682861328125 262.32373046875M 322.12933349609375 289.3323974609375 C 362.8153076171875 289.3323974609375 403.501220703125 289.3323974609375 444.187255859375 289.3323974609375 C 444.187255859375 291.2205810546875 444.187255859375 293.10888671875 444.187255859375 294.9970703125 C 403.501220703125 294.9970703125 362.8153076171875 294.9970703125 322.12933349609375 294.9970703125 C 322.12933349609375 293.10888671875 322.12933349609375 291.2205810546875 322.12933349609375 289.3323974609375M 348.94964599609375 212.7572021484375 C 350.973876953125 213.22927856445312 352.998046875 213.70135498046875 355.022216796875 214.17340087890625 C 350.231689453125 228.6724853515625 344.0916748046875 242.126220703125 336.6021728515625 254.53466796875 C 329.18017578125 266.875732421875 320.94854736328125 277.36224365234375 311.9072265625 285.99420166015625 C 311.6373291015625 285.589599609375 311.1650390625 285.1512451171875 310.49029541015625 284.67919921875 C 309.883056640625 284.13970947265625 309.20831298828125 283.6339111328125 308.46612548828125 283.161865234375 C 307.7239074707031 282.622314453125 307.11663818359375 282.21771240234375 306.64434814453125 281.947998046875 C 315.82061767578125 273.6531982421875 324.05224609375 263.50384521484375 331.33935546875 251.5 C 338.69384765625 239.4287109375 344.56396484375 226.51446533203125 348.94964599609375 212.7572021484375M 405.12060546875 300.76300048828125 C 406.8748779296875 301.4036865234375 408.629150390625 302.0443115234375 410.3834228515625 302.6849365234375 C 403.1639404296875 315.160888671875 394.49365234375 326.69268798828125 384.372802734375 337.28033447265625 C 374.25189208984375 347.800537109375 363.28759765625 357.2755126953125 351.4798583984375 365.7052001953125 C 339.7396240234375 374.06744384765625 327.4259033203125 381.4180908203125 314.53863525390625 387.7572021484375 C 314.33624267578125 387.4200439453125 313.9651184082031 386.947998046875 313.42535400390625 386.341064453125 C 312.88555908203125 385.734130859375 312.31207275390625 385.160888671875 311.7048034667969 384.62139892578125 C 311.1650390625 384.1492919921875 310.625244140625 383.71099853515625 310.08544921875 383.306396484375 C 323.0401611328125 377.371826171875 335.45513916015625 370.29095458984375 347.330322265625 362.0635986328125 C 359.20550537109375 353.836181640625 370.068603515625 344.5635986328125 379.9195556640625 334.24566650390625 C 389.8380126953125 323.8603515625 398.2384033203125 312.699462890625 405.12060546875 300.76300048828125M 441.04974365234375 289.3323974609375 C 442.93896484375 289.3323974609375 444.8282470703125 289.3323974609375 446.7174072265625 289.3323974609375 C 446.9873046875 302.81982421875 447.3922119140625 315.22833251953125 447.93194580078125 326.55780029296875 C 448.5391845703125 337.88726806640625 449.6187744140625 347.699462890625 451.170654296875 355.9942626953125 C 452.7225341796875 364.2215576171875 454.9154052734375 370.628173828125 457.74920654296875 375.2138671875 C 460.6505126953125 379.8670654296875 464.36151123046875 382.193603515625 468.8822021484375 382.193603515625 C 471.24371337890625 382.193603515625 472.795654296875 379.49615478515625 473.537841796875 374.1011962890625 C 474.34747314453125 368.7061767578125 474.7860107421875 361.69268798828125 474.853515625 353.0606689453125 C 475.52825927734375 353.53271484375 476.4053955078125 354.00482177734375 477.4849853515625 354.47686767578125 C 478.6319580078125 354.948974609375 479.5091552734375 355.31982421875 480.1163330078125 355.589599609375 C 479.846435546875 363.74951171875 479.3404541015625 370.15606689453125 478.5982666015625 374.8092041015625 C 477.92352294921875 379.46240234375 476.8101806640625 382.699462890625 475.25836181640625 384.520263671875 C 473.70648193359375 386.408447265625 471.4461669921875 387.4200439453125 468.47735595703125 387.554931640625 C 462.6746826171875 387.554931640625 457.9853515625 385.2957763671875 454.4093017578125 380.7774658203125 C 450.833251953125 376.2591552734375 448.1343994140625 369.75146484375 446.3126220703125 361.25433349609375 C 444.4908447265625 352.7572021484375 443.2088623046875 342.4730224609375 442.4666748046875 330.4017333984375 C 441.79193115234375 318.26300048828125 441.31964111328125 304.5732421875 441.04974365234375 289.3323974609375M 331.33935546875 314.01446533203125 C 332.68878173828125 312.83428955078125 334.0382080078125 311.6541748046875 335.3876953125 310.4739990234375 C 343.4168701171875 314.857421875 351.51361083984375 319.78033447265625 359.67779541015625 325.2427978515625 C 367.842041015625 330.7052001953125 375.736328125 336.336181640625 383.3607177734375 342.1358642578125 C 390.985107421875 347.8680419921875 398.00225830078125 353.6002197265625 404.412109375 359.3323974609375 C 410.8895263671875 364.9970703125 416.2535400390625 370.32470703125 420.50433349609375 375.3150634765625 C 419.0198974609375 376.697509765625 417.5355224609375 378.0799560546875 416.0511474609375 379.46240234375 C 411.73291015625 374.4046630859375 406.402587890625 369.0433349609375 400.0601806640625 363.37860107421875 C 393.71771240234375 357.64642333984375 386.73431396484375 351.8468017578125 379.10992431640625 345.979736328125 C 371.48553466796875 340.0452880859375 363.5911865234375 334.3468017578125 355.427001953125 328.8843994140625 C 347.2628173828125 323.3544921875 339.233642578125 318.39788818359375 331.33935546875 314.01446533203125"/>
  </g>
</svg>
