<?xml version="1.0" ?>
<svg xmlns="http://www.w3.org/2000/svg" version="1.1" width="600" height="600">
  <defs/>
  <g>
    <path stroke-width="0" fill="rgb(0, 0, 0)" opacity="1.0" d="M 337.85986328125 126.31423950195312 C 337.85986328125 127.2103271484375 337.7109375 128.8531494140625 337.412109375 131.24267578125 C 337.11328125 133.48287963867188 336.88916015625 135.72308349609375 336.73974609375 137.96328735351562 C 336.5908203125 140.2034912109375 336.515625 142.0703125 336.515625 143.56378173828125 C 336.216796875 149.089599609375 336.06787109375 156.33291625976562 336.06787109375 165.293701171875 C 336.06787109375 174.2545166015625 336.06787109375 184.11138916015625 336.06787109375 194.86434936523438 C 336.06787109375 205.6173095703125 336.142578125 216.4449462890625 336.2919921875 227.34722900390625 C 336.44091796875 238.24954223632812 336.5908203125 248.62911987304688 336.73974609375 258.4859924316406 C 336.88916015625 268.19354248046875 336.9638671875 276.48223876953125 336.9638671875 283.3522033691406 C 332.931640625 278.34912109375 328.8994140625 273.3459777832031 324.8671875 268.3428955078125 C 324.8671875 265.95330810546875 324.8671875 261.09954833984375 324.8671875 253.78158569335938 C 324.8671875 246.31427001953125 324.79248046875 237.35345458984375 324.64306640625 226.899169921875 C 324.494140625 216.29559326171875 324.34423828125 205.6173095703125 324.1953125 194.86434936523438 C 324.0458984375 183.9620361328125 323.896484375 173.955810546875 323.7470703125 164.84567260742188 C 323.7470703125 155.586181640625 323.59814453125 148.49221801757812 323.29931640625 143.56378173828125 C 323.29931640625 140.7261962890625 323.0751953125 137.36590576171875 322.626953125 133.48287963867188 C 322.17919921875 129.599853515625 321.8056640625 127.2103271484375 321.5068359375 126.31423950195312 C 326.9580078125 126.31423950195312 332.40869140625 126.31423950195312 337.85986328125 126.31423950195312M 124.15234375 192.6241455078125 C 134.75537109375 192.325439453125 147.00146484375 191.87741088867188 160.89013671875 191.280029296875 C 174.77880859375 190.68264770507812 189.78759765625 190.159912109375 205.91650390625 189.71188354492188 C 222.19482421875 189.114501953125 238.99560546875 188.591796875 256.3193359375 188.14373779296875 C 273.64306640625 187.69570922851562 290.8173828125 187.32235717773438 307.84228515625 187.02365112304688 C 325.0166015625 186.72494506835938 341.4443359375 186.57559204101562 357.125 186.57559204101562 C 372.35791015625 186.57559204101562 386.3212890625 186.65029907226562 399.01513671875 186.79962158203125 C 411.85888671875 186.948974609375 423.20849609375 187.02365112304688 433.0654296875 187.02365112304688 C 442.921875 187.02365112304688 451.43408203125 187.09832763671875 458.6025390625 187.24765014648438 C 465.77099609375 187.39700317382812 471.5205078125 187.4716796875 475.8515625 187.4716796875 C 475.8515625 191.72805786132812 475.8515625 195.98443603515625 475.8515625 200.24081420898438 C 465.248046875 199.79278564453125 450.76220703125 199.41943359375 432.39306640625 199.1207275390625 C 414.02392578125 198.822021484375 389.083984375 198.67266845703125 357.5732421875 198.67266845703125 C 340.10009765625 198.67266845703125 321.2080078125 198.822021484375 300.89794921875 199.1207275390625 C 280.73681640625 199.41943359375 260.12744140625 199.94210815429688 239.0703125 200.68887329101562 C 218.01318359375 201.28622436523438 197.6279296875 202.18231201171875 177.9150390625 203.37710571289062 C 158.35107421875 204.57186889648438 140.57958984375 205.84130859375 124.60009765625 207.1854248046875 C 124.451171875 202.33169555664062 124.30126953125 197.4779052734375 124.15234375 192.6241455078125M 342.56396484375 315.16302490234375 C 342.56396484375 330.09771728515625 339.80126953125 342.568115234375 334.27587890625 352.5743408203125 C 328.8994140625 362.58056640625 321.88037109375 370.12255859375 313.21875 375.20037841796875 C 304.7060546875 380.27813720703125 295.59619140625 382.8170166015625 285.88916015625 382.8170166015625 C 276.03271484375 382.8170166015625 266.9970703125 381.39825439453125 258.78369140625 378.5606689453125 C 250.71923828125 375.57373046875 243.62548828125 371.24267578125 237.50244140625 365.5675048828125 C 231.52880859375 359.74298095703125 226.89892578125 352.873046875 223.61376953125 344.95770263671875 C 220.328125 336.8929443359375 218.685546875 327.7081298828125 218.685546875 317.4031982421875 C 218.685546875 305.0074768066406 221.67236328125 293.6571044921875 227.64599609375 283.3522033691406 C 233.76904296875 273.04730224609375 241.83349609375 264.68389892578125 251.83935546875 258.261962890625 C 261.8447265625 251.840087890625 272.7470703125 248.62911987304688 284.544921875 248.62911987304688 C 299.1806640625 248.62911987304688 311.20263671875 251.91473388671875 320.61083984375 258.4859924316406 C 330.01953125 265.0572509765625 337.11328125 274.2420654296875 341.89208984375 286.04046630859375 C 346.67138671875 297.6894836425781 349.060546875 311.280029296875 349.060546875 326.81207275390625 C 349.060546875 341.7467041015625 347.2685546875 356.4573974609375 343.68408203125 370.9439697265625 C 340.10009765625 385.43060302734375 333.90234375 399.1705322265625 325.09130859375 412.1636962890625 C 316.4296875 425.15679931640625 304.4072265625 437.0299072265625 289.025390625 447.7828369140625 C 273.64306640625 458.5357666015625 254.0791015625 467.64593505859375 230.333984375 475.11328125 C 226.3017578125 471.5289306640625 222.26953125 467.944580078125 218.2373046875 464.36029052734375 C 239.1455078125 459.282470703125 257.06640625 452.5618896484375 272.00048828125 444.198486328125 C 286.93408203125 435.685791015625 299.10595703125 425.6795654296875 308.51416015625 414.1798095703125 C 318.072265625 402.68017578125 325.0166015625 389.8363037109375 329.34765625 375.6484375 C 333.82763671875 361.46044921875 336.06787109375 346.00311279296875 336.06787109375 329.27630615234375 C 336.06787109375 304.33538818359375 331.1396484375 286.6378173828125 321.283203125 276.1835632324219 C 311.42626953125 265.72930908203125 299.47900390625 260.502197265625 285.44091796875 260.502197265625 C 275.88330078125 260.502197265625 266.9970703125 262.9664001464844 258.78369140625 267.89483642578125 C 250.71923828125 272.8232727050781 244.14794921875 279.54388427734375 239.0703125 288.056640625 C 234.14208984375 296.4200439453125 231.67822265625 306.2022399902344 231.67822265625 317.4031982421875 C 231.67822265625 334.578125 236.9794921875 347.7952880859375 247.5830078125 357.05474853515625 C 258.1865234375 366.1649169921875 270.955078125 370.719970703125 285.88916015625 370.719970703125 C 296.9404296875 370.719970703125 306.125 367.88238525390625 313.4423828125 362.20721435546875 C 320.76025390625 356.3826904296875 326.2861328125 348.3179931640625 330.01953125 338.0130615234375 C 333.7529296875 327.7081298828125 335.61962890625 315.8350830078125 335.61962890625 302.3939208984375 C 337.9345703125 306.6502685546875 340.2490234375 310.90667724609375 342.56396484375 315.16302490234375"/>
  </g>
</svg>
