<?xml version="1.0" ?>
<svg xmlns="http://www.w3.org/2000/svg" version="1.1" width="600" height="600">
  <defs/>
  <g>
    <path stroke-width="0" fill="rgb(0, 0, 0)" opacity="1.0" d="M 209.076171875 141.82015991210938 C 212.8095703125 142.11886596679688 216.841796875 142.41754150390625 221.1728515625 142.71624755859375 C 225.65283203125 143.01495361328125 230.80517578125 143.16427612304688 236.62939453125 143.16427612304688 C 240.66162109375 143.16427612304688 247.158203125 143.01495361328125 256.11865234375 142.71624755859375 C 265.0791015625 142.41754150390625 275.3837890625 142.044189453125 287.0322265625 141.59613037109375 C 298.68115234375 141.14810180664062 310.404296875 140.7000732421875 322.2021484375 140.25201416015625 C 334.14990234375 139.65463256835938 344.90234375 139.0572509765625 354.4599609375 138.45986938476562 C 364.16748046875 137.86248779296875 371.3359375 137.26507568359375 375.96533203125 136.66769409179688 C 379.1015625 136.36898803710938 382.16259765625 135.99563598632812 385.14990234375 135.547607421875 C 388.13671875 134.95022583007812 390.67529296875 134.35281372070312 392.76611328125 133.75543212890625 C 395.90234375 136.8917236328125 399.03857421875 140.02798461914062 402.1748046875 143.16427612304688 C 400.97998046875 144.06036376953125 399.11328125 145.40447998046875 396.57421875 147.19662475585938 C 394.03564453125 148.83944702148438 391.8701171875 150.33291625976562 390.078125 151.67703247070312 C 383.5068359375 157.50155639648438 375.21826171875 164.67019653320312 365.212890625 173.18295288085938 C 355.20703125 181.54635620117188 344.37939453125 190.656494140625 332.73095703125 200.51336669921875 C 321.08203125 210.22091674804688 309.2841796875 220.00311279296875 297.3369140625 229.8599853515625 C 285.5390625 239.71685791015625 274.263671875 249.051025390625 263.51123046875 257.86248779296875 C 252.75830078125 266.52459716796875 243.35009765625 273.9919128417969 235.28564453125 280.26446533203125 C 259.6279296875 277.4268798828125 284.8671875 274.962646484375 311.00146484375 272.871826171875 C 337.13623046875 270.631591796875 363.04736328125 268.8394470214844 388.73388671875 267.4953308105469 C 414.5703125 266.0018615722656 439.36083984375 265.255126953125 463.10595703125 265.255126953125 C 463.10595703125 269.586181640625 463.10595703125 273.917236328125 463.10595703125 278.248291015625 C 441.60107421875 277.3522033691406 421.43994140625 277.128173828125 402.62255859375 277.57623291015625 C 383.955078125 278.0242614746094 368.27392578125 279.21905517578125 355.580078125 281.1605529785156 C 344.52880859375 282.95269775390625 333.55224609375 286.76104736328125 322.650390625 292.5855712890625 C 311.74853515625 298.2607421875 301.66796875 305.5040283203125 292.40869140625 314.31549072265625 C 283.298828125 322.97760009765625 275.98095703125 332.6104736328125 270.45556640625 343.21405029296875 C 265.0791015625 353.81768798828125 262.39111328125 364.86932373046875 262.39111328125 376.3690185546875 C 262.39111328125 393.842529296875 266.498046875 407.6571044921875 274.7119140625 417.81268310546875 C 283.0751953125 427.96826171875 293.603515625 435.5849609375 306.29736328125 440.6627197265625 C 319.14111328125 445.5911865234375 332.1337890625 449.2501220703125 345.275390625 451.63970947265625 C 358.86572265625 453.5811767578125 370.06640625 454.402587890625 378.87744140625 454.1038818359375 C 387.837890625 453.80523681640625 396.0517578125 453.357177734375 403.51904296875 452.759765625 C 402.4736328125 457.240234375 401.427734375 461.7205810546875 400.3828125 466.20098876953125 C 350.5029296875 468.14251708984375 313.017578125 461.49658203125 287.92822265625 446.26318359375 C 262.8388671875 430.8804931640625 250.29443359375 407.955810546875 250.29443359375 377.4891357421875 C 250.29443359375 361.8077392578125 254.1025390625 347.6197509765625 261.71875 334.92529296875 C 269.33544921875 322.08154296875 278.4453125 311.25390625 289.04833984375 302.44244384765625 C 299.65185546875 293.48162841796875 309.65771484375 286.98504638671875 319.06591796875 282.95269775390625 C 293.08056640625 285.1929016113281 264.1083984375 288.0304870605469 232.1494140625 291.4654541015625 C 200.33935546875 294.90045166015625 169.5751953125 299.0821533203125 139.8564453125 304.01055908203125 C 139.408203125 299.828857421875 138.9599609375 295.64715576171875 138.51220703125 291.4654541015625 C 150.31005859375 290.121337890625 162.8544921875 288.70257568359375 176.14599609375 287.2091064453125 C 189.43798828125 285.5662841796875 201.384765625 284.1474609375 211.98828125 282.95269775390625 C 225.72802734375 272.94647216796875 240.5126953125 261.59613037109375 256.3427734375 248.90167236328125 C 272.322265625 236.057861328125 288.07763671875 223.064697265625 303.609375 209.92221069335938 C 319.14111328125 196.63034057617188 333.1787109375 184.53329467773438 345.7236328125 173.6309814453125 C 358.41748046875 162.72869873046875 368.19970703125 154.29058837890625 375.0693359375 148.31674194335938 C 371.037109375 148.61544799804688 364.31689453125 148.98880004882812 354.908203125 149.43682861328125 C 345.64892578125 149.8848876953125 335.1201171875 150.4075927734375 323.322265625 151.00497436523438 C 311.673828125 151.4530029296875 299.9501953125 151.97573852539062 288.15234375 152.5731201171875 C 276.3544921875 153.17050170898438 265.900390625 153.69320678710938 256.79052734375 154.14126586914062 C 247.830078125 154.58929443359375 241.333984375 154.962646484375 237.3017578125 155.2613525390625 C 231.62646484375 155.56005859375 226.25 155.93341064453125 221.1728515625 156.38143920898438 C 216.24462890625 156.68014526367188 212.51123046875 156.97882080078125 209.97216796875 157.27752685546875 C 209.67333984375 152.12506103515625 209.375 146.97262573242188 209.076171875 141.82015991210938"/>
  </g>
</svg>
