<?xml version="1.0" encoding="utf-8"?>
<svg xmlns="http://www.w3.org/2000/svg" xmlns:ev="http://www.w3.org/2001/xml-events" xmlns:xlink="http://www.w3.org/1999/xlink" version="1.1" baseProfile="full" width="6902.0" height="1593.0" viewBox="204.0 -1503.0 6902.0 1593.0">
<defs/>
<g><path d="M 4531.000000 -156.000000 C 4531.000000 -167.333333 4531.000000 -198.666667 4531.000000 -250.000000 C 4531.000000 -302.000000 4531.000000 -366.000000 4531.000000 -442.000000 C 4531.000000 -518.666667 4531.000000 -599.666667 4531.000000 -685.000000 C 4531.000000 -771.000000 4531.000000 -854.666667 4531.000000 -936.000000 C 4531.000000 -1017.333333 4531.000000 -1089.000000 4531.000000 -1151.000000 C 4531.000000 -1213.000000 4531.000000 -1257.333333 4531.000000 -1284.000000 C 4531.000000 -1304.666667 4530.333333 -1331.666667 4529.000000 -1365.000000 C 4527.666667 -1398.333333 4525.333333 -1427.666667 4522.000000 -1453.000000 C 4547.333333 -1453.000000 4572.666667 -1453.000000 4598.000000 -1453.000000 C 4596.000000 -1429.000000 4594.000000 -1399.333333 4592.000000 -1364.000000 C 4590.000000 -1328.666667 4589.000000 -1302.000000 4589.000000 -1284.000000 C 4589.000000 -1220.000000 4589.000000 -1148.666667 4589.000000 -1070.000000 C 4589.000000 -991.333333 4589.000000 -911.000000 4589.000000 -829.000000 C 4589.000000 -747.666667 4589.333333 -668.000000 4590.000000 -590.000000 C 4590.666667 -512.666667 4591.000000 -442.666667 4591.000000 -380.000000 C 4591.000000 -317.333333 4591.000000 -265.666667 4591.000000 -225.000000 C 4591.000000 -185.000000 4591.000000 -162.000000 4591.000000 -156.000000 C 4591.000000 -132.666667 4591.000000 -109.666667 4591.000000 -87.000000 C 4591.000000 -65.000000 4591.666667 -43.666667 4593.000000 -23.000000 C 4594.333333 -2.333333 4595.333333 16.333333 4596.000000 33.000000 C 4572.333333 33.000000 4548.666667 33.000000 4525.000000 33.000000 C 4527.666667 8.333333 4529.333333 -21.000000 4530.000000 -55.000000 C 4530.666667 -89.000000 4531.000000 -122.666667 4531.000000 -156.000000z M 4577.000000 -943.000000 C 4639.666667 -923.666667 4707.666667 -900.666667 4781.000000 -874.000000 C 4855.000000 -848.000000 4930.333333 -820.000000 5007.000000 -790.000000 C 5084.333333 -760.000000 5158.666667 -729.333333 5230.000000 -698.000000 C 5302.000000 -666.666667 5367.333333 -636.333333 5426.000000 -607.000000 C 5417.666667 -587.000000 5409.333333 -567.000000 5401.000000 -547.000000 C 5345.666667 -577.666667 5281.666667 -609.333333 5209.000000 -642.000000 C 5137.000000 -674.666667 5062.333333 -706.333333 4985.000000 -737.000000 C 4907.666667 -767.666667 4833.333333 -795.000000 4762.000000 -819.000000 C 4691.333333 -843.666667 4629.666667 -863.666667 4577.000000 -879.000000 C 4577.000000 -900.333333 4577.000000 -921.666667 4577.000000 -943.000000z "/>
</g></svg>
