<?xml version="1.0" ?>
<svg xmlns="http://www.w3.org/2000/svg" version="1.1" width="600" height="600">
  <defs/>
  <g>
    <path stroke-width="0" fill="rgb(0, 0, 0)" opacity="1.0" d="M 160.28350830078125 250.292724609375 C 160.19583129882812 250.9461669921875 160.08621215820312 251.6431884765625 159.95468139648438 252.38372802734375 C 159.82315063476562 253.0806884765625 159.66970825195312 253.8865966796875 159.49432373046875 254.8013916015625 C 159.36279296875 255.89044189453125 159.07781982421875 257.87249755859375 158.63937377929688 260.74755859375 C 158.20095825195312 263.6226806640625 157.67483520507812 266.80267333984375 157.06100463867188 270.28759765625 C 156.49102783203125 273.7725830078125 155.8333740234375 277.0615234375 155.08804321289062 280.1544189453125 C 154.16732788085938 283.63934326171875 153.11508178710938 287.4727783203125 151.93130493164062 291.6546630859375 C 150.74752807617188 295.836669921875 149.366455078125 300.2581787109375 147.7880859375 304.9193115234375 C 146.25357055664062 309.536865234375 144.49981689453125 314.306884765625 142.52685546875 319.2293701171875 C 140.55389404296875 324.1082763671875 138.31787109375 329.052490234375 135.81878662109375 334.0621337890625 C 133.363525390625 339.07177734375 130.5794677734375 344.0595703125 127.466552734375 349.025634765625 C 126.107421875 348.4810791015625 124.74826049804688 347.93658447265625 123.38909912109375 347.39208984375 C 126.19509887695312 343.77642822265625 128.82571411132812 339.6380615234375 131.28097534179688 334.9769287109375 C 133.78005981445312 330.272216796875 136.08184814453125 325.37158203125 138.18634033203125 320.2747802734375 C 140.29083251953125 315.1781005859375 142.19802856445312 310.146728515625 143.90792846679688 305.1806640625 C 145.66168212890625 300.1710205078125 147.13043212890625 295.553466796875 148.314208984375 291.3280029296875 C 149.54183959960938 287.0589599609375 150.50637817382812 283.3997802734375 151.2078857421875 280.35040283203125 C 152.39166259765625 276.03778076171875 153.40008544921875 271.11529541015625 154.23309326171875 265.58294677734375 C 155.06613159179688 260.05059814453125 155.5264892578125 254.82318115234375 155.61416625976562 249.90069580078125 C 157.17062377929688 250.0313720703125 158.72708129882812 250.162109375 160.28350830078125 250.292724609375M 203.688720703125 265.32159423828125 C 205.70550537109375 267.6739501953125 207.85385131835938 270.70147705078125 210.13372802734375 274.40423583984375 C 212.41357421875 278.06341552734375 214.67153930664062 281.9840087890625 216.90756225585938 286.1658935546875 C 219.14358520507812 290.34783935546875 221.2042236328125 294.3773193359375 223.08950805664062 298.25433349609375 C 224.97479248046875 302.13134765625 226.4654541015625 305.50732421875 227.56155395507812 308.3824462890625 C 226.37777709960938 308.9923095703125 225.19400024414062 309.6021728515625 224.01022338867188 310.2120361328125 C 223.0018310546875 307.29339599609375 221.6207275390625 303.873779296875 219.86700439453125 299.9532470703125 C 218.11325073242188 296.03265380859375 216.14028930664062 292.003173828125 213.9481201171875 287.8648681640625 C 211.75592041015625 283.7264404296875 209.49798583984375 279.8494873046875 207.17425537109375 276.23382568359375 C 204.85055541992188 272.57464599609375 202.59262084960938 269.56884765625 200.40045166015625 267.216552734375 C 201.49652099609375 266.5848388671875 202.59262084960938 265.9532470703125 203.688720703125 265.32159423828125M 120.49542236328125 279.63165283203125 C 122.1614990234375 279.71875 123.67410278320312 279.7623291015625 125.03323364257812 279.7623291015625 C 126.39239501953125 279.7623291015625 127.90499877929688 279.71875 129.57107543945312 279.63165283203125 C 131.36865234375 279.5445556640625 133.75811767578125 279.39208984375 136.739501953125 279.17425537109375 C 139.72085571289062 278.9564208984375 142.98721313476562 278.71685791015625 146.53854370117188 278.4554443359375 C 150.13372802734375 278.1505126953125 153.68505859375 277.867431640625 157.19253540039062 277.60601806640625 C 160.70004272460938 277.30108642578125 163.900634765625 277.03973388671875 166.7943115234375 276.8218994140625 C 169.68798828125 276.6041259765625 171.90206909179688 276.49517822265625 173.43661499023438 276.49517822265625 C 176.54949951171875 276.49517822265625 179.465087890625 276.9307861328125 182.18341064453125 277.80206298828125 C 184.9017333984375 278.67327880859375 187.13775634765625 280.4375 188.8914794921875 283.0948486328125 C 190.6890869140625 285.70849609375 191.58786010742188 289.65087890625 191.58786010742188 294.921875 C 191.58786010742188 299.93145751953125 191.32479858398438 305.26776123046875 190.79867553710938 310.9307861328125 C 190.31640625 316.5938720703125 189.5272216796875 321.95196533203125 188.43112182617188 327.005126953125 C 187.33502197265625 332.05828857421875 185.91009521484375 336.26202392578125 184.1563720703125 339.61627197265625 C 182.31494140625 343.62396240234375 180.01315307617188 346.194091796875 177.25100708007812 347.32672119140625 C 174.53271484375 348.4593505859375 171.44171142578125 349.025634765625 167.97808837890625 349.025634765625 C 165.61053466796875 349.025634765625 163.045654296875 348.807861328125 160.28350830078125 348.3721923828125 C 157.56521606445312 347.9801025390625 155.28533935546875 347.5662841796875 153.44390869140625 347.13067626953125 C 153.24661254882812 345.67138671875 153.04931640625 344.2120361328125 152.85202026367188 342.752685546875 C 154.7811279296875 343.31903076171875 156.6883544921875 343.7982177734375 158.5736083984375 344.1903076171875 C 160.45889282226562 344.53875732421875 162.23455810546875 344.8001708984375 163.900634765625 344.974365234375 C 165.61053466796875 345.14862060546875 167.1011962890625 345.2357177734375 168.3726806640625 345.2357177734375 C 170.87176513671875 345.2357177734375 173.19546508789062 344.8218994140625 175.34381103515625 343.9942626953125 C 177.49212646484375 343.16656494140625 179.37741088867188 341.0755615234375 180.9996337890625 337.7213134765625 C 182.49029541015625 334.3670654296875 183.7398681640625 330.359375 184.74826049804688 325.6982421875 C 185.75665283203125 320.99359130859375 186.50201416015625 316.027587890625 186.98428344726562 310.80010986328125 C 187.51040649414062 305.57269287109375 187.77346801757812 300.49774169921875 187.77346801757812 295.57525634765625 C 187.77346801757812 291.2191162109375 187.13775634765625 287.93017578125 185.86627197265625 285.70849609375 C 184.638671875 283.48687744140625 182.92874145507812 281.96221923828125 180.736572265625 281.134521484375 C 178.54437255859375 280.306884765625 176.06723022460938 279.89300537109375 173.30508422851562 279.89300537109375 C 170.93753051757812 279.89300537109375 167.75885009765625 280.04547119140625 163.76910400390625 280.35040283203125 C 159.82315063476562 280.61181640625 155.61416625976562 280.96026611328125 151.14212036132812 281.3958740234375 C 146.71392822265625 281.7879638671875 142.57070922851562 282.17999267578125 138.71246337890625 282.57208251953125 C 134.8980712890625 282.964111328125 131.93862915039062 283.247314453125 129.83413696289062 283.4215087890625 C 128.738037109375 283.465087890625 127.33502197265625 283.59576416015625 125.6251220703125 283.8135986328125 C 123.95907592773438 284.0313720703125 122.4683837890625 284.2274169921875 121.153076171875 284.40167236328125 C 120.93386840820312 282.8116455078125 120.71466064453125 281.2216796875 120.49542236328125 279.63165283203125"/>
    <path stroke-width="0" fill="rgb(0, 0, 0)" opacity="1.0" d="M 258.734375 265.0601806640625 C 267.1085205078125 266.0621337890625 275.460693359375 266.62841796875 283.791015625 266.7591552734375 C 292.12127685546875 266.8897705078125 299.3993225097656 266.62841796875 305.6251220703125 265.9749755859375 C 310.22869873046875 265.3651123046875 314.94189453125 264.5374755859375 319.76470947265625 263.49200439453125 C 324.63134765625 262.446533203125 329.01568603515625 261.27032470703125 332.91778564453125 259.9635009765625 C 333.158935546875 261.24853515625 333.4000244140625 262.53363037109375 333.6412353515625 263.8187255859375 C 329.9583740234375 264.90771484375 325.68359375 265.9532470703125 320.81695556640625 266.95513916015625 C 315.994140625 267.95709228515625 311.259033203125 268.762939453125 306.6116027832031 269.372802734375 C 300.2981262207031 270.0262451171875 292.9324035644531 270.3311767578125 284.514404296875 270.28759765625 C 276.096435546875 270.24407958984375 267.6346435546875 269.85205078125 259.12896728515625 269.1114501953125 C 258.9974365234375 267.76104736328125 258.86590576171875 266.41064453125 258.734375 265.0601806640625M 256.103759765625 290.282470703125 C 262.943359375 291.0230712890625 269.8268127441406 291.50225830078125 276.75408935546875 291.7200927734375 C 283.681396484375 291.9378662109375 290.3236999511719 291.91607666015625 296.6810302734375 291.6546630859375 C 303.0383605957031 291.3497314453125 308.5845642089844 290.84881591796875 313.3197021484375 290.15185546875 C 318.53704833984375 289.4984130859375 323.666748046875 288.6053466796875 328.70880126953125 287.4727783203125 C 333.75079345703125 286.34014892578125 337.784423828125 285.27288818359375 340.80963134765625 284.27099609375 C 341.02880859375 285.57781982421875 341.248046875 286.8846435546875 341.46728515625 288.1915283203125 C 338.3543701171875 289.1063232421875 334.430419921875 290.04290771484375 329.6953125 291.00128173828125 C 325.0040283203125 291.95965576171875 319.91815185546875 292.7655029296875 314.43768310546875 293.4189453125 C 309.39569091796875 294.115966796875 303.674072265625 294.638671875 297.2729187011719 294.9871826171875 C 290.87176513671875 295.2921142578125 284.1636962890625 295.3792724609375 277.148681640625 295.24853515625 C 270.17755126953125 295.11785888671875 263.2502746582031 294.81292724609375 256.3668212890625 294.333740234375 C 256.27911376953125 292.98333740234375 256.1914367675781 291.6329345703125 256.103759765625 290.282470703125M 300.2981262207031 258.32989501953125 C 299.9473876953125 256.892333984375 299.5308532714844 255.454833984375 299.048583984375 254.017333984375 C 298.6101379394531 252.53619384765625 298.1936340332031 251.2510986328125 297.7990417480469 250.162109375 C 299.3116455078125 249.857177734375 300.8242492675781 249.55218505859375 302.33685302734375 249.247314453125 C 302.6875915527344 252.2530517578125 303.3671875 255.6944580078125 304.3755798339844 259.5714111328125 C 305.38397216796875 263.40484619140625 306.4800720214844 267.216552734375 307.6638488769531 271.00640869140625 C 308.8914794921875 274.752685546875 309.96563720703125 277.95452880859375 310.8863525390625 280.61181640625 C 312.2455139160156 284.2274169921875 313.6923522949219 287.8865966796875 315.22686767578125 291.58935546875 C 316.80523681640625 295.24853515625 318.55902099609375 298.90771484375 320.48809814453125 302.56695556640625 C 322.4610595703125 306.18255615234375 324.65325927734375 309.754638671875 327.06463623046875 313.28314208984375 C 327.59075927734375 314.023681640625 328.18267822265625 314.742431640625 328.84033203125 315.439453125 C 329.49798583984375 316.136474609375 330.17755126953125 316.83343505859375 330.8790283203125 317.5303955078125 C 329.91448974609375 318.77197265625 328.949951171875 320.013427734375 327.9853515625 321.2550048828125 C 325.6177978515625 320.514404296875 322.9871826171875 319.92633056640625 320.093505859375 319.49072265625 C 317.24371337890625 319.01153564453125 314.3500061035156 318.6195068359375 311.4124755859375 318.3145751953125 C 308.4749755859375 317.966064453125 305.6251220703125 317.6611328125 302.86297607421875 317.3997802734375 C 302.97259521484375 316.3106689453125 303.0821838378906 315.2216796875 303.1918029785156 314.132568359375 C 307.3131103515625 314.5682373046875 311.478271484375 315.04736328125 315.687255859375 315.5701904296875 C 319.896240234375 316.04931640625 323.052978515625 316.44140625 325.157470703125 316.746337890625 C 321.562255859375 311.5625 318.27398681640625 305.8558349609375 315.29266357421875 299.62652587890625 C 312.3551025390625 293.397216796875 309.8341064453125 287.49456787109375 307.7296142578125 281.91864013671875 C 306.7212219238281 279.13067626953125 305.75665283203125 276.34271240234375 304.8359375 273.5548095703125 C 303.91522216796875 270.766845703125 303.0821838378906 268.06597900390625 302.33685302734375 265.4522705078125 C 301.5915222167969 262.7950439453125 300.91192626953125 260.4208984375 300.2981262207031 258.32989501953125M 268.59918212890625 315.11273193359375 C 267.1085205078125 317.3779296875 265.9028015136719 319.6431884765625 264.9820861816406 321.90838623046875 C 264.105224609375 324.173583984375 263.6667785644531 326.7655029296875 263.6667785644531 329.6842041015625 C 263.6667785644531 335.3907470703125 266.23162841796875 339.8341064453125 271.361328125 343.01409912109375 C 276.5348815917969 346.194091796875 284.84326171875 347.78411865234375 296.28643798828125 347.78411865234375 C 302.07379150390625 347.78411865234375 307.1158142089844 347.5662841796875 311.4124755859375 347.13067626953125 C 315.70916748046875 346.695068359375 320.18121337890625 346.0198974609375 324.82861328125 345.1051025390625 C 324.82861328125 346.4554443359375 324.82861328125 347.805908203125 324.82861328125 349.15631103515625 C 320.44427490234375 349.8968505859375 316.0379638671875 350.41961669921875 311.60980224609375 350.72454833984375 C 307.18157958984375 351.072998046875 302.1614685058594 351.247314453125 296.54949951171875 351.247314453125 C 288.43841552734375 351.247314453125 281.6865234375 350.44140625 276.29376220703125 348.82958984375 C 270.9009704589844 347.2613525390625 266.86737060546875 344.865478515625 264.1929016113281 341.64190673828125 C 261.5184326171875 338.4183349609375 260.18121337890625 334.432373046875 260.18121337890625 329.6842041015625 C 260.18121337890625 326.59130859375 260.5758056640625 323.86865234375 261.364990234375 321.516357421875 C 262.1541748046875 319.12042236328125 263.22833251953125 316.6156005859375 264.5874938964844 314.001953125 C 265.92474365234375 314.3721923828125 267.261962890625 314.742431640625 268.59918212890625 315.11273193359375"/>
    <path stroke-width="0" fill="rgb(0, 0, 0)" opacity="1.0" d="M 428.6064453125 280.1544189453125 C 430.4478759765625 278.97821044921875 432.2674560546875 277.71490478515625 434.06500244140625 276.364501953125 C 435.906494140625 275.01409912109375 437.33135986328125 273.925048828125 438.33978271484375 273.097412109375 C 436.4544677734375 271.3548583984375 433.86767578125 269.43817138671875 430.5794677734375 267.34722900390625 C 427.33502197265625 265.2562255859375 423.8275146484375 263.2088623046875 420.0570068359375 261.2049560546875 C 416.330322265625 259.201171875 412.82275390625 257.48046875 409.5345458984375 256.04290771484375 C 410.3017578125 255.0845947265625 411.069091796875 254.126220703125 411.8363037109375 253.1678466796875 C 414.86151123046875 254.51824951171875 418.2593994140625 256.23895263671875 422.0299072265625 258.32989501953125 C 425.800537109375 260.4208984375 429.4833984375 262.57720947265625 433.0784912109375 264.798828125 C 436.6737060546875 266.9769287109375 439.5235595703125 269.02435302734375 441.6280517578125 270.9410400390625 C 441.9569091796875 271.986572265625 442.28570556640625 273.03204345703125 442.614501953125 274.0775146484375 C 441.9569091796875 274.6873779296875 441.167724609375 275.3408203125 440.2469482421875 276.03778076171875 C 439.3701171875 276.69122314453125 438.427490234375 277.38818359375 437.4190673828125 278.1287841796875 C 436.41064453125 278.86932373046875 435.38037109375 279.6534423828125 434.32806396484375 280.4810791015625 C 433.27581787109375 281.26519775390625 432.20166015625 282.02752685546875 431.1055908203125 282.76806640625 C 430.2725830078125 281.8968505859375 429.43951416015625 281.025634765625 428.6064453125 280.1544189453125M 401.3138427734375 342.09930419921875 C 404.2513427734375 342.927001953125 407.3204345703125 343.6021728515625 410.52099609375 344.1248779296875 C 413.7215576171875 344.6041259765625 417.777099609375 344.84368896484375 422.6876220703125 344.84368896484375 C 424.44134521484375 344.84368896484375 426.4581298828125 344.5169677734375 428.738037109375 343.863525390625 C 431.01788330078125 343.2100830078125 433.01275634765625 341.94683837890625 434.72265625 340.07366943359375 C 436.4326171875 338.156982421875 437.28753662109375 335.49969482421875 437.28753662109375 332.10186767578125 C 437.28753662109375 329.74951171875 436.76141357421875 327.31005859375 435.70916748046875 324.783447265625 C 434.6568603515625 322.21331787109375 433.25390625 319.6431884765625 431.5001220703125 317.072998046875 C 429.7464599609375 314.4593505859375 427.8172607421875 311.867431640625 425.7127685546875 309.2972412109375 C 423.6082763671875 306.68353271484375 421.5037841796875 304.156982421875 419.3992919921875 301.717529296875 C 418.215576171875 300.2799072265625 416.83447265625 298.777099609375 415.256103515625 297.2088623046875 C 413.7215576171875 295.5970458984375 412.23089599609375 294.09417724609375 410.7840576171875 292.7001953125 C 411.66094970703125 291.80712890625 412.53778076171875 290.9141845703125 413.4146728515625 290.0211181640625 C 414.59844970703125 291.37158203125 415.9356689453125 292.896240234375 417.4263916015625 294.5950927734375 C 418.9169921875 296.25048828125 420.320068359375 297.8187255859375 421.6353759765625 299.2998046875 C 425.0113525390625 303.0025634765625 428.1680908203125 306.705322265625 431.1055908203125 310.4080810546875 C 434.0430908203125 314.0672607421875 436.41064453125 317.74822998046875 438.208251953125 321.45098876953125 C 440.0496826171875 325.1102294921875 440.97039794921875 328.7694091796875 440.97039794921875 332.4285888671875 C 440.97039794921875 335.95709228515625 440.2689208984375 338.78857421875 438.86590576171875 340.923095703125 C 437.5067138671875 343.0576171875 435.8187255859375 344.647705078125 433.80194091796875 345.693115234375 C 431.78515625 346.7386474609375 429.7244873046875 347.43560791015625 427.6199951171875 347.78411865234375 C 425.559326171875 348.1761474609375 423.91522216796875 348.3721923828125 422.6876220703125 348.3721923828125 C 418.1278076171875 348.3721923828125 414.1600341796875 348.1544189453125 410.7840576171875 347.71875 C 407.4080810546875 347.32672119140625 404.4267578125 346.86932373046875 401.8399658203125 346.3465576171875 C 401.66455078125 344.9307861328125 401.48919677734375 343.5150146484375 401.3138427734375 342.09930419921875M 477.07562255859375 341.837890625 C 476.06719970703125 339.00640869140625 474.75189208984375 335.8917236328125 473.129638671875 332.493896484375 C 471.55126953125 329.052490234375 469.775634765625 325.567626953125 467.80267333984375 322.0390625 C 465.8297119140625 318.51055908203125 463.7471923828125 315.1781005859375 461.554931640625 312.0416259765625 C 459.36279296875 308.9051513671875 457.126708984375 306.204345703125 454.846923828125 303.93914794921875 C 455.8114013671875 303.28570556640625 456.7760009765625 302.63232421875 457.7406005859375 301.9788818359375 C 460.108154296875 304.6361083984375 462.431884765625 307.59832763671875 464.711669921875 310.865478515625 C 466.9915771484375 314.132568359375 469.139892578125 317.5086669921875 471.15673828125 320.99359130859375 C 473.17352294921875 324.4349365234375 474.97113037109375 327.78924560546875 476.54949951171875 331.056396484375 C 478.17169189453125 334.323486328125 479.48699951171875 337.263916015625 480.49542236328125 339.877685546875 C 479.35546875 340.53106689453125 478.215576171875 341.18450927734375 477.07562255859375 341.837890625M 402.23455810546875 316.746337890625 C 399.691650390625 319.27288818359375 396.60064697265625 322.0826416015625 392.96160888671875 325.175537109375 C 389.366455078125 328.2684326171875 385.55206298828125 331.274169921875 381.5184326171875 334.19281005859375 C 377.48480224609375 337.1114501953125 373.60467529296875 339.61627197265625 369.8779296875 341.707275390625 C 369.0887451171875 340.6617431640625 368.299560546875 339.61627197265625 367.5103759765625 338.57080078125 C 370.009521484375 337.263916015625 372.7716064453125 335.60858154296875 375.796875 333.604736328125 C 378.822021484375 331.557373046875 381.8472900390625 329.4010009765625 384.8724365234375 327.13580322265625 C 387.9415283203125 324.8270263671875 390.7913818359375 322.51824951171875 393.4219970703125 320.20947265625 C 396.096435546875 317.90069580078125 398.2667236328125 315.83154296875 399.9327392578125 314.001953125 C 400.70001220703125 314.916748046875 401.46728515625 315.83154296875 402.23455810546875 316.746337890625"/>
  </g>
</svg>
