<?xml version="1.0" ?>
<svg xmlns="http://www.w3.org/2000/svg" version="1.1" width="600" height="600">
  <defs/>
  <g>
    <path stroke-width="0" fill="rgb(0, 0, 0)" opacity="1.0" d="M 297.94781494140625 133.30413818359375 C 290.06988525390625 146.02304077148438 279.98065185546875 159.5714111328125 267.6800537109375 173.94931030273438 C 255.51763916015625 188.18893432617188 241.8349609375 202.56683349609375 226.6319580078125 217.08294677734375 C 211.56719970703125 231.59906005859375 195.53494262695312 245.56219482421875 178.53524780273438 258.97235107421875 C 161.67373657226562 272.38250732421875 144.46673583984375 284.479248046875 126.9141845703125 295.2626647949219 C 126.36135864257812 294.294921875 125.6702880859375 293.258056640625 124.841064453125 292.1520690917969 C 124.01181030273438 291.04608154296875 123.11343383789062 290.00921630859375 122.14596557617188 289.0414733886719 C 121.31671142578125 287.93548583984375 120.3492431640625 286.9677429199219 119.24359130859375 286.13824462890625 C 136.796142578125 275.49310302734375 154.072265625 263.5345458984375 171.07196044921875 250.26266479492188 C 188.0716552734375 236.99078369140625 204.17300415039062 223.02764892578125 219.37600708007812 208.37326049804688 C 234.71719360351562 193.58062744140625 248.5380859375 178.78802490234375 260.83868408203125 163.99539184570312 C 273.1392822265625 149.06451416015625 283.29766845703125 134.68661499023438 291.31378173828125 120.86175537109375 C 295.04541015625 120.86175537109375 298.77703857421875 120.86175537109375 302.5086975097656 120.86175537109375 C 312.73614501953125 135.2396240234375 324.8294677734375 149.963134765625 338.78857421875 165.03225708007812 C 352.7476806640625 179.963134765625 367.81243896484375 194.61749267578125 383.98291015625 208.99539184570312 C 400.1533203125 223.23501586914062 416.6002197265625 236.64517211914062 433.323486328125 249.22579956054688 C 450.0467529296875 261.668212890625 466.148193359375 272.520751953125 481.6275634765625 281.78338623046875 C 480.2454833984375 282.889404296875 478.72515869140625 284.41015625 477.066650390625 286.3456115722656 C 475.54638671875 288.1428527832031 474.2333984375 289.8018493652344 473.127685546875 291.32257080078125 C 457.51007080078125 281.78338623046875 441.40869140625 270.7235107421875 424.8236083984375 258.1428527832031 C 408.23858642578125 245.56219482421875 391.9990234375 232.22119140625 376.10498046875 218.11981201171875 C 360.34912109375 204.0184326171875 345.76812744140625 189.77880859375 332.36181640625 175.40090942382812 C 319.09375 160.88479614257812 307.6224365234375 146.8525390625 297.94781494140625 133.30413818359375M 211.290771484375 249.847900390625 C 270.9970703125 249.847900390625 330.703369140625 249.847900390625 390.40960693359375 249.847900390625 C 390.40960693359375 253.85711669921875 390.40960693359375 257.8663635253906 390.40960693359375 261.87554931640625 C 330.703369140625 261.87554931640625 270.9970703125 261.87554931640625 211.290771484375 261.87554931640625 C 211.290771484375 257.8663635253906 211.290771484375 253.85711669921875 211.290771484375 249.847900390625M 163.19403076171875 324.0875244140625 C 247.57061767578125 324.0875244140625 331.94720458984375 324.0875244140625 416.32379150390625 324.0875244140625 C 416.32379150390625 328.02764892578125 416.32379150390625 331.9677734375 416.32379150390625 335.9078369140625 C 331.94720458984375 335.9078369140625 247.57061767578125 335.9078369140625 163.19403076171875 335.9078369140625 C 163.19403076171875 331.9677734375 163.19403076171875 328.02764892578125 163.19403076171875 324.0875244140625M 412.177490234375 324.0875244140625 C 412.86859130859375 324.0875244140625 413.5595703125 324.0875244140625 414.25067138671875 324.0875244140625 C 415.0799560546875 323.67279052734375 415.9091796875 323.258056640625 416.7384033203125 322.84332275390625 C 419.64080810546875 324.0184326171875 422.543212890625 325.19354248046875 425.445556640625 326.36865234375 C 419.3643798828125 339.36407470703125 411.97021484375 354.91705322265625 403.2630615234375 373.02764892578125 C 394.694091796875 391.0 385.64141845703125 409.45623779296875 376.10498046875 428.39630126953125 C 366.568603515625 447.1981201171875 357.515869140625 464.6866455078125 348.9468994140625 480.86175537109375 C 345.07708740234375 479.6866455078125 341.20721435546875 478.51153564453125 337.33740234375 477.33642578125 C 343.97137451171875 465.3087158203125 350.812744140625 452.3824462890625 357.86138916015625 438.5576171875 C 364.9100341796875 424.594482421875 371.8896484375 410.63134765625 378.800048828125 396.668212890625 C 385.71051025390625 382.705078125 391.9990234375 369.64056396484375 397.66558837890625 357.47467041015625 C 403.4703369140625 345.1705322265625 408.30767822265625 334.8018798828125 412.177490234375 326.36865234375 C 412.177490234375 325.6082763671875 412.177490234375 324.847900390625 412.177490234375 324.0875244140625"/>
  </g>
</svg>
