<?xml version="1.0" ?>
<svg xmlns="http://www.w3.org/2000/svg" version="1.1" width="600" height="600">
  <defs/>
  <g>
    <path stroke-width="0" fill="rgb(0, 0, 0)" opacity="1.0" d="M 121.820556640625 295.39306640625 C 133.236083984375 295.39306640625 144.65164184570312 295.39306640625 156.06716918945312 295.39306640625 C 156.06716918945312 295.78619384765625 156.06716918945312 296.1793212890625 156.06716918945312 296.5723876953125 C 144.65164184570312 296.5723876953125 133.236083984375 296.5723876953125 121.820556640625 296.5723876953125 C 121.820556640625 296.1793212890625 121.820556640625 295.78619384765625 121.820556640625 295.39306640625M 124.935791015625 288.27587890625 C 132.66778564453125 288.27587890625 140.39974975585938 288.27587890625 148.13174438476562 288.27587890625 C 148.13174438476562 288.662109375 148.13174438476562 289.04827880859375 148.13174438476562 289.4344482421875 C 140.39974975585938 289.4344482421875 132.66778564453125 289.4344482421875 124.935791015625 289.4344482421875 C 124.935791015625 289.04827880859375 124.935791015625 288.662109375 124.935791015625 288.27587890625M 136.13385009765625 282.97930908203125 C 136.52676391601562 282.97930908203125 136.919677734375 282.97930908203125 137.31256103515625 282.97930908203125 C 137.31256103515625 287.2965087890625 137.31256103515625 291.61376953125 137.31256103515625 295.9310302734375 C 136.919677734375 295.9310302734375 136.52676391601562 295.9310302734375 136.13385009765625 295.9310302734375 C 136.13385009765625 291.61376953125 136.13385009765625 287.2965087890625 136.13385009765625 282.97930908203125M 150.804931640625 299.94482421875 C 151.127685546875 300.2620849609375 151.450439453125 300.579345703125 151.773193359375 300.89654541015625 C 150.1875 301.3240966796875 148.2930908203125 301.71728515625 146.08999633789062 302.07586669921875 C 143.90087890625 302.4344482421875 141.6065673828125 302.75860595703125 139.20697021484375 303.04827880859375 C 136.80740356445312 303.337890625 134.49200439453125 303.579345703125 132.26083374023438 303.77239990234375 C 132.23275756835938 303.634521484375 132.1766357421875 303.468994140625 132.09243774414062 303.27587890625 C 132.00823974609375 303.0689697265625 131.93106079101562 302.917236328125 131.86090087890625 302.8206787109375 C 133.50271606445312 302.6551513671875 135.20065307617188 302.468994140625 136.95474243164062 302.2620849609375 C 138.72286987304688 302.0413818359375 140.462890625 301.81378173828125 142.17486572265625 301.579345703125 C 143.88687133789062 301.3448486328125 145.486572265625 301.08966064453125 146.97402954101562 300.81378173828125 C 148.47552490234375 300.524169921875 149.75250244140625 300.2344970703125 150.804931640625 299.94482421875M 153.39398193359375 285.08966064453125 C 153.73074340820312 285.303466796875 154.06753540039062 285.5172119140625 154.40432739257812 285.7310791015625 C 151.6258544921875 288.862060546875 148.4544677734375 291.72412109375 144.89019775390625 294.3172607421875 C 141.33993530273438 296.91033935546875 137.55111694335938 299.24139404296875 133.52377319335938 301.310302734375 C 129.49639892578125 303.365478515625 125.38485717773438 305.16552734375 121.1890869140625 306.7103271484375 C 121.13296508789062 306.5999755859375 121.04876708984375 306.4827880859375 120.93649291992188 306.358642578125 C 120.82424926757812 306.220703125 120.7049560546875 306.08966064453125 120.57867431640625 305.96551513671875 C 120.46640014648438 305.82757568359375 120.36117553710938 305.71728515625 120.262939453125 305.634521484375 C 124.54287719726562 304.17242431640625 128.7105712890625 302.420654296875 132.7659912109375 300.3792724609375 C 136.82144165039062 298.3240966796875 140.6102294921875 296.0137939453125 144.1324462890625 293.4482421875 C 147.66864013671875 290.86895751953125 150.75582885742188 288.082763671875 153.39398193359375 285.08966064453125M 132.13455200195312 299.862060546875 C 132.54147338867188 299.917236328125 132.94842529296875 299.972412109375 133.35537719726562 300.027587890625 C 133.102783203125 301.20001220703125 132.80810546875 302.4552001953125 132.4713134765625 303.7930908203125 C 132.13455200195312 305.13104248046875 131.79776000976562 306.420654296875 131.46096801757812 307.662109375 C 131.12417602539062 308.9034423828125 130.80844116210938 309.9862060546875 130.51376342773438 310.91033935546875 C 130.11383056640625 310.8482666015625 129.71389770507812 310.78619384765625 129.31396484375 310.72412109375 C 129.63671875 309.78619384765625 129.96649169921875 308.689697265625 130.30328369140625 307.4344482421875 C 130.64007568359375 306.1793212890625 130.96981811523438 304.88275146484375 131.29257202148438 303.5447998046875 C 131.61532592773438 302.2069091796875 131.89599609375 300.97930908203125 132.13455200195312 299.862060546875M 150.3629150390625 307.6207275390625 C 150.77688598632812 307.6207275390625 151.19085693359375 307.6207275390625 151.60479736328125 307.6207275390625 C 151.60479736328125 307.6207275390625 151.5977783203125 307.6689453125 151.583740234375 307.7655029296875 C 151.583740234375 307.8482666015625 151.583740234375 307.95172119140625 151.583740234375 308.07586669921875 C 151.583740234375 308.20001220703125 151.56973266601562 308.2965087890625 151.54165649414062 308.365478515625 C 151.21890258789062 310.4620361328125 150.90316772460938 312.1793212890625 150.59445190429688 313.5172119140625 C 150.29977416992188 314.85516357421875 149.98403930664062 315.89654541015625 149.64724731445312 316.641357421875 C 149.31048583984375 317.4000244140625 148.93157958984375 317.96551513671875 148.5106201171875 318.337890625 C 148.201904296875 318.586181640625 147.87213134765625 318.744873046875 147.52130126953125 318.81378173828125 C 147.18453979492188 318.89654541015625 146.72845458984375 318.93792724609375 146.15313720703125 318.93792724609375 C 145.59182739257812 318.96551513671875 144.73583984375 318.9586181640625 143.58517456054688 318.917236328125 C 142.44851684570312 318.8758544921875 141.24169921875 318.806884765625 139.96475219726562 318.7103271484375 C 139.95071411132812 318.5723876953125 139.90859985351562 318.39306640625 139.83843994140625 318.17242431640625 C 139.76828002929688 317.96551513671875 139.67706298828125 317.77239990234375 139.5648193359375 317.5931396484375 C 140.94000244140625 317.71728515625 142.23101806640625 317.79998779296875 143.43780517578125 317.84136962890625 C 144.65866088867188 317.88275146484375 145.486572265625 317.9034423828125 145.92160034179688 317.9034423828125 C 146.37063598632812 317.9034423828125 146.72146606445312 317.88275146484375 146.97402954101562 317.84136962890625 C 147.24066162109375 317.79998779296875 147.46517944335938 317.7034912109375 147.64761352539062 317.5517578125 C 148.19488525390625 317.0965576171875 148.6719970703125 316.1517333984375 149.07891845703125 314.71728515625 C 149.49990844726562 313.2689208984375 149.92791748046875 310.97930908203125 150.3629150390625 307.8482666015625 C 150.3629150390625 307.77239990234375 150.3629150390625 307.696533203125 150.3629150390625 307.6207275390625M 130.51376342773438 307.6207275390625 C 137.30557250976562 307.6207275390625 144.09735107421875 307.6207275390625 150.88912963867188 307.6207275390625 C 150.88912963867188 308.0137939453125 150.88912963867188 308.4068603515625 150.88912963867188 308.79998779296875 C 144.04824829101562 308.79998779296875 137.20733642578125 308.79998779296875 130.36642456054688 308.79998779296875 C 130.41552734375 308.4068603515625 130.46466064453125 308.0137939453125 130.51376342773438 307.6207275390625"/>
    <path stroke-width="0" fill="rgb(0, 0, 0)" opacity="1.0" d="M 163.45535278320312 285.337890625 C 166.63375854492188 285.337890625 169.8121337890625 285.337890625 172.99053955078125 285.337890625 C 172.99053955078125 294.303466796875 172.99053955078125 303.2689208984375 172.99053955078125 312.2344970703125 C 169.8121337890625 312.2344970703125 166.63375854492188 312.2344970703125 163.45535278320312 312.2344970703125 C 163.45535278320312 311.83447265625 163.45535278320312 311.4344482421875 163.45535278320312 311.03448486328125 C 166.2408447265625 311.03448486328125 169.02630615234375 311.03448486328125 171.81179809570312 311.03448486328125 C 171.81179809570312 302.8482666015625 171.81179809570312 294.662109375 171.81179809570312 286.475830078125 C 169.02630615234375 286.475830078125 166.2408447265625 286.475830078125 163.45535278320312 286.475830078125 C 163.45535278320312 286.0965576171875 163.45535278320312 285.71728515625 163.45535278320312 285.337890625M 163.45535278320312 293.71728515625 C 166.50042724609375 293.71728515625 169.5455322265625 293.71728515625 172.59060668945312 293.71728515625 C 172.59060668945312 294.1103515625 172.59060668945312 294.50341796875 172.59060668945312 294.89654541015625 C 169.5455322265625 294.89654541015625 166.50042724609375 294.89654541015625 163.45535278320312 294.89654541015625 C 163.45535278320312 294.50341796875 163.45535278320312 294.1103515625 163.45535278320312 293.71728515625M 163.45535278320312 302.303466796875 C 166.50042724609375 302.303466796875 169.5455322265625 302.303466796875 172.59060668945312 302.303466796875 C 172.59060668945312 302.6827392578125 172.59060668945312 303.06207275390625 172.59060668945312 303.44140625 C 169.5455322265625 303.44140625 166.50042724609375 303.44140625 163.45535278320312 303.44140625 C 163.45535278320312 303.06207275390625 163.45535278320312 302.6827392578125 163.45535278320312 302.303466796875M 162.8028564453125 285.337890625 C 163.20977783203125 285.337890625 163.61672973632812 285.337890625 164.023681640625 285.337890625 C 164.023681640625 295.44140625 164.023681640625 305.5447998046875 164.023681640625 315.6483154296875 C 163.61672973632812 315.6483154296875 163.20977783203125 315.6483154296875 162.8028564453125 315.6483154296875 C 162.8028564453125 305.5447998046875 162.8028564453125 295.44140625 162.8028564453125 285.337890625M 178.21066284179688 285.00689697265625 C 184.28680419921875 285.00689697265625 190.3629150390625 285.00689697265625 196.43905639648438 285.00689697265625 C 196.43905639648438 288.3448486328125 196.43905639648438 291.6827392578125 196.43905639648438 295.02069091796875 C 190.3629150390625 295.02069091796875 184.28680419921875 295.02069091796875 178.21066284179688 295.02069091796875 C 178.21066284179688 294.6275634765625 178.21066284179688 294.2344970703125 178.21066284179688 293.84136962890625 C 183.87985229492188 293.84136962890625 189.54901123046875 293.84136962890625 195.21820068359375 293.84136962890625 C 195.21820068359375 291.28271484375 195.21820068359375 288.72412109375 195.21820068359375 286.16552734375 C 189.54901123046875 286.16552734375 183.87985229492188 286.16552734375 178.21066284179688 286.16552734375 C 178.21066284179688 285.779296875 178.21066284179688 285.39306640625 178.21066284179688 285.00689697265625M 178.29486083984375 302.137939453125 C 184.841064453125 302.137939453125 191.38729858398438 302.137939453125 197.93353271484375 302.137939453125 C 197.93353271484375 302.524169921875 197.93353271484375 302.91033935546875 197.93353271484375 303.2965087890625 C 191.38729858398438 303.2965087890625 184.841064453125 303.2965087890625 178.29486083984375 303.2965087890625 C 178.29486083984375 302.91033935546875 178.29486083984375 302.524169921875 178.29486083984375 302.137939453125M 177.55813598632812 285.00689697265625 C 177.9510498046875 285.00689697265625 178.34396362304688 285.00689697265625 178.73687744140625 285.00689697265625 C 178.73687744140625 295.6275634765625 178.73687744140625 306.248291015625 178.73687744140625 316.86895751953125 C 178.34396362304688 316.86895751953125 177.9510498046875 316.86895751953125 177.55813598632812 316.86895751953125 C 177.55813598632812 306.248291015625 177.55813598632812 295.6275634765625 177.55813598632812 285.00689697265625M 173.20101928710938 317.15863037109375 C 174.52008056640625 316.93792724609375 176.04263305664062 316.6759033203125 177.76864624023438 316.3724365234375 C 179.50869750976562 316.0689697265625 181.35397338867188 315.7379150390625 183.30450439453125 315.3792724609375 C 185.26907348632812 315.02069091796875 187.2476806640625 314.6689453125 189.24029541015625 314.3240966796875 C 189.26837158203125 314.6689453125 189.29644775390625 315.0137939453125 189.32449340820312 315.358642578125 C 186.51797485351562 315.92413330078125 183.71847534179688 316.4620361328125 180.92596435546875 316.972412109375 C 178.14752197265625 317.4827880859375 175.70584106445312 317.93792724609375 173.6009521484375 318.337890625 C 173.4676513671875 317.94482421875 173.33432006835938 317.5517578125 173.20101928710938 317.15863037109375M 187.17752075195312 294.027587890625 C 187.5985107421875 294.027587890625 188.01947021484375 294.027587890625 188.44046020507812 294.027587890625 C 188.4825439453125 297.5999755859375 188.72109985351562 300.82757568359375 189.1561279296875 303.7103271484375 C 189.59112548828125 306.579345703125 190.1734619140625 309.03448486328125 190.90316772460938 311.07586669921875 C 191.63287353515625 313.11724853515625 192.44677734375 314.6827392578125 193.3448486328125 315.77239990234375 C 194.24295043945312 316.8482666015625 195.19015502929688 317.38623046875 196.18646240234375 317.38623046875 C 196.70565795898438 317.358642578125 197.07049560546875 316.862060546875 197.281005859375 315.89654541015625 C 197.49148559570312 314.9310302734375 197.63882446289062 313.3792724609375 197.7230224609375 311.24139404296875 C 197.89141845703125 311.365478515625 198.0738525390625 311.4827880859375 198.27029418945312 311.5931396484375 C 198.46676635742188 311.7034912109375 198.6632080078125 311.779296875 198.85968017578125 311.8206787109375 C 198.77548217773438 313.4896240234375 198.6351318359375 314.81378173828125 198.43869018554688 315.7930908203125 C 198.25628662109375 316.77239990234375 197.98263549804688 317.4827880859375 197.6177978515625 317.92413330078125 C 197.2529296875 318.365478515625 196.76177978515625 318.586181640625 196.14434814453125 318.586181640625 C 195.1199951171875 318.586181640625 194.165771484375 318.18621826171875 193.28170776367188 317.38623046875 C 192.39764404296875 316.5999755859375 191.5977783203125 315.475830078125 190.88214111328125 314.0137939453125 C 190.16647338867188 312.5517578125 189.5419921875 310.81378173828125 189.0087890625 308.79998779296875 C 188.48956298828125 306.77239990234375 188.07559204101562 304.5172119140625 187.76687622070312 302.03448486328125 C 187.45816040039062 299.5379638671875 187.26171875 296.86895751953125 187.17752075195312 294.027587890625"/>
    <path stroke-width="0" fill="rgb(0, 0, 0)" opacity="1.0" d="M 218.05630493164062 294.751708984375 C 223.22732543945312 294.751708984375 228.39834594726562 294.751708984375 233.56936645507812 294.751708984375 C 233.56936645507812 295.13104248046875 233.56936645507812 295.5103759765625 233.56936645507812 295.8896484375 C 228.39834594726562 295.8896484375 223.22732543945312 295.8896484375 218.05630493164062 295.8896484375 C 218.05630493164062 295.5103759765625 218.05630493164062 295.13104248046875 218.05630493164062 294.751708984375M 215.06735229492188 302.220703125 C 222.36431884765625 302.220703125 229.66128540039062 302.220703125 236.958251953125 302.220703125 C 236.958251953125 302.5999755859375 236.958251953125 302.97930908203125 236.958251953125 303.358642578125 C 229.66128540039062 303.358642578125 222.36431884765625 303.358642578125 215.06735229492188 303.358642578125 C 215.06735229492188 302.97930908203125 215.06735229492188 302.5999755859375 215.06735229492188 302.220703125M 225.57077026367188 284.3448486328125 C 224.78494262695312 285.696533203125 223.77459716796875 287.0965576171875 222.53973388671875 288.5447998046875 C 221.30487060546875 289.97930908203125 219.92965698242188 291.358642578125 218.41412353515625 292.6827392578125 C 216.91265869140625 294.00689697265625 215.34100341796875 295.18621826171875 213.69915771484375 296.220703125 C 213.614990234375 296.082763671875 213.49569702148438 295.9310302734375 213.34133911132812 295.7655029296875 C 213.20101928710938 295.586181640625 213.0606689453125 295.4482421875 212.92034912109375 295.3516845703125 C 214.56219482421875 294.3724365234375 216.14788818359375 293.21380615234375 217.67742919921875 291.8758544921875 C 219.22100830078125 290.5379638671875 220.61724853515625 289.11724853515625 221.86614990234375 287.61376953125 C 223.12908935546875 286.0965576171875 224.1324462890625 284.60693359375 224.87615966796875 283.14483642578125 C 225.28311157226562 283.14483642578125 225.6900634765625 283.14483642578125 226.09698486328125 283.14483642578125 C 227.09332275390625 284.689697265625 228.28607177734375 286.2069091796875 229.67532348632812 287.696533203125 C 231.06454467773438 289.17242431640625 232.5379638671875 290.5447998046875 234.0955810546875 291.81378173828125 C 235.667236328125 293.082763671875 237.17578125 294.1517333984375 238.62112426757812 295.02069091796875 C 238.52288818359375 295.13104248046875 238.38958740234375 295.28271484375 238.22119140625 295.475830078125 C 238.05279541015625 295.6551513671875 237.93353271484375 295.806884765625 237.86334228515625 295.9310302734375 C 236.37591552734375 294.97930908203125 234.86038208007812 293.8758544921875 233.3167724609375 292.6207275390625 C 231.7872314453125 291.365478515625 230.348876953125 290.027587890625 229.00177001953125 288.60693359375 C 227.65463256835938 287.17242431640625 226.51095581054688 285.751708984375 225.57077026367188 284.3448486328125M 225.00244140625 295.14483642578125 C 225.409423828125 295.14483642578125 225.81634521484375 295.14483642578125 226.22329711914062 295.14483642578125 C 226.22329711914062 302.4000244140625 226.22329711914062 309.6551513671875 226.22329711914062 316.91033935546875 C 226.22329711914062 317.420654296875 226.13909912109375 317.79998779296875 225.970703125 318.04827880859375 C 225.81634521484375 318.2965087890625 225.53570556640625 318.475830078125 225.12875366210938 318.586181640625 C 224.7498779296875 318.6827392578125 224.16049194335938 318.7379150390625 223.36065673828125 318.751708984375 C 222.57479858398438 318.7655029296875 221.50833129882812 318.77239990234375 220.16119384765625 318.77239990234375 C 220.13311767578125 318.6483154296875 220.06298828125 318.468994140625 219.95071411132812 318.2344970703125 C 219.83843994140625 318.0137939453125 219.73321533203125 317.81378173828125 219.63497924804688 317.634521484375 C 220.78564453125 317.662109375 221.781982421875 317.6759033203125 222.62393188476562 317.6759033203125 C 223.47991943359375 317.6759033203125 224.0482177734375 317.6759033203125 224.32888793945312 317.6759033203125 C 224.62356567382812 317.6483154296875 224.80599975585938 317.586181640625 224.87615966796875 317.4896240234375 C 224.96035766601562 317.39306640625 225.00244140625 317.21380615234375 225.00244140625 316.95172119140625 C 225.00244140625 309.6827392578125 225.00244140625 302.413818359375 225.00244140625 295.14483642578125M 218.77197265625 306.1517333984375 C 219.15084838867188 306.24139404296875 219.52972412109375 306.3310546875 219.90863037109375 306.420654296875 C 219.23504638671875 308.20001220703125 218.36502075195312 309.9310302734375 217.29855346679688 311.61376953125 C 216.24609375 313.2965087890625 215.13751220703125 314.7310791015625 213.97280883789062 315.917236328125 C 213.91668701171875 315.83447265625 213.82546997070312 315.751708984375 213.69915771484375 315.6689453125 C 213.5869140625 315.5723876953125 213.4676513671875 315.475830078125 213.34133911132812 315.3792724609375 C 213.22906494140625 315.2689208984375 213.1168212890625 315.18621826171875 213.00457763671875 315.13104248046875 C 214.18328857421875 313.9862060546875 215.27081298828125 312.6275634765625 216.26715087890625 311.05517578125 C 217.26345825195312 309.4827880859375 218.098388671875 307.8482666015625 218.77197265625 306.1517333984375M 230.8330078125 306.6689453125 C 231.1417236328125 306.5103759765625 231.450439453125 306.3516845703125 231.7591552734375 306.193115234375 C 232.53094482421875 307.11724853515625 233.30975341796875 308.1241455078125 234.0955810546875 309.21380615234375 C 234.88143920898438 310.2896728515625 235.61111450195312 311.337890625 236.28469848632812 312.358642578125 C 236.958251953125 313.3792724609375 237.49850463867188 314.27587890625 237.90545654296875 315.04827880859375 C 237.56866455078125 315.248291015625 237.23187255859375 315.4482421875 236.89511108398438 315.6483154296875 C 236.4881591796875 314.8758544921875 235.94790649414062 313.96551513671875 235.27435302734375 312.917236328125 C 234.60076904296875 311.86895751953125 233.87808227539062 310.79998779296875 233.10629272460938 309.7103271484375 C 232.33450317382812 308.60693359375 231.57675170898438 307.5931396484375 230.8330078125 306.6689453125M 203.46939086914062 284.7379150390625 C 206.63375854492188 284.7379150390625 209.798095703125 284.7379150390625 212.96246337890625 284.7379150390625 C 212.96246337890625 285.1241455078125 212.96246337890625 285.5103759765625 212.96246337890625 285.89654541015625 C 210.19802856445312 285.89654541015625 207.43359375 285.89654541015625 204.669189453125 285.89654541015625 C 204.669189453125 296.85516357421875 204.669189453125 307.81378173828125 204.669189453125 318.77239990234375 C 204.26925659179688 318.77239990234375 203.86932373046875 318.77239990234375 203.46939086914062 318.77239990234375 C 203.46939086914062 307.4276123046875 203.46939086914062 296.082763671875 203.46939086914062 284.7379150390625M 212.646728515625 284.7379150390625 C 212.72390747070312 284.7379150390625 212.80108642578125 284.7379150390625 212.87826538085938 284.7379150390625 C 212.96246337890625 284.7103271484375 213.04666137695312 284.6827392578125 213.130859375 284.6551513671875 C 213.3834228515625 284.84136962890625 213.63604736328125 285.027587890625 213.88861083984375 285.21380615234375 C 213.45361328125 286.248291015625 212.9835205078125 287.3516845703125 212.47833251953125 288.524169921875 C 211.9871826171875 289.6827392578125 211.48202514648438 290.85516357421875 210.96282958984375 292.0413818359375 C 210.443603515625 293.21380615234375 209.91036987304688 294.337890625 209.36309814453125 295.413818359375 C 211.089111328125 297.16552734375 212.2327880859375 298.78619384765625 212.7940673828125 300.27587890625 C 213.36941528320312 301.751708984375 213.65707397460938 303.1517333984375 213.65707397460938 304.475830078125 C 213.65707397460938 305.3310546875 213.5447998046875 306.137939453125 213.3203125 306.89654541015625 C 213.10980224609375 307.641357421875 212.75900268554688 308.18621826171875 212.26785278320312 308.531005859375 C 212.029296875 308.696533203125 211.7486572265625 308.82757568359375 211.4259033203125 308.92413330078125 C 211.1031494140625 309.00689697265625 210.7523193359375 309.07586669921875 210.37344360351562 309.13104248046875 C 209.43325805664062 309.21380615234375 208.49307250976562 309.21380615234375 207.55288696289062 309.13104248046875 C 207.52481079101562 308.99310302734375 207.4757080078125 308.81378173828125 207.40554809570312 308.5931396484375 C 207.33538818359375 308.3724365234375 207.23715209960938 308.16552734375 207.11083984375 307.972412109375 C 207.67214965820312 308.0 208.1983642578125 308.02069091796875 208.68951416015625 308.03448486328125 C 209.1947021484375 308.04827880859375 209.6507568359375 308.0413818359375 210.05770874023438 308.0137939453125 C 210.6470947265625 307.9586181640625 211.1171875 307.82757568359375 211.46798706054688 307.6207275390625 C 211.84686279296875 307.358642578125 212.10647583007812 306.9310302734375 212.24679565429688 306.337890625 C 212.40115356445312 305.7310791015625 212.47833251953125 305.1103515625 212.47833251953125 304.475830078125 C 212.47833251953125 303.2344970703125 212.16961669921875 301.8896484375 211.55218505859375 300.44140625 C 210.93475341796875 298.97930908203125 209.74899291992188 297.358642578125 207.99490356445312 295.579345703125 C 208.4439697265625 294.6551513671875 208.885986328125 293.72412109375 209.32098388671875 292.78619384765625 C 209.75601196289062 291.8482666015625 210.177001953125 290.92413330078125 210.58392333984375 290.0137939453125 C 210.99087524414062 289.08966064453125 211.36273193359375 288.2069091796875 211.69952392578125 287.365478515625 C 212.05035400390625 286.5103759765625 212.3660888671875 285.72412109375 212.646728515625 285.00689697265625 C 212.646728515625 284.917236328125 212.646728515625 284.82757568359375 212.646728515625 284.7379150390625"/>
    <path stroke-width="0" fill="rgb(0, 0, 0)" opacity="1.0" d="M 242.62042236328125 296.4896240234375 C 254.52008056640625 296.4896240234375 266.41973876953125 296.4896240234375 278.31939697265625 296.4896240234375 C 278.31939697265625 296.8758544921875 278.31939697265625 297.2620849609375 278.31939697265625 297.6483154296875 C 266.41973876953125 297.6483154296875 254.52008056640625 297.6483154296875 242.62042236328125 297.6483154296875 C 242.62042236328125 297.2620849609375 242.62042236328125 296.8758544921875 242.62042236328125 296.4896240234375M 246.21978759765625 288.7103271484375 C 254.12716674804688 288.7103271484375 262.0345458984375 288.7103271484375 269.94195556640625 288.7103271484375 C 269.94195556640625 289.0965576171875 269.94195556640625 289.4827880859375 269.94195556640625 289.86895751953125 C 262.0345458984375 289.86895751953125 254.12716674804688 289.86895751953125 246.21978759765625 289.86895751953125 C 246.21978759765625 289.4827880859375 246.21978759765625 289.0965576171875 246.21978759765625 288.7103271484375M 252.23977661132812 309.2965087890625 C 258.91229248046875 309.2965087890625 265.5848083496094 309.2965087890625 272.25732421875 309.2965087890625 C 272.25732421875 309.689697265625 272.25732421875 310.082763671875 272.25732421875 310.475830078125 C 265.5848083496094 310.475830078125 258.91229248046875 310.475830078125 252.23977661132812 310.475830078125 C 252.23977661132812 310.082763671875 252.23977661132812 309.689697265625 252.23977661132812 309.2965087890625M 252.23977661132812 316.2069091796875 C 258.91229248046875 316.2069091796875 265.5848083496094 316.2069091796875 272.25732421875 316.2069091796875 C 272.25732421875 316.586181640625 272.25732421875 316.96551513671875 272.25732421875 317.3448486328125 C 265.5848083496094 317.3448486328125 258.91229248046875 317.3448486328125 252.23977661132812 317.3448486328125 C 252.23977661132812 316.96551513671875 252.23977661132812 316.586181640625 252.23977661132812 316.2069091796875M 257.45989990234375 282.97930908203125 C 257.85284423828125 282.97930908203125 258.2457275390625 282.97930908203125 258.638671875 282.97930908203125 C 258.638671875 287.6551513671875 258.638671875 292.3310546875 258.638671875 297.00689697265625 C 258.2457275390625 297.00689697265625 257.85284423828125 297.00689697265625 257.45989990234375 297.00689697265625 C 257.45989990234375 292.3310546875 257.45989990234375 287.6551513671875 257.45989990234375 282.97930908203125M 275.077880859375 284.5723876953125 C 275.4146728515625 284.78619384765625 275.75146484375 285.0 276.0882263183594 285.21380615234375 C 273.33782958984375 288.5517578125 270.2015380859375 291.634521484375 266.6793518066406 294.4620361328125 C 263.17120361328125 297.27587890625 259.41748046875 299.806884765625 255.41815185546875 302.05517578125 C 251.41888427734375 304.303466796875 247.2862548828125 306.2620849609375 243.02035522460938 307.9310302734375 C 242.97824096679688 307.83447265625 242.89404296875 307.72412109375 242.76776123046875 307.5999755859375 C 242.6414794921875 307.475830078125 242.51516723632812 307.3516845703125 242.38888549804688 307.22760009765625 C 242.276611328125 307.08966064453125 242.16436767578125 306.97930908203125 242.05209350585938 306.89654541015625 C 246.4022216796875 305.310302734375 250.59796142578125 303.4000244140625 254.63934326171875 301.16552734375 C 258.6807556152344 298.9310302734375 262.4414978027344 296.420654296875 265.9216003417969 293.634521484375 C 269.41571044921875 290.83447265625 272.46783447265625 287.81378173828125 275.077880859375 284.5723876953125M 251.62936401367188 302.84136962890625 C 258.7579345703125 302.84136962890625 265.88653564453125 302.84136962890625 273.01507568359375 302.84136962890625 C 273.01507568359375 308.10345458984375 273.01507568359375 313.365478515625 273.01507568359375 318.6275634765625 C 272.61517333984375 318.6275634765625 272.2152099609375 318.6275634765625 271.8153076171875 318.6275634765625 C 271.8153076171875 313.751708984375 271.8153076171875 308.8758544921875 271.8153076171875 304.0 C 265.49359130859375 304.0 259.1719055175781 304.0 252.8502197265625 304.0 C 252.8502197265625 308.92413330078125 252.8502197265625 313.8482666015625 252.8502197265625 318.77239990234375 C 252.4432373046875 318.77239990234375 252.03631591796875 318.77239990234375 251.62936401367188 318.77239990234375 C 251.62936401367188 313.4620361328125 251.62936401367188 308.1517333984375 251.62936401367188 302.84136962890625"/>
    <path stroke-width="0" fill="rgb(0, 0, 0)" opacity="1.0" d="M 305.83038330078125 283.02069091796875 C 306.2373046875 283.02069091796875 306.644287109375 283.02069091796875 307.05120849609375 283.02069091796875 C 307.05120849609375 284.8896484375 307.05120849609375 286.75860595703125 307.05120849609375 288.6275634765625 C 306.644287109375 288.6275634765625 306.2373046875 288.6275634765625 305.83038330078125 288.6275634765625 C 305.83038330078125 286.75860595703125 305.83038330078125 284.8896484375 305.83038330078125 283.02069091796875M 295.4111633300781 287.79998779296875 C 303.0589294433594 287.79998779296875 310.70672607421875 287.79998779296875 318.3544921875 287.79998779296875 C 318.3544921875 290.02069091796875 318.3544921875 292.24139404296875 318.3544921875 294.4620361328125 C 317.9686279296875 294.4620361328125 317.58270263671875 294.4620361328125 317.1968078613281 294.4620361328125 C 317.1968078613281 292.634521484375 317.1968078613281 290.806884765625 317.1968078613281 288.97930908203125 C 310.32080078125 288.97930908203125 303.44482421875 288.97930908203125 296.56884765625 288.97930908203125 C 296.56884765625 290.8206787109375 296.56884765625 292.662109375 296.56884765625 294.50341796875 C 296.1829528808594 294.50341796875 295.79705810546875 294.50341796875 295.4111633300781 294.50341796875 C 295.4111633300781 292.2689208984375 295.4111633300781 290.03448486328125 295.4111633300781 287.79998779296875M 298.8421325683594 294.6275634765625 C 304.2026062011719 294.6275634765625 309.56304931640625 294.6275634765625 314.92352294921875 294.6275634765625 C 314.92352294921875 295.0137939453125 314.92352294921875 295.4000244140625 314.92352294921875 295.78619384765625 C 309.56304931640625 295.78619384765625 304.2026062011719 295.78619384765625 298.8421325683594 295.78619384765625 C 298.8421325683594 295.4000244140625 298.8421325683594 295.0137939453125 298.8421325683594 294.6275634765625M 295.7268981933594 301.972412109375 C 303.3957214355469 301.972412109375 311.0645751953125 301.972412109375 318.7333984375 301.972412109375 C 318.7333984375 302.358642578125 318.7333984375 302.74481201171875 318.7333984375 303.13104248046875 C 311.0645751953125 303.13104248046875 303.3957214355469 303.13104248046875 295.7268981933594 303.13104248046875 C 295.7268981933594 302.74481201171875 295.7268981933594 302.358642578125 295.7268981933594 301.972412109375M 302.04156494140625 302.2620849609375 C 302.4555358886719 302.2620849609375 302.8695068359375 302.2620849609375 303.283447265625 302.2620849609375 C 303.15716552734375 304.3724365234375 302.91864013671875 306.2965087890625 302.56781005859375 308.03448486328125 C 302.21697998046875 309.77239990234375 301.6977844238281 311.3310546875 301.01019287109375 312.7103271484375 C 300.32257080078125 314.07586669921875 299.389404296875 315.2689208984375 298.2106628417969 316.2896728515625 C 297.04595947265625 317.310302734375 295.5585021972656 318.16552734375 293.748291015625 318.85516357421875 C 293.692138671875 318.77239990234375 293.614990234375 318.6759033203125 293.5167541503906 318.5655517578125 C 293.43255615234375 318.468994140625 293.3343200683594 318.365478515625 293.2220458984375 318.255126953125 C 293.10980224609375 318.15863037109375 293.00457763671875 318.082763671875 292.90631103515625 318.027587890625 C 294.6744384765625 317.365478515625 296.1268310546875 316.5447998046875 297.2634582519531 315.5655517578125 C 298.40008544921875 314.586181640625 299.2982177734375 313.4482421875 299.9577331542969 312.1517333984375 C 300.61724853515625 310.85516357421875 301.10137939453125 309.3792724609375 301.41009521484375 307.72412109375 C 301.71881103515625 306.0689697265625 301.9293212890625 304.248291015625 302.04156494140625 302.2620849609375M 309.5560302734375 302.303466796875 C 309.94195556640625 302.303466796875 310.3278503417969 302.303466796875 310.7137451171875 302.303466796875 C 310.7137451171875 306.82757568359375 310.7137451171875 311.3516845703125 310.7137451171875 315.8758544921875 C 310.7137451171875 316.303466796875 310.79791259765625 316.5723876953125 310.96630859375 316.6827392578125 C 311.13470458984375 316.806884765625 311.51361083984375 316.86895751953125 312.10296630859375 316.86895751953125 C 312.285400390625 316.86895751953125 312.6572265625 316.86895751953125 313.21856689453125 316.86895751953125 C 313.79388427734375 316.86895751953125 314.38323974609375 316.86895751953125 314.9866638183594 316.86895751953125 C 315.590087890625 316.86895751953125 316.0040283203125 316.86895751953125 316.22857666015625 316.86895751953125 C 316.5933837890625 316.86895751953125 316.8670349121094 316.751708984375 317.0494689941406 316.5172119140625 C 317.24591064453125 316.28271484375 317.38623046875 315.7930908203125 317.470458984375 315.04827880859375 C 317.55462646484375 314.303466796875 317.61077880859375 313.16552734375 317.63885498046875 311.634521484375 C 317.737060546875 311.71728515625 317.84930419921875 311.79998779296875 317.9756164550781 311.88275146484375 C 318.1019287109375 311.95172119140625 318.2352294921875 312.0137939453125 318.37554931640625 312.0689697265625 C 318.5299072265625 312.1241455078125 318.6632080078125 312.16552734375 318.7754821777344 312.193115234375 C 318.7474365234375 313.751708984375 318.6632080078125 314.96551513671875 318.52288818359375 315.83447265625 C 318.382568359375 316.689697265625 318.1440124511719 317.27587890625 317.8072204589844 317.5931396484375 C 317.470458984375 317.91033935546875 316.97930908203125 318.0689697265625 316.33380126953125 318.0689697265625 C 316.2355651855469 318.0689697265625 315.9759521484375 318.0689697265625 315.55499267578125 318.0689697265625 C 315.134033203125 318.0689697265625 314.6709289550781 318.0689697265625 314.165771484375 318.0689697265625 C 313.67462158203125 318.0689697265625 313.2255859375 318.0689697265625 312.8186340332031 318.0689697265625 C 312.42572021484375 318.0689697265625 312.1731262207031 318.0689697265625 312.06085205078125 318.0689697265625 C 311.41534423828125 318.0689697265625 310.9101867675781 318.0137939453125 310.54534912109375 317.9034423828125 C 310.18048095703125 317.7930908203125 309.9208984375 317.579345703125 309.76654052734375 317.2620849609375 C 309.626220703125 316.94482421875 309.5560302734375 316.4827880859375 309.5560302734375 315.8758544921875 C 309.5560302734375 311.3516845703125 309.5560302734375 306.82757568359375 309.5560302734375 302.303466796875M 284.29730224609375 284.7379150390625 C 287.461669921875 284.7379150390625 290.62603759765625 284.7379150390625 293.7904052734375 284.7379150390625 C 293.7904052734375 285.1241455078125 293.7904052734375 285.5103759765625 293.7904052734375 285.89654541015625 C 291.02593994140625 285.89654541015625 288.26153564453125 285.89654541015625 285.4971008300781 285.89654541015625 C 285.4971008300781 296.85516357421875 285.4971008300781 307.81378173828125 285.4971008300781 318.77239990234375 C 285.09716796875 318.77239990234375 284.697265625 318.77239990234375 284.29730224609375 318.77239990234375 C 284.29730224609375 307.4276123046875 284.29730224609375 296.082763671875 284.29730224609375 284.7379150390625M 293.47467041015625 284.7379150390625 C 293.55181884765625 284.7379150390625 293.6290283203125 284.7379150390625 293.7061767578125 284.7379150390625 C 293.7904052734375 284.7103271484375 293.87457275390625 284.6827392578125 293.95880126953125 284.6551513671875 C 294.21136474609375 284.84136962890625 294.4639587402344 285.027587890625 294.716552734375 285.21380615234375 C 294.2815246582031 286.248291015625 293.8114318847656 287.3516845703125 293.3062744140625 288.524169921875 C 292.81512451171875 289.6827392578125 292.3099365234375 290.85516357421875 291.7907409667969 292.0413818359375 C 291.27154541015625 293.21380615234375 290.73828125 294.337890625 290.1910400390625 295.413818359375 C 291.91705322265625 297.16552734375 293.0606689453125 298.78619384765625 293.62200927734375 300.27587890625 C 294.19732666015625 301.751708984375 294.4849853515625 303.1517333984375 294.4849853515625 304.475830078125 C 294.4849853515625 305.3310546875 294.37274169921875 306.137939453125 294.1482238769531 306.89654541015625 C 293.937744140625 307.641357421875 293.5869140625 308.18621826171875 293.09576416015625 308.531005859375 C 292.85723876953125 308.696533203125 292.5765380859375 308.82757568359375 292.2538146972656 308.92413330078125 C 291.93109130859375 309.00689697265625 291.58026123046875 309.07586669921875 291.20135498046875 309.13104248046875 C 290.26116943359375 309.21380615234375 289.32098388671875 309.21380615234375 288.38079833984375 309.13104248046875 C 288.35272216796875 308.99310302734375 288.30364990234375 308.81378173828125 288.23345947265625 308.5931396484375 C 288.1632995605469 308.3724365234375 288.0650634765625 308.16552734375 287.93878173828125 307.972412109375 C 288.5000915527344 308.0 289.02630615234375 308.02069091796875 289.5174560546875 308.03448486328125 C 290.02264404296875 308.04827880859375 290.47869873046875 308.0413818359375 290.8856201171875 308.0137939453125 C 291.4750061035156 307.9586181640625 291.945068359375 307.82757568359375 292.2958984375 307.6207275390625 C 292.6748046875 307.358642578125 292.93438720703125 306.9310302734375 293.07470703125 306.337890625 C 293.22906494140625 305.7310791015625 293.3062744140625 305.1103515625 293.3062744140625 304.475830078125 C 293.3062744140625 303.2344970703125 292.99755859375 301.8896484375 292.380126953125 300.44140625 C 291.7626953125 298.97930908203125 290.576904296875 297.358642578125 288.8228454589844 295.579345703125 C 289.2718811035156 294.6551513671875 289.71392822265625 293.72412109375 290.14892578125 292.78619384765625 C 290.58392333984375 291.8482666015625 291.0049133300781 290.92413330078125 291.411865234375 290.0137939453125 C 291.81878662109375 289.08966064453125 292.190673828125 288.2069091796875 292.5274658203125 287.365478515625 C 292.8782958984375 286.5103759765625 293.19403076171875 285.72412109375 293.47467041015625 285.00689697265625 C 293.47467041015625 284.917236328125 293.47467041015625 284.82757568359375 293.47467041015625 284.7379150390625"/>
    <path stroke-width="0" fill="rgb(0, 0, 0)" opacity="1.0" d="M 331.9310302734375 292.95172119140625 C 332.3099365234375 293.1241455078125 332.6888427734375 293.2965087890625 333.06768798828125 293.468994140625 C 332.5625 294.50341796875 331.99420166015625 295.5999755859375 331.36273193359375 296.75860595703125 C 330.74530029296875 297.9034423828125 330.11383056640625 299.02069091796875 329.46832275390625 300.1103515625 C 328.82281494140625 301.20001220703125 328.20538330078125 302.1517333984375 327.61602783203125 302.96551513671875 C 327.30731201171875 302.7930908203125 326.99859619140625 302.6207275390625 326.68988037109375 302.4482421875 C 327.27923583984375 301.634521484375 327.89666748046875 300.6689453125 328.54217529296875 299.5517578125 C 329.18768310546875 298.420654296875 329.8121337890625 297.27587890625 330.41552734375 296.11724853515625 C 331.032958984375 294.94482421875 331.53814697265625 293.8896484375 331.9310302734375 292.95172119140625M 337.7615966796875 298.99310302734375 C 338.1405029296875 299.16552734375 338.5194091796875 299.337890625 338.89825439453125 299.5103759765625 C 338.0843505859375 300.862060546875 337.17926025390625 302.2896728515625 336.1829833984375 303.7930908203125 C 335.1866455078125 305.28271484375 334.1552734375 306.78619384765625 333.0887451171875 308.303466796875 C 332.02227783203125 309.806884765625 330.955810546875 311.248291015625 329.8893127441406 312.6275634765625 C 328.83685302734375 314.00689697265625 327.8265380859375 315.2344970703125 326.8582763671875 316.310302734375 C 326.54254150390625 316.1241455078125 326.226806640625 315.93792724609375 325.91107177734375 315.751708984375 C 326.89337158203125 314.6759033203125 327.91070556640625 313.4482421875 328.9631652832031 312.0689697265625 C 330.0296630859375 310.689697265625 331.09613037109375 309.24139404296875 332.16259765625 307.72412109375 C 333.2291259765625 306.193115234375 334.2464599609375 304.6827392578125 335.2147216796875 303.193115234375 C 336.1829833984375 301.689697265625 337.03192138671875 300.2896728515625 337.7615966796875 298.99310302734375M 334.7305908203125 309.17242431640625 C 335.0814208984375 309.0413818359375 335.43218994140625 308.91033935546875 335.78302001953125 308.779296875 C 336.540771484375 309.7310791015625 337.2564697265625 310.7655029296875 337.92999267578125 311.88275146484375 C 338.60357666015625 312.9862060546875 339.199951171875 314.08966064453125 339.71917724609375 315.193115234375 C 340.25244140625 316.28271484375 340.6383056640625 317.2689208984375 340.8768310546875 318.1517333984375 C 340.49798583984375 318.310302734375 340.119140625 318.468994140625 339.740234375 318.6275634765625 C 339.501708984375 317.744873046875 339.122802734375 316.75860595703125 338.60357666015625 315.6689453125 C 338.098388671875 314.5655517578125 337.509033203125 313.4482421875 336.83544921875 312.3172607421875 C 336.161865234375 311.17242431640625 335.46026611328125 310.1241455078125 334.7305908203125 309.17242431640625M 324.31134033203125 301.02069091796875 C 324.59197998046875 300.77239990234375 324.8726806640625 300.524169921875 325.1533203125 300.27587890625 C 326.17767333984375 301.03448486328125 327.18804931640625 301.8758544921875 328.1843566894531 302.79998779296875 C 329.1806640625 303.7103271484375 330.09979248046875 304.6207275390625 330.9417724609375 305.531005859375 C 331.7977294921875 306.44140625 332.47833251953125 307.2689208984375 332.9835205078125 308.0137939453125 C 332.6748046875 308.2896728515625 332.3660888671875 308.5655517578125 332.057373046875 308.84136962890625 C 331.55218505859375 308.1103515625 330.8716125488281 307.28271484375 330.015625 306.358642578125 C 329.17364501953125 305.420654296875 328.2545166015625 304.4827880859375 327.2581787109375 303.5447998046875 C 326.26190185546875 302.60693359375 325.27960205078125 301.7655029296875 324.31134033203125 301.02069091796875M 323.1747131347656 315.4827880859375 C 325.1673583984375 315.3448486328125 327.55987548828125 315.18621826171875 330.3524169921875 315.00689697265625 C 333.158935546875 314.82757568359375 336.03564453125 314.641357421875 338.982421875 314.4482421875 C 338.982421875 314.7930908203125 338.982421875 315.137939453125 338.982421875 315.4827880859375 C 336.11981201171875 315.71728515625 333.3203125 315.94482421875 330.58392333984375 316.16552734375 C 327.8475646972656 316.4000244140625 325.44097900390625 316.586181640625 323.3641357421875 316.72412109375 C 323.3009948730469 316.310302734375 323.23785400390625 315.89654541015625 323.1747131347656 315.4827880859375M 348.70709228515625 292.95172119140625 C 349.0999755859375 293.1241455078125 349.492919921875 293.2965087890625 349.88580322265625 293.468994140625 C 349.35260009765625 294.531005859375 348.7491455078125 295.662109375 348.07562255859375 296.862060546875 C 347.40203857421875 298.04827880859375 346.721435546875 299.20001220703125 346.03387451171875 300.3172607421875 C 345.34625244140625 301.420654296875 344.68670654296875 302.4000244140625 344.05523681640625 303.25518798828125 C 343.74652099609375 303.1103515625 343.43780517578125 302.96551513671875 343.12908935546875 302.8206787109375 C 343.74652099609375 301.96551513671875 344.3990478515625 300.9586181640625 345.086669921875 299.79998779296875 C 345.7742919921875 298.6275634765625 346.4407958984375 297.44140625 347.0863037109375 296.24139404296875 C 347.745849609375 295.027587890625 348.28607177734375 293.9310302734375 348.70709228515625 292.95172119140625M 354.72705078125 298.95172119140625 C 355.1199951171875 299.1241455078125 355.51287841796875 299.2965087890625 355.90582275390625 299.468994140625 C 355.077880859375 300.8206787109375 354.15875244140625 302.2620849609375 353.14837646484375 303.7930908203125 C 352.1380615234375 305.310302734375 351.0855712890625 306.83447265625 349.9910888671875 308.365478515625 C 348.896484375 309.88275146484375 347.8089599609375 311.337890625 346.72845458984375 312.7310791015625 C 345.64794921875 314.1103515625 344.62359619140625 315.3448486328125 343.65533447265625 316.4344482421875 C 343.34661865234375 316.2620849609375 343.03790283203125 316.08966064453125 342.72918701171875 315.917236328125 C 343.6973876953125 314.82757568359375 344.72882080078125 313.586181640625 345.8233642578125 312.193115234375 C 346.91790771484375 310.78619384765625 347.9984130859375 309.310302734375 349.06488037109375 307.7655029296875 C 350.1453857421875 306.2069091796875 351.17681884765625 304.6759033203125 352.1590576171875 303.17242431640625 C 353.1553955078125 301.6551513671875 354.01141357421875 300.248291015625 354.72705078125 298.95172119140625M 352.18017578125 308.92413330078125 C 352.53094482421875 308.7655029296875 352.88177490234375 308.60693359375 353.23260498046875 308.4482421875 C 354.13067626953125 309.4276123046875 354.97967529296875 310.49658203125 355.779541015625 311.6551513671875 C 356.5933837890625 312.79998779296875 357.31610107421875 313.93792724609375 357.94757080078125 315.0689697265625 C 358.57904052734375 316.18621826171875 359.05615234375 317.20001220703125 359.37890625 318.1103515625 C 359.0 318.28271484375 358.62109375 318.4552001953125 358.24224853515625 318.6275634765625 C 357.91949462890625 317.71728515625 357.4423828125 316.696533203125 356.8109130859375 315.5655517578125 C 356.179443359375 314.420654296875 355.4637451171875 313.27587890625 354.6639404296875 312.13104248046875 C 353.87811279296875 310.972412109375 353.0501708984375 309.9034423828125 352.18017578125 308.92413330078125M 340.5821533203125 301.02069091796875 C 340.8839111328125 300.77239990234375 341.18560791015625 300.524169921875 341.4873046875 300.27587890625 C 342.52569580078125 301.06207275390625 343.57110595703125 301.93792724609375 344.62359619140625 302.9034423828125 C 345.676025390625 303.85516357421875 346.644287109375 304.7930908203125 347.5283203125 305.71728515625 C 348.4263916015625 306.641357421875 349.14208984375 307.4896240234375 349.67529296875 308.2620849609375 C 349.35260009765625 308.5379638671875 349.02978515625 308.81378173828125 348.70709228515625 309.08966064453125 C 348.173828125 308.3172607421875 347.4652099609375 307.4552001953125 346.58111572265625 306.50341796875 C 345.71112060546875 305.5517578125 344.7498779296875 304.5931396484375 343.6973876953125 303.6275634765625 C 342.64495849609375 302.662109375 341.6065673828125 301.7930908203125 340.5821533203125 301.02069091796875M 341.003173828125 315.4827880859375 C 343.03790283203125 315.3448486328125 345.486572265625 315.18621826171875 348.3492431640625 315.00689697265625 C 351.2119140625 314.82757568359375 354.1376953125 314.6275634765625 357.12664794921875 314.4068603515625 C 357.12664794921875 314.751708984375 357.12664794921875 315.0965576171875 357.12664794921875 315.44140625 C 354.2359619140625 315.7034912109375 351.394287109375 315.94482421875 348.601806640625 316.16552734375 C 345.8233642578125 316.4000244140625 343.3536376953125 316.586181640625 341.192626953125 316.72412109375 C 341.12945556640625 316.310302734375 341.0662841796875 315.89654541015625 341.003173828125 315.4827880859375M 323.7851257324219 290.696533203125 C 335.48834228515625 290.696533203125 347.1915283203125 290.696533203125 358.894775390625 290.696533203125 C 358.894775390625 291.082763671875 358.894775390625 291.468994140625 358.894775390625 291.85516357421875 C 347.1915283203125 291.85516357421875 335.48834228515625 291.85516357421875 323.7851257324219 291.85516357421875 C 323.7851257324219 291.468994140625 323.7851257324219 291.082763671875 323.7851257324219 290.696533203125M 330.24713134765625 283.579345703125 C 330.59796142578125 283.4482421875 330.94879150390625 283.3172607421875 331.299560546875 283.18621826171875 C 331.88897705078125 283.8758544921875 332.4713134765625 284.6275634765625 333.046630859375 285.44140625 C 333.63604736328125 286.24139404296875 334.1622314453125 287.027587890625 334.6253662109375 287.79998779296875 C 335.1024169921875 288.55859375 335.47430419921875 289.248291015625 335.74090576171875 289.86895751953125 C 335.362060546875 290.05517578125 334.983154296875 290.24139404296875 334.604248046875 290.4276123046875 C 334.36572265625 289.806884765625 334.0079345703125 289.10345458984375 333.53076171875 288.3172607421875 C 333.06768798828125 287.5172119140625 332.5484619140625 286.7034912109375 331.97314453125 285.8758544921875 C 331.411865234375 285.03448486328125 330.8365173339844 284.26898193359375 330.24713134765625 283.579345703125M 350.62255859375 283.06207275390625 C 351.0084228515625 283.248291015625 351.394287109375 283.4344482421875 351.78021240234375 283.6207275390625 C 351.0224609375 284.7930908203125 350.1875 286.04827880859375 349.275390625 287.38623046875 C 348.36328125 288.72412109375 347.500244140625 289.85516357421875 346.6864013671875 290.779296875 C 346.3917236328125 290.60693359375 346.09698486328125 290.4344482421875 345.80230712890625 290.2620849609375 C 346.3355712890625 289.6275634765625 346.8968505859375 288.8896484375 347.4862060546875 288.04827880859375 C 348.08966064453125 287.193115234375 348.66497802734375 286.3310546875 349.2122802734375 285.4620361328125 C 349.7735595703125 284.579345703125 350.24365234375 283.779296875 350.62255859375 283.06207275390625"/>
    <path stroke-width="0" fill="rgb(0, 0, 0)" opacity="1.0" d="M 382.7431640625 286.413818359375 C 386.854736328125 286.413818359375 390.96630859375 286.413818359375 395.077880859375 286.413818359375 C 395.077880859375 286.7930908203125 395.077880859375 287.17242431640625 395.077880859375 287.5517578125 C 390.96630859375 287.5517578125 386.854736328125 287.5517578125 382.7431640625 287.5517578125 C 382.7431640625 287.17242431640625 382.7431640625 286.7930908203125 382.7431640625 286.413818359375M 379.7542724609375 304.16552734375 C 385.76025390625 304.16552734375 391.76617431640625 304.16552734375 397.77215576171875 304.16552734375 C 397.77215576171875 304.5517578125 397.77215576171875 304.93792724609375 397.77215576171875 305.3240966796875 C 391.76617431640625 305.3240966796875 385.76025390625 305.3240966796875 379.7542724609375 305.3240966796875 C 379.7542724609375 304.93792724609375 379.7542724609375 304.5517578125 379.7542724609375 304.16552734375M 375.1024169921875 316.475830078125 C 383.3746337890625 316.475830078125 391.64691162109375 316.475830078125 399.91912841796875 316.475830078125 C 399.91912841796875 316.862060546875 399.91912841796875 317.248291015625 399.91912841796875 317.634521484375 C 391.64691162109375 317.634521484375 383.3746337890625 317.634521484375 375.1024169921875 317.634521484375 C 375.1024169921875 317.248291015625 375.1024169921875 316.862060546875 375.1024169921875 316.475830078125M 378.8702392578125 310.0 C 384.9462890625 310.0 391.0224609375 310.0 397.09857177734375 310.0 C 397.09857177734375 310.38623046875 397.09857177734375 310.77239990234375 397.09857177734375 311.15863037109375 C 391.0224609375 311.15863037109375 384.9462890625 311.15863037109375 378.8702392578125 311.15863037109375 C 378.8702392578125 310.77239990234375 378.8702392578125 310.38623046875 378.8702392578125 310.0M 394.57269287109375 286.413818359375 C 394.6568603515625 286.413818359375 394.7410888671875 286.413818359375 394.8253173828125 286.413818359375 C 394.90948486328125 286.38623046875 394.99365234375 286.358642578125 395.077880859375 286.3310546875 C 395.3304443359375 286.4896240234375 395.58306884765625 286.6483154296875 395.83563232421875 286.806884765625 C 394.95159912109375 288.7103271484375 393.77984619140625 290.4552001953125 392.3204345703125 292.0413818359375 C 390.861083984375 293.6275634765625 389.2332763671875 295.04827880859375 387.4371337890625 296.303466796875 C 385.65496826171875 297.5447998046875 383.78863525390625 298.61376953125 381.838134765625 299.5103759765625 C 379.901611328125 300.39306640625 378.0072021484375 301.1103515625 376.1549072265625 301.662109375 C 376.0706787109375 301.49658203125 375.95843505859375 301.3172607421875 375.818115234375 301.1241455078125 C 375.6917724609375 300.9310302734375 375.5584716796875 300.779296875 375.418212890625 300.6689453125 C 377.2564697265625 300.18621826171875 379.122802734375 299.5172119140625 381.0172119140625 298.662109375 C 382.9256591796875 297.806884765625 384.7498779296875 296.78619384765625 386.48992919921875 295.5999755859375 C 388.2440185546875 294.4000244140625 389.8226318359375 293.05517578125 391.2259521484375 291.5655517578125 C 392.629150390625 290.06207275390625 393.7447509765625 288.4344482421875 394.57269287109375 286.6827392578125 C 394.57269287109375 286.5931396484375 394.57269287109375 286.50341796875 394.57269287109375 286.413818359375M 382.53271484375 287.634521484375 C 383.529052734375 289.7034912109375 384.90423583984375 291.5999755859375 386.6583251953125 293.3240966796875 C 388.412353515625 295.03448486328125 390.43310546875 296.50341796875 392.72039794921875 297.7310791015625 C 395.0076904296875 298.94482421875 397.4774169921875 299.84136962890625 400.129638671875 300.420654296875 C 399.96124267578125 300.531005859375 399.79986572265625 300.689697265625 399.6455078125 300.89654541015625 C 399.505126953125 301.08966064453125 399.37890625 301.2620849609375 399.2666015625 301.413818359375 C 396.65655517578125 300.779296875 394.2008056640625 299.82757568359375 391.8995361328125 298.55859375 C 389.59814453125 297.2896728515625 387.556396484375 295.7655029296875 385.7742919921875 293.9862060546875 C 383.9920654296875 292.193115234375 382.5748291015625 290.2069091796875 381.5223388671875 288.027587890625 C 381.859130859375 287.89654541015625 382.1959228515625 287.7655029296875 382.53271484375 287.634521484375M 384.763916015625 282.9586181640625 C 385.219970703125 283.02069091796875 385.676025390625 283.082763671875 386.132080078125 283.14483642578125 C 385.1357421875 284.92413330078125 383.80267333984375 286.82757568359375 382.1328125 288.85516357421875 C 380.462890625 290.88275146484375 378.47027587890625 292.71728515625 376.1549072265625 294.358642578125 C 376.0987548828125 294.248291015625 376.007568359375 294.14483642578125 375.8812255859375 294.04827880859375 C 375.76898193359375 293.95172119140625 375.64971923828125 293.86895751953125 375.5234375 293.79998779296875 C 375.4111328125 293.71728515625 375.29888916015625 293.6483154296875 375.1866455078125 293.5931396484375 C 376.6881103515625 292.55859375 378.04931640625 291.4276123046875 379.2701416015625 290.20001220703125 C 380.5050048828125 288.972412109375 381.58551025390625 287.73101806640625 382.51165771484375 286.475830078125 C 383.45184326171875 285.2069091796875 384.20257568359375 284.03448486328125 384.763916015625 282.9586181640625M 381.080322265625 300.2344970703125 C 381.4873046875 300.310302734375 381.89422607421875 300.38623046875 382.3011474609375 300.4620361328125 C 381.75390625 302.21380615234375 381.03125 303.8758544921875 380.1331787109375 305.4482421875 C 379.23504638671875 307.02069091796875 378.259765625 308.365478515625 377.20733642578125 309.4827880859375 C 377.15118408203125 309.4000244140625 377.05999755859375 309.3240966796875 376.9337158203125 309.255126953125 C 376.8214111328125 309.17242431640625 376.6951904296875 309.082763671875 376.5548095703125 308.9862060546875 C 376.42852783203125 308.8896484375 376.3092041015625 308.8206787109375 376.197021484375 308.779296875 C 377.3055419921875 307.689697265625 378.2738037109375 306.4068603515625 379.10174560546875 304.9310302734375 C 379.9437255859375 303.44140625 380.60321044921875 301.8758544921875 381.080322265625 300.2344970703125M 387.1424560546875 299.79998779296875 C 387.54937744140625 299.79998779296875 387.956298828125 299.79998779296875 388.36328125 299.79998779296875 C 388.36328125 305.5172119140625 388.36328125 311.2344970703125 388.36328125 316.95172119140625 C 387.956298828125 316.95172119140625 387.54937744140625 316.95172119140625 387.1424560546875 316.95172119140625 C 387.1424560546875 311.2344970703125 387.1424560546875 305.5172119140625 387.1424560546875 299.79998779296875M 365.125244140625 284.7379150390625 C 368.28961181640625 284.7379150390625 371.4539794921875 284.7379150390625 374.6182861328125 284.7379150390625 C 374.6182861328125 285.1241455078125 374.6182861328125 285.5103759765625 374.6182861328125 285.89654541015625 C 371.8538818359375 285.89654541015625 369.0894775390625 285.89654541015625 366.32501220703125 285.89654541015625 C 366.32501220703125 296.85516357421875 366.32501220703125 307.81378173828125 366.32501220703125 318.77239990234375 C 365.92510986328125 318.77239990234375 365.525146484375 318.77239990234375 365.125244140625 318.77239990234375 C 365.125244140625 307.4276123046875 365.125244140625 296.082763671875 365.125244140625 284.7379150390625M 374.3026123046875 284.7379150390625 C 374.3797607421875 284.7379150390625 374.4569091796875 284.7379150390625 374.53411865234375 284.7379150390625 C 374.6182861328125 284.7103271484375 374.7025146484375 284.6827392578125 374.78668212890625 284.6551513671875 C 375.039306640625 284.84136962890625 375.2918701171875 285.027587890625 375.54443359375 285.21380615234375 C 375.10943603515625 286.248291015625 374.63934326171875 287.3516845703125 374.1341552734375 288.524169921875 C 373.64306640625 289.6827392578125 373.13787841796875 290.85516357421875 372.61865234375 292.0413818359375 C 372.0994873046875 293.21380615234375 371.56622314453125 294.337890625 371.0189208984375 295.413818359375 C 372.7449951171875 297.16552734375 373.88861083984375 298.78619384765625 374.449951171875 300.27587890625 C 375.0252685546875 301.751708984375 375.31292724609375 303.1517333984375 375.31292724609375 304.475830078125 C 375.31292724609375 305.3310546875 375.20068359375 306.137939453125 374.97613525390625 306.89654541015625 C 374.765625 307.641357421875 374.41485595703125 308.18621826171875 373.9237060546875 308.531005859375 C 373.6851806640625 308.696533203125 373.40447998046875 308.82757568359375 373.08172607421875 308.92413330078125 C 372.759033203125 309.00689697265625 372.408203125 309.07586669921875 372.029296875 309.13104248046875 C 371.089111328125 309.21380615234375 370.14892578125 309.21380615234375 369.208740234375 309.13104248046875 C 369.1806640625 308.99310302734375 369.13153076171875 308.81378173828125 369.0614013671875 308.5931396484375 C 368.9912109375 308.3724365234375 368.89300537109375 308.16552734375 368.7667236328125 307.972412109375 C 369.3280029296875 308.0 369.854248046875 308.02069091796875 370.34539794921875 308.03448486328125 C 370.8505859375 308.04827880859375 371.306640625 308.0413818359375 371.71356201171875 308.0137939453125 C 372.30291748046875 307.9586181640625 372.77301025390625 307.82757568359375 373.12384033203125 307.6207275390625 C 373.502685546875 307.358642578125 373.7623291015625 306.9310302734375 373.90264892578125 306.337890625 C 374.0570068359375 305.7310791015625 374.1341552734375 305.1103515625 374.1341552734375 304.475830078125 C 374.1341552734375 303.2344970703125 373.825439453125 301.8896484375 373.2080078125 300.44140625 C 372.590576171875 298.97930908203125 371.40484619140625 297.358642578125 369.6507568359375 295.579345703125 C 370.09979248046875 294.6551513671875 370.54180908203125 293.72412109375 370.97686767578125 292.78619384765625 C 371.411865234375 291.8482666015625 371.83282470703125 290.92413330078125 372.23974609375 290.0137939453125 C 372.646728515625 289.08966064453125 373.01861572265625 288.2069091796875 373.3553466796875 287.365478515625 C 373.7061767578125 286.5103759765625 374.02191162109375 285.72412109375 374.3026123046875 285.00689697265625 C 374.3026123046875 284.917236328125 374.3026123046875 284.82757568359375 374.3026123046875 284.7379150390625"/>
    <path stroke-width="0" fill="rgb(0, 0, 0)" opacity="1.0" d="M 428.7772216796875 312.586181640625 C 429.02978515625 312.2965087890625 429.28240966796875 312.00689697265625 429.5350341796875 311.71728515625 C 430.69970703125 312.18621826171875 431.91351318359375 312.7310791015625 433.17645263671875 313.3516845703125 C 434.43939208984375 313.9586181640625 435.63916015625 314.5723876953125 436.77581787109375 315.193115234375 C 437.9124755859375 315.81378173828125 438.8526611328125 316.3724365234375 439.59637451171875 316.86895751953125 C 439.34381103515625 317.20001220703125 439.0911865234375 317.531005859375 438.838623046875 317.862060546875 C 438.08087158203125 317.365478515625 437.1336669921875 316.79998779296875 435.99700927734375 316.16552734375 C 434.8743896484375 315.531005859375 433.67462158203125 314.89654541015625 432.39764404296875 314.2620849609375 C 431.13470458984375 313.61376953125 429.92791748046875 313.05517578125 428.7772216796875 312.586181640625M 408.885986328125 304.72412109375 C 417.7406005859375 304.72412109375 426.59515380859375 304.72412109375 435.44970703125 304.72412109375 C 435.44970703125 305.10345458984375 435.44970703125 305.4827880859375 435.44970703125 305.862060546875 C 426.59515380859375 305.862060546875 417.7406005859375 305.862060546875 408.885986328125 305.862060546875 C 408.885986328125 305.4827880859375 408.885986328125 305.10345458984375 408.885986328125 304.72412109375M 404.318359375 308.84136962890625 C 416.218017578125 308.84136962890625 428.11767578125 308.84136962890625 440.017333984375 308.84136962890625 C 440.017333984375 309.22760009765625 440.017333984375 309.61376953125 440.017333984375 310.0 C 428.11767578125 310.0 416.218017578125 310.0 404.318359375 310.0 C 404.318359375 309.61376953125 404.318359375 309.22760009765625 404.318359375 308.84136962890625M 404.92877197265625 285.9586181640625 C 416.3934326171875 285.9586181640625 427.85809326171875 285.9586181640625 439.32275390625 285.9586181640625 C 439.32275390625 286.358642578125 439.32275390625 286.75860595703125 439.32275390625 287.15863037109375 C 427.85809326171875 287.15863037109375 416.3934326171875 287.15863037109375 404.92877197265625 287.15863037109375 C 404.92877197265625 286.75860595703125 404.92877197265625 286.358642578125 404.92877197265625 285.9586181640625M 421.536376953125 309.13104248046875 C 421.943359375 309.13104248046875 422.350341796875 309.13104248046875 422.7572021484375 309.13104248046875 C 422.7572021484375 311.751708984375 422.7572021484375 314.3724365234375 422.7572021484375 316.99310302734375 C 422.7572021484375 317.475830078125 422.6800537109375 317.83447265625 422.52569580078125 318.0689697265625 C 422.3853759765625 318.303466796875 422.08367919921875 318.475830078125 421.62060546875 318.586181640625 C 421.185546875 318.6827392578125 420.490966796875 318.7379150390625 419.5367431640625 318.751708984375 C 418.58251953125 318.7655029296875 417.298583984375 318.77239990234375 415.684814453125 318.77239990234375 C 415.65673828125 318.6207275390625 415.5936279296875 318.44140625 415.495361328125 318.2344970703125 C 415.3970947265625 318.0413818359375 415.29888916015625 317.85516357421875 415.20068359375 317.6759033203125 C 416.7021484375 317.7034912109375 417.9229736328125 317.71728515625 418.8631591796875 317.71728515625 C 419.8173828125 317.71728515625 420.46990966796875 317.7034912109375 420.82073974609375 317.6759033203125 C 421.11541748046875 317.6483154296875 421.30487060546875 317.586181640625 421.3890380859375 317.4896240234375 C 421.4873046875 317.39306640625 421.536376953125 317.22760009765625 421.536376953125 316.99310302734375 C 421.536376953125 314.3724365234375 421.536376953125 311.751708984375 421.536376953125 309.13104248046875M 413.8114013671875 311.5931396484375 C 414.1903076171875 311.7379150390625 414.5692138671875 311.88275146484375 414.9481201171875 312.027587890625 C 414.06402587890625 312.744873046875 413.0537109375 313.4620361328125 411.9169921875 314.1793212890625 C 410.79443359375 314.89654541015625 409.62969970703125 315.5723876953125 408.42291259765625 316.2069091796875 C 407.2301025390625 316.84136962890625 406.0794677734375 317.3792724609375 404.97088623046875 317.8206787109375 C 404.91473388671875 317.751708984375 404.8165283203125 317.6689453125 404.67620849609375 317.5723876953125 C 404.5499267578125 317.475830078125 404.4166259765625 317.3724365234375 404.2762451171875 317.2620849609375 C 404.14996337890625 317.16552734375 404.03070068359375 317.08966064453125 403.91845703125 317.03448486328125 C 405.6724853515625 316.3448486328125 407.44061279296875 315.524169921875 409.2227783203125 314.5723876953125 C 411.0189208984375 313.6207275390625 412.5484619140625 312.6275634765625 413.8114013671875 311.5931396484375M 421.536376953125 282.97930908203125 C 421.943359375 282.97930908203125 422.350341796875 282.97930908203125 422.7572021484375 282.97930908203125 C 422.7572021484375 284.26898193359375 422.7572021484375 285.55859375 422.7572021484375 286.8482666015625 C 422.350341796875 286.8482666015625 421.943359375 286.8482666015625 421.536376953125 286.8482666015625 C 421.536376953125 285.55859375 421.536376953125 284.26898193359375 421.536376953125 282.97930908203125M 410.233154296875 290.8206787109375 C 410.233154296875 294.14483642578125 410.233154296875 297.468994140625 410.233154296875 300.7930908203125 C 418.20361328125 300.7930908203125 426.1741943359375 300.7930908203125 434.14471435546875 300.7930908203125 C 434.14471435546875 297.468994140625 434.14471435546875 294.14483642578125 434.14471435546875 290.8206787109375 C 426.1741943359375 290.8206787109375 418.20361328125 290.8206787109375 410.233154296875 290.8206787109375M 409.05438232421875 289.6207275390625 C 417.81072998046875 289.6207275390625 426.567138671875 289.6207275390625 435.323486328125 289.6207275390625 C 435.323486328125 293.72412109375 435.323486328125 297.82757568359375 435.323486328125 301.9310302734375 C 426.567138671875 301.9310302734375 417.81072998046875 301.9310302734375 409.05438232421875 301.9310302734375 C 409.05438232421875 297.82757568359375 409.05438232421875 293.72412109375 409.05438232421875 289.6207275390625M 416.1689453125 294.1103515625 C 416.1689453125 295.17242431640625 416.1689453125 296.2344970703125 416.1689453125 297.2965087890625 C 420.14013671875 297.2965087890625 424.11138916015625 297.2965087890625 428.0826416015625 297.2965087890625 C 428.0826416015625 296.2344970703125 428.0826416015625 295.17242431640625 428.0826416015625 294.1103515625 C 424.11138916015625 294.1103515625 420.14013671875 294.1103515625 416.1689453125 294.1103515625M 414.99017333984375 292.95172119140625 C 419.74725341796875 292.95172119140625 424.5042724609375 292.95172119140625 429.2613525390625 292.95172119140625 C 429.2613525390625 294.7930908203125 429.2613525390625 296.634521484375 429.2613525390625 298.475830078125 C 424.5042724609375 298.475830078125 419.74725341796875 298.475830078125 414.99017333984375 298.475830078125 C 414.99017333984375 296.634521484375 414.99017333984375 294.7930908203125 414.99017333984375 292.95172119140625"/>
    <path stroke-width="0" fill="rgb(0, 0, 0)" opacity="1.0" d="M 465.4234619140625 313.9310302734375 C 469.59112548828125 313.9310302734375 473.7587890625 313.9310302734375 477.926513671875 313.9310302734375 C 477.926513671875 314.3172607421875 477.926513671875 314.7034912109375 477.926513671875 315.08966064453125 C 473.7587890625 315.08966064453125 469.59112548828125 315.08966064453125 465.4234619140625 315.08966064453125 C 465.4234619140625 314.7034912109375 465.4234619140625 314.3172607421875 465.4234619140625 313.9310302734375M 445.3006591796875 297.524169921875 C 450.59796142578125 297.524169921875 455.895263671875 297.524169921875 461.192626953125 297.524169921875 C 461.192626953125 297.92413330078125 461.192626953125 298.3240966796875 461.192626953125 298.72412109375 C 455.895263671875 298.72412109375 450.59796142578125 298.72412109375 445.3006591796875 298.72412109375 C 445.3006591796875 298.3240966796875 445.3006591796875 297.92413330078125 445.3006591796875 297.524169921875M 464.707763671875 295.82757568359375 C 469.247314453125 295.82757568359375 473.786865234375 295.82757568359375 478.326416015625 295.82757568359375 C 478.326416015625 303.1241455078125 478.326416015625 310.420654296875 478.326416015625 317.71728515625 C 477.93353271484375 317.71728515625 477.54058837890625 317.71728515625 477.147705078125 317.71728515625 C 477.147705078125 310.81378173828125 477.147705078125 303.91033935546875 477.147705078125 297.00689697265625 C 473.386962890625 297.00689697265625 469.626220703125 297.00689697265625 465.865478515625 297.00689697265625 C 465.865478515625 303.972412109375 465.865478515625 310.93792724609375 465.865478515625 317.9034423828125 C 465.47955322265625 317.9034423828125 465.09368896484375 317.9034423828125 464.707763671875 317.9034423828125 C 464.707763671875 310.5447998046875 464.707763671875 303.18621826171875 464.707763671875 295.82757568359375M 453.509765625 292.082763671875 C 453.90966796875 292.16552734375 454.3095703125 292.248291015625 454.70953369140625 292.3310546875 C 454.204345703125 293.7103271484375 453.6290283203125 295.20001220703125 452.9835205078125 296.79998779296875 C 452.3380126953125 298.4000244140625 451.678466796875 300.00689697265625 451.0048828125 301.6207275390625 C 450.33135986328125 303.2344970703125 449.664794921875 304.779296875 449.0052490234375 306.25518798828125 C 448.345703125 307.71728515625 447.7423095703125 309.02069091796875 447.195068359375 310.16552734375 C 446.8092041015625 310.02069091796875 446.4232177734375 309.8758544921875 446.037353515625 309.7310791015625 C 446.570556640625 308.61376953125 447.1669921875 307.3240966796875 447.8265380859375 305.862060546875 C 448.486083984375 304.38623046875 449.152587890625 302.8482666015625 449.826171875 301.248291015625 C 450.499755859375 299.6483154296875 451.1522216796875 298.06207275390625 451.78369140625 296.4896240234375 C 452.4151611328125 294.9034423828125 452.990478515625 293.4344482421875 453.509765625 292.082763671875M 460.7506103515625 297.524169921875 C 460.8277587890625 297.524169921875 460.9049072265625 297.524169921875 460.98211669921875 297.524169921875 C 461.0662841796875 297.49658203125 461.1505126953125 297.468994140625 461.2347412109375 297.44140625 C 461.4732666015625 297.5379638671875 461.7117919921875 297.634521484375 461.9503173828125 297.7310791015625 C 461.3609619140625 302.04827880859375 460.32257080078125 305.61376953125 458.8350830078125 308.4276123046875 C 457.3616943359375 311.22760009765625 455.5303955078125 313.4482421875 453.34130859375 315.08966064453125 C 451.166259765625 316.7310791015625 448.71759033203125 317.9862060546875 445.9952392578125 318.85516357421875 C 445.91107177734375 318.7310791015625 445.798828125 318.5655517578125 445.658447265625 318.358642578125 C 445.5322265625 318.16552734375 445.39892578125 318.0137939453125 445.258544921875 317.9034423828125 C 447.86865234375 317.11724853515625 450.2401123046875 315.93792724609375 452.37310791015625 314.365478515625 C 454.50604248046875 312.779296875 456.295166015625 310.641357421875 457.7406005859375 307.95172119140625 C 459.199951171875 305.2620849609375 460.20330810546875 301.89654541015625 460.7506103515625 297.85516357421875 C 460.7506103515625 297.74481201171875 460.7506103515625 297.634521484375 460.7506103515625 297.524169921875M 447.48974609375 307.49658203125 C 447.75634765625 307.2344970703125 448.02294921875 306.972412109375 448.28961181640625 306.7103271484375 C 450.07177734375 307.44140625 451.86090087890625 308.3240966796875 453.6571044921875 309.358642578125 C 455.46728515625 310.39306640625 457.13720703125 311.468994140625 458.666748046875 312.586181640625 C 460.2103271484375 313.7034912109375 461.45220947265625 314.75860595703125 462.39239501953125 315.751708984375 C 462.09771728515625 316.04827880859375 461.802978515625 316.3448486328125 461.50830078125 316.641357421875 C 460.568115234375 315.634521484375 459.333251953125 314.5723876953125 457.8037109375 313.4552001953125 C 456.2882080078125 312.337890625 454.6253662109375 311.2620849609375 452.81512451171875 310.22760009765625 C 451.0189208984375 309.1793212890625 449.2437744140625 308.2689208984375 447.48974609375 307.49658203125M 444.7744140625 287.03448486328125 C 456.60394287109375 287.03448486328125 468.4334716796875 287.03448486328125 480.262939453125 287.03448486328125 C 480.262939453125 287.420654296875 480.262939453125 287.806884765625 480.262939453125 288.193115234375 C 468.4334716796875 288.193115234375 456.60394287109375 288.193115234375 444.7744140625 288.193115234375 C 444.7744140625 287.806884765625 444.7744140625 287.420654296875 444.7744140625 287.03448486328125M 454.8779296875 283.02069091796875 C 455.2708740234375 283.02069091796875 455.6636962890625 283.02069091796875 456.056640625 283.02069091796875 C 456.056640625 286.24139404296875 456.056640625 289.4620361328125 456.056640625 292.6827392578125 C 455.6636962890625 292.6827392578125 455.2708740234375 292.6827392578125 454.8779296875 292.6827392578125 C 454.8779296875 289.4620361328125 454.8779296875 286.24139404296875 454.8779296875 283.02069091796875M 468.791259765625 283.02069091796875 C 469.17718505859375 283.02069091796875 469.56304931640625 283.02069091796875 469.948974609375 283.02069091796875 C 469.948974609375 286.2965087890625 469.948974609375 289.5723876953125 469.948974609375 292.8482666015625 C 469.56304931640625 292.8482666015625 469.17718505859375 292.8482666015625 468.791259765625 292.8482666015625 C 468.791259765625 289.5723876953125 468.791259765625 286.2965087890625 468.791259765625 283.02069091796875"/>
  </g>
</svg>
