<?xml version="1.0" ?>
<svg xmlns="http://www.w3.org/2000/svg" version="1.1" width="600" height="600">
  <defs/>
  <g>
    <path stroke-width="0" fill="rgb(0, 0, 0)" opacity="1.0" d="M 169.22705078125 156.36526489257812 C 169.078125 157.85873413085938 168.70458984375 159.7255859375 168.10693359375 161.96575927734375 C 167.509765625 164.20596313476562 166.912109375 167.04354858398438 166.31494140625 170.478515625 C 164.82177734375 179.140625 163.10400390625 190.56564331054688 161.16259765625 204.75357055664062 C 159.37060546875 218.9415283203125 157.7275390625 234.17486572265625 156.234375 250.45364379882812 C 154.890625 266.58306884765625 153.91943359375 282.04046630859375 153.322265625 296.82574462890625 C 152.87451171875 311.611083984375 153.0234375 324.0068359375 153.7705078125 334.0130615234375 C 158.99755859375 312.80584716796875 167.43505859375 293.09210205078125 179.083984375 274.871826171875 C 190.88134765625 256.6515197753906 205.0693359375 240.74609375 221.64599609375 227.15557861328125 C 238.3720703125 213.56503295898438 256.51708984375 202.96142578125 276.0810546875 195.3447265625 C 295.79443359375 187.72805786132812 316.1044921875 183.91973876953125 337.0126953125 183.91973876953125 C 363.14697265625 183.91973876953125 385.17529296875 188.69882202148438 403.09619140625 198.25698852539062 C 421.01708984375 207.815185546875 434.60693359375 220.65899658203125 443.8662109375 236.78842163085938 C 453.27490234375 252.76849365234375 457.97900390625 270.540771484375 457.97900390625 290.10516357421875 C 457.97900390625 312.20849609375 453.42431640625 332.29559326171875 444.314453125 350.36651611328125 C 435.35400390625 368.4375 421.6142578125 382.77471923828125 403.09619140625 393.37835693359375 C 384.578125 403.98193359375 360.98193359375 409.28375244140625 332.30810546875 409.28375244140625 C 316.0302734375 409.28375244140625 300.79736328125 406.3714599609375 286.60986328125 400.5469970703125 C 272.421875 394.5731201171875 259.6533203125 386.06036376953125 248.3037109375 375.00872802734375 C 236.95361328125 363.95703125 227.24658203125 350.590576171875 219.18212890625 334.9091796875 C 222.6171875 331.69818115234375 226.0517578125 328.48724365234375 229.486328125 325.27630615234375 C 236.35595703125 340.808349609375 244.86865234375 353.9508056640625 255.02392578125 364.70379638671875 C 265.32861328125 375.456787109375 277.12646484375 383.59613037109375 290.41796875 389.1219482421875 C 303.70947265625 394.4984130859375 318.56884765625 397.1866455078125 334.99658203125 397.1866455078125 C 356.50146484375 397.1866455078125 375.61767578125 393.07965087890625 392.34375 384.8656005859375 C 409.06982421875 376.502197265625 422.2119140625 364.479736328125 431.76953125 348.79833984375 C 441.47705078125 332.9676513671875 446.33056640625 313.85125732421875 446.33056640625 291.44927978515625 C 446.33056640625 273.9757080078125 442.2236328125 257.99566650390625 434.009765625 243.509033203125 C 425.9453125 229.02239990234375 413.8486328125 217.44802856445312 397.7197265625 208.78594970703125 C 381.5908203125 199.9744873046875 361.65380859375 195.56875610351562 337.90869140625 195.56875610351562 C 315.50732421875 195.56875610351562 294.7490234375 199.52642822265625 275.63330078125 207.44183349609375 C 256.6669921875 215.20782470703125 239.64208984375 225.8861083984375 224.55810546875 239.4766845703125 C 209.474609375 252.9178466796875 196.78076171875 267.92718505859375 186.47607421875 284.5046691894531 C 176.17138671875 301.0821533203125 168.6298828125 318.032958984375 163.85107421875 335.357177734375 C 162.65625 339.0908203125 161.61083984375 343.944580078125 160.71484375 349.91845703125 C 159.81884765625 355.892333984375 159.52001953125 361.79150390625 159.81884765625 367.6160888671875 C 160.11767578125 371.3497314453125 160.64013671875 375.6060791015625 161.38671875 380.38519287109375 C 162.1337890625 385.014892578125 162.8798828125 389.6446533203125 163.626953125 394.2744140625 C 164.52294921875 398.75482177734375 165.4189453125 402.7125244140625 166.31494140625 406.1474609375 C 162.58154296875 407.0435791015625 158.84765625 407.93963623046875 155.1142578125 408.835693359375 C 151.97802734375 396.7386474609375 149.06591796875 381.43060302734375 146.3779296875 362.91162109375 C 143.68994140625 344.2432861328125 142.345703125 324.97760009765625 142.345703125 305.114501953125 C 142.345703125 292.8680725097656 142.7939453125 279.9495849609375 143.68994140625 266.35906982421875 C 144.73486328125 252.61917114257812 145.9296875 239.4766845703125 147.27392578125 226.93154907226562 C 148.76708984375 214.23709106445312 150.111328125 202.81207275390625 151.30615234375 192.656494140625 C 152.650390625 182.50091552734375 153.62109375 174.73489379882812 154.21826171875 169.35842895507812 C 154.51708984375 166.07281494140625 154.66650390625 163.459228515625 154.66650390625 161.51773071289062 C 154.66650390625 159.57623291015625 154.51708984375 157.41070556640625 154.21826171875 155.02114868164062 C 159.2216796875 155.46920776367188 164.22412109375 155.917236328125 169.22705078125 156.36526489257812M 319.763671875 121.8662109375 C 322.15283203125 131.72308349609375 324.54248046875 144.71624755859375 326.93212890625 160.84567260742188 C 329.3212890625 176.82577514648438 331.33740234375 194.52334594726562 332.98046875 213.93838500976562 C 334.623046875 233.2041015625 335.4443359375 252.99252319335938 335.4443359375 273.30364990234375 C 335.4443359375 298.24456787109375 333.87646484375 321.243896484375 330.740234375 342.30181884765625 C 327.7529296875 363.2103271484375 322.89990234375 382.1773681640625 316.17919921875 399.202880859375 C 309.458984375 416.2283935546875 300.423828125 431.46173095703125 289.07373046875 444.9029541015625 C 277.72412109375 458.19476318359375 263.76025390625 469.54510498046875 247.18359375 478.9539794921875 C 243.4501953125 476.34039306640625 239.71630859375 473.726806640625 235.98291015625 471.11328125 C 252.11181640625 462.899169921875 265.70166015625 452.6689453125 276.7529296875 440.4224853515625 C 287.95361328125 428.1761474609375 296.9892578125 413.9881591796875 303.85888671875 397.8587646484375 C 310.8779296875 381.72930908203125 315.955078125 363.35968017578125 319.09130859375 342.7498779296875 C 322.2275390625 321.99066162109375 323.7958984375 298.99127197265625 323.7958984375 273.751708984375 C 323.7958984375 253.4405517578125 323.048828125 234.62289428710938 321.5556640625 217.2987060546875 C 320.21142578125 199.82513427734375 318.56884765625 184.8157958984375 316.62744140625 172.27069091796875 C 314.83544921875 159.57623291015625 313.1923828125 150.540771484375 311.69921875 145.16427612304688 C 310.80322265625 141.13192749023438 309.7578125 137.09954833984375 308.56298828125 133.06719970703125 C 307.517578125 129.03485107421875 306.3974609375 125.599853515625 305.20263671875 122.76229858398438 C 310.05615234375 122.46359252929688 314.91015625 122.1649169921875 319.763671875 121.8662109375"/>
  </g>
</svg>
