<?xml version="1.0" ?>
<svg xmlns="http://www.w3.org/2000/svg" version="1.1" width="600" height="600">
  <defs/>
  <g>
    <path stroke-width="0" fill="rgb(0, 0, 0)" opacity="1.0" d="M 120.87994384765625 287.2020263671875 C 124.59384155273438 287.2020263671875 128.30770874023438 287.2020263671875 132.0216064453125 287.2020263671875 C 132.0216064453125 287.5235595703125 132.0216064453125 287.844970703125 132.0216064453125 288.16650390625 C 128.30770874023438 288.16650390625 124.59384155273438 288.16650390625 120.87994384765625 288.16650390625 C 120.87994384765625 287.844970703125 120.87994384765625 287.5235595703125 120.87994384765625 287.2020263671875M 121.38009643554688 296.501708984375 C 124.83529663085938 296.501708984375 128.29046630859375 296.501708984375 131.74566650390625 296.501708984375 C 131.74566650390625 296.82318115234375 131.74566650390625 297.1446533203125 131.74566650390625 297.46612548828125 C 128.29046630859375 297.46612548828125 124.83529663085938 297.46612548828125 121.38009643554688 297.46612548828125 C 121.38009643554688 297.1446533203125 121.38009643554688 296.82318115234375 121.38009643554688 296.501708984375M 120.44876098632812 308.5740966796875 C 121.42608642578125 308.30999755859375 122.54718017578125 307.9942626953125 123.81195068359375 307.6268310546875 C 125.0882568359375 307.25946044921875 126.44503784179688 306.8634033203125 127.88229370117188 306.4385986328125 C 129.3310546875 306.0023193359375 130.78555297851562 305.5775146484375 132.24581909179688 305.1641845703125 C 132.29180908203125 305.48565673828125 132.33779907226562 305.80712890625 132.3837890625 306.12860107421875 C 130.30264282226562 306.737060546875 128.22723388671875 307.351318359375 126.15756225585938 307.9713134765625 C 124.09939575195312 308.59130859375 122.29995727539062 309.130859375 120.75921630859375 309.590087890625 C 120.65573120117188 309.25146484375 120.55224609375 308.9127197265625 120.44876098632812 308.5740966796875M 134.763916015625 293.72900390625 C 134.763916015625 295.26751708984375 134.763916015625 296.80596923828125 134.763916015625 298.34442138671875 C 139.09295654296875 298.34442138671875 143.42196655273438 298.34442138671875 147.75100708007812 298.34442138671875 C 147.75100708007812 296.80596923828125 147.75100708007812 295.26751708984375 147.75100708007812 293.72900390625 C 143.42196655273438 293.72900390625 139.09295654296875 293.72900390625 134.763916015625 293.72900390625M 134.763916015625 299.308837890625 C 134.763916015625 300.8759765625 134.763916015625 302.44317626953125 134.763916015625 304.0103759765625 C 139.09295654296875 304.0103759765625 143.42196655273438 304.0103759765625 147.75100708007812 304.0103759765625 C 147.75100708007812 302.44317626953125 147.75100708007812 300.8759765625 147.75100708007812 299.308837890625 C 143.42196655273438 299.308837890625 139.09295654296875 299.308837890625 134.763916015625 299.308837890625M 134.763916015625 288.13201904296875 C 134.763916015625 289.664794921875 134.763916015625 291.197509765625 134.763916015625 292.730224609375 C 139.09295654296875 292.730224609375 143.42196655273438 292.730224609375 147.75100708007812 292.730224609375 C 147.75100708007812 291.197509765625 147.75100708007812 289.664794921875 147.75100708007812 288.13201904296875 C 143.42196655273438 288.13201904296875 139.09295654296875 288.13201904296875 134.763916015625 288.13201904296875M 133.79806518554688 287.1676025390625 C 138.7652587890625 287.1676025390625 143.732421875 287.1676025390625 148.69961547851562 287.1676025390625 C 148.69961547851562 293.10906982421875 148.69961547851562 299.050537109375 148.69961547851562 304.991943359375 C 143.732421875 304.991943359375 138.7652587890625 304.991943359375 133.79806518554688 304.991943359375 C 133.79806518554688 299.050537109375 133.79806518554688 293.10906982421875 133.79806518554688 287.1676025390625M 142.80108642578125 304.40643310546875 C 143.12301635742188 304.40643310546875 143.44497680664062 304.40643310546875 143.76693725585938 304.40643310546875 C 143.76693725585938 307.3685302734375 143.76693725585938 310.3306884765625 143.76693725585938 313.292724609375 C 143.76693725585938 313.625732421875 143.8416748046875 313.8438720703125 143.99114990234375 313.9471435546875 C 144.152099609375 314.06201171875 144.49703979492188 314.119384765625 145.02597045898438 314.119384765625 C 145.19842529296875 314.119384765625 145.54339599609375 314.119384765625 146.060791015625 314.119384765625 C 146.5897216796875 314.119384765625 147.130126953125 314.119384765625 147.68203735351562 314.119384765625 C 148.23394775390625 314.119384765625 148.619140625 314.119384765625 148.83758544921875 314.119384765625 C 149.14804077148438 314.119384765625 149.37799072265625 314.0333251953125 149.5274658203125 313.861083984375 C 149.68844604492188 313.6888427734375 149.80343627929688 313.31573486328125 149.87240600585938 312.74169921875 C 149.95291137695312 312.1676025390625 150.004638671875 311.3065185546875 150.02764892578125 310.158447265625 C 150.11962890625 310.204345703125 150.21160888671875 310.25604248046875 150.3035888671875 310.3134765625 C 150.40707397460938 310.359375 150.51632690429688 310.4052734375 150.63128662109375 310.451171875 C 150.75778198242188 310.49713134765625 150.86700439453125 310.5316162109375 150.958984375 310.5545654296875 C 150.93600463867188 311.771484375 150.86126708984375 312.7015380859375 150.73477172851562 313.34442138671875 C 150.61978149414062 313.99884033203125 150.42431640625 314.4466552734375 150.14837646484375 314.687744140625 C 149.87240600585938 314.9288330078125 149.469970703125 315.04937744140625 148.94107055664062 315.04937744140625 C 148.84909057617188 315.04937744140625 148.60763549804688 315.04937744140625 148.2166748046875 315.04937744140625 C 147.83724975585938 315.04937744140625 147.41757202148438 315.04937744140625 146.9576416015625 315.04937744140625 C 146.50921630859375 315.04937744140625 146.09527587890625 315.04937744140625 145.71585083007812 315.04937744140625 C 145.347900390625 315.04937744140625 145.1064453125 315.04937744140625 144.99148559570312 315.04937744140625 C 144.41656494140625 315.04937744140625 143.9681396484375 315.00341796875 143.64617919921875 314.91162109375 C 143.33575439453125 314.83123779296875 143.11727905273438 314.664794921875 142.99081420898438 314.41217041015625 C 142.86431884765625 314.1595458984375 142.80108642578125 313.78643798828125 142.80108642578125 313.292724609375 C 142.80108642578125 310.3306884765625 142.80108642578125 307.3685302734375 142.80108642578125 304.40643310546875M 137.38546752929688 304.44085693359375 C 137.71316528320312 304.44085693359375 138.04086303710938 304.44085693359375 138.36856079101562 304.44085693359375 C 138.19610595703125 305.830078125 137.92587280273438 307.0987548828125 137.55795288085938 308.246826171875 C 137.19000244140625 309.3834228515625 136.67257690429688 310.4110107421875 136.00570678710938 311.3294677734375 C 135.35031127929688 312.24798583984375 134.50518798828125 313.0516357421875 133.47036743164062 313.74053955078125 C 132.435546875 314.44091796875 131.16500854492188 315.0321044921875 129.65875244140625 315.51434326171875 C 129.61276245117188 315.4224853515625 129.54949951171875 315.324951171875 129.46902465820312 315.2215576171875 C 129.4000244140625 315.1297607421875 129.31954956054688 315.0321044921875 129.22756958007812 314.9288330078125 C 129.1470947265625 314.83697509765625 129.07232666015625 314.76806640625 129.00335693359375 314.72216796875 C 130.47509765625 314.2744140625 131.71115112304688 313.7232666015625 132.71148681640625 313.06884765625 C 133.72332763671875 312.4259033203125 134.54544067382812 311.668212890625 135.17782592773438 310.795654296875 C 135.81024169921875 309.923095703125 136.29315185546875 308.95867919921875 136.6265869140625 307.90240478515625 C 136.9715576171875 306.84619140625 137.2244873046875 305.69232177734375 137.38546752929688 304.44085693359375M 126.08859252929688 287.59814453125 C 126.4105224609375 287.59814453125 126.73248291015625 287.59814453125 127.05441284179688 287.59814453125 C 127.05441284179688 294.1021728515625 127.05441284179688 300.606201171875 127.05441284179688 307.1102294921875 C 126.73248291015625 307.2020263671875 126.4105224609375 307.2939453125 126.08859252929688 307.3857421875 C 126.08859252929688 300.7899169921875 126.08859252929688 294.19403076171875 126.08859252929688 287.59814453125"/>
    <path stroke-width="0" fill="rgb(0, 0, 0)" opacity="1.0" d="M 162.3076171875 297.0872802734375 C 169.27548217773438 296.2606201171875 176.24331665039062 295.4339599609375 183.211181640625 294.60736083984375 C 183.262939453125 294.9173583984375 183.31466674804688 295.227294921875 183.36639404296875 295.537353515625 C 176.39279174804688 296.35247802734375 169.419189453125 297.1676025390625 162.44558715820312 297.9827880859375 C 162.39959716796875 297.68426513671875 162.35360717773438 297.3857421875 162.3076171875 297.0872802734375M 175.72592163085938 287.2020263671875 C 175.932861328125 287.02984619140625 176.13983154296875 286.857666015625 176.3468017578125 286.6854248046875 C 177.10568237304688 287.21356201171875 177.88180541992188 287.799072265625 178.6751708984375 288.4420166015625 C 179.46853637695312 289.073486328125 180.20443725585938 289.7049560546875 180.8828125 290.33642578125 C 181.57269287109375 290.9678955078125 182.1361083984375 291.524658203125 182.57302856445312 292.00689697265625 C 182.35455322265625 292.2020263671875 182.1361083984375 292.397216796875 181.91763305664062 292.5924072265625 C 181.480712890625 292.1102294921875 180.91729736328125 291.55908203125 180.2274169921875 290.93914794921875 C 179.54904174804688 290.30767822265625 178.81314086914062 289.65899658203125 178.019775390625 288.99310302734375 C 177.2379150390625 288.32720947265625 176.47329711914062 287.730224609375 175.72592163085938 287.2020263671875M 163.41143798828125 285.94488525390625 C 163.71612548828125 286.0367431640625 164.02084350585938 286.12860107421875 164.32553100585938 286.220458984375 C 163.4976806640625 288.1378173828125 162.53182983398438 289.9862060546875 161.42800903320312 291.7657470703125 C 160.32418823242188 293.53387451171875 159.12838745117188 295.1871337890625 157.84060668945312 296.7255859375 C 156.5643310546875 298.2525634765625 155.24203491210938 299.61309814453125 153.87374877929688 300.80712890625 C 153.8277587890625 300.73822021484375 153.7587890625 300.652099609375 153.66680908203125 300.548828125 C 153.5863037109375 300.4454345703125 153.50006103515625 300.347900390625 153.4080810546875 300.25604248046875 C 153.31610107421875 300.1527099609375 153.23562622070312 300.07806396484375 153.1666259765625 300.0321044921875 C 154.534912109375 298.906982421875 155.8514404296875 297.6038818359375 157.1162109375 296.122802734375 C 158.39251708984375 294.63031005859375 159.5653076171875 293.02294921875 160.6346435546875 291.30078125 C 161.7154541015625 289.567138671875 162.64105224609375 287.7818603515625 163.41143798828125 285.94488525390625M 159.34112548828125 294.0906982421875 C 159.65731811523438 293.76922607421875 159.9735107421875 293.44775390625 160.28970336914062 293.12628173828125 C 160.28970336914062 293.13775634765625 160.28970336914062 293.1492919921875 160.28970336914062 293.1607666015625 C 160.28970336914062 300.5316162109375 160.28970336914062 307.90240478515625 160.28970336914062 315.27325439453125 C 159.9735107421875 315.27325439453125 159.65731811523438 315.27325439453125 159.34112548828125 315.27325439453125 C 159.34112548828125 308.21240234375 159.34112548828125 301.15155029296875 159.34112548828125 294.0906982421875M 170.94845581054688 285.9793701171875 C 171.2703857421875 285.9793701171875 171.59234619140625 285.9793701171875 171.914306640625 285.9793701171875 C 172.0982666015625 289.8829345703125 172.40872192382812 293.52813720703125 172.84564208984375 296.9150390625 C 173.28256225585938 300.30194091796875 173.86895751953125 303.28125 174.6048583984375 305.85302734375 C 175.35223388671875 308.413330078125 176.27783203125 310.4339599609375 177.38165283203125 311.9150390625 C 178.4854736328125 313.3846435546875 179.77899169921875 314.17681884765625 181.26223754882812 314.2916259765625 C 181.837158203125 314.3145751953125 182.29132080078125 313.792236328125 182.62478637695312 312.7244873046875 C 182.9697265625 311.65673828125 183.25140380859375 310.1068115234375 183.46987915039062 308.0745849609375 C 183.5618896484375 308.12054443359375 183.65386962890625 308.1722412109375 183.745849609375 308.2296142578125 C 183.84933471679688 308.2755126953125 183.95281982421875 308.32147216796875 184.0562744140625 308.367431640625 C 184.1712646484375 308.413330078125 184.26324462890625 308.44775390625 184.33224487304688 308.470703125 C 184.1597900390625 310.14697265625 183.935546875 311.4959716796875 183.65960693359375 312.517822265625 C 183.3836669921875 313.53961181640625 183.05020141601562 314.2686767578125 182.65927124023438 314.7049560546875 C 182.27984619140625 315.1527099609375 181.81414794921875 315.3651123046875 181.26223754882812 315.3421630859375 C 179.84799194335938 315.28472900390625 178.606201171875 314.733642578125 177.536865234375 313.6888427734375 C 176.47903442382812 312.65557861328125 175.5706787109375 311.2376708984375 174.81182861328125 309.43511962890625 C 174.05294799804688 307.62109375 173.4205322265625 305.49713134765625 172.91461181640625 303.0631103515625 C 172.40872192382812 300.629150390625 172.00051879882812 297.965576171875 171.6900634765625 295.07232666015625 C 171.379638671875 292.1676025390625 171.13241577148438 289.1365966796875 170.94845581054688 285.9793701171875"/>
    <path stroke-width="0" fill="rgb(0, 0, 0)" opacity="1.0" d="M 198.5093994140625 313.3961181640625 C 204.70114135742188 313.3961181640625 210.89288330078125 313.3961181640625 217.0845947265625 313.3961181640625 C 217.0845947265625 313.717529296875 217.0845947265625 314.0390625 217.0845947265625 314.3604736328125 C 210.89288330078125 314.3604736328125 204.70114135742188 314.3604736328125 198.5093994140625 314.3604736328125 C 198.5093994140625 314.0390625 198.5093994140625 313.717529296875 198.5093994140625 313.3961181640625M 199.76846313476562 296.9322509765625 C 205.33352661132812 296.9322509765625 210.89862060546875 296.9322509765625 216.46371459960938 296.9322509765625 C 216.46371459960938 297.25372314453125 216.46371459960938 297.5751953125 216.46371459960938 297.89666748046875 C 210.89862060546875 297.89666748046875 205.33352661132812 297.89666748046875 199.76846313476562 297.89666748046875 C 199.76846313476562 297.5751953125 199.76846313476562 297.25372314453125 199.76846313476562 296.9322509765625M 207.650390625 285.72100830078125 C 207.97808837890625 285.72100830078125 208.3057861328125 285.72100830078125 208.63348388671875 285.72100830078125 C 208.63348388671875 295.10107421875 208.63348388671875 304.4810791015625 208.63348388671875 313.861083984375 C 208.3057861328125 313.861083984375 207.97808837890625 313.861083984375 207.650390625 313.861083984375 C 207.650390625 304.4810791015625 207.650390625 295.10107421875 207.650390625 285.72100830078125M 187.2125244140625 291.834716796875 C 190.920654296875 291.834716796875 194.6287841796875 291.834716796875 198.33694458007812 291.834716796875 C 198.33694458007812 292.1561279296875 198.33694458007812 292.47760009765625 198.33694458007812 292.799072265625 C 194.6287841796875 292.799072265625 190.920654296875 292.799072265625 187.2125244140625 292.799072265625 C 187.2125244140625 292.47760009765625 187.2125244140625 292.1561279296875 187.2125244140625 291.834716796875M 192.93856811523438 300.3421630859375 C 193.27203369140625 299.9517822265625 193.60546875 299.5614013671875 193.93890380859375 299.17108154296875 C 193.93890380859375 304.5499267578125 193.93890380859375 309.9288330078125 193.93890380859375 315.30767822265625 C 193.60546875 315.30767822265625 193.27203369140625 315.30767822265625 192.93856811523438 315.30767822265625 C 192.93856811523438 310.3192138671875 192.93856811523438 305.3306884765625 192.93856811523438 300.3421630859375M 192.93856811523438 285.51434326171875 C 193.27203369140625 285.51434326171875 193.60546875 285.51434326171875 193.93890380859375 285.51434326171875 C 193.93890380859375 287.810546875 193.93890380859375 290.1068115234375 193.93890380859375 292.4029541015625 C 193.60546875 292.4029541015625 193.27203369140625 292.4029541015625 192.93856811523438 292.4029541015625 C 192.93856811523438 290.1068115234375 192.93856811523438 287.810546875 192.93856811523438 285.51434326171875M 193.9044189453125 299.34326171875 C 194.16888427734375 299.5384521484375 194.58282470703125 299.877197265625 195.14620971679688 300.359375 C 195.70962524414062 300.830078125 196.31326293945312 301.3409423828125 196.9571533203125 301.89208984375 C 197.612548828125 302.44317626953125 198.21621704101562 302.9541015625 198.76812744140625 303.4248046875 C 199.32003784179688 303.884033203125 199.71670532226562 304.22271728515625 199.95819091796875 304.44085693359375 C 199.751220703125 304.7164306640625 199.54425048828125 304.991943359375 199.3372802734375 305.26751708984375 C 199.04983520507812 304.98046875 198.63589477539062 304.5958251953125 198.09548950195312 304.1136474609375 C 197.5550537109375 303.6199951171875 196.96865844726562 303.09759521484375 196.33627319335938 302.5465087890625 C 195.703857421875 301.99542236328125 195.10595703125 301.4844970703125 194.54257202148438 301.0137939453125 C 193.99066162109375 300.5430908203125 193.55947875976562 300.1986083984375 193.2490234375 299.98046875 C 193.46749877929688 299.76806640625 193.68597412109375 299.5556640625 193.9044189453125 299.34326171875M 197.94024658203125 291.834716796875 C 198.020751953125 291.834716796875 198.10122680664062 291.834716796875 198.18170166015625 291.834716796875 C 198.2564697265625 291.81170654296875 198.3311767578125 291.78875732421875 198.40594482421875 291.7657470703125 C 198.60714721679688 291.8978271484375 198.808349609375 292.02984619140625 199.00958251953125 292.161865234375 C 198.19320678710938 294.0677490234375 197.11239624023438 295.8931884765625 195.76712036132812 297.6383056640625 C 194.43331909179688 299.3719482421875 192.99032592773438 300.95635986328125 191.43807983398438 302.3914794921875 C 189.88583374023438 303.815185546875 188.3565673828125 305.037841796875 186.850341796875 306.0596923828125 C 186.8043212890625 305.9678955078125 186.7353515625 305.8817138671875 186.64337158203125 305.8013916015625 C 186.5628662109375 305.70953369140625 186.48239135742188 305.6234130859375 186.40191650390625 305.5430908203125 C 186.3214111328125 305.462646484375 186.24093627929688 305.3995361328125 186.16046142578125 305.3536376953125 C 187.65521240234375 304.41217041015625 189.16143798828125 303.2410888671875 190.67919921875 301.8404541015625 C 192.20843505859375 300.439697265625 193.61697387695312 298.9012451171875 194.90475463867188 297.22503662109375 C 196.20404052734375 295.548828125 197.21588134765625 293.849609375 197.94024658203125 292.12744140625 C 197.94024658203125 292.02984619140625 197.94024658203125 291.9322509765625 197.94024658203125 291.834716796875"/>
    <path stroke-width="0" fill="rgb(0, 0, 0)" opacity="1.0" d="M 221.72409057617188 312.965576171875 C 223.5982666015625 312.919677734375 225.81167602539062 312.8564453125 228.3642578125 312.776123046875 C 230.92831420898438 312.68426513671875 233.6763916015625 312.586669921875 236.6083984375 312.48333740234375 C 239.55191040039062 312.3685302734375 242.50115966796875 312.24224853515625 245.4561767578125 312.1044921875 C 245.450439453125 312.4144287109375 245.4447021484375 312.7244873046875 245.43893432617188 313.034423828125 C 242.56442260742188 313.1607666015625 239.68414306640625 313.2869873046875 236.798095703125 313.413330078125 C 233.923583984375 313.53961181640625 231.19854736328125 313.648681640625 228.62295532226562 313.74053955078125 C 226.04736328125 313.8438720703125 223.79376220703125 313.929931640625 221.862060546875 313.99884033203125 C 221.81607055664062 313.6544189453125 221.77008056640625 313.30999755859375 221.72409057617188 312.965576171875M 221.327392578125 302.3914794921875 C 230.44540405273438 302.3914794921875 239.56341552734375 302.3914794921875 248.681396484375 302.3914794921875 C 248.681396484375 302.71875 248.681396484375 303.0458984375 248.681396484375 303.3731689453125 C 239.56341552734375 303.3731689453125 230.44540405273438 303.3731689453125 221.327392578125 303.3731689453125 C 221.327392578125 303.0458984375 221.327392578125 302.71875 221.327392578125 302.3914794921875M 226.76025390625 296.0711669921875 C 232.1241455078125 296.0711669921875 237.48800659179688 296.0711669921875 242.85186767578125 296.0711669921875 C 242.85186767578125 296.4041748046875 242.85186767578125 296.737060546875 242.85186767578125 297.070068359375 C 237.48800659179688 297.070068359375 232.1241455078125 297.070068359375 226.76025390625 297.070068359375 C 226.76025390625 296.737060546875 226.76025390625 296.4041748046875 226.76025390625 296.0711669921875M 231.365234375 302.942626953125 C 231.70443725585938 303.057373046875 232.04364013671875 303.1722412109375 232.38284301757812 303.2869873046875 C 231.87692260742188 304.3662109375 231.32501220703125 305.52581787109375 230.72711181640625 306.7657470703125 C 230.12921142578125 307.9942626953125 229.5140380859375 309.20550537109375 228.88165283203125 310.3995361328125 C 228.26077270507812 311.58209228515625 227.6513671875 312.6383056640625 227.053466796875 313.56829833984375 C 226.74301147460938 313.4534912109375 226.43255615234375 313.33868408203125 226.12213134765625 313.223876953125 C 226.72003173828125 312.305419921875 227.34091186523438 311.243408203125 227.98480224609375 310.037841796875 C 228.64019775390625 308.8209228515625 229.266845703125 307.586669921875 229.86474609375 306.335205078125 C 230.462646484375 305.07232666015625 230.96282958984375 303.94140625 231.365234375 302.942626953125M 238.86776733398438 306.55908203125 C 239.114990234375 306.4041748046875 239.3621826171875 306.2491455078125 239.60940551757812 306.0941162109375 C 240.667236328125 306.9781494140625 241.71929931640625 307.9483642578125 242.765625 309.00457763671875 C 243.81195068359375 310.06085205078125 244.77203369140625 311.1055908203125 245.64590454101562 312.138916015625 C 246.51974487304688 313.1722412109375 247.20965576171875 314.10791015625 247.715576171875 314.946044921875 C 247.45111083984375 315.1240234375 247.1866455078125 315.30194091796875 246.92218017578125 315.47991943359375 C 246.39328002929688 314.64178466796875 245.69189453125 313.7003173828125 244.81805419921875 312.65557861328125 C 243.94418334960938 311.61077880859375 242.99560546875 310.548828125 241.97225952148438 309.4696044921875 C 240.94891357421875 308.37890625 239.91409301757812 307.40869140625 238.86776733398438 306.55908203125M 234.67669677734375 286.547607421875 C 233.76837158203125 287.9598388671875 232.56680297851562 289.41217041015625 231.07205200195312 290.9046630859375 C 229.58880615234375 292.3857421875 227.93307495117188 293.7979736328125 226.1048583984375 295.1412353515625 C 224.28814697265625 296.4844970703125 222.41973876953125 297.66705322265625 220.49954223632812 298.6888427734375 C 220.45355224609375 298.5970458984375 220.39605712890625 298.5108642578125 220.32708740234375 298.4305419921875 C 220.25808715820312 298.33868408203125 220.1890869140625 298.246826171875 220.1201171875 298.155029296875 C 220.0626220703125 298.0631103515625 219.98788452148438 297.9827880859375 219.8958740234375 297.91387939453125 C 221.81607055664062 296.949462890625 223.69027709960938 295.795654296875 225.51846313476562 294.452392578125 C 227.358154296875 293.10906982421875 229.025390625 291.6739501953125 230.5201416015625 290.14697265625 C 232.02639770507812 288.6085205078125 233.22219848632812 287.0758056640625 234.1075439453125 285.548828125 C 234.41799926757812 285.548828125 234.72845458984375 285.548828125 235.03890991210938 285.548828125 C 235.91275024414062 286.78875732421875 236.94183349609375 288.011474609375 238.12612915039062 289.21697998046875 C 239.3104248046875 290.4110107421875 240.57522583007812 291.547607421875 241.9205322265625 292.6268310546875 C 243.26580810546875 293.7060546875 244.63406372070312 294.687744140625 246.02532958984375 295.57177734375 C 247.4166259765625 296.455810546875 248.77337646484375 297.1962890625 250.09567260742188 297.7933349609375 C 250.01519775390625 297.87371826171875 249.90594482421875 298.0057373046875 249.76797485351562 298.189453125 C 249.6414794921875 298.3616943359375 249.53228759765625 298.505126953125 249.44027709960938 298.6199951171875 C 247.6695556640625 297.7359619140625 245.85861206054688 296.65673828125 244.00741577148438 295.38232421875 C 242.15621948242188 294.096435546875 240.41424560546875 292.69573974609375 238.78152465820312 291.18023681640625 C 237.16030883789062 289.65325927734375 235.79202270507812 288.10906982421875 234.67669677734375 286.547607421875"/>
    <path stroke-width="0" fill="rgb(0, 0, 0)" opacity="1.0" d="M 265.2386779785156 287.5120849609375 C 265.169677734375 287.799072265625 265.1179504394531 288.0745849609375 265.08343505859375 288.33868408203125 C 265.0489501953125 288.602783203125 265.00872802734375 288.8897705078125 264.96270751953125 289.19976806640625 C 264.8822326660156 289.946044921875 264.77874755859375 290.818603515625 264.65228271484375 291.81744384765625 C 264.53729248046875 292.8048095703125 264.40509033203125 293.8553466796875 264.2555847167969 294.968994140625 C 264.11761474609375 296.0826416015625 263.9796142578125 297.21356201171875 263.8416748046875 298.3616943359375 C 263.7151794433594 299.498291015625 263.58868408203125 300.606201171875 263.46221923828125 301.6854248046875 C 263.33575439453125 302.7646484375 263.2380065917969 303.75775146484375 263.16900634765625 304.664794921875 C 263.11151123046875 305.57177734375 263.082763671875 306.34674072265625 263.082763671875 306.9896240234375 C 263.082763671875 308.815185546875 263.58868408203125 310.29046630859375 264.60052490234375 311.4156494140625 C 265.62384033203125 312.540771484375 267.204833984375 313.10333251953125 269.343505859375 313.10333251953125 C 271.1487121582031 313.10333251953125 272.752685546875 312.8621826171875 274.15545654296875 312.3800048828125 C 275.5582275390625 311.8863525390625 276.65631103515625 311.16302490234375 277.44964599609375 310.2100830078125 C 278.2430419921875 309.2457275390625 278.63970947265625 308.080322265625 278.63970947265625 306.714111328125 C 278.63970947265625 305.6119384765625 278.34075927734375 304.41790771484375 277.74285888671875 303.13201904296875 C 277.1564636230469 301.84619140625 276.17913818359375 300.6807861328125 274.81085205078125 299.63604736328125 C 275.20751953125 299.5614013671875 275.6042175292969 299.48681640625 276.00091552734375 299.41217041015625 C 277.1622314453125 300.537353515625 278.0475769042969 301.691162109375 278.656982421875 302.87371826171875 C 279.266357421875 304.0447998046875 279.5710754394531 305.347900390625 279.5710754394531 306.78302001953125 C 279.5710754394531 308.390380859375 279.1283874511719 309.733642578125 278.2430419921875 310.8128662109375 C 277.357666015625 311.89208984375 276.1561279296875 312.69573974609375 274.63836669921875 313.223876953125 C 273.1206359863281 313.76348876953125 271.378662109375 314.0333251953125 269.4124755859375 314.0333251953125 C 268.17071533203125 314.0333251953125 266.98638916015625 313.815185546875 265.85955810546875 313.37890625 C 264.7327880859375 312.9541015625 263.81866455078125 312.23651123046875 263.1172790527344 311.2261962890625 C 262.4273681640625 310.204345703125 262.08245849609375 308.8209228515625 262.08245849609375 307.0758056640625 C 262.08245849609375 306.3294677734375 262.1341857910156 305.38232421875 262.2376708984375 304.2342529296875 C 262.3411560058594 303.08612060546875 262.473388671875 301.834716796875 262.63433837890625 300.47991943359375 C 262.7953186035156 299.1251220703125 262.9620361328125 297.7474365234375 263.134521484375 296.34674072265625 C 263.3184814453125 294.946044921875 263.4794616699219 293.625732421875 263.617431640625 292.3857421875 C 263.76690673828125 291.13433837890625 263.88763427734375 290.06085205078125 263.9796142578125 289.165283203125 C 264.025634765625 288.78643798828125 264.04864501953125 288.4534912109375 264.04864501953125 288.16650390625 C 264.04864501953125 287.87945556640625 264.025634765625 287.6268310546875 263.9796142578125 287.40869140625 C 264.3992919921875 287.44317626953125 264.8190002441406 287.47760009765625 265.2386779785156 287.5120849609375M 255.82171630859375 292.1962890625 C 256.7300720214844 292.46038818359375 257.72467041015625 292.69000244140625 258.80548095703125 292.88519287109375 C 259.88629150390625 293.06884765625 260.95562744140625 293.21240234375 262.0134582519531 293.31573486328125 C 263.082763671875 293.4075927734375 264.037109375 293.4534912109375 264.87646484375 293.4534912109375 C 266.1297912597656 293.4534912109375 267.3255615234375 293.4305419921875 268.4638977050781 293.3846435546875 C 269.6022033691406 293.32720947265625 270.7232666015625 293.2181396484375 271.82708740234375 293.057373046875 C 271.82708740234375 293.40185546875 271.82708740234375 293.74627685546875 271.82708740234375 294.0906982421875 C 270.6772766113281 294.17108154296875 269.56195068359375 294.239990234375 268.48114013671875 294.29736328125 C 267.40032958984375 294.354736328125 266.21026611328125 294.3834228515625 264.9109802246094 294.3834228515625 C 264.0831298828125 294.3834228515625 263.1287841796875 294.3375244140625 262.0479736328125 294.2457275390625 C 260.96710205078125 294.142333984375 259.87481689453125 294.00457763671875 258.77099609375 293.8323974609375 C 257.66717529296875 293.648681640625 256.65533447265625 293.44775390625 255.7354736328125 293.2296142578125 C 255.76422119140625 292.88519287109375 255.79296875 292.540771484375 255.82171630859375 292.1962890625M 254.942138671875 300.42822265625 C 255.88494873046875 300.76123046875 256.9140625 301.0367431640625 258.02935791015625 301.2548828125 C 259.1446838378906 301.4615478515625 260.260009765625 301.61077880859375 261.37530517578125 301.70263671875 C 262.4906311035156 301.78302001953125 263.51397705078125 301.82318115234375 264.4453125 301.82318115234375 C 265.6986083984375 301.82318115234375 266.8944091796875 301.80023193359375 268.03271484375 301.7542724609375 C 269.1710205078125 301.7083740234375 270.3553466796875 301.58782958984375 271.58563232421875 301.39263916015625 C 271.58563232421875 301.7542724609375 271.58563232421875 302.115966796875 271.58563232421875 302.47760009765625 C 270.309326171875 302.6153564453125 269.10205078125 302.707275390625 267.9637451171875 302.753173828125 C 266.8254089355469 302.799072265625 265.66412353515625 302.822021484375 264.47979736328125 302.822021484375 C 263.0655517578125 302.822021484375 261.48455810546875 302.7244873046875 259.73681640625 302.529296875 C 257.9891357421875 302.3226318359375 256.3678894042969 301.9781494140625 254.87313842773438 301.4959716796875 C 254.8961181640625 301.14007568359375 254.91912841796875 300.7841796875 254.942138671875 300.42822265625"/>
    <path stroke-width="0" fill="rgb(0, 0, 0)" opacity="1.0" d="M 298.28424072265625 287.5120849609375 C 298.26123046875 287.68426513671875 298.23248291015625 287.86798095703125 298.197998046875 288.0631103515625 C 298.16351318359375 288.246826171875 298.123291015625 288.459228515625 298.0772705078125 288.7003173828125 C 298.04278564453125 288.98736572265625 297.9680480957031 289.509765625 297.8530578613281 290.26751708984375 C 297.7380676269531 291.0252685546875 297.60009765625 291.8634033203125 297.43914794921875 292.7818603515625 C 297.2896423339844 293.7003173828125 297.1171875 294.567138671875 296.92169189453125 295.38232421875 C 296.68023681640625 296.30078125 296.404296875 297.3111572265625 296.0938415527344 298.413330078125 C 295.78338623046875 299.5155029296875 295.42120361328125 300.6807861328125 295.00726318359375 301.9093017578125 C 294.6048583984375 303.12628173828125 294.1448974609375 304.3834228515625 293.62750244140625 305.6807861328125 C 293.110107421875 306.9666748046875 292.523681640625 308.269775390625 291.8682861328125 309.590087890625 C 291.22442626953125 310.91046142578125 290.4942626953125 312.22503662109375 289.67791748046875 313.53387451171875 C 289.32147216796875 313.390380859375 288.96502685546875 313.246826171875 288.60858154296875 313.10333251953125 C 289.344482421875 312.150390625 290.03436279296875 311.0596923828125 290.67822265625 309.83123779296875 C 291.3336181640625 308.59130859375 291.9372863769531 307.2996826171875 292.48919677734375 305.95635986328125 C 293.0411071777344 304.61309814453125 293.541259765625 303.2869873046875 293.98968505859375 301.9781494140625 C 294.44964599609375 300.6578369140625 294.8348083496094 299.44085693359375 295.145263671875 298.32720947265625 C 295.46722412109375 297.2020263671875 295.72015380859375 296.2376708984375 295.90411376953125 295.4339599609375 C 296.214599609375 294.29736328125 296.4790344238281 293.0 296.697509765625 291.5418701171875 C 296.91595458984375 290.08380126953125 297.03668212890625 288.7060546875 297.0596923828125 287.40869140625 C 297.4678955078125 287.44317626953125 297.87603759765625 287.47760009765625 298.28424072265625 287.5120849609375M 309.6673583984375 291.4730224609375 C 310.1962890625 292.093017578125 310.7596740722656 292.89093017578125 311.35760498046875 293.8668212890625 C 311.95550537109375 294.83123779296875 312.5476379394531 295.864501953125 313.134033203125 296.9666748046875 C 313.720458984375 298.06884765625 314.2608642578125 299.130859375 314.7552795410156 300.1527099609375 C 315.24969482421875 301.17449951171875 315.640625 302.0643310546875 315.9281005859375 302.822021484375 C 315.61761474609375 302.9827880859375 315.30718994140625 303.1435546875 314.9967346191406 303.30426025390625 C 314.7322998046875 302.5350341796875 314.3701171875 301.6337890625 313.91015625 300.6004638671875 C 313.45025634765625 299.567138671875 312.93280029296875 298.505126953125 312.35791015625 297.4144287109375 C 311.78302001953125 296.32373046875 311.19085693359375 295.30194091796875 310.58148193359375 294.3489990234375 C 309.9720764160156 293.3846435546875 309.3798828125 292.5924072265625 308.80499267578125 291.972412109375 C 309.09246826171875 291.80596923828125 309.3798828125 291.6395263671875 309.6673583984375 291.4730224609375M 287.8497009277344 295.2445068359375 C 288.28662109375 295.26751708984375 288.6833190917969 295.27899169921875 289.0397644042969 295.27899169921875 C 289.3962097167969 295.27899169921875 289.79290771484375 295.26751708984375 290.22979736328125 295.2445068359375 C 290.70123291015625 295.2215576171875 291.327880859375 295.181396484375 292.1097412109375 295.1240234375 C 292.8916015625 295.06658935546875 293.74822998046875 295.00341796875 294.6795654296875 294.9345703125 C 295.6224365234375 294.85418701171875 296.55377197265625 294.779541015625 297.4736328125 294.710693359375 C 298.3934631347656 294.63031005859375 299.23284912109375 294.5614013671875 299.99169921875 294.5040283203125 C 300.7505798339844 294.4466552734375 301.33123779296875 294.41790771484375 301.7336730957031 294.41790771484375 C 302.550048828125 294.41790771484375 303.3146667480469 294.53271484375 304.02752685546875 294.7623291015625 C 304.74041748046875 294.991943359375 305.32684326171875 295.4569091796875 305.7867431640625 296.15728759765625 C 306.2581787109375 296.84619140625 306.493896484375 297.88519287109375 306.493896484375 299.2744140625 C 306.493896484375 300.5947265625 306.4248962402344 302.00115966796875 306.28692626953125 303.49365234375 C 306.16046142578125 304.9862060546875 305.9534912109375 306.3984375 305.666015625 307.730224609375 C 305.3785705566406 309.06201171875 305.0048828125 310.169921875 304.5449523925781 311.053955078125 C 304.0620422363281 312.1102294921875 303.4583740234375 312.78759765625 302.7340087890625 313.08612060546875 C 302.0211181640625 313.3846435546875 301.21051025390625 313.53387451171875 300.3021545410156 313.53387451171875 C 299.6812744140625 313.53387451171875 299.00860595703125 313.4764404296875 298.28424072265625 313.3616943359375 C 297.57135009765625 313.25830078125 296.97344970703125 313.1492919921875 296.49053955078125 313.034423828125 C 296.43878173828125 312.64984130859375 296.3870544433594 312.26519775390625 296.3353271484375 311.880615234375 C 296.8412170410156 312.02984619140625 297.34136962890625 312.1561279296875 297.8358154296875 312.25946044921875 C 298.3302307128906 312.351318359375 298.7958984375 312.420166015625 299.23284912109375 312.46612548828125 C 299.6812744140625 312.5120849609375 300.07220458984375 312.5350341796875 300.4056396484375 312.5350341796875 C 301.06103515625 312.5350341796875 301.67041015625 312.4259033203125 302.23382568359375 312.207763671875 C 302.7972412109375 311.9896240234375 303.2916564941406 311.4385986328125 303.71710205078125 310.5545654296875 C 304.1080322265625 309.6705322265625 304.43572998046875 308.6142578125 304.7001953125 307.3857421875 C 304.9646301269531 306.14581298828125 305.16009521484375 304.83697509765625 305.2865905761719 303.459228515625 C 305.424560546875 302.08154296875 305.4935302734375 300.74395751953125 305.4935302734375 299.4466552734375 C 305.4935302734375 298.2984619140625 305.32684326171875 297.43170166015625 304.9933776855469 296.84619140625 C 304.67144775390625 296.2606201171875 304.2230224609375 295.8587646484375 303.6481018066406 295.640625 C 303.0732116699219 295.4224853515625 302.4235534667969 295.3134765625 301.69915771484375 295.3134765625 C 301.0782775878906 295.3134765625 300.24468994140625 295.3536376953125 299.1983337402344 295.4339599609375 C 298.16351318359375 295.50286865234375 297.0596923828125 295.5947265625 295.88690185546875 295.70953369140625 C 294.7255859375 295.8128662109375 293.6390075683594 295.91619873046875 292.6271667480469 296.01953125 C 291.6268310546875 296.122802734375 290.8507080078125 296.197509765625 290.2987976074219 296.243408203125 C 290.0113525390625 296.2548828125 289.6434326171875 296.289306640625 289.1949768066406 296.34674072265625 C 288.758056640625 296.4041748046875 288.36712646484375 296.455810546875 288.02215576171875 296.501708984375 C 287.9646911621094 296.0826416015625 287.9071960449219 295.66357421875 287.8497009277344 295.2445068359375"/>
    <path stroke-width="0" fill="rgb(0, 0, 0)" opacity="1.0" d="M 349.90496826171875 309.6934814453125 C 348.9161376953125 310.749755859375 347.904296875 311.524658203125 346.8695068359375 312.01837158203125 C 345.84619140625 312.5006103515625 344.88031005859375 312.74169921875 343.97198486328125 312.74169921875 C 343.02911376953125 312.74169921875 342.2587890625 312.46612548828125 341.66082763671875 311.9150390625 C 341.06292724609375 311.36395263671875 340.76397705078125 310.52581787109375 340.76397705078125 309.40069580078125 C 340.76397705078125 308.44775390625 340.8272705078125 307.397216796875 340.9537353515625 306.2491455078125 C 341.0916748046875 305.08953857421875 341.24114990234375 303.8955078125 341.40216064453125 302.66705322265625 C 341.5745849609375 301.4385986328125 341.72412109375 300.27325439453125 341.8505859375 299.17108154296875 C 341.988525390625 298.057373046875 342.0574951171875 297.070068359375 342.0574951171875 296.208984375 C 342.0574951171875 295.1068115234375 341.787353515625 294.3260498046875 341.2469482421875 293.8668212890625 C 340.70654296875 293.3961181640625 339.953369140625 293.1607666015625 338.987548828125 293.1607666015625 C 338.2056884765625 293.1607666015625 337.3375244140625 293.35595703125 336.3831787109375 293.74627685546875 C 335.44036865234375 294.1251220703125 334.4630126953125 294.65899658203125 333.451171875 295.347900390625 C 332.4393310546875 296.0252685546875 331.43328857421875 296.81744384765625 330.4329528808594 297.7244873046875 C 329.444091796875 298.6314697265625 328.4955139160156 299.6015625 327.587158203125 300.6348876953125 C 327.6331787109375 300.14697265625 327.67913818359375 299.65899658203125 327.72515869140625 299.17108154296875 C 328.1390686035156 298.7117919921875 328.6737365722656 298.1837158203125 329.3291320800781 297.586669921875 C 329.9844970703125 296.9781494140625 330.71466064453125 296.35821533203125 331.51953125 295.72674560546875 C 332.32440185546875 295.0953369140625 333.157958984375 294.5155029296875 334.0203857421875 293.98736572265625 C 334.89422607421875 293.459228515625 335.7623291015625 293.034423828125 336.62469482421875 292.7130126953125 C 337.487060546875 292.3914794921875 338.2918701171875 292.23077392578125 339.039306640625 292.23077392578125 C 339.92462158203125 292.23077392578125 340.666259765625 292.3800048828125 341.26416015625 292.67852783203125 C 341.862060546875 292.97705078125 342.31622314453125 293.4248046875 342.626708984375 294.0218505859375 C 342.9371337890625 294.61883544921875 343.09234619140625 295.347900390625 343.09234619140625 296.208984375 C 343.09234619140625 297.00115966796875 343.01763916015625 297.965576171875 342.8681640625 299.1021728515625 C 342.73016357421875 300.23876953125 342.5692138671875 301.4271240234375 342.38525390625 302.66705322265625 C 342.2127685546875 303.906982421875 342.0517578125 305.10107421875 341.90234375 306.2491455078125 C 341.76434326171875 307.397216796875 341.6953125 308.37890625 341.6953125 309.19403076171875 C 341.6953125 309.8829345703125 341.8677978515625 310.48565673828125 342.2127685546875 311.0023193359375 C 342.55767822265625 311.5189208984375 343.1153564453125 311.77728271484375 343.8857421875 311.77728271484375 C 344.8515625 311.77728271484375 345.805908203125 311.51318359375 346.748779296875 310.985107421875 C 347.703125 310.4569091796875 348.657470703125 309.6820068359375 349.61181640625 308.66015625 C 349.70953369140625 309.00457763671875 349.8072509765625 309.3489990234375 349.90496826171875 309.6934814453125M 328.27703857421875 293.815185546875 C 328.1275634765625 293.838134765625 327.7826232910156 293.8897705078125 327.2422180175781 293.97015380859375 C 326.7018127441406 294.050537109375 326.06365966796875 294.142333984375 325.3277893066406 294.2457275390625 C 324.6033935546875 294.3375244140625 323.85028076171875 294.44085693359375 323.06842041015625 294.5556640625 C 322.28656005859375 294.65899658203125 321.5506591796875 294.76806640625 320.86077880859375 294.8829345703125 C 320.8205261230469 294.48681640625 320.7802734375 294.0906982421875 320.74005126953125 293.694580078125 C 321.0044860839844 293.717529296875 321.2574462890625 293.7232666015625 321.4989013671875 293.7117919921875 C 321.7403564453125 293.7003173828125 321.9703369140625 293.68310546875 322.18878173828125 293.66015625 C 322.5682373046875 293.63720703125 323.06268310546875 293.59130859375 323.67205810546875 293.52239990234375 C 324.29296875 293.4534912109375 324.9541015625 293.3846435546875 325.6554870605469 293.31573486328125 C 326.36834716796875 293.2353515625 327.0467529296875 293.1435546875 327.6906433105469 293.0401611328125 C 328.33453369140625 292.9254150390625 328.8519287109375 292.799072265625 329.2428894042969 292.66131591796875 C 329.444091796875 292.8507080078125 329.64532470703125 293.0401611328125 329.8465576171875 293.2296142578125 C 329.63958740234375 293.53961181640625 329.4268798828125 293.8782958984375 329.2084045410156 294.2457275390625 C 328.98992919921875 294.6015625 328.771484375 294.968994140625 328.5530090332031 295.347900390625 C 328.33453369140625 295.71527099609375 328.1333312988281 296.0654296875 327.9493408203125 296.39837646484375 C 327.91485595703125 297.3341064453125 327.88037109375 298.269775390625 327.84588623046875 299.20550537109375 C 327.4549255371094 299.87139892578125 326.9720153808594 300.629150390625 326.3970947265625 301.478759765625 C 325.82220458984375 302.328369140625 325.2070617675781 303.223876953125 324.5516662597656 304.165283203125 C 323.90777587890625 305.0953369140625 323.24664306640625 306.0367431640625 322.5682373046875 306.9896240234375 C 321.9013366699219 307.93115234375 321.26898193359375 308.8209228515625 320.6710510253906 309.6590576171875 C 320.4180908203125 309.3604736328125 320.1651611328125 309.06201171875 319.91217041015625 308.76348876953125 C 320.3031005859375 308.25830078125 320.79754638671875 307.609619140625 321.39544677734375 306.81744384765625 C 321.99334716796875 306.0252685546875 322.6199951171875 305.169921875 323.275390625 304.25146484375 C 323.9422607421875 303.33294677734375 324.5919189453125 302.43170166015625 325.22430419921875 301.547607421875 C 325.856689453125 300.652099609375 326.40283203125 299.85418701171875 326.86279296875 299.15380859375 C 327.32269287109375 298.4420166015625 327.6446533203125 297.90814208984375 327.82861328125 297.55224609375 C 327.8918762207031 296.7083740234375 327.955078125 295.864501953125 328.0183410644531 295.0206298828125 C 328.1045837402344 294.61883544921875 328.1907958984375 294.21697998046875 328.27703857421875 293.815185546875M 328.0528564453125 289.25146484375 C 328.0528564453125 288.96441650390625 328.0470886230469 288.648681640625 328.03558349609375 288.30426025390625 C 328.02410888671875 287.9483642578125 327.995361328125 287.6153564453125 327.9493408203125 287.305419921875 C 328.4150390625 287.328369140625 328.8807067871094 287.351318359375 329.34637451171875 287.374267578125 C 329.27740478515625 287.707275390625 329.1854248046875 288.34442138671875 329.0704345703125 289.285888671875 C 328.9669189453125 290.2158203125 328.85772705078125 291.335205078125 328.74273681640625 292.64404296875 C 328.63922119140625 293.95294189453125 328.5357666015625 295.3421630859375 328.4322814941406 296.81170654296875 C 328.32879638671875 298.28125 328.2425537109375 299.7279052734375 328.173583984375 301.15155029296875 C 328.1160888671875 302.5751953125 328.08734130859375 303.8553466796875 328.08734130859375 304.991943359375 C 328.08734130859375 306.0941162109375 328.08734130859375 307.02410888671875 328.08734130859375 307.7818603515625 C 328.08734130859375 308.52813720703125 328.09307861328125 309.2457275390625 328.1045837402344 309.9345703125 C 328.1160888671875 310.6119384765625 328.1333312988281 311.4271240234375 328.15631103515625 312.3800048828125 C 328.1793212890625 312.65557861328125 328.1965637207031 312.90814208984375 328.20806884765625 313.1378173828125 C 328.21954345703125 313.37890625 328.2310485839844 313.6199951171875 328.2425537109375 313.861083984375 C 327.84588623046875 313.861083984375 327.4491882324219 313.861083984375 327.052490234375 313.861083984375 C 327.0985107421875 313.6199951171875 327.1272277832031 313.37890625 327.13873291015625 313.1378173828125 C 327.1502380371094 312.90814208984375 327.156005859375 312.66131591796875 327.156005859375 312.397216796875 C 327.156005859375 311.3409423828125 327.156005859375 310.4569091796875 327.156005859375 309.7451171875 C 327.156005859375 309.0218505859375 327.156005859375 308.30999755859375 327.156005859375 307.609619140625 C 327.156005859375 306.9093017578125 327.156005859375 306.0367431640625 327.156005859375 304.991943359375 C 327.156005859375 304.509765625 327.178955078125 303.8209228515625 327.2249755859375 302.9254150390625 C 327.2709655761719 302.01837158203125 327.32269287109375 301.008056640625 327.38018798828125 299.8944091796875 C 327.4491882324219 298.78070068359375 327.52392578125 297.64404296875 327.60443115234375 296.4844970703125 C 327.6849060058594 295.324951171875 327.75390625 294.2342529296875 327.8113708496094 293.21240234375 C 327.88037109375 292.1905517578125 327.9378662109375 291.3294677734375 327.9838562011719 290.629150390625 C 328.02984619140625 289.9173583984375 328.0528564453125 289.4581298828125 328.0528564453125 289.25146484375"/>
    <path stroke-width="0" fill="rgb(0, 0, 0)" opacity="1.0" d="M 359.14947509765625 290.6119384765625 C 360.322265625 290.772705078125 361.633056640625 290.887451171875 363.081787109375 290.95635986328125 C 364.5421142578125 291.0137939453125 366.0540771484375 291.04248046875 367.6177978515625 291.04248046875 C 368.6641845703125 291.04248046875 369.67596435546875 291.01953125 370.6533203125 290.9736328125 C 371.63067626953125 290.92767333984375 372.56201171875 290.8702392578125 373.4473876953125 290.8013916015625 C 374.33270263671875 290.72100830078125 375.1490478515625 290.6463623046875 375.896484375 290.5775146484375 C 375.896484375 290.92193603515625 375.896484375 291.266357421875 375.896484375 291.61077880859375 C 375.172119140625 291.65673828125 374.355712890625 291.714111328125 373.4473876953125 291.78302001953125 C 372.550537109375 291.8404541015625 371.6019287109375 291.89208984375 370.6015625 291.93798828125 C 369.61273193359375 291.98388671875 368.6181640625 292.00689697265625 367.6177978515625 292.00689697265625 C 366.03106689453125 292.00689697265625 364.53631591796875 291.972412109375 363.133544921875 291.903564453125 C 361.7308349609375 291.834716796875 360.40277099609375 291.74853515625 359.14947509765625 291.645263671875 C 359.14947509765625 291.30078125 359.14947509765625 290.95635986328125 359.14947509765625 290.6119384765625M 359.011474609375 303.2869873046875 C 358.7470703125 303.98736572265625 358.54583740234375 304.687744140625 358.4078369140625 305.3880615234375 C 358.2813720703125 306.076904296875 358.2181396484375 306.7542724609375 358.2181396484375 307.420166015625 C 358.2181396484375 308.8897705078125 358.97698974609375 310.07232666015625 360.4947509765625 310.9678955078125 C 362.02398681640625 311.8634033203125 364.24310302734375 312.3111572265625 367.15216064453125 312.3111572265625 C 368.7274169921875 312.3111572265625 370.22216796875 312.25372314453125 371.63641357421875 312.138916015625 C 373.0506591796875 312.02410888671875 374.32122802734375 311.8748779296875 375.447998046875 311.691162109375 C 376.5863037109375 311.5074462890625 377.50048828125 311.2835693359375 378.1903076171875 311.01953125 C 378.20184326171875 311.35821533203125 378.21331787109375 311.6968994140625 378.224853515625 312.03558349609375 C 377.60394287109375 312.24224853515625 376.7301025390625 312.43743896484375 375.603271484375 312.62109375 C 374.4764404296875 312.8048095703125 373.18292236328125 312.9483642578125 371.72265625 313.0516357421875 C 370.27386474609375 313.16650390625 368.7503662109375 313.223876953125 367.15216064453125 313.223876953125 C 365.197509765625 313.223876953125 363.478515625 313.0172119140625 361.9952392578125 312.6038818359375 C 360.511962890625 312.1790771484375 359.3564453125 311.5533447265625 358.528564453125 310.72674560546875 C 357.70068359375 309.888671875 357.2867431640625 308.838134765625 357.2867431640625 307.5751953125 C 357.2867431640625 306.80596923828125 357.35577392578125 306.053955078125 357.4937744140625 305.3192138671875 C 357.6431884765625 304.5728759765625 357.8099365234375 303.849609375 357.993896484375 303.1492919921875 C 358.3331298828125 303.1951904296875 358.67230224609375 303.2410888671875 359.011474609375 303.2869873046875"/>
    <path stroke-width="0" fill="rgb(0, 0, 0)" opacity="1.0" d="M 406.19970703125 291.14581298828125 C 406.19970703125 291.9150390625 406.19970703125 292.753173828125 406.19970703125 293.66015625 C 406.19970703125 294.567138671875 406.19970703125 295.4569091796875 406.19970703125 296.3294677734375 C 406.19970703125 297.1905517578125 406.19970703125 297.965576171875 406.19970703125 298.6544189453125 C 406.19970703125 299.5728759765625 406.22271728515625 300.5775146484375 406.2686767578125 301.668212890625 C 406.314697265625 302.7589111328125 406.3607177734375 303.849609375 406.40667724609375 304.9403076171875 C 406.4642333984375 306.01953125 406.51593017578125 307.01263427734375 406.5618896484375 307.919677734375 C 406.60791015625 308.815185546875 406.630859375 309.5499267578125 406.630859375 310.1240234375 C 406.630859375 311.3409423828125 406.1939697265625 312.25372314453125 405.32012939453125 312.8621826171875 C 404.4462890625 313.459228515625 403.3079833984375 313.75775146484375 401.9051513671875 313.75775146484375 C 400.75537109375 313.75775146484375 399.7435302734375 313.602783203125 398.86968994140625 313.292724609375 C 397.995849609375 312.9827880859375 397.31744384765625 312.5350341796875 396.83447265625 311.949462890625 C 396.3515625 311.35247802734375 396.110107421875 310.6119384765625 396.110107421875 309.7279052734375 C 396.110107421875 309.130859375 396.2940673828125 308.53387451171875 396.66204833984375 307.9368896484375 C 397.04150390625 307.33984375 397.662353515625 306.84619140625 398.5247802734375 306.455810546875 C 399.3870849609375 306.053955078125 400.5311279296875 305.85302734375 401.9569091796875 305.85302734375 C 403.24468994140625 305.85302734375 404.4462890625 305.985107421875 405.56158447265625 306.2491455078125 C 406.6768798828125 306.51318359375 407.711669921875 306.8748779296875 408.66607666015625 307.3341064453125 C 409.63189697265625 307.7818603515625 410.540283203125 308.30999755859375 411.39111328125 308.91845703125 C 412.24200439453125 309.5269775390625 413.04107666015625 310.158447265625 413.7884521484375 310.8128662109375 C 413.57574462890625 311.15728759765625 413.363037109375 311.501708984375 413.15032958984375 311.84619140625 C 412.115478515625 310.7669677734375 410.99444580078125 309.84844970703125 409.787109375 309.0906982421875 C 408.59130859375 308.32147216796875 407.332275390625 307.74169921875 406.010009765625 307.351318359375 C 404.69921875 306.949462890625 403.34814453125 306.74853515625 401.9569091796875 306.74853515625 C 400.5311279296875 306.74853515625 399.35260009765625 307.02410888671875 398.4212646484375 307.5751953125 C 397.4898681640625 308.12628173828125 397.02423095703125 308.8438720703125 397.02423095703125 309.7279052734375 C 397.02423095703125 310.76123046875 397.47265625 311.5361328125 398.3695068359375 312.0528564453125 C 399.266357421875 312.5694580078125 400.462158203125 312.8277587890625 401.9569091796875 312.8277587890625 C 403.0377197265625 312.8277587890625 403.8426513671875 312.66705322265625 404.37152099609375 312.3455810546875 C 404.9119873046875 312.01263427734375 405.274169921875 311.57061767578125 405.4581298828125 311.01953125 C 405.64208984375 310.4683837890625 405.7340087890625 309.87139892578125 405.7340087890625 309.228515625 C 405.7340087890625 308.792236328125 405.7110595703125 308.16650390625 405.6650390625 307.351318359375 C 405.63055419921875 306.5361328125 405.578857421875 305.629150390625 405.50982666015625 304.63031005859375 C 405.44085693359375 303.6199951171875 405.38330078125 302.6038818359375 405.33740234375 301.58209228515625 C 405.2913818359375 300.548828125 405.26837158203125 299.6015625 405.26837158203125 298.74053955078125 C 405.26837158203125 298.0631103515625 405.26837158203125 297.27099609375 405.26837158203125 296.36395263671875 C 405.26837158203125 295.4454345703125 405.26837158203125 294.5155029296875 405.26837158203125 293.5740966796875 C 405.26837158203125 292.632568359375 405.26837158203125 291.82318115234375 405.26837158203125 291.14581298828125 C 405.578857421875 291.14581298828125 405.8892822265625 291.14581298828125 406.19970703125 291.14581298828125M 396.800048828125 298.189453125 C 398.69720458984375 298.31573486328125 400.61163330078125 298.3731689453125 402.5433349609375 298.3616943359375 C 404.4749755859375 298.33868408203125 406.3319091796875 298.25830078125 408.1141357421875 298.12054443359375 C 409.9078369140625 297.9827880859375 411.5118408203125 297.8392333984375 412.9261474609375 297.69000244140625 C 412.9261474609375 298.034423828125 412.9261474609375 298.37890625 412.9261474609375 298.7232666015625 C 411.557861328125 298.849609375 409.96533203125 298.97589111328125 408.148681640625 299.1021728515625 C 406.343505859375 299.21697998046875 404.4635009765625 299.2916259765625 402.5087890625 299.3260498046875 C 400.55419921875 299.3604736328125 398.6512451171875 299.3203125 396.800048828125 299.20550537109375 C 396.800048828125 298.8668212890625 396.800048828125 298.52813720703125 396.800048828125 298.189453125M 397.334716796875 290.5775146484375 C 398.87542724609375 290.69232177734375 400.4793701171875 290.74395751953125 402.1466064453125 290.73248291015625 C 403.8138427734375 290.72100830078125 405.4293212890625 290.66357421875 406.99310302734375 290.560302734375 C 408.568359375 290.4454345703125 409.9595947265625 290.30767822265625 411.1668701171875 290.14697265625 C 411.1668701171875 290.47991943359375 411.1668701171875 290.8128662109375 411.1668701171875 291.14581298828125 C 409.9710693359375 291.2491455078125 408.59130859375 291.35247802734375 407.027587890625 291.455810546875 C 405.4638671875 291.55908203125 403.8426513671875 291.622314453125 402.16387939453125 291.645263671875 C 400.48516845703125 291.668212890625 398.87542724609375 291.645263671875 397.334716796875 291.57635498046875 C 397.334716796875 291.243408203125 397.334716796875 290.91046142578125 397.334716796875 290.5775146484375M 390.4703369140625 288.8897705078125 C 390.42431640625 289.027587890625 390.3782958984375 289.17681884765625 390.33233642578125 289.3375244140625 C 390.2978515625 289.48681640625 390.2633056640625 289.64752197265625 390.2288818359375 289.8197021484375 C 390.1943359375 289.98046875 390.15411376953125 290.158447265625 390.108154296875 290.3536376953125 C 389.9586181640625 291.14581298828125 389.79766845703125 291.9896240234375 389.625244140625 292.88519287109375 C 389.4642333984375 293.76922607421875 389.30902099609375 294.687744140625 389.1595458984375 295.640625 C 389.02154541015625 296.59356689453125 388.89508056640625 297.5465087890625 388.78009033203125 298.4993896484375 C 388.6766357421875 299.44085693359375 388.59033203125 300.370849609375 388.5213623046875 301.289306640625 C 388.452392578125 302.1962890625 388.41790771484375 303.057373046875 388.41790771484375 303.87255859375 C 388.41790771484375 305.14697265625 388.4581298828125 306.32373046875 388.53863525390625 307.4029541015625 C 388.630615234375 308.470703125 388.757080078125 309.65325927734375 388.9180908203125 310.95062255859375 C 389.113525390625 310.3306884765625 389.3492431640625 309.62457275390625 389.625244140625 308.8323974609375 C 389.901123046875 308.0401611328125 390.182861328125 307.26519775390625 390.4703369140625 306.5074462890625 C 390.7578125 305.73822021484375 391.0107421875 305.08953857421875 391.22918701171875 304.5614013671875 C 391.453369140625 304.7508544921875 391.6776123046875 304.9403076171875 391.90185546875 305.1297607421875 C 391.660400390625 305.72674560546875 391.378662109375 306.4615478515625 391.05670166015625 307.3341064453125 C 390.7347412109375 308.2066650390625 390.435791015625 309.0562744140625 390.15985107421875 309.8829345703125 C 389.8839111328125 310.70953369140625 389.6884765625 311.36395263671875 389.573486328125 311.84619140625 C 389.5274658203125 312.0643310546875 389.4871826171875 312.2996826171875 389.4527587890625 312.55224609375 C 389.42974853515625 312.8048095703125 389.42974853515625 313.0401611328125 389.4527587890625 313.25830078125 C 389.4757080078125 313.4190673828125 389.49298095703125 313.5855712890625 389.5045166015625 313.75775146484375 C 389.5274658203125 313.94140625 389.55047607421875 314.0849609375 389.573486328125 314.18829345703125 C 389.268798828125 314.22271728515625 388.964111328125 314.2572021484375 388.65936279296875 314.2916259765625 C 388.325927734375 313.0516357421875 388.0384521484375 311.57061767578125 387.7969970703125 309.84844970703125 C 387.5670166015625 308.11480712890625 387.4520263671875 306.13433837890625 387.4520263671875 303.906982421875 C 387.4520263671875 302.7130126953125 387.5152587890625 301.4730224609375 387.64178466796875 300.1871337890625 C 387.77978515625 298.9012451171875 387.94073486328125 297.6383056640625 388.12469482421875 296.39837646484375 C 388.3201904296875 295.14697265625 388.504150390625 293.98736572265625 388.6766357421875 292.91961669921875 C 388.860595703125 291.8404541015625 389.0042724609375 290.93914794921875 389.1077880859375 290.2158203125 C 389.15380859375 289.9058837890625 389.18829345703125 289.63031005859375 389.2113037109375 289.38922119140625 C 389.2342529296875 289.1480712890625 389.2457275390625 288.94140625 389.2457275390625 288.76922607421875 C 389.6539306640625 288.8094482421875 390.0621337890625 288.849609375 390.4703369140625 288.8897705078125M 410.70123291015625 287.8048095703125 C 410.908203125 288.1837158203125 411.149658203125 288.6544189453125 411.42559814453125 289.21697998046875 C 411.7015380859375 289.779541015625 411.9718017578125 290.3536376953125 412.2362060546875 290.93914794921875 C 412.500732421875 291.51318359375 412.7191162109375 292.03558349609375 412.8916015625 292.50634765625 C 412.54669189453125 292.6383056640625 412.20172119140625 292.7703857421875 411.8568115234375 292.90240478515625 C 411.70733642578125 292.40869140625 411.506103515625 291.8748779296875 411.253173828125 291.30078125 C 411.00018310546875 290.71527099609375 410.7471923828125 290.135498046875 410.4942626953125 289.5614013671875 C 410.2413330078125 288.98736572265625 410.005615234375 288.4993896484375 409.787109375 288.09759521484375 C 410.091796875 288.0 410.39654541015625 287.90240478515625 410.70123291015625 287.8048095703125M 413.9437255859375 286.771484375 C 414.1737060546875 287.150390625 414.4208984375 287.62109375 414.685302734375 288.1837158203125 C 414.9498291015625 288.74627685546875 415.2142333984375 289.3203125 415.47869873046875 289.9058837890625 C 415.7431640625 290.49139404296875 415.96160888671875 291.0137939453125 416.13409423828125 291.4730224609375 C 415.794921875 291.60504150390625 415.4556884765625 291.737060546875 415.11651611328125 291.869140625 C 414.8291015625 291.122802734375 414.4898681640625 290.29046630859375 414.09893798828125 289.3719482421875 C 413.7080078125 288.4534912109375 413.340087890625 287.7130126953125 412.9951171875 287.150390625 C 413.311279296875 287.02410888671875 413.62750244140625 286.8978271484375 413.9437255859375 286.771484375"/>
    <path stroke-width="0" fill="rgb(0, 0, 0)" opacity="1.0" d="M 440.8148193359375 287.97705078125 C 441.1021728515625 288.34442138671875 441.406982421875 288.792236328125 441.7288818359375 289.3203125 C 442.06231689453125 289.84844970703125 442.395751953125 290.3880615234375 442.729248046875 290.93914794921875 C 443.0626220703125 291.490234375 443.35009765625 292.01263427734375 443.591552734375 292.50634765625 C 443.2811279296875 292.65557861328125 442.970703125 292.8048095703125 442.66021728515625 292.9541015625 C 442.3497314453125 292.2996826171875 441.92431640625 291.5303955078125 441.3839111328125 290.6463623046875 C 440.843505859375 289.7623291015625 440.3548583984375 289.01611328125 439.91790771484375 288.4075927734375 C 440.2169189453125 288.2640380859375 440.51580810546875 288.12054443359375 440.8148193359375 287.97705078125M 444.1434326171875 286.80596923828125 C 444.45391845703125 287.207763671875 444.787353515625 287.67852783203125 445.143798828125 288.2181396484375 C 445.500244140625 288.75775146484375 445.84521484375 289.29736328125 446.17864990234375 289.83697509765625 C 446.5235595703125 290.3765869140625 446.81103515625 290.864501953125 447.041015625 291.30078125 C 446.7305908203125 291.455810546875 446.42010498046875 291.61077880859375 446.109619140625 291.7657470703125 C 445.730224609375 291.01953125 445.28753662109375 290.2330322265625 444.7816162109375 289.40643310546875 C 444.27569580078125 288.579833984375 443.78125 287.8564453125 443.29833984375 287.23651123046875 C 443.580078125 287.093017578125 443.86175537109375 286.949462890625 444.1434326171875 286.80596923828125M 425.3785400390625 288.73480224609375 C 425.3555908203125 289.0218505859375 425.3267822265625 289.3031005859375 425.2923583984375 289.57861328125 C 425.2578125 289.85418701171875 425.2406005859375 290.2100830078125 425.2406005859375 290.6463623046875 C 425.2406005859375 290.887451171875 425.2406005859375 291.4500732421875 425.2406005859375 292.3341064453125 C 425.2406005859375 293.2181396484375 425.2406005859375 294.285888671875 425.2406005859375 295.537353515625 C 425.2406005859375 296.77728271484375 425.2406005859375 298.09185791015625 425.2406005859375 299.4810791015625 C 425.2406005859375 300.8702392578125 425.2406005859375 302.207763671875 425.2406005859375 303.49365234375 C 425.2406005859375 304.779541015625 425.2406005859375 305.9046630859375 425.2406005859375 306.869140625 C 425.2406005859375 307.822021484375 425.2406005859375 308.4993896484375 425.2406005859375 308.9012451171875 C 425.2406005859375 309.86566162109375 425.43603515625 310.5316162109375 425.8270263671875 310.89892578125 C 426.22943115234375 311.266357421875 426.86181640625 311.5361328125 427.72418212890625 311.7083740234375 C 428.276123046875 311.80023193359375 429.011962890625 311.880615234375 429.93182373046875 311.949462890625 C 430.8631591796875 312.00689697265625 431.771484375 312.03558349609375 432.6568603515625 312.03558349609375 C 433.542236328125 312.03558349609375 434.485107421875 312.02410888671875 435.48541259765625 312.00115966796875 C 436.4971923828125 311.9666748046875 437.5032958984375 311.9093017578125 438.503662109375 311.82891845703125 C 439.5040283203125 311.74853515625 440.464111328125 311.645263671875 441.3839111328125 311.5189208984375 C 442.3038330078125 311.38116455078125 443.1029052734375 311.2261962890625 443.78125 311.053955078125 C 443.78125 311.4615478515625 443.78125 311.869140625 443.78125 312.2767333984375 C 442.9189453125 312.4029541015625 441.8438720703125 312.517822265625 440.5560302734375 312.62109375 C 439.268310546875 312.7244873046875 437.9287109375 312.810546875 436.5374755859375 312.87945556640625 C 435.146240234375 312.9368896484375 433.8526611328125 312.965576171875 432.6568603515625 312.965576171875 C 431.771484375 312.965576171875 430.8746337890625 312.9483642578125 429.96630859375 312.91387939453125 C 429.0694580078125 312.87945556640625 428.28759765625 312.810546875 427.6207275390625 312.707275390625 C 426.516845703125 312.5006103515625 425.677490234375 312.150390625 425.10260009765625 311.65673828125 C 424.5391845703125 311.16302490234375 424.25750732421875 310.29046630859375 424.25750732421875 309.0390625 C 424.25750732421875 308.59130859375 424.25750732421875 307.87945556640625 424.25750732421875 306.903564453125 C 424.25750732421875 305.91619873046875 424.25750732421875 304.76806640625 424.25750732421875 303.459228515625 C 424.25750732421875 302.150390625 424.25750732421875 300.80712890625 424.25750732421875 299.42938232421875 C 424.25750732421875 298.0516357421875 424.25750732421875 296.7427978515625 424.25750732421875 295.50286865234375 C 424.25750732421875 294.25146484375 424.25750732421875 293.189453125 424.25750732421875 292.31689453125 C 424.25750732421875 291.4443359375 424.25750732421875 290.887451171875 424.25750732421875 290.6463623046875 C 424.25750732421875 290.359375 424.251708984375 290.112548828125 424.240234375 289.9058837890625 C 424.228759765625 289.69921875 424.2115478515625 289.498291015625 424.1884765625 289.3031005859375 C 424.16552734375 289.096435546875 424.1309814453125 288.906982421875 424.08502197265625 288.73480224609375 C 424.5162353515625 288.73480224609375 424.9473876953125 288.73480224609375 425.3785400390625 288.73480224609375M 424.74041748046875 299.4466552734375 C 425.6717529296875 299.25146484375 426.7353515625 298.99310302734375 427.93115234375 298.671630859375 C 429.138427734375 298.35015869140625 430.3917236328125 298.0 431.6910400390625 297.62109375 C 433.0018310546875 297.23077392578125 434.28387451171875 296.81170654296875 435.537109375 296.36395263671875 C 436.80194091796875 295.9046630859375 437.9517822265625 295.4454345703125 438.986572265625 294.9862060546875 C 439.4005126953125 294.779541015625 439.802978515625 294.5728759765625 440.19384765625 294.3662109375 C 440.5848388671875 294.1595458984375 440.92401123046875 293.95867919921875 441.21142578125 293.76348876953125 C 441.3953857421875 294.1365966796875 441.57940673828125 294.509765625 441.76336669921875 294.8829345703125 C 441.452880859375 295.0091552734375 441.0792236328125 295.169921875 440.642333984375 295.3651123046875 C 440.2169189453125 295.548828125 439.78570556640625 295.72674560546875 439.3487548828125 295.89892578125 C 438.2679443359375 296.36968994140625 437.0721435546875 296.82891845703125 435.7613525390625 297.2767333984375 C 434.4620361328125 297.7244873046875 433.1397705078125 298.1607666015625 431.7945556640625 298.5855712890625 C 430.44921875 298.99884033203125 429.16717529296875 299.377685546875 427.9483642578125 299.72216796875 C 426.7410888671875 300.06658935546875 425.6717529296875 300.359375 424.74041748046875 300.6004638671875 C 424.74041748046875 300.2158203125 424.74041748046875 299.83123779296875 424.74041748046875 299.4466552734375"/>
    <path stroke-width="0" fill="rgb(0, 0, 0)" opacity="1.0" d="M 453.819091796875 287.7703857421875 C 456.975341796875 287.7703857421875 460.131591796875 287.7703857421875 463.287841796875 287.7703857421875 C 463.287841796875 294.165283203125 463.287841796875 300.560302734375 463.287841796875 306.9552001953125 C 460.131591796875 306.9552001953125 456.975341796875 306.9552001953125 453.819091796875 306.9552001953125 C 453.819091796875 306.622314453125 453.819091796875 306.289306640625 453.819091796875 305.95635986328125 C 456.6591796875 305.95635986328125 459.49920654296875 305.95635986328125 462.3392333984375 305.95635986328125 C 462.3392333984375 300.227294921875 462.3392333984375 294.498291015625 462.3392333984375 288.76922607421875 C 459.49920654296875 288.76922607421875 456.6591796875 288.76922607421875 453.819091796875 288.76922607421875 C 453.819091796875 288.436279296875 453.819091796875 288.10333251953125 453.819091796875 287.7703857421875M 453.819091796875 296.6739501953125 C 456.8431396484375 296.6739501953125 459.86712646484375 296.6739501953125 462.89111328125 296.6739501953125 C 462.89111328125 296.9896240234375 462.89111328125 297.305419921875 462.89111328125 297.62109375 C 459.86712646484375 297.62109375 456.8431396484375 297.62109375 453.819091796875 297.62109375 C 453.819091796875 297.305419921875 453.819091796875 296.9896240234375 453.819091796875 296.6739501953125M 467.6685791015625 287.04705810546875 C 471.7159423828125 287.04705810546875 475.7633056640625 287.04705810546875 479.81060791015625 287.04705810546875 C 479.81060791015625 287.36279296875 479.81060791015625 287.67852783203125 479.81060791015625 287.9942626953125 C 475.7633056640625 287.9942626953125 471.7159423828125 287.9942626953125 467.6685791015625 287.9942626953125 C 467.6685791015625 287.67852783203125 467.6685791015625 287.36279296875 467.6685791015625 287.04705810546875M 467.6685791015625 295.2100830078125 C 471.7159423828125 295.2100830078125 475.7633056640625 295.2100830078125 479.81060791015625 295.2100830078125 C 479.81060791015625 295.5316162109375 479.81060791015625 295.85302734375 479.81060791015625 296.17449951171875 C 475.7633056640625 296.17449951171875 471.7159423828125 296.17449951171875 467.6685791015625 296.17449951171875 C 467.6685791015625 295.85302734375 467.6685791015625 295.5316162109375 467.6685791015625 295.2100830078125M 467.306396484375 303.6142578125 C 471.44573974609375 303.6142578125 475.5850830078125 303.6142578125 479.724365234375 303.6142578125 C 479.724365234375 303.929931640625 479.724365234375 304.2457275390625 479.724365234375 304.5614013671875 C 475.5850830078125 304.5614013671875 471.44573974609375 304.5614013671875 467.306396484375 304.5614013671875 C 467.306396484375 304.2457275390625 467.306396484375 303.929931640625 467.306396484375 303.6142578125M 453.1982421875 287.7703857421875 C 453.52593994140625 287.7703857421875 453.8536376953125 287.7703857421875 454.18133544921875 287.7703857421875 C 454.18133544921875 295.26751708984375 454.18133544921875 302.7646484375 454.18133544921875 310.26177978515625 C 453.8536376953125 310.26177978515625 453.52593994140625 310.26177978515625 453.1982421875 310.26177978515625 C 453.1982421875 302.7646484375 453.1982421875 295.26751708984375 453.1982421875 287.7703857421875M 479.44842529296875 287.04705810546875 C 479.7818603515625 287.04705810546875 480.11529541015625 287.04705810546875 480.44873046875 287.04705810546875 C 480.44873046875 295.80712890625 480.44873046875 304.567138671875 480.44873046875 313.32720947265625 C 480.44873046875 313.8553466796875 480.35675048828125 314.2457275390625 480.17279052734375 314.498291015625 C 480.0003662109375 314.7508544921875 479.7071533203125 314.9345703125 479.293212890625 315.04937744140625 C 478.8677978515625 315.1412353515625 478.21240234375 315.19287109375 477.3270263671875 315.204345703125 C 476.453125 315.2158203125 475.2861328125 315.2215576171875 473.8258056640625 315.2215576171875 C 473.8028564453125 315.1297607421875 473.768310546875 315.0206298828125 473.72235107421875 314.8944091796875 C 473.6763916015625 314.779541015625 473.6246337890625 314.6590576171875 473.567138671875 314.53271484375 C 473.5211181640625 314.41790771484375 473.463623046875 314.3031005859375 473.3946533203125 314.18829345703125 C 474.2340087890625 314.21124267578125 475.0101318359375 314.22271728515625 475.7230224609375 314.22271728515625 C 476.4473876953125 314.22271728515625 477.06256103515625 314.21697998046875 477.5684814453125 314.20550537109375 C 478.07440185546875 314.19403076171875 478.425048828125 314.18829345703125 478.62054443359375 314.18829345703125 C 478.9310302734375 314.165283203125 479.14373779296875 314.0906982421875 479.2586669921875 313.96441650390625 C 479.38519287109375 313.849609375 479.44842529296875 313.648681640625 479.44842529296875 313.3616943359375 C 479.44842529296875 304.590087890625 479.44842529296875 295.818603515625 479.44842529296875 287.04705810546875M 467.1339111328125 287.04705810546875 C 467.45587158203125 287.04705810546875 467.77783203125 287.04705810546875 468.09979248046875 287.04705810546875 C 468.09979248046875 290.91619873046875 468.09979248046875 294.7852783203125 468.09979248046875 298.6544189453125 C 468.09979248046875 299.9976806640625 468.0250244140625 301.4156494140625 467.8756103515625 302.90814208984375 C 467.737548828125 304.38922119140625 467.44439697265625 305.8759765625 466.9959716796875 307.3685302734375 C 466.55902099609375 308.849609375 465.90362548828125 310.28472900390625 465.02978515625 311.6739501953125 C 464.15594482421875 313.0631103515625 462.9888916015625 314.34326171875 461.52862548828125 315.51434326171875 C 461.494140625 315.4224853515625 461.4366455078125 315.3306884765625 461.35614013671875 315.23876953125 C 461.275634765625 315.158447265625 461.189453125 315.07232666015625 461.097412109375 314.98046875 C 461.0169677734375 314.900146484375 460.94219970703125 314.83697509765625 460.87322998046875 314.791015625 C 462.2874755859375 313.6658935546875 463.4085693359375 312.44317626953125 464.2364501953125 311.122802734375 C 465.06427001953125 309.791015625 465.6851806640625 308.4190673828125 466.09912109375 307.00689697265625 C 466.5245361328125 305.583251953125 466.80047607421875 304.165283203125 466.927001953125 302.753173828125 C 467.06494140625 301.3409423828125 467.1339111328125 299.9747314453125 467.1339111328125 298.6544189453125 C 467.1339111328125 294.7852783203125 467.1339111328125 290.91619873046875 467.1339111328125 287.04705810546875"/>
  </g>
</svg>
