<?xml version="1.0" ?>
<svg xmlns="http://www.w3.org/2000/svg" version="1.1" width="600" height="600">
  <defs/>
  <g>
    <path stroke-width="0" fill="rgb(0, 0, 0)" opacity="1.0" d="M 216.07525634765625 349.76580810546875 C 220.16128540039062 349.76580810546875 224.247314453125 349.76580810546875 228.33331298828125 349.76580810546875 C 228.33331298828125 381.7677001953125 228.33331298828125 413.76953125 228.33331298828125 445.771484375 C 228.33331298828125 451.35565185546875 230.1971435546875 455.00689697265625 233.92474365234375 456.72509765625 C 237.65234375 458.5865478515625 246.11111450195312 459.5172119140625 259.30108642578125 459.5172119140625 C 262.31182861328125 459.5172119140625 268.26165771484375 459.5172119140625 277.1505432128906 459.5172119140625 C 286.18280029296875 459.5172119140625 296.14697265625 459.5172119140625 307.04302978515625 459.5172119140625 C 317.9390869140625 459.5172119140625 328.18994140625 459.5172119140625 337.79571533203125 459.5172119140625 C 347.40142822265625 459.5172119140625 354.28314208984375 459.5172119140625 358.44085693359375 459.5172119140625 C 366.18280029296875 459.5172119140625 371.9176025390625 458.0853271484375 375.6451416015625 455.2216796875 C 379.51611328125 452.50115966796875 382.31182861328125 446.91693115234375 384.0322265625 438.468994140625 C 385.752685546875 429.8779296875 386.8280029296875 416.919677734375 387.258056640625 399.59423828125 C 388.6917724609375 400.453369140625 390.05377197265625 401.3125 391.3441162109375 402.17156982421875 C 392.77777099609375 402.88751220703125 394.1397705078125 403.5318603515625 395.43011474609375 404.1046142578125 C 396.86376953125 404.67730712890625 398.15411376953125 405.10687255859375 399.30108642578125 405.39324951171875 C 398.44085693359375 423.2913818359375 396.93548583984375 437.037109375 394.784912109375 446.63055419921875 C 392.6343994140625 456.2239990234375 388.83514404296875 462.81048583984375 383.3870849609375 466.39013671875 C 378.08245849609375 469.9697265625 369.910400390625 471.759521484375 358.8709716796875 471.759521484375 C 357.1505126953125 471.759521484375 352.9927978515625 471.759521484375 346.3978271484375 471.759521484375 C 339.8028564453125 471.759521484375 331.9892578125 471.759521484375 322.95697021484375 471.759521484375 C 314.068115234375 471.759521484375 305.1075439453125 471.759521484375 296.07525634765625 471.759521484375 C 287.04302978515625 471.759521484375 279.2294006347656 471.759521484375 272.6343994140625 471.759521484375 C 266.0394287109375 471.759521484375 262.02508544921875 471.759521484375 260.5914001464844 471.759521484375 C 249.26522827148438 471.759521484375 240.3046875 471.0435791015625 233.70968627929688 469.61181640625 C 227.11468505859375 468.3231201171875 222.52688598632812 465.8173828125 219.94622802734375 462.09454345703125 C 217.3656005859375 458.3717041015625 216.07525634765625 452.7874755859375 216.07525634765625 445.3419189453125 C 216.07525634765625 413.48321533203125 216.07525634765625 381.62451171875 216.07525634765625 349.76580810546875M 251.55914306640625 330.8653564453125 C 254.28314208984375 328.359619140625 257.0071716308594 325.8538818359375 259.731201171875 323.34814453125 C 270.7706298828125 328.7891845703125 282.02508544921875 335.08935546875 293.49462890625 342.24859619140625 C 305.1075439453125 349.4078369140625 316.00360107421875 356.638671875 326.18280029296875 363.941162109375 C 336.36199951171875 371.24359130859375 344.7491455078125 378.04486083984375 351.3441162109375 384.34503173828125 C 348.6201171875 387.208740234375 345.89605712890625 390.0723876953125 343.17205810546875 392.9361572265625 C 336.86376953125 386.92236328125 328.6201171875 380.2642822265625 318.44085693359375 372.9617919921875 C 308.26165771484375 365.51617431640625 297.2939147949219 358.070556640625 285.53765869140625 350.62493896484375 C 273.7813720703125 343.1793212890625 262.4552001953125 336.5927734375 251.55914306640625 330.8653564453125M 406.3978271484375 353.8465576171875 C 409.9820556640625 352.3431396484375 413.5662841796875 350.8397216796875 417.1505126953125 349.33624267578125 C 425.609375 359.78875732421875 433.9964599609375 371.315185546875 442.31182861328125 383.91546630859375 C 450.7706298828125 396.37255859375 458.369140625 408.6148681640625 465.1075439453125 420.6424560546875 C 471.84588623046875 432.52685546875 476.86376953125 443.12255859375 480.1612548828125 452.4295654296875 C 476.362060546875 454.362548828125 472.562744140625 456.2955322265625 468.763427734375 458.228515625 C 465.17919921875 448.9215087890625 460.089599609375 438.25421142578125 453.49462890625 426.2266845703125 C 447.04302978515625 414.055908203125 439.65948486328125 401.67041015625 431.3441162109375 389.07012939453125 C 423.17205810546875 376.32666015625 414.856689453125 364.58544921875 406.3978271484375 353.8465576171875M 167.258056640625 355.994384765625 C 170.69891357421875 357.0682373046875 174.1397705078125 358.14215087890625 177.58062744140625 359.216064453125 C 174.56988525390625 369.9549560546875 170.7706298828125 381.69610595703125 166.18280029296875 394.4395751953125 C 161.73834228515625 407.03985595703125 156.50537109375 419.353759765625 150.48388671875 431.38134765625 C 144.60574340820312 443.2657470703125 138.08242797851562 453.5750732421875 130.91397094726562 462.309326171875 C 127.32974243164062 460.6627197265625 123.74551391601562 459.01611328125 120.16128540039062 457.36944580078125 C 127.61648559570312 448.6351318359375 134.28314208984375 438.3258056640625 140.16128540039062 426.44146728515625 C 146.18280029296875 414.55712890625 151.415771484375 402.3863525390625 155.8602294921875 389.92919921875 C 160.44802856445312 377.47216796875 164.247314453125 366.1605224609375 167.258056640625 355.994384765625M 170.48388671875 222.40264892578125 C 170.48388671875 245.885009765625 170.48388671875 269.36737060546875 170.48388671875 292.8497314453125 C 256.50537109375 292.8497314453125 342.52685546875 292.8497314453125 428.54840087890625 292.8497314453125 C 428.54840087890625 269.36737060546875 428.54840087890625 245.885009765625 428.54840087890625 222.40264892578125 C 342.52685546875 222.40264892578125 256.50537109375 222.40264892578125 170.48388671875 222.40264892578125M 170.48388671875 140.57232666015625 C 170.48388671875 163.83990478515625 170.48388671875 187.10748291015625 170.48388671875 210.37506103515625 C 256.50537109375 210.37506103515625 342.52685546875 210.37506103515625 428.54840087890625 210.37506103515625 C 428.54840087890625 187.10748291015625 428.54840087890625 163.83990478515625 428.54840087890625 140.57232666015625 C 342.52685546875 140.57232666015625 256.50537109375 140.57232666015625 170.48388671875 140.57232666015625M 158.65591430664062 128.75955200195312 C 252.6343994140625 128.75955200195312 346.6129150390625 128.75955200195312 440.5914306640625 128.75955200195312 C 440.5914306640625 187.4654541015625 440.5914306640625 246.17138671875 440.5914306640625 304.87725830078125 C 346.6129150390625 304.87725830078125 252.6343994140625 304.87725830078125 158.65591430664062 304.87725830078125 C 158.65591430664062 246.17138671875 158.65591430664062 187.4654541015625 158.65591430664062 128.75955200195312M 294.3548583984375 133.26986694335938 C 298.5125427246094 133.26986694335938 302.6702575683594 133.26986694335938 306.82794189453125 133.26986694335938 C 306.82794189453125 188.39614868164062 306.82794189453125 243.52243041992188 306.82794189453125 298.6487121582031 C 302.6702575683594 298.6487121582031 298.5125427246094 298.6487121582031 294.3548583984375 298.6487121582031 C 294.3548583984375 243.52243041992188 294.3548583984375 188.39614868164062 294.3548583984375 133.26986694335938"/>
  </g>
</svg>
