<?xml version="1.0" encoding="utf-8"?>
<svg xmlns="http://www.w3.org/2000/svg" xmlns:ev="http://www.w3.org/2001/xml-events" xmlns:xlink="http://www.w3.org/1999/xlink" version="1.1" baseProfile="full" width="17103.0" height="1740.3" viewBox="60.0 -1597.0 17103.0 1740.3">
<defs/>
<g><path d="M 12530.000000 -1430.000000 C 12725.333333 -1430.000000 12920.666667 -1430.000000 13116.000000 -1430.000000 C 13116.000000 -1411.666667 13116.000000 -1393.333333 13116.000000 -1375.000000 C 12920.666667 -1375.000000 12725.333333 -1375.000000 12530.000000 -1375.000000 C 12530.000000 -1393.333333 12530.000000 -1411.666667 12530.000000 -1430.000000z M 12388.000000 -572.000000 C 12673.333333 -572.000000 12958.666667 -572.000000 13244.000000 -572.000000 C 13244.000000 -553.333333 13244.000000 -534.666667 13244.000000 -516.000000 C 12958.666667 -516.000000 12673.333333 -516.000000 12388.000000 -516.000000 C 12388.000000 -534.666667 12388.000000 -553.333333 12388.000000 -572.000000z M 12167.000000 23.000000 C 12560.000000 23.000000 12953.000000 23.000000 13346.000000 23.000000 C 13346.000000 41.666667 13346.000000 60.333333 13346.000000 79.000000 C 12953.000000 79.000000 12560.000000 79.000000 12167.000000 79.000000 C 12167.000000 60.333333 12167.000000 41.666667 12167.000000 23.000000z M 12346.000000 -290.000000 C 12634.666667 -290.000000 12923.333333 -290.000000 13212.000000 -290.000000 C 13212.000000 -271.333333 13212.000000 -252.666667 13212.000000 -234.000000 C 12923.333333 -234.000000 12634.666667 -234.000000 12346.000000 -234.000000 C 12346.000000 -252.666667 12346.000000 -271.333333 12346.000000 -290.000000z M 13092.000000 -1430.000000 C 13096.000000 -1430.000000 13100.000000 -1430.000000 13104.000000 -1430.000000 C 13108.000000 -1431.333333 13112.000000 -1432.666667 13116.000000 -1434.000000 C 13128.000000 -1426.333333 13140.000000 -1418.666667 13152.000000 -1411.000000 C 13110.000000 -1319.000000 13054.333333 -1234.666667 12985.000000 -1158.000000 C 12915.666667 -1081.333333 12838.333333 -1012.666667 12753.000000 -952.000000 C 12668.333333 -892.000000 12579.666667 -840.333333 12487.000000 -797.000000 C 12395.000000 -754.333333 12305.000000 -719.666667 12217.000000 -693.000000 C 12213.000000 -701.000000 12207.666667 -709.666667 12201.000000 -719.000000 C 12195.000000 -728.333333 12188.666667 -735.666667 12182.000000 -741.000000 C 12269.333333 -764.333333 12358.000000 -796.666667 12448.000000 -838.000000 C 12538.666667 -879.333333 12625.333333 -928.666667 12708.000000 -986.000000 C 12791.333333 -1044.000000 12866.333333 -1109.000000 12933.000000 -1181.000000 C 12999.666667 -1253.666667 13052.666667 -1332.333333 13092.000000 -1417.000000 C 13092.000000 -1421.333333 13092.000000 -1425.666667 13092.000000 -1430.000000z M 12520.000000 -1371.000000 C 12567.333333 -1271.000000 12632.666667 -1179.333333 12716.000000 -1096.000000 C 12799.333333 -1013.333333 12895.333333 -942.333333 13004.000000 -883.000000 C 13112.666667 -824.333333 13230.000000 -781.000000 13356.000000 -753.000000 C 13348.000000 -747.666667 13340.333333 -740.000000 13333.000000 -730.000000 C 13326.333333 -720.666667 13320.333333 -712.333333 13315.000000 -705.000000 C 13191.000000 -735.666667 13074.333333 -781.666667 12965.000000 -843.000000 C 12855.666667 -904.333333 12758.666667 -978.000000 12674.000000 -1064.000000 C 12589.333333 -1150.666667 12522.000000 -1246.666667 12472.000000 -1352.000000 C 12488.000000 -1358.333333 12504.000000 -1364.666667 12520.000000 -1371.000000z M 12626.000000 -1597.000000 C 12647.666667 -1594.000000 12669.333333 -1591.000000 12691.000000 -1588.000000 C 12643.666667 -1502.000000 12580.333333 -1410.000000 12501.000000 -1312.000000 C 12421.666667 -1214.000000 12327.000000 -1125.333333 12217.000000 -1046.000000 C 12214.333333 -1051.333333 12210.000000 -1056.333333 12204.000000 -1061.000000 C 12198.666667 -1065.666667 12193.000000 -1069.666667 12187.000000 -1073.000000 C 12181.666667 -1077.000000 12176.333333 -1080.333333 12171.000000 -1083.000000 C 12242.333333 -1133.000000 12307.000000 -1187.666667 12365.000000 -1247.000000 C 12423.666667 -1306.333333 12475.000000 -1366.333333 12519.000000 -1427.000000 C 12563.666667 -1488.333333 12599.333333 -1545.000000 12626.000000 -1597.000000z M 12451.000000 -762.000000 C 12470.333333 -758.333333 12489.666667 -754.666667 12509.000000 -751.000000 C 12483.000000 -666.333333 12448.666667 -586.000000 12406.000000 -510.000000 C 12363.333333 -434.000000 12317.000000 -369.000000 12267.000000 -315.000000 C 12264.333333 -319.000000 12260.000000 -322.666667 12254.000000 -326.000000 C 12248.666667 -330.000000 12242.666667 -334.333333 12236.000000 -339.000000 C 12230.000000 -343.666667 12224.333333 -347.000000 12219.000000 -349.000000 C 12271.666667 -401.666667 12317.666667 -463.666667 12357.000000 -535.000000 C 12397.000000 -607.000000 12428.333333 -682.666667 12451.000000 -762.000000z M 12739.000000 -783.000000 C 12758.333333 -783.000000 12777.666667 -783.000000 12797.000000 -783.000000 C 12797.000000 -506.666667 12797.000000 -230.333333 12797.000000 46.000000 C 12777.666667 46.000000 12758.333333 46.000000 12739.000000 46.000000 C 12739.000000 -230.333333 12739.000000 -506.666667 12739.000000 -783.000000z M 11693.000000 -1511.000000 C 11843.333333 -1511.000000 11993.666667 -1511.000000 12144.000000 -1511.000000 C 12144.000000 -1492.333333 12144.000000 -1473.666667 12144.000000 -1455.000000 C 12012.666667 -1455.000000 11881.333333 -1455.000000 11750.000000 -1455.000000 C 11750.000000 -925.333333 11750.000000 -395.666667 11750.000000 134.000000 C 11731.000000 134.000000 11712.000000 134.000000 11693.000000 134.000000 C 11693.000000 -414.333333 11693.000000 -962.666667 11693.000000 -1511.000000z M 12129.000000 -1511.000000 C 12132.666667 -1511.000000 12136.333333 -1511.000000 12140.000000 -1511.000000 C 12144.000000 -1512.333333 12148.000000 -1513.666667 12152.000000 -1515.000000 C 12164.000000 -1506.000000 12176.000000 -1497.000000 12188.000000 -1488.000000 C 12167.333333 -1438.000000 12145.000000 -1384.666667 12121.000000 -1328.000000 C 12097.666667 -1272.000000 12073.666667 -1215.333333 12049.000000 -1158.000000 C 12024.333333 -1101.333333 11999.000000 -1047.000000 11973.000000 -995.000000 C 12055.000000 -910.333333 12109.333333 -832.000000 12136.000000 -760.000000 C 12163.333333 -688.666667 12177.000000 -621.000000 12177.000000 -557.000000 C 12177.000000 -515.666667 12171.666667 -476.666667 12161.000000 -440.000000 C 12151.000000 -404.000000 12134.333333 -377.666667 12111.000000 -361.000000 C 12099.666667 -353.000000 12086.333333 -346.666667 12071.000000 -342.000000 C 12055.666667 -338.000000 12039.000000 -334.666667 12021.000000 -332.000000 C 11976.333333 -328.000000 11931.666667 -328.000000 11887.000000 -332.000000 C 11885.666667 -338.666667 11883.333333 -347.333333 11880.000000 -358.000000 C 11876.666667 -368.666667 11872.000000 -378.666667 11866.000000 -388.000000 C 11892.666667 -386.666667 11917.666667 -385.666667 11941.000000 -385.000000 C 11965.000000 -384.333333 11986.666667 -384.666667 12006.000000 -386.000000 C 12034.000000 -388.666667 12056.333333 -395.000000 12073.000000 -405.000000 C 12091.000000 -417.666667 12103.333333 -438.333333 12110.000000 -467.000000 C 12117.333333 -496.333333 12121.000000 -526.333333 12121.000000 -557.000000 C 12121.000000 -617.000000 12106.333333 -682.000000 12077.000000 -752.000000 C 12047.666667 -822.666667 11991.333333 -901.000000 11908.000000 -987.000000 C 11929.333333 -1031.666667 11950.333333 -1076.666667 11971.000000 -1122.000000 C 11991.666667 -1167.333333 12011.666667 -1212.000000 12031.000000 -1256.000000 C 12050.333333 -1300.666667 12068.000000 -1343.333333 12084.000000 -1384.000000 C 12100.666667 -1425.333333 12115.666667 -1463.333333 12129.000000 -1498.000000 C 12129.000000 -1502.333333 12129.000000 -1506.666667 12129.000000 -1511.000000z "/>
</g></svg>
