<?xml version="1.0" ?>
<svg xmlns="http://www.w3.org/2000/svg" version="1.1" width="600" height="600">
  <defs/>
  <g>
    <path stroke-width="0" fill="rgb(0, 0, 0)" opacity="1.0" d="M 345.930908203125 253.6737060546875 C 349.90087890625 253.6737060546875 353.87060546875 253.6737060546875 357.8408203125 253.6737060546875 C 357.8408203125 328.425537109375 357.8408203125 403.1773681640625 357.8408203125 477.92926025390625 C 353.87060546875 477.92926025390625 349.90087890625 477.92926025390625 345.930908203125 477.92926025390625 C 345.930908203125 403.1773681640625 345.930908203125 328.425537109375 345.930908203125 253.6737060546875M 219.4423828125 320.2110595703125 C 305.342529296875 320.2110595703125 391.2421875 320.2110595703125 477.14208984375 320.2110595703125 C 477.14208984375 324.04449462890625 477.14208984375 327.8779296875 477.14208984375 331.71136474609375 C 391.2421875 331.71136474609375 305.342529296875 331.71136474609375 219.4423828125 331.71136474609375 C 219.4423828125 327.8779296875 219.4423828125 324.04449462890625 219.4423828125 320.2110595703125M 365.6435546875 323.086181640625 C 374.267578125 340.19964599609375 385.150390625 356.970947265625 398.2919921875 373.39990234375 C 411.43359375 389.828857421875 425.6708984375 404.68341064453125 441.0029296875 417.9635009765625 C 456.4716796875 431.106689453125 471.66650390625 441.6485595703125 486.587890625 449.5892333984375 C 485.9033203125 450.4107666015625 485.013671875 451.3006591796875 483.91796875 452.25897216796875 C 482.8232421875 453.354248046875 481.79638671875 454.44952392578125 480.837890625 455.5447998046875 C 480.0166015625 456.6400146484375 479.1953125 457.6668701171875 478.3740234375 458.625244140625 C 463.453125 450.0 448.189453125 438.705078125 432.583984375 424.740478515625 C 417.11474609375 410.77581787109375 402.6728515625 395.442138671875 389.25732421875 378.73931884765625 C 375.841796875 361.89959716796875 364.5478515625 344.78607177734375 355.37646484375 327.39874267578125 C 358.798828125 325.961181640625 362.22119140625 324.523681640625 365.6435546875 323.086181640625M 338.744140625 322.26470947265625 C 341.892822265625 323.70220947265625 345.041015625 325.1397705078125 348.189697265625 326.5772705078125 C 339.01806640625 344.23846435546875 327.3818359375 361.62579345703125 313.2822265625 378.73931884765625 C 299.319091796875 395.7159423828125 284.192626953125 411.1180419921875 267.90234375 424.94580078125 C 251.612060546875 438.7735595703125 235.458740234375 449.86309814453125 219.4423828125 458.2144775390625 C 218.62109375 457.256103515625 217.731201171875 456.22930908203125 216.77294921875 455.134033203125 C 215.81494140625 454.038818359375 214.8564453125 452.9434814453125 213.8984375 451.8482666015625 C 213.076904296875 450.889892578125 212.118896484375 450.0 211.023681640625 449.1785888671875 C 227.0400390625 441.51171875 243.125 431.0382080078125 259.278076171875 417.75811767578125 C 275.568359375 404.34112548828125 290.626220703125 389.34967041015625 304.45263671875 372.7838134765625 C 318.41552734375 356.2178955078125 329.845947265625 339.378173828125 338.744140625 322.26470947265625M 263.59033203125 153.86767578125 C 263.59033203125 184.46664428710938 263.59033203125 215.06561279296875 263.59033203125 245.66458129882812 C 322.864501953125 245.66458129882812 382.13916015625 245.66458129882812 441.4130859375 245.66458129882812 C 441.4130859375 215.06561279296875 441.4130859375 184.46664428710938 441.4130859375 153.86767578125 C 382.13916015625 153.86767578125 322.864501953125 153.86767578125 263.59033203125 153.86767578125M 252.09130859375 142.36737060546875 C 318.962890625 142.36737060546875 385.8349609375 142.36737060546875 452.70703125 142.36737060546875 C 452.70703125 180.77011108398438 452.70703125 219.1728515625 452.70703125 257.5755920410156 C 385.8349609375 257.5755920410156 318.962890625 257.5755920410156 252.09130859375 257.5755920410156 C 252.09130859375 219.1728515625 252.09130859375 180.77011108398438 252.09130859375 142.36737060546875M 222.11181640625 123.884765625 C 225.94482421875 124.98004150390625 229.778076171875 126.07528686523438 233.61083984375 127.17056274414062 C 224.575927734375 149.21279907226562 214.240478515625 170.638916015625 202.604736328125 191.44894409179688 C 190.968994140625 212.1220703125 178.443359375 231.49456787109375 165.02783203125 249.56646728515625 C 151.6123046875 267.5014343261719 137.786376953125 283.72503662109375 123.54931640625 298.2373046875 C 123.001953125 297.4158630371094 122.1806640625 296.3890380859375 121.08544921875 295.1568603515625 C 120.127197265625 293.78778076171875 119.1005859375 292.55560302734375 118.00537109375 291.4603576660156 C 117.047119140625 290.2281799316406 116.0205078125 289.20135498046875 114.92529296875 288.37994384765625 C 129.162109375 274.96295166015625 142.851318359375 259.5607604980469 155.992919921875 242.17340087890625 C 169.134521484375 224.649169921875 181.38623046875 205.82431030273438 192.74853515625 185.69882202148438 C 204.247314453125 165.57330322265625 214.03515625 144.9686279296875 222.11181640625 123.884765625M 177.964111328125 218.14605712890625 C 181.66015625 214.44952392578125 185.356201171875 210.75299072265625 189.052490234375 207.05648803710938 C 189.326171875 207.193359375 189.599853515625 207.330322265625 189.873779296875 207.46722412109375 C 189.873779296875 297.2789306640625 189.873779296875 387.0906982421875 189.873779296875 476.9024658203125 C 185.90380859375 476.9024658203125 181.93408203125 476.9024658203125 177.964111328125 476.9024658203125 C 177.964111328125 390.65032958984375 177.964111328125 304.398193359375 177.964111328125 218.14605712890625"/>
  </g>
</svg>
