<?xml version="1.0" encoding="utf-8"?>
<svg xmlns="http://www.w3.org/2000/svg" xmlns:ev="http://www.w3.org/2001/xml-events" xmlns:xlink="http://www.w3.org/1999/xlink" version="1.1" baseProfile="full" width="17092.0" height="1734.0" viewBox="113.0 -1596.0 17092.0 1734.0">
<defs/>
<g><path d="M 4483.000000 -1140.000000 C 4817.000000 -1140.000000 5151.000000 -1140.000000 5485.000000 -1140.000000 C 5485.000000 -1121.666667 5485.000000 -1103.333333 5485.000000 -1085.000000 C 5151.000000 -1085.000000 4817.000000 -1085.000000 4483.000000 -1085.000000 C 4483.000000 -1103.333333 4483.000000 -1121.666667 4483.000000 -1140.000000z M 4241.000000 -764.000000 C 4687.666667 -764.000000 5134.333333 -764.000000 5581.000000 -764.000000 C 5581.000000 -745.333333 5581.000000 -726.666667 5581.000000 -708.000000 C 5134.333333 -708.000000 4687.666667 -708.000000 4241.000000 -708.000000 C 4241.000000 -726.666667 4241.000000 -745.333333 4241.000000 -764.000000z M 4858.000000 -1121.000000 C 4877.000000 -1121.000000 4896.000000 -1121.000000 4915.000000 -1121.000000 C 4915.000000 -1023.666667 4915.000000 -926.333333 4915.000000 -829.000000 C 4915.000000 -774.333333 4909.000000 -716.333333 4897.000000 -655.000000 C 4885.000000 -594.333333 4858.666667 -533.333333 4818.000000 -472.000000 C 4778.000000 -410.666667 4715.333333 -351.333333 4630.000000 -294.000000 C 4544.666667 -237.333333 4429.333333 -185.333333 4284.000000 -138.000000 C 4281.333333 -143.333333 4278.000000 -148.333333 4274.000000 -153.000000 C 4270.000000 -158.333333 4265.666667 -163.666667 4261.000000 -169.000000 C 4257.000000 -174.333333 4253.000000 -178.666667 4249.000000 -182.000000 C 4391.000000 -227.333333 4503.333333 -276.333333 4586.000000 -329.000000 C 4668.666667 -382.333333 4729.000000 -438.000000 4767.000000 -496.000000 C 4805.666667 -554.666667 4830.333333 -612.333333 4841.000000 -669.000000 C 4852.333333 -726.333333 4858.000000 -779.666667 4858.000000 -829.000000 C 4858.000000 -926.333333 4858.000000 -1023.666667 4858.000000 -1121.000000z M 4577.000000 -1346.000000 C 4596.333333 -1341.333333 4615.666667 -1336.666667 4635.000000 -1332.000000 C 4599.000000 -1241.333333 4551.333333 -1156.666667 4492.000000 -1078.000000 C 4433.333333 -999.333333 4371.000000 -932.333333 4305.000000 -877.000000 C 4302.333333 -879.666667 4297.666667 -883.333333 4291.000000 -888.000000 C 4285.000000 -892.666667 4278.666667 -896.666667 4272.000000 -900.000000 C 4265.333333 -904.000000 4259.666667 -907.333333 4255.000000 -910.000000 C 4322.333333 -962.666667 4384.333333 -1027.000000 4441.000000 -1103.000000 C 4498.333333 -1179.000000 4543.666667 -1260.000000 4577.000000 -1346.000000z M 4931.000000 -730.000000 C 4978.333333 -587.333333 5056.666667 -471.000000 5166.000000 -381.000000 C 5275.333333 -291.000000 5411.333333 -228.000000 5574.000000 -192.000000 C 5566.000000 -185.333333 5558.333333 -177.333333 5551.000000 -168.000000 C 5544.333333 -158.666667 5538.333333 -149.333333 5533.000000 -140.000000 C 5371.000000 -182.666667 5233.333333 -251.666667 5120.000000 -347.000000 C 5006.666667 -442.333333 4925.000000 -565.333333 4875.000000 -716.000000 C 4893.666667 -720.666667 4912.333333 -725.333333 4931.000000 -730.000000z M 4049.000000 -1473.000000 C 4569.333333 -1473.000000 5089.666667 -1473.000000 5610.000000 -1473.000000 C 5610.000000 -1453.666667 5610.000000 -1434.333333 5610.000000 -1415.000000 C 5108.333333 -1415.000000 4606.666667 -1415.000000 4105.000000 -1415.000000 C 4105.000000 -900.333333 4105.000000 -385.666667 4105.000000 129.000000 C 4086.333333 129.000000 4067.666667 129.000000 4049.000000 129.000000 C 4049.000000 -405.000000 4049.000000 -939.000000 4049.000000 -1473.000000z M 4090.000000 -29.000000 C 4609.666667 -29.000000 5129.333333 -29.000000 5649.000000 -29.000000 C 5649.000000 -9.666667 5649.000000 9.666667 5649.000000 29.000000 C 5129.333333 29.000000 4609.666667 29.000000 4090.000000 29.000000 C 4090.000000 9.666667 4090.000000 -9.666667 4090.000000 -29.000000z "/>
</g></svg>
