<?xml version="1.0" ?>
<svg xmlns="http://www.w3.org/2000/svg" version="1.1" width="600" height="600">
  <defs/>
  <g>
    <path stroke-width="0" fill="rgb(0, 0, 0)" opacity="1.0" d="M 140.966552734375 208.72479248046875 C 147.02142333984375 209.55047607421875 153.48910522460938 210.16973876953125 160.36962890625 210.58258056640625 C 167.25015258789062 210.99542236328125 175.57559204101562 211.20184326171875 185.345947265625 211.20184326171875 C 197.73086547851562 211.20184326171875 211.01028442382812 210.78900146484375 225.18417358398438 209.96331787109375 C 239.3580322265625 209.0 254.49517822265625 207.07339477539062 270.59564208984375 204.1834716796875 C 286.696044921875 201.15597534179688 303.62213134765625 196.75228881835938 321.3739013671875 190.97247314453125 C 321.511474609375 195.30734252929688 321.64910888671875 199.6422119140625 321.7867431640625 203.97705078125 C 307.20001220703125 207.9678955078125 292.269287109375 211.40826416015625 276.9945068359375 214.29815673828125 C 261.85736083984375 217.05047607421875 246.58258056640625 219.1834716796875 231.17022705078125 220.697265625 C 215.75784301757812 222.07339477539062 200.345458984375 222.761474609375 184.93310546875 222.761474609375 C 178.32778930664062 222.761474609375 171.034423828125 222.69265747070312 163.05303955078125 222.5550537109375 C 155.209228515625 222.41741943359375 148.12228393554688 222.21099853515625 141.79220581054688 221.935791015625 C 141.51699829101562 217.5321044921875 141.24176025390625 213.12844848632812 140.966552734375 208.72479248046875M 267.9122314453125 139.16055297851562 C 266.2608947753906 144.94036865234375 264.3343505859375 152.37155151367188 262.132568359375 161.45413208007812 C 260.06842041015625 170.53671264648438 257.7978515625 179.89450073242188 255.32086181640625 189.52752685546875 C 252.8438720703125 199.1605224609375 250.298095703125 207.83026123046875 247.6834716796875 215.53668212890625 C 241.07818603515625 234.52752685546875 232.821533203125 254.412841796875 222.91360473632812 275.1926574707031 C 213.00564575195312 295.97247314453125 202.47845458984375 315.9266357421875 191.33197021484375 335.0550537109375 C 180.185546875 354.1834716796875 169.24551391601562 370.76605224609375 158.51190185546875 384.802734375 C 154.10833740234375 382.39453125 149.70480346679688 379.9862060546875 145.30126953125 377.5780029296875 C 154.10833740234375 367.807373046875 162.91543579101562 356.38531494140625 171.72250366210938 343.3118896484375 C 180.52957153320312 330.238525390625 188.85498046875 316.40826416015625 196.69879150390625 301.82110595703125 C 204.68020629882812 287.0963134765625 212.0423583984375 272.44036865234375 218.7852783203125 257.85321044921875 C 225.5281982421875 243.12844848632812 231.0325927734375 229.435791015625 235.29852294921875 216.77523803710938 C 239.0140380859375 205.9036865234375 242.7294921875 193.10552978515625 246.44500732421875 178.3807373046875 C 250.16046142578125 163.51834106445312 252.29342651367188 149.89450073242188 252.8438720703125 137.50918579101562 C 257.86663818359375 138.05963134765625 262.88946533203125 138.610107421875 267.9122314453125 139.16055297851562M 361.8314208984375 260.33026123046875 C 361.55615234375 268.31195068359375 361.28094482421875 274.71099853515625 361.0057373046875 279.52752685546875 C 360.73046875 284.2064208984375 360.73046875 289.29815673828125 361.0057373046875 294.802734375 C 361.28094482421875 301.958740234375 361.55615234375 310.697265625 361.8314208984375 321.018310546875 C 362.24420166015625 331.3394775390625 362.725830078125 342.27978515625 363.2762451171875 353.8394775390625 C 363.82672119140625 365.261474609375 364.308349609375 376.3394775390625 364.72119140625 387.0733642578125 C 365.134033203125 397.66973876953125 365.3404541015625 406.82110595703125 365.3404541015625 414.52752685546875 C 365.3404541015625 423.197265625 363.0010986328125 431.3165283203125 358.322265625 438.88531494140625 C 353.7811279296875 446.4541015625 346.900634765625 452.44036865234375 337.68072509765625 456.843994140625 C 328.59844970703125 461.38531494140625 317.0391845703125 463.656005859375 303.0028991699219 463.656005859375 C 290.3427429199219 463.656005859375 278.71466064453125 462.0733642578125 268.11865234375 458.90826416015625 C 257.66021728515625 455.7431640625 249.19720458984375 450.58258056640625 242.7294921875 443.4266357421875 C 236.26181030273438 436.2706298828125 233.0279541015625 426.912841796875 233.0279541015625 415.35321044921875 C 233.0279541015625 403.656005859375 236.46823120117188 394.1605224609375 243.3487548828125 386.866943359375 C 250.36688232421875 379.435791015625 259.31158447265625 373.93121337890625 270.18280029296875 370.35321044921875 C 281.05401611328125 366.7752685546875 292.13165283203125 364.9862060546875 303.41571044921875 364.9862060546875 C 324.8829345703125 364.9862060546875 344.3548583984375 367.9449462890625 361.8314208984375 373.8624267578125 C 379.445556640625 379.77978515625 395.33953857421875 387.27978515625 409.513427734375 396.3624267578125 C 423.687255859375 405.307373046875 436.14105224609375 414.11468505859375 446.8746337890625 422.784423828125 C 444.397705078125 426.5 441.920654296875 430.215576171875 439.4437255859375 433.93115234375 C 431.18707275390625 426.7752685546875 422.24237060546875 419.6881103515625 412.609619140625 412.66973876953125 C 402.9769287109375 405.6513671875 392.44970703125 399.389892578125 381.028076171875 393.88531494140625 C 369.7440185546875 388.3807373046875 357.70306396484375 383.90826416015625 344.9052734375 380.4678955078125 C 332.1075439453125 377.02752685546875 318.5528564453125 375.307373046875 304.24139404296875 375.307373046875 C 286.62725830078125 375.307373046875 272.2469482421875 379.09173583984375 261.10052490234375 386.6605224609375 C 249.95404052734375 394.09173583984375 244.38082885742188 403.518310546875 244.38082885742188 414.94036865234375 C 244.38082885742188 426.087158203125 248.99078369140625 435.1009521484375 258.210693359375 441.981689453125 C 267.56817626953125 448.7247314453125 282.29254150390625 452.0963134765625 302.3836669921875 452.0963134765625 C 315.31903076171875 452.0963134765625 325.571044921875 450.238525390625 333.13958740234375 446.52294921875 C 340.8458251953125 442.66973876953125 346.3502197265625 437.5780029296875 349.65283203125 431.2476806640625 C 352.95550537109375 424.91741943359375 354.6068115234375 418.3118896484375 354.6068115234375 411.43115234375 C 354.6068115234375 402.0733642578125 354.400390625 391.20184326171875 353.987548828125 378.8165283203125 C 353.57470703125 366.43115234375 353.0242919921875 353.28900146484375 352.33624267578125 339.389892578125 C 351.78582763671875 325.4908447265625 351.2353515625 311.7293701171875 350.6849365234375 298.1054992675781 C 350.134521484375 284.34405517578125 349.7216796875 271.7522888183594 349.4464111328125 260.33026123046875 C 353.57470703125 260.33026123046875 357.70306396484375 260.33026123046875 361.8314208984375 260.33026123046875M 452.0350341796875 260.33026123046875 C 445.42974853515625 254.27523803710938 436.9666748046875 247.9449462890625 426.6458740234375 241.33944702148438 C 416.4627685546875 234.73394775390625 405.935546875 228.47247314453125 395.0643310546875 222.5550537109375 C 384.193115234375 216.63763427734375 374.560302734375 211.68350219726562 366.1661376953125 207.69265747070312 C 368.230224609375 204.6651611328125 370.29443359375 201.63760375976562 372.35858154296875 198.610107421875 C 379.5142822265625 201.77523803710938 387.22052001953125 205.55963134765625 395.4771728515625 209.96331787109375 C 403.871337890625 214.2293701171875 412.12799072265625 218.83944702148438 420.2470703125 223.7935791015625 C 428.503662109375 228.610107421875 436.072265625 233.3577880859375 442.9527587890625 238.03668212890625 C 449.833251953125 242.5780029296875 455.406494140625 246.56878662109375 459.67242431640625 250.0091552734375 C 457.1265869140625 253.44955444335938 454.580810546875 256.889892578125 452.0350341796875 260.33026123046875"/>
  </g>
</svg>
