<?xml version="1.0" encoding="utf-8"?>
<svg xmlns="http://www.w3.org/2000/svg" xmlns:ev="http://www.w3.org/2001/xml-events" xmlns:xlink="http://www.w3.org/1999/xlink" version="1.1" baseProfile="full" width="20903.0" height="1740.0" viewBox="106.0 -1596.0 20903.0 1740.0">
<defs/>
<g><path d="M 12067.000000 -27.000000 C 12231.000000 -92.333333 12370.000000 -177.000000 12484.000000 -281.000000 C 12598.000000 -385.666667 12692.000000 -494.333333 12766.000000 -607.000000 C 12841.333333 -723.000000 12898.000000 -839.333333 12936.000000 -956.000000 C 12974.000000 -1072.666667 13001.333333 -1180.333333 13018.000000 -1279.000000 C 13019.333333 -1285.000000 13020.666667 -1297.333333 13022.000000 -1316.000000 C 13024.000000 -1334.666667 13025.000000 -1349.666667 13025.000000 -1361.000000 C 13048.666667 -1358.000000 13072.333333 -1355.000000 13096.000000 -1352.000000 C 13091.333333 -1338.000000 13087.333333 -1323.000000 13084.000000 -1307.000000 C 13080.666667 -1291.000000 13078.333333 -1279.666667 13077.000000 -1273.000000 C 13056.333333 -1156.333333 13025.666667 -1038.000000 12985.000000 -918.000000 C 12944.333333 -798.666667 12888.666667 -684.666667 12818.000000 -576.000000 C 12742.666667 -459.333333 12648.666667 -348.666667 12536.000000 -244.000000 C 12423.333333 -140.000000 12285.666667 -52.333333 12123.000000 19.000000 C 12104.333333 3.666667 12085.666667 -11.666667 12067.000000 -27.000000z M 11869.000000 -1323.000000 C 11888.333333 -1295.000000 11912.333333 -1257.333333 11941.000000 -1210.000000 C 11970.333333 -1163.333333 12000.666667 -1113.333333 12032.000000 -1060.000000 C 12063.333333 -1007.333333 12092.333333 -957.666667 12119.000000 -911.000000 C 12145.666667 -864.333333 12167.333333 -826.333333 12184.000000 -797.000000 C 12166.333333 -786.666667 12148.666667 -776.333333 12131.000000 -766.000000 C 12114.333333 -800.666667 12091.666667 -843.000000 12063.000000 -893.000000 C 12035.000000 -943.000000 12005.000000 -994.333333 11973.000000 -1047.000000 C 11941.000000 -1100.333333 11911.333333 -1149.000000 11884.000000 -1193.000000 C 11856.666667 -1237.666667 11834.000000 -1272.000000 11816.000000 -1296.000000 C 11833.666667 -1305.000000 11851.333333 -1314.000000 11869.000000 -1323.000000z "/>
</g></svg>
