<?xml version="1.0" ?>
<svg xmlns="http://www.w3.org/2000/svg" version="1.1" width="600" height="600">
  <defs/>
  <g>
    <path stroke-width="0" fill="rgb(0, 0, 0)" opacity="1.0" d="M 303.87109375 480.232666015625 C 297.5244445800781 480.232666015625 291.36444091796875 479.92626953125 285.39111328125 479.3133544921875 C 279.41778564453125 478.70050048828125 273.631103515625 477.7811279296875 268.0311279296875 476.555419921875 C 256.83111572265625 474.1038818359375 246.37777709960938 470.4266357421875 236.67111206054688 465.5235595703125 C 227.04742431640625 460.537353515625 218.21185302734375 454.88641357421875 210.1644287109375 448.5706787109375 C 202.11703491210938 442.2548828125 194.8577880859375 435.27423095703125 188.38665771484375 427.6287841796875 C 192.368896484375 423.47369384765625 196.35110473632812 419.318603515625 200.33334350585938 415.1634521484375 C 206.72149658203125 422.4764404296875 213.73184204101562 429.06231689453125 221.36444091796875 434.9210205078125 C 228.99703979492188 440.77978515625 237.25186157226562 445.911376953125 246.12890625 450.3157958984375 C 255.08889770507812 454.72021484375 264.3807373046875 458.0235595703125 274.00445556640625 460.22576904296875 C 283.6281433105469 462.427978515625 293.5837097167969 463.529052734375 303.87109375 463.529052734375 C 310.79852294921875 463.529052734375 317.37335205078125 463.1031494140625 323.5955810546875 462.2513427734375 C 329.8177795410156 461.39959716796875 335.6874084472656 460.12188720703125 341.2044677734375 458.41827392578125 C 352.238525390625 455.0111083984375 361.86224365234375 449.9002685546875 370.0755615234375 443.08587646484375 C 378.28887939453125 436.1883544921875 384.44891357421875 428.29364013671875 388.5555419921875 419.40167236328125 C 392.6622314453125 410.50970458984375 394.715576171875 400.6204833984375 394.715576171875 389.73406982421875 C 394.715576171875 381.92242431640625 393.9688720703125 374.9210205078125 392.4755859375 368.72991943359375 C 390.98223876953125 362.538818359375 388.74224853515625 357.15789794921875 385.75555419921875 352.5872802734375 C 379.94818115234375 343.27978515625 372.23260498046875 335.7174072265625 362.60888671875 329.9002685546875 C 357.8800048828125 326.9085693359375 352.8607177734375 324.0207824707031 347.5511169433594 321.2368469238281 C 342.2414855957031 318.452880859375 336.6414794921875 315.7728271484375 330.7510986328125 313.1966552734375 C 321.9155578613281 309.207763671875 313.08001708984375 305.21881103515625 304.24444580078125 301.22991943359375 C 295.40887451171875 297.2409973144531 286.5733337402344 293.2520751953125 277.73779296875 289.2631530761719 C 272.760009765625 287.0194091796875 267.65777587890625 284.50555419921875 262.4311218261719 281.72161865234375 C 257.2044372558594 278.93768310546875 251.85333251953125 275.8836669921875 246.37777709960938 272.5595703125 C 240.9022216796875 269.15234375 235.84149169921875 265.22576904296875 231.195556640625 260.77978515625 C 226.54962158203125 256.33380126953125 222.31851196289062 251.368408203125 218.50222778320312 245.8836669921875 C 214.6859130859375 240.39889526367188 211.82369995117188 234.16619873046875 209.91555786132812 227.18560791015625 C 208.00741577148438 220.20498657226562 207.0533447265625 212.4764404296875 207.0533447265625 204.0 C 207.0533447265625 195.52352905273438 208.11111450195312 187.62881469726562 210.2266845703125 180.3157958984375 C 212.34222412109375 173.00274658203125 215.51556396484375 166.27145385742188 219.74667358398438 160.12188720703125 C 224.06072998046875 153.88919067382812 229.1422119140625 148.34210205078125 234.99111938476562 143.4805908203125 C 240.83999633789062 138.61911010742188 247.456298828125 134.44320678710938 254.83999633789062 130.95291137695312 C 262.3066711425781 127.37948608398438 270.2503662109375 124.69943237304688 278.6711120605469 122.91275024414062 C 287.09185791015625 121.12603759765625 295.9896240234375 120.232666015625 305.36444091796875 120.232666015625 C 315.9007568359375 120.232666015625 325.8148193359375 121.25070190429688 335.106689453125 123.28671264648438 C 344.39849853515625 125.32269287109375 353.06817626953125 128.376708984375 361.11553955078125 132.44876098632812 C 369.1629638671875 136.52078247070312 376.4222412109375 140.96673583984375 382.893310546875 145.78671264648438 C 389.36444091796875 150.60665893554688 395.04742431640625 155.800537109375 399.9422607421875 161.368408203125 C 396.2918701171875 165.35733032226562 392.6414794921875 169.34625244140625 388.9910888671875 173.33517456054688 C 384.0963134765625 167.93353271484375 378.6622314453125 163.05123901367188 372.68890380859375 158.6883544921875 C 366.715576171875 154.32546997070312 360.20294189453125 150.48199462890625 353.151123046875 147.15789794921875 C 346.1822204589844 143.75070190429688 338.715576171875 141.19528198242188 330.7510986328125 139.49169921875 C 322.78668212890625 137.7880859375 314.324462890625 136.936279296875 305.36444091796875 136.936279296875 C 293.2518310546875 136.936279296875 282.34222412109375 138.41134643554688 272.63555908203125 141.36148071289062 C 262.92889404296875 144.3116455078125 254.4251708984375 148.73684692382812 247.12445068359375 154.63711547851562 C 239.82369995117188 160.53738403320312 234.34814453125 167.43490600585938 230.69778442382812 175.32962036132812 C 227.04742431640625 183.224365234375 225.22222900390625 192.11636352539062 225.22222900390625 202.00552368164062 C 225.22222900390625 209.23544311523438 226.05184936523438 215.80056762695312 227.71112060546875 221.7008056640625 C 229.370361328125 227.60110473632812 231.8592529296875 232.8365478515625 235.17779541015625 237.40719604492188 C 241.8148193359375 246.38226318359375 249.86221313476562 253.52908325195312 259.32000732421875 258.84765625 C 268.9436950683594 264.16619873046875 277.73779296875 268.7368469238281 285.70220947265625 272.5595703125 C 294.57928466796875 276.5484619140625 303.456298828125 280.53741455078125 312.3333435058594 284.52630615234375 C 321.21038818359375 288.5152282714844 330.08740234375 292.504150390625 338.9644470214844 296.4930725097656 C 345.435546875 299.31854248046875 351.67852783203125 302.37255859375 357.693359375 305.6551208496094 C 363.7081604003906 308.93768310546875 369.49481201171875 312.44873046875 375.0533447265625 316.1883544921875 C 380.69482421875 319.927978515625 385.77630615234375 324.16619873046875 390.29779052734375 328.903076171875 C 394.81927490234375 333.639892578125 398.78076171875 338.8753662109375 402.1822509765625 344.60943603515625 C 405.583740234375 350.2603759765625 408.13482666015625 356.72161865234375 409.8355712890625 363.9930419921875 C 411.53631591796875 371.2645263671875 412.38665771484375 379.34625244140625 412.38665771484375 388.23822021484375 C 412.38665771484375 397.047119140625 411.26666259765625 405.39892578125 409.02667236328125 413.29364013671875 C 406.78668212890625 421.1883544921875 403.4266357421875 428.62603759765625 398.9466552734375 435.606689453125 C 394.54962158203125 442.504150390625 389.21923828125 448.67449951171875 382.95556640625 454.11773681640625 C 376.69183349609375 459.5609130859375 369.49481201171875 464.2769775390625 361.36444091796875 468.26593017578125 C 353.23406982421875 472.2548828125 344.3777770996094 475.24658203125 334.7955627441406 477.240966796875 C 325.21331787109375 479.2354736328125 314.9051818847656 480.232666015625 303.87109375 480.232666015625"/>
  </g>
</svg>
