<?xml version="1.0" ?>
<svg xmlns="http://www.w3.org/2000/svg" version="1.1" width="600" height="600">
  <defs/>
  <g>
    <path stroke-width="0" fill="rgb(0, 0, 0)" opacity="1.0" d="M 277.07293701171875 171.95843505859375 C 338.48590087890625 171.95843505859375 399.89892578125 171.95843505859375 461.3118896484375 171.95843505859375 C 461.3118896484375 175.95458984375 461.3118896484375 179.95071411132812 461.3118896484375 183.94686889648438 C 399.89892578125 183.94686889648438 338.48590087890625 183.94686889648438 277.07293701171875 183.94686889648438 C 277.07293701171875 179.95071411132812 277.07293701171875 175.95458984375 277.07293701171875 171.95843505859375M 254.12060546875 250.50347900390625 C 329.5255126953125 250.50347900390625 404.9305419921875 250.50347900390625 480.33544921875 250.50347900390625 C 480.33544921875 254.49960327148438 480.33544921875 258.49578857421875 480.33544921875 262.4919128417969 C 404.9305419921875 262.4919128417969 329.5255126953125 262.4919128417969 254.12060546875 262.4919128417969 C 254.12060546875 258.49578857421875 254.12060546875 254.49960327148438 254.12060546875 250.50347900390625M 258.8764953613281 321.607421875 C 332.55828857421875 321.607421875 406.2401123046875 321.607421875 479.921875 321.607421875 C 479.921875 325.603515625 479.921875 329.5997314453125 479.921875 333.5958251953125 C 406.2401123046875 333.5958251953125 332.55828857421875 333.5958251953125 258.8764953613281 333.5958251953125 C 258.8764953613281 329.5997314453125 258.8764953613281 325.603515625 258.8764953613281 321.607421875M 362.88568115234375 121.11083984375 C 366.74554443359375 121.11083984375 370.60540771484375 121.11083984375 374.4652099609375 121.11083984375 C 374.4652099609375 166.10198974609375 374.4652099609375 211.0931396484375 374.4652099609375 256.08428955078125 C 370.60540771484375 256.08428955078125 366.74554443359375 256.08428955078125 362.88568115234375 256.08428955078125 C 362.88568115234375 211.0931396484375 362.88568115234375 166.10198974609375 362.88568115234375 121.11083984375M 414.37335205078125 258.9780578613281 C 418.37109375 258.9780578613281 422.3687744140625 258.9780578613281 426.366455078125 258.9780578613281 C 426.366455078125 325.46575927734375 426.366455078125 391.95343017578125 426.366455078125 458.44110107421875 C 426.366455078125 464.366455078125 425.4014892578125 468.63818359375 423.4715576171875 471.25634765625 C 421.67950439453125 473.87451171875 418.43994140625 475.87255859375 413.75299072265625 477.2506103515625 C 409.203857421875 478.2152099609375 401.9666748046875 478.766357421875 392.0413818359375 478.9041748046875 C 382.11602783203125 479.0419921875 369.36474609375 479.11083984375 353.7874755859375 479.11083984375 C 353.51177978515625 477.5950927734375 352.9603271484375 475.59698486328125 352.13323974609375 473.11663818359375 C 351.30615234375 470.7740478515625 350.272216796875 468.70709228515625 349.0316162109375 466.91571044921875 C 363.2303466796875 467.1912841796875 375.4991455078125 467.3291015625 385.8380126953125 467.3291015625 C 396.1768798828125 467.3291015625 403.0694580078125 467.1912841796875 406.5157470703125 466.91571044921875 C 409.6864013671875 466.64013671875 411.754150390625 465.95111083984375 412.7191162109375 464.8487548828125 C 413.8218994140625 463.8841552734375 414.37335205078125 461.8861083984375 414.37335205078125 458.8544921875 C 414.37335205078125 392.22900390625 414.37335205078125 325.603515625 414.37335205078125 258.9780578613281M 286.171142578125 362.1201171875 C 289.4796142578125 360.3975830078125 292.78802490234375 358.6751708984375 296.09649658203125 356.95263671875 C 303.54046630859375 363.56695556640625 310.7777099609375 370.8013916015625 317.80816650390625 378.6558837890625 C 324.838623046875 386.37255859375 331.24871826171875 394.158203125 337.0384521484375 402.0126953125 C 342.8282470703125 409.8671875 347.30841064453125 417.10162353515625 350.47900390625 423.7159423828125 C 346.8948974609375 425.78289794921875 343.31072998046875 427.849853515625 339.7265625 429.9168701171875 C 336.8316650390625 423.30255126953125 332.55828857421875 416.068115234375 326.9063720703125 408.213623046875 C 321.25445556640625 400.2213134765625 314.91326904296875 392.22900390625 307.8828125 384.2366943359375 C 300.85235595703125 376.10662841796875 293.61517333984375 368.734375 286.171142578125 362.1201171875M 121.36932373046875 341.4503173828125 C 133.63812255859375 338.00537109375 147.5611572265625 333.9403076171875 163.138427734375 329.25518798828125 C 178.7156982421875 324.4322509765625 195.32681274414062 319.1959228515625 212.97186279296875 313.54620361328125 C 230.61688232421875 307.7586669921875 248.26190185546875 302.10894775390625 265.9069519042969 296.59698486328125 C 266.4583740234375 300.0419616699219 267.009765625 303.4869384765625 267.5611572265625 306.931884765625 C 242.47213745117188 315.19976806640625 217.38311767578125 323.4676513671875 192.2940673828125 331.735595703125 C 167.3428955078125 339.86566162109375 145.21768188476562 347.10009765625 125.91842651367188 353.43878173828125 C 124.40206909179688 349.442626953125 122.88571166992188 345.446533203125 121.36932373046875 341.4503173828125M 198.49740600585938 121.9376220703125 C 202.4951171875 121.9376220703125 206.4927978515625 121.9376220703125 210.49050903320312 121.9376220703125 C 210.49050903320312 240.85757446289062 210.49050903320312 359.77752685546875 210.49050903320312 478.69744873046875 C 206.4927978515625 478.69744873046875 202.4951171875 478.69744873046875 198.49740600585938 478.69744873046875 C 198.49740600585938 359.77752685546875 198.49740600585938 240.85757446289062 198.49740600585938 121.9376220703125M 152.385986328125 143.43417358398438 C 156.38369750976562 144.1231689453125 160.38137817382812 144.8121337890625 164.37908935546875 145.50115966796875 C 162.1734619140625 162.86373901367188 159.4853515625 180.08853149414062 156.31475830078125 197.17550659179688 C 153.1441650390625 214.26251220703125 149.56002807617188 230.31600952148438 145.56231689453125 245.33602905273438 C 141.70245361328125 260.21826171875 137.08444213867188 273.5846862792969 131.70822143554688 285.4353332519531 C 131.01895141601562 285.0219421386719 129.9161376953125 284.4707336425781 128.3997802734375 283.78173828125 C 127.021240234375 283.0927734375 125.57382202148438 282.40374755859375 124.05743408203125 281.71478271484375 C 122.54107666015625 281.0257873535156 121.3004150390625 280.5434875488281 120.33544921875 280.26788330078125 C 126.12521362304688 268.417236328125 131.01895141601562 255.11968994140625 135.01666259765625 240.37530517578125 C 139.01434326171875 225.49307250976562 142.46066284179688 209.7840576171875 145.35552978515625 193.24826049804688 C 148.25042724609375 176.71246337890625 150.59390258789062 160.10775756835938 152.385986328125 143.43417358398438M 146.802978515625 207.3037109375 C 184.29867553710938 207.3037109375 221.79437255859375 207.3037109375 259.2900390625 207.3037109375 C 259.2900390625 211.29986572265625 259.2900390625 215.29598999023438 259.2900390625 219.29214477539062 C 221.58758544921875 219.29214477539062 183.8851318359375 219.29214477539062 146.18264770507812 219.29214477539062 C 146.38943481445312 215.29598999023438 146.59619140625 211.29986572265625 146.802978515625 207.3037109375"/>
  </g>
</svg>
