<?xml version="1.0" ?>
<svg xmlns="http://www.w3.org/2000/svg" version="1.1" width="600" height="600">
  <defs/>
  <g>
    <path stroke-width="0" fill="rgb(0, 0, 0)" opacity="1.0" d="M 155.94903564453125 441.17919921875 C 252.87188720703125 441.17919921875 349.7947998046875 441.17919921875 446.7176513671875 441.17919921875 C 446.7176513671875 445.2022705078125 446.7176513671875 449.2254638671875 446.7176513671875 453.24853515625 C 349.7947998046875 453.24853515625 252.87188720703125 453.24853515625 155.94903564453125 453.24853515625 C 155.94903564453125 449.2254638671875 155.94903564453125 445.2022705078125 155.94903564453125 441.17919921875M 292.18182373046875 120.30059814453125 C 296.13360595703125 120.30059814453125 300.08538818359375 120.30059814453125 304.03717041015625 120.30059814453125 C 304.03717041015625 228.99423217773438 304.03717041015625 337.6878662109375 304.03717041015625 446.3814697265625 C 300.08538818359375 446.3814697265625 296.13360595703125 446.3814697265625 292.18182373046875 446.3814697265625 C 292.18182373046875 337.6878662109375 292.18182373046875 228.99423217773438 292.18182373046875 120.30059814453125M 149.9173583984375 318.61273193359375 C 153.7998046875 318.61273193359375 157.68228149414062 318.61273193359375 161.56472778320312 318.61273193359375 C 161.56472778320312 372.5086669921875 161.56472778320312 426.4046630859375 161.56472778320312 480.300537109375 C 157.68228149414062 480.300537109375 153.7998046875 480.300537109375 149.9173583984375 480.300537109375 C 149.9173583984375 426.4046630859375 149.9173583984375 372.5086669921875 149.9173583984375 318.61273193359375M 440.26995849609375 318.61273193359375 C 444.15240478515625 318.61273193359375 448.034912109375 318.61273193359375 451.9173583984375 318.61273193359375 C 451.9173583984375 372.02313232421875 451.9173583984375 425.43353271484375 451.9173583984375 478.84393310546875 C 448.034912109375 478.84393310546875 444.15240478515625 478.84393310546875 440.26995849609375 478.84393310546875 C 440.26995849609375 425.43353271484375 440.26995849609375 372.02313232421875 440.26995849609375 318.61273193359375M 164.6845703125 158.79769897460938 C 168.5670166015625 158.79769897460938 172.44949340820312 158.79769897460938 176.33197021484375 158.79769897460938 C 176.33197021484375 198.196533203125 176.33197021484375 237.59536743164062 176.33197021484375 276.99420166015625 C 258.972900390625 276.99420166015625 341.6138916015625 276.99420166015625 424.25482177734375 276.99420166015625 C 424.25482177734375 237.59536743164062 424.25482177734375 198.196533203125 424.25482177734375 158.79769897460938 C 428.13726806640625 158.79769897460938 432.019775390625 158.79769897460938 435.9022216796875 158.79769897460938 C 435.9022216796875 202.0809326171875 435.9022216796875 245.36416625976562 435.9022216796875 288.64739990234375 C 345.496337890625 288.64739990234375 255.0904541015625 288.64739990234375 164.6845703125 288.64739990234375 C 164.6845703125 245.36416625976562 164.6845703125 202.0809326171875 164.6845703125 158.79769897460938"/>
  </g>
</svg>
