<?xml version="1.0" encoding="utf-8"?>
<svg xmlns="http://www.w3.org/2000/svg" xmlns:ev="http://www.w3.org/2001/xml-events" xmlns:xlink="http://www.w3.org/1999/xlink" version="1.1" baseProfile="full" width="30496.0" height="1753.0" viewBox="136.0 -1597.0 30496.0 1753.0">
<defs/>
<g><path d="M 26250.000000 -1404.000000 C 26269.333333 -1404.000000 26288.666667 -1404.000000 26308.000000 -1404.000000 C 26308.000000 -941.000000 26308.000000 -478.000000 26308.000000 -15.000000 C 26288.666667 -15.000000 26269.333333 -15.000000 26250.000000 -15.000000 C 26250.000000 -478.000000 26250.000000 -941.000000 26250.000000 -1404.000000z M 25855.000000 -1432.000000 C 26145.333333 -1432.000000 26435.666667 -1432.000000 26726.000000 -1432.000000 C 26726.000000 -921.333333 26726.000000 -410.666667 26726.000000 100.000000 C 26707.666667 100.000000 26689.333333 100.000000 26671.000000 100.000000 C 26671.000000 -392.333333 26671.000000 -884.666667 26671.000000 -1377.000000 C 26417.333333 -1377.000000 26163.666667 -1377.000000 25910.000000 -1377.000000 C 25910.000000 -879.666667 25910.000000 -382.333333 25910.000000 115.000000 C 25891.666667 115.000000 25873.333333 115.000000 25855.000000 115.000000 C 25855.000000 -400.666667 25855.000000 -916.333333 25855.000000 -1432.000000z M 25882.000000 -758.000000 C 26156.333333 -758.000000 26430.666667 -758.000000 26705.000000 -758.000000 C 26705.000000 -739.666667 26705.000000 -721.333333 26705.000000 -703.000000 C 26430.666667 -703.000000 26156.333333 -703.000000 25882.000000 -703.000000 C 25882.000000 -721.333333 25882.000000 -739.666667 25882.000000 -758.000000z M 25882.000000 -48.000000 C 26154.000000 -48.000000 26426.000000 -48.000000 26698.000000 -48.000000 C 26698.000000 -28.666667 26698.000000 -9.333333 26698.000000 10.000000 C 26426.000000 10.000000 26154.000000 10.000000 25882.000000 10.000000 C 25882.000000 -9.333333 25882.000000 -28.666667 25882.000000 -48.000000z M 25402.000000 -730.000000 C 25420.333333 -730.000000 25438.666667 -730.000000 25457.000000 -730.000000 C 25457.000000 -442.666667 25457.000000 -155.333333 25457.000000 132.000000 C 25438.666667 132.000000 25420.333333 132.000000 25402.000000 132.000000 C 25402.000000 -155.333333 25402.000000 -442.666667 25402.000000 -730.000000z M 25371.000000 -1596.000000 C 25389.000000 -1587.000000 25407.000000 -1578.000000 25425.000000 -1569.000000 C 25403.000000 -1523.666667 25378.000000 -1475.666667 25350.000000 -1425.000000 C 25322.000000 -1375.000000 25293.333333 -1326.333333 25264.000000 -1279.000000 C 25235.333333 -1231.666667 25208.333333 -1190.000000 25183.000000 -1154.000000 C 25168.333333 -1161.666667 25153.666667 -1169.333333 25139.000000 -1177.000000 C 25164.333333 -1213.000000 25191.333333 -1255.666667 25220.000000 -1305.000000 C 25248.666667 -1355.000000 25276.333333 -1405.666667 25303.000000 -1457.000000 C 25330.333333 -1508.333333 25353.000000 -1554.666667 25371.000000 -1596.000000z M 25611.000000 -1384.000000 C 25630.000000 -1375.000000 25649.000000 -1366.000000 25668.000000 -1357.000000 C 25626.000000 -1288.333333 25577.666667 -1213.666667 25523.000000 -1133.000000 C 25469.000000 -1052.333333 25414.000000 -974.000000 25358.000000 -898.000000 C 25302.666667 -822.666667 25250.000000 -757.000000 25200.000000 -701.000000 C 25185.333333 -709.333333 25170.666667 -717.666667 25156.000000 -726.000000 C 25193.333333 -768.000000 25232.666667 -816.000000 25274.000000 -870.000000 C 25315.333333 -924.666667 25356.333333 -982.000000 25397.000000 -1042.000000 C 25438.333333 -1102.666667 25477.333333 -1162.333333 25514.000000 -1221.000000 C 25550.666667 -1279.666667 25583.000000 -1334.000000 25611.000000 -1384.000000z M 25054.000000 -1227.000000 C 25066.333333 -1238.000000 25078.666667 -1249.000000 25091.000000 -1260.000000 C 25126.333333 -1230.000000 25162.000000 -1197.333333 25198.000000 -1162.000000 C 25234.000000 -1127.333333 25267.000000 -1092.666667 25297.000000 -1058.000000 C 25327.000000 -1023.333333 25351.000000 -992.666667 25369.000000 -966.000000 C 25356.666667 -952.333333 25344.333333 -938.666667 25332.000000 -925.000000 C 25314.666667 -953.666667 25290.666667 -985.666667 25260.000000 -1021.000000 C 25230.000000 -1057.000000 25197.000000 -1093.000000 25161.000000 -1129.000000 C 25125.666667 -1165.000000 25090.000000 -1197.666667 25054.000000 -1227.000000z M 25548.000000 -964.000000 C 25564.333333 -971.000000 25580.666667 -978.000000 25597.000000 -985.000000 C 25628.333333 -945.000000 25658.333333 -901.333333 25687.000000 -854.000000 C 25715.666667 -806.666667 25741.333333 -760.666667 25764.000000 -716.000000 C 25787.333333 -671.333333 25805.333333 -631.666667 25818.000000 -597.000000 C 25800.666667 -588.000000 25783.333333 -579.000000 25766.000000 -570.000000 C 25753.333333 -606.000000 25735.333333 -646.666667 25712.000000 -692.000000 C 25689.333333 -737.333333 25664.000000 -783.666667 25636.000000 -831.000000 C 25608.000000 -878.333333 25578.666667 -922.666667 25548.000000 -964.000000z M 25031.000000 -737.000000 C 25118.333333 -742.333333 25222.333333 -748.666667 25343.000000 -756.000000 C 25463.666667 -764.000000 25588.000000 -772.333333 25716.000000 -781.000000 C 25715.666667 -763.333333 25715.333333 -745.666667 25715.000000 -728.000000 C 25593.000000 -718.666667 25473.000000 -709.333333 25355.000000 -700.000000 C 25237.666667 -691.333333 25133.666667 -684.000000 25043.000000 -678.000000 C 25039.000000 -697.666667 25035.000000 -717.333333 25031.000000 -737.000000z M 25590.000000 -520.000000 C 25606.000000 -524.666667 25622.000000 -529.333333 25638.000000 -534.000000 C 25668.666667 -474.666667 25697.000000 -410.000000 25723.000000 -340.000000 C 25749.666667 -270.666667 25767.333333 -210.333333 25776.000000 -159.000000 C 25757.333333 -154.000000 25738.666667 -149.000000 25720.000000 -144.000000 C 25715.333333 -178.666667 25706.000000 -217.333333 25692.000000 -260.000000 C 25678.666667 -302.666667 25663.333333 -346.666667 25646.000000 -392.000000 C 25628.666667 -438.000000 25610.000000 -480.666667 25590.000000 -520.000000z M 25183.000000 -528.000000 C 25202.000000 -524.666667 25221.000000 -521.333333 25240.000000 -518.000000 C 25224.666667 -428.666667 25204.666667 -341.000000 25180.000000 -255.000000 C 25156.000000 -169.666667 25127.333333 -96.333333 25094.000000 -35.000000 C 25092.000000 -37.000000 25087.333333 -39.666667 25080.000000 -43.000000 C 25072.666667 -46.333333 25065.333333 -50.000000 25058.000000 -54.000000 C 25051.333333 -58.000000 25045.666667 -60.333333 25041.000000 -61.000000 C 25076.333333 -121.666667 25105.333333 -193.000000 25128.000000 -275.000000 C 25150.666667 -357.666667 25169.000000 -442.000000 25183.000000 -528.000000z "/>
</g></svg>
