<?xml version="1.0" encoding="utf-8"?>
<svg xmlns="http://www.w3.org/2000/svg" xmlns:ev="http://www.w3.org/2001/xml-events" xmlns:xlink="http://www.w3.org/1999/xlink" version="1.1" baseProfile="full" width="7335.0" height="1586.0" viewBox="138.0 -1540.0 7335.0 1586.0">
<defs/>
<g><path d="M 632.000000 -238.000000 C 632.000000 -270.000000 632.000000 -314.666667 632.000000 -372.000000 C 632.000000 -430.000000 632.000000 -494.333333 632.000000 -565.000000 C 632.000000 -636.333333 632.000000 -709.666667 632.000000 -785.000000 C 632.000000 -861.000000 632.000000 -934.000000 632.000000 -1004.000000 C 632.000000 -1074.666667 632.000000 -1137.333333 632.000000 -1192.000000 C 632.000000 -1247.333333 632.000000 -1289.666667 632.000000 -1319.000000 C 632.000000 -1335.666667 632.000000 -1350.666667 632.000000 -1364.000000 C 632.000000 -1377.333333 631.333333 -1390.666667 630.000000 -1404.000000 C 628.666667 -1418.000000 626.000000 -1434.000000 622.000000 -1452.000000 C 647.666667 -1452.000000 673.333333 -1452.000000 699.000000 -1452.000000 C 695.000000 -1424.666667 692.333333 -1401.333333 691.000000 -1382.000000 C 689.666667 -1363.333333 689.000000 -1342.333333 689.000000 -1319.000000 C 689.000000 -1291.000000 689.000000 -1249.000000 689.000000 -1193.000000 C 689.000000 -1137.666667 689.000000 -1074.333333 689.000000 -1003.000000 C 689.000000 -932.333333 689.000000 -859.000000 689.000000 -783.000000 C 689.000000 -707.666667 689.000000 -634.333333 689.000000 -563.000000 C 689.000000 -492.333333 689.000000 -429.666667 689.000000 -375.000000 C 689.000000 -321.000000 689.000000 -280.000000 689.000000 -252.000000 C 689.000000 -204.000000 698.000000 -166.333333 716.000000 -139.000000 C 734.000000 -111.666667 765.666667 -92.000000 811.000000 -80.000000 C 856.333333 -68.666667 920.000000 -63.000000 1002.000000 -63.000000 C 1084.000000 -63.000000 1157.333333 -64.666667 1222.000000 -68.000000 C 1286.666667 -71.333333 1348.666667 -76.666667 1408.000000 -84.000000 C 1468.000000 -92.000000 1530.000000 -101.666667 1594.000000 -113.000000 C 1592.666667 -90.000000 1591.333333 -67.000000 1590.000000 -44.000000 C 1528.666667 -35.333333 1468.333333 -28.000000 1409.000000 -22.000000 C 1350.333333 -16.000000 1286.666667 -11.666667 1218.000000 -9.000000 C 1150.000000 -7.000000 1070.333333 -6.000000 979.000000 -6.000000 C 910.333333 -6.000000 853.000000 -11.000000 807.000000 -21.000000 C 761.666667 -31.000000 726.000000 -46.000000 700.000000 -66.000000 C 674.666667 -86.000000 657.000000 -110.333333 647.000000 -139.000000 C 637.000000 -167.666667 632.000000 -200.666667 632.000000 -238.000000z M 1653.000000 -1110.000000 C 1647.666667 -1103.333333 1642.000000 -1095.000000 1636.000000 -1085.000000 C 1630.666667 -1075.666667 1625.333333 -1067.333333 1620.000000 -1060.000000 C 1597.333333 -1020.000000 1572.000000 -977.333333 1544.000000 -932.000000 C 1516.666667 -886.666667 1487.000000 -839.333333 1455.000000 -790.000000 C 1423.000000 -740.666667 1388.000000 -691.666667 1350.000000 -643.000000 C 1312.666667 -594.333333 1273.000000 -547.666667 1231.000000 -503.000000 C 1212.333333 -514.666667 1193.666667 -526.333333 1175.000000 -538.000000 C 1229.000000 -587.333333 1280.666667 -644.666667 1330.000000 -710.000000 C 1380.000000 -775.333333 1424.666667 -839.666667 1464.000000 -903.000000 C 1503.333333 -966.333333 1533.000000 -1019.333333 1553.000000 -1062.000000 C 1553.000000 -1062.000000 1531.333333 -1057.333333 1488.000000 -1048.000000 C 1444.666667 -1039.333333 1386.666667 -1027.666667 1314.000000 -1013.000000 C 1242.000000 -998.333333 1160.666667 -982.000000 1070.000000 -964.000000 C 980.000000 -946.000000 888.000000 -927.333333 794.000000 -908.000000 C 700.000000 -888.666667 609.666667 -870.333333 523.000000 -853.000000 C 437.000000 -836.333333 361.333333 -821.000000 296.000000 -807.000000 C 230.666667 -793.666667 182.666667 -784.000000 152.000000 -778.000000 C 147.333333 -801.000000 142.666667 -824.000000 138.000000 -847.000000 C 171.333333 -850.333333 219.000000 -857.333333 281.000000 -868.000000 C 343.000000 -879.333333 414.666667 -892.666667 496.000000 -908.000000 C 577.333333 -923.333333 662.333333 -940.000000 751.000000 -958.000000 C 840.333333 -976.000000 928.000000 -993.666667 1014.000000 -1011.000000 C 1100.666667 -1028.333333 1181.000000 -1044.666667 1255.000000 -1060.000000 C 1329.666667 -1075.333333 1392.333333 -1088.000000 1443.000000 -1098.000000 C 1493.666667 -1108.666667 1527.333333 -1115.666667 1544.000000 -1119.000000 C 1558.000000 -1121.666667 1571.333333 -1125.333333 1584.000000 -1130.000000 C 1596.666667 -1134.666667 1605.666667 -1138.666667 1611.000000 -1142.000000 C 1625.000000 -1131.333333 1639.000000 -1120.666667 1653.000000 -1110.000000z "/>
</g>
<g><path d="M 2692.000000 -860.000000 C 2756.000000 -822.666667 2820.666667 -783.000000 2886.000000 -741.000000 C 2951.333333 -699.000000 3015.666667 -655.333333 3079.000000 -610.000000 C 3142.333333 -565.333333 3203.333333 -521.000000 3262.000000 -477.000000 C 3320.666667 -433.000000 3375.000000 -390.000000 3425.000000 -348.000000 C 3411.000000 -332.000000 3397.000000 -316.000000 3383.000000 -300.000000 C 3337.000000 -340.666667 3284.666667 -383.666667 3226.000000 -429.000000 C 3168.000000 -474.333333 3106.666667 -519.666667 3042.000000 -565.000000 C 2977.333333 -611.000000 2912.000000 -655.666667 2846.000000 -699.000000 C 2780.666667 -742.333333 2716.333333 -783.333333 2653.000000 -822.000000 C 2666.000000 -834.666667 2679.000000 -847.333333 2692.000000 -860.000000z M 3544.000000 -1235.000000 C 3539.333333 -1225.666667 3534.666667 -1213.666667 3530.000000 -1199.000000 C 3525.333333 -1184.333333 3521.666667 -1173.666667 3519.000000 -1167.000000 C 3501.000000 -1095.666667 3475.333333 -1020.333333 3442.000000 -941.000000 C 3409.333333 -861.666667 3370.000000 -783.000000 3324.000000 -705.000000 C 3278.666667 -627.000000 3228.000000 -554.000000 3172.000000 -486.000000 C 3088.666667 -384.666667 2982.333333 -287.333333 2853.000000 -194.000000 C 2723.666667 -100.666667 2568.666667 -21.333333 2388.000000 44.000000 C 2371.000000 28.000000 2354.000000 12.000000 2337.000000 -4.000000 C 2441.666667 -34.666667 2542.666667 -76.333333 2640.000000 -129.000000 C 2737.333333 -182.333333 2827.666667 -242.666667 2911.000000 -310.000000 C 2994.333333 -377.333333 3066.000000 -447.333333 3126.000000 -520.000000 C 3182.000000 -588.000000 3232.333333 -661.000000 3277.000000 -739.000000 C 3322.333333 -817.000000 3361.333333 -895.333333 3394.000000 -974.000000 C 3426.666667 -1052.666667 3451.333333 -1126.666667 3468.000000 -1196.000000 C 3210.000000 -1196.000000 2952.000000 -1196.000000 2694.000000 -1196.000000 C 2705.333333 -1215.333333 2716.666667 -1234.666667 2728.000000 -1254.000000 C 2952.666667 -1254.000000 3177.333333 -1254.000000 3402.000000 -1254.000000 C 3424.000000 -1254.000000 3441.333333 -1255.000000 3454.000000 -1257.000000 C 3466.666667 -1259.000000 3477.666667 -1262.333333 3487.000000 -1267.000000 C 3506.000000 -1256.333333 3525.000000 -1245.666667 3544.000000 -1235.000000z M 2886.000000 -1494.000000 C 2876.666667 -1477.333333 2867.333333 -1459.333333 2858.000000 -1440.000000 C 2848.666667 -1420.666667 2840.000000 -1403.333333 2832.000000 -1388.000000 C 2798.666667 -1325.333333 2754.666667 -1253.333333 2700.000000 -1172.000000 C 2646.000000 -1090.666667 2578.666667 -1007.333333 2498.000000 -922.000000 C 2417.333333 -837.333333 2320.666667 -756.000000 2208.000000 -678.000000 C 2191.333333 -690.666667 2174.666667 -703.333333 2158.000000 -716.000000 C 2265.333333 -784.000000 2360.666667 -860.666667 2444.000000 -946.000000 C 2527.333333 -1032.000000 2597.000000 -1116.666667 2653.000000 -1200.000000 C 2709.666667 -1283.333333 2751.333333 -1355.666667 2778.000000 -1417.000000 C 2783.333333 -1427.000000 2790.000000 -1442.333333 2798.000000 -1463.000000 C 2806.666667 -1483.666667 2812.333333 -1502.333333 2815.000000 -1519.000000 C 2838.666667 -1510.666667 2862.333333 -1502.333333 2886.000000 -1494.000000z "/>
</g>
<g><path d="M 5255.000000 -1473.000000 C 5271.666667 -1451.000000 5289.666667 -1424.666667 5309.000000 -1394.000000 C 5328.333333 -1363.333333 5347.333333 -1332.000000 5366.000000 -1300.000000 C 5385.333333 -1268.000000 5402.000000 -1238.000000 5416.000000 -1210.000000 C 5398.333333 -1201.000000 5380.666667 -1192.000000 5363.000000 -1183.000000 C 5345.000000 -1221.000000 5320.333333 -1265.666667 5289.000000 -1317.000000 C 5257.666667 -1368.333333 5229.000000 -1412.000000 5203.000000 -1448.000000 C 5220.333333 -1456.333333 5237.666667 -1464.666667 5255.000000 -1473.000000z M 5449.000000 -1540.000000 C 5467.000000 -1516.666667 5486.000000 -1489.333333 5506.000000 -1458.000000 C 5526.666667 -1426.666667 5547.000000 -1395.333333 5567.000000 -1364.000000 C 5587.000000 -1332.666667 5603.333333 -1304.333333 5616.000000 -1279.000000 C 5598.000000 -1270.000000 5580.000000 -1261.000000 5562.000000 -1252.000000 C 5540.666667 -1295.333333 5515.000000 -1341.000000 5485.000000 -1389.000000 C 5455.666667 -1437.000000 5427.000000 -1479.000000 5399.000000 -1515.000000 C 5415.666667 -1523.333333 5432.333333 -1531.666667 5449.000000 -1540.000000z M 4729.000000 -1457.000000 C 4727.666667 -1437.000000 4726.333333 -1414.333333 4725.000000 -1389.000000 C 4723.666667 -1364.333333 4722.333333 -1340.333333 4721.000000 -1317.000000 C 4715.000000 -1116.333333 4696.000000 -943.000000 4664.000000 -797.000000 C 4632.000000 -651.000000 4589.000000 -525.666667 4535.000000 -421.000000 C 4481.000000 -317.000000 4418.666667 -228.000000 4348.000000 -154.000000 C 4278.000000 -80.666667 4201.333333 -16.000000 4118.000000 40.000000 C 4099.666667 24.666667 4081.333333 9.333333 4063.000000 -6.000000 C 4084.333333 -16.000000 4108.000000 -30.666667 4134.000000 -50.000000 C 4160.666667 -69.333333 4183.666667 -86.666667 4203.000000 -102.000000 C 4260.333333 -148.000000 4316.000000 -204.333333 4370.000000 -271.000000 C 4424.000000 -337.666667 4472.666667 -418.333333 4516.000000 -513.000000 C 4559.333333 -607.666667 4594.333333 -720.666667 4621.000000 -852.000000 C 4648.333333 -984.000000 4662.666667 -1138.333333 4664.000000 -1315.000000 C 4664.000000 -1330.333333 4663.666667 -1346.000000 4663.000000 -1362.000000 C 4662.333333 -1378.000000 4661.333333 -1394.333333 4660.000000 -1411.000000 C 4658.666667 -1427.666667 4656.666667 -1443.000000 4654.000000 -1457.000000 C 4679.000000 -1457.000000 4704.000000 -1457.000000 4729.000000 -1457.000000z M 5412.000000 -1071.000000 C 5410.000000 -1054.333333 5408.333333 -1039.333333 5407.000000 -1026.000000 C 5405.666667 -1012.666667 5404.333333 -999.000000 5403.000000 -985.000000 C 5401.666667 -953.000000 5399.666667 -906.666667 5397.000000 -846.000000 C 5394.333333 -785.333333 5390.000000 -717.666667 5384.000000 -643.000000 C 5378.666667 -569.000000 5371.333333 -494.666667 5362.000000 -420.000000 C 5353.333333 -346.000000 5342.666667 -278.000000 5330.000000 -216.000000 C 5317.333333 -154.000000 5302.000000 -105.666667 5284.000000 -71.000000 C 5266.000000 -37.666667 5244.000000 -15.000000 5218.000000 -3.000000 C 5192.666667 9.000000 5159.666667 15.000000 5119.000000 15.000000 C 5077.666667 15.000000 5030.666667 14.000000 4978.000000 12.000000 C 4926.000000 10.666667 4873.666667 8.666667 4821.000000 6.000000 C 4818.333333 -15.333333 4815.666667 -36.666667 4813.000000 -58.000000 C 4869.666667 -52.666667 4923.333333 -48.333333 4974.000000 -45.000000 C 5024.666667 -41.666667 5071.666667 -40.000000 5115.000000 -40.000000 C 5139.000000 -40.000000 5161.333333 -43.666667 5182.000000 -51.000000 C 5202.666667 -59.000000 5218.666667 -74.666667 5230.000000 -98.000000 C 5248.000000 -132.666667 5263.333333 -180.333333 5276.000000 -241.000000 C 5288.666667 -301.666667 5299.333333 -369.000000 5308.000000 -443.000000 C 5317.333333 -517.666667 5324.666667 -592.333333 5330.000000 -667.000000 C 5335.333333 -742.333333 5338.666667 -812.000000 5340.000000 -876.000000 C 5342.000000 -940.666667 5343.000000 -993.666667 5343.000000 -1035.000000 C 4981.000000 -1035.000000 4619.000000 -1035.000000 4257.000000 -1035.000000 C 4213.000000 -1035.000000 4177.333333 -1034.666667 4150.000000 -1034.000000 C 4122.666667 -1033.333333 4095.000000 -1031.666667 4067.000000 -1029.000000 C 4067.000000 -1052.666667 4067.000000 -1076.333333 4067.000000 -1100.000000 C 4093.666667 -1098.666667 4122.333333 -1097.000000 4153.000000 -1095.000000 C 4183.666667 -1093.000000 4217.666667 -1092.000000 4255.000000 -1092.000000 C 4591.000000 -1092.000000 4927.000000 -1092.000000 5263.000000 -1092.000000 C 5289.666667 -1092.000000 5310.333333 -1092.666667 5325.000000 -1094.000000 C 5339.666667 -1095.333333 5351.666667 -1096.666667 5361.000000 -1098.000000 C 5378.000000 -1089.000000 5395.000000 -1080.000000 5412.000000 -1071.000000z "/>
</g>
<g><path d="M 6371.000000 -1480.000000 C 6371.666667 -1464.666667 6374.666667 -1447.333333 6380.000000 -1428.000000 C 6385.333333 -1409.333333 6391.000000 -1385.666667 6397.000000 -1357.000000 C 6411.666667 -1307.666667 6429.333333 -1244.666667 6450.000000 -1168.000000 C 6471.333333 -1092.000000 6494.000000 -1010.000000 6518.000000 -922.000000 C 6542.666667 -834.666667 6567.333333 -746.333333 6592.000000 -657.000000 C 6617.333333 -568.333333 6640.666667 -485.000000 6662.000000 -407.000000 C 6684.000000 -329.000000 6702.666667 -262.000000 6718.000000 -206.000000 C 6733.333333 -150.666667 6744.333333 -112.666667 6751.000000 -92.000000 C 6754.333333 -79.333333 6758.000000 -66.333333 6762.000000 -53.000000 C 6766.000000 -39.666667 6770.333333 -26.000000 6775.000000 -12.000000 C 6780.333333 1.333333 6785.000000 14.333333 6789.000000 27.000000 C 6765.333333 33.333333 6741.666667 39.666667 6718.000000 46.000000 C 6715.333333 28.000000 6711.666667 8.333333 6707.000000 -13.000000 C 6703.000000 -35.000000 6697.666667 -55.666667 6691.000000 -75.000000 C 6686.333333 -94.333333 6676.666667 -129.666667 6662.000000 -181.000000 C 6648.000000 -233.000000 6631.000000 -296.000000 6611.000000 -370.000000 C 6591.666667 -444.666667 6570.333333 -523.666667 6547.000000 -607.000000 C 6524.333333 -691.000000 6501.333333 -774.333333 6478.000000 -857.000000 C 6455.333333 -939.666667 6434.333333 -1015.666667 6415.000000 -1085.000000 C 6395.666667 -1155.000000 6379.666667 -1213.000000 6367.000000 -1259.000000 C 6354.333333 -1305.666667 6346.000000 -1333.333333 6342.000000 -1342.000000 C 6332.666667 -1370.000000 6324.333333 -1393.666667 6317.000000 -1413.000000 C 6310.333333 -1432.333333 6304.000000 -1448.333333 6298.000000 -1461.000000 C 6322.333333 -1467.333333 6346.666667 -1473.666667 6371.000000 -1480.000000z M 7473.000000 -1204.000000 C 7449.666667 -1158.000000 7418.666667 -1106.666667 7380.000000 -1050.000000 C 7342.000000 -994.000000 7299.666667 -937.000000 7253.000000 -879.000000 C 7206.333333 -821.666667 7159.666667 -767.666667 7113.000000 -717.000000 C 7066.333333 -666.333333 7023.666667 -623.666667 6985.000000 -589.000000 C 6964.000000 -600.000000 6943.000000 -611.000000 6922.000000 -622.000000 C 6964.000000 -655.333333 7008.000000 -695.333333 7054.000000 -742.000000 C 7100.000000 -788.666667 7144.333333 -838.000000 7187.000000 -890.000000 C 7230.333333 -942.000000 7269.333333 -992.000000 7304.000000 -1040.000000 C 7338.666667 -1088.000000 7366.000000 -1129.333333 7386.000000 -1164.000000 C 7373.333333 -1161.333333 7340.333333 -1154.666667 7287.000000 -1144.000000 C 7234.333333 -1134.000000 7167.333333 -1121.000000 7086.000000 -1105.000000 C 7004.666667 -1089.000000 6916.666667 -1071.666667 6822.000000 -1053.000000 C 6727.333333 -1034.333333 6632.000000 -1015.666667 6536.000000 -997.000000 C 6440.000000 -979.000000 6350.000000 -961.666667 6266.000000 -945.000000 C 6182.000000 -928.333333 6110.666667 -913.666667 6052.000000 -901.000000 C 5993.333333 -889.000000 5953.666667 -880.666667 5933.000000 -876.000000 C 5926.666667 -899.000000 5920.333333 -922.000000 5914.000000 -945.000000 C 5943.333333 -947.000000 5970.666667 -949.666667 5996.000000 -953.000000 C 6022.000000 -956.333333 6050.333333 -960.666667 6081.000000 -966.000000 C 6095.000000 -968.666667 6127.333333 -974.666667 6178.000000 -984.000000 C 6229.333333 -993.333333 6292.000000 -1005.000000 6366.000000 -1019.000000 C 6440.666667 -1033.666667 6520.666667 -1049.000000 6606.000000 -1065.000000 C 6692.000000 -1081.000000 6777.666667 -1097.000000 6863.000000 -1113.000000 C 6948.333333 -1129.000000 7027.666667 -1144.000000 7101.000000 -1158.000000 C 7175.000000 -1172.000000 7236.333333 -1184.000000 7285.000000 -1194.000000 C 7334.333333 -1204.666667 7365.000000 -1211.000000 7377.000000 -1213.000000 C 7385.666667 -1215.666667 7395.000000 -1218.333333 7405.000000 -1221.000000 C 7415.666667 -1223.666667 7424.666667 -1227.000000 7432.000000 -1231.000000 C 7445.666667 -1222.000000 7459.333333 -1213.000000 7473.000000 -1204.000000z "/>
</g>
</svg>
