<?xml version="1.0" encoding="utf-8"?>
<svg xmlns="http://www.w3.org/2000/svg" xmlns:ev="http://www.w3.org/2001/xml-events" xmlns:xlink="http://www.w3.org/1999/xlink" version="1.1" baseProfile="full" width="5474.0" height="1561.0" viewBox="190.0 -1496.0 5474.0 1561.0">
<defs/>
<g><path d="M 2292.000000 -1254.000000 C 2419.333333 -1238.666667 2546.333333 -1230.000000 2673.000000 -1228.000000 C 2799.666667 -1226.000000 2910.333333 -1230.000000 3005.000000 -1240.000000 C 3075.000000 -1249.333333 3146.666667 -1262.000000 3220.000000 -1278.000000 C 3294.000000 -1294.000000 3360.666667 -1312.000000 3420.000000 -1332.000000 C 3423.666667 -1312.333333 3427.333333 -1292.666667 3431.000000 -1273.000000 C 3375.000000 -1256.333333 3310.000000 -1240.333333 3236.000000 -1225.000000 C 3162.666667 -1209.666667 3090.666667 -1197.333333 3020.000000 -1188.000000 C 2924.000000 -1178.000000 2812.000000 -1173.333333 2684.000000 -1174.000000 C 2556.000000 -1174.666667 2427.333333 -1180.666667 2298.000000 -1192.000000 C 2296.000000 -1212.666667 2294.000000 -1233.333333 2292.000000 -1254.000000z M 2252.000000 -868.000000 C 2356.000000 -856.666667 2460.666667 -849.333333 2566.000000 -846.000000 C 2671.333333 -842.666667 2772.333333 -843.000000 2869.000000 -847.000000 C 2965.666667 -851.666667 3050.000000 -859.333333 3122.000000 -870.000000 C 3201.333333 -880.000000 3279.333333 -893.666667 3356.000000 -911.000000 C 3432.666667 -928.333333 3494.000000 -944.666667 3540.000000 -960.000000 C 3543.333333 -940.000000 3546.666667 -920.000000 3550.000000 -900.000000 C 3502.666667 -886.000000 3443.000000 -871.666667 3371.000000 -857.000000 C 3299.666667 -842.333333 3222.333333 -830.000000 3139.000000 -820.000000 C 3062.333333 -809.333333 2975.333333 -801.333333 2878.000000 -796.000000 C 2780.666667 -791.333333 2678.666667 -790.000000 2572.000000 -792.000000 C 2466.000000 -794.000000 2360.666667 -798.666667 2256.000000 -806.000000 C 2254.666667 -826.666667 2253.333333 -847.333333 2252.000000 -868.000000z M 2924.000000 -1357.000000 C 2918.666667 -1379.000000 2912.333333 -1401.000000 2905.000000 -1423.000000 C 2898.333333 -1445.666667 2892.000000 -1465.333333 2886.000000 -1482.000000 C 2909.000000 -1486.666667 2932.000000 -1491.333333 2955.000000 -1496.000000 C 2960.333333 -1450.000000 2970.666667 -1397.333333 2986.000000 -1338.000000 C 3001.333333 -1279.333333 3018.000000 -1221.000000 3036.000000 -1163.000000 C 3054.666667 -1105.666667 3071.000000 -1056.666667 3085.000000 -1016.000000 C 3105.666667 -960.666667 3127.666667 -904.666667 3151.000000 -848.000000 C 3175.000000 -792.000000 3201.666667 -736.000000 3231.000000 -680.000000 C 3261.000000 -624.666667 3294.333333 -570.000000 3331.000000 -516.000000 C 3339.000000 -504.666667 3348.000000 -493.666667 3358.000000 -483.000000 C 3368.000000 -472.333333 3378.333333 -461.666667 3389.000000 -451.000000 C 3374.333333 -432.000000 3359.666667 -413.000000 3345.000000 -394.000000 C 3309.000000 -405.333333 3269.000000 -414.333333 3225.000000 -421.000000 C 3181.666667 -428.333333 3137.666667 -434.333333 3093.000000 -439.000000 C 3048.333333 -444.333333 3005.000000 -449.000000 2963.000000 -453.000000 C 2964.666667 -469.666667 2966.333333 -486.333333 2968.000000 -503.000000 C 3030.666667 -496.333333 3094.000000 -489.000000 3158.000000 -481.000000 C 3222.000000 -473.666667 3270.000000 -467.666667 3302.000000 -463.000000 C 3247.333333 -542.333333 3197.333333 -629.666667 3152.000000 -725.000000 C 3107.333333 -820.333333 3069.000000 -910.666667 3037.000000 -996.000000 C 3021.666667 -1038.666667 3007.000000 -1081.333333 2993.000000 -1124.000000 C 2979.000000 -1166.666667 2966.333333 -1208.000000 2955.000000 -1248.000000 C 2943.666667 -1288.666667 2933.333333 -1325.000000 2924.000000 -1357.000000z M 2442.000000 -488.000000 C 2419.333333 -453.333333 2401.000000 -418.666667 2387.000000 -384.000000 C 2373.666667 -349.333333 2367.000000 -309.666667 2367.000000 -265.000000 C 2367.000000 -177.666667 2406.000000 -109.666667 2484.000000 -61.000000 C 2562.666667 -12.333333 2689.000000 12.000000 2863.000000 12.000000 C 2951.000000 12.000000 3027.666667 8.666667 3093.000000 2.000000 C 3158.333333 -4.666667 3226.333333 -15.000000 3297.000000 -29.000000 C 3297.000000 -8.333333 3297.000000 12.333333 3297.000000 33.000000 C 3230.333333 44.333333 3163.333333 52.333333 3096.000000 57.000000 C 3028.666667 62.333333 2952.333333 65.000000 2867.000000 65.000000 C 2743.666667 65.000000 2641.000000 52.666667 2559.000000 28.000000 C 2477.000000 4.000000 2415.666667 -32.666667 2375.000000 -82.000000 C 2334.333333 -131.333333 2314.000000 -192.333333 2314.000000 -265.000000 C 2314.000000 -312.333333 2320.000000 -354.000000 2332.000000 -390.000000 C 2344.000000 -426.666667 2360.333333 -465.000000 2381.000000 -505.000000 C 2401.333333 -499.333333 2421.666667 -493.666667 2442.000000 -488.000000z "/>
</g></svg>
