<?xml version="1.0" encoding="utf-8"?>
<svg xmlns="http://www.w3.org/2000/svg" xmlns:ev="http://www.w3.org/2001/xml-events" xmlns:xlink="http://www.w3.org/1999/xlink" version="1.1" baseProfile="full" width="20903.0" height="1740.0" viewBox="106.0 -1596.0 20903.0 1740.0">
<defs/>
<g><path d="M 15039.000000 -1275.000000 C 15035.666667 -1265.666667 15033.000000 -1257.666667 15031.000000 -1251.000000 C 15029.000000 -1245.000000 15026.666667 -1233.000000 15024.000000 -1215.000000 C 15015.333333 -1161.666667 15002.333333 -1103.000000 14985.000000 -1039.000000 C 14967.666667 -975.000000 14946.666667 -910.000000 14922.000000 -844.000000 C 14898.000000 -778.000000 14870.666667 -715.000000 14840.000000 -655.000000 C 14809.333333 -595.666667 14776.000000 -543.666667 14740.000000 -499.000000 C 14681.333333 -426.333333 14618.000000 -359.000000 14550.000000 -297.000000 C 14482.000000 -235.666667 14403.333333 -180.333333 14314.000000 -131.000000 C 14225.333333 -82.333333 14121.000000 -39.333333 14001.000000 -2.000000 C 13983.666667 -21.333333 13966.333333 -40.666667 13949.000000 -60.000000 C 14070.333333 -92.666667 14176.000000 -132.000000 14266.000000 -178.000000 C 14356.666667 -224.666667 14436.666667 -277.666667 14506.000000 -337.000000 C 14576.000000 -396.333333 14638.666667 -462.000000 14694.000000 -534.000000 C 14742.666667 -596.666667 14785.666667 -670.000000 14823.000000 -754.000000 C 14861.000000 -838.666667 14892.666667 -924.000000 14918.000000 -1010.000000 C 14944.000000 -1096.666667 14961.333333 -1174.000000 14970.000000 -1242.000000 C 14952.000000 -1242.000000 14915.333333 -1242.000000 14860.000000 -1242.000000 C 14805.333333 -1242.000000 14740.000000 -1242.000000 14664.000000 -1242.000000 C 14588.000000 -1242.000000 14508.333333 -1242.000000 14425.000000 -1242.000000 C 14341.666667 -1242.000000 14262.666667 -1242.000000 14188.000000 -1242.000000 C 14113.333333 -1242.000000 14050.000000 -1242.000000 13998.000000 -1242.000000 C 13946.000000 -1242.000000 13913.666667 -1242.000000 13901.000000 -1242.000000 C 13869.000000 -1242.000000 13841.333333 -1241.666667 13818.000000 -1241.000000 C 13795.333333 -1240.333333 13771.666667 -1239.333333 13747.000000 -1238.000000 C 13747.000000 -1261.333333 13747.000000 -1284.666667 13747.000000 -1308.000000 C 13763.666667 -1306.666667 13779.666667 -1305.000000 13795.000000 -1303.000000 C 13810.333333 -1301.000000 13827.000000 -1299.666667 13845.000000 -1299.000000 C 13863.000000 -1298.333333 13882.333333 -1298.000000 13903.000000 -1298.000000 C 13913.000000 -1298.000000 13938.000000 -1298.000000 13978.000000 -1298.000000 C 14018.666667 -1298.000000 14068.666667 -1298.000000 14128.000000 -1298.000000 C 14188.000000 -1298.000000 14252.333333 -1298.000000 14321.000000 -1298.000000 C 14390.333333 -1298.000000 14459.000000 -1298.000000 14527.000000 -1298.000000 C 14595.666667 -1298.000000 14659.333333 -1298.000000 14718.000000 -1298.000000 C 14777.333333 -1298.000000 14826.666667 -1298.000000 14866.000000 -1298.000000 C 14906.000000 -1298.000000 14930.666667 -1298.000000 14940.000000 -1298.000000 C 14950.000000 -1298.000000 14959.000000 -1298.333333 14967.000000 -1299.000000 C 14975.666667 -1299.666667 14985.000000 -1301.333333 14995.000000 -1304.000000 C 15009.666667 -1294.333333 15024.333333 -1284.666667 15039.000000 -1275.000000z "/>
</g></svg>
