<?xml version="1.0" ?>
<svg xmlns="http://www.w3.org/2000/svg" version="1.1" width="600" height="600">
  <defs/>
  <g>
    <path stroke-width="0" fill="rgb(0, 0, 0)" opacity="1.0" d="M 276.63427734375 142.36270141601562 C 339.362060546875 142.36270141601562 402.089599609375 142.36270141601562 464.8173828125 142.36270141601562 C 464.8173828125 146.23141479492188 464.8173828125 150.10018920898438 464.8173828125 153.96890258789062 C 402.089599609375 153.96890258789062 339.362060546875 153.96890258789062 276.63427734375 153.96890258789062 C 276.63427734375 150.10018920898438 276.63427734375 146.23141479492188 276.63427734375 142.36270141601562M 262.955810546875 283.7098388671875 C 335.70068359375 283.7098388671875 408.4453125 283.7098388671875 481.18994140625 283.7098388671875 C 481.18994140625 287.64764404296875 481.18994140625 291.58551025390625 481.18994140625 295.5233154296875 C 408.4453125 295.5233154296875 335.70068359375 295.5233154296875 262.955810546875 295.5233154296875 C 262.955810546875 291.58551025390625 262.955810546875 287.64764404296875 262.955810546875 283.7098388671875M 366.7880859375 224.43524169921875 C 370.65673828125 224.43524169921875 374.525390625 224.43524169921875 378.39404296875 224.43524169921875 C 378.39404296875 302.15545654296875 378.39404296875 379.8756103515625 378.39404296875 457.5958251953125 C 378.39404296875 463.67529296875 377.35791015625 468.02764892578125 375.28515625 470.65283203125 C 373.35107421875 473.278076171875 370.03515625 475.281494140625 365.33740234375 476.6632080078125 C 360.22509765625 477.7685546875 352.556884765625 478.39031982421875 342.33251953125 478.52850341796875 C 332.1083984375 478.6666259765625 318.56787109375 478.7357177734375 301.71142578125 478.7357177734375 C 301.435302734375 477.0777587890625 300.744384765625 475.07427978515625 299.63916015625 472.72540283203125 C 298.53369140625 470.5146484375 297.49755859375 468.51123046875 296.5302734375 466.71502685546875 C 311.590576171875 466.9913330078125 324.578125 467.1295166015625 335.4931640625 467.1295166015625 C 346.546630859375 467.1295166015625 353.9384765625 466.9913330078125 357.6689453125 466.71502685546875 C 361.3994140625 466.438720703125 363.8173828125 465.67877197265625 364.9228515625 464.43524169921875 C 366.166259765625 463.32989501953125 366.7880859375 461.188232421875 366.7880859375 458.0103759765625 C 366.7880859375 380.1519775390625 366.7880859375 302.2936096191406 366.7880859375 224.43524169921875M 460.46484375 142.36270141601562 C 461.363037109375 142.36270141601562 462.26123046875 142.36270141601562 463.1591796875 142.36270141601562 C 463.98828125 142.08633422851562 464.8173828125 141.81002807617188 465.646240234375 141.53366088867188 C 468.40966796875 143.26080322265625 471.1728515625 144.98788452148438 473.936279296875 146.71502685546875 C 465.92236328125 157.90673828125 456.38916015625 169.09844970703125 445.3359375 180.2901611328125 C 434.42041015625 191.34368896484375 422.95263671875 201.70639038085938 410.93212890625 211.37823486328125 C 399.050048828125 221.05007934570312 387.58203125 229.47842407226562 376.52880859375 236.6632080078125 C 375.423583984375 235.419677734375 374.041748046875 234.1070556640625 372.3837890625 232.72540283203125 C 370.864013671875 231.20550537109375 369.413330078125 230.03106689453125 368.03173828125 229.20208740234375 C 379.22314453125 222.2935791015625 390.621826171875 214.14163208007812 402.227783203125 204.74609375 C 413.97216796875 195.3505859375 424.956298828125 185.47149658203125 435.1806640625 175.10879516601562 C 445.40478515625 164.74612426757812 453.8330078125 154.93609619140625 460.46484375 145.67874145507812 C 460.46484375 144.57339477539062 460.46484375 143.46804809570312 460.46484375 142.36270141601562M 120.16064453125 206.40414428710938 C 164.7193603515625 206.40414428710938 209.278076171875 206.40414428710938 253.8369140625 206.40414428710938 C 253.8369140625 210.41107177734375 253.8369140625 214.41796875 253.8369140625 218.42486572265625 C 209.278076171875 218.42486572265625 164.7193603515625 218.42486572265625 120.16064453125 218.42486572265625 C 120.16064453125 214.41796875 120.16064453125 210.41107177734375 120.16064453125 206.40414428710938M 187.1024169921875 121.63729858398438 C 191.0401611328125 122.18997192382812 194.9779052734375 122.74267578125 198.9156494140625 123.29531860351562 C 194.9088134765625 141.81002807617188 190.3492431640625 162.05181884765625 185.2371826171875 184.02072143554688 C 180.26318359375 205.85147094726562 175.0819091796875 227.95855712890625 169.693359375 250.34197998046875 C 164.304931640625 272.58721923828125 158.9854736328125 293.79620361328125 153.735107421875 313.96893310546875 C 148.623046875 334.1416015625 143.787109375 351.7581787109375 139.2276611328125 366.81866455078125 C 135.63525390625 364.815185546875 132.0430908203125 362.811767578125 128.45068359375 360.80828857421875 C 133.0101318359375 346.300537109375 137.8460693359375 329.09844970703125 142.9581298828125 309.20208740234375 C 148.20849609375 289.3056945800781 153.458740234375 268.373046875 158.7091064453125 246.40414428710938 C 164.09765625 224.29705810546875 169.2098388671875 202.535400390625 174.045654296875 181.11917114257812 C 179.0196533203125 159.56475830078125 183.3719482421875 139.73748779296875 187.1024169921875 121.63729858398438M 136.9478759765625 342.5699462890625 C 139.2967529296875 339.80657958984375 141.6455078125 337.043212890625 143.994384765625 334.27978515625 C 159.883544921875 342.15545654296875 175.910888671875 351.34368896484375 192.076416015625 361.84454345703125 C 208.380126953125 372.345458984375 223.3021240234375 383.12261962890625 236.8424072265625 394.1761474609375 C 250.3826904296875 405.091552734375 261.22900390625 415.4542236328125 269.380615234375 425.2642822265625 C 266.8935546875 428.580322265625 264.40673828125 431.8963623046875 261.91943359375 435.21240234375 C 253.629638671875 425.40240478515625 242.6453857421875 414.90155029296875 228.9669189453125 403.7098388671875 C 215.288330078125 392.3800048828125 200.5045166015625 381.3955078125 184.6153564453125 370.7564697265625 C 168.726318359375 359.979248046875 152.8370361328125 350.583740234375 136.9478759765625 342.5699462890625M 250.3135986328125 206.40414428710938 C 251.00439453125 206.40414428710938 251.6953125 206.40414428710938 252.3861083984375 206.40414428710938 C 253.1461181640625 206.1968994140625 253.9058837890625 205.9896240234375 254.6658935546875 205.78237915039062 C 257.221923828125 206.54229736328125 259.778076171875 207.30224609375 262.333984375 208.06219482421875 C 258.327392578125 258.7702941894531 250.451904296875 302.01727294921875 238.7076416015625 337.8031005859375 C 227.1016845703125 373.58892822265625 212.3868408203125 403.01898193359375 194.5633544921875 426.09326171875 C 176.7398681640625 449.16754150390625 156.5675048828125 467.1986083984375 134.04638671875 480.1865234375 C 133.3555908203125 478.9429931640625 132.18115234375 477.28497314453125 130.523193359375 475.21240234375 C 128.865234375 473.278076171875 127.2762451171875 471.6199951171875 125.7564697265625 470.23834228515625 C 147.4486083984375 458.632080078125 166.9300537109375 441.7064208984375 184.200927734375 419.461181640625 C 201.4718017578125 397.0777587890625 215.7718505859375 368.6148681640625 227.1016845703125 334.072509765625 C 238.5693359375 299.3920593261719 246.306884765625 258.0794372558594 250.3135986328125 210.13470458984375 C 250.3135986328125 208.89117431640625 250.3135986328125 207.64764404296875 250.3135986328125 206.40414428710938"/>
  </g>
</svg>
