<?xml version="1.0" ?>
<svg xmlns="http://www.w3.org/2000/svg" version="1.1" width="600" height="600">
  <defs/>
  <g>
    <path stroke-width="0" fill="rgb(0, 0, 0)" opacity="1.0" d="M 165.12969970703125 263.206298828125 C 164.99667358398438 263.89910888671875 164.84701538085938 264.9052734375 164.68072509765625 266.2249755859375 C 164.514404296875 267.5115966796875 164.38137817382812 268.69921875 164.28158569335938 269.78790283203125 C 163.81597900390625 273.1859130859375 163.350341796875 276.6334228515625 162.88470458984375 280.1304931640625 C 162.45233154296875 283.62744140625 161.85366821289062 287.157470703125 161.08868408203125 290.720458984375 C 160.32373046875 294.25042724609375 159.27606201171875 297.846435546875 157.9456787109375 301.50836181640625 C 156.34921264648438 305.830078125 154.53659057617188 309.887939453125 152.50775146484375 313.681884765625 C 150.51220703125 317.475830078125 148.36697387695312 320.8243408203125 146.07205200195312 323.7275390625 C 143.77716064453125 326.59765625 141.29934692382812 328.841064453125 138.63858032226562 330.45758056640625 C 135.97781372070312 332.0740966796875 133.18402099609375 332.88238525390625 130.2572021484375 332.88238525390625 C 128.32815551757812 332.88238525390625 126.61529541015625 332.3380126953125 125.11862182617188 331.2493896484375 C 123.6219482421875 330.16064453125 122.44125366210938 328.67608642578125 121.57650756835938 326.795654296875 C 120.71176147460938 324.8822021484375 120.27938842773438 322.6552734375 120.27938842773438 320.11505126953125 C 120.27938842773438 315.6943359375 120.96121215820312 311.6199951171875 122.3248291015625 307.89202880859375 C 123.72174072265625 304.131103515625 125.5010986328125 300.7000732421875 127.6629638671875 297.5989990234375 C 129.19290161132812 295.190673828125 131.1884765625 292.765869140625 133.649658203125 290.3245849609375 C 136.11087036132812 287.8502197265625 139.00442504882812 285.57391357421875 142.33038330078125 283.4954833984375 C 145.65631103515625 281.38409423828125 149.38137817382812 279.68505859375 153.50555419921875 278.3984375 C 157.6629638671875 277.078857421875 162.23614501953125 276.41900634765625 167.22506713867188 276.41900634765625 C 170.68405151367188 276.41900634765625 174.00997924804688 276.996337890625 177.202880859375 278.1510009765625 C 180.39578247070312 279.272705078125 183.256103515625 280.938720703125 185.7838134765625 283.14910888671875 C 188.34478759765625 285.32647705078125 190.37362670898438 288.0482177734375 191.87030029296875 291.31427001953125 C 193.40020751953125 294.580322265625 194.16519165039062 298.32476806640625 194.16519165039062 302.54754638671875 C 194.16519165039062 307.694091796875 193.7161865234375 312.312744140625 192.81817626953125 316.403564453125 C 191.920166015625 320.46142578125 190.55654907226562 323.95843505859375 188.72726440429688 326.89459228515625 C 186.89801025390625 329.7977294921875 184.6197509765625 332.0081787109375 181.8924560546875 333.52569580078125 C 179.19845581054688 335.04327392578125 176.038818359375 335.80206298828125 172.41351318359375 335.80206298828125 C 168.3226318359375 335.80206298828125 165.09646606445312 334.828857421875 162.73504638671875 332.88238525390625 C 160.37362670898438 330.9029541015625 159.19290161132812 328.29669189453125 159.19290161132812 325.0635986328125 C 159.19290161132812 323.05120849609375 159.77496337890625 321.2366943359375 160.93902587890625 319.62017822265625 C 162.1363525390625 318.003662109375 163.76608276367188 316.7335205078125 165.82815551757812 315.80975341796875 C 167.92349243164062 314.88604736328125 170.268310546875 314.4241943359375 172.86251831054688 314.4241943359375 C 176.38803100585938 314.4241943359375 179.63082885742188 314.9849853515625 182.59091186523438 316.106689453125 C 185.55099487304688 317.19537353515625 188.24502563476562 318.5809326171875 190.67294311523438 320.26348876953125 C 193.10089111328125 321.946044921875 195.24612426757812 323.69451904296875 197.108642578125 325.509033203125 C 198.97119140625 327.323486328125 200.53436279296875 328.95654296875 201.7982177734375 330.4080810546875 C 201.09979248046875 331.2823486328125 200.40133666992188 332.1566162109375 199.702880859375 333.0308837890625 C 198.4722900390625 331.5133056640625 196.958984375 329.8472900390625 195.1629638671875 328.03277587890625 C 193.40020751953125 326.185302734375 191.38803100585938 324.4202880859375 189.12640380859375 322.73779296875 C 186.86474609375 321.0552978515625 184.37030029296875 319.6861572265625 181.64300537109375 318.6304931640625 C 178.91574096679688 317.541748046875 175.98892211914062 316.9974365234375 172.86251831054688 316.9974365234375 C 169.17074584960938 316.9974365234375 166.39358520507812 317.855224609375 164.53103637695312 319.5706787109375 C 162.7017822265625 321.28619384765625 161.78713989257812 323.084228515625 161.78713989257812 324.96466064453125 C 161.78713989257812 327.3729248046875 162.71841430664062 329.3524169921875 164.5809326171875 330.9029541015625 C 166.47671508789062 332.4534912109375 169.08758544921875 333.228759765625 172.41351318359375 333.228759765625 C 176.038818359375 333.228759765625 179.0654296875 332.404052734375 181.49334716796875 330.7545166015625 C 183.92129516601562 329.072021484375 185.850341796875 326.795654296875 187.28048706054688 323.9254150390625 C 188.71063232421875 321.02227783203125 189.74169921875 317.73974609375 190.37362670898438 314.0777587890625 C 191.038818359375 310.3828125 191.37139892578125 306.5723876953125 191.37139892578125 302.64654541015625 C 191.37139892578125 299.809326171875 190.87249755859375 296.9886474609375 189.87472534179688 294.1844482421875 C 188.876953125 291.3472900390625 187.3636474609375 288.79052734375 185.33480834960938 286.51416015625 C 183.3392333984375 284.23779296875 180.82815551757812 282.42333984375 177.80154418945312 281.0706787109375 C 174.77496337890625 279.68505859375 171.2161865234375 278.9923095703125 167.12527465820312 278.9923095703125 C 161.8370361328125 278.9923095703125 156.84811401367188 279.83355712890625 152.15853881835938 281.51605224609375 C 147.46896362304688 283.1986083984375 143.21176147460938 285.557373046875 139.38693237304688 288.592529296875 C 135.5953369140625 291.627685546875 132.3525390625 295.2071533203125 129.65853881835938 299.3309326171875 C 128.12860107421875 301.7392578125 126.86474609375 304.06512451171875 125.86697387695312 306.3084716796875 C 124.90243530273438 308.5518798828125 124.17074584960938 310.795166015625 123.67184448242188 313.03857421875 C 123.20620727539062 315.2489013671875 122.973388671875 317.57476806640625 122.973388671875 320.01605224609375 C 122.973388671875 323.150146484375 123.7550048828125 325.62445068359375 125.31817626953125 327.43896484375 C 126.88137817382812 329.220458984375 128.49444580078125 330.1112060546875 130.15744018554688 330.1112060546875 C 132.65188598632812 330.1112060546875 135.079833984375 329.368896484375 137.44125366210938 327.88427734375 C 139.80267333984375 326.3997802734375 142.06430053710938 324.3048095703125 144.22616577148438 321.599609375 C 146.42129516601562 318.86138916015625 148.5 315.67779541015625 150.46231079101562 312.048828125 C 152.4578857421875 308.38690185546875 154.25387573242188 304.39501953125 155.850341796875 300.0732421875 C 156.91464233398438 297.1041259765625 157.8126220703125 293.85455322265625 158.54434204101562 290.3245849609375 C 159.27606201171875 286.7615966796875 159.85809326171875 283.2315673828125 160.29046630859375 279.73455810546875 C 160.756103515625 276.20458984375 161.1219482421875 273.0374755859375 161.38803100585938 270.2332763671875 C 161.52105712890625 269.045654296875 161.58758544921875 267.8909912109375 161.58758544921875 266.769287109375 C 161.58758544921875 265.6146240234375 161.52105712890625 264.3609619140625 161.38803100585938 263.00836181640625 C 162.63525390625 263.0743408203125 163.88247680664062 263.14031982421875 165.12969970703125 263.206298828125M 128.91018676757812 272.1632080078125 C 129.5421142578125 274.86846923828125 130.37362670898438 277.7716064453125 131.4046630859375 280.87274169921875 C 132.43569946289062 283.973876953125 133.51663208007812 287.009033203125 134.6474609375 289.9781494140625 C 135.8115234375 292.914306640625 136.8924560546875 295.6195068359375 137.8902587890625 298.0938720703125 C 138.92129516601562 300.568115234375 139.78604125976562 302.5640869140625 140.48446655273438 304.08160400390625 C 141.44900512695312 306.1600341796875 142.69622802734375 308.51885986328125 144.22616577148438 311.1580810546875 C 145.756103515625 313.79736328125 147.28604125976562 316.05718994140625 148.81597900390625 317.9376220703125 C 148.31707763671875 318.6634521484375 147.81817626953125 319.3892822265625 147.31927490234375 320.11505126953125 C 146.28823852539062 318.9273681640625 145.174072265625 317.45928955078125 143.97671508789062 315.7108154296875 C 142.81265258789062 313.9622802734375 141.73171997070312 312.197265625 140.73391723632812 310.415771484375 C 139.73614501953125 308.601318359375 138.88803100585938 306.96826171875 138.1895751953125 305.5167236328125 C 137.35809326171875 303.603271484375 136.34368896484375 301.21142578125 135.14633178710938 298.34124755859375 C 133.98226928710938 295.4381103515625 132.83480834960938 292.4854736328125 131.7039794921875 289.4832763671875 C 130.6064453125 286.48114013671875 129.70843505859375 283.90789794921875 129.00997924804688 281.76348876953125 C 128.67739868164062 280.60882568359375 128.32815551757812 279.5201416015625 127.96231079101562 278.4974365234375 C 127.62969970703125 277.44171142578125 127.28048706054688 276.468505859375 126.91464233398438 275.5777587890625 C 126.58203125 274.68701171875 126.26608276367188 273.895263671875 125.96673583984375 273.20245361328125 C 126.94790649414062 272.8560791015625 127.92904663085938 272.5096435546875 128.91018676757812 272.1632080078125"/>
    <path stroke-width="0" fill="rgb(0, 0, 0)" opacity="1.0" d="M 230.9334716796875 271.66839599609375 C 234.325927734375 272.1302490234375 238.11752319335938 272.46014404296875 242.3082275390625 272.6580810546875 C 246.53216552734375 272.82305908203125 250.90576171875 272.905517578125 255.42904663085938 272.905517578125 C 258.4556579589844 272.905517578125 261.3824768066406 272.83953857421875 264.20953369140625 272.70758056640625 C 267.0365905761719 272.57562255859375 269.7305908203125 272.41064453125 272.29156494140625 272.21270751953125 C 274.8525390625 271.9818115234375 277.2139892578125 271.767333984375 279.3758544921875 271.56939697265625 C 279.3758544921875 272.55908203125 279.3758544921875 273.548828125 279.3758544921875 274.53857421875 C 277.2804870605469 274.6705322265625 274.9190673828125 274.83544921875 272.29156494140625 275.033447265625 C 269.69732666015625 275.1983642578125 266.95343017578125 275.3468017578125 264.05987548828125 275.478759765625 C 261.1995849609375 275.6107177734375 258.3226318359375 275.6767578125 255.42904663085938 275.6767578125 C 250.8392333984375 275.6767578125 246.5155029296875 275.5777587890625 242.4578857421875 275.37982177734375 C 238.40023803710938 275.181884765625 234.55877685546875 274.9344482421875 230.9334716796875 274.6375732421875 C 230.9334716796875 273.6478271484375 230.9334716796875 272.6580810546875 230.9334716796875 271.66839599609375M 230.53436279296875 308.0899658203125 C 229.7694091796875 310.1024169921875 229.1873779296875 312.1148681640625 228.78826904296875 314.12725830078125 C 228.42239379882812 316.106689453125 228.23947143554688 318.0531005859375 228.23947143554688 319.966552734375 C 228.23947143554688 324.1893310546875 230.43460083007812 327.58740234375 234.8248291015625 330.16064453125 C 239.24835205078125 332.73394775390625 245.66741943359375 334.02056884765625 254.08203125 334.02056884765625 C 258.6385803222656 334.02056884765625 262.9623107910156 333.8555908203125 267.05322265625 333.52569580078125 C 271.1441345214844 333.19580078125 274.81927490234375 332.7669677734375 278.0787353515625 332.23907470703125 C 281.37139892578125 331.711181640625 284.0155029296875 331.06787109375 286.0111083984375 330.30908203125 C 286.04437255859375 331.2823486328125 286.0776062011719 332.255615234375 286.1108703613281 333.228759765625 C 284.31488037109375 333.8226318359375 281.7871398925781 334.3834228515625 278.5277099609375 334.91131591796875 C 275.268310546875 335.43914794921875 271.526611328125 335.8515625 267.30267333984375 336.1484375 C 263.1119689941406 336.4783935546875 258.7051086425781 336.643310546875 254.08203125 336.643310546875 C 248.42794799804688 336.643310546875 243.45565795898438 336.04949951171875 239.16519165039062 334.86181640625 C 234.87472534179688 333.64117431640625 231.53216552734375 331.84320068359375 229.13748168945312 329.4678955078125 C 226.7427978515625 327.0595703125 225.54547119140625 324.0408935546875 225.54547119140625 320.4119873046875 C 225.54547119140625 318.20159912109375 225.7449951171875 316.04071044921875 226.14413452148438 313.9293212890625 C 226.57650756835938 311.784912109375 227.05874633789062 309.70654296875 227.59091186523438 307.694091796875 C 228.57208251953125 307.8260498046875 229.55322265625 307.9580078125 230.53436279296875 308.0899658203125"/>
    <path stroke-width="0" fill="rgb(0, 0, 0)" opacity="1.0" d="M 354.4090576171875 268.74871826171875 C 354.14300537109375 267.7919921875 353.84368896484375 266.769287109375 353.5111083984375 265.68060302734375 C 353.2117919921875 264.55889892578125 352.895751953125 263.51971435546875 352.563232421875 262.56298828125 C 353.71063232421875 262.39801025390625 354.85809326171875 262.23309326171875 356.00555419921875 262.068115234375 C 356.1385498046875 263.28875732421875 356.47119140625 264.98779296875 357.0032958984375 267.1651611328125 C 357.5687255859375 269.342529296875 358.23388671875 271.65185546875 358.9989013671875 274.09320068359375 C 359.76385498046875 276.53448486328125 360.49560546875 278.7943115234375 361.19403076171875 280.87274169921875 C 362.657470703125 285.1285400390625 364.6031494140625 289.466796875 367.031005859375 293.8875732421875 C 369.458984375 298.2752685546875 371.920166015625 302.15167236328125 374.4146728515625 305.5167236328125 C 374.91357421875 306.1435546875 375.4290771484375 306.7703857421875 375.961181640625 307.39715576171875 C 376.526611328125 308.02398681640625 377.092041015625 308.63427734375 377.657470703125 309.2281494140625 C 377.0255126953125 309.9869384765625 376.3935546875 310.7457275390625 375.76165771484375 311.5045166015625 C 374.797119140625 311.174560546875 373.4500732421875 310.91064453125 371.7205810546875 310.7127685546875 C 369.99114990234375 310.4818115234375 368.1119384765625 310.267333984375 366.0831298828125 310.06939697265625 C 364.08758544921875 309.8714599609375 362.108642578125 309.69000244140625 360.1463623046875 309.5250244140625 C 358.21728515625 309.360107421875 356.52105712890625 309.2611083984375 355.0576171875 309.2281494140625 C 355.1241455078125 308.370361328125 355.190673828125 307.51263427734375 355.2572021484375 306.6549072265625 C 357.2860107421875 306.786865234375 359.4146728515625 306.96826171875 361.64300537109375 307.19921875 C 363.9046630859375 307.39715576171875 366.0499267578125 307.57861328125 368.0787353515625 307.7435302734375 C 370.14080810546875 307.9085693359375 371.80377197265625 308.073486328125 373.067626953125 308.2384033203125 C 371.5377197265625 306.09405517578125 369.874755859375 303.5372314453125 368.0787353515625 300.568115234375 C 366.31597900390625 297.5989990234375 364.6031494140625 294.46484375 362.94012451171875 291.165771484375 C 361.27716064453125 287.86676025390625 359.8636474609375 284.6666259765625 358.6995849609375 281.5655517578125 C 357.66851806640625 278.69537353515625 356.80377197265625 276.1881103515625 356.1053466796875 274.043701171875 C 355.4068603515625 271.8992919921875 354.8414306640625 270.13427734375 354.4090576171875 268.74871826171875M 319.1374816894531 279.09124755859375 C 323.86029052734375 279.58612060546875 328.633056640625 279.96551513671875 333.4556884765625 280.22943115234375 C 338.27825927734375 280.49334716796875 342.91796875 280.5758056640625 347.374755859375 280.47686767578125 C 351.86474609375 280.3779296875 355.8392333984375 280.1634521484375 359.2982177734375 279.83355712890625 C 361.526611328125 279.60260009765625 364.0709228515625 279.272705078125 366.9312744140625 278.8438720703125 C 369.8248291015625 278.3819580078125 372.75164794921875 277.7880859375 375.7117919921875 277.0623779296875 C 378.671875 276.3365478515625 381.3658447265625 275.52825927734375 383.7938232421875 274.6375732421875 C 383.8935546875 275.64373779296875 383.99334716796875 276.64996337890625 384.0931396484375 277.6561279296875 C 381.6651611328125 278.3489990234375 379.00439453125 278.9923095703125 376.11083984375 279.58612060546875 C 373.25054931640625 280.14697265625 370.440185546875 280.6583251953125 367.6795654296875 281.12017822265625 C 364.95233154296875 281.549072265625 362.541015625 281.87896728515625 360.4456787109375 282.10986328125 C 354.62530517578125 282.76971435546875 348.08984375 283.0831298828125 340.8392333984375 283.0501708984375 C 333.58868408203125 283.01715087890625 326.4212646484375 282.7037353515625 319.3370361328125 282.10986328125 C 319.2705078125 281.1036376953125 319.2040100097656 280.09747314453125 319.1374816894531 279.09124755859375M 329.514404296875 307.2982177734375 C 328.21728515625 309.6405029296875 327.1529541015625 311.8839111328125 326.321533203125 314.0283203125 C 325.49005126953125 316.1396484375 325.07427978515625 318.4324951171875 325.07427978515625 320.90679931640625 C 325.07427978515625 325.888427734375 327.2860107421875 329.56683349609375 331.70953369140625 331.942138671875 C 336.16632080078125 334.3175048828125 342.219482421875 335.5711669921875 349.86920166015625 335.703125 C 354.42572021484375 335.76904296875 358.6995849609375 335.6041259765625 362.690673828125 335.208251953125 C 366.68182373046875 334.77935791015625 370.34033203125 334.15252685546875 373.666259765625 333.3277587890625 C 373.666259765625 334.3834228515625 373.666259765625 335.43914794921875 373.666259765625 336.494873046875 C 370.4068603515625 337.0556640625 366.83148193359375 337.517578125 362.94012451171875 337.8804931640625 C 359.08203125 338.2763671875 354.70843505859375 338.4412841796875 349.81927490234375 338.3753662109375 C 344.26495361328125 338.309326171875 339.42572021484375 337.633056640625 335.30157470703125 336.346435546875 C 331.1773681640625 335.0927734375 327.9844970703125 333.162841796875 325.72283935546875 330.5565185546875 C 323.461181640625 327.91729736328125 322.33038330078125 324.60174560546875 322.33038330078125 320.60986328125 C 322.33038330078125 318.20159912109375 322.7461242675781 315.8592529296875 323.57763671875 313.5828857421875 C 324.4423828125 311.3065185546875 325.42352294921875 308.9971923828125 326.52105712890625 306.6549072265625 C 327.51885986328125 306.86932373046875 328.5166015625 307.083740234375 329.514404296875 307.2982177734375"/>
    <path stroke-width="0" fill="rgb(0, 0, 0)" opacity="1.0" d="M 450.84478759765625 261.9691162109375 C 450.77825927734375 262.6619873046875 450.7117919921875 263.437255859375 450.645263671875 264.29498291015625 C 450.5787353515625 265.1527099609375 450.51220703125 266.3734130859375 450.4456787109375 267.9569091796875 C 450.4456787109375 268.6497802734375 450.4456787109375 269.83740234375 450.4456787109375 271.5198974609375 C 450.4456787109375 273.20245361328125 450.4456787109375 275.1654052734375 450.4456787109375 277.40875244140625 C 450.4456787109375 279.619140625 450.4456787109375 281.87896728515625 450.4456787109375 284.18829345703125 C 450.4456787109375 286.4976806640625 450.4456787109375 288.65850830078125 450.4456787109375 290.67095947265625 C 450.4456787109375 294.36590576171875 450.51220703125 298.06085205078125 450.645263671875 301.75579833984375 C 450.77825927734375 305.45074462890625 450.927978515625 308.94775390625 451.09423828125 312.246826171875 C 451.26055908203125 315.54583740234375 451.3935546875 318.448974609375 451.49334716796875 320.956298828125 C 451.6263427734375 323.463623046875 451.69287109375 325.3770751953125 451.69287109375 326.6966552734375 C 451.69287109375 328.41217041015625 451.3104248046875 330.2266845703125 450.54547119140625 332.14013671875 C 449.780517578125 334.02056884765625 448.333740234375 335.62060546875 446.205078125 336.94024658203125 C 444.0765380859375 338.2928466796875 440.9334716796875 338.9691162109375 436.77606201171875 338.9691162109375 C 430.6563720703125 338.9691162109375 425.9168701171875 337.97943115234375 422.5576171875 336.0 C 419.198486328125 333.987548828125 417.51885986328125 330.91943359375 417.51885986328125 326.795654296875 C 417.51885986328125 324.1893310546875 418.350341796875 321.9625244140625 420.0133056640625 320.11505126953125 C 421.67626953125 318.234619140625 424.0543212890625 316.7664794921875 427.1474609375 315.7108154296875 C 430.2406005859375 314.65509033203125 433.932373046875 314.12725830078125 438.22283935546875 314.12725830078125 C 443.0787353515625 314.12725830078125 447.65185546875 314.737548828125 451.9423828125 315.958251953125 C 456.26611328125 317.1458740234375 460.2406005859375 318.6634521484375 463.8658447265625 320.51092529296875 C 467.5244140625 322.3583984375 470.73388671875 324.2388916015625 473.4945068359375 326.15234375 C 476.28826904296875 328.03277587890625 478.5499267578125 329.6328125 480.2794189453125 330.95245361328125 C 479.630859375 331.9091796875 478.9822998046875 332.86590576171875 478.333740234375 333.8226318359375 C 476.304931640625 331.97515869140625 473.876953125 330.07818603515625 471.0499267578125 328.1317138671875 C 468.256103515625 326.15234375 465.1463623046875 324.3048095703125 461.7205810546875 322.58935546875 C 458.294921875 320.873779296875 454.58648681640625 319.48822021484375 450.5953369140625 318.4324951171875 C 446.604248046875 317.3438720703125 442.3802490234375 316.79949951171875 437.92352294921875 316.79949951171875 C 432.1031494140625 316.79949951171875 427.69622802734375 317.772705078125 424.702880859375 319.7191162109375 C 421.70953369140625 321.632568359375 420.212890625 323.95843505859375 420.212890625 326.6966552734375 C 420.212890625 328.41217041015625 420.7283935546875 329.9957275390625 421.7593994140625 331.447265625 C 422.82373046875 332.89892578125 424.56982421875 334.070068359375 426.997802734375 334.9608154296875 C 429.42572021484375 335.8515625 432.6851806640625 336.296875 436.77606201171875 336.296875 C 438.7384033203125 336.296875 440.6341552734375 336.032958984375 442.46337890625 335.505126953125 C 444.292724609375 334.9443359375 445.772705078125 333.9710693359375 446.903564453125 332.58544921875 C 448.067626953125 331.1998291015625 448.649658203125 329.2369384765625 448.649658203125 326.6966552734375 C 448.649658203125 324.486328125 448.59979248046875 321.7315673828125 448.5 318.4324951171875 C 448.4002685546875 315.1334228515625 448.3004150390625 311.71893310546875 448.20068359375 308.18896484375 C 448.10089111328125 304.6259765625 448.0010986328125 301.2939453125 447.9013671875 298.19281005859375 C 447.8348388671875 295.0916748046875 447.801513671875 292.58441162109375 447.801513671875 290.67095947265625 C 447.801513671875 288.65850830078125 447.801513671875 286.6790771484375 447.801513671875 284.732666015625 C 447.801513671875 282.753173828125 447.801513671875 280.790283203125 447.801513671875 278.8438720703125 C 447.801513671875 276.8643798828125 447.801513671875 274.88494873046875 447.801513671875 272.905517578125 C 447.801513671875 270.89306640625 447.801513671875 268.89715576171875 447.801513671875 266.917724609375 C 447.801513671875 266.158935546875 447.784912109375 265.251708984375 447.751708984375 264.196044921875 C 447.7183837890625 263.1072998046875 447.66851806640625 262.36505126953125 447.60198974609375 261.9691162109375 C 448.68292236328125 261.9691162109375 449.763916015625 261.9691162109375 450.84478759765625 261.9691162109375M 417.3193359375 273.746826171875 C 418.7161865234375 274.0107421875 420.47894287109375 274.274658203125 422.6075439453125 274.53857421875 C 424.7694091796875 274.76953125 427.0643310546875 275.00042724609375 429.49224853515625 275.2313232421875 C 431.920166015625 275.4622802734375 434.2816162109375 275.62725830078125 436.5765380859375 275.7261962890625 C 438.87139892578125 275.8251953125 440.88360595703125 275.8746337890625 442.61309814453125 275.8746337890625 C 448.3004150390625 275.8746337890625 454.25390625 275.62725830078125 460.473388671875 275.13238525390625 C 466.69287109375 274.60455322265625 472.5299072265625 273.895263671875 477.9844970703125 273.0045166015625 C 477.9844970703125 274.0107421875 477.9844970703125 275.01690673828125 477.9844970703125 276.02313232421875 C 474.05987548828125 276.41900634765625 470.10198974609375 276.81494140625 466.11083984375 277.2108154296875 C 462.1197509765625 277.57373046875 458.161865234375 277.8870849609375 454.23724365234375 278.1510009765625 C 450.3126220703125 278.3819580078125 446.47119140625 278.4974365234375 442.712890625 278.4974365234375 C 440.3514404296875 278.4974365234375 437.541015625 278.4149169921875 434.2816162109375 278.25 C 431.02215576171875 278.05206298828125 427.862548828125 277.837646484375 424.80267333984375 277.606689453125 C 421.7427978515625 277.3427734375 419.248291015625 277.11181640625 417.3193359375 276.91387939453125 C 417.3193359375 275.858154296875 417.3193359375 274.802490234375 417.3193359375 273.746826171875M 416.920166015625 293.64013671875 C 418.78271484375 293.87103271484375 420.76165771484375 294.1019287109375 422.85699462890625 294.3328857421875 C 424.985595703125 294.5638427734375 427.1640625 294.74530029296875 429.3924560546875 294.87725830078125 C 431.620849609375 294.9761962890625 433.79931640625 295.0751953125 435.927978515625 295.1741943359375 C 438.08984375 295.27313232421875 440.13525390625 295.3226318359375 442.0643310546875 295.3226318359375 C 445.42352294921875 295.3226318359375 449.0654296875 295.2401123046875 452.989990234375 295.0751953125 C 456.9146728515625 294.87725830078125 461.038818359375 294.5638427734375 465.362548828125 294.13494873046875 C 469.686279296875 293.673095703125 474.010009765625 293.09576416015625 478.333740234375 292.4029541015625 C 478.333740234375 293.4091796875 478.333740234375 294.4154052734375 478.333740234375 295.421630859375 C 475.14080810546875 295.8834228515625 471.9478759765625 296.27935791015625 468.7550048828125 296.6092529296875 C 465.5621337890625 296.9061279296875 462.4356689453125 297.17010498046875 459.3758544921875 297.4010009765625 C 456.31591796875 297.5989990234375 453.3226318359375 297.7474365234375 450.395751953125 297.846435546875 C 447.502197265625 297.94537353515625 444.72509765625 297.994873046875 442.0643310546875 297.994873046875 C 439.56982421875 297.994873046875 436.84259033203125 297.92889404296875 433.8824462890625 297.796875 C 430.9556884765625 297.6649169921875 428.01220703125 297.5164794921875 425.0521240234375 297.3515625 C 422.12530517578125 297.153564453125 419.4146728515625 296.92266845703125 416.920166015625 296.65875244140625 C 416.920166015625 295.65252685546875 416.920166015625 294.64630126953125 416.920166015625 293.64013671875"/>
  </g>
</svg>
