<?xml version="1.0" ?>
<svg xmlns="http://www.w3.org/2000/svg" version="1.1" width="600" height="600">
  <defs/>
  <g>
    <path stroke-width="0" fill="rgb(0, 0, 0)" opacity="1.0" d="M 274.3016662597656 122.35482788085938 C 273.69464111328125 123.56927490234375 273.01177978515625 125.8463134765625 272.2530517578125 129.18594360351562 C 271.64605712890625 132.52560424804688 271.0390625 135.48574829101562 270.43206787109375 138.06640625 C 268.45928955078125 148.84442138671875 266.3348083496094 163.72103881835938 264.0585632324219 182.69638061523438 C 261.93408203125 201.67172241210938 260.11309814453125 222.46868896484375 258.5955810546875 245.0872802734375 C 257.2298583984375 267.70587158203125 256.5469665527344 289.9449462890625 256.5469665527344 311.8045654296875 C 256.5469665527344 326.37762451171875 257.6850891113281 342.0133056640625 259.9613342285156 358.7115478515625 C 262.237548828125 375.258056640625 265.2725524902344 391.5009765625 269.0662841796875 407.440185546875 C 272.86004638671875 423.2276611328125 276.8055419921875 437.4971923828125 280.90277099609375 450.24853515625 C 276.50201416015625 451.7666015625 272.1012878417969 453.28466796875 267.7005615234375 454.8026123046875 C 263.75506591796875 441.5958251953125 259.9613342285156 426.7950439453125 256.3193359375 410.400390625 C 252.6773681640625 393.8538818359375 249.71823120117188 376.85198974609375 247.44198608398438 359.3946533203125 C 245.3175048828125 341.9373779296875 244.2552490234375 325.466796875 244.2552490234375 309.98291015625 C 244.2552490234375 294.1954345703125 244.71051025390625 277.95257568359375 245.62100219726562 261.2542724609375 C 246.6832275390625 244.55596923828125 247.97311401367188 228.3131103515625 249.4906005859375 212.525634765625 C 251.15985107421875 196.73812866210938 252.6773681640625 182.39276123046875 254.0430908203125 169.48956298828125 C 255.40884399414062 156.43450927734375 256.4710998535156 145.88424682617188 257.2298583984375 137.83871459960938 C 257.5333251953125 134.1954345703125 257.7609558105469 131.00759887695312 257.9127197265625 128.275146484375 C 258.064453125 125.54269409179688 258.14031982421875 123.41744995117188 258.14031982421875 121.8994140625 C 263.5274658203125 122.05120849609375 268.91455078125 122.20303344726562 274.3016662597656 122.35482788085938M 211.47735595703125 182.24099731445312 C 234.99853515625 182.24099731445312 259.58197021484375 181.40606689453125 285.2276306152344 179.73623657226562 C 310.873291015625 177.91461181640625 335.6085205078125 175.5616455078125 359.43316650390625 172.67742919921875 C 383.4095458984375 169.79318237304688 404.4268798828125 166.4534912109375 422.485107421875 162.658447265625 C 422.6368408203125 167.44021606445312 422.78857421875 172.22201538085938 422.9403076171875 177.0037841796875 C 406.399658203125 179.73623657226562 389.1002197265625 182.16506958007812 371.0419921875 184.29031372070312 C 353.13555908203125 186.41555786132812 335.00146484375 188.31307983398438 316.6397705078125 189.98291015625 C 298.4298095703125 191.65277099609375 280.37164306640625 192.94308471679688 262.4652099609375 193.8538818359375 C 244.71051025390625 194.6129150390625 227.86630249023438 194.99240112304688 211.9326171875 194.99240112304688 C 207.22836303710938 194.99240112304688 200.77899169921875 194.84060668945312 192.58453369140625 194.5369873046875 C 184.39004516601562 194.23336791992188 176.19558715820312 193.8538818359375 168.0010986328125 193.39846801757812 C 159.9583740234375 192.94308471679688 153.28140258789062 192.63946533203125 147.97015380859375 192.4876708984375 C 147.81842041015625 187.32638549804688 147.66665649414062 182.16506958007812 147.51492309570312 177.0037841796875 C 152.52264404296875 177.91461181640625 159.35137939453125 178.82540893554688 168.0010986328125 179.73623657226562 C 176.80258178710938 180.64706420898438 185.37643432617188 181.33016967773438 193.72265625 181.78558349609375 C 202.06887817382812 182.08920288085938 207.98712158203125 182.24099731445312 211.47735595703125 182.24099731445312M 387.20330810546875 220.72296142578125 C 386.5963134765625 221.9373779296875 386.065185546875 223.22772216796875 385.6099853515625 224.59393310546875 C 385.1546630859375 225.808349609375 384.62353515625 227.09866333007812 384.0166015625 228.46490478515625 C 383.4095458984375 229.83111572265625 382.8026123046875 231.34915161132812 382.195556640625 233.01898193359375 C 373.2423095703125 260.4952392578125 362.619873046875 285.7703857421875 350.32818603515625 308.84442138671875 C 338.188232421875 331.7666015625 324.75836181640625 352.4117431640625 310.0386962890625 370.7799072265625 C 295.3189697265625 389.14801025390625 279.6128845214844 405.0113525390625 262.9204406738281 418.3699951171875 C 248.95947265625 429.45159912109375 234.4674072265625 438.1802978515625 219.4442138671875 444.55596923828125 C 204.42098999023438 450.7799072265625 190.99114990234375 453.891845703125 179.15469360351562 453.891845703125 C 170.65673828125 453.891845703125 162.99337768554688 452.1461181640625 156.16464233398438 448.6546630859375 C 149.33590698242188 445.1632080078125 144.024658203125 440.00189208984375 140.23095703125 433.1707763671875 C 136.43719482421875 426.1878662109375 134.54034423828125 417.7628173828125 134.54034423828125 407.8956298828125 C 134.54034423828125 393.32257080078125 137.72708129882812 378.97723388671875 144.10055541992188 364.859619140625 C 150.47402954101562 350.741943359375 159.12374877929688 337.38330078125 170.04974365234375 324.78369140625 C 180.9757080078125 312.0322570800781 193.34329223632812 300.64703369140625 207.1524658203125 290.6280822753906 C 221.11343383789062 280.457275390625 235.681396484375 272.33587646484375 250.85635375976562 266.26373291015625 C 265.42431640625 260.4952392578125 280.7510070800781 256.01708984375 296.83648681640625 252.8292236328125 C 313.07366943359375 249.48956298828125 327.1104736328125 247.81973266601562 338.94696044921875 247.81973266601562 C 367.0206298828125 247.81973266601562 390.3900146484375 252.67742919921875 409.0552978515625 262.3927917480469 C 427.8721923828125 271.95635986328125 442.060791015625 284.55596923828125 451.6209716796875 300.191650390625 C 461.33294677734375 315.82733154296875 466.18896484375 332.67742919921875 466.18896484375 350.741943359375 C 466.18896484375 366.3775634765625 463.2298583984375 381.1783447265625 457.3116455078125 395.14422607421875 C 451.54510498046875 408.958251953125 442.74365234375 421.48193359375 430.9072265625 432.71533203125 C 419.22247314453125 443.7969970703125 404.5028076171875 453.208740234375 386.748046875 460.95068359375 C 368.993408203125 468.692626953125 348.1278076171875 474.6129150390625 324.1513671875 478.7115478515625 C 321.419921875 474.6129150390625 318.68841552734375 470.51422119140625 315.9569091796875 466.41552734375 C 340.3885498046875 463.83489990234375 362.92340087890625 457.8387451171875 383.56134033203125 448.42694091796875 C 404.35101318359375 438.8634033203125 421.04345703125 425.88427734375 433.638671875 409.48956298828125 C 446.3856201171875 392.943115234375 452.7591552734375 373.056884765625 452.7591552734375 349.83111572265625 C 452.7591552734375 333.74005126953125 448.3583984375 318.8634033203125 439.556884765625 305.2011413574219 C 430.75543212890625 291.53887939453125 418.0843505859375 280.457275390625 401.54364013671875 271.95635986328125 C 385.1546630859375 263.4554138183594 365.0478515625 259.2049255371094 341.22320556640625 259.2049255371094 C 324.3790283203125 259.2049255371094 308.141845703125 261.3301696777344 292.5115966796875 265.58062744140625 C 276.88140869140625 269.83111572265625 263.22393798828125 274.4610900878906 251.53924560546875 279.4705810546875 C 233.17755126953125 287.06072998046875 216.18157958984375 297.7628173828125 200.5513916015625 311.57684326171875 C 185.07293701171875 325.390869140625 172.5535888671875 340.72296142578125 162.99337768554688 357.57305908203125 C 153.58489990234375 374.2713623046875 148.88067626953125 391.0455322265625 148.88067626953125 407.8956298828125 C 148.88067626953125 418.673583984375 151.53628540039062 426.71917724609375 156.84750366210938 432.0322265625 C 162.31048583984375 437.19354248046875 169.594482421875 439.774169921875 178.699462890625 439.774169921875 C 190.08065795898438 439.774169921875 202.52413940429688 437.11767578125 216.02984619140625 431.8045654296875 C 229.5355224609375 426.33966064453125 243.72412109375 417.53509521484375 258.5955810546875 405.390869140625 C 281.6614990234375 386.1119384765625 302.9822998046875 362.2030029296875 322.5579833984375 333.66412353515625 C 342.285400390625 305.125244140625 357.68804931640625 270.4383239746094 368.7657470703125 229.6033935546875 C 369.0692138671875 228.08538818359375 369.37274169921875 226.71917724609375 369.67626953125 225.5047607421875 C 369.979736328125 224.13851928710938 370.283203125 222.69638061523438 370.58673095703125 221.1783447265625 C 371.0419921875 219.508544921875 371.2696533203125 217.91461181640625 371.2696533203125 216.39657592773438 C 376.58087158203125 217.83871459960938 381.89208984375 219.28082275390625 387.20330810546875 220.72296142578125"/>
  </g>
</svg>
