<?xml version="1.0" encoding="utf-8"?>
<svg xmlns="http://www.w3.org/2000/svg" xmlns:ev="http://www.w3.org/2001/xml-events" xmlns:xlink="http://www.w3.org/1999/xlink" version="1.1" baseProfile="full" width="7240.0" height="1581.0" viewBox="244.0 -1498.0 7240.0 1581.0">
<defs/>
<g><path d="M 4925.000000 -1471.000000 C 4922.333333 -1457.000000 4919.333333 -1436.666667 4916.000000 -1410.000000 C 4912.666667 -1384.000000 4910.000000 -1360.000000 4908.000000 -1338.000000 C 4898.666667 -1269.333333 4889.333333 -1199.666667 4880.000000 -1129.000000 C 4871.333333 -1058.333333 4859.333333 -987.000000 4844.000000 -915.000000 C 4828.666667 -843.666667 4807.666667 -771.000000 4781.000000 -697.000000 C 4749.000000 -609.666667 4712.666667 -527.666667 4672.000000 -451.000000 C 4632.000000 -374.333333 4589.000000 -306.666667 4543.000000 -248.000000 C 4497.000000 -190.000000 4447.333333 -144.666667 4394.000000 -112.000000 C 4340.666667 -79.333333 4284.666667 -63.000000 4226.000000 -63.000000 C 4187.333333 -63.000000 4153.000000 -74.000000 4123.000000 -96.000000 C 4093.000000 -118.000000 4069.333333 -148.000000 4052.000000 -186.000000 C 4034.666667 -224.666667 4026.000000 -269.666667 4026.000000 -321.000000 C 4026.000000 -410.333333 4039.666667 -492.666667 4067.000000 -568.000000 C 4095.000000 -644.000000 4130.666667 -713.333333 4174.000000 -776.000000 C 4204.666667 -824.666667 4244.666667 -873.666667 4294.000000 -923.000000 C 4343.333333 -973.000000 4401.333333 -1019.000000 4468.000000 -1061.000000 C 4534.666667 -1103.666667 4609.333333 -1138.000000 4692.000000 -1164.000000 C 4775.333333 -1190.666667 4867.000000 -1204.000000 4967.000000 -1204.000000 C 5036.333333 -1204.000000 5103.000000 -1192.333333 5167.000000 -1169.000000 C 5231.000000 -1146.333333 5288.333333 -1112.666667 5339.000000 -1068.000000 C 5390.333333 -1024.000000 5431.000000 -969.000000 5461.000000 -903.000000 C 5491.666667 -837.000000 5507.000000 -761.333333 5507.000000 -676.000000 C 5507.000000 -572.000000 5498.000000 -478.666667 5480.000000 -396.000000 C 5462.000000 -314.000000 5434.666667 -243.333333 5398.000000 -184.000000 C 5361.333333 -125.333333 5315.666667 -80.666667 5261.000000 -50.000000 C 5207.000000 -19.333333 5143.666667 -4.000000 5071.000000 -4.000000 C 4989.000000 -4.000000 4924.333333 -23.666667 4877.000000 -63.000000 C 4829.666667 -103.000000 4806.000000 -155.666667 4806.000000 -221.000000 C 4806.000000 -261.666667 4817.666667 -298.333333 4841.000000 -331.000000 C 4865.000000 -363.666667 4897.666667 -389.333333 4939.000000 -408.000000 C 4981.000000 -426.666667 5028.000000 -436.000000 5080.000000 -436.000000 C 5150.666667 -436.000000 5215.666667 -424.666667 5275.000000 -402.000000 C 5334.333333 -380.000000 5388.333333 -352.000000 5437.000000 -318.000000 C 5485.666667 -284.000000 5528.666667 -248.666667 5566.000000 -212.000000 C 5603.333333 -175.333333 5634.666667 -142.333333 5660.000000 -113.000000 C 5646.000000 -95.333333 5632.000000 -77.666667 5618.000000 -60.000000 C 5593.333333 -90.666667 5563.000000 -124.333333 5527.000000 -161.000000 C 5491.666667 -198.333333 5451.333333 -234.000000 5406.000000 -268.000000 C 5360.666667 -302.000000 5310.666667 -329.666667 5256.000000 -351.000000 C 5201.333333 -373.000000 5142.666667 -384.000000 5080.000000 -384.000000 C 5006.000000 -384.000000 4950.333333 -366.666667 4913.000000 -332.000000 C 4876.333333 -297.333333 4858.000000 -261.000000 4858.000000 -223.000000 C 4858.000000 -174.333333 4876.666667 -134.333333 4914.000000 -103.000000 C 4952.000000 -71.666667 5004.333333 -56.000000 5071.000000 -56.000000 C 5143.666667 -56.000000 5204.333333 -72.666667 5253.000000 -106.000000 C 5301.666667 -140.000000 5340.333333 -186.000000 5369.000000 -244.000000 C 5397.666667 -302.666667 5418.333333 -369.000000 5431.000000 -443.000000 C 5444.333333 -517.666667 5451.000000 -594.666667 5451.000000 -674.000000 C 5451.000000 -731.333333 5441.000000 -788.333333 5421.000000 -845.000000 C 5401.000000 -902.333333 5370.666667 -954.000000 5330.000000 -1000.000000 C 5290.000000 -1046.000000 5239.666667 -1082.666667 5179.000000 -1110.000000 C 5118.333333 -1138.000000 5047.000000 -1152.000000 4965.000000 -1152.000000 C 4859.000000 -1152.000000 4759.000000 -1135.000000 4665.000000 -1101.000000 C 4571.000000 -1067.000000 4485.666667 -1019.333333 4409.000000 -958.000000 C 4333.000000 -896.666667 4268.000000 -824.333333 4214.000000 -741.000000 C 4183.333333 -692.333333 4158.000000 -645.333333 4138.000000 -600.000000 C 4118.666667 -554.666667 4104.000000 -509.333333 4094.000000 -464.000000 C 4084.666667 -419.333333 4080.000000 -372.333333 4080.000000 -323.000000 C 4080.000000 -259.666667 4095.666667 -209.666667 4127.000000 -173.000000 C 4158.333333 -137.000000 4190.666667 -119.000000 4224.000000 -119.000000 C 4274.000000 -119.000000 4322.666667 -134.000000 4370.000000 -164.000000 C 4417.333333 -194.000000 4462.666667 -236.333333 4506.000000 -291.000000 C 4550.000000 -346.333333 4591.666667 -410.666667 4631.000000 -484.000000 C 4671.000000 -558.000000 4707.000000 -638.666667 4739.000000 -726.000000 C 4760.333333 -786.000000 4778.333333 -851.666667 4793.000000 -923.000000 C 4807.666667 -995.000000 4819.333333 -1066.333333 4828.000000 -1137.000000 C 4837.333333 -1208.333333 4844.666667 -1272.333333 4850.000000 -1329.000000 C 4852.666667 -1353.000000 4854.000000 -1376.333333 4854.000000 -1399.000000 C 4854.000000 -1422.333333 4852.666667 -1447.666667 4850.000000 -1475.000000 C 4875.000000 -1473.666667 4900.000000 -1472.333333 4925.000000 -1471.000000z M 4199.000000 -1290.000000 C 4211.666667 -1235.333333 4228.333333 -1176.666667 4249.000000 -1114.000000 C 4269.666667 -1051.333333 4291.333333 -990.000000 4314.000000 -930.000000 C 4337.333333 -870.666667 4359.000000 -816.000000 4379.000000 -766.000000 C 4399.666667 -716.000000 4417.000000 -675.666667 4431.000000 -645.000000 C 4450.333333 -603.000000 4475.333333 -555.333333 4506.000000 -502.000000 C 4536.666667 -448.666667 4567.333333 -403.000000 4598.000000 -365.000000 C 4588.000000 -350.333333 4578.000000 -335.666667 4568.000000 -321.000000 C 4547.333333 -345.000000 4525.000000 -374.666667 4501.000000 -410.000000 C 4477.666667 -445.333333 4456.000000 -481.000000 4436.000000 -517.000000 C 4416.000000 -553.666667 4399.000000 -586.666667 4385.000000 -616.000000 C 4368.333333 -654.666667 4348.000000 -703.000000 4324.000000 -761.000000 C 4300.666667 -819.666667 4277.666667 -879.333333 4255.000000 -940.000000 C 4233.000000 -1000.666667 4215.000000 -1052.666667 4201.000000 -1096.000000 C 4194.333333 -1119.333333 4187.333333 -1141.333333 4180.000000 -1162.000000 C 4173.333333 -1183.333333 4166.333333 -1203.000000 4159.000000 -1221.000000 C 4152.333333 -1239.000000 4146.000000 -1255.000000 4140.000000 -1269.000000 C 4159.666667 -1276.000000 4179.333333 -1283.000000 4199.000000 -1290.000000z "/>
</g></svg>
