<?xml version="1.0" encoding="utf-8"?>
<svg xmlns="http://www.w3.org/2000/svg" xmlns:ev="http://www.w3.org/2001/xml-events" xmlns:xlink="http://www.w3.org/1999/xlink" version="1.1" baseProfile="full" width="857.0" height="1394.0" viewBox="211.0 -1394.0 857.0 1394.0">
<defs/>
<g><path d="M 211.000000 0.000000 C 211.000000 -29.041667 211.000000 -58.083333 211.000000 -87.125000 C 211.000000 -116.166667 211.000000 -145.208333 211.000000 -174.250000 C 211.000000 -203.291667 211.000000 -232.333333 211.000000 -261.375000 C 211.000000 -290.416667 211.000000 -319.458333 211.000000 -348.500000 C 211.000000 -377.541667 211.000000 -406.583333 211.000000 -435.625000 C 211.000000 -464.666667 211.000000 -493.708333 211.000000 -522.750000 C 211.000000 -551.791667 211.000000 -580.833333 211.000000 -609.875000 C 211.000000 -638.916667 211.000000 -667.958333 211.000000 -697.000000 C 211.000000 -726.041667 211.000000 -755.083333 211.000000 -784.125000 C 211.000000 -813.166667 211.000000 -842.208333 211.000000 -871.250000 C 211.000000 -900.291667 211.000000 -929.333333 211.000000 -958.375000 C 211.000000 -987.416667 211.000000 -1016.458333 211.000000 -1045.500000 C 211.000000 -1074.541667 211.000000 -1103.583333 211.000000 -1132.625000 C 211.000000 -1161.666667 211.000000 -1190.708333 211.000000 -1219.750000 C 211.000000 -1248.791667 211.000000 -1277.833333 211.000000 -1306.875000 C 211.000000 -1335.916667 211.000000 -1364.958333 211.000000 -1394.000000 C 243.166667 -1394.000000 275.333333 -1394.000000 307.500000 -1394.000000 C 339.666667 -1394.000000 371.833333 -1394.000000 404.000000 -1394.000000 C 436.166667 -1394.000000 468.333333 -1394.000000 500.500000 -1394.000000 C 532.666667 -1394.000000 564.833333 -1394.000000 597.000000 -1394.000000 C 643.000000 -1394.000000 685.916667 -1390.916667 725.750000 -1384.750000 C 765.583333 -1378.583333 802.333333 -1369.333333 836.000000 -1357.000000 C 869.666667 -1345.000000 899.416667 -1329.416667 925.250000 -1310.250000 C 951.083333 -1291.083333 973.000000 -1268.333333 991.000000 -1242.000000 C 1009.333333 -1216.000000 1023.083333 -1185.750000 1032.250000 -1151.250000 C 1041.416667 -1116.750000 1046.000000 -1078.000000 1046.000000 -1035.000000 C 1046.000000 -994.000000 1041.416667 -956.166667 1032.250000 -921.500000 C 1023.083333 -886.833333 1009.333333 -855.333333 991.000000 -827.000000 C 973.000000 -799.000000 951.083333 -774.416667 925.250000 -753.250000 C 899.416667 -732.083333 869.666667 -714.333333 836.000000 -700.000000 C 802.333333 -685.666667 765.583333 -674.916667 725.750000 -667.750000 C 685.916667 -660.583333 643.000000 -657.000000 597.000000 -657.000000 C 570.750000 -657.000000 544.500000 -657.000000 518.250000 -657.000000 C 492.000000 -657.000000 465.750000 -657.000000 439.500000 -657.000000 C 413.250000 -657.000000 387.000000 -657.000000 360.750000 -657.000000 C 334.500000 -657.000000 308.250000 -657.000000 282.000000 -657.000000 C 282.000000 -629.625000 282.000000 -602.250000 282.000000 -574.875000 C 282.000000 -547.500000 282.000000 -520.125000 282.000000 -492.750000 C 282.000000 -465.375000 282.000000 -438.000000 282.000000 -410.625000 C 282.000000 -383.250000 282.000000 -355.875000 282.000000 -328.500000 C 282.000000 -301.125000 282.000000 -273.750000 282.000000 -246.375000 C 282.000000 -219.000000 282.000000 -191.625000 282.000000 -164.250000 C 282.000000 -136.875000 282.000000 -109.500000 282.000000 -82.125000 C 282.000000 -54.750000 282.000000 -27.375000 282.000000 0.000000 C 258.333333 0.000000 234.666667 0.000000 211.000000 0.000000z M 282.000000 -718.000000 C 330.333333 -718.000000 378.666667 -718.000000 427.000000 -718.000000 C 475.333333 -718.000000 523.666667 -718.000000 572.000000 -718.000000 C 604.000000 -718.000000 634.145833 -719.625000 662.437500 -722.875000 C 690.729167 -726.125000 717.166667 -731.000000 741.750000 -737.500000 C 790.916667 -750.500000 832.666667 -770.000000 867.000000 -796.000000 C 901.333333 -822.000000 927.083333 -854.916667 944.250000 -894.750000 C 961.416667 -934.583333 970.000000 -981.333333 970.000000 -1035.000000 C 970.000000 -1089.333333 961.416667 -1135.583333 944.250000 -1173.750000 C 927.083333 -1211.916667 901.333333 -1242.000000 867.000000 -1264.000000 C 832.666667 -1286.333333 790.916667 -1303.083333 741.750000 -1314.250000 C 717.166667 -1319.833333 690.729167 -1324.020833 662.437500 -1326.812500 C 634.145833 -1329.604167 604.000000 -1331.000000 572.000000 -1331.000000 C 523.666667 -1331.000000 475.333333 -1331.000000 427.000000 -1331.000000 C 378.666667 -1331.000000 330.333333 -1331.000000 282.000000 -1331.000000 C 282.000000 -1279.916667 282.000000 -1228.833333 282.000000 -1177.750000 C 282.000000 -1126.666667 282.000000 -1075.583333 282.000000 -1024.500000 C 282.000000 -973.416667 282.000000 -922.333333 282.000000 -871.250000 C 282.000000 -820.166667 282.000000 -769.083333 282.000000 -718.000000z M 985.000000 0.000000 C 968.041667 -28.250000 951.083333 -56.500000 934.125000 -84.750000 C 917.166667 -113.000000 900.208333 -141.250000 883.250000 -169.500000 C 866.291667 -197.750000 849.333333 -226.000000 832.375000 -254.250000 C 815.416667 -282.500000 798.458333 -310.750000 781.500000 -339.000000 C 764.541667 -367.250000 747.583333 -395.500000 730.625000 -423.750000 C 713.666667 -452.000000 696.708333 -480.250000 679.750000 -508.500000 C 662.791667 -536.750000 645.833333 -565.000000 628.875000 -593.250000 C 611.916667 -621.500000 594.958333 -649.750000 578.000000 -678.000000 C 605.000000 -680.333333 632.000000 -682.666667 659.000000 -685.000000 C 676.041667 -656.458333 693.083333 -627.916667 710.125000 -599.375000 C 727.166667 -570.833333 744.208333 -542.291667 761.250000 -513.750000 C 778.291667 -485.208333 795.333333 -456.666667 812.375000 -428.125000 C 829.416667 -399.583333 846.458333 -371.041667 863.500000 -342.500000 C 880.541667 -313.958333 897.583333 -285.416667 914.625000 -256.875000 C 931.666667 -228.333333 948.708333 -199.791667 965.750000 -171.250000 C 982.791667 -142.708333 999.833333 -114.166667 1016.875000 -85.625000 C 1033.916667 -57.083333 1050.958333 -28.541667 1068.000000 0.000000 C 1040.333333 0.000000 1012.666667 0.000000 985.000000 0.000000z "/>
</g>
</svg>
