<?xml version="1.0" encoding="utf-8"?>
<svg xmlns="http://www.w3.org/2000/svg" xmlns:ev="http://www.w3.org/2001/xml-events" xmlns:xlink="http://www.w3.org/1999/xlink" version="1.1" baseProfile="full" width="20903.0" height="1740.0" viewBox="106.0 -1596.0 20903.0 1740.0">
<defs/>
<g><path d="M 10500.000000 -927.000000 C 10760.000000 -927.000000 11020.000000 -927.000000 11280.000000 -927.000000 C 11280.000000 -908.666667 11280.000000 -890.333333 11280.000000 -872.000000 C 11020.000000 -872.000000 10760.000000 -872.000000 10500.000000 -872.000000 C 10500.000000 -890.333333 10500.000000 -908.666667 10500.000000 -927.000000z M 9713.000000 -10.000000 C 10278.333333 -10.000000 10843.666667 -10.000000 11409.000000 -10.000000 C 11409.000000 8.666667 11409.000000 27.333333 11409.000000 46.000000 C 10843.666667 46.000000 10278.333333 46.000000 9713.000000 46.000000 C 9713.000000 27.333333 9713.000000 8.666667 9713.000000 -10.000000z M 10466.000000 -1561.000000 C 10484.666667 -1561.000000 10503.333333 -1561.000000 10522.000000 -1561.000000 C 10522.000000 -1035.666667 10522.000000 -510.333333 10522.000000 15.000000 C 10503.333333 15.000000 10484.666667 15.000000 10466.000000 15.000000 C 10466.000000 -510.333333 10466.000000 -1035.666667 10466.000000 -1561.000000z "/>
</g></svg>
