<?xml version="1.0" ?>
<svg xmlns="http://www.w3.org/2000/svg" version="1.1" width="600" height="600">
  <defs/>
  <g>
    <path stroke-width="0" fill="rgb(0, 0, 0)" opacity="1.0" d="M 166.20574951171875 321.907470703125 C 168.13632202148438 321.907470703125 170.06689453125 321.907470703125 171.99746704101562 321.907470703125 C 171.99746704101562 336.961669921875 171.99746704101562 352.015869140625 171.99746704101562 367.07000732421875 C 171.99746704101562 369.6968994140625 172.87808227539062 371.41448974609375 174.6392822265625 372.2227783203125 C 176.4005126953125 373.098388671875 180.39712524414062 373.5362548828125 186.62911987304688 373.5362548828125 C 188.0516357421875 373.5362548828125 190.86282348632812 373.5362548828125 195.06265258789062 373.5362548828125 C 199.33023071289062 373.5362548828125 204.0380859375 373.5362548828125 209.186279296875 373.5362548828125 C 214.33447265625 373.5362548828125 219.17782592773438 373.5362548828125 223.71633911132812 373.5362548828125 C 228.2548828125 373.5362548828125 231.50634765625 373.5362548828125 233.47079467773438 373.5362548828125 C 237.12872314453125 373.5362548828125 239.8382568359375 372.8626708984375 241.5994873046875 371.5155029296875 C 243.428466796875 370.2357177734375 244.74935913085938 367.60888671875 245.562255859375 363.63482666015625 C 246.3751220703125 359.5933837890625 246.88314819335938 353.4976806640625 247.08636474609375 345.3475341796875 C 247.76373291015625 345.751708984375 248.40728759765625 346.15582275390625 249.01693725585938 346.5599365234375 C 249.6943359375 346.896728515625 250.33782958984375 347.1998291015625 250.947509765625 347.46923828125 C 251.6248779296875 347.7386474609375 252.23455810546875 347.9407958984375 252.77645874023438 348.075439453125 C 252.37002563476562 356.4949951171875 251.65875244140625 362.96124267578125 250.64266967773438 367.47412109375 C 249.6265869140625 371.987060546875 247.83148193359375 375.08544921875 245.25738525390625 376.769287109375 C 242.75106811523438 378.4532470703125 238.88992309570312 379.295166015625 233.67401123046875 379.295166015625 C 232.86114501953125 379.295166015625 230.89669799804688 379.295166015625 227.78070068359375 379.295166015625 C 224.66470336914062 379.295166015625 220.972900390625 379.295166015625 216.705322265625 379.295166015625 C 212.5054931640625 379.295166015625 208.27178955078125 379.295166015625 204.00424194335938 379.295166015625 C 199.73666381835938 379.295166015625 196.04486083984375 379.295166015625 192.92886352539062 379.295166015625 C 189.8128662109375 379.295166015625 187.91616821289062 379.295166015625 187.23876953125 379.295166015625 C 181.88739013671875 379.295166015625 177.6536865234375 378.9583740234375 174.53768920898438 378.28485107421875 C 171.42166137695312 377.67864990234375 169.2540283203125 376.4998779296875 168.03472900390625 374.7486572265625 C 166.81539916992188 372.99737548828125 166.20574951171875 370.3704833984375 166.20574951171875 366.867919921875 C 166.20574951171875 351.881103515625 166.20574951171875 336.894287109375 166.20574951171875 321.907470703125M 182.97119140625 313.01641845703125 C 184.25823974609375 311.83770751953125 185.5452880859375 310.658935546875 186.83233642578125 309.480224609375 C 192.04827880859375 312.039794921875 197.36578369140625 315.00341796875 202.784912109375 318.37127685546875 C 208.27178955078125 321.7391357421875 213.41998291015625 325.140625 218.22946166992188 328.5758056640625 C 223.0389404296875 332.010986328125 227.001708984375 335.21038818359375 230.11770629882812 338.174072265625 C 228.83065795898438 339.521240234375 227.54360961914062 340.8682861328125 226.25656127929688 342.2154541015625 C 223.27603149414062 339.386474609375 219.38104248046875 336.25439453125 214.571533203125 332.8192138671875 C 209.7620849609375 329.31671142578125 204.58001708984375 325.81414794921875 199.025390625 322.3116455078125 C 193.47079467773438 318.80908203125 188.119384765625 315.710693359375 182.97119140625 313.01641845703125M 256.1295471191406 323.8271484375 C 257.8230285644531 323.119873046875 259.5165100097656 322.41265869140625 261.2099914550781 321.7054443359375 C 265.20660400390625 326.6224365234375 269.16937255859375 332.044677734375 273.09820556640625 337.9720458984375 C 277.0948486328125 343.83203125 280.68499755859375 349.59100341796875 283.8687744140625 355.2489013671875 C 287.052490234375 360.8394775390625 289.4233703613281 365.82391357421875 290.98138427734375 370.2020263671875 C 289.186279296875 371.11138916015625 287.39117431640625 372.02069091796875 285.5960998535156 372.92999267578125 C 283.90264892578125 368.5518798828125 281.49786376953125 363.5338134765625 278.38189697265625 357.8758544921875 C 275.3336181640625 352.1505126953125 271.84503173828125 346.32421875 267.9161682128906 340.3968505859375 C 264.0550537109375 334.402099609375 260.12615966796875 328.87890625 256.1295471191406 323.8271484375M 143.14056396484375 324.8375244140625 C 144.76629638671875 325.3426513671875 146.39202880859375 325.84783935546875 148.01779174804688 326.35302734375 C 146.59524536132812 331.40478515625 144.8001708984375 336.927978515625 142.63250732421875 342.9227294921875 C 140.5325927734375 348.85009765625 138.06011962890625 354.6427001953125 135.215087890625 360.3006591796875 C 132.43777465820312 365.8912353515625 129.35562133789062 370.740966796875 125.96865844726562 374.84967041015625 C 124.27517700195312 374.0750732421875 122.58172607421875 373.30047607421875 120.88824462890625 372.52587890625 C 124.41067504882812 368.4171142578125 127.560546875 363.56744384765625 130.33786010742188 357.97686767578125 C 133.18289184570312 352.38629150390625 135.65536499023438 346.6610107421875 137.75527954101562 340.80096435546875 C 139.92294311523438 334.94091796875 141.71804809570312 329.61981201171875 143.14056396484375 324.8375244140625M 144.66470336914062 261.993896484375 C 144.66470336914062 273.0404052734375 144.66470336914062 284.08685302734375 144.66470336914062 295.13330078125 C 185.3082275390625 295.13330078125 225.95172119140625 295.13330078125 266.59527587890625 295.13330078125 C 266.59527587890625 284.08685302734375 266.59527587890625 273.0404052734375 266.59527587890625 261.993896484375 C 225.95172119140625 261.993896484375 185.3082275390625 261.993896484375 144.66470336914062 261.993896484375M 144.66470336914062 223.49969482421875 C 144.66470336914062 234.44512939453125 144.66470336914062 245.3905029296875 144.66470336914062 256.3359375 C 185.3082275390625 256.3359375 225.95172119140625 256.3359375 266.59527587890625 256.3359375 C 266.59527587890625 245.3905029296875 266.59527587890625 234.44512939453125 266.59527587890625 223.49969482421875 C 225.95172119140625 223.49969482421875 185.3082275390625 223.49969482421875 144.66470336914062 223.49969482421875M 139.07620239257812 217.94277954101562 C 183.479248046875 217.94277954101562 227.88229370117188 217.94277954101562 272.28533935546875 217.94277954101562 C 272.28533935546875 245.5589599609375 272.28533935546875 273.175048828125 272.28533935546875 300.791259765625 C 227.88229370117188 300.791259765625 183.479248046875 300.791259765625 139.07620239257812 300.791259765625 C 139.07620239257812 273.175048828125 139.07620239257812 245.5589599609375 139.07620239257812 217.94277954101562M 203.19134521484375 220.06451416015625 C 205.15579223632812 220.06451416015625 207.1202392578125 220.06451416015625 209.08465576171875 220.06451416015625 C 209.08465576171875 245.99676513671875 209.08465576171875 271.928955078125 209.08465576171875 297.8612060546875 C 207.1202392578125 297.8612060546875 205.15579223632812 297.8612060546875 203.19134521484375 297.8612060546875 C 203.19134521484375 271.928955078125 203.19134521484375 245.99676513671875 203.19134521484375 220.06451416015625"/>
    <path stroke-width="0" fill="rgb(0, 0, 0)" opacity="1.0" d="M 351.1337890625 291.79913330078125 C 384.495361328125 291.79913330078125 417.85693359375 291.79913330078125 451.21844482421875 291.79913330078125 C 451.21844482421875 293.68511962890625 451.21844482421875 295.57110595703125 451.21844482421875 297.45709228515625 C 417.85693359375 297.45709228515625 384.495361328125 297.45709228515625 351.1337890625 297.45709228515625 C 351.1337890625 295.57110595703125 351.1337890625 293.68511962890625 351.1337890625 291.79913330078125M 371.963623046875 313.01641845703125 C 391.54022216796875 313.01641845703125 411.1168212890625 313.01641845703125 430.6934814453125 313.01641845703125 C 430.6934814453125 314.8687744140625 430.6934814453125 316.7210693359375 430.6934814453125 318.5733642578125 C 411.1168212890625 318.5733642578125 391.54022216796875 318.5733642578125 371.963623046875 318.5733642578125 C 371.963623046875 316.7210693359375 371.963623046875 314.8687744140625 371.963623046875 313.01641845703125M 371.963623046875 334.7388916015625 C 391.54022216796875 334.7388916015625 411.1168212890625 334.7388916015625 430.6934814453125 334.7388916015625 C 430.6934814453125 336.5911865234375 430.6934814453125 338.4434814453125 430.6934814453125 340.2957763671875 C 411.1168212890625 340.2957763671875 391.54022216796875 340.2957763671875 371.963623046875 340.2957763671875 C 371.963623046875 338.4434814453125 371.963623046875 336.5911865234375 371.963623046875 334.7388916015625M 428.15325927734375 293.41571044921875 C 430.11767578125 293.41571044921875 432.0821533203125 293.41571044921875 434.04656982421875 293.41571044921875 C 434.04656982421875 322.2442626953125 434.04656982421875 351.0728759765625 434.04656982421875 379.9013671875 C 432.0821533203125 379.9013671875 430.11767578125 379.9013671875 428.15325927734375 379.9013671875 C 428.15325927734375 351.0728759765625 428.15325927734375 322.2442626953125 428.15325927734375 293.41571044921875M 368.71209716796875 293.41571044921875 C 370.6427001953125 293.41571044921875 372.5732421875 293.41571044921875 374.5037841796875 293.41571044921875 C 374.5037841796875 316.21588134765625 374.5037841796875 339.0159912109375 374.5037841796875 361.816162109375 C 372.5732421875 361.816162109375 370.6427001953125 361.816162109375 368.71209716796875 361.816162109375 C 368.71209716796875 339.0159912109375 368.71209716796875 316.21588134765625 368.71209716796875 293.41571044921875M 348.7967529296875 360.3006591796875 C 355.5706787109375 360.03125 363.32684326171875 359.6944580078125 372.065185546875 359.290283203125 C 380.871337890625 358.81884765625 390.28704833984375 358.27996826171875 400.31243896484375 357.67376708984375 C 410.40557861328125 357.06756591796875 420.600341796875 356.46136474609375 430.896728515625 355.8551025390625 C 430.8289794921875 357.7410888671875 430.76123046875 359.6270751953125 430.6934814453125 361.5130615234375 C 415.72314453125 362.38873291015625 401.023681640625 363.26434326171875 386.59521484375 364.1400146484375 C 372.16680908203125 364.9482421875 359.7027587890625 365.689208984375 349.2032470703125 366.36279296875 C 349.0677490234375 364.342041015625 348.9322509765625 362.32135009765625 348.7967529296875 360.3006591796875M 326.7476806640625 244.71697998046875 C 346.90008544921875 244.71697998046875 367.052490234375 244.71697998046875 387.20489501953125 244.71697998046875 C 387.20489501953125 246.56927490234375 387.20489501953125 248.42156982421875 387.20489501953125 250.27392578125 C 367.052490234375 250.27392578125 346.90008544921875 250.27392578125 326.7476806640625 250.27392578125 C 326.7476806640625 248.42156982421875 326.7476806640625 246.56927490234375 326.7476806640625 244.71697998046875M 416.061767578125 244.71697998046875 C 436.48516845703125 244.71697998046875 456.9085693359375 244.71697998046875 477.3319091796875 244.71697998046875 C 477.3319091796875 246.56927490234375 477.3319091796875 248.42156982421875 477.3319091796875 250.27392578125 C 456.9085693359375 250.27392578125 436.48516845703125 250.27392578125 416.061767578125 250.27392578125 C 416.061767578125 248.42156982421875 416.061767578125 246.56927490234375 416.061767578125 244.71697998046875M 474.994873046875 218.14483642578125 C 476.9593505859375 218.14483642578125 478.923828125 218.14483642578125 480.88818359375 218.14483642578125 C 480.88818359375 269.7398681640625 480.88818359375 321.3349609375 480.88818359375 372.92999267578125 C 480.88818359375 375.75897216796875 480.38018798828125 377.9144287109375 479.3641357421875 379.396240234375 C 478.415771484375 380.8780517578125 476.8238525390625 381.955810546875 474.5885009765625 382.62933349609375 C 472.35308837890625 383.100830078125 468.864501953125 383.3702392578125 464.122802734375 383.4376220703125 C 459.3809814453125 383.5050048828125 453.318359375 383.53863525390625 445.934814453125 383.53863525390625 C 445.79931640625 383.067138671875 445.6300048828125 382.4609375 445.4267578125 381.72003173828125 C 445.2235107421875 381.04644775390625 444.95257568359375 380.3055419921875 444.6138916015625 379.49725341796875 C 444.3428955078125 378.75634765625 444.0042724609375 378.049072265625 443.5977783203125 377.37548828125 C 450.10076904296875 377.51025390625 455.858642578125 377.57763671875 460.871337890625 377.57763671875 C 465.88397216796875 377.57763671875 469.237060546875 377.51025390625 470.9305419921875 377.37548828125 C 472.488525390625 377.2408447265625 473.53857421875 376.870361328125 474.0804443359375 376.26416015625 C 474.6900634765625 375.725341796875 474.994873046875 374.6812744140625 474.994873046875 373.132080078125 C 474.994873046875 321.46966552734375 474.994873046875 269.8072509765625 474.994873046875 218.14483642578125M 327.15411376953125 218.14483642578125 C 348.22100830078125 218.14483642578125 369.28790283203125 218.14483642578125 390.354736328125 218.14483642578125 C 390.354736328125 238.11602783203125 390.354736328125 258.0872802734375 390.354736328125 278.05841064453125 C 369.28790283203125 278.05841064453125 348.22100830078125 278.05841064453125 327.15411376953125 278.05841064453125 C 327.15411376953125 276.1724853515625 327.15411376953125 274.2864990234375 327.15411376953125 272.4005126953125 C 346.3243408203125 272.4005126953125 365.4945068359375 272.4005126953125 384.6646728515625 272.4005126953125 C 384.6646728515625 256.1676025390625 384.6646728515625 239.9346923828125 384.6646728515625 223.7017822265625 C 365.4945068359375 223.7017822265625 346.3243408203125 223.7017822265625 327.15411376953125 223.7017822265625 C 327.15411376953125 221.84945678710938 327.15411376953125 219.99716186523438 327.15411376953125 218.14483642578125M 477.128662109375 218.14483642578125 C 477.128662109375 219.99716186523438 477.128662109375 221.84945678710938 477.128662109375 223.7017822265625 C 457.348876953125 223.7017822265625 437.5689697265625 223.7017822265625 417.7891845703125 223.7017822265625 C 417.7891845703125 239.9346923828125 417.7891845703125 256.1676025390625 417.7891845703125 272.4005126953125 C 437.5689697265625 272.4005126953125 457.348876953125 272.4005126953125 477.128662109375 272.4005126953125 C 477.128662109375 274.2864990234375 477.128662109375 276.1724853515625 477.128662109375 278.05841064453125 C 455.48602294921875 278.05841064453125 433.8433837890625 278.05841064453125 412.20068359375 278.05841064453125 C 412.20068359375 258.0872802734375 412.20068359375 238.11602783203125 412.20068359375 218.14483642578125 C 433.8433837890625 218.14483642578125 455.48602294921875 218.14483642578125 477.128662109375 218.14483642578125M 323.39459228515625 218.14483642578125 C 325.3590087890625 218.14483642578125 327.323486328125 218.14483642578125 329.28790283203125 218.14483642578125 C 329.28790283203125 273.41082763671875 329.28790283203125 328.67681884765625 329.28790283203125 383.9427490234375 C 327.323486328125 383.9427490234375 325.3590087890625 383.9427490234375 323.39459228515625 383.9427490234375 C 323.39459228515625 328.67681884765625 323.39459228515625 273.41082763671875 323.39459228515625 218.14483642578125"/>
  </g>
</svg>
