<?xml version="1.0" encoding="utf-8"?>
<svg xmlns="http://www.w3.org/2000/svg" xmlns:ev="http://www.w3.org/2001/xml-events" xmlns:xlink="http://www.w3.org/1999/xlink" version="1.1" baseProfile="full" width="5549.0" height="1736.0" viewBox="96.0 -1596.0 5549.0 1736.0">
<defs/>
<g><path d="M 501.000000 -1594.000000 C 519.666667 -1594.000000 538.333333 -1594.000000 557.000000 -1594.000000 C 557.000000 -1517.666667 557.000000 -1441.333333 557.000000 -1365.000000 C 538.333333 -1365.000000 519.666667 -1365.000000 501.000000 -1365.000000 C 501.000000 -1441.333333 501.000000 -1517.666667 501.000000 -1594.000000z M 134.000000 -1402.000000 C 399.666667 -1402.000000 665.333333 -1402.000000 931.000000 -1402.000000 C 931.000000 -1383.333333 931.000000 -1364.666667 931.000000 -1346.000000 C 665.333333 -1346.000000 399.666667 -1346.000000 134.000000 -1346.000000 C 134.000000 -1364.666667 134.000000 -1383.333333 134.000000 -1402.000000z M 96.000000 -996.000000 C 387.333333 -996.000000 678.666667 -996.000000 970.000000 -996.000000 C 970.000000 -977.000000 970.000000 -958.000000 970.000000 -939.000000 C 678.666667 -939.000000 387.333333 -939.000000 96.000000 -939.000000 C 96.000000 -958.000000 96.000000 -977.000000 96.000000 -996.000000z M 250.000000 -540.000000 C 442.000000 -540.000000 634.000000 -540.000000 826.000000 -540.000000 C 826.000000 -521.333333 826.000000 -502.666667 826.000000 -484.000000 C 634.000000 -484.000000 442.000000 -484.000000 250.000000 -484.000000 C 250.000000 -502.666667 250.000000 -521.333333 250.000000 -540.000000z M 250.000000 -294.000000 C 442.000000 -294.000000 634.000000 -294.000000 826.000000 -294.000000 C 826.000000 -275.333333 826.000000 -256.666667 826.000000 -238.000000 C 634.000000 -238.000000 442.000000 -238.000000 250.000000 -238.000000 C 250.000000 -256.666667 250.000000 -275.333333 250.000000 -294.000000z M 267.000000 -1302.000000 C 284.333333 -1306.333333 301.666667 -1310.666667 319.000000 -1315.000000 C 339.000000 -1271.666667 357.666667 -1224.000000 375.000000 -1172.000000 C 392.333333 -1120.000000 404.333333 -1075.666667 411.000000 -1039.000000 C 392.333333 -1033.666667 373.666667 -1028.333333 355.000000 -1023.000000 C 350.333333 -1060.333333 339.666667 -1105.000000 323.000000 -1157.000000 C 306.333333 -1209.666667 287.666667 -1258.000000 267.000000 -1302.000000z M 758.000000 -1321.000000 C 776.666667 -1313.333333 795.333333 -1305.666667 814.000000 -1298.000000 C 796.000000 -1250.666667 776.666667 -1201.333333 756.000000 -1150.000000 C 736.000000 -1098.666667 717.000000 -1054.000000 699.000000 -1016.000000 C 683.000000 -1023.000000 667.000000 -1030.000000 651.000000 -1037.000000 C 669.000000 -1075.000000 688.333333 -1121.666667 709.000000 -1177.000000 C 730.333333 -1232.333333 746.666667 -1280.333333 758.000000 -1321.000000z M 215.000000 -776.000000 C 419.333333 -776.000000 623.666667 -776.000000 828.000000 -776.000000 C 828.000000 -757.333333 828.000000 -738.666667 828.000000 -720.000000 C 642.333333 -720.000000 456.666667 -720.000000 271.000000 -720.000000 C 271.000000 -436.000000 271.000000 -152.000000 271.000000 132.000000 C 252.333333 132.000000 233.666667 132.000000 215.000000 132.000000 C 215.000000 -170.666667 215.000000 -473.333333 215.000000 -776.000000z M 803.000000 -776.000000 C 821.333333 -776.000000 839.666667 -776.000000 858.000000 -776.000000 C 858.000000 -502.000000 858.000000 -228.000000 858.000000 46.000000 C 858.000000 68.000000 855.000000 85.000000 849.000000 97.000000 C 843.666667 109.000000 832.000000 118.333333 814.000000 125.000000 C 794.666667 129.666667 767.000000 132.333333 731.000000 133.000000 C 695.666667 133.666667 650.333333 134.000000 595.000000 134.000000 C 593.666667 126.666667 590.333333 117.000000 585.000000 105.000000 C 580.333333 93.666667 575.333333 83.666667 570.000000 75.000000 C 621.333333 76.333333 664.666667 77.333333 700.000000 78.000000 C 735.333333 78.666667 759.333333 78.333333 772.000000 77.000000 C 784.666667 75.666667 793.000000 73.000000 797.000000 69.000000 C 801.000000 65.000000 803.000000 57.333333 803.000000 46.000000 C 803.000000 -228.000000 803.000000 -502.000000 803.000000 -776.000000z M 1114.000000 -1421.000000 C 1346.333333 -1421.000000 1578.666667 -1421.000000 1811.000000 -1421.000000 C 1811.000000 -1402.333333 1811.000000 -1383.666667 1811.000000 -1365.000000 C 1578.666667 -1365.000000 1346.333333 -1365.000000 1114.000000 -1365.000000 C 1114.000000 -1383.666667 1114.000000 -1402.333333 1114.000000 -1421.000000z M 1116.000000 -641.000000 C 1320.000000 -641.000000 1524.000000 -641.000000 1728.000000 -641.000000 C 1728.000000 -622.666667 1728.000000 -604.333333 1728.000000 -586.000000 C 1524.000000 -586.000000 1320.000000 -586.000000 1116.000000 -586.000000 C 1116.000000 -604.333333 1116.000000 -622.666667 1116.000000 -641.000000z M 1114.000000 -428.000000 C 1314.666667 -428.000000 1515.333333 -428.000000 1716.000000 -428.000000 C 1716.000000 -409.000000 1716.000000 -390.000000 1716.000000 -371.000000 C 1515.333333 -371.000000 1314.666667 -371.000000 1114.000000 -371.000000 C 1114.000000 -390.000000 1114.000000 -409.000000 1114.000000 -428.000000z M 1116.000000 -202.000000 C 1322.666667 -202.000000 1529.333333 -202.000000 1736.000000 -202.000000 C 1736.000000 -183.333333 1736.000000 -164.666667 1736.000000 -146.000000 C 1529.333333 -146.000000 1322.666667 -146.000000 1116.000000 -146.000000 C 1116.000000 -164.666667 1116.000000 -183.333333 1116.000000 -202.000000z M 1087.000000 -1596.000000 C 1105.333333 -1596.000000 1123.666667 -1596.000000 1142.000000 -1596.000000 C 1142.000000 -1440.333333 1142.000000 -1284.666667 1142.000000 -1129.000000 C 1123.666667 -1129.000000 1105.333333 -1129.000000 1087.000000 -1129.000000 C 1087.000000 -1284.666667 1087.000000 -1440.333333 1087.000000 -1596.000000z M 1087.000000 -1158.000000 C 1302.000000 -1158.000000 1517.000000 -1158.000000 1732.000000 -1158.000000 C 1732.000000 -1040.000000 1732.000000 -922.000000 1732.000000 -804.000000 C 1517.000000 -804.000000 1302.000000 -804.000000 1087.000000 -804.000000 C 1087.000000 -822.666667 1087.000000 -841.333333 1087.000000 -860.000000 C 1282.666667 -860.000000 1478.333333 -860.000000 1674.000000 -860.000000 C 1674.000000 -940.000000 1674.000000 -1020.000000 1674.000000 -1100.000000 C 1478.333333 -1100.000000 1282.666667 -1100.000000 1087.000000 -1100.000000 C 1087.000000 -1119.333333 1087.000000 -1138.666667 1087.000000 -1158.000000z M 1087.000000 -820.000000 C 1105.333333 -820.000000 1123.666667 -820.000000 1142.000000 -820.000000 C 1142.000000 -547.333333 1142.000000 -274.666667 1142.000000 -2.000000 C 1142.000000 24.666667 1149.333333 42.666667 1164.000000 52.000000 C 1179.333333 62.000000 1213.666667 67.000000 1267.000000 67.000000 C 1279.666667 67.000000 1305.000000 67.000000 1343.000000 67.000000 C 1381.000000 67.000000 1423.333333 67.000000 1470.000000 67.000000 C 1516.666667 67.000000 1560.333333 67.000000 1601.000000 67.000000 C 1642.333333 67.000000 1671.333333 67.000000 1688.000000 67.000000 C 1712.000000 67.000000 1730.333333 62.666667 1743.000000 54.000000 C 1756.333333 46.000000 1765.333333 30.000000 1770.000000 6.000000 C 1775.333333 -17.333333 1778.666667 -52.000000 1780.000000 -98.000000 C 1787.333333 -92.666667 1796.333333 -87.666667 1807.000000 -83.000000 C 1818.333333 -79.000000 1828.333333 -75.666667 1837.000000 -73.000000 C 1835.000000 -21.666667 1829.666667 18.333333 1821.000000 47.000000 C 1813.000000 75.666667 1798.666667 95.666667 1778.000000 107.000000 C 1757.333333 119.000000 1727.333333 125.000000 1688.000000 125.000000 C 1681.333333 125.000000 1664.000000 125.000000 1636.000000 125.000000 C 1608.000000 125.000000 1575.000000 125.000000 1537.000000 125.000000 C 1499.000000 125.000000 1460.666667 125.000000 1422.000000 125.000000 C 1384.000000 125.000000 1351.333333 125.000000 1324.000000 125.000000 C 1296.666667 125.000000 1279.666667 125.000000 1273.000000 125.000000 C 1224.333333 125.000000 1186.333333 121.666667 1159.000000 115.000000 C 1132.333333 109.000000 1113.666667 96.666667 1103.000000 78.000000 C 1092.333333 59.333333 1087.000000 32.000000 1087.000000 -4.000000 C 1087.000000 -276.000000 1087.000000 -548.000000 1087.000000 -820.000000z "/>
</g>
<g><path d="M 2711.000000 -1400.000000 C 3050.333333 -1400.000000 3389.666667 -1400.000000 3729.000000 -1400.000000 C 3729.000000 -1381.333333 3729.000000 -1362.666667 3729.000000 -1344.000000 C 3389.666667 -1344.000000 3050.333333 -1344.000000 2711.000000 -1344.000000 C 2711.000000 -1362.666667 2711.000000 -1381.333333 2711.000000 -1400.000000z M 2655.000000 -947.000000 C 3020.000000 -947.000000 3385.000000 -947.000000 3750.000000 -947.000000 C 3750.000000 -928.333333 3750.000000 -909.666667 3750.000000 -891.000000 C 3385.000000 -891.000000 3020.000000 -891.000000 2655.000000 -891.000000 C 2655.000000 -909.666667 2655.000000 -928.333333 2655.000000 -947.000000z M 2655.000000 -246.000000 C 3020.000000 -246.000000 3385.000000 -246.000000 3750.000000 -246.000000 C 3750.000000 -226.666667 3750.000000 -207.333333 3750.000000 -188.000000 C 3385.000000 -188.000000 3020.000000 -188.000000 2655.000000 -188.000000 C 2655.000000 -207.333333 2655.000000 -226.666667 2655.000000 -246.000000z M 2822.000000 -488.000000 C 3084.666667 -488.000000 3347.333333 -488.000000 3610.000000 -488.000000 C 3610.000000 -469.333333 3610.000000 -450.666667 3610.000000 -432.000000 C 3347.333333 -432.000000 3084.666667 -432.000000 2822.000000 -432.000000 C 2822.000000 -450.666667 2822.000000 -469.333333 2822.000000 -488.000000z M 2751.000000 -1181.000000 C 3064.666667 -1181.000000 3378.333333 -1181.000000 3692.000000 -1181.000000 C 3692.000000 -1161.666667 3692.000000 -1142.333333 3692.000000 -1123.000000 C 3378.333333 -1123.000000 3064.666667 -1123.000000 2751.000000 -1123.000000 C 2751.000000 -1142.333333 2751.000000 -1161.666667 2751.000000 -1181.000000z M 2966.000000 -1592.000000 C 2984.666667 -1592.000000 3003.333333 -1592.000000 3022.000000 -1592.000000 C 3022.000000 -1368.666667 3022.000000 -1145.333333 3022.000000 -922.000000 C 3003.333333 -922.000000 2984.666667 -922.000000 2966.000000 -922.000000 C 2966.000000 -1145.333333 2966.000000 -1368.666667 2966.000000 -1592.000000z M 3412.000000 -1592.000000 C 3431.000000 -1592.000000 3450.000000 -1592.000000 3469.000000 -1592.000000 C 3469.000000 -1368.666667 3469.000000 -1145.333333 3469.000000 -922.000000 C 3450.000000 -922.000000 3431.000000 -922.000000 3412.000000 -922.000000 C 3412.000000 -1145.333333 3412.000000 -1368.666667 3412.000000 -1592.000000z M 3174.000000 -927.000000 C 3192.333333 -927.000000 3210.666667 -927.000000 3229.000000 -927.000000 C 3229.000000 -690.333333 3229.000000 -453.666667 3229.000000 -217.000000 C 3210.666667 -217.000000 3192.333333 -217.000000 3174.000000 -217.000000 C 3174.000000 -453.666667 3174.000000 -690.333333 3174.000000 -927.000000z M 3577.000000 -741.000000 C 3596.333333 -741.000000 3615.666667 -741.000000 3635.000000 -741.000000 C 3635.000000 -478.666667 3635.000000 -216.333333 3635.000000 46.000000 C 3635.000000 69.333333 3631.333333 86.666667 3624.000000 98.000000 C 3616.666667 109.333333 3604.333333 118.333333 3587.000000 125.000000 C 3567.666667 129.666667 3538.000000 132.333333 3498.000000 133.000000 C 3458.666667 133.666667 3407.000000 134.000000 3343.000000 134.000000 C 3341.666667 126.666667 3338.666667 117.333333 3334.000000 106.000000 C 3329.333333 95.333333 3324.666667 85.666667 3320.000000 77.000000 C 3376.000000 78.333333 3424.000000 79.333333 3464.000000 80.000000 C 3504.666667 80.666667 3531.333333 80.333333 3544.000000 79.000000 C 3558.000000 77.666667 3567.000000 74.666667 3571.000000 70.000000 C 3575.000000 65.333333 3577.000000 57.333333 3577.000000 46.000000 C 3577.000000 -216.333333 3577.000000 -478.666667 3577.000000 -741.000000z M 2792.000000 -741.000000 C 3062.000000 -741.000000 3332.000000 -741.000000 3602.000000 -741.000000 C 3602.000000 -722.333333 3602.000000 -703.666667 3602.000000 -685.000000 C 3350.333333 -685.000000 3098.666667 -685.000000 2847.000000 -685.000000 C 2847.000000 -412.000000 2847.000000 -139.000000 2847.000000 134.000000 C 2828.666667 134.000000 2810.333333 134.000000 2792.000000 134.000000 C 2792.000000 -157.666667 2792.000000 -449.333333 2792.000000 -741.000000z M 2091.000000 -1014.000000 C 2255.333333 -1014.000000 2419.666667 -1014.000000 2584.000000 -1014.000000 C 2584.000000 -995.333333 2584.000000 -976.666667 2584.000000 -958.000000 C 2419.666667 -958.000000 2255.333333 -958.000000 2091.000000 -958.000000 C 2091.000000 -976.666667 2091.000000 -995.333333 2091.000000 -1014.000000z M 2102.000000 -1519.000000 C 2261.000000 -1519.000000 2420.000000 -1519.000000 2579.000000 -1519.000000 C 2579.000000 -1500.333333 2579.000000 -1481.666667 2579.000000 -1463.000000 C 2420.000000 -1463.000000 2261.000000 -1463.000000 2102.000000 -1463.000000 C 2102.000000 -1481.666667 2102.000000 -1500.333333 2102.000000 -1519.000000z M 2091.000000 -758.000000 C 2255.333333 -758.000000 2419.666667 -758.000000 2584.000000 -758.000000 C 2584.000000 -739.666667 2584.000000 -721.333333 2584.000000 -703.000000 C 2419.666667 -703.000000 2255.333333 -703.000000 2091.000000 -703.000000 C 2091.000000 -721.333333 2091.000000 -739.666667 2091.000000 -758.000000z M 2010.000000 -1271.000000 C 2216.666667 -1271.000000 2423.333333 -1271.000000 2630.000000 -1271.000000 C 2630.000000 -1251.666667 2630.000000 -1232.333333 2630.000000 -1213.000000 C 2423.333333 -1213.000000 2216.666667 -1213.000000 2010.000000 -1213.000000 C 2010.000000 -1232.333333 2010.000000 -1251.666667 2010.000000 -1271.000000z M 2122.000000 -503.000000 C 2278.666667 -503.000000 2435.333333 -503.000000 2592.000000 -503.000000 C 2592.000000 -324.333333 2592.000000 -145.666667 2592.000000 33.000000 C 2435.333333 33.000000 2278.666667 33.000000 2122.000000 33.000000 C 2122.000000 14.333333 2122.000000 -4.333333 2122.000000 -23.000000 C 2260.000000 -23.000000 2398.000000 -23.000000 2536.000000 -23.000000 C 2536.000000 -163.666667 2536.000000 -304.333333 2536.000000 -445.000000 C 2398.000000 -445.000000 2260.000000 -445.000000 2122.000000 -445.000000 C 2122.000000 -464.333333 2122.000000 -483.666667 2122.000000 -503.000000z M 2091.000000 -503.000000 C 2110.000000 -503.000000 2129.000000 -503.000000 2148.000000 -503.000000 C 2148.000000 -291.333333 2148.000000 -79.666667 2148.000000 132.000000 C 2129.000000 132.000000 2110.000000 132.000000 2091.000000 132.000000 C 2091.000000 -79.666667 2091.000000 -291.333333 2091.000000 -503.000000z "/>
</g>
<g><path d="M 4211.000000 -432.000000 C 4608.333333 -432.000000 5005.666667 -432.000000 5403.000000 -432.000000 C 5403.000000 -243.333333 5403.000000 -54.666667 5403.000000 134.000000 C 5383.666667 134.000000 5364.333333 134.000000 5345.000000 134.000000 C 5345.000000 -35.333333 5345.000000 -204.666667 5345.000000 -374.000000 C 4986.000000 -374.000000 4627.000000 -374.000000 4268.000000 -374.000000 C 4268.000000 -202.666667 4268.000000 -31.333333 4268.000000 140.000000 C 4249.000000 140.000000 4230.000000 140.000000 4211.000000 140.000000 C 4211.000000 -50.666667 4211.000000 -241.333333 4211.000000 -432.000000z M 4237.000000 -213.000000 C 4616.000000 -213.000000 4995.000000 -213.000000 5374.000000 -213.000000 C 5374.000000 -194.333333 5374.000000 -175.666667 5374.000000 -157.000000 C 4995.000000 -157.000000 4616.000000 -157.000000 4237.000000 -157.000000 C 4237.000000 -175.666667 4237.000000 -194.333333 4237.000000 -213.000000z M 4237.000000 13.000000 C 4616.000000 13.000000 4995.000000 13.000000 5374.000000 13.000000 C 5374.000000 31.666667 5374.000000 50.333333 5374.000000 69.000000 C 4995.000000 69.000000 4616.000000 69.000000 4237.000000 69.000000 C 4237.000000 50.333333 4237.000000 31.666667 4237.000000 13.000000z M 4765.000000 -1596.000000 C 4784.333333 -1596.000000 4803.666667 -1596.000000 4823.000000 -1596.000000 C 4823.000000 -1257.333333 4823.000000 -918.666667 4823.000000 -580.000000 C 4803.666667 -580.000000 4784.333333 -580.000000 4765.000000 -580.000000 C 4765.000000 -918.666667 4765.000000 -1257.333333 4765.000000 -1596.000000z M 4172.000000 -1446.000000 C 4579.000000 -1446.000000 4986.000000 -1446.000000 5393.000000 -1446.000000 C 5393.000000 -1286.666667 5393.000000 -1127.333333 5393.000000 -968.000000 C 4978.333333 -968.000000 4563.666667 -968.000000 4149.000000 -968.000000 C 4149.000000 -986.333333 4149.000000 -1004.666667 4149.000000 -1023.000000 C 4544.666667 -1023.000000 4940.333333 -1023.000000 5336.000000 -1023.000000 C 5336.000000 -1144.666667 5336.000000 -1266.333333 5336.000000 -1388.000000 C 4948.000000 -1388.000000 4560.000000 -1388.000000 4172.000000 -1388.000000 C 4172.000000 -1407.333333 4172.000000 -1426.666667 4172.000000 -1446.000000z M 3963.000000 -1236.000000 C 4522.333333 -1236.000000 5081.666667 -1236.000000 5641.000000 -1236.000000 C 5641.000000 -1217.666667 5641.000000 -1199.333333 5641.000000 -1181.000000 C 5081.666667 -1181.000000 4522.333333 -1181.000000 3963.000000 -1181.000000 C 3963.000000 -1199.333333 3963.000000 -1217.666667 3963.000000 -1236.000000z M 4086.000000 -820.000000 C 4566.000000 -820.000000 5046.000000 -820.000000 5526.000000 -820.000000 C 5526.000000 -801.333333 5526.000000 -782.666667 5526.000000 -764.000000 C 5046.000000 -764.000000 4566.000000 -764.000000 4086.000000 -764.000000 C 4086.000000 -782.666667 4086.000000 -801.333333 4086.000000 -820.000000z M 3959.000000 -609.000000 C 4521.000000 -609.000000 5083.000000 -609.000000 5645.000000 -609.000000 C 5645.000000 -589.666667 5645.000000 -570.333333 5645.000000 -551.000000 C 5083.000000 -551.000000 4521.000000 -551.000000 3959.000000 -551.000000 C 3959.000000 -570.333333 3959.000000 -589.666667 3959.000000 -609.000000z "/>
</g>
</svg>
