<?xml version="1.0" encoding="utf-8"?>
<svg xmlns="http://www.w3.org/2000/svg" xmlns:ev="http://www.w3.org/2001/xml-events" xmlns:xlink="http://www.w3.org/1999/xlink" version="1.1" baseProfile="full" width="49628.0" height="1744.0" viewBox="213.0 -1596.0 49628.0 1744.0">
<defs/>
<g><path d="M 7144.000000 -1371.000000 C 7154.666667 -1314.333333 7168.666667 -1251.333333 7186.000000 -1182.000000 C 7204.000000 -1113.333333 7228.000000 -1042.333333 7258.000000 -969.000000 C 7288.666667 -896.333333 7327.333333 -824.666667 7374.000000 -754.000000 C 7420.666667 -684.000000 7478.666667 -619.000000 7548.000000 -559.000000 C 7532.333333 -542.333333 7516.666667 -525.666667 7501.000000 -509.000000 C 7429.666667 -583.000000 7368.666667 -661.333333 7318.000000 -744.000000 C 7267.333333 -826.666667 7223.333333 -917.666667 7186.000000 -1017.000000 C 7149.333333 -1117.000000 7115.000000 -1228.666667 7083.000000 -1352.000000 C 7103.333333 -1358.333333 7123.666667 -1364.666667 7144.000000 -1371.000000z M 6008.000000 -1261.000000 C 6033.333333 -1259.000000 6066.000000 -1259.000000 6106.000000 -1261.000000 C 6145.333333 -1262.333333 6193.000000 -1266.333333 6249.000000 -1273.000000 C 6305.666667 -1279.666667 6363.000000 -1287.666667 6421.000000 -1297.000000 C 6479.666667 -1306.333333 6533.333333 -1316.000000 6582.000000 -1326.000000 C 6630.666667 -1336.666667 6667.000000 -1347.000000 6691.000000 -1357.000000 C 6696.666667 -1338.000000 6702.333333 -1319.000000 6708.000000 -1300.000000 C 6696.666667 -1297.333333 6679.333333 -1293.333333 6656.000000 -1288.000000 C 6633.333333 -1283.333333 6615.000000 -1278.333333 6601.000000 -1273.000000 C 6579.000000 -1256.333333 6549.666667 -1229.000000 6513.000000 -1191.000000 C 6477.000000 -1153.666667 6438.666667 -1107.000000 6398.000000 -1051.000000 C 6358.000000 -995.666667 6320.000000 -933.000000 6284.000000 -863.000000 C 6248.000000 -793.000000 6218.333333 -718.666667 6195.000000 -640.000000 C 6172.333333 -561.333333 6161.000000 -480.000000 6161.000000 -396.000000 C 6161.000000 -316.000000 6172.666667 -249.333333 6196.000000 -196.000000 C 6220.000000 -143.333333 6252.000000 -101.666667 6292.000000 -71.000000 C 6332.666667 -40.333333 6378.000000 -18.333333 6428.000000 -5.000000 C 6478.000000 8.333333 6529.333333 15.000000 6582.000000 15.000000 C 6742.000000 15.000000 6868.666667 -37.666667 6962.000000 -143.000000 C 7055.333333 -248.333333 7115.333333 -396.666667 7142.000000 -588.000000 C 7169.333333 -780.000000 7162.333333 -1004.333333 7121.000000 -1261.000000 C 7139.666667 -1210.666667 7158.333333 -1160.333333 7177.000000 -1110.000000 C 7195.000000 -993.333333 7204.000000 -878.333333 7204.000000 -765.000000 C 7204.000000 -651.666667 7192.333333 -544.666667 7169.000000 -444.000000 C 7146.333333 -344.000000 7110.333333 -255.000000 7061.000000 -177.000000 C 7011.666667 -99.666667 6947.333333 -39.000000 6868.000000 5.000000 C 6788.666667 49.000000 6692.666667 71.000000 6580.000000 71.000000 C 6505.333333 71.000000 6439.000000 60.666667 6381.000000 40.000000 C 6323.000000 20.000000 6273.333333 -9.666667 6232.000000 -49.000000 C 6191.333333 -88.333333 6160.333333 -136.333333 6139.000000 -193.000000 C 6118.333333 -249.666667 6108.000000 -314.000000 6108.000000 -386.000000 C 6108.000000 -487.333333 6121.333333 -582.333333 6148.000000 -671.000000 C 6174.666667 -759.666667 6208.666667 -841.333333 6250.000000 -916.000000 C 6292.000000 -991.333333 6336.333333 -1058.000000 6383.000000 -1116.000000 C 6429.666667 -1174.666667 6473.000000 -1223.000000 6513.000000 -1261.000000 C 6473.000000 -1253.666667 6427.000000 -1246.000000 6375.000000 -1238.000000 C 6323.666667 -1230.666667 6274.333333 -1223.666667 6227.000000 -1217.000000 C 6180.333333 -1211.000000 6143.000000 -1206.000000 6115.000000 -1202.000000 C 6098.333333 -1200.666667 6081.666667 -1198.666667 6065.000000 -1196.000000 C 6048.333333 -1193.333333 6031.000000 -1190.666667 6013.000000 -1188.000000 C 6011.333333 -1212.333333 6009.666667 -1236.666667 6008.000000 -1261.000000z "/>
</g></svg>
