<?xml version="1.0" encoding="utf-8"?>
<svg xmlns="http://www.w3.org/2000/svg" xmlns:ev="http://www.w3.org/2001/xml-events" xmlns:xlink="http://www.w3.org/1999/xlink" version="1.1" baseProfile="full" width="14880.0" height="1739.0" viewBox="382.0 -1601.0 14880.0 1739.0">
<defs/>
<g><path d="M 10045.000000 -1039.000000 C 10373.333333 -1039.000000 10701.666667 -1039.000000 11030.000000 -1039.000000 C 11030.000000 -1020.333333 11030.000000 -1001.666667 11030.000000 -983.000000 C 10701.666667 -983.000000 10373.333333 -983.000000 10045.000000 -983.000000 C 10045.000000 -1001.666667 10045.000000 -1020.333333 10045.000000 -1039.000000z M 9750.000000 -551.000000 C 10292.000000 -551.000000 10834.000000 -551.000000 11376.000000 -551.000000 C 11376.000000 -532.333333 11376.000000 -513.666667 11376.000000 -495.000000 C 10834.000000 -495.000000 10292.000000 -495.000000 9750.000000 -495.000000 C 9750.000000 -513.666667 9750.000000 -532.333333 9750.000000 -551.000000z M 10537.000000 -716.000000 C 10556.333333 -716.000000 10575.666667 -716.000000 10595.000000 -716.000000 C 10595.000000 -464.000000 10595.000000 -212.000000 10595.000000 40.000000 C 10595.000000 64.666667 10590.333333 83.000000 10581.000000 95.000000 C 10572.333333 107.000000 10557.000000 116.333333 10535.000000 123.000000 C 10514.333333 128.333333 10482.000000 131.000000 10438.000000 131.000000 C 10394.000000 131.666667 10330.333333 132.000000 10247.000000 132.000000 C 10245.666667 127.333333 10243.333333 122.000000 10240.000000 116.000000 C 10237.333333 110.666667 10234.333333 104.666667 10231.000000 98.000000 C 10227.666667 91.333333 10224.000000 85.666667 10220.000000 81.000000 C 10267.333333 81.000000 10309.666667 81.333333 10347.000000 82.000000 C 10385.000000 82.666667 10416.666667 82.666667 10442.000000 82.000000 C 10468.000000 81.333333 10486.333333 81.000000 10497.000000 81.000000 C 10512.333333 79.666667 10522.666667 76.000000 10528.000000 70.000000 C 10534.000000 64.000000 10537.000000 54.666667 10537.000000 42.000000 C 10537.000000 -210.666667 10537.000000 -463.333333 10537.000000 -716.000000z M 11015.000000 -1039.000000 C 11019.333333 -1039.000000 11023.666667 -1039.000000 11028.000000 -1039.000000 C 11032.666667 -1040.333333 11037.333333 -1041.666667 11042.000000 -1043.000000 C 11055.333333 -1033.333333 11068.666667 -1023.666667 11082.000000 -1014.000000 C 11040.000000 -969.333333 10990.666667 -924.333333 10934.000000 -879.000000 C 10878.000000 -834.333333 10819.666667 -792.333333 10759.000000 -753.000000 C 10699.000000 -714.333333 10641.666667 -681.000000 10587.000000 -653.000000 C 10583.000000 -659.000000 10577.000000 -665.666667 10569.000000 -673.000000 C 10561.666667 -680.333333 10554.666667 -685.666667 10548.000000 -689.000000 C 10603.333333 -716.333333 10660.000000 -748.666667 10718.000000 -786.000000 C 10776.666667 -824.000000 10831.666667 -863.666667 10883.000000 -905.000000 C 10935.000000 -947.000000 10979.000000 -987.000000 11015.000000 -1025.000000 C 11015.000000 -1029.666667 11015.000000 -1034.333333 11015.000000 -1039.000000z M 10529.000000 -1601.000000 C 10548.333333 -1601.000000 10567.666667 -1601.000000 10587.000000 -1601.000000 C 10587.000000 -1511.000000 10587.000000 -1421.000000 10587.000000 -1331.000000 C 10567.666667 -1331.000000 10548.333333 -1331.000000 10529.000000 -1331.000000 C 10529.000000 -1421.000000 10529.000000 -1511.000000 10529.000000 -1601.000000z M 9779.000000 -1363.000000 C 10300.333333 -1363.000000 10821.666667 -1363.000000 11343.000000 -1363.000000 C 11343.000000 -1228.000000 11343.000000 -1093.000000 11343.000000 -958.000000 C 11324.000000 -958.000000 11305.000000 -958.000000 11286.000000 -958.000000 C 11286.000000 -1074.000000 11286.000000 -1190.000000 11286.000000 -1306.000000 C 10802.666667 -1306.000000 10319.333333 -1306.000000 9836.000000 -1306.000000 C 9836.000000 -1190.000000 9836.000000 -1074.000000 9836.000000 -958.000000 C 9817.000000 -958.000000 9798.000000 -958.000000 9779.000000 -958.000000 C 9779.000000 -1093.000000 9779.000000 -1228.000000 9779.000000 -1363.000000z "/>
</g></svg>
