<?xml version="1.0" encoding="utf-8"?>
<svg xmlns="http://www.w3.org/2000/svg" xmlns:ev="http://www.w3.org/2001/xml-events" xmlns:xlink="http://www.w3.org/1999/xlink" version="1.1" baseProfile="full" width="41856.0" height="1776.0" viewBox="67.0 -1634.0 41856.0 1776.0">
<defs/>
<g><path d="M 964.000000 -945.000000 C 1179.000000 -945.000000 1394.000000 -945.000000 1609.000000 -945.000000 C 1609.000000 -926.333333 1609.000000 -907.666667 1609.000000 -889.000000 C 1394.000000 -889.000000 1179.000000 -889.000000 964.000000 -889.000000 C 964.000000 -907.666667 964.000000 -926.333333 964.000000 -945.000000z M 925.000000 -40.000000 C 1171.666667 -40.000000 1418.333333 -40.000000 1665.000000 -40.000000 C 1665.000000 -21.000000 1665.000000 -2.000000 1665.000000 17.000000 C 1418.333333 17.000000 1171.666667 17.000000 925.000000 17.000000 C 925.000000 -2.000000 925.000000 -21.000000 925.000000 -40.000000z M 1271.000000 -1523.000000 C 1235.000000 -1453.666667 1188.333333 -1379.666667 1131.000000 -1301.000000 C 1074.333333 -1222.333333 1011.000000 -1145.000000 941.000000 -1069.000000 C 871.666667 -993.666667 800.000000 -925.333333 726.000000 -864.000000 C 722.000000 -870.666667 715.666667 -878.666667 707.000000 -888.000000 C 699.000000 -897.333333 691.666667 -904.666667 685.000000 -910.000000 C 759.666667 -968.666667 832.000000 -1036.333333 902.000000 -1113.000000 C 972.666667 -1190.333333 1037.000000 -1270.000000 1095.000000 -1352.000000 C 1153.666667 -1434.000000 1200.333333 -1512.666667 1235.000000 -1588.000000 C 1255.333333 -1588.000000 1275.666667 -1588.000000 1296.000000 -1588.000000 C 1343.333333 -1511.333333 1399.000000 -1432.000000 1463.000000 -1350.000000 C 1527.000000 -1268.000000 1594.666667 -1190.000000 1666.000000 -1116.000000 C 1738.000000 -1042.666667 1807.333333 -978.666667 1874.000000 -924.000000 C 1866.000000 -917.333333 1858.333333 -909.000000 1851.000000 -899.000000 C 1844.333333 -889.666667 1838.666667 -881.333333 1834.000000 -874.000000 C 1766.000000 -932.666667 1696.333333 -999.000000 1625.000000 -1073.000000 C 1554.333333 -1147.666667 1488.000000 -1224.000000 1426.000000 -1302.000000 C 1364.666667 -1380.000000 1313.000000 -1453.666667 1271.000000 -1523.000000z M 899.000000 -597.000000 C 1163.666667 -597.000000 1428.333333 -597.000000 1693.000000 -597.000000 C 1693.000000 -355.666667 1693.000000 -114.333333 1693.000000 127.000000 C 1674.666667 127.000000 1656.333333 127.000000 1638.000000 127.000000 C 1638.000000 -95.333333 1638.000000 -317.666667 1638.000000 -540.000000 C 1410.000000 -540.000000 1182.000000 -540.000000 954.000000 -540.000000 C 954.000000 -315.333333 954.000000 -90.666667 954.000000 134.000000 C 935.666667 134.000000 917.333333 134.000000 899.000000 134.000000 C 899.000000 -109.666667 899.000000 -353.333333 899.000000 -597.000000z M 403.000000 -1596.000000 C 421.000000 -1587.000000 439.000000 -1578.000000 457.000000 -1569.000000 C 435.000000 -1525.000000 410.666667 -1478.000000 384.000000 -1428.000000 C 357.333333 -1378.666667 330.000000 -1330.333333 302.000000 -1283.000000 C 274.666667 -1236.333333 248.333333 -1196.000000 223.000000 -1162.000000 C 208.333333 -1169.666667 193.666667 -1177.333333 179.000000 -1185.000000 C 204.333333 -1220.333333 230.666667 -1262.333333 258.000000 -1311.000000 C 286.000000 -1359.666667 312.666667 -1409.333333 338.000000 -1460.000000 C 363.333333 -1510.666667 385.000000 -1556.000000 403.000000 -1596.000000z M 614.000000 -1384.000000 C 632.666667 -1375.666667 651.333333 -1367.333333 670.000000 -1359.000000 C 629.333333 -1286.333333 583.333333 -1208.333333 532.000000 -1125.000000 C 480.666667 -1041.666667 428.666667 -960.666667 376.000000 -882.000000 C 324.000000 -803.333333 274.333333 -735.333333 227.000000 -678.000000 C 212.000000 -686.333333 197.000000 -694.666667 182.000000 -703.000000 C 218.000000 -746.333333 255.333333 -796.000000 294.000000 -852.000000 C 333.333333 -908.666667 372.333333 -968.000000 411.000000 -1030.000000 C 450.333333 -1092.000000 487.333333 -1153.666667 522.000000 -1215.000000 C 556.666667 -1277.000000 587.333333 -1333.333333 614.000000 -1384.000000z M 94.000000 -1242.000000 C 106.333333 -1253.000000 118.666667 -1264.000000 131.000000 -1275.000000 C 167.666667 -1244.333333 205.000000 -1210.666667 243.000000 -1174.000000 C 281.000000 -1137.333333 315.666667 -1101.000000 347.000000 -1065.000000 C 378.333333 -1029.666667 402.666667 -998.000000 420.000000 -970.000000 C 408.000000 -956.333333 396.000000 -942.666667 384.000000 -929.000000 C 364.666667 -958.333333 339.333333 -991.666667 308.000000 -1029.000000 C 276.666667 -1066.333333 242.333333 -1103.333333 205.000000 -1140.000000 C 168.333333 -1177.333333 131.333333 -1211.333333 94.000000 -1242.000000z M 536.000000 -950.000000 C 552.666667 -956.666667 569.333333 -963.333333 586.000000 -970.000000 C 614.000000 -930.000000 640.666667 -887.000000 666.000000 -841.000000 C 692.000000 -795.000000 714.666667 -749.666667 734.000000 -705.000000 C 754.000000 -661.000000 769.333333 -622.333333 780.000000 -589.000000 C 762.000000 -580.666667 744.000000 -572.333333 726.000000 -564.000000 C 715.333333 -598.666667 700.000000 -638.000000 680.000000 -682.000000 C 660.666667 -726.666667 638.333333 -772.666667 613.000000 -820.000000 C 588.333333 -867.333333 562.666667 -910.666667 536.000000 -950.000000z M 83.000000 -720.000000 C 162.333333 -722.666667 255.000000 -726.333333 361.000000 -731.000000 C 467.000000 -736.333333 578.333333 -742.333333 695.000000 -749.000000 C 694.333333 -731.000000 693.666667 -713.000000 693.000000 -695.000000 C 581.666667 -688.333333 473.333333 -681.666667 368.000000 -675.000000 C 263.333333 -669.000000 170.000000 -663.666667 88.000000 -659.000000 C 86.333333 -679.333333 84.666667 -699.666667 83.000000 -720.000000z M 593.000000 -524.000000 C 609.000000 -528.666667 625.000000 -533.333333 641.000000 -538.000000 C 670.333333 -484.000000 696.666667 -424.000000 720.000000 -358.000000 C 744.000000 -292.000000 760.666667 -235.333333 770.000000 -188.000000 C 752.666667 -182.333333 735.333333 -176.666667 718.000000 -171.000000 C 709.333333 -219.666667 693.333333 -277.000000 670.000000 -343.000000 C 647.333333 -409.000000 621.666667 -469.333333 593.000000 -524.000000z M 217.000000 -528.000000 C 236.333333 -524.000000 255.666667 -520.000000 275.000000 -516.000000 C 258.333333 -426.666667 236.666667 -339.333333 210.000000 -254.000000 C 184.000000 -169.333333 154.333333 -96.333333 121.000000 -35.000000 C 117.000000 -37.000000 111.666667 -39.666667 105.000000 -43.000000 C 99.000000 -46.333333 92.333333 -50.000000 85.000000 -54.000000 C 78.333333 -58.000000 72.333333 -60.333333 67.000000 -61.000000 C 104.333333 -121.666667 134.666667 -192.666667 158.000000 -274.000000 C 182.000000 -356.000000 201.666667 -440.666667 217.000000 -528.000000z M 415.000000 -714.000000 C 433.333333 -714.000000 451.666667 -714.000000 470.000000 -714.000000 C 470.000000 -428.666667 470.000000 -143.333333 470.000000 142.000000 C 451.666667 142.000000 433.333333 142.000000 415.000000 142.000000 C 415.000000 -143.333333 415.000000 -428.666667 415.000000 -714.000000z "/>
</g></svg>
