<?xml version="1.0" ?>
<svg xmlns="http://www.w3.org/2000/svg" version="1.1" width="600" height="600">
  <defs/>
  <g>
    <path stroke-width="0" fill="rgb(0, 0, 0)" opacity="1.0" d="M 357.817626953125 144.17889404296875 C 357.267333984375 147.06881713867188 356.716552734375 149.889892578125 356.166259765625 152.6422119140625 C 355.615966796875 155.25686645507812 355.13427734375 157.73394775390625 354.721435546875 160.07339477539062 C 354.446044921875 162.412841796875 354.033203125 164.54586791992188 353.48291015625 166.47247314453125 C 350.593017578125 181.74771118164062 346.602294921875 197.98623657226562 341.5107421875 215.18807983398438 C 336.556884765625 232.38992309570312 330.983642578125 249.45413208007812 324.791259765625 266.3807373046875 C 318.736083984375 283.16973876953125 312.40625 298.78900146484375 305.801025390625 313.238525390625 C 299.195556640625 327.6881103515625 292.72802734375 339.935791015625 286.39794921875 349.981689453125 C 278.553955078125 362.366943359375 269.746826171875 374.5458984375 259.9765625 386.518310546875 C 250.206298828125 398.35321044921875 239.816650390625 408.0550537109375 228.807861328125 415.62384033203125 C 217.799072265625 423.0550537109375 206.23974609375 426.7706298828125 194.1298828125 426.7706298828125 C 185.185302734375 426.7706298828125 177.066162109375 424.3624267578125 169.77294921875 419.5458984375 C 162.479736328125 414.59173583984375 156.768798828125 407.366943359375 152.640380859375 397.87158203125 C 148.64990234375 388.37615966796875 146.654296875 376.7476806640625 146.654296875 362.9862060546875 C 146.654296875 347.435791015625 149.681884765625 331.9541015625 155.736572265625 316.541259765625 C 161.79150390625 300.9908447265625 169.979248046875 286.67889404296875 180.300048828125 273.6054992675781 C 190.620849609375 260.5321044921875 201.973876953125 249.66055297851562 214.358642578125 240.9908447265625 C 232.248291015625 228.0550537109375 250.68798828125 218.76605224609375 269.67822265625 213.12384033203125 C 288.80615234375 207.34405517578125 308.002685546875 204.45413208007812 327.26806640625 204.45413208007812 C 351.900634765625 204.45413208007812 373.84912109375 209.61468505859375 393.11474609375 219.935791015625 C 412.38037109375 230.25689697265625 427.44873046875 244.56878662109375 438.31982421875 262.87158203125 C 449.328857421875 281.03668212890625 454.8330078125 302.09173583984375 454.8330078125 326.03668212890625 C 454.8330078125 350.66973876953125 449.122314453125 372.34405517578125 437.70068359375 391.05963134765625 C 426.416748046875 409.6375732421875 410.247314453125 424.7064208984375 389.19287109375 436.26605224609375 C 368.27587890625 447.6881103515625 343.299560546875 455.2568359375 314.263916015625 458.97247314453125 C 311.993408203125 455.5321044921875 309.722900390625 452.09173583984375 307.4521484375 448.6513671875 C 326.99267578125 446.7247314453125 345.0888671875 442.73394775390625 361.739501953125 436.67889404296875 C 378.390380859375 430.62384033203125 392.770751953125 422.435791015625 404.88037109375 412.11468505859375 C 417.1279296875 401.7935791015625 426.623046875 389.47705078125 433.36572265625 375.1651611328125 C 440.108642578125 360.715576171875 443.480224609375 344.3394775390625 443.480224609375 326.03668212890625 C 443.480224609375 304.981689453125 438.59521484375 286.1284484863281 428.82470703125 269.47705078125 C 419.05419921875 252.82568359375 405.293212890625 239.61468505859375 387.54150390625 229.84405517578125 C 369.789794921875 220.07339477539062 349.148193359375 215.18807983398438 325.616943359375 215.18807983398438 C 308.002685546875 215.18807983398438 290.044677734375 218.0091552734375 271.742431640625 223.6513671875 C 253.57763671875 229.2935791015625 235.894775390625 238.58258056640625 218.693359375 251.51837158203125 C 206.859130859375 260.32568359375 196.262939453125 270.9908447265625 186.905517578125 283.5137634277344 C 177.685546875 296.03668212890625 170.4609375 309.17889404296875 165.231689453125 322.94036865234375 C 160.14013671875 336.70184326171875 157.594482421875 350.05047607421875 157.594482421875 362.9862060546875 C 157.594482421875 379.3624267578125 161.03466796875 392.2293701171875 167.915283203125 401.587158203125 C 174.795654296875 410.9449462890625 183.671630859375 415.62384033203125 194.542724609375 415.62384033203125 C 202.2490234375 415.62384033203125 210.02392578125 413.35321044921875 217.867919921875 408.8118896484375 C 225.849365234375 404.133056640625 233.486572265625 398.0780029296875 240.780029296875 390.64678955078125 C 248.2109375 383.0780029296875 255.160400390625 374.958740234375 261.6279296875 366.28900146484375 C 268.095458984375 357.481689453125 273.73779296875 348.94952392578125 278.553955078125 340.692626953125 C 284.05859375 331.47247314453125 289.838134765625 320.39453125 295.89306640625 307.458740234375 C 302.08544921875 294.52294921875 308.14013671875 280.21099853515625 314.0576171875 264.52294921875 C 319.974609375 248.83486938476562 325.410400390625 232.59634399414062 330.364501953125 215.80734252929688 C 335.455810546875 199.01834106445312 339.44677734375 182.29815673828125 342.33642578125 165.64678955078125 C 342.88671875 163.44497680664062 343.36865234375 160.21099853515625 343.781494140625 155.9449462890625 C 344.1943359375 151.54129028320312 344.400634765625 147.2064208984375 344.400634765625 142.94036865234375 C 348.872802734375 143.35321044921875 353.345458984375 143.76605224609375 357.817626953125 144.17889404296875M 200.52880859375 167.09173583984375 C 201.4921875 171.3577880859375 202.661865234375 176.51834106445312 204.037841796875 182.57339477539062 C 205.551513671875 188.49081420898438 206.99658203125 194.064208984375 208.372802734375 199.2935791015625 C 210.436767578125 207.55047607421875 213.3955078125 217.25228881835938 217.24853515625 228.39907836914062 C 221.101806640625 239.40826416015625 225.1611328125 250.761474609375 229.427001953125 262.458740234375 C 233.83056640625 274.01837158203125 238.371826171875 284.889892578125 243.050537109375 295.0733947753906 C 247.729248046875 305.25689697265625 251.926513671875 313.78900146484375 255.641845703125 320.66973876953125 C 262.384765625 333.0550537109375 270.091064453125 345.64678955078125 278.760498046875 358.4449462890625 C 287.567626953125 371.24310302734375 296.856201171875 382.2523193359375 306.62646484375 391.47247314453125 C 303.461669921875 394.3624267578125 300.29638671875 397.2523193359375 297.13134765625 400.1422119140625 C 289.012451171875 391.197265625 280.6181640625 380.738525390625 271.94873046875 368.76605224609375 C 263.4169921875 356.656005859375 254.885009765625 342.82568359375 246.353271484375 327.2752685546875 C 242.6376953125 320.66973876953125 238.578125 312.412841796875 234.174560546875 302.50457763671875 C 229.90869140625 292.5963134765625 225.4365234375 281.86236572265625 220.757568359375 270.302734375 C 216.216552734375 258.6054992675781 211.8818359375 246.90826416015625 207.75341796875 235.21099853515625 C 203.625244140625 223.37615966796875 200.115966796875 212.435791015625 197.226318359375 202.389892578125 C 195.712646484375 196.88531494140625 193.923583984375 191.17431640625 191.859375 185.25689697265625 C 189.932861328125 179.33944702148438 188.28173828125 174.79818725585938 186.905517578125 171.63302612304688 C 191.446533203125 170.1192626953125 195.98779296875 168.60552978515625 200.52880859375 167.09173583984375"/>
  </g>
</svg>
