<?xml version="1.0" ?>
<svg xmlns="http://www.w3.org/2000/svg" version="1.1" width="600" height="600">
  <defs/>
  <g>
    <path stroke-width="0" fill="rgb(0, 0, 0)" opacity="1.0" d="M 126.47454833984375 285.6373291015625 C 134.8685302734375 285.6373291015625 143.26248168945312 285.6373291015625 151.65646362304688 285.6373291015625 C 151.65646362304688 286.0379638671875 151.65646362304688 286.438720703125 151.65646362304688 286.83935546875 C 143.26248168945312 286.83935546875 134.8685302734375 286.83935546875 126.47454833984375 286.83935546875 C 126.47454833984375 286.438720703125 126.47454833984375 286.0379638671875 126.47454833984375 285.6373291015625M 125.99029541015625 285.6373291015625 C 126.38333129882812 285.6373291015625 126.77633666992188 285.6373291015625 127.16937255859375 285.6373291015625 C 127.16937255859375 289.57513427734375 127.16937255859375 293.512939453125 127.16937255859375 297.4508056640625 C 127.16937255859375 299.03973388671875 127.106201171875 300.7598876953125 126.97988891601562 302.61138916015625 C 126.86758422851562 304.44903564453125 126.62896728515625 306.3212890625 126.26400756835938 308.22796630859375 C 125.8990478515625 310.12091064453125 125.36566162109375 311.97235107421875 124.663818359375 313.7823486328125 C 123.96197509765625 315.57861328125 123.01449584960938 317.25732421875 121.82138061523438 318.81866455078125 C 121.77926635742188 318.74957275390625 121.70205688476562 318.6666259765625 121.58978271484375 318.5699462890625 C 121.47747802734375 318.4732666015625 121.35818481445312 318.37652587890625 121.23184204101562 318.27978515625 C 121.11953735351562 318.1968994140625 121.00726318359375 318.1278076171875 120.89495849609375 318.072509765625 C 122.05999755859375 316.55267333984375 122.97940063476562 314.92919921875 123.65316772460938 313.20208740234375 C 124.32693481445312 311.461181640625 124.832275390625 309.67877197265625 125.16912841796875 307.85491943359375 C 125.50601196289062 306.01727294921875 125.72360229492188 304.2210693359375 125.82183837890625 302.46630859375 C 125.93414306640625 300.69775390625 125.99029541015625 299.02587890625 125.99029541015625 297.4508056640625 C 125.99029541015625 293.512939453125 125.99029541015625 289.57513427734375 125.99029541015625 285.6373291015625M 151.17218017578125 285.6373291015625 C 151.55117797851562 285.6373291015625 151.93017578125 285.6373291015625 152.30914306640625 285.6373291015625 C 152.33721923828125 288.0 152.36529541015625 290.42486572265625 152.39337158203125 292.91192626953125 C 152.42144775390625 295.3851318359375 152.4705810546875 297.8238525390625 152.540771484375 300.22796630859375 C 152.625 302.6182861328125 152.73727416992188 304.863525390625 152.87765502929688 306.9637451171875 C 153.01800537109375 309.06390380859375 153.20050048828125 310.9154052734375 153.42507934570312 312.51812744140625 C 153.649658203125 314.12091064453125 153.93038940429688 315.37823486328125 154.26727294921875 316.2901611328125 C 154.60415649414062 317.21588134765625 155.01824951171875 317.6787109375 155.509521484375 317.6787109375 C 155.8043212890625 317.6787109375 156.02188110351562 317.02935791015625 156.1622314453125 315.7305908203125 C 156.316650390625 314.41796875 156.40789794921875 312.8221435546875 156.43597412109375 310.9429931640625 C 156.57632446289062 311.05352783203125 156.7447509765625 311.15716552734375 156.9412841796875 311.25390625 C 157.13778686523438 311.3367919921875 157.30624389648438 311.4058837890625 157.44659423828125 311.461181640625 C 157.39044189453125 313.298828125 157.30624389648438 314.74957275390625 157.19393920898438 315.8134765625 C 157.09567260742188 316.863525390625 156.899169921875 317.60968017578125 156.60440063476562 318.05181884765625 C 156.32366943359375 318.5078125 155.91659545898438 318.74957275390625 155.38320922851562 318.7772216796875 C 154.56906127929688 318.7772216796875 153.90936279296875 318.2244873046875 153.40402221679688 317.119140625 C 152.91275024414062 316.02764892578125 152.5267333984375 314.4732666015625 152.24600219726562 312.4559326171875 C 151.96527099609375 310.438720703125 151.76171875 308.0552978515625 151.63540649414062 305.3056640625 C 151.52310180664062 302.5423583984375 151.43185424804688 299.4957275390625 151.3616943359375 296.165771484375 C 151.29150390625 292.8359375 151.22833251953125 289.326416015625 151.17218017578125 285.6373291015625M 138.24435424804688 291.25390625 C 138.65142822265625 291.25390625 139.0584716796875 291.25390625 139.46554565429688 291.25390625 C 139.46554565429688 298.97064208984375 139.46554565429688 306.6873779296875 139.46554565429688 314.4041748046875 C 139.0584716796875 314.4041748046875 138.65142822265625 314.4041748046875 138.24435424804688 314.4041748046875 C 138.24435424804688 306.6873779296875 138.24435424804688 298.97064208984375 138.24435424804688 291.25390625M 131.69622802734375 297.740966796875 C 131.69622802734375 300.36614990234375 131.69622802734375 302.9913330078125 131.69622802734375 305.6165771484375 C 136.50381469726562 305.6165771484375 141.31137084960938 305.6165771484375 146.11895751953125 305.6165771484375 C 146.11895751953125 302.9913330078125 146.11895751953125 300.36614990234375 146.11895751953125 297.740966796875 C 141.31137084960938 297.740966796875 136.50381469726562 297.740966796875 131.69622802734375 297.740966796875M 130.47503662109375 296.580322265625 C 136.08270263671875 296.580322265625 141.69036865234375 296.580322265625 147.29803466796875 296.580322265625 C 147.29803466796875 299.9862060546875 147.29803466796875 303.39208984375 147.29803466796875 306.79791259765625 C 141.69036865234375 306.79791259765625 136.08270263671875 306.79791259765625 130.47503662109375 306.79791259765625 C 130.47503662109375 303.39208984375 130.47503662109375 299.9862060546875 130.47503662109375 296.580322265625M 146.94012451171875 289.18133544921875 C 147.32611083984375 289.47149658203125 147.71212768554688 289.76165771484375 148.09814453125 290.05181884765625 C 146.59622192382812 290.4801025390625 144.8065185546875 290.860107421875 142.72909545898438 291.19171142578125 C 140.65167236328125 291.5233154296875 138.4759521484375 291.8065185546875 136.2020263671875 292.04144287109375 C 133.92807006835938 292.2763671875 131.72430419921875 292.4766845703125 129.5906982421875 292.6424560546875 C 129.56265258789062 292.50433349609375 129.50650024414062 292.3385009765625 129.42227172851562 292.14508056640625 C 129.35208129882812 291.95166015625 129.2608642578125 291.78582763671875 129.1485595703125 291.647705078125 C 130.70663452148438 291.509521484375 132.32086181640625 291.3643798828125 133.99124145507812 291.21240234375 C 135.66159057617188 291.046630859375 137.30389404296875 290.860107421875 138.91812133789062 290.65283203125 C 140.54638671875 290.445556640625 142.04830932617188 290.2176513671875 143.42391967773438 289.9688720703125 C 144.79949951171875 289.7064208984375 145.97158813476562 289.44384765625 146.94012451171875 289.18133544921875M 127.35888671875 314.445556640625 C 129.02923583984375 314.3626708984375 130.98736572265625 314.259033203125 133.23324584960938 314.13470458984375 C 135.4931640625 313.99658203125 137.91448974609375 313.8446044921875 140.49725341796875 313.6787109375 C 143.09405517578125 313.4991455078125 145.71188354492188 313.3333740234375 148.35079956054688 313.18133544921875 C 148.33676147460938 313.561279296875 148.32272338867188 313.9412841796875 148.30868530273438 314.3212890625 C 145.75399780273438 314.487060546875 143.20632934570312 314.65283203125 140.66567993164062 314.81866455078125 C 138.13906860351562 314.97064208984375 135.73880004882812 315.12261962890625 133.46484375 315.27459716796875 C 131.20492553710938 315.41278076171875 129.21173095703125 315.537109375 127.48519897460938 315.647705078125 C 127.44308471679688 315.2469482421875 127.40097045898438 314.8463134765625 127.35888671875 314.445556640625M 143.90817260742188 309.0362548828125 C 144.23101806640625 308.8912353515625 144.55386352539062 308.74609375 144.876708984375 308.60107421875 C 145.73294067382812 309.44384765625 146.55410766601562 310.3834228515625 147.34014892578125 311.419677734375 C 148.126220703125 312.4559326171875 148.82806396484375 313.4853515625 149.4456787109375 314.5078125 C 150.06329345703125 315.53021240234375 150.50543212890625 316.462890625 150.77212524414062 317.3056640625 C 150.42123413085938 317.4783935546875 150.0703125 317.651123046875 149.71939086914062 317.8238525390625 C 149.42462158203125 316.98095703125 148.97543334960938 316.04833984375 148.37185668945312 315.02587890625 C 147.76828002929688 314.00341796875 147.08047485351562 312.9671630859375 146.3084716796875 311.9171142578125 C 145.53643798828125 310.86700439453125 144.73635864257812 309.90673828125 143.90817260742188 309.0362548828125"/>
    <path stroke-width="0" fill="rgb(0, 0, 0)" opacity="1.0" d="M 168.83740234375 287.5440673828125 C 178.12271118164062 287.5440673828125 187.40802001953125 287.5440673828125 196.69329833984375 287.5440673828125 C 196.69329833984375 287.9447021484375 196.69329833984375 288.345458984375 196.69329833984375 288.74609375 C 187.40802001953125 288.74609375 178.12271118164062 288.74609375 168.83740234375 288.74609375 C 168.83740234375 288.345458984375 168.83740234375 287.9447021484375 168.83740234375 287.5440673828125M 169.27957153320312 293.119140625 C 177.0699462890625 293.119140625 184.8603515625 293.119140625 192.65072631835938 293.119140625 C 192.65072631835938 293.50604248046875 192.65072631835938 293.8929443359375 192.65072631835938 294.27978515625 C 184.8603515625 294.27978515625 177.0699462890625 294.27978515625 169.27957153320312 294.27978515625 C 169.27957153320312 293.8929443359375 169.27957153320312 293.50604248046875 169.27957153320312 293.119140625M 164.79483032226562 298.65283203125 C 173.25897216796875 298.65283203125 181.72314453125 298.65283203125 190.18728637695312 298.65283203125 C 190.18728637695312 299.03973388671875 190.18728637695312 299.4266357421875 190.18728637695312 299.8134765625 C 181.72314453125 299.8134765625 173.25897216796875 299.8134765625 164.79483032226562 299.8134765625 C 164.79483032226562 299.4266357421875 164.79483032226562 299.03973388671875 164.79483032226562 298.65283203125M 170.37442016601562 282.9637451171875 C 170.7955322265625 283.0604248046875 171.21664428710938 283.15716552734375 171.63772583007812 283.25390625 C 170.64114379882812 286.2244873046875 169.36380004882812 288.98101806640625 167.80572509765625 291.5233154296875 C 166.26165771484375 294.05181884765625 164.5491943359375 296.2003173828125 162.66827392578125 297.9688720703125 C 162.61212158203125 297.885986328125 162.51385498046875 297.79620361328125 162.37350463867188 297.699462890625 C 162.24716186523438 297.5889892578125 162.1068115234375 297.4853515625 161.952392578125 297.38861083984375 C 161.7979736328125 297.278076171875 161.67166137695312 297.1951904296875 161.57339477539062 297.139892578125 C 163.48239135742188 295.4404296875 165.19488525390625 293.3609619140625 166.71084594726562 290.90155029296875 C 168.2408447265625 288.4283447265625 169.4620361328125 285.7823486328125 170.37442016601562 282.9637451171875M 182.05999755859375 300.99481201171875 C 182.42495727539062 301.1260986328125 182.7899169921875 301.25732421875 183.15487670898438 301.38861083984375 C 181.6529541015625 303.9447021484375 179.84921264648438 306.30743408203125 177.74371337890625 308.4766845703125 C 175.63821411132812 310.632080078125 173.35723876953125 312.5733642578125 170.90081787109375 314.300537109375 C 168.45843505859375 316.0137939453125 165.896728515625 317.5198974609375 163.2156982421875 318.81866455078125 C 163.173583984375 318.74957275390625 163.09637451171875 318.65283203125 162.98410034179688 318.52850341796875 C 162.87179565429688 318.4041748046875 162.75250244140625 318.2867431640625 162.62615966796875 318.1761474609375 C 162.51385498046875 318.0794677734375 162.40155029296875 317.9896240234375 162.28927612304688 317.90673828125 C 164.98431396484375 316.69085693359375 167.56707763671875 315.2401123046875 170.03753662109375 313.554443359375 C 172.50802612304688 311.8687744140625 174.7679443359375 309.9688720703125 176.81729125976562 307.85491943359375 C 178.88067626953125 305.72711181640625 180.62826538085938 303.4404296875 182.05999755859375 300.99481201171875M 189.53457641601562 298.65283203125 C 189.9276123046875 298.65283203125 190.32061767578125 298.65283203125 190.71365356445312 298.65283203125 C 190.76980590820312 301.416259765625 190.85400390625 303.95855712890625 190.96630859375 306.27978515625 C 191.0926513671875 308.60107421875 191.31723022460938 310.61138916015625 191.64007568359375 312.3109130859375 C 191.96292114257812 313.99658203125 192.41912841796875 315.30914306640625 193.0086669921875 316.24871826171875 C 193.61224365234375 317.20208740234375 194.38424682617188 317.6787109375 195.32470703125 317.6787109375 C 195.81600952148438 317.6787109375 196.13885498046875 317.1260986328125 196.29324340820312 316.020751953125 C 196.46170043945312 314.9154052734375 196.55291748046875 313.4783935546875 196.56695556640625 311.7098388671875 C 196.70733642578125 311.8065185546875 196.88983154296875 311.9033203125 197.11441040039062 312.0 C 197.35302734375 312.0966796875 197.5355224609375 312.1727294921875 197.66183471679688 312.22796630859375 C 197.60568237304688 313.89984130859375 197.50042724609375 315.21240234375 197.34600830078125 316.165771484375 C 197.20562744140625 317.119140625 196.97402954101562 317.7823486328125 196.65118408203125 318.1553955078125 C 196.32833862304688 318.5423583984375 195.85812377929688 318.74957275390625 195.24050903320312 318.7772216796875 C 194.0333251953125 318.7772216796875 193.05780029296875 318.3143310546875 192.3138427734375 317.38861083984375 C 191.56988525390625 316.462890625 191.0084228515625 315.1295166015625 190.62942504882812 313.38861083984375 C 190.25042724609375 311.647705078125 189.98373413085938 309.54058837890625 189.829345703125 307.0673828125 C 189.68896484375 304.580322265625 189.5906982421875 301.7755126953125 189.53457641601562 298.65283203125M 166.71084594726562 303.7098388671875 C 166.9915771484375 303.468017578125 167.27230834960938 303.22625732421875 167.55303955078125 302.9844970703125 C 169.22341918945312 303.882568359375 170.9078369140625 304.8912353515625 172.60626220703125 306.0103759765625 C 174.30471801757812 307.1295166015625 175.947021484375 308.283203125 177.53317260742188 309.47149658203125 C 179.11932373046875 310.64593505859375 180.57913208007812 311.82037353515625 181.91262817382812 312.99481201171875 C 183.2601318359375 314.1553955078125 184.37606811523438 315.2469482421875 185.2603759765625 316.2694091796875 C 184.95156860351562 316.55267333984375 184.64276123046875 316.8359375 184.33395385742188 317.119140625 C 183.43560791015625 316.0828857421875 182.32672119140625 314.9844970703125 181.00726318359375 313.8238525390625 C 179.68780517578125 312.6494140625 178.2349853515625 311.461181640625 176.64886474609375 310.259033203125 C 175.06271362304688 309.043212890625 173.42041015625 307.8756103515625 171.72195434570312 306.7564697265625 C 170.02349853515625 305.62347412109375 168.3531494140625 304.60791015625 166.71084594726562 303.7098388671875"/>
    <path stroke-width="0" fill="rgb(0, 0, 0)" opacity="1.0" d="M 213.34786987304688 295.7098388671875 C 215.92361450195312 295.7098388671875 218.49935913085938 295.7098388671875 221.07510375976562 295.7098388671875 C 221.07510375976562 296.1036376953125 221.07510375976562 296.4974365234375 221.07510375976562 296.8912353515625 C 218.49935913085938 296.8912353515625 215.92361450195312 296.8912353515625 213.34786987304688 296.8912353515625 C 213.34786987304688 296.4974365234375 213.34786987304688 296.1036376953125 213.34786987304688 295.7098388671875M 213.03204345703125 282.9637451171875 C 213.42507934570312 282.9637451171875 213.818115234375 282.9637451171875 214.21112060546875 282.9637451171875 C 214.21112060546875 293.64422607421875 214.21112060546875 304.32470703125 214.21112060546875 315.00518798828125 C 213.818115234375 315.08807373046875 213.42507934570312 315.1710205078125 213.03204345703125 315.25390625 C 213.03204345703125 304.490478515625 213.03204345703125 293.72711181640625 213.03204345703125 282.9637451171875M 205.6417236328125 290.81866455078125 C 206.041748046875 290.81866455078125 206.44180297851562 290.81866455078125 206.84185791015625 290.81866455078125 C 206.84185791015625 299.281494140625 206.84185791015625 307.744384765625 206.84185791015625 316.207275390625 C 206.44180297851562 316.2694091796875 206.041748046875 316.33160400390625 205.6417236328125 316.393798828125 C 205.6417236328125 307.8687744140625 205.6417236328125 299.34368896484375 205.6417236328125 290.81866455078125M 202.08340454101562 316.6424560546875 C 203.6414794921875 316.3800048828125 205.459228515625 316.0621337890625 207.53668212890625 315.6890869140625 C 209.61410522460938 315.3160400390625 211.8319091796875 314.9154052734375 214.19009399414062 314.487060546875 C 216.54824829101562 314.0587158203125 218.927490234375 313.62347412109375 221.3277587890625 313.18133544921875 C 221.34881591796875 313.602783203125 221.369873046875 314.024169921875 221.39093017578125 314.445556640625 C 219.10293579101562 314.8463134765625 216.8009033203125 315.26080322265625 214.48486328125 315.6890869140625 C 212.16879272460938 316.1036376953125 209.9720458984375 316.5042724609375 207.89459228515625 316.8912353515625 C 205.81716918945312 317.278076171875 203.97134399414062 317.63037109375 202.35711669921875 317.94818115234375 C 202.265869140625 317.512939453125 202.17465209960938 317.0777587890625 202.08340454101562 316.6424560546875M 235.7926025390625 291.7305908203125 C 236.17160034179688 292.020751953125 236.55059814453125 292.3109130859375 236.92959594726562 292.60107421875 C 235.8768310546875 293.44384765625 234.66265869140625 294.300537109375 233.28704833984375 295.1710205078125 C 231.91143798828125 296.02764892578125 230.45864868164062 296.8704833984375 228.92864990234375 297.699462890625 C 227.41268920898438 298.5146484375 225.9107666015625 299.29534912109375 224.4228515625 300.04144287109375 C 224.3807373046875 299.9033203125 224.30355834960938 299.75128173828125 224.19125366210938 299.58544921875 C 224.07894897460938 299.419677734375 223.9666748046875 299.2677001953125 223.8543701171875 299.1295166015625 C 225.314208984375 298.4110107421875 226.78805541992188 297.63037109375 228.27593994140625 296.78759765625 C 229.77789306640625 295.930908203125 231.18856811523438 295.07427978515625 232.50802612304688 294.2176513671875 C 233.82745361328125 293.34716796875 234.92233276367188 292.51812744140625 235.7926025390625 291.7305908203125M 223.66488647460938 282.9637451171875 C 224.10702514648438 282.9637451171875 224.5491943359375 282.9637451171875 224.9913330078125 282.9637451171875 C 224.9913330078125 293.1260986328125 224.9913330078125 303.2884521484375 224.9913330078125 313.4508056640625 C 224.9913330078125 314.4317626953125 225.13873291015625 315.08807373046875 225.43350219726562 315.419677734375 C 225.728271484375 315.75128173828125 226.41607666015625 315.9171142578125 227.49688720703125 315.9171142578125 C 227.74957275390625 315.9171142578125 228.20574951171875 315.9171142578125 228.865478515625 315.9171142578125 C 229.52520751953125 315.9171142578125 230.255126953125 315.9171142578125 231.05520629882812 315.9171142578125 C 231.86932373046875 315.9171142578125 232.63433837890625 315.9171142578125 233.3502197265625 315.9171142578125 C 234.06610107421875 315.9171142578125 234.58544921875 315.9171142578125 234.90829467773438 315.9171142578125 C 235.61013793945312 315.9171142578125 236.12948608398438 315.7098388671875 236.46636962890625 315.29534912109375 C 236.80325317382812 314.86700439453125 237.03485107421875 314.10015869140625 237.16119384765625 312.99481201171875 C 237.30157470703125 311.88946533203125 237.39981079101562 310.3212890625 237.45596313476562 308.2901611328125 C 237.66650390625 308.442138671875 237.8770751953125 308.5665283203125 238.08761596679688 308.6632080078125 C 238.31219482421875 308.74609375 238.5157470703125 308.815185546875 238.69821166992188 308.8704833984375 C 238.61398315429688 310.9429931640625 238.4736328125 312.580322265625 238.277099609375 313.7823486328125 C 238.09463500976562 314.97064208984375 237.750732421875 315.8065185546875 237.24542236328125 316.2901611328125 C 236.74008178710938 316.78759765625 235.9610595703125 317.0362548828125 234.90829467773438 317.0362548828125 C 234.7117919921875 317.0362548828125 234.26260375976562 317.0362548828125 233.56076049804688 317.0362548828125 C 232.85894775390625 317.0362548828125 232.0728759765625 317.0362548828125 231.20260620117188 317.0362548828125 C 230.33233642578125 317.0362548828125 229.5462646484375 317.0362548828125 228.84442138671875 317.0362548828125 C 228.142578125 317.0362548828125 227.70745849609375 317.0362548828125 227.53900146484375 317.0362548828125 C 226.54241943359375 317.0362548828125 225.76336669921875 316.9395751953125 225.201904296875 316.74609375 C 224.64044189453125 316.5665283203125 224.24038696289062 316.21417236328125 224.00177001953125 315.6890869140625 C 223.77716064453125 315.1502685546875 223.66488647460938 314.37652587890625 223.66488647460938 313.367919921875 C 223.66488647460938 303.233154296875 223.66488647460938 293.09844970703125 223.66488647460938 282.9637451171875"/>
    <path stroke-width="0" fill="rgb(0, 0, 0)" opacity="1.0" d="M 262.59576416015625 282.9222412109375 C 262.98876953125 283.00518798828125 263.3818054199219 283.08807373046875 263.77484130859375 283.1710205078125 C 263.2554931640625 285.326416015625 262.60980224609375 287.39208984375 261.8377685546875 289.367919921875 C 261.07977294921875 291.34368896484375 260.2095031738281 293.1744384765625 259.2269287109375 294.860107421875 C 258.2583923339844 296.531982421875 257.1845703125 298.024169921875 256.0054931640625 299.3367919921875 C 255.9493408203125 299.25390625 255.85812377929688 299.1640625 255.73178100585938 299.0673828125 C 255.6195068359375 298.97064208984375 255.4931640625 298.880859375 255.352783203125 298.79791259765625 C 255.22647094726562 298.701171875 255.107177734375 298.625244140625 254.994873046875 298.5699462890625 C 256.1739501953125 297.326416015625 257.24072265625 295.88946533203125 258.19525146484375 294.259033203125 C 259.16375732421875 292.628662109375 260.01300048828125 290.85321044921875 260.742919921875 288.9326171875 C 261.4868469238281 286.998291015625 262.1044616699219 284.99481201171875 262.59576416015625 282.9222412109375M 276.9132080078125 290.09326171875 C 277.3132629394531 290.09326171875 277.71331787109375 290.09326171875 278.11334228515625 290.09326171875 C 278.11334228515625 290.09326171875 278.11334228515625 290.15545654296875 278.11334228515625 290.27978515625 C 278.11334228515625 290.39031982421875 278.11334228515625 290.5216064453125 278.11334228515625 290.673583984375 C 278.11334228515625 290.811767578125 278.09930419921875 290.9222412109375 278.07122802734375 291.00518798828125 C 277.8045654296875 295.6199951171875 277.537841796875 299.5025634765625 277.2711486816406 302.65283203125 C 277.00445556640625 305.789306640625 276.7166748046875 308.352294921875 276.40789794921875 310.34197998046875 C 276.11309814453125 312.33160400390625 275.790283203125 313.8721923828125 275.4393615722656 314.9637451171875 C 275.08843994140625 316.0552978515625 274.7024230957031 316.8359375 274.28131103515625 317.3056640625 C 273.930419921875 317.7340087890625 273.5654296875 318.0103759765625 273.18646240234375 318.13470458984375 C 272.8074645996094 318.27288818359375 272.33721923828125 318.35577392578125 271.7757568359375 318.3834228515625 C 271.25640869140625 318.4110107421875 270.57562255859375 318.4110107421875 269.7334289550781 318.3834228515625 C 268.9052734375 318.35577392578125 268.04901123046875 318.30743408203125 267.1647033691406 318.23834228515625 C 267.1366271972656 318.01727294921875 267.1015319824219 317.79620361328125 267.0594482421875 317.57513427734375 C 267.017333984375 317.35406494140625 266.93310546875 317.16064453125 266.8067626953125 316.99481201171875 C 267.87353515625 317.0777587890625 268.84210205078125 317.13299560546875 269.7123718261719 317.16064453125 C 270.5966796875 317.188232421875 271.22833251953125 317.20208740234375 271.6073303222656 317.20208740234375 C 271.986328125 317.20208740234375 272.29510498046875 317.16754150390625 272.53375244140625 317.09844970703125 C 272.77239990234375 317.02935791015625 273.00396728515625 316.87738037109375 273.22857666015625 316.6424560546875 C 273.6075439453125 316.2418212890625 273.96551513671875 315.4957275390625 274.3023681640625 314.4041748046875 C 274.6392822265625 313.298828125 274.955078125 311.7305908203125 275.2498779296875 309.699462890625 C 275.54461669921875 307.66839599609375 275.82537841796875 305.0845947265625 276.092041015625 301.94818115234375 C 276.3587646484375 298.79791259765625 276.6324768066406 294.9637451171875 276.9132080078125 290.445556640625 C 276.9132080078125 290.328125 276.9132080078125 290.210693359375 276.9132080078125 290.09326171875M 260.8060607910156 290.09326171875 C 266.29443359375 290.09326171875 271.78277587890625 290.09326171875 277.2711486816406 290.09326171875 C 277.2711486816406 290.49395751953125 277.2711486816406 290.8946533203125 277.2711486816406 291.29534912109375 C 271.6634521484375 291.29534912109375 266.0557861328125 291.29534912109375 260.4481201171875 291.29534912109375 C 260.56744384765625 290.8946533203125 260.686767578125 290.49395751953125 260.8060607910156 290.09326171875M 266.1961669921875 290.4041748046875 C 266.5611267089844 290.5906982421875 266.92608642578125 290.7772216796875 267.291015625 290.9637451171875 C 266.65936279296875 293.3817138671875 265.80316162109375 295.82037353515625 264.7222900390625 298.27978515625 C 263.655517578125 300.72540283203125 262.4202880859375 302.9844970703125 261.0166015625 305.0570068359375 C 259.6129455566406 307.1295166015625 258.10400390625 308.815185546875 256.4897766113281 310.114013671875 C 256.34942626953125 309.975830078125 256.18096923828125 309.837646484375 255.98443603515625 309.699462890625 C 255.80197143554688 309.5474853515625 255.6195068359375 309.416259765625 255.43701171875 309.3056640625 C 256.6160888671875 308.3800048828125 257.7601013183594 307.22625732421875 258.8689880371094 305.8446044921875 C 259.9779052734375 304.44903564453125 260.99554443359375 302.90155029296875 261.9219970703125 301.20208740234375 C 262.848388671875 299.5025634765625 263.67657470703125 297.7340087890625 264.406494140625 295.8963623046875 C 265.13641357421875 294.044921875 265.73297119140625 292.21417236328125 266.1961669921875 290.4041748046875M 272.09161376953125 290.4041748046875 C 272.4705810546875 290.57684326171875 272.8495788574219 290.74957275390625 273.22857666015625 290.9222412109375 C 272.709228515625 293.6856689453125 272.014404296875 296.42138671875 271.14410400390625 299.1295166015625 C 270.2878723144531 301.837646484375 269.2772216796875 304.4075927734375 268.1121826171875 306.83935546875 C 266.961181640625 309.25732421875 265.65576171875 311.4542236328125 264.1959228515625 313.4300537109375 C 262.7501525878906 315.4058837890625 261.14996337890625 317.0570068359375 259.3953857421875 318.3834228515625 C 259.26904296875 318.259033203125 259.09356689453125 318.114013671875 258.8689880371094 317.94818115234375 C 258.658447265625 317.79620361328125 258.44085693359375 317.6649169921875 258.21630859375 317.554443359375 C 259.97088623046875 316.3109130859375 261.5850830078125 314.721923828125 263.0589599609375 312.78759765625 C 264.5468444824219 310.83935546875 265.8733215332031 308.6632080078125 267.03839111328125 306.259033203125 C 268.20343017578125 303.841064453125 269.20703125 301.278076171875 270.04925537109375 298.5699462890625 C 270.9054870605469 295.86181640625 271.5862731933594 293.139892578125 272.09161376953125 290.4041748046875M 242.04595947265625 305.4093017578125 C 243.29525756835938 305.06390380859375 244.71295166015625 304.65631103515625 246.29910278320312 304.1865234375 C 247.88525390625 303.70294189453125 249.57666015625 303.1778564453125 251.37338256835938 302.61138916015625 C 253.17010498046875 302.044921875 254.966796875 301.4783935546875 256.76348876953125 300.91192626953125 C 256.81964111328125 301.25732421875 256.87579345703125 301.602783203125 256.93194580078125 301.94818115234375 C 254.37725830078125 302.7772216796875 251.82257080078125 303.606201171875 249.26788330078125 304.43524169921875 C 246.72723388671875 305.25042724609375 244.47433471679688 305.975830078125 242.50918579101562 306.61138916015625 C 242.35479736328125 306.210693359375 242.20037841796875 305.81005859375 242.04595947265625 305.4093017578125M 249.8995361328125 283.00518798828125 C 250.30657958984375 283.00518798828125 250.71365356445312 283.00518798828125 251.1207275390625 283.00518798828125 C 251.1207275390625 294.92919921875 251.1207275390625 306.85321044921875 251.1207275390625 318.7772216796875 C 250.71365356445312 318.7772216796875 250.30657958984375 318.7772216796875 249.8995361328125 318.7772216796875 C 249.8995361328125 306.85321044921875 249.8995361328125 294.92919921875 249.8995361328125 283.00518798828125M 245.2042236328125 285.28497314453125 C 245.61129760742188 285.3333740234375 246.01837158203125 285.3817138671875 246.42544555664062 285.4300537109375 C 246.20086669921875 287.21240234375 245.9271240234375 288.96026611328125 245.60427856445312 290.673583984375 C 245.28143310546875 292.3868408203125 244.91650390625 293.99658203125 244.50942993164062 295.5025634765625 C 244.11639404296875 296.99481201171875 243.64617919921875 298.3350830078125 243.09872436523438 299.5233154296875 C 243.02853393554688 299.468017578125 242.916259765625 299.41278076171875 242.7618408203125 299.3575439453125 C 242.62149047851562 299.2884521484375 242.47409057617188 299.2193603515625 242.3197021484375 299.1502685546875 C 242.165283203125 299.0811767578125 242.0389404296875 299.0328369140625 241.94070434570312 299.00518798828125 C 242.53024291992188 297.81689453125 243.02853393554688 296.48358154296875 243.43560791015625 295.00518798828125 C 243.84268188476562 293.512939453125 244.193603515625 291.9378662109375 244.48837280273438 290.27978515625 C 244.78314208984375 288.62176513671875 245.02175903320312 286.956787109375 245.2042236328125 285.28497314453125M 244.6357421875 291.56475830078125 C 248.4537353515625 291.56475830078125 252.271728515625 291.56475830078125 256.0897216796875 291.56475830078125 C 256.0897216796875 291.9654541015625 256.0897216796875 292.36614990234375 256.0897216796875 292.766845703125 C 252.25067138671875 292.766845703125 248.41162109375 292.766845703125 244.57257080078125 292.766845703125 C 244.5936279296875 292.36614990234375 244.61468505859375 291.9654541015625 244.6357421875 291.56475830078125"/>
    <path stroke-width="0" fill="rgb(0, 0, 0)" opacity="1.0" d="M 293.96783447265625 287.27459716796875 C 302.4179382324219 287.27459716796875 310.8680725097656 287.27459716796875 319.31817626953125 287.27459716796875 C 319.31817626953125 287.654541015625 319.31817626953125 288.0345458984375 319.31817626953125 288.41455078125 C 310.8680725097656 288.41455078125 302.4179382324219 288.41455078125 293.96783447265625 288.41455078125 C 293.96783447265625 288.0345458984375 293.96783447265625 287.654541015625 293.96783447265625 287.27459716796875M 314.6228942871094 287.7098388671875 C 315.01593017578125 287.7098388671875 315.408935546875 287.7098388671875 315.8019714355469 287.7098388671875 C 315.8019714355469 297.208984375 315.8019714355469 306.7081298828125 315.8019714355469 316.207275390625 C 315.8019714355469 316.9395751953125 315.66864013671875 317.464599609375 315.40191650390625 317.7823486328125 C 315.1492614746094 318.10015869140625 314.714111328125 318.328125 314.09649658203125 318.46630859375 C 313.5069580078125 318.57684326171875 312.5454406738281 318.6390380859375 311.21197509765625 318.65283203125 C 309.87847900390625 318.6666259765625 308.17303466796875 318.673583984375 306.0955810546875 318.673583984375 C 306.0675048828125 318.4801025390625 306.00433349609375 318.2659912109375 305.90606689453125 318.0311279296875 C 305.80780029296875 317.79620361328125 305.6955261230469 317.5682373046875 305.5692138671875 317.34716796875 C 306.83251953125 317.374755859375 308.00457763671875 317.3955078125 309.08538818359375 317.4093017578125 C 310.16619873046875 317.42315673828125 311.08563232421875 317.42315673828125 311.8436279296875 317.4093017578125 C 312.61566162109375 317.3955078125 313.1630859375 317.374755859375 313.48590087890625 317.34716796875 C 313.9491271972656 317.31951904296875 314.25091552734375 317.229736328125 314.39129638671875 317.0777587890625 C 314.5456848144531 316.9395751953125 314.6228942871094 316.6632080078125 314.6228942871094 316.24871826171875 C 314.6228942871094 306.7357177734375 314.6228942871094 297.2227783203125 314.6228942871094 287.7098388671875M 295.86279296875 295.3575439453125 C 296.2558288574219 295.3575439453125 296.64886474609375 295.3575439453125 297.0418701171875 295.3575439453125 C 297.0418701171875 300.6839599609375 297.0418701171875 306.0103759765625 297.0418701171875 311.3367919921875 C 296.64886474609375 311.3367919921875 296.2558288574219 311.3367919921875 295.86279296875 311.3367919921875 C 295.86279296875 306.0103759765625 295.86279296875 300.6839599609375 295.86279296875 295.3575439453125M 296.5155029296875 295.3575439453125 C 300.25628662109375 295.3575439453125 303.9970703125 295.3575439453125 307.73785400390625 295.3575439453125 C 307.73785400390625 299.70294189453125 307.73785400390625 304.04833984375 307.73785400390625 308.393798828125 C 303.9970703125 308.393798828125 300.25628662109375 308.393798828125 296.5155029296875 308.393798828125 C 296.5155029296875 308.0 296.5155029296875 307.606201171875 296.5155029296875 307.21240234375 C 299.85626220703125 307.21240234375 303.19696044921875 307.21240234375 306.5377197265625 307.21240234375 C 306.5377197265625 303.654541015625 306.5377197265625 300.0966796875 306.5377197265625 296.538818359375 C 303.19696044921875 296.538818359375 299.85626220703125 296.538818359375 296.5155029296875 296.538818359375 C 296.5155029296875 296.14508056640625 296.5155029296875 295.75128173828125 296.5155029296875 295.3575439453125M 292.22027587890625 283.08807373046875 C 292.61328125 283.184814453125 293.0063171386719 283.281494140625 293.39935302734375 283.37823486328125 C 292.61328125 285.57513427734375 291.70794677734375 287.716796875 290.6832275390625 289.8031005859375 C 289.6585693359375 291.8756103515625 288.54266357421875 293.837646484375 287.3354797363281 295.6890869140625 C 286.1423645019531 297.5267333984375 284.9001159667969 299.19171142578125 283.6087341308594 300.6839599609375 C 283.5525817871094 300.60107421875 283.4683837890625 300.5042724609375 283.3560791015625 300.393798828125 C 283.2578125 300.2694091796875 283.15252685546875 300.14508056640625 283.04022216796875 300.020751953125 C 282.9419860839844 299.882568359375 282.83673095703125 299.78582763671875 282.72442626953125 299.7305908203125 C 284.01580810546875 298.348876953125 285.2440185546875 296.77374267578125 286.4090576171875 295.00518798828125 C 287.588134765625 293.2227783203125 288.6689758300781 291.3160400390625 289.65155029296875 289.28497314453125 C 290.63409423828125 287.25390625 291.4903564453125 285.188232421875 292.22027587890625 283.08807373046875M 288.26190185546875 292.6839599609375 C 288.6408996582031 292.3109130859375 289.0198974609375 291.9378662109375 289.39886474609375 291.56475830078125 C 289.42694091796875 291.57861328125 289.45501708984375 291.5924072265625 289.48309326171875 291.606201171875 C 289.48309326171875 300.6632080078125 289.48309326171875 309.72021484375 289.48309326171875 318.7772216796875 C 289.0760498046875 318.7772216796875 288.6689758300781 318.7772216796875 288.26190185546875 318.7772216796875 C 288.26190185546875 310.0794677734375 288.26190185546875 301.3817138671875 288.26190185546875 292.6839599609375"/>
    <path stroke-width="0" fill="rgb(0, 0, 0)" opacity="1.0" d="M 324.9188232421875 291.85491943359375 C 335.958740234375 291.85491943359375 346.99859619140625 291.85491943359375 358.03851318359375 291.85491943359375 C 358.03851318359375 294.42486572265625 358.03851318359375 296.99481201171875 358.03851318359375 299.56475830078125 C 357.6314697265625 299.56475830078125 357.224365234375 299.56475830078125 356.8172607421875 299.56475830078125 C 356.8172607421875 297.38861083984375 356.8172607421875 295.21240234375 356.8172607421875 293.0362548828125 C 346.591552734375 293.0362548828125 336.36578369140625 293.0362548828125 326.1400146484375 293.0362548828125 C 326.1400146484375 295.21240234375 326.1400146484375 297.38861083984375 326.1400146484375 299.56475830078125 C 325.73297119140625 299.56475830078125 325.32586669921875 299.56475830078125 324.9188232421875 299.56475830078125 C 324.9188232421875 296.99481201171875 324.9188232421875 294.42486572265625 324.9188232421875 291.85491943359375M 326.7506103515625 301.2435302734375 C 335.90960693359375 301.2435302734375 345.06854248046875 301.2435302734375 354.2275390625 301.2435302734375 C 354.2275390625 301.6373291015625 354.2275390625 302.0311279296875 354.2275390625 302.42486572265625 C 345.06854248046875 302.42486572265625 335.90960693359375 302.42486572265625 326.7506103515625 302.42486572265625 C 326.7506103515625 302.0311279296875 326.7506103515625 301.6373291015625 326.7506103515625 301.2435302734375M 353.91168212890625 301.2435302734375 C 354.30474853515625 301.2435302734375 354.69775390625 301.2435302734375 355.09075927734375 301.2435302734375 C 355.09075927734375 301.2435302734375 355.09075927734375 301.2918701171875 355.09075927734375 301.38861083984375 C 355.09075927734375 301.47149658203125 355.09075927734375 301.58203125 355.09075927734375 301.72021484375 C 355.09075927734375 301.8446044921875 355.09075927734375 301.94818115234375 355.09075927734375 302.0311279296875 C 354.894287109375 305.6649169921875 354.69073486328125 308.580322265625 354.48016357421875 310.7772216796875 C 354.2696533203125 312.96026611328125 354.0169677734375 314.6182861328125 353.72216796875 315.75128173828125 C 353.44146728515625 316.8704833984375 353.090576171875 317.64422607421875 352.66943359375 318.072509765625 C 352.38873291015625 318.39031982421875 352.05181884765625 318.59759521484375 351.6588134765625 318.6943359375 C 351.27978515625 318.8048095703125 350.781494140625 318.8739013671875 350.16387939453125 318.90155029296875 C 349.504150390625 318.92919921875 348.54266357421875 318.9222412109375 347.27935791015625 318.880859375 C 346.01605224609375 318.83935546875 344.66851806640625 318.770263671875 343.23675537109375 318.673583984375 C 343.20867919921875 318.4801025390625 343.1595458984375 318.27978515625 343.08935546875 318.072509765625 C 343.033203125 317.87908935546875 342.93499755859375 317.69256591796875 342.79461669921875 317.512939453125 C 344.3807373046875 317.651123046875 345.84759521484375 317.7340087890625 347.19512939453125 317.76165771484375 C 348.54266357421875 317.8031005859375 349.4339599609375 317.8238525390625 349.869140625 317.8238525390625 C 350.33233642578125 317.8238525390625 350.704345703125 317.79620361328125 350.98504638671875 317.740966796875 C 351.2657470703125 317.699462890625 351.50439453125 317.58203125 351.700927734375 317.38861083984375 C 352.03778076171875 317.043212890625 352.339599609375 316.33160400390625 352.60626220703125 315.25390625 C 352.88702392578125 314.162353515625 353.1256103515625 312.51812744140625 353.3221435546875 310.3212890625 C 353.53271484375 308.11053466796875 353.72918701171875 305.1744384765625 353.91168212890625 301.512939453125 C 353.91168212890625 301.42315673828125 353.91168212890625 301.3333740234375 353.91168212890625 301.2435302734375M 339.32049560546875 294.79791259765625 C 339.7275390625 294.79791259765625 340.1346435546875 294.79791259765625 340.54168701171875 294.79791259765625 C 340.4013671875 297.3126220703125 340.1907958984375 299.647705078125 339.9100341796875 301.8031005859375 C 339.62933349609375 303.9447021484375 339.1661376953125 305.90673828125 338.5203857421875 307.6890869140625 C 337.874755859375 309.4576416015625 336.9693603515625 311.05352783203125 335.8043212890625 312.4766845703125 C 334.6392822265625 313.89984130859375 333.123291015625 315.136474609375 331.25640869140625 316.1865234375 C 329.403564453125 317.25042724609375 327.1085510253906 318.1278076171875 324.37139892578125 318.81866455078125 C 324.31524658203125 318.721923828125 324.238037109375 318.61138916015625 324.1397705078125 318.487060546875 C 324.04150390625 318.3626708984375 323.94329833984375 318.23834228515625 323.84503173828125 318.114013671875 C 323.76080322265625 318.00341796875 323.67657470703125 317.90673828125 323.59234619140625 317.8238525390625 C 326.28741455078125 317.16064453125 328.540283203125 316.33160400390625 330.3510437011719 315.3367919921875 C 332.17584228515625 314.34197998046875 333.65667724609375 313.16754150390625 334.793701171875 311.8134765625 C 335.9306640625 310.445556640625 336.8009033203125 308.905029296875 337.40447998046875 307.19171142578125 C 338.008056640625 305.4783935546875 338.45025634765625 303.58544921875 338.73095703125 301.512939453125 C 339.01171875 299.4404296875 339.208251953125 297.20208740234375 339.32049560546875 294.79791259765625M 354.69073486328125 283.4404296875 C 355.0487060546875 283.6407470703125 355.4066162109375 283.841064453125 355.7645263671875 284.04144287109375 C 354.9364013671875 285.367919921875 353.98187255859375 286.770263671875 352.90106201171875 288.24871826171875 C 351.8201904296875 289.7132568359375 350.8095703125 290.9775390625 349.869140625 292.04144287109375 C 349.5743408203125 291.841064453125 349.279541015625 291.6407470703125 348.98480224609375 291.4404296875 C 349.6024169921875 290.7357177734375 350.2691650390625 289.91363525390625 350.98504638671875 288.97412109375 C 351.700927734375 288.020751953125 352.3817138671875 287.0604248046875 353.02734375 286.09326171875 C 353.673095703125 285.1260986328125 354.2275390625 284.2418212890625 354.69073486328125 283.4404296875M 327.319091796875 284.373046875 C 327.656005859375 284.2003173828125 327.99285888671875 284.02764892578125 328.32977294921875 283.85491943359375 C 328.9473571777344 284.51812744140625 329.55096435546875 285.25042724609375 330.1405029296875 286.05181884765625 C 330.73004150390625 286.83935546875 331.27044677734375 287.6199951171875 331.76171875 288.393798828125 C 332.26708984375 289.1536865234375 332.66009521484375 289.8238525390625 332.9407958984375 290.4041748046875 C 332.60394287109375 290.6182861328125 332.26708984375 290.83245849609375 331.93017578125 291.046630859375 C 331.6353759765625 290.438720703125 331.24237060546875 289.7547607421875 330.7510986328125 288.99481201171875 C 330.25982666015625 288.2210693359375 329.7193908691406 287.4266357421875 329.1298522949219 286.61138916015625 C 328.540283203125 285.7823486328125 327.93670654296875 285.0362548828125 327.319091796875 284.373046875M 338.30987548828125 283.4404296875 C 338.646728515625 283.3367919921875 338.983642578125 283.233154296875 339.32049560546875 283.1295166015625 C 340.0223388671875 284.2763671875 340.68206787109375 285.5198974609375 341.2996826171875 286.860107421875 C 341.91729736328125 288.2003173828125 342.32440185546875 289.3333740234375 342.5208740234375 290.259033203125 C 342.16998291015625 290.39031982421875 341.819091796875 290.5216064453125 341.4681396484375 290.65283203125 C 341.3277587890625 290.01727294921875 341.09613037109375 289.28497314453125 340.7733154296875 288.4559326171875 C 340.450439453125 287.6131591796875 340.07147216796875 286.7564697265625 339.6363525390625 285.885986328125 C 339.2152099609375 285.001708984375 338.7730712890625 284.1865234375 338.30987548828125 283.4404296875"/>
    <path stroke-width="0" fill="rgb(0, 0, 0)" opacity="1.0" d="M 366.08154296875 293.16064453125 C 366.08154296875 295.094970703125 366.08154296875 297.02935791015625 366.08154296875 298.9637451171875 C 370.95928955078125 298.9637451171875 375.8370361328125 298.9637451171875 380.71484375 298.9637451171875 C 380.71484375 297.02935791015625 380.71484375 295.094970703125 380.71484375 293.16064453125 C 375.8370361328125 293.16064453125 370.95928955078125 293.16064453125 366.08154296875 293.16064453125M 366.08154296875 286.23834228515625 C 366.08154296875 288.14508056640625 366.08154296875 290.05181884765625 366.08154296875 291.95855712890625 C 370.95928955078125 291.95855712890625 375.8370361328125 291.95855712890625 380.71484375 291.95855712890625 C 380.71484375 290.05181884765625 380.71484375 288.14508056640625 380.71484375 286.23834228515625 C 375.8370361328125 286.23834228515625 370.95928955078125 286.23834228515625 366.08154296875 286.23834228515625M 364.9024658203125 285.0777587890625 C 370.5662841796875 285.0777587890625 376.2301025390625 285.0777587890625 381.8939208984375 285.0777587890625 C 381.8939208984375 290.09326171875 381.8939208984375 295.1087646484375 381.8939208984375 300.1243896484375 C 376.2301025390625 300.1243896484375 370.5662841796875 300.1243896484375 364.9024658203125 300.1243896484375 C 364.9024658203125 295.1087646484375 364.9024658203125 290.09326171875 364.9024658203125 285.0777587890625M 364.75506591796875 305.8446044921875 C 370.468017578125 305.8446044921875 376.18096923828125 305.8446044921875 381.8939208984375 305.8446044921875 C 381.8939208984375 306.2314453125 381.8939208984375 306.6182861328125 381.8939208984375 307.00518798828125 C 376.18096923828125 307.00518798828125 370.468017578125 307.00518798828125 364.75506591796875 307.00518798828125 C 364.75506591796875 306.6182861328125 364.75506591796875 306.2314453125 364.75506591796875 305.8446044921875M 363.44964599609375 315.7305908203125 C 365.0498046875 315.48187255859375 366.9027099609375 315.19171142578125 369.0081787109375 314.860107421875 C 371.12774658203125 314.52850341796875 373.4017333984375 314.1761474609375 375.830078125 313.8031005859375 C 378.2584228515625 313.416259765625 380.70782470703125 313.0224609375 383.17828369140625 312.62176513671875 C 383.19232177734375 312.99481201171875 383.206298828125 313.367919921875 383.22039794921875 313.740966796875 C 380.84814453125 314.10015869140625 378.4759521484375 314.4801025390625 376.103759765625 314.880859375 C 373.7315673828125 315.281494140625 371.4786376953125 315.654541015625 369.3450927734375 316.0 C 367.22552490234375 316.345458984375 365.3446044921875 316.6494140625 363.70233154296875 316.91192626953125 C 363.61810302734375 316.51812744140625 363.53387451171875 316.1243896484375 363.44964599609375 315.7305908203125M 383.22039794921875 285.20208740234375 C 388.3929443359375 285.20208740234375 393.5654296875 285.20208740234375 398.73797607421875 285.20208740234375 C 398.73797607421875 285.5889892578125 398.73797607421875 285.975830078125 398.73797607421875 286.3626708984375 C 393.5654296875 286.3626708984375 388.3929443359375 286.3626708984375 383.22039794921875 286.3626708984375 C 383.22039794921875 285.975830078125 383.22039794921875 285.5889892578125 383.22039794921875 285.20208740234375M 382.736083984375 297.740966796875 C 388.259521484375 297.740966796875 393.78302001953125 297.740966796875 399.3065185546875 297.740966796875 C 399.3065185546875 298.13470458984375 399.3065185546875 298.52850341796875 399.3065185546875 298.9222412109375 C 393.78302001953125 298.9222412109375 388.259521484375 298.9222412109375 382.736083984375 298.9222412109375 C 382.736083984375 298.52850341796875 382.736083984375 298.13470458984375 382.736083984375 297.740966796875M 398.38006591796875 285.20208740234375 C 398.4642333984375 285.20208740234375 398.5484619140625 285.20208740234375 398.6326904296875 285.20208740234375 C 398.7099609375 285.1744384765625 398.787109375 285.1468505859375 398.86431884765625 285.119140625 C 399.1590576171875 285.2918701171875 399.453857421875 285.464599609375 399.7486572265625 285.6373291015625 C 399.04681396484375 286.64593505859375 398.22564697265625 287.6614990234375 397.28515625 288.6839599609375 C 396.3447265625 289.7064208984375 395.369140625 290.6666259765625 394.3585205078125 291.56475830078125 C 393.347900390625 292.462890625 392.3582763671875 293.25732421875 391.3897705078125 293.94818115234375 C 391.2774658203125 293.8238525390625 391.14410400390625 293.699462890625 390.98974609375 293.57513427734375 C 390.849365234375 293.43695068359375 390.71600341796875 293.326416015625 390.58966064453125 293.2435302734375 C 391.5301513671875 292.60791015625 392.484619140625 291.8480224609375 393.453125 290.9637451171875 C 394.42169189453125 290.065673828125 395.341064453125 289.139892578125 396.21136474609375 288.1865234375 C 397.095703125 287.233154296875 397.818603515625 286.3143310546875 398.38006591796875 285.4300537109375 C 398.38006591796875 285.35406494140625 398.38006591796875 285.278076171875 398.38006591796875 285.20208740234375M 385.76806640625 290.4041748046875 C 386.04876708984375 290.16925048828125 386.32952880859375 289.93438720703125 386.6102294921875 289.699462890625 C 387.8033447265625 290.3626708984375 388.989501953125 291.136474609375 390.1685791015625 292.020751953125 C 391.3616943359375 292.8912353515625 392.46356201171875 293.7823486328125 393.4742431640625 294.6943359375 C 394.48486328125 295.606201171875 395.284912109375 296.43524169921875 395.87451171875 297.18133544921875 C 395.5797119140625 297.4576416015625 395.284912109375 297.7340087890625 394.99017333984375 298.0103759765625 C 394.400634765625 297.2227783203125 393.6075439453125 296.373046875 392.6109619140625 295.461181640625 C 391.6143798828125 294.535400390625 390.51953125 293.63037109375 389.32635498046875 292.74609375 C 388.14727783203125 291.8480224609375 386.961181640625 291.0673828125 385.76806640625 290.4041748046875M 398.94854736328125 297.740966796875 C 399.039794921875 297.740966796875 399.1309814453125 297.740966796875 399.2222900390625 297.740966796875 C 399.320556640625 297.7132568359375 399.41876220703125 297.6856689453125 399.51702880859375 297.65802001953125 C 399.7977294921875 297.789306640625 400.0784912109375 297.9205322265625 400.3592529296875 298.05181884765625 C 399.74163818359375 299.5716552734375 399.0748291015625 301.139892578125 398.3590087890625 302.7564697265625 C 397.64312744140625 304.373046875 396.93426513671875 305.72021484375 396.232421875 306.79791259765625 C 395.8814697265625 306.632080078125 395.5306396484375 306.46630859375 395.1796875 306.300537109375 C 395.64288330078125 305.60968017578125 396.092041015625 304.80828857421875 396.5272216796875 303.8963623046875 C 396.97637939453125 302.97064208984375 397.4114990234375 302.00341796875 397.8326416015625 300.99481201171875 C 398.25372314453125 299.9862060546875 398.625732421875 299.01904296875 398.94854736328125 298.09326171875 C 398.94854736328125 297.975830078125 398.94854736328125 297.8583984375 398.94854736328125 297.740966796875M 390.4212646484375 298.34197998046875 C 390.81427001953125 298.34197998046875 391.207275390625 298.34197998046875 391.600341796875 298.34197998046875 C 391.600341796875 304.4559326171875 391.600341796875 310.5699462890625 391.600341796875 316.6839599609375 C 391.600341796875 317.236572265625 391.50909423828125 317.64422607421875 391.32659912109375 317.90673828125 C 391.15814208984375 318.16925048828125 390.84228515625 318.36962890625 390.379150390625 318.5078125 C 389.8878173828125 318.6182861328125 389.1439208984375 318.68048095703125 388.14727783203125 318.6943359375 C 387.150634765625 318.7081298828125 385.873291015625 318.71502685546875 384.31524658203125 318.71502685546875 C 384.28717041015625 318.5491943359375 384.21697998046875 318.348876953125 384.104736328125 318.114013671875 C 384.0064697265625 317.8929443359375 383.88714599609375 317.6787109375 383.74676513671875 317.47149658203125 C 385.2626953125 317.4991455078125 386.5260009765625 317.5198974609375 387.53668212890625 317.53369140625 C 388.54736328125 317.5474853515625 389.22808837890625 317.54058837890625 389.5789794921875 317.512939453125 C 389.929931640625 317.4853515625 390.154541015625 317.4093017578125 390.2528076171875 317.28497314453125 C 390.3651123046875 317.1744384765625 390.4212646484375 316.97412109375 390.4212646484375 316.6839599609375 C 390.4212646484375 310.5699462890625 390.4212646484375 304.4559326171875 390.4212646484375 298.34197998046875M 372.8402099609375 285.5958251953125 C 373.2261962890625 285.5958251953125 373.61224365234375 285.5958251953125 373.998291015625 285.5958251953125 C 373.998291015625 290.4801025390625 373.998291015625 295.3643798828125 373.998291015625 300.24871826171875 C 373.998291015625 300.24871826171875 373.998291015625 300.24871826171875 373.998291015625 300.24871826171875 C 373.998291015625 305.1123046875 373.998291015625 309.975830078125 373.998291015625 314.83935546875 C 373.61224365234375 314.83935546875 373.2261962890625 314.83935546875 372.8402099609375 314.83935546875 C 372.8402099609375 309.975830078125 372.8402099609375 305.1123046875 372.8402099609375 300.24871826171875 C 372.8402099609375 300.24871826171875 372.8402099609375 300.24871826171875 372.8402099609375 300.24871826171875 C 372.8402099609375 295.3643798828125 372.8402099609375 290.4801025390625 372.8402099609375 285.5958251953125"/>
    <path stroke-width="0" fill="rgb(0, 0, 0)" opacity="1.0" d="M 411.6026611328125 289.34716796875 C 415.18902587890625 289.34716796875 418.775390625 289.34716796875 422.36181640625 289.34716796875 C 422.36181640625 289.72711181640625 422.36181640625 290.1070556640625 422.36181640625 290.487060546875 C 418.775390625 290.487060546875 415.18902587890625 290.487060546875 411.6026611328125 290.487060546875 C 411.6026611328125 290.1070556640625 411.6026611328125 289.72711181640625 411.6026611328125 289.34716796875M 430.00482177734375 282.9222412109375 C 430.39080810546875 282.9222412109375 430.77685546875 282.9222412109375 431.162841796875 282.9222412109375 C 431.162841796875 294.85321044921875 431.162841796875 306.78411865234375 431.162841796875 318.71502685546875 C 430.77685546875 318.71502685546875 430.39080810546875 318.71502685546875 430.00482177734375 318.71502685546875 C 430.00482177734375 306.78411865234375 430.00482177734375 294.85321044921875 430.00482177734375 282.9222412109375M 407.2442626953125 297.53369140625 C 407.4969482421875 297.28497314453125 407.74957275390625 297.0362548828125 408.002197265625 296.78759765625 C 409.2655029296875 297.4508056640625 410.5499267578125 298.210693359375 411.8553466796875 299.0673828125 C 413.1748046875 299.92401123046875 414.4029541015625 300.78759765625 415.5399169921875 301.65802001953125 C 416.69097900390625 302.5146484375 417.617431640625 303.3160400390625 418.3192138671875 304.0621337890625 C 418.0455322265625 304.352294921875 417.77178955078125 304.6424560546875 417.498046875 304.9326171875 C 416.7962646484375 304.21417236328125 415.8768310546875 303.41278076171875 414.7398681640625 302.52850341796875 C 413.616943359375 301.64422607421875 412.4027099609375 300.766845703125 411.0972900390625 299.8963623046875 C 409.7918701171875 299.0120849609375 408.507568359375 298.2244873046875 407.2442626953125 297.53369140625M 413.45550537109375 282.9222412109375 C 413.862548828125 283.00518798828125 414.2696533203125 283.08807373046875 414.67669677734375 283.1710205078125 C 413.974853515625 285.6856689453125 413.11865234375 288.07598876953125 412.10797119140625 290.34197998046875 C 411.0972900390625 292.5941162109375 409.9603271484375 294.6666259765625 408.697021484375 296.5595703125 C 407.44775390625 298.4525146484375 406.0721435546875 300.1312255859375 404.57025146484375 301.5958251953125 C 404.51409912109375 301.512939453125 404.4158935546875 301.4300537109375 404.2755126953125 301.34716796875 C 404.149169921875 301.25042724609375 404.01580810546875 301.1536865234375 403.87542724609375 301.0570068359375 C 403.7491455078125 300.96026611328125 403.61572265625 300.88427734375 403.475341796875 300.8289794921875 C 405.00537109375 299.4334716796875 406.39501953125 297.81005859375 407.644287109375 295.95855712890625 C 408.9075927734375 294.09326171875 410.0235595703125 292.0552978515625 410.9920654296875 289.8446044921875 C 411.9605712890625 287.6199951171875 412.78173828125 285.3126220703125 413.45550537109375 282.9222412109375M 424.17254638671875 292.165771484375 C 425.113037109375 293.837646484375 426.2359619140625 295.4749755859375 427.5413818359375 297.0777587890625 C 428.86083984375 298.68048095703125 430.2926025390625 300.207275390625 431.83660888671875 301.65802001953125 C 433.380615234375 303.094970703125 434.9808349609375 304.3868408203125 436.63720703125 305.53369140625 C 438.29345703125 306.68048095703125 439.935791015625 307.6199951171875 441.5640869140625 308.352294921875 C 441.4798583984375 308.4075927734375 441.381591796875 308.490478515625 441.269287109375 308.60107421875 C 441.1710205078125 308.7115478515625 441.07977294921875 308.8221435546875 440.99560546875 308.9326171875 C 440.911376953125 309.02935791015625 440.8271484375 309.13299560546875 440.742919921875 309.2435302734375 C 439.128662109375 308.442138671875 437.493408203125 307.44732666015625 435.8370361328125 306.259033203125 C 434.18072509765625 305.0570068359375 432.5665283203125 303.7236328125 430.994384765625 302.259033203125 C 429.436279296875 300.7806396484375 427.99053955078125 299.2193603515625 426.65704345703125 297.57513427734375 C 425.3236083984375 295.930908203125 424.17254638671875 294.27288818359375 423.2039794921875 292.60107421875 C 423.52685546875 292.4559326171875 423.8497314453125 292.3109130859375 424.17254638671875 292.165771484375M 421.940673828125 289.34716796875 C 422.02490234375 289.34716796875 422.109130859375 289.34716796875 422.193359375 289.34716796875 C 422.28460693359375 289.31951904296875 422.3758544921875 289.2918701171875 422.467041015625 289.2642822265625 C 422.7127685546875 289.35406494140625 422.9583740234375 289.44384765625 423.2039794921875 289.53369140625 C 422.389892578125 294.74267578125 421.10546875 299.2401123046875 419.3509521484375 303.02587890625 C 417.6103515625 306.79791259765625 415.52587890625 309.9620361328125 413.0975341796875 312.51812744140625 C 410.669189453125 315.07427978515625 408.0302734375 317.139892578125 405.18084716796875 318.71502685546875 C 405.09661865234375 318.6044921875 404.9913330078125 318.49395751953125 404.864990234375 318.3834228515625 C 404.75274658203125 318.2867431640625 404.64044189453125 318.18310546875 404.52813720703125 318.072509765625 C 404.4158935546875 317.9620361328125 404.310546875 317.87908935546875 404.2122802734375 317.8238525390625 C 407.08984375 316.3177490234375 409.728759765625 314.3143310546875 412.1290283203125 311.8134765625 C 414.529296875 309.298828125 416.57867431640625 306.2176513671875 418.277099609375 302.5699462890625 C 419.9755859375 298.9222412109375 421.19677734375 294.6182861328125 421.940673828125 289.65802001953125 C 421.940673828125 289.554443359375 421.940673828125 289.4508056640625 421.940673828125 289.34716796875"/>
    <path stroke-width="0" fill="rgb(0, 0, 0)" opacity="1.0" d="M 462.45068359375 284.165771484375 C 461.3558349609375 285.7547607421875 459.903076171875 287.4266357421875 458.09228515625 289.18133544921875 C 456.28155517578125 290.93609619140625 454.2742919921875 292.6148681640625 452.070556640625 294.2176513671875 C 449.880859375 295.82037353515625 447.6138916015625 297.229736328125 445.269775390625 298.445556640625 C 445.213623046875 298.348876953125 445.1434326171875 298.2452392578125 445.0592041015625 298.13470458984375 C 444.989013671875 298.024169921875 444.91180419921875 297.9205322265625 444.82763671875 297.8238525390625 C 444.743408203125 297.7132568359375 444.652099609375 297.6165771484375 444.5538330078125 297.53369140625 C 446.89801025390625 296.345458984375 449.178955078125 294.949951171875 451.39678955078125 293.34716796875 C 453.628662109375 291.7305908203125 455.6429443359375 290.0311279296875 457.4395751953125 288.24871826171875 C 459.2503662109375 286.4525146484375 460.6961669921875 284.69085693359375 461.7769775390625 282.9637451171875 C 462.14892578125 282.9637451171875 462.5208740234375 282.9637451171875 462.892822265625 282.9637451171875 C 463.94561767578125 284.3177490234375 465.18084716796875 285.67877197265625 466.59857177734375 287.046630859375 C 468.01629638671875 288.41455078125 469.52520751953125 289.72711181640625 471.1253662109375 290.9844970703125 C 472.7255859375 292.22796630859375 474.36083984375 293.367919921875 476.03125 294.4041748046875 C 477.70166015625 295.4266357421875 479.3228759765625 296.3109130859375 480.89495849609375 297.0570068359375 C 480.754638671875 297.16754150390625 480.6002197265625 297.326416015625 480.4317626953125 297.53369140625 C 480.27734375 297.740966796875 480.1580810546875 297.91363525390625 480.0738525390625 298.05181884765625 C 478.5157470703125 297.25042724609375 476.9085693359375 296.33160400390625 475.252197265625 295.29534912109375 C 473.59588623046875 294.2452392578125 471.974609375 293.1053466796875 470.38848876953125 291.8756103515625 C 468.81640625 290.63214111328125 467.3494873046875 289.3609619140625 465.98797607421875 288.0621337890625 C 464.62640380859375 286.763427734375 463.447265625 285.464599609375 462.45068359375 284.165771484375M 452.596923828125 295.27459716796875 C 459.32049560546875 295.27459716796875 466.0440673828125 295.27459716796875 472.7677001953125 295.27459716796875 C 472.7677001953125 295.66839599609375 472.7677001953125 296.0621337890625 472.7677001953125 296.4559326171875 C 466.0440673828125 296.4559326171875 459.32049560546875 296.4559326171875 452.596923828125 296.4559326171875 C 452.596923828125 296.0621337890625 452.596923828125 295.66839599609375 452.596923828125 295.27459716796875M 446.93310546875 303.1502685546875 C 457.460693359375 303.1502685546875 467.9881591796875 303.1502685546875 478.5157470703125 303.1502685546875 C 478.5157470703125 303.5440673828125 478.5157470703125 303.9378662109375 478.5157470703125 304.33160400390625 C 467.9881591796875 304.33160400390625 457.460693359375 304.33160400390625 446.93310546875 304.33160400390625 C 446.93310546875 303.9378662109375 446.93310546875 303.5440673828125 446.93310546875 303.1502685546875M 445.269775390625 316.207275390625 C 456.8641357421875 316.207275390625 468.45843505859375 316.207275390625 480.052734375 316.207275390625 C 480.052734375 316.58721923828125 480.052734375 316.9671630859375 480.052734375 317.34716796875 C 468.45843505859375 317.34716796875 456.8641357421875 317.34716796875 445.269775390625 317.34716796875 C 445.269775390625 316.9671630859375 445.269775390625 316.58721923828125 445.269775390625 316.207275390625M 461.8822021484375 295.66839599609375 C 462.289306640625 295.66839599609375 462.69635009765625 295.66839599609375 463.1033935546875 295.66839599609375 C 463.1033935546875 302.74957275390625 463.1033935546875 309.83074951171875 463.1033935546875 316.91192626953125 C 462.69635009765625 316.91192626953125 462.289306640625 316.91192626953125 461.8822021484375 316.91192626953125 C 461.8822021484375 309.83074951171875 461.8822021484375 302.74957275390625 461.8822021484375 295.66839599609375M 451.1441650390625 306.880859375 C 451.48101806640625 306.763427734375 451.81787109375 306.64593505859375 452.15478515625 306.52850341796875 C 452.74432373046875 307.30224609375 453.31280517578125 308.1519775390625 453.8602294921875 309.0777587890625 C 454.42169189453125 310.00341796875 454.89892578125 310.9222412109375 455.2919921875 311.834228515625 C 455.69903564453125 312.7322998046875 455.98681640625 313.54058837890625 456.1552734375 314.259033203125 C 455.8043212890625 314.4041748046875 455.453369140625 314.5491943359375 455.10247802734375 314.6943359375 C 454.93408203125 313.975830078125 454.646240234375 313.16064453125 454.2392578125 312.24871826171875 C 453.84619140625 311.322998046875 453.3759765625 310.397216796875 452.8284912109375 309.47149658203125 C 452.295166015625 308.5457763671875 451.733642578125 307.6822509765625 451.1441650390625 306.880859375M 472.89404296875 306.3212890625 C 473.2659912109375 306.5078125 473.63800048828125 306.6943359375 474.00994873046875 306.880859375 C 473.2940673828125 308.17962646484375 472.472900390625 309.554443359375 471.5465087890625 311.00518798828125 C 470.63409423828125 312.4559326171875 469.7708740234375 313.6856689453125 468.95672607421875 314.6943359375 C 468.64794921875 314.535400390625 468.339111328125 314.37652587890625 468.0302734375 314.2176513671875 C 468.5777587890625 313.5267333984375 469.146240234375 312.718505859375 469.73577880859375 311.792724609375 C 470.3253173828125 310.85321044921875 470.90081787109375 309.89984130859375 471.4622802734375 308.9326171875 C 472.037841796875 307.9654541015625 472.5150146484375 307.094970703125 472.89404296875 306.3212890625"/>
  </g>
</svg>
