<?xml version="1.0" ?>
<svg xmlns="http://www.w3.org/2000/svg" version="1.1" width="600" height="600">
  <defs/>
  <g>
    <path stroke-width="0" fill="rgb(0, 0, 0)" opacity="1.0" d="M 129.54556274414062 315.12139892578125 C 149.16485595703125 315.12139892578125 168.78411865234375 315.12139892578125 188.40341186523438 315.12139892578125 C 188.40341186523438 316.06011962890625 188.40341186523438 316.99884033203125 188.40341186523438 317.93756103515625 C 168.78411865234375 317.93756103515625 149.16485595703125 317.93756103515625 129.54556274414062 317.93756103515625 C 129.54556274414062 316.99884033203125 129.54556274414062 316.06011962890625 129.54556274414062 315.12139892578125M 129.83718872070312 303.759521484375 C 149.89389038085938 303.759521484375 169.95059204101562 303.759521484375 190.00729370117188 303.759521484375 C 190.00729370117188 312.30517578125 190.00729370117188 320.850830078125 190.00729370117188 329.39654541015625 C 169.95059204101562 329.39654541015625 149.89389038085938 329.39654541015625 129.83718872070312 329.39654541015625 C 129.83718872070312 328.49017333984375 129.83718872070312 327.58380126953125 129.83718872070312 326.677490234375 C 148.98663330078125 326.677490234375 168.13607788085938 326.677490234375 187.28555297851562 326.677490234375 C 187.28555297851562 319.9283447265625 187.28555297851562 313.17919921875 187.28555297851562 306.4300537109375 C 168.13607788085938 306.4300537109375 148.98663330078125 306.4300537109375 129.83718872070312 306.4300537109375 C 129.83718872070312 305.5399169921875 129.83718872070312 304.64971923828125 129.83718872070312 303.759521484375M 156.95745849609375 304.68206787109375 C 157.89712524414062 304.68206787109375 158.8367919921875 304.68206787109375 159.77642822265625 304.68206787109375 C 159.77642822265625 314.7491455078125 159.77642822265625 324.816162109375 159.77642822265625 334.88323974609375 C 159.77642822265625 336.3074951171875 160.24624633789062 337.262451171875 161.1859130859375 337.74798583984375 C 162.12554931640625 338.265869140625 164.1182861328125 338.52484130859375 167.16403198242188 338.52484130859375 C 167.7796630859375 338.52484130859375 168.84893798828125 338.52484130859375 170.371826171875 338.52484130859375 C 171.89471435546875 338.52484130859375 173.66058349609375 338.52484130859375 175.66949462890625 338.52484130859375 C 177.7108154296875 338.52484130859375 179.75213623046875 338.52484130859375 181.79345703125 338.52484130859375 C 183.86715698242188 338.52484130859375 185.73025512695312 338.52484130859375 187.38275146484375 338.52484130859375 C 189.067626953125 338.52484130859375 190.31512451171875 338.52484130859375 191.12515258789062 338.52484130859375 C 192.93966674804688 338.52484130859375 194.28433227539062 338.21734619140625 195.1591796875 337.602294921875 C 196.03402709960938 337.0196533203125 196.63345336914062 335.82196044921875 196.95745849609375 334.00927734375 C 197.31390380859375 332.1641845703125 197.55691528320312 329.445068359375 197.6865234375 325.85205078125 C 198.04293823242188 326.07861328125 198.4803466796875 326.30517578125 198.998779296875 326.53179931640625 C 199.54962158203125 326.7584228515625 200.03564453125 326.9364013671875 200.45684814453125 327.06591796875 C 200.262451171875 330.8531494140625 199.90603637695312 333.78265380859375 199.38760375976562 335.8543701171875 C 198.86917114257812 337.8936767578125 197.9781494140625 339.3017578125 196.7144775390625 340.07861328125 C 195.48318481445312 340.8878173828125 193.62008666992188 341.29248046875 191.12515258789062 341.29248046875 C 190.76873779296875 341.29248046875 189.78048706054688 341.29248046875 188.160400390625 341.29248046875 C 186.540283203125 341.29248046875 184.64480590820312 341.29248046875 182.473876953125 341.29248046875 C 180.33535766601562 341.29248046875 178.18063354492188 341.29248046875 176.00970458984375 341.29248046875 C 173.83880615234375 341.29248046875 171.95950317382812 341.29248046875 170.371826171875 341.29248046875 C 168.78411865234375 341.29248046875 167.79586791992188 341.29248046875 167.40704345703125 341.29248046875 C 164.75009155273438 341.29248046875 162.66018676757812 341.130615234375 161.13729858398438 340.80694580078125 C 159.61441040039062 340.515625 158.52896118164062 339.8843994140625 157.88092041015625 338.913330078125 C 157.26528930664062 337.974609375 156.95745849609375 336.598876953125 156.95745849609375 334.7861328125 C 156.95745849609375 324.75146484375 156.95745849609375 314.716796875 156.95745849609375 304.68206787109375M 128.23330688476562 303.759521484375 C 129.14053344726562 303.759521484375 130.04779052734375 303.759521484375 130.95504760742188 303.759521484375 C 130.95504760742188 314.16650390625 130.95504760742188 324.57342529296875 130.95504760742188 334.9803466796875 C 130.04779052734375 334.9803466796875 129.14053344726562 334.9803466796875 128.23330688476562 334.9803466796875 C 128.23330688476562 324.57342529296875 128.23330688476562 314.16650390625 128.23330688476562 303.759521484375M 125.17132568359375 263.1676025390625 C 147.56097412109375 263.1676025390625 169.95059204101562 263.1676025390625 192.3402099609375 263.1676025390625 C 192.3402099609375 264.073974609375 192.3402099609375 264.9803466796875 192.3402099609375 265.88671875 C 169.95059204101562 265.88671875 147.56097412109375 265.88671875 125.17132568359375 265.88671875 C 125.17132568359375 264.9803466796875 125.17132568359375 264.073974609375 125.17132568359375 263.1676025390625M 129.64276123046875 283.6092529296875 C 136.6739501953125 283.6092529296875 143.70513916015625 283.6092529296875 150.736328125 283.6092529296875 C 150.736328125 284.5479736328125 150.736328125 285.4866943359375 150.736328125 286.4254150390625 C 143.70513916015625 286.4254150390625 136.6739501953125 286.4254150390625 129.64276123046875 286.4254150390625 C 129.64276123046875 285.4866943359375 129.64276123046875 284.5479736328125 129.64276123046875 283.6092529296875M 127.69866943359375 293.4173583984375 C 135.4102783203125 293.4173583984375 143.12191772460938 293.4173583984375 150.83352661132812 293.4173583984375 C 150.83352661132812 294.33984375 150.83352661132812 295.262451171875 150.83352661132812 296.1849365234375 C 143.12191772460938 296.1849365234375 135.4102783203125 296.1849365234375 127.69866943359375 296.1849365234375 C 127.69866943359375 295.262451171875 127.69866943359375 294.33984375 127.69866943359375 293.4173583984375M 166.14337158203125 293.4173583984375 C 174.260009765625 293.4173583984375 182.37667846679688 293.4173583984375 190.49331665039062 293.4173583984375 C 190.49331665039062 294.33984375 190.49331665039062 295.262451171875 190.49331665039062 296.1849365234375 C 182.37667846679688 296.1849365234375 174.260009765625 296.1849365234375 166.14337158203125 296.1849365234375 C 166.14337158203125 295.262451171875 166.14337158203125 294.33984375 166.14337158203125 293.4173583984375M 166.14337158203125 283.6092529296875 C 173.44998168945312 283.6092529296875 180.756591796875 283.6092529296875 188.06317138671875 283.6092529296875 C 188.06317138671875 284.5479736328125 188.06317138671875 285.4866943359375 188.06317138671875 286.4254150390625 C 180.756591796875 286.4254150390625 173.44998168945312 286.4254150390625 166.14337158203125 286.4254150390625 C 166.14337158203125 285.4866943359375 166.14337158203125 284.5479736328125 166.14337158203125 283.6092529296875M 156.95745849609375 264.13873291015625 C 157.89712524414062 264.13873291015625 158.8367919921875 264.13873291015625 159.77642822265625 264.13873291015625 C 159.77642822265625 276.0670166015625 159.77642822265625 287.995361328125 159.77642822265625 299.9237060546875 C 158.8367919921875 299.9237060546875 157.89712524414062 299.9237060546875 156.95745849609375 299.9237060546875 C 156.95745849609375 287.995361328125 156.95745849609375 276.0670166015625 156.95745849609375 264.13873291015625M 120.69989013671875 273.8011474609375 C 146.0380859375 273.8011474609375 171.37628173828125 273.8011474609375 196.7144775390625 273.8011474609375 C 196.7144775390625 279.5792236328125 196.7144775390625 285.35723876953125 196.7144775390625 291.13525390625 C 195.791015625 291.13525390625 194.8675537109375 291.13525390625 193.944091796875 291.13525390625 C 193.944091796875 286.29595947265625 193.944091796875 281.4566650390625 193.944091796875 276.6173095703125 C 170.45281982421875 276.6173095703125 146.96151733398438 276.6173095703125 123.47024536132812 276.6173095703125 C 123.47024536132812 281.4566650390625 123.47024536132812 286.29595947265625 123.47024536132812 291.13525390625 C 122.54678344726562 291.13525390625 121.62332153320312 291.13525390625 120.69989013671875 291.13525390625 C 120.69989013671875 285.35723876953125 120.69989013671875 279.5792236328125 120.69989013671875 273.8011474609375"/>
    <path stroke-width="0" fill="rgb(0, 0, 0)" opacity="1.0" d="M 227.04254150390625 269.3341064453125 C 248.476318359375 269.3341064453125 269.91009521484375 269.3341064453125 291.3438720703125 269.3341064453125 C 291.3438720703125 270.2728271484375 291.3438720703125 271.2115478515625 291.3438720703125 272.1502685546875 C 269.91009521484375 272.1502685546875 248.476318359375 272.1502685546875 227.04254150390625 272.1502685546875 C 227.04254150390625 271.2115478515625 227.04254150390625 270.2728271484375 227.04254150390625 269.3341064453125M 228.06317138671875 282.3953857421875 C 246.04617309570312 282.3953857421875 264.0291748046875 282.3953857421875 282.01214599609375 282.3953857421875 C 282.01214599609375 283.3017578125 282.01214599609375 284.2081298828125 282.01214599609375 285.11444091796875 C 264.0291748046875 285.11444091796875 246.04617309570312 285.11444091796875 228.06317138671875 285.11444091796875 C 228.06317138671875 284.2081298828125 228.06317138671875 283.3017578125 228.06317138671875 282.3953857421875M 217.7108154296875 295.3594970703125 C 237.24908447265625 295.3594970703125 256.787353515625 295.3594970703125 276.32562255859375 295.3594970703125 C 276.32562255859375 296.265869140625 276.32562255859375 297.1722412109375 276.32562255859375 298.07861328125 C 256.787353515625 298.07861328125 237.24908447265625 298.07861328125 217.7108154296875 298.07861328125 C 217.7108154296875 297.1722412109375 217.7108154296875 296.265869140625 217.7108154296875 295.3594970703125M 230.59051513671875 258.60345458984375 C 231.56256103515625 258.830078125 232.53463745117188 259.056640625 233.50668334960938 259.283203125 C 231.2061767578125 266.2427978515625 228.25759887695312 272.7005615234375 224.6610107421875 278.6566162109375 C 221.0968017578125 284.580322265625 217.143798828125 289.6138916015625 212.80194091796875 293.7572021484375 C 212.67233276367188 293.56298828125 212.44552612304688 293.35260009765625 212.12152099609375 293.1259765625 C 211.82989501953125 292.8670654296875 211.505859375 292.624267578125 211.14944458007812 292.397705078125 C 210.79302978515625 292.13873291015625 210.50140380859375 291.94451904296875 210.27459716796875 291.8150634765625 C 214.68124389648438 287.83349609375 218.63427734375 282.96185302734375 222.1336669921875 277.20001220703125 C 225.66546630859375 271.40576171875 228.48440551757812 265.2069091796875 230.59051513671875 258.60345458984375M 257.56500244140625 300.84625244140625 C 258.407470703125 301.15374755859375 259.2499084472656 301.4613037109375 260.09234619140625 301.768798828125 C 256.6253662109375 307.7572021484375 252.46173095703125 313.29248046875 247.6014404296875 318.37457275390625 C 242.7412109375 323.42431640625 237.47589111328125 327.9722900390625 231.80560302734375 332.01849365234375 C 226.16766357421875 336.0323486328125 220.25433349609375 339.5606689453125 214.06561279296875 342.60345458984375 C 213.96841430664062 342.441650390625 213.79019165039062 342.21502685546875 213.53097534179688 341.9237060546875 C 213.27178955078125 341.63238525390625 212.996337890625 341.35723876953125 212.70474243164062 341.0982666015625 C 212.44552612304688 340.8717041015625 212.18630981445312 340.6612548828125 211.92709350585938 340.467041015625 C 218.14825439453125 337.6185302734375 224.11016845703125 334.21966552734375 229.8128662109375 330.2705078125 C 235.51559448242188 326.3214111328125 240.7322998046875 321.8704833984375 245.46295166015625 316.91790771484375 C 250.22601318359375 311.9329833984375 254.260009765625 306.57568359375 257.56500244140625 300.84625244140625M 274.8189697265625 295.3594970703125 C 275.7261962890625 295.3594970703125 276.6334533691406 295.3594970703125 277.54071044921875 295.3594970703125 C 277.6703186035156 301.83349609375 277.86474609375 307.78961181640625 278.12396240234375 313.227783203125 C 278.4155578613281 318.6658935546875 278.9339904785156 323.375732421875 279.6792297363281 327.35723876953125 C 280.4244689941406 331.306396484375 281.4775390625 334.3814697265625 282.83837890625 336.5826416015625 C 284.231689453125 338.816162109375 286.0137634277344 339.9329833984375 288.1846923828125 339.9329833984375 C 289.3187561035156 339.9329833984375 290.0639953613281 338.63818359375 290.42041015625 336.048583984375 C 290.8092346191406 333.458984375 291.01983642578125 330.092529296875 291.05224609375 325.9490966796875 C 291.37628173828125 326.17572021484375 291.7974853515625 326.40234375 292.31591796875 326.62890625 C 292.86676025390625 326.85546875 293.2879638671875 327.0335693359375 293.57958984375 327.1629638671875 C 293.4499816894531 331.07977294921875 293.20697021484375 334.1549072265625 292.8505554199219 336.388427734375 C 292.52655029296875 338.6219482421875 291.99188232421875 340.17572021484375 291.24664306640625 341.0496826171875 C 290.50140380859375 341.9560546875 289.41595458984375 342.441650390625 287.99029541015625 342.50634765625 C 285.2037353515625 342.50634765625 282.9517822265625 341.4219970703125 281.2344970703125 339.253173828125 C 279.5172119140625 337.0843505859375 278.22113037109375 333.960693359375 277.3463134765625 329.882080078125 C 276.471435546875 325.803466796875 275.8558044433594 320.8670654296875 275.4993896484375 315.0728759765625 C 275.17535400390625 309.2462158203125 274.94854736328125 302.6751708984375 274.8189697265625 295.3594970703125M 222.1336669921875 307.2069091796875 C 222.78167724609375 306.6405029296875 223.42974853515625 306.073974609375 224.0777587890625 305.50750732421875 C 227.93359375 307.611572265625 231.82177734375 309.974609375 235.74240112304688 312.5965576171875 C 239.66302490234375 315.218505859375 243.45404052734375 317.92138671875 247.11541748046875 320.7052001953125 C 250.77682495117188 323.4566650390625 254.1466064453125 326.2081298828125 257.22479248046875 328.95953369140625 C 260.3353576660156 331.6785888671875 262.91131591796875 334.23583984375 264.95263671875 336.6312255859375 C 264.2397766113281 337.2947998046875 263.5269470214844 337.9583740234375 262.8140869140625 338.6219482421875 C 260.7403869628906 336.1942138671875 258.1806640625 333.620849609375 255.1348876953125 330.9017333984375 C 252.089111328125 328.1502685546875 248.73553466796875 325.366455078125 245.07412719726562 322.55029296875 C 241.4127197265625 319.70172119140625 237.6217041015625 316.9664306640625 233.70111083984375 314.344482421875 C 229.78048706054688 311.690185546875 225.9246826171875 309.31097412109375 222.1336669921875 307.2069091796875"/>
    <path stroke-width="0" fill="rgb(0, 0, 0)" opacity="1.0" d="M 321.33172607421875 295.7965087890625 C 321.33172607421875 306.3653564453125 321.33172607421875 316.93408203125 321.33172607421875 327.5029296875 C 320.4244689941406 327.5029296875 319.5172119140625 327.5029296875 318.6099853515625 327.5029296875 C 318.6099853515625 317.8404541015625 318.6099853515625 308.17803955078125 318.6099853515625 298.515625 C 313.5390625 298.515625 308.46820068359375 298.515625 303.3973388671875 298.515625 C 303.3973388671875 297.6092529296875 303.3973388671875 296.702880859375 303.3973388671875 295.7965087890625 C 309.3754577636719 295.7965087890625 315.35357666015625 295.7965087890625 321.33172607421875 295.7965087890625M 321.33172607421875 326.19189453125 C 323.9886474609375 330.0115966796875 327.666259765625 332.8763427734375 332.364501953125 334.7861328125 C 337.062744140625 336.66357421875 342.4901123046875 337.715576171875 348.64642333984375 337.94219970703125 C 351.01171875 338.0069580078125 353.944091796875 338.05548095703125 357.4434814453125 338.087890625 C 360.97528076171875 338.1202392578125 364.685302734375 338.1202392578125 368.573486328125 338.087890625 C 372.46173095703125 338.05548095703125 376.155517578125 337.99072265625 379.6549072265625 337.8936767578125 C 383.18670654296875 337.7965087890625 386.167724609375 337.699462890625 388.5977783203125 337.602294921875 C 388.46826171875 337.76416015625 388.3223876953125 338.02313232421875 388.160400390625 338.379150390625 C 387.9984130859375 338.7352294921875 387.8525390625 339.09130859375 387.72296142578125 339.4473876953125 C 387.625732421875 339.8358154296875 387.5447998046875 340.17572021484375 387.47998046875 340.467041015625 C 385.179443359375 340.53179931640625 382.34423828125 340.5965576171875 378.9744873046875 340.6612548828125 C 375.604736328125 340.72601318359375 372.04052734375 340.7745361328125 368.2818603515625 340.80694580078125 C 364.5233154296875 340.83929443359375 360.92669677734375 340.83929443359375 357.49212646484375 340.80694580078125 C 354.08990478515625 340.7745361328125 351.2061767578125 340.72601318359375 348.8408203125 340.6612548828125 C 342.2308349609375 340.40234375 336.54437255859375 339.2855224609375 331.78131103515625 337.31097412109375 C 327.0506591796875 335.3687744140625 323.16241455078125 332.5040283203125 320.11663818359375 328.716796875 C 317.49212646484375 330.9503173828125 314.802734375 333.183837890625 312.048583984375 335.4173583984375 C 309.32684326171875 337.6185302734375 306.6213073730469 339.7711181640625 303.93194580078125 341.8751220703125 C 303.3487243652344 340.96875 302.7655029296875 340.06243896484375 302.1822509765625 339.15606689453125 C 304.67718505859375 337.47283935546875 307.4151611328125 335.46588134765625 310.3961181640625 333.13525390625 C 313.3770751953125 330.80462646484375 316.21221923828125 328.49017333984375 318.9015808105469 326.19189453125 C 319.71160888671875 326.19189453125 320.52166748046875 326.19189453125 321.33172607421875 326.19189453125M 305.14703369140625 262.3421630859375 C 305.8436584472656 261.8404541015625 306.5403137207031 261.3387451171875 307.2369384765625 260.8370361328125 C 309.27825927734375 262.29364013671875 311.319580078125 263.960693359375 313.36090087890625 265.838134765625 C 315.4345703125 267.6832275390625 317.281494140625 269.54449462890625 318.9015808105469 271.4219970703125 C 320.5540771484375 273.26708984375 321.85015869140625 274.99884033203125 322.789794921875 276.6173095703125 C 322.0445556640625 277.183837890625 321.29931640625 277.75030517578125 320.5540771484375 278.3167724609375 C 319.6144104003906 276.6982421875 318.318359375 274.93408203125 316.6658630371094 273.0242919921875 C 315.0457763671875 271.11444091796875 313.23126220703125 269.23699951171875 311.22235107421875 267.39190673828125 C 309.245849609375 265.51446533203125 307.22076416015625 263.8311767578125 305.14703369140625 262.3421630859375M 342.1336669921875 271.7618408203125 C 342.7169189453125 271.11444091796875 343.30010986328125 270.467041015625 343.88336181640625 269.81964111328125 C 346.993896484375 270.92022705078125 350.234130859375 272.1988525390625 353.6038818359375 273.655517578125 C 357.006103515625 275.07977294921875 360.2462158203125 276.520263671875 363.324462890625 277.97686767578125 C 366.43499755859375 279.43353271484375 369.010986328125 280.80926513671875 371.05224609375 282.10400390625 C 370.45281982421875 282.84857177734375 369.8533935546875 283.59307861328125 369.25396728515625 284.33758544921875 C 367.2774658203125 283.1075439453125 364.76629638671875 281.7318115234375 361.72052001953125 280.21044921875 C 358.6748046875 278.68902587890625 355.4345703125 277.183837890625 352.0 275.69482421875 C 348.59783935546875 274.205810546875 345.30908203125 272.894775390625 342.1336669921875 271.7618408203125M 332.80194091796875 282.0069580078125 C 349.1324462890625 282.0069580078125 365.46295166015625 282.0069580078125 381.79345703125 282.0069580078125 C 381.79345703125 282.913330078125 381.79345703125 283.81964111328125 381.79345703125 284.72601318359375 C 366.35400390625 284.72601318359375 350.91455078125 284.72601318359375 335.47509765625 284.72601318359375 C 335.47509765625 299.9237060546875 335.47509765625 315.12139892578125 335.47509765625 330.319091796875 C 334.58404541015625 330.319091796875 333.6929931640625 330.319091796875 332.80194091796875 330.319091796875 C 332.80194091796875 314.21502685546875 332.80194091796875 298.1109619140625 332.80194091796875 282.0069580078125M 380.38397216796875 282.0069580078125 C 381.3236083984375 282.0069580078125 382.2633056640625 282.0069580078125 383.202880859375 282.0069580078125 C 383.202880859375 296.68670654296875 383.202880859375 311.366455078125 383.202880859375 326.0462646484375 C 383.202880859375 327.2115478515625 383.008544921875 328.0693359375 382.61968994140625 328.61962890625 C 382.2308349609375 329.1375732421875 381.58282470703125 329.542236328125 380.675537109375 329.83349609375 C 379.671142578125 330.092529296875 378.1644287109375 330.25433349609375 376.155517578125 330.319091796875 C 374.1790771484375 330.3837890625 371.457275390625 330.41619873046875 367.99029541015625 330.41619873046875 C 367.92547607421875 329.9630126953125 367.7796630859375 329.49365234375 367.5528564453125 329.008056640625 C 367.3260498046875 328.5225830078125 367.0992431640625 328.0855712890625 366.8724365234375 327.6971435546875 C 369.78857421875 327.7618408203125 372.31591796875 327.794189453125 374.4544677734375 327.794189453125 C 376.59295654296875 327.794189453125 378.00244140625 327.794189453125 378.682861328125 327.794189453125 C 379.36328125 327.7294921875 379.81695556640625 327.58380126953125 380.04376220703125 327.35723876953125 C 380.2705078125 327.0982666015625 380.38397216796875 326.6612548828125 380.38397216796875 326.0462646484375 C 380.38397216796875 311.366455078125 380.38397216796875 296.68670654296875 380.38397216796875 282.0069580078125M 332.0242919921875 263.1676025390625 C 348.24139404296875 263.1676025390625 364.45849609375 263.1676025390625 380.675537109375 263.1676025390625 C 380.675537109375 264.073974609375 380.675537109375 264.9803466796875 380.675537109375 265.88671875 C 364.45849609375 265.88671875 348.24139404296875 265.88671875 332.0242919921875 265.88671875 C 332.0242919921875 264.9803466796875 332.0242919921875 264.073974609375 332.0242919921875 263.1676025390625M 334.21142578125 296.087890625 C 350.153076171875 296.087890625 366.09478759765625 296.087890625 382.0364990234375 296.087890625 C 382.0364990234375 296.9942626953125 382.0364990234375 297.90057373046875 382.0364990234375 298.80694580078125 C 366.09478759765625 298.80694580078125 350.153076171875 298.80694580078125 334.21142578125 298.80694580078125 C 334.21142578125 297.90057373046875 334.21142578125 296.9942626953125 334.21142578125 296.087890625M 334.21142578125 310.4600830078125 C 350.153076171875 310.4600830078125 366.09478759765625 310.4600830078125 382.0364990234375 310.4600830078125 C 382.0364990234375 311.3988037109375 382.0364990234375 312.33758544921875 382.0364990234375 313.27630615234375 C 366.09478759765625 313.27630615234375 350.153076171875 313.27630615234375 334.21142578125 313.27630615234375 C 334.21142578125 312.33758544921875 334.21142578125 311.3988037109375 334.21142578125 310.4600830078125M 356.22845458984375 282.68670654296875 C 357.1195068359375 282.68670654296875 358.010498046875 282.68670654296875 358.901611328125 282.68670654296875 C 358.901611328125 298.4346923828125 358.901611328125 314.1826171875 358.901611328125 329.9306640625 C 358.010498046875 329.9306640625 357.1195068359375 329.9306640625 356.22845458984375 329.9306640625 C 356.22845458984375 314.1826171875 356.22845458984375 298.4346923828125 356.22845458984375 282.68670654296875M 379.9951171875 263.1676025390625 C 380.221923828125 263.1676025390625 380.44879150390625 263.1676025390625 380.675537109375 263.1676025390625 C 380.88623046875 263.11907958984375 381.0968017578125 263.070556640625 381.307373046875 263.02197265625 C 381.98785400390625 263.47515869140625 382.6683349609375 263.9283447265625 383.3487548828125 264.3814697265625 C 381.3721923828125 266.1942138671875 379.039306640625 267.9583740234375 376.3499755859375 269.6739501953125 C 373.6929931640625 271.38958740234375 370.8902587890625 272.943359375 367.941650390625 274.33526611328125 C 365.0255126953125 275.7271728515625 362.1741943359375 276.92486572265625 359.38763427734375 277.9283447265625 C 359.12841796875 277.6046142578125 358.820556640625 277.2647705078125 358.46417236328125 276.90869140625 C 358.14013671875 276.520263671875 357.83233642578125 276.21270751953125 357.54071044921875 275.98614501953125 C 360.3272705078125 275.04736328125 363.1300048828125 273.9306640625 365.948974609375 272.6358642578125 C 368.80029296875 271.30865478515625 371.4410400390625 269.8843994140625 373.8712158203125 268.363037109375 C 376.333740234375 266.84161376953125 378.37506103515625 265.33642578125 379.9951171875 263.847412109375 C 379.9951171875 263.620849609375 379.9951171875 263.39422607421875 379.9951171875 263.1676025390625"/>
    <path stroke-width="0" fill="rgb(0, 0, 0)" opacity="1.0" d="M 427.9659423828125 263.75030517578125 C 442.4010009765625 263.75030517578125 456.8359375 263.75030517578125 471.27099609375 263.75030517578125 C 471.27099609375 264.6566162109375 471.27099609375 265.56298828125 471.27099609375 266.4693603515625 C 456.8359375 266.4693603515625 442.4010009765625 266.4693603515625 427.9659423828125 266.4693603515625 C 427.9659423828125 265.56298828125 427.9659423828125 264.6566162109375 427.9659423828125 263.75030517578125M 427.2369384765625 288.658935546875 C 442.48193359375 288.658935546875 457.72705078125 288.658935546875 472.9720458984375 288.658935546875 C 472.9720458984375 289.58154296875 472.9720458984375 290.5040283203125 472.9720458984375 291.42657470703125 C 457.72705078125 291.42657470703125 442.48193359375 291.42657470703125 427.2369384765625 291.42657470703125 C 427.2369384765625 290.5040283203125 427.2369384765625 289.58154296875 427.2369384765625 288.658935546875M 427.2369384765625 301.23468017578125 C 442.48193359375 301.23468017578125 457.72705078125 301.23468017578125 472.9720458984375 301.23468017578125 C 472.9720458984375 302.1572265625 472.9720458984375 303.07977294921875 472.9720458984375 304.0023193359375 C 457.72705078125 304.0023193359375 442.48193359375 304.0023193359375 427.2369384765625 304.0023193359375 C 427.2369384765625 303.07977294921875 427.2369384765625 302.1572265625 427.2369384765625 301.23468017578125M 428.160400390625 334.68902587890625 C 442.7412109375 334.68902587890625 457.322021484375 334.68902587890625 471.90283203125 334.68902587890625 C 471.90283203125 335.62774658203125 471.90283203125 336.56646728515625 471.90283203125 337.50518798828125 C 457.322021484375 337.50518798828125 442.7412109375 337.50518798828125 428.160400390625 337.50518798828125 C 428.160400390625 336.56646728515625 428.160400390625 335.62774658203125 428.160400390625 334.68902587890625M 419.314697265625 276.2288818359375 C 439.77642822265625 276.2288818359375 460.2381591796875 276.2288818359375 480.69989013671875 276.2288818359375 C 480.69989013671875 277.13525390625 480.69989013671875 278.0416259765625 480.69989013671875 278.947998046875 C 460.2381591796875 278.947998046875 439.77642822265625 278.947998046875 419.314697265625 278.947998046875 C 419.314697265625 278.0416259765625 419.314697265625 277.13525390625 419.314697265625 276.2288818359375M 426.84814453125 313.7132568359375 C 442.336181640625 313.7132568359375 457.82421875 313.7132568359375 473.312255859375 313.7132568359375 C 473.312255859375 323.262451171875 473.312255859375 332.8115234375 473.312255859375 342.3607177734375 C 472.4212646484375 342.3607177734375 471.5301513671875 342.3607177734375 470.63916015625 342.3607177734375 C 470.63916015625 333.7178955078125 470.63916015625 325.07513427734375 470.63916015625 316.432373046875 C 456.94940185546875 316.432373046875 443.2596435546875 316.432373046875 429.56988525390625 316.432373046875 C 429.56988525390625 325.15606689453125 429.56988525390625 333.8797607421875 429.56988525390625 342.60345458984375 C 428.66259765625 342.60345458984375 427.75537109375 342.60345458984375 426.84814453125 342.60345458984375 C 426.84814453125 332.973388671875 426.84814453125 323.3433837890625 426.84814453125 313.7132568359375M 419.849365234375 258.894775390625 C 420.756591796875 259.15374755859375 421.663818359375 259.4127197265625 422.571044921875 259.67169189453125 C 420.43255615234375 264.88323974609375 417.9862060546875 269.9490966796875 415.2320556640625 274.869384765625 C 412.4779052734375 279.7572021484375 409.51318359375 284.33758544921875 406.3377685546875 288.61041259765625 C 403.16241455078125 292.850830078125 399.889892578125 296.68670654296875 396.52001953125 300.117919921875 C 396.39044189453125 299.9237060546875 396.196044921875 299.680908203125 395.93682861328125 299.38958740234375 C 395.71002197265625 299.06591796875 395.467041015625 298.7745361328125 395.207763671875 298.515625 C 394.98095703125 298.2242431640625 394.73797607421875 297.98150634765625 394.478759765625 297.78729248046875 C 397.8485107421875 294.614990234375 401.0887451171875 290.973388671875 404.19927978515625 286.8624267578125 C 407.309814453125 282.7191162109375 410.2098388671875 278.2681884765625 412.899169921875 273.50982666015625 C 415.62091064453125 268.75146484375 417.9376220703125 263.8797607421875 419.849365234375 258.894775390625M 409.3997802734375 281.1815185546875 C 410.27459716796875 280.3074951171875 411.1494140625 279.43353271484375 412.0242919921875 278.5595703125 C 412.089111328125 278.5919189453125 412.1539306640625 278.624267578125 412.21875 278.6566162109375 C 412.21875 299.891357421875 412.21875 321.1259765625 412.21875 342.3607177734375 C 411.279052734375 342.3607177734375 410.33941650390625 342.3607177734375 409.3997802734375 342.3607177734375 C 409.3997802734375 321.9676513671875 409.3997802734375 301.5745849609375 409.3997802734375 281.1815185546875"/>
  </g>
</svg>
