<?xml version="1.0" ?>
<svg xmlns="http://www.w3.org/2000/svg" version="1.1" width="600" height="600">
  <defs/>
  <g>
    <path stroke-width="0" fill="rgb(0, 0, 0)" opacity="1.0" d="M 204.06787109375 226.43243408203125 C 269.403076171875 226.43243408203125 334.73876953125 226.43243408203125 400.073974609375 226.43243408203125 C 400.073974609375 230.28378295898438 400.073974609375 234.1351318359375 400.073974609375 237.98648071289062 C 334.73876953125 237.98648071289062 269.403076171875 237.98648071289062 204.06787109375 237.98648071289062 C 204.06787109375 234.1351318359375 204.06787109375 230.28378295898438 204.06787109375 226.43243408203125M 204.06787109375 286.6351318359375 C 269.403076171875 286.6351318359375 334.73876953125 286.6351318359375 400.073974609375 286.6351318359375 C 400.073974609375 290.5540466308594 400.073974609375 294.47296142578125 400.073974609375 298.39190673828125 C 334.73876953125 298.39190673828125 269.403076171875 298.39190673828125 204.06787109375 298.39190673828125 C 204.06787109375 294.47296142578125 204.06787109375 290.5540466308594 204.06787109375 286.6351318359375M 395.006591796875 166.02703857421875 C 398.92529296875 166.02703857421875 402.84423828125 166.02703857421875 406.762939453125 166.02703857421875 C 406.762939453125 261.3648681640625 406.762939453125 356.70269775390625 406.762939453125 452.04052734375 C 406.762939453125 459.33782958984375 405.546630859375 464.60809326171875 403.1142578125 467.851318359375 C 400.817138671875 471.0946044921875 396.695556640625 473.2567138671875 390.75 474.33782958984375 C 384.804443359375 475.2838134765625 375.277587890625 475.89190673828125 362.169921875 476.16217041015625 C 349.062255859375 476.43243408203125 332.171142578125 476.43243408203125 311.496337890625 476.16217041015625 C 311.22607421875 475.2161865234375 310.7529296875 474.0 310.077392578125 472.5135498046875 C 309.40185546875 471.16217041015625 308.72607421875 469.6756591796875 308.050537109375 468.0540771484375 C 307.509765625 466.56756591796875 306.834228515625 465.148681640625 306.0234375 463.79730224609375 C 318.455322265625 464.06756591796875 329.94140625 464.270263671875 340.481689453125 464.4053955078125 C 351.156982421875 464.54052734375 360.2783203125 464.54052734375 367.845458984375 464.4053955078125 C 375.41259765625 464.270263671875 380.615234375 464.20269775390625 383.452880859375 464.20269775390625 C 387.777099609375 463.93243408203125 390.75 462.9189453125 392.37158203125 461.16217041015625 C 394.128173828125 459.54052734375 395.006591796875 456.6351318359375 395.006591796875 452.4459228515625 C 395.006591796875 356.97296142578125 395.006591796875 261.5 395.006591796875 166.02703857421875M 133.124755859375 358.39190673828125 C 155.015625 357.04052734375 180.48779296875 355.4189453125 209.540771484375 353.52703857421875 C 238.593505859375 351.5 269.538330078125 349.33782958984375 302.375 347.04052734375 C 335.3466796875 344.7432861328125 368.183349609375 342.37841796875 400.884765625 339.9459228515625 C 400.74951171875 343.3243408203125 400.614501953125 346.70269775390625 400.479248046875 350.0810546875 C 368.588623046875 352.7838134765625 336.63037109375 355.351318359375 304.604736328125 357.7838134765625 C 272.578857421875 360.2161865234375 242.039306640625 362.5810546875 212.986572265625 364.87841796875 C 183.93359375 367.04052734375 158.123779296875 368.8648681640625 135.55712890625 370.351318359375 C 134.746337890625 366.3648681640625 133.935546875 362.37841796875 133.124755859375 358.39190673828125M 460.071533203125 259.06756591796875 C 463.314697265625 261.02703857421875 466.557861328125 262.9864807128906 469.801025390625 264.9459533691406 C 444.93701171875 299.4053955078125 415.343505859375 329.7432861328125 381.0205078125 355.95947265625 C 346.832763671875 382.1756591796875 309.19921875 404.9459228515625 268.11962890625 424.270263671875 C 227.175048828125 443.5946044921875 184.13623046875 459.87841796875 139.0029296875 473.12158203125 C 138.732666015625 472.04052734375 138.12451171875 470.8243408203125 137.1787109375 469.47296142578125 C 136.367919921875 468.2567138671875 135.489501953125 466.9053955078125 134.54345703125 465.4189453125 C 133.59765625 464.06756591796875 132.65185546875 462.9864501953125 131.705810546875 462.1756591796875 C 177.109375 449.7432861328125 220.283447265625 434.06756591796875 261.227783203125 415.148681640625 C 302.17236328125 396.229736328125 339.603271484375 373.79730224609375 373.52099609375 347.851318359375 C 407.57373046875 321.9053955078125 436.423828125 292.310791015625 460.071533203125 259.06756591796875M 295.888671875 124.87838745117188 C 300.145263671875 126.43243408203125 304.40185546875 127.98651123046875 308.658447265625 129.54055786132812 C 304.469482421875 137.51351928710938 299.942626953125 145.89187622070312 295.077880859375 154.67568969726562 C 290.348388671875 163.32431030273438 285.821533203125 170.62161254882812 281.497314453125 176.56756591796875 C 278.119140625 175.14865112304688 274.740966796875 173.729736328125 271.362548828125 172.31082153320312 C 275.5517578125 165.8243408203125 280.010986328125 157.98651123046875 284.740478515625 148.79730224609375 C 289.605224609375 139.60809326171875 293.3212890625 131.6351318359375 295.888671875 124.87838745117188M 197.37890625 166.02703857421875 C 264.606201171875 166.02703857421875 331.833251953125 166.02703857421875 399.060546875 166.02703857421875 C 399.060546875 169.810791015625 399.060546875 173.5946044921875 399.060546875 177.37838745117188 C 335.616943359375 177.37838745117188 272.17333984375 177.37838745117188 208.72998046875 177.37838745117188 C 208.72998046875 238.189208984375 208.72998046875 299.0 208.72998046875 359.810791015625 C 204.9462890625 359.810791015625 201.16259765625 359.810791015625 197.37890625 359.810791015625 C 197.37890625 295.2162170410156 197.37890625 230.62161254882812 197.37890625 166.02703857421875"/>
  </g>
</svg>
