<?xml version="1.0" encoding="utf-8"?>
<svg xmlns="http://www.w3.org/2000/svg" xmlns:ev="http://www.w3.org/2001/xml-events" xmlns:xlink="http://www.w3.org/1999/xlink" version="1.1" baseProfile="full" width="41856.0" height="1776.0" viewBox="67.0 -1634.0 41856.0 1776.0">
<defs/>
<g><path d="M 7227.000000 -1565.000000 C 7243.666667 -1543.000000 7261.333333 -1516.666667 7280.000000 -1486.000000 C 7299.333333 -1455.333333 7318.666667 -1423.666667 7338.000000 -1391.000000 C 7357.333333 -1358.333333 7374.000000 -1328.000000 7388.000000 -1300.000000 C 7370.000000 -1291.000000 7352.000000 -1282.000000 7334.000000 -1273.000000 C 7322.666667 -1298.333333 7307.666667 -1327.333333 7289.000000 -1360.000000 C 7270.333333 -1392.666667 7250.666667 -1425.000000 7230.000000 -1457.000000 C 7210.000000 -1489.000000 7191.000000 -1516.666667 7173.000000 -1540.000000 C 7191.000000 -1548.333333 7209.000000 -1556.666667 7227.000000 -1565.000000z M 7423.000000 -1634.000000 C 7441.000000 -1610.666667 7460.000000 -1583.000000 7480.000000 -1551.000000 C 7500.666667 -1519.000000 7521.000000 -1487.000000 7541.000000 -1455.000000 C 7561.000000 -1423.000000 7577.333333 -1394.333333 7590.000000 -1369.000000 C 7572.000000 -1360.000000 7554.000000 -1351.000000 7536.000000 -1342.000000 C 7514.000000 -1386.666667 7488.333333 -1433.333333 7459.000000 -1482.000000 C 7429.666667 -1530.666667 7400.333333 -1573.000000 7371.000000 -1609.000000 C 7388.333333 -1617.333333 7405.666667 -1625.666667 7423.000000 -1634.000000z M 6795.000000 -1342.000000 C 6789.666667 -1361.333333 6783.666667 -1382.000000 6777.000000 -1404.000000 C 6771.000000 -1426.666667 6764.666667 -1447.666667 6758.000000 -1467.000000 C 6781.333333 -1470.000000 6804.666667 -1473.000000 6828.000000 -1476.000000 C 6830.000000 -1452.000000 6836.333333 -1418.000000 6847.000000 -1374.000000 C 6858.333333 -1330.000000 6871.666667 -1283.333333 6887.000000 -1234.000000 C 6902.333333 -1184.666667 6917.000000 -1138.666667 6931.000000 -1096.000000 C 6960.333333 -1010.666667 6999.333333 -923.333333 7048.000000 -834.000000 C 7096.666667 -745.333333 7146.000000 -667.000000 7196.000000 -599.000000 C 7206.666667 -586.333333 7217.333333 -573.333333 7228.000000 -560.000000 C 7238.666667 -547.333333 7249.666667 -535.333333 7261.000000 -524.000000 C 7248.333333 -508.666667 7235.666667 -493.333333 7223.000000 -478.000000 C 7203.666667 -484.666667 7176.666667 -490.000000 7142.000000 -494.000000 C 7108.000000 -498.666667 7070.666667 -503.000000 7030.000000 -507.000000 C 6990.000000 -511.000000 6950.333333 -514.333333 6911.000000 -517.000000 C 6871.666667 -520.333333 6837.333333 -522.666667 6808.000000 -524.000000 C 6809.333333 -541.333333 6810.666667 -558.666667 6812.000000 -576.000000 C 6853.333333 -573.333333 6896.333333 -569.666667 6941.000000 -565.000000 C 6985.666667 -561.000000 7028.333333 -557.333333 7069.000000 -554.000000 C 7110.333333 -550.666667 7143.666667 -547.000000 7169.000000 -543.000000 C 7138.333333 -587.000000 7105.000000 -639.000000 7069.000000 -699.000000 C 7033.666667 -759.000000 6999.333333 -822.333333 6966.000000 -889.000000 C 6932.666667 -955.666667 6904.333333 -1020.333333 6881.000000 -1083.000000 C 6861.000000 -1140.333333 6843.666667 -1190.666667 6829.000000 -1234.000000 C 6815.000000 -1278.000000 6803.666667 -1314.000000 6795.000000 -1342.000000z M 6088.000000 -1133.000000 C 6182.666667 -1122.333333 6278.333333 -1114.333333 6375.000000 -1109.000000 C 6471.666667 -1104.333333 6564.666667 -1103.000000 6654.000000 -1105.000000 C 6744.000000 -1107.000000 6823.666667 -1111.000000 6893.000000 -1117.000000 C 6937.666667 -1122.333333 6988.666667 -1129.333333 7046.000000 -1138.000000 C 7104.000000 -1147.333333 7162.666667 -1159.333333 7222.000000 -1174.000000 C 7281.333333 -1188.666667 7335.333333 -1205.000000 7384.000000 -1223.000000 C 7386.000000 -1202.666667 7388.000000 -1182.333333 7390.000000 -1162.000000 C 7341.333333 -1147.333333 7288.000000 -1134.333333 7230.000000 -1123.000000 C 7172.666667 -1111.666667 7116.333333 -1101.333333 7061.000000 -1092.000000 C 7006.333333 -1083.333333 6958.000000 -1076.333333 6916.000000 -1071.000000 C 6799.333333 -1058.333333 6668.333333 -1052.333333 6523.000000 -1053.000000 C 6377.666667 -1053.666667 6234.000000 -1059.666667 6092.000000 -1071.000000 C 6090.666667 -1091.666667 6089.333333 -1112.333333 6088.000000 -1133.000000z M 6296.000000 -563.000000 C 6270.000000 -515.666667 6248.666667 -470.333333 6232.000000 -427.000000 C 6215.333333 -384.333333 6207.000000 -338.000000 6207.000000 -288.000000 C 6207.000000 -186.666667 6251.333333 -112.000000 6340.000000 -64.000000 C 6429.333333 -16.000000 6551.000000 9.333333 6705.000000 12.000000 C 6795.666667 12.666667 6881.000000 8.666667 6961.000000 0.000000 C 7041.000000 -8.000000 7114.333333 -20.000000 7181.000000 -36.000000 C 7181.000000 -15.000000 7181.000000 6.000000 7181.000000 27.000000 C 7115.666667 38.333333 7044.333333 47.666667 6967.000000 55.000000 C 6889.666667 63.000000 6801.666667 66.333333 6703.000000 65.000000 C 6591.666667 63.666667 6494.666667 50.333333 6412.000000 25.000000 C 6329.333333 -0.333333 6265.333333 -39.666667 6220.000000 -93.000000 C 6174.666667 -146.333333 6152.000000 -213.333333 6152.000000 -294.000000 C 6152.000000 -342.666667 6160.666667 -390.000000 6178.000000 -436.000000 C 6195.333333 -482.000000 6214.666667 -528.666667 6236.000000 -576.000000 C 6256.000000 -571.666667 6276.000000 -567.333333 6296.000000 -563.000000z "/>
</g></svg>
