<?xml version="1.0" encoding="utf-8"?>
<svg xmlns="http://www.w3.org/2000/svg" xmlns:ev="http://www.w3.org/2001/xml-events" xmlns:xlink="http://www.w3.org/1999/xlink" version="1.1" baseProfile="full" width="14880.0" height="1739.0" viewBox="382.0 -1601.0 14880.0 1739.0">
<defs/>
<g><path d="M 6860.000000 -1478.000000 C 6860.000000 -1474.666667 6859.333333 -1467.666667 6858.000000 -1457.000000 C 6856.666667 -1447.000000 6855.666667 -1436.666667 6855.000000 -1426.000000 C 6854.333333 -1416.000000 6854.000000 -1408.000000 6854.000000 -1402.000000 C 6852.666667 -1377.333333 6852.000000 -1344.666667 6852.000000 -1304.000000 C 6852.000000 -1264.000000 6852.000000 -1220.000000 6852.000000 -1172.000000 C 6852.000000 -1124.000000 6852.333333 -1075.666667 6853.000000 -1027.000000 C 6853.666667 -978.333333 6854.333333 -932.333333 6855.000000 -889.000000 C 6855.666667 -845.666667 6856.000000 -808.666667 6856.000000 -778.000000 C 6838.333333 -800.333333 6820.666667 -822.666667 6803.000000 -845.000000 C 6803.000000 -855.000000 6803.000000 -876.666667 6803.000000 -910.000000 C 6803.000000 -943.333333 6802.666667 -983.333333 6802.000000 -1030.000000 C 6801.333333 -1076.666667 6800.666667 -1124.333333 6800.000000 -1173.000000 C 6799.333333 -1221.666667 6798.666667 -1266.333333 6798.000000 -1307.000000 C 6797.333333 -1348.333333 6796.333333 -1380.000000 6795.000000 -1402.000000 C 6795.000000 -1414.666667 6794.000000 -1429.666667 6792.000000 -1447.000000 C 6790.000000 -1464.333333 6788.333333 -1474.666667 6787.000000 -1478.000000 C 6811.333333 -1478.000000 6835.666667 -1478.000000 6860.000000 -1478.000000z M 5906.000000 -1183.000000 C 5953.333333 -1184.333333 6008.000000 -1186.000000 6070.000000 -1188.000000 C 6132.000000 -1190.666667 6199.000000 -1193.333333 6271.000000 -1196.000000 C 6343.666667 -1198.666667 6418.666667 -1201.000000 6496.000000 -1203.000000 C 6573.333333 -1205.000000 6650.000000 -1206.666667 6726.000000 -1208.000000 C 6802.666667 -1209.333333 6876.333333 -1210.000000 6947.000000 -1210.000000 C 7014.333333 -1210.000000 7076.333333 -1209.666667 7133.000000 -1209.000000 C 7190.333333 -1208.333333 7241.000000 -1208.000000 7285.000000 -1208.000000 C 7329.666667 -1208.000000 7368.000000 -1207.666667 7400.000000 -1207.000000 C 7432.000000 -1206.333333 7457.333333 -1206.000000 7476.000000 -1206.000000 C 7476.000000 -1186.666667 7476.000000 -1167.333333 7476.000000 -1148.000000 C 7428.666667 -1150.666667 7364.000000 -1152.666667 7282.000000 -1154.000000 C 7200.666667 -1155.333333 7089.333333 -1156.000000 6948.000000 -1156.000000 C 6870.000000 -1156.000000 6786.000000 -1155.333333 6696.000000 -1154.000000 C 6606.000000 -1152.666667 6513.666667 -1150.333333 6419.000000 -1147.000000 C 6325.000000 -1143.666667 6234.000000 -1139.333333 6146.000000 -1134.000000 C 6058.666667 -1129.333333 5979.333333 -1123.666667 5908.000000 -1117.000000 C 5907.333333 -1139.000000 5906.666667 -1161.000000 5906.000000 -1183.000000z M 6881.000000 -636.000000 C 6881.000000 -569.333333 6868.666667 -513.333333 6844.000000 -468.000000 C 6820.000000 -423.333333 6788.666667 -389.666667 6750.000000 -367.000000 C 6712.000000 -345.000000 6671.333333 -334.000000 6628.000000 -334.000000 C 6584.666667 -334.000000 6544.666667 -340.333333 6508.000000 -353.000000 C 6471.333333 -365.666667 6439.333333 -384.666667 6412.000000 -410.000000 C 6385.333333 -436.000000 6364.666667 -467.000000 6350.000000 -503.000000 C 6335.333333 -539.000000 6328.000000 -580.000000 6328.000000 -626.000000 C 6328.000000 -680.666667 6341.333333 -731.000000 6368.000000 -777.000000 C 6395.333333 -823.666667 6431.333333 -861.333333 6476.000000 -890.000000 C 6520.666667 -918.666667 6569.333333 -933.000000 6622.000000 -933.000000 C 6687.333333 -933.000000 6741.000000 -918.333333 6783.000000 -889.000000 C 6825.666667 -859.666667 6857.333333 -818.666667 6878.000000 -766.000000 C 6899.333333 -713.333333 6910.000000 -652.666667 6910.000000 -584.000000 C 6910.000000 -517.333333 6902.000000 -451.666667 6886.000000 -387.000000 C 6870.000000 -322.333333 6842.333333 -260.666667 6803.000000 -202.000000 C 6764.333333 -144.000000 6710.666667 -91.000000 6642.000000 -43.000000 C 6574.000000 5.000000 6486.666667 45.666667 6380.000000 79.000000 C 6362.000000 63.000000 6344.000000 47.000000 6326.000000 31.000000 C 6420.000000 7.666667 6500.000000 -22.666667 6566.000000 -60.000000 C 6632.666667 -98.000000 6687.000000 -142.666667 6729.000000 -194.000000 C 6771.666667 -245.333333 6802.666667 -302.666667 6822.000000 -366.000000 C 6842.000000 -429.333333 6852.000000 -498.000000 6852.000000 -572.000000 C 6852.000000 -683.333333 6830.000000 -762.333333 6786.000000 -809.000000 C 6742.000000 -855.666667 6688.666667 -879.000000 6626.000000 -879.000000 C 6584.000000 -879.000000 6544.666667 -868.000000 6508.000000 -846.000000 C 6471.333333 -824.666667 6441.666667 -795.000000 6419.000000 -757.000000 C 6397.000000 -719.666667 6386.000000 -676.000000 6386.000000 -626.000000 C 6386.000000 -549.333333 6409.666667 -490.333333 6457.000000 -449.000000 C 6504.333333 -408.333333 6561.333333 -388.000000 6628.000000 -388.000000 C 6678.000000 -388.000000 6719.333333 -400.666667 6752.000000 -426.000000 C 6784.666667 -452.000000 6809.333333 -488.000000 6826.000000 -534.000000 C 6842.666667 -580.000000 6851.000000 -633.000000 6851.000000 -693.000000 C 6861.000000 -674.000000 6871.000000 -655.000000 6881.000000 -636.000000z M 7140.000000 -1500.000000 C 7162.000000 -1470.000000 7188.000000 -1432.000000 7218.000000 -1386.000000 C 7248.000000 -1340.000000 7273.333333 -1298.333333 7294.000000 -1261.000000 C 7275.333333 -1251.666667 7256.666667 -1242.333333 7238.000000 -1233.000000 C 7218.000000 -1271.000000 7193.333333 -1313.000000 7164.000000 -1359.000000 C 7135.333333 -1405.000000 7109.666667 -1443.666667 7087.000000 -1475.000000 C 7104.666667 -1483.333333 7122.333333 -1491.666667 7140.000000 -1500.000000z M 7350.000000 -1544.000000 C 7371.333333 -1514.666667 7396.333333 -1477.666667 7425.000000 -1433.000000 C 7454.333333 -1389.000000 7480.333333 -1347.333333 7503.000000 -1308.000000 C 7484.000000 -1298.333333 7465.000000 -1288.666667 7446.000000 -1279.000000 C 7425.333333 -1319.666667 7401.000000 -1362.000000 7373.000000 -1406.000000 C 7345.666667 -1450.666667 7320.000000 -1488.333333 7296.000000 -1519.000000 C 7314.000000 -1527.333333 7332.000000 -1535.666667 7350.000000 -1544.000000z "/>
</g></svg>
