<?xml version="1.0" ?>
<svg xmlns="http://www.w3.org/2000/svg" version="1.1" width="600" height="600">
  <defs/>
  <g>
    <path stroke-width="0" fill="rgb(0, 0, 0)" opacity="1.0" d="M 203.82952880859375 121.44699096679688 C 207.69808959960938 121.44699096679688 211.566650390625 121.44699096679688 215.43521118164062 121.44699096679688 C 215.43521118164062 137.2764892578125 215.43521118164062 153.10598754882812 215.43521118164062 168.93548583984375 C 211.566650390625 168.93548583984375 207.69808959960938 168.93548583984375 203.82952880859375 168.93548583984375 C 203.82952880859375 153.10598754882812 203.82952880859375 137.2764892578125 203.82952880859375 121.44699096679688M 127.77078247070312 161.26266479492188 C 182.8287353515625 161.26266479492188 237.88671875 161.26266479492188 292.9446716308594 161.26266479492188 C 292.9446716308594 165.13363647460938 292.9446716308594 169.00460815429688 292.9446716308594 172.87557983398438 C 237.88671875 172.87557983398438 182.8287353515625 172.87557983398438 127.77078247070312 172.87557983398438 C 127.77078247070312 169.00460815429688 127.77078247070312 165.13363647460938 127.77078247070312 161.26266479492188M 119.89547729492188 245.45623779296875 C 180.272705078125 245.45623779296875 240.64996337890625 245.45623779296875 301.0272216796875 245.45623779296875 C 301.0272216796875 249.39630126953125 301.0272216796875 253.33639526367188 301.0272216796875 257.2764892578125 C 240.64996337890625 257.2764892578125 180.272705078125 257.2764892578125 119.89547729492188 257.2764892578125 C 119.89547729492188 253.33639526367188 119.89547729492188 249.39630126953125 119.89547729492188 245.45623779296875M 151.81112670898438 340.0184326171875 C 191.60208129882812 340.0184326171875 231.39303588867188 340.0184326171875 271.1839904785156 340.0184326171875 C 271.1839904785156 343.889404296875 271.1839904785156 347.7603759765625 271.1839904785156 351.63134765625 C 231.39303588867188 351.63134765625 191.60208129882812 351.63134765625 151.81112670898438 351.63134765625 C 151.81112670898438 347.7603759765625 151.81112670898438 343.889404296875 151.81112670898438 340.0184326171875M 151.81112670898438 391.0322265625 C 191.60208129882812 391.0322265625 231.39303588867188 391.0322265625 271.1839904785156 391.0322265625 C 271.1839904785156 394.9031982421875 271.1839904785156 398.774169921875 271.1839904785156 402.6451416015625 C 231.39303588867188 402.6451416015625 191.60208129882812 402.6451416015625 151.81112670898438 402.6451416015625 C 151.81112670898438 398.774169921875 151.81112670898438 394.9031982421875 151.81112670898438 391.0322265625M 155.33428955078125 182.0 C 158.92654418945312 181.10137939453125 162.51876831054688 180.2027587890625 166.11102294921875 179.30413818359375 C 170.25588989257812 188.29031372070312 174.12445068359375 198.17510986328125 177.71670532226562 208.95852661132812 C 181.3089599609375 219.741943359375 183.7958984375 228.93548583984375 185.177490234375 236.5391845703125 C 181.3089599609375 237.64517211914062 177.44036865234375 238.75115966796875 173.57180786132812 239.85711669921875 C 172.60467529296875 232.11517333984375 170.39404296875 222.8525390625 166.94000244140625 212.06912231445312 C 163.48590087890625 201.1474609375 159.61734008789062 191.12442016601562 155.33428955078125 182.0M 257.09136962890625 178.05990600585938 C 260.9599304199219 179.64974975585938 264.8284912109375 181.2396240234375 268.69708251953125 182.82949829101562 C 264.9666748046875 192.64517211914062 260.9599304199219 202.87554931640625 256.6768798828125 213.520751953125 C 252.531982421875 224.1658935546875 248.5943603515625 233.4285888671875 244.86395263671875 241.30874633789062 C 241.54803466796875 239.85711669921875 238.23211669921875 238.405517578125 234.91619873046875 236.95391845703125 C 238.6466064453125 229.07373046875 242.6533203125 219.39630126953125 246.9364013671875 207.921630859375 C 251.35760498046875 196.44699096679688 254.74261474609375 186.49307250976562 257.09136962890625 178.05990600585938M 144.55758666992188 291.0783386230469 C 186.904541015625 291.0783386230469 229.25152587890625 291.0783386230469 271.5984802246094 291.0783386230469 C 271.5984802246094 294.9493103027344 271.5984802246094 298.82025146484375 271.5984802246094 302.69122314453125 C 233.12005615234375 302.69122314453125 194.64166259765625 302.69122314453125 156.16326904296875 302.69122314453125 C 156.16326904296875 361.58526611328125 156.16326904296875 420.479248046875 156.16326904296875 479.373291015625 C 152.29470825195312 479.373291015625 148.4261474609375 479.373291015625 144.55758666992188 479.373291015625 C 144.55758666992188 416.6082763671875 144.55758666992188 353.84332275390625 144.55758666992188 291.0783386230469M 266.4173583984375 291.0783386230469 C 270.21685791015625 291.0783386230469 274.016357421875 291.0783386230469 277.8158264160156 291.0783386230469 C 277.8158264160156 347.89862060546875 277.8158264160156 404.7188720703125 277.8158264160156 461.5391845703125 C 277.8158264160156 466.10137939453125 277.194091796875 469.626708984375 275.95062255859375 472.115234375 C 274.8453369140625 474.60369873046875 272.4274597167969 476.5391845703125 268.69708251953125 477.921630859375 C 264.6903381347656 478.889404296875 258.9565734863281 479.4423828125 251.49575805664062 479.5806884765625 C 244.17312622070312 479.7188720703125 234.77801513671875 479.78802490234375 223.31048583984375 479.78802490234375 C 223.0341796875 478.26727294921875 222.34335327148438 476.2626953125 221.23806762695312 473.774169921875 C 220.27090454101562 471.4239501953125 219.23468017578125 469.3502197265625 218.12939453125 467.552978515625 C 228.7679443359375 467.8294677734375 237.74853515625 468.036865234375 245.0711669921875 468.17510986328125 C 252.393798828125 468.3133544921875 257.36767578125 468.2442626953125 259.9927978515625 467.9677734375 C 262.6178894042969 467.6912841796875 264.34490966796875 467.13824462890625 265.17388916015625 466.3087158203125 C 266.00286865234375 465.479248046875 266.4173583984375 463.889404296875 266.4173583984375 461.5391845703125 C 266.4173583984375 404.7188720703125 266.4173583984375 347.89862060546875 266.4173583984375 291.0783386230469M 330.87042236328125 157.32257080078125 C 379.020263671875 157.32257080078125 427.1700439453125 157.32257080078125 475.31988525390625 157.32257080078125 C 475.31988525390625 161.19354248046875 475.31988525390625 165.06451416015625 475.31988525390625 168.93548583984375 C 427.1700439453125 168.93548583984375 379.020263671875 168.93548583984375 330.87042236328125 168.93548583984375 C 330.87042236328125 165.06451416015625 330.87042236328125 161.19354248046875 330.87042236328125 157.32257080078125M 331.284912109375 319.07373046875 C 373.56280517578125 319.07373046875 415.8406982421875 319.07373046875 458.1185302734375 319.07373046875 C 458.1185302734375 322.87554931640625 458.1185302734375 326.67742919921875 458.1185302734375 330.479248046875 C 415.8406982421875 330.479248046875 373.56280517578125 330.479248046875 331.284912109375 330.479248046875 C 331.284912109375 326.67742919921875 331.284912109375 322.87554931640625 331.284912109375 319.07373046875M 330.87042236328125 363.2442626953125 C 372.45751953125 363.2442626953125 414.0445556640625 363.2442626953125 455.63165283203125 363.2442626953125 C 455.63165283203125 367.184326171875 455.63165283203125 371.1243896484375 455.63165283203125 375.06451416015625 C 414.0445556640625 375.06451416015625 372.45751953125 375.06451416015625 330.87042236328125 375.06451416015625 C 330.87042236328125 371.1243896484375 330.87042236328125 367.184326171875 330.87042236328125 363.2442626953125M 331.284912109375 410.110595703125 C 374.115478515625 410.110595703125 416.946044921875 410.110595703125 459.7764892578125 410.110595703125 C 459.7764892578125 413.9815673828125 459.7764892578125 417.8525390625 459.7764892578125 421.7235107421875 C 416.946044921875 421.7235107421875 374.115478515625 421.7235107421875 331.284912109375 421.7235107421875 C 331.284912109375 417.8525390625 331.284912109375 413.9815673828125 331.284912109375 410.110595703125M 325.27484130859375 121.03225708007812 C 329.0743408203125 121.03225708007812 332.873779296875 121.03225708007812 336.67327880859375 121.03225708007812 C 336.67327880859375 153.3133544921875 336.67327880859375 185.594482421875 336.67327880859375 217.87554931640625 C 332.873779296875 217.87554931640625 329.0743408203125 217.87554931640625 325.27484130859375 217.87554931640625 C 325.27484130859375 185.594482421875 325.27484130859375 153.3133544921875 325.27484130859375 121.03225708007812M 325.27484130859375 211.86175537109375 C 369.8323974609375 211.86175537109375 414.3900146484375 211.86175537109375 458.947509765625 211.86175537109375 C 458.947509765625 236.331787109375 458.947509765625 260.80181884765625 458.947509765625 285.2718811035156 C 414.3900146484375 285.2718811035156 369.8323974609375 285.2718811035156 325.27484130859375 285.2718811035156 C 325.27484130859375 281.4009094238281 325.27484130859375 277.52996826171875 325.27484130859375 273.65899658203125 C 365.82568359375 273.65899658203125 406.37652587890625 273.65899658203125 446.9273681640625 273.65899658203125 C 446.9273681640625 257.0691223144531 446.9273681640625 240.479248046875 446.9273681640625 223.889404296875 C 406.37652587890625 223.889404296875 365.82568359375 223.889404296875 325.27484130859375 223.889404296875 C 325.27484130859375 219.88018798828125 325.27484130859375 215.8709716796875 325.27484130859375 211.86175537109375M 325.27484130859375 281.95391845703125 C 329.0743408203125 281.95391845703125 332.873779296875 281.95391845703125 336.67327880859375 281.95391845703125 C 336.67327880859375 338.4976806640625 336.67327880859375 395.04150390625 336.67327880859375 451.58526611328125 C 336.67327880859375 457.115234375 338.19305419921875 460.847900390625 341.232666015625 462.783447265625 C 344.410400390625 464.857177734375 351.5257568359375 465.89404296875 362.578857421875 465.89404296875 C 365.20391845703125 465.89404296875 370.4541015625 465.89404296875 378.3294677734375 465.89404296875 C 386.2047119140625 465.89404296875 394.97808837890625 465.89404296875 404.64947509765625 465.89404296875 C 414.3209228515625 465.89404296875 423.37060546875 465.89404296875 431.79852294921875 465.89404296875 C 440.3646240234375 465.89404296875 446.374755859375 465.89404296875 449.82879638671875 465.89404296875 C 454.80267333984375 465.89404296875 458.6021728515625 464.995361328125 461.22723388671875 463.1981201171875 C 463.990478515625 461.5391845703125 465.855712890625 458.22119140625 466.8228759765625 453.2442626953125 C 467.92816162109375 448.405517578125 468.61895751953125 441.216552734375 468.895263671875 431.67742919921875 C 470.41510009765625 432.783447265625 472.2802734375 433.8203125 474.49090576171875 434.78802490234375 C 476.83966064453125 435.6175537109375 478.912109375 436.3087158203125 480.708251953125 436.86175537109375 C 480.293701171875 447.50689697265625 479.18841552734375 455.8018798828125 477.392333984375 461.74658203125 C 475.734375 467.6912841796875 472.76385498046875 471.8387451171875 468.4808349609375 474.18896484375 C 464.19775390625 476.67742919921875 457.98040771484375 477.921630859375 449.82879638671875 477.921630859375 C 448.4471435546875 477.921630859375 444.85491943359375 477.921630859375 439.05206298828125 477.921630859375 C 433.249267578125 477.921630859375 426.41015625 477.921630859375 418.53485107421875 477.921630859375 C 410.6595458984375 477.921630859375 402.7152099609375 477.921630859375 394.7017822265625 477.921630859375 C 386.826416015625 477.921630859375 380.05645751953125 477.921630859375 374.39178466796875 477.921630859375 C 368.72705078125 477.921630859375 365.20391845703125 477.921630859375 363.822265625 477.921630859375 C 353.7364501953125 477.921630859375 345.861083984375 477.23040771484375 340.1964111328125 475.847900390625 C 334.669921875 474.60369873046875 330.80133056640625 472.04608154296875 328.5906982421875 468.17510986328125 C 326.380126953125 464.30413818359375 325.27484130859375 458.635986328125 325.27484130859375 451.1705322265625 C 325.27484130859375 394.7650146484375 325.27484130859375 338.35943603515625 325.27484130859375 281.95391845703125"/>
  </g>
</svg>
