<?xml version="1.0" ?>
<svg xmlns="http://www.w3.org/2000/svg" version="1.1" width="600" height="600">
  <defs/>
  <g>
    <path stroke-width="0" fill="rgb(0, 0, 0)" opacity="1.0" d="M 179.63330078125 166.48648071289062 C 181.390625 166.75677490234375 184.90380859375 167.02700805664062 190.173828125 167.29730224609375 C 195.5791015625 167.56756591796875 201.0517578125 167.77029418945312 206.591796875 167.9053955078125 C 212.1318359375 168.04052734375 216.11865234375 168.10812377929688 218.55078125 168.10812377929688 C 220.84814453125 168.10812377929688 226.1181640625 168.10812377929688 234.361328125 168.10812377929688 C 242.73876953125 168.10812377929688 252.806640625 168.10812377929688 264.5625 168.10812377929688 C 276.45458984375 168.10812377929688 289.0888671875 168.10812377929688 302.466796875 168.10812377929688 C 315.97998046875 168.10812377929688 329.35791015625 168.10812377929688 342.60009765625 168.10812377929688 C 355.8427734375 168.10812377929688 367.86962890625 168.10812377929688 378.68017578125 168.10812377929688 C 389.62548828125 168.10812377929688 398.34130859375 168.10812377929688 404.82763671875 168.10812377929688 C 410.09765625 168.10812377929688 414.287109375 168.04052734375 417.39453125 167.9053955078125 C 420.50244140625 167.77029418945312 423.34033203125 167.56756591796875 425.90771484375 167.29730224609375 C 425.6376953125 169.3243408203125 425.50244140625 171.28378295898438 425.50244140625 173.17568969726562 C 425.50244140625 174.93243408203125 425.50244140625 178.04052734375 425.50244140625 182.5 C 425.50244140625 184.79730224609375 425.50244140625 191.14862060546875 425.50244140625 201.5540771484375 C 425.50244140625 211.95947265625 425.50244140625 224.729736328125 425.50244140625 239.8648681640625 C 425.50244140625 255.0 425.50244140625 271.2837829589844 425.50244140625 288.7161865234375 C 425.50244140625 306.148681640625 425.50244140625 323.310791015625 425.50244140625 340.20269775390625 C 425.50244140625 356.95947265625 425.50244140625 372.0946044921875 425.50244140625 385.60809326171875 C 425.50244140625 399.12158203125 425.50244140625 409.66217041015625 425.50244140625 417.229736328125 C 425.50244140625 421.2838134765625 425.56982421875 424.5946044921875 425.705078125 427.16217041015625 C 425.8408203125 429.5946044921875 426.04345703125 432.229736328125 426.3134765625 435.06756591796875 C 422.056640625 435.06756591796875 417.80029296875 435.06756591796875 413.54345703125 435.06756591796875 C 413.8134765625 433.7161865234375 413.94873046875 432.3648681640625 413.94873046875 431.0135498046875 C 413.94873046875 429.79730224609375 413.94873046875 428.1756591796875 413.94873046875 426.148681640625 C 413.94873046875 423.9864501953125 413.94873046875 421.2161865234375 413.94873046875 417.83782958984375 C 413.94873046875 409.0540771484375 413.94873046875 397.5 413.94873046875 383.1756591796875 C 413.94873046875 368.7161865234375 413.94873046875 352.97296142578125 413.94873046875 335.9459228515625 C 413.94873046875 318.7838134765625 413.94873046875 301.4864501953125 413.94873046875 284.0540771484375 C 413.94873046875 266.62164306640625 413.94873046875 250.4053955078125 413.94873046875 235.4053955078125 C 413.94873046875 220.4053955078125 413.94873046875 207.9053955078125 413.94873046875 197.9053955078125 C 413.94873046875 187.9053955078125 413.94873046875 181.8243408203125 413.94873046875 179.66217041015625 C 411.78662109375 179.66217041015625 405.84130859375 179.66217041015625 396.11181640625 179.66217041015625 C 386.38232421875 179.66217041015625 374.55859375 179.66217041015625 360.64013671875 179.66217041015625 C 346.85693359375 179.66217041015625 332.1953125 179.66217041015625 316.6552734375 179.66217041015625 C 301.25048828125 179.66217041015625 286.52099609375 179.66217041015625 272.4677734375 179.66217041015625 C 258.54931640625 179.66217041015625 246.658203125 179.66217041015625 236.79345703125 179.66217041015625 C 226.9287109375 179.66217041015625 220.84814453125 179.66217041015625 218.55078125 179.66217041015625 C 216.11865234375 179.66217041015625 212.1318359375 179.729736328125 206.591796875 179.8648681640625 C 201.0517578125 180.0 195.5791015625 180.1351318359375 190.173828125 180.270263671875 C 184.90380859375 180.4053955078125 181.390625 180.60809326171875 179.63330078125 180.87838745117188 C 179.63330078125 176.08108520507812 179.63330078125 171.28378295898438 179.63330078125 166.48648071289062M 188.55224609375 281.0135192871094 C 191.9306640625 281.2837829589844 196.5927734375 281.689208984375 202.5380859375 282.229736328125 C 208.4833984375 282.6351318359375 214.9697265625 282.83782958984375 221.99658203125 282.83782958984375 C 226.4560546875 282.83782958984375 234.02294921875 282.83782958984375 244.69873046875 282.83782958984375 C 255.5087890625 282.83782958984375 268.00830078125 282.83782958984375 282.197265625 282.83782958984375 C 296.52099609375 282.83782958984375 311.25 282.83782958984375 326.384765625 282.83782958984375 C 341.654296875 282.83782958984375 356.11376953125 282.83782958984375 369.76123046875 282.83782958984375 C 383.54443359375 282.83782958984375 395.16552734375 282.83782958984375 404.625 282.83782958984375 C 414.21875 282.83782958984375 420.1650390625 282.83782958984375 422.4619140625 282.83782958984375 C 422.4619140625 286.75677490234375 422.4619140625 290.6756591796875 422.4619140625 294.5946044921875 C 420.1650390625 294.5946044921875 414.21875 294.5946044921875 404.625 294.5946044921875 C 395.16552734375 294.5946044921875 383.61181640625 294.5946044921875 369.9638671875 294.5946044921875 C 356.45068359375 294.5946044921875 341.9921875 294.5946044921875 326.58740234375 294.5946044921875 C 311.31787109375 294.5946044921875 296.58837890625 294.5946044921875 282.39990234375 294.5946044921875 C 268.3466796875 294.5946044921875 255.982421875 294.5946044921875 245.306640625 294.5946044921875 C 234.7666015625 294.5946044921875 227.26708984375 294.5946044921875 222.8076171875 294.5946044921875 C 215.5107421875 294.5946044921875 209.0244140625 294.66217041015625 203.3486328125 294.79730224609375 C 197.67333984375 294.93243408203125 192.7412109375 295.1351318359375 188.55224609375 295.4053955078125 C 188.55224609375 290.60809326171875 188.55224609375 285.810791015625 188.55224609375 281.0135192871094M 173.75537109375 401.62158203125 C 177.40380859375 401.89190673828125 182.6064453125 402.229736328125 189.36279296875 402.6351318359375 C 196.119140625 403.04052734375 203.484375 403.2432861328125 211.45654296875 403.2432861328125 C 215.64599609375 403.2432861328125 223.1455078125 403.2432861328125 233.95556640625 403.2432861328125 C 244.9013671875 403.2432861328125 257.6708984375 403.2432861328125 272.26513671875 403.2432861328125 C 286.99462890625 403.2432861328125 302.26416015625 403.2432861328125 318.07421875 403.2432861328125 C 333.88427734375 403.2432861328125 349.01904296875 403.2432861328125 363.47802734375 403.2432861328125 C 378.07177734375 403.2432861328125 390.7060546875 403.2432861328125 401.3818359375 403.2432861328125 C 412.05712890625 403.2432861328125 419.21875 403.2432861328125 422.86767578125 403.2432861328125 C 422.86767578125 407.0946044921875 422.86767578125 410.9459228515625 422.86767578125 414.79730224609375 C 419.21875 414.79730224609375 412.12451171875 414.79730224609375 401.58447265625 414.79730224609375 C 391.04443359375 414.79730224609375 378.47705078125 414.79730224609375 363.88330078125 414.79730224609375 C 349.4248046875 414.79730224609375 334.28955078125 414.79730224609375 318.4794921875 414.79730224609375 C 302.66943359375 414.79730224609375 287.39990234375 414.79730224609375 272.67041015625 414.79730224609375 C 258.07666015625 414.79730224609375 245.306640625 414.79730224609375 234.361328125 414.79730224609375 C 223.55126953125 414.79730224609375 216.05126953125 414.79730224609375 211.86181640625 414.79730224609375 C 203.61865234375 414.79730224609375 196.119140625 414.93243408203125 189.36279296875 415.20269775390625 C 182.6064453125 415.47296142578125 177.40380859375 415.7432861328125 173.75537109375 416.0135498046875 C 173.75537109375 411.2161865234375 173.75537109375 406.4189453125 173.75537109375 401.62158203125"/>
  </g>
</svg>
