<?xml version="1.0" encoding="utf-8"?>
<svg xmlns="http://www.w3.org/2000/svg" xmlns:ev="http://www.w3.org/2001/xml-events" xmlns:xlink="http://www.w3.org/1999/xlink" version="1.1" baseProfile="full" width="5184.0" height="1536.0" viewBox="361.0 -1473.0 5184.0 1536.0">
<defs/>
<g><path d="M 1450.000000 -649.000000 C 1450.000000 -715.666667 1433.333333 -773.000000 1400.000000 -821.000000 C 1366.666667 -869.000000 1321.333333 -906.333333 1264.000000 -933.000000 C 1207.333333 -959.666667 1143.000000 -973.000000 1071.000000 -973.000000 C 993.000000 -973.000000 920.666667 -967.333333 854.000000 -956.000000 C 788.000000 -944.666667 727.333333 -931.333333 672.000000 -916.000000 C 616.666667 -900.666667 567.333333 -886.666667 524.000000 -874.000000 C 492.000000 -864.666667 465.666667 -856.000000 445.000000 -848.000000 C 425.000000 -840.666667 405.333333 -833.333333 386.000000 -826.000000 C 377.666667 -852.000000 369.333333 -878.000000 361.000000 -904.000000 C 383.000000 -906.666667 405.666667 -910.333333 429.000000 -915.000000 C 453.000000 -919.666667 478.333333 -924.333333 505.000000 -929.000000 C 548.333333 -939.666667 600.000000 -952.666667 660.000000 -968.000000 C 720.666667 -983.333333 786.333333 -997.000000 857.000000 -1009.000000 C 928.333333 -1021.000000 999.666667 -1027.000000 1071.000000 -1027.000000 C 1151.666667 -1027.000000 1225.000000 -1012.666667 1291.000000 -984.000000 C 1357.000000 -955.333333 1409.000000 -912.666667 1447.000000 -856.000000 C 1485.666667 -800.000000 1505.000000 -730.333333 1505.000000 -647.000000 C 1505.000000 -542.333333 1484.000000 -450.000000 1442.000000 -370.000000 C 1400.000000 -290.000000 1341.000000 -221.000000 1265.000000 -163.000000 C 1189.666667 -105.666667 1102.000000 -58.333333 1002.000000 -21.000000 C 902.000000 16.333333 794.666667 44.333333 680.000000 63.000000 C 667.000000 46.000000 654.000000 29.000000 641.000000 12.000000 C 755.000000 -4.000000 861.000000 -29.333333 959.000000 -64.000000 C 1057.000000 -99.333333 1142.666667 -143.666667 1216.000000 -197.000000 C 1290.000000 -251.000000 1347.333333 -315.666667 1388.000000 -391.000000 C 1429.333333 -467.000000 1450.000000 -553.000000 1450.000000 -649.000000z M 591.000000 -1457.000000 C 641.000000 -1445.666667 701.000000 -1434.333333 771.000000 -1423.000000 C 841.000000 -1412.333333 913.000000 -1402.666667 987.000000 -1394.000000 C 1061.000000 -1386.000000 1131.000000 -1379.333333 1197.000000 -1374.000000 C 1263.000000 -1369.333333 1317.666667 -1366.333333 1361.000000 -1365.000000 C 1358.000000 -1345.333333 1355.000000 -1325.666667 1352.000000 -1306.000000 C 1302.000000 -1309.333333 1243.666667 -1314.000000 1177.000000 -1320.000000 C 1110.333333 -1326.000000 1041.000000 -1333.000000 969.000000 -1341.000000 C 897.666667 -1349.666667 828.333333 -1358.666667 761.000000 -1368.000000 C 693.666667 -1377.333333 633.333333 -1386.666667 580.000000 -1396.000000 C 583.666667 -1416.333333 587.333333 -1436.666667 591.000000 -1457.000000z "/>
</g></svg>
