<?xml version="1.0" ?>
<svg xmlns="http://www.w3.org/2000/svg" version="1.1" width="600" height="600">
  <defs/>
  <g>
    <path stroke-width="0" fill="rgb(0, 0, 0)" opacity="1.0" d="M 195.18798828125 256.986328125 C 198.9525146484375 257.876220703125 202.717041015625 258.76611328125 206.4815673828125 259.656005859375 C 197.85736083984375 283.34112548828125 186.8375244140625 305.520263671875 173.422119140625 326.193359375 C 160.00665283203125 346.86651611328125 145.564453125 364.3907470703125 130.095703125 378.76611328125 C 129.548095703125 378.218505859375 128.58984375 377.6024169921875 127.220947265625 376.9178466796875 C 125.9888916015625 376.096435546875 124.6199951171875 375.20654296875 123.1141357421875 374.2481689453125 C 121.7452392578125 373.289794921875 120.51324462890625 372.605224609375 119.4180908203125 372.19451904296875 C 135.708251953125 358.2298583984375 150.355712890625 341.11639404296875 163.3604736328125 320.85400390625 C 176.365234375 300.591552734375 186.97442626953125 279.3023681640625 195.18798828125 256.986328125M 400.93701171875 262.120361328125 C 404.0855712890625 260.81976318359375 407.23406982421875 259.51910400390625 410.38262939453125 258.218505859375 C 420.6495361328125 270.81402587890625 430.57421875 284.57330322265625 440.15673828125 299.49627685546875 C 449.7391357421875 314.2823486328125 458.2264404296875 328.794677734375 465.61865234375 343.0330810546875 C 473.0107421875 357.1346435546875 478.554931640625 369.73016357421875 482.2509765625 380.8197021484375 C 478.69189453125 382.3941650390625 475.132568359375 383.9686279296875 471.573486328125 385.5430908203125 C 468.151123046875 374.4534912109375 462.743896484375 361.78948974609375 455.3516845703125 347.551025390625 C 447.95947265625 333.17572021484375 439.5406494140625 318.52655029296875 430.0950927734375 303.603515625 C 420.6495361328125 288.54364013671875 410.93017578125 274.7159118652344 400.93701171875 262.120361328125M 296.00909423828125 121.65261840820312 C 299.97894287109375 121.65261840820312 303.9488525390625 121.65261840820312 307.91876220703125 121.65261840820312 C 307.91876220703125 148.34970092773438 307.91876220703125 175.04678344726562 307.91876220703125 201.743896484375 C 303.9488525390625 201.743896484375 299.97894287109375 201.743896484375 296.00909423828125 201.743896484375 C 296.00909423828125 175.04678344726562 296.00909423828125 148.34970092773438 296.00909423828125 121.65261840820312M 131.32769775390625 196.1990966796875 C 245.495849609375 196.1990966796875 359.66400146484375 196.1990966796875 473.8321533203125 196.1990966796875 C 473.8321533203125 200.03253173828125 473.8321533203125 203.865966796875 473.8321533203125 207.69940185546875 C 359.66400146484375 207.69940185546875 245.495849609375 207.69940185546875 131.32769775390625 207.69940185546875 C 131.32769775390625 203.865966796875 131.32769775390625 200.03253173828125 131.32769775390625 196.1990966796875M 351.65582275390625 201.3331298828125 C 355.62567138671875 201.3331298828125 359.5955810546875 201.3331298828125 363.5654296875 201.3331298828125 C 363.5654296875 286.0108337402344 363.5654296875 370.68853759765625 363.5654296875 455.3662109375 C 363.5654296875 461.66400146484375 362.4703369140625 466.1820068359375 360.280029296875 468.920166015625 C 358.22662353515625 471.6583251953125 354.8043212890625 473.57501220703125 350.01312255859375 474.6702880859375 C 345.0849609375 475.628662109375 337.3505859375 476.2447509765625 326.80987548828125 476.5185546875 C 316.2691650390625 476.7923583984375 302.44305419921875 476.92926025390625 285.33154296875 476.92926025390625 C 284.92083740234375 475.42327880859375 284.23638916015625 473.4381103515625 283.27813720703125 470.9737548828125 C 282.31988525390625 468.6463623046875 281.2247314453125 466.59271240234375 279.99273681640625 464.8128662109375 C 290.12274169921875 465.086669921875 299.43145751953125 465.2921142578125 307.91876220703125 465.428955078125 C 316.54296875 465.56591796875 323.86669921875 465.56591796875 329.88995361328125 465.428955078125 C 336.05010986328125 465.2921142578125 340.29376220703125 465.2236328125 342.62091064453125 465.2236328125 C 346.3170166015625 464.9498291015625 348.712646484375 464.12835693359375 349.80780029296875 462.75927734375 C 351.039794921875 461.527099609375 351.65582275390625 459.19964599609375 351.65582275390625 455.7769775390625 C 351.65582275390625 370.96234130859375 351.65582275390625 286.14776611328125 351.65582275390625 201.3331298828125M 254.325439453125 200.51171875 C 258.0899658203125 200.51171875 261.8544921875 200.51171875 265.6190185546875 200.51171875 C 265.6190185546875 220.50030517578125 265.6190185546875 240.4888916015625 265.6190185546875 260.47747802734375 C 265.6190185546875 278.13861083984375 264.6607666015625 296.347412109375 262.7442626953125 315.10382080078125 C 260.82781982421875 333.8602294921875 256.51568603515625 352.822021484375 249.8079833984375 371.9891357421875 C 243.1002197265625 391.0194091796875 232.97021484375 409.638916015625 219.4178466796875 427.84765625 C 205.86553955078125 445.9195556640625 187.52197265625 463.1015625 164.38720703125 479.39361572265625 C 163.839599609375 478.29833984375 163.01824951171875 477.27154541015625 161.923095703125 476.31317138671875 C 160.96484375 475.49169921875 159.93817138671875 474.601806640625 158.843017578125 473.6434326171875 C 157.7479248046875 472.68511962890625 156.85809326171875 471.93212890625 156.17364501953125 471.384521484375 C 178.7608642578125 455.6400146484375 196.6937255859375 438.937255859375 209.9722900390625 421.276123046875 C 223.25091552734375 403.47802734375 233.03863525390625 385.4061279296875 239.335693359375 367.06048583984375 C 245.63275146484375 348.577880859375 249.67108154296875 330.36907958984375 251.45068359375 312.43408203125 C 253.36712646484375 294.36224365234375 254.325439453125 277.0433654785156 254.325439453125 260.47747802734375 C 254.325439453125 240.4888916015625 254.325439453125 220.50030517578125 254.325439453125 200.51171875"/>
  </g>
</svg>
