<?xml version="1.0" ?>
<svg xmlns="http://www.w3.org/2000/svg" version="1.1" width="600" height="600">
  <defs/>
  <g>
    <path stroke-width="0" fill="rgb(0, 0, 0)" opacity="1.0" d="M 194.483154296875 167.44039916992188 C 285.865966796875 167.44039916992188 377.24871826171875 167.44039916992188 468.631591796875 167.44039916992188 C 468.631591796875 171.44732666015625 468.631591796875 175.4542236328125 468.631591796875 179.46115112304688 C 377.24871826171875 179.46115112304688 285.865966796875 179.46115112304688 194.483154296875 179.46115112304688 C 194.483154296875 175.4542236328125 194.483154296875 171.44732666015625 194.483154296875 167.44039916992188M 198.834716796875 223.19171142578125 C 275.50506591796875 223.19171142578125 352.17547607421875 223.19171142578125 428.8458251953125 223.19171142578125 C 428.8458251953125 227.0604248046875 428.8458251953125 230.92919921875 428.8458251953125 234.79791259765625 C 352.17547607421875 234.79791259765625 275.50506591796875 234.79791259765625 198.834716796875 234.79791259765625 C 198.834716796875 230.92919921875 198.834716796875 227.0604248046875 198.834716796875 223.19171142578125M 154.69744873046875 278.52850341796875 C 237.998779296875 278.52850341796875 321.30010986328125 278.52850341796875 404.60137939453125 278.52850341796875 C 404.60137939453125 282.397216796875 404.60137939453125 286.2659912109375 404.60137939453125 290.13470458984375 C 321.30010986328125 290.13470458984375 237.998779296875 290.13470458984375 154.69744873046875 290.13470458984375 C 154.69744873046875 286.2659912109375 154.69744873046875 282.397216796875 154.69744873046875 278.52850341796875M 209.6099853515625 121.63729858398438 C 213.75439453125 122.6044921875 217.898681640625 123.57168579101562 222.04302978515625 124.53884887695312 C 212.2347412109375 154.24526977539062 199.66357421875 181.81002807617188 184.3294677734375 207.233154296875 C 169.13360595703125 232.51812744140625 152.2799072265625 254.00347900390625 133.76849365234375 271.6891174316406 C 133.2159423828125 270.860107421875 132.2489013671875 269.9620056152344 130.867431640625 268.99481201171875 C 129.6241455078125 267.88946533203125 128.24273681640625 266.85321044921875 126.72314453125 265.885986328125 C 125.2034912109375 264.7806396484375 123.960205078125 263.95166015625 122.99322509765625 263.3989562988281 C 141.7808837890625 246.40414428710938 158.63458251953125 225.60968017578125 173.55419921875 201.01556396484375 C 188.61199951171875 176.28323364257812 200.630615234375 149.82382202148438 209.6099853515625 121.63729858398438M 324.61553955078125 301.94818115234375 C 328.20733642578125 303.26080322265625 331.79913330078125 304.57342529296875 335.390869140625 305.885986328125 C 320.609375 331.44732666015625 302.85772705078125 355.07427978515625 282.13604736328125 376.766845703125 C 261.414306640625 398.32122802734375 238.9658203125 417.7340087890625 214.7904052734375 435.00518798828125 C 190.75323486328125 452.13818359375 165.54180908203125 467.1986083984375 139.1561279296875 480.1865234375 C 138.74169921875 479.4957275390625 137.98193359375 478.52850341796875 136.87677001953125 477.28497314453125 C 135.7716064453125 476.04144287109375 134.597412109375 474.86700439453125 133.35406494140625 473.76165771484375 C 132.2489013671875 472.79443359375 131.14373779296875 471.8963623046875 130.03857421875 471.0673828125 C 156.5623779296875 458.908447265625 181.9810791015625 444.40069580078125 206.2945556640625 427.5440673828125 C 230.6080322265625 410.6873779296875 252.849365234375 391.6890869140625 273.01849365234375 370.5491943359375 C 293.32574462890625 349.2711181640625 310.5247802734375 326.4041748046875 324.61553955078125 301.94818115234375M 398.17767333984375 278.52850341796875 C 402.0457763671875 278.52850341796875 405.91375732421875 278.52850341796875 409.7818603515625 278.52850341796875 C 410.33441162109375 306.162353515625 411.163330078125 331.58544921875 412.2684326171875 354.79791259765625 C 413.51171875 378.0103759765625 415.72210693359375 398.114013671875 418.8994140625 415.1087646484375 C 422.07672119140625 431.9654541015625 426.56640625 445.091552734375 432.3685302734375 454.487060546875 C 438.308837890625 464.020751953125 445.90673828125 468.78759765625 455.162353515625 468.78759765625 C 459.9974365234375 468.78759765625 463.1748046875 463.26080322265625 464.6943359375 452.207275390625 C 466.35205078125 441.1536865234375 467.25 426.78411865234375 467.38818359375 409.09844970703125 C 468.769775390625 410.065673828125 470.5655517578125 411.0328369140625 472.77587890625 412.0 C 475.124267578125 412.9671630859375 476.920166015625 413.72711181640625 478.16357421875 414.27978515625 C 477.61083984375 430.998291015625 476.5748291015625 444.1243896484375 475.05517578125 453.65802001953125 C 473.673828125 463.19171142578125 471.3944091796875 469.8238525390625 468.217041015625 473.554443359375 C 465.039794921875 477.42315673828125 460.411865234375 479.4957275390625 454.33349609375 479.77203369140625 C 442.453125 479.77203369140625 432.85205078125 475.143310546875 425.53033447265625 465.885986328125 C 418.20867919921875 456.628662109375 412.682861328125 443.29534912109375 408.95294189453125 425.885986328125 C 405.22308349609375 408.4766845703125 402.5982666015625 387.4058837890625 401.0787353515625 362.673583984375 C 399.697265625 337.8031005859375 398.73028564453125 309.7547607421875 398.17767333984375 278.52850341796875M 173.55419921875 329.09844970703125 C 176.31707763671875 326.68048095703125 179.08001708984375 324.26251220703125 181.8428955078125 321.84454345703125 C 198.2821044921875 330.8255615234375 214.8594970703125 340.91192626953125 231.57501220703125 352.1036376953125 C 248.29058837890625 363.29534912109375 264.4534912109375 374.83245849609375 280.0638427734375 386.71502685546875 C 295.6741943359375 398.45941162109375 310.04132080078125 410.20379638671875 323.1650390625 421.94818115234375 C 336.42694091796875 433.554443359375 347.40948486328125 444.46978759765625 356.11260986328125 454.6943359375 C 353.0733642578125 457.5267333984375 350.03424072265625 460.3592529296875 346.9949951171875 463.19171142578125 C 338.15374755859375 452.8289794921875 327.2403564453125 441.8446044921875 314.25469970703125 430.23834228515625 C 301.26904296875 418.49395751953125 286.9710693359375 406.61138916015625 271.3607177734375 394.5906982421875 C 255.7503662109375 382.4317626953125 239.58746337890625 370.7564697265625 222.87188720703125 359.56475830078125 C 206.1563720703125 348.23486328125 189.7171630859375 338.0794677734375 173.55419921875 329.09844970703125"/>
  </g>
</svg>
