<?xml version="1.0" ?>
<svg xmlns="http://www.w3.org/2000/svg" version="1.1" width="600" height="600">
  <defs/>
  <g>
    <path stroke-width="0" fill="rgb(0, 0, 0)" opacity="1.0" d="M 256.9248046875 145.1446533203125 C 256.6494140625 147.21124267578125 256.304931640625 149.41558837890625 255.8916015625 151.75775146484375 C 255.478271484375 153.96209716796875 254.996337890625 156.51089477539062 254.4453125 159.40411376953125 C 254.031982421875 162.84841918945312 253.13671875 169.11709594726562 251.759033203125 178.2100830078125 C 250.38134765625 187.3031005859375 248.728271484375 197.3604736328125 246.7998046875 208.38232421875 C 245.009033203125 219.40411376953125 242.942626953125 229.80596923828125 240.60107421875 239.58782958984375 C 237.708251953125 250.609619140625 234.402099609375 262.733642578125 230.6826171875 275.9598083496094 C 226.96337890625 289.18597412109375 222.6240234375 303.169921875 217.6650390625 317.91162109375 C 212.84375 332.5155029296875 207.33349609375 347.6015625 201.134521484375 363.169921875 C 194.935546875 378.6004638671875 187.91015625 394.2376708984375 180.058349609375 410.08154296875 C 172.343994140625 425.9254150390625 163.5966796875 441.7003173828125 153.816162109375 457.40643310546875 C 149.545654296875 455.68426513671875 145.275390625 453.96209716796875 141.0048828125 452.239990234375 C 149.8212890625 440.8048095703125 158.086669921875 427.7164306640625 165.80078125 412.9747314453125 C 173.652587890625 398.09527587890625 180.884765625 382.5958251953125 187.496826171875 366.4764404296875 C 194.109130859375 350.3570556640625 200.101318359375 334.4443359375 205.473876953125 318.73822021484375 C 210.98388671875 302.89434814453125 215.5986328125 288.29046630859375 219.318115234375 274.926513671875 C 223.17529296875 261.4248046875 226.20556640625 249.85189819335938 228.40966796875 240.20779418945312 C 232.129150390625 226.56829833984375 235.29736328125 211.0 237.914794921875 193.50286865234375 C 240.5322265625 176.0057373046875 241.978515625 159.4730224609375 242.254150390625 143.90469360351562 C 247.144287109375 144.31802368164062 252.034423828125 144.7313232421875 256.9248046875 145.1446533203125M 393.301025390625 192.67623901367188 C 399.6376953125 200.115966796875 406.387451171875 209.691162109375 413.55078125 221.40182495117188 C 420.714111328125 232.9747314453125 427.808349609375 245.374267578125 434.833740234375 258.6004638671875 C 441.859130859375 271.8266296386719 448.33349609375 284.57061767578125 454.257080078125 296.8323669433594 C 460.180419921875 309.0941162109375 464.864013671875 319.77154541015625 468.307861328125 328.864501953125 C 464.588623046875 330.7933349609375 460.869140625 332.72216796875 457.14990234375 334.6510009765625 C 453.9814453125 325.420166015625 449.642333984375 314.60504150390625 444.132080078125 302.20550537109375 C 438.621826171875 289.80596923828125 432.4228515625 277.0619812011719 425.535400390625 263.97357177734375 C 418.647705078125 250.88519287109375 411.55322265625 238.6234130859375 404.25244140625 227.18829345703125 C 396.951416015625 215.6153564453125 389.857177734375 206.10906982421875 382.969482421875 198.66934204101562 C 386.413330078125 196.671630859375 389.857177734375 194.67391967773438 393.301025390625 192.67623901367188M 131.913330078125 237.9345703125 C 137.14794921875 238.2100830078125 141.900390625 238.34786987304688 146.1708984375 238.34786987304688 C 150.44140625 238.34786987304688 155.19384765625 238.2100830078125 160.42822265625 237.9345703125 C 166.076171875 237.65899658203125 173.583984375 237.17681884765625 182.951171875 236.48794555664062 C 192.318359375 235.799072265625 202.5810546875 235.04132080078125 213.739013671875 234.21469116210938 C 225.034912109375 233.25030517578125 236.19287109375 232.354736328125 247.213134765625 231.52813720703125 C 258.2333984375 230.563720703125 268.28955078125 229.73709106445312 277.38134765625 229.0482177734375 C 286.472900390625 228.35934448242188 293.4296875 228.01492309570312 298.2509765625 228.01492309570312 C 308.03125 228.01492309570312 317.192138671875 229.39263916015625 325.732666015625 232.14810180664062 C 334.2734375 234.903564453125 341.298828125 240.48333740234375 346.80908203125 248.88748168945312 C 352.45703125 257.1538391113281 355.281005859375 269.62225341796875 355.281005859375 286.2927551269531 C 355.281005859375 302.1366271972656 354.454345703125 319.0137939453125 352.80126953125 336.9241943359375 C 351.2861328125 354.83465576171875 348.806640625 371.78070068359375 345.36279296875 387.7623291015625 C 341.918701171875 403.74395751953125 337.44189453125 417.0390625 331.931640625 427.64752197265625 C 326.14599609375 440.3226318359375 318.9140625 448.451171875 310.235595703125 452.0333251953125 C 301.69482421875 455.6153564453125 291.983154296875 457.40643310546875 281.1005859375 457.40643310546875 C 273.661865234375 457.40643310546875 265.603271484375 456.717529296875 256.9248046875 455.33984375 C 248.384033203125 454.099853515625 241.220947265625 452.791015625 235.435302734375 451.413330078125 C 234.8154296875 446.7979736328125 234.195556640625 442.18255615234375 233.575439453125 437.567138671875 C 239.63671875 439.35821533203125 245.62890625 440.87371826171875 251.552490234375 442.1136474609375 C 257.475830078125 443.2158203125 263.054931640625 444.04248046875 268.28955078125 444.59356689453125 C 273.661865234375 445.1446533203125 278.345458984375 445.420166015625 282.34033203125 445.420166015625 C 290.1923828125 445.420166015625 297.4931640625 444.111328125 304.2431640625 441.49365234375 C 310.9931640625 438.8759765625 316.91650390625 432.262939453125 322.013427734375 421.6544189453125 C 326.697021484375 411.0458984375 330.623046875 398.370849609375 333.791259765625 383.629150390625 C 336.959716796875 368.74969482421875 339.301513671875 353.04364013671875 340.81689453125 336.5108642578125 C 342.469970703125 319.9781494140625 343.29638671875 303.92767333984375 343.29638671875 288.3593444824219 C 343.29638671875 274.58209228515625 341.298828125 264.18023681640625 337.30419921875 257.1538391113281 C 333.447021484375 250.12744140625 328.074462890625 245.30538940429688 321.18701171875 242.68771362304688 C 314.29931640625 240.07000732421875 306.51611328125 238.76116943359375 297.837646484375 238.76116943359375 C 290.39892578125 238.76116943359375 280.411865234375 239.243408203125 267.876220703125 240.20779418945312 C 255.478271484375 241.034423828125 242.254150390625 242.1365966796875 228.203125 243.51434326171875 C 214.2900390625 244.75430297851562 201.2724609375 245.9942626953125 189.14990234375 247.23419189453125 C 177.165283203125 248.47418212890625 167.866943359375 249.36968994140625 161.2548828125 249.9207763671875 C 157.81103515625 250.05853271484375 153.40283203125 250.47186279296875 148.030517578125 251.16073608398438 C 142.7958984375 251.849609375 138.1123046875 252.46954345703125 133.9794921875 253.02066040039062 C 133.291015625 247.991943359375 132.60205078125 242.9632568359375 131.913330078125 237.9345703125"/>
  </g>
</svg>
