<?xml version="1.0" ?>
<svg xmlns="http://www.w3.org/2000/svg" version="1.1" width="600" height="600">
  <defs/>
  <g>
    <path stroke-width="0" fill="rgb(0, 0, 0)" opacity="1.0" d="M 328.572509765625 430.310302734375 C 369.53173828125 430.310302734375 410.490966796875 430.310302734375 451.449951171875 430.310302734375 C 451.449951171875 434.17242431640625 451.449951171875 438.03448486328125 451.449951171875 441.89654541015625 C 410.490966796875 441.89654541015625 369.53173828125 441.89654541015625 328.572509765625 441.89654541015625 C 328.572509765625 438.03448486328125 328.572509765625 434.17242431640625 328.572509765625 430.310302734375M 130.810302734375 266.24139404296875 C 182.871337890625 266.24139404296875 234.931884765625 266.24139404296875 286.992919921875 266.24139404296875 C 286.992919921875 270.2413635253906 286.992919921875 274.24139404296875 286.992919921875 278.24139404296875 C 234.931884765625 278.24139404296875 182.871337890625 278.24139404296875 130.810302734375 278.24139404296875 C 130.810302734375 274.24139404296875 130.810302734375 270.2413635253906 130.810302734375 266.24139404296875M 321.539306640625 249.27584838867188 C 366.15283203125 249.27584838867188 410.766845703125 249.27584838867188 455.38037109375 249.27584838867188 C 455.38037109375 322.24139404296875 455.38037109375 395.2069091796875 455.38037109375 468.17242431640625 C 451.51904296875 468.17242431640625 447.657470703125 468.17242431640625 443.7958984375 468.17242431640625 C 443.7958984375 399.137939453125 443.7958984375 330.10345458984375 443.7958984375 261.0689697265625 C 406.83642578125 261.0689697265625 369.87646484375 261.0689697265625 332.916748046875 261.0689697265625 C 332.916748046875 330.72412109375 332.916748046875 400.3792724609375 332.916748046875 470.03448486328125 C 329.1240234375 470.03448486328125 325.331787109375 470.03448486328125 321.539306640625 470.03448486328125 C 321.539306640625 396.4482421875 321.539306640625 322.862060546875 321.539306640625 249.27584838867188M 211.4873046875 211.82757568359375 C 215.417724609375 212.6551513671875 219.34814453125 213.48275756835938 223.278564453125 214.31033325195312 C 218.31396484375 228.10345458984375 212.65966796875 243.0 206.31591796875 259.0 C 199.971923828125 275.0 193.490234375 291.0689697265625 186.87060546875 307.2069091796875 C 180.2509765625 323.3448486328125 173.7001953125 338.7930908203125 167.218505859375 353.5517578125 C 160.73681640625 368.17242431640625 154.806640625 381.2069091796875 149.42822265625 392.6551513671875 C 145.6357421875 391.2069091796875 141.843017578125 389.75860595703125 138.050537109375 388.310302734375 C 143.291015625 377.137939453125 149.15234375 364.2413330078125 155.634033203125 349.6207275390625 C 162.11572265625 334.862060546875 168.66650390625 319.4827880859375 175.2861328125 303.4827880859375 C 181.90576171875 287.4827575683594 188.318603515625 271.62066650390625 194.524658203125 255.89654541015625 C 200.73046875 240.03448486328125 206.384765625 225.3448486328125 211.4873046875 211.82757568359375M 282.648681640625 266.24139404296875 C 283.4072265625 266.24139404296875 284.165771484375 266.24139404296875 284.92431640625 266.24139404296875 C 285.751708984375 265.96551513671875 286.5791015625 265.68963623046875 287.406494140625 265.4137878417969 C 289.7509765625 266.3793029785156 292.095703125 267.3448181152344 294.43994140625 268.3103332519531 C 288.647705078125 311.4827880859375 278.442626953125 347.137939453125 263.823974609375 375.27587890625 C 249.343505859375 403.27587890625 231.346435546875 425.4827880859375 209.83251953125 441.89654541015625 C 188.45654296875 458.310302734375 164.391357421875 470.862060546875 137.636962890625 479.5517578125 C 136.809326171875 478.310302734375 135.706298828125 476.6551513671875 134.3271484375 474.586181640625 C 133.0859375 472.6551513671875 131.77587890625 471.137939453125 130.396728515625 470.03448486328125 C 156.0478515625 462.17242431640625 179.3544921875 450.3792724609375 200.316650390625 434.6551513671875 C 221.27880859375 418.7930908203125 238.8623046875 397.413818359375 253.067138671875 370.5172119140625 C 267.40966796875 343.6207275390625 277.270263671875 309.96551513671875 282.648681640625 269.55169677734375 C 282.648681640625 268.4482727050781 282.648681640625 267.3448181152344 282.648681640625 266.24139404296875M 152.32421875 365.96551513671875 C 154.944580078125 363.3448486328125 157.564697265625 360.72412109375 160.18505859375 358.10345458984375 C 177.69970703125 365.413818359375 195.283203125 374.24139404296875 212.935546875 384.586181640625 C 230.725830078125 394.9310302734375 247.136962890625 405.689697265625 262.169189453125 416.862060546875 C 277.339111328125 428.03448486328125 289.544189453125 438.586181640625 298.7841796875 448.5172119140625 C 295.887939453125 451.4827880859375 292.991943359375 454.4482421875 290.095947265625 457.413818359375 C 280.85595703125 447.3448486328125 268.719970703125 436.72412109375 253.687744140625 425.5517578125 C 238.79345703125 414.3792724609375 222.451171875 403.6207275390625 204.660888671875 393.27587890625 C 187.008544921875 382.7930908203125 169.562744140625 373.68963623046875 152.32421875 365.96551513671875M 125.638671875 161.34481811523438 C 241.896484375 161.34481811523438 358.154296875 161.34481811523438 474.411865234375 161.34481811523438 C 474.411865234375 165.20687866210938 474.411865234375 169.0689697265625 474.411865234375 172.9310302734375 C 358.154296875 172.9310302734375 241.896484375 172.9310302734375 125.638671875 172.9310302734375 C 125.638671875 169.0689697265625 125.638671875 165.20687866210938 125.638671875 161.34481811523438M 224.93359375 121.20687866210938 C 228.795166015625 121.20687866210938 232.656494140625 121.20687866210938 236.51806640625 121.20687866210938 C 236.51806640625 153.41378784179688 236.51806640625 185.62069702148438 236.51806640625 217.82757568359375 C 232.656494140625 217.82757568359375 228.795166015625 217.82757568359375 224.93359375 217.82757568359375 C 224.93359375 185.62069702148438 224.93359375 153.41378784179688 224.93359375 121.20687866210938M 361.6708984375 121.20687866210938 C 365.463623046875 121.20687866210938 369.255859375 121.20687866210938 373.04833984375 121.20687866210938 C 373.04833984375 153.96551513671875 373.04833984375 186.72412109375 373.04833984375 219.48275756835938 C 369.255859375 219.48275756835938 365.463623046875 219.48275756835938 361.6708984375 219.48275756835938 C 361.6708984375 186.72412109375 361.6708984375 153.96551513671875 361.6708984375 121.20687866210938"/>
  </g>
</svg>
