<?xml version="1.0" ?>
<svg xmlns="http://www.w3.org/2000/svg" version="1.1" width="600" height="600">
  <defs/>
  <g>
    <path stroke-width="0" fill="rgb(0, 0, 0)" opacity="1.0" d="M 182.14984130859375 267.36474609375 C 181.81808471679688 267.992919921875 181.43655395507812 268.8194580078125 181.0052490234375 269.84429931640625 C 180.60711669921875 270.836181640625 180.2587890625 271.7784423828125 179.960205078125 272.6710205078125 C 178.79901123046875 275.844970703125 177.38900756835938 279.250244140625 175.73016357421875 282.886962890625 C 174.07131958007812 286.49072265625 172.19683837890625 290.0943603515625 170.10671997070312 293.69805908203125 C 168.0166015625 297.2686767578125 165.66104125976562 300.6739501953125 163.04010009765625 303.91400146484375 C 159.92147827148438 307.8482666015625 156.35498046875 311.815673828125 152.34060668945312 315.8160400390625 C 148.32623291015625 319.8165283203125 143.88055419921875 323.651611328125 139.00360107421875 327.3214111328125 C 134.12661743164062 330.9581298828125 128.76858520507812 334.1981201171875 122.92950439453125 337.04144287109375 C 122.10009765625 336.3140869140625 121.27066040039062 335.58673095703125 120.44125366210938 334.859375 C 129.53164672851562 330.5283203125 137.32818603515625 325.5030517578125 143.830810546875 319.783447265625 C 150.33343505859375 314.03076171875 155.94027709960938 308.1954345703125 160.6513671875 302.2774658203125 C 164.7984619140625 297.1529541015625 168.19906616210938 291.896240234375 170.85317993164062 286.5072021484375 C 173.54049682617188 281.08514404296875 175.68038940429688 276.0928955078125 177.27288818359375 271.53045654296875 C 177.53829956054688 270.836181640625 177.82028198242188 269.99310302734375 178.118896484375 269.001220703125 C 178.45065307617188 267.976318359375 178.716064453125 267.0506591796875 178.91513061523438 266.22412109375 C 179.99334716796875 266.60430908203125 181.07159423828125 266.9844970703125 182.14984130859375 267.36474609375M 133.67874145507812 280.506591796875 C 136.06744384765625 282.02740478515625 138.6220703125 283.76312255859375 141.34255981445312 285.7137451171875 C 144.09622192382812 287.63128662109375 146.83328247070312 289.5819091796875 149.55377197265625 291.56561279296875 C 152.30743408203125 293.5162353515625 154.86203002929688 295.417236328125 157.21759033203125 297.2686767578125 C 159.5731201171875 299.0870361328125 161.54714965820312 300.6739501953125 163.13961791992188 302.029541015625 C 167.65164184570312 305.83154296875 172.04754638671875 309.6666259765625 176.32733154296875 313.53485107421875 C 180.64031982421875 317.40301513671875 184.65469360351562 321.4034423828125 188.3704833984375 325.5361328125 C 187.64059448242188 326.263427734375 186.91070556640625 326.99078369140625 186.18081665039062 327.7181396484375 C 182.33230590820312 323.3870849609375 178.35113525390625 319.3536376953125 174.23721313476562 315.61767578125 C 170.156494140625 311.88177490234375 165.843505859375 308.0797119140625 161.29830932617188 304.2115478515625 C 159.60629272460938 302.7568359375 157.56594848632812 301.0872802734375 155.17721557617188 299.2027587890625 C 152.78851318359375 297.3182373046875 150.21731567382812 295.3841552734375 147.46365356445312 293.4005126953125 C 144.70999145507812 291.3837890625 141.972900390625 289.4661865234375 139.25241088867188 287.6478271484375 C 136.56512451171875 285.79638671875 134.11004638671875 284.1763916015625 131.88720703125 282.787841796875 C 132.484375 282.02740478515625 133.08154296875 281.2669677734375 133.67874145507812 280.506591796875"/>
    <path stroke-width="0" fill="rgb(0, 0, 0)" opacity="1.0" d="M 267.9447021484375 264.0916748046875 C 267.4470520019531 264.55450439453125 266.65081787109375 265.29840087890625 265.55596923828125 266.32330322265625 C 264.4611511230469 267.31512451171875 263.6649169921875 268.04248046875 263.1672668457031 268.50537109375 C 261.44207763671875 270.09228515625 259.30218505859375 271.976806640625 256.74755859375 274.1588134765625 C 254.22613525390625 276.34088134765625 251.538818359375 278.58905029296875 248.6856689453125 280.9033203125 C 245.86563110351562 283.2176513671875 243.1285400390625 285.44921875 240.47442626953125 287.5982666015625 C 237.8203125 289.71417236328125 235.54769897460938 291.56561279296875 233.6566162109375 293.15252685546875 C 231.5333251953125 295.00396728515625 230.09011840820312 296.557861328125 229.32705688476562 297.814208984375 C 228.56399536132812 299.0374755859375 228.58059692382812 300.2607421875 229.3768310546875 301.4840087890625 C 230.17306518554688 302.707275390625 231.74896240234375 304.31072998046875 234.1044921875 306.29443359375 C 236.16143798828125 307.947509765625 238.40087890625 309.765869140625 240.82278442382812 311.74951171875 C 243.24468994140625 313.70013427734375 245.73291015625 315.7664794921875 248.28753662109375 317.948486328125 C 250.87530517578125 320.130615234375 253.47967529296875 322.3787841796875 256.10064697265625 324.6929931640625 C 258.7215881347656 326.9742431640625 261.2596130371094 329.27203369140625 263.71466064453125 331.5863037109375 C 266.16973876953125 333.900634765625 268.4423522949219 336.1322021484375 270.532470703125 338.28125 C 269.70306396484375 339.008544921875 268.8736572265625 339.7359619140625 268.04425048828125 340.4632568359375 C 266.7171630859375 338.94244384765625 265.12469482421875 337.25634765625 263.26678466796875 335.4049072265625 C 261.342529296875 333.5203857421875 259.0367736816406 331.3548583984375 256.3494567871094 328.9083251953125 C 253.6953125 326.4617919921875 250.89190673828125 323.9656982421875 247.93917846679688 321.419921875 C 244.9864501953125 318.8411865234375 242.08349609375 316.361572265625 239.23028564453125 313.981201171875 C 236.4102783203125 311.6007080078125 233.85568237304688 309.48486328125 231.56649780273438 307.6334228515625 C 228.68011474609375 305.2860107421875 226.87200927734375 303.28582763671875 226.14208984375 301.63275146484375 C 225.4122314453125 299.979736328125 225.5615234375 298.3431396484375 226.58999633789062 296.72314453125 C 227.65164184570312 295.1031494140625 229.45977783203125 293.2186279296875 232.01437377929688 291.0697021484375 C 233.73956298828125 289.614990234375 235.91262817382812 287.8297119140625 238.5335693359375 285.7137451171875 C 241.18771362304688 283.56475830078125 243.95797729492188 281.300048828125 246.8443603515625 278.919677734375 C 249.763916015625 276.53924560546875 252.51754760742188 274.241455078125 255.1053466796875 272.0263671875 C 257.693115234375 269.811279296875 259.78326416015625 267.8441162109375 261.375732421875 266.12493896484375 C 261.87335205078125 265.52978515625 262.50372314453125 264.7694091796875 263.26678466796875 263.84368896484375 C 264.02984619140625 262.8848876953125 264.5772705078125 262.0914306640625 264.9090576171875 261.4632568359375 C 265.9209289550781 262.33941650390625 266.93280029296875 263.21551513671875 267.9447021484375 264.0916748046875"/>
    <path stroke-width="0" fill="rgb(0, 0, 0)" opacity="1.0" d="M 353.0926513671875 263.05023193359375 C 352.95989990234375 263.7445068359375 352.81060791015625 264.75286865234375 352.64471435546875 266.0753173828125 C 352.47882080078125 267.36474609375 352.34613037109375 268.554931640625 352.24658203125 269.64593505859375 C 351.7821044921875 273.05126953125 351.31768798828125 276.50616455078125 350.85321044921875 280.01068115234375 C 350.421875 283.51513671875 349.82470703125 287.052734375 349.0616455078125 290.62335205078125 C 348.298583984375 294.160888671875 347.2535400390625 297.76458740234375 345.92645263671875 301.43438720703125 C 344.333984375 305.76544189453125 342.52581787109375 309.83197021484375 340.5020751953125 313.634033203125 C 338.511474609375 317.43603515625 336.37158203125 320.79180908203125 334.0823974609375 323.701171875 C 331.793212890625 326.5775146484375 329.321533203125 328.82568359375 326.66741943359375 330.4456787109375 C 324.01324462890625 332.065673828125 321.2264404296875 332.875732421875 318.306884765625 332.875732421875 C 316.38262939453125 332.875732421875 314.6740417480469 332.3302001953125 313.18109130859375 331.2391357421875 C 311.6881408691406 330.148193359375 310.5103759765625 328.660400390625 309.64776611328125 326.77587890625 C 308.7851867675781 324.85833740234375 308.3538818359375 322.626708984375 308.3538818359375 320.08099365234375 C 308.3538818359375 315.6507568359375 309.03399658203125 311.56768798828125 310.39422607421875 307.831787109375 C 311.78765869140625 304.062744140625 313.5626220703125 300.6243896484375 315.7191162109375 297.5166015625 C 317.2452392578125 295.1031494140625 319.23583984375 292.67315673828125 321.69091796875 290.22662353515625 C 324.14599609375 287.74700927734375 327.0323486328125 285.4658203125 330.3499755859375 283.3829345703125 C 333.66766357421875 281.2669677734375 337.38348388671875 279.5643310546875 341.49737548828125 278.27496337890625 C 345.64447021484375 276.9525146484375 350.20623779296875 276.291259765625 355.1827392578125 276.291259765625 C 358.63311767578125 276.291259765625 361.9508056640625 276.869873046875 365.1357421875 278.0269775390625 C 368.3206787109375 279.15106201171875 371.1739501953125 280.8206787109375 373.6953125 283.0357666015625 C 376.24993896484375 285.21783447265625 378.273681640625 287.94537353515625 379.76666259765625 291.21844482421875 C 381.29278564453125 294.49151611328125 382.05584716796875 298.2440185546875 382.05584716796875 302.475830078125 C 382.05584716796875 307.6334228515625 381.60797119140625 312.261962890625 380.712158203125 316.361572265625 C 379.81640625 320.4281005859375 378.4561767578125 323.9326171875 376.6314697265625 326.8751220703125 C 374.8067626953125 329.78448486328125 372.5341796875 331.99957275390625 369.81365966796875 333.5203857421875 C 367.1263427734375 335.041259765625 363.97454833984375 335.8016357421875 360.3582763671875 335.8016357421875 C 356.277587890625 335.8016357421875 353.0594482421875 334.8262939453125 350.70391845703125 332.875732421875 C 348.34832763671875 330.89202880859375 347.17059326171875 328.2801513671875 347.17059326171875 325.0401611328125 C 347.17059326171875 323.0234375 347.75115966796875 321.205078125 348.912353515625 319.5850830078125 C 350.106689453125 317.965087890625 351.73236083984375 316.69219970703125 353.789306640625 315.7664794921875 C 355.87945556640625 314.84075927734375 358.2183837890625 314.3779296875 360.80621337890625 314.3779296875 C 364.3228759765625 314.3779296875 367.5576171875 314.93994140625 370.5103759765625 316.06402587890625 C 373.463134765625 317.155029296875 376.150390625 318.54364013671875 378.572265625 320.229736328125 C 380.994140625 321.9158935546875 383.134033203125 323.6680908203125 384.991943359375 325.48651123046875 C 386.849853515625 327.30487060546875 388.4091796875 328.94140625 389.669921875 330.3961181640625 C 388.97314453125 331.272216796875 388.2764892578125 332.1483154296875 387.57977294921875 333.02447509765625 C 386.35223388671875 331.503662109375 384.8426513671875 329.8341064453125 383.0511474609375 328.01568603515625 C 381.29278564453125 326.16424560546875 379.28564453125 324.3955078125 377.029541015625 322.7093505859375 C 374.7735595703125 321.023193359375 372.2852783203125 319.65118408203125 369.5648193359375 318.59326171875 C 366.8443603515625 317.502197265625 363.9248046875 316.9566650390625 360.80621337890625 316.9566650390625 C 357.12359619140625 316.9566650390625 354.35333251953125 317.8162841796875 352.49542236328125 319.53546142578125 C 350.67071533203125 321.254638671875 349.75836181640625 323.0565185546875 349.75836181640625 324.94097900390625 C 349.75836181640625 327.3544921875 350.68731689453125 329.338134765625 352.545166015625 330.89202880859375 C 354.436279296875 332.4459228515625 357.0406494140625 333.22283935546875 360.3582763671875 333.22283935546875 C 363.97454833984375 333.22283935546875 366.99365234375 332.3963623046875 369.41552734375 330.7432861328125 C 371.83740234375 329.05712890625 373.76171875 326.77587890625 375.188232421875 323.8995361328125 C 376.6148681640625 320.99017333984375 377.64337158203125 317.7005615234375 378.273681640625 314.03076171875 C 378.937255859375 310.327880859375 379.26904296875 306.50927734375 379.26904296875 302.57501220703125 C 379.26904296875 299.73175048828125 378.7713623046875 296.905029296875 377.77606201171875 294.09478759765625 C 376.78076171875 291.25152587890625 375.271240234375 288.68927001953125 373.2474365234375 286.40802001953125 C 371.2568359375 284.1268310546875 368.751953125 282.3084716796875 365.73291015625 280.952880859375 C 362.7138671875 279.5643310546875 359.1639404296875 278.87005615234375 355.083251953125 278.87005615234375 C 349.80810546875 278.87005615234375 344.83160400390625 279.713134765625 340.1536865234375 281.39923095703125 C 335.475830078125 283.08538818359375 331.22918701171875 285.44921875 327.41387939453125 288.49090576171875 C 323.6317138671875 291.53253173828125 320.39703369140625 295.11968994140625 317.709716796875 299.2523193359375 C 316.18359375 301.66583251953125 314.9228515625 303.99664306640625 313.92755126953125 306.24481201171875 C 312.9654541015625 308.49298095703125 312.23553466796875 310.74114990234375 311.7379150390625 312.98931884765625 C 311.2734375 315.2044677734375 311.04119873046875 317.5352783203125 311.04119873046875 319.9818115234375 C 311.04119873046875 323.12261962890625 311.82086181640625 325.6021728515625 313.380126953125 327.42059326171875 C 314.939453125 329.2059326171875 316.54852294921875 330.0985107421875 318.20733642578125 330.0985107421875 C 320.69561767578125 330.0985107421875 323.11749267578125 329.35467529296875 325.4730224609375 327.866943359375 C 327.82861328125 326.379150390625 330.0845947265625 324.27978515625 332.2410888671875 321.5687255859375 C 334.43072509765625 318.82464599609375 336.5042724609375 315.63427734375 338.461669921875 311.99749755859375 C 340.4522705078125 308.32769775390625 342.24383544921875 304.3272705078125 343.8363037109375 299.9962158203125 C 344.89801025390625 297.020751953125 345.79376220703125 293.76416015625 346.52362060546875 290.22662353515625 C 347.2535400390625 286.656005859375 347.8341064453125 283.118408203125 348.265380859375 279.6138916015625 C 348.7298583984375 276.076416015625 349.0948486328125 272.9024658203125 349.3602294921875 270.09228515625 C 349.492919921875 268.902099609375 349.559326171875 267.74493408203125 349.559326171875 266.620849609375 C 349.559326171875 265.46368408203125 349.492919921875 264.2073974609375 349.3602294921875 262.85186767578125 C 350.6043701171875 262.91796875 351.8485107421875 262.984130859375 353.0926513671875 263.05023193359375M 316.9632263183594 272.0263671875 C 317.59356689453125 274.7374267578125 318.4230041503906 277.64678955078125 319.45147705078125 280.7545166015625 C 320.47998046875 283.8623046875 321.5582275390625 286.9039306640625 322.68621826171875 289.87945556640625 C 323.847412109375 292.8218994140625 324.9256591796875 295.532958984375 325.9208984375 298.0125732421875 C 326.94940185546875 300.4921875 327.81201171875 302.49237060546875 328.50872802734375 304.01318359375 C 329.4708251953125 306.0960693359375 330.7149658203125 308.4599609375 332.2410888671875 311.1048583984375 C 333.7672119140625 313.749755859375 335.2933349609375 316.014404296875 336.8194580078125 317.89892578125 C 336.32177734375 318.62628173828125 335.82415771484375 319.3536376953125 335.3265380859375 320.08099365234375 C 334.29803466796875 318.8907470703125 333.1866455078125 317.4195556640625 331.99224853515625 315.66729736328125 C 330.8310546875 313.9150390625 329.7528076171875 312.146240234375 328.757568359375 310.3609619140625 C 327.76220703125 308.5426025390625 326.916259765625 306.906005859375 326.219482421875 305.45135498046875 C 325.39013671875 303.5338134765625 324.37823486328125 301.1368408203125 323.183837890625 298.260498046875 C 322.02264404296875 295.35107421875 320.8780517578125 292.39208984375 319.75006103515625 289.383544921875 C 318.6552429199219 286.375 317.75946044921875 283.79620361328125 317.062744140625 281.647216796875 C 316.73101806640625 280.49005126953125 316.38262939453125 279.3990478515625 316.0177001953125 278.3741455078125 C 315.6859130859375 277.316162109375 315.33758544921875 276.34088134765625 314.9726257324219 275.4482421875 C 314.640869140625 274.5555419921875 314.32568359375 273.7620849609375 314.027099609375 273.06781005859375 C 315.00579833984375 272.72064208984375 315.9845275878906 272.37353515625 316.9632263183594 272.0263671875"/>
    <path stroke-width="0" fill="rgb(0, 0, 0)" opacity="1.0" d="M 412.51202392578125 271.1336669921875 C 412.4456787109375 271.53045654296875 412.37933349609375 272.12554931640625 412.31298828125 272.91900634765625 C 412.24658203125 273.7125244140625 412.19683837890625 274.57208251953125 412.1636962890625 275.497802734375 C 412.1304931640625 276.42352294921875 412.08074951171875 277.2666015625 412.014404296875 278.0269775390625 C 411.981201171875 279.9114990234375 411.964599609375 282.2423095703125 411.964599609375 285.01947021484375 C 411.997802734375 287.7635498046875 412.08074951171875 290.70599365234375 412.21343994140625 293.8468017578125 C 412.34613037109375 296.95458984375 412.545166015625 299.963134765625 412.81060791015625 302.87255859375 C 413.44091796875 308.88970947265625 414.51922607421875 314.146484375 416.04534912109375 318.642822265625 C 417.57147216796875 323.1060791015625 419.4127197265625 326.56103515625 421.5692138671875 329.007568359375 C 423.7589111328125 331.4541015625 426.13104248046875 332.6773681640625 428.6856689453125 332.6773681640625 C 429.9464111328125 332.6773681640625 431.20703125 332.181396484375 432.4677734375 331.1895751953125 C 433.76171875 330.19775390625 434.98919677734375 328.8092041015625 436.150390625 327.02386474609375 C 437.3447265625 325.2054443359375 438.4561767578125 323.072998046875 439.484619140625 320.62646484375 C 440.54632568359375 318.179931640625 441.4586181640625 315.5350341796875 442.22174072265625 312.6917724609375 C 443.0179443359375 313.35302734375 443.814208984375 314.01422119140625 444.6104736328125 314.6754150390625 C 442.88525390625 319.8660888671875 441.11029052734375 323.998779296875 439.28558349609375 327.073486328125 C 437.4940185546875 330.1151123046875 435.7025146484375 332.297119140625 433.9110107421875 333.61962890625 C 432.11944580078125 334.9420166015625 430.344482421875 335.603271484375 428.58612060546875 335.603271484375 C 426.097900390625 335.603271484375 423.593017578125 334.56182861328125 421.07159423828125 332.47900390625 C 418.5501708984375 330.3961181640625 416.32733154296875 326.99078369140625 414.403076171875 322.2630615234375 C 412.51202392578125 317.5352783203125 411.11859130859375 311.2039794921875 410.22283935546875 303.269287109375 C 409.9573974609375 300.657470703125 409.7418212890625 297.748046875 409.575927734375 294.5411376953125 C 409.44317626953125 291.33416748046875 409.3436279296875 288.25946044921875 409.27734375 285.3170166015625 C 409.2109375 282.34149169921875 409.177734375 279.994140625 409.177734375 278.27496337890625 C 409.177734375 277.41534423828125 409.1611328125 276.175537109375 409.12799072265625 274.5555419921875 C 409.0948486328125 272.935546875 408.945556640625 271.745361328125 408.68011474609375 270.98492431640625 C 409.9573974609375 271.0345458984375 411.2347412109375 271.0841064453125 412.51202392578125 271.1336669921875M 464.2178955078125 274.3076171875 C 465.810302734375 276.522705078125 467.33642578125 278.95269775390625 468.7962646484375 281.59765625 C 470.2559814453125 284.20947265625 471.59967041015625 287.0196533203125 472.82720947265625 290.02825927734375 C 474.087890625 293.0037841796875 475.2159423828125 296.111572265625 476.211181640625 299.3515625 C 477.23968505859375 302.591552734375 478.102294921875 305.9141845703125 478.79901123046875 309.31951904296875 C 479.52886962890625 312.6917724609375 480.0762939453125 316.1632080078125 480.4412841796875 319.73382568359375 C 479.5123291015625 320.1470947265625 478.5833740234375 320.56036376953125 477.6544189453125 320.9736328125 C 477.22314453125 316.2127685546875 476.49322509765625 311.6668701171875 475.4647216796875 307.3358154296875 C 474.469482421875 302.97174072265625 473.241943359375 298.87213134765625 471.7821044921875 295.03704833984375 C 470.3555908203125 291.1688232421875 468.7630615234375 287.5982666015625 467.00469970703125 284.3251953125 C 465.279541015625 281.01904296875 463.45477294921875 278.06005859375 461.530517578125 275.4482421875 C 462.42633056640625 275.0679931640625 463.32208251953125 274.68780517578125 464.2178955078125 274.3076171875"/>
  </g>
</svg>
