<?xml version="1.0" ?>
<svg xmlns="http://www.w3.org/2000/svg" version="1.1" width="600" height="600">
  <defs/>
  <g>
    <path stroke-width="0" fill="rgb(0, 0, 0)" opacity="1.0" d="M 297.31622314453125 139.47463989257812 C 289.440185546875 153.02304077148438 279.491455078125 167.26266479492188 267.4700927734375 182.19354248046875 C 255.5869140625 196.98617553710938 242.04559326171875 211.847900390625 226.84616088867188 226.77880859375 C 211.784912109375 241.5714111328125 195.89459228515625 255.741943359375 179.17523193359375 269.2903137207031 C 162.45584106445312 282.83868408203125 145.32192993164062 295.07373046875 127.77349853515625 305.9953918457031 C 127.35897827148438 305.1658935546875 126.7371826171875 304.1981506347656 125.90811157226562 303.0921630859375 C 125.07907104492188 301.9861755371094 124.180908203125 300.9493103027344 123.21368408203125 299.9815673828125 C 122.38461303710938 298.8755798339844 121.41738891601562 297.9078369140625 120.31195068359375 297.0783386230469 C 143.663818359375 282.83868408203125 166.32476806640625 266.3179931640625 188.29486083984375 247.51611328125 C 210.40313720703125 228.57601928710938 230.30059814453125 208.7373046875 247.9871826171875 188.0 C 265.81195068359375 167.12442016601562 280.0441589355469 146.80184936523438 290.68377685546875 127.03225708007812 C 294.345458984375 127.03225708007812 298.00714111328125 127.03225708007812 301.6688232421875 127.03225708007812 C 311.7557067871094 142.51611328125 323.77703857421875 158.06912231445312 337.73291015625 173.69122314453125 C 351.688720703125 189.3133544921875 366.61181640625 204.52072143554688 382.50213623046875 219.3133544921875 C 398.3924560546875 234.10598754882812 414.628173828125 247.7235107421875 431.20941162109375 260.1658935546875 C 447.79058837890625 272.6082763671875 463.957275390625 283.32257080078125 479.70941162109375 292.3087463378906 C 478.32763671875 293.41473388671875 476.73858642578125 295.0046081542969 474.94232177734375 297.0783386230469 C 473.2841796875 299.0138244628906 472.04058837890625 300.60369873046875 471.2115478515625 301.847900390625 C 455.32122802734375 292.3087463378906 439.154541015625 281.24884033203125 422.7115478515625 268.668212890625 C 406.2685546875 256.0875549316406 390.24005126953125 242.6082763671875 374.6260986328125 228.23040771484375 C 359.1502685546875 213.8525390625 344.7799072265625 199.1290283203125 331.51495361328125 184.05990600585938 C 318.25 168.99078369140625 306.8504333496094 154.1290283203125 297.31622314453125 139.47463989257812M 300.6324768066406 331.294921875 C 344.01995849609375 331.294921875 387.40740966796875 331.294921875 430.79486083984375 331.294921875 C 430.79486083984375 335.30413818359375 430.79486083984375 339.3133544921875 430.79486083984375 343.32257080078125 C 387.40740966796875 343.32257080078125 344.01995849609375 343.32257080078125 300.6324768066406 343.32257080078125 C 300.6324768066406 339.3133544921875 300.6324768066406 335.30413818359375 300.6324768066406 331.294921875M 130.67520141601562 462.3548583984375 C 243.5655517578125 462.3548583984375 356.455810546875 462.3548583984375 469.34619140625 462.3548583984375 C 469.34619140625 466.225830078125 469.34619140625 470.0968017578125 469.34619140625 473.9677734375 C 356.455810546875 473.9677734375 243.5655517578125 473.9677734375 130.67520141601562 473.9677734375 C 130.67520141601562 470.0968017578125 130.67520141601562 466.225830078125 130.67520141601562 462.3548583984375M 295.45086669921875 230.30413818359375 C 299.3888854980469 230.30413818359375 303.326904296875 230.30413818359375 307.26495361328125 230.30413818359375 C 307.26495361328125 309.3824768066406 307.26495361328125 388.4608154296875 307.26495361328125 467.5391845703125 C 303.326904296875 467.5391845703125 299.3888854980469 467.5391845703125 295.45086669921875 467.5391845703125 C 295.45086669921875 388.4608154296875 295.45086669921875 309.3824768066406 295.45086669921875 230.30413818359375M 188.29486083984375 305.58062744140625 C 192.163818359375 305.58062744140625 196.03277587890625 305.58062744140625 199.90170288085938 305.58062744140625 C 199.90170288085938 359.290283203125 199.90170288085938 413.0 199.90170288085938 466.709716796875 C 196.03277587890625 466.709716796875 192.163818359375 466.709716796875 188.29486083984375 466.709716796875 C 188.29486083984375 413.0 188.29486083984375 359.290283203125 188.29486083984375 305.58062744140625"/>
  </g>
</svg>
