<?xml version="1.0" ?>
<svg xmlns="http://www.w3.org/2000/svg" version="1.1" width="600" height="600">
  <defs/>
  <g>
    <path stroke-width="0" fill="rgb(0, 0, 0)" opacity="1.0" d="M 259.6533203125 144.42098999023438 C 320.638671875 144.42098999023438 381.6240234375 144.42098999023438 442.60986328125 144.42098999023438 C 442.60986328125 148.25442504882812 442.60986328125 152.08786010742188 442.60986328125 155.92129516601562 C 381.6240234375 155.92129516601562 320.638671875 155.92129516601562 259.6533203125 155.92129516601562 C 259.6533203125 152.08786010742188 259.6533203125 148.25442504882812 259.6533203125 144.42098999023438M 256.5732421875 249.77182006835938 C 320.98046875 249.77182006835938 385.388671875 249.77182006835938 449.79638671875 249.77182006835938 C 449.79638671875 253.6737060546875 449.79638671875 257.5755920410156 449.79638671875 261.47747802734375 C 385.388671875 261.47747802734375 320.98046875 261.47747802734375 256.5732421875 261.47747802734375 C 256.5732421875 257.5755920410156 256.5732421875 253.6737060546875 256.5732421875 249.77182006835938M 256.5732421875 302.96063232421875 C 320.98046875 302.96063232421875 385.388671875 302.96063232421875 449.79638671875 302.96063232421875 C 449.79638671875 306.862548828125 449.79638671875 310.764404296875 449.79638671875 314.666259765625 C 385.388671875 314.666259765625 320.98046875 314.666259765625 256.5732421875 314.666259765625 C 256.5732421875 310.764404296875 256.5732421875 306.862548828125 256.5732421875 302.96063232421875M 260.474609375 444.4552001953125 C 322.076171875 444.4552001953125 383.677734375 444.4552001953125 445.27880859375 444.4552001953125 C 445.27880859375 448.425537109375 445.27880859375 452.3958740234375 445.27880859375 456.3662109375 C 383.677734375 456.3662109375 322.076171875 456.3662109375 260.474609375 456.3662109375 C 260.474609375 452.3958740234375 260.474609375 448.425537109375 260.474609375 444.4552001953125M 223.1025390625 197.1990966796875 C 309.55029296875 197.1990966796875 395.998046875 197.1990966796875 482.4453125 197.1990966796875 C 482.4453125 201.03253173828125 482.4453125 204.865966796875 482.4453125 208.69940185546875 C 395.998046875 208.69940185546875 309.55029296875 208.69940185546875 223.1025390625 208.69940185546875 C 223.1025390625 204.865966796875 223.1025390625 201.03253173828125 223.1025390625 197.1990966796875M 254.9306640625 355.73876953125 C 320.36474609375 355.73876953125 385.79931640625 355.73876953125 451.23388671875 355.73876953125 C 451.23388671875 396.12664794921875 451.23388671875 436.5145263671875 451.23388671875 476.9024658203125 C 447.46923828125 476.9024658203125 443.705078125 476.9024658203125 439.9404296875 476.9024658203125 C 439.9404296875 440.34796142578125 439.9404296875 403.79345703125 439.9404296875 367.239013671875 C 382.103515625 367.239013671875 324.26611328125 367.239013671875 266.42919921875 367.239013671875 C 266.42919921875 404.1357421875 266.42919921875 441.032470703125 266.42919921875 477.92926025390625 C 262.59619140625 477.92926025390625 258.76318359375 477.92926025390625 254.9306640625 477.92926025390625 C 254.9306640625 437.1990966796875 254.9306640625 396.4688720703125 254.9306640625 355.73876953125M 225.361328125 123.884765625 C 229.1943359375 124.98004150390625 233.02734375 126.07528686523438 236.8603515625 127.17056274414062 C 227.82568359375 149.21279907226562 217.490234375 170.638916015625 205.8544921875 191.44894409179688 C 194.21875 212.1220703125 181.693359375 231.49456787109375 168.27734375 249.56646728515625 C 154.8623046875 267.5014343261719 141.0361328125 283.72503662109375 126.798828125 298.2373046875 C 126.251953125 297.4158630371094 125.4306640625 296.3890380859375 124.3349609375 295.1568603515625 C 123.376953125 293.78778076171875 122.3505859375 292.55560302734375 121.2548828125 291.4603576660156 C 120.296875 290.2281799316406 119.2705078125 289.20135498046875 118.1748046875 288.37994384765625 C 132.412109375 274.96295166015625 146.10107421875 259.5607604980469 159.24267578125 242.17340087890625 C 172.38427734375 224.649169921875 184.6357421875 205.82431030273438 195.998046875 185.69882202148438 C 207.4970703125 165.57330322265625 217.28515625 144.9686279296875 225.361328125 123.884765625M 181.2138671875 218.14605712890625 C 184.91015625 214.44952392578125 188.60595703125 210.75299072265625 192.3017578125 207.05648803710938 C 192.576171875 207.193359375 192.849609375 207.330322265625 193.12353515625 207.46722412109375 C 193.12353515625 297.2789306640625 193.12353515625 387.0906982421875 193.12353515625 476.9024658203125 C 189.1533203125 476.9024658203125 185.18359375 476.9024658203125 181.2138671875 476.9024658203125 C 181.2138671875 390.65032958984375 181.2138671875 304.398193359375 181.2138671875 218.14605712890625"/>
  </g>
</svg>
