<?xml version="1.0" encoding="utf-8"?>
<svg xmlns="http://www.w3.org/2000/svg" xmlns:ev="http://www.w3.org/2001/xml-events" xmlns:xlink="http://www.w3.org/1999/xlink" version="1.1" baseProfile="full" width="49628.0" height="1744.0" viewBox="213.0 -1596.0 49628.0 1744.0">
<defs/>
<g><path d="M 33427.000000 -1332.000000 C 33772.000000 -1332.000000 34117.000000 -1332.000000 34462.000000 -1332.000000 C 34462.000000 -1313.666667 34462.000000 -1295.333333 34462.000000 -1277.000000 C 34117.000000 -1277.000000 33772.000000 -1277.000000 33427.000000 -1277.000000 C 33427.000000 -1295.333333 33427.000000 -1313.666667 33427.000000 -1332.000000z M 33466.000000 -1054.000000 C 33740.333333 -1054.000000 34014.666667 -1054.000000 34289.000000 -1054.000000 C 34289.000000 -1035.333333 34289.000000 -1016.666667 34289.000000 -998.000000 C 34014.666667 -998.000000 33740.333333 -998.000000 33466.000000 -998.000000 C 33466.000000 -1016.666667 33466.000000 -1035.333333 33466.000000 -1054.000000z M 33180.000000 -639.000000 C 33618.333333 -639.000000 34056.666667 -639.000000 34495.000000 -639.000000 C 34495.000000 -620.666667 34495.000000 -602.333333 34495.000000 -584.000000 C 34056.666667 -584.000000 33618.333333 -584.000000 33180.000000 -584.000000 C 33180.000000 -602.333333 33180.000000 -620.666667 33180.000000 -639.000000z M 33335.000000 -196.000000 C 33719.666667 -196.000000 34104.333333 -196.000000 34489.000000 -196.000000 C 34489.000000 -177.333333 34489.000000 -158.666667 34489.000000 -140.000000 C 34104.333333 -140.000000 33719.666667 -140.000000 33335.000000 -140.000000 C 33335.000000 -158.666667 33335.000000 -177.333333 33335.000000 -196.000000z M 33512.000000 -1596.000000 C 33531.666667 -1591.333333 33551.333333 -1586.666667 33571.000000 -1582.000000 C 33531.666667 -1459.333333 33482.333333 -1342.333333 33423.000000 -1231.000000 C 33364.333333 -1119.666667 33301.000000 -1025.000000 33233.000000 -947.000000 C 33229.666667 -950.333333 33224.666667 -954.000000 33218.000000 -958.000000 C 33211.333333 -962.000000 33204.333333 -966.000000 33197.000000 -970.000000 C 33190.333333 -974.666667 33184.000000 -978.333333 33178.000000 -981.000000 C 33249.333333 -1056.333333 33313.666667 -1148.333333 33371.000000 -1257.000000 C 33429.000000 -1366.333333 33476.000000 -1479.333333 33512.000000 -1596.000000z M 33437.000000 -1054.000000 C 33455.333333 -1054.000000 33473.666667 -1054.000000 33492.000000 -1054.000000 C 33483.333333 -977.333333 33472.666667 -893.666667 33460.000000 -803.000000 C 33447.333333 -713.000000 33433.666667 -622.333333 33419.000000 -531.000000 C 33405.000000 -439.666667 33391.333333 -353.000000 33378.000000 -271.000000 C 33364.666667 -189.000000 33352.333333 -117.333333 33341.000000 -56.000000 C 33321.666667 -59.000000 33302.333333 -62.000000 33283.000000 -65.000000 C 33295.666667 -126.333333 33309.000000 -198.000000 33323.000000 -280.000000 C 33337.666667 -362.000000 33352.000000 -448.333333 33366.000000 -539.000000 C 33380.000000 -630.333333 33393.000000 -720.333333 33405.000000 -809.000000 C 33417.000000 -898.333333 33427.666667 -980.000000 33437.000000 -1054.000000z M 33836.000000 -1023.000000 C 33854.000000 -1023.000000 33872.000000 -1023.000000 33890.000000 -1023.000000 C 33883.333333 -957.000000 33876.000000 -885.333333 33868.000000 -808.000000 C 33860.666667 -731.333333 33852.666667 -654.000000 33844.000000 -576.000000 C 33836.000000 -498.000000 33827.333333 -424.000000 33818.000000 -354.000000 C 33809.333333 -284.666667 33801.333333 -223.666667 33794.000000 -171.000000 C 33776.000000 -171.000000 33758.000000 -171.000000 33740.000000 -171.000000 C 33748.000000 -223.666667 33756.333333 -285.333333 33765.000000 -356.000000 C 33774.333333 -427.333333 33783.333333 -502.000000 33792.000000 -580.000000 C 33800.666667 -658.000000 33808.666667 -735.000000 33816.000000 -811.000000 C 33824.000000 -887.000000 33830.666667 -957.666667 33836.000000 -1023.000000z M 34266.000000 -1054.000000 C 34284.666667 -1054.000000 34303.333333 -1054.000000 34322.000000 -1054.000000 C 34322.000000 -1054.000000 34322.000000 -1051.000000 34322.000000 -1045.000000 C 34322.000000 -1039.666667 34322.000000 -1033.666667 34322.000000 -1027.000000 C 34322.000000 -1021.000000 34322.000000 -1016.000000 34322.000000 -1012.000000 C 34314.000000 -820.000000 34305.666667 -658.000000 34297.000000 -526.000000 C 34289.000000 -394.000000 34280.333333 -286.333333 34271.000000 -203.000000 C 34261.666667 -120.333333 34250.333333 -56.333333 34237.000000 -11.000000 C 34224.333333 33.666667 34209.666667 65.333333 34193.000000 84.000000 C 34179.000000 102.000000 34163.000000 114.333333 34145.000000 121.000000 C 34127.000000 127.666667 34105.333333 131.000000 34080.000000 131.000000 C 34053.333333 131.666667 34017.666667 131.333333 33973.000000 130.000000 C 33929.000000 129.333333 33882.666667 127.666667 33834.000000 125.000000 C 33832.666667 114.333333 33831.000000 104.000000 33829.000000 94.000000 C 33827.666667 84.000000 33823.666667 75.000000 33817.000000 67.000000 C 33873.000000 72.333333 33924.333333 75.333333 33971.000000 76.000000 C 34018.333333 76.666667 34051.333333 77.000000 34070.000000 77.000000 C 34088.000000 77.000000 34102.333333 75.666667 34113.000000 73.000000 C 34124.333333 70.333333 34134.333333 63.333333 34143.000000 52.000000 C 34158.333333 36.666667 34171.666667 6.666667 34183.000000 -38.000000 C 34195.000000 -83.333333 34205.666667 -147.666667 34215.000000 -231.000000 C 34225.000000 -315.000000 34234.000000 -423.333333 34242.000000 -556.000000 C 34250.666667 -688.666667 34258.666667 -849.666667 34266.000000 -1039.000000 C 34266.000000 -1044.000000 34266.000000 -1049.000000 34266.000000 -1054.000000z M 32832.000000 -1528.000000 C 32844.000000 -1541.666667 32856.000000 -1555.333333 32868.000000 -1569.000000 C 32908.000000 -1548.333333 32948.666667 -1524.666667 32990.000000 -1498.000000 C 33032.000000 -1472.000000 33070.333333 -1445.666667 33105.000000 -1419.000000 C 33140.333333 -1392.333333 33169.000000 -1366.666667 33191.000000 -1342.000000 C 33179.333333 -1326.666667 33167.666667 -1311.333333 33156.000000 -1296.000000 C 33133.333333 -1320.000000 33104.000000 -1346.000000 33068.000000 -1374.000000 C 33032.000000 -1402.666667 32993.666667 -1430.333333 32953.000000 -1457.000000 C 32912.333333 -1484.333333 32872.000000 -1508.000000 32832.000000 -1528.000000z M 32734.000000 -1016.000000 C 32745.666667 -1030.000000 32757.333333 -1044.000000 32769.000000 -1058.000000 C 32809.666667 -1040.000000 32851.000000 -1019.000000 32893.000000 -995.000000 C 32935.666667 -971.666667 32975.000000 -947.000000 33011.000000 -921.000000 C 33047.666667 -895.666667 33077.666667 -872.333333 33101.000000 -851.000000 C 33090.000000 -835.333333 33079.000000 -819.666667 33068.000000 -804.000000 C 33045.333333 -827.333333 33015.333333 -851.666667 32978.000000 -877.000000 C 32940.666667 -903.000000 32901.000000 -928.000000 32859.000000 -952.000000 C 32817.000000 -976.666667 32775.333333 -998.000000 32734.000000 -1016.000000z M 32788.000000 67.000000 C 32818.666667 17.000000 32852.333333 -43.000000 32889.000000 -113.000000 C 32926.333333 -183.666667 32964.000000 -258.000000 33002.000000 -336.000000 C 33040.000000 -414.000000 33074.333333 -488.333333 33105.000000 -559.000000 C 33120.333333 -547.333333 33135.666667 -535.666667 33151.000000 -524.000000 C 33121.666667 -457.333333 33088.666667 -386.000000 33052.000000 -310.000000 C 33015.333333 -234.000000 32978.333333 -159.666667 32941.000000 -87.000000 C 32904.333333 -15.000000 32869.333333 49.333333 32836.000000 106.000000 C 32820.000000 93.000000 32804.000000 80.000000 32788.000000 67.000000z "/>
</g></svg>
