<?xml version="1.0" ?>
<svg xmlns="http://www.w3.org/2000/svg" version="1.1" width="600" height="600">
  <defs/>
  <g>
    <path stroke-width="0" fill="rgb(0, 0, 0)" opacity="1.0" d="M 350.203857421875 133.93771362304688 C 342.315673828125 149.02423095703125 331.9365234375 164.73358154296875 319.06640625 181.06573486328125 C 306.334716796875 197.39791870117188 292.14990234375 213.24566650390625 276.511962890625 228.6090087890625 C 260.874267578125 243.83392333984375 244.544189453125 257.60552978515625 227.5224609375 269.92388916015625 C 226.692138671875 268.539794921875 225.44677734375 267.0173034667969 223.7861328125 265.35638427734375 C 222.263916015625 263.5570983886719 220.810791015625 262.10382080078125 219.4267578125 260.99652099609375 C 236.448486328125 249.3702392578125 252.84765625 235.87542724609375 268.623779296875 220.51211547851562 C 284.53857421875 205.0103759765625 299.0 188.74740600585938 312.008544921875 171.72317504882812 C 325.01708984375 154.698974609375 335.396240234375 137.95156860351562 343.14599609375 121.48095703125 C 347.090087890625 121.48095703125 351.0341796875 121.48095703125 354.978271484375 121.48095703125 C 365.357177734375 138.50518798828125 377.7431640625 155.460205078125 392.135498046875 172.34600830078125 C 406.52783203125 189.23184204101562 421.68115234375 205.07958984375 437.595947265625 219.8892822265625 C 453.5107421875 234.560546875 469.010009765625 247.08648681640625 484.094482421875 257.4671325683594 C 483.125732421875 258.8511962890625 481.81103515625 260.5121154785156 480.150390625 262.4498291015625 C 478.628173828125 264.2491455078125 477.3134765625 265.7716064453125 476.206298828125 267.0173034667969 C 460.84521484375 255.80621337890625 445.20751953125 242.86505126953125 429.292724609375 228.19378662109375 C 413.516357421875 213.38409423828125 398.778076171875 197.88235473632812 385.07763671875 181.6885986328125 C 371.377197265625 165.49481201171875 359.75244140625 149.577880859375 350.203857421875 133.93771362304688M 243.921630859375 313.7301025390625 C 310.832275390625 313.7301025390625 377.7431640625 313.7301025390625 444.65380859375 313.7301025390625 C 444.65380859375 317.53631591796875 444.65380859375 321.342529296875 444.65380859375 325.1488037109375 C 377.7431640625 325.1488037109375 310.832275390625 325.1488037109375 243.921630859375 325.1488037109375 C 243.921630859375 321.342529296875 243.921630859375 317.53631591796875 243.921630859375 313.7301025390625M 439.87939453125 313.7301025390625 C 443.75439453125 313.7301025390625 447.629150390625 313.7301025390625 451.50390625 313.7301025390625 C 451.50390625 350.75433349609375 451.50390625 387.778564453125 451.50390625 424.802734375 C 451.50390625 429.3702392578125 450.812255859375 432.899658203125 449.42822265625 435.3909912109375 C 448.1826171875 437.74395751953125 445.55322265625 439.40484619140625 441.5400390625 440.37371826171875 C 437.25 441.48095703125 430.88427734375 442.1729736328125 422.4423828125 442.4498291015625 C 414.13916015625 442.7266845703125 403.20654296875 442.86505126953125 389.64453125 442.86505126953125 C 389.36767578125 440.9273681640625 388.744873046875 438.9896240234375 387.776123046875 437.0518798828125 C 386.94580078125 435.11419677734375 385.97705078125 433.176513671875 384.8701171875 431.23876953125 C 397.46337890625 431.51556396484375 407.91162109375 431.65399169921875 416.215087890625 431.65399169921875 C 424.518310546875 431.65399169921875 430.192138671875 431.51556396484375 433.23681640625 431.23876953125 C 436.142822265625 430.9619140625 437.942138671875 430.4775390625 438.6337890625 429.78546142578125 C 439.464111328125 428.95501708984375 439.87939453125 427.29412841796875 439.87939453125 424.802734375 C 439.87939453125 387.778564453125 439.87939453125 350.75433349609375 439.87939453125 313.7301025390625M 279.21044921875 242.72662353515625 C 327.438720703125 242.72662353515625 375.667236328125 242.72662353515625 423.8955078125 242.72662353515625 C 423.8955078125 246.60208129882812 423.8955078125 250.47750854492188 423.8955078125 254.35293579101562 C 375.667236328125 254.35293579101562 327.438720703125 254.35293579101562 279.21044921875 254.35293579101562 C 279.21044921875 250.47750854492188 279.21044921875 246.60208129882812 279.21044921875 242.72662353515625M 329.860595703125 318.0899658203125 C 333.735595703125 318.0899658203125 337.6103515625 318.0899658203125 341.4853515625 318.0899658203125 C 341.4853515625 371.861572265625 341.4853515625 425.6331787109375 341.4853515625 479.40484619140625 C 337.6103515625 479.40484619140625 333.735595703125 479.40484619140625 329.860595703125 479.40484619140625 C 329.860595703125 425.6331787109375 329.860595703125 371.861572265625 329.860595703125 318.0899658203125M 179.986083984375 120.6505126953125 C 183.999267578125 120.6505126953125 188.0126953125 120.6505126953125 192.02587890625 120.6505126953125 C 192.02587890625 240.16607666015625 192.02587890625 359.681640625 192.02587890625 479.197265625 C 188.0126953125 479.197265625 183.999267578125 479.197265625 179.986083984375 479.197265625 C 179.986083984375 359.681640625 179.986083984375 240.16607666015625 179.986083984375 120.6505126953125M 138.67724609375 195.5986328125 C 142.48291015625 196.2906494140625 146.28857421875 196.98269653320312 150.09423828125 197.67474365234375 C 149.817626953125 208.88580322265625 148.8486328125 220.92733764648438 147.18798828125 233.79931640625 C 145.52734375 246.6712646484375 143.036376953125 259.1280517578125 139.715087890625 271.1695556640625 C 136.393798828125 283.0726623535156 132.03466796875 293.24566650390625 126.637451171875 301.6885986328125 C 123.177734375 299.95849609375 119.718017578125 298.2283935546875 116.25830078125 296.498291015625 C 121.378662109375 288.6090087890625 125.5302734375 278.92041015625 128.713134765625 267.4325256347656 C 131.89599609375 255.94464111328125 134.248779296875 243.97232055664062 135.77099609375 231.51556396484375 C 137.431640625 219.058837890625 138.400390625 207.08651733398438 138.67724609375 195.5986328125M 207.179443359375 182.10382080078125 C 210.3623046875 180.51211547851562 213.54541015625 178.92041015625 216.728271484375 177.3287353515625 C 222.263916015625 186.32525634765625 227.384033203125 196.221435546875 232.08935546875 207.01730346679688 C 236.932861328125 217.81317138671875 240.323486328125 226.8096923828125 242.260986328125 234.00692749023438 C 238.939453125 236.08306884765625 235.6181640625 238.1591796875 232.296875 240.23529052734375 C 230.22119140625 232.62286376953125 226.76123046875 223.2802734375 221.917724609375 212.20761108398438 C 217.07421875 201.13494873046875 212.161376953125 191.100341796875 207.179443359375 182.10382080078125"/>
  </g>
</svg>
