<?xml version="1.0" encoding="utf-8"?>
<svg xmlns="http://www.w3.org/2000/svg" xmlns:ev="http://www.w3.org/2001/xml-events" xmlns:xlink="http://www.w3.org/1999/xlink" version="1.1" baseProfile="full" width="7507.0" height="1730.0" viewBox="79.0 -1588.0 7507.0 1730.0">
<defs/>
<g><path d="M 288.000000 -1494.000000 C 307.333333 -1494.000000 326.666667 -1494.000000 346.000000 -1494.000000 C 346.000000 -1309.666667 346.000000 -1125.333333 346.000000 -941.000000 C 346.000000 -863.000000 343.333333 -778.333333 338.000000 -687.000000 C 332.666667 -596.333333 322.666667 -503.333333 308.000000 -408.000000 C 293.333333 -312.666667 271.666667 -219.333333 243.000000 -128.000000 C 214.333333 -37.333333 175.666667 47.000000 127.000000 125.000000 C 123.000000 121.000000 118.000000 117.000000 112.000000 113.000000 C 106.666667 109.666667 101.000000 106.000000 95.000000 102.000000 C 89.000000 98.000000 83.666667 94.666667 79.000000 92.000000 C 126.333333 15.333333 164.000000 -66.666667 192.000000 -154.000000 C 220.000000 -242.000000 240.666667 -331.666667 254.000000 -423.000000 C 268.000000 -515.000000 277.000000 -605.000000 281.000000 -693.000000 C 285.666667 -781.666667 288.000000 -864.333333 288.000000 -941.000000 C 288.000000 -1125.333333 288.000000 -1309.666667 288.000000 -1494.000000z M 315.000000 -1494.000000 C 768.666667 -1494.000000 1222.333333 -1494.000000 1676.000000 -1494.000000 C 1676.000000 -1384.000000 1676.000000 -1274.000000 1676.000000 -1164.000000 C 1222.333333 -1164.000000 768.666667 -1164.000000 315.000000 -1164.000000 C 315.000000 -1182.333333 315.000000 -1200.666667 315.000000 -1219.000000 C 750.000000 -1219.000000 1185.000000 -1219.000000 1620.000000 -1219.000000 C 1620.000000 -1292.000000 1620.000000 -1365.000000 1620.000000 -1438.000000 C 1185.000000 -1438.000000 750.000000 -1438.000000 315.000000 -1438.000000 C 315.000000 -1456.666667 315.000000 -1475.333333 315.000000 -1494.000000z M 659.000000 -1139.000000 C 674.333333 -1147.333333 689.666667 -1155.666667 705.000000 -1164.000000 C 733.000000 -1139.333333 760.000000 -1111.000000 786.000000 -1079.000000 C 812.666667 -1047.000000 831.000000 -1018.333333 841.000000 -993.000000 C 825.666667 -983.333333 810.333333 -973.666667 795.000000 -964.000000 C 783.666667 -989.333333 765.333333 -1018.666667 740.000000 -1052.000000 C 715.333333 -1085.333333 688.333333 -1114.333333 659.000000 -1139.000000z M 1398.000000 -1167.000000 C 1415.333333 -1157.666667 1432.666667 -1148.333333 1450.000000 -1139.000000 C 1425.333333 -1107.000000 1399.333333 -1075.000000 1372.000000 -1043.000000 C 1345.333333 -1011.666667 1320.000000 -985.333333 1296.000000 -964.000000 C 1282.000000 -971.666667 1268.000000 -979.333333 1254.000000 -987.000000 C 1276.666667 -1011.000000 1302.000000 -1040.666667 1330.000000 -1076.000000 C 1358.666667 -1111.333333 1381.333333 -1141.666667 1398.000000 -1167.000000z M 576.000000 -405.000000 C 914.000000 -405.000000 1252.000000 -405.000000 1590.000000 -405.000000 C 1590.000000 -227.000000 1590.000000 -49.000000 1590.000000 129.000000 C 1571.333333 129.000000 1552.666667 129.000000 1534.000000 129.000000 C 1534.000000 -30.000000 1534.000000 -189.000000 1534.000000 -348.000000 C 1233.333333 -348.000000 932.666667 -348.000000 632.000000 -348.000000 C 632.000000 -187.333333 632.000000 -26.666667 632.000000 134.000000 C 613.333333 134.000000 594.666667 134.000000 576.000000 134.000000 C 576.000000 -45.666667 576.000000 -225.333333 576.000000 -405.000000z M 538.000000 -733.000000 C 538.000000 -679.333333 538.000000 -625.666667 538.000000 -572.000000 C 897.000000 -572.000000 1256.000000 -572.000000 1615.000000 -572.000000 C 1615.000000 -625.666667 1615.000000 -679.333333 1615.000000 -733.000000 C 1256.000000 -733.000000 897.000000 -733.000000 538.000000 -733.000000z M 538.000000 -948.000000 C 538.000000 -895.666667 538.000000 -843.333333 538.000000 -791.000000 C 897.000000 -791.000000 1256.000000 -791.000000 1615.000000 -791.000000 C 1615.000000 -843.333333 1615.000000 -895.666667 1615.000000 -948.000000 C 1256.000000 -948.000000 897.000000 -948.000000 538.000000 -948.000000z M 480.000000 -1004.000000 C 876.666667 -1004.000000 1273.333333 -1004.000000 1670.000000 -1004.000000 C 1670.000000 -841.333333 1670.000000 -678.666667 1670.000000 -516.000000 C 1273.333333 -516.000000 876.666667 -516.000000 480.000000 -516.000000 C 480.000000 -678.666667 480.000000 -841.333333 480.000000 -1004.000000z M 1039.000000 -985.000000 C 1058.000000 -985.000000 1077.000000 -985.000000 1096.000000 -985.000000 C 1096.000000 -837.666667 1096.000000 -690.333333 1096.000000 -543.000000 C 1077.000000 -543.000000 1058.000000 -543.000000 1039.000000 -543.000000 C 1039.000000 -690.333333 1039.000000 -837.666667 1039.000000 -985.000000z M 601.000000 -202.000000 C 920.333333 -202.000000 1239.666667 -202.000000 1559.000000 -202.000000 C 1559.000000 -183.333333 1559.000000 -164.666667 1559.000000 -146.000000 C 1239.666667 -146.000000 920.333333 -146.000000 601.000000 -146.000000 C 601.000000 -164.666667 601.000000 -183.333333 601.000000 -202.000000z M 601.000000 10.000000 C 920.333333 10.000000 1239.666667 10.000000 1559.000000 10.000000 C 1559.000000 28.333333 1559.000000 46.666667 1559.000000 65.000000 C 1239.666667 65.000000 920.333333 65.000000 601.000000 65.000000 C 601.000000 46.666667 601.000000 28.333333 601.000000 10.000000z "/>
</g>
<g><path d="M 3005.000000 -1471.000000 C 3002.333333 -1457.000000 2999.333333 -1436.666667 2996.000000 -1410.000000 C 2992.666667 -1384.000000 2990.000000 -1360.000000 2988.000000 -1338.000000 C 2978.666667 -1269.333333 2969.333333 -1199.666667 2960.000000 -1129.000000 C 2951.333333 -1058.333333 2939.333333 -987.000000 2924.000000 -915.000000 C 2908.666667 -843.666667 2887.666667 -771.000000 2861.000000 -697.000000 C 2829.000000 -609.666667 2792.666667 -527.666667 2752.000000 -451.000000 C 2712.000000 -374.333333 2669.000000 -306.666667 2623.000000 -248.000000 C 2577.000000 -190.000000 2527.333333 -144.666667 2474.000000 -112.000000 C 2420.666667 -79.333333 2364.666667 -63.000000 2306.000000 -63.000000 C 2267.333333 -63.000000 2233.000000 -74.000000 2203.000000 -96.000000 C 2173.000000 -118.000000 2149.333333 -148.000000 2132.000000 -186.000000 C 2114.666667 -224.666667 2106.000000 -269.666667 2106.000000 -321.000000 C 2106.000000 -410.333333 2119.666667 -492.666667 2147.000000 -568.000000 C 2175.000000 -644.000000 2210.666667 -713.333333 2254.000000 -776.000000 C 2284.666667 -824.666667 2324.666667 -873.666667 2374.000000 -923.000000 C 2423.333333 -973.000000 2481.333333 -1019.000000 2548.000000 -1061.000000 C 2614.666667 -1103.666667 2689.333333 -1138.000000 2772.000000 -1164.000000 C 2855.333333 -1190.666667 2947.000000 -1204.000000 3047.000000 -1204.000000 C 3116.333333 -1204.000000 3183.000000 -1192.333333 3247.000000 -1169.000000 C 3311.000000 -1146.333333 3368.333333 -1112.666667 3419.000000 -1068.000000 C 3470.333333 -1024.000000 3511.000000 -969.000000 3541.000000 -903.000000 C 3571.666667 -837.000000 3587.000000 -761.333333 3587.000000 -676.000000 C 3587.000000 -572.000000 3578.000000 -478.666667 3560.000000 -396.000000 C 3542.000000 -314.000000 3514.666667 -243.333333 3478.000000 -184.000000 C 3441.333333 -125.333333 3395.666667 -80.666667 3341.000000 -50.000000 C 3287.000000 -19.333333 3223.666667 -4.000000 3151.000000 -4.000000 C 3069.000000 -4.000000 3004.333333 -23.666667 2957.000000 -63.000000 C 2909.666667 -103.000000 2886.000000 -155.666667 2886.000000 -221.000000 C 2886.000000 -261.666667 2897.666667 -298.333333 2921.000000 -331.000000 C 2945.000000 -363.666667 2977.666667 -389.333333 3019.000000 -408.000000 C 3061.000000 -426.666667 3108.000000 -436.000000 3160.000000 -436.000000 C 3230.666667 -436.000000 3295.666667 -424.666667 3355.000000 -402.000000 C 3414.333333 -380.000000 3468.333333 -352.000000 3517.000000 -318.000000 C 3565.666667 -284.000000 3608.666667 -248.666667 3646.000000 -212.000000 C 3683.333333 -175.333333 3714.666667 -142.333333 3740.000000 -113.000000 C 3726.000000 -95.333333 3712.000000 -77.666667 3698.000000 -60.000000 C 3673.333333 -90.666667 3643.000000 -124.333333 3607.000000 -161.000000 C 3571.666667 -198.333333 3531.333333 -234.000000 3486.000000 -268.000000 C 3440.666667 -302.000000 3390.666667 -329.666667 3336.000000 -351.000000 C 3281.333333 -373.000000 3222.666667 -384.000000 3160.000000 -384.000000 C 3086.000000 -384.000000 3030.333333 -366.666667 2993.000000 -332.000000 C 2956.333333 -297.333333 2938.000000 -261.000000 2938.000000 -223.000000 C 2938.000000 -174.333333 2956.666667 -134.333333 2994.000000 -103.000000 C 3032.000000 -71.666667 3084.333333 -56.000000 3151.000000 -56.000000 C 3223.666667 -56.000000 3284.333333 -72.666667 3333.000000 -106.000000 C 3381.666667 -140.000000 3420.333333 -186.000000 3449.000000 -244.000000 C 3477.666667 -302.666667 3498.333333 -369.000000 3511.000000 -443.000000 C 3524.333333 -517.666667 3531.000000 -594.666667 3531.000000 -674.000000 C 3531.000000 -731.333333 3521.000000 -788.333333 3501.000000 -845.000000 C 3481.000000 -902.333333 3450.666667 -954.000000 3410.000000 -1000.000000 C 3370.000000 -1046.000000 3319.666667 -1082.666667 3259.000000 -1110.000000 C 3198.333333 -1138.000000 3127.000000 -1152.000000 3045.000000 -1152.000000 C 2939.000000 -1152.000000 2839.000000 -1135.000000 2745.000000 -1101.000000 C 2651.000000 -1067.000000 2565.666667 -1019.333333 2489.000000 -958.000000 C 2413.000000 -896.666667 2348.000000 -824.333333 2294.000000 -741.000000 C 2263.333333 -692.333333 2238.000000 -645.333333 2218.000000 -600.000000 C 2198.666667 -554.666667 2184.000000 -509.333333 2174.000000 -464.000000 C 2164.666667 -419.333333 2160.000000 -372.333333 2160.000000 -323.000000 C 2160.000000 -259.666667 2175.666667 -209.666667 2207.000000 -173.000000 C 2238.333333 -137.000000 2270.666667 -119.000000 2304.000000 -119.000000 C 2354.000000 -119.000000 2402.666667 -134.000000 2450.000000 -164.000000 C 2497.333333 -194.000000 2542.666667 -236.333333 2586.000000 -291.000000 C 2630.000000 -346.333333 2671.666667 -410.666667 2711.000000 -484.000000 C 2751.000000 -558.000000 2787.000000 -638.666667 2819.000000 -726.000000 C 2840.333333 -786.000000 2858.333333 -851.666667 2873.000000 -923.000000 C 2887.666667 -995.000000 2899.333333 -1066.333333 2908.000000 -1137.000000 C 2917.333333 -1208.333333 2924.666667 -1272.333333 2930.000000 -1329.000000 C 2932.666667 -1353.000000 2934.000000 -1376.333333 2934.000000 -1399.000000 C 2934.000000 -1422.333333 2932.666667 -1447.666667 2930.000000 -1475.000000 C 2955.000000 -1473.666667 2980.000000 -1472.333333 3005.000000 -1471.000000z M 2279.000000 -1290.000000 C 2291.666667 -1235.333333 2308.333333 -1176.666667 2329.000000 -1114.000000 C 2349.666667 -1051.333333 2371.333333 -990.000000 2394.000000 -930.000000 C 2417.333333 -870.666667 2439.000000 -816.000000 2459.000000 -766.000000 C 2479.666667 -716.000000 2497.000000 -675.666667 2511.000000 -645.000000 C 2530.333333 -603.000000 2555.333333 -555.333333 2586.000000 -502.000000 C 2616.666667 -448.666667 2647.333333 -403.000000 2678.000000 -365.000000 C 2668.000000 -350.333333 2658.000000 -335.666667 2648.000000 -321.000000 C 2627.333333 -345.000000 2605.000000 -374.666667 2581.000000 -410.000000 C 2557.666667 -445.333333 2536.000000 -481.000000 2516.000000 -517.000000 C 2496.000000 -553.666667 2479.000000 -586.666667 2465.000000 -616.000000 C 2448.333333 -654.666667 2428.000000 -703.000000 2404.000000 -761.000000 C 2380.666667 -819.666667 2357.666667 -879.333333 2335.000000 -940.000000 C 2313.000000 -1000.666667 2295.000000 -1052.666667 2281.000000 -1096.000000 C 2274.333333 -1119.333333 2267.333333 -1141.333333 2260.000000 -1162.000000 C 2253.333333 -1183.333333 2246.333333 -1203.000000 2239.000000 -1221.000000 C 2232.333333 -1239.000000 2226.000000 -1255.000000 2220.000000 -1269.000000 C 2239.666667 -1276.000000 2259.333333 -1283.000000 2279.000000 -1290.000000z "/>
</g>
<g><path d="M 4053.000000 -1164.000000 C 4082.333333 -1160.000000 4113.666667 -1157.000000 4147.000000 -1155.000000 C 4180.333333 -1153.000000 4220.666667 -1152.000000 4268.000000 -1152.000000 C 4328.000000 -1152.000000 4392.333333 -1154.000000 4461.000000 -1158.000000 C 4529.666667 -1162.666667 4603.000000 -1172.000000 4681.000000 -1186.000000 C 4759.000000 -1200.666667 4841.000000 -1222.000000 4927.000000 -1250.000000 C 4927.666667 -1229.000000 4928.333333 -1208.000000 4929.000000 -1187.000000 C 4858.333333 -1167.666667 4786.000000 -1151.000000 4712.000000 -1137.000000 C 4638.666667 -1123.666667 4564.666667 -1113.333333 4490.000000 -1106.000000 C 4415.333333 -1099.333333 4340.666667 -1096.000000 4266.000000 -1096.000000 C 4234.000000 -1096.000000 4198.666667 -1096.333333 4160.000000 -1097.000000 C 4122.000000 -1097.666667 4087.666667 -1098.666667 4057.000000 -1100.000000 C 4055.666667 -1121.333333 4054.333333 -1142.666667 4053.000000 -1164.000000z M 4668.000000 -1501.000000 C 4660.000000 -1473.000000 4650.666667 -1437.000000 4640.000000 -1393.000000 C 4630.000000 -1349.000000 4619.000000 -1303.666667 4607.000000 -1257.000000 C 4595.000000 -1210.333333 4582.666667 -1168.333333 4570.000000 -1131.000000 C 4538.000000 -1039.000000 4498.000000 -942.666667 4450.000000 -842.000000 C 4402.000000 -741.333333 4351.000000 -644.666667 4297.000000 -552.000000 C 4243.000000 -459.333333 4190.000000 -379.000000 4138.000000 -311.000000 C 4116.666667 -322.666667 4095.333333 -334.333333 4074.000000 -346.000000 C 4116.666667 -393.333333 4159.333333 -448.666667 4202.000000 -512.000000 C 4244.666667 -575.333333 4285.000000 -642.333333 4323.000000 -713.000000 C 4361.666667 -784.333333 4397.333333 -855.333333 4430.000000 -926.000000 C 4462.666667 -997.333333 4489.333333 -1063.666667 4510.000000 -1125.000000 C 4528.000000 -1177.666667 4546.000000 -1239.666667 4564.000000 -1311.000000 C 4582.000000 -1383.000000 4592.333333 -1449.000000 4595.000000 -1509.000000 C 4619.333333 -1506.333333 4643.666667 -1503.666667 4668.000000 -1501.000000z M 5123.000000 -914.000000 C 5121.666667 -875.333333 5120.333333 -844.333333 5119.000000 -821.000000 C 5117.666667 -798.333333 5117.666667 -773.666667 5119.000000 -747.000000 C 5120.333333 -712.333333 5121.666667 -670.000000 5123.000000 -620.000000 C 5125.000000 -570.000000 5127.333333 -517.000000 5130.000000 -461.000000 C 5132.666667 -405.666667 5135.000000 -352.000000 5137.000000 -300.000000 C 5139.000000 -248.666667 5140.000000 -204.333333 5140.000000 -167.000000 C 5140.000000 -125.000000 5128.666667 -85.666667 5106.000000 -49.000000 C 5084.000000 -12.333333 5050.666667 16.666667 5006.000000 38.000000 C 4962.000000 60.000000 4906.000000 71.000000 4838.000000 71.000000 C 4776.666667 71.000000 4720.333333 63.333333 4669.000000 48.000000 C 4618.333333 32.666667 4577.333333 7.666667 4546.000000 -27.000000 C 4514.666667 -61.666667 4499.000000 -107.000000 4499.000000 -163.000000 C 4499.000000 -219.666667 4515.666667 -265.666667 4549.000000 -301.000000 C 4583.000000 -337.000000 4626.333333 -363.666667 4679.000000 -381.000000 C 4731.666667 -398.333333 4785.333333 -407.000000 4840.000000 -407.000000 C 4944.000000 -407.000000 5038.333333 -392.666667 5123.000000 -364.000000 C 5208.333333 -335.333333 5285.333333 -299.000000 5354.000000 -255.000000 C 5422.666667 -211.666667 5483.000000 -169.000000 5535.000000 -127.000000 C 5523.000000 -109.000000 5511.000000 -91.000000 5499.000000 -73.000000 C 5459.000000 -107.666667 5415.666667 -142.000000 5369.000000 -176.000000 C 5322.333333 -210.000000 5271.333333 -240.333333 5216.000000 -267.000000 C 5161.333333 -293.666667 5103.000000 -315.333333 5041.000000 -332.000000 C 4979.000000 -348.666667 4913.333333 -357.000000 4844.000000 -357.000000 C 4758.666667 -357.000000 4689.000000 -338.666667 4635.000000 -302.000000 C 4581.000000 -266.000000 4554.000000 -220.333333 4554.000000 -165.000000 C 4554.000000 -111.000000 4576.333333 -67.333333 4621.000000 -34.000000 C 4666.333333 -1.333333 4737.666667 15.000000 4835.000000 15.000000 C 4897.666667 15.000000 4947.333333 6.000000 4984.000000 -12.000000 C 5021.333333 -30.666667 5048.000000 -55.333333 5064.000000 -86.000000 C 5080.000000 -116.666667 5088.000000 -148.666667 5088.000000 -182.000000 C 5088.000000 -227.333333 5087.000000 -280.000000 5085.000000 -340.000000 C 5083.000000 -400.000000 5080.333333 -463.666667 5077.000000 -531.000000 C 5074.333333 -598.333333 5071.666667 -665.000000 5069.000000 -731.000000 C 5066.333333 -797.666667 5064.333333 -858.666667 5063.000000 -914.000000 C 5083.000000 -914.000000 5103.000000 -914.000000 5123.000000 -914.000000z M 5560.000000 -914.000000 C 5528.000000 -943.333333 5487.000000 -974.000000 5437.000000 -1006.000000 C 5387.666667 -1038.000000 5336.666667 -1068.333333 5284.000000 -1097.000000 C 5231.333333 -1125.666667 5184.666667 -1149.666667 5144.000000 -1169.000000 C 5154.000000 -1183.666667 5164.000000 -1198.333333 5174.000000 -1213.000000 C 5208.666667 -1197.666667 5246.000000 -1179.333333 5286.000000 -1158.000000 C 5326.666667 -1137.333333 5366.666667 -1115.000000 5406.000000 -1091.000000 C 5446.000000 -1067.666667 5482.666667 -1044.666667 5516.000000 -1022.000000 C 5549.333333 -1000.000000 5576.333333 -980.666667 5597.000000 -964.000000 C 5584.666667 -947.333333 5572.333333 -930.666667 5560.000000 -914.000000z "/>
</g>
<g><path d="M 6382.000000 -791.000000 C 6783.333333 -791.000000 7184.666667 -791.000000 7586.000000 -791.000000 C 7586.000000 -771.666667 7586.000000 -752.333333 7586.000000 -733.000000 C 7184.666667 -733.000000 6783.333333 -733.000000 6382.000000 -733.000000 C 6382.000000 -752.333333 6382.000000 -771.666667 6382.000000 -791.000000z M 6607.000000 -557.000000 C 6901.333333 -557.000000 7195.666667 -557.000000 7490.000000 -557.000000 C 7490.000000 -538.333333 7490.000000 -519.666667 7490.000000 -501.000000 C 7195.666667 -501.000000 6901.333333 -501.000000 6607.000000 -501.000000 C 6607.000000 -519.666667 6607.000000 -538.333333 6607.000000 -557.000000z M 6720.000000 -768.000000 C 6738.000000 -763.000000 6756.000000 -758.000000 6774.000000 -753.000000 C 6724.000000 -650.333333 6658.333333 -555.000000 6577.000000 -467.000000 C 6495.666667 -379.666667 6411.333333 -306.000000 6324.000000 -246.000000 C 6322.000000 -250.000000 6318.333333 -254.333333 6313.000000 -259.000000 C 6307.666667 -264.333333 6302.000000 -269.333333 6296.000000 -274.000000 C 6290.666667 -279.333333 6285.333333 -283.333333 6280.000000 -286.000000 C 6368.666667 -342.666667 6452.333333 -412.666667 6531.000000 -496.000000 C 6609.666667 -580.000000 6672.666667 -670.666667 6720.000000 -768.000000z M 7473.000000 -557.000000 C 7492.000000 -557.000000 7511.000000 -557.000000 7530.000000 -557.000000 C 7530.000000 -557.000000 7529.666667 -552.333333 7529.000000 -543.000000 C 7528.333333 -534.333333 7527.333333 -526.666667 7526.000000 -520.000000 C 7516.000000 -380.666667 7505.000000 -268.666667 7493.000000 -184.000000 C 7481.666667 -100.000000 7469.666667 -36.333333 7457.000000 7.000000 C 7444.333333 51.000000 7429.000000 82.000000 7411.000000 100.000000 C 7398.333333 112.666667 7385.000000 121.000000 7371.000000 125.000000 C 7357.000000 129.000000 7339.000000 131.333333 7317.000000 132.000000 C 7297.666667 132.000000 7271.000000 131.666667 7237.000000 131.000000 C 7203.666667 131.000000 7168.333333 129.666667 7131.000000 127.000000 C 7131.000000 119.000000 7129.666667 109.666667 7127.000000 99.000000 C 7124.333333 88.333333 7120.666667 79.000000 7116.000000 71.000000 C 7158.000000 75.000000 7196.333333 77.666667 7231.000000 79.000000 C 7266.333333 80.333333 7291.333333 81.000000 7306.000000 81.000000 C 7320.000000 81.000000 7331.666667 80.000000 7341.000000 78.000000 C 7351.000000 76.000000 7359.000000 70.333333 7365.000000 61.000000 C 7380.333333 47.000000 7394.000000 18.666667 7406.000000 -24.000000 C 7418.666667 -66.666667 7430.333333 -130.000000 7441.000000 -214.000000 C 7451.666667 -298.000000 7462.333333 -407.666667 7473.000000 -543.000000 C 7473.000000 -547.666667 7473.000000 -552.333333 7473.000000 -557.000000z M 6649.000000 -1204.000000 C 6649.000000 -1133.000000 6649.000000 -1062.000000 6649.000000 -991.000000 C 6895.333333 -991.000000 7141.666667 -991.000000 7388.000000 -991.000000 C 7388.000000 -1062.000000 7388.000000 -1133.000000 7388.000000 -1204.000000 C 7141.666667 -1204.000000 6895.333333 -1204.000000 6649.000000 -1204.000000z M 6649.000000 -1473.000000 C 6649.000000 -1402.333333 6649.000000 -1331.666667 6649.000000 -1261.000000 C 6895.333333 -1261.000000 7141.666667 -1261.000000 7388.000000 -1261.000000 C 7388.000000 -1331.666667 7388.000000 -1402.333333 7388.000000 -1473.000000 C 7141.666667 -1473.000000 6895.333333 -1473.000000 6649.000000 -1473.000000z M 6591.000000 -1528.000000 C 6875.333333 -1528.000000 7159.666667 -1528.000000 7444.000000 -1528.000000 C 7444.000000 -1329.666667 7444.000000 -1131.333333 7444.000000 -933.000000 C 7159.666667 -933.000000 6875.333333 -933.000000 6591.000000 -933.000000 C 6591.000000 -1131.333333 6591.000000 -1329.666667 6591.000000 -1528.000000z M 5877.000000 -1167.000000 C 6060.666667 -1167.000000 6244.333333 -1167.000000 6428.000000 -1167.000000 C 6428.000000 -1148.000000 6428.000000 -1129.000000 6428.000000 -1110.000000 C 6244.333333 -1110.000000 6060.666667 -1110.000000 5877.000000 -1110.000000 C 5877.000000 -1129.000000 5877.000000 -1148.000000 5877.000000 -1167.000000z M 6132.000000 -1588.000000 C 6151.333333 -1588.000000 6170.666667 -1588.000000 6190.000000 -1588.000000 C 6190.000000 -1198.666667 6190.000000 -809.333333 6190.000000 -420.000000 C 6170.666667 -420.000000 6151.333333 -420.000000 6132.000000 -420.000000 C 6132.000000 -809.333333 6132.000000 -1198.666667 6132.000000 -1588.000000z M 5846.000000 -309.000000 C 5894.666667 -331.000000 5950.333333 -357.000000 6013.000000 -387.000000 C 6076.333333 -417.000000 6143.333333 -449.333333 6214.000000 -484.000000 C 6285.333333 -518.666667 6356.666667 -553.333333 6428.000000 -588.000000 C 6432.666667 -569.333333 6437.333333 -550.666667 6442.000000 -532.000000 C 6342.000000 -483.333333 6241.666667 -434.333333 6141.000000 -385.000000 C 6040.333333 -335.666667 5951.000000 -291.666667 5873.000000 -253.000000 C 5864.000000 -271.666667 5855.000000 -290.333333 5846.000000 -309.000000z M 7202.000000 -549.000000 C 7217.333333 -541.333333 7232.666667 -533.666667 7248.000000 -526.000000 C 7224.666667 -440.000000 7192.333333 -354.000000 7151.000000 -268.000000 C 7109.666667 -182.666667 7062.666667 -104.000000 7010.000000 -32.000000 C 6957.333333 39.333333 6901.000000 97.333333 6841.000000 142.000000 C 6835.666667 135.333333 6828.333333 128.333333 6819.000000 121.000000 C 6810.333333 114.333333 6801.666667 109.333333 6793.000000 106.000000 C 6851.666667 63.333333 6908.000000 7.000000 6962.000000 -63.000000 C 7016.000000 -133.666667 7063.666667 -211.333333 7105.000000 -296.000000 C 7146.333333 -381.333333 7178.666667 -465.666667 7202.000000 -549.000000z M 6893.000000 -541.000000 C 6908.333333 -532.666667 6923.666667 -524.333333 6939.000000 -516.000000 C 6905.666667 -443.333333 6862.666667 -370.000000 6810.000000 -296.000000 C 6758.000000 -222.666667 6700.000000 -155.000000 6636.000000 -93.000000 C 6572.666667 -31.000000 6509.000000 20.333333 6445.000000 61.000000 C 6440.333333 55.000000 6434.000000 47.666667 6426.000000 39.000000 C 6418.666667 31.000000 6411.000000 24.333333 6403.000000 19.000000 C 6465.666667 -17.666667 6528.666667 -66.000000 6592.000000 -126.000000 C 6655.333333 -186.666667 6713.333333 -253.000000 6766.000000 -325.000000 C 6818.666667 -397.666667 6861.000000 -469.666667 6893.000000 -541.000000z "/>
</g>
</svg>
