<?xml version="1.0" ?>
<svg xmlns="http://www.w3.org/2000/svg" version="1.1" width="600" height="600">
  <defs/>
  <g>
    <path stroke-width="0" fill="rgb(0, 0, 0)" opacity="1.0" d="M 211.38671875 159.9053955078125 C 214.6298828125 160.17568969726562 218.142578125 160.37838745117188 221.9267578125 160.51351928710938 C 225.7099609375 160.64865112304688 228.7509765625 160.71621704101562 231.0478515625 160.71621704101562 C 234.966796875 160.71621704101562 241.6552734375 160.58108520507812 251.1142578125 160.31082153320312 C 260.57421875 160.04052734375 271.3837890625 159.6351318359375 283.5458984375 159.0946044921875 C 295.8427734375 158.5540771484375 308.0048828125 158.08108520507812 320.03125 157.67568969726562 C 332.0576171875 157.1351318359375 342.732421875 156.59457397460938 352.056640625 156.05404663085938 C 361.515625 155.51351928710938 368.13671875 155.10812377929688 371.9208984375 154.83782958984375 C 375.5693359375 154.29730224609375 378.0693359375 153.89190673828125 379.4208984375 153.62161254882812 C 380.90625 153.35134887695312 382.5966796875 152.94595336914062 384.48828125 152.4053955078125 C 388.13671875 155.91891479492188 391.78515625 159.43243408203125 395.43359375 162.94595336914062 C 392.7314453125 164.83786010742188 389.8935546875 166.93243408203125 386.919921875 169.229736328125 C 383.947265625 171.52703857421875 381.0419921875 174.02700805664062 378.2041015625 176.729736328125 C 373.880859375 180.24325561523438 366.9892578125 186.12164306640625 357.529296875 194.3648681640625 C 348.205078125 202.47296142578125 337.6650390625 211.5946044921875 325.9091796875 221.729736328125 C 314.15234375 231.8648681640625 302.4638671875 241.93243408203125 290.8427734375 251.93243408203125 C 279.3564453125 261.93243408203125 269.0869140625 270.8513488769531 260.033203125 278.689208984375 C 271.3837890625 274.229736328125 283.2080078125 271.189208984375 295.5048828125 269.56756591796875 C 307.8017578125 267.810791015625 319.6923828125 266.93243408203125 331.1787109375 266.93243408203125 C 352.1240234375 266.93243408203125 370.501953125 270.6486511230469 386.3125 278.0810852050781 C 402.2578125 285.37835693359375 414.6220703125 295.4459228515625 423.4052734375 308.2838134765625 C 432.1884765625 320.9864501953125 436.580078125 335.5135498046875 436.580078125 351.8648681640625 C 436.580078125 373.0810546875 430.837890625 390.851318359375 419.3515625 405.1756591796875 C 408.0009765625 419.3648681640625 392.7314453125 430.10809326171875 373.5419921875 437.4053955078125 C 354.353515625 444.70269775390625 332.9365234375 448.351318359375 309.2880859375 448.351318359375 C 292.26171875 448.351318359375 278.140625 446.189208984375 266.9248046875 441.8648681640625 C 255.84375 437.54052734375 247.533203125 431.8648681640625 241.9931640625 424.83782958984375 C 236.587890625 417.6756591796875 233.8857421875 409.770263671875 233.8857421875 401.12158203125 C 233.8857421875 393.95947265625 235.8447265625 387.270263671875 239.763671875 381.0540771484375 C 243.8173828125 374.70269775390625 249.62890625 369.70269775390625 257.1953125 366.0540771484375 C 264.7626953125 362.270263671875 273.61328125 360.37841796875 283.748046875 360.37841796875 C 300.5048828125 360.37841796875 314.2880859375 363.95947265625 325.0986328125 371.12158203125 C 335.908203125 378.148681640625 344.1513671875 387.270263671875 349.8271484375 398.4864501953125 C 355.5029296875 409.56756591796875 359.015625 421.2567138671875 360.3671875 433.5540771484375 C 356.8544921875 434.70269775390625 353.33984375 435.851318359375 349.8271484375 437.0 C 348.0703125 417.810791015625 341.44921875 401.93243408203125 329.962890625 389.3648681640625 C 318.6123046875 376.79730224609375 303.072265625 370.5135498046875 283.3427734375 370.5135498046875 C 272.9384765625 370.5135498046875 263.884765625 373.4189453125 256.181640625 379.229736328125 C 248.615234375 385.04052734375 244.8310546875 392.20269775390625 244.8310546875 400.7161865234375 C 244.8310546875 412.47296142578125 250.8447265625 421.52703857421875 262.87109375 427.87841796875 C 274.8974609375 434.229736328125 290.234375 437.4053955078125 308.8828125 437.4053955078125 C 331.314453125 437.4053955078125 351.24609375 434.16217041015625 368.677734375 427.6756591796875 C 386.2451171875 421.189208984375 400.095703125 411.52703857421875 410.23046875 398.689208984375 C 420.365234375 385.851318359375 425.4326171875 370.24322509765625 425.4326171875 351.8648681640625 C 425.4326171875 338.0810546875 421.4453125 325.5810546875 413.4736328125 314.3648681640625 C 405.5009765625 303.0135498046875 394.419921875 293.95947265625 380.2314453125 287.20269775390625 C 366.177734375 280.4459533691406 349.8271484375 277.06756591796875 331.1787109375 277.06756591796875 C 313.7470703125 277.06756591796875 298.3427734375 278.5540466308594 284.96484375 281.52703857421875 C 271.5869140625 284.5 259.1552734375 289.02703857421875 247.6689453125 295.10809326171875 C 236.1826171875 301.189208984375 224.494140625 309.0946044921875 212.6025390625 318.8243408203125 C 200.8466796875 328.5540771484375 187.806640625 340.04052734375 173.482421875 353.2838134765625 C 170.375 350.310791015625 167.2666015625 347.33782958984375 164.158203125 344.3648681640625 C 173.482421875 336.52703857421875 183.4814453125 328.148681640625 194.1572265625 319.229736328125 C 204.8330078125 310.310791015625 215.373046875 301.52703857421875 225.77734375 292.87835693359375 C 236.318359375 284.0946044921875 245.9794921875 275.98651123046875 254.7626953125 268.5540771484375 C 263.681640625 260.98651123046875 270.84375 254.83782958984375 276.2490234375 250.10809326171875 C 281.654296875 245.78378295898438 288.8154296875 239.770263671875 297.734375 232.06756591796875 C 306.7880859375 224.3648681640625 316.3154296875 216.25677490234375 326.314453125 207.74322509765625 C 336.3134765625 199.229736328125 345.7060546875 191.12164306640625 354.4892578125 183.41891479492188 C 363.2724609375 175.71621704101562 370.1640625 169.70272827148438 375.1640625 165.37838745117188 C 370.974609375 165.64865112304688 364.015625 165.98648071289062 354.2861328125 166.39190673828125 C 344.556640625 166.79730224609375 333.5439453125 167.33782958984375 321.2470703125 168.01351928710938 C 308.9501953125 168.55404663085938 296.720703125 169.0946044921875 284.5595703125 169.6351318359375 C 272.533203125 170.1756591796875 261.7216796875 170.64865112304688 252.1279296875 171.05404663085938 C 242.5341796875 171.45947265625 235.77734375 171.729736328125 231.8583984375 171.8648681640625 C 228.48046875 172.1351318359375 225.2373046875 172.33786010742188 222.12890625 172.47296142578125 C 219.021484375 172.60809326171875 215.5078125 172.94595336914062 211.5888671875 173.48648071289062 C 211.521484375 168.95944213867188 211.4541015625 164.43243408203125 211.38671875 159.9053955078125"/>
  </g>
</svg>
