<?xml version="1.0" encoding="utf-8"?>
<svg xmlns="http://www.w3.org/2000/svg" xmlns:ev="http://www.w3.org/2001/xml-events" xmlns:xlink="http://www.w3.org/1999/xlink" version="1.1" baseProfile="full" width="30496.0" height="1753.0" viewBox="136.0 -1597.0 30496.0 1753.0">
<defs/>
<g><path d="M 27648.000000 -1380.000000 C 27995.666667 -1380.000000 28343.333333 -1380.000000 28691.000000 -1380.000000 C 28691.000000 -1361.666667 28691.000000 -1343.333333 28691.000000 -1325.000000 C 28343.333333 -1325.000000 27995.666667 -1325.000000 27648.000000 -1325.000000 C 27648.000000 -1343.333333 27648.000000 -1361.666667 27648.000000 -1380.000000z M 27625.000000 -891.000000 C 27987.333333 -891.000000 28349.666667 -891.000000 28712.000000 -891.000000 C 28712.000000 -871.666667 28712.000000 -852.333333 28712.000000 -833.000000 C 28349.666667 -833.000000 27987.333333 -833.000000 27625.000000 -833.000000 C 27625.000000 -852.333333 27625.000000 -871.666667 27625.000000 -891.000000z M 27940.000000 -12.000000 C 28155.000000 -12.000000 28370.000000 -12.000000 28585.000000 -12.000000 C 28585.000000 6.666667 28585.000000 25.333333 28585.000000 44.000000 C 28370.000000 44.000000 28155.000000 44.000000 27940.000000 44.000000 C 27940.000000 25.333333 27940.000000 6.666667 27940.000000 -12.000000z M 27909.000000 -1594.000000 C 27928.333333 -1594.000000 27947.666667 -1594.000000 27967.000000 -1594.000000 C 27967.000000 -1427.333333 27967.000000 -1260.666667 27967.000000 -1094.000000 C 27947.666667 -1094.000000 27928.333333 -1094.000000 27909.000000 -1094.000000 C 27909.000000 -1260.666667 27909.000000 -1427.333333 27909.000000 -1594.000000z M 28381.000000 -1594.000000 C 28400.333333 -1594.000000 28419.666667 -1594.000000 28439.000000 -1594.000000 C 28439.000000 -1427.333333 28439.000000 -1260.666667 28439.000000 -1094.000000 C 28419.666667 -1094.000000 28400.333333 -1094.000000 28381.000000 -1094.000000 C 28381.000000 -1260.666667 28381.000000 -1427.333333 28381.000000 -1594.000000z M 27909.000000 -503.000000 C 28146.333333 -503.000000 28383.666667 -503.000000 28621.000000 -503.000000 C 28621.000000 -293.000000 28621.000000 -83.000000 28621.000000 127.000000 C 28602.000000 127.000000 28583.000000 127.000000 28564.000000 127.000000 C 28564.000000 -63.666667 28564.000000 -254.333333 28564.000000 -445.000000 C 28365.000000 -445.000000 28166.000000 -445.000000 27967.000000 -445.000000 C 27967.000000 -252.666667 27967.000000 -60.333333 27967.000000 132.000000 C 27947.666667 132.000000 27928.333333 132.000000 27909.000000 132.000000 C 27909.000000 -79.666667 27909.000000 -291.333333 27909.000000 -503.000000z M 28097.000000 -1125.000000 C 28117.000000 -1121.333333 28137.000000 -1117.666667 28157.000000 -1114.000000 C 28113.666667 -920.666667 28049.666667 -750.666667 27965.000000 -604.000000 C 27880.333333 -457.333333 27777.333333 -334.000000 27656.000000 -234.000000 C 27653.333333 -238.000000 27649.333333 -242.333333 27644.000000 -247.000000 C 27638.666667 -252.333333 27632.666667 -257.666667 27626.000000 -263.000000 C 27620.000000 -268.333333 27614.666667 -272.666667 27610.000000 -276.000000 C 27734.000000 -368.666667 27836.333333 -487.333333 27917.000000 -632.000000 C 27997.666667 -776.666667 28057.666667 -941.000000 28097.000000 -1125.000000z M 27055.000000 -1021.000000 C 27231.000000 -1021.000000 27407.000000 -1021.000000 27583.000000 -1021.000000 C 27583.000000 -1002.666667 27583.000000 -984.333333 27583.000000 -966.000000 C 27407.000000 -966.000000 27231.000000 -966.000000 27055.000000 -966.000000 C 27055.000000 -984.333333 27055.000000 -1002.666667 27055.000000 -1021.000000z M 27064.000000 -1519.000000 C 27234.333333 -1519.000000 27404.666667 -1519.000000 27575.000000 -1519.000000 C 27575.000000 -1500.333333 27575.000000 -1481.666667 27575.000000 -1463.000000 C 27404.666667 -1463.000000 27234.333333 -1463.000000 27064.000000 -1463.000000 C 27064.000000 -1481.666667 27064.000000 -1500.333333 27064.000000 -1519.000000z M 27055.000000 -770.000000 C 27231.000000 -770.000000 27407.000000 -770.000000 27583.000000 -770.000000 C 27583.000000 -751.333333 27583.000000 -732.666667 27583.000000 -714.000000 C 27407.000000 -714.000000 27231.000000 -714.000000 27055.000000 -714.000000 C 27055.000000 -732.666667 27055.000000 -751.333333 27055.000000 -770.000000z M 26970.000000 -1275.000000 C 27191.000000 -1275.000000 27412.000000 -1275.000000 27633.000000 -1275.000000 C 27633.000000 -1255.666667 27633.000000 -1236.333333 27633.000000 -1217.000000 C 27412.000000 -1217.000000 27191.000000 -1217.000000 26970.000000 -1217.000000 C 26970.000000 -1236.333333 26970.000000 -1255.666667 26970.000000 -1275.000000z M 27084.000000 -518.000000 C 27250.333333 -518.000000 27416.666667 -518.000000 27583.000000 -518.000000 C 27583.000000 -339.000000 27583.000000 -160.000000 27583.000000 19.000000 C 27416.666667 19.000000 27250.333333 19.000000 27084.000000 19.000000 C 27084.000000 0.000000 27084.000000 -19.000000 27084.000000 -38.000000 C 27231.000000 -38.000000 27378.000000 -38.000000 27525.000000 -38.000000 C 27525.000000 -179.000000 27525.000000 -320.000000 27525.000000 -461.000000 C 27378.000000 -461.000000 27231.000000 -461.000000 27084.000000 -461.000000 C 27084.000000 -480.000000 27084.000000 -499.000000 27084.000000 -518.000000z M 27055.000000 -518.000000 C 27074.000000 -518.000000 27093.000000 -518.000000 27112.000000 -518.000000 C 27112.000000 -305.666667 27112.000000 -93.333333 27112.000000 119.000000 C 27093.000000 119.000000 27074.000000 119.000000 27055.000000 119.000000 C 27055.000000 -93.333333 27055.000000 -305.666667 27055.000000 -518.000000z "/>
</g></svg>
