<?xml version="1.0" ?>
<svg xmlns="http://www.w3.org/2000/svg" version="1.1" width="600" height="600">
  <defs/>
  <g>
    <path stroke-width="0" fill="rgb(0, 0, 0)" opacity="1.0" d="M 200.4466552734375 425.7457275390625 C 200.4466552734375 423.1845703125 200.4466552734375 416.10357666015625 200.4466552734375 404.5028076171875 C 200.4466552734375 392.75140380859375 200.4466552734375 378.28814697265625 200.4466552734375 361.11297607421875 C 200.4466552734375 343.78717041015625 200.4466552734375 325.48211669921875 200.4466552734375 306.19775390625 C 200.4466552734375 286.7626953125 200.4466552734375 267.85498046875 200.4466552734375 249.47457885742188 C 200.4466552734375 231.09417724609375 200.4466552734375 214.8983154296875 200.4466552734375 200.88699340820312 C 200.4466552734375 186.87570190429688 200.4466552734375 176.85687255859375 200.4466552734375 170.83050537109375 C 200.4466552734375 166.16009521484375 200.296142578125 160.05838012695312 199.994873046875 152.52542114257812 C 199.6937255859375 144.99246215820312 199.166748046875 138.36346435546875 198.413818359375 132.638427734375 C 204.135986328125 132.638427734375 209.858154296875 132.638427734375 215.5804443359375 132.638427734375 C 215.128662109375 138.0621337890625 214.6768798828125 144.7664794921875 214.22509765625 152.75140380859375 C 213.7734375 160.73635864257812 213.5474853515625 166.76272583007812 213.5474853515625 170.83050537109375 C 213.5474853515625 185.29379272460938 213.5474853515625 201.414306640625 213.5474853515625 219.19207763671875 C 213.5474853515625 236.96987915039062 213.5474853515625 255.12429809570312 213.5474853515625 273.6553649902344 C 213.5474853515625 292.0357666015625 213.622802734375 310.03955078125 213.7734375 327.66668701171875 C 213.9239501953125 345.14312744140625 213.999267578125 360.96234130859375 213.999267578125 375.124267578125 C 213.999267578125 389.2862548828125 213.999267578125 400.96234130859375 213.999267578125 410.15252685546875 C 213.999267578125 419.19207763671875 213.999267578125 424.38983154296875 213.999267578125 425.7457275390625 C 213.999267578125 431.018798828125 213.999267578125 436.216552734375 213.999267578125 441.3389892578125 C 213.999267578125 446.31072998046875 214.1497802734375 451.1318359375 214.4510498046875 455.80224609375 C 214.752197265625 460.47265625 214.9781494140625 464.691162109375 215.128662109375 468.4576416015625 C 209.782958984375 468.4576416015625 204.4371337890625 468.4576416015625 199.0914306640625 468.4576416015625 C 199.6937255859375 462.88323974609375 200.0703125 456.2542724609375 200.220703125 448.57061767578125 C 200.371337890625 440.886962890625 200.4466552734375 433.2786865234375 200.4466552734375 425.7457275390625M 210.8370361328125 247.89263916015625 C 224.991943359375 252.26177978515625 240.3514404296875 257.4595031738281 256.915771484375 263.4858703613281 C 273.630615234375 269.361572265625 290.646728515625 275.68927001953125 307.9638671875 282.46893310546875 C 325.4317626953125 289.24859619140625 342.2218017578125 296.17889404296875 358.3343505859375 303.2598876953125 C 374.5975341796875 310.34088134765625 389.3548583984375 317.19586181640625 402.606201171875 323.8248291015625 C 400.723876953125 328.3446044921875 398.8416748046875 332.8643798828125 396.959228515625 337.3841552734375 C 384.460693359375 330.453857421875 370.004638671875 323.29754638671875 353.5909423828125 315.915283203125 C 337.327880859375 308.532958984375 320.46240234375 301.37664794921875 302.99462890625 294.44635009765625 C 285.52685546875 287.5159912109375 268.7366943359375 281.3389892578125 252.6241455078125 275.9152526855469 C 236.6622314453125 270.34088134765625 222.733154296875 265.82110595703125 210.8370361328125 262.3559265136719 C 210.8370361328125 257.53485107421875 210.8370361328125 252.7137451171875 210.8370361328125 247.89263916015625"/>
  </g>
</svg>
