<?xml version="1.0" ?>
<svg xmlns="http://www.w3.org/2000/svg" version="1.1" width="600" height="600">
  <defs/>
  <g>
    <path stroke-width="0" fill="rgb(0, 0, 0)" opacity="1.0" d="M 292.927978515625 127.17056274414062 C 296.350341796875 125.66458129882812 299.7724609375 124.15859985351562 303.19482421875 122.65261840820312 C 310.587158203125 133.19454956054688 317.636962890625 144.83172607421875 324.3447265625 157.56417846679688 C 331.052490234375 170.15972900390625 335.706787109375 180.77011108398438 338.307861328125 189.39532470703125 C 334.885498046875 191.24359130859375 331.463134765625 193.09185791015625 328.040771484375 194.94012451171875 C 325.166015625 185.76727294921875 320.51171875 174.81460571289062 314.077880859375 162.0821533203125 C 307.64404296875 149.21279907226562 300.593994140625 137.57559204101562 292.927978515625 127.17056274414062M 441.593017578125 122.24188232421875 C 445.2890625 124.09014892578125 448.985107421875 125.93838500976562 452.68115234375 127.78665161132812 C 446.794921875 139.15005493164062 440.223876953125 151.19796752929688 432.96875 163.930419921875 C 425.850341796875 176.66287231445312 418.868896484375 187.61553955078125 412.024169921875 196.78839111328125 C 408.875732421875 195.21392822265625 405.72705078125 193.63946533203125 402.57861328125 192.06503295898438 C 406.959228515625 185.76727294921875 411.545166015625 178.57958984375 416.33642578125 170.50201416015625 C 421.264404296875 162.28750610351562 425.9873046875 153.93612670898438 430.504638671875 145.44781494140625 C 435.022216796875 136.82260131835938 438.71826171875 129.08731079101562 441.593017578125 122.24188232421875M 333.5849609375 320.2110595703125 C 337.760009765625 320.2110595703125 341.935546875 320.2110595703125 346.110595703125 320.2110595703125 C 344.05712890625 337.05078125 340.90869140625 353.4112548828125 336.6650390625 369.2926025390625 C 332.42138671875 385.037109375 326.603515625 399.8231201171875 319.211181640625 413.65087890625 C 311.9560546875 427.3416748046875 302.578857421875 439.6634521484375 291.079833984375 450.6160888671875 C 279.718017578125 461.5687255859375 265.48095703125 470.673095703125 248.36962890625 477.92926025390625 C 247.2744140625 476.69708251953125 245.905517578125 475.3280029296875 244.2626953125 473.822021484375 C 242.757080078125 472.45294189453125 241.387939453125 471.22076416015625 240.156005859375 470.12548828125 C 256.719970703125 463.28009033203125 270.546142578125 454.58642578125 281.63427734375 444.04449462890625 C 292.859619140625 433.5025634765625 301.962890625 421.591552734375 308.9443359375 408.31146240234375 C 315.92578125 395.0313720703125 321.2646484375 380.998291015625 324.960693359375 366.21221923828125 C 328.793701171875 351.4261474609375 331.66845703125 336.0924072265625 333.5849609375 320.2110595703125M 390.25830078125 318.7735595703125 C 394.228271484375 318.7735595703125 398.1982421875 318.7735595703125 402.16796875 318.7735595703125 C 402.16796875 363.0633544921875 402.16796875 407.3531494140625 402.16796875 451.64288330078125 C 402.16796875 455.7501220703125 402.9208984375 458.48828125 404.4267578125 459.857421875 C 406.0693359375 461.2264404296875 409.765625 461.9110107421875 415.514892578125 461.9110107421875 C 417.294677734375 461.9110107421875 420.922119140625 461.9110107421875 426.39794921875 461.9110107421875 C 432.010498046875 461.9110107421875 437.691650390625 461.9110107421875 443.44091796875 461.9110107421875 C 449.327392578125 461.9110107421875 453.434326171875 461.9110107421875 455.76123046875 461.9110107421875 C 459.45751953125 461.9110107421875 462.1953125 460.747314453125 463.974853515625 458.41986083984375 C 465.891357421875 456.22930908203125 467.123291015625 451.4375 467.6708984375 444.04449462890625 C 468.35546875 436.6514892578125 468.834716796875 425.493408203125 469.1083984375 410.5704345703125 C 470.203369140625 411.39190673828125 471.366943359375 412.1448974609375 472.59912109375 412.8294677734375 C 473.968017578125 413.3770751953125 475.3369140625 413.9246826171875 476.705810546875 414.47235107421875 C 478.211669921875 415.01995849609375 479.51220703125 415.4306640625 480.607177734375 415.7044677734375 C 480.33349609375 430.90130615234375 479.51220703125 442.6754150390625 478.143310546875 451.02685546875 C 476.9111328125 459.51513671875 474.65234375 465.333740234375 471.366943359375 468.48260498046875 C 468.08154296875 471.6314697265625 463.29052734375 473.2059326171875 456.993408203125 473.2059326171875 C 455.898193359375 473.2059326171875 453.36572265625 473.2059326171875 449.395751953125 473.2059326171875 C 445.426025390625 473.2059326171875 440.97705078125 473.2059326171875 436.048828125 473.2059326171875 C 431.257568359375 473.2059326171875 426.876953125 473.2059326171875 422.9072265625 473.2059326171875 C 419.07421875 473.2059326171875 416.610107421875 473.2059326171875 415.514892578125 473.2059326171875 C 408.944091796875 473.2059326171875 403.810791015625 472.58984375 400.114501953125 471.357666015625 C 396.41845703125 470.26239013671875 393.817626953125 468.14031982421875 392.311767578125 464.991455078125 C 390.94287109375 461.842529296875 390.25830078125 457.39306640625 390.25830078125 451.64288330078125 C 390.25830078125 407.3531494140625 390.25830078125 363.0633544921875 390.25830078125 318.7735595703125M 295.186767578125 214.244140625 C 295.186767578125 247.64974975585938 295.186767578125 281.0553283691406 295.186767578125 314.4609375 C 345.699951171875 314.4609375 396.213134765625 314.4609375 446.726318359375 314.4609375 C 446.726318359375 281.0553283691406 446.726318359375 247.64974975585938 446.726318359375 214.244140625 C 396.213134765625 214.244140625 345.699951171875 214.244140625 295.186767578125 214.244140625M 283.89306640625 202.743896484375 C 341.935546875 202.743896484375 399.977783203125 202.743896484375 458.02001953125 202.743896484375 C 458.02001953125 243.74786376953125 458.02001953125 284.7518615722656 458.02001953125 325.755859375 C 399.977783203125 325.755859375 341.935546875 325.755859375 283.89306640625 325.755859375 C 283.89306640625 284.7518615722656 283.89306640625 243.74786376953125 283.89306640625 202.743896484375M 199.90966796875 151.19796752929688 C 203.81103515625 151.19796752929688 207.712646484375 151.19796752929688 211.614013671875 151.19796752929688 C 211.614013671875 259.62921142578125 211.614013671875 368.06048583984375 211.614013671875 476.49169921875 C 207.712646484375 476.49169921875 203.81103515625 476.49169921875 199.90966796875 476.49169921875 C 199.90966796875 368.06048583984375 199.90966796875 259.62921142578125 199.90966796875 151.19796752929688M 127.630615234375 233.95892333984375 C 174.721435546875 233.95892333984375 221.8125 233.95892333984375 268.9033203125 233.95892333984375 C 268.9033203125 237.7923583984375 268.9033203125 241.62579345703125 268.9033203125 245.459228515625 C 221.8125 245.459228515625 174.721435546875 245.459228515625 127.630615234375 245.459228515625 C 127.630615234375 241.62579345703125 127.630615234375 237.7923583984375 127.630615234375 233.95892333984375M 200.3203125 237.4500732421875 C 203.46875 238.61380004882812 206.617431640625 239.77752685546875 209.765869140625 240.94125366210938 C 205.522216796875 254.632080078125 200.3203125 268.8705139160156 194.16015625 283.6565856933594 C 188.0 298.3057556152344 181.223876953125 312.74957275390625 173.83154296875 326.988037109375 C 166.439453125 341.2264404296875 158.842041015625 354.4381103515625 151.0390625 366.6229248046875 C 143.373291015625 378.8077392578125 135.70703125 389.144287109375 128.041259765625 397.63262939453125 C 127.35693359375 396.2635498046875 126.124755859375 394.6890869140625 124.34521484375 392.9093017578125 C 122.702392578125 390.9925537109375 121.19677734375 389.486572265625 119.82763671875 388.391357421875 C 127.2197265625 380.5875244140625 134.7490234375 370.935546875 142.4150390625 359.43524169921875 C 150.2177734375 347.798095703125 157.8154296875 335.134033203125 165.20751953125 321.4432373046875 C 172.599609375 307.75244140625 179.3076171875 293.7193603515625 185.33056640625 279.343994140625 C 191.353759765625 264.83172607421875 196.3505859375 250.8670654296875 200.3203125 237.4500732421875M 255.556396484375 129.84027099609375 C 258.841796875 132.85226440429688 262.127197265625 135.8642578125 265.41259765625 138.876220703125 C 254.59814453125 143.39419555664062 241.661865234375 147.706787109375 226.603759765625 151.81405639648438 C 211.682373046875 155.78439331054688 196.00830078125 159.343994140625 179.5810546875 162.49288940429688 C 163.154052734375 165.64178466796875 147.343017578125 168.44839477539062 132.14794921875 170.9127197265625 C 131.874267578125 169.54367065429688 131.25830078125 168.03765869140625 130.2998046875 166.39474487304688 C 129.341796875 164.61495971679688 128.451904296875 162.97207641601562 127.630615234375 161.466064453125 C 142.6884765625 158.7279052734375 158.29443359375 155.78439331054688 174.44775390625 152.635498046875 C 190.60107421875 149.48660278320312 205.796142578125 145.99542236328125 220.032958984375 142.16201782226562 C 234.406494140625 138.19168090820312 246.247802734375 134.08444213867188 255.556396484375 129.84027099609375M 210.176513671875 280.37078857421875 C 212.777587890625 282.83514404296875 216.747314453125 286.7370300292969 222.086181640625 292.0764465332031 C 227.56201171875 297.4158630371094 233.516845703125 303.30291748046875 239.95068359375 309.73760986328125 C 246.384521484375 316.035400390625 252.20263671875 321.92242431640625 257.404541015625 327.39874267578125 C 262.7431640625 332.87506103515625 266.439208984375 336.91387939453125 268.49267578125 339.51513671875 C 265.7548828125 342.66400146484375 263.016845703125 345.8128662109375 260.279052734375 348.9617919921875 C 257.815185546875 345.8128662109375 254.050537109375 341.294921875 248.985595703125 335.4078369140625 C 244.057373046875 329.52081298828125 238.581787109375 323.29150390625 232.55859375 316.71990966796875 C 226.535400390625 310.1483154296875 220.854248046875 304.055908203125 215.515380859375 298.44268798828125 C 210.3134765625 292.6925354003906 206.13818359375 288.516845703125 202.98974609375 285.91558837890625 C 205.385498046875 284.06732177734375 207.781005859375 282.21905517578125 210.176513671875 280.37078857421875"/>
  </g>
</svg>
