<?xml version="1.0" ?>
<svg xmlns="http://www.w3.org/2000/svg" version="1.1" width="600" height="600">
  <defs/>
  <g>
    <path stroke-width="0" fill="rgb(0, 0, 0)" opacity="1.0" d="M 223.32830810546875 121.70623779296875 C 227.09283447265625 121.70623779296875 230.85739135742188 121.70623779296875 234.62191772460938 121.70623779296875 C 234.62191772460938 173.59442138671875 234.62191772460938 225.48260498046875 234.62191772460938 277.37078857421875 C 234.62191772460938 297.359375 233.59521484375 316.80035400390625 231.54183959960938 335.69366455078125 C 229.6253662109375 354.4500732421875 225.51858520507812 372.31658935546875 219.22152709960938 389.293212890625 C 212.92449951171875 406.26983642578125 203.68426513671875 422.2196044921875 191.5008544921875 437.142578125 C 179.31744384765625 452.06561279296875 162.95880126953125 466.0302734375 142.42498779296875 479.0364990234375 C 141.87741088867188 478.215087890625 141.12451171875 477.2567138671875 140.166259765625 476.16143798828125 C 139.34490966796875 475.066162109375 138.38665771484375 474.03936767578125 137.29150390625 473.08099365234375 C 136.19638061523438 472.259521484375 135.30657958984375 471.57501220703125 134.62210083007812 471.02734375 C 154.3345947265625 458.43182373046875 170.07720947265625 444.9464111328125 181.84994506835938 430.571044921875 C 193.6226806640625 416.0587158203125 202.45223999023438 400.6566162109375 208.33859252929688 384.364501953125 C 214.36184692382812 368.07244873046875 218.33172607421875 351.02734375 220.24822998046875 333.22930908203125 C 222.30160522460938 315.29437255859375 223.32830810546875 296.67486572265625 223.32830810546875 277.37078857421875 C 223.32830810546875 225.48260498046875 223.32830810546875 173.59442138671875 223.32830810546875 121.70623779296875M 366.44915771484375 121.70623779296875 C 370.2137451171875 121.70623779296875 373.978271484375 121.70623779296875 377.7427978515625 121.70623779296875 C 377.7427978515625 239.31033325195312 377.7427978515625 356.9144287109375 377.7427978515625 474.5185546875 C 373.978271484375 474.5185546875 370.2137451171875 474.5185546875 366.44915771484375 474.5185546875 C 366.44915771484375 356.9144287109375 366.44915771484375 239.31033325195312 366.44915771484375 121.70623779296875M 130.926025390625 329.94354248046875 C 243.9990234375 329.94354248046875 357.07208251953125 329.94354248046875 470.14508056640625 329.94354248046875 C 470.14508056640625 333.70849609375 470.14508056640625 337.4735107421875 470.14508056640625 341.23846435546875 C 357.07208251953125 341.23846435546875 243.9990234375 341.23846435546875 130.926025390625 341.23846435546875 C 130.926025390625 337.4735107421875 130.926025390625 333.70849609375 130.926025390625 329.94354248046875M 144.8890380859375 207.34228515625 C 250.50140380859375 207.34228515625 356.11376953125 207.34228515625 461.7261962890625 207.34228515625 C 461.7261962890625 211.244140625 461.7261962890625 215.14605712890625 461.7261962890625 219.04791259765625 C 356.11376953125 219.04791259765625 250.50140380859375 219.04791259765625 144.8890380859375 219.04791259765625 C 144.8890380859375 215.14605712890625 144.8890380859375 211.244140625 144.8890380859375 207.34228515625"/>
  </g>
</svg>
