<?xml version="1.0" ?>
<svg xmlns="http://www.w3.org/2000/svg" version="1.1" width="600" height="600">
  <defs/>
  <g>
    <path stroke-width="0" fill="rgb(0, 0, 0)" opacity="1.0" d="M 264.1064453125 143.90310668945312 C 267.704345703125 143.90310668945312 271.302734375 143.90310668945312 274.900634765625 143.90310668945312 C 274.900634765625 239.12802124023438 274.900634765625 334.3529052734375 274.900634765625 429.577880859375 C 274.900634765625 436.498291015625 275.869384765625 442.03460693359375 277.806884765625 446.1868896484375 C 279.882568359375 450.339111328125 283.688232421875 453.24566650390625 289.223876953125 454.9066162109375 C 294.759521484375 456.70587158203125 302.578369140625 457.60552978515625 312.6806640625 457.60552978515625 C 315.5869140625 457.60552978515625 321.12255859375 457.60552978515625 329.287353515625 457.60552978515625 C 337.4521484375 457.60552978515625 346.72412109375 457.60552978515625 357.103271484375 457.60552978515625 C 367.620849609375 457.60552978515625 378.20751953125 457.60552978515625 388.863525390625 457.60552978515625 C 399.519287109375 457.60552978515625 409.20654296875 457.60552978515625 417.925048828125 457.60552978515625 C 426.781982421875 457.60552978515625 433.2861328125 457.60552978515625 437.437744140625 457.60552978515625 C 446.5712890625 457.60552978515625 453.283203125 455.80621337890625 457.5732421875 452.2076416015625 C 462.001708984375 448.6090087890625 465.046142578125 442.1729736328125 466.706787109375 432.899658203125 C 468.506103515625 423.62628173828125 469.958984375 410.61590576171875 471.066162109375 393.8685302734375 C 472.58837890625 394.83740234375 474.387451171875 395.8062744140625 476.46337890625 396.77508544921875 C 478.677490234375 397.74395751953125 480.68408203125 398.50518798828125 482.483154296875 399.058837890625 C 481.514404296875 416.221435546875 479.78466796875 429.85467529296875 477.293701171875 439.95849609375 C 474.941162109375 450.062255859375 470.581787109375 457.259521484375 464.2158203125 461.5501708984375 C 457.85009765625 465.8408203125 448.162841796875 467.98614501953125 435.154296875 467.98614501953125 C 433.217041015625 467.98614501953125 428.165771484375 467.98614501953125 420.000732421875 467.98614501953125 C 411.974365234375 467.98614501953125 402.425537109375 467.98614501953125 391.3544921875 467.98614501953125 C 380.421630859375 467.98614501953125 369.350830078125 467.98614501953125 358.141357421875 467.98614501953125 C 347.0703125 467.98614501953125 337.521484375 467.98614501953125 329.494873046875 467.98614501953125 C 321.46826171875 467.98614501953125 316.5556640625 467.98614501953125 314.756591796875 467.98614501953125 C 301.748046875 467.98614501953125 291.576416015625 466.87890625 284.241943359375 464.66436767578125 C 276.907470703125 462.5882568359375 271.7177734375 458.7127685546875 268.673095703125 453.0380859375 C 265.628662109375 447.501708984375 264.1064453125 439.6124267578125 264.1064453125 429.3702392578125 C 264.1064453125 334.21453857421875 264.1064453125 239.058837890625 264.1064453125 143.90310668945312M 270.54150390625 143.90310668945312 C 332.677734375 143.90310668945312 394.814208984375 143.90310668945312 456.950439453125 143.90310668945312 C 456.950439453125 209.92388916015625 456.950439453125 275.94464111328125 456.950439453125 341.96539306640625 C 453.14501953125 341.96539306640625 449.339111328125 341.96539306640625 445.533447265625 341.96539306640625 C 445.533447265625 279.820068359375 445.533447265625 217.67474365234375 445.533447265625 155.5294189453125 C 387.202880859375 155.5294189453125 328.8720703125 155.5294189453125 270.54150390625 155.5294189453125 C 270.54150390625 151.65399169921875 270.54150390625 147.77853393554688 270.54150390625 143.90310668945312M 270.126220703125 302.93426513671875 C 331.08642578125 302.93426513671875 392.04638671875 302.93426513671875 453.00634765625 302.93426513671875 C 453.00634765625 306.8096923828125 453.00634765625 310.68511962890625 453.00634765625 314.560546875 C 392.04638671875 314.560546875 331.08642578125 314.560546875 270.126220703125 314.560546875 C 270.126220703125 310.68511962890625 270.126220703125 306.8096923828125 270.126220703125 302.93426513671875M 354.197265625 146.18685913085938 C 358.072021484375 146.18685913085938 361.94677734375 146.18685913085938 365.82177734375 146.18685913085938 C 365.82177734375 200.16607666015625 365.82177734375 254.14532470703125 365.82177734375 308.12457275390625 C 361.94677734375 308.12457275390625 358.072021484375 308.12457275390625 354.197265625 308.12457275390625 C 354.197265625 254.14532470703125 354.197265625 200.16607666015625 354.197265625 146.18685913085938M 119.00634765625 340.30450439453125 C 129.108642578125 337.12109375 140.733154296875 333.4532470703125 153.880126953125 329.301025390625 C 167.02685546875 325.0103759765625 180.93505859375 320.44287109375 195.604248046875 315.5986328125 C 210.41162109375 310.61590576171875 225.427001953125 305.702392578125 240.649658203125 300.858154296875 C 241.272216796875 304.73358154296875 241.89501953125 308.6090087890625 242.517822265625 312.48443603515625 C 221.62109375 319.40484619140625 200.793701171875 326.39447021484375 180.035400390625 333.4532470703125 C 159.27734375 340.5120849609375 140.802490234375 346.8096923828125 124.611083984375 352.34600830078125 C 122.74267578125 348.3321533203125 120.87451171875 344.318359375 119.00634765625 340.30450439453125M 125.026123046875 206.8096923828125 C 161.975830078125 206.8096923828125 198.925537109375 206.8096923828125 235.875244140625 206.8096923828125 C 235.875244140625 210.82354736328125 235.875244140625 214.83734130859375 235.875244140625 218.8511962890625 C 198.925537109375 218.8511962890625 161.975830078125 218.8511962890625 125.026123046875 218.8511962890625 C 125.026123046875 214.83734130859375 125.026123046875 210.82354736328125 125.026123046875 206.8096923828125M 177.959716796875 121.06573486328125 C 181.972900390625 121.06573486328125 185.986328125 121.06573486328125 189.99951171875 121.06573486328125 C 189.99951171875 234.560546875 189.99951171875 348.05535888671875 189.99951171875 461.5501708984375 C 189.99951171875 466.6712646484375 189.10009765625 470.4083251953125 187.30078125 472.76123046875 C 185.64013671875 475.11419677734375 183.080078125 476.84429931640625 179.620361328125 477.9515380859375 C 176.16064453125 478.92041015625 171.247802734375 479.543212890625 164.882080078125 479.820068359375 C 158.51611328125 480.096923828125 149.866943359375 480.096923828125 138.93408203125 479.820068359375 C 138.657470703125 478.57440185546875 138.03466796875 476.77508544921875 137.06591796875 474.422119140625 C 136.235595703125 472.2076416015625 135.266845703125 470.339111328125 134.15966796875 468.816650390625 C 143.431884765625 469.0933837890625 151.458251953125 469.2318115234375 158.2392578125 469.2318115234375 C 165.0205078125 469.2318115234375 169.517822265625 469.0933837890625 171.732177734375 468.816650390625 C 175.8837890625 468.816650390625 177.959716796875 466.5328369140625 177.959716796875 461.96539306640625 C 177.959716796875 348.3321533203125 177.959716796875 234.698974609375 177.959716796875 121.06573486328125"/>
  </g>
</svg>
