<?xml version="1.0" ?>
<svg xmlns="http://www.w3.org/2000/svg" version="1.1" width="600" height="600">
  <defs/>
  <g>
    <path stroke-width="0" fill="rgb(0, 0, 0)" opacity="1.0" d="M 383.6827392578125 146.82748413085938 C 381.6129150390625 148.7596435546875 378.301025390625 151.8648681640625 373.747314453125 156.1431884765625 C 369.1934814453125 160.28347778320312 365.8817138671875 163.3197021484375 363.811767578125 165.25186157226562 C 356.63623046875 171.87637329101562 347.7357177734375 179.74295043945312 337.110107421875 188.85162353515625 C 326.622802734375 197.9603271484375 315.4453125 207.34503173828125 303.577880859375 217.0057373046875 C 291.8486328125 226.66644287109375 280.464111328125 235.982177734375 269.4248046875 244.95285034179688 C 258.38525390625 253.7855224609375 248.932861328125 261.51409912109375 241.067138671875 268.1385803222656 C 232.235595703125 275.8671569824219 226.23291015625 282.3536376953125 223.05908203125 287.5980224609375 C 219.88525390625 292.7044372558594 219.954345703125 297.810791015625 223.26611328125 302.91717529296875 C 226.577880859375 308.0235595703125 233.132568359375 314.717041015625 242.93017578125 322.9976806640625 C 251.485595703125 329.898193359375 260.8001708984375 337.48876953125 270.8736572265625 345.7694091796875 C 280.947021484375 353.9119873046875 291.296630859375 362.53765869140625 301.9219970703125 371.6463623046875 C 312.685546875 380.7550048828125 323.5179443359375 390.1397705078125 334.4193115234375 399.80047607421875 C 345.3206787109375 409.32318115234375 355.877197265625 418.9149169921875 366.0887451171875 428.57562255859375 C 376.3001708984375 438.236328125 385.752685546875 447.552001953125 394.4461669921875 456.522705078125 C 390.9964599609375 459.5589599609375 387.5465087890625 462.59521484375 384.0968017578125 465.63140869140625 C 378.5770263671875 459.282958984375 371.953369140625 452.244384765625 364.225830078125 444.51580810546875 C 356.2222900390625 436.64923095703125 346.6317138671875 427.60955810546875 335.454345703125 417.39678955078125 C 324.414794921875 407.18402099609375 312.7545166015625 396.76422119140625 300.47314453125 386.137451171875 C 288.191650390625 375.37261962890625 276.117431640625 365.0218505859375 264.25 355.0850830078125 C 252.5206298828125 345.14837646484375 241.8951416015625 336.315673828125 232.3736572265625 328.587158203125 C 220.3682861328125 318.78839111328125 212.84765625 310.438720703125 209.811767578125 303.5382080078125 C 206.7760009765625 296.6377258300781 207.39697265625 289.80621337890625 211.6748046875 283.043701171875 C 216.090576171875 276.28118896484375 223.611083984375 268.41461181640625 234.236572265625 259.44390869140625 C 241.412109375 253.3714599609375 250.45068359375 245.91891479492188 261.35205078125 237.08624267578125 C 272.3916015625 228.11557006835938 283.9139404296875 218.661865234375 295.9193115234375 208.72512817382812 C 308.062744140625 198.78839111328125 319.51611328125 189.1966552734375 330.279541015625 179.94998168945312 C 341.04296875 170.70327758789062 349.736572265625 162.49163818359375 356.3602294921875 155.31512451171875 C 358.4300537109375 152.8309326171875 361.0518798828125 149.65667724609375 364.225830078125 145.79241943359375 C 367.399658203125 141.79010009765625 369.676513671875 138.47784423828125 371.056396484375 135.85565185546875 C 375.2652587890625 139.512939453125 379.4739990234375 143.17022705078125 383.6827392578125 146.82748413085938"/>
  </g>
</svg>
