<?xml version="1.0" ?>
<svg xmlns="http://www.w3.org/2000/svg" version="1.1" width="600" height="600">
  <defs/>
  <g>
    <path stroke-width="0" fill="rgb(0, 0, 0)" opacity="1.0" d="M 295.91552734375 334.921630859375 C 349.894775390625 334.921630859375 403.8740234375 334.921630859375 457.853271484375 334.921630859375 C 457.853271484375 380.0599365234375 457.853271484375 425.1981201171875 457.853271484375 470.33642578125 C 454.0517578125 470.33642578125 450.25048828125 470.33642578125 446.448974609375 470.33642578125 C 446.448974609375 429.2073974609375 446.448974609375 388.078369140625 446.448974609375 346.9493408203125 C 400.27978515625 346.9493408203125 354.11083984375 346.9493408203125 307.941650390625 346.9493408203125 C 307.941650390625 388.56219482421875 307.941650390625 430.17510986328125 307.941650390625 471.78802490234375 C 303.93310546875 471.78802490234375 299.924072265625 471.78802490234375 295.91552734375 471.78802490234375 C 295.91552734375 426.1658935546875 295.91552734375 380.54376220703125 295.91552734375 334.921630859375M 282.43798828125 196.81103515625 C 336.69384765625 196.81103515625 390.94921875 196.81103515625 445.205078125 196.81103515625 C 445.205078125 227.294921875 445.205078125 257.77880859375 445.205078125 288.2626647949219 C 441.1962890625 288.2626647949219 437.1875 288.2626647949219 433.178955078125 288.2626647949219 C 433.178955078125 261.58062744140625 433.178955078125 234.89862060546875 433.178955078125 208.21658325195312 C 382.93212890625 208.21658325195312 332.684814453125 208.21658325195312 282.43798828125 208.21658325195312 C 282.43798828125 204.41473388671875 282.43798828125 200.6129150390625 282.43798828125 196.81103515625M 348.788818359375 134.59906005859375 C 352.797607421875 135.15206909179688 356.806396484375 135.705078125 360.81494140625 136.258056640625 C 358.465087890625 151.88018798828125 355.700439453125 169.16128540039062 352.521240234375 188.10137939453125 C 349.341796875 206.9031982421875 346.0244140625 225.15203857421875 342.568603515625 242.847900390625 C 339.112548828125 260.405517578125 335.933349609375 275.405517578125 333.030517578125 287.847900390625 C 329.02197265625 287.847900390625 325.01318359375 287.847900390625 321.00439453125 287.847900390625 C 323.354248046875 278.3087463378906 325.7734375 267.1797180175781 328.261474609375 254.4608154296875 C 330.887939453125 241.741943359375 333.376220703125 228.331787109375 335.72607421875 214.23040771484375 C 338.075927734375 200.1290283203125 340.356689453125 186.30413818359375 342.568603515625 172.75576782226562 C 344.91845703125 159.06912231445312 346.99169921875 146.3502197265625 348.788818359375 134.59906005859375M 276.425048828125 131.48846435546875 C 340.90966796875 131.48846435546875 405.39453125 131.48846435546875 469.879150390625 131.48846435546875 C 469.879150390625 135.29031372070312 469.879150390625 139.0921630859375 469.879150390625 142.89401245117188 C 405.39453125 142.89401245117188 340.90966796875 142.89401245117188 276.425048828125 142.89401245117188 C 276.425048828125 139.0921630859375 276.425048828125 135.29031372070312 276.425048828125 131.48846435546875M 266.886962890625 283.9078369140625 C 338.421630859375 283.9078369140625 409.9560546875 283.9078369140625 481.49072265625 283.9078369140625 C 481.49072265625 287.77880859375 481.49072265625 291.6497802734375 481.49072265625 295.520751953125 C 409.9560546875 295.520751953125 338.421630859375 295.520751953125 266.886962890625 295.520751953125 C 266.886962890625 291.6497802734375 266.886962890625 287.77880859375 266.886962890625 283.9078369140625M 303.794677734375 438.815673828125 C 353.07421875 438.815673828125 402.353271484375 438.815673828125 451.6328125 438.815673828125 C 451.6328125 442.6866455078125 451.6328125 446.5576171875 451.6328125 450.4285888671875 C 402.353271484375 450.4285888671875 353.07421875 450.4285888671875 303.794677734375 450.4285888671875 C 303.794677734375 446.5576171875 303.794677734375 442.6866455078125 303.794677734375 438.815673828125M 138.746826171875 233.7235107421875 C 175.23974609375 233.7235107421875 211.73291015625 233.7235107421875 248.225830078125 233.7235107421875 C 248.225830078125 237.594482421875 248.225830078125 241.46542358398438 248.225830078125 245.33639526367188 C 211.73291015625 245.33639526367188 175.23974609375 245.33639526367188 138.746826171875 245.33639526367188 C 138.746826171875 241.46542358398438 138.746826171875 237.594482421875 138.746826171875 233.7235107421875M 141.027587890625 129.0 C 176.345703125 129.0 211.663818359375 129.0 246.981689453125 129.0 C 246.981689453125 132.87094116210938 246.981689453125 136.741943359375 246.981689453125 140.61288452148438 C 211.663818359375 140.61288452148438 176.345703125 140.61288452148438 141.027587890625 140.61288452148438 C 141.027587890625 136.741943359375 141.027587890625 132.87094116210938 141.027587890625 129.0M 138.746826171875 286.81103515625 C 175.23974609375 286.81103515625 211.73291015625 286.81103515625 248.225830078125 286.81103515625 C 248.225830078125 290.6129150390625 248.225830078125 294.41473388671875 248.225830078125 298.216552734375 C 211.73291015625 298.216552734375 175.23974609375 298.216552734375 138.746826171875 298.216552734375 C 138.746826171875 294.41473388671875 138.746826171875 290.6129150390625 138.746826171875 286.81103515625M 120.29296875 180.42855834960938 C 167.291748046875 180.42855834960938 214.2900390625 180.42855834960938 261.28857421875 180.42855834960938 C 261.28857421875 184.43780517578125 261.28857421875 188.44699096679688 261.28857421875 192.45623779296875 C 214.2900390625 192.45623779296875 167.291748046875 192.45623779296875 120.29296875 192.45623779296875 C 120.29296875 188.44699096679688 120.29296875 184.43780517578125 120.29296875 180.42855834960938M 144.96728515625 339.69122314453125 C 179.455810546875 339.69122314453125 213.944580078125 339.69122314453125 248.43310546875 339.69122314453125 C 248.43310546875 376.741943359375 248.43310546875 413.7926025390625 248.43310546875 450.84332275390625 C 213.944580078125 450.84332275390625 179.455810546875 450.84332275390625 144.96728515625 450.84332275390625 C 144.96728515625 446.97235107421875 144.96728515625 443.10137939453125 144.96728515625 439.23040771484375 C 175.516357421875 439.23040771484375 206.0654296875 439.23040771484375 236.614501953125 439.23040771484375 C 236.614501953125 410.0599365234375 236.614501953125 380.889404296875 236.614501953125 351.7188720703125 C 206.0654296875 351.7188720703125 175.516357421875 351.7188720703125 144.96728515625 351.7188720703125 C 144.96728515625 347.70965576171875 144.96728515625 343.700439453125 144.96728515625 339.69122314453125M 138.746826171875 339.69122314453125 C 142.6865234375 339.69122314453125 146.6259765625 339.69122314453125 150.565673828125 339.69122314453125 C 150.565673828125 383.58526611328125 150.565673828125 427.479248046875 150.565673828125 471.373291015625 C 146.6259765625 471.373291015625 142.6865234375 471.373291015625 138.746826171875 471.373291015625 C 138.746826171875 427.479248046875 138.746826171875 383.58526611328125 138.746826171875 339.69122314453125"/>
  </g>
</svg>
