<?xml version="1.0" ?>
<svg xmlns="http://www.w3.org/2000/svg" version="1.1" width="600" height="600">
  <defs/>
  <g>
    <path stroke-width="0" fill="rgb(0, 0, 0)" opacity="1.0" d="M 120.38006591796875 315.7923583984375 C 132.28738403320312 315.7923583984375 144.1947021484375 315.7923583984375 156.10205078125 315.7923583984375 C 156.10205078125 316.179931640625 156.10205078125 316.5675048828125 156.10205078125 316.95501708984375 C 144.1947021484375 316.95501708984375 132.28738403320312 316.95501708984375 120.38006591796875 316.95501708984375 C 120.38006591796875 316.5675048828125 120.38006591796875 316.179931640625 120.38006591796875 315.7923583984375M 122.00186157226562 290.6920166015625 C 125.81417846679688 290.6920166015625 129.62649536132812 290.6920166015625 133.43881225585938 290.6920166015625 C 133.43881225585938 291.0726318359375 133.43881225585938 291.4532470703125 133.43881225585938 291.83392333984375 C 129.62649536132812 291.83392333984375 125.81417846679688 291.83392333984375 122.00186157226562 291.83392333984375 C 122.00186157226562 291.4532470703125 122.00186157226562 291.0726318359375 122.00186157226562 290.6920166015625M 142.706298828125 290.6920166015625 C 146.76434326171875 290.6920166015625 150.8223876953125 290.6920166015625 154.88040161132812 290.6920166015625 C 154.88040161132812 291.0726318359375 154.88040161132812 291.4532470703125 154.88040161132812 291.83392333984375 C 150.8223876953125 291.83392333984375 146.76434326171875 291.83392333984375 142.706298828125 291.83392333984375 C 142.706298828125 291.4532470703125 142.706298828125 291.0726318359375 142.706298828125 290.6920166015625M 122.48629760742188 298.8096923828125 C 126.17926025390625 298.8096923828125 129.87222290039062 298.8096923828125 133.565185546875 298.8096923828125 C 133.565185546875 299.197265625 133.565185546875 299.58477783203125 133.565185546875 299.9722900390625 C 129.87222290039062 299.9722900390625 126.17926025390625 299.9722900390625 122.48629760742188 299.9722900390625 C 122.48629760742188 299.58477783203125 122.48629760742188 299.197265625 122.48629760742188 298.8096923828125M 142.79055786132812 298.8096923828125 C 146.65902709960938 298.8096923828125 150.52749633789062 298.8096923828125 154.39596557617188 298.8096923828125 C 154.39596557617188 299.197265625 154.39596557617188 299.58477783203125 154.39596557617188 299.9722900390625 C 150.52749633789062 299.9722900390625 146.65902709960938 299.9722900390625 142.79055786132812 299.9722900390625 C 142.79055786132812 299.58477783203125 142.79055786132812 299.197265625 142.79055786132812 298.8096923828125M 121.791259765625 307.23876953125 C 125.72991943359375 307.23876953125 129.66860961914062 307.23876953125 133.6072998046875 307.23876953125 C 133.6072998046875 307.6331787109375 133.6072998046875 308.0277099609375 133.6072998046875 308.422119140625 C 129.66860961914062 308.422119140625 125.72991943359375 308.422119140625 121.791259765625 308.422119140625 C 121.791259765625 308.0277099609375 121.791259765625 307.6331787109375 121.791259765625 307.23876953125M 142.706298828125 307.23876953125 C 146.82049560546875 307.23876953125 150.9346923828125 307.23876953125 155.04891967773438 307.23876953125 C 155.04891967773438 307.6331787109375 155.04891967773438 308.0277099609375 155.04891967773438 308.422119140625 C 150.9346923828125 308.422119140625 146.82049560546875 308.422119140625 142.706298828125 308.422119140625 C 142.706298828125 308.0277099609375 142.706298828125 307.6331787109375 142.706298828125 307.23876953125M 132.9122314453125 283.36328125 C 133.305419921875 283.36328125 133.69857788085938 283.36328125 134.09173583984375 283.36328125 C 134.09173583984375 294.32525634765625 134.09173583984375 305.2872314453125 134.09173583984375 316.2491455078125 C 133.69857788085938 316.2491455078125 133.305419921875 316.2491455078125 132.9122314453125 316.2491455078125 C 132.9122314453125 305.2872314453125 132.9122314453125 294.32525634765625 132.9122314453125 283.36328125M 142.26397705078125 283.36328125 C 142.65713500976562 283.36328125 143.05032348632812 283.36328125 143.4434814453125 283.36328125 C 143.4434814453125 294.37371826171875 143.4434814453125 305.38409423828125 143.4434814453125 316.39447021484375 C 143.05032348632812 316.39447021484375 142.65713500976562 316.39447021484375 142.26397705078125 316.39447021484375 C 142.26397705078125 305.38409423828125 142.26397705078125 294.37371826171875 142.26397705078125 283.36328125"/>
    <path stroke-width="0" fill="rgb(0, 0, 0)" opacity="1.0" d="M 163.17901611328125 286.93426513671875 C 173.58389282226562 286.93426513671875 183.98876953125 286.93426513671875 194.39364624023438 286.93426513671875 C 194.39364624023438 287.32177734375 194.39364624023438 287.7093505859375 194.39364624023438 288.096923828125 C 183.98876953125 288.096923828125 173.58389282226562 288.096923828125 163.17901611328125 288.096923828125 C 163.17901611328125 287.7093505859375 163.17901611328125 287.32177734375 163.17901611328125 286.93426513671875M 160.82003784179688 296.50518798828125 C 172.72735595703125 296.50518798828125 184.63470458984375 296.50518798828125 196.5419921875 296.50518798828125 C 196.5419921875 296.8927001953125 196.5419921875 297.2802734375 196.5419921875 297.6678466796875 C 184.63470458984375 297.6678466796875 172.72735595703125 297.6678466796875 160.82003784179688 297.6678466796875 C 160.82003784179688 297.2802734375 160.82003784179688 296.8927001953125 160.82003784179688 296.50518798828125M 167.53897094726562 308.982666015625 C 175.08636474609375 308.982666015625 182.63375854492188 308.982666015625 190.18115234375 308.982666015625 C 190.18115234375 309.38409423828125 190.18115234375 309.78546142578125 190.18115234375 310.1868896484375 C 182.63375854492188 310.1868896484375 175.08636474609375 310.1868896484375 167.53897094726562 310.1868896484375 C 167.53897094726562 309.78546142578125 167.53897094726562 309.38409423828125 167.53897094726562 308.982666015625M 167.62322998046875 316.04150390625 C 175.17059326171875 316.04150390625 182.718017578125 316.04150390625 190.265380859375 316.04150390625 C 190.265380859375 316.4290771484375 190.265380859375 316.816650390625 190.265380859375 317.20416259765625 C 182.718017578125 317.20416259765625 175.17059326171875 317.20416259765625 167.62322998046875 317.20416259765625 C 167.62322998046875 316.816650390625 167.62322998046875 316.4290771484375 167.62322998046875 316.04150390625M 178.00701904296875 282.86505126953125 C 178.41424560546875 282.86505126953125 178.82144165039062 282.86505126953125 179.2286376953125 282.86505126953125 C 179.2286376953125 284.380615234375 179.2286376953125 285.89617919921875 179.2286376953125 287.4117431640625 C 178.82144165039062 287.4117431640625 178.41424560546875 287.4117431640625 178.00701904296875 287.4117431640625 C 178.00701904296875 285.89617919921875 178.00701904296875 284.380615234375 178.00701904296875 282.86505126953125M 166.97027587890625 302.21453857421875 C 174.88275146484375 302.21453857421875 182.79522705078125 302.21453857421875 190.70770263671875 302.21453857421875 C 190.70770263671875 307.71624755859375 190.70770263671875 313.218017578125 190.70770263671875 318.7197265625 C 190.31451416015625 318.7197265625 189.92138671875 318.7197265625 189.5281982421875 318.7197265625 C 189.5281982421875 313.5986328125 189.5281982421875 308.4775390625 189.5281982421875 303.3564453125 C 182.40206909179688 303.3564453125 175.27590942382812 303.3564453125 168.1497802734375 303.3564453125 C 168.1497802734375 308.52593994140625 168.1497802734375 313.69549560546875 168.1497802734375 318.86505126953125 C 167.75662231445312 318.86505126953125 167.36346435546875 318.86505126953125 166.97027587890625 318.86505126953125 C 166.97027587890625 313.31488037109375 166.97027587890625 307.76470947265625 166.97027587890625 302.21453857421875M 187.3587646484375 288.657470703125 C 187.73788452148438 288.802734375 188.11700439453125 288.9481201171875 188.49615478515625 289.0933837890625 C 187.94851684570312 290.2421875 187.32366943359375 291.4671630859375 186.62158203125 292.7681884765625 C 185.91949462890625 294.0692138671875 185.259521484375 295.183349609375 184.6417236328125 296.1107177734375 C 184.31875610351562 295.96539306640625 183.99578857421875 295.820068359375 183.67282104492188 295.67474365234375 C 184.10812377929688 295.06573486328125 184.55044555664062 294.34600830078125 184.999755859375 293.51556396484375 C 185.463134765625 292.6712646484375 185.90545654296875 291.8270263671875 186.32672119140625 290.982666015625 C 186.74795532226562 290.12457275390625 187.09197998046875 289.3494873046875 187.3587646484375 288.657470703125M 169.20291137695312 289.13494873046875 C 169.5399169921875 289.017333984375 169.87689208984375 288.899658203125 170.21389770507812 288.781982421875 C 170.95809936523438 289.83392333984375 171.61105346679688 291.0103759765625 172.1727294921875 292.3114013671875 C 172.7484130859375 293.5986328125 173.13458251953125 294.70587158203125 173.33114624023438 295.6331787109375 C 172.93798828125 295.778564453125 172.54483032226562 295.92388916015625 172.15164184570312 296.0692138671875 C 171.955078125 295.0865478515625 171.58999633789062 293.9515380859375 171.056396484375 292.66436767578125 C 170.5228271484375 291.377197265625 169.90496826171875 290.20068359375 169.20291137695312 289.13494873046875"/>
    <path stroke-width="0" fill="rgb(0, 0, 0)" opacity="1.0" d="M 212.42312622070312 292.3321533203125 C 219.4580078125 292.3321533203125 226.49285888671875 292.3321533203125 233.52774047851562 292.3321533203125 C 233.52774047851562 292.7127685546875 233.52774047851562 293.0933837890625 233.52774047851562 293.47406005859375 C 226.49285888671875 293.47406005859375 219.4580078125 293.47406005859375 212.42312622070312 293.47406005859375 C 212.42312622070312 293.0933837890625 212.42312622070312 292.7127685546875 212.42312622070312 292.3321533203125M 207.32598876953125 300.138427734375 C 216.73391723632812 300.138427734375 226.141845703125 300.138427734375 235.54974365234375 300.138427734375 C 235.54974365234375 300.52593994140625 235.54974365234375 300.9134521484375 235.54974365234375 301.301025390625 C 226.141845703125 301.301025390625 216.73391723632812 301.301025390625 207.32598876953125 301.301025390625 C 207.32598876953125 300.9134521484375 207.32598876953125 300.52593994140625 207.32598876953125 300.138427734375M 220.32156372070312 292.7266845703125 C 220.72174072265625 292.7266845703125 221.1219482421875 292.7266845703125 221.52212524414062 292.7266845703125 C 221.52212524414062 294.7474365234375 221.52212524414062 296.7681884765625 221.52212524414062 298.7889404296875 C 221.52212524414062 299.92388916015625 221.395751953125 301.1280517578125 221.14300537109375 302.4013671875 C 220.8902587890625 303.660888671875 220.33560180664062 304.9273681640625 219.47906494140625 306.20068359375 C 218.63656616210938 307.47406005859375 217.316650390625 308.70587158203125 215.51931762695312 309.89617919921875 C 213.72198486328125 311.0726318359375 211.29278564453125 312.1522216796875 208.231689453125 313.13494873046875 C 208.175537109375 313.02423095703125 208.10531616210938 312.92041015625 208.02105712890625 312.823486328125 C 207.93682861328125 312.7127685546875 207.84555053710938 312.60205078125 207.74725341796875 312.4913330078125 C 207.66299438476562 312.380615234375 207.5787353515625 312.2906494140625 207.4945068359375 312.221435546875 C 210.48538208007812 311.2802734375 212.85137939453125 310.262939453125 214.59255981445312 309.1695556640625 C 216.333740234375 308.062255859375 217.6044921875 306.9066162109375 218.40487670898438 305.702392578125 C 219.21929931640625 304.48443603515625 219.73883056640625 303.2872314453125 219.9635009765625 302.1107177734375 C 220.20220947265625 300.92041015625 220.32156372070312 299.8131103515625 220.32156372070312 298.7889404296875 C 220.32156372070312 296.7681884765625 220.32156372070312 294.7474365234375 220.32156372070312 292.7266845703125M 214.40301513671875 288.05535888671875 C 214.81021118164062 288.1522216796875 215.2174072265625 288.2491455078125 215.6246337890625 288.34600830078125 C 214.86636352539062 290.2283935546875 213.86239624023438 291.98614501953125 212.6126708984375 293.619384765625 C 211.37701416015625 295.2525634765625 210.06411743164062 296.6435546875 208.67401123046875 297.7923583984375 C 208.61782836914062 297.737060546875 208.51953125 297.660888671875 208.37911987304688 297.56402587890625 C 208.25274658203125 297.4671630859375 208.11935424804688 297.38409423828125 207.97894287109375 297.31488037109375 C 207.83853149414062 297.2318115234375 207.71917724609375 297.16259765625 207.62088012695312 297.1072998046875 C 209.03909301757812 296.01385498046875 210.344970703125 294.67822265625 211.53851318359375 293.100341796875 C 212.74609375 291.5224609375 213.700927734375 289.8408203125 214.40301513671875 288.05535888671875M 221.859130859375 300.84429931640625 C 222.8560791015625 303.80621337890625 224.5059814453125 306.221435546875 226.80880737304688 308.0899658203125 C 229.11163330078125 309.95849609375 231.97613525390625 311.2664794921875 235.40228271484375 312.01385498046875 C 235.23379516601562 312.1522216796875 235.07232666015625 312.318359375 234.9178466796875 312.5120849609375 C 234.77743530273438 312.70587158203125 234.65106201171875 312.899658203125 234.53872680664062 313.0933837890625 C 231.12661743164062 312.2076416015625 228.22702026367188 310.77508544921875 225.83993530273438 308.79583740234375 C 223.45285034179688 306.816650390625 221.73272705078125 304.262939453125 220.67962646484375 301.13494873046875 C 221.07278442382812 301.0380859375 221.4659423828125 300.941162109375 221.859130859375 300.84429931640625M 203.28201293945312 285.418701171875 C 214.24151611328125 285.418701171875 225.20101928710938 285.418701171875 236.16055297851562 285.418701171875 C 236.16055297851562 285.820068359375 236.16055297851562 286.221435546875 236.16055297851562 286.622802734375 C 225.59420776367188 286.622802734375 215.02783203125 286.622802734375 204.46148681640625 286.622802734375 C 204.46148681640625 297.3079833984375 204.46148681640625 307.9930419921875 204.46148681640625 318.67822265625 C 204.06832885742188 318.67822265625 203.6751708984375 318.67822265625 203.28201293945312 318.67822265625 C 203.28201293945312 307.5916748046875 203.28201293945312 296.50518798828125 203.28201293945312 285.418701171875M 204.14556884765625 315.39794921875 C 215.09103393554688 315.39794921875 226.0364990234375 315.39794921875 236.98199462890625 315.39794921875 C 236.98199462890625 315.79931640625 236.98199462890625 316.20068359375 236.98199462890625 316.60205078125 C 226.0364990234375 316.60205078125 215.09103393554688 316.60205078125 204.14556884765625 316.60205078125 C 204.14556884765625 316.20068359375 204.14556884765625 315.79931640625 204.14556884765625 315.39794921875"/>
    <path stroke-width="0" fill="rgb(0, 0, 0)" opacity="1.0" d="M 263.98406982421875 301.65399169921875 C 264.37725830078125 301.65399169921875 264.77044677734375 301.65399169921875 265.16357421875 301.65399169921875 C 265.16357421875 306.39447021484375 265.16357421875 311.13494873046875 265.16357421875 315.87542724609375 C 265.16357421875 316.41522216796875 265.30401611328125 316.77508544921875 265.5848388671875 316.95501708984375 C 265.86566162109375 317.1488037109375 266.4624328613281 317.24566650390625 267.3751525878906 317.24566650390625 C 267.59979248046875 317.24566650390625 268.0140380859375 317.24566650390625 268.61785888671875 317.24566650390625 C 269.22161865234375 317.24566650390625 269.8956298828125 317.24566650390625 270.63983154296875 317.24566650390625 C 271.384033203125 317.24566650390625 272.0791015625 317.24566650390625 272.72503662109375 317.24566650390625 C 273.3709411621094 317.24566650390625 273.8413391113281 317.24566650390625 274.13623046875 317.24566650390625 C 274.7821044921875 317.24566650390625 275.259521484375 317.0726318359375 275.5684509277344 316.7266845703125 C 275.87738037109375 316.380615234375 276.09503173828125 315.67474365234375 276.22137451171875 314.6090087890625 C 276.3477783203125 313.543212890625 276.4320068359375 311.94464111328125 276.47412109375 309.8131103515625 C 276.58648681640625 309.89617919921875 276.705810546875 309.979248046875 276.83221435546875 310.062255859375 C 276.9726257324219 310.14532470703125 277.113037109375 310.21453857421875 277.2534484863281 310.2698974609375 C 277.40789794921875 310.3114013671875 277.54132080078125 310.35986328125 277.65362548828125 310.41522216796875 C 277.59747314453125 312.5467529296875 277.4781188964844 314.20068359375 277.29559326171875 315.377197265625 C 277.1270751953125 316.539794921875 276.80413818359375 317.33563232421875 276.32672119140625 317.76470947265625 C 275.86334228515625 318.2076416015625 275.147216796875 318.4290771484375 274.1783447265625 318.4290771484375 C 274.02386474609375 318.4290771484375 273.6166687011719 318.4290771484375 272.95672607421875 318.4290771484375 C 272.310791015625 318.4290771484375 271.587646484375 318.4290771484375 270.78729248046875 318.4290771484375 C 270.00091552734375 318.4290771484375 269.2847900390625 318.4290771484375 268.638916015625 318.4290771484375 C 267.99298095703125 318.4290771484375 267.58575439453125 318.4290771484375 267.41729736328125 318.4290771484375 C 266.53265380859375 318.4290771484375 265.83758544921875 318.35986328125 265.33209228515625 318.221435546875 C 264.84063720703125 318.096923828125 264.4895935058594 317.8477783203125 264.2789611816406 317.47406005859375 C 264.0823974609375 317.100341796875 263.98406982421875 316.5535888671875 263.98406982421875 315.83392333984375 C 263.98406982421875 311.1072998046875 263.98406982421875 306.380615234375 263.98406982421875 301.65399169921875M 253.78985595703125 301.92388916015625 C 254.19705200195312 301.92388916015625 254.604248046875 301.92388916015625 255.011474609375 301.92388916015625 C 254.82891845703125 304.179931640625 254.51300048828125 306.2076416015625 254.06365966796875 308.0069580078125 C 253.61431884765625 309.80621337890625 252.93328857421875 311.38409423828125 252.02059936523438 312.740478515625 C 251.10787963867188 314.0830078125 249.87222290039062 315.23876953125 248.3135986328125 316.2076416015625 C 246.76901245117188 317.1903076171875 244.81021118164062 318.0 242.43716430664062 318.63671875 C 242.40908813476562 318.5535888671875 242.34588623046875 318.4498291015625 242.24761962890625 318.32525634765625 C 242.14932250976562 318.21453857421875 242.051025390625 318.10382080078125 241.95272827148438 317.9930419921875 C 241.86846923828125 317.88232421875 241.77020263671875 317.7923583984375 241.6578369140625 317.72314453125 C 244.0028076171875 317.1280517578125 245.926513671875 316.3736572265625 247.428955078125 315.460205078125 C 248.93145751953125 314.5467529296875 250.11795043945312 313.4464111328125 250.988525390625 312.1591796875 C 251.859130859375 310.8719482421875 252.50503540039062 309.377197265625 252.92626953125 307.67474365234375 C 253.3475341796875 305.9722900390625 253.6353759765625 304.05535888671875 253.78985595703125 301.92388916015625M 263.836669921875 292.3529052734375 C 264.11749267578125 292.1314697265625 264.3983154296875 291.9100341796875 264.67913818359375 291.6885986328125 C 266.15350341796875 292.6712646484375 267.6489562988281 293.778564453125 269.16546630859375 295.0103759765625 C 270.69598388671875 296.2421875 272.107177734375 297.47406005859375 273.3990173339844 298.70587158203125 C 274.70489501953125 299.92388916015625 275.7439880371094 301.0380859375 276.5162658691406 302.0484619140625 C 276.20733642578125 302.3114013671875 275.8984375 302.57440185546875 275.58953857421875 302.83740234375 C 274.8312683105469 301.8131103515625 273.813232421875 300.67822265625 272.53546142578125 299.4324951171875 C 271.2576904296875 298.1729736328125 269.86053466796875 296.9273681640625 268.3440246582031 295.69549560546875 C 266.841552734375 294.4498291015625 265.339111328125 293.33563232421875 263.836669921875 292.3529052734375M 255.22210693359375 288.698974609375 C 255.59417724609375 288.8719482421875 255.96630859375 289.04498291015625 256.3384094238281 289.218017578125 C 255.7767333984375 290.3529052734375 255.15188598632812 291.5709228515625 254.4638671875 292.8719482421875 C 253.77581787109375 294.1729736328125 253.08074951171875 295.4324951171875 252.378662109375 296.6505126953125 C 251.67657470703125 297.85467529296875 251.0025634765625 298.92041015625 250.35665893554688 299.8477783203125 C 250.0477294921875 299.6885986328125 249.73883056640625 299.5294189453125 249.429931640625 299.3702392578125 C 250.0758056640625 298.44287109375 250.7568359375 297.3564453125 251.47296142578125 296.1107177734375 C 252.1890869140625 294.86505126953125 252.87713623046875 293.58477783203125 253.537109375 292.2698974609375 C 254.19705200195312 290.95501708984375 254.75872802734375 289.76470947265625 255.22210693359375 288.698974609375M 243.44818115234375 299.3702392578125 C 245.76504516601562 299.3287353515625 248.5172119140625 299.259521484375 251.70465087890625 299.16259765625 C 254.90615844726562 299.06573486328125 258.3253173828125 298.95501708984375 261.96209716796875 298.8304443359375 C 265.598876953125 298.6920166015625 269.2567138671875 298.539794921875 272.9356689453125 298.37371826171875 C 272.9075622558594 298.7197265625 272.8794860839844 299.06573486328125 272.85137939453125 299.4117431640625 C 269.2847900390625 299.577880859375 265.7041931152344 299.737060546875 262.1095275878906 299.8892822265625 C 258.5148620605469 300.0277099609375 255.12380981445312 300.16607666015625 251.93634033203125 300.30450439453125 C 248.7489013671875 300.4290771484375 245.96160888671875 300.5328369140625 243.57452392578125 300.61590576171875 C 243.53240966796875 300.20068359375 243.49029541015625 299.78546142578125 243.44818115234375 299.3702392578125M 242.22653198242188 288.262939453125 C 253.81793212890625 288.262939453125 265.4093017578125 288.262939453125 277.0007019042969 288.262939453125 C 277.0007019042969 288.6435546875 277.0007019042969 289.02423095703125 277.0007019042969 289.40484619140625 C 265.4093017578125 289.40484619140625 253.81793212890625 289.40484619140625 242.22653198242188 289.40484619140625 C 242.22653198242188 289.02423095703125 242.22653198242188 288.6435546875 242.22653198242188 288.262939453125M 258.8448486328125 282.86505126953125 C 259.2520751953125 282.86505126953125 259.65924072265625 282.86505126953125 260.06646728515625 282.86505126953125 C 260.06646728515625 284.858154296875 260.06646728515625 286.8511962890625 260.06646728515625 288.84429931640625 C 259.65924072265625 288.84429931640625 259.2520751953125 288.84429931640625 258.8448486328125 288.84429931640625 C 258.8448486328125 286.8511962890625 258.8448486328125 284.858154296875 258.8448486328125 282.86505126953125"/>
    <path stroke-width="0" fill="rgb(0, 0, 0)" opacity="1.0" d="M 283.9302673339844 287.017333984375 C 286.8017883300781 287.017333984375 289.67327880859375 287.017333984375 292.5447998046875 287.017333984375 C 292.5447998046875 294.03460693359375 292.5447998046875 301.0518798828125 292.5447998046875 308.0692138671875 C 289.67327880859375 308.0692138671875 286.8017883300781 308.0692138671875 283.9302673339844 308.0692138671875 C 283.9302673339844 307.6678466796875 283.9302673339844 307.2664794921875 283.9302673339844 306.86505126953125 C 286.39459228515625 306.86505126953125 288.85888671875 306.86505126953125 291.32318115234375 306.86505126953125 C 291.32318115234375 300.63671875 291.32318115234375 294.4083251953125 291.32318115234375 288.179931640625 C 288.85888671875 288.179931640625 286.39459228515625 288.179931640625 283.9302673339844 288.179931640625 C 283.9302673339844 287.7923583984375 283.9302673339844 287.40484619140625 283.9302673339844 287.017333984375M 283.4879455566406 287.017333984375 C 283.88812255859375 287.017333984375 284.288330078125 287.017333984375 284.6885070800781 287.017333984375 C 284.6885070800781 295.40484619140625 284.6885070800781 303.7923583984375 284.6885070800781 312.179931640625 C 284.288330078125 312.179931640625 283.88812255859375 312.179931640625 283.4879455566406 312.179931640625 C 283.4879455566406 303.7923583984375 283.4879455566406 295.40484619140625 283.4879455566406 287.017333984375M 296.062255859375 308.816650390625 C 302.7320556640625 308.816650390625 309.4018249511719 308.816650390625 316.0716247558594 308.816650390625 C 316.0716247558594 309.20416259765625 316.0716247558594 309.5916748046875 316.0716247558594 309.979248046875 C 309.4018249511719 309.979248046875 302.7320556640625 309.979248046875 296.062255859375 309.979248046875 C 296.062255859375 309.5916748046875 296.062255859375 309.20416259765625 296.062255859375 308.816650390625M 296.062255859375 315.83392333984375 C 302.7320556640625 315.83392333984375 309.4018249511719 315.83392333984375 316.0716247558594 315.83392333984375 C 316.0716247558594 316.221435546875 316.0716247558594 316.6090087890625 316.0716247558594 316.99658203125 C 309.4018249511719 316.99658203125 302.7320556640625 316.99658203125 296.062255859375 316.99658203125 C 296.062255859375 316.6090087890625 296.062255859375 316.221435546875 296.062255859375 315.83392333984375M 295.53570556640625 302.0899658203125 C 302.6126708984375 302.0899658203125 309.689697265625 302.0899658203125 316.76666259765625 302.0899658203125 C 316.76666259765625 307.5916748046875 316.76666259765625 313.0933837890625 316.76666259765625 318.59515380859375 C 316.3594970703125 318.59515380859375 315.9522705078125 318.59515380859375 315.5450439453125 318.59515380859375 C 315.5450439453125 313.48095703125 315.5450439453125 308.3668212890625 315.5450439453125 303.2525634765625 C 309.27545166015625 303.2525634765625 303.005859375 303.2525634765625 296.73626708984375 303.2525634765625 C 296.73626708984375 308.41522216796875 296.73626708984375 313.577880859375 296.73626708984375 318.740478515625 C 296.3360595703125 318.740478515625 295.9358825683594 318.740478515625 295.53570556640625 318.740478515625 C 295.53570556640625 313.1903076171875 295.53570556640625 307.64013671875 295.53570556640625 302.0899658203125M 298.16851806640625 292.2491455078125 C 298.16851806640625 293.9722900390625 298.16851806640625 295.69549560546875 298.16851806640625 297.418701171875 C 303.43414306640625 297.418701171875 308.69976806640625 297.418701171875 313.9653625488281 297.418701171875 C 313.9653625488281 295.69549560546875 313.9653625488281 293.9722900390625 313.9653625488281 292.2491455078125 C 308.69976806640625 292.2491455078125 303.43414306640625 292.2491455078125 298.16851806640625 292.2491455078125M 298.16851806640625 285.937744140625 C 298.16851806640625 287.65399169921875 298.16851806640625 289.3702392578125 298.16851806640625 291.0865478515625 C 303.43414306640625 291.0865478515625 308.69976806640625 291.0865478515625 313.9653625488281 291.0865478515625 C 313.9653625488281 289.3702392578125 313.9653625488281 287.65399169921875 313.9653625488281 285.937744140625 C 308.69976806640625 285.937744140625 303.43414306640625 285.937744140625 298.16851806640625 285.937744140625M 296.989013671875 284.79583740234375 C 303.04095458984375 284.79583740234375 309.0929260253906 284.79583740234375 315.1448669433594 284.79583740234375 C 315.1448669433594 289.40484619140625 315.1448669433594 294.01385498046875 315.1448669433594 298.622802734375 C 309.0929260253906 298.622802734375 303.04095458984375 298.622802734375 296.989013671875 298.622802734375 C 296.989013671875 294.01385498046875 296.989013671875 289.40484619140625 296.989013671875 284.79583740234375"/>
    <path stroke-width="0" fill="rgb(0, 0, 0)" opacity="1.0" d="M 339.72479248046875 282.86505126953125 C 340.1319580078125 282.86505126953125 340.5391845703125 282.86505126953125 340.9464111328125 282.86505126953125 C 340.9464111328125 284.4498291015625 340.9464111328125 286.03460693359375 340.9464111328125 287.619384765625 C 340.5391845703125 287.619384765625 340.1319580078125 287.619384765625 339.72479248046875 287.619384765625 C 339.72479248046875 286.03460693359375 339.72479248046875 284.4498291015625 339.72479248046875 282.86505126953125M 339.72479248046875 305.8685302734375 C 340.1319580078125 305.8685302734375 340.5391845703125 305.8685302734375 340.9464111328125 305.8685302734375 C 340.9464111328125 309.619384765625 340.9464111328125 313.3702392578125 340.9464111328125 317.12109375 C 340.5391845703125 317.12109375 340.1319580078125 317.12109375 339.72479248046875 317.12109375 C 339.72479248046875 313.3702392578125 339.72479248046875 309.619384765625 339.72479248046875 305.8685302734375M 323.633056640625 286.7889404296875 C 334.82421875 286.7889404296875 346.01544189453125 286.7889404296875 357.2066650390625 286.7889404296875 C 357.2066650390625 288.75433349609375 357.2066650390625 290.7197265625 357.2066650390625 292.68511962890625 C 356.7994384765625 292.68511962890625 356.3922119140625 292.68511962890625 355.98504638671875 292.68511962890625 C 355.98504638671875 291.100341796875 355.98504638671875 289.51556396484375 355.98504638671875 287.9307861328125 C 345.60821533203125 287.9307861328125 335.2314453125 287.9307861328125 324.85467529296875 287.9307861328125 C 324.85467529296875 289.51556396484375 324.85467529296875 291.100341796875 324.85467529296875 292.68511962890625 C 324.4474792480469 292.68511962890625 324.0402526855469 292.68511962890625 323.633056640625 292.68511962890625 C 323.633056640625 290.7197265625 323.633056640625 288.75433349609375 323.633056640625 286.7889404296875M 333.4271240234375 289.88232421875 C 333.8203125 289.88232421875 334.21343994140625 289.88232421875 334.6065673828125 289.88232421875 C 334.6065673828125 294.456787109375 334.6065673828125 299.0311279296875 334.6065673828125 303.60552978515625 C 334.21343994140625 303.60552978515625 333.8203125 303.60552978515625 333.4271240234375 303.60552978515625 C 333.4271240234375 299.0311279296875 333.4271240234375 294.456787109375 333.4271240234375 289.88232421875M 346.23309326171875 289.88232421875 C 346.62628173828125 289.88232421875 347.0194091796875 289.88232421875 347.41259765625 289.88232421875 C 347.41259765625 294.456787109375 347.41259765625 299.0311279296875 347.41259765625 303.60552978515625 C 347.0194091796875 303.60552978515625 346.62628173828125 303.60552978515625 346.23309326171875 303.60552978515625 C 346.23309326171875 299.0311279296875 346.23309326171875 294.456787109375 346.23309326171875 289.88232421875M 326.6239013671875 293.0380859375 C 335.722900390625 293.0380859375 344.8218994140625 293.0380859375 353.9208984375 293.0380859375 C 353.9208984375 293.42559814453125 353.9208984375 293.8131103515625 353.9208984375 294.20068359375 C 344.8218994140625 294.20068359375 335.722900390625 294.20068359375 326.6239013671875 294.20068359375 C 326.6239013671875 293.8131103515625 326.6239013671875 293.42559814453125 326.6239013671875 293.0380859375M 330.920654296875 310.062255859375 C 337.225341796875 310.062255859375 343.53009033203125 310.062255859375 349.83477783203125 310.062255859375 C 349.83477783203125 310.4498291015625 349.83477783203125 310.83740234375 349.83477783203125 311.22491455078125 C 343.53009033203125 311.22491455078125 337.225341796875 311.22491455078125 330.920654296875 311.22491455078125 C 330.920654296875 310.83740234375 330.920654296875 310.4498291015625 330.920654296875 310.062255859375M 324.328125 316.51904296875 C 335.16827392578125 316.51904296875 346.0084228515625 316.51904296875 356.84857177734375 316.51904296875 C 356.84857177734375 316.9066162109375 356.84857177734375 317.29412841796875 356.84857177734375 317.681640625 C 346.0084228515625 317.681640625 335.16827392578125 317.681640625 324.328125 317.681640625 C 324.328125 317.29412841796875 324.328125 316.9066162109375 324.328125 316.51904296875M 327.48748779296875 297.937744140625 C 335.98974609375 297.937744140625 344.491943359375 297.937744140625 352.994140625 297.937744140625 C 352.994140625 298.32525634765625 352.994140625 298.7127685546875 352.994140625 299.100341796875 C 344.491943359375 299.100341796875 335.98974609375 299.100341796875 327.48748779296875 299.100341796875 C 327.48748779296875 298.7127685546875 327.48748779296875 298.32525634765625 327.48748779296875 297.937744140625M 322.6220703125 303.1280517578125 C 334.52935791015625 303.1280517578125 346.43670654296875 303.1280517578125 358.343994140625 303.1280517578125 C 358.343994140625 303.5224609375 358.343994140625 303.9169921875 358.343994140625 304.3114013671875 C 346.43670654296875 304.3114013671875 334.52935791015625 304.3114013671875 322.6220703125 304.3114013671875 C 322.6220703125 303.9169921875 322.6220703125 303.5224609375 322.6220703125 303.1280517578125M 333.869384765625 303.439453125 C 334.2064208984375 303.58477783203125 334.54339599609375 303.7301025390625 334.88043212890625 303.87542724609375 C 334.03790283203125 305.176513671875 332.97076416015625 306.4290771484375 331.678955078125 307.6331787109375 C 330.3870849609375 308.823486328125 328.98291015625 309.89617919921875 327.4664306640625 310.8511962890625 C 325.9639892578125 311.80621337890625 324.4685363769531 312.581298828125 322.9801025390625 313.176513671875 C 322.93798828125 313.0380859375 322.8607482910156 312.92041015625 322.7484130859375 312.823486328125 C 322.6361083984375 312.7127685546875 322.52374267578125 312.60205078125 322.41143798828125 312.4913330078125 C 322.3131103515625 312.380615234375 322.20782470703125 312.2906494140625 322.0954895019531 312.221435546875 C 323.61199951171875 311.7093505859375 325.11444091796875 311.00341796875 326.60284423828125 310.10382080078125 C 328.1053161621094 309.20416259765625 329.49542236328125 308.179931640625 330.77325439453125 307.0311279296875 C 332.051025390625 305.8685302734375 333.0831298828125 304.6712646484375 333.869384765625 303.439453125M 347.0966796875 303.439453125 C 347.89703369140625 304.61590576171875 348.93609619140625 305.7508544921875 350.21392822265625 306.84429931640625 C 351.5057373046875 307.92388916015625 352.909912109375 308.8927001953125 354.4263916015625 309.7508544921875 C 355.95697021484375 310.59515380859375 357.48748779296875 311.24566650390625 359.01800537109375 311.702392578125 C 358.93377685546875 311.7716064453125 358.8284912109375 311.87542724609375 358.70208740234375 312.01385498046875 C 358.58978271484375 312.1522216796875 358.48443603515625 312.28369140625 358.38616943359375 312.4083251953125 C 358.3018798828125 312.51904296875 358.2176513671875 312.6297607421875 358.1334228515625 312.740478515625 C 356.60284423828125 312.20068359375 355.0653076171875 311.48095703125 353.520751953125 310.581298828125 C 351.99017333984375 309.681640625 350.56494140625 308.657470703125 349.2449951171875 307.5086669921875 C 347.93914794921875 306.34600830078125 346.85797119140625 305.1488037109375 346.00140380859375 303.9169921875 C 346.366455078125 303.7578125 346.7315673828125 303.5986328125 347.0966796875 303.439453125"/>
    <path stroke-width="0" fill="rgb(0, 0, 0)" opacity="1.0" d="M 385.7884521484375 284.19378662109375 C 384.988037109375 285.702392578125 383.9349365234375 287.2733154296875 382.6290283203125 288.9066162109375 C 381.3372802734375 290.539794921875 379.89794921875 292.12457275390625 378.311279296875 293.660888671875 C 376.72454833984375 295.183349609375 375.067626953125 296.560546875 373.34051513671875 297.7923583984375 C 373.25628662109375 297.65399169921875 373.1298828125 297.501708984375 372.96142578125 297.33563232421875 C 372.80694580078125 297.15570068359375 372.65948486328125 297.0103759765625 372.51904296875 296.899658203125 C 374.2462158203125 295.737060546875 375.91015625 294.3875732421875 377.5108642578125 292.8511962890625 C 379.12567138671875 291.301025390625 380.593017578125 289.67474365234375 381.9129638671875 287.9722900390625 C 383.23291015625 286.2698974609375 384.2860107421875 284.59515380859375 385.07232666015625 282.9481201171875 C 385.4725341796875 282.9481201171875 385.8726806640625 282.9481201171875 386.27288818359375 282.9481201171875 C 387.3260498046875 284.6505126953125 388.582763671875 286.34600830078125 390.0430908203125 288.03460693359375 C 391.50341796875 289.72314453125 393.04095458984375 291.3079833984375 394.65576171875 292.7889404296875 C 396.2705078125 294.25604248046875 397.84320068359375 295.5086669921875 399.373779296875 296.5467529296875 C 399.27545166015625 296.68511962890625 399.14208984375 296.8511962890625 398.97357177734375 297.04498291015625 C 398.819091796875 297.22491455078125 398.6856689453125 297.377197265625 398.5733642578125 297.501708984375 C 397.0147705078125 296.380615234375 395.42803955078125 295.0865478515625 393.813232421875 293.619384765625 C 392.2125244140625 292.138427734375 390.717041015625 290.5882568359375 389.326904296875 288.9688720703125 C 387.93682861328125 287.3494873046875 386.75732421875 285.7578125 385.7884521484375 284.19378662109375M 375.00445556640625 302.1729736328125 C 381.7935791015625 302.1729736328125 388.582763671875 302.1729736328125 395.37188720703125 302.1729736328125 C 395.37188720703125 302.5535888671875 395.37188720703125 302.93426513671875 395.37188720703125 303.31488037109375 C 388.582763671875 303.31488037109375 381.7935791015625 303.31488037109375 375.00445556640625 303.31488037109375 C 375.00445556640625 302.93426513671875 375.00445556640625 302.5535888671875 375.00445556640625 302.1729736328125M 394.887451171875 302.1729736328125 C 395.2806396484375 302.1729736328125 395.67376708984375 302.1729736328125 396.06689453125 302.1729736328125 C 396.06689453125 305.87542724609375 396.06689453125 309.577880859375 396.06689453125 313.2802734375 C 396.06689453125 313.737060546875 395.9967041015625 314.0899658203125 395.8563232421875 314.339111328125 C 395.72998046875 314.57440185546875 395.463134765625 314.740478515625 395.055908203125 314.83740234375 C 394.62060546875 314.9481201171875 393.9747314453125 315.017333984375 393.1181640625 315.04498291015625 C 392.27569580078125 315.0726318359375 391.1663818359375 315.0865478515625 389.790283203125 315.0865478515625 C 389.76220703125 314.8927001953125 389.6990966796875 314.698974609375 389.60076904296875 314.50518798828125 C 389.5164794921875 314.3114013671875 389.418212890625 314.11767578125 389.305908203125 313.92388916015625 C 390.58367919921875 313.9515380859375 391.643798828125 313.96539306640625 392.486328125 313.96539306640625 C 393.328857421875 313.96539306640625 393.904541015625 313.9515380859375 394.21343994140625 313.92388916015625 C 394.50830078125 313.89617919921875 394.69085693359375 313.8477783203125 394.7611083984375 313.778564453125 C 394.8453369140625 313.69549560546875 394.887451171875 313.5294189453125 394.887451171875 313.2802734375 C 394.887451171875 309.577880859375 394.887451171875 305.87542724609375 394.887451171875 302.1729736328125M 378.5850830078125 295.0726318359375 C 383.47857666015625 295.0726318359375 388.37213134765625 295.0726318359375 393.265625 295.0726318359375 C 393.265625 295.460205078125 393.265625 295.8477783203125 393.265625 296.23529052734375 C 388.37213134765625 296.23529052734375 383.47857666015625 296.23529052734375 378.5850830078125 296.23529052734375 C 378.5850830078125 295.8477783203125 378.5850830078125 295.460205078125 378.5850830078125 295.0726318359375M 383.724365234375 302.6090087890625 C 384.11749267578125 302.6090087890625 384.5106201171875 302.6090087890625 384.90380859375 302.6090087890625 C 384.90380859375 307.98614501953125 384.90380859375 313.36328125 384.90380859375 318.740478515625 C 384.5106201171875 318.740478515625 384.11749267578125 318.740478515625 383.724365234375 318.740478515625 C 383.724365234375 313.36328125 383.724365234375 307.98614501953125 383.724365234375 302.6090087890625M 368.5172119140625 282.86505126953125 C 368.9244384765625 282.86505126953125 369.3316650390625 282.86505126953125 369.73883056640625 282.86505126953125 C 369.73883056640625 294.816650390625 369.73883056640625 306.7681884765625 369.73883056640625 318.7197265625 C 369.3316650390625 318.7197265625 368.9244384765625 318.7197265625 368.5172119140625 318.7197265625 C 368.5172119140625 306.7681884765625 368.5172119140625 294.816650390625 368.5172119140625 282.86505126953125M 364.3258056640625 290.35986328125 C 364.7119140625 290.4290771484375 365.09808349609375 290.498291015625 365.48419189453125 290.5675048828125 C 365.45611572265625 291.6885986328125 365.35784912109375 292.8927001953125 365.1893310546875 294.179931640625 C 365.02081298828125 295.4671630859375 364.76806640625 296.7127685546875 364.43109130859375 297.9169921875 C 364.0941162109375 299.1072998046875 363.65179443359375 300.12457275390625 363.1041259765625 300.9688720703125 C 362.75311279296875 300.79583740234375 362.402099609375 300.622802734375 362.051025390625 300.4498291015625 C 362.570556640625 299.660888671875 362.9918212890625 298.6920166015625 363.31475830078125 297.543212890625 C 363.6376953125 296.39447021484375 363.87646484375 295.197265625 364.0308837890625 293.9515380859375 C 364.19940185546875 292.70587158203125 364.2977294921875 291.5086669921875 364.3258056640625 290.35986328125M 371.2763671875 289.0103759765625 C 371.599365234375 288.8511962890625 371.92230224609375 288.6920166015625 372.2452392578125 288.5328369140625 C 372.80694580078125 289.4324951171875 373.32647705078125 290.422119140625 373.80389404296875 291.501708984375 C 374.29534912109375 292.581298828125 374.639404296875 293.48095703125 374.8359375 294.20068359375 C 374.49896240234375 294.4083251953125 374.1619873046875 294.61590576171875 373.824951171875 294.823486328125 C 373.61431884765625 294.062255859375 373.2633056640625 293.1280517578125 372.7718505859375 292.020751953125 C 372.2803955078125 290.9134521484375 371.7818603515625 289.9100341796875 371.2763671875 289.0103759765625"/>
    <path stroke-width="0" fill="rgb(0, 0, 0)" opacity="1.0" d="M 417.740234375 285.1903076171875 C 418.1053466796875 285.1903076171875 418.47039794921875 285.1903076171875 418.83544921875 285.1903076171875 C 418.83544921875 294.7127685546875 418.83544921875 304.23529052734375 418.83544921875 313.7578125 C 418.83544921875 314.4498291015625 418.93377685546875 315.00341796875 419.13037109375 315.418701171875 C 419.3409423828125 315.83392333984375 419.72711181640625 316.12457275390625 420.288818359375 316.2906494140625 C 420.8504638671875 316.4705810546875 421.643798828125 316.560546875 422.6688232421875 316.560546875 C 422.9637451171875 316.560546875 423.525390625 316.560546875 424.3538818359375 316.560546875 C 425.18231201171875 316.560546875 426.12310791015625 316.560546875 427.17626953125 316.560546875 C 428.243408203125 316.560546875 429.317626953125 316.560546875 430.3988037109375 316.560546875 C 431.47998046875 316.560546875 432.462890625 316.560546875 433.3475341796875 316.560546875 C 434.2462158203125 316.560546875 434.9061279296875 316.560546875 435.327392578125 316.560546875 C 436.254150390625 316.560546875 436.9351806640625 316.380615234375 437.3704833984375 316.020751953125 C 437.81982421875 315.660888671875 438.12872314453125 315.017333984375 438.2972412109375 314.0899658203125 C 438.479736328125 313.16259765625 438.627197265625 311.861572265625 438.739501953125 310.1868896484375 C 438.89398193359375 310.28369140625 439.0765380859375 310.380615234375 439.28717041015625 310.4775390625 C 439.5118408203125 310.57440185546875 439.7154541015625 310.6505126953125 439.89794921875 310.70587158203125 C 439.7996826171875 312.422119140625 439.6241455078125 313.78546142578125 439.37139892578125 314.79583740234375 C 439.1326904296875 315.80621337890625 438.6904296875 316.52593994140625 438.04443359375 316.95501708984375 C 437.3985595703125 317.38409423828125 436.4156494140625 317.5986328125 435.095703125 317.5986328125 C 434.899169921875 317.5986328125 434.3865966796875 317.5986328125 433.55816650390625 317.5986328125 C 432.7437744140625 317.5986328125 431.77490234375 317.5986328125 430.65155029296875 317.5986328125 C 429.542236328125 317.5986328125 428.4189453125 317.5986328125 427.28155517578125 317.5986328125 C 426.158203125 317.5986328125 425.1893310546875 317.5986328125 424.3748779296875 317.5986328125 C 423.56048583984375 317.5986328125 423.06201171875 317.5986328125 422.8795166015625 317.5986328125 C 421.5595703125 317.5986328125 420.5274658203125 317.4879150390625 419.7833251953125 317.2664794921875 C 419.0390625 317.058837890625 418.5125732421875 316.6712646484375 418.20361328125 316.10382080078125 C 417.8946533203125 315.5501708984375 417.740234375 314.76123046875 417.740234375 313.737060546875 C 417.740234375 304.221435546875 417.740234375 294.70587158203125 417.740234375 285.1903076171875M 418.3931884765625 285.1903076171875 C 424.6978759765625 285.1903076171875 431.0025634765625 285.1903076171875 437.3072509765625 285.1903076171875 C 437.3072509765625 291.7923583984375 437.3072509765625 298.39447021484375 437.3072509765625 304.99658203125 C 436.921142578125 304.99658203125 436.53497314453125 304.99658203125 436.1488037109375 304.99658203125 C 436.1488037109375 298.781982421875 436.1488037109375 292.5675048828125 436.1488037109375 286.3529052734375 C 430.23028564453125 286.3529052734375 424.311767578125 286.3529052734375 418.3931884765625 286.3529052734375 C 418.3931884765625 285.96539306640625 418.3931884765625 285.577880859375 418.3931884765625 285.1903076171875M 418.35107421875 301.0933837890625 C 424.536376953125 301.0933837890625 430.72174072265625 301.0933837890625 436.9071044921875 301.0933837890625 C 436.9071044921875 301.48095703125 436.9071044921875 301.8685302734375 436.9071044921875 302.25604248046875 C 430.72174072265625 302.25604248046875 424.536376953125 302.25604248046875 418.35107421875 302.25604248046875 C 418.35107421875 301.8685302734375 418.35107421875 301.48095703125 418.35107421875 301.0933837890625M 426.88134765625 285.418701171875 C 427.2745361328125 285.418701171875 427.667724609375 285.418701171875 428.06085205078125 285.418701171875 C 428.06085205078125 290.816650390625 428.06085205078125 296.21453857421875 428.06085205078125 301.6124267578125 C 427.667724609375 301.6124267578125 427.2745361328125 301.6124267578125 426.88134765625 301.6124267578125 C 426.88134765625 296.21453857421875 426.88134765625 290.816650390625 426.88134765625 285.418701171875M 403.017578125 304.8304443359375 C 404.0426025390625 304.5120849609375 405.22210693359375 304.14532470703125 406.5560302734375 303.7301025390625 C 407.8900146484375 303.301025390625 409.30120849609375 302.84429931640625 410.78961181640625 302.35986328125 C 412.29205322265625 301.861572265625 413.81561279296875 301.3702392578125 415.36016845703125 300.88580322265625 C 415.42333984375 301.2733154296875 415.486572265625 301.660888671875 415.54974365234375 302.0484619140625 C 413.429443359375 302.740478515625 411.316162109375 303.439453125 409.2099609375 304.14532470703125 C 407.1036376953125 304.8511962890625 405.2291259765625 305.48095703125 403.58624267578125 306.03460693359375 C 403.396728515625 305.6331787109375 403.2071533203125 305.2318115234375 403.017578125 304.8304443359375M 403.62835693359375 291.48095703125 C 407.37750244140625 291.48095703125 411.1265869140625 291.48095703125 414.875732421875 291.48095703125 C 414.875732421875 291.88232421875 414.875732421875 292.28369140625 414.875732421875 292.68511962890625 C 411.1265869140625 292.68511962890625 407.37750244140625 292.68511962890625 403.62835693359375 292.68511962890625 C 403.62835693359375 292.28369140625 403.62835693359375 291.88232421875 403.62835693359375 291.48095703125M 408.999267578125 282.9066162109375 C 409.406494140625 282.9066162109375 409.813720703125 282.9066162109375 410.220947265625 282.9066162109375 C 410.220947265625 294.25604248046875 410.220947265625 305.60552978515625 410.220947265625 316.95501708984375 C 410.220947265625 317.4671630859375 410.129638671875 317.8408203125 409.9471435546875 318.07611083984375 C 409.77862548828125 318.3114013671875 409.51885986328125 318.48443603515625 409.1678466796875 318.59515380859375 C 408.8167724609375 318.6920166015625 408.31829833984375 318.75433349609375 407.67236328125 318.781982421875 C 407.0264892578125 318.8096923828125 406.14886474609375 318.8096923828125 405.03955078125 318.781982421875 C 405.011474609375 318.657470703125 404.94830322265625 318.4775390625 404.8499755859375 318.2421875 C 404.7657470703125 318.020751953125 404.66748046875 317.83392333984375 404.55511474609375 317.681640625 C 405.49591064453125 317.7093505859375 406.310302734375 317.72314453125 406.9984130859375 317.72314453125 C 407.6864013671875 317.72314453125 408.14276123046875 317.7093505859375 408.367431640625 317.681640625 C 408.7886962890625 317.681640625 408.999267578125 317.4532470703125 408.999267578125 316.99658203125 C 408.999267578125 305.6331787109375 408.999267578125 294.2698974609375 408.999267578125 282.9066162109375"/>
    <path stroke-width="0" fill="rgb(0, 0, 0)" opacity="1.0" d="M 467.2791748046875 298.3321533203125 C 467.7215576171875 298.48443603515625 468.163818359375 298.63671875 468.60614013671875 298.7889404296875 C 468.15679931640625 300.1591796875 467.65130615234375 301.6331787109375 467.089599609375 303.2110595703125 C 466.5419921875 304.77508544921875 465.97332763671875 306.35986328125 465.383544921875 307.96539306640625 C 464.7938232421875 309.5709228515625 464.197021484375 311.1072998046875 463.59326171875 312.57440185546875 C 463.0035400390625 314.0277099609375 462.44183349609375 315.3287353515625 461.90826416015625 316.4775390625 C 461.543212890625 316.3321533203125 461.1781005859375 316.1868896484375 460.81298828125 316.04150390625 C 461.3465576171875 314.8927001953125 461.915283203125 313.58477783203125 462.51904296875 312.11767578125 C 463.136962890625 310.63671875 463.733642578125 309.0933837890625 464.30938720703125 307.4879150390625 C 464.8851318359375 305.88232421875 465.4256591796875 304.2906494140625 465.93121337890625 302.7127685546875 C 466.45074462890625 301.12109375 466.90008544921875 299.660888671875 467.2791748046875 298.3321533203125M 456.8953857421875 315.7923583984375 C 458.56634521484375 315.72314453125 460.5391845703125 315.6263427734375 462.81396484375 315.501708984375 C 465.0887451171875 315.377197265625 467.53900146484375 315.23876953125 470.164794921875 315.0865478515625 C 472.8045654296875 314.92041015625 475.45849609375 314.77508544921875 478.1263427734375 314.6505126953125 C 478.11236572265625 315.017333984375 478.0982666015625 315.38409423828125 478.084228515625 315.7508544921875 C 475.542724609375 315.9169921875 472.9871826171875 316.07611083984375 470.41748046875 316.2283935546875 C 467.8619384765625 316.39447021484375 465.44677734375 316.539794921875 463.1719970703125 316.66436767578125 C 460.89727783203125 316.802734375 458.88232421875 316.9273681640625 457.1270751953125 317.0380859375 C 457.0498046875 316.622802734375 456.97265625 316.2076416015625 456.8953857421875 315.7923583984375M 471.8076171875 306.34600830078125 C 472.130615234375 306.1868896484375 472.45355224609375 306.0277099609375 472.7764892578125 305.8685302734375 C 473.77349853515625 307.1695556640625 474.7703857421875 308.581298828125 475.76739501953125 310.10382080078125 C 476.76434326171875 311.6124267578125 477.6629638671875 313.0865478515625 478.46337890625 314.52593994140625 C 479.27777099609375 315.96539306640625 479.91668701171875 317.22491455078125 480.38006591796875 318.30450439453125 C 480.0150146484375 318.4913330078125 479.64990234375 318.67822265625 479.2847900390625 318.86505126953125 C 478.863525390625 317.78546142578125 478.2457275390625 316.51904296875 477.43133544921875 315.06573486328125 C 476.616943359375 313.6124267578125 475.7252197265625 312.12457275390625 474.75634765625 310.60205078125 C 473.7874755859375 309.06573486328125 472.8045654296875 307.6470947265625 471.8076171875 306.34600830078125M 464.5621337890625 283.5086669921875 C 464.9693603515625 283.5916748046875 465.3765869140625 283.67474365234375 465.78375244140625 283.7578125 C 465.27825927734375 285.8477783203125 464.660400390625 287.85467529296875 463.9302978515625 289.778564453125 C 463.2000732421875 291.6885986328125 462.37164306640625 293.4532470703125 461.44488525390625 295.0726318359375 C 460.5322265625 296.6920166015625 459.5281982421875 298.138427734375 458.4329833984375 299.4117431640625 C 458.3487548828125 299.342529296875 458.23638916015625 299.2664794921875 458.095947265625 299.183349609375 C 457.9696044921875 299.100341796875 457.836181640625 299.017333984375 457.69580078125 298.93426513671875 C 457.55535888671875 298.8511962890625 457.4219970703125 298.7889404296875 457.29559326171875 298.7474365234375 C 458.447021484375 297.51556396484375 459.47906494140625 296.10382080078125 460.39178466796875 294.5120849609375 C 461.3184814453125 292.92041015625 462.1329345703125 291.197265625 462.83502197265625 289.342529296875 C 463.537109375 287.47406005859375 464.11279296875 285.5294189453125 464.5621337890625 283.5086669921875M 472.9871826171875 283.4671630859375 C 473.548828125 285.33563232421875 474.23681640625 287.23876953125 475.05126953125 289.176513671875 C 475.8797607421875 291.11419677734375 476.75732421875 292.9066162109375 477.68408203125 294.5535888671875 C 478.6248779296875 296.20068359375 479.5235595703125 297.543212890625 480.38006591796875 298.581298828125 C 480.2677001953125 298.63671875 480.14837646484375 298.7197265625 480.02197265625 298.8304443359375 C 479.90966796875 298.9273681640625 479.790283203125 299.0380859375 479.6639404296875 299.16259765625 C 479.5516357421875 299.2733154296875 479.4393310546875 299.38409423828125 479.326904296875 299.49481201171875 C 478.470458984375 298.37371826171875 477.5787353515625 296.9481201171875 476.6519775390625 295.218017578125 C 475.7392578125 293.47406005859375 474.8687744140625 291.6124267578125 474.040283203125 289.6331787109375 C 473.225830078125 287.65399169921875 472.5238037109375 285.7301025390625 471.93402099609375 283.861572265625 C 472.2850341796875 283.7301025390625 472.6361083984375 283.5986328125 472.9871826171875 283.4671630859375M 443.89984130859375 291.7716064453125 C 448.5546875 291.7716064453125 453.20947265625 291.7716064453125 457.8642578125 291.7716064453125 C 457.8642578125 292.16607666015625 457.8642578125 292.560546875 457.8642578125 292.95501708984375 C 453.20947265625 292.95501708984375 448.5546875 292.95501708984375 443.89984130859375 292.95501708984375 C 443.89984130859375 292.560546875 443.89984130859375 292.16607666015625 443.89984130859375 291.7716064453125M 450.7030029296875 282.86505126953125 C 451.09619140625 282.86505126953125 451.4893798828125 282.86505126953125 451.882568359375 282.86505126953125 C 451.882568359375 294.816650390625 451.882568359375 306.7681884765625 451.882568359375 318.7197265625 C 451.4893798828125 318.7197265625 451.09619140625 318.7197265625 450.7030029296875 318.7197265625 C 450.7030029296875 306.7681884765625 450.7030029296875 294.816650390625 450.7030029296875 282.86505126953125M 450.57666015625 292.2491455078125 C 450.927734375 292.3529052734375 451.2786865234375 292.456787109375 451.6297607421875 292.560546875 C 451.2786865234375 294.1522216796875 450.808349609375 295.8131103515625 450.2186279296875 297.543212890625 C 449.64288330078125 299.2733154296875 449.010986328125 300.9619140625 448.322998046875 302.6090087890625 C 447.64892578125 304.25604248046875 446.92584228515625 305.78546142578125 446.153564453125 307.197265625 C 445.3812255859375 308.59515380859375 444.615966796875 309.78546142578125 443.85772705078125 310.7681884765625 C 443.7593994140625 310.6435546875 443.6190185546875 310.4913330078125 443.43646240234375 310.3114013671875 C 443.2679443359375 310.11767578125 443.0994873046875 309.96539306640625 442.93096923828125 309.85467529296875 C 443.689208984375 308.9273681640625 444.4404296875 307.7923583984375 445.1846923828125 306.4498291015625 C 445.94287109375 305.1072998046875 446.666015625 303.64013671875 447.3541259765625 302.0484619140625 C 448.0421142578125 300.456787109375 448.65997314453125 298.823486328125 449.20758056640625 297.1488037109375 C 449.769287109375 295.47406005859375 450.2255859375 293.8408203125 450.57666015625 292.2491455078125M 451.671875 297.501708984375 C 451.938720703125 297.76470947265625 452.3529052734375 298.221435546875 452.91455078125 298.8719482421875 C 453.49029541015625 299.5224609375 454.108154296875 300.2283935546875 454.76806640625 300.9896240234375 C 455.42803955078125 301.7508544921875 456.0247802734375 302.456787109375 456.55841064453125 303.1072998046875 C 457.10601806640625 303.7578125 457.485107421875 304.2283935546875 457.69580078125 304.51904296875 C 457.3587646484375 304.86505126953125 457.021728515625 305.2110595703125 456.684814453125 305.55712890625 C 456.446044921875 305.15570068359375 456.0599365234375 304.6090087890625 455.5263671875 303.9169921875 C 455.00677490234375 303.22491455078125 454.4381103515625 302.50518798828125 453.8203125 301.7578125 C 453.21649169921875 300.99658203125 452.6478271484375 300.2906494140625 452.1142578125 299.64013671875 C 451.58062744140625 298.9896240234375 451.1663818359375 298.50518798828125 450.87152099609375 298.1868896484375 C 451.1383056640625 297.95849609375 451.40509033203125 297.7301025390625 451.671875 297.501708984375"/>
  </g>
</svg>
