<?xml version="1.0" encoding="utf-8"?>
<svg xmlns="http://www.w3.org/2000/svg" xmlns:ev="http://www.w3.org/2001/xml-events" xmlns:xlink="http://www.w3.org/1999/xlink" version="1.1" baseProfile="full" width="5184.0" height="1536.0" viewBox="361.0 -1473.0 5184.0 1536.0">
<defs/>
<g><path d="M 2519.000000 -1473.000000 C 2569.000000 -1459.666667 2627.333333 -1447.000000 2694.000000 -1435.000000 C 2760.666667 -1423.000000 2829.000000 -1411.666667 2899.000000 -1401.000000 C 2969.666667 -1391.000000 3036.000000 -1382.666667 3098.000000 -1376.000000 C 3160.000000 -1370.000000 3212.000000 -1365.666667 3254.000000 -1363.000000 C 3250.333333 -1344.000000 3246.666667 -1325.000000 3243.000000 -1306.000000 C 3197.000000 -1309.333333 3144.000000 -1314.666667 3084.000000 -1322.000000 C 3024.666667 -1330.000000 2962.000000 -1338.666667 2896.000000 -1348.000000 C 2830.000000 -1358.000000 2763.666667 -1368.666667 2697.000000 -1380.000000 C 2631.000000 -1392.000000 2568.000000 -1403.666667 2508.000000 -1415.000000 C 2511.666667 -1434.333333 2515.333333 -1453.666667 2519.000000 -1473.000000z M 3262.000000 -983.000000 C 3252.000000 -975.666667 3236.666667 -963.333333 3216.000000 -946.000000 C 3195.333333 -928.666667 3182.000000 -916.666667 3176.000000 -910.000000 C 3160.666667 -894.666667 3135.666667 -870.666667 3101.000000 -838.000000 C 3066.333333 -805.333333 3027.666667 -768.333333 2985.000000 -727.000000 C 2943.000000 -686.333333 2902.000000 -647.000000 2862.000000 -609.000000 C 2822.666667 -571.666667 2791.000000 -540.333333 2767.000000 -515.000000 C 2778.333333 -517.000000 2791.666667 -518.666667 2807.000000 -520.000000 C 2822.333333 -521.333333 2834.666667 -522.000000 2844.000000 -522.000000 C 2891.333333 -522.000000 2929.000000 -508.666667 2957.000000 -482.000000 C 2985.000000 -455.333333 3005.333333 -420.666667 3018.000000 -378.000000 C 3024.666667 -358.000000 3032.333333 -332.333333 3041.000000 -301.000000 C 3050.333333 -270.333333 3059.333333 -239.000000 3068.000000 -207.000000 C 3077.333333 -175.000000 3085.666667 -147.000000 3093.000000 -123.000000 C 3107.000000 -79.666667 3128.000000 -48.666667 3156.000000 -30.000000 C 3184.666667 -11.333333 3229.666667 -2.000000 3291.000000 -2.000000 C 3327.000000 -2.000000 3366.666667 -3.666667 3410.000000 -7.000000 C 3453.333333 -11.000000 3495.333333 -16.666667 3536.000000 -24.000000 C 3577.333333 -31.333333 3612.000000 -39.333333 3640.000000 -48.000000 C 3638.666667 -24.333333 3637.333333 -0.666667 3636.000000 23.000000 C 3609.333333 28.333333 3575.666667 33.000000 3535.000000 37.000000 C 3495.000000 41.666667 3453.666667 45.666667 3411.000000 49.000000 C 3368.333333 52.333333 3329.000000 54.000000 3293.000000 54.000000 C 3229.000000 54.000000 3174.666667 43.000000 3130.000000 21.000000 C 3086.000000 -1.000000 3055.000000 -44.333333 3037.000000 -109.000000 C 3032.333333 -128.333333 3025.333333 -154.333333 3016.000000 -187.000000 C 3007.333333 -219.666667 2998.333333 -252.333333 2989.000000 -285.000000 C 2980.333333 -317.666667 2972.000000 -344.333333 2964.000000 -365.000000 C 2952.666667 -398.333333 2936.000000 -425.000000 2914.000000 -445.000000 C 2892.666667 -465.666667 2865.333333 -476.000000 2832.000000 -476.000000 C 2798.666667 -476.000000 2769.000000 -470.666667 2743.000000 -460.000000 C 2717.666667 -449.333333 2694.333333 -434.333333 2673.000000 -415.000000 C 2657.666667 -401.000000 2635.333333 -379.666667 2606.000000 -351.000000 C 2577.333333 -323.000000 2545.333333 -290.666667 2510.000000 -254.000000 C 2475.333333 -218.000000 2440.333333 -180.666667 2405.000000 -142.000000 C 2369.666667 -103.333333 2337.000000 -67.333333 2307.000000 -34.000000 C 2277.000000 -1.333333 2253.666667 26.000000 2237.000000 48.000000 C 2215.333333 32.666667 2193.666667 17.333333 2172.000000 2.000000 C 2178.000000 -3.333333 2186.333333 -10.333333 2197.000000 -19.000000 C 2208.333333 -28.333333 2219.666667 -38.666667 2231.000000 -50.000000 C 2239.666667 -58.666667 2263.666667 -82.333333 2303.000000 -121.000000 C 2342.333333 -160.333333 2390.333333 -208.333333 2447.000000 -265.000000 C 2503.666667 -322.333333 2565.000000 -384.333333 2631.000000 -451.000000 C 2697.000000 -517.666667 2763.000000 -583.333333 2829.000000 -648.000000 C 2895.000000 -712.666667 2955.333333 -772.000000 3010.000000 -826.000000 C 3065.333333 -880.666667 3109.666667 -924.000000 3143.000000 -956.000000 C 3109.666667 -953.333333 3067.666667 -949.666667 3017.000000 -945.000000 C 2966.333333 -941.000000 2912.666667 -936.666667 2856.000000 -932.000000 C 2799.333333 -927.333333 2743.333333 -922.333333 2688.000000 -917.000000 C 2632.666667 -912.333333 2582.666667 -908.333333 2538.000000 -905.000000 C 2493.333333 -901.666667 2458.333333 -899.000000 2433.000000 -897.000000 C 2403.000000 -895.666667 2377.000000 -893.666667 2355.000000 -891.000000 C 2333.666667 -888.333333 2312.333333 -885.666667 2291.000000 -883.000000 C 2289.000000 -906.666667 2287.000000 -930.333333 2285.000000 -954.000000 C 2306.333333 -952.666667 2328.666667 -951.666667 2352.000000 -951.000000 C 2375.333333 -950.333333 2400.333333 -950.666667 2427.000000 -952.000000 C 2452.333333 -953.333333 2489.000000 -955.666667 2537.000000 -959.000000 C 2585.000000 -962.333333 2638.333333 -966.000000 2697.000000 -970.000000 C 2756.333333 -974.666667 2815.000000 -980.000000 2873.000000 -986.000000 C 2931.666667 -992.000000 2985.000000 -997.000000 3033.000000 -1001.000000 C 3081.000000 -1005.666667 3117.666667 -1010.000000 3143.000000 -1014.000000 C 3158.333333 -1016.666667 3172.666667 -1019.333333 3186.000000 -1022.000000 C 3199.333333 -1025.333333 3210.666667 -1029.000000 3220.000000 -1033.000000 C 3234.000000 -1016.333333 3248.000000 -999.666667 3262.000000 -983.000000z "/>
</g></svg>
