<?xml version="1.0" encoding="utf-8"?>
<svg xmlns="http://www.w3.org/2000/svg" xmlns:ev="http://www.w3.org/2001/xml-events" xmlns:xlink="http://www.w3.org/1999/xlink" version="1.1" baseProfile="full" width="20903.0" height="1740.0" viewBox="106.0 -1596.0 20903.0 1740.0">
<defs/>
<g><path d="M 19313.000000 -1452.000000 C 19878.333333 -1452.000000 20443.666667 -1452.000000 21009.000000 -1452.000000 C 21009.000000 -1432.666667 21009.000000 -1413.333333 21009.000000 -1394.000000 C 20443.666667 -1394.000000 19878.333333 -1394.000000 19313.000000 -1394.000000 C 19313.000000 -1413.333333 19313.000000 -1432.666667 19313.000000 -1452.000000z M 20097.000000 -1432.000000 C 20115.333333 -1432.000000 20133.666667 -1432.000000 20152.000000 -1432.000000 C 20152.000000 -910.000000 20152.000000 -388.000000 20152.000000 134.000000 C 20133.666667 134.000000 20115.333333 134.000000 20097.000000 134.000000 C 20097.000000 -388.000000 20097.000000 -910.000000 20097.000000 -1432.000000z M 20133.000000 -987.000000 C 20144.000000 -999.666667 20155.000000 -1012.333333 20166.000000 -1025.000000 C 20228.666667 -995.666667 20293.333333 -963.000000 20360.000000 -927.000000 C 20427.333333 -891.666667 20493.333333 -855.000000 20558.000000 -817.000000 C 20622.666667 -779.000000 20682.666667 -742.333333 20738.000000 -707.000000 C 20794.000000 -672.333333 20842.000000 -640.666667 20882.000000 -612.000000 C 20871.000000 -595.666667 20860.000000 -579.333333 20849.000000 -563.000000 C 20809.666667 -592.333333 20762.000000 -624.666667 20706.000000 -660.000000 C 20650.666667 -696.000000 20590.666667 -733.000000 20526.000000 -771.000000 C 20461.333333 -809.666667 20395.333333 -847.666667 20328.000000 -885.000000 C 20260.666667 -922.333333 20195.666667 -956.333333 20133.000000 -987.000000z "/>
</g></svg>
