<?xml version="1.0" ?>
<svg xmlns="http://www.w3.org/2000/svg" version="1.1" width="600" height="600">
  <defs/>
  <g>
    <path stroke-width="0" fill="rgb(0, 0, 0)" opacity="1.0" d="M 226.79443359375 139.84405517578125 C 224.18017578125 149.61468505859375 221.63427734375 160.761474609375 219.1572265625 173.28439331054688 C 216.8173828125 185.66973876953125 214.75341796875 198.33029174804688 212.96484375 211.26605224609375 C 211.3134765625 224.20184326171875 209.86865234375 236.51834106445312 208.6298828125 248.215576171875 C 207.52880859375 259.7752380371094 206.703125 269.7522888183594 206.15283203125 278.14678955078125 C 209.59326171875 265.48626708984375 214.89111328125 252.34405517578125 222.046875 238.72018432617188 C 229.34033203125 225.0963134765625 238.21630859375 212.57342529296875 248.6748046875 201.1513671875 C 259.1328125 189.59173583984375 270.69189453125 180.23394775390625 283.3525390625 173.07797241210938 C 296.0126953125 165.78439331054688 309.36083984375 162.13760375976562 323.39697265625 162.13760375976562 C 340.0478515625 162.13760375976562 354.56591796875 167.57339477539062 366.95068359375 178.4449462890625 C 379.47314453125 189.17889404296875 389.1064453125 204.3165283203125 395.84912109375 223.8577880859375 C 402.7294921875 243.39910888671875 406.169921875 266.3807373046875 406.169921875 292.802734375 C 406.169921875 319.7752685546875 402.04150390625 342.96331787109375 393.78466796875 362.366943359375 C 385.66552734375 381.7706298828125 374.31298828125 398.0091552734375 359.72607421875 411.08258056640625 C 345.27734375 424.156005859375 328.2822265625 434.7523193359375 308.74169921875 442.87158203125 C 289.201171875 450.85321044921875 268.07763671875 456.8394775390625 245.3720703125 460.83026123046875 C 242.826171875 457.11468505859375 240.2802734375 453.3990478515625 237.734375 449.6834716796875 C 258.92626953125 446.518310546875 278.88037109375 441.49542236328125 297.59521484375 434.61468505859375 C 316.44775390625 427.5963134765625 333.0986328125 418.0321044921875 347.5478515625 405.9219970703125 C 362.13427734375 393.67431640625 373.55615234375 378.33026123046875 381.8125 359.889892578125 C 390.20703125 341.3118896484375 394.404296875 319.2247314453125 394.404296875 293.6284484863281 C 394.404296875 272.1605529785156 391.8583984375 252.27523803710938 386.7666015625 233.97247314453125 C 381.8125 215.66973876953125 374.0380859375 200.9449462890625 363.44189453125 189.79815673828125 C 352.845703125 178.6513671875 339.08447265625 173.07797241210938 322.15869140625 173.07797241210938 C 309.22314453125 173.07797241210938 296.56298828125 177.13760375976562 284.17822265625 185.25689697265625 C 271.79296875 193.238525390625 260.4404296875 203.697265625 250.11962890625 216.63302612304688 C 239.798828125 229.43121337890625 231.2666015625 243.12384033203125 224.52392578125 257.71099853515625 C 217.78125 272.1605529785156 213.37744140625 285.85321044921875 211.3134765625 298.78900146484375 C 209.662109375 308.55963134765625 208.83642578125 317.5733642578125 208.83642578125 325.83026123046875 C 208.83642578125 333.94952392578125 209.662109375 343.4449462890625 211.3134765625 354.3165283203125 C 207.04736328125 354.6605224609375 202.78125 355.00457763671875 198.515625 355.3486328125 C 197.8271484375 348.0550537109375 197.07080078125 339.38531494140625 196.2451171875 329.3394775390625 C 195.41943359375 319.2935791015625 195.00634765625 308.0780029296875 195.00634765625 295.6926574707031 C 195.00634765625 286.05963134765625 195.48828125 275.1192626953125 196.451171875 262.87158203125 C 197.55224609375 250.62384033203125 198.859375 238.238525390625 200.37353515625 225.715576171875 C 201.88720703125 213.0550537109375 203.400390625 201.49542236328125 204.91455078125 191.03668212890625 C 206.56591796875 180.44036865234375 207.7353515625 172.25228881835938 208.42333984375 166.47247314453125 C 209.2490234375 161.93118286132812 209.86865234375 157.6651611328125 210.28125 153.67431640625 C 210.69384765625 149.6834716796875 211.17578125 144.93576049804688 211.72607421875 139.43118286132812 C 216.7490234375 139.56881713867188 221.771484375 139.7064208984375 226.79443359375 139.84405517578125"/>
  </g>
</svg>
