<?xml version="1.0" encoding="utf-8"?>
<svg xmlns="http://www.w3.org/2000/svg" xmlns:ev="http://www.w3.org/2001/xml-events" xmlns:xlink="http://www.w3.org/1999/xlink" version="1.1" baseProfile="full" width="16896.0" height="1920.0" viewBox="192.0 -1690.0 16896.0 1920.0">
<defs/>
<g><path d="M 7872.000000 230.000000 C 7872.000000 -410.000000 7872.000000 -1050.000000 7872.000000 -1690.000000 C 8384.000000 -1690.000000 8896.000000 -1690.000000 9408.000000 -1690.000000 C 9408.000000 -1050.000000 9408.000000 -410.000000 9408.000000 230.000000 C 8896.000000 230.000000 8384.000000 230.000000 7872.000000 230.000000z M 8640.000000 -808.000000 C 8843.666667 -1070.000000 9047.333333 -1332.000000 9251.000000 -1594.000000 C 8843.666667 -1594.000000 8436.333333 -1594.000000 8029.000000 -1594.000000 C 8232.666667 -1332.000000 8436.333333 -1070.000000 8640.000000 -808.000000z M 8701.000000 -730.000000 C 8904.666667 -468.000000 9108.333333 -206.000000 9312.000000 56.000000 C 9312.000000 -467.666667 9312.000000 -991.333333 9312.000000 -1515.000000 C 9108.333333 -1253.333333 8904.666667 -991.666667 8701.000000 -730.000000z M 8029.000000 134.000000 C 8436.333333 134.000000 8843.666667 134.000000 9251.000000 134.000000 C 9047.333333 -127.666667 8843.666667 -389.333333 8640.000000 -651.000000 C 8436.333333 -389.333333 8232.666667 -127.666667 8029.000000 134.000000z M 7968.000000 -1515.000000 C 7968.000000 -991.333333 7968.000000 -467.666667 7968.000000 56.000000 C 8171.666667 -206.000000 8375.333333 -468.000000 8579.000000 -730.000000 C 8375.333333 -991.666667 8171.666667 -1253.333333 7968.000000 -1515.000000z "/>
</g></svg>
