<?xml version="1.0" ?>
<svg xmlns="http://www.w3.org/2000/svg" version="1.1" width="600" height="600">
  <defs/>
  <g>
    <path stroke-width="0" fill="rgb(0, 0, 0)" opacity="1.0" d="M 188.4951171875 153.64678955078125 C 193.3115234375 153.92202758789062 197.921630859375 154.12844848632812 202.324951171875 154.26605224609375 C 206.8662109375 154.40365600585938 211.13232421875 154.47247314453125 215.122802734375 154.47247314453125 C 219.939208984375 154.47247314453125 226.81982421875 154.26605224609375 235.764404296875 153.85321044921875 C 244.708984375 153.44036865234375 254.273193359375 152.95870971679688 264.456298828125 152.40826416015625 C 274.639404296875 151.85781860351562 283.9970703125 151.37615966796875 292.52880859375 150.96331787109375 C 301.1982421875 150.412841796875 307.390625 150.0 311.106201171875 149.72476196289062 C 313.720703125 149.44952392578125 315.92236328125 149.10549926757812 317.71142578125 148.69265747070312 C 319.637939453125 148.27981567382812 321.49560546875 147.79815673828125 323.28466796875 147.24771118164062 C 326.036865234375 149.65594482421875 328.7890625 152.06423950195312 331.541259765625 154.47247314453125 C 330.577880859375 155.71099853515625 329.47705078125 157.15597534179688 328.23876953125 158.80734252929688 C 327.137939453125 160.32110595703125 325.76171875 162.3165283203125 324.1103515625 164.7935791015625 C 320.11962890625 170.8486328125 315.234375 179.93121337890625 309.454833984375 192.04129028320312 C 303.67529296875 204.1513671875 297.482666015625 217.5 290.87744140625 232.087158203125 C 284.272216796875 246.67431640625 277.804443359375 260.6422119140625 271.474365234375 273.9908447265625 C 267.483642578125 282.52294921875 263.01123046875 292.2935791015625 258.057373046875 303.302734375 C 253.240966796875 314.17431640625 248.218017578125 325.389892578125 242.989013671875 336.94952392578125 C 237.897216796875 348.37158203125 232.805908203125 358.9678955078125 227.714111328125 368.738525390625 C 222.76025390625 378.5091552734375 218.0126953125 386.4908447265625 213.471435546875 392.6834716796875 C 207.416748046875 400.802734375 201.29296875 406.16973876953125 195.1005859375 408.784423828125 C 188.907958984375 411.3990478515625 182.37158203125 412.7064208984375 175.490966796875 412.7064208984375 C 163.38134765625 412.7064208984375 153.335693359375 408.5780029296875 145.354248046875 400.32110595703125 C 137.372802734375 392.064208984375 133.38232421875 381.3990478515625 133.38232421875 368.32568359375 C 133.38232421875 354.4266357421875 136.478515625 341.55963134765625 142.6708984375 329.7247314453125 C 149.0009765625 317.7523193359375 157.7392578125 307.2935791015625 168.8857421875 298.3486328125 C 180.169921875 289.26605224609375 193.655517578125 282.3165283203125 209.34326171875 277.5 C 225.03076171875 272.5458679199219 242.4384765625 270.06878662109375 261.56640625 270.06878662109375 C 282.89599609375 270.06878662109375 303.6064453125 272.61468505859375 323.697509765625 277.7064208984375 C 343.78857421875 282.6605529785156 362.641357421875 289.12841796875 380.25537109375 297.110107421875 C 398.007080078125 304.9541015625 414.245361328125 313.41741943359375 428.969482421875 322.5 C 443.83154296875 331.4449462890625 456.697998046875 340.0458984375 467.5693359375 348.302734375 C 465.436279296875 352.5 463.30322265625 356.697265625 461.17041015625 360.89453125 C 450.16162109375 351.67431640625 437.36376953125 342.38531494140625 422.777099609375 333.02752685546875 C 408.190185546875 323.5321044921875 392.15869140625 314.8624267578125 374.68212890625 307.018310546875 C 357.34326171875 299.03668212890625 339.041015625 292.7064208984375 319.775634765625 288.02752685546875 C 300.51025390625 283.21099853515625 280.6943359375 280.802734375 260.327880859375 280.802734375 C 235.970947265625 280.802734375 215.122802734375 285.0 197.783935546875 293.39453125 C 180.582763671875 301.6513671875 167.44091796875 312.38531494140625 158.3583984375 325.5963134765625 C 149.413818359375 338.807373046875 144.94140625 352.84405517578125 144.94140625 367.7064208984375 C 144.94140625 378.715576171875 148.1064453125 387.17889404296875 154.4365234375 393.0963134765625 C 160.766845703125 398.87615966796875 167.784912109375 401.76605224609375 175.490966796875 401.76605224609375 C 180.72021484375 401.76605224609375 185.4677734375 400.802734375 189.733642578125 398.87615966796875 C 193.999755859375 396.8118896484375 198.33447265625 393.02752685546875 202.73779296875 387.52294921875 C 207.82958984375 381.33026123046875 212.852294921875 373.692626953125 217.80615234375 364.610107421875 C 222.89794921875 355.52752685546875 227.851806640625 345.6192626953125 232.668212890625 334.88531494140625 C 237.6220703125 324.0137939453125 242.36962890625 313.21099853515625 246.910888671875 302.47705078125 C 251.589599609375 291.74310302734375 255.92431640625 282.0412902832031 259.9150390625 273.37158203125 C 265.694580078125 260.5733947753906 271.612060546875 247.56878662109375 277.666748046875 234.3577880859375 C 283.859375 221.00918579101562 289.9140625 208.07339477539062 295.831298828125 195.55047607421875 C 301.748779296875 182.889892578125 307.184326171875 171.261474609375 312.13818359375 160.66513061523438 C 308.28515625 160.94036865234375 301.955078125 161.28439331054688 293.14794921875 161.697265625 C 284.478515625 162.110107421875 275.05224609375 162.59176635742188 264.869140625 163.1422119140625 C 254.68603515625 163.69265747070312 245.05322265625 164.17431640625 235.970947265625 164.587158203125 C 227.026123046875 164.86239624023438 220.35205078125 165.13760375976562 215.948486328125 165.412841796875 C 211.407470703125 165.68807983398438 206.93505859375 165.96328735351562 202.531494140625 166.238525390625 C 198.265380859375 166.51376342773438 193.862060546875 166.92660522460938 189.32080078125 167.47708129882812 C 189.045654296875 162.86697387695312 188.770263671875 158.25689697265625 188.4951171875 153.64678955078125M 423.18994140625 233.738525390625 C 421.813720703125 261.9495544433594 418.992919921875 287.3394775390625 414.726806640625 309.90826416015625 C 410.5986328125 332.47705078125 404.130859375 352.63763427734375 395.32373046875 370.389892578125 C 386.654296875 388.1422119140625 374.888671875 403.8990478515625 360.026611328125 417.6605224609375 C 345.302490234375 431.284423828125 326.72509765625 443.5321044921875 304.29443359375 454.4036865234375 C 300.99169921875 451.37615966796875 297.689208984375 448.3486328125 294.386474609375 445.32110595703125 C 316.541748046875 436.1009521484375 334.843994140625 424.8165283203125 349.29296875 411.4678955078125 C 363.7421875 398.1192626953125 375.163818359375 383.25689697265625 383.55810546875 366.8807373046875 C 391.952392578125 350.50457763671875 398.144775390625 333.44036865234375 402.135498046875 315.6881103515625 C 406.126220703125 297.79815673828125 408.8095703125 279.97705078125 410.185791015625 262.22479248046875 C 410.4609375 257.9587097167969 410.5986328125 253.21099853515625 410.5986328125 247.98165893554688 C 410.736328125 242.61468505859375 410.736328125 237.45413208007812 410.5986328125 232.5 C 414.795654296875 232.912841796875 418.992919921875 233.32568359375 423.18994140625 233.738525390625"/>
  </g>
</svg>
