<?xml version="1.0" ?>
<svg xmlns="http://www.w3.org/2000/svg" version="1.1" width="600" height="600">
  <defs/>
  <g>
    <path stroke-width="0" fill="rgb(0, 0, 0)" opacity="1.0" d="M 120.5 337.984375 C 120.5 312.984375 120.5 287.984375 120.5 262.984375 C 140.5 262.984375 160.5 262.984375 180.5 262.984375 C 180.5 287.984375 180.5 312.984375 180.5 337.984375 C 160.5 337.984375 140.5 337.984375 120.5 337.984375M 150.5 297.4375 C 158.45571899414062 287.203125 166.41146850585938 276.96875 174.3671875 266.734375 C 158.45571899414062 266.734375 142.54428100585938 266.734375 126.6328125 266.734375 C 134.58853149414062 276.96875 142.54428100585938 287.203125 150.5 297.4375M 152.8828125 300.484375 C 160.83853149414062 310.71875 168.79428100585938 320.953125 176.75 331.1875 C 176.75 310.7318115234375 176.75 290.2760009765625 176.75 269.8203125 C 168.79428100585938 280.0416259765625 160.83853149414062 290.2630615234375 152.8828125 300.484375M 126.6328125 334.234375 C 142.54428100585938 334.234375 158.45571899414062 334.234375 174.3671875 334.234375 C 166.41146850585938 324.0130615234375 158.45571899414062 313.7916259765625 150.5 303.5703125 C 142.54428100585938 313.7916259765625 134.58853149414062 324.0130615234375 126.6328125 334.234375M 124.25 269.8203125 C 124.25 290.2760009765625 124.25 310.7318115234375 124.25 331.1875 C 132.20571899414062 320.953125 140.16146850585938 310.71875 148.1171875 300.484375 C 140.16146850585938 290.2630615234375 132.20571899414062 280.0416259765625 124.25 269.8203125"/>
    <path stroke-width="0" fill="rgb(0, 0, 0)" opacity="1.0" d="M 195.5 337.984375 C 195.5 312.984375 195.5 287.984375 195.5 262.984375 C 215.5 262.984375 235.5 262.984375 255.5 262.984375 C 255.5 287.984375 255.5 312.984375 255.5 337.984375 C 235.5 337.984375 215.5 337.984375 195.5 337.984375M 225.5 297.4375 C 233.45574951171875 287.203125 241.41143798828125 276.96875 249.3671875 266.734375 C 233.45574951171875 266.734375 217.54425048828125 266.734375 201.6328125 266.734375 C 209.58856201171875 276.96875 217.54425048828125 287.203125 225.5 297.4375M 227.8828125 300.484375 C 235.83856201171875 310.71875 243.79425048828125 320.953125 251.75 331.1875 C 251.75 310.7318115234375 251.75 290.2760009765625 251.75 269.8203125 C 243.79425048828125 280.0416259765625 235.83856201171875 290.2630615234375 227.8828125 300.484375M 201.6328125 334.234375 C 217.54425048828125 334.234375 233.45574951171875 334.234375 249.3671875 334.234375 C 241.41143798828125 324.0130615234375 233.45574951171875 313.7916259765625 225.5 303.5703125 C 217.54425048828125 313.7916259765625 209.58856201171875 324.0130615234375 201.6328125 334.234375M 199.25 269.8203125 C 199.25 290.2760009765625 199.25 310.7318115234375 199.25 331.1875 C 207.20574951171875 320.953125 215.16143798828125 310.71875 223.1171875 300.484375 C 215.16143798828125 290.2630615234375 207.20574951171875 280.0416259765625 199.25 269.8203125"/>
    <path stroke-width="0" fill="rgb(0, 0, 0)" opacity="1.0" d="M 270.5 337.984375 C 270.5 312.984375 270.5 287.984375 270.5 262.984375 C 290.5 262.984375 310.5 262.984375 330.5 262.984375 C 330.5 287.984375 330.5 312.984375 330.5 337.984375 C 310.5 337.984375 290.5 337.984375 270.5 337.984375M 300.5 297.4375 C 308.4557189941406 287.203125 316.4114685058594 276.96875 324.3671875 266.734375 C 308.4557189941406 266.734375 292.5442810058594 266.734375 276.6328125 266.734375 C 284.5885314941406 276.96875 292.5442810058594 287.203125 300.5 297.4375M 302.8828125 300.484375 C 310.8385314941406 310.71875 318.7942810058594 320.953125 326.75 331.1875 C 326.75 310.7318115234375 326.75 290.2760009765625 326.75 269.8203125 C 318.7942810058594 280.0416259765625 310.8385314941406 290.2630615234375 302.8828125 300.484375M 276.6328125 334.234375 C 292.5442810058594 334.234375 308.4557189941406 334.234375 324.3671875 334.234375 C 316.4114685058594 324.0130615234375 308.4557189941406 313.7916259765625 300.5 303.5703125 C 292.5442810058594 313.7916259765625 284.5885314941406 324.0130615234375 276.6328125 334.234375M 274.25 269.8203125 C 274.25 290.2760009765625 274.25 310.7318115234375 274.25 331.1875 C 282.2057189941406 320.953125 290.1614685058594 310.71875 298.1171875 300.484375 C 290.1614685058594 290.2630615234375 282.2057189941406 280.0416259765625 274.25 269.8203125"/>
    <path stroke-width="0" fill="rgb(0, 0, 0)" opacity="1.0" d="M 345.5 337.984375 C 345.5 312.984375 345.5 287.984375 345.5 262.984375 C 365.5 262.984375 385.5 262.984375 405.5 262.984375 C 405.5 287.984375 405.5 312.984375 405.5 337.984375 C 385.5 337.984375 365.5 337.984375 345.5 337.984375M 375.5 297.4375 C 383.4556884765625 287.203125 391.4114990234375 276.96875 399.3671875 266.734375 C 383.4556884765625 266.734375 367.5443115234375 266.734375 351.6328125 266.734375 C 359.5885009765625 276.96875 367.5443115234375 287.203125 375.5 297.4375M 377.8828125 300.484375 C 385.8385009765625 310.71875 393.7943115234375 320.953125 401.75 331.1875 C 401.75 310.7318115234375 401.75 290.2760009765625 401.75 269.8203125 C 393.7943115234375 280.0416259765625 385.8385009765625 290.2630615234375 377.8828125 300.484375M 351.6328125 334.234375 C 367.5443115234375 334.234375 383.4556884765625 334.234375 399.3671875 334.234375 C 391.4114990234375 324.0130615234375 383.4556884765625 313.7916259765625 375.5 303.5703125 C 367.5443115234375 313.7916259765625 359.5885009765625 324.0130615234375 351.6328125 334.234375M 349.25 269.8203125 C 349.25 290.2760009765625 349.25 310.7318115234375 349.25 331.1875 C 357.2056884765625 320.953125 365.1614990234375 310.71875 373.1171875 300.484375 C 365.1614990234375 290.2630615234375 357.2056884765625 280.0416259765625 349.25 269.8203125"/>
    <path stroke-width="0" fill="rgb(0, 0, 0)" opacity="1.0" d="M 420.5 337.984375 C 420.5 312.984375 420.5 287.984375 420.5 262.984375 C 440.5 262.984375 460.5 262.984375 480.5 262.984375 C 480.5 287.984375 480.5 312.984375 480.5 337.984375 C 460.5 337.984375 440.5 337.984375 420.5 337.984375M 450.5 297.4375 C 458.45574951171875 287.203125 466.41143798828125 276.96875 474.3671875 266.734375 C 458.45574951171875 266.734375 442.54425048828125 266.734375 426.6328125 266.734375 C 434.58856201171875 276.96875 442.54425048828125 287.203125 450.5 297.4375M 452.8828125 300.484375 C 460.83856201171875 310.71875 468.79425048828125 320.953125 476.75 331.1875 C 476.75 310.7318115234375 476.75 290.2760009765625 476.75 269.8203125 C 468.79425048828125 280.0416259765625 460.83856201171875 290.2630615234375 452.8828125 300.484375M 426.6328125 334.234375 C 442.54425048828125 334.234375 458.45574951171875 334.234375 474.3671875 334.234375 C 466.41143798828125 324.0130615234375 458.45574951171875 313.7916259765625 450.5 303.5703125 C 442.54425048828125 313.7916259765625 434.58856201171875 324.0130615234375 426.6328125 334.234375M 424.25 269.8203125 C 424.25 290.2760009765625 424.25 310.7318115234375 424.25 331.1875 C 432.2056884765625 320.953125 440.16143798828125 310.71875 448.1171875 300.484375 C 440.16143798828125 290.2630615234375 432.2056884765625 280.0416259765625 424.25 269.8203125"/>
  </g>
</svg>
