<?xml version="1.0" ?>
<svg xmlns="http://www.w3.org/2000/svg" version="1.1" width="600" height="600">
  <defs/>
  <g>
    <path stroke-width="0" fill="rgb(0, 0, 0)" opacity="1.0" d="M 178.235595703125 138.30874633789062 C 259.57159423828125 138.30874633789062 340.9075927734375 138.30874633789062 422.24359130859375 138.30874633789062 C 422.24359130859375 245.45159912109375 422.24359130859375 352.594482421875 422.24359130859375 459.7373046875 C 418.23553466796875 459.7373046875 414.22747802734375 459.7373046875 410.21942138671875 459.7373046875 C 410.21942138671875 356.60369873046875 410.21942138671875 253.47003173828125 410.21942138671875 150.33639526367188 C 336.8995361328125 150.33639526367188 263.5797119140625 150.33639526367188 190.259765625 150.33639526367188 C 190.259765625 254.50689697265625 190.259765625 358.67742919921875 190.259765625 462.847900390625 C 186.25177001953125 462.847900390625 182.24365234375 462.847900390625 178.235595703125 462.847900390625 C 178.235595703125 354.668212890625 178.235595703125 246.48846435546875 178.235595703125 138.30874633789062M 185.4915771484375 280.56683349609375 C 262.12847900390625 280.56683349609375 338.76531982421875 280.56683349609375 415.4022216796875 280.56683349609375 C 415.4022216796875 284.43780517578125 415.4022216796875 288.3087463378906 415.4022216796875 292.1796875 C 338.76531982421875 292.1796875 262.12847900390625 292.1796875 185.4915771484375 292.1796875 C 185.4915771484375 288.3087463378906 185.4915771484375 284.43780517578125 185.4915771484375 280.56683349609375M 184.662353515625 425.520751953125 C 261.99029541015625 425.520751953125 339.31817626953125 425.520751953125 416.6461181640625 425.520751953125 C 416.6461181640625 429.32257080078125 416.6461181640625 433.1243896484375 416.6461181640625 436.92626953125 C 339.31817626953125 436.92626953125 261.99029541015625 436.92626953125 184.662353515625 436.92626953125 C 184.662353515625 433.1243896484375 184.662353515625 429.32257080078125 184.662353515625 425.520751953125"/>
  </g>
</svg>
