<?xml version="1.0" ?>
<svg xmlns="http://www.w3.org/2000/svg" version="1.1" width="600" height="600">
  <defs/>
  <g>
    <path stroke-width="0" fill="rgb(0, 0, 0)" opacity="1.0" d="M 222.849365234375 258.04705810546875 C 306.328125 248.12744140625 389.806884765625 238.20779418945312 473.28564453125 228.28814697265625 C 473.905517578125 232.00802612304688 474.525390625 235.7279052734375 475.145263671875 239.44775390625 C 391.59765625 249.2296142578125 308.050048828125 259.011474609375 224.50244140625 268.7933349609375 C 223.95135498046875 265.21124267578125 223.400390625 261.629150390625 222.849365234375 258.04705810546875M 383.60797119140625 139.4248046875 C 386.0875244140625 137.35818481445312 388.56707763671875 135.29159545898438 391.046630859375 133.22500610351562 C 400.138427734375 139.56256103515625 409.436767578125 146.58895874023438 418.9417724609375 154.30422973632812 C 428.44677734375 161.8817138671875 437.2630615234375 169.459228515625 445.3905029296875 177.0367431640625 C 453.65576171875 184.61422729492188 460.4056396484375 191.29620361328125 465.640380859375 197.0826416015625 C 463.02294921875 199.4248046875 460.4056396484375 201.76690673828125 457.788330078125 204.10906982421875 C 452.5537109375 198.3226318359375 445.8037109375 191.70953369140625 437.53857421875 184.26980590820312 C 429.4111328125 176.69232177734375 420.5948486328125 168.90814208984375 411.08984375 160.91732788085938 C 401.72259521484375 152.926513671875 392.56195068359375 145.7623291015625 383.60797119140625 139.4248046875M 236.07373046875 124.33868408203125 C 239.7242431640625 125.44085693359375 243.3746337890625 126.54302978515625 247.025146484375 127.64523315429688 C 237.10687255859375 150.65325927734375 225.53558349609375 172.83465576171875 212.31121826171875 194.18942260742188 C 199.08685302734375 215.40643310546875 184.760498046875 235.24566650390625 169.33203125 253.70721435546875 C 154.0413818359375 272.031005859375 138.19970703125 288.3570556640625 121.8070068359375 302.6854248046875 C 121.2559814453125 301.8587646484375 120.42950439453125 300.82550048828125 119.32745361328125 299.58551025390625 C 118.3631591796875 298.3455810546875 117.33001708984375 297.17449951171875 116.22802734375 296.07232666015625 C 115.1259765625 294.8323669433594 114.16168212890625 293.9368591308594 113.335205078125 293.3857421875 C 129.72784423828125 279.884033203125 145.50067138671875 264.246826171875 160.653564453125 246.47418212890625 C 175.9442138671875 228.563720703125 189.9951171875 209.27554321289062 202.80621337890625 188.60964965820312 C 215.75506591796875 167.80596923828125 226.84423828125 146.38229370117188 236.07373046875 124.33868408203125M 187.30889892578125 222.08837890625 C 191.09710693359375 218.23077392578125 194.8853759765625 214.37310791015625 198.673583984375 210.5155029296875 C 198.673583984375 210.65325927734375 198.673583984375 210.79104614257812 198.673583984375 210.92880249023438 C 198.673583984375 299.3788757324219 198.673583984375 387.82891845703125 198.673583984375 476.27899169921875 C 194.8853759765625 476.27899169921875 191.09710693359375 476.27899169921875 187.30889892578125 476.27899169921875 C 187.30889892578125 391.548828125 187.30889892578125 306.818603515625 187.30889892578125 222.08837890625M 326.37127685546875 124.75201416015625 C 330.2283935546875 124.75201416015625 334.08544921875 124.75201416015625 337.942626953125 124.75201416015625 C 340.14666748046875 171.59469604492188 343.86602783203125 215.3375244140625 349.10064697265625 255.98046875 C 354.33526611328125 296.6234130859375 361.3607177734375 332.37542724609375 370.17694091796875 363.23651123046875 C 379.13092041015625 393.9598388671875 390.22015380859375 418.207763671875 403.4444580078125 435.98046875 C 416.6688232421875 453.6153564453125 432.1661376953125 463.1217041015625 449.936279296875 464.4993896484375 C 456.823974609375 464.77496337890625 462.265380859375 458.50634765625 466.26025390625 445.6934814453125 C 470.392822265625 432.880615234375 473.767822265625 414.28125 476.385009765625 389.8955078125 C 477.487060546875 390.44659423828125 478.589111328125 391.06658935546875 479.691162109375 391.7554931640625 C 480.930908203125 392.3065185546875 482.170654296875 392.857666015625 483.4105224609375 393.40869140625 C 484.7880859375 393.9598388671875 485.89013671875 394.3731689453125 486.716552734375 394.648681640625 C 484.650390625 414.76348876953125 481.964111328125 430.9517822265625 478.657958984375 443.21356201171875 C 475.3519287109375 455.475341796875 471.357177734375 464.223876953125 466.6734619140625 469.459228515625 C 462.1275634765625 474.8323974609375 456.548583984375 477.38116455078125 449.936279296875 477.1055908203125 C 432.99267578125 476.416748046875 418.115234375 469.8037109375 405.30413818359375 457.266357421875 C 392.630859375 444.8668212890625 381.748291015625 427.8519287109375 372.65655517578125 406.2215576171875 C 363.56475830078125 384.4534912109375 355.98834228515625 358.965576171875 349.92718505859375 329.75775146484375 C 343.86602783203125 300.5499267578125 338.97576904296875 268.586669921875 335.25640869140625 233.86798095703125 C 331.53704833984375 199.011474609375 328.57537841796875 162.63949584960938 326.37127685546875 124.75201416015625"/>
  </g>
</svg>
