<?xml version="1.0" ?>
<svg xmlns="http://www.w3.org/2000/svg" version="1.1" width="600" height="600">
  <defs/>
  <g>
    <path stroke-width="0" fill="rgb(0, 0, 0)" opacity="1.0" d="M 154.417236328125 272.10443115234375 C 154.01986694335938 272.470703125 153.38409423828125 273.0592041015625 152.50994873046875 273.87017822265625 C 151.63577270507812 274.6549072265625 151.0 275.23046875 150.6026611328125 275.5966796875 C 149.22515869140625 276.852294921875 147.51657104492188 278.34332275390625 145.476806640625 280.06982421875 C 143.46356201171875 281.7962646484375 141.31787109375 283.5750732421875 139.03973388671875 285.40625 C 136.7880859375 287.23736572265625 134.6026611328125 289.0030517578125 132.48345947265625 290.703369140625 C 130.36422729492188 292.3775634765625 128.5496826171875 293.84246826171875 127.03973388671875 295.09808349609375 C 125.3443603515625 296.56298828125 124.19204711914062 297.79248046875 123.58279418945312 298.7864990234375 C 122.9735107421875 299.75439453125 122.98675537109375 300.7222900390625 123.62252807617188 301.69012451171875 C 124.25827026367188 302.65802001953125 125.51657104492188 303.9267578125 127.3973388671875 305.4962158203125 C 129.03973388671875 306.80419921875 130.82781982421875 308.242919921875 132.7615966796875 309.8125 C 134.69537353515625 311.3558349609375 136.68212890625 312.99072265625 138.72186279296875 314.71728515625 C 140.7880859375 316.4437255859375 142.8675537109375 318.2225341796875 144.96026611328125 320.05364990234375 C 147.052978515625 321.858642578125 149.0794677734375 323.6766357421875 151.03973388671875 325.5078125 C 153.0 327.3388671875 154.8145751953125 329.1046142578125 156.48345947265625 330.804931640625 C 155.82119750976562 331.3804931640625 155.158935546875 331.9559326171875 154.4967041015625 332.53143310546875 C 153.43710327148438 331.328125 152.16555786132812 329.9940185546875 150.68212890625 328.5291748046875 C 149.14569091796875 327.0380859375 147.30462646484375 325.32470703125 145.158935546875 323.388916015625 C 143.03973388671875 321.453125 140.80133056640625 319.4781494140625 138.4437255859375 317.46392822265625 C 136.08609008789062 315.423583984375 133.76821899414062 313.461669921875 131.49008178710938 311.57818603515625 C 129.2384033203125 309.69476318359375 127.19866943359375 308.02056884765625 125.370849609375 306.5556640625 C 123.06622314453125 304.6983642578125 121.62252807617188 303.11578369140625 121.03973388671875 301.807861328125 C 120.45697021484375 300.4998779296875 120.576171875 299.205078125 121.3973388671875 297.9232177734375 C 122.24502563476562 296.6414794921875 123.68875122070312 295.150390625 125.72848510742188 293.4500732421875 C 127.10595703125 292.299072265625 128.841064453125 290.886474609375 130.93377685546875 289.21234130859375 C 133.052978515625 287.51202392578125 135.264892578125 285.72015380859375 137.56954956054688 283.836669921875 C 139.90066528320312 281.9532470703125 142.09933471679688 280.13525390625 144.16555786132812 278.382568359375 C 146.23178100585938 276.62994384765625 147.90066528320312 275.073486328125 149.17218017578125 273.7132568359375 C 149.56954956054688 273.24237060546875 150.07284545898438 272.64068603515625 150.68212890625 271.90826416015625 C 151.2913818359375 271.149658203125 151.72848510742188 270.5218505859375 151.99337768554688 270.0247802734375 C 152.80133056640625 270.718017578125 153.60928344726562 271.4112548828125 154.417236328125 272.10443115234375"/>
    <path stroke-width="0" fill="rgb(0, 0, 0)" opacity="1.0" d="M 223.0 271.0057373046875 C 223.0 271.1365966796875 222.9735107421875 271.4112548828125 222.9205322265625 271.82977294921875 C 222.8675537109375 272.22216796875 222.82781982421875 272.62762451171875 222.80133056640625 273.046142578125 C 222.77484130859375 273.43853759765625 222.7615966796875 273.75244140625 222.7615966796875 273.9879150390625 C 222.7086181640625 274.95574951171875 222.68212890625 276.237548828125 222.68212890625 277.833251953125 C 222.68212890625 279.40277099609375 222.68212890625 281.1292724609375 222.68212890625 283.0126953125 C 222.68212890625 284.8961181640625 222.69537353515625 286.79266357421875 222.72186279296875 288.7022705078125 C 222.74835205078125 290.61181640625 222.77484130859375 292.41680908203125 222.80133056640625 294.11712646484375 C 222.82781982421875 295.8175048828125 222.841064453125 297.269287109375 222.841064453125 298.47259521484375 C 222.13906860351562 297.5963134765625 221.43710327148438 296.719970703125 220.735107421875 295.8436279296875 C 220.735107421875 295.45123291015625 220.735107421875 294.60107421875 220.735107421875 293.2930908203125 C 220.735107421875 291.9852294921875 220.72186279296875 290.4156494140625 220.69537353515625 288.58453369140625 C 220.66888427734375 286.75341796875 220.64239501953125 284.883056640625 220.61590576171875 282.97344970703125 C 220.58941650390625 281.0638427734375 220.56292724609375 279.31121826171875 220.53643798828125 277.71551513671875 C 220.50994873046875 276.0936279296875 220.47021484375 274.85113525390625 220.417236328125 273.9879150390625 C 220.417236328125 273.4908447265625 220.37750244140625 272.90228271484375 220.29803466796875 272.22216796875 C 220.21856689453125 271.5419921875 220.15231323242188 271.1365966796875 220.09933471679688 271.0057373046875 C 221.06622314453125 271.0057373046875 222.03311157226562 271.0057373046875 223.0 271.0057373046875M 185.09271240234375 282.5810546875 C 186.9735107421875 282.52874755859375 189.14569091796875 282.46337890625 191.60928344726562 282.3848876953125 C 194.07284545898438 282.2802734375 196.735107421875 282.17559814453125 199.59603881835938 282.07098388671875 C 202.48345947265625 281.96630859375 205.46359252929688 281.874755859375 208.53643798828125 281.7962646484375 C 211.60928344726562 281.71783447265625 214.6556396484375 281.6524658203125 217.67550659179688 281.60009765625 C 220.72186279296875 281.54779052734375 223.64901733398438 281.5216064453125 226.45697021484375 281.5216064453125 C 229.1324462890625 281.5216064453125 231.59600830078125 281.53472900390625 233.84768676757812 281.5609130859375 C 236.12582397460938 281.5870361328125 238.13909912109375 281.60009765625 239.88742065429688 281.60009765625 C 241.66226196289062 281.60009765625 243.1854248046875 281.6131591796875 244.45697021484375 281.63934326171875 C 245.72848510742188 281.66552734375 246.735107421875 281.6785888671875 247.476806640625 281.6785888671875 C 247.476806640625 282.43719482421875 247.476806640625 283.19580078125 247.476806640625 283.95440673828125 C 245.59603881835938 283.84979248046875 243.0264892578125 283.77130126953125 239.76821899414062 283.718994140625 C 236.53643798828125 283.6666259765625 232.11257934570312 283.6405029296875 226.4967041015625 283.6405029296875 C 223.3973388671875 283.6405029296875 220.05960083007812 283.6666259765625 216.48345947265625 283.718994140625 C 212.90728759765625 283.77130126953125 209.2384033203125 283.86285400390625 205.47683715820312 283.99365234375 C 201.74172973632812 284.12445068359375 198.12582397460938 284.29449462890625 194.629150390625 284.5037841796875 C 191.158935546875 284.6868896484375 188.00662231445312 284.9091796875 185.17218017578125 285.1707763671875 C 185.14569091796875 284.30755615234375 185.11920166015625 283.4443359375 185.09271240234375 282.5810546875M 223.83444213867188 304.04443359375 C 223.83444213867188 306.6602783203125 223.34439086914062 308.857666015625 222.3642578125 310.636474609375 C 221.41058349609375 312.38909912109375 220.16558837890625 313.71014404296875 218.629150390625 314.59954833984375 C 217.11920166015625 315.4627685546875 215.5032958984375 315.8944091796875 213.78146362304688 315.8944091796875 C 212.05960083007812 315.8944091796875 210.47021484375 315.6458740234375 209.01324462890625 315.14886474609375 C 207.5562744140625 314.65185546875 206.28475952148438 313.9063720703125 205.19866943359375 312.91229248046875 C 204.13906860351562 311.89208984375 203.31787109375 310.67572021484375 202.735107421875 309.26312255859375 C 202.15231323242188 307.8505859375 201.86093139648438 306.2418212890625 201.86093139648438 304.43682861328125 C 201.86093139648438 302.291748046875 202.3907470703125 300.3167724609375 203.4503173828125 298.5118408203125 C 204.53643798828125 296.6806640625 205.96688842773438 295.2027587890625 207.74172973632812 294.077880859375 C 209.51657104492188 292.95306396484375 211.4503173828125 292.390625 213.54306030273438 292.390625 C 216.13906860351562 292.390625 218.27154541015625 292.9661865234375 219.94039916992188 294.11712646484375 C 221.63577270507812 295.26812744140625 222.89404296875 296.87689208984375 223.71524047851562 298.9434814453125 C 224.56292724609375 301.010009765625 224.98675537109375 303.3905029296875 224.98675537109375 306.0848388671875 C 224.98675537109375 308.70068359375 224.66888427734375 311.27734375 224.03311157226562 313.81475830078125 C 223.3973388671875 316.3521728515625 222.29800415039062 318.7718505859375 220.735107421875 321.0738525390625 C 219.19866943359375 323.34967041015625 217.06622314453125 325.4293212890625 214.3377685546875 327.312744140625 C 211.63577270507812 329.1961669921875 208.16558837890625 330.7918701171875 203.92715454101562 332.099853515625 C 203.2119140625 331.4720458984375 202.4967041015625 330.84423828125 201.78146362304688 330.2164306640625 C 205.51657104492188 329.30084228515625 208.69537353515625 328.110595703125 211.31787109375 326.64569091796875 C 213.96688842773438 325.1546630859375 216.12582397460938 323.4019775390625 217.79470825195312 321.38775634765625 C 219.49008178710938 319.37353515625 220.72186279296875 317.1239013671875 221.49008178710938 314.6387939453125 C 222.2847900390625 312.1536865234375 222.68212890625 309.4593505859375 222.68212890625 306.5556640625 C 222.68212890625 302.1871337890625 221.80795288085938 299.08734130859375 220.05960083007812 297.2562255859375 C 218.311279296875 295.425048828125 216.19207763671875 294.509521484375 213.70199584960938 294.509521484375 C 212.03311157226562 294.509521484375 210.47021484375 294.941162109375 209.01324462890625 295.80438232421875 C 207.5562744140625 296.6414794921875 206.37750244140625 297.8055419921875 205.47683715820312 299.296630859375 C 204.6026611328125 300.761474609375 204.16555786132812 302.47491455078125 204.16555786132812 304.43682861328125 C 204.16555786132812 307.445068359375 205.10595703125 309.7601318359375 206.98675537109375 311.3819580078125 C 208.8675537109375 312.9776611328125 211.1324462890625 313.7755126953125 213.78146362304688 313.7755126953125 C 215.76821899414062 313.7755126953125 217.41058349609375 313.27850341796875 218.7086181640625 312.28448486328125 C 220.00662231445312 311.2642822265625 220.98675537109375 309.8516845703125 221.64901733398438 308.0467529296875 C 222.311279296875 306.2418212890625 222.64239501953125 304.162109375 222.64239501953125 301.807861328125 C 223.03973388671875 302.5533447265625 223.43707275390625 303.29888916015625 223.83444213867188 304.04443359375M 234.1258544921875 270.14251708984375 C 235.0 271.3197021484375 236.03311157226562 272.81072998046875 237.22515869140625 274.61572265625 C 238.417236328125 276.420654296875 239.423828125 278.05560302734375 240.24505615234375 279.5205078125 C 239.5032958984375 279.88671875 238.7615966796875 280.2529296875 238.01986694335938 280.619140625 C 237.22515869140625 279.12811279296875 236.24505615234375 277.4801025390625 235.0794677734375 275.6751708984375 C 233.94039916992188 273.87017822265625 232.9205322265625 272.35296630859375 232.01986694335938 271.12347412109375 C 232.72186279296875 270.7965087890625 233.423828125 270.469482421875 234.1258544921875 270.14251708984375M 242.47021484375 268.416015625 C 243.31787109375 269.5670166015625 244.311279296875 271.01885986328125 245.4503173828125 272.771484375 C 246.61590576171875 274.49798583984375 247.64901733398438 276.1329345703125 248.5496826171875 277.67626953125 C 247.79470825195312 278.05560302734375 247.03973388671875 278.4349365234375 246.2847900390625 278.814208984375 C 245.46356201171875 277.218505859375 244.4967041015625 275.557373046875 243.38409423828125 273.8309326171875 C 242.29803466796875 272.0782470703125 241.27813720703125 270.600341796875 240.32452392578125 269.39697265625 C 241.03973388671875 269.07000732421875 241.75497436523438 268.7430419921875 242.47021484375 268.416015625"/>
    <path stroke-width="0" fill="rgb(0, 0, 0)" opacity="1.0" d="M 279.14569091796875 271.35888671875 C 279.01324462890625 272.27447509765625 278.9205322265625 273.111572265625 278.8675537109375 273.87017822265625 C 278.8145751953125 274.60260009765625 278.7615966796875 275.47894287109375 278.7086181640625 276.4991455078125 C 278.6556396484375 278.69647216796875 278.56292724609375 281.44317626953125 278.43048095703125 284.73919677734375 C 278.29803466796875 288.03515625 278.19207763671875 291.566650390625 278.11260986328125 295.33349609375 C 278.03314208984375 299.10040283203125 277.9536437988281 302.8934326171875 277.8741760253906 306.712646484375 C 277.8211975097656 310.5318603515625 277.7947082519531 314.06329345703125 277.7947082519531 317.3070068359375 C 277.7947082519531 320.2890625 278.40399169921875 322.6826171875 279.6225280761719 324.487548828125 C 280.841064453125 326.29254150390625 282.53643798828125 327.6004638671875 284.7086181640625 328.41143798828125 C 286.90728759765625 329.1961669921875 289.43707275390625 329.58856201171875 292.29803466796875 329.58856201171875 C 296.11260986328125 329.58856201171875 299.5033264160156 329.13079833984375 302.47021484375 328.2152099609375 C 305.43707275390625 327.2735595703125 308.04638671875 326.0440673828125 310.29803466796875 324.52685546875 C 312.576171875 322.98345947265625 314.56292724609375 321.28314208984375 316.25830078125 319.42584228515625 C 317.98016357421875 317.568603515625 319.52978515625 315.7113037109375 320.90728759765625 313.85400390625 C 321.463623046875 314.4818115234375 322.0198974609375 315.109619140625 322.576171875 315.7374267578125 C 321.19866943359375 317.4901123046875 319.582763671875 319.30810546875 317.728515625 321.19158935546875 C 315.87420654296875 323.07501220703125 313.7152404785156 324.8145751953125 311.25164794921875 326.4102783203125 C 308.8145751953125 327.97979736328125 306.00665283203125 329.24853515625 302.82781982421875 330.2164306640625 C 299.6490173339844 331.21044921875 296.0596008300781 331.70745849609375 292.05963134765625 331.70745849609375 C 288.90728759765625 331.70745849609375 286.0860900878906 331.236572265625 283.5960388183594 330.29486083984375 C 281.10595703125 329.3792724609375 279.1324462890625 327.8228759765625 277.6755065917969 325.62548828125 C 276.21856689453125 323.4019775390625 275.49005126953125 320.328369140625 275.49005126953125 316.404541015625 C 275.49005126953125 313.945556640625 275.51654052734375 311.30352783203125 275.5695495605469 308.4783935546875 C 275.6225280761719 305.6270751953125 275.7019958496094 302.723388671875 275.8079528808594 299.7674560546875 C 275.9139099121094 296.8115234375 275.9933776855469 293.92095947265625 276.04638671875 291.0958251953125 C 276.1258544921875 288.2445068359375 276.1920471191406 285.56317138671875 276.24505615234375 283.05194091796875 C 276.29803466796875 280.5406494140625 276.32452392578125 278.3564453125 276.32452392578125 276.4991455078125 C 276.32452392578125 275.47894287109375 276.29803466796875 274.55029296875 276.24505615234375 273.7132568359375 C 276.1920471191406 272.8499755859375 276.099365234375 272.065185546875 275.9668884277344 271.35888671875 C 277.0264892578125 271.35888671875 278.08612060546875 271.35888671875 279.14569091796875 271.35888671875"/>
    <path stroke-width="0" fill="rgb(0, 0, 0)" opacity="1.0" d="M 349.5562744140625 288.23138427734375 C 362.6026611328125 288.23138427734375 375.6490478515625 288.23138427734375 388.69537353515625 288.23138427734375 C 388.69537353515625 288.9638671875 388.69537353515625 289.6962890625 388.69537353515625 290.4287109375 C 375.6490478515625 290.4287109375 362.6026611328125 290.4287109375 349.5562744140625 290.4287109375 C 349.5562744140625 289.6962890625 349.5562744140625 288.9638671875 349.5562744140625 288.23138427734375M 337.83447265625 307.37969970703125 C 359.370849609375 307.37969970703125 380.90728759765625 307.37969970703125 402.4437255859375 307.37969970703125 C 402.4437255859375 308.11212158203125 402.4437255859375 308.8446044921875 402.4437255859375 309.5770263671875 C 380.90728759765625 309.5770263671875 359.370849609375 309.5770263671875 337.83447265625 309.5770263671875 C 337.83447265625 308.8446044921875 337.83447265625 308.11212158203125 337.83447265625 307.37969970703125M 369.10595703125 300.9053955078125 C 369.8741455078125 300.9053955078125 370.64239501953125 300.9053955078125 371.41064453125 300.9053955078125 C 371.41064453125 310.79345703125 371.41064453125 320.6815185546875 371.41064453125 330.56951904296875 C 371.41064453125 331.53741455078125 371.2252197265625 332.25677490234375 370.85430908203125 332.7276611328125 C 370.50994873046875 333.198486328125 369.900634765625 333.564697265625 369.0264892578125 333.8262939453125 C 368.205322265625 334.03558349609375 366.9205322265625 334.1402587890625 365.1722412109375 334.1402587890625 C 363.423828125 334.1663818359375 360.89404296875 334.179443359375 357.582763671875 334.179443359375 C 357.52978515625 333.996337890625 357.4371337890625 333.787109375 357.30462646484375 333.5516357421875 C 357.19873046875 333.3424072265625 357.0794677734375 333.10693359375 356.947021484375 332.8453369140625 C 356.8145751953125 332.583740234375 356.66888427734375 332.3614501953125 356.50994873046875 332.1783447265625 C 358.3907470703125 332.1783447265625 360.0728759765625 332.19140625 361.5562744140625 332.217529296875 C 363.06622314453125 332.24371337890625 364.32452392578125 332.24371337890625 365.3311767578125 332.217529296875 C 366.3642578125 332.19140625 367.0927734375 332.1783447265625 367.5166015625 332.1783447265625 C 368.1258544921875 332.1259765625 368.53643798828125 331.98211669921875 368.74835205078125 331.7467041015625 C 368.98675537109375 331.51123046875 369.10595703125 331.14501953125 369.10595703125 330.64801025390625 C 369.10595703125 320.7337646484375 369.10595703125 310.819580078125 369.10595703125 300.9053955078125M 388.099365234375 288.23138427734375 C 388.27154541015625 288.23138427734375 388.4437255859375 288.23138427734375 388.61590576171875 288.23138427734375 C 388.80133056640625 288.1790771484375 388.98681640625 288.12677001953125 389.1722412109375 288.074462890625 C 389.7020263671875 288.4537353515625 390.2318115234375 288.8330078125 390.7615966796875 289.21234130859375 C 389.0927734375 290.9649658203125 387.1324462890625 292.730712890625 384.88079833984375 294.509521484375 C 382.6556396484375 296.26220703125 380.3377685546875 297.91015625 377.9271240234375 299.45355224609375 C 375.5430908203125 300.97076416015625 373.264892578125 302.2786865234375 371.09271240234375 303.37738037109375 C 370.93377685546875 303.1419677734375 370.69537353515625 302.88037109375 370.37750244140625 302.5926513671875 C 370.0860595703125 302.30487060546875 369.8079833984375 302.0955810546875 369.5430908203125 301.96484375 C 371.74169921875 300.89227294921875 373.993408203125 299.62359619140625 376.29803466796875 298.15869140625 C 378.629150390625 296.6676025390625 380.8145751953125 295.1112060546875 382.85430908203125 293.48931884765625 C 384.9205322265625 291.84130859375 386.66888427734375 290.27178955078125 388.099365234375 288.78076171875 C 388.099365234375 288.59765625 388.099365234375 288.41448974609375 388.099365234375 288.23138427734375M 368.7880859375 266.179443359375 C 369.5562744140625 266.179443359375 370.32452392578125 266.179443359375 371.09271240234375 266.179443359375 C 371.09271240234375 269.7109375 371.09271240234375 273.24237060546875 371.09271240234375 276.7738037109375 C 370.32452392578125 276.7738037109375 369.5562744140625 276.7738037109375 368.7880859375 276.7738037109375 C 368.7880859375 273.24237060546875 368.7880859375 269.7109375 368.7880859375 266.179443359375M 338.98675537109375 275.5181884765625 C 359.7020263671875 275.5181884765625 380.417236328125 275.5181884765625 401.1324462890625 275.5181884765625 C 401.1324462890625 280.8153076171875 401.1324462890625 286.112548828125 401.1324462890625 291.40966796875 C 400.37750244140625 291.40966796875 399.62255859375 291.40966796875 398.8675537109375 291.40966796875 C 398.8675537109375 286.8580322265625 398.8675537109375 282.306396484375 398.8675537109375 277.7547607421875 C 379.6622314453125 277.7547607421875 360.45697021484375 277.7547607421875 341.25164794921875 277.7547607421875 C 341.25164794921875 282.306396484375 341.25164794921875 286.8580322265625 341.25164794921875 291.40966796875 C 340.4967041015625 291.40966796875 339.74169921875 291.40966796875 338.98675537109375 291.40966796875 C 338.98675537109375 286.112548828125 338.98675537109375 280.8153076171875 338.98675537109375 275.5181884765625"/>
    <path stroke-width="0" fill="rgb(0, 0, 0)" opacity="1.0" d="M 422.50994873046875 312.1275634765625 C 438.5496826171875 312.1275634765625 454.58941650390625 312.1275634765625 470.629150390625 312.1275634765625 C 470.629150390625 312.8861083984375 470.629150390625 313.644775390625 470.629150390625 314.4033203125 C 454.58941650390625 314.4033203125 438.5496826171875 314.4033203125 422.50994873046875 314.4033203125 C 422.50994873046875 313.644775390625 422.50994873046875 312.8861083984375 422.50994873046875 312.1275634765625M 422.74835205078125 302.94580078125 C 439.145751953125 302.94580078125 455.5430908203125 302.94580078125 471.9404296875 302.94580078125 C 471.9404296875 309.8516845703125 471.9404296875 316.7576904296875 471.9404296875 323.66357421875 C 455.5430908203125 323.66357421875 439.145751953125 323.66357421875 422.74835205078125 323.66357421875 C 422.74835205078125 322.93115234375 422.74835205078125 322.19873046875 422.74835205078125 321.46624755859375 C 438.40399169921875 321.46624755859375 454.05963134765625 321.46624755859375 469.7152099609375 321.46624755859375 C 469.7152099609375 316.0120849609375 469.7152099609375 310.5579833984375 469.7152099609375 305.1038818359375 C 454.05963134765625 305.1038818359375 438.40399169921875 305.1038818359375 422.74835205078125 305.1038818359375 C 422.74835205078125 304.384521484375 422.74835205078125 303.6651611328125 422.74835205078125 302.94580078125M 444.9205322265625 303.6912841796875 C 445.688720703125 303.6912841796875 446.45697021484375 303.6912841796875 447.2252197265625 303.6912841796875 C 447.2252197265625 311.82666015625 447.2252197265625 319.96209716796875 447.2252197265625 328.0975341796875 C 447.2252197265625 329.24853515625 447.60931396484375 330.02020263671875 448.37750244140625 330.41259765625 C 449.14569091796875 330.83111572265625 450.77484130859375 331.0404052734375 453.264892578125 331.0404052734375 C 453.76824951171875 331.0404052734375 454.6424560546875 331.0404052734375 455.887451171875 331.0404052734375 C 457.1324462890625 331.0404052734375 458.576171875 331.0404052734375 460.21856689453125 331.0404052734375 C 461.887451171875 331.0404052734375 463.5562744140625 331.0404052734375 465.2252197265625 331.0404052734375 C 466.9205322265625 331.0404052734375 468.4437255859375 331.0404052734375 469.794677734375 331.0404052734375 C 471.1722412109375 331.0404052734375 472.1920166015625 331.0404052734375 472.85430908203125 331.0404052734375 C 474.3377685546875 331.0404052734375 475.4371337890625 330.7918701171875 476.15234375 330.29486083984375 C 476.8675537109375 329.823974609375 477.35760498046875 328.85614013671875 477.62255859375 327.3912353515625 C 477.9139404296875 325.900146484375 478.112548828125 323.70281982421875 478.21856689453125 320.7991943359375 C 478.50994873046875 320.9822998046875 478.8675537109375 321.1654052734375 479.2913818359375 321.3485107421875 C 479.74169921875 321.5316162109375 480.1390380859375 321.675537109375 480.48345947265625 321.7801513671875 C 480.32452392578125 324.8406982421875 480.03314208984375 327.2081298828125 479.6092529296875 328.88232421875 C 479.1854248046875 330.5302734375 478.45697021484375 331.668212890625 477.423828125 332.2960205078125 C 476.417236328125 332.949951171875 474.89404296875 333.2769775390625 472.85430908203125 333.2769775390625 C 472.56298828125 333.2769775390625 471.7550048828125 333.2769775390625 470.43048095703125 333.2769775390625 C 469.10595703125 333.2769775390625 467.55633544921875 333.2769775390625 465.781494140625 333.2769775390625 C 464.03314208984375 333.2769775390625 462.27154541015625 333.2769775390625 460.4967041015625 333.2769775390625 C 458.72186279296875 333.2769775390625 457.1854248046875 333.2769775390625 455.887451171875 333.2769775390625 C 454.58941650390625 333.2769775390625 453.781494140625 333.2769775390625 453.463623046875 333.2769775390625 C 451.2913818359375 333.2769775390625 449.582763671875 333.14617919921875 448.3377685546875 332.88458251953125 C 447.0927734375 332.649169921875 446.205322265625 332.1390380859375 445.675537109375 331.35430908203125 C 445.17218017578125 330.595703125 444.9205322265625 329.48394775390625 444.9205322265625 328.01904296875 C 444.9205322265625 319.9097900390625 444.9205322265625 311.800537109375 444.9205322265625 303.6912841796875M 421.4371337890625 302.94580078125 C 422.1788330078125 302.94580078125 422.9205322265625 302.94580078125 423.6622314453125 302.94580078125 C 423.6622314453125 311.3558349609375 423.6622314453125 319.76593017578125 423.6622314453125 328.176025390625 C 422.9205322265625 328.176025390625 422.1788330078125 328.176025390625 421.4371337890625 328.176025390625 C 421.4371337890625 319.76593017578125 421.4371337890625 311.3558349609375 421.4371337890625 302.94580078125M 418.93377685546875 270.14251708984375 C 437.2384033203125 270.14251708984375 455.5430908203125 270.14251708984375 473.84765625 270.14251708984375 C 473.84765625 270.875 473.84765625 271.607421875 473.84765625 272.33984375 C 455.5430908203125 272.33984375 437.2384033203125 272.33984375 418.93377685546875 272.33984375 C 418.93377685546875 271.607421875 418.93377685546875 270.875 418.93377685546875 270.14251708984375M 422.58941650390625 286.661865234375 C 428.3377685546875 286.661865234375 434.0860595703125 286.661865234375 439.83447265625 286.661865234375 C 439.83447265625 287.42047119140625 439.83447265625 288.1790771484375 439.83447265625 288.93768310546875 C 434.0860595703125 288.93768310546875 428.3377685546875 288.93768310546875 422.58941650390625 288.93768310546875 C 422.58941650390625 288.1790771484375 422.58941650390625 287.42047119140625 422.58941650390625 286.661865234375M 421.0 294.5880126953125 C 427.3046875 294.5880126953125 433.6092529296875 294.5880126953125 439.9139404296875 294.5880126953125 C 439.9139404296875 295.33349609375 439.9139404296875 296.07904052734375 439.9139404296875 296.8245849609375 C 433.6092529296875 296.8245849609375 427.3046875 296.8245849609375 421.0 296.8245849609375 C 421.0 296.07904052734375 421.0 295.33349609375 421.0 294.5880126953125M 452.43048095703125 294.5880126953125 C 459.0662841796875 294.5880126953125 465.7020263671875 294.5880126953125 472.3377685546875 294.5880126953125 C 472.3377685546875 295.33349609375 472.3377685546875 296.07904052734375 472.3377685546875 296.8245849609375 C 465.7020263671875 296.8245849609375 459.0662841796875 296.8245849609375 452.43048095703125 296.8245849609375 C 452.43048095703125 296.07904052734375 452.43048095703125 295.33349609375 452.43048095703125 294.5880126953125M 452.43048095703125 286.661865234375 C 458.40399169921875 286.661865234375 464.37750244140625 286.661865234375 470.35101318359375 286.661865234375 C 470.35101318359375 287.42047119140625 470.35101318359375 288.1790771484375 470.35101318359375 288.93768310546875 C 464.37750244140625 288.93768310546875 458.40399169921875 288.93768310546875 452.43048095703125 288.93768310546875 C 452.43048095703125 288.1790771484375 452.43048095703125 287.42047119140625 452.43048095703125 286.661865234375M 444.9205322265625 270.92730712890625 C 445.688720703125 270.92730712890625 446.45697021484375 270.92730712890625 447.2252197265625 270.92730712890625 C 447.2252197265625 280.56683349609375 447.2252197265625 290.2064208984375 447.2252197265625 299.845947265625 C 446.45697021484375 299.845947265625 445.688720703125 299.845947265625 444.9205322265625 299.845947265625 C 444.9205322265625 290.2064208984375 444.9205322265625 280.56683349609375 444.9205322265625 270.92730712890625M 415.2781982421875 278.7357177734375 C 435.993408203125 278.7357177734375 456.7086181640625 278.7357177734375 477.423828125 278.7357177734375 C 477.423828125 283.40509033203125 477.423828125 288.074462890625 477.423828125 292.7437744140625 C 476.66888427734375 292.7437744140625 475.9139404296875 292.7437744140625 475.158935546875 292.7437744140625 C 475.158935546875 288.8330078125 475.158935546875 284.92230224609375 475.158935546875 281.01153564453125 C 455.95367431640625 281.01153564453125 436.74835205078125 281.01153564453125 417.5430908203125 281.01153564453125 C 417.5430908203125 284.92230224609375 417.5430908203125 288.8330078125 417.5430908203125 292.7437744140625 C 416.7880859375 292.7437744140625 416.03314208984375 292.7437744140625 415.2781982421875 292.7437744140625 C 415.2781982421875 288.074462890625 415.2781982421875 283.40509033203125 415.2781982421875 278.7357177734375"/>
  </g>
</svg>
