<?xml version="1.0" encoding="utf-8"?>
<svg xmlns="http://www.w3.org/2000/svg" xmlns:ev="http://www.w3.org/2001/xml-events" xmlns:xlink="http://www.w3.org/1999/xlink" version="1.1" baseProfile="full" width="41856.0" height="1776.0" viewBox="67.0 -1634.0 41856.0 1776.0">
<defs/>
<g><path d="M 36822.000000 -1300.000000 C 36830.666667 -1298.666667 36848.000000 -1297.333333 36874.000000 -1296.000000 C 36900.666667 -1294.666667 36927.666667 -1293.666667 36955.000000 -1293.000000 C 36982.333333 -1292.333333 37002.000000 -1292.000000 37014.000000 -1292.000000 C 37025.333333 -1292.000000 37051.333333 -1292.000000 37092.000000 -1292.000000 C 37133.333333 -1292.000000 37183.000000 -1292.000000 37241.000000 -1292.000000 C 37299.666667 -1292.000000 37362.000000 -1292.000000 37428.000000 -1292.000000 C 37494.666667 -1292.000000 37560.666667 -1292.000000 37626.000000 -1292.000000 C 37691.333333 -1292.000000 37750.666667 -1292.000000 37804.000000 -1292.000000 C 37858.000000 -1292.000000 37901.000000 -1292.000000 37933.000000 -1292.000000 C 37959.000000 -1292.000000 37979.666667 -1292.333333 37995.000000 -1293.000000 C 38010.333333 -1293.666667 38024.333333 -1294.666667 38037.000000 -1296.000000 C 38035.666667 -1286.000000 38035.000000 -1276.333333 38035.000000 -1267.000000 C 38035.000000 -1258.333333 38035.000000 -1243.000000 38035.000000 -1221.000000 C 38035.000000 -1209.666667 38035.000000 -1178.333333 38035.000000 -1127.000000 C 38035.000000 -1075.666667 38035.000000 -1012.666667 38035.000000 -938.000000 C 38035.000000 -863.333333 38035.000000 -783.000000 38035.000000 -697.000000 C 38035.000000 -611.000000 38035.000000 -526.333333 38035.000000 -443.000000 C 38035.000000 -360.333333 38035.000000 -285.666667 38035.000000 -219.000000 C 38035.000000 -152.333333 38035.000000 -100.333333 38035.000000 -63.000000 C 38035.000000 -43.000000 38035.333333 -26.666667 38036.000000 -14.000000 C 38036.666667 -2.000000 38037.666667 11.000000 38039.000000 25.000000 C 38018.000000 25.000000 37997.000000 25.000000 37976.000000 25.000000 C 37977.333333 18.333333 37978.000000 11.666667 37978.000000 5.000000 C 37978.000000 -1.000000 37978.000000 -9.000000 37978.000000 -19.000000 C 37978.000000 -29.666667 37978.000000 -43.333333 37978.000000 -60.000000 C 37978.000000 -103.333333 37978.000000 -160.333333 37978.000000 -231.000000 C 37978.000000 -302.333333 37978.000000 -380.000000 37978.000000 -464.000000 C 37978.000000 -548.666667 37978.000000 -634.000000 37978.000000 -720.000000 C 37978.000000 -806.000000 37978.000000 -886.000000 37978.000000 -960.000000 C 37978.000000 -1034.000000 37978.000000 -1095.666667 37978.000000 -1145.000000 C 37978.000000 -1194.333333 37978.000000 -1224.333333 37978.000000 -1235.000000 C 37967.333333 -1235.000000 37938.000000 -1235.000000 37890.000000 -1235.000000 C 37842.000000 -1235.000000 37783.666667 -1235.000000 37715.000000 -1235.000000 C 37647.000000 -1235.000000 37574.666667 -1235.000000 37498.000000 -1235.000000 C 37422.000000 -1235.000000 37349.333333 -1235.000000 37280.000000 -1235.000000 C 37211.333333 -1235.000000 37152.666667 -1235.000000 37104.000000 -1235.000000 C 37055.333333 -1235.000000 37025.333333 -1235.000000 37014.000000 -1235.000000 C 37002.000000 -1235.000000 36982.333333 -1234.666667 36955.000000 -1234.000000 C 36927.666667 -1233.333333 36900.666667 -1232.666667 36874.000000 -1232.000000 C 36848.000000 -1231.333333 36830.666667 -1230.333333 36822.000000 -1229.000000 C 36822.000000 -1252.666667 36822.000000 -1276.333333 36822.000000 -1300.000000z M 36866.000000 -735.000000 C 36882.666667 -733.666667 36905.666667 -731.666667 36935.000000 -729.000000 C 36964.333333 -727.000000 36996.333333 -726.000000 37031.000000 -726.000000 C 37053.000000 -726.000000 37090.333333 -726.000000 37143.000000 -726.000000 C 37196.333333 -726.000000 37258.000000 -726.000000 37328.000000 -726.000000 C 37398.666667 -726.000000 37471.333333 -726.000000 37546.000000 -726.000000 C 37621.333333 -726.000000 37692.666667 -726.000000 37760.000000 -726.000000 C 37828.000000 -726.000000 37885.333333 -726.000000 37932.000000 -726.000000 C 37979.333333 -726.000000 38008.666667 -726.000000 38020.000000 -726.000000 C 38020.000000 -706.666667 38020.000000 -687.333333 38020.000000 -668.000000 C 38008.666667 -668.000000 37979.333333 -668.000000 37932.000000 -668.000000 C 37885.333333 -668.000000 37828.333333 -668.000000 37761.000000 -668.000000 C 37694.333333 -668.000000 37623.000000 -668.000000 37547.000000 -668.000000 C 37471.666667 -668.000000 37399.000000 -668.000000 37329.000000 -668.000000 C 37259.666667 -668.000000 37198.666667 -668.000000 37146.000000 -668.000000 C 37094.000000 -668.000000 37057.000000 -668.000000 37035.000000 -668.000000 C 36999.000000 -668.000000 36967.000000 -667.666667 36939.000000 -667.000000 C 36911.000000 -666.333333 36886.666667 -665.333333 36866.000000 -664.000000 C 36866.000000 -687.666667 36866.000000 -711.333333 36866.000000 -735.000000z M 36793.000000 -140.000000 C 36811.000000 -138.666667 36836.666667 -137.000000 36870.000000 -135.000000 C 36903.333333 -133.000000 36939.666667 -132.000000 36979.000000 -132.000000 C 36999.666667 -132.000000 37036.666667 -132.000000 37090.000000 -132.000000 C 37144.000000 -132.000000 37207.000000 -132.000000 37279.000000 -132.000000 C 37351.666667 -132.000000 37427.000000 -132.000000 37505.000000 -132.000000 C 37583.000000 -132.000000 37657.666667 -132.000000 37729.000000 -132.000000 C 37801.000000 -132.000000 37863.333333 -132.000000 37916.000000 -132.000000 C 37968.666667 -132.000000 38004.000000 -132.000000 38022.000000 -132.000000 C 38022.000000 -113.000000 38022.000000 -94.000000 38022.000000 -75.000000 C 38004.000000 -75.000000 37969.000000 -75.000000 37917.000000 -75.000000 C 37865.000000 -75.000000 37803.000000 -75.000000 37731.000000 -75.000000 C 37659.666667 -75.000000 37585.000000 -75.000000 37507.000000 -75.000000 C 37429.000000 -75.000000 37353.666667 -75.000000 37281.000000 -75.000000 C 37209.000000 -75.000000 37146.000000 -75.000000 37092.000000 -75.000000 C 37038.666667 -75.000000 37001.666667 -75.000000 36981.000000 -75.000000 C 36940.333333 -75.000000 36903.333333 -74.333333 36870.000000 -73.000000 C 36836.666667 -71.666667 36811.000000 -70.333333 36793.000000 -69.000000 C 36793.000000 -92.666667 36793.000000 -116.333333 36793.000000 -140.000000z "/>
</g></svg>
