<?xml version="1.0" ?>
<svg xmlns="http://www.w3.org/2000/svg" version="1.1" width="600" height="600">
  <defs/>
  <g>
    <path stroke-width="0" fill="rgb(0, 0, 0)" opacity="1.0" d="M 349.79296875 139.43118286132812 C 388.943359375 139.43118286132812 428.0927734375 139.43118286132812 467.2431640625 139.43118286132812 C 467.2431640625 143.28439331054688 467.2431640625 147.13763427734375 467.2431640625 150.99081420898438 C 428.0927734375 150.99081420898438 388.943359375 150.99081420898438 349.79296875 150.99081420898438 C 349.79296875 147.13763427734375 349.79296875 143.28439331054688 349.79296875 139.43118286132812M 349.79296875 231.70184326171875 C 388.943359375 231.70184326171875 428.0927734375 231.70184326171875 467.2431640625 231.70184326171875 C 467.2431640625 235.5550537109375 467.2431640625 239.40826416015625 467.2431640625 243.261474609375 C 428.0927734375 243.261474609375 388.943359375 243.261474609375 349.79296875 243.261474609375 C 349.79296875 239.40826416015625 349.79296875 235.5550537109375 349.79296875 231.70184326171875M 349.173828125 326.03668212890625 C 388.943359375 326.03668212890625 428.7119140625 326.03668212890625 468.4814453125 326.03668212890625 C 468.4814453125 329.889892578125 468.4814453125 333.74310302734375 468.4814453125 337.5963134765625 C 428.7119140625 337.5963134765625 388.943359375 337.5963134765625 349.173828125 337.5963134765625 C 349.173828125 333.74310302734375 349.173828125 329.889892578125 349.173828125 326.03668212890625M 461.2578125 139.43118286132812 C 465.1103515625 139.43118286132812 468.962890625 139.43118286132812 472.81640625 139.43118286132812 C 472.81640625 243.39910888671875 472.81640625 347.366943359375 472.81640625 451.3348388671875 C 472.81640625 456.8394775390625 471.9228515625 460.9678955078125 470.1328125 463.72021484375 C 468.4814453125 466.610107421875 465.3857421875 468.67431640625 460.8447265625 469.912841796875 C 456.578125 471.0137939453125 450.0419921875 471.70184326171875 441.2353515625 471.97705078125 C 432.427734375 472.2523193359375 420.8681640625 472.389892578125 406.5576171875 472.389892578125 C 406.2822265625 470.46331787109375 405.59375 468.33026123046875 404.4931640625 465.9908447265625 C 403.529296875 463.6513671875 402.4970703125 461.518310546875 401.396484375 459.59173583984375 C 413.78125 459.866943359375 424.7216796875 460.00457763671875 434.216796875 460.00457763671875 C 443.849609375 460.00457763671875 450.2490234375 459.866943359375 453.4130859375 459.59173583984375 C 456.3037109375 459.4541015625 458.298828125 458.8348388671875 459.3994140625 457.73394775390625 C 460.6376953125 456.633056640625 461.2578125 454.5 461.2578125 451.3348388671875 C 461.2578125 347.366943359375 461.2578125 243.39910888671875 461.2578125 139.43118286132812M 344.6328125 139.43118286132812 C 348.4853515625 139.43118286132812 352.3388671875 139.43118286132812 356.19140625 139.43118286132812 C 356.19140625 186.83944702148438 356.19140625 234.24771118164062 356.19140625 281.65594482421875 C 356.19140625 296.51837158203125 355.7099609375 312.412841796875 354.7470703125 329.3394775390625 C 353.9208984375 346.26605224609375 352.0634765625 363.4678955078125 349.173828125 380.9449462890625 C 346.421875 398.284423828125 342.29296875 415.21099853515625 336.7890625 431.7247314453125 C 331.2841796875 448.238525390625 323.7841796875 463.5137939453125 314.2890625 477.5504150390625 C 313.73828125 476.7247314453125 312.8447265625 475.83026123046875 311.60546875 474.866943359375 C 310.5048828125 474.041259765625 309.2666015625 473.14678955078125 307.890625 472.1834716796875 C 306.513671875 471.22021484375 305.3447265625 470.6009521484375 304.3818359375 470.32568359375 C 316.7666015625 451.88531494140625 325.7802734375 431.7935791015625 331.421875 410.05047607421875 C 337.0634765625 388.16973876953125 340.6416015625 366.1513671875 342.1552734375 343.99542236328125 C 343.806640625 321.8394775390625 344.6328125 301.05963134765625 344.6328125 281.65594482421875 C 344.6328125 234.24771118164062 344.6328125 186.83944702148438 344.6328125 139.43118286132812M 133.8818359375 176.7935791015625 C 195.73828125 176.7935791015625 257.59375 176.7935791015625 319.4501953125 176.7935791015625 C 319.4501953125 180.5780029296875 319.4501953125 184.36236572265625 319.4501953125 188.14678955078125 C 257.59375 188.14678955078125 195.73828125 188.14678955078125 133.8818359375 188.14678955078125 C 133.8818359375 184.36236572265625 133.8818359375 180.5780029296875 133.8818359375 176.7935791015625M 175.1650390625 235.41741943359375 C 210.6689453125 235.41741943359375 246.171875 235.41741943359375 281.67578125 235.41741943359375 C 281.67578125 239.20184326171875 281.67578125 242.98626708984375 281.67578125 246.7706298828125 C 246.171875 246.7706298828125 210.6689453125 246.7706298828125 175.1650390625 246.7706298828125 C 175.1650390625 242.98626708984375 175.1650390625 239.20184326171875 175.1650390625 235.41741943359375M 175.578125 299.20184326171875 C 211.0810546875 299.20184326171875 246.5849609375 299.20184326171875 282.0888671875 299.20184326171875 C 282.0888671875 303.12384033203125 282.0888671875 307.0458984375 282.0888671875 310.9678955078125 C 246.5849609375 310.9678955078125 211.0810546875 310.9678955078125 175.578125 310.9678955078125 C 175.578125 307.0458984375 175.578125 303.12384033203125 175.578125 299.20184326171875M 127.8955078125 364.63763427734375 C 192.6416015625 364.63763427734375 257.38671875 364.63763427734375 322.1328125 364.63763427734375 C 322.1328125 368.4219970703125 322.1328125 372.2064208984375 322.1328125 375.9908447265625 C 257.38671875 375.9908447265625 192.6416015625 375.9908447265625 127.8955078125 375.9908447265625 C 127.8955078125 372.2064208984375 127.8955078125 368.4219970703125 127.8955078125 364.63763427734375M 170.0048828125 122.71099853515625 C 173.7890625 122.71099853515625 177.5732421875 122.71099853515625 181.357421875 122.71099853515625 C 181.357421875 205.41741943359375 181.357421875 288.12384033203125 181.357421875 370.83026123046875 C 177.5732421875 370.83026123046875 173.7890625 370.83026123046875 170.0048828125 370.83026123046875 C 170.0048828125 288.12384033203125 170.0048828125 205.41741943359375 170.0048828125 122.71099853515625M 276.1025390625 122.71099853515625 C 279.9560546875 122.71099853515625 283.80859375 122.71099853515625 287.662109375 122.71099853515625 C 287.662109375 205.41741943359375 287.662109375 288.12384033203125 287.662109375 370.83026123046875 C 283.80859375 370.83026123046875 279.9560546875 370.83026123046875 276.1025390625 370.83026123046875 C 276.1025390625 288.12384033203125 276.1025390625 205.41741943359375 276.1025390625 122.71099853515625M 188.9951171875 390.23394775390625 C 192.9853515625 391.197265625 196.9765625 392.1605224609375 200.966796875 393.12384033203125 C 193.8115234375 408.3990478515625 184.935546875 423.261474609375 174.33984375 437.71099853515625 C 163.744140625 452.1605224609375 153.009765625 464.3394775390625 142.138671875 474.2476806640625 C 141.7255859375 473.8348388671875 140.83203125 473.14678955078125 139.455078125 472.1834716796875 C 138.0791015625 471.22021484375 136.703125 470.2568359375 135.3271484375 469.2935791015625 C 134.0888671875 468.4678955078125 132.9189453125 467.77978515625 131.8173828125 467.2293701171875 C 143.5146484375 457.458740234375 154.3857421875 445.83026123046875 164.431640625 432.343994140625 C 174.4775390625 418.8577880859375 182.6650390625 404.82110595703125 188.9951171875 390.23394775390625M 244.1083984375 397.0458984375 C 247.4111328125 395.46331787109375 250.712890625 393.8807373046875 254.015625 392.29815673828125 C 259.2451171875 398.35321044921875 264.3369140625 405.02752685546875 269.291015625 412.32110595703125 C 274.3828125 419.61468505859375 279.060546875 426.70184326171875 283.3271484375 433.58258056640625 C 287.5927734375 440.46331787109375 290.8955078125 446.656005859375 293.2353515625 452.1605224609375 C 289.7939453125 454.156005859375 286.3544921875 456.1513671875 282.9140625 458.14678955078125 C 280.849609375 452.50457763671875 277.685546875 446.2431640625 273.4189453125 439.3624267578125 C 269.1533203125 432.343994140625 264.4052734375 425.0504150390625 259.1767578125 417.481689453125 C 254.0849609375 409.912841796875 249.0615234375 403.1009521484375 244.1083984375 397.0458984375"/>
  </g>
</svg>
