<?xml version="1.0" ?>
<svg xmlns="http://www.w3.org/2000/svg" version="1.1" width="600" height="600">
  <defs/>
  <g>
    <path stroke-width="0" fill="rgb(0, 0, 0)" opacity="1.0" d="M 122.39794921875 353.56884765625 C 130.7919921875 349.02752685546875 140.76904296875 343.59173583984375 152.328125 337.261474609375 C 164.02490234375 330.93115234375 176.06591796875 324.1881103515625 188.451171875 317.0321044921875 C 189.55224609375 320.197265625 190.65283203125 323.3624267578125 191.75390625 326.52752685546875 C 180.8828125 333.133056640625 170.14892578125 339.46331787109375 159.552734375 345.518310546875 C 148.95654296875 351.5733642578125 138.77392578125 357.4219970703125 129.00341796875 363.064208984375 C 126.8017578125 359.8990478515625 124.599609375 356.73394775390625 122.39794921875 353.56884765625M 140.9755859375 195.86236572265625 C 147.85595703125 207.97247314453125 153.91064453125 221.04586791992188 159.14013671875 235.08258056640625 C 164.5068359375 248.98162841796875 167.94677734375 260.8165283203125 169.4609375 270.587158203125 C 165.7451171875 272.16973876953125 162.02978515625 273.7522888183594 158.314453125 275.3348693847656 C 157.35107421875 268.59173583984375 155.42431640625 260.88531494140625 152.53466796875 252.215576171875 C 149.7822265625 243.40826416015625 146.4794921875 234.39447021484375 142.626953125 225.17431640625 C 138.9111328125 215.8165283203125 134.78271484375 207.21560668945312 130.24169921875 199.37158203125 C 133.81982421875 198.20184326171875 137.3974609375 197.0321044921875 140.9755859375 195.86236572265625M 330.8779296875 121.96331787109375 C 330.8779296875 137.16970825195312 330.8779296875 152.37615966796875 330.8779296875 167.58258056640625 C 326.88720703125 167.58258056640625 322.896484375 167.58258056640625 318.90576171875 167.58258056640625 C 318.90576171875 152.37615966796875 318.90576171875 137.16970825195312 318.90576171875 121.96331787109375 C 322.896484375 121.96331787109375 326.88720703125 121.96331787109375 330.8779296875 121.96331787109375M 195.67578125 289.784423828125 C 195.67578125 304.23394775390625 194.9873046875 319.715576171875 193.611328125 336.2293701171875 C 192.373046875 352.74310302734375 189.96484375 369.46331787109375 186.38671875 386.389892578125 C 182.80908203125 403.3165283203125 177.37353515625 419.761474609375 170.080078125 435.7247314453125 C 162.78662109375 451.6881103515625 153.22265625 466.412841796875 141.38818359375 479.8990478515625 C 140.837890625 478.79815673828125 140.01220703125 477.76605224609375 138.9111328125 476.802734375 C 137.9482421875 475.97705078125 136.916015625 475.08258056640625 135.81494140625 474.1192626953125 C 134.7138671875 473.2935791015625 133.68212890625 472.60546875 132.71875 472.0550537109375 C 144.27783203125 458.843994140625 153.42919921875 444.66973876953125 160.171875 429.5321044921875 C 166.9150390625 414.25689697265625 172.0068359375 398.56884765625 175.44677734375 382.4678955078125 C 178.88720703125 366.366943359375 181.0888671875 350.47247314453125 182.05224609375 334.784423828125 C 183.1533203125 318.958740234375 183.70361328125 303.958740234375 183.70361328125 289.784423828125 C 183.70361328125 246.8486328125 183.70361328125 203.912841796875 183.70361328125 160.97708129882812 C 187.6943359375 160.97708129882812 191.6845703125 160.97708129882812 195.67578125 160.97708129882812 C 195.67578125 203.912841796875 195.67578125 246.8486328125 195.67578125 289.784423828125M 479.08447265625 160.97708129882812 C 479.08447265625 164.761474609375 479.08447265625 168.54586791992188 479.08447265625 172.33029174804688 C 382.89453125 172.33029174804688 286.705078125 172.33029174804688 190.51513671875 172.33029174804688 C 190.51513671875 168.54586791992188 190.51513671875 164.761474609375 190.51513671875 160.97708129882812 C 286.705078125 160.97708129882812 382.89453125 160.97708129882812 479.08447265625 160.97708129882812M 460.71337890625 230.54129028320312 C 461.6767578125 230.33486938476562 462.64013671875 230.12844848632812 463.60302734375 229.92202758789062 C 466.080078125 231.09173583984375 468.55712890625 232.261474609375 471.0341796875 233.43121337890625 C 466.90576171875 244.02752685546875 462.36474609375 254.9678955078125 457.41064453125 266.2522888183594 C 452.59423828125 277.3990783691406 448.05322265625 286.82568359375 443.787109375 294.5321044921875 C 440.34716796875 293.2935791015625 436.90673828125 292.0550537109375 433.46630859375 290.8165283203125 C 437.732421875 283.52294921875 442.06689453125 274.5779724121094 446.470703125 263.9816589355469 C 451.01171875 253.38531494140625 455.00244140625 243.20184326171875 458.44287109375 233.43121337890625 C 458.44287109375 232.4678955078125 458.44287109375 231.50457763671875 458.44287109375 230.54129028320312 C 459.19970703125 230.54129028320312 459.95654296875 230.54129028320312 460.71337890625 230.54129028320312M 255.5361328125 304.85321044921875 C 255.5361328125 318.064208984375 254.779296875 332.1009521484375 253.265625 346.96331787109375 C 251.8896484375 361.82568359375 249.13720703125 377.1009521484375 245.0087890625 392.78900146484375 C 240.880859375 408.3394775390625 235.0322265625 423.5458984375 227.46337890625 438.40826416015625 C 220.03271484375 453.133056640625 210.19384765625 466.82568359375 197.9462890625 479.4862060546875 C 197.80859375 478.52294921875 197.189453125 477.55963134765625 196.08837890625 476.5963134765625 C 194.9873046875 475.633056640625 193.81787109375 474.738525390625 192.57958984375 473.912841796875 C 191.478515625 473.2247314453125 190.3779296875 472.60546875 189.27685546875 472.0550537109375 C 201.2490234375 459.66973876953125 210.744140625 446.389892578125 217.76220703125 432.215576171875 C 224.91748046875 418.041259765625 230.353515625 403.59173583984375 234.06884765625 388.866943359375 C 237.7841796875 374.00457763671875 240.26123046875 359.41741943359375 241.5 345.10546875 C 242.8759765625 330.656005859375 243.56396484375 317.1009521484375 243.56396484375 304.44036865234375 C 243.56396484375 279.8073425292969 243.56396484375 255.17431640625 243.56396484375 230.54129028320312 C 247.5546875 230.54129028320312 251.54541015625 230.54129028320312 255.5361328125 230.54129028320312 C 255.5361328125 255.31195068359375 255.5361328125 280.08258056640625 255.5361328125 304.85321044921875M 288.76904296875 313.52294921875 C 303.630859375 354.66973876953125 327.36865234375 388.4541015625 359.982421875 414.87615966796875 C 392.59619140625 441.29815673828125 432.4345703125 459.5321044921875 479.4970703125 469.5780029296875 C 478.12109375 470.9541015625 476.607421875 472.60546875 474.9560546875 474.5321044921875 C 473.4423828125 476.5963134765625 472.2724609375 478.38531494140625 471.44677734375 479.8990478515625 C 440.34716796875 472.192626953125 412.068359375 461.11468505859375 386.6103515625 446.6651611328125 C 361.2900390625 432.0780029296875 339.40966796875 414.05047607421875 320.9697265625 392.58258056640625 C 302.66796875 370.97705078125 288.21875 345.93115234375 277.62255859375 317.4449462890625 C 281.337890625 316.13763427734375 285.0537109375 314.83026123046875 288.76904296875 313.52294921875M 431.81494140625 309.807373046875 C 432.640625 309.6009521484375 433.46630859375 309.39453125 434.2919921875 309.1881103515625 C 436.90673828125 310.633056640625 439.521484375 312.0780029296875 442.1357421875 313.52294921875 C 434.2919921875 336.77978515625 423.62744140625 357.62841796875 410.1416015625 376.06884765625 C 396.65576171875 394.37158203125 381.17431640625 410.26605224609375 363.69775390625 423.7523193359375 C 346.2216796875 437.1009521484375 327.64404296875 448.38531494140625 307.9658203125 457.60546875 C 288.287109375 466.96331787109375 268.26513671875 474.39453125 247.89892578125 479.8990478515625 C 247.48583984375 478.38531494140625 246.52294921875 476.5963134765625 245.0087890625 474.5321044921875 C 243.4951171875 472.60546875 242.119140625 470.9541015625 240.880859375 469.5780029296875 C 260.42138671875 464.8990478515625 279.82421875 458.156005859375 299.08984375 449.3486328125 C 318.35546875 440.4036865234375 336.52001953125 429.46331787109375 353.58349609375 416.52752685546875 C 370.64697265625 403.59173583984375 385.78466796875 388.4541015625 398.9951171875 371.11468505859375 C 412.20556640625 353.7752685546875 422.38916015625 334.302734375 429.54443359375 312.697265625 C 429.54443359375 311.73394775390625 429.54443359375 310.7706298828125 429.54443359375 309.807373046875 C 430.30126953125 309.807373046875 431.05859375 309.807373046875 431.81494140625 309.807373046875M 356.88623046875 185.95413208007812 C 356.88623046875 229.784423828125 356.88623046875 273.61468505859375 356.88623046875 317.4449462890625 C 353.10205078125 317.4449462890625 349.31787109375 317.4449462890625 345.533203125 317.4449462890625 C 345.533203125 273.61468505859375 345.533203125 229.784423828125 345.533203125 185.95413208007812 C 349.31787109375 185.95413208007812 353.10205078125 185.95413208007812 356.88623046875 185.95413208007812M 461.1259765625 230.54129028320312 C 461.1259765625 234.5321044921875 461.1259765625 238.52294921875 461.1259765625 242.51376342773438 C 390.60107421875 242.51376342773438 320.0751953125 242.51376342773438 249.55029296875 242.51376342773438 C 249.55029296875 238.52294921875 249.55029296875 234.5321044921875 249.55029296875 230.54129028320312 C 320.0751953125 230.54129028320312 390.60107421875 230.54129028320312 461.1259765625 230.54129028320312M 433.0537109375 309.807373046875 C 433.0537109375 313.6605224609375 433.0537109375 317.5137939453125 433.0537109375 321.366943359375 C 371.8857421875 321.366943359375 310.71826171875 321.366943359375 249.55029296875 321.366943359375 C 249.55029296875 317.5137939453125 249.55029296875 313.6605224609375 249.55029296875 309.807373046875 C 310.71826171875 309.807373046875 371.8857421875 309.807373046875 433.0537109375 309.807373046875"/>
  </g>
</svg>
