<?xml version="1.0" ?>
<svg xmlns="http://www.w3.org/2000/svg" version="1.1" width="600" height="600">
  <defs/>
  <g>
    <path stroke-width="0" fill="rgb(0, 0, 0)" opacity="1.0" d="M 418.90185546875 170.98648071289062 C 417.685546875 173.01351928710938 416.4013671875 175.44595336914062 415.05029296875 178.28378295898438 C 413.69921875 181.12164306640625 412.55029296875 184.229736328125 411.6044921875 187.60809326171875 C 407.685546875 203.41891479492188 402.01025390625 219.9053955078125 394.578125 237.06756591796875 C 387.14599609375 254.229736328125 379.03857421875 270.4459533691406 370.2548828125 285.7161865234375 C 361.47119140625 300.9864501953125 352.68798828125 314.0946044921875 343.904296875 325.04052734375 C 329.5810546875 342.87841796875 313.703125 358.95947265625 296.27099609375 373.2838134765625 C 278.974609375 387.60809326171875 261.00244140625 400.1756591796875 242.3544921875 410.9864501953125 C 223.84130859375 421.66217041015625 205.39599609375 430.37841796875 187.0185546875 437.1351318359375 C 183.23486328125 433.62158203125 179.451171875 430.10809326171875 175.66748046875 426.5946044921875 C 195.39697265625 420.9189453125 214.9228515625 412.6756591796875 234.24658203125 401.8648681640625 C 253.5703125 390.9189453125 271.81298828125 378.2161865234375 288.97412109375 363.7567138671875 C 306.1357421875 349.29730224609375 321.20263671875 334.16217041015625 334.17529296875 318.351318359375 C 344.71533203125 305.37841796875 354.44482421875 291.12164306640625 363.36328125 275.5810852050781 C 372.4169921875 260.04052734375 380.25439453125 243.8243408203125 386.8759765625 226.93243408203125 C 393.4970703125 210.04052734375 398.63232421875 193.5540771484375 402.28076171875 177.47296142578125 C 398.36181640625 177.47296142578125 391.74072265625 177.47296142578125 382.41650390625 177.47296142578125 C 373.0927734375 177.47296142578125 362.0791015625 177.47296142578125 349.37744140625 177.47296142578125 C 336.81005859375 177.47296142578125 323.837890625 177.47296142578125 310.4599609375 177.47296142578125 C 297.216796875 177.47296142578125 284.447265625 177.47296142578125 272.150390625 177.47296142578125 C 259.98876953125 177.47296142578125 249.51611328125 177.47296142578125 240.73291015625 177.47296142578125 C 232.08447265625 177.47296142578125 226.34130859375 177.47296142578125 223.50390625 177.47296142578125 C 219.44970703125 177.47296142578125 215.5986328125 177.54055786132812 211.9501953125 177.6756591796875 C 208.3017578125 177.810791015625 204.720703125 177.87838745117188 201.20703125 177.87838745117188 C 197.69384765625 177.87838745117188 194.248046875 178.01348876953125 190.86962890625 178.28378295898438 C 190.86962890625 173.62164306640625 190.86962890625 168.95947265625 190.86962890625 164.29730224609375 C 196.0048828125 164.56756591796875 201.1396484375 164.9053955078125 206.2744140625 165.31082153320312 C 211.544921875 165.71621704101562 217.28759765625 165.91891479492188 223.50390625 165.91891479492188 C 226.34130859375 165.91891479492188 232.08447265625 165.91891479492188 240.73291015625 165.91891479492188 C 249.51611328125 165.91891479492188 259.98876953125 165.91891479492188 272.150390625 165.91891479492188 C 284.447265625 165.91891479492188 297.216796875 165.91891479492188 310.4599609375 165.91891479492188 C 323.837890625 165.91891479492188 336.53955078125 165.91891479492188 348.56640625 165.91891479492188 C 360.72802734375 165.91891479492188 371.13330078125 165.91891479492188 379.78125 165.91891479492188 C 388.56494140625 165.91891479492188 394.24072265625 165.91891479492188 396.80810546875 165.91891479492188 C 399.916015625 165.91891479492188 402.55078125 165.78378295898438 404.712890625 165.51351928710938 C 406.875 165.24322509765625 408.90185546875 164.70269775390625 410.7939453125 163.89190673828125 C 413.49658203125 166.25674438476562 416.19873046875 168.62164306640625 418.90185546875 170.98648071289062M 221.67919921875 245.58108520507812 C 240.05712890625 255.1756591796875 258.705078125 266.1216125488281 277.623046875 278.4189147949219 C 296.54150390625 290.5810546875 314.9189453125 303.2161865234375 332.75634765625 316.3243408203125 C 350.728515625 329.43243408203125 367.55224609375 342.270263671875 383.2275390625 354.83782958984375 C 399.03759765625 367.4053955078125 412.7529296875 378.89190673828125 424.37451171875 389.29730224609375 C 421.40185546875 392.6756591796875 418.4287109375 396.0540771484375 415.45556640625 399.43243408203125 C 405.861328125 390.5135498046875 395.1865234375 381.12158203125 383.43017578125 371.2567138671875 C 371.80859375 361.2567138671875 359.30908203125 351.0540771484375 345.931640625 340.648681640625 C 332.5537109375 330.24322509765625 318.5673828125 319.9053955078125 303.9736328125 309.6351318359375 C 289.5146484375 299.3648681640625 274.7177734375 289.56756591796875 259.58349609375 280.24322509765625 C 244.44873046875 270.9189147949219 229.31396484375 262.33782958984375 214.1796875 254.5 C 216.6796875 251.52703857421875 219.17919921875 248.5540771484375 221.67919921875 245.58108520507812"/>
  </g>
</svg>
