<?xml version="1.0" encoding="utf-8"?>
<svg xmlns="http://www.w3.org/2000/svg" xmlns:ev="http://www.w3.org/2001/xml-events" xmlns:xlink="http://www.w3.org/1999/xlink" version="1.1" baseProfile="full" width="13258.0" height="1736.0" viewBox="94.0 -1596.0 13258.0 1736.0">
<defs/>
<g><path d="M 8440.000000 -405.000000 C 8742.333333 -405.000000 9044.666667 -405.000000 9347.000000 -405.000000 C 9347.000000 -386.000000 9347.000000 -367.000000 9347.000000 -348.000000 C 9044.666667 -348.000000 8742.333333 -348.000000 8440.000000 -348.000000 C 8440.000000 -367.000000 8440.000000 -386.000000 8440.000000 -405.000000z M 9325.000000 -405.000000 C 9329.666667 -405.000000 9334.333333 -405.000000 9339.000000 -405.000000 C 9342.666667 -406.333333 9346.333333 -407.666667 9350.000000 -409.000000 C 9362.333333 -401.333333 9374.666667 -393.666667 9387.000000 -386.000000 C 9343.666667 -308.000000 9285.333333 -239.000000 9212.000000 -179.000000 C 9139.333333 -119.666667 9057.000000 -69.000000 8965.000000 -27.000000 C 8873.666667 14.333333 8777.666667 48.666667 8677.000000 76.000000 C 8577.000000 103.333333 8477.000000 124.666667 8377.000000 140.000000 C 8374.333333 132.666667 8370.000000 123.666667 8364.000000 113.000000 C 8358.666667 103.000000 8352.666667 94.666667 8346.000000 88.000000 C 8443.333333 75.333333 8541.333333 56.000000 8640.000000 30.000000 C 8738.666667 4.666667 8832.333333 -27.000000 8921.000000 -65.000000 C 9010.333333 -103.666667 9090.000000 -150.000000 9160.000000 -204.000000 C 9230.666667 -258.666667 9285.666667 -321.333333 9325.000000 -392.000000 C 9325.000000 -396.333333 9325.000000 -400.666667 9325.000000 -405.000000z M 8663.000000 -355.000000 C 8714.333333 -279.666667 8784.000000 -212.000000 8872.000000 -152.000000 C 8960.666667 -92.666667 9061.000000 -42.333333 9173.000000 -1.000000 C 9285.000000 39.666667 9401.000000 69.333333 9521.000000 88.000000 C 9515.000000 94.666667 9508.333333 102.666667 9501.000000 112.000000 C 9494.333333 122.000000 9489.000000 130.000000 9485.000000 136.000000 C 9364.333333 114.666667 9247.666667 82.000000 9135.000000 38.000000 C 9022.333333 -5.333333 8921.000000 -58.333333 8831.000000 -121.000000 C 8741.000000 -183.666667 8669.000000 -255.333333 8615.000000 -336.000000 C 8631.000000 -342.333333 8647.000000 -348.666667 8663.000000 -355.000000z M 8404.000000 -1453.000000 C 8765.666667 -1453.000000 9127.333333 -1453.000000 9489.000000 -1453.000000 C 9489.000000 -1434.000000 9489.000000 -1415.000000 9489.000000 -1396.000000 C 9127.333333 -1396.000000 8765.666667 -1396.000000 8404.000000 -1396.000000 C 8404.000000 -1415.000000 8404.000000 -1434.000000 8404.000000 -1453.000000z M 8573.000000 -943.000000 C 8847.000000 -943.000000 9121.000000 -943.000000 9395.000000 -943.000000 C 9395.000000 -924.333333 9395.000000 -905.666667 9395.000000 -887.000000 C 9121.000000 -887.000000 8847.000000 -887.000000 8573.000000 -887.000000 C 8573.000000 -905.666667 8573.000000 -924.333333 8573.000000 -943.000000z M 8573.000000 -758.000000 C 8847.000000 -758.000000 9121.000000 -758.000000 9395.000000 -758.000000 C 9395.000000 -739.666667 9395.000000 -721.333333 9395.000000 -703.000000 C 9121.000000 -703.000000 8847.000000 -703.000000 8573.000000 -703.000000 C 8573.000000 -721.333333 8573.000000 -739.666667 8573.000000 -758.000000z M 8723.000000 -1596.000000 C 8742.000000 -1596.000000 8761.000000 -1596.000000 8780.000000 -1596.000000 C 8780.000000 -1489.000000 8780.000000 -1382.000000 8780.000000 -1275.000000 C 8761.000000 -1275.000000 8742.000000 -1275.000000 8723.000000 -1275.000000 C 8723.000000 -1382.000000 8723.000000 -1489.000000 8723.000000 -1596.000000z M 8938.000000 -1108.000000 C 8956.333333 -1108.000000 8974.666667 -1108.000000 8993.000000 -1108.000000 C 8993.000000 -921.666667 8993.000000 -735.333333 8993.000000 -549.000000 C 8974.666667 -549.000000 8956.333333 -549.000000 8938.000000 -549.000000 C 8938.000000 -735.333333 8938.000000 -921.666667 8938.000000 -1108.000000z M 9133.000000 -1596.000000 C 9151.666667 -1596.000000 9170.333333 -1596.000000 9189.000000 -1596.000000 C 9189.000000 -1489.000000 9189.000000 -1382.000000 9189.000000 -1275.000000 C 9170.333333 -1275.000000 9151.666667 -1275.000000 9133.000000 -1275.000000 C 9133.000000 -1382.000000 9133.000000 -1489.000000 9133.000000 -1596.000000z M 8644.000000 -1300.000000 C 8662.666667 -1295.333333 8681.333333 -1290.666667 8700.000000 -1286.000000 C 8661.333333 -1206.666667 8614.000000 -1130.333333 8558.000000 -1057.000000 C 8502.666667 -983.666667 8446.666667 -920.666667 8390.000000 -868.000000 C 8388.000000 -872.000000 8383.666667 -876.000000 8377.000000 -880.000000 C 8370.333333 -884.666667 8363.666667 -889.000000 8357.000000 -893.000000 C 8351.000000 -897.666667 8345.333333 -901.333333 8340.000000 -904.000000 C 8400.666667 -954.000000 8457.666667 -1013.666667 8511.000000 -1083.000000 C 8565.000000 -1153.000000 8609.333333 -1225.333333 8644.000000 -1300.000000z M 8993.000000 -1296.000000 C 9011.666667 -1288.333333 9030.333333 -1280.666667 9049.000000 -1273.000000 C 9032.333333 -1238.333333 9014.666667 -1204.000000 8996.000000 -1170.000000 C 8977.333333 -1136.000000 8959.666667 -1106.333333 8943.000000 -1081.000000 C 8927.666667 -1087.333333 8912.333333 -1093.666667 8897.000000 -1100.000000 C 8913.666667 -1128.000000 8931.333333 -1161.000000 8950.000000 -1199.000000 C 8968.666667 -1237.000000 8983.000000 -1269.333333 8993.000000 -1296.000000z M 9444.000000 -1125.000000 C 9444.000000 -1106.333333 9444.000000 -1087.666667 9444.000000 -1069.000000 C 9165.000000 -1069.000000 8886.000000 -1069.000000 8607.000000 -1069.000000 C 8607.000000 -902.666667 8607.000000 -736.333333 8607.000000 -570.000000 C 8900.333333 -570.000000 9193.666667 -570.000000 9487.000000 -570.000000 C 9487.000000 -551.666667 9487.000000 -533.333333 9487.000000 -515.000000 C 9175.333333 -515.000000 8863.666667 -515.000000 8552.000000 -515.000000 C 8552.000000 -718.333333 8552.000000 -921.666667 8552.000000 -1125.000000 C 8849.333333 -1125.000000 9146.666667 -1125.000000 9444.000000 -1125.000000z M 7847.000000 -1021.000000 C 8005.666667 -1021.000000 8164.333333 -1021.000000 8323.000000 -1021.000000 C 8323.000000 -1002.666667 8323.000000 -984.333333 8323.000000 -966.000000 C 8164.333333 -966.000000 8005.666667 -966.000000 7847.000000 -966.000000 C 7847.000000 -984.333333 7847.000000 -1002.666667 7847.000000 -1021.000000z M 7860.000000 -1519.000000 C 8013.000000 -1519.000000 8166.000000 -1519.000000 8319.000000 -1519.000000 C 8319.000000 -1500.333333 8319.000000 -1481.666667 8319.000000 -1463.000000 C 8166.000000 -1463.000000 8013.000000 -1463.000000 7860.000000 -1463.000000 C 7860.000000 -1481.666667 7860.000000 -1500.333333 7860.000000 -1519.000000z M 7847.000000 -770.000000 C 8005.666667 -770.000000 8164.333333 -770.000000 8323.000000 -770.000000 C 8323.000000 -751.333333 8323.000000 -732.666667 8323.000000 -714.000000 C 8164.333333 -714.000000 8005.666667 -714.000000 7847.000000 -714.000000 C 7847.000000 -732.666667 7847.000000 -751.333333 7847.000000 -770.000000z M 7770.000000 -1275.000000 C 7971.000000 -1275.000000 8172.000000 -1275.000000 8373.000000 -1275.000000 C 8373.000000 -1255.666667 8373.000000 -1236.333333 8373.000000 -1217.000000 C 8172.000000 -1217.000000 7971.000000 -1217.000000 7770.000000 -1217.000000 C 7770.000000 -1236.333333 7770.000000 -1255.666667 7770.000000 -1275.000000z M 7876.000000 -518.000000 C 8025.000000 -518.000000 8174.000000 -518.000000 8323.000000 -518.000000 C 8323.000000 -339.000000 8323.000000 -160.000000 8323.000000 19.000000 C 8174.000000 19.000000 8025.000000 19.000000 7876.000000 19.000000 C 7876.000000 0.000000 7876.000000 -19.000000 7876.000000 -38.000000 C 8006.666667 -38.000000 8137.333333 -38.000000 8268.000000 -38.000000 C 8268.000000 -179.000000 8268.000000 -320.000000 8268.000000 -461.000000 C 8137.333333 -461.000000 8006.666667 -461.000000 7876.000000 -461.000000 C 7876.000000 -480.000000 7876.000000 -499.000000 7876.000000 -518.000000z M 7847.000000 -518.000000 C 7866.333333 -518.000000 7885.666667 -518.000000 7905.000000 -518.000000 C 7905.000000 -305.666667 7905.000000 -93.333333 7905.000000 119.000000 C 7885.666667 119.000000 7866.333333 119.000000 7847.000000 119.000000 C 7847.000000 -93.333333 7847.000000 -305.666667 7847.000000 -518.000000z "/>
</g></svg>
