<?xml version="1.0" encoding="utf-8"?>
<svg xmlns="http://www.w3.org/2000/svg" xmlns:ev="http://www.w3.org/2001/xml-events" xmlns:xlink="http://www.w3.org/1999/xlink" version="1.1" baseProfile="full" width="7240.0" height="1581.0" viewBox="244.0 -1498.0 7240.0 1581.0">
<defs/>
<g><path d="M 6119.000000 -1308.000000 C 6117.666667 -1300.000000 6116.333333 -1288.000000 6115.000000 -1272.000000 C 6113.666667 -1256.000000 6112.666667 -1238.666667 6112.000000 -1220.000000 C 6111.333333 -1201.333333 6110.333333 -1184.333333 6109.000000 -1169.000000 C 6108.333333 -1131.000000 6108.000000 -1084.000000 6108.000000 -1028.000000 C 6108.666667 -972.666667 6110.333333 -913.333333 6113.000000 -850.000000 C 6115.666667 -787.333333 6119.666667 -726.666667 6125.000000 -668.000000 C 6137.666667 -546.666667 6159.333333 -440.666667 6190.000000 -350.000000 C 6220.666667 -260.000000 6257.666667 -190.333333 6301.000000 -141.000000 C 6345.000000 -91.666667 6392.666667 -67.000000 6444.000000 -67.000000 C 6469.333333 -67.000000 6494.666667 -77.000000 6520.000000 -97.000000 C 6546.000000 -117.000000 6570.666667 -145.000000 6594.000000 -181.000000 C 6618.000000 -217.666667 6640.333333 -260.666667 6661.000000 -310.000000 C 6682.333333 -359.333333 6700.666667 -412.666667 6716.000000 -470.000000 C 6732.000000 -456.666667 6748.000000 -443.333333 6764.000000 -430.000000 C 6729.333333 -325.333333 6693.666667 -242.000000 6657.000000 -180.000000 C 6621.000000 -118.666667 6585.000000 -74.666667 6549.000000 -48.000000 C 6513.000000 -21.333333 6477.333333 -8.000000 6442.000000 -8.000000 C 6392.000000 -8.000000 6341.666667 -29.000000 6291.000000 -71.000000 C 6240.333333 -113.000000 6195.666667 -181.666667 6157.000000 -277.000000 C 6119.000000 -372.333333 6091.000000 -500.000000 6073.000000 -660.000000 C 6067.666667 -712.666667 6063.333333 -771.333333 6060.000000 -836.000000 C 6057.333333 -900.666667 6055.333333 -962.666667 6054.000000 -1022.000000 C 6052.666667 -1082.000000 6052.000000 -1129.333333 6052.000000 -1164.000000 C 6052.000000 -1181.333333 6051.666667 -1206.333333 6051.000000 -1239.000000 C 6050.333333 -1271.666667 6047.333333 -1295.666667 6042.000000 -1311.000000 C 6067.666667 -1310.000000 6093.333333 -1309.000000 6119.000000 -1308.000000z M 7158.000000 -1244.000000 C 7190.000000 -1199.333333 7220.666667 -1150.333333 7250.000000 -1097.000000 C 7279.333333 -1044.333333 7306.333333 -987.666667 7331.000000 -927.000000 C 7356.333333 -867.000000 7379.000000 -804.333333 7399.000000 -739.000000 C 7419.666667 -673.666667 7437.000000 -606.666667 7451.000000 -538.000000 C 7465.666667 -470.000000 7476.666667 -400.000000 7484.000000 -328.000000 C 7465.333333 -319.666667 7446.666667 -311.333333 7428.000000 -303.000000 C 7419.333333 -399.000000 7404.666667 -490.666667 7384.000000 -578.000000 C 7364.000000 -666.000000 7339.333333 -748.666667 7310.000000 -826.000000 C 7281.333333 -904.000000 7249.333333 -976.000000 7214.000000 -1042.000000 C 7179.333333 -1108.666667 7142.666667 -1168.333333 7104.000000 -1221.000000 C 7122.000000 -1228.666667 7140.000000 -1236.333333 7158.000000 -1244.000000z "/>
</g></svg>
