<?xml version="1.0" ?>
<svg xmlns="http://www.w3.org/2000/svg" version="1.1" width="600" height="600">
  <defs/>
  <g>
    <path stroke-width="0" fill="rgb(0, 0, 0)" opacity="1.0" d="M 237.6025390625 204.1192626953125 C 241.455078125 205.28900146484375 245.3076171875 206.458740234375 249.1611328125 207.62844848632812 C 239.94140625 218.77523803710938 229.4833984375 229.64678955078125 217.7861328125 240.24310302734375 C 206.2265625 250.70184326171875 194.1865234375 260.610107421875 181.6630859375 269.9678955078125 C 169.140625 279.1880798339844 156.8935546875 287.37615966796875 144.921875 294.5321044921875 C 144.37109375 293.7064208984375 143.4765625 292.74310302734375 142.23828125 291.6422119140625 C 141.1376953125 290.4036865234375 139.8994140625 289.23394775390625 138.5224609375 288.1330261230469 C 137.2841796875 287.0321044921875 136.1142578125 286.06878662109375 135.013671875 285.24310302734375 C 153.728515625 275.197265625 172.2373046875 263.0183410644531 190.5390625 248.7064208984375 C 208.978515625 234.25689697265625 224.666015625 219.39450073242188 237.6025390625 204.1192626953125M 343.4931640625 211.13763427734375 C 345.90234375 208.79815673828125 348.3095703125 206.458740234375 350.7177734375 204.1192626953125 C 363.9287109375 211.82568359375 377.4140625 220.49542236328125 391.17578125 230.12844848632812 C 405.07421875 239.761474609375 418.009765625 249.39450073242188 429.9814453125 259.02752685546875 C 442.091796875 268.6605529785156 452.0 277.33026123046875 459.705078125 285.03668212890625 C 457.0224609375 288.064208984375 454.3388671875 291.09173583984375 451.6552734375 294.1192626953125 C 444.0859375 286.13763427734375 434.31640625 277.261474609375 422.34375 267.4908447265625 C 410.509765625 257.7201843261719 397.7119140625 247.8807373046875 383.951171875 237.97247314453125 C 370.189453125 228.064208984375 356.7041015625 219.1192626953125 343.4931640625 211.13763427734375M 298.2880859375 254.48623657226562 C 287.2802734375 269.21099853515625 272.8310546875 284.83026123046875 254.94140625 301.34405517578125 C 237.0517578125 317.8577880859375 217.1669921875 333.958740234375 195.287109375 349.64678955078125 C 173.4072265625 365.197265625 150.9755859375 379.02752685546875 127.9951171875 391.1375732421875 C 127.4443359375 390.03668212890625 126.7568359375 389.00457763671875 125.931640625 388.041259765625 C 125.10546875 386.94036865234375 124.2109375 385.8394775390625 123.248046875 384.738525390625 C 122.421875 383.5 121.458984375 382.4678955078125 120.3583984375 381.6422119140625 C 143.6142578125 370.08258056640625 166.1826171875 356.52752685546875 188.0625 340.97705078125 C 210.080078125 325.28900146484375 230.1025390625 308.981689453125 248.12890625 292.0550537109375 C 266.2939453125 275.1284484863281 280.8115234375 258.7523193359375 291.6826171875 242.92660522460938 C 295.330078125 242.92660522460938 298.9765625 242.92660522460938 302.623046875 242.92660522460938 C 313.21875 255.31195068359375 325.603515625 267.9036865234375 339.7783203125 280.70184326171875 C 353.9521484375 293.5 368.951171875 305.88531494140625 384.7763671875 317.8577880859375 C 400.6015625 329.692626953125 416.7705078125 340.70184326171875 433.2841796875 350.88531494140625 C 449.7978515625 361.06884765625 465.69140625 369.87615966796875 480.9658203125 377.307373046875 C 480.0029296875 378.40826416015625 478.6953125 379.9908447265625 477.0439453125 382.0550537109375 C 475.53125 384.1192626953125 474.22265625 385.8394775390625 473.1220703125 387.215576171875 C 457.84765625 379.23394775390625 441.9541015625 370.1513671875 425.4404296875 359.9678955078125 C 409.0654296875 349.64678955078125 393.1015625 338.63763427734375 377.5517578125 326.94036865234375 C 362.001953125 315.10552978515625 347.4150390625 303.064208984375 333.7919921875 290.8165283203125 C 320.16796875 278.43121337890625 308.333984375 266.32110595703125 298.2880859375 254.48623657226562M 192.1904296875 349.85321044921875 C 263.3359375 349.85321044921875 334.4794921875 349.85321044921875 405.625 349.85321044921875 C 405.625 392.16973876953125 405.625 434.4862060546875 405.625 476.802734375 C 401.703125 476.802734375 397.7802734375 476.802734375 393.8583984375 476.802734375 C 393.8583984375 438.3394775390625 393.8583984375 399.87615966796875 393.8583984375 361.412841796875 C 330.4208984375 361.412841796875 266.9814453125 361.412841796875 203.5439453125 361.412841796875 C 203.5439453125 400.7706298828125 203.5439453125 440.12841796875 203.5439453125 479.4862060546875 C 199.759765625 479.4862060546875 195.974609375 479.4862060546875 192.1904296875 479.4862060546875 C 192.1904296875 436.2752685546875 192.1904296875 393.064208984375 192.1904296875 349.85321044921875M 197.970703125 452.238525390625 C 265.7431640625 452.238525390625 333.5166015625 452.238525390625 401.2900390625 452.238525390625 C 401.2900390625 456.02294921875 401.2900390625 459.807373046875 401.2900390625 463.59173583984375 C 333.5166015625 463.59173583984375 265.7431640625 463.59173583984375 197.970703125 463.59173583984375 C 197.970703125 459.807373046875 197.970703125 456.02294921875 197.970703125 452.238525390625M 292.302734375 121.55047607421875 C 296.29296875 121.55047607421875 300.2841796875 121.55047607421875 304.2744140625 121.55047607421875 C 304.2744140625 137.30734252929688 304.2744140625 153.064208984375 304.2744140625 168.82110595703125 C 300.2841796875 168.82110595703125 296.29296875 168.82110595703125 292.302734375 168.82110595703125 C 292.302734375 153.064208984375 292.302734375 137.30734252929688 292.302734375 121.55047607421875M 138.109375 163.24771118164062 C 245.4462890625 163.24771118164062 352.7822265625 163.24771118164062 460.1181640625 163.24771118164062 C 460.1181640625 182.78897094726562 460.1181640625 202.33029174804688 460.1181640625 221.87158203125 C 456.1279296875 221.87158203125 452.13671875 221.87158203125 448.146484375 221.87158203125 C 448.146484375 206.1834716796875 448.146484375 190.49542236328125 448.146484375 174.80734252929688 C 348.7919921875 174.80734252929688 249.4365234375 174.80734252929688 150.08203125 174.80734252929688 C 150.08203125 190.49542236328125 150.08203125 206.1834716796875 150.08203125 221.87158203125 C 146.091796875 221.87158203125 142.1005859375 221.87158203125 138.109375 221.87158203125 C 138.109375 202.33029174804688 138.109375 182.78897094726562 138.109375 163.24771118164062"/>
  </g>
</svg>
