<?xml version="1.0" ?>
<svg xmlns="http://www.w3.org/2000/svg" version="1.1" width="600" height="600">
  <defs/>
  <g>
    <path stroke-width="0" fill="rgb(0, 0, 0)" opacity="1.0" d="M 196.4219970703125 140.89419555664062 C 195.7320556640625 145.72454833984375 195.2490234375 150.140869140625 194.97314453125 154.1431884765625 C 194.6971435546875 158.00747680664062 194.4210205078125 162.63082885742188 194.1451416015625 168.01321411132812 C 193.8692626953125 179.6060791015625 193.3861083984375 194.09716796875 192.6961669921875 211.48648071289062 C 192.00634765625 228.87579345703125 191.4542236328125 247.5072021484375 191.040283203125 267.38067626953125 C 190.6263427734375 287.254150390625 190.2122802734375 307.26568603515625 189.79833984375 327.4151611328125 C 189.5224609375 347.564697265625 189.3843994140625 366.19610595703125 189.3843994140625 383.30938720703125 C 189.3843994140625 399.04254150390625 192.55810546875 411.6705322265625 198.9058837890625 421.1932373046875 C 205.253662109375 430.7159423828125 214.0850830078125 437.616455078125 225.4005126953125 441.894775390625 C 236.85400390625 446.0350341796875 250.0322265625 448.105224609375 264.935546875 448.105224609375 C 284.806396484375 448.105224609375 302.469482421875 445.6900634765625 317.9248046875 440.85968017578125 C 333.3798828125 435.891357421875 346.97216796875 429.40478515625 358.70166015625 421.4002685546875 C 370.56884765625 413.25762939453125 380.91845703125 404.2869873046875 389.75 394.48822021484375 C 398.719482421875 384.689453125 406.7919921875 374.8907470703125 413.9677734375 365.092041015625 C 416.86572265625 368.40423583984375 419.763427734375 371.71649169921875 422.6611328125 375.02874755859375 C 415.485595703125 384.27545166015625 407.068115234375 393.8671875 397.40869140625 403.80389404296875 C 387.7490234375 413.74066162109375 376.502685546875 422.9183349609375 363.66943359375 431.33697509765625 C 350.97412109375 439.6175537109375 336.3466796875 446.31109619140625 319.78759765625 451.41748046875 C 303.228515625 456.661865234375 284.530517578125 459.2840576171875 263.693359375 459.2840576171875 C 247.2724609375 459.2840576171875 232.576171875 456.7999267578125 219.6048583984375 451.83154296875 C 206.6334228515625 447.00115966796875 196.35302734375 438.78955078125 188.763427734375 427.1966552734375 C 181.1737060546875 415.4658203125 177.3790283203125 399.24957275390625 177.3790283203125 378.5479736328125 C 177.3790283203125 365.5750732421875 177.5169677734375 351.635986328125 177.79296875 336.73089599609375 C 178.0689697265625 321.687744140625 178.4830322265625 306.36859130859375 179.034912109375 290.7734375 C 179.5869140625 275.17828369140625 180.0009765625 259.9281005859375 180.27685546875 245.02301025390625 C 180.6907958984375 229.9798583984375 181.035888671875 215.83380126953125 181.311767578125 202.58480834960938 C 181.5877685546875 189.3358154296875 181.725830078125 177.81195068359375 181.725830078125 168.01321411132812 C 181.725830078125 162.63082885742188 181.5877685546875 157.7314453125 181.311767578125 153.31512451171875 C 181.035888671875 148.76077270507812 180.552734375 144.62045288085938 179.8629150390625 140.89419555664062 C 185.3826904296875 140.89419555664062 190.9022216796875 140.89419555664062 196.4219970703125 140.89419555664062"/>
  </g>
</svg>
