<?xml version="1.0" encoding="utf-8"?>
<svg xmlns="http://www.w3.org/2000/svg" xmlns:ev="http://www.w3.org/2001/xml-events" xmlns:xlink="http://www.w3.org/1999/xlink" version="1.1" baseProfile="full" width="16896.0" height="1920.0" viewBox="192.0 -1690.0 16896.0 1920.0">
<defs/>
<g><path d="M 192.000000 230.000000 C 192.000000 -410.000000 192.000000 -1050.000000 192.000000 -1690.000000 C 704.000000 -1690.000000 1216.000000 -1690.000000 1728.000000 -1690.000000 C 1728.000000 -1050.000000 1728.000000 -410.000000 1728.000000 230.000000 C 1216.000000 230.000000 704.000000 230.000000 192.000000 230.000000z M 960.000000 -808.000000 C 1163.666667 -1070.000000 1367.333333 -1332.000000 1571.000000 -1594.000000 C 1163.666667 -1594.000000 756.333333 -1594.000000 349.000000 -1594.000000 C 552.666667 -1332.000000 756.333333 -1070.000000 960.000000 -808.000000z M 1021.000000 -730.000000 C 1224.666667 -468.000000 1428.333333 -206.000000 1632.000000 56.000000 C 1632.000000 -467.666667 1632.000000 -991.333333 1632.000000 -1515.000000 C 1428.333333 -1253.333333 1224.666667 -991.666667 1021.000000 -730.000000z M 349.000000 134.000000 C 756.333333 134.000000 1163.666667 134.000000 1571.000000 134.000000 C 1367.333333 -127.666667 1163.666667 -389.333333 960.000000 -651.000000 C 756.333333 -389.333333 552.666667 -127.666667 349.000000 134.000000z M 288.000000 -1515.000000 C 288.000000 -991.333333 288.000000 -467.666667 288.000000 56.000000 C 491.666667 -206.000000 695.333333 -468.000000 899.000000 -730.000000 C 695.333333 -991.666667 491.666667 -1253.333333 288.000000 -1515.000000z "/>
</g></svg>
