<?xml version="1.0" encoding="utf-8"?>
<svg xmlns="http://www.w3.org/2000/svg" xmlns:ev="http://www.w3.org/2001/xml-events" xmlns:xlink="http://www.w3.org/1999/xlink" version="1.1" baseProfile="full" width="20873.0" height="1742.0" viewBox="84.0 -1596.0 20873.0 1742.0">
<defs/>
<g><path d="M 19413.000000 -1465.000000 C 19596.000000 -1465.000000 19779.000000 -1465.000000 19962.000000 -1465.000000 C 19962.000000 -1093.666667 19962.000000 -722.333333 19962.000000 -351.000000 C 19779.000000 -351.000000 19596.000000 -351.000000 19413.000000 -351.000000 C 19413.000000 -370.333333 19413.000000 -389.666667 19413.000000 -409.000000 C 19577.666667 -409.000000 19742.333333 -409.000000 19907.000000 -409.000000 C 19907.000000 -741.666667 19907.000000 -1074.333333 19907.000000 -1407.000000 C 19742.333333 -1407.000000 19577.666667 -1407.000000 19413.000000 -1407.000000 C 19413.000000 -1426.333333 19413.000000 -1445.666667 19413.000000 -1465.000000z M 19413.000000 -948.000000 C 19588.333333 -948.000000 19763.666667 -948.000000 19939.000000 -948.000000 C 19939.000000 -929.666667 19939.000000 -911.333333 19939.000000 -893.000000 C 19763.666667 -893.000000 19588.333333 -893.000000 19413.000000 -893.000000 C 19413.000000 -911.333333 19413.000000 -929.666667 19413.000000 -948.000000z M 20216.000000 -1507.000000 C 20450.666667 -1507.000000 20685.333333 -1507.000000 20920.000000 -1507.000000 C 20920.000000 -1488.666667 20920.000000 -1470.333333 20920.000000 -1452.000000 C 20685.333333 -1452.000000 20450.666667 -1452.000000 20216.000000 -1452.000000 C 20216.000000 -1470.333333 20216.000000 -1488.666667 20216.000000 -1507.000000z M 20216.000000 -1033.000000 C 20450.666667 -1033.000000 20685.333333 -1033.000000 20920.000000 -1033.000000 C 20920.000000 -1014.333333 20920.000000 -995.666667 20920.000000 -977.000000 C 20685.333333 -977.000000 20450.666667 -977.000000 20216.000000 -977.000000 C 20216.000000 -995.666667 20216.000000 -1014.333333 20216.000000 -1033.000000z M 20195.000000 -545.000000 C 20435.000000 -545.000000 20675.000000 -545.000000 20915.000000 -545.000000 C 20915.000000 -526.666667 20915.000000 -508.333333 20915.000000 -490.000000 C 20675.000000 -490.000000 20435.000000 -490.000000 20195.000000 -490.000000 C 20195.000000 -508.333333 20195.000000 -526.666667 20195.000000 -545.000000z M 19377.000000 -1465.000000 C 19396.000000 -1465.000000 19415.000000 -1465.000000 19434.000000 -1465.000000 C 19434.000000 -1029.666667 19434.000000 -594.333333 19434.000000 -159.000000 C 19415.000000 -159.000000 19396.000000 -159.000000 19377.000000 -159.000000 C 19377.000000 -594.333333 19377.000000 -1029.666667 19377.000000 -1465.000000z M 20899.000000 -1507.000000 C 20918.333333 -1507.000000 20937.666667 -1507.000000 20957.000000 -1507.000000 C 20957.000000 -998.333333 20957.000000 -489.666667 20957.000000 19.000000 C 20957.000000 49.666667 20951.666667 72.333333 20941.000000 87.000000 C 20931.000000 101.666667 20914.000000 112.333333 20890.000000 119.000000 C 20865.333333 124.333333 20827.333333 127.333333 20776.000000 128.000000 C 20725.333333 128.666667 20657.666667 129.000000 20573.000000 129.000000 C 20571.666667 123.666667 20569.666667 117.333333 20567.000000 110.000000 C 20564.333333 103.333333 20561.333333 96.333333 20558.000000 89.000000 C 20555.333333 82.333333 20552.000000 75.666667 20548.000000 69.000000 C 20596.666667 70.333333 20641.666667 71.000000 20683.000000 71.000000 C 20725.000000 71.000000 20760.666667 70.666667 20790.000000 70.000000 C 20819.333333 69.333333 20839.666667 69.000000 20851.000000 69.000000 C 20869.000000 67.666667 20881.333333 63.333333 20888.000000 56.000000 C 20895.333333 49.333333 20899.000000 37.666667 20899.000000 21.000000 C 20899.000000 -488.333333 20899.000000 -997.666667 20899.000000 -1507.000000z M 20185.000000 -1507.000000 C 20203.666667 -1507.000000 20222.333333 -1507.000000 20241.000000 -1507.000000 C 20241.000000 -1282.333333 20241.000000 -1057.666667 20241.000000 -833.000000 C 20241.000000 -755.000000 20236.666667 -672.666667 20228.000000 -586.000000 C 20220.000000 -500.000000 20203.000000 -413.666667 20177.000000 -327.000000 C 20151.666667 -241.000000 20113.666667 -157.666667 20063.000000 -77.000000 C 20012.333333 3.666667 19944.666667 78.000000 19860.000000 146.000000 C 19858.000000 140.666667 19854.666667 135.333333 19850.000000 130.000000 C 19845.333333 125.333333 19840.333333 120.333333 19835.000000 115.000000 C 19830.333333 110.333333 19826.000000 106.666667 19822.000000 104.000000 C 19904.000000 38.666667 19969.000000 -32.333333 20017.000000 -109.000000 C 20065.000000 -186.333333 20101.000000 -266.000000 20125.000000 -348.000000 C 20149.666667 -430.666667 20165.666667 -513.000000 20173.000000 -595.000000 C 20181.000000 -677.000000 20185.000000 -756.333333 20185.000000 -833.000000 C 20185.000000 -1057.666667 20185.000000 -1282.333333 20185.000000 -1507.000000z "/>
</g></svg>
