<?xml version="1.0" encoding="utf-8"?>
<svg xmlns="http://www.w3.org/2000/svg" xmlns:ev="http://www.w3.org/2001/xml-events" xmlns:xlink="http://www.w3.org/1999/xlink" version="1.1" baseProfile="full" width="49628.0" height="1744.0" viewBox="213.0 -1596.0 49628.0 1744.0">
<defs/>
<g><path d="M 30799.000000 -472.000000 C 30839.666667 -494.000000 30888.000000 -520.333333 30944.000000 -551.000000 C 31000.666667 -581.666667 31059.000000 -614.333333 31119.000000 -649.000000 C 31124.333333 -633.666667 31129.666667 -618.333333 31135.000000 -603.000000 C 31082.333333 -571.000000 31030.333333 -540.333333 30979.000000 -511.000000 C 30927.666667 -481.666667 30878.333333 -453.333333 30831.000000 -426.000000 C 30820.333333 -441.333333 30809.666667 -456.666667 30799.000000 -472.000000z M 30889.000000 -1236.000000 C 30922.333333 -1177.333333 30951.666667 -1114.000000 30977.000000 -1046.000000 C 31003.000000 -978.666667 31019.666667 -921.333333 31027.000000 -874.000000 C 31009.000000 -866.333333 30991.000000 -858.666667 30973.000000 -851.000000 C 30968.333333 -883.666667 30959.000000 -921.000000 30945.000000 -963.000000 C 30931.666667 -1005.666667 30915.666667 -1049.333333 30897.000000 -1094.000000 C 30879.000000 -1139.333333 30859.000000 -1181.000000 30837.000000 -1219.000000 C 30854.333333 -1224.666667 30871.666667 -1230.333333 30889.000000 -1236.000000z M 31809.000000 -1594.000000 C 31809.000000 -1520.333333 31809.000000 -1446.666667 31809.000000 -1373.000000 C 31789.666667 -1373.000000 31770.333333 -1373.000000 31751.000000 -1373.000000 C 31751.000000 -1446.666667 31751.000000 -1520.333333 31751.000000 -1594.000000 C 31770.333333 -1594.000000 31789.666667 -1594.000000 31809.000000 -1594.000000z M 31154.000000 -781.000000 C 31154.000000 -711.000000 31150.666667 -636.000000 31144.000000 -556.000000 C 31138.000000 -476.000000 31126.333333 -395.000000 31109.000000 -313.000000 C 31091.666667 -231.000000 31065.333333 -151.333333 31030.000000 -74.000000 C 30994.666667 3.333333 30948.333333 74.666667 30891.000000 140.000000 C 30888.333333 134.666667 30884.333333 129.666667 30879.000000 125.000000 C 30874.333333 121.000000 30869.333333 116.666667 30864.000000 112.000000 C 30858.666667 108.000000 30853.666667 104.666667 30849.000000 102.000000 C 30905.000000 38.000000 30949.333333 -30.666667 30982.000000 -104.000000 C 31014.666667 -178.000000 31039.333333 -254.000000 31056.000000 -332.000000 C 31072.666667 -410.000000 31083.333333 -487.000000 31088.000000 -563.000000 C 31093.333333 -639.666667 31096.000000 -712.333333 31096.000000 -781.000000 C 31096.000000 -989.000000 31096.000000 -1197.000000 31096.000000 -1405.000000 C 31115.333333 -1405.000000 31134.666667 -1405.000000 31154.000000 -1405.000000 C 31154.000000 -1197.000000 31154.000000 -989.000000 31154.000000 -781.000000z M 32527.000000 -1405.000000 C 32527.000000 -1386.666667 32527.000000 -1368.333333 32527.000000 -1350.000000 C 32061.000000 -1350.000000 31595.000000 -1350.000000 31129.000000 -1350.000000 C 31129.000000 -1368.333333 31129.000000 -1386.666667 31129.000000 -1405.000000 C 31595.000000 -1405.000000 32061.000000 -1405.000000 32527.000000 -1405.000000z M 32438.000000 -1068.000000 C 32442.666667 -1069.000000 32447.333333 -1070.000000 32452.000000 -1071.000000 C 32464.000000 -1065.333333 32476.000000 -1059.666667 32488.000000 -1054.000000 C 32468.000000 -1002.666667 32446.000000 -949.666667 32422.000000 -895.000000 C 32398.666667 -841.000000 32376.666667 -795.333333 32356.000000 -758.000000 C 32339.333333 -764.000000 32322.666667 -770.000000 32306.000000 -776.000000 C 32326.666667 -811.333333 32347.666667 -854.666667 32369.000000 -906.000000 C 32391.000000 -957.333333 32410.333333 -1006.666667 32427.000000 -1054.000000 C 32427.000000 -1058.666667 32427.000000 -1063.333333 32427.000000 -1068.000000 C 32430.666667 -1068.000000 32434.333333 -1068.000000 32438.000000 -1068.000000z M 31444.000000 -708.000000 C 31444.000000 -644.000000 31440.333333 -576.000000 31433.000000 -504.000000 C 31426.333333 -432.000000 31413.000000 -358.000000 31393.000000 -282.000000 C 31373.000000 -206.666667 31344.666667 -133.000000 31308.000000 -61.000000 C 31272.000000 10.333333 31224.333333 76.666667 31165.000000 138.000000 C 31164.333333 133.333333 31161.333333 128.666667 31156.000000 124.000000 C 31150.666667 119.333333 31145.000000 115.000000 31139.000000 111.000000 C 31133.666667 107.666667 31128.333333 104.666667 31123.000000 102.000000 C 31181.000000 42.000000 31227.000000 -22.333333 31261.000000 -91.000000 C 31295.666667 -159.666667 31322.000000 -229.666667 31340.000000 -301.000000 C 31358.000000 -373.000000 31370.000000 -443.666667 31376.000000 -513.000000 C 31382.666667 -583.000000 31386.000000 -648.666667 31386.000000 -710.000000 C 31386.000000 -829.333333 31386.000000 -948.666667 31386.000000 -1068.000000 C 31405.333333 -1068.000000 31424.666667 -1068.000000 31444.000000 -1068.000000 C 31444.000000 -948.000000 31444.000000 -828.000000 31444.000000 -708.000000z M 31605.000000 -666.000000 C 31677.000000 -466.666667 31792.000000 -303.000000 31950.000000 -175.000000 C 32108.000000 -47.000000 32301.000000 41.333333 32529.000000 90.000000 C 32522.333333 96.666667 32515.000000 104.666667 32507.000000 114.000000 C 32499.666667 124.000000 32494.000000 132.666667 32490.000000 140.000000 C 32339.333333 102.666667 32202.333333 49.000000 32079.000000 -21.000000 C 31956.333333 -91.666667 31850.333333 -179.000000 31761.000000 -283.000000 C 31672.333333 -387.666667 31602.333333 -509.000000 31551.000000 -647.000000 C 31569.000000 -653.333333 31587.000000 -659.666667 31605.000000 -666.000000z M 32298.000000 -684.000000 C 32302.000000 -685.000000 32306.000000 -686.000000 32310.000000 -687.000000 C 32322.666667 -680.000000 32335.333333 -673.000000 32348.000000 -666.000000 C 32310.000000 -553.333333 32258.333333 -452.333333 32193.000000 -363.000000 C 32127.666667 -274.333333 32052.666667 -197.333333 31968.000000 -132.000000 C 31883.333333 -67.333333 31793.333333 -12.666667 31698.000000 32.000000 C 31602.666667 77.333333 31505.666667 113.333333 31407.000000 140.000000 C 31405.000000 132.666667 31400.333333 124.000000 31393.000000 114.000000 C 31385.666667 104.666667 31379.000000 96.666667 31373.000000 90.000000 C 31467.666667 67.333333 31561.666667 34.666667 31655.000000 -8.000000 C 31748.333333 -51.333333 31836.333333 -104.333333 31919.000000 -167.000000 C 32001.666667 -229.666667 32075.000000 -303.000000 32139.000000 -387.000000 C 32203.000000 -471.000000 32252.333333 -565.333333 32287.000000 -670.000000 C 32287.000000 -674.666667 32287.000000 -679.333333 32287.000000 -684.000000 C 32290.666667 -684.000000 32294.333333 -684.000000 32298.000000 -684.000000z M 31935.000000 -1284.000000 C 31935.000000 -1071.666667 31935.000000 -859.333333 31935.000000 -647.000000 C 31916.666667 -647.000000 31898.333333 -647.000000 31880.000000 -647.000000 C 31880.000000 -859.333333 31880.000000 -1071.666667 31880.000000 -1284.000000 C 31898.333333 -1284.000000 31916.666667 -1284.000000 31935.000000 -1284.000000z M 32440.000000 -1068.000000 C 32440.000000 -1048.666667 32440.000000 -1029.333333 32440.000000 -1010.000000 C 32098.333333 -1010.000000 31756.666667 -1010.000000 31415.000000 -1010.000000 C 31415.000000 -1029.333333 31415.000000 -1048.666667 31415.000000 -1068.000000 C 31756.666667 -1068.000000 32098.333333 -1068.000000 32440.000000 -1068.000000z M 32304.000000 -684.000000 C 32304.000000 -665.333333 32304.000000 -646.666667 32304.000000 -628.000000 C 32007.666667 -628.000000 31711.333333 -628.000000 31415.000000 -628.000000 C 31415.000000 -646.666667 31415.000000 -665.333333 31415.000000 -684.000000 C 31711.333333 -684.000000 32007.666667 -684.000000 32304.000000 -684.000000z "/>
</g></svg>
