<?xml version="1.0" encoding="utf-8"?>
<svg xmlns="http://www.w3.org/2000/svg" xmlns:ev="http://www.w3.org/2001/xml-events" xmlns:xlink="http://www.w3.org/1999/xlink" version="1.1" baseProfile="full" width="17098.0" height="1737.3" viewBox="90.0 -1596.0 17098.0 1737.3">
<defs/>
<g><path d="M 6820.000000 -1596.000000 C 6838.666667 -1592.000000 6857.333333 -1588.000000 6876.000000 -1584.000000 C 6851.333333 -1480.000000 6820.666667 -1380.333333 6784.000000 -1285.000000 C 6748.000000 -1189.666667 6706.666667 -1101.333333 6660.000000 -1020.000000 C 6614.000000 -939.333333 6563.000000 -867.333333 6507.000000 -804.000000 C 6504.333333 -808.000000 6500.000000 -812.333333 6494.000000 -817.000000 C 6488.666667 -821.666667 6482.666667 -826.000000 6476.000000 -830.000000 C 6470.000000 -834.666667 6464.333333 -838.333333 6459.000000 -841.000000 C 6515.000000 -901.000000 6565.666667 -970.333333 6611.000000 -1049.000000 C 6657.000000 -1127.666667 6697.333333 -1213.333333 6732.000000 -1306.000000 C 6767.333333 -1399.333333 6796.666667 -1496.000000 6820.000000 -1596.000000z M 7500.000000 -1250.000000 C 7519.000000 -1250.000000 7538.000000 -1250.000000 7557.000000 -1250.000000 C 7557.000000 -1250.000000 7557.000000 -1247.000000 7557.000000 -1241.000000 C 7557.000000 -1235.666667 7557.000000 -1229.333333 7557.000000 -1222.000000 C 7557.000000 -1215.333333 7556.333333 -1210.000000 7555.000000 -1206.000000 C 7542.333333 -983.333333 7529.666667 -796.000000 7517.000000 -644.000000 C 7504.333333 -492.666667 7490.666667 -369.000000 7476.000000 -273.000000 C 7462.000000 -177.000000 7446.666667 -102.666667 7430.000000 -50.000000 C 7413.333333 2.666667 7395.000000 40.333333 7375.000000 63.000000 C 7358.333333 83.666667 7341.000000 97.000000 7323.000000 103.000000 C 7305.000000 109.666667 7282.666667 113.666667 7256.000000 115.000000 C 7231.333333 116.333333 7199.000000 116.333333 7159.000000 115.000000 C 7119.666667 113.666667 7079.000000 111.333333 7037.000000 108.000000 C 7035.666667 97.333333 7034.000000 86.666667 7032.000000 76.000000 C 7030.000000 65.333333 7026.000000 56.000000 7020.000000 48.000000 C 7070.666667 52.000000 7116.666667 54.666667 7158.000000 56.000000 C 7200.000000 57.333333 7230.000000 58.000000 7248.000000 58.000000 C 7266.000000 58.000000 7280.666667 56.333333 7292.000000 53.000000 C 7303.333333 49.666667 7314.333333 42.333333 7325.000000 31.000000 C 7343.000000 11.666667 7360.000000 -24.333333 7376.000000 -77.000000 C 7392.000000 -130.333333 7407.000000 -206.000000 7421.000000 -304.000000 C 7435.000000 -402.000000 7448.333333 -526.666667 7461.000000 -678.000000 C 7473.666667 -830.000000 7486.666667 -1015.000000 7500.000000 -1233.000000 C 7500.000000 -1238.666667 7500.000000 -1244.333333 7500.000000 -1250.000000z M 6735.000000 -1250.000000 C 6995.666667 -1250.000000 7256.333333 -1250.000000 7517.000000 -1250.000000 C 7517.000000 -1230.666667 7517.000000 -1211.333333 7517.000000 -1192.000000 C 7250.666667 -1192.000000 6984.333333 -1192.000000 6718.000000 -1192.000000 C 6723.666667 -1211.333333 6729.333333 -1230.666667 6735.000000 -1250.000000z M 6991.000000 -1235.000000 C 7008.333333 -1226.000000 7025.666667 -1217.000000 7043.000000 -1208.000000 C 7013.000000 -1091.333333 6972.333333 -973.666667 6921.000000 -855.000000 C 6870.333333 -737.000000 6811.666667 -628.000000 6745.000000 -528.000000 C 6678.333333 -428.000000 6606.666667 -346.666667 6530.000000 -284.000000 C 6523.333333 -290.666667 6515.333333 -297.333333 6506.000000 -304.000000 C 6497.333333 -311.333333 6488.666667 -317.666667 6480.000000 -323.000000 C 6536.000000 -367.666667 6590.333333 -423.333333 6643.000000 -490.000000 C 6695.666667 -557.333333 6744.000000 -632.000000 6788.000000 -714.000000 C 6832.000000 -796.000000 6871.333333 -881.333333 6906.000000 -970.000000 C 6940.666667 -1059.333333 6969.000000 -1147.666667 6991.000000 -1235.000000z M 7271.000000 -1235.000000 C 7289.000000 -1226.666667 7307.000000 -1218.333333 7325.000000 -1210.000000 C 7300.333333 -1076.666667 7267.333333 -944.666667 7226.000000 -814.000000 C 7185.333333 -683.333333 7137.333333 -559.333333 7082.000000 -442.000000 C 7027.333333 -325.333333 6965.333333 -219.333333 6896.000000 -124.000000 C 6827.333333 -28.666667 6751.333333 51.000000 6668.000000 115.000000 C 6662.000000 109.000000 6653.666667 102.000000 6643.000000 94.000000 C 6633.000000 86.666667 6622.666667 80.333333 6612.000000 75.000000 C 6695.333333 15.000000 6772.000000 -61.666667 6842.000000 -155.000000 C 6912.666667 -249.000000 6975.666667 -354.000000 7031.000000 -470.000000 C 7086.333333 -586.666667 7134.000000 -710.333333 7174.000000 -841.000000 C 7214.666667 -971.666667 7247.000000 -1103.000000 7271.000000 -1235.000000z M 5844.000000 -511.000000 C 5903.333333 -527.666667 5970.666667 -547.333333 6046.000000 -570.000000 C 6121.333333 -593.333333 6201.666667 -618.666667 6287.000000 -646.000000 C 6372.333333 -673.333333 6457.666667 -700.666667 6543.000000 -728.000000 C 6545.666667 -711.333333 6548.333333 -694.666667 6551.000000 -678.000000 C 6429.666667 -638.000000 6308.333333 -598.000000 6187.000000 -558.000000 C 6066.333333 -518.666667 5959.333333 -483.666667 5866.000000 -453.000000 C 5858.666667 -472.333333 5851.333333 -491.666667 5844.000000 -511.000000z M 6217.000000 -1592.000000 C 6236.333333 -1592.000000 6255.666667 -1592.000000 6275.000000 -1592.000000 C 6275.000000 -1016.666667 6275.000000 -441.333333 6275.000000 134.000000 C 6255.666667 134.000000 6236.333333 134.000000 6217.000000 134.000000 C 6217.000000 -441.333333 6217.000000 -1016.666667 6217.000000 -1592.000000z M 5994.000000 -1482.000000 C 6013.333333 -1479.666667 6032.666667 -1477.333333 6052.000000 -1475.000000 C 6041.333333 -1389.000000 6028.333333 -1304.666667 6013.000000 -1222.000000 C 5997.666667 -1139.333333 5980.333333 -1061.666667 5961.000000 -989.000000 C 5942.333333 -917.000000 5920.000000 -852.333333 5894.000000 -795.000000 C 5890.666667 -797.666667 5885.333333 -800.333333 5878.000000 -803.000000 C 5871.333333 -806.333333 5864.333333 -809.666667 5857.000000 -813.000000 C 5849.666667 -816.333333 5843.666667 -818.666667 5839.000000 -820.000000 C 5867.000000 -877.333333 5890.666667 -941.666667 5910.000000 -1013.000000 C 5929.333333 -1085.000000 5946.000000 -1161.000000 5960.000000 -1241.000000 C 5974.000000 -1321.000000 5985.333333 -1401.333333 5994.000000 -1482.000000z M 5967.000000 -1179.000000 C 6148.333333 -1179.000000 6329.666667 -1179.000000 6511.000000 -1179.000000 C 6511.000000 -1159.666667 6511.000000 -1140.333333 6511.000000 -1121.000000 C 6328.666667 -1121.000000 6146.333333 -1121.000000 5964.000000 -1121.000000 C 5965.000000 -1140.333333 5966.000000 -1159.666667 5967.000000 -1179.000000z "/>
</g></svg>
