<?xml version="1.0" ?>
<svg xmlns="http://www.w3.org/2000/svg" version="1.1" width="600" height="600">
  <defs/>
  <g>
    <path stroke-width="0" fill="rgb(0, 0, 0)" opacity="1.0" d="M 188.77734375 254.27978515625 C 259.086181640625 254.27978515625 329.3955078125 254.27978515625 399.704345703125 254.27978515625 C 399.704345703125 258.0794372558594 399.704345703125 261.87908935546875 399.704345703125 265.67877197265625 C 329.3955078125 265.67877197265625 259.086181640625 265.67877197265625 188.77734375 265.67877197265625 C 188.77734375 261.87908935546875 188.77734375 258.0794372558594 188.77734375 254.27978515625M 126.410888671875 346.09326171875 C 242.30322265625 346.09326171875 358.19580078125 346.09326171875 474.08837890625 346.09326171875 C 474.08837890625 350.10015869140625 474.08837890625 354.1070556640625 474.08837890625 358.114013671875 C 358.19580078125 358.114013671875 242.30322265625 358.114013671875 126.410888671875 358.114013671875 C 126.410888671875 354.1070556640625 126.410888671875 350.10015869140625 126.410888671875 346.09326171875M 293.412109375 313.96893310546875 C 297.417724609375 313.96893310546875 301.423828125 313.96893310546875 305.429443359375 313.96893310546875 C 305.429443359375 362.46630859375 305.429443359375 410.9637451171875 305.429443359375 459.461181640625 C 305.429443359375 465.40240478515625 304.324462890625 469.6856689453125 302.1142578125 472.3109130859375 C 300.04248046875 474.93609619140625 296.3818359375 476.8013916015625 291.1328125 477.90673828125 C 286.02197265625 478.8739013671875 278.010498046875 479.4957275390625 267.097900390625 479.77203369140625 C 256.32373046875 480.04833984375 241.267333984375 480.1865234375 221.928955078125 480.1865234375 C 221.376220703125 478.6666259765625 220.478515625 476.8013916015625 219.2353515625 474.5906982421875 C 217.9921875 472.51812744140625 216.7490234375 470.583740234375 215.505859375 468.78759765625 C 227.385009765625 469.06390380859375 237.9521484375 469.20208740234375 247.20703125 469.20208740234375 C 256.599853515625 469.3402099609375 264.404296875 469.3402099609375 270.620361328125 469.20208740234375 C 276.836181640625 469.20208740234375 281.25634765625 469.06390380859375 283.881103515625 468.78759765625 C 287.88671875 468.23486328125 290.4423828125 467.3367919921875 291.54736328125 466.09326171875 C 292.79052734375 464.9879150390625 293.412109375 462.9154052734375 293.412109375 459.8756103515625 C 293.412109375 411.24005126953125 293.412109375 362.6044921875 293.412109375 313.96893310546875M 396.8037109375 254.27978515625 C 397.770751953125 254.27978515625 398.737548828125 254.27978515625 399.704345703125 254.27978515625 C 400.602294921875 254.00347900390625 401.500244140625 253.72711181640625 402.39794921875 253.45077514648438 C 405.229736328125 255.4542236328125 408.061279296875 257.4576721191406 410.89306640625 259.46112060546875 C 402.052490234375 267.88946533203125 391.5546875 276.11053466796875 379.399169921875 284.12432861328125 C 367.243408203125 292.0 354.535400390625 299.25390625 341.274658203125 305.885986328125 C 328.15234375 312.51812744140625 315.51318359375 318.252197265625 303.357666015625 323.08807373046875 C 302.252685546875 321.7064208984375 300.940185546875 320.393798828125 299.4208984375 319.1502685546875 C 298.039306640625 317.7685546875 296.727294921875 316.5250244140625 295.484130859375 315.419677734375 C 307.6396484375 310.998291015625 320.071533203125 305.60968017578125 332.779541015625 299.25390625 C 345.487548828125 292.8981018066406 357.505126953125 286.0587158203125 368.83203125 278.7357482910156 C 380.158935546875 271.41278076171875 389.482666015625 264.15887451171875 396.8037109375 256.9740905761719 C 396.8037109375 256.07598876953125 396.8037109375 255.17788696289062 396.8037109375 254.27978515625M 137.392333984375 190.65283203125 C 246.58544921875 190.65283203125 355.778564453125 190.65283203125 464.9716796875 190.65283203125 C 464.9716796875 217.38861083984375 464.9716796875 244.12432861328125 464.9716796875 270.860107421875 C 460.9658203125 270.860107421875 456.9599609375 270.860107421875 452.9541015625 270.860107421875 C 452.9541015625 248.06219482421875 452.9541015625 225.26425170898438 452.9541015625 202.46630859375 C 351.772705078125 202.46630859375 250.591064453125 202.46630859375 149.40966796875 202.46630859375 C 149.40966796875 225.26425170898438 149.40966796875 248.06219482421875 149.40966796875 270.860107421875 C 145.404052734375 270.860107421875 141.39794921875 270.860107421875 137.392333984375 270.860107421875 C 137.392333984375 244.12432861328125 137.392333984375 217.38861083984375 137.392333984375 190.65283203125M 430.7841796875 123.7098388671875 C 434.306396484375 125.71328735351562 437.828857421875 127.71676635742188 441.35107421875 129.72021484375 C 433.75390625 141.05007934570312 424.91357421875 152.86355590820312 414.829833984375 165.16061401367188 C 404.74609375 177.31951904296875 395.42236328125 187.75128173828125 386.858154296875 196.45596313476562 C 384.095703125 194.52157592773438 381.332763671875 192.58721923828125 378.5703125 190.65283203125 C 384.095703125 184.71157836914062 390.104248046875 177.8031005859375 396.596435546875 169.92745971679688 C 403.088623046875 161.91363525390625 409.373779296875 153.89981079101562 415.451416015625 145.88601684570312 C 421.66748046875 137.7340087890625 426.7783203125 130.34197998046875 430.7841796875 123.7098388671875M 165.364013671875 132.0 C 168.541015625 130.27285766601562 171.718017578125 128.5457763671875 174.89501953125 126.81866455078125 C 183.044677734375 135.93780517578125 190.918212890625 145.88601684570312 198.515625 156.6632080078125 C 206.11279296875 167.30224609375 211.637939453125 176.628662109375 215.09130859375 184.64248657226562 C 211.91455078125 186.64593505859375 208.7373046875 188.6494140625 205.560302734375 190.65283203125 C 201.830810546875 182.6390380859375 196.09814453125 173.1744384765625 188.36279296875 162.25906372070312 C 180.765625 151.20550537109375 173.099365234375 141.11917114257812 165.364013671875 132.0M 269.58447265625 123.7098388671875 C 272.76123046875 122.535400390625 275.9384765625 121.3609619140625 279.115478515625 120.1865234375 C 286.29833984375 130.27285766601562 293.135986328125 141.3955078125 299.6279296875 153.55441284179688 C 306.1201171875 165.71328735351562 310.54052734375 176.21417236328125 312.888671875 185.0570068359375 C 309.573486328125 186.50778198242188 306.25830078125 187.95855712890625 302.943115234375 189.40933227539062 C 300.318603515625 180.42831420898438 295.8984375 169.789306640625 289.6826171875 157.49221801757812 C 283.466552734375 145.05697631835938 276.767333984375 133.79620361328125 269.58447265625 123.7098388671875"/>
  </g>
</svg>
