<?xml version="1.0" encoding="utf-8"?>
<svg xmlns="http://www.w3.org/2000/svg" xmlns:ev="http://www.w3.org/2001/xml-events" xmlns:xlink="http://www.w3.org/1999/xlink" version="1.1" baseProfile="full" width="20873.0" height="1742.0" viewBox="84.0 -1596.0 20873.0 1742.0">
<defs/>
<g><path d="M 4610.000000 23.000000 C 4969.000000 23.000000 5328.000000 23.000000 5687.000000 23.000000 C 5687.000000 41.666667 5687.000000 60.333333 5687.000000 79.000000 C 5328.000000 79.000000 4969.000000 79.000000 4610.000000 79.000000 C 4610.000000 60.333333 4610.000000 41.666667 4610.000000 23.000000z M 4683.000000 -933.000000 C 5005.666667 -933.000000 5328.333333 -933.000000 5651.000000 -933.000000 C 5651.000000 -914.333333 5651.000000 -895.666667 5651.000000 -877.000000 C 5328.333333 -877.000000 5005.666667 -877.000000 4683.000000 -877.000000 C 4683.000000 -895.666667 4683.000000 -914.333333 4683.000000 -933.000000z M 5140.000000 -1584.000000 C 5159.000000 -1584.000000 5178.000000 -1584.000000 5197.000000 -1584.000000 C 5197.000000 -1039.333333 5197.000000 -494.666667 5197.000000 50.000000 C 5178.000000 50.000000 5159.000000 50.000000 5140.000000 50.000000 C 5140.000000 -494.666667 5140.000000 -1039.333333 5140.000000 -1584.000000z M 3955.000000 -1229.000000 C 4170.000000 -1229.000000 4385.000000 -1229.000000 4600.000000 -1229.000000 C 4600.000000 -1210.333333 4600.000000 -1191.666667 4600.000000 -1173.000000 C 4385.000000 -1173.000000 4170.000000 -1173.000000 3955.000000 -1173.000000 C 3955.000000 -1191.666667 3955.000000 -1210.333333 3955.000000 -1229.000000z M 4287.000000 -735.000000 C 4306.333333 -757.666667 4325.666667 -780.333333 4345.000000 -803.000000 C 4345.000000 -490.666667 4345.000000 -178.333333 4345.000000 134.000000 C 4325.666667 134.000000 4306.333333 134.000000 4287.000000 134.000000 C 4287.000000 -155.666667 4287.000000 -445.333333 4287.000000 -735.000000z M 4287.000000 -1596.000000 C 4306.333333 -1596.000000 4325.666667 -1596.000000 4345.000000 -1596.000000 C 4345.000000 -1462.666667 4345.000000 -1329.333333 4345.000000 -1196.000000 C 4325.666667 -1196.000000 4306.333333 -1196.000000 4287.000000 -1196.000000 C 4287.000000 -1329.333333 4287.000000 -1462.666667 4287.000000 -1596.000000z M 4343.000000 -793.000000 C 4358.333333 -781.666667 4382.333333 -762.000000 4415.000000 -734.000000 C 4447.666667 -706.666667 4482.666667 -677.000000 4520.000000 -645.000000 C 4558.000000 -613.000000 4593.000000 -583.333333 4625.000000 -556.000000 C 4657.000000 -529.333333 4680.000000 -509.666667 4694.000000 -497.000000 C 4682.000000 -481.000000 4670.000000 -465.000000 4658.000000 -449.000000 C 4641.333333 -465.666667 4617.333333 -488.000000 4586.000000 -516.000000 C 4554.666667 -544.666667 4520.666667 -575.000000 4484.000000 -607.000000 C 4447.333333 -639.000000 4412.666667 -668.666667 4380.000000 -696.000000 C 4348.000000 -723.333333 4323.000000 -743.333333 4305.000000 -756.000000 C 4317.666667 -768.333333 4330.333333 -780.666667 4343.000000 -793.000000z M 4577.000000 -1229.000000 C 4581.666667 -1229.000000 4586.333333 -1229.000000 4591.000000 -1229.000000 C 4595.333333 -1230.333333 4599.666667 -1231.666667 4604.000000 -1233.000000 C 4615.666667 -1225.333333 4627.333333 -1217.666667 4639.000000 -1210.000000 C 4591.666667 -1099.333333 4529.000000 -993.333333 4451.000000 -892.000000 C 4373.666667 -791.333333 4290.000000 -699.333333 4200.000000 -616.000000 C 4110.000000 -533.333333 4021.333333 -462.333333 3934.000000 -403.000000 C 3931.333333 -408.333333 3927.333333 -413.333333 3922.000000 -418.000000 C 3917.333333 -423.333333 3912.666667 -428.333333 3908.000000 -433.000000 C 3903.333333 -437.666667 3898.666667 -441.333333 3894.000000 -444.000000 C 3980.666667 -498.666667 4068.000000 -566.666667 4156.000000 -648.000000 C 4244.666667 -729.333333 4326.333333 -818.666667 4401.000000 -916.000000 C 4476.333333 -1013.333333 4535.000000 -1112.000000 4577.000000 -1212.000000 C 4577.000000 -1217.666667 4577.000000 -1223.333333 4577.000000 -1229.000000z "/>
</g></svg>
