<?xml version="1.0" ?>
<svg xmlns="http://www.w3.org/2000/svg" version="1.1" width="600" height="600">
  <defs/>
  <g>
    <path stroke-width="0" fill="rgb(0, 0, 0)" opacity="1.0" d="M 129.5838623046875 333.50457763671875 C 133.5745849609375 330.61468505859375 137.4276123046875 327.44952392578125 141.14306640625 324.0091552734375 C 144.858642578125 320.56878662109375 148.9180908203125 316.5780029296875 153.3216552734375 312.03668212890625 C 159.3765869140625 305.981689453125 165.9129638671875 298.75689697265625 172.93115234375 290.36236572265625 C 179.94921875 281.83026123046875 187.24267578125 272.7477111816406 194.8111572265625 263.11468505859375 C 202.3797607421875 253.48162841796875 209.6043701171875 244.19265747070312 216.48486328125 235.24771118164062 C 223.5029296875 226.30276489257812 229.8331298828125 218.38992309570312 235.47509765625 211.5091552734375 C 244.695068359375 200.087158203125 253.6396484375 193.68804931640625 262.30908203125 192.31195068359375 C 271.1162109375 190.79815673828125 281.29931640625 196.37155151367188 292.858642578125 209.0321044921875 C 299.7392578125 216.46331787109375 307.37646484375 225.2706298828125 315.770751953125 235.45413208007812 C 324.302734375 245.63763427734375 333.24755859375 256.1651306152344 342.60498046875 267.03668212890625 C 351.96240234375 277.7706298828125 361.18212890625 288.02294921875 370.2646484375 297.7935791015625 C 375.76904296875 304.12384033203125 382.51171875 311.62384033203125 390.4931640625 320.2935791015625 C 398.6123046875 328.82568359375 407.28173828125 337.7706298828125 416.501708984375 347.12841796875 C 425.7216796875 356.4862060546875 435.01025390625 365.843994140625 444.36767578125 375.20184326171875 C 453.86279296875 384.4219970703125 462.8076171875 392.7476806640625 471.201904296875 400.17889404296875 C 468.036865234375 403.6192626953125 464.87158203125 407.05963134765625 461.706787109375 410.5 C 451.11083984375 400.4541015625 439.96435546875 389.37615966796875 428.267333984375 377.26605224609375 C 416.7080078125 365.018310546875 405.28662109375 352.70184326171875 394.00244140625 340.3165283203125 C 382.85595703125 327.7935791015625 372.3974609375 316.302734375 362.627197265625 305.84405517578125 C 353.6826171875 296.0733642578125 344.462646484375 285.61468505859375 334.967529296875 274.4678955078125 C 325.60986328125 263.32110595703125 316.734130859375 252.7935791015625 308.33984375 242.88531494140625 C 299.945556640625 232.97705078125 292.65234375 224.72018432617188 286.459716796875 218.11468505859375 C 279.8544921875 210.82110595703125 274.28125 206.3486328125 269.740234375 204.697265625 C 265.336669921875 202.90826416015625 261.139404296875 203.32110595703125 257.148681640625 205.935791015625 C 253.2955322265625 208.55044555664062 248.6856689453125 213.02294921875 243.31884765625 219.35321044921875 C 238.0897216796875 225.958740234375 231.966064453125 233.66513061523438 224.9478759765625 242.47247314453125 C 217.9298095703125 251.1422119140625 210.636474609375 260.1559753417969 203.06787109375 269.5137634277344 C 195.6368408203125 278.8715515136719 188.343505859375 288.02294921875 181.187744140625 296.9678955078125 C 174.031982421875 305.7752685546875 167.5643310546875 313.481689453125 161.78466796875 320.087158203125 C 158.344482421875 324.35321044921875 154.5601806640625 328.6881103515625 150.4317626953125 333.09173583984375 C 146.303466796875 337.3577880859375 142.9320068359375 341.0733642578125 140.3173828125 344.238525390625 C 136.739501953125 340.6605224609375 133.1617431640625 337.08258056640625 129.5838623046875 333.50457763671875"/>
  </g>
</svg>
