<?xml version="1.0" ?>
<svg xmlns="http://www.w3.org/2000/svg" version="1.1" width="600" height="600">
  <defs/>
  <g>
    <path stroke-width="0" fill="rgb(0, 0, 0)" opacity="1.0" d="M 235.3330078125 146.0 C 235.46875 149.10812377929688 236.076171875 152.62161254882812 237.1572265625 156.54055786132812 C 238.23828125 160.32431030273438 239.38671875 165.12164306640625 240.603515625 170.93243408203125 C 243.576171875 180.93243408203125 247.15625 193.70269775390625 251.345703125 209.24322509765625 C 255.669921875 224.64865112304688 260.263671875 241.270263671875 265.12890625 259.10809326171875 C 270.12890625 276.810791015625 275.12890625 294.7162170410156 280.12890625 312.8243408203125 C 285.263671875 330.79730224609375 289.9931640625 347.689208984375 294.31640625 363.5 C 298.7763671875 379.310791015625 302.560546875 392.89190673828125 305.66796875 404.2432861328125 C 308.775390625 415.45947265625 311.005859375 423.16217041015625 312.357421875 427.351318359375 C 313.0322265625 429.9189453125 313.775390625 432.5540771484375 314.5859375 435.2567138671875 C 315.3974609375 437.95947265625 316.275390625 440.729736328125 317.2216796875 443.56756591796875 C 318.302734375 446.270263671875 319.248046875 448.9053955078125 320.05859375 451.47296142578125 C 315.26171875 452.7567138671875 310.46484375 454.04052734375 305.66796875 455.3243408203125 C 305.126953125 451.6756591796875 304.384765625 447.689208984375 303.4384765625 443.3648681640625 C 302.626953125 438.9053955078125 301.546875 434.7161865234375 300.1953125 430.79730224609375 C 299.2490234375 426.87841796875 297.2900390625 419.7161865234375 294.31640625 409.310791015625 C 291.4794921875 398.770263671875 288.033203125 386.0 283.9794921875 371.0 C 280.060546875 355.8648681640625 275.736328125 339.851318359375 271.0078125 322.95947265625 C 266.412109375 305.93243408203125 261.75 289.04052734375 257.021484375 272.2837829589844 C 252.42578125 255.52703857421875 248.169921875 240.12161254882812 244.251953125 226.06756591796875 C 240.3330078125 211.87838745117188 237.08984375 200.12164306640625 234.521484375 190.79730224609375 C 231.9541015625 181.33786010742188 230.265625 175.729736328125 229.455078125 173.97296142578125 C 227.5625 168.29730224609375 225.873046875 163.5 224.38671875 159.58108520507812 C 223.03515625 155.66217041015625 221.751953125 152.41891479492188 220.5361328125 149.85134887695312 C 225.46875 148.56756591796875 230.400390625 147.28378295898438 235.3330078125 146.0M 458.703125 201.94595336914062 C 453.97265625 211.270263671875 447.689453125 221.67568969726562 439.8515625 233.16217041015625 C 432.1494140625 244.51351928710938 423.5693359375 256.06756591796875 414.109375 267.8243408203125 C 404.650390625 279.4459228515625 395.19140625 290.39190673828125 385.732421875 300.66217041015625 C 376.2734375 310.93243408203125 367.625 319.5810546875 359.787109375 326.60809326171875 C 355.53125 324.37841796875 351.2744140625 322.148681640625 347.017578125 319.9189453125 C 355.53125 313.16217041015625 364.44921875 305.0540771484375 373.7734375 295.5946044921875 C 383.09765625 286.1351318359375 392.083984375 276.1351318359375 400.732421875 265.5946044921875 C 409.515625 255.0540771484375 417.419921875 244.91891479492188 424.447265625 235.189208984375 C 431.474609375 225.45947265625 437.013671875 217.0810546875 441.068359375 210.0540771484375 C 438.5 210.5946044921875 431.8115234375 211.94595336914062 421.001953125 214.10809326171875 C 410.326171875 216.1351318359375 396.7451171875 218.770263671875 380.259765625 222.01351928710938 C 363.7734375 225.25677490234375 345.9375 228.770263671875 326.748046875 232.5540771484375 C 307.5595703125 236.33782958984375 288.236328125 240.12161254882812 268.77734375 243.9053955078125 C 249.318359375 247.5540771484375 231.076171875 251.06756591796875 214.0498046875 254.44595336914062 C 197.0234375 257.8243408203125 182.56494140625 260.79730224609375 170.67333984375 263.3648681640625 C 158.78125 265.79730224609375 150.74169921875 267.4864807128906 146.55224609375 268.43243408203125 C 145.26904296875 263.770263671875 143.98486328125 259.10809326171875 142.701171875 254.44595336914062 C 148.646484375 254.04052734375 154.1875 253.5 159.322265625 252.8243408203125 C 164.59228515625 252.14865112304688 170.3349609375 251.270263671875 176.55126953125 250.189208984375 C 179.38916015625 249.64865112304688 185.9423828125 248.43243408203125 196.212890625 246.54052734375 C 206.6171875 244.64865112304688 219.31982421875 242.28378295898438 234.3193359375 239.44595336914062 C 249.4541015625 236.47296142578125 265.669921875 233.3648681640625 282.966796875 230.12164306640625 C 300.3984375 226.87838745117188 317.76171875 223.6351318359375 335.05859375 220.39190673828125 C 352.35546875 217.14865112304688 368.435546875 214.10809326171875 383.30078125 211.270263671875 C 398.298828125 208.43243408203125 410.7314453125 206.0 420.595703125 203.97296142578125 C 430.595703125 201.81082153320312 436.8115234375 200.52703857421875 439.244140625 200.12164306640625 C 441.0009765625 199.58108520507812 442.892578125 199.04052734375 444.919921875 198.5 C 447.08203125 197.95947265625 448.90625 197.28378295898438 450.392578125 196.47296142578125 C 453.162109375 198.29730224609375 455.931640625 200.12164306640625 458.703125 201.94595336914062"/>
  </g>
</svg>
