<?xml version="1.0" encoding="utf-8"?>
<svg xmlns="http://www.w3.org/2000/svg" xmlns:ev="http://www.w3.org/2001/xml-events" xmlns:xlink="http://www.w3.org/1999/xlink" version="1.1" baseProfile="full" width="7234.0" height="1593.0" viewBox="250.0 -1503.0 7234.0 1593.0">
<defs/>
<g><path d="M 1490.000000 -1384.000000 C 1483.333333 -1371.333333 1475.666667 -1354.666667 1467.000000 -1334.000000 C 1459.000000 -1314.000000 1452.000000 -1295.000000 1446.000000 -1277.000000 C 1422.666667 -1213.000000 1394.333333 -1144.333333 1361.000000 -1071.000000 C 1327.666667 -998.333333 1290.000000 -925.666667 1248.000000 -853.000000 C 1206.000000 -781.000000 1158.666667 -712.333333 1106.000000 -647.000000 C 1043.333333 -567.666667 971.666667 -487.666667 891.000000 -407.000000 C 810.333333 -326.333333 721.000000 -249.000000 623.000000 -175.000000 C 525.000000 -101.666667 417.333333 -36.333333 300.000000 21.000000 C 283.333333 6.333333 266.666667 -8.333333 250.000000 -23.000000 C 432.666667 -110.333333 589.333333 -211.666667 720.000000 -327.000000 C 850.666667 -443.000000 963.333333 -560.666667 1058.000000 -680.000000 C 1141.333333 -783.333333 1209.666667 -889.333333 1263.000000 -998.000000 C 1317.000000 -1107.333333 1360.000000 -1208.000000 1392.000000 -1300.000000 C 1397.333333 -1314.000000 1403.000000 -1331.000000 1409.000000 -1351.000000 C 1415.666667 -1371.666667 1421.000000 -1390.333333 1425.000000 -1407.000000 C 1446.666667 -1399.333333 1468.333333 -1391.666667 1490.000000 -1384.000000z M 516.000000 -1119.000000 C 564.000000 -1088.333333 615.333333 -1053.333333 670.000000 -1014.000000 C 725.333333 -975.333333 780.333333 -936.000000 835.000000 -896.000000 C 890.333333 -856.666667 941.666667 -818.333333 989.000000 -781.000000 C 1036.333333 -744.333333 1076.000000 -712.333333 1108.000000 -685.000000 C 1198.666667 -608.333333 1287.000000 -531.000000 1373.000000 -453.000000 C 1459.666667 -375.000000 1540.333333 -294.333333 1615.000000 -211.000000 C 1600.333333 -196.333333 1585.666667 -181.666667 1571.000000 -167.000000 C 1493.666667 -254.333333 1413.666667 -335.666667 1331.000000 -411.000000 C 1249.000000 -486.333333 1162.333333 -563.000000 1071.000000 -641.000000 C 1037.000000 -670.333333 996.000000 -704.000000 948.000000 -742.000000 C 900.000000 -780.000000 848.333333 -819.000000 793.000000 -859.000000 C 737.666667 -899.666667 682.666667 -938.333333 628.000000 -975.000000 C 574.000000 -1012.333333 524.666667 -1045.000000 480.000000 -1073.000000 C 492.000000 -1088.333333 504.000000 -1103.666667 516.000000 -1119.000000z "/>
</g>
<g><path d="M 3214.000000 -1450.000000 C 3204.000000 -1440.666667 3188.000000 -1425.666667 3166.000000 -1405.000000 C 3144.000000 -1385.000000 3128.000000 -1370.333333 3118.000000 -1361.000000 C 3083.333333 -1329.000000 3040.333333 -1291.000000 2989.000000 -1247.000000 C 2938.333333 -1203.000000 2884.333333 -1157.666667 2827.000000 -1111.000000 C 2770.333333 -1064.333333 2715.333333 -1019.333333 2662.000000 -976.000000 C 2608.666667 -933.333333 2563.000000 -896.000000 2525.000000 -864.000000 C 2482.333333 -826.666667 2453.333333 -795.333333 2438.000000 -770.000000 C 2422.666667 -745.333333 2423.000000 -720.666667 2439.000000 -696.000000 C 2455.000000 -671.333333 2486.666667 -639.000000 2534.000000 -599.000000 C 2575.333333 -565.666667 2620.333333 -529.000000 2669.000000 -489.000000 C 2717.666667 -449.666667 2767.666667 -408.000000 2819.000000 -364.000000 C 2871.000000 -320.000000 2923.333333 -274.666667 2976.000000 -228.000000 C 3028.666667 -182.000000 3079.666667 -135.666667 3129.000000 -89.000000 C 3178.333333 -42.333333 3224.000000 2.666667 3266.000000 46.000000 C 3249.333333 60.666667 3232.666667 75.333333 3216.000000 90.000000 C 3189.333333 59.333333 3157.333333 25.333333 3120.000000 -12.000000 C 3081.333333 -50.000000 3035.000000 -93.666667 2981.000000 -143.000000 C 2927.666667 -192.333333 2871.333333 -242.666667 2812.000000 -294.000000 C 2752.666667 -346.000000 2694.333333 -396.000000 2637.000000 -444.000000 C 2580.333333 -492.000000 2529.000000 -534.666667 2483.000000 -572.000000 C 2425.000000 -619.333333 2388.666667 -659.666667 2374.000000 -693.000000 C 2359.333333 -726.333333 2362.333333 -759.333333 2383.000000 -792.000000 C 2404.333333 -824.666667 2440.666667 -862.666667 2492.000000 -906.000000 C 2526.666667 -935.333333 2570.333333 -971.333333 2623.000000 -1014.000000 C 2676.333333 -1057.333333 2732.000000 -1103.000000 2790.000000 -1151.000000 C 2848.666667 -1199.000000 2904.000000 -1245.333333 2956.000000 -1290.000000 C 3008.000000 -1334.666667 3050.000000 -1374.333333 3082.000000 -1409.000000 C 3092.000000 -1421.000000 3104.666667 -1436.333333 3120.000000 -1455.000000 C 3135.333333 -1474.333333 3146.333333 -1490.333333 3153.000000 -1503.000000 C 3173.333333 -1485.333333 3193.666667 -1467.666667 3214.000000 -1450.000000z "/>
</g>
<g><path d="M 4925.000000 -1471.000000 C 4922.333333 -1457.000000 4919.333333 -1436.666667 4916.000000 -1410.000000 C 4912.666667 -1384.000000 4910.000000 -1360.000000 4908.000000 -1338.000000 C 4898.666667 -1269.333333 4889.333333 -1199.666667 4880.000000 -1129.000000 C 4871.333333 -1058.333333 4859.333333 -987.000000 4844.000000 -915.000000 C 4828.666667 -843.666667 4807.666667 -771.000000 4781.000000 -697.000000 C 4749.000000 -609.666667 4712.666667 -527.666667 4672.000000 -451.000000 C 4632.000000 -374.333333 4589.000000 -306.666667 4543.000000 -248.000000 C 4497.000000 -190.000000 4447.333333 -144.666667 4394.000000 -112.000000 C 4340.666667 -79.333333 4284.666667 -63.000000 4226.000000 -63.000000 C 4187.333333 -63.000000 4153.000000 -74.000000 4123.000000 -96.000000 C 4093.000000 -118.000000 4069.333333 -148.000000 4052.000000 -186.000000 C 4034.666667 -224.666667 4026.000000 -269.666667 4026.000000 -321.000000 C 4026.000000 -410.333333 4039.666667 -492.666667 4067.000000 -568.000000 C 4095.000000 -644.000000 4130.666667 -713.333333 4174.000000 -776.000000 C 4204.666667 -824.666667 4244.666667 -873.666667 4294.000000 -923.000000 C 4343.333333 -973.000000 4401.333333 -1019.000000 4468.000000 -1061.000000 C 4534.666667 -1103.666667 4609.333333 -1138.000000 4692.000000 -1164.000000 C 4775.333333 -1190.666667 4867.000000 -1204.000000 4967.000000 -1204.000000 C 5036.333333 -1204.000000 5103.000000 -1192.333333 5167.000000 -1169.000000 C 5231.000000 -1146.333333 5288.333333 -1112.666667 5339.000000 -1068.000000 C 5390.333333 -1024.000000 5431.000000 -969.000000 5461.000000 -903.000000 C 5491.666667 -837.000000 5507.000000 -761.333333 5507.000000 -676.000000 C 5507.000000 -572.000000 5498.000000 -478.666667 5480.000000 -396.000000 C 5462.000000 -314.000000 5434.666667 -243.333333 5398.000000 -184.000000 C 5361.333333 -125.333333 5315.666667 -80.666667 5261.000000 -50.000000 C 5207.000000 -19.333333 5143.666667 -4.000000 5071.000000 -4.000000 C 4989.000000 -4.000000 4924.333333 -23.666667 4877.000000 -63.000000 C 4829.666667 -103.000000 4806.000000 -155.666667 4806.000000 -221.000000 C 4806.000000 -261.666667 4817.666667 -298.333333 4841.000000 -331.000000 C 4865.000000 -363.666667 4897.666667 -389.333333 4939.000000 -408.000000 C 4981.000000 -426.666667 5028.000000 -436.000000 5080.000000 -436.000000 C 5150.666667 -436.000000 5215.666667 -424.666667 5275.000000 -402.000000 C 5334.333333 -380.000000 5388.333333 -352.000000 5437.000000 -318.000000 C 5485.666667 -284.000000 5528.666667 -248.666667 5566.000000 -212.000000 C 5603.333333 -175.333333 5634.666667 -142.333333 5660.000000 -113.000000 C 5646.000000 -95.333333 5632.000000 -77.666667 5618.000000 -60.000000 C 5593.333333 -90.666667 5563.000000 -124.333333 5527.000000 -161.000000 C 5491.666667 -198.333333 5451.333333 -234.000000 5406.000000 -268.000000 C 5360.666667 -302.000000 5310.666667 -329.666667 5256.000000 -351.000000 C 5201.333333 -373.000000 5142.666667 -384.000000 5080.000000 -384.000000 C 5006.000000 -384.000000 4950.333333 -366.666667 4913.000000 -332.000000 C 4876.333333 -297.333333 4858.000000 -261.000000 4858.000000 -223.000000 C 4858.000000 -174.333333 4876.666667 -134.333333 4914.000000 -103.000000 C 4952.000000 -71.666667 5004.333333 -56.000000 5071.000000 -56.000000 C 5143.666667 -56.000000 5204.333333 -72.666667 5253.000000 -106.000000 C 5301.666667 -140.000000 5340.333333 -186.000000 5369.000000 -244.000000 C 5397.666667 -302.666667 5418.333333 -369.000000 5431.000000 -443.000000 C 5444.333333 -517.666667 5451.000000 -594.666667 5451.000000 -674.000000 C 5451.000000 -731.333333 5441.000000 -788.333333 5421.000000 -845.000000 C 5401.000000 -902.333333 5370.666667 -954.000000 5330.000000 -1000.000000 C 5290.000000 -1046.000000 5239.666667 -1082.666667 5179.000000 -1110.000000 C 5118.333333 -1138.000000 5047.000000 -1152.000000 4965.000000 -1152.000000 C 4859.000000 -1152.000000 4759.000000 -1135.000000 4665.000000 -1101.000000 C 4571.000000 -1067.000000 4485.666667 -1019.333333 4409.000000 -958.000000 C 4333.000000 -896.666667 4268.000000 -824.333333 4214.000000 -741.000000 C 4183.333333 -692.333333 4158.000000 -645.333333 4138.000000 -600.000000 C 4118.666667 -554.666667 4104.000000 -509.333333 4094.000000 -464.000000 C 4084.666667 -419.333333 4080.000000 -372.333333 4080.000000 -323.000000 C 4080.000000 -259.666667 4095.666667 -209.666667 4127.000000 -173.000000 C 4158.333333 -137.000000 4190.666667 -119.000000 4224.000000 -119.000000 C 4274.000000 -119.000000 4322.666667 -134.000000 4370.000000 -164.000000 C 4417.333333 -194.000000 4462.666667 -236.333333 4506.000000 -291.000000 C 4550.000000 -346.333333 4591.666667 -410.666667 4631.000000 -484.000000 C 4671.000000 -558.000000 4707.000000 -638.666667 4739.000000 -726.000000 C 4760.333333 -786.000000 4778.333333 -851.666667 4793.000000 -923.000000 C 4807.666667 -995.000000 4819.333333 -1066.333333 4828.000000 -1137.000000 C 4837.333333 -1208.333333 4844.666667 -1272.333333 4850.000000 -1329.000000 C 4852.666667 -1353.000000 4854.000000 -1376.333333 4854.000000 -1399.000000 C 4854.000000 -1422.333333 4852.666667 -1447.666667 4850.000000 -1475.000000 C 4875.000000 -1473.666667 4900.000000 -1472.333333 4925.000000 -1471.000000z M 4199.000000 -1290.000000 C 4211.666667 -1235.333333 4228.333333 -1176.666667 4249.000000 -1114.000000 C 4269.666667 -1051.333333 4291.333333 -990.000000 4314.000000 -930.000000 C 4337.333333 -870.666667 4359.000000 -816.000000 4379.000000 -766.000000 C 4399.666667 -716.000000 4417.000000 -675.666667 4431.000000 -645.000000 C 4450.333333 -603.000000 4475.333333 -555.333333 4506.000000 -502.000000 C 4536.666667 -448.666667 4567.333333 -403.000000 4598.000000 -365.000000 C 4588.000000 -350.333333 4578.000000 -335.666667 4568.000000 -321.000000 C 4547.333333 -345.000000 4525.000000 -374.666667 4501.000000 -410.000000 C 4477.666667 -445.333333 4456.000000 -481.000000 4436.000000 -517.000000 C 4416.000000 -553.666667 4399.000000 -586.666667 4385.000000 -616.000000 C 4368.333333 -654.666667 4348.000000 -703.000000 4324.000000 -761.000000 C 4300.666667 -819.666667 4277.666667 -879.333333 4255.000000 -940.000000 C 4233.000000 -1000.666667 4215.000000 -1052.666667 4201.000000 -1096.000000 C 4194.333333 -1119.333333 4187.333333 -1141.333333 4180.000000 -1162.000000 C 4173.333333 -1183.333333 4166.333333 -1203.000000 4159.000000 -1221.000000 C 4152.333333 -1239.000000 4146.000000 -1255.000000 4140.000000 -1269.000000 C 4159.666667 -1276.000000 4179.333333 -1283.000000 4199.000000 -1290.000000z "/>
</g>
<g><path d="M 6119.000000 -1308.000000 C 6117.666667 -1300.000000 6116.333333 -1288.000000 6115.000000 -1272.000000 C 6113.666667 -1256.000000 6112.666667 -1238.666667 6112.000000 -1220.000000 C 6111.333333 -1201.333333 6110.333333 -1184.333333 6109.000000 -1169.000000 C 6108.333333 -1131.000000 6108.000000 -1084.000000 6108.000000 -1028.000000 C 6108.666667 -972.666667 6110.333333 -913.333333 6113.000000 -850.000000 C 6115.666667 -787.333333 6119.666667 -726.666667 6125.000000 -668.000000 C 6137.666667 -546.666667 6159.333333 -440.666667 6190.000000 -350.000000 C 6220.666667 -260.000000 6257.666667 -190.333333 6301.000000 -141.000000 C 6345.000000 -91.666667 6392.666667 -67.000000 6444.000000 -67.000000 C 6469.333333 -67.000000 6494.666667 -77.000000 6520.000000 -97.000000 C 6546.000000 -117.000000 6570.666667 -145.000000 6594.000000 -181.000000 C 6618.000000 -217.666667 6640.333333 -260.666667 6661.000000 -310.000000 C 6682.333333 -359.333333 6700.666667 -412.666667 6716.000000 -470.000000 C 6732.000000 -456.666667 6748.000000 -443.333333 6764.000000 -430.000000 C 6729.333333 -325.333333 6693.666667 -242.000000 6657.000000 -180.000000 C 6621.000000 -118.666667 6585.000000 -74.666667 6549.000000 -48.000000 C 6513.000000 -21.333333 6477.333333 -8.000000 6442.000000 -8.000000 C 6392.000000 -8.000000 6341.666667 -29.000000 6291.000000 -71.000000 C 6240.333333 -113.000000 6195.666667 -181.666667 6157.000000 -277.000000 C 6119.000000 -372.333333 6091.000000 -500.000000 6073.000000 -660.000000 C 6067.666667 -712.666667 6063.333333 -771.333333 6060.000000 -836.000000 C 6057.333333 -900.666667 6055.333333 -962.666667 6054.000000 -1022.000000 C 6052.666667 -1082.000000 6052.000000 -1129.333333 6052.000000 -1164.000000 C 6052.000000 -1181.333333 6051.666667 -1206.333333 6051.000000 -1239.000000 C 6050.333333 -1271.666667 6047.333333 -1295.666667 6042.000000 -1311.000000 C 6067.666667 -1310.000000 6093.333333 -1309.000000 6119.000000 -1308.000000z M 7158.000000 -1244.000000 C 7190.000000 -1199.333333 7220.666667 -1150.333333 7250.000000 -1097.000000 C 7279.333333 -1044.333333 7306.333333 -987.666667 7331.000000 -927.000000 C 7356.333333 -867.000000 7379.000000 -804.333333 7399.000000 -739.000000 C 7419.666667 -673.666667 7437.000000 -606.666667 7451.000000 -538.000000 C 7465.666667 -470.000000 7476.666667 -400.000000 7484.000000 -328.000000 C 7465.333333 -319.666667 7446.666667 -311.333333 7428.000000 -303.000000 C 7419.333333 -399.000000 7404.666667 -490.666667 7384.000000 -578.000000 C 7364.000000 -666.000000 7339.333333 -748.666667 7310.000000 -826.000000 C 7281.333333 -904.000000 7249.333333 -976.000000 7214.000000 -1042.000000 C 7179.333333 -1108.666667 7142.666667 -1168.333333 7104.000000 -1221.000000 C 7122.000000 -1228.666667 7140.000000 -1236.333333 7158.000000 -1244.000000z "/>
</g>
</svg>
