<?xml version="1.0" ?>
<svg xmlns="http://www.w3.org/2000/svg" version="1.1" width="600" height="600">
  <defs/>
  <g>
    <path stroke-width="0" fill="rgb(0, 0, 0)" opacity="1.0" d="M 177.92486572265625 131.10983276367188 C 181.94760131835938 131.10983276367188 185.9703369140625 131.10983276367188 189.99307250976562 131.10983276367188 C 189.99307250976562 169.46823120117188 189.99307250976562 207.82659912109375 189.99307250976562 246.18499755859375 C 189.99307250976562 262.41619873046875 189.438232421875 280.03466796875 188.3284912109375 299.04046630859375 C 187.21878051757812 317.90753173828125 185.1380615234375 337.2601318359375 182.0863037109375 357.0982666015625 C 179.03460693359375 376.9364013671875 174.5263671875 396.3583984375 168.56161499023438 415.3641357421875 C 162.59686279296875 434.231201171875 154.5513916015625 451.78033447265625 144.42520141601562 468.0115966796875 C 143.59292602539062 467.17919921875 142.55255126953125 466.3468017578125 141.30410766601562 465.51446533203125 C 140.19439697265625 464.82080078125 139.01531982421875 464.05780029296875 137.76687622070312 463.2254638671875 C 136.51846313476562 462.39306640625 135.40872192382812 461.699462890625 134.43771362304688 461.14453125 C 144.2864990234375 445.1907958984375 152.1239013671875 428.127197265625 157.94992065429688 409.9537353515625 C 163.77593994140625 391.6416015625 168.07611083984375 372.982666015625 170.85040283203125 353.97686767578125 C 173.763427734375 334.8323974609375 175.63607788085938 316.10406494140625 176.46835327148438 297.79193115234375 C 177.43936157226562 279.3410339355469 177.92486572265625 262.13873291015625 177.92486572265625 246.18499755859375 C 177.92486572265625 207.82659912109375 177.92486572265625 169.46823120117188 177.92486572265625 131.10983276367188M 183.5428466796875 131.10983276367188 C 277.9383544921875 131.10983276367188 372.33392333984375 131.10983276367188 466.7294921875 131.10983276367188 C 466.7294921875 154.0 466.7294921875 176.89016723632812 466.7294921875 199.78033447265625 C 372.33392333984375 199.78033447265625 277.9383544921875 199.78033447265625 183.5428466796875 199.78033447265625 C 183.5428466796875 195.96533203125 183.5428466796875 192.15029907226562 183.5428466796875 188.33526611328125 C 274.0543518066406 188.33526611328125 364.56585693359375 188.33526611328125 455.077392578125 188.33526611328125 C 455.077392578125 173.14450073242188 455.077392578125 157.95376586914062 455.077392578125 142.76300048828125 C 364.56585693359375 142.76300048828125 274.0543518066406 142.76300048828125 183.5428466796875 142.76300048828125 C 183.5428466796875 138.87863159179688 183.5428466796875 134.99423217773438 183.5428466796875 131.10983276367188M 255.1197509765625 204.982666015625 C 258.3101806640625 203.24853515625 261.50067138671875 201.51446533203125 264.69110107421875 199.78033447265625 C 270.5171203613281 204.91326904296875 276.13507080078125 210.80926513671875 281.54498291015625 217.46820068359375 C 287.09356689453125 224.12716674804688 290.908203125 230.09249877929688 292.98895263671875 235.36416625976562 C 289.79852294921875 237.375732421875 286.6080322265625 239.38726806640625 283.4176025390625 241.39886474609375 C 281.0594482421875 236.127197265625 277.24481201171875 230.02313232421875 271.9736328125 223.08673095703125 C 266.8411865234375 216.1502685546875 261.22320556640625 210.1156005859375 255.1197509765625 204.982666015625M 408.88531494140625 199.15606689453125 C 412.491943359375 201.0982666015625 416.0985107421875 203.04046630859375 419.705078125 204.982666015625 C 414.5726318359375 211.6416015625 409.1627197265625 218.30059814453125 403.4754638671875 224.95953369140625 C 397.9268798828125 231.47976684570312 392.6556396484375 236.95953369140625 387.66192626953125 241.39886474609375 C 384.7489013671875 239.803466796875 381.83587646484375 238.20809936523438 378.9228515625 236.61273193359375 C 383.63916015625 231.61849975585938 388.91033935546875 225.44509887695312 394.73638916015625 218.09246826171875 C 400.70111083984375 210.7398681640625 405.41748046875 204.42776489257812 408.88531494140625 199.15606689453125M 237.8497314453125 357.7225341796875 C 308.17822265625 357.7225341796875 378.5067138671875 357.7225341796875 448.835205078125 357.7225341796875 C 448.835205078125 394.76300048828125 448.835205078125 431.803466796875 448.835205078125 468.84393310546875 C 444.951171875 468.84393310546875 441.067138671875 468.84393310546875 437.18316650390625 468.84393310546875 C 437.18316650390625 435.7572021484375 437.18316650390625 402.6705322265625 437.18316650390625 369.58380126953125 C 374.6226806640625 369.58380126953125 312.062255859375 369.58380126953125 249.50180053710938 369.58380126953125 C 249.50180053710938 403.017333984375 249.50180053710938 436.45086669921875 249.50180053710938 469.8843994140625 C 245.61776733398438 469.8843994140625 241.7337646484375 469.8843994140625 237.8497314453125 469.8843994140625 C 237.8497314453125 432.4970703125 237.8497314453125 395.10986328125 237.8497314453125 357.7225341796875M 229.9429931640625 289.46820068359375 C 229.9429931640625 300.6358642578125 229.9429931640625 311.803466796875 229.9429931640625 322.9710693359375 C 304.6409912109375 322.9710693359375 379.3389892578125 322.9710693359375 454.03704833984375 322.9710693359375 C 454.03704833984375 311.803466796875 454.03704833984375 300.6358642578125 454.03704833984375 289.46820068359375 C 379.3389892578125 289.46820068359375 304.6409912109375 289.46820068359375 229.9429931640625 289.46820068359375M 229.9429931640625 244.72833251953125 C 229.9429931640625 255.61849975585938 229.9429931640625 266.5086669921875 229.9429931640625 277.39886474609375 C 304.6409912109375 277.39886474609375 379.3389892578125 277.39886474609375 454.03704833984375 277.39886474609375 C 454.03704833984375 266.5086669921875 454.03704833984375 255.61849975585938 454.03704833984375 244.72833251953125 C 379.3389892578125 244.72833251953125 304.6409912109375 244.72833251953125 229.9429931640625 244.72833251953125M 217.87478637695312 233.07513427734375 C 300.41021728515625 233.07513427734375 382.94561767578125 233.07513427734375 465.48101806640625 233.07513427734375 C 465.48101806640625 266.92486572265625 465.48101806640625 300.7745361328125 465.48101806640625 334.624267578125 C 382.94561767578125 334.624267578125 300.41021728515625 334.624267578125 217.87478637695312 334.624267578125 C 217.87478637695312 300.7745361328125 217.87478637695312 266.92486572265625 217.87478637695312 233.07513427734375M 334.18731689453125 237.02890014648438 C 338.14068603515625 237.02890014648438 342.09405517578125 237.02890014648438 346.04742431640625 237.02890014648438 C 346.04742431640625 267.6878662109375 346.04742431640625 298.3468017578125 346.04742431640625 329.00579833984375 C 342.09405517578125 329.00579833984375 338.14068603515625 329.00579833984375 334.18731689453125 329.00579833984375 C 334.18731689453125 298.3468017578125 334.18731689453125 267.6878662109375 334.18731689453125 237.02890014648438M 243.05154418945312 399.96533203125 C 309.49603271484375 399.96533203125 375.94049072265625 399.96533203125 442.385009765625 399.96533203125 C 442.385009765625 403.8497314453125 442.385009765625 407.734130859375 442.385009765625 411.6185302734375 C 375.94049072265625 411.6185302734375 309.49603271484375 411.6185302734375 243.05154418945312 411.6185302734375 C 243.05154418945312 407.734130859375 243.05154418945312 403.8497314453125 243.05154418945312 399.96533203125M 243.05154418945312 444.0809326171875 C 309.49603271484375 444.0809326171875 375.94049072265625 444.0809326171875 442.385009765625 444.0809326171875 C 442.385009765625 447.89599609375 442.385009765625 451.7109375 442.385009765625 455.5260009765625 C 375.94049072265625 455.5260009765625 309.49603271484375 455.5260009765625 243.05154418945312 455.5260009765625 C 243.05154418945312 451.7109375 243.05154418945312 447.89599609375 243.05154418945312 444.0809326171875"/>
  </g>
</svg>
