<?xml version="1.0" encoding="utf-8"?>
<svg xmlns="http://www.w3.org/2000/svg" xmlns:ev="http://www.w3.org/2001/xml-events" xmlns:xlink="http://www.w3.org/1999/xlink" version="1.1" baseProfile="full" width="7240.0" height="1581.0" viewBox="244.0 -1498.0 7240.0 1581.0">
<defs/>
<g><path d="M 3348.000000 -1467.000000 C 3347.333333 -1457.000000 3346.666667 -1444.000000 3346.000000 -1428.000000 C 3345.333333 -1412.666667 3345.000000 -1394.333333 3345.000000 -1373.000000 C 3345.000000 -1361.666667 3345.333333 -1342.333333 3346.000000 -1315.000000 C 3346.666667 -1288.333333 3347.333333 -1257.333333 3348.000000 -1222.000000 C 3349.333333 -1186.666667 3350.333333 -1150.333333 3351.000000 -1113.000000 C 3351.666667 -1076.333333 3352.333333 -1042.000000 3353.000000 -1010.000000 C 3353.666667 -978.000000 3354.000000 -951.666667 3354.000000 -931.000000 C 3354.000000 -823.666667 3353.000000 -721.666667 3351.000000 -625.000000 C 3349.000000 -528.333333 3337.666667 -437.333333 3317.000000 -352.000000 C 3297.000000 -267.333333 3258.666667 -188.333333 3202.000000 -115.000000 C 3146.000000 -42.333333 3064.333333 23.666667 2957.000000 83.000000 C 2937.666667 68.000000 2918.333333 53.000000 2899.000000 38.000000 C 2922.333333 29.333333 2947.666667 17.000000 2975.000000 1.000000 C 3002.333333 -15.000000 3026.333333 -31.333333 3047.000000 -48.000000 C 3113.666667 -99.333333 3164.333333 -154.666667 3199.000000 -214.000000 C 3234.333333 -273.333333 3259.000000 -338.666667 3273.000000 -410.000000 C 3287.666667 -482.000000 3295.666667 -561.000000 3297.000000 -647.000000 C 3299.000000 -733.000000 3300.000000 -827.666667 3300.000000 -931.000000 C 3300.000000 -957.000000 3299.333333 -991.666667 3298.000000 -1035.000000 C 3297.333333 -1078.333333 3296.000000 -1123.333333 3294.000000 -1170.000000 C 3292.000000 -1216.666667 3290.333333 -1258.666667 3289.000000 -1296.000000 C 3287.666667 -1333.333333 3286.333333 -1358.333333 3285.000000 -1371.000000 C 3283.666667 -1391.666667 3281.333333 -1409.333333 3278.000000 -1424.000000 C 3275.333333 -1438.666667 3272.666667 -1453.000000 3270.000000 -1467.000000 C 3296.000000 -1467.000000 3322.000000 -1467.000000 3348.000000 -1467.000000z M 2703.000000 -1048.000000 C 2727.666667 -1044.666667 2758.666667 -1041.000000 2796.000000 -1037.000000 C 2834.000000 -1033.000000 2874.000000 -1030.000000 2916.000000 -1028.000000 C 2958.666667 -1026.000000 2997.333333 -1025.000000 3032.000000 -1025.000000 C 3107.333333 -1025.000000 3183.000000 -1027.000000 3259.000000 -1031.000000 C 3335.000000 -1035.000000 3409.333333 -1041.666667 3482.000000 -1051.000000 C 3555.333333 -1061.000000 3624.666667 -1074.666667 3690.000000 -1092.000000 C 3690.000000 -1071.000000 3690.000000 -1050.000000 3690.000000 -1029.000000 C 3627.333333 -1016.333333 3559.333333 -1005.333333 3486.000000 -996.000000 C 3413.333333 -987.333333 3338.333333 -981.000000 3261.000000 -977.000000 C 3183.666667 -973.666667 3106.666667 -972.000000 3030.000000 -972.000000 C 2996.666667 -972.000000 2958.666667 -972.333333 2916.000000 -973.000000 C 2874.000000 -974.333333 2834.000000 -976.000000 2796.000000 -978.000000 C 2758.666667 -980.000000 2727.666667 -982.333333 2703.000000 -985.000000 C 2703.000000 -1006.000000 2703.000000 -1027.000000 2703.000000 -1048.000000z M 2362.000000 -1442.000000 C 2359.333333 -1430.666667 2356.000000 -1416.666667 2352.000000 -1400.000000 C 2348.000000 -1383.333333 2344.000000 -1366.666667 2340.000000 -1350.000000 C 2321.333333 -1264.000000 2304.333333 -1173.000000 2289.000000 -1077.000000 C 2273.666667 -981.000000 2262.333333 -882.333333 2255.000000 -781.000000 C 2247.666667 -680.333333 2247.000000 -579.000000 2253.000000 -477.000000 C 2259.000000 -375.000000 2274.000000 -275.000000 2298.000000 -177.000000 C 2312.000000 -229.000000 2329.333333 -287.666667 2350.000000 -353.000000 C 2370.666667 -418.333333 2391.333333 -481.000000 2412.000000 -541.000000 C 2426.666667 -533.333333 2441.333333 -525.666667 2456.000000 -518.000000 C 2444.000000 -484.666667 2430.000000 -443.000000 2414.000000 -393.000000 C 2398.000000 -343.666667 2382.666667 -295.333333 2368.000000 -248.000000 C 2353.333333 -200.666667 2343.000000 -163.333333 2337.000000 -136.000000 C 2334.333333 -123.333333 2332.333333 -110.000000 2331.000000 -96.000000 C 2329.666667 -82.000000 2329.666667 -69.333333 2331.000000 -58.000000 C 2332.333333 -48.666667 2333.666667 -39.333333 2335.000000 -30.000000 C 2336.333333 -21.333333 2337.666667 -14.000000 2339.000000 -8.000000 C 2323.000000 -4.666667 2307.000000 -1.333333 2291.000000 2.000000 C 2279.000000 -38.000000 2265.666667 -89.000000 2251.000000 -151.000000 C 2236.333333 -213.000000 2223.666667 -282.000000 2213.000000 -358.000000 C 2203.000000 -434.000000 2198.000000 -512.333333 2198.000000 -593.000000 C 2198.000000 -697.000000 2203.333333 -797.000000 2214.000000 -893.000000 C 2225.333333 -989.000000 2237.666667 -1077.333333 2251.000000 -1158.000000 C 2264.333333 -1238.666667 2274.333333 -1305.666667 2281.000000 -1359.000000 C 2283.666667 -1377.000000 2285.666667 -1394.333333 2287.000000 -1411.000000 C 2288.333333 -1427.666667 2289.000000 -1441.333333 2289.000000 -1452.000000 C 2313.333333 -1448.666667 2337.666667 -1445.333333 2362.000000 -1442.000000z "/>
</g></svg>
