<?xml version="1.0" encoding="utf-8"?>
<svg xmlns="http://www.w3.org/2000/svg" xmlns:ev="http://www.w3.org/2001/xml-events" xmlns:xlink="http://www.w3.org/1999/xlink" version="1.1" baseProfile="full" width="7374.0" height="1584.0" viewBox="204.0 -1453.0 7374.0 1584.0">
<defs/>
<g><path d="M 438.000000 -1369.000000 C 462.000000 -1367.666667 484.333333 -1366.000000 505.000000 -1364.000000 C 525.666667 -1362.000000 550.666667 -1361.000000 580.000000 -1361.000000 C 600.666667 -1361.000000 637.000000 -1361.000000 689.000000 -1361.000000 C 741.666667 -1361.000000 802.000000 -1361.000000 870.000000 -1361.000000 C 938.000000 -1361.000000 1005.666667 -1361.000000 1073.000000 -1361.000000 C 1141.000000 -1361.000000 1201.000000 -1361.000000 1253.000000 -1361.000000 C 1305.666667 -1361.000000 1342.333333 -1361.000000 1363.000000 -1361.000000 C 1385.000000 -1361.000000 1410.000000 -1361.666667 1438.000000 -1363.000000 C 1466.000000 -1364.333333 1491.666667 -1366.333333 1515.000000 -1369.000000 C 1515.000000 -1345.333333 1515.000000 -1321.666667 1515.000000 -1298.000000 C 1490.333333 -1300.666667 1464.333333 -1302.333333 1437.000000 -1303.000000 C 1409.666667 -1303.666667 1385.000000 -1304.000000 1363.000000 -1304.000000 C 1342.333333 -1304.000000 1306.000000 -1304.000000 1254.000000 -1304.000000 C 1202.666667 -1304.000000 1143.000000 -1304.000000 1075.000000 -1304.000000 C 1007.000000 -1304.000000 939.000000 -1304.000000 871.000000 -1304.000000 C 803.666667 -1304.000000 743.666667 -1304.000000 691.000000 -1304.000000 C 638.333333 -1304.000000 602.666667 -1304.000000 584.000000 -1304.000000 C 553.333333 -1304.000000 526.333333 -1303.666667 503.000000 -1303.000000 C 479.666667 -1302.333333 458.000000 -1300.666667 438.000000 -1298.000000 C 438.000000 -1321.666667 438.000000 -1345.333333 438.000000 -1369.000000z M 204.000000 -895.000000 C 228.000000 -893.666667 251.333333 -892.333333 274.000000 -891.000000 C 297.333333 -889.666667 323.666667 -889.000000 353.000000 -889.000000 C 367.000000 -889.000000 398.666667 -889.000000 448.000000 -889.000000 C 497.333333 -889.000000 557.666667 -889.000000 629.000000 -889.000000 C 701.000000 -889.000000 778.333333 -889.000000 861.000000 -889.000000 C 943.666667 -889.000000 1026.333333 -889.000000 1109.000000 -889.000000 C 1191.666667 -889.000000 1268.333333 -889.000000 1339.000000 -889.000000 C 1410.333333 -889.000000 1470.000000 -889.000000 1518.000000 -889.000000 C 1566.000000 -889.000000 1596.333333 -889.000000 1609.000000 -889.000000 C 1629.666667 -889.000000 1650.333333 -889.666667 1671.000000 -891.000000 C 1692.333333 -892.333333 1713.333333 -893.666667 1734.000000 -895.000000 C 1734.000000 -872.666667 1734.000000 -850.333333 1734.000000 -828.000000 C 1716.000000 -828.666667 1695.666667 -829.333333 1673.000000 -830.000000 C 1651.000000 -830.666667 1629.666667 -831.000000 1609.000000 -831.000000 C 1596.333333 -831.000000 1566.000000 -831.000000 1518.000000 -831.000000 C 1470.000000 -831.000000 1410.333333 -831.000000 1339.000000 -831.000000 C 1268.333333 -831.000000 1191.666667 -831.000000 1109.000000 -831.000000 C 1026.333333 -831.000000 943.666667 -831.000000 861.000000 -831.000000 C 778.333333 -831.000000 701.000000 -831.000000 629.000000 -831.000000 C 557.666667 -831.000000 497.333333 -831.000000 448.000000 -831.000000 C 398.666667 -831.000000 367.000000 -831.000000 353.000000 -831.000000 C 323.666667 -831.000000 297.666667 -831.000000 275.000000 -831.000000 C 253.000000 -831.000000 229.333333 -830.000000 204.000000 -828.000000 C 204.000000 -850.333333 204.000000 -872.666667 204.000000 -895.000000z M 1029.000000 -874.000000 C 1029.000000 -758.666667 1022.666667 -649.666667 1010.000000 -547.000000 C 997.333333 -445.000000 968.666667 -353.666667 924.000000 -273.000000 C 899.333333 -231.666667 867.666667 -190.666667 829.000000 -150.000000 C 791.000000 -110.000000 748.666667 -72.000000 702.000000 -36.000000 C 655.333333 -0.666667 605.666667 30.666667 553.000000 58.000000 C 533.666667 42.666667 514.333333 27.333333 495.000000 12.000000 C 575.666667 -24.000000 649.333333 -69.000000 716.000000 -123.000000 C 782.666667 -177.000000 834.666667 -236.333333 872.000000 -301.000000 C 920.666667 -380.333333 949.333333 -468.333333 958.000000 -565.000000 C 967.333333 -661.666667 972.333333 -764.666667 973.000000 -874.000000 C 991.666667 -874.000000 1010.333333 -874.000000 1029.000000 -874.000000z "/>
</g>
<g><path d="M 3391.000000 -1267.000000 C 3387.000000 -1262.333333 3382.000000 -1254.666667 3376.000000 -1244.000000 C 3370.666667 -1234.000000 3366.666667 -1225.666667 3364.000000 -1219.000000 C 3339.333333 -1153.666667 3307.000000 -1082.000000 3267.000000 -1004.000000 C 3227.666667 -926.000000 3183.666667 -850.000000 3135.000000 -776.000000 C 3086.333333 -702.666667 3036.666667 -638.666667 2986.000000 -584.000000 C 2915.333333 -506.666667 2839.000000 -432.000000 2757.000000 -360.000000 C 2675.000000 -288.000000 2588.333333 -220.666667 2497.000000 -158.000000 C 2405.666667 -96.000000 2308.000000 -42.000000 2204.000000 4.000000 C 2188.666667 -12.666667 2173.333333 -29.333333 2158.000000 -46.000000 C 2262.000000 -88.000000 2360.666667 -139.333333 2454.000000 -200.000000 C 2547.333333 -261.333333 2635.666667 -329.333333 2719.000000 -404.000000 C 2803.000000 -478.666667 2881.000000 -556.000000 2953.000000 -636.000000 C 2997.666667 -686.666667 3043.666667 -747.000000 3091.000000 -817.000000 C 3138.333333 -887.000000 3181.000000 -959.000000 3219.000000 -1033.000000 C 3257.666667 -1107.000000 3286.000000 -1174.333333 3304.000000 -1235.000000 C 3295.333333 -1235.000000 3269.333333 -1235.000000 3226.000000 -1235.000000 C 3183.333333 -1235.000000 3131.666667 -1235.000000 3071.000000 -1235.000000 C 3010.333333 -1235.000000 2946.333333 -1235.000000 2879.000000 -1235.000000 C 2811.666667 -1235.000000 2747.666667 -1235.000000 2687.000000 -1235.000000 C 2626.333333 -1235.000000 2575.333333 -1235.000000 2534.000000 -1235.000000 C 2493.333333 -1235.000000 2468.666667 -1235.000000 2460.000000 -1235.000000 C 2440.666667 -1235.000000 2418.333333 -1234.333333 2393.000000 -1233.000000 C 2368.333333 -1231.666667 2346.333333 -1230.666667 2327.000000 -1230.000000 C 2307.666667 -1229.333333 2298.000000 -1229.000000 2298.000000 -1229.000000 C 2298.000000 -1253.333333 2298.000000 -1277.666667 2298.000000 -1302.000000 C 2298.000000 -1302.000000 2307.333333 -1301.333333 2326.000000 -1300.000000 C 2344.666667 -1298.666667 2366.333333 -1297.000000 2391.000000 -1295.000000 C 2416.333333 -1293.000000 2439.333333 -1292.000000 2460.000000 -1292.000000 C 2468.666667 -1292.000000 2492.333333 -1292.000000 2531.000000 -1292.000000 C 2570.333333 -1292.000000 2618.666667 -1292.000000 2676.000000 -1292.000000 C 2734.000000 -1292.000000 2794.666667 -1292.000000 2858.000000 -1292.000000 C 2921.333333 -1292.000000 2982.000000 -1292.000000 3040.000000 -1292.000000 C 3098.666667 -1292.000000 3148.000000 -1292.000000 3188.000000 -1292.000000 C 3228.666667 -1292.000000 3254.000000 -1292.000000 3264.000000 -1292.000000 C 3284.666667 -1292.000000 3302.000000 -1292.666667 3316.000000 -1294.000000 C 3330.000000 -1295.333333 3342.000000 -1297.333333 3352.000000 -1300.000000 C 3365.000000 -1289.000000 3378.000000 -1278.000000 3391.000000 -1267.000000z M 3011.000000 -626.000000 C 3065.666667 -580.000000 3120.333333 -530.666667 3175.000000 -478.000000 C 3230.333333 -425.333333 3284.333333 -371.666667 3337.000000 -317.000000 C 3389.666667 -263.000000 3438.666667 -211.000000 3484.000000 -161.000000 C 3529.333333 -111.000000 3569.333333 -65.000000 3604.000000 -23.000000 C 3588.000000 -9.000000 3572.000000 5.000000 3556.000000 19.000000 C 3511.333333 -37.000000 3456.666667 -100.666667 3392.000000 -172.000000 C 3327.333333 -244.000000 3258.666667 -316.333333 3186.000000 -389.000000 C 3114.000000 -462.333333 3042.666667 -528.666667 2972.000000 -588.000000 C 2985.000000 -600.666667 2998.000000 -613.333333 3011.000000 -626.000000z "/>
</g>
<g><path d="M 4531.000000 -156.000000 C 4531.000000 -167.333333 4531.000000 -198.666667 4531.000000 -250.000000 C 4531.000000 -302.000000 4531.000000 -366.000000 4531.000000 -442.000000 C 4531.000000 -518.666667 4531.000000 -599.666667 4531.000000 -685.000000 C 4531.000000 -771.000000 4531.000000 -854.666667 4531.000000 -936.000000 C 4531.000000 -1017.333333 4531.000000 -1089.000000 4531.000000 -1151.000000 C 4531.000000 -1213.000000 4531.000000 -1257.333333 4531.000000 -1284.000000 C 4531.000000 -1304.666667 4530.333333 -1331.666667 4529.000000 -1365.000000 C 4527.666667 -1398.333333 4525.333333 -1427.666667 4522.000000 -1453.000000 C 4547.333333 -1453.000000 4572.666667 -1453.000000 4598.000000 -1453.000000 C 4596.000000 -1429.000000 4594.000000 -1399.333333 4592.000000 -1364.000000 C 4590.000000 -1328.666667 4589.000000 -1302.000000 4589.000000 -1284.000000 C 4589.000000 -1220.000000 4589.000000 -1148.666667 4589.000000 -1070.000000 C 4589.000000 -991.333333 4589.000000 -911.000000 4589.000000 -829.000000 C 4589.000000 -747.666667 4589.333333 -668.000000 4590.000000 -590.000000 C 4590.666667 -512.666667 4591.000000 -442.666667 4591.000000 -380.000000 C 4591.000000 -317.333333 4591.000000 -265.666667 4591.000000 -225.000000 C 4591.000000 -185.000000 4591.000000 -162.000000 4591.000000 -156.000000 C 4591.000000 -132.666667 4591.000000 -109.666667 4591.000000 -87.000000 C 4591.000000 -65.000000 4591.666667 -43.666667 4593.000000 -23.000000 C 4594.333333 -2.333333 4595.333333 16.333333 4596.000000 33.000000 C 4572.333333 33.000000 4548.666667 33.000000 4525.000000 33.000000 C 4527.666667 8.333333 4529.333333 -21.000000 4530.000000 -55.000000 C 4530.666667 -89.000000 4531.000000 -122.666667 4531.000000 -156.000000z M 4577.000000 -943.000000 C 4639.666667 -923.666667 4707.666667 -900.666667 4781.000000 -874.000000 C 4855.000000 -848.000000 4930.333333 -820.000000 5007.000000 -790.000000 C 5084.333333 -760.000000 5158.666667 -729.333333 5230.000000 -698.000000 C 5302.000000 -666.666667 5367.333333 -636.333333 5426.000000 -607.000000 C 5417.666667 -587.000000 5409.333333 -567.000000 5401.000000 -547.000000 C 5345.666667 -577.666667 5281.666667 -609.333333 5209.000000 -642.000000 C 5137.000000 -674.666667 5062.333333 -706.333333 4985.000000 -737.000000 C 4907.666667 -767.666667 4833.333333 -795.000000 4762.000000 -819.000000 C 4691.333333 -843.666667 4629.666667 -863.666667 4577.000000 -879.000000 C 4577.000000 -900.333333 4577.000000 -921.666667 4577.000000 -943.000000z "/>
</g>
<g><path d="M 6922.000000 -851.000000 C 6940.333333 -851.000000 6958.666667 -851.000000 6977.000000 -851.000000 C 6977.000000 -578.333333 6977.000000 -305.666667 6977.000000 -33.000000 C 6977.000000 -2.333333 6984.000000 17.666667 6998.000000 27.000000 C 7012.666667 37.000000 7041.666667 42.000000 7085.000000 42.000000 C 7095.000000 42.000000 7114.333333 42.000000 7143.000000 42.000000 C 7172.333333 42.000000 7204.666667 42.000000 7240.000000 42.000000 C 7276.000000 42.000000 7309.333333 42.000000 7340.000000 42.000000 C 7370.666667 42.000000 7393.666667 42.000000 7409.000000 42.000000 C 7439.666667 42.000000 7462.666667 33.000000 7478.000000 15.000000 C 7493.333333 -3.000000 7504.000000 -38.000000 7510.000000 -90.000000 C 7516.000000 -142.666667 7519.666667 -220.666667 7521.000000 -324.000000 C 7527.000000 -320.666667 7533.000000 -316.666667 7539.000000 -312.000000 C 7545.666667 -307.333333 7552.666667 -303.666667 7560.000000 -301.000000 C 7567.333333 -299.000000 7573.333333 -296.666667 7578.000000 -294.000000 C 7575.333333 -190.000000 7569.666667 -109.333333 7561.000000 -52.000000 C 7552.333333 4.666667 7536.666667 44.000000 7514.000000 66.000000 C 7491.333333 88.666667 7456.333333 100.000000 7409.000000 100.000000 C 7401.666667 100.000000 7382.333333 100.000000 7351.000000 100.000000 C 7319.666667 100.000000 7285.000000 100.000000 7247.000000 100.000000 C 7209.000000 100.000000 7174.666667 100.000000 7144.000000 100.000000 C 7113.333333 100.000000 7094.333333 100.000000 7087.000000 100.000000 C 7044.333333 100.000000 7010.666667 96.333333 6986.000000 89.000000 C 6962.000000 82.333333 6945.333333 69.333333 6936.000000 50.000000 C 6926.666667 30.666667 6922.000000 3.000000 6922.000000 -33.000000 C 6922.000000 -305.666667 6922.000000 -578.333333 6922.000000 -851.000000z M 5887.000000 -876.000000 C 6443.000000 -876.000000 6999.000000 -876.000000 7555.000000 -876.000000 C 7555.000000 -856.666667 7555.000000 -837.333333 7555.000000 -818.000000 C 6999.000000 -818.000000 6443.000000 -818.000000 5887.000000 -818.000000 C 5887.000000 -837.333333 5887.000000 -856.666667 5887.000000 -876.000000z M 6048.000000 -1430.000000 C 6500.333333 -1430.000000 6952.666667 -1430.000000 7405.000000 -1430.000000 C 7405.000000 -1411.666667 7405.000000 -1393.333333 7405.000000 -1375.000000 C 6952.666667 -1375.000000 6500.333333 -1375.000000 6048.000000 -1375.000000 C 6048.000000 -1393.333333 6048.000000 -1411.666667 6048.000000 -1430.000000z M 6430.000000 -835.000000 C 6449.333333 -835.000000 6468.666667 -835.000000 6488.000000 -835.000000 C 6478.666667 -726.333333 6464.333333 -623.000000 6445.000000 -525.000000 C 6426.333333 -427.000000 6396.666667 -336.333333 6356.000000 -253.000000 C 6316.000000 -170.333333 6261.000000 -96.333333 6191.000000 -31.000000 C 6121.000000 34.333333 6031.666667 88.333333 5923.000000 131.000000 C 5920.333333 125.666667 5914.666667 119.000000 5906.000000 111.000000 C 5898.000000 103.666667 5891.000000 97.333333 5885.000000 92.000000 C 5991.000000 51.333333 6077.666667 -0.333333 6145.000000 -63.000000 C 6212.333333 -125.666667 6265.333333 -197.333333 6304.000000 -278.000000 C 6343.333333 -358.666667 6372.333333 -446.000000 6391.000000 -540.000000 C 6409.666667 -634.666667 6422.666667 -733.000000 6430.000000 -835.000000z "/>
</g>
</svg>
