<?xml version="1.0" ?>
<svg xmlns="http://www.w3.org/2000/svg" version="1.1" width="600" height="600">
  <defs/>
  <g>
    <path stroke-width="0" fill="rgb(0, 0, 0)" opacity="1.0" d="M 124.45681762695312 456.92388916015625 C 241.81011962890625 456.92388916015625 359.1634521484375 456.92388916015625 476.5167236328125 456.92388916015625 C 476.5167236328125 460.79931640625 476.5167236328125 464.67474365234375 476.5167236328125 468.5501708984375 C 359.1634521484375 468.5501708984375 241.81011962890625 468.5501708984375 124.45681762695312 468.5501708984375 C 124.45681762695312 464.67474365234375 124.45681762695312 460.79931640625 124.45681762695312 456.92388916015625M 140.440673828125 205.92041015625 C 178.01309204101562 205.92041015625 215.58554077148438 205.92041015625 253.157958984375 205.92041015625 C 253.157958984375 209.72665405273438 253.157958984375 213.53286743164062 253.157958984375 217.339111328125 C 215.58554077148438 217.339111328125 178.01309204101562 217.339111328125 140.440673828125 217.339111328125 C 140.440673828125 213.53286743164062 140.440673828125 209.72665405273438 140.440673828125 205.92041015625M 344.4942626953125 205.92041015625 C 384.48846435546875 205.92041015625 424.48272705078125 205.92041015625 464.4769287109375 205.92041015625 C 464.4769287109375 209.72665405273438 464.4769287109375 213.53286743164062 464.4769287109375 217.339111328125 C 424.48272705078125 217.339111328125 384.48846435546875 217.339111328125 344.4942626953125 217.339111328125 C 344.4942626953125 213.53286743164062 344.4942626953125 209.72665405273438 344.4942626953125 205.92041015625M 145.21505737304688 287.0968933105469 C 181.6112060546875 287.0968933105469 218.00732421875 287.0968933105469 254.4034423828125 287.0968933105469 C 254.4034423828125 290.9723205566406 254.4034423828125 294.8477478027344 254.4034423828125 298.72320556640625 C 218.00732421875 298.72320556640625 181.6112060546875 298.72320556640625 145.21505737304688 298.72320556640625 C 145.21505737304688 294.8477478027344 145.21505737304688 290.9723205566406 145.21505737304688 287.0968933105469M 345.3245849609375 287.0968933105469 C 383.4505615234375 287.0968933105469 421.5765380859375 287.0968933105469 459.7025146484375 287.0968933105469 C 459.7025146484375 290.9723205566406 459.7025146484375 294.8477478027344 459.7025146484375 298.72320556640625 C 421.5765380859375 298.72320556640625 383.4505615234375 298.72320556640625 345.3245849609375 298.72320556640625 C 345.3245849609375 294.8477478027344 345.3245849609375 290.9723205566406 345.3245849609375 287.0968933105469M 138.36483764648438 371.3875732421875 C 177.18276977539062 371.3875732421875 216.00070190429688 371.3875732421875 254.818603515625 371.3875732421875 C 254.818603515625 375.3321533203125 254.818603515625 379.27685546875 254.818603515625 383.221435546875 C 216.00070190429688 383.221435546875 177.18276977539062 383.221435546875 138.36483764648438 383.221435546875 C 138.36483764648438 379.27685546875 138.36483764648438 375.3321533203125 138.36483764648438 371.3875732421875M 344.4942626953125 371.3875732421875 C 385.04205322265625 371.3875732421875 425.58984375 371.3875732421875 466.1375732421875 371.3875732421875 C 466.1375732421875 375.3321533203125 466.1375732421875 379.27685546875 466.1375732421875 383.221435546875 C 425.58984375 383.221435546875 385.04205322265625 383.221435546875 344.4942626953125 383.221435546875 C 344.4942626953125 379.27685546875 344.4942626953125 375.3321533203125 344.4942626953125 371.3875732421875M 247.9683837890625 132.63320922851562 C 251.84326171875 132.63320922851562 255.7181396484375 132.63320922851562 259.593017578125 132.63320922851562 C 259.593017578125 242.25259399414062 259.593017578125 351.8719482421875 259.593017578125 461.4913330078125 C 255.7181396484375 461.4913330078125 251.84326171875 461.4913330078125 247.9683837890625 461.4913330078125 C 247.9683837890625 351.8719482421875 247.9683837890625 242.25259399414062 247.9683837890625 132.63320922851562M 340.135009765625 132.63320922851562 C 344.0098876953125 132.63320922851562 347.884765625 132.63320922851562 351.7596435546875 132.63320922851562 C 351.7596435546875 242.73703002929688 351.7596435546875 352.8408203125 351.7596435546875 462.94464111328125 C 347.884765625 462.94464111328125 344.0098876953125 462.94464111328125 340.135009765625 462.94464111328125 C 340.135009765625 352.8408203125 340.135009765625 242.73703002929688 340.135009765625 132.63320922851562"/>
  </g>
</svg>
