<?xml version="1.0" ?>
<svg xmlns="http://www.w3.org/2000/svg" version="1.1" width="600" height="600">
  <defs/>
  <g>
    <path stroke-width="0" fill="rgb(0, 0, 0)" opacity="1.0" d="M 118.3282470703125 313.666259765625 C 130.92236328125 310.51739501953125 145.2275390625 306.957763671875 161.2440185546875 302.9874267578125 C 177.2603759765625 298.88018798828125 194.3719482421875 294.4306945800781 212.57861328125 289.638916015625 C 230.922119140625 284.710205078125 249.3341064453125 279.8499755859375 267.8145751953125 275.0581970214844 C 268.15673828125 278.75469970703125 268.4990234375 282.45123291015625 268.84130859375 286.14776611328125 C 242.421142578125 293.540771484375 216.0693359375 300.72845458984375 189.7860107421875 307.7108154296875 C 163.6395263671875 314.693115234375 140.846923828125 320.7855224609375 121.4083251953125 325.988037109375 C 120.381591796875 321.88079833984375 119.35498046875 317.7735595703125 118.3282470703125 313.666259765625M 130.6485595703125 143.83172607421875 C 181.7093505859375 143.83172607421875 232.7701416015625 143.83172607421875 283.8309326171875 143.83172607421875 C 283.8309326171875 147.66513061523438 283.8309326171875 151.49859619140625 283.8309326171875 155.33200073242188 C 232.7701416015625 155.33200073242188 181.7093505859375 155.33200073242188 130.6485595703125 155.33200073242188 C 130.6485595703125 151.49859619140625 130.6485595703125 147.66513061523438 130.6485595703125 143.83172607421875M 199.2315673828125 219.61038208007812 C 203.1329345703125 219.61038208007812 207.034423828125 219.61038208007812 210.935791015625 219.61038208007812 C 210.935791015625 299.0855712890625 210.935791015625 378.560791015625 210.935791015625 458.03594970703125 C 210.935791015625 463.3753662109375 209.9776611328125 467.2772216796875 208.0611572265625 469.7415771484375 C 206.281494140625 472.2059326171875 203.33837890625 473.9857177734375 199.2315673828125 475.08099365234375 C 195.2615966796875 476.03936767578125 188.964599609375 476.5870361328125 180.3404541015625 476.723876953125 C 171.85302734375 476.86083984375 159.7381591796875 476.92926025390625 143.9954833984375 476.92926025390625 C 143.7216796875 475.69708251953125 143.105712890625 474.05419921875 142.1474609375 472.0006103515625 C 141.1893310546875 470.0838623046875 140.23095703125 468.1671142578125 139.272705078125 466.25042724609375 C 152.140625 466.52423095703125 163.2288818359375 466.6611328125 172.53759765625 466.6611328125 C 181.8463134765625 466.6611328125 187.93798828125 466.52423095703125 190.812744140625 466.25042724609375 C 193.6873779296875 466.113525390625 195.809326171875 465.4974365234375 197.17822265625 464.40216064453125 C 198.547119140625 463.306884765625 199.2315673828125 461.32177734375 199.2315673828125 458.4466552734375 C 199.2315673828125 378.8345947265625 199.2315673828125 299.22247314453125 199.2315673828125 219.61038208007812M 278.697509765625 143.83172607421875 C 279.65576171875 143.83172607421875 280.614013671875 143.83172607421875 281.572265625 143.83172607421875 C 282.3251953125 143.55789184570312 283.078125 143.28408813476562 283.8309326171875 143.01028442382812 C 286.63720703125 144.72164916992188 289.443603515625 146.4329833984375 292.2498779296875 148.14431762695312 C 285.4051513671875 158.41244506835938 277.32861328125 168.7490234375 268.0198974609375 179.15402221679688 C 258.711181640625 189.55905151367188 248.991943359375 199.279541015625 238.86181640625 208.31546020507812 C 228.7318115234375 217.35140991210938 218.944091796875 225.29205322265625 209.49853515625 232.13748168945312 C 208.4033203125 230.7684326171875 207.034423828125 229.4677734375 205.3917236328125 228.235595703125 C 203.8858642578125 226.86651611328125 202.448486328125 225.771240234375 201.07958984375 224.9498291015625 C 210.525146484375 218.37823486328125 220.1075439453125 210.71136474609375 229.8270263671875 201.94921875 C 239.54638671875 193.1871337890625 248.7181396484375 183.94583129882812 257.34228515625 174.225341796875 C 266.1033935546875 164.50485229492188 273.221923828125 155.12664794921875 278.697509765625 146.0906982421875 C 278.697509765625 145.33773803710938 278.697509765625 144.584716796875 278.697509765625 143.83172607421875M 323.6666259765625 196.1990966796875 C 375.3433837890625 196.1990966796875 427.0203857421875 196.1990966796875 478.6971435546875 196.1990966796875 C 478.6971435546875 200.03253173828125 478.6971435546875 203.865966796875 478.6971435546875 207.69940185546875 C 427.0203857421875 207.69940185546875 375.3433837890625 207.69940185546875 323.6666259765625 207.69940185546875 C 323.6666259765625 203.865966796875 323.6666259765625 200.03253173828125 323.6666259765625 196.1990966796875M 343.379150390625 122.47406005859375 C 347.2120361328125 123.29550170898438 351.045166015625 124.116943359375 354.8780517578125 124.93838500976562 C 349.4024658203125 144.65316772460938 342.9000244140625 163.8203125 335.3709716796875 182.4398193359375 C 327.8419189453125 201.059326171875 319.6282958984375 218.51513671875 310.7303466796875 234.80718994140625 C 301.832275390625 250.96234130859375 292.2498779296875 265.33770751953125 281.98291015625 277.9332580566406 C 281.4354248046875 277.3856201171875 280.47705078125 276.63262939453125 279.108154296875 275.67425537109375 C 277.876220703125 274.7159118652344 276.57568359375 273.89447021484375 275.206787109375 273.2099304199219 C 273.9747314453125 272.38848876953125 272.8111572265625 271.7039489746094 271.716064453125 271.15631103515625 C 282.2567138671875 258.8345947265625 291.97607421875 244.801513671875 300.8740234375 229.05706787109375 C 309.7720947265625 213.17568969726562 317.8486328125 196.1990966796875 325.10400390625 178.12722778320312 C 332.359375 159.91845703125 338.4510498046875 141.36737060546875 343.379150390625 122.47406005859375M 434.54931640625 198.6634521484375 C 438.4508056640625 199.279541015625 442.3521728515625 199.8956298828125 446.253662109375 200.51171875 C 437.9033203125 247.88192749023438 426.1304931640625 289.0912780761719 410.9354248046875 324.1397705078125 C 395.8773193359375 359.05133056640625 376.096435546875 389.03424072265625 351.5926513671875 414.08837890625 C 327.225830078125 439.142578125 296.767333984375 460.3634033203125 260.217041015625 477.750732421875 C 259.6695556640625 476.65545654296875 258.84814453125 475.49169921875 257.7530517578125 474.259521484375 C 256.7947998046875 473.164306640625 255.76806640625 471.93212890625 254.6729736328125 470.56304931640625 C 253.7147216796875 469.33087158203125 252.8248291015625 468.3040771484375 252.0035400390625 467.48260498046875 C 288.5537109375 451.46435546875 318.738525390625 431.3388671875 342.5577392578125 407.1060791015625 C 366.513916015625 382.7364501953125 385.747314453125 353.4381103515625 400.2578125 319.2110595703125 C 414.9053955078125 284.84710693359375 426.3358154296875 244.66458129882812 434.54931640625 198.6634521484375M 321.818603515625 209.9583740234375 C 329.6214599609375 249.935546875 340.4359130859375 287.1061096191406 354.2620849609375 321.4700927734375 C 368.0882568359375 355.69708251953125 385.4735107421875 385.33770751953125 406.41796875 410.39190673828125 C 427.4993896484375 435.3092041015625 452.7559814453125 454.06561279296875 482.1878662109375 466.6611328125 C 481.3665771484375 467.48260498046875 480.33984375 468.44091796875 479.1077880859375 469.5362548828125 C 478.0126953125 470.7684326171875 476.9176025390625 471.93212890625 475.8223876953125 473.02734375 C 474.8641357421875 474.1226806640625 473.974365234375 475.1494140625 473.1529541015625 476.1077880859375 C 443.7210693359375 462.55389404296875 418.3961181640625 442.97607421875 397.177734375 417.37420654296875 C 376.096435546875 391.635498046875 358.5057373046875 361.3787841796875 344.40576171875 326.6041259765625 C 330.305908203125 291.6925354003906 319.2176513671875 253.632080078125 311.1409912109375 212.4227294921875 C 314.7001953125 211.60125732421875 318.2593994140625 210.77981567382812 321.818603515625 209.9583740234375"/>
  </g>
</svg>
