<?xml version="1.0" encoding="utf-8"?>
<svg xmlns="http://www.w3.org/2000/svg" xmlns:ev="http://www.w3.org/2001/xml-events" xmlns:xlink="http://www.w3.org/1999/xlink" version="1.1" baseProfile="full" width="22823.0" height="1740.0" viewBox="106.0 -1596.0 22823.0 1740.0">
<defs/>
<g><path d="M 1035.000000 -1023.000000 C 1063.000000 -1041.000000 1090.666667 -1060.333333 1118.000000 -1081.000000 C 1146.000000 -1101.666667 1167.666667 -1118.333333 1183.000000 -1131.000000 C 1154.333333 -1157.666667 1115.000000 -1187.000000 1065.000000 -1219.000000 C 1015.666667 -1251.000000 962.333333 -1282.333333 905.000000 -1313.000000 C 848.333333 -1343.666667 795.000000 -1370.000000 745.000000 -1392.000000 C 756.666667 -1406.666667 768.333333 -1421.333333 780.000000 -1436.000000 C 826.000000 -1415.333333 877.666667 -1389.000000 935.000000 -1357.000000 C 992.333333 -1325.000000 1048.333333 -1292.000000 1103.000000 -1258.000000 C 1157.666667 -1224.666667 1201.000000 -1193.333333 1233.000000 -1164.000000 C 1238.000000 -1148.000000 1243.000000 -1132.000000 1248.000000 -1116.000000 C 1238.000000 -1106.666667 1226.000000 -1096.666667 1212.000000 -1086.000000 C 1198.666667 -1076.000000 1184.333333 -1065.333333 1169.000000 -1054.000000 C 1153.666667 -1042.666667 1138.000000 -1030.666667 1122.000000 -1018.000000 C 1106.000000 -1006.000000 1089.666667 -994.333333 1073.000000 -983.000000 C 1060.333333 -996.333333 1047.666667 -1009.666667 1035.000000 -1023.000000z M 620.000000 -75.000000 C 664.666667 -62.333333 711.333333 -52.000000 760.000000 -44.000000 C 808.666667 -36.666667 870.333333 -33.000000 945.000000 -33.000000 C 971.666667 -33.000000 1002.333333 -38.000000 1037.000000 -48.000000 C 1071.666667 -58.000000 1102.000000 -77.333333 1128.000000 -106.000000 C 1154.000000 -135.333333 1167.000000 -176.000000 1167.000000 -228.000000 C 1167.000000 -264.000000 1159.000000 -301.333333 1143.000000 -340.000000 C 1127.000000 -379.333333 1105.666667 -418.666667 1079.000000 -458.000000 C 1052.333333 -498.000000 1023.000000 -537.666667 991.000000 -577.000000 C 959.000000 -617.000000 927.000000 -655.666667 895.000000 -693.000000 C 877.000000 -715.000000 856.000000 -738.000000 832.000000 -762.000000 C 808.666667 -786.666667 786.000000 -809.666667 764.000000 -831.000000 C 777.333333 -844.666667 790.666667 -858.333333 804.000000 -872.000000 C 822.000000 -851.333333 842.333333 -828.000000 865.000000 -802.000000 C 887.666667 -776.666667 909.000000 -752.666667 929.000000 -730.000000 C 980.333333 -673.333333 1028.333333 -616.666667 1073.000000 -560.000000 C 1117.666667 -504.000000 1153.666667 -447.666667 1181.000000 -391.000000 C 1209.000000 -335.000000 1223.000000 -279.000000 1223.000000 -223.000000 C 1223.000000 -169.000000 1212.333333 -125.666667 1191.000000 -93.000000 C 1170.333333 -60.333333 1144.666667 -36.000000 1114.000000 -20.000000 C 1083.333333 -4.000000 1052.000000 6.666667 1020.000000 12.000000 C 988.666667 18.000000 963.666667 21.000000 945.000000 21.000000 C 875.666667 21.000000 815.333333 17.666667 764.000000 11.000000 C 712.666667 5.000000 667.333333 -2.000000 628.000000 -10.000000 C 625.333333 -31.666667 622.666667 -53.333333 620.000000 -75.000000z M 1772.000000 -79.000000 C 1756.666667 -122.333333 1736.666667 -170.000000 1712.000000 -222.000000 C 1688.000000 -274.666667 1661.000000 -328.000000 1631.000000 -382.000000 C 1601.000000 -436.000000 1569.333333 -487.000000 1536.000000 -535.000000 C 1502.666667 -583.000000 1468.666667 -624.333333 1434.000000 -659.000000 C 1448.666667 -669.000000 1463.333333 -679.000000 1478.000000 -689.000000 C 1514.000000 -648.333333 1549.333333 -603.000000 1584.000000 -553.000000 C 1618.666667 -503.000000 1651.333333 -451.333333 1682.000000 -398.000000 C 1712.666667 -345.333333 1740.000000 -294.000000 1764.000000 -244.000000 C 1788.666667 -194.000000 1808.666667 -149.000000 1824.000000 -109.000000 C 1806.666667 -99.000000 1789.333333 -89.000000 1772.000000 -79.000000z M 634.000000 -463.000000 C 595.333333 -424.333333 548.333333 -381.333333 493.000000 -334.000000 C 438.333333 -286.666667 380.333333 -240.666667 319.000000 -196.000000 C 257.666667 -151.333333 198.666667 -113.000000 142.000000 -81.000000 C 130.000000 -97.000000 118.000000 -113.000000 106.000000 -129.000000 C 144.000000 -149.000000 186.000000 -174.333333 232.000000 -205.000000 C 278.000000 -236.333333 324.000000 -269.333333 370.000000 -304.000000 C 416.666667 -339.333333 460.000000 -374.666667 500.000000 -410.000000 C 540.666667 -445.333333 573.666667 -477.000000 599.000000 -505.000000 C 610.666667 -491.000000 622.333333 -477.000000 634.000000 -463.000000z "/>
</g>
<g><path d="M 2966.000000 -38.000000 C 2968.666667 -50.000000 2971.000000 -62.333333 2973.000000 -75.000000 C 2975.000000 -87.666667 2976.000000 -100.333333 2976.000000 -113.000000 C 2976.000000 -123.666667 2976.000000 -151.333333 2976.000000 -196.000000 C 2976.000000 -240.666667 2976.000000 -296.666667 2976.000000 -364.000000 C 2976.000000 -431.333333 2976.000000 -504.000000 2976.000000 -582.000000 C 2976.000000 -660.000000 2976.000000 -738.333333 2976.000000 -817.000000 C 2976.000000 -895.666667 2976.000000 -968.666667 2976.000000 -1036.000000 C 2976.000000 -1103.333333 2976.000000 -1160.000000 2976.000000 -1206.000000 C 2976.000000 -1252.000000 2976.000000 -1281.333333 2976.000000 -1294.000000 C 2976.000000 -1323.333333 2975.333333 -1347.333333 2974.000000 -1366.000000 C 2972.666667 -1384.666667 2971.333333 -1400.333333 2970.000000 -1413.000000 C 2993.000000 -1413.000000 3016.000000 -1413.000000 3039.000000 -1413.000000 C 3037.666667 -1400.333333 3036.666667 -1384.666667 3036.000000 -1366.000000 C 3036.000000 -1347.333333 3036.000000 -1323.333333 3036.000000 -1294.000000 C 3036.000000 -1281.333333 3036.000000 -1250.333333 3036.000000 -1201.000000 C 3036.000000 -1151.666667 3036.000000 -1090.333333 3036.000000 -1017.000000 C 3036.000000 -944.333333 3036.000000 -865.666667 3036.000000 -781.000000 C 3036.000000 -697.000000 3036.000000 -614.000000 3036.000000 -532.000000 C 3036.000000 -450.000000 3036.000000 -375.000000 3036.000000 -307.000000 C 3036.000000 -239.000000 3036.000000 -184.666667 3036.000000 -144.000000 C 3036.000000 -103.333333 3036.000000 -83.000000 3036.000000 -83.000000 C 3102.000000 -115.000000 3174.666667 -157.000000 3254.000000 -209.000000 C 3333.333333 -261.666667 3410.666667 -323.000000 3486.000000 -393.000000 C 3562.000000 -463.666667 3627.000000 -540.000000 3681.000000 -622.000000 C 3693.000000 -605.333333 3705.000000 -588.666667 3717.000000 -572.000000 C 3659.666667 -491.333333 3594.333333 -417.000000 3521.000000 -349.000000 C 3448.333333 -281.666667 3372.333333 -221.333333 3293.000000 -168.000000 C 3213.666667 -114.666667 3135.666667 -69.666667 3059.000000 -33.000000 C 3047.000000 -27.666667 3036.666667 -22.000000 3028.000000 -16.000000 C 3020.000000 -10.666667 3013.666667 -6.000000 3009.000000 -2.000000 C 2994.666667 -14.000000 2980.333333 -26.000000 2966.000000 -38.000000z M 2097.000000 -29.000000 C 2173.666667 -85.000000 2241.666667 -153.666667 2301.000000 -235.000000 C 2360.333333 -316.333333 2406.000000 -409.000000 2438.000000 -513.000000 C 2452.666667 -560.333333 2464.000000 -618.000000 2472.000000 -686.000000 C 2480.000000 -754.666667 2485.666667 -826.666667 2489.000000 -902.000000 C 2492.333333 -978.000000 2494.333333 -1050.666667 2495.000000 -1120.000000 C 2495.666667 -1190.000000 2496.000000 -1250.000000 2496.000000 -1300.000000 C 2496.000000 -1318.000000 2495.333333 -1335.333333 2494.000000 -1352.000000 C 2492.666667 -1368.666667 2490.666667 -1385.333333 2488.000000 -1402.000000 C 2511.666667 -1402.000000 2535.333333 -1402.000000 2559.000000 -1402.000000 C 2557.666667 -1390.000000 2556.666667 -1378.333333 2556.000000 -1367.000000 C 2556.000000 -1355.666667 2555.666667 -1344.333333 2555.000000 -1333.000000 C 2554.333333 -1322.333333 2554.000000 -1311.333333 2554.000000 -1300.000000 C 2554.000000 -1250.000000 2553.333333 -1189.333333 2552.000000 -1118.000000 C 2550.666667 -1047.333333 2547.666667 -972.666667 2543.000000 -894.000000 C 2538.333333 -815.333333 2532.000000 -740.666667 2524.000000 -670.000000 C 2516.666667 -599.333333 2506.000000 -540.333333 2492.000000 -493.000000 C 2464.000000 -396.333333 2420.000000 -303.666667 2360.000000 -215.000000 C 2300.666667 -127.000000 2231.333333 -52.000000 2152.000000 10.000000 C 2133.666667 -3.000000 2115.333333 -16.000000 2097.000000 -29.000000z "/>
</g>
<g><path d="M 5282.000000 -1500.000000 C 5298.666667 -1478.000000 5316.333333 -1451.666667 5335.000000 -1421.000000 C 5354.333333 -1390.333333 5373.666667 -1359.000000 5393.000000 -1327.000000 C 5412.333333 -1295.000000 5429.000000 -1264.666667 5443.000000 -1236.000000 C 5425.000000 -1227.333333 5407.000000 -1218.666667 5389.000000 -1210.000000 C 5371.666667 -1248.000000 5347.000000 -1292.666667 5315.000000 -1344.000000 C 5283.666667 -1395.333333 5255.333333 -1439.000000 5230.000000 -1475.000000 C 5247.333333 -1483.333333 5264.666667 -1491.666667 5282.000000 -1500.000000z M 5476.000000 -1567.000000 C 5494.000000 -1543.666667 5513.000000 -1516.333333 5533.000000 -1485.000000 C 5553.666667 -1453.666667 5574.000000 -1422.333333 5594.000000 -1391.000000 C 5614.000000 -1359.666667 5630.333333 -1331.333333 5643.000000 -1306.000000 C 5625.000000 -1297.000000 5607.000000 -1288.000000 5589.000000 -1279.000000 C 5567.000000 -1322.333333 5541.333333 -1368.000000 5512.000000 -1416.000000 C 5482.666667 -1464.000000 5454.000000 -1506.000000 5426.000000 -1542.000000 C 5442.666667 -1550.333333 5459.333333 -1558.666667 5476.000000 -1567.000000z M 5364.000000 -1158.000000 C 5359.333333 -1148.666667 5354.666667 -1136.666667 5350.000000 -1122.000000 C 5345.333333 -1107.333333 5342.000000 -1097.000000 5340.000000 -1091.000000 C 5323.333333 -1019.000000 5298.333333 -943.333333 5265.000000 -864.000000 C 5231.666667 -784.666667 5192.000000 -706.000000 5146.000000 -628.000000 C 5100.666667 -550.000000 5050.000000 -477.000000 4994.000000 -409.000000 C 4910.666667 -307.666667 4808.666667 -214.000000 4688.000000 -128.000000 C 4568.000000 -42.666667 4418.333333 31.333333 4239.000000 94.000000 C 4222.000000 77.333333 4205.000000 60.666667 4188.000000 44.000000 C 4292.666667 14.666667 4391.000000 -24.333333 4483.000000 -73.000000 C 4575.000000 -121.666667 4660.333333 -177.333333 4739.000000 -240.000000 C 4818.333333 -302.666667 4888.000000 -370.666667 4948.000000 -444.000000 C 5004.000000 -511.333333 5054.333333 -584.000000 5099.000000 -662.000000 C 5144.333333 -740.666667 5183.333333 -819.333333 5216.000000 -898.000000 C 5248.666667 -976.666667 5272.666667 -1050.333333 5288.000000 -1119.000000 C 5029.333333 -1119.000000 4770.666667 -1119.000000 4512.000000 -1119.000000 C 4523.666667 -1138.333333 4535.333333 -1157.666667 4547.000000 -1177.000000 C 4561.000000 -1177.000000 4591.000000 -1177.000000 4637.000000 -1177.000000 C 4683.000000 -1177.000000 4736.333333 -1177.000000 4797.000000 -1177.000000 C 4857.666667 -1177.000000 4918.333333 -1177.000000 4979.000000 -1177.000000 C 5040.333333 -1177.000000 5093.333333 -1177.000000 5138.000000 -1177.000000 C 5182.666667 -1177.000000 5210.666667 -1177.000000 5222.000000 -1177.000000 C 5244.000000 -1177.000000 5261.333333 -1178.000000 5274.000000 -1180.000000 C 5286.666667 -1182.000000 5297.666667 -1185.333333 5307.000000 -1190.000000 C 5326.000000 -1179.333333 5345.000000 -1168.666667 5364.000000 -1158.000000z M 4704.000000 -1434.000000 C 4695.333333 -1417.333333 4686.333333 -1399.333333 4677.000000 -1380.000000 C 4668.333333 -1361.333333 4660.000000 -1344.333333 4652.000000 -1329.000000 C 4620.000000 -1265.000000 4578.000000 -1193.333333 4526.000000 -1114.000000 C 4474.666667 -1034.666667 4409.333333 -954.000000 4330.000000 -872.000000 C 4251.333333 -790.000000 4155.333333 -711.666667 4042.000000 -637.000000 C 4024.666667 -650.000000 4007.333333 -663.000000 3990.000000 -676.000000 C 4072.000000 -723.333333 4146.000000 -776.666667 4212.000000 -836.000000 C 4278.666667 -895.333333 4337.666667 -956.333333 4389.000000 -1019.000000 C 4440.333333 -1082.333333 4483.666667 -1143.000000 4519.000000 -1201.000000 C 4554.333333 -1259.000000 4580.666667 -1310.666667 4598.000000 -1356.000000 C 4603.333333 -1366.000000 4609.333333 -1381.333333 4616.000000 -1402.000000 C 4623.333333 -1423.333333 4628.333333 -1442.333333 4631.000000 -1459.000000 C 4655.333333 -1450.666667 4679.666667 -1442.333333 4704.000000 -1434.000000z "/>
</g>
<g><path d="M 6806.000000 -38.000000 C 6808.666667 -50.000000 6811.000000 -62.333333 6813.000000 -75.000000 C 6815.000000 -87.666667 6816.000000 -100.333333 6816.000000 -113.000000 C 6816.000000 -123.666667 6816.000000 -151.333333 6816.000000 -196.000000 C 6816.000000 -240.666667 6816.000000 -296.666667 6816.000000 -364.000000 C 6816.000000 -431.333333 6816.000000 -504.000000 6816.000000 -582.000000 C 6816.000000 -660.000000 6816.000000 -738.333333 6816.000000 -817.000000 C 6816.000000 -895.666667 6816.000000 -968.666667 6816.000000 -1036.000000 C 6816.000000 -1103.333333 6816.000000 -1160.000000 6816.000000 -1206.000000 C 6816.000000 -1252.000000 6816.000000 -1281.333333 6816.000000 -1294.000000 C 6816.000000 -1323.333333 6815.333333 -1347.333333 6814.000000 -1366.000000 C 6812.666667 -1384.666667 6811.333333 -1400.333333 6810.000000 -1413.000000 C 6833.000000 -1413.000000 6856.000000 -1413.000000 6879.000000 -1413.000000 C 6877.666667 -1400.333333 6876.666667 -1384.666667 6876.000000 -1366.000000 C 6876.000000 -1347.333333 6876.000000 -1323.333333 6876.000000 -1294.000000 C 6876.000000 -1281.333333 6876.000000 -1250.333333 6876.000000 -1201.000000 C 6876.000000 -1151.666667 6876.000000 -1090.333333 6876.000000 -1017.000000 C 6876.000000 -944.333333 6876.000000 -865.666667 6876.000000 -781.000000 C 6876.000000 -697.000000 6876.000000 -614.000000 6876.000000 -532.000000 C 6876.000000 -450.000000 6876.000000 -375.000000 6876.000000 -307.000000 C 6876.000000 -239.000000 6876.000000 -184.666667 6876.000000 -144.000000 C 6876.000000 -103.333333 6876.000000 -83.000000 6876.000000 -83.000000 C 6942.000000 -115.000000 7014.666667 -157.000000 7094.000000 -209.000000 C 7173.333333 -261.666667 7250.666667 -323.000000 7326.000000 -393.000000 C 7402.000000 -463.666667 7467.000000 -540.000000 7521.000000 -622.000000 C 7533.000000 -605.333333 7545.000000 -588.666667 7557.000000 -572.000000 C 7499.666667 -491.333333 7434.333333 -417.000000 7361.000000 -349.000000 C 7288.333333 -281.666667 7212.333333 -221.333333 7133.000000 -168.000000 C 7053.666667 -114.666667 6975.666667 -69.666667 6899.000000 -33.000000 C 6887.000000 -27.666667 6876.666667 -22.000000 6868.000000 -16.000000 C 6860.000000 -10.666667 6853.666667 -6.000000 6849.000000 -2.000000 C 6834.666667 -14.000000 6820.333333 -26.000000 6806.000000 -38.000000z M 5937.000000 -29.000000 C 6013.666667 -85.000000 6081.666667 -153.666667 6141.000000 -235.000000 C 6200.333333 -316.333333 6246.000000 -409.000000 6278.000000 -513.000000 C 6292.666667 -560.333333 6304.000000 -618.000000 6312.000000 -686.000000 C 6320.000000 -754.666667 6325.666667 -826.666667 6329.000000 -902.000000 C 6332.333333 -978.000000 6334.333333 -1050.666667 6335.000000 -1120.000000 C 6335.666667 -1190.000000 6336.000000 -1250.000000 6336.000000 -1300.000000 C 6336.000000 -1318.000000 6335.333333 -1335.333333 6334.000000 -1352.000000 C 6332.666667 -1368.666667 6330.666667 -1385.333333 6328.000000 -1402.000000 C 6351.666667 -1402.000000 6375.333333 -1402.000000 6399.000000 -1402.000000 C 6397.666667 -1390.000000 6396.666667 -1378.333333 6396.000000 -1367.000000 C 6396.000000 -1355.666667 6395.666667 -1344.333333 6395.000000 -1333.000000 C 6394.333333 -1322.333333 6394.000000 -1311.333333 6394.000000 -1300.000000 C 6394.000000 -1250.000000 6393.333333 -1189.333333 6392.000000 -1118.000000 C 6390.666667 -1047.333333 6387.666667 -972.666667 6383.000000 -894.000000 C 6378.333333 -815.333333 6372.000000 -740.666667 6364.000000 -670.000000 C 6356.666667 -599.333333 6346.000000 -540.333333 6332.000000 -493.000000 C 6304.000000 -396.333333 6260.000000 -303.666667 6200.000000 -215.000000 C 6140.666667 -127.000000 6071.333333 -52.000000 5992.000000 10.000000 C 5973.666667 -3.000000 5955.333333 -16.000000 5937.000000 -29.000000z "/>
</g>
<g><path d="M 9229.000000 -1350.000000 C 9229.000000 -1310.000000 9242.666667 -1276.333333 9270.000000 -1249.000000 C 9298.000000 -1221.666667 9332.000000 -1208.000000 9372.000000 -1208.000000 C 9411.333333 -1208.000000 9445.000000 -1221.666667 9473.000000 -1249.000000 C 9501.666667 -1276.333333 9516.000000 -1310.000000 9516.000000 -1350.000000 C 9516.000000 -1389.333333 9501.666667 -1423.000000 9473.000000 -1451.000000 C 9445.000000 -1479.666667 9411.333333 -1494.000000 9372.000000 -1494.000000 C 9332.000000 -1494.000000 9298.000000 -1479.666667 9270.000000 -1451.000000 C 9242.666667 -1423.000000 9229.000000 -1389.333333 9229.000000 -1350.000000z M 9172.000000 -1350.000000 C 9172.000000 -1386.666667 9181.000000 -1420.333333 9199.000000 -1451.000000 C 9217.000000 -1482.333333 9241.000000 -1506.666667 9271.000000 -1524.000000 C 9301.000000 -1542.000000 9334.666667 -1551.000000 9372.000000 -1551.000000 C 9408.666667 -1551.000000 9442.333333 -1542.000000 9473.000000 -1524.000000 C 9503.666667 -1506.666667 9528.000000 -1482.333333 9546.000000 -1451.000000 C 9564.000000 -1420.333333 9573.000000 -1386.666667 9573.000000 -1350.000000 C 9573.000000 -1312.666667 9564.000000 -1279.000000 9546.000000 -1249.000000 C 9528.000000 -1219.000000 9503.666667 -1195.000000 9473.000000 -1177.000000 C 9442.333333 -1159.000000 9408.666667 -1150.000000 9372.000000 -1150.000000 C 9334.666667 -1150.000000 9301.000000 -1159.000000 9271.000000 -1177.000000 C 9241.000000 -1195.000000 9217.000000 -1219.000000 9199.000000 -1249.000000 C 9181.000000 -1279.000000 9172.000000 -1312.666667 9172.000000 -1350.000000z M 9272.000000 -1244.000000 C 9268.000000 -1235.333333 9265.000000 -1227.666667 9263.000000 -1221.000000 C 9261.000000 -1215.000000 9258.666667 -1203.000000 9256.000000 -1185.000000 C 9247.333333 -1131.000000 9234.333333 -1072.000000 9217.000000 -1008.000000 C 9199.666667 -944.000000 9178.666667 -879.000000 9154.000000 -813.000000 C 9130.000000 -747.000000 9102.666667 -684.333333 9072.000000 -625.000000 C 9041.333333 -565.666667 9008.000000 -513.333333 8972.000000 -468.000000 C 8913.333333 -395.333333 8850.000000 -328.333333 8782.000000 -267.000000 C 8714.000000 -205.666667 8635.333333 -150.333333 8546.000000 -101.000000 C 8457.333333 -51.666667 8353.000000 -8.333333 8233.000000 29.000000 C 8215.666667 9.666667 8198.333333 -9.666667 8181.000000 -29.000000 C 8303.000000 -62.333333 8409.000000 -102.000000 8499.000000 -148.000000 C 8589.000000 -194.000000 8669.000000 -246.666667 8739.000000 -306.000000 C 8809.000000 -366.000000 8871.333333 -431.666667 8926.000000 -503.000000 C 8974.666667 -565.666667 9017.666667 -639.333333 9055.000000 -724.000000 C 9093.000000 -808.666667 9124.666667 -894.000000 9150.000000 -980.000000 C 9176.000000 -1066.666667 9193.666667 -1144.000000 9203.000000 -1212.000000 C 9185.000000 -1212.000000 9148.333333 -1212.000000 9093.000000 -1212.000000 C 9038.333333 -1212.000000 8972.666667 -1212.000000 8896.000000 -1212.000000 C 8820.000000 -1212.000000 8740.333333 -1212.000000 8657.000000 -1212.000000 C 8573.666667 -1212.000000 8494.666667 -1212.000000 8420.000000 -1212.000000 C 8345.333333 -1212.000000 8282.000000 -1212.000000 8230.000000 -1212.000000 C 8178.000000 -1212.000000 8145.666667 -1212.000000 8133.000000 -1212.000000 C 8101.000000 -1212.000000 8073.333333 -1211.666667 8050.000000 -1211.000000 C 8027.333333 -1210.333333 8004.000000 -1209.333333 7980.000000 -1208.000000 C 7980.000000 -1231.000000 7980.000000 -1254.000000 7980.000000 -1277.000000 C 7996.000000 -1275.666667 8011.666667 -1274.000000 8027.000000 -1272.000000 C 8043.000000 -1270.000000 8059.666667 -1268.666667 8077.000000 -1268.000000 C 8095.000000 -1267.333333 8114.333333 -1267.000000 8135.000000 -1267.000000 C 8145.000000 -1267.000000 8170.000000 -1267.000000 8210.000000 -1267.000000 C 8250.666667 -1267.000000 8300.666667 -1267.000000 8360.000000 -1267.000000 C 8420.000000 -1267.000000 8484.333333 -1267.000000 8553.000000 -1267.000000 C 8622.333333 -1267.000000 8691.333333 -1267.000000 8760.000000 -1267.000000 C 8828.666667 -1267.000000 8892.333333 -1267.000000 8951.000000 -1267.000000 C 9009.666667 -1267.000000 9058.666667 -1267.000000 9098.000000 -1267.000000 C 9138.000000 -1267.000000 9162.666667 -1267.000000 9172.000000 -1267.000000 C 9182.000000 -1267.000000 9191.000000 -1267.333333 9199.000000 -1268.000000 C 9207.666667 -1268.666667 9217.333333 -1270.333333 9228.000000 -1273.000000 C 9242.666667 -1263.333333 9257.333333 -1253.666667 9272.000000 -1244.000000z "/>
</g>
<g><path d="M 9738.000000 -1369.000000 C 10288.333333 -1369.000000 10838.666667 -1369.000000 11389.000000 -1369.000000 C 11389.000000 -1349.666667 11389.000000 -1330.333333 11389.000000 -1311.000000 C 10838.666667 -1311.000000 10288.333333 -1311.000000 9738.000000 -1311.000000 C 9738.000000 -1330.333333 9738.000000 -1349.666667 9738.000000 -1369.000000z M 9913.000000 -1050.000000 C 10348.333333 -1050.000000 10783.666667 -1050.000000 11219.000000 -1050.000000 C 11219.000000 -1031.666667 11219.000000 -1013.333333 11219.000000 -995.000000 C 10783.666667 -995.000000 10348.333333 -995.000000 9913.000000 -995.000000 C 9913.000000 -1013.333333 9913.000000 -1031.666667 9913.000000 -1050.000000z M 9813.000000 -781.000000 C 10311.000000 -781.000000 10809.000000 -781.000000 11307.000000 -781.000000 C 11307.000000 -673.000000 11307.000000 -565.000000 11307.000000 -457.000000 C 11288.333333 -457.000000 11269.666667 -457.000000 11251.000000 -457.000000 C 11251.000000 -546.000000 11251.000000 -635.000000 11251.000000 -724.000000 C 10790.333333 -724.000000 10329.666667 -724.000000 9869.000000 -724.000000 C 9869.000000 -635.000000 9869.000000 -546.000000 9869.000000 -457.000000 C 9850.333333 -457.000000 9831.666667 -457.000000 9813.000000 -457.000000 C 9813.000000 -565.000000 9813.000000 -673.000000 9813.000000 -781.000000z M 10529.000000 -1596.000000 C 10548.333333 -1596.000000 10567.666667 -1596.000000 10587.000000 -1596.000000 C 10587.000000 -1406.333333 10587.000000 -1216.666667 10587.000000 -1027.000000 C 10567.666667 -1027.000000 10548.333333 -1027.000000 10529.000000 -1027.000000 C 10529.000000 -1216.666667 10529.000000 -1406.333333 10529.000000 -1596.000000z M 10748.000000 -593.000000 C 10766.666667 -593.000000 10785.333333 -593.000000 10804.000000 -593.000000 C 10804.000000 -404.333333 10804.000000 -215.666667 10804.000000 -27.000000 C 10804.000000 -2.333333 10810.000000 13.333333 10822.000000 20.000000 C 10834.000000 27.333333 10861.333333 31.000000 10904.000000 31.000000 C 10914.000000 31.000000 10933.333333 31.000000 10962.000000 31.000000 C 10990.666667 31.000000 11022.333333 31.000000 11057.000000 31.000000 C 11091.666667 31.000000 11124.333333 31.000000 11155.000000 31.000000 C 11185.666667 31.000000 11207.333333 31.000000 11220.000000 31.000000 C 11246.000000 31.000000 11265.333333 24.666667 11278.000000 12.000000 C 11290.666667 0.000000 11300.000000 -25.333333 11306.000000 -64.000000 C 11312.000000 -103.333333 11315.333333 -162.666667 11316.000000 -242.000000 C 11321.333333 -238.000000 11327.000000 -234.333333 11333.000000 -231.000000 C 11339.666667 -228.333333 11346.333333 -225.666667 11353.000000 -223.000000 C 11360.333333 -220.333333 11366.666667 -217.666667 11372.000000 -215.000000 C 11369.333333 -133.000000 11363.666667 -70.333333 11355.000000 -27.000000 C 11347.000000 16.333333 11333.000000 46.000000 11313.000000 62.000000 C 11293.666667 78.000000 11264.000000 86.000000 11224.000000 86.000000 C 11216.666667 86.000000 11197.666667 86.000000 11167.000000 86.000000 C 11136.333333 86.000000 11102.000000 86.000000 11064.000000 86.000000 C 11026.000000 86.000000 10992.000000 86.000000 10962.000000 86.000000 C 10932.000000 86.000000 10914.000000 86.000000 10908.000000 86.000000 C 10866.666667 86.000000 10834.333333 83.000000 10811.000000 77.000000 C 10788.333333 71.666667 10772.000000 61.000000 10762.000000 45.000000 C 10752.666667 29.000000 10748.000000 5.000000 10748.000000 -27.000000 C 10748.000000 -215.666667 10748.000000 -404.333333 10748.000000 -593.000000z M 10274.000000 -589.000000 C 10293.333333 -589.000000 10312.666667 -589.000000 10332.000000 -589.000000 C 10322.666667 -489.666667 10306.666667 -401.000000 10284.000000 -323.000000 C 10262.000000 -245.666667 10229.333333 -178.000000 10186.000000 -120.000000 C 10143.333333 -62.000000 10086.333333 -12.333333 10015.000000 29.000000 C 9944.333333 71.000000 9855.333333 105.333333 9748.000000 132.000000 C 9746.666667 127.333333 9743.666667 122.000000 9739.000000 116.000000 C 9734.333333 110.666667 9729.333333 105.000000 9724.000000 99.000000 C 9719.333333 93.000000 9715.000000 88.000000 9711.000000 84.000000 C 9817.666667 58.666667 9905.333333 27.000000 9974.000000 -11.000000 C 10043.333333 -49.666667 10098.333333 -96.333333 10139.000000 -151.000000 C 10180.333333 -206.333333 10211.000000 -270.000000 10231.000000 -342.000000 C 10251.666667 -414.666667 10266.000000 -497.000000 10274.000000 -589.000000z "/>
</g>
<g><path d="M 12420.000000 -927.000000 C 12680.000000 -927.000000 12940.000000 -927.000000 13200.000000 -927.000000 C 13200.000000 -908.666667 13200.000000 -890.333333 13200.000000 -872.000000 C 12940.000000 -872.000000 12680.000000 -872.000000 12420.000000 -872.000000 C 12420.000000 -890.333333 12420.000000 -908.666667 12420.000000 -927.000000z M 11633.000000 -10.000000 C 12198.333333 -10.000000 12763.666667 -10.000000 13329.000000 -10.000000 C 13329.000000 8.666667 13329.000000 27.333333 13329.000000 46.000000 C 12763.666667 46.000000 12198.333333 46.000000 11633.000000 46.000000 C 11633.000000 27.333333 11633.000000 8.666667 11633.000000 -10.000000z M 12386.000000 -1561.000000 C 12404.666667 -1561.000000 12423.333333 -1561.000000 12442.000000 -1561.000000 C 12442.000000 -1035.666667 12442.000000 -510.333333 12442.000000 15.000000 C 12423.333333 15.000000 12404.666667 15.000000 12386.000000 15.000000 C 12386.000000 -510.333333 12386.000000 -1035.666667 12386.000000 -1561.000000z "/>
</g>
<g><path d="M 13987.000000 -27.000000 C 14151.000000 -92.333333 14290.000000 -177.000000 14404.000000 -281.000000 C 14518.000000 -385.666667 14612.000000 -494.333333 14686.000000 -607.000000 C 14761.333333 -723.000000 14818.000000 -839.333333 14856.000000 -956.000000 C 14894.000000 -1072.666667 14921.333333 -1180.333333 14938.000000 -1279.000000 C 14939.333333 -1285.000000 14940.666667 -1297.333333 14942.000000 -1316.000000 C 14944.000000 -1334.666667 14945.000000 -1349.666667 14945.000000 -1361.000000 C 14968.666667 -1358.000000 14992.333333 -1355.000000 15016.000000 -1352.000000 C 15011.333333 -1338.000000 15007.333333 -1323.000000 15004.000000 -1307.000000 C 15000.666667 -1291.000000 14998.333333 -1279.666667 14997.000000 -1273.000000 C 14976.333333 -1156.333333 14945.666667 -1038.000000 14905.000000 -918.000000 C 14864.333333 -798.666667 14808.666667 -684.666667 14738.000000 -576.000000 C 14662.666667 -459.333333 14568.666667 -348.666667 14456.000000 -244.000000 C 14343.333333 -140.000000 14205.666667 -52.333333 14043.000000 19.000000 C 14024.333333 3.666667 14005.666667 -11.666667 13987.000000 -27.000000z M 13789.000000 -1323.000000 C 13808.333333 -1295.000000 13832.333333 -1257.333333 13861.000000 -1210.000000 C 13890.333333 -1163.333333 13920.666667 -1113.333333 13952.000000 -1060.000000 C 13983.333333 -1007.333333 14012.333333 -957.666667 14039.000000 -911.000000 C 14065.666667 -864.333333 14087.333333 -826.333333 14104.000000 -797.000000 C 14086.333333 -786.666667 14068.666667 -776.333333 14051.000000 -766.000000 C 14034.333333 -800.666667 14011.666667 -843.000000 13983.000000 -893.000000 C 13955.000000 -943.000000 13925.000000 -994.333333 13893.000000 -1047.000000 C 13861.000000 -1100.333333 13831.333333 -1149.000000 13804.000000 -1193.000000 C 13776.666667 -1237.666667 13754.000000 -1272.000000 13736.000000 -1296.000000 C 13753.666667 -1305.000000 13771.333333 -1314.000000 13789.000000 -1323.000000z "/>
</g>
<g><path d="M 16959.000000 -1275.000000 C 16955.666667 -1265.666667 16953.000000 -1257.666667 16951.000000 -1251.000000 C 16949.000000 -1245.000000 16946.666667 -1233.000000 16944.000000 -1215.000000 C 16935.333333 -1161.666667 16922.333333 -1103.000000 16905.000000 -1039.000000 C 16887.666667 -975.000000 16866.666667 -910.000000 16842.000000 -844.000000 C 16818.000000 -778.000000 16790.666667 -715.000000 16760.000000 -655.000000 C 16729.333333 -595.666667 16696.000000 -543.666667 16660.000000 -499.000000 C 16601.333333 -426.333333 16538.000000 -359.000000 16470.000000 -297.000000 C 16402.000000 -235.666667 16323.333333 -180.333333 16234.000000 -131.000000 C 16145.333333 -82.333333 16041.000000 -39.333333 15921.000000 -2.000000 C 15903.666667 -21.333333 15886.333333 -40.666667 15869.000000 -60.000000 C 15990.333333 -92.666667 16096.000000 -132.000000 16186.000000 -178.000000 C 16276.666667 -224.666667 16356.666667 -277.666667 16426.000000 -337.000000 C 16496.000000 -396.333333 16558.666667 -462.000000 16614.000000 -534.000000 C 16662.666667 -596.666667 16705.666667 -670.000000 16743.000000 -754.000000 C 16781.000000 -838.666667 16812.666667 -924.000000 16838.000000 -1010.000000 C 16864.000000 -1096.666667 16881.333333 -1174.000000 16890.000000 -1242.000000 C 16872.000000 -1242.000000 16835.333333 -1242.000000 16780.000000 -1242.000000 C 16725.333333 -1242.000000 16660.000000 -1242.000000 16584.000000 -1242.000000 C 16508.000000 -1242.000000 16428.333333 -1242.000000 16345.000000 -1242.000000 C 16261.666667 -1242.000000 16182.666667 -1242.000000 16108.000000 -1242.000000 C 16033.333333 -1242.000000 15970.000000 -1242.000000 15918.000000 -1242.000000 C 15866.000000 -1242.000000 15833.666667 -1242.000000 15821.000000 -1242.000000 C 15789.000000 -1242.000000 15761.333333 -1241.666667 15738.000000 -1241.000000 C 15715.333333 -1240.333333 15691.666667 -1239.333333 15667.000000 -1238.000000 C 15667.000000 -1261.333333 15667.000000 -1284.666667 15667.000000 -1308.000000 C 15683.666667 -1306.666667 15699.666667 -1305.000000 15715.000000 -1303.000000 C 15730.333333 -1301.000000 15747.000000 -1299.666667 15765.000000 -1299.000000 C 15783.000000 -1298.333333 15802.333333 -1298.000000 15823.000000 -1298.000000 C 15833.000000 -1298.000000 15858.000000 -1298.000000 15898.000000 -1298.000000 C 15938.666667 -1298.000000 15988.666667 -1298.000000 16048.000000 -1298.000000 C 16108.000000 -1298.000000 16172.333333 -1298.000000 16241.000000 -1298.000000 C 16310.333333 -1298.000000 16379.000000 -1298.000000 16447.000000 -1298.000000 C 16515.666667 -1298.000000 16579.333333 -1298.000000 16638.000000 -1298.000000 C 16697.333333 -1298.000000 16746.666667 -1298.000000 16786.000000 -1298.000000 C 16826.000000 -1298.000000 16850.666667 -1298.000000 16860.000000 -1298.000000 C 16870.000000 -1298.000000 16879.000000 -1298.333333 16887.000000 -1299.000000 C 16895.666667 -1299.666667 16905.000000 -1301.333333 16915.000000 -1304.000000 C 16929.666667 -1294.333333 16944.333333 -1284.666667 16959.000000 -1275.000000z "/>
</g>
<g><path d="M 17476.000000 -2.000000 C 17584.666667 -4.666667 17713.000000 -8.333333 17861.000000 -13.000000 C 18009.666667 -18.333333 18169.000000 -24.000000 18339.000000 -30.000000 C 18509.666667 -36.666667 18680.666667 -44.000000 18852.000000 -52.000000 C 18851.666667 -34.000000 18851.333333 -16.000000 18851.000000 2.000000 C 18684.333333 9.333333 18517.333333 16.666667 18350.000000 24.000000 C 18183.333333 31.333333 18025.333333 37.666667 17876.000000 43.000000 C 17726.666667 49.000000 17596.000000 54.000000 17484.000000 58.000000 C 17481.333333 38.000000 17478.666667 18.000000 17476.000000 -2.000000z M 17453.000000 -616.000000 C 17981.666667 -616.000000 18510.333333 -616.000000 19039.000000 -616.000000 C 19039.000000 -597.000000 19039.000000 -578.000000 19039.000000 -559.000000 C 18510.333333 -559.000000 17981.666667 -559.000000 17453.000000 -559.000000 C 17453.000000 -578.000000 17453.000000 -597.000000 17453.000000 -616.000000z M 17768.000000 -983.000000 C 18079.000000 -983.000000 18390.000000 -983.000000 18701.000000 -983.000000 C 18701.000000 -963.666667 18701.000000 -944.333333 18701.000000 -925.000000 C 18390.000000 -925.000000 18079.000000 -925.000000 17768.000000 -925.000000 C 17768.000000 -944.333333 17768.000000 -963.666667 17768.000000 -983.000000z M 18035.000000 -584.000000 C 18054.666667 -577.333333 18074.333333 -570.666667 18094.000000 -564.000000 C 18064.666667 -501.333333 18032.666667 -434.000000 17998.000000 -362.000000 C 17963.333333 -290.666667 17927.666667 -220.333333 17891.000000 -151.000000 C 17855.000000 -82.333333 17819.666667 -21.000000 17785.000000 33.000000 C 17767.000000 26.333333 17749.000000 19.666667 17731.000000 13.000000 C 17765.666667 -40.333333 17801.666667 -102.000000 17839.000000 -172.000000 C 17877.000000 -242.666667 17913.333333 -314.333333 17948.000000 -387.000000 C 17982.666667 -460.333333 18011.666667 -526.000000 18035.000000 -584.000000z M 18470.000000 -374.000000 C 18484.333333 -383.000000 18498.666667 -392.000000 18513.000000 -401.000000 C 18574.333333 -349.666667 18635.333333 -293.333333 18696.000000 -232.000000 C 18756.666667 -170.666667 18812.333333 -110.000000 18863.000000 -50.000000 C 18913.666667 10.000000 18953.666667 64.333333 18983.000000 113.000000 C 18967.666667 123.333333 18952.333333 133.666667 18937.000000 144.000000 C 18906.333333 95.333333 18865.666667 40.666667 18815.000000 -20.000000 C 18764.333333 -80.666667 18709.333333 -142.333333 18650.000000 -205.000000 C 18590.666667 -268.333333 18530.666667 -324.666667 18470.000000 -374.000000z M 18227.000000 -1536.000000 C 18174.333333 -1454.000000 18104.666667 -1369.666667 18018.000000 -1283.000000 C 17932.000000 -1197.000000 17836.000000 -1115.000000 17730.000000 -1037.000000 C 17624.666667 -959.000000 17516.333333 -890.333333 17405.000000 -831.000000 C 17402.333333 -836.333333 17399.000000 -841.333333 17395.000000 -846.000000 C 17391.000000 -851.333333 17387.000000 -856.666667 17383.000000 -862.000000 C 17379.666667 -867.333333 17375.333333 -872.000000 17370.000000 -876.000000 C 17481.333333 -932.000000 17590.000000 -999.000000 17696.000000 -1077.000000 C 17802.666667 -1155.000000 17899.333333 -1238.333333 17986.000000 -1327.000000 C 18073.333333 -1416.333333 18142.666667 -1505.333333 18194.000000 -1594.000000 C 18212.000000 -1594.000000 18230.000000 -1594.000000 18248.000000 -1594.000000 C 18298.666667 -1522.000000 18358.333333 -1451.000000 18427.000000 -1381.000000 C 18495.666667 -1311.666667 18569.000000 -1245.666667 18647.000000 -1183.000000 C 18725.000000 -1120.333333 18804.333333 -1063.333333 18885.000000 -1012.000000 C 18965.666667 -960.666667 19044.333333 -917.666667 19121.000000 -883.000000 C 19116.333333 -878.333333 19110.000000 -870.666667 19102.000000 -860.000000 C 19094.666667 -850.000000 19088.333333 -841.666667 19083.000000 -835.000000 C 18980.333333 -886.333333 18875.333333 -949.000000 18768.000000 -1023.000000 C 18660.666667 -1097.666667 18559.666667 -1179.000000 18465.000000 -1267.000000 C 18371.000000 -1355.666667 18291.666667 -1445.333333 18227.000000 -1536.000000z "/>
</g>
<g><path d="M 19928.000000 -1321.000000 C 19943.333333 -1328.666667 19958.666667 -1336.333333 19974.000000 -1344.000000 C 20017.333333 -1298.000000 20059.000000 -1247.333333 20099.000000 -1192.000000 C 20139.666667 -1137.333333 20176.000000 -1083.333333 20208.000000 -1030.000000 C 20240.000000 -976.666667 20265.000000 -928.333333 20283.000000 -885.000000 C 20265.666667 -876.000000 20248.333333 -867.000000 20231.000000 -858.000000 C 20214.333333 -902.000000 20190.333333 -951.000000 20159.000000 -1005.000000 C 20127.666667 -1059.666667 20091.666667 -1114.333333 20051.000000 -1169.000000 C 20011.000000 -1224.333333 19970.000000 -1275.000000 19928.000000 -1321.000000z M 19288.000000 -119.000000 C 19353.333333 -147.000000 19429.000000 -180.333333 19515.000000 -219.000000 C 19601.666667 -258.333333 19694.000000 -300.000000 19792.000000 -344.000000 C 19890.000000 -388.666667 19988.333333 -433.333333 20087.000000 -478.000000 C 20091.000000 -460.000000 20095.000000 -442.000000 20099.000000 -424.000000 C 20006.333333 -382.000000 19912.666667 -339.000000 19818.000000 -295.000000 C 19723.333333 -251.666667 19632.333333 -210.000000 19545.000000 -170.000000 C 19458.333333 -130.666667 19380.333333 -95.666667 19311.000000 -65.000000 C 19303.333333 -83.000000 19295.666667 -101.000000 19288.000000 -119.000000z M 20467.000000 -451.000000 C 20481.666667 -460.666667 20496.333333 -470.333333 20511.000000 -480.000000 C 20558.333333 -435.333333 20607.333333 -387.666667 20658.000000 -337.000000 C 20708.666667 -286.333333 20758.333333 -235.000000 20807.000000 -183.000000 C 20855.666667 -131.666667 20900.666667 -82.333333 20942.000000 -35.000000 C 20984.000000 11.666667 21019.000000 53.333333 21047.000000 90.000000 C 21030.333333 102.333333 21013.666667 114.666667 20997.000000 127.000000 C 20969.000000 89.666667 20934.666667 47.333333 20894.000000 0.000000 C 20854.000000 -47.333333 20810.000000 -97.000000 20762.000000 -149.000000 C 20714.000000 -201.666667 20664.666667 -254.000000 20614.000000 -306.000000 C 20563.333333 -358.000000 20514.333333 -406.333333 20467.000000 -451.000000z M 20738.000000 -1507.000000 C 20757.333333 -1504.666667 20776.666667 -1502.333333 20796.000000 -1500.000000 C 20768.666667 -1273.333333 20732.333333 -1073.000000 20687.000000 -899.000000 C 20641.666667 -725.666667 20580.333333 -573.666667 20503.000000 -443.000000 C 20426.333333 -313.000000 20327.666667 -200.333333 20207.000000 -105.000000 C 20086.333333 -9.666667 19937.000000 72.666667 19759.000000 142.000000 C 19756.333333 138.000000 19752.000000 133.000000 19746.000000 127.000000 C 19740.666667 121.666667 19735.000000 116.333333 19729.000000 111.000000 C 19723.000000 106.333333 19717.666667 102.000000 19713.000000 98.000000 C 19891.666667 34.000000 20041.000000 -44.333333 20161.000000 -137.000000 C 20281.666667 -229.666667 20380.000000 -340.666667 20456.000000 -470.000000 C 20532.666667 -599.333333 20592.666667 -749.333333 20636.000000 -920.000000 C 20679.333333 -1091.333333 20713.333333 -1287.000000 20738.000000 -1507.000000z M 19536.000000 -1503.000000 C 19554.000000 -1503.666667 19572.000000 -1504.333333 19590.000000 -1505.000000 C 19598.333333 -1075.000000 19606.666667 -645.000000 19615.000000 -215.000000 C 19596.333333 -214.333333 19577.666667 -213.666667 19559.000000 -213.000000 C 19551.333333 -643.000000 19543.666667 -1073.000000 19536.000000 -1503.000000z "/>
</g>
<g><path d="M 21233.000000 -1452.000000 C 21798.333333 -1452.000000 22363.666667 -1452.000000 22929.000000 -1452.000000 C 22929.000000 -1432.666667 22929.000000 -1413.333333 22929.000000 -1394.000000 C 22363.666667 -1394.000000 21798.333333 -1394.000000 21233.000000 -1394.000000 C 21233.000000 -1413.333333 21233.000000 -1432.666667 21233.000000 -1452.000000z M 22017.000000 -1432.000000 C 22035.333333 -1432.000000 22053.666667 -1432.000000 22072.000000 -1432.000000 C 22072.000000 -910.000000 22072.000000 -388.000000 22072.000000 134.000000 C 22053.666667 134.000000 22035.333333 134.000000 22017.000000 134.000000 C 22017.000000 -388.000000 22017.000000 -910.000000 22017.000000 -1432.000000z M 22053.000000 -987.000000 C 22064.000000 -999.666667 22075.000000 -1012.333333 22086.000000 -1025.000000 C 22148.666667 -995.666667 22213.333333 -963.000000 22280.000000 -927.000000 C 22347.333333 -891.666667 22413.333333 -855.000000 22478.000000 -817.000000 C 22542.666667 -779.000000 22602.666667 -742.333333 22658.000000 -707.000000 C 22714.000000 -672.333333 22762.000000 -640.666667 22802.000000 -612.000000 C 22791.000000 -595.666667 22780.000000 -579.333333 22769.000000 -563.000000 C 22729.666667 -592.333333 22682.000000 -624.666667 22626.000000 -660.000000 C 22570.666667 -696.000000 22510.666667 -733.000000 22446.000000 -771.000000 C 22381.333333 -809.666667 22315.333333 -847.666667 22248.000000 -885.000000 C 22180.666667 -922.333333 22115.666667 -956.333333 22053.000000 -987.000000z "/>
</g>
</svg>
