<?xml version="1.0" encoding="utf-8"?>
<svg xmlns="http://www.w3.org/2000/svg" xmlns:ev="http://www.w3.org/2001/xml-events" xmlns:xlink="http://www.w3.org/1999/xlink" version="1.1" baseProfile="full" width="1730.0" height="1720.0" viewBox="96.0 -1588.0 1730.0 1720.0">
<defs/>
<g><path d="M 925.000000 -1265.000000 C 1225.333333 -1265.000000 1525.666667 -1265.000000 1826.000000 -1265.000000 C 1826.000000 -1246.000000 1826.000000 -1227.000000 1826.000000 -1208.000000 C 1517.000000 -1208.000000 1208.000000 -1208.000000 899.000000 -1208.000000 C 907.666667 -1227.000000 916.333333 -1246.000000 925.000000 -1265.000000z M 1152.000000 -854.000000 C 1364.000000 -854.000000 1576.000000 -854.000000 1788.000000 -854.000000 C 1788.000000 -835.666667 1788.000000 -817.333333 1788.000000 -799.000000 C 1576.000000 -799.000000 1364.000000 -799.000000 1152.000000 -799.000000 C 1152.000000 -817.333333 1152.000000 -835.666667 1152.000000 -854.000000z M 1152.000000 -432.000000 C 1372.666667 -432.000000 1593.333333 -432.000000 1814.000000 -432.000000 C 1814.000000 -412.666667 1814.000000 -393.333333 1814.000000 -374.000000 C 1593.333333 -374.000000 1372.666667 -374.000000 1152.000000 -374.000000 C 1152.000000 -393.333333 1152.000000 -412.666667 1152.000000 -432.000000z M 1125.000000 -1248.000000 C 1144.333333 -1248.000000 1163.666667 -1248.000000 1183.000000 -1248.000000 C 1183.000000 -788.000000 1183.000000 -328.000000 1183.000000 132.000000 C 1163.666667 132.000000 1144.333333 132.000000 1125.000000 132.000000 C 1125.000000 -328.000000 1125.000000 -788.000000 1125.000000 -1248.000000z M 1029.000000 -1567.000000 C 1047.666667 -1562.333333 1066.333333 -1557.666667 1085.000000 -1553.000000 C 1049.000000 -1453.666667 1007.333333 -1356.666667 960.000000 -1262.000000 C 912.666667 -1168.000000 861.666667 -1079.666667 807.000000 -997.000000 C 753.000000 -915.000000 696.333333 -841.333333 637.000000 -776.000000 C 635.000000 -778.666667 631.000000 -782.000000 625.000000 -786.000000 C 619.000000 -790.666667 612.666667 -795.333333 606.000000 -800.000000 C 600.000000 -805.333333 594.333333 -809.333333 589.000000 -812.000000 C 649.666667 -874.666667 706.666667 -946.333333 760.000000 -1027.000000 C 814.000000 -1107.666667 864.000000 -1194.000000 910.000000 -1286.000000 C 956.000000 -1378.666667 995.666667 -1472.333333 1029.000000 -1567.000000z M 612.000000 -1588.000000 C 630.000000 -1582.666667 648.000000 -1577.333333 666.000000 -1572.000000 C 624.000000 -1464.666667 575.000000 -1359.666667 519.000000 -1257.000000 C 463.666667 -1155.000000 403.666667 -1059.333333 339.000000 -970.000000 C 274.333333 -881.333333 207.333333 -802.000000 138.000000 -732.000000 C 135.333333 -735.333333 131.333333 -740.000000 126.000000 -746.000000 C 121.333333 -752.000000 116.333333 -758.000000 111.000000 -764.000000 C 106.333333 -770.666667 101.333333 -775.333333 96.000000 -778.000000 C 165.333333 -844.000000 231.666667 -920.333333 295.000000 -1007.000000 C 358.333333 -1093.666667 417.000000 -1186.333333 471.000000 -1285.000000 C 525.666667 -1384.333333 572.666667 -1485.333333 612.000000 -1588.000000z M 397.000000 -1129.000000 C 415.000000 -1147.666667 433.000000 -1166.333333 451.000000 -1185.000000 C 452.333333 -1183.666667 453.666667 -1182.333333 455.000000 -1181.000000 C 455.000000 -743.666667 455.000000 -306.333333 455.000000 131.000000 C 435.666667 131.000000 416.333333 131.000000 397.000000 131.000000 C 397.000000 -289.000000 397.000000 -709.000000 397.000000 -1129.000000z "/>
</g>
</svg>
