<?xml version="1.0" ?>
<svg xmlns="http://www.w3.org/2000/svg" version="1.1" width="600" height="600">
  <defs/>
  <g>
    <path stroke-width="0" fill="rgb(0, 0, 0)" opacity="1.0" d="M 147.264404296875 161.34255981445312 C 249.8101806640625 161.34255981445312 352.35595703125 161.34255981445312 454.901611328125 161.34255981445312 C 454.901611328125 165.21798706054688 454.901611328125 169.09344482421875 454.901611328125 172.9688720703125 C 352.35595703125 172.9688720703125 249.8101806640625 172.9688720703125 147.264404296875 172.9688720703125 C 147.264404296875 169.09344482421875 147.264404296875 165.21798706054688 147.264404296875 161.34255981445312M 124.01519775390625 257.0519104003906 C 241.36846923828125 257.0519104003906 358.7218017578125 257.0519104003906 476.0750732421875 257.0519104003906 C 476.0750732421875 260.9273376464844 476.0750732421875 264.8027648925781 476.0750732421875 268.67822265625 C 358.7218017578125 268.67822265625 241.36846923828125 268.67822265625 124.01519775390625 268.67822265625 C 124.01519775390625 264.8027648925781 124.01519775390625 260.9273376464844 124.01519775390625 257.0519104003906M 190.2340087890625 381.8270263671875 C 264.61773681640625 381.8270263671875 339.00146484375 381.8270263671875 413.38519287109375 381.8270263671875 C 413.38519287109375 385.8408203125 413.38519287109375 389.85467529296875 413.38519287109375 393.8685302734375 C 339.00146484375 393.8685302734375 264.61773681640625 393.8685302734375 190.2340087890625 393.8685302734375 C 190.2340087890625 389.85467529296875 190.2340087890625 385.8408203125 190.2340087890625 381.8270263671875M 191.0643310546875 452.41522216796875 C 265.44805908203125 452.41522216796875 339.831787109375 452.41522216796875 414.21551513671875 452.41522216796875 C 414.21551513671875 456.2906494140625 414.21551513671875 460.16607666015625 414.21551513671875 464.04150390625 C 339.831787109375 464.04150390625 265.44805908203125 464.04150390625 191.0643310546875 464.04150390625 C 191.0643310546875 460.16607666015625 191.0643310546875 456.2906494140625 191.0643310546875 452.41522216796875M 293.40252685546875 120.6505126953125 C 297.415771484375 120.6505126953125 301.4290771484375 120.6505126953125 305.44232177734375 120.6505126953125 C 305.44232177734375 135.80624389648438 305.44232177734375 150.96194458007812 305.44232177734375 166.11764526367188 C 301.4290771484375 166.11764526367188 297.415771484375 166.11764526367188 293.40252685546875 166.11764526367188 C 293.40252685546875 150.96194458007812 293.40252685546875 135.80624389648438 293.40252685546875 120.6505126953125M 184.6292724609375 314.14532470703125 C 262.61114501953125 314.14532470703125 340.5928955078125 314.14532470703125 418.57476806640625 314.14532470703125 C 418.57476806640625 369.16259765625 418.57476806640625 424.179931640625 418.57476806640625 479.197265625 C 414.69989013671875 479.197265625 410.82501220703125 479.197265625 406.95013427734375 479.197265625 C 406.95013427734375 427.98614501953125 406.95013427734375 376.77508544921875 406.95013427734375 325.56402587890625 C 336.71807861328125 325.56402587890625 266.4859619140625 325.56402587890625 196.25390625 325.56402587890625 C 196.25390625 377.259521484375 196.25390625 428.95501708984375 196.25390625 480.6505126953125 C 192.3790283203125 480.6505126953125 188.504150390625 480.6505126953125 184.6292724609375 480.6505126953125 C 184.6292724609375 425.1488037109375 184.6292724609375 369.6470947265625 184.6292724609375 314.14532470703125M 385.56915283203125 178.57440185546875 C 389.30560302734375 180.02767944335938 393.0421142578125 181.48095703125 396.778564453125 182.93426513671875 C 391.3814697265625 194.42214965820312 385.22314453125 206.67129516601562 378.30377197265625 219.681640625 C 371.38433837890625 232.6920166015625 364.88006591796875 243.83392333984375 358.791015625 253.10726928710938 C 355.60809326171875 251.65399169921875 352.42510986328125 250.20068359375 349.2421875 248.74740600585938 C 353.5322265625 242.65744018554688 357.8914794921875 235.460205078125 362.31988525390625 227.15570068359375 C 366.88671875 218.71282958984375 371.2459716796875 210.2698974609375 375.3975830078125 201.82699584960938 C 379.54925537109375 193.24566650390625 382.93975830078125 185.49481201171875 385.56915283203125 178.57440185546875M 206.633056640625 183.3494873046875 C 209.954345703125 182.17303466796875 213.275634765625 180.99652099609375 216.59698486328125 179.820068359375 C 223.93157958984375 190.33908081054688 230.36663818359375 202.10382080078125 235.90216064453125 215.11419677734375 C 241.5760498046875 227.98614501953125 245.38177490234375 239.058837890625 247.3192138671875 248.33218383789062 C 243.4443359375 249.78546142578125 239.5694580078125 251.23876953125 235.694580078125 252.69204711914062 C 233.75714111328125 242.86505126953125 230.1590576171875 231.51556396484375 224.9002685546875 218.64361572265625 C 219.64154052734375 205.7716064453125 213.55242919921875 194.00692749023438 206.633056640625 183.3494873046875"/>
  </g>
</svg>
