<?xml version="1.0" ?>
<svg xmlns="http://www.w3.org/2000/svg" version="1.1" width="600" height="600">
  <defs/>
  <g>
    <path stroke-width="0" fill="rgb(0, 0, 0)" opacity="1.0" d="M 180.93392944335938 139.6214599609375 C 186.35498046875 139.92279052734375 191.3995361328125 140.2994384765625 196.06765747070312 140.75140380859375 C 200.73577880859375 141.20339965820312 206.3826904296875 141.42938232421875 213.0084228515625 141.42938232421875 C 217.676513671875 141.42938232421875 225.88336181640625 141.42938232421875 237.62896728515625 141.42938232421875 C 249.52511596679688 141.42938232421875 263.15301513671875 141.42938232421875 278.5126037597656 141.42938232421875 C 293.8721923828125 141.42938232421875 309.156494140625 141.42938232421875 324.36553955078125 141.42938232421875 C 339.72515869140625 141.42938232421875 353.2777099609375 141.42938232421875 365.0233154296875 141.42938232421875 C 376.91943359375 141.42938232421875 385.20166015625 141.42938232421875 389.8697509765625 141.42938232421875 C 394.8389892578125 141.42938232421875 400.4859619140625 141.27871704101562 406.81048583984375 140.97738647460938 C 413.135009765625 140.67608642578125 418.9324951171875 140.22409057617188 424.2030029296875 139.6214599609375 C 424.2030029296875 144.9698486328125 424.2030029296875 150.31826782226562 424.2030029296875 155.66665649414062 C 418.63134765625 155.06402587890625 412.758544921875 154.6873779296875 406.5845947265625 154.53671264648438 C 400.41064453125 154.38607788085938 394.8389892578125 154.31072998046875 389.8697509765625 154.31072998046875 C 385.20166015625 154.31072998046875 376.9947509765625 154.31072998046875 365.24920654296875 154.31072998046875 C 353.6541748046875 154.31072998046875 340.1768798828125 154.31072998046875 324.8172607421875 154.31072998046875 C 309.45770263671875 154.31072998046875 294.09808349609375 154.31072998046875 278.73846435546875 154.31072998046875 C 263.52947998046875 154.31072998046875 249.97686767578125 154.31072998046875 238.0806884765625 154.31072998046875 C 226.18450927734375 154.31072998046875 218.1282958984375 154.31072998046875 213.91192626953125 154.31072998046875 C 206.98501586914062 154.31072998046875 200.8863525390625 154.38607788085938 195.61590576171875 154.53671264648438 C 190.345458984375 154.6873779296875 185.45147705078125 155.06402587890625 180.93392944335938 155.66665649414062 C 180.93392944335938 150.31826782226562 180.93392944335938 144.9698486328125 180.93392944335938 139.6214599609375M 128.07882690429688 246.7401123046875 C 133.49984741210938 247.04144287109375 138.77029418945312 247.3427734375 143.89016723632812 247.64407348632812 C 149.16064453125 247.94537353515625 155.10870361328125 248.09603881835938 161.73443603515625 248.09603881835938 C 164.89669799804688 248.09603881835938 172.0494384765625 248.09603881835938 183.19268798828125 248.09603881835938 C 194.3359375 248.09603881835938 207.96383666992188 248.09603881835938 224.07635498046875 248.09603881835938 C 240.3394775390625 248.09603881835938 257.8072509765625 248.09603881835938 276.479736328125 248.09603881835938 C 295.15216064453125 248.09603881835938 313.82464599609375 248.09603881835938 332.4970703125 248.09603881835938 C 351.1695556640625 248.09603881835938 368.48681640625 248.09603881835938 384.44873046875 248.09603881835938 C 400.561279296875 248.09603881835938 414.03857421875 248.09603881835938 424.880615234375 248.09603881835938 C 435.72265625 248.09603881835938 442.57427978515625 248.09603881835938 445.43536376953125 248.09603881835938 C 450.103515625 248.09603881835938 454.7716064453125 247.94537353515625 459.439697265625 247.64407348632812 C 464.2584228515625 247.3427734375 469.0018310546875 247.04144287109375 473.669921875 246.7401123046875 C 473.669921875 251.78717041015625 473.669921875 256.83428955078125 473.669921875 261.88134765625 C 469.6041259765625 261.730712890625 465.0113525390625 261.5800476074219 459.8914794921875 261.42938232421875 C 454.92218017578125 261.2787170410156 450.103515625 261.203369140625 445.43536376953125 261.203369140625 C 442.57427978515625 261.203369140625 435.72265625 261.203369140625 424.880615234375 261.203369140625 C 414.03857421875 261.203369140625 400.561279296875 261.203369140625 384.44873046875 261.203369140625 C 368.48681640625 261.203369140625 351.1695556640625 261.203369140625 332.4970703125 261.203369140625 C 313.82464599609375 261.203369140625 295.15216064453125 261.203369140625 276.479736328125 261.203369140625 C 257.8072509765625 261.203369140625 240.3394775390625 261.203369140625 224.07635498046875 261.203369140625 C 207.96383666992188 261.203369140625 194.3359375 261.203369140625 183.19268798828125 261.203369140625 C 172.0494384765625 261.203369140625 164.89669799804688 261.203369140625 161.73443603515625 261.203369140625 C 155.10870361328125 261.203369140625 149.23590087890625 261.203369140625 144.11605834960938 261.203369140625 C 139.14675903320312 261.203369140625 133.801025390625 261.42938232421875 128.07882690429688 261.88134765625 C 128.07882690429688 256.83428955078125 128.07882690429688 251.78717041015625 128.07882690429688 246.7401123046875M 314.427001953125 251.48587036132812 C 314.427001953125 277.5498962402344 312.9964599609375 302.18267822265625 310.13531494140625 325.3841552734375 C 307.27423095703125 348.43505859375 300.799072265625 369.0753173828125 290.7099304199219 387.3050537109375 C 285.1383056640625 396.64593505859375 277.9855651855469 405.9114990234375 269.25164794921875 415.1016845703125 C 260.6683349609375 424.1412353515625 251.10626220703125 432.72882080078125 240.56533813476562 440.8643798828125 C 230.0244140625 448.849365234375 218.805908203125 455.9302978515625 206.90972900390625 462.1072998046875 C 202.54278564453125 458.6422119140625 198.17584228515625 455.177001953125 193.80889892578125 451.71185302734375 C 212.02960205078125 443.5762939453125 228.669189453125 433.40673828125 243.72760009765625 421.203369140625 C 258.78607177734375 409.0 270.5316162109375 395.59130859375 278.96435546875 380.9774169921875 C 289.95703125 363.0489501953125 296.43212890625 343.1619873046875 298.3897705078125 321.31640625 C 300.4979248046875 299.4708251953125 301.6273193359375 276.1939697265625 301.77789306640625 251.48587036132812 C 305.9942626953125 251.48587036132812 310.2105712890625 251.48587036132812 314.427001953125 251.48587036132812"/>
  </g>
</svg>
