<?xml version="1.0" encoding="utf-8"?>
<svg xmlns="http://www.w3.org/2000/svg" xmlns:ev="http://www.w3.org/2001/xml-events" xmlns:xlink="http://www.w3.org/1999/xlink" version="1.1" baseProfile="full" width="17092.0" height="1734.0" viewBox="113.0 -1596.0 17092.0 1734.0">
<defs/>
<g><path d="M 113.000000 -10.000000 C 678.333333 -10.000000 1243.666667 -10.000000 1809.000000 -10.000000 C 1809.000000 8.666667 1809.000000 27.333333 1809.000000 46.000000 C 1243.666667 46.000000 678.333333 46.000000 113.000000 46.000000 C 113.000000 27.333333 113.000000 8.666667 113.000000 -10.000000z M 190.000000 -1219.000000 C 371.000000 -1219.000000 552.000000 -1219.000000 733.000000 -1219.000000 C 733.000000 -1200.666667 733.000000 -1182.333333 733.000000 -1164.000000 C 552.000000 -1164.000000 371.000000 -1164.000000 190.000000 -1164.000000 C 190.000000 -1182.333333 190.000000 -1200.666667 190.000000 -1219.000000z M 1173.000000 -1219.000000 C 1365.666667 -1219.000000 1558.333333 -1219.000000 1751.000000 -1219.000000 C 1751.000000 -1200.666667 1751.000000 -1182.333333 1751.000000 -1164.000000 C 1558.333333 -1164.000000 1365.666667 -1164.000000 1173.000000 -1164.000000 C 1173.000000 -1182.333333 1173.000000 -1200.666667 1173.000000 -1219.000000z M 213.000000 -828.000000 C 388.333333 -828.000000 563.666667 -828.000000 739.000000 -828.000000 C 739.000000 -809.333333 739.000000 -790.666667 739.000000 -772.000000 C 563.666667 -772.000000 388.333333 -772.000000 213.000000 -772.000000 C 213.000000 -790.666667 213.000000 -809.333333 213.000000 -828.000000z M 1177.000000 -828.000000 C 1360.666667 -828.000000 1544.333333 -828.000000 1728.000000 -828.000000 C 1728.000000 -809.333333 1728.000000 -790.666667 1728.000000 -772.000000 C 1544.333333 -772.000000 1360.666667 -772.000000 1177.000000 -772.000000 C 1177.000000 -790.666667 1177.000000 -809.333333 1177.000000 -828.000000z M 180.000000 -422.000000 C 367.000000 -422.000000 554.000000 -422.000000 741.000000 -422.000000 C 741.000000 -403.000000 741.000000 -384.000000 741.000000 -365.000000 C 554.000000 -365.000000 367.000000 -365.000000 180.000000 -365.000000 C 180.000000 -384.000000 180.000000 -403.000000 180.000000 -422.000000z M 1173.000000 -422.000000 C 1368.333333 -422.000000 1563.666667 -422.000000 1759.000000 -422.000000 C 1759.000000 -403.000000 1759.000000 -384.000000 1759.000000 -365.000000 C 1563.666667 -365.000000 1368.333333 -365.000000 1173.000000 -365.000000 C 1173.000000 -384.000000 1173.000000 -403.000000 1173.000000 -422.000000z M 708.000000 -1572.000000 C 726.666667 -1572.000000 745.333333 -1572.000000 764.000000 -1572.000000 C 764.000000 -1044.000000 764.000000 -516.000000 764.000000 12.000000 C 745.333333 12.000000 726.666667 12.000000 708.000000 12.000000 C 708.000000 -516.000000 708.000000 -1044.000000 708.000000 -1572.000000z M 1152.000000 -1572.000000 C 1170.666667 -1572.000000 1189.333333 -1572.000000 1208.000000 -1572.000000 C 1208.000000 -1041.666667 1208.000000 -511.333333 1208.000000 19.000000 C 1189.333333 19.000000 1170.666667 19.000000 1152.000000 19.000000 C 1152.000000 -511.333333 1152.000000 -1041.666667 1152.000000 -1572.000000z "/>
</g>
<g><path d="M 2145.000000 -1400.000000 C 2639.000000 -1400.000000 3133.000000 -1400.000000 3627.000000 -1400.000000 C 3627.000000 -1381.333333 3627.000000 -1362.666667 3627.000000 -1344.000000 C 3133.000000 -1344.000000 2639.000000 -1344.000000 2145.000000 -1344.000000 C 2145.000000 -1362.666667 2145.000000 -1381.333333 2145.000000 -1400.000000z M 2033.000000 -939.000000 C 2598.333333 -939.000000 3163.666667 -939.000000 3729.000000 -939.000000 C 3729.000000 -920.333333 3729.000000 -901.666667 3729.000000 -883.000000 C 3163.666667 -883.000000 2598.333333 -883.000000 2033.000000 -883.000000 C 2033.000000 -901.666667 2033.000000 -920.333333 2033.000000 -939.000000z M 2352.000000 -338.000000 C 2710.333333 -338.000000 3068.666667 -338.000000 3427.000000 -338.000000 C 3427.000000 -318.666667 3427.000000 -299.333333 3427.000000 -280.000000 C 3068.666667 -280.000000 2710.333333 -280.000000 2352.000000 -280.000000 C 2352.000000 -299.333333 2352.000000 -318.666667 2352.000000 -338.000000z M 2356.000000 2.000000 C 2714.333333 2.000000 3072.666667 2.000000 3431.000000 2.000000 C 3431.000000 20.666667 3431.000000 39.333333 3431.000000 58.000000 C 3072.666667 58.000000 2714.333333 58.000000 2356.000000 58.000000 C 2356.000000 39.333333 2356.000000 20.666667 2356.000000 2.000000z M 2849.000000 -1596.000000 C 2868.333333 -1596.000000 2887.666667 -1596.000000 2907.000000 -1596.000000 C 2907.000000 -1523.000000 2907.000000 -1450.000000 2907.000000 -1377.000000 C 2887.666667 -1377.000000 2868.333333 -1377.000000 2849.000000 -1377.000000 C 2849.000000 -1450.000000 2849.000000 -1523.000000 2849.000000 -1596.000000z M 2325.000000 -664.000000 C 2700.666667 -664.000000 3076.333333 -664.000000 3452.000000 -664.000000 C 3452.000000 -399.000000 3452.000000 -134.000000 3452.000000 131.000000 C 3433.333333 131.000000 3414.666667 131.000000 3396.000000 131.000000 C 3396.000000 -115.666667 3396.000000 -362.333333 3396.000000 -609.000000 C 3057.666667 -609.000000 2719.333333 -609.000000 2381.000000 -609.000000 C 2381.000000 -360.000000 2381.000000 -111.000000 2381.000000 138.000000 C 2362.333333 138.000000 2343.666667 138.000000 2325.000000 138.000000 C 2325.000000 -129.333333 2325.000000 -396.666667 2325.000000 -664.000000z M 3293.000000 -1317.000000 C 3311.000000 -1310.000000 3329.000000 -1303.000000 3347.000000 -1296.000000 C 3321.000000 -1240.666667 3291.333333 -1181.666667 3258.000000 -1119.000000 C 3224.666667 -1056.333333 3193.333333 -1002.666667 3164.000000 -958.000000 C 3148.666667 -965.000000 3133.333333 -972.000000 3118.000000 -979.000000 C 3138.666667 -1008.333333 3159.666667 -1043.000000 3181.000000 -1083.000000 C 3203.000000 -1123.666667 3224.000000 -1164.333333 3244.000000 -1205.000000 C 3264.000000 -1246.333333 3280.333333 -1283.666667 3293.000000 -1317.000000z M 2431.000000 -1294.000000 C 2447.000000 -1299.666667 2463.000000 -1305.333333 2479.000000 -1311.000000 C 2514.333333 -1260.333333 2545.333333 -1203.666667 2572.000000 -1141.000000 C 2599.333333 -1079.000000 2617.666667 -1025.666667 2627.000000 -981.000000 C 2608.333333 -974.000000 2589.666667 -967.000000 2571.000000 -960.000000 C 2561.666667 -1007.333333 2544.333333 -1062.000000 2519.000000 -1124.000000 C 2493.666667 -1186.000000 2464.333333 -1242.666667 2431.000000 -1294.000000z "/>
</g>
<g><path d="M 4483.000000 -1140.000000 C 4817.000000 -1140.000000 5151.000000 -1140.000000 5485.000000 -1140.000000 C 5485.000000 -1121.666667 5485.000000 -1103.333333 5485.000000 -1085.000000 C 5151.000000 -1085.000000 4817.000000 -1085.000000 4483.000000 -1085.000000 C 4483.000000 -1103.333333 4483.000000 -1121.666667 4483.000000 -1140.000000z M 4241.000000 -764.000000 C 4687.666667 -764.000000 5134.333333 -764.000000 5581.000000 -764.000000 C 5581.000000 -745.333333 5581.000000 -726.666667 5581.000000 -708.000000 C 5134.333333 -708.000000 4687.666667 -708.000000 4241.000000 -708.000000 C 4241.000000 -726.666667 4241.000000 -745.333333 4241.000000 -764.000000z M 4858.000000 -1121.000000 C 4877.000000 -1121.000000 4896.000000 -1121.000000 4915.000000 -1121.000000 C 4915.000000 -1023.666667 4915.000000 -926.333333 4915.000000 -829.000000 C 4915.000000 -774.333333 4909.000000 -716.333333 4897.000000 -655.000000 C 4885.000000 -594.333333 4858.666667 -533.333333 4818.000000 -472.000000 C 4778.000000 -410.666667 4715.333333 -351.333333 4630.000000 -294.000000 C 4544.666667 -237.333333 4429.333333 -185.333333 4284.000000 -138.000000 C 4281.333333 -143.333333 4278.000000 -148.333333 4274.000000 -153.000000 C 4270.000000 -158.333333 4265.666667 -163.666667 4261.000000 -169.000000 C 4257.000000 -174.333333 4253.000000 -178.666667 4249.000000 -182.000000 C 4391.000000 -227.333333 4503.333333 -276.333333 4586.000000 -329.000000 C 4668.666667 -382.333333 4729.000000 -438.000000 4767.000000 -496.000000 C 4805.666667 -554.666667 4830.333333 -612.333333 4841.000000 -669.000000 C 4852.333333 -726.333333 4858.000000 -779.666667 4858.000000 -829.000000 C 4858.000000 -926.333333 4858.000000 -1023.666667 4858.000000 -1121.000000z M 4577.000000 -1346.000000 C 4596.333333 -1341.333333 4615.666667 -1336.666667 4635.000000 -1332.000000 C 4599.000000 -1241.333333 4551.333333 -1156.666667 4492.000000 -1078.000000 C 4433.333333 -999.333333 4371.000000 -932.333333 4305.000000 -877.000000 C 4302.333333 -879.666667 4297.666667 -883.333333 4291.000000 -888.000000 C 4285.000000 -892.666667 4278.666667 -896.666667 4272.000000 -900.000000 C 4265.333333 -904.000000 4259.666667 -907.333333 4255.000000 -910.000000 C 4322.333333 -962.666667 4384.333333 -1027.000000 4441.000000 -1103.000000 C 4498.333333 -1179.000000 4543.666667 -1260.000000 4577.000000 -1346.000000z M 4931.000000 -730.000000 C 4978.333333 -587.333333 5056.666667 -471.000000 5166.000000 -381.000000 C 5275.333333 -291.000000 5411.333333 -228.000000 5574.000000 -192.000000 C 5566.000000 -185.333333 5558.333333 -177.333333 5551.000000 -168.000000 C 5544.333333 -158.666667 5538.333333 -149.333333 5533.000000 -140.000000 C 5371.000000 -182.666667 5233.333333 -251.666667 5120.000000 -347.000000 C 5006.666667 -442.333333 4925.000000 -565.333333 4875.000000 -716.000000 C 4893.666667 -720.666667 4912.333333 -725.333333 4931.000000 -730.000000z M 4049.000000 -1473.000000 C 4569.333333 -1473.000000 5089.666667 -1473.000000 5610.000000 -1473.000000 C 5610.000000 -1453.666667 5610.000000 -1434.333333 5610.000000 -1415.000000 C 5108.333333 -1415.000000 4606.666667 -1415.000000 4105.000000 -1415.000000 C 4105.000000 -900.333333 4105.000000 -385.666667 4105.000000 129.000000 C 4086.333333 129.000000 4067.666667 129.000000 4049.000000 129.000000 C 4049.000000 -405.000000 4049.000000 -939.000000 4049.000000 -1473.000000z M 4090.000000 -29.000000 C 4609.666667 -29.000000 5129.333333 -29.000000 5649.000000 -29.000000 C 5649.000000 -9.666667 5649.000000 9.666667 5649.000000 29.000000 C 5129.333333 29.000000 4609.666667 29.000000 4090.000000 29.000000 C 4090.000000 9.666667 4090.000000 -9.666667 4090.000000 -29.000000z "/>
</g>
<g><path d="M 6931.000000 -691.000000 C 6949.666667 -691.000000 6968.333333 -691.000000 6987.000000 -691.000000 C 6987.000000 -462.666667 6987.000000 -234.333333 6987.000000 -6.000000 C 6987.000000 20.000000 6993.666667 37.333333 7007.000000 46.000000 C 7020.333333 55.333333 7048.666667 60.000000 7092.000000 60.000000 C 7102.666667 60.000000 7122.333333 60.000000 7151.000000 60.000000 C 7179.666667 60.000000 7211.666667 60.000000 7247.000000 60.000000 C 7282.333333 60.000000 7315.333333 60.000000 7346.000000 60.000000 C 7376.666667 60.000000 7399.000000 60.000000 7413.000000 60.000000 C 7443.666667 60.000000 7466.333333 51.666667 7481.000000 35.000000 C 7495.666667 18.333333 7506.000000 -15.666667 7512.000000 -67.000000 C 7518.000000 -118.333333 7522.000000 -195.333333 7524.000000 -298.000000 C 7529.333333 -294.000000 7535.000000 -290.000000 7541.000000 -286.000000 C 7547.666667 -282.000000 7554.333333 -278.666667 7561.000000 -276.000000 C 7568.333333 -274.000000 7574.666667 -271.666667 7580.000000 -269.000000 C 7577.333333 -166.333333 7571.666667 -86.666667 7563.000000 -30.000000 C 7555.000000 26.000000 7539.666667 64.333333 7517.000000 85.000000 C 7495.000000 106.333333 7461.000000 117.000000 7415.000000 117.000000 C 7407.666667 117.000000 7388.333333 117.000000 7357.000000 117.000000 C 7326.333333 117.000000 7292.000000 117.000000 7254.000000 117.000000 C 7216.666667 117.000000 7182.666667 117.000000 7152.000000 117.000000 C 7121.333333 117.000000 7102.000000 117.000000 7094.000000 117.000000 C 7052.000000 117.000000 7019.000000 113.666667 6995.000000 107.000000 C 6971.666667 101.000000 6955.000000 89.000000 6945.000000 71.000000 C 6935.666667 53.000000 6931.000000 26.666667 6931.000000 -8.000000 C 6931.000000 -235.666667 6931.000000 -463.333333 6931.000000 -691.000000z M 6447.000000 -678.000000 C 6466.333333 -678.000000 6485.666667 -678.000000 6505.000000 -678.000000 C 6496.333333 -569.333333 6481.333333 -471.666667 6460.000000 -385.000000 C 6438.666667 -298.333333 6406.333333 -222.333333 6363.000000 -157.000000 C 6319.666667 -92.333333 6261.000000 -36.666667 6187.000000 10.000000 C 6113.666667 57.333333 6020.666667 96.333333 5908.000000 127.000000 C 5906.666667 123.000000 5903.666667 118.000000 5899.000000 112.000000 C 5894.333333 106.666667 5889.666667 101.333333 5885.000000 96.000000 C 5881.000000 90.666667 5876.333333 86.333333 5871.000000 83.000000 C 5982.333333 54.333333 6073.666667 18.000000 6145.000000 -26.000000 C 6216.333333 -70.000000 6272.666667 -123.000000 6314.000000 -185.000000 C 6355.333333 -247.000000 6386.000000 -319.000000 6406.000000 -401.000000 C 6426.000000 -483.000000 6439.666667 -575.333333 6447.000000 -678.000000z M 6924.000000 -1139.000000 C 6937.333333 -1149.666667 6950.666667 -1160.333333 6964.000000 -1171.000000 C 7034.000000 -1123.666667 7105.000000 -1070.333333 7177.000000 -1011.000000 C 7249.666667 -951.666667 7316.666667 -892.333333 7378.000000 -833.000000 C 7440.000000 -774.333333 7489.333333 -720.666667 7526.000000 -672.000000 C 7511.333333 -659.333333 7496.666667 -646.666667 7482.000000 -634.000000 C 7446.000000 -683.333333 7397.666667 -738.000000 7337.000000 -798.000000 C 7276.333333 -858.666667 7210.000000 -918.666667 7138.000000 -978.000000 C 7066.666667 -1038.000000 6995.333333 -1091.666667 6924.000000 -1139.000000z M 6515.000000 -1315.000000 C 6532.666667 -1306.666667 6550.333333 -1298.333333 6568.000000 -1290.000000 C 6541.333333 -1235.333333 6511.666667 -1176.666667 6479.000000 -1114.000000 C 6446.333333 -1051.333333 6413.333333 -990.666667 6380.000000 -932.000000 C 6346.666667 -874.000000 6314.666667 -822.666667 6284.000000 -778.000000 C 6269.333333 -785.666667 6254.666667 -793.333333 6240.000000 -801.000000 C 6270.666667 -845.666667 6303.000000 -898.000000 6337.000000 -958.000000 C 6371.000000 -1018.000000 6403.666667 -1079.666667 6435.000000 -1143.000000 C 6466.333333 -1206.333333 6493.000000 -1263.666667 6515.000000 -1315.000000z M 5956.000000 -801.000000 C 6066.000000 -803.000000 6196.666667 -806.333333 6348.000000 -811.000000 C 6500.000000 -815.666667 6662.333333 -821.000000 6835.000000 -827.000000 C 7007.666667 -833.666667 7181.333333 -841.000000 7356.000000 -849.000000 C 7354.666667 -832.333333 7353.333333 -815.666667 7352.000000 -799.000000 C 7182.666667 -791.000000 7012.666667 -783.333333 6842.000000 -776.000000 C 6671.333333 -769.333333 6510.333333 -762.666667 6359.000000 -756.000000 C 6207.666667 -750.000000 6075.333333 -745.000000 5962.000000 -741.000000 C 5960.000000 -761.000000 5958.000000 -781.000000 5956.000000 -801.000000z M 5898.000000 -1336.000000 C 6448.333333 -1336.000000 6998.666667 -1336.000000 7549.000000 -1336.000000 C 7549.000000 -1317.666667 7549.000000 -1299.333333 7549.000000 -1281.000000 C 6998.666667 -1281.000000 6448.333333 -1281.000000 5898.000000 -1281.000000 C 5898.000000 -1299.333333 5898.000000 -1317.666667 5898.000000 -1336.000000z M 6687.000000 -1596.000000 C 6706.333333 -1596.000000 6725.666667 -1596.000000 6745.000000 -1596.000000 C 6745.000000 -1500.000000 6745.000000 -1404.000000 6745.000000 -1308.000000 C 6725.666667 -1308.000000 6706.333333 -1308.000000 6687.000000 -1308.000000 C 6687.000000 -1404.000000 6687.000000 -1500.000000 6687.000000 -1596.000000z "/>
</g>
<g><path d="M 7878.000000 -1396.000000 C 8014.333333 -1396.000000 8150.666667 -1396.000000 8287.000000 -1396.000000 C 8287.000000 -1058.000000 8287.000000 -720.000000 8287.000000 -382.000000 C 8150.666667 -382.000000 8014.333333 -382.000000 7878.000000 -382.000000 C 7878.000000 -401.333333 7878.000000 -420.666667 7878.000000 -440.000000 C 7995.000000 -440.000000 8112.000000 -440.000000 8229.000000 -440.000000 C 8229.000000 -740.000000 8229.000000 -1040.000000 8229.000000 -1340.000000 C 8112.000000 -1340.000000 7995.000000 -1340.000000 7878.000000 -1340.000000 C 7878.000000 -1358.666667 7878.000000 -1377.333333 7878.000000 -1396.000000z M 7857.000000 -1396.000000 C 7876.000000 -1396.000000 7895.000000 -1396.000000 7914.000000 -1396.000000 C 7914.000000 -992.000000 7914.000000 -588.000000 7914.000000 -184.000000 C 7895.000000 -184.000000 7876.000000 -184.000000 7857.000000 -184.000000 C 7857.000000 -588.000000 7857.000000 -992.000000 7857.000000 -1396.000000z M 8454.000000 -346.000000 C 8770.666667 -346.000000 9087.333333 -346.000000 9404.000000 -346.000000 C 9404.000000 -327.333333 9404.000000 -308.666667 9404.000000 -290.000000 C 9087.333333 -290.000000 8770.666667 -290.000000 8454.000000 -290.000000 C 8454.000000 -308.666667 8454.000000 -327.333333 8454.000000 -346.000000z M 8454.000000 -8.000000 C 8770.666667 -8.000000 9087.333333 -8.000000 9404.000000 -8.000000 C 9404.000000 10.666667 9404.000000 29.333333 9404.000000 48.000000 C 9087.333333 48.000000 8770.666667 48.000000 8454.000000 48.000000 C 8454.000000 29.333333 8454.000000 10.666667 8454.000000 -8.000000z M 8429.000000 -670.000000 C 8765.000000 -670.000000 9101.000000 -670.000000 9437.000000 -670.000000 C 9437.000000 -405.000000 9437.000000 -140.000000 9437.000000 125.000000 C 9417.666667 125.000000 9398.333333 125.000000 9379.000000 125.000000 C 9379.000000 -121.333333 9379.000000 -367.666667 9379.000000 -614.000000 C 9081.333333 -614.000000 8783.666667 -614.000000 8486.000000 -614.000000 C 8486.000000 -365.333333 8486.000000 -116.666667 8486.000000 132.000000 C 8467.000000 132.000000 8448.000000 132.000000 8429.000000 132.000000 C 8429.000000 -135.333333 8429.000000 -402.666667 8429.000000 -670.000000z M 8554.000000 -1144.000000 C 8554.000000 -1061.000000 8554.000000 -978.000000 8554.000000 -895.000000 C 8804.000000 -895.000000 9054.000000 -895.000000 9304.000000 -895.000000 C 9304.000000 -978.000000 9304.000000 -1061.000000 9304.000000 -1144.000000 C 9054.000000 -1144.000000 8804.000000 -1144.000000 8554.000000 -1144.000000z M 8554.000000 -1448.000000 C 8554.000000 -1365.333333 8554.000000 -1282.666667 8554.000000 -1200.000000 C 8804.000000 -1200.000000 9054.000000 -1200.000000 9304.000000 -1200.000000 C 9304.000000 -1282.666667 9304.000000 -1365.333333 9304.000000 -1448.000000 C 9054.000000 -1448.000000 8804.000000 -1448.000000 8554.000000 -1448.000000z M 8498.000000 -1503.000000 C 8785.333333 -1503.000000 9072.666667 -1503.000000 9360.000000 -1503.000000 C 9360.000000 -1281.000000 9360.000000 -1059.000000 9360.000000 -837.000000 C 9072.666667 -837.000000 8785.333333 -837.000000 8498.000000 -837.000000 C 8498.000000 -1059.000000 8498.000000 -1281.000000 8498.000000 -1503.000000z "/>
</g>
<g><path d="M 10527.000000 -1596.000000 C 10546.333333 -1596.000000 10565.666667 -1596.000000 10585.000000 -1596.000000 C 10585.000000 -1519.666667 10585.000000 -1443.333333 10585.000000 -1367.000000 C 10565.666667 -1367.000000 10546.333333 -1367.000000 10527.000000 -1367.000000 C 10527.000000 -1443.333333 10527.000000 -1519.666667 10527.000000 -1596.000000z M 10527.000000 -488.000000 C 10546.333333 -488.000000 10565.666667 -488.000000 10585.000000 -488.000000 C 10585.000000 -307.333333 10585.000000 -126.666667 10585.000000 54.000000 C 10565.666667 54.000000 10546.333333 54.000000 10527.000000 54.000000 C 10527.000000 -126.666667 10527.000000 -307.333333 10527.000000 -488.000000z M 9763.000000 -1407.000000 C 10294.333333 -1407.000000 10825.666667 -1407.000000 11357.000000 -1407.000000 C 11357.000000 -1312.333333 11357.000000 -1217.666667 11357.000000 -1123.000000 C 11337.666667 -1123.000000 11318.333333 -1123.000000 11299.000000 -1123.000000 C 11299.000000 -1199.333333 11299.000000 -1275.666667 11299.000000 -1352.000000 C 10806.333333 -1352.000000 10313.666667 -1352.000000 9821.000000 -1352.000000 C 9821.000000 -1275.666667 9821.000000 -1199.333333 9821.000000 -1123.000000 C 9801.666667 -1123.000000 9782.333333 -1123.000000 9763.000000 -1123.000000 C 9763.000000 -1217.666667 9763.000000 -1312.333333 9763.000000 -1407.000000z M 10228.000000 -1258.000000 C 10246.666667 -1258.000000 10265.333333 -1258.000000 10284.000000 -1258.000000 C 10284.000000 -1037.666667 10284.000000 -817.333333 10284.000000 -597.000000 C 10265.333333 -597.000000 10246.666667 -597.000000 10228.000000 -597.000000 C 10228.000000 -817.333333 10228.000000 -1037.666667 10228.000000 -1258.000000z M 10836.000000 -1258.000000 C 10854.666667 -1258.000000 10873.333333 -1258.000000 10892.000000 -1258.000000 C 10892.000000 -1037.666667 10892.000000 -817.333333 10892.000000 -597.000000 C 10873.333333 -597.000000 10854.666667 -597.000000 10836.000000 -597.000000 C 10836.000000 -817.333333 10836.000000 -1037.666667 10836.000000 -1258.000000z M 9905.000000 -1106.000000 C 10337.000000 -1106.000000 10769.000000 -1106.000000 11201.000000 -1106.000000 C 11201.000000 -1087.333333 11201.000000 -1068.666667 11201.000000 -1050.000000 C 10769.000000 -1050.000000 10337.000000 -1050.000000 9905.000000 -1050.000000 C 9905.000000 -1068.666667 9905.000000 -1087.333333 9905.000000 -1106.000000z M 10109.000000 -286.000000 C 10408.333333 -286.000000 10707.666667 -286.000000 11007.000000 -286.000000 C 11007.000000 -267.333333 11007.000000 -248.666667 11007.000000 -230.000000 C 10707.666667 -230.000000 10408.333333 -230.000000 10109.000000 -230.000000 C 10109.000000 -248.666667 10109.000000 -267.333333 10109.000000 -286.000000z M 9796.000000 25.000000 C 10310.666667 25.000000 10825.333333 25.000000 11340.000000 25.000000 C 11340.000000 43.666667 11340.000000 62.333333 11340.000000 81.000000 C 10825.333333 81.000000 10310.666667 81.000000 9796.000000 81.000000 C 9796.000000 62.333333 9796.000000 43.666667 9796.000000 25.000000z M 9946.000000 -870.000000 C 10349.666667 -870.000000 10753.333333 -870.000000 11157.000000 -870.000000 C 11157.000000 -851.333333 11157.000000 -832.666667 11157.000000 -814.000000 C 10753.333333 -814.000000 10349.666667 -814.000000 9946.000000 -814.000000 C 9946.000000 -832.666667 9946.000000 -851.333333 9946.000000 -870.000000z M 9715.000000 -620.000000 C 10280.333333 -620.000000 10845.666667 -620.000000 11411.000000 -620.000000 C 11411.000000 -601.000000 11411.000000 -582.000000 11411.000000 -563.000000 C 10845.666667 -563.000000 10280.333333 -563.000000 9715.000000 -563.000000 C 9715.000000 -582.000000 9715.000000 -601.000000 9715.000000 -620.000000z M 10249.000000 -605.000000 C 10265.000000 -598.000000 10281.000000 -591.000000 10297.000000 -584.000000 C 10257.000000 -521.333333 10206.333333 -461.000000 10145.000000 -403.000000 C 10083.666667 -345.666667 10017.000000 -294.000000 9945.000000 -248.000000 C 9873.666667 -202.000000 9802.666667 -164.666667 9732.000000 -136.000000 C 9730.000000 -142.666667 9726.333333 -148.333333 9721.000000 -153.000000 C 9715.666667 -158.333333 9710.333333 -163.666667 9705.000000 -169.000000 C 9700.333333 -174.333333 9695.333333 -178.666667 9690.000000 -182.000000 C 9762.000000 -206.666667 9833.333333 -240.666667 9904.000000 -284.000000 C 9975.333333 -327.333333 10041.333333 -376.666667 10102.000000 -432.000000 C 10162.666667 -488.000000 10211.666667 -545.666667 10249.000000 -605.000000z M 10877.000000 -605.000000 C 10915.000000 -548.333333 10964.333333 -493.666667 11025.000000 -441.000000 C 11086.333333 -389.000000 11153.000000 -342.333333 11225.000000 -301.000000 C 11297.666667 -260.333333 11370.333333 -229.000000 11443.000000 -207.000000 C 11439.000000 -203.666667 11434.000000 -198.666667 11428.000000 -192.000000 C 11422.666667 -185.333333 11417.666667 -179.000000 11413.000000 -173.000000 C 11409.000000 -167.666667 11405.000000 -162.333333 11401.000000 -157.000000 C 11328.333333 -183.000000 11255.333333 -217.666667 11182.000000 -261.000000 C 11109.333333 -304.333333 11041.666667 -353.666667 10979.000000 -409.000000 C 10917.000000 -465.000000 10865.666667 -522.666667 10825.000000 -582.000000 C 10842.333333 -589.666667 10859.666667 -597.333333 10877.000000 -605.000000z "/>
</g>
<g><path d="M 12714.000000 -1532.000000 C 12676.000000 -1459.333333 12626.000000 -1383.666667 12564.000000 -1305.000000 C 12502.666667 -1226.333333 12434.333333 -1150.000000 12359.000000 -1076.000000 C 12283.666667 -1002.666667 12205.000000 -936.333333 12123.000000 -877.000000 C 12119.000000 -883.666667 12113.000000 -891.000000 12105.000000 -899.000000 C 12097.666667 -907.666667 12090.666667 -914.666667 12084.000000 -920.000000 C 12166.000000 -976.000000 12245.000000 -1041.000000 12321.000000 -1115.000000 C 12397.666667 -1189.666667 12467.333333 -1268.000000 12530.000000 -1350.000000 C 12592.666667 -1432.000000 12642.666667 -1512.666667 12680.000000 -1592.000000 C 12699.000000 -1592.000000 12718.000000 -1592.000000 12737.000000 -1592.000000 C 12787.000000 -1510.000000 12846.666667 -1428.333333 12916.000000 -1347.000000 C 12985.333333 -1265.666667 13058.333333 -1189.333333 13135.000000 -1118.000000 C 13211.666667 -1047.333333 13286.333333 -987.000000 13359.000000 -937.000000 C 13354.333333 -930.333333 13348.000000 -922.333333 13340.000000 -913.000000 C 13332.666667 -904.333333 13326.333333 -897.000000 13321.000000 -891.000000 C 13247.000000 -945.000000 13171.666667 -1007.333333 13095.000000 -1078.000000 C 13019.000000 -1149.333333 12948.000000 -1224.000000 12882.000000 -1302.000000 C 12816.000000 -1380.000000 12760.000000 -1456.666667 12714.000000 -1532.000000z M 12202.000000 -666.000000 C 12524.333333 -666.000000 12846.666667 -666.000000 13169.000000 -666.000000 C 13169.000000 -647.666667 13169.000000 -629.333333 13169.000000 -611.000000 C 12846.666667 -611.000000 12524.333333 -611.000000 12202.000000 -611.000000 C 12202.000000 -629.333333 12202.000000 -647.666667 12202.000000 -666.000000z M 13146.000000 -666.000000 C 13164.666667 -666.000000 13183.333333 -666.000000 13202.000000 -666.000000 C 13202.000000 -487.666667 13202.000000 -309.333333 13202.000000 -131.000000 C 13202.000000 -109.000000 13198.666667 -92.000000 13192.000000 -80.000000 C 13186.000000 -68.666667 13173.333333 -60.666667 13154.000000 -56.000000 C 13133.333333 -50.666667 13102.666667 -47.333333 13062.000000 -46.000000 C 13022.000000 -44.666667 12969.333333 -44.000000 12904.000000 -44.000000 C 12902.666667 -53.333333 12899.666667 -62.666667 12895.000000 -72.000000 C 12891.000000 -81.333333 12886.333333 -90.666667 12881.000000 -100.000000 C 12941.666667 -98.666667 12992.000000 -98.000000 13032.000000 -98.000000 C 13072.000000 -98.000000 13099.333333 -98.666667 13114.000000 -100.000000 C 13128.000000 -101.333333 13136.666667 -103.666667 13140.000000 -107.000000 C 13144.000000 -111.000000 13146.000000 -119.000000 13146.000000 -131.000000 C 13146.000000 -309.333333 13146.000000 -487.666667 13146.000000 -666.000000z M 12372.000000 -1008.000000 C 12604.333333 -1008.000000 12836.666667 -1008.000000 13069.000000 -1008.000000 C 13069.000000 -989.333333 13069.000000 -970.666667 13069.000000 -952.000000 C 12836.666667 -952.000000 12604.333333 -952.000000 12372.000000 -952.000000 C 12372.000000 -970.666667 12372.000000 -989.333333 12372.000000 -1008.000000z M 12616.000000 -645.000000 C 12634.666667 -645.000000 12653.333333 -645.000000 12672.000000 -645.000000 C 12672.000000 -386.000000 12672.000000 -127.000000 12672.000000 132.000000 C 12653.333333 132.000000 12634.666667 132.000000 12616.000000 132.000000 C 12616.000000 -127.000000 12616.000000 -386.000000 12616.000000 -645.000000z M 11894.000000 -1596.000000 C 11913.333333 -1596.000000 11932.666667 -1596.000000 11952.000000 -1596.000000 C 11952.000000 -1020.333333 11952.000000 -444.666667 11952.000000 131.000000 C 11932.666667 131.000000 11913.333333 131.000000 11894.000000 131.000000 C 11894.000000 -444.666667 11894.000000 -1020.333333 11894.000000 -1596.000000z M 11695.000000 -1235.000000 C 11713.333333 -1231.666667 11731.666667 -1228.333333 11750.000000 -1225.000000 C 11748.666667 -1171.000000 11744.000000 -1113.000000 11736.000000 -1051.000000 C 11728.000000 -989.000000 11716.000000 -929.000000 11700.000000 -871.000000 C 11684.000000 -813.666667 11663.000000 -764.666667 11637.000000 -724.000000 C 11620.333333 -732.333333 11603.666667 -740.666667 11587.000000 -749.000000 C 11611.666667 -787.000000 11631.666667 -833.666667 11647.000000 -889.000000 C 11662.333333 -944.333333 11673.666667 -1002.000000 11681.000000 -1062.000000 C 11689.000000 -1122.000000 11693.666667 -1179.666667 11695.000000 -1235.000000z M 12025.000000 -1300.000000 C 12040.333333 -1307.666667 12055.666667 -1315.333333 12071.000000 -1323.000000 C 12097.666667 -1279.666667 12122.333333 -1232.000000 12145.000000 -1180.000000 C 12168.333333 -1128.000000 12184.666667 -1084.666667 12194.000000 -1050.000000 C 12178.000000 -1040.000000 12162.000000 -1030.000000 12146.000000 -1020.000000 C 12136.000000 -1056.666667 12119.333333 -1101.666667 12096.000000 -1155.000000 C 12072.666667 -1208.333333 12049.000000 -1256.666667 12025.000000 -1300.000000z "/>
</g>
<g><path d="M 14231.000000 -1484.000000 C 14248.333333 -1484.000000 14265.666667 -1484.000000 14283.000000 -1484.000000 C 14283.000000 -1025.333333 14283.000000 -566.666667 14283.000000 -108.000000 C 14283.000000 -74.666667 14287.666667 -48.000000 14297.000000 -28.000000 C 14307.000000 -8.000000 14325.333333 6.000000 14352.000000 14.000000 C 14378.666667 22.666667 14416.333333 27.000000 14465.000000 27.000000 C 14479.000000 27.000000 14505.666667 27.000000 14545.000000 27.000000 C 14584.333333 27.000000 14629.000000 27.000000 14679.000000 27.000000 C 14729.666667 27.000000 14780.666667 27.000000 14832.000000 27.000000 C 14883.333333 27.000000 14930.000000 27.000000 14972.000000 27.000000 C 15014.666667 27.000000 15046.000000 27.000000 15066.000000 27.000000 C 15110.000000 27.000000 15142.333333 18.333333 15163.000000 1.000000 C 15184.333333 -16.333333 15199.000000 -47.333333 15207.000000 -92.000000 C 15215.666667 -136.666667 15222.666667 -199.333333 15228.000000 -280.000000 C 15235.333333 -275.333333 15244.000000 -270.666667 15254.000000 -266.000000 C 15264.666667 -261.333333 15274.333333 -257.666667 15283.000000 -255.000000 C 15278.333333 -172.333333 15270.000000 -106.666667 15258.000000 -58.000000 C 15246.666667 -9.333333 15225.666667 25.333333 15195.000000 46.000000 C 15164.333333 66.666667 15117.666667 77.000000 15055.000000 77.000000 C 15045.666667 77.000000 15021.333333 77.000000 14982.000000 77.000000 C 14943.333333 77.000000 14897.333333 77.000000 14844.000000 77.000000 C 14791.333333 77.000000 14738.000000 77.000000 14684.000000 77.000000 C 14630.666667 77.000000 14584.666667 77.000000 14546.000000 77.000000 C 14507.333333 77.000000 14483.666667 77.000000 14475.000000 77.000000 C 14412.333333 77.000000 14363.333333 71.666667 14328.000000 61.000000 C 14292.666667 51.000000 14267.666667 32.333333 14253.000000 5.000000 C 14238.333333 -21.666667 14231.000000 -59.666667 14231.000000 -109.000000 C 14231.000000 -567.333333 14231.000000 -1025.666667 14231.000000 -1484.000000z M 14262.000000 -1484.000000 C 14561.333333 -1484.000000 14860.666667 -1484.000000 15160.000000 -1484.000000 C 15160.000000 -1166.000000 15160.000000 -848.000000 15160.000000 -530.000000 C 15141.666667 -530.000000 15123.333333 -530.000000 15105.000000 -530.000000 C 15105.000000 -829.333333 15105.000000 -1128.666667 15105.000000 -1428.000000 C 14824.000000 -1428.000000 14543.000000 -1428.000000 14262.000000 -1428.000000 C 14262.000000 -1446.666667 14262.000000 -1465.333333 14262.000000 -1484.000000z M 14260.000000 -718.000000 C 14553.666667 -718.000000 14847.333333 -718.000000 15141.000000 -718.000000 C 15141.000000 -699.333333 15141.000000 -680.666667 15141.000000 -662.000000 C 14847.333333 -662.000000 14553.666667 -662.000000 14260.000000 -662.000000 C 14260.000000 -680.666667 14260.000000 -699.333333 14260.000000 -718.000000z M 14665.000000 -1473.000000 C 14683.666667 -1473.000000 14702.333333 -1473.000000 14721.000000 -1473.000000 C 14721.000000 -1213.000000 14721.000000 -953.000000 14721.000000 -693.000000 C 14702.333333 -693.000000 14683.666667 -693.000000 14665.000000 -693.000000 C 14665.000000 -953.000000 14665.000000 -1213.000000 14665.000000 -1473.000000z M 13532.000000 -538.000000 C 13580.666667 -553.333333 13636.666667 -571.000000 13700.000000 -591.000000 C 13763.333333 -611.666667 13830.333333 -633.666667 13901.000000 -657.000000 C 13972.333333 -681.000000 14044.666667 -704.666667 14118.000000 -728.000000 C 14121.000000 -709.333333 14124.000000 -690.666667 14127.000000 -672.000000 C 14026.333333 -638.666667 13926.000000 -605.000000 13826.000000 -571.000000 C 13726.000000 -537.000000 13637.000000 -506.666667 13559.000000 -480.000000 C 13550.000000 -499.333333 13541.000000 -518.666667 13532.000000 -538.000000z M 13561.000000 -1181.000000 C 13739.000000 -1181.000000 13917.000000 -1181.000000 14095.000000 -1181.000000 C 14095.000000 -1161.666667 14095.000000 -1142.333333 14095.000000 -1123.000000 C 13917.000000 -1123.000000 13739.000000 -1123.000000 13561.000000 -1123.000000 C 13561.000000 -1142.333333 13561.000000 -1161.666667 13561.000000 -1181.000000z M 13816.000000 -1594.000000 C 13835.333333 -1594.000000 13854.666667 -1594.000000 13874.000000 -1594.000000 C 13874.000000 -1047.333333 13874.000000 -500.666667 13874.000000 46.000000 C 13874.000000 70.666667 13869.666667 88.666667 13861.000000 100.000000 C 13853.000000 111.333333 13840.666667 119.666667 13824.000000 125.000000 C 13807.333333 129.666667 13783.666667 132.666667 13753.000000 134.000000 C 13722.333333 135.333333 13680.666667 135.333333 13628.000000 134.000000 C 13626.666667 128.000000 13623.666667 119.333333 13619.000000 108.000000 C 13615.000000 97.333333 13610.333333 88.333333 13605.000000 81.000000 C 13649.666667 82.333333 13688.333333 83.000000 13721.000000 83.000000 C 13753.666667 83.000000 13775.333333 82.333333 13786.000000 81.000000 C 13806.000000 81.000000 13816.000000 70.000000 13816.000000 48.000000 C 13816.000000 -499.333333 13816.000000 -1046.666667 13816.000000 -1594.000000z "/>
</g>
<g><path d="M 16583.000000 -851.000000 C 16604.000000 -843.666667 16625.000000 -836.333333 16646.000000 -829.000000 C 16624.666667 -763.000000 16600.666667 -692.000000 16574.000000 -616.000000 C 16548.000000 -540.666667 16521.000000 -464.333333 16493.000000 -387.000000 C 16465.000000 -309.666667 16436.666667 -235.666667 16408.000000 -165.000000 C 16380.000000 -95.000000 16353.333333 -32.333333 16328.000000 23.000000 C 16310.666667 16.000000 16293.333333 9.000000 16276.000000 2.000000 C 16301.333333 -53.333333 16328.333333 -116.333333 16357.000000 -187.000000 C 16386.333333 -258.333333 16414.666667 -332.666667 16442.000000 -410.000000 C 16469.333333 -487.333333 16495.000000 -564.000000 16519.000000 -640.000000 C 16543.666667 -716.666667 16565.000000 -787.000000 16583.000000 -851.000000z M 16090.000000 -10.000000 C 16169.333333 -13.333333 16263.000000 -18.000000 16371.000000 -24.000000 C 16479.000000 -30.000000 16595.333333 -36.666667 16720.000000 -44.000000 C 16845.333333 -52.000000 16971.333333 -59.000000 17098.000000 -65.000000 C 17097.333333 -47.333333 17096.666667 -29.666667 17096.000000 -12.000000 C 16975.333333 -4.000000 16854.000000 3.666667 16732.000000 11.000000 C 16610.666667 19.000000 16496.000000 26.000000 16388.000000 32.000000 C 16280.000000 38.666667 16184.333333 44.666667 16101.000000 50.000000 C 16097.333333 30.000000 16093.666667 10.000000 16090.000000 -10.000000z M 16798.000000 -465.000000 C 16813.333333 -472.666667 16828.666667 -480.333333 16844.000000 -488.000000 C 16891.333333 -425.333333 16938.666667 -357.333333 16986.000000 -284.000000 C 17033.333333 -211.333333 17076.000000 -140.333333 17114.000000 -71.000000 C 17152.666667 -1.666667 17183.000000 59.000000 17205.000000 111.000000 C 17187.666667 120.000000 17170.333333 129.000000 17153.000000 138.000000 C 17133.000000 86.000000 17103.666667 25.000000 17065.000000 -45.000000 C 17026.333333 -115.000000 16984.000000 -186.666667 16938.000000 -260.000000 C 16892.000000 -334.000000 16845.333333 -402.333333 16798.000000 -465.000000z M 16454.000000 -1565.000000 C 16473.333333 -1561.000000 16492.666667 -1557.000000 16512.000000 -1553.000000 C 16488.000000 -1452.333333 16458.666667 -1355.666667 16424.000000 -1263.000000 C 16389.333333 -1171.000000 16350.000000 -1086.000000 16306.000000 -1008.000000 C 16262.666667 -930.000000 16215.000000 -860.333333 16163.000000 -799.000000 C 16159.000000 -802.333333 16153.666667 -806.000000 16147.000000 -810.000000 C 16141.000000 -814.000000 16134.666667 -818.000000 16128.000000 -822.000000 C 16121.333333 -826.000000 16115.000000 -829.000000 16109.000000 -831.000000 C 16163.666667 -890.333333 16212.666667 -958.333333 16256.000000 -1035.000000 C 16300.000000 -1111.666667 16338.666667 -1194.666667 16372.000000 -1284.000000 C 16405.333333 -1374.000000 16432.666667 -1467.666667 16454.000000 -1565.000000z M 16854.000000 -1567.000000 C 16880.666667 -1477.000000 16913.333333 -1385.333333 16952.000000 -1292.000000 C 16991.333333 -1198.666667 17033.000000 -1112.333333 17077.000000 -1033.000000 C 17121.666667 -953.666667 17164.333333 -889.000000 17205.000000 -839.000000 C 17199.666667 -836.333333 17194.000000 -832.333333 17188.000000 -827.000000 C 17182.666667 -822.333333 17177.000000 -817.000000 17171.000000 -811.000000 C 17165.666667 -805.666667 17160.333333 -800.333333 17155.000000 -795.000000 C 17114.333333 -849.000000 17072.000000 -917.666667 17028.000000 -1001.000000 C 16984.666667 -1085.000000 16943.333333 -1174.666667 16904.000000 -1270.000000 C 16865.333333 -1365.333333 16832.000000 -1458.000000 16804.000000 -1548.000000 C 16820.666667 -1554.333333 16837.333333 -1560.666667 16854.000000 -1567.000000z M 15473.000000 -1167.000000 C 15694.000000 -1167.000000 15915.000000 -1167.000000 16136.000000 -1167.000000 C 16136.000000 -1148.000000 16136.000000 -1129.000000 16136.000000 -1110.000000 C 15915.000000 -1110.000000 15694.000000 -1110.000000 15473.000000 -1110.000000 C 15473.000000 -1129.000000 15473.000000 -1148.000000 15473.000000 -1167.000000z M 15796.000000 -1596.000000 C 15814.666667 -1596.000000 15833.333333 -1596.000000 15852.000000 -1596.000000 C 15852.000000 -1020.333333 15852.000000 -444.666667 15852.000000 131.000000 C 15833.333333 131.000000 15814.666667 131.000000 15796.000000 131.000000 C 15796.000000 -444.666667 15796.000000 -1020.333333 15796.000000 -1596.000000z M 15790.000000 -1144.000000 C 15806.666667 -1139.000000 15823.333333 -1134.000000 15840.000000 -1129.000000 C 15823.333333 -1052.333333 15801.000000 -972.333333 15773.000000 -889.000000 C 15745.666667 -805.666667 15715.666667 -724.333333 15683.000000 -645.000000 C 15651.000000 -565.666667 15616.666667 -492.000000 15580.000000 -424.000000 C 15543.333333 -356.666667 15507.000000 -299.333333 15471.000000 -252.000000 C 15466.333333 -258.000000 15459.666667 -265.333333 15451.000000 -274.000000 C 15443.000000 -283.333333 15435.000000 -290.666667 15427.000000 -296.000000 C 15463.000000 -340.666667 15498.666667 -395.333333 15534.000000 -460.000000 C 15570.000000 -524.666667 15604.333333 -595.333333 15637.000000 -672.000000 C 15669.666667 -748.666667 15699.000000 -827.333333 15725.000000 -908.000000 C 15751.666667 -988.666667 15773.333333 -1067.333333 15790.000000 -1144.000000z M 15842.000000 -891.000000 C 15854.666667 -878.333333 15874.333333 -856.333333 15901.000000 -825.000000 C 15928.333333 -793.666667 15957.666667 -759.666667 15989.000000 -723.000000 C 16020.333333 -686.333333 16048.666667 -652.333333 16074.000000 -621.000000 C 16100.000000 -589.666667 16118.000000 -567.000000 16128.000000 -553.000000 C 16112.000000 -536.333333 16096.000000 -519.666667 16080.000000 -503.000000 C 16068.666667 -522.333333 16050.333333 -548.666667 16025.000000 -582.000000 C 16000.333333 -615.333333 15973.333333 -650.000000 15944.000000 -686.000000 C 15915.333333 -722.666667 15888.333333 -756.666667 15863.000000 -788.000000 C 15837.666667 -819.333333 15818.000000 -842.666667 15804.000000 -858.000000 C 15816.666667 -869.000000 15829.333333 -880.000000 15842.000000 -891.000000z "/>
</g>
</svg>
