<?xml version="1.0" encoding="utf-8"?>
<svg xmlns="http://www.w3.org/2000/svg" xmlns:ev="http://www.w3.org/2001/xml-events" xmlns:xlink="http://www.w3.org/1999/xlink" version="1.1" baseProfile="full" width="17103.0" height="1740.3" viewBox="60.0 -1597.0 17103.0 1740.3">
<defs/>
<g><path d="M 8876.000000 -1594.000000 C 8895.333333 -1594.000000 8914.666667 -1594.000000 8934.000000 -1594.000000 C 8934.000000 -1503.666667 8934.000000 -1413.333333 8934.000000 -1323.000000 C 8914.666667 -1323.000000 8895.333333 -1323.000000 8876.000000 -1323.000000 C 8876.000000 -1413.333333 8876.000000 -1503.666667 8876.000000 -1594.000000z M 8381.000000 -1363.000000 C 8744.333333 -1363.000000 9107.666667 -1363.000000 9471.000000 -1363.000000 C 9471.000000 -1255.666667 9471.000000 -1148.333333 9471.000000 -1041.000000 C 9452.666667 -1041.000000 9434.333333 -1041.000000 9416.000000 -1041.000000 C 9416.000000 -1129.333333 9416.000000 -1217.666667 9416.000000 -1306.000000 C 9089.333333 -1306.000000 8762.666667 -1306.000000 8436.000000 -1306.000000 C 8436.000000 -1217.000000 8436.000000 -1128.000000 8436.000000 -1039.000000 C 8417.666667 -1039.000000 8399.333333 -1039.000000 8381.000000 -1039.000000 C 8381.000000 -1147.000000 8381.000000 -1255.000000 8381.000000 -1363.000000z M 8544.000000 -1033.000000 C 8798.666667 -1033.000000 9053.333333 -1033.000000 9308.000000 -1033.000000 C 9308.000000 -1014.333333 9308.000000 -995.666667 9308.000000 -977.000000 C 9053.333333 -977.000000 8798.666667 -977.000000 8544.000000 -977.000000 C 8544.000000 -995.666667 8544.000000 -1014.333333 8544.000000 -1033.000000z M 8396.000000 -678.000000 C 8760.333333 -678.000000 9124.666667 -678.000000 9489.000000 -678.000000 C 9489.000000 -659.333333 9489.000000 -640.666667 9489.000000 -622.000000 C 9124.666667 -622.000000 8760.333333 -622.000000 8396.000000 -622.000000 C 8396.000000 -640.666667 8396.000000 -659.333333 8396.000000 -678.000000z M 8696.000000 -664.000000 C 8715.666667 -664.000000 8735.333333 -664.000000 8755.000000 -664.000000 C 8749.000000 -562.000000 8737.666667 -469.000000 8721.000000 -385.000000 C 8704.333333 -301.000000 8679.666667 -225.666667 8647.000000 -159.000000 C 8614.333333 -93.000000 8570.000000 -35.333333 8514.000000 14.000000 C 8458.666667 63.333333 8388.000000 104.666667 8302.000000 138.000000 C 8299.333333 134.000000 8295.666667 129.333333 8291.000000 124.000000 C 8287.000000 119.333333 8282.333333 114.333333 8277.000000 109.000000 C 8271.666667 104.333333 8266.666667 100.666667 8262.000000 98.000000 C 8346.000000 66.000000 8415.000000 26.333333 8469.000000 -21.000000 C 8523.000000 -68.333333 8565.666667 -123.333333 8597.000000 -186.000000 C 8628.333333 -248.666667 8651.333333 -320.000000 8666.000000 -400.000000 C 8680.666667 -480.000000 8690.666667 -568.000000 8696.000000 -664.000000z M 9053.000000 -662.000000 C 9071.333333 -662.000000 9089.666667 -662.000000 9108.000000 -662.000000 C 9108.000000 -443.333333 9108.000000 -224.666667 9108.000000 -6.000000 C 9108.000000 14.666667 9112.000000 27.666667 9120.000000 33.000000 C 9128.000000 39.000000 9146.000000 42.000000 9174.000000 42.000000 C 9182.666667 42.000000 9200.333333 42.000000 9227.000000 42.000000 C 9254.333333 42.000000 9282.333333 42.000000 9311.000000 42.000000 C 9339.666667 42.000000 9359.333333 42.000000 9370.000000 42.000000 C 9387.333333 42.000000 9400.333333 36.333333 9409.000000 25.000000 C 9418.333333 13.666667 9425.000000 -10.000000 9429.000000 -46.000000 C 9433.000000 -82.000000 9435.666667 -137.000000 9437.000000 -211.000000 C 9441.666667 -207.000000 9447.000000 -203.000000 9453.000000 -199.000000 C 9459.000000 -195.666667 9465.333333 -192.666667 9472.000000 -190.000000 C 9479.333333 -187.333333 9485.666667 -185.333333 9491.000000 -184.000000 C 9489.666667 -108.666667 9485.666667 -50.000000 9479.000000 -8.000000 C 9472.333333 33.333333 9461.000000 61.666667 9445.000000 77.000000 C 9429.000000 92.333333 9405.666667 100.000000 9375.000000 100.000000 C 9370.333333 100.000000 9358.000000 100.000000 9338.000000 100.000000 C 9318.000000 100.000000 9296.000000 100.000000 9272.000000 100.000000 C 9248.666667 100.000000 9227.333333 100.000000 9208.000000 100.000000 C 9189.333333 100.000000 9177.333333 100.000000 9172.000000 100.000000 C 9141.333333 100.000000 9117.333333 97.333333 9100.000000 92.000000 C 9082.666667 86.666667 9070.333333 76.333333 9063.000000 61.000000 C 9056.333333 45.666667 9053.000000 23.333333 9053.000000 -6.000000 C 9053.000000 -224.666667 9053.000000 -443.333333 9053.000000 -662.000000z M 7853.000000 -1511.000000 C 8003.333333 -1511.000000 8153.666667 -1511.000000 8304.000000 -1511.000000 C 8304.000000 -1492.333333 8304.000000 -1473.666667 8304.000000 -1455.000000 C 8172.666667 -1455.000000 8041.333333 -1455.000000 7910.000000 -1455.000000 C 7910.000000 -925.333333 7910.000000 -395.666667 7910.000000 134.000000 C 7891.000000 134.000000 7872.000000 134.000000 7853.000000 134.000000 C 7853.000000 -414.333333 7853.000000 -962.666667 7853.000000 -1511.000000z M 8289.000000 -1511.000000 C 8292.666667 -1511.000000 8296.333333 -1511.000000 8300.000000 -1511.000000 C 8304.000000 -1512.333333 8308.000000 -1513.666667 8312.000000 -1515.000000 C 8324.000000 -1506.000000 8336.000000 -1497.000000 8348.000000 -1488.000000 C 8327.333333 -1438.000000 8305.000000 -1384.666667 8281.000000 -1328.000000 C 8257.666667 -1272.000000 8233.666667 -1215.333333 8209.000000 -1158.000000 C 8184.333333 -1101.333333 8159.000000 -1047.000000 8133.000000 -995.000000 C 8215.000000 -910.333333 8269.333333 -832.000000 8296.000000 -760.000000 C 8323.333333 -688.666667 8337.000000 -621.000000 8337.000000 -557.000000 C 8337.000000 -515.666667 8331.666667 -476.666667 8321.000000 -440.000000 C 8311.000000 -404.000000 8294.333333 -377.666667 8271.000000 -361.000000 C 8259.666667 -353.000000 8246.333333 -346.666667 8231.000000 -342.000000 C 8215.666667 -338.000000 8199.000000 -334.666667 8181.000000 -332.000000 C 8136.333333 -328.000000 8091.666667 -328.000000 8047.000000 -332.000000 C 8045.666667 -338.666667 8043.333333 -347.333333 8040.000000 -358.000000 C 8036.666667 -368.666667 8032.000000 -378.666667 8026.000000 -388.000000 C 8052.666667 -386.666667 8077.666667 -385.666667 8101.000000 -385.000000 C 8125.000000 -384.333333 8146.666667 -384.666667 8166.000000 -386.000000 C 8194.000000 -388.666667 8216.333333 -395.000000 8233.000000 -405.000000 C 8251.000000 -417.666667 8263.333333 -438.333333 8270.000000 -467.000000 C 8277.333333 -496.333333 8281.000000 -526.333333 8281.000000 -557.000000 C 8281.000000 -617.000000 8266.333333 -682.000000 8237.000000 -752.000000 C 8207.666667 -822.666667 8151.333333 -901.000000 8068.000000 -987.000000 C 8089.333333 -1031.666667 8110.333333 -1076.666667 8131.000000 -1122.000000 C 8151.666667 -1167.333333 8171.666667 -1212.000000 8191.000000 -1256.000000 C 8210.333333 -1300.666667 8228.000000 -1343.333333 8244.000000 -1384.000000 C 8260.666667 -1425.333333 8275.666667 -1463.333333 8289.000000 -1498.000000 C 8289.000000 -1502.333333 8289.000000 -1506.666667 8289.000000 -1511.000000z "/>
</g></svg>
