<?xml version="1.0" ?>
<svg xmlns="http://www.w3.org/2000/svg" version="1.1" width="600" height="600">
  <defs/>
  <g>
    <path stroke-width="0" fill="rgb(0, 0, 0)" opacity="1.0" d="M 125.09228515625 136.58621215820312 C 242.037109375 136.58621215820312 358.98193359375 136.58621215820312 475.92724609375 136.58621215820312 C 475.92724609375 140.58621215820312 475.92724609375 144.586181640625 475.92724609375 148.58621215820312 C 358.98193359375 148.58621215820312 242.037109375 148.58621215820312 125.09228515625 148.58621215820312 C 125.09228515625 144.586181640625 125.09228515625 140.58621215820312 125.09228515625 136.58621215820312M 287.2705078125 140.72412109375 C 291.06298828125 140.72412109375 294.85546875 140.72412109375 298.64794921875 140.72412109375 C 298.64794921875 248.72412109375 298.64794921875 356.72412109375 298.64794921875 464.72412109375 C 294.85546875 464.72412109375 291.06298828125 464.72412109375 287.2705078125 464.72412109375 C 287.2705078125 356.72412109375 287.2705078125 248.72412109375 287.2705078125 140.72412109375M 294.7177734375 232.7930908203125 C 296.9931640625 230.17242431640625 299.2685546875 227.55172729492188 301.5439453125 224.9310302734375 C 314.50732421875 231.0 327.88427734375 237.75860595703125 341.6748046875 245.2069091796875 C 355.603515625 252.5172119140625 369.25634765625 260.10345458984375 382.63330078125 267.96551513671875 C 396.01025390625 275.82757568359375 408.421875 283.4137878417969 419.8681640625 290.72412109375 C 431.4521484375 297.89654541015625 441.38134765625 304.4482421875 449.65576171875 310.3792724609375 C 447.38037109375 313.75860595703125 445.10498046875 317.137939453125 442.82958984375 320.5172119140625 C 434.69287109375 314.4482421875 424.83251953125 307.75860595703125 413.24853515625 300.4482421875 C 401.80224609375 293.0 389.390625 285.3448181152344 376.013671875 277.4827575683594 C 362.63671875 269.48272705078125 348.98388671875 261.62066650390625 335.05517578125 253.89654541015625 C 321.12646484375 246.17242431640625 307.6806640625 239.137939453125 294.7177734375 232.7930908203125"/>
  </g>
</svg>
