<?xml version="1.0" encoding="utf-8"?>
<svg xmlns="http://www.w3.org/2000/svg" xmlns:ev="http://www.w3.org/2001/xml-events" xmlns:xlink="http://www.w3.org/1999/xlink" version="1.1" baseProfile="full" width="49628.0" height="1744.0" viewBox="213.0 -1596.0 49628.0 1744.0">
<defs/>
<g><path d="M 21727.000000 -1488.000000 C 21714.333333 -1440.666667 21702.000000 -1386.666667 21690.000000 -1326.000000 C 21678.666667 -1266.000000 21668.666667 -1204.666667 21660.000000 -1142.000000 C 21652.000000 -1079.333333 21645.000000 -1019.666667 21639.000000 -963.000000 C 21633.666667 -907.000000 21629.666667 -858.666667 21627.000000 -818.000000 C 21643.666667 -879.333333 21669.333333 -943.000000 21704.000000 -1009.000000 C 21739.333333 -1075.000000 21782.333333 -1135.666667 21833.000000 -1191.000000 C 21883.666667 -1247.000000 21939.666667 -1292.333333 22001.000000 -1327.000000 C 22062.333333 -1362.333333 22127.000000 -1380.000000 22195.000000 -1380.000000 C 22275.666667 -1380.000000 22346.000000 -1353.666667 22406.000000 -1301.000000 C 22466.666667 -1249.000000 22513.333333 -1175.666667 22546.000000 -1081.000000 C 22579.333333 -986.333333 22596.000000 -875.000000 22596.000000 -747.000000 C 22596.000000 -616.333333 22576.000000 -504.000000 22536.000000 -410.000000 C 22496.666667 -316.000000 22441.666667 -237.333333 22371.000000 -174.000000 C 22301.000000 -110.666667 22218.666667 -59.333333 22124.000000 -20.000000 C 22029.333333 18.666667 21927.000000 47.666667 21817.000000 67.000000 C 21804.666667 49.000000 21792.333333 31.000000 21780.000000 13.000000 C 21882.666667 -2.333333 21979.333333 -26.666667 22070.000000 -60.000000 C 22161.333333 -94.000000 22242.000000 -140.333333 22312.000000 -199.000000 C 22382.666667 -258.333333 22438.000000 -332.666667 22478.000000 -422.000000 C 22518.666667 -512.000000 22539.000000 -619.000000 22539.000000 -743.000000 C 22539.000000 -847.000000 22526.666667 -943.333333 22502.000000 -1032.000000 C 22478.000000 -1120.666667 22440.333333 -1192.000000 22389.000000 -1246.000000 C 22337.666667 -1300.000000 22271.000000 -1327.000000 22189.000000 -1327.000000 C 22126.333333 -1327.000000 22065.000000 -1307.333333 22005.000000 -1268.000000 C 21945.000000 -1229.333333 21890.000000 -1178.666667 21840.000000 -1116.000000 C 21790.000000 -1054.000000 21748.666667 -987.666667 21716.000000 -917.000000 C 21683.333333 -847.000000 21662.000000 -780.666667 21652.000000 -718.000000 C 21644.000000 -670.666667 21640.000000 -627.000000 21640.000000 -587.000000 C 21640.000000 -547.666667 21644.000000 -501.666667 21652.000000 -449.000000 C 21631.333333 -447.333333 21610.666667 -445.666667 21590.000000 -444.000000 C 21586.666667 -479.333333 21583.000000 -521.333333 21579.000000 -570.000000 C 21575.000000 -618.666667 21573.000000 -673.000000 21573.000000 -733.000000 C 21573.000000 -779.666667 21575.333333 -832.666667 21580.000000 -892.000000 C 21585.333333 -951.333333 21591.666667 -1011.333333 21599.000000 -1072.000000 C 21606.333333 -1133.333333 21613.666667 -1189.333333 21621.000000 -1240.000000 C 21629.000000 -1291.333333 21634.666667 -1331.000000 21638.000000 -1359.000000 C 21642.000000 -1381.000000 21645.000000 -1401.666667 21647.000000 -1421.000000 C 21649.000000 -1440.333333 21651.333333 -1463.333333 21654.000000 -1490.000000 C 21678.333333 -1489.333333 21702.666667 -1488.666667 21727.000000 -1488.000000z "/>
</g></svg>
