<?xml version="1.0" ?>
<svg xmlns="http://www.w3.org/2000/svg" version="1.1" width="600" height="600">
  <defs/>
  <g>
    <path stroke-width="0" fill="rgb(0, 0, 0)" opacity="1.0" d="M 352.812255859375 187.74969482421875 C 352.812255859375 196.98046875 352.812255859375 207.03790283203125 352.812255859375 217.92193603515625 C 352.812255859375 228.80596923828125 352.812255859375 239.48333740234375 352.812255859375 249.95407104492188 C 352.812255859375 260.2870178222656 352.812255859375 269.586669921875 352.812255859375 277.85302734375 C 352.812255859375 288.8748474121094 353.087890625 300.9299621582031 353.638916015625 314.01837158203125 C 354.189697265625 327.10675048828125 354.740966796875 340.1951904296875 355.291748046875 353.2835693359375 C 355.980712890625 366.23419189453125 356.6005859375 378.15155029296875 357.151611328125 389.03558349609375 C 357.702392578125 399.7818603515625 357.97802734375 408.59930419921875 357.97802734375 415.4879150390625 C 357.97802734375 430.09185791015625 352.7431640625 441.0447998046875 342.274169921875 448.34674072265625 C 331.804931640625 455.5108642578125 318.16748046875 459.093017578125 301.361328125 459.093017578125 C 287.5859375 459.093017578125 275.463623046875 457.2330322265625 264.994384765625 453.51318359375 C 254.52490234375 449.7933349609375 246.3974609375 444.420166015625 240.61181640625 437.393798828125 C 234.826171875 430.2296142578125 231.933349609375 421.34326171875 231.933349609375 410.73480224609375 C 231.933349609375 403.57061767578125 234.137451171875 396.40643310546875 238.545654296875 389.24224853515625 C 243.091552734375 382.07806396484375 250.5302734375 376.15380859375 260.861572265625 371.4696044921875 C 271.193115234375 366.64752197265625 284.899658203125 364.23651123046875 301.981201171875 364.23651123046875 C 317.409423828125 364.23651123046875 331.804931640625 365.8209228515625 345.1669921875 368.9896240234375 C 358.529052734375 372.158447265625 370.9267578125 376.498291015625 382.3603515625 382.0091552734375 C 393.931884765625 387.38232421875 404.814208984375 393.7198486328125 415.008056640625 401.0218505859375 C 425.201904296875 408.32373046875 434.775634765625 415.9012451171875 443.729736328125 423.7542724609375 C 441.18115234375 427.887451171875 438.633056640625 432.0206298828125 436.08447265625 436.15380859375 C 423.6865234375 423.2032470703125 410.255615234375 412.181396484375 395.79150390625 403.08837890625 C 381.46484375 393.857666015625 366.380859375 386.900146484375 350.539306640625 382.2158203125 C 334.83544921875 377.393798828125 318.649169921875 374.9827880859375 301.981201171875 374.9827880859375 C 284.899658203125 374.9827880859375 270.780029296875 378.289306640625 259.621826171875 384.90240478515625 C 248.4638671875 391.5155029296875 242.884765625 400.12628173828125 242.884765625 410.73480224609375 C 242.884765625 423.13433837890625 248.25732421875 432.4339599609375 259.001953125 438.6337890625 C 269.746826171875 444.83349609375 284.0732421875 447.93341064453125 301.981201171875 447.93341064453125 C 314.929931640625 447.93341064453125 324.572998046875 446.00457763671875 330.909423828125 442.14697265625 C 337.384033203125 438.15155029296875 341.72314453125 432.8472900390625 343.92724609375 426.2342529296875 C 346.131103515625 419.62109375 347.233154296875 412.4569091796875 347.233154296875 404.74169921875 C 347.233154296875 399.50634765625 346.95751953125 391.9976806640625 346.40673828125 382.2158203125 C 345.993408203125 372.4339599609375 345.37353515625 361.5499267578125 344.547119140625 349.563720703125 C 343.720458984375 337.439697265625 343.03173828125 325.246826171875 342.480712890625 312.985107421875 C 341.929931640625 300.58551025390625 341.654296875 289.21929931640625 341.654296875 278.8863525390625 C 341.654296875 270.75775146484375 341.654296875 261.2514343261719 341.654296875 250.36737060546875 C 341.654296875 239.3455810546875 341.654296875 228.18597412109375 341.654296875 216.88861083984375 C 341.654296875 205.59127807617188 341.654296875 195.8782958984375 341.654296875 187.74969482421875 C 345.37353515625 187.74969482421875 349.093017578125 187.74969482421875 352.812255859375 187.74969482421875M 240.19873046875 272.27325439453125 C 262.927978515625 273.78875732421875 285.864013671875 274.47760009765625 309.006591796875 274.33984375 C 332.149169921875 274.06427001953125 354.396240234375 273.0998840332031 375.748291015625 271.44659423828125 C 397.23779296875 269.7933349609375 416.45458984375 268.0711669921875 433.398193359375 266.2801513671875 C 433.398193359375 270.413330078125 433.398193359375 274.5465087890625 433.398193359375 278.6796875 C 417.00537109375 280.1951904296875 397.9267578125 281.710693359375 376.16162109375 283.2261657714844 C 354.534423828125 284.6038818359375 332.01171875 285.4994201660156 308.59326171875 285.9127197265625 C 285.17529296875 286.3260498046875 262.376953125 285.8438720703125 240.19873046875 284.46612548828125 C 240.19873046875 280.4018249511719 240.19873046875 276.3375244140625 240.19873046875 272.27325439453125M 246.604248046875 180.92996215820312 C 265.063232421875 182.30767822265625 284.27978515625 182.92764282226562 304.254150390625 182.78988647460938 C 324.228271484375 182.65213012695312 343.5830078125 181.9632568359375 362.3173828125 180.72329711914062 C 381.189697265625 179.3455810546875 397.857666015625 177.69232177734375 412.322021484375 175.76348876953125 C 412.322021484375 179.7589111328125 412.322021484375 183.75430297851562 412.322021484375 187.74969482421875 C 397.995361328125 188.98965454101562 381.46484375 190.2296142578125 362.73046875 191.46957397460938 C 343.99609375 192.70953369140625 324.572998046875 193.46725463867188 304.460693359375 193.74282836914062 C 284.348876953125 194.01837158203125 265.063232421875 193.74282836914062 246.604248046875 192.91616821289062 C 246.604248046875 188.9207763671875 246.604248046875 184.92538452148438 246.604248046875 180.92996215820312M 164.365234375 160.6773681640625 C 163.814208984375 162.33065795898438 163.26318359375 164.12167358398438 162.712158203125 166.05050659179688 C 162.298828125 167.841552734375 161.8857421875 169.77035522460938 161.472412109375 171.83697509765625 C 161.05908203125 173.76577758789062 160.5771484375 175.9012451171875 160.02587890625 178.24337768554688 C 158.235107421875 187.74969482421875 156.306640625 197.8759765625 154.240234375 208.62225341796875 C 152.311767578125 219.23077392578125 150.4521484375 230.2525634765625 148.661376953125 241.68771362304688 C 147.00830078125 253.12283325195312 145.492919921875 264.5579833984375 144.115478515625 275.99310302734375 C 142.875732421875 287.29046630859375 141.842529296875 298.4500732421875 141.015869140625 309.47186279296875 C 140.189453125 320.35589599609375 139.776123046875 330.6888427734375 139.776123046875 340.470703125 C 139.776123046875 355.76348876953125 140.25830078125 369.88519287109375 141.22265625 382.8358154296875 C 142.324462890625 395.648681640625 143.840087890625 409.8392333984375 145.7685546875 425.4075927734375 C 148.110107421875 417.9678955078125 150.934326171875 409.494873046875 154.240234375 399.988525390625 C 157.54638671875 390.482177734375 160.92138671875 381.18255615234375 164.365234375 372.08953857421875 C 167.80908203125 362.8587646484375 170.839599609375 355.0745849609375 173.45703125 348.737060546875 C 176.14306640625 351.01031494140625 178.829345703125 353.2835693359375 181.515625 355.55682373046875 C 178.622802734375 362.72100830078125 175.247802734375 371.5384521484375 171.390625 382.0091552734375 C 167.533447265625 392.47991943359375 163.951904296875 402.675048828125 160.645751953125 412.5947265625 C 157.33984375 422.51434326171875 154.998046875 430.367431640625 153.620361328125 436.15380859375 C 153.0693359375 438.771484375 152.587158203125 441.5958251953125 152.174072265625 444.6268310546875 C 151.898681640625 447.6578369140625 151.898681640625 450.482177734375 152.174072265625 453.099853515625 C 152.449462890625 455.0286865234375 152.656005859375 457.0263671875 152.7939453125 459.093017578125 C 153.0693359375 461.29736328125 153.344970703125 463.01953125 153.620361328125 464.25946044921875 C 149.969970703125 464.67279052734375 146.319580078125 465.08612060546875 142.6689453125 465.4993896484375 C 138.67431640625 450.6199951171875 135.230224609375 432.8472900390625 132.33740234375 412.181396484375 C 129.58251953125 391.377685546875 128.204833984375 367.6119384765625 128.204833984375 340.884033203125 C 128.204833984375 326.5556640625 128.962646484375 311.67626953125 130.477783203125 296.2456970214844 C 132.130859375 280.81512451171875 134.059326171875 265.66015625 136.263427734375 250.78070068359375 C 138.605224609375 235.76348876953125 140.809326171875 221.84844970703125 142.875732421875 209.03558349609375 C 145.079833984375 196.0849609375 146.801513671875 185.26980590820312 148.04150390625 176.59011840820312 C 148.592529296875 172.87026977539062 149.005859375 169.563720703125 149.28125 166.67047119140625 C 149.556640625 163.77725219726562 149.6943359375 161.29736328125 149.6943359375 159.23077392578125 C 154.584716796875 159.71298217773438 159.474853515625 160.19515991210938 164.365234375 160.6773681640625M 406.742919921875 147.65786743164062 C 409.222412109375 152.204345703125 412.115234375 157.85302734375 415.42138671875 164.6038818359375 C 418.7275390625 171.354736328125 421.964599609375 178.24337768554688 425.133056640625 185.26980590820312 C 428.301513671875 192.158447265625 430.918701171875 198.42706298828125 432.98486328125 204.07574462890625 C 428.852294921875 205.66015625 424.7197265625 207.24456787109375 420.587158203125 208.82891845703125 C 418.79638671875 202.90472412109375 416.385498046875 196.498291015625 413.35498046875 189.60964965820312 C 410.32470703125 182.58322143554688 407.293701171875 175.625732421875 404.263427734375 168.737060546875 C 401.23291015625 161.84841918945312 398.40869140625 155.99310302734375 395.79150390625 151.17105102539062 C 399.44189453125 150.0 403.092529296875 148.82891845703125 406.742919921875 147.65786743164062M 445.58935546875 135.25830078125 C 448.3447265625 139.8048095703125 451.30615234375 145.4534912109375 454.474609375 152.204345703125 C 457.64306640625 158.9552001953125 460.81103515625 165.84384155273438 463.9794921875 172.87026977539062 C 467.14794921875 179.89666748046875 469.76513671875 186.16531372070312 471.83154296875 191.67623901367188 C 467.767822265625 193.26058959960938 463.703857421875 194.84500122070312 459.640380859375 196.42938232421875 C 456.196533203125 187.47415161132812 452.132568359375 177.48565673828125 447.44921875 166.46383666992188 C 442.765625 155.4420166015625 438.357421875 146.5556640625 434.224853515625 139.8048095703125 C 438.01318359375 138.289306640625 441.801025390625 136.77383422851562 445.58935546875 135.25830078125"/>
  </g>
</svg>
