<?xml version="1.0" encoding="utf-8"?>
<svg xmlns="http://www.w3.org/2000/svg" xmlns:ev="http://www.w3.org/2001/xml-events" xmlns:xlink="http://www.w3.org/1999/xlink" version="1.1" baseProfile="full" width="14880.0" height="1739.0" viewBox="382.0 -1601.0 14880.0 1739.0">
<defs/>
<g><path d="M 11923.000000 -1196.000000 C 12364.000000 -1196.000000 12805.000000 -1196.000000 13246.000000 -1196.000000 C 13246.000000 -1177.333333 13246.000000 -1158.666667 13246.000000 -1140.000000 C 12805.000000 -1140.000000 12364.000000 -1140.000000 11923.000000 -1140.000000 C 11923.000000 -1158.666667 11923.000000 -1177.333333 11923.000000 -1196.000000z M 11833.000000 -636.000000 C 12282.333333 -636.000000 12731.666667 -636.000000 13181.000000 -636.000000 C 13181.000000 -617.333333 13181.000000 -598.666667 13181.000000 -580.000000 C 12731.666667 -580.000000 12282.333333 -580.000000 11833.000000 -580.000000 C 11833.000000 -598.666667 11833.000000 -617.333333 11833.000000 -636.000000z M 11635.000000 12.000000 C 12200.333333 12.000000 12765.666667 12.000000 13331.000000 12.000000 C 13331.000000 30.333333 13331.000000 48.666667 13331.000000 67.000000 C 12765.666667 67.000000 12200.333333 67.000000 11635.000000 67.000000 C 11635.000000 48.666667 11635.000000 30.333333 11635.000000 12.000000z M 12455.000000 -1594.000000 C 12474.333333 -1594.000000 12493.666667 -1594.000000 12513.000000 -1594.000000 C 12513.000000 -1049.333333 12513.000000 -504.666667 12513.000000 40.000000 C 12493.666667 40.000000 12474.333333 40.000000 12455.000000 40.000000 C 12455.000000 -504.666667 12455.000000 -1049.333333 12455.000000 -1594.000000z M 12036.000000 -1555.000000 C 12054.666667 -1551.333333 12073.333333 -1547.666667 12092.000000 -1544.000000 C 12065.333333 -1445.333333 12033.000000 -1349.666667 11995.000000 -1257.000000 C 11957.666667 -1165.000000 11915.666667 -1079.333333 11869.000000 -1000.000000 C 11823.000000 -920.666667 11774.000000 -850.333333 11722.000000 -789.000000 C 11718.000000 -793.000000 11712.666667 -796.666667 11706.000000 -800.000000 C 11700.000000 -804.000000 11693.666667 -808.333333 11687.000000 -813.000000 C 11680.333333 -817.666667 11674.666667 -820.666667 11670.000000 -822.000000 C 11724.666667 -882.000000 11774.666667 -950.666667 11820.000000 -1028.000000 C 11866.000000 -1105.333333 11907.000000 -1188.666667 11943.000000 -1278.000000 C 11979.666667 -1368.000000 12010.666667 -1460.333333 12036.000000 -1555.000000z "/>
</g></svg>
