<?xml version="1.0" encoding="utf-8"?>
<svg xmlns="http://www.w3.org/2000/svg" xmlns:ev="http://www.w3.org/2001/xml-events" xmlns:xlink="http://www.w3.org/1999/xlink" version="1.1" baseProfile="full" width="41856.0" height="1776.0" viewBox="67.0 -1634.0 41856.0 1776.0">
<defs/>
<g><path d="M 34992.000000 -563.000000 C 35429.666667 -563.000000 35867.333333 -563.000000 36305.000000 -563.000000 C 36305.000000 -544.333333 36305.000000 -525.666667 36305.000000 -507.000000 C 35867.333333 -507.000000 35429.666667 -507.000000 34992.000000 -507.000000 C 34992.000000 -525.666667 34992.000000 -544.333333 34992.000000 -563.000000z M 34756.000000 -1250.000000 C 35168.666667 -1250.000000 35581.333333 -1250.000000 35994.000000 -1250.000000 C 35994.000000 -1230.666667 35994.000000 -1211.333333 35994.000000 -1192.000000 C 35581.333333 -1192.000000 35168.666667 -1192.000000 34756.000000 -1192.000000 C 34756.000000 -1211.333333 34756.000000 -1230.666667 34756.000000 -1250.000000z M 35270.000000 -910.000000 C 35566.333333 -910.000000 35862.666667 -910.000000 36159.000000 -910.000000 C 36159.000000 -890.666667 36159.000000 -871.333333 36159.000000 -852.000000 C 35862.666667 -852.000000 35566.333333 -852.000000 35270.000000 -852.000000 C 35270.000000 -871.333333 35270.000000 -890.666667 35270.000000 -910.000000z M 36271.000000 -563.000000 C 36290.000000 -563.000000 36309.000000 -563.000000 36328.000000 -563.000000 C 36328.000000 -563.000000 36327.666667 -560.666667 36327.000000 -556.000000 C 36326.333333 -551.333333 36326.000000 -546.000000 36326.000000 -540.000000 C 36326.000000 -534.666667 36325.333333 -530.000000 36324.000000 -526.000000 C 36311.333333 -386.666667 36298.333333 -274.000000 36285.000000 -188.000000 C 36271.666667 -102.666667 36257.000000 -37.333333 36241.000000 8.000000 C 36225.000000 54.000000 36206.666667 87.333333 36186.000000 108.000000 C 36173.333333 120.666667 36159.000000 129.000000 36143.000000 133.000000 C 36127.000000 137.666667 36106.333333 140.000000 36081.000000 140.000000 C 36059.000000 141.333333 36025.666667 141.333333 35981.000000 140.000000 C 35936.333333 138.666667 35889.000000 136.000000 35839.000000 132.000000 C 35837.666667 124.666667 35835.666667 115.666667 35833.000000 105.000000 C 35830.333333 95.000000 35826.333333 85.666667 35821.000000 77.000000 C 35876.333333 81.666667 35927.333333 84.666667 35974.000000 86.000000 C 36020.666667 87.333333 36052.333333 88.000000 36069.000000 88.000000 C 36088.333333 88.000000 36103.333333 87.000000 36114.000000 85.000000 C 36125.333333 83.666667 36134.666667 79.000000 36142.000000 71.000000 C 36160.000000 54.333333 36176.000000 24.000000 36190.000000 -20.000000 C 36204.000000 -64.000000 36217.666667 -129.000000 36231.000000 -215.000000 C 36245.000000 -301.000000 36258.333333 -413.000000 36271.000000 -551.000000 C 36271.000000 -555.000000 36271.000000 -559.000000 36271.000000 -563.000000z M 35827.000000 -367.000000 C 35841.000000 -374.000000 35855.000000 -381.000000 35869.000000 -388.000000 C 35905.000000 -349.333333 35938.666667 -305.666667 35970.000000 -257.000000 C 36001.333333 -208.333333 36024.000000 -166.666667 36038.000000 -132.000000 C 36023.333333 -123.333333 36008.666667 -114.666667 35994.000000 -106.000000 C 35978.666667 -141.333333 35955.333333 -183.666667 35924.000000 -233.000000 C 35892.666667 -282.333333 35860.333333 -327.000000 35827.000000 -367.000000z M 35015.000000 -1561.000000 C 35029.666667 -1568.666667 35044.333333 -1576.333333 35059.000000 -1584.000000 C 35100.333333 -1544.000000 35140.000000 -1499.000000 35178.000000 -1449.000000 C 35216.666667 -1399.666667 35245.666667 -1356.333333 35265.000000 -1319.000000 C 35249.666667 -1308.000000 35234.333333 -1297.000000 35219.000000 -1286.000000 C 35201.000000 -1326.000000 35172.666667 -1371.666667 35134.000000 -1423.000000 C 35095.333333 -1474.333333 35055.666667 -1520.333333 35015.000000 -1561.000000z M 35268.000000 -324.000000 C 35284.666667 -326.666667 35301.333333 -329.333333 35318.000000 -332.000000 C 35338.666667 -273.333333 35354.000000 -208.666667 35364.000000 -138.000000 C 35374.666667 -68.000000 35380.000000 -8.000000 35380.000000 42.000000 C 35361.333333 45.333333 35342.666667 48.666667 35324.000000 52.000000 C 35325.333333 18.666667 35323.666667 -19.333333 35319.000000 -62.000000 C 35315.000000 -105.333333 35308.666667 -149.666667 35300.000000 -195.000000 C 35292.000000 -240.333333 35281.333333 -283.333333 35268.000000 -324.000000z M 35545.000000 -344.000000 C 35561.000000 -347.666667 35577.000000 -351.333333 35593.000000 -355.000000 C 35621.000000 -303.666667 35646.333333 -248.000000 35669.000000 -188.000000 C 35692.333333 -128.000000 35708.666667 -76.333333 35718.000000 -33.000000 C 35700.000000 -27.000000 35682.000000 -21.000000 35664.000000 -15.000000 C 35656.000000 -60.333333 35640.333333 -113.666667 35617.000000 -175.000000 C 35594.333333 -236.333333 35570.333333 -292.666667 35545.000000 -344.000000z M 35032.000000 -348.000000 C 35048.666667 -342.666667 35065.333333 -337.333333 35082.000000 -332.000000 C 35065.333333 -280.666667 35045.666667 -227.000000 35023.000000 -171.000000 C 35001.000000 -115.666667 34974.666667 -62.666667 34944.000000 -12.000000 C 34913.333333 38.000000 34878.000000 82.333333 34838.000000 121.000000 C 34822.666667 111.333333 34807.333333 101.666667 34792.000000 92.000000 C 34832.000000 56.000000 34867.333333 13.333333 34898.000000 -36.000000 C 34928.666667 -86.000000 34955.000000 -138.333333 34977.000000 -193.000000 C 34999.666667 -247.666667 35018.000000 -299.333333 35032.000000 -348.000000z M 35587.000000 -1596.000000 C 35605.666667 -1590.000000 35624.333333 -1584.000000 35643.000000 -1578.000000 C 35599.666667 -1447.333333 35547.000000 -1319.000000 35485.000000 -1193.000000 C 35423.666667 -1067.000000 35353.333333 -946.666667 35274.000000 -832.000000 C 35194.666667 -717.333333 35105.666667 -610.333333 35007.000000 -511.000000 C 34909.000000 -412.333333 34801.000000 -324.666667 34683.000000 -248.000000 C 34680.333333 -251.333333 34677.000000 -256.000000 34673.000000 -262.000000 C 34669.666667 -268.000000 34665.666667 -273.333333 34661.000000 -278.000000 C 34656.333333 -283.333333 34652.000000 -288.000000 34648.000000 -292.000000 C 34764.666667 -366.000000 34871.333333 -451.666667 34968.000000 -549.000000 C 35064.666667 -646.333333 35152.000000 -751.666667 35230.000000 -865.000000 C 35308.000000 -978.333333 35376.666667 -1096.666667 35436.000000 -1220.000000 C 35496.000000 -1343.333333 35546.333333 -1468.666667 35587.000000 -1596.000000z M 35975.000000 -1250.000000 C 35995.000000 -1250.000000 36015.000000 -1250.000000 36035.000000 -1250.000000 C 36021.666667 -1188.666667 36007.666667 -1124.000000 35993.000000 -1056.000000 C 35978.333333 -988.000000 35964.666667 -929.666667 35952.000000 -881.000000 C 35933.333333 -883.000000 35914.666667 -885.000000 35896.000000 -887.000000 C 35910.000000 -935.666667 35924.000000 -993.666667 35938.000000 -1061.000000 C 35952.666667 -1128.333333 35965.000000 -1191.333333 35975.000000 -1250.000000z M 36138.000000 -910.000000 C 36158.000000 -910.000000 36178.000000 -910.000000 36198.000000 -910.000000 C 36185.333333 -847.333333 36171.666667 -781.000000 36157.000000 -711.000000 C 36143.000000 -641.666667 36129.666667 -582.666667 36117.000000 -534.000000 C 36097.333333 -534.666667 36077.666667 -535.333333 36058.000000 -536.000000 C 36072.000000 -586.000000 36086.666667 -646.000000 36102.000000 -716.000000 C 36117.333333 -786.666667 36129.333333 -851.333333 36138.000000 -910.000000z "/>
</g></svg>
