<?xml version="1.0" ?>
<svg xmlns="http://www.w3.org/2000/svg" version="1.1" width="600" height="600">
  <defs/>
  <g>
    <path stroke-width="0" fill="rgb(0, 0, 0)" opacity="1.0" d="M 146.50314331054688 244.1612548828125 C 147.71417236328125 244.1612548828125 148.92520141601562 244.1612548828125 150.13623046875 244.1612548828125 C 150.13623046875 249.0860595703125 150.13623046875 254.0107421875 150.13623046875 258.93548583984375 C 148.92520141601562 258.93548583984375 147.71417236328125 258.93548583984375 146.50314331054688 258.93548583984375 C 146.50314331054688 254.0107421875 146.50314331054688 249.0860595703125 146.50314331054688 244.1612548828125M 122.69345092773438 256.54840087890625 C 139.92898559570312 256.54840087890625 157.16455078125 256.54840087890625 174.40008544921875 256.54840087890625 C 174.40008544921875 257.752685546875 174.40008544921875 258.95703125 174.40008544921875 260.1612548828125 C 157.16455078125 260.1612548828125 139.92898559570312 260.1612548828125 122.69345092773438 260.1612548828125 C 122.69345092773438 258.95703125 122.69345092773438 257.752685546875 122.69345092773438 256.54840087890625M 120.2281494140625 282.741943359375 C 139.12884521484375 282.741943359375 158.029541015625 282.741943359375 176.93026733398438 282.741943359375 C 176.93026733398438 283.9677734375 176.93026733398438 285.19354248046875 176.93026733398438 286.41937255859375 C 158.029541015625 286.41937255859375 139.12884521484375 286.41937255859375 120.2281494140625 286.41937255859375 C 120.2281494140625 285.19354248046875 120.2281494140625 283.9677734375 120.2281494140625 282.741943359375M 130.21914672851562 312.1612548828125 C 142.67544555664062 312.1612548828125 155.13174438476562 312.1612548828125 167.58804321289062 312.1612548828125 C 167.58804321289062 313.3656005859375 167.58804321289062 314.56988525390625 167.58804321289062 315.774169921875 C 155.13174438476562 315.774169921875 142.67544555664062 315.774169921875 130.21914672851562 315.774169921875 C 130.21914672851562 314.56988525390625 130.21914672851562 313.3656005859375 130.21914672851562 312.1612548828125M 130.21914672851562 328.0322265625 C 142.67544555664062 328.0322265625 155.13174438476562 328.0322265625 167.58804321289062 328.0322265625 C 167.58804321289062 329.236572265625 167.58804321289062 330.44085693359375 167.58804321289062 331.6451416015625 C 155.13174438476562 331.6451416015625 142.67544555664062 331.6451416015625 130.21914672851562 331.6451416015625 C 130.21914672851562 330.44085693359375 130.21914672851562 329.236572265625 130.21914672851562 328.0322265625M 131.32205200195312 263.0 C 132.44656372070312 262.720458984375 133.57110595703125 262.44085693359375 134.69561767578125 262.1612548828125 C 135.9931640625 264.95703125 137.20419311523438 268.0322265625 138.32870483398438 271.3870849609375 C 139.4532470703125 274.741943359375 140.23175048828125 277.6021728515625 140.66427612304688 279.9677734375 C 139.4532470703125 280.31182861328125 138.24221801757812 280.6558837890625 137.03118896484375 281.0 C 136.72842407226562 278.5914306640625 136.03640747070312 275.709716796875 134.95513916015625 272.3548583984375 C 133.87384033203125 268.95703125 132.66281127929688 265.8387451171875 131.32205200195312 263.0M 163.17642211914062 261.774169921875 C 164.387451171875 262.268798828125 165.59848022460938 262.763427734375 166.80950927734375 263.258056640625 C 165.6417236328125 266.31182861328125 164.387451171875 269.49462890625 163.04669189453125 272.80645751953125 C 161.7491455078125 276.1182861328125 160.5164794921875 279.0 159.34872436523438 281.45159912109375 C 158.31069946289062 281.0 157.27267456054688 280.54840087890625 156.23464965820312 280.0968017578125 C 157.40240478515625 277.6451416015625 158.65670776367188 274.6343994140625 159.99746704101562 271.06451416015625 C 161.38150024414062 267.49462890625 162.441162109375 264.3978271484375 163.17642211914062 261.774169921875M 127.94845581054688 296.93548583984375 C 141.20489501953125 296.93548583984375 154.46133422851562 296.93548583984375 167.7177734375 296.93548583984375 C 167.7177734375 298.1397705078125 167.7177734375 299.3441162109375 167.7177734375 300.54840087890625 C 155.67236328125 300.54840087890625 143.626953125 300.54840087890625 131.58154296875 300.54840087890625 C 131.58154296875 318.8709716796875 131.58154296875 337.19354248046875 131.58154296875 355.51611328125 C 130.37051391601562 355.51611328125 129.15948486328125 355.51611328125 127.94845581054688 355.51611328125 C 127.94845581054688 335.9892578125 127.94845581054688 316.46240234375 127.94845581054688 296.93548583984375M 166.09588623046875 296.93548583984375 C 167.2852783203125 296.93548583984375 168.47467041015625 296.93548583984375 169.66409301757812 296.93548583984375 C 169.66409301757812 314.6129150390625 169.66409301757812 332.290283203125 169.66409301757812 349.9677734375 C 169.66409301757812 351.3870849609375 169.46945190429688 352.48388671875 169.0802001953125 353.258056640625 C 168.73419189453125 354.0322265625 167.977294921875 354.6343994140625 166.80950927734375 355.06451416015625 C 165.55523681640625 355.3656005859375 163.76031494140625 355.53759765625 161.42477416992188 355.5806884765625 C 159.1324462890625 355.6236572265625 156.19137573242188 355.6451416015625 152.6015625 355.6451416015625 C 152.51504516601562 355.17205810546875 152.29879760742188 354.54840087890625 151.95278930664062 353.774169921875 C 151.6500244140625 353.04296875 151.32565307617188 352.3978271484375 150.97964477539062 351.8387451171875 C 154.30996704101562 351.92474365234375 157.12127685546875 351.9892578125 159.41357421875 352.0322265625 C 161.70590209960938 352.07525634765625 163.262939453125 352.05377197265625 164.084716796875 351.9677734375 C 164.90646362304688 351.8817138671875 165.44711303710938 351.709716796875 165.70660400390625 351.45159912109375 C 165.96612548828125 351.19354248046875 166.09588623046875 350.69891357421875 166.09588623046875 349.9677734375 C 166.09588623046875 332.290283203125 166.09588623046875 314.6129150390625 166.09588623046875 296.93548583984375M 186.27249145507812 255.32257080078125 C 201.345458984375 255.32257080078125 216.41845703125 255.32257080078125 231.491455078125 255.32257080078125 C 231.491455078125 256.52685546875 231.491455078125 257.731201171875 231.491455078125 258.93548583984375 C 216.41845703125 258.93548583984375 201.345458984375 258.93548583984375 186.27249145507812 258.93548583984375 C 186.27249145507812 257.731201171875 186.27249145507812 256.52685546875 186.27249145507812 255.32257080078125M 186.4022216796875 305.6451416015625 C 199.63705444335938 305.6451416015625 212.87188720703125 305.6451416015625 226.106689453125 305.6451416015625 C 226.106689453125 306.82794189453125 226.106689453125 308.0107421875 226.106689453125 309.19354248046875 C 212.87188720703125 309.19354248046875 199.63705444335938 309.19354248046875 186.4022216796875 309.19354248046875 C 186.4022216796875 308.0107421875 186.4022216796875 306.82794189453125 186.4022216796875 305.6451416015625M 186.27249145507812 319.3870849609375 C 199.29104614257812 319.3870849609375 212.30960083007812 319.3870849609375 225.32818603515625 319.3870849609375 C 225.32818603515625 320.6129150390625 225.32818603515625 321.8387451171875 225.32818603515625 323.06451416015625 C 212.30960083007812 323.06451416015625 199.29104614257812 323.06451416015625 186.27249145507812 323.06451416015625 C 186.27249145507812 321.8387451171875 186.27249145507812 320.6129150390625 186.27249145507812 319.3870849609375M 186.4022216796875 333.9677734375 C 199.81005859375 333.9677734375 213.2178955078125 333.9677734375 226.62570190429688 333.9677734375 C 226.62570190429688 335.17205810546875 226.62570190429688 336.3763427734375 226.62570190429688 337.5806884765625 C 213.2178955078125 337.5806884765625 199.81005859375 337.5806884765625 186.4022216796875 337.5806884765625 C 186.4022216796875 336.3763427734375 186.4022216796875 335.17205810546875 186.4022216796875 333.9677734375M 184.52081298828125 244.0322265625 C 185.710205078125 244.0322265625 186.89962768554688 244.0322265625 188.08901977539062 244.0322265625 C 188.08901977539062 254.07525634765625 188.08901977539062 264.1182861328125 188.08901977539062 274.1612548828125 C 186.89962768554688 274.1612548828125 185.710205078125 274.1612548828125 184.52081298828125 274.1612548828125 C 184.52081298828125 264.1182861328125 184.52081298828125 254.07525634765625 184.52081298828125 244.0322265625M 184.52081298828125 272.290283203125 C 198.46926879882812 272.290283203125 212.417724609375 272.290283203125 226.3662109375 272.290283203125 C 226.3662109375 279.9031982421875 226.3662109375 287.51611328125 226.3662109375 295.1290283203125 C 212.417724609375 295.1290283203125 198.46926879882812 295.1290283203125 184.52081298828125 295.1290283203125 C 184.52081298828125 293.92474365234375 184.52081298828125 292.720458984375 184.52081298828125 291.51611328125 C 197.21499633789062 291.51611328125 209.9091796875 291.51611328125 222.60336303710938 291.51611328125 C 222.60336303710938 286.3548583984375 222.60336303710938 281.19354248046875 222.60336303710938 276.0322265625 C 209.9091796875 276.0322265625 197.21499633789062 276.0322265625 184.52081298828125 276.0322265625 C 184.52081298828125 274.784912109375 184.52081298828125 273.53759765625 184.52081298828125 272.290283203125M 184.52081298828125 294.0968017578125 C 185.710205078125 294.0968017578125 186.89962768554688 294.0968017578125 188.08901977539062 294.0968017578125 C 188.08901977539062 311.68817138671875 188.08901977539062 329.279541015625 188.08901977539062 346.8709716796875 C 188.08901977539062 348.5914306640625 188.56478881835938 349.752685546875 189.51629638671875 350.3548583984375 C 190.51107788085938 351.0 192.738525390625 351.32257080078125 196.1986083984375 351.32257080078125 C 197.02035522460938 351.32257080078125 198.66390991210938 351.32257080078125 201.12921142578125 351.32257080078125 C 203.59454345703125 351.32257080078125 206.34097290039062 351.32257080078125 209.3685302734375 351.32257080078125 C 212.3961181640625 351.32257080078125 215.22906494140625 351.32257080078125 217.86737060546875 351.32257080078125 C 220.5489501953125 351.32257080078125 222.43035888671875 351.32257080078125 223.51162719726562 351.32257080078125 C 225.06866455078125 351.32257080078125 226.258056640625 351.04296875 227.079833984375 350.48388671875 C 227.94485473632812 349.9677734375 228.52874755859375 348.93548583984375 228.83151245117188 347.3870849609375 C 229.17752075195312 345.8817138671875 229.39376831054688 343.6451416015625 229.48028564453125 340.67742919921875 C 229.95602416992188 341.021484375 230.5399169921875 341.3441162109375 231.23193359375 341.6451416015625 C 231.96722412109375 341.9031982421875 232.615966796875 342.1182861328125 233.17822265625 342.290283203125 C 233.0484619140625 345.6021728515625 232.70245361328125 348.18280029296875 232.14019775390625 350.0322265625 C 231.6212158203125 351.8817138671875 230.6912841796875 353.17205810546875 229.35052490234375 353.9031982421875 C 228.00973510742188 354.67742919921875 226.06344604492188 355.06451416015625 223.51162719726562 355.06451416015625 C 223.0791015625 355.06451416015625 221.95458984375 355.06451416015625 220.1380615234375 355.06451416015625 C 218.32150268554688 355.06451416015625 216.18057250976562 355.06451416015625 213.71527099609375 355.06451416015625 C 211.24993896484375 355.06451416015625 208.76303100585938 355.06451416015625 206.25445556640625 355.06451416015625 C 203.78915405273438 355.06451416015625 201.66986083984375 355.06451416015625 199.89654541015625 355.06451416015625 C 198.12326049804688 355.06451416015625 197.02035522460938 355.06451416015625 196.58786010742188 355.06451416015625 C 193.4305419921875 355.06451416015625 190.9652099609375 354.8494873046875 189.19192504882812 354.4193115234375 C 187.46188354492188 354.0322265625 186.2508544921875 353.236572265625 185.558837890625 352.0322265625 C 184.8668212890625 350.82794189453125 184.52081298828125 349.06451416015625 184.52081298828125 346.741943359375 C 184.52081298828125 329.19354248046875 184.52081298828125 311.6451416015625 184.52081298828125 294.0968017578125"/>
    <path stroke-width="0" fill="rgb(0, 0, 0)" opacity="1.0" d="M 289.8803405761719 256.67742919921875 C 311.8951110839844 256.67742919921875 333.909912109375 256.67742919921875 355.9246826171875 256.67742919921875 C 355.9246826171875 257.8817138671875 355.9246826171875 259.0860595703125 355.9246826171875 260.29034423828125 C 333.909912109375 260.29034423828125 311.8951110839844 260.29034423828125 289.8803405761719 260.29034423828125 C 289.8803405761719 259.0860595703125 289.8803405761719 257.8817138671875 289.8803405761719 256.67742919921875M 286.24725341796875 285.9031982421875 C 309.92718505859375 285.9031982421875 333.607177734375 285.9031982421875 357.287109375 285.9031982421875 C 357.287109375 287.1075439453125 357.287109375 288.31182861328125 357.287109375 289.51611328125 C 333.607177734375 289.51611328125 309.92718505859375 289.51611328125 286.24725341796875 289.51611328125 C 286.24725341796875 288.31182861328125 286.24725341796875 287.1075439453125 286.24725341796875 285.9031982421875M 286.24725341796875 331.1290283203125 C 309.92718505859375 331.1290283203125 333.607177734375 331.1290283203125 357.287109375 331.1290283203125 C 357.287109375 332.3763427734375 357.287109375 333.6236572265625 357.287109375 334.8709716796875 C 333.607177734375 334.8709716796875 309.92718505859375 334.8709716796875 286.24725341796875 334.8709716796875 C 286.24725341796875 333.6236572265625 286.24725341796875 332.3763427734375 286.24725341796875 331.1290283203125M 297.0816345214844 315.51611328125 C 314.12255859375 315.51611328125 331.1634521484375 315.51611328125 348.204345703125 315.51611328125 C 348.204345703125 316.720458984375 348.204345703125 317.92474365234375 348.204345703125 319.1290283203125 C 331.1634521484375 319.1290283203125 314.12255859375 319.1290283203125 297.0816345214844 319.1290283203125 C 297.0816345214844 317.92474365234375 297.0816345214844 316.720458984375 297.0816345214844 315.51611328125M 292.47540283203125 270.80645751953125 C 312.82501220703125 270.80645751953125 333.17462158203125 270.80645751953125 353.52423095703125 270.80645751953125 C 353.52423095703125 272.05377197265625 353.52423095703125 273.30108642578125 353.52423095703125 274.54840087890625 C 333.17462158203125 274.54840087890625 312.82501220703125 274.54840087890625 292.47540283203125 274.54840087890625 C 292.47540283203125 273.30108642578125 292.47540283203125 272.05377197265625 292.47540283203125 270.80645751953125M 306.4238586425781 244.29034423828125 C 307.6348876953125 244.29034423828125 308.8459167480469 244.29034423828125 310.05694580078125 244.29034423828125 C 310.05694580078125 258.69891357421875 310.05694580078125 273.1075439453125 310.05694580078125 287.51611328125 C 308.8459167480469 287.51611328125 307.6348876953125 287.51611328125 306.4238586425781 287.51611328125 C 306.4238586425781 273.1075439453125 306.4238586425781 258.69891357421875 306.4238586425781 244.29034423828125M 335.35882568359375 244.29034423828125 C 336.5914306640625 244.29034423828125 337.8240966796875 244.29034423828125 339.0567626953125 244.29034423828125 C 339.0567626953125 258.69891357421875 339.0567626953125 273.1075439453125 339.0567626953125 287.51611328125 C 337.8240966796875 287.51611328125 336.5914306640625 287.51611328125 335.35882568359375 287.51611328125 C 335.35882568359375 273.1075439453125 335.35882568359375 258.69891357421875 335.35882568359375 244.29034423828125M 319.9181823730469 287.19354248046875 C 321.10760498046875 287.19354248046875 322.2969970703125 287.19354248046875 323.48638916015625 287.19354248046875 C 323.48638916015625 302.46240234375 323.48638916015625 317.731201171875 323.48638916015625 333.0 C 322.2969970703125 333.0 321.10760498046875 333.0 319.9181823730469 333.0 C 319.9181823730469 317.731201171875 319.9181823730469 302.46240234375 319.9181823730469 287.19354248046875M 346.0634765625 299.19354248046875 C 347.3177490234375 299.19354248046875 348.572021484375 299.19354248046875 349.8262939453125 299.19354248046875 C 349.8262939453125 316.1182861328125 349.8262939453125 333.04296875 349.8262939453125 349.9677734375 C 349.8262939453125 351.47314453125 349.58837890625 352.5914306640625 349.1126708984375 353.32257080078125 C 348.63690185546875 354.05377197265625 347.83673095703125 354.6343994140625 346.71221923828125 355.06451416015625 C 345.45794677734375 355.3656005859375 343.53326416015625 355.53759765625 340.938232421875 355.5806884765625 C 338.3863525390625 355.6236572265625 335.034423828125 355.6451416015625 330.88232421875 355.6451416015625 C 330.79583740234375 355.17205810546875 330.6011962890625 354.56988525390625 330.2984619140625 353.8387451171875 C 329.99566650390625 353.1505126953125 329.69293212890625 352.52685546875 329.39013671875 351.9677734375 C 333.02325439453125 352.05377197265625 336.1373291015625 352.1182861328125 338.732421875 352.1612548828125 C 341.3707275390625 352.204345703125 343.1007080078125 352.18280029296875 343.9224853515625 352.0968017578125 C 344.830810546875 352.0107421875 345.4146728515625 351.81719970703125 345.6741943359375 351.51611328125 C 345.9337158203125 351.215087890625 346.0634765625 350.69891357421875 346.0634765625 349.9677734375 C 346.0634765625 333.04296875 346.0634765625 316.1182861328125 346.0634765625 299.19354248046875M 295.1353454589844 299.19354248046875 C 312.6520080566406 299.19354248046875 330.168701171875 299.19354248046875 347.68536376953125 299.19354248046875 C 347.68536376953125 300.3978271484375 347.68536376953125 301.6021728515625 347.68536376953125 302.80645751953125 C 331.35809326171875 302.80645751953125 315.03082275390625 302.80645751953125 298.70355224609375 302.80645751953125 C 298.70355224609375 320.4193115234375 298.70355224609375 338.0322265625 298.70355224609375 355.6451416015625 C 297.51416015625 355.6451416015625 296.3247375488281 355.6451416015625 295.1353454589844 355.6451416015625 C 295.1353454589844 336.82794189453125 295.1353454589844 318.0107421875 295.1353454589844 299.19354248046875M 249.6568603515625 281.5806884765625 C 260.3182373046875 281.5806884765625 270.9796447753906 281.5806884765625 281.6410217285156 281.5806884765625 C 281.6410217285156 282.784912109375 281.6410217285156 283.9892578125 281.6410217285156 285.19354248046875 C 270.9796447753906 285.19354248046875 260.3182373046875 285.19354248046875 249.6568603515625 285.19354248046875 C 249.6568603515625 283.9892578125 249.6568603515625 282.784912109375 249.6568603515625 281.5806884765625M 250.37051391601562 249.0 C 260.6859130859375 249.0 271.00128173828125 249.0 281.316650390625 249.0 C 281.316650390625 250.20428466796875 281.316650390625 251.4085693359375 281.316650390625 252.6129150390625 C 271.00128173828125 252.6129150390625 260.6859130859375 252.6129150390625 250.37051391601562 252.6129150390625 C 250.37051391601562 251.4085693359375 250.37051391601562 250.20428466796875 250.37051391601562 249.0M 249.6568603515625 298.0968017578125 C 260.3182373046875 298.0968017578125 270.9796447753906 298.0968017578125 281.6410217285156 298.0968017578125 C 281.6410217285156 299.279541015625 281.6410217285156 300.46240234375 281.6410217285156 301.6451416015625 C 270.9796447753906 301.6451416015625 260.3182373046875 301.6451416015625 249.6568603515625 301.6451416015625 C 249.6568603515625 300.46240234375 249.6568603515625 299.279541015625 249.6568603515625 298.0968017578125M 244.40188598632812 265.0 C 257.8096923828125 265.0 271.217529296875 265.0 284.6253356933594 265.0 C 284.6253356933594 266.247314453125 284.6253356933594 267.49462890625 284.6253356933594 268.741943359375 C 271.217529296875 268.741943359375 257.8096923828125 268.741943359375 244.40188598632812 268.741943359375 C 244.40188598632812 267.49462890625 244.40188598632812 266.247314453125 244.40188598632812 265.0M 251.66806030273438 314.54840087890625 C 261.83203125 314.54840087890625 271.99603271484375 314.54840087890625 282.1600341796875 314.54840087890625 C 282.1600341796875 326.07525634765625 282.1600341796875 337.6021728515625 282.1600341796875 349.1290283203125 C 271.99603271484375 349.1290283203125 261.83203125 349.1290283203125 251.66806030273438 349.1290283203125 C 251.66806030273438 347.92474365234375 251.66806030273438 346.720458984375 251.66806030273438 345.51611328125 C 260.62103271484375 345.51611328125 269.573974609375 345.51611328125 278.5269470214844 345.51611328125 C 278.5269470214844 336.44085693359375 278.5269470214844 327.3656005859375 278.5269470214844 318.290283203125 C 269.573974609375 318.290283203125 260.62103271484375 318.290283203125 251.66806030273438 318.290283203125 C 251.66806030273438 317.04296875 251.66806030273438 315.79571533203125 251.66806030273438 314.54840087890625M 249.6568603515625 314.54840087890625 C 250.8895263671875 314.54840087890625 252.1221923828125 314.54840087890625 253.3548583984375 314.54840087890625 C 253.3548583984375 328.204345703125 253.3548583984375 341.8602294921875 253.3548583984375 355.51611328125 C 252.1221923828125 355.51611328125 250.8895263671875 355.51611328125 249.6568603515625 355.51611328125 C 249.6568603515625 341.8602294921875 249.6568603515625 328.204345703125 249.6568603515625 314.54840087890625"/>
    <path stroke-width="0" fill="rgb(0, 0, 0)" opacity="1.0" d="M 387.1951904296875 319.1290283203125 C 412.9727783203125 319.1290283203125 438.7503662109375 319.1290283203125 464.528076171875 319.1290283203125 C 464.528076171875 331.30108642578125 464.528076171875 343.47314453125 464.528076171875 355.6451416015625 C 463.27374267578125 355.6451416015625 462.01947021484375 355.6451416015625 460.76519775390625 355.6451416015625 C 460.76519775390625 344.720458984375 460.76519775390625 333.795654296875 460.76519775390625 322.8709716796875 C 437.4744873046875 322.8709716796875 414.183837890625 322.8709716796875 390.89312744140625 322.8709716796875 C 390.89312744140625 333.92474365234375 390.89312744140625 344.978515625 390.89312744140625 356.0322265625 C 389.6605224609375 356.0322265625 388.4278564453125 356.0322265625 387.1951904296875 356.0322265625 C 387.1951904296875 343.731201171875 387.1951904296875 331.43011474609375 387.1951904296875 319.1290283203125M 388.8819580078125 333.258056640625 C 413.47021484375 333.258056640625 438.05841064453125 333.258056640625 462.6466064453125 333.258056640625 C 462.6466064453125 334.46240234375 462.6466064453125 335.6666259765625 462.6466064453125 336.8709716796875 C 438.05841064453125 336.8709716796875 413.47021484375 336.8709716796875 388.8819580078125 336.8709716796875 C 388.8819580078125 335.6666259765625 388.8819580078125 334.46240234375 388.8819580078125 333.258056640625M 388.8819580078125 347.8387451171875 C 413.47021484375 347.8387451171875 438.05841064453125 347.8387451171875 462.6466064453125 347.8387451171875 C 462.6466064453125 349.04296875 462.6466064453125 350.247314453125 462.6466064453125 351.45159912109375 C 438.05841064453125 351.45159912109375 413.47021484375 351.45159912109375 388.8819580078125 351.45159912109375 C 388.8819580078125 350.247314453125 388.8819580078125 349.04296875 388.8819580078125 347.8387451171875M 423.13677978515625 244.0322265625 C 424.39111328125 244.0322265625 425.6453857421875 244.0322265625 426.899658203125 244.0322265625 C 426.899658203125 265.8817138671875 426.899658203125 287.731201171875 426.899658203125 309.5806884765625 C 425.6453857421875 309.5806884765625 424.39111328125 309.5806884765625 423.13677978515625 309.5806884765625 C 423.13677978515625 287.731201171875 423.13677978515625 265.8817138671875 423.13677978515625 244.0322265625M 384.66497802734375 253.709716796875 C 411.06976318359375 253.709716796875 437.4744873046875 253.709716796875 463.8792724609375 253.709716796875 C 463.8792724609375 263.9892578125 463.8792724609375 274.268798828125 463.8792724609375 284.54840087890625 C 436.9771728515625 284.54840087890625 410.074951171875 284.54840087890625 383.1728515625 284.54840087890625 C 383.1728515625 283.3656005859375 383.1728515625 282.18280029296875 383.1728515625 281.0 C 408.84228515625 281.0 434.5118408203125 281.0 460.1812744140625 281.0 C 460.1812744140625 273.1505126953125 460.1812744140625 265.30108642578125 460.1812744140625 257.45159912109375 C 435.00921630859375 257.45159912109375 409.83709716796875 257.45159912109375 384.66497802734375 257.45159912109375 C 384.66497802734375 256.20428466796875 384.66497802734375 254.95703125 384.66497802734375 253.709716796875M 371.1058349609375 267.258056640625 C 407.3934326171875 267.258056640625 443.6810302734375 267.258056640625 479.9686279296875 267.258056640625 C 479.9686279296875 268.44085693359375 479.9686279296875 269.6236572265625 479.9686279296875 270.80645751953125 C 443.6810302734375 270.80645751953125 407.3934326171875 270.80645751953125 371.1058349609375 270.80645751953125 C 371.1058349609375 269.6236572265625 371.1058349609375 268.44085693359375 371.1058349609375 267.258056640625M 379.0855712890625 294.0968017578125 C 410.226318359375 294.0968017578125 441.3670654296875 294.0968017578125 472.5078125 294.0968017578125 C 472.5078125 295.30108642578125 472.5078125 296.50537109375 472.5078125 297.709716796875 C 441.3670654296875 297.709716796875 410.226318359375 297.709716796875 379.0855712890625 297.709716796875 C 379.0855712890625 296.50537109375 379.0855712890625 295.30108642578125 379.0855712890625 294.0968017578125M 370.8463134765625 307.709716796875 C 407.306884765625 307.709716796875 443.767578125 307.709716796875 480.2281494140625 307.709716796875 C 480.2281494140625 308.95703125 480.2281494140625 310.204345703125 480.2281494140625 311.45159912109375 C 443.767578125 311.45159912109375 407.306884765625 311.45159912109375 370.8463134765625 311.45159912109375 C 370.8463134765625 310.204345703125 370.8463134765625 308.95703125 370.8463134765625 307.709716796875"/>
  </g>
</svg>
