<?xml version="1.0" ?>
<svg xmlns="http://www.w3.org/2000/svg" version="1.1" width="600" height="600">
  <defs/>
  <g>
    <path stroke-width="0" fill="rgb(0, 0, 0)" opacity="1.0" d="M 310.05859375 140.19265747070312 C 309.783447265625 143.08258056640625 309.508056640625 146.31649780273438 309.23291015625 149.89450073242188 C 308.957763671875 153.47250366210938 308.682373046875 158.564208984375 308.4072265625 165.16973876953125 C 308.4072265625 168.05963134765625 308.4072265625 173.01376342773438 308.4072265625 180.0321044921875 C 308.4072265625 187.05047607421875 308.4072265625 195.238525390625 308.4072265625 204.5963134765625 C 308.4072265625 213.8165283203125 308.4072265625 223.24313354492188 308.4072265625 232.87615966796875 C 308.4072265625 242.50918579101562 308.4072265625 251.52294921875 308.4072265625 259.91741943359375 C 308.4072265625 275.33026123046875 308.682373046875 290.74310302734375 309.23291015625 306.15594482421875 C 309.783447265625 321.56884765625 310.402587890625 336.15594482421875 311.090576171875 349.91741943359375 C 311.778564453125 363.67889404296875 312.3291015625 375.78900146484375 312.741943359375 386.2476806640625 C 313.29248046875 396.7064208984375 313.567626953125 404.6881103515625 313.567626953125 410.192626953125 C 313.567626953125 417.3486328125 311.985107421875 424.91741943359375 308.820068359375 432.8990478515625 C 305.655029296875 440.7431640625 299.6689453125 447.41741943359375 290.86181640625 452.9219970703125 C 282.0546875 458.564208984375 269.050537109375 461.38531494140625 251.849365234375 461.38531494140625 C 226.52880859375 461.38531494140625 206.91943359375 457.2568359375 193.020751953125 449.0 C 179.122314453125 440.60546875 172.1728515625 427.807373046875 172.1728515625 410.60546875 C 172.1728515625 399.73394775390625 175.613037109375 390.4449462890625 182.49365234375 382.738525390625 C 189.3740234375 374.89453125 199.21337890625 368.7706298828125 212.010986328125 364.366943359375 C 224.808837890625 359.96331787109375 240.08349609375 357.761474609375 257.83544921875 357.761474609375 C 277.926513671875 357.761474609375 296.847900390625 360.307373046875 314.599609375 365.3990478515625 C 332.489013671875 370.35321044921875 348.933349609375 376.6834716796875 363.93310546875 384.389892578125 C 379.070068359375 392.0963134765625 392.349609375 399.94036865234375 403.771240234375 407.9219970703125 C 415.33056640625 415.76605224609375 424.68798828125 422.44036865234375 431.84375 427.9449462890625 C 429.160400390625 431.935791015625 426.47705078125 435.9266357421875 423.793701171875 439.91741943359375 C 415.399169921875 432.21099853515625 405.353759765625 424.29815673828125 393.656982421875 416.17889404296875 C 382.09765625 407.9219970703125 369.231201171875 400.215576171875 355.05712890625 393.05963134765625 C 340.88330078125 385.9036865234375 325.539794921875 380.12384033203125 309.0263671875 375.72021484375 C 292.51318359375 371.17889404296875 275.03662109375 368.90826416015625 256.596923828125 368.90826416015625 C 232.514892578125 368.90826416015625 214.28173828125 372.9678955078125 201.896728515625 381.087158203125 C 189.51171875 389.06884765625 183.3193359375 398.7706298828125 183.3193359375 410.192626953125 C 183.3193359375 417.3486328125 185.4521484375 423.9541015625 189.71826171875 430.0091552734375 C 194.12158203125 436.064208984375 201.34619140625 440.9495849609375 211.391845703125 444.6651611328125 C 221.4375 448.3807373046875 234.923095703125 450.238525390625 251.849365234375 450.238525390625 C 259.96826171875 450.238525390625 267.81201171875 449.1375732421875 275.380615234375 446.935791015625 C 282.94921875 444.5963134765625 289.07275390625 440.53668212890625 293.751708984375 434.7568359375 C 298.56787109375 428.97705078125 300.976318359375 420.78900146484375 300.976318359375 410.192626953125 C 300.976318359375 400.97247314453125 300.769775390625 389.481689453125 300.35693359375 375.72021484375 C 299.944091796875 361.958740234375 299.53125 347.715576171875 299.118408203125 332.9908447265625 C 298.70556640625 318.12841796875 298.292724609375 304.2293701171875 297.8798828125 291.2935791015625 C 297.604736328125 278.3577880859375 297.46728515625 267.89910888671875 297.46728515625 259.91741943359375 C 297.46728515625 251.52294921875 297.46728515625 243.26605224609375 297.46728515625 235.14678955078125 C 297.46728515625 226.889892578125 297.46728515625 218.70184326171875 297.46728515625 210.58258056640625 C 297.46728515625 202.32568359375 297.46728515625 194.06881713867188 297.46728515625 185.81192016601562 C 297.46728515625 177.41744995117188 297.46728515625 169.09173583984375 297.46728515625 160.83486938476562 C 297.46728515625 157.66970825195312 297.3984375 153.88534545898438 297.2607421875 149.48165893554688 C 297.123046875 144.94036865234375 296.916748046875 141.84405517578125 296.6416015625 140.19265747070312 C 301.114013671875 140.19265747070312 305.586181640625 140.19265747070312 310.05859375 140.19265747070312M 171.34716796875 189.32110595703125 C 177.126708984375 190.42202758789062 184.420166015625 191.52291870117188 193.227294921875 192.62387084960938 C 202.171875 193.587158203125 211.6669921875 194.55047607421875 221.712646484375 195.51376342773438 C 231.75830078125 196.47705078125 241.528564453125 197.1651611328125 251.023681640625 197.5780029296875 C 260.518798828125 197.9908447265625 268.84423828125 198.197265625 276.0 198.197265625 C 299.53125 198.197265625 324.16357421875 197.1651611328125 349.896728515625 195.10092163085938 C 375.6298828125 192.89910888671875 399.780517578125 189.94036865234375 422.3486328125 186.22476196289062 C 422.3486328125 190.42202758789062 422.3486328125 194.6192626953125 422.3486328125 198.8165283203125 C 406.110595703125 200.4678955078125 389.735107421875 202.1192626953125 373.2216796875 203.7706298828125 C 356.70849609375 205.284423828125 340.3330078125 206.59173583984375 324.0947265625 207.69265747070312 C 307.856689453125 208.65594482421875 291.962646484375 209.13763427734375 276.412841796875 209.13763427734375 C 266.642578125 209.13763427734375 255.01416015625 208.7935791015625 241.528564453125 208.10552978515625 C 228.042724609375 207.27981567382812 214.9697265625 206.38531494140625 202.3095703125 205.42202758789062 C 189.6494140625 204.32110595703125 179.32861328125 203.3577880859375 171.34716796875 202.5321044921875 C 171.34716796875 198.12841796875 171.34716796875 193.72479248046875 171.34716796875 189.32110595703125M 169.69580078125 272.302734375 C 177.40185546875 273.26605224609375 185.58984375 274.2293701171875 194.25927734375 275.1926574707031 C 203.06640625 276.1559753417969 212.079833984375 276.912841796875 221.2998046875 277.46331787109375 C 230.519775390625 277.87615966796875 239.533203125 278.28900146484375 248.34033203125 278.70184326171875 C 257.284912109375 279.11468505859375 265.747802734375 279.32110595703125 273.729248046875 279.32110595703125 C 287.6279296875 279.32110595703125 302.6962890625 278.97705078125 318.934326171875 278.28900146484375 C 335.172607421875 277.46331787109375 352.236083984375 276.1559753417969 370.12548828125 274.3669738769531 C 388.014892578125 272.44036865234375 405.904052734375 270.0321044921875 423.793701171875 267.1422119140625 C 423.793701171875 271.3394470214844 423.793701171875 275.53668212890625 423.793701171875 279.73394775390625 C 410.5830078125 281.6605529785156 397.372314453125 283.3119201660156 384.161865234375 284.6880798339844 C 370.951171875 285.9266052246094 358.015625 287.02752685546875 345.355712890625 287.9908447265625 C 332.695556640625 288.8165283203125 320.310546875 289.435791015625 308.20068359375 289.8486328125 C 296.228759765625 290.261474609375 284.738037109375 290.4678955078125 273.729248046875 290.4678955078125 C 263.40869140625 290.4678955078125 252.12451171875 290.19268798828125 239.877197265625 289.6422119140625 C 227.767333984375 289.09173583984375 215.5888671875 288.47247314453125 203.341552734375 287.784423828125 C 191.231689453125 286.958740234375 180.0166015625 285.99542236328125 169.69580078125 284.8945007324219 C 169.69580078125 280.697265625 169.69580078125 276.5 169.69580078125 272.302734375"/>
  </g>
</svg>
