<?xml version="1.0" ?>
<svg xmlns="http://www.w3.org/2000/svg" version="1.1" width="600" height="600">
  <defs/>
  <g>
    <path stroke-width="0" fill="rgb(0, 0, 0)" opacity="1.0" d="M 251.1396484375 168.68963623046875 C 254.3115234375 167.10345458984375 257.483154296875 165.5172119140625 260.655029296875 163.9310302734375 C 269.619140625 173.44827270507812 278.23828125 183.9310302734375 286.5126953125 195.37930297851562 C 294.9248046875 206.68963623046875 302.44091796875 217.862060546875 309.060302734375 228.89654541015625 C 315.679931640625 239.9310302734375 320.8515625 249.9310302734375 324.5751953125 258.89654541015625 C 320.9892578125 260.75860595703125 317.40380859375 262.62066650390625 313.818115234375 264.4827575683594 C 310.37060546875 255.37930297851562 305.406005859375 245.24139404296875 298.92431640625 234.0689697265625 C 292.442626953125 222.75860595703125 284.99560546875 211.4482421875 276.583251953125 200.137939453125 C 268.308837890625 188.68963623046875 259.82763671875 178.20687866210938 251.1396484375 168.68963623046875M 118.7490234375 417.3792724609375 C 132.263916015625 411.586181640625 147.916259765625 404.689697265625 165.706298828125 396.689697265625 C 183.634033203125 388.5517578125 202.734130859375 379.9310302734375 223.006591796875 370.82757568359375 C 243.27880859375 361.586181640625 263.620361328125 352.3448486328125 284.0302734375 343.10345458984375 C 284.857666015625 346.82757568359375 285.685302734375 350.5517578125 286.5126953125 354.27587890625 C 267.34375 362.96551513671875 247.967529296875 371.862060546875 228.385009765625 380.96551513671875 C 208.80224609375 389.9310302734375 189.97802734375 398.5517578125 171.912109375 406.82757568359375 C 153.984375 414.96551513671875 137.84912109375 422.2069091796875 123.5068359375 428.5517578125 C 121.9208984375 424.82757568359375 120.334716796875 421.10345458984375 118.7490234375 417.3792724609375M 362.63720703125 348.68963623046875 C 365.6708984375 346.68963623046875 368.705078125 344.68963623046875 371.7392578125 342.68963623046875 C 381.5302734375 351.9310302734375 391.6669921875 361.7930908203125 402.1474609375 372.27587890625 C 412.62841796875 382.75860595703125 422.90234375 393.3792724609375 432.9697265625 404.137939453125 C 443.037109375 414.75860595703125 452.345703125 424.96551513671875 460.8955078125 434.75860595703125 C 469.583984375 444.413818359375 476.82421875 453.03448486328125 482.6162109375 460.6207275390625 C 479.1689453125 463.17242431640625 475.720703125 465.72412109375 472.2734375 468.27587890625 C 466.48095703125 460.5517578125 459.37890625 451.7930908203125 450.966796875 442.0 C 442.6923828125 432.2069091796875 433.59033203125 421.9310302734375 423.6611328125 411.17242431640625 C 413.7314453125 400.27587890625 403.5263671875 389.4482421875 393.0458984375 378.68963623046875 C 382.56494140625 367.9310302734375 372.4287109375 357.9310302734375 362.63720703125 348.68963623046875M 418.6962890625 130.20687866210938 C 422.69580078125 130.68966674804688 426.69482421875 131.17239379882812 430.6943359375 131.6551513671875 C 425.0400390625 178.55169677734375 417.5244140625 220.0 408.146484375 256.0 C 398.7685546875 291.862060546875 386.08154296875 323.310302734375 370.083984375 350.3448486328125 C 354.22509765625 377.24139404296875 333.814453125 400.5517578125 308.853515625 420.27587890625 C 283.892578125 440.0 253.001220703125 457.03448486328125 216.18017578125 471.3792724609375 C 215.628662109375 470.5517578125 214.732177734375 469.5172119140625 213.490966796875 468.27587890625 C 212.3876953125 467.17242431640625 211.215576171875 466.0689697265625 209.974365234375 464.96551513671875 C 208.733154296875 464.0 207.6298828125 463.10345458984375 206.66455078125 462.27587890625 C 243.62353515625 449.03448486328125 274.5146484375 432.82757568359375 299.337890625 413.6551513671875 C 324.298828125 394.4827880859375 344.640625 371.5172119140625 360.36181640625 344.75860595703125 C 376.220703125 318.0 388.6328125 286.96551513671875 397.5966796875 251.6551513671875 C 406.560546875 216.20687866210938 413.59375 175.72412109375 418.6962890625 130.20687866210938M 170.05029296875 131.03448486328125 C 173.77392578125 130.89654541015625 177.497314453125 130.75860595703125 181.220703125 130.62066650390625 C 182.94482421875 219.586181640625 184.668212890625 308.5517578125 186.392333984375 397.5172119140625 C 182.531005859375 397.6551513671875 178.66943359375 397.7930908203125 174.80810546875 397.9310302734375 C 173.222412109375 308.96551513671875 171.63623046875 220.0 170.05029296875 131.03448486328125"/>
  </g>
</svg>
