<?xml version="1.0" ?>
<svg xmlns="http://www.w3.org/2000/svg" version="1.1" width="600" height="600">
  <defs/>
  <g>
    <path stroke-width="0" fill="rgb(0, 0, 0)" opacity="1.0" d="M 345.9970703125 304.722412109375 C 349.7744140625 304.722412109375 353.55224609375 304.722412109375 357.32958984375 304.722412109375 C 357.32958984375 351.98052978515625 357.32958984375 399.23870849609375 357.32958984375 446.496826171875 C 357.32958984375 451.71722412109375 358.63427734375 455.1517333984375 361.244384765625 456.80023193359375 C 363.99169921875 458.586181640625 369.82958984375 459.4791259765625 378.75830078125 459.4791259765625 C 380.818603515625 459.4791259765625 384.802001953125 459.4791259765625 390.708740234375 459.4791259765625 C 396.752685546875 459.4791259765625 403.34619140625 459.4791259765625 410.489013671875 459.4791259765625 C 417.76904296875 459.4791259765625 424.568603515625 459.4791259765625 430.887451171875 459.4791259765625 C 437.2060546875 459.4791259765625 441.87646484375 459.4791259765625 444.8984375 459.4791259765625 C 450.667724609375 459.4791259765625 454.99462890625 457.96795654296875 457.87939453125 454.94561767578125 C 460.763916015625 451.92333984375 462.68701171875 445.8099365234375 463.6484375 436.6055908203125 C 464.747314453125 427.4012451171875 465.571533203125 413.388671875 466.12109375 394.56787109375 C 467.2197265625 395.39208984375 468.3876953125 396.21636962890625 469.623779296875 397.0406494140625 C 470.99755859375 397.7275390625 472.37109375 398.27703857421875 473.74462890625 398.689208984375 C 475.255615234375 399.101318359375 476.560546875 399.5821533203125 477.65966796875 400.13165283203125 C 477.10986328125 419.08984375 475.942626953125 433.720703125 474.15673828125 444.0240478515625 C 472.50830078125 454.327392578125 469.417724609375 461.4710693359375 464.884765625 465.455078125 C 460.4892578125 469.43902587890625 453.8271484375 471.4310302734375 444.8984375 471.4310302734375 C 443.25 471.4310302734375 439.335205078125 471.4310302734375 433.15380859375 471.4310302734375 C 426.97265625 471.4310302734375 419.8984375 471.4310302734375 411.93115234375 471.4310302734375 C 404.1015625 471.4310302734375 397.02734375 471.4310302734375 390.708740234375 471.4310302734375 C 384.52734375 471.4310302734375 380.68115234375 471.4310302734375 379.17041015625 471.4310302734375 C 370.37890625 471.4310302734375 363.57958984375 470.744140625 358.77197265625 469.370361328125 C 354.1015625 467.99658203125 350.8046875 465.455078125 348.8818359375 461.745849609375 C 346.95849609375 458.17401123046875 345.9970703125 452.95361328125 345.9970703125 446.084716796875 C 345.9970703125 398.96392822265625 345.9970703125 351.8431396484375 345.9970703125 304.722412109375M 128.4140625 298.54034423828125 C 242.42529296875 298.54034423828125 356.436767578125 298.54034423828125 470.447998046875 298.54034423828125 C 470.447998046875 302.3182373046875 470.447998046875 306.09619140625 470.447998046875 309.87408447265625 C 356.436767578125 309.87408447265625 242.42529296875 309.87408447265625 128.4140625 309.87408447265625 C 128.4140625 306.09619140625 128.4140625 302.3182373046875 128.4140625 298.54034423828125M 193.112060546875 191.17916870117188 C 277.040771484375 191.17916870117188 360.9697265625 191.17916870117188 444.8984375 191.17916870117188 C 444.8984375 195.16314697265625 444.8984375 199.1470947265625 444.8984375 203.13107299804688 C 360.9697265625 203.13107299804688 277.040771484375 203.13107299804688 193.112060546875 203.13107299804688 C 193.112060546875 199.1470947265625 193.112060546875 195.16314697265625 193.112060546875 191.17916870117188M 241.120361328125 306.37091064453125 C 245.0352783203125 306.37091064453125 248.9500732421875 306.37091064453125 252.8648681640625 306.37091064453125 C 251.0791015625 327.9393310546875 247.8511962890625 347.85919189453125 243.1807861328125 366.1304931640625 C 238.6478271484375 384.26446533203125 231.9169921875 400.61248779296875 222.988525390625 415.174560546875 C 214.1971435546875 429.7366943359375 202.384033203125 442.37548828125 187.548828125 453.09100341796875 C 172.8509521484375 463.94390869140625 154.1695556640625 472.94219970703125 131.504638671875 480.08587646484375 C 130.955322265625 478.98681640625 130.19970703125 477.95654296875 129.2381591796875 476.994873046875 C 128.4140625 476.17059326171875 127.5211181640625 475.20892333984375 126.5595703125 474.10986328125 C 125.59814453125 473.0108642578125 124.636474609375 472.117919921875 123.675048828125 471.4310302734375 C 145.79052734375 464.83685302734375 164.0596923828125 456.31939697265625 178.4827880859375 445.878662109375 C 193.0433349609375 435.4378662109375 204.51318359375 423.211181640625 212.892333984375 409.1986083984375 C 221.40869140625 395.18603515625 227.7275390625 379.66229248046875 231.848388671875 362.6273193359375 C 236.106689453125 345.455078125 239.1973876953125 326.702880859375 241.120361328125 306.37091064453125M 209.3895263671875 134.30450439453125 C 213.373046875 135.19747924804688 217.356689453125 136.09042358398438 221.340087890625 136.9833984375 C 217.356689453125 151.54550170898438 212.3427734375 166.79449462890625 206.298828125 182.73037719726562 C 200.2548828125 198.66629028320312 193.1806640625 214.19003295898438 185.0762939453125 229.3016357421875 C 177.1092529296875 244.27590942382812 168.1806640625 257.6702880859375 158.29052734375 269.4848327636719 C 157.6036376953125 268.7979431152344 156.7108154296875 268.0423583984375 155.6119384765625 267.21807861328125 C 154.512939453125 266.393798828125 153.4140625 265.63824462890625 152.315185546875 264.95135498046875 C 151.3536376953125 264.1270751953125 150.323486328125 263.440185546875 149.2244873046875 262.89068603515625 C 158.7025146484375 251.2135009765625 167.2877197265625 238.0938720703125 174.9801025390625 223.53176879882812 C 182.6724853515625 208.832275390625 189.471923828125 193.78933715820312 195.3785400390625 178.40298461914062 C 201.2850341796875 163.0166015625 205.9554443359375 148.31710815429688 209.3895263671875 134.30450439453125M 292.83740234375 121.5283203125 C 296.821044921875 121.5283203125 300.8046875 121.5283203125 304.7880859375 121.5283203125 C 304.7880859375 181.97482299804688 304.7880859375 242.42129516601562 304.7880859375 302.8677978515625 C 300.8046875 302.8677978515625 296.821044921875 302.8677978515625 292.83740234375 302.8677978515625 C 292.83740234375 242.42129516601562 292.83740234375 181.97482299804688 292.83740234375 121.5283203125"/>
  </g>
</svg>
