<?xml version="1.0" encoding="utf-8"?>
<svg xmlns="http://www.w3.org/2000/svg" xmlns:ev="http://www.w3.org/2001/xml-events" xmlns:xlink="http://www.w3.org/1999/xlink" version="1.1" baseProfile="full" width="16896.0" height="1920.0" viewBox="192.0 -1690.0 16896.0 1920.0">
<defs/>
<g><path d="M 15552.000000 230.000000 C 15552.000000 -410.000000 15552.000000 -1050.000000 15552.000000 -1690.000000 C 16064.000000 -1690.000000 16576.000000 -1690.000000 17088.000000 -1690.000000 C 17088.000000 -1050.000000 17088.000000 -410.000000 17088.000000 230.000000 C 16576.000000 230.000000 16064.000000 230.000000 15552.000000 230.000000z M 16320.000000 -808.000000 C 16523.666667 -1070.000000 16727.333333 -1332.000000 16931.000000 -1594.000000 C 16523.666667 -1594.000000 16116.333333 -1594.000000 15709.000000 -1594.000000 C 15912.666667 -1332.000000 16116.333333 -1070.000000 16320.000000 -808.000000z M 16381.000000 -730.000000 C 16584.666667 -468.000000 16788.333333 -206.000000 16992.000000 56.000000 C 16992.000000 -467.666667 16992.000000 -991.333333 16992.000000 -1515.000000 C 16788.333333 -1253.333333 16584.666667 -991.666667 16381.000000 -730.000000z M 15709.000000 134.000000 C 16116.333333 134.000000 16523.666667 134.000000 16931.000000 134.000000 C 16727.333333 -127.666667 16523.666667 -389.333333 16320.000000 -651.000000 C 16116.333333 -389.333333 15912.666667 -127.666667 15709.000000 134.000000z M 15648.000000 -1515.000000 C 15648.000000 -991.333333 15648.000000 -467.666667 15648.000000 56.000000 C 15851.666667 -206.000000 16055.333333 -468.000000 16259.000000 -730.000000 C 16055.333333 -991.666667 15851.666667 -1253.333333 15648.000000 -1515.000000z "/>
</g></svg>
