<?xml version="1.0" ?>
<svg xmlns="http://www.w3.org/2000/svg" version="1.1" width="600" height="600">
  <defs/>
  <g>
    <path stroke-width="0" fill="rgb(0, 0, 0)" opacity="1.0" d="M 247.7618408203125 382.738525390625 C 324.79443359375 382.738525390625 401.827392578125 382.738525390625 478.8603515625 382.738525390625 C 478.8603515625 386.7293701171875 478.8603515625 390.72021484375 478.8603515625 394.71099853515625 C 401.827392578125 394.71099853515625 324.79443359375 394.71099853515625 247.7618408203125 394.71099853515625 C 247.7618408203125 390.72021484375 247.7618408203125 386.7293701171875 247.7618408203125 382.738525390625M 369.913818359375 249.1834716796875 C 404.3720703125 249.1834716796875 438.83056640625 249.1834716796875 473.2890625 249.1834716796875 C 473.2890625 253.17431640625 473.2890625 257.1651611328125 473.2890625 261.15594482421875 C 438.83056640625 261.15594482421875 404.3720703125 261.15594482421875 369.913818359375 261.15594482421875 C 369.913818359375 257.1651611328125 369.913818359375 253.17431640625 369.913818359375 249.1834716796875M 363.517333984375 149.68807983398438 C 367.369140625 149.68807983398438 371.220703125 149.68807983398438 375.072265625 149.68807983398438 C 375.072265625 228.95413208007812 375.072265625 308.22021484375 375.072265625 387.4862060546875 C 371.220703125 387.4862060546875 367.369140625 387.4862060546875 363.517333984375 387.4862060546875 C 363.517333984375 308.22021484375 363.517333984375 228.95413208007812 363.517333984375 149.68807983398438M 285.521484375 223.17431640625 C 289.373291015625 223.17431640625 293.224853515625 223.17431640625 297.07666015625 223.17431640625 C 297.07666015625 278.6330261230469 297.07666015625 334.09173583984375 297.07666015625 389.55047607421875 C 293.224853515625 389.55047607421875 289.373291015625 389.55047607421875 285.521484375 389.55047607421875 C 285.521484375 334.09173583984375 285.521484375 278.6330261230469 285.521484375 223.17431640625M 450.385498046875 122.02752685546875 C 454.03076171875 124.91744995117188 457.67626953125 127.80734252929688 461.3212890625 130.697265625 C 450.04150390625 134.96328735351562 436.629638671875 138.95413208007812 421.08544921875 142.66973876953125 C 405.678955078125 146.38531494140625 389.171875 149.75689697265625 371.564453125 152.78439331054688 C 354.094482421875 155.81192016601562 336.2119140625 158.49542236328125 317.91650390625 160.83486938476562 C 299.7587890625 163.17431640625 282.22021484375 165.16973876953125 265.300537109375 166.82110595703125 C 265.025390625 165.44497680664062 264.4752197265625 163.86236572265625 263.6497802734375 162.07339477539062 C 262.9620361328125 160.14678955078125 262.2054443359375 158.42660522460938 261.380126953125 156.912841796875 C 278.02490234375 155.12387084960938 295.2880859375 153.05963134765625 313.1708984375 150.72018432617188 C 331.19091796875 148.24313354492188 348.729736328125 145.55963134765625 365.787109375 142.66973876953125 C 382.98193359375 139.77981567382812 398.86962890625 136.61468505859375 413.451171875 133.17431640625 C 428.0322265625 129.73394775390625 440.34375 126.01837158203125 450.385498046875 122.02752685546875M 121.0703125 148.24313354492188 C 153.809326171875 148.24313354492188 186.5482177734375 148.24313354492188 219.2872314453125 148.24313354492188 C 219.2872314453125 152.16513061523438 219.2872314453125 156.087158203125 219.2872314453125 160.00918579101562 C 186.5482177734375 160.00918579101562 153.809326171875 160.00918579101562 121.0703125 160.00918579101562 C 121.0703125 156.087158203125 121.0703125 152.16513061523438 121.0703125 148.24313354492188M 214.1287841796875 148.24313354492188 C 214.9541015625 148.24313354492188 215.7794189453125 148.24313354492188 216.604736328125 148.24313354492188 C 217.3614501953125 147.83029174804688 218.117919921875 147.41741943359375 218.87451171875 147.00457763671875 C 221.8319091796875 148.31195068359375 224.78955078125 149.6192626953125 227.7470703125 150.92660522460938 C 220.869140625 163.03668212890625 212.5467529296875 177.48623657226562 202.7801513671875 194.27523803710938 C 193.013427734375 211.064208984375 182.9029541015625 228.26605224609375 172.448486328125 245.8807373046875 C 161.9940185546875 263.49542236328125 151.883544921875 279.94036865234375 142.1168212890625 295.215576171875 C 138.540283203125 293.90826416015625 134.9638671875 292.6009216308594 131.38720703125 291.2935791015625 C 138.540283203125 280.14678955078125 145.9683837890625 268.10552978515625 153.6717529296875 255.16973876953125 C 161.5125732421875 242.23394775390625 169.2159423828125 229.2293701171875 176.7816162109375 216.15594482421875 C 184.3472900390625 203.08258056640625 191.36279296875 190.90365600585938 197.8280029296875 179.6192626953125 C 204.2933349609375 168.19723510742188 209.7269287109375 158.49542236328125 214.1287841796875 150.51376342773438 C 214.1287841796875 149.75689697265625 214.1287841796875 149.0 214.1287841796875 148.24313354492188M 153.259033203125 261.9816589355469 C 180.564453125 261.9816589355469 207.869873046875 261.9816589355469 235.1751708984375 261.9816589355469 C 235.1751708984375 265.9036865234375 235.1751708984375 269.82568359375 235.1751708984375 273.7477111816406 C 205.875244140625 273.7477111816406 176.5751953125 273.7477111816406 147.2752685546875 273.7477111816406 C 149.269775390625 269.82568359375 151.2645263671875 265.9036865234375 153.259033203125 261.9816589355469M 230.842041015625 261.9816589355469 C 231.5987548828125 261.9816589355469 232.355224609375 261.9816589355469 233.11181640625 261.9816589355469 C 234.0748291015625 261.84405517578125 235.03759765625 261.7064208984375 236.00048828125 261.56878662109375 C 238.3389892578125 262.46331787109375 240.6776123046875 263.3577880859375 243.0159912109375 264.2522888183594 C 235.1751708984375 319.9862060546875 221.212890625 365.12384033203125 201.12939453125 399.6651611328125 C 181.0458984375 434.2064208984375 156.904296875 460.4219970703125 128.704833984375 478.3118896484375 C 128.1546630859375 477.21099853515625 127.260498046875 476.041259765625 126.0224609375 474.802734375 C 124.784423828125 473.70184326171875 123.615234375 472.6009521484375 122.5147705078125 471.5 C 121.5518798828125 470.53668212890625 120.5201416015625 469.77978515625 119.419677734375 469.2293701171875 C 147.2064208984375 452.302734375 170.8665771484375 427.2568359375 190.39990234375 394.09173583984375 C 209.9332275390625 360.9266357421875 223.4139404296875 318.05963134765625 230.842041015625 265.4908447265625 C 230.842041015625 264.32110595703125 230.842041015625 263.1513671875 230.842041015625 261.9816589355469M 153.8780517578125 315.0321044921875 C 162.40673828125 344.34405517578125 173.6865234375 368.1513671875 187.717529296875 386.4541015625 C 201.885986328125 404.6192626953125 218.4617919921875 418.656005859375 237.4449462890625 428.564208984375 C 256.5655517578125 438.47247314453125 277.818359375 445.215576171875 301.203125 448.7935791015625 C 324.588134765625 452.37158203125 349.69287109375 454.1605224609375 376.5166015625 454.1605224609375 C 378.4423828125 454.1605224609375 382.775390625 454.1605224609375 389.515869140625 454.1605224609375 C 396.25634765625 454.1605224609375 404.234619140625 454.1605224609375 413.451171875 454.1605224609375 C 422.66748046875 454.1605224609375 431.8837890625 454.1605224609375 441.100341796875 454.1605224609375 C 450.4541015625 454.1605224609375 458.707763671875 454.1605224609375 465.86083984375 454.1605224609375 C 473.1513671875 454.1605224609375 478.103515625 454.1605224609375 480.71728515625 454.1605224609375 C 480.029541015625 454.9862060546875 479.27294921875 456.087158203125 478.447509765625 457.46331787109375 C 477.6220703125 458.97705078125 476.865478515625 460.4219970703125 476.177734375 461.79815673828125 C 475.62744140625 463.3118896484375 475.21484375 464.6192626953125 474.939697265625 465.72021484375 C 468.474609375 465.72021484375 462.00927734375 465.72021484375 455.5439453125 465.72021484375 C 429.201416015625 465.72021484375 402.859130859375 465.72021484375 376.5166015625 465.72021484375 C 347.76708984375 465.72021484375 321.218017578125 463.7935791015625 296.8701171875 459.94036865234375 C 272.659912109375 456.087158203125 250.7882080078125 448.93115234375 231.2547607421875 438.47247314453125 C 211.721435546875 428.0137939453125 194.595458984375 413.22021484375 179.8765869140625 394.09173583984375 C 165.2955322265625 374.96331787109375 153.327880859375 350.192626953125 143.973876953125 319.77978515625 C 147.2752685546875 318.197265625 150.57666015625 316.61468505859375 153.8780517578125 315.0321044921875"/>
  </g>
</svg>
