<?xml version="1.0" ?>
<svg xmlns="http://www.w3.org/2000/svg" version="1.1" width="600" height="600">
  <defs/>
  <g>
    <path stroke-width="0" fill="rgb(0, 0, 0)" opacity="1.0" d="M 136.1953125 254.773681640625 C 137.849853515625 254.86541748046875 139.38949584960938 254.98016357421875 140.81423950195312 255.1177978515625 C 142.23898315429688 255.2554931640625 143.96246337890625 255.32427978515625 145.98468017578125 255.32427978515625 C 147.409423828125 255.32427978515625 149.91421508789062 255.32427978515625 153.49905395507812 255.32427978515625 C 157.12982177734375 255.32427978515625 161.28915405273438 255.32427978515625 165.97702026367188 255.32427978515625 C 170.66488647460938 255.32427978515625 175.32977294921875 255.32427978515625 179.97164916992188 255.32427978515625 C 184.65951538085938 255.32427978515625 188.79586791992188 255.32427978515625 192.38070678710938 255.32427978515625 C 196.011474609375 255.32427978515625 198.53924560546875 255.32427978515625 199.9639892578125 255.32427978515625 C 201.48065185546875 255.32427978515625 203.20413208007812 255.2784423828125 205.13442993164062 255.1866455078125 C 207.06472778320312 255.0948486328125 208.83416748046875 254.95721435546875 210.4427490234375 254.773681640625 C 210.4427490234375 256.402587890625 210.4427490234375 258.03155517578125 210.4427490234375 259.6605224609375 C 208.74224853515625 259.4769287109375 206.9498291015625 259.36224365234375 205.06549072265625 259.31634521484375 C 203.18115234375 259.27044677734375 201.48065185546875 259.24755859375 199.9639892578125 259.24755859375 C 198.53924560546875 259.24755859375 196.03448486328125 259.24755859375 192.44964599609375 259.24755859375 C 188.9107666015625 259.24755859375 184.79739379882812 259.24755859375 180.10952758789062 259.24755859375 C 175.42169189453125 259.24755859375 170.73382568359375 259.24755859375 166.04595947265625 259.24755859375 C 161.404052734375 259.24755859375 157.2677001953125 259.24755859375 153.63693237304688 259.24755859375 C 150.00613403320312 259.24755859375 147.54730224609375 259.24755859375 146.26043701171875 259.24755859375 C 144.14630126953125 259.24755859375 142.28494262695312 259.27044677734375 140.67636108398438 259.31634521484375 C 139.06777954101562 259.36224365234375 137.5740966796875 259.4769287109375 136.1953125 259.6605224609375 C 136.1953125 258.03155517578125 136.1953125 256.402587890625 136.1953125 254.773681640625M 120.06356811523438 287.3984375 C 121.71810913085938 287.49017333984375 123.32669067382812 287.58197021484375 124.88931274414062 287.6737060546875 C 126.49789428710938 287.7655029296875 128.31329345703125 287.8114013671875 130.33551025390625 287.8114013671875 C 131.3006591796875 287.8114013671875 133.48373413085938 287.8114013671875 136.88470458984375 287.8114013671875 C 140.28570556640625 287.8114013671875 144.44503784179688 287.8114013671875 149.36270141601562 287.8114013671875 C 154.32632446289062 287.8114013671875 159.6575927734375 287.8114013671875 165.3565673828125 287.8114013671875 C 171.0555419921875 287.8114013671875 176.7545166015625 287.8114013671875 182.45346069335938 287.8114013671875 C 188.15243530273438 287.8114013671875 193.43777465820312 287.8114013671875 198.3094482421875 287.8114013671875 C 203.22711181640625 287.8114013671875 207.34048461914062 287.8114013671875 210.64956665039062 287.8114013671875 C 213.95864868164062 287.8114013671875 216.0498046875 287.8114013671875 216.92303466796875 287.8114013671875 C 218.34774780273438 287.8114013671875 219.77252197265625 287.7655029296875 221.19723510742188 287.6737060546875 C 222.66793823242188 287.58197021484375 224.11566162109375 287.49017333984375 225.5404052734375 287.3984375 C 225.5404052734375 288.935546875 225.5404052734375 290.4727783203125 225.5404052734375 292.0098876953125 C 224.29949951171875 291.96405029296875 222.89773559570312 291.91815185546875 221.33511352539062 291.87225341796875 C 219.81845092773438 291.826416015625 218.34774780273438 291.803466796875 216.92303466796875 291.803466796875 C 216.0498046875 291.803466796875 213.95864868164062 291.803466796875 210.64956665039062 291.803466796875 C 207.34048461914062 291.803466796875 203.22711181640625 291.803466796875 198.3094482421875 291.803466796875 C 193.43777465820312 291.803466796875 188.15243530273438 291.803466796875 182.45346069335938 291.803466796875 C 176.7545166015625 291.803466796875 171.0555419921875 291.803466796875 165.3565673828125 291.803466796875 C 159.6575927734375 291.803466796875 154.32632446289062 291.803466796875 149.36270141601562 291.803466796875 C 144.44503784179688 291.803466796875 140.28570556640625 291.803466796875 136.88470458984375 291.803466796875 C 133.48373413085938 291.803466796875 131.3006591796875 291.803466796875 130.33551025390625 291.803466796875 C 128.31329345703125 291.803466796875 126.5208740234375 291.803466796875 124.958251953125 291.803466796875 C 123.44158935546875 291.803466796875 121.81002807617188 291.87225341796875 120.06356811523438 292.0098876953125 C 120.06356811523438 290.4727783203125 120.06356811523438 288.935546875 120.06356811523438 287.3984375M 176.9383544921875 288.84381103515625 C 176.9383544921875 296.78204345703125 176.501708984375 304.28436279296875 175.62847900390625 311.35076904296875 C 174.7552490234375 318.37127685546875 172.77902221679688 324.6575927734375 169.69973754882812 330.2098388671875 C 167.99923706054688 333.0546875 165.816162109375 335.876708984375 163.1505126953125 338.67572021484375 C 160.53082275390625 341.4288330078125 157.6124267578125 344.0443115234375 154.395263671875 346.52215576171875 C 151.1781005859375 348.9541015625 147.75411987304688 351.1107177734375 144.12332153320312 352.9920654296875 C 142.79049682617188 351.9366455078125 141.45767211914062 350.88134765625 140.12484741210938 349.825927734375 C 145.68594360351562 347.34814453125 150.76446533203125 344.2508544921875 155.36041259765625 340.5340576171875 C 159.95632934570312 336.8173828125 163.54116821289062 332.7335205078125 166.11489868164062 328.2825927734375 C 169.46994018554688 322.82220458984375 171.44619750976562 316.7652587890625 172.04367065429688 310.11181640625 C 172.68710327148438 303.4583740234375 173.03179931640625 296.36907958984375 173.0777587890625 288.84381103515625 C 174.3646240234375 288.84381103515625 175.6514892578125 288.84381103515625 176.9383544921875 288.84381103515625"/>
    <path stroke-width="0" fill="rgb(0, 0, 0)" opacity="1.0" d="M 339.77252197265625 261.794189453125 C 339.49676513671875 262.1153564453125 339.15203857421875 262.64306640625 338.7384033203125 263.377197265625 C 338.3707275390625 264.0655517578125 338.094970703125 264.63909912109375 337.9111328125 265.09796142578125 C 336.21063232421875 269.5947265625 333.98162841796875 274.5274658203125 331.22406005859375 279.8961181640625 C 328.512451171875 285.26470947265625 325.4791259765625 290.4957275390625 322.12408447265625 295.5889892578125 C 318.76904296875 300.636474609375 315.3450927734375 305.04150390625 311.8521728515625 308.8040771484375 C 306.98046875 314.1268310546875 301.7181396484375 319.26605224609375 296.06512451171875 324.2216796875 C 290.412109375 329.1773681640625 284.4373779296875 333.81182861328125 278.14093017578125 338.1251220703125 C 271.8445129394531 342.3924560546875 265.1114501953125 346.10919189453125 257.9417724609375 349.27532958984375 C 256.88470458984375 348.128173828125 255.82763671875 346.98101806640625 254.77056884765625 345.8338623046875 C 261.94024658203125 342.943115234375 268.74224853515625 339.409912109375 275.17657470703125 335.2342529296875 C 281.6108703613281 331.0128173828125 287.70050048828125 326.33245849609375 293.4454345703125 321.1932373046875 C 299.236328125 316.0540771484375 304.6135559082031 310.7313232421875 309.5771789550781 305.2249755859375 C 312.6564636230469 301.7376708984375 315.8276672363281 297.5850830078125 319.09075927734375 292.76702880859375 C 322.3538818359375 287.94903564453125 325.2952880859375 282.993408203125 327.91497802734375 277.9000244140625 C 330.58062744140625 272.8067626953125 332.533935546875 268.17230224609375 333.7747802734375 263.9967041015625 C 333.17730712890625 263.9967041015625 331.3848876953125 263.9967041015625 328.3975830078125 263.9967041015625 C 325.4561767578125 263.9967041015625 321.894287109375 263.9967041015625 317.71197509765625 263.9967041015625 C 313.5296630859375 263.9967041015625 309.1175537109375 263.9967041015625 304.4756774902344 263.9967041015625 C 299.83380126953125 263.9967041015625 295.42169189453125 263.9967041015625 291.2393798828125 263.9967041015625 C 287.05706787109375 263.9967041015625 283.5411682128906 263.9967041015625 280.69171142578125 263.9967041015625 C 277.88818359375 263.9967041015625 276.18768310546875 263.9967041015625 275.5902099609375 263.9967041015625 C 274.25738525390625 263.9967041015625 272.71771240234375 264.0426025390625 270.9712829589844 264.13433837890625 C 269.270751953125 264.22613525390625 267.7541198730469 264.294921875 266.4212951660156 264.3408203125 C 265.0885009765625 264.38671875 264.42205810546875 264.40966796875 264.42205810546875 264.40966796875 C 264.42205810546875 262.73486328125 264.42205810546875 261.05999755859375 264.42205810546875 259.38519287109375 C 264.42205810546875 259.38519287109375 265.06549072265625 259.4310302734375 266.35235595703125 259.5228271484375 C 267.63922119140625 259.6146240234375 269.13287353515625 259.72930908203125 270.8334045410156 259.866943359375 C 272.579833984375 260.004638671875 274.16546630859375 260.073486328125 275.5902099609375 260.073486328125 C 276.18768310546875 260.073486328125 277.8192138671875 260.073486328125 280.48486328125 260.073486328125 C 283.19647216796875 260.073486328125 286.5285339355469 260.073486328125 290.4810485839844 260.073486328125 C 294.4794921875 260.073486328125 298.66180419921875 260.073486328125 303.0279541015625 260.073486328125 C 307.39410400390625 260.073486328125 311.576416015625 260.073486328125 315.57489013671875 260.073486328125 C 319.61932373046875 260.073486328125 323.020263671875 260.073486328125 325.77783203125 260.073486328125 C 328.5814208984375 260.073486328125 330.327880859375 260.073486328125 331.0172119140625 260.073486328125 C 332.4420166015625 260.073486328125 333.63690185546875 260.027587890625 334.60205078125 259.935791015625 C 335.56719970703125 259.843994140625 336.39447021484375 259.70635986328125 337.0838623046875 259.5228271484375 C 337.9801025390625 260.2799072265625 338.87628173828125 261.03704833984375 339.77252197265625 261.794189453125M 313.57562255859375 305.913330078125 C 317.34429931640625 309.07940673828125 321.11297607421875 312.4749755859375 324.88165283203125 316.0999755859375 C 328.6962890625 319.72491455078125 332.41900634765625 323.418701171875 336.0498046875 327.18133544921875 C 339.68060302734375 330.8980712890625 343.05859375 334.4771728515625 346.183837890625 337.9185791015625 C 349.30908203125 341.3599853515625 352.066650390625 344.526123046875 354.45654296875 347.41693115234375 C 353.353515625 348.38055419921875 352.25048828125 349.3441162109375 351.1474609375 350.3077392578125 C 348.06817626953125 346.453369140625 344.29949951171875 342.0712890625 339.8414306640625 337.1614990234375 C 335.38336181640625 332.205810546875 330.6495361328125 327.22723388671875 325.6400146484375 322.2257080078125 C 320.6763916015625 317.17822265625 315.75872802734375 312.61260986328125 310.88702392578125 308.52880859375 C 311.7832336425781 307.656982421875 312.679443359375 306.78515625 313.57562255859375 305.913330078125"/>
    <path stroke-width="0" fill="rgb(0, 0, 0)" opacity="1.0" d="M 418.36309814453125 338.2626953125 C 418.36309814453125 337.482666015625 418.36309814453125 335.3260498046875 418.36309814453125 331.7928466796875 C 418.36309814453125 328.2137451171875 418.36309814453125 323.8087158203125 418.36309814453125 318.5777587890625 C 418.36309814453125 313.3009033203125 418.36309814453125 307.725830078125 418.36309814453125 301.8524169921875 C 418.36309814453125 295.93316650390625 418.36309814453125 290.17449951171875 418.36309814453125 284.576416015625 C 418.36309814453125 278.9783935546875 418.36309814453125 274.045654296875 418.36309814453125 269.7783203125 C 418.36309814453125 265.51092529296875 418.36309814453125 262.45953369140625 418.36309814453125 260.62408447265625 C 418.36309814453125 259.20166015625 418.317138671875 257.34326171875 418.2252197265625 255.0489501953125 C 418.13330078125 252.75469970703125 417.972412109375 250.7357177734375 417.74267578125 248.9920654296875 C 419.4891357421875 248.9920654296875 421.23553466796875 248.9920654296875 422.98199462890625 248.9920654296875 C 422.8441162109375 250.6439208984375 422.70623779296875 252.68585205078125 422.568359375 255.1177978515625 C 422.43048095703125 257.54974365234375 422.361572265625 259.38519287109375 422.361572265625 260.62408447265625 C 422.361572265625 265.02911376953125 422.361572265625 269.93890380859375 422.361572265625 275.3533935546875 C 422.361572265625 280.7679443359375 422.361572265625 286.297119140625 422.361572265625 291.94110107421875 C 422.361572265625 297.5391845703125 422.384521484375 303.0224609375 422.43048095703125 308.39111328125 C 422.4764404296875 313.7138671875 422.4993896484375 318.5318603515625 422.4993896484375 322.8450927734375 C 422.4993896484375 327.15838623046875 422.4993896484375 330.71453857421875 422.4993896484375 333.5135498046875 C 422.4993896484375 336.2667236328125 422.4993896484375 337.8497314453125 422.4993896484375 338.2626953125 C 422.4993896484375 339.8687744140625 422.4993896484375 341.4517822265625 422.4993896484375 343.01190185546875 C 422.4993896484375 344.526123046875 422.54541015625 345.9945068359375 422.6373291015625 347.41693115234375 C 422.729248046875 348.83935546875 422.7982177734375 350.12420654296875 422.8441162109375 351.2713623046875 C 421.21258544921875 351.2713623046875 419.58099365234375 351.2713623046875 417.949462890625 351.2713623046875 C 418.13330078125 349.5736083984375 418.2481689453125 347.5545654296875 418.294189453125 345.21441650390625 C 418.340087890625 342.874267578125 418.36309814453125 340.5570068359375 418.36309814453125 338.2626953125M 421.5343017578125 284.0946044921875 C 425.8544921875 285.42529296875 430.5423583984375 287.0084228515625 435.597900390625 288.84381103515625 C 440.6993408203125 290.63336181640625 445.892822265625 292.560546875 451.1781005859375 294.62542724609375 C 456.5093994140625 296.6903076171875 461.63385009765625 298.801025390625 466.551513671875 300.9576416015625 C 471.51513671875 303.1142578125 476.0191650390625 305.20208740234375 480.0635986328125 307.2210693359375 C 479.48907470703125 308.59765625 478.91461181640625 309.97418212890625 478.340087890625 311.35076904296875 C 474.52545166015625 309.239990234375 470.1134033203125 307.0604248046875 465.103759765625 304.81201171875 C 460.14013671875 302.56365966796875 454.99273681640625 300.384033203125 449.66143798828125 298.2733154296875 C 444.33013916015625 296.16259765625 439.2056884765625 294.28125 434.28802490234375 292.62939453125 C 429.41632080078125 290.931640625 425.1650390625 289.5550537109375 421.5343017578125 288.4996337890625 C 421.5343017578125 287.03131103515625 421.5343017578125 285.56298828125 421.5343017578125 284.0946044921875"/>
  </g>
</svg>
