<?xml version="1.0" ?>
<svg xmlns="http://www.w3.org/2000/svg" version="1.1" width="600" height="600">
  <defs/>
  <g>
    <path stroke-width="0" fill="rgb(0, 0, 0)" opacity="1.0" d="M 286.7919921875 267.0780029296875 C 289.5439453125 265.08258056640625 292.2958984375 263.087158203125 295.0478515625 261.09173583984375 C 306.4697265625 270.587158203125 318.2353515625 280.90826416015625 330.345703125 292.0550537109375 C 342.455078125 303.20184326171875 354.220703125 314.41741943359375 365.642578125 325.70184326171875 C 377.2021484375 336.8486328125 387.935546875 347.58258056640625 397.84375 357.9036865234375 C 407.7509765625 368.2247314453125 416.1455078125 377.307373046875 423.0263671875 385.1513671875 C 419.861328125 387.8348388671875 416.6953125 390.518310546875 413.53125 393.20184326171875 C 406.92578125 384.9449462890625 398.7373046875 375.587158203125 388.9677734375 365.12841796875 C 379.197265625 354.66973876953125 368.5322265625 343.7293701171875 356.97265625 332.307373046875 C 345.5517578125 320.7476806640625 333.7861328125 309.46331787109375 321.67578125 298.4541320800781 C 309.7041015625 287.3073425292969 298.076171875 276.8486328125 286.7919921875 267.0780029296875M 294.22265625 121.55047607421875 C 298.212890625 121.55047607421875 302.2041015625 121.55047607421875 306.1943359375 121.55047607421875 C 306.1943359375 141.6422119140625 306.1943359375 161.73394775390625 306.1943359375 181.82568359375 C 306.1943359375 194.07339477539062 305.5751953125 207.21560668945312 304.3369140625 221.25228881835938 C 303.0986328125 235.1513671875 300.4833984375 249.5321044921875 296.4931640625 264.3945007324219 C 292.6396484375 279.1192626953125 286.37890625 294.05047607421875 277.708984375 309.1881103515625 C 269.177734375 324.1881103515625 257.412109375 338.912841796875 242.412109375 353.3624267578125 C 227.55078125 367.67431640625 208.7666015625 381.435791015625 186.060546875 394.64678955078125 C 185.509765625 393.958740234375 184.75390625 393.064208984375 183.7900390625 391.96331787109375 C 182.96484375 390.8624267578125 182.0009765625 389.761474609375 180.900390625 388.6605224609375 C 179.7998046875 387.4219970703125 178.767578125 386.52752685546875 177.8037109375 385.97705078125 C 200.2353515625 373.3165283203125 218.6748046875 360.03668212890625 233.1240234375 346.13763427734375 C 247.7109375 332.238525390625 259.1318359375 318.064208984375 267.388671875 303.61468505859375 C 275.783203125 289.02752685546875 281.90625 274.715576171875 285.759765625 260.67889404296875 C 289.61328125 246.50457763671875 291.9521484375 232.74310302734375 292.77734375 219.39450073242188 C 293.7412109375 206.0458984375 294.22265625 193.52291870117188 294.22265625 181.82568359375 C 294.22265625 161.73394775390625 294.22265625 141.6422119140625 294.22265625 121.55047607421875M 144.77734375 191.32110595703125 C 246.40234375 191.32110595703125 348.0283203125 191.32110595703125 449.6533203125 191.32110595703125 C 449.6533203125 195.31195068359375 449.6533203125 199.302734375 449.6533203125 203.2935791015625 C 351.880859375 203.2935791015625 254.109375 203.2935791015625 156.3369140625 203.2935791015625 C 156.3369140625 295.3577880859375 156.3369140625 387.4219970703125 156.3369140625 479.4862060546875 C 152.4833984375 479.4862060546875 148.630859375 479.4862060546875 144.77734375 479.4862060546875 C 144.77734375 383.43115234375 144.77734375 287.37615966796875 144.77734375 191.32110595703125M 443.66796875 191.32110595703125 C 447.5205078125 191.32110595703125 451.373046875 191.32110595703125 455.2265625 191.32110595703125 C 455.2265625 279.05047607421875 455.2265625 366.77978515625 455.2265625 454.5091552734375 C 455.2265625 461.11468505859375 454.1259765625 466.0 451.923828125 469.1651611328125 C 449.8603515625 472.33026123046875 446.212890625 474.6009521484375 440.984375 475.97705078125 C 435.3427734375 477.0780029296875 426.53515625 477.697265625 414.5625 477.8348388671875 C 402.728515625 477.97247314453125 387.8671875 478.041259765625 369.9775390625 478.041259765625 C 369.7021484375 476.6651611328125 369.2890625 475.22021484375 368.73828125 473.7064208984375 C 368.1875 472.33026123046875 367.6376953125 470.7476806640625 367.0869140625 468.958740234375 C 366.6748046875 467.307373046875 366.0556640625 465.7935791015625 365.2294921875 464.41741943359375 C 376.23828125 464.692626953125 386.3525390625 464.8990478515625 395.572265625 465.03668212890625 C 404.9296875 465.17431640625 412.98046875 465.17431640625 419.7236328125 465.03668212890625 C 426.466796875 464.8990478515625 431.14453125 464.83026123046875 433.759765625 464.83026123046875 C 437.75 464.5550537109375 440.365234375 463.6605224609375 441.603515625 462.14678955078125 C 442.9794921875 460.7706298828125 443.66796875 458.3624267578125 443.66796875 454.9219970703125 C 443.66796875 367.0550537109375 443.66796875 279.1880798339844 443.66796875 191.32110595703125"/>
  </g>
</svg>
