<?xml version="1.0" ?>
<svg xmlns="http://www.w3.org/2000/svg" version="1.1" width="600" height="600">
  <defs/>
  <g>
    <path stroke-width="0" fill="rgb(0, 0, 0)" opacity="1.0" d="M 256.46649169921875 173.83334350585938 C 321.75115966796875 173.83334350585938 387.035888671875 173.83334350585938 452.320556640625 173.83334350585938 C 452.320556640625 177.72222900390625 452.320556640625 181.61111450195312 452.320556640625 185.5 C 387.035888671875 185.5 321.75115966796875 185.5 256.46649169921875 185.5 C 256.46649169921875 181.61111450195312 256.46649169921875 177.72222900390625 256.46649169921875 173.83334350585938M 236.06939697265625 252.16668701171875 C 315.43780517578125 252.16668701171875 394.80621337890625 252.16668701171875 474.17462158203125 252.16668701171875 C 474.17462158203125 256.0555419921875 474.17462158203125 259.9444580078125 474.17462158203125 263.8333435058594 C 394.80621337890625 263.8333435058594 315.43780517578125 263.8333435058594 236.06939697265625 263.8333435058594 C 236.06939697265625 259.9444580078125 236.06939697265625 256.0555419921875 236.06939697265625 252.16668701171875M 239.19140625 320.5 C 315.64593505859375 320.5 392.1004638671875 320.5 468.5550537109375 320.5 C 468.5550537109375 324.388916015625 468.5550537109375 328.27777099609375 468.5550537109375 332.16668701171875 C 392.1004638671875 332.16668701171875 315.64593505859375 332.16668701171875 239.19140625 332.16668701171875 C 239.19140625 328.27777099609375 239.19140625 324.388916015625 239.19140625 320.5M 347.212890625 120.5 C 351.16748046875 120.5 355.12200927734375 120.5 359.0765380859375 120.5 C 359.0765380859375 166.40280151367188 359.0765380859375 212.3055419921875 359.0765380859375 258.2083435058594 C 355.12200927734375 258.2083435058594 351.16748046875 258.2083435058594 347.212890625 258.2083435058594 C 347.212890625 212.3055419921875 347.212890625 166.40280151367188 347.212890625 120.5M 401.9521484375 257.79168701171875 C 405.90667724609375 257.79168701171875 409.8612060546875 257.79168701171875 413.8157958984375 257.79168701171875 C 413.8157958984375 325.361083984375 413.8157958984375 392.9305419921875 413.8157958984375 460.5 C 413.8157958984375 466.1944580078125 412.844482421875 470.361083984375 410.90191650390625 473.0 C 408.9593505859375 475.638916015625 405.69854736328125 477.513916015625 401.11962890625 478.625 C 396.5406494140625 479.736083984375 389.3253173828125 480.2916259765625 379.4736328125 480.2916259765625 C 369.6219482421875 480.4305419921875 356.02392578125 480.5 338.679443359375 480.5 C 338.40191650390625 479.25 337.7774658203125 477.4444580078125 336.80621337890625 475.0833740234375 C 335.97369384765625 472.861083984375 334.8636474609375 470.84722900390625 333.47607421875 469.0416259765625 C 348.461669921875 469.3194580078125 361.296630859375 469.52777099609375 371.9808349609375 469.6666259765625 C 382.6650390625 469.8055419921875 389.74163818359375 469.736083984375 393.21051025390625 469.4583740234375 C 396.5406494140625 469.1805419921875 398.83013916015625 468.4166259765625 400.0789794921875 467.1666259765625 C 401.3277587890625 466.0555419921875 401.9521484375 463.8333740234375 401.9521484375 460.5 C 401.9521484375 392.9305419921875 401.9521484375 325.361083984375 401.9521484375 257.79168701171875M 272.0765380859375 361.3333740234375 C 275.2679443359375 359.25 278.4593505859375 357.16668701171875 281.65069580078125 355.0833740234375 C 289.1435546875 362.16668701171875 296.49761962890625 370.0833740234375 303.712890625 378.8333740234375 C 311.0670166015625 387.4444580078125 317.796630859375 395.986083984375 323.90191650390625 404.4583740234375 C 330.14593505859375 412.7916259765625 334.8636474609375 420.2916259765625 338.0550537109375 426.9583740234375 C 334.58612060546875 429.52777099609375 331.1171875 432.09722900390625 327.6483154296875 434.6666259765625 C 324.4569091796875 427.72222900390625 319.80859375 420.013916015625 313.703369140625 411.5416259765625 C 307.73681640625 402.9305419921875 301.14593505859375 394.25 293.93060302734375 385.5 C 286.85406494140625 376.611083984375 279.5693664550781 368.5555419921875 272.0765380859375 361.3333740234375M 132.62680053710938 148.625 C 164.81817626953125 148.625 197.00958251953125 148.625 229.20095825195312 148.625 C 229.20095825195312 232.72222900390625 229.20095825195312 316.8194580078125 229.20095825195312 400.9166259765625 C 197.00958251953125 400.9166259765625 164.81817626953125 400.9166259765625 132.62680053710938 400.9166259765625 C 132.62680053710938 397.09722900390625 132.62680053710938 393.27777099609375 132.62680053710938 389.4583740234375 C 161.00238037109375 389.4583740234375 189.37799072265625 389.4583740234375 217.75360107421875 389.4583740234375 C 217.75360107421875 313.138916015625 217.75360107421875 236.8194580078125 217.75360107421875 160.5 C 189.37799072265625 160.5 161.00238037109375 160.5 132.62680053710938 160.5 C 132.62680053710938 156.54168701171875 132.62680053710938 152.58334350585938 132.62680053710938 148.625M 132.62680053710938 267.79168701171875 C 162.59808349609375 267.79168701171875 192.56936645507812 267.79168701171875 222.5406494140625 267.79168701171875 C 222.5406494140625 271.8194580078125 222.5406494140625 275.84722900390625 222.5406494140625 279.875 C 192.56936645507812 279.875 162.59808349609375 279.875 132.62680053710938 279.875 C 132.62680053710938 275.84722900390625 132.62680053710938 271.8194580078125 132.62680053710938 267.79168701171875M 126.17465209960938 148.625 C 130.19854736328125 148.625 134.22247314453125 148.625 138.24639892578125 148.625 C 138.24639892578125 242.72222900390625 138.24639892578125 336.8194580078125 138.24639892578125 430.9166259765625 C 134.22247314453125 430.9166259765625 130.19854736328125 430.9166259765625 126.17465209960938 430.9166259765625 C 126.17465209960938 336.8194580078125 126.17465209960938 242.72222900390625 126.17465209960938 148.625"/>
  </g>
</svg>
