<?xml version="1.0" ?>
<svg xmlns="http://www.w3.org/2000/svg" version="1.1" width="600" height="600">
  <defs/>
  <g>
    <path stroke-width="0" fill="rgb(0, 0, 0)" opacity="1.0" d="M 154.32656860351562 272.2354736328125 C 153.929931640625 272.600830078125 153.2952880859375 273.1881103515625 152.42266845703125 273.99713134765625 C 151.55001831054688 274.78009033203125 150.91537475585938 275.354248046875 150.51873779296875 275.7196044921875 C 149.1436767578125 276.972412109375 147.43807983398438 278.4599609375 145.40194702148438 280.1824951171875 C 143.39224243164062 281.905029296875 141.25033569335938 283.6796875 138.9761962890625 285.506591796875 C 136.728515625 287.33349609375 134.54693603515625 289.09521484375 132.43145751953125 290.7916259765625 C 130.31600952148438 292.4619140625 128.504638671875 293.9234619140625 126.99734497070312 295.1761474609375 C 125.30499267578125 296.6376953125 124.15469360351562 297.86431884765625 123.5465087890625 298.8560791015625 C 122.93829345703125 299.82171630859375 122.95150756835938 300.787353515625 123.58615112304688 301.7530517578125 C 124.22079467773438 302.71868896484375 125.47686767578125 303.9844970703125 127.35433959960938 305.5504150390625 C 128.99383544921875 306.8553466796875 130.77874755859375 308.290771484375 132.70913696289062 309.856689453125 C 134.63949584960938 311.396484375 136.62274169921875 313.02764892578125 138.65887451171875 314.7501220703125 C 140.72146606445312 316.47265625 142.79727172851562 318.24737548828125 144.88629150390625 320.07427978515625 C 146.97531127929688 321.87506103515625 148.99822998046875 323.68896484375 150.95504760742188 325.515869140625 C 152.911865234375 327.3427734375 154.72323608398438 329.1043701171875 156.38916015625 330.80078125 C 155.72808837890625 331.375 155.06698608398438 331.94915771484375 154.40591430664062 332.5233154296875 C 153.34817504882812 331.32275390625 152.07888793945312 329.99176025390625 150.59805297851562 328.53021240234375 C 149.0643310546875 327.0426025390625 147.22653198242188 325.3331298828125 145.08462524414062 323.40185546875 C 142.96914672851562 321.4705810546875 140.73468017578125 319.5001220703125 138.3812255859375 317.490478515625 C 136.02777099609375 315.454833984375 133.71395874023438 313.4974365234375 131.43984985351562 311.6182861328125 C 129.192138671875 309.73919677734375 127.156005859375 308.06890869140625 125.3314208984375 306.60736083984375 C 123.03085327148438 304.75439453125 121.58969116210938 303.1754150390625 121.0079345703125 301.8704833984375 C 120.42617797851562 300.5655517578125 120.545166015625 299.273681640625 121.36492919921875 297.99481201171875 C 122.21112060546875 296.7159423828125 123.65228271484375 295.2283935546875 125.68841552734375 293.531982421875 C 127.0634765625 292.38360595703125 128.79550170898438 290.97430419921875 130.884521484375 289.303955078125 C 133.0 287.6075439453125 135.2080078125 285.81982421875 137.50860595703125 283.940673828125 C 139.83560180664062 282.0616455078125 142.0303955078125 280.24774169921875 144.09298706054688 278.4991455078125 C 146.15557861328125 276.75048828125 147.82150268554688 275.1976318359375 149.09078979492188 273.84051513671875 C 149.4874267578125 273.3707275390625 149.9898681640625 272.7705078125 150.59805297851562 272.03973388671875 C 151.20626831054688 271.2828369140625 151.642578125 270.656494140625 151.90701293945312 270.16064453125 C 152.71353149414062 270.85223388671875 153.52005004882812 271.5438232421875 154.32656860351562 272.2354736328125"/>
    <path stroke-width="0" fill="rgb(0, 0, 0)" opacity="1.0" d="M 222.7884521484375 271.1392822265625 C 222.7884521484375 271.269775390625 222.76202392578125 271.5438232421875 222.7091064453125 271.96142578125 C 222.65625 272.3529052734375 222.6165771484375 272.7574462890625 222.59011840820312 273.175048828125 C 222.56369018554688 273.5665283203125 222.55047607421875 273.879638671875 222.55047607421875 274.11456298828125 C 222.49758911132812 275.0802001953125 222.47113037109375 276.3590087890625 222.47113037109375 277.9510498046875 C 222.47113037109375 279.5169677734375 222.47113037109375 281.239501953125 222.47113037109375 283.11859130859375 C 222.47113037109375 284.9976806640625 222.48434448242188 286.889892578125 222.51080322265625 288.7950439453125 C 222.5372314453125 290.70025634765625 222.56369018554688 292.5010986328125 222.59011840820312 294.197509765625 C 222.6165771484375 295.8939208984375 222.62979125976562 297.34234619140625 222.62979125976562 298.5428466796875 C 221.92904663085938 297.6685791015625 221.22830200195312 296.7943115234375 220.52752685546875 295.91998291015625 C 220.52752685546875 295.52850341796875 220.52752685546875 294.6802978515625 220.52752685546875 293.3753662109375 C 220.52752685546875 292.0704345703125 220.51434326171875 290.5045166015625 220.48788452148438 288.6776123046875 C 220.46142578125 286.8507080078125 220.43499755859375 284.984619140625 220.4085693359375 283.0794677734375 C 220.38211059570312 281.17425537109375 220.35565185546875 279.4256591796875 220.3292236328125 277.8336181640625 C 220.30276489257812 276.21551513671875 220.26312255859375 274.975830078125 220.21023559570312 274.11456298828125 C 220.21023559570312 273.61865234375 220.17056274414062 273.031494140625 220.09124755859375 272.3529052734375 C 220.01190185546875 271.67431640625 219.94580078125 271.269775390625 219.89291381835938 271.1392822265625 C 220.85809326171875 271.1392822265625 221.82327270507812 271.1392822265625 222.7884521484375 271.1392822265625M 184.947998046875 282.68798828125 C 186.82546997070312 282.6357421875 188.99383544921875 282.570556640625 191.45306396484375 282.4921875 C 193.91229248046875 282.3878173828125 196.56985473632812 282.283447265625 199.42572021484375 282.1790771484375 C 202.30807495117188 282.07464599609375 205.282958984375 281.9832763671875 208.35037231445312 281.905029296875 C 211.41778564453125 281.82672119140625 214.45880126953125 281.761474609375 217.47332763671875 281.709228515625 C 220.51434326171875 281.6571044921875 223.43630981445312 281.6309814453125 226.23931884765625 281.6309814453125 C 228.91009521484375 281.6309814453125 231.36932373046875 281.64404296875 233.61700439453125 281.670166015625 C 235.89114379882812 281.69622802734375 237.90081787109375 281.709228515625 239.6461181640625 281.709228515625 C 241.41781616210938 281.709228515625 242.93829345703125 281.7222900390625 244.20758056640625 281.7484130859375 C 245.47686767578125 281.7745361328125 246.481689453125 281.78759765625 247.22210693359375 281.78759765625 C 247.22210693359375 282.54443359375 247.22210693359375 283.30126953125 247.22210693359375 284.05810546875 C 245.34466552734375 283.9537353515625 242.77963256835938 283.87548828125 239.527099609375 283.8232421875 C 236.301025390625 283.77105712890625 231.88494873046875 283.7449951171875 226.27899169921875 283.7449951171875 C 223.18511962890625 283.7449951171875 219.85324096679688 283.77105712890625 216.28338623046875 283.8232421875 C 212.71353149414062 283.87548828125 209.05111694335938 283.966796875 205.29617309570312 284.0972900390625 C 201.56765747070312 284.227783203125 197.9581298828125 284.3974609375 194.46759033203125 284.606201171875 C 191.0035400390625 284.7889404296875 187.85675048828125 285.0107421875 185.02734375 285.271728515625 C 185.00088500976562 284.4105224609375 184.97442626953125 283.5491943359375 184.947998046875 282.68798828125M 223.62142944335938 304.1019287109375 C 223.62142944335938 306.7117919921875 223.1322021484375 308.904052734375 222.15380859375 310.67877197265625 C 221.20184326171875 312.4273681640625 219.95901489257812 313.745361328125 218.42529296875 314.6326904296875 C 216.91802978515625 315.49395751953125 215.30499267578125 315.924560546875 213.58615112304688 315.924560546875 C 211.86734008789062 315.924560546875 210.28076171875 315.6766357421875 208.82635498046875 315.1807861328125 C 207.3719482421875 314.6849365234375 206.10269165039062 313.94110107421875 205.01849365234375 312.9493408203125 C 203.96075439453125 311.9315185546875 203.14105224609375 310.7178955078125 202.55926513671875 309.30859375 C 201.9775390625 307.8992919921875 201.6866455078125 306.294189453125 201.6866455078125 304.493408203125 C 201.6866455078125 302.353271484375 202.21551513671875 300.3828125 203.27325439453125 298.58203125 C 204.357421875 296.755126953125 205.78536987304688 295.28057861328125 207.55706787109375 294.1583251953125 C 209.32879638671875 293.03607177734375 211.2591552734375 292.4749755859375 213.34817504882812 292.4749755859375 C 215.93963623046875 292.4749755859375 218.06829833984375 293.04913330078125 219.7342529296875 294.197509765625 C 221.4266357421875 295.3458251953125 222.68267822265625 296.95086669921875 223.50244140625 299.0126953125 C 224.34860229492188 301.074462890625 224.77169799804688 303.449462890625 224.77169799804688 306.1375732421875 C 224.77169799804688 308.7474365234375 224.45437622070312 311.31817626953125 223.81976318359375 313.8497314453125 C 223.18511962890625 316.38134765625 222.08770751953125 318.79541015625 220.52752685546875 321.09210205078125 C 218.99383544921875 323.3626708984375 216.86514282226562 325.4375 214.1414794921875 327.316650390625 C 211.44424438476562 329.19573974609375 207.98016357421875 330.7877197265625 203.74923706054688 332.0926513671875 C 203.03524780273438 331.46630859375 202.3212890625 330.8399658203125 201.6072998046875 330.213623046875 C 205.3358154296875 329.3001708984375 208.509033203125 328.1126708984375 211.12692260742188 326.651123046875 C 213.77127075195312 325.16351318359375 215.9263916015625 323.4149169921875 217.59234619140625 321.4052734375 C 219.28472900390625 319.39569091796875 220.51434326171875 317.1512451171875 221.28118896484375 314.671875 C 222.07449340820312 312.1925048828125 222.47113037109375 309.50433349609375 222.47113037109375 306.60736083984375 C 222.47113037109375 302.2489013671875 221.5985107421875 299.15625 219.85324096679688 297.329345703125 C 218.10797119140625 295.50244140625 215.99249267578125 294.5889892578125 213.5068359375 294.5889892578125 C 211.84088134765625 294.5889892578125 210.28076171875 295.01959228515625 208.82635498046875 295.880859375 C 207.3719482421875 296.7159423828125 206.19525146484375 297.87738037109375 205.29617309570312 299.364990234375 C 204.42352294921875 300.8265380859375 203.98721313476562 302.5360107421875 203.98721313476562 304.493408203125 C 203.98721313476562 307.4947509765625 204.92596435546875 309.804443359375 206.80343627929688 311.422607421875 C 208.680908203125 313.01458740234375 210.94183349609375 313.81060791015625 213.58615112304688 313.81060791015625 C 215.56939697265625 313.81060791015625 217.20889282226562 313.314697265625 218.504638671875 312.322998046875 C 219.80035400390625 311.30511474609375 220.77874755859375 309.89581298828125 221.43984985351562 308.094970703125 C 222.10092163085938 306.294189453125 222.43145751953125 304.2193603515625 222.43145751953125 301.8704833984375 C 222.828125 302.6142578125 223.22476196289062 303.35809326171875 223.62142944335938 304.1019287109375M 233.8946533203125 270.278076171875 C 234.76730346679688 271.4525146484375 235.798583984375 272.94012451171875 236.988525390625 274.740966796875 C 238.17849731445312 276.541748046875 239.183349609375 278.17291259765625 240.00308227539062 279.6343994140625 C 239.26266479492188 279.99981689453125 238.52227783203125 280.36517333984375 237.7818603515625 280.7305908203125 C 236.988525390625 279.242919921875 236.0101318359375 277.5987548828125 234.84661865234375 275.7979736328125 C 233.70956420898438 273.99713134765625 232.69149780273438 272.4833984375 231.79241943359375 271.25677490234375 C 232.4931640625 270.9305419921875 233.19390869140625 270.60430908203125 233.8946533203125 270.278076171875M 242.22433471679688 268.5555419921875 C 243.07049560546875 269.703857421875 244.0621337890625 271.15234375 245.19921875 272.9010009765625 C 246.36273193359375 274.62353515625 247.39398193359375 276.254638671875 248.2930908203125 277.79443359375 C 247.5394287109375 278.17291259765625 246.78582763671875 278.55133056640625 246.03216552734375 278.9298095703125 C 245.21243286132812 277.3377685546875 244.24725341796875 275.68048095703125 243.13662719726562 273.9580078125 C 242.05242919921875 272.2093505859375 241.03436279296875 270.73480224609375 240.0823974609375 269.53424072265625 C 240.79638671875 269.2080078125 241.5103759765625 268.8818359375 242.22433471679688 268.5555419921875"/>
    <path stroke-width="0" fill="rgb(0, 0, 0)" opacity="1.0" d="M 278.8351745605469 271.49163818359375 C 278.70294189453125 272.4051513671875 278.61041259765625 273.240234375 278.5574951171875 273.99713134765625 C 278.504638671875 274.7279052734375 278.4517517089844 275.6021728515625 278.39886474609375 276.6199951171875 C 278.345947265625 278.81231689453125 278.25341796875 281.55267333984375 278.1212158203125 284.841064453125 C 277.9889831542969 288.1295166015625 277.8832092285156 291.65283203125 277.80389404296875 295.41107177734375 C 277.72454833984375 299.16925048828125 277.64520263671875 302.95355224609375 277.5658874511719 306.76397705078125 C 277.51300048828125 310.5743408203125 277.486572265625 314.09765625 277.486572265625 317.33392333984375 C 277.486572265625 320.30914306640625 278.0947570800781 322.6971435546875 279.3111572265625 324.49798583984375 C 280.52752685546875 326.298828125 282.21990966796875 327.603759765625 284.3882751464844 328.41278076171875 C 286.58306884765625 329.19573974609375 289.1083984375 329.58721923828125 291.96429443359375 329.58721923828125 C 295.77215576171875 329.58721923828125 299.15692138671875 329.1304931640625 302.1185607910156 328.217041015625 C 305.0802001953125 327.2774658203125 307.68487548828125 326.05084228515625 309.93255615234375 324.537109375 C 312.20672607421875 322.997314453125 314.18994140625 321.3009033203125 315.88232421875 319.4478759765625 C 317.60113525390625 317.59490966796875 319.1480712890625 315.74188232421875 320.52313232421875 313.888916015625 C 321.07843017578125 314.5152587890625 321.6337890625 315.1416015625 322.1890869140625 315.76800537109375 C 320.81402587890625 317.5166015625 319.200927734375 319.3304443359375 317.34991455078125 321.2095947265625 C 315.4989013671875 323.088623046875 313.34375 324.82421875 310.884521484375 326.416259765625 C 308.45172119140625 327.982177734375 305.64874267578125 329.2479248046875 302.47552490234375 330.213623046875 C 299.3023376464844 331.205322265625 295.71923828125 331.701171875 291.726318359375 331.701171875 C 288.57952880859375 331.701171875 285.7633056640625 331.2314453125 283.27764892578125 330.2918701171875 C 280.7919921875 329.37841796875 278.82196044921875 327.8255615234375 277.3675537109375 325.63330078125 C 275.9131774902344 323.4149169921875 275.18597412109375 320.3482666015625 275.18597412109375 316.4334716796875 C 275.18597412109375 313.980224609375 275.21240234375 311.34423828125 275.26531982421875 308.525634765625 C 275.3182067871094 305.680908203125 275.39752197265625 302.783935546875 275.5032958984375 299.83477783203125 C 275.60906982421875 296.8856201171875 275.68841552734375 294.001708984375 275.7413024902344 291.18310546875 C 275.82061767578125 288.33831787109375 275.88671875 285.6632080078125 275.93963623046875 283.15771484375 C 275.99249267578125 280.65228271484375 276.0189514160156 278.4730224609375 276.0189514160156 276.6199951171875 C 276.0189514160156 275.6021728515625 275.99249267578125 274.6756591796875 275.93963623046875 273.84051513671875 C 275.88671875 272.979248046875 275.794189453125 272.1962890625 275.6619873046875 271.49163818359375 C 276.7196960449219 271.49163818359375 277.7774353027344 271.49163818359375 278.8351745605469 271.49163818359375"/>
    <path stroke-width="0" fill="rgb(0, 0, 0)" opacity="1.0" d="M 349.12164306640625 288.3253173828125 C 362.14501953125 288.3253173828125 375.1683349609375 288.3253173828125 388.19171142578125 288.3253173828125 C 388.19171142578125 289.0560302734375 388.19171142578125 289.78680419921875 388.19171142578125 290.517578125 C 375.1683349609375 290.517578125 362.14501953125 290.517578125 349.12164306640625 290.517578125 C 349.12164306640625 289.78680419921875 349.12164306640625 289.0560302734375 349.12164306640625 288.3253173828125M 337.42047119140625 307.429443359375 C 358.9189453125 307.429443359375 380.4173583984375 307.429443359375 401.91583251953125 307.429443359375 C 401.91583251953125 308.1602783203125 401.91583251953125 308.8909912109375 401.91583251953125 309.62176513671875 C 380.4173583984375 309.62176513671875 358.9189453125 309.62176513671875 337.42047119140625 309.62176513671875 C 337.42047119140625 308.8909912109375 337.42047119140625 308.1602783203125 337.42047119140625 307.429443359375M 368.6368408203125 300.9700927734375 C 369.4036865234375 300.9700927734375 370.1705322265625 300.9700927734375 370.9373779296875 300.9700927734375 C 370.9373779296875 310.8353271484375 370.9373779296875 320.70062255859375 370.9373779296875 330.56591796875 C 370.9373779296875 331.53155517578125 370.7523193359375 332.249267578125 370.382080078125 332.71905517578125 C 370.038330078125 333.1888427734375 369.43017578125 333.55419921875 368.5574951171875 333.815185546875 C 367.73779296875 334.02398681640625 366.45526123046875 334.12841796875 364.7099609375 334.12841796875 C 362.9647216796875 334.15447998046875 360.439453125 334.16754150390625 357.13397216796875 334.16754150390625 C 357.0810546875 333.98486328125 356.988525390625 333.77606201171875 356.8563232421875 333.5411376953125 C 356.75054931640625 333.3323974609375 356.631591796875 333.09747314453125 356.49932861328125 332.83648681640625 C 356.36712646484375 332.57550048828125 356.2216796875 332.3536376953125 356.06298828125 332.1710205078125 C 357.94049072265625 332.1710205078125 359.61962890625 332.18402099609375 361.1004638671875 332.21014404296875 C 362.6077880859375 332.2362060546875 363.86376953125 332.2362060546875 364.86865234375 332.21014404296875 C 365.89996337890625 332.18402099609375 366.627197265625 332.1710205078125 367.05023193359375 332.1710205078125 C 367.658447265625 332.1187744140625 368.06829833984375 331.9752197265625 368.27984619140625 331.7403564453125 C 368.517822265625 331.5054931640625 368.6368408203125 331.14007568359375 368.6368408203125 330.64422607421875 C 368.6368408203125 320.7528076171875 368.6368408203125 310.8614501953125 368.6368408203125 300.9700927734375M 387.59674072265625 288.3253173828125 C 387.76861572265625 288.3253173828125 387.94049072265625 288.3253173828125 388.1124267578125 288.3253173828125 C 388.2974853515625 288.2730712890625 388.48260498046875 288.22088623046875 388.667724609375 288.168701171875 C 389.196533203125 288.547119140625 389.7254638671875 288.925537109375 390.2542724609375 289.303955078125 C 388.58837890625 291.0526123046875 386.631591796875 292.814208984375 384.3839111328125 294.5889892578125 C 382.16259765625 296.3375244140625 379.84881591796875 297.9818115234375 377.4425048828125 299.5216064453125 C 375.0626220703125 301.0352783203125 372.7884521484375 302.3402099609375 370.6201171875 303.4364013671875 C 370.46142578125 303.2015380859375 370.22344970703125 302.9405517578125 369.9061279296875 302.6534423828125 C 369.615234375 302.3663330078125 369.33758544921875 302.1575927734375 369.0731201171875 302.027099609375 C 371.2679443359375 300.95703125 373.515625 299.69122314453125 375.81622314453125 298.229736328125 C 378.1431884765625 296.7420654296875 380.3248291015625 295.189208984375 382.3609619140625 293.57110595703125 C 384.42352294921875 291.9268798828125 386.1688232421875 290.3609619140625 387.59674072265625 288.87335205078125 C 387.59674072265625 288.690673828125 387.59674072265625 288.5079345703125 387.59674072265625 288.3253173828125M 368.31951904296875 266.3240966796875 C 369.08642578125 266.3240966796875 369.853271484375 266.3240966796875 370.6201171875 266.3240966796875 C 370.6201171875 269.847412109375 370.6201171875 273.3707275390625 370.6201171875 276.89404296875 C 369.853271484375 276.89404296875 369.08642578125 276.89404296875 368.31951904296875 276.89404296875 C 368.31951904296875 273.3707275390625 368.31951904296875 269.847412109375 368.31951904296875 266.3240966796875M 338.57073974609375 275.641357421875 C 359.24945068359375 275.641357421875 379.92816162109375 275.641357421875 400.60687255859375 275.641357421875 C 400.60687255859375 280.92626953125 400.60687255859375 286.2113037109375 400.60687255859375 291.4962158203125 C 399.853271484375 291.4962158203125 399.099609375 291.4962158203125 398.345947265625 291.4962158203125 C 398.345947265625 286.955078125 398.345947265625 282.4139404296875 398.345947265625 277.872802734375 C 379.174560546875 277.872802734375 360.0030517578125 277.872802734375 340.8316650390625 277.872802734375 C 340.8316650390625 282.4139404296875 340.8316650390625 286.955078125 340.8316650390625 291.4962158203125 C 340.0780029296875 291.4962158203125 339.3243408203125 291.4962158203125 338.57073974609375 291.4962158203125 C 338.57073974609375 286.2113037109375 338.57073974609375 280.92626953125 338.57073974609375 275.641357421875"/>
    <path stroke-width="0" fill="rgb(0, 0, 0)" opacity="1.0" d="M 441.30322265625 270.512939453125 C 453.30853271484375 270.512939453125 465.31378173828125 270.512939453125 477.319091796875 270.512939453125 C 477.319091796875 271.24371337890625 477.319091796875 271.9744873046875 477.319091796875 272.7052001953125 C 465.31378173828125 272.7052001953125 453.30853271484375 272.7052001953125 441.30322265625 272.7052001953125 C 441.30322265625 271.9744873046875 441.30322265625 271.24371337890625 441.30322265625 270.512939453125M 438.685302734375 297.21185302734375 C 452.6077880859375 297.21185302734375 466.5301513671875 297.21185302734375 480.45263671875 297.21185302734375 C 480.45263671875 297.9556884765625 480.45263671875 298.699462890625 480.45263671875 299.44329833984375 C 466.5301513671875 299.44329833984375 452.6077880859375 299.44329833984375 438.685302734375 299.44329833984375 C 438.685302734375 298.699462890625 438.685302734375 297.9556884765625 438.685302734375 297.21185302734375M 458.5574951171875 286.0155029296875 C 459.2979736328125 286.0155029296875 460.038330078125 286.0155029296875 460.77874755859375 286.0155029296875 C 460.77874755859375 300.696044921875 460.77874755859375 315.37652587890625 460.77874755859375 330.0570068359375 C 460.77874755859375 331.205322265625 460.5804443359375 332.0274658203125 460.18377685546875 332.5233154296875 C 459.8135986328125 333.0191650390625 459.178955078125 333.3975830078125 458.27984619140625 333.6585693359375 C 457.30145263671875 333.867431640625 455.8338623046875 333.98486328125 453.8770751953125 334.01092529296875 C 451.9202880859375 334.03704833984375 449.3287353515625 334.050048828125 446.1026611328125 334.050048828125 C 446.0498046875 333.7369384765625 445.9176025390625 333.35845947265625 445.7060546875 332.914794921875 C 445.4945068359375 332.4971923828125 445.296142578125 332.1187744140625 445.111083984375 331.779541015625 C 447.993408203125 331.8316650390625 450.47906494140625 331.8577880859375 452.568115234375 331.8577880859375 C 454.68359375 331.8577880859375 456.0982666015625 331.8316650390625 456.812255859375 331.779541015625 C 457.5262451171875 331.727294921875 457.989013671875 331.583740234375 458.2005615234375 331.348876953125 C 458.4384765625 331.14007568359375 458.5574951171875 330.735595703125 458.5574951171875 330.13525390625 C 458.5574951171875 315.4287109375 458.5574951171875 300.72216796875 458.5574951171875 286.0155029296875M 476.486083984375 270.512939453125 C 476.657958984375 270.512939453125 476.82989501953125 270.512939453125 477.00177001953125 270.512939453125 C 477.160400390625 270.46075439453125 477.319091796875 270.4085693359375 477.477783203125 270.3563232421875 C 478.006591796875 270.6826171875 478.5355224609375 271.0087890625 479.0643310546875 271.3350830078125 C 477.5306396484375 273.44903564453125 475.7060546875 275.56304931640625 473.590576171875 277.677001953125 C 471.50152587890625 279.764892578125 469.3067626953125 281.7222900390625 467.00616455078125 283.5491943359375 C 464.7320556640625 285.3760986328125 462.5372314453125 286.9681396484375 460.4217529296875 288.3253173828125 C 460.210205078125 288.09039306640625 459.94580078125 287.8424072265625 459.62847900390625 287.5814208984375 C 459.337646484375 287.29437255859375 459.0599365234375 287.072509765625 458.7955322265625 286.91595458984375 C 460.9373779296875 285.61102294921875 463.1190185546875 284.0711669921875 465.3402099609375 282.2965087890625 C 467.58795166015625 280.52178955078125 469.690185546875 278.65576171875 471.64697265625 276.6983642578125 C 473.603759765625 274.740966796875 475.216796875 272.887939453125 476.486083984375 271.1392822265625 C 476.486083984375 270.9305419921875 476.486083984375 270.72174072265625 476.486083984375 270.512939453125M 411.3560791015625 282.60968017578125 C 419.88409423828125 282.60968017578125 428.412109375 282.60968017578125 436.9400634765625 282.60968017578125 C 436.9400634765625 283.3665771484375 436.9400634765625 284.1234130859375 436.9400634765625 284.8802490234375 C 428.412109375 284.8802490234375 419.88409423828125 284.8802490234375 411.3560791015625 284.8802490234375 C 411.3560791015625 284.1234130859375 411.3560791015625 283.3665771484375 411.3560791015625 282.60968017578125M 424.16790771484375 266.59814453125 C 424.9215087890625 266.7025146484375 425.6751708984375 266.80694580078125 426.4288330078125 266.911376953125 C 425.6619873046875 270.4085693359375 424.789306640625 274.23199462890625 423.8109130859375 278.3817138671875 C 422.8590087890625 282.5052490234375 421.8673095703125 286.6810302734375 420.8360595703125 290.9090576171875 C 419.80474853515625 295.1109619140625 418.7867431640625 299.1170654296875 417.7818603515625 302.927490234375 C 416.803466796875 306.73785400390625 415.8779296875 310.0654296875 415.0052490234375 312.91015625 C 414.3177490234375 312.53173828125 413.6302490234375 312.1533203125 412.9427490234375 311.77490234375 C 413.8153076171875 309.0345458984375 414.7408447265625 305.7852783203125 415.71923828125 302.027099609375 C 416.72412109375 298.26885986328125 417.72894287109375 294.31494140625 418.7337646484375 290.16522216796875 C 419.76513671875 285.98944091796875 420.7435302734375 281.87890625 421.66900634765625 277.8336181640625 C 422.6209716796875 273.76220703125 423.4539794921875 270.01708984375 424.16790771484375 266.59814453125M 414.5689697265625 308.32989501953125 C 415.0185546875 307.80792236328125 415.468017578125 307.28594970703125 415.9176025390625 306.76397705078125 C 418.95855712890625 308.2515869140625 422.0260009765625 309.9871826171875 425.119873046875 311.97064208984375 C 428.240234375 313.9541015625 431.0960693359375 315.9898681640625 433.6875 318.0777587890625 C 436.2789306640625 320.1395263671875 438.35479736328125 322.096923828125 439.9149169921875 323.949951171875 C 439.43896484375 324.5762939453125 438.9630126953125 325.20263671875 438.48699951171875 325.8289794921875 C 436.900390625 323.97601318359375 434.79815673828125 321.9925537109375 432.1802978515625 319.8785400390625 C 429.5623779296875 317.7384033203125 426.73291015625 315.66357421875 423.69189453125 313.65399169921875 C 420.65093994140625 311.6182861328125 417.6099853515625 309.8436279296875 414.5689697265625 308.32989501953125M 436.2657470703125 282.60968017578125 C 436.39794921875 282.60968017578125 436.53021240234375 282.60968017578125 436.66241455078125 282.60968017578125 C 436.807861328125 282.570556640625 436.9532470703125 282.5313720703125 437.0987548828125 282.4921875 C 437.587890625 282.6357421875 438.0771484375 282.779296875 438.5662841796875 282.9228515625 C 437.79949951171875 292.5010986328125 436.292236328125 300.669921875 434.0445556640625 307.429443359375 C 431.8232421875 314.18902587890625 429.007080078125 319.748046875 425.5958251953125 324.10650634765625 C 422.1846923828125 328.4649658203125 418.32391357421875 331.870849609375 414.013671875 334.3240966796875 C 413.8814697265625 334.0892333984375 413.65667724609375 333.77606201171875 413.33935546875 333.38458251953125 C 413.02203369140625 333.0191650390625 412.71795654296875 332.70599365234375 412.42706298828125 332.44500732421875 C 416.57867431640625 330.25274658203125 420.30718994140625 327.0556640625 423.61260986328125 322.853759765625 C 426.91802978515625 318.62579345703125 429.6549072265625 313.24951171875 431.8232421875 306.724853515625 C 434.01806640625 300.174072265625 435.4989013671875 292.37060546875 436.2657470703125 283.3143310546875 C 436.2657470703125 283.0794677734375 436.2657470703125 282.8446044921875 436.2657470703125 282.60968017578125"/>
  </g>
</svg>
