<?xml version="1.0" encoding="utf-8"?>
<svg xmlns="http://www.w3.org/2000/svg" xmlns:ev="http://www.w3.org/2001/xml-events" xmlns:xlink="http://www.w3.org/1999/xlink" version="1.1" baseProfile="full" width="30496.0" height="1753.0" viewBox="136.0 -1597.0 30496.0 1753.0">
<defs/>
<g><path d="M 586.000000 -1584.000000 C 604.333333 -1584.000000 622.666667 -1584.000000 641.000000 -1584.000000 C 641.000000 -1331.333333 641.000000 -1078.666667 641.000000 -826.000000 C 641.000000 -728.666667 636.000000 -634.000000 626.000000 -542.000000 C 616.666667 -450.666667 596.666667 -363.666667 566.000000 -281.000000 C 535.333333 -198.333333 490.333333 -120.666667 431.000000 -48.000000 C 371.666667 24.666667 292.000000 92.666667 192.000000 156.000000 C 189.333333 152.000000 185.666667 147.333333 181.000000 142.000000 C 177.000000 136.666667 172.333333 131.666667 167.000000 127.000000 C 161.666667 123.000000 157.333333 119.666667 154.000000 117.000000 C 250.000000 55.666667 326.666667 -10.000000 384.000000 -80.000000 C 441.333333 -150.666667 484.333333 -225.666667 513.000000 -305.000000 C 542.333333 -384.333333 561.666667 -467.333333 571.000000 -554.000000 C 581.000000 -641.333333 586.000000 -732.000000 586.000000 -826.000000 C 586.000000 -1078.666667 586.000000 -1331.333333 586.000000 -1584.000000z M 1283.000000 -1584.000000 C 1301.333333 -1584.000000 1319.666667 -1584.000000 1338.000000 -1584.000000 C 1338.000000 -1011.333333 1338.000000 -438.666667 1338.000000 134.000000 C 1319.666667 134.000000 1301.333333 134.000000 1283.000000 134.000000 C 1283.000000 -438.666667 1283.000000 -1011.333333 1283.000000 -1584.000000z M 136.000000 -570.000000 C 686.666667 -570.000000 1237.333333 -570.000000 1788.000000 -570.000000 C 1788.000000 -551.666667 1788.000000 -533.333333 1788.000000 -515.000000 C 1237.333333 -515.000000 686.666667 -515.000000 136.000000 -515.000000 C 136.000000 -533.333333 136.000000 -551.666667 136.000000 -570.000000z M 204.000000 -1167.000000 C 718.333333 -1167.000000 1232.666667 -1167.000000 1747.000000 -1167.000000 C 1747.000000 -1148.000000 1747.000000 -1129.000000 1747.000000 -1110.000000 C 1232.666667 -1110.000000 718.333333 -1110.000000 204.000000 -1110.000000 C 204.000000 -1129.000000 204.000000 -1148.000000 204.000000 -1167.000000z "/>
</g></svg>
