<?xml version="1.0" encoding="utf-8"?>
<svg xmlns="http://www.w3.org/2000/svg" xmlns:ev="http://www.w3.org/2001/xml-events" xmlns:xlink="http://www.w3.org/1999/xlink" version="1.1" baseProfile="full" width="34199.0" height="1607.0" viewBox="282.0 -1509.0 34199.0 1607.0">
<defs/>
<g><path d="M 6499.000000 -1507.000000 C 6497.666667 -1497.000000 6496.666667 -1487.000000 6496.000000 -1477.000000 C 6495.333333 -1467.666667 6494.666667 -1457.333333 6494.000000 -1446.000000 C 6493.333333 -1435.333333 6492.666667 -1423.000000 6492.000000 -1409.000000 C 6492.000000 -1389.666667 6491.000000 -1354.333333 6489.000000 -1303.000000 C 6487.000000 -1252.333333 6485.000000 -1193.000000 6483.000000 -1125.000000 C 6481.000000 -1057.000000 6479.333333 -988.333333 6478.000000 -919.000000 C 6476.666667 -850.333333 6476.000000 -788.333333 6476.000000 -733.000000 C 6476.000000 -685.666667 6476.333333 -634.333333 6477.000000 -579.000000 C 6477.666667 -524.333333 6478.666667 -470.000000 6480.000000 -416.000000 C 6481.333333 -362.666667 6482.333333 -312.333333 6483.000000 -265.000000 C 6483.666667 -217.666667 6484.000000 -178.000000 6484.000000 -146.000000 C 6484.000000 -106.000000 6478.666667 -73.666667 6468.000000 -49.000000 C 6458.000000 -24.333333 6443.666667 -6.333333 6425.000000 5.000000 C 6406.333333 17.000000 6383.000000 23.000000 6355.000000 23.000000 C 6327.000000 23.000000 6293.333333 15.333333 6254.000000 0.000000 C 6215.333333 -15.333333 6177.000000 -35.666667 6139.000000 -61.000000 C 6101.666667 -87.000000 6070.333333 -116.333333 6045.000000 -149.000000 C 6020.333333 -181.666667 6008.000000 -215.333333 6008.000000 -250.000000 C 6008.000000 -300.666667 6028.666667 -351.000000 6070.000000 -401.000000 C 6111.333333 -451.000000 6164.666667 -497.666667 6230.000000 -541.000000 C 6295.333333 -585.000000 6362.666667 -621.000000 6432.000000 -649.000000 C 6519.333333 -686.333333 6608.000000 -714.333333 6698.000000 -733.000000 C 6788.000000 -752.333333 6872.666667 -762.000000 6952.000000 -762.000000 C 7042.000000 -762.000000 7119.333333 -747.000000 7184.000000 -717.000000 C 7248.666667 -687.000000 7298.666667 -645.666667 7334.000000 -593.000000 C 7370.000000 -541.000000 7388.000000 -482.333333 7388.000000 -417.000000 C 7388.000000 -339.000000 7370.333333 -272.333333 7335.000000 -217.000000 C 7300.333333 -161.666667 7253.000000 -116.666667 7193.000000 -82.000000 C 7133.666667 -48.000000 7067.000000 -22.666667 6993.000000 -6.000000 C 6951.666667 3.333333 6911.000000 9.000000 6871.000000 11.000000 C 6831.666667 13.666667 6798.000000 15.000000 6770.000000 15.000000 C 6763.000000 -4.666667 6756.000000 -24.333333 6749.000000 -44.000000 C 6778.333333 -42.666667 6811.666667 -42.333333 6849.000000 -43.000000 C 6887.000000 -43.666667 6926.000000 -48.666667 6966.000000 -58.000000 C 7026.000000 -70.666667 7083.666667 -91.000000 7139.000000 -119.000000 C 7195.000000 -147.000000 7240.666667 -185.333333 7276.000000 -234.000000 C 7311.333333 -282.666667 7329.000000 -343.000000 7329.000000 -415.000000 C 7329.000000 -480.333333 7311.333333 -534.666667 7276.000000 -578.000000 C 7240.666667 -621.333333 7194.000000 -653.666667 7136.000000 -675.000000 C 7078.666667 -697.000000 7017.333333 -708.000000 6952.000000 -708.000000 C 6862.666667 -708.000000 6778.666667 -698.666667 6700.000000 -680.000000 C 6621.333333 -662.000000 6537.000000 -634.333333 6447.000000 -597.000000 C 6381.000000 -571.666667 6319.000000 -539.000000 6261.000000 -499.000000 C 6203.666667 -459.666667 6157.666667 -418.000000 6123.000000 -374.000000 C 6088.333333 -330.666667 6071.000000 -290.000000 6071.000000 -252.000000 C 6071.000000 -223.333333 6080.666667 -196.000000 6100.000000 -170.000000 C 6119.333333 -144.666667 6143.666667 -122.000000 6173.000000 -102.000000 C 6202.333333 -82.666667 6233.000000 -67.000000 6265.000000 -55.000000 C 6297.000000 -43.666667 6325.000000 -38.000000 6349.000000 -38.000000 C 6376.333333 -38.000000 6396.333333 -48.333333 6409.000000 -69.000000 C 6421.666667 -89.666667 6428.000000 -114.666667 6428.000000 -144.000000 C 6428.000000 -184.666667 6427.333333 -238.666667 6426.000000 -306.000000 C 6424.666667 -373.333333 6423.333333 -444.333333 6422.000000 -519.000000 C 6420.666667 -594.333333 6420.000000 -664.000000 6420.000000 -728.000000 C 6420.000000 -784.000000 6420.666667 -846.666667 6422.000000 -916.000000 C 6423.333333 -986.000000 6424.666667 -1055.333333 6426.000000 -1124.000000 C 6427.333333 -1192.666667 6428.666667 -1252.333333 6430.000000 -1303.000000 C 6431.333333 -1354.333333 6432.000000 -1388.333333 6432.000000 -1405.000000 C 6432.000000 -1418.333333 6431.666667 -1430.666667 6431.000000 -1442.000000 C 6430.333333 -1453.333333 6429.666667 -1464.666667 6429.000000 -1476.000000 C 6428.333333 -1488.000000 6426.666667 -1498.333333 6424.000000 -1507.000000 C 6449.000000 -1507.000000 6474.000000 -1507.000000 6499.000000 -1507.000000z M 7144.000000 -1290.000000 C 7186.666667 -1266.000000 7234.000000 -1236.333333 7286.000000 -1201.000000 C 7338.666667 -1165.666667 7389.000000 -1130.000000 7437.000000 -1094.000000 C 7485.000000 -1058.666667 7522.333333 -1027.333333 7549.000000 -1000.000000 C 7536.333333 -983.333333 7523.666667 -966.666667 7511.000000 -950.000000 C 7487.000000 -976.000000 7458.666667 -1002.333333 7426.000000 -1029.000000 C 7393.333333 -1055.666667 7358.666667 -1082.000000 7322.000000 -1108.000000 C 7285.333333 -1134.666667 7248.666667 -1159.666667 7212.000000 -1183.000000 C 7176.000000 -1207.000000 7142.000000 -1228.000000 7110.000000 -1246.000000 C 7121.333333 -1260.666667 7132.666667 -1275.333333 7144.000000 -1290.000000z M 6019.000000 -1133.000000 C 6067.666667 -1126.333333 6108.333333 -1121.666667 6141.000000 -1119.000000 C 6173.666667 -1117.000000 6208.000000 -1116.000000 6244.000000 -1116.000000 C 6288.666667 -1116.000000 6340.000000 -1118.333333 6398.000000 -1123.000000 C 6456.666667 -1128.333333 6517.000000 -1135.333333 6579.000000 -1144.000000 C 6641.000000 -1153.333333 6701.333333 -1164.333333 6760.000000 -1177.000000 C 6819.333333 -1189.666667 6872.000000 -1203.000000 6918.000000 -1217.000000 C 6918.666667 -1196.666667 6919.333333 -1176.333333 6920.000000 -1156.000000 C 6874.666667 -1144.666667 6822.333333 -1133.333333 6763.000000 -1122.000000 C 6703.666667 -1111.333333 6642.333333 -1101.333333 6579.000000 -1092.000000 C 6515.666667 -1083.333333 6454.666667 -1076.000000 6396.000000 -1070.000000 C 6338.000000 -1064.666667 6287.333333 -1062.000000 6244.000000 -1062.000000 C 6199.333333 -1062.000000 6159.000000 -1063.000000 6123.000000 -1065.000000 C 6087.000000 -1067.000000 6053.000000 -1069.000000 6021.000000 -1071.000000 C 6020.333333 -1091.666667 6019.666667 -1112.333333 6019.000000 -1133.000000z "/>
</g></svg>
