<?xml version="1.0" encoding="utf-8"?>
<svg xmlns="http://www.w3.org/2000/svg" xmlns:ev="http://www.w3.org/2001/xml-events" xmlns:xlink="http://www.w3.org/1999/xlink" version="1.1" baseProfile="full" width="41856.0" height="1776.0" viewBox="67.0 -1634.0 41856.0 1776.0">
<defs/>
<g><path d="M 23656.000000 -895.000000 C 24060.000000 -895.000000 24464.000000 -895.000000 24868.000000 -895.000000 C 24868.000000 -875.666667 24868.000000 -856.333333 24868.000000 -837.000000 C 24464.000000 -837.000000 24060.000000 -837.000000 23656.000000 -837.000000 C 23656.000000 -856.333333 23656.000000 -875.666667 23656.000000 -895.000000z M 24213.000000 -1592.000000 C 24231.666667 -1592.000000 24250.333333 -1592.000000 24269.000000 -1592.000000 C 24269.000000 -1016.666667 24269.000000 -441.333333 24269.000000 134.000000 C 24250.333333 134.000000 24231.666667 134.000000 24213.000000 134.000000 C 24213.000000 -441.333333 24213.000000 -1016.666667 24213.000000 -1592.000000z M 23228.000000 -1532.000000 C 23239.000000 -1545.333333 23250.000000 -1558.666667 23261.000000 -1572.000000 C 23304.333333 -1553.333333 23349.000000 -1531.333333 23395.000000 -1506.000000 C 23441.000000 -1481.333333 23484.666667 -1456.666667 23526.000000 -1432.000000 C 23568.000000 -1408.000000 23602.333333 -1385.666667 23629.000000 -1365.000000 C 23618.333333 -1348.333333 23607.666667 -1331.666667 23597.000000 -1315.000000 C 23569.666667 -1335.666667 23535.333333 -1359.000000 23494.000000 -1385.000000 C 23452.666667 -1411.666667 23408.666667 -1437.666667 23362.000000 -1463.000000 C 23316.000000 -1488.333333 23271.333333 -1511.333333 23228.000000 -1532.000000z M 23134.000000 -1006.000000 C 23144.333333 -1021.333333 23154.666667 -1036.666667 23165.000000 -1052.000000 C 23208.333333 -1036.666667 23254.000000 -1018.333333 23302.000000 -997.000000 C 23350.000000 -976.333333 23395.333333 -955.666667 23438.000000 -935.000000 C 23481.333333 -914.333333 23517.000000 -895.000000 23545.000000 -877.000000 C 23536.000000 -859.333333 23527.000000 -841.666667 23518.000000 -824.000000 C 23488.666667 -842.000000 23452.333333 -861.666667 23409.000000 -883.000000 C 23366.333333 -905.000000 23321.000000 -926.666667 23273.000000 -948.000000 C 23225.000000 -970.000000 23178.666667 -989.333333 23134.000000 -1006.000000z M 23196.000000 67.000000 C 23230.000000 17.000000 23268.666667 -43.333333 23312.000000 -114.000000 C 23356.000000 -185.333333 23399.666667 -260.333333 23443.000000 -339.000000 C 23486.333333 -417.666667 23526.000000 -492.666667 23562.000000 -564.000000 C 23575.666667 -552.000000 23589.333333 -540.000000 23603.000000 -528.000000 C 23569.666667 -460.000000 23532.000000 -387.666667 23490.000000 -311.000000 C 23448.666667 -234.333333 23406.333333 -159.666667 23363.000000 -87.000000 C 23320.333333 -15.000000 23280.666667 50.000000 23244.000000 108.000000 C 23228.000000 94.333333 23212.000000 80.666667 23196.000000 67.000000z "/>
</g></svg>
