<?xml version="1.0" encoding="utf-8"?>
<svg xmlns="http://www.w3.org/2000/svg" xmlns:ev="http://www.w3.org/2001/xml-events" xmlns:xlink="http://www.w3.org/1999/xlink" version="1.1" baseProfile="full" width="49628.0" height="1744.0" viewBox="213.0 -1596.0 49628.0 1744.0">
<defs/>
<g><path d="M 40454.000000 -1267.000000 C 41004.666667 -1267.000000 41555.333333 -1267.000000 42106.000000 -1267.000000 C 42106.000000 -1248.000000 42106.000000 -1229.000000 42106.000000 -1210.000000 C 41555.333333 -1210.000000 41004.666667 -1210.000000 40454.000000 -1210.000000 C 40454.000000 -1229.000000 40454.000000 -1248.000000 40454.000000 -1267.000000z M 41019.000000 -672.000000 C 41358.000000 -672.000000 41697.000000 -672.000000 42036.000000 -672.000000 C 42036.000000 -653.333333 42036.000000 -634.666667 42036.000000 -616.000000 C 41697.000000 -616.000000 41358.000000 -616.000000 41019.000000 -616.000000 C 41019.000000 -634.666667 41019.000000 -653.333333 41019.000000 -672.000000z M 40942.000000 35.000000 C 41331.666667 35.000000 41721.333333 35.000000 42111.000000 35.000000 C 42111.000000 54.000000 42111.000000 73.000000 42111.000000 92.000000 C 41721.333333 92.000000 41331.666667 92.000000 40942.000000 92.000000 C 40942.000000 73.000000 40942.000000 54.000000 40942.000000 35.000000z M 41493.000000 -1094.000000 C 41511.666667 -1094.000000 41530.333333 -1094.000000 41549.000000 -1094.000000 C 41549.000000 -707.000000 41549.000000 -320.000000 41549.000000 67.000000 C 41530.333333 67.000000 41511.666667 67.000000 41493.000000 67.000000 C 41493.000000 -320.000000 41493.000000 -707.000000 41493.000000 -1094.000000z M 41111.000000 -1594.000000 C 41130.333333 -1588.666667 41149.666667 -1583.333333 41169.000000 -1578.000000 C 41126.333333 -1440.000000 41072.333333 -1302.333333 41007.000000 -1165.000000 C 40941.666667 -1028.333333 40864.000000 -900.000000 40774.000000 -780.000000 C 40684.000000 -660.666667 40579.333333 -556.333333 40460.000000 -467.000000 C 40457.333333 -470.333333 40453.666667 -474.666667 40449.000000 -480.000000 C 40445.000000 -485.333333 40440.333333 -490.666667 40435.000000 -496.000000 C 40430.333333 -502.000000 40426.000000 -506.333333 40422.000000 -509.000000 C 40508.666667 -574.333333 40587.666667 -648.333333 40659.000000 -731.000000 C 40731.000000 -814.333333 40795.333333 -903.333333 40852.000000 -998.000000 C 40909.333333 -1092.666667 40959.666667 -1190.333333 41003.000000 -1291.000000 C 41047.000000 -1391.666667 41083.000000 -1492.666667 41111.000000 -1594.000000z M 40735.000000 -816.000000 C 40753.333333 -816.000000 40771.666667 -816.000000 40790.000000 -816.000000 C 40790.000000 -502.333333 40790.000000 -188.666667 40790.000000 125.000000 C 40771.666667 125.000000 40753.333333 125.000000 40735.000000 125.000000 C 40735.000000 -188.666667 40735.000000 -502.333333 40735.000000 -816.000000z "/>
</g></svg>
