<?xml version="1.0" encoding="utf-8"?>
<svg xmlns="http://www.w3.org/2000/svg" xmlns:ev="http://www.w3.org/2001/xml-events" xmlns:xlink="http://www.w3.org/1999/xlink" version="1.1" baseProfile="full" width="30496.0" height="1753.0" viewBox="136.0 -1597.0 30496.0 1753.0">
<defs/>
<g><path d="M 16500.000000 -1574.000000 C 16518.666667 -1574.000000 16537.333333 -1574.000000 16556.000000 -1574.000000 C 16556.000000 -1004.666667 16556.000000 -435.333333 16556.000000 134.000000 C 16537.333333 134.000000 16518.666667 134.000000 16500.000000 134.000000 C 16500.000000 -435.333333 16500.000000 -1004.666667 16500.000000 -1574.000000z M 15980.000000 -972.000000 C 16355.666667 -972.000000 16731.333333 -972.000000 17107.000000 -972.000000 C 17107.000000 -952.666667 17107.000000 -933.333333 17107.000000 -914.000000 C 16731.333333 -914.000000 16355.666667 -914.000000 15980.000000 -914.000000 C 15980.000000 -933.333333 15980.000000 -952.666667 15980.000000 -972.000000z M 15898.000000 -497.000000 C 16328.000000 -497.000000 16758.000000 -497.000000 17188.000000 -497.000000 C 17188.000000 -478.000000 17188.000000 -459.000000 17188.000000 -440.000000 C 16758.000000 -440.000000 16328.000000 -440.000000 15898.000000 -440.000000 C 15898.000000 -459.000000 15898.000000 -478.000000 15898.000000 -497.000000z M 16036.000000 -1471.000000 C 16052.666667 -1478.000000 16069.333333 -1485.000000 16086.000000 -1492.000000 C 16114.000000 -1449.333333 16140.666667 -1403.000000 16166.000000 -1353.000000 C 16192.000000 -1303.666667 16215.000000 -1255.666667 16235.000000 -1209.000000 C 16255.666667 -1162.333333 16271.333333 -1121.666667 16282.000000 -1087.000000 C 16264.666667 -1076.666667 16247.333333 -1066.333333 16230.000000 -1056.000000 C 16219.333333 -1092.000000 16203.666667 -1134.000000 16183.000000 -1182.000000 C 16163.000000 -1230.000000 16140.000000 -1279.000000 16114.000000 -1329.000000 C 16088.666667 -1379.666667 16062.666667 -1427.000000 16036.000000 -1471.000000z M 16986.000000 -1509.000000 C 17004.000000 -1500.000000 17022.000000 -1491.000000 17040.000000 -1482.000000 C 17018.000000 -1436.000000 16993.666667 -1386.666667 16967.000000 -1334.000000 C 16940.333333 -1282.000000 16913.000000 -1231.333333 16885.000000 -1182.000000 C 16857.666667 -1132.666667 16831.333333 -1088.666667 16806.000000 -1050.000000 C 16791.333333 -1057.666667 16776.666667 -1065.333333 16762.000000 -1073.000000 C 16787.333333 -1111.666667 16813.666667 -1156.333333 16841.000000 -1207.000000 C 16869.000000 -1258.333333 16895.666667 -1311.000000 16921.000000 -1365.000000 C 16946.333333 -1419.000000 16968.000000 -1467.000000 16986.000000 -1509.000000z M 15934.000000 -1588.000000 C 15952.666667 -1582.666667 15971.333333 -1577.333333 15990.000000 -1572.000000 C 15946.000000 -1464.666667 15895.666667 -1360.333333 15839.000000 -1259.000000 C 15782.333333 -1158.333333 15721.333333 -1064.000000 15656.000000 -976.000000 C 15590.666667 -888.666667 15523.333333 -809.666667 15454.000000 -739.000000 C 15451.333333 -743.000000 15447.333333 -748.000000 15442.000000 -754.000000 C 15437.333333 -760.666667 15432.333333 -766.666667 15427.000000 -772.000000 C 15422.333333 -778.000000 15417.333333 -783.000000 15412.000000 -787.000000 C 15481.333333 -852.333333 15548.000000 -927.333333 15612.000000 -1012.000000 C 15676.000000 -1097.333333 15735.666667 -1189.000000 15791.000000 -1287.000000 C 15847.000000 -1385.000000 15894.666667 -1485.333333 15934.000000 -1588.000000z M 15719.000000 -1129.000000 C 15737.000000 -1147.000000 15755.000000 -1165.000000 15773.000000 -1183.000000 C 15774.333333 -1182.333333 15775.666667 -1181.666667 15777.000000 -1181.000000 C 15777.000000 -743.666667 15777.000000 -306.333333 15777.000000 131.000000 C 15757.666667 131.000000 15738.333333 131.000000 15719.000000 131.000000 C 15719.000000 -289.000000 15719.000000 -709.000000 15719.000000 -1129.000000z "/>
</g></svg>
