<?xml version="1.0" ?>
<svg xmlns="http://www.w3.org/2000/svg" version="1.1" width="600" height="600">
  <defs/>
  <g>
    <path stroke-width="0" fill="rgb(0, 0, 0)" opacity="1.0" d="M 163.09780883789062 264.33294677734375 C 162.5947265625 264.8006591796875 161.78982543945312 265.55242919921875 160.68307495117188 266.588134765625 C 159.5762939453125 267.5904541015625 158.77139282226562 268.325439453125 158.268310546875 268.793212890625 C 156.52432250976562 270.3968505859375 154.361083984375 272.30126953125 151.77865600585938 274.50634765625 C 149.229736328125 276.71142578125 146.51312255859375 278.9832763671875 143.62884521484375 281.322021484375 C 140.778076171875 283.66070556640625 138.01116943359375 285.9158935546875 135.328125 288.0875244140625 C 132.64505004882812 290.225830078125 130.34768676757812 292.0968017578125 128.43600463867188 293.700439453125 C 126.28955078125 295.5714111328125 124.83062744140625 297.1417236328125 124.05926513671875 298.4112548828125 C 123.28787231445312 299.6474609375 123.30462646484375 300.8836669921875 124.10955810546875 302.11981201171875 C 124.91448974609375 303.35595703125 126.50753784179688 304.97637939453125 128.88876342773438 306.98095703125 C 130.9681396484375 308.6514892578125 133.23196411132812 310.489013671875 135.68026733398438 312.49365234375 C 138.12857055664062 314.46484375 140.6439208984375 316.552978515625 143.22637939453125 318.758056640625 C 145.84237670898438 320.963134765625 148.47512817382812 323.2349853515625 151.1246337890625 325.57373046875 C 153.774169921875 327.8790283203125 156.33984375 330.2010498046875 158.82168579101562 332.53973388671875 C 161.30352783203125 334.87841796875 163.60089111328125 337.1336669921875 165.71380615234375 339.3052978515625 C 164.8753662109375 340.040283203125 164.03689575195312 340.775390625 163.19842529296875 341.5103759765625 C 161.85690307617188 339.9735107421875 160.2470703125 338.26959228515625 158.36892700195312 336.39862060546875 C 156.4237060546875 334.4942626953125 154.0927734375 332.305908203125 151.37619018554688 329.83349609375 C 148.693115234375 327.3612060546875 145.859130859375 324.8387451171875 142.87423706054688 322.26611328125 C 139.88931274414062 319.66015625 136.9547119140625 317.1544189453125 134.0704345703125 314.74884033203125 C 131.21966552734375 312.34332275390625 128.63723754882812 310.205078125 126.32308959960938 308.3341064453125 C 123.40524291992188 305.96197509765625 121.57742309570312 303.940673828125 120.83956909179688 302.2701416015625 C 120.10174560546875 300.59967041015625 120.25265502929688 298.94586181640625 121.29232788085938 297.3087158203125 C 122.36557006835938 295.671630859375 124.19342041015625 293.76727294921875 126.77584838867188 291.5955810546875 C 128.51983642578125 290.1256103515625 130.71661376953125 288.3214111328125 133.36611938476562 286.18316650390625 C 136.0491943359375 284.011474609375 138.84963989257812 281.722900390625 141.7674560546875 279.3173828125 C 144.71884155273438 276.911865234375 147.50250244140625 274.58984375 150.11849975585938 272.35137939453125 C 152.7344970703125 270.1129150390625 154.847412109375 268.125 156.45724487304688 266.3876953125 C 156.9603271484375 265.7862548828125 157.5975341796875 265.017822265625 158.36892700195312 264.0823974609375 C 159.14031982421875 263.11346435546875 159.69369506835938 262.3116455078125 160.029052734375 261.6768798828125 C 161.052001953125 262.56219482421875 162.07489013671875 263.44757080078125 163.09780883789062 264.33294677734375"/>
    <path stroke-width="0" fill="rgb(0, 0, 0)" opacity="1.0" d="M 249.928466796875 262.9296875 C 249.928466796875 263.0968017578125 249.8948974609375 263.44757080078125 249.82781982421875 263.982177734375 C 249.7607421875 264.4832763671875 249.71044921875 265.00115966796875 249.67691040039062 265.53570556640625 C 249.64337158203125 266.036865234375 249.6265869140625 266.437744140625 249.6265869140625 266.73846435546875 C 249.55953979492188 267.974609375 249.5260009765625 269.61175537109375 249.5260009765625 271.6497802734375 C 249.5260009765625 273.6544189453125 249.5260009765625 275.85943603515625 249.5260009765625 278.2650146484375 C 249.5260009765625 280.6705322265625 249.54275512695312 283.0927734375 249.5762939453125 285.53167724609375 C 249.60986328125 287.9705810546875 249.64337158203125 290.27587890625 249.67691040039062 292.44757080078125 C 249.71044921875 294.6192626953125 249.72723388671875 296.4735107421875 249.72723388671875 298.0103759765625 C 248.83843994140625 296.89111328125 247.94970703125 295.7718505859375 247.0609130859375 294.65264892578125 C 247.0609130859375 294.1514892578125 247.0609130859375 293.065673828125 247.0609130859375 291.3951416015625 C 247.0609130859375 289.72467041015625 247.04415893554688 287.72003173828125 247.0106201171875 285.38134765625 C 246.97708129882812 283.0426025390625 246.94354248046875 280.65380859375 246.91000366210938 278.21484375 C 246.87646484375 275.77587890625 246.84292602539062 273.5374755859375 246.80938720703125 271.4993896484375 C 246.77584838867188 269.427978515625 246.72552490234375 267.84100341796875 246.658447265625 266.73846435546875 C 246.658447265625 266.10369873046875 246.608154296875 265.3519287109375 246.50753784179688 264.4832763671875 C 246.40692138671875 263.6146240234375 246.32305908203125 263.0968017578125 246.25601196289062 262.9296875 C 247.48016357421875 262.9296875 248.70428466796875 262.9296875 249.928466796875 262.9296875M 201.93515014648438 277.7137451171875 C 204.31637573242188 277.6468505859375 207.0665283203125 277.5633544921875 210.18557739257812 277.463134765625 C 213.30462646484375 277.3294677734375 216.67523193359375 277.19586181640625 220.29736328125 277.06219482421875 C 223.95306396484375 276.9285888671875 227.72610473632812 276.8116455078125 231.61654663085938 276.71142578125 C 235.50698852539062 276.6112060546875 239.3638916015625 276.52764892578125 243.187255859375 276.4608154296875 C 247.04415893554688 276.39404296875 250.7501220703125 276.360595703125 254.30517578125 276.360595703125 C 257.69256591796875 276.360595703125 260.8116149902344 276.3773193359375 263.6623840332031 276.41070556640625 C 266.54669189453125 276.444091796875 269.0955810546875 276.4608154296875 271.3091125488281 276.4608154296875 C 273.5561828613281 276.4608154296875 275.484619140625 276.4775390625 277.094482421875 276.510986328125 C 278.70428466796875 276.5443115234375 279.978759765625 276.56103515625 280.9178466796875 276.56103515625 C 280.9178466796875 277.52996826171875 280.9178466796875 278.49884033203125 280.9178466796875 279.4677734375 C 278.53662109375 279.3341064453125 275.28338623046875 279.23388671875 271.158203125 279.16705322265625 C 267.0665283203125 279.1002197265625 261.46563720703125 279.06683349609375 254.35549926757812 279.06683349609375 C 250.4315185546875 279.06683349609375 246.2056884765625 279.1002197265625 241.67803955078125 279.16705322265625 C 237.15036010742188 279.23388671875 232.50531005859375 279.350830078125 227.74285888671875 279.517822265625 C 223.01397705078125 279.6849365234375 218.43600463867188 279.902099609375 214.00894165039062 280.1693115234375 C 209.61541748046875 280.4031982421875 205.62435913085938 280.687255859375 202.0357666015625 281.02130126953125 C 202.00222778320312 279.91876220703125 201.96868896484375 278.8162841796875 201.93515014648438 277.7137451171875M 250.98492431640625 305.126708984375 C 250.98492431640625 308.4677734375 250.36444091796875 311.274169921875 249.12353515625 313.54608154296875 C 247.9161376953125 315.7845458984375 246.33984375 317.4718017578125 244.3946533203125 318.60772705078125 C 242.48297119140625 319.71026611328125 240.43710327148438 320.26153564453125 238.25714111328125 320.26153564453125 C 236.0771484375 320.26153564453125 234.06484985351562 319.944091796875 232.22021484375 319.309326171875 C 230.3756103515625 318.674560546875 228.76580810546875 317.72235107421875 227.39071655273438 316.4527587890625 C 226.0491943359375 315.1497802734375 225.009521484375 313.59619140625 224.27166748046875 311.79205322265625 C 223.5338134765625 309.9879150390625 223.16488647460938 307.93316650390625 223.16488647460938 305.62786865234375 C 223.16488647460938 302.88824462890625 223.83566284179688 300.36578369140625 225.17718505859375 298.06048583984375 C 226.55224609375 295.7218017578125 228.36334228515625 293.8341064453125 230.61041259765625 292.3974609375 C 232.85748291015625 290.9608154296875 235.30575561523438 290.2425537109375 237.95526123046875 290.2425537109375 C 241.24203491210938 290.2425537109375 243.94186401367188 290.9775390625 246.05477905273438 292.44757080078125 C 248.20123291015625 293.9176025390625 249.7943115234375 295.97235107421875 250.833984375 298.61175537109375 C 251.9072265625 301.25115966796875 252.44381713867188 304.29150390625 252.44381713867188 307.73272705078125 C 252.44381713867188 311.07373046875 252.0413818359375 314.3646240234375 251.2364501953125 317.60540771484375 C 250.4315185546875 320.84619140625 249.0396728515625 323.9366455078125 247.0609130859375 326.876708984375 C 245.11572265625 329.783447265625 242.4158935546875 332.43951416015625 238.96142578125 334.84503173828125 C 235.54052734375 337.2506103515625 231.14703369140625 339.28857421875 225.7808837890625 340.9591064453125 C 224.8753662109375 340.1572265625 223.96981811523438 339.35540771484375 223.06427001953125 338.5535888671875 C 227.79318237304688 337.38421630859375 231.81777954101562 335.864013671875 235.1380615234375 333.9930419921875 C 238.49188232421875 332.0887451171875 241.22528076171875 329.8502197265625 243.33819580078125 327.27764892578125 C 245.484619140625 324.705078125 247.04415893554688 321.831787109375 248.01678466796875 318.6578369140625 C 249.02291870117188 315.48388671875 249.5260009765625 312.0426025390625 249.5260009765625 308.3341064453125 C 249.5260009765625 302.754638671875 248.41925048828125 298.7955322265625 246.2056884765625 296.456787109375 C 243.9921875 294.1180419921875 241.30911254882812 292.94873046875 238.156494140625 292.94873046875 C 236.0435791015625 292.94873046875 234.06484985351562 293.5 232.22021484375 294.6025390625 C 230.3756103515625 295.671630859375 228.8831787109375 297.158447265625 227.74285888671875 299.062744140625 C 226.6361083984375 300.9337158203125 226.08273315429688 303.12213134765625 226.08273315429688 305.62786865234375 C 226.08273315429688 309.47003173828125 227.27334594726562 312.4268798828125 229.654541015625 314.498291015625 C 232.0357666015625 316.5362548828125 234.90328979492188 317.5552978515625 238.25714111328125 317.5552978515625 C 240.77249145507812 317.5552978515625 242.85186767578125 316.9205322265625 244.4952392578125 315.65087890625 C 246.13861083984375 314.347900390625 247.3795166015625 312.54376220703125 248.218017578125 310.23846435546875 C 249.05645751953125 307.93316650390625 249.47567749023438 305.277099609375 249.47567749023438 302.2701416015625 C 249.978759765625 303.22235107421875 250.4818115234375 304.174560546875 250.98492431640625 305.126708984375M 264.0145263671875 261.8271484375 C 265.12127685546875 263.33062744140625 266.4292907714844 265.2349853515625 267.9385070800781 267.540283203125 C 269.44775390625 269.8455810546875 270.72216796875 271.9337158203125 271.7618713378906 273.8046875 C 270.82281494140625 274.2724609375 269.88372802734375 274.740234375 268.94464111328125 275.20794677734375 C 267.9385070800781 273.3035888671875 266.69757080078125 271.19873046875 265.221923828125 268.8934326171875 C 263.7797546386719 266.588134765625 262.488525390625 264.65032958984375 261.3482360839844 263.080078125 C 262.23699951171875 262.6624755859375 263.1257629394531 262.24481201171875 264.0145263671875 261.8271484375M 274.5791015625 259.62213134765625 C 275.6523132324219 261.0921630859375 276.9100036621094 262.9464111328125 278.3521728515625 265.1849365234375 C 279.82781982421875 267.3900146484375 281.13580322265625 269.47808837890625 282.276123046875 271.4493408203125 C 281.3203125 271.9337158203125 280.36444091796875 272.418212890625 279.4085998535156 272.90264892578125 C 278.368896484375 270.8646240234375 277.144775390625 268.74310302734375 275.73614501953125 266.53802490234375 C 274.361083984375 264.299560546875 273.06988525390625 262.411865234375 271.86248779296875 260.875 C 272.76800537109375 260.4573974609375 273.6735534667969 260.03973388671875 274.5791015625 259.62213134765625"/>
    <path stroke-width="0" fill="rgb(0, 0, 0)" opacity="1.0" d="M 321.0128173828125 263.3807373046875 C 320.84515380859375 264.55010986328125 320.727783203125 265.6192626953125 320.66070556640625 266.588134765625 C 320.5936279296875 267.52362060546875 320.52655029296875 268.642822265625 320.45947265625 269.94586181640625 C 320.39239501953125 272.7523193359375 320.2750244140625 276.2603759765625 320.1072998046875 280.47003173828125 C 319.93963623046875 284.6796875 319.80548095703125 289.1900634765625 319.704833984375 294.00115966796875 C 319.604248046875 298.81219482421875 319.503662109375 303.65667724609375 319.40301513671875 308.5345458984375 C 319.3359375 313.4124755859375 319.3023681640625 317.9228515625 319.3023681640625 322.065673828125 C 319.3023681640625 325.8743896484375 320.07379150390625 328.93145751953125 321.6165771484375 331.23675537109375 C 323.1593017578125 333.54205322265625 325.3057861328125 335.2125244140625 328.055908203125 336.248291015625 C 330.839599609375 337.2506103515625 334.04248046875 337.751708984375 337.66461181640625 337.751708984375 C 342.494140625 337.751708984375 346.78704833984375 337.16705322265625 350.5433349609375 335.9976806640625 C 354.299560546875 334.794921875 357.6031494140625 333.224609375 360.453857421875 331.286865234375 C 363.33819580078125 329.315673828125 365.853515625 327.14404296875 368.0 324.7718505859375 C 370.17999267578125 322.3997802734375 372.1419677734375 320.02764892578125 373.885986328125 317.655517578125 C 374.59027099609375 318.4573974609375 375.2945556640625 319.25921630859375 375.9989013671875 320.06103515625 C 374.2548828125 322.299560546875 372.20904541015625 324.62158203125 369.861328125 327.027099609375 C 367.513671875 329.4326171875 364.78033447265625 331.6544189453125 361.6612548828125 333.6923828125 C 358.57574462890625 335.697021484375 355.02069091796875 337.3173828125 350.99609375 338.5535888671875 C 346.97149658203125 339.8231201171875 342.42706298828125 340.45794677734375 337.36279296875 340.45794677734375 C 333.3717041015625 340.45794677734375 329.79986572265625 339.8565673828125 326.64727783203125 338.65380859375 C 323.49468994140625 337.48443603515625 320.99609375 335.49658203125 319.1514892578125 332.6900634765625 C 317.306884765625 329.8502197265625 316.38458251953125 325.924560546875 316.38458251953125 320.91302490234375 C 316.38458251953125 317.7724609375 316.4180908203125 314.3980712890625 316.48516845703125 310.78973388671875 C 316.55224609375 307.1480712890625 316.65289306640625 303.43951416015625 316.78704833984375 299.6641845703125 C 316.921142578125 295.8887939453125 317.02178955078125 292.197021484375 317.0888671875 288.5887451171875 C 317.189453125 284.947021484375 317.2733154296875 281.5224609375 317.34039306640625 278.3150634765625 C 317.407470703125 275.10772705078125 317.4410400390625 272.3179931640625 317.4410400390625 269.94586181640625 C 317.4410400390625 268.642822265625 317.407470703125 267.456787109375 317.34039306640625 266.3876953125 C 317.2733154296875 265.28515625 317.15594482421875 264.2828369140625 316.98828125 263.3807373046875 C 318.32977294921875 263.3807373046875 319.67132568359375 263.3807373046875 321.0128173828125 263.3807373046875"/>
    <path stroke-width="0" fill="rgb(0, 0, 0)" opacity="1.0" d="M 435.5628662109375 260.2235107421875 C 433.6512451171875 263.2972412109375 431.202880859375 266.5714111328125 428.218017578125 270.04608154296875 C 425.2666015625 273.4873046875 421.94635009765625 276.96197509765625 418.257080078125 280.47003173828125 C 414.6014404296875 283.9781494140625 410.71099853515625 287.3525390625 406.5858154296875 290.59332275390625 C 402.494140625 293.8341064453125 398.318603515625 296.7574462890625 394.0592041015625 299.36346435546875 C 393.92510986328125 299.129638671875 393.7574462890625 298.8790283203125 393.55615234375 298.61175537109375 C 393.35498046875 298.344482421875 393.136962890625 298.0938720703125 392.9022216796875 297.8599853515625 C 392.700927734375 297.5927734375 392.4661865234375 297.35888671875 392.1978759765625 297.158447265625 C 396.45721435546875 294.5858154296875 400.6495361328125 291.69586181640625 404.77471923828125 288.48846435546875 C 408.89990234375 285.2811279296875 412.80712890625 281.90667724609375 416.496337890625 278.365234375 C 420.2191162109375 274.790283203125 423.57293701171875 271.2154541015625 426.557861328125 267.64056396484375 C 429.542724609375 264.0322265625 432.0078125 260.5576171875 433.9530029296875 257.216552734375 C 434.85858154296875 257.216552734375 435.76409912109375 257.216552734375 436.669677734375 257.216552734375 C 439.1514892578125 260.6912841796875 442.0860595703125 264.2493896484375 445.47344970703125 267.89111328125 C 448.86083984375 271.4993896484375 452.5164794921875 275.0408935546875 456.4404296875 278.51556396484375 C 460.36444091796875 281.956787109375 464.35546875 285.19757080078125 468.41363525390625 288.2379150390625 C 472.4718017578125 291.24481201171875 476.3790283203125 293.86749267578125 480.13525390625 296.10595703125 C 479.7999267578125 296.373291015625 479.43096923828125 296.74078369140625 479.02850341796875 297.20849609375 C 478.6595458984375 297.642822265625 478.3409423828125 298.04376220703125 478.0726318359375 298.4112548828125 C 474.2828369140625 296.10595703125 470.3756103515625 293.43316650390625 466.35107421875 290.392822265625 C 462.326416015625 287.3525390625 458.38568115234375 284.12841796875 454.52880859375 280.7205810546875 C 450.7054443359375 277.312744140625 447.1671142578125 273.87158203125 443.9139404296875 270.3968505859375 C 440.6942138671875 266.8887939453125 437.9105224609375 263.4976806640625 435.5628662109375 260.2235107421875M 414.53436279296875 288.38824462890625 C 429.02294921875 288.38824462890625 443.511474609375 288.38824462890625 458.0 288.38824462890625 C 458.0 289.357177734375 458.0 290.3260498046875 458.0 291.294921875 C 443.511474609375 291.294921875 429.02294921875 291.294921875 414.53436279296875 291.294921875 C 414.53436279296875 290.3260498046875 414.53436279296875 289.357177734375 414.53436279296875 288.38824462890625M 402.863037109375 306.3294677734375 C 423.338134765625 306.3294677734375 443.81329345703125 306.3294677734375 464.2884521484375 306.3294677734375 C 464.2884521484375 307.28167724609375 464.2884521484375 308.23388671875 464.2884521484375 309.18603515625 C 443.81329345703125 309.18603515625 423.338134765625 309.18603515625 402.863037109375 309.18603515625 C 402.863037109375 308.23388671875 402.863037109375 307.28167724609375 402.863037109375 306.3294677734375M 463.28228759765625 306.3294677734375 C 463.449951171875 306.3294677734375 463.61767578125 306.3294677734375 463.78533935546875 306.3294677734375 C 463.986572265625 306.229248046875 464.18780517578125 306.1290283203125 464.3890380859375 306.02880859375 C 465.0933837890625 306.312744140625 465.797607421875 306.5968017578125 466.501953125 306.8807373046875 C 465.0262451171875 310.02130126953125 463.23193359375 313.77996826171875 461.1190185546875 318.15667724609375 C 459.0396728515625 322.5 456.8428955078125 326.96026611328125 454.52880859375 331.5374755859375 C 452.214599609375 336.0811767578125 450.01788330078125 340.3076171875 447.9384765625 344.216552734375 C 446.99945068359375 343.9326171875 446.06036376953125 343.64862060546875 445.121337890625 343.3646240234375 C 446.73114013671875 340.45794677734375 448.3912353515625 337.3341064453125 450.10174560546875 333.9930419921875 C 451.81219482421875 330.61865234375 453.505859375 327.2442626953125 455.1827392578125 323.86981201171875 C 456.8597412109375 320.495361328125 458.38568115234375 317.338134765625 459.7607421875 314.3980712890625 C 461.16937255859375 311.424560546875 462.34320068359375 308.9188232421875 463.28228759765625 306.8807373046875 C 463.28228759765625 306.697021484375 463.28228759765625 306.51324462890625 463.28228759765625 306.3294677734375"/>
  </g>
</svg>
