<?xml version="1.0" encoding="utf-8"?>
<svg xmlns="http://www.w3.org/2000/svg" xmlns:ev="http://www.w3.org/2001/xml-events" xmlns:xlink="http://www.w3.org/1999/xlink" version="1.1" baseProfile="full" width="20873.0" height="1742.0" viewBox="84.0 -1596.0 20873.0 1742.0">
<defs/>
<g><path d="M 16652.000000 -1269.000000 C 16652.000000 -1224.333333 16652.000000 -1175.666667 16652.000000 -1123.000000 C 16652.000000 -1070.333333 16652.000000 -1018.666667 16652.000000 -968.000000 C 16652.000000 -918.000000 16652.000000 -873.000000 16652.000000 -833.000000 C 16652.000000 -779.666667 16653.333333 -721.333333 16656.000000 -658.000000 C 16658.666667 -594.666667 16661.333333 -531.333333 16664.000000 -468.000000 C 16667.333333 -405.333333 16670.333333 -347.666667 16673.000000 -295.000000 C 16675.666667 -243.000000 16677.000000 -200.333333 16677.000000 -167.000000 C 16677.000000 -96.333333 16651.666667 -43.333333 16601.000000 -8.000000 C 16550.333333 26.666667 16484.333333 44.000000 16403.000000 44.000000 C 16336.333333 44.000000 16277.666667 35.000000 16227.000000 17.000000 C 16176.333333 -1.000000 16137.000000 -27.000000 16109.000000 -61.000000 C 16081.000000 -95.666667 16067.000000 -138.666667 16067.000000 -190.000000 C 16067.000000 -224.666667 16077.666667 -259.333333 16099.000000 -294.000000 C 16121.000000 -328.666667 16157.000000 -357.333333 16207.000000 -380.000000 C 16257.000000 -403.333333 16323.333333 -415.000000 16406.000000 -415.000000 C 16480.666667 -415.000000 16550.333333 -407.333333 16615.000000 -392.000000 C 16679.666667 -376.666667 16739.666667 -355.666667 16795.000000 -329.000000 C 16851.000000 -303.000000 16903.666667 -272.333333 16953.000000 -237.000000 C 17002.333333 -201.666667 17048.666667 -165.000000 17092.000000 -127.000000 C 17079.666667 -107.000000 17067.333333 -87.000000 17055.000000 -67.000000 C 16995.000000 -129.666667 16930.000000 -183.000000 16860.000000 -227.000000 C 16790.666667 -271.666667 16717.666667 -305.333333 16641.000000 -328.000000 C 16565.000000 -351.333333 16486.666667 -363.000000 16406.000000 -363.000000 C 16323.333333 -363.000000 16255.000000 -347.000000 16201.000000 -315.000000 C 16147.000000 -283.000000 16120.000000 -241.333333 16120.000000 -190.000000 C 16120.000000 -130.000000 16146.000000 -85.000000 16198.000000 -55.000000 C 16250.000000 -25.000000 16319.333333 -10.000000 16406.000000 -10.000000 C 16468.666667 -10.000000 16515.333333 -19.333333 16546.000000 -38.000000 C 16577.333333 -57.333333 16598.333333 -83.000000 16609.000000 -115.000000 C 16619.666667 -147.000000 16625.000000 -181.666667 16625.000000 -219.000000 C 16625.000000 -244.333333 16623.666667 -280.666667 16621.000000 -328.000000 C 16619.000000 -375.333333 16616.000000 -428.000000 16612.000000 -486.000000 C 16608.000000 -544.666667 16604.666667 -603.666667 16602.000000 -663.000000 C 16599.333333 -723.000000 16598.000000 -778.000000 16598.000000 -828.000000 C 16598.000000 -867.333333 16598.000000 -913.333333 16598.000000 -966.000000 C 16598.000000 -1019.333333 16598.000000 -1073.333333 16598.000000 -1128.000000 C 16598.000000 -1182.666667 16598.000000 -1229.666667 16598.000000 -1269.000000 C 16616.000000 -1269.000000 16634.000000 -1269.000000 16652.000000 -1269.000000z M 16107.000000 -860.000000 C 16217.000000 -852.666667 16328.000000 -849.333333 16440.000000 -850.000000 C 16552.000000 -851.333333 16659.666667 -856.000000 16763.000000 -864.000000 C 16867.000000 -872.000000 16960.000000 -880.333333 17042.000000 -889.000000 C 17042.000000 -869.000000 17042.000000 -849.000000 17042.000000 -829.000000 C 16962.666667 -821.666667 16870.333333 -814.333333 16765.000000 -807.000000 C 16660.333333 -800.333333 16551.333333 -796.000000 16438.000000 -794.000000 C 16324.666667 -792.000000 16214.333333 -794.333333 16107.000000 -801.000000 C 16107.000000 -820.666667 16107.000000 -840.333333 16107.000000 -860.000000z M 16138.000000 -1302.000000 C 16227.333333 -1295.333333 16320.333333 -1292.333333 16417.000000 -1293.000000 C 16513.666667 -1293.666667 16607.333333 -1297.000000 16698.000000 -1303.000000 C 16789.333333 -1309.666667 16870.000000 -1317.666667 16940.000000 -1327.000000 C 16940.000000 -1307.666667 16940.000000 -1288.333333 16940.000000 -1269.000000 C 16870.666667 -1263.000000 16790.666667 -1257.000000 16700.000000 -1251.000000 C 16609.333333 -1245.000000 16515.333333 -1241.333333 16418.000000 -1240.000000 C 16320.666667 -1238.666667 16227.333333 -1240.000000 16138.000000 -1244.000000 C 16138.000000 -1263.333333 16138.000000 -1282.666667 16138.000000 -1302.000000z M 15740.000000 -1400.000000 C 15737.333333 -1392.000000 15734.666667 -1383.333333 15732.000000 -1374.000000 C 15730.000000 -1365.333333 15728.000000 -1356.000000 15726.000000 -1346.000000 C 15724.000000 -1336.666667 15721.666667 -1326.333333 15719.000000 -1315.000000 C 15710.333333 -1269.000000 15701.000000 -1220.000000 15691.000000 -1168.000000 C 15681.666667 -1116.666667 15672.666667 -1063.333333 15664.000000 -1008.000000 C 15656.000000 -952.666667 15648.666667 -897.333333 15642.000000 -842.000000 C 15636.000000 -787.333333 15631.000000 -733.333333 15627.000000 -680.000000 C 15623.000000 -627.333333 15621.000000 -577.333333 15621.000000 -530.000000 C 15621.000000 -456.000000 15623.333333 -387.666667 15628.000000 -325.000000 C 15633.333333 -263.000000 15640.666667 -194.333333 15650.000000 -119.000000 C 15661.333333 -155.000000 15675.000000 -196.000000 15691.000000 -242.000000 C 15707.000000 -288.000000 15723.333333 -333.000000 15740.000000 -377.000000 C 15756.666667 -421.666667 15771.333333 -459.333333 15784.000000 -490.000000 C 15797.000000 -479.000000 15810.000000 -468.000000 15823.000000 -457.000000 C 15809.000000 -422.333333 15792.666667 -379.666667 15774.000000 -329.000000 C 15755.333333 -278.333333 15738.000000 -229.000000 15722.000000 -181.000000 C 15706.000000 -133.000000 15694.666667 -95.000000 15688.000000 -67.000000 C 15685.333333 -54.333333 15683.000000 -40.666667 15681.000000 -26.000000 C 15679.666667 -11.333333 15679.666667 2.333333 15681.000000 15.000000 C 15682.333333 24.333333 15683.333333 34.000000 15684.000000 44.000000 C 15685.333333 54.666667 15686.666667 63.000000 15688.000000 69.000000 C 15670.333333 71.000000 15652.666667 73.000000 15635.000000 75.000000 C 15615.666667 3.000000 15599.000000 -83.000000 15585.000000 -183.000000 C 15571.666667 -283.666667 15565.000000 -398.666667 15565.000000 -528.000000 C 15565.000000 -597.333333 15568.666667 -669.333333 15576.000000 -744.000000 C 15584.000000 -818.666667 15593.333333 -892.000000 15604.000000 -964.000000 C 15615.333333 -1036.666667 15626.000000 -1104.000000 15636.000000 -1166.000000 C 15646.666667 -1228.666667 15655.000000 -1281.000000 15661.000000 -1323.000000 C 15663.666667 -1341.000000 15665.666667 -1357.000000 15667.000000 -1371.000000 C 15668.333333 -1385.000000 15669.000000 -1397.000000 15669.000000 -1407.000000 C 15692.666667 -1404.666667 15716.333333 -1402.333333 15740.000000 -1400.000000z M 16913.000000 -1463.000000 C 16925.000000 -1441.000000 16939.000000 -1413.666667 16955.000000 -1381.000000 C 16971.000000 -1348.333333 16986.666667 -1315.000000 17002.000000 -1281.000000 C 17017.333333 -1247.666667 17030.000000 -1217.333333 17040.000000 -1190.000000 C 17020.000000 -1182.333333 17000.000000 -1174.666667 16980.000000 -1167.000000 C 16971.333333 -1195.666667 16959.666667 -1226.666667 16945.000000 -1260.000000 C 16930.333333 -1294.000000 16915.666667 -1327.666667 16901.000000 -1361.000000 C 16886.333333 -1394.333333 16872.666667 -1422.666667 16860.000000 -1446.000000 C 16877.666667 -1451.666667 16895.333333 -1457.333333 16913.000000 -1463.000000z M 17101.000000 -1523.000000 C 17114.333333 -1501.000000 17128.666667 -1473.666667 17144.000000 -1441.000000 C 17159.333333 -1408.333333 17174.666667 -1375.000000 17190.000000 -1341.000000 C 17205.333333 -1307.000000 17218.000000 -1276.666667 17228.000000 -1250.000000 C 17208.333333 -1242.333333 17188.666667 -1234.666667 17169.000000 -1227.000000 C 17152.333333 -1270.333333 17132.666667 -1318.666667 17110.000000 -1372.000000 C 17087.333333 -1425.333333 17066.000000 -1468.333333 17046.000000 -1501.000000 C 17064.333333 -1508.333333 17082.666667 -1515.666667 17101.000000 -1523.000000z "/>
</g></svg>
