<?xml version="1.0" encoding="utf-8"?>
<svg xmlns="http://www.w3.org/2000/svg" xmlns:ev="http://www.w3.org/2001/xml-events" xmlns:xlink="http://www.w3.org/1999/xlink" version="1.1" baseProfile="full" width="20873.0" height="1742.0" viewBox="84.0 -1596.0 20873.0 1742.0">
<defs/>
<g><path d="M 13388.000000 -192.000000 C 13330.666667 -130.666667 13272.000000 -85.666667 13212.000000 -57.000000 C 13152.666667 -29.000000 13096.666667 -15.000000 13044.000000 -15.000000 C 12989.333333 -15.000000 12944.666667 -31.000000 12910.000000 -63.000000 C 12875.333333 -95.000000 12858.000000 -143.666667 12858.000000 -209.000000 C 12858.000000 -264.333333 12861.666667 -325.333333 12869.000000 -392.000000 C 12877.000000 -459.333333 12885.666667 -528.666667 12895.000000 -600.000000 C 12905.000000 -671.333333 12913.666667 -739.000000 12921.000000 -803.000000 C 12929.000000 -867.666667 12933.000000 -925.000000 12933.000000 -975.000000 C 12933.000000 -1039.000000 12917.333333 -1084.333333 12886.000000 -1111.000000 C 12854.666667 -1138.333333 12811.000000 -1152.000000 12755.000000 -1152.000000 C 12709.666667 -1152.000000 12659.333333 -1140.666667 12604.000000 -1118.000000 C 12549.333333 -1096.000000 12492.666667 -1065.000000 12434.000000 -1025.000000 C 12375.333333 -985.666667 12317.000000 -939.666667 12259.000000 -887.000000 C 12201.666667 -834.333333 12146.666667 -778.000000 12094.000000 -718.000000 C 12096.666667 -746.333333 12099.333333 -774.666667 12102.000000 -803.000000 C 12126.000000 -829.666667 12157.000000 -860.333333 12195.000000 -895.000000 C 12233.000000 -930.333333 12275.333333 -966.333333 12322.000000 -1003.000000 C 12368.666667 -1039.666667 12417.000000 -1073.333333 12467.000000 -1104.000000 C 12517.666667 -1134.666667 12568.000000 -1159.333333 12618.000000 -1178.000000 C 12668.000000 -1196.666667 12714.666667 -1206.000000 12758.000000 -1206.000000 C 12809.333333 -1206.000000 12852.333333 -1197.333333 12887.000000 -1180.000000 C 12921.666667 -1162.666667 12948.000000 -1136.666667 12966.000000 -1102.000000 C 12984.000000 -1067.333333 12993.000000 -1025.000000 12993.000000 -975.000000 C 12993.000000 -929.000000 12988.666667 -873.000000 12980.000000 -807.000000 C 12972.000000 -741.000000 12962.666667 -672.000000 12952.000000 -600.000000 C 12942.000000 -528.000000 12932.666667 -458.666667 12924.000000 -392.000000 C 12916.000000 -325.333333 12912.000000 -268.333333 12912.000000 -221.000000 C 12912.000000 -181.000000 12922.000000 -146.000000 12942.000000 -116.000000 C 12962.000000 -86.000000 12994.333333 -71.000000 13039.000000 -71.000000 C 13095.000000 -71.000000 13150.333333 -86.333333 13205.000000 -117.000000 C 13260.333333 -147.666667 13315.666667 -192.666667 13371.000000 -252.000000 C 13376.666667 -232.000000 13382.333333 -212.000000 13388.000000 -192.000000z M 12134.000000 -1114.000000 C 12125.333333 -1112.666667 12105.333333 -1109.666667 12074.000000 -1105.000000 C 12042.666667 -1100.333333 12005.666667 -1095.000000 11963.000000 -1089.000000 C 11921.000000 -1083.666667 11877.333333 -1077.666667 11832.000000 -1071.000000 C 11786.666667 -1065.000000 11744.000000 -1058.666667 11704.000000 -1052.000000 C 11701.666667 -1075.000000 11699.333333 -1098.000000 11697.000000 -1121.000000 C 11712.333333 -1119.666667 11727.000000 -1119.333333 11741.000000 -1120.000000 C 11755.000000 -1120.666667 11768.333333 -1121.666667 11781.000000 -1123.000000 C 11803.000000 -1124.333333 11831.666667 -1127.000000 11867.000000 -1131.000000 C 11903.000000 -1135.000000 11941.333333 -1139.000000 11982.000000 -1143.000000 C 12023.333333 -1147.666667 12062.666667 -1153.000000 12100.000000 -1159.000000 C 12137.333333 -1165.666667 12167.333333 -1173.000000 12190.000000 -1181.000000 C 12201.666667 -1170.000000 12213.333333 -1159.000000 12225.000000 -1148.000000 C 12213.000000 -1130.000000 12200.666667 -1110.333333 12188.000000 -1089.000000 C 12175.333333 -1068.333333 12162.666667 -1047.000000 12150.000000 -1025.000000 C 12137.333333 -1003.666667 12125.666667 -983.333333 12115.000000 -964.000000 C 12113.000000 -909.666667 12111.000000 -855.333333 12109.000000 -801.000000 C 12086.333333 -762.333333 12058.333333 -718.333333 12025.000000 -669.000000 C 11991.666667 -619.666667 11956.000000 -567.666667 11918.000000 -513.000000 C 11880.666667 -459.000000 11842.333333 -404.333333 11803.000000 -349.000000 C 11764.333333 -294.333333 11727.666667 -242.666667 11693.000000 -194.000000 C 11678.333333 -211.333333 11663.666667 -228.666667 11649.000000 -246.000000 C 11671.666667 -275.333333 11700.333333 -313.000000 11735.000000 -359.000000 C 11769.666667 -405.000000 11806.000000 -454.666667 11844.000000 -508.000000 C 11882.666667 -561.333333 11920.333333 -613.666667 11957.000000 -665.000000 C 11993.666667 -717.000000 12025.333333 -763.333333 12052.000000 -804.000000 C 12078.666667 -845.333333 12097.333333 -876.333333 12108.000000 -897.000000 C 12111.666667 -946.000000 12115.333333 -995.000000 12119.000000 -1044.000000 C 12124.000000 -1067.333333 12129.000000 -1090.666667 12134.000000 -1114.000000z M 12121.000000 -1379.000000 C 12121.000000 -1395.666667 12120.666667 -1414.000000 12120.000000 -1434.000000 C 12119.333333 -1454.666667 12117.666667 -1474.000000 12115.000000 -1492.000000 C 12142.000000 -1490.666667 12169.000000 -1489.333333 12196.000000 -1488.000000 C 12192.000000 -1468.666667 12186.666667 -1431.666667 12180.000000 -1377.000000 C 12174.000000 -1323.000000 12167.666667 -1258.000000 12161.000000 -1182.000000 C 12155.000000 -1106.000000 12149.000000 -1025.333333 12143.000000 -940.000000 C 12137.000000 -854.666667 12132.000000 -770.666667 12128.000000 -688.000000 C 12124.666667 -605.333333 12123.000000 -531.000000 12123.000000 -465.000000 C 12123.000000 -401.000000 12123.000000 -347.000000 12123.000000 -303.000000 C 12123.000000 -259.666667 12123.333333 -218.000000 12124.000000 -178.000000 C 12124.666667 -138.666667 12125.666667 -91.333333 12127.000000 -36.000000 C 12128.333333 -20.000000 12129.333333 -5.333333 12130.000000 8.000000 C 12130.666667 22.000000 12131.333333 36.000000 12132.000000 50.000000 C 12109.000000 50.000000 12086.000000 50.000000 12063.000000 50.000000 C 12065.666667 36.000000 12067.333333 22.000000 12068.000000 8.000000 C 12068.666667 -5.333333 12069.000000 -19.666667 12069.000000 -35.000000 C 12069.000000 -96.333333 12069.000000 -147.666667 12069.000000 -189.000000 C 12069.000000 -231.000000 12069.000000 -272.333333 12069.000000 -313.000000 C 12069.000000 -353.666667 12069.000000 -404.333333 12069.000000 -465.000000 C 12069.000000 -493.000000 12070.333333 -533.000000 12073.000000 -585.000000 C 12075.666667 -637.666667 12078.666667 -696.333333 12082.000000 -761.000000 C 12086.000000 -825.666667 12090.333333 -891.666667 12095.000000 -959.000000 C 12099.666667 -1026.333333 12103.666667 -1089.666667 12107.000000 -1149.000000 C 12111.000000 -1208.333333 12114.333333 -1258.333333 12117.000000 -1299.000000 C 12119.666667 -1340.333333 12121.000000 -1367.000000 12121.000000 -1379.000000z "/>
</g></svg>
