<?xml version="1.0" ?>
<svg xmlns="http://www.w3.org/2000/svg" version="1.1" width="600" height="600">
  <defs/>
  <g>
    <path stroke-width="0" fill="rgb(0, 0, 0)" opacity="1.0" d="M 129.4202880859375 243.08807373046875 C 244.6220703125 243.08807373046875 359.823974609375 243.08807373046875 475.02587890625 243.08807373046875 C 475.02587890625 246.95681762695312 475.02587890625 250.8255615234375 475.02587890625 254.69430541992188 C 359.823974609375 254.69430541992188 244.6220703125 254.69430541992188 129.4202880859375 254.69430541992188 C 129.4202880859375 250.8255615234375 129.4202880859375 246.95681762695312 129.4202880859375 243.08807373046875M 312.7900390625 247.4404296875 C 322.3212890625 281.1537170410156 334.89111328125 312.65631103515625 350.5 341.94818115234375 C 366.10888671875 371.24005126953125 384.7568359375 396.8013916015625 406.443359375 418.63214111328125 C 428.26806640625 440.32470703125 452.57958984375 457.18133544921875 479.376953125 469.20208740234375 C 478.27197265625 469.8929443359375 477.166748046875 470.92919921875 476.061767578125 472.3109130859375 C 475.0947265625 473.69256591796875 474.058837890625 474.93609619140625 472.953857421875 476.04144287109375 C 471.98681640625 477.28497314453125 471.089111328125 478.39031982421875 470.26025390625 479.3575439453125 C 443.1865234375 466.36962890625 418.66796875 448.6148681640625 396.705078125 426.09326171875 C 374.88037109375 403.5716552734375 356.025390625 377.38861083984375 340.14013671875 347.5440673828125 C 324.2548828125 317.699462890625 311.40869140625 285.36785888671875 301.6015625 250.54922485351562 C 305.3310546875 249.512939453125 309.060546875 248.4766845703125 312.7900390625 247.4404296875M 297.66455078125 122.05181884765625 C 301.6015625 122.05181884765625 305.5380859375 122.05181884765625 309.47509765625 122.05181884765625 C 309.47509765625 136.69775390625 308.99169921875 153.83074951171875 308.0244140625 173.45077514648438 C 307.19580078125 193.07080078125 305.19287109375 214.14163208007812 302.015869140625 236.6632080078125 C 298.8388671875 259.046630859375 293.58984375 281.84454345703125 286.268798828125 305.0570068359375 C 278.94775390625 328.2694091796875 268.72607421875 350.721923828125 255.6036376953125 372.41448974609375 C 242.481201171875 394.1070556640625 225.76708984375 414.27978515625 205.4617919921875 432.9326171875 C 185.1563720703125 451.44732666015625 160.292724609375 467.0604248046875 130.87060546875 479.77203369140625 C 129.90380859375 478.52850341796875 128.453369140625 477.0086669921875 126.51953125 475.21240234375 C 124.723876953125 473.554443359375 123.13525390625 472.1727294921875 121.75390625 471.0673828125 C 150.8997802734375 458.632080078125 175.5562744140625 443.4334716796875 195.7235107421875 425.47149658203125 C 215.890625 407.371337890625 232.3974609375 387.68218994140625 245.2437744140625 366.4041748046875 C 258.0899658203125 344.9879150390625 268.1044921875 322.880859375 275.287353515625 300.0828857421875 C 282.47021484375 277.14678955078125 287.5810546875 254.69430541992188 290.6201171875 232.72540283203125 C 293.658935546875 210.7564697265625 295.5927734375 190.30743408203125 296.42138671875 171.37823486328125 C 297.25048828125 152.31088256835938 297.66455078125 135.86871337890625 297.66455078125 122.05181884765625"/>
  </g>
</svg>
