<?xml version="1.0" encoding="utf-8"?>
<svg xmlns="http://www.w3.org/2000/svg" xmlns:ev="http://www.w3.org/2001/xml-events" xmlns:xlink="http://www.w3.org/1999/xlink" version="1.1" baseProfile="full" width="11171.0" height="1744.0" viewBox="190.0 -1596.0 11171.0 1744.0">
<defs/>
<g><path d="M 4441.000000 -1037.000000 C 4678.333333 -1037.000000 4915.666667 -1037.000000 5153.000000 -1037.000000 C 5153.000000 -1018.333333 5153.000000 -999.666667 5153.000000 -981.000000 C 4915.666667 -981.000000 4678.333333 -981.000000 4441.000000 -981.000000 C 4441.000000 -999.666667 4441.000000 -1018.333333 4441.000000 -1037.000000z M 3957.000000 29.000000 C 4519.000000 29.000000 5081.000000 29.000000 5643.000000 29.000000 C 5643.000000 47.333333 5643.000000 65.666667 5643.000000 84.000000 C 5081.000000 84.000000 4519.000000 84.000000 3957.000000 84.000000 C 3957.000000 65.666667 3957.000000 47.333333 3957.000000 29.000000z M 4074.000000 -1519.000000 C 4274.333333 -1519.000000 4474.666667 -1519.000000 4675.000000 -1519.000000 C 4675.000000 -1500.333333 4675.000000 -1481.666667 4675.000000 -1463.000000 C 4474.666667 -1463.000000 4274.333333 -1463.000000 4074.000000 -1463.000000 C 4074.000000 -1481.666667 4074.000000 -1500.333333 4074.000000 -1519.000000z M 4656.000000 -1519.000000 C 4659.333333 -1519.000000 4662.666667 -1519.000000 4666.000000 -1519.000000 C 4670.333333 -1520.333333 4674.666667 -1521.666667 4679.000000 -1523.000000 C 4691.333333 -1515.666667 4703.666667 -1508.333333 4716.000000 -1501.000000 C 4680.000000 -1411.666667 4633.000000 -1327.666667 4575.000000 -1249.000000 C 4517.666667 -1170.333333 4453.666667 -1098.333333 4383.000000 -1033.000000 C 4313.000000 -967.666667 4240.000000 -910.333333 4164.000000 -861.000000 C 4088.666667 -811.666667 4015.333333 -770.333333 3944.000000 -737.000000 C 3940.000000 -743.666667 3934.333333 -751.666667 3927.000000 -761.000000 C 3920.333333 -771.000000 3913.666667 -778.333333 3907.000000 -783.000000 C 3977.666667 -813.000000 4049.666667 -852.000000 4123.000000 -900.000000 C 4197.000000 -948.000000 4268.000000 -1003.333333 4336.000000 -1066.000000 C 4404.666667 -1128.666667 4466.666667 -1196.666667 4522.000000 -1270.000000 C 4578.000000 -1343.333333 4622.666667 -1421.000000 4656.000000 -1503.000000 C 4656.000000 -1508.333333 4656.000000 -1513.666667 4656.000000 -1519.000000z M 4867.000000 -1592.000000 C 4921.000000 -1479.333333 4990.333333 -1371.000000 5075.000000 -1267.000000 C 5160.333333 -1163.666667 5254.666667 -1071.666667 5358.000000 -991.000000 C 5462.000000 -910.333333 5569.000000 -848.000000 5679.000000 -804.000000 C 5674.333333 -800.666667 5669.333333 -796.333333 5664.000000 -791.000000 C 5658.666667 -785.666667 5653.666667 -780.000000 5649.000000 -774.000000 C 5645.000000 -768.666667 5641.000000 -763.333333 5637.000000 -758.000000 C 5528.333333 -806.666667 5422.000000 -872.666667 5318.000000 -956.000000 C 5214.666667 -1039.333333 5120.000000 -1133.666667 5034.000000 -1239.000000 C 4948.666667 -1345.000000 4877.666667 -1456.000000 4821.000000 -1572.000000 C 4836.333333 -1578.666667 4851.666667 -1585.333333 4867.000000 -1592.000000z M 4063.000000 -1321.000000 C 4073.666667 -1332.000000 4084.333333 -1343.000000 4095.000000 -1354.000000 C 4135.000000 -1332.000000 4174.666667 -1306.666667 4214.000000 -1278.000000 C 4254.000000 -1249.333333 4291.000000 -1219.666667 4325.000000 -1189.000000 C 4359.000000 -1159.000000 4385.333333 -1130.666667 4404.000000 -1104.000000 C 4394.000000 -1092.000000 4384.000000 -1080.000000 4374.000000 -1068.000000 C 4342.000000 -1106.000000 4296.666667 -1149.000000 4238.000000 -1197.000000 C 4180.000000 -1245.000000 4121.666667 -1286.333333 4063.000000 -1321.000000z M 5341.000000 -1580.000000 C 5357.000000 -1569.333333 5373.000000 -1558.666667 5389.000000 -1548.000000 C 5341.666667 -1499.333333 5286.333333 -1449.333333 5223.000000 -1398.000000 C 5159.666667 -1346.666667 5102.000000 -1302.333333 5050.000000 -1265.000000 C 5037.000000 -1275.333333 5024.000000 -1285.666667 5011.000000 -1296.000000 C 5045.666667 -1321.333333 5083.333333 -1350.666667 5124.000000 -1384.000000 C 5165.333333 -1417.333333 5205.000000 -1451.333333 5243.000000 -1486.000000 C 5281.666667 -1520.666667 5314.333333 -1552.000000 5341.000000 -1580.000000z M 5556.000000 -1352.000000 C 5571.666667 -1340.333333 5587.333333 -1328.666667 5603.000000 -1317.000000 C 5555.666667 -1269.666667 5499.666667 -1221.000000 5435.000000 -1171.000000 C 5370.333333 -1121.000000 5310.333333 -1078.666667 5255.000000 -1044.000000 C 5242.333333 -1054.333333 5229.666667 -1064.666667 5217.000000 -1075.000000 C 5252.333333 -1099.666667 5291.000000 -1128.000000 5333.000000 -1160.000000 C 5375.666667 -1192.000000 5416.666667 -1224.666667 5456.000000 -1258.000000 C 5496.000000 -1292.000000 5529.333333 -1323.333333 5556.000000 -1352.000000z M 4353.000000 -720.000000 C 4353.000000 -608.000000 4353.000000 -496.000000 4353.000000 -384.000000 C 4652.333333 -384.000000 4951.666667 -384.000000 5251.000000 -384.000000 C 5251.000000 -496.000000 5251.000000 -608.000000 5251.000000 -720.000000 C 4951.666667 -720.000000 4652.333333 -720.000000 4353.000000 -720.000000z M 4295.000000 -776.000000 C 4633.000000 -776.000000 4971.000000 -776.000000 5309.000000 -776.000000 C 5309.000000 -626.666667 5309.000000 -477.333333 5309.000000 -328.000000 C 4971.000000 -328.000000 4633.000000 -328.000000 4295.000000 -328.000000 C 4295.000000 -477.333333 4295.000000 -626.666667 4295.000000 -776.000000z M 4406.000000 -292.000000 C 4423.333333 -297.666667 4440.666667 -303.333333 4458.000000 -309.000000 C 4487.333333 -261.666667 4514.666667 -209.000000 4540.000000 -151.000000 C 4566.000000 -93.666667 4584.666667 -44.000000 4596.000000 -2.000000 C 4578.333333 5.000000 4560.666667 12.000000 4543.000000 19.000000 C 4531.000000 -23.000000 4512.666667 -73.333333 4488.000000 -132.000000 C 4463.333333 -191.333333 4436.000000 -244.666667 4406.000000 -292.000000z M 5149.000000 -319.000000 C 5167.666667 -310.000000 5186.333333 -301.000000 5205.000000 -292.000000 C 5177.000000 -236.666667 5147.000000 -180.000000 5115.000000 -122.000000 C 5083.000000 -64.000000 5052.333333 -13.000000 5023.000000 31.000000 C 5007.666667 22.666667 4992.333333 14.333333 4977.000000 6.000000 C 4997.000000 -22.000000 5018.000000 -55.333333 5040.000000 -94.000000 C 5062.000000 -132.666667 5082.333333 -171.666667 5101.000000 -211.000000 C 5120.333333 -251.000000 5136.333333 -287.000000 5149.000000 -319.000000z "/>
</g></svg>
