<?xml version="1.0" encoding="utf-8"?>
<svg xmlns="http://www.w3.org/2000/svg" xmlns:ev="http://www.w3.org/2001/xml-events" xmlns:xlink="http://www.w3.org/1999/xlink" version="1.1" baseProfile="full" width="49628.0" height="1744.0" viewBox="213.0 -1596.0 49628.0 1744.0">
<defs/>
<g><path d="M 28934.000000 -1494.000000 C 29168.333333 -1494.000000 29402.666667 -1494.000000 29637.000000 -1494.000000 C 29637.000000 -1475.333333 29637.000000 -1456.666667 29637.000000 -1438.000000 C 29402.666667 -1438.000000 29168.333333 -1438.000000 28934.000000 -1438.000000 C 28934.000000 -1456.666667 28934.000000 -1475.333333 28934.000000 -1494.000000z M 29601.000000 -1494.000000 C 29619.333333 -1494.000000 29637.666667 -1494.000000 29656.000000 -1494.000000 C 29656.000000 -992.666667 29656.000000 -491.333333 29656.000000 10.000000 C 29656.000000 42.000000 29651.333333 65.666667 29642.000000 81.000000 C 29632.666667 96.333333 29615.666667 107.000000 29591.000000 113.000000 C 29567.000000 118.333333 29528.666667 121.666667 29476.000000 123.000000 C 29423.333333 124.333333 29360.666667 125.000000 29288.000000 125.000000 C 29286.666667 118.333333 29284.333333 111.000000 29281.000000 103.000000 C 29277.666667 95.666667 29274.333333 87.333333 29271.000000 78.000000 C 29268.333333 69.333333 29265.000000 62.000000 29261.000000 56.000000 C 29308.333333 57.333333 29352.000000 58.333333 29392.000000 59.000000 C 29432.666667 59.666667 29467.333333 59.666667 29496.000000 59.000000 C 29524.666667 58.333333 29544.666667 58.000000 29556.000000 58.000000 C 29574.000000 56.666667 29586.000000 52.666667 29592.000000 46.000000 C 29598.000000 39.333333 29601.000000 28.000000 29601.000000 12.000000 C 29601.000000 -490.000000 29601.000000 -992.000000 29601.000000 -1494.000000z M 28898.000000 -253.000000 C 28958.000000 -285.000000 29027.333333 -322.333333 29106.000000 -365.000000 C 29184.666667 -408.333333 29268.333333 -455.000000 29357.000000 -505.000000 C 29446.333333 -555.000000 29535.333333 -605.000000 29624.000000 -655.000000 C 29629.000000 -639.000000 29634.000000 -623.000000 29639.000000 -607.000000 C 29557.000000 -559.666667 29473.333333 -511.666667 29388.000000 -463.000000 C 29303.333333 -414.333333 29222.000000 -368.000000 29144.000000 -324.000000 C 29066.000000 -280.666667 28995.000000 -241.666667 28931.000000 -207.000000 C 28920.000000 -222.333333 28909.000000 -237.666667 28898.000000 -253.000000z M 29791.000000 -1494.000000 C 30025.000000 -1494.000000 30259.000000 -1494.000000 30493.000000 -1494.000000 C 30493.000000 -1475.333333 30493.000000 -1456.666667 30493.000000 -1438.000000 C 30259.000000 -1438.000000 30025.000000 -1438.000000 29791.000000 -1438.000000 C 29791.000000 -1456.666667 29791.000000 -1475.333333 29791.000000 -1494.000000z M 30463.000000 -1494.000000 C 30481.333333 -1494.000000 30499.666667 -1494.000000 30518.000000 -1494.000000 C 30518.000000 -994.000000 30518.000000 -494.000000 30518.000000 6.000000 C 30518.000000 39.333333 30513.000000 64.000000 30503.000000 80.000000 C 30493.000000 96.000000 30475.000000 107.000000 30449.000000 113.000000 C 30422.333333 118.333333 30380.333333 121.666667 30323.000000 123.000000 C 30266.333333 124.333333 30197.000000 125.000000 30115.000000 125.000000 C 30113.666667 118.333333 30111.333333 111.000000 30108.000000 103.000000 C 30105.333333 95.666667 30102.666667 87.333333 30100.000000 78.000000 C 30097.333333 69.333333 30094.000000 62.000000 30090.000000 56.000000 C 30141.333333 57.333333 30189.000000 58.333333 30233.000000 59.000000 C 30277.666667 59.666667 30316.000000 59.666667 30348.000000 59.000000 C 30380.000000 58.333333 30402.333333 58.000000 30415.000000 58.000000 C 30434.333333 56.666667 30447.000000 52.333333 30453.000000 45.000000 C 30459.666667 38.333333 30463.000000 26.000000 30463.000000 8.000000 C 30463.000000 -492.666667 30463.000000 -993.333333 30463.000000 -1494.000000z M 29831.000000 -1192.000000 C 29846.333333 -1201.000000 29861.666667 -1210.000000 29877.000000 -1219.000000 C 29917.000000 -1181.000000 29957.666667 -1139.333333 29999.000000 -1094.000000 C 30040.333333 -1049.333333 30079.333333 -1005.666667 30116.000000 -963.000000 C 30152.666667 -921.000000 30182.000000 -884.666667 30204.000000 -854.000000 C 30188.333333 -841.333333 30172.666667 -828.666667 30157.000000 -816.000000 C 30134.333333 -849.333333 30104.666667 -887.666667 30068.000000 -931.000000 C 30031.333333 -974.333333 29992.333333 -1019.000000 29951.000000 -1065.000000 C 29909.666667 -1111.666667 29869.666667 -1154.000000 29831.000000 -1192.000000z M 28988.000000 -1177.000000 C 29003.333333 -1186.000000 29018.666667 -1195.000000 29034.000000 -1204.000000 C 29072.666667 -1165.333333 29112.666667 -1123.666667 29154.000000 -1079.000000 C 29196.000000 -1034.333333 29235.000000 -990.666667 29271.000000 -948.000000 C 29307.666667 -906.000000 29337.000000 -869.000000 29359.000000 -837.000000 C 29343.666667 -826.000000 29328.333333 -815.000000 29313.000000 -804.000000 C 29289.666667 -836.000000 29259.666667 -873.666667 29223.000000 -917.000000 C 29187.000000 -961.000000 29148.333333 -1005.666667 29107.000000 -1051.000000 C 29066.333333 -1096.333333 29026.666667 -1138.333333 28988.000000 -1177.000000z M 29750.000000 -286.000000 C 29810.666667 -319.333333 29881.000000 -358.333333 29961.000000 -403.000000 C 30041.000000 -447.666667 30126.000000 -496.000000 30216.000000 -548.000000 C 30306.000000 -600.000000 30395.333333 -652.333333 30484.000000 -705.000000 C 30489.666667 -688.333333 30495.333333 -671.666667 30501.000000 -655.000000 C 30417.666667 -606.333333 30333.000000 -556.666667 30247.000000 -506.000000 C 30161.666667 -455.333333 30079.333333 -407.333333 30000.000000 -362.000000 C 29920.666667 -316.666667 29848.333333 -276.000000 29783.000000 -240.000000 C 29772.000000 -255.333333 29761.000000 -270.666667 29750.000000 -286.000000z "/>
</g></svg>
