<?xml version="1.0" ?>
<svg xmlns="http://www.w3.org/2000/svg" version="1.1" width="600" height="600">
  <defs/>
  <g>
    <path stroke-width="0" fill="rgb(0, 0, 0)" opacity="1.0" d="M 343.3284912109375 254.59088134765625 C 347.492919921875 254.59088134765625 351.6572265625 254.59088134765625 355.8216552734375 254.59088134765625 C 355.8216552734375 316.56060791015625 355.8216552734375 378.5302734375 355.8216552734375 440.5 C 355.8216552734375 447.4697265625 357.4117431640625 452.01513671875 360.591796875 454.1363525390625 C 363.92333984375 456.4090576171875 370.5106201171875 457.54541015625 380.353759765625 457.54541015625 C 382.625244140625 457.54541015625 387.016845703125 457.54541015625 393.5284423828125 457.54541015625 C 400.1915283203125 457.54541015625 407.5360107421875 457.54541015625 415.56201171875 457.54541015625 C 423.7393798828125 457.54541015625 431.31103515625 457.54541015625 438.27685546875 457.54541015625 C 445.2427978515625 457.54541015625 450.4671630859375 457.54541015625 453.9501953125 457.54541015625 C 460.9161376953125 457.54541015625 466.1405029296875 455.5 469.62353515625 451.4090576171875 C 473.1065673828125 447.31817626953125 475.5294189453125 439.3636474609375 476.892333984375 427.54541015625 C 478.2552490234375 415.57574462890625 479.0880126953125 397.8485107421875 479.3909912109375 374.3636474609375 C 480.75390625 375.1212158203125 482.11669921875 376.0302734375 483.4796142578125 377.0909423828125 C 484.993896484375 378.1514892578125 486.583984375 378.98486328125 488.249755859375 379.5909423828125 C 489.91552734375 380.04547119140625 491.2784423828125 380.57574462890625 492.3385009765625 381.18182373046875 C 491.7327880859375 404.81817626953125 490.445556640625 423.1514892578125 488.4769287109375 436.18182373046875 C 486.50830078125 449.06060791015625 482.9495849609375 458.0 477.8009033203125 463.0 C 472.6522216796875 468.1514892578125 464.7020263671875 470.727294921875 453.9501953125 470.727294921875 C 452.284423828125 470.727294921875 447.8929443359375 470.727294921875 440.7755126953125 470.727294921875 C 433.658203125 470.727294921875 425.78369140625 470.727294921875 417.1519775390625 470.727294921875 C 408.5203857421875 470.727294921875 400.721435546875 470.727294921875 393.755615234375 470.727294921875 C 386.7896728515625 470.727294921875 382.473876953125 470.727294921875 380.80810546875 470.727294921875 C 371.116455078125 470.727294921875 363.468994140625 469.8939208984375 357.865966796875 468.227294921875 C 352.4144287109375 466.712158203125 348.628662109375 463.757568359375 346.508544921875 459.3636474609375 C 344.388427734375 454.9697265625 343.3284912109375 448.68182373046875 343.3284912109375 440.5 C 343.3284912109375 378.5302734375 343.3284912109375 316.56060791015625 343.3284912109375 254.59088134765625M 108.228759765625 248.90908813476562 C 234.5238037109375 248.90908813476562 360.8189697265625 248.90908813476562 487.114013671875 248.90908813476562 C 487.114013671875 253.30303955078125 487.114013671875 257.69696044921875 487.114013671875 262.09088134765625 C 360.8189697265625 262.09088134765625 234.5238037109375 262.09088134765625 108.228759765625 262.09088134765625 C 108.228759765625 257.69696044921875 108.228759765625 253.30303955078125 108.228759765625 248.90908813476562M 144.7998046875 123.0 C 247.547119140625 123.0 350.2943115234375 123.0 453.0416259765625 123.0 C 453.0416259765625 127.16665649414062 453.0416259765625 131.33331298828125 453.0416259765625 135.5 C 350.2943115234375 135.5 247.547119140625 135.5 144.7998046875 135.5 C 144.7998046875 131.33331298828125 144.7998046875 127.16665649414062 144.7998046875 123.0M 231.5709228515625 258.2272644042969 C 235.9625244140625 258.2272644042969 240.35400390625 258.2272644042969 244.74560546875 258.2272644042969 C 242.62548828125 282.92425537109375 239.3697509765625 306.4090576171875 234.9781494140625 328.68182373046875 C 230.738037109375 350.95452880859375 223.999267578125 371.56060791015625 214.7618408203125 390.5 C 205.6759033203125 409.287841796875 193.1826171875 426.1060791015625 177.2822265625 440.95458984375 C 161.3817138671875 455.80303955078125 141.0897216796875 468.07574462890625 116.4061279296875 477.772705078125 C 115.8004150390625 476.56060791015625 114.51318359375 475.04547119140625 112.5445556640625 473.227294921875 C 110.7274169921875 471.56060791015625 109.1373291015625 470.1212158203125 107.7744140625 468.9090576171875 C 131.852294921875 459.6666259765625 151.53857421875 447.92425537109375 166.8333740234375 433.68182373046875 C 182.1280517578125 419.43939208984375 194.1669921875 403.1514892578125 202.9500732421875 384.81817626953125 C 211.8846435546875 366.48486328125 218.4720458984375 346.6363525390625 222.7120361328125 325.272705078125 C 226.9521484375 303.757568359375 229.9051513671875 281.4090881347656 231.5709228515625 258.2272644042969"/>
  </g>
</svg>
