<?xml version="1.0" encoding="utf-8"?>
<svg xmlns="http://www.w3.org/2000/svg" xmlns:ev="http://www.w3.org/2001/xml-events" xmlns:xlink="http://www.w3.org/1999/xlink" version="1.1" baseProfile="full" width="49628.0" height="1744.0" viewBox="213.0 -1596.0 49628.0 1744.0">
<defs/>
<g><path d="M 12572.000000 -1496.000000 C 12570.666667 -1482.000000 12569.333333 -1466.333333 12568.000000 -1449.000000 C 12566.666667 -1431.666667 12565.333333 -1407.000000 12564.000000 -1375.000000 C 12564.000000 -1361.000000 12564.000000 -1337.000000 12564.000000 -1303.000000 C 12564.000000 -1269.000000 12564.000000 -1229.333333 12564.000000 -1184.000000 C 12564.000000 -1139.333333 12564.000000 -1093.666667 12564.000000 -1047.000000 C 12564.000000 -1000.333333 12564.000000 -956.666667 12564.000000 -916.000000 C 12564.000000 -841.333333 12565.333333 -766.666667 12568.000000 -692.000000 C 12570.666667 -617.333333 12573.666667 -546.666667 12577.000000 -480.000000 C 12580.333333 -413.333333 12583.000000 -354.666667 12585.000000 -304.000000 C 12587.666667 -253.333333 12589.000000 -214.666667 12589.000000 -188.000000 C 12589.000000 -153.333333 12581.333333 -116.666667 12566.000000 -78.000000 C 12550.666667 -40.000000 12521.666667 -7.666667 12479.000000 19.000000 C 12436.333333 46.333333 12373.333333 60.000000 12290.000000 60.000000 C 12167.333333 60.000000 12072.333333 40.000000 12005.000000 0.000000 C 11937.666667 -40.666667 11904.000000 -102.666667 11904.000000 -186.000000 C 11904.000000 -238.666667 11920.666667 -283.666667 11954.000000 -321.000000 C 11987.333333 -359.000000 12035.000000 -388.666667 12097.000000 -410.000000 C 12159.000000 -431.333333 12233.000000 -442.000000 12319.000000 -442.000000 C 12416.333333 -442.000000 12508.000000 -429.666667 12594.000000 -405.000000 C 12680.666667 -381.000000 12760.333333 -350.333333 12833.000000 -313.000000 C 12906.333333 -275.666667 12970.666667 -237.666667 13026.000000 -199.000000 C 13082.000000 -161.000000 13127.333333 -128.666667 13162.000000 -102.000000 C 13149.000000 -82.666667 13136.000000 -63.333333 13123.000000 -44.000000 C 13082.333333 -81.333333 13033.666667 -119.666667 12977.000000 -159.000000 C 12921.000000 -199.000000 12858.666667 -236.333333 12790.000000 -271.000000 C 12721.333333 -305.666667 12647.000000 -333.666667 12567.000000 -355.000000 C 12487.000000 -377.000000 12402.333333 -388.000000 12313.000000 -388.000000 C 12196.333333 -388.000000 12108.000000 -368.333333 12048.000000 -329.000000 C 11988.000000 -290.333333 11958.000000 -243.333333 11958.000000 -188.000000 C 11958.000000 -153.333333 11968.333333 -121.333333 11989.000000 -92.000000 C 12010.333333 -62.666667 12045.333333 -39.000000 12094.000000 -21.000000 C 12142.666667 -3.000000 12208.000000 6.000000 12290.000000 6.000000 C 12329.333333 6.000000 12367.333333 0.666667 12404.000000 -10.000000 C 12440.666667 -21.333333 12470.333333 -41.000000 12493.000000 -69.000000 C 12516.333333 -97.000000 12528.000000 -136.666667 12528.000000 -188.000000 C 12528.000000 -232.666667 12527.000000 -288.333333 12525.000000 -355.000000 C 12523.000000 -421.666667 12521.000000 -490.666667 12519.000000 -562.000000 C 12517.000000 -634.000000 12515.000000 -701.333333 12513.000000 -764.000000 C 12511.666667 -826.666667 12511.000000 -877.333333 12511.000000 -916.000000 C 12511.000000 -956.666667 12511.000000 -996.666667 12511.000000 -1036.000000 C 12511.000000 -1076.000000 12511.000000 -1115.666667 12511.000000 -1155.000000 C 12511.000000 -1195.000000 12511.000000 -1235.000000 12511.000000 -1275.000000 C 12511.000000 -1315.666667 12511.000000 -1356.000000 12511.000000 -1396.000000 C 12511.000000 -1411.333333 12510.666667 -1429.666667 12510.000000 -1451.000000 C 12509.333333 -1473.000000 12508.333333 -1488.000000 12507.000000 -1496.000000 C 12528.666667 -1496.000000 12550.333333 -1496.000000 12572.000000 -1496.000000z M 11900.000000 -1258.000000 C 11928.000000 -1252.666667 11963.333333 -1247.333333 12006.000000 -1242.000000 C 12049.333333 -1237.333333 12095.333333 -1232.666667 12144.000000 -1228.000000 C 12192.666667 -1223.333333 12240.000000 -1220.000000 12286.000000 -1218.000000 C 12332.000000 -1216.000000 12372.333333 -1215.000000 12407.000000 -1215.000000 C 12521.000000 -1215.000000 12640.333333 -1220.000000 12765.000000 -1230.000000 C 12889.666667 -1240.666667 13006.666667 -1255.000000 13116.000000 -1273.000000 C 13116.000000 -1252.666667 13116.000000 -1232.333333 13116.000000 -1212.000000 C 13037.333333 -1204.000000 12958.000000 -1196.000000 12878.000000 -1188.000000 C 12798.000000 -1180.666667 12718.666667 -1174.333333 12640.000000 -1169.000000 C 12561.333333 -1164.333333 12484.333333 -1162.000000 12409.000000 -1162.000000 C 12361.666667 -1162.000000 12305.333333 -1163.666667 12240.000000 -1167.000000 C 12174.666667 -1171.000000 12111.333333 -1175.333333 12050.000000 -1180.000000 C 11988.666667 -1185.333333 11938.666667 -1190.000000 11900.000000 -1194.000000 C 11900.000000 -1215.333333 11900.000000 -1236.666667 11900.000000 -1258.000000z M 11892.000000 -856.000000 C 11929.333333 -851.333333 11969.000000 -846.666667 12011.000000 -842.000000 C 12053.666667 -837.333333 12097.333333 -833.666667 12142.000000 -831.000000 C 12186.666667 -829.000000 12230.333333 -827.000000 12273.000000 -825.000000 C 12316.333333 -823.000000 12357.333333 -822.000000 12396.000000 -822.000000 C 12463.333333 -822.000000 12536.333333 -823.666667 12615.000000 -827.000000 C 12693.666667 -831.000000 12776.333333 -837.333333 12863.000000 -846.000000 C 12949.666667 -855.333333 13036.333333 -867.000000 13123.000000 -881.000000 C 13123.000000 -860.666667 13123.000000 -840.333333 13123.000000 -820.000000 C 13059.000000 -810.666667 12995.000000 -802.666667 12931.000000 -796.000000 C 12867.000000 -790.000000 12804.333333 -784.666667 12743.000000 -780.000000 C 12681.666667 -776.000000 12621.666667 -773.000000 12563.000000 -771.000000 C 12505.000000 -769.000000 12449.333333 -768.000000 12396.000000 -768.000000 C 12346.000000 -768.000000 12291.333333 -769.333333 12232.000000 -772.000000 C 12173.333333 -774.666667 12114.333333 -777.666667 12055.000000 -781.000000 C 11996.333333 -785.000000 11942.000000 -789.666667 11892.000000 -795.000000 C 11892.000000 -815.333333 11892.000000 -835.666667 11892.000000 -856.000000z "/>
</g></svg>
