<?xml version="1.0" encoding="utf-8"?>
<svg xmlns="http://www.w3.org/2000/svg" xmlns:ev="http://www.w3.org/2001/xml-events" xmlns:xlink="http://www.w3.org/1999/xlink" version="1.1" baseProfile="full" width="41856.0" height="1776.0" viewBox="67.0 -1634.0 41856.0 1776.0">
<defs/>
<g><path d="M 21414.000000 -1488.000000 C 21432.333333 -1488.000000 21450.666667 -1488.000000 21469.000000 -1488.000000 C 21469.000000 -1316.000000 21469.000000 -1144.000000 21469.000000 -972.000000 C 21469.000000 -891.333333 21466.666667 -803.333333 21462.000000 -708.000000 C 21458.000000 -613.333333 21448.666667 -516.666667 21434.000000 -418.000000 C 21419.333333 -320.000000 21397.333333 -223.666667 21368.000000 -129.000000 C 21339.333333 -34.333333 21300.666667 54.000000 21252.000000 136.000000 C 21250.000000 132.666667 21245.666667 129.000000 21239.000000 125.000000 C 21232.333333 121.000000 21226.000000 117.333333 21220.000000 114.000000 C 21214.666667 110.666667 21209.333333 108.666667 21204.000000 108.000000 C 21252.000000 27.333333 21290.000000 -59.333333 21318.000000 -152.000000 C 21346.000000 -245.333333 21366.666667 -339.666667 21380.000000 -435.000000 C 21393.333333 -530.333333 21402.333333 -623.666667 21407.000000 -715.000000 C 21411.666667 -806.333333 21414.000000 -892.000000 21414.000000 -972.000000 C 21414.000000 -1144.000000 21414.000000 -1316.000000 21414.000000 -1488.000000z M 21441.000000 -1488.000000 C 21892.666667 -1488.000000 22344.333333 -1488.000000 22796.000000 -1488.000000 C 22796.000000 -1356.666667 22796.000000 -1225.333333 22796.000000 -1094.000000 C 22344.333333 -1094.000000 21892.666667 -1094.000000 21441.000000 -1094.000000 C 21441.000000 -1112.666667 21441.000000 -1131.333333 21441.000000 -1150.000000 C 21874.000000 -1150.000000 22307.000000 -1150.000000 22740.000000 -1150.000000 C 22740.000000 -1244.000000 22740.000000 -1338.000000 22740.000000 -1432.000000 C 22307.000000 -1432.000000 21874.000000 -1432.000000 21441.000000 -1432.000000 C 21441.000000 -1450.666667 21441.000000 -1469.333333 21441.000000 -1488.000000z M 21519.000000 -925.000000 C 21966.000000 -925.000000 22413.000000 -925.000000 22860.000000 -925.000000 C 22860.000000 -906.666667 22860.000000 -888.333333 22860.000000 -870.000000 C 22413.000000 -870.000000 21966.000000 -870.000000 21519.000000 -870.000000 C 21519.000000 -888.333333 21519.000000 -906.666667 21519.000000 -925.000000z M 21602.000000 -326.000000 C 21992.333333 -326.000000 22382.666667 -326.000000 22773.000000 -326.000000 C 22773.000000 -307.000000 22773.000000 -288.000000 22773.000000 -269.000000 C 22382.666667 -269.000000 21992.333333 -269.000000 21602.000000 -269.000000 C 21602.000000 -288.000000 21602.000000 -307.000000 21602.000000 -326.000000z M 21441.000000 15.000000 C 21938.000000 15.000000 22435.000000 15.000000 22932.000000 15.000000 C 22932.000000 33.666667 22932.000000 52.333333 22932.000000 71.000000 C 22435.000000 71.000000 21938.000000 71.000000 21441.000000 71.000000 C 21441.000000 52.333333 21441.000000 33.666667 21441.000000 15.000000z M 22143.000000 -545.000000 C 22162.333333 -545.000000 22181.666667 -545.000000 22201.000000 -545.000000 C 22201.000000 -348.000000 22201.000000 -151.000000 22201.000000 46.000000 C 22181.666667 46.000000 22162.333333 46.000000 22143.000000 46.000000 C 22143.000000 -151.000000 22143.000000 -348.000000 22143.000000 -545.000000z M 21552.000000 -574.000000 C 21640.000000 -576.666667 21744.000000 -579.666667 21864.000000 -583.000000 C 21984.666667 -587.000000 22114.666667 -591.666667 22254.000000 -597.000000 C 22394.000000 -602.333333 22534.333333 -608.000000 22675.000000 -614.000000 C 22673.666667 -596.333333 22672.333333 -578.666667 22671.000000 -561.000000 C 22537.000000 -554.333333 22402.000000 -548.000000 22266.000000 -542.000000 C 22130.666667 -536.666667 22002.333333 -532.000000 21881.000000 -528.000000 C 21760.333333 -524.000000 21654.000000 -520.000000 21562.000000 -516.000000 C 21558.666667 -535.333333 21555.333333 -554.666667 21552.000000 -574.000000z M 21988.000000 -918.000000 C 22006.000000 -911.000000 22024.000000 -904.000000 22042.000000 -897.000000 C 22010.000000 -837.666667 21972.666667 -774.000000 21930.000000 -706.000000 C 21888.000000 -638.666667 21848.333333 -581.333333 21811.000000 -534.000000 C 21795.666667 -541.000000 21780.333333 -548.000000 21765.000000 -555.000000 C 21791.000000 -587.000000 21817.666667 -624.333333 21845.000000 -667.000000 C 21872.333333 -710.333333 21898.666667 -754.333333 21924.000000 -799.000000 C 21950.000000 -843.666667 21971.333333 -883.333333 21988.000000 -918.000000z M 22351.000000 -776.000000 C 22363.666667 -787.333333 22376.333333 -798.666667 22389.000000 -810.000000 C 22443.000000 -780.666667 22497.333333 -747.333333 22552.000000 -710.000000 C 22607.333333 -673.333333 22658.666667 -635.666667 22706.000000 -597.000000 C 22753.333333 -559.000000 22791.666667 -523.333333 22821.000000 -490.000000 C 22808.333333 -476.333333 22795.666667 -462.666667 22783.000000 -449.000000 C 22753.666667 -482.333333 22715.000000 -518.666667 22667.000000 -558.000000 C 22619.666667 -598.000000 22568.333333 -637.000000 22513.000000 -675.000000 C 22458.333333 -713.000000 22404.333333 -746.666667 22351.000000 -776.000000z "/>
</g></svg>
