<?xml version="1.0" ?>
<svg xmlns="http://www.w3.org/2000/svg" version="1.1" width="600" height="600">
  <defs/>
  <g>
    <path stroke-width="0" fill="rgb(0, 0, 0)" opacity="1.0" d="M 190.93280029296875 280.40777587890625 C 262.845458984375 280.40777587890625 334.75823974609375 280.40777587890625 406.6708984375 280.40777587890625 C 406.6708984375 284.49786376953125 406.6708984375 288.58795166015625 406.6708984375 292.67803955078125 C 334.75823974609375 292.67803955078125 262.845458984375 292.67803955078125 190.93280029296875 292.67803955078125 C 190.93280029296875 288.58795166015625 190.93280029296875 284.49786376953125 190.93280029296875 280.40777587890625M 235.8326416015625 326.421142578125 C 278.0311279296875 326.421142578125 320.2296142578125 326.421142578125 362.42816162109375 326.421142578125 C 362.42816162109375 330.438232421875 362.42816162109375 334.45526123046875 362.42816162109375 338.4722900390625 C 320.2296142578125 338.4722900390625 278.0311279296875 338.4722900390625 235.8326416015625 338.4722900390625 C 235.8326416015625 334.45526123046875 235.8326416015625 330.438232421875 235.8326416015625 326.421142578125M 235.8326416015625 373.5301513671875 C 278.0311279296875 373.5301513671875 320.2296142578125 373.5301513671875 362.42816162109375 373.5301513671875 C 362.42816162109375 377.54718017578125 362.42816162109375 381.564208984375 362.42816162109375 385.58123779296875 C 320.2296142578125 385.58123779296875 278.0311279296875 385.58123779296875 235.8326416015625 385.58123779296875 C 235.8326416015625 381.564208984375 235.8326416015625 377.54718017578125 235.8326416015625 373.5301513671875M 356.95257568359375 283.91357421875 C 361.18701171875 283.91357421875 365.4215087890625 283.91357421875 369.65594482421875 283.91357421875 C 369.65594482421875 346.433349609375 369.65594482421875 408.953125 369.65594482421875 471.472900390625 C 365.4215087890625 471.472900390625 361.18701171875 471.472900390625 356.95257568359375 471.472900390625 C 356.95257568359375 408.953125 356.95257568359375 346.433349609375 356.95257568359375 283.91357421875M 228.8238525390625 283.91357421875 C 232.98529052734375 283.91357421875 237.146728515625 283.91357421875 241.3082275390625 283.91357421875 C 241.3082275390625 333.3597412109375 241.3082275390625 382.80584716796875 241.3082275390625 432.251953125 C 237.146728515625 432.251953125 232.98529052734375 432.251953125 228.8238525390625 432.251953125 C 228.8238525390625 382.80584716796875 228.8238525390625 333.3597412109375 228.8238525390625 283.91357421875M 185.895263671875 428.96533203125 C 200.496826171875 428.3809814453125 217.21563720703125 427.650634765625 236.0516357421875 426.774169921875 C 255.03369140625 425.751708984375 275.329833984375 424.58306884765625 296.94012451171875 423.2684326171875 C 318.69647216796875 421.9537353515625 340.67181396484375 420.6390380859375 362.8662109375 419.32440185546875 C 362.72015380859375 423.41448974609375 362.57415771484375 427.50457763671875 362.42816162109375 431.5946044921875 C 330.15869140625 433.49365234375 298.47332763671875 435.392578125 267.37200927734375 437.29150390625 C 236.27069091796875 439.04443359375 209.40374755859375 440.6512451171875 186.7713623046875 442.11199951171875 C 186.4793701171875 437.729736328125 186.18731689453125 433.3475341796875 185.895263671875 428.96533203125M 138.3671875 178.3018798828125 C 181.80682373046875 178.3018798828125 225.24652099609375 178.3018798828125 268.6861572265625 178.3018798828125 C 268.6861572265625 182.31893920898438 268.6861572265625 186.33596801757812 268.6861572265625 190.35299682617188 C 225.24652099609375 190.35299682617188 181.80682373046875 190.35299682617188 138.3671875 190.35299682617188 C 138.3671875 186.33596801757812 138.3671875 182.31893920898438 138.3671875 178.3018798828125M 330.8887939453125 178.3018798828125 C 374.9124755859375 178.3018798828125 418.936279296875 178.3018798828125 462.9599609375 178.3018798828125 C 462.9599609375 182.31893920898438 462.9599609375 186.33596801757812 462.9599609375 190.35299682617188 C 418.936279296875 190.35299682617188 374.9124755859375 190.35299682617188 330.8887939453125 190.35299682617188 C 330.8887939453125 186.33596801757812 330.8887939453125 182.31893920898438 330.8887939453125 178.3018798828125M 457.92236328125 120.67559814453125 C 462.15673828125 120.67559814453125 466.391357421875 120.67559814453125 470.625732421875 120.67559814453125 C 470.625732421875 232.5684814453125 470.625732421875 344.46136474609375 470.625732421875 456.354248046875 C 470.625732421875 462.4893798828125 469.530517578125 467.1636962890625 467.34033203125 470.3773193359375 C 465.296142578125 473.59100341796875 461.86474609375 475.92822265625 457.0462646484375 477.388916015625 C 452.227783203125 478.41143798828125 444.7080078125 478.9957275390625 434.48681640625 479.141845703125 C 424.2657470703125 479.28790283203125 411.1973876953125 479.3609619140625 395.28173828125 479.3609619140625 C 394.9896240234375 478.33837890625 394.62451171875 477.02374267578125 394.1865234375 475.41693115234375 C 393.74853515625 473.9561767578125 393.1644287109375 472.349365234375 392.43438720703125 470.596435546875 C 391.85028076171875 468.9896240234375 391.1202392578125 467.45587158203125 390.244140625 465.9951171875 C 404.2615966796875 466.28729248046875 416.6729736328125 466.433349609375 427.47802734375 466.433349609375 C 438.283203125 466.433349609375 445.510986328125 466.28729248046875 449.161376953125 465.9951171875 C 452.519775390625 465.7030029296875 454.782958984375 464.8995361328125 455.951171875 463.58489990234375 C 457.265380859375 462.41632080078125 457.92236328125 460.15216064453125 457.92236328125 456.79248046875 C 457.92236328125 344.75347900390625 457.92236328125 232.71453857421875 457.92236328125 120.67559814453125M 139.2432861328125 120.67559814453125 C 184.65411376953125 120.67559814453125 230.06500244140625 120.67559814453125 275.475830078125 120.67559814453125 C 275.475830078125 163.98660278320312 275.475830078125 207.29763793945312 275.475830078125 250.608642578125 C 230.06500244140625 250.608642578125 184.65411376953125 250.608642578125 139.2432861328125 250.608642578125 C 139.2432861328125 246.5185546875 139.2432861328125 242.428466796875 139.2432861328125 238.33840942382812 C 180.56573486328125 238.33840942382812 221.88812255859375 238.33840942382812 263.2105712890625 238.33840942382812 C 263.2105712890625 203.134521484375 263.2105712890625 167.93060302734375 263.2105712890625 132.72671508789062 C 221.88812255859375 132.72671508789062 180.56573486328125 132.72671508789062 139.2432861328125 132.72671508789062 C 139.2432861328125 128.70965576171875 139.2432861328125 124.69265747070312 139.2432861328125 120.67559814453125M 462.5218505859375 120.67559814453125 C 462.5218505859375 124.69265747070312 462.5218505859375 128.70965576171875 462.5218505859375 132.72671508789062 C 419.88525390625 132.72671508789062 377.248779296875 132.72671508789062 334.6121826171875 132.72671508789062 C 334.6121826171875 167.93060302734375 334.6121826171875 203.134521484375 334.6121826171875 238.33840942382812 C 377.248779296875 238.33840942382812 419.88525390625 238.33840942382812 462.5218505859375 238.33840942382812 C 462.5218505859375 242.428466796875 462.5218505859375 246.5185546875 462.5218505859375 250.608642578125 C 415.869873046875 250.608642578125 369.2178955078125 250.608642578125 322.56591796875 250.608642578125 C 322.56591796875 207.29763793945312 322.56591796875 163.98660278320312 322.56591796875 120.67559814453125 C 369.2178955078125 120.67559814453125 415.869873046875 120.67559814453125 462.5218505859375 120.67559814453125M 131.139404296875 120.67559814453125 C 135.37384033203125 120.67559814453125 139.60833740234375 120.67559814453125 143.8427734375 120.67559814453125 C 143.8427734375 240.52951049804688 143.8427734375 360.3834228515625 143.8427734375 480.23736572265625 C 139.60833740234375 480.23736572265625 135.37384033203125 480.23736572265625 131.139404296875 480.23736572265625 C 131.139404296875 360.3834228515625 131.139404296875 240.52951049804688 131.139404296875 120.67559814453125"/>
  </g>
</svg>
