<?xml version="1.0" encoding="utf-8"?>
<svg xmlns="http://www.w3.org/2000/svg" xmlns:ev="http://www.w3.org/2001/xml-events" xmlns:xlink="http://www.w3.org/1999/xlink" version="1.1" baseProfile="full" width="41856.0" height="1776.0" viewBox="67.0 -1634.0 41856.0 1776.0">
<defs/>
<g><path d="M 4439.000000 -1071.000000 C 4457.666667 -1071.000000 4476.333333 -1071.000000 4495.000000 -1071.000000 C 4495.000000 -734.000000 4495.000000 -397.000000 4495.000000 -60.000000 C 4495.000000 -16.000000 4504.666667 12.666667 4524.000000 26.000000 C 4544.000000 39.333333 4584.000000 46.000000 4644.000000 46.000000 C 4658.666667 46.000000 4686.000000 46.000000 4726.000000 46.000000 C 4766.666667 46.000000 4811.000000 46.000000 4859.000000 46.000000 C 4907.666667 46.000000 4953.333333 46.000000 4996.000000 46.000000 C 5039.333333 46.000000 5071.333333 46.000000 5092.000000 46.000000 C 5136.666667 46.000000 5170.000000 34.333333 5192.000000 11.000000 C 5214.666667 -11.666667 5230.333333 -54.666667 5239.000000 -118.000000 C 5248.333333 -181.333333 5255.666667 -273.333333 5261.000000 -394.000000 C 5269.666667 -387.333333 5279.000000 -381.000000 5289.000000 -375.000000 C 5299.666667 -369.666667 5309.333333 -365.666667 5318.000000 -363.000000 C 5313.333333 -241.000000 5305.000000 -146.000000 5293.000000 -78.000000 C 5281.666667 -10.666667 5260.333333 36.333333 5229.000000 63.000000 C 5197.666667 90.333333 5150.666667 104.000000 5088.000000 104.000000 C 5080.000000 104.000000 5061.000000 104.000000 5031.000000 104.000000 C 5001.000000 104.000000 4966.000000 104.000000 4926.000000 104.000000 C 4886.666667 104.000000 4847.000000 104.000000 4807.000000 104.000000 C 4767.666667 104.000000 4733.666667 104.000000 4705.000000 104.000000 C 4676.333333 104.000000 4658.000000 104.000000 4650.000000 104.000000 C 4596.666667 104.000000 4554.333333 99.333333 4523.000000 90.000000 C 4492.333333 81.333333 4470.666667 65.000000 4458.000000 41.000000 C 4445.333333 17.666667 4439.000000 -16.333333 4439.000000 -61.000000 C 4439.000000 -397.666667 4439.000000 -734.333333 4439.000000 -1071.000000z M 4462.000000 -1542.000000 C 4472.333333 -1556.000000 4482.666667 -1570.000000 4493.000000 -1584.000000 C 4572.333333 -1558.666667 4654.666667 -1528.000000 4740.000000 -1492.000000 C 4826.000000 -1456.000000 4907.000000 -1419.333333 4983.000000 -1382.000000 C 5059.666667 -1345.333333 5122.666667 -1311.000000 5172.000000 -1279.000000 C 5161.333333 -1262.333333 5150.666667 -1245.666667 5140.000000 -1229.000000 C 5090.000000 -1262.333333 5026.666667 -1298.000000 4950.000000 -1336.000000 C 4874.000000 -1374.666667 4793.333333 -1412.000000 4708.000000 -1448.000000 C 4623.333333 -1484.666667 4541.333333 -1516.000000 4462.000000 -1542.000000z M 4141.000000 -899.000000 C 4158.333333 -895.000000 4175.666667 -891.000000 4193.000000 -887.000000 C 4184.333333 -805.000000 4169.666667 -717.666667 4149.000000 -625.000000 C 4128.333333 -532.333333 4101.666667 -443.666667 4069.000000 -359.000000 C 4036.333333 -274.333333 3995.333333 -202.000000 3946.000000 -142.000000 C 3930.666667 -153.000000 3915.333333 -164.000000 3900.000000 -175.000000 C 3948.000000 -232.333333 3988.000000 -302.333333 4020.000000 -385.000000 C 4052.000000 -467.666667 4078.000000 -553.666667 4098.000000 -643.000000 C 4118.000000 -733.000000 4132.333333 -818.333333 4141.000000 -899.000000z M 5276.000000 -927.000000 C 5291.333333 -934.000000 5306.666667 -941.000000 5322.000000 -948.000000 C 5382.000000 -872.666667 5437.666667 -791.333333 5489.000000 -704.000000 C 5540.333333 -617.333333 5584.333333 -531.666667 5621.000000 -447.000000 C 5658.333333 -363.000000 5684.666667 -286.333333 5700.000000 -217.000000 C 5683.000000 -210.000000 5666.000000 -203.000000 5649.000000 -196.000000 C 5633.666667 -265.333333 5607.333333 -342.333333 5570.000000 -427.000000 C 5532.666667 -512.333333 5488.666667 -598.333333 5438.000000 -685.000000 C 5388.000000 -772.333333 5334.000000 -853.000000 5276.000000 -927.000000z "/>
</g></svg>
