<?xml version="1.0" encoding="utf-8"?>
<svg xmlns="http://www.w3.org/2000/svg" xmlns:ev="http://www.w3.org/2001/xml-events" xmlns:xlink="http://www.w3.org/1999/xlink" version="1.1" baseProfile="full" width="41856.0" height="1776.0" viewBox="67.0 -1634.0 41856.0 1776.0">
<defs/>
<g><path d="M 40812.000000 -1367.000000 C 40828.000000 -1365.666667 40845.333333 -1364.666667 40864.000000 -1364.000000 C 40882.666667 -1363.333333 40897.666667 -1363.000000 40909.000000 -1363.000000 C 40928.333333 -1363.000000 40961.333333 -1363.666667 41008.000000 -1365.000000 C 41054.666667 -1366.333333 41108.000000 -1368.333333 41168.000000 -1371.000000 C 41228.666667 -1373.666667 41288.666667 -1376.000000 41348.000000 -1378.000000 C 41407.333333 -1380.666667 41460.000000 -1383.333333 41506.000000 -1386.000000 C 41552.666667 -1388.666667 41585.333333 -1390.666667 41604.000000 -1392.000000 C 41622.000000 -1394.666667 41634.333333 -1396.666667 41641.000000 -1398.000000 C 41648.333333 -1399.333333 41656.666667 -1401.333333 41666.000000 -1404.000000 C 41684.000000 -1386.666667 41702.000000 -1369.333333 41720.000000 -1352.000000 C 41706.666667 -1342.666667 41692.666667 -1332.333333 41678.000000 -1321.000000 C 41663.333333 -1309.666667 41649.000000 -1297.333333 41635.000000 -1284.000000 C 41613.666667 -1266.666667 41579.666667 -1237.666667 41533.000000 -1197.000000 C 41487.000000 -1157.000000 41435.000000 -1112.000000 41377.000000 -1062.000000 C 41319.000000 -1012.000000 41261.333333 -962.333333 41204.000000 -913.000000 C 41147.333333 -863.666667 41096.666667 -819.666667 41052.000000 -781.000000 C 41108.000000 -803.000000 41166.333333 -818.000000 41227.000000 -826.000000 C 41287.666667 -834.666667 41346.333333 -839.000000 41403.000000 -839.000000 C 41506.333333 -839.000000 41597.000000 -820.666667 41675.000000 -784.000000 C 41753.666667 -748.000000 41814.666667 -698.333333 41858.000000 -635.000000 C 41901.333333 -572.333333 41923.000000 -500.666667 41923.000000 -420.000000 C 41923.000000 -315.333333 41894.666667 -227.666667 41838.000000 -157.000000 C 41782.000000 -87.000000 41706.666667 -34.000000 41612.000000 2.000000 C 41517.333333 38.000000 41411.666667 56.000000 41295.000000 56.000000 C 41211.000000 56.000000 41141.333333 45.333333 41086.000000 24.000000 C 41031.333333 2.666667 40990.333333 -25.333333 40963.000000 -60.000000 C 40936.333333 -95.333333 40923.000000 -134.333333 40923.000000 -177.000000 C 40923.000000 -212.333333 40932.666667 -245.333333 40952.000000 -276.000000 C 40972.000000 -307.333333 41000.666667 -332.000000 41038.000000 -350.000000 C 41075.333333 -368.666667 41119.000000 -378.000000 41169.000000 -378.000000 C 41251.666667 -378.000000 41319.666667 -360.333333 41373.000000 -325.000000 C 41426.333333 -290.333333 41467.000000 -245.333333 41495.000000 -190.000000 C 41523.000000 -135.333333 41540.333333 -77.666667 41547.000000 -17.000000 C 41529.666667 -11.333333 41512.333333 -5.666667 41495.000000 0.000000 C 41486.333333 -94.666667 41453.666667 -173.000000 41397.000000 -235.000000 C 41341.000000 -297.000000 41264.333333 -328.000000 41167.000000 -328.000000 C 41115.666667 -328.000000 41071.000000 -313.666667 41033.000000 -285.000000 C 40995.666667 -256.333333 40977.000000 -221.000000 40977.000000 -179.000000 C 40977.000000 -121.000000 41006.666667 -76.333333 41066.000000 -45.000000 C 41125.333333 -13.666667 41201.000000 2.000000 41293.000000 2.000000 C 41403.666667 2.000000 41502.000000 -14.000000 41588.000000 -46.000000 C 41674.666667 -78.000000 41743.000000 -125.666667 41793.000000 -189.000000 C 41843.000000 -252.333333 41868.000000 -329.333333 41868.000000 -420.000000 C 41868.000000 -488.000000 41848.333333 -549.666667 41809.000000 -605.000000 C 41769.666667 -661.000000 41715.000000 -705.666667 41645.000000 -739.000000 C 41575.666667 -772.333333 41495.000000 -789.000000 41403.000000 -789.000000 C 41317.000000 -789.000000 41241.000000 -781.666667 41175.000000 -767.000000 C 41109.000000 -752.333333 41047.666667 -730.000000 40991.000000 -700.000000 C 40934.333333 -670.000000 40876.666667 -631.000000 40818.000000 -583.000000 C 40760.000000 -535.000000 40695.666667 -478.333333 40625.000000 -413.000000 C 40609.666667 -427.666667 40594.333333 -442.333333 40579.000000 -457.000000 C 40625.000000 -495.666667 40674.333333 -537.000000 40727.000000 -581.000000 C 40779.666667 -625.000000 40831.666667 -668.333333 40883.000000 -711.000000 C 40935.000000 -754.333333 40982.666667 -794.333333 41026.000000 -831.000000 C 41070.000000 -868.333333 41105.333333 -898.666667 41132.000000 -922.000000 C 41158.666667 -943.333333 41194.000000 -973.000000 41238.000000 -1011.000000 C 41282.666667 -1049.000000 41329.666667 -1089.000000 41379.000000 -1131.000000 C 41428.333333 -1173.000000 41474.666667 -1213.000000 41518.000000 -1251.000000 C 41561.333333 -1289.000000 41595.333333 -1318.666667 41620.000000 -1340.000000 C 41599.333333 -1338.666667 41565.000000 -1337.000000 41517.000000 -1335.000000 C 41469.000000 -1333.000000 41414.666667 -1330.333333 41354.000000 -1327.000000 C 41293.333333 -1324.333333 41233.000000 -1321.666667 41173.000000 -1319.000000 C 41113.666667 -1316.333333 41060.333333 -1314.000000 41013.000000 -1312.000000 C 40965.666667 -1310.000000 40932.333333 -1308.666667 40913.000000 -1308.000000 C 40896.333333 -1306.666667 40880.333333 -1305.666667 40865.000000 -1305.000000 C 40849.666667 -1304.333333 40832.333333 -1302.666667 40813.000000 -1300.000000 C 40812.666667 -1322.333333 40812.333333 -1344.666667 40812.000000 -1367.000000z "/>
</g></svg>
