<?xml version="1.0" encoding="utf-8"?>
<svg xmlns="http://www.w3.org/2000/svg" xmlns:ev="http://www.w3.org/2001/xml-events" xmlns:xlink="http://www.w3.org/1999/xlink" version="1.1" baseProfile="full" width="6902.0" height="1593.0" viewBox="204.0 -1503.0 6902.0 1593.0">
<defs/>
<g><path d="M 438.000000 -1369.000000 C 462.000000 -1367.666667 484.333333 -1366.000000 505.000000 -1364.000000 C 525.666667 -1362.000000 550.666667 -1361.000000 580.000000 -1361.000000 C 600.666667 -1361.000000 637.000000 -1361.000000 689.000000 -1361.000000 C 741.666667 -1361.000000 802.000000 -1361.000000 870.000000 -1361.000000 C 938.000000 -1361.000000 1005.666667 -1361.000000 1073.000000 -1361.000000 C 1141.000000 -1361.000000 1201.000000 -1361.000000 1253.000000 -1361.000000 C 1305.666667 -1361.000000 1342.333333 -1361.000000 1363.000000 -1361.000000 C 1385.000000 -1361.000000 1410.000000 -1361.666667 1438.000000 -1363.000000 C 1466.000000 -1364.333333 1491.666667 -1366.333333 1515.000000 -1369.000000 C 1515.000000 -1345.333333 1515.000000 -1321.666667 1515.000000 -1298.000000 C 1490.333333 -1300.666667 1464.333333 -1302.333333 1437.000000 -1303.000000 C 1409.666667 -1303.666667 1385.000000 -1304.000000 1363.000000 -1304.000000 C 1342.333333 -1304.000000 1306.000000 -1304.000000 1254.000000 -1304.000000 C 1202.666667 -1304.000000 1143.000000 -1304.000000 1075.000000 -1304.000000 C 1007.000000 -1304.000000 939.000000 -1304.000000 871.000000 -1304.000000 C 803.666667 -1304.000000 743.666667 -1304.000000 691.000000 -1304.000000 C 638.333333 -1304.000000 602.666667 -1304.000000 584.000000 -1304.000000 C 553.333333 -1304.000000 526.333333 -1303.666667 503.000000 -1303.000000 C 479.666667 -1302.333333 458.000000 -1300.666667 438.000000 -1298.000000 C 438.000000 -1321.666667 438.000000 -1345.333333 438.000000 -1369.000000z M 204.000000 -895.000000 C 228.000000 -893.666667 251.333333 -892.333333 274.000000 -891.000000 C 297.333333 -889.666667 323.666667 -889.000000 353.000000 -889.000000 C 367.000000 -889.000000 398.666667 -889.000000 448.000000 -889.000000 C 497.333333 -889.000000 557.666667 -889.000000 629.000000 -889.000000 C 701.000000 -889.000000 778.333333 -889.000000 861.000000 -889.000000 C 943.666667 -889.000000 1026.333333 -889.000000 1109.000000 -889.000000 C 1191.666667 -889.000000 1268.333333 -889.000000 1339.000000 -889.000000 C 1410.333333 -889.000000 1470.000000 -889.000000 1518.000000 -889.000000 C 1566.000000 -889.000000 1596.333333 -889.000000 1609.000000 -889.000000 C 1629.666667 -889.000000 1650.333333 -889.666667 1671.000000 -891.000000 C 1692.333333 -892.333333 1713.333333 -893.666667 1734.000000 -895.000000 C 1734.000000 -872.666667 1734.000000 -850.333333 1734.000000 -828.000000 C 1716.000000 -828.666667 1695.666667 -829.333333 1673.000000 -830.000000 C 1651.000000 -830.666667 1629.666667 -831.000000 1609.000000 -831.000000 C 1596.333333 -831.000000 1566.000000 -831.000000 1518.000000 -831.000000 C 1470.000000 -831.000000 1410.333333 -831.000000 1339.000000 -831.000000 C 1268.333333 -831.000000 1191.666667 -831.000000 1109.000000 -831.000000 C 1026.333333 -831.000000 943.666667 -831.000000 861.000000 -831.000000 C 778.333333 -831.000000 701.000000 -831.000000 629.000000 -831.000000 C 557.666667 -831.000000 497.333333 -831.000000 448.000000 -831.000000 C 398.666667 -831.000000 367.000000 -831.000000 353.000000 -831.000000 C 323.666667 -831.000000 297.666667 -831.000000 275.000000 -831.000000 C 253.000000 -831.000000 229.333333 -830.000000 204.000000 -828.000000 C 204.000000 -850.333333 204.000000 -872.666667 204.000000 -895.000000z M 1029.000000 -874.000000 C 1029.000000 -758.666667 1022.666667 -649.666667 1010.000000 -547.000000 C 997.333333 -445.000000 968.666667 -353.666667 924.000000 -273.000000 C 899.333333 -231.666667 867.666667 -190.666667 829.000000 -150.000000 C 791.000000 -110.000000 748.666667 -72.000000 702.000000 -36.000000 C 655.333333 -0.666667 605.666667 30.666667 553.000000 58.000000 C 533.666667 42.666667 514.333333 27.333333 495.000000 12.000000 C 575.666667 -24.000000 649.333333 -69.000000 716.000000 -123.000000 C 782.666667 -177.000000 834.666667 -236.333333 872.000000 -301.000000 C 920.666667 -380.333333 949.333333 -468.333333 958.000000 -565.000000 C 967.333333 -661.666667 972.333333 -764.666667 973.000000 -874.000000 C 991.666667 -874.000000 1010.333333 -874.000000 1029.000000 -874.000000z "/>
</g></svg>
