<?xml version="1.0" ?>
<svg xmlns="http://www.w3.org/2000/svg" version="1.1" width="600" height="600">
  <defs/>
  <g>
    <path stroke-width="0" fill="rgb(0, 0, 0)" opacity="1.0" d="M 319.0496826171875 134.04742431640625 C 318.4427490234375 137.23529052734375 317.7598876953125 141.86526489257812 317.0010986328125 147.9373779296875 C 316.2423095703125 153.857666015625 315.6353759765625 159.32257080078125 315.18017578125 164.33206176757812 C 313.0555419921875 179.96774291992188 310.93115234375 195.83111572265625 308.806640625 211.92221069335938 C 306.833984375 228.01327514648438 304.1024169921875 244.25616455078125 300.6121826171875 260.6508483886719 C 297.1219482421875 276.89373779296875 292.341796875 293.44024658203125 286.2718505859375 310.2903137207031 C 278.9879150390625 330.17645263671875 270.717529296875 348.84820556640625 261.4608154296875 366.3055419921875 C 252.3558349609375 383.7628173828125 242.5679931640625 399.1707763671875 232.0972900390625 412.5294189453125 C 221.62646484375 425.7362060546875 210.3212890625 436.058837890625 198.18115234375 443.4971923828125 C 186.041259765625 450.93548583984375 173.294189453125 454.6546630859375 159.9404296875 454.6546630859375 C 151.138916015625 454.6546630859375 143.32373046875 452.14990234375 136.4951171875 447.140380859375 C 129.666259765625 442.13092041015625 124.2791748046875 435.2998046875 120.333740234375 426.6470947265625 C 116.38818359375 417.842529296875 114.41552734375 407.5958251953125 114.41552734375 395.906982421875 C 114.41552734375 375.5654296875 117.5263671875 356.81787109375 123.748046875 339.66412353515625 C 130.12158203125 322.358642578125 138.2401123046875 306.5711669921875 148.1038818359375 292.30169677734375 C 155.0843505859375 281.2200927734375 164.189208984375 270.0626220703125 175.4188232421875 258.8292236328125 C 186.6483154296875 247.44403076171875 199.8505859375 236.96963500976562 215.025390625 227.40606689453125 C 230.2003173828125 217.69070434570312 247.1964111328125 209.87286376953125 266.0133056640625 203.95254516601562 C 284.9820556640625 197.88046264648438 305.8475341796875 194.84439086914062 328.6099853515625 194.84439086914062 C 344.3919677734375 194.84439086914062 359.56689453125 197.50094604492188 374.134765625 202.81402587890625 C 388.7027587890625 207.97531127929688 401.7532958984375 215.641357421875 413.2862548828125 225.8121337890625 C 424.970947265625 235.83111572265625 434.2276611328125 248.35482788085938 441.056396484375 263.38330078125 C 448.036865234375 278.4117431640625 451.527099609375 295.641357421875 451.527099609375 315.07208251953125 C 451.527099609375 338.7532958984375 449.478515625 360.00567626953125 445.3812255859375 378.8292236328125 C 441.283935546875 397.5009765625 435.062255859375 413.592041015625 426.716064453125 427.10247802734375 C 418.369873046875 440.4610595703125 407.9749755859375 450.6318359375 395.531494140625 457.61480712890625 C 383.23974609375 464.59771728515625 368.8236083984375 468.08917236328125 352.2828369140625 468.08917236328125 C 333.61767578125 468.08917236328125 318.8980712890625 463.6109619140625 308.123779296875 454.6546630859375 C 297.3494873046875 445.5465087890625 291.96240234375 433.5540771484375 291.96240234375 418.67742919921875 C 291.96240234375 409.41748046875 294.6180419921875 401.06829833984375 299.9293212890625 393.6300048828125 C 305.392333984375 386.191650390625 312.8280029296875 380.34722900390625 322.2364501953125 376.0968017578125 C 331.7967529296875 371.8463134765625 342.4949951171875 369.7210693359375 354.33154296875 369.7210693359375 C 370.4168701171875 369.7210693359375 385.2125244140625 372.30169677734375 398.71826171875 377.4630126953125 C 412.2239990234375 382.47247314453125 424.5157470703125 388.84820556640625 435.5933837890625 396.59014892578125 C 446.6710205078125 404.33203125 456.4588623046875 412.3775634765625 464.9569091796875 420.72674560546875 C 473.4549560546875 429.075927734375 480.5870361328125 436.59014892578125 486.3536376953125 443.2694091796875 C 483.1668701171875 447.292236328125 479.9801025390625 451.31500244140625 476.7933349609375 455.3377685546875 C 471.1787109375 448.3548583984375 464.2740478515625 440.6888427734375 456.07958984375 432.33966064453125 C 448.036865234375 423.8387451171875 438.8560791015625 415.71728515625 428.5369873046875 407.975341796875 C 418.218017578125 400.2333984375 406.8367919921875 393.93359375 394.3934326171875 389.075927734375 C 381.949951171875 384.06640625 368.595947265625 381.5616455078125 354.33154296875 381.5616455078125 C 337.4873046875 381.5616455078125 324.8162841796875 385.508544921875 316.3182373046875 393.40228271484375 C 307.9720458984375 401.2960205078125 303.7989501953125 409.56927490234375 303.7989501953125 418.2220458984375 C 303.7989501953125 429.3035888671875 308.0478515625 438.4117431640625 316.5458984375 445.5465087890625 C 325.195556640625 452.68121337890625 337.10791015625 456.24853515625 352.2828369140625 456.24853515625 C 368.8236083984375 456.24853515625 382.6328125 452.4534912109375 393.7105712890625 444.8634033203125 C 404.7882080078125 437.1214599609375 413.5897216796875 426.6470947265625 420.114990234375 413.440185546875 C 426.64013671875 400.08160400390625 431.344482421875 384.97723388671875 434.2276611328125 368.12713623046875 C 437.2626953125 351.125244140625 438.7801513671875 333.592041015625 438.7801513671875 315.52752685546875 C 438.7801513671875 302.47247314453125 436.50390625 289.49334716796875 431.951416015625 276.59014892578125 C 427.39892578125 263.53509521484375 420.4942626953125 251.7703857421875 411.237548828125 241.2960205078125 C 402.132568359375 230.82162475585938 390.675537109375 222.47247314453125 376.8663330078125 216.24856567382812 C 363.05712890625 209.87286376953125 346.8199462890625 206.68499755859375 328.1546630859375 206.68499755859375 C 304.0264892578125 206.68499755859375 281.26416015625 210.55596923828125 259.867431640625 218.29791259765625 C 238.470703125 226.03985595703125 219.0467529296875 236.89373779296875 201.5955810546875 250.85955810546875 C 184.296142578125 264.825439453125 169.50048828125 281.2960205078125 157.2088623046875 300.2713623046875 C 150.2283935546875 311.3529357910156 144.4619140625 322.0550537109375 139.909423828125 332.37762451171875 C 135.508544921875 342.7001953125 132.170166015625 353.02276611328125 129.8939208984375 363.3453369140625 C 127.76953125 373.51611328125 126.707275390625 384.21820068359375 126.707275390625 395.45159912109375 C 126.707275390625 409.87286376953125 130.2733154296875 421.258056640625 137.405517578125 429.607177734375 C 144.537841796875 437.8045654296875 151.8975830078125 441.9031982421875 159.485107421875 441.9031982421875 C 170.8663330078125 441.9031982421875 181.9439697265625 438.4876708984375 192.71826171875 431.65655517578125 C 203.492431640625 424.825439453125 213.8114013671875 415.18597412109375 223.6751708984375 402.7381591796875 C 233.690673828125 390.1385498046875 243.1749267578125 375.48956298828125 252.128173828125 358.791259765625 C 261.233154296875 341.941162109375 269.4276123046875 323.57305908203125 276.711669921875 303.6868896484375 C 281.567626953125 290.024658203125 285.6649169921875 275.07208251953125 289.0032958984375 258.8292236328125 C 292.341796875 242.43450927734375 294.9974365234375 226.191650390625 296.97021484375 210.10055541992188 C 299.0947265625 193.857666015625 300.763916015625 179.28460693359375 301.9779052734375 166.38140869140625 C 302.5848388671875 160.91650390625 302.888427734375 155.6033935546875 302.888427734375 150.44210815429688 C 302.888427734375 145.1290283203125 302.5848388671875 139.36053466796875 301.9779052734375 133.13662719726562 C 307.6685791015625 133.44024658203125 313.359130859375 133.74380493164062 319.0496826171875 134.04742431640625M 153.79443359375 175.2618408203125 C 156.677734375 187.70965576171875 160.471435546875 201.06832885742188 165.17578125 215.3377685546875 C 169.8798828125 229.607177734375 174.811767578125 243.57305908203125 179.97119140625 257.23529052734375 C 185.282470703125 270.7457275390625 190.21435546875 283.19354248046875 194.766845703125 294.5787353515625 C 199.4710693359375 305.96392822265625 203.41650390625 315.14801025390625 206.603271484375 322.13092041015625 C 211.004150390625 331.6944580078125 216.6947021484375 342.54840087890625 223.6751708984375 354.692626953125 C 230.6556396484375 366.8367919921875 237.6361083984375 377.23529052734375 244.6165771484375 385.8880615234375 C 242.34033203125 389.2276611328125 240.0640869140625 392.5673828125 237.787841796875 395.906982421875 C 233.0836181640625 390.442138671875 228.0 383.6868896484375 222.5369873046875 375.641357421875 C 217.225830078125 367.5958251953125 212.2939453125 359.474365234375 207.741455078125 351.27703857421875 C 203.18896484375 342.9278564453125 199.3193359375 335.41363525390625 196.132568359375 328.734375 C 192.3388671875 319.9297790527344 187.71044921875 308.9241027832031 182.24755859375 295.71728515625 C 176.936279296875 282.358642578125 171.700927734375 268.77227783203125 166.54150390625 254.958251953125 C 161.53369140625 241.14422607421875 157.4365234375 229.3035888671875 154.249755859375 219.43643188476562 C 152.7322998046875 214.12332153320312 151.138916015625 209.11383056640625 149.4696044921875 204.407958984375 C 147.9521484375 199.55026245117188 146.35888671875 195.07211303710938 144.689453125 190.97341918945312 C 143.172119140625 186.874755859375 141.73046875 183.23150634765625 140.3646240234375 180.04364013671875 C 144.84130859375 178.44970703125 149.31787109375 176.85577392578125 153.79443359375 175.2618408203125"/>
  </g>
</svg>
