<?xml version="1.0" encoding="utf-8"?>
<svg xmlns="http://www.w3.org/2000/svg" xmlns:ev="http://www.w3.org/2001/xml-events" xmlns:xlink="http://www.w3.org/1999/xlink" version="1.1" baseProfile="full" width="17092.0" height="1734.0" viewBox="113.0 -1596.0 17092.0 1734.0">
<defs/>
<g><path d="M 2145.000000 -1400.000000 C 2639.000000 -1400.000000 3133.000000 -1400.000000 3627.000000 -1400.000000 C 3627.000000 -1381.333333 3627.000000 -1362.666667 3627.000000 -1344.000000 C 3133.000000 -1344.000000 2639.000000 -1344.000000 2145.000000 -1344.000000 C 2145.000000 -1362.666667 2145.000000 -1381.333333 2145.000000 -1400.000000z M 2033.000000 -939.000000 C 2598.333333 -939.000000 3163.666667 -939.000000 3729.000000 -939.000000 C 3729.000000 -920.333333 3729.000000 -901.666667 3729.000000 -883.000000 C 3163.666667 -883.000000 2598.333333 -883.000000 2033.000000 -883.000000 C 2033.000000 -901.666667 2033.000000 -920.333333 2033.000000 -939.000000z M 2352.000000 -338.000000 C 2710.333333 -338.000000 3068.666667 -338.000000 3427.000000 -338.000000 C 3427.000000 -318.666667 3427.000000 -299.333333 3427.000000 -280.000000 C 3068.666667 -280.000000 2710.333333 -280.000000 2352.000000 -280.000000 C 2352.000000 -299.333333 2352.000000 -318.666667 2352.000000 -338.000000z M 2356.000000 2.000000 C 2714.333333 2.000000 3072.666667 2.000000 3431.000000 2.000000 C 3431.000000 20.666667 3431.000000 39.333333 3431.000000 58.000000 C 3072.666667 58.000000 2714.333333 58.000000 2356.000000 58.000000 C 2356.000000 39.333333 2356.000000 20.666667 2356.000000 2.000000z M 2849.000000 -1596.000000 C 2868.333333 -1596.000000 2887.666667 -1596.000000 2907.000000 -1596.000000 C 2907.000000 -1523.000000 2907.000000 -1450.000000 2907.000000 -1377.000000 C 2887.666667 -1377.000000 2868.333333 -1377.000000 2849.000000 -1377.000000 C 2849.000000 -1450.000000 2849.000000 -1523.000000 2849.000000 -1596.000000z M 2325.000000 -664.000000 C 2700.666667 -664.000000 3076.333333 -664.000000 3452.000000 -664.000000 C 3452.000000 -399.000000 3452.000000 -134.000000 3452.000000 131.000000 C 3433.333333 131.000000 3414.666667 131.000000 3396.000000 131.000000 C 3396.000000 -115.666667 3396.000000 -362.333333 3396.000000 -609.000000 C 3057.666667 -609.000000 2719.333333 -609.000000 2381.000000 -609.000000 C 2381.000000 -360.000000 2381.000000 -111.000000 2381.000000 138.000000 C 2362.333333 138.000000 2343.666667 138.000000 2325.000000 138.000000 C 2325.000000 -129.333333 2325.000000 -396.666667 2325.000000 -664.000000z M 3293.000000 -1317.000000 C 3311.000000 -1310.000000 3329.000000 -1303.000000 3347.000000 -1296.000000 C 3321.000000 -1240.666667 3291.333333 -1181.666667 3258.000000 -1119.000000 C 3224.666667 -1056.333333 3193.333333 -1002.666667 3164.000000 -958.000000 C 3148.666667 -965.000000 3133.333333 -972.000000 3118.000000 -979.000000 C 3138.666667 -1008.333333 3159.666667 -1043.000000 3181.000000 -1083.000000 C 3203.000000 -1123.666667 3224.000000 -1164.333333 3244.000000 -1205.000000 C 3264.000000 -1246.333333 3280.333333 -1283.666667 3293.000000 -1317.000000z M 2431.000000 -1294.000000 C 2447.000000 -1299.666667 2463.000000 -1305.333333 2479.000000 -1311.000000 C 2514.333333 -1260.333333 2545.333333 -1203.666667 2572.000000 -1141.000000 C 2599.333333 -1079.000000 2617.666667 -1025.666667 2627.000000 -981.000000 C 2608.333333 -974.000000 2589.666667 -967.000000 2571.000000 -960.000000 C 2561.666667 -1007.333333 2544.333333 -1062.000000 2519.000000 -1124.000000 C 2493.666667 -1186.000000 2464.333333 -1242.666667 2431.000000 -1294.000000z "/>
</g></svg>
