<?xml version="1.0" ?>
<svg xmlns="http://www.w3.org/2000/svg" version="1.1" width="600" height="600">
  <defs/>
  <g>
    <path stroke-width="0" fill="rgb(0, 0, 0)" opacity="1.0" d="M 433.971435546875 172.20687866210938 C 433.281982421875 174.137939453125 432.730224609375 175.7930908203125 432.316650390625 177.17239379882812 C 431.90283203125 178.41378784179688 431.420166015625 180.89654541015625 430.86865234375 184.62066650390625 C 429.07568359375 195.6551513671875 426.386474609375 207.7930908203125 422.801025390625 221.03448486328125 C 419.215576171875 234.27584838867188 414.871337890625 247.72412109375 409.768798828125 261.3793029785156 C 404.80419921875 275.03448486328125 399.150146484375 288.0689697265625 392.80615234375 300.4827880859375 C 386.46240234375 312.75860595703125 379.567138671875 323.5172119140625 372.1201171875 332.75860595703125 C 359.984375 347.7930908203125 346.88330078125 361.72412109375 332.816650390625 374.5517578125 C 318.750244140625 387.2413330078125 302.477294921875 398.689697265625 283.997802734375 408.89654541015625 C 265.656005859375 418.96551513671875 244.07373046875 427.862060546875 219.25048828125 435.586181640625 C 215.6650390625 431.586181640625 212.079345703125 427.586181640625 208.49365234375 423.586181640625 C 233.5927734375 416.82757568359375 255.450927734375 408.689697265625 274.068359375 399.17242431640625 C 292.823974609375 389.5172119140625 309.37255859375 378.5517578125 323.71484375 366.27587890625 C 338.195068359375 354.0 351.158447265625 340.413818359375 362.604736328125 325.5172119140625 C 372.671875 312.5517578125 381.56689453125 297.3792724609375 389.28955078125 280.0 C 397.150390625 262.48272705078125 403.700927734375 244.82757568359375 408.94140625 227.03448486328125 C 414.31982421875 209.10345458984375 417.9052734375 193.10345458984375 419.697998046875 179.03448486328125 C 415.974609375 179.03448486328125 408.3896484375 179.03448486328125 396.943359375 179.03448486328125 C 385.635009765625 179.03448486328125 372.1201171875 179.03448486328125 356.39892578125 179.03448486328125 C 340.677490234375 179.03448486328125 324.197509765625 179.03448486328125 306.959228515625 179.03448486328125 C 289.720947265625 179.03448486328125 273.37890625 179.03448486328125 257.933349609375 179.03448486328125 C 242.48779296875 179.03448486328125 229.38671875 179.03448486328125 218.6298828125 179.03448486328125 C 207.873291015625 179.03448486328125 201.184814453125 179.03448486328125 198.564453125 179.03448486328125 C 191.94482421875 179.03448486328125 186.2216796875 179.10345458984375 181.39501953125 179.24136352539062 C 176.7060546875 179.37930297851562 171.810546875 179.586181640625 166.7080078125 179.862060546875 C 166.7080078125 175.03445434570312 166.7080078125 170.2069091796875 166.7080078125 165.37930297851562 C 170.15576171875 165.65518188476562 173.465576171875 166.0 176.63720703125 166.41378784179688 C 179.80908203125 166.82757568359375 183.2568359375 167.10345458984375 186.980224609375 167.24136352539062 C 190.703857421875 167.37930297851562 194.703125 167.44827270507812 198.978271484375 167.44827270507812 C 201.046875 167.44827270507812 206.21826171875 167.44827270507812 214.49267578125 167.44827270507812 C 222.905029296875 167.44827270507812 233.248046875 167.44827270507812 245.521728515625 167.44827270507812 C 257.933349609375 167.44827270507812 271.2412109375 167.44827270507812 285.44580078125 167.44827270507812 C 299.7880859375 167.44827270507812 313.992431640625 167.44827270507812 328.05908203125 167.44827270507812 C 342.263427734375 167.44827270507812 355.433349609375 167.44827270507812 367.5693359375 167.44827270507812 C 379.843017578125 167.44827270507812 390.048095703125 167.44827270507812 398.1845703125 167.44827270507812 C 406.458984375 167.44827270507812 411.5615234375 167.44827270507812 413.4921875 167.44827270507812 C 415.560791015625 167.44827270507812 417.422607421875 167.37930297851562 419.077392578125 167.24136352539062 C 420.870361328125 167.10345458984375 422.801025390625 166.75860595703125 424.86962890625 166.20687866210938 C 427.903564453125 168.20687866210938 430.9375 170.2069091796875 433.971435546875 172.20687866210938"/>
  </g>
</svg>
