<?xml version="1.0" ?>
<svg xmlns="http://www.w3.org/2000/svg" version="1.1" width="600" height="600">
  <defs/>
  <g>
    <path stroke-width="0" fill="rgb(0, 0, 0)" opacity="1.0" d="M 141.3348388671875 153.17300415039062 C 169.63525390625 153.17300415039062 197.9356689453125 153.17300415039062 226.236083984375 153.17300415039062 C 226.236083984375 223.34600830078125 226.236083984375 293.51904296875 226.236083984375 363.6920166015625 C 197.9356689453125 363.6920166015625 169.63525390625 363.6920166015625 141.3348388671875 363.6920166015625 C 141.3348388671875 359.67822265625 141.3348388671875 355.66436767578125 141.3348388671875 351.6505126953125 C 165.6219482421875 351.6505126953125 189.9091796875 351.6505126953125 214.1962890625 351.6505126953125 C 214.1962890625 289.3667907714844 214.1962890625 227.08306884765625 214.1962890625 164.79931640625 C 189.9091796875 164.79931640625 165.6219482421875 164.79931640625 141.3348388671875 164.79931640625 C 141.3348388671875 160.92388916015625 141.3348388671875 157.04843139648438 141.3348388671875 153.17300415039062M 136.9755859375 153.17300415039062 C 140.919677734375 153.17300415039062 144.86376953125 153.17300415039062 148.807861328125 153.17300415039062 C 148.807861328125 237.0484619140625 148.807861328125 320.92388916015625 148.807861328125 404.79931640625 C 144.86376953125 404.79931640625 140.919677734375 404.79931640625 136.9755859375 404.79931640625 C 136.9755859375 320.92388916015625 136.9755859375 237.0484619140625 136.9755859375 153.17300415039062M 260.90234375 371.16607666015625 C 326.63671875 371.16607666015625 392.37109375 371.16607666015625 458.105712890625 371.16607666015625 C 458.105712890625 375.04150390625 458.105712890625 378.9169921875 458.105712890625 382.7923583984375 C 392.37109375 382.7923583984375 326.63671875 382.7923583984375 260.90234375 382.7923583984375 C 260.90234375 378.9169921875 260.90234375 375.04150390625 260.90234375 371.16607666015625M 260.90234375 441.339111328125 C 326.63671875 441.339111328125 392.37109375 441.339111328125 458.105712890625 441.339111328125 C 458.105712890625 445.21453857421875 458.105712890625 449.0899658203125 458.105712890625 452.96539306640625 C 392.37109375 452.96539306640625 326.63671875 452.96539306640625 260.90234375 452.96539306640625 C 260.90234375 449.0899658203125 260.90234375 445.21453857421875 260.90234375 441.339111328125M 255.712890625 303.899658203125 C 325.46044921875 303.899658203125 395.208251953125 303.899658203125 464.9560546875 303.899658203125 C 464.9560546875 358.9169921875 464.9560546875 413.93426513671875 464.9560546875 468.9515380859375 C 460.94287109375 468.9515380859375 456.92919921875 468.9515380859375 452.916015625 468.9515380859375 C 452.916015625 417.8096923828125 452.916015625 366.6678466796875 452.916015625 315.52593994140625 C 391.125732421875 315.52593994140625 329.33544921875 315.52593994140625 267.544921875 315.52593994140625 C 267.544921875 367.1522216796875 267.544921875 418.778564453125 267.544921875 470.40484619140625 C 263.60107421875 470.40484619140625 259.65673828125 470.40484619140625 255.712890625 470.40484619140625 C 255.712890625 414.903076171875 255.712890625 359.4013671875 255.712890625 303.899658203125M 281.66064453125 205.4913330078125 C 281.66064453125 222.72320556640625 281.66064453125 239.95501708984375 281.66064453125 257.1868591308594 C 333.55615234375 257.1868591308594 385.451904296875 257.1868591308594 437.34765625 257.1868591308594 C 437.34765625 239.95501708984375 437.34765625 222.72320556640625 437.34765625 205.4913330078125 C 385.451904296875 205.4913330078125 333.55615234375 205.4913330078125 281.66064453125 205.4913330078125M 281.66064453125 142.37716674804688 C 281.66064453125 159.539794921875 281.66064453125 176.70242309570312 281.66064453125 193.86505126953125 C 333.55615234375 193.86505126953125 385.451904296875 193.86505126953125 437.34765625 193.86505126953125 C 437.34765625 176.70242309570312 437.34765625 159.539794921875 437.34765625 142.37716674804688 C 385.451904296875 142.37716674804688 333.55615234375 142.37716674804688 281.66064453125 142.37716674804688M 270.0361328125 130.95846557617188 C 329.68115234375 130.95846557617188 389.32666015625 130.95846557617188 448.97216796875 130.95846557617188 C 448.97216796875 177.04843139648438 448.97216796875 223.138427734375 448.97216796875 269.2283935546875 C 389.32666015625 269.2283935546875 329.68115234375 269.2283935546875 270.0361328125 269.2283935546875 C 270.0361328125 223.138427734375 270.0361328125 177.04843139648438 270.0361328125 130.95846557617188"/>
  </g>
</svg>
