<?xml version="1.0" ?>
<svg xmlns="http://www.w3.org/2000/svg" version="1.1" width="600" height="600">
  <defs/>
  <g>
    <path stroke-width="0" fill="rgb(0, 0, 0)" opacity="1.0" d="M 165.481201171875 269.4473876953125 C 200.73828125 269.4473876953125 235.99560546875 269.4473876953125 271.252685546875 269.4473876953125 C 271.252685546875 273.38067626953125 271.252685546875 277.31396484375 271.252685546875 281.24725341796875 C 235.99560546875 281.24725341796875 200.73828125 281.24725341796875 165.481201171875 281.24725341796875 C 165.481201171875 277.31396484375 165.481201171875 273.38067626953125 165.481201171875 269.4473876953125M 266.077880859375 269.4473876953125 C 269.941650390625 269.4473876953125 273.805419921875 269.4473876953125 277.669189453125 269.4473876953125 C 277.669189453125 269.4473876953125 277.669189453125 269.930419921875 277.669189453125 270.896484375 C 277.669189453125 271.72454833984375 277.669189453125 272.82861328125 277.669189453125 274.208740234375 C 277.669189453125 275.4508361816406 277.669189453125 276.48590087890625 277.669189453125 277.31396484375 C 276.84130859375 308.78033447265625 275.944580078125 333.96722412109375 274.978515625 352.8746337890625 C 274.012451171875 371.64404296875 272.7705078125 385.652099609375 271.252685546875 394.8988037109375 C 269.87255859375 404.1455078125 267.871826171875 410.4249267578125 265.25 413.7371826171875 C 262.904052734375 416.0833740234375 260.2822265625 417.8084716796875 257.38427734375 418.91259765625 C 254.486572265625 419.878662109375 250.3466796875 420.499755859375 244.965087890625 420.7757568359375 C 239.997314453125 421.0517578125 233.028564453125 421.0517578125 224.05908203125 420.7757568359375 C 215.2275390625 420.499755859375 205.775146484375 419.9476318359375 195.70166015625 419.11962890625 C 195.425537109375 417.60150146484375 195.01171875 415.807373046875 194.459716796875 413.7371826171875 C 194.045654296875 411.529052734375 193.28662109375 409.6658935546875 192.182861328125 408.1478271484375 C 203.084228515625 409.1138916015625 213.295654296875 409.6658935546875 222.817138671875 409.80389404296875 C 232.338623046875 409.94189453125 238.82421875 410.01092529296875 242.274169921875 410.01092529296875 C 245.171875 410.01092529296875 247.65576171875 409.80389404296875 249.725830078125 409.389892578125 C 251.93359375 408.975830078125 253.658447265625 408.009765625 254.900390625 406.49169921875 C 257.246337890625 403.8695068359375 259.109130859375 398.072998046875 260.4892578125 389.10235595703125 C 261.869140625 379.99365234375 262.97314453125 366.1236572265625 263.801025390625 347.49224853515625 C 264.76708984375 328.72283935546875 265.52587890625 303.60498046875 266.077880859375 272.1385803222656 C 266.077880859375 271.24151611328125 266.077880859375 270.34442138671875 266.077880859375 269.4473876953125M 370.193603515625 135.71536254882812 C 372.6083984375 133.09317016601562 375.023193359375 130.470947265625 377.438232421875 127.8487548828125 C 386.68359375 132.40310668945312 396.274169921875 137.50946044921875 406.209716796875 143.16790771484375 C 416.14501953125 148.82635498046875 425.390625 154.55377197265625 433.9462890625 160.35018920898438 C 442.6396484375 166.00863647460938 449.746337890625 171.18402099609375 455.26611328125 175.87637329101562 C 452.9892578125 178.84359741210938 450.71240234375 181.810791015625 448.435546875 184.77801513671875 C 442.91552734375 179.94766235351562 435.740234375 174.63427734375 426.908447265625 168.83782958984375 C 418.215087890625 163.04141235351562 408.969482421875 157.24496459960938 399.171875 151.44851684570312 C 389.37451171875 145.51409912109375 379.715087890625 140.26968383789062 370.193603515625 135.71536254882812M 437.258056640625 249.15985107421875 C 441.121826171875 250.1949462890625 444.985595703125 251.23001098632812 448.849365234375 252.26507568359375 C 431.600341796875 304.156982421875 408.003662109375 348.52734375 378.05908203125 385.3760986328125 C 348.114501953125 422.224853515625 312.236572265625 452.587158203125 270.424560546875 476.462890625 C 269.87255859375 475.6348876953125 268.975830078125 474.5997314453125 267.73388671875 473.357666015625 C 266.6298828125 472.25360107421875 265.52587890625 471.08050537109375 264.421875 469.83837890625 C 263.4560546875 468.73431396484375 262.421142578125 467.76824951171875 261.317138671875 466.940185546875 C 303.680908203125 444.72052001953125 339.55908203125 415.3243408203125 368.95166015625 378.7515869140625 C 398.343994140625 342.1788330078125 421.11279296875 298.9815979003906 437.258056640625 249.15985107421875M 167.551025390625 196.16387939453125 C 270.49365234375 196.16387939453125 373.436279296875 196.16387939453125 476.37890625 196.16387939453125 C 476.37890625 200.02816772460938 476.37890625 203.8924560546875 476.37890625 207.75677490234375 C 373.436279296875 207.75677490234375 270.49365234375 207.75677490234375 167.551025390625 207.75677490234375 C 167.551025390625 203.8924560546875 167.551025390625 200.02816772460938 167.551025390625 196.16387939453125M 160.720458984375 196.16387939453125 C 164.72216796875 196.16387939453125 168.72412109375 196.16387939453125 172.725830078125 196.16387939453125 C 172.725830078125 231.97756958007812 172.725830078125 267.791259765625 172.725830078125 303.60498046875 C 172.725830078125 316.85394287109375 172.173828125 331.0689697265625 171.06982421875 346.2501220703125 C 169.966064453125 361.29327392578125 168.033935546875 376.681396484375 165.274169921875 392.41461181640625 C 162.514404296875 408.1478271484375 158.305419921875 423.4669189453125 152.647705078125 438.3720703125 C 147.1279296875 453.13916015625 139.74560546875 466.8712158203125 130.5 479.568115234375 C 129.947998046875 478.7401123046875 129.051025390625 477.843017578125 127.80908203125 476.876953125 C 126.705322265625 476.04888916015625 125.5322265625 475.2208251953125 124.290283203125 474.39276123046875 C 123.186279296875 473.70269775390625 122.082275390625 473.0816650390625 120.978515625 472.52960205078125 C 132.98388671875 455.830322265625 141.746337890625 437.6820068359375 147.26611328125 418.08453369140625 C 152.785888671875 398.487060546875 156.37353515625 378.7515869140625 158.029541015625 358.8780517578125 C 159.823486328125 339.004638671875 160.720458984375 320.44219970703125 160.720458984375 303.19091796875 C 160.720458984375 267.5152587890625 160.720458984375 231.83956909179688 160.720458984375 196.16387939453125M 329.62353515625 121.4312744140625 C 333.625244140625 121.4312744140625 337.627197265625 121.4312744140625 341.62890625 121.4312744140625 C 341.90478515625 162.2823486328125 343.698974609375 200.30419921875 347.0107421875 235.496826171875 C 350.322509765625 270.55145263671875 355.014404296875 302.15582275390625 361.0859375 330.3099365234375 C 367.157470703125 358.3260498046875 374.471435546875 382.2708740234375 383.02685546875 402.14434814453125 C 391.720458984375 422.017822265625 401.3798828125 437.2679443359375 412.00537109375 447.894775390625 C 422.768798828125 458.383544921875 434.42919921875 463.6279296875 446.986572265625 463.6279296875 C 453.748291015625 463.6279296875 458.646728515625 457.83154296875 461.682861328125 446.2386474609375 C 464.8564453125 434.50775146484375 466.926513671875 414.77227783203125 467.892333984375 387.0322265625 C 469.2724609375 388.13629150390625 471.066162109375 389.2403564453125 473.274169921875 390.344482421875 C 475.619873046875 391.310546875 477.552001953125 392.069580078125 479.06982421875 392.62158203125 C 477.966064453125 413.32318115234375 476.37890625 429.74639892578125 474.30908203125 441.891357421875 C 472.2392578125 454.0362548828125 468.996337890625 462.7308349609375 464.58056640625 467.97528076171875 C 460.164794921875 473.357666015625 454.024169921875 476.04888916015625 446.158447265625 476.04888916015625 C 433.60107421875 476.04888916015625 422.009765625 471.9085693359375 411.38427734375 463.6279296875 C 400.896728515625 455.4853515625 391.375244140625 443.823486328125 382.81982421875 428.642333984375 C 374.402099609375 413.32318115234375 366.95068359375 395.03680419921875 360.465087890625 373.783203125 C 353.9794921875 352.3916015625 348.459716796875 328.51580810546875 343.90576171875 302.15582275390625 C 339.490234375 275.7958679199219 336.040283203125 247.36572265625 333.556396484375 216.86541748046875 C 331.210693359375 186.36514282226562 329.8994140625 154.55377197265625 329.62353515625 121.4312744140625"/>
  </g>
</svg>
