<?xml version="1.0" ?>
<svg xmlns="http://www.w3.org/2000/svg" version="1.1" width="600" height="600">
  <defs/>
  <g>
    <path stroke-width="0" fill="rgb(0, 0, 0)" opacity="1.0" d="M 154.3831787109375 271.73040771484375 C 153.986083984375 272.0989990234375 153.35076904296875 272.69146728515625 152.4771728515625 273.5076904296875 C 151.60357666015625 274.29766845703125 150.96823120117188 274.876953125 150.57113647460938 275.24560546875 C 149.194580078125 276.50946044921875 147.48709106445312 278.01031494140625 145.44869995117188 279.7481689453125 C 143.43679809570312 281.4859619140625 141.29251098632812 283.2764892578125 139.015869140625 285.11962890625 C 136.76571655273438 286.9627685546875 134.58172607421875 288.7401123046875 132.46392822265625 290.45166015625 C 130.34613037109375 292.1368408203125 128.53274536132812 293.611328125 127.02383422851562 294.875244140625 C 125.32958984375 296.3497314453125 124.17803955078125 297.5872802734375 123.56915283203125 298.587890625 C 122.96029663085938 299.5621337890625 122.9735107421875 300.536376953125 123.60885620117188 301.5106201171875 C 124.24420166015625 302.48486328125 125.50164794921875 303.7618408203125 127.38119506835938 305.34173583984375 C 129.02249145507812 306.65826416015625 130.80938720703125 308.1064453125 132.74188232421875 309.686279296875 C 134.67437744140625 311.2398681640625 136.65982055664062 312.885498046875 138.69821166992188 314.62335205078125 C 140.7630615234375 316.3612060546875 142.84115600585938 318.1517333984375 144.9324951171875 319.994873046875 C 147.02383422851562 321.8116455078125 149.04898071289062 323.64166259765625 151.0079345703125 325.48486328125 C 152.9669189453125 327.3280029296875 154.7802734375 329.1053466796875 156.44805908203125 330.81683349609375 C 155.78622436523438 331.3961181640625 155.12442016601562 331.975341796875 154.46261596679688 332.5546875 C 153.40371704101562 331.34344482421875 152.13302612304688 330.0006103515625 150.65057373046875 328.5260009765625 C 149.11514282226562 327.025146484375 147.27532958984375 325.300537109375 145.13104248046875 323.35205078125 C 143.01324462890625 321.403564453125 140.77630615234375 319.41552734375 138.42025756835938 317.3880615234375 C 136.064208984375 315.33428955078125 133.74783325195312 313.3594970703125 131.47122192382812 311.463623046875 C 129.22103881835938 309.56787109375 127.18264770507812 307.8826904296875 125.35604858398438 306.40814208984375 C 123.05294799804688 304.53863525390625 121.61019897460938 302.94561767578125 121.02780151367188 301.62908935546875 C 120.44540405273438 300.3125 120.56451416015625 299.0091552734375 121.38516235351562 297.71893310546875 C 122.2322998046875 296.4287109375 123.675048828125 294.9278564453125 125.71343994140625 293.21636962890625 C 127.08999633789062 292.05780029296875 128.82394409179688 290.635986328125 130.915283203125 288.9508056640625 C 133.0330810546875 287.2392578125 135.2435302734375 285.43560791015625 137.54666137695312 283.539794921875 C 139.87625122070312 281.6439208984375 142.07345581054688 279.81396484375 144.1383056640625 278.0498046875 C 146.20318603515625 276.28564453125 147.87094116210938 274.71893310546875 149.14163208007812 273.3497314453125 C 149.53872680664062 272.87579345703125 150.04168701171875 272.2701416015625 150.65057373046875 271.53289794921875 C 151.25942993164062 270.769287109375 151.69622802734375 270.13739013671875 151.9609375 269.6370849609375 C 152.76837158203125 270.3348388671875 153.57577514648438 271.0325927734375 154.3831787109375 271.73040771484375"/>
    <path stroke-width="0" fill="rgb(0, 0, 0)" opacity="1.0" d="M 222.92059326171875 270.62451171875 C 222.92059326171875 270.75616455078125 222.89410400390625 271.0325927734375 222.84115600585938 271.45391845703125 C 222.7882080078125 271.848876953125 222.74850463867188 272.25701904296875 222.7220458984375 272.6783447265625 C 222.695556640625 273.0732421875 222.68231201171875 273.38922119140625 222.68231201171875 273.626220703125 C 222.62939453125 274.6004638671875 222.6029052734375 275.89068603515625 222.6029052734375 277.496826171875 C 222.6029052734375 279.07666015625 222.6029052734375 280.8145751953125 222.6029052734375 282.7103271484375 C 222.6029052734375 284.606201171875 222.61614990234375 286.51513671875 222.64260864257812 288.43731689453125 C 222.66909790039062 290.3594970703125 222.695556640625 292.17626953125 222.7220458984375 293.8878173828125 C 222.74850463867188 295.59930419921875 222.76174926757812 297.0606689453125 222.76174926757812 298.2718505859375 C 222.06021118164062 297.3897705078125 221.35870361328125 296.5076904296875 220.65716552734375 295.6256103515625 C 220.65716552734375 295.230712890625 220.65716552734375 294.37493896484375 220.65716552734375 293.058349609375 C 220.65716552734375 291.7418212890625 220.64395141601562 290.1619873046875 220.61746215820312 288.31884765625 C 220.59100341796875 286.4757080078125 220.56451416015625 284.593017578125 220.53805541992188 282.6708984375 C 220.51156616210938 280.74871826171875 220.485107421875 278.98455810546875 220.4586181640625 277.37835693359375 C 220.43215942382812 275.745849609375 220.3924560546875 274.4951171875 220.33950805664062 273.626220703125 C 220.33950805664062 273.12591552734375 220.2998046875 272.533447265625 220.22039794921875 271.848876953125 C 220.14096069335938 271.164306640625 220.07476806640625 270.75616455078125 220.0218505859375 270.62451171875 C 220.98809814453125 270.62451171875 221.954345703125 270.62451171875 222.92059326171875 270.62451171875M 185.03839111328125 282.27587890625 C 186.91793823242188 282.2232666015625 189.08868408203125 282.15740966796875 191.55062866210938 282.07843017578125 C 194.0125732421875 281.97308349609375 196.67306518554688 281.8677978515625 199.5321044921875 281.762451171875 C 202.4176025390625 281.6571044921875 205.395751953125 281.56494140625 208.46658325195312 281.4859619140625 C 211.53738403320312 281.406982421875 214.58172607421875 281.3411865234375 217.599609375 281.2884521484375 C 220.64395141601562 281.23583984375 223.56915283203125 281.20947265625 226.375244140625 281.20947265625 C 229.0489501953125 281.20947265625 231.51092529296875 281.22265625 233.76107788085938 281.2490234375 C 236.0377197265625 281.27532958984375 238.04962158203125 281.2884521484375 239.79681396484375 281.2884521484375 C 241.57049560546875 281.2884521484375 243.0926513671875 281.3016357421875 244.36334228515625 281.3280029296875 C 245.634033203125 281.35430908203125 246.63995361328125 281.36749267578125 247.38119506835938 281.36749267578125 C 247.38119506835938 282.131103515625 247.38119506835938 282.8946533203125 247.38119506835938 283.65826416015625 C 245.50164794921875 283.552978515625 242.93380737304688 283.4739990234375 239.67767333984375 283.4212646484375 C 236.44805908203125 283.36865234375 232.02713012695312 283.34228515625 226.41494750976562 283.34228515625 C 223.31765747070312 283.34228515625 219.98211669921875 283.36865234375 216.4083251953125 283.4212646484375 C 212.83453369140625 283.4739990234375 209.1680908203125 283.56610107421875 205.40899658203125 283.69775390625 C 201.67636108398438 283.82940673828125 198.0628662109375 284.0006103515625 194.5684814453125 284.211181640625 C 191.1005859375 284.3955078125 187.95034790039062 284.619384765625 185.1177978515625 284.8826904296875 C 185.09130859375 284.01373291015625 185.06484985351562 283.144775390625 185.03839111328125 282.27587890625M 223.75445556640625 303.88037109375 C 223.75445556640625 306.513427734375 223.26470947265625 308.7252197265625 222.28524780273438 310.5157470703125 C 221.33221435546875 312.2799072265625 220.0880126953125 313.609619140625 218.5526123046875 314.5048828125 C 217.04367065429688 315.373779296875 215.4288330078125 315.8082275390625 213.7081298828125 315.8082275390625 C 211.9874267578125 315.8082275390625 210.39907836914062 315.55810546875 208.94308471679688 315.05780029296875 C 207.48709106445312 314.5574951171875 206.21640014648438 313.80712890625 205.13104248046875 312.8065185546875 C 204.0721435546875 311.7796630859375 203.25149536132812 310.55523681640625 202.66909790039062 309.13336181640625 C 202.08670043945312 307.7115478515625 201.79550170898438 306.0921630859375 201.79550170898438 304.27532958984375 C 201.79550170898438 302.1162109375 202.324951171875 300.12823486328125 203.38385009765625 298.3114013671875 C 204.46920776367188 296.46826171875 205.89874267578125 294.98052978515625 207.67239379882812 293.84832763671875 C 209.446044921875 292.716064453125 211.3785400390625 292.14996337890625 213.46987915039062 292.14996337890625 C 216.06417846679688 292.14996337890625 218.19522094726562 292.729248046875 219.86300659179688 293.8878173828125 C 221.5572509765625 295.04638671875 222.814697265625 296.66571044921875 223.63534545898438 298.745849609375 C 224.48245239257812 300.82598876953125 224.906005859375 303.22210693359375 224.906005859375 305.9342041015625 C 224.906005859375 308.5672607421875 224.58834838867188 311.160888671875 223.9530029296875 313.7149658203125 C 223.31765747070312 316.26904296875 222.21905517578125 318.70465087890625 220.65716552734375 321.021728515625 C 219.12176513671875 323.3125 216.99072265625 325.4058837890625 214.26406860351562 327.3016357421875 C 211.5638427734375 329.197509765625 208.095947265625 330.80364990234375 203.8603515625 332.1202392578125 C 203.14559936523438 331.48828125 202.43084716796875 330.8563232421875 201.716064453125 330.224365234375 C 205.44869995117188 329.30279541015625 208.62542724609375 328.104736328125 211.24618530273438 326.6302490234375 C 213.8934326171875 325.12939453125 216.05096435546875 323.365234375 217.71871948242188 321.33770751953125 C 219.4129638671875 319.31024169921875 220.64395141601562 317.0457763671875 221.41165161132812 314.54437255859375 C 222.205810546875 312.04296875 222.6029052734375 309.330810546875 222.6029052734375 306.40814208984375 C 222.6029052734375 302.0108642578125 221.72930908203125 298.89068603515625 219.98211669921875 297.0474853515625 C 218.23492431640625 295.204345703125 216.11712646484375 294.28277587890625 213.62872314453125 294.28277587890625 C 211.9609375 294.28277587890625 210.39907836914062 294.71722412109375 208.94308471679688 295.586181640625 C 207.48709106445312 296.4287109375 206.30908203125 297.6004638671875 205.40899658203125 299.101318359375 C 204.535400390625 300.5758056640625 204.09860229492188 302.300537109375 204.09860229492188 304.27532958984375 C 204.09860229492188 307.3033447265625 205.03839111328125 309.6336669921875 206.91793823242188 311.26617431640625 C 208.7974853515625 312.872314453125 211.06088256835938 313.6754150390625 213.7081298828125 313.6754150390625 C 215.69357299804688 313.6754150390625 217.33486938476562 313.1751708984375 218.63201904296875 312.174560546875 C 219.92919921875 311.147705078125 220.90866088867188 309.725830078125 221.57049560546875 307.90899658203125 C 222.2322998046875 306.0921630859375 222.56320190429688 303.99884033203125 222.56320190429688 301.62908935546875 C 222.96029663085938 302.3795166015625 223.35736083984375 303.12994384765625 223.75445556640625 303.88037109375M 234.0390625 269.755615234375 C 234.91262817382812 270.9404296875 235.945068359375 272.4412841796875 237.13632202148438 274.2581787109375 C 238.32757568359375 276.074951171875 239.33355712890625 277.720703125 240.1541748046875 279.1951904296875 C 239.4129638671875 279.5638427734375 238.6717529296875 279.9324951171875 237.93051147460938 280.30108642578125 C 237.13632202148438 278.80023193359375 236.1568603515625 277.141357421875 234.9920654296875 275.3245849609375 C 233.85372924804688 273.5076904296875 232.83453369140625 271.98052978515625 231.93447875976562 270.74298095703125 C 232.635986328125 270.413818359375 233.3375244140625 270.084716796875 234.0390625 269.755615234375M 242.37786865234375 268.0177001953125 C 243.22500610351562 269.17626953125 244.21771240234375 270.6376953125 245.35604858398438 272.40185546875 C 246.52084350585938 274.1396484375 247.55328369140625 275.78533935546875 248.45333862304688 277.3388671875 C 247.6988525390625 277.720703125 246.94439697265625 278.10247802734375 246.18994140625 278.4842529296875 C 245.3692626953125 276.8780517578125 244.40304565429688 275.2060546875 243.29119873046875 273.46826171875 C 242.205810546875 271.7041015625 241.1866455078125 270.21636962890625 240.23361206054688 269.005126953125 C 240.9483642578125 268.676025390625 241.66314697265625 268.346923828125 242.37786865234375 268.0177001953125"/>
    <path stroke-width="0" fill="rgb(0, 0, 0)" opacity="1.0" d="M 279.02911376953125 270.97998046875 C 278.896728515625 271.90155029296875 278.8041076660156 272.744140625 278.75115966796875 273.5076904296875 C 278.69818115234375 274.2449951171875 278.645263671875 275.1270751953125 278.5923156738281 276.15399169921875 C 278.53936767578125 278.36578369140625 278.44671630859375 281.1304931640625 278.3143615722656 284.44818115234375 C 278.1820068359375 287.765869140625 278.07611083984375 291.320556640625 277.9967041015625 295.1121826171875 C 277.9172668457031 298.90380859375 277.83782958984375 302.7218017578125 277.7584228515625 306.56610107421875 C 277.7054748535156 310.410400390625 277.67901611328125 313.965087890625 277.67901611328125 317.2301025390625 C 277.67901611328125 320.2318115234375 278.28790283203125 322.64111328125 279.505615234375 324.4578857421875 C 280.72332763671875 326.2747802734375 282.4176025390625 327.59130859375 284.5883483886719 328.4075927734375 C 286.78558349609375 329.197509765625 289.3136901855469 329.5924072265625 292.1727294921875 329.5924072265625 C 295.9847717285156 329.5924072265625 299.3732604980469 329.13165283203125 302.33819580078125 328.2100830078125 C 305.3031005859375 327.26220703125 307.91064453125 326.024658203125 310.16082763671875 324.4974365234375 C 312.43743896484375 322.94390869140625 314.42291259765625 321.232421875 316.11712646484375 319.3629150390625 C 317.837890625 317.493408203125 319.386474609375 315.6239013671875 320.7630615234375 313.75439453125 C 321.3189697265625 314.3863525390625 321.8748779296875 315.018310546875 322.43084716796875 315.6502685546875 C 321.05426025390625 317.4144287109375 319.439453125 319.244384765625 317.58636474609375 321.1402587890625 C 315.7332763671875 323.03607177734375 313.5757751464844 324.78704833984375 311.11383056640625 326.39324951171875 C 308.6783447265625 327.97308349609375 305.87225341796875 329.2501220703125 302.695556640625 330.224365234375 C 299.51885986328125 331.2249755859375 295.93182373046875 331.7252197265625 291.9344787597656 331.7252197265625 C 288.78424072265625 331.7252197265625 285.96490478515625 331.25128173828125 283.47650146484375 330.3033447265625 C 280.98809814453125 329.3818359375 279.015869140625 327.81512451171875 277.55987548828125 325.60333251953125 C 276.1038818359375 323.365234375 275.37591552734375 320.2713623046875 275.37591552734375 316.3216552734375 C 275.37591552734375 313.8465576171875 275.4023742675781 311.1871337890625 275.455322265625 308.34344482421875 C 275.5082702636719 305.473388671875 275.58770751953125 302.5506591796875 275.6935729980469 299.57525634765625 C 275.7994384765625 296.599853515625 275.8788757324219 293.6903076171875 275.93182373046875 290.8465576171875 C 276.01123046875 287.9765625 276.0774230957031 285.277587890625 276.13037109375 282.7498779296875 C 276.1833190917969 280.22210693359375 276.20977783203125 278.0234375 276.20977783203125 276.15399169921875 C 276.20977783203125 275.1270751953125 276.1833190917969 274.19232177734375 276.13037109375 273.3497314453125 C 276.0774230957031 272.4808349609375 275.9847717285156 271.69091796875 275.8524169921875 270.97998046875 C 276.91131591796875 270.97998046875 277.97021484375 270.97998046875 279.02911376953125 270.97998046875"/>
    <path stroke-width="0" fill="rgb(0, 0, 0)" opacity="1.0" d="M 349.39312744140625 287.96337890625 C 362.43084716796875 287.96337890625 375.468505859375 287.96337890625 388.50628662109375 287.96337890625 C 388.50628662109375 288.70062255859375 388.50628662109375 289.4378662109375 388.50628662109375 290.1751708984375 C 375.468505859375 290.1751708984375 362.43084716796875 290.1751708984375 349.39312744140625 290.1751708984375 C 349.39312744140625 289.4378662109375 349.39312744140625 288.70062255859375 349.39312744140625 287.96337890625M 337.67901611328125 307.237548828125 C 359.201171875 307.237548828125 380.723388671875 307.237548828125 402.2454833984375 307.237548828125 C 402.2454833984375 307.974853515625 402.2454833984375 308.7120361328125 402.2454833984375 309.4493408203125 C 380.723388671875 309.4493408203125 359.201171875 309.4493408203125 337.67901611328125 309.4493408203125 C 337.67901611328125 308.7120361328125 337.67901611328125 307.974853515625 337.67901611328125 307.237548828125M 368.9298095703125 300.720703125 C 369.697509765625 300.720703125 370.4652099609375 300.720703125 371.23291015625 300.720703125 C 371.23291015625 310.6737060546875 371.23291015625 320.6268310546875 371.23291015625 330.579833984375 C 371.23291015625 331.5540771484375 371.047607421875 332.2781982421875 370.677001953125 332.75213623046875 C 370.3328857421875 333.22607421875 369.7239990234375 333.5947265625 368.8504638671875 333.8580322265625 C 368.02978515625 334.0687255859375 366.745849609375 334.17401123046875 364.9986572265625 334.17401123046875 C 363.25146484375 334.2003173828125 360.723388671875 334.2135009765625 357.414306640625 334.2135009765625 C 357.361328125 334.0291748046875 357.2686767578125 333.81854248046875 357.1363525390625 333.58154296875 C 357.03045654296875 333.37091064453125 356.91131591796875 333.1339111328125 356.7789306640625 332.87060546875 C 356.6466064453125 332.6072998046875 356.5009765625 332.383544921875 356.3421630859375 332.19921875 C 358.2216796875 332.19921875 359.9027099609375 332.21240234375 361.3851318359375 332.23870849609375 C 362.89410400390625 332.2650146484375 364.15155029296875 332.2650146484375 365.157470703125 332.23870849609375 C 366.18994140625 332.21240234375 366.91796875 332.19921875 367.34149169921875 332.19921875 C 367.9503173828125 332.14654541015625 368.36065673828125 332.001708984375 368.57244873046875 331.7647705078125 C 368.8106689453125 331.52777099609375 368.9298095703125 331.15911865234375 368.9298095703125 330.6588134765625 C 368.9298095703125 320.679443359375 368.9298095703125 310.7000732421875 368.9298095703125 300.720703125M 387.91064453125 287.96337890625 C 388.082763671875 287.96337890625 388.2547607421875 287.96337890625 388.4268798828125 287.96337890625 C 388.6121826171875 287.91070556640625 388.7974853515625 287.8580322265625 388.9827880859375 287.805419921875 C 389.51220703125 288.1871337890625 390.04168701171875 288.5689697265625 390.5711669921875 288.9508056640625 C 388.9033203125 290.7149658203125 386.94439697265625 292.4923095703125 384.6942138671875 294.28277587890625 C 382.4705810546875 296.04693603515625 380.1541748046875 297.705810546875 377.74517822265625 299.25927734375 C 375.3626708984375 300.7864990234375 373.0860595703125 302.10302734375 370.915283203125 303.20892333984375 C 370.7564697265625 302.971923828125 370.5181884765625 302.7086181640625 370.2005615234375 302.41900634765625 C 369.9093017578125 302.12939453125 369.63134765625 301.918701171875 369.36663818359375 301.78704833984375 C 371.5638427734375 300.70751953125 373.81402587890625 299.430419921875 376.11712646484375 297.9559326171875 C 378.44671630859375 296.455078125 380.63067626953125 294.88836669921875 382.6690673828125 293.255859375 C 384.73394775390625 291.5970458984375 386.48114013671875 290.0172119140625 387.91064453125 288.51629638671875 C 387.91064453125 288.33203125 387.91064453125 288.147705078125 387.91064453125 287.96337890625M 368.6121826171875 265.7664794921875 C 369.3798828125 265.7664794921875 370.1475830078125 265.7664794921875 370.915283203125 265.7664794921875 C 370.915283203125 269.32110595703125 370.915283203125 272.87579345703125 370.915283203125 276.430419921875 C 370.1475830078125 276.430419921875 369.3798828125 276.430419921875 368.6121826171875 276.430419921875 C 368.6121826171875 272.87579345703125 368.6121826171875 269.32110595703125 368.6121826171875 265.7664794921875M 338.83056640625 275.16656494140625 C 359.5321044921875 275.16656494140625 380.233642578125 275.16656494140625 400.93511962890625 275.16656494140625 C 400.93511962890625 280.49853515625 400.93511962890625 285.83056640625 400.93511962890625 291.16259765625 C 400.1806640625 291.16259765625 399.42620849609375 291.16259765625 398.6717529296875 291.16259765625 C 398.6717529296875 286.58099365234375 398.6717529296875 281.9993896484375 398.6717529296875 277.4178466796875 C 379.4791259765625 277.4178466796875 360.28656005859375 277.4178466796875 341.093994140625 277.4178466796875 C 341.093994140625 281.9993896484375 341.093994140625 286.58099365234375 341.093994140625 291.16259765625 C 340.3394775390625 291.16259765625 339.58502197265625 291.16259765625 338.83056640625 291.16259765625 C 338.83056640625 285.83056640625 338.83056640625 280.49853515625 338.83056640625 275.16656494140625"/>
    <path stroke-width="0" fill="rgb(0, 0, 0)" opacity="1.0" d="M 455.097900390625 301.1551513671875 C 455.825927734375 301.1551513671875 456.553955078125 301.1551513671875 457.28192138671875 301.1551513671875 C 457.28192138671875 310.21295166015625 457.28192138671875 319.270751953125 457.28192138671875 328.32855224609375 C 457.28192138671875 329.3291015625 457.53338623046875 329.9874267578125 458.036376953125 330.3033447265625 C 458.5657958984375 330.64569091796875 459.69091796875 330.81683349609375 461.41162109375 330.81683349609375 C 461.8087158203125 330.81683349609375 462.576416015625 330.81683349609375 463.7147216796875 330.81683349609375 C 464.8795166015625 330.81683349609375 466.15020751953125 330.81683349609375 467.52679443359375 330.81683349609375 C 468.9298095703125 330.81683349609375 470.240234375 330.81683349609375 471.45794677734375 330.81683349609375 C 472.67572021484375 330.81683349609375 473.57574462890625 330.81683349609375 474.158203125 330.81683349609375 C 475.27001953125 330.81683349609375 476.1038818359375 330.5272216796875 476.6597900390625 329.9478759765625 C 477.2156982421875 329.36865234375 477.5863037109375 328.1968994140625 477.77166748046875 326.4327392578125 C 477.9833984375 324.6685791015625 478.14227294921875 321.9827880859375 478.2481689453125 318.37548828125 C 478.4599609375 318.533447265625 478.6849365234375 318.69146728515625 478.9232177734375 318.8494873046875 C 479.18798828125 318.9810791015625 479.45263671875 319.08642578125 479.7174072265625 319.1654052734375 C 480.008544921875 319.244384765625 480.2601318359375 319.3365478515625 480.47186279296875 319.44189453125 C 480.365966796875 323.0755615234375 480.1409912109375 325.8797607421875 479.79681396484375 327.8546142578125 C 479.4791259765625 329.82940673828125 478.883544921875 331.1986083984375 478.0098876953125 331.96221923828125 C 477.162841796875 332.725830078125 475.87890625 333.10760498046875 474.158203125 333.10760498046875 C 473.8404541015625 333.10760498046875 473.0860595703125 333.10760498046875 471.894775390625 333.10760498046875 C 470.7034912109375 333.10760498046875 469.3402099609375 333.10760498046875 467.80474853515625 333.10760498046875 C 466.2957763671875 333.10760498046875 464.9324951171875 333.10760498046875 463.7147216796875 333.10760498046875 C 462.5234375 333.10760498046875 461.7822265625 333.10760498046875 461.4910888671875 333.10760498046875 C 459.7967529296875 333.10760498046875 458.4864501953125 332.9759521484375 457.55987548828125 332.712646484375 C 456.6597900390625 332.4493408203125 456.02447509765625 331.96221923828125 455.65386962890625 331.25128173828125 C 455.28326416015625 330.566650390625 455.097900390625 329.56610107421875 455.097900390625 328.24957275390625 C 455.097900390625 319.21807861328125 455.097900390625 310.1866455078125 455.097900390625 301.1551513671875M 413.1654052734375 299.97021484375 C 435.13763427734375 299.97021484375 457.10986328125 299.97021484375 479.08203125 299.97021484375 C 479.08203125 300.6943359375 479.08203125 301.41845703125 479.08203125 302.14251708984375 C 457.10986328125 302.14251708984375 435.13763427734375 302.14251708984375 413.1654052734375 302.14251708984375 C 413.1654052734375 301.41845703125 413.1654052734375 300.6943359375 413.1654052734375 299.97021484375M 425.634033203125 279.3927001953125 C 441.8087158203125 279.3927001953125 457.98345947265625 279.3927001953125 474.158203125 279.3927001953125 C 474.158203125 280.15625 474.158203125 280.91986083984375 474.158203125 281.6834716796875 C 457.98345947265625 281.6834716796875 441.8087158203125 281.6834716796875 425.634033203125 281.6834716796875 C 425.634033203125 280.91986083984375 425.634033203125 280.15625 425.634033203125 279.3927001953125M 434.88616943359375 301.4710693359375 C 435.640625 301.4710693359375 436.39508056640625 301.4710693359375 437.1495361328125 301.4710693359375 C 436.805419921875 305.60504150390625 436.183349609375 309.4229736328125 435.283203125 312.925048828125 C 434.40966796875 316.40069580078125 433.11248779296875 319.5340576171875 431.39178466796875 322.32513427734375 C 429.697509765625 325.1162109375 427.4208984375 327.53863525390625 424.5618896484375 329.5924072265625 C 421.72930908203125 331.672607421875 418.1290283203125 333.397216796875 413.7611083984375 334.7664794921875 C 413.6551513671875 334.5557861328125 413.50958251953125 334.35833740234375 413.32427978515625 334.17401123046875 C 413.1654052734375 334.0159912109375 412.993408203125 333.83172607421875 412.80810546875 333.62109375 C 412.622802734375 333.410400390625 412.43743896484375 333.2392578125 412.25213623046875 333.10760498046875 C 416.51422119140625 331.84375 420.0350341796875 330.211181640625 422.814697265625 328.2100830078125 C 425.6207275390625 326.20892333984375 427.83123779296875 323.865478515625 429.446044921875 321.17974853515625 C 431.08734130859375 318.4940185546875 432.3050537109375 315.51861572265625 433.0992431640625 312.2535400390625 C 433.919921875 308.96221923828125 434.51556396484375 305.3680419921875 434.88616943359375 301.4710693359375M 428.77099609375 268.49169921875 C 429.5386962890625 268.662841796875 430.306396484375 268.833984375 431.0740966796875 269.005126953125 C 430.306396484375 271.79620361328125 429.34014892578125 274.71893310546875 428.17535400390625 277.7733154296875 C 427.01055908203125 280.82769775390625 425.647216796875 283.8031005859375 424.0853271484375 286.699462890625 C 422.5499267578125 289.569580078125 420.8292236328125 292.1368408203125 418.9232177734375 294.4012451171875 C 418.7908935546875 294.26959228515625 418.6187744140625 294.124755859375 418.406982421875 293.966796875 C 418.1951904296875 293.808837890625 417.98345947265625 293.66400146484375 417.77166748046875 293.5323486328125 C 417.58636474609375 293.3743896484375 417.3878173828125 293.24267578125 417.176025390625 293.13739013671875 C 419.00262451171875 290.8992919921875 420.65716552734375 288.3846435546875 422.1396484375 285.5936279296875 C 423.6220703125 282.77618408203125 424.9324951171875 279.8929443359375 426.07080078125 276.94390869140625 C 427.2091064453125 273.994873046875 428.10919189453125 271.17742919921875 428.77099609375 268.49169921875M 444.85302734375 266.04296875 C 445.6207275390625 266.04296875 446.38848876953125 266.04296875 447.15618896484375 266.04296875 C 447.15618896484375 277.6285400390625 447.15618896484375 289.214111328125 447.15618896484375 300.7996826171875 C 446.38848876953125 300.7996826171875 445.6207275390625 300.7996826171875 444.85302734375 300.7996826171875 C 444.85302734375 289.214111328125 444.85302734375 277.6285400390625 444.85302734375 266.04296875"/>
  </g>
</svg>
