<?xml version="1.0" encoding="utf-8"?>
<svg xmlns="http://www.w3.org/2000/svg" xmlns:ev="http://www.w3.org/2001/xml-events" xmlns:xlink="http://www.w3.org/1999/xlink" version="1.1" baseProfile="full" width="1712.0" height="1738.0" viewBox="108.0 -1594.0 1712.0 1738.0">
<defs/>
<g><path d="M 108.000000 -1110.000000 C 678.666667 -1110.000000 1249.333333 -1110.000000 1820.000000 -1110.000000 C 1820.000000 -1091.333333 1820.000000 -1072.666667 1820.000000 -1054.000000 C 1249.333333 -1054.000000 678.666667 -1054.000000 108.000000 -1054.000000 C 108.000000 -1072.666667 108.000000 -1091.333333 108.000000 -1110.000000z M 856.000000 -1594.000000 C 875.333333 -1590.000000 894.666667 -1586.000000 914.000000 -1582.000000 C 878.000000 -1490.000000 838.000000 -1390.000000 794.000000 -1282.000000 C 750.000000 -1174.666667 704.333333 -1065.666667 657.000000 -955.000000 C 609.666667 -844.333333 563.333333 -739.333333 518.000000 -640.000000 C 473.333333 -541.333333 433.000000 -454.000000 397.000000 -378.000000 C 380.000000 -385.000000 363.000000 -392.000000 346.000000 -399.000000 C 382.666667 -473.666667 423.000000 -560.333333 467.000000 -659.000000 C 511.666667 -758.333333 557.333333 -862.666667 604.000000 -972.000000 C 650.666667 -1082.000000 695.666667 -1190.666667 739.000000 -1298.000000 C 782.333333 -1405.333333 821.333333 -1504.000000 856.000000 -1594.000000z M 1452.000000 -1096.000000 C 1469.666667 -1090.333333 1487.333333 -1084.666667 1505.000000 -1079.000000 C 1471.666667 -907.666667 1424.666667 -754.000000 1364.000000 -618.000000 C 1303.333333 -482.666667 1221.666667 -364.333333 1119.000000 -263.000000 C 1017.000000 -161.666667 887.000000 -77.333333 729.000000 -10.000000 C 571.666667 56.666667 379.333333 106.666667 152.000000 140.000000 C 149.333333 132.666667 144.666667 124.333333 138.000000 115.000000 C 132.000000 106.333333 125.666667 98.666667 119.000000 92.000000 C 345.666667 58.666667 536.000000 9.333333 690.000000 -56.000000 C 844.666667 -121.333333 971.666667 -203.000000 1071.000000 -301.000000 C 1171.000000 -399.666667 1250.666667 -515.333333 1310.000000 -648.000000 C 1370.000000 -780.666667 1417.333333 -930.000000 1452.000000 -1096.000000z M 415.000000 -507.000000 C 426.333333 -521.000000 437.666667 -535.000000 449.000000 -549.000000 C 567.000000 -511.000000 688.000000 -466.333333 812.000000 -415.000000 C 936.000000 -363.666667 1057.000000 -309.000000 1175.000000 -251.000000 C 1293.000000 -193.666667 1402.333333 -135.333333 1503.000000 -76.000000 C 1604.333333 -17.333333 1690.333333 39.333333 1761.000000 94.000000 C 1747.333333 110.666667 1733.666667 127.333333 1720.000000 144.000000 C 1651.333333 90.000000 1566.666667 33.333333 1466.000000 -26.000000 C 1365.333333 -85.333333 1256.333333 -144.000000 1139.000000 -202.000000 C 1022.333333 -260.666667 901.666667 -316.000000 777.000000 -368.000000 C 653.000000 -420.666667 532.333333 -467.000000 415.000000 -507.000000z "/>
</g>
</svg>
