<?xml version="1.0" ?>
<svg xmlns="http://www.w3.org/2000/svg" version="1.1" width="600" height="600">
  <defs/>
  <g>
    <path stroke-width="0" fill="rgb(0, 0, 0)" opacity="1.0" d="M 209.390625 121.765625 C 221.109375 124.890625 234.78125 127.859375 250.40625 130.671875 C 266.03125 133.484375 282.046875 136.140625 298.453125 138.640625 C 315.015625 140.984375 330.5625 142.9375 345.09375 144.5 C 359.625 145.90625 371.8125 146.921875 381.65625 147.546875 C 380.796875 152.0 379.9375 156.453125 379.078125 160.90625 C 368.296875 160.125 355.875 158.875 341.8125 157.15625 C 327.90625 155.28125 313.21875 153.25 297.75 151.0625 C 282.28125 148.71875 266.734375 146.21875 251.109375 143.5625 C 235.640625 140.75 220.875 138.015625 206.8125 135.359375 C 207.671875 130.828125 208.53125 126.296875 209.390625 121.765625M 383.53125 236.609375 C 381.1875 238.328125 377.59375 241.21875 372.75 245.28125 C 367.90625 249.34375 364.78125 252.15625 363.375 253.71875 C 359.78125 257.3125 353.921875 262.9375 345.796875 270.59375 C 337.671875 278.25 328.609375 286.921875 318.609375 296.609375 C 308.765625 306.140625 299.15625 315.359375 289.78125 324.265625 C 280.5625 333.015625 273.140625 340.359375 267.515625 346.296875 C 270.171875 345.828125 273.296875 345.4375 276.890625 345.125 C 280.484375 344.8125 283.375 344.65625 285.5625 344.65625 C 296.65625 344.65625 305.484375 347.78125 312.046875 354.03125 C 318.609375 360.28125 323.375 368.40625 326.34375 378.40625 C 327.90625 383.09375 329.703125 389.109375 331.734375 396.453125 C 333.921875 403.640625 336.03125 410.984375 338.0625 418.484375 C 340.25 425.984375 342.203125 432.546875 343.921875 438.171875 C 347.203125 448.328125 352.125 455.59375 358.6875 459.96875 C 365.40625 464.34375 375.953125 466.53125 390.328125 466.53125 C 398.765625 466.53125 408.0625 466.140625 418.21875 465.359375 C 428.375 464.421875 438.21875 463.09375 447.75 461.375 C 457.4375 459.65625 465.5625 457.78125 472.125 455.75 C 471.8125 461.296875 471.5 466.84375 471.1875 472.390625 C 464.9375 473.640625 457.046875 474.734375 447.515625 475.671875 C 438.140625 476.765625 428.453125 477.703125 418.453125 478.484375 C 408.453125 479.265625 399.234375 479.65625 390.796875 479.65625 C 375.796875 479.65625 363.0625 477.078125 352.59375 471.921875 C 342.28125 466.765625 335.015625 456.609375 330.796875 441.453125 C 329.703125 436.921875 328.0625 430.828125 325.875 423.171875 C 323.84375 415.515625 321.734375 407.859375 319.546875 400.203125 C 317.515625 392.546875 315.5625 386.296875 313.6875 381.453125 C 311.03125 373.640625 307.125 367.390625 301.96875 362.703125 C 296.96875 357.859375 290.5625 355.4375 282.75 355.4375 C 274.9375 355.4375 267.984375 356.6875 261.890625 359.1875 C 255.953125 361.6875 250.484375 365.203125 245.484375 369.734375 C 241.890625 373.015625 236.65625 378.015625 229.78125 384.734375 C 223.0625 391.296875 215.5625 398.875 207.28125 407.46875 C 199.15625 415.90625 190.953125 424.65625 182.671875 433.71875 C 174.390625 442.78125 166.734375 451.21875 159.703125 459.03125 C 152.671875 466.6875 147.203125 473.09375 143.296875 478.25 C 138.21875 474.65625 133.140625 471.0625 128.0625 467.46875 C 129.46875 466.21875 131.421875 464.578125 133.921875 462.546875 C 136.578125 460.359375 139.234375 457.9375 141.890625 455.28125 C 143.921875 453.25 149.546875 447.703125 158.765625 438.640625 C 167.984375 429.421875 179.234375 418.171875 192.515625 404.890625 C 205.796875 391.453125 220.171875 376.921875 235.640625 361.296875 C 251.109375 345.671875 266.578125 330.28125 282.046875 315.125 C 297.515625 299.96875 311.65625 286.0625 324.46875 273.40625 C 337.4375 260.59375 347.828125 250.4375 355.640625 242.9375 C 347.828125 243.5625 337.984375 244.421875 326.109375 245.515625 C 314.234375 246.453125 301.65625 247.46875 288.375 248.5625 C 275.09375 249.65625 261.96875 250.828125 249.0 252.078125 C 236.03125 253.171875 224.3125 254.109375 213.84375 254.890625 C 203.375 255.671875 195.171875 256.296875 189.234375 256.765625 C 182.203125 257.078125 176.109375 257.546875 170.953125 258.171875 C 165.953125 258.796875 160.953125 259.421875 155.953125 260.046875 C 155.484375 254.5 155.015625 248.953125 154.546875 243.40625 C 159.546875 243.71875 164.78125 243.953125 170.25 244.109375 C 175.71875 244.265625 181.578125 244.1875 187.828125 243.875 C 193.765625 243.5625 202.359375 243.015625 213.609375 242.234375 C 224.859375 241.453125 237.359375 240.59375 251.109375 239.65625 C 265.015625 238.5625 278.765625 237.3125 292.359375 235.90625 C 306.109375 234.5 318.609375 233.328125 329.859375 232.390625 C 341.109375 231.296875 349.703125 230.28125 355.640625 229.34375 C 359.234375 228.71875 362.59375 228.09375 365.71875 227.46875 C 368.84375 226.6875 371.5 225.828125 373.6875 224.890625 C 376.96875 228.796875 380.25 232.703125 383.53125 236.609375"/>
  </g>
</svg>
