<?xml version="1.0" encoding="utf-8"?>
<svg xmlns="http://www.w3.org/2000/svg" xmlns:ev="http://www.w3.org/2001/xml-events" xmlns:xlink="http://www.w3.org/1999/xlink" version="1.1" baseProfile="full" width="5549.0" height="1736.0" viewBox="96.0 -1596.0 5549.0 1736.0">
<defs/>
<g><path d="M 4211.000000 -432.000000 C 4608.333333 -432.000000 5005.666667 -432.000000 5403.000000 -432.000000 C 5403.000000 -243.333333 5403.000000 -54.666667 5403.000000 134.000000 C 5383.666667 134.000000 5364.333333 134.000000 5345.000000 134.000000 C 5345.000000 -35.333333 5345.000000 -204.666667 5345.000000 -374.000000 C 4986.000000 -374.000000 4627.000000 -374.000000 4268.000000 -374.000000 C 4268.000000 -202.666667 4268.000000 -31.333333 4268.000000 140.000000 C 4249.000000 140.000000 4230.000000 140.000000 4211.000000 140.000000 C 4211.000000 -50.666667 4211.000000 -241.333333 4211.000000 -432.000000z M 4237.000000 -213.000000 C 4616.000000 -213.000000 4995.000000 -213.000000 5374.000000 -213.000000 C 5374.000000 -194.333333 5374.000000 -175.666667 5374.000000 -157.000000 C 4995.000000 -157.000000 4616.000000 -157.000000 4237.000000 -157.000000 C 4237.000000 -175.666667 4237.000000 -194.333333 4237.000000 -213.000000z M 4237.000000 13.000000 C 4616.000000 13.000000 4995.000000 13.000000 5374.000000 13.000000 C 5374.000000 31.666667 5374.000000 50.333333 5374.000000 69.000000 C 4995.000000 69.000000 4616.000000 69.000000 4237.000000 69.000000 C 4237.000000 50.333333 4237.000000 31.666667 4237.000000 13.000000z M 4765.000000 -1596.000000 C 4784.333333 -1596.000000 4803.666667 -1596.000000 4823.000000 -1596.000000 C 4823.000000 -1257.333333 4823.000000 -918.666667 4823.000000 -580.000000 C 4803.666667 -580.000000 4784.333333 -580.000000 4765.000000 -580.000000 C 4765.000000 -918.666667 4765.000000 -1257.333333 4765.000000 -1596.000000z M 4172.000000 -1446.000000 C 4579.000000 -1446.000000 4986.000000 -1446.000000 5393.000000 -1446.000000 C 5393.000000 -1286.666667 5393.000000 -1127.333333 5393.000000 -968.000000 C 4978.333333 -968.000000 4563.666667 -968.000000 4149.000000 -968.000000 C 4149.000000 -986.333333 4149.000000 -1004.666667 4149.000000 -1023.000000 C 4544.666667 -1023.000000 4940.333333 -1023.000000 5336.000000 -1023.000000 C 5336.000000 -1144.666667 5336.000000 -1266.333333 5336.000000 -1388.000000 C 4948.000000 -1388.000000 4560.000000 -1388.000000 4172.000000 -1388.000000 C 4172.000000 -1407.333333 4172.000000 -1426.666667 4172.000000 -1446.000000z M 3963.000000 -1236.000000 C 4522.333333 -1236.000000 5081.666667 -1236.000000 5641.000000 -1236.000000 C 5641.000000 -1217.666667 5641.000000 -1199.333333 5641.000000 -1181.000000 C 5081.666667 -1181.000000 4522.333333 -1181.000000 3963.000000 -1181.000000 C 3963.000000 -1199.333333 3963.000000 -1217.666667 3963.000000 -1236.000000z M 4086.000000 -820.000000 C 4566.000000 -820.000000 5046.000000 -820.000000 5526.000000 -820.000000 C 5526.000000 -801.333333 5526.000000 -782.666667 5526.000000 -764.000000 C 5046.000000 -764.000000 4566.000000 -764.000000 4086.000000 -764.000000 C 4086.000000 -782.666667 4086.000000 -801.333333 4086.000000 -820.000000z M 3959.000000 -609.000000 C 4521.000000 -609.000000 5083.000000 -609.000000 5645.000000 -609.000000 C 5645.000000 -589.666667 5645.000000 -570.333333 5645.000000 -551.000000 C 5083.000000 -551.000000 4521.000000 -551.000000 3959.000000 -551.000000 C 3959.000000 -570.333333 3959.000000 -589.666667 3959.000000 -609.000000z "/>
</g></svg>
