<?xml version="1.0" encoding="utf-8"?>
<svg xmlns="http://www.w3.org/2000/svg" xmlns:ev="http://www.w3.org/2001/xml-events" xmlns:xlink="http://www.w3.org/1999/xlink" version="1.1" baseProfile="full" width="13258.0" height="1736.0" viewBox="94.0 -1596.0 13258.0 1736.0">
<defs/>
<g><path d="M 449.000000 -1588.000000 C 468.333333 -1581.666667 487.666667 -1575.333333 507.000000 -1569.000000 C 483.666667 -1521.666667 458.666667 -1471.000000 432.000000 -1417.000000 C 405.333333 -1363.000000 377.333333 -1310.666667 348.000000 -1260.000000 C 319.333333 -1210.000000 291.666667 -1165.000000 265.000000 -1125.000000 C 249.000000 -1131.333333 233.000000 -1137.666667 217.000000 -1144.000000 C 243.666667 -1184.000000 271.333333 -1230.000000 300.000000 -1282.000000 C 329.333333 -1334.666667 357.000000 -1388.000000 383.000000 -1442.000000 C 409.000000 -1496.666667 431.000000 -1545.333333 449.000000 -1588.000000z M 94.000000 -1165.000000 C 159.333333 -1167.666667 234.333333 -1170.666667 319.000000 -1174.000000 C 404.333333 -1177.333333 496.000000 -1181.000000 594.000000 -1185.000000 C 692.000000 -1189.666667 791.666667 -1194.000000 893.000000 -1198.000000 C 892.333333 -1179.333333 891.666667 -1160.666667 891.000000 -1142.000000 C 795.000000 -1137.333333 699.000000 -1132.666667 603.000000 -1128.000000 C 507.000000 -1123.333333 416.333333 -1119.000000 331.000000 -1115.000000 C 246.333333 -1111.666667 170.000000 -1108.000000 102.000000 -1104.000000 C 99.333333 -1124.333333 96.666667 -1144.666667 94.000000 -1165.000000z M 213.000000 -920.000000 C 415.333333 -920.000000 617.666667 -920.000000 820.000000 -920.000000 C 820.000000 -901.333333 820.000000 -882.666667 820.000000 -864.000000 C 636.333333 -864.000000 452.666667 -864.000000 269.000000 -864.000000 C 269.000000 -532.000000 269.000000 -200.000000 269.000000 132.000000 C 250.333333 132.000000 231.666667 132.000000 213.000000 132.000000 C 213.000000 -218.666667 213.000000 -569.333333 213.000000 -920.000000z M 799.000000 -920.000000 C 817.333333 -920.000000 835.666667 -920.000000 854.000000 -920.000000 C 854.000000 -601.666667 854.000000 -283.333333 854.000000 35.000000 C 854.000000 59.000000 850.333333 77.333333 843.000000 90.000000 C 836.333333 102.666667 823.333333 112.333333 804.000000 119.000000 C 784.000000 124.333333 753.666667 127.333333 713.000000 128.000000 C 673.000000 128.666667 621.666667 129.000000 559.000000 129.000000 C 557.666667 121.000000 554.666667 111.333333 550.000000 100.000000 C 545.333333 88.666667 540.666667 78.333333 536.000000 69.000000 C 592.000000 70.333333 640.333333 71.000000 681.000000 71.000000 C 722.333333 71.000000 750.666667 70.333333 766.000000 69.000000 C 780.000000 69.000000 789.000000 66.666667 793.000000 62.000000 C 797.000000 58.000000 799.000000 49.333333 799.000000 36.000000 C 799.000000 -282.666667 799.000000 -601.333333 799.000000 -920.000000z M 244.000000 -636.000000 C 436.000000 -636.000000 628.000000 -636.000000 820.000000 -636.000000 C 820.000000 -617.333333 820.000000 -598.666667 820.000000 -580.000000 C 628.000000 -580.000000 436.000000 -580.000000 244.000000 -580.000000 C 244.000000 -598.666667 244.000000 -617.333333 244.000000 -636.000000z M 244.000000 -342.000000 C 436.000000 -342.000000 628.000000 -342.000000 820.000000 -342.000000 C 820.000000 -322.666667 820.000000 -303.333333 820.000000 -284.000000 C 628.000000 -284.000000 436.000000 -284.000000 244.000000 -284.000000 C 244.000000 -303.333333 244.000000 -322.666667 244.000000 -342.000000z M 1066.000000 -1596.000000 C 1084.333333 -1596.000000 1102.666667 -1596.000000 1121.000000 -1596.000000 C 1121.000000 -1364.000000 1121.000000 -1132.000000 1121.000000 -900.000000 C 1121.000000 -872.000000 1128.666667 -853.000000 1144.000000 -843.000000 C 1159.333333 -833.666667 1192.666667 -829.000000 1244.000000 -829.000000 C 1255.333333 -829.000000 1279.000000 -829.000000 1315.000000 -829.000000 C 1351.000000 -829.000000 1391.000000 -829.000000 1435.000000 -829.000000 C 1479.000000 -829.000000 1520.666667 -829.000000 1560.000000 -829.000000 C 1599.333333 -829.000000 1627.333333 -829.000000 1644.000000 -829.000000 C 1673.333333 -829.000000 1695.333333 -835.000000 1710.000000 -847.000000 C 1724.666667 -859.666667 1734.666667 -883.666667 1740.000000 -919.000000 C 1746.000000 -954.333333 1750.333333 -1007.000000 1753.000000 -1077.000000 C 1758.333333 -1073.000000 1763.666667 -1069.000000 1769.000000 -1065.000000 C 1775.000000 -1061.666667 1781.333333 -1059.000000 1788.000000 -1057.000000 C 1795.333333 -1055.000000 1802.333333 -1052.666667 1809.000000 -1050.000000 C 1806.333333 -977.333333 1800.333333 -920.666667 1791.000000 -880.000000 C 1782.333333 -840.000000 1766.666667 -812.333333 1744.000000 -797.000000 C 1722.000000 -781.666667 1689.000000 -774.000000 1645.000000 -774.000000 C 1639.000000 -774.000000 1622.333333 -774.000000 1595.000000 -774.000000 C 1568.333333 -774.000000 1536.666667 -774.000000 1500.000000 -774.000000 C 1464.000000 -774.000000 1428.000000 -774.000000 1392.000000 -774.000000 C 1356.000000 -774.000000 1325.000000 -774.000000 1299.000000 -774.000000 C 1273.000000 -774.000000 1256.666667 -774.000000 1250.000000 -774.000000 C 1202.666667 -774.000000 1165.333333 -777.000000 1138.000000 -783.000000 C 1111.333333 -789.666667 1092.666667 -802.333333 1082.000000 -821.000000 C 1071.333333 -839.666667 1066.000000 -866.000000 1066.000000 -900.000000 C 1066.000000 -1132.000000 1066.000000 -1364.000000 1066.000000 -1596.000000z M 1667.000000 -1427.000000 C 1682.333333 -1411.333333 1697.666667 -1395.666667 1713.000000 -1380.000000 C 1660.333333 -1357.333333 1600.333333 -1333.666667 1533.000000 -1309.000000 C 1465.666667 -1285.000000 1395.666667 -1261.666667 1323.000000 -1239.000000 C 1251.000000 -1217.000000 1180.666667 -1195.666667 1112.000000 -1175.000000 C 1110.666667 -1181.666667 1108.000000 -1189.000000 1104.000000 -1197.000000 C 1100.000000 -1205.666667 1095.666667 -1213.000000 1091.000000 -1219.000000 C 1157.000000 -1239.666667 1225.666667 -1262.000000 1297.000000 -1286.000000 C 1369.000000 -1310.666667 1437.333333 -1335.000000 1502.000000 -1359.000000 C 1566.666667 -1383.666667 1621.666667 -1406.333333 1667.000000 -1427.000000z M 1066.000000 -707.000000 C 1084.333333 -707.000000 1102.666667 -707.000000 1121.000000 -707.000000 C 1121.000000 -475.666667 1121.000000 -244.333333 1121.000000 -13.000000 C 1121.000000 15.000000 1129.000000 34.000000 1145.000000 44.000000 C 1161.000000 54.666667 1196.666667 60.000000 1252.000000 60.000000 C 1264.666667 60.000000 1289.000000 60.000000 1325.000000 60.000000 C 1361.666667 60.000000 1403.000000 60.000000 1449.000000 60.000000 C 1495.666667 60.000000 1538.666667 60.000000 1578.000000 60.000000 C 1618.000000 60.000000 1647.000000 60.000000 1665.000000 60.000000 C 1697.000000 60.000000 1721.000000 53.333333 1737.000000 40.000000 C 1753.000000 27.333333 1763.666667 1.333333 1769.000000 -38.000000 C 1775.000000 -78.000000 1779.333333 -137.666667 1782.000000 -217.000000 C 1790.666667 -211.666667 1800.000000 -206.666667 1810.000000 -202.000000 C 1820.666667 -198.000000 1830.333333 -194.666667 1839.000000 -192.000000 C 1835.666667 -110.000000 1829.333333 -47.000000 1820.000000 -3.000000 C 1811.333333 41.000000 1795.000000 71.666667 1771.000000 89.000000 C 1747.666667 106.333333 1713.000000 115.000000 1667.000000 115.000000 C 1659.000000 115.000000 1641.000000 115.000000 1613.000000 115.000000 C 1585.666667 115.000000 1553.333333 115.000000 1516.000000 115.000000 C 1479.333333 115.000000 1442.000000 115.000000 1404.000000 115.000000 C 1366.666667 115.000000 1334.000000 115.000000 1306.000000 115.000000 C 1278.666667 115.000000 1262.000000 115.000000 1256.000000 115.000000 C 1207.333333 115.000000 1168.666667 111.666667 1140.000000 105.000000 C 1112.000000 99.000000 1092.666667 86.666667 1082.000000 68.000000 C 1071.333333 49.333333 1066.000000 22.333333 1066.000000 -13.000000 C 1066.000000 -244.333333 1066.000000 -475.666667 1066.000000 -707.000000z M 1697.000000 -578.000000 C 1710.666667 -562.666667 1724.333333 -547.333333 1738.000000 -532.000000 C 1689.333333 -501.333333 1630.000000 -472.333333 1560.000000 -445.000000 C 1490.000000 -418.333333 1416.333333 -393.333333 1339.000000 -370.000000 C 1261.666667 -347.333333 1187.333333 -326.333333 1116.000000 -307.000000 C 1114.666667 -313.666667 1111.666667 -321.333333 1107.000000 -330.000000 C 1102.333333 -339.333333 1098.000000 -347.000000 1094.000000 -353.000000 C 1164.666667 -372.333333 1238.333333 -394.000000 1315.000000 -418.000000 C 1391.666667 -442.666667 1463.666667 -468.333333 1531.000000 -495.000000 C 1598.333333 -522.333333 1653.666667 -550.000000 1697.000000 -578.000000z M 668.000000 -1434.000000 C 682.000000 -1441.000000 696.000000 -1448.000000 710.000000 -1455.000000 C 747.333333 -1413.000000 783.666667 -1367.000000 819.000000 -1317.000000 C 854.333333 -1267.000000 886.666667 -1218.000000 916.000000 -1170.000000 C 945.333333 -1122.000000 968.333333 -1079.666667 985.000000 -1043.000000 C 971.000000 -1034.000000 957.000000 -1025.000000 943.000000 -1016.000000 C 927.666667 -1054.000000 905.000000 -1097.333333 875.000000 -1146.000000 C 845.666667 -1194.666667 813.000000 -1244.333333 777.000000 -1295.000000 C 741.666667 -1345.666667 705.333333 -1392.000000 668.000000 -1434.000000z "/>
</g></svg>
