<?xml version="1.0" ?>
<svg xmlns="http://www.w3.org/2000/svg" version="1.1" width="600" height="600">
  <defs/>
  <g>
    <path stroke-width="0" fill="rgb(0, 0, 0)" opacity="1.0" d="M 177.706787109375 361.41473388671875 C 260.052001953125 361.41473388671875 342.3970947265625 361.41473388671875 424.7423095703125 361.41473388671875 C 424.7423095703125 400.5391845703125 424.7423095703125 439.66357421875 424.7423095703125 478.78802490234375 C 420.7354736328125 478.78802490234375 416.7288818359375 478.78802490234375 412.7220458984375 478.78802490234375 C 412.7220458984375 443.6728515625 412.7220458984375 408.5576171875 412.7220458984375 373.4423828125 C 338.3212890625 373.4423828125 263.9205322265625 373.4423828125 189.519775390625 373.4423828125 C 189.519775390625 408.97235107421875 189.519775390625 444.5023193359375 189.519775390625 480.0322265625 C 185.58203125 480.0322265625 181.6444091796875 480.0322265625 177.706787109375 480.0322265625 C 177.706787109375 440.4930419921875 177.706787109375 400.95391845703125 177.706787109375 361.41473388671875M 183.09521484375 406.8294677734375 C 261.640869140625 406.8294677734375 340.1865234375 406.8294677734375 418.732177734375 406.8294677734375 C 418.732177734375 410.700439453125 418.732177734375 414.5714111328125 418.732177734375 418.4423828125 C 340.1865234375 418.4423828125 261.640869140625 418.4423828125 183.09521484375 418.4423828125 C 183.09521484375 414.5714111328125 183.09521484375 410.700439453125 183.09521484375 406.8294677734375M 183.09521484375 453.69586181640625 C 261.640869140625 453.69586181640625 340.1865234375 453.69586181640625 418.732177734375 453.69586181640625 C 418.732177734375 457.56683349609375 418.732177734375 461.437744140625 418.732177734375 465.3087158203125 C 340.1865234375 465.3087158203125 261.640869140625 465.3087158203125 183.09521484375 465.3087158203125 C 183.09521484375 461.437744140625 183.09521484375 457.56683349609375 183.09521484375 453.69586181640625M 292.520263671875 120.03225708007812 C 296.527099609375 120.03225708007812 300.53369140625 120.03225708007812 304.54052734375 120.03225708007812 C 304.54052734375 190.26266479492188 304.54052734375 260.4930725097656 304.54052734375 330.7235107421875 C 300.53369140625 330.7235107421875 296.527099609375 330.7235107421875 292.520263671875 330.7235107421875 C 292.520263671875 260.4930725097656 292.520263671875 190.26266479492188 292.520263671875 120.03225708007812M 169.624267578125 151.13824462890625 C 253.9727783203125 151.13824462890625 338.3212890625 151.13824462890625 422.6697998046875 151.13824462890625 C 422.6697998046875 184.17971801757812 422.6697998046875 217.22119140625 422.6697998046875 250.26266479492188 C 336.732421875 250.26266479492188 250.794921875 250.26266479492188 164.857666015625 250.26266479492188 C 164.857666015625 246.4608154296875 164.857666015625 242.65899658203125 164.857666015625 238.85711669921875 C 246.857421875 238.85711669921875 328.857177734375 238.85711669921875 410.85693359375 238.85711669921875 C 410.85693359375 213.626708984375 410.85693359375 188.39630126953125 410.85693359375 163.1658935546875 C 330.446044921875 163.1658935546875 250.03515625 163.1658935546875 169.624267578125 163.1658935546875 C 169.624267578125 159.15667724609375 169.624267578125 155.1474609375 169.624267578125 151.13824462890625M 126.31005859375 194.6866455078125 C 242.22900390625 194.6866455078125 358.147705078125 194.6866455078125 474.0665283203125 194.6866455078125 C 474.0665283203125 198.48846435546875 474.0665283203125 202.29031372070312 474.0665283203125 206.0921630859375 C 358.147705078125 206.0921630859375 242.22900390625 206.0921630859375 126.31005859375 206.0921630859375 C 126.31005859375 202.29031372070312 126.31005859375 198.48846435546875 126.31005859375 194.6866455078125M 151.80126953125 280.95391845703125 C 251.278564453125 280.95391845703125 350.7559814453125 280.95391845703125 450.2333984375 280.95391845703125 C 450.2333984375 284.82489013671875 450.2333984375 288.69586181640625 450.2333984375 292.56683349609375 C 350.7559814453125 292.56683349609375 251.278564453125 292.56683349609375 151.80126953125 292.56683349609375 C 151.80126953125 288.69586181640625 151.80126953125 284.82489013671875 151.80126953125 280.95391845703125M 125.481201171875 324.70965576171875 C 241.95263671875 324.70965576171875 358.424072265625 324.70965576171875 474.8955078125 324.70965576171875 C 474.8955078125 328.7188720703125 474.8955078125 332.7281494140625 474.8955078125 336.7373046875 C 358.424072265625 336.7373046875 241.95263671875 336.7373046875 125.481201171875 336.7373046875 C 125.481201171875 332.7281494140625 125.481201171875 328.7188720703125 125.481201171875 324.70965576171875"/>
  </g>
</svg>
