<?xml version="1.0" ?>
<svg xmlns="http://www.w3.org/2000/svg" version="1.1" width="600" height="600">
  <defs/>
  <g>
    <path stroke-width="0" fill="rgb(0, 0, 0)" opacity="1.0" d="M 125.44482421875 346.69122314453125 C 241.420654296875 346.69122314453125 357.396484375 346.69122314453125 473.372314453125 346.69122314453125 C 473.372314453125 350.700439453125 473.372314453125 354.70965576171875 473.372314453125 358.7188720703125 C 357.396484375 358.7188720703125 241.420654296875 358.7188720703125 125.44482421875 358.7188720703125 C 125.44482421875 354.70965576171875 125.44482421875 350.700439453125 125.44482421875 346.69122314453125M 169.195068359375 251.50689697265625 C 256.280517578125 251.50689697265625 343.365966796875 251.50689697265625 430.45166015625 251.50689697265625 C 430.45166015625 284.41015625 430.45166015625 317.3133544921875 430.45166015625 350.216552734375 C 426.5810546875 350.216552734375 422.710693359375 350.216552734375 418.840087890625 350.216552734375 C 418.840087890625 321.184326171875 418.840087890625 292.1520690917969 418.840087890625 263.11981201171875 C 339.49560546875 263.11981201171875 260.151123046875 263.11981201171875 180.806396484375 263.11981201171875 C 180.806396484375 292.1520690917969 180.806396484375 321.184326171875 180.806396484375 350.216552734375 C 176.935791015625 350.216552734375 173.0654296875 350.216552734375 169.195068359375 350.216552734375 C 169.195068359375 317.3133544921875 169.195068359375 284.41015625 169.195068359375 251.50689697265625M 290.699951171875 199.66357421875 C 294.6396484375 199.66357421875 298.5791015625 199.66357421875 302.518798828125 199.66357421875 C 302.518798828125 234.08755493164062 302.518798828125 268.51153564453125 302.518798828125 302.93548583984375 C 302.518798828125 315.930908203125 301.620361328125 328.92626953125 299.8232421875 341.921630859375 C 298.16455078125 354.91705322265625 294.2939453125 367.84332275390625 288.2119140625 380.700439453125 C 282.1298828125 393.5576171875 272.72998046875 405.930908203125 260.0126953125 417.8203125 C 247.295654296875 429.5714111328125 230.0166015625 440.76959228515625 208.176025390625 451.41473388671875 C 186.473876953125 462.0599365234375 159.034912109375 471.59912109375 125.859375 480.0322265625 C 125.306640625 478.92626953125 124.615478515625 477.75115966796875 123.7861328125 476.50689697265625 C 122.95654296875 475.40087890625 122.12744140625 474.225830078125 121.2978515625 472.9815673828125 C 120.60693359375 471.8756103515625 119.846435546875 470.9078369140625 119.01708984375 470.078369140625 C 151.6396484375 461.921630859375 178.525634765625 452.7972412109375 199.6748046875 442.705078125 C 220.962646484375 432.6129150390625 237.757568359375 421.9677734375 250.06005859375 410.76959228515625 C 262.5009765625 399.43316650390625 271.55517578125 387.75115966796875 277.222412109375 375.7235107421875 C 283.028076171875 363.5576171875 286.69140625 351.3917236328125 288.2119140625 339.225830078125 C 289.87060546875 326.921630859375 290.699951171875 314.82489013671875 290.699951171875 302.93548583984375 C 290.699951171875 268.51153564453125 290.699951171875 234.08755493164062 290.699951171875 199.66357421875M 312.885986328125 349.3870849609375 C 325.326904296875 383.11981201171875 345.92333984375 409.8018798828125 374.67529296875 429.43316650390625 C 403.565673828125 449.06451416015625 439.229248046875 462.33642578125 481.666259765625 469.24884033203125 C 480.698486328125 470.078369140625 479.66162109375 471.115234375 478.555908203125 472.35943603515625 C 477.4501953125 473.741943359375 476.482421875 475.0552978515625 475.653076171875 476.299560546875 C 474.9619140625 477.6820068359375 474.20166015625 478.92626953125 473.372314453125 480.0322265625 C 444.896728515625 474.5023193359375 419.323974609375 466.3455810546875 396.654052734375 455.562255859375 C 373.984375 444.77880859375 354.6318359375 430.95391845703125 338.59716796875 414.0875244140625 C 322.562255859375 397.08294677734375 310.12158203125 376.7603759765625 301.274658203125 353.11981201171875 C 305.145263671875 351.8756103515625 309.015625 350.63134765625 312.885986328125 349.3870849609375M 131.043212890625 163.1658935546875 C 242.25 163.1658935546875 353.45703125 163.1658935546875 464.663818359375 163.1658935546875 C 464.663818359375 167.036865234375 464.663818359375 170.9078369140625 464.663818359375 174.77880859375 C 353.45703125 174.77880859375 242.25 174.77880859375 131.043212890625 174.77880859375 C 131.043212890625 170.9078369140625 131.043212890625 167.036865234375 131.043212890625 163.1658935546875M 221.653564453125 120.44699096679688 C 225.524169921875 120.44699096679688 229.39453125 120.44699096679688 233.26513671875 120.44699096679688 C 233.26513671875 154.45620727539062 233.26513671875 188.46542358398438 233.26513671875 222.47467041015625 C 229.39453125 222.47467041015625 225.524169921875 222.47467041015625 221.653564453125 222.47467041015625 C 221.653564453125 188.46542358398438 221.653564453125 154.45620727539062 221.653564453125 120.44699096679688M 361.81982421875 120.44699096679688 C 365.6904296875 120.44699096679688 369.560791015625 120.44699096679688 373.431396484375 120.44699096679688 C 373.431396484375 154.45620727539062 373.431396484375 188.46542358398438 373.431396484375 222.47467041015625 C 369.560791015625 222.47467041015625 365.6904296875 222.47467041015625 361.81982421875 222.47467041015625 C 361.81982421875 188.46542358398438 361.81982421875 154.45620727539062 361.81982421875 120.44699096679688"/>
  </g>
</svg>
