<?xml version="1.0" encoding="utf-8"?>
<svg xmlns="http://www.w3.org/2000/svg" xmlns:ev="http://www.w3.org/2001/xml-events" xmlns:xlink="http://www.w3.org/1999/xlink" version="1.1" baseProfile="full" width="9422.0" height="1736.0" viewBox="90.0 -1596.0 9422.0 1736.0">
<defs/>
<g><path d="M 937.000000 -526.000000 C 1197.333333 -526.000000 1457.666667 -526.000000 1718.000000 -526.000000 C 1718.000000 -308.333333 1718.000000 -90.666667 1718.000000 127.000000 C 1699.666667 127.000000 1681.333333 127.000000 1663.000000 127.000000 C 1663.000000 -71.333333 1663.000000 -269.666667 1663.000000 -468.000000 C 1440.333333 -468.000000 1217.666667 -468.000000 995.000000 -468.000000 C 995.000000 -267.333333 995.000000 -66.666667 995.000000 134.000000 C 975.666667 134.000000 956.333333 134.000000 937.000000 134.000000 C 937.000000 -86.000000 937.000000 -306.000000 937.000000 -526.000000z M 872.000000 -1192.000000 C 1133.666667 -1192.000000 1395.333333 -1192.000000 1657.000000 -1192.000000 C 1657.000000 -1045.000000 1657.000000 -898.000000 1657.000000 -751.000000 C 1637.666667 -751.000000 1618.333333 -751.000000 1599.000000 -751.000000 C 1599.000000 -879.666667 1599.000000 -1008.333333 1599.000000 -1137.000000 C 1356.666667 -1137.000000 1114.333333 -1137.000000 872.000000 -1137.000000 C 872.000000 -1155.333333 872.000000 -1173.666667 872.000000 -1192.000000z M 1192.000000 -1492.000000 C 1211.333333 -1489.333333 1230.666667 -1486.666667 1250.000000 -1484.000000 C 1238.666667 -1408.666667 1225.333333 -1325.333333 1210.000000 -1234.000000 C 1194.666667 -1143.333333 1178.666667 -1055.333333 1162.000000 -970.000000 C 1145.333333 -885.333333 1130.000000 -813.000000 1116.000000 -753.000000 C 1096.666667 -753.000000 1077.333333 -753.000000 1058.000000 -753.000000 C 1069.333333 -799.000000 1081.000000 -852.666667 1093.000000 -914.000000 C 1105.666667 -975.333333 1117.666667 -1040.000000 1129.000000 -1108.000000 C 1140.333333 -1176.000000 1151.333333 -1242.666667 1162.000000 -1308.000000 C 1173.333333 -1374.000000 1183.333333 -1435.333333 1192.000000 -1492.000000z M 843.000000 -1507.000000 C 1154.000000 -1507.000000 1465.000000 -1507.000000 1776.000000 -1507.000000 C 1776.000000 -1488.666667 1776.000000 -1470.333333 1776.000000 -1452.000000 C 1465.000000 -1452.000000 1154.000000 -1452.000000 843.000000 -1452.000000 C 843.000000 -1470.333333 843.000000 -1488.666667 843.000000 -1507.000000z M 797.000000 -772.000000 C 1142.000000 -772.000000 1487.000000 -772.000000 1832.000000 -772.000000 C 1832.000000 -753.333333 1832.000000 -734.666667 1832.000000 -716.000000 C 1487.000000 -716.000000 1142.000000 -716.000000 797.000000 -716.000000 C 797.000000 -734.666667 797.000000 -753.333333 797.000000 -772.000000z M 975.000000 -25.000000 C 1212.666667 -25.000000 1450.333333 -25.000000 1688.000000 -25.000000 C 1688.000000 -6.333333 1688.000000 12.333333 1688.000000 31.000000 C 1450.333333 31.000000 1212.666667 31.000000 975.000000 31.000000 C 975.000000 12.333333 975.000000 -6.333333 975.000000 -25.000000z M 179.000000 -1014.000000 C 355.000000 -1014.000000 531.000000 -1014.000000 707.000000 -1014.000000 C 707.000000 -995.333333 707.000000 -976.666667 707.000000 -958.000000 C 531.000000 -958.000000 355.000000 -958.000000 179.000000 -958.000000 C 179.000000 -976.666667 179.000000 -995.333333 179.000000 -1014.000000z M 190.000000 -1519.000000 C 360.333333 -1519.000000 530.666667 -1519.000000 701.000000 -1519.000000 C 701.000000 -1500.333333 701.000000 -1481.666667 701.000000 -1463.000000 C 530.666667 -1463.000000 360.333333 -1463.000000 190.000000 -1463.000000 C 190.000000 -1481.666667 190.000000 -1500.333333 190.000000 -1519.000000z M 179.000000 -758.000000 C 355.000000 -758.000000 531.000000 -758.000000 707.000000 -758.000000 C 707.000000 -739.666667 707.000000 -721.333333 707.000000 -703.000000 C 531.000000 -703.000000 355.000000 -703.000000 179.000000 -703.000000 C 179.000000 -721.333333 179.000000 -739.666667 179.000000 -758.000000z M 90.000000 -1271.000000 C 316.666667 -1271.000000 543.333333 -1271.000000 770.000000 -1271.000000 C 770.000000 -1251.666667 770.000000 -1232.333333 770.000000 -1213.000000 C 543.333333 -1213.000000 316.666667 -1213.000000 90.000000 -1213.000000 C 90.000000 -1232.333333 90.000000 -1251.666667 90.000000 -1271.000000z M 209.000000 -503.000000 C 375.333333 -503.000000 541.666667 -503.000000 708.000000 -503.000000 C 708.000000 -324.333333 708.000000 -145.666667 708.000000 33.000000 C 541.666667 33.000000 375.333333 33.000000 209.000000 33.000000 C 209.000000 14.333333 209.000000 -4.333333 209.000000 -23.000000 C 356.333333 -23.000000 503.666667 -23.000000 651.000000 -23.000000 C 651.000000 -163.666667 651.000000 -304.333333 651.000000 -445.000000 C 503.666667 -445.000000 356.333333 -445.000000 209.000000 -445.000000 C 209.000000 -464.333333 209.000000 -483.666667 209.000000 -503.000000z M 179.000000 -503.000000 C 198.000000 -503.000000 217.000000 -503.000000 236.000000 -503.000000 C 236.000000 -291.333333 236.000000 -79.666667 236.000000 132.000000 C 217.000000 132.000000 198.000000 132.000000 179.000000 132.000000 C 179.000000 -79.666667 179.000000 -291.333333 179.000000 -503.000000z "/>
</g>
<g><path d="M 2369.000000 -1588.000000 C 2388.333333 -1581.666667 2407.666667 -1575.333333 2427.000000 -1569.000000 C 2403.666667 -1521.666667 2378.666667 -1471.000000 2352.000000 -1417.000000 C 2325.333333 -1363.000000 2297.333333 -1310.666667 2268.000000 -1260.000000 C 2239.333333 -1210.000000 2211.666667 -1165.000000 2185.000000 -1125.000000 C 2169.000000 -1131.333333 2153.000000 -1137.666667 2137.000000 -1144.000000 C 2163.666667 -1184.000000 2191.333333 -1230.000000 2220.000000 -1282.000000 C 2249.333333 -1334.666667 2277.000000 -1388.000000 2303.000000 -1442.000000 C 2329.000000 -1496.666667 2351.000000 -1545.333333 2369.000000 -1588.000000z M 2014.000000 -1165.000000 C 2079.333333 -1167.666667 2154.333333 -1170.666667 2239.000000 -1174.000000 C 2324.333333 -1177.333333 2416.000000 -1181.000000 2514.000000 -1185.000000 C 2612.000000 -1189.666667 2711.666667 -1194.000000 2813.000000 -1198.000000 C 2812.333333 -1179.333333 2811.666667 -1160.666667 2811.000000 -1142.000000 C 2715.000000 -1137.333333 2619.000000 -1132.666667 2523.000000 -1128.000000 C 2427.000000 -1123.333333 2336.333333 -1119.000000 2251.000000 -1115.000000 C 2166.333333 -1111.666667 2090.000000 -1108.000000 2022.000000 -1104.000000 C 2019.333333 -1124.333333 2016.666667 -1144.666667 2014.000000 -1165.000000z M 2133.000000 -920.000000 C 2335.333333 -920.000000 2537.666667 -920.000000 2740.000000 -920.000000 C 2740.000000 -901.333333 2740.000000 -882.666667 2740.000000 -864.000000 C 2556.333333 -864.000000 2372.666667 -864.000000 2189.000000 -864.000000 C 2189.000000 -532.000000 2189.000000 -200.000000 2189.000000 132.000000 C 2170.333333 132.000000 2151.666667 132.000000 2133.000000 132.000000 C 2133.000000 -218.666667 2133.000000 -569.333333 2133.000000 -920.000000z M 2719.000000 -920.000000 C 2737.333333 -920.000000 2755.666667 -920.000000 2774.000000 -920.000000 C 2774.000000 -601.666667 2774.000000 -283.333333 2774.000000 35.000000 C 2774.000000 59.000000 2770.333333 77.333333 2763.000000 90.000000 C 2756.333333 102.666667 2743.333333 112.333333 2724.000000 119.000000 C 2704.000000 124.333333 2673.666667 127.333333 2633.000000 128.000000 C 2593.000000 128.666667 2541.666667 129.000000 2479.000000 129.000000 C 2477.666667 121.000000 2474.666667 111.333333 2470.000000 100.000000 C 2465.333333 88.666667 2460.666667 78.333333 2456.000000 69.000000 C 2512.000000 70.333333 2560.333333 71.000000 2601.000000 71.000000 C 2642.333333 71.000000 2670.666667 70.333333 2686.000000 69.000000 C 2700.000000 69.000000 2709.000000 66.666667 2713.000000 62.000000 C 2717.000000 58.000000 2719.000000 49.333333 2719.000000 36.000000 C 2719.000000 -282.666667 2719.000000 -601.333333 2719.000000 -920.000000z M 2164.000000 -636.000000 C 2356.000000 -636.000000 2548.000000 -636.000000 2740.000000 -636.000000 C 2740.000000 -617.333333 2740.000000 -598.666667 2740.000000 -580.000000 C 2548.000000 -580.000000 2356.000000 -580.000000 2164.000000 -580.000000 C 2164.000000 -598.666667 2164.000000 -617.333333 2164.000000 -636.000000z M 2164.000000 -342.000000 C 2356.000000 -342.000000 2548.000000 -342.000000 2740.000000 -342.000000 C 2740.000000 -322.666667 2740.000000 -303.333333 2740.000000 -284.000000 C 2548.000000 -284.000000 2356.000000 -284.000000 2164.000000 -284.000000 C 2164.000000 -303.333333 2164.000000 -322.666667 2164.000000 -342.000000z M 2986.000000 -1596.000000 C 3004.333333 -1596.000000 3022.666667 -1596.000000 3041.000000 -1596.000000 C 3041.000000 -1364.000000 3041.000000 -1132.000000 3041.000000 -900.000000 C 3041.000000 -872.000000 3048.666667 -853.000000 3064.000000 -843.000000 C 3079.333333 -833.666667 3112.666667 -829.000000 3164.000000 -829.000000 C 3175.333333 -829.000000 3199.000000 -829.000000 3235.000000 -829.000000 C 3271.000000 -829.000000 3311.000000 -829.000000 3355.000000 -829.000000 C 3399.000000 -829.000000 3440.666667 -829.000000 3480.000000 -829.000000 C 3519.333333 -829.000000 3547.333333 -829.000000 3564.000000 -829.000000 C 3593.333333 -829.000000 3615.333333 -835.000000 3630.000000 -847.000000 C 3644.666667 -859.666667 3654.666667 -883.666667 3660.000000 -919.000000 C 3666.000000 -954.333333 3670.333333 -1007.000000 3673.000000 -1077.000000 C 3678.333333 -1073.000000 3683.666667 -1069.000000 3689.000000 -1065.000000 C 3695.000000 -1061.666667 3701.333333 -1059.000000 3708.000000 -1057.000000 C 3715.333333 -1055.000000 3722.333333 -1052.666667 3729.000000 -1050.000000 C 3726.333333 -977.333333 3720.333333 -920.666667 3711.000000 -880.000000 C 3702.333333 -840.000000 3686.666667 -812.333333 3664.000000 -797.000000 C 3642.000000 -781.666667 3609.000000 -774.000000 3565.000000 -774.000000 C 3559.000000 -774.000000 3542.333333 -774.000000 3515.000000 -774.000000 C 3488.333333 -774.000000 3456.666667 -774.000000 3420.000000 -774.000000 C 3384.000000 -774.000000 3348.000000 -774.000000 3312.000000 -774.000000 C 3276.000000 -774.000000 3245.000000 -774.000000 3219.000000 -774.000000 C 3193.000000 -774.000000 3176.666667 -774.000000 3170.000000 -774.000000 C 3122.666667 -774.000000 3085.333333 -777.000000 3058.000000 -783.000000 C 3031.333333 -789.666667 3012.666667 -802.333333 3002.000000 -821.000000 C 2991.333333 -839.666667 2986.000000 -866.000000 2986.000000 -900.000000 C 2986.000000 -1132.000000 2986.000000 -1364.000000 2986.000000 -1596.000000z M 3587.000000 -1427.000000 C 3602.333333 -1411.333333 3617.666667 -1395.666667 3633.000000 -1380.000000 C 3580.333333 -1357.333333 3520.333333 -1333.666667 3453.000000 -1309.000000 C 3385.666667 -1285.000000 3315.666667 -1261.666667 3243.000000 -1239.000000 C 3171.000000 -1217.000000 3100.666667 -1195.666667 3032.000000 -1175.000000 C 3030.666667 -1181.666667 3028.000000 -1189.000000 3024.000000 -1197.000000 C 3020.000000 -1205.666667 3015.666667 -1213.000000 3011.000000 -1219.000000 C 3077.000000 -1239.666667 3145.666667 -1262.000000 3217.000000 -1286.000000 C 3289.000000 -1310.666667 3357.333333 -1335.000000 3422.000000 -1359.000000 C 3486.666667 -1383.666667 3541.666667 -1406.333333 3587.000000 -1427.000000z M 2986.000000 -707.000000 C 3004.333333 -707.000000 3022.666667 -707.000000 3041.000000 -707.000000 C 3041.000000 -475.666667 3041.000000 -244.333333 3041.000000 -13.000000 C 3041.000000 15.000000 3049.000000 34.000000 3065.000000 44.000000 C 3081.000000 54.666667 3116.666667 60.000000 3172.000000 60.000000 C 3184.666667 60.000000 3209.000000 60.000000 3245.000000 60.000000 C 3281.666667 60.000000 3323.000000 60.000000 3369.000000 60.000000 C 3415.666667 60.000000 3458.666667 60.000000 3498.000000 60.000000 C 3538.000000 60.000000 3567.000000 60.000000 3585.000000 60.000000 C 3617.000000 60.000000 3641.000000 53.333333 3657.000000 40.000000 C 3673.000000 27.333333 3683.666667 1.333333 3689.000000 -38.000000 C 3695.000000 -78.000000 3699.333333 -137.666667 3702.000000 -217.000000 C 3710.666667 -211.666667 3720.000000 -206.666667 3730.000000 -202.000000 C 3740.666667 -198.000000 3750.333333 -194.666667 3759.000000 -192.000000 C 3755.666667 -110.000000 3749.333333 -47.000000 3740.000000 -3.000000 C 3731.333333 41.000000 3715.000000 71.666667 3691.000000 89.000000 C 3667.666667 106.333333 3633.000000 115.000000 3587.000000 115.000000 C 3579.000000 115.000000 3561.000000 115.000000 3533.000000 115.000000 C 3505.666667 115.000000 3473.333333 115.000000 3436.000000 115.000000 C 3399.333333 115.000000 3362.000000 115.000000 3324.000000 115.000000 C 3286.666667 115.000000 3254.000000 115.000000 3226.000000 115.000000 C 3198.666667 115.000000 3182.000000 115.000000 3176.000000 115.000000 C 3127.333333 115.000000 3088.666667 111.666667 3060.000000 105.000000 C 3032.000000 99.000000 3012.666667 86.666667 3002.000000 68.000000 C 2991.333333 49.333333 2986.000000 22.333333 2986.000000 -13.000000 C 2986.000000 -244.333333 2986.000000 -475.666667 2986.000000 -707.000000z M 3617.000000 -578.000000 C 3630.666667 -562.666667 3644.333333 -547.333333 3658.000000 -532.000000 C 3609.333333 -501.333333 3550.000000 -472.333333 3480.000000 -445.000000 C 3410.000000 -418.333333 3336.333333 -393.333333 3259.000000 -370.000000 C 3181.666667 -347.333333 3107.333333 -326.333333 3036.000000 -307.000000 C 3034.666667 -313.666667 3031.666667 -321.333333 3027.000000 -330.000000 C 3022.333333 -339.333333 3018.000000 -347.000000 3014.000000 -353.000000 C 3084.666667 -372.333333 3158.333333 -394.000000 3235.000000 -418.000000 C 3311.666667 -442.666667 3383.666667 -468.333333 3451.000000 -495.000000 C 3518.333333 -522.333333 3573.666667 -550.000000 3617.000000 -578.000000z M 2588.000000 -1434.000000 C 2602.000000 -1441.000000 2616.000000 -1448.000000 2630.000000 -1455.000000 C 2667.333333 -1413.000000 2703.666667 -1367.000000 2739.000000 -1317.000000 C 2774.333333 -1267.000000 2806.666667 -1218.000000 2836.000000 -1170.000000 C 2865.333333 -1122.000000 2888.333333 -1079.666667 2905.000000 -1043.000000 C 2891.000000 -1034.000000 2877.000000 -1025.000000 2863.000000 -1016.000000 C 2847.666667 -1054.000000 2825.000000 -1097.333333 2795.000000 -1146.000000 C 2765.666667 -1194.666667 2733.000000 -1244.333333 2697.000000 -1295.000000 C 2661.666667 -1345.666667 2625.333333 -1392.000000 2588.000000 -1434.000000z "/>
</g>
<g><path d="M 4243.000000 -1196.000000 C 4684.000000 -1196.000000 5125.000000 -1196.000000 5566.000000 -1196.000000 C 5566.000000 -1177.333333 5566.000000 -1158.666667 5566.000000 -1140.000000 C 5125.000000 -1140.000000 4684.000000 -1140.000000 4243.000000 -1140.000000 C 4243.000000 -1158.666667 4243.000000 -1177.333333 4243.000000 -1196.000000z M 4153.000000 -636.000000 C 4602.333333 -636.000000 5051.666667 -636.000000 5501.000000 -636.000000 C 5501.000000 -617.333333 5501.000000 -598.666667 5501.000000 -580.000000 C 5051.666667 -580.000000 4602.333333 -580.000000 4153.000000 -580.000000 C 4153.000000 -598.666667 4153.000000 -617.333333 4153.000000 -636.000000z M 3955.000000 12.000000 C 4520.333333 12.000000 5085.666667 12.000000 5651.000000 12.000000 C 5651.000000 30.333333 5651.000000 48.666667 5651.000000 67.000000 C 5085.666667 67.000000 4520.333333 67.000000 3955.000000 67.000000 C 3955.000000 48.666667 3955.000000 30.333333 3955.000000 12.000000z M 4775.000000 -1594.000000 C 4794.333333 -1594.000000 4813.666667 -1594.000000 4833.000000 -1594.000000 C 4833.000000 -1049.333333 4833.000000 -504.666667 4833.000000 40.000000 C 4813.666667 40.000000 4794.333333 40.000000 4775.000000 40.000000 C 4775.000000 -504.666667 4775.000000 -1049.333333 4775.000000 -1594.000000z M 4356.000000 -1555.000000 C 4374.666667 -1551.333333 4393.333333 -1547.666667 4412.000000 -1544.000000 C 4385.333333 -1445.333333 4353.000000 -1349.666667 4315.000000 -1257.000000 C 4277.666667 -1165.000000 4235.666667 -1079.333333 4189.000000 -1000.000000 C 4143.000000 -920.666667 4094.000000 -850.333333 4042.000000 -789.000000 C 4038.000000 -793.000000 4032.666667 -796.666667 4026.000000 -800.000000 C 4020.000000 -804.000000 4013.666667 -808.333333 4007.000000 -813.000000 C 4000.333333 -817.666667 3994.666667 -820.666667 3990.000000 -822.000000 C 4044.666667 -882.000000 4094.666667 -950.666667 4140.000000 -1028.000000 C 4186.000000 -1105.333333 4227.000000 -1188.666667 4263.000000 -1278.000000 C 4299.666667 -1368.000000 4330.666667 -1460.333333 4356.000000 -1555.000000z "/>
</g>
<g><path d="M 5881.000000 -1227.000000 C 6443.000000 -1227.000000 7005.000000 -1227.000000 7567.000000 -1227.000000 C 7567.000000 -1208.333333 7567.000000 -1189.666667 7567.000000 -1171.000000 C 7005.000000 -1171.000000 6443.000000 -1171.000000 5881.000000 -1171.000000 C 5881.000000 -1189.666667 5881.000000 -1208.333333 5881.000000 -1227.000000z M 6125.000000 -33.000000 C 6523.666667 -33.000000 6922.333333 -33.000000 7321.000000 -33.000000 C 7321.000000 -13.666667 7321.000000 5.666667 7321.000000 25.000000 C 6922.333333 25.000000 6523.666667 25.000000 6125.000000 25.000000 C 6125.000000 5.666667 6125.000000 -13.666667 6125.000000 -33.000000z M 6689.000000 -1596.000000 C 6708.333333 -1596.000000 6727.666667 -1596.000000 6747.000000 -1596.000000 C 6747.000000 -1282.333333 6747.000000 -968.666667 6747.000000 -655.000000 C 6727.666667 -655.000000 6708.333333 -655.000000 6689.000000 -655.000000 C 6689.000000 -968.666667 6689.000000 -1282.333333 6689.000000 -1596.000000z M 6102.000000 -687.000000 C 6517.333333 -687.000000 6932.666667 -687.000000 7348.000000 -687.000000 C 7348.000000 -414.000000 7348.000000 -141.000000 7348.000000 132.000000 C 7329.333333 132.000000 7310.666667 132.000000 7292.000000 132.000000 C 7292.000000 -122.000000 7292.000000 -376.000000 7292.000000 -630.000000 C 6913.666667 -630.000000 6535.333333 -630.000000 6157.000000 -630.000000 C 6157.000000 -373.333333 6157.000000 -116.666667 6157.000000 140.000000 C 6138.666667 140.000000 6120.333333 140.000000 6102.000000 140.000000 C 6102.000000 -135.666667 6102.000000 -411.333333 6102.000000 -687.000000z "/>
</g>
<g><path d="M 8448.000000 -1380.000000 C 8795.666667 -1380.000000 9143.333333 -1380.000000 9491.000000 -1380.000000 C 9491.000000 -1361.666667 9491.000000 -1343.333333 9491.000000 -1325.000000 C 9143.333333 -1325.000000 8795.666667 -1325.000000 8448.000000 -1325.000000 C 8448.000000 -1343.333333 8448.000000 -1361.666667 8448.000000 -1380.000000z M 8425.000000 -891.000000 C 8787.333333 -891.000000 9149.666667 -891.000000 9512.000000 -891.000000 C 9512.000000 -871.666667 9512.000000 -852.333333 9512.000000 -833.000000 C 9149.666667 -833.000000 8787.333333 -833.000000 8425.000000 -833.000000 C 8425.000000 -852.333333 8425.000000 -871.666667 8425.000000 -891.000000z M 8740.000000 -12.000000 C 8955.000000 -12.000000 9170.000000 -12.000000 9385.000000 -12.000000 C 9385.000000 6.666667 9385.000000 25.333333 9385.000000 44.000000 C 9170.000000 44.000000 8955.000000 44.000000 8740.000000 44.000000 C 8740.000000 25.333333 8740.000000 6.666667 8740.000000 -12.000000z M 8709.000000 -1594.000000 C 8728.333333 -1594.000000 8747.666667 -1594.000000 8767.000000 -1594.000000 C 8767.000000 -1427.333333 8767.000000 -1260.666667 8767.000000 -1094.000000 C 8747.666667 -1094.000000 8728.333333 -1094.000000 8709.000000 -1094.000000 C 8709.000000 -1260.666667 8709.000000 -1427.333333 8709.000000 -1594.000000z M 9181.000000 -1594.000000 C 9200.333333 -1594.000000 9219.666667 -1594.000000 9239.000000 -1594.000000 C 9239.000000 -1427.333333 9239.000000 -1260.666667 9239.000000 -1094.000000 C 9219.666667 -1094.000000 9200.333333 -1094.000000 9181.000000 -1094.000000 C 9181.000000 -1260.666667 9181.000000 -1427.333333 9181.000000 -1594.000000z M 8709.000000 -503.000000 C 8946.333333 -503.000000 9183.666667 -503.000000 9421.000000 -503.000000 C 9421.000000 -293.000000 9421.000000 -83.000000 9421.000000 127.000000 C 9402.000000 127.000000 9383.000000 127.000000 9364.000000 127.000000 C 9364.000000 -63.666667 9364.000000 -254.333333 9364.000000 -445.000000 C 9165.000000 -445.000000 8966.000000 -445.000000 8767.000000 -445.000000 C 8767.000000 -252.666667 8767.000000 -60.333333 8767.000000 132.000000 C 8747.666667 132.000000 8728.333333 132.000000 8709.000000 132.000000 C 8709.000000 -79.666667 8709.000000 -291.333333 8709.000000 -503.000000z M 8897.000000 -1125.000000 C 8917.000000 -1121.333333 8937.000000 -1117.666667 8957.000000 -1114.000000 C 8913.666667 -920.666667 8849.666667 -750.666667 8765.000000 -604.000000 C 8680.333333 -457.333333 8577.333333 -334.000000 8456.000000 -234.000000 C 8453.333333 -238.000000 8449.333333 -242.333333 8444.000000 -247.000000 C 8438.666667 -252.333333 8432.666667 -257.666667 8426.000000 -263.000000 C 8420.000000 -268.333333 8414.666667 -272.666667 8410.000000 -276.000000 C 8534.000000 -368.666667 8636.333333 -487.333333 8717.000000 -632.000000 C 8797.666667 -776.666667 8857.666667 -941.000000 8897.000000 -1125.000000z M 7855.000000 -1021.000000 C 8031.000000 -1021.000000 8207.000000 -1021.000000 8383.000000 -1021.000000 C 8383.000000 -1002.666667 8383.000000 -984.333333 8383.000000 -966.000000 C 8207.000000 -966.000000 8031.000000 -966.000000 7855.000000 -966.000000 C 7855.000000 -984.333333 7855.000000 -1002.666667 7855.000000 -1021.000000z M 7864.000000 -1519.000000 C 8034.333333 -1519.000000 8204.666667 -1519.000000 8375.000000 -1519.000000 C 8375.000000 -1500.333333 8375.000000 -1481.666667 8375.000000 -1463.000000 C 8204.666667 -1463.000000 8034.333333 -1463.000000 7864.000000 -1463.000000 C 7864.000000 -1481.666667 7864.000000 -1500.333333 7864.000000 -1519.000000z M 7855.000000 -770.000000 C 8031.000000 -770.000000 8207.000000 -770.000000 8383.000000 -770.000000 C 8383.000000 -751.333333 8383.000000 -732.666667 8383.000000 -714.000000 C 8207.000000 -714.000000 8031.000000 -714.000000 7855.000000 -714.000000 C 7855.000000 -732.666667 7855.000000 -751.333333 7855.000000 -770.000000z M 7770.000000 -1275.000000 C 7991.000000 -1275.000000 8212.000000 -1275.000000 8433.000000 -1275.000000 C 8433.000000 -1255.666667 8433.000000 -1236.333333 8433.000000 -1217.000000 C 8212.000000 -1217.000000 7991.000000 -1217.000000 7770.000000 -1217.000000 C 7770.000000 -1236.333333 7770.000000 -1255.666667 7770.000000 -1275.000000z M 7884.000000 -518.000000 C 8050.333333 -518.000000 8216.666667 -518.000000 8383.000000 -518.000000 C 8383.000000 -339.000000 8383.000000 -160.000000 8383.000000 19.000000 C 8216.666667 19.000000 8050.333333 19.000000 7884.000000 19.000000 C 7884.000000 0.000000 7884.000000 -19.000000 7884.000000 -38.000000 C 8031.000000 -38.000000 8178.000000 -38.000000 8325.000000 -38.000000 C 8325.000000 -179.000000 8325.000000 -320.000000 8325.000000 -461.000000 C 8178.000000 -461.000000 8031.000000 -461.000000 7884.000000 -461.000000 C 7884.000000 -480.000000 7884.000000 -499.000000 7884.000000 -518.000000z M 7855.000000 -518.000000 C 7874.000000 -518.000000 7893.000000 -518.000000 7912.000000 -518.000000 C 7912.000000 -305.666667 7912.000000 -93.333333 7912.000000 119.000000 C 7893.000000 119.000000 7874.000000 119.000000 7855.000000 119.000000 C 7855.000000 -93.333333 7855.000000 -305.666667 7855.000000 -518.000000z "/>
</g>
</svg>
