<?xml version="1.0" encoding="utf-8"?>
<svg xmlns="http://www.w3.org/2000/svg" xmlns:ev="http://www.w3.org/2001/xml-events" xmlns:xlink="http://www.w3.org/1999/xlink" version="1.1" baseProfile="full" width="17092.0" height="1734.0" viewBox="113.0 -1596.0 17092.0 1734.0">
<defs/>
<g><path d="M 7878.000000 -1396.000000 C 8014.333333 -1396.000000 8150.666667 -1396.000000 8287.000000 -1396.000000 C 8287.000000 -1058.000000 8287.000000 -720.000000 8287.000000 -382.000000 C 8150.666667 -382.000000 8014.333333 -382.000000 7878.000000 -382.000000 C 7878.000000 -401.333333 7878.000000 -420.666667 7878.000000 -440.000000 C 7995.000000 -440.000000 8112.000000 -440.000000 8229.000000 -440.000000 C 8229.000000 -740.000000 8229.000000 -1040.000000 8229.000000 -1340.000000 C 8112.000000 -1340.000000 7995.000000 -1340.000000 7878.000000 -1340.000000 C 7878.000000 -1358.666667 7878.000000 -1377.333333 7878.000000 -1396.000000z M 7857.000000 -1396.000000 C 7876.000000 -1396.000000 7895.000000 -1396.000000 7914.000000 -1396.000000 C 7914.000000 -992.000000 7914.000000 -588.000000 7914.000000 -184.000000 C 7895.000000 -184.000000 7876.000000 -184.000000 7857.000000 -184.000000 C 7857.000000 -588.000000 7857.000000 -992.000000 7857.000000 -1396.000000z M 8454.000000 -346.000000 C 8770.666667 -346.000000 9087.333333 -346.000000 9404.000000 -346.000000 C 9404.000000 -327.333333 9404.000000 -308.666667 9404.000000 -290.000000 C 9087.333333 -290.000000 8770.666667 -290.000000 8454.000000 -290.000000 C 8454.000000 -308.666667 8454.000000 -327.333333 8454.000000 -346.000000z M 8454.000000 -8.000000 C 8770.666667 -8.000000 9087.333333 -8.000000 9404.000000 -8.000000 C 9404.000000 10.666667 9404.000000 29.333333 9404.000000 48.000000 C 9087.333333 48.000000 8770.666667 48.000000 8454.000000 48.000000 C 8454.000000 29.333333 8454.000000 10.666667 8454.000000 -8.000000z M 8429.000000 -670.000000 C 8765.000000 -670.000000 9101.000000 -670.000000 9437.000000 -670.000000 C 9437.000000 -405.000000 9437.000000 -140.000000 9437.000000 125.000000 C 9417.666667 125.000000 9398.333333 125.000000 9379.000000 125.000000 C 9379.000000 -121.333333 9379.000000 -367.666667 9379.000000 -614.000000 C 9081.333333 -614.000000 8783.666667 -614.000000 8486.000000 -614.000000 C 8486.000000 -365.333333 8486.000000 -116.666667 8486.000000 132.000000 C 8467.000000 132.000000 8448.000000 132.000000 8429.000000 132.000000 C 8429.000000 -135.333333 8429.000000 -402.666667 8429.000000 -670.000000z M 8554.000000 -1144.000000 C 8554.000000 -1061.000000 8554.000000 -978.000000 8554.000000 -895.000000 C 8804.000000 -895.000000 9054.000000 -895.000000 9304.000000 -895.000000 C 9304.000000 -978.000000 9304.000000 -1061.000000 9304.000000 -1144.000000 C 9054.000000 -1144.000000 8804.000000 -1144.000000 8554.000000 -1144.000000z M 8554.000000 -1448.000000 C 8554.000000 -1365.333333 8554.000000 -1282.666667 8554.000000 -1200.000000 C 8804.000000 -1200.000000 9054.000000 -1200.000000 9304.000000 -1200.000000 C 9304.000000 -1282.666667 9304.000000 -1365.333333 9304.000000 -1448.000000 C 9054.000000 -1448.000000 8804.000000 -1448.000000 8554.000000 -1448.000000z M 8498.000000 -1503.000000 C 8785.333333 -1503.000000 9072.666667 -1503.000000 9360.000000 -1503.000000 C 9360.000000 -1281.000000 9360.000000 -1059.000000 9360.000000 -837.000000 C 9072.666667 -837.000000 8785.333333 -837.000000 8498.000000 -837.000000 C 8498.000000 -1059.000000 8498.000000 -1281.000000 8498.000000 -1503.000000z "/>
</g></svg>
