<?xml version="1.0" ?>
<svg xmlns="http://www.w3.org/2000/svg" version="1.1" width="600" height="600">
  <defs/>
  <g>
    <path stroke-width="0" fill="rgb(0, 0, 0)" opacity="1.0" d="M 341.083740234375 126.75985717773438 C 344.91650390625 126.75985717773438 348.749755859375 126.75985717773438 352.58251953125 126.75985717773438 C 352.58251953125 243.67941284179688 352.58251953125 360.5989990234375 352.58251953125 477.5185546875 C 348.749755859375 477.5185546875 344.91650390625 477.5185546875 341.083740234375 477.5185546875 C 341.083740234375 360.5989990234375 341.083740234375 243.67941284179688 341.083740234375 126.75985717773438M 234.3076171875 250.38790893554688 C 311.446533203125 250.38790893554688 388.58544921875 250.38790893554688 465.72412109375 250.38790893554688 C 465.72412109375 254.35824584960938 465.72412109375 258.3285827636719 465.72412109375 262.2989196777344 C 388.58544921875 262.2989196777344 311.446533203125 262.2989196777344 234.3076171875 262.2989196777344 C 234.3076171875 258.3285827636719 234.3076171875 254.35824584960938 234.3076171875 250.38790893554688M 217.469970703125 347.9349365234375 C 305.765380859375 347.9349365234375 394.06103515625 347.9349365234375 482.3564453125 347.9349365234375 C 482.3564453125 351.83685302734375 482.3564453125 355.73876953125 482.3564453125 359.640625 C 394.06103515625 359.640625 305.765380859375 359.640625 217.469970703125 359.640625 C 217.469970703125 355.73876953125 217.469970703125 351.83685302734375 217.469970703125 347.9349365234375M 245.806640625 147.91217041015625 C 249.22900390625 146.474609375 252.651123046875 145.03707885742188 256.073486328125 143.59954833984375 C 261.822998046875 152.36166381835938 267.298828125 161.87680053710938 272.500732421875 172.1448974609375 C 277.83935546875 182.276123046875 282.562255859375 192.13351440429688 286.6689453125 201.717041015625 C 290.91259765625 211.30062866210938 294.129638671875 219.65203857421875 296.31982421875 226.771240234375 C 292.7607421875 228.89334106445312 289.201416015625 231.015380859375 285.642333984375 233.13748168945312 C 283.451904296875 225.74444580078125 280.235107421875 217.11923217773438 275.991455078125 207.2618408203125 C 271.884521484375 197.40444946289062 267.161865234375 187.34170532226562 261.822998046875 177.0736083984375 C 256.62109375 166.6685791015625 251.282470703125 156.94808959960938 245.806640625 147.91217041015625M 440.878173828125 140.1083984375 C 444.57421875 141.9566650390625 448.270263671875 143.80490112304688 451.96630859375 145.65316772460938 C 447.448974609375 155.09982299804688 442.4521484375 165.23104858398438 436.976806640625 176.04678344726562 C 431.501220703125 186.72561645507812 425.888427734375 197.130615234375 420.138916015625 207.2618408203125 C 414.526123046875 217.39306640625 409.119140625 226.42901611328125 403.917236328125 234.36965942382812 C 400.90576171875 232.79522705078125 397.893798828125 231.22076416015625 394.88232421875 229.64633178710938 C 400.08447265625 221.70565795898438 405.491455078125 212.53280639648438 411.10400390625 202.1278076171875 C 416.853515625 191.58584594726562 422.3291015625 180.77011108398438 427.531005859375 169.6805419921875 C 432.733154296875 158.59100341796875 437.18212890625 148.73361206054688 440.878173828125 140.1083984375M 224.862060546875 123.884765625 C 228.695068359375 124.98004150390625 232.528076171875 126.07528686523438 236.361083984375 127.17056274414062 C 227.326171875 149.21279907226562 216.990966796875 170.638916015625 205.35498046875 191.44894409179688 C 193.718994140625 212.1220703125 181.193359375 231.49456787109375 167.778076171875 249.56646728515625 C 154.36279296875 267.5014343261719 140.536376953125 283.72503662109375 126.2998046875 298.2373046875 C 125.751953125 297.4158630371094 124.9306640625 296.3890380859375 123.835693359375 295.1568603515625 C 122.877197265625 293.78778076171875 121.8505859375 292.55560302734375 120.755615234375 291.4603576660156 C 119.797119140625 290.2281799316406 118.7705078125 289.20135498046875 117.675537109375 288.37994384765625 C 131.912109375 274.96295166015625 145.6015625 259.5607604980469 158.7431640625 242.17340087890625 C 171.884765625 224.649169921875 184.13671875 205.82431030273438 195.498779296875 185.69882202148438 C 206.997802734375 165.57330322265625 216.78564453125 144.9686279296875 224.862060546875 123.884765625M 180.71435546875 218.14605712890625 C 184.410400390625 214.44952392578125 188.1064453125 210.75299072265625 191.802734375 207.05648803710938 C 192.076416015625 207.193359375 192.350341796875 207.330322265625 192.6240234375 207.46722412109375 C 192.6240234375 297.2789306640625 192.6240234375 387.0906982421875 192.6240234375 476.9024658203125 C 188.654296875 476.9024658203125 184.68408203125 476.9024658203125 180.71435546875 476.9024658203125 C 180.71435546875 390.65032958984375 180.71435546875 304.398193359375 180.71435546875 218.14605712890625"/>
  </g>
</svg>
