<?xml version="1.0" encoding="utf-8"?>
<svg xmlns="http://www.w3.org/2000/svg" xmlns:ev="http://www.w3.org/2001/xml-events" xmlns:xlink="http://www.w3.org/1999/xlink" version="1.1" baseProfile="full" width="1741.0" height="1732.0" viewBox="79.0 -1596.0 1741.0 1732.0">
<defs/>
<g><path d="M 837.000000 -1350.000000 C 1134.000000 -1350.000000 1431.000000 -1350.000000 1728.000000 -1350.000000 C 1728.000000 -1330.666667 1728.000000 -1311.333333 1728.000000 -1292.000000 C 1431.000000 -1292.000000 1134.000000 -1292.000000 837.000000 -1292.000000 C 837.000000 -1311.333333 837.000000 -1330.666667 837.000000 -1350.000000z M 726.000000 -970.000000 C 1090.666667 -970.000000 1455.333333 -970.000000 1820.000000 -970.000000 C 1820.000000 -950.666667 1820.000000 -931.333333 1820.000000 -912.000000 C 1455.333333 -912.000000 1090.666667 -912.000000 726.000000 -912.000000 C 726.000000 -931.333333 726.000000 -950.666667 726.000000 -970.000000z M 749.000000 -626.000000 C 1105.333333 -626.000000 1461.666667 -626.000000 1818.000000 -626.000000 C 1818.000000 -606.666667 1818.000000 -587.333333 1818.000000 -568.000000 C 1461.666667 -568.000000 1105.333333 -568.000000 749.000000 -568.000000 C 749.000000 -587.333333 749.000000 -606.666667 749.000000 -626.000000z M 1252.000000 -1596.000000 C 1270.666667 -1596.000000 1289.333333 -1596.000000 1308.000000 -1596.000000 C 1308.000000 -1378.333333 1308.000000 -1160.666667 1308.000000 -943.000000 C 1289.333333 -943.000000 1270.666667 -943.000000 1252.000000 -943.000000 C 1252.000000 -1160.666667 1252.000000 -1378.333333 1252.000000 -1596.000000z M 1501.000000 -929.000000 C 1520.333333 -929.000000 1539.666667 -929.000000 1559.000000 -929.000000 C 1559.000000 -607.333333 1559.000000 -285.666667 1559.000000 36.000000 C 1559.000000 64.666667 1554.333333 85.333333 1545.000000 98.000000 C 1536.333333 110.666667 1520.666667 120.333333 1498.000000 127.000000 C 1476.000000 131.666667 1441.000000 134.333333 1393.000000 135.000000 C 1345.000000 135.666667 1283.333333 136.000000 1208.000000 136.000000 C 1206.666667 128.666667 1204.000000 119.000000 1200.000000 107.000000 C 1196.000000 95.666667 1191.000000 85.666667 1185.000000 77.000000 C 1253.666667 78.333333 1313.000000 79.000000 1363.000000 79.000000 C 1413.000000 79.000000 1446.333333 78.333333 1463.000000 77.000000 C 1478.333333 75.666667 1488.333333 72.333333 1493.000000 67.000000 C 1498.333333 62.333333 1501.000000 52.666667 1501.000000 38.000000 C 1501.000000 -284.333333 1501.000000 -606.666667 1501.000000 -929.000000z M 881.000000 -430.000000 C 897.000000 -438.333333 913.000000 -446.666667 929.000000 -455.000000 C 965.000000 -423.000000 1000.000000 -388.000000 1034.000000 -350.000000 C 1068.000000 -312.666667 1099.000000 -275.000000 1127.000000 -237.000000 C 1155.000000 -199.000000 1176.666667 -164.000000 1192.000000 -132.000000 C 1174.666667 -122.000000 1157.333333 -112.000000 1140.000000 -102.000000 C 1126.000000 -134.000000 1105.333333 -169.000000 1078.000000 -207.000000 C 1050.666667 -245.666667 1020.000000 -284.333333 986.000000 -323.000000 C 952.000000 -362.333333 917.000000 -398.000000 881.000000 -430.000000z M 84.000000 -530.000000 C 143.333333 -546.666667 210.666667 -566.333333 286.000000 -589.000000 C 361.333333 -612.333333 441.666667 -637.666667 527.000000 -665.000000 C 612.333333 -693.000000 697.666667 -720.333333 783.000000 -747.000000 C 785.666667 -730.333333 788.333333 -713.666667 791.000000 -697.000000 C 669.666667 -657.000000 548.333333 -617.000000 427.000000 -577.000000 C 306.333333 -537.666667 199.333333 -502.666667 106.000000 -472.000000 C 98.666667 -491.333333 91.333333 -510.666667 84.000000 -530.000000z M 457.000000 -1592.000000 C 476.333333 -1592.000000 495.666667 -1592.000000 515.000000 -1592.000000 C 515.000000 -1016.666667 515.000000 -441.333333 515.000000 134.000000 C 495.666667 134.000000 476.333333 134.000000 457.000000 134.000000 C 457.000000 -441.333333 457.000000 -1016.666667 457.000000 -1592.000000z M 234.000000 -1488.000000 C 253.333333 -1484.666667 272.666667 -1481.333333 292.000000 -1478.000000 C 281.333333 -1394.000000 268.333333 -1310.666667 253.000000 -1228.000000 C 237.666667 -1145.333333 220.333333 -1067.666667 201.000000 -995.000000 C 182.333333 -923.000000 160.000000 -858.333333 134.000000 -801.000000 C 130.666667 -803.000000 125.333333 -805.666667 118.000000 -809.000000 C 111.333333 -812.333333 104.333333 -815.666667 97.000000 -819.000000 C 89.666667 -822.333333 83.666667 -824.666667 79.000000 -826.000000 C 107.000000 -883.333333 130.666667 -947.666667 150.000000 -1019.000000 C 169.333333 -1091.000000 186.000000 -1167.000000 200.000000 -1247.000000 C 214.000000 -1327.000000 225.333333 -1407.333333 234.000000 -1488.000000z M 207.000000 -1179.000000 C 388.333333 -1179.000000 569.666667 -1179.000000 751.000000 -1179.000000 C 751.000000 -1159.666667 751.000000 -1140.333333 751.000000 -1121.000000 C 568.666667 -1121.000000 386.333333 -1121.000000 204.000000 -1121.000000 C 205.000000 -1140.333333 206.000000 -1159.666667 207.000000 -1179.000000z "/>
</g>
</svg>
