<?xml version="1.0" encoding="utf-8"?>
<svg xmlns="http://www.w3.org/2000/svg" xmlns:ev="http://www.w3.org/2001/xml-events" xmlns:xlink="http://www.w3.org/1999/xlink" version="1.1" baseProfile="full" width="9066.7" height="1747.0" viewBox="439.3 -1601.0 9066.7 1747.0">
<defs/>
<g><path d="M 8867.000000 -705.000000 C 8885.333333 -705.000000 8903.666667 -705.000000 8922.000000 -705.000000 C 8922.000000 -475.666667 8922.000000 -246.333333 8922.000000 -17.000000 C 8922.000000 8.333333 8928.333333 25.000000 8941.000000 33.000000 C 8954.333333 41.666667 8982.666667 46.000000 9026.000000 46.000000 C 9036.000000 46.000000 9055.333333 46.000000 9084.000000 46.000000 C 9113.333333 46.000000 9145.333333 46.000000 9180.000000 46.000000 C 9215.333333 46.000000 9248.333333 46.000000 9279.000000 46.000000 C 9309.666667 46.000000 9332.333333 46.000000 9347.000000 46.000000 C 9375.000000 46.000000 9396.000000 38.666667 9410.000000 24.000000 C 9424.000000 9.333333 9433.333333 -20.333333 9438.000000 -65.000000 C 9443.333333 -109.666667 9447.333333 -177.666667 9450.000000 -269.000000 C 9455.333333 -265.000000 9461.000000 -261.000000 9467.000000 -257.000000 C 9473.666667 -253.666667 9480.333333 -251.000000 9487.000000 -249.000000 C 9494.333333 -247.000000 9500.666667 -244.666667 9506.000000 -242.000000 C 9503.333333 -150.000000 9497.666667 -79.000000 9489.000000 -29.000000 C 9481.000000 21.000000 9466.000000 55.666667 9444.000000 75.000000 C 9422.666667 94.333333 9390.333333 104.000000 9347.000000 104.000000 C 9339.000000 104.000000 9320.000000 104.000000 9290.000000 104.000000 C 9260.000000 104.000000 9225.666667 104.000000 9187.000000 104.000000 C 9149.000000 104.000000 9114.666667 104.000000 9084.000000 104.000000 C 9054.000000 104.000000 9035.333333 104.000000 9028.000000 104.000000 C 8985.333333 104.000000 8952.333333 100.666667 8929.000000 94.000000 C 8906.333333 87.333333 8890.333333 75.000000 8881.000000 57.000000 C 8871.666667 39.666667 8867.000000 14.333333 8867.000000 -19.000000 C 8867.000000 -247.666667 8867.000000 -476.333333 8867.000000 -705.000000z M 7811.000000 -735.000000 C 8364.333333 -735.000000 8917.666667 -735.000000 9471.000000 -735.000000 C 9471.000000 -716.666667 9471.000000 -698.333333 9471.000000 -680.000000 C 8917.666667 -680.000000 8364.333333 -680.000000 7811.000000 -680.000000 C 7811.000000 -698.333333 7811.000000 -716.666667 7811.000000 -735.000000z M 8125.000000 -1256.000000 C 8532.333333 -1256.000000 8939.666667 -1256.000000 9347.000000 -1256.000000 C 9347.000000 -1236.666667 9347.000000 -1217.333333 9347.000000 -1198.000000 C 8939.666667 -1198.000000 8532.333333 -1198.000000 8125.000000 -1198.000000 C 8125.000000 -1217.333333 8125.000000 -1236.666667 8125.000000 -1256.000000z M 8358.000000 -697.000000 C 8377.000000 -697.000000 8396.000000 -697.000000 8415.000000 -697.000000 C 8406.333333 -592.333333 8390.666667 -495.666667 8368.000000 -407.000000 C 8346.000000 -319.000000 8313.333333 -239.666667 8270.000000 -169.000000 C 8227.333333 -98.333333 8170.000000 -37.000000 8098.000000 15.000000 C 8026.666667 67.666667 7936.000000 111.333333 7826.000000 146.000000 C 7823.333333 140.666667 7819.666667 135.666667 7815.000000 131.000000 C 7811.000000 127.000000 7806.666667 122.333333 7802.000000 117.000000 C 7797.333333 111.666667 7792.666667 107.333333 7788.000000 104.000000 C 7895.333333 72.000000 7984.000000 30.666667 8054.000000 -20.000000 C 8124.666667 -70.666667 8180.333333 -130.000000 8221.000000 -198.000000 C 8262.333333 -266.000000 8293.000000 -341.333333 8313.000000 -424.000000 C 8333.666667 -507.333333 8348.666667 -598.333333 8358.000000 -697.000000z M 8204.000000 -1532.000000 C 8223.333333 -1527.666667 8242.666667 -1523.333333 8262.000000 -1519.000000 C 8242.666667 -1448.333333 8218.333333 -1374.333333 8189.000000 -1297.000000 C 8159.666667 -1219.666667 8125.333333 -1144.333333 8086.000000 -1071.000000 C 8047.333333 -998.333333 8004.000000 -933.333333 7956.000000 -876.000000 C 7952.666667 -879.333333 7948.333333 -883.000000 7943.000000 -887.000000 C 7937.666667 -891.000000 7932.333333 -894.666667 7927.000000 -898.000000 C 7922.333333 -902.000000 7917.333333 -905.333333 7912.000000 -908.000000 C 7958.000000 -964.666667 7999.666667 -1028.333333 8037.000000 -1099.000000 C 8074.333333 -1170.333333 8107.333333 -1243.333333 8136.000000 -1318.000000 C 8164.666667 -1392.666667 8187.333333 -1464.000000 8204.000000 -1532.000000z M 8609.000000 -1594.000000 C 8628.333333 -1594.000000 8647.666667 -1594.000000 8667.000000 -1594.000000 C 8667.000000 -1300.666667 8667.000000 -1007.333333 8667.000000 -714.000000 C 8647.666667 -714.000000 8628.333333 -714.000000 8609.000000 -714.000000 C 8609.000000 -1007.333333 8609.000000 -1300.666667 8609.000000 -1594.000000z "/>
</g></svg>
