<?xml version="1.0" ?>
<svg xmlns="http://www.w3.org/2000/svg" version="1.1" width="600" height="600">
  <defs/>
  <g>
    <path stroke-width="0" fill="rgb(0, 0, 0)" opacity="1.0" d="M 271.50341796875 238.5172119140625 C 322.322998046875 238.5172119140625 373.1427001953125 238.5172119140625 423.96240234375 238.5172119140625 C 423.96240234375 242.31033325195312 423.96240234375 246.10345458984375 423.96240234375 249.89654541015625 C 373.1427001953125 249.89654541015625 322.322998046875 249.89654541015625 271.50341796875 249.89654541015625 C 271.50341796875 246.10345458984375 271.50341796875 242.31033325195312 271.50341796875 238.5172119140625M 242.128662109375 313.2069091796875 C 313.841552734375 313.2069091796875 385.5545654296875 313.2069091796875 457.267578125 313.2069091796875 C 457.267578125 317.0 457.267578125 320.7930908203125 457.267578125 324.586181640625 C 385.5545654296875 324.586181640625 313.841552734375 324.586181640625 242.128662109375 324.586181640625 C 242.128662109375 320.7930908203125 242.128662109375 317.0 242.128662109375 313.2069091796875M 345.3538818359375 134.44827270507812 C 337.6309814453125 147.96551513671875 327.7015380859375 161.96551513671875 315.5654296875 176.44827270507812 C 303.429443359375 190.7930908203125 289.914306640625 204.586181640625 275.02001953125 217.82757568359375 C 260.263671875 231.0689697265625 244.81787109375 242.862060546875 228.6824951171875 253.2069091796875 C 227.85498046875 251.82757568359375 226.682861328125 250.31033325195312 225.165771484375 248.6551513671875 C 223.7867431640625 246.862060546875 222.407470703125 245.48275756835938 221.028564453125 244.5172119140625 C 237.1639404296875 234.72412109375 252.747802734375 223.13790893554688 267.77978515625 209.75860595703125 C 282.949951171875 196.37930297851562 296.671875 182.17239379882812 308.94580078125 167.13790893554688 C 321.357666015625 151.96548461914062 331.2181396484375 137.06893920898438 338.5274658203125 122.44827270507812 C 342.52685546875 122.44827270507812 346.526123046875 122.44827270507812 350.5255126953125 122.44827270507812 C 360.317138671875 137.89654541015625 372.0394287109375 153.0689697265625 385.6925048828125 167.96551513671875 C 399.345458984375 182.72415161132812 413.8260498046875 196.4482421875 429.134033203125 209.137939453125 C 444.579833984375 221.82757568359375 459.4051513671875 232.5172119140625 473.6097412109375 241.2069091796875 C 472.6444091796875 242.31033325195312 471.3343505859375 243.82757568359375 469.6793212890625 245.75860595703125 C 468.0244140625 247.55172729492188 466.852294921875 249.0689697265625 466.1627197265625 250.31033325195312 C 451.5443115234375 240.7930908203125 436.6500244140625 229.75860595703125 421.47998046875 217.2069091796875 C 406.4478759765625 204.6551513671875 392.3121337890625 191.27584838867188 379.0728759765625 177.0689697265625 C 365.83349609375 162.72412109375 354.5938720703125 148.51724243164062 345.3538818359375 134.44827270507812M 339.7685546875 242.44827270507812 C 343.76806640625 242.44827270507812 347.767333984375 242.44827270507812 351.7667236328125 242.44827270507812 C 351.7667236328125 315.0 351.7667236328125 387.5517578125 351.7667236328125 460.10345458984375 C 351.7667236328125 465.2069091796875 350.9393310546875 469.0 349.2843017578125 471.4827880859375 C 347.767333984375 473.96551513671875 345.0091552734375 475.75860595703125 341.009765625 476.862060546875 C 337.2862548828125 477.82757568359375 331.4940185546875 478.3792724609375 323.6331787109375 478.5172119140625 C 315.91015625 478.6551513671875 305.42919921875 478.72412109375 292.1898193359375 478.72412109375 C 291.9139404296875 477.4827880859375 291.2244873046875 475.689697265625 290.12109375 473.3448486328125 C 289.017822265625 471.137939453125 287.9835205078125 469.137939453125 287.0181884765625 467.3448486328125 C 298.3267822265625 467.6207275390625 308.118408203125 467.75860595703125 316.3929443359375 467.75860595703125 C 324.805419921875 467.75860595703125 330.3907470703125 467.75860595703125 333.14892578125 467.75860595703125 C 336.0450439453125 467.4827880859375 337.837890625 466.862060546875 338.5274658203125 465.89654541015625 C 339.3548583984375 464.9310302734375 339.7685546875 463.137939453125 339.7685546875 460.5172119140625 C 339.7685546875 387.82757568359375 339.7685546875 315.137939453125 339.7685546875 242.44827270507812M 278.5367431640625 352.5172119140625 C 282.26025390625 353.413818359375 285.98388671875 354.310302734375 289.70751953125 355.2069091796875 C 283.0877685546875 373.0 274.537353515625 390.310302734375 264.0562744140625 407.137939453125 C 253.713134765625 423.96551513671875 242.8182373046875 438.310302734375 231.3717041015625 450.17242431640625 C 230.820068359375 449.3448486328125 229.923583984375 448.5172119140625 228.6824951171875 447.689697265625 C 227.5791015625 446.72412109375 226.406982421875 445.75860595703125 225.165771484375 444.7930908203125 C 224.0625 443.689697265625 222.959228515625 442.862060546875 221.85595703125 442.310302734375 C 233.4404296875 430.862060546875 244.1282958984375 417.27587890625 253.919921875 401.5517578125 C 263.7115478515625 385.82757568359375 271.9171142578125 369.4827880859375 278.5367431640625 352.5172119140625M 397.070068359375 357.68963623046875 C 400.10400390625 356.10345458984375 403.1380615234375 354.5172119140625 406.1719970703125 352.9310302734375 C 413.757080078125 362.17242431640625 421.4110107421875 372.24139404296875 429.134033203125 383.137939453125 C 436.85693359375 393.89654541015625 444.0281982421875 404.3792724609375 450.6478271484375 414.586181640625 C 457.267578125 424.7930908203125 462.5770263671875 433.75860595703125 466.576416015625 441.4827880859375 C 463.2666015625 443.4827880859375 459.956787109375 445.4827880859375 456.64697265625 447.4827880859375 C 452.6474609375 439.75860595703125 447.3380126953125 430.6551513671875 440.7183837890625 420.17242431640625 C 434.0987548828125 409.68963623046875 426.996337890625 399.0 419.411376953125 388.10345458984375 C 411.826416015625 377.0689697265625 404.3792724609375 366.9310302734375 397.070068359375 357.68963623046875M 128.146484375 138.37930297851562 C 159.2451171875 138.37930297851562 190.343505859375 138.37930297851562 221.442138671875 138.37930297851562 C 221.442138671875 142.24136352539062 221.442138671875 146.10345458984375 221.442138671875 149.96551513671875 C 194.27392578125 149.96551513671875 167.10595703125 149.96551513671875 139.937744140625 149.96551513671875 C 139.937744140625 259.5517272949219 139.937744140625 369.137939453125 139.937744140625 478.72412109375 C 136.00732421875 478.72412109375 132.076904296875 478.72412109375 128.146484375 478.72412109375 C 128.146484375 365.27587890625 128.146484375 251.82757568359375 128.146484375 138.37930297851562M 218.3392333984375 138.37930297851562 C 219.09765625 138.37930297851562 219.8563232421875 138.37930297851562 220.61474609375 138.37930297851562 C 221.442138671875 138.10342407226562 222.2696533203125 137.82757568359375 223.09716796875 137.55172729492188 C 225.57958984375 139.41378784179688 228.0618896484375 141.27584838867188 230.544189453125 143.13790893554688 C 226.26904296875 153.48275756835938 221.649169921875 164.51724243164062 216.684326171875 176.24136352539062 C 211.857421875 187.82757568359375 206.892822265625 199.55169677734375 201.7900390625 211.41378784179688 C 196.6875 223.13790893554688 191.4468994140625 234.37930297851562 186.068359375 245.137939453125 C 203.03125 262.6551513671875 214.27099609375 278.862060546875 219.787353515625 293.75860595703125 C 225.441650390625 308.5172119140625 228.268798828125 322.5172119140625 228.268798828125 335.75860595703125 C 228.268798828125 344.310302734375 227.1654052734375 352.3792724609375 224.958984375 359.96551513671875 C 222.8902587890625 367.413818359375 219.442626953125 372.862060546875 214.61572265625 376.310302734375 C 212.271240234375 377.96551513671875 209.5130615234375 379.27587890625 206.341064453125 380.24139404296875 C 203.169189453125 381.0689697265625 199.721435546875 381.75860595703125 195.9979248046875 382.310302734375 C 186.758056640625 383.137939453125 177.51806640625 383.137939453125 168.278076171875 382.310302734375 C 168.002197265625 380.9310302734375 167.5196533203125 379.137939453125 166.830078125 376.9310302734375 C 166.140380859375 374.72412109375 165.175048828125 372.6551513671875 163.9339599609375 370.72412109375 C 169.4503173828125 371.0 174.621826171875 371.2069091796875 179.44873046875 371.3448486328125 C 184.41357421875 371.4827880859375 188.8955078125 371.413818359375 192.89501953125 371.137939453125 C 198.6871337890625 370.586181640625 203.30712890625 369.27587890625 206.7548828125 367.2069091796875 C 210.4783935546875 364.586181640625 213.02978515625 360.310302734375 214.4088134765625 354.3792724609375 C 215.9259033203125 348.310302734375 216.684326171875 342.10345458984375 216.684326171875 335.75860595703125 C 216.684326171875 323.3448486328125 213.650390625 309.89654541015625 207.582275390625 295.4137878417969 C 201.5142822265625 280.7930908203125 189.8609619140625 264.586181640625 172.622314453125 246.7930908203125 C 177.035400390625 237.55172729492188 181.3795166015625 228.24139404296875 185.65478515625 218.862060546875 C 189.929931640625 209.48272705078125 194.067138671875 200.24139404296875 198.0665283203125 191.13790893554688 C 202.06591796875 181.89654541015625 205.720458984375 173.06893920898438 209.0303955078125 164.6551513671875 C 212.47802734375 156.10342407226562 215.5810546875 148.24136352539062 218.3392333984375 141.0689697265625 C 218.3392333984375 140.17239379882812 218.3392333984375 139.27584838867188 218.3392333984375 138.37930297851562"/>
  </g>
</svg>
