<?xml version="1.0" ?>
<svg xmlns="http://www.w3.org/2000/svg" version="1.1" width="600" height="600">
  <defs/>
  <g>
    <path stroke-width="0" fill="rgb(0, 0, 0)" opacity="1.0" d="M 231.540283203125 253.09844970703125 C 256.889892578125 253.09844970703125 282.239501953125 253.09844970703125 307.589111328125 253.09844970703125 C 307.589111328125 257.0362548828125 307.589111328125 260.9740905761719 307.589111328125 264.91192626953125 C 282.239501953125 264.91192626953125 256.889892578125 264.91192626953125 231.540283203125 264.91192626953125 C 231.540283203125 260.9740905761719 231.540283203125 257.0362548828125 231.540283203125 253.09844970703125M 228.43212890625 125.63729858398438 C 232.300048828125 125.63729858398438 236.168212890625 125.63729858398438 240.0362548828125 125.63729858398438 C 240.0362548828125 232.442138671875 240.0362548828125 339.2469482421875 240.0362548828125 446.05181884765625 C 236.168212890625 446.880859375 232.300048828125 447.7098388671875 228.43212890625 448.538818359375 C 228.43212890625 340.905029296875 228.43212890625 233.27117919921875 228.43212890625 125.63729858398438M 155.6988525390625 204.1865234375 C 159.635986328125 204.1865234375 163.5731201171875 204.1865234375 167.51025390625 204.1865234375 C 167.51025390625 288.815185546875 167.51025390625 373.44384765625 167.51025390625 458.072509765625 C 163.5731201171875 458.6943359375 159.635986328125 459.3160400390625 155.6988525390625 459.9378662109375 C 155.6988525390625 374.6873779296875 155.6988525390625 289.43695068359375 155.6988525390625 204.1865234375M 120.67919921875 462.42486572265625 C 136.01318359375 459.7996826171875 153.903076171875 456.62176513671875 174.348388671875 452.8912353515625 C 194.7938232421875 449.16064453125 216.6207275390625 445.1536865234375 239.8291015625 440.8704833984375 C 263.037353515625 436.58721923828125 286.452880859375 432.23486328125 310.07568359375 427.8134765625 C 310.282958984375 432.02764892578125 310.4901123046875 436.2418212890625 310.697265625 440.4559326171875 C 288.1796875 444.462890625 265.52392578125 448.60791015625 242.7301025390625 452.8912353515625 C 219.9361572265625 457.0362548828125 198.31640625 461.043212890625 177.87109375 464.91192626953125 C 157.42578125 468.7806396484375 139.2596435546875 472.303955078125 123.373046875 475.48187255859375 C 122.47509765625 471.1295166015625 121.5771484375 466.7772216796875 120.67919921875 462.42486572265625M 452.4339599609375 213.30569458007812 C 456.163818359375 216.20724487304688 459.8936767578125 219.10882568359375 463.6236572265625 222.0103759765625 C 453.2628173828125 230.43865966796875 441.313232421875 239.00518798828125 427.7750244140625 247.7098388671875 C 414.23681640625 256.2763366699219 399.9388427734375 264.70465087890625 384.881103515625 272.99481201171875 C 369.96142578125 281.14678955078125 355.179931640625 288.953369140625 340.53662109375 296.41448974609375 C 340.1221923828125 295.0328063964844 339.3624267578125 293.512939453125 338.2572021484375 291.85491943359375 C 337.1519775390625 290.1968994140625 336.046875 288.6770324707031 334.9417724609375 287.29534912109375 C 349.308837890625 280.11053466796875 363.8140869140625 272.303955078125 378.4573974609375 263.8756408691406 C 393.2388916015625 255.30914306640625 407.1224365234375 246.74267578125 420.1080322265625 238.1761474609375 C 433.0936279296875 229.47149658203125 443.868896484375 221.18133544921875 452.4339599609375 213.30569458007812M 333.0767822265625 125.63729858398438 C 337.4283447265625 125.63729858398438 341.7799072265625 125.63729858398438 346.1314697265625 125.63729858398438 C 346.1314697265625 227.26080322265625 346.1314697265625 328.88427734375 346.1314697265625 430.5078125 C 346.1314697265625 440.3177490234375 347.58203125 446.880859375 350.4830322265625 450.1968994140625 C 353.384033203125 453.512939453125 360.153076171875 455.1710205078125 370.790283203125 455.1710205078125 C 373.2769775390625 455.1710205078125 377.7666015625 455.1710205078125 384.2593994140625 455.1710205078125 C 390.7523193359375 455.1710205078125 397.935791015625 455.1710205078125 405.81005859375 455.1710205078125 C 413.8223876953125 455.1710205078125 421.351318359375 455.1710205078125 428.396728515625 455.1710205078125 C 435.442138671875 455.1710205078125 440.553466796875 455.1710205078125 443.7308349609375 455.1710205078125 C 450.6380615234375 455.1710205078125 455.7493896484375 453.09844970703125 459.0648193359375 448.953369140625 C 462.38037109375 444.67010498046875 464.65966796875 437.001708984375 465.903076171875 425.94818115234375 C 467.284423828125 414.8946533203125 468.25146484375 399.21240234375 468.8040771484375 378.90155029296875 C 470.876220703125 380.42138671875 472.9483642578125 381.6649169921875 475.0206298828125 382.63214111328125 C 477.2308349609375 383.46112060546875 479.2340087890625 384.1519775390625 481.0299072265625 384.70465087890625 C 480.2010498046875 405.4300537109375 478.819580078125 421.8031005859375 476.885498046875 433.8238525390625 C 475.0897216796875 445.7064208984375 471.705078125 454.065673828125 466.73193359375 458.90155029296875 C 461.7586669921875 463.8756103515625 454.0916748046875 466.3626708984375 443.7308349609375 466.3626708984375 C 441.7967529296875 466.3626708984375 437.3760986328125 466.3626708984375 430.4688720703125 466.3626708984375 C 423.5616455078125 466.3626708984375 415.8255615234375 466.3626708984375 407.260498046875 466.3626708984375 C 398.695556640625 466.3626708984375 390.95947265625 466.3626708984375 384.05224609375 466.3626708984375 C 377.1448974609375 466.3626708984375 372.862548828125 466.3626708984375 371.2047119140625 466.3626708984375 C 361.396484375 466.3626708984375 353.7293701171875 465.3955078125 348.20361328125 463.461181640625 C 342.6778564453125 461.6649169921875 338.74072265625 458.1416015625 336.3922119140625 452.8912353515625 C 334.1820068359375 447.5025634765625 333.0767822265625 439.76513671875 333.0767822265625 429.67877197265625 C 333.0767822265625 328.33160400390625 333.0767822265625 226.98443603515625 333.0767822265625 125.63729858398438"/>
  </g>
</svg>
