<?xml version="1.0" encoding="utf-8"?>
<svg xmlns="http://www.w3.org/2000/svg" xmlns:ev="http://www.w3.org/2001/xml-events" xmlns:xlink="http://www.w3.org/1999/xlink" version="1.1" baseProfile="full" width="41856.0" height="1776.0" viewBox="67.0 -1634.0 41856.0 1776.0">
<defs/>
<g><path d="M 15498.000000 -1329.000000 C 16048.333333 -1329.000000 16598.666667 -1329.000000 17149.000000 -1329.000000 C 17149.000000 -1310.333333 17149.000000 -1291.666667 17149.000000 -1273.000000 C 16598.666667 -1273.000000 16048.333333 -1273.000000 15498.000000 -1273.000000 C 15498.000000 -1291.666667 15498.000000 -1310.333333 15498.000000 -1329.000000z M 15919.000000 -649.000000 C 16241.333333 -649.000000 16563.666667 -649.000000 16886.000000 -649.000000 C 16886.000000 -630.333333 16886.000000 -611.666667 16886.000000 -593.000000 C 16563.666667 -593.000000 16241.333333 -593.000000 15919.000000 -593.000000 C 15919.000000 -611.666667 15919.000000 -630.333333 15919.000000 -649.000000z M 15886.000000 -979.000000 C 16215.666667 -979.000000 16545.333333 -979.000000 16875.000000 -979.000000 C 16875.000000 -960.000000 16875.000000 -941.000000 16875.000000 -922.000000 C 16564.000000 -922.000000 16253.000000 -922.000000 15942.000000 -922.000000 C 15942.000000 -570.000000 15942.000000 -218.000000 15942.000000 134.000000 C 15923.333333 134.000000 15904.666667 134.000000 15886.000000 134.000000 C 15886.000000 -237.000000 15886.000000 -608.000000 15886.000000 -979.000000z M 16856.000000 -979.000000 C 16875.000000 -979.000000 16894.000000 -979.000000 16913.000000 -979.000000 C 16913.000000 -644.333333 16913.000000 -309.666667 16913.000000 25.000000 C 16913.000000 53.000000 16908.333333 73.666667 16899.000000 87.000000 C 16890.333333 101.000000 16873.333333 111.000000 16848.000000 117.000000 C 16824.000000 122.333333 16785.333333 125.000000 16732.000000 125.000000 C 16678.666667 125.000000 16608.666667 125.000000 16522.000000 125.000000 C 16520.666667 117.000000 16517.333333 107.666667 16512.000000 97.000000 C 16506.666667 86.333333 16501.666667 76.333333 16497.000000 67.000000 C 16549.000000 68.333333 16596.000000 69.333333 16638.000000 70.000000 C 16680.666667 70.666667 16717.000000 70.666667 16747.000000 70.000000 C 16777.000000 69.333333 16798.666667 69.000000 16812.000000 69.000000 C 16829.333333 67.666667 16841.000000 63.666667 16847.000000 57.000000 C 16853.000000 51.000000 16856.000000 40.333333 16856.000000 25.000000 C 16856.000000 -309.666667 16856.000000 -644.333333 16856.000000 -979.000000z M 16161.000000 -1594.000000 C 16178.666667 -1588.666667 16196.333333 -1583.333333 16214.000000 -1578.000000 C 16172.000000 -1442.666667 16118.000000 -1308.666667 16052.000000 -1176.000000 C 15986.000000 -1043.333333 15907.000000 -919.333333 15815.000000 -804.000000 C 15723.000000 -689.333333 15617.333333 -589.000000 15498.000000 -503.000000 C 15496.666667 -508.333333 15493.666667 -513.333333 15489.000000 -518.000000 C 15485.000000 -523.333333 15481.000000 -528.333333 15477.000000 -533.000000 C 15473.000000 -538.333333 15469.333333 -543.000000 15466.000000 -547.000000 C 15552.666667 -608.333333 15632.000000 -678.666667 15704.000000 -758.000000 C 15776.666667 -837.333333 15842.000000 -922.333333 15900.000000 -1013.000000 C 15958.666667 -1104.333333 16009.666667 -1199.000000 16053.000000 -1297.000000 C 16096.333333 -1395.000000 16132.333333 -1494.000000 16161.000000 -1594.000000z M 15919.000000 -317.000000 C 16241.333333 -317.000000 16563.666667 -317.000000 16886.000000 -317.000000 C 16886.000000 -297.666667 16886.000000 -278.333333 16886.000000 -259.000000 C 16563.666667 -259.000000 16241.333333 -259.000000 15919.000000 -259.000000 C 15919.000000 -278.333333 15919.000000 -297.666667 15919.000000 -317.000000z "/>
</g></svg>
