<?xml version="1.0" encoding="utf-8"?>
<svg xmlns="http://www.w3.org/2000/svg" xmlns:ev="http://www.w3.org/2001/xml-events" xmlns:xlink="http://www.w3.org/1999/xlink" version="1.1" baseProfile="full" width="17103.0" height="1740.3" viewBox="60.0 -1597.0 17103.0 1740.3">
<defs/>
<g><path d="M 14717.000000 -165.000000 C 14729.000000 -179.000000 14741.000000 -193.000000 14753.000000 -207.000000 C 14808.333333 -184.333333 14866.000000 -158.000000 14926.000000 -128.000000 C 14986.000000 -98.666667 15043.000000 -69.000000 15097.000000 -39.000000 C 15151.000000 -9.000000 15195.666667 18.000000 15231.000000 42.000000 C 15219.000000 58.000000 15207.000000 74.000000 15195.000000 90.000000 C 15159.000000 66.000000 15114.000000 38.666667 15060.000000 8.000000 C 15006.666667 -22.666667 14949.666667 -53.333333 14889.000000 -84.000000 C 14829.000000 -115.333333 14771.666667 -142.333333 14717.000000 -165.000000z M 13772.000000 -545.000000 C 14192.666667 -545.000000 14613.333333 -545.000000 15034.000000 -545.000000 C 15034.000000 -526.666667 15034.000000 -508.333333 15034.000000 -490.000000 C 14613.333333 -490.000000 14192.666667 -490.000000 13772.000000 -490.000000 C 13772.000000 -508.333333 13772.000000 -526.666667 13772.000000 -545.000000z M 13555.000000 -346.000000 C 14120.333333 -346.000000 14685.666667 -346.000000 15251.000000 -346.000000 C 15251.000000 -327.333333 15251.000000 -308.666667 15251.000000 -290.000000 C 14685.666667 -290.000000 14120.333333 -290.000000 13555.000000 -290.000000 C 13555.000000 -308.666667 13555.000000 -327.333333 13555.000000 -346.000000z M 13584.000000 -1452.000000 C 14128.666667 -1452.000000 14673.333333 -1452.000000 15218.000000 -1452.000000 C 15218.000000 -1432.666667 15218.000000 -1413.333333 15218.000000 -1394.000000 C 14673.333333 -1394.000000 14128.666667 -1394.000000 13584.000000 -1394.000000 C 13584.000000 -1413.333333 13584.000000 -1432.666667 13584.000000 -1452.000000z M 14373.000000 -332.000000 C 14392.333333 -332.000000 14411.666667 -332.000000 14431.000000 -332.000000 C 14431.000000 -205.333333 14431.000000 -78.666667 14431.000000 48.000000 C 14431.000000 71.333333 14427.333333 88.666667 14420.000000 100.000000 C 14413.333333 111.333333 14399.000000 119.666667 14377.000000 125.000000 C 14356.333333 129.666667 14323.333333 132.333333 14278.000000 133.000000 C 14232.666667 133.666667 14171.666667 134.000000 14095.000000 134.000000 C 14093.666667 126.666667 14090.666667 118.000000 14086.000000 108.000000 C 14081.333333 98.666667 14076.666667 89.666667 14072.000000 81.000000 C 14143.333333 82.333333 14201.333333 83.000000 14246.000000 83.000000 C 14291.333333 83.000000 14322.333333 82.333333 14339.000000 81.000000 C 14353.000000 79.666667 14362.000000 76.666667 14366.000000 72.000000 C 14370.666667 67.333333 14373.000000 59.333333 14373.000000 48.000000 C 14373.000000 -78.666667 14373.000000 -205.333333 14373.000000 -332.000000z M 14006.000000 -213.000000 C 14024.000000 -206.000000 14042.000000 -199.000000 14060.000000 -192.000000 C 14018.000000 -157.333333 13970.000000 -122.666667 13916.000000 -88.000000 C 13862.666667 -53.333333 13807.333333 -20.666667 13750.000000 10.000000 C 13693.333333 40.666667 13638.666667 66.666667 13586.000000 88.000000 C 13583.333333 84.666667 13578.666667 80.666667 13572.000000 76.000000 C 13566.000000 71.333333 13559.666667 66.333333 13553.000000 61.000000 C 13547.000000 56.333333 13541.333333 52.666667 13536.000000 50.000000 C 13619.333333 16.666667 13703.333333 -23.000000 13788.000000 -69.000000 C 13873.333333 -115.000000 13946.000000 -163.000000 14006.000000 -213.000000z M 14373.000000 -1596.000000 C 14392.333333 -1596.000000 14411.666667 -1596.000000 14431.000000 -1596.000000 C 14431.000000 -1533.666667 14431.000000 -1471.333333 14431.000000 -1409.000000 C 14411.666667 -1409.000000 14392.333333 -1409.000000 14373.000000 -1409.000000 C 14373.000000 -1471.333333 14373.000000 -1533.666667 14373.000000 -1596.000000z M 13836.000000 -1217.000000 C 13836.000000 -1056.333333 13836.000000 -895.666667 13836.000000 -735.000000 C 14214.666667 -735.000000 14593.333333 -735.000000 14972.000000 -735.000000 C 14972.000000 -895.666667 14972.000000 -1056.333333 14972.000000 -1217.000000 C 14593.333333 -1217.000000 14214.666667 -1217.000000 13836.000000 -1217.000000z M 13780.000000 -1275.000000 C 14196.000000 -1275.000000 14612.000000 -1275.000000 15028.000000 -1275.000000 C 15028.000000 -1076.666667 15028.000000 -878.333333 15028.000000 -680.000000 C 14612.000000 -680.000000 14196.000000 -680.000000 13780.000000 -680.000000 C 13780.000000 -878.333333 13780.000000 -1076.666667 13780.000000 -1275.000000z M 14118.000000 -1058.000000 C 14118.000000 -1006.666667 14118.000000 -955.333333 14118.000000 -904.000000 C 14306.666667 -904.000000 14495.333333 -904.000000 14684.000000 -904.000000 C 14684.000000 -955.333333 14684.000000 -1006.666667 14684.000000 -1058.000000 C 14495.333333 -1058.000000 14306.666667 -1058.000000 14118.000000 -1058.000000z M 14062.000000 -1114.000000 C 14288.000000 -1114.000000 14514.000000 -1114.000000 14740.000000 -1114.000000 C 14740.000000 -1025.000000 14740.000000 -936.000000 14740.000000 -847.000000 C 14514.000000 -847.000000 14288.000000 -847.000000 14062.000000 -847.000000 C 14062.000000 -936.000000 14062.000000 -1025.000000 14062.000000 -1114.000000z "/>
</g></svg>
