<?xml version="1.0" ?>
<svg xmlns="http://www.w3.org/2000/svg" version="1.1" width="600" height="600">
  <defs/>
  <g>
    <path stroke-width="0" fill="rgb(0, 0, 0)" opacity="1.0" d="M 129.56988525390625 211.2760009765625 C 243.552001953125 211.2760009765625 357.53399658203125 211.2760009765625 471.51611328125 211.2760009765625 C 471.51611328125 215.2783203125 471.51611328125 219.28060913085938 471.51611328125 223.28289794921875 C 357.53399658203125 223.28289794921875 243.552001953125 223.28289794921875 129.56988525390625 223.28289794921875 C 129.56988525390625 219.28060913085938 129.56988525390625 215.2783203125 129.56988525390625 211.2760009765625M 206.3629150390625 385.3760986328125 C 268.3216552734375 385.3760986328125 330.28045654296875 385.3760986328125 392.2392578125 385.3760986328125 C 392.2392578125 389.37841796875 392.2392578125 393.38067626953125 392.2392578125 397.3829345703125 C 330.28045654296875 397.3829345703125 268.3216552734375 397.3829345703125 206.3629150390625 397.3829345703125 C 206.3629150390625 393.38067626953125 206.3629150390625 389.37841796875 206.3629150390625 385.3760986328125M 293.71234130859375 121.4312744140625 C 297.714111328125 121.4312744140625 301.7159423828125 121.4312744140625 305.71771240234375 121.4312744140625 C 305.71771240234375 240.53421020507812 305.71771240234375 359.63714599609375 305.71771240234375 478.7401123046875 C 301.7159423828125 478.7401123046875 297.714111328125 478.7401123046875 293.71234130859375 478.7401123046875 C 293.71234130859375 359.63714599609375 293.71234130859375 240.53421020507812 293.71234130859375 121.4312744140625M 289.3656005859375 213.76019287109375 C 292.67742919921875 215.0712890625 295.9892578125 216.38238525390625 299.30108642578125 217.6934814453125 C 287.15765380859375 245.01953125 271.8404541015625 271.24151611328125 253.34942626953125 296.3594055175781 C 234.99639892578125 321.33929443359375 214.8494873046875 343.8349609375 192.9085693359375 363.846435546875 C 171.105712890625 383.85797119140625 148.9578857421875 399.9361572265625 126.465087890625 412.0810546875 C 125.9130859375 410.97698974609375 125.0850830078125 409.8729248046875 123.981201171875 408.768798828125 C 123.0152587890625 407.5267333984375 122.04925537109375 406.42266845703125 121.08331298828125 405.45654296875 C 120.11737060546875 404.3525390625 119.15142822265625 403.38641357421875 118.18548583984375 402.558349609375 C 135.1585693359375 394.001708984375 151.9246826171875 383.16790771484375 168.48388671875 370.05694580078125 C 185.04296875 356.9459228515625 200.8431396484375 342.04083251953125 215.8843994140625 325.341552734375 C 230.9256591796875 308.642333984375 244.724853515625 290.8389892578125 257.2822265625 271.93157958984375 C 269.97760009765625 253.024169921875 280.67205810546875 233.63369750976562 289.3656005859375 213.76019287109375M 310.8924560546875 215.0023193359375 C 322.2078857421875 241.6383056640625 336.76611328125 267.23919677734375 354.56719970703125 291.8050537109375 C 372.3682861328125 316.37091064453125 392.17022705078125 338.24554443359375 413.97308349609375 357.428955078125 C 435.77587890625 376.6124267578125 458.475830078125 391.517578125 482.072509765625 402.14434814453125 C 481.382568359375 402.972412109375 480.485595703125 403.9384765625 479.3817138671875 405.04254150390625 C 478.27783203125 406.0086669921875 477.242919921875 407.1126708984375 476.27685546875 408.35479736328125 C 475.448974609375 409.4588623046875 474.6209716796875 410.56298828125 473.79296875 411.66705322265625 C 450.47216796875 399.9361572265625 427.77239990234375 384.2030029296875 405.69354248046875 364.467529296875 C 383.752685546875 344.7320556640625 363.74371337890625 322.3743896484375 345.6666259765625 297.39447021484375 C 327.72760009765625 272.276611328125 312.96234130859375 246.12362670898438 301.3709716796875 218.93560791015625 C 304.5447998046875 217.62448120117188 307.7186279296875 216.31341552734375 310.8924560546875 215.0023193359375"/>
  </g>
</svg>
