<?xml version="1.0" encoding="utf-8"?>
<svg xmlns="http://www.w3.org/2000/svg" xmlns:ev="http://www.w3.org/2001/xml-events" xmlns:xlink="http://www.w3.org/1999/xlink" version="1.1" baseProfile="full" width="20873.0" height="1742.0" viewBox="84.0 -1596.0 20873.0 1742.0">
<defs/>
<g><path d="M 10395.000000 -1480.000000 C 10393.666667 -1470.000000 10392.000000 -1459.333333 10390.000000 -1448.000000 C 10388.000000 -1437.333333 10385.666667 -1425.000000 10383.000000 -1411.000000 C 10381.000000 -1394.333333 10376.666667 -1364.000000 10370.000000 -1320.000000 C 10363.333333 -1276.000000 10355.333333 -1227.333333 10346.000000 -1174.000000 C 10337.333333 -1120.666667 10327.333333 -1070.333333 10316.000000 -1023.000000 C 10302.000000 -969.666667 10286.000000 -911.000000 10268.000000 -847.000000 C 10250.000000 -783.000000 10229.000000 -715.333333 10205.000000 -644.000000 C 10181.666667 -573.333333 10155.000000 -500.333333 10125.000000 -425.000000 C 10095.000000 -350.333333 10061.000000 -274.666667 10023.000000 -198.000000 C 9985.666667 -121.333333 9943.333333 -45.000000 9896.000000 31.000000 C 9875.333333 22.666667 9854.666667 14.333333 9834.000000 6.000000 C 9876.666667 -49.333333 9916.666667 -112.666667 9954.000000 -184.000000 C 9992.000000 -256.000000 10027.000000 -331.000000 10059.000000 -409.000000 C 10091.000000 -487.000000 10120.000000 -564.000000 10146.000000 -640.000000 C 10172.666667 -716.666667 10195.000000 -787.333333 10213.000000 -852.000000 C 10231.666667 -917.333333 10246.333333 -973.333333 10257.000000 -1020.000000 C 10275.000000 -1086.000000 10290.333333 -1161.333333 10303.000000 -1246.000000 C 10315.666667 -1330.666667 10322.666667 -1410.666667 10324.000000 -1486.000000 C 10347.666667 -1484.000000 10371.333333 -1482.000000 10395.000000 -1480.000000z M 11055.000000 -1250.000000 C 11085.666667 -1214.000000 11118.333333 -1167.666667 11153.000000 -1111.000000 C 11187.666667 -1055.000000 11222.000000 -995.000000 11256.000000 -931.000000 C 11290.000000 -867.000000 11321.333333 -805.333333 11350.000000 -746.000000 C 11378.666667 -686.666667 11401.333333 -635.000000 11418.000000 -591.000000 C 11400.000000 -581.666667 11382.000000 -572.333333 11364.000000 -563.000000 C 11348.666667 -607.666667 11327.666667 -660.000000 11301.000000 -720.000000 C 11274.333333 -780.000000 11244.333333 -841.666667 11211.000000 -905.000000 C 11177.666667 -968.333333 11143.333333 -1027.666667 11108.000000 -1083.000000 C 11072.666667 -1139.000000 11038.333333 -1185.000000 11005.000000 -1221.000000 C 11021.666667 -1230.666667 11038.333333 -1240.333333 11055.000000 -1250.000000z M 9790.000000 -1031.000000 C 9815.333333 -1029.666667 9838.333333 -1029.000000 9859.000000 -1029.000000 C 9879.666667 -1029.000000 9902.666667 -1029.666667 9928.000000 -1031.000000 C 9955.333333 -1032.333333 9991.666667 -1034.666667 10037.000000 -1038.000000 C 10082.333333 -1041.333333 10132.000000 -1045.000000 10186.000000 -1049.000000 C 10240.666667 -1053.666667 10294.666667 -1058.000000 10348.000000 -1062.000000 C 10401.333333 -1066.666667 10450.000000 -1070.666667 10494.000000 -1074.000000 C 10538.000000 -1077.333333 10571.666667 -1079.000000 10595.000000 -1079.000000 C 10642.333333 -1079.000000 10686.666667 -1072.333333 10728.000000 -1059.000000 C 10769.333333 -1045.666667 10803.333333 -1018.666667 10830.000000 -978.000000 C 10857.333333 -938.000000 10871.000000 -877.666667 10871.000000 -797.000000 C 10871.000000 -720.333333 10867.000000 -638.666667 10859.000000 -552.000000 C 10851.666667 -465.333333 10839.666667 -383.333333 10823.000000 -306.000000 C 10806.333333 -228.666667 10784.666667 -164.333333 10758.000000 -113.000000 C 10730.000000 -51.666667 10695.000000 -12.333333 10653.000000 5.000000 C 10611.666667 22.333333 10564.666667 31.000000 10512.000000 31.000000 C 10476.000000 31.000000 10437.000000 27.666667 10395.000000 21.000000 C 10353.666667 15.000000 10319.000000 8.666667 10291.000000 2.000000 C 10288.000000 -20.333333 10285.000000 -42.666667 10282.000000 -65.000000 C 10311.333333 -56.333333 10340.333333 -49.000000 10369.000000 -43.000000 C 10397.666667 -37.666667 10424.666667 -33.666667 10450.000000 -31.000000 C 10476.000000 -28.333333 10498.666667 -27.000000 10518.000000 -27.000000 C 10556.000000 -27.000000 10591.333333 -33.333333 10624.000000 -46.000000 C 10656.666667 -58.666667 10685.333333 -90.666667 10710.000000 -142.000000 C 10732.666667 -193.333333 10751.666667 -254.666667 10767.000000 -326.000000 C 10782.333333 -398.000000 10793.666667 -474.000000 10801.000000 -554.000000 C 10809.000000 -634.000000 10813.000000 -711.666667 10813.000000 -787.000000 C 10813.000000 -853.666667 10803.333333 -904.000000 10784.000000 -938.000000 C 10765.333333 -972.000000 10739.333333 -995.333333 10706.000000 -1008.000000 C 10672.666667 -1020.666667 10635.000000 -1027.000000 10593.000000 -1027.000000 C 10557.000000 -1027.000000 10508.666667 -1024.666667 10448.000000 -1020.000000 C 10388.000000 -1016.000000 10324.000000 -1010.666667 10256.000000 -1004.000000 C 10188.666667 -998.000000 10125.666667 -992.000000 10067.000000 -986.000000 C 10009.000000 -980.000000 9964.000000 -975.666667 9932.000000 -973.000000 C 9915.333333 -972.333333 9894.000000 -970.333333 9868.000000 -967.000000 C 9842.666667 -963.666667 9820.000000 -960.666667 9800.000000 -958.000000 C 9796.666667 -982.333333 9793.333333 -1006.666667 9790.000000 -1031.000000z "/>
</g></svg>
