<?xml version="1.0" encoding="utf-8"?>
<svg xmlns="http://www.w3.org/2000/svg" xmlns:ev="http://www.w3.org/2001/xml-events" xmlns:xlink="http://www.w3.org/1999/xlink" version="1.1" baseProfile="full" width="17092.0" height="1734.0" viewBox="113.0 -1596.0 17092.0 1734.0">
<defs/>
<g><path d="M 12714.000000 -1532.000000 C 12676.000000 -1459.333333 12626.000000 -1383.666667 12564.000000 -1305.000000 C 12502.666667 -1226.333333 12434.333333 -1150.000000 12359.000000 -1076.000000 C 12283.666667 -1002.666667 12205.000000 -936.333333 12123.000000 -877.000000 C 12119.000000 -883.666667 12113.000000 -891.000000 12105.000000 -899.000000 C 12097.666667 -907.666667 12090.666667 -914.666667 12084.000000 -920.000000 C 12166.000000 -976.000000 12245.000000 -1041.000000 12321.000000 -1115.000000 C 12397.666667 -1189.666667 12467.333333 -1268.000000 12530.000000 -1350.000000 C 12592.666667 -1432.000000 12642.666667 -1512.666667 12680.000000 -1592.000000 C 12699.000000 -1592.000000 12718.000000 -1592.000000 12737.000000 -1592.000000 C 12787.000000 -1510.000000 12846.666667 -1428.333333 12916.000000 -1347.000000 C 12985.333333 -1265.666667 13058.333333 -1189.333333 13135.000000 -1118.000000 C 13211.666667 -1047.333333 13286.333333 -987.000000 13359.000000 -937.000000 C 13354.333333 -930.333333 13348.000000 -922.333333 13340.000000 -913.000000 C 13332.666667 -904.333333 13326.333333 -897.000000 13321.000000 -891.000000 C 13247.000000 -945.000000 13171.666667 -1007.333333 13095.000000 -1078.000000 C 13019.000000 -1149.333333 12948.000000 -1224.000000 12882.000000 -1302.000000 C 12816.000000 -1380.000000 12760.000000 -1456.666667 12714.000000 -1532.000000z M 12202.000000 -666.000000 C 12524.333333 -666.000000 12846.666667 -666.000000 13169.000000 -666.000000 C 13169.000000 -647.666667 13169.000000 -629.333333 13169.000000 -611.000000 C 12846.666667 -611.000000 12524.333333 -611.000000 12202.000000 -611.000000 C 12202.000000 -629.333333 12202.000000 -647.666667 12202.000000 -666.000000z M 13146.000000 -666.000000 C 13164.666667 -666.000000 13183.333333 -666.000000 13202.000000 -666.000000 C 13202.000000 -487.666667 13202.000000 -309.333333 13202.000000 -131.000000 C 13202.000000 -109.000000 13198.666667 -92.000000 13192.000000 -80.000000 C 13186.000000 -68.666667 13173.333333 -60.666667 13154.000000 -56.000000 C 13133.333333 -50.666667 13102.666667 -47.333333 13062.000000 -46.000000 C 13022.000000 -44.666667 12969.333333 -44.000000 12904.000000 -44.000000 C 12902.666667 -53.333333 12899.666667 -62.666667 12895.000000 -72.000000 C 12891.000000 -81.333333 12886.333333 -90.666667 12881.000000 -100.000000 C 12941.666667 -98.666667 12992.000000 -98.000000 13032.000000 -98.000000 C 13072.000000 -98.000000 13099.333333 -98.666667 13114.000000 -100.000000 C 13128.000000 -101.333333 13136.666667 -103.666667 13140.000000 -107.000000 C 13144.000000 -111.000000 13146.000000 -119.000000 13146.000000 -131.000000 C 13146.000000 -309.333333 13146.000000 -487.666667 13146.000000 -666.000000z M 12372.000000 -1008.000000 C 12604.333333 -1008.000000 12836.666667 -1008.000000 13069.000000 -1008.000000 C 13069.000000 -989.333333 13069.000000 -970.666667 13069.000000 -952.000000 C 12836.666667 -952.000000 12604.333333 -952.000000 12372.000000 -952.000000 C 12372.000000 -970.666667 12372.000000 -989.333333 12372.000000 -1008.000000z M 12616.000000 -645.000000 C 12634.666667 -645.000000 12653.333333 -645.000000 12672.000000 -645.000000 C 12672.000000 -386.000000 12672.000000 -127.000000 12672.000000 132.000000 C 12653.333333 132.000000 12634.666667 132.000000 12616.000000 132.000000 C 12616.000000 -127.000000 12616.000000 -386.000000 12616.000000 -645.000000z M 11894.000000 -1596.000000 C 11913.333333 -1596.000000 11932.666667 -1596.000000 11952.000000 -1596.000000 C 11952.000000 -1020.333333 11952.000000 -444.666667 11952.000000 131.000000 C 11932.666667 131.000000 11913.333333 131.000000 11894.000000 131.000000 C 11894.000000 -444.666667 11894.000000 -1020.333333 11894.000000 -1596.000000z M 11695.000000 -1235.000000 C 11713.333333 -1231.666667 11731.666667 -1228.333333 11750.000000 -1225.000000 C 11748.666667 -1171.000000 11744.000000 -1113.000000 11736.000000 -1051.000000 C 11728.000000 -989.000000 11716.000000 -929.000000 11700.000000 -871.000000 C 11684.000000 -813.666667 11663.000000 -764.666667 11637.000000 -724.000000 C 11620.333333 -732.333333 11603.666667 -740.666667 11587.000000 -749.000000 C 11611.666667 -787.000000 11631.666667 -833.666667 11647.000000 -889.000000 C 11662.333333 -944.333333 11673.666667 -1002.000000 11681.000000 -1062.000000 C 11689.000000 -1122.000000 11693.666667 -1179.666667 11695.000000 -1235.000000z M 12025.000000 -1300.000000 C 12040.333333 -1307.666667 12055.666667 -1315.333333 12071.000000 -1323.000000 C 12097.666667 -1279.666667 12122.333333 -1232.000000 12145.000000 -1180.000000 C 12168.333333 -1128.000000 12184.666667 -1084.666667 12194.000000 -1050.000000 C 12178.000000 -1040.000000 12162.000000 -1030.000000 12146.000000 -1020.000000 C 12136.000000 -1056.666667 12119.333333 -1101.666667 12096.000000 -1155.000000 C 12072.666667 -1208.333333 12049.000000 -1256.666667 12025.000000 -1300.000000z "/>
</g></svg>
