<?xml version="1.0" ?>
<svg xmlns="http://www.w3.org/2000/svg" version="1.1" width="600" height="600">
  <defs/>
  <g>
    <path stroke-width="0" fill="rgb(0, 0, 0)" opacity="1.0" d="M 140.918212890625 450.586181640625 C 163.39697265625 450.03448486328125 189.944091796875 449.27587890625 220.559326171875 448.310302734375 C 251.312744140625 447.2069091796875 284.2724609375 446.03448486328125 319.4384765625 444.7930908203125 C 354.74267578125 443.413818359375 390.11572265625 441.89654541015625 425.557861328125 440.24139404296875 C 425.48876953125 443.96551513671875 425.420166015625 447.689697265625 425.35107421875 451.413818359375 C 390.87451171875 452.9310302734375 356.328857421875 454.4482421875 321.714111328125 455.96551513671875 C 287.2373046875 457.4827880859375 254.553466796875 458.7930908203125 223.662353515625 459.89654541015625 C 192.771240234375 461.137939453125 165.741455078125 462.17242431640625 142.572998046875 463.0 C 142.021484375 458.862060546875 141.469970703125 454.72412109375 140.918212890625 450.586181640625M 136.160400390625 323.5517578125 C 245.5205078125 323.5517578125 354.880859375 323.5517578125 464.24072265625 323.5517578125 C 464.24072265625 327.4827880859375 464.24072265625 331.413818359375 464.24072265625 335.3448486328125 C 354.880859375 335.3448486328125 245.5205078125 335.3448486328125 136.160400390625 335.3448486328125 C 136.160400390625 331.413818359375 136.160400390625 327.4827880859375 136.160400390625 323.5517578125M 201.3212890625 247.62066650390625 C 265.655029296875 247.62066650390625 329.988525390625 247.62066650390625 394.322021484375 247.62066650390625 C 394.322021484375 251.62066650390625 394.322021484375 255.62066650390625 394.322021484375 259.62066650390625 C 329.988525390625 259.62066650390625 265.655029296875 259.62066650390625 201.3212890625 259.62066650390625 C 201.3212890625 255.62066650390625 201.3212890625 251.62066650390625 201.3212890625 247.62066650390625M 256.552978515625 330.17242431640625 C 260.621337890625 331.5517578125 264.689453125 332.9310302734375 268.7578125 334.310302734375 C 262.68994140625 347.27587890625 256.070556640625 361.2069091796875 248.899169921875 376.10345458984375 C 241.72802734375 390.862060546875 234.35009765625 405.413818359375 226.76513671875 419.75860595703125 C 219.318115234375 433.96551513671875 212.00927734375 446.6551513671875 204.837890625 457.82757568359375 C 201.114501953125 456.4482421875 197.39111328125 455.0689697265625 193.66748046875 453.689697265625 C 200.8388671875 442.6551513671875 208.28564453125 429.89654541015625 216.008544921875 415.413818359375 C 223.869140625 400.7930908203125 231.385009765625 385.96551513671875 238.55615234375 370.9310302734375 C 245.7275390625 355.75860595703125 251.726318359375 342.17242431640625 256.552978515625 330.17242431640625M 346.537353515625 373.6207275390625 C 349.50244140625 371.75860595703125 352.467041015625 369.89654541015625 355.432373046875 368.03448486328125 C 368.119873046875 378.6551513671875 380.73828125 390.310302734375 393.28759765625 403.0 C 405.837158203125 415.68963623046875 417.3525390625 428.24139404296875 427.833251953125 440.6551513671875 C 438.314208984375 453.0689697265625 446.588623046875 464.310302734375 452.656494140625 474.3792724609375 C 449.484619140625 476.5172119140625 446.31298828125 478.6551513671875 443.14111328125 480.7930908203125 C 436.79736328125 470.72412109375 428.384765625 459.413818359375 417.904052734375 446.862060546875 C 407.42333984375 434.310302734375 396.0458984375 421.5517578125 383.772216796875 408.586181640625 C 371.498291015625 395.4827880859375 359.086669921875 383.82757568359375 346.537353515625 373.6207275390625M 296.270263671875 133.20687866210938 C 285.37548828125 150.17239379882812 270.96435546875 167.62069702148438 253.036376953125 185.55172729492188 C 235.24658203125 203.34481811523438 215.387939453125 220.31033325195312 193.460693359375 236.44827270507812 C 171.67138671875 252.586181640625 149.261474609375 266.7930908203125 126.231201171875 279.0689697265625 C 125.679443359375 277.96551513671875 124.989990234375 276.9310302734375 124.16259765625 275.96551513671875 C 123.3349609375 274.862060546875 122.507568359375 273.75860595703125 121.68017578125 272.6551513671875 C 120.99072265625 271.5517272949219 120.09423828125 270.586181640625 118.990966796875 269.75860595703125 C 142.021484375 258.17242431640625 164.500244140625 244.31033325195312 186.427490234375 228.17242431640625 C 208.49267578125 212.03448486328125 228.489013671875 194.7930908203125 246.4169921875 176.44827270507812 C 264.482666015625 157.96548461914062 278.8251953125 139.55169677734375 289.44384765625 121.20687866210938 C 293.167236328125 121.20687866210938 296.890869140625 121.20687866210938 300.6142578125 121.20687866210938 C 311.09521484375 136.10342407226562 323.43798828125 150.7930908203125 337.642333984375 165.27584838867188 C 351.8466796875 179.62069702148438 367.016357421875 193.27584838867188 383.151611328125 206.24139404296875 C 399.28662109375 219.20687866210938 415.69775390625 231.0 432.38427734375 241.62066650390625 C 449.07080078125 252.24136352539062 465.34423828125 261.137939453125 481.203369140625 268.3103332519531 C 480.238037109375 269.27587890625 478.927734375 270.862060546875 477.27294921875 273.0689697265625 C 475.755859375 275.137939453125 474.446044921875 276.862060546875 473.342529296875 278.24139404296875 C 452.105224609375 267.62066650390625 430.384765625 254.6551513671875 408.181640625 239.34481811523438 C 385.978515625 223.89654541015625 365.085693359375 207.0689697265625 345.5029296875 188.862060546875 C 326.05810546875 170.51724243164062 309.647216796875 151.96548461914062 296.270263671875 133.20687866210938"/>
  </g>
</svg>
