<?xml version="1.0" encoding="utf-8"?>
<svg xmlns="http://www.w3.org/2000/svg" xmlns:ev="http://www.w3.org/2001/xml-events" xmlns:xlink="http://www.w3.org/1999/xlink" version="1.1" baseProfile="full" width="7240.0" height="1581.0" viewBox="244.0 -1498.0 7240.0 1581.0">
<defs/>
<g><path d="M 858.000000 -1496.000000 C 855.333333 -1490.666667 852.333333 -1480.666667 849.000000 -1466.000000 C 846.333333 -1451.333333 843.666667 -1438.333333 841.000000 -1427.000000 C 832.333333 -1379.666667 823.000000 -1314.333333 813.000000 -1231.000000 C 803.666667 -1147.666667 795.666667 -1056.333333 789.000000 -957.000000 C 783.000000 -857.666667 780.000000 -760.000000 780.000000 -664.000000 C 780.000000 -600.000000 785.000000 -531.333333 795.000000 -458.000000 C 805.000000 -385.333333 818.333333 -314.000000 835.000000 -244.000000 C 851.666667 -174.666667 869.000000 -112.000000 887.000000 -56.000000 C 867.666667 -49.333333 848.333333 -42.666667 829.000000 -36.000000 C 811.666667 -94.000000 795.000000 -159.000000 779.000000 -231.000000 C 763.000000 -303.666667 750.000000 -378.333333 740.000000 -455.000000 C 730.666667 -531.666667 726.000000 -604.000000 726.000000 -672.000000 C 726.000000 -741.333333 728.000000 -812.666667 732.000000 -886.000000 C 736.666667 -959.333333 742.333333 -1030.666667 749.000000 -1100.000000 C 756.333333 -1169.333333 763.000000 -1232.333333 769.000000 -1289.000000 C 775.000000 -1346.333333 779.666667 -1392.666667 783.000000 -1428.000000 C 784.333333 -1444.000000 785.333333 -1458.000000 786.000000 -1470.000000 C 786.666667 -1482.000000 787.000000 -1491.333333 787.000000 -1498.000000 C 810.666667 -1497.333333 834.333333 -1496.666667 858.000000 -1496.000000z M 582.000000 -1233.000000 C 685.333333 -1233.000000 793.333333 -1236.666667 906.000000 -1244.000000 C 1018.666667 -1252.000000 1127.333333 -1262.333333 1232.000000 -1275.000000 C 1337.333333 -1287.666667 1429.666667 -1302.333333 1509.000000 -1319.000000 C 1509.666667 -1298.000000 1510.333333 -1277.000000 1511.000000 -1256.000000 C 1438.333333 -1244.000000 1362.333333 -1233.333333 1283.000000 -1224.000000 C 1204.333333 -1214.666667 1124.666667 -1206.333333 1044.000000 -1199.000000 C 964.000000 -1191.666667 884.666667 -1186.000000 806.000000 -1182.000000 C 728.000000 -1178.666667 654.000000 -1177.000000 584.000000 -1177.000000 C 563.333333 -1177.000000 535.000000 -1177.666667 499.000000 -1179.000000 C 463.000000 -1180.333333 427.000000 -1182.000000 391.000000 -1184.000000 C 355.666667 -1186.000000 326.333333 -1187.333333 303.000000 -1188.000000 C 302.333333 -1210.666667 301.666667 -1233.333333 301.000000 -1256.000000 C 323.000000 -1252.000000 353.000000 -1248.000000 391.000000 -1244.000000 C 429.666667 -1240.000000 467.333333 -1237.000000 504.000000 -1235.000000 C 540.666667 -1233.666667 566.666667 -1233.000000 582.000000 -1233.000000z M 1354.000000 -1064.000000 C 1351.333333 -1058.666667 1349.000000 -1053.000000 1347.000000 -1047.000000 C 1345.000000 -1041.666667 1342.666667 -1036.000000 1340.000000 -1030.000000 C 1337.333333 -1024.000000 1334.666667 -1017.333333 1332.000000 -1010.000000 C 1292.666667 -889.333333 1246.000000 -778.333333 1192.000000 -677.000000 C 1138.666667 -576.333333 1079.666667 -485.666667 1015.000000 -405.000000 C 950.333333 -324.333333 881.333333 -254.666667 808.000000 -196.000000 C 746.666667 -147.333333 683.000000 -109.000000 617.000000 -81.000000 C 551.000000 -53.666667 492.000000 -40.000000 440.000000 -40.000000 C 402.666667 -40.000000 369.000000 -47.666667 339.000000 -63.000000 C 309.000000 -78.333333 285.666667 -101.000000 269.000000 -131.000000 C 252.333333 -161.666667 244.000000 -198.666667 244.000000 -242.000000 C 244.000000 -306.000000 258.000000 -369.000000 286.000000 -431.000000 C 314.000000 -493.000000 352.000000 -551.666667 400.000000 -607.000000 C 448.000000 -663.000000 502.333333 -713.000000 563.000000 -757.000000 C 624.333333 -801.666667 688.333333 -837.333333 755.000000 -864.000000 C 819.000000 -889.333333 886.333333 -909.000000 957.000000 -923.000000 C 1028.333333 -937.666667 1090.000000 -945.000000 1142.000000 -945.000000 C 1265.333333 -945.000000 1368.000000 -923.666667 1450.000000 -881.000000 C 1532.666667 -839.000000 1595.000000 -783.666667 1637.000000 -715.000000 C 1679.666667 -646.333333 1701.000000 -572.333333 1701.000000 -493.000000 C 1701.000000 -424.333333 1688.000000 -359.333333 1662.000000 -298.000000 C 1636.666667 -237.333333 1598.000000 -182.333333 1546.000000 -133.000000 C 1494.666667 -84.333333 1430.000000 -43.000000 1352.000000 -9.000000 C 1274.000000 25.000000 1182.333333 51.000000 1077.000000 69.000000 C 1065.000000 51.000000 1053.000000 33.000000 1041.000000 15.000000 C 1148.333333 3.666667 1247.333333 -22.666667 1338.000000 -64.000000 C 1429.333333 -106.000000 1502.666667 -163.000000 1558.000000 -235.000000 C 1614.000000 -307.666667 1642.000000 -395.000000 1642.000000 -497.000000 C 1642.000000 -567.666667 1622.666667 -633.000000 1584.000000 -693.000000 C 1545.333333 -753.000000 1489.666667 -801.666667 1417.000000 -839.000000 C 1345.000000 -876.333333 1256.666667 -895.000000 1152.000000 -895.000000 C 1078.000000 -895.000000 1006.666667 -885.666667 938.000000 -867.000000 C 869.333333 -848.333333 809.333333 -828.000000 758.000000 -806.000000 C 677.333333 -772.666667 602.666667 -725.666667 534.000000 -665.000000 C 466.000000 -604.333333 411.000000 -537.000000 369.000000 -463.000000 C 327.666667 -389.666667 307.000000 -316.000000 307.000000 -242.000000 C 307.000000 -194.666667 318.666667 -159.333333 342.000000 -136.000000 C 366.000000 -113.333333 398.000000 -102.000000 438.000000 -102.000000 C 488.000000 -102.000000 542.666667 -113.666667 602.000000 -137.000000 C 661.333333 -161.000000 723.666667 -199.666667 789.000000 -253.000000 C 890.333333 -337.666667 984.000000 -442.666667 1070.000000 -568.000000 C 1156.666667 -693.333333 1224.333333 -845.666667 1273.000000 -1025.000000 C 1274.333333 -1031.666667 1275.666667 -1037.666667 1277.000000 -1043.000000 C 1278.333333 -1049.000000 1279.666667 -1055.333333 1281.000000 -1062.000000 C 1283.000000 -1069.333333 1284.000000 -1076.333333 1284.000000 -1083.000000 C 1307.333333 -1076.666667 1330.666667 -1070.333333 1354.000000 -1064.000000z "/>
</g>
<g><path d="M 3348.000000 -1467.000000 C 3347.333333 -1457.000000 3346.666667 -1444.000000 3346.000000 -1428.000000 C 3345.333333 -1412.666667 3345.000000 -1394.333333 3345.000000 -1373.000000 C 3345.000000 -1361.666667 3345.333333 -1342.333333 3346.000000 -1315.000000 C 3346.666667 -1288.333333 3347.333333 -1257.333333 3348.000000 -1222.000000 C 3349.333333 -1186.666667 3350.333333 -1150.333333 3351.000000 -1113.000000 C 3351.666667 -1076.333333 3352.333333 -1042.000000 3353.000000 -1010.000000 C 3353.666667 -978.000000 3354.000000 -951.666667 3354.000000 -931.000000 C 3354.000000 -823.666667 3353.000000 -721.666667 3351.000000 -625.000000 C 3349.000000 -528.333333 3337.666667 -437.333333 3317.000000 -352.000000 C 3297.000000 -267.333333 3258.666667 -188.333333 3202.000000 -115.000000 C 3146.000000 -42.333333 3064.333333 23.666667 2957.000000 83.000000 C 2937.666667 68.000000 2918.333333 53.000000 2899.000000 38.000000 C 2922.333333 29.333333 2947.666667 17.000000 2975.000000 1.000000 C 3002.333333 -15.000000 3026.333333 -31.333333 3047.000000 -48.000000 C 3113.666667 -99.333333 3164.333333 -154.666667 3199.000000 -214.000000 C 3234.333333 -273.333333 3259.000000 -338.666667 3273.000000 -410.000000 C 3287.666667 -482.000000 3295.666667 -561.000000 3297.000000 -647.000000 C 3299.000000 -733.000000 3300.000000 -827.666667 3300.000000 -931.000000 C 3300.000000 -957.000000 3299.333333 -991.666667 3298.000000 -1035.000000 C 3297.333333 -1078.333333 3296.000000 -1123.333333 3294.000000 -1170.000000 C 3292.000000 -1216.666667 3290.333333 -1258.666667 3289.000000 -1296.000000 C 3287.666667 -1333.333333 3286.333333 -1358.333333 3285.000000 -1371.000000 C 3283.666667 -1391.666667 3281.333333 -1409.333333 3278.000000 -1424.000000 C 3275.333333 -1438.666667 3272.666667 -1453.000000 3270.000000 -1467.000000 C 3296.000000 -1467.000000 3322.000000 -1467.000000 3348.000000 -1467.000000z M 2703.000000 -1048.000000 C 2727.666667 -1044.666667 2758.666667 -1041.000000 2796.000000 -1037.000000 C 2834.000000 -1033.000000 2874.000000 -1030.000000 2916.000000 -1028.000000 C 2958.666667 -1026.000000 2997.333333 -1025.000000 3032.000000 -1025.000000 C 3107.333333 -1025.000000 3183.000000 -1027.000000 3259.000000 -1031.000000 C 3335.000000 -1035.000000 3409.333333 -1041.666667 3482.000000 -1051.000000 C 3555.333333 -1061.000000 3624.666667 -1074.666667 3690.000000 -1092.000000 C 3690.000000 -1071.000000 3690.000000 -1050.000000 3690.000000 -1029.000000 C 3627.333333 -1016.333333 3559.333333 -1005.333333 3486.000000 -996.000000 C 3413.333333 -987.333333 3338.333333 -981.000000 3261.000000 -977.000000 C 3183.666667 -973.666667 3106.666667 -972.000000 3030.000000 -972.000000 C 2996.666667 -972.000000 2958.666667 -972.333333 2916.000000 -973.000000 C 2874.000000 -974.333333 2834.000000 -976.000000 2796.000000 -978.000000 C 2758.666667 -980.000000 2727.666667 -982.333333 2703.000000 -985.000000 C 2703.000000 -1006.000000 2703.000000 -1027.000000 2703.000000 -1048.000000z M 2362.000000 -1442.000000 C 2359.333333 -1430.666667 2356.000000 -1416.666667 2352.000000 -1400.000000 C 2348.000000 -1383.333333 2344.000000 -1366.666667 2340.000000 -1350.000000 C 2321.333333 -1264.000000 2304.333333 -1173.000000 2289.000000 -1077.000000 C 2273.666667 -981.000000 2262.333333 -882.333333 2255.000000 -781.000000 C 2247.666667 -680.333333 2247.000000 -579.000000 2253.000000 -477.000000 C 2259.000000 -375.000000 2274.000000 -275.000000 2298.000000 -177.000000 C 2312.000000 -229.000000 2329.333333 -287.666667 2350.000000 -353.000000 C 2370.666667 -418.333333 2391.333333 -481.000000 2412.000000 -541.000000 C 2426.666667 -533.333333 2441.333333 -525.666667 2456.000000 -518.000000 C 2444.000000 -484.666667 2430.000000 -443.000000 2414.000000 -393.000000 C 2398.000000 -343.666667 2382.666667 -295.333333 2368.000000 -248.000000 C 2353.333333 -200.666667 2343.000000 -163.333333 2337.000000 -136.000000 C 2334.333333 -123.333333 2332.333333 -110.000000 2331.000000 -96.000000 C 2329.666667 -82.000000 2329.666667 -69.333333 2331.000000 -58.000000 C 2332.333333 -48.666667 2333.666667 -39.333333 2335.000000 -30.000000 C 2336.333333 -21.333333 2337.666667 -14.000000 2339.000000 -8.000000 C 2323.000000 -4.666667 2307.000000 -1.333333 2291.000000 2.000000 C 2279.000000 -38.000000 2265.666667 -89.000000 2251.000000 -151.000000 C 2236.333333 -213.000000 2223.666667 -282.000000 2213.000000 -358.000000 C 2203.000000 -434.000000 2198.000000 -512.333333 2198.000000 -593.000000 C 2198.000000 -697.000000 2203.333333 -797.000000 2214.000000 -893.000000 C 2225.333333 -989.000000 2237.666667 -1077.333333 2251.000000 -1158.000000 C 2264.333333 -1238.666667 2274.333333 -1305.666667 2281.000000 -1359.000000 C 2283.666667 -1377.000000 2285.666667 -1394.333333 2287.000000 -1411.000000 C 2288.333333 -1427.666667 2289.000000 -1441.333333 2289.000000 -1452.000000 C 2313.333333 -1448.666667 2337.666667 -1445.333333 2362.000000 -1442.000000z "/>
</g>
<g><path d="M 4925.000000 -1471.000000 C 4922.333333 -1457.000000 4919.333333 -1436.666667 4916.000000 -1410.000000 C 4912.666667 -1384.000000 4910.000000 -1360.000000 4908.000000 -1338.000000 C 4898.666667 -1269.333333 4889.333333 -1199.666667 4880.000000 -1129.000000 C 4871.333333 -1058.333333 4859.333333 -987.000000 4844.000000 -915.000000 C 4828.666667 -843.666667 4807.666667 -771.000000 4781.000000 -697.000000 C 4749.000000 -609.666667 4712.666667 -527.666667 4672.000000 -451.000000 C 4632.000000 -374.333333 4589.000000 -306.666667 4543.000000 -248.000000 C 4497.000000 -190.000000 4447.333333 -144.666667 4394.000000 -112.000000 C 4340.666667 -79.333333 4284.666667 -63.000000 4226.000000 -63.000000 C 4187.333333 -63.000000 4153.000000 -74.000000 4123.000000 -96.000000 C 4093.000000 -118.000000 4069.333333 -148.000000 4052.000000 -186.000000 C 4034.666667 -224.666667 4026.000000 -269.666667 4026.000000 -321.000000 C 4026.000000 -410.333333 4039.666667 -492.666667 4067.000000 -568.000000 C 4095.000000 -644.000000 4130.666667 -713.333333 4174.000000 -776.000000 C 4204.666667 -824.666667 4244.666667 -873.666667 4294.000000 -923.000000 C 4343.333333 -973.000000 4401.333333 -1019.000000 4468.000000 -1061.000000 C 4534.666667 -1103.666667 4609.333333 -1138.000000 4692.000000 -1164.000000 C 4775.333333 -1190.666667 4867.000000 -1204.000000 4967.000000 -1204.000000 C 5036.333333 -1204.000000 5103.000000 -1192.333333 5167.000000 -1169.000000 C 5231.000000 -1146.333333 5288.333333 -1112.666667 5339.000000 -1068.000000 C 5390.333333 -1024.000000 5431.000000 -969.000000 5461.000000 -903.000000 C 5491.666667 -837.000000 5507.000000 -761.333333 5507.000000 -676.000000 C 5507.000000 -572.000000 5498.000000 -478.666667 5480.000000 -396.000000 C 5462.000000 -314.000000 5434.666667 -243.333333 5398.000000 -184.000000 C 5361.333333 -125.333333 5315.666667 -80.666667 5261.000000 -50.000000 C 5207.000000 -19.333333 5143.666667 -4.000000 5071.000000 -4.000000 C 4989.000000 -4.000000 4924.333333 -23.666667 4877.000000 -63.000000 C 4829.666667 -103.000000 4806.000000 -155.666667 4806.000000 -221.000000 C 4806.000000 -261.666667 4817.666667 -298.333333 4841.000000 -331.000000 C 4865.000000 -363.666667 4897.666667 -389.333333 4939.000000 -408.000000 C 4981.000000 -426.666667 5028.000000 -436.000000 5080.000000 -436.000000 C 5150.666667 -436.000000 5215.666667 -424.666667 5275.000000 -402.000000 C 5334.333333 -380.000000 5388.333333 -352.000000 5437.000000 -318.000000 C 5485.666667 -284.000000 5528.666667 -248.666667 5566.000000 -212.000000 C 5603.333333 -175.333333 5634.666667 -142.333333 5660.000000 -113.000000 C 5646.000000 -95.333333 5632.000000 -77.666667 5618.000000 -60.000000 C 5593.333333 -90.666667 5563.000000 -124.333333 5527.000000 -161.000000 C 5491.666667 -198.333333 5451.333333 -234.000000 5406.000000 -268.000000 C 5360.666667 -302.000000 5310.666667 -329.666667 5256.000000 -351.000000 C 5201.333333 -373.000000 5142.666667 -384.000000 5080.000000 -384.000000 C 5006.000000 -384.000000 4950.333333 -366.666667 4913.000000 -332.000000 C 4876.333333 -297.333333 4858.000000 -261.000000 4858.000000 -223.000000 C 4858.000000 -174.333333 4876.666667 -134.333333 4914.000000 -103.000000 C 4952.000000 -71.666667 5004.333333 -56.000000 5071.000000 -56.000000 C 5143.666667 -56.000000 5204.333333 -72.666667 5253.000000 -106.000000 C 5301.666667 -140.000000 5340.333333 -186.000000 5369.000000 -244.000000 C 5397.666667 -302.666667 5418.333333 -369.000000 5431.000000 -443.000000 C 5444.333333 -517.666667 5451.000000 -594.666667 5451.000000 -674.000000 C 5451.000000 -731.333333 5441.000000 -788.333333 5421.000000 -845.000000 C 5401.000000 -902.333333 5370.666667 -954.000000 5330.000000 -1000.000000 C 5290.000000 -1046.000000 5239.666667 -1082.666667 5179.000000 -1110.000000 C 5118.333333 -1138.000000 5047.000000 -1152.000000 4965.000000 -1152.000000 C 4859.000000 -1152.000000 4759.000000 -1135.000000 4665.000000 -1101.000000 C 4571.000000 -1067.000000 4485.666667 -1019.333333 4409.000000 -958.000000 C 4333.000000 -896.666667 4268.000000 -824.333333 4214.000000 -741.000000 C 4183.333333 -692.333333 4158.000000 -645.333333 4138.000000 -600.000000 C 4118.666667 -554.666667 4104.000000 -509.333333 4094.000000 -464.000000 C 4084.666667 -419.333333 4080.000000 -372.333333 4080.000000 -323.000000 C 4080.000000 -259.666667 4095.666667 -209.666667 4127.000000 -173.000000 C 4158.333333 -137.000000 4190.666667 -119.000000 4224.000000 -119.000000 C 4274.000000 -119.000000 4322.666667 -134.000000 4370.000000 -164.000000 C 4417.333333 -194.000000 4462.666667 -236.333333 4506.000000 -291.000000 C 4550.000000 -346.333333 4591.666667 -410.666667 4631.000000 -484.000000 C 4671.000000 -558.000000 4707.000000 -638.666667 4739.000000 -726.000000 C 4760.333333 -786.000000 4778.333333 -851.666667 4793.000000 -923.000000 C 4807.666667 -995.000000 4819.333333 -1066.333333 4828.000000 -1137.000000 C 4837.333333 -1208.333333 4844.666667 -1272.333333 4850.000000 -1329.000000 C 4852.666667 -1353.000000 4854.000000 -1376.333333 4854.000000 -1399.000000 C 4854.000000 -1422.333333 4852.666667 -1447.666667 4850.000000 -1475.000000 C 4875.000000 -1473.666667 4900.000000 -1472.333333 4925.000000 -1471.000000z M 4199.000000 -1290.000000 C 4211.666667 -1235.333333 4228.333333 -1176.666667 4249.000000 -1114.000000 C 4269.666667 -1051.333333 4291.333333 -990.000000 4314.000000 -930.000000 C 4337.333333 -870.666667 4359.000000 -816.000000 4379.000000 -766.000000 C 4399.666667 -716.000000 4417.000000 -675.666667 4431.000000 -645.000000 C 4450.333333 -603.000000 4475.333333 -555.333333 4506.000000 -502.000000 C 4536.666667 -448.666667 4567.333333 -403.000000 4598.000000 -365.000000 C 4588.000000 -350.333333 4578.000000 -335.666667 4568.000000 -321.000000 C 4547.333333 -345.000000 4525.000000 -374.666667 4501.000000 -410.000000 C 4477.666667 -445.333333 4456.000000 -481.000000 4436.000000 -517.000000 C 4416.000000 -553.666667 4399.000000 -586.666667 4385.000000 -616.000000 C 4368.333333 -654.666667 4348.000000 -703.000000 4324.000000 -761.000000 C 4300.666667 -819.666667 4277.666667 -879.333333 4255.000000 -940.000000 C 4233.000000 -1000.666667 4215.000000 -1052.666667 4201.000000 -1096.000000 C 4194.333333 -1119.333333 4187.333333 -1141.333333 4180.000000 -1162.000000 C 4173.333333 -1183.333333 4166.333333 -1203.000000 4159.000000 -1221.000000 C 4152.333333 -1239.000000 4146.000000 -1255.000000 4140.000000 -1269.000000 C 4159.666667 -1276.000000 4179.333333 -1283.000000 4199.000000 -1290.000000z "/>
</g>
<g><path d="M 6119.000000 -1308.000000 C 6117.666667 -1300.000000 6116.333333 -1288.000000 6115.000000 -1272.000000 C 6113.666667 -1256.000000 6112.666667 -1238.666667 6112.000000 -1220.000000 C 6111.333333 -1201.333333 6110.333333 -1184.333333 6109.000000 -1169.000000 C 6108.333333 -1131.000000 6108.000000 -1084.000000 6108.000000 -1028.000000 C 6108.666667 -972.666667 6110.333333 -913.333333 6113.000000 -850.000000 C 6115.666667 -787.333333 6119.666667 -726.666667 6125.000000 -668.000000 C 6137.666667 -546.666667 6159.333333 -440.666667 6190.000000 -350.000000 C 6220.666667 -260.000000 6257.666667 -190.333333 6301.000000 -141.000000 C 6345.000000 -91.666667 6392.666667 -67.000000 6444.000000 -67.000000 C 6469.333333 -67.000000 6494.666667 -77.000000 6520.000000 -97.000000 C 6546.000000 -117.000000 6570.666667 -145.000000 6594.000000 -181.000000 C 6618.000000 -217.666667 6640.333333 -260.666667 6661.000000 -310.000000 C 6682.333333 -359.333333 6700.666667 -412.666667 6716.000000 -470.000000 C 6732.000000 -456.666667 6748.000000 -443.333333 6764.000000 -430.000000 C 6729.333333 -325.333333 6693.666667 -242.000000 6657.000000 -180.000000 C 6621.000000 -118.666667 6585.000000 -74.666667 6549.000000 -48.000000 C 6513.000000 -21.333333 6477.333333 -8.000000 6442.000000 -8.000000 C 6392.000000 -8.000000 6341.666667 -29.000000 6291.000000 -71.000000 C 6240.333333 -113.000000 6195.666667 -181.666667 6157.000000 -277.000000 C 6119.000000 -372.333333 6091.000000 -500.000000 6073.000000 -660.000000 C 6067.666667 -712.666667 6063.333333 -771.333333 6060.000000 -836.000000 C 6057.333333 -900.666667 6055.333333 -962.666667 6054.000000 -1022.000000 C 6052.666667 -1082.000000 6052.000000 -1129.333333 6052.000000 -1164.000000 C 6052.000000 -1181.333333 6051.666667 -1206.333333 6051.000000 -1239.000000 C 6050.333333 -1271.666667 6047.333333 -1295.666667 6042.000000 -1311.000000 C 6067.666667 -1310.000000 6093.333333 -1309.000000 6119.000000 -1308.000000z M 7158.000000 -1244.000000 C 7190.000000 -1199.333333 7220.666667 -1150.333333 7250.000000 -1097.000000 C 7279.333333 -1044.333333 7306.333333 -987.666667 7331.000000 -927.000000 C 7356.333333 -867.000000 7379.000000 -804.333333 7399.000000 -739.000000 C 7419.666667 -673.666667 7437.000000 -606.666667 7451.000000 -538.000000 C 7465.666667 -470.000000 7476.666667 -400.000000 7484.000000 -328.000000 C 7465.333333 -319.666667 7446.666667 -311.333333 7428.000000 -303.000000 C 7419.333333 -399.000000 7404.666667 -490.666667 7384.000000 -578.000000 C 7364.000000 -666.000000 7339.333333 -748.666667 7310.000000 -826.000000 C 7281.333333 -904.000000 7249.333333 -976.000000 7214.000000 -1042.000000 C 7179.333333 -1108.666667 7142.666667 -1168.333333 7104.000000 -1221.000000 C 7122.000000 -1228.666667 7140.000000 -1236.333333 7158.000000 -1244.000000z "/>
</g>
</svg>
