<?xml version="1.0" encoding="utf-8"?>
<svg xmlns="http://www.w3.org/2000/svg" xmlns:ev="http://www.w3.org/2001/xml-events" xmlns:xlink="http://www.w3.org/1999/xlink" version="1.1" baseProfile="full" width="16896.0" height="1920.0" viewBox="192.0 -1690.0 16896.0 1920.0">
<defs/>
<g><path d="M 192.000000 230.000000 C 192.000000 -410.000000 192.000000 -1050.000000 192.000000 -1690.000000 C 704.000000 -1690.000000 1216.000000 -1690.000000 1728.000000 -1690.000000 C 1728.000000 -1050.000000 1728.000000 -410.000000 1728.000000 230.000000 C 1216.000000 230.000000 704.000000 230.000000 192.000000 230.000000z M 960.000000 -808.000000 C 1163.666667 -1070.000000 1367.333333 -1332.000000 1571.000000 -1594.000000 C 1163.666667 -1594.000000 756.333333 -1594.000000 349.000000 -1594.000000 C 552.666667 -1332.000000 756.333333 -1070.000000 960.000000 -808.000000z M 1021.000000 -730.000000 C 1224.666667 -468.000000 1428.333333 -206.000000 1632.000000 56.000000 C 1632.000000 -467.666667 1632.000000 -991.333333 1632.000000 -1515.000000 C 1428.333333 -1253.333333 1224.666667 -991.666667 1021.000000 -730.000000z M 349.000000 134.000000 C 756.333333 134.000000 1163.666667 134.000000 1571.000000 134.000000 C 1367.333333 -127.666667 1163.666667 -389.333333 960.000000 -651.000000 C 756.333333 -389.333333 552.666667 -127.666667 349.000000 134.000000z M 288.000000 -1515.000000 C 288.000000 -991.333333 288.000000 -467.666667 288.000000 56.000000 C 491.666667 -206.000000 695.333333 -468.000000 899.000000 -730.000000 C 695.333333 -991.666667 491.666667 -1253.333333 288.000000 -1515.000000z "/>
</g>
<g><path d="M 2112.000000 230.000000 C 2112.000000 -410.000000 2112.000000 -1050.000000 2112.000000 -1690.000000 C 2624.000000 -1690.000000 3136.000000 -1690.000000 3648.000000 -1690.000000 C 3648.000000 -1050.000000 3648.000000 -410.000000 3648.000000 230.000000 C 3136.000000 230.000000 2624.000000 230.000000 2112.000000 230.000000z M 2880.000000 -808.000000 C 3083.666667 -1070.000000 3287.333333 -1332.000000 3491.000000 -1594.000000 C 3083.666667 -1594.000000 2676.333333 -1594.000000 2269.000000 -1594.000000 C 2472.666667 -1332.000000 2676.333333 -1070.000000 2880.000000 -808.000000z M 2941.000000 -730.000000 C 3144.666667 -468.000000 3348.333333 -206.000000 3552.000000 56.000000 C 3552.000000 -467.666667 3552.000000 -991.333333 3552.000000 -1515.000000 C 3348.333333 -1253.333333 3144.666667 -991.666667 2941.000000 -730.000000z M 2269.000000 134.000000 C 2676.333333 134.000000 3083.666667 134.000000 3491.000000 134.000000 C 3287.333333 -127.666667 3083.666667 -389.333333 2880.000000 -651.000000 C 2676.333333 -389.333333 2472.666667 -127.666667 2269.000000 134.000000z M 2208.000000 -1515.000000 C 2208.000000 -991.333333 2208.000000 -467.666667 2208.000000 56.000000 C 2411.666667 -206.000000 2615.333333 -468.000000 2819.000000 -730.000000 C 2615.333333 -991.666667 2411.666667 -1253.333333 2208.000000 -1515.000000z "/>
</g>
<g><path d="M 4032.000000 230.000000 C 4032.000000 -410.000000 4032.000000 -1050.000000 4032.000000 -1690.000000 C 4544.000000 -1690.000000 5056.000000 -1690.000000 5568.000000 -1690.000000 C 5568.000000 -1050.000000 5568.000000 -410.000000 5568.000000 230.000000 C 5056.000000 230.000000 4544.000000 230.000000 4032.000000 230.000000z M 4800.000000 -808.000000 C 5003.666667 -1070.000000 5207.333333 -1332.000000 5411.000000 -1594.000000 C 5003.666667 -1594.000000 4596.333333 -1594.000000 4189.000000 -1594.000000 C 4392.666667 -1332.000000 4596.333333 -1070.000000 4800.000000 -808.000000z M 4861.000000 -730.000000 C 5064.666667 -468.000000 5268.333333 -206.000000 5472.000000 56.000000 C 5472.000000 -467.666667 5472.000000 -991.333333 5472.000000 -1515.000000 C 5268.333333 -1253.333333 5064.666667 -991.666667 4861.000000 -730.000000z M 4189.000000 134.000000 C 4596.333333 134.000000 5003.666667 134.000000 5411.000000 134.000000 C 5207.333333 -127.666667 5003.666667 -389.333333 4800.000000 -651.000000 C 4596.333333 -389.333333 4392.666667 -127.666667 4189.000000 134.000000z M 4128.000000 -1515.000000 C 4128.000000 -991.333333 4128.000000 -467.666667 4128.000000 56.000000 C 4331.666667 -206.000000 4535.333333 -468.000000 4739.000000 -730.000000 C 4535.333333 -991.666667 4331.666667 -1253.333333 4128.000000 -1515.000000z "/>
</g>
<g><path d="M 5952.000000 230.000000 C 5952.000000 -410.000000 5952.000000 -1050.000000 5952.000000 -1690.000000 C 6464.000000 -1690.000000 6976.000000 -1690.000000 7488.000000 -1690.000000 C 7488.000000 -1050.000000 7488.000000 -410.000000 7488.000000 230.000000 C 6976.000000 230.000000 6464.000000 230.000000 5952.000000 230.000000z M 6720.000000 -808.000000 C 6923.666667 -1070.000000 7127.333333 -1332.000000 7331.000000 -1594.000000 C 6923.666667 -1594.000000 6516.333333 -1594.000000 6109.000000 -1594.000000 C 6312.666667 -1332.000000 6516.333333 -1070.000000 6720.000000 -808.000000z M 6781.000000 -730.000000 C 6984.666667 -468.000000 7188.333333 -206.000000 7392.000000 56.000000 C 7392.000000 -467.666667 7392.000000 -991.333333 7392.000000 -1515.000000 C 7188.333333 -1253.333333 6984.666667 -991.666667 6781.000000 -730.000000z M 6109.000000 134.000000 C 6516.333333 134.000000 6923.666667 134.000000 7331.000000 134.000000 C 7127.333333 -127.666667 6923.666667 -389.333333 6720.000000 -651.000000 C 6516.333333 -389.333333 6312.666667 -127.666667 6109.000000 134.000000z M 6048.000000 -1515.000000 C 6048.000000 -991.333333 6048.000000 -467.666667 6048.000000 56.000000 C 6251.666667 -206.000000 6455.333333 -468.000000 6659.000000 -730.000000 C 6455.333333 -991.666667 6251.666667 -1253.333333 6048.000000 -1515.000000z "/>
</g>
<g><path d="M 7872.000000 230.000000 C 7872.000000 -410.000000 7872.000000 -1050.000000 7872.000000 -1690.000000 C 8384.000000 -1690.000000 8896.000000 -1690.000000 9408.000000 -1690.000000 C 9408.000000 -1050.000000 9408.000000 -410.000000 9408.000000 230.000000 C 8896.000000 230.000000 8384.000000 230.000000 7872.000000 230.000000z M 8640.000000 -808.000000 C 8843.666667 -1070.000000 9047.333333 -1332.000000 9251.000000 -1594.000000 C 8843.666667 -1594.000000 8436.333333 -1594.000000 8029.000000 -1594.000000 C 8232.666667 -1332.000000 8436.333333 -1070.000000 8640.000000 -808.000000z M 8701.000000 -730.000000 C 8904.666667 -468.000000 9108.333333 -206.000000 9312.000000 56.000000 C 9312.000000 -467.666667 9312.000000 -991.333333 9312.000000 -1515.000000 C 9108.333333 -1253.333333 8904.666667 -991.666667 8701.000000 -730.000000z M 8029.000000 134.000000 C 8436.333333 134.000000 8843.666667 134.000000 9251.000000 134.000000 C 9047.333333 -127.666667 8843.666667 -389.333333 8640.000000 -651.000000 C 8436.333333 -389.333333 8232.666667 -127.666667 8029.000000 134.000000z M 7968.000000 -1515.000000 C 7968.000000 -991.333333 7968.000000 -467.666667 7968.000000 56.000000 C 8171.666667 -206.000000 8375.333333 -468.000000 8579.000000 -730.000000 C 8375.333333 -991.666667 8171.666667 -1253.333333 7968.000000 -1515.000000z "/>
</g>
<g><path d="M 9792.000000 230.000000 C 9792.000000 -410.000000 9792.000000 -1050.000000 9792.000000 -1690.000000 C 10304.000000 -1690.000000 10816.000000 -1690.000000 11328.000000 -1690.000000 C 11328.000000 -1050.000000 11328.000000 -410.000000 11328.000000 230.000000 C 10816.000000 230.000000 10304.000000 230.000000 9792.000000 230.000000z M 10560.000000 -808.000000 C 10763.666667 -1070.000000 10967.333333 -1332.000000 11171.000000 -1594.000000 C 10763.666667 -1594.000000 10356.333333 -1594.000000 9949.000000 -1594.000000 C 10152.666667 -1332.000000 10356.333333 -1070.000000 10560.000000 -808.000000z M 10621.000000 -730.000000 C 10824.666667 -468.000000 11028.333333 -206.000000 11232.000000 56.000000 C 11232.000000 -467.666667 11232.000000 -991.333333 11232.000000 -1515.000000 C 11028.333333 -1253.333333 10824.666667 -991.666667 10621.000000 -730.000000z M 9949.000000 134.000000 C 10356.333333 134.000000 10763.666667 134.000000 11171.000000 134.000000 C 10967.333333 -127.666667 10763.666667 -389.333333 10560.000000 -651.000000 C 10356.333333 -389.333333 10152.666667 -127.666667 9949.000000 134.000000z M 9888.000000 -1515.000000 C 9888.000000 -991.333333 9888.000000 -467.666667 9888.000000 56.000000 C 10091.666667 -206.000000 10295.333333 -468.000000 10499.000000 -730.000000 C 10295.333333 -991.666667 10091.666667 -1253.333333 9888.000000 -1515.000000z "/>
</g>
<g><path d="M 11712.000000 230.000000 C 11712.000000 -410.000000 11712.000000 -1050.000000 11712.000000 -1690.000000 C 12224.000000 -1690.000000 12736.000000 -1690.000000 13248.000000 -1690.000000 C 13248.000000 -1050.000000 13248.000000 -410.000000 13248.000000 230.000000 C 12736.000000 230.000000 12224.000000 230.000000 11712.000000 230.000000z M 12480.000000 -808.000000 C 12683.666667 -1070.000000 12887.333333 -1332.000000 13091.000000 -1594.000000 C 12683.666667 -1594.000000 12276.333333 -1594.000000 11869.000000 -1594.000000 C 12072.666667 -1332.000000 12276.333333 -1070.000000 12480.000000 -808.000000z M 12541.000000 -730.000000 C 12744.666667 -468.000000 12948.333333 -206.000000 13152.000000 56.000000 C 13152.000000 -467.666667 13152.000000 -991.333333 13152.000000 -1515.000000 C 12948.333333 -1253.333333 12744.666667 -991.666667 12541.000000 -730.000000z M 11869.000000 134.000000 C 12276.333333 134.000000 12683.666667 134.000000 13091.000000 134.000000 C 12887.333333 -127.666667 12683.666667 -389.333333 12480.000000 -651.000000 C 12276.333333 -389.333333 12072.666667 -127.666667 11869.000000 134.000000z M 11808.000000 -1515.000000 C 11808.000000 -991.333333 11808.000000 -467.666667 11808.000000 56.000000 C 12011.666667 -206.000000 12215.333333 -468.000000 12419.000000 -730.000000 C 12215.333333 -991.666667 12011.666667 -1253.333333 11808.000000 -1515.000000z "/>
</g>
<g><path d="M 13632.000000 230.000000 C 13632.000000 -410.000000 13632.000000 -1050.000000 13632.000000 -1690.000000 C 14144.000000 -1690.000000 14656.000000 -1690.000000 15168.000000 -1690.000000 C 15168.000000 -1050.000000 15168.000000 -410.000000 15168.000000 230.000000 C 14656.000000 230.000000 14144.000000 230.000000 13632.000000 230.000000z M 14400.000000 -808.000000 C 14603.666667 -1070.000000 14807.333333 -1332.000000 15011.000000 -1594.000000 C 14603.666667 -1594.000000 14196.333333 -1594.000000 13789.000000 -1594.000000 C 13992.666667 -1332.000000 14196.333333 -1070.000000 14400.000000 -808.000000z M 14461.000000 -730.000000 C 14664.666667 -468.000000 14868.333333 -206.000000 15072.000000 56.000000 C 15072.000000 -467.666667 15072.000000 -991.333333 15072.000000 -1515.000000 C 14868.333333 -1253.333333 14664.666667 -991.666667 14461.000000 -730.000000z M 13789.000000 134.000000 C 14196.333333 134.000000 14603.666667 134.000000 15011.000000 134.000000 C 14807.333333 -127.666667 14603.666667 -389.333333 14400.000000 -651.000000 C 14196.333333 -389.333333 13992.666667 -127.666667 13789.000000 134.000000z M 13728.000000 -1515.000000 C 13728.000000 -991.333333 13728.000000 -467.666667 13728.000000 56.000000 C 13931.666667 -206.000000 14135.333333 -468.000000 14339.000000 -730.000000 C 14135.333333 -991.666667 13931.666667 -1253.333333 13728.000000 -1515.000000z "/>
</g>
<g><path d="M 15552.000000 230.000000 C 15552.000000 -410.000000 15552.000000 -1050.000000 15552.000000 -1690.000000 C 16064.000000 -1690.000000 16576.000000 -1690.000000 17088.000000 -1690.000000 C 17088.000000 -1050.000000 17088.000000 -410.000000 17088.000000 230.000000 C 16576.000000 230.000000 16064.000000 230.000000 15552.000000 230.000000z M 16320.000000 -808.000000 C 16523.666667 -1070.000000 16727.333333 -1332.000000 16931.000000 -1594.000000 C 16523.666667 -1594.000000 16116.333333 -1594.000000 15709.000000 -1594.000000 C 15912.666667 -1332.000000 16116.333333 -1070.000000 16320.000000 -808.000000z M 16381.000000 -730.000000 C 16584.666667 -468.000000 16788.333333 -206.000000 16992.000000 56.000000 C 16992.000000 -467.666667 16992.000000 -991.333333 16992.000000 -1515.000000 C 16788.333333 -1253.333333 16584.666667 -991.666667 16381.000000 -730.000000z M 15709.000000 134.000000 C 16116.333333 134.000000 16523.666667 134.000000 16931.000000 134.000000 C 16727.333333 -127.666667 16523.666667 -389.333333 16320.000000 -651.000000 C 16116.333333 -389.333333 15912.666667 -127.666667 15709.000000 134.000000z M 15648.000000 -1515.000000 C 15648.000000 -991.333333 15648.000000 -467.666667 15648.000000 56.000000 C 15851.666667 -206.000000 16055.333333 -468.000000 16259.000000 -730.000000 C 16055.333333 -991.666667 15851.666667 -1253.333333 15648.000000 -1515.000000z "/>
</g>
</svg>
