<?xml version="1.0" ?>
<svg xmlns="http://www.w3.org/2000/svg" version="1.1" width="600" height="600">
  <defs/>
  <g>
    <path stroke-width="0" fill="rgb(0, 0, 0)" opacity="1.0" d="M 288.03271484375 265.2069091796875 C 341.81640625 265.2069091796875 395.60009765625 265.2069091796875 449.3837890625 265.2069091796875 C 449.3837890625 269.0 449.3837890625 272.7930908203125 449.3837890625 276.586181640625 C 395.60009765625 276.586181640625 341.81640625 276.586181640625 288.03271484375 276.586181640625 C 288.03271484375 272.7930908203125 288.03271484375 269.0 288.03271484375 265.2069091796875M 125.233642578125 454.9310302734375 C 242.1787109375 454.9310302734375 359.123779296875 454.9310302734375 476.068603515625 454.9310302734375 C 476.068603515625 458.7930908203125 476.068603515625 462.6551513671875 476.068603515625 466.5172119140625 C 359.123779296875 466.5172119140625 242.1787109375 466.5172119140625 125.233642578125 466.5172119140625 C 125.233642578125 462.6551513671875 125.233642578125 458.7930908203125 125.233642578125 454.9310302734375M 280.99951171875 134.03448486328125 C 284.86083984375 134.03448486328125 288.72216796875 134.03448486328125 292.583740234375 134.03448486328125 C 292.583740234375 242.72412109375 292.583740234375 351.413818359375 292.583740234375 460.10345458984375 C 288.72216796875 460.10345458984375 284.86083984375 460.10345458984375 280.99951171875 460.10345458984375 C 280.99951171875 351.413818359375 280.99951171875 242.72412109375 280.99951171875 134.03448486328125"/>
  </g>
</svg>
