<?xml version="1.0" encoding="utf-8"?>
<svg xmlns="http://www.w3.org/2000/svg" xmlns:ev="http://www.w3.org/2001/xml-events" xmlns:xlink="http://www.w3.org/1999/xlink" version="1.1" baseProfile="full" width="1452.0" height="1730.0" viewBox="240.0 -1594.0 1452.0 1730.0">
<defs/>
<g><path d="M 269.000000 -52.000000 C 735.000000 -52.000000 1201.000000 -52.000000 1667.000000 -52.000000 C 1667.000000 -32.666667 1667.000000 -13.333333 1667.000000 6.000000 C 1201.000000 6.000000 735.000000 6.000000 269.000000 6.000000 C 269.000000 -13.333333 269.000000 -32.666667 269.000000 -52.000000z M 924.000000 -1594.000000 C 943.000000 -1594.000000 962.000000 -1594.000000 981.000000 -1594.000000 C 981.000000 -1071.666667 981.000000 -549.333333 981.000000 -27.000000 C 962.000000 -27.000000 943.000000 -27.000000 924.000000 -27.000000 C 924.000000 -549.333333 924.000000 -1071.666667 924.000000 -1594.000000z M 240.000000 -641.000000 C 258.666667 -641.000000 277.333333 -641.000000 296.000000 -641.000000 C 296.000000 -382.000000 296.000000 -123.000000 296.000000 136.000000 C 277.333333 136.000000 258.666667 136.000000 240.000000 136.000000 C 240.000000 -123.000000 240.000000 -382.000000 240.000000 -641.000000z M 1636.000000 -641.000000 C 1654.666667 -641.000000 1673.333333 -641.000000 1692.000000 -641.000000 C 1692.000000 -384.333333 1692.000000 -127.666667 1692.000000 129.000000 C 1673.333333 129.000000 1654.666667 129.000000 1636.000000 129.000000 C 1636.000000 -127.666667 1636.000000 -384.333333 1636.000000 -641.000000z M 311.000000 -1409.000000 C 329.666667 -1409.000000 348.333333 -1409.000000 367.000000 -1409.000000 C 367.000000 -1219.666667 367.000000 -1030.333333 367.000000 -841.000000 C 764.333333 -841.000000 1161.666667 -841.000000 1559.000000 -841.000000 C 1559.000000 -1030.333333 1559.000000 -1219.666667 1559.000000 -1409.000000 C 1577.666667 -1409.000000 1596.333333 -1409.000000 1615.000000 -1409.000000 C 1615.000000 -1201.000000 1615.000000 -993.000000 1615.000000 -785.000000 C 1180.333333 -785.000000 745.666667 -785.000000 311.000000 -785.000000 C 311.000000 -993.000000 311.000000 -1201.000000 311.000000 -1409.000000z "/>
</g>
</svg>
