<?xml version="1.0" ?>
<svg xmlns="http://www.w3.org/2000/svg" version="1.1" width="600" height="600">
  <defs/>
  <g>
    <path stroke-width="0" fill="rgb(0, 0, 0)" opacity="1.0" d="M 480.3701171875 410.32147216796875 C 468.5234375 422.99658203125 456.40087890625 432.29620361328125 444.003173828125 438.220458984375 C 431.7431640625 444.00689697265625 420.171875 446.900146484375 409.289306640625 446.900146484375 C 397.993408203125 446.900146484375 388.763916015625 443.59356689453125 381.6005859375 436.98046875 C 374.4375 430.367431640625 370.85595703125 420.30999755859375 370.85595703125 406.8082275390625 C 370.85595703125 395.3731689453125 371.613525390625 382.7669677734375 373.12890625 368.9896240234375 C 374.781982421875 355.0745849609375 376.57275390625 340.74627685546875 378.501220703125 326.00457763671875 C 380.567626953125 311.262939453125 382.3583984375 297.27899169921875 383.87353515625 284.05279541015625 C 385.526611328125 270.6888427734375 386.353271484375 258.84039306640625 386.353271484375 248.5074462890625 C 386.353271484375 235.28128051757812 383.115966796875 225.9127197265625 376.6416015625 220.40182495117188 C 370.167236328125 214.75314331054688 361.144287109375 211.92880249023438 349.572998046875 211.92880249023438 C 340.205810546875 211.92880249023438 329.80517578125 214.27093505859375 318.371826171875 218.9552001953125 C 307.075927734375 223.501708984375 295.366943359375 229.90814208984375 283.24462890625 238.17449951171875 C 271.1220703125 246.3031005859375 259.06884765625 255.80938720703125 247.084228515625 266.6934509277344 C 235.237548828125 277.5775146484375 223.872802734375 289.21929931640625 212.990234375 301.61883544921875 C 213.541259765625 295.76348876953125 214.092041015625 289.90814208984375 214.643310546875 284.05279541015625 C 219.602294921875 278.5419006347656 226.0078125 272.204345703125 233.85986328125 265.0401611328125 C 241.7119140625 257.73822021484375 250.458984375 250.29852294921875 260.101806640625 242.72100830078125 C 269.74462890625 235.14349365234375 279.73193359375 228.18597412109375 290.063232421875 221.84844970703125 C 300.53271484375 215.51092529296875 310.93310546875 210.41329956054688 321.2646484375 206.5556640625 C 331.59619140625 202.69805908203125 341.239013671875 200.76922607421875 350.19287109375 200.76922607421875 C 360.7998046875 200.76922607421875 369.684814453125 202.56024169921875 376.84814453125 206.14236450195312 C 384.011474609375 209.72445678710938 389.45263671875 215.09759521484375 393.172119140625 222.26177978515625 C 396.891357421875 229.42593383789062 398.7509765625 238.17449951171875 398.7509765625 248.5074462890625 C 398.7509765625 258.0137939453125 397.855712890625 269.586669921875 396.06494140625 283.2261657714844 C 394.411865234375 296.86566162109375 392.4833984375 311.1251220703125 390.279296875 326.00457763671875 C 388.212890625 340.884033203125 386.284423828125 355.21240234375 384.493408203125 368.9896240234375 C 382.840576171875 382.7669677734375 382.013916015625 394.5465087890625 382.013916015625 404.328369140625 C 382.013916015625 412.5947265625 384.080322265625 419.8277587890625 388.212890625 426.027587890625 C 392.345458984375 432.227294921875 399.0263671875 435.32720947265625 408.256103515625 435.32720947265625 C 419.827392578125 435.32720947265625 431.2607421875 432.158447265625 442.556640625 425.8209228515625 C 453.990234375 419.48333740234375 465.423828125 410.1837158203125 476.857421875 397.92193603515625 C 478.0283203125 402.05511474609375 479.19921875 406.18829345703125 480.3701171875 410.32147216796875M 221.25537109375 219.7818603515625 C 219.464599609375 220.05740356445312 215.331787109375 220.6773681640625 208.857421875 221.64178466796875 C 202.383056640625 222.606201171875 194.73779296875 223.7083740234375 185.921630859375 224.94833374023438 C 177.2431640625 226.050537109375 168.22021484375 227.29046630859375 158.85302734375 228.668212890625 C 149.48583984375 229.90814208984375 140.66943359375 231.21697998046875 132.404296875 232.5947265625 C 131.922119140625 227.841552734375 131.43994140625 223.08837890625 130.957763671875 218.33523559570312 C 134.1259765625 218.61077880859375 137.15673828125 218.67965698242188 140.049560546875 218.54190063476562 C 142.9423828125 218.40411376953125 145.697509765625 218.19747924804688 148.314697265625 217.92193603515625 C 152.860595703125 217.6463623046875 158.7841796875 217.09527587890625 166.0849609375 216.26864624023438 C 173.523681640625 215.4420166015625 181.444580078125 214.6153564453125 189.847412109375 213.78875732421875 C 198.38818359375 212.8243408203125 206.515869140625 211.72216796875 214.22998046875 210.482177734375 C 221.944091796875 209.1044921875 228.14306640625 207.5889892578125 232.82666015625 205.93569946289062 C 235.237548828125 208.20895385742188 237.64794921875 210.482177734375 240.058837890625 212.75543212890625 C 237.5791015625 216.47531127929688 235.03076171875 220.53961181640625 232.413330078125 224.94833374023438 C 229.796142578125 229.21926879882812 227.178955078125 233.62799072265625 224.5615234375 238.17449951171875 C 221.944091796875 242.58322143554688 219.533447265625 246.78530883789062 217.329345703125 250.78070068359375 C 216.916015625 262.0091552734375 216.5029296875 273.2376708984375 216.089599609375 284.46612548828125 C 211.406005859375 292.4569396972656 205.620361328125 301.5499267578125 198.732666015625 311.7451171875 C 191.844970703125 321.9403076171875 184.47509765625 332.6865234375 176.623046875 343.98388671875 C 168.908935546875 355.14349365234375 160.988037109375 366.44085693359375 152.860595703125 377.8759765625 C 144.870849609375 389.17333984375 137.29443359375 399.8507080078125 130.13134765625 409.90814208984375 C 127.1005859375 406.3260498046875 124.070068359375 402.74395751953125 121.03955078125 399.161865234375 C 125.72314453125 393.099853515625 131.646484375 385.31573486328125 138.809814453125 375.8094482421875 C 145.97314453125 366.3031005859375 153.48046875 356.0390625 161.33251953125 345.0172119140625 C 169.322265625 333.99542236328125 177.105224609375 323.18023681640625 184.681640625 312.57177734375 C 192.25830078125 301.82550048828125 198.801513671875 292.25030517578125 204.311767578125 283.84613037109375 C 209.82177734375 275.30426025390625 213.678955078125 268.8978271484375 215.883056640625 264.6268615722656 C 216.640625 254.50054931640625 217.398193359375 244.374267578125 218.156005859375 234.24798583984375 C 219.18896484375 229.42593383789062 220.22216796875 224.60391235351562 221.25537109375 219.7818603515625M 218.569091796875 165.0172119140625 C 218.569091796875 161.57290649414062 218.500244140625 157.78414916992188 218.362548828125 153.65097045898438 C 218.224609375 149.38003540039062 217.88037109375 145.38461303710938 217.329345703125 141.66473388671875 C 222.908447265625 141.9403076171875 228.487548828125 142.2158203125 234.06640625 142.49139404296875 C 233.239990234375 146.48678588867188 232.137939453125 154.1331787109375 230.76025390625 165.4305419921875 C 229.5205078125 176.59011840820312 228.2119140625 190.02294921875 226.83447265625 205.72903442382812 C 225.5947265625 221.43511962890625 224.354736328125 238.1055908203125 223.114990234375 255.74053955078125 C 221.875244140625 273.37542724609375 220.842041015625 290.7347717285156 220.015625 307.818603515625 C 219.326904296875 324.90240478515625 218.982421875 340.2640380859375 218.982421875 353.903564453125 C 218.982421875 367.1297607421875 218.982421875 378.289306640625 218.982421875 387.38232421875 C 218.982421875 396.3375244140625 219.05126953125 404.9483642578125 219.18896484375 413.2147216796875 C 219.326904296875 421.34326171875 219.533447265625 431.1251220703125 219.808837890625 442.560302734375 C 220.08447265625 445.8668212890625 220.291015625 448.8978271484375 220.428955078125 451.65325927734375 C 220.566650390625 454.5465087890625 220.704345703125 457.439697265625 220.842041015625 460.33294677734375 C 216.089599609375 460.33294677734375 211.337158203125 460.33294677734375 206.584716796875 460.33294677734375 C 207.1357421875 457.439697265625 207.47998046875 454.5465087890625 207.61767578125 451.65325927734375 C 207.755615234375 448.8978271484375 207.824462890625 445.9356689453125 207.824462890625 442.7669677734375 C 207.824462890625 430.09185791015625 207.824462890625 419.48333740234375 207.824462890625 410.94140625 C 207.824462890625 402.26177978515625 207.824462890625 393.7198486328125 207.824462890625 385.31573486328125 C 207.824462890625 376.91162109375 207.824462890625 366.44085693359375 207.824462890625 353.903564453125 C 207.824462890625 348.1170654296875 208.099853515625 339.8507080078125 208.65087890625 329.1044921875 C 209.201904296875 318.220458984375 209.82177734375 306.096435546875 210.510498046875 292.73248291015625 C 211.337158203125 279.3685302734375 212.232421875 265.7290344238281 213.19677734375 251.81399536132812 C 214.1611328125 237.89895629882812 214.987548828125 224.810546875 215.67626953125 212.54876708984375 C 216.5029296875 200.28701782226562 217.191650390625 189.95407104492188 217.74267578125 181.5499267578125 C 218.293701171875 173.00802612304688 218.569091796875 167.49713134765625 218.569091796875 165.0172119140625"/>
  </g>
</svg>
