<?xml version="1.0" ?>
<svg xmlns="http://www.w3.org/2000/svg" version="1.1" width="600" height="600">
  <defs/>
  <g>
    <path stroke-width="0" fill="rgb(0, 0, 0)" opacity="1.0" d="M 326.221435546875 121.22280883789062 C 330.0894775390625 122.05181884765625 333.95751953125 122.88082885742188 337.8255615234375 123.7098388671875 C 332.7142333984375 145.26425170898438 326.3594970703125 165.9205322265625 318.7615966796875 185.67874145507812 C 311.3017578125 205.43695068359375 302.73681640625 223.744384765625 293.066650390625 240.60101318359375 C 283.53466796875 257.31951904296875 272.966552734375 272.2418212890625 261.3624267578125 285.36785888671875 C 260.8099365234375 284.53887939453125 259.911865234375 283.6407470703125 258.6685791015625 282.673583984375 C 257.5633544921875 281.7063903808594 256.320068359375 280.80828857421875 254.938720703125 279.9792785644531 C 253.6954345703125 279.0120849609375 252.521240234375 278.2521667480469 251.416015625 277.699462890625 C 263.0201416015625 265.2642517089844 273.5191650390625 250.8946533203125 282.9129638671875 234.59066772460938 C 292.445068359375 218.28671264648438 300.8028564453125 200.53192138671875 307.986328125 181.326416015625 C 315.3079833984375 161.98272705078125 321.3863525390625 141.94818115234375 326.221435546875 121.22280883789062M 467.129150390625 192.93264770507812 C 471.0662841796875 192.93264770507812 475.00341796875 192.93264770507812 478.9405517578125 192.93264770507812 C 478.9405517578125 192.93264770507812 478.9405517578125 193.55441284179688 478.9405517578125 194.79791259765625 C 478.9405517578125 195.90328979492188 478.9405517578125 197.21588134765625 478.9405517578125 198.73574829101562 C 478.9405517578125 200.117431640625 478.8023681640625 201.2227783203125 478.526123046875 202.05181884765625 C 475.9013671875 248.20034790039062 473.2764892578125 287.0259094238281 470.65185546875 318.52850341796875 C 468.027099609375 349.8929443359375 465.195068359375 375.5233154296875 462.1558837890625 395.419677734375 C 459.2548828125 415.3160400390625 456.0775146484375 430.721923828125 452.6239013671875 441.6373291015625 C 449.1702880859375 452.55267333984375 445.371337890625 460.3592529296875 441.2269287109375 465.0570068359375 C 437.7734375 469.3402099609375 434.181640625 472.1036376953125 430.45166015625 473.34716796875 C 426.7218017578125 474.7288818359375 422.0938720703125 475.557861328125 416.568115234375 475.834228515625 C 411.456787109375 476.11053466796875 404.7567138671875 476.11053466796875 396.468017578125 475.834228515625 C 388.3175048828125 475.557861328125 379.890625 475.07427978515625 371.1875 474.3834228515625 C 370.9112548828125 472.1727294921875 370.56591796875 469.9620361328125 370.1514892578125 467.75128173828125 C 369.737060546875 465.54058837890625 368.908203125 463.606201171875 367.6649169921875 461.94818115234375 C 378.163818359375 462.7772216796875 387.69580078125 463.32989501953125 396.2608642578125 463.606201171875 C 404.9639892578125 463.882568359375 411.180419921875 464.020751953125 414.910400390625 464.020751953125 C 418.6402587890625 464.020751953125 421.679443359375 463.67529296875 424.0279541015625 462.9844970703125 C 426.37646484375 462.2935791015625 428.6558837890625 460.77374267578125 430.8660888671875 458.42486572265625 C 434.5960693359375 454.41796875 438.11865234375 446.956787109375 441.4342041015625 436.04144287109375 C 444.7496337890625 424.9879150390625 447.85791015625 409.3056640625 450.7589111328125 388.99481201171875 C 453.6600341796875 368.6839599609375 456.4229736328125 342.8463134765625 459.047607421875 311.48187255859375 C 461.67236328125 279.9792785644531 464.3662109375 241.63729858398438 467.129150390625 196.45596313476562 C 467.129150390625 195.28152465820312 467.129150390625 194.1070556640625 467.129150390625 192.93264770507812M 308.60791015625 192.93264770507812 C 362.62255859375 192.93264770507812 416.63720703125 192.93264770507812 470.65185546875 192.93264770507812 C 470.65185546875 196.9395751953125 470.65185546875 200.94644165039062 470.65185546875 204.953369140625 C 415.462890625 204.953369140625 360.274169921875 204.953369140625 305.085205078125 204.953369140625 C 306.2593994140625 200.94644165039062 307.4337158203125 196.9395751953125 308.60791015625 192.93264770507812M 361.655517578125 196.04144287109375 C 365.247314453125 197.90673828125 368.839111328125 199.77203369140625 372.430908203125 201.63729858398438 C 366.21435546875 225.81689453125 357.78759765625 250.20379638671875 347.150390625 274.79791259765625 C 336.6513671875 299.25390625 324.49462890625 321.84454345703125 310.68017578125 342.5699462890625 C 296.86572265625 363.29534912109375 282.0150146484375 380.1519775390625 266.12841796875 393.139892578125 C 264.7470703125 391.7581787109375 263.0892333984375 390.37646484375 261.1551513671875 388.99481201171875 C 259.359375 387.4749755859375 257.5633544921875 386.162353515625 255.767578125 385.0570068359375 C 267.3717041015625 375.7996826171875 278.630615234375 364.26251220703125 289.5439453125 350.445556640625 C 300.4573974609375 336.490478515625 310.472900390625 321.01556396484375 319.5904541015625 304.020751953125 C 328.7080078125 287.0259094238281 336.858642578125 269.3402404785156 344.0421142578125 250.9637451171875 C 351.2255859375 232.44903564453125 357.0968017578125 214.14163208007812 361.655517578125 196.04144287109375M 419.6763916015625 196.04144287109375 C 423.40625 197.7685546875 427.13623046875 199.49566650390625 430.8660888671875 201.2227783203125 C 425.7547607421875 228.85665893554688 418.9166259765625 256.21417236328125 410.3515625 283.29534912109375 C 401.9248046875 310.37652587890625 391.9783935546875 336.07598876953125 380.5123291015625 360.393798828125 C 369.1844482421875 384.5733642578125 356.3370361328125 406.5423583984375 341.969970703125 426.300537109375 C 327.7410888671875 446.0587158203125 311.9925537109375 462.5699462890625 294.724365234375 475.834228515625 C 293.4810791015625 474.5906982421875 291.7542724609375 473.139892578125 289.5439453125 471.48187255859375 C 287.4718017578125 469.9620361328125 285.33056640625 468.6494140625 283.1202392578125 467.5440673828125 C 300.388427734375 455.1087646484375 316.2750244140625 439.2193603515625 330.7801513671875 419.8756103515625 C 345.4234619140625 400.393798828125 358.4781494140625 378.63214111328125 369.9442138671875 354.5906982421875 C 381.4102783203125 330.4110107421875 391.28759765625 304.7806396484375 399.5762939453125 277.699462890625 C 408.0030517578125 250.6182861328125 414.703125 223.39895629882812 419.6763916015625 196.04144287109375M 123.9774169921875 346.09326171875 C 136.2723388671875 342.6390380859375 150.224853515625 338.56304931640625 165.8353271484375 333.86529541015625 C 181.4456787109375 329.02935791015625 198.092041015625 323.7789306640625 215.774658203125 318.114013671875 C 233.4571533203125 312.44903564453125 251.1396484375 306.78411865234375 268.822265625 301.1191711425781 C 269.374755859375 304.57342529296875 269.927490234375 308.02764892578125 270.47998046875 311.48187255859375 C 245.337646484375 319.77203369140625 220.1953125 328.0621337890625 195.052978515625 336.352294921875 C 170.0487060546875 344.5042724609375 147.87646484375 351.7581787109375 128.5361328125 358.114013671875 C 127.0166015625 354.1070556640625 125.4970703125 350.10015869140625 123.9774169921875 346.09326171875M 201.2694091796875 122.05181884765625 C 205.275634765625 122.05181884765625 209.2818603515625 122.05181884765625 213.2880859375 122.05181884765625 C 213.2880859375 241.2918701171875 213.2880859375 360.531982421875 213.2880859375 479.77203369140625 C 209.2818603515625 479.77203369140625 205.275634765625 479.77203369140625 201.2694091796875 479.77203369140625 C 201.2694091796875 360.531982421875 201.2694091796875 241.2918701171875 201.2694091796875 122.05181884765625M 155.0599365234375 144.8497314453125 C 159.0662841796875 145.33334350585938 163.0723876953125 145.81692504882812 167.07861328125 146.30050659179688 C 164.8682861328125 164.12435913085938 162.1744384765625 181.602783203125 158.9970703125 198.73574829101562 C 155.8197021484375 215.86871337890625 152.22802734375 231.9654541015625 148.2218017578125 247.02590942382812 C 144.353759765625 261.94818115234375 139.7259521484375 275.3505859375 134.3382568359375 287.233154296875 C 133.6474609375 286.68048095703125 132.54248046875 286.1278076171875 131.0228271484375 285.57513427734375 C 129.641357421875 284.88427734375 128.19091796875 284.19342041015625 126.6712646484375 283.5025939941406 C 125.151611328125 282.811767578125 123.9083251953125 282.328125 122.9412841796875 282.05181884765625 C 128.743408203125 270.16925048828125 133.6474609375 256.8359375 137.65380859375 242.05181884765625 C 141.6600341796875 227.1295166015625 145.113525390625 211.37823486328125 148.0146484375 194.79791259765625 C 150.9156494140625 178.21762084960938 153.26416015625 161.56820678710938 155.0599365234375 144.8497314453125M 149.465087890625 207.64764404296875 C 187.04052734375 207.64764404296875 224.6158447265625 207.64764404296875 262.1912841796875 207.64764404296875 C 262.1912841796875 211.65460205078125 262.1912841796875 215.66146850585938 262.1912841796875 219.66839599609375 C 224.40869140625 219.66839599609375 186.6260986328125 219.66839599609375 148.843505859375 219.66839599609375 C 149.0506591796875 215.66146850585938 149.2579345703125 211.65460205078125 149.465087890625 207.64764404296875"/>
  </g>
</svg>
