<?xml version="1.0" encoding="utf-8"?>
<svg xmlns="http://www.w3.org/2000/svg" xmlns:ev="http://www.w3.org/2001/xml-events" xmlns:xlink="http://www.w3.org/1999/xlink" version="1.1" baseProfile="full" width="17098.0" height="1737.3" viewBox="90.0 -1596.0 17098.0 1737.3">
<defs/>
<g><path d="M 4481.000000 -979.000000 C 4603.333333 -979.000000 4725.666667 -979.000000 4848.000000 -979.000000 C 4848.000000 -960.000000 4848.000000 -941.000000 4848.000000 -922.000000 C 4725.666667 -922.000000 4603.333333 -922.000000 4481.000000 -922.000000 C 4481.000000 -941.000000 4481.000000 -960.000000 4481.000000 -979.000000z M 4466.000000 -1594.000000 C 4484.666667 -1594.000000 4503.333333 -1594.000000 4522.000000 -1594.000000 C 4522.000000 -1078.666667 4522.000000 -563.333333 4522.000000 -48.000000 C 4503.333333 -44.000000 4484.666667 -40.000000 4466.000000 -36.000000 C 4466.000000 -555.333333 4466.000000 -1074.666667 4466.000000 -1594.000000z M 4115.000000 -1215.000000 C 4134.000000 -1215.000000 4153.000000 -1215.000000 4172.000000 -1215.000000 C 4172.000000 -806.666667 4172.000000 -398.333333 4172.000000 10.000000 C 4153.000000 13.000000 4134.000000 16.000000 4115.000000 19.000000 C 4115.000000 -392.333333 4115.000000 -803.666667 4115.000000 -1215.000000z M 3946.000000 31.000000 C 4020.000000 18.333333 4106.333333 3.000000 4205.000000 -15.000000 C 4303.666667 -33.000000 4409.000000 -52.333333 4521.000000 -73.000000 C 4633.000000 -93.666667 4746.000000 -114.666667 4860.000000 -136.000000 C 4861.000000 -115.666667 4862.000000 -95.333333 4863.000000 -75.000000 C 4754.333333 -55.666667 4645.000000 -35.666667 4535.000000 -15.000000 C 4425.000000 5.000000 4320.666667 24.333333 4222.000000 43.000000 C 4123.333333 61.666667 4035.666667 78.666667 3959.000000 94.000000 C 3954.666667 73.000000 3950.333333 52.000000 3946.000000 31.000000z M 5547.000000 -1171.000000 C 5565.000000 -1157.000000 5583.000000 -1143.000000 5601.000000 -1129.000000 C 5551.000000 -1088.333333 5493.333333 -1047.000000 5428.000000 -1005.000000 C 5362.666667 -963.666667 5293.666667 -923.000000 5221.000000 -883.000000 C 5149.000000 -843.666667 5077.666667 -806.000000 5007.000000 -770.000000 C 5005.000000 -776.666667 5001.333333 -784.000000 4996.000000 -792.000000 C 4990.666667 -800.000000 4985.333333 -807.333333 4980.000000 -814.000000 C 5049.333333 -848.666667 5119.333333 -886.333333 5190.000000 -927.000000 C 5261.333333 -968.333333 5328.333333 -1009.666667 5391.000000 -1051.000000 C 5453.666667 -1093.000000 5505.666667 -1133.000000 5547.000000 -1171.000000z M 4971.000000 -1594.000000 C 4992.000000 -1594.000000 5013.000000 -1594.000000 5034.000000 -1594.000000 C 5034.000000 -1103.666667 5034.000000 -613.333333 5034.000000 -123.000000 C 5034.000000 -75.666667 5041.000000 -44.000000 5055.000000 -28.000000 C 5069.000000 -12.000000 5101.666667 -4.000000 5153.000000 -4.000000 C 5165.000000 -4.000000 5186.666667 -4.000000 5218.000000 -4.000000 C 5249.333333 -4.000000 5284.000000 -4.000000 5322.000000 -4.000000 C 5360.666667 -4.000000 5397.000000 -4.000000 5431.000000 -4.000000 C 5465.000000 -4.000000 5489.666667 -4.000000 5505.000000 -4.000000 C 5538.333333 -4.000000 5563.000000 -14.000000 5579.000000 -34.000000 C 5595.000000 -54.666667 5606.000000 -91.666667 5612.000000 -145.000000 C 5618.666667 -198.333333 5623.333333 -274.000000 5626.000000 -372.000000 C 5636.000000 -364.666667 5646.000000 -358.666667 5656.000000 -354.000000 C 5666.666667 -350.000000 5676.333333 -346.666667 5685.000000 -344.000000 C 5681.000000 -244.000000 5674.333333 -165.000000 5665.000000 -107.000000 C 5656.333333 -49.666667 5640.000000 -9.333333 5616.000000 14.000000 C 5592.000000 38.000000 5555.000000 50.000000 5505.000000 50.000000 C 5495.666667 50.000000 5474.333333 50.000000 5441.000000 50.000000 C 5407.666667 50.000000 5370.333333 50.000000 5329.000000 50.000000 C 5287.666667 50.000000 5250.333333 50.000000 5217.000000 50.000000 C 5183.666667 50.000000 5163.000000 50.000000 5155.000000 50.000000 C 5107.666667 50.000000 5070.666667 45.333333 5044.000000 36.000000 C 5017.333333 27.333333 4998.333333 10.333333 4987.000000 -15.000000 C 4976.333333 -41.000000 4971.000000 -78.333333 4971.000000 -127.000000 C 4971.000000 -616.000000 4971.000000 -1105.000000 4971.000000 -1594.000000z "/>
</g></svg>
