<?xml version="1.0" ?>
<svg xmlns="http://www.w3.org/2000/svg" version="1.1" width="600" height="600">
  <defs/>
  <g>
    <path stroke-width="0" fill="rgb(0, 0, 0)" opacity="1.0" d="M 160.40771484375 176.80078125 C 189.76373291015625 180.33697509765625 219.0428466796875 182.335693359375 248.24517822265625 182.79693603515625 C 277.44744873046875 183.2581787109375 302.96099853515625 182.335693359375 324.785888671875 180.02947998046875 C 340.92401123046875 177.87698364257812 357.4462890625 174.955810546875 374.3529052734375 171.265869140625 C 391.4132080078125 167.57589721679688 406.7828369140625 163.42471313476562 420.4617919921875 158.81228637695312 C 421.30712890625 163.34783935546875 422.1524658203125 167.8834228515625 422.997802734375 172.41897583007812 C 410.0872802734375 176.26263427734375 395.1019287109375 179.95257568359375 378.0416259765625 183.48880004882812 C 361.135009765625 187.02499389648438 344.535888671875 189.86929321289062 328.24407958984375 192.02178955078125 C 306.11181640625 194.3280029296875 280.29083251953125 195.40420532226562 250.7811279296875 195.25048828125 C 221.271484375 195.09674072265625 191.6080322265625 193.7130126953125 161.791015625 191.09930419921875 C 161.32989501953125 186.3331298828125 160.86883544921875 181.56692504882812 160.40771484375 176.80078125M 151.18597412109375 265.82061767578125 C 175.16259765625 268.434326171875 199.29290771484375 270.12554931640625 223.576904296875 270.894287109375 C 247.86090087890625 271.66302490234375 271.1458740234375 271.586181640625 293.43182373046875 270.6636962890625 C 315.71783447265625 269.5874328613281 335.160400390625 267.8193359375 351.75958251953125 265.359375 C 370.0494384765625 263.05316162109375 388.0318603515625 259.9013366699219 405.70703125 255.90390014648438 C 423.382080078125 251.906494140625 437.5220947265625 248.1396484375 448.127197265625 244.60345458984375 C 448.8955078125 249.21588134765625 449.6640625 253.82830810546875 450.4326171875 258.44073486328125 C 439.5201416015625 261.66943359375 425.764404296875 264.9750061035156 409.1651611328125 268.35748291015625 C 392.7197265625 271.73992919921875 374.890869140625 274.584228515625 355.6788330078125 276.89044189453125 C 338.00372314453125 279.35040283203125 317.9464111328125 281.19537353515625 295.50677490234375 282.42535400390625 C 273.067138671875 283.5015869140625 249.55157470703125 283.80908203125 224.96014404296875 283.34783935546875 C 200.5224609375 282.8865966796875 176.23846435546875 281.81036376953125 152.108154296875 280.119140625 C 151.80078125 275.35296630859375 151.49334716796875 270.5867919921875 151.18597412109375 265.82061767578125M 306.11181640625 153.0467529296875 C 304.88226318359375 147.97308349609375 303.42205810546875 142.8994140625 301.7314453125 137.82574462890625 C 300.1944580078125 132.59832763671875 298.734375 128.06277465820312 297.35107421875 124.21908569335938 C 302.65362548828125 123.14285278320312 307.9561767578125 122.06661987304688 313.2586669921875 120.99038696289062 C 314.48822021484375 131.59896850585938 316.87054443359375 143.74502563476562 320.405517578125 157.42855834960938 C 323.9405517578125 170.95834350585938 327.782958984375 184.41128540039062 331.9327392578125 197.78732299804688 C 336.23626708984375 211.00961303710938 340.0018310546875 222.31005859375 343.22943115234375 231.68865966796875 C 347.9940185546875 244.44970703125 353.0660400390625 257.364501953125 358.4453125 270.43304443359375 C 363.978515625 283.34783935546875 370.126220703125 296.26263427734375 376.888916015625 309.17742919921875 C 383.80517578125 321.9384765625 391.489990234375 334.5457763671875 399.943359375 346.9993896484375 C 401.7877197265625 349.613037109375 403.862548828125 352.14990234375 406.16796875 354.60986328125 C 408.4735107421875 357.06982421875 410.855712890625 359.52978515625 413.31494140625 361.98974609375 C 409.93359375 366.37158203125 406.55224609375 370.75335693359375 403.1708984375 375.1351318359375 C 394.871337890625 372.521484375 385.649658203125 370.44586181640625 375.505615234375 368.90838623046875 C 365.515380859375 367.2171630859375 355.3714599609375 365.83343505859375 345.07379150390625 364.7572021484375 C 334.776123046875 363.5272216796875 324.785888671875 362.45098876953125 315.10302734375 361.52850341796875 C 315.4873046875 357.684814453125 315.8714599609375 353.84112548828125 316.2557373046875 349.9974365234375 C 330.70318603515625 351.534912109375 345.3043212890625 353.22613525390625 360.0592041015625 355.07110595703125 C 374.81396484375 356.7623291015625 385.880126953125 358.14605712890625 393.257568359375 359.2222900390625 C 380.654541015625 340.92633056640625 369.127197265625 320.785400390625 358.6759033203125 298.79949951171875 C 348.37823486328125 276.8135986328125 339.54071044921875 255.98077392578125 332.163330078125 236.30108642578125 C 328.6282958984375 226.46124267578125 325.2469482421875 216.62139892578125 322.01934814453125 206.78155517578125 C 318.791748046875 196.94171142578125 315.8714599609375 187.40936279296875 313.2586669921875 178.18450927734375 C 310.6458740234375 168.805908203125 308.2635498046875 160.4266357421875 306.11181640625 153.0467529296875M 194.9893798828125 353.456787109375 C 189.76373291015625 361.45166015625 185.53704833984375 369.446533203125 182.3094482421875 377.44140625 C 179.23553466796875 385.436279296875 177.69854736328125 394.584228515625 177.69854736328125 404.88531494140625 C 177.69854736328125 425.0262451171875 186.6898193359375 440.70849609375 204.6722412109375 451.93212890625 C 222.80841064453125 463.1556396484375 251.933837890625 468.7674560546875 292.048583984375 468.7674560546875 C 312.33648681640625 468.7674560546875 330.0115966796875 467.99871826171875 345.07379150390625 466.46124267578125 C 360.135986328125 464.92376708984375 375.81298828125 462.5406494140625 392.1048583984375 459.31201171875 C 392.1048583984375 464.078125 392.1048583984375 468.8443603515625 392.1048583984375 473.6104736328125 C 376.7352294921875 476.2242431640625 361.288818359375 478.0692138671875 345.76544189453125 479.1453857421875 C 330.24212646484375 480.3753662109375 312.64385986328125 480.9903564453125 292.97076416015625 480.9903564453125 C 264.5369873046875 480.9903564453125 240.86773681640625 478.14605712890625 221.96307373046875 472.4573974609375 C 203.0584716796875 466.9224853515625 188.91839599609375 458.46636962890625 179.54290771484375 447.08905029296875 C 170.16741943359375 435.71173095703125 165.479736328125 421.643798828125 165.479736328125 404.88531494140625 C 165.479736328125 393.96923828125 166.86297607421875 384.3599853515625 169.6295166015625 376.0576171875 C 172.39605712890625 367.6015625 176.16156005859375 358.76104736328125 180.92620849609375 349.53619384765625 C 185.6138916015625 350.843017578125 190.30169677734375 352.14990234375 194.9893798828125 353.456787109375"/>
  </g>
</svg>
