<?xml version="1.0" ?>
<svg xmlns="http://www.w3.org/2000/svg" version="1.1" width="600" height="600">
  <defs/>
  <g>
    <path stroke-width="0" fill="rgb(0, 0, 0)" opacity="1.0" d="M 129.2108154296875 302.9036865234375 C 139.60916137695312 302.9036865234375 150.00750732421875 302.9036865234375 160.4058837890625 302.9036865234375 C 160.4058837890625 303.5030517578125 160.4058837890625 304.1024169921875 160.4058837890625 304.70184326171875 C 150.00750732421875 304.70184326171875 139.60916137695312 304.70184326171875 129.2108154296875 304.70184326171875 C 129.2108154296875 304.1024169921875 129.2108154296875 303.5030517578125 129.2108154296875 302.9036865234375M 128.1795654296875 311.1881103515625 C 139.35134887695312 311.1881103515625 150.52313232421875 311.1881103515625 161.69491577148438 311.1881103515625 C 161.69491577148438 311.7767333984375 161.69491577148438 312.365478515625 161.69491577148438 312.9541015625 C 150.52313232421875 312.9541015625 139.35134887695312 312.9541015625 128.1795654296875 312.9541015625 C 128.1795654296875 312.365478515625 128.1795654296875 311.7767333984375 128.1795654296875 311.1881103515625M 143.454833984375 303.6422119140625 C 144.077880859375 303.6422119140625 144.700927734375 303.6422119140625 145.323974609375 303.6422119140625 C 145.323974609375 305.53668212890625 145.323974609375 307.43115234375 145.323974609375 309.32568359375 C 145.323974609375 310.5672607421875 145.162841796875 311.8837890625 144.840576171875 313.2752685546875 C 144.539794921875 314.6666259765625 143.863037109375 316.1009521484375 142.810302734375 317.5780029296875 C 141.75759887695312 319.03363037109375 140.14627075195312 320.425048828125 137.97637939453125 321.7523193359375 C 135.80645751953125 323.0794677734375 132.88461303710938 324.2996826171875 129.2108154296875 325.412841796875 C 129.1033935546875 325.22021484375 128.9315185546875 324.9739990234375 128.6951904296875 324.67431640625 C 128.4588623046875 324.39599609375 128.2655029296875 324.1712646484375 128.1151123046875 324.0 C 131.66000366210938 323.0152587890625 134.46371459960938 321.902099609375 136.52618408203125 320.6605224609375 C 138.58868408203125 319.3975830078125 140.11404418945312 318.1131591796875 141.10232543945312 316.807373046875 C 142.09060668945312 315.4801025390625 142.724365234375 314.17431640625 143.003662109375 312.889892578125 C 143.304443359375 311.5841064453125 143.454833984375 310.39599609375 143.454833984375 309.32568359375 C 143.454833984375 307.43115234375 143.454833984375 305.53668212890625 143.454833984375 303.6422119140625M 145.807373046875 311.73394775390625 C 146.96749877929688 314.773681640625 148.87960815429688 317.2996826171875 151.54364013671875 319.3118896484375 C 154.22915649414062 321.32415771484375 157.5162353515625 322.726318359375 161.40487670898438 323.518310546875 C 161.1470947265625 323.668212890625 160.9000244140625 323.8929443359375 160.6636962890625 324.192626953125 C 160.4488525390625 324.5137939453125 160.2554931640625 324.802734375 160.0836181640625 325.05963134765625 C 156.21646118164062 324.074951171875 152.87567138671875 322.4908447265625 150.06121826171875 320.307373046875 C 147.26828002929688 318.12384033203125 145.270263671875 315.40521240234375 144.067138671875 312.1513671875 C 144.647216796875 312.01220703125 145.227294921875 311.873046875 145.807373046875 311.73394775390625M 134.30258178710938 296.738525390625 C 134.81817626953125 296.53515625 135.33380126953125 296.331787109375 135.84942626953125 296.12841796875 C 136.66583251953125 297.0703125 137.41778564453125 298.1513671875 138.10528564453125 299.37158203125 C 138.81423950195312 300.59173583984375 139.31912231445312 301.6513671875 139.61990356445312 302.5504150390625 C 139.06130981445312 302.796630859375 138.50274658203125 303.0428466796875 137.94415283203125 303.28900146484375 C 137.66485595703125 302.34710693359375 137.19219970703125 301.26605224609375 136.52618408203125 300.0458984375 C 135.86016845703125 298.82568359375 135.11895751953125 297.7232666015625 134.30258178710938 296.738525390625M 153.15496826171875 295.87158203125 C 153.71356201171875 296.1605224609375 154.27212524414062 296.4495849609375 154.83071899414062 296.738525390625 C 154.16470336914062 297.89453125 153.46649169921875 299.08258056640625 152.73602294921875 300.302734375 C 152.02703857421875 301.50152587890625 151.32879638671875 302.5611572265625 150.64129638671875 303.481689453125 C 150.20086669921875 303.2354736328125 149.76043701171875 302.9892578125 149.32003784179688 302.7431640625 C 149.94305419921875 301.77978515625 150.63055419921875 300.634521484375 151.38250732421875 299.307373046875 C 152.15594482421875 297.9801025390625 152.74676513671875 296.8348388671875 153.15496826171875 295.87158203125M 121.18646240234375 284.1834716796875 C 127.5780029296875 284.1834716796875 133.96957397460938 284.1834716796875 140.36111450195312 284.1834716796875 C 140.36111450195312 284.772216796875 140.36111450195312 285.36083984375 140.36111450195312 285.9495849609375 C 133.96957397460938 285.9495849609375 127.5780029296875 285.9495849609375 121.18646240234375 285.9495849609375 C 121.18646240234375 285.36083984375 121.18646240234375 284.772216796875 121.18646240234375 284.1834716796875M 149.51339721679688 284.1834716796875 C 155.99087524414062 284.1834716796875 162.46835327148438 284.1834716796875 168.94583129882812 284.1834716796875 C 168.94583129882812 284.772216796875 168.94583129882812 285.36083984375 168.94583129882812 285.9495849609375 C 162.46835327148438 285.9495849609375 155.99087524414062 285.9495849609375 149.51339721679688 285.9495849609375 C 149.51339721679688 285.36083984375 149.51339721679688 284.772216796875 149.51339721679688 284.1834716796875M 168.20465087890625 275.738525390625 C 168.82769775390625 275.738525390625 169.45071411132812 275.738525390625 170.07376098632812 275.738525390625 C 170.07376098632812 292.17889404296875 170.07376098632812 308.6192626953125 170.07376098632812 325.05963134765625 C 170.07376098632812 325.958740234375 169.93411254882812 326.622314453125 169.65481567382812 327.0504150390625 C 169.39700317382812 327.4786376953125 168.93508911132812 327.7996826171875 168.26910400390625 328.0137939453125 C 167.68902587890625 328.16357421875 166.74371337890625 328.249267578125 165.43316650390625 328.2706298828125 C 164.14413452148438 328.29205322265625 162.51132202148438 328.302734375 160.5347900390625 328.302734375 C 160.4918212890625 328.0672607421875 160.3843994140625 327.7462158203125 160.2125244140625 327.3394775390625 C 160.0621337890625 326.9541015625 159.9010009765625 326.622314453125 159.7291259765625 326.343994140625 C 161.46932983398438 326.3868408203125 163.01620483398438 326.40826416015625 164.36972045898438 326.40826416015625 C 165.72320556640625 326.40826416015625 166.62554931640625 326.3868408203125 167.07672119140625 326.343994140625 C 167.50640869140625 326.30120849609375 167.79644775390625 326.1942138671875 167.94683837890625 326.02294921875 C 168.11871337890625 325.873046875 168.20465087890625 325.5733642578125 168.20465087890625 325.12384033203125 C 168.20465087890625 308.662109375 168.20465087890625 292.2003173828125 168.20465087890625 275.738525390625M 121.31536865234375 275.738525390625 C 127.9969482421875 275.738525390625 134.67855834960938 275.738525390625 141.36013793945312 275.738525390625 C 141.36013793945312 282.08563232421875 141.36013793945312 288.4327392578125 141.36013793945312 294.77978515625 C 134.67855834960938 294.77978515625 127.9969482421875 294.77978515625 121.31536865234375 294.77978515625 C 121.31536865234375 294.180419921875 121.31536865234375 293.5810546875 121.31536865234375 292.981689453125 C 127.3953857421875 292.981689453125 133.47543334960938 292.981689453125 139.55545043945312 292.981689453125 C 139.55545043945312 287.8226318359375 139.55545043945312 282.66357421875 139.55545043945312 277.50457763671875 C 133.47543334960938 277.50457763671875 127.3953857421875 277.50457763671875 121.31536865234375 277.50457763671875 C 121.31536865234375 276.9158935546875 121.31536865234375 276.32720947265625 121.31536865234375 275.738525390625M 168.88140869140625 275.738525390625 C 168.88140869140625 276.32720947265625 168.88140869140625 276.9158935546875 168.88140869140625 277.50457763671875 C 162.60800170898438 277.50457763671875 156.33462524414062 277.50457763671875 150.06121826171875 277.50457763671875 C 150.06121826171875 282.66357421875 150.06121826171875 287.8226318359375 150.06121826171875 292.981689453125 C 156.33462524414062 292.981689453125 162.60800170898438 292.981689453125 168.88140869140625 292.981689453125 C 168.88140869140625 293.5810546875 168.88140869140625 294.180419921875 168.88140869140625 294.77978515625 C 162.01718139648438 294.77978515625 155.15298461914062 294.77978515625 148.28878784179688 294.77978515625 C 148.28878784179688 288.4327392578125 148.28878784179688 282.08563232421875 148.28878784179688 275.738525390625 C 155.15298461914062 275.738525390625 162.01718139648438 275.738525390625 168.88140869140625 275.738525390625M 120.12298583984375 275.738525390625 C 120.74603271484375 275.738525390625 121.36907958984375 275.738525390625 121.99212646484375 275.738525390625 C 121.99212646484375 293.302734375 121.99212646484375 310.866943359375 121.99212646484375 328.43115234375 C 121.36907958984375 328.43115234375 120.74603271484375 328.43115234375 120.12298583984375 328.43115234375 C 120.12298583984375 310.866943359375 120.12298583984375 293.302734375 120.12298583984375 275.738525390625"/>
    <path stroke-width="0" fill="rgb(0, 0, 0)" opacity="1.0" d="M 212.93475341796875 304.958740234375 C 213.53631591796875 304.958740234375 214.13784790039062 304.958740234375 214.73941040039062 304.958740234375 C 214.73941040039062 312.74005126953125 214.73941040039062 320.5213623046875 214.73941040039062 328.302734375 C 214.13784790039062 328.302734375 213.53631591796875 328.302734375 212.93475341796875 328.302734375 C 212.93475341796875 320.5213623046875 212.93475341796875 312.74005126953125 212.93475341796875 304.958740234375M 193.14779663085938 304.83026123046875 C 196.19854736328125 304.7874755859375 199.79714965820312 304.73394775390625 203.943603515625 304.66973876953125 C 208.09005737304688 304.60546875 212.50506591796875 304.5198974609375 217.18862915039062 304.412841796875 C 221.87216186523438 304.284423828125 226.55572509765625 304.156005859375 231.23928833007812 304.02752685546875 C 231.20706176757812 304.5841064453125 231.17483520507812 305.14068603515625 231.14260864257812 305.697265625 C 226.58795166015625 305.82568359375 222.0118408203125 305.96484375 217.4141845703125 306.11468505859375 C 212.81658935546875 306.2431640625 208.45529174804688 306.36083984375 204.330322265625 306.4678955078125 C 200.20535278320312 306.574951171875 196.53155517578125 306.6605224609375 193.30892944335938 306.7247314453125 C 193.25521850585938 306.09326171875 193.20150756835938 305.4617919921875 193.14779663085938 304.83026123046875M 229.62796020507812 274.67889404296875 C 230.16506958007812 275.1712646484375 230.70217895507812 275.66357421875 231.23928833007812 276.156005859375 C 229.17681884765625 276.7767333984375 226.73834228515625 277.343994140625 223.92391967773438 277.8577880859375 C 221.1309814453125 278.37158203125 218.1446533203125 278.831787109375 214.96499633789062 279.238525390625 C 211.80682373046875 279.645263671875 208.59494018554688 280.0091552734375 205.329345703125 280.33026123046875 C 202.06375122070312 280.6300048828125 198.90557861328125 280.8868408203125 195.85479736328125 281.1009521484375 C 195.81182861328125 280.8868408203125 195.73663330078125 280.6300048828125 195.62921142578125 280.33026123046875 C 195.54327392578125 280.0091552734375 195.43585205078125 279.7523193359375 195.30694580078125 279.55963134765625 C 198.27178955078125 279.302734375 201.37625122070312 279.02447509765625 204.620361328125 278.7247314453125 C 207.88595581054688 278.4036865234375 211.07635498046875 278.039794921875 214.19158935546875 277.633056640625 C 217.30679321289062 277.226318359375 220.1964111328125 276.7767333984375 222.86044311523438 276.284423828125 C 225.52447509765625 275.79205322265625 227.78033447265625 275.25689697265625 229.62796020507812 274.67889404296875M 223.21493530273438 283.79815673828125 C 223.75204467773438 284.1300048828125 224.28915405273438 284.4617919921875 224.82623291015625 284.7935791015625 C 222.87118530273438 287.126953125 220.6583251953125 289.610107421875 218.1876220703125 292.2431640625 C 215.71694946289062 294.87615966796875 213.20330810546875 297.43426513671875 210.64666748046875 299.91741943359375 C 208.09005737304688 302.400634765625 205.673095703125 304.59478759765625 203.395751953125 306.5 C 202.966064453125 306.168212890625 202.536376953125 305.83642578125 202.10671997070312 305.50457763671875 C 203.760986328125 304.1131591796875 205.533447265625 302.529052734375 207.42404174804688 300.7523193359375 C 209.33615112304688 298.9541015625 211.23748779296875 297.0810546875 213.12811279296875 295.133056640625 C 215.01870727539062 293.16357421875 216.82339477539062 291.20489501953125 218.5421142578125 289.25689697265625 C 220.2823486328125 287.308837890625 221.83993530273438 285.4892578125 223.21493530273438 283.79815673828125M 210.96893310546875 278.82110595703125 C 211.50604248046875 279.1422119140625 212.04315185546875 279.46331787109375 212.58026123046875 279.784423828125 C 211.61346435546875 281.11163330078125 210.51776123046875 282.5030517578125 209.29318237304688 283.958740234375 C 208.09005737304688 285.41436767578125 206.87619018554688 286.837890625 205.651611328125 288.2293701171875 C 204.448486328125 289.599365234375 203.309814453125 290.79815673828125 202.235595703125 291.82568359375 C 201.78445434570312 291.55810546875 201.33328247070312 291.29052734375 200.88211059570312 291.02294921875 C 201.99929809570312 289.95263671875 203.170166015625 288.71099853515625 204.394775390625 287.29815673828125 C 205.640869140625 285.8638916015625 206.833251953125 284.3975830078125 207.97189331054688 282.8990478515625 C 209.13204956054688 281.400634765625 210.13104248046875 280.041259765625 210.96893310546875 278.82110595703125M 223.02157592773438 312.343994140625 C 223.45126342773438 312.0550537109375 223.88095092773438 311.76605224609375 224.31063842773438 311.47705078125 C 225.72857666015625 312.8043212890625 227.11431884765625 314.2706298828125 228.46783447265625 315.87615966796875 C 229.82131958007812 317.460205078125 231.06741333007812 319.02294921875 232.20608520507812 320.564208984375 C 233.3447265625 322.10546875 234.2255859375 323.47552490234375 234.8486328125 324.67431640625 C 234.3974609375 325.006103515625 233.9462890625 325.337890625 233.4951171875 325.66973876953125 C 232.8720703125 324.4281005859375 231.99124145507812 323.0260009765625 230.85256958007812 321.46331787109375 C 229.71392822265625 319.900634765625 228.45709228515625 318.32720947265625 227.08209228515625 316.7431640625 C 225.72857666015625 315.1375732421875 224.37509155273438 313.6712646484375 223.02157592773438 312.343994140625M 221.4102783203125 296.38531494140625 C 221.8292236328125 296.074951171875 222.24813842773438 295.7645263671875 222.66708374023438 295.4541015625 C 224.29989624023438 296.75994873046875 225.94342041015625 298.226318359375 227.59771728515625 299.85321044921875 C 229.25198364257812 301.4801025390625 230.76663208007812 303.08563232421875 232.14163208007812 304.66973876953125 C 233.5380859375 306.2537841796875 234.64453125 307.69879150390625 235.4609375 309.00457763671875 C 235.03125 309.3577880859375 234.6015625 309.71099853515625 234.171875 310.064208984375 C 233.376953125 308.7584228515625 232.29202270507812 307.302734375 230.91702270507812 305.697265625 C 229.54202270507812 304.09173583984375 228.02740478515625 302.47552490234375 226.37310791015625 300.8486328125 C 224.71884155273438 299.2216796875 223.06454467773438 297.73394775390625 221.4102783203125 296.38531494140625M 195.85479736328125 288.3577880859375 C 196.20928955078125 287.993896484375 196.56378173828125 287.6300048828125 196.91827392578125 287.26605224609375 C 198.67999267578125 288.2935791015625 200.46316528320312 289.460205078125 202.267822265625 290.76605224609375 C 204.093994140625 292.0504150390625 205.780517578125 293.35626220703125 207.32736206054688 294.6834716796875 C 208.87423706054688 295.9892578125 210.12030029296875 297.1881103515625 211.06561279296875 298.27978515625 C 210.70037841796875 298.7186279296875 210.33514404296875 299.157470703125 209.96990966796875 299.5963134765625 C 209.02462768554688 298.44036865234375 207.77853393554688 297.19879150390625 206.231689453125 295.87158203125 C 204.684814453125 294.52294921875 203.009033203125 293.1956787109375 201.20437622070312 291.889892578125 C 199.42120361328125 290.56268310546875 197.63800048828125 289.38531494140625 195.85479736328125 288.3577880859375M 193.14779663085938 273.33026123046875 C 193.71713256835938 273.46942138671875 194.28646850585938 273.6085205078125 194.85577392578125 273.7476806640625 C 193.54525756835938 277.27978515625 192.03060913085938 280.715576171875 190.3118896484375 284.0550537109375 C 188.6146240234375 287.373046875 186.75625610351562 290.49847412109375 184.73672485351562 293.43115234375 C 182.73870849609375 296.342529296875 180.67620849609375 298.9541015625 178.54928588867188 301.26605224609375 C 178.46334838867188 301.1375732421875 178.34518432617188 300.97705078125 178.19479370117188 300.784423828125 C 178.04440307617188 300.59173583984375 177.88327026367188 300.4205322265625 177.71139526367188 300.2706298828125 C 177.56100463867188 300.099365234375 177.39987182617188 299.9495849609375 177.22799682617188 299.82110595703125 C 179.37640380859375 297.6590576171875 181.42816162109375 295.17584228515625 183.38323974609375 292.37158203125 C 185.33828735351562 289.5458984375 187.14297485351562 286.506103515625 188.7972412109375 283.2523193359375 C 190.4515380859375 279.99847412109375 191.90170288085938 276.691162109375 193.14779663085938 273.33026123046875M 187.02481079101562 287.94036865234375 C 187.5726318359375 287.3624267578125 188.1204833984375 286.784423828125 188.6683349609375 286.2064208984375 C 188.7113037109375 286.249267578125 188.7542724609375 286.29205322265625 188.7972412109375 286.3348388671875 C 188.7972412109375 300.3455810546875 188.7972412109375 314.35626220703125 188.7972412109375 328.366943359375 C 188.2064208984375 328.366943359375 187.6156005859375 328.366943359375 187.02481079101562 328.366943359375 C 187.02481079101562 314.8914794921875 187.02481079101562 301.4158935546875 187.02481079101562 287.94036865234375M 202.976806640625 311.412841796875 C 203.578369140625 311.60546875 204.179931640625 311.79815673828125 204.781494140625 311.9908447265625 C 203.535400390625 314.2813720703125 201.94558715820312 316.668212890625 200.01199340820312 319.1513671875 C 198.07843017578125 321.634521484375 196.08038330078125 323.7645263671875 194.01791381835938 325.541259765625 C 193.84603881835938 325.3699951171875 193.63119506835938 325.1773681640625 193.37338256835938 324.96331787109375 C 193.13705444335938 324.7706298828125 192.91146850585938 324.58868408203125 192.69662475585938 324.41741943359375 C 194.02865600585938 323.2828369140625 195.34991455078125 321.99847412109375 196.66046142578125 320.564208984375 C 197.99249267578125 319.1085205078125 199.19561767578125 317.58868408203125 200.26980590820312 316.00457763671875 C 201.36550903320312 314.4205322265625 202.267822265625 312.889892578125 202.976806640625 311.412841796875"/>
    <path stroke-width="0" fill="rgb(0, 0, 0)" opacity="1.0" d="M 257.11700439453125 290.70184326171875 C 264.765380859375 290.70184326171875 272.41375732421875 290.70184326171875 280.0621337890625 290.70184326171875 C 280.0621337890625 291.30120849609375 280.0621337890625 291.900634765625 280.0621337890625 292.5 C 272.41375732421875 292.5 264.765380859375 292.5 257.11700439453125 292.5 C 257.11700439453125 291.900634765625 257.11700439453125 291.30120849609375 257.11700439453125 290.70184326171875M 241.51947021484375 324.93115234375 C 259.63067626953125 324.93115234375 277.7418212890625 324.93115234375 295.85302734375 324.93115234375 C 295.85302734375 325.5198974609375 295.85302734375 326.1085205078125 295.85302734375 326.697265625 C 277.7418212890625 326.697265625 259.63067626953125 326.697265625 241.51947021484375 326.697265625 C 241.51947021484375 326.1085205078125 241.51947021484375 325.5198974609375 241.51947021484375 324.93115234375M 245.28994750976562 275.2247314453125 C 251.7459716796875 275.2247314453125 258.20196533203125 275.2247314453125 264.657958984375 275.2247314453125 C 264.657958984375 275.82415771484375 264.657958984375 276.423583984375 264.657958984375 277.02294921875 C 258.20196533203125 277.02294921875 251.7459716796875 277.02294921875 245.28994750976562 277.02294921875 C 245.28994750976562 276.423583984375 245.28994750976562 275.82415771484375 245.28994750976562 275.2247314453125M 264.045654296875 275.2247314453125 C 264.153076171875 275.2247314453125 264.260498046875 275.2247314453125 264.367919921875 275.2247314453125 C 264.507568359375 275.18194580078125 264.647216796875 275.13916015625 264.786865234375 275.0963134765625 C 265.184326171875 275.331787109375 265.581787109375 275.5672607421875 265.979248046875 275.802734375 C 264.819091796875 278.6712646484375 263.304443359375 281.3685302734375 261.4353332519531 283.89453125 C 259.5876770019531 286.4205322265625 257.52520751953125 288.732421875 255.24786376953125 290.83026123046875 C 252.99203491210938 292.9281005859375 250.6395263671875 294.76910400390625 248.1903076171875 296.35321044921875 C 245.76260375976562 297.93731689453125 243.39935302734375 299.2645263671875 241.10052490234375 300.3348388671875 C 240.97161865234375 300.12078857421875 240.78900146484375 299.8638916015625 240.55267333984375 299.564208984375 C 240.33782958984375 299.2431640625 240.12301635742188 299.0076904296875 239.90814208984375 298.8577880859375 C 242.18548583984375 297.89453125 244.50579833984375 296.6422119140625 246.86904907226562 295.1009521484375 C 249.2537841796875 293.55963134765625 251.5418701171875 291.7828369140625 253.73324584960938 289.7706298828125 C 255.94610595703125 287.7584228515625 257.94415283203125 285.574951171875 259.72735595703125 283.22021484375 C 261.5320129394531 280.865478515625 262.971435546875 278.37158203125 264.045654296875 275.738525390625 C 264.045654296875 275.5672607421875 264.045654296875 275.39599609375 264.045654296875 275.2247314453125M 270.84539794921875 272.8807373046875 C 272.58563232421875 276.49847412109375 274.82000732421875 279.97705078125 277.5484619140625 283.3165283203125 C 280.2984619140625 286.634521484375 283.3384704589844 289.58868408203125 286.66851806640625 292.17889404296875 C 290.02008056640625 294.76910400390625 293.46826171875 296.7706298828125 297.01318359375 298.1834716796875 C 296.86279296875 298.29052734375 296.70166015625 298.4296875 296.52978515625 298.6009521484375 C 296.35791015625 298.77215576171875 296.19677734375 298.9541015625 296.04638671875 299.14678955078125 C 295.91748046875 299.31805419921875 295.78857421875 299.4892578125 295.65966796875 299.6605224609375 C 292.1577453613281 298.097900390625 288.73101806640625 295.9786376953125 285.37945556640625 293.302734375 C 282.0494384765625 290.626953125 278.9986572265625 287.597900390625 276.2272033691406 284.215576171875 C 273.47723388671875 280.8118896484375 271.18914794921875 277.2476806640625 269.3630065917969 273.52294921875 C 269.8571472167969 273.308837890625 270.35125732421875 273.09478759765625 270.84539794921875 272.8807373046875M 244.93548583984375 281.58258056640625 C 245.27923583984375 281.2293701171875 245.62295532226562 280.87615966796875 245.96670532226562 280.52294921875 C 247.2557373046875 281.2293701171875 248.5340576171875 282.0428466796875 249.8016357421875 282.96331787109375 C 251.0906982421875 283.8837890625 252.2830810546875 284.83642578125 253.37875366210938 285.82110595703125 C 254.47445678710938 286.784423828125 255.32305908203125 287.6942138671875 255.92462158203125 288.55047607421875 C 255.60235595703125 288.935791015625 255.28009033203125 289.32110595703125 254.95782470703125 289.7064208984375 C 253.92660522460938 288.4862060546875 252.46566772460938 287.10546875 250.5750732421875 285.564208984375 C 248.7059326171875 284.02294921875 246.8260498046875 282.6956787109375 244.93548583984375 281.58258056640625M 286.12066650390625 273.26605224609375 C 286.63629150390625 273.6085205078125 287.15191650390625 273.9510498046875 287.66754150390625 274.2935791015625 C 286.14215087890625 275.85626220703125 284.3589782714844 277.4617919921875 282.3179931640625 279.110107421875 C 280.2769775390625 280.7584228515625 278.4185791015625 282.18194580078125 276.7428283691406 283.3807373046875 C 276.3238830566406 283.0489501953125 275.9049377441406 282.7171630859375 275.4859924316406 282.38531494140625 C 276.6031494140625 281.5718994140625 277.8170166015625 280.6300048828125 279.1275634765625 279.55963134765625 C 280.4595947265625 278.4892578125 281.7379150390625 277.3975830078125 282.9624938964844 276.284423828125 C 284.20855712890625 275.1712646484375 285.2613220214844 274.1651611328125 286.12066650390625 273.26605224609375M 293.04931640625 280.587158203125 C 293.55419921875 280.9617919921875 294.05908203125 281.33642578125 294.56396484375 281.71099853515625 C 293.03857421875 283.23089599609375 291.2339172363281 284.7935791015625 289.14996337890625 286.3990478515625 C 287.06597900390625 288.00457763671875 285.1324157714844 289.3638916015625 283.3492126464844 290.47705078125 C 282.9410400390625 290.145263671875 282.5328063964844 289.8134765625 282.1246337890625 289.481689453125 C 283.2633056640625 288.6895751953125 284.5093688964844 287.77978515625 285.86285400390625 286.7523193359375 C 287.23785400390625 285.7247314453125 288.55914306640625 284.67584228515625 289.82672119140625 283.60546875 C 291.1157531738281 282.5137939453125 292.1899719238281 281.50762939453125 293.04931640625 280.587158203125M 254.28109741210938 300.8807373046875 C 254.28109741210938 304.47705078125 254.28109741210938 308.0733642578125 254.28109741210938 311.66973876953125 C 263.927490234375 311.66973876953125 273.57391357421875 311.66973876953125 283.2203063964844 311.66973876953125 C 283.2203063964844 308.0733642578125 283.2203063964844 304.47705078125 283.2203063964844 300.8807373046875 C 273.57391357421875 300.8807373046875 263.927490234375 300.8807373046875 254.28109741210938 300.8807373046875M 252.4119873046875 299.08258056640625 C 263.304443359375 299.08258056640625 274.19696044921875 299.08258056640625 285.08941650390625 299.08258056640625 C 285.08941650390625 303.877685546875 285.08941650390625 308.67279052734375 285.08941650390625 313.4678955078125 C 274.19696044921875 313.4678955078125 263.304443359375 313.4678955078125 252.4119873046875 313.4678955078125 C 252.4119873046875 308.67279052734375 252.4119873046875 303.877685546875 252.4119873046875 299.08258056640625M 255.98907470703125 314.62384033203125 C 256.54766845703125 314.44189453125 257.10626220703125 314.25994873046875 257.66485595703125 314.0780029296875 C 258.61016845703125 315.597900390625 259.49102783203125 317.28900146484375 260.3074035644531 319.1513671875 C 261.1452941894531 320.9923095703125 261.746826171875 322.587158203125 262.112060546875 323.935791015625 C 261.5427551269531 324.1605224609375 260.9734191894531 324.38531494140625 260.4040832519531 324.610107421875 C 260.01739501953125 323.261474609375 259.42657470703125 321.645263671875 258.63165283203125 319.761474609375 C 257.83673095703125 317.85626220703125 256.95587158203125 316.14373779296875 255.98907470703125 314.62384033203125M 279.9332275390625 313.7568359375 C 280.5347900390625 314.0458984375 281.1363525390625 314.3348388671875 281.7379150390625 314.62384033203125 C 280.8355712890625 316.400634765625 279.8687744140625 318.22021484375 278.8375244140625 320.08258056640625 C 277.8062744140625 321.9449462890625 276.8180236816406 323.58258056640625 275.8727111816406 324.99542236328125 C 275.3785705566406 324.727783203125 274.88446044921875 324.460205078125 274.39031982421875 324.192626953125 C 275.03485107421875 323.2935791015625 275.7115783691406 322.2232666015625 276.4205627441406 320.981689453125 C 277.1295166015625 319.74005126953125 277.7847900390625 318.48779296875 278.3863525390625 317.2247314453125 C 279.0093994140625 315.94036865234375 279.5250244140625 314.784423828125 279.9332275390625 313.7568359375"/>
    <path stroke-width="0" fill="rgb(0, 0, 0)" opacity="1.0" d="M 308.2923583984375 291.56884765625 C 313.9642028808594 291.56884765625 319.63604736328125 291.56884765625 325.307861328125 291.56884765625 C 325.307861328125 292.168212890625 325.307861328125 292.767578125 325.307861328125 293.366943359375 C 319.63604736328125 293.366943359375 313.9642028808594 293.366943359375 308.2923583984375 293.366943359375 C 308.2923583984375 292.767578125 308.2923583984375 292.168212890625 308.2923583984375 291.56884765625M 308.0989990234375 312.1513671875 C 313.8567810058594 312.1513671875 319.61456298828125 312.1513671875 325.372314453125 312.1513671875 C 325.372314453125 312.750732421875 325.372314453125 313.35015869140625 325.372314453125 313.9495849609375 C 319.61456298828125 313.9495849609375 313.8567810058594 313.9495849609375 308.0989990234375 313.9495849609375 C 308.0989990234375 313.35015869140625 308.0989990234375 312.750732421875 308.0989990234375 312.1513671875M 308.0989990234375 301.6192626953125 C 313.8567810058594 301.6192626953125 319.61456298828125 301.6192626953125 325.372314453125 301.6192626953125 C 325.372314453125 302.24005126953125 325.372314453125 302.86083984375 325.372314453125 303.481689453125 C 319.61456298828125 303.481689453125 313.8567810058594 303.481689453125 308.0989990234375 303.481689453125 C 308.0989990234375 302.86083984375 308.0989990234375 302.24005126953125 308.0989990234375 301.6192626953125M 324.308837890625 291.56884765625 C 324.910400390625 291.56884765625 325.511962890625 291.56884765625 326.113525390625 291.56884765625 C 326.113525390625 302.6895751953125 326.113525390625 313.8104248046875 326.113525390625 324.93115234375 C 326.113525390625 325.6162109375 325.995361328125 326.14068603515625 325.759033203125 326.50457763671875 C 325.544189453125 326.889892578125 325.146728515625 327.168212890625 324.566650390625 327.3394775390625 C 323.986572265625 327.4892578125 323.084228515625 327.58563232421875 321.8596496582031 327.62841796875 C 320.6565246582031 327.6712646484375 319.02374267578125 327.692626953125 316.96124267578125 327.692626953125 C 316.91827392578125 327.4571533203125 316.81085205078125 327.168212890625 316.63897705078125 326.82568359375 C 316.46710205078125 326.50457763671875 316.30596923828125 326.215576171875 316.15557861328125 325.958740234375 C 317.87432861328125 326.00152587890625 319.36749267578125 326.02294921875 320.6350402832031 326.02294921875 C 321.9241027832031 326.02294921875 322.783447265625 326.00152587890625 323.213134765625 325.958740234375 C 323.621337890625 325.93731689453125 323.900634765625 325.8516845703125 324.051025390625 325.70184326171875 C 324.222900390625 325.552001953125 324.308837890625 325.29510498046875 324.308837890625 324.93115234375 C 324.308837890625 313.8104248046875 324.308837890625 302.6895751953125 324.308837890625 291.56884765625M 307.4222412109375 291.56884765625 C 308.0238037109375 291.56884765625 308.6253662109375 291.56884765625 309.2269287109375 291.56884765625 C 309.2269287109375 295.925048828125 309.2269287109375 300.2813720703125 309.2269287109375 304.6375732421875 C 309.2269287109375 306.41436767578125 309.1517333984375 308.319580078125 309.0013427734375 310.35321044921875 C 308.8509521484375 312.3868408203125 308.5716552734375 314.46331787109375 308.1634521484375 316.58258056640625 C 307.7552795410156 318.70184326171875 307.1752014160156 320.7783203125 306.4232482910156 322.8118896484375 C 305.69281005859375 324.8455810546875 304.70452880859375 326.74005126953125 303.45843505859375 328.49542236328125 C 303.37249755859375 328.32415771484375 303.23284912109375 328.16357421875 303.03948974609375 328.0137939453125 C 302.86761474609375 327.88531494140625 302.69573974609375 327.7462158203125 302.52386474609375 327.5963134765625 C 302.37347412109375 327.4678955078125 302.21234130859375 327.36083984375 302.04046630859375 327.2752685546875 C 303.65179443359375 325.0489501953125 304.8334045410156 322.6085205078125 305.5853576660156 319.9541015625 C 306.3587951660156 317.2996826171875 306.8529357910156 314.656005859375 307.0677795410156 312.02294921875 C 307.3041076660156 309.3685302734375 307.4222412109375 306.90673828125 307.4222412109375 304.6375732421875 C 307.4222412109375 300.2813720703125 307.4222412109375 295.925048828125 307.4222412109375 291.56884765625M 335.45916748046875 291.56884765625 C 341.3995361328125 291.56884765625 347.33990478515625 291.56884765625 353.2802734375 291.56884765625 C 353.2802734375 292.168212890625 353.2802734375 292.767578125 353.2802734375 293.366943359375 C 347.33990478515625 293.366943359375 341.3995361328125 293.366943359375 335.45916748046875 293.366943359375 C 335.45916748046875 292.767578125 335.45916748046875 292.168212890625 335.45916748046875 291.56884765625M 335.26580810546875 312.40826416015625 C 341.2921142578125 312.40826416015625 347.31842041015625 312.40826416015625 353.3447265625 312.40826416015625 C 353.3447265625 313.00762939453125 353.3447265625 313.6070556640625 353.3447265625 314.2064208984375 C 347.31842041015625 314.2064208984375 341.2921142578125 314.2064208984375 335.26580810546875 314.2064208984375 C 335.26580810546875 313.6070556640625 335.26580810546875 313.00762939453125 335.26580810546875 312.40826416015625M 335.26580810546875 301.6192626953125 C 341.2921142578125 301.6192626953125 347.31842041015625 301.6192626953125 353.3447265625 301.6192626953125 C 353.3447265625 302.24005126953125 353.3447265625 302.86083984375 353.3447265625 303.481689453125 C 347.31842041015625 303.481689453125 341.2921142578125 303.481689453125 335.26580810546875 303.481689453125 C 335.26580810546875 302.86083984375 335.26580810546875 302.24005126953125 335.26580810546875 301.6192626953125M 352.5390625 291.56884765625 C 353.1298828125 291.56884765625 353.720703125 291.56884765625 354.3115234375 291.56884765625 C 354.3115234375 302.732421875 354.3115234375 313.89599609375 354.3115234375 325.05963134765625 C 354.3115234375 325.83026123046875 354.1826171875 326.3975830078125 353.9248046875 326.761474609375 C 353.6884765625 327.14678955078125 353.2802734375 327.435791015625 352.7001953125 327.62841796875 C 352.0986328125 327.7996826171875 351.16412353515625 327.89599609375 349.89654541015625 327.91741943359375 C 348.62896728515625 327.9388427734375 346.86724853515625 327.9495849609375 344.6114501953125 327.9495849609375 C 344.5255126953125 327.692626953125 344.4180908203125 327.4036865234375 344.2891845703125 327.08258056640625 C 344.1602783203125 326.761474609375 344.0206298828125 326.47247314453125 343.8702392578125 326.215576171875 C 345.67486572265625 326.2584228515625 347.25396728515625 326.27978515625 348.60748291015625 326.27978515625 C 349.98248291015625 326.27978515625 350.87408447265625 326.2584228515625 351.2822265625 326.215576171875 C 351.7333984375 326.17279052734375 352.0556640625 326.076416015625 352.2490234375 325.9266357421875 C 352.4423828125 325.79815673828125 352.5390625 325.53057861328125 352.5390625 325.12384033203125 C 352.5390625 313.9388427734375 352.5390625 302.7537841796875 352.5390625 291.56884765625M 334.33123779296875 291.56884765625 C 334.9327392578125 291.56884765625 335.53436279296875 291.56884765625 336.1358642578125 291.56884765625 C 336.1358642578125 296.599365234375 336.1358642578125 301.6300048828125 336.1358642578125 306.6605224609375 C 336.1358642578125 308.308837890625 336.0606689453125 310.08563232421875 335.9102783203125 311.9908447265625 C 335.75994873046875 313.8746337890625 335.4805908203125 315.77978515625 335.07244873046875 317.7064208984375 C 334.66424560546875 319.633056640625 334.05194091796875 321.52752685546875 333.23553466796875 323.389892578125 C 332.44061279296875 325.23089599609375 331.40936279296875 326.9327392578125 330.14178466796875 328.49542236328125 C 330.055908203125 328.32415771484375 329.91619873046875 328.16357421875 329.722900390625 328.0137939453125 C 329.529541015625 327.88531494140625 329.346923828125 327.7462158203125 329.175048828125 327.5963134765625 C 329.024658203125 327.4678955078125 328.885009765625 327.36083984375 328.756103515625 327.2752685546875 C 330.410400390625 325.3057861328125 331.62420654296875 323.122314453125 332.39764404296875 320.7247314453125 C 333.19256591796875 318.3057861328125 333.70819091796875 315.8868408203125 333.94451904296875 313.4678955078125 C 334.20233154296875 311.02752685546875 334.33123779296875 308.7584228515625 334.33123779296875 306.6605224609375 C 334.33123779296875 301.6300048828125 334.33123779296875 296.599365234375 334.33123779296875 291.56884765625M 307.2933349609375 275.064208984375 C 307.8948974609375 275.064208984375 308.4964599609375 275.064208984375 309.0980224609375 275.064208984375 C 309.0980224609375 278.17889404296875 309.0980224609375 281.2935791015625 309.0980224609375 284.40826416015625 C 323.556884765625 284.40826416015625 338.0157470703125 284.40826416015625 352.474609375 284.40826416015625 C 352.474609375 281.2935791015625 352.474609375 278.17889404296875 352.474609375 275.064208984375 C 353.0654296875 275.064208984375 353.65625 275.064208984375 354.2470703125 275.064208984375 C 354.2470703125 278.7783203125 354.2470703125 282.49237060546875 354.2470703125 286.2064208984375 C 338.5958251953125 286.2064208984375 322.944580078125 286.2064208984375 307.2933349609375 286.2064208984375 C 307.2933349609375 282.49237060546875 307.2933349609375 278.7783203125 307.2933349609375 275.064208984375M 329.561767578125 272.7523193359375 C 330.184814453125 272.7523193359375 330.80780029296875 272.7523193359375 331.43084716796875 272.7523193359375 C 331.43084716796875 276.8516845703125 331.43084716796875 280.9510498046875 331.43084716796875 285.05047607421875 C 330.80780029296875 285.05047607421875 330.184814453125 285.05047607421875 329.561767578125 285.05047607421875 C 329.561767578125 280.9510498046875 329.561767578125 276.8516845703125 329.561767578125 272.7523193359375"/>
    <path stroke-width="0" fill="rgb(0, 0, 0)" opacity="1.0" d="M 384.314208984375 313.692626953125 C 396.3453369140625 313.692626953125 408.37652587890625 313.692626953125 420.40771484375 313.692626953125 C 420.40771484375 314.3134765625 420.40771484375 314.93426513671875 420.40771484375 315.5550537109375 C 408.37652587890625 315.5550537109375 396.3453369140625 315.5550537109375 384.314208984375 315.5550537109375 C 384.314208984375 314.93426513671875 384.314208984375 314.3134765625 384.314208984375 313.692626953125M 403.3922119140625 292.91741943359375 C 408.77398681640625 292.91741943359375 414.15576171875 292.91741943359375 419.53759765625 292.91741943359375 C 419.53759765625 293.5382080078125 419.53759765625 294.1590576171875 419.53759765625 294.77978515625 C 414.15576171875 294.77978515625 408.77398681640625 294.77978515625 403.3922119140625 294.77978515625 C 403.3922119140625 294.1590576171875 403.3922119140625 293.5382080078125 403.3922119140625 292.91741943359375M 402.3931884765625 277.44036865234375 C 402.9947509765625 277.44036865234375 403.5963134765625 277.44036865234375 404.1978759765625 277.44036865234375 C 404.1978759765625 289.7706298828125 404.1978759765625 302.1009521484375 404.1978759765625 314.43115234375 C 403.5963134765625 314.43115234375 402.9947509765625 314.43115234375 402.3931884765625 314.43115234375 C 402.3931884765625 302.1009521484375 402.3931884765625 289.7706298828125 402.3931884765625 277.44036865234375M 390.211669921875 288.87158203125 C 390.813232421875 288.87158203125 391.41473388671875 288.87158203125 392.01629638671875 288.87158203125 C 392.01629638671875 297.49847412109375 392.01629638671875 306.1253662109375 392.01629638671875 314.7523193359375 C 391.41473388671875 314.7523193359375 390.813232421875 314.7523193359375 390.211669921875 314.7523193359375 C 390.211669921875 306.1253662109375 390.211669921875 297.49847412109375 390.211669921875 288.87158203125M 415.96044921875 273.1375732421875 C 416.52978515625 273.587158203125 417.09912109375 274.03668212890625 417.66845703125 274.4862060546875 C 415.90673828125 275.14984130859375 413.81201171875 275.7706298828125 411.38427734375 276.3486328125 C 408.97802734375 276.9266357421875 406.39996337890625 277.4510498046875 403.6500244140625 277.9219970703125 C 400.9215087890625 278.3929443359375 398.1285400390625 278.8104248046875 395.2711181640625 279.17431640625 C 392.43524169921875 279.5382080078125 389.696044921875 279.8486328125 387.053466796875 280.10546875 C 387.010498046875 279.8914794921875 386.924560546875 279.645263671875 386.795654296875 279.366943359375 C 386.688232421875 279.0672607421875 386.570068359375 278.7996826171875 386.441162109375 278.564208984375 C 389.040771484375 278.28594970703125 391.73699951171875 277.96484375 394.52996826171875 277.6009521484375 C 397.3443603515625 277.215576171875 400.0836181640625 276.79815673828125 402.7476806640625 276.3486328125 C 405.43316650390625 275.8990478515625 407.91461181640625 275.40673828125 410.19189453125 274.87158203125 C 412.46923828125 274.33642578125 414.39208984375 273.7584228515625 415.96044921875 273.1375732421875M 364.52728271484375 277.215576171875 C 369.6405029296875 277.215576171875 374.7537841796875 277.215576171875 379.86700439453125 277.215576171875 C 379.86700439453125 277.82568359375 379.86700439453125 278.435791015625 379.86700439453125 279.0458984375 C 374.7537841796875 279.0458984375 369.6405029296875 279.0458984375 364.52728271484375 279.0458984375 C 364.52728271484375 278.435791015625 364.52728271484375 277.82568359375 364.52728271484375 277.215576171875M 379.06134033203125 277.215576171875 C 379.19024658203125 277.215576171875 379.31915283203125 277.215576171875 379.44805908203125 277.215576171875 C 379.56622314453125 277.1513671875 379.684326171875 277.087158203125 379.80255126953125 277.02294921875 C 380.264404296875 277.226318359375 380.72637939453125 277.4296875 381.188232421875 277.633056640625 C 380.11407470703125 279.516845703125 378.814208984375 281.7645263671875 377.28887939453125 284.37615966796875 C 375.76348876953125 286.98779296875 374.1844482421875 289.66357421875 372.5516357421875 292.4036865234375 C 370.9188232421875 295.14373779296875 369.3397216796875 297.70184326171875 367.8143310546875 300.0780029296875 C 367.2557373046875 299.8746337890625 366.6971435546875 299.6712646484375 366.1385498046875 299.4678955078125 C 367.2557373046875 297.73394775390625 368.4158935546875 295.86083984375 369.6190185546875 293.8486328125 C 370.8436279296875 291.83642578125 372.0467529296875 289.8134765625 373.2283935546875 287.77978515625 C 374.4100341796875 285.7462158203125 375.50567626953125 283.8516845703125 376.51544189453125 282.0963134765625 C 377.52520751953125 280.319580078125 378.37384033203125 278.8104248046875 379.06134033203125 277.56884765625 C 379.06134033203125 277.4510498046875 379.06134033203125 277.3333740234375 379.06134033203125 277.215576171875M 369.5545654296875 294.90826416015625 C 373.8192138671875 294.90826416015625 378.08380126953125 294.90826416015625 382.348388671875 294.90826416015625 C 382.348388671875 295.518310546875 382.348388671875 296.12841796875 382.348388671875 296.738525390625 C 377.77227783203125 296.738525390625 373.1961669921875 296.738525390625 368.6199951171875 296.738525390625 C 368.9315185546875 296.12841796875 369.2430419921875 295.518310546875 369.5545654296875 294.90826416015625M 381.671630859375 294.90826416015625 C 381.789794921875 294.90826416015625 381.907958984375 294.90826416015625 382.026123046875 294.90826416015625 C 382.176513671875 294.8868408203125 382.326904296875 294.865478515625 382.477294921875 294.843994140625 C 382.842529296875 294.983154296875 383.207763671875 295.122314453125 383.572998046875 295.261474609375 C 382.348388671875 303.93115234375 380.167724609375 310.95263671875 377.03106689453125 316.32568359375 C 373.8944091796875 321.69879150390625 370.1239013671875 325.7767333984375 365.71966552734375 328.55963134765625 C 365.63372802734375 328.38836669921875 365.49407958984375 328.2064208984375 365.30072021484375 328.0137939453125 C 365.10736083984375 327.842529296875 364.92474365234375 327.6712646484375 364.75286865234375 327.5 C 364.60247802734375 327.35015869140625 364.44134521484375 327.232421875 364.26947021484375 327.14678955078125 C 368.6092529296875 324.5137939453125 372.3045654296875 320.61773681640625 375.3553466796875 315.458740234375 C 378.40606689453125 310.2996826171875 380.511474609375 303.6314697265625 381.671630859375 295.4541015625 C 381.671630859375 295.27215576171875 381.671630859375 295.0902099609375 381.671630859375 294.90826416015625M 369.6512451171875 303.1605224609375 C 370.9832763671875 307.72021484375 372.7449951171875 311.423583984375 374.9364013671875 314.2706298828125 C 377.14923095703125 317.0963134765625 379.73809814453125 319.27978515625 382.702880859375 320.82110595703125 C 385.689208984375 322.3624267578125 389.008544921875 323.41131591796875 392.66082763671875 323.9678955078125 C 396.3131103515625 324.52447509765625 400.2340087890625 324.802734375 404.4234619140625 324.802734375 C 404.7242431640625 324.802734375 405.40093994140625 324.802734375 406.45367431640625 324.802734375 C 407.5064697265625 324.802734375 408.75250244140625 324.802734375 410.19189453125 324.802734375 C 411.63134765625 324.802734375 413.07080078125 324.802734375 414.51025390625 324.802734375 C 415.97119140625 324.802734375 417.26025390625 324.802734375 418.37744140625 324.802734375 C 419.51611328125 324.802734375 420.28948974609375 324.802734375 420.69775390625 324.802734375 C 420.59033203125 324.93115234375 420.47216796875 325.1024169921875 420.34326171875 325.3165283203125 C 420.21435546875 325.552001953125 420.09613037109375 325.7767333984375 419.98876953125 325.9908447265625 C 419.90283203125 326.226318359375 419.83837890625 326.4296875 419.79541015625 326.6009521484375 C 418.78564453125 326.6009521484375 417.77587890625 326.6009521484375 416.76611328125 326.6009521484375 C 412.65185546875 326.6009521484375 408.53765869140625 326.6009521484375 404.4234619140625 326.6009521484375 C 399.9332275390625 326.6009521484375 395.7867431640625 326.30120849609375 391.98406982421875 325.70184326171875 C 388.202880859375 325.1024169921875 384.786865234375 323.9892578125 381.736083984375 322.3624267578125 C 378.685302734375 320.7354736328125 376.0106201171875 318.43426513671875 373.7117919921875 315.458740234375 C 371.4344482421875 312.483154296875 369.5653076171875 308.6300048828125 368.1043701171875 303.8990478515625 C 368.6199951171875 303.65289306640625 369.1356201171875 303.40673828125 369.6512451171875 303.1605224609375"/>
    <path stroke-width="0" fill="rgb(0, 0, 0)" opacity="1.0" d="M 460.9161376953125 276.156005859375 C 467.0284423828125 276.156005859375 473.140625 276.156005859375 479.2529296875 276.156005859375 C 479.2529296875 276.75537109375 479.2529296875 277.354736328125 479.2529296875 277.9541015625 C 473.140625 277.9541015625 467.0284423828125 277.9541015625 460.9161376953125 277.9541015625 C 460.9161376953125 277.354736328125 460.9161376953125 276.75537109375 460.9161376953125 276.156005859375M 460.9161376953125 290.5091552734375 C 467.0284423828125 290.5091552734375 473.140625 290.5091552734375 479.2529296875 290.5091552734375 C 479.2529296875 291.1085205078125 479.2529296875 291.70794677734375 479.2529296875 292.307373046875 C 473.140625 292.307373046875 467.0284423828125 292.307373046875 460.9161376953125 292.307373046875 C 460.9161376953125 291.70794677734375 460.9161376953125 291.1085205078125 460.9161376953125 290.5091552734375M 460.8194580078125 305.1834716796875 C 467.0284423828125 305.1834716796875 473.2373046875 305.1834716796875 479.4462890625 305.1834716796875 C 479.4462890625 305.7828369140625 479.4462890625 306.38226318359375 479.4462890625 306.981689453125 C 473.2373046875 306.981689453125 467.0284423828125 306.981689453125 460.8194580078125 306.981689453125 C 460.8194580078125 306.38226318359375 460.8194580078125 305.7828369140625 460.8194580078125 305.1834716796875M 478.318359375 276.156005859375 C 478.919921875 276.156005859375 479.521484375 276.156005859375 480.123046875 276.156005859375 C 480.123046875 292.3287353515625 480.123046875 308.50152587890625 480.123046875 324.67431640625 C 480.123046875 325.53057861328125 479.9833984375 326.17279052734375 479.7041015625 326.6009521484375 C 479.4462890625 327.0504150390625 478.962890625 327.37158203125 478.25390625 327.564208984375 C 477.587890625 327.7354736328125 476.5673828125 327.842529296875 475.1923828125 327.88531494140625 C 473.8173828125 327.9281005859375 472.0126953125 327.9495849609375 469.77838134765625 327.9495849609375 C 469.73541259765625 327.64984130859375 469.6279296875 327.31805419921875 469.45611572265625 326.9541015625 C 469.3056640625 326.5902099609375 469.14453125 326.2584228515625 468.97271728515625 325.958740234375 C 470.90625 326.00152587890625 472.6142578125 326.02294921875 474.0966796875 326.02294921875 C 475.6005859375 326.02294921875 476.599609375 326.00152587890625 477.09375 325.958740234375 C 477.544921875 325.93731689453125 477.8564453125 325.8409423828125 478.0283203125 325.66973876953125 C 478.2216796875 325.49847412109375 478.318359375 325.1666259765625 478.318359375 324.67431640625 C 478.318359375 308.50152587890625 478.318359375 292.3287353515625 478.318359375 276.156005859375M 460.1104736328125 276.156005859375 C 460.7120361328125 276.156005859375 461.3135986328125 276.156005859375 461.9151611328125 276.156005859375 C 461.9151611328125 283.53057861328125 461.9151611328125 290.90521240234375 461.9151611328125 298.27978515625 C 461.9151611328125 300.59173583984375 461.8399658203125 303.064208984375 461.6895751953125 305.697265625 C 461.5606689453125 308.33026123046875 461.2706298828125 311.006103515625 460.8194580078125 313.7247314453125 C 460.3897705078125 316.4219970703125 459.7452392578125 319.0550537109375 458.8858642578125 321.62384033203125 C 458.0264892578125 324.192626953125 456.8555908203125 326.56884765625 455.3731689453125 328.7523193359375 C 455.2872314453125 328.62384033203125 455.14764404296875 328.4847412109375 454.95428466796875 328.3348388671875 C 454.78240966796875 328.2064208984375 454.58905029296875 328.0672607421875 454.37420654296875 327.91741943359375 C 454.1593017578125 327.767578125 453.97674560546875 327.6712646484375 453.82635498046875 327.62841796875 C 455.7598876953125 324.75994873046875 457.1671142578125 321.634521484375 458.0479736328125 318.2523193359375 C 458.9288330078125 314.8486328125 459.4874267578125 311.423583984375 459.7237548828125 307.97705078125 C 459.9815673828125 304.53057861328125 460.1104736328125 301.29815673828125 460.1104736328125 298.27978515625 C 460.1104736328125 290.90521240234375 460.1104736328125 283.53057861328125 460.1104736328125 276.156005859375M 427.2073974609375 281.9678955078125 C 436.8646240234375 281.9678955078125 446.521728515625 281.9678955078125 456.1788330078125 281.9678955078125 C 456.1788330078125 282.55657958984375 456.1788330078125 283.145263671875 456.1788330078125 283.73394775390625 C 446.521728515625 283.73394775390625 436.8646240234375 283.73394775390625 427.2073974609375 283.73394775390625 C 427.2073974609375 283.145263671875 427.2073974609375 282.55657958984375 427.2073974609375 281.9678955078125M 433.6527099609375 291.087158203125 C 439.19561767578125 291.087158203125 444.738525390625 291.087158203125 450.281494140625 291.087158203125 C 450.281494140625 291.67584228515625 450.281494140625 292.2645263671875 450.281494140625 292.85321044921875 C 444.738525390625 292.85321044921875 439.19561767578125 292.85321044921875 433.6527099609375 292.85321044921875 C 433.6527099609375 292.2645263671875 433.6527099609375 291.67584228515625 433.6527099609375 291.087158203125M 433.7171630859375 301.0091552734375 C 439.26007080078125 301.0091552734375 444.802978515625 301.0091552734375 450.345947265625 301.0091552734375 C 450.345947265625 301.6192626953125 450.345947265625 302.2293701171875 450.345947265625 302.8394775390625 C 444.802978515625 302.8394775390625 439.26007080078125 302.8394775390625 433.7171630859375 302.8394775390625 C 433.7171630859375 302.2293701171875 433.7171630859375 301.6192626953125 433.7171630859375 301.0091552734375M 426.2728271484375 311.1881103515625 C 436.3812255859375 311.1881103515625 446.489501953125 311.1881103515625 456.5977783203125 311.1881103515625 C 456.5977783203125 311.7767333984375 456.5977783203125 312.365478515625 456.5977783203125 312.9541015625 C 446.489501953125 312.9541015625 436.3812255859375 312.9541015625 426.2728271484375 312.9541015625 C 426.2728271484375 312.365478515625 426.2728271484375 311.7767333984375 426.2728271484375 311.1881103515625M 432.8470458984375 273.5550537109375 C 433.4378662109375 273.5550537109375 434.0286865234375 273.5550537109375 434.6195068359375 273.5550537109375 C 434.6195068359375 286.4205322265625 434.6195068359375 299.285888671875 434.6195068359375 312.1513671875 C 434.0286865234375 312.1513671875 433.4378662109375 312.1513671875 432.8470458984375 312.1513671875 C 432.8470458984375 299.285888671875 432.8470458984375 286.4205322265625 432.8470458984375 273.5550537109375M 449.411376953125 273.5550537109375 C 450.012939453125 273.5550537109375 450.61444091796875 273.5550537109375 451.216064453125 273.5550537109375 C 451.216064453125 286.4205322265625 451.216064453125 299.285888671875 451.216064453125 312.1513671875 C 450.61444091796875 312.1513671875 450.012939453125 312.1513671875 449.411376953125 312.1513671875 C 449.411376953125 299.285888671875 449.411376953125 286.4205322265625 449.411376953125 273.5550537109375M 435.8118896484375 315.16973876953125 C 436.43487548828125 315.319580078125 437.0579833984375 315.46942138671875 437.68096923828125 315.6192626953125 C 436.56378173828125 317.99542236328125 435.17803955078125 320.307373046875 433.5238037109375 322.5550537109375 C 431.8695068359375 324.802734375 430.1937255859375 326.697265625 428.4964599609375 328.238525390625 C 428.4320068359375 328.17431640625 428.2923583984375 328.0672607421875 428.0775146484375 327.91741943359375 C 427.8626708984375 327.767578125 427.6478271484375 327.61773681640625 427.4329833984375 327.4678955078125 C 427.2396240234375 327.3394775390625 427.0570068359375 327.232421875 426.8851318359375 327.14678955078125 C 428.7113037109375 325.626953125 430.4085693359375 323.81805419921875 431.9769287109375 321.72021484375 C 433.5452880859375 319.622314453125 434.8236083984375 317.4388427734375 435.8118896484375 315.16973876953125M 444.416259765625 316.2293701171875 C 444.931884765625 315.983154296875 445.447509765625 315.73699951171875 445.963134765625 315.4908447265625 C 446.779541015625 316.4327392578125 447.574462890625 317.470947265625 448.347900390625 318.60546875 C 449.142822265625 319.74005126953125 449.873291015625 320.842529296875 450.539306640625 321.912841796875 C 451.205322265625 322.983154296875 451.720947265625 323.94647216796875 452.08612060546875 324.802734375 C 451.54901123046875 325.1131591796875 451.011962890625 325.423583984375 450.474853515625 325.73394775390625 C 450.152587890625 324.85626220703125 449.658447265625 323.88226318359375 448.992431640625 322.8118896484375 C 448.326416015625 321.72021484375 447.585205078125 320.58563232421875 446.768798828125 319.40826416015625 C 445.973876953125 318.23089599609375 445.189697265625 317.1712646484375 444.416259765625 316.2293701171875"/>
  </g>
</svg>
