<?xml version="1.0" encoding="utf-8"?>
<svg xmlns="http://www.w3.org/2000/svg" xmlns:ev="http://www.w3.org/2001/xml-events" xmlns:xlink="http://www.w3.org/1999/xlink" version="1.1" baseProfile="full" width="9076.7" height="1737.0" viewBox="439.3 -1601.0 9076.7 1737.0">
<defs/>
<g><path d="M 8529.000000 -1494.000000 C 8831.666667 -1494.000000 9134.333333 -1494.000000 9437.000000 -1494.000000 C 9437.000000 -1475.333333 9437.000000 -1456.666667 9437.000000 -1438.000000 C 9134.333333 -1438.000000 8831.666667 -1438.000000 8529.000000 -1438.000000 C 8529.000000 -1456.666667 8529.000000 -1475.333333 8529.000000 -1494.000000z M 8463.000000 -812.000000 C 8814.000000 -812.000000 9165.000000 -812.000000 9516.000000 -812.000000 C 9516.000000 -793.000000 9516.000000 -774.000000 9516.000000 -755.000000 C 9165.000000 -755.000000 8814.000000 -755.000000 8463.000000 -755.000000 C 8463.000000 -774.000000 8463.000000 -793.000000 8463.000000 -812.000000z M 8964.000000 -1098.000000 C 8982.666667 -1098.000000 9001.333333 -1098.000000 9020.000000 -1098.000000 C 9020.000000 -723.000000 9020.000000 -348.000000 9020.000000 27.000000 C 9020.000000 56.333333 9015.000000 77.333333 9005.000000 90.000000 C 8995.666667 102.666667 8979.666667 112.333333 8957.000000 119.000000 C 8932.333333 124.333333 8895.333333 127.333333 8846.000000 128.000000 C 8796.666667 128.666667 8731.333333 129.000000 8650.000000 129.000000 C 8648.666667 121.000000 8645.333333 111.333333 8640.000000 100.000000 C 8634.666667 89.333333 8629.666667 79.666667 8625.000000 71.000000 C 8697.666667 72.333333 8760.333333 73.000000 8813.000000 73.000000 C 8866.333333 73.000000 8902.000000 72.333333 8920.000000 71.000000 C 8938.000000 69.666667 8949.666667 66.000000 8955.000000 60.000000 C 8961.000000 54.666667 8964.000000 44.333333 8964.000000 29.000000 C 8964.000000 -346.666667 8964.000000 -722.333333 8964.000000 -1098.000000z M 9416.000000 -1494.000000 C 9420.333333 -1494.000000 9424.666667 -1494.000000 9429.000000 -1494.000000 C 9433.000000 -1495.333333 9437.000000 -1496.666667 9441.000000 -1498.000000 C 9454.333333 -1489.666667 9467.666667 -1481.333333 9481.000000 -1473.000000 C 9442.333333 -1419.000000 9396.333333 -1365.000000 9343.000000 -1311.000000 C 9290.333333 -1257.666667 9235.000000 -1207.666667 9177.000000 -1161.000000 C 9119.666667 -1114.333333 9064.333333 -1073.666667 9011.000000 -1039.000000 C 9005.666667 -1045.000000 8999.000000 -1051.333333 8991.000000 -1058.000000 C 8983.666667 -1065.333333 8976.666667 -1071.000000 8970.000000 -1075.000000 C 9024.000000 -1108.333333 9079.000000 -1147.666667 9135.000000 -1193.000000 C 9191.666667 -1238.333333 9244.666667 -1286.000000 9294.000000 -1336.000000 C 9343.333333 -1386.000000 9384.000000 -1433.333333 9416.000000 -1478.000000 C 9416.000000 -1483.333333 9416.000000 -1488.666667 9416.000000 -1494.000000z M 7774.000000 -1185.000000 C 7989.000000 -1185.000000 8204.000000 -1185.000000 8419.000000 -1185.000000 C 8419.000000 -1165.666667 8419.000000 -1146.333333 8419.000000 -1127.000000 C 8204.000000 -1127.000000 7989.000000 -1127.000000 7774.000000 -1127.000000 C 7774.000000 -1146.333333 7774.000000 -1165.666667 7774.000000 -1185.000000z M 8097.000000 -1594.000000 C 8116.000000 -1591.333333 8135.000000 -1588.666667 8154.000000 -1586.000000 C 8134.666667 -1496.666667 8112.666667 -1399.000000 8088.000000 -1293.000000 C 8064.000000 -1187.666667 8039.000000 -1081.000000 8013.000000 -973.000000 C 7987.000000 -865.666667 7961.333333 -763.333333 7936.000000 -666.000000 C 7911.333333 -568.666667 7888.000000 -483.666667 7866.000000 -411.000000 C 7848.666667 -420.666667 7831.333333 -430.333333 7814.000000 -440.000000 C 7836.000000 -510.000000 7859.333333 -593.000000 7884.000000 -689.000000 C 7909.333333 -785.000000 7934.666667 -886.000000 7960.000000 -992.000000 C 7986.000000 -1098.666667 8010.666667 -1203.666667 8034.000000 -1307.000000 C 8058.000000 -1411.000000 8079.000000 -1506.666667 8097.000000 -1594.000000z M 7855.000000 -528.000000 C 7866.333333 -541.333333 7877.666667 -554.666667 7889.000000 -568.000000 C 7965.666667 -530.000000 8043.000000 -485.666667 8121.000000 -435.000000 C 8199.666667 -384.333333 8271.666667 -332.333333 8337.000000 -279.000000 C 8402.333333 -226.333333 8454.666667 -176.333333 8494.000000 -129.000000 C 8482.000000 -113.000000 8470.000000 -97.000000 8458.000000 -81.000000 C 8418.000000 -128.333333 8365.000000 -179.000000 8299.000000 -233.000000 C 8233.000000 -287.666667 8161.666667 -340.666667 8085.000000 -392.000000 C 8008.333333 -444.000000 7931.666667 -489.333333 7855.000000 -528.000000z M 8402.000000 -1185.000000 C 8405.333333 -1185.000000 8408.666667 -1185.000000 8412.000000 -1185.000000 C 8415.666667 -1186.000000 8419.333333 -1187.000000 8423.000000 -1188.000000 C 8435.333333 -1184.333333 8447.666667 -1180.666667 8460.000000 -1177.000000 C 8440.666667 -932.333333 8402.666667 -723.666667 8346.000000 -551.000000 C 8290.000000 -378.333333 8219.000000 -236.333333 8133.000000 -125.000000 C 8047.000000 -13.666667 7949.666667 73.333333 7841.000000 136.000000 C 7837.666667 130.000000 7832.000000 122.000000 7824.000000 112.000000 C 7816.000000 102.666667 7808.333333 94.666667 7801.000000 88.000000 C 7905.666667 32.000000 7999.666667 -49.666667 8083.000000 -157.000000 C 8166.333333 -265.000000 8235.333333 -402.333333 8290.000000 -569.000000 C 8345.333333 -736.333333 8382.666667 -935.666667 8402.000000 -1167.000000 C 8402.000000 -1173.000000 8402.000000 -1179.000000 8402.000000 -1185.000000z "/>
</g></svg>
