<?xml version="1.0" ?>
<svg xmlns="http://www.w3.org/2000/svg" version="1.1" width="600" height="600">
  <defs/>
  <g>
    <path stroke-width="0" fill="rgb(0, 0, 0)" opacity="1.0" d="M 163.64825439453125 264.2071533203125 C 163.14093017578125 264.67572021484375 162.32919311523438 265.4287109375 161.21307373046875 266.46624755859375 C 160.09695434570312 267.47027587890625 159.28521728515625 268.20654296875 158.77789306640625 268.67510986328125 C 157.0191650390625 270.2816162109375 154.837646484375 272.18927001953125 152.23336791992188 274.398193359375 C 149.66290283203125 276.6070556640625 146.92333984375 278.88287353515625 144.0146484375 281.2255859375 C 141.13980102539062 283.568359375 138.3494873046875 285.82745361328125 135.64373779296875 288.00286865234375 C 132.93798828125 290.14483642578125 130.62118530273438 292.01904296875 128.693359375 293.62548828125 C 126.52874755859375 295.49969482421875 125.0574951171875 297.07269287109375 124.27960205078125 298.344482421875 C 123.50167846679688 299.582763671875 123.51861572265625 300.82110595703125 124.330322265625 302.0594482421875 C 125.14205932617188 303.2977294921875 126.74859619140625 304.92095947265625 129.14993286132812 306.92901611328125 C 131.24688720703125 308.6024169921875 133.52987670898438 310.44317626953125 135.99887084960938 312.45123291015625 C 138.46786499023438 314.42584228515625 141.0045166015625 316.517578125 143.60879516601562 318.7264404296875 C 146.24688720703125 320.93536376953125 148.90191650390625 323.211181640625 151.5738525390625 325.553955078125 C 154.24575805664062 327.86328125 156.8331298828125 330.18927001953125 159.33596801757812 332.531982421875 C 161.83877563476562 334.874755859375 164.15557861328125 337.1339111328125 166.28634643554688 339.309326171875 C 165.4407958984375 340.04559326171875 164.59527587890625 340.7818603515625 163.74972534179688 341.5181884765625 C 162.3968505859375 339.9786376953125 160.77340698242188 338.27178955078125 158.87936401367188 336.3975830078125 C 156.91769409179688 334.4898681640625 154.56707763671875 332.2977294921875 151.8275146484375 329.82110595703125 C 149.12176513671875 327.344482421875 146.2637939453125 324.817626953125 143.253662109375 322.2406005859375 C 140.2435302734375 319.630126953125 137.28411865234375 317.1199951171875 134.37542724609375 314.7103271484375 C 131.50054931640625 312.3006591796875 128.89627075195312 310.15869140625 126.56256103515625 308.28448486328125 C 123.62005615234375 305.90826416015625 121.77676391601562 303.8834228515625 121.03268432617188 302.2100830078125 C 120.28860473632812 300.53662109375 120.4407958984375 298.8800048828125 121.48928833007812 297.24005126953125 C 122.57159423828125 295.60009765625 124.41488647460938 293.69244384765625 127.0191650390625 291.51702880859375 C 128.77789306640625 290.04443359375 130.99322509765625 288.2371826171875 133.6651611328125 286.09521484375 C 136.37091064453125 283.9197998046875 139.19503784179688 281.627197265625 142.13754272460938 279.217529296875 C 145.11386108398438 276.807861328125 147.92108154296875 274.4818115234375 150.5592041015625 272.239501953125 C 153.19729614257812 269.99713134765625 155.32806396484375 268.0057373046875 156.9515380859375 266.26544189453125 C 157.4588623046875 265.66302490234375 158.10147094726562 264.89324951171875 158.87936401367188 263.9561767578125 C 159.65728759765625 262.985595703125 160.21533203125 262.182373046875 160.55355834960938 261.54644775390625 C 161.58511352539062 262.433349609375 162.61669921875 263.32025146484375 163.64825439453125 264.2071533203125"/>
    <path stroke-width="0" fill="rgb(0, 0, 0)" opacity="1.0" d="M 251.21307373046875 262.801513671875 C 251.21307373046875 262.9688720703125 251.17926025390625 263.32025146484375 251.11160278320312 263.855712890625 C 251.04397583007812 264.3577880859375 250.99322509765625 264.87652587890625 250.95941162109375 265.4119873046875 C 250.92559814453125 265.91400146484375 250.90869140625 266.315673828125 250.90869140625 266.6168212890625 C 250.84103393554688 267.85516357421875 250.80718994140625 269.4951171875 250.80718994140625 271.53662109375 C 250.80718994140625 273.544677734375 250.80718994140625 275.75360107421875 250.80718994140625 278.163330078125 C 250.80718994140625 280.572998046875 250.8240966796875 282.9993896484375 250.85794067382812 285.442626953125 C 250.89178466796875 287.8857421875 250.92559814453125 290.195068359375 250.95941162109375 292.3704833984375 C 250.99322509765625 294.5458984375 251.0101318359375 296.4033203125 251.0101318359375 297.94287109375 C 250.11386108398438 296.8216552734375 249.21759033203125 295.70050048828125 248.3212890625 294.579345703125 C 248.3212890625 294.07733154296875 248.3212890625 292.9896240234375 248.3212890625 291.31622314453125 C 248.3212890625 289.642822265625 248.30438232421875 287.634765625 248.27056884765625 285.2919921875 C 248.23675537109375 282.94921875 248.20294189453125 280.5562744140625 248.16912841796875 278.11309814453125 C 248.13528442382812 275.669921875 248.10147094726562 273.4276123046875 248.067626953125 271.38604736328125 C 248.0338134765625 269.31103515625 247.98309326171875 267.7213134765625 247.91543579101562 266.6168212890625 C 247.91543579101562 265.98095703125 247.86471557617188 265.2279052734375 247.76324462890625 264.3577880859375 C 247.66177368164062 263.487548828125 247.57720947265625 262.9688720703125 247.50958251953125 262.801513671875 C 248.74407958984375 262.801513671875 249.97857666015625 262.801513671875 251.21307373046875 262.801513671875M 202.81396484375 277.611083984375 C 205.21533203125 277.54412841796875 207.98870849609375 277.46044921875 211.1341552734375 277.360107421875 C 214.27960205078125 277.2261962890625 217.67868041992188 277.09228515625 221.33145141601562 276.95843505859375 C 225.01803588867188 276.8245849609375 228.822998046875 276.70745849609375 232.746337890625 276.6070556640625 C 236.669677734375 276.506591796875 240.5592041015625 276.4229736328125 244.41488647460938 276.35601806640625 C 248.30438232421875 276.2890625 252.04168701171875 276.255615234375 255.6268310546875 276.255615234375 C 259.0428466796875 276.255615234375 262.1882629394531 276.2723388671875 265.0631103515625 276.3057861328125 C 267.9718017578125 276.33929443359375 270.5422668457031 276.35601806640625 272.7745361328125 276.35601806640625 C 275.04058837890625 276.35601806640625 276.9853515625 276.372802734375 278.6087951660156 276.40625 C 280.23223876953125 276.439697265625 281.5174560546875 276.4564208984375 282.4644775390625 276.4564208984375 C 282.4644775390625 277.427001953125 282.4644775390625 278.3975830078125 282.4644775390625 279.3681640625 C 280.0631408691406 279.2342529296875 276.78240966796875 279.1339111328125 272.622314453125 279.06689453125 C 268.49603271484375 279.0 262.8477783203125 278.966552734375 255.67755126953125 278.966552734375 C 251.72039794921875 278.966552734375 247.4588623046875 279.0 242.89288330078125 279.06689453125 C 238.32693481445312 279.1339111328125 233.64263916015625 279.2509765625 228.83990478515625 279.4183349609375 C 224.07101440429688 279.585693359375 219.454345703125 279.80322265625 214.9898681640625 280.07098388671875 C 210.5592041015625 280.30523681640625 206.53436279296875 280.5897216796875 202.91543579101562 280.9244384765625 C 202.88162231445312 279.8199462890625 202.84780883789062 278.71551513671875 202.81396484375 277.611083984375M 252.2784423828125 305.071533203125 C 252.2784423828125 308.4183349609375 251.65277099609375 311.22967529296875 250.4013671875 313.5054931640625 C 249.18377685546875 315.747802734375 247.5941162109375 317.43798828125 245.6324462890625 318.57586669921875 C 243.70462036132812 319.6802978515625 241.6414794921875 320.2325439453125 239.44305419921875 320.2325439453125 C 237.24462890625 320.2325439453125 235.21533203125 319.91461181640625 233.35513305664062 319.2786865234375 C 231.49493408203125 318.642822265625 229.8714599609375 317.68896484375 228.48477172851562 316.417236328125 C 227.13189697265625 315.1119384765625 226.08343505859375 313.5556640625 225.33935546875 311.7484130859375 C 224.59527587890625 309.941162109375 224.22320556640625 307.88287353515625 224.22320556640625 305.5736083984375 C 224.22320556640625 302.8292236328125 224.899658203125 300.3023681640625 226.25253295898438 297.9930419921875 C 227.63922119140625 295.65032958984375 229.46560668945312 293.7593994140625 231.731689453125 292.32025146484375 C 233.99774169921875 290.881103515625 236.46673583984375 290.16156005859375 239.138671875 290.16156005859375 C 242.45318603515625 290.16156005859375 245.17587280273438 290.8978271484375 247.306640625 292.3704833984375 C 249.47125244140625 293.843017578125 251.07778930664062 295.9013671875 252.12628173828125 298.5452880859375 C 253.20855712890625 301.18927001953125 253.74969482421875 304.23486328125 253.74969482421875 307.68206787109375 C 253.74969482421875 311.02880859375 253.3438720703125 314.325439453125 252.53213500976562 317.57183837890625 C 251.72039794921875 320.8182373046875 250.3167724609375 323.9140625 248.3212890625 326.85919189453125 C 246.359619140625 329.7708740234375 243.636962890625 332.431640625 240.1533203125 334.84130859375 C 236.7034912109375 337.2509765625 232.2728271484375 339.29254150390625 226.861328125 340.9659423828125 C 225.9481201171875 340.1627197265625 225.03494262695312 339.3594970703125 224.12176513671875 338.5562744140625 C 228.890625 337.3848876953125 232.94927978515625 335.862060546875 236.297607421875 333.9879150390625 C 239.6798095703125 332.0802001953125 242.436279296875 329.837890625 244.56707763671875 327.2608642578125 C 246.731689453125 324.68377685546875 248.30438232421875 321.8055419921875 249.28521728515625 318.6260986328125 C 250.29986572265625 315.4466552734375 250.80718994140625 311.9993896484375 250.80718994140625 308.28448486328125 C 250.80718994140625 302.6953125 249.69110107421875 298.7293701171875 247.4588623046875 296.3865966796875 C 245.22662353515625 294.0438232421875 242.5208740234375 292.8724365234375 239.34161376953125 292.8724365234375 C 237.2108154296875 292.8724365234375 235.21533203125 293.4246826171875 233.35513305664062 294.5291748046875 C 231.49493408203125 295.60009765625 229.9898681640625 297.0894775390625 228.83990478515625 298.9970703125 C 227.72378540039062 300.871337890625 227.16571044921875 303.0634765625 227.16571044921875 305.5736083984375 C 227.16571044921875 309.42236328125 228.36639404296875 312.38427734375 230.76776123046875 314.4593505859375 C 233.16909790039062 316.5008544921875 236.06085205078125 317.5216064453125 239.44305419921875 317.5216064453125 C 241.97970581054688 317.5216064453125 244.07666015625 316.8857421875 245.73394775390625 315.61395263671875 C 247.39120483398438 314.3087158203125 248.64260864257812 312.50146484375 249.4881591796875 310.192138671875 C 250.33370971679688 307.88287353515625 250.7564697265625 305.22216796875 250.7564697265625 302.2100830078125 C 251.2637939453125 303.16387939453125 251.7711181640625 304.11767578125 252.2784423828125 305.071533203125M 265.41827392578125 261.697021484375 C 266.53436279296875 263.203125 267.85345458984375 265.11077880859375 269.37542724609375 267.4200439453125 C 270.89739990234375 269.7293701171875 272.1826171875 271.82110595703125 273.2311096191406 273.6953125 C 272.28411865234375 274.16387939453125 271.33709716796875 274.6324462890625 270.39007568359375 275.1009521484375 C 269.37542724609375 273.19329833984375 268.1240234375 271.0848388671875 266.6358642578125 268.7755126953125 C 265.1815185546875 266.46624755859375 263.8793640136719 264.52508544921875 262.72943115234375 262.95208740234375 C 263.6257019042969 262.53375244140625 264.52197265625 262.11541748046875 265.41827392578125 261.697021484375M 276.0721435546875 259.4881591796875 C 277.1544494628906 260.96075439453125 278.4227600097656 262.8182373046875 279.8771057128906 265.060546875 C 281.3652648925781 267.26947021484375 282.684326171875 269.3612060546875 283.83428955078125 271.3358154296875 C 282.870361328125 271.82110595703125 281.90643310546875 272.306396484375 280.9425048828125 272.79168701171875 C 279.8940124511719 270.7501220703125 278.6595458984375 268.62493896484375 277.239013671875 266.416015625 C 275.852294921875 264.1737060546875 274.5501708984375 262.28271484375 273.33258056640625 260.74322509765625 C 274.24578857421875 260.3248291015625 275.1589660644531 259.906494140625 276.0721435546875 259.4881591796875"/>
    <path stroke-width="0" fill="rgb(0, 0, 0)" opacity="1.0" d="M 322.8985595703125 263.2532958984375 C 322.72943115234375 264.4246826171875 322.611083984375 265.49566650390625 322.54339599609375 266.46624755859375 C 322.47576904296875 267.4033203125 322.40814208984375 268.5245361328125 322.3404541015625 269.82977294921875 C 322.2728271484375 272.64111328125 322.15447998046875 276.15521240234375 321.9853515625 280.3721923828125 C 321.81622314453125 284.589111328125 321.680908203125 289.1072998046875 321.5794677734375 293.9267578125 C 321.47802734375 298.74609375 321.37652587890625 303.5989990234375 321.27508544921875 308.48529052734375 C 321.2073974609375 313.37158203125 321.173583984375 317.8897705078125 321.173583984375 322.039794921875 C 321.173583984375 325.85516357421875 321.9515380859375 328.91748046875 323.50732421875 331.226806640625 C 325.0631103515625 333.53607177734375 327.22772216796875 335.20947265625 330.0010986328125 336.2469482421875 C 332.808349609375 337.2509765625 336.038330078125 337.7530517578125 339.69110107421875 337.7530517578125 C 344.5614013671875 337.7530517578125 348.890625 337.1673583984375 352.6787109375 335.9959716796875 C 356.46673583984375 334.7911376953125 359.7982177734375 333.2181396484375 362.673095703125 331.2769775390625 C 365.58172607421875 329.3023681640625 368.118408203125 327.126953125 370.282958984375 324.750732421875 C 372.4814453125 322.37451171875 374.4599609375 319.998291015625 376.21875 317.6220703125 C 376.928955078125 318.42529296875 377.63922119140625 319.228515625 378.3494873046875 320.03173828125 C 376.59075927734375 322.2740478515625 374.527587890625 324.60009765625 372.16009521484375 327.009765625 C 369.7926025390625 329.41949462890625 367.03607177734375 331.6451416015625 363.890625 333.6866455078125 C 360.779052734375 335.69476318359375 357.19390869140625 337.31793212890625 353.13525390625 338.5562744140625 C 349.07666015625 339.8280029296875 344.4937744140625 340.46392822265625 339.38671875 340.46392822265625 C 335.36187744140625 340.46392822265625 331.7598876953125 339.86151123046875 328.58062744140625 338.65667724609375 C 325.4013671875 337.48529052734375 322.881591796875 335.493896484375 321.02142333984375 332.6826171875 C 319.1612548828125 329.837890625 318.2310791015625 325.9053955078125 318.2310791015625 320.8851318359375 C 318.2310791015625 317.7391357421875 318.264892578125 314.35888671875 318.33258056640625 310.744384765625 C 318.40020751953125 307.09637451171875 318.501708984375 303.38140869140625 318.636962890625 299.59954833984375 C 318.772216796875 295.817626953125 318.87371826171875 292.11944580078125 318.94140625 288.5048828125 C 319.0428466796875 284.85693359375 319.12738037109375 281.4263916015625 319.195068359375 278.2135009765625 C 319.2626953125 275.0006103515625 319.2965087890625 272.20599365234375 319.2965087890625 269.82977294921875 C 319.2965087890625 268.5245361328125 319.2626953125 267.33642578125 319.195068359375 266.26544189453125 C 319.12738037109375 265.1610107421875 319.009033203125 264.156982421875 318.83990478515625 263.2532958984375 C 320.1927490234375 263.2532958984375 321.545654296875 263.2532958984375 322.8985595703125 263.2532958984375"/>
    <path stroke-width="0" fill="rgb(0, 0, 0)" opacity="1.0" d="M 412.79705810546875 284.84014892578125 C 429.454345703125 284.84014892578125 446.111572265625 284.84014892578125 462.7689208984375 284.84014892578125 C 462.7689208984375 285.7772216796875 462.7689208984375 286.71435546875 462.7689208984375 287.6514892578125 C 446.111572265625 287.6514892578125 429.454345703125 287.6514892578125 412.79705810546875 287.6514892578125 C 412.79705810546875 286.71435546875 412.79705810546875 285.7772216796875 412.79705810546875 284.84014892578125M 397.83087158203125 309.3387451171875 C 425.32806396484375 309.3387451171875 452.82525634765625 309.3387451171875 480.3223876953125 309.3387451171875 C 480.3223876953125 310.27581787109375 480.3223876953125 311.212890625 480.3223876953125 312.1500244140625 C 452.82525634765625 312.1500244140625 425.32806396484375 312.1500244140625 397.83087158203125 312.1500244140625 C 397.83087158203125 311.212890625 397.83087158203125 310.27581787109375 397.83087158203125 309.3387451171875M 437.757568359375 301.055419921875 C 438.7384033203125 301.055419921875 439.71923828125 301.055419921875 440.7000732421875 301.055419921875 C 440.7000732421875 313.706298828125 440.7000732421875 326.357177734375 440.7000732421875 339.008056640625 C 440.7000732421875 340.24639892578125 440.46337890625 341.166748046875 439.9898681640625 341.7691650390625 C 439.5501708984375 342.37158203125 438.772216796875 342.84014892578125 437.6561279296875 343.1748046875 C 436.607666015625 343.442626953125 434.96728515625 343.576416015625 432.73504638671875 343.576416015625 C 430.5028076171875 343.60992431640625 427.2728271484375 343.62664794921875 423.04510498046875 343.62664794921875 C 422.9774169921875 343.39239501953125 422.85906982421875 343.1246337890625 422.68994140625 342.82342529296875 C 422.5546875 342.5556640625 422.4024658203125 342.2545166015625 422.2333984375 341.9197998046875 C 422.064208984375 341.5850830078125 421.87823486328125 341.3006591796875 421.67529296875 341.06634521484375 C 424.07666015625 341.06634521484375 426.224365234375 341.0831298828125 428.118408203125 341.1165771484375 C 430.04620361328125 341.1500244140625 431.6527099609375 341.1500244140625 432.93798828125 341.1165771484375 C 434.257080078125 341.0831298828125 435.1871337890625 341.06634521484375 435.728271484375 341.06634521484375 C 436.5062255859375 340.9993896484375 437.0303955078125 340.8153076171875 437.301025390625 340.51416015625 C 437.60540771484375 340.212890625 437.757568359375 339.744384765625 437.757568359375 339.1085205078125 C 437.757568359375 326.42413330078125 437.757568359375 313.73974609375 437.757568359375 301.055419921875M 462.00787353515625 284.84014892578125 C 462.22772216796875 284.84014892578125 462.44757080078125 284.84014892578125 462.66741943359375 284.84014892578125 C 462.9041748046875 284.773193359375 463.14093017578125 284.706298828125 463.377685546875 284.63934326171875 C 464.0540771484375 285.1246337890625 464.73052978515625 285.60992431640625 465.406982421875 286.09521484375 C 463.2762451171875 288.3375244140625 460.77337646484375 290.5966796875 457.8985595703125 292.8724365234375 C 455.0574951171875 295.1148681640625 452.09808349609375 297.22332763671875 449.020263671875 299.19793701171875 C 445.976318359375 301.1390380859375 443.067626953125 302.8125 440.29425048828125 304.2181396484375 C 440.09130859375 303.9168701171875 439.78692626953125 303.58221435546875 439.38104248046875 303.214111328125 C 439.009033203125 302.845947265625 438.65386962890625 302.57818603515625 438.315673828125 302.410888671875 C 441.1229248046875 301.0386962890625 443.99774169921875 299.41546630859375 446.94024658203125 297.541259765625 C 449.91656494140625 295.633544921875 452.70684814453125 293.6422119140625 455.3111572265625 291.5672607421875 C 457.94921875 289.458740234375 460.1815185546875 287.45068359375 462.00787353515625 285.54296875 C 462.00787353515625 285.3087158203125 462.00787353515625 285.074462890625 462.00787353515625 284.84014892578125M 437.35174560546875 256.62664794921875 C 438.33258056640625 256.62664794921875 439.31341552734375 256.62664794921875 440.29425048828125 256.62664794921875 C 440.29425048828125 261.14483642578125 440.29425048828125 265.66302490234375 440.29425048828125 270.18115234375 C 439.31341552734375 270.18115234375 438.33258056640625 270.18115234375 437.35174560546875 270.18115234375 C 437.35174560546875 265.66302490234375 437.35174560546875 261.14483642578125 437.35174560546875 256.62664794921875M 399.3021240234375 268.57470703125 C 425.7508544921875 268.57470703125 452.19952392578125 268.57470703125 478.64825439453125 268.57470703125 C 478.64825439453125 275.35198974609375 478.64825439453125 282.1292724609375 478.64825439453125 288.906494140625 C 477.684326171875 288.906494140625 476.72039794921875 288.906494140625 475.7564697265625 288.906494140625 C 475.7564697265625 283.0831298828125 475.7564697265625 277.2596435546875 475.7564697265625 271.43621826171875 C 451.235595703125 271.43621826171875 426.71478271484375 271.43621826171875 402.19390869140625 271.43621826171875 C 402.19390869140625 277.2596435546875 402.19390869140625 283.0831298828125 402.19390869140625 288.906494140625 C 401.22998046875 288.906494140625 400.26605224609375 288.906494140625 399.3021240234375 288.906494140625 C 399.3021240234375 282.1292724609375 399.3021240234375 275.35198974609375 399.3021240234375 268.57470703125"/>
  </g>
</svg>
