<?xml version="1.0" ?>
<svg xmlns="http://www.w3.org/2000/svg" version="1.1" width="600" height="600">
  <defs/>
  <g>
    <path stroke-width="0" fill="rgb(0, 0, 0)" opacity="1.0" d="M 415.9473876953125 158.67230224609375 C 415.0439453125 159.7269287109375 413.91455078125 161.45953369140625 412.559326171875 163.87005615234375 C 411.3546142578125 166.12994384765625 410.451171875 168.01318359375 409.8487548828125 169.519775390625 C 404.277099609375 184.28436279296875 396.9737548828125 200.480224609375 387.938720703125 218.10736083984375 C 379.05419921875 235.73446655273438 369.11566162109375 252.90960693359375 358.12298583984375 269.63275146484375 C 347.13031005859375 286.20526123046875 335.91180419921875 300.6685791015625 324.4674072265625 313.0225830078125 C 308.50543212890625 330.4990234375 291.2635498046875 347.37286376953125 272.74163818359375 363.64404296875 C 254.21978759765625 379.915283203125 234.643798828125 395.1318359375 214.01373291015625 409.2938232421875 C 193.38372802734375 423.3050537109375 171.32305908203125 435.50848388671875 147.8319091796875 445.9039306640625 C 144.3685302734375 442.137451171875 140.905029296875 438.3709716796875 137.441650390625 434.6044921875 C 160.9327392578125 425.113037109375 183.21929931640625 413.51220703125 204.30108642578125 399.80224609375 C 225.38287353515625 385.941650390625 245.3353271484375 370.57440185546875 264.1583251953125 353.7005615234375 C 283.1319580078125 336.8267822265625 300.7503662109375 319.35028076171875 317.01348876953125 301.27117919921875 C 327.1026611328125 289.82110595703125 337.49298095703125 276.18646240234375 348.1844482421875 260.36724853515625 C 358.87591552734375 244.54803466796875 368.5133056640625 228.27685546875 377.0966796875 211.55364990234375 C 385.83056640625 194.83050537109375 392.2303466796875 179.61392211914062 396.296142578125 165.90396118164062 C 394.3385009765625 165.90396118164062 388.4658203125 165.90396118164062 378.677734375 165.90396118164062 C 369.04034423828125 165.90396118164062 357.3701171875 165.90396118164062 343.6668701171875 165.90396118164062 C 329.96368408203125 165.90396118164062 315.50762939453125 165.90396118164062 300.298583984375 165.90396118164062 C 285.089599609375 165.90396118164062 270.63348388671875 165.90396118164062 256.9302978515625 165.90396118164062 C 243.22711181640625 165.90396118164062 231.7073974609375 165.90396118164062 222.3712158203125 165.90396118164062 C 213.185546875 165.90396118164062 207.61395263671875 165.90396118164062 205.65631103515625 165.90396118164062 C 201.28936767578125 165.90396118164062 196.24481201171875 166.05459594726562 190.5225830078125 166.35592651367188 C 184.950927734375 166.65725708007812 179.981689453125 166.88323974609375 175.61474609375 167.03390502929688 C 171.247802734375 167.18453979492188 169.0643310546875 167.2598876953125 169.0643310546875 167.2598876953125 C 169.0643310546875 161.76083374023438 169.0643310546875 156.26177978515625 169.0643310546875 150.76272583007812 C 169.0643310546875 150.76272583007812 171.1724853515625 150.91336059570312 175.38885498046875 151.21469116210938 C 179.605224609375 151.51602172851562 184.49920654296875 151.89266967773438 190.07086181640625 152.34463500976562 C 195.79302978515625 152.79660034179688 200.98822021484375 153.02261352539062 205.65631103515625 153.02261352539062 C 207.61395263671875 153.02261352539062 212.95965576171875 153.02261352539062 221.69354248046875 153.02261352539062 C 230.5780029296875 153.02261352539062 241.49542236328125 153.02261352539062 254.4456787109375 153.02261352539062 C 267.5465087890625 153.02261352539062 281.24969482421875 153.02261352539062 295.55517578125 153.02261352539062 C 309.8607177734375 153.02261352539062 323.56390380859375 153.02261352539062 336.66473388671875 153.02261352539062 C 349.91619873046875 153.02261352539062 361.05938720703125 153.02261352539062 370.094482421875 153.02261352539062 C 379.2801513671875 153.02261352539062 385.0023193359375 153.02261352539062 387.260986328125 153.02261352539062 C 391.92919921875 153.02261352539062 395.8443603515625 152.8719482421875 399.006591796875 152.57061767578125 C 402.1689453125 152.269287109375 404.87939453125 151.81732177734375 407.13818359375 151.21469116210938 C 410.0745849609375 153.7005615234375 413.010986328125 156.18643188476562 415.9473876953125 158.67230224609375M 330.11431884765625 303.53106689453125 C 342.46221923828125 313.92657470703125 354.81011962890625 325.0753173828125 367.1580810546875 336.9774169921875 C 379.656494140625 348.87945556640625 391.8538818359375 361.007568359375 403.75 373.361572265625 C 415.646240234375 385.56494140625 426.714111328125 397.31640625 436.953857421875 408.6158447265625 C 447.193603515625 419.915283203125 456.228759765625 430.31072998046875 464.05908203125 439.80224609375 C 460.445068359375 442.966064453125 456.8310546875 446.12994384765625 453.217041015625 449.2938232421875 C 443.1279296875 436.638427734375 430.780029296875 422.25048828125 416.17333984375 406.12994384765625 C 401.566650390625 389.8587646484375 386.056396484375 373.51220703125 369.6427001953125 357.09039306640625 C 353.37957763671875 340.51788330078125 337.26708984375 325.52734375 321.30511474609375 312.11865234375 C 324.24151611328125 309.256103515625 327.17791748046875 306.39361572265625 330.11431884765625 303.53106689453125"/>
  </g>
</svg>
