<?xml version="1.0" encoding="utf-8"?>
<svg xmlns="http://www.w3.org/2000/svg" xmlns:ev="http://www.w3.org/2001/xml-events" xmlns:xlink="http://www.w3.org/1999/xlink" version="1.1" baseProfile="full" width="19012.0" height="1920.0" viewBox="113.0 -1690.0 19012.0 1920.0">
<defs/>
<g><path d="M 4032.000000 230.000000 C 4032.000000 -410.000000 4032.000000 -1050.000000 4032.000000 -1690.000000 C 4544.000000 -1690.000000 5056.000000 -1690.000000 5568.000000 -1690.000000 C 5568.000000 -1050.000000 5568.000000 -410.000000 5568.000000 230.000000 C 5056.000000 230.000000 4544.000000 230.000000 4032.000000 230.000000z M 4800.000000 -808.000000 C 5003.666667 -1070.000000 5207.333333 -1332.000000 5411.000000 -1594.000000 C 5003.666667 -1594.000000 4596.333333 -1594.000000 4189.000000 -1594.000000 C 4392.666667 -1332.000000 4596.333333 -1070.000000 4800.000000 -808.000000z M 4861.000000 -730.000000 C 5064.666667 -468.000000 5268.333333 -206.000000 5472.000000 56.000000 C 5472.000000 -467.666667 5472.000000 -991.333333 5472.000000 -1515.000000 C 5268.333333 -1253.333333 5064.666667 -991.666667 4861.000000 -730.000000z M 4189.000000 134.000000 C 4596.333333 134.000000 5003.666667 134.000000 5411.000000 134.000000 C 5207.333333 -127.666667 5003.666667 -389.333333 4800.000000 -651.000000 C 4596.333333 -389.333333 4392.666667 -127.666667 4189.000000 134.000000z M 4128.000000 -1515.000000 C 4128.000000 -991.333333 4128.000000 -467.666667 4128.000000 56.000000 C 4331.666667 -206.000000 4535.333333 -468.000000 4739.000000 -730.000000 C 4535.333333 -991.666667 4331.666667 -1253.333333 4128.000000 -1515.000000z "/>
</g></svg>
