<?xml version="1.0" ?>
<svg xmlns="http://www.w3.org/2000/svg" version="1.1" width="600" height="600">
  <defs/>
  <g>
    <path stroke-width="0" fill="rgb(0, 0, 0)" opacity="1.0" d="M 129.89739990234375 136.37930297851562 C 161.1339111328125 136.37930297851562 192.37042236328125 136.37930297851562 223.60693359375 136.37930297851562 C 223.60693359375 226.03448486328125 223.60693359375 315.68963623046875 223.60693359375 405.3448486328125 C 192.37042236328125 405.3448486328125 161.1339111328125 405.3448486328125 129.89739990234375 405.3448486328125 C 129.89739990234375 401.3448486328125 129.89739990234375 397.3448486328125 129.89739990234375 393.3448486328125 C 157.2724609375 393.3448486328125 184.6474609375 393.3448486328125 212.02252197265625 393.3448486328125 C 212.02252197265625 311.4827880859375 212.02252197265625 229.62066650390625 212.02252197265625 147.75860595703125 C 184.6474609375 147.75860595703125 157.2724609375 147.75860595703125 129.89739990234375 147.75860595703125 C 129.89739990234375 143.96548461914062 129.89739990234375 140.17242431640625 129.89739990234375 136.37930297851562M 129.89739990234375 220.17242431640625 C 159.82379150390625 220.17242431640625 189.7501220703125 220.17242431640625 219.676513671875 220.17242431640625 C 219.676513671875 224.10345458984375 219.676513671875 228.03448486328125 219.676513671875 231.96551513671875 C 189.7501220703125 231.96551513671875 159.82379150390625 231.96551513671875 129.89739990234375 231.96551513671875 C 129.89739990234375 228.03448486328125 129.89739990234375 224.10345458984375 129.89739990234375 220.17242431640625M 129.89739990234375 306.03448486328125 C 159.82379150390625 306.03448486328125 189.7501220703125 306.03448486328125 219.676513671875 306.03448486328125 C 219.676513671875 309.82757568359375 219.676513671875 313.6207275390625 219.676513671875 317.413818359375 C 189.7501220703125 317.413818359375 159.82379150390625 317.413818359375 129.89739990234375 317.413818359375 C 129.89739990234375 313.6207275390625 129.89739990234375 309.82757568359375 129.89739990234375 306.03448486328125M 123.484619140625 136.37930297851562 C 127.48394775390625 136.37930297851562 131.4833984375 136.37930297851562 135.48272705078125 136.37930297851562 C 135.48272705078125 237.41378784179688 135.48272705078125 338.4482421875 135.48272705078125 439.4827880859375 C 131.4833984375 439.4827880859375 127.48394775390625 439.4827880859375 123.484619140625 439.4827880859375 C 123.484619140625 338.4482421875 123.484619140625 237.41378784179688 123.484619140625 136.37930297851562M 274.90924072265625 133.0689697265625 C 334.62408447265625 133.0689697265625 394.33892822265625 133.0689697265625 454.0537109375 133.0689697265625 C 454.0537109375 166.44827270507812 454.0537109375 199.82757568359375 454.0537109375 233.2069091796875 C 394.33892822265625 233.2069091796875 334.62408447265625 233.2069091796875 274.90924072265625 233.2069091796875 C 274.90924072265625 229.27584838867188 274.90924072265625 225.34481811523438 274.90924072265625 221.41378784179688 C 330.62469482421875 221.41378784179688 386.3402099609375 221.41378784179688 442.0556640625 221.41378784179688 C 442.0556640625 195.82757568359375 442.0556640625 170.24136352539062 442.0556640625 144.6551513671875 C 386.3402099609375 144.6551513671875 330.62469482421875 144.6551513671875 274.90924072265625 144.6551513671875 C 274.90924072265625 140.7930908203125 274.90924072265625 136.9310302734375 274.90924072265625 133.0689697265625M 275.73675537109375 304.3792724609375 C 340.071533203125 304.3792724609375 404.40631103515625 304.3792724609375 468.7410888671875 304.3792724609375 C 468.7410888671875 308.24139404296875 468.7410888671875 312.10345458984375 468.7410888671875 315.96551513671875 C 404.40631103515625 315.96551513671875 340.071533203125 315.96551513671875 275.73675537109375 315.96551513671875 C 275.73675537109375 312.10345458984375 275.73675537109375 308.24139404296875 275.73675537109375 304.3792724609375M 268.4964599609375 133.0689697265625 C 272.35797119140625 133.0689697265625 276.21942138671875 133.0689697265625 280.08087158203125 133.0689697265625 C 280.08087158203125 239.27584838867188 280.08087158203125 345.4827880859375 280.08087158203125 451.689697265625 C 276.21942138671875 451.689697265625 272.35797119140625 451.689697265625 268.4964599609375 451.689697265625 C 268.4964599609375 345.4827880859375 268.4964599609375 239.27584838867188 268.4964599609375 133.0689697265625M 225.675537109375 454.586181640625 C 238.63909912109375 452.3792724609375 253.60223388671875 449.75860595703125 270.56512451171875 446.72412109375 C 287.6658935546875 443.689697265625 305.80096435546875 440.3792724609375 324.970458984375 436.7930908203125 C 344.27777099609375 433.2069091796875 363.72296142578125 429.689697265625 383.30615234375 426.24139404296875 C 383.58197021484375 429.689697265625 383.8577880859375 433.137939453125 384.13360595703125 436.586181640625 C 356.5517578125 442.24139404296875 329.03875732421875 447.6207275390625 301.59478759765625 452.72412109375 C 274.2886962890625 457.82757568359375 250.29241943359375 462.3792724609375 229.60595703125 466.3792724609375 C 228.29583740234375 462.4482421875 226.9857177734375 458.5172119140625 225.675537109375 454.586181640625M 363.033447265625 223.27584838867188 C 367.17071533203125 223.27584838867188 371.30804443359375 223.27584838867188 375.4453125 223.27584838867188 C 375.85906982421875 259.0 378.2034912109375 291.27587890625 382.47869873046875 320.10345458984375 C 386.75390625 348.7930908203125 392.47711181640625 373.3448486328125 399.6484375 393.75860595703125 C 406.81976318359375 414.17242431640625 414.8184814453125 429.82757568359375 423.644775390625 440.72412109375 C 432.470947265625 451.4827880859375 441.77978515625 456.862060546875 451.5712890625 456.862060546875 C 456.674072265625 456.586181640625 460.259765625 451.6207275390625 462.328369140625 441.96551513671875 C 464.39697265625 432.310302734375 465.844970703125 416.7930908203125 466.6724853515625 395.413818359375 C 468.327392578125 396.6551513671875 470.1202392578125 397.82757568359375 472.051025390625 398.9310302734375 C 473.981689453125 400.03448486328125 475.912353515625 400.7930908203125 477.8431396484375 401.2069091796875 C 477.015625 417.89654541015625 475.6365966796875 431.137939453125 473.705810546875 440.9310302734375 C 471.9130859375 450.72412109375 469.2237548828125 457.82757568359375 465.63818359375 462.24139404296875 C 462.052490234375 466.6551513671875 457.2255859375 468.862060546875 451.15771484375 468.862060546875 C 441.0902099609375 468.862060546875 431.71240234375 464.862060546875 423.024169921875 456.862060546875 C 414.3358154296875 449.0 406.4749755859375 437.75860595703125 399.44158935546875 423.137939453125 C 392.408203125 408.5172119140625 386.27117919921875 391.137939453125 381.0306396484375 371.0 C 375.927978515625 350.72412109375 371.85968017578125 328.17242431640625 368.82568359375 303.3448486328125 C 365.7916259765625 278.3793029785156 363.86090087890625 251.68963623046875 363.033447265625 223.27584838867188"/>
  </g>
</svg>
