<?xml version="1.0" ?>
<svg xmlns="http://www.w3.org/2000/svg" version="1.1" width="600" height="600">
  <defs/>
  <g>
    <path stroke-width="0" fill="rgb(0, 0, 0)" opacity="1.0" d="M 208.390625 157.50457763671875 C 212.10595703125 157.77981567382812 215.8212890625 157.98623657226562 219.537109375 158.12387084960938 C 223.25244140625 158.261474609375 227.2431640625 158.33029174804688 231.5087890625 158.33029174804688 C 235.63720703125 158.33029174804688 242.173828125 158.19265747070312 251.11865234375 157.91741943359375 C 260.20068359375 157.64218139648438 270.38427734375 157.43576049804688 281.66796875 157.29815673828125 C 293.08984375 157.02291870117188 304.51123046875 156.61007690429688 315.93310546875 156.05963134765625 C 327.4921875 155.50918579101562 337.95068359375 155.02752685546875 347.30810546875 154.61468505859375 C 356.666015625 154.20184326171875 363.75244140625 153.85781860351562 368.56884765625 153.58258056640625 C 370.63330078125 153.30734252929688 373.24755859375 153.03213500976562 376.4130859375 152.75689697265625 C 379.578125 152.34402465820312 382.26123046875 151.72476196289062 384.462890625 150.89907836914062 C 388.109375 154.68350219726562 391.75634765625 158.4678955078125 395.4033203125 162.25228881835938 C 394.16455078125 163.07797241210938 392.1005859375 164.52294921875 389.21044921875 166.587158203125 C 386.32080078125 168.51376342773438 384.1875 170.1651611328125 382.8115234375 171.54129028320312 C 373.86669921875 179.38531494140625 363.890625 188.12387084960938 352.88134765625 197.75689697265625 C 341.87255859375 207.389892578125 330.58837890625 217.09173583984375 319.029296875 226.86236572265625 C 307.607421875 236.63302612304688 296.66748046875 245.9908447265625 286.208984375 254.935791015625 C 275.88818359375 263.74310302734375 266.7373046875 271.587158203125 258.755859375 278.4678955078125 C 273.75537109375 272.412841796875 287.44775390625 268.35321044921875 299.83251953125 266.28900146484375 C 312.35498046875 264.087158203125 324.05224609375 262.9862365722656 334.92333984375 262.9862365722656 C 355.42724609375 262.9862365722656 373.4541015625 266.4266052246094 389.00439453125 273.3073425292969 C 404.69189453125 280.18804931640625 416.8701171875 289.958740234375 425.5400390625 302.6192626953125 C 434.3466796875 315.27978515625 438.75048828125 330.3486328125 438.75048828125 347.82568359375 C 438.75048828125 372.1834716796875 430.4248046875 392.2752685546875 413.77392578125 408.1009521484375 C 397.12353515625 423.9266357421875 374.0048828125 435.21099853515625 344.41845703125 441.9541015625 C 314.83203125 448.697265625 280.56689453125 450.4862060546875 241.62353515625 447.32110595703125 C 240.45361328125 443.0550537109375 239.28369140625 438.78900146484375 238.1142578125 434.52294921875 C 265.63671875 437.82568359375 290.95654296875 438.16973876953125 314.0751953125 435.5550537109375 C 337.19384765625 432.802734375 357.21630859375 427.6422119140625 374.14208984375 420.0733642578125 C 391.068359375 412.366943359375 404.1416015625 402.32110595703125 413.361328125 389.935791015625 C 422.5810546875 377.412841796875 427.19091796875 363.1009521484375 427.19091796875 347.0 C 427.19091796875 324.56878662109375 418.72802734375 306.67889404296875 401.8017578125 293.33026123046875 C 384.8759765625 279.98162841796875 362.3076171875 273.3073425292969 334.09765625 273.3073425292969 C 315.24462890625 273.3073425292969 298.86962890625 275.1651611328125 284.970703125 278.8807373046875 C 271.2099609375 282.5963134765625 258.48046875 287.96331787109375 246.78369140625 294.981689453125 C 235.224609375 302.0 223.59619140625 310.6009521484375 211.8994140625 320.784423828125 C 200.34033203125 330.830322265625 187.40478515625 342.32110595703125 173.09326171875 355.25689697265625 C 169.44677734375 351.9541015625 165.7998046875 348.6513671875 162.1533203125 345.3486328125 C 174.8134765625 335.44036865234375 188.91845703125 324.01837158203125 204.46875 311.08258056640625 C 220.0185546875 298.0091552734375 236.119140625 284.52294921875 252.77001953125 270.62384033203125 C 269.42041015625 256.587158203125 285.52099609375 242.82568359375 301.0712890625 229.33944702148438 C 316.7587890625 215.85321044921875 330.794921875 203.4678955078125 343.1796875 192.1834716796875 C 355.56494140625 180.761474609375 365.47265625 171.47247314453125 372.90380859375 164.3165283203125 C 367.3994140625 164.59176635742188 359.76220703125 164.935791015625 349.99169921875 165.3486328125 C 340.22119140625 165.761474609375 329.35009765625 166.24313354492188 317.3779296875 166.7935791015625 C 305.54345703125 167.2064208984375 293.8466796875 167.6192626953125 282.287109375 168.0321044921875 C 270.865234375 168.4449462890625 260.61376953125 168.8577880859375 251.53125 169.27066040039062 C 242.58642578125 169.68350219726562 235.9814453125 170.02752685546875 231.71533203125 170.30276489257812 C 228.13720703125 170.5780029296875 224.353515625 170.85321044921875 220.36279296875 171.12844848632812 C 216.37158203125 171.4036865234375 212.5185546875 171.74771118164062 208.80322265625 172.16055297851562 C 208.666015625 167.27523803710938 208.52783203125 162.389892578125 208.390625 157.50457763671875"/>
  </g>
</svg>
