<?xml version="1.0" encoding="utf-8"?>
<svg xmlns="http://www.w3.org/2000/svg" xmlns:ev="http://www.w3.org/2001/xml-events" xmlns:xlink="http://www.w3.org/1999/xlink" version="1.1" baseProfile="full" width="16896.0" height="1920.0" viewBox="192.0 -1690.0 16896.0 1920.0">
<defs/>
<g><path d="M 13632.000000 230.000000 C 13632.000000 -410.000000 13632.000000 -1050.000000 13632.000000 -1690.000000 C 14144.000000 -1690.000000 14656.000000 -1690.000000 15168.000000 -1690.000000 C 15168.000000 -1050.000000 15168.000000 -410.000000 15168.000000 230.000000 C 14656.000000 230.000000 14144.000000 230.000000 13632.000000 230.000000z M 14400.000000 -808.000000 C 14603.666667 -1070.000000 14807.333333 -1332.000000 15011.000000 -1594.000000 C 14603.666667 -1594.000000 14196.333333 -1594.000000 13789.000000 -1594.000000 C 13992.666667 -1332.000000 14196.333333 -1070.000000 14400.000000 -808.000000z M 14461.000000 -730.000000 C 14664.666667 -468.000000 14868.333333 -206.000000 15072.000000 56.000000 C 15072.000000 -467.666667 15072.000000 -991.333333 15072.000000 -1515.000000 C 14868.333333 -1253.333333 14664.666667 -991.666667 14461.000000 -730.000000z M 13789.000000 134.000000 C 14196.333333 134.000000 14603.666667 134.000000 15011.000000 134.000000 C 14807.333333 -127.666667 14603.666667 -389.333333 14400.000000 -651.000000 C 14196.333333 -389.333333 13992.666667 -127.666667 13789.000000 134.000000z M 13728.000000 -1515.000000 C 13728.000000 -991.333333 13728.000000 -467.666667 13728.000000 56.000000 C 13931.666667 -206.000000 14135.333333 -468.000000 14339.000000 -730.000000 C 14135.333333 -991.666667 13931.666667 -1253.333333 13728.000000 -1515.000000z "/>
</g></svg>
