<?xml version="1.0" encoding="utf-8"?>
<svg xmlns="http://www.w3.org/2000/svg" xmlns:ev="http://www.w3.org/2001/xml-events" xmlns:xlink="http://www.w3.org/1999/xlink" version="1.1" baseProfile="full" width="5184.0" height="1536.0" viewBox="361.0 -1473.0 5184.0 1536.0">
<defs/>
<g><path d="M 1450.000000 -649.000000 C 1450.000000 -715.666667 1433.333333 -773.000000 1400.000000 -821.000000 C 1366.666667 -869.000000 1321.333333 -906.333333 1264.000000 -933.000000 C 1207.333333 -959.666667 1143.000000 -973.000000 1071.000000 -973.000000 C 993.000000 -973.000000 920.666667 -967.333333 854.000000 -956.000000 C 788.000000 -944.666667 727.333333 -931.333333 672.000000 -916.000000 C 616.666667 -900.666667 567.333333 -886.666667 524.000000 -874.000000 C 492.000000 -864.666667 465.666667 -856.000000 445.000000 -848.000000 C 425.000000 -840.666667 405.333333 -833.333333 386.000000 -826.000000 C 377.666667 -852.000000 369.333333 -878.000000 361.000000 -904.000000 C 383.000000 -906.666667 405.666667 -910.333333 429.000000 -915.000000 C 453.000000 -919.666667 478.333333 -924.333333 505.000000 -929.000000 C 548.333333 -939.666667 600.000000 -952.666667 660.000000 -968.000000 C 720.666667 -983.333333 786.333333 -997.000000 857.000000 -1009.000000 C 928.333333 -1021.000000 999.666667 -1027.000000 1071.000000 -1027.000000 C 1151.666667 -1027.000000 1225.000000 -1012.666667 1291.000000 -984.000000 C 1357.000000 -955.333333 1409.000000 -912.666667 1447.000000 -856.000000 C 1485.666667 -800.000000 1505.000000 -730.333333 1505.000000 -647.000000 C 1505.000000 -542.333333 1484.000000 -450.000000 1442.000000 -370.000000 C 1400.000000 -290.000000 1341.000000 -221.000000 1265.000000 -163.000000 C 1189.666667 -105.666667 1102.000000 -58.333333 1002.000000 -21.000000 C 902.000000 16.333333 794.666667 44.333333 680.000000 63.000000 C 667.000000 46.000000 654.000000 29.000000 641.000000 12.000000 C 755.000000 -4.000000 861.000000 -29.333333 959.000000 -64.000000 C 1057.000000 -99.333333 1142.666667 -143.666667 1216.000000 -197.000000 C 1290.000000 -251.000000 1347.333333 -315.666667 1388.000000 -391.000000 C 1429.333333 -467.000000 1450.000000 -553.000000 1450.000000 -649.000000z M 591.000000 -1457.000000 C 641.000000 -1445.666667 701.000000 -1434.333333 771.000000 -1423.000000 C 841.000000 -1412.333333 913.000000 -1402.666667 987.000000 -1394.000000 C 1061.000000 -1386.000000 1131.000000 -1379.333333 1197.000000 -1374.000000 C 1263.000000 -1369.333333 1317.666667 -1366.333333 1361.000000 -1365.000000 C 1358.000000 -1345.333333 1355.000000 -1325.666667 1352.000000 -1306.000000 C 1302.000000 -1309.333333 1243.666667 -1314.000000 1177.000000 -1320.000000 C 1110.333333 -1326.000000 1041.000000 -1333.000000 969.000000 -1341.000000 C 897.666667 -1349.666667 828.333333 -1358.666667 761.000000 -1368.000000 C 693.666667 -1377.333333 633.333333 -1386.666667 580.000000 -1396.000000 C 583.666667 -1416.333333 587.333333 -1436.666667 591.000000 -1457.000000z "/>
</g>
<g><path d="M 2519.000000 -1473.000000 C 2569.000000 -1459.666667 2627.333333 -1447.000000 2694.000000 -1435.000000 C 2760.666667 -1423.000000 2829.000000 -1411.666667 2899.000000 -1401.000000 C 2969.666667 -1391.000000 3036.000000 -1382.666667 3098.000000 -1376.000000 C 3160.000000 -1370.000000 3212.000000 -1365.666667 3254.000000 -1363.000000 C 3250.333333 -1344.000000 3246.666667 -1325.000000 3243.000000 -1306.000000 C 3197.000000 -1309.333333 3144.000000 -1314.666667 3084.000000 -1322.000000 C 3024.666667 -1330.000000 2962.000000 -1338.666667 2896.000000 -1348.000000 C 2830.000000 -1358.000000 2763.666667 -1368.666667 2697.000000 -1380.000000 C 2631.000000 -1392.000000 2568.000000 -1403.666667 2508.000000 -1415.000000 C 2511.666667 -1434.333333 2515.333333 -1453.666667 2519.000000 -1473.000000z M 3262.000000 -983.000000 C 3252.000000 -975.666667 3236.666667 -963.333333 3216.000000 -946.000000 C 3195.333333 -928.666667 3182.000000 -916.666667 3176.000000 -910.000000 C 3160.666667 -894.666667 3135.666667 -870.666667 3101.000000 -838.000000 C 3066.333333 -805.333333 3027.666667 -768.333333 2985.000000 -727.000000 C 2943.000000 -686.333333 2902.000000 -647.000000 2862.000000 -609.000000 C 2822.666667 -571.666667 2791.000000 -540.333333 2767.000000 -515.000000 C 2778.333333 -517.000000 2791.666667 -518.666667 2807.000000 -520.000000 C 2822.333333 -521.333333 2834.666667 -522.000000 2844.000000 -522.000000 C 2891.333333 -522.000000 2929.000000 -508.666667 2957.000000 -482.000000 C 2985.000000 -455.333333 3005.333333 -420.666667 3018.000000 -378.000000 C 3024.666667 -358.000000 3032.333333 -332.333333 3041.000000 -301.000000 C 3050.333333 -270.333333 3059.333333 -239.000000 3068.000000 -207.000000 C 3077.333333 -175.000000 3085.666667 -147.000000 3093.000000 -123.000000 C 3107.000000 -79.666667 3128.000000 -48.666667 3156.000000 -30.000000 C 3184.666667 -11.333333 3229.666667 -2.000000 3291.000000 -2.000000 C 3327.000000 -2.000000 3366.666667 -3.666667 3410.000000 -7.000000 C 3453.333333 -11.000000 3495.333333 -16.666667 3536.000000 -24.000000 C 3577.333333 -31.333333 3612.000000 -39.333333 3640.000000 -48.000000 C 3638.666667 -24.333333 3637.333333 -0.666667 3636.000000 23.000000 C 3609.333333 28.333333 3575.666667 33.000000 3535.000000 37.000000 C 3495.000000 41.666667 3453.666667 45.666667 3411.000000 49.000000 C 3368.333333 52.333333 3329.000000 54.000000 3293.000000 54.000000 C 3229.000000 54.000000 3174.666667 43.000000 3130.000000 21.000000 C 3086.000000 -1.000000 3055.000000 -44.333333 3037.000000 -109.000000 C 3032.333333 -128.333333 3025.333333 -154.333333 3016.000000 -187.000000 C 3007.333333 -219.666667 2998.333333 -252.333333 2989.000000 -285.000000 C 2980.333333 -317.666667 2972.000000 -344.333333 2964.000000 -365.000000 C 2952.666667 -398.333333 2936.000000 -425.000000 2914.000000 -445.000000 C 2892.666667 -465.666667 2865.333333 -476.000000 2832.000000 -476.000000 C 2798.666667 -476.000000 2769.000000 -470.666667 2743.000000 -460.000000 C 2717.666667 -449.333333 2694.333333 -434.333333 2673.000000 -415.000000 C 2657.666667 -401.000000 2635.333333 -379.666667 2606.000000 -351.000000 C 2577.333333 -323.000000 2545.333333 -290.666667 2510.000000 -254.000000 C 2475.333333 -218.000000 2440.333333 -180.666667 2405.000000 -142.000000 C 2369.666667 -103.333333 2337.000000 -67.333333 2307.000000 -34.000000 C 2277.000000 -1.333333 2253.666667 26.000000 2237.000000 48.000000 C 2215.333333 32.666667 2193.666667 17.333333 2172.000000 2.000000 C 2178.000000 -3.333333 2186.333333 -10.333333 2197.000000 -19.000000 C 2208.333333 -28.333333 2219.666667 -38.666667 2231.000000 -50.000000 C 2239.666667 -58.666667 2263.666667 -82.333333 2303.000000 -121.000000 C 2342.333333 -160.333333 2390.333333 -208.333333 2447.000000 -265.000000 C 2503.666667 -322.333333 2565.000000 -384.333333 2631.000000 -451.000000 C 2697.000000 -517.666667 2763.000000 -583.333333 2829.000000 -648.000000 C 2895.000000 -712.666667 2955.333333 -772.000000 3010.000000 -826.000000 C 3065.333333 -880.666667 3109.666667 -924.000000 3143.000000 -956.000000 C 3109.666667 -953.333333 3067.666667 -949.666667 3017.000000 -945.000000 C 2966.333333 -941.000000 2912.666667 -936.666667 2856.000000 -932.000000 C 2799.333333 -927.333333 2743.333333 -922.333333 2688.000000 -917.000000 C 2632.666667 -912.333333 2582.666667 -908.333333 2538.000000 -905.000000 C 2493.333333 -901.666667 2458.333333 -899.000000 2433.000000 -897.000000 C 2403.000000 -895.666667 2377.000000 -893.666667 2355.000000 -891.000000 C 2333.666667 -888.333333 2312.333333 -885.666667 2291.000000 -883.000000 C 2289.000000 -906.666667 2287.000000 -930.333333 2285.000000 -954.000000 C 2306.333333 -952.666667 2328.666667 -951.666667 2352.000000 -951.000000 C 2375.333333 -950.333333 2400.333333 -950.666667 2427.000000 -952.000000 C 2452.333333 -953.333333 2489.000000 -955.666667 2537.000000 -959.000000 C 2585.000000 -962.333333 2638.333333 -966.000000 2697.000000 -970.000000 C 2756.333333 -974.666667 2815.000000 -980.000000 2873.000000 -986.000000 C 2931.666667 -992.000000 2985.000000 -997.000000 3033.000000 -1001.000000 C 3081.000000 -1005.666667 3117.666667 -1010.000000 3143.000000 -1014.000000 C 3158.333333 -1016.666667 3172.666667 -1019.333333 3186.000000 -1022.000000 C 3199.333333 -1025.333333 3210.666667 -1029.000000 3220.000000 -1033.000000 C 3234.000000 -1016.333333 3248.000000 -999.666667 3262.000000 -983.000000z "/>
</g>
<g><path d="M 4731.000000 -1250.000000 C 4777.000000 -1240.666667 4833.333333 -1233.666667 4900.000000 -1229.000000 C 4966.666667 -1225.000000 5036.333333 -1223.000000 5109.000000 -1223.000000 C 5182.333333 -1223.000000 5252.000000 -1225.333333 5318.000000 -1230.000000 C 5384.666667 -1235.333333 5440.000000 -1242.000000 5484.000000 -1250.000000 C 5484.000000 -1229.000000 5484.000000 -1208.000000 5484.000000 -1187.000000 C 5440.000000 -1181.666667 5384.666667 -1177.333333 5318.000000 -1174.000000 C 5252.000000 -1170.666667 5182.333333 -1169.000000 5109.000000 -1169.000000 C 5036.333333 -1169.000000 4966.333333 -1170.666667 4899.000000 -1174.000000 C 4831.666667 -1177.333333 4775.666667 -1181.666667 4731.000000 -1187.000000 C 4731.000000 -1208.000000 4731.000000 -1229.000000 4731.000000 -1250.000000z M 4727.000000 -505.000000 C 4717.000000 -467.666667 4709.000000 -433.333333 4703.000000 -402.000000 C 4697.000000 -370.666667 4694.000000 -341.666667 4694.000000 -315.000000 C 4694.000000 -291.666667 4698.333333 -267.666667 4707.000000 -243.000000 C 4716.333333 -219.000000 4734.000000 -196.333333 4760.000000 -175.000000 C 4786.666667 -154.333333 4825.000000 -137.666667 4875.000000 -125.000000 C 4925.000000 -112.333333 4991.000000 -106.000000 5073.000000 -106.000000 C 5159.666667 -106.000000 5242.000000 -110.000000 5320.000000 -118.000000 C 5398.000000 -126.666667 5472.333333 -139.333333 5543.000000 -156.000000 C 5543.666667 -134.666667 5544.333333 -113.333333 5545.000000 -92.000000 C 5487.666667 -79.333333 5419.000000 -69.000000 5339.000000 -61.000000 C 5259.000000 -53.666667 5173.333333 -50.000000 5082.000000 -50.000000 C 4926.000000 -50.000000 4813.333333 -73.000000 4744.000000 -119.000000 C 4675.333333 -165.000000 4641.000000 -229.000000 4641.000000 -311.000000 C 4641.000000 -336.333333 4643.333333 -365.333333 4648.000000 -398.000000 C 4653.333333 -430.666667 4660.333333 -469.000000 4669.000000 -513.000000 C 4688.333333 -510.333333 4707.666667 -507.666667 4727.000000 -505.000000z M 4295.000000 -1417.000000 C 4292.333333 -1409.000000 4289.666667 -1400.666667 4287.000000 -1392.000000 C 4285.000000 -1383.333333 4282.666667 -1374.000000 4280.000000 -1364.000000 C 4277.333333 -1354.666667 4274.666667 -1344.000000 4272.000000 -1332.000000 C 4263.333333 -1286.000000 4254.000000 -1237.666667 4244.000000 -1187.000000 C 4234.666667 -1137.000000 4225.666667 -1085.333333 4217.000000 -1032.000000 C 4209.000000 -978.666667 4201.666667 -925.000000 4195.000000 -871.000000 C 4189.000000 -817.666667 4184.000000 -765.000000 4180.000000 -713.000000 C 4176.000000 -661.666667 4174.000000 -611.666667 4174.000000 -563.000000 C 4174.000000 -488.333333 4176.333333 -420.000000 4181.000000 -358.000000 C 4185.666667 -296.000000 4192.333333 -227.333333 4201.000000 -152.000000 C 4213.666667 -187.333333 4228.000000 -227.333333 4244.000000 -272.000000 C 4260.000000 -317.333333 4276.000000 -361.666667 4292.000000 -405.000000 C 4308.000000 -448.333333 4321.666667 -485.333333 4333.000000 -516.000000 C 4347.333333 -506.000000 4361.666667 -496.000000 4376.000000 -486.000000 C 4362.000000 -448.666667 4345.333333 -404.666667 4326.000000 -354.000000 C 4306.666667 -303.333333 4289.000000 -254.333333 4273.000000 -207.000000 C 4257.000000 -159.666667 4246.333333 -122.666667 4241.000000 -96.000000 C 4238.333333 -83.333333 4236.000000 -69.666667 4234.000000 -55.000000 C 4232.666667 -40.333333 4232.666667 -26.333333 4234.000000 -13.000000 C 4235.333333 -4.333333 4236.333333 5.000000 4237.000000 15.000000 C 4238.333333 25.666667 4239.666667 34.000000 4241.000000 40.000000 C 4223.333333 42.000000 4205.666667 44.000000 4188.000000 46.000000 C 4168.666667 -25.333333 4152.333333 -112.333333 4139.000000 -215.000000 C 4126.333333 -317.666667 4120.000000 -433.666667 4120.000000 -563.000000 C 4120.000000 -631.666667 4123.333333 -702.333333 4130.000000 -775.000000 C 4137.333333 -848.333333 4146.333333 -920.000000 4157.000000 -990.000000 C 4168.333333 -1060.666667 4179.000000 -1126.000000 4189.000000 -1186.000000 C 4199.666667 -1246.666667 4208.000000 -1298.000000 4214.000000 -1340.000000 C 4216.666667 -1358.000000 4218.666667 -1373.666667 4220.000000 -1387.000000 C 4221.333333 -1400.333333 4222.000000 -1413.000000 4222.000000 -1425.000000 C 4246.333333 -1422.333333 4270.666667 -1419.666667 4295.000000 -1417.000000z "/>
</g>
</svg>
