<?xml version="1.0" ?>
<svg xmlns="http://www.w3.org/2000/svg" version="1.1" width="600" height="600">
  <defs/>
  <g>
    <path stroke-width="0" fill="rgb(0, 0, 0)" opacity="1.0" d="M 192.69775390625 185.47149658203125 C 227.99365234375 185.47149658203125 263.289794921875 185.47149658203125 298.585693359375 185.47149658203125 C 298.585693359375 189.27114868164062 298.585693359375 193.07080078125 298.585693359375 196.8704833984375 C 263.289794921875 196.8704833984375 227.99365234375 196.8704833984375 192.69775390625 196.8704833984375 C 192.69775390625 193.07080078125 192.69775390625 189.27114868164062 192.69775390625 185.47149658203125M 373.805419921875 121.22280883789062 C 377.6044921875 121.22280883789062 381.403564453125 121.22280883789062 385.202392578125 121.22280883789062 C 385.202392578125 240.53195190429688 385.202392578125 359.84112548828125 385.202392578125 479.1502685546875 C 381.403564453125 479.1502685546875 377.6044921875 479.1502685546875 373.805419921875 479.1502685546875 C 373.805419921875 359.84112548828125 373.805419921875 240.53195190429688 373.805419921875 121.22280883789062M 149.8037109375 267.3367919921875 C 152.290283203125 264.8497314453125 154.77685546875 262.3626708984375 157.263427734375 259.8756408691406 C 169.696533203125 266.50775146484375 182.3369140625 274.1070861816406 195.184326171875 282.673583984375 C 208.169921875 291.24005126953125 220.257568359375 299.8756408691406 231.447265625 308.580322265625 C 242.775146484375 317.14678955078125 251.892822265625 325.16064453125 258.800048828125 332.62176513671875 C 256.106201171875 335.5233154296875 253.412353515625 338.42486572265625 250.718505859375 341.326416015625 C 243.811279296875 334.1416015625 234.7626953125 326.1278076171875 223.572998046875 317.28497314453125 C 212.521484375 308.442138671875 200.572021484375 299.66839599609375 187.724365234375 290.9637451171875 C 174.876953125 282.12091064453125 162.23681640625 274.2452392578125 149.8037109375 267.3367919921875M 210.932861328125 121.22280883789062 C 214.93896484375 122.05181884765625 218.9453125 122.88082885742188 222.951416015625 123.7098388671875 C 216.044189453125 148.85665893554688 207.6171875 172.75991821289062 197.6708984375 195.419677734375 C 187.724365234375 217.9412841796875 176.53466796875 238.66665649414062 164.1015625 257.5958557128906 C 151.806884765625 276.5250244140625 138.2685546875 293.3126220703125 123.487060546875 307.95855712890625 C 122.9345703125 307.1295166015625 121.967529296875 306.300537109375 120.586181640625 305.47149658203125 C 119.3427734375 304.50433349609375 118.030517578125 303.5371398925781 116.64892578125 302.5699462890625 C 115.405517578125 301.6027526855469 114.09326171875 300.84283447265625 112.7119140625 300.2901611328125 C 127.769775390625 286.3350830078125 141.446044921875 270.10015869140625 153.74072265625 251.58551025390625 C 166.173828125 232.93264770507812 177.15625 212.55267333984375 186.6884765625 190.44558715820312 C 196.220458984375 168.20034790039062 204.3017578125 145.1260986328125 210.932861328125 121.22280883789062M 316.40625 213.65802001953125 C 325.662109375 230.37649536132812 336.713623046875 246.74957275390625 349.56103515625 262.7772216796875 C 362.546875 278.8048095703125 376.637451171875 294.0725402832031 391.83349609375 308.580322265625 C 407.029296875 322.94989013671875 422.77783203125 335.8687744140625 439.078857421875 347.3367919921875 C 455.380126953125 358.8048095703125 471.54296875 368.2003173828125 487.56787109375 375.5233154296875 C 486.73876953125 376.07598876953125 485.771728515625 376.905029296875 484.666748046875 378.0103759765625 C 483.69970703125 379.11572265625 482.8017578125 380.2210693359375 481.972900390625 381.326416015625 C 481.14404296875 382.2935791015625 480.315185546875 383.32989501953125 479.486328125 384.43524169921875 C 463.599609375 376.42138671875 447.505859375 366.4732666015625 431.20458984375 354.5906982421875 C 414.903564453125 342.5699462890625 399.01708984375 329.23663330078125 383.544677734375 314.5906982421875 C 368.210693359375 299.80657958984375 353.981689453125 284.19342041015625 340.85791015625 267.75128173828125 C 327.734375 251.30914306640625 316.40625 234.72882080078125 306.874267578125 218.0103759765625 C 310.051513671875 216.5595703125 313.22900390625 215.10882568359375 316.40625 213.65802001953125M 294.44140625 185.47149658203125 C 295.270263671875 185.47149658203125 296.09912109375 185.47149658203125 296.927978515625 185.47149658203125 C 297.82568359375 185.19515991210938 298.723876953125 184.9188232421875 299.621826171875 184.64248657226562 C 302.039306640625 185.54058837890625 304.456787109375 186.43869018554688 306.874267578125 187.3367919921875 C 298.86181640625 239.42660522460938 286.2216796875 284.40069580078125 268.95361328125 322.259033203125 C 251.823486328125 359.979248046875 231.30908203125 391.6199951171875 207.41015625 417.18133544921875 C 183.510986328125 442.74267578125 157.539794921875 463.39892578125 129.496337890625 479.1502685546875 C 128.66748046875 478.044921875 127.63134765625 476.9395751953125 126.38818359375 475.834228515625 C 125.282958984375 474.86700439453125 124.177734375 473.83074951171875 123.07275390625 472.72540283203125 C 121.967529296875 471.6199951171875 120.931396484375 470.791015625 119.96435546875 470.23834228515625 C 148.2841796875 455.1778564453125 174.25537109375 435.143310546875 197.878173828125 410.13470458984375 C 221.500732421875 384.9879150390625 241.669921875 354.1761474609375 258.385498046875 317.699462890625 C 275.10107421875 281.2227783203125 287.11962890625 238.18307495117188 294.44140625 188.580322265625 C 294.44140625 187.54403686523438 294.44140625 186.50778198242188 294.44140625 185.47149658203125"/>
  </g>
</svg>
