<?xml version="1.0" encoding="utf-8"?>
<svg xmlns="http://www.w3.org/2000/svg" xmlns:ev="http://www.w3.org/2001/xml-events" xmlns:xlink="http://www.w3.org/1999/xlink" version="1.1" baseProfile="full" width="20903.0" height="1740.0" viewBox="106.0 -1596.0 20903.0 1740.0">
<defs/>
<g><path d="M 1035.000000 -1023.000000 C 1063.000000 -1041.000000 1090.666667 -1060.333333 1118.000000 -1081.000000 C 1146.000000 -1101.666667 1167.666667 -1118.333333 1183.000000 -1131.000000 C 1154.333333 -1157.666667 1115.000000 -1187.000000 1065.000000 -1219.000000 C 1015.666667 -1251.000000 962.333333 -1282.333333 905.000000 -1313.000000 C 848.333333 -1343.666667 795.000000 -1370.000000 745.000000 -1392.000000 C 756.666667 -1406.666667 768.333333 -1421.333333 780.000000 -1436.000000 C 826.000000 -1415.333333 877.666667 -1389.000000 935.000000 -1357.000000 C 992.333333 -1325.000000 1048.333333 -1292.000000 1103.000000 -1258.000000 C 1157.666667 -1224.666667 1201.000000 -1193.333333 1233.000000 -1164.000000 C 1238.000000 -1148.000000 1243.000000 -1132.000000 1248.000000 -1116.000000 C 1238.000000 -1106.666667 1226.000000 -1096.666667 1212.000000 -1086.000000 C 1198.666667 -1076.000000 1184.333333 -1065.333333 1169.000000 -1054.000000 C 1153.666667 -1042.666667 1138.000000 -1030.666667 1122.000000 -1018.000000 C 1106.000000 -1006.000000 1089.666667 -994.333333 1073.000000 -983.000000 C 1060.333333 -996.333333 1047.666667 -1009.666667 1035.000000 -1023.000000z M 620.000000 -75.000000 C 664.666667 -62.333333 711.333333 -52.000000 760.000000 -44.000000 C 808.666667 -36.666667 870.333333 -33.000000 945.000000 -33.000000 C 971.666667 -33.000000 1002.333333 -38.000000 1037.000000 -48.000000 C 1071.666667 -58.000000 1102.000000 -77.333333 1128.000000 -106.000000 C 1154.000000 -135.333333 1167.000000 -176.000000 1167.000000 -228.000000 C 1167.000000 -264.000000 1159.000000 -301.333333 1143.000000 -340.000000 C 1127.000000 -379.333333 1105.666667 -418.666667 1079.000000 -458.000000 C 1052.333333 -498.000000 1023.000000 -537.666667 991.000000 -577.000000 C 959.000000 -617.000000 927.000000 -655.666667 895.000000 -693.000000 C 877.000000 -715.000000 856.000000 -738.000000 832.000000 -762.000000 C 808.666667 -786.666667 786.000000 -809.666667 764.000000 -831.000000 C 777.333333 -844.666667 790.666667 -858.333333 804.000000 -872.000000 C 822.000000 -851.333333 842.333333 -828.000000 865.000000 -802.000000 C 887.666667 -776.666667 909.000000 -752.666667 929.000000 -730.000000 C 980.333333 -673.333333 1028.333333 -616.666667 1073.000000 -560.000000 C 1117.666667 -504.000000 1153.666667 -447.666667 1181.000000 -391.000000 C 1209.000000 -335.000000 1223.000000 -279.000000 1223.000000 -223.000000 C 1223.000000 -169.000000 1212.333333 -125.666667 1191.000000 -93.000000 C 1170.333333 -60.333333 1144.666667 -36.000000 1114.000000 -20.000000 C 1083.333333 -4.000000 1052.000000 6.666667 1020.000000 12.000000 C 988.666667 18.000000 963.666667 21.000000 945.000000 21.000000 C 875.666667 21.000000 815.333333 17.666667 764.000000 11.000000 C 712.666667 5.000000 667.333333 -2.000000 628.000000 -10.000000 C 625.333333 -31.666667 622.666667 -53.333333 620.000000 -75.000000z M 1772.000000 -79.000000 C 1756.666667 -122.333333 1736.666667 -170.000000 1712.000000 -222.000000 C 1688.000000 -274.666667 1661.000000 -328.000000 1631.000000 -382.000000 C 1601.000000 -436.000000 1569.333333 -487.000000 1536.000000 -535.000000 C 1502.666667 -583.000000 1468.666667 -624.333333 1434.000000 -659.000000 C 1448.666667 -669.000000 1463.333333 -679.000000 1478.000000 -689.000000 C 1514.000000 -648.333333 1549.333333 -603.000000 1584.000000 -553.000000 C 1618.666667 -503.000000 1651.333333 -451.333333 1682.000000 -398.000000 C 1712.666667 -345.333333 1740.000000 -294.000000 1764.000000 -244.000000 C 1788.666667 -194.000000 1808.666667 -149.000000 1824.000000 -109.000000 C 1806.666667 -99.000000 1789.333333 -89.000000 1772.000000 -79.000000z M 634.000000 -463.000000 C 595.333333 -424.333333 548.333333 -381.333333 493.000000 -334.000000 C 438.333333 -286.666667 380.333333 -240.666667 319.000000 -196.000000 C 257.666667 -151.333333 198.666667 -113.000000 142.000000 -81.000000 C 130.000000 -97.000000 118.000000 -113.000000 106.000000 -129.000000 C 144.000000 -149.000000 186.000000 -174.333333 232.000000 -205.000000 C 278.000000 -236.333333 324.000000 -269.333333 370.000000 -304.000000 C 416.666667 -339.333333 460.000000 -374.666667 500.000000 -410.000000 C 540.666667 -445.333333 573.666667 -477.000000 599.000000 -505.000000 C 610.666667 -491.000000 622.333333 -477.000000 634.000000 -463.000000z "/>
</g>
<g><path d="M 2966.000000 -38.000000 C 2968.666667 -50.000000 2971.000000 -62.333333 2973.000000 -75.000000 C 2975.000000 -87.666667 2976.000000 -100.333333 2976.000000 -113.000000 C 2976.000000 -123.666667 2976.000000 -151.333333 2976.000000 -196.000000 C 2976.000000 -240.666667 2976.000000 -296.666667 2976.000000 -364.000000 C 2976.000000 -431.333333 2976.000000 -504.000000 2976.000000 -582.000000 C 2976.000000 -660.000000 2976.000000 -738.333333 2976.000000 -817.000000 C 2976.000000 -895.666667 2976.000000 -968.666667 2976.000000 -1036.000000 C 2976.000000 -1103.333333 2976.000000 -1160.000000 2976.000000 -1206.000000 C 2976.000000 -1252.000000 2976.000000 -1281.333333 2976.000000 -1294.000000 C 2976.000000 -1323.333333 2975.333333 -1347.333333 2974.000000 -1366.000000 C 2972.666667 -1384.666667 2971.333333 -1400.333333 2970.000000 -1413.000000 C 2993.000000 -1413.000000 3016.000000 -1413.000000 3039.000000 -1413.000000 C 3037.666667 -1400.333333 3036.666667 -1384.666667 3036.000000 -1366.000000 C 3036.000000 -1347.333333 3036.000000 -1323.333333 3036.000000 -1294.000000 C 3036.000000 -1281.333333 3036.000000 -1250.333333 3036.000000 -1201.000000 C 3036.000000 -1151.666667 3036.000000 -1090.333333 3036.000000 -1017.000000 C 3036.000000 -944.333333 3036.000000 -865.666667 3036.000000 -781.000000 C 3036.000000 -697.000000 3036.000000 -614.000000 3036.000000 -532.000000 C 3036.000000 -450.000000 3036.000000 -375.000000 3036.000000 -307.000000 C 3036.000000 -239.000000 3036.000000 -184.666667 3036.000000 -144.000000 C 3036.000000 -103.333333 3036.000000 -83.000000 3036.000000 -83.000000 C 3102.000000 -115.000000 3174.666667 -157.000000 3254.000000 -209.000000 C 3333.333333 -261.666667 3410.666667 -323.000000 3486.000000 -393.000000 C 3562.000000 -463.666667 3627.000000 -540.000000 3681.000000 -622.000000 C 3693.000000 -605.333333 3705.000000 -588.666667 3717.000000 -572.000000 C 3659.666667 -491.333333 3594.333333 -417.000000 3521.000000 -349.000000 C 3448.333333 -281.666667 3372.333333 -221.333333 3293.000000 -168.000000 C 3213.666667 -114.666667 3135.666667 -69.666667 3059.000000 -33.000000 C 3047.000000 -27.666667 3036.666667 -22.000000 3028.000000 -16.000000 C 3020.000000 -10.666667 3013.666667 -6.000000 3009.000000 -2.000000 C 2994.666667 -14.000000 2980.333333 -26.000000 2966.000000 -38.000000z M 2097.000000 -29.000000 C 2173.666667 -85.000000 2241.666667 -153.666667 2301.000000 -235.000000 C 2360.333333 -316.333333 2406.000000 -409.000000 2438.000000 -513.000000 C 2452.666667 -560.333333 2464.000000 -618.000000 2472.000000 -686.000000 C 2480.000000 -754.666667 2485.666667 -826.666667 2489.000000 -902.000000 C 2492.333333 -978.000000 2494.333333 -1050.666667 2495.000000 -1120.000000 C 2495.666667 -1190.000000 2496.000000 -1250.000000 2496.000000 -1300.000000 C 2496.000000 -1318.000000 2495.333333 -1335.333333 2494.000000 -1352.000000 C 2492.666667 -1368.666667 2490.666667 -1385.333333 2488.000000 -1402.000000 C 2511.666667 -1402.000000 2535.333333 -1402.000000 2559.000000 -1402.000000 C 2557.666667 -1390.000000 2556.666667 -1378.333333 2556.000000 -1367.000000 C 2556.000000 -1355.666667 2555.666667 -1344.333333 2555.000000 -1333.000000 C 2554.333333 -1322.333333 2554.000000 -1311.333333 2554.000000 -1300.000000 C 2554.000000 -1250.000000 2553.333333 -1189.333333 2552.000000 -1118.000000 C 2550.666667 -1047.333333 2547.666667 -972.666667 2543.000000 -894.000000 C 2538.333333 -815.333333 2532.000000 -740.666667 2524.000000 -670.000000 C 2516.666667 -599.333333 2506.000000 -540.333333 2492.000000 -493.000000 C 2464.000000 -396.333333 2420.000000 -303.666667 2360.000000 -215.000000 C 2300.666667 -127.000000 2231.333333 -52.000000 2152.000000 10.000000 C 2133.666667 -3.000000 2115.333333 -16.000000 2097.000000 -29.000000z "/>
</g>
<g><path d="M 5282.000000 -1500.000000 C 5298.666667 -1478.000000 5316.333333 -1451.666667 5335.000000 -1421.000000 C 5354.333333 -1390.333333 5373.666667 -1359.000000 5393.000000 -1327.000000 C 5412.333333 -1295.000000 5429.000000 -1264.666667 5443.000000 -1236.000000 C 5425.000000 -1227.333333 5407.000000 -1218.666667 5389.000000 -1210.000000 C 5371.666667 -1248.000000 5347.000000 -1292.666667 5315.000000 -1344.000000 C 5283.666667 -1395.333333 5255.333333 -1439.000000 5230.000000 -1475.000000 C 5247.333333 -1483.333333 5264.666667 -1491.666667 5282.000000 -1500.000000z M 5476.000000 -1567.000000 C 5494.000000 -1543.666667 5513.000000 -1516.333333 5533.000000 -1485.000000 C 5553.666667 -1453.666667 5574.000000 -1422.333333 5594.000000 -1391.000000 C 5614.000000 -1359.666667 5630.333333 -1331.333333 5643.000000 -1306.000000 C 5625.000000 -1297.000000 5607.000000 -1288.000000 5589.000000 -1279.000000 C 5567.000000 -1322.333333 5541.333333 -1368.000000 5512.000000 -1416.000000 C 5482.666667 -1464.000000 5454.000000 -1506.000000 5426.000000 -1542.000000 C 5442.666667 -1550.333333 5459.333333 -1558.666667 5476.000000 -1567.000000z M 5364.000000 -1158.000000 C 5359.333333 -1148.666667 5354.666667 -1136.666667 5350.000000 -1122.000000 C 5345.333333 -1107.333333 5342.000000 -1097.000000 5340.000000 -1091.000000 C 5323.333333 -1019.000000 5298.333333 -943.333333 5265.000000 -864.000000 C 5231.666667 -784.666667 5192.000000 -706.000000 5146.000000 -628.000000 C 5100.666667 -550.000000 5050.000000 -477.000000 4994.000000 -409.000000 C 4910.666667 -307.666667 4808.666667 -214.000000 4688.000000 -128.000000 C 4568.000000 -42.666667 4418.333333 31.333333 4239.000000 94.000000 C 4222.000000 77.333333 4205.000000 60.666667 4188.000000 44.000000 C 4292.666667 14.666667 4391.000000 -24.333333 4483.000000 -73.000000 C 4575.000000 -121.666667 4660.333333 -177.333333 4739.000000 -240.000000 C 4818.333333 -302.666667 4888.000000 -370.666667 4948.000000 -444.000000 C 5004.000000 -511.333333 5054.333333 -584.000000 5099.000000 -662.000000 C 5144.333333 -740.666667 5183.333333 -819.333333 5216.000000 -898.000000 C 5248.666667 -976.666667 5272.666667 -1050.333333 5288.000000 -1119.000000 C 5029.333333 -1119.000000 4770.666667 -1119.000000 4512.000000 -1119.000000 C 4523.666667 -1138.333333 4535.333333 -1157.666667 4547.000000 -1177.000000 C 4561.000000 -1177.000000 4591.000000 -1177.000000 4637.000000 -1177.000000 C 4683.000000 -1177.000000 4736.333333 -1177.000000 4797.000000 -1177.000000 C 4857.666667 -1177.000000 4918.333333 -1177.000000 4979.000000 -1177.000000 C 5040.333333 -1177.000000 5093.333333 -1177.000000 5138.000000 -1177.000000 C 5182.666667 -1177.000000 5210.666667 -1177.000000 5222.000000 -1177.000000 C 5244.000000 -1177.000000 5261.333333 -1178.000000 5274.000000 -1180.000000 C 5286.666667 -1182.000000 5297.666667 -1185.333333 5307.000000 -1190.000000 C 5326.000000 -1179.333333 5345.000000 -1168.666667 5364.000000 -1158.000000z M 4704.000000 -1434.000000 C 4695.333333 -1417.333333 4686.333333 -1399.333333 4677.000000 -1380.000000 C 4668.333333 -1361.333333 4660.000000 -1344.333333 4652.000000 -1329.000000 C 4620.000000 -1265.000000 4578.000000 -1193.333333 4526.000000 -1114.000000 C 4474.666667 -1034.666667 4409.333333 -954.000000 4330.000000 -872.000000 C 4251.333333 -790.000000 4155.333333 -711.666667 4042.000000 -637.000000 C 4024.666667 -650.000000 4007.333333 -663.000000 3990.000000 -676.000000 C 4072.000000 -723.333333 4146.000000 -776.666667 4212.000000 -836.000000 C 4278.666667 -895.333333 4337.666667 -956.333333 4389.000000 -1019.000000 C 4440.333333 -1082.333333 4483.666667 -1143.000000 4519.000000 -1201.000000 C 4554.333333 -1259.000000 4580.666667 -1310.666667 4598.000000 -1356.000000 C 4603.333333 -1366.000000 4609.333333 -1381.333333 4616.000000 -1402.000000 C 4623.333333 -1423.333333 4628.333333 -1442.333333 4631.000000 -1459.000000 C 4655.333333 -1450.666667 4679.666667 -1442.333333 4704.000000 -1434.000000z "/>
</g>
<g><path d="M 7309.000000 -1350.000000 C 7309.000000 -1310.000000 7322.666667 -1276.333333 7350.000000 -1249.000000 C 7378.000000 -1221.666667 7412.000000 -1208.000000 7452.000000 -1208.000000 C 7491.333333 -1208.000000 7525.000000 -1221.666667 7553.000000 -1249.000000 C 7581.666667 -1276.333333 7596.000000 -1310.000000 7596.000000 -1350.000000 C 7596.000000 -1389.333333 7581.666667 -1423.000000 7553.000000 -1451.000000 C 7525.000000 -1479.666667 7491.333333 -1494.000000 7452.000000 -1494.000000 C 7412.000000 -1494.000000 7378.000000 -1479.666667 7350.000000 -1451.000000 C 7322.666667 -1423.000000 7309.000000 -1389.333333 7309.000000 -1350.000000z M 7252.000000 -1350.000000 C 7252.000000 -1386.666667 7261.000000 -1420.333333 7279.000000 -1451.000000 C 7297.000000 -1482.333333 7321.000000 -1506.666667 7351.000000 -1524.000000 C 7381.000000 -1542.000000 7414.666667 -1551.000000 7452.000000 -1551.000000 C 7488.666667 -1551.000000 7522.333333 -1542.000000 7553.000000 -1524.000000 C 7583.666667 -1506.666667 7608.000000 -1482.333333 7626.000000 -1451.000000 C 7644.000000 -1420.333333 7653.000000 -1386.666667 7653.000000 -1350.000000 C 7653.000000 -1312.666667 7644.000000 -1279.000000 7626.000000 -1249.000000 C 7608.000000 -1219.000000 7583.666667 -1195.000000 7553.000000 -1177.000000 C 7522.333333 -1159.000000 7488.666667 -1150.000000 7452.000000 -1150.000000 C 7414.666667 -1150.000000 7381.000000 -1159.000000 7351.000000 -1177.000000 C 7321.000000 -1195.000000 7297.000000 -1219.000000 7279.000000 -1249.000000 C 7261.000000 -1279.000000 7252.000000 -1312.666667 7252.000000 -1350.000000z M 7352.000000 -1244.000000 C 7348.000000 -1235.333333 7345.000000 -1227.666667 7343.000000 -1221.000000 C 7341.000000 -1215.000000 7338.666667 -1203.000000 7336.000000 -1185.000000 C 7327.333333 -1131.000000 7314.333333 -1072.000000 7297.000000 -1008.000000 C 7279.666667 -944.000000 7258.666667 -879.000000 7234.000000 -813.000000 C 7210.000000 -747.000000 7182.666667 -684.333333 7152.000000 -625.000000 C 7121.333333 -565.666667 7088.000000 -513.333333 7052.000000 -468.000000 C 6993.333333 -395.333333 6930.000000 -328.333333 6862.000000 -267.000000 C 6794.000000 -205.666667 6715.333333 -150.333333 6626.000000 -101.000000 C 6537.333333 -51.666667 6433.000000 -8.333333 6313.000000 29.000000 C 6295.666667 9.666667 6278.333333 -9.666667 6261.000000 -29.000000 C 6383.000000 -62.333333 6489.000000 -102.000000 6579.000000 -148.000000 C 6669.000000 -194.000000 6749.000000 -246.666667 6819.000000 -306.000000 C 6889.000000 -366.000000 6951.333333 -431.666667 7006.000000 -503.000000 C 7054.666667 -565.666667 7097.666667 -639.333333 7135.000000 -724.000000 C 7173.000000 -808.666667 7204.666667 -894.000000 7230.000000 -980.000000 C 7256.000000 -1066.666667 7273.666667 -1144.000000 7283.000000 -1212.000000 C 7265.000000 -1212.000000 7228.333333 -1212.000000 7173.000000 -1212.000000 C 7118.333333 -1212.000000 7052.666667 -1212.000000 6976.000000 -1212.000000 C 6900.000000 -1212.000000 6820.333333 -1212.000000 6737.000000 -1212.000000 C 6653.666667 -1212.000000 6574.666667 -1212.000000 6500.000000 -1212.000000 C 6425.333333 -1212.000000 6362.000000 -1212.000000 6310.000000 -1212.000000 C 6258.000000 -1212.000000 6225.666667 -1212.000000 6213.000000 -1212.000000 C 6181.000000 -1212.000000 6153.333333 -1211.666667 6130.000000 -1211.000000 C 6107.333333 -1210.333333 6084.000000 -1209.333333 6060.000000 -1208.000000 C 6060.000000 -1231.000000 6060.000000 -1254.000000 6060.000000 -1277.000000 C 6076.000000 -1275.666667 6091.666667 -1274.000000 6107.000000 -1272.000000 C 6123.000000 -1270.000000 6139.666667 -1268.666667 6157.000000 -1268.000000 C 6175.000000 -1267.333333 6194.333333 -1267.000000 6215.000000 -1267.000000 C 6225.000000 -1267.000000 6250.000000 -1267.000000 6290.000000 -1267.000000 C 6330.666667 -1267.000000 6380.666667 -1267.000000 6440.000000 -1267.000000 C 6500.000000 -1267.000000 6564.333333 -1267.000000 6633.000000 -1267.000000 C 6702.333333 -1267.000000 6771.333333 -1267.000000 6840.000000 -1267.000000 C 6908.666667 -1267.000000 6972.333333 -1267.000000 7031.000000 -1267.000000 C 7089.666667 -1267.000000 7138.666667 -1267.000000 7178.000000 -1267.000000 C 7218.000000 -1267.000000 7242.666667 -1267.000000 7252.000000 -1267.000000 C 7262.000000 -1267.000000 7271.000000 -1267.333333 7279.000000 -1268.000000 C 7287.666667 -1268.666667 7297.333333 -1270.333333 7308.000000 -1273.000000 C 7322.666667 -1263.333333 7337.333333 -1253.666667 7352.000000 -1244.000000z "/>
</g>
<g><path d="M 7818.000000 -1369.000000 C 8368.333333 -1369.000000 8918.666667 -1369.000000 9469.000000 -1369.000000 C 9469.000000 -1349.666667 9469.000000 -1330.333333 9469.000000 -1311.000000 C 8918.666667 -1311.000000 8368.333333 -1311.000000 7818.000000 -1311.000000 C 7818.000000 -1330.333333 7818.000000 -1349.666667 7818.000000 -1369.000000z M 7993.000000 -1050.000000 C 8428.333333 -1050.000000 8863.666667 -1050.000000 9299.000000 -1050.000000 C 9299.000000 -1031.666667 9299.000000 -1013.333333 9299.000000 -995.000000 C 8863.666667 -995.000000 8428.333333 -995.000000 7993.000000 -995.000000 C 7993.000000 -1013.333333 7993.000000 -1031.666667 7993.000000 -1050.000000z M 7893.000000 -781.000000 C 8391.000000 -781.000000 8889.000000 -781.000000 9387.000000 -781.000000 C 9387.000000 -673.000000 9387.000000 -565.000000 9387.000000 -457.000000 C 9368.333333 -457.000000 9349.666667 -457.000000 9331.000000 -457.000000 C 9331.000000 -546.000000 9331.000000 -635.000000 9331.000000 -724.000000 C 8870.333333 -724.000000 8409.666667 -724.000000 7949.000000 -724.000000 C 7949.000000 -635.000000 7949.000000 -546.000000 7949.000000 -457.000000 C 7930.333333 -457.000000 7911.666667 -457.000000 7893.000000 -457.000000 C 7893.000000 -565.000000 7893.000000 -673.000000 7893.000000 -781.000000z M 8609.000000 -1596.000000 C 8628.333333 -1596.000000 8647.666667 -1596.000000 8667.000000 -1596.000000 C 8667.000000 -1406.333333 8667.000000 -1216.666667 8667.000000 -1027.000000 C 8647.666667 -1027.000000 8628.333333 -1027.000000 8609.000000 -1027.000000 C 8609.000000 -1216.666667 8609.000000 -1406.333333 8609.000000 -1596.000000z M 8828.000000 -593.000000 C 8846.666667 -593.000000 8865.333333 -593.000000 8884.000000 -593.000000 C 8884.000000 -404.333333 8884.000000 -215.666667 8884.000000 -27.000000 C 8884.000000 -2.333333 8890.000000 13.333333 8902.000000 20.000000 C 8914.000000 27.333333 8941.333333 31.000000 8984.000000 31.000000 C 8994.000000 31.000000 9013.333333 31.000000 9042.000000 31.000000 C 9070.666667 31.000000 9102.333333 31.000000 9137.000000 31.000000 C 9171.666667 31.000000 9204.333333 31.000000 9235.000000 31.000000 C 9265.666667 31.000000 9287.333333 31.000000 9300.000000 31.000000 C 9326.000000 31.000000 9345.333333 24.666667 9358.000000 12.000000 C 9370.666667 0.000000 9380.000000 -25.333333 9386.000000 -64.000000 C 9392.000000 -103.333333 9395.333333 -162.666667 9396.000000 -242.000000 C 9401.333333 -238.000000 9407.000000 -234.333333 9413.000000 -231.000000 C 9419.666667 -228.333333 9426.333333 -225.666667 9433.000000 -223.000000 C 9440.333333 -220.333333 9446.666667 -217.666667 9452.000000 -215.000000 C 9449.333333 -133.000000 9443.666667 -70.333333 9435.000000 -27.000000 C 9427.000000 16.333333 9413.000000 46.000000 9393.000000 62.000000 C 9373.666667 78.000000 9344.000000 86.000000 9304.000000 86.000000 C 9296.666667 86.000000 9277.666667 86.000000 9247.000000 86.000000 C 9216.333333 86.000000 9182.000000 86.000000 9144.000000 86.000000 C 9106.000000 86.000000 9072.000000 86.000000 9042.000000 86.000000 C 9012.000000 86.000000 8994.000000 86.000000 8988.000000 86.000000 C 8946.666667 86.000000 8914.333333 83.000000 8891.000000 77.000000 C 8868.333333 71.666667 8852.000000 61.000000 8842.000000 45.000000 C 8832.666667 29.000000 8828.000000 5.000000 8828.000000 -27.000000 C 8828.000000 -215.666667 8828.000000 -404.333333 8828.000000 -593.000000z M 8354.000000 -589.000000 C 8373.333333 -589.000000 8392.666667 -589.000000 8412.000000 -589.000000 C 8402.666667 -489.666667 8386.666667 -401.000000 8364.000000 -323.000000 C 8342.000000 -245.666667 8309.333333 -178.000000 8266.000000 -120.000000 C 8223.333333 -62.000000 8166.333333 -12.333333 8095.000000 29.000000 C 8024.333333 71.000000 7935.333333 105.333333 7828.000000 132.000000 C 7826.666667 127.333333 7823.666667 122.000000 7819.000000 116.000000 C 7814.333333 110.666667 7809.333333 105.000000 7804.000000 99.000000 C 7799.333333 93.000000 7795.000000 88.000000 7791.000000 84.000000 C 7897.666667 58.666667 7985.333333 27.000000 8054.000000 -11.000000 C 8123.333333 -49.666667 8178.333333 -96.333333 8219.000000 -151.000000 C 8260.333333 -206.333333 8291.000000 -270.000000 8311.000000 -342.000000 C 8331.666667 -414.666667 8346.000000 -497.000000 8354.000000 -589.000000z "/>
</g>
<g><path d="M 10500.000000 -927.000000 C 10760.000000 -927.000000 11020.000000 -927.000000 11280.000000 -927.000000 C 11280.000000 -908.666667 11280.000000 -890.333333 11280.000000 -872.000000 C 11020.000000 -872.000000 10760.000000 -872.000000 10500.000000 -872.000000 C 10500.000000 -890.333333 10500.000000 -908.666667 10500.000000 -927.000000z M 9713.000000 -10.000000 C 10278.333333 -10.000000 10843.666667 -10.000000 11409.000000 -10.000000 C 11409.000000 8.666667 11409.000000 27.333333 11409.000000 46.000000 C 10843.666667 46.000000 10278.333333 46.000000 9713.000000 46.000000 C 9713.000000 27.333333 9713.000000 8.666667 9713.000000 -10.000000z M 10466.000000 -1561.000000 C 10484.666667 -1561.000000 10503.333333 -1561.000000 10522.000000 -1561.000000 C 10522.000000 -1035.666667 10522.000000 -510.333333 10522.000000 15.000000 C 10503.333333 15.000000 10484.666667 15.000000 10466.000000 15.000000 C 10466.000000 -510.333333 10466.000000 -1035.666667 10466.000000 -1561.000000z "/>
</g>
<g><path d="M 12067.000000 -27.000000 C 12231.000000 -92.333333 12370.000000 -177.000000 12484.000000 -281.000000 C 12598.000000 -385.666667 12692.000000 -494.333333 12766.000000 -607.000000 C 12841.333333 -723.000000 12898.000000 -839.333333 12936.000000 -956.000000 C 12974.000000 -1072.666667 13001.333333 -1180.333333 13018.000000 -1279.000000 C 13019.333333 -1285.000000 13020.666667 -1297.333333 13022.000000 -1316.000000 C 13024.000000 -1334.666667 13025.000000 -1349.666667 13025.000000 -1361.000000 C 13048.666667 -1358.000000 13072.333333 -1355.000000 13096.000000 -1352.000000 C 13091.333333 -1338.000000 13087.333333 -1323.000000 13084.000000 -1307.000000 C 13080.666667 -1291.000000 13078.333333 -1279.666667 13077.000000 -1273.000000 C 13056.333333 -1156.333333 13025.666667 -1038.000000 12985.000000 -918.000000 C 12944.333333 -798.666667 12888.666667 -684.666667 12818.000000 -576.000000 C 12742.666667 -459.333333 12648.666667 -348.666667 12536.000000 -244.000000 C 12423.333333 -140.000000 12285.666667 -52.333333 12123.000000 19.000000 C 12104.333333 3.666667 12085.666667 -11.666667 12067.000000 -27.000000z M 11869.000000 -1323.000000 C 11888.333333 -1295.000000 11912.333333 -1257.333333 11941.000000 -1210.000000 C 11970.333333 -1163.333333 12000.666667 -1113.333333 12032.000000 -1060.000000 C 12063.333333 -1007.333333 12092.333333 -957.666667 12119.000000 -911.000000 C 12145.666667 -864.333333 12167.333333 -826.333333 12184.000000 -797.000000 C 12166.333333 -786.666667 12148.666667 -776.333333 12131.000000 -766.000000 C 12114.333333 -800.666667 12091.666667 -843.000000 12063.000000 -893.000000 C 12035.000000 -943.000000 12005.000000 -994.333333 11973.000000 -1047.000000 C 11941.000000 -1100.333333 11911.333333 -1149.000000 11884.000000 -1193.000000 C 11856.666667 -1237.666667 11834.000000 -1272.000000 11816.000000 -1296.000000 C 11833.666667 -1305.000000 11851.333333 -1314.000000 11869.000000 -1323.000000z "/>
</g>
<g><path d="M 15039.000000 -1275.000000 C 15035.666667 -1265.666667 15033.000000 -1257.666667 15031.000000 -1251.000000 C 15029.000000 -1245.000000 15026.666667 -1233.000000 15024.000000 -1215.000000 C 15015.333333 -1161.666667 15002.333333 -1103.000000 14985.000000 -1039.000000 C 14967.666667 -975.000000 14946.666667 -910.000000 14922.000000 -844.000000 C 14898.000000 -778.000000 14870.666667 -715.000000 14840.000000 -655.000000 C 14809.333333 -595.666667 14776.000000 -543.666667 14740.000000 -499.000000 C 14681.333333 -426.333333 14618.000000 -359.000000 14550.000000 -297.000000 C 14482.000000 -235.666667 14403.333333 -180.333333 14314.000000 -131.000000 C 14225.333333 -82.333333 14121.000000 -39.333333 14001.000000 -2.000000 C 13983.666667 -21.333333 13966.333333 -40.666667 13949.000000 -60.000000 C 14070.333333 -92.666667 14176.000000 -132.000000 14266.000000 -178.000000 C 14356.666667 -224.666667 14436.666667 -277.666667 14506.000000 -337.000000 C 14576.000000 -396.333333 14638.666667 -462.000000 14694.000000 -534.000000 C 14742.666667 -596.666667 14785.666667 -670.000000 14823.000000 -754.000000 C 14861.000000 -838.666667 14892.666667 -924.000000 14918.000000 -1010.000000 C 14944.000000 -1096.666667 14961.333333 -1174.000000 14970.000000 -1242.000000 C 14952.000000 -1242.000000 14915.333333 -1242.000000 14860.000000 -1242.000000 C 14805.333333 -1242.000000 14740.000000 -1242.000000 14664.000000 -1242.000000 C 14588.000000 -1242.000000 14508.333333 -1242.000000 14425.000000 -1242.000000 C 14341.666667 -1242.000000 14262.666667 -1242.000000 14188.000000 -1242.000000 C 14113.333333 -1242.000000 14050.000000 -1242.000000 13998.000000 -1242.000000 C 13946.000000 -1242.000000 13913.666667 -1242.000000 13901.000000 -1242.000000 C 13869.000000 -1242.000000 13841.333333 -1241.666667 13818.000000 -1241.000000 C 13795.333333 -1240.333333 13771.666667 -1239.333333 13747.000000 -1238.000000 C 13747.000000 -1261.333333 13747.000000 -1284.666667 13747.000000 -1308.000000 C 13763.666667 -1306.666667 13779.666667 -1305.000000 13795.000000 -1303.000000 C 13810.333333 -1301.000000 13827.000000 -1299.666667 13845.000000 -1299.000000 C 13863.000000 -1298.333333 13882.333333 -1298.000000 13903.000000 -1298.000000 C 13913.000000 -1298.000000 13938.000000 -1298.000000 13978.000000 -1298.000000 C 14018.666667 -1298.000000 14068.666667 -1298.000000 14128.000000 -1298.000000 C 14188.000000 -1298.000000 14252.333333 -1298.000000 14321.000000 -1298.000000 C 14390.333333 -1298.000000 14459.000000 -1298.000000 14527.000000 -1298.000000 C 14595.666667 -1298.000000 14659.333333 -1298.000000 14718.000000 -1298.000000 C 14777.333333 -1298.000000 14826.666667 -1298.000000 14866.000000 -1298.000000 C 14906.000000 -1298.000000 14930.666667 -1298.000000 14940.000000 -1298.000000 C 14950.000000 -1298.000000 14959.000000 -1298.333333 14967.000000 -1299.000000 C 14975.666667 -1299.666667 14985.000000 -1301.333333 14995.000000 -1304.000000 C 15009.666667 -1294.333333 15024.333333 -1284.666667 15039.000000 -1275.000000z "/>
</g>
<g><path d="M 15556.000000 -2.000000 C 15664.666667 -4.666667 15793.000000 -8.333333 15941.000000 -13.000000 C 16089.666667 -18.333333 16249.000000 -24.000000 16419.000000 -30.000000 C 16589.666667 -36.666667 16760.666667 -44.000000 16932.000000 -52.000000 C 16931.666667 -34.000000 16931.333333 -16.000000 16931.000000 2.000000 C 16764.333333 9.333333 16597.333333 16.666667 16430.000000 24.000000 C 16263.333333 31.333333 16105.333333 37.666667 15956.000000 43.000000 C 15806.666667 49.000000 15676.000000 54.000000 15564.000000 58.000000 C 15561.333333 38.000000 15558.666667 18.000000 15556.000000 -2.000000z M 15533.000000 -616.000000 C 16061.666667 -616.000000 16590.333333 -616.000000 17119.000000 -616.000000 C 17119.000000 -597.000000 17119.000000 -578.000000 17119.000000 -559.000000 C 16590.333333 -559.000000 16061.666667 -559.000000 15533.000000 -559.000000 C 15533.000000 -578.000000 15533.000000 -597.000000 15533.000000 -616.000000z M 15848.000000 -983.000000 C 16159.000000 -983.000000 16470.000000 -983.000000 16781.000000 -983.000000 C 16781.000000 -963.666667 16781.000000 -944.333333 16781.000000 -925.000000 C 16470.000000 -925.000000 16159.000000 -925.000000 15848.000000 -925.000000 C 15848.000000 -944.333333 15848.000000 -963.666667 15848.000000 -983.000000z M 16115.000000 -584.000000 C 16134.666667 -577.333333 16154.333333 -570.666667 16174.000000 -564.000000 C 16144.666667 -501.333333 16112.666667 -434.000000 16078.000000 -362.000000 C 16043.333333 -290.666667 16007.666667 -220.333333 15971.000000 -151.000000 C 15935.000000 -82.333333 15899.666667 -21.000000 15865.000000 33.000000 C 15847.000000 26.333333 15829.000000 19.666667 15811.000000 13.000000 C 15845.666667 -40.333333 15881.666667 -102.000000 15919.000000 -172.000000 C 15957.000000 -242.666667 15993.333333 -314.333333 16028.000000 -387.000000 C 16062.666667 -460.333333 16091.666667 -526.000000 16115.000000 -584.000000z M 16550.000000 -374.000000 C 16564.333333 -383.000000 16578.666667 -392.000000 16593.000000 -401.000000 C 16654.333333 -349.666667 16715.333333 -293.333333 16776.000000 -232.000000 C 16836.666667 -170.666667 16892.333333 -110.000000 16943.000000 -50.000000 C 16993.666667 10.000000 17033.666667 64.333333 17063.000000 113.000000 C 17047.666667 123.333333 17032.333333 133.666667 17017.000000 144.000000 C 16986.333333 95.333333 16945.666667 40.666667 16895.000000 -20.000000 C 16844.333333 -80.666667 16789.333333 -142.333333 16730.000000 -205.000000 C 16670.666667 -268.333333 16610.666667 -324.666667 16550.000000 -374.000000z M 16307.000000 -1536.000000 C 16254.333333 -1454.000000 16184.666667 -1369.666667 16098.000000 -1283.000000 C 16012.000000 -1197.000000 15916.000000 -1115.000000 15810.000000 -1037.000000 C 15704.666667 -959.000000 15596.333333 -890.333333 15485.000000 -831.000000 C 15482.333333 -836.333333 15479.000000 -841.333333 15475.000000 -846.000000 C 15471.000000 -851.333333 15467.000000 -856.666667 15463.000000 -862.000000 C 15459.666667 -867.333333 15455.333333 -872.000000 15450.000000 -876.000000 C 15561.333333 -932.000000 15670.000000 -999.000000 15776.000000 -1077.000000 C 15882.666667 -1155.000000 15979.333333 -1238.333333 16066.000000 -1327.000000 C 16153.333333 -1416.333333 16222.666667 -1505.333333 16274.000000 -1594.000000 C 16292.000000 -1594.000000 16310.000000 -1594.000000 16328.000000 -1594.000000 C 16378.666667 -1522.000000 16438.333333 -1451.000000 16507.000000 -1381.000000 C 16575.666667 -1311.666667 16649.000000 -1245.666667 16727.000000 -1183.000000 C 16805.000000 -1120.333333 16884.333333 -1063.333333 16965.000000 -1012.000000 C 17045.666667 -960.666667 17124.333333 -917.666667 17201.000000 -883.000000 C 17196.333333 -878.333333 17190.000000 -870.666667 17182.000000 -860.000000 C 17174.666667 -850.000000 17168.333333 -841.666667 17163.000000 -835.000000 C 17060.333333 -886.333333 16955.333333 -949.000000 16848.000000 -1023.000000 C 16740.666667 -1097.666667 16639.666667 -1179.000000 16545.000000 -1267.000000 C 16451.000000 -1355.666667 16371.666667 -1445.333333 16307.000000 -1536.000000z "/>
</g>
<g><path d="M 18008.000000 -1321.000000 C 18023.333333 -1328.666667 18038.666667 -1336.333333 18054.000000 -1344.000000 C 18097.333333 -1298.000000 18139.000000 -1247.333333 18179.000000 -1192.000000 C 18219.666667 -1137.333333 18256.000000 -1083.333333 18288.000000 -1030.000000 C 18320.000000 -976.666667 18345.000000 -928.333333 18363.000000 -885.000000 C 18345.666667 -876.000000 18328.333333 -867.000000 18311.000000 -858.000000 C 18294.333333 -902.000000 18270.333333 -951.000000 18239.000000 -1005.000000 C 18207.666667 -1059.666667 18171.666667 -1114.333333 18131.000000 -1169.000000 C 18091.000000 -1224.333333 18050.000000 -1275.000000 18008.000000 -1321.000000z M 17368.000000 -119.000000 C 17433.333333 -147.000000 17509.000000 -180.333333 17595.000000 -219.000000 C 17681.666667 -258.333333 17774.000000 -300.000000 17872.000000 -344.000000 C 17970.000000 -388.666667 18068.333333 -433.333333 18167.000000 -478.000000 C 18171.000000 -460.000000 18175.000000 -442.000000 18179.000000 -424.000000 C 18086.333333 -382.000000 17992.666667 -339.000000 17898.000000 -295.000000 C 17803.333333 -251.666667 17712.333333 -210.000000 17625.000000 -170.000000 C 17538.333333 -130.666667 17460.333333 -95.666667 17391.000000 -65.000000 C 17383.333333 -83.000000 17375.666667 -101.000000 17368.000000 -119.000000z M 18547.000000 -451.000000 C 18561.666667 -460.666667 18576.333333 -470.333333 18591.000000 -480.000000 C 18638.333333 -435.333333 18687.333333 -387.666667 18738.000000 -337.000000 C 18788.666667 -286.333333 18838.333333 -235.000000 18887.000000 -183.000000 C 18935.666667 -131.666667 18980.666667 -82.333333 19022.000000 -35.000000 C 19064.000000 11.666667 19099.000000 53.333333 19127.000000 90.000000 C 19110.333333 102.333333 19093.666667 114.666667 19077.000000 127.000000 C 19049.000000 89.666667 19014.666667 47.333333 18974.000000 0.000000 C 18934.000000 -47.333333 18890.000000 -97.000000 18842.000000 -149.000000 C 18794.000000 -201.666667 18744.666667 -254.000000 18694.000000 -306.000000 C 18643.333333 -358.000000 18594.333333 -406.333333 18547.000000 -451.000000z M 18818.000000 -1507.000000 C 18837.333333 -1504.666667 18856.666667 -1502.333333 18876.000000 -1500.000000 C 18848.666667 -1273.333333 18812.333333 -1073.000000 18767.000000 -899.000000 C 18721.666667 -725.666667 18660.333333 -573.666667 18583.000000 -443.000000 C 18506.333333 -313.000000 18407.666667 -200.333333 18287.000000 -105.000000 C 18166.333333 -9.666667 18017.000000 72.666667 17839.000000 142.000000 C 17836.333333 138.000000 17832.000000 133.000000 17826.000000 127.000000 C 17820.666667 121.666667 17815.000000 116.333333 17809.000000 111.000000 C 17803.000000 106.333333 17797.666667 102.000000 17793.000000 98.000000 C 17971.666667 34.000000 18121.000000 -44.333333 18241.000000 -137.000000 C 18361.666667 -229.666667 18460.000000 -340.666667 18536.000000 -470.000000 C 18612.666667 -599.333333 18672.666667 -749.333333 18716.000000 -920.000000 C 18759.333333 -1091.333333 18793.333333 -1287.000000 18818.000000 -1507.000000z M 17616.000000 -1503.000000 C 17634.000000 -1503.666667 17652.000000 -1504.333333 17670.000000 -1505.000000 C 17678.333333 -1075.000000 17686.666667 -645.000000 17695.000000 -215.000000 C 17676.333333 -214.333333 17657.666667 -213.666667 17639.000000 -213.000000 C 17631.333333 -643.000000 17623.666667 -1073.000000 17616.000000 -1503.000000z "/>
</g>
<g><path d="M 19313.000000 -1452.000000 C 19878.333333 -1452.000000 20443.666667 -1452.000000 21009.000000 -1452.000000 C 21009.000000 -1432.666667 21009.000000 -1413.333333 21009.000000 -1394.000000 C 20443.666667 -1394.000000 19878.333333 -1394.000000 19313.000000 -1394.000000 C 19313.000000 -1413.333333 19313.000000 -1432.666667 19313.000000 -1452.000000z M 20097.000000 -1432.000000 C 20115.333333 -1432.000000 20133.666667 -1432.000000 20152.000000 -1432.000000 C 20152.000000 -910.000000 20152.000000 -388.000000 20152.000000 134.000000 C 20133.666667 134.000000 20115.333333 134.000000 20097.000000 134.000000 C 20097.000000 -388.000000 20097.000000 -910.000000 20097.000000 -1432.000000z M 20133.000000 -987.000000 C 20144.000000 -999.666667 20155.000000 -1012.333333 20166.000000 -1025.000000 C 20228.666667 -995.666667 20293.333333 -963.000000 20360.000000 -927.000000 C 20427.333333 -891.666667 20493.333333 -855.000000 20558.000000 -817.000000 C 20622.666667 -779.000000 20682.666667 -742.333333 20738.000000 -707.000000 C 20794.000000 -672.333333 20842.000000 -640.666667 20882.000000 -612.000000 C 20871.000000 -595.666667 20860.000000 -579.333333 20849.000000 -563.000000 C 20809.666667 -592.333333 20762.000000 -624.666667 20706.000000 -660.000000 C 20650.666667 -696.000000 20590.666667 -733.000000 20526.000000 -771.000000 C 20461.333333 -809.666667 20395.333333 -847.666667 20328.000000 -885.000000 C 20260.666667 -922.333333 20195.666667 -956.333333 20133.000000 -987.000000z "/>
</g>
</svg>
