<?xml version="1.0" ?>
<svg xmlns="http://www.w3.org/2000/svg" version="1.1" width="600" height="600">
  <defs/>
  <g>
    <path stroke-width="0" fill="rgb(0, 0, 0)" opacity="1.0" d="M 120.13970947265625 313.8125 C 130.84451293945312 313.8125 141.54934692382812 313.8125 152.254150390625 313.8125 C 152.254150390625 314.1624755859375 152.254150390625 314.51251220703125 152.254150390625 314.86248779296875 C 141.54934692382812 314.86248779296875 130.84451293945312 314.86248779296875 120.13970947265625 314.86248779296875 C 120.13970947265625 314.51251220703125 120.13970947265625 314.1624755859375 120.13970947265625 313.8125M 121.59771728515625 291.14373779296875 C 125.0250244140625 291.14373779296875 128.45233154296875 291.14373779296875 131.879638671875 291.14373779296875 C 131.879638671875 291.48748779296875 131.879638671875 291.83123779296875 131.879638671875 292.17498779296875 C 128.45233154296875 292.17498779296875 125.0250244140625 292.17498779296875 121.59771728515625 292.17498779296875 C 121.59771728515625 291.83123779296875 121.59771728515625 291.48748779296875 121.59771728515625 291.14373779296875M 140.21124267578125 291.14373779296875 C 143.85946655273438 291.14373779296875 147.5076904296875 291.14373779296875 151.1558837890625 291.14373779296875 C 151.1558837890625 291.48748779296875 151.1558837890625 291.83123779296875 151.1558837890625 292.17498779296875 C 147.5076904296875 292.17498779296875 143.85946655273438 292.17498779296875 140.21124267578125 292.17498779296875 C 140.21124267578125 291.83123779296875 140.21124267578125 291.48748779296875 140.21124267578125 291.14373779296875M 122.03323364257812 298.4749755859375 C 125.35324096679688 298.4749755859375 128.67324829101562 298.4749755859375 131.99325561523438 298.4749755859375 C 131.99325561523438 298.82501220703125 131.99325561523438 299.17498779296875 131.99325561523438 299.5250244140625 C 128.67324829101562 299.5250244140625 125.35324096679688 299.5250244140625 122.03323364257812 299.5250244140625 C 122.03323364257812 299.17498779296875 122.03323364257812 298.82501220703125 122.03323364257812 298.4749755859375M 140.2869873046875 298.4749755859375 C 143.7647705078125 298.4749755859375 147.24258422851562 298.4749755859375 150.72039794921875 298.4749755859375 C 150.72039794921875 298.82501220703125 150.72039794921875 299.17498779296875 150.72039794921875 299.5250244140625 C 147.24258422851562 299.5250244140625 143.7647705078125 299.5250244140625 140.2869873046875 299.5250244140625 C 140.2869873046875 299.17498779296875 140.2869873046875 298.82501220703125 140.2869873046875 298.4749755859375M 121.40838623046875 306.0875244140625 C 124.94927978515625 306.0875244140625 128.49020385742188 306.0875244140625 132.0311279296875 306.0875244140625 C 132.0311279296875 306.4437255859375 132.0311279296875 306.79998779296875 132.0311279296875 307.15625 C 128.49020385742188 307.15625 124.94927978515625 307.15625 121.40838623046875 307.15625 C 121.40838623046875 306.79998779296875 121.40838623046875 306.4437255859375 121.40838623046875 306.0875244140625M 140.21124267578125 306.0875244140625 C 143.90994262695312 306.0875244140625 147.60867309570312 306.0875244140625 151.307373046875 306.0875244140625 C 151.307373046875 306.4437255859375 151.307373046875 306.79998779296875 151.307373046875 307.15625 C 147.60867309570312 307.15625 143.90994262695312 307.15625 140.21124267578125 307.15625 C 140.21124267578125 306.79998779296875 140.21124267578125 306.4437255859375 140.21124267578125 306.0875244140625M 131.40628051757812 284.5250244140625 C 131.75973510742188 284.5250244140625 132.11318969726562 284.5250244140625 132.46664428710938 284.5250244140625 C 132.46664428710938 294.42498779296875 132.46664428710938 304.32501220703125 132.46664428710938 314.2249755859375 C 132.11318969726562 314.2249755859375 131.75973510742188 314.2249755859375 131.40628051757812 314.2249755859375 C 131.40628051757812 304.32501220703125 131.40628051757812 294.42498779296875 131.40628051757812 284.5250244140625M 139.8135986328125 284.5250244140625 C 140.16705322265625 284.5250244140625 140.5205078125 284.5250244140625 140.87396240234375 284.5250244140625 C 140.87396240234375 294.46875 140.87396240234375 304.4124755859375 140.87396240234375 314.35626220703125 C 140.5205078125 314.35626220703125 140.16705322265625 314.35626220703125 139.8135986328125 314.35626220703125 C 139.8135986328125 304.4124755859375 139.8135986328125 294.46875 139.8135986328125 284.5250244140625"/>
    <path stroke-width="0" fill="rgb(0, 0, 0)" opacity="1.0" d="M 158.616455078125 287.75 C 167.97055053710938 287.75 177.32464599609375 287.75 186.6787109375 287.75 C 186.6787109375 288.0999755859375 186.6787109375 288.45001220703125 186.6787109375 288.79998779296875 C 177.32464599609375 288.79998779296875 167.97055053710938 288.79998779296875 158.616455078125 288.79998779296875 C 158.616455078125 288.45001220703125 158.616455078125 288.0999755859375 158.616455078125 287.75M 156.49569702148438 296.39373779296875 C 167.20050048828125 296.39373779296875 177.90533447265625 296.39373779296875 188.61013793945312 296.39373779296875 C 188.61013793945312 296.7437744140625 188.61013793945312 297.09375 188.61013793945312 297.4437255859375 C 177.90533447265625 297.4437255859375 167.20050048828125 297.4437255859375 156.49569702148438 297.4437255859375 C 156.49569702148438 297.09375 156.49569702148438 296.7437744140625 156.49569702148438 296.39373779296875M 162.53607177734375 307.6624755859375 C 169.32125854492188 307.6624755859375 176.1064453125 307.6624755859375 182.89166259765625 307.6624755859375 C 182.89166259765625 308.0250244140625 182.89166259765625 308.38751220703125 182.89166259765625 308.75 C 176.1064453125 308.75 169.32125854492188 308.75 162.53607177734375 308.75 C 162.53607177734375 308.38751220703125 162.53607177734375 308.0250244140625 162.53607177734375 307.6624755859375M 162.61181640625 314.0374755859375 C 169.39700317382812 314.0374755859375 176.18218994140625 314.0374755859375 182.96737670898438 314.0374755859375 C 182.96737670898438 314.38751220703125 182.96737670898438 314.73748779296875 182.96737670898438 315.0875244140625 C 176.18218994140625 315.0875244140625 169.39700317382812 315.0875244140625 162.61181640625 315.0875244140625 C 162.61181640625 314.73748779296875 162.61181640625 314.38751220703125 162.61181640625 314.0374755859375M 171.94699096679688 284.07501220703125 C 172.31304931640625 284.07501220703125 172.67913818359375 284.07501220703125 173.04522705078125 284.07501220703125 C 173.04522705078125 285.4437255859375 173.04522705078125 286.8125 173.04522705078125 288.1812744140625 C 172.67913818359375 288.1812744140625 172.31304931640625 288.1812744140625 171.94699096679688 288.1812744140625 C 171.94699096679688 286.8125 171.94699096679688 285.4437255859375 171.94699096679688 284.07501220703125M 162.02484130859375 301.54998779296875 C 169.13824462890625 301.54998779296875 176.25161743164062 301.54998779296875 183.36502075195312 301.54998779296875 C 183.36502075195312 306.51873779296875 183.36502075195312 311.48748779296875 183.36502075195312 316.45623779296875 C 183.01156616210938 316.45623779296875 182.65811157226562 316.45623779296875 182.30465698242188 316.45623779296875 C 182.30465698242188 311.83123779296875 182.30465698242188 307.20623779296875 182.30465698242188 302.58123779296875 C 175.89816284179688 302.58123779296875 169.49169921875 302.58123779296875 163.085205078125 302.58123779296875 C 163.085205078125 307.25 163.085205078125 311.91876220703125 163.085205078125 316.5875244140625 C 162.73175048828125 316.5875244140625 162.3782958984375 316.5875244140625 162.02484130859375 316.5875244140625 C 162.02484130859375 311.57501220703125 162.02484130859375 306.5625 162.02484130859375 301.54998779296875M 180.35430908203125 289.3062744140625 C 180.69512939453125 289.4375 181.03598022460938 289.5687255859375 181.37680053710938 289.70001220703125 C 180.88449096679688 290.73748779296875 180.32275390625 291.84375 179.69155883789062 293.01873779296875 C 179.06039428710938 294.1937255859375 178.46707153320312 295.20001220703125 177.91162109375 296.0374755859375 C 177.62127685546875 295.90625 177.3309326171875 295.7750244140625 177.04058837890625 295.64373779296875 C 177.43194580078125 295.09375 177.82958984375 294.4437255859375 178.2335205078125 293.6937255859375 C 178.65011596679688 292.9312744140625 179.04776000976562 292.16876220703125 179.42645263671875 291.40625 C 179.80517578125 290.6312255859375 180.11444091796875 289.9312744140625 180.35430908203125 289.3062744140625M 164.031982421875 289.73748779296875 C 164.3349609375 289.6312255859375 164.63790893554688 289.5250244140625 164.94088745117188 289.41876220703125 C 165.60992431640625 290.3687744140625 166.19692993164062 291.4312744140625 166.70187377929688 292.60626220703125 C 167.21942138671875 293.76873779296875 167.56658935546875 294.76873779296875 167.74331665039062 295.60626220703125 C 167.38986206054688 295.73748779296875 167.03640747070312 295.8687744140625 166.68292236328125 296.0 C 166.50619506835938 295.11248779296875 166.177978515625 294.0875244140625 165.69830322265625 292.92498779296875 C 165.21859741210938 291.76251220703125 164.66314697265625 290.70001220703125 164.031982421875 289.73748779296875"/>
    <path stroke-width="0" fill="rgb(0, 0, 0)" opacity="1.0" d="M 194.34756469726562 318.3125 C 194.34756469726562 306.3125 194.34756469726562 294.3125 194.34756469726562 282.3125 C 204.04248046875 282.3125 213.7374267578125 282.3125 223.432373046875 282.3125 C 223.432373046875 294.3125 223.432373046875 306.3125 223.432373046875 318.3125 C 213.7374267578125 318.3125 204.04248046875 318.3125 194.34756469726562 318.3125M 208.88995361328125 298.8499755859375 C 212.7464599609375 293.9375 216.60299682617188 289.0250244140625 220.45950317382812 284.11248779296875 C 212.7464599609375 284.11248779296875 205.033447265625 284.11248779296875 197.3204345703125 284.11248779296875 C 201.17694091796875 289.0250244140625 205.033447265625 293.9375 208.88995361328125 298.8499755859375M 210.04501342773438 300.3125 C 213.90151977539062 305.2249755859375 217.758056640625 310.13751220703125 221.61456298828125 315.04998779296875 C 221.61456298828125 305.23126220703125 221.61456298828125 295.4124755859375 221.61456298828125 285.59375 C 217.758056640625 290.5 213.90151977539062 295.40625 210.04501342773438 300.3125M 197.3204345703125 316.51251220703125 C 205.033447265625 316.51251220703125 212.7464599609375 316.51251220703125 220.45950317382812 316.51251220703125 C 216.60299682617188 311.60626220703125 212.7464599609375 306.70001220703125 208.88995361328125 301.79376220703125 C 205.033447265625 306.70001220703125 201.17694091796875 311.60626220703125 197.3204345703125 316.51251220703125M 196.16537475585938 285.59375 C 196.16537475585938 295.4124755859375 196.16537475585938 305.23126220703125 196.16537475585938 315.04998779296875 C 200.02188110351562 310.13751220703125 203.87838745117188 305.2249755859375 207.73489379882812 300.3125 C 203.87838745117188 295.40625 200.02188110351562 290.5 196.16537475585938 285.59375"/>
    <path stroke-width="0" fill="rgb(0, 0, 0)" opacity="1.0" d="M 239.243408203125 292.625 C 245.56784057617188 292.625 251.89227294921875 292.625 258.2167053222656 292.625 C 258.2167053222656 292.96875 258.2167053222656 293.3125 258.2167053222656 293.65625 C 251.89227294921875 293.65625 245.56784057617188 293.65625 239.243408203125 293.65625 C 239.243408203125 293.3125 239.243408203125 292.96875 239.243408203125 292.625M 234.66104125976562 299.67498779296875 C 243.11886596679688 299.67498779296875 251.57669067382812 299.67498779296875 260.03448486328125 299.67498779296875 C 260.03448486328125 300.0250244140625 260.03448486328125 300.375 260.03448486328125 300.7249755859375 C 251.57669067382812 300.7249755859375 243.11886596679688 300.7249755859375 234.66104125976562 300.7249755859375 C 234.66104125976562 300.375 234.66104125976562 300.0250244140625 234.66104125976562 299.67498779296875M 246.34417724609375 292.98126220703125 C 246.7039794921875 292.98126220703125 247.06375122070312 292.98126220703125 247.42352294921875 292.98126220703125 C 247.42352294921875 294.8062744140625 247.42352294921875 296.6312255859375 247.42352294921875 298.45623779296875 C 247.42352294921875 299.48126220703125 247.30990600585938 300.5687255859375 247.08267211914062 301.71875 C 246.85546875 302.85626220703125 246.3568115234375 304.0 245.5867919921875 305.1500244140625 C 244.82937622070312 306.29998779296875 243.64276123046875 307.4124755859375 242.02691650390625 308.48748779296875 C 240.41110229492188 309.54998779296875 238.22723388671875 310.5250244140625 235.47528076171875 311.4124755859375 C 235.42477416992188 311.3125 235.36166381835938 311.21875 235.28591918945312 311.1312255859375 C 235.21017456054688 311.03125 235.12811279296875 310.9312744140625 235.03976440429688 310.83123779296875 C 234.96401977539062 310.73126220703125 234.88827514648438 310.6500244140625 234.81253051757812 310.5875244140625 C 237.50137329101562 309.73748779296875 239.62844848632812 308.8187255859375 241.19375610351562 307.83123779296875 C 242.75909423828125 306.83123779296875 243.90151977539062 305.7874755859375 244.62109375 304.70001220703125 C 245.35324096679688 303.5999755859375 245.8203125 302.51873779296875 246.02227783203125 301.45623779296875 C 246.23690795898438 300.3812255859375 246.34417724609375 299.3812255859375 246.34417724609375 298.45623779296875 C 246.34417724609375 296.6312255859375 246.34417724609375 294.8062744140625 246.34417724609375 292.98126220703125M 241.02334594726562 288.76251220703125 C 241.38943481445312 288.8499755859375 241.75552368164062 288.9375 242.12161254882812 289.0250244140625 C 241.43994140625 290.7249755859375 240.537353515625 292.3125 239.41384887695312 293.7874755859375 C 238.302978515625 295.26251220703125 237.12265014648438 296.51873779296875 235.8729248046875 297.5562744140625 C 235.82241821289062 297.5062255859375 235.73406982421875 297.4375 235.60781860351562 297.3499755859375 C 235.49420166015625 297.26251220703125 235.374267578125 297.1875 235.248046875 297.125 C 235.121826171875 297.04998779296875 235.0145263671875 296.98748779296875 234.9261474609375 296.9375 C 236.20114135742188 295.95001220703125 237.3751220703125 294.7437744140625 238.4481201171875 293.3187255859375 C 239.53375244140625 291.89373779296875 240.39215087890625 290.375 241.02334594726562 288.76251220703125M 247.72650146484375 300.3125 C 248.62274169921875 302.98748779296875 250.10601806640625 305.16876220703125 252.17630004882812 306.85626220703125 C 254.24658203125 308.54376220703125 256.82177734375 309.7249755859375 259.9019470214844 310.4000244140625 C 259.75048828125 310.5250244140625 259.60528564453125 310.67498779296875 259.4664306640625 310.8499755859375 C 259.3402099609375 311.0250244140625 259.2265930175781 311.20001220703125 259.1256103515625 311.375 C 256.05804443359375 310.57501220703125 253.4512939453125 309.28125 251.3052978515625 307.4937744140625 C 249.15924072265625 305.70623779296875 247.61285400390625 303.4000244140625 246.66610717773438 300.57501220703125 C 247.01956176757812 300.48748779296875 247.373046875 300.4000244140625 247.72650146484375 300.3125M 231.02545166015625 286.3812255859375 C 240.878173828125 286.3812255859375 250.73089599609375 286.3812255859375 260.5836181640625 286.3812255859375 C 260.5836181640625 286.7437744140625 260.5836181640625 287.10626220703125 260.5836181640625 287.46875 C 251.0843505859375 287.46875 241.5850830078125 287.46875 232.08584594726562 287.46875 C 232.08584594726562 297.1187744140625 232.08584594726562 306.76873779296875 232.08584594726562 316.41876220703125 C 231.73236083984375 316.41876220703125 231.37890625 316.41876220703125 231.02545166015625 316.41876220703125 C 231.02545166015625 306.40625 231.02545166015625 296.39373779296875 231.02545166015625 286.3812255859375M 231.80181884765625 313.45623779296875 C 241.64190673828125 313.45623779296875 251.48199462890625 313.45623779296875 261.3221130371094 313.45623779296875 C 261.3221130371094 313.8187255859375 261.3221130371094 314.1812744140625 261.3221130371094 314.54376220703125 C 251.48199462890625 314.54376220703125 241.64190673828125 314.54376220703125 231.80181884765625 314.54376220703125 C 231.80181884765625 314.1812744140625 231.80181884765625 313.8187255859375 231.80181884765625 313.45623779296875"/>
    <path stroke-width="0" fill="rgb(0, 0, 0)" opacity="1.0" d="M 285.5972900390625 301.04376220703125 C 285.95074462890625 301.04376220703125 286.30419921875 301.04376220703125 286.6576843261719 301.04376220703125 C 286.6576843261719 305.32501220703125 286.6576843261719 309.60626220703125 286.6576843261719 313.88751220703125 C 286.6576843261719 314.375 286.783935546875 314.70001220703125 287.036376953125 314.86248779296875 C 287.28887939453125 315.0374755859375 287.82537841796875 315.125 288.6459045410156 315.125 C 288.847900390625 315.125 289.22027587890625 315.125 289.7630920410156 315.125 C 290.305908203125 315.125 290.911865234375 315.125 291.58087158203125 315.125 C 292.24993896484375 315.125 292.87481689453125 315.125 293.45550537109375 315.125 C 294.03619384765625 315.125 294.4590759277344 315.125 294.72418212890625 315.125 C 295.30487060546875 315.125 295.73406982421875 314.96875 296.01177978515625 314.65625 C 296.28948974609375 314.34375 296.48516845703125 313.70623779296875 296.5987548828125 312.7437744140625 C 296.71240234375 311.78125 296.78814697265625 310.3375244140625 296.82598876953125 308.4124755859375 C 296.927001953125 308.48748779296875 297.0343017578125 308.5625 297.14788818359375 308.63751220703125 C 297.2741394042969 308.7125244140625 297.4003601074219 308.7750244140625 297.526611328125 308.82501220703125 C 297.66546630859375 308.86248779296875 297.785400390625 308.90625 297.8863830566406 308.95623779296875 C 297.83587646484375 310.8812255859375 297.72857666015625 312.375 297.5644836425781 313.4375 C 297.4129943847656 314.48748779296875 297.1226806640625 315.20623779296875 296.6934509277344 315.59375 C 296.27685546875 315.9937744140625 295.633056640625 316.1937255859375 294.76202392578125 316.1937255859375 C 294.6231689453125 316.1937255859375 294.257080078125 316.1937255859375 293.6637878417969 316.1937255859375 C 293.0830993652344 316.1937255859375 292.4329833984375 316.1937255859375 291.71343994140625 316.1937255859375 C 291.00653076171875 316.1937255859375 290.36273193359375 316.1937255859375 289.78204345703125 316.1937255859375 C 289.20135498046875 316.1937255859375 288.83526611328125 316.1937255859375 288.68377685546875 316.1937255859375 C 287.88848876953125 316.1937255859375 287.26361083984375 316.1312255859375 286.8091735839844 316.0062255859375 C 286.3673400878906 315.89373779296875 286.0517578125 315.66876220703125 285.8623962402344 315.33123779296875 C 285.6856689453125 314.9937744140625 285.5972900390625 314.5 285.5972900390625 313.8499755859375 C 285.5972900390625 309.58123779296875 285.5972900390625 305.3125 285.5972900390625 301.04376220703125M 276.43255615234375 301.2874755859375 C 276.79864501953125 301.2874755859375 277.16473388671875 301.2874755859375 277.53082275390625 301.2874755859375 C 277.36669921875 303.32501220703125 277.0826721191406 305.15625 276.6787109375 306.78125 C 276.2747802734375 308.40625 275.66253662109375 309.83123779296875 274.84197998046875 311.0562744140625 C 274.0214538574219 312.26873779296875 272.91058349609375 313.3125 271.50933837890625 314.1875 C 270.1207580566406 315.07501220703125 268.3597412109375 315.8062744140625 266.22637939453125 316.3812255859375 C 266.20111083984375 316.3062744140625 266.1443176269531 316.2125244140625 266.05596923828125 316.0999755859375 C 265.96759033203125 316.0 265.87921142578125 315.9000244140625 265.7908630371094 315.79998779296875 C 265.7151184082031 315.70001220703125 265.62677001953125 315.6187744140625 265.5257568359375 315.5562744140625 C 267.6339111328125 315.01873779296875 269.36334228515625 314.3375244140625 270.71405029296875 313.51251220703125 C 272.0648193359375 312.6875 273.1315002441406 311.6937255859375 273.9141540527344 310.53125 C 274.6968078613281 309.3687744140625 275.2774963378906 308.01873779296875 275.65618896484375 306.48126220703125 C 276.034912109375 304.9437255859375 276.293701171875 303.2125244140625 276.43255615234375 301.2874755859375M 285.4647521972656 292.64373779296875 C 285.71722412109375 292.4437255859375 285.9696960449219 292.2437744140625 286.22216796875 292.04376220703125 C 287.54766845703125 292.9312744140625 288.8920593261719 293.9312744140625 290.25543212890625 295.04376220703125 C 291.63140869140625 296.15625 292.9000549316406 297.26873779296875 294.0614318847656 298.3812255859375 C 295.23541259765625 299.48126220703125 296.1695556640625 300.48748779296875 296.8638610839844 301.4000244140625 C 296.58612060546875 301.63751220703125 296.3084411621094 301.875 296.03070068359375 302.11248779296875 C 295.3490295410156 301.1875 294.433837890625 300.1624755859375 293.28509521484375 299.0374755859375 C 292.1363220214844 297.9000244140625 290.8802795410156 296.7750244140625 289.5169372558594 295.6624755859375 C 288.16619873046875 294.5374755859375 286.81549072265625 293.53125 285.4647521972656 292.64373779296875M 277.72015380859375 289.34375 C 278.0546875 289.5 278.38922119140625 289.65625 278.7237548828125 289.8125 C 278.21881103515625 290.8375244140625 277.65704345703125 291.9375 277.03851318359375 293.11248779296875 C 276.419921875 294.2874755859375 275.7950439453125 295.42498779296875 275.16387939453125 296.5250244140625 C 274.53271484375 297.61248779296875 273.9267883300781 298.57501220703125 273.3460693359375 299.4124755859375 C 273.068359375 299.26873779296875 272.7906494140625 299.125 272.512939453125 298.98126220703125 C 273.0936279296875 298.14373779296875 273.70587158203125 297.1624755859375 274.34967041015625 296.0374755859375 C 274.99346923828125 294.9124755859375 275.6120300292969 293.7562255859375 276.205322265625 292.5687255859375 C 276.79864501953125 291.3812255859375 277.3035888671875 290.3062744140625 277.72015380859375 289.34375M 267.1352844238281 298.98126220703125 C 269.2181701660156 298.9437255859375 271.6923828125 298.8812255859375 274.5579528808594 298.79376220703125 C 277.4361572265625 298.70623779296875 280.5099792480469 298.60626220703125 283.77947998046875 298.4937744140625 C 287.04901123046875 298.3687744140625 290.33746337890625 298.23126220703125 293.64483642578125 298.08123779296875 C 293.61962890625 298.39373779296875 293.5943603515625 298.70623779296875 293.569091796875 299.01873779296875 C 290.36273193359375 299.16876220703125 287.1436767578125 299.3125 283.91204833984375 299.45001220703125 C 280.680419921875 299.57501220703125 277.6318054199219 299.70001220703125 274.7662353515625 299.82501220703125 C 271.90069580078125 299.9375 269.3948974609375 300.03125 267.2489013671875 300.10626220703125 C 267.21099853515625 299.73126220703125 267.17315673828125 299.35626220703125 267.1352844238281 298.98126220703125M 266.0370178222656 288.95001220703125 C 276.45782470703125 288.95001220703125 286.87860107421875 288.95001220703125 297.29937744140625 288.95001220703125 C 297.29937744140625 289.29376220703125 297.29937744140625 289.63751220703125 297.29937744140625 289.98126220703125 C 286.87860107421875 289.98126220703125 276.45782470703125 289.98126220703125 266.0370178222656 289.98126220703125 C 266.0370178222656 289.63751220703125 266.0370178222656 289.29376220703125 266.0370178222656 288.95001220703125M 280.97705078125 284.07501220703125 C 281.3431396484375 284.07501220703125 281.709228515625 284.07501220703125 282.0753173828125 284.07501220703125 C 282.0753173828125 285.875 282.0753173828125 287.67498779296875 282.0753173828125 289.4749755859375 C 281.709228515625 289.4749755859375 281.3431396484375 289.4749755859375 280.97705078125 289.4749755859375 C 280.97705078125 287.67498779296875 280.97705078125 285.875 280.97705078125 284.07501220703125"/>
    <path stroke-width="0" fill="rgb(0, 0, 0)" opacity="1.0" d="M 303.52911376953125 287.82501220703125 C 306.11065673828125 287.82501220703125 308.69219970703125 287.82501220703125 311.2737121582031 287.82501220703125 C 311.2737121582031 294.1624755859375 311.2737121582031 300.5 311.2737121582031 306.8375244140625 C 308.69219970703125 306.8375244140625 306.11065673828125 306.8375244140625 303.52911376953125 306.8375244140625 C 303.52911376953125 306.4749755859375 303.52911376953125 306.11248779296875 303.52911376953125 305.75 C 305.74456787109375 305.75 307.96002197265625 305.75 310.17547607421875 305.75 C 310.17547607421875 300.125 310.17547607421875 294.5 310.17547607421875 288.875 C 307.96002197265625 288.875 305.74456787109375 288.875 303.52911376953125 288.875 C 303.52911376953125 288.5250244140625 303.52911376953125 288.17498779296875 303.52911376953125 287.82501220703125M 303.1314697265625 287.82501220703125 C 303.49127197265625 287.82501220703125 303.85101318359375 287.82501220703125 304.2108154296875 287.82501220703125 C 304.2108154296875 295.4000244140625 304.2108154296875 302.9749755859375 304.2108154296875 310.54998779296875 C 303.85101318359375 310.54998779296875 303.49127197265625 310.54998779296875 303.1314697265625 310.54998779296875 C 303.1314697265625 302.9749755859375 303.1314697265625 295.4000244140625 303.1314697265625 287.82501220703125M 314.4359130859375 307.51251220703125 C 320.43212890625 307.51251220703125 326.4283447265625 307.51251220703125 332.424560546875 307.51251220703125 C 332.424560546875 307.86248779296875 332.424560546875 308.2125244140625 332.424560546875 308.5625 C 326.4283447265625 308.5625 320.43212890625 308.5625 314.4359130859375 308.5625 C 314.4359130859375 308.2125244140625 314.4359130859375 307.86248779296875 314.4359130859375 307.51251220703125M 314.4359130859375 313.8499755859375 C 320.43212890625 313.8499755859375 326.4283447265625 313.8499755859375 332.424560546875 313.8499755859375 C 332.424560546875 314.20001220703125 332.424560546875 314.54998779296875 332.424560546875 314.9000244140625 C 326.4283447265625 314.9000244140625 320.43212890625 314.9000244140625 314.4359130859375 314.9000244140625 C 314.4359130859375 314.54998779296875 314.4359130859375 314.20001220703125 314.4359130859375 313.8499755859375M 313.9625244140625 301.4375 C 320.3248291015625 301.4375 326.6871337890625 301.4375 333.0494384765625 301.4375 C 333.0494384765625 306.40625 333.0494384765625 311.375 333.0494384765625 316.34375 C 332.683349609375 316.34375 332.3172607421875 316.34375 331.951171875 316.34375 C 331.951171875 311.7249755859375 331.951171875 307.10626220703125 331.951171875 302.48748779296875 C 326.3147277832031 302.48748779296875 320.67828369140625 302.48748779296875 315.0418701171875 302.48748779296875 C 315.0418701171875 307.1500244140625 315.0418701171875 311.8125 315.0418701171875 316.4749755859375 C 314.68206787109375 316.4749755859375 314.32232666015625 316.4749755859375 313.9625244140625 316.4749755859375 C 313.9625244140625 311.4625244140625 313.9625244140625 306.45001220703125 313.9625244140625 301.4375M 316.3294677734375 292.54998779296875 C 316.3294677734375 294.10626220703125 316.3294677734375 295.6624755859375 316.3294677734375 297.21875 C 321.0633239746094 297.21875 325.79718017578125 297.21875 330.531005859375 297.21875 C 330.531005859375 295.6624755859375 330.531005859375 294.10626220703125 330.531005859375 292.54998779296875 C 325.79718017578125 292.54998779296875 321.0633239746094 292.54998779296875 316.3294677734375 292.54998779296875M 316.3294677734375 286.8499755859375 C 316.3294677734375 288.4000244140625 316.3294677734375 289.95001220703125 316.3294677734375 291.5 C 321.0633239746094 291.5 325.79718017578125 291.5 330.531005859375 291.5 C 330.531005859375 289.95001220703125 330.531005859375 288.4000244140625 330.531005859375 286.8499755859375 C 325.79718017578125 286.8499755859375 321.0633239746094 286.8499755859375 316.3294677734375 286.8499755859375M 315.26910400390625 285.8187255859375 C 320.7098388671875 285.8187255859375 326.150634765625 285.8187255859375 331.5914306640625 285.8187255859375 C 331.5914306640625 289.98126220703125 331.5914306640625 294.14373779296875 331.5914306640625 298.3062744140625 C 326.150634765625 298.3062744140625 320.7098388671875 298.3062744140625 315.26910400390625 298.3062744140625 C 315.26910400390625 294.14373779296875 315.26910400390625 289.98126220703125 315.26910400390625 285.8187255859375"/>
    <path stroke-width="0" fill="rgb(0, 0, 0)" opacity="1.0" d="M 353.68902587890625 284.07501220703125 C 354.05511474609375 284.07501220703125 354.42120361328125 284.07501220703125 354.78729248046875 284.07501220703125 C 354.78729248046875 285.5062255859375 354.78729248046875 286.9375 354.78729248046875 288.3687744140625 C 354.42120361328125 288.3687744140625 354.05511474609375 288.3687744140625 353.68902587890625 288.3687744140625 C 353.68902587890625 286.9375 353.68902587890625 285.5062255859375 353.68902587890625 284.07501220703125M 353.68902587890625 304.8499755859375 C 354.05511474609375 304.8499755859375 354.42120361328125 304.8499755859375 354.78729248046875 304.8499755859375 C 354.78729248046875 308.23748779296875 354.78729248046875 311.625 354.78729248046875 315.01251220703125 C 354.42120361328125 315.01251220703125 354.05511474609375 315.01251220703125 353.68902587890625 315.01251220703125 C 353.68902587890625 311.625 353.68902587890625 308.23748779296875 353.68902587890625 304.8499755859375M 339.222412109375 287.6187744140625 C 349.28338623046875 287.6187744140625 359.34442138671875 287.6187744140625 369.4053955078125 287.6187744140625 C 369.4053955078125 289.39373779296875 369.4053955078125 291.16876220703125 369.4053955078125 292.9437255859375 C 369.039306640625 292.9437255859375 368.6732177734375 292.9437255859375 368.30712890625 292.9437255859375 C 368.30712890625 291.51251220703125 368.30712890625 290.08123779296875 368.30712890625 288.6500244140625 C 358.97833251953125 288.6500244140625 349.64947509765625 288.6500244140625 340.32061767578125 288.6500244140625 C 340.32061767578125 290.08123779296875 340.32061767578125 291.51251220703125 340.32061767578125 292.9437255859375 C 339.95458984375 292.9437255859375 339.58843994140625 292.9437255859375 339.222412109375 292.9437255859375 C 339.222412109375 291.16876220703125 339.222412109375 289.39373779296875 339.222412109375 287.6187744140625M 348.02734375 290.4124755859375 C 348.38079833984375 290.4124755859375 348.7342529296875 290.4124755859375 349.08770751953125 290.4124755859375 C 349.08770751953125 294.54376220703125 349.08770751953125 298.67498779296875 349.08770751953125 302.8062744140625 C 348.7342529296875 302.8062744140625 348.38079833984375 302.8062744140625 348.02734375 302.8062744140625 C 348.02734375 298.67498779296875 348.02734375 294.54376220703125 348.02734375 290.4124755859375M 359.5400390625 290.4124755859375 C 359.8935546875 290.4124755859375 360.2469482421875 290.4124755859375 360.6004638671875 290.4124755859375 C 360.6004638671875 294.54376220703125 360.6004638671875 298.67498779296875 360.6004638671875 302.8062744140625 C 360.2469482421875 302.8062744140625 359.8935546875 302.8062744140625 359.5400390625 302.8062744140625 C 359.5400390625 298.67498779296875 359.5400390625 294.54376220703125 359.5400390625 290.4124755859375M 341.91119384765625 293.26251220703125 C 350.09130859375 293.26251220703125 358.2713623046875 293.26251220703125 366.45147705078125 293.26251220703125 C 366.45147705078125 293.61248779296875 366.45147705078125 293.9625244140625 366.45147705078125 294.3125 C 358.2713623046875 294.3125 350.09130859375 294.3125 341.91119384765625 294.3125 C 341.91119384765625 293.9625244140625 341.91119384765625 293.61248779296875 341.91119384765625 293.26251220703125M 345.7740478515625 308.63751220703125 C 351.4420166015625 308.63751220703125 357.11004638671875 308.63751220703125 362.77801513671875 308.63751220703125 C 362.77801513671875 308.98748779296875 362.77801513671875 309.3375244140625 362.77801513671875 309.6875 C 357.11004638671875 309.6875 351.4420166015625 309.6875 345.7740478515625 309.6875 C 345.7740478515625 309.3375244140625 345.7740478515625 308.98748779296875 345.7740478515625 308.63751220703125M 339.84722900390625 314.46875 C 349.5926513671875 314.46875 359.33807373046875 314.46875 369.08349609375 314.46875 C 369.08349609375 314.8187255859375 369.08349609375 315.16876220703125 369.08349609375 315.51873779296875 C 359.33807373046875 315.51873779296875 349.5926513671875 315.51873779296875 339.84722900390625 315.51873779296875 C 339.84722900390625 315.16876220703125 339.84722900390625 314.8187255859375 339.84722900390625 314.46875M 342.68756103515625 297.6875 C 350.3311767578125 297.6875 357.9747314453125 297.6875 365.61834716796875 297.6875 C 365.61834716796875 298.0374755859375 365.61834716796875 298.38751220703125 365.61834716796875 298.73748779296875 C 357.9747314453125 298.73748779296875 350.3311767578125 298.73748779296875 342.68756103515625 298.73748779296875 C 342.68756103515625 298.38751220703125 342.68756103515625 298.0374755859375 342.68756103515625 297.6875M 338.3134765625 302.375 C 349.018310546875 302.375 359.72314453125 302.375 370.42791748046875 302.375 C 370.42791748046875 302.73126220703125 370.42791748046875 303.0875244140625 370.42791748046875 303.4437255859375 C 359.72314453125 303.4437255859375 349.018310546875 303.4437255859375 338.3134765625 303.4437255859375 C 338.3134765625 303.0875244140625 338.3134765625 302.73126220703125 338.3134765625 302.375M 348.42498779296875 302.65625 C 348.72796630859375 302.7874755859375 349.0308837890625 302.91876220703125 349.3338623046875 303.04998779296875 C 348.57647705078125 304.2249755859375 347.6170654296875 305.35626220703125 346.4556884765625 306.4437255859375 C 345.2943115234375 307.51873779296875 344.031982421875 308.48748779296875 342.66864013671875 309.3499755859375 C 341.31787109375 310.2125244140625 339.9735107421875 310.9124755859375 338.6353759765625 311.45001220703125 C 338.5975341796875 311.32501220703125 338.528076171875 311.21875 338.4271240234375 311.1312255859375 C 338.32611083984375 311.03125 338.22509765625 310.9312744140625 338.1241455078125 310.83123779296875 C 338.0357666015625 310.73126220703125 337.9410400390625 310.6500244140625 337.840087890625 310.5875244140625 C 339.20343017578125 310.125 340.55419921875 309.48748779296875 341.89227294921875 308.67498779296875 C 343.24298095703125 307.86248779296875 344.49273681640625 306.9375 345.6414794921875 305.9000244140625 C 346.79022216796875 304.8499755859375 347.71807861328125 303.76873779296875 348.42498779296875 302.65625M 360.31640625 302.65625 C 361.03594970703125 303.71875 361.9700927734375 304.7437744140625 363.118896484375 305.73126220703125 C 364.28021240234375 306.70623779296875 365.5426025390625 307.58123779296875 366.90594482421875 308.35626220703125 C 368.28192138671875 309.1187744140625 369.65789794921875 309.70623779296875 371.03387451171875 310.1187744140625 C 370.9581298828125 310.1812744140625 370.86346435546875 310.2750244140625 370.74981689453125 310.4000244140625 C 370.64886474609375 310.5250244140625 370.55419921875 310.64373779296875 370.4658203125 310.7562255859375 C 370.39007568359375 310.85626220703125 370.3143310546875 310.95623779296875 370.23858642578125 311.0562744140625 C 368.86260986328125 310.5687255859375 367.4803466796875 309.91876220703125 366.09173583984375 309.10626220703125 C 364.71575927734375 308.29376220703125 363.4344482421875 307.3687744140625 362.247802734375 306.33123779296875 C 361.0738525390625 305.28125 360.101806640625 304.20001220703125 359.331787109375 303.0875244140625 C 359.65997314453125 302.9437255859375 359.98822021484375 302.79998779296875 360.31640625 302.65625"/>
    <path stroke-width="0" fill="rgb(0, 0, 0)" opacity="1.0" d="M 395.10076904296875 285.2750244140625 C 394.3812255859375 286.63751220703125 393.4344482421875 288.0562744140625 392.260498046875 289.53125 C 391.09912109375 291.0062255859375 389.80517578125 292.4375 388.378662109375 293.82501220703125 C 386.9522705078125 295.20001220703125 385.462646484375 296.4437255859375 383.909912109375 297.5562744140625 C 383.834228515625 297.4312744140625 383.7205810546875 297.29376220703125 383.569091796875 297.14373779296875 C 383.43023681640625 296.98126220703125 383.2977294921875 296.8499755859375 383.17144775390625 296.75 C 384.72412109375 295.70001220703125 386.2200927734375 294.48126220703125 387.6591796875 293.09375 C 389.11083984375 291.6937255859375 390.4300537109375 290.2249755859375 391.61663818359375 288.6875 C 392.80328369140625 287.1500244140625 393.75006103515625 285.63751220703125 394.45697021484375 284.1500244140625 C 394.8167724609375 284.1500244140625 395.176513671875 284.1500244140625 395.5362548828125 284.1500244140625 C 396.4830322265625 285.6875 397.6129150390625 287.21875 398.92572021484375 288.7437744140625 C 400.238525390625 290.26873779296875 401.620849609375 291.70001220703125 403.07257080078125 293.0374755859375 C 404.5242919921875 294.36248779296875 405.9381103515625 295.4937744140625 407.3140869140625 296.4312744140625 C 407.2257080078125 296.5562744140625 407.1058349609375 296.70623779296875 406.954345703125 296.8812255859375 C 406.81549072265625 297.04376220703125 406.695556640625 297.1812744140625 406.5946044921875 297.29376220703125 C 405.193359375 296.28125 403.766845703125 295.11248779296875 402.315185546875 293.7874755859375 C 400.8760986328125 292.45001220703125 399.5316162109375 291.04998779296875 398.28192138671875 289.5875244140625 C 397.03216552734375 288.125 395.9718017578125 286.6875 395.10076904296875 285.2750244140625M 385.4058837890625 301.51251220703125 C 391.50933837890625 301.51251220703125 397.6129150390625 301.51251220703125 403.71636962890625 301.51251220703125 C 403.71636962890625 301.85626220703125 403.71636962890625 302.20001220703125 403.71636962890625 302.54376220703125 C 397.6129150390625 302.54376220703125 391.50933837890625 302.54376220703125 385.4058837890625 302.54376220703125 C 385.4058837890625 302.20001220703125 385.4058837890625 301.85626220703125 385.4058837890625 301.51251220703125M 403.2808837890625 301.51251220703125 C 403.63433837890625 301.51251220703125 403.98779296875 301.51251220703125 404.34124755859375 301.51251220703125 C 404.34124755859375 304.85626220703125 404.34124755859375 308.20001220703125 404.34124755859375 311.54376220703125 C 404.34124755859375 311.95623779296875 404.27813720703125 312.2750244140625 404.15185546875 312.5 C 404.03826904296875 312.7125244140625 403.7984619140625 312.86248779296875 403.432373046875 312.95001220703125 C 403.041015625 313.04998779296875 402.4603271484375 313.11248779296875 401.6903076171875 313.13751220703125 C 400.932861328125 313.1624755859375 399.93560791015625 313.17498779296875 398.698486328125 313.17498779296875 C 398.6732177734375 313.0 398.616455078125 312.82501220703125 398.528076171875 312.6500244140625 C 398.45233154296875 312.4749755859375 398.36395263671875 312.29998779296875 398.262939453125 312.125 C 399.4117431640625 312.1500244140625 400.36480712890625 312.1624755859375 401.1221923828125 312.1624755859375 C 401.879638671875 312.1624755859375 402.397216796875 312.1500244140625 402.6749267578125 312.125 C 402.9400634765625 312.0999755859375 403.1041259765625 312.0562744140625 403.167236328125 311.9937744140625 C 403.24298095703125 311.91876220703125 403.2808837890625 311.76873779296875 403.2808837890625 311.54376220703125 C 403.2808837890625 308.20001220703125 403.2808837890625 304.85626220703125 403.2808837890625 301.51251220703125M 388.6248779296875 295.0999755859375 C 393.024169921875 295.0999755859375 397.42352294921875 295.0999755859375 401.8228759765625 295.0999755859375 C 401.8228759765625 295.45001220703125 401.8228759765625 295.79998779296875 401.8228759765625 296.1500244140625 C 397.42352294921875 296.1500244140625 393.024169921875 296.1500244140625 388.6248779296875 296.1500244140625 C 388.6248779296875 295.79998779296875 388.6248779296875 295.45001220703125 388.6248779296875 295.0999755859375M 393.2451171875 301.90625 C 393.59857177734375 301.90625 393.9520263671875 301.90625 394.30548095703125 301.90625 C 394.30548095703125 306.76251220703125 394.30548095703125 311.6187744140625 394.30548095703125 316.4749755859375 C 393.9520263671875 316.4749755859375 393.59857177734375 316.4749755859375 393.2451171875 316.4749755859375 C 393.2451171875 311.6187744140625 393.2451171875 306.76251220703125 393.2451171875 301.90625M 379.57373046875 284.07501220703125 C 379.9398193359375 284.07501220703125 380.305908203125 284.07501220703125 380.6719970703125 284.07501220703125 C 380.6719970703125 294.8687744140625 380.6719970703125 305.6624755859375 380.6719970703125 316.45623779296875 C 380.305908203125 316.45623779296875 379.9398193359375 316.45623779296875 379.57373046875 316.45623779296875 C 379.57373046875 305.6624755859375 379.57373046875 294.8687744140625 379.57373046875 284.07501220703125M 375.8055419921875 290.84375 C 376.1527099609375 290.90625 376.4998779296875 290.96875 376.8470458984375 291.03125 C 376.82177734375 292.04376220703125 376.7333984375 293.1312255859375 376.5819091796875 294.29376220703125 C 376.430419921875 295.45623779296875 376.2032470703125 296.58123779296875 375.9002685546875 297.66876220703125 C 375.5972900390625 298.7437744140625 375.19964599609375 299.6624755859375 374.70733642578125 300.42498779296875 C 374.3917236328125 300.26873779296875 374.076171875 300.11248779296875 373.76055908203125 299.95623779296875 C 374.2276611328125 299.2437744140625 374.6063232421875 298.3687744140625 374.896728515625 297.33123779296875 C 375.18701171875 296.29376220703125 375.401611328125 295.2125244140625 375.54052734375 294.0875244140625 C 375.6920166015625 292.9625244140625 375.78033447265625 291.8812255859375 375.8055419921875 290.84375M 382.05426025390625 289.625 C 382.3446044921875 289.48126220703125 382.63494873046875 289.3375244140625 382.92529296875 289.1937255859375 C 383.43023681640625 290.0062255859375 383.8973388671875 290.9000244140625 384.3265380859375 291.875 C 384.768310546875 292.8499755859375 385.07763671875 293.6624755859375 385.25439453125 294.3125 C 384.951416015625 294.5 384.6484375 294.6875 384.345458984375 294.875 C 384.1561279296875 294.1875 383.84051513671875 293.34375 383.398681640625 292.34375 C 382.9569091796875 291.34375 382.50872802734375 290.4375 382.05426025390625 289.625"/>
    <path stroke-width="0" fill="rgb(0, 0, 0)" opacity="1.0" d="M 423.8258056640625 286.17498779296875 C 424.15399169921875 286.17498779296875 424.482177734375 286.17498779296875 424.8104248046875 286.17498779296875 C 424.8104248046875 294.7750244140625 424.8104248046875 303.375 424.8104248046875 311.9749755859375 C 424.8104248046875 312.5999755859375 424.8988037109375 313.0999755859375 425.0755615234375 313.4749755859375 C 425.264892578125 313.8499755859375 425.612060546875 314.11248779296875 426.116943359375 314.26251220703125 C 426.6219482421875 314.42498779296875 427.33514404296875 314.5062255859375 428.25665283203125 314.5062255859375 C 428.521728515625 314.5062255859375 429.0267333984375 314.5062255859375 429.771484375 314.5062255859375 C 430.51629638671875 314.5062255859375 431.362060546875 314.5062255859375 432.308837890625 314.5062255859375 C 433.2681884765625 314.5062255859375 434.23388671875 314.5062255859375 435.2059326171875 314.5062255859375 C 436.177978515625 314.5062255859375 437.0616455078125 314.5062255859375 437.85693359375 314.5062255859375 C 438.664794921875 314.5062255859375 439.2581787109375 314.5062255859375 439.6368408203125 314.5062255859375 C 440.469970703125 314.5062255859375 441.082275390625 314.34375 441.47357177734375 314.01873779296875 C 441.8775634765625 313.6937255859375 442.1552734375 313.11248779296875 442.3067626953125 312.2750244140625 C 442.4708251953125 311.4375 442.6033935546875 310.26251220703125 442.704345703125 308.75 C 442.84326171875 308.8375244140625 443.00732421875 308.92498779296875 443.19671630859375 309.01251220703125 C 443.398681640625 309.0999755859375 443.58172607421875 309.16876220703125 443.745849609375 309.21875 C 443.657470703125 310.76873779296875 443.4996337890625 312.0 443.2724609375 312.9124755859375 C 443.057861328125 313.82501220703125 442.66015625 314.4749755859375 442.07952880859375 314.86248779296875 C 441.49884033203125 315.25 440.61517333984375 315.4437255859375 439.4285888671875 315.4437255859375 C 439.2518310546875 315.4437255859375 438.79107666015625 315.4437255859375 438.0462646484375 315.4437255859375 C 437.3140869140625 315.4437255859375 436.443115234375 315.4437255859375 435.4332275390625 315.4437255859375 C 434.4359130859375 315.4437255859375 433.426025390625 315.4437255859375 432.403564453125 315.4437255859375 C 431.39361572265625 315.4437255859375 430.5225830078125 315.4437255859375 429.7904052734375 315.4437255859375 C 429.05828857421875 315.4437255859375 428.610107421875 315.4437255859375 428.446044921875 315.4437255859375 C 427.2593994140625 315.4437255859375 426.33154296875 315.34375 425.6624755859375 315.14373779296875 C 424.99346923828125 314.95623779296875 424.52008056640625 314.60626220703125 424.24237060546875 314.09375 C 423.964599609375 313.59375 423.8258056640625 312.8812255859375 423.8258056640625 311.95623779296875 C 423.8258056640625 303.36248779296875 423.8258056640625 294.76873779296875 423.8258056640625 286.17498779296875M 424.41278076171875 286.17498779296875 C 430.080810546875 286.17498779296875 435.748779296875 286.17498779296875 441.416748046875 286.17498779296875 C 441.416748046875 292.13751220703125 441.416748046875 298.0999755859375 441.416748046875 304.0625 C 441.069580078125 304.0625 440.7225341796875 304.0625 440.3753662109375 304.0625 C 440.3753662109375 298.45001220703125 440.3753662109375 292.8375244140625 440.3753662109375 287.2249755859375 C 435.054443359375 287.2249755859375 429.733642578125 287.2249755859375 424.41278076171875 287.2249755859375 C 424.41278076171875 286.875 424.41278076171875 286.5250244140625 424.41278076171875 286.17498779296875M 424.3748779296875 300.5374755859375 C 429.93560791015625 300.5374755859375 435.496337890625 300.5374755859375 441.0570068359375 300.5374755859375 C 441.0570068359375 300.88751220703125 441.0570068359375 301.23748779296875 441.0570068359375 301.5875244140625 C 435.496337890625 301.5875244140625 429.93560791015625 301.5875244140625 424.3748779296875 301.5875244140625 C 424.3748779296875 301.23748779296875 424.3748779296875 300.88751220703125 424.3748779296875 300.5374755859375M 432.04376220703125 286.3812255859375 C 432.397216796875 286.3812255859375 432.75067138671875 286.3812255859375 433.1041259765625 286.3812255859375 C 433.1041259765625 291.2562255859375 433.1041259765625 296.1312255859375 433.1041259765625 301.0062255859375 C 432.75067138671875 301.0062255859375 432.397216796875 301.0062255859375 432.04376220703125 301.0062255859375 C 432.04376220703125 296.1312255859375 432.04376220703125 291.2562255859375 432.04376220703125 286.3812255859375M 410.5899658203125 303.9124755859375 C 411.511474609375 303.625 412.57183837890625 303.29376220703125 413.7711181640625 302.91876220703125 C 414.9703369140625 302.53125 416.239013671875 302.1187744140625 417.57708740234375 301.6812744140625 C 418.9278564453125 301.23126220703125 420.2974853515625 300.7874755859375 421.68603515625 300.3499755859375 C 421.742919921875 300.70001220703125 421.7996826171875 301.04998779296875 421.85650634765625 301.4000244140625 C 419.9503173828125 302.0250244140625 418.05047607421875 302.65625 416.156982421875 303.29376220703125 C 414.263427734375 303.9312744140625 412.578125 304.5 411.1011962890625 305.0 C 410.9307861328125 304.63751220703125 410.7603759765625 304.2750244140625 410.5899658203125 303.9124755859375M 411.1390380859375 291.85626220703125 C 414.509521484375 291.85626220703125 417.88006591796875 291.85626220703125 421.2506103515625 291.85626220703125 C 421.2506103515625 292.21875 421.2506103515625 292.58123779296875 421.2506103515625 292.9437255859375 C 417.88006591796875 292.9437255859375 414.509521484375 292.9437255859375 411.1390380859375 292.9437255859375 C 411.1390380859375 292.58123779296875 411.1390380859375 292.21875 411.1390380859375 291.85626220703125M 415.96759033203125 284.11248779296875 C 416.33367919921875 284.11248779296875 416.69976806640625 284.11248779296875 417.0657958984375 284.11248779296875 C 417.0657958984375 294.36248779296875 417.0657958984375 304.61248779296875 417.0657958984375 314.86248779296875 C 417.0657958984375 315.32501220703125 416.9837646484375 315.6624755859375 416.8197021484375 315.875 C 416.668212890625 316.0875244140625 416.4346923828125 316.2437744140625 416.11907958984375 316.34375 C 415.803466796875 316.4312744140625 415.3553466796875 316.48748779296875 414.774658203125 316.51251220703125 C 414.1939697265625 316.5374755859375 413.405029296875 316.5374755859375 412.40771484375 316.51251220703125 C 412.3824462890625 316.4000244140625 412.32568359375 316.23748779296875 412.2373046875 316.0250244140625 C 412.16156005859375 315.82501220703125 412.0732421875 315.65625 411.97222900390625 315.51873779296875 C 412.8179931640625 315.54376220703125 413.5501708984375 315.5562744140625 414.168701171875 315.5562744140625 C 414.78729248046875 315.5562744140625 415.197509765625 315.54376220703125 415.3995361328125 315.51873779296875 C 415.7781982421875 315.51873779296875 415.96759033203125 315.3125 415.96759033203125 314.9000244140625 C 415.96759033203125 304.63751220703125 415.96759033203125 294.375 415.96759033203125 284.11248779296875"/>
    <path stroke-width="0" fill="rgb(0, 0, 0)" opacity="1.0" d="M 468.36187744140625 298.04376220703125 C 468.759521484375 298.1812744140625 469.1571044921875 298.3187255859375 469.5548095703125 298.45623779296875 C 469.15081787109375 299.6937255859375 468.6964111328125 301.0250244140625 468.19140625 302.45001220703125 C 467.6990966796875 303.86248779296875 467.1878662109375 305.29376220703125 466.65771484375 306.7437744140625 C 466.12744140625 308.1937255859375 465.5909423828125 309.58123779296875 465.04815673828125 310.90625 C 464.5179443359375 312.21875 464.0130615234375 313.39373779296875 463.5333251953125 314.4312744140625 C 463.205078125 314.29998779296875 462.876953125 314.16876220703125 462.5487060546875 314.0374755859375 C 463.0284423828125 313.0 463.5396728515625 311.8187255859375 464.08245849609375 310.4937744140625 C 464.637939453125 309.15625 465.17437744140625 307.76251220703125 465.69195556640625 306.3125 C 466.2095947265625 304.86248779296875 466.695556640625 303.42498779296875 467.1500244140625 302.0 C 467.6170654296875 300.5625 468.02099609375 299.2437744140625 468.36187744140625 298.04376220703125M 459.0267333984375 313.8125 C 460.5289306640625 313.75 462.302490234375 313.6624755859375 464.3475341796875 313.54998779296875 C 466.392578125 313.4375 468.59539794921875 313.3125 470.9560546875 313.17498779296875 C 473.3292236328125 313.0250244140625 475.715087890625 312.89373779296875 478.11358642578125 312.78125 C 478.1009521484375 313.11248779296875 478.08837890625 313.4437255859375 478.07568359375 313.7750244140625 C 475.7908935546875 313.92498779296875 473.49334716796875 314.0687255859375 471.1832275390625 314.20623779296875 C 468.8857421875 314.35626220703125 466.7144775390625 314.48748779296875 464.66943359375 314.5999755859375 C 462.6243896484375 314.7249755859375 460.81298828125 314.8375244140625 459.2349853515625 314.9375 C 459.16558837890625 314.5625 459.09613037109375 314.1875 459.0267333984375 313.8125M 472.4329833984375 305.28125 C 472.72332763671875 305.13751220703125 473.013671875 304.9937744140625 473.30401611328125 304.8499755859375 C 474.2003173828125 306.0250244140625 475.0965576171875 307.29998779296875 475.9927978515625 308.67498779296875 C 476.88916015625 310.0374755859375 477.697021484375 311.3687744140625 478.41656494140625 312.66876220703125 C 479.148681640625 313.96875 479.72314453125 315.10626220703125 480.1396484375 316.08123779296875 C 479.81146240234375 316.25 479.4832763671875 316.41876220703125 479.155029296875 316.5875244140625 C 478.7763671875 315.61248779296875 478.22088623046875 314.46875 477.48876953125 313.15625 C 476.756591796875 311.84375 475.9549560546875 310.5 475.08392333984375 309.125 C 474.212890625 307.73748779296875 473.3292236328125 306.45623779296875 472.4329833984375 305.28125M 465.919189453125 284.65625 C 466.2852783203125 284.73126220703125 466.6513671875 284.8062744140625 467.0174560546875 284.8812255859375 C 466.56298828125 286.76873779296875 466.007568359375 288.58123779296875 465.35113525390625 290.3187255859375 C 464.6947021484375 292.04376220703125 463.949951171875 293.63751220703125 463.11676025390625 295.0999755859375 C 462.29620361328125 296.5625 461.3936767578125 297.8687744140625 460.40899658203125 299.01873779296875 C 460.333251953125 298.95623779296875 460.23223876953125 298.88751220703125 460.10601806640625 298.8125 C 459.992431640625 298.73748779296875 459.8724365234375 298.6624755859375 459.7462158203125 298.5875244140625 C 459.6199951171875 298.51251220703125 459.5001220703125 298.45623779296875 459.386474609375 298.41876220703125 C 460.421630859375 297.3062744140625 461.34942626953125 296.03125 462.16998291015625 294.59375 C 463.003173828125 293.15625 463.73529052734375 291.5999755859375 464.366455078125 289.92498779296875 C 464.9976806640625 288.23748779296875 465.5152587890625 286.48126220703125 465.919189453125 284.65625M 473.49334716796875 284.6187744140625 C 473.998291015625 286.3062744140625 474.61688232421875 288.0250244140625 475.3489990234375 289.7750244140625 C 476.0938720703125 291.5250244140625 476.8828125 293.14373779296875 477.7159423828125 294.6312255859375 C 478.561767578125 296.1187744140625 479.36962890625 297.33123779296875 480.1396484375 298.26873779296875 C 480.0386962890625 298.3187255859375 479.931396484375 298.39373779296875 479.8177490234375 298.4937744140625 C 479.716796875 298.58123779296875 479.6094970703125 298.6812744140625 479.495849609375 298.79376220703125 C 479.3948974609375 298.89373779296875 479.2939453125 298.9937744140625 479.19287109375 299.09375 C 478.4228515625 298.08123779296875 477.62127685546875 296.79376220703125 476.7880859375 295.23126220703125 C 475.967529296875 293.65625 475.1849365234375 291.9749755859375 474.44012451171875 290.1875 C 473.7080078125 288.4000244140625 473.0767822265625 286.6624755859375 472.546630859375 284.9749755859375 C 472.8621826171875 284.85626220703125 473.17779541015625 284.73748779296875 473.49334716796875 284.6187744140625M 447.34356689453125 292.1187744140625 C 451.5283203125 292.1187744140625 455.7130126953125 292.1187744140625 459.897705078125 292.1187744140625 C 459.897705078125 292.4749755859375 459.897705078125 292.83123779296875 459.897705078125 293.1875 C 455.7130126953125 293.1875 451.5283203125 293.1875 447.34356689453125 293.1875 C 447.34356689453125 292.83123779296875 447.34356689453125 292.4749755859375 447.34356689453125 292.1187744140625M 453.459716796875 284.07501220703125 C 453.8131103515625 284.07501220703125 454.1666259765625 284.07501220703125 454.52008056640625 284.07501220703125 C 454.52008056640625 294.8687744140625 454.52008056640625 305.6624755859375 454.52008056640625 316.45623779296875 C 454.1666259765625 316.45623779296875 453.8131103515625 316.45623779296875 453.459716796875 316.45623779296875 C 453.459716796875 305.6624755859375 453.459716796875 294.8687744140625 453.459716796875 284.07501220703125M 453.3460693359375 292.54998779296875 C 453.66162109375 292.64373779296875 453.977294921875 292.73748779296875 454.2928466796875 292.83123779296875 C 453.977294921875 294.26873779296875 453.55438232421875 295.76873779296875 453.024169921875 297.33123779296875 C 452.506591796875 298.89373779296875 451.93853759765625 300.41876220703125 451.32000732421875 301.90625 C 450.71405029296875 303.39373779296875 450.06396484375 304.7750244140625 449.36962890625 306.04998779296875 C 448.67535400390625 307.3125 447.98736572265625 308.38751220703125 447.3056640625 309.2750244140625 C 447.21734619140625 309.1624755859375 447.091064453125 309.0250244140625 446.927001953125 308.86248779296875 C 446.7755126953125 308.6875 446.6240234375 308.54998779296875 446.4725341796875 308.45001220703125 C 447.1541748046875 307.61248779296875 447.82958984375 306.5875244140625 448.4986572265625 305.375 C 449.1802978515625 304.1624755859375 449.8304443359375 302.8375244140625 450.448974609375 301.4000244140625 C 451.0675048828125 299.9625244140625 451.6229248046875 298.48748779296875 452.11529541015625 296.9749755859375 C 452.6202392578125 295.4625244140625 453.030517578125 293.98748779296875 453.3460693359375 292.54998779296875M 454.3306884765625 297.29376220703125 C 454.570556640625 297.53125 454.9429931640625 297.9437255859375 455.4478759765625 298.53125 C 455.9654541015625 299.1187744140625 456.5208740234375 299.7562255859375 457.1142578125 300.4437255859375 C 457.70751953125 301.1312255859375 458.2440185546875 301.76873779296875 458.7237548828125 302.35626220703125 C 459.216064453125 302.9437255859375 459.556884765625 303.3687744140625 459.7462158203125 303.6312255859375 C 459.44329833984375 303.9437255859375 459.14031982421875 304.2562255859375 458.83734130859375 304.5687255859375 C 458.62274169921875 304.20623779296875 458.275634765625 303.7125244140625 457.7958984375 303.0875244140625 C 457.328857421875 302.4625244140625 456.817626953125 301.8125 456.26214599609375 301.13751220703125 C 455.7193603515625 300.45001220703125 455.20806884765625 299.8125 454.7283935546875 299.2249755859375 C 454.2486572265625 298.63751220703125 453.87628173828125 298.20001220703125 453.6112060546875 297.9124755859375 C 453.85101318359375 297.70623779296875 454.09088134765625 297.5 454.3306884765625 297.29376220703125"/>
  </g>
</svg>
