<?xml version="1.0" encoding="utf-8"?>
<svg xmlns="http://www.w3.org/2000/svg" xmlns:ev="http://www.w3.org/2001/xml-events" xmlns:xlink="http://www.w3.org/1999/xlink" version="1.1" baseProfile="full" width="7507.0" height="1730.0" viewBox="79.0 -1588.0 7507.0 1730.0">
<defs/>
<g><path d="M 288.000000 -1494.000000 C 307.333333 -1494.000000 326.666667 -1494.000000 346.000000 -1494.000000 C 346.000000 -1309.666667 346.000000 -1125.333333 346.000000 -941.000000 C 346.000000 -863.000000 343.333333 -778.333333 338.000000 -687.000000 C 332.666667 -596.333333 322.666667 -503.333333 308.000000 -408.000000 C 293.333333 -312.666667 271.666667 -219.333333 243.000000 -128.000000 C 214.333333 -37.333333 175.666667 47.000000 127.000000 125.000000 C 123.000000 121.000000 118.000000 117.000000 112.000000 113.000000 C 106.666667 109.666667 101.000000 106.000000 95.000000 102.000000 C 89.000000 98.000000 83.666667 94.666667 79.000000 92.000000 C 126.333333 15.333333 164.000000 -66.666667 192.000000 -154.000000 C 220.000000 -242.000000 240.666667 -331.666667 254.000000 -423.000000 C 268.000000 -515.000000 277.000000 -605.000000 281.000000 -693.000000 C 285.666667 -781.666667 288.000000 -864.333333 288.000000 -941.000000 C 288.000000 -1125.333333 288.000000 -1309.666667 288.000000 -1494.000000z M 315.000000 -1494.000000 C 768.666667 -1494.000000 1222.333333 -1494.000000 1676.000000 -1494.000000 C 1676.000000 -1384.000000 1676.000000 -1274.000000 1676.000000 -1164.000000 C 1222.333333 -1164.000000 768.666667 -1164.000000 315.000000 -1164.000000 C 315.000000 -1182.333333 315.000000 -1200.666667 315.000000 -1219.000000 C 750.000000 -1219.000000 1185.000000 -1219.000000 1620.000000 -1219.000000 C 1620.000000 -1292.000000 1620.000000 -1365.000000 1620.000000 -1438.000000 C 1185.000000 -1438.000000 750.000000 -1438.000000 315.000000 -1438.000000 C 315.000000 -1456.666667 315.000000 -1475.333333 315.000000 -1494.000000z M 659.000000 -1139.000000 C 674.333333 -1147.333333 689.666667 -1155.666667 705.000000 -1164.000000 C 733.000000 -1139.333333 760.000000 -1111.000000 786.000000 -1079.000000 C 812.666667 -1047.000000 831.000000 -1018.333333 841.000000 -993.000000 C 825.666667 -983.333333 810.333333 -973.666667 795.000000 -964.000000 C 783.666667 -989.333333 765.333333 -1018.666667 740.000000 -1052.000000 C 715.333333 -1085.333333 688.333333 -1114.333333 659.000000 -1139.000000z M 1398.000000 -1167.000000 C 1415.333333 -1157.666667 1432.666667 -1148.333333 1450.000000 -1139.000000 C 1425.333333 -1107.000000 1399.333333 -1075.000000 1372.000000 -1043.000000 C 1345.333333 -1011.666667 1320.000000 -985.333333 1296.000000 -964.000000 C 1282.000000 -971.666667 1268.000000 -979.333333 1254.000000 -987.000000 C 1276.666667 -1011.000000 1302.000000 -1040.666667 1330.000000 -1076.000000 C 1358.666667 -1111.333333 1381.333333 -1141.666667 1398.000000 -1167.000000z M 576.000000 -405.000000 C 914.000000 -405.000000 1252.000000 -405.000000 1590.000000 -405.000000 C 1590.000000 -227.000000 1590.000000 -49.000000 1590.000000 129.000000 C 1571.333333 129.000000 1552.666667 129.000000 1534.000000 129.000000 C 1534.000000 -30.000000 1534.000000 -189.000000 1534.000000 -348.000000 C 1233.333333 -348.000000 932.666667 -348.000000 632.000000 -348.000000 C 632.000000 -187.333333 632.000000 -26.666667 632.000000 134.000000 C 613.333333 134.000000 594.666667 134.000000 576.000000 134.000000 C 576.000000 -45.666667 576.000000 -225.333333 576.000000 -405.000000z M 538.000000 -733.000000 C 538.000000 -679.333333 538.000000 -625.666667 538.000000 -572.000000 C 897.000000 -572.000000 1256.000000 -572.000000 1615.000000 -572.000000 C 1615.000000 -625.666667 1615.000000 -679.333333 1615.000000 -733.000000 C 1256.000000 -733.000000 897.000000 -733.000000 538.000000 -733.000000z M 538.000000 -948.000000 C 538.000000 -895.666667 538.000000 -843.333333 538.000000 -791.000000 C 897.000000 -791.000000 1256.000000 -791.000000 1615.000000 -791.000000 C 1615.000000 -843.333333 1615.000000 -895.666667 1615.000000 -948.000000 C 1256.000000 -948.000000 897.000000 -948.000000 538.000000 -948.000000z M 480.000000 -1004.000000 C 876.666667 -1004.000000 1273.333333 -1004.000000 1670.000000 -1004.000000 C 1670.000000 -841.333333 1670.000000 -678.666667 1670.000000 -516.000000 C 1273.333333 -516.000000 876.666667 -516.000000 480.000000 -516.000000 C 480.000000 -678.666667 480.000000 -841.333333 480.000000 -1004.000000z M 1039.000000 -985.000000 C 1058.000000 -985.000000 1077.000000 -985.000000 1096.000000 -985.000000 C 1096.000000 -837.666667 1096.000000 -690.333333 1096.000000 -543.000000 C 1077.000000 -543.000000 1058.000000 -543.000000 1039.000000 -543.000000 C 1039.000000 -690.333333 1039.000000 -837.666667 1039.000000 -985.000000z M 601.000000 -202.000000 C 920.333333 -202.000000 1239.666667 -202.000000 1559.000000 -202.000000 C 1559.000000 -183.333333 1559.000000 -164.666667 1559.000000 -146.000000 C 1239.666667 -146.000000 920.333333 -146.000000 601.000000 -146.000000 C 601.000000 -164.666667 601.000000 -183.333333 601.000000 -202.000000z M 601.000000 10.000000 C 920.333333 10.000000 1239.666667 10.000000 1559.000000 10.000000 C 1559.000000 28.333333 1559.000000 46.666667 1559.000000 65.000000 C 1239.666667 65.000000 920.333333 65.000000 601.000000 65.000000 C 601.000000 46.666667 601.000000 28.333333 601.000000 10.000000z "/>
</g></svg>
