<?xml version="1.0" encoding="utf-8"?>
<svg xmlns="http://www.w3.org/2000/svg" xmlns:ev="http://www.w3.org/2001/xml-events" xmlns:xlink="http://www.w3.org/1999/xlink" version="1.1" baseProfile="full" width="7507.0" height="1730.0" viewBox="79.0 -1588.0 7507.0 1730.0">
<defs/>
<g><path d="M 6382.000000 -791.000000 C 6783.333333 -791.000000 7184.666667 -791.000000 7586.000000 -791.000000 C 7586.000000 -771.666667 7586.000000 -752.333333 7586.000000 -733.000000 C 7184.666667 -733.000000 6783.333333 -733.000000 6382.000000 -733.000000 C 6382.000000 -752.333333 6382.000000 -771.666667 6382.000000 -791.000000z M 6607.000000 -557.000000 C 6901.333333 -557.000000 7195.666667 -557.000000 7490.000000 -557.000000 C 7490.000000 -538.333333 7490.000000 -519.666667 7490.000000 -501.000000 C 7195.666667 -501.000000 6901.333333 -501.000000 6607.000000 -501.000000 C 6607.000000 -519.666667 6607.000000 -538.333333 6607.000000 -557.000000z M 6720.000000 -768.000000 C 6738.000000 -763.000000 6756.000000 -758.000000 6774.000000 -753.000000 C 6724.000000 -650.333333 6658.333333 -555.000000 6577.000000 -467.000000 C 6495.666667 -379.666667 6411.333333 -306.000000 6324.000000 -246.000000 C 6322.000000 -250.000000 6318.333333 -254.333333 6313.000000 -259.000000 C 6307.666667 -264.333333 6302.000000 -269.333333 6296.000000 -274.000000 C 6290.666667 -279.333333 6285.333333 -283.333333 6280.000000 -286.000000 C 6368.666667 -342.666667 6452.333333 -412.666667 6531.000000 -496.000000 C 6609.666667 -580.000000 6672.666667 -670.666667 6720.000000 -768.000000z M 7473.000000 -557.000000 C 7492.000000 -557.000000 7511.000000 -557.000000 7530.000000 -557.000000 C 7530.000000 -557.000000 7529.666667 -552.333333 7529.000000 -543.000000 C 7528.333333 -534.333333 7527.333333 -526.666667 7526.000000 -520.000000 C 7516.000000 -380.666667 7505.000000 -268.666667 7493.000000 -184.000000 C 7481.666667 -100.000000 7469.666667 -36.333333 7457.000000 7.000000 C 7444.333333 51.000000 7429.000000 82.000000 7411.000000 100.000000 C 7398.333333 112.666667 7385.000000 121.000000 7371.000000 125.000000 C 7357.000000 129.000000 7339.000000 131.333333 7317.000000 132.000000 C 7297.666667 132.000000 7271.000000 131.666667 7237.000000 131.000000 C 7203.666667 131.000000 7168.333333 129.666667 7131.000000 127.000000 C 7131.000000 119.000000 7129.666667 109.666667 7127.000000 99.000000 C 7124.333333 88.333333 7120.666667 79.000000 7116.000000 71.000000 C 7158.000000 75.000000 7196.333333 77.666667 7231.000000 79.000000 C 7266.333333 80.333333 7291.333333 81.000000 7306.000000 81.000000 C 7320.000000 81.000000 7331.666667 80.000000 7341.000000 78.000000 C 7351.000000 76.000000 7359.000000 70.333333 7365.000000 61.000000 C 7380.333333 47.000000 7394.000000 18.666667 7406.000000 -24.000000 C 7418.666667 -66.666667 7430.333333 -130.000000 7441.000000 -214.000000 C 7451.666667 -298.000000 7462.333333 -407.666667 7473.000000 -543.000000 C 7473.000000 -547.666667 7473.000000 -552.333333 7473.000000 -557.000000z M 6649.000000 -1204.000000 C 6649.000000 -1133.000000 6649.000000 -1062.000000 6649.000000 -991.000000 C 6895.333333 -991.000000 7141.666667 -991.000000 7388.000000 -991.000000 C 7388.000000 -1062.000000 7388.000000 -1133.000000 7388.000000 -1204.000000 C 7141.666667 -1204.000000 6895.333333 -1204.000000 6649.000000 -1204.000000z M 6649.000000 -1473.000000 C 6649.000000 -1402.333333 6649.000000 -1331.666667 6649.000000 -1261.000000 C 6895.333333 -1261.000000 7141.666667 -1261.000000 7388.000000 -1261.000000 C 7388.000000 -1331.666667 7388.000000 -1402.333333 7388.000000 -1473.000000 C 7141.666667 -1473.000000 6895.333333 -1473.000000 6649.000000 -1473.000000z M 6591.000000 -1528.000000 C 6875.333333 -1528.000000 7159.666667 -1528.000000 7444.000000 -1528.000000 C 7444.000000 -1329.666667 7444.000000 -1131.333333 7444.000000 -933.000000 C 7159.666667 -933.000000 6875.333333 -933.000000 6591.000000 -933.000000 C 6591.000000 -1131.333333 6591.000000 -1329.666667 6591.000000 -1528.000000z M 5877.000000 -1167.000000 C 6060.666667 -1167.000000 6244.333333 -1167.000000 6428.000000 -1167.000000 C 6428.000000 -1148.000000 6428.000000 -1129.000000 6428.000000 -1110.000000 C 6244.333333 -1110.000000 6060.666667 -1110.000000 5877.000000 -1110.000000 C 5877.000000 -1129.000000 5877.000000 -1148.000000 5877.000000 -1167.000000z M 6132.000000 -1588.000000 C 6151.333333 -1588.000000 6170.666667 -1588.000000 6190.000000 -1588.000000 C 6190.000000 -1198.666667 6190.000000 -809.333333 6190.000000 -420.000000 C 6170.666667 -420.000000 6151.333333 -420.000000 6132.000000 -420.000000 C 6132.000000 -809.333333 6132.000000 -1198.666667 6132.000000 -1588.000000z M 5846.000000 -309.000000 C 5894.666667 -331.000000 5950.333333 -357.000000 6013.000000 -387.000000 C 6076.333333 -417.000000 6143.333333 -449.333333 6214.000000 -484.000000 C 6285.333333 -518.666667 6356.666667 -553.333333 6428.000000 -588.000000 C 6432.666667 -569.333333 6437.333333 -550.666667 6442.000000 -532.000000 C 6342.000000 -483.333333 6241.666667 -434.333333 6141.000000 -385.000000 C 6040.333333 -335.666667 5951.000000 -291.666667 5873.000000 -253.000000 C 5864.000000 -271.666667 5855.000000 -290.333333 5846.000000 -309.000000z M 7202.000000 -549.000000 C 7217.333333 -541.333333 7232.666667 -533.666667 7248.000000 -526.000000 C 7224.666667 -440.000000 7192.333333 -354.000000 7151.000000 -268.000000 C 7109.666667 -182.666667 7062.666667 -104.000000 7010.000000 -32.000000 C 6957.333333 39.333333 6901.000000 97.333333 6841.000000 142.000000 C 6835.666667 135.333333 6828.333333 128.333333 6819.000000 121.000000 C 6810.333333 114.333333 6801.666667 109.333333 6793.000000 106.000000 C 6851.666667 63.333333 6908.000000 7.000000 6962.000000 -63.000000 C 7016.000000 -133.666667 7063.666667 -211.333333 7105.000000 -296.000000 C 7146.333333 -381.333333 7178.666667 -465.666667 7202.000000 -549.000000z M 6893.000000 -541.000000 C 6908.333333 -532.666667 6923.666667 -524.333333 6939.000000 -516.000000 C 6905.666667 -443.333333 6862.666667 -370.000000 6810.000000 -296.000000 C 6758.000000 -222.666667 6700.000000 -155.000000 6636.000000 -93.000000 C 6572.666667 -31.000000 6509.000000 20.333333 6445.000000 61.000000 C 6440.333333 55.000000 6434.000000 47.666667 6426.000000 39.000000 C 6418.666667 31.000000 6411.000000 24.333333 6403.000000 19.000000 C 6465.666667 -17.666667 6528.666667 -66.000000 6592.000000 -126.000000 C 6655.333333 -186.666667 6713.333333 -253.000000 6766.000000 -325.000000 C 6818.666667 -397.666667 6861.000000 -469.666667 6893.000000 -541.000000z "/>
</g></svg>
