<?xml version="1.0" ?>
<svg xmlns="http://www.w3.org/2000/svg" version="1.1" width="600" height="600">
  <defs/>
  <g>
    <path stroke-width="0" fill="rgb(0, 0, 0)" opacity="1.0" d="M 122.52273559570312 130.4248046875 C 167.01718139648438 130.4248046875 211.51162719726562 130.4248046875 256.006103515625 130.4248046875 C 256.006103515625 134.28240966796875 256.006103515625 138.14007568359375 256.006103515625 141.9976806640625 C 211.51162719726562 141.9976806640625 167.01718139648438 141.9976806640625 122.52273559570312 141.9976806640625 C 122.52273559570312 138.14007568359375 122.52273559570312 134.28240966796875 122.52273559570312 130.4248046875M 128.5150146484375 242.02066040039062 C 169.91000366210938 242.02066040039062 211.30499267578125 242.02066040039062 252.70001220703125 242.02066040039062 C 252.70001220703125 245.8782958984375 252.70001220703125 249.73593139648438 252.70001220703125 253.59356689453125 C 211.30499267578125 253.59356689453125 169.91000366210938 253.59356689453125 128.5150146484375 253.59356689453125 C 128.5150146484375 249.73593139648438 128.5150146484375 245.8782958984375 128.5150146484375 242.02066040039062M 117.35696411132812 386.888671875 C 129.0660400390625 383.7198486328125 142.49700927734375 379.93115234375 157.64993286132812 375.52239990234375 C 172.94058227539062 371.1136474609375 189.19552612304688 366.3604736328125 206.41473388671875 361.262939453125 C 223.771728515625 356.027587890625 241.19757080078125 350.929931640625 258.6922607421875 345.97015380859375 C 259.2432861328125 349.8277587890625 259.7943115234375 353.6854248046875 260.3453369140625 357.5430908203125 C 235.41189575195312 364.844970703125 210.54736328125 372.2158203125 185.75167846679688 379.65557861328125 C 161.09378051757812 387.09527587890625 139.53530883789062 393.57061767578125 121.07632446289062 399.08154296875 C 119.8365478515625 395.0172119140625 118.59674072265625 390.95294189453125 117.35696411132812 386.888671875M 288.8603515625 208.74853515625 C 288.8603515625 227.2100830078125 288.8603515625 245.671630859375 288.8603515625 264.1331787109375 C 340.724609375 264.1331787109375 392.5888671875 264.1331787109375 444.453125 264.1331787109375 C 444.453125 245.671630859375 444.453125 227.2100830078125 444.453125 208.74853515625 C 392.5888671875 208.74853515625 340.724609375 208.74853515625 288.8603515625 208.74853515625M 288.8603515625 275.7060852050781 C 288.8603515625 294.5120849609375 288.8603515625 313.3179931640625 288.8603515625 332.1240234375 C 340.724609375 332.1240234375 392.5888671875 332.1240234375 444.453125 332.1240234375 C 444.453125 313.3179931640625 444.453125 294.5120849609375 444.453125 275.7060852050781 C 392.5888671875 275.7060852050781 340.724609375 275.7060852050781 288.8603515625 275.7060852050781M 288.8603515625 141.58438110351562 C 288.8603515625 159.97702026367188 288.8603515625 178.36968994140625 288.8603515625 196.7623291015625 C 340.724609375 196.7623291015625 392.5888671875 196.7623291015625 444.453125 196.7623291015625 C 444.453125 178.36968994140625 444.453125 159.97702026367188 444.453125 141.58438110351562 C 392.5888671875 141.58438110351562 340.724609375 141.58438110351562 288.8603515625 141.58438110351562M 277.2890319824219 130.011474609375 C 336.79864501953125 130.011474609375 396.3082275390625 130.011474609375 455.81787109375 130.011474609375 C 455.81787109375 201.308837890625 455.81787109375 272.606201171875 455.81787109375 343.903564453125 C 396.3082275390625 343.903564453125 336.79864501953125 343.903564453125 277.2890319824219 343.903564453125 C 277.2890319824219 272.606201171875 277.2890319824219 201.308837890625 277.2890319824219 130.011474609375M 385.150146484375 336.87713623046875 C 389.00732421875 336.87713623046875 392.8643798828125 336.87713623046875 396.72149658203125 336.87713623046875 C 396.72149658203125 372.4224853515625 396.72149658203125 407.9678955078125 396.72149658203125 443.51318359375 C 396.72149658203125 447.50860595703125 397.616943359375 450.12628173828125 399.40771484375 451.3662109375 C 401.3363037109375 452.74395751953125 405.4688720703125 453.432861328125 411.8055419921875 453.432861328125 C 413.871826171875 453.432861328125 418.00445556640625 453.432861328125 424.203369140625 453.432861328125 C 430.5400390625 453.432861328125 437.01446533203125 453.432861328125 443.62664794921875 453.432861328125 C 450.23883056640625 453.432861328125 454.85357666015625 453.432861328125 457.47088623046875 453.432861328125 C 461.19024658203125 453.432861328125 463.9453125 452.3995361328125 465.736083984375 450.33294677734375 C 467.6646728515625 448.266357421875 469.042236328125 443.78875732421875 469.86871337890625 436.900146484375 C 470.8330078125 430.011474609375 471.452880859375 419.67852783203125 471.7283935546875 405.9012451171875 C 472.8304443359375 406.452392578125 473.9324951171875 407.07232666015625 475.03448486328125 407.76123046875 C 476.2742919921875 408.312255859375 477.58294677734375 408.8634033203125 478.96044921875 409.4144287109375 C 480.47576904296875 409.965576171875 481.784423828125 410.37890625 482.886474609375 410.6544189453125 C 482.6109619140625 425.25830078125 481.715576171875 436.41790771484375 480.20025634765625 444.1331787109375 C 478.82275390625 451.9862060546875 476.48089599609375 457.359375 473.1748046875 460.2525634765625 C 469.86871337890625 463.14581298828125 465.04736328125 464.5924072265625 458.710693359375 464.5924072265625 C 457.608642578125 464.5924072265625 454.7158203125 464.5924072265625 450.0322265625 464.5924072265625 C 445.486328125 464.5924072265625 440.45831298828125 464.5924072265625 434.9481201171875 464.5924072265625 C 429.5758056640625 464.5924072265625 424.61663818359375 464.5924072265625 420.07080078125 464.5924072265625 C 415.66259765625 464.5924072265625 412.769775390625 464.5924072265625 411.39227294921875 464.5924072265625 C 404.50457763671875 464.5924072265625 399.1322021484375 464.04132080078125 395.27508544921875 462.93914794921875 C 391.55572509765625 461.9747314453125 388.93841552734375 459.97705078125 387.423095703125 456.946044921875 C 385.9078369140625 453.9150390625 385.150146484375 449.43743896484375 385.150146484375 443.51318359375 C 385.150146484375 407.9678955078125 385.150146484375 372.4224853515625 385.150146484375 336.87713623046875M 320.2681884765625 337.29046630859375 C 324.19415283203125 337.29046630859375 328.1201171875 337.29046630859375 332.046142578125 337.29046630859375 C 329.9798583984375 353.9609375 326.74261474609375 369.184814453125 322.33447265625 382.96209716796875 C 317.9263916015625 396.6015625 311.7274475097656 408.9322509765625 303.73773193359375 419.9541015625 C 295.88580322265625 430.97589111328125 285.7608642578125 440.6199951171875 273.363037109375 448.8863525390625 C 260.9652099609375 457.29046630859375 245.743408203125 464.3857421875 227.69769287109375 470.1722412109375 C 227.14666748046875 469.070068359375 226.3890380859375 467.89892578125 225.42474365234375 466.6590576171875 C 224.59823608398438 465.55682373046875 223.63397216796875 464.3857421875 222.53192138671875 463.14581298828125 C 221.56765747070312 462.04364013671875 220.6722412109375 461.21697998046875 219.84573364257812 460.6658935546875 C 237.47821044921875 455.292724609375 252.2867431640625 448.6796875 264.27130126953125 440.82666015625 C 276.39361572265625 433.111328125 286.2430114746094 424.01837158203125 293.8194580078125 413.547607421875 C 301.39593505859375 403.076904296875 307.18157958984375 391.5040283203125 311.17645263671875 378.82891845703125 C 315.30908203125 366.15380859375 318.339599609375 352.30767822265625 320.2681884765625 337.29046630859375M 184.9251708984375 135.17794799804688 C 188.78225708007812 135.17794799804688 192.63937377929688 135.17794799804688 196.4964599609375 135.17794799804688 C 196.4964599609375 213.22616577148438 196.4964599609375 291.2743835449219 196.4964599609375 369.3226318359375 C 192.63937377929688 370.4248046875 188.78225708007812 371.5269775390625 184.9251708984375 372.629150390625 C 184.9251708984375 293.478759765625 184.9251708984375 214.328369140625 184.9251708984375 135.17794799804688"/>
  </g>
</svg>
