<?xml version="1.0" encoding="utf-8"?>
<svg xmlns="http://www.w3.org/2000/svg" xmlns:ev="http://www.w3.org/2001/xml-events" xmlns:xlink="http://www.w3.org/1999/xlink" version="1.1" baseProfile="full" width="16896.0" height="1920.0" viewBox="192.0 -1690.0 16896.0 1920.0">
<defs/>
<g><path d="M 9792.000000 230.000000 C 9792.000000 -410.000000 9792.000000 -1050.000000 9792.000000 -1690.000000 C 10304.000000 -1690.000000 10816.000000 -1690.000000 11328.000000 -1690.000000 C 11328.000000 -1050.000000 11328.000000 -410.000000 11328.000000 230.000000 C 10816.000000 230.000000 10304.000000 230.000000 9792.000000 230.000000z M 10560.000000 -808.000000 C 10763.666667 -1070.000000 10967.333333 -1332.000000 11171.000000 -1594.000000 C 10763.666667 -1594.000000 10356.333333 -1594.000000 9949.000000 -1594.000000 C 10152.666667 -1332.000000 10356.333333 -1070.000000 10560.000000 -808.000000z M 10621.000000 -730.000000 C 10824.666667 -468.000000 11028.333333 -206.000000 11232.000000 56.000000 C 11232.000000 -467.666667 11232.000000 -991.333333 11232.000000 -1515.000000 C 11028.333333 -1253.333333 10824.666667 -991.666667 10621.000000 -730.000000z M 9949.000000 134.000000 C 10356.333333 134.000000 10763.666667 134.000000 11171.000000 134.000000 C 10967.333333 -127.666667 10763.666667 -389.333333 10560.000000 -651.000000 C 10356.333333 -389.333333 10152.666667 -127.666667 9949.000000 134.000000z M 9888.000000 -1515.000000 C 9888.000000 -991.333333 9888.000000 -467.666667 9888.000000 56.000000 C 10091.666667 -206.000000 10295.333333 -468.000000 10499.000000 -730.000000 C 10295.333333 -991.666667 10091.666667 -1253.333333 9888.000000 -1515.000000z "/>
</g></svg>
