<?xml version="1.0" encoding="utf-8"?>
<svg xmlns="http://www.w3.org/2000/svg" xmlns:ev="http://www.w3.org/2001/xml-events" xmlns:xlink="http://www.w3.org/1999/xlink" version="1.1" baseProfile="full" width="49628.0" height="1744.0" viewBox="213.0 -1596.0 49628.0 1744.0">
<defs/>
<g><path d="M 19845.000000 -1465.000000 C 19882.333333 -1453.666667 19932.333333 -1440.333333 19995.000000 -1425.000000 C 20057.666667 -1409.666667 20124.333333 -1394.333333 20195.000000 -1379.000000 C 20266.333333 -1363.666667 20335.000000 -1350.333333 20401.000000 -1339.000000 C 20467.000000 -1328.333333 20521.000000 -1321.000000 20563.000000 -1317.000000 C 20558.000000 -1298.000000 20553.000000 -1279.000000 20548.000000 -1260.000000 C 20513.333333 -1264.666667 20471.333333 -1271.000000 20422.000000 -1279.000000 C 20372.666667 -1287.666667 20319.333333 -1297.333333 20262.000000 -1308.000000 C 20205.333333 -1319.333333 20149.000000 -1330.666667 20093.000000 -1342.000000 C 20037.666667 -1353.333333 19987.000000 -1364.333333 19941.000000 -1375.000000 C 19895.000000 -1386.333333 19857.333333 -1396.000000 19828.000000 -1404.000000 C 19833.666667 -1424.333333 19839.333333 -1444.666667 19845.000000 -1465.000000z M 19747.000000 -1150.000000 C 19741.000000 -1111.333333 19734.333333 -1063.666667 19727.000000 -1007.000000 C 19719.666667 -950.333333 19712.000000 -891.000000 19704.000000 -829.000000 C 19696.666667 -767.666667 19689.000000 -709.666667 19681.000000 -655.000000 C 19673.666667 -601.000000 19667.000000 -556.666667 19661.000000 -522.000000 C 19759.666667 -620.666667 19866.000000 -693.000000 19980.000000 -739.000000 C 20094.666667 -785.000000 20216.666667 -808.000000 20346.000000 -808.000000 C 20430.666667 -808.000000 20506.666667 -793.000000 20574.000000 -763.000000 C 20641.333333 -733.000000 20694.666667 -690.333333 20734.000000 -635.000000 C 20774.000000 -580.333333 20794.000000 -516.666667 20794.000000 -444.000000 C 20794.000000 -360.666667 20773.333333 -286.333333 20732.000000 -221.000000 C 20691.333333 -155.666667 20630.666667 -101.666667 20550.000000 -59.000000 C 20469.333333 -17.000000 20369.000000 12.666667 20249.000000 30.000000 C 20129.666667 47.333333 19991.333333 49.333333 19834.000000 36.000000 C 19828.000000 15.666667 19822.000000 -4.666667 19816.000000 -25.000000 C 20028.666667 -3.000000 20202.666667 -8.666667 20338.000000 -42.000000 C 20474.000000 -75.333333 20575.000000 -127.666667 20641.000000 -199.000000 C 20707.000000 -271.000000 20740.000000 -353.666667 20740.000000 -447.000000 C 20740.000000 -507.666667 20722.666667 -561.333333 20688.000000 -608.000000 C 20653.333333 -654.666667 20606.666667 -691.000000 20548.000000 -717.000000 C 20489.333333 -743.000000 20422.666667 -756.000000 20348.000000 -756.000000 C 20204.666667 -756.000000 20078.000000 -730.333333 19968.000000 -679.000000 C 19858.000000 -628.333333 19766.000000 -558.000000 19692.000000 -468.000000 C 19680.000000 -455.333333 19670.333333 -441.666667 19663.000000 -427.000000 C 19656.333333 -412.333333 19651.000000 -399.333333 19647.000000 -388.000000 C 19626.000000 -393.000000 19605.000000 -398.000000 19584.000000 -403.000000 C 19592.000000 -435.000000 19600.000000 -476.333333 19608.000000 -527.000000 C 19616.000000 -577.666667 19624.000000 -632.333333 19632.000000 -691.000000 C 19640.000000 -750.333333 19647.333333 -809.333333 19654.000000 -868.000000 C 19661.333333 -926.666667 19667.333333 -981.666667 19672.000000 -1033.000000 C 19677.333333 -1084.333333 19681.333333 -1126.000000 19684.000000 -1158.000000 C 19705.000000 -1155.333333 19726.000000 -1152.666667 19747.000000 -1150.000000z "/>
</g></svg>
