<?xml version="1.0" ?>
<svg xmlns="http://www.w3.org/2000/svg" version="1.1" width="600" height="600">
  <defs/>
  <g>
    <path stroke-width="0" fill="rgb(0, 0, 0)" opacity="1.0" d="M 156.8409423828125 480.125 C 156.8409423828125 360.125 156.8409423828125 240.125 156.8409423828125 120.125 C 252.82080078125 120.125 348.800537109375 120.125 444.7803955078125 120.125 C 444.7803955078125 240.125 444.7803955078125 360.125 444.7803955078125 480.125 C 348.800537109375 480.125 252.82080078125 480.125 156.8409423828125 480.125M 300.8106689453125 285.5 C 338.9901123046875 236.375 377.169677734375 187.25 415.34912109375 138.125 C 338.9901123046875 138.125 262.6312255859375 138.125 186.272216796875 138.125 C 224.45166015625 187.25 262.6312255859375 236.375 300.8106689453125 285.5M 312.245849609375 300.125 C 350.42529296875 349.25 388.604736328125 398.375 426.7841796875 447.5 C 426.7841796875 349.3125 426.7841796875 251.125 426.7841796875 152.9375 C 388.604736328125 202.0 350.42529296875 251.0625 312.245849609375 300.125M 186.272216796875 462.125 C 262.6312255859375 462.125 338.9901123046875 462.125 415.34912109375 462.125 C 377.169677734375 413.0625 338.9901123046875 364.0 300.8106689453125 314.9375 C 262.6312255859375 364.0 224.45166015625 413.0625 186.272216796875 462.125M 174.837158203125 152.9375 C 174.837158203125 251.125 174.837158203125 349.3125 174.837158203125 447.5 C 213.0166015625 398.375 251.1961669921875 349.25 289.37548828125 300.125 C 251.1961669921875 251.0625 213.0166015625 202.0 174.837158203125 152.9375"/>
  </g>
</svg>
