<?xml version="1.0" encoding="utf-8"?>
<svg xmlns="http://www.w3.org/2000/svg" xmlns:ev="http://www.w3.org/2001/xml-events" xmlns:xlink="http://www.w3.org/1999/xlink" version="1.1" baseProfile="full" width="41856.0" height="1776.0" viewBox="67.0 -1634.0 41856.0 1776.0">
<defs/>
<g><path d="M 12263.000000 -1071.000000 C 12317.000000 -1066.333333 12369.000000 -1062.666667 12419.000000 -1060.000000 C 12469.666667 -1057.333333 12522.666667 -1056.000000 12578.000000 -1056.000000 C 12692.000000 -1056.000000 12805.000000 -1060.000000 12917.000000 -1068.000000 C 13029.000000 -1076.666667 13131.666667 -1090.000000 13225.000000 -1108.000000 C 13225.000000 -1088.666667 13225.000000 -1069.333333 13225.000000 -1050.000000 C 13121.000000 -1032.000000 13013.666667 -1018.666667 12903.000000 -1010.000000 C 12792.333333 -1002.000000 12682.000000 -998.000000 12572.000000 -998.000000 C 12518.666667 -998.000000 12468.000000 -999.333333 12420.000000 -1002.000000 C 12372.000000 -1004.666667 12319.666667 -1008.000000 12263.000000 -1012.000000 C 12263.000000 -1031.666667 12263.000000 -1051.333333 12263.000000 -1071.000000z M 12876.000000 -1436.000000 C 12873.333333 -1415.333333 12871.000000 -1396.666667 12869.000000 -1380.000000 C 12867.000000 -1364.000000 12865.333333 -1347.000000 12864.000000 -1329.000000 C 12862.666667 -1303.000000 12861.666667 -1271.666667 12861.000000 -1235.000000 C 12860.333333 -1199.000000 12860.000000 -1161.666667 12860.000000 -1123.000000 C 12860.000000 -1085.000000 12860.000000 -1051.000000 12860.000000 -1021.000000 C 12860.000000 -962.333333 12861.333333 -897.666667 12864.000000 -827.000000 C 12866.666667 -757.000000 12869.666667 -685.333333 12873.000000 -612.000000 C 12877.000000 -539.333333 12880.333333 -469.333333 12883.000000 -402.000000 C 12885.666667 -334.666667 12887.000000 -274.333333 12887.000000 -221.000000 C 12887.000000 -193.000000 12883.000000 -163.000000 12875.000000 -131.000000 C 12867.666667 -99.666667 12853.666667 -70.000000 12833.000000 -42.000000 C 12813.000000 -14.000000 12784.000000 8.666667 12746.000000 26.000000 C 12708.000000 43.333333 12659.000000 52.000000 12599.000000 52.000000 C 12475.000000 52.000000 12383.000000 30.000000 12323.000000 -14.000000 C 12263.666667 -58.666667 12234.000000 -116.666667 12234.000000 -188.000000 C 12234.000000 -230.666667 12247.333333 -270.666667 12274.000000 -308.000000 C 12301.333333 -346.000000 12341.666667 -376.666667 12395.000000 -400.000000 C 12449.000000 -424.000000 12516.333333 -436.000000 12597.000000 -436.000000 C 12669.000000 -436.000000 12736.333333 -427.666667 12799.000000 -411.000000 C 12861.666667 -394.333333 12920.666667 -371.666667 12976.000000 -343.000000 C 13032.000000 -315.000000 13084.666667 -283.000000 13134.000000 -247.000000 C 13183.333333 -211.666667 13229.666667 -174.666667 13273.000000 -136.000000 C 13260.666667 -118.333333 13248.333333 -100.666667 13236.000000 -83.000000 C 13176.000000 -140.333333 13113.333333 -191.666667 13048.000000 -237.000000 C 12982.666667 -282.333333 12912.666667 -318.333333 12838.000000 -345.000000 C 12763.333333 -372.333333 12681.000000 -386.000000 12591.000000 -386.000000 C 12501.666667 -386.000000 12428.333333 -367.666667 12371.000000 -331.000000 C 12314.333333 -294.333333 12286.000000 -248.000000 12286.000000 -192.000000 C 12286.000000 -133.333333 12312.333333 -87.000000 12365.000000 -53.000000 C 12417.666667 -19.000000 12487.333333 -2.000000 12574.000000 -2.000000 C 12643.333333 -2.000000 12696.333333 -12.333333 12733.000000 -33.000000 C 12770.333333 -54.333333 12796.333333 -83.333333 12811.000000 -120.000000 C 12825.666667 -156.666667 12833.000000 -198.666667 12833.000000 -246.000000 C 12833.000000 -282.000000 12831.666667 -331.333333 12829.000000 -394.000000 C 12827.000000 -456.666667 12824.000000 -525.000000 12820.000000 -599.000000 C 12816.000000 -673.000000 12812.666667 -746.666667 12810.000000 -820.000000 C 12807.333333 -894.000000 12806.000000 -960.000000 12806.000000 -1018.000000 C 12806.000000 -1076.666667 12806.000000 -1133.000000 12806.000000 -1187.000000 C 12806.000000 -1241.666667 12806.666667 -1288.333333 12808.000000 -1327.000000 C 12808.000000 -1345.000000 12808.000000 -1363.666667 12808.000000 -1383.000000 C 12808.000000 -1403.000000 12806.666667 -1420.666667 12804.000000 -1436.000000 C 12828.000000 -1436.000000 12852.000000 -1436.000000 12876.000000 -1436.000000z M 11917.000000 -1430.000000 C 11915.000000 -1422.666667 11912.666667 -1414.333333 11910.000000 -1405.000000 C 11907.333333 -1396.333333 11905.000000 -1386.666667 11903.000000 -1376.000000 C 11901.000000 -1366.000000 11898.666667 -1355.333333 11896.000000 -1344.000000 C 11887.333333 -1298.000000 11878.000000 -1248.333333 11868.000000 -1195.000000 C 11858.666667 -1142.333333 11849.333333 -1087.333333 11840.000000 -1030.000000 C 11831.333333 -973.333333 11823.666667 -916.333333 11817.000000 -859.000000 C 11811.000000 -802.333333 11806.000000 -746.666667 11802.000000 -692.000000 C 11798.000000 -638.000000 11796.000000 -587.333333 11796.000000 -540.000000 C 11796.000000 -465.333333 11798.666667 -397.000000 11804.000000 -335.000000 C 11809.333333 -273.000000 11817.000000 -204.333333 11827.000000 -129.000000 C 11838.333333 -164.333333 11852.000000 -204.666667 11868.000000 -250.000000 C 11884.000000 -296.000000 11900.333333 -341.000000 11917.000000 -385.000000 C 11933.666667 -429.000000 11948.666667 -466.333333 11962.000000 -497.000000 C 11974.666667 -487.333333 11987.333333 -477.666667 12000.000000 -468.000000 C 11987.333333 -432.666667 11971.333333 -389.666667 11952.000000 -339.000000 C 11932.666667 -288.333333 11914.666667 -239.333333 11898.000000 -192.000000 C 11881.333333 -144.666667 11870.000000 -107.000000 11864.000000 -79.000000 C 11861.333333 -66.333333 11859.333333 -52.000000 11858.000000 -36.000000 C 11856.666667 -20.666667 11856.666667 -6.666667 11858.000000 6.000000 C 11859.333333 14.666667 11860.666667 24.000000 11862.000000 34.000000 C 11863.333333 44.666667 11864.666667 53.333333 11866.000000 60.000000 C 11848.000000 61.666667 11830.000000 63.333333 11812.000000 65.000000 C 11794.000000 -6.333333 11778.000000 -92.333333 11764.000000 -193.000000 C 11750.000000 -293.666667 11743.000000 -408.666667 11743.000000 -538.000000 C 11743.000000 -606.666667 11746.666667 -679.333333 11754.000000 -756.000000 C 11762.000000 -833.333333 11771.333333 -909.333333 11782.000000 -984.000000 C 11792.666667 -1058.666667 11803.000000 -1128.000000 11813.000000 -1192.000000 C 11823.666667 -1256.000000 11832.333333 -1309.333333 11839.000000 -1352.000000 C 11841.666667 -1370.000000 11843.333333 -1386.000000 11844.000000 -1400.000000 C 11845.333333 -1414.000000 11846.000000 -1426.666667 11846.000000 -1438.000000 C 11869.666667 -1435.333333 11893.333333 -1432.666667 11917.000000 -1430.000000z M 13050.000000 -1484.000000 C 13062.000000 -1463.333333 13075.666667 -1436.666667 13091.000000 -1404.000000 C 13106.333333 -1372.000000 13122.000000 -1338.666667 13138.000000 -1304.000000 C 13154.000000 -1269.333333 13167.000000 -1238.666667 13177.000000 -1212.000000 C 13156.000000 -1203.666667 13135.000000 -1195.333333 13114.000000 -1187.000000 C 13104.666667 -1215.000000 13092.666667 -1246.000000 13078.000000 -1280.000000 C 13063.333333 -1314.000000 13048.666667 -1347.333333 13034.000000 -1380.000000 C 13019.333333 -1413.333333 13005.666667 -1441.666667 12993.000000 -1465.000000 C 13012.000000 -1471.333333 13031.000000 -1477.666667 13050.000000 -1484.000000z M 13236.000000 -1540.000000 C 13249.333333 -1518.000000 13263.666667 -1491.000000 13279.000000 -1459.000000 C 13294.333333 -1427.000000 13309.666667 -1394.333333 13325.000000 -1361.000000 C 13340.333333 -1327.666667 13353.666667 -1297.666667 13365.000000 -1271.000000 C 13344.000000 -1262.666667 13323.000000 -1254.333333 13302.000000 -1246.000000 C 13285.333333 -1289.333333 13265.666667 -1337.666667 13243.000000 -1391.000000 C 13221.000000 -1444.333333 13199.666667 -1487.666667 13179.000000 -1521.000000 C 13198.000000 -1527.333333 13217.000000 -1533.666667 13236.000000 -1540.000000z "/>
</g></svg>
