<?xml version="1.0" encoding="utf-8"?>
<svg xmlns="http://www.w3.org/2000/svg" xmlns:ev="http://www.w3.org/2001/xml-events" xmlns:xlink="http://www.w3.org/1999/xlink" version="1.1" baseProfile="full" width="20873.0" height="1742.0" viewBox="84.0 -1596.0 20873.0 1742.0">
<defs/>
<g><path d="M 8479.000000 -1480.000000 C 8475.000000 -1463.333333 8472.000000 -1447.333333 8470.000000 -1432.000000 C 8468.000000 -1416.666667 8465.666667 -1400.000000 8463.000000 -1382.000000 C 8458.333333 -1338.666667 8452.333333 -1288.000000 8445.000000 -1230.000000 C 8438.333333 -1172.666667 8430.666667 -1111.666667 8422.000000 -1047.000000 C 8414.000000 -982.333333 8406.000000 -916.666667 8398.000000 -850.000000 C 8390.666667 -784.000000 8383.333333 -719.666667 8376.000000 -657.000000 C 8368.666667 -594.333333 8363.000000 -536.666667 8359.000000 -484.000000 C 8355.666667 -431.333333 8354.000000 -386.333333 8354.000000 -349.000000 C 8354.000000 -243.000000 8383.333333 -157.333333 8442.000000 -92.000000 C 8501.333333 -26.666667 8593.000000 6.000000 8717.000000 6.000000 C 8821.666667 6.000000 8914.666667 -8.000000 8996.000000 -36.000000 C 9077.333333 -64.666667 9141.000000 -106.666667 9187.000000 -162.000000 C 9233.000000 -218.000000 9256.000000 -285.666667 9256.000000 -365.000000 C 9256.000000 -429.000000 9238.666667 -498.333333 9204.000000 -573.000000 C 9170.000000 -647.666667 9113.333333 -715.333333 9034.000000 -776.000000 C 9057.000000 -780.333333 9080.000000 -784.666667 9103.000000 -789.000000 C 9170.333333 -723.666667 9221.666667 -656.666667 9257.000000 -588.000000 C 9292.333333 -520.000000 9310.000000 -444.333333 9310.000000 -361.000000 C 9310.000000 -267.666667 9284.333333 -189.666667 9233.000000 -127.000000 C 9181.666667 -64.333333 9112.000000 -17.666667 9024.000000 13.000000 C 8936.000000 44.333333 8835.000000 60.000000 8721.000000 60.000000 C 8649.000000 60.000000 8580.333333 47.333333 8515.000000 22.000000 C 8449.666667 -2.666667 8396.666667 -44.333333 8356.000000 -103.000000 C 8316.000000 -162.333333 8296.000000 -242.666667 8296.000000 -344.000000 C 8296.000000 -387.333333 8299.000000 -442.333333 8305.000000 -509.000000 C 8311.000000 -575.666667 8318.666667 -648.333333 8328.000000 -727.000000 C 8337.333333 -805.666667 8347.000000 -885.666667 8357.000000 -967.000000 C 8367.666667 -1048.333333 8377.000000 -1125.000000 8385.000000 -1197.000000 C 8393.666667 -1269.666667 8400.666667 -1332.000000 8406.000000 -1384.000000 C 8408.666667 -1406.000000 8410.000000 -1425.333333 8410.000000 -1442.000000 C 8410.000000 -1458.666667 8408.666667 -1473.333333 8406.000000 -1486.000000 C 8430.333333 -1484.000000 8454.666667 -1482.000000 8479.000000 -1480.000000z M 7933.000000 -1208.000000 C 7985.666667 -1192.666667 8043.333333 -1179.333333 8106.000000 -1168.000000 C 8168.666667 -1157.333333 8230.666667 -1149.000000 8292.000000 -1143.000000 C 8354.000000 -1137.666667 8409.333333 -1135.000000 8458.000000 -1135.000000 C 8530.666667 -1135.000000 8600.000000 -1136.333333 8666.000000 -1139.000000 C 8732.000000 -1142.333333 8797.000000 -1148.666667 8861.000000 -1158.000000 C 8861.000000 -1138.000000 8861.000000 -1118.000000 8861.000000 -1098.000000 C 8794.333333 -1093.333333 8729.666667 -1089.333333 8667.000000 -1086.000000 C 8604.333333 -1082.666667 8535.333333 -1081.000000 8460.000000 -1081.000000 C 8412.000000 -1081.000000 8356.666667 -1083.666667 8294.000000 -1089.000000 C 8231.333333 -1095.000000 8168.000000 -1103.000000 8104.000000 -1113.000000 C 8040.000000 -1123.666667 7981.333333 -1135.333333 7928.000000 -1148.000000 C 7929.666667 -1168.000000 7931.333333 -1188.000000 7933.000000 -1208.000000z M 7882.000000 -730.000000 C 7936.666667 -710.666667 7996.333333 -694.666667 8061.000000 -682.000000 C 8125.666667 -670.000000 8190.333333 -661.333333 8255.000000 -656.000000 C 8319.666667 -651.333333 8379.000000 -649.000000 8433.000000 -649.000000 C 8505.666667 -649.000000 8575.000000 -650.333333 8641.000000 -653.000000 C 8707.000000 -655.666667 8775.666667 -662.666667 8847.000000 -674.000000 C 8847.000000 -653.000000 8847.000000 -632.000000 8847.000000 -611.000000 C 8773.000000 -603.000000 8703.000000 -597.666667 8637.000000 -595.000000 C 8571.000000 -592.333333 8503.666667 -591.000000 8435.000000 -591.000000 C 8353.000000 -591.000000 8261.333333 -596.666667 8160.000000 -608.000000 C 8058.666667 -620.000000 7964.666667 -640.000000 7878.000000 -668.000000 C 7879.333333 -688.666667 7880.666667 -709.333333 7882.000000 -730.000000z "/>
</g></svg>
