<?xml version="1.0" encoding="utf-8"?>
<svg xmlns="http://www.w3.org/2000/svg" xmlns:ev="http://www.w3.org/2001/xml-events" xmlns:xlink="http://www.w3.org/1999/xlink" version="1.1" baseProfile="full" width="7335.0" height="1586.0" viewBox="138.0 -1540.0 7335.0 1586.0">
<defs/>
<g><path d="M 2692.000000 -860.000000 C 2756.000000 -822.666667 2820.666667 -783.000000 2886.000000 -741.000000 C 2951.333333 -699.000000 3015.666667 -655.333333 3079.000000 -610.000000 C 3142.333333 -565.333333 3203.333333 -521.000000 3262.000000 -477.000000 C 3320.666667 -433.000000 3375.000000 -390.000000 3425.000000 -348.000000 C 3411.000000 -332.000000 3397.000000 -316.000000 3383.000000 -300.000000 C 3337.000000 -340.666667 3284.666667 -383.666667 3226.000000 -429.000000 C 3168.000000 -474.333333 3106.666667 -519.666667 3042.000000 -565.000000 C 2977.333333 -611.000000 2912.000000 -655.666667 2846.000000 -699.000000 C 2780.666667 -742.333333 2716.333333 -783.333333 2653.000000 -822.000000 C 2666.000000 -834.666667 2679.000000 -847.333333 2692.000000 -860.000000z M 3544.000000 -1235.000000 C 3539.333333 -1225.666667 3534.666667 -1213.666667 3530.000000 -1199.000000 C 3525.333333 -1184.333333 3521.666667 -1173.666667 3519.000000 -1167.000000 C 3501.000000 -1095.666667 3475.333333 -1020.333333 3442.000000 -941.000000 C 3409.333333 -861.666667 3370.000000 -783.000000 3324.000000 -705.000000 C 3278.666667 -627.000000 3228.000000 -554.000000 3172.000000 -486.000000 C 3088.666667 -384.666667 2982.333333 -287.333333 2853.000000 -194.000000 C 2723.666667 -100.666667 2568.666667 -21.333333 2388.000000 44.000000 C 2371.000000 28.000000 2354.000000 12.000000 2337.000000 -4.000000 C 2441.666667 -34.666667 2542.666667 -76.333333 2640.000000 -129.000000 C 2737.333333 -182.333333 2827.666667 -242.666667 2911.000000 -310.000000 C 2994.333333 -377.333333 3066.000000 -447.333333 3126.000000 -520.000000 C 3182.000000 -588.000000 3232.333333 -661.000000 3277.000000 -739.000000 C 3322.333333 -817.000000 3361.333333 -895.333333 3394.000000 -974.000000 C 3426.666667 -1052.666667 3451.333333 -1126.666667 3468.000000 -1196.000000 C 3210.000000 -1196.000000 2952.000000 -1196.000000 2694.000000 -1196.000000 C 2705.333333 -1215.333333 2716.666667 -1234.666667 2728.000000 -1254.000000 C 2952.666667 -1254.000000 3177.333333 -1254.000000 3402.000000 -1254.000000 C 3424.000000 -1254.000000 3441.333333 -1255.000000 3454.000000 -1257.000000 C 3466.666667 -1259.000000 3477.666667 -1262.333333 3487.000000 -1267.000000 C 3506.000000 -1256.333333 3525.000000 -1245.666667 3544.000000 -1235.000000z M 2886.000000 -1494.000000 C 2876.666667 -1477.333333 2867.333333 -1459.333333 2858.000000 -1440.000000 C 2848.666667 -1420.666667 2840.000000 -1403.333333 2832.000000 -1388.000000 C 2798.666667 -1325.333333 2754.666667 -1253.333333 2700.000000 -1172.000000 C 2646.000000 -1090.666667 2578.666667 -1007.333333 2498.000000 -922.000000 C 2417.333333 -837.333333 2320.666667 -756.000000 2208.000000 -678.000000 C 2191.333333 -690.666667 2174.666667 -703.333333 2158.000000 -716.000000 C 2265.333333 -784.000000 2360.666667 -860.666667 2444.000000 -946.000000 C 2527.333333 -1032.000000 2597.000000 -1116.666667 2653.000000 -1200.000000 C 2709.666667 -1283.333333 2751.333333 -1355.666667 2778.000000 -1417.000000 C 2783.333333 -1427.000000 2790.000000 -1442.333333 2798.000000 -1463.000000 C 2806.666667 -1483.666667 2812.333333 -1502.333333 2815.000000 -1519.000000 C 2838.666667 -1510.666667 2862.333333 -1502.333333 2886.000000 -1494.000000z "/>
</g></svg>
