<?xml version="1.0" encoding="utf-8"?>
<svg xmlns="http://www.w3.org/2000/svg" xmlns:ev="http://www.w3.org/2001/xml-events" xmlns:xlink="http://www.w3.org/1999/xlink" version="1.1" baseProfile="full" width="14880.0" height="1739.0" viewBox="382.0 -1601.0 14880.0 1739.0">
<defs/>
<g><path d="M 5134.000000 -1450.000000 C 5124.000000 -1440.666667 5108.000000 -1425.666667 5086.000000 -1405.000000 C 5064.000000 -1385.000000 5048.000000 -1370.333333 5038.000000 -1361.000000 C 5003.333333 -1329.000000 4960.333333 -1291.000000 4909.000000 -1247.000000 C 4858.333333 -1203.000000 4804.333333 -1157.666667 4747.000000 -1111.000000 C 4690.333333 -1064.333333 4635.333333 -1019.333333 4582.000000 -976.000000 C 4528.666667 -933.333333 4483.000000 -896.000000 4445.000000 -864.000000 C 4402.333333 -826.666667 4373.333333 -795.333333 4358.000000 -770.000000 C 4342.666667 -745.333333 4343.000000 -720.666667 4359.000000 -696.000000 C 4375.000000 -671.333333 4406.666667 -639.000000 4454.000000 -599.000000 C 4495.333333 -565.666667 4540.333333 -529.000000 4589.000000 -489.000000 C 4637.666667 -449.666667 4687.666667 -408.000000 4739.000000 -364.000000 C 4791.000000 -320.000000 4843.333333 -274.666667 4896.000000 -228.000000 C 4948.666667 -182.000000 4999.666667 -135.666667 5049.000000 -89.000000 C 5098.333333 -42.333333 5144.000000 2.666667 5186.000000 46.000000 C 5169.333333 60.666667 5152.666667 75.333333 5136.000000 90.000000 C 5109.333333 59.333333 5077.333333 25.333333 5040.000000 -12.000000 C 5001.333333 -50.000000 4955.000000 -93.666667 4901.000000 -143.000000 C 4847.666667 -192.333333 4791.333333 -242.666667 4732.000000 -294.000000 C 4672.666667 -346.000000 4614.333333 -396.000000 4557.000000 -444.000000 C 4500.333333 -492.000000 4449.000000 -534.666667 4403.000000 -572.000000 C 4345.000000 -619.333333 4308.666667 -659.666667 4294.000000 -693.000000 C 4279.333333 -726.333333 4282.333333 -759.333333 4303.000000 -792.000000 C 4324.333333 -824.666667 4360.666667 -862.666667 4412.000000 -906.000000 C 4446.666667 -935.333333 4490.333333 -971.333333 4543.000000 -1014.000000 C 4596.333333 -1057.333333 4652.000000 -1103.000000 4710.000000 -1151.000000 C 4768.666667 -1199.000000 4824.000000 -1245.333333 4876.000000 -1290.000000 C 4928.000000 -1334.666667 4970.000000 -1374.333333 5002.000000 -1409.000000 C 5012.000000 -1421.000000 5024.666667 -1436.333333 5040.000000 -1455.000000 C 5055.333333 -1474.333333 5066.333333 -1490.333333 5073.000000 -1503.000000 C 5093.333333 -1485.333333 5113.666667 -1467.666667 5134.000000 -1450.000000z "/>
</g></svg>
