<?xml version="1.0" encoding="utf-8"?>
<svg xmlns="http://www.w3.org/2000/svg" xmlns:ev="http://www.w3.org/2001/xml-events" xmlns:xlink="http://www.w3.org/1999/xlink" version="1.1" baseProfile="full" width="14880.0" height="1739.0" viewBox="382.0 -1601.0 14880.0 1739.0">
<defs/>
<g><path d="M 2056.000000 -1158.000000 C 2606.666667 -1158.000000 3157.333333 -1158.000000 3708.000000 -1158.000000 C 3708.000000 -1138.666667 3708.000000 -1119.333333 3708.000000 -1100.000000 C 3157.333333 -1100.000000 2606.666667 -1100.000000 2056.000000 -1100.000000 C 2056.000000 -1119.333333 2056.000000 -1138.666667 2056.000000 -1158.000000z M 2427.000000 -317.000000 C 2726.333333 -317.000000 3025.666667 -317.000000 3325.000000 -317.000000 C 3325.000000 -297.666667 3325.000000 -278.333333 3325.000000 -259.000000 C 3025.666667 -259.000000 2726.333333 -259.000000 2427.000000 -259.000000 C 2427.000000 -278.333333 2427.000000 -297.666667 2427.000000 -317.000000z M 2849.000000 -1592.000000 C 2868.333333 -1592.000000 2887.666667 -1592.000000 2907.000000 -1592.000000 C 2907.000000 -1016.666667 2907.000000 -441.333333 2907.000000 134.000000 C 2887.666667 134.000000 2868.333333 134.000000 2849.000000 134.000000 C 2849.000000 -441.333333 2849.000000 -1016.666667 2849.000000 -1592.000000z M 2828.000000 -1146.000000 C 2844.000000 -1139.666667 2860.000000 -1133.333333 2876.000000 -1127.000000 C 2817.333333 -995.000000 2743.333333 -868.333333 2654.000000 -747.000000 C 2565.333333 -626.333333 2468.000000 -517.666667 2362.000000 -421.000000 C 2256.666667 -324.333333 2149.666667 -246.666667 2041.000000 -188.000000 C 2038.333333 -193.333333 2034.333333 -198.666667 2029.000000 -204.000000 C 2024.333333 -210.000000 2019.666667 -215.333333 2015.000000 -220.000000 C 2010.333333 -225.333333 2005.666667 -230.000000 2001.000000 -234.000000 C 2083.000000 -275.333333 2164.000000 -327.666667 2244.000000 -391.000000 C 2324.000000 -454.333333 2400.333333 -526.333333 2473.000000 -607.000000 C 2545.666667 -687.666667 2612.333333 -773.666667 2673.000000 -865.000000 C 2734.333333 -956.333333 2786.000000 -1050.000000 2828.000000 -1146.000000z M 2932.000000 -1140.000000 C 2986.666667 -1011.333333 3057.000000 -887.666667 3143.000000 -769.000000 C 3229.000000 -650.333333 3324.666667 -544.666667 3430.000000 -452.000000 C 3535.333333 -359.333333 3645.000000 -287.333333 3759.000000 -236.000000 C 3755.666667 -232.000000 3751.333333 -227.333333 3746.000000 -222.000000 C 3740.666667 -217.333333 3735.666667 -212.000000 3731.000000 -206.000000 C 3727.000000 -200.666667 3723.000000 -195.333333 3719.000000 -190.000000 C 3606.333333 -246.666667 3496.666667 -322.666667 3390.000000 -418.000000 C 3284.000000 -513.333333 3187.333333 -621.333333 3100.000000 -742.000000 C 3013.333333 -863.333333 2942.000000 -989.666667 2886.000000 -1121.000000 C 2901.333333 -1127.333333 2916.666667 -1133.666667 2932.000000 -1140.000000z "/>
</g></svg>
