<?xml version="1.0" ?>
<svg xmlns="http://www.w3.org/2000/svg" version="1.1" width="600" height="600">
  <defs/>
  <g>
    <path stroke-width="0" fill="rgb(0, 0, 0)" opacity="1.0" d="M 184.932861328125 211.409423828125 C 276.215087890625 211.409423828125 367.497314453125 211.409423828125 458.779541015625 211.409423828125 C 458.779541015625 215.27371215820312 458.779541015625 219.13800048828125 458.779541015625 223.0023193359375 C 367.497314453125 223.0023193359375 276.215087890625 223.0023193359375 184.932861328125 223.0023193359375 C 184.932861328125 219.13800048828125 184.932861328125 215.27371215820312 184.932861328125 211.409423828125M 166.3037109375 327.338134765625 C 259.310791015625 327.338134765625 352.318115234375 327.338134765625 445.3251953125 327.338134765625 C 445.3251953125 331.202392578125 445.3251953125 335.06671142578125 445.3251953125 338.9310302734375 C 352.318115234375 338.9310302734375 259.310791015625 338.9310302734375 166.3037109375 338.9310302734375 C 166.3037109375 335.06671142578125 166.3037109375 331.202392578125 166.3037109375 327.338134765625M 125.31982421875 461.48419189453125 C 242.337646484375 461.48419189453125 359.355712890625 461.48419189453125 476.37353515625 461.48419189453125 C 476.37353515625 465.27947998046875 476.37353515625 469.07476806640625 476.37353515625 472.87005615234375 C 359.355712890625 472.87005615234375 242.337646484375 472.87005615234375 125.31982421875 472.87005615234375 C 125.31982421875 469.07476806640625 125.31982421875 465.27947998046875 125.31982421875 461.48419189453125M 295.051025390625 129.01724243164062 C 299.052734375 129.01724243164062 303.0546875 129.01724243164062 307.056396484375 129.01724243164062 C 307.056396484375 241.77169799804688 307.056396484375 354.526123046875 307.056396484375 467.2806396484375 C 303.0546875 467.2806396484375 299.052734375 467.2806396484375 295.051025390625 467.2806396484375 C 295.051025390625 354.526123046875 295.051025390625 241.77169799804688 295.051025390625 129.01724243164062M 208.322509765625 137.09085083007812 C 212.1865234375 137.84991455078125 216.050048828125 138.60897827148438 219.913818359375 139.36801147460938 C 214.39404296875 159.79354858398438 207.70166015625 179.59805297851562 199.8359375 198.781494140625 C 192.1083984375 217.826904296875 183.414794921875 235.56121826171875 173.75537109375 251.98446655273438 C 164.23388671875 268.40771484375 154.09130859375 282.9678039550781 143.327880859375 295.66473388671875 C 142.5 294.836669921875 141.39599609375 294.07763671875 140.01611328125 293.3875732421875 C 138.774169921875 292.55950927734375 137.46337890625 291.6624450683594 136.083251953125 290.6963806152344 C 134.703369140625 289.73028564453125 133.530517578125 289.1092529296875 132.564453125 288.833251953125 C 143.8798828125 276.41229248046875 154.2294921875 262.1972351074219 163.61279296875 246.18804931640625 C 173.13427734375 230.1788330078125 181.620849609375 212.92755126953125 189.072509765625 194.43414306640625 C 196.662109375 175.80276489257812 203.078857421875 156.68832397460938 208.322509765625 137.09085083007812"/>
  </g>
</svg>
