<?xml version="1.0" encoding="utf-8"?>
<svg xmlns="http://www.w3.org/2000/svg" xmlns:ev="http://www.w3.org/2001/xml-events" xmlns:xlink="http://www.w3.org/1999/xlink" version="1.1" baseProfile="full" width="7234.0" height="1593.0" viewBox="250.0 -1503.0 7234.0 1593.0">
<defs/>
<g><path d="M 1490.000000 -1384.000000 C 1483.333333 -1371.333333 1475.666667 -1354.666667 1467.000000 -1334.000000 C 1459.000000 -1314.000000 1452.000000 -1295.000000 1446.000000 -1277.000000 C 1422.666667 -1213.000000 1394.333333 -1144.333333 1361.000000 -1071.000000 C 1327.666667 -998.333333 1290.000000 -925.666667 1248.000000 -853.000000 C 1206.000000 -781.000000 1158.666667 -712.333333 1106.000000 -647.000000 C 1043.333333 -567.666667 971.666667 -487.666667 891.000000 -407.000000 C 810.333333 -326.333333 721.000000 -249.000000 623.000000 -175.000000 C 525.000000 -101.666667 417.333333 -36.333333 300.000000 21.000000 C 283.333333 6.333333 266.666667 -8.333333 250.000000 -23.000000 C 432.666667 -110.333333 589.333333 -211.666667 720.000000 -327.000000 C 850.666667 -443.000000 963.333333 -560.666667 1058.000000 -680.000000 C 1141.333333 -783.333333 1209.666667 -889.333333 1263.000000 -998.000000 C 1317.000000 -1107.333333 1360.000000 -1208.000000 1392.000000 -1300.000000 C 1397.333333 -1314.000000 1403.000000 -1331.000000 1409.000000 -1351.000000 C 1415.666667 -1371.666667 1421.000000 -1390.333333 1425.000000 -1407.000000 C 1446.666667 -1399.333333 1468.333333 -1391.666667 1490.000000 -1384.000000z M 516.000000 -1119.000000 C 564.000000 -1088.333333 615.333333 -1053.333333 670.000000 -1014.000000 C 725.333333 -975.333333 780.333333 -936.000000 835.000000 -896.000000 C 890.333333 -856.666667 941.666667 -818.333333 989.000000 -781.000000 C 1036.333333 -744.333333 1076.000000 -712.333333 1108.000000 -685.000000 C 1198.666667 -608.333333 1287.000000 -531.000000 1373.000000 -453.000000 C 1459.666667 -375.000000 1540.333333 -294.333333 1615.000000 -211.000000 C 1600.333333 -196.333333 1585.666667 -181.666667 1571.000000 -167.000000 C 1493.666667 -254.333333 1413.666667 -335.666667 1331.000000 -411.000000 C 1249.000000 -486.333333 1162.333333 -563.000000 1071.000000 -641.000000 C 1037.000000 -670.333333 996.000000 -704.000000 948.000000 -742.000000 C 900.000000 -780.000000 848.333333 -819.000000 793.000000 -859.000000 C 737.666667 -899.666667 682.666667 -938.333333 628.000000 -975.000000 C 574.000000 -1012.333333 524.666667 -1045.000000 480.000000 -1073.000000 C 492.000000 -1088.333333 504.000000 -1103.666667 516.000000 -1119.000000z "/>
</g></svg>
