<?xml version="1.0" ?>
<svg xmlns="http://www.w3.org/2000/svg" version="1.1" width="600" height="600">
  <defs/>
  <g>
    <path stroke-width="0" fill="rgb(0, 0, 0)" opacity="1.0" d="M 193.738525390625 211.74322509765625 C 193.738525390625 230.45947265625 193.738525390625 249.1756591796875 193.738525390625 267.89190673828125 C 264.9520263671875 267.89190673828125 336.16552734375 267.89190673828125 407.3790283203125 267.89190673828125 C 407.3790283203125 249.1756591796875 407.3790283203125 230.45947265625 407.3790283203125 211.74322509765625 C 336.16552734375 211.74322509765625 264.9520263671875 211.74322509765625 193.738525390625 211.74322509765625M 193.738525390625 279.04052734375 C 193.738525390625 298.02703857421875 193.738525390625 317.0135498046875 193.738525390625 336.0 C 264.9520263671875 336.0 336.16552734375 336.0 407.3790283203125 336.0 C 407.3790283203125 317.0135498046875 407.3790283203125 298.02703857421875 407.3790283203125 279.04052734375 C 336.16552734375 279.04052734375 264.9520263671875 279.04052734375 193.738525390625 279.04052734375M 193.738525390625 144.44595336914062 C 193.738525390625 163.02700805664062 193.738525390625 181.60812377929688 193.738525390625 200.189208984375 C 264.9520263671875 200.189208984375 336.16552734375 200.189208984375 407.3790283203125 200.189208984375 C 407.3790283203125 181.60812377929688 407.3790283203125 163.02700805664062 407.3790283203125 144.44595336914062 C 336.16552734375 144.44595336914062 264.9520263671875 144.44595336914062 193.738525390625 144.44595336914062M 181.982177734375 133.0946044921875 C 261.03326416015625 133.0946044921875 340.08428955078125 133.0946044921875 419.13531494140625 133.0946044921875 C 419.13531494140625 204.5810546875 419.13531494140625 276.06756591796875 419.13531494140625 347.5540771484375 C 340.08428955078125 347.5540771484375 261.03326416015625 347.5540771484375 181.982177734375 347.5540771484375 C 181.982177734375 276.06756591796875 181.982177734375 204.5810546875 181.982177734375 133.0946044921875M 332.5845947265625 341.06756591796875 C 336.5032958984375 341.06756591796875 340.422119140625 341.06756591796875 344.34088134765625 341.06756591796875 C 344.34088134765625 374.648681640625 344.34088134765625 408.229736328125 344.34088134765625 441.810791015625 C 344.34088134765625 446.6756591796875 345.8272705078125 449.851318359375 348.8001708984375 451.33782958984375 C 351.7730712890625 452.95947265625 358.05657958984375 453.770263671875 367.65081787109375 453.770263671875 C 370.0831298828125 453.770263671875 374.6099853515625 453.770263671875 381.23138427734375 453.770263671875 C 387.98785400390625 453.770263671875 395.487548828125 453.770263671875 403.73046875 453.770263671875 C 412.1085205078125 453.770263671875 419.8785400390625 453.770263671875 427.0404052734375 453.770263671875 C 434.2022705078125 453.770263671875 439.47235107421875 453.770263671875 442.8505859375 453.770263671875 C 449.066650390625 453.770263671875 453.6610107421875 452.4864501953125 456.6339111328125 449.9189453125 C 459.606689453125 447.351318359375 461.6337890625 441.9459228515625 462.7147216796875 433.70269775390625 C 463.930908203125 425.3243408203125 464.8092041015625 412.689208984375 465.349853515625 395.79730224609375 C 466.4307861328125 396.60809326171875 467.579345703125 397.4189453125 468.795654296875 398.229736328125 C 470.14697265625 399.04052734375 471.4981689453125 399.7161865234375 472.8494873046875 400.2567138671875 C 474.3359375 400.66217041015625 475.61962890625 401.0 476.70068359375 401.270263671875 C 476.16015625 418.43243408203125 474.9439697265625 431.6756591796875 473.05224609375 441.0 C 471.29541015625 450.3243408203125 468.119873046875 456.7432861328125 463.5255126953125 460.2567138671875 C 459.066162109375 463.770263671875 452.309814453125 465.52703857421875 443.256103515625 465.52703857421875 C 441.90478515625 465.52703857421875 438.66156005859375 465.52703857421875 433.52667236328125 465.52703857421875 C 428.52685546875 465.52703857421875 422.648681640625 465.52703857421875 415.8922119140625 465.52703857421875 C 409.1357421875 465.52703857421875 402.3116455078125 465.52703857421875 395.41998291015625 465.52703857421875 C 388.66351318359375 465.52703857421875 382.785400390625 465.52703857421875 377.7855224609375 465.52703857421875 C 372.92083740234375 465.52703857421875 369.8128662109375 465.52703857421875 368.4615478515625 465.52703857421875 C 359.4078369140625 465.52703857421875 352.17840576171875 464.9189453125 346.773193359375 463.70269775390625 C 341.503173828125 462.62158203125 337.787109375 460.3243408203125 335.625 456.810791015625 C 333.5980224609375 453.29730224609375 332.5845947265625 448.29730224609375 332.5845947265625 441.810791015625 C 332.5845947265625 408.229736328125 332.5845947265625 374.648681640625 332.5845947265625 341.06756591796875M 240.76373291015625 341.6756591796875 C 244.95281982421875 341.6756591796875 249.14178466796875 341.6756591796875 253.33087158203125 341.6756591796875 C 250.89849853515625 358.56756591796875 247.1148681640625 373.70269775390625 241.97991943359375 387.0810546875 C 236.84503173828125 400.45947265625 229.61553955078125 412.2838134765625 220.29156494140625 422.5540771484375 C 211.102783203125 432.8243408203125 199.346435546875 441.60809326171875 185.02264404296875 448.9053955078125 C 170.833984375 456.33782958984375 153.4022216796875 462.5540771484375 132.72735595703125 467.5540771484375 C 132.45709228515625 466.7432861328125 131.8489990234375 465.66217041015625 130.903076171875 464.310791015625 C 129.9571533203125 463.0946044921875 128.9437255859375 461.87841796875 127.8626708984375 460.66217041015625 C 126.916748046875 459.4459228515625 126.0384521484375 458.5 125.2276611328125 457.8243408203125 C 145.49713134765625 453.3648681640625 162.52349853515625 447.62158203125 176.3067626953125 440.5946044921875 C 190.22515869140625 433.56756591796875 201.5760498046875 425.3243408203125 210.3594970703125 415.8648681640625 C 219.278076171875 406.4053955078125 226.0345458984375 395.52703857421875 230.6290283203125 383.229736328125 C 235.3585205078125 370.93243408203125 238.73681640625 357.0810546875 240.76373291015625 341.6756591796875"/>
  </g>
</svg>
