<?xml version="1.0" ?>
<svg xmlns="http://www.w3.org/2000/svg" version="1.1" width="600" height="600">
  <defs/>
  <g>
    <path stroke-width="0" fill="rgb(0, 0, 0)" opacity="1.0" d="M 132.341796875 190.46331787109375 C 246.0087890625 190.46331787109375 359.673828125 190.46331787109375 473.3408203125 190.46331787109375 C 473.3408203125 194.38531494140625 473.3408203125 198.30734252929688 473.3408203125 202.2293701171875 C 359.673828125 202.2293701171875 246.0087890625 202.2293701171875 132.341796875 202.2293701171875 C 132.341796875 198.30734252929688 132.341796875 194.38531494140625 132.341796875 190.46331787109375M 248.966796875 313.284423828125 C 318.94140625 313.284423828125 388.9169921875 313.284423828125 458.8916015625 313.284423828125 C 458.8916015625 317.13763427734375 458.8916015625 320.9908447265625 458.8916015625 324.84405517578125 C 388.9169921875 324.84405517578125 318.94140625 324.84405517578125 248.966796875 324.84405517578125 C 248.966796875 320.9908447265625 248.966796875 317.13763427734375 248.966796875 313.284423828125M 233.072265625 459.2247314453125 C 313.505859375 459.2247314453125 393.939453125 459.2247314453125 474.373046875 459.2247314453125 C 474.373046875 463.14678955078125 474.373046875 467.06884765625 474.373046875 470.9908447265625 C 393.939453125 470.9908447265625 313.505859375 470.9908447265625 233.072265625 470.9908447265625 C 233.072265625 467.06884765625 233.072265625 463.14678955078125 233.072265625 459.2247314453125M 346.8076171875 226.17431640625 C 350.6611328125 226.17431640625 354.513671875 226.17431640625 358.3671875 226.17431640625 C 358.3671875 306.05963134765625 358.3671875 385.9449462890625 358.3671875 465.83026123046875 C 354.513671875 465.83026123046875 350.6611328125 465.83026123046875 346.8076171875 465.83026123046875 C 346.8076171875 385.9449462890625 346.8076171875 306.05963134765625 346.8076171875 226.17431640625M 267.95703125 122.96331787109375 C 271.947265625 124.06423950195312 275.9384765625 125.16513061523438 279.9287109375 126.26605224609375 C 271.1220703125 154.75228881835938 259.9755859375 183.16970825195312 246.490234375 211.51837158203125 C 233.00390625 239.7293701171875 216.97265625 266.2201843261719 198.39453125 290.9908447265625 C 179.8173828125 315.62384033203125 158.2119140625 337.1605224609375 133.580078125 355.6009521484375 C 133.029296875 354.912841796875 132.2734375 354.018310546875 131.3095703125 352.91741943359375 C 130.484375 351.8165283203125 129.5205078125 350.715576171875 128.419921875 349.61468505859375 C 127.4560546875 348.37615966796875 126.5625 347.481689453125 125.736328125 346.93115234375 C 143.6259765625 333.4449462890625 159.9326171875 318.16973876953125 174.6572265625 301.1054992675781 C 189.5185546875 283.9036865234375 202.7978515625 265.5321044921875 214.4951171875 245.9908447265625 C 226.3291015625 226.44955444335938 236.7197265625 206.28900146484375 245.6640625 185.50918579101562 C 254.74609375 164.7293701171875 262.177734375 143.8807373046875 267.95703125 122.96331787109375M 190.3447265625 283.55963134765625 C 194.12890625 283.55963134765625 197.9130859375 283.55963134765625 201.697265625 283.55963134765625 C 201.697265625 348.307373046875 201.697265625 413.0550537109375 201.697265625 477.802734375 C 197.9130859375 477.802734375 194.12890625 477.802734375 190.3447265625 477.802734375 C 190.3447265625 413.0550537109375 190.3447265625 348.307373046875 190.3447265625 283.55963134765625"/>
  </g>
</svg>
