<?xml version="1.0" encoding="utf-8"?>
<svg xmlns="http://www.w3.org/2000/svg" xmlns:ev="http://www.w3.org/2001/xml-events" xmlns:xlink="http://www.w3.org/1999/xlink" version="1.1" baseProfile="full" width="7335.0" height="1586.0" viewBox="138.0 -1540.0 7335.0 1586.0">
<defs/>
<g><path d="M 632.000000 -238.000000 C 632.000000 -270.000000 632.000000 -314.666667 632.000000 -372.000000 C 632.000000 -430.000000 632.000000 -494.333333 632.000000 -565.000000 C 632.000000 -636.333333 632.000000 -709.666667 632.000000 -785.000000 C 632.000000 -861.000000 632.000000 -934.000000 632.000000 -1004.000000 C 632.000000 -1074.666667 632.000000 -1137.333333 632.000000 -1192.000000 C 632.000000 -1247.333333 632.000000 -1289.666667 632.000000 -1319.000000 C 632.000000 -1335.666667 632.000000 -1350.666667 632.000000 -1364.000000 C 632.000000 -1377.333333 631.333333 -1390.666667 630.000000 -1404.000000 C 628.666667 -1418.000000 626.000000 -1434.000000 622.000000 -1452.000000 C 647.666667 -1452.000000 673.333333 -1452.000000 699.000000 -1452.000000 C 695.000000 -1424.666667 692.333333 -1401.333333 691.000000 -1382.000000 C 689.666667 -1363.333333 689.000000 -1342.333333 689.000000 -1319.000000 C 689.000000 -1291.000000 689.000000 -1249.000000 689.000000 -1193.000000 C 689.000000 -1137.666667 689.000000 -1074.333333 689.000000 -1003.000000 C 689.000000 -932.333333 689.000000 -859.000000 689.000000 -783.000000 C 689.000000 -707.666667 689.000000 -634.333333 689.000000 -563.000000 C 689.000000 -492.333333 689.000000 -429.666667 689.000000 -375.000000 C 689.000000 -321.000000 689.000000 -280.000000 689.000000 -252.000000 C 689.000000 -204.000000 698.000000 -166.333333 716.000000 -139.000000 C 734.000000 -111.666667 765.666667 -92.000000 811.000000 -80.000000 C 856.333333 -68.666667 920.000000 -63.000000 1002.000000 -63.000000 C 1084.000000 -63.000000 1157.333333 -64.666667 1222.000000 -68.000000 C 1286.666667 -71.333333 1348.666667 -76.666667 1408.000000 -84.000000 C 1468.000000 -92.000000 1530.000000 -101.666667 1594.000000 -113.000000 C 1592.666667 -90.000000 1591.333333 -67.000000 1590.000000 -44.000000 C 1528.666667 -35.333333 1468.333333 -28.000000 1409.000000 -22.000000 C 1350.333333 -16.000000 1286.666667 -11.666667 1218.000000 -9.000000 C 1150.000000 -7.000000 1070.333333 -6.000000 979.000000 -6.000000 C 910.333333 -6.000000 853.000000 -11.000000 807.000000 -21.000000 C 761.666667 -31.000000 726.000000 -46.000000 700.000000 -66.000000 C 674.666667 -86.000000 657.000000 -110.333333 647.000000 -139.000000 C 637.000000 -167.666667 632.000000 -200.666667 632.000000 -238.000000z M 1653.000000 -1110.000000 C 1647.666667 -1103.333333 1642.000000 -1095.000000 1636.000000 -1085.000000 C 1630.666667 -1075.666667 1625.333333 -1067.333333 1620.000000 -1060.000000 C 1597.333333 -1020.000000 1572.000000 -977.333333 1544.000000 -932.000000 C 1516.666667 -886.666667 1487.000000 -839.333333 1455.000000 -790.000000 C 1423.000000 -740.666667 1388.000000 -691.666667 1350.000000 -643.000000 C 1312.666667 -594.333333 1273.000000 -547.666667 1231.000000 -503.000000 C 1212.333333 -514.666667 1193.666667 -526.333333 1175.000000 -538.000000 C 1229.000000 -587.333333 1280.666667 -644.666667 1330.000000 -710.000000 C 1380.000000 -775.333333 1424.666667 -839.666667 1464.000000 -903.000000 C 1503.333333 -966.333333 1533.000000 -1019.333333 1553.000000 -1062.000000 C 1553.000000 -1062.000000 1531.333333 -1057.333333 1488.000000 -1048.000000 C 1444.666667 -1039.333333 1386.666667 -1027.666667 1314.000000 -1013.000000 C 1242.000000 -998.333333 1160.666667 -982.000000 1070.000000 -964.000000 C 980.000000 -946.000000 888.000000 -927.333333 794.000000 -908.000000 C 700.000000 -888.666667 609.666667 -870.333333 523.000000 -853.000000 C 437.000000 -836.333333 361.333333 -821.000000 296.000000 -807.000000 C 230.666667 -793.666667 182.666667 -784.000000 152.000000 -778.000000 C 147.333333 -801.000000 142.666667 -824.000000 138.000000 -847.000000 C 171.333333 -850.333333 219.000000 -857.333333 281.000000 -868.000000 C 343.000000 -879.333333 414.666667 -892.666667 496.000000 -908.000000 C 577.333333 -923.333333 662.333333 -940.000000 751.000000 -958.000000 C 840.333333 -976.000000 928.000000 -993.666667 1014.000000 -1011.000000 C 1100.666667 -1028.333333 1181.000000 -1044.666667 1255.000000 -1060.000000 C 1329.666667 -1075.333333 1392.333333 -1088.000000 1443.000000 -1098.000000 C 1493.666667 -1108.666667 1527.333333 -1115.666667 1544.000000 -1119.000000 C 1558.000000 -1121.666667 1571.333333 -1125.333333 1584.000000 -1130.000000 C 1596.666667 -1134.666667 1605.666667 -1138.666667 1611.000000 -1142.000000 C 1625.000000 -1131.333333 1639.000000 -1120.666667 1653.000000 -1110.000000z "/>
</g></svg>
