<?xml version="1.0" encoding="utf-8"?>
<svg xmlns="http://www.w3.org/2000/svg" xmlns:ev="http://www.w3.org/2001/xml-events" xmlns:xlink="http://www.w3.org/1999/xlink" version="1.1" baseProfile="full" width="17098.0" height="1737.3" viewBox="90.0 -1596.0 17098.0 1737.3">
<defs/>
<g><path d="M 11735.000000 -1102.000000 C 11735.000000 -1008.666667 11735.000000 -915.333333 11735.000000 -822.000000 C 11966.666667 -822.000000 12198.333333 -822.000000 12430.000000 -822.000000 C 12430.000000 -915.333333 12430.000000 -1008.666667 12430.000000 -1102.000000 C 12198.333333 -1102.000000 11966.666667 -1102.000000 11735.000000 -1102.000000z M 11735.000000 -1436.000000 C 11735.000000 -1344.000000 11735.000000 -1252.000000 11735.000000 -1160.000000 C 11966.666667 -1160.000000 12198.333333 -1160.000000 12430.000000 -1160.000000 C 12430.000000 -1252.000000 12430.000000 -1344.000000 12430.000000 -1436.000000 C 12198.333333 -1436.000000 11966.666667 -1436.000000 11735.000000 -1436.000000z M 11679.000000 -1492.000000 C 11948.000000 -1492.000000 12217.000000 -1492.000000 12486.000000 -1492.000000 C 12486.000000 -1250.000000 12486.000000 -1008.000000 12486.000000 -766.000000 C 12217.000000 -766.000000 11948.000000 -766.000000 11679.000000 -766.000000 C 11679.000000 -1008.000000 11679.000000 -1250.000000 11679.000000 -1492.000000z M 11672.000000 -490.000000 C 11943.333333 -490.000000 12214.666667 -490.000000 12486.000000 -490.000000 C 12486.000000 -471.333333 12486.000000 -452.666667 12486.000000 -434.000000 C 12214.666667 -434.000000 11943.333333 -434.000000 11672.000000 -434.000000 C 11672.000000 -452.666667 11672.000000 -471.333333 11672.000000 -490.000000z M 11610.000000 -13.000000 C 11686.000000 -25.000000 11774.000000 -39.000000 11874.000000 -55.000000 C 11974.666667 -71.000000 12082.666667 -88.000000 12198.000000 -106.000000 C 12313.333333 -124.666667 12429.666667 -143.666667 12547.000000 -163.000000 C 12547.666667 -145.000000 12548.333333 -127.000000 12549.000000 -109.000000 C 12436.333333 -91.666667 12323.666667 -73.333333 12211.000000 -54.000000 C 12098.333333 -34.666667 11991.333333 -16.666667 11890.000000 0.000000 C 11789.333333 16.666667 11700.000000 31.333333 11622.000000 44.000000 C 11618.000000 25.000000 11614.000000 6.000000 11610.000000 -13.000000z M 12549.000000 -1486.000000 C 12794.666667 -1486.000000 13040.333333 -1486.000000 13286.000000 -1486.000000 C 13286.000000 -1467.333333 13286.000000 -1448.666667 13286.000000 -1430.000000 C 13040.333333 -1430.000000 12794.666667 -1430.000000 12549.000000 -1430.000000 C 12549.000000 -1448.666667 12549.000000 -1467.333333 12549.000000 -1486.000000z M 12526.000000 -881.000000 C 12788.333333 -881.000000 13050.666667 -881.000000 13313.000000 -881.000000 C 13313.000000 -862.000000 13313.000000 -843.000000 13313.000000 -824.000000 C 13050.666667 -824.000000 12788.333333 -824.000000 12526.000000 -824.000000 C 12526.000000 -843.000000 12526.000000 -862.000000 12526.000000 -881.000000z M 13269.000000 -1486.000000 C 13273.000000 -1486.000000 13277.000000 -1486.000000 13281.000000 -1486.000000 C 13284.666667 -1487.333333 13288.333333 -1488.666667 13292.000000 -1490.000000 C 13306.000000 -1481.666667 13320.000000 -1473.333333 13334.000000 -1465.000000 C 13300.666667 -1416.333333 13261.666667 -1367.333333 13217.000000 -1318.000000 C 13172.333333 -1268.666667 13126.000000 -1222.333333 13078.000000 -1179.000000 C 13030.000000 -1135.666667 12983.000000 -1097.333333 12937.000000 -1064.000000 C 12931.666667 -1070.000000 12925.333333 -1076.000000 12918.000000 -1082.000000 C 12911.333333 -1088.666667 12905.000000 -1094.000000 12899.000000 -1098.000000 C 12943.666667 -1128.666667 12989.000000 -1165.333333 13035.000000 -1208.000000 C 13081.000000 -1251.333333 13124.666667 -1296.000000 13166.000000 -1342.000000 C 13208.000000 -1388.000000 13242.333333 -1432.333333 13269.000000 -1475.000000 C 13269.000000 -1478.666667 13269.000000 -1482.333333 13269.000000 -1486.000000z M 12670.000000 -1235.000000 C 12683.333333 -1246.333333 12696.666667 -1257.666667 12710.000000 -1269.000000 C 12766.666667 -1237.000000 12823.000000 -1199.666667 12879.000000 -1157.000000 C 12935.666667 -1115.000000 12988.000000 -1072.000000 13036.000000 -1028.000000 C 13084.000000 -984.000000 13122.000000 -944.000000 13150.000000 -908.000000 C 13136.000000 -894.666667 13122.000000 -881.333333 13108.000000 -868.000000 C 13080.000000 -906.000000 13042.333333 -947.000000 12995.000000 -991.000000 C 12947.666667 -1035.666667 12895.666667 -1079.333333 12839.000000 -1122.000000 C 12783.000000 -1165.333333 12726.666667 -1203.000000 12670.000000 -1235.000000z M 13296.000000 -881.000000 C 13300.333333 -881.000000 13304.666667 -881.000000 13309.000000 -881.000000 C 13313.666667 -882.333333 13318.333333 -883.666667 13323.000000 -885.000000 C 13336.333333 -878.666667 13349.666667 -872.333333 13363.000000 -866.000000 C 13333.666667 -792.666667 13302.000000 -717.000000 13268.000000 -639.000000 C 13234.000000 -561.000000 13200.333333 -496.000000 13167.000000 -444.000000 C 13150.333333 -452.000000 13133.666667 -460.000000 13117.000000 -468.000000 C 13139.000000 -501.333333 13160.333333 -540.000000 13181.000000 -584.000000 C 13202.333333 -628.666667 13223.000000 -675.333333 13243.000000 -724.000000 C 13263.000000 -772.666667 13280.666667 -819.333333 13296.000000 -864.000000 C 13296.000000 -869.666667 13296.000000 -875.333333 13296.000000 -881.000000z M 12891.000000 -852.000000 C 12909.666667 -852.000000 12928.333333 -852.000000 12947.000000 -852.000000 C 12947.000000 -557.000000 12947.000000 -262.000000 12947.000000 33.000000 C 12947.000000 59.666667 12942.666667 79.333333 12934.000000 92.000000 C 12926.000000 104.666667 12911.000000 114.333333 12889.000000 121.000000 C 12865.666667 126.333333 12830.333333 129.333333 12783.000000 130.000000 C 12735.666667 130.666667 12675.000000 131.000000 12601.000000 131.000000 C 12599.666667 123.000000 12596.333333 113.333333 12591.000000 102.000000 C 12586.333333 91.333333 12580.666667 81.000000 12574.000000 71.000000 C 12646.000000 72.333333 12706.000000 73.333333 12754.000000 74.000000 C 12802.000000 74.666667 12834.333333 74.333333 12851.000000 73.000000 C 12867.666667 71.666667 12878.333333 68.000000 12883.000000 62.000000 C 12888.333333 56.666667 12891.000000 47.000000 12891.000000 33.000000 C 12891.000000 -262.000000 12891.000000 -557.000000 12891.000000 -852.000000z M 12056.000000 -1467.000000 C 12074.333333 -1467.000000 12092.666667 -1467.000000 12111.000000 -1467.000000 C 12111.000000 -1231.333333 12111.000000 -995.666667 12111.000000 -760.000000 C 12111.000000 -760.000000 12111.000000 -760.000000 12111.000000 -760.000000 C 12111.000000 -525.333333 12111.000000 -290.666667 12111.000000 -56.000000 C 12092.666667 -56.000000 12074.333333 -56.000000 12056.000000 -56.000000 C 12056.000000 -290.666667 12056.000000 -525.333333 12056.000000 -760.000000 C 12056.000000 -760.000000 12056.000000 -760.000000 12056.000000 -760.000000 C 12056.000000 -995.666667 12056.000000 -1231.333333 12056.000000 -1467.000000z "/>
</g></svg>
