<?xml version="1.0" encoding="utf-8"?>
<svg xmlns="http://www.w3.org/2000/svg" xmlns:ev="http://www.w3.org/2001/xml-events" xmlns:xlink="http://www.w3.org/1999/xlink" version="1.1" baseProfile="full" width="20873.0" height="1742.0" viewBox="84.0 -1596.0 20873.0 1742.0">
<defs/>
<g><path d="M 109.000000 -1498.000000 C 324.333333 -1498.000000 539.666667 -1498.000000 755.000000 -1498.000000 C 755.000000 -1479.333333 755.000000 -1460.666667 755.000000 -1442.000000 C 539.666667 -1442.000000 324.333333 -1442.000000 109.000000 -1442.000000 C 109.000000 -1460.666667 109.000000 -1479.333333 109.000000 -1498.000000z M 138.000000 -958.000000 C 338.333333 -958.000000 538.666667 -958.000000 739.000000 -958.000000 C 739.000000 -939.333333 739.000000 -920.666667 739.000000 -902.000000 C 538.666667 -902.000000 338.333333 -902.000000 138.000000 -902.000000 C 138.000000 -920.666667 138.000000 -939.333333 138.000000 -958.000000z M 84.000000 -257.000000 C 140.666667 -272.333333 205.666667 -290.666667 279.000000 -312.000000 C 353.000000 -333.333333 431.666667 -356.333333 515.000000 -381.000000 C 599.000000 -406.333333 683.333333 -431.000000 768.000000 -455.000000 C 770.666667 -436.333333 773.333333 -417.666667 776.000000 -399.000000 C 655.333333 -363.666667 535.000000 -328.000000 415.000000 -292.000000 C 295.666667 -256.000000 191.333333 -224.666667 102.000000 -198.000000 C 96.000000 -217.666667 90.000000 -237.333333 84.000000 -257.000000z M 914.000000 -1119.000000 C 914.000000 -1029.666667 914.000000 -940.333333 914.000000 -851.000000 C 1165.000000 -851.000000 1416.000000 -851.000000 1667.000000 -851.000000 C 1667.000000 -940.333333 1667.000000 -1029.666667 1667.000000 -1119.000000 C 1416.000000 -1119.000000 1165.000000 -1119.000000 914.000000 -1119.000000z M 914.000000 -795.000000 C 914.000000 -704.000000 914.000000 -613.000000 914.000000 -522.000000 C 1165.000000 -522.000000 1416.000000 -522.000000 1667.000000 -522.000000 C 1667.000000 -613.000000 1667.000000 -704.000000 1667.000000 -795.000000 C 1416.000000 -795.000000 1165.000000 -795.000000 914.000000 -795.000000z M 914.000000 -1444.000000 C 914.000000 -1355.000000 914.000000 -1266.000000 914.000000 -1177.000000 C 1165.000000 -1177.000000 1416.000000 -1177.000000 1667.000000 -1177.000000 C 1667.000000 -1266.000000 1667.000000 -1355.000000 1667.000000 -1444.000000 C 1416.000000 -1444.000000 1165.000000 -1444.000000 914.000000 -1444.000000z M 858.000000 -1500.000000 C 1146.000000 -1500.000000 1434.000000 -1500.000000 1722.000000 -1500.000000 C 1722.000000 -1155.000000 1722.000000 -810.000000 1722.000000 -465.000000 C 1434.000000 -465.000000 1146.000000 -465.000000 858.000000 -465.000000 C 858.000000 -810.000000 858.000000 -1155.000000 858.000000 -1500.000000z M 1380.000000 -499.000000 C 1398.666667 -499.000000 1417.333333 -499.000000 1436.000000 -499.000000 C 1436.000000 -327.000000 1436.000000 -155.000000 1436.000000 17.000000 C 1436.000000 36.333333 1440.333333 49.000000 1449.000000 55.000000 C 1458.333333 61.666667 1478.333333 65.000000 1509.000000 65.000000 C 1519.000000 65.000000 1539.000000 65.000000 1569.000000 65.000000 C 1599.666667 65.000000 1631.000000 65.000000 1663.000000 65.000000 C 1695.000000 65.000000 1717.333333 65.000000 1730.000000 65.000000 C 1748.000000 65.000000 1761.333333 60.000000 1770.000000 50.000000 C 1779.333333 40.000000 1786.000000 18.333333 1790.000000 -15.000000 C 1794.666667 -48.333333 1797.666667 -98.333333 1799.000000 -165.000000 C 1804.333333 -162.333333 1809.666667 -159.333333 1815.000000 -156.000000 C 1821.000000 -153.333333 1827.333333 -150.666667 1834.000000 -148.000000 C 1841.333333 -145.333333 1847.666667 -143.333333 1853.000000 -142.000000 C 1851.666667 -71.333333 1847.333333 -17.333333 1840.000000 20.000000 C 1833.333333 58.000000 1822.000000 84.000000 1806.000000 98.000000 C 1790.000000 112.000000 1766.666667 119.000000 1736.000000 119.000000 C 1730.666667 119.000000 1716.666667 119.000000 1694.000000 119.000000 C 1672.000000 119.000000 1647.666667 119.000000 1621.000000 119.000000 C 1595.000000 119.000000 1571.000000 119.000000 1549.000000 119.000000 C 1527.666667 119.000000 1513.666667 119.000000 1507.000000 119.000000 C 1473.666667 119.000000 1447.666667 116.333333 1429.000000 111.000000 C 1411.000000 106.333333 1398.333333 96.666667 1391.000000 82.000000 C 1383.666667 67.333333 1380.000000 45.666667 1380.000000 17.000000 C 1380.000000 -155.000000 1380.000000 -327.000000 1380.000000 -499.000000z M 1066.000000 -497.000000 C 1085.000000 -497.000000 1104.000000 -497.000000 1123.000000 -497.000000 C 1113.000000 -416.333333 1097.333333 -342.666667 1076.000000 -276.000000 C 1054.666667 -210.000000 1024.666667 -150.333333 986.000000 -97.000000 C 948.000000 -43.666667 899.000000 3.000000 839.000000 43.000000 C 779.000000 83.666667 705.333333 118.000000 618.000000 146.000000 C 615.333333 140.666667 611.666667 135.000000 607.000000 129.000000 C 603.000000 123.666667 598.333333 118.000000 593.000000 112.000000 C 588.333333 106.666667 584.000000 102.666667 580.000000 100.000000 C 665.333333 74.000000 737.000000 42.000000 795.000000 4.000000 C 853.666667 -33.333333 901.333333 -77.333333 938.000000 -128.000000 C 974.666667 -178.666667 1002.666667 -234.666667 1022.000000 -296.000000 C 1042.000000 -357.333333 1056.666667 -424.333333 1066.000000 -497.000000z M 411.000000 -1475.000000 C 429.666667 -1475.000000 448.333333 -1475.000000 467.000000 -1475.000000 C 467.000000 -1097.333333 467.000000 -719.666667 467.000000 -342.000000 C 448.333333 -336.666667 429.666667 -331.333333 411.000000 -326.000000 C 411.000000 -709.000000 411.000000 -1092.000000 411.000000 -1475.000000z "/>
</g>
<g><path d="M 2511.000000 -924.000000 C 2915.000000 -972.000000 3319.000000 -1020.000000 3723.000000 -1068.000000 C 3726.000000 -1050.000000 3729.000000 -1032.000000 3732.000000 -1014.000000 C 3327.666667 -966.666667 2923.333333 -919.333333 2519.000000 -872.000000 C 2516.333333 -889.333333 2513.666667 -906.666667 2511.000000 -924.000000z M 3289.000000 -1498.000000 C 3301.000000 -1508.000000 3313.000000 -1518.000000 3325.000000 -1528.000000 C 3369.000000 -1497.333333 3414.000000 -1463.333333 3460.000000 -1426.000000 C 3506.000000 -1389.333333 3548.666667 -1352.666667 3588.000000 -1316.000000 C 3628.000000 -1279.333333 3660.666667 -1247.000000 3686.000000 -1219.000000 C 3673.333333 -1207.666667 3660.666667 -1196.333333 3648.000000 -1185.000000 C 3622.666667 -1213.000000 3590.000000 -1245.000000 3550.000000 -1281.000000 C 3510.666667 -1317.666667 3468.000000 -1355.333333 3422.000000 -1394.000000 C 3376.666667 -1432.666667 3332.333333 -1467.333333 3289.000000 -1498.000000z M 2575.000000 -1571.000000 C 2592.666667 -1565.666667 2610.333333 -1560.333333 2628.000000 -1555.000000 C 2580.000000 -1443.666667 2524.000000 -1336.333333 2460.000000 -1233.000000 C 2396.000000 -1130.333333 2326.666667 -1034.333333 2252.000000 -945.000000 C 2178.000000 -856.333333 2101.333333 -777.333333 2022.000000 -708.000000 C 2019.333333 -712.000000 2015.333333 -717.000000 2010.000000 -723.000000 C 2005.333333 -729.000000 2000.333333 -734.666667 1995.000000 -740.000000 C 1989.666667 -746.000000 1985.000000 -750.333333 1981.000000 -753.000000 C 2060.333333 -818.333333 2136.666667 -894.000000 2210.000000 -980.000000 C 2284.000000 -1066.666667 2352.000000 -1160.000000 2414.000000 -1260.000000 C 2476.666667 -1360.666667 2530.333333 -1464.333333 2575.000000 -1571.000000z M 2339.000000 -1098.000000 C 2357.333333 -1116.666667 2375.666667 -1135.333333 2394.000000 -1154.000000 C 2394.000000 -1153.333333 2394.000000 -1152.666667 2394.000000 -1152.000000 C 2394.000000 -724.000000 2394.000000 -296.000000 2394.000000 132.000000 C 2375.666667 132.000000 2357.333333 132.000000 2339.000000 132.000000 C 2339.000000 -278.000000 2339.000000 -688.000000 2339.000000 -1098.000000z M 3012.000000 -1569.000000 C 3030.666667 -1569.000000 3049.333333 -1569.000000 3068.000000 -1569.000000 C 3078.666667 -1342.333333 3096.666667 -1130.666667 3122.000000 -934.000000 C 3147.333333 -737.333333 3181.333333 -564.333333 3224.000000 -415.000000 C 3267.333333 -266.333333 3321.000000 -149.000000 3385.000000 -63.000000 C 3449.000000 22.333333 3524.000000 68.333333 3610.000000 75.000000 C 3643.333333 76.333333 3669.666667 46.000000 3689.000000 -16.000000 C 3709.000000 -78.000000 3725.333333 -168.000000 3738.000000 -286.000000 C 3743.333333 -283.333333 3748.666667 -280.333333 3754.000000 -277.000000 C 3760.000000 -274.333333 3766.000000 -271.666667 3772.000000 -269.000000 C 3778.666667 -266.333333 3784.000000 -264.333333 3788.000000 -263.000000 C 3778.000000 -165.666667 3765.000000 -87.333333 3749.000000 -28.000000 C 3733.000000 31.333333 3713.666667 73.666667 3691.000000 99.000000 C 3669.000000 125.000000 3642.000000 137.333333 3610.000000 136.000000 C 3528.000000 132.666667 3456.000000 100.666667 3394.000000 40.000000 C 3332.666667 -20.000000 3280.000000 -102.333333 3236.000000 -207.000000 C 3192.000000 -312.333333 3155.333333 -435.666667 3126.000000 -577.000000 C 3096.666667 -718.333333 3073.000000 -873.000000 3055.000000 -1041.000000 C 3037.000000 -1209.666667 3022.666667 -1385.666667 3012.000000 -1569.000000z "/>
</g>
<g><path d="M 4610.000000 23.000000 C 4969.000000 23.000000 5328.000000 23.000000 5687.000000 23.000000 C 5687.000000 41.666667 5687.000000 60.333333 5687.000000 79.000000 C 5328.000000 79.000000 4969.000000 79.000000 4610.000000 79.000000 C 4610.000000 60.333333 4610.000000 41.666667 4610.000000 23.000000z M 4683.000000 -933.000000 C 5005.666667 -933.000000 5328.333333 -933.000000 5651.000000 -933.000000 C 5651.000000 -914.333333 5651.000000 -895.666667 5651.000000 -877.000000 C 5328.333333 -877.000000 5005.666667 -877.000000 4683.000000 -877.000000 C 4683.000000 -895.666667 4683.000000 -914.333333 4683.000000 -933.000000z M 5140.000000 -1584.000000 C 5159.000000 -1584.000000 5178.000000 -1584.000000 5197.000000 -1584.000000 C 5197.000000 -1039.333333 5197.000000 -494.666667 5197.000000 50.000000 C 5178.000000 50.000000 5159.000000 50.000000 5140.000000 50.000000 C 5140.000000 -494.666667 5140.000000 -1039.333333 5140.000000 -1584.000000z M 3955.000000 -1229.000000 C 4170.000000 -1229.000000 4385.000000 -1229.000000 4600.000000 -1229.000000 C 4600.000000 -1210.333333 4600.000000 -1191.666667 4600.000000 -1173.000000 C 4385.000000 -1173.000000 4170.000000 -1173.000000 3955.000000 -1173.000000 C 3955.000000 -1191.666667 3955.000000 -1210.333333 3955.000000 -1229.000000z M 4287.000000 -735.000000 C 4306.333333 -757.666667 4325.666667 -780.333333 4345.000000 -803.000000 C 4345.000000 -490.666667 4345.000000 -178.333333 4345.000000 134.000000 C 4325.666667 134.000000 4306.333333 134.000000 4287.000000 134.000000 C 4287.000000 -155.666667 4287.000000 -445.333333 4287.000000 -735.000000z M 4287.000000 -1596.000000 C 4306.333333 -1596.000000 4325.666667 -1596.000000 4345.000000 -1596.000000 C 4345.000000 -1462.666667 4345.000000 -1329.333333 4345.000000 -1196.000000 C 4325.666667 -1196.000000 4306.333333 -1196.000000 4287.000000 -1196.000000 C 4287.000000 -1329.333333 4287.000000 -1462.666667 4287.000000 -1596.000000z M 4343.000000 -793.000000 C 4358.333333 -781.666667 4382.333333 -762.000000 4415.000000 -734.000000 C 4447.666667 -706.666667 4482.666667 -677.000000 4520.000000 -645.000000 C 4558.000000 -613.000000 4593.000000 -583.333333 4625.000000 -556.000000 C 4657.000000 -529.333333 4680.000000 -509.666667 4694.000000 -497.000000 C 4682.000000 -481.000000 4670.000000 -465.000000 4658.000000 -449.000000 C 4641.333333 -465.666667 4617.333333 -488.000000 4586.000000 -516.000000 C 4554.666667 -544.666667 4520.666667 -575.000000 4484.000000 -607.000000 C 4447.333333 -639.000000 4412.666667 -668.666667 4380.000000 -696.000000 C 4348.000000 -723.333333 4323.000000 -743.333333 4305.000000 -756.000000 C 4317.666667 -768.333333 4330.333333 -780.666667 4343.000000 -793.000000z M 4577.000000 -1229.000000 C 4581.666667 -1229.000000 4586.333333 -1229.000000 4591.000000 -1229.000000 C 4595.333333 -1230.333333 4599.666667 -1231.666667 4604.000000 -1233.000000 C 4615.666667 -1225.333333 4627.333333 -1217.666667 4639.000000 -1210.000000 C 4591.666667 -1099.333333 4529.000000 -993.333333 4451.000000 -892.000000 C 4373.666667 -791.333333 4290.000000 -699.333333 4200.000000 -616.000000 C 4110.000000 -533.333333 4021.333333 -462.333333 3934.000000 -403.000000 C 3931.333333 -408.333333 3927.333333 -413.333333 3922.000000 -418.000000 C 3917.333333 -423.333333 3912.666667 -428.333333 3908.000000 -433.000000 C 3903.333333 -437.666667 3898.666667 -441.333333 3894.000000 -444.000000 C 3980.666667 -498.666667 4068.000000 -566.666667 4156.000000 -648.000000 C 4244.666667 -729.333333 4326.333333 -818.666667 4401.000000 -916.000000 C 4476.333333 -1013.333333 4535.000000 -1112.000000 4577.000000 -1212.000000 C 4577.000000 -1217.666667 4577.000000 -1223.333333 4577.000000 -1229.000000z "/>
</g>
<g><path d="M 5956.000000 -2.000000 C 6064.666667 -4.666667 6193.000000 -8.333333 6341.000000 -13.000000 C 6489.666667 -18.333333 6649.000000 -24.000000 6819.000000 -30.000000 C 6989.666667 -36.666667 7160.666667 -44.000000 7332.000000 -52.000000 C 7331.666667 -34.000000 7331.333333 -16.000000 7331.000000 2.000000 C 7164.333333 9.333333 6997.333333 16.666667 6830.000000 24.000000 C 6663.333333 31.333333 6505.333333 37.666667 6356.000000 43.000000 C 6206.666667 49.000000 6076.000000 54.000000 5964.000000 58.000000 C 5961.333333 38.000000 5958.666667 18.000000 5956.000000 -2.000000z M 5933.000000 -616.000000 C 6461.666667 -616.000000 6990.333333 -616.000000 7519.000000 -616.000000 C 7519.000000 -597.000000 7519.000000 -578.000000 7519.000000 -559.000000 C 6990.333333 -559.000000 6461.666667 -559.000000 5933.000000 -559.000000 C 5933.000000 -578.000000 5933.000000 -597.000000 5933.000000 -616.000000z M 6248.000000 -983.000000 C 6559.000000 -983.000000 6870.000000 -983.000000 7181.000000 -983.000000 C 7181.000000 -963.666667 7181.000000 -944.333333 7181.000000 -925.000000 C 6870.000000 -925.000000 6559.000000 -925.000000 6248.000000 -925.000000 C 6248.000000 -944.333333 6248.000000 -963.666667 6248.000000 -983.000000z M 6515.000000 -584.000000 C 6534.666667 -577.333333 6554.333333 -570.666667 6574.000000 -564.000000 C 6544.666667 -501.333333 6512.666667 -434.000000 6478.000000 -362.000000 C 6443.333333 -290.666667 6407.666667 -220.333333 6371.000000 -151.000000 C 6335.000000 -82.333333 6299.666667 -21.000000 6265.000000 33.000000 C 6247.000000 26.333333 6229.000000 19.666667 6211.000000 13.000000 C 6245.666667 -40.333333 6281.666667 -102.000000 6319.000000 -172.000000 C 6357.000000 -242.666667 6393.333333 -314.333333 6428.000000 -387.000000 C 6462.666667 -460.333333 6491.666667 -526.000000 6515.000000 -584.000000z M 6950.000000 -374.000000 C 6964.333333 -383.000000 6978.666667 -392.000000 6993.000000 -401.000000 C 7054.333333 -349.666667 7115.333333 -293.333333 7176.000000 -232.000000 C 7236.666667 -170.666667 7292.333333 -110.000000 7343.000000 -50.000000 C 7393.666667 10.000000 7433.666667 64.333333 7463.000000 113.000000 C 7447.666667 123.333333 7432.333333 133.666667 7417.000000 144.000000 C 7386.333333 95.333333 7345.666667 40.666667 7295.000000 -20.000000 C 7244.333333 -80.666667 7189.333333 -142.333333 7130.000000 -205.000000 C 7070.666667 -268.333333 7010.666667 -324.666667 6950.000000 -374.000000z M 6707.000000 -1536.000000 C 6654.333333 -1454.000000 6584.666667 -1369.666667 6498.000000 -1283.000000 C 6412.000000 -1197.000000 6316.000000 -1115.000000 6210.000000 -1037.000000 C 6104.666667 -959.000000 5996.333333 -890.333333 5885.000000 -831.000000 C 5882.333333 -836.333333 5879.000000 -841.333333 5875.000000 -846.000000 C 5871.000000 -851.333333 5867.000000 -856.666667 5863.000000 -862.000000 C 5859.666667 -867.333333 5855.333333 -872.000000 5850.000000 -876.000000 C 5961.333333 -932.000000 6070.000000 -999.000000 6176.000000 -1077.000000 C 6282.666667 -1155.000000 6379.333333 -1238.333333 6466.000000 -1327.000000 C 6553.333333 -1416.333333 6622.666667 -1505.333333 6674.000000 -1594.000000 C 6692.000000 -1594.000000 6710.000000 -1594.000000 6728.000000 -1594.000000 C 6778.666667 -1522.000000 6838.333333 -1451.000000 6907.000000 -1381.000000 C 6975.666667 -1311.666667 7049.000000 -1245.666667 7127.000000 -1183.000000 C 7205.000000 -1120.333333 7284.333333 -1063.333333 7365.000000 -1012.000000 C 7445.666667 -960.666667 7524.333333 -917.666667 7601.000000 -883.000000 C 7596.333333 -878.333333 7590.000000 -870.666667 7582.000000 -860.000000 C 7574.666667 -850.000000 7568.333333 -841.666667 7563.000000 -835.000000 C 7460.333333 -886.333333 7355.333333 -949.000000 7248.000000 -1023.000000 C 7140.666667 -1097.666667 7039.666667 -1179.000000 6945.000000 -1267.000000 C 6851.000000 -1355.666667 6771.666667 -1445.333333 6707.000000 -1536.000000z "/>
</g>
<g><path d="M 8479.000000 -1480.000000 C 8475.000000 -1463.333333 8472.000000 -1447.333333 8470.000000 -1432.000000 C 8468.000000 -1416.666667 8465.666667 -1400.000000 8463.000000 -1382.000000 C 8458.333333 -1338.666667 8452.333333 -1288.000000 8445.000000 -1230.000000 C 8438.333333 -1172.666667 8430.666667 -1111.666667 8422.000000 -1047.000000 C 8414.000000 -982.333333 8406.000000 -916.666667 8398.000000 -850.000000 C 8390.666667 -784.000000 8383.333333 -719.666667 8376.000000 -657.000000 C 8368.666667 -594.333333 8363.000000 -536.666667 8359.000000 -484.000000 C 8355.666667 -431.333333 8354.000000 -386.333333 8354.000000 -349.000000 C 8354.000000 -243.000000 8383.333333 -157.333333 8442.000000 -92.000000 C 8501.333333 -26.666667 8593.000000 6.000000 8717.000000 6.000000 C 8821.666667 6.000000 8914.666667 -8.000000 8996.000000 -36.000000 C 9077.333333 -64.666667 9141.000000 -106.666667 9187.000000 -162.000000 C 9233.000000 -218.000000 9256.000000 -285.666667 9256.000000 -365.000000 C 9256.000000 -429.000000 9238.666667 -498.333333 9204.000000 -573.000000 C 9170.000000 -647.666667 9113.333333 -715.333333 9034.000000 -776.000000 C 9057.000000 -780.333333 9080.000000 -784.666667 9103.000000 -789.000000 C 9170.333333 -723.666667 9221.666667 -656.666667 9257.000000 -588.000000 C 9292.333333 -520.000000 9310.000000 -444.333333 9310.000000 -361.000000 C 9310.000000 -267.666667 9284.333333 -189.666667 9233.000000 -127.000000 C 9181.666667 -64.333333 9112.000000 -17.666667 9024.000000 13.000000 C 8936.000000 44.333333 8835.000000 60.000000 8721.000000 60.000000 C 8649.000000 60.000000 8580.333333 47.333333 8515.000000 22.000000 C 8449.666667 -2.666667 8396.666667 -44.333333 8356.000000 -103.000000 C 8316.000000 -162.333333 8296.000000 -242.666667 8296.000000 -344.000000 C 8296.000000 -387.333333 8299.000000 -442.333333 8305.000000 -509.000000 C 8311.000000 -575.666667 8318.666667 -648.333333 8328.000000 -727.000000 C 8337.333333 -805.666667 8347.000000 -885.666667 8357.000000 -967.000000 C 8367.666667 -1048.333333 8377.000000 -1125.000000 8385.000000 -1197.000000 C 8393.666667 -1269.666667 8400.666667 -1332.000000 8406.000000 -1384.000000 C 8408.666667 -1406.000000 8410.000000 -1425.333333 8410.000000 -1442.000000 C 8410.000000 -1458.666667 8408.666667 -1473.333333 8406.000000 -1486.000000 C 8430.333333 -1484.000000 8454.666667 -1482.000000 8479.000000 -1480.000000z M 7933.000000 -1208.000000 C 7985.666667 -1192.666667 8043.333333 -1179.333333 8106.000000 -1168.000000 C 8168.666667 -1157.333333 8230.666667 -1149.000000 8292.000000 -1143.000000 C 8354.000000 -1137.666667 8409.333333 -1135.000000 8458.000000 -1135.000000 C 8530.666667 -1135.000000 8600.000000 -1136.333333 8666.000000 -1139.000000 C 8732.000000 -1142.333333 8797.000000 -1148.666667 8861.000000 -1158.000000 C 8861.000000 -1138.000000 8861.000000 -1118.000000 8861.000000 -1098.000000 C 8794.333333 -1093.333333 8729.666667 -1089.333333 8667.000000 -1086.000000 C 8604.333333 -1082.666667 8535.333333 -1081.000000 8460.000000 -1081.000000 C 8412.000000 -1081.000000 8356.666667 -1083.666667 8294.000000 -1089.000000 C 8231.333333 -1095.000000 8168.000000 -1103.000000 8104.000000 -1113.000000 C 8040.000000 -1123.666667 7981.333333 -1135.333333 7928.000000 -1148.000000 C 7929.666667 -1168.000000 7931.333333 -1188.000000 7933.000000 -1208.000000z M 7882.000000 -730.000000 C 7936.666667 -710.666667 7996.333333 -694.666667 8061.000000 -682.000000 C 8125.666667 -670.000000 8190.333333 -661.333333 8255.000000 -656.000000 C 8319.666667 -651.333333 8379.000000 -649.000000 8433.000000 -649.000000 C 8505.666667 -649.000000 8575.000000 -650.333333 8641.000000 -653.000000 C 8707.000000 -655.666667 8775.666667 -662.666667 8847.000000 -674.000000 C 8847.000000 -653.000000 8847.000000 -632.000000 8847.000000 -611.000000 C 8773.000000 -603.000000 8703.000000 -597.666667 8637.000000 -595.000000 C 8571.000000 -592.333333 8503.666667 -591.000000 8435.000000 -591.000000 C 8353.000000 -591.000000 8261.333333 -596.666667 8160.000000 -608.000000 C 8058.666667 -620.000000 7964.666667 -640.000000 7878.000000 -668.000000 C 7879.333333 -688.666667 7880.666667 -709.333333 7882.000000 -730.000000z "/>
</g>
<g><path d="M 10395.000000 -1480.000000 C 10393.666667 -1470.000000 10392.000000 -1459.333333 10390.000000 -1448.000000 C 10388.000000 -1437.333333 10385.666667 -1425.000000 10383.000000 -1411.000000 C 10381.000000 -1394.333333 10376.666667 -1364.000000 10370.000000 -1320.000000 C 10363.333333 -1276.000000 10355.333333 -1227.333333 10346.000000 -1174.000000 C 10337.333333 -1120.666667 10327.333333 -1070.333333 10316.000000 -1023.000000 C 10302.000000 -969.666667 10286.000000 -911.000000 10268.000000 -847.000000 C 10250.000000 -783.000000 10229.000000 -715.333333 10205.000000 -644.000000 C 10181.666667 -573.333333 10155.000000 -500.333333 10125.000000 -425.000000 C 10095.000000 -350.333333 10061.000000 -274.666667 10023.000000 -198.000000 C 9985.666667 -121.333333 9943.333333 -45.000000 9896.000000 31.000000 C 9875.333333 22.666667 9854.666667 14.333333 9834.000000 6.000000 C 9876.666667 -49.333333 9916.666667 -112.666667 9954.000000 -184.000000 C 9992.000000 -256.000000 10027.000000 -331.000000 10059.000000 -409.000000 C 10091.000000 -487.000000 10120.000000 -564.000000 10146.000000 -640.000000 C 10172.666667 -716.666667 10195.000000 -787.333333 10213.000000 -852.000000 C 10231.666667 -917.333333 10246.333333 -973.333333 10257.000000 -1020.000000 C 10275.000000 -1086.000000 10290.333333 -1161.333333 10303.000000 -1246.000000 C 10315.666667 -1330.666667 10322.666667 -1410.666667 10324.000000 -1486.000000 C 10347.666667 -1484.000000 10371.333333 -1482.000000 10395.000000 -1480.000000z M 11055.000000 -1250.000000 C 11085.666667 -1214.000000 11118.333333 -1167.666667 11153.000000 -1111.000000 C 11187.666667 -1055.000000 11222.000000 -995.000000 11256.000000 -931.000000 C 11290.000000 -867.000000 11321.333333 -805.333333 11350.000000 -746.000000 C 11378.666667 -686.666667 11401.333333 -635.000000 11418.000000 -591.000000 C 11400.000000 -581.666667 11382.000000 -572.333333 11364.000000 -563.000000 C 11348.666667 -607.666667 11327.666667 -660.000000 11301.000000 -720.000000 C 11274.333333 -780.000000 11244.333333 -841.666667 11211.000000 -905.000000 C 11177.666667 -968.333333 11143.333333 -1027.666667 11108.000000 -1083.000000 C 11072.666667 -1139.000000 11038.333333 -1185.000000 11005.000000 -1221.000000 C 11021.666667 -1230.666667 11038.333333 -1240.333333 11055.000000 -1250.000000z M 9790.000000 -1031.000000 C 9815.333333 -1029.666667 9838.333333 -1029.000000 9859.000000 -1029.000000 C 9879.666667 -1029.000000 9902.666667 -1029.666667 9928.000000 -1031.000000 C 9955.333333 -1032.333333 9991.666667 -1034.666667 10037.000000 -1038.000000 C 10082.333333 -1041.333333 10132.000000 -1045.000000 10186.000000 -1049.000000 C 10240.666667 -1053.666667 10294.666667 -1058.000000 10348.000000 -1062.000000 C 10401.333333 -1066.666667 10450.000000 -1070.666667 10494.000000 -1074.000000 C 10538.000000 -1077.333333 10571.666667 -1079.000000 10595.000000 -1079.000000 C 10642.333333 -1079.000000 10686.666667 -1072.333333 10728.000000 -1059.000000 C 10769.333333 -1045.666667 10803.333333 -1018.666667 10830.000000 -978.000000 C 10857.333333 -938.000000 10871.000000 -877.666667 10871.000000 -797.000000 C 10871.000000 -720.333333 10867.000000 -638.666667 10859.000000 -552.000000 C 10851.666667 -465.333333 10839.666667 -383.333333 10823.000000 -306.000000 C 10806.333333 -228.666667 10784.666667 -164.333333 10758.000000 -113.000000 C 10730.000000 -51.666667 10695.000000 -12.333333 10653.000000 5.000000 C 10611.666667 22.333333 10564.666667 31.000000 10512.000000 31.000000 C 10476.000000 31.000000 10437.000000 27.666667 10395.000000 21.000000 C 10353.666667 15.000000 10319.000000 8.666667 10291.000000 2.000000 C 10288.000000 -20.333333 10285.000000 -42.666667 10282.000000 -65.000000 C 10311.333333 -56.333333 10340.333333 -49.000000 10369.000000 -43.000000 C 10397.666667 -37.666667 10424.666667 -33.666667 10450.000000 -31.000000 C 10476.000000 -28.333333 10498.666667 -27.000000 10518.000000 -27.000000 C 10556.000000 -27.000000 10591.333333 -33.333333 10624.000000 -46.000000 C 10656.666667 -58.666667 10685.333333 -90.666667 10710.000000 -142.000000 C 10732.666667 -193.333333 10751.666667 -254.666667 10767.000000 -326.000000 C 10782.333333 -398.000000 10793.666667 -474.000000 10801.000000 -554.000000 C 10809.000000 -634.000000 10813.000000 -711.666667 10813.000000 -787.000000 C 10813.000000 -853.666667 10803.333333 -904.000000 10784.000000 -938.000000 C 10765.333333 -972.000000 10739.333333 -995.333333 10706.000000 -1008.000000 C 10672.666667 -1020.666667 10635.000000 -1027.000000 10593.000000 -1027.000000 C 10557.000000 -1027.000000 10508.666667 -1024.666667 10448.000000 -1020.000000 C 10388.000000 -1016.000000 10324.000000 -1010.666667 10256.000000 -1004.000000 C 10188.666667 -998.000000 10125.666667 -992.000000 10067.000000 -986.000000 C 10009.000000 -980.000000 9964.000000 -975.666667 9932.000000 -973.000000 C 9915.333333 -972.333333 9894.000000 -970.333333 9868.000000 -967.000000 C 9842.666667 -963.666667 9820.000000 -960.666667 9800.000000 -958.000000 C 9796.666667 -982.333333 9793.333333 -1006.666667 9790.000000 -1031.000000z "/>
</g>
<g><path d="M 13388.000000 -192.000000 C 13330.666667 -130.666667 13272.000000 -85.666667 13212.000000 -57.000000 C 13152.666667 -29.000000 13096.666667 -15.000000 13044.000000 -15.000000 C 12989.333333 -15.000000 12944.666667 -31.000000 12910.000000 -63.000000 C 12875.333333 -95.000000 12858.000000 -143.666667 12858.000000 -209.000000 C 12858.000000 -264.333333 12861.666667 -325.333333 12869.000000 -392.000000 C 12877.000000 -459.333333 12885.666667 -528.666667 12895.000000 -600.000000 C 12905.000000 -671.333333 12913.666667 -739.000000 12921.000000 -803.000000 C 12929.000000 -867.666667 12933.000000 -925.000000 12933.000000 -975.000000 C 12933.000000 -1039.000000 12917.333333 -1084.333333 12886.000000 -1111.000000 C 12854.666667 -1138.333333 12811.000000 -1152.000000 12755.000000 -1152.000000 C 12709.666667 -1152.000000 12659.333333 -1140.666667 12604.000000 -1118.000000 C 12549.333333 -1096.000000 12492.666667 -1065.000000 12434.000000 -1025.000000 C 12375.333333 -985.666667 12317.000000 -939.666667 12259.000000 -887.000000 C 12201.666667 -834.333333 12146.666667 -778.000000 12094.000000 -718.000000 C 12096.666667 -746.333333 12099.333333 -774.666667 12102.000000 -803.000000 C 12126.000000 -829.666667 12157.000000 -860.333333 12195.000000 -895.000000 C 12233.000000 -930.333333 12275.333333 -966.333333 12322.000000 -1003.000000 C 12368.666667 -1039.666667 12417.000000 -1073.333333 12467.000000 -1104.000000 C 12517.666667 -1134.666667 12568.000000 -1159.333333 12618.000000 -1178.000000 C 12668.000000 -1196.666667 12714.666667 -1206.000000 12758.000000 -1206.000000 C 12809.333333 -1206.000000 12852.333333 -1197.333333 12887.000000 -1180.000000 C 12921.666667 -1162.666667 12948.000000 -1136.666667 12966.000000 -1102.000000 C 12984.000000 -1067.333333 12993.000000 -1025.000000 12993.000000 -975.000000 C 12993.000000 -929.000000 12988.666667 -873.000000 12980.000000 -807.000000 C 12972.000000 -741.000000 12962.666667 -672.000000 12952.000000 -600.000000 C 12942.000000 -528.000000 12932.666667 -458.666667 12924.000000 -392.000000 C 12916.000000 -325.333333 12912.000000 -268.333333 12912.000000 -221.000000 C 12912.000000 -181.000000 12922.000000 -146.000000 12942.000000 -116.000000 C 12962.000000 -86.000000 12994.333333 -71.000000 13039.000000 -71.000000 C 13095.000000 -71.000000 13150.333333 -86.333333 13205.000000 -117.000000 C 13260.333333 -147.666667 13315.666667 -192.666667 13371.000000 -252.000000 C 13376.666667 -232.000000 13382.333333 -212.000000 13388.000000 -192.000000z M 12134.000000 -1114.000000 C 12125.333333 -1112.666667 12105.333333 -1109.666667 12074.000000 -1105.000000 C 12042.666667 -1100.333333 12005.666667 -1095.000000 11963.000000 -1089.000000 C 11921.000000 -1083.666667 11877.333333 -1077.666667 11832.000000 -1071.000000 C 11786.666667 -1065.000000 11744.000000 -1058.666667 11704.000000 -1052.000000 C 11701.666667 -1075.000000 11699.333333 -1098.000000 11697.000000 -1121.000000 C 11712.333333 -1119.666667 11727.000000 -1119.333333 11741.000000 -1120.000000 C 11755.000000 -1120.666667 11768.333333 -1121.666667 11781.000000 -1123.000000 C 11803.000000 -1124.333333 11831.666667 -1127.000000 11867.000000 -1131.000000 C 11903.000000 -1135.000000 11941.333333 -1139.000000 11982.000000 -1143.000000 C 12023.333333 -1147.666667 12062.666667 -1153.000000 12100.000000 -1159.000000 C 12137.333333 -1165.666667 12167.333333 -1173.000000 12190.000000 -1181.000000 C 12201.666667 -1170.000000 12213.333333 -1159.000000 12225.000000 -1148.000000 C 12213.000000 -1130.000000 12200.666667 -1110.333333 12188.000000 -1089.000000 C 12175.333333 -1068.333333 12162.666667 -1047.000000 12150.000000 -1025.000000 C 12137.333333 -1003.666667 12125.666667 -983.333333 12115.000000 -964.000000 C 12113.000000 -909.666667 12111.000000 -855.333333 12109.000000 -801.000000 C 12086.333333 -762.333333 12058.333333 -718.333333 12025.000000 -669.000000 C 11991.666667 -619.666667 11956.000000 -567.666667 11918.000000 -513.000000 C 11880.666667 -459.000000 11842.333333 -404.333333 11803.000000 -349.000000 C 11764.333333 -294.333333 11727.666667 -242.666667 11693.000000 -194.000000 C 11678.333333 -211.333333 11663.666667 -228.666667 11649.000000 -246.000000 C 11671.666667 -275.333333 11700.333333 -313.000000 11735.000000 -359.000000 C 11769.666667 -405.000000 11806.000000 -454.666667 11844.000000 -508.000000 C 11882.666667 -561.333333 11920.333333 -613.666667 11957.000000 -665.000000 C 11993.666667 -717.000000 12025.333333 -763.333333 12052.000000 -804.000000 C 12078.666667 -845.333333 12097.333333 -876.333333 12108.000000 -897.000000 C 12111.666667 -946.000000 12115.333333 -995.000000 12119.000000 -1044.000000 C 12124.000000 -1067.333333 12129.000000 -1090.666667 12134.000000 -1114.000000z M 12121.000000 -1379.000000 C 12121.000000 -1395.666667 12120.666667 -1414.000000 12120.000000 -1434.000000 C 12119.333333 -1454.666667 12117.666667 -1474.000000 12115.000000 -1492.000000 C 12142.000000 -1490.666667 12169.000000 -1489.333333 12196.000000 -1488.000000 C 12192.000000 -1468.666667 12186.666667 -1431.666667 12180.000000 -1377.000000 C 12174.000000 -1323.000000 12167.666667 -1258.000000 12161.000000 -1182.000000 C 12155.000000 -1106.000000 12149.000000 -1025.333333 12143.000000 -940.000000 C 12137.000000 -854.666667 12132.000000 -770.666667 12128.000000 -688.000000 C 12124.666667 -605.333333 12123.000000 -531.000000 12123.000000 -465.000000 C 12123.000000 -401.000000 12123.000000 -347.000000 12123.000000 -303.000000 C 12123.000000 -259.666667 12123.333333 -218.000000 12124.000000 -178.000000 C 12124.666667 -138.666667 12125.666667 -91.333333 12127.000000 -36.000000 C 12128.333333 -20.000000 12129.333333 -5.333333 12130.000000 8.000000 C 12130.666667 22.000000 12131.333333 36.000000 12132.000000 50.000000 C 12109.000000 50.000000 12086.000000 50.000000 12063.000000 50.000000 C 12065.666667 36.000000 12067.333333 22.000000 12068.000000 8.000000 C 12068.666667 -5.333333 12069.000000 -19.666667 12069.000000 -35.000000 C 12069.000000 -96.333333 12069.000000 -147.666667 12069.000000 -189.000000 C 12069.000000 -231.000000 12069.000000 -272.333333 12069.000000 -313.000000 C 12069.000000 -353.666667 12069.000000 -404.333333 12069.000000 -465.000000 C 12069.000000 -493.000000 12070.333333 -533.000000 12073.000000 -585.000000 C 12075.666667 -637.666667 12078.666667 -696.333333 12082.000000 -761.000000 C 12086.000000 -825.666667 12090.333333 -891.666667 12095.000000 -959.000000 C 12099.666667 -1026.333333 12103.666667 -1089.666667 12107.000000 -1149.000000 C 12111.000000 -1208.333333 12114.333333 -1258.333333 12117.000000 -1299.000000 C 12119.666667 -1340.333333 12121.000000 -1367.000000 12121.000000 -1379.000000z "/>
</g>
<g><path d="M 13924.000000 -1300.000000 C 13992.000000 -1290.666667 14068.000000 -1284.000000 14152.000000 -1280.000000 C 14236.666667 -1276.666667 14324.333333 -1275.000000 14415.000000 -1275.000000 C 14475.666667 -1275.000000 14534.333333 -1276.333333 14591.000000 -1279.000000 C 14647.666667 -1281.666667 14701.666667 -1285.000000 14753.000000 -1289.000000 C 14804.333333 -1293.666667 14851.666667 -1298.000000 14895.000000 -1302.000000 C 14895.000000 -1282.000000 14895.000000 -1262.000000 14895.000000 -1242.000000 C 14853.000000 -1239.333333 14805.666667 -1236.000000 14753.000000 -1232.000000 C 14701.000000 -1228.666667 14646.000000 -1225.666667 14588.000000 -1223.000000 C 14530.666667 -1220.333333 14473.000000 -1219.000000 14415.000000 -1219.000000 C 14323.000000 -1219.000000 14236.333333 -1221.000000 14155.000000 -1225.000000 C 14073.666667 -1229.000000 13996.666667 -1234.000000 13924.000000 -1240.000000 C 13924.000000 -1260.000000 13924.000000 -1280.000000 13924.000000 -1300.000000z M 13916.000000 -564.000000 C 13900.666667 -523.333333 13889.000000 -482.666667 13881.000000 -442.000000 C 13873.666667 -402.000000 13870.000000 -362.666667 13870.000000 -324.000000 C 13870.000000 -238.666667 13914.000000 -170.000000 14002.000000 -118.000000 C 14090.666667 -66.000000 14219.333333 -40.000000 14388.000000 -40.000000 C 14479.333333 -40.000000 14566.000000 -43.333333 14648.000000 -50.000000 C 14730.000000 -56.666667 14803.666667 -65.333333 14869.000000 -76.000000 C 14935.000000 -86.666667 14988.000000 -99.666667 15028.000000 -115.000000 C 15028.666667 -95.333333 15029.333333 -75.666667 15030.000000 -56.000000 C 14994.000000 -44.000000 14943.333333 -32.666667 14878.000000 -22.000000 C 14812.666667 -11.333333 14737.666667 -3.000000 14653.000000 3.000000 C 14569.000000 9.666667 14480.666667 13.000000 14388.000000 13.000000 C 14274.666667 13.000000 14175.000000 1.000000 14089.000000 -23.000000 C 14003.000000 -47.666667 13936.000000 -84.000000 13888.000000 -132.000000 C 13840.000000 -180.666667 13816.000000 -241.666667 13816.000000 -315.000000 C 13816.000000 -359.666667 13820.000000 -403.333333 13828.000000 -446.000000 C 13836.666667 -489.333333 13846.333333 -531.333333 13857.000000 -572.000000 C 13876.666667 -569.333333 13896.333333 -566.666667 13916.000000 -564.000000z "/>
</g>
<g><path d="M 16652.000000 -1269.000000 C 16652.000000 -1224.333333 16652.000000 -1175.666667 16652.000000 -1123.000000 C 16652.000000 -1070.333333 16652.000000 -1018.666667 16652.000000 -968.000000 C 16652.000000 -918.000000 16652.000000 -873.000000 16652.000000 -833.000000 C 16652.000000 -779.666667 16653.333333 -721.333333 16656.000000 -658.000000 C 16658.666667 -594.666667 16661.333333 -531.333333 16664.000000 -468.000000 C 16667.333333 -405.333333 16670.333333 -347.666667 16673.000000 -295.000000 C 16675.666667 -243.000000 16677.000000 -200.333333 16677.000000 -167.000000 C 16677.000000 -96.333333 16651.666667 -43.333333 16601.000000 -8.000000 C 16550.333333 26.666667 16484.333333 44.000000 16403.000000 44.000000 C 16336.333333 44.000000 16277.666667 35.000000 16227.000000 17.000000 C 16176.333333 -1.000000 16137.000000 -27.000000 16109.000000 -61.000000 C 16081.000000 -95.666667 16067.000000 -138.666667 16067.000000 -190.000000 C 16067.000000 -224.666667 16077.666667 -259.333333 16099.000000 -294.000000 C 16121.000000 -328.666667 16157.000000 -357.333333 16207.000000 -380.000000 C 16257.000000 -403.333333 16323.333333 -415.000000 16406.000000 -415.000000 C 16480.666667 -415.000000 16550.333333 -407.333333 16615.000000 -392.000000 C 16679.666667 -376.666667 16739.666667 -355.666667 16795.000000 -329.000000 C 16851.000000 -303.000000 16903.666667 -272.333333 16953.000000 -237.000000 C 17002.333333 -201.666667 17048.666667 -165.000000 17092.000000 -127.000000 C 17079.666667 -107.000000 17067.333333 -87.000000 17055.000000 -67.000000 C 16995.000000 -129.666667 16930.000000 -183.000000 16860.000000 -227.000000 C 16790.666667 -271.666667 16717.666667 -305.333333 16641.000000 -328.000000 C 16565.000000 -351.333333 16486.666667 -363.000000 16406.000000 -363.000000 C 16323.333333 -363.000000 16255.000000 -347.000000 16201.000000 -315.000000 C 16147.000000 -283.000000 16120.000000 -241.333333 16120.000000 -190.000000 C 16120.000000 -130.000000 16146.000000 -85.000000 16198.000000 -55.000000 C 16250.000000 -25.000000 16319.333333 -10.000000 16406.000000 -10.000000 C 16468.666667 -10.000000 16515.333333 -19.333333 16546.000000 -38.000000 C 16577.333333 -57.333333 16598.333333 -83.000000 16609.000000 -115.000000 C 16619.666667 -147.000000 16625.000000 -181.666667 16625.000000 -219.000000 C 16625.000000 -244.333333 16623.666667 -280.666667 16621.000000 -328.000000 C 16619.000000 -375.333333 16616.000000 -428.000000 16612.000000 -486.000000 C 16608.000000 -544.666667 16604.666667 -603.666667 16602.000000 -663.000000 C 16599.333333 -723.000000 16598.000000 -778.000000 16598.000000 -828.000000 C 16598.000000 -867.333333 16598.000000 -913.333333 16598.000000 -966.000000 C 16598.000000 -1019.333333 16598.000000 -1073.333333 16598.000000 -1128.000000 C 16598.000000 -1182.666667 16598.000000 -1229.666667 16598.000000 -1269.000000 C 16616.000000 -1269.000000 16634.000000 -1269.000000 16652.000000 -1269.000000z M 16107.000000 -860.000000 C 16217.000000 -852.666667 16328.000000 -849.333333 16440.000000 -850.000000 C 16552.000000 -851.333333 16659.666667 -856.000000 16763.000000 -864.000000 C 16867.000000 -872.000000 16960.000000 -880.333333 17042.000000 -889.000000 C 17042.000000 -869.000000 17042.000000 -849.000000 17042.000000 -829.000000 C 16962.666667 -821.666667 16870.333333 -814.333333 16765.000000 -807.000000 C 16660.333333 -800.333333 16551.333333 -796.000000 16438.000000 -794.000000 C 16324.666667 -792.000000 16214.333333 -794.333333 16107.000000 -801.000000 C 16107.000000 -820.666667 16107.000000 -840.333333 16107.000000 -860.000000z M 16138.000000 -1302.000000 C 16227.333333 -1295.333333 16320.333333 -1292.333333 16417.000000 -1293.000000 C 16513.666667 -1293.666667 16607.333333 -1297.000000 16698.000000 -1303.000000 C 16789.333333 -1309.666667 16870.000000 -1317.666667 16940.000000 -1327.000000 C 16940.000000 -1307.666667 16940.000000 -1288.333333 16940.000000 -1269.000000 C 16870.666667 -1263.000000 16790.666667 -1257.000000 16700.000000 -1251.000000 C 16609.333333 -1245.000000 16515.333333 -1241.333333 16418.000000 -1240.000000 C 16320.666667 -1238.666667 16227.333333 -1240.000000 16138.000000 -1244.000000 C 16138.000000 -1263.333333 16138.000000 -1282.666667 16138.000000 -1302.000000z M 15740.000000 -1400.000000 C 15737.333333 -1392.000000 15734.666667 -1383.333333 15732.000000 -1374.000000 C 15730.000000 -1365.333333 15728.000000 -1356.000000 15726.000000 -1346.000000 C 15724.000000 -1336.666667 15721.666667 -1326.333333 15719.000000 -1315.000000 C 15710.333333 -1269.000000 15701.000000 -1220.000000 15691.000000 -1168.000000 C 15681.666667 -1116.666667 15672.666667 -1063.333333 15664.000000 -1008.000000 C 15656.000000 -952.666667 15648.666667 -897.333333 15642.000000 -842.000000 C 15636.000000 -787.333333 15631.000000 -733.333333 15627.000000 -680.000000 C 15623.000000 -627.333333 15621.000000 -577.333333 15621.000000 -530.000000 C 15621.000000 -456.000000 15623.333333 -387.666667 15628.000000 -325.000000 C 15633.333333 -263.000000 15640.666667 -194.333333 15650.000000 -119.000000 C 15661.333333 -155.000000 15675.000000 -196.000000 15691.000000 -242.000000 C 15707.000000 -288.000000 15723.333333 -333.000000 15740.000000 -377.000000 C 15756.666667 -421.666667 15771.333333 -459.333333 15784.000000 -490.000000 C 15797.000000 -479.000000 15810.000000 -468.000000 15823.000000 -457.000000 C 15809.000000 -422.333333 15792.666667 -379.666667 15774.000000 -329.000000 C 15755.333333 -278.333333 15738.000000 -229.000000 15722.000000 -181.000000 C 15706.000000 -133.000000 15694.666667 -95.000000 15688.000000 -67.000000 C 15685.333333 -54.333333 15683.000000 -40.666667 15681.000000 -26.000000 C 15679.666667 -11.333333 15679.666667 2.333333 15681.000000 15.000000 C 15682.333333 24.333333 15683.333333 34.000000 15684.000000 44.000000 C 15685.333333 54.666667 15686.666667 63.000000 15688.000000 69.000000 C 15670.333333 71.000000 15652.666667 73.000000 15635.000000 75.000000 C 15615.666667 3.000000 15599.000000 -83.000000 15585.000000 -183.000000 C 15571.666667 -283.666667 15565.000000 -398.666667 15565.000000 -528.000000 C 15565.000000 -597.333333 15568.666667 -669.333333 15576.000000 -744.000000 C 15584.000000 -818.666667 15593.333333 -892.000000 15604.000000 -964.000000 C 15615.333333 -1036.666667 15626.000000 -1104.000000 15636.000000 -1166.000000 C 15646.666667 -1228.666667 15655.000000 -1281.000000 15661.000000 -1323.000000 C 15663.666667 -1341.000000 15665.666667 -1357.000000 15667.000000 -1371.000000 C 15668.333333 -1385.000000 15669.000000 -1397.000000 15669.000000 -1407.000000 C 15692.666667 -1404.666667 15716.333333 -1402.333333 15740.000000 -1400.000000z M 16913.000000 -1463.000000 C 16925.000000 -1441.000000 16939.000000 -1413.666667 16955.000000 -1381.000000 C 16971.000000 -1348.333333 16986.666667 -1315.000000 17002.000000 -1281.000000 C 17017.333333 -1247.666667 17030.000000 -1217.333333 17040.000000 -1190.000000 C 17020.000000 -1182.333333 17000.000000 -1174.666667 16980.000000 -1167.000000 C 16971.333333 -1195.666667 16959.666667 -1226.666667 16945.000000 -1260.000000 C 16930.333333 -1294.000000 16915.666667 -1327.666667 16901.000000 -1361.000000 C 16886.333333 -1394.333333 16872.666667 -1422.666667 16860.000000 -1446.000000 C 16877.666667 -1451.666667 16895.333333 -1457.333333 16913.000000 -1463.000000z M 17101.000000 -1523.000000 C 17114.333333 -1501.000000 17128.666667 -1473.666667 17144.000000 -1441.000000 C 17159.333333 -1408.333333 17174.666667 -1375.000000 17190.000000 -1341.000000 C 17205.333333 -1307.000000 17218.000000 -1276.666667 17228.000000 -1250.000000 C 17208.333333 -1242.333333 17188.666667 -1234.666667 17169.000000 -1227.000000 C 17152.333333 -1270.333333 17132.666667 -1318.666667 17110.000000 -1372.000000 C 17087.333333 -1425.333333 17066.000000 -1468.333333 17046.000000 -1501.000000 C 17064.333333 -1508.333333 17082.666667 -1515.666667 17101.000000 -1523.000000z "/>
</g>
<g><path d="M 18659.000000 -1453.000000 C 18675.666667 -1431.666667 18693.333333 -1405.666667 18712.000000 -1375.000000 C 18731.333333 -1344.333333 18750.666667 -1313.000000 18770.000000 -1281.000000 C 18789.333333 -1249.000000 18806.000000 -1218.666667 18820.000000 -1190.000000 C 18802.000000 -1181.333333 18784.000000 -1172.666667 18766.000000 -1164.000000 C 18748.000000 -1202.000000 18723.333333 -1246.666667 18692.000000 -1298.000000 C 18660.666667 -1349.333333 18632.333333 -1392.666667 18607.000000 -1428.000000 C 18624.333333 -1436.333333 18641.666667 -1444.666667 18659.000000 -1453.000000z M 18852.000000 -1521.000000 C 18870.000000 -1497.666667 18889.333333 -1470.333333 18910.000000 -1439.000000 C 18930.666667 -1407.666667 18950.666667 -1376.333333 18970.000000 -1345.000000 C 18990.000000 -1313.666667 19006.666667 -1285.333333 19020.000000 -1260.000000 C 19002.000000 -1251.000000 18984.000000 -1242.000000 18966.000000 -1233.000000 C 18944.000000 -1276.333333 18918.333333 -1322.000000 18889.000000 -1370.000000 C 18859.666667 -1418.000000 18831.000000 -1460.000000 18803.000000 -1496.000000 C 18819.333333 -1504.333333 18835.666667 -1512.666667 18852.000000 -1521.000000z M 17764.000000 -1409.000000 C 17762.666667 -1392.333333 17761.000000 -1376.000000 17759.000000 -1360.000000 C 17757.000000 -1344.000000 17756.000000 -1323.333333 17756.000000 -1298.000000 C 17756.000000 -1284.000000 17756.000000 -1251.333333 17756.000000 -1200.000000 C 17756.000000 -1148.666667 17756.000000 -1086.666667 17756.000000 -1014.000000 C 17756.000000 -942.000000 17756.000000 -865.666667 17756.000000 -785.000000 C 17756.000000 -704.333333 17756.000000 -626.666667 17756.000000 -552.000000 C 17756.000000 -477.333333 17756.000000 -412.000000 17756.000000 -356.000000 C 17756.000000 -300.666667 17756.000000 -261.333333 17756.000000 -238.000000 C 17756.000000 -182.000000 17767.333333 -143.333333 17790.000000 -122.000000 C 17813.333333 -100.666667 17850.000000 -85.000000 17900.000000 -75.000000 C 17932.000000 -69.666667 17974.666667 -65.000000 18028.000000 -61.000000 C 18082.000000 -57.666667 18134.666667 -56.000000 18186.000000 -56.000000 C 18237.333333 -56.000000 18292.000000 -56.666667 18350.000000 -58.000000 C 18408.666667 -60.000000 18467.000000 -63.333333 18525.000000 -68.000000 C 18583.000000 -72.666667 18638.666667 -78.666667 18692.000000 -86.000000 C 18745.333333 -94.000000 18791.666667 -103.000000 18831.000000 -113.000000 C 18831.000000 -89.333333 18831.000000 -65.666667 18831.000000 -42.000000 C 18781.000000 -34.666667 18718.666667 -28.000000 18644.000000 -22.000000 C 18569.333333 -16.000000 18491.666667 -11.000000 18411.000000 -7.000000 C 18330.333333 -3.666667 18255.333333 -2.000000 18186.000000 -2.000000 C 18134.666667 -2.000000 18082.666667 -3.000000 18030.000000 -5.000000 C 17978.000000 -7.000000 17932.666667 -11.000000 17894.000000 -17.000000 C 17830.000000 -29.000000 17781.333333 -49.333333 17748.000000 -78.000000 C 17715.333333 -106.666667 17699.000000 -157.333333 17699.000000 -230.000000 C 17699.000000 -256.000000 17699.000000 -297.333333 17699.000000 -354.000000 C 17699.000000 -411.333333 17699.000000 -478.000000 17699.000000 -554.000000 C 17699.000000 -630.000000 17699.000000 -708.000000 17699.000000 -788.000000 C 17699.000000 -868.000000 17699.000000 -944.000000 17699.000000 -1016.000000 C 17699.000000 -1088.666667 17699.000000 -1150.333333 17699.000000 -1201.000000 C 17699.000000 -1251.666667 17699.000000 -1284.000000 17699.000000 -1298.000000 C 17699.000000 -1314.666667 17698.666667 -1329.000000 17698.000000 -1341.000000 C 17697.333333 -1353.000000 17696.333333 -1364.666667 17695.000000 -1376.000000 C 17693.666667 -1388.000000 17691.666667 -1399.000000 17689.000000 -1409.000000 C 17714.000000 -1409.000000 17739.000000 -1409.000000 17764.000000 -1409.000000z M 17727.000000 -787.000000 C 17781.000000 -798.333333 17842.666667 -813.333333 17912.000000 -832.000000 C 17982.000000 -850.666667 18054.666667 -871.000000 18130.000000 -893.000000 C 18206.000000 -915.666667 18280.333333 -940.000000 18353.000000 -966.000000 C 18426.333333 -992.666667 18493.000000 -1019.333333 18553.000000 -1046.000000 C 18577.000000 -1058.000000 18600.333333 -1070.000000 18623.000000 -1082.000000 C 18645.666667 -1094.000000 18665.333333 -1105.666667 18682.000000 -1117.000000 C 18692.666667 -1095.333333 18703.333333 -1073.666667 18714.000000 -1052.000000 C 18696.000000 -1044.666667 18674.333333 -1035.333333 18649.000000 -1024.000000 C 18624.333333 -1013.333333 18599.333333 -1003.000000 18574.000000 -993.000000 C 18511.333333 -965.666667 18442.000000 -939.000000 18366.000000 -913.000000 C 18290.666667 -887.000000 18214.000000 -861.666667 18136.000000 -837.000000 C 18058.000000 -813.000000 17983.666667 -791.000000 17913.000000 -771.000000 C 17843.000000 -751.000000 17781.000000 -734.000000 17727.000000 -720.000000 C 17727.000000 -742.333333 17727.000000 -764.666667 17727.000000 -787.000000z "/>
</g>
<g><path d="M 19413.000000 -1465.000000 C 19596.000000 -1465.000000 19779.000000 -1465.000000 19962.000000 -1465.000000 C 19962.000000 -1093.666667 19962.000000 -722.333333 19962.000000 -351.000000 C 19779.000000 -351.000000 19596.000000 -351.000000 19413.000000 -351.000000 C 19413.000000 -370.333333 19413.000000 -389.666667 19413.000000 -409.000000 C 19577.666667 -409.000000 19742.333333 -409.000000 19907.000000 -409.000000 C 19907.000000 -741.666667 19907.000000 -1074.333333 19907.000000 -1407.000000 C 19742.333333 -1407.000000 19577.666667 -1407.000000 19413.000000 -1407.000000 C 19413.000000 -1426.333333 19413.000000 -1445.666667 19413.000000 -1465.000000z M 19413.000000 -948.000000 C 19588.333333 -948.000000 19763.666667 -948.000000 19939.000000 -948.000000 C 19939.000000 -929.666667 19939.000000 -911.333333 19939.000000 -893.000000 C 19763.666667 -893.000000 19588.333333 -893.000000 19413.000000 -893.000000 C 19413.000000 -911.333333 19413.000000 -929.666667 19413.000000 -948.000000z M 20216.000000 -1507.000000 C 20450.666667 -1507.000000 20685.333333 -1507.000000 20920.000000 -1507.000000 C 20920.000000 -1488.666667 20920.000000 -1470.333333 20920.000000 -1452.000000 C 20685.333333 -1452.000000 20450.666667 -1452.000000 20216.000000 -1452.000000 C 20216.000000 -1470.333333 20216.000000 -1488.666667 20216.000000 -1507.000000z M 20216.000000 -1033.000000 C 20450.666667 -1033.000000 20685.333333 -1033.000000 20920.000000 -1033.000000 C 20920.000000 -1014.333333 20920.000000 -995.666667 20920.000000 -977.000000 C 20685.333333 -977.000000 20450.666667 -977.000000 20216.000000 -977.000000 C 20216.000000 -995.666667 20216.000000 -1014.333333 20216.000000 -1033.000000z M 20195.000000 -545.000000 C 20435.000000 -545.000000 20675.000000 -545.000000 20915.000000 -545.000000 C 20915.000000 -526.666667 20915.000000 -508.333333 20915.000000 -490.000000 C 20675.000000 -490.000000 20435.000000 -490.000000 20195.000000 -490.000000 C 20195.000000 -508.333333 20195.000000 -526.666667 20195.000000 -545.000000z M 19377.000000 -1465.000000 C 19396.000000 -1465.000000 19415.000000 -1465.000000 19434.000000 -1465.000000 C 19434.000000 -1029.666667 19434.000000 -594.333333 19434.000000 -159.000000 C 19415.000000 -159.000000 19396.000000 -159.000000 19377.000000 -159.000000 C 19377.000000 -594.333333 19377.000000 -1029.666667 19377.000000 -1465.000000z M 20899.000000 -1507.000000 C 20918.333333 -1507.000000 20937.666667 -1507.000000 20957.000000 -1507.000000 C 20957.000000 -998.333333 20957.000000 -489.666667 20957.000000 19.000000 C 20957.000000 49.666667 20951.666667 72.333333 20941.000000 87.000000 C 20931.000000 101.666667 20914.000000 112.333333 20890.000000 119.000000 C 20865.333333 124.333333 20827.333333 127.333333 20776.000000 128.000000 C 20725.333333 128.666667 20657.666667 129.000000 20573.000000 129.000000 C 20571.666667 123.666667 20569.666667 117.333333 20567.000000 110.000000 C 20564.333333 103.333333 20561.333333 96.333333 20558.000000 89.000000 C 20555.333333 82.333333 20552.000000 75.666667 20548.000000 69.000000 C 20596.666667 70.333333 20641.666667 71.000000 20683.000000 71.000000 C 20725.000000 71.000000 20760.666667 70.666667 20790.000000 70.000000 C 20819.333333 69.333333 20839.666667 69.000000 20851.000000 69.000000 C 20869.000000 67.666667 20881.333333 63.333333 20888.000000 56.000000 C 20895.333333 49.333333 20899.000000 37.666667 20899.000000 21.000000 C 20899.000000 -488.333333 20899.000000 -997.666667 20899.000000 -1507.000000z M 20185.000000 -1507.000000 C 20203.666667 -1507.000000 20222.333333 -1507.000000 20241.000000 -1507.000000 C 20241.000000 -1282.333333 20241.000000 -1057.666667 20241.000000 -833.000000 C 20241.000000 -755.000000 20236.666667 -672.666667 20228.000000 -586.000000 C 20220.000000 -500.000000 20203.000000 -413.666667 20177.000000 -327.000000 C 20151.666667 -241.000000 20113.666667 -157.666667 20063.000000 -77.000000 C 20012.333333 3.666667 19944.666667 78.000000 19860.000000 146.000000 C 19858.000000 140.666667 19854.666667 135.333333 19850.000000 130.000000 C 19845.333333 125.333333 19840.333333 120.333333 19835.000000 115.000000 C 19830.333333 110.333333 19826.000000 106.666667 19822.000000 104.000000 C 19904.000000 38.666667 19969.000000 -32.333333 20017.000000 -109.000000 C 20065.000000 -186.333333 20101.000000 -266.000000 20125.000000 -348.000000 C 20149.666667 -430.666667 20165.666667 -513.000000 20173.000000 -595.000000 C 20181.000000 -677.000000 20185.000000 -756.333333 20185.000000 -833.000000 C 20185.000000 -1057.666667 20185.000000 -1282.333333 20185.000000 -1507.000000z "/>
</g>
</svg>
