<?xml version="1.0" encoding="utf-8"?>
<svg xmlns="http://www.w3.org/2000/svg" xmlns:ev="http://www.w3.org/2001/xml-events" xmlns:xlink="http://www.w3.org/1999/xlink" version="1.1" baseProfile="full" width="3557.0" height="1730.0" viewBox="179.0 -1594.0 3557.0 1730.0">
<defs/>
<g><path d="M 361.000000 -430.000000 C 764.666667 -430.000000 1168.333333 -430.000000 1572.000000 -430.000000 C 1572.000000 -410.666667 1572.000000 -391.333333 1572.000000 -372.000000 C 1168.333333 -372.000000 764.666667 -372.000000 361.000000 -372.000000 C 361.000000 -391.333333 361.000000 -410.666667 361.000000 -430.000000z M 367.000000 -664.000000 C 779.666667 -664.000000 1192.333333 -664.000000 1605.000000 -664.000000 C 1605.000000 -488.000000 1605.000000 -312.000000 1605.000000 -136.000000 C 1192.333333 -136.000000 779.666667 -136.000000 367.000000 -136.000000 C 367.000000 -154.666667 367.000000 -173.333333 367.000000 -192.000000 C 761.000000 -192.000000 1155.000000 -192.000000 1549.000000 -192.000000 C 1549.000000 -331.000000 1549.000000 -470.000000 1549.000000 -609.000000 C 1155.000000 -609.000000 761.000000 -609.000000 367.000000 -609.000000 C 367.000000 -627.333333 367.000000 -645.666667 367.000000 -664.000000z M 925.000000 -645.000000 C 944.333333 -645.000000 963.666667 -645.000000 983.000000 -645.000000 C 983.000000 -437.666667 983.000000 -230.333333 983.000000 -23.000000 C 983.000000 6.333333 992.666667 26.000000 1012.000000 36.000000 C 1031.333333 46.666667 1072.333333 52.000000 1135.000000 52.000000 C 1147.666667 52.000000 1169.666667 52.000000 1201.000000 52.000000 C 1232.333333 52.000000 1268.666667 52.000000 1310.000000 52.000000 C 1352.000000 52.000000 1394.000000 52.000000 1436.000000 52.000000 C 1478.666667 52.000000 1517.000000 52.000000 1551.000000 52.000000 C 1585.666667 52.000000 1611.333333 52.000000 1628.000000 52.000000 C 1665.333333 52.000000 1693.000000 45.666667 1711.000000 33.000000 C 1729.000000 21.000000 1741.333333 -3.666667 1748.000000 -41.000000 C 1755.333333 -79.000000 1760.333333 -135.000000 1763.000000 -209.000000 C 1770.333333 -204.333333 1779.333333 -199.666667 1790.000000 -195.000000 C 1801.333333 -190.333333 1811.333333 -186.666667 1820.000000 -184.000000 C 1816.000000 -106.000000 1808.666667 -45.666667 1798.000000 -3.000000 C 1787.333333 39.000000 1769.000000 68.000000 1743.000000 84.000000 C 1717.666667 100.666667 1679.333333 109.000000 1628.000000 109.000000 C 1620.666667 109.000000 1600.333333 109.000000 1567.000000 109.000000 C 1533.666667 109.000000 1494.666667 109.000000 1450.000000 109.000000 C 1406.000000 109.000000 1361.666667 109.000000 1317.000000 109.000000 C 1272.333333 109.000000 1233.666667 109.000000 1201.000000 109.000000 C 1168.333333 109.000000 1148.000000 109.000000 1140.000000 109.000000 C 1085.333333 109.000000 1042.333333 105.666667 1011.000000 99.000000 C 979.666667 93.000000 957.333333 80.000000 944.000000 60.000000 C 931.333333 40.666667 925.000000 12.333333 925.000000 -25.000000 C 925.000000 -231.666667 925.000000 -438.333333 925.000000 -645.000000z M 334.000000 -664.000000 C 352.666667 -664.000000 371.333333 -664.000000 390.000000 -664.000000 C 390.000000 -449.666667 390.000000 -235.333333 390.000000 -21.000000 C 371.333333 -21.000000 352.666667 -21.000000 334.000000 -21.000000 C 334.000000 -235.333333 334.000000 -449.666667 334.000000 -664.000000z M 271.000000 -1500.000000 C 731.666667 -1500.000000 1192.333333 -1500.000000 1653.000000 -1500.000000 C 1653.000000 -1481.333333 1653.000000 -1462.666667 1653.000000 -1444.000000 C 1192.333333 -1444.000000 731.666667 -1444.000000 271.000000 -1444.000000 C 271.000000 -1462.666667 271.000000 -1481.333333 271.000000 -1500.000000z M 363.000000 -1079.000000 C 507.666667 -1079.000000 652.333333 -1079.000000 797.000000 -1079.000000 C 797.000000 -1059.666667 797.000000 -1040.333333 797.000000 -1021.000000 C 652.333333 -1021.000000 507.666667 -1021.000000 363.000000 -1021.000000 C 363.000000 -1040.333333 363.000000 -1059.666667 363.000000 -1079.000000z M 323.000000 -877.000000 C 481.666667 -877.000000 640.333333 -877.000000 799.000000 -877.000000 C 799.000000 -858.000000 799.000000 -839.000000 799.000000 -820.000000 C 640.333333 -820.000000 481.666667 -820.000000 323.000000 -820.000000 C 323.000000 -839.000000 323.000000 -858.000000 323.000000 -877.000000z M 1114.000000 -877.000000 C 1281.000000 -877.000000 1448.000000 -877.000000 1615.000000 -877.000000 C 1615.000000 -858.000000 1615.000000 -839.000000 1615.000000 -820.000000 C 1448.000000 -820.000000 1281.000000 -820.000000 1114.000000 -820.000000 C 1114.000000 -839.000000 1114.000000 -858.000000 1114.000000 -877.000000z M 1114.000000 -1079.000000 C 1264.333333 -1079.000000 1414.666667 -1079.000000 1565.000000 -1079.000000 C 1565.000000 -1059.666667 1565.000000 -1040.333333 1565.000000 -1021.000000 C 1414.666667 -1021.000000 1264.333333 -1021.000000 1114.000000 -1021.000000 C 1114.000000 -1040.333333 1114.000000 -1059.666667 1114.000000 -1079.000000z M 925.000000 -1480.000000 C 944.333333 -1480.000000 963.666667 -1480.000000 983.000000 -1480.000000 C 983.000000 -1234.333333 983.000000 -988.666667 983.000000 -743.000000 C 963.666667 -743.000000 944.333333 -743.000000 925.000000 -743.000000 C 925.000000 -988.666667 925.000000 -1234.333333 925.000000 -1480.000000z M 179.000000 -1281.000000 C 700.333333 -1281.000000 1221.666667 -1281.000000 1743.000000 -1281.000000 C 1743.000000 -1162.000000 1743.000000 -1043.000000 1743.000000 -924.000000 C 1724.000000 -924.000000 1705.000000 -924.000000 1686.000000 -924.000000 C 1686.000000 -1023.666667 1686.000000 -1123.333333 1686.000000 -1223.000000 C 1202.666667 -1223.000000 719.333333 -1223.000000 236.000000 -1223.000000 C 236.000000 -1123.333333 236.000000 -1023.666667 236.000000 -924.000000 C 217.000000 -924.000000 198.000000 -924.000000 179.000000 -924.000000 C 179.000000 -1043.000000 179.000000 -1162.000000 179.000000 -1281.000000z "/>
</g>
<g><path d="M 2367.000000 -1373.000000 C 2808.000000 -1373.000000 3249.000000 -1373.000000 3690.000000 -1373.000000 C 3690.000000 -1353.666667 3690.000000 -1334.333333 3690.000000 -1315.000000 C 3249.000000 -1315.000000 2808.000000 -1315.000000 2367.000000 -1315.000000 C 2367.000000 -1334.333333 2367.000000 -1353.666667 2367.000000 -1373.000000z M 2388.000000 -1104.000000 C 2758.000000 -1104.000000 3128.000000 -1104.000000 3498.000000 -1104.000000 C 3498.000000 -1085.333333 3498.000000 -1066.666667 3498.000000 -1048.000000 C 3128.000000 -1048.000000 2758.000000 -1048.000000 2388.000000 -1048.000000 C 2388.000000 -1066.666667 2388.000000 -1085.333333 2388.000000 -1104.000000z M 2175.000000 -837.000000 C 2577.000000 -837.000000 2979.000000 -837.000000 3381.000000 -837.000000 C 3381.000000 -818.333333 3381.000000 -799.666667 3381.000000 -781.000000 C 2979.000000 -781.000000 2577.000000 -781.000000 2175.000000 -781.000000 C 2175.000000 -799.666667 2175.000000 -818.333333 2175.000000 -837.000000z M 2440.000000 -1594.000000 C 2460.000000 -1589.333333 2480.000000 -1584.666667 2500.000000 -1580.000000 C 2452.666667 -1436.666667 2392.000000 -1303.666667 2318.000000 -1181.000000 C 2244.666667 -1059.000000 2163.333333 -955.333333 2074.000000 -870.000000 C 2071.333333 -874.000000 2066.666667 -878.333333 2060.000000 -883.000000 C 2054.000000 -888.333333 2047.333333 -893.333333 2040.000000 -898.000000 C 2032.666667 -903.333333 2026.666667 -907.333333 2022.000000 -910.000000 C 2112.666667 -992.000000 2194.000000 -1092.333333 2266.000000 -1211.000000 C 2338.666667 -1330.333333 2396.666667 -1458.000000 2440.000000 -1594.000000z M 2995.000000 -724.000000 C 3012.333333 -717.666667 3029.666667 -711.333333 3047.000000 -705.000000 C 2975.666667 -581.666667 2890.000000 -467.666667 2790.000000 -363.000000 C 2690.000000 -259.000000 2581.666667 -165.333333 2465.000000 -82.000000 C 2349.000000 0.666667 2227.333333 73.333333 2100.000000 136.000000 C 2098.000000 132.666667 2094.333333 128.000000 2089.000000 122.000000 C 2083.666667 116.000000 2078.000000 110.333333 2072.000000 105.000000 C 2066.666667 100.333333 2061.333333 96.000000 2056.000000 92.000000 C 2184.000000 33.333333 2306.666667 -36.666667 2424.000000 -118.000000 C 2541.333333 -199.333333 2648.666667 -291.000000 2746.000000 -393.000000 C 2844.000000 -495.666667 2927.000000 -606.000000 2995.000000 -724.000000z M 3350.000000 -837.000000 C 3368.666667 -837.000000 3387.333333 -837.000000 3406.000000 -837.000000 C 3408.666667 -703.666667 3412.666667 -581.000000 3418.000000 -469.000000 C 3424.000000 -357.000000 3434.666667 -260.000000 3450.000000 -178.000000 C 3465.333333 -96.666667 3487.000000 -33.333333 3515.000000 12.000000 C 3543.666667 58.000000 3580.333333 81.000000 3625.000000 81.000000 C 3648.333333 81.000000 3663.666667 54.333333 3671.000000 1.000000 C 3679.000000 -52.333333 3683.333333 -121.666667 3684.000000 -207.000000 C 3690.666667 -202.333333 3699.333333 -197.666667 3710.000000 -193.000000 C 3721.333333 -188.333333 3730.000000 -184.666667 3736.000000 -182.000000 C 3733.333333 -101.333333 3728.333333 -38.000000 3721.000000 8.000000 C 3714.333333 54.000000 3703.333333 86.000000 3688.000000 104.000000 C 3672.666667 122.666667 3650.333333 132.666667 3621.000000 134.000000 C 3563.666667 134.000000 3517.333333 111.666667 3482.000000 67.000000 C 3446.666667 22.333333 3420.000000 -42.000000 3402.000000 -126.000000 C 3384.000000 -210.000000 3371.333333 -311.666667 3364.000000 -431.000000 C 3357.333333 -551.000000 3352.666667 -686.333333 3350.000000 -837.000000z M 2266.000000 -593.000000 C 2279.333333 -604.666667 2292.666667 -616.333333 2306.000000 -628.000000 C 2385.333333 -584.666667 2465.333333 -536.000000 2546.000000 -482.000000 C 2626.666667 -428.000000 2704.666667 -372.333333 2780.000000 -315.000000 C 2855.333333 -258.333333 2924.666667 -201.666667 2988.000000 -145.000000 C 3052.000000 -89.000000 3105.000000 -36.333333 3147.000000 13.000000 C 3132.333333 26.666667 3117.666667 40.333333 3103.000000 54.000000 C 3060.333333 4.000000 3007.666667 -49.000000 2945.000000 -105.000000 C 2882.333333 -161.666667 2813.333333 -219.000000 2738.000000 -277.000000 C 2662.666667 -335.666667 2584.666667 -392.000000 2504.000000 -446.000000 C 2423.333333 -500.666667 2344.000000 -549.666667 2266.000000 -593.000000z "/>
</g>
</svg>
