<?xml version="1.0" ?>
<svg xmlns="http://www.w3.org/2000/svg" version="1.1" width="600" height="600">
  <defs/>
  <g>
    <path stroke-width="0" fill="rgb(0, 0, 0)" opacity="1.0" d="M 135.32562255859375 296.1258544921875 C 135.76730346679688 295.8465576171875 136.20370483398438 295.5465087890625 136.63482666015625 295.225830078125 C 137.07650756835938 294.9051513671875 137.41827392578125 294.64654541015625 137.66012573242188 294.45001220703125 C 137.20794677734375 294.03619384765625 136.5875244140625 293.5810546875 135.798828125 293.08447265625 C 135.02069091796875 292.587890625 134.17941284179688 292.1016845703125 133.27508544921875 291.6258544921875 C 132.3812255859375 291.1500244140625 131.53997802734375 290.74139404296875 130.75131225585938 290.4000244140625 C 130.93533325195312 290.17242431640625 131.11935424804688 289.94482421875 131.30337524414062 289.71728515625 C 132.02896118164062 290.0379638671875 132.84393310546875 290.446533203125 133.748291015625 290.943115234375 C 134.65261840820312 291.439697265625 135.53594970703125 291.95172119140625 136.39822387695312 292.47930908203125 C 137.26052856445312 292.99658203125 137.94403076171875 293.4827880859375 138.44879150390625 293.93792724609375 C 138.52767944335938 294.18621826171875 138.60653686523438 294.4344482421875 138.68539428710938 294.6827392578125 C 138.52767944335938 294.82757568359375 138.33837890625 294.9827880859375 138.1175537109375 295.1483154296875 C 137.9072265625 295.303466796875 137.68115234375 295.468994140625 137.43930053710938 295.64483642578125 C 137.19741821289062 295.8206787109375 136.9503173828125 296.00689697265625 136.69793701171875 296.2034912109375 C 136.445556640625 296.3896484375 136.18792724609375 296.5706787109375 135.92501831054688 296.74658203125 C 135.7252197265625 296.5396728515625 135.52542114257812 296.332763671875 135.32562255859375 296.1258544921875M 128.77960205078125 310.836181640625 C 129.48416137695312 311.03271484375 130.22024536132812 311.193115234375 130.9879150390625 311.3172607421875 C 131.75555419921875 311.4310302734375 132.72824096679688 311.4879150390625 133.906005859375 311.4879150390625 C 134.32662963867188 311.4879150390625 134.81036376953125 311.41033935546875 135.357177734375 311.255126953125 C 135.90399169921875 311.0999755859375 136.38247680664062 310.79998779296875 136.79257202148438 310.35516357421875 C 137.20269775390625 309.9000244140625 137.40774536132812 309.2689208984375 137.40774536132812 308.4620361328125 C 137.40774536132812 307.9034423828125 137.28155517578125 307.3240966796875 137.0291748046875 306.72412109375 C 136.77679443359375 306.11376953125 136.4403076171875 305.50341796875 136.01968383789062 304.89306640625 C 135.59906005859375 304.27239990234375 135.1363525390625 303.6568603515625 134.631591796875 303.0465087890625 C 134.1268310546875 302.4259033203125 133.62210083007812 301.82586669921875 133.11734008789062 301.24658203125 C 132.83340454101562 300.9051513671875 132.50216674804688 300.54827880859375 132.12359619140625 300.1759033203125 C 131.75555419921875 299.7930908203125 131.39801025390625 299.43621826171875 131.05099487304688 299.10516357421875 C 131.26132202148438 298.89306640625 131.47161865234375 298.6810302734375 131.68194580078125 298.468994140625 C 131.96588134765625 298.7896728515625 132.28659057617188 299.1517333984375 132.64413452148438 299.55517578125 C 133.00167846679688 299.9482421875 133.33816528320312 300.3206787109375 133.65362548828125 300.67242431640625 C 134.46334838867188 301.5517578125 135.22048950195312 302.4310302734375 135.92501831054688 303.310302734375 C 136.62957763671875 304.1793212890625 137.19741821289062 305.053466796875 137.62857055664062 305.9327392578125 C 138.07022094726562 306.8017578125 138.29107666015625 307.670654296875 138.29107666015625 308.5396728515625 C 138.29107666015625 309.3775634765625 138.122802734375 310.04998779296875 137.78631591796875 310.556884765625 C 137.4603271484375 311.06378173828125 137.05548095703125 311.44140625 136.57174682617188 311.689697265625 C 136.0880126953125 311.93792724609375 135.59378051757812 312.10345458984375 135.08901977539062 312.18621826171875 C 134.59478759765625 312.279296875 134.200439453125 312.32586669921875 133.906005859375 312.32586669921875 C 132.8123779296875 312.32586669921875 131.8607177734375 312.274169921875 131.05099487304688 312.170654296875 C 130.24130249023438 312.07757568359375 129.52621459960938 311.968994140625 128.90579223632812 311.8448486328125 C 128.86373901367188 311.50860595703125 128.8216552734375 311.17242431640625 128.77960205078125 310.836181640625M 146.95074462890625 310.774169921875 C 146.70889282226562 310.1016845703125 146.3934326171875 309.362060546875 146.00433349609375 308.55517578125 C 145.62576293945312 307.7379150390625 145.19989013671875 306.91033935546875 144.7266845703125 306.0723876953125 C 144.25347900390625 305.2344970703125 143.75396728515625 304.443115234375 143.22817993164062 303.6982421875 C 142.702392578125 302.9534912109375 142.16610717773438 302.31207275390625 141.61929321289062 301.774169921875 C 141.85064697265625 301.61895751953125 142.08197021484375 301.46380615234375 142.31332397460938 301.30859375 C 142.88116455078125 301.939697265625 143.43850708007812 302.64306640625 143.98532104492188 303.4189453125 C 144.53213500976562 304.19482421875 145.04739379882812 304.99658203125 145.5311279296875 305.8240966796875 C 146.01486206054688 306.641357421875 146.44598388671875 307.43792724609375 146.82455444335938 308.21380615234375 C 147.21365356445312 308.9896240234375 147.52911376953125 309.68792724609375 147.77096557617188 310.30859375 C 147.49755859375 310.46380615234375 147.22415161132812 310.61895751953125 146.95074462890625 310.774169921875M 129.00042724609375 304.8155517578125 C 128.39053344726562 305.41552734375 127.649169921875 306.082763671875 126.7763671875 306.8172607421875 C 125.9140625 307.5517578125 124.99920654296875 308.2655029296875 124.03176879882812 308.9586181640625 C 123.0643310546875 309.6517333984375 122.1336669921875 310.24658203125 121.23983764648438 310.74310302734375 C 121.05056762695312 310.494873046875 120.86126708984375 310.24658203125 120.6719970703125 309.998291015625 C 121.27139282226562 309.68792724609375 121.93386840820312 309.2947998046875 122.65945434570312 308.8189697265625 C 123.38504028320312 308.332763671875 124.11062622070312 307.8206787109375 124.83621215820312 307.28271484375 C 125.57232666015625 306.7344970703125 126.25582885742188 306.18621826171875 126.88677978515625 305.637939453125 C 127.52822875976562 305.08966064453125 128.04876708984375 304.5982666015625 128.4483642578125 304.163818359375 C 128.63238525390625 304.38104248046875 128.81640625 304.5982666015625 129.00042724609375 304.8155517578125"/>
    <path stroke-width="0" fill="rgb(0, 0, 0)" opacity="1.0" d="M 165.78439331054688 311.41033935546875 C 165.82644653320312 311.22412109375 165.86325073242188 311.03271484375 165.89480590820312 310.836181640625 C 165.92633056640625 310.6396484375 165.94210815429688 310.443115234375 165.94210815429688 310.24658203125 C 165.94210815429688 310.0810546875 165.94210815429688 309.6517333984375 165.94210815429688 308.9586181640625 C 165.94210815429688 308.2655029296875 165.94210815429688 307.39654541015625 165.94210815429688 306.3516845703125 C 165.94210815429688 305.306884765625 165.94210815429688 304.1793212890625 165.94210815429688 302.968994140625 C 165.94210815429688 301.75860595703125 165.94210815429688 300.5430908203125 165.94210815429688 299.3223876953125 C 165.94210815429688 298.1016845703125 165.94210815429688 296.968994140625 165.94210815429688 295.92413330078125 C 165.94210815429688 294.8792724609375 165.94210815429688 294.0 165.94210815429688 293.28619384765625 C 165.94210815429688 292.5723876953125 165.94210815429688 292.11724853515625 165.94210815429688 291.920654296875 C 165.94210815429688 291.46551513671875 165.93161010742188 291.0931396484375 165.91058349609375 290.803466796875 C 165.8895263671875 290.5137939453125 165.86849975585938 290.27069091796875 165.84747314453125 290.0740966796875 C 166.21026611328125 290.0740966796875 166.57305908203125 290.0740966796875 166.93585205078125 290.0740966796875 C 166.91482543945312 290.27069091796875 166.8990478515625 290.5137939453125 166.88851928710938 290.803466796875 C 166.88851928710938 291.0931396484375 166.88851928710938 291.46551513671875 166.88851928710938 291.920654296875 C 166.88851928710938 292.11724853515625 166.88851928710938 292.5982666015625 166.88851928710938 293.36376953125 C 166.88851928710938 294.1292724609375 166.88851928710938 295.0810546875 166.88851928710938 296.218994140625 C 166.88851928710938 297.3465576171875 166.88851928710938 298.5672607421875 166.88851928710938 299.88104248046875 C 166.88851928710938 301.1844482421875 166.88851928710938 302.472412109375 166.88851928710938 303.74481201171875 C 166.88851928710938 305.0172119140625 166.88851928710938 306.1810302734375 166.88851928710938 307.2362060546875 C 166.88851928710938 308.2913818359375 166.88851928710938 309.134521484375 166.88851928710938 309.7655029296875 C 166.88851928710938 310.39654541015625 166.88851928710938 310.7120361328125 166.88851928710938 310.7120361328125 C 167.92959594726562 310.21551513671875 169.0758056640625 309.56378173828125 170.32717895507812 308.75689697265625 C 171.57852172851562 307.939697265625 172.79837036132812 306.9879150390625 173.98663330078125 305.9017333984375 C 175.1854248046875 304.80517578125 176.210693359375 303.6207275390625 177.06246948242188 302.3482666015625 C 177.25177001953125 302.60693359375 177.4410400390625 302.865478515625 177.63031005859375 303.1241455078125 C 176.72598266601562 304.3758544921875 175.6954345703125 305.529296875 174.5386962890625 306.58447265625 C 173.39248657226562 307.6292724609375 172.19369506835938 308.5655517578125 170.94232177734375 309.39306640625 C 169.69097900390625 310.220703125 168.46063232421875 310.9189453125 167.25131225585938 311.4879150390625 C 167.06204223632812 311.5706787109375 166.8990478515625 311.65863037109375 166.7623291015625 311.751708984375 C 166.63616943359375 311.83447265625 166.5362548828125 311.9068603515625 166.462646484375 311.968994140625 C 166.236572265625 311.78271484375 166.01046752929688 311.5965576171875 165.78439331054688 311.41033935546875M 152.0771484375 311.54998779296875 C 153.28646850585938 310.6810302734375 154.35906982421875 309.615478515625 155.29495239257812 308.35345458984375 C 156.23086547851562 307.09136962890625 156.951171875 305.6534423828125 157.4559326171875 304.0396728515625 C 157.68728637695312 303.30517578125 157.86605834960938 302.41033935546875 157.99224853515625 301.35516357421875 C 158.11843872070312 300.2896728515625 158.20782470703125 299.17242431640625 158.2603759765625 298.00341796875 C 158.31295776367188 296.8240966796875 158.34451293945312 295.696533203125 158.35504150390625 294.6207275390625 C 158.36553955078125 293.53448486328125 158.37081909179688 292.60345458984375 158.37081909179688 291.82757568359375 C 158.37081909179688 291.54827880859375 158.36029052734375 291.279296875 158.33926391601562 291.02069091796875 C 158.3182373046875 290.7620849609375 158.28668212890625 290.50341796875 158.24462890625 290.24481201171875 C 158.617919921875 290.24481201171875 158.99124145507812 290.24481201171875 159.36453247070312 290.24481201171875 C 159.343505859375 290.4310302734375 159.32772827148438 290.612060546875 159.31723022460938 290.7879638671875 C 159.31723022460938 290.96380615234375 159.31195068359375 291.1396484375 159.30145263671875 291.3155517578125 C 159.29092407226562 291.48101806640625 159.28567504882812 291.6517333984375 159.28567504882812 291.82757568359375 C 159.28567504882812 292.60345458984375 159.275146484375 293.5447998046875 159.25411987304688 294.6517333984375 C 159.23309326171875 295.748291015625 159.185791015625 296.9068603515625 159.11215209960938 298.1275634765625 C 159.03854370117188 299.3482666015625 158.93865966796875 300.50689697265625 158.81246948242188 301.60345458984375 C 158.69680786132812 302.70001220703125 158.52853393554688 303.615478515625 158.30770874023438 304.3499755859375 C 157.86605834960938 305.8499755859375 157.17202758789062 307.2879638671875 156.22561645507812 308.663818359375 C 155.28970336914062 310.029296875 154.19607543945312 311.193115234375 152.9447021484375 312.1551513671875 C 152.655517578125 311.9534912109375 152.3663330078125 311.751708984375 152.0771484375 311.54998779296875"/>
    <path stroke-width="0" fill="rgb(0, 0, 0)" opacity="1.0" d="M 202.31594848632812 288.72412109375 C 202.578857421875 289.0655517578125 202.85751342773438 289.47412109375 203.15194702148438 289.95001220703125 C 203.4569091796875 290.4259033203125 203.7618408203125 290.912109375 204.06680297851562 291.40863037109375 C 204.37176513671875 291.9051513671875 204.6346435546875 292.3758544921875 204.85549926757812 292.8206787109375 C 204.57156372070312 292.9552001953125 204.28765869140625 293.08966064453125 204.00372314453125 293.22412109375 C 203.73031616210938 292.634521484375 203.34124755859375 291.94140625 202.83648681640625 291.14483642578125 C 202.34222412109375 290.3482666015625 201.89532470703125 289.670654296875 201.4957275390625 289.112060546875 C 201.76913452148438 288.9827880859375 202.04254150390625 288.85345458984375 202.31594848632812 288.72412109375M 205.37603759765625 287.6844482421875 C 205.65994262695312 288.0465087890625 205.95965576171875 288.470703125 206.27511596679688 288.9569091796875 C 206.60110473632812 289.443115234375 206.92181396484375 289.9293212890625 207.2373046875 290.41552734375 C 207.55276489257812 290.9017333984375 207.8104248046875 291.34136962890625 208.01019287109375 291.7344970703125 C 207.72628784179688 291.8741455078125 207.44235229492188 292.0137939453125 207.158447265625 292.1534423828125 C 206.8114013671875 291.48101806640625 206.40655517578125 290.77239990234375 205.94387817382812 290.027587890625 C 205.48117065429688 289.28271484375 205.02899169921875 288.63104248046875 204.58734130859375 288.0723876953125 C 204.8502197265625 287.943115234375 205.11312866210938 287.81378173828125 205.37603759765625 287.6844482421875M 203.609375 294.031005859375 C 203.5357666015625 294.1759033203125 203.462158203125 294.362060546875 203.3885498046875 294.58966064453125 C 203.31494140625 294.8172607421875 203.26235961914062 294.97760009765625 203.23080444335938 295.0706787109375 C 202.96792602539062 296.18792724609375 202.57357788085938 297.362060546875 202.04779052734375 298.5931396484375 C 201.52200317382812 299.8240966796875 200.89633178710938 301.0447998046875 200.17074584960938 302.25518798828125 C 199.4556884765625 303.46551513671875 198.656494140625 304.5982666015625 197.77316284179688 305.6534423828125 C 196.45867919921875 307.225830078125 194.84979248046875 308.6793212890625 192.94647216796875 310.0137939453125 C 191.05361938476562 311.337890625 188.69287109375 312.4862060546875 185.8641357421875 313.4586181640625 C 185.59597778320312 313.20001220703125 185.32781982421875 312.94140625 185.05966186523438 312.6827392578125 C 186.71063232421875 312.22760009765625 188.26171875 311.6224365234375 189.712890625 310.86724853515625 C 191.16403198242188 310.112060546875 192.51007080078125 309.248291015625 193.75091552734375 308.27587890625 C 195.00225830078125 307.303466796875 196.10116577148438 306.248291015625 197.04757690429688 305.1103515625 C 197.930908203125 304.0655517578125 198.724853515625 302.93792724609375 199.42938232421875 301.72760009765625 C 200.14447021484375 300.50689697265625 200.7596435546875 299.28619384765625 201.27490234375 298.0655517578125 C 201.7901611328125 296.8448486328125 202.16873168945312 295.70172119140625 202.41058349609375 294.63623046875 C 198.33050537109375 294.63623046875 194.25039672851562 294.63623046875 190.1702880859375 294.63623046875 C 190.35433959960938 294.336181640625 190.53836059570312 294.03619384765625 190.72238159179688 293.7362060546875 C 190.94320678710938 293.7362060546875 191.41641235351562 293.7362060546875 192.14199829101562 293.7362060546875 C 192.86758422851562 293.7362060546875 193.7088623046875 293.7362060546875 194.665771484375 293.7362060546875 C 195.6226806640625 293.7362060546875 196.57965087890625 293.7362060546875 197.53656005859375 293.7362060546875 C 198.50399780273438 293.7362060546875 199.33999633789062 293.7362060546875 200.0445556640625 293.7362060546875 C 200.74911499023438 293.7362060546875 201.19076538085938 293.7362060546875 201.36953735351562 293.7362060546875 C 201.716552734375 293.7362060546875 201.98995971679688 293.720703125 202.18975830078125 293.689697265625 C 202.38955688476562 293.65863037109375 202.56304931640625 293.60693359375 202.71029663085938 293.53448486328125 C 203.00997924804688 293.70001220703125 203.3096923828125 293.865478515625 203.609375 294.031005859375M 193.19882202148438 289.748291015625 C 193.0621337890625 290.00689697265625 192.920166015625 290.28619384765625 192.77294921875 290.586181640625 C 192.63623046875 290.8758544921875 192.50479125976562 291.1396484375 192.37860107421875 291.3775634765625 C 191.87384033203125 292.3707275390625 191.21136474609375 293.4827880859375 190.39114379882812 294.71380615234375 C 189.5814208984375 295.94482421875 188.5509033203125 297.196533203125 187.29949951171875 298.468994140625 C 186.05865478515625 299.74139404296875 184.54440307617188 300.9569091796875 182.75674438476562 302.115478515625 C 182.48333740234375 301.913818359375 182.20989990234375 301.7120361328125 181.9365234375 301.5103759765625 C 183.22994995117188 300.77587890625 184.39718627929688 299.9482421875 185.438232421875 299.027587890625 C 186.48980712890625 298.10693359375 187.42044067382812 297.16033935546875 188.23016357421875 296.18792724609375 C 189.03985595703125 295.2052001953125 189.723388671875 294.2637939453125 190.28073120117188 293.36376953125 C 190.83807373046875 292.46380615234375 191.25341796875 291.662109375 191.52682495117188 290.9586181640625 C 191.6109619140625 290.803466796875 191.70559692382812 290.5655517578125 191.81076049804688 290.24481201171875 C 191.92642211914062 289.913818359375 192.00531005859375 289.61895751953125 192.04736328125 289.3603515625 C 192.43118286132812 289.4896240234375 192.81500244140625 289.61895751953125 193.19882202148438 289.748291015625"/>
    <path stroke-width="0" fill="rgb(0, 0, 0)" opacity="1.0" d="M 226.3548583984375 311.41033935546875 C 226.39691162109375 311.22412109375 226.4337158203125 311.03271484375 226.46527099609375 310.836181640625 C 226.496826171875 310.6396484375 226.5125732421875 310.443115234375 226.5125732421875 310.24658203125 C 226.5125732421875 310.0810546875 226.5125732421875 309.6517333984375 226.5125732421875 308.9586181640625 C 226.5125732421875 308.2655029296875 226.5125732421875 307.39654541015625 226.5125732421875 306.3516845703125 C 226.5125732421875 305.306884765625 226.5125732421875 304.1793212890625 226.5125732421875 302.968994140625 C 226.5125732421875 301.75860595703125 226.5125732421875 300.5430908203125 226.5125732421875 299.3223876953125 C 226.5125732421875 298.1016845703125 226.5125732421875 296.968994140625 226.5125732421875 295.92413330078125 C 226.5125732421875 294.8792724609375 226.5125732421875 294.0 226.5125732421875 293.28619384765625 C 226.5125732421875 292.5723876953125 226.5125732421875 292.11724853515625 226.5125732421875 291.920654296875 C 226.5125732421875 291.46551513671875 226.5020751953125 291.0931396484375 226.48104858398438 290.803466796875 C 226.46002197265625 290.5137939453125 226.43896484375 290.27069091796875 226.41793823242188 290.0740966796875 C 226.78073120117188 290.0740966796875 227.14352416992188 290.0740966796875 227.50631713867188 290.0740966796875 C 227.48529052734375 290.27069091796875 227.46951293945312 290.5137939453125 227.45901489257812 290.803466796875 C 227.45901489257812 291.0931396484375 227.45901489257812 291.46551513671875 227.45901489257812 291.920654296875 C 227.45901489257812 292.11724853515625 227.45901489257812 292.5982666015625 227.45901489257812 293.36376953125 C 227.45901489257812 294.1292724609375 227.45901489257812 295.0810546875 227.45901489257812 296.218994140625 C 227.45901489257812 297.3465576171875 227.45901489257812 298.5672607421875 227.45901489257812 299.88104248046875 C 227.45901489257812 301.1844482421875 227.45901489257812 302.472412109375 227.45901489257812 303.74481201171875 C 227.45901489257812 305.0172119140625 227.45901489257812 306.1810302734375 227.45901489257812 307.2362060546875 C 227.45901489257812 308.2913818359375 227.45901489257812 309.134521484375 227.45901489257812 309.7655029296875 C 227.45901489257812 310.39654541015625 227.45901489257812 310.7120361328125 227.45901489257812 310.7120361328125 C 228.50006103515625 310.21551513671875 229.64627075195312 309.56378173828125 230.89764404296875 308.75689697265625 C 232.14901733398438 307.939697265625 233.36883544921875 306.9879150390625 234.55709838867188 305.9017333984375 C 235.75588989257812 304.80517578125 236.78118896484375 303.6207275390625 237.6329345703125 302.3482666015625 C 237.82223510742188 302.60693359375 238.01153564453125 302.865478515625 238.2008056640625 303.1241455078125 C 237.29644775390625 304.3758544921875 236.26593017578125 305.529296875 235.10919189453125 306.58447265625 C 233.96298217773438 307.6292724609375 232.76419067382812 308.5655517578125 231.5128173828125 309.39306640625 C 230.26144409179688 310.220703125 229.03109741210938 310.9189453125 227.82177734375 311.4879150390625 C 227.63250732421875 311.5706787109375 227.46951293945312 311.65863037109375 227.33282470703125 311.751708984375 C 227.20663452148438 311.83447265625 227.10671997070312 311.9068603515625 227.03311157226562 311.968994140625 C 226.80703735351562 311.78271484375 226.5809326171875 311.5965576171875 226.3548583984375 311.41033935546875M 212.64764404296875 311.54998779296875 C 213.85693359375 310.6810302734375 214.92953491210938 309.615478515625 215.86544799804688 308.35345458984375 C 216.80133056640625 307.09136962890625 217.52166748046875 305.6534423828125 218.02642822265625 304.0396728515625 C 218.25775146484375 303.30517578125 218.4365234375 302.41033935546875 218.56271362304688 301.35516357421875 C 218.68890380859375 300.2896728515625 218.77828979492188 299.17242431640625 218.83087158203125 298.00341796875 C 218.88345336914062 296.8240966796875 218.91497802734375 295.696533203125 218.92550659179688 294.6207275390625 C 218.93603515625 293.53448486328125 218.9412841796875 292.60345458984375 218.9412841796875 291.82757568359375 C 218.9412841796875 291.54827880859375 218.9307861328125 291.279296875 218.90972900390625 291.02069091796875 C 218.88870239257812 290.7620849609375 218.85714721679688 290.50341796875 218.81509399414062 290.24481201171875 C 219.18841552734375 290.24481201171875 219.56170654296875 290.24481201171875 219.93499755859375 290.24481201171875 C 219.91397094726562 290.4310302734375 219.898193359375 290.612060546875 219.8876953125 290.7879638671875 C 219.8876953125 290.96380615234375 219.8824462890625 291.1396484375 219.87191772460938 291.3155517578125 C 219.86141967773438 291.48101806640625 219.85614013671875 291.6517333984375 219.85614013671875 291.82757568359375 C 219.85614013671875 292.60345458984375 219.84564208984375 293.5447998046875 219.8245849609375 294.6517333984375 C 219.80355834960938 295.748291015625 219.75625610351562 296.9068603515625 219.68264770507812 298.1275634765625 C 219.60903930664062 299.3482666015625 219.50912475585938 300.50689697265625 219.3829345703125 301.60345458984375 C 219.26727294921875 302.70001220703125 219.0989990234375 303.615478515625 218.878173828125 304.3499755859375 C 218.4365234375 305.8499755859375 217.74249267578125 307.2879638671875 216.79608154296875 308.663818359375 C 215.86016845703125 310.029296875 214.76654052734375 311.193115234375 213.51516723632812 312.1551513671875 C 213.22598266601562 311.9534912109375 212.93682861328125 311.751708984375 212.64764404296875 311.54998779296875"/>
    <path stroke-width="0" fill="rgb(0, 0, 0)" opacity="1.0" d="M 264.5741882324219 291.0517578125 C 264.5741882324219 291.67242431640625 264.7897644042969 292.19482421875 265.22088623046875 292.61895751953125 C 265.6625671386719 293.0430908203125 266.1988525390625 293.25518798828125 266.829833984375 293.25518798828125 C 267.45025634765625 293.25518798828125 267.98126220703125 293.0430908203125 268.4229431152344 292.61895751953125 C 268.8751220703125 292.19482421875 269.1011962890625 291.67242431640625 269.1011962890625 291.0517578125 C 269.1011962890625 290.44140625 268.8751220703125 289.9189453125 268.4229431152344 289.4844970703125 C 267.98126220703125 289.0396728515625 267.45025634765625 288.8172607421875 266.829833984375 288.8172607421875 C 266.1988525390625 288.8172607421875 265.6625671386719 289.0396728515625 265.22088623046875 289.4844970703125 C 264.7897644042969 289.9189453125 264.5741882324219 290.44140625 264.5741882324219 291.0517578125M 263.67510986328125 291.0517578125 C 263.67510986328125 290.4827880859375 263.81707763671875 289.9603271484375 264.1009826660156 289.4844970703125 C 264.3848876953125 288.998291015625 264.76348876953125 288.6207275390625 265.2366943359375 288.3516845703125 C 265.70989990234375 288.0723876953125 266.2409362792969 287.9327392578125 266.829833984375 287.9327392578125 C 267.408203125 287.9327392578125 267.939208984375 288.0723876953125 268.4229431152344 288.3516845703125 C 268.90667724609375 288.6207275390625 269.29046630859375 288.998291015625 269.57440185546875 289.4844970703125 C 269.85833740234375 289.9603271484375 270.00030517578125 290.4827880859375 270.00030517578125 291.0517578125 C 270.00030517578125 291.63104248046875 269.85833740234375 292.1534423828125 269.57440185546875 292.61895751953125 C 269.29046630859375 293.08447265625 268.90667724609375 293.4569091796875 268.4229431152344 293.7362060546875 C 267.939208984375 294.0155029296875 267.408203125 294.1551513671875 266.829833984375 294.1551513671875 C 266.2409362792969 294.1551513671875 265.70989990234375 294.0155029296875 265.2366943359375 293.7362060546875 C 264.76348876953125 293.4569091796875 264.3848876953125 293.08447265625 264.1009826660156 292.61895751953125 C 263.81707763671875 292.1534423828125 263.67510986328125 291.63104248046875 263.67510986328125 291.0517578125M 265.25244140625 292.696533203125 C 265.1893615722656 292.8310546875 265.14202880859375 292.95001220703125 265.1104736328125 293.053466796875 C 265.0789489746094 293.14654541015625 265.0421447753906 293.332763671875 265.00006103515625 293.612060546875 C 264.8633728027344 294.45001220703125 264.6583251953125 295.365478515625 264.3848876953125 296.358642578125 C 264.11151123046875 297.3516845703125 263.7802734375 298.3603515625 263.39117431640625 299.384521484375 C 263.0126037597656 300.40863037109375 262.58148193359375 301.38104248046875 262.0977478027344 302.3017578125 C 261.614013671875 303.222412109375 261.0882568359375 304.03448486328125 260.5203857421875 304.7379150390625 C 259.5950012207031 305.865478515625 258.59600830078125 306.9051513671875 257.5234069824219 307.85693359375 C 256.4508056640625 308.80859375 255.2099609375 309.667236328125 253.80084228515625 310.4327392578125 C 252.40225219726562 311.1982421875 250.75656127929688 311.8707275390625 248.86370849609375 312.45001220703125 C 248.59033203125 312.1500244140625 248.31689453125 311.8499755859375 248.04351806640625 311.54998779296875 C 249.9678955078125 311.03271484375 251.639892578125 310.417236328125 253.05950927734375 309.7034912109375 C 254.4791259765625 308.9896240234375 255.74099731445312 308.17242431640625 256.84515380859375 307.251708984375 C 257.94927978515625 306.3206787109375 258.9324951171875 305.3017578125 259.7947998046875 304.19482421875 C 260.56243896484375 303.222412109375 261.24072265625 302.079345703125 261.82958984375 300.7655029296875 C 262.4289855957031 299.45172119140625 262.9284973144531 298.1275634765625 263.32806396484375 296.7930908203125 C 263.7381896972656 295.4482421875 264.016845703125 294.248291015625 264.1640625 293.193115234375 C 263.8801574707031 293.193115234375 263.3017883300781 293.193115234375 262.4289855957031 293.193115234375 C 261.56671142578125 293.193115234375 260.5309143066406 293.193115234375 259.32159423828125 293.193115234375 C 258.122802734375 293.193115234375 256.8661804199219 293.193115234375 255.55169677734375 293.193115234375 C 254.23724365234375 293.193115234375 252.99114990234375 293.193115234375 251.81338500976562 293.193115234375 C 250.6356201171875 293.193115234375 249.63662719726562 293.193115234375 248.81640625 293.193115234375 C 247.99618530273438 293.193115234375 247.48614501953125 293.193115234375 247.286376953125 293.193115234375 C 246.7816162109375 293.193115234375 246.34521484375 293.1982421875 245.9771728515625 293.2086181640625 C 245.61962890625 293.218994140625 245.2515869140625 293.2344970703125 244.87301635742188 293.25518798828125 C 244.87301635742188 292.8983154296875 244.87301635742188 292.5413818359375 244.87301635742188 292.1844482421875 C 245.12539672851562 292.2052001953125 245.37249755859375 292.2310791015625 245.6143798828125 292.2620849609375 C 245.86676025390625 292.2930908203125 246.129638671875 292.31378173828125 246.40304565429688 292.3240966796875 C 246.68698120117188 292.33447265625 246.991943359375 292.33966064453125 247.31793212890625 292.33966064453125 C 247.47564697265625 292.33966064453125 247.8699951171875 292.33966064453125 248.50091552734375 292.33966064453125 C 249.14239501953125 292.33966064453125 249.93109130859375 292.33966064453125 250.86697387695312 292.33966064453125 C 251.81338500976562 292.33966064453125 252.828125 292.33966064453125 253.9112548828125 292.33966064453125 C 255.0048828125 292.33966064453125 256.09326171875 292.33966064453125 257.1763916015625 292.33966064453125 C 258.259521484375 292.33966064453125 259.2637634277344 292.33966064453125 260.18914794921875 292.33966064453125 C 261.1145324707031 292.33966064453125 261.887451171875 292.33966064453125 262.50787353515625 292.33966064453125 C 263.1387939453125 292.33966064453125 263.52789306640625 292.33966064453125 263.67510986328125 292.33966064453125 C 263.83282470703125 292.33966064453125 263.97479248046875 292.33447265625 264.1009826660156 292.3240966796875 C 264.2377014160156 292.31378173828125 264.3901672363281 292.2879638671875 264.55841064453125 292.24658203125 C 264.7897644042969 292.39654541015625 265.0211181640625 292.5465087890625 265.25244140625 292.696533203125"/>
    <path stroke-width="0" fill="rgb(0, 0, 0)" opacity="1.0" d="M 272.6029357910156 290.75689697265625 C 281.28363037109375 290.75689697265625 289.96435546875 290.75689697265625 298.64508056640625 290.75689697265625 C 298.64508056640625 291.056884765625 298.64508056640625 291.35693359375 298.64508056640625 291.6568603515625 C 289.96435546875 291.6568603515625 281.28363037109375 291.6568603515625 272.6029357910156 291.6568603515625 C 272.6029357910156 291.35693359375 272.6029357910156 291.056884765625 272.6029357910156 290.75689697265625M 275.3633117675781 295.7069091796875 C 282.23004150390625 295.7069091796875 289.0968322753906 295.7069091796875 295.96356201171875 295.7069091796875 C 295.96356201171875 295.99139404296875 295.96356201171875 296.27587890625 295.96356201171875 296.560302734375 C 289.0968322753906 296.560302734375 282.23004150390625 296.560302734375 275.3633117675781 296.560302734375 C 275.3633117675781 296.27587890625 275.3633117675781 295.99139404296875 275.3633117675781 295.7069091796875M 273.78594970703125 299.88104248046875 C 281.64117431640625 299.88104248046875 289.49639892578125 299.88104248046875 297.3516540527344 299.88104248046875 C 297.3516540527344 301.556884765625 297.3516540527344 303.2327880859375 297.3516540527344 304.90863037109375 C 297.05718994140625 304.90863037109375 296.76275634765625 304.90863037109375 296.46832275390625 304.90863037109375 C 296.46832275390625 303.527587890625 296.46832275390625 302.14654541015625 296.46832275390625 300.7655029296875 C 289.20196533203125 300.7655029296875 281.9356384277344 300.7655029296875 274.66925048828125 300.7655029296875 C 274.66925048828125 302.14654541015625 274.66925048828125 303.527587890625 274.66925048828125 304.90863037109375 C 274.37481689453125 304.90863037109375 274.08038330078125 304.90863037109375 273.78594970703125 304.90863037109375 C 273.78594970703125 303.2327880859375 273.78594970703125 301.556884765625 273.78594970703125 299.88104248046875M 285.079833984375 287.2344970703125 C 285.384765625 287.2344970703125 285.68975830078125 287.2344970703125 285.99468994140625 287.2344970703125 C 285.99468994140625 290.1776123046875 285.99468994140625 293.1207275390625 285.99468994140625 296.06378173828125 C 285.68975830078125 296.06378173828125 285.384765625 296.06378173828125 285.079833984375 296.06378173828125 C 285.079833984375 293.1207275390625 285.079833984375 290.1776123046875 285.079833984375 287.2344970703125M 288.53424072265625 302.79827880859375 C 288.82867431640625 302.79827880859375 289.12310791015625 302.79827880859375 289.41754150390625 302.79827880859375 C 289.41754150390625 305.725830078125 289.41754150390625 308.6534423828125 289.41754150390625 311.5810546875 C 289.41754150390625 311.96380615234375 289.51220703125 312.2069091796875 289.70147705078125 312.310302734375 C 289.8907470703125 312.42413330078125 290.3218994140625 312.4810791015625 290.9949035644531 312.4810791015625 C 291.15264892578125 312.4810791015625 291.45758056640625 312.4810791015625 291.9097900390625 312.4810791015625 C 292.3619384765625 312.4810791015625 292.8614501953125 312.4810791015625 293.40826416015625 312.4810791015625 C 293.955078125 312.4810791015625 294.4703369140625 312.4810791015625 294.9540710449219 312.4810791015625 C 295.43780517578125 312.4810791015625 295.779541015625 312.4810791015625 295.9793701171875 312.4810791015625 C 296.38946533203125 312.4810791015625 296.69439697265625 312.38275146484375 296.89422607421875 312.18621826171875 C 297.0940246582031 312.0 297.2412414550781 311.60693359375 297.33587646484375 311.00689697265625 C 297.4305419921875 310.39654541015625 297.48309326171875 309.475830078125 297.4936218261719 308.244873046875 C 297.5777282714844 308.306884765625 297.6671142578125 308.36376953125 297.76177978515625 308.41552734375 C 297.866943359375 308.4569091796875 297.9720764160156 308.498291015625 298.0772399902344 308.5396728515625 C 298.1929016113281 308.5810546875 298.2928161621094 308.6224365234375 298.376953125 308.663818359375 C 298.3348693847656 309.93621826171875 298.2454833984375 310.90863037109375 298.1087646484375 311.5810546875 C 297.98260498046875 312.25341796875 297.76177978515625 312.71380615234375 297.4462890625 312.9620361328125 C 297.141357421875 313.2103271484375 296.67340087890625 313.33447265625 296.0424499511719 313.33447265625 C 295.9267578125 313.33447265625 295.6270751953125 313.33447265625 295.14337158203125 313.33447265625 C 294.65960693359375 313.33447265625 294.1180725097656 313.33447265625 293.5186767578125 313.33447265625 C 292.9192810058594 313.33447265625 292.38299560546875 313.33447265625 291.9097900390625 313.33447265625 C 291.43658447265625 313.33447265625 291.15264892578125 313.33447265625 291.0579833984375 313.33447265625 C 290.4060363769531 313.33447265625 289.89599609375 313.2879638671875 289.5279541015625 313.19482421875 C 289.17041015625 313.112060546875 288.91278076171875 312.946533203125 288.75506591796875 312.6982421875 C 288.60784912109375 312.45001220703125 288.53424072265625 312.07757568359375 288.53424072265625 311.5810546875 C 288.53424072265625 308.6534423828125 288.53424072265625 305.725830078125 288.53424072265625 302.79827880859375M 281.05755615234375 302.8603515625 C 281.3625183105469 302.8603515625 281.66748046875 302.8603515625 281.972412109375 302.8603515625 C 281.8251953125 304.4017333984375 281.5728454589844 305.777587890625 281.2153015136719 306.9879150390625 C 280.8682861328125 308.18792724609375 280.35302734375 309.2379150390625 279.66949462890625 310.137939453125 C 278.9964599609375 311.0379638671875 278.0973815917969 311.80859375 276.97222900390625 312.45001220703125 C 275.8575439453125 313.1016845703125 274.45367431640625 313.634521484375 272.76068115234375 314.04827880859375 C 272.7396240234375 313.975830078125 272.69232177734375 313.89306640625 272.61871337890625 313.79998779296875 C 272.54510498046875 313.71728515625 272.46624755859375 313.6292724609375 272.3821105957031 313.53619384765625 C 272.3084716796875 313.443115234375 272.2401428222656 313.365478515625 272.17706298828125 313.303466796875 C 273.85955810546875 312.91033935546875 275.24237060546875 312.4189453125 276.32550048828125 311.829345703125 C 277.41912841796875 311.22930908203125 278.28668212890625 310.505126953125 278.9281311035156 309.6568603515625 C 279.5801086425781 308.79827880859375 280.0638427734375 307.810302734375 280.3793029785156 306.693115234375 C 280.7052917480469 305.5655517578125 280.931396484375 304.2879638671875 281.05755615234375 302.8603515625"/>
    <path stroke-width="0" fill="rgb(0, 0, 0)" opacity="1.0" d="M 314.9076232910156 297.615478515625 C 319.0087585449219 297.615478515625 323.10986328125 297.615478515625 327.21099853515625 297.615478515625 C 327.21099853515625 297.9000244140625 327.21099853515625 298.1844482421875 327.21099853515625 298.468994140625 C 323.10986328125 298.468994140625 319.0087585449219 298.468994140625 314.9076232910156 298.468994140625 C 314.9076232910156 298.1844482421875 314.9076232910156 297.9000244140625 314.9076232910156 297.615478515625M 302.49383544921875 311.8448486328125 C 311.4111328125 311.8448486328125 320.3284912109375 311.8448486328125 329.24578857421875 311.8448486328125 C 329.24578857421875 312.134521484375 329.24578857421875 312.42413330078125 329.24578857421875 312.71380615234375 C 320.3284912109375 312.71380615234375 311.4111328125 312.71380615234375 302.49383544921875 312.71380615234375 C 302.49383544921875 312.42413330078125 302.49383544921875 312.134521484375 302.49383544921875 311.8448486328125M 314.371337890625 287.777587890625 C 314.665771484375 287.777587890625 314.960205078125 287.777587890625 315.254638671875 287.777587890625 C 315.254638671875 295.9293212890625 315.254638671875 304.0810546875 315.254638671875 312.2327880859375 C 314.960205078125 312.2327880859375 314.665771484375 312.2327880859375 314.371337890625 312.2327880859375 C 314.371337890625 304.0810546875 314.371337890625 295.9293212890625 314.371337890625 287.777587890625"/>
    <path stroke-width="0" fill="rgb(0, 0, 0)" opacity="1.0" d="M 339.62481689453125 311.5810546875 C 342.211669921875 310.5672607421875 344.4041748046875 309.25341796875 346.202392578125 307.6396484375 C 348.00054931640625 306.0155029296875 349.4832763671875 304.329345703125 350.6505126953125 302.5810546875 C 351.83880615234375 300.781005859375 352.73260498046875 298.975830078125 353.33203125 297.16552734375 C 353.931396484375 295.35516357421875 354.362548828125 293.6844482421875 354.62548828125 292.1534423828125 C 354.646484375 292.060302734375 354.66754150390625 291.86895751953125 354.68853759765625 291.579345703125 C 354.7200927734375 291.2896728515625 354.73583984375 291.056884765625 354.73583984375 290.88104248046875 C 355.10919189453125 290.9276123046875 355.48248291015625 290.97412109375 355.85577392578125 291.02069091796875 C 355.78216552734375 291.2379150390625 355.7191162109375 291.470703125 355.66650390625 291.718994140625 C 355.61395263671875 291.96728515625 355.5771484375 292.14306640625 355.55609130859375 292.24658203125 C 355.2301025390625 294.056884765625 354.74639892578125 295.89306640625 354.10491943359375 297.75518798828125 C 353.46343994140625 299.60693359375 352.58538818359375 301.3758544921875 351.470703125 303.06207275390625 C 350.282470703125 304.8724365234375 348.79974365234375 306.58966064453125 347.0225830078125 308.21380615234375 C 345.24542236328125 309.82757568359375 343.073974609375 311.18792724609375 340.50811767578125 312.2947998046875 C 340.21368408203125 312.056884765625 339.91925048828125 311.8189697265625 339.62481689453125 311.5810546875M 336.50164794921875 291.470703125 C 336.80657958984375 291.9051513671875 337.1851806640625 292.4896240234375 337.6373291015625 293.22412109375 C 338.0999755859375 293.9482421875 338.5784912109375 294.72412109375 339.07275390625 295.5517578125 C 339.56695556640625 296.36895751953125 340.0244140625 297.1396484375 340.44500732421875 297.86376953125 C 340.86566162109375 298.587890625 341.2073974609375 299.1776123046875 341.4703369140625 299.63275146484375 C 341.191650390625 299.7930908203125 340.9129638671875 299.9534912109375 340.63427734375 300.11376953125 C 340.37139892578125 299.57586669921875 340.013916015625 298.9189453125 339.56170654296875 298.14306640625 C 339.12005615234375 297.36724853515625 338.6468505859375 296.5706787109375 338.14208984375 295.75341796875 C 337.6373291015625 294.9259033203125 337.16937255859375 294.170654296875 336.73822021484375 293.4879150390625 C 336.30712890625 292.7947998046875 335.9495849609375 292.2620849609375 335.6656494140625 291.8896484375 C 335.9443359375 291.75 336.22296142578125 291.6103515625 336.50164794921875 291.470703125"/>
    <path stroke-width="0" fill="rgb(0, 0, 0)" opacity="1.0" d="M 386.5037841796875 292.21551513671875 C 386.45123291015625 292.3603515625 386.4091796875 292.4844970703125 386.37762451171875 292.587890625 C 386.3460693359375 292.6810302734375 386.30926513671875 292.86724853515625 386.2672119140625 293.14654541015625 C 386.1304931640625 293.97412109375 385.92547607421875 294.884521484375 385.65203857421875 295.8775634765625 C 385.378662109375 296.8707275390625 385.04736328125 297.8792724609375 384.6583251953125 298.9034423828125 C 384.27978515625 299.9276123046875 383.8486328125 300.9051513671875 383.3648681640625 301.836181640625 C 382.88116455078125 302.75689697265625 382.3553466796875 303.56378173828125 381.78753662109375 304.25689697265625 C 380.8621826171875 305.384521484375 379.8631591796875 306.4293212890625 378.79052734375 307.391357421875 C 377.71795654296875 308.3431396484375 376.47705078125 309.20172119140625 375.0679931640625 309.96728515625 C 373.66937255859375 310.722412109375 372.023681640625 311.3896484375 370.130859375 311.968994140625 C 369.857421875 311.6689453125 369.58404541015625 311.36895751953125 369.3106689453125 311.0689697265625 C 371.2244873046875 310.56207275390625 372.8912353515625 309.95172119140625 374.31085205078125 309.2379150390625 C 375.740966796875 308.5137939453125 377.00286865234375 307.69140625 378.09649658203125 306.77069091796875 C 379.20068359375 305.8499755859375 380.1890869140625 304.8310546875 381.06195068359375 303.71380615234375 C 381.82958984375 302.74139404296875 382.5078125 301.60345458984375 383.09674072265625 300.29998779296875 C 383.6961669921875 298.9862060546875 384.19561767578125 297.662109375 384.59521484375 296.32757568359375 C 385.00537109375 294.9827880859375 385.27874755859375 293.78271484375 385.4154052734375 292.72760009765625 C 385.13153076171875 292.72760009765625 384.55316162109375 292.72760009765625 383.68035888671875 292.72760009765625 C 382.818115234375 292.72760009765625 381.78753662109375 292.72760009765625 380.5887451171875 292.72760009765625 C 379.38995361328125 292.72760009765625 378.13330078125 292.72760009765625 376.81884765625 292.72760009765625 C 375.50439453125 292.72760009765625 374.25830078125 292.72760009765625 373.08050537109375 292.72760009765625 C 371.90277099609375 292.72760009765625 370.90374755859375 292.72760009765625 370.08355712890625 292.72760009765625 C 369.2633056640625 292.72760009765625 368.7532958984375 292.72760009765625 368.55352783203125 292.72760009765625 C 368.04876708984375 292.72760009765625 367.61236572265625 292.7327880859375 367.2442626953125 292.74310302734375 C 366.88677978515625 292.75341796875 366.513427734375 292.7689208984375 366.1243896484375 292.7896728515625 C 366.1243896484375 292.4276123046875 366.1243896484375 292.0655517578125 366.1243896484375 291.7034912109375 C 366.38726806640625 291.72412109375 366.6396484375 291.75 366.88153076171875 291.781005859375 C 367.12335205078125 291.81207275390625 367.38623046875 291.832763671875 367.670166015625 291.8431396484375 C 367.9541015625 291.85345458984375 368.259033203125 291.858642578125 368.5850830078125 291.858642578125 C 368.7427978515625 291.858642578125 369.13714599609375 291.858642578125 369.76806640625 291.858642578125 C 370.4095458984375 291.858642578125 371.1982421875 291.858642578125 372.13409423828125 291.858642578125 C 373.08050537109375 291.858642578125 374.09527587890625 291.858642578125 375.17840576171875 291.858642578125 C 376.27203369140625 291.858642578125 377.35516357421875 291.858642578125 378.427734375 291.858642578125 C 379.5108642578125 291.858642578125 380.51513671875 291.858642578125 381.44049072265625 291.858642578125 C 382.37640380859375 291.858642578125 383.154541015625 291.858642578125 383.7750244140625 291.858642578125 C 384.40594482421875 291.858642578125 384.7950439453125 291.858642578125 384.9422607421875 291.858642578125 C 385.0999755859375 291.858642578125 385.241943359375 291.85345458984375 385.3681640625 291.8431396484375 C 385.50482177734375 291.832763671875 385.65203857421875 291.806884765625 385.809814453125 291.7655029296875 C 386.0411376953125 291.91552734375 386.2724609375 292.0655517578125 386.5037841796875 292.21551513671875"/>
    <path stroke-width="0" fill="rgb(0, 0, 0)" opacity="1.0" d="M 394.65875244140625 311.968994140625 C 396.372802734375 311.9276123046875 398.3970947265625 311.8707275390625 400.7315673828125 311.79827880859375 C 403.0765380859375 311.71551513671875 405.58984375 311.6275634765625 408.2713623046875 311.53448486328125 C 410.96337890625 311.4310302734375 413.66064453125 311.3172607421875 416.3631591796875 311.193115234375 C 416.35791015625 311.472412109375 416.3526611328125 311.751708984375 416.347412109375 312.031005859375 C 413.718505859375 312.14483642578125 411.08428955078125 312.25860595703125 408.44482421875 312.3724365234375 C 405.81591796875 312.4862060546875 403.32373046875 312.58447265625 400.9681396484375 312.667236328125 C 398.6126708984375 312.7603759765625 396.55157470703125 312.837890625 394.784912109375 312.9000244140625 C 394.742919921875 312.58966064453125 394.7008056640625 312.279296875 394.65875244140625 311.968994140625M 394.29595947265625 302.44140625 C 402.6348876953125 302.44140625 410.973876953125 302.44140625 419.3128662109375 302.44140625 C 419.3128662109375 302.7362060546875 419.3128662109375 303.031005859375 419.3128662109375 303.32586669921875 C 410.973876953125 303.32586669921875 402.6348876953125 303.32586669921875 394.29595947265625 303.32586669921875 C 394.29595947265625 303.031005859375 394.29595947265625 302.7362060546875 394.29595947265625 302.44140625M 399.2646484375 296.74658203125 C 404.170166015625 296.74658203125 409.0758056640625 296.74658203125 413.9813232421875 296.74658203125 C 413.9813232421875 297.0465087890625 413.9813232421875 297.3465576171875 413.9813232421875 297.64654541015625 C 409.0758056640625 297.64654541015625 404.170166015625 297.64654541015625 399.2646484375 297.64654541015625 C 399.2646484375 297.3465576171875 399.2646484375 297.0465087890625 399.2646484375 296.74658203125M 403.4761962890625 302.93792724609375 C 403.786376953125 303.0413818359375 404.09661865234375 303.14483642578125 404.40679931640625 303.248291015625 C 403.944091796875 304.220703125 403.4393310546875 305.2655029296875 402.892578125 306.38275146484375 C 402.345703125 307.4896240234375 401.78314208984375 308.5810546875 401.20477294921875 309.6568603515625 C 400.636962890625 310.722412109375 400.07958984375 311.67413330078125 399.53277587890625 312.5120849609375 C 399.2489013671875 312.40863037109375 398.9649658203125 312.30517578125 398.6810302734375 312.20172119140625 C 399.227783203125 311.3741455078125 399.795654296875 310.417236328125 400.384521484375 309.3310546875 C 400.98394775390625 308.2344970703125 401.55706787109375 307.1224365234375 402.1038818359375 305.994873046875 C 402.650634765625 304.85693359375 403.108154296875 303.837890625 403.4761962890625 302.93792724609375M 410.337646484375 306.196533203125 C 410.56378173828125 306.056884765625 410.789794921875 305.917236328125 411.01593017578125 305.777587890625 C 411.9833984375 306.5740966796875 412.945556640625 307.4482421875 413.9024658203125 308.4000244140625 C 414.859375 309.3516845703125 415.73748779296875 310.2930908203125 416.53668212890625 311.22412109375 C 417.33587646484375 312.1551513671875 417.966796875 312.998291015625 418.42950439453125 313.75341796875 C 418.1876220703125 313.913818359375 417.94580078125 314.0740966796875 417.70391845703125 314.2344970703125 C 417.22021484375 313.47930908203125 416.5787353515625 312.63104248046875 415.779541015625 311.689697265625 C 414.9803466796875 310.748291015625 414.11279296875 309.7913818359375 413.1768798828125 308.8189697265625 C 412.240966796875 307.836181640625 411.2945556640625 306.9620361328125 410.337646484375 306.196533203125M 406.50469970703125 288.16552734375 C 405.6739501953125 289.43792724609375 404.5750732421875 290.74658203125 403.2080078125 292.09136962890625 C 401.85150146484375 293.4259033203125 400.33721923828125 294.6982421875 398.66522216796875 295.90863037109375 C 397.0037841796875 297.11895751953125 395.294921875 298.1844482421875 393.538818359375 299.10516357421875 C 393.49676513671875 299.02239990234375 393.4442138671875 298.94482421875 393.381103515625 298.8724365234375 C 393.3179931640625 298.7896728515625 393.2548828125 298.7069091796875 393.1917724609375 298.6241455078125 C 393.13922119140625 298.5413818359375 393.0709228515625 298.468994140625 392.98675537109375 298.4068603515625 C 394.742919921875 297.5379638671875 396.4569091796875 296.498291015625 398.12890625 295.2879638671875 C 399.8114013671875 294.07757568359375 401.33624267578125 292.78448486328125 402.7032470703125 291.40863037109375 C 404.080810546875 290.02239990234375 405.1744384765625 288.641357421875 405.984130859375 287.2655029296875 C 406.26806640625 287.2655029296875 406.552001953125 287.2655029296875 406.8359375 287.2655029296875 C 407.6351318359375 288.38275146484375 408.5762939453125 289.4844970703125 409.659423828125 290.5706787109375 C 410.7425537109375 291.64654541015625 411.8992919921875 292.670654296875 413.12957763671875 293.64306640625 C 414.35992431640625 294.615478515625 415.611328125 295.5 416.8836669921875 296.2965087890625 C 418.1561279296875 297.0931396484375 419.39697265625 297.7603759765625 420.60626220703125 298.29827880859375 C 420.53265380859375 298.3707275390625 420.4327392578125 298.4896240234375 420.3065185546875 298.6551513671875 C 420.19091796875 298.810302734375 420.09100341796875 298.939697265625 420.0068359375 299.0430908203125 C 418.387451171875 298.24658203125 416.731201171875 297.274169921875 415.0382080078125 296.1258544921875 C 413.34515380859375 294.96728515625 411.75201416015625 293.7052001953125 410.2587890625 292.33966064453125 C 408.776123046875 290.96380615234375 407.52471923828125 289.5723876953125 406.50469970703125 288.16552734375"/>
    <path stroke-width="0" fill="rgb(0, 0, 0)" opacity="1.0" d="M 433.33551025390625 291.501708984375 C 433.577392578125 291.38275146484375 433.8192138671875 291.2637939453125 434.06109619140625 291.14483642578125 C 434.74462890625 291.858642578125 435.40185546875 292.64483642578125 436.0328369140625 293.50341796875 C 436.67425537109375 294.3516845703125 437.24737548828125 295.189697265625 437.7520751953125 296.0172119140625 C 438.2568359375 296.8448486328125 438.6512451171875 297.5948486328125 438.93511962890625 298.2672119140625 C 438.6617431640625 298.4068603515625 438.3883056640625 298.5465087890625 438.1148681640625 298.68621826171875 C 437.85205078125 298.00341796875 437.47344970703125 297.24310302734375 436.979248046875 296.4051513671875 C 436.4849853515625 295.556884765625 435.9171142578125 294.7086181640625 435.275634765625 293.8603515625 C 434.64471435546875 293.001708984375 433.998046875 292.21551513671875 433.33551025390625 291.501708984375M 423.240478515625 310.1534423828125 C 424.27099609375 309.718994140625 425.4644775390625 309.20172119140625 426.821044921875 308.6016845703125 C 428.1881103515625 307.99139404296875 429.64453125 307.3448486328125 431.1903076171875 306.662109375 C 432.736083984375 305.968994140625 434.2872314453125 305.27587890625 435.843505859375 304.582763671875 C 435.9066162109375 304.862060546875 435.9697265625 305.141357421875 436.0328369140625 305.420654296875 C 434.5711669921875 306.0723876953125 433.0936279296875 306.7396240234375 431.6004638671875 307.42242431640625 C 430.107177734375 308.0948486328125 428.67181396484375 308.74139404296875 427.29425048828125 309.362060546875 C 425.92724609375 309.972412109375 424.6968994140625 310.5155029296875 423.603271484375 310.99139404296875 C 423.4822998046875 310.7120361328125 423.361328125 310.4327392578125 423.240478515625 310.1534423828125M 441.83746337890625 305.001708984375 C 442.06884765625 304.8516845703125 442.3001708984375 304.70172119140625 442.531494140625 304.5517578125 C 443.27813720703125 305.24481201171875 444.051025390625 305.9844970703125 444.8502197265625 306.77069091796875 C 445.6494140625 307.556884765625 446.432861328125 308.35345458984375 447.200439453125 309.16033935546875 C 447.9681396484375 309.9569091796875 448.67791748046875 310.722412109375 449.3299560546875 311.4569091796875 C 449.992431640625 312.1810302734375 450.54443359375 312.82757568359375 450.98614501953125 313.39654541015625 C 450.7232666015625 313.587890625 450.4603271484375 313.779296875 450.19744873046875 313.970703125 C 449.75579833984375 313.391357421875 449.2142333984375 312.7344970703125 448.57275390625 312.0 C 447.94183349609375 311.2655029296875 447.247802734375 310.494873046875 446.49066162109375 309.68792724609375 C 445.7335205078125 308.8707275390625 444.955322265625 308.05859375 444.15618896484375 307.251708984375 C 443.35699462890625 306.44482421875 442.5841064453125 305.69482421875 441.83746337890625 305.001708984375M 446.112060546875 288.615478515625 C 446.4171142578125 288.6517333984375 446.7220458984375 288.68792724609375 447.0269775390625 288.72412109375 C 446.5958251953125 292.24139404296875 446.022705078125 295.3499755859375 445.3076171875 298.04998779296875 C 444.592529296875 300.7396240234375 443.6251220703125 303.0982666015625 442.4052734375 305.1258544921875 C 441.196044921875 307.14306640625 439.6396484375 308.891357421875 437.736328125 310.3707275390625 C 435.8330078125 311.8499755859375 433.47747802734375 313.1275634765625 430.6697998046875 314.2034912109375 C 430.62774658203125 314.141357421875 430.55938720703125 314.06378173828125 430.4647216796875 313.970703125 C 430.380615234375 313.887939453125 430.291259765625 313.80517578125 430.19659423828125 313.722412109375 C 430.1019287109375 313.6500244140625 430.017822265625 313.582763671875 429.9442138671875 313.52069091796875 C 432.76239013671875 312.527587890625 435.117919921875 311.31207275390625 437.0107421875 309.8741455078125 C 438.9140625 308.43621826171875 440.4652099609375 306.71380615234375 441.6639404296875 304.7069091796875 C 442.873291015625 302.70001220703125 443.8197021484375 300.3724365234375 444.503173828125 297.72412109375 C 445.186767578125 295.0655517578125 445.7230224609375 292.029296875 446.112060546875 288.615478515625M 427.15228271484375 288.6776123046875 C 427.43621826171875 288.667236328125 427.7200927734375 288.6568603515625 428.0040283203125 288.64654541015625 C 428.135498046875 295.3189697265625 428.2669677734375 301.99139404296875 428.3984375 308.663818359375 C 428.10400390625 308.67413330078125 427.80950927734375 308.6844482421875 427.51507568359375 308.69482421875 C 427.3941650390625 302.02239990234375 427.273193359375 295.3499755859375 427.15228271484375 288.6776123046875"/>
    <path stroke-width="0" fill="rgb(0, 0, 0)" opacity="1.0" d="M 453.9200439453125 289.468994140625 C 462.83734130859375 289.468994140625 471.754638671875 289.468994140625 480.6719970703125 289.468994140625 C 480.6719970703125 289.76898193359375 480.6719970703125 290.0689697265625 480.6719970703125 290.36895751953125 C 471.754638671875 290.36895751953125 462.83734130859375 290.36895751953125 453.9200439453125 290.36895751953125 C 453.9200439453125 290.0689697265625 453.9200439453125 289.76898193359375 453.9200439453125 289.468994140625M 466.2864990234375 289.779296875 C 466.57568359375 289.779296875 466.8648681640625 289.779296875 467.154052734375 289.779296875 C 467.154052734375 297.8792724609375 467.154052734375 305.97930908203125 467.154052734375 314.079345703125 C 466.8648681640625 314.079345703125 466.57568359375 314.079345703125 466.2864990234375 314.079345703125 C 466.2864990234375 305.97930908203125 466.2864990234375 297.8792724609375 466.2864990234375 289.779296875M 466.8543701171875 296.6844482421875 C 467.02783203125 296.4879150390625 467.20135498046875 296.2913818359375 467.3748779296875 296.0948486328125 C 468.36334228515625 296.54998779296875 469.38336181640625 297.056884765625 470.4349365234375 297.615478515625 C 471.4970703125 298.163818359375 472.5380859375 298.7327880859375 473.55810546875 299.3223876953125 C 474.578125 299.912109375 475.5245361328125 300.4810791015625 476.3973388671875 301.029296875 C 477.2806396484375 301.5672607421875 478.03778076171875 302.05859375 478.668701171875 302.50341796875 C 478.4952392578125 302.75689697265625 478.32171630859375 303.0103759765625 478.148193359375 303.2637939453125 C 477.52777099609375 302.80859375 476.77587890625 302.306884765625 475.892578125 301.75860595703125 C 475.019775390625 301.20001220703125 474.0733642578125 300.6258544921875 473.0533447265625 300.03619384765625 C 472.0333251953125 299.43621826171875 470.9923095703125 298.8465576171875 469.93017578125 298.2672119140625 C 468.8680419921875 297.68792724609375 467.8427734375 297.16033935546875 466.8543701171875 296.6844482421875"/>
  </g>
</svg>
