<?xml version="1.0" encoding="utf-8"?>
<svg xmlns="http://www.w3.org/2000/svg" xmlns:ev="http://www.w3.org/2001/xml-events" xmlns:xlink="http://www.w3.org/1999/xlink" version="1.1" baseProfile="full" width="49628.0" height="1744.0" viewBox="213.0 -1596.0 49628.0 1744.0">
<defs/>
<g><path d="M 45325.000000 -1490.000000 C 45514.666667 -1490.000000 45704.333333 -1490.000000 45894.000000 -1490.000000 C 45894.000000 -1471.333333 45894.000000 -1452.666667 45894.000000 -1434.000000 C 45704.333333 -1434.000000 45514.666667 -1434.000000 45325.000000 -1434.000000 C 45325.000000 -1452.666667 45325.000000 -1471.333333 45325.000000 -1490.000000z M 45325.000000 -1043.000000 C 45514.666667 -1043.000000 45704.333333 -1043.000000 45894.000000 -1043.000000 C 45894.000000 -1024.333333 45894.000000 -1005.666667 45894.000000 -987.000000 C 45704.333333 -987.000000 45514.666667 -987.000000 45325.000000 -987.000000 C 45325.000000 -1005.666667 45325.000000 -1024.333333 45325.000000 -1043.000000z M 45322.000000 -586.000000 C 45514.666667 -586.000000 45707.333333 -586.000000 45900.000000 -586.000000 C 45900.000000 -567.333333 45900.000000 -548.666667 45900.000000 -530.000000 C 45707.333333 -530.000000 45514.666667 -530.000000 45322.000000 -530.000000 C 45322.000000 -548.666667 45322.000000 -567.333333 45322.000000 -586.000000z M 45865.000000 -1490.000000 C 45883.666667 -1490.000000 45902.333333 -1490.000000 45921.000000 -1490.000000 C 45921.000000 -986.333333 45921.000000 -482.666667 45921.000000 21.000000 C 45921.000000 47.666667 45916.666667 67.666667 45908.000000 81.000000 C 45900.000000 95.000000 45885.000000 105.000000 45863.000000 111.000000 C 45842.333333 116.333333 45810.666667 119.666667 45768.000000 121.000000 C 45725.333333 122.333333 45669.333333 123.000000 45600.000000 123.000000 C 45598.666667 113.666667 45595.333333 103.333333 45590.000000 92.000000 C 45585.333333 80.666667 45580.333333 70.333333 45575.000000 61.000000 C 45635.000000 62.333333 45688.000000 63.000000 45734.000000 63.000000 C 45780.666667 63.000000 45811.666667 62.333333 45827.000000 61.000000 C 45841.000000 60.333333 45850.666667 57.333333 45856.000000 52.000000 C 45862.000000 46.666667 45865.000000 36.333333 45865.000000 21.000000 C 45865.000000 -482.666667 45865.000000 -986.333333 45865.000000 -1490.000000z M 45300.000000 -1490.000000 C 45318.666667 -1490.000000 45337.333333 -1490.000000 45356.000000 -1490.000000 C 45356.000000 -1260.333333 45356.000000 -1030.666667 45356.000000 -801.000000 C 45356.000000 -729.000000 45353.666667 -652.000000 45349.000000 -570.000000 C 45345.000000 -488.000000 45336.000000 -404.666667 45322.000000 -320.000000 C 45308.666667 -236.000000 45288.666667 -154.000000 45262.000000 -74.000000 C 45235.333333 6.000000 45199.000000 80.000000 45153.000000 148.000000 C 45150.333333 144.000000 45146.000000 139.666667 45140.000000 135.000000 C 45134.666667 131.000000 45128.666667 126.666667 45122.000000 122.000000 C 45115.333333 117.333333 45109.666667 114.333333 45105.000000 113.000000 C 45165.000000 23.666667 45208.666667 -73.666667 45236.000000 -179.000000 C 45263.333333 -285.000000 45280.666667 -391.666667 45288.000000 -499.000000 C 45296.000000 -606.333333 45300.000000 -707.000000 45300.000000 -801.000000 C 45300.000000 -1030.666667 45300.000000 -1260.333333 45300.000000 -1490.000000z M 44279.000000 -1309.000000 C 44578.666667 -1309.000000 44878.333333 -1309.000000 45178.000000 -1309.000000 C 45178.000000 -1290.666667 45178.000000 -1272.333333 45178.000000 -1254.000000 C 44878.333333 -1254.000000 44578.666667 -1254.000000 44279.000000 -1254.000000 C 44279.000000 -1272.333333 44279.000000 -1290.666667 44279.000000 -1309.000000z M 44479.000000 -1025.000000 C 44651.000000 -1025.000000 44823.000000 -1025.000000 44995.000000 -1025.000000 C 44995.000000 -1006.666667 44995.000000 -988.333333 44995.000000 -970.000000 C 44823.000000 -970.000000 44651.000000 -970.000000 44479.000000 -970.000000 C 44479.000000 -988.333333 44479.000000 -1006.666667 44479.000000 -1025.000000z M 44481.000000 -716.000000 C 44653.000000 -716.000000 44825.000000 -716.000000 44997.000000 -716.000000 C 44997.000000 -697.000000 44997.000000 -678.000000 44997.000000 -659.000000 C 44825.000000 -659.000000 44653.000000 -659.000000 44481.000000 -659.000000 C 44481.000000 -678.000000 44481.000000 -697.000000 44481.000000 -716.000000z M 44250.000000 -399.000000 C 44563.666667 -399.000000 44877.333333 -399.000000 45191.000000 -399.000000 C 45191.000000 -380.666667 45191.000000 -362.333333 45191.000000 -344.000000 C 44877.333333 -344.000000 44563.666667 -344.000000 44250.000000 -344.000000 C 44250.000000 -362.333333 44250.000000 -380.666667 44250.000000 -399.000000z M 44454.000000 -1571.000000 C 44472.333333 -1571.000000 44490.666667 -1571.000000 44509.000000 -1571.000000 C 44509.000000 -1170.333333 44509.000000 -769.666667 44509.000000 -369.000000 C 44490.666667 -369.000000 44472.333333 -369.000000 44454.000000 -369.000000 C 44454.000000 -769.666667 44454.000000 -1170.333333 44454.000000 -1571.000000z M 44968.000000 -1571.000000 C 44986.666667 -1571.000000 45005.333333 -1571.000000 45024.000000 -1571.000000 C 45024.000000 -1170.333333 45024.000000 -769.666667 45024.000000 -369.000000 C 45005.333333 -369.000000 44986.666667 -369.000000 44968.000000 -369.000000 C 44968.000000 -769.666667 44968.000000 -1170.333333 44968.000000 -1571.000000z M 44546.000000 -275.000000 C 44565.333333 -270.333333 44584.666667 -265.666667 44604.000000 -261.000000 C 44569.333333 -187.000000 44526.333333 -115.000000 44475.000000 -45.000000 C 44423.666667 25.000000 44371.666667 84.000000 44319.000000 132.000000 C 44317.000000 130.000000 44312.666667 126.666667 44306.000000 122.000000 C 44299.333333 117.333333 44292.666667 112.666667 44286.000000 108.000000 C 44280.000000 104.000000 44274.333333 100.666667 44269.000000 98.000000 C 44325.666667 50.666667 44378.333333 -5.666667 44427.000000 -71.000000 C 44475.666667 -136.333333 44515.333333 -204.333333 44546.000000 -275.000000z M 44813.000000 -242.000000 C 44829.000000 -249.666667 44845.000000 -257.333333 44861.000000 -265.000000 C 44886.333333 -235.666667 44911.000000 -203.333333 44935.000000 -168.000000 C 44959.666667 -132.666667 44982.333333 -98.333333 45003.000000 -65.000000 C 45023.666667 -31.666667 45039.666667 -1.666667 45051.000000 25.000000 C 45034.333333 34.666667 45017.666667 44.333333 45001.000000 54.000000 C 44991.000000 26.666667 44975.666667 -3.666667 44955.000000 -37.000000 C 44934.333333 -71.000000 44911.333333 -106.333333 44886.000000 -143.000000 C 44861.333333 -179.666667 44837.000000 -212.666667 44813.000000 -242.000000z "/>
</g></svg>
