<?xml version="1.0" encoding="utf-8"?>
<svg xmlns="http://www.w3.org/2000/svg" xmlns:ev="http://www.w3.org/2001/xml-events" xmlns:xlink="http://www.w3.org/1999/xlink" version="1.1" baseProfile="full" width="17098.0" height="1737.3" viewBox="90.0 -1596.0 17098.0 1737.3">
<defs/>
<g><path d="M 2367.000000 -1373.000000 C 2808.000000 -1373.000000 3249.000000 -1373.000000 3690.000000 -1373.000000 C 3690.000000 -1353.666667 3690.000000 -1334.333333 3690.000000 -1315.000000 C 3249.000000 -1315.000000 2808.000000 -1315.000000 2367.000000 -1315.000000 C 2367.000000 -1334.333333 2367.000000 -1353.666667 2367.000000 -1373.000000z M 2388.000000 -1104.000000 C 2758.000000 -1104.000000 3128.000000 -1104.000000 3498.000000 -1104.000000 C 3498.000000 -1085.333333 3498.000000 -1066.666667 3498.000000 -1048.000000 C 3128.000000 -1048.000000 2758.000000 -1048.000000 2388.000000 -1048.000000 C 2388.000000 -1066.666667 2388.000000 -1085.333333 2388.000000 -1104.000000z M 2175.000000 -837.000000 C 2577.000000 -837.000000 2979.000000 -837.000000 3381.000000 -837.000000 C 3381.000000 -818.333333 3381.000000 -799.666667 3381.000000 -781.000000 C 2979.000000 -781.000000 2577.000000 -781.000000 2175.000000 -781.000000 C 2175.000000 -799.666667 2175.000000 -818.333333 2175.000000 -837.000000z M 2440.000000 -1594.000000 C 2460.000000 -1589.333333 2480.000000 -1584.666667 2500.000000 -1580.000000 C 2452.666667 -1436.666667 2392.000000 -1303.666667 2318.000000 -1181.000000 C 2244.666667 -1059.000000 2163.333333 -955.333333 2074.000000 -870.000000 C 2071.333333 -874.000000 2066.666667 -878.333333 2060.000000 -883.000000 C 2054.000000 -888.333333 2047.333333 -893.333333 2040.000000 -898.000000 C 2032.666667 -903.333333 2026.666667 -907.333333 2022.000000 -910.000000 C 2112.666667 -992.000000 2194.000000 -1092.333333 2266.000000 -1211.000000 C 2338.666667 -1330.333333 2396.666667 -1458.000000 2440.000000 -1594.000000z M 2995.000000 -724.000000 C 3012.333333 -717.666667 3029.666667 -711.333333 3047.000000 -705.000000 C 2975.666667 -581.666667 2890.000000 -467.666667 2790.000000 -363.000000 C 2690.000000 -259.000000 2581.666667 -165.333333 2465.000000 -82.000000 C 2349.000000 0.666667 2227.333333 73.333333 2100.000000 136.000000 C 2098.000000 132.666667 2094.333333 128.000000 2089.000000 122.000000 C 2083.666667 116.000000 2078.000000 110.333333 2072.000000 105.000000 C 2066.666667 100.333333 2061.333333 96.000000 2056.000000 92.000000 C 2184.000000 33.333333 2306.666667 -36.666667 2424.000000 -118.000000 C 2541.333333 -199.333333 2648.666667 -291.000000 2746.000000 -393.000000 C 2844.000000 -495.666667 2927.000000 -606.000000 2995.000000 -724.000000z M 3350.000000 -837.000000 C 3368.666667 -837.000000 3387.333333 -837.000000 3406.000000 -837.000000 C 3408.666667 -703.666667 3412.666667 -581.000000 3418.000000 -469.000000 C 3424.000000 -357.000000 3434.666667 -260.000000 3450.000000 -178.000000 C 3465.333333 -96.666667 3487.000000 -33.333333 3515.000000 12.000000 C 3543.666667 58.000000 3580.333333 81.000000 3625.000000 81.000000 C 3648.333333 81.000000 3663.666667 54.333333 3671.000000 1.000000 C 3679.000000 -52.333333 3683.333333 -121.666667 3684.000000 -207.000000 C 3690.666667 -202.333333 3699.333333 -197.666667 3710.000000 -193.000000 C 3721.333333 -188.333333 3730.000000 -184.666667 3736.000000 -182.000000 C 3733.333333 -101.333333 3728.333333 -38.000000 3721.000000 8.000000 C 3714.333333 54.000000 3703.333333 86.000000 3688.000000 104.000000 C 3672.666667 122.666667 3650.333333 132.666667 3621.000000 134.000000 C 3563.666667 134.000000 3517.333333 111.666667 3482.000000 67.000000 C 3446.666667 22.333333 3420.000000 -42.000000 3402.000000 -126.000000 C 3384.000000 -210.000000 3371.333333 -311.666667 3364.000000 -431.000000 C 3357.333333 -551.000000 3352.666667 -686.333333 3350.000000 -837.000000z M 2266.000000 -593.000000 C 2279.333333 -604.666667 2292.666667 -616.333333 2306.000000 -628.000000 C 2385.333333 -584.666667 2465.333333 -536.000000 2546.000000 -482.000000 C 2626.666667 -428.000000 2704.666667 -372.333333 2780.000000 -315.000000 C 2855.333333 -258.333333 2924.666667 -201.666667 2988.000000 -145.000000 C 3052.000000 -89.000000 3105.000000 -36.333333 3147.000000 13.000000 C 3132.333333 26.666667 3117.666667 40.333333 3103.000000 54.000000 C 3060.333333 4.000000 3007.666667 -49.000000 2945.000000 -105.000000 C 2882.333333 -161.666667 2813.333333 -219.000000 2738.000000 -277.000000 C 2662.666667 -335.666667 2584.666667 -392.000000 2504.000000 -446.000000 C 2423.333333 -500.666667 2344.000000 -549.666667 2266.000000 -593.000000z "/>
</g></svg>
