<?xml version="1.0" encoding="utf-8"?>
<svg xmlns="http://www.w3.org/2000/svg" xmlns:ev="http://www.w3.org/2001/xml-events" xmlns:xlink="http://www.w3.org/1999/xlink" version="1.1" baseProfile="full" width="49628.0" height="1744.0" viewBox="213.0 -1596.0 49628.0 1744.0">
<defs/>
<g><path d="M 42712.000000 -1165.000000 C 43043.000000 -1165.000000 43374.000000 -1165.000000 43705.000000 -1165.000000 C 43705.000000 -1146.000000 43705.000000 -1127.000000 43705.000000 -1108.000000 C 43374.000000 -1108.000000 43043.000000 -1108.000000 42712.000000 -1108.000000 C 42712.000000 -1127.000000 42712.000000 -1146.000000 42712.000000 -1165.000000z M 42818.000000 -851.000000 C 42836.666667 -851.000000 42855.333333 -851.000000 42874.000000 -851.000000 C 42874.000000 -608.333333 42874.000000 -365.666667 42874.000000 -123.000000 C 42855.333333 -123.000000 42836.666667 -123.000000 42818.000000 -123.000000 C 42818.000000 -365.666667 42818.000000 -608.333333 42818.000000 -851.000000z M 42847.000000 -851.000000 C 43092.000000 -851.000000 43337.000000 -851.000000 43582.000000 -851.000000 C 43582.000000 -659.000000 43582.000000 -467.000000 43582.000000 -275.000000 C 43337.000000 -275.000000 43092.000000 -275.000000 42847.000000 -275.000000 C 42847.000000 -294.000000 42847.000000 -313.000000 42847.000000 -332.000000 C 43073.333333 -332.000000 43299.666667 -332.000000 43526.000000 -332.000000 C 43526.000000 -486.333333 43526.000000 -640.666667 43526.000000 -795.000000 C 43299.666667 -795.000000 43073.333333 -795.000000 42847.000000 -795.000000 C 42847.000000 -813.666667 42847.000000 -832.333333 42847.000000 -851.000000z M 42432.000000 -1486.000000 C 42942.000000 -1486.000000 43452.000000 -1486.000000 43962.000000 -1486.000000 C 43962.000000 -1467.333333 43962.000000 -1448.666667 43962.000000 -1430.000000 C 43471.333333 -1430.000000 42980.666667 -1430.000000 42490.000000 -1430.000000 C 42490.000000 -906.666667 42490.000000 -383.333333 42490.000000 140.000000 C 42470.666667 140.000000 42451.333333 140.000000 42432.000000 140.000000 C 42432.000000 -402.000000 42432.000000 -944.000000 42432.000000 -1486.000000z M 43914.000000 -1486.000000 C 43933.333333 -1486.000000 43952.666667 -1486.000000 43972.000000 -1486.000000 C 43972.000000 -979.666667 43972.000000 -473.333333 43972.000000 33.000000 C 43972.000000 62.333333 43966.333333 84.000000 43955.000000 98.000000 C 43944.333333 112.000000 43928.333333 121.666667 43907.000000 127.000000 C 43886.333333 131.666667 43852.333333 134.666667 43805.000000 136.000000 C 43757.666667 137.333333 43691.666667 137.333333 43607.000000 136.000000 C 43605.666667 131.333333 43603.333333 126.000000 43600.000000 120.000000 C 43597.333333 114.000000 43594.333333 107.333333 43591.000000 100.000000 C 43587.666667 93.333333 43584.000000 87.666667 43580.000000 83.000000 C 43650.666667 83.666667 43711.666667 84.000000 43763.000000 84.000000 C 43815.000000 84.000000 43849.333333 83.666667 43866.000000 83.000000 C 43884.000000 81.666667 43896.333333 77.333333 43903.000000 70.000000 C 43910.333333 63.333333 43914.000000 51.666667 43914.000000 35.000000 C 43914.000000 -472.000000 43914.000000 -979.000000 43914.000000 -1486.000000z "/>
</g></svg>
