<?xml version="1.0" encoding="utf-8"?>
<svg xmlns="http://www.w3.org/2000/svg" xmlns:ev="http://www.w3.org/2001/xml-events" xmlns:xlink="http://www.w3.org/1999/xlink" version="1.1" baseProfile="full" width="20903.0" height="1740.0" viewBox="106.0 -1596.0 20903.0 1740.0">
<defs/>
<g><path d="M 2966.000000 -38.000000 C 2968.666667 -50.000000 2971.000000 -62.333333 2973.000000 -75.000000 C 2975.000000 -87.666667 2976.000000 -100.333333 2976.000000 -113.000000 C 2976.000000 -123.666667 2976.000000 -151.333333 2976.000000 -196.000000 C 2976.000000 -240.666667 2976.000000 -296.666667 2976.000000 -364.000000 C 2976.000000 -431.333333 2976.000000 -504.000000 2976.000000 -582.000000 C 2976.000000 -660.000000 2976.000000 -738.333333 2976.000000 -817.000000 C 2976.000000 -895.666667 2976.000000 -968.666667 2976.000000 -1036.000000 C 2976.000000 -1103.333333 2976.000000 -1160.000000 2976.000000 -1206.000000 C 2976.000000 -1252.000000 2976.000000 -1281.333333 2976.000000 -1294.000000 C 2976.000000 -1323.333333 2975.333333 -1347.333333 2974.000000 -1366.000000 C 2972.666667 -1384.666667 2971.333333 -1400.333333 2970.000000 -1413.000000 C 2993.000000 -1413.000000 3016.000000 -1413.000000 3039.000000 -1413.000000 C 3037.666667 -1400.333333 3036.666667 -1384.666667 3036.000000 -1366.000000 C 3036.000000 -1347.333333 3036.000000 -1323.333333 3036.000000 -1294.000000 C 3036.000000 -1281.333333 3036.000000 -1250.333333 3036.000000 -1201.000000 C 3036.000000 -1151.666667 3036.000000 -1090.333333 3036.000000 -1017.000000 C 3036.000000 -944.333333 3036.000000 -865.666667 3036.000000 -781.000000 C 3036.000000 -697.000000 3036.000000 -614.000000 3036.000000 -532.000000 C 3036.000000 -450.000000 3036.000000 -375.000000 3036.000000 -307.000000 C 3036.000000 -239.000000 3036.000000 -184.666667 3036.000000 -144.000000 C 3036.000000 -103.333333 3036.000000 -83.000000 3036.000000 -83.000000 C 3102.000000 -115.000000 3174.666667 -157.000000 3254.000000 -209.000000 C 3333.333333 -261.666667 3410.666667 -323.000000 3486.000000 -393.000000 C 3562.000000 -463.666667 3627.000000 -540.000000 3681.000000 -622.000000 C 3693.000000 -605.333333 3705.000000 -588.666667 3717.000000 -572.000000 C 3659.666667 -491.333333 3594.333333 -417.000000 3521.000000 -349.000000 C 3448.333333 -281.666667 3372.333333 -221.333333 3293.000000 -168.000000 C 3213.666667 -114.666667 3135.666667 -69.666667 3059.000000 -33.000000 C 3047.000000 -27.666667 3036.666667 -22.000000 3028.000000 -16.000000 C 3020.000000 -10.666667 3013.666667 -6.000000 3009.000000 -2.000000 C 2994.666667 -14.000000 2980.333333 -26.000000 2966.000000 -38.000000z M 2097.000000 -29.000000 C 2173.666667 -85.000000 2241.666667 -153.666667 2301.000000 -235.000000 C 2360.333333 -316.333333 2406.000000 -409.000000 2438.000000 -513.000000 C 2452.666667 -560.333333 2464.000000 -618.000000 2472.000000 -686.000000 C 2480.000000 -754.666667 2485.666667 -826.666667 2489.000000 -902.000000 C 2492.333333 -978.000000 2494.333333 -1050.666667 2495.000000 -1120.000000 C 2495.666667 -1190.000000 2496.000000 -1250.000000 2496.000000 -1300.000000 C 2496.000000 -1318.000000 2495.333333 -1335.333333 2494.000000 -1352.000000 C 2492.666667 -1368.666667 2490.666667 -1385.333333 2488.000000 -1402.000000 C 2511.666667 -1402.000000 2535.333333 -1402.000000 2559.000000 -1402.000000 C 2557.666667 -1390.000000 2556.666667 -1378.333333 2556.000000 -1367.000000 C 2556.000000 -1355.666667 2555.666667 -1344.333333 2555.000000 -1333.000000 C 2554.333333 -1322.333333 2554.000000 -1311.333333 2554.000000 -1300.000000 C 2554.000000 -1250.000000 2553.333333 -1189.333333 2552.000000 -1118.000000 C 2550.666667 -1047.333333 2547.666667 -972.666667 2543.000000 -894.000000 C 2538.333333 -815.333333 2532.000000 -740.666667 2524.000000 -670.000000 C 2516.666667 -599.333333 2506.000000 -540.333333 2492.000000 -493.000000 C 2464.000000 -396.333333 2420.000000 -303.666667 2360.000000 -215.000000 C 2300.666667 -127.000000 2231.333333 -52.000000 2152.000000 10.000000 C 2133.666667 -3.000000 2115.333333 -16.000000 2097.000000 -29.000000z "/>
</g></svg>
