<?xml version="1.0" encoding="utf-8"?>
<svg xmlns="http://www.w3.org/2000/svg" xmlns:ev="http://www.w3.org/2001/xml-events" xmlns:xlink="http://www.w3.org/1999/xlink" version="1.1" baseProfile="full" width="17103.0" height="1740.3" viewBox="60.0 -1597.0 17103.0 1740.3">
<defs/>
<g><path d="M 134.000000 -996.000000 C 676.333333 -996.000000 1218.666667 -996.000000 1761.000000 -996.000000 C 1761.000000 -977.000000 1761.000000 -958.000000 1761.000000 -939.000000 C 1218.666667 -939.000000 676.333333 -939.000000 134.000000 -939.000000 C 134.000000 -958.000000 134.000000 -977.000000 134.000000 -996.000000z M 282.000000 -1340.000000 C 649.333333 -1340.000000 1016.666667 -1340.000000 1384.000000 -1340.000000 C 1384.000000 -1321.333333 1384.000000 -1302.666667 1384.000000 -1284.000000 C 1016.666667 -1284.000000 649.333333 -1284.000000 282.000000 -1284.000000 C 282.000000 -1302.666667 282.000000 -1321.333333 282.000000 -1340.000000z M 814.000000 -1596.000000 C 832.666667 -1596.000000 851.333333 -1596.000000 870.000000 -1596.000000 C 870.000000 -1387.333333 870.000000 -1178.666667 870.000000 -970.000000 C 851.333333 -970.000000 832.666667 -970.000000 814.000000 -970.000000 C 814.000000 -1178.666667 814.000000 -1387.333333 814.000000 -1596.000000z M 1511.000000 -776.000000 C 1526.333333 -760.666667 1541.666667 -745.333333 1557.000000 -730.000000 C 1481.666667 -709.333333 1391.666667 -690.333333 1287.000000 -673.000000 C 1183.000000 -655.666667 1074.000000 -640.000000 960.000000 -626.000000 C 846.000000 -612.000000 736.000000 -600.333333 630.000000 -591.000000 C 628.666667 -597.666667 626.000000 -605.666667 622.000000 -615.000000 C 618.000000 -625.000000 614.333333 -632.333333 611.000000 -637.000000 C 689.000000 -645.000000 769.666667 -654.000000 853.000000 -664.000000 C 937.000000 -674.666667 1019.666667 -685.666667 1101.000000 -697.000000 C 1182.333333 -708.333333 1258.333333 -720.666667 1329.000000 -734.000000 C 1400.333333 -748.000000 1461.000000 -762.000000 1511.000000 -776.000000z M 1634.000000 -1494.000000 C 1650.000000 -1483.666667 1666.000000 -1473.333333 1682.000000 -1463.000000 C 1550.000000 -1311.666667 1399.333333 -1173.333333 1230.000000 -1048.000000 C 1061.333333 -922.666667 881.333333 -810.000000 690.000000 -710.000000 C 498.666667 -610.666667 303.333333 -523.666667 104.000000 -449.000000 C 101.333333 -454.333333 97.333333 -460.000000 92.000000 -466.000000 C 86.666667 -472.666667 81.000000 -479.000000 75.000000 -485.000000 C 69.666667 -491.666667 64.666667 -497.000000 60.000000 -501.000000 C 263.333333 -571.666667 461.333333 -656.333333 654.000000 -755.000000 C 846.666667 -854.333333 1026.666667 -966.000000 1194.000000 -1090.000000 C 1362.000000 -1214.666667 1508.666667 -1349.333333 1634.000000 -1494.000000z M 624.000000 -780.000000 C 643.333333 -777.333333 662.666667 -774.666667 682.000000 -772.000000 C 670.000000 -715.333333 656.000000 -654.666667 640.000000 -590.000000 C 624.000000 -525.333333 608.000000 -463.000000 592.000000 -403.000000 C 576.000000 -343.000000 561.000000 -290.666667 547.000000 -246.000000 C 528.000000 -249.000000 509.000000 -252.000000 490.000000 -255.000000 C 505.333333 -300.333333 521.000000 -353.333333 537.000000 -414.000000 C 553.000000 -474.666667 568.666667 -537.333333 584.000000 -602.000000 C 599.333333 -666.666667 612.666667 -726.000000 624.000000 -780.000000z M 1490.000000 -405.000000 C 1509.666667 -405.000000 1529.333333 -405.000000 1549.000000 -405.000000 C 1549.000000 -405.000000 1548.666667 -402.666667 1548.000000 -398.000000 C 1548.000000 -394.000000 1548.000000 -389.000000 1548.000000 -383.000000 C 1548.000000 -377.000000 1547.333333 -372.333333 1546.000000 -369.000000 C 1530.666667 -267.666667 1515.666667 -184.666667 1501.000000 -120.000000 C 1487.000000 -55.333333 1472.000000 -5.000000 1456.000000 31.000000 C 1440.000000 67.666667 1422.000000 95.000000 1402.000000 113.000000 C 1387.333333 125.000000 1371.666667 132.666667 1355.000000 136.000000 C 1339.000000 140.000000 1317.333333 142.000000 1290.000000 142.000000 C 1263.333333 143.333333 1222.666667 143.000000 1168.000000 141.000000 C 1114.000000 139.000000 1056.666667 135.666667 996.000000 131.000000 C 995.333333 124.333333 993.333333 115.666667 990.000000 105.000000 C 986.666667 95.000000 982.333333 85.666667 977.000000 77.000000 C 1042.333333 83.000000 1103.666667 87.000000 1161.000000 89.000000 C 1219.000000 91.000000 1258.333333 92.000000 1279.000000 92.000000 C 1300.333333 92.000000 1317.000000 91.000000 1329.000000 89.000000 C 1341.666667 87.000000 1352.333333 82.333333 1361.000000 75.000000 C 1387.000000 53.000000 1409.666667 7.333333 1429.000000 -62.000000 C 1449.000000 -132.000000 1469.333333 -242.666667 1490.000000 -394.000000 C 1490.000000 -397.666667 1490.000000 -401.333333 1490.000000 -405.000000z M 547.000000 -405.000000 C 869.666667 -405.000000 1192.333333 -405.000000 1515.000000 -405.000000 C 1515.000000 -386.000000 1515.000000 -367.000000 1515.000000 -348.000000 C 1190.000000 -348.000000 865.000000 -348.000000 540.000000 -348.000000 C 542.333333 -367.000000 544.666667 -386.000000 547.000000 -405.000000z "/>
</g></svg>
