<?xml version="1.0" ?>
<svg xmlns="http://www.w3.org/2000/svg" version="1.1" width="600" height="600">
  <defs/>
  <g>
    <path stroke-width="0" fill="rgb(0, 0, 0)" opacity="1.0" d="M 198.39144897460938 305.3807373046875 C 264.96978759765625 305.3807373046875 331.54815673828125 305.3807373046875 398.12646484375 305.3807373046875 C 398.12646484375 309.23394775390625 398.12646484375 313.087158203125 398.12646484375 316.94036865234375 C 331.54815673828125 316.94036865234375 264.96978759765625 316.94036865234375 198.39144897460938 316.94036865234375 C 198.39144897460938 313.087158203125 198.39144897460938 309.23394775390625 198.39144897460938 305.3807373046875M 191.78863525390625 358.63763427734375 C 263.319091796875 358.63763427734375 334.84954833984375 358.63763427734375 406.3800048828125 358.63763427734375 C 406.3800048828125 362.4219970703125 406.3800048828125 366.2064208984375 406.3800048828125 369.9908447265625 C 334.84954833984375 369.9908447265625 263.319091796875 369.9908447265625 191.78863525390625 369.9908447265625 C 191.78863525390625 366.2064208984375 191.78863525390625 362.4219970703125 191.78863525390625 358.63763427734375M 289.5927734375 310.12841796875 C 293.58197021484375 310.12841796875 297.5711669921875 310.12841796875 301.56036376953125 310.12841796875 C 301.56036376953125 322.307373046875 301.56036376953125 334.4862060546875 301.56036376953125 346.6651611328125 C 301.56036376953125 354.64678955078125 300.5286865234375 363.110107421875 298.46533203125 372.0550537109375 C 296.53948974609375 381.0 292.2064208984375 390.22021484375 285.4660339355469 399.715576171875 C 278.72564697265625 409.0733642578125 268.40875244140625 418.018310546875 254.51535034179688 426.5504150390625 C 240.6219482421875 435.08258056640625 221.91397094726562 442.9266357421875 198.39144897460938 450.08258056640625 C 197.70367431640625 448.843994140625 196.60321044921875 447.261474609375 195.09005737304688 445.3348388671875 C 193.576904296875 443.5458984375 192.3388671875 442.1009521484375 191.3759765625 441.0 C 214.0731201171875 434.66973876953125 232.0245361328125 427.5137939453125 245.23016357421875 419.5321044921875 C 258.435791015625 411.412841796875 268.2024230957031 403.156005859375 274.5301208496094 394.761474609375 C 280.8578186035156 386.2293701171875 284.915771484375 377.8348388671875 286.70404052734375 369.5780029296875 C 288.6298828125 361.1834716796875 289.5927734375 353.5458984375 289.5927734375 346.6651611328125 C 289.5927734375 334.4862060546875 289.5927734375 322.307373046875 289.5927734375 310.12841796875M 304.65545654296875 362.14678955078125 C 312.0836181640625 381.6881103515625 324.3262939453125 397.9266357421875 341.383544921875 410.8624267578125 C 358.578369140625 423.79815673828125 379.6248779296875 432.8118896484375 404.52294921875 437.9036865234375 C 402.87225341796875 438.866943359375 401.29034423828125 440.3118896484375 399.7772216796875 442.238525390625 C 398.401611328125 444.302734375 397.16357421875 446.1605224609375 396.0631103515625 447.8118896484375 C 371.3026123046875 441.481689453125 349.9122314453125 431.29815673828125 331.89202880859375 417.261474609375 C 314.00946044921875 403.2247314453125 301.21649169921875 385.7476806640625 293.51318359375 364.83026123046875 C 297.227294921875 363.935791015625 300.94134521484375 363.041259765625 304.65545654296875 362.14678955078125M 230.99285888671875 265.7477111816406 C 234.29425048828125 264.44036865234375 237.59564208984375 263.1330261230469 240.89703369140625 261.82568359375 C 246.124267578125 267.8807373046875 250.9388427734375 274.83026123046875 255.3406982421875 282.67431640625 C 259.880126953125 290.51837158203125 263.1127624511719 297.33026123046875 265.03857421875 303.110107421875 C 261.4620666503906 304.69268798828125 257.8855285644531 306.27520751953125 254.30902099609375 307.8577880859375 C 252.520751953125 301.802734375 249.49447631835938 294.85321044921875 245.23016357421875 287.0091552734375 C 240.9658203125 279.1651611328125 236.22006225585938 272.0780029296875 230.99285888671875 265.7477111816406M 351.700439453125 260.17431640625 C 355.2769775390625 262.0321044921875 358.853515625 263.889892578125 362.4300537109375 265.7477111816406 C 358.165771484375 273.17889404296875 353.695068359375 280.8165283203125 349.01806640625 288.6605529785156 C 344.4786376953125 296.366943359375 340.00799560546875 303.17889404296875 335.60614013671875 309.0963134765625 C 332.78619384765625 307.5137939453125 329.9661865234375 305.93121337890625 327.146240234375 304.3486328125 C 331.135498046875 298.15594482421875 335.537353515625 290.7935791015625 340.3519287109375 282.261474609375 C 345.30401611328125 273.7293701171875 349.08685302734375 266.3669738769531 351.700439453125 260.17431640625M 147.01333618164062 185.03668212890625 C 187.93701171875 185.03668212890625 228.86068725585938 185.03668212890625 269.78436279296875 185.03668212890625 C 269.78436279296875 188.82110595703125 269.78436279296875 192.60549926757812 269.78436279296875 196.389892578125 C 228.86068725585938 196.389892578125 187.93701171875 196.389892578125 147.01333618164062 196.389892578125 C 147.01333618164062 192.60549926757812 147.01333618164062 188.82110595703125 147.01333618164062 185.03668212890625M 328.38427734375 185.03668212890625 C 369.85821533203125 185.03668212890625 411.3321533203125 185.03668212890625 452.8060302734375 185.03668212890625 C 452.8060302734375 188.82110595703125 452.8060302734375 192.60549926757812 452.8060302734375 196.389892578125 C 411.3321533203125 196.389892578125 369.85821533203125 196.389892578125 328.38427734375 196.389892578125 C 328.38427734375 192.60549926757812 328.38427734375 188.82110595703125 328.38427734375 185.03668212890625M 448.06024169921875 130.74771118164062 C 452.0494384765625 130.74771118164062 456.03863525390625 130.74771118164062 460.02783203125 130.74771118164062 C 460.02783203125 236.435791015625 460.02783203125 342.12384033203125 460.02783203125 447.8118896484375 C 460.02783203125 453.59173583984375 459.1336669921875 457.8577880859375 457.345458984375 460.610107421875 C 455.6947021484375 463.3624267578125 452.73724365234375 465.4266357421875 448.472900390625 466.802734375 C 444.75885009765625 467.76605224609375 438.706298828125 468.3165283203125 430.315185546875 468.4541015625 C 422.0616455078125 468.59173583984375 411.60723876953125 468.6605224609375 398.95184326171875 468.6605224609375 C 398.6767578125 467.14678955078125 397.98895263671875 465.08258056640625 396.888427734375 462.4678955078125 C 395.925537109375 459.9908447265625 394.89385986328125 457.8577880859375 393.79339599609375 456.06884765625 C 404.9356689453125 456.343994140625 414.83984375 456.481689453125 423.50604248046875 456.481689453125 C 432.1722412109375 456.481689453125 437.94970703125 456.343994140625 440.83837890625 456.06884765625 C 443.589599609375 455.7935791015625 445.4466552734375 455.10546875 446.4095458984375 454.00457763671875 C 447.510009765625 453.041259765625 448.06024169921875 451.11468505859375 448.06024169921875 448.2247314453125 C 448.06024169921875 342.3990478515625 448.06024169921875 236.57339477539062 448.06024169921875 130.74771118164062M 147.83868408203125 130.74771118164062 C 190.619384765625 130.74771118164062 233.40011596679688 130.74771118164062 276.18084716796875 130.74771118164062 C 276.18084716796875 171.55044555664062 276.18084716796875 212.35321044921875 276.18084716796875 253.15594482421875 C 233.40011596679688 253.15594482421875 190.619384765625 253.15594482421875 147.83868408203125 253.15594482421875 C 147.83868408203125 249.302734375 147.83868408203125 245.44955444335938 147.83868408203125 241.5963134765625 C 186.76776123046875 241.5963134765625 225.69683837890625 241.5963134765625 264.62591552734375 241.5963134765625 C 264.62591552734375 208.43121337890625 264.62591552734375 175.26605224609375 264.62591552734375 142.10092163085938 C 225.69683837890625 142.10092163085938 186.76776123046875 142.10092163085938 147.83868408203125 142.10092163085938 C 147.83868408203125 138.31649780273438 147.83868408203125 134.53213500976562 147.83868408203125 130.74771118164062M 452.393310546875 130.74771118164062 C 452.393310546875 134.53213500976562 452.393310546875 138.31649780273438 452.393310546875 142.10092163085938 C 412.22625732421875 142.10092163085938 372.05914306640625 142.10092163085938 331.89202880859375 142.10092163085938 C 331.89202880859375 175.26605224609375 331.89202880859375 208.43121337890625 331.89202880859375 241.5963134765625 C 372.05914306640625 241.5963134765625 412.22625732421875 241.5963134765625 452.393310546875 241.5963134765625 C 452.393310546875 245.44955444335938 452.393310546875 249.302734375 452.393310546875 253.15594482421875 C 408.443359375 253.15594482421875 364.493408203125 253.15594482421875 320.54345703125 253.15594482421875 C 320.54345703125 212.35321044921875 320.54345703125 171.55044555664062 320.54345703125 130.74771118164062 C 364.493408203125 130.74771118164062 408.443359375 130.74771118164062 452.393310546875 130.74771118164062M 140.20419311523438 130.74771118164062 C 144.19338989257812 130.74771118164062 148.18258666992188 130.74771118164062 152.17178344726562 130.74771118164062 C 152.17178344726562 243.66055297851562 152.17178344726562 356.5733642578125 152.17178344726562 469.4862060546875 C 148.18258666992188 469.4862060546875 144.19338989257812 469.4862060546875 140.20419311523438 469.4862060546875 C 140.20419311523438 356.5733642578125 140.20419311523438 243.66055297851562 140.20419311523438 130.74771118164062"/>
  </g>
</svg>
