<?xml version="1.0" ?>
<svg xmlns="http://www.w3.org/2000/svg" version="1.1" width="600" height="600">
  <defs/>
  <g>
    <path stroke-width="0" fill="rgb(0, 0, 0)" opacity="1.0" d="M 302.009765625 156.13790893554688 C 342.4169921875 156.13790893554688 382.82470703125 156.13790893554688 423.232177734375 156.13790893554688 C 423.232177734375 159.9310302734375 423.232177734375 163.72412109375 423.232177734375 167.51724243164062 C 382.82470703125 167.51724243164062 342.4169921875 167.51724243164062 302.009765625 167.51724243164062 C 302.009765625 163.72412109375 302.009765625 159.9310302734375 302.009765625 156.13790893554688M 272.635009765625 333.6551513671875 C 331.66015625 333.6551513671875 390.685546875 333.6551513671875 449.710693359375 333.6551513671875 C 449.710693359375 337.5172119140625 449.710693359375 341.3792724609375 449.710693359375 345.24139404296875 C 390.685546875 345.24139404296875 331.66015625 345.24139404296875 272.635009765625 345.24139404296875 C 272.635009765625 341.3792724609375 272.635009765625 337.5172119140625 272.635009765625 333.6551513671875M 226.91796875 456.75860595703125 C 308.215576171875 456.75860595703125 389.51318359375 456.75860595703125 470.810791015625 456.75860595703125 C 470.810791015625 460.6207275390625 470.810791015625 464.4827880859375 470.810791015625 468.3448486328125 C 389.51318359375 468.3448486328125 308.215576171875 468.3448486328125 226.91796875 468.3448486328125 C 226.91796875 464.4827880859375 226.91796875 460.6207275390625 226.91796875 456.75860595703125M 263.946533203125 392.0 C 323.66162109375 392.0 383.376220703125 392.0 443.091064453125 392.0 C 443.091064453125 395.862060546875 443.091064453125 399.72412109375 443.091064453125 403.586181640625 C 383.376220703125 403.586181640625 323.66162109375 403.586181640625 263.946533203125 403.586181640625 C 263.946533203125 399.72412109375 263.946533203125 395.862060546875 263.946533203125 392.0M 418.267333984375 156.13790893554688 C 419.0947265625 156.13790893554688 419.92236328125 156.13790893554688 420.749755859375 156.13790893554688 C 421.5771484375 155.862060546875 422.40478515625 155.58621215820312 423.232177734375 155.31033325195312 C 425.714599609375 156.89654541015625 428.19677734375 158.48275756835938 430.67919921875 160.0689697265625 C 421.990966796875 179.10345458984375 410.475341796875 196.55172729492188 396.1328125 212.41378784179688 C 381.790283203125 228.27584838867188 365.792724609375 242.48272705078125 348.140380859375 255.03448486328125 C 330.625732421875 267.4482727050781 312.283935546875 278.137939453125 293.114501953125 287.10345458984375 C 274.0830078125 295.9310302734375 255.465087890625 303.10345458984375 237.26123046875 308.62066650390625 C 236.43359375 306.96551513671875 235.33056640625 305.17242431640625 233.951171875 303.24139404296875 C 232.710205078125 301.31036376953125 231.400146484375 299.7930908203125 230.020751953125 298.68963623046875 C 248.0869140625 293.862060546875 266.428955078125 287.17242431640625 285.046875 278.62066650390625 C 303.802490234375 270.0689697265625 321.730712890625 259.862060546875 338.83154296875 248.0 C 356.070068359375 236.0 371.5849609375 222.55169677734375 385.3759765625 207.6551513671875 C 399.1669921875 192.62069702148438 410.130859375 176.34481811523438 418.267333984375 158.82757568359375 C 418.267333984375 157.9310302734375 418.267333984375 157.03448486328125 418.267333984375 156.13790893554688M 299.94091796875 168.34481811523438 C 309.732421875 189.03448486328125 323.247802734375 208.0 340.486328125 225.24139404296875 C 357.72509765625 242.34481811523438 377.583984375 257.03448486328125 400.063232421875 269.3103332519531 C 422.542724609375 281.4482727050781 446.814697265625 290.4137878417969 472.879638671875 296.2069091796875 C 471.224609375 297.3103332519531 469.638671875 298.89654541015625 468.12158203125 300.96551513671875 C 466.742431640625 302.89654541015625 465.501220703125 304.62066650390625 464.398193359375 306.137939453125 C 438.746826171875 299.7930908203125 414.61279296875 290.2758483886719 391.99560546875 277.586181640625 C 369.37841796875 264.89654541015625 349.312744140625 249.6551513671875 331.798095703125 231.862060546875 C 314.283447265625 213.9310302734375 300.354736328125 194.0689697265625 290.011474609375 172.27584838867188 C 293.3212890625 170.96548461914062 296.631103515625 169.65518188476562 299.94091796875 168.34481811523438M 321.86865234375 121.586181640625 C 326.350830078125 122.20687866210938 330.832763671875 122.82757568359375 335.314697265625 123.44827270507812 C 325.523193359375 141.24136352539062 312.421630859375 160.27584838867188 296.010498046875 180.55172729492188 C 279.599365234375 200.82757568359375 260.01611328125 219.17239379882812 237.26123046875 235.586181640625 C 236.70947265625 234.48272705078125 235.81298828125 233.4482421875 234.57177734375 232.48275756835938 C 233.46875 231.51724243164062 232.29638671875 230.68963623046875 231.05517578125 230.0 C 229.951904296875 229.17242431640625 228.8486328125 228.48272705078125 227.745361328125 227.9310302734375 C 242.501708984375 217.586181640625 255.87890625 206.27587890625 267.876953125 194.0 C 280.01318359375 181.72412109375 290.632080078125 169.31033325195312 299.734130859375 156.75860595703125 C 308.97412109375 144.06893920898438 316.35205078125 132.34481811523438 321.86865234375 121.586181640625M 285.66748046875 294.3448181152344 C 289.666748046875 295.10345458984375 293.666259765625 295.862060546875 297.66552734375 296.62066650390625 C 292.287109375 314.137939453125 285.184814453125 330.75860595703125 276.3583984375 346.4827880859375 C 267.5322265625 362.2069091796875 257.947509765625 375.6551513671875 247.604248046875 386.82757568359375 C 247.052734375 386.0 246.15625 385.24139404296875 244.9150390625 384.5517578125 C 243.81201171875 383.72412109375 242.57080078125 382.82757568359375 241.191650390625 381.862060546875 C 239.950439453125 380.89654541015625 238.778076171875 380.2069091796875 237.6748046875 379.7930908203125 C 248.56982421875 368.89654541015625 258.08544921875 356.0689697265625 266.22216796875 341.310302734375 C 274.49658203125 326.413818359375 280.978271484375 310.75860595703125 285.66748046875 294.3448181152344M 345.244384765625 290.0 C 349.24365234375 290.0 353.2431640625 290.0 357.242431640625 290.0 C 357.242431640625 347.17242431640625 357.242431640625 404.3448486328125 357.242431640625 461.5172119140625 C 353.2431640625 461.5172119140625 349.24365234375 461.5172119140625 345.244384765625 461.5172119140625 C 345.244384765625 404.3448486328125 345.244384765625 347.17242431640625 345.244384765625 290.0M 128.8642578125 139.37930297851562 C 159.962646484375 139.37930297851562 191.0615234375 139.37930297851562 222.159912109375 139.37930297851562 C 222.159912109375 143.24136352539062 222.159912109375 147.10345458984375 222.159912109375 150.96551513671875 C 194.991943359375 150.96551513671875 167.823486328125 150.96551513671875 140.655517578125 150.96551513671875 C 140.655517578125 260.5517272949219 140.655517578125 370.137939453125 140.655517578125 479.72412109375 C 136.72509765625 479.72412109375 132.794677734375 479.72412109375 128.8642578125 479.72412109375 C 128.8642578125 366.27587890625 128.8642578125 252.82757568359375 128.8642578125 139.37930297851562M 219.05712890625 139.37930297851562 C 219.815673828125 139.37930297851562 220.573974609375 139.37930297851562 221.33251953125 139.37930297851562 C 222.159912109375 139.10342407226562 222.987548828125 138.82757568359375 223.81494140625 138.55172729492188 C 226.29736328125 140.41378784179688 228.77978515625 142.27584838867188 231.261962890625 144.13790893554688 C 226.98681640625 154.48275756835938 222.366943359375 165.51724243164062 217.402099609375 177.24136352539062 C 212.575439453125 188.82757568359375 207.610595703125 200.55169677734375 202.5078125 212.41378784179688 C 197.4052734375 224.13790893554688 192.164794921875 235.37930297851562 186.7861328125 246.137939453125 C 203.7490234375 263.6551513671875 214.98876953125 279.862060546875 220.505126953125 294.75860595703125 C 226.159423828125 309.5172119140625 228.986572265625 323.5172119140625 228.986572265625 336.75860595703125 C 228.986572265625 345.310302734375 227.88330078125 353.3792724609375 225.6767578125 360.96551513671875 C 223.608154296875 368.413818359375 220.16015625 373.862060546875 215.33349609375 377.310302734375 C 212.989013671875 378.96551513671875 210.230712890625 380.27587890625 207.058837890625 381.24139404296875 C 203.886962890625 382.0689697265625 200.439208984375 382.75860595703125 196.7158203125 383.310302734375 C 187.475830078125 384.137939453125 178.23583984375 384.137939453125 168.995849609375 383.310302734375 C 168.72021484375 381.9310302734375 168.2373046875 380.137939453125 167.5478515625 377.9310302734375 C 166.8583984375 375.72412109375 165.892822265625 373.6551513671875 164.65185546875 371.72412109375 C 170.168212890625 372.0 175.33984375 372.2069091796875 180.16650390625 372.3448486328125 C 185.13134765625 372.4827880859375 189.613525390625 372.413818359375 193.61279296875 372.137939453125 C 199.405029296875 371.586181640625 204.02490234375 370.27587890625 207.47265625 368.2069091796875 C 211.1962890625 365.586181640625 213.74755859375 361.310302734375 215.126708984375 355.3792724609375 C 216.6435546875 349.310302734375 217.402099609375 343.10345458984375 217.402099609375 336.75860595703125 C 217.402099609375 324.3448486328125 214.3681640625 310.89654541015625 208.300048828125 296.4137878417969 C 202.232177734375 281.7930908203125 190.57861328125 265.586181640625 173.340087890625 247.7930908203125 C 177.753173828125 238.55172729492188 182.09716796875 229.24139404296875 186.37255859375 219.862060546875 C 190.647705078125 210.48272705078125 194.78515625 201.24139404296875 198.784423828125 192.13790893554688 C 202.78369140625 182.89654541015625 206.438232421875 174.06893920898438 209.748291015625 165.6551513671875 C 213.196044921875 157.10342407226562 216.298828125 149.24136352539062 219.05712890625 142.0689697265625 C 219.05712890625 141.17239379882812 219.05712890625 140.27584838867188 219.05712890625 139.37930297851562"/>
  </g>
</svg>
