<?xml version="1.0" encoding="utf-8"?>
<svg xmlns="http://www.w3.org/2000/svg" xmlns:ev="http://www.w3.org/2001/xml-events" xmlns:xlink="http://www.w3.org/1999/xlink" version="1.1" baseProfile="full" width="7407.0" height="1730.0" viewBox="179.0 -1594.0 7407.0 1730.0">
<defs/>
<g><path d="M 361.000000 -430.000000 C 764.666667 -430.000000 1168.333333 -430.000000 1572.000000 -430.000000 C 1572.000000 -410.666667 1572.000000 -391.333333 1572.000000 -372.000000 C 1168.333333 -372.000000 764.666667 -372.000000 361.000000 -372.000000 C 361.000000 -391.333333 361.000000 -410.666667 361.000000 -430.000000z M 367.000000 -664.000000 C 779.666667 -664.000000 1192.333333 -664.000000 1605.000000 -664.000000 C 1605.000000 -488.000000 1605.000000 -312.000000 1605.000000 -136.000000 C 1192.333333 -136.000000 779.666667 -136.000000 367.000000 -136.000000 C 367.000000 -154.666667 367.000000 -173.333333 367.000000 -192.000000 C 761.000000 -192.000000 1155.000000 -192.000000 1549.000000 -192.000000 C 1549.000000 -331.000000 1549.000000 -470.000000 1549.000000 -609.000000 C 1155.000000 -609.000000 761.000000 -609.000000 367.000000 -609.000000 C 367.000000 -627.333333 367.000000 -645.666667 367.000000 -664.000000z M 925.000000 -645.000000 C 944.333333 -645.000000 963.666667 -645.000000 983.000000 -645.000000 C 983.000000 -437.666667 983.000000 -230.333333 983.000000 -23.000000 C 983.000000 6.333333 992.666667 26.000000 1012.000000 36.000000 C 1031.333333 46.666667 1072.333333 52.000000 1135.000000 52.000000 C 1147.666667 52.000000 1169.666667 52.000000 1201.000000 52.000000 C 1232.333333 52.000000 1268.666667 52.000000 1310.000000 52.000000 C 1352.000000 52.000000 1394.000000 52.000000 1436.000000 52.000000 C 1478.666667 52.000000 1517.000000 52.000000 1551.000000 52.000000 C 1585.666667 52.000000 1611.333333 52.000000 1628.000000 52.000000 C 1665.333333 52.000000 1693.000000 45.666667 1711.000000 33.000000 C 1729.000000 21.000000 1741.333333 -3.666667 1748.000000 -41.000000 C 1755.333333 -79.000000 1760.333333 -135.000000 1763.000000 -209.000000 C 1770.333333 -204.333333 1779.333333 -199.666667 1790.000000 -195.000000 C 1801.333333 -190.333333 1811.333333 -186.666667 1820.000000 -184.000000 C 1816.000000 -106.000000 1808.666667 -45.666667 1798.000000 -3.000000 C 1787.333333 39.000000 1769.000000 68.000000 1743.000000 84.000000 C 1717.666667 100.666667 1679.333333 109.000000 1628.000000 109.000000 C 1620.666667 109.000000 1600.333333 109.000000 1567.000000 109.000000 C 1533.666667 109.000000 1494.666667 109.000000 1450.000000 109.000000 C 1406.000000 109.000000 1361.666667 109.000000 1317.000000 109.000000 C 1272.333333 109.000000 1233.666667 109.000000 1201.000000 109.000000 C 1168.333333 109.000000 1148.000000 109.000000 1140.000000 109.000000 C 1085.333333 109.000000 1042.333333 105.666667 1011.000000 99.000000 C 979.666667 93.000000 957.333333 80.000000 944.000000 60.000000 C 931.333333 40.666667 925.000000 12.333333 925.000000 -25.000000 C 925.000000 -231.666667 925.000000 -438.333333 925.000000 -645.000000z M 334.000000 -664.000000 C 352.666667 -664.000000 371.333333 -664.000000 390.000000 -664.000000 C 390.000000 -449.666667 390.000000 -235.333333 390.000000 -21.000000 C 371.333333 -21.000000 352.666667 -21.000000 334.000000 -21.000000 C 334.000000 -235.333333 334.000000 -449.666667 334.000000 -664.000000z M 271.000000 -1500.000000 C 731.666667 -1500.000000 1192.333333 -1500.000000 1653.000000 -1500.000000 C 1653.000000 -1481.333333 1653.000000 -1462.666667 1653.000000 -1444.000000 C 1192.333333 -1444.000000 731.666667 -1444.000000 271.000000 -1444.000000 C 271.000000 -1462.666667 271.000000 -1481.333333 271.000000 -1500.000000z M 363.000000 -1079.000000 C 507.666667 -1079.000000 652.333333 -1079.000000 797.000000 -1079.000000 C 797.000000 -1059.666667 797.000000 -1040.333333 797.000000 -1021.000000 C 652.333333 -1021.000000 507.666667 -1021.000000 363.000000 -1021.000000 C 363.000000 -1040.333333 363.000000 -1059.666667 363.000000 -1079.000000z M 323.000000 -877.000000 C 481.666667 -877.000000 640.333333 -877.000000 799.000000 -877.000000 C 799.000000 -858.000000 799.000000 -839.000000 799.000000 -820.000000 C 640.333333 -820.000000 481.666667 -820.000000 323.000000 -820.000000 C 323.000000 -839.000000 323.000000 -858.000000 323.000000 -877.000000z M 1114.000000 -877.000000 C 1281.000000 -877.000000 1448.000000 -877.000000 1615.000000 -877.000000 C 1615.000000 -858.000000 1615.000000 -839.000000 1615.000000 -820.000000 C 1448.000000 -820.000000 1281.000000 -820.000000 1114.000000 -820.000000 C 1114.000000 -839.000000 1114.000000 -858.000000 1114.000000 -877.000000z M 1114.000000 -1079.000000 C 1264.333333 -1079.000000 1414.666667 -1079.000000 1565.000000 -1079.000000 C 1565.000000 -1059.666667 1565.000000 -1040.333333 1565.000000 -1021.000000 C 1414.666667 -1021.000000 1264.333333 -1021.000000 1114.000000 -1021.000000 C 1114.000000 -1040.333333 1114.000000 -1059.666667 1114.000000 -1079.000000z M 925.000000 -1480.000000 C 944.333333 -1480.000000 963.666667 -1480.000000 983.000000 -1480.000000 C 983.000000 -1234.333333 983.000000 -988.666667 983.000000 -743.000000 C 963.666667 -743.000000 944.333333 -743.000000 925.000000 -743.000000 C 925.000000 -988.666667 925.000000 -1234.333333 925.000000 -1480.000000z M 179.000000 -1281.000000 C 700.333333 -1281.000000 1221.666667 -1281.000000 1743.000000 -1281.000000 C 1743.000000 -1162.000000 1743.000000 -1043.000000 1743.000000 -924.000000 C 1724.000000 -924.000000 1705.000000 -924.000000 1686.000000 -924.000000 C 1686.000000 -1023.666667 1686.000000 -1123.333333 1686.000000 -1223.000000 C 1202.666667 -1223.000000 719.333333 -1223.000000 236.000000 -1223.000000 C 236.000000 -1123.333333 236.000000 -1023.666667 236.000000 -924.000000 C 217.000000 -924.000000 198.000000 -924.000000 179.000000 -924.000000 C 179.000000 -1043.000000 179.000000 -1162.000000 179.000000 -1281.000000z "/>
</g></svg>
