<?xml version="1.0" ?>
<svg xmlns="http://www.w3.org/2000/svg" version="1.1" width="600" height="600">
  <defs/>
  <g>
    <path stroke-width="0" fill="rgb(0, 0, 0)" opacity="1.0" d="M 154.43994140625 272.40069580078125 C 154.04241943359375 272.771484375 153.4063720703125 273.3673095703125 152.53179931640625 274.188232421875 C 151.65725708007812 274.98272705078125 151.02120971679688 275.5653076171875 150.62368774414062 275.93609619140625 C 149.24557495117188 277.207275390625 147.53622436523438 278.716796875 145.49557495117188 280.464599609375 C 143.4814453125 282.21240234375 141.33480834960938 284.01324462890625 139.0556640625 285.86700439453125 C 136.80300903320312 287.7208251953125 134.61660766601562 289.50836181640625 132.4964599609375 291.229736328125 C 130.37631225585938 292.924560546875 128.56094360351562 294.4075927734375 127.05035400390625 295.67877197265625 C 125.354248046875 297.1617431640625 124.201416015625 298.40643310546875 123.59185791015625 299.41278076171875 C 122.98233032226562 300.39263916015625 122.99557495117188 301.3724365234375 123.63162231445312 302.352294921875 C 124.26766967773438 303.3321533203125 125.5264892578125 304.6165771484375 127.40814208984375 306.20556640625 C 129.05123901367188 307.5296630859375 130.84011840820312 308.9862060546875 132.77474975585938 310.57513427734375 C 134.7093505859375 312.1375732421875 136.69699096679688 313.792724609375 138.73764038085938 315.54058837890625 C 140.80477905273438 317.2884521484375 142.88516235351562 319.0892333984375 144.97879028320312 320.9429931640625 C 147.07244873046875 322.770263671875 149.09982299804688 324.61083984375 151.06094360351562 326.464599609375 C 153.0220947265625 328.318359375 154.83746337890625 330.10595703125 156.507080078125 331.8272705078125 C 155.84451293945312 332.409912109375 155.18197631835938 332.9925537109375 154.51943969726562 333.57513427734375 C 153.4593505859375 332.35693359375 152.18728637695312 331.00634765625 150.70318603515625 329.5233154296875 C 149.16607666015625 328.0137939453125 147.32421875 326.2791748046875 145.17755126953125 324.31951904296875 C 143.05743408203125 322.35980224609375 140.81802368164062 320.3603515625 138.4593505859375 318.32122802734375 C 136.1007080078125 316.255615234375 133.78179931640625 314.2694091796875 131.50265502929688 312.3626708984375 C 129.25 310.4559326171875 127.2093505859375 308.7611083984375 125.3807373046875 307.278076171875 C 123.0750732421875 305.3978271484375 121.6307373046875 303.795654296875 121.04769897460938 302.47149658203125 C 120.46466064453125 301.1473388671875 120.58392333984375 299.83648681640625 121.40548706054688 298.538818359375 C 122.2535400390625 297.2412109375 123.6978759765625 295.731689453125 125.738525390625 294.0103759765625 C 127.11660766601562 292.84515380859375 128.85247802734375 291.41510009765625 130.94610595703125 289.72021484375 C 133.06625366210938 287.99884033203125 135.27914428710938 286.184814453125 137.58480834960938 284.278076171875 C 139.91696166992188 282.371337890625 142.11660766601562 280.53076171875 144.18374633789062 278.7564697265625 C 146.25088500976562 276.982177734375 147.92050170898438 275.40643310546875 149.19256591796875 274.02935791015625 C 149.59011840820312 273.55267333984375 150.0936279296875 272.943603515625 150.70318603515625 272.20208740234375 C 151.31271362304688 271.43408203125 151.75 270.7984619140625 152.0150146484375 270.29534912109375 C 152.82333374023438 270.99713134765625 153.63162231445312 271.69891357421875 154.43994140625 272.40069580078125"/>
    <path stroke-width="0" fill="rgb(0, 0, 0)" opacity="1.0" d="M 223.05300903320312 271.2884521484375 C 223.05300903320312 271.42083740234375 223.0264892578125 271.69891357421875 222.9735107421875 272.12261962890625 C 222.92050170898438 272.5198974609375 222.8807373046875 272.93035888671875 222.854248046875 273.35406494140625 C 222.82772827148438 273.75128173828125 222.81448364257812 274.069091796875 222.81448364257812 274.30743408203125 C 222.761474609375 275.28729248046875 222.7349853515625 276.5849609375 222.7349853515625 278.2003173828125 C 222.7349853515625 279.789306640625 222.7349853515625 281.537109375 222.7349853515625 283.44384765625 C 222.7349853515625 285.3505859375 222.74822998046875 287.27056884765625 222.77471923828125 289.20379638671875 C 222.80123901367188 291.13702392578125 222.82772827148438 292.96429443359375 222.854248046875 294.6856689453125 C 222.8807373046875 296.406982421875 222.89398193359375 297.8768310546875 222.89398193359375 299.094970703125 C 222.19171142578125 298.20782470703125 221.48941040039062 297.3206787109375 220.787109375 296.4334716796875 C 220.787109375 296.0362548828125 220.787109375 295.17559814453125 220.787109375 293.8514404296875 C 220.787109375 292.52734375 220.77386474609375 290.93841552734375 220.74734497070312 289.0845947265625 C 220.72085571289062 287.2308349609375 220.6943359375 285.33740234375 220.6678466796875 283.4041748046875 C 220.641357421875 281.470947265625 220.61483764648438 279.69659423828125 220.58834838867188 278.0811767578125 C 220.56182861328125 276.43927001953125 220.5220947265625 275.18133544921875 220.46908569335938 274.30743408203125 C 220.46908569335938 273.80426025390625 220.4293212890625 273.2083740234375 220.34982299804688 272.5198974609375 C 220.27032470703125 271.831298828125 220.20407104492188 271.42083740234375 220.15106201171875 271.2884521484375 C 221.11837768554688 271.2884521484375 222.085693359375 271.2884521484375 223.05300903320312 271.2884521484375M 185.12896728515625 283.00689697265625 C 187.01058959960938 282.9539794921875 189.18374633789062 282.8876953125 191.64840698242188 282.80828857421875 C 194.11306762695312 282.702392578125 196.7764892578125 282.596435546875 199.63870239257812 282.490478515625 C 202.52740478515625 282.38458251953125 205.50885009765625 282.2918701171875 208.58303833007812 282.21240234375 C 211.6572265625 282.13299560546875 214.7049560546875 282.0667724609375 217.72613525390625 282.0137939453125 C 220.77386474609375 281.9608154296875 223.70230102539062 281.93438720703125 226.511474609375 281.93438720703125 C 229.18817138671875 281.93438720703125 231.65283203125 281.9476318359375 233.90548706054688 281.97412109375 C 236.18463134765625 282.0006103515625 238.19876098632812 282.0137939453125 239.9478759765625 282.0137939453125 C 241.7235107421875 282.0137939453125 243.24737548828125 282.027099609375 244.51943969726562 282.05352783203125 C 245.79150390625 282.08001708984375 246.798583984375 282.09326171875 247.5406494140625 282.09326171875 C 247.5406494140625 282.86126708984375 247.5406494140625 283.6292724609375 247.5406494140625 284.397216796875 C 245.65899658203125 284.29132080078125 243.08834838867188 284.21185302734375 239.82861328125 284.158935546875 C 236.59539794921875 284.10595703125 232.16961669921875 284.0794677734375 226.55123901367188 284.0794677734375 C 223.45053100585938 284.0794677734375 220.111328125 284.10595703125 216.5335693359375 284.158935546875 C 212.95584106445312 284.21185302734375 209.28533935546875 284.3045654296875 205.5220947265625 284.43695068359375 C 201.78533935546875 284.5693359375 198.1678466796875 284.74151611328125 194.66961669921875 284.953369140625 C 191.1978759765625 285.13873291015625 188.04415893554688 285.3638916015625 185.20849609375 285.628662109375 C 185.18197631835938 284.7547607421875 185.15548706054688 283.880859375 185.12896728515625 283.00689697265625M 223.8878173828125 304.7357177734375 C 223.8878173828125 307.384033203125 223.39752197265625 309.6085205078125 222.41696166992188 311.4093017578125 C 221.462890625 313.18365478515625 220.21731567382812 314.52099609375 218.68020629882812 315.42138671875 C 217.16961669921875 316.29534912109375 215.55300903320312 316.7322998046875 213.83038330078125 316.7322998046875 C 212.1077880859375 316.7322998046875 210.51766967773438 316.480712890625 209.06005859375 315.9775390625 C 207.60247802734375 315.474365234375 206.33038330078125 314.7196044921875 205.24383544921875 313.7132568359375 C 204.18374633789062 312.68048095703125 203.3621826171875 311.44903564453125 202.77914428710938 310.01904296875 C 202.19610595703125 308.5889892578125 201.90460205078125 306.96026611328125 201.90460205078125 305.13299560546875 C 201.90460205078125 302.96142578125 202.43463134765625 300.9620361328125 203.49468994140625 299.13470458984375 C 204.58126831054688 297.28094482421875 206.01235961914062 295.78466796875 207.78799438476562 294.64593505859375 C 209.5635986328125 293.5072021484375 211.49822998046875 292.9378662109375 213.59185791015625 292.9378662109375 C 216.18905639648438 292.9378662109375 218.32244873046875 293.52044677734375 219.9920654296875 294.6856689453125 C 221.68817138671875 295.85089111328125 222.94699096679688 297.47955322265625 223.7685546875 299.5716552734375 C 224.61660766601562 301.663818359375 225.0406494140625 304.07373046875 225.0406494140625 306.8013916015625 C 225.0406494140625 309.4495849609375 224.72262573242188 312.05810546875 224.08657836914062 314.626953125 C 223.45053100585938 317.19573974609375 222.3507080078125 319.6453857421875 220.787109375 321.975830078125 C 219.25 324.27978515625 217.11660766601562 326.3851318359375 214.38693237304688 328.2918701171875 C 211.68374633789062 330.1986083984375 208.2120361328125 331.8140869140625 203.97174072265625 333.13818359375 C 203.25619506835938 332.5025634765625 202.5406494140625 331.86700439453125 201.8250732421875 331.2314453125 C 205.56182861328125 330.3045654296875 208.7420654296875 329.099609375 211.36572265625 327.6165771484375 C 214.01589965820312 326.1070556640625 216.17578125 324.332763671875 217.84539794921875 322.2935791015625 C 219.54153442382812 320.25445556640625 220.77386474609375 317.9769287109375 221.54241943359375 315.461181640625 C 222.33746337890625 312.9453125 222.7349853515625 310.2176513671875 222.7349853515625 307.278076171875 C 222.7349853515625 302.85546875 221.86041259765625 299.71734619140625 220.111328125 297.863525390625 C 218.3621826171875 296.009765625 216.2420654296875 295.0828857421875 213.75088500976562 295.0828857421875 C 212.08126831054688 295.0828857421875 210.51766967773438 295.5198974609375 209.06005859375 296.393798828125 C 207.60247802734375 297.2412109375 206.42315673828125 298.419677734375 205.5220947265625 299.92919921875 C 204.64752197265625 301.4122314453125 204.21026611328125 303.14678955078125 204.21026611328125 305.13299560546875 C 204.21026611328125 308.178466796875 205.15106201171875 310.52215576171875 207.03268432617188 312.1640625 C 208.914306640625 313.779541015625 211.18020629882812 314.58721923828125 213.83038330078125 314.58721923828125 C 215.81802368164062 314.58721923828125 217.46112060546875 314.08404541015625 218.75970458984375 313.0777587890625 C 220.05831909179688 312.044921875 221.03887939453125 310.6148681640625 221.701416015625 308.78759765625 C 222.36395263671875 306.96026611328125 222.69522094726562 304.85491943359375 222.69522094726562 302.47149658203125 C 223.0927734375 303.22625732421875 223.49029541015625 303.98101806640625 223.8878173828125 304.7357177734375M 234.18374633789062 270.41455078125 C 235.05828857421875 271.606201171875 236.09185791015625 273.11572265625 237.28445434570312 274.9429931640625 C 238.47705078125 276.770263671875 239.48410034179688 278.4254150390625 240.3056640625 279.908447265625 C 239.5635986328125 280.27923583984375 238.82156372070312 280.64996337890625 238.07952880859375 281.020751953125 C 237.28445434570312 279.51123046875 236.30389404296875 277.84283447265625 235.1378173828125 276.0155029296875 C 233.99822998046875 274.188232421875 232.9779052734375 272.65228271484375 232.07684326171875 271.4075927734375 C 232.7791748046875 271.0765380859375 233.4814453125 270.74554443359375 234.18374633789062 270.41455078125M 242.53179931640625 268.6666259765625 C 243.37985229492188 269.8319091796875 244.3736572265625 271.3016357421875 245.51324462890625 273.07598876953125 C 246.6793212890625 274.8238525390625 247.712890625 276.47900390625 248.61395263671875 278.04144287109375 C 247.858642578125 278.4254150390625 247.10336303710938 278.8094482421875 246.34805297851562 279.1934814453125 C 245.5264892578125 277.5780029296875 244.5592041015625 275.8963623046875 243.44610595703125 274.1485595703125 C 242.35955810546875 272.37420654296875 241.3392333984375 270.8779296875 240.38516235351562 269.6597900390625 C 241.1007080078125 269.3287353515625 241.81625366210938 268.9976806640625 242.53179931640625 268.6666259765625"/>
    <path stroke-width="0" fill="rgb(0, 0, 0)" opacity="1.0" d="M 279.2235107421875 271.64593505859375 C 279.09100341796875 272.57281494140625 278.99822998046875 273.4202880859375 278.94525146484375 274.188232421875 C 278.8922119140625 274.92974853515625 278.8392333984375 275.81689453125 278.7862243652344 276.8497314453125 C 278.73321533203125 279.07427978515625 278.6404724121094 281.85491943359375 278.5079345703125 285.19171142578125 C 278.37542724609375 288.52850341796875 278.2694396972656 292.1036376953125 278.18994140625 295.9171142578125 C 278.11041259765625 299.7305908203125 278.03094482421875 303.570556640625 277.951416015625 307.43695068359375 C 277.8984069824219 311.30340576171875 277.8719177246094 314.8785400390625 277.8719177246094 318.162353515625 C 277.8719177246094 321.18133544921875 278.4814453125 323.6044921875 279.7005310058594 325.4317626953125 C 280.91961669921875 327.259033203125 282.61572265625 328.58319091796875 284.78887939453125 329.4041748046875 C 286.988525390625 330.1986083984375 289.5194396972656 330.5958251953125 292.3816223144531 330.5958251953125 C 296.1978759765625 330.5958251953125 299.5901184082031 330.1324462890625 302.55828857421875 329.20556640625 C 305.5264892578125 328.252197265625 308.1369323730469 327.0074462890625 310.38958740234375 325.47149658203125 C 312.6687316894531 323.9090576171875 314.6563720703125 322.18768310546875 316.35247802734375 320.30743408203125 C 318.0750732421875 318.42718505859375 319.62548828125 316.54693603515625 321.0035400390625 314.6666259765625 C 321.56005859375 315.30224609375 322.1165771484375 315.9378662109375 322.67315673828125 316.5733642578125 C 321.2950439453125 318.34771728515625 319.678466796875 320.188232421875 317.82330322265625 322.094970703125 C 315.96820068359375 324.001708984375 313.80828857421875 325.7628173828125 311.3436279296875 327.37823486328125 C 308.90545654296875 328.9671630859375 306.0963134765625 330.2515869140625 302.91607666015625 331.2314453125 C 299.7358703613281 332.23779296875 296.1448669433594 332.740966796875 292.14312744140625 332.740966796875 C 288.9893798828125 332.740966796875 286.1669616699219 332.2642822265625 283.67578125 331.3109130859375 C 281.18463134765625 330.384033203125 279.21026611328125 328.80828857421875 277.7526550292969 326.583740234375 C 276.2950439453125 324.332763671875 275.5662536621094 321.2210693359375 275.5662536621094 317.24871826171875 C 275.5662536621094 314.7593994140625 275.5927734375 312.0845947265625 275.645751953125 309.2244873046875 C 275.69879150390625 306.33795166015625 275.77825927734375 303.39837646484375 275.88427734375 300.4058837890625 C 275.99029541015625 297.413330078125 276.06976318359375 294.487060546875 276.122802734375 291.626953125 C 276.2023010253906 288.7403564453125 276.2685546875 286.02587890625 276.3215637207031 283.48358154296875 C 276.37457275390625 280.9412841796875 276.40106201171875 278.72998046875 276.40106201171875 276.8497314453125 C 276.40106201171875 275.81689453125 276.37457275390625 274.8768310546875 276.3215637207031 274.02935791015625 C 276.2685546875 273.15545654296875 276.1758117675781 272.3609619140625 276.04327392578125 271.64593505859375 C 277.10333251953125 271.64593505859375 278.1634521484375 271.64593505859375 279.2235107421875 271.64593505859375"/>
    <path stroke-width="0" fill="rgb(0, 0, 0)" opacity="1.0" d="M 349.66522216796875 288.72711181640625 C 362.71728515625 288.72711181640625 375.7694091796875 288.72711181640625 388.821533203125 288.72711181640625 C 388.821533203125 289.4686279296875 388.821533203125 290.21014404296875 388.821533203125 290.95166015625 C 375.7694091796875 290.95166015625 362.71728515625 290.95166015625 349.66522216796875 290.95166015625 C 349.66522216796875 290.21014404296875 349.66522216796875 289.4686279296875 349.66522216796875 288.72711181640625M 337.93817138671875 308.1123046875 C 359.484130859375 308.1123046875 381.030029296875 308.1123046875 402.57598876953125 308.1123046875 C 402.57598876953125 308.853759765625 402.57598876953125 309.59527587890625 402.57598876953125 310.3367919921875 C 381.030029296875 310.3367919921875 359.484130859375 310.3367919921875 337.93817138671875 310.3367919921875 C 337.93817138671875 309.59527587890625 337.93817138671875 308.853759765625 337.93817138671875 308.1123046875M 369.2235107421875 301.557861328125 C 369.9920654296875 301.557861328125 370.7606201171875 301.557861328125 371.5291748046875 301.557861328125 C 371.5291748046875 311.5682373046875 371.5291748046875 321.57861328125 371.5291748046875 331.5889892578125 C 371.5291748046875 332.56878662109375 371.3436279296875 333.29705810546875 370.97265625 333.77374267578125 C 370.62811279296875 334.25042724609375 370.0185546875 334.6212158203125 369.14404296875 334.885986328125 C 368.32244873046875 335.097900390625 367.037109375 335.20379638671875 365.2879638671875 335.20379638671875 C 363.53887939453125 335.23028564453125 361.0079345703125 335.2435302734375 357.69525146484375 335.2435302734375 C 357.6422119140625 335.05810546875 357.54949951171875 334.8463134765625 357.4169921875 334.60791015625 C 357.31097412109375 334.3961181640625 357.19171142578125 334.15771484375 357.0592041015625 333.8929443359375 C 356.92669677734375 333.6280517578125 356.78094482421875 333.4029541015625 356.6219482421875 333.2176513671875 C 358.5035400390625 333.2176513671875 360.1864013671875 333.2308349609375 361.6705322265625 333.25732421875 C 363.18109130859375 333.2838134765625 364.43994140625 333.2838134765625 365.447021484375 333.25732421875 C 366.4805908203125 333.2308349609375 367.2093505859375 333.2176513671875 367.6334228515625 333.2176513671875 C 368.242919921875 333.1646728515625 368.6536865234375 333.01904296875 368.86572265625 332.7806396484375 C 369.104248046875 332.5423583984375 369.2235107421875 332.17156982421875 369.2235107421875 331.66839599609375 C 369.2235107421875 321.631591796875 369.2235107421875 311.5947265625 369.2235107421875 301.557861328125M 388.22528076171875 288.72711181640625 C 388.3975830078125 288.72711181640625 388.56982421875 288.72711181640625 388.7420654296875 288.72711181640625 C 388.92755126953125 288.67413330078125 389.11309814453125 288.6212158203125 389.298583984375 288.5682373046875 C 389.82861328125 288.95220947265625 390.358642578125 289.336181640625 390.888671875 289.72021484375 C 389.2191162109375 291.4945068359375 387.2579345703125 293.2821044921875 385.00531005859375 295.0828857421875 C 382.7791748046875 296.85723876953125 380.460205078125 298.525634765625 378.048583984375 300.08807373046875 C 375.6634521484375 301.6240234375 373.38427734375 302.94818115234375 371.211181640625 304.0604248046875 C 371.0521240234375 303.8221435546875 370.8135986328125 303.5572509765625 370.49560546875 303.2659912109375 C 370.2041015625 302.97467041015625 369.92578125 302.7628173828125 369.6607666015625 302.63037109375 C 371.8604736328125 301.54461669921875 374.113037109375 300.26025390625 376.418701171875 298.7772216796875 C 378.7508544921875 297.2677001953125 380.937255859375 295.6920166015625 382.9779052734375 294.050048828125 C 385.0450439453125 292.3817138671875 386.794189453125 290.792724609375 388.22528076171875 289.28326416015625 C 388.22528076171875 289.097900390625 388.22528076171875 288.9124755859375 388.22528076171875 288.72711181640625M 368.905517578125 266.40240478515625 C 369.674072265625 266.40240478515625 370.44256591796875 266.40240478515625 371.211181640625 266.40240478515625 C 371.211181640625 269.9775390625 371.211181640625 273.55267333984375 371.211181640625 277.1278076171875 C 370.44256591796875 277.1278076171875 369.674072265625 277.1278076171875 368.905517578125 277.1278076171875 C 368.905517578125 273.55267333984375 368.905517578125 269.9775390625 368.905517578125 266.40240478515625M 339.09100341796875 275.856689453125 C 359.81536865234375 275.856689453125 380.539794921875 275.856689453125 401.26416015625 275.856689453125 C 401.26416015625 281.2193603515625 401.26416015625 286.58203125 401.26416015625 291.9447021484375 C 400.50885009765625 291.9447021484375 399.7535400390625 291.9447021484375 398.99822998046875 291.9447021484375 C 398.99822998046875 287.3367919921875 398.99822998046875 282.7288818359375 398.99822998046875 278.12091064453125 C 379.784423828125 278.12091064453125 360.5706787109375 278.12091064453125 341.35687255859375 278.12091064453125 C 341.35687255859375 282.7288818359375 341.35687255859375 287.3367919921875 341.35687255859375 291.9447021484375 C 340.6015625 291.9447021484375 339.8463134765625 291.9447021484375 339.09100341796875 291.9447021484375 C 339.09100341796875 286.58203125 339.09100341796875 281.2193603515625 339.09100341796875 275.856689453125"/>
    <path stroke-width="0" fill="rgb(0, 0, 0)" opacity="1.0" d="M 426.06982421875 275.45941162109375 C 443.6007080078125 275.45941162109375 461.131591796875 275.45941162109375 478.66259765625 275.45941162109375 C 478.66259765625 276.2274169921875 478.66259765625 276.995361328125 478.66259765625 277.763427734375 C 461.131591796875 277.763427734375 443.6007080078125 277.763427734375 426.06982421875 277.763427734375 C 426.06982421875 276.995361328125 426.06982421875 276.2274169921875 426.06982421875 275.45941162109375M 426.90460205078125 286.14508056640625 C 441.613037109375 286.14508056640625 456.321533203125 286.14508056640625 471.030029296875 286.14508056640625 C 471.030029296875 286.8865966796875 471.030029296875 287.62811279296875 471.030029296875 288.36962890625 C 456.321533203125 288.36962890625 441.613037109375 288.36962890625 426.90460205078125 288.36962890625 C 426.90460205078125 287.62811279296875 426.90460205078125 286.8865966796875 426.90460205078125 286.14508056640625M 418.437255859375 296.75128173828125 C 434.4178466796875 296.75128173828125 450.3984375 296.75128173828125 466.3790283203125 296.75128173828125 C 466.3790283203125 297.4927978515625 466.3790283203125 298.23431396484375 466.3790283203125 298.975830078125 C 450.3984375 298.975830078125 434.4178466796875 298.975830078125 418.437255859375 298.975830078125 C 418.437255859375 298.23431396484375 418.437255859375 297.4927978515625 418.437255859375 296.75128173828125M 428.97174072265625 266.68048095703125 C 429.76678466796875 266.8658447265625 430.5618896484375 267.05126953125 431.35693359375 267.236572265625 C 429.47528076171875 272.93035888671875 427.0635986328125 278.213623046875 424.1219482421875 283.08636474609375 C 421.20672607421875 287.9326171875 417.9735107421875 292.0506591796875 414.4222412109375 295.4404296875 C 414.3162841796875 295.281494140625 414.1307373046875 295.109375 413.86572265625 294.92401123046875 C 413.627197265625 294.712158203125 413.3621826171875 294.5135498046875 413.0706787109375 294.328125 C 412.7791748046875 294.1163330078125 412.5406494140625 293.9573974609375 412.3551025390625 293.8514404296875 C 415.9593505859375 290.5941162109375 419.192626953125 286.6085205078125 422.0548095703125 281.8946533203125 C 424.9434814453125 277.154296875 427.2491455078125 272.0828857421875 428.97174072265625 266.68048095703125M 451.034423828125 301.2401123046875 C 451.7235107421875 301.49163818359375 452.41259765625 301.74322509765625 453.1015625 301.99481201171875 C 450.26593017578125 306.89404296875 446.8604736328125 311.422607421875 442.8851318359375 315.580322265625 C 438.909912109375 319.7115478515625 434.6033935546875 323.432373046875 429.965576171875 326.74267578125 C 425.354248046875 330.0264892578125 420.5177001953125 332.9130859375 415.455810546875 335.40240478515625 C 415.3763427734375 335.27001953125 415.2305908203125 335.0845947265625 415.0185546875 334.8463134765625 C 414.8065185546875 334.60791015625 414.581298828125 334.3828125 414.3427734375 334.1710205078125 C 414.1307373046875 333.985595703125 413.918701171875 333.8134765625 413.70672607421875 333.654541015625 C 418.7950439453125 331.3240966796875 423.67138671875 328.54345703125 428.335693359375 325.3126220703125 C 433.0 322.081787109375 437.266845703125 318.4404296875 441.13604736328125 314.38861083984375 C 445.03179931640625 310.310302734375 448.331298828125 305.927490234375 451.034423828125 301.2401123046875M 465.1466064453125 296.75128173828125 C 465.888671875 296.75128173828125 466.6307373046875 296.75128173828125 467.372802734375 296.75128173828125 C 467.47882080078125 302.04779052734375 467.6378173828125 306.9205322265625 467.849853515625 311.36962890625 C 468.08837890625 315.81866455078125 468.51239013671875 319.671875 469.1219482421875 322.92919921875 C 469.7314453125 326.1600341796875 470.5927734375 328.6759033203125 471.705810546875 330.4766845703125 C 472.845458984375 332.303955078125 474.302978515625 333.2176513671875 476.07861328125 333.2176513671875 C 477.00616455078125 333.2176513671875 477.61572265625 332.1583251953125 477.9072265625 330.03973388671875 C 478.22528076171875 327.921142578125 478.39752197265625 325.1669921875 478.424072265625 321.7772216796875 C 478.6890869140625 321.96258544921875 479.0335693359375 322.14794921875 479.4576416015625 322.3333740234375 C 479.9080810546875 322.5186767578125 480.252685546875 322.66436767578125 480.4912109375 322.770263671875 C 480.3851318359375 325.97467041015625 480.1864013671875 328.490478515625 479.8948974609375 330.3177490234375 C 479.6298828125 332.14508056640625 479.19256591796875 333.416259765625 478.5830078125 334.1312255859375 C 477.9735107421875 334.872802734375 477.085693359375 335.27001953125 475.91961669921875 335.322998046875 C 473.6405029296875 335.322998046875 471.798583984375 334.435791015625 470.39404296875 332.6614990234375 C 468.9893798828125 330.88720703125 467.9293212890625 328.33160400390625 467.2137451171875 324.99481201171875 C 466.49822998046875 321.65802001953125 465.99468994140625 317.61944580078125 465.70318603515625 312.87908935546875 C 465.43817138671875 308.1123046875 465.252685546875 302.736328125 465.1466064453125 296.75128173828125M 422.0548095703125 306.44384765625 C 422.5848388671875 305.98046875 423.1148681640625 305.5169677734375 423.6448974609375 305.05352783203125 C 426.798583984375 306.77490234375 429.978759765625 308.7081298828125 433.185546875 310.85321044921875 C 436.3922119140625 312.998291015625 439.492919921875 315.2095947265625 442.4876708984375 317.487060546875 C 445.4822998046875 319.738037109375 448.238525390625 321.98907470703125 450.7562255859375 324.2401123046875 C 453.30035400390625 326.464599609375 455.4072265625 328.55670166015625 457.076904296875 330.51641845703125 C 456.4937744140625 331.059326171875 455.9107666015625 331.6021728515625 455.3277587890625 332.14508056640625 C 453.631591796875 330.158935546875 451.5379638671875 328.05352783203125 449.04681396484375 325.8289794921875 C 446.5556640625 323.5780029296875 443.812744140625 321.300537109375 440.8179931640625 318.99658203125 C 437.8233642578125 316.66607666015625 434.72265625 314.4283447265625 431.515869140625 312.283203125 C 428.3092041015625 310.1116943359375 425.155517578125 308.16522216796875 422.0548095703125 306.44384765625"/>
  </g>
</svg>
