<?xml version="1.0" ?>
<svg xmlns="http://www.w3.org/2000/svg" version="1.1" width="600" height="600">
  <defs/>
  <g>
    <path stroke-width="0" fill="rgb(0, 0, 0)" opacity="1.0" d="M 161.76922607421875 261.56219482421875 C 159.94232177734375 264.68585205078125 157.63461303710938 267.9688720703125 154.84616088867188 271.4112548828125 C 152.08975219726562 274.82177734375 148.94873046875 278.248291015625 145.42306518554688 281.690673828125 C 141.92947387695312 285.1011962890625 138.24359130859375 288.3682861328125 134.36538696289062 291.491943359375 C 130.4871826171875 294.6156005859375 126.5128173828125 297.4364013671875 122.44232177734375 299.9544677734375 C 122.34616088867188 299.76324462890625 122.20193481445312 299.5401611328125 122.00961303710938 299.28515625 C 121.81732177734375 299.0301513671875 121.60897827148438 298.79107666015625 121.38461303710938 298.5679931640625 C 121.19232177734375 298.31298828125 120.96795654296875 298.08984375 120.7115478515625 297.89862060546875 C 126.12820434570312 294.6156005859375 131.38461303710938 290.806640625 136.48077392578125 286.4718017578125 C 141.60897827148438 282.10504150390625 146.224365234375 277.5311279296875 150.32693481445312 272.75 C 154.4615478515625 267.93701171875 157.7628173828125 263.25152587890625 160.23077392578125 258.69354248046875 C 161.08013916015625 258.69354248046875 161.92947387695312 258.69354248046875 162.77883911132812 258.69354248046875 C 165.11859130859375 262.263427734375 167.90704345703125 265.8492431640625 171.14422607421875 269.4510498046875 C 174.38140869140625 273.05279541015625 177.84295654296875 276.5589599609375 181.52883911132812 279.969482421875 C 185.21475219726562 283.3800048828125 188.98077392578125 286.51959228515625 192.82693481445312 289.38824462890625 C 196.673095703125 292.25689697265625 200.423095703125 294.7271728515625 204.07693481445312 296.7989501953125 C 203.75640869140625 297.053955078125 203.3878173828125 297.4205322265625 202.97116088867188 297.89862060546875 C 202.5865478515625 298.3448486328125 202.298095703125 298.71142578125 202.10577392578125 298.998291015625 C 198.41986083984375 296.7989501953125 194.66986083984375 294.2490234375 190.85577392578125 291.3485107421875 C 187.04165649414062 288.447998046875 183.32373046875 285.3402099609375 179.70193481445312 282.02532958984375 C 176.1121826171875 278.71044921875 172.77883911132812 275.31585693359375 169.70193481445312 271.841552734375 C 166.625 268.3673095703125 163.98077392578125 264.94085693359375 161.76922607421875 261.56219482421875M 162.5384521484375 305.7874755859375 C 172.60256958007812 305.7874755859375 182.66665649414062 305.7874755859375 192.73077392578125 305.7874755859375 C 192.73077392578125 306.7117919921875 192.73077392578125 307.6361083984375 192.73077392578125 308.56048583984375 C 182.66665649414062 308.56048583984375 172.60256958007812 308.56048583984375 162.5384521484375 308.56048583984375 C 162.5384521484375 307.6361083984375 162.5384521484375 306.7117919921875 162.5384521484375 305.7874755859375M 123.11538696289062 336.0040283203125 C 149.30126953125 336.0040283203125 175.4871826171875 336.0040283203125 201.673095703125 336.0040283203125 C 201.673095703125 336.896484375 201.673095703125 337.7889404296875 201.673095703125 338.68145751953125 C 175.4871826171875 338.68145751953125 149.30126953125 338.68145751953125 123.11538696289062 338.68145751953125 C 123.11538696289062 337.7889404296875 123.11538696289062 336.896484375 123.11538696289062 336.0040283203125M 161.3365478515625 282.50341796875 C 162.25 282.50341796875 163.1634521484375 282.50341796875 164.07693481445312 282.50341796875 C 164.07693481445312 300.73541259765625 164.07693481445312 318.96734619140625 164.07693481445312 337.1993408203125 C 163.1634521484375 337.1993408203125 162.25 337.1993408203125 161.3365478515625 337.1993408203125 C 161.3365478515625 318.96734619140625 161.3365478515625 300.73541259765625 161.3365478515625 282.50341796875M 136.48077392578125 299.85888671875 C 137.37820434570312 299.85888671875 138.275634765625 299.85888671875 139.17306518554688 299.85888671875 C 139.17306518554688 312.241943359375 139.17306518554688 324.625 139.17306518554688 337.008056640625 C 138.275634765625 337.008056640625 137.37820434570312 337.008056640625 136.48077392578125 337.008056640625 C 136.48077392578125 324.625 136.48077392578125 312.241943359375 136.48077392578125 299.85888671875"/>
    <path stroke-width="0" fill="rgb(0, 0, 0)" opacity="1.0" d="M 226.14422607421875 314.3455810546875 C 245.24679565429688 314.3455810546875 264.349365234375 314.3455810546875 283.451904296875 314.3455810546875 C 283.451904296875 323.365966796875 283.451904296875 332.3863525390625 283.451904296875 341.40667724609375 C 282.5224609375 341.40667724609375 281.59295654296875 341.40667724609375 280.6634521484375 341.40667724609375 C 280.6634521484375 333.3106689453125 280.6634521484375 325.21466064453125 280.6634521484375 317.11865234375 C 263.40386962890625 317.11865234375 246.14422607421875 317.11865234375 228.88461303710938 317.11865234375 C 228.88461303710938 325.310302734375 228.88461303710938 333.501953125 228.88461303710938 341.69354248046875 C 227.97116088867188 341.69354248046875 227.05767822265625 341.69354248046875 226.14422607421875 341.69354248046875 C 226.14422607421875 332.57757568359375 226.14422607421875 323.46160888671875 226.14422607421875 314.3455810546875M 227.39422607421875 324.8162841796875 C 245.61538696289062 324.8162841796875 263.8365478515625 324.8162841796875 282.05767822265625 324.8162841796875 C 282.05767822265625 325.708740234375 282.05767822265625 326.6011962890625 282.05767822265625 327.49365234375 C 263.8365478515625 327.49365234375 245.61538696289062 327.49365234375 227.39422607421875 327.49365234375 C 227.39422607421875 326.6011962890625 227.39422607421875 325.708740234375 227.39422607421875 324.8162841796875M 227.39422607421875 335.62158203125 C 245.61538696289062 335.62158203125 263.8365478515625 335.62158203125 282.05767822265625 335.62158203125 C 282.05767822265625 336.5140380859375 282.05767822265625 337.406494140625 282.05767822265625 338.2989501953125 C 263.8365478515625 338.2989501953125 245.61538696289062 338.2989501953125 227.39422607421875 338.2989501953125 C 227.39422607421875 337.406494140625 227.39422607421875 336.5140380859375 227.39422607421875 335.62158203125M 252.77886962890625 258.69354248046875 C 253.70831298828125 258.69354248046875 254.6378173828125 258.69354248046875 255.56732177734375 258.69354248046875 C 255.56732177734375 274.88555908203125 255.56732177734375 291.07757568359375 255.56732177734375 307.26959228515625 C 254.6378173828125 307.26959228515625 253.70831298828125 307.26959228515625 252.77886962890625 307.26959228515625 C 252.77886962890625 291.07757568359375 252.77886962890625 274.88555908203125 252.77886962890625 258.69354248046875M 224.26922607421875 265.865234375 C 243.8365478515625 265.865234375 263.40386962890625 265.865234375 282.9711608886719 265.865234375 C 282.9711608886719 273.48309326171875 282.9711608886719 281.1009521484375 282.9711608886719 288.7188720703125 C 263.0352478027344 288.7188720703125 243.099365234375 288.7188720703125 223.1634521484375 288.7188720703125 C 223.1634521484375 287.84234619140625 223.1634521484375 286.9658203125 223.1634521484375 286.08929443359375 C 242.1859130859375 286.08929443359375 261.20831298828125 286.08929443359375 280.23077392578125 286.08929443359375 C 280.23077392578125 280.27227783203125 280.23077392578125 274.45526123046875 280.23077392578125 268.63824462890625 C 261.576904296875 268.63824462890625 242.923095703125 268.63824462890625 224.26922607421875 268.63824462890625 C 224.26922607421875 267.7138671875 224.26922607421875 266.78955078125 224.26922607421875 265.865234375M 214.22116088867188 275.905517578125 C 241.1121826171875 275.905517578125 268.0032043457031 275.905517578125 294.89422607421875 275.905517578125 C 294.89422607421875 276.7821044921875 294.89422607421875 277.6585693359375 294.89422607421875 278.53515625 C 268.0032043457031 278.53515625 241.1121826171875 278.53515625 214.22116088867188 278.53515625 C 214.22116088867188 277.6585693359375 214.22116088867188 276.7821044921875 214.22116088867188 275.905517578125M 220.13461303710938 295.794921875 C 243.2115478515625 295.794921875 266.2884521484375 295.794921875 289.3653869628906 295.794921875 C 289.3653869628906 296.6873779296875 289.3653869628906 297.579833984375 289.3653869628906 298.47235107421875 C 266.2884521484375 298.47235107421875 243.2115478515625 298.47235107421875 220.13461303710938 298.47235107421875 C 220.13461303710938 297.579833984375 220.13461303710938 296.6873779296875 220.13461303710938 295.794921875M 214.02883911132812 305.883056640625 C 241.048095703125 305.883056640625 268.06732177734375 305.883056640625 295.0865478515625 305.883056640625 C 295.0865478515625 306.807373046875 295.0865478515625 307.73175048828125 295.0865478515625 308.6561279296875 C 268.06732177734375 308.6561279296875 241.048095703125 308.6561279296875 214.02883911132812 308.6561279296875 C 214.02883911132812 307.73175048828125 214.02883911132812 306.807373046875 214.02883911132812 305.883056640625"/>
    <path stroke-width="0" fill="rgb(0, 0, 0)" opacity="1.0" d="M 362.826904296875 265.6739501953125 C 362.34619140625 266.1202392578125 361.576904296875 266.83740234375 360.51922607421875 267.825439453125 C 359.4615478515625 268.78167724609375 358.69232177734375 269.48291015625 358.2115478515625 269.92913818359375 C 356.544921875 271.4591064453125 354.4775390625 273.27587890625 352.0096435546875 275.379638671875 C 349.57373046875 277.4832763671875 346.9775390625 279.6507568359375 344.22119140625 281.88189697265625 C 341.496826171875 284.11309814453125 338.8525390625 286.26458740234375 336.2884521484375 288.33642578125 C 333.724365234375 290.3763427734375 331.52886962890625 292.1612548828125 329.701904296875 293.6912841796875 C 327.650634765625 295.4761962890625 326.25640869140625 296.9742431640625 325.51922607421875 298.18548583984375 C 324.78204345703125 299.36480712890625 324.798095703125 300.544189453125 325.56732177734375 301.7235107421875 C 326.3365478515625 302.90283203125 327.85894775390625 304.44873046875 330.1346435546875 306.3612060546875 C 332.121826171875 307.954833984375 334.2852783203125 309.70794677734375 336.625 311.620361328125 C 338.9647216796875 313.5009765625 341.36859130859375 315.49310302734375 343.8365478515625 317.5968017578125 C 346.3365478515625 319.700439453125 348.8525390625 321.867919921875 351.3846435546875 324.09912109375 C 353.9166259765625 326.29840087890625 356.36859130859375 328.513671875 358.7403564453125 330.74481201171875 C 361.1121826171875 332.97601318359375 363.30767822265625 335.12750244140625 365.326904296875 337.1993408203125 C 364.525634765625 337.9005126953125 363.724365234375 338.601806640625 362.923095703125 339.302978515625 C 361.64105224609375 337.8367919921875 360.1025390625 336.211181640625 358.30767822265625 334.42626953125 C 356.44873046875 332.60943603515625 354.22119140625 330.521728515625 351.625 328.16302490234375 C 349.0609130859375 325.8043212890625 346.3525390625 323.3978271484375 343.5 320.94354248046875 C 340.6474609375 318.4573974609375 337.84295654296875 316.06683349609375 335.0865478515625 313.7718505859375 C 332.3621826171875 311.4769287109375 329.89422607421875 309.43701171875 327.68267822265625 307.652099609375 C 324.89422607421875 305.3890380859375 323.1474304199219 303.46063232421875 322.44232177734375 301.866943359375 C 321.7371826171875 300.273193359375 321.88140869140625 298.6954345703125 322.875 297.1336669921875 C 323.900634765625 295.57177734375 325.6474304199219 293.7550048828125 328.1153564453125 291.68316650390625 C 329.78204345703125 290.28076171875 331.88140869140625 288.55950927734375 334.4134521484375 286.51959228515625 C 336.9775390625 284.44775390625 339.65386962890625 282.264404296875 342.44232177734375 279.969482421875 C 345.2628173828125 277.674560546875 347.923095703125 275.45928955078125 350.423095703125 273.32373046875 C 352.923095703125 271.18817138671875 354.94232177734375 269.2916259765625 356.48077392578125 267.63421630859375 C 356.9615478515625 267.06048583984375 357.57049560546875 266.327392578125 358.30767822265625 265.4349365234375 C 359.044921875 264.51055908203125 359.57373046875 263.74560546875 359.89422607421875 263.1400146484375 C 360.871826171875 263.984619140625 361.849365234375 264.82928466796875 362.826904296875 265.6739501953125"/>
    <path stroke-width="0" fill="rgb(0, 0, 0)" opacity="1.0" d="M 462.875 276.3358154296875 C 463.80450439453125 276.638671875 464.7340087890625 276.94140625 465.6634521484375 277.2442626953125 C 461.7852783203125 288.623291015625 456.849365234375 298.424560546875 450.85577392578125 306.6480712890625 C 444.8621826171875 314.83966064453125 437.650634765625 321.7403564453125 429.22119140625 327.3502197265625 C 420.7916259765625 332.92822265625 410.871826171875 337.6136474609375 399.4615478515625 341.40667724609375 C 399.3974609375 341.18359375 399.253173828125 340.91259765625 399.02880859375 340.5938720703125 C 398.8365478515625 340.3070068359375 398.6121826171875 339.98828125 398.35577392578125 339.6376953125 C 398.13140869140625 339.28704833984375 397.89105224609375 339.0321044921875 397.6346435546875 338.8726806640625 C 408.94873046875 335.3665771484375 418.7884521484375 330.85638427734375 427.15380859375 325.3421630859375 C 435.51922607421875 319.79608154296875 442.6346435546875 313.0228271484375 448.5 305.0224609375 C 454.3974609375 296.990234375 459.1890869140625 287.427978515625 462.875 276.3358154296875M 414.60577392578125 276.6226806640625 C 418.19549560546875 287.14111328125 422.9871826171875 296.5758056640625 428.98077392578125 304.9268798828125 C 434.974365234375 313.27783203125 442.28204345703125 320.3538818359375 450.90380859375 326.15496826171875 C 459.525634765625 331.9241943359375 469.4615478515625 336.1953125 480.7115478515625 338.96832275390625 C 480.51922607421875 339.127685546875 480.294921875 339.36669921875 480.0384521484375 339.68548583984375 C 479.8140869140625 340.00421142578125 479.57373046875 340.3070068359375 479.31732177734375 340.5938720703125 C 479.0609130859375 340.91259765625 478.8525390625 341.18359375 478.69232177734375 341.40667724609375 C 467.4102783203125 338.4742431640625 457.4583740234375 334.0596923828125 448.8365478515625 328.16302490234375 C 440.246826171875 322.266357421875 432.90704345703125 315.046875 426.81732177734375 306.504638671875 C 420.7275390625 297.96240234375 415.7916259765625 288.27264404296875 412.0096435546875 277.43548583984375 C 412.875 277.16455078125 413.7403564453125 276.89361572265625 414.60577392578125 276.6226806640625M 398.1153564453125 275.42742919921875 C 425.55126953125 275.42742919921875 452.9871826171875 275.42742919921875 480.423095703125 275.42742919921875 C 480.423095703125 276.31988525390625 480.423095703125 277.21240234375 480.423095703125 278.1048583984375 C 452.9871826171875 278.1048583984375 425.55126953125 278.1048583984375 398.1153564453125 278.1048583984375 C 398.1153564453125 277.21240234375 398.1153564453125 276.31988525390625 398.1153564453125 275.42742919921875M 437.4903564453125 258.69354248046875 C 438.419921875 258.69354248046875 439.349365234375 258.69354248046875 440.27880859375 258.69354248046875 C 440.27880859375 264.79742431640625 440.27880859375 270.90130615234375 440.27880859375 277.00518798828125 C 439.349365234375 277.00518798828125 438.419921875 277.00518798828125 437.4903564453125 277.00518798828125 C 437.4903564453125 270.90130615234375 437.4903564453125 264.79742431640625 437.4903564453125 258.69354248046875"/>
  </g>
</svg>
