<?xml version="1.0" ?>
<svg xmlns="http://www.w3.org/2000/svg" version="1.1" width="600" height="600">
  <defs/>
  <g>
    <path stroke-width="0" fill="rgb(0, 0, 0)" opacity="1.0" d="M 199.70166015625 333.87841796875 C 288.4150390625 333.87841796875 377.126953125 333.87841796875 465.84033203125 333.87841796875 C 465.84033203125 337.66217041015625 465.84033203125 341.4459228515625 465.84033203125 345.229736328125 C 377.126953125 345.229736328125 288.4150390625 345.229736328125 199.70166015625 345.229736328125 C 199.70166015625 341.4459228515625 199.70166015625 337.66217041015625 199.70166015625 333.87841796875M 151.86572265625 194.62164306640625 C 235.51171875 194.62164306640625 319.15625 194.62164306640625 402.80224609375 194.62164306640625 C 402.80224609375 198.54055786132812 402.80224609375 202.45947265625 402.80224609375 206.37838745117188 C 319.15625 206.37838745117188 235.51171875 206.37838745117188 151.86572265625 206.37838745117188 C 151.86572265625 202.45947265625 151.86572265625 198.54055786132812 151.86572265625 194.62164306640625M 256.05078125 263.54052734375 C 316.1162109375 263.54052734375 376.181640625 263.54052734375 436.24658203125 263.54052734375 C 436.24658203125 267.45947265625 436.24658203125 271.3783874511719 436.24658203125 275.29730224609375 C 376.181640625 275.29730224609375 316.1162109375 275.29730224609375 256.05078125 275.29730224609375 C 256.05078125 271.3783874511719 256.05078125 267.45947265625 256.05078125 263.54052734375M 458.94873046875 333.87841796875 C 462.7998046875 333.87841796875 466.65087890625 333.87841796875 470.50244140625 333.87841796875 C 470.50244140625 333.87841796875 470.43505859375 334.351318359375 470.29931640625 335.29730224609375 C 470.1640625 336.2432861328125 470.0966796875 337.3243408203125 470.0966796875 338.54052734375 C 470.0966796875 339.62158203125 469.96142578125 340.56756591796875 469.69140625 341.37841796875 C 467.12353515625 369.62164306640625 464.48876953125 392.45947265625 461.7861328125 409.89190673828125 C 459.083984375 427.189208984375 456.11083984375 440.43243408203125 452.86767578125 449.62158203125 C 449.62451171875 458.9459228515625 445.90869140625 465.70269775390625 441.7197265625 469.89190673828125 C 439.15185546875 472.45947265625 436.24658203125 474.148681640625 433.00390625 474.95947265625 C 429.7607421875 475.9053955078125 425.5712890625 476.37841796875 420.4365234375 476.37841796875 C 415.97705078125 476.648681640625 409.22119140625 476.648681640625 400.1669921875 476.37841796875 C 391.11328125 476.10809326171875 381.51904296875 475.56756591796875 371.38427734375 474.7567138671875 C 371.1142578125 473.270263671875 370.708984375 471.4459228515625 370.16845703125 469.2838134765625 C 369.62744140625 467.2567138671875 368.81689453125 465.3648681640625 367.73583984375 463.60809326171875 C 378.95166015625 464.5540771484375 389.2890625 465.16217041015625 398.748046875 465.43243408203125 C 408.20751953125 465.70269775390625 414.62548828125 465.83782958984375 418.00439453125 465.83782958984375 C 421.9228515625 465.83782958984375 424.96337890625 465.6351318359375 427.12548828125 465.229736328125 C 429.42236328125 464.95947265625 431.31494140625 464.0135498046875 432.80078125 462.39190673828125 C 436.44970703125 459.0135498046875 439.6923828125 452.8648681640625 442.5302734375 443.9459228515625 C 445.3681640625 435.02703857421875 448.138671875 421.851318359375 450.8408203125 404.4189453125 C 453.6787109375 386.9864501953125 456.380859375 364.2838134765625 458.94873046875 336.310791015625 C 458.94873046875 335.5 458.94873046875 334.689208984375 458.94873046875 333.87841796875M 368.9521484375 373.60809326171875 C 371.78955078125 372.189208984375 374.62744140625 370.770263671875 377.46533203125 369.351318359375 C 384.76220703125 377.189208984375 391.58642578125 386.04052734375 397.9375 395.9053955078125 C 404.2880859375 405.770263671875 408.8828125 414.2161865234375 411.720703125 421.2432861328125 C 408.74755859375 423.0 405.775390625 424.7567138671875 402.80224609375 426.5135498046875 C 399.6943359375 419.351318359375 394.96435546875 410.770263671875 388.61328125 400.770263671875 C 382.2626953125 390.770263671875 375.70849609375 381.7161865234375 368.9521484375 373.60809326171875M 204.36376953125 131.58108520507812 C 207.3369140625 130.02703857421875 210.30908203125 128.47296142578125 213.2822265625 126.91891479492188 C 221.66015625 135.02703857421875 229.70068359375 144.14865112304688 237.40283203125 154.28378295898438 C 245.24072265625 164.28378295898438 251.119140625 173.06756591796875 255.03759765625 180.6351318359375 C 251.9296875 182.8648681640625 248.8212890625 185.0946044921875 245.71337890625 187.3243408203125 C 242.06494140625 179.21621704101562 236.322265625 169.95947265625 228.484375 159.55404663085938 C 220.646484375 149.14865112304688 212.60693359375 139.82431030273438 204.36376953125 131.58108520507812M 255.6455078125 382.3243408203125 C 259.02392578125 381.7838134765625 262.40185546875 381.24322509765625 265.7802734375 380.70269775390625 C 269.9697265625 392.5946044921875 273.0771484375 405.70269775390625 275.1044921875 420.02703857421875 C 277.2666015625 434.2161865234375 278.34765625 446.37841796875 278.34765625 456.5135498046875 C 274.5634765625 457.189208984375 270.7802734375 457.8648681640625 266.99658203125 458.54052734375 C 267.2666015625 451.7838134765625 266.92919921875 444.0810546875 265.98291015625 435.43243408203125 C 265.17236328125 426.648681640625 263.888671875 417.66217041015625 262.1318359375 408.47296142578125 C 260.51025390625 399.2838134765625 258.34814453125 390.56756591796875 255.6455078125 382.3243408203125M 311.7919921875 378.270263671875 C 315.03515625 377.52703857421875 318.2783203125 376.7838134765625 321.521484375 376.04052734375 C 327.19677734375 386.4459228515625 332.33154296875 397.729736328125 336.92626953125 409.89190673828125 C 341.65576171875 422.0540771484375 344.966796875 432.52703857421875 346.8583984375 441.310791015625 C 343.2099609375 442.52703857421875 339.5615234375 443.7432861328125 335.91259765625 444.95947265625 C 334.291015625 435.770263671875 331.115234375 424.95947265625 326.38623046875 412.52703857421875 C 321.79150390625 400.0946044921875 316.9267578125 388.6756591796875 311.7919921875 378.270263671875M 207.8095703125 377.45947265625 C 211.18798828125 378.54052734375 214.56591796875 379.62158203125 217.9443359375 380.70269775390625 C 214.56591796875 391.108154296875 210.580078125 401.9864501953125 205.9853515625 413.33782958984375 C 201.52587890625 424.5540771484375 196.1884765625 435.29730224609375 189.97265625 445.56756591796875 C 183.75634765625 455.70269775390625 176.5947265625 464.689208984375 168.48681640625 472.52703857421875 C 165.37890625 470.56756591796875 162.2705078125 468.60809326171875 159.16259765625 466.648681640625 C 167.2705078125 459.351318359375 174.43212890625 450.70269775390625 180.6484375 440.70269775390625 C 186.86474609375 430.56756591796875 192.2021484375 419.95947265625 196.6611328125 408.87841796875 C 201.255859375 397.79730224609375 204.9716796875 387.3243408203125 207.8095703125 377.45947265625M 320.30517578125 124.48648071289062 C 324.08935546875 125.70269775390625 327.8720703125 126.91891479492188 331.65625 128.1351318359375 C 322.873046875 154.62161254882812 312.197265625 180.6351318359375 299.63037109375 206.1756591796875 C 287.19873046875 231.71621704101562 272.94189453125 256.10809326171875 256.86181640625 279.3513488769531 C 240.78173828125 302.5946044921875 222.74169921875 324.2838134765625 202.7421875 344.4189453125 C 182.8779296875 364.4189453125 160.98681640625 382.189208984375 137.06884765625 397.729736328125 C 136.5283203125 397.0540771484375 135.85302734375 396.10809326171875 135.0419921875 394.89190673828125 C 134.36669921875 393.6756591796875 133.55615234375 392.5946044921875 132.60986328125 391.648681640625 C 131.66357421875 390.56756591796875 130.78564453125 389.62158203125 129.974609375 388.810791015625 C 153.62255859375 373.810791015625 175.2431640625 356.4459228515625 194.8369140625 336.7161865234375 C 214.43115234375 316.98651123046875 232.1328125 295.6351318359375 247.943359375 272.66217041015625 C 263.75341796875 249.689208984375 277.671875 225.70269775390625 289.6982421875 200.70269775390625 C 301.85986328125 175.70269775390625 312.06201171875 150.29730224609375 320.30517578125 124.48648071289062M 398.95068359375 194.62164306640625 C 403.0048828125 194.62164306640625 407.05859375 194.62164306640625 411.11279296875 194.62164306640625 C 408.41015625 207.0540771484375 405.57275390625 220.16217041015625 402.599609375 233.94595336914062 C 399.62646484375 247.729736328125 396.8564453125 259.5540466308594 394.2890625 269.4189147949219 C 390.5048828125 269.0135192871094 386.7216796875 268.60809326171875 382.93798828125 268.20269775390625 C 385.77587890625 258.33782958984375 388.61328125 246.58108520507812 391.451171875 232.93243408203125 C 394.42431640625 219.28378295898438 396.923828125 206.51348876953125 398.95068359375 194.62164306640625M 431.990234375 263.54052734375 C 436.0439453125 263.54052734375 440.09814453125 263.54052734375 444.15185546875 263.54052734375 C 441.583984375 276.2432556152344 438.814453125 289.689208984375 435.84130859375 303.87835693359375 C 433.00390625 317.93243408203125 430.30126953125 329.89190673828125 427.7333984375 339.75677490234375 C 423.7470703125 339.62158203125 419.76123046875 339.4864501953125 415.7744140625 339.351318359375 C 418.6123046875 329.2161865234375 421.58544921875 317.0540771484375 424.693359375 302.8648681640625 C 427.80078125 288.54052734375 430.2333984375 275.43243408203125 431.990234375 263.54052734375"/>
  </g>
</svg>
