<?xml version="1.0" encoding="utf-8"?>
<svg xmlns="http://www.w3.org/2000/svg" xmlns:ev="http://www.w3.org/2001/xml-events" xmlns:xlink="http://www.w3.org/1999/xlink" version="1.1" baseProfile="full" width="30496.0" height="1753.0" viewBox="136.0 -1597.0 30496.0 1753.0">
<defs/>
<g><path d="M 5831.000000 -659.000000 C 5892.333333 -674.333333 5962.000000 -691.666667 6040.000000 -711.000000 C 6118.000000 -731.000000 6201.333333 -752.666667 6290.000000 -776.000000 C 6379.333333 -800.000000 6469.000000 -823.666667 6559.000000 -847.000000 C 6560.666667 -829.000000 6562.333333 -811.000000 6564.000000 -793.000000 C 6435.333333 -757.000000 6307.000000 -722.000000 6179.000000 -688.000000 C 6051.666667 -654.000000 5940.666667 -624.333333 5846.000000 -599.000000 C 5841.000000 -619.000000 5836.000000 -639.000000 5831.000000 -659.000000z M 5891.000000 -1486.000000 C 6139.666667 -1486.000000 6388.333333 -1486.000000 6637.000000 -1486.000000 C 6637.000000 -1467.333333 6637.000000 -1448.666667 6637.000000 -1430.000000 C 6388.333333 -1430.000000 6139.666667 -1430.000000 5891.000000 -1430.000000 C 5891.000000 -1448.666667 5891.000000 -1467.333333 5891.000000 -1486.000000z M 6225.000000 -1117.000000 C 6244.000000 -1117.000000 6263.000000 -1117.000000 6282.000000 -1117.000000 C 6282.000000 -730.000000 6282.000000 -343.000000 6282.000000 44.000000 C 6282.000000 70.000000 6277.333333 89.000000 6268.000000 101.000000 C 6259.333333 113.000000 6245.000000 121.666667 6225.000000 127.000000 C 6205.666667 131.666667 6175.000000 134.333333 6133.000000 135.000000 C 6091.666667 135.666667 6032.666667 136.000000 5956.000000 136.000000 C 5954.666667 130.000000 5951.666667 122.000000 5947.000000 112.000000 C 5942.333333 102.666667 5937.666667 93.333333 5933.000000 84.000000 C 5995.666667 85.333333 6049.666667 86.000000 6095.000000 86.000000 C 6140.333333 86.000000 6170.000000 85.333333 6184.000000 84.000000 C 6198.000000 83.333333 6208.333333 80.333333 6215.000000 75.000000 C 6221.666667 69.666667 6225.000000 60.000000 6225.000000 46.000000 C 6225.000000 -341.666667 6225.000000 -729.333333 6225.000000 -1117.000000z M 6612.000000 -1486.000000 C 6616.666667 -1486.000000 6621.333333 -1486.000000 6626.000000 -1486.000000 C 6629.666667 -1487.333333 6633.333333 -1488.666667 6637.000000 -1490.000000 C 6650.666667 -1481.666667 6664.333333 -1473.333333 6678.000000 -1465.000000 C 6644.666667 -1415.000000 6605.333333 -1364.666667 6560.000000 -1314.000000 C 6514.666667 -1263.333333 6467.333333 -1216.000000 6418.000000 -1172.000000 C 6368.666667 -1128.000000 6321.000000 -1089.333333 6275.000000 -1056.000000 C 6269.666667 -1062.666667 6263.000000 -1069.000000 6255.000000 -1075.000000 C 6247.666667 -1081.666667 6240.666667 -1087.000000 6234.000000 -1091.000000 C 6280.000000 -1123.000000 6326.666667 -1160.333333 6374.000000 -1203.000000 C 6421.333333 -1245.666667 6466.000000 -1290.666667 6508.000000 -1338.000000 C 6550.666667 -1385.333333 6585.333333 -1431.000000 6612.000000 -1475.000000 C 6612.000000 -1478.666667 6612.000000 -1482.333333 6612.000000 -1486.000000z M 6831.000000 -1231.000000 C 7082.666667 -1231.000000 7334.333333 -1231.000000 7586.000000 -1231.000000 C 7586.000000 -1212.333333 7586.000000 -1193.666667 7586.000000 -1175.000000 C 7334.333333 -1175.000000 7082.666667 -1175.000000 6831.000000 -1175.000000 C 6831.000000 -1193.666667 6831.000000 -1212.333333 6831.000000 -1231.000000z M 6927.000000 -1590.000000 C 6945.666667 -1586.000000 6964.333333 -1582.000000 6983.000000 -1578.000000 C 6956.333333 -1482.000000 6924.666667 -1388.666667 6888.000000 -1298.000000 C 6851.333333 -1207.333333 6811.333333 -1122.333333 6768.000000 -1043.000000 C 6724.666667 -964.333333 6678.000000 -894.333333 6628.000000 -833.000000 C 6625.333333 -835.666667 6620.666667 -839.333333 6614.000000 -844.000000 C 6608.000000 -848.666667 6601.666667 -852.666667 6595.000000 -856.000000 C 6589.000000 -860.000000 6583.333333 -863.333333 6578.000000 -866.000000 C 6629.333333 -926.000000 6676.666667 -994.333333 6720.000000 -1071.000000 C 6763.333333 -1148.333333 6802.666667 -1231.000000 6838.000000 -1319.000000 C 6873.333333 -1407.666667 6903.000000 -1498.000000 6927.000000 -1590.000000z M 7371.000000 -1219.000000 C 7390.000000 -1216.000000 7409.000000 -1213.000000 7428.000000 -1210.000000 C 7387.333333 -979.333333 7330.000000 -778.666667 7256.000000 -608.000000 C 7182.666667 -438.000000 7086.333333 -292.000000 6967.000000 -170.000000 C 6848.333333 -48.000000 6700.000000 55.333333 6522.000000 140.000000 C 6519.333333 134.666667 6515.333333 129.000000 6510.000000 123.000000 C 6505.333333 117.666667 6500.333333 111.666667 6495.000000 105.000000 C 6490.333333 99.000000 6486.000000 94.000000 6482.000000 90.000000 C 6660.000000 12.000000 6807.000000 -86.000000 6923.000000 -204.000000 C 7039.666667 -322.666667 7133.333333 -465.333333 7204.000000 -632.000000 C 7275.333333 -799.333333 7331.000000 -995.000000 7371.000000 -1219.000000z M 6822.000000 -1164.000000 C 6860.000000 -969.333333 6912.666667 -788.333333 6980.000000 -621.000000 C 7047.333333 -454.333333 7132.000000 -310.000000 7234.000000 -188.000000 C 7336.666667 -66.666667 7459.666667 24.666667 7603.000000 86.000000 C 7599.000000 90.000000 7594.000000 94.666667 7588.000000 100.000000 C 7582.666667 106.000000 7577.333333 111.666667 7572.000000 117.000000 C 7567.333333 122.333333 7563.000000 127.333333 7559.000000 132.000000 C 7415.666667 66.000000 7292.333333 -29.333333 7189.000000 -154.000000 C 7086.333333 -279.333333 7000.666667 -426.666667 6932.000000 -596.000000 C 6863.333333 -766.000000 6809.333333 -951.333333 6770.000000 -1152.000000 C 6787.333333 -1156.000000 6804.666667 -1160.000000 6822.000000 -1164.000000z "/>
</g></svg>
