<?xml version="1.0" encoding="utf-8"?>
<svg xmlns="http://www.w3.org/2000/svg" xmlns:ev="http://www.w3.org/2001/xml-events" xmlns:xlink="http://www.w3.org/1999/xlink" version="1.1" baseProfile="full" width="17103.0" height="1740.3" viewBox="60.0 -1597.0 17103.0 1740.3">
<defs/>
<g><path d="M 4706.000000 -1027.000000 C 4951.666667 -1027.000000 5197.333333 -1027.000000 5443.000000 -1027.000000 C 5443.000000 -1008.666667 5443.000000 -990.333333 5443.000000 -972.000000 C 5197.333333 -972.000000 4951.666667 -972.000000 4706.000000 -972.000000 C 4706.000000 -990.333333 4706.000000 -1008.666667 4706.000000 -1027.000000z M 4564.000000 -666.000000 C 4910.666667 -666.000000 5257.333333 -666.000000 5604.000000 -666.000000 C 5604.000000 -647.666667 5604.000000 -629.333333 5604.000000 -611.000000 C 5257.333333 -611.000000 4910.666667 -611.000000 4564.000000 -611.000000 C 4564.000000 -629.333333 4564.000000 -647.666667 4564.000000 -666.000000z M 5063.000000 -1530.000000 C 5025.666667 -1464.666667 4977.666667 -1397.000000 4919.000000 -1327.000000 C 4860.333333 -1257.666667 4795.000000 -1191.000000 4723.000000 -1127.000000 C 4651.666667 -1063.000000 4577.000000 -1006.000000 4499.000000 -956.000000 C 4495.000000 -962.666667 4489.333333 -970.000000 4482.000000 -978.000000 C 4475.333333 -986.666667 4468.666667 -993.333333 4462.000000 -998.000000 C 4540.000000 -1045.333333 4615.333333 -1101.333333 4688.000000 -1166.000000 C 4761.333333 -1230.666667 4827.666667 -1299.333333 4887.000000 -1372.000000 C 4947.000000 -1445.333333 4994.666667 -1517.333333 5030.000000 -1588.000000 C 5049.333333 -1588.000000 5068.666667 -1588.000000 5088.000000 -1588.000000 C 5135.333333 -1513.333333 5192.000000 -1440.000000 5258.000000 -1368.000000 C 5324.000000 -1296.666667 5394.000000 -1230.333333 5468.000000 -1169.000000 C 5542.666667 -1107.666667 5614.333333 -1056.000000 5683.000000 -1014.000000 C 5678.333333 -1008.666667 5672.000000 -1001.333333 5664.000000 -992.000000 C 5656.000000 -983.333333 5650.333333 -976.000000 5647.000000 -970.000000 C 5576.333333 -1016.000000 5504.333333 -1069.333333 5431.000000 -1130.000000 C 5358.333333 -1190.666667 5290.000000 -1255.333333 5226.000000 -1324.000000 C 5162.000000 -1393.333333 5107.666667 -1462.000000 5063.000000 -1530.000000z M 5036.000000 -1008.000000 C 5055.333333 -1008.000000 5074.666667 -1008.000000 5094.000000 -1008.000000 C 5094.000000 -657.333333 5094.000000 -306.666667 5094.000000 44.000000 C 5094.000000 68.666667 5090.000000 87.000000 5082.000000 99.000000 C 5074.666667 111.000000 5061.333333 119.666667 5042.000000 125.000000 C 5024.000000 129.666667 4996.000000 132.333333 4958.000000 133.000000 C 4920.666667 133.666667 4870.000000 134.000000 4806.000000 134.000000 C 4804.666667 128.000000 4801.333333 119.333333 4796.000000 108.000000 C 4790.666667 97.333333 4785.666667 87.666667 4781.000000 79.000000 C 4835.666667 80.333333 4883.000000 81.000000 4923.000000 81.000000 C 4963.666667 81.000000 4990.666667 81.000000 5004.000000 81.000000 C 5018.000000 79.666667 5026.666667 76.666667 5030.000000 72.000000 C 5034.000000 67.333333 5036.000000 58.666667 5036.000000 46.000000 C 5036.000000 -305.333333 5036.000000 -656.666667 5036.000000 -1008.000000z M 4740.000000 -476.000000 C 4758.000000 -471.666667 4776.000000 -467.333333 4794.000000 -463.000000 C 4762.000000 -377.000000 4720.666667 -293.333333 4670.000000 -212.000000 C 4620.000000 -130.666667 4567.333333 -61.333333 4512.000000 -4.000000 C 4509.333333 -8.000000 4505.000000 -12.000000 4499.000000 -16.000000 C 4493.666667 -20.666667 4488.000000 -25.333333 4482.000000 -30.000000 C 4476.666667 -35.333333 4471.333333 -39.333333 4466.000000 -42.000000 C 4522.000000 -97.333333 4573.666667 -163.000000 4621.000000 -239.000000 C 4668.333333 -315.000000 4708.000000 -394.000000 4740.000000 -476.000000z M 5313.000000 -451.000000 C 5327.666667 -458.666667 5342.333333 -466.333333 5357.000000 -474.000000 C 5393.666667 -429.333333 5430.666667 -380.666667 5468.000000 -328.000000 C 5505.333333 -276.000000 5540.000000 -225.333333 5572.000000 -176.000000 C 5604.000000 -126.666667 5629.666667 -83.333333 5649.000000 -46.000000 C 5633.000000 -36.333333 5617.000000 -26.666667 5601.000000 -17.000000 C 5581.666667 -54.333333 5556.000000 -98.333333 5524.000000 -149.000000 C 5492.000000 -199.666667 5457.666667 -251.333333 5421.000000 -304.000000 C 5384.333333 -357.333333 5348.333333 -406.333333 5313.000000 -451.000000z M 4013.000000 -1511.000000 C 4163.333333 -1511.000000 4313.666667 -1511.000000 4464.000000 -1511.000000 C 4464.000000 -1492.333333 4464.000000 -1473.666667 4464.000000 -1455.000000 C 4332.666667 -1455.000000 4201.333333 -1455.000000 4070.000000 -1455.000000 C 4070.000000 -925.333333 4070.000000 -395.666667 4070.000000 134.000000 C 4051.000000 134.000000 4032.000000 134.000000 4013.000000 134.000000 C 4013.000000 -414.333333 4013.000000 -962.666667 4013.000000 -1511.000000z M 4449.000000 -1511.000000 C 4452.666667 -1511.000000 4456.333333 -1511.000000 4460.000000 -1511.000000 C 4464.000000 -1512.333333 4468.000000 -1513.666667 4472.000000 -1515.000000 C 4484.000000 -1506.000000 4496.000000 -1497.000000 4508.000000 -1488.000000 C 4487.333333 -1438.000000 4465.000000 -1384.666667 4441.000000 -1328.000000 C 4417.666667 -1272.000000 4393.666667 -1215.333333 4369.000000 -1158.000000 C 4344.333333 -1101.333333 4319.000000 -1047.000000 4293.000000 -995.000000 C 4375.000000 -910.333333 4429.333333 -832.000000 4456.000000 -760.000000 C 4483.333333 -688.666667 4497.000000 -621.000000 4497.000000 -557.000000 C 4497.000000 -515.666667 4491.666667 -476.666667 4481.000000 -440.000000 C 4471.000000 -404.000000 4454.333333 -377.666667 4431.000000 -361.000000 C 4419.666667 -353.000000 4406.333333 -346.666667 4391.000000 -342.000000 C 4375.666667 -338.000000 4359.000000 -334.666667 4341.000000 -332.000000 C 4296.333333 -328.000000 4251.666667 -328.000000 4207.000000 -332.000000 C 4205.666667 -338.666667 4203.333333 -347.333333 4200.000000 -358.000000 C 4196.666667 -368.666667 4192.000000 -378.666667 4186.000000 -388.000000 C 4212.666667 -386.666667 4237.666667 -385.666667 4261.000000 -385.000000 C 4285.000000 -384.333333 4306.666667 -384.666667 4326.000000 -386.000000 C 4354.000000 -388.666667 4376.333333 -395.000000 4393.000000 -405.000000 C 4411.000000 -417.666667 4423.333333 -438.333333 4430.000000 -467.000000 C 4437.333333 -496.333333 4441.000000 -526.333333 4441.000000 -557.000000 C 4441.000000 -617.000000 4426.333333 -682.000000 4397.000000 -752.000000 C 4367.666667 -822.666667 4311.333333 -901.000000 4228.000000 -987.000000 C 4249.333333 -1031.666667 4270.333333 -1076.666667 4291.000000 -1122.000000 C 4311.666667 -1167.333333 4331.666667 -1212.000000 4351.000000 -1256.000000 C 4370.333333 -1300.666667 4388.000000 -1343.333333 4404.000000 -1384.000000 C 4420.666667 -1425.333333 4435.666667 -1463.333333 4449.000000 -1498.000000 C 4449.000000 -1502.333333 4449.000000 -1506.666667 4449.000000 -1511.000000z "/>
</g></svg>
