<?xml version="1.0" ?>
<svg xmlns="http://www.w3.org/2000/svg" version="1.1" width="600" height="600">
  <defs/>
  <g>
    <path stroke-width="0" fill="rgb(0, 0, 0)" opacity="1.0" d="M 241.648193359375 232.9053955078125 C 252.59375 233.85134887695312 263.1337890625 234.5946044921875 273.2685546875 235.1351318359375 C 283.53857421875 235.6756591796875 294.281494140625 235.94595336914062 305.4970703125 235.94595336914062 C 328.604248046875 235.94595336914062 351.5087890625 235.1351318359375 374.210693359375 233.51351928710938 C 396.91259765625 231.75677490234375 417.72265625 229.0540771484375 436.640625 225.4053955078125 C 436.640625 229.3243408203125 436.640625 233.24322509765625 436.640625 237.16217041015625 C 415.560546875 240.810791015625 393.8046875 243.51348876953125 371.373046875 245.270263671875 C 348.94140625 246.89190673828125 326.577392578125 247.70269775390625 304.281005859375 247.70269775390625 C 293.470703125 247.70269775390625 283.20068359375 247.43243408203125 273.47119140625 246.89190673828125 C 263.741943359375 246.35134887695312 253.13427734375 245.6756591796875 241.648193359375 244.8648681640625 C 241.648193359375 240.87838745117188 241.648193359375 236.89190673828125 241.648193359375 232.9053955078125M 365.900146484375 158.91891479492188 C 365.359619140625 163.10809326171875 364.88671875 166.89190673828125 364.4814453125 170.270263671875 C 364.075927734375 173.51351928710938 363.738037109375 176.95947265625 363.4677734375 180.60812377929688 C 363.19775390625 185.87838745117188 362.994873046875 192.229736328125 362.85986328125 199.66217041015625 C 362.724609375 206.95947265625 362.656982421875 214.52703857421875 362.656982421875 222.3648681640625 C 362.656982421875 230.06756591796875 362.656982421875 236.95947265625 362.656982421875 243.04052734375 C 362.656982421875 254.93243408203125 362.92724609375 268.04052734375 363.4677734375 282.3648681640625 C 364.008544921875 296.5540771484375 364.616455078125 311.0810546875 365.292236328125 325.9459228515625 C 366.102783203125 340.6756591796875 366.778564453125 354.8648681640625 367.319091796875 368.5135498046875 C 367.859619140625 382.16217041015625 368.1298828125 394.39190673828125 368.1298828125 405.20269775390625 C 368.1298828125 410.87841796875 367.319091796875 416.95947265625 365.697509765625 423.4459228515625 C 364.211181640625 429.79730224609375 361.37353515625 435.810791015625 357.184326171875 441.4864501953125 C 353.13037109375 447.16217041015625 347.252197265625 451.7567138671875 339.5498046875 455.270263671875 C 331.847412109375 458.7838134765625 321.915283203125 460.54052734375 309.753662109375 460.54052734375 C 284.61962890625 460.54052734375 265.9716796875 456.0810546875 253.809814453125 447.16217041015625 C 241.783447265625 438.10809326171875 235.77001953125 426.351318359375 235.77001953125 411.89190673828125 C 235.77001953125 403.2432861328125 238.47265625 395.1351318359375 243.8779296875 387.56756591796875 C 249.418212890625 379.8648681640625 257.593505859375 373.648681640625 268.404052734375 368.9189453125 C 279.349365234375 364.0540771484375 292.99755859375 361.62158203125 309.348388671875 361.62158203125 C 323.9423828125 361.62158203125 337.59033203125 363.310791015625 350.292724609375 366.689208984375 C 362.994873046875 370.06756591796875 374.9541015625 374.66217041015625 386.169677734375 380.47296142578125 C 397.5205078125 386.148681640625 408.196044921875 392.6351318359375 418.195556640625 399.93243408203125 C 428.195068359375 407.0946044921875 437.586669921875 414.5946044921875 446.3701171875 422.43243408203125 C 443.870361328125 426.0135498046875 441.3701171875 429.5946044921875 438.870361328125 433.1756591796875 C 426.708740234375 421.5540771484375 414.00634765625 411.148681640625 400.763671875 401.95947265625 C 387.52099609375 392.770263671875 373.33251953125 385.47296142578125 358.19775390625 380.06756591796875 C 343.063232421875 374.52703857421875 326.374755859375 371.75677490234375 308.132080078125 371.75677490234375 C 290.02490234375 371.75677490234375 275.160400390625 375.47296142578125 263.539306640625 382.9053955078125 C 252.05322265625 390.33782958984375 246.310302734375 399.729736328125 246.310302734375 411.0810546875 C 246.310302734375 422.97296142578125 251.647705078125 432.3648681640625 262.322998046875 439.2567138671875 C 272.99853515625 446.148681640625 287.119384765625 449.5946044921875 304.686279296875 449.5946044921875 C 318.73974609375 449.5946044921875 329.482666015625 447.5 336.914794921875 443.310791015625 C 344.48193359375 438.9864501953125 349.752197265625 433.10809326171875 352.72509765625 425.6756591796875 C 355.697998046875 418.2432861328125 357.184326171875 409.729736328125 357.184326171875 400.1351318359375 C 357.184326171875 392.83782958984375 356.9140625 382.83782958984375 356.37353515625 370.1351318359375 C 355.96826171875 357.43243408203125 355.360107421875 343.5810546875 354.54931640625 328.5810546875 C 353.738525390625 313.5810546875 353.06298828125 298.6486511230469 352.5224609375 283.7837829589844 C 351.981689453125 268.7837829589844 351.711669921875 255.4053955078125 351.711669921875 243.64865112304688 C 351.711669921875 231.75677490234375 351.711669921875 220.33782958984375 351.711669921875 209.39190673828125 C 351.711669921875 198.31082153320312 351.8466796875 188.85134887695312 352.116943359375 181.01351928710938 C 352.116943359375 177.3648681640625 352.116943359375 173.58108520507812 352.116943359375 169.66217041015625 C 352.116943359375 165.60812377929688 351.8466796875 162.02703857421875 351.30615234375 158.91891479492188 C 356.1708984375 158.91891479492188 361.03564453125 158.91891479492188 365.900146484375 158.91891479492188M 171.515869140625 160.1351318359375 C 171.1103515625 161.62164306640625 170.637451171875 163.310791015625 170.096923828125 165.20269775390625 C 169.556396484375 166.95944213867188 169.08349609375 168.91891479492188 168.677978515625 171.08108520507812 C 168.272705078125 173.10812377929688 167.7998046875 175.270263671875 167.259033203125 177.56756591796875 C 165.50244140625 186.89190673828125 163.610595703125 196.95947265625 161.583740234375 207.770263671875 C 159.69189453125 218.4459228515625 157.800048828125 229.5946044921875 155.908203125 241.21621704101562 C 154.1513671875 252.70269775390625 152.59765625 264.25677490234375 151.246337890625 275.87835693359375 C 150.030029296875 287.3648681640625 149.0166015625 298.6486511230469 148.205810546875 309.729736328125 C 147.39501953125 320.6756591796875 146.98974609375 330.9459228515625 146.98974609375 340.54052734375 C 146.98974609375 355.6756591796875 147.5302734375 369.52703857421875 148.611328125 382.0946044921875 C 149.692138671875 394.66217041015625 151.246337890625 408.5810546875 153.273193359375 423.851318359375 C 155.5703125 416.689208984375 158.340576171875 408.5135498046875 161.583740234375 399.3243408203125 C 164.826904296875 390.0 168.137451171875 380.87841796875 171.515869140625 371.95947265625 C 174.89404296875 363.04052734375 177.9345703125 355.47296142578125 180.636962890625 349.25677490234375 C 183.20458984375 351.2161865234375 185.77197265625 353.1756591796875 188.33935546875 355.1351318359375 C 185.77197265625 362.29730224609375 182.52880859375 371.0135498046875 178.610107421875 381.2838134765625 C 174.69140625 391.5540771484375 171.04296875 401.4864501953125 167.66455078125 411.0810546875 C 164.2861328125 420.6756591796875 161.989013671875 428.310791015625 160.77294921875 433.9864501953125 C 160.232421875 436.5540771484375 159.826904296875 439.45947265625 159.556640625 442.70269775390625 C 159.28662109375 445.810791015625 159.28662109375 448.648681640625 159.556640625 451.2161865234375 C 159.826904296875 452.97296142578125 160.097412109375 454.8648681640625 160.367431640625 456.89190673828125 C 160.6376953125 459.0540771484375 160.908203125 460.810791015625 161.17822265625 462.16217041015625 C 157.52978515625 462.5 153.88134765625 462.83782958984375 150.232666015625 463.1756591796875 C 146.584228515625 448.7161865234375 143.341064453125 431.2838134765625 140.50341796875 410.87841796875 C 137.665771484375 390.47296142578125 136.246826171875 367.16217041015625 136.246826171875 340.9459228515625 C 136.246826171875 327.02703857421875 136.989990234375 312.29730224609375 138.4765625 296.75677490234375 C 140.09814453125 281.0810852050781 141.98974609375 265.6756591796875 144.15185546875 250.54052734375 C 146.31396484375 235.4053955078125 148.408447265625 221.35134887695312 150.435546875 208.37838745117188 C 152.59765625 195.4053955078125 154.354248046875 184.59457397460938 155.70556640625 175.94595336914062 C 156.24609375 172.29730224609375 156.583740234375 169.05404663085938 156.718994140625 166.21621704101562 C 156.9892578125 163.37838745117188 157.12451171875 160.81082153320312 157.12451171875 158.51351928710938 C 161.921630859375 159.05404663085938 166.718505859375 159.5946044921875 171.515869140625 160.1351318359375M 401.169189453125 149.18917846679688 C 403.6015625 153.37838745117188 406.37158203125 158.78378295898438 409.479736328125 165.4053955078125 C 412.587646484375 171.89190673828125 415.76318359375 178.64865112304688 419.00634765625 185.67568969726562 C 422.24951171875 192.70269775390625 424.884521484375 198.9189453125 426.911376953125 204.3243408203125 C 422.65478515625 206.01351928710938 418.398193359375 207.70269775390625 414.1416015625 209.39190673828125 C 412.249755859375 203.71621704101562 409.817626953125 197.43243408203125 406.844482421875 190.54052734375 C 403.87158203125 183.64865112304688 400.89892578125 176.89187622070312 397.926025390625 170.270263671875 C 394.953125 163.51351928710938 392.18310546875 157.77029418945312 389.615478515625 153.04055786132812 C 393.466796875 151.75674438476562 397.31787109375 150.47299194335938 401.169189453125 149.18917846679688M 438.870361328125 137.83782958984375 C 441.572998046875 142.29730224609375 444.478271484375 147.770263671875 447.586181640625 154.25674438476562 C 450.694091796875 160.74325561523438 453.80224609375 167.3648681640625 456.91015625 174.12161254882812 C 460.01806640625 180.87838745117188 462.720947265625 186.95947265625 465.01806640625 192.3648681640625 C 460.761474609375 194.0540771484375 456.5048828125 195.74322509765625 452.248291015625 197.43243408203125 C 448.869873046875 188.64865112304688 444.8837890625 178.85134887695312 440.289306640625 168.04055786132812 C 435.830078125 157.229736328125 431.505859375 148.44595336914062 427.31689453125 141.68917846679688 C 431.16796875 140.4053955078125 435.019287109375 139.12164306640625 438.870361328125 137.83782958984375"/>
  </g>
</svg>
