<?xml version="1.0" encoding="utf-8"?>
<svg xmlns="http://www.w3.org/2000/svg" xmlns:ev="http://www.w3.org/2001/xml-events" xmlns:xlink="http://www.w3.org/1999/xlink" version="1.1" baseProfile="full" width="1674.0" height="1597.0" viewBox="117.0 -1505.0 1674.0 1597.0">
<defs/>
<g><path d="M 563.000000 -476.000000 C 582.000000 -476.000000 601.000000 -476.000000 620.000000 -476.000000 C 620.000000 -327.000000 620.000000 -178.000000 620.000000 -29.000000 C 620.000000 -3.000000 628.666667 14.000000 646.000000 22.000000 C 663.333333 30.666667 702.666667 35.000000 764.000000 35.000000 C 778.000000 35.000000 805.666667 35.000000 847.000000 35.000000 C 889.000000 35.000000 935.333333 35.000000 986.000000 35.000000 C 1036.666667 35.000000 1084.333333 35.000000 1129.000000 35.000000 C 1173.666667 35.000000 1205.666667 35.000000 1225.000000 35.000000 C 1261.000000 35.000000 1287.666667 28.333333 1305.000000 15.000000 C 1323.000000 2.333333 1336.000000 -23.666667 1344.000000 -63.000000 C 1352.000000 -103.000000 1357.000000 -163.333333 1359.000000 -244.000000 C 1365.666667 -240.000000 1372.000000 -236.000000 1378.000000 -232.000000 C 1384.666667 -228.666667 1391.000000 -225.666667 1397.000000 -223.000000 C 1403.666667 -220.333333 1409.666667 -218.333333 1415.000000 -217.000000 C 1411.000000 -133.666667 1404.000000 -69.666667 1394.000000 -25.000000 C 1384.000000 19.666667 1366.333333 50.333333 1341.000000 67.000000 C 1316.333333 83.666667 1278.333333 92.000000 1227.000000 92.000000 C 1219.000000 92.000000 1199.666667 92.000000 1169.000000 92.000000 C 1138.333333 92.000000 1102.000000 92.000000 1060.000000 92.000000 C 1018.666667 92.000000 977.000000 92.000000 935.000000 92.000000 C 893.000000 92.000000 856.666667 92.000000 826.000000 92.000000 C 795.333333 92.000000 776.666667 92.000000 770.000000 92.000000 C 717.333333 92.000000 675.666667 88.666667 645.000000 82.000000 C 614.333333 76.000000 593.000000 64.333333 581.000000 47.000000 C 569.000000 29.666667 563.000000 3.666667 563.000000 -31.000000 C 563.000000 -179.333333 563.000000 -327.666667 563.000000 -476.000000z M 728.000000 -564.000000 C 740.666667 -575.666667 753.333333 -587.333333 766.000000 -599.000000 C 817.333333 -573.666667 869.666667 -544.333333 923.000000 -511.000000 C 977.000000 -477.666667 1027.666667 -444.000000 1075.000000 -410.000000 C 1122.333333 -376.000000 1161.333333 -344.333333 1192.000000 -315.000000 C 1179.333333 -301.666667 1166.666667 -288.333333 1154.000000 -275.000000 C 1124.666667 -303.000000 1086.333333 -334.000000 1039.000000 -368.000000 C 991.666667 -402.666667 940.666667 -437.333333 886.000000 -472.000000 C 831.333333 -506.666667 778.666667 -537.333333 728.000000 -564.000000z M 1448.000000 -457.000000 C 1464.666667 -464.000000 1481.333333 -471.000000 1498.000000 -478.000000 C 1537.333333 -429.333333 1576.333333 -375.666667 1615.000000 -317.000000 C 1654.333333 -259.000000 1689.666667 -202.000000 1721.000000 -146.000000 C 1752.333333 -90.666667 1775.666667 -41.333333 1791.000000 2.000000 C 1773.333333 11.000000 1755.666667 20.000000 1738.000000 29.000000 C 1721.333333 -14.333333 1697.666667 -64.000000 1667.000000 -120.000000 C 1637.000000 -176.666667 1602.666667 -234.333333 1564.000000 -293.000000 C 1526.000000 -352.333333 1487.333333 -407.000000 1448.000000 -457.000000z M 336.000000 -447.000000 C 352.000000 -442.000000 368.000000 -437.000000 384.000000 -432.000000 C 370.000000 -382.000000 352.333333 -327.333333 331.000000 -268.000000 C 310.333333 -209.333333 286.000000 -152.000000 258.000000 -96.000000 C 230.666667 -40.666667 200.333333 7.333333 167.000000 48.000000 C 150.333333 40.333333 133.666667 32.666667 117.000000 25.000000 C 151.666667 -15.666667 182.666667 -63.666667 210.000000 -119.000000 C 238.000000 -174.333333 262.333333 -231.000000 283.000000 -289.000000 C 304.333333 -347.000000 322.000000 -399.666667 336.000000 -447.000000z M 351.000000 -1069.000000 C 351.000000 -959.666667 351.000000 -850.333333 351.000000 -741.000000 C 751.000000 -741.000000 1151.000000 -741.000000 1551.000000 -741.000000 C 1551.000000 -850.333333 1551.000000 -959.666667 1551.000000 -1069.000000 C 1151.000000 -1069.000000 751.000000 -1069.000000 351.000000 -1069.000000z M 351.000000 -1450.000000 C 351.000000 -1341.666667 351.000000 -1233.333333 351.000000 -1125.000000 C 751.000000 -1125.000000 1151.000000 -1125.000000 1551.000000 -1125.000000 C 1551.000000 -1233.333333 1551.000000 -1341.666667 1551.000000 -1450.000000 C 1151.000000 -1450.000000 751.000000 -1450.000000 351.000000 -1450.000000z M 296.000000 -1505.000000 C 733.000000 -1505.000000 1170.000000 -1505.000000 1607.000000 -1505.000000 C 1607.000000 -1231.666667 1607.000000 -958.333333 1607.000000 -685.000000 C 1170.000000 -685.000000 733.000000 -685.000000 296.000000 -685.000000 C 296.000000 -958.333333 296.000000 -1231.666667 296.000000 -1505.000000z M 927.000000 -1484.000000 C 946.333333 -1484.000000 965.666667 -1484.000000 985.000000 -1484.000000 C 985.000000 -1227.333333 985.000000 -970.666667 985.000000 -714.000000 C 965.666667 -714.000000 946.333333 -714.000000 927.000000 -714.000000 C 927.000000 -970.666667 927.000000 -1227.333333 927.000000 -1484.000000z "/>
</g>
</svg>
