<?xml version="1.0" ?>
<svg xmlns="http://www.w3.org/2000/svg" version="1.1" width="600" height="600">
  <defs/>
  <g>
    <path stroke-width="0" fill="rgb(0, 0, 0)" opacity="1.0" d="M 258.00439453125 367.0137939453125 C 320.6923828125 367.0137939453125 383.380126953125 367.0137939453125 446.06787109375 367.0137939453125 C 446.06787109375 370.95391845703125 446.06787109375 374.89404296875 446.06787109375 378.8341064453125 C 383.380126953125 378.8341064453125 320.6923828125 378.8341064453125 258.00439453125 378.8341064453125 C 258.00439453125 374.89404296875 258.00439453125 370.95391845703125 258.00439453125 367.0137939453125M 441.50634765625 367.0137939453125 C 442.473876953125 367.0137939453125 443.44140625 367.0137939453125 444.4091796875 367.0137939453125 C 445.16943359375 366.7373046875 445.9296875 366.4608154296875 446.68994140625 366.184326171875 C 449.2470703125 367.774169921875 451.8046875 369.36407470703125 454.36181640625 370.95391845703125 C 445.376953125 387.1290283203125 433.28125 401.437744140625 418.076171875 413.88018798828125 C 403.0087890625 426.184326171875 385.9375 436.6912841796875 366.861328125 445.40087890625 C 347.923828125 453.97235107421875 328.0185546875 461.0921630859375 307.145751953125 466.7603759765625 C 286.4111328125 472.4285888671875 265.67626953125 476.8525390625 244.9417724609375 480.0322265625 C 244.3887939453125 478.51153564453125 243.4903564453125 476.6451416015625 242.2462158203125 474.43316650390625 C 241.1405029296875 472.35943603515625 239.8963623046875 470.63134765625 238.5140380859375 469.24884033203125 C 258.69580078125 466.62213134765625 279.015625 462.6129150390625 299.473876953125 457.22119140625 C 319.93212890625 451.9677734375 339.353515625 445.40087890625 357.73828125 437.520751953125 C 376.26123046875 429.5023193359375 392.77978515625 419.89404296875 407.2939453125 408.69586181640625 C 421.94677734375 397.35943603515625 433.3505859375 384.364013671875 441.50634765625 369.709716796875 C 441.50634765625 368.81103515625 441.50634765625 367.9124755859375 441.50634765625 367.0137939453125M 304.24267578125 377.3824462890625 C 314.88671875 393.004638671875 329.331787109375 407.036865234375 347.578125 419.479248046875 C 365.962890625 431.783447265625 386.7666015625 442.22119140625 409.98974609375 450.7926025390625 C 433.21240234375 459.225830078125 457.2646484375 465.37786865234375 482.14599609375 469.24884033203125 C 480.902099609375 470.63134765625 479.51953125 472.290283203125 477.999267578125 474.225830078125 C 476.61669921875 476.299560546875 475.51123046875 477.95849609375 474.681640625 479.2027587890625 C 449.66162109375 474.77880859375 425.4716796875 468.004638671875 402.1103515625 458.88018798828125 C 378.749267578125 449.89404296875 357.73828125 438.9031982421875 339.0771484375 425.9078369140625 C 320.416015625 412.9124755859375 305.48681640625 398.0506591796875 294.2900390625 381.32257080078125 C 297.60791015625 380.00921630859375 300.92529296875 378.69586181640625 304.24267578125 377.3824462890625M 250.5401611328125 149.68661499023438 C 325.530517578125 149.68661499023438 400.5205078125 149.68661499023438 475.51123046875 149.68661499023438 C 475.51123046875 153.626708984375 475.51123046875 157.56680297851562 475.51123046875 161.50689697265625 C 400.5205078125 161.50689697265625 325.530517578125 161.50689697265625 250.5401611328125 161.50689697265625 C 250.5401611328125 157.56680297851562 250.5401611328125 153.626708984375 250.5401611328125 149.68661499023438M 285.58154296875 255.447021484375 C 342.39453125 255.447021484375 399.20751953125 255.447021484375 456.0205078125 255.447021484375 C 456.0205078125 259.3179931640625 456.0205078125 263.1889343261719 456.0205078125 267.0599060058594 C 399.20751953125 267.0599060058594 342.39453125 267.0599060058594 285.58154296875 267.0599060058594 C 285.58154296875 263.1889343261719 285.58154296875 259.3179931640625 285.58154296875 255.447021484375M 285.58154296875 293.81103515625 C 342.39453125 293.81103515625 399.20751953125 293.81103515625 456.0205078125 293.81103515625 C 456.0205078125 297.6129150390625 456.0205078125 301.41473388671875 456.0205078125 305.216552734375 C 399.20751953125 305.216552734375 342.39453125 305.216552734375 285.58154296875 305.216552734375 C 285.58154296875 301.41473388671875 285.58154296875 297.6129150390625 285.58154296875 293.81103515625M 316.68359375 120.03225708007812 C 320.623046875 120.03225708007812 324.56298828125 120.03225708007812 328.50244140625 120.03225708007812 C 328.50244140625 142.22119140625 328.50244140625 164.41012573242188 328.50244140625 186.59906005859375 C 324.56298828125 186.59906005859375 320.623046875 186.59906005859375 316.68359375 186.59906005859375 C 316.68359375 164.41012573242188 316.68359375 142.22119140625 316.68359375 120.03225708007812M 361.26318359375 221.23040771484375 C 365.064453125 221.23040771484375 368.865966796875 221.23040771484375 372.667236328125 221.23040771484375 C 372.667236328125 259.8709716796875 372.667236328125 298.51153564453125 372.667236328125 337.152099609375 C 368.865966796875 337.152099609375 365.064453125 337.152099609375 361.26318359375 337.152099609375 C 361.26318359375 298.51153564453125 361.26318359375 259.8709716796875 361.26318359375 221.23040771484375M 401.69580078125 120.03225708007812 C 405.56640625 120.03225708007812 409.4365234375 120.03225708007812 413.30712890625 120.03225708007812 C 413.30712890625 142.22119140625 413.30712890625 164.41012573242188 413.30712890625 186.59906005859375 C 409.4365234375 186.59906005859375 405.56640625 186.59906005859375 401.69580078125 186.59906005859375 C 401.69580078125 164.41012573242188 401.69580078125 142.22119140625 401.69580078125 120.03225708007812M 300.30322265625 181.41473388671875 C 304.173828125 182.38247680664062 308.044189453125 183.3502197265625 311.91455078125 184.31796264648438 C 303.897216796875 200.76959228515625 294.0830078125 216.59906005859375 282.471435546875 231.80645751953125 C 270.99853515625 247.0137939453125 259.386962890625 260.0783386230469 247.63720703125 271.0 C 247.2225341796875 270.1705017089844 246.3240966796875 269.34100341796875 244.9417724609375 268.51153564453125 C 243.559326171875 267.54376220703125 242.17724609375 266.6451416015625 240.7947998046875 265.815673828125 C 239.55078125 264.847900390625 238.375732421875 264.0875549316406 237.2698974609375 263.5345458984375 C 249.8489990234375 253.1658935546875 261.667724609375 240.7926025390625 272.72607421875 226.41473388671875 C 283.9228515625 211.89862060546875 293.115234375 196.89862060546875 300.30322265625 181.41473388671875M 372.667236328125 182.24423217773438 C 376.53759765625 183.83407592773438 380.408203125 185.42398071289062 384.278564453125 187.01382446289062 C 380.82275390625 194.2027587890625 377.15966796875 201.32257080078125 373.2890625 208.37326049804688 C 369.418701171875 215.4239501953125 365.755859375 221.57601928710938 362.2998046875 226.8294677734375 C 359.12060546875 225.51611328125 355.941162109375 224.2027587890625 352.761962890625 222.889404296875 C 356.2177734375 217.08294677734375 359.880859375 210.2396240234375 363.75146484375 202.35943603515625 C 367.621826171875 194.479248046875 370.59375 187.774169921875 372.667236328125 182.24423217773438M 466.180419921875 217.705078125 C 466.180419921875 221.57601928710938 466.180419921875 225.447021484375 466.180419921875 229.31796264648438 C 408.330810546875 229.31796264648438 350.48095703125 229.31796264648438 292.63134765625 229.31796264648438 C 292.63134765625 263.81103515625 292.63134765625 298.30413818359375 292.63134765625 332.7972412109375 C 353.453125 332.7972412109375 414.27490234375 332.7972412109375 475.096435546875 332.7972412109375 C 475.096435546875 336.59906005859375 475.096435546875 340.40093994140625 475.096435546875 344.2027587890625 C 410.47314453125 344.2027587890625 345.8505859375 344.2027587890625 281.2275390625 344.2027587890625 C 281.2275390625 302.036865234375 281.2275390625 259.8709716796875 281.2275390625 217.705078125 C 342.87841796875 217.705078125 404.529541015625 217.705078125 466.180419921875 217.705078125M 135.048095703125 239.27188110351562 C 167.947021484375 239.27188110351562 200.8460693359375 239.27188110351562 233.7449951171875 239.27188110351562 C 233.7449951171875 243.07373046875 233.7449951171875 246.87557983398438 233.7449951171875 250.67742919921875 C 200.8460693359375 250.67742919921875 167.947021484375 250.67742919921875 135.048095703125 250.67742919921875 C 135.048095703125 246.87557983398438 135.048095703125 243.07373046875 135.048095703125 239.27188110351562M 137.74365234375 136.0 C 169.4676513671875 136.0 201.191650390625 136.0 232.9156494140625 136.0 C 232.9156494140625 139.87094116210938 232.9156494140625 143.741943359375 232.9156494140625 147.61288452148438 C 201.191650390625 147.61288452148438 169.4676513671875 147.61288452148438 137.74365234375 147.61288452148438 C 137.74365234375 143.741943359375 137.74365234375 139.87094116210938 137.74365234375 136.0M 135.048095703125 291.32257080078125 C 167.947021484375 291.32257080078125 200.8460693359375 291.32257080078125 233.7449951171875 291.32257080078125 C 233.7449951171875 295.19354248046875 233.7449951171875 299.06451416015625 233.7449951171875 302.93548583984375 C 200.8460693359375 302.93548583984375 167.947021484375 302.93548583984375 135.048095703125 302.93548583984375 C 135.048095703125 299.06451416015625 135.048095703125 295.19354248046875 135.048095703125 291.32257080078125M 119.0823974609375 186.59906005859375 C 160.759033203125 186.59906005859375 202.4356689453125 186.59906005859375 244.1123046875 186.59906005859375 C 244.1123046875 190.60830688476562 244.1123046875 194.61749267578125 244.1123046875 198.626708984375 C 202.4356689453125 198.626708984375 160.759033203125 198.626708984375 119.0823974609375 198.626708984375 C 119.0823974609375 194.61749267578125 119.0823974609375 190.60830688476562 119.0823974609375 186.59906005859375M 141.0611572265625 343.58062744140625 C 171.955810546875 343.58062744140625 202.8504638671875 343.58062744140625 233.7449951171875 343.58062744140625 C 233.7449951171875 380.700439453125 233.7449951171875 417.8203125 233.7449951171875 454.9400634765625 C 202.8504638671875 454.9400634765625 171.955810546875 454.9400634765625 141.0611572265625 454.9400634765625 C 141.0611572265625 451.0 141.0611572265625 447.0599365234375 141.0611572265625 443.11981201171875 C 168.1544189453125 443.11981201171875 195.2476806640625 443.11981201171875 222.3409423828125 443.11981201171875 C 222.3409423828125 413.88018798828125 222.3409423828125 384.64056396484375 222.3409423828125 355.40087890625 C 195.2476806640625 355.40087890625 168.1544189453125 355.40087890625 141.0611572265625 355.40087890625 C 141.0611572265625 351.4608154296875 141.0611572265625 347.520751953125 141.0611572265625 343.58062744140625M 135.048095703125 343.58062744140625 C 139.056884765625 343.58062744140625 143.0654296875 343.58062744140625 147.07421875 343.58062744140625 C 147.07421875 387.6129150390625 147.07421875 431.6451416015625 147.07421875 475.67742919921875 C 143.0654296875 475.67742919921875 139.056884765625 475.67742919921875 135.048095703125 475.67742919921875 C 135.048095703125 431.6451416015625 135.048095703125 387.6129150390625 135.048095703125 343.58062744140625"/>
  </g>
</svg>
