<?xml version="1.0" ?>
<svg xmlns="http://www.w3.org/2000/svg" version="1.1" width="600" height="600">
  <defs/>
  <g>
    <path stroke-width="0" fill="rgb(0, 0, 0)" opacity="1.0" d="M 127.8427734375 198.02053833007812 C 243.2431640625 198.02053833007812 358.64306640625 198.02053833007812 474.04345703125 198.02053833007812 C 474.04345703125 201.85394287109375 474.04345703125 205.68740844726562 474.04345703125 209.52081298828125 C 358.64306640625 209.52081298828125 243.2431640625 209.52081298828125 127.8427734375 209.52081298828125 C 127.8427734375 205.68740844726562 127.8427734375 201.85394287109375 127.8427734375 198.02053833007812M 177.9453125 443.2230224609375 C 259.806640625 443.2230224609375 341.66845703125 443.2230224609375 423.5302734375 443.2230224609375 C 423.5302734375 447.193359375 423.5302734375 451.1636962890625 423.5302734375 455.134033203125 C 341.66845703125 455.134033203125 259.806640625 455.134033203125 177.9453125 455.134033203125 C 177.9453125 451.1636962890625 177.9453125 447.193359375 177.9453125 443.2230224609375M 293.75634765625 122.24188232421875 C 297.72607421875 122.24188232421875 301.69580078125 122.24188232421875 305.666015625 122.24188232421875 C 305.666015625 186.65716552734375 305.666015625 251.07244873046875 305.666015625 315.48773193359375 C 301.69580078125 315.48773193359375 297.72607421875 315.48773193359375 293.75634765625 315.48773193359375 C 293.75634765625 251.07244873046875 293.75634765625 186.65716552734375 293.75634765625 122.24188232421875M 173.22265625 308.9161376953125 C 258.50634765625 308.9161376953125 343.7900390625 308.9161376953125 429.07421875 308.9161376953125 C 429.07421875 364.98004150390625 429.07421875 421.0439453125 429.07421875 477.1077880859375 C 425.2412109375 477.1077880859375 421.408203125 477.1077880859375 417.5751953125 477.1077880859375 C 417.5751953125 424.94580078125 417.5751953125 372.7838134765625 417.5751953125 320.621826171875 C 339.888671875 320.621826171875 262.20263671875 320.621826171875 184.51611328125 320.621826171875 C 184.51611328125 373.3314208984375 184.51611328125 426.04107666015625 184.51611328125 478.750732421875 C 180.75146484375 478.750732421875 176.9873046875 478.750732421875 173.22265625 478.750732421875 C 173.22265625 422.13916015625 173.22265625 365.52764892578125 173.22265625 308.9161376953125"/>
  </g>
</svg>
