<?xml version="1.0" ?>
<svg xmlns="http://www.w3.org/2000/svg" version="1.1" width="600" height="600">
  <defs/>
  <g>
    <path stroke-width="0" fill="rgb(0, 0, 0)" opacity="1.0" d="M 130.19189453125 277.00689697265625 C 130.71685791015625 277.1783447265625 131.2418212890625 277.349853515625 131.76678466796875 277.52130126953125 C 131.13320922851562 278.80279541015625 130.45437622070312 280.174560546875 129.73028564453125 281.63653564453125 C 129.00619506835938 283.0985107421875 128.24588012695312 284.515380859375 127.44940185546875 285.8870849609375 C 126.67098999023438 287.24078369140625 125.91973876953125 288.4591064453125 125.19564819335938 289.54205322265625 C 124.76119995117188 289.37060546875 124.32675170898438 289.1990966796875 123.89230346679688 289.02764892578125 C 124.61639404296875 287.9447021484375 125.36761474609375 286.6993408203125 126.14602661132812 285.29150390625 C 126.94253540039062 283.8656005859375 127.69375610351562 282.421630859375 128.39974975585938 280.959716796875 C 129.10574340820312 279.4796142578125 129.703125 278.16204833984375 130.19189453125 277.00689697265625M 120.55242919921875 288.4591064453125 C 122.32644653320312 288.38690185546875 124.36294555664062 288.3056640625 126.66192626953125 288.2154541015625 C 128.97903442382812 288.12518310546875 131.46810913085938 288.02587890625 134.12911987304688 287.9176025390625 C 136.7901611328125 287.791259765625 139.4964599609375 287.6739501953125 142.24798583984375 287.565673828125 C 142.22988891601562 288.071044921875 142.2117919921875 288.576416015625 142.19369506835938 289.081787109375 C 139.58697509765625 289.2081298828125 136.980224609375 289.33447265625 134.37350463867188 289.4608154296875 C 131.76678466796875 289.587158203125 129.30487060546875 289.7044677734375 126.98779296875 289.812744140625 C 124.68878173828125 289.903076171875 122.6160888671875 290.0023193359375 120.7696533203125 290.110595703125 C 120.69723510742188 289.56005859375 120.62481689453125 289.0096435546875 120.55242919921875 288.4591064453125M 123.78369140625 295.0921630859375 C 129.2777099609375 295.0921630859375 134.77175903320312 295.0921630859375 140.26580810546875 295.0921630859375 C 140.26580810546875 295.5975341796875 140.26580810546875 296.1029052734375 140.26580810546875 296.6082763671875 C 135.27862548828125 296.6082763671875 130.29144287109375 296.6082763671875 125.30426025390625 296.6082763671875 C 125.30426025390625 305.5968017578125 125.30426025390625 314.58526611328125 125.30426025390625 323.57373046875 C 124.79739379882812 323.57373046875 124.29052734375 323.57373046875 123.78369140625 323.57373046875 C 123.78369140625 314.079833984375 123.78369140625 304.5860595703125 123.78369140625 295.0921630859375M 139.69558715820312 295.0921630859375 C 140.19338989257812 295.0921630859375 140.69119262695312 295.0921630859375 141.18902587890625 295.0921630859375 C 141.18902587890625 303.71063232421875 141.18902587890625 312.3291015625 141.18902587890625 320.94757080078125 C 141.18902587890625 321.59735107421875 141.08944702148438 322.09368896484375 140.89031982421875 322.4366455078125 C 140.70932006835938 322.779541015625 140.3563232421875 323.041259765625 139.83135986328125 323.2218017578125 C 139.28826904296875 323.3662109375 138.46463012695312 323.4473876953125 137.36038208007812 323.4654541015625 C 136.27426147460938 323.4835205078125 134.88037109375 323.4925537109375 133.17877197265625 323.4925537109375 C 133.14254760742188 323.27587890625 133.06109619140625 323.01422119140625 132.93438720703125 322.7073974609375 C 132.80767822265625 322.4005126953125 132.68093872070312 322.12078857421875 132.55422973632812 321.8680419921875 C 134.0748291015625 321.9041748046875 135.38723754882812 321.9222412109375 136.49148559570312 321.9222412109375 C 137.61383056640625 321.9222412109375 138.3831787109375 321.9041748046875 138.79953002929688 321.8680419921875 C 139.17965698242188 321.8680419921875 139.42404174804688 321.804931640625 139.53265380859375 321.6785888671875 C 139.64126586914062 321.5703125 139.69558715820312 321.33563232421875 139.69558715820312 320.974609375 C 139.69558715820312 312.34716796875 139.69558715820312 303.71966552734375 139.69558715820312 295.0921630859375M 124.62542724609375 302.7811279296875 C 129.83889770507812 302.7811279296875 135.05233764648438 302.7811279296875 140.26580810546875 302.7811279296875 C 140.26580810546875 303.2864990234375 140.26580810546875 303.7918701171875 140.26580810546875 304.2972412109375 C 135.05233764648438 304.2972412109375 129.83889770507812 304.2972412109375 124.62542724609375 304.2972412109375 C 124.62542724609375 303.7918701171875 124.62542724609375 303.2864990234375 124.62542724609375 302.7811279296875M 124.62542724609375 310.74078369140625 C 129.83889770507812 310.74078369140625 135.05233764648438 310.74078369140625 140.26580810546875 310.74078369140625 C 140.26580810546875 311.26422119140625 140.26580810546875 311.78759765625 140.26580810546875 312.31103515625 C 135.05233764648438 312.31103515625 129.83889770507812 312.31103515625 124.62542724609375 312.31103515625 C 124.62542724609375 311.78759765625 124.62542724609375 311.26422119140625 124.62542724609375 310.74078369140625M 146.945556640625 276.790283203125 C 147.443359375 276.790283203125 147.941162109375 276.790283203125 148.43896484375 276.790283203125 C 148.43896484375 283.0714111328125 148.43896484375 289.3525390625 148.43896484375 295.6336669921875 C 148.43896484375 296.3917236328125 148.64715576171875 296.9061279296875 149.06350708007812 297.1768798828125 C 149.4798583984375 297.4295654296875 150.38497924804688 297.555908203125 151.77883911132812 297.555908203125 C 152.08657836914062 297.555908203125 152.72921752929688 297.555908203125 153.70675659179688 297.555908203125 C 154.68426513671875 297.555908203125 155.77041625976562 297.555908203125 156.96514892578125 297.555908203125 C 158.159912109375 297.555908203125 159.29129028320312 297.555908203125 160.35934448242188 297.555908203125 C 161.4273681640625 297.555908203125 162.18765258789062 297.555908203125 162.64022827148438 297.555908203125 C 163.43670654296875 297.555908203125 164.03408813476562 297.3934326171875 164.43234252929688 297.06854248046875 C 164.83059692382812 296.7255859375 165.10211181640625 296.0758056640625 165.2469482421875 295.1192626953125 C 165.40985107421875 294.16259765625 165.52752685546875 292.73675537109375 165.59994506835938 290.841552734375 C 165.7447509765625 290.94989013671875 165.88958740234375 291.05816650390625 166.03439331054688 291.16650390625 C 166.19732666015625 291.2567138671875 166.36929321289062 291.32891845703125 166.55032348632812 291.383056640625 C 166.74945068359375 291.437255859375 166.93951416015625 291.5003662109375 167.12054443359375 291.57257080078125 C 167.04812622070312 293.5399169921875 166.88519287109375 295.0740966796875 166.63177490234375 296.17510986328125 C 166.39645385742188 297.258056640625 165.97103881835938 298.007080078125 165.35556030273438 298.4222412109375 C 164.7581787109375 298.83740234375 163.86212158203125 299.044921875 162.6673583984375 299.044921875 C 162.50445556640625 299.044921875 162.0518798828125 299.044921875 161.3096923828125 299.044921875 C 160.58560180664062 299.044921875 159.72573852539062 299.044921875 158.73013305664062 299.044921875 C 157.75259399414062 299.044921875 156.77508544921875 299.044921875 155.79754638671875 299.044921875 C 154.82003784179688 299.044921875 153.978271484375 299.044921875 153.27227783203125 299.044921875 C 152.5662841796875 299.044921875 152.122802734375 299.044921875 151.9417724609375 299.044921875 C 150.656494140625 299.044921875 149.64279174804688 298.9637451171875 148.90057373046875 298.80126953125 C 148.176513671875 298.62078857421875 147.66964721679688 298.27783203125 147.3800048828125 297.7724609375 C 147.09036254882812 297.26708984375 146.945556640625 296.55413818359375 146.945556640625 295.6336669921875 C 146.945556640625 289.3525390625 146.945556640625 283.0714111328125 146.945556640625 276.790283203125M 163.26473999023438 281.36578369140625 C 163.68109130859375 281.7899169921875 164.09744262695312 282.214111328125 164.5137939453125 282.63824462890625 C 163.083740234375 283.251953125 161.45452880859375 283.8927001953125 159.62619018554688 284.56048583984375 C 157.7978515625 285.21026611328125 155.89712524414062 285.84197998046875 153.92398071289062 286.45562744140625 C 151.96893310546875 287.05126953125 150.05914306640625 287.62884521484375 148.19461059570312 288.1883544921875 C 148.15838623046875 288.00787353515625 148.08599853515625 287.809326171875 147.97738647460938 287.5927734375 C 147.8687744140625 287.35809326171875 147.7510986328125 287.1595458984375 147.6243896484375 286.99713134765625 C 149.41650390625 286.4376220703125 151.28103637695312 285.83294677734375 153.21798706054688 285.18316650390625 C 155.17303466796875 284.515380859375 157.02850341796875 283.8565673828125 158.784423828125 283.206787109375 C 160.54034423828125 282.5389404296875 162.03378295898438 281.92529296875 163.26473999023438 281.36578369140625M 146.945556640625 300.85888671875 C 147.443359375 300.85888671875 147.941162109375 300.85888671875 148.43896484375 300.85888671875 C 148.43896484375 307.1219482421875 148.43896484375 313.385009765625 148.43896484375 319.6480712890625 C 148.43896484375 320.4061279296875 148.65621948242188 320.9205322265625 149.09066772460938 321.1912841796875 C 149.52511596679688 321.48004150390625 150.49359130859375 321.6243896484375 151.99609375 321.6243896484375 C 152.34002685546875 321.6243896484375 153.00076293945312 321.6243896484375 153.978271484375 321.6243896484375 C 154.97390747070312 321.6243896484375 156.09625244140625 321.6243896484375 157.34530639648438 321.6243896484375 C 158.61245727539062 321.6243896484375 159.78005981445312 321.6243896484375 160.84808349609375 321.6243896484375 C 161.93423461914062 321.6243896484375 162.7216796875 321.6243896484375 163.21044921875 321.6243896484375 C 164.079345703125 321.6243896484375 164.73101806640625 321.4439697265625 165.16549682617188 321.08294677734375 C 165.59994506835938 320.739990234375 165.88958740234375 320.0361328125 166.03439331054688 318.97119140625 C 166.19732666015625 317.88824462890625 166.31497192382812 316.2728271484375 166.38739013671875 314.125 C 166.62271118164062 314.2694091796875 166.87615966796875 314.40478515625 167.14767456054688 314.5311279296875 C 167.43731689453125 314.639404296875 167.69979858398438 314.7296142578125 167.93511962890625 314.8018798828125 C 167.84463500976562 317.0218505859375 167.67266845703125 318.7275390625 167.41921997070312 319.9188232421875 C 167.18389892578125 321.1099853515625 166.74038696289062 321.9403076171875 166.08871459960938 322.4095458984375 C 165.45510864257812 322.87884521484375 164.5137939453125 323.11346435546875 163.26473999023438 323.11346435546875 C 163.04751586914062 323.11346435546875 162.55874633789062 323.11346435546875 161.7984619140625 323.11346435546875 C 161.0562744140625 323.11346435546875 160.17831420898438 323.11346435546875 159.16458129882812 323.11346435546875 C 158.1689453125 323.11346435546875 157.15521240234375 323.11346435546875 156.1234130859375 323.11346435546875 C 155.10968017578125 323.11346435546875 154.22265625 323.11346435546875 153.46237182617188 323.11346435546875 C 152.72015380859375 323.11346435546875 152.26760864257812 323.11346435546875 152.10467529296875 323.11346435546875 C 150.78323364257812 323.11346435546875 149.73330688476562 323.023193359375 148.95489501953125 322.8427734375 C 148.19461059570312 322.6802978515625 147.66964721679688 322.346435546875 147.3800048828125 321.84100341796875 C 147.09036254882812 321.33563232421875 146.945556640625 320.6046142578125 146.945556640625 319.6480712890625 C 146.945556640625 313.385009765625 146.945556640625 307.1219482421875 146.945556640625 300.85888671875M 164.079345703125 304.35137939453125 C 164.450439453125 304.7664794921875 164.821533203125 305.181640625 165.192626953125 305.5968017578125 C 163.87118530273438 306.427001953125 162.26007080078125 307.212158203125 160.35934448242188 307.9521484375 C 158.45858764648438 308.6741943359375 156.45828247070312 309.35101318359375 154.35842895507812 309.98272705078125 C 152.258544921875 310.59637451171875 150.24017333984375 311.1649169921875 148.30322265625 311.6883544921875 C 148.26699829101562 311.50787353515625 148.185546875 311.30029296875 148.058837890625 311.065673828125 C 147.93212890625 310.81298828125 147.814453125 310.60540771484375 147.70584106445312 310.4429931640625 C 149.62469482421875 309.9195556640625 151.625 309.33294677734375 153.70675659179688 308.68316650390625 C 155.78851318359375 308.015380859375 157.74356079101562 307.3204345703125 159.57186889648438 306.5985107421875 C 161.40020751953125 305.8585205078125 162.9027099609375 305.10943603515625 164.079345703125 304.35137939453125M 136.13848876953125 281.17626953125 C 136.51861572265625 280.98675537109375 136.89877319335938 280.7972412109375 137.2789306640625 280.60772705078125 C 138.29266357421875 281.74481201171875 139.27923583984375 282.990234375 140.2386474609375 284.3438720703125 C 141.19805908203125 285.69757080078125 142.07601928710938 287.024169921875 142.87252807617188 288.32373046875 C 143.66903686523438 289.623291015625 144.29354858398438 290.7694091796875 144.74612426757812 291.7620849609375 C 144.365966796875 292.0057373046875 143.98580932617188 292.2493896484375 143.60568237304688 292.4930419921875 C 143.1893310546875 291.46429443359375 142.5738525390625 290.29107666015625 141.75924682617188 288.9735107421875 C 140.96273803710938 287.6558837890625 140.07571411132812 286.311279296875 139.09820556640625 284.93951416015625 C 138.1387939453125 283.5677490234375 137.1522216796875 282.3133544921875 136.13848876953125 281.17626953125"/>
    <path stroke-width="0" fill="rgb(0, 0, 0)" opacity="1.0" d="M 174.83209228515625 288.7027587890625 C 188.49026489257812 288.7027587890625 202.1484375 288.7027587890625 215.80661010742188 288.7027587890625 C 215.80661010742188 289.2261962890625 215.80661010742188 289.7496337890625 215.80661010742188 290.2730712890625 C 202.1484375 290.2730712890625 188.49026489257812 290.2730712890625 174.83209228515625 290.2730712890625 C 174.83209228515625 289.7496337890625 174.83209228515625 289.2261962890625 174.83209228515625 288.7027587890625M 215.34500122070312 288.7027587890625 C 215.86090087890625 288.7027587890625 216.3768310546875 288.7027587890625 216.89276123046875 288.7027587890625 C 216.89276123046875 288.7027587890625 216.89276123046875 288.78399658203125 216.89276123046875 288.9464111328125 C 216.89276123046875 289.0908203125 216.88369750976562 289.2532958984375 216.8656005859375 289.4337158203125 C 216.84747314453125 289.6142578125 216.83843994140625 289.7496337890625 216.83843994140625 289.83984375 C 216.4945068359375 295.39898681640625 216.16864013671875 300.10986328125 215.86090087890625 303.97235107421875 C 215.55316162109375 307.8348388671875 215.209228515625 310.99346923828125 214.8291015625 313.4481201171875 C 214.467041015625 315.90283203125 214.06878662109375 317.8160400390625 213.63433837890625 319.187744140625 C 213.19989013671875 320.55950927734375 212.69302368164062 321.543212890625 212.11373901367188 322.1387939453125 C 211.625 322.6802978515625 211.10906982421875 323.0322265625 210.56600952148438 323.1947021484375 C 210.02294921875 323.357177734375 209.31695556640625 323.4564208984375 208.44802856445312 323.4925537109375 C 207.65155029296875 323.528564453125 206.4658203125 323.51055908203125 204.89093017578125 323.4383544921875 C 203.33413696289062 323.3662109375 201.74114990234375 323.27587890625 200.1119384765625 323.1676025390625 C 200.07574462890625 322.9329833984375 200.03045654296875 322.6712646484375 199.97616577148438 322.3824462890625 C 199.921875 322.11175537109375 199.813232421875 321.85906982421875 199.65032958984375 321.6243896484375 C 201.55105590820312 321.786865234375 203.3070068359375 321.8951416015625 204.9180908203125 321.9493408203125 C 206.54730224609375 322.00341796875 207.66058349609375 322.030517578125 208.25796508789062 322.030517578125 C 208.83721923828125 322.030517578125 209.31695556640625 321.98541259765625 209.69708251953125 321.8951416015625 C 210.07723999023438 321.804931640625 210.41213989257812 321.60638427734375 210.7017822265625 321.299560546875 C 211.22674560546875 320.776123046875 211.70645141601562 319.8375244140625 212.14089965820312 318.48388671875 C 212.57534790039062 317.13018798828125 212.97360229492188 315.21697998046875 213.33563232421875 312.7442626953125 C 213.69769287109375 310.271484375 214.0416259765625 307.1038818359375 214.36749267578125 303.2413330078125 C 214.69332885742188 299.37884521484375 215.0191650390625 294.677001953125 215.34500122070312 289.135986328125 C 215.34500122070312 288.9915771484375 215.34500122070312 288.84716796875 215.34500122070312 288.7027587890625M 192.916259765625 276.89862060546875 C 193.44125366210938 276.89862060546875 193.96621704101562 276.89862060546875 194.49118041992188 276.89862060546875 C 194.49118041992188 279.34423828125 194.49118041992188 281.7899169921875 194.49118041992188 284.235595703125 C 194.49118041992188 286.6361083984375 194.382568359375 289.15399169921875 194.16534423828125 291.7891845703125 C 193.96621704101562 294.40631103515625 193.522705078125 297.0955810546875 192.83480834960938 299.857177734375 C 192.1650390625 302.61865234375 191.10604858398438 305.38018798828125 189.65786743164062 308.1417236328125 C 188.20968627929688 310.8851318359375 186.26370239257812 313.58349609375 183.81988525390625 316.23675537109375 C 181.37606811523438 318.8900146484375 178.27154541015625 321.4078369140625 174.50625610351562 323.790283203125 C 174.433837890625 323.64593505859375 174.33428955078125 323.51055908203125 174.20758056640625 323.38421630859375 C 174.09896850585938 323.27587890625 173.97222900390625 323.1495361328125 173.82742309570312 323.00518798828125 C 173.70071411132812 322.87884521484375 173.56494140625 322.779541015625 173.42013549804688 322.7073974609375 C 177.09487915039062 320.3428955078125 180.12701416015625 317.8702392578125 182.51651000976562 315.2891845703125 C 184.92413330078125 312.7081298828125 186.83392333984375 310.08203125 188.24588012695312 307.41070556640625 C 189.65786743164062 304.721435546875 190.689697265625 302.04107666015625 191.34136962890625 299.36981201171875 C 192.01116943359375 296.69854736328125 192.43658447265625 294.0904541015625 192.61758422851562 291.5455322265625 C 192.81671142578125 289.0006103515625 192.916259765625 286.56396484375 192.916259765625 284.235595703125 C 192.916259765625 281.7899169921875 192.916259765625 279.34423828125 192.916259765625 276.89862060546875"/>
    <path stroke-width="0" fill="rgb(0, 0, 0)" opacity="1.0" d="M 233.21194458007812 287.61981201171875 C 245.18661499023438 287.61981201171875 257.1612548828125 287.61981201171875 269.13592529296875 287.61981201171875 C 269.13592529296875 288.12518310546875 269.13592529296875 288.63055419921875 269.13592529296875 289.135986328125 C 257.1612548828125 289.135986328125 245.18661499023438 289.135986328125 233.21194458007812 289.135986328125 C 233.21194458007812 288.63055419921875 233.21194458007812 288.12518310546875 233.21194458007812 287.61981201171875M 230.76812744140625 302.7811279296875 C 242.96908569335938 302.7811279296875 255.17001342773438 302.7811279296875 267.3709716796875 302.7811279296875 C 267.3709716796875 303.2864990234375 267.3709716796875 303.7918701171875 267.3709716796875 304.2972412109375 C 255.17001342773438 304.2972412109375 242.96908569335938 304.2972412109375 230.76812744140625 304.2972412109375 C 230.76812744140625 303.7918701171875 230.76812744140625 303.2864990234375 230.76812744140625 302.7811279296875M 225.39178466796875 320.32489013671875 C 240.74249267578125 320.32489013671875 256.0932312011719 320.32489013671875 271.4439697265625 320.32489013671875 C 271.4439697265625 320.82122802734375 271.4439697265625 321.317626953125 271.4439697265625 321.81396484375 C 256.0932312011719 321.81396484375 240.74249267578125 321.81396484375 225.39178466796875 321.81396484375 C 225.39178466796875 321.317626953125 225.39178466796875 320.82122802734375 225.39178466796875 320.32489013671875M 247.65756225585938 276.844482421875 C 248.18255615234375 276.844482421875 248.70748901367188 276.844482421875 249.23248291015625 276.844482421875 C 249.23248291015625 291.59063720703125 249.23248291015625 306.3367919921875 249.23248291015625 321.08294677734375 C 248.70748901367188 321.08294677734375 248.18255615234375 321.08294677734375 247.65756225585938 321.08294677734375 C 247.65756225585938 306.3367919921875 247.65756225585938 291.59063720703125 247.65756225585938 276.844482421875M 236.2802734375 277.90032958984375 C 236.78713989257812 277.9996337890625 237.29400634765625 278.098876953125 237.80087280273438 278.1981201171875 C 237.0767822265625 280.86944580078125 236.19882202148438 283.45947265625 235.1669921875 285.96832275390625 C 234.15325927734375 288.4591064453125 233.0128173828125 290.7784423828125 231.74566650390625 292.92626953125 C 230.49661254882812 295.0740966796875 229.16607666015625 296.978271484375 227.75411987304688 298.6387939453125 C 227.6455078125 298.530517578125 227.50067138671875 298.4312744140625 227.31964111328125 298.34100341796875 C 227.15673828125 298.23272705078125 226.98477172851562 298.1153564453125 226.80374145507812 297.989013671875 C 226.62271118164062 297.8626708984375 226.4688720703125 297.781494140625 226.34213256835938 297.745361328125 C 227.8265380859375 296.1209716796875 229.1842041015625 294.26190185546875 230.4151611328125 292.168212890625 C 231.66421508789062 290.074462890625 232.77749633789062 287.818359375 233.7550048828125 285.3997802734375 C 234.75064086914062 282.963134765625 235.5924072265625 280.46331787109375 236.2802734375 277.90032958984375"/>
    <path stroke-width="0" fill="rgb(0, 0, 0)" opacity="1.0" d="M 282.7397766113281 296.25634765625 C 287.36492919921875 296.25634765625 291.99005126953125 296.25634765625 296.61517333984375 296.25634765625 C 296.61517333984375 296.770751953125 296.61517333984375 297.28515625 296.61517333984375 297.799560546875 C 291.99005126953125 297.799560546875 287.36492919921875 297.799560546875 282.7397766113281 297.799560546875 C 282.7397766113281 297.28515625 282.7397766113281 296.770751953125 282.7397766113281 296.25634765625M 295.93634033203125 296.25634765625 C 296.4432067871094 296.25634765625 296.9500732421875 296.25634765625 297.4569396972656 296.25634765625 C 297.4569396972656 296.25634765625 297.4569396972656 296.31951904296875 297.4569396972656 296.44586181640625 C 297.4569396972656 296.55413818359375 297.4569396972656 296.69854736328125 297.4569396972656 296.8790283203125 C 297.4569396972656 297.04150390625 297.4569396972656 297.1768798828125 297.4569396972656 297.28515625 C 297.34832763671875 301.40032958984375 297.23065185546875 304.6943359375 297.10394287109375 307.16705322265625 C 296.97723388671875 309.6217041015625 296.8143310546875 311.4537353515625 296.61517333984375 312.66302490234375 C 296.43414306640625 313.872314453125 296.17169189453125 314.69354248046875 295.8277282714844 315.126708984375 C 295.5199890136719 315.43359375 295.1760559082031 315.6591796875 294.7958984375 315.8035888671875 C 294.415771484375 315.929931640625 293.8726806640625 316.0111083984375 293.16668701171875 316.0472412109375 C 292.5150146484375 316.0833740234375 291.6008605957031 316.0833740234375 290.4241943359375 316.0472412109375 C 289.2656555175781 316.0111083984375 288.025634765625 315.93896484375 286.70416259765625 315.8306884765625 C 286.66796875 315.632080078125 286.6136474609375 315.3974609375 286.541259765625 315.126708984375 C 286.4869384765625 314.83795166015625 286.38739013671875 314.59423828125 286.2425537109375 314.395751953125 C 287.67266845703125 314.5220947265625 289.01220703125 314.59423828125 290.26129150390625 314.6123046875 C 291.51031494140625 314.63037109375 292.36114501953125 314.639404296875 292.813720703125 314.639404296875 C 293.19384765625 314.639404296875 293.5196838378906 314.6123046875 293.7912292480469 314.55816650390625 C 294.08087158203125 314.5040283203125 294.30712890625 314.377685546875 294.4700622558594 314.17913818359375 C 294.7778015136719 313.836181640625 295.0221862792969 313.078125 295.20318603515625 311.90496826171875 C 295.38421630859375 310.7137451171875 295.529052734375 308.8997802734375 295.63763427734375 306.463134765625 C 295.7643737792969 304.0084228515625 295.86395263671875 300.7235107421875 295.93634033203125 296.6082763671875 C 295.93634033203125 296.490966796875 295.93634033203125 296.3736572265625 295.93634033203125 296.25634765625M 309.5945129394531 278.7667236328125 C 309.91131591796875 278.42376708984375 310.22808837890625 278.080810546875 310.54486083984375 277.7379150390625 C 311.75775146484375 278.33349609375 313.0158386230469 279.0013427734375 314.3192138671875 279.7413330078125 C 315.62255859375 280.48138427734375 316.8354187011719 281.23040771484375 317.957763671875 281.98846435546875 C 319.09820556640625 282.728515625 320.0304870605469 283.40533447265625 320.75457763671875 284.01904296875 C 320.45587158203125 284.4071044921875 320.1571960449219 284.79510498046875 319.8585205078125 285.18316650390625 C 319.1343994140625 284.55145263671875 318.1930847167969 283.8565673828125 317.0345458984375 283.0985107421875 C 315.89410400390625 282.3404541015625 314.6812744140625 281.5823974609375 313.39599609375 280.8243408203125 C 312.1107177734375 280.0482177734375 310.84356689453125 279.3623046875 309.5945129394531 278.7667236328125M 318.3922119140625 293.6031494140625 C 318.8990783691406 293.73846435546875 319.40594482421875 293.87384033203125 319.9128112792969 294.00921630859375 C 317.6500244140625 300.795654296875 314.5545349121094 306.5985107421875 310.6263427734375 311.4176025390625 C 306.6981506347656 316.23675537109375 301.9915771484375 320.20751953125 296.5065612792969 323.330078125 C 296.43414306640625 323.2218017578125 296.3164978027344 323.08642578125 296.153564453125 322.9239501953125 C 296.00872802734375 322.779541015625 295.86395263671875 322.62615966796875 295.7191162109375 322.4637451171875 C 295.5924072265625 322.3193359375 295.4566345214844 322.1929931640625 295.31182861328125 322.084716796875 C 300.86920166015625 319.17877197265625 305.5758056640625 315.33428955078125 309.43157958984375 310.55126953125 C 313.2873840332031 305.76824951171875 316.2742614746094 300.118896484375 318.3922119140625 293.6031494140625M 283.0113220214844 286.6722412109375 C 296.515625 286.6722412109375 310.0198974609375 286.6722412109375 323.52423095703125 286.6722412109375 C 323.52423095703125 287.1776123046875 323.52423095703125 287.6829833984375 323.52423095703125 288.1883544921875 C 310.0198974609375 288.1883544921875 296.515625 288.1883544921875 283.0113220214844 288.1883544921875 C 283.0113220214844 287.6829833984375 283.0113220214844 287.1776123046875 283.0113220214844 286.6722412109375M 282.115234375 286.6722412109375 C 282.6402282714844 286.6722412109375 283.1651611328125 286.6722412109375 283.6901550292969 286.6722412109375 C 283.6901550292969 291.35595703125 283.6901550292969 296.03973388671875 283.6901550292969 300.7235107421875 C 283.6901550292969 302.4561767578125 283.61773681640625 304.3153076171875 283.4729309082031 306.3006591796875 C 283.328125 308.26806640625 283.0746765136719 310.280517578125 282.712646484375 312.338134765625 C 282.3505859375 314.395751953125 281.7984619140625 316.399169921875 281.0562744140625 318.3485107421875 C 280.3321838378906 320.27978515625 279.36370849609375 322.07568359375 278.15087890625 323.7362060546875 C 278.07843017578125 323.62786865234375 277.9607849121094 323.51055908203125 277.7978515625 323.38421630859375 C 277.6530456542969 323.27587890625 277.4991760253906 323.1676025390625 277.33624267578125 323.059326171875 C 277.1914367675781 322.9691162109375 277.046630859375 322.88787841796875 276.90179443359375 322.815673828125 C 278.4766845703125 320.6317138671875 279.6261901855469 318.25830078125 280.35028076171875 315.6953125 C 281.0743713378906 313.13232421875 281.5450439453125 310.55126953125 281.76226806640625 307.9521484375 C 281.9975891113281 305.3531494140625 282.115234375 302.925537109375 282.115234375 300.6693115234375 C 282.115234375 296.003662109375 282.115234375 291.33795166015625 282.115234375 286.6722412109375M 304.2724609375 276.89862060546875 C 304.79742431640625 276.89862060546875 305.3223876953125 276.89862060546875 305.84735107421875 276.89862060546875 C 305.883544921875 282.2412109375 306.118896484375 287.2137451171875 306.5533447265625 291.8162841796875 C 306.98779296875 296.4007568359375 307.603271484375 300.53399658203125 308.3997802734375 304.21600341796875 C 309.1962890625 307.8800048828125 310.15570068359375 311.01153564453125 311.27801513671875 313.610595703125 C 312.41845703125 316.209716796875 313.68560791015625 318.2041015625 315.0794982910156 319.5938720703125 C 316.4914855957031 320.96563720703125 318.0211181640625 321.6514892578125 319.6684265136719 321.6514892578125 C 320.555419921875 321.6514892578125 321.19805908203125 320.8934326171875 321.5963134765625 319.3773193359375 C 322.0126953125 317.8431396484375 322.2842102050781 315.2620849609375 322.4109191894531 311.63421630859375 C 322.5919494628906 311.77862548828125 322.8272705078125 311.9229736328125 323.1169128417969 312.0673828125 C 323.4246520996094 312.1937255859375 323.6781005859375 312.29296875 323.877197265625 312.365234375 C 323.7323913574219 315.07257080078125 323.52423095703125 317.220458984375 323.252685546875 318.8087158203125 C 322.98114013671875 320.3970947265625 322.5557556152344 321.5341796875 321.9764709472656 322.22003173828125 C 321.397216796875 322.9239501953125 320.5916442871094 323.27587890625 319.559814453125 323.27587890625 C 317.91253662109375 323.27587890625 316.39190673828125 322.73443603515625 314.998046875 321.6514892578125 C 313.62225341796875 320.58660888671875 312.37322998046875 319.0614013671875 311.2508544921875 317.0760498046875 C 310.1466369628906 315.07257080078125 309.16912841796875 312.6810302734375 308.31829833984375 309.9014892578125 C 307.4674987792969 307.1038818359375 306.743408203125 303.98138427734375 306.1460266113281 300.53399658203125 C 305.5667724609375 297.08660888671875 305.11419677734375 293.36846923828125 304.7883605957031 289.379638671875 C 304.4806213378906 285.3907470703125 304.30865478515625 281.23040771484375 304.2724609375 276.89862060546875"/>
    <path stroke-width="0" fill="rgb(0, 0, 0)" opacity="1.0" d="M 347.17486572265625 309.03515625 C 355.38421630859375 309.03515625 363.5936279296875 309.03515625 371.802978515625 309.03515625 C 371.802978515625 309.549560546875 371.802978515625 310.06396484375 371.802978515625 310.578369140625 C 363.5936279296875 310.578369140625 355.38421630859375 310.578369140625 347.17486572265625 310.578369140625 C 347.17486572265625 310.06396484375 347.17486572265625 309.549560546875 347.17486572265625 309.03515625M 371.20562744140625 309.03515625 C 371.33233642578125 309.03515625 371.45904541015625 309.03515625 371.58575439453125 309.03515625 C 371.685302734375 308.9990234375 371.784912109375 308.96295166015625 371.88446044921875 308.9268798828125 C 372.2193603515625 309.1343994140625 372.55426025390625 309.34197998046875 372.88916015625 309.549560546875 C 371.7125244140625 311.6612548828125 370.1285400390625 313.5294189453125 368.13726806640625 315.15380859375 C 366.16412353515625 316.7601318359375 363.928466796875 318.1319580078125 361.430419921875 319.26904296875 C 358.95037841796875 320.3880615234375 356.3436279296875 321.317626953125 353.6102294921875 322.0576171875 C 350.8948974609375 322.797607421875 348.17950439453125 323.37518310546875 345.46417236328125 323.790283203125 C 345.3917236328125 323.591796875 345.27410888671875 323.34814453125 345.1112060546875 323.059326171875 C 344.96636962890625 322.78857421875 344.803466796875 322.56298828125 344.6224365234375 322.3824462890625 C 347.265380859375 322.03955078125 349.9263916015625 321.51611328125 352.60552978515625 320.812255859375 C 355.28466796875 320.1263427734375 357.8280029296875 319.26904296875 360.23565673828125 318.240234375 C 362.66131591796875 317.193359375 364.8245849609375 315.93896484375 366.725341796875 314.4769287109375 C 368.6441650390625 312.9969482421875 370.1375732421875 311.30029296875 371.20562744140625 309.3870849609375 C 371.20562744140625 309.269775390625 371.20562744140625 309.1524658203125 371.20562744140625 309.03515625M 353.23004150390625 310.3887939453125 C 354.6239013671875 312.4283447265625 356.515625 314.2603759765625 358.9051513671875 315.884765625 C 361.312744140625 317.4912109375 364.037109375 318.8538818359375 367.07830810546875 319.972900390625 C 370.1195068359375 321.07391357421875 373.269287109375 321.8770751953125 376.5277099609375 322.3824462890625 C 376.36474609375 322.56298828125 376.1837158203125 322.779541015625 375.984619140625 323.0322265625 C 375.8035888671875 323.302978515625 375.6588134765625 323.51959228515625 375.5501708984375 323.6820068359375 C 372.27362060546875 323.1044921875 369.10577392578125 322.22003173828125 366.04644775390625 321.02880859375 C 362.9871826171875 319.8555908203125 360.23565673828125 318.420654296875 357.79180908203125 316.72412109375 C 355.3480224609375 315.0274658203125 353.3929443359375 313.087158203125 351.92669677734375 310.9031982421875 C 352.36114501953125 310.73175048828125 352.79559326171875 310.560302734375 353.23004150390625 310.3887939453125M 346.19732666015625 280.661865234375 C 356.017822265625 280.661865234375 365.8382568359375 280.661865234375 375.6588134765625 280.661865234375 C 375.6588134765625 281.17626953125 375.6588134765625 281.690673828125 375.6588134765625 282.205078125 C 365.8382568359375 282.205078125 356.017822265625 282.205078125 346.19732666015625 282.205078125 C 346.19732666015625 281.690673828125 346.19732666015625 281.17626953125 346.19732666015625 280.661865234375M 350.7862548828125 294.469482421875 C 358.226318359375 294.469482421875 365.66632080078125 294.469482421875 373.1063232421875 294.469482421875 C 373.1063232421875 294.974853515625 373.1063232421875 295.480224609375 373.1063232421875 295.985595703125 C 365.66632080078125 295.985595703125 358.226318359375 295.985595703125 350.7862548828125 295.985595703125 C 350.7862548828125 295.480224609375 350.7862548828125 294.974853515625 350.7862548828125 294.469482421875M 350.7862548828125 299.4781494140625 C 358.226318359375 299.4781494140625 365.66632080078125 299.4781494140625 373.1063232421875 299.4781494140625 C 373.1063232421875 299.9744873046875 373.1063232421875 300.4708251953125 373.1063232421875 300.9671630859375 C 365.66632080078125 300.9671630859375 358.226318359375 300.9671630859375 350.7862548828125 300.9671630859375 C 350.7862548828125 300.4708251953125 350.7862548828125 299.9744873046875 350.7862548828125 299.4781494140625M 354.8592529296875 276.790283203125 C 355.37518310546875 276.790283203125 355.89111328125 276.790283203125 356.406982421875 276.790283203125 C 356.406982421875 279.68719482421875 356.406982421875 282.5841064453125 356.406982421875 285.48095703125 C 355.89111328125 285.48095703125 355.37518310546875 285.48095703125 354.8592529296875 285.48095703125 C 354.8592529296875 282.5841064453125 354.8592529296875 279.68719482421875 354.8592529296875 276.790283203125M 360.697265625 290.0023193359375 C 361.195068359375 290.0023193359375 361.69287109375 290.0023193359375 362.190673828125 290.0023193359375 C 362.190673828125 295.0469970703125 362.190673828125 300.091796875 362.190673828125 305.13653564453125 C 361.69287109375 305.13653564453125 361.195068359375 305.13653564453125 360.697265625 305.13653564453125 C 360.697265625 300.091796875 360.697265625 295.0469970703125 360.697265625 290.0023193359375M 365.9921875 276.790283203125 C 366.4990234375 276.790283203125 367.005859375 276.790283203125 367.51275634765625 276.790283203125 C 367.51275634765625 279.68719482421875 367.51275634765625 282.5841064453125 367.51275634765625 285.48095703125 C 367.005859375 285.48095703125 366.4990234375 285.48095703125 365.9921875 285.48095703125 C 365.9921875 282.5841064453125 365.9921875 279.68719482421875 365.9921875 276.790283203125M 352.714111328125 284.80413818359375 C 353.22100830078125 284.93048095703125 353.72784423828125 285.05682373046875 354.2347412109375 285.18316650390625 C 353.184814453125 287.3310546875 351.8995361328125 289.39764404296875 350.37896728515625 291.383056640625 C 348.87646484375 293.36846923828125 347.35589599609375 295.0740966796875 345.817138671875 296.5 C 345.76287841796875 296.3917236328125 345.64520263671875 296.283447265625 345.46417236328125 296.17510986328125 C 345.28314208984375 296.04876708984375 345.1021728515625 295.93145751953125 344.921142578125 295.8231201171875 C 344.7581787109375 295.69677734375 344.60430908203125 295.5975341796875 344.45947265625 295.52532958984375 C 346.1068115234375 294.171630859375 347.654541015625 292.5562744140625 349.10272216796875 290.67913818359375 C 350.56903076171875 288.78399658203125 351.7728271484375 286.82568359375 352.714111328125 284.80413818359375M 362.190673828125 284.9124755859375 C 362.69757080078125 285.1199951171875 363.20440673828125 285.32757568359375 363.7113037109375 285.53515625 C 363.25872802734375 286.47369384765625 362.779052734375 287.4031982421875 362.27215576171875 288.32373046875 C 361.7652587890625 289.2442626953125 361.28558349609375 290.04742431640625 360.8330078125 290.7332763671875 C 360.41668701171875 290.56182861328125 360.00030517578125 290.390380859375 359.583984375 290.2188720703125 C 360.0364990234375 289.4608154296875 360.5162353515625 288.5673828125 361.0230712890625 287.53857421875 C 361.52996826171875 286.509765625 361.91912841796875 285.6343994140625 362.190673828125 284.9124755859375M 374.4368896484375 289.54205322265625 C 374.4368896484375 290.04742431640625 374.4368896484375 290.55279541015625 374.4368896484375 291.05816650390625 C 366.861083984375 291.05816650390625 359.2852783203125 291.05816650390625 351.70947265625 291.05816650390625 C 351.70947265625 295.5614013671875 351.70947265625 300.064697265625 351.70947265625 304.5679931640625 C 359.6744384765625 304.5679931640625 367.63946533203125 304.5679931640625 375.6044921875 304.5679931640625 C 375.6044921875 305.0643310546875 375.6044921875 305.5606689453125 375.6044921875 306.0570068359375 C 367.14166259765625 306.0570068359375 358.6788330078125 306.0570068359375 350.21600341796875 306.0570068359375 C 350.21600341796875 300.552001953125 350.21600341796875 295.0469970703125 350.21600341796875 289.54205322265625 C 358.28961181640625 289.54205322265625 366.36328125 289.54205322265625 374.4368896484375 289.54205322265625M 331.0728759765625 292.35772705078125 C 335.3812255859375 292.35772705078125 339.6895751953125 292.35772705078125 343.9979248046875 292.35772705078125 C 343.9979248046875 292.85406494140625 343.9979248046875 293.3504638671875 343.9979248046875 293.8468017578125 C 339.6895751953125 293.8468017578125 335.3812255859375 293.8468017578125 331.0728759765625 293.8468017578125 C 331.0728759765625 293.3504638671875 331.0728759765625 292.85406494140625 331.0728759765625 292.35772705078125M 331.42584228515625 278.875 C 335.580322265625 278.875 339.73480224609375 278.875 343.8892822265625 278.875 C 343.8892822265625 279.38037109375 343.8892822265625 279.8857421875 343.8892822265625 280.39111328125 C 339.73480224609375 280.39111328125 335.580322265625 280.39111328125 331.42584228515625 280.39111328125 C 331.42584228515625 279.8857421875 331.42584228515625 279.38037109375 331.42584228515625 278.875M 331.0728759765625 299.1531982421875 C 335.3812255859375 299.1531982421875 339.6895751953125 299.1531982421875 343.9979248046875 299.1531982421875 C 343.9979248046875 299.6585693359375 343.9979248046875 300.1639404296875 343.9979248046875 300.6693115234375 C 339.6895751953125 300.6693115234375 335.3812255859375 300.6693115234375 331.0728759765625 300.6693115234375 C 331.0728759765625 300.1639404296875 331.0728759765625 299.6585693359375 331.0728759765625 299.1531982421875M 328.9820556640625 285.48095703125 C 334.43988037109375 285.48095703125 339.897705078125 285.48095703125 345.3555908203125 285.48095703125 C 345.3555908203125 286.00439453125 345.3555908203125 286.52783203125 345.3555908203125 287.05126953125 C 339.897705078125 287.05126953125 334.43988037109375 287.05126953125 328.9820556640625 287.05126953125 C 328.9820556640625 286.52783203125 328.9820556640625 286.00439453125 328.9820556640625 285.48095703125M 331.8603515625 305.975830078125 C 335.90618896484375 305.975830078125 339.9520263671875 305.975830078125 343.9979248046875 305.975830078125 C 343.9979248046875 310.822021484375 343.9979248046875 315.668212890625 343.9979248046875 320.514404296875 C 339.9520263671875 320.514404296875 335.90618896484375 320.514404296875 331.8603515625 320.514404296875 C 331.8603515625 320.0 331.8603515625 319.485595703125 331.8603515625 318.97119140625 C 335.4083251953125 318.97119140625 338.9564208984375 318.97119140625 342.50445556640625 318.97119140625 C 342.50445556640625 315.15380859375 342.50445556640625 311.33642578125 342.50445556640625 307.51904296875 C 338.9564208984375 307.51904296875 335.4083251953125 307.51904296875 331.8603515625 307.51904296875 C 331.8603515625 307.004638671875 331.8603515625 306.490234375 331.8603515625 305.975830078125M 331.0728759765625 305.975830078125 C 331.59783935546875 305.975830078125 332.122802734375 305.975830078125 332.64776611328125 305.975830078125 C 332.64776611328125 311.7244873046875 332.64776611328125 317.47314453125 332.64776611328125 323.2218017578125 C 332.122802734375 323.2218017578125 331.59783935546875 323.2218017578125 331.0728759765625 323.2218017578125 C 331.0728759765625 317.47314453125 331.0728759765625 311.7244873046875 331.0728759765625 305.975830078125"/>
    <path stroke-width="0" fill="rgb(0, 0, 0)" opacity="1.0" d="M 382.0670166015625 306.38189697265625 C 397.2547607421875 306.38189697265625 412.442626953125 306.38189697265625 427.63043212890625 306.38189697265625 C 427.63043212890625 306.90533447265625 427.63043212890625 307.42877197265625 427.63043212890625 307.9521484375 C 412.442626953125 307.9521484375 397.2547607421875 307.9521484375 382.0670166015625 307.9521484375 C 382.0670166015625 307.42877197265625 382.0670166015625 306.90533447265625 382.0670166015625 306.38189697265625M 387.79638671875 293.955078125 C 399.2008056640625 293.955078125 410.605224609375 293.955078125 422.0096435546875 293.955078125 C 422.0096435546875 298.250732421875 422.0096435546875 302.5465087890625 422.0096435546875 306.8421630859375 C 421.5028076171875 306.8421630859375 420.9959716796875 306.8421630859375 420.48907470703125 306.8421630859375 C 420.48907470703125 303.0518798828125 420.48907470703125 299.26153564453125 420.48907470703125 295.47119140625 C 410.098388671875 295.47119140625 399.7076416015625 295.47119140625 389.31695556640625 295.47119140625 C 389.31695556640625 299.26153564453125 389.31695556640625 303.0518798828125 389.31695556640625 306.8421630859375 C 388.81005859375 306.8421630859375 388.30322265625 306.8421630859375 387.79638671875 306.8421630859375 C 387.79638671875 302.5465087890625 387.79638671875 298.250732421875 387.79638671875 293.955078125M 403.708251953125 287.1866455078125 C 404.22418212890625 287.1866455078125 404.7401123046875 287.1866455078125 405.2559814453125 287.1866455078125 C 405.2559814453125 291.680908203125 405.2559814453125 296.17510986328125 405.2559814453125 300.6693115234375 C 405.2559814453125 302.365966796875 405.1383056640625 304.0626220703125 404.90301513671875 305.75921630859375 C 404.685791015625 307.455810546875 404.17889404296875 309.1434326171875 403.3824462890625 310.822021484375 C 402.5859375 312.5006103515625 401.35498046875 314.115966796875 399.6895751953125 315.668212890625 C 398.024169921875 317.202392578125 395.7613525390625 318.66436767578125 392.90118408203125 320.05413818359375 C 390.05914306640625 321.4439697265625 386.4658203125 322.6893310546875 382.12127685546875 323.790283203125 C 382.048828125 323.64593505859375 381.9583740234375 323.4925537109375 381.8497314453125 323.330078125 C 381.74114990234375 323.1856689453125 381.632568359375 323.0322265625 381.52392578125 322.86981201171875 C 381.43341064453125 322.7254638671875 381.3338623046875 322.59912109375 381.2252197265625 322.49078369140625 C 385.497314453125 321.4259033203125 389.01824951171875 320.234619140625 391.78790283203125 318.91705322265625 C 394.57568359375 317.5994873046875 396.77508544921875 316.209716796875 398.38623046875 314.7476806640625 C 400.015380859375 313.2677001953125 401.20111083984375 311.7425537109375 401.94329833984375 310.1722412109375 C 402.70361328125 308.58392333984375 403.18328857421875 306.99560546875 403.3824462890625 305.4072265625 C 403.599609375 303.8009033203125 403.708251953125 302.2215576171875 403.708251953125 300.6693115234375 C 403.708251953125 296.17510986328125 403.708251953125 291.680908203125 403.708251953125 287.1866455078125M 406.6136474609375 306.73388671875 C 408.242919921875 311.13787841796875 410.94012451171875 314.621337890625 414.70538330078125 317.184326171875 C 418.48876953125 319.747314453125 423.1591796875 321.48004150390625 428.716552734375 322.3824462890625 C 428.58984375 322.49078369140625 428.4541015625 322.62615966796875 428.30926513671875 322.78857421875 C 428.1644287109375 322.9691162109375 428.0377197265625 323.14056396484375 427.9290771484375 323.302978515625 C 427.838623046875 323.4835205078125 427.739013671875 323.64593505859375 427.63043212890625 323.790283203125 C 423.9013671875 323.068359375 420.55242919921875 322.00341796875 417.5836181640625 320.5955810546875 C 414.6148681640625 319.187744140625 412.08056640625 317.38287353515625 409.980712890625 315.180908203125 C 407.880859375 312.9608154296875 406.25164794921875 310.3076171875 405.09307861328125 307.22119140625 C 405.5999755859375 307.0587158203125 406.1068115234375 306.89630126953125 406.6136474609375 306.73388671875M 382.8001708984375 282.421630859375 C 397.3634033203125 282.421630859375 411.92669677734375 282.421630859375 426.489990234375 282.421630859375 C 426.489990234375 282.927001953125 426.489990234375 283.432373046875 426.489990234375 283.937744140625 C 411.92669677734375 283.937744140625 397.3634033203125 283.937744140625 382.8001708984375 283.937744140625 C 382.8001708984375 283.432373046875 382.8001708984375 282.927001953125 382.8001708984375 282.421630859375M 394.6661376953125 276.844482421875 C 395.17303466796875 276.844482421875 395.679931640625 276.844482421875 396.186767578125 276.844482421875 C 396.186767578125 281.2845458984375 396.186767578125 285.72467041015625 396.186767578125 290.16473388671875 C 395.679931640625 290.16473388671875 395.17303466796875 290.16473388671875 394.6661376953125 290.16473388671875 C 394.6661376953125 285.72467041015625 394.6661376953125 281.2845458984375 394.6661376953125 276.844482421875M 413.0218505859375 276.844482421875 C 413.52874755859375 276.844482421875 414.03564453125 276.844482421875 414.54248046875 276.844482421875 C 414.54248046875 281.2845458984375 414.54248046875 285.72467041015625 414.54248046875 290.16473388671875 C 414.03564453125 290.16473388671875 413.52874755859375 290.16473388671875 413.0218505859375 290.16473388671875 C 413.0218505859375 285.72467041015625 413.0218505859375 281.2845458984375 413.0218505859375 276.844482421875"/>
    <path stroke-width="0" fill="rgb(0, 0, 0)" opacity="1.0" d="M 456.2501220703125 305.75921630859375 C 463.319091796875 305.75921630859375 470.38800048828125 305.75921630859375 477.4569091796875 305.75921630859375 C 477.4569091796875 311.6522216796875 477.4569091796875 317.5452880859375 477.4569091796875 323.4383544921875 C 476.9591064453125 323.4383544921875 476.4613037109375 323.4383544921875 475.9635009765625 323.4383544921875 C 475.9635009765625 318.0687255859375 475.9635009765625 312.6990966796875 475.9635009765625 307.3294677734375 C 469.9173583984375 307.3294677734375 463.8712158203125 307.3294677734375 457.82501220703125 307.3294677734375 C 457.82501220703125 312.7623291015625 457.82501220703125 318.195068359375 457.82501220703125 323.62786865234375 C 457.300048828125 323.62786865234375 456.77508544921875 323.62786865234375 456.2501220703125 323.62786865234375 C 456.2501220703125 317.671630859375 456.2501220703125 311.7154541015625 456.2501220703125 305.75921630859375M 454.485107421875 287.7281494140625 C 461.59033203125 287.7281494140625 468.6954345703125 287.7281494140625 475.800537109375 287.7281494140625 C 475.800537109375 291.70794677734375 475.800537109375 295.687744140625 475.800537109375 299.6676025390625 C 475.275634765625 299.6676025390625 474.7506103515625 299.6676025390625 474.2257080078125 299.6676025390625 C 474.2257080078125 296.18414306640625 474.2257080078125 292.70068359375 474.2257080078125 289.2171630859375 C 467.6455078125 289.2171630859375 461.0653076171875 289.2171630859375 454.485107421875 289.2171630859375 C 454.485107421875 288.7208251953125 454.485107421875 288.2244873046875 454.485107421875 287.7281494140625M 463.17425537109375 279.60595703125 C 463.69921875 279.67822265625 464.22418212890625 279.7503662109375 464.7491455078125 279.82257080078125 C 464.44140625 281.86212158203125 464.079345703125 284.1182861328125 463.6629638671875 286.59100341796875 C 463.2467041015625 289.045654296875 462.81219482421875 291.42822265625 462.359619140625 293.73846435546875 C 461.9071044921875 296.03076171875 461.49072265625 297.989013671875 461.110595703125 299.61346435546875 C 460.58563232421875 299.61346435546875 460.0606689453125 299.61346435546875 459.53564453125 299.61346435546875 C 459.8433837890625 298.36810302734375 460.16021728515625 296.9151611328125 460.486083984375 295.254638671875 C 460.83001708984375 293.5941162109375 461.1558837890625 291.84332275390625 461.463623046875 290.0023193359375 C 461.77130126953125 288.1612548828125 462.07000732421875 286.35638427734375 462.359619140625 284.5875244140625 C 462.6673583984375 282.8006591796875 462.93890380859375 281.14013671875 463.17425537109375 279.60595703125M 453.69769287109375 279.19989013671875 C 462.1424560546875 279.19989013671875 470.587158203125 279.19989013671875 479.0318603515625 279.19989013671875 C 479.0318603515625 279.69622802734375 479.0318603515625 280.192626953125 479.0318603515625 280.68896484375 C 470.587158203125 280.68896484375 462.1424560546875 280.68896484375 453.69769287109375 280.68896484375 C 453.69769287109375 280.192626953125 453.69769287109375 279.69622802734375 453.69769287109375 279.19989013671875M 452.4486083984375 299.09912109375 C 461.8165283203125 299.09912109375 471.18450927734375 299.09912109375 480.55242919921875 299.09912109375 C 480.55242919921875 299.6044921875 480.55242919921875 300.10986328125 480.55242919921875 300.615234375 C 471.18450927734375 300.615234375 461.8165283203125 300.615234375 452.4486083984375 300.615234375 C 452.4486083984375 300.10986328125 452.4486083984375 299.6044921875 452.4486083984375 299.09912109375M 457.281982421875 319.3231201171875 C 463.73541259765625 319.3231201171875 470.1888427734375 319.3231201171875 476.642333984375 319.3231201171875 C 476.642333984375 319.8284912109375 476.642333984375 320.33392333984375 476.642333984375 320.83929443359375 C 470.1888427734375 320.83929443359375 463.73541259765625 320.83929443359375 457.281982421875 320.83929443359375 C 457.281982421875 320.33392333984375 457.281982421875 319.8284912109375 457.281982421875 319.3231201171875M 435.6678466796875 292.5472412109375 C 440.44683837890625 292.5472412109375 445.225830078125 292.5472412109375 450.00482177734375 292.5472412109375 C 450.00482177734375 293.0526123046875 450.00482177734375 293.5579833984375 450.00482177734375 294.0633544921875 C 445.225830078125 294.0633544921875 440.44683837890625 294.0633544921875 435.6678466796875 294.0633544921875 C 435.6678466796875 293.5579833984375 435.6678466796875 293.0526123046875 435.6678466796875 292.5472412109375M 435.966552734375 278.875 C 440.5916748046875 278.875 445.216796875 278.875 449.8419189453125 278.875 C 449.8419189453125 279.38037109375 449.8419189453125 279.8857421875 449.8419189453125 280.39111328125 C 445.216796875 280.39111328125 440.5916748046875 280.39111328125 435.966552734375 280.39111328125 C 435.966552734375 279.8857421875 435.966552734375 279.38037109375 435.966552734375 278.875M 435.6678466796875 299.4781494140625 C 440.44683837890625 299.4781494140625 445.225830078125 299.4781494140625 450.00482177734375 299.4781494140625 C 450.00482177734375 299.9744873046875 450.00482177734375 300.4708251953125 450.00482177734375 300.9671630859375 C 445.225830078125 300.9671630859375 440.44683837890625 300.9671630859375 435.6678466796875 300.9671630859375 C 435.6678466796875 300.4708251953125 435.6678466796875 299.9744873046875 435.6678466796875 299.4781494140625M 433.251220703125 285.58929443359375 C 439.406005859375 285.58929443359375 445.56072998046875 285.58929443359375 451.71551513671875 285.58929443359375 C 451.71551513671875 286.1126708984375 451.71551513671875 286.6361083984375 451.71551513671875 287.1595458984375 C 445.56072998046875 287.1595458984375 439.406005859375 287.1595458984375 433.251220703125 287.1595458984375 C 433.251220703125 286.6361083984375 433.251220703125 286.1126708984375 433.251220703125 285.58929443359375M 436.482421875 306.38189697265625 C 440.9989013671875 306.38189697265625 445.5155029296875 306.38189697265625 450.031982421875 306.38189697265625 C 450.031982421875 311.2191162109375 450.031982421875 316.0562744140625 450.031982421875 320.8934326171875 C 445.5155029296875 320.8934326171875 440.9989013671875 320.8934326171875 436.482421875 320.8934326171875 C 436.482421875 320.3880615234375 436.482421875 319.8826904296875 436.482421875 319.3773193359375 C 440.4830322265625 319.3773193359375 444.483642578125 319.3773193359375 448.4842529296875 319.3773193359375 C 448.4842529296875 315.5689697265625 448.4842529296875 311.76055908203125 448.4842529296875 307.9521484375 C 444.483642578125 307.9521484375 440.4830322265625 307.9521484375 436.482421875 307.9521484375 C 436.482421875 307.42877197265625 436.482421875 306.90533447265625 436.482421875 306.38189697265625M 435.6678466796875 306.38189697265625 C 436.1837158203125 306.38189697265625 436.69964599609375 306.38189697265625 437.215576171875 306.38189697265625 C 437.215576171875 312.112548828125 437.215576171875 317.8431396484375 437.215576171875 323.57373046875 C 436.69964599609375 323.57373046875 436.1837158203125 323.57373046875 435.6678466796875 323.57373046875 C 435.6678466796875 317.8431396484375 435.6678466796875 312.112548828125 435.6678466796875 306.38189697265625"/>
  </g>
</svg>
