<?xml version="1.0" encoding="utf-8"?>
<svg xmlns="http://www.w3.org/2000/svg" xmlns:ev="http://www.w3.org/2001/xml-events" xmlns:xlink="http://www.w3.org/1999/xlink" version="1.1" baseProfile="full" width="7216.0" height="1556.0" viewBox="186.0 -1496.0 7216.0 1556.0">
<defs/>
<g><path d="M 4879.000000 -1359.000000 C 4873.666667 -1378.333333 4867.666667 -1399.000000 4861.000000 -1421.000000 C 4855.000000 -1443.666667 4848.666667 -1464.666667 4842.000000 -1484.000000 C 4865.000000 -1487.333333 4888.000000 -1490.666667 4911.000000 -1494.000000 C 4913.666667 -1469.333333 4920.333333 -1435.000000 4931.000000 -1391.000000 C 4942.333333 -1347.000000 4955.666667 -1300.333333 4971.000000 -1251.000000 C 4986.333333 -1201.666667 5001.000000 -1156.000000 5015.000000 -1114.000000 C 5044.333333 -1028.000000 5083.333333 -940.333333 5132.000000 -851.000000 C 5180.666667 -762.333333 5230.000000 -684.000000 5280.000000 -616.000000 C 5290.000000 -603.333333 5300.333333 -590.666667 5311.000000 -578.000000 C 5322.333333 -565.333333 5333.666667 -553.000000 5345.000000 -541.000000 C 5332.333333 -525.666667 5319.666667 -510.333333 5307.000000 -495.000000 C 5287.666667 -501.666667 5260.666667 -507.000000 5226.000000 -511.000000 C 5191.333333 -515.666667 5153.666667 -520.000000 5113.000000 -524.000000 C 5073.000000 -528.000000 5033.333333 -531.666667 4994.000000 -535.000000 C 4955.333333 -538.333333 4921.333333 -540.333333 4892.000000 -541.000000 C 4893.333333 -558.333333 4894.666667 -575.666667 4896.000000 -593.000000 C 4936.666667 -590.333333 4979.333333 -586.666667 5024.000000 -582.000000 C 5069.333333 -578.000000 5112.333333 -574.333333 5153.000000 -571.000000 C 5194.333333 -567.666667 5227.666667 -564.333333 5253.000000 -561.000000 C 5222.333333 -604.333333 5189.000000 -656.000000 5153.000000 -716.000000 C 5117.666667 -776.000000 5083.333333 -839.333333 5050.000000 -906.000000 C 5016.666667 -972.666667 4988.333333 -1037.333333 4965.000000 -1100.000000 C 4944.333333 -1158.000000 4927.000000 -1208.666667 4913.000000 -1252.000000 C 4899.000000 -1295.333333 4887.666667 -1331.000000 4879.000000 -1359.000000z M 4172.000000 -1150.000000 C 4266.666667 -1140.000000 4362.333333 -1132.333333 4459.000000 -1127.000000 C 4555.666667 -1121.666667 4648.666667 -1120.000000 4738.000000 -1122.000000 C 4828.000000 -1124.000000 4907.666667 -1128.333333 4977.000000 -1135.000000 C 5021.666667 -1139.666667 5072.666667 -1146.333333 5130.000000 -1155.000000 C 5188.000000 -1164.333333 5246.666667 -1176.333333 5306.000000 -1191.000000 C 5365.333333 -1205.666667 5419.333333 -1222.000000 5468.000000 -1240.000000 C 5470.000000 -1219.666667 5472.000000 -1199.333333 5474.000000 -1179.000000 C 5425.333333 -1165.000000 5372.000000 -1152.000000 5314.000000 -1140.000000 C 5256.666667 -1128.666667 5200.333333 -1118.333333 5145.000000 -1109.000000 C 5090.333333 -1100.333333 5042.000000 -1093.666667 5000.000000 -1089.000000 C 4883.333333 -1075.666667 4752.333333 -1069.333333 4607.000000 -1070.000000 C 4461.666667 -1070.666667 4318.000000 -1077.000000 4176.000000 -1089.000000 C 4174.666667 -1109.333333 4173.333333 -1129.666667 4172.000000 -1150.000000z M 4380.000000 -580.000000 C 4354.000000 -532.666667 4332.666667 -487.333333 4316.000000 -444.000000 C 4299.333333 -401.333333 4291.000000 -355.000000 4291.000000 -305.000000 C 4291.000000 -204.333333 4335.333333 -130.000000 4424.000000 -82.000000 C 4513.333333 -34.000000 4634.666667 -8.666667 4788.000000 -6.000000 C 4879.333333 -4.666667 4965.000000 -8.000000 5045.000000 -16.000000 C 5125.000000 -24.666667 5198.333333 -37.333333 5265.000000 -54.000000 C 5265.000000 -32.666667 5265.000000 -11.333333 5265.000000 10.000000 C 5199.666667 21.333333 5128.000000 30.666667 5050.000000 38.000000 C 4972.666667 46.000000 4885.000000 49.333333 4787.000000 48.000000 C 4675.666667 46.666667 4578.666667 33.000000 4496.000000 7.000000 C 4413.333333 -18.333333 4349.333333 -57.333333 4304.000000 -110.000000 C 4258.666667 -163.333333 4236.000000 -230.333333 4236.000000 -311.000000 C 4236.000000 -359.666667 4244.333333 -407.000000 4261.000000 -453.000000 C 4278.333333 -499.000000 4298.000000 -545.666667 4320.000000 -593.000000 C 4340.000000 -588.666667 4360.000000 -584.333333 4380.000000 -580.000000z "/>
</g></svg>
