<?xml version="1.0" encoding="utf-8"?>
<svg xmlns="http://www.w3.org/2000/svg" xmlns:ev="http://www.w3.org/2001/xml-events" xmlns:xlink="http://www.w3.org/1999/xlink" version="1.1" baseProfile="full" width="49628.0" height="1744.0" viewBox="213.0 -1596.0 49628.0 1744.0">
<defs/>
<g><path d="M 36612.000000 -1476.000000 C 37162.666667 -1476.000000 37713.333333 -1476.000000 38264.000000 -1476.000000 C 38264.000000 -1457.666667 38264.000000 -1439.333333 38264.000000 -1421.000000 C 37713.333333 -1421.000000 37162.666667 -1421.000000 36612.000000 -1421.000000 C 36612.000000 -1439.333333 36612.000000 -1457.666667 36612.000000 -1476.000000z M 37419.000000 -1453.000000 C 37438.000000 -1453.000000 37457.000000 -1453.000000 37476.000000 -1453.000000 C 37476.000000 -1215.000000 37476.000000 -977.000000 37476.000000 -739.000000 C 37476.000000 -669.000000 37472.000000 -599.666667 37464.000000 -531.000000 C 37456.000000 -462.333333 37437.333333 -396.000000 37408.000000 -332.000000 C 37379.333333 -268.000000 37334.333333 -207.000000 37273.000000 -149.000000 C 37211.666667 -91.666667 37127.666667 -39.000000 37021.000000 9.000000 C 36915.000000 57.000000 36780.666667 99.333333 36618.000000 136.000000 C 36615.333333 132.666667 36612.000000 128.000000 36608.000000 122.000000 C 36604.666667 116.000000 36601.000000 109.666667 36597.000000 103.000000 C 36593.000000 97.000000 36589.333333 91.333333 36586.000000 86.000000 C 36747.333333 52.000000 36879.666667 12.333333 36983.000000 -33.000000 C 37087.000000 -79.000000 37168.333333 -129.000000 37227.000000 -183.000000 C 37285.666667 -237.666667 37328.666667 -295.333333 37356.000000 -356.000000 C 37384.000000 -416.666667 37401.333333 -479.000000 37408.000000 -543.000000 C 37415.333333 -607.000000 37419.000000 -672.333333 37419.000000 -739.000000 C 37419.000000 -977.000000 37419.000000 -1215.000000 37419.000000 -1453.000000z M 36854.000000 -835.000000 C 36854.000000 -746.666667 36854.000000 -658.333333 36854.000000 -570.000000 C 37265.000000 -570.000000 37676.000000 -570.000000 38087.000000 -570.000000 C 38087.000000 -658.333333 38087.000000 -746.666667 38087.000000 -835.000000 C 37676.000000 -835.000000 37265.000000 -835.000000 36854.000000 -835.000000z M 36854.000000 -1154.000000 C 36854.000000 -1067.000000 36854.000000 -980.000000 36854.000000 -893.000000 C 37265.000000 -893.000000 37676.000000 -893.000000 38087.000000 -893.000000 C 38087.000000 -980.000000 38087.000000 -1067.000000 38087.000000 -1154.000000 C 37676.000000 -1154.000000 37265.000000 -1154.000000 36854.000000 -1154.000000z M 36797.000000 -1210.000000 C 37247.000000 -1210.000000 37697.000000 -1210.000000 38147.000000 -1210.000000 C 38147.000000 -978.333333 38147.000000 -746.666667 38147.000000 -515.000000 C 37697.000000 -515.000000 37247.000000 -515.000000 36797.000000 -515.000000 C 36797.000000 -746.666667 36797.000000 -978.333333 36797.000000 -1210.000000z M 36937.000000 -474.000000 C 36992.333333 -370.666667 37060.666667 -285.000000 37142.000000 -217.000000 C 37224.000000 -149.000000 37321.000000 -94.333333 37433.000000 -53.000000 C 37545.000000 -12.333333 37674.333333 18.333333 37821.000000 39.000000 C 37967.666667 60.333333 38132.666667 76.000000 38316.000000 86.000000 C 38310.666667 92.666667 38305.333333 101.333333 38300.000000 112.000000 C 38294.666667 123.333333 38291.000000 133.333333 38289.000000 142.000000 C 38104.333333 130.666667 37938.000000 113.333333 37790.000000 90.000000 C 37642.666667 67.333333 37512.000000 34.333333 37398.000000 -9.000000 C 37284.000000 -53.000000 37185.000000 -111.000000 37101.000000 -183.000000 C 37017.000000 -255.666667 36947.666667 -346.333333 36893.000000 -455.000000 C 36907.666667 -461.333333 36922.333333 -467.666667 36937.000000 -474.000000z "/>
</g></svg>
