<?xml version="1.0" encoding="utf-8"?>
<svg xmlns="http://www.w3.org/2000/svg" xmlns:ev="http://www.w3.org/2001/xml-events" xmlns:xlink="http://www.w3.org/1999/xlink" version="1.1" baseProfile="full" width="11226.0" height="1737.0" viewBox="179.0 -1601.0 11226.0 1737.0">
<defs/>
<g><path d="M 361.000000 -430.000000 C 764.666667 -430.000000 1168.333333 -430.000000 1572.000000 -430.000000 C 1572.000000 -410.666667 1572.000000 -391.333333 1572.000000 -372.000000 C 1168.333333 -372.000000 764.666667 -372.000000 361.000000 -372.000000 C 361.000000 -391.333333 361.000000 -410.666667 361.000000 -430.000000z M 367.000000 -664.000000 C 779.666667 -664.000000 1192.333333 -664.000000 1605.000000 -664.000000 C 1605.000000 -488.000000 1605.000000 -312.000000 1605.000000 -136.000000 C 1192.333333 -136.000000 779.666667 -136.000000 367.000000 -136.000000 C 367.000000 -154.666667 367.000000 -173.333333 367.000000 -192.000000 C 761.000000 -192.000000 1155.000000 -192.000000 1549.000000 -192.000000 C 1549.000000 -331.000000 1549.000000 -470.000000 1549.000000 -609.000000 C 1155.000000 -609.000000 761.000000 -609.000000 367.000000 -609.000000 C 367.000000 -627.333333 367.000000 -645.666667 367.000000 -664.000000z M 925.000000 -645.000000 C 944.333333 -645.000000 963.666667 -645.000000 983.000000 -645.000000 C 983.000000 -437.666667 983.000000 -230.333333 983.000000 -23.000000 C 983.000000 6.333333 992.666667 26.000000 1012.000000 36.000000 C 1031.333333 46.666667 1072.333333 52.000000 1135.000000 52.000000 C 1147.666667 52.000000 1169.666667 52.000000 1201.000000 52.000000 C 1232.333333 52.000000 1268.666667 52.000000 1310.000000 52.000000 C 1352.000000 52.000000 1394.000000 52.000000 1436.000000 52.000000 C 1478.666667 52.000000 1517.000000 52.000000 1551.000000 52.000000 C 1585.666667 52.000000 1611.333333 52.000000 1628.000000 52.000000 C 1665.333333 52.000000 1693.000000 45.666667 1711.000000 33.000000 C 1729.000000 21.000000 1741.333333 -3.666667 1748.000000 -41.000000 C 1755.333333 -79.000000 1760.333333 -135.000000 1763.000000 -209.000000 C 1770.333333 -204.333333 1779.333333 -199.666667 1790.000000 -195.000000 C 1801.333333 -190.333333 1811.333333 -186.666667 1820.000000 -184.000000 C 1816.000000 -106.000000 1808.666667 -45.666667 1798.000000 -3.000000 C 1787.333333 39.000000 1769.000000 68.000000 1743.000000 84.000000 C 1717.666667 100.666667 1679.333333 109.000000 1628.000000 109.000000 C 1620.666667 109.000000 1600.333333 109.000000 1567.000000 109.000000 C 1533.666667 109.000000 1494.666667 109.000000 1450.000000 109.000000 C 1406.000000 109.000000 1361.666667 109.000000 1317.000000 109.000000 C 1272.333333 109.000000 1233.666667 109.000000 1201.000000 109.000000 C 1168.333333 109.000000 1148.000000 109.000000 1140.000000 109.000000 C 1085.333333 109.000000 1042.333333 105.666667 1011.000000 99.000000 C 979.666667 93.000000 957.333333 80.000000 944.000000 60.000000 C 931.333333 40.666667 925.000000 12.333333 925.000000 -25.000000 C 925.000000 -231.666667 925.000000 -438.333333 925.000000 -645.000000z M 334.000000 -664.000000 C 352.666667 -664.000000 371.333333 -664.000000 390.000000 -664.000000 C 390.000000 -449.666667 390.000000 -235.333333 390.000000 -21.000000 C 371.333333 -21.000000 352.666667 -21.000000 334.000000 -21.000000 C 334.000000 -235.333333 334.000000 -449.666667 334.000000 -664.000000z M 271.000000 -1500.000000 C 731.666667 -1500.000000 1192.333333 -1500.000000 1653.000000 -1500.000000 C 1653.000000 -1481.333333 1653.000000 -1462.666667 1653.000000 -1444.000000 C 1192.333333 -1444.000000 731.666667 -1444.000000 271.000000 -1444.000000 C 271.000000 -1462.666667 271.000000 -1481.333333 271.000000 -1500.000000z M 363.000000 -1079.000000 C 507.666667 -1079.000000 652.333333 -1079.000000 797.000000 -1079.000000 C 797.000000 -1059.666667 797.000000 -1040.333333 797.000000 -1021.000000 C 652.333333 -1021.000000 507.666667 -1021.000000 363.000000 -1021.000000 C 363.000000 -1040.333333 363.000000 -1059.666667 363.000000 -1079.000000z M 323.000000 -877.000000 C 481.666667 -877.000000 640.333333 -877.000000 799.000000 -877.000000 C 799.000000 -858.000000 799.000000 -839.000000 799.000000 -820.000000 C 640.333333 -820.000000 481.666667 -820.000000 323.000000 -820.000000 C 323.000000 -839.000000 323.000000 -858.000000 323.000000 -877.000000z M 1114.000000 -877.000000 C 1281.000000 -877.000000 1448.000000 -877.000000 1615.000000 -877.000000 C 1615.000000 -858.000000 1615.000000 -839.000000 1615.000000 -820.000000 C 1448.000000 -820.000000 1281.000000 -820.000000 1114.000000 -820.000000 C 1114.000000 -839.000000 1114.000000 -858.000000 1114.000000 -877.000000z M 1114.000000 -1079.000000 C 1264.333333 -1079.000000 1414.666667 -1079.000000 1565.000000 -1079.000000 C 1565.000000 -1059.666667 1565.000000 -1040.333333 1565.000000 -1021.000000 C 1414.666667 -1021.000000 1264.333333 -1021.000000 1114.000000 -1021.000000 C 1114.000000 -1040.333333 1114.000000 -1059.666667 1114.000000 -1079.000000z M 925.000000 -1480.000000 C 944.333333 -1480.000000 963.666667 -1480.000000 983.000000 -1480.000000 C 983.000000 -1234.333333 983.000000 -988.666667 983.000000 -743.000000 C 963.666667 -743.000000 944.333333 -743.000000 925.000000 -743.000000 C 925.000000 -988.666667 925.000000 -1234.333333 925.000000 -1480.000000z M 179.000000 -1281.000000 C 700.333333 -1281.000000 1221.666667 -1281.000000 1743.000000 -1281.000000 C 1743.000000 -1162.000000 1743.000000 -1043.000000 1743.000000 -924.000000 C 1724.000000 -924.000000 1705.000000 -924.000000 1686.000000 -924.000000 C 1686.000000 -1023.666667 1686.000000 -1123.333333 1686.000000 -1223.000000 C 1202.666667 -1223.000000 719.333333 -1223.000000 236.000000 -1223.000000 C 236.000000 -1123.333333 236.000000 -1023.666667 236.000000 -924.000000 C 217.000000 -924.000000 198.000000 -924.000000 179.000000 -924.000000 C 179.000000 -1043.000000 179.000000 -1162.000000 179.000000 -1281.000000z "/>
</g>
<g><path d="M 2367.000000 -1373.000000 C 2808.000000 -1373.000000 3249.000000 -1373.000000 3690.000000 -1373.000000 C 3690.000000 -1353.666667 3690.000000 -1334.333333 3690.000000 -1315.000000 C 3249.000000 -1315.000000 2808.000000 -1315.000000 2367.000000 -1315.000000 C 2367.000000 -1334.333333 2367.000000 -1353.666667 2367.000000 -1373.000000z M 2388.000000 -1104.000000 C 2758.000000 -1104.000000 3128.000000 -1104.000000 3498.000000 -1104.000000 C 3498.000000 -1085.333333 3498.000000 -1066.666667 3498.000000 -1048.000000 C 3128.000000 -1048.000000 2758.000000 -1048.000000 2388.000000 -1048.000000 C 2388.000000 -1066.666667 2388.000000 -1085.333333 2388.000000 -1104.000000z M 2175.000000 -837.000000 C 2577.000000 -837.000000 2979.000000 -837.000000 3381.000000 -837.000000 C 3381.000000 -818.333333 3381.000000 -799.666667 3381.000000 -781.000000 C 2979.000000 -781.000000 2577.000000 -781.000000 2175.000000 -781.000000 C 2175.000000 -799.666667 2175.000000 -818.333333 2175.000000 -837.000000z M 2440.000000 -1594.000000 C 2460.000000 -1589.333333 2480.000000 -1584.666667 2500.000000 -1580.000000 C 2452.666667 -1436.666667 2392.000000 -1303.666667 2318.000000 -1181.000000 C 2244.666667 -1059.000000 2163.333333 -955.333333 2074.000000 -870.000000 C 2071.333333 -874.000000 2066.666667 -878.333333 2060.000000 -883.000000 C 2054.000000 -888.333333 2047.333333 -893.333333 2040.000000 -898.000000 C 2032.666667 -903.333333 2026.666667 -907.333333 2022.000000 -910.000000 C 2112.666667 -992.000000 2194.000000 -1092.333333 2266.000000 -1211.000000 C 2338.666667 -1330.333333 2396.666667 -1458.000000 2440.000000 -1594.000000z M 2995.000000 -724.000000 C 3012.333333 -717.666667 3029.666667 -711.333333 3047.000000 -705.000000 C 2975.666667 -581.666667 2890.000000 -467.666667 2790.000000 -363.000000 C 2690.000000 -259.000000 2581.666667 -165.333333 2465.000000 -82.000000 C 2349.000000 0.666667 2227.333333 73.333333 2100.000000 136.000000 C 2098.000000 132.666667 2094.333333 128.000000 2089.000000 122.000000 C 2083.666667 116.000000 2078.000000 110.333333 2072.000000 105.000000 C 2066.666667 100.333333 2061.333333 96.000000 2056.000000 92.000000 C 2184.000000 33.333333 2306.666667 -36.666667 2424.000000 -118.000000 C 2541.333333 -199.333333 2648.666667 -291.000000 2746.000000 -393.000000 C 2844.000000 -495.666667 2927.000000 -606.000000 2995.000000 -724.000000z M 3350.000000 -837.000000 C 3368.666667 -837.000000 3387.333333 -837.000000 3406.000000 -837.000000 C 3408.666667 -703.666667 3412.666667 -581.000000 3418.000000 -469.000000 C 3424.000000 -357.000000 3434.666667 -260.000000 3450.000000 -178.000000 C 3465.333333 -96.666667 3487.000000 -33.333333 3515.000000 12.000000 C 3543.666667 58.000000 3580.333333 81.000000 3625.000000 81.000000 C 3648.333333 81.000000 3663.666667 54.333333 3671.000000 1.000000 C 3679.000000 -52.333333 3683.333333 -121.666667 3684.000000 -207.000000 C 3690.666667 -202.333333 3699.333333 -197.666667 3710.000000 -193.000000 C 3721.333333 -188.333333 3730.000000 -184.666667 3736.000000 -182.000000 C 3733.333333 -101.333333 3728.333333 -38.000000 3721.000000 8.000000 C 3714.333333 54.000000 3703.333333 86.000000 3688.000000 104.000000 C 3672.666667 122.666667 3650.333333 132.666667 3621.000000 134.000000 C 3563.666667 134.000000 3517.333333 111.666667 3482.000000 67.000000 C 3446.666667 22.333333 3420.000000 -42.000000 3402.000000 -126.000000 C 3384.000000 -210.000000 3371.333333 -311.666667 3364.000000 -431.000000 C 3357.333333 -551.000000 3352.666667 -686.333333 3350.000000 -837.000000z M 2266.000000 -593.000000 C 2279.333333 -604.666667 2292.666667 -616.333333 2306.000000 -628.000000 C 2385.333333 -584.666667 2465.333333 -536.000000 2546.000000 -482.000000 C 2626.666667 -428.000000 2704.666667 -372.333333 2780.000000 -315.000000 C 2855.333333 -258.333333 2924.666667 -201.666667 2988.000000 -145.000000 C 3052.000000 -89.000000 3105.000000 -36.333333 3147.000000 13.000000 C 3132.333333 26.666667 3117.666667 40.333333 3103.000000 54.000000 C 3060.333333 4.000000 3007.666667 -49.000000 2945.000000 -105.000000 C 2882.333333 -161.666667 2813.333333 -219.000000 2738.000000 -277.000000 C 2662.666667 -335.666667 2584.666667 -392.000000 2504.000000 -446.000000 C 2423.333333 -500.666667 2344.000000 -549.666667 2266.000000 -593.000000z "/>
</g>
<g><path d="M 4307.000000 -828.000000 C 4307.000000 -610.333333 4307.000000 -392.666667 4307.000000 -175.000000 C 4288.333333 -175.000000 4269.666667 -175.000000 4251.000000 -175.000000 C 4251.000000 -374.000000 4251.000000 -573.000000 4251.000000 -772.000000 C 4146.666667 -772.000000 4042.333333 -772.000000 3938.000000 -772.000000 C 3938.000000 -790.666667 3938.000000 -809.333333 3938.000000 -828.000000 C 4061.000000 -828.000000 4184.000000 -828.000000 4307.000000 -828.000000z M 4307.000000 -202.000000 C 4361.666667 -123.333333 4437.333333 -64.333333 4534.000000 -25.000000 C 4630.666667 13.666667 4742.333333 35.333333 4869.000000 40.000000 C 4917.666667 41.333333 4978.000000 42.333333 5050.000000 43.000000 C 5122.666667 43.666667 5199.000000 43.666667 5279.000000 43.000000 C 5359.000000 42.333333 5435.000000 41.000000 5507.000000 39.000000 C 5579.666667 37.000000 5641.000000 35.000000 5691.000000 33.000000 C 5688.333333 36.333333 5685.333333 41.666667 5682.000000 49.000000 C 5678.666667 56.333333 5675.666667 63.666667 5673.000000 71.000000 C 5671.000000 79.000000 5669.333333 86.000000 5668.000000 92.000000 C 5620.666667 93.333333 5562.333333 94.666667 5493.000000 96.000000 C 5423.666667 97.333333 5350.333333 98.333333 5273.000000 99.000000 C 5195.666667 99.666667 5121.666667 99.666667 5051.000000 99.000000 C 4981.000000 98.333333 4921.666667 97.333333 4873.000000 96.000000 C 4737.000000 90.666667 4620.000000 67.666667 4522.000000 27.000000 C 4424.666667 -13.000000 4344.666667 -72.000000 4282.000000 -150.000000 C 4228.000000 -104.000000 4172.666667 -58.000000 4116.000000 -12.000000 C 4060.000000 33.333333 4004.333333 77.666667 3949.000000 121.000000 C 3937.000000 102.333333 3925.000000 83.666667 3913.000000 65.000000 C 3964.333333 30.333333 4020.666667 -11.000000 4082.000000 -59.000000 C 4143.333333 -107.000000 4201.666667 -154.666667 4257.000000 -202.000000 C 4273.666667 -202.000000 4290.333333 -202.000000 4307.000000 -202.000000z M 3974.000000 -1517.000000 C 3988.333333 -1527.333333 4002.666667 -1537.666667 4017.000000 -1548.000000 C 4059.000000 -1518.000000 4101.000000 -1483.666667 4143.000000 -1445.000000 C 4185.666667 -1407.000000 4223.666667 -1368.666667 4257.000000 -1330.000000 C 4291.000000 -1292.000000 4317.666667 -1256.333333 4337.000000 -1223.000000 C 4321.666667 -1211.333333 4306.333333 -1199.666667 4291.000000 -1188.000000 C 4271.666667 -1221.333333 4245.000000 -1257.666667 4211.000000 -1297.000000 C 4177.666667 -1336.333333 4140.333333 -1375.000000 4099.000000 -1413.000000 C 4058.333333 -1451.666667 4016.666667 -1486.333333 3974.000000 -1517.000000z M 4735.000000 -1323.000000 C 4747.000000 -1336.333333 4759.000000 -1349.666667 4771.000000 -1363.000000 C 4835.000000 -1340.333333 4901.666667 -1314.000000 4971.000000 -1284.000000 C 5041.000000 -1254.666667 5107.666667 -1225.000000 5171.000000 -1195.000000 C 5235.000000 -1165.000000 5288.000000 -1136.666667 5330.000000 -1110.000000 C 5317.666667 -1094.666667 5305.333333 -1079.333333 5293.000000 -1064.000000 C 5252.333333 -1089.333333 5200.666667 -1117.666667 5138.000000 -1149.000000 C 5075.333333 -1180.333333 5008.666667 -1211.333333 4938.000000 -1242.000000 C 4868.000000 -1272.666667 4800.333333 -1299.666667 4735.000000 -1323.000000z M 4543.000000 -1112.000000 C 4879.000000 -1112.000000 5215.000000 -1112.000000 5551.000000 -1112.000000 C 5551.000000 -1093.333333 5551.000000 -1074.666667 5551.000000 -1056.000000 C 5233.333333 -1056.000000 4915.666667 -1056.000000 4598.000000 -1056.000000 C 4598.000000 -743.000000 4598.000000 -430.000000 4598.000000 -117.000000 C 4579.666667 -117.000000 4561.333333 -117.000000 4543.000000 -117.000000 C 4543.000000 -448.666667 4543.000000 -780.333333 4543.000000 -1112.000000z M 5522.000000 -1112.000000 C 5541.333333 -1112.000000 5560.666667 -1112.000000 5580.000000 -1112.000000 C 5580.000000 -809.666667 5580.000000 -507.333333 5580.000000 -205.000000 C 5580.000000 -181.000000 5576.000000 -163.333333 5568.000000 -152.000000 C 5560.000000 -141.333333 5546.666667 -133.000000 5528.000000 -127.000000 C 5507.333333 -121.666667 5476.333333 -118.333333 5435.000000 -117.000000 C 5394.333333 -115.666667 5338.333333 -115.000000 5267.000000 -115.000000 C 5265.666667 -124.333333 5262.666667 -134.000000 5258.000000 -144.000000 C 5253.333333 -154.000000 5248.666667 -163.000000 5244.000000 -171.000000 C 5304.000000 -169.666667 5356.000000 -169.000000 5400.000000 -169.000000 C 5444.000000 -169.000000 5473.000000 -169.000000 5487.000000 -169.000000 C 5501.000000 -170.333333 5510.333333 -173.333333 5515.000000 -178.000000 C 5519.666667 -183.333333 5522.000000 -192.333333 5522.000000 -205.000000 C 5522.000000 -507.333333 5522.000000 -809.666667 5522.000000 -1112.000000z M 4527.000000 -1500.000000 C 4860.666667 -1500.000000 5194.333333 -1500.000000 5528.000000 -1500.000000 C 5528.000000 -1481.333333 5528.000000 -1462.666667 5528.000000 -1444.000000 C 5194.333333 -1444.000000 4860.666667 -1444.000000 4527.000000 -1444.000000 C 4527.000000 -1462.666667 4527.000000 -1481.333333 4527.000000 -1500.000000z M 4572.000000 -822.000000 C 4900.000000 -822.000000 5228.000000 -822.000000 5556.000000 -822.000000 C 5556.000000 -803.333333 5556.000000 -784.666667 5556.000000 -766.000000 C 5228.000000 -766.000000 4900.000000 -766.000000 4572.000000 -766.000000 C 4572.000000 -784.666667 4572.000000 -803.333333 4572.000000 -822.000000z M 4572.000000 -526.000000 C 4900.000000 -526.000000 5228.000000 -526.000000 5556.000000 -526.000000 C 5556.000000 -506.666667 5556.000000 -487.333333 5556.000000 -468.000000 C 5228.000000 -468.000000 4900.000000 -468.000000 4572.000000 -468.000000 C 4572.000000 -487.333333 4572.000000 -506.666667 4572.000000 -526.000000z M 5025.000000 -1098.000000 C 5043.333333 -1098.000000 5061.666667 -1098.000000 5080.000000 -1098.000000 C 5080.000000 -773.666667 5080.000000 -449.333333 5080.000000 -125.000000 C 5061.666667 -125.000000 5043.333333 -125.000000 5025.000000 -125.000000 C 5025.000000 -449.333333 5025.000000 -773.666667 5025.000000 -1098.000000z M 5514.000000 -1500.000000 C 5518.666667 -1500.000000 5523.333333 -1500.000000 5528.000000 -1500.000000 C 5532.333333 -1501.000000 5536.666667 -1502.000000 5541.000000 -1503.000000 C 5555.000000 -1493.666667 5569.000000 -1484.333333 5583.000000 -1475.000000 C 5542.333333 -1437.666667 5494.333333 -1401.333333 5439.000000 -1366.000000 C 5384.333333 -1330.666667 5326.666667 -1298.666667 5266.000000 -1270.000000 C 5206.000000 -1241.333333 5147.333333 -1216.666667 5090.000000 -1196.000000 C 5084.666667 -1202.666667 5078.333333 -1209.666667 5071.000000 -1217.000000 C 5064.333333 -1225.000000 5058.000000 -1231.333333 5052.000000 -1236.000000 C 5109.333333 -1255.333333 5167.000000 -1278.333333 5225.000000 -1305.000000 C 5283.666667 -1332.333333 5338.000000 -1361.666667 5388.000000 -1393.000000 C 5438.666667 -1424.333333 5480.666667 -1455.333333 5514.000000 -1486.000000 C 5514.000000 -1490.666667 5514.000000 -1495.333333 5514.000000 -1500.000000z "/>
</g>
<g><path d="M 6501.000000 -1488.000000 C 6798.000000 -1488.000000 7095.000000 -1488.000000 7392.000000 -1488.000000 C 7392.000000 -1469.333333 7392.000000 -1450.666667 7392.000000 -1432.000000 C 7095.000000 -1432.000000 6798.000000 -1432.000000 6501.000000 -1432.000000 C 6501.000000 -1450.666667 6501.000000 -1469.333333 6501.000000 -1488.000000z M 6486.000000 -975.000000 C 6799.666667 -975.000000 7113.333333 -975.000000 7427.000000 -975.000000 C 7427.000000 -956.000000 7427.000000 -937.000000 7427.000000 -918.000000 C 7113.333333 -918.000000 6799.666667 -918.000000 6486.000000 -918.000000 C 6486.000000 -937.000000 6486.000000 -956.000000 6486.000000 -975.000000z M 6486.000000 -716.000000 C 6799.666667 -716.000000 7113.333333 -716.000000 7427.000000 -716.000000 C 7427.000000 -697.000000 7427.000000 -678.000000 7427.000000 -659.000000 C 7113.333333 -659.000000 6799.666667 -659.000000 6486.000000 -659.000000 C 6486.000000 -678.000000 6486.000000 -697.000000 6486.000000 -716.000000z M 6505.000000 -27.000000 C 6805.000000 -27.000000 7105.000000 -27.000000 7405.000000 -27.000000 C 7405.000000 -7.666667 7405.000000 11.666667 7405.000000 31.000000 C 7105.000000 31.000000 6805.000000 31.000000 6505.000000 31.000000 C 6505.000000 11.666667 6505.000000 -7.666667 6505.000000 -27.000000z M 6323.000000 -1231.000000 C 6744.000000 -1231.000000 7165.000000 -1231.000000 7586.000000 -1231.000000 C 7586.000000 -1212.333333 7586.000000 -1193.666667 7586.000000 -1175.000000 C 7165.000000 -1175.000000 6744.000000 -1175.000000 6323.000000 -1175.000000 C 6323.000000 -1193.666667 6323.000000 -1212.333333 6323.000000 -1231.000000z M 6478.000000 -459.000000 C 6796.666667 -459.000000 7115.333333 -459.000000 7434.000000 -459.000000 C 7434.000000 -262.333333 7434.000000 -65.666667 7434.000000 131.000000 C 7415.666667 131.000000 7397.333333 131.000000 7379.000000 131.000000 C 7379.000000 -47.000000 7379.000000 -225.000000 7379.000000 -403.000000 C 7097.333333 -403.000000 6815.666667 -403.000000 6534.000000 -403.000000 C 6534.000000 -223.333333 6534.000000 -43.666667 6534.000000 136.000000 C 6515.333333 136.000000 6496.666667 136.000000 6478.000000 136.000000 C 6478.000000 -62.333333 6478.000000 -260.666667 6478.000000 -459.000000z M 6334.000000 -1588.000000 C 6352.666667 -1582.666667 6371.333333 -1577.333333 6390.000000 -1572.000000 C 6346.000000 -1464.666667 6295.666667 -1360.333333 6239.000000 -1259.000000 C 6182.333333 -1158.333333 6121.333333 -1064.000000 6056.000000 -976.000000 C 5990.666667 -888.666667 5923.333333 -809.666667 5854.000000 -739.000000 C 5851.333333 -743.000000 5847.333333 -748.000000 5842.000000 -754.000000 C 5837.333333 -760.666667 5832.333333 -766.666667 5827.000000 -772.000000 C 5822.333333 -778.000000 5817.333333 -783.000000 5812.000000 -787.000000 C 5881.333333 -852.333333 5948.000000 -927.333333 6012.000000 -1012.000000 C 6076.000000 -1097.333333 6135.666667 -1189.000000 6191.000000 -1287.000000 C 6247.000000 -1385.000000 6294.666667 -1485.333333 6334.000000 -1588.000000z M 6119.000000 -1129.000000 C 6137.000000 -1147.000000 6155.000000 -1165.000000 6173.000000 -1183.000000 C 6174.333333 -1182.333333 6175.666667 -1181.666667 6177.000000 -1181.000000 C 6177.000000 -743.666667 6177.000000 -306.333333 6177.000000 131.000000 C 6157.666667 131.000000 6138.333333 131.000000 6119.000000 131.000000 C 6119.000000 -289.000000 6119.000000 -709.000000 6119.000000 -1129.000000z "/>
</g>
<g><path d="M 7811.000000 -1008.000000 C 8367.000000 -1008.000000 8923.000000 -1008.000000 9479.000000 -1008.000000 C 9479.000000 -989.333333 9479.000000 -970.666667 9479.000000 -952.000000 C 8923.000000 -952.000000 8367.000000 -952.000000 7811.000000 -952.000000 C 7811.000000 -970.666667 7811.000000 -989.333333 7811.000000 -1008.000000z M 8696.000000 -987.000000 C 8742.000000 -824.333333 8802.666667 -672.333333 8878.000000 -531.000000 C 8953.333333 -389.666667 9043.333333 -266.333333 9148.000000 -161.000000 C 9253.333333 -56.333333 9370.666667 25.000000 9500.000000 83.000000 C 9494.666667 86.333333 9489.333333 91.333333 9484.000000 98.000000 C 9479.333333 104.666667 9474.333333 110.666667 9469.000000 116.000000 C 9464.333333 122.000000 9460.000000 127.333333 9456.000000 132.000000 C 9325.333333 69.333333 9207.000000 -16.333333 9101.000000 -125.000000 C 8995.666667 -233.666667 8904.666667 -360.000000 8828.000000 -504.000000 C 8751.333333 -648.000000 8689.333333 -804.000000 8642.000000 -972.000000 C 8660.000000 -977.000000 8678.000000 -982.000000 8696.000000 -987.000000z M 8623.000000 -1592.000000 C 8642.000000 -1592.000000 8661.000000 -1592.000000 8680.000000 -1592.000000 C 8680.000000 -1521.333333 8677.666667 -1438.666667 8673.000000 -1344.000000 C 8669.000000 -1249.333333 8659.333333 -1147.666667 8644.000000 -1039.000000 C 8628.666667 -931.000000 8603.333333 -821.000000 8568.000000 -709.000000 C 8532.666667 -597.000000 8483.333333 -488.666667 8420.000000 -384.000000 C 8356.666667 -279.333333 8276.000000 -182.000000 8178.000000 -92.000000 C 8080.000000 -2.666667 7960.000000 72.666667 7818.000000 134.000000 C 7813.333333 128.000000 7806.333333 120.666667 7797.000000 112.000000 C 7788.333333 104.000000 7780.666667 97.333333 7774.000000 92.000000 C 7914.666667 32.000000 8033.666667 -41.333333 8131.000000 -128.000000 C 8228.333333 -215.333333 8308.000000 -310.333333 8370.000000 -413.000000 C 8432.000000 -516.333333 8480.333333 -623.000000 8515.000000 -733.000000 C 8549.666667 -843.666667 8574.333333 -952.000000 8589.000000 -1058.000000 C 8603.666667 -1164.000000 8613.000000 -1262.666667 8617.000000 -1354.000000 C 8621.000000 -1446.000000 8623.000000 -1525.333333 8623.000000 -1592.000000z "/>
</g>
<g><path d="M 10028.000000 -954.000000 C 10367.333333 -954.000000 10706.666667 -954.000000 11046.000000 -954.000000 C 11046.000000 -935.666667 11046.000000 -917.333333 11046.000000 -899.000000 C 10706.666667 -899.000000 10367.333333 -899.000000 10028.000000 -899.000000 C 10028.000000 -917.333333 10028.000000 -935.666667 10028.000000 -954.000000z M 9727.000000 -511.000000 C 10286.333333 -511.000000 10845.666667 -511.000000 11405.000000 -511.000000 C 11405.000000 -491.666667 11405.000000 -472.333333 11405.000000 -453.000000 C 10845.666667 -453.000000 10286.333333 -453.000000 9727.000000 -453.000000 C 9727.000000 -472.333333 9727.000000 -491.666667 9727.000000 -511.000000z M 10533.000000 -666.000000 C 10552.333333 -666.000000 10571.666667 -666.000000 10591.000000 -666.000000 C 10591.000000 -432.000000 10591.000000 -198.000000 10591.000000 36.000000 C 10591.000000 64.666667 10585.666667 85.333333 10575.000000 98.000000 C 10565.000000 110.666667 10547.333333 119.666667 10522.000000 125.000000 C 10497.333333 129.666667 10458.666667 132.666667 10406.000000 134.000000 C 10354.000000 135.333333 10281.333333 136.000000 10188.000000 136.000000 C 10185.333333 128.666667 10181.000000 119.666667 10175.000000 109.000000 C 10169.000000 99.000000 10163.000000 89.666667 10157.000000 81.000000 C 10214.333333 82.333333 10265.333333 83.000000 10310.000000 83.000000 C 10355.333333 83.666667 10393.000000 83.666667 10423.000000 83.000000 C 10453.000000 83.000000 10474.333333 82.333333 10487.000000 81.000000 C 10506.333333 78.333333 10518.666667 74.000000 10524.000000 68.000000 C 10530.000000 62.666667 10533.000000 52.666667 10533.000000 38.000000 C 10533.000000 -196.666667 10533.000000 -431.333333 10533.000000 -666.000000z M 11032.000000 -954.000000 C 11036.666667 -954.000000 11041.333333 -954.000000 11046.000000 -954.000000 C 11050.333333 -955.333333 11054.666667 -956.666667 11059.000000 -958.000000 C 11072.666667 -948.333333 11086.333333 -938.666667 11100.000000 -929.000000 C 11057.333333 -888.333333 11006.666667 -848.666667 10948.000000 -810.000000 C 10889.333333 -772.000000 10828.000000 -737.000000 10764.000000 -705.000000 C 10700.666667 -673.000000 10639.666667 -645.333333 10581.000000 -622.000000 C 10575.666667 -628.666667 10569.333333 -635.000000 10562.000000 -641.000000 C 10555.333333 -647.666667 10549.000000 -653.666667 10543.000000 -659.000000 C 10601.666667 -680.333333 10661.666667 -706.333333 10723.000000 -737.000000 C 10784.333333 -767.666667 10842.333333 -800.666667 10897.000000 -836.000000 C 10951.666667 -871.333333 10996.666667 -906.333333 11032.000000 -941.000000 C 11032.000000 -945.333333 11032.000000 -949.666667 11032.000000 -954.000000z M 9780.000000 -1261.000000 C 10307.000000 -1261.000000 10834.000000 -1261.000000 11361.000000 -1261.000000 C 11361.000000 -1132.000000 11361.000000 -1003.000000 11361.000000 -874.000000 C 11341.666667 -874.000000 11322.333333 -874.000000 11303.000000 -874.000000 C 11303.000000 -984.000000 11303.000000 -1094.000000 11303.000000 -1204.000000 C 10814.666667 -1204.000000 10326.333333 -1204.000000 9838.000000 -1204.000000 C 9838.000000 -1094.000000 9838.000000 -984.000000 9838.000000 -874.000000 C 9818.666667 -874.000000 9799.333333 -874.000000 9780.000000 -874.000000 C 9780.000000 -1003.000000 9780.000000 -1132.000000 9780.000000 -1261.000000z M 11196.000000 -1584.000000 C 11213.000000 -1574.333333 11230.000000 -1564.666667 11247.000000 -1555.000000 C 11210.333333 -1500.333333 11167.666667 -1443.333333 11119.000000 -1384.000000 C 11070.333333 -1325.333333 11025.333333 -1275.000000 10984.000000 -1233.000000 C 10970.666667 -1242.333333 10957.333333 -1251.666667 10944.000000 -1261.000000 C 10970.666667 -1289.666667 10999.666667 -1323.000000 11031.000000 -1361.000000 C 11062.333333 -1399.666667 11092.666667 -1438.333333 11122.000000 -1477.000000 C 11152.000000 -1516.333333 11176.666667 -1552.000000 11196.000000 -1584.000000z M 9915.000000 -1544.000000 C 9930.333333 -1552.333333 9945.666667 -1560.666667 9961.000000 -1569.000000 C 10000.333333 -1525.000000 10038.333333 -1477.000000 10075.000000 -1425.000000 C 10111.666667 -1373.666667 10138.333333 -1328.666667 10155.000000 -1290.000000 C 10139.666667 -1280.333333 10124.333333 -1270.666667 10109.000000 -1261.000000 C 10091.000000 -1299.666667 10063.333333 -1345.333333 10026.000000 -1398.000000 C 9989.333333 -1451.333333 9952.333333 -1500.000000 9915.000000 -1544.000000z M 10418.000000 -1584.000000 C 10433.333333 -1589.666667 10448.666667 -1595.333333 10464.000000 -1601.000000 C 10498.666667 -1552.333333 10531.666667 -1498.666667 10563.000000 -1440.000000 C 10594.333333 -1381.333333 10615.666667 -1330.666667 10627.000000 -1288.000000 C 10611.000000 -1281.000000 10595.000000 -1274.000000 10579.000000 -1267.000000 C 10566.333333 -1310.333333 10545.000000 -1361.666667 10515.000000 -1421.000000 C 10485.000000 -1481.000000 10452.666667 -1535.333333 10418.000000 -1584.000000z "/>
</g>
</svg>
