<?xml version="1.0" encoding="utf-8"?>
<svg xmlns="http://www.w3.org/2000/svg" xmlns:ev="http://www.w3.org/2001/xml-events" xmlns:xlink="http://www.w3.org/1999/xlink" version="1.1" baseProfile="full" width="3391.0" height="1736.0" viewBox="88.0 -1592.0 3391.0 1736.0">
<defs/>
<g><path d="M 2302.000000 -1450.000000 C 2694.333333 -1450.000000 3086.666667 -1450.000000 3479.000000 -1450.000000 C 3479.000000 -933.333333 3479.000000 -416.666667 3479.000000 100.000000 C 3459.666667 100.000000 3440.333333 100.000000 3421.000000 100.000000 C 3421.000000 -397.333333 3421.000000 -894.666667 3421.000000 -1392.000000 C 3067.333333 -1392.000000 2713.666667 -1392.000000 2360.000000 -1392.000000 C 2360.000000 -889.666667 2360.000000 -387.333333 2360.000000 115.000000 C 2340.666667 115.000000 2321.333333 115.000000 2302.000000 115.000000 C 2302.000000 -406.666667 2302.000000 -928.333333 2302.000000 -1450.000000z M 2337.000000 -764.000000 C 2706.666667 -764.000000 3076.333333 -764.000000 3446.000000 -764.000000 C 3446.000000 -745.333333 3446.000000 -726.666667 3446.000000 -708.000000 C 3076.333333 -708.000000 2706.666667 -708.000000 2337.000000 -708.000000 C 2337.000000 -726.666667 2337.000000 -745.333333 2337.000000 -764.000000z M 2333.000000 -65.000000 C 2706.000000 -65.000000 3079.000000 -65.000000 3452.000000 -65.000000 C 3452.000000 -46.666667 3452.000000 -28.333333 3452.000000 -10.000000 C 3079.000000 -10.000000 2706.000000 -10.000000 2333.000000 -10.000000 C 2333.000000 -28.333333 2333.000000 -46.666667 2333.000000 -65.000000z "/>
</g></svg>
