<?xml version="1.0" ?>
<svg xmlns="http://www.w3.org/2000/svg" version="1.1" width="600" height="600">
  <defs/>
  <g>
    <path stroke-width="0" fill="rgb(0, 0, 0)" opacity="1.0" d="M 193.329345703125 480.0 C 193.329345703125 472.5 193.329345703125 465.0 193.329345703125 457.5 C 193.329345703125 450.0 193.329345703125 442.5 193.329345703125 435.0 C 193.329345703125 427.5 193.329345703125 420.0 193.329345703125 412.5 C 193.329345703125 405.0 193.329345703125 397.5 193.329345703125 390.0 C 193.329345703125 382.5 193.329345703125 375.0 193.329345703125 367.5 C 193.329345703125 360.0 193.329345703125 352.5 193.329345703125 345.0 C 193.329345703125 337.5 193.329345703125 330.0 193.329345703125 322.5 C 193.329345703125 315.0 193.329345703125 307.5 193.329345703125 300.0 C 193.329345703125 292.5 193.329345703125 285.0 193.329345703125 277.5 C 193.329345703125 270.0 193.329345703125 262.5 193.329345703125 255.0 C 193.329345703125 247.5 193.329345703125 240.0 193.329345703125 232.5 C 193.329345703125 225.0 193.329345703125 217.5 193.329345703125 210.0 C 193.329345703125 202.5 193.329345703125 195.0 193.329345703125 187.5 C 193.329345703125 180.0 193.329345703125 172.5 193.329345703125 165.0 C 193.329345703125 157.5 193.329345703125 150.0 193.329345703125 142.5 C 193.329345703125 135.0 193.329345703125 127.5 193.329345703125 120.0 C 200.53890991210938 120.0 207.74850463867188 120.0 214.95806884765625 120.0 C 222.16766357421875 120.0 229.37725830078125 120.0 236.58682250976562 120.0 C 243.79641723632812 120.0 251.0059814453125 120.0 258.215576171875 120.0 C 265.4251403808594 120.0 272.6347351074219 120.0 279.84429931640625 120.0 C 293.57684326171875 120.0 306.25799560546875 120.81777954101562 317.8877258300781 122.453369140625 C 329.5174560546875 124.08895874023438 340.0958251953125 126.54232788085938 349.62274169921875 129.8134765625 C 359.14971923828125 132.99856567382812 367.5394287109375 137.17361450195312 374.79193115234375 142.33859252929688 C 382.04443359375 147.50360107421875 388.15966796875 153.65853881835938 393.1376953125 160.80343627929688 C 398.20159912109375 167.86227416992188 401.99951171875 176.1693115234375 404.53143310546875 185.72454833984375 C 407.0633544921875 195.27978515625 408.329345703125 206.08322143554688 408.329345703125 218.13485717773438 C 408.329345703125 229.756103515625 407.0848388671875 240.3658447265625 404.5958251953125 249.964111328125 C 402.1068115234375 259.56243896484375 398.373291015625 268.14923095703125 393.39520263671875 275.72454833984375 C 388.50299072265625 283.29986572265625 382.47357177734375 289.94976806640625 375.306884765625 295.67431640625 C 368.1402587890625 301.39886474609375 359.8363037109375 306.197998046875 350.39520263671875 310.07171630859375 C 341.0399169921875 313.8594055175781 330.6546936035156 316.70013427734375 319.239501953125 318.593994140625 C 307.8243408203125 320.48779296875 295.3792419433594 321.4347229003906 281.9041748046875 321.4347229003906 C 270.1886291503906 321.4347229003906 258.4730529785156 321.4347229003906 246.75747680664062 321.4347229003906 C 235.04193115234375 321.4347229003906 223.32635498046875 321.4347229003906 211.61077880859375 321.4347229003906 C 211.61077880859375 334.64849853515625 211.61077880859375 347.8623046875 211.61077880859375 361.0760498046875 C 211.61077880859375 374.289794921875 211.61077880859375 387.50360107421875 211.61077880859375 400.71734619140625 C 211.61077880859375 413.93115234375 211.61077880859375 427.1448974609375 211.61077880859375 440.358642578125 C 211.61077880859375 453.57244873046875 211.61077880859375 466.7862548828125 211.61077880859375 480.0 C 205.5169677734375 480.0 199.42315673828125 480.0 193.329345703125 480.0M 211.61077880859375 304.90673828125 C 222.25347900390625 304.90673828125 232.89620971679688 304.90673828125 243.5389404296875 304.90673828125 C 254.181640625 304.90673828125 264.8243408203125 304.90673828125 275.4670715332031 304.90673828125 C 285.03692626953125 304.90673828125 293.9898986816406 304.4924621582031 302.32598876953125 303.6639099121094 C 310.66204833984375 302.83538818359375 318.3812255859375 301.592529296875 325.4835205078125 299.9354248046875 C 339.6881103515625 296.6212463378906 351.4251708984375 291.6499328613281 360.694580078125 285.0215148925781 C 370.0499267578125 278.3070373535156 377.06634521484375 269.37591552734375 381.7440185546875 258.2281188964844 C 386.421630859375 247.080322265625 388.760498046875 233.7159423828125 388.760498046875 218.13485717773438 C 388.760498046875 202.46774291992188 386.37872314453125 189.27548217773438 381.615234375 178.55810546875 C 376.851806640625 167.84075927734375 369.70660400390625 159.59829711914062 360.17962646484375 153.83071899414062 C 350.738525390625 147.97705078125 338.78692626953125 143.58682250976562 324.3248291015625 140.65997314453125 C 317.09381103515625 139.19656372070312 309.23516845703125 138.0989990234375 300.7489013671875 137.36727905273438 C 292.2626037597656 136.63555908203125 283.148681640625 136.26971435546875 273.40716552734375 136.26971435546875 C 263.1077880859375 136.26971435546875 252.80838012695312 136.26971435546875 242.50897216796875 136.26971435546875 C 232.2095947265625 136.26971435546875 221.91018676757812 136.26971435546875 211.61077880859375 136.26971435546875 C 211.61077880859375 150.32281494140625 211.61077880859375 164.37591552734375 211.61077880859375 178.42898559570312 C 211.61077880859375 192.4820556640625 211.61077880859375 206.53515625 211.61077880859375 220.58822631835938 C 211.61077880859375 227.61477661132812 211.61077880859375 234.64132690429688 211.61077880859375 241.6678466796875 C 211.61077880859375 248.69439697265625 211.61077880859375 255.720947265625 211.61077880859375 262.74749755859375 C 211.61077880859375 269.7740478515625 211.61077880859375 276.80059814453125 211.61077880859375 283.8271179199219 C 211.61077880859375 290.8536376953125 211.61077880859375 297.88018798828125 211.61077880859375 304.90673828125"/>
  </g>
</svg>
