<?xml version="1.0" encoding="utf-8"?>
<svg xmlns="http://www.w3.org/2000/svg" xmlns:ev="http://www.w3.org/2001/xml-events" xmlns:xlink="http://www.w3.org/1999/xlink" version="1.1" baseProfile="full" width="9524.7" height="1737.0" viewBox="439.3 -1601.0 9524.7 1737.0">
<defs/>
<g><path d="M 1294.000000 -1450.000000 C 1284.000000 -1440.666667 1268.000000 -1425.666667 1246.000000 -1405.000000 C 1224.000000 -1385.000000 1208.000000 -1370.333333 1198.000000 -1361.000000 C 1163.333333 -1329.000000 1120.333333 -1291.000000 1069.000000 -1247.000000 C 1018.333333 -1203.000000 964.333333 -1157.666667 907.000000 -1111.000000 C 850.333333 -1064.333333 795.333333 -1019.333333 742.000000 -976.000000 C 688.666667 -933.333333 643.000000 -896.000000 605.000000 -864.000000 C 562.333333 -826.666667 533.333333 -795.333333 518.000000 -770.000000 C 502.666667 -745.333333 503.000000 -720.666667 519.000000 -696.000000 C 535.000000 -671.333333 566.666667 -639.000000 614.000000 -599.000000 C 655.333333 -565.666667 700.333333 -529.000000 749.000000 -489.000000 C 797.666667 -449.666667 847.666667 -408.000000 899.000000 -364.000000 C 951.000000 -320.000000 1003.333333 -274.666667 1056.000000 -228.000000 C 1108.666667 -182.000000 1159.666667 -135.666667 1209.000000 -89.000000 C 1258.333333 -42.333333 1304.000000 2.666667 1346.000000 46.000000 C 1329.333333 60.666667 1312.666667 75.333333 1296.000000 90.000000 C 1269.333333 59.333333 1237.333333 25.333333 1200.000000 -12.000000 C 1161.333333 -50.000000 1115.000000 -93.666667 1061.000000 -143.000000 C 1007.666667 -192.333333 951.333333 -242.666667 892.000000 -294.000000 C 832.666667 -346.000000 774.333333 -396.000000 717.000000 -444.000000 C 660.333333 -492.000000 609.000000 -534.666667 563.000000 -572.000000 C 505.000000 -619.333333 468.666667 -659.666667 454.000000 -693.000000 C 439.333333 -726.333333 442.333333 -759.333333 463.000000 -792.000000 C 484.333333 -824.666667 520.666667 -862.666667 572.000000 -906.000000 C 606.666667 -935.333333 650.333333 -971.333333 703.000000 -1014.000000 C 756.333333 -1057.333333 812.000000 -1103.000000 870.000000 -1151.000000 C 928.666667 -1199.000000 984.000000 -1245.333333 1036.000000 -1290.000000 C 1088.000000 -1334.666667 1130.000000 -1374.333333 1162.000000 -1409.000000 C 1172.000000 -1421.000000 1184.666667 -1436.333333 1200.000000 -1455.000000 C 1215.333333 -1474.333333 1226.333333 -1490.333333 1233.000000 -1503.000000 C 1253.333333 -1485.333333 1273.666667 -1467.666667 1294.000000 -1450.000000z "/>
</g>
<g><path d="M 3020.000000 -1478.000000 C 3020.000000 -1474.666667 3019.333333 -1467.666667 3018.000000 -1457.000000 C 3016.666667 -1447.000000 3015.666667 -1436.666667 3015.000000 -1426.000000 C 3014.333333 -1416.000000 3014.000000 -1408.000000 3014.000000 -1402.000000 C 3012.666667 -1377.333333 3012.000000 -1344.666667 3012.000000 -1304.000000 C 3012.000000 -1264.000000 3012.000000 -1220.000000 3012.000000 -1172.000000 C 3012.000000 -1124.000000 3012.333333 -1075.666667 3013.000000 -1027.000000 C 3013.666667 -978.333333 3014.333333 -932.333333 3015.000000 -889.000000 C 3015.666667 -845.666667 3016.000000 -808.666667 3016.000000 -778.000000 C 2998.333333 -800.333333 2980.666667 -822.666667 2963.000000 -845.000000 C 2963.000000 -855.000000 2963.000000 -876.666667 2963.000000 -910.000000 C 2963.000000 -943.333333 2962.666667 -983.333333 2962.000000 -1030.000000 C 2961.333333 -1076.666667 2960.666667 -1124.333333 2960.000000 -1173.000000 C 2959.333333 -1221.666667 2958.666667 -1266.333333 2958.000000 -1307.000000 C 2957.333333 -1348.333333 2956.333333 -1380.000000 2955.000000 -1402.000000 C 2955.000000 -1414.666667 2954.000000 -1429.666667 2952.000000 -1447.000000 C 2950.000000 -1464.333333 2948.333333 -1474.666667 2947.000000 -1478.000000 C 2971.333333 -1478.000000 2995.666667 -1478.000000 3020.000000 -1478.000000z M 2066.000000 -1183.000000 C 2113.333333 -1184.333333 2168.000000 -1186.000000 2230.000000 -1188.000000 C 2292.000000 -1190.666667 2359.000000 -1193.333333 2431.000000 -1196.000000 C 2503.666667 -1198.666667 2578.666667 -1201.000000 2656.000000 -1203.000000 C 2733.333333 -1205.000000 2810.000000 -1206.666667 2886.000000 -1208.000000 C 2962.666667 -1209.333333 3036.333333 -1210.000000 3107.000000 -1210.000000 C 3174.333333 -1210.000000 3236.333333 -1209.666667 3293.000000 -1209.000000 C 3350.333333 -1208.333333 3401.000000 -1208.000000 3445.000000 -1208.000000 C 3489.666667 -1208.000000 3528.000000 -1207.666667 3560.000000 -1207.000000 C 3592.000000 -1206.333333 3617.333333 -1206.000000 3636.000000 -1206.000000 C 3636.000000 -1186.666667 3636.000000 -1167.333333 3636.000000 -1148.000000 C 3588.666667 -1150.666667 3524.000000 -1152.666667 3442.000000 -1154.000000 C 3360.666667 -1155.333333 3249.333333 -1156.000000 3108.000000 -1156.000000 C 3030.000000 -1156.000000 2946.000000 -1155.333333 2856.000000 -1154.000000 C 2766.000000 -1152.666667 2673.666667 -1150.333333 2579.000000 -1147.000000 C 2485.000000 -1143.666667 2394.000000 -1139.333333 2306.000000 -1134.000000 C 2218.666667 -1129.333333 2139.333333 -1123.666667 2068.000000 -1117.000000 C 2067.333333 -1139.000000 2066.666667 -1161.000000 2066.000000 -1183.000000z M 3041.000000 -636.000000 C 3041.000000 -569.333333 3028.666667 -513.333333 3004.000000 -468.000000 C 2980.000000 -423.333333 2948.666667 -389.666667 2910.000000 -367.000000 C 2872.000000 -345.000000 2831.333333 -334.000000 2788.000000 -334.000000 C 2744.666667 -334.000000 2704.666667 -340.333333 2668.000000 -353.000000 C 2631.333333 -365.666667 2599.333333 -384.666667 2572.000000 -410.000000 C 2545.333333 -436.000000 2524.666667 -467.000000 2510.000000 -503.000000 C 2495.333333 -539.000000 2488.000000 -580.000000 2488.000000 -626.000000 C 2488.000000 -680.666667 2501.333333 -731.000000 2528.000000 -777.000000 C 2555.333333 -823.666667 2591.333333 -861.333333 2636.000000 -890.000000 C 2680.666667 -918.666667 2729.333333 -933.000000 2782.000000 -933.000000 C 2847.333333 -933.000000 2901.000000 -918.333333 2943.000000 -889.000000 C 2985.666667 -859.666667 3017.333333 -818.666667 3038.000000 -766.000000 C 3059.333333 -713.333333 3070.000000 -652.666667 3070.000000 -584.000000 C 3070.000000 -517.333333 3062.000000 -451.666667 3046.000000 -387.000000 C 3030.000000 -322.333333 3002.333333 -260.666667 2963.000000 -202.000000 C 2924.333333 -144.000000 2870.666667 -91.000000 2802.000000 -43.000000 C 2734.000000 5.000000 2646.666667 45.666667 2540.000000 79.000000 C 2522.000000 63.000000 2504.000000 47.000000 2486.000000 31.000000 C 2580.000000 7.666667 2660.000000 -22.666667 2726.000000 -60.000000 C 2792.666667 -98.000000 2847.000000 -142.666667 2889.000000 -194.000000 C 2931.666667 -245.333333 2962.666667 -302.666667 2982.000000 -366.000000 C 3002.000000 -429.333333 3012.000000 -498.000000 3012.000000 -572.000000 C 3012.000000 -683.333333 2990.000000 -762.333333 2946.000000 -809.000000 C 2902.000000 -855.666667 2848.666667 -879.000000 2786.000000 -879.000000 C 2744.000000 -879.000000 2704.666667 -868.000000 2668.000000 -846.000000 C 2631.333333 -824.666667 2601.666667 -795.000000 2579.000000 -757.000000 C 2557.000000 -719.666667 2546.000000 -676.000000 2546.000000 -626.000000 C 2546.000000 -549.333333 2569.666667 -490.333333 2617.000000 -449.000000 C 2664.333333 -408.333333 2721.333333 -388.000000 2788.000000 -388.000000 C 2838.000000 -388.000000 2879.333333 -400.666667 2912.000000 -426.000000 C 2944.666667 -452.000000 2969.333333 -488.000000 2986.000000 -534.000000 C 3002.666667 -580.000000 3011.000000 -633.000000 3011.000000 -693.000000 C 3021.000000 -674.000000 3031.000000 -655.000000 3041.000000 -636.000000z M 3300.000000 -1500.000000 C 3322.000000 -1470.000000 3348.000000 -1432.000000 3378.000000 -1386.000000 C 3408.000000 -1340.000000 3433.333333 -1298.333333 3454.000000 -1261.000000 C 3435.333333 -1251.666667 3416.666667 -1242.333333 3398.000000 -1233.000000 C 3378.000000 -1271.000000 3353.333333 -1313.000000 3324.000000 -1359.000000 C 3295.333333 -1405.000000 3269.666667 -1443.666667 3247.000000 -1475.000000 C 3264.666667 -1483.333333 3282.333333 -1491.666667 3300.000000 -1500.000000z M 3510.000000 -1544.000000 C 3531.333333 -1514.666667 3556.333333 -1477.666667 3585.000000 -1433.000000 C 3614.333333 -1389.000000 3640.333333 -1347.333333 3663.000000 -1308.000000 C 3644.000000 -1298.333333 3625.000000 -1288.666667 3606.000000 -1279.000000 C 3585.333333 -1319.666667 3561.000000 -1362.000000 3533.000000 -1406.000000 C 3505.666667 -1450.666667 3480.000000 -1488.333333 3456.000000 -1519.000000 C 3474.000000 -1527.333333 3492.000000 -1535.666667 3510.000000 -1544.000000z "/>
</g>
<g><path d="M 4433.000000 -1469.000000 C 4429.666667 -1445.666667 4427.333333 -1424.333333 4426.000000 -1405.000000 C 4424.666667 -1386.333333 4423.333333 -1364.000000 4422.000000 -1338.000000 C 4420.666667 -1282.000000 4418.333333 -1212.000000 4415.000000 -1128.000000 C 4411.666667 -1044.000000 4409.000000 -954.000000 4407.000000 -858.000000 C 4405.000000 -762.000000 4403.000000 -665.333333 4401.000000 -568.000000 C 4399.666667 -470.666667 4399.000000 -380.666667 4399.000000 -298.000000 C 4399.000000 -222.000000 4414.333333 -161.000000 4445.000000 -115.000000 C 4475.666667 -69.000000 4518.333333 -35.666667 4573.000000 -15.000000 C 4628.333333 5.000000 4692.000000 15.000000 4764.000000 15.000000 C 4860.000000 15.000000 4945.333333 3.333333 5020.000000 -20.000000 C 5094.666667 -44.000000 5160.333333 -75.333333 5217.000000 -114.000000 C 5274.333333 -153.333333 5324.333333 -196.666667 5367.000000 -244.000000 C 5410.333333 -291.333333 5449.333333 -338.666667 5484.000000 -386.000000 C 5498.000000 -370.000000 5512.000000 -354.000000 5526.000000 -338.000000 C 5491.333333 -293.333333 5450.666667 -247.000000 5404.000000 -199.000000 C 5357.333333 -151.000000 5303.000000 -106.666667 5241.000000 -66.000000 C 5179.666667 -26.000000 5109.000000 6.333333 5029.000000 31.000000 C 4949.000000 56.333333 4858.666667 69.000000 4758.000000 69.000000 C 4678.666667 69.000000 4607.666667 57.000000 4545.000000 33.000000 C 4482.333333 9.666667 4432.666667 -30.000000 4396.000000 -86.000000 C 4359.333333 -142.666667 4341.000000 -221.000000 4341.000000 -321.000000 C 4341.000000 -383.666667 4341.666667 -451.000000 4343.000000 -523.000000 C 4344.333333 -595.666667 4346.333333 -669.666667 4349.000000 -745.000000 C 4351.666667 -820.333333 4353.666667 -894.000000 4355.000000 -966.000000 C 4357.000000 -1038.666667 4358.666667 -1107.000000 4360.000000 -1171.000000 C 4361.333333 -1235.000000 4362.000000 -1290.666667 4362.000000 -1338.000000 C 4362.000000 -1364.000000 4361.333333 -1387.666667 4360.000000 -1409.000000 C 4358.666667 -1431.000000 4356.333333 -1451.000000 4353.000000 -1469.000000 C 4379.666667 -1469.000000 4406.333333 -1469.000000 4433.000000 -1469.000000z "/>
</g>
<g><path d="M 6205.000000 -1039.000000 C 6533.333333 -1039.000000 6861.666667 -1039.000000 7190.000000 -1039.000000 C 7190.000000 -1020.333333 7190.000000 -1001.666667 7190.000000 -983.000000 C 6861.666667 -983.000000 6533.333333 -983.000000 6205.000000 -983.000000 C 6205.000000 -1001.666667 6205.000000 -1020.333333 6205.000000 -1039.000000z M 5910.000000 -551.000000 C 6452.000000 -551.000000 6994.000000 -551.000000 7536.000000 -551.000000 C 7536.000000 -532.333333 7536.000000 -513.666667 7536.000000 -495.000000 C 6994.000000 -495.000000 6452.000000 -495.000000 5910.000000 -495.000000 C 5910.000000 -513.666667 5910.000000 -532.333333 5910.000000 -551.000000z M 6697.000000 -716.000000 C 6716.333333 -716.000000 6735.666667 -716.000000 6755.000000 -716.000000 C 6755.000000 -464.000000 6755.000000 -212.000000 6755.000000 40.000000 C 6755.000000 64.666667 6750.333333 83.000000 6741.000000 95.000000 C 6732.333333 107.000000 6717.000000 116.333333 6695.000000 123.000000 C 6674.333333 128.333333 6642.000000 131.000000 6598.000000 131.000000 C 6554.000000 131.666667 6490.333333 132.000000 6407.000000 132.000000 C 6405.666667 127.333333 6403.333333 122.000000 6400.000000 116.000000 C 6397.333333 110.666667 6394.333333 104.666667 6391.000000 98.000000 C 6387.666667 91.333333 6384.000000 85.666667 6380.000000 81.000000 C 6427.333333 81.000000 6469.666667 81.333333 6507.000000 82.000000 C 6545.000000 82.666667 6576.666667 82.666667 6602.000000 82.000000 C 6628.000000 81.333333 6646.333333 81.000000 6657.000000 81.000000 C 6672.333333 79.666667 6682.666667 76.000000 6688.000000 70.000000 C 6694.000000 64.000000 6697.000000 54.666667 6697.000000 42.000000 C 6697.000000 -210.666667 6697.000000 -463.333333 6697.000000 -716.000000z M 7175.000000 -1039.000000 C 7179.333333 -1039.000000 7183.666667 -1039.000000 7188.000000 -1039.000000 C 7192.666667 -1040.333333 7197.333333 -1041.666667 7202.000000 -1043.000000 C 7215.333333 -1033.333333 7228.666667 -1023.666667 7242.000000 -1014.000000 C 7200.000000 -969.333333 7150.666667 -924.333333 7094.000000 -879.000000 C 7038.000000 -834.333333 6979.666667 -792.333333 6919.000000 -753.000000 C 6859.000000 -714.333333 6801.666667 -681.000000 6747.000000 -653.000000 C 6743.000000 -659.000000 6737.000000 -665.666667 6729.000000 -673.000000 C 6721.666667 -680.333333 6714.666667 -685.666667 6708.000000 -689.000000 C 6763.333333 -716.333333 6820.000000 -748.666667 6878.000000 -786.000000 C 6936.666667 -824.000000 6991.666667 -863.666667 7043.000000 -905.000000 C 7095.000000 -947.000000 7139.000000 -987.000000 7175.000000 -1025.000000 C 7175.000000 -1029.666667 7175.000000 -1034.333333 7175.000000 -1039.000000z M 6689.000000 -1601.000000 C 6708.333333 -1601.000000 6727.666667 -1601.000000 6747.000000 -1601.000000 C 6747.000000 -1511.000000 6747.000000 -1421.000000 6747.000000 -1331.000000 C 6727.666667 -1331.000000 6708.333333 -1331.000000 6689.000000 -1331.000000 C 6689.000000 -1421.000000 6689.000000 -1511.000000 6689.000000 -1601.000000z M 5939.000000 -1363.000000 C 6460.333333 -1363.000000 6981.666667 -1363.000000 7503.000000 -1363.000000 C 7503.000000 -1228.000000 7503.000000 -1093.000000 7503.000000 -958.000000 C 7484.000000 -958.000000 7465.000000 -958.000000 7446.000000 -958.000000 C 7446.000000 -1074.000000 7446.000000 -1190.000000 7446.000000 -1306.000000 C 6962.666667 -1306.000000 6479.333333 -1306.000000 5996.000000 -1306.000000 C 5996.000000 -1190.000000 5996.000000 -1074.000000 5996.000000 -958.000000 C 5977.000000 -958.000000 5958.000000 -958.000000 5939.000000 -958.000000 C 5939.000000 -1093.000000 5939.000000 -1228.000000 5939.000000 -1363.000000z "/>
</g>
<g><path d=""/>
</g>
<g><path d="M 8977.000000 -1494.000000 C 9279.666667 -1494.000000 9582.333333 -1494.000000 9885.000000 -1494.000000 C 9885.000000 -1475.333333 9885.000000 -1456.666667 9885.000000 -1438.000000 C 9582.333333 -1438.000000 9279.666667 -1438.000000 8977.000000 -1438.000000 C 8977.000000 -1456.666667 8977.000000 -1475.333333 8977.000000 -1494.000000z M 8911.000000 -812.000000 C 9262.000000 -812.000000 9613.000000 -812.000000 9964.000000 -812.000000 C 9964.000000 -793.000000 9964.000000 -774.000000 9964.000000 -755.000000 C 9613.000000 -755.000000 9262.000000 -755.000000 8911.000000 -755.000000 C 8911.000000 -774.000000 8911.000000 -793.000000 8911.000000 -812.000000z M 9412.000000 -1098.000000 C 9430.666667 -1098.000000 9449.333333 -1098.000000 9468.000000 -1098.000000 C 9468.000000 -723.000000 9468.000000 -348.000000 9468.000000 27.000000 C 9468.000000 56.333333 9463.000000 77.333333 9453.000000 90.000000 C 9443.666667 102.666667 9427.666667 112.333333 9405.000000 119.000000 C 9380.333333 124.333333 9343.333333 127.333333 9294.000000 128.000000 C 9244.666667 128.666667 9179.333333 129.000000 9098.000000 129.000000 C 9096.666667 121.000000 9093.333333 111.333333 9088.000000 100.000000 C 9082.666667 89.333333 9077.666667 79.666667 9073.000000 71.000000 C 9145.666667 72.333333 9208.333333 73.000000 9261.000000 73.000000 C 9314.333333 73.000000 9350.000000 72.333333 9368.000000 71.000000 C 9386.000000 69.666667 9397.666667 66.000000 9403.000000 60.000000 C 9409.000000 54.666667 9412.000000 44.333333 9412.000000 29.000000 C 9412.000000 -346.666667 9412.000000 -722.333333 9412.000000 -1098.000000z M 9864.000000 -1494.000000 C 9868.333333 -1494.000000 9872.666667 -1494.000000 9877.000000 -1494.000000 C 9881.000000 -1495.333333 9885.000000 -1496.666667 9889.000000 -1498.000000 C 9902.333333 -1489.666667 9915.666667 -1481.333333 9929.000000 -1473.000000 C 9890.333333 -1419.000000 9844.333333 -1365.000000 9791.000000 -1311.000000 C 9738.333333 -1257.666667 9683.000000 -1207.666667 9625.000000 -1161.000000 C 9567.666667 -1114.333333 9512.333333 -1073.666667 9459.000000 -1039.000000 C 9453.666667 -1045.000000 9447.000000 -1051.333333 9439.000000 -1058.000000 C 9431.666667 -1065.333333 9424.666667 -1071.000000 9418.000000 -1075.000000 C 9472.000000 -1108.333333 9527.000000 -1147.666667 9583.000000 -1193.000000 C 9639.666667 -1238.333333 9692.666667 -1286.000000 9742.000000 -1336.000000 C 9791.333333 -1386.000000 9832.000000 -1433.333333 9864.000000 -1478.000000 C 9864.000000 -1483.333333 9864.000000 -1488.666667 9864.000000 -1494.000000z M 8222.000000 -1185.000000 C 8437.000000 -1185.000000 8652.000000 -1185.000000 8867.000000 -1185.000000 C 8867.000000 -1165.666667 8867.000000 -1146.333333 8867.000000 -1127.000000 C 8652.000000 -1127.000000 8437.000000 -1127.000000 8222.000000 -1127.000000 C 8222.000000 -1146.333333 8222.000000 -1165.666667 8222.000000 -1185.000000z M 8545.000000 -1594.000000 C 8564.000000 -1591.333333 8583.000000 -1588.666667 8602.000000 -1586.000000 C 8582.666667 -1496.666667 8560.666667 -1399.000000 8536.000000 -1293.000000 C 8512.000000 -1187.666667 8487.000000 -1081.000000 8461.000000 -973.000000 C 8435.000000 -865.666667 8409.333333 -763.333333 8384.000000 -666.000000 C 8359.333333 -568.666667 8336.000000 -483.666667 8314.000000 -411.000000 C 8296.666667 -420.666667 8279.333333 -430.333333 8262.000000 -440.000000 C 8284.000000 -510.000000 8307.333333 -593.000000 8332.000000 -689.000000 C 8357.333333 -785.000000 8382.666667 -886.000000 8408.000000 -992.000000 C 8434.000000 -1098.666667 8458.666667 -1203.666667 8482.000000 -1307.000000 C 8506.000000 -1411.000000 8527.000000 -1506.666667 8545.000000 -1594.000000z M 8303.000000 -528.000000 C 8314.333333 -541.333333 8325.666667 -554.666667 8337.000000 -568.000000 C 8413.666667 -530.000000 8491.000000 -485.666667 8569.000000 -435.000000 C 8647.666667 -384.333333 8719.666667 -332.333333 8785.000000 -279.000000 C 8850.333333 -226.333333 8902.666667 -176.333333 8942.000000 -129.000000 C 8930.000000 -113.000000 8918.000000 -97.000000 8906.000000 -81.000000 C 8866.000000 -128.333333 8813.000000 -179.000000 8747.000000 -233.000000 C 8681.000000 -287.666667 8609.666667 -340.666667 8533.000000 -392.000000 C 8456.333333 -444.000000 8379.666667 -489.333333 8303.000000 -528.000000z M 8850.000000 -1185.000000 C 8853.333333 -1185.000000 8856.666667 -1185.000000 8860.000000 -1185.000000 C 8863.666667 -1186.000000 8867.333333 -1187.000000 8871.000000 -1188.000000 C 8883.333333 -1184.333333 8895.666667 -1180.666667 8908.000000 -1177.000000 C 8888.666667 -932.333333 8850.666667 -723.666667 8794.000000 -551.000000 C 8738.000000 -378.333333 8667.000000 -236.333333 8581.000000 -125.000000 C 8495.000000 -13.666667 8397.666667 73.333333 8289.000000 136.000000 C 8285.666667 130.000000 8280.000000 122.000000 8272.000000 112.000000 C 8264.000000 102.666667 8256.333333 94.666667 8249.000000 88.000000 C 8353.666667 32.000000 8447.666667 -49.666667 8531.000000 -157.000000 C 8614.333333 -265.000000 8683.333333 -402.333333 8738.000000 -569.000000 C 8793.333333 -736.333333 8830.666667 -935.666667 8850.000000 -1167.000000 C 8850.000000 -1173.000000 8850.000000 -1179.000000 8850.000000 -1185.000000z "/>
</g>
</svg>
