<?xml version="1.0" ?>
<svg xmlns="http://www.w3.org/2000/svg" version="1.1" width="600" height="600">
  <defs/>
  <g>
    <path stroke-width="0" fill="rgb(0, 0, 0)" opacity="1.0" d="M 173.0108642578125 242.51376342773438 C 209.3262939453125 242.51376342773438 245.6417236328125 242.51376342773438 281.9571533203125 242.51376342773438 C 281.9571533203125 246.36697387695312 281.9571533203125 250.22018432617188 281.9571533203125 254.07339477539062 C 245.6417236328125 254.07339477539062 209.3262939453125 254.07339477539062 173.0108642578125 254.07339477539062 C 173.0108642578125 250.22018432617188 173.0108642578125 246.36697387695312 173.0108642578125 242.51376342773438M 171.7728271484375 374.83026123046875 C 208.638427734375 374.83026123046875 245.5042724609375 374.83026123046875 282.369873046875 374.83026123046875 C 282.369873046875 378.6834716796875 282.369873046875 382.53668212890625 282.369873046875 386.389892578125 C 245.5042724609375 386.389892578125 208.638427734375 386.389892578125 171.7728271484375 386.389892578125 C 171.7728271484375 382.53668212890625 171.7728271484375 378.6834716796875 171.7728271484375 374.83026123046875M 171.7728271484375 307.12384033203125 C 208.638427734375 307.12384033203125 245.5042724609375 307.12384033203125 282.369873046875 307.12384033203125 C 282.369873046875 311.11468505859375 282.369873046875 315.10552978515625 282.369873046875 319.0963134765625 C 245.5042724609375 319.0963134765625 208.638427734375 319.0963134765625 171.7728271484375 319.0963134765625 C 171.7728271484375 315.10552978515625 171.7728271484375 311.11468505859375 171.7728271484375 307.12384033203125M 275.560791015625 242.51376342773438 C 279.412353515625 242.51376342773438 283.2640380859375 242.51376342773438 287.1156005859375 242.51376342773438 C 287.1156005859375 314.00457763671875 287.1156005859375 385.49542236328125 287.1156005859375 456.9862060546875 C 287.1156005859375 461.389892578125 286.359130859375 464.761474609375 284.845947265625 467.1009521484375 C 283.4703369140625 469.5780029296875 280.925537109375 471.366943359375 277.21142578125 472.4678955078125 C 273.497314453125 473.43115234375 267.7198486328125 474.0504150390625 259.8790283203125 474.32568359375 C 252.17578125 474.6009521484375 241.7213134765625 474.738525390625 228.5157470703125 474.738525390625 C 228.2406005859375 473.2247314453125 227.5528564453125 471.366943359375 226.452392578125 469.1651611328125 C 225.351806640625 467.1009521484375 224.3201904296875 465.2431640625 223.3572998046875 463.59173583984375 C 234.3619384765625 463.866943359375 243.9222412109375 464.00457763671875 252.0382080078125 464.00457763671875 C 260.291748046875 464.00457763671875 265.7940673828125 463.866943359375 268.5452880859375 463.59173583984375 C 271.1588134765625 463.4541015625 272.9471435546875 462.9036865234375 273.9100341796875 461.94036865234375 C 275.010498046875 460.97705078125 275.560791015625 459.32568359375 275.560791015625 456.9862060546875 C 275.560791015625 385.49542236328125 275.560791015625 314.00457763671875 275.560791015625 242.51376342773438M 167.439697265625 242.51376342773438 C 171.291259765625 242.51376342773438 175.14306640625 242.51376342773438 178.99462890625 242.51376342773438 C 178.99462890625 270.51837158203125 178.99462890625 298.52294921875 178.99462890625 326.52752685546875 C 178.99462890625 337.94952392578125 178.51318359375 350.197265625 177.55029296875 363.2706298828125 C 176.58740234375 376.34405517578125 174.799072265625 389.692626953125 172.1854248046875 403.3165283203125 C 169.5718994140625 416.94036865234375 165.8577880859375 430.28900146484375 161.043212890625 443.3624267578125 C 156.3663330078125 456.435791015625 150.03857421875 468.61468505859375 142.0601806640625 479.8990478515625 C 141.510009765625 478.79815673828125 140.6158447265625 477.76605224609375 139.3778076171875 476.802734375 C 138.2772216796875 475.97705078125 137.1768798828125 475.08258056640625 136.076416015625 474.1192626953125 C 135.113525390625 473.2935791015625 134.081787109375 472.60546875 132.9813232421875 472.0550537109375 C 143.2982177734375 457.7431640625 150.8638916015625 442.0550537109375 155.678466796875 424.9908447265625 C 160.630615234375 407.9266357421875 163.79443359375 390.93115234375 165.1700439453125 374.00457763671875 C 166.6832275390625 356.94036865234375 167.439697265625 341.11468505859375 167.439697265625 326.52752685546875 C 167.439697265625 298.52294921875 167.439697265625 270.51837158203125 167.439697265625 242.51376342773438M 346.95361328125 242.51376342773438 C 384.9886474609375 242.51376342773438 423.0234375 242.51376342773438 461.0584716796875 242.51376342773438 C 461.0584716796875 246.36697387695312 461.0584716796875 250.22018432617188 461.0584716796875 254.07339477539062 C 423.0234375 254.07339477539062 384.9886474609375 254.07339477539062 346.95361328125 254.07339477539062 C 346.95361328125 250.22018432617188 346.95361328125 246.36697387695312 346.95361328125 242.51376342773438M 345.715576171875 376.481689453125 C 384.30078125 376.481689453125 422.885986328125 376.481689453125 461.47119140625 376.481689453125 C 461.47119140625 380.3348388671875 461.47119140625 384.1881103515625 461.47119140625 388.041259765625 C 422.885986328125 388.041259765625 384.30078125 388.041259765625 345.715576171875 388.041259765625 C 345.715576171875 384.1881103515625 345.715576171875 380.3348388671875 345.715576171875 376.481689453125M 345.715576171875 307.12384033203125 C 384.30078125 307.12384033203125 422.885986328125 307.12384033203125 461.47119140625 307.12384033203125 C 461.47119140625 311.11468505859375 461.47119140625 315.10552978515625 461.47119140625 319.0963134765625 C 422.885986328125 319.0963134765625 384.30078125 319.0963134765625 345.715576171875 319.0963134765625 C 345.715576171875 315.10552978515625 345.715576171875 311.11468505859375 345.715576171875 307.12384033203125M 456.312744140625 242.51376342773438 C 460.0955810546875 242.51376342773438 463.87841796875 242.51376342773438 467.6612548828125 242.51376342773438 C 467.6612548828125 314.27978515625 467.6612548828125 386.0458984375 467.6612548828125 457.8118896484375 C 467.6612548828125 462.76605224609375 466.8359375 466.412841796875 465.1851806640625 468.7523193359375 C 463.6719970703125 471.2293701171875 461.0584716796875 473.087158203125 457.3443603515625 474.32568359375 C 453.4927978515625 475.4266357421875 447.509033203125 476.0458984375 439.3929443359375 476.1834716796875 C 431.2769775390625 476.32110595703125 419.9971923828125 476.389892578125 405.5535888671875 476.389892578125 C 405.00341796875 474.738525390625 404.3155517578125 472.8807373046875 403.490234375 470.8165283203125 C 402.664794921875 468.7523193359375 401.7706298828125 466.89453125 400.807861328125 465.2431640625 C 412.3626708984375 465.518310546875 422.4732666015625 465.656005859375 431.1395263671875 465.656005859375 C 439.9432373046875 465.656005859375 445.6519775390625 465.518310546875 448.2655029296875 465.2431640625 C 451.154296875 464.9678955078125 453.2176513671875 464.3486328125 454.4556884765625 463.38531494140625 C 455.6937255859375 462.55963134765625 456.312744140625 460.8394775390625 456.312744140625 458.2247314453125 C 456.312744140625 386.32110595703125 456.312744140625 314.41741943359375 456.312744140625 242.51376342773438M 339.7318115234375 242.51376342773438 C 343.5833740234375 242.51376342773438 347.4351806640625 242.51376342773438 351.2867431640625 242.51376342773438 C 351.2867431640625 274.85321044921875 351.2867431640625 307.192626953125 351.2867431640625 339.5321044921875 C 351.2867431640625 350.12841796875 350.8052978515625 361.55047607421875 349.8424072265625 373.79815673828125 C 348.8795166015625 385.90826416015625 347.0911865234375 398.156005859375 344.4775390625 410.541259765625 C 341.864013671875 422.9266357421875 337.943603515625 435.10546875 332.71630859375 447.0780029296875 C 327.626708984375 458.912841796875 321.02392578125 469.85321044921875 312.9078369140625 479.8990478515625 C 312.357666015625 478.79815673828125 311.4635009765625 477.76605224609375 310.2254638671875 476.802734375 C 308.9874267578125 475.97705078125 307.8182373046875 475.08258056640625 306.7177734375 474.1192626953125 C 305.7548828125 473.2935791015625 304.8607177734375 472.60546875 304.035400390625 472.0550537109375 C 314.62744140625 459.39453125 322.3994140625 445.3577880859375 327.3515625 429.9449462890625 C 332.441162109375 414.39453125 335.7425537109375 398.843994140625 337.2557373046875 383.2935791015625 C 338.906494140625 367.60546875 339.7318115234375 353.018310546875 339.7318115234375 339.5321044921875 C 339.7318115234375 307.192626953125 339.7318115234375 274.85321044921875 339.7318115234375 242.51376342773438M 166.6143798828125 136.412841796875 C 170.4659423828125 136.412841796875 174.317626953125 136.412841796875 178.1693115234375 136.412841796875 C 178.1693115234375 156.435791015625 178.1693115234375 176.45870971679688 178.1693115234375 196.48165893554688 C 270.7462158203125 196.48165893554688 363.3231201171875 196.48165893554688 455.9000244140625 196.48165893554688 C 455.9000244140625 176.45870971679688 455.9000244140625 156.435791015625 455.9000244140625 136.412841796875 C 459.682861328125 136.412841796875 463.4656982421875 136.412841796875 467.24853515625 136.412841796875 C 467.24853515625 160.28897094726562 467.24853515625 184.1651611328125 467.24853515625 208.04129028320312 C 367.0372314453125 208.04129028320312 266.82568359375 208.04129028320312 166.6143798828125 208.04129028320312 C 166.6143798828125 184.1651611328125 166.6143798828125 160.28897094726562 166.6143798828125 136.412841796875M 309.19384765625 121.55047607421875 C 313.1829833984375 121.55047607421875 317.172119140625 121.55047607421875 321.161376953125 121.55047607421875 C 321.161376953125 147.90365600585938 321.161376953125 174.25689697265625 321.161376953125 200.610107421875 C 317.172119140625 200.610107421875 313.1829833984375 200.610107421875 309.19384765625 200.610107421875 C 309.19384765625 174.25689697265625 309.19384765625 147.90365600585938 309.19384765625 121.55047607421875"/>
  </g>
</svg>
