<?xml version="1.0" ?>
<svg xmlns="http://www.w3.org/2000/svg" version="1.1" width="600" height="600">
  <defs/>
  <g>
    <path stroke-width="0" fill="rgb(0, 0, 0)" opacity="1.0" d="M 193.09857177734375 122.69122314453125 C 197.1072998046875 124.00460815429688 201.115966796875 125.31796264648438 205.12469482421875 126.63131713867188 C 200.28659057617188 136.447021484375 195.10293579101562 146.95391845703125 189.57369995117188 158.15206909179688 C 184.04446411132812 169.3502197265625 178.23876953125 180.2027587890625 172.15658569335938 190.70968627929688 C 166.212646484375 201.07833862304688 160.47607421875 210.41012573242188 154.94683837890625 218.705078125 C 151.6292724609375 217.39169311523438 148.31173706054688 216.07833862304688 144.99420166015625 214.76495361328125 C 150.5234375 206.47003173828125 156.260009765625 196.93087768554688 162.20394897460938 186.1474609375 C 168.2861328125 175.22579956054688 174.022705078125 164.1658935546875 179.4136962890625 152.96774291992188 C 184.80471801757812 141.63134765625 189.3663330078125 131.53915405273438 193.09857177734375 122.69122314453125M 119.49057006835938 210.41012573242188 C 133.03720092773438 209.85714721679688 148.58819580078125 209.23504638671875 166.1435546875 208.54376220703125 C 183.83709716796875 207.8525390625 202.8438720703125 207.0921630859375 223.163818359375 206.26266479492188 C 243.48379516601562 205.294921875 264.1493225097656 204.39630126953125 285.1604309082031 203.56683349609375 C 285.022216796875 207.43777465820312 284.88397216796875 211.30877685546875 284.7457275390625 215.17971801757812 C 264.8404846191406 216.1474609375 244.93521118164062 217.11520385742188 225.02993774414062 218.08294677734375 C 205.12469482421875 219.0506591796875 186.32525634765625 219.94931030273438 168.6317138671875 220.77880859375 C 151.07635498046875 221.47003173828125 135.2489013671875 222.23040771484375 121.14935302734375 223.05990600585938 C 120.596435546875 218.84332275390625 120.04348754882812 214.626708984375 119.49057006835938 210.41012573242188M 144.164794921875 261.2165832519531 C 186.117919921875 261.2165832519531 228.071044921875 261.2165832519531 270.0241394042969 261.2165832519531 C 270.0241394042969 265.0875549316406 270.0241394042969 268.95849609375 270.0241394042969 272.8294677734375 C 231.94149780273438 272.8294677734375 193.85885620117188 272.8294677734375 155.77621459960938 272.8294677734375 C 155.77621459960938 341.67742919921875 155.77621459960938 410.52532958984375 155.77621459960938 479.373291015625 C 151.90573120117188 479.373291015625 148.0352783203125 479.373291015625 144.164794921875 479.373291015625 C 144.164794921875 406.6544189453125 144.164794921875 333.93548583984375 144.164794921875 261.2165832519531M 265.66986083984375 261.2165832519531 C 269.47119140625 261.2165832519531 273.2725830078125 261.2165832519531 277.07391357421875 261.2165832519531 C 277.07391357421875 327.23040771484375 277.07391357421875 393.2442626953125 277.07391357421875 459.258056640625 C 277.07391357421875 464.2349853515625 276.31365966796875 468.036865234375 274.7930908203125 470.66357421875 C 273.4107971191406 473.290283203125 270.71527099609375 475.294921875 266.70660400390625 476.67742919921875 C 262.5596618652344 477.783447265625 256.2701416015625 478.405517578125 247.83807373046875 478.5438232421875 C 239.544189453125 478.6820068359375 228.90042114257812 478.75115966796875 215.90670776367188 478.75115966796875 C 215.6302490234375 477.0921630859375 215.00820922851562 475.0875244140625 214.04058837890625 472.7373046875 C 213.07296752929688 470.3870849609375 212.1053466796875 468.2442626953125 211.13772583007812 466.3087158203125 C 222.7491455078125 466.58526611328125 232.7708740234375 466.7235107421875 241.20297241210938 466.7235107421875 C 249.7733154296875 466.7235107421875 255.64813232421875 466.58526611328125 258.8274230957031 466.3087158203125 C 261.73028564453125 466.3087158203125 263.5964050292969 465.82489013671875 264.42578125 464.857177734375 C 265.25518798828125 464.02764892578125 265.66986083984375 462.23040771484375 265.66986083984375 459.4654541015625 C 265.66986083984375 393.3824462890625 265.66986083984375 327.299560546875 265.66986083984375 261.2165832519531M 150.59255981445312 320.110595703125 C 190.403076171875 320.110595703125 230.213623046875 320.110595703125 270.0241394042969 320.110595703125 C 270.0241394042969 323.9815673828125 270.0241394042969 327.8525390625 270.0241394042969 331.7235107421875 C 230.213623046875 331.7235107421875 190.403076171875 331.7235107421875 150.59255981445312 331.7235107421875 C 150.59255981445312 327.8525390625 150.59255981445312 323.9815673828125 150.59255981445312 320.110595703125M 150.59255981445312 381.078369140625 C 190.403076171875 381.078369140625 230.213623046875 381.078369140625 270.0241394042969 381.078369140625 C 270.0241394042969 385.0875244140625 270.0241394042969 389.0968017578125 270.0241394042969 393.10595703125 C 230.213623046875 393.10595703125 190.403076171875 393.10595703125 150.59255981445312 393.10595703125 C 150.59255981445312 389.0968017578125 150.59255981445312 385.0875244140625 150.59255981445312 381.078369140625M 321.0313720703125 121.03225708007812 C 324.832763671875 121.03225708007812 328.63409423828125 121.03225708007812 332.4354248046875 121.03225708007812 C 332.4354248046875 169.14285278320312 332.4354248046875 217.25344848632812 332.4354248046875 265.3640441894531 C 332.4354248046875 271.1705017089844 334.02508544921875 275.110595703125 337.20440673828125 277.184326171875 C 340.38372802734375 279.11981201171875 347.2952880859375 280.0875549316406 357.9390869140625 280.0875549316406 C 360.28900146484375 280.0875549316406 365.1961669921875 280.0875549316406 372.66064453125 280.0875549316406 C 380.1251220703125 280.0875549316406 388.41900634765625 280.0875549316406 397.542236328125 280.0875549316406 C 406.66552734375 280.0875549316406 415.304931640625 280.0875549316406 423.4605712890625 280.0875549316406 C 431.6162109375 280.0875549316406 437.421875 280.0875549316406 440.877685546875 280.0875549316406 C 446.9598388671875 280.0875549316406 451.521484375 278.84332275390625 454.5625 276.3548278808594 C 457.6036376953125 273.72808837890625 459.67706298828125 268.75115966796875 460.782958984375 261.4239501953125 C 462.0269775390625 254.09677124023438 462.925537109375 243.17510986328125 463.4783935546875 228.65899658203125 C 464.58428955078125 229.48846435546875 465.69012451171875 230.31796264648438 466.7960205078125 231.1474609375 C 468.0400390625 231.83871459960938 469.353271484375 232.39169311523438 470.735595703125 232.80645751953125 C 472.256103515625 233.22119140625 473.70751953125 233.705078125 475.08984375 234.258056640625 C 474.53692626953125 249.32720947265625 473.2928466796875 261.0783386230469 471.35760498046875 269.51153564453125 C 469.56060791015625 277.80645751953125 466.3121337890625 283.54376220703125 461.6123046875 286.7235107421875 C 457.0506591796875 289.9031982421875 450.208251953125 291.49310302734375 441.08502197265625 291.49310302734375 C 439.8409423828125 291.49310302734375 436.3851318359375 291.49310302734375 430.7176513671875 291.49310302734375 C 425.1884765625 291.49310302734375 418.6224365234375 291.49310302734375 411.019775390625 291.49310302734375 C 403.5552978515625 291.49310302734375 396.0908203125 291.49310302734375 388.6263427734375 291.49310302734375 C 381.161865234375 291.49310302734375 374.734130859375 291.49310302734375 369.3431396484375 291.49310302734375 C 363.9521484375 291.49310302734375 360.5654296875 291.49310302734375 359.18310546875 291.49310302734375 C 349.36871337890625 291.49310302734375 341.6278076171875 290.8709716796875 335.9603271484375 289.626708984375 C 330.43109130859375 288.2442321777344 326.56060791015625 285.61749267578125 324.34893798828125 281.74652099609375 C 322.13720703125 277.87554931640625 321.0313720703125 272.41473388671875 321.0313720703125 265.3640441894531 C 321.0313720703125 217.25344848632812 321.0313720703125 169.14285278320312 321.0313720703125 121.03225708007812M 445.6466064453125 156.07833862304688 C 448.825927734375 159.32717895507812 452.0052490234375 162.5760498046875 455.1845703125 165.82489013671875 C 444.26434326171875 170.52532958984375 431.82354736328125 175.43319702148438 417.8621826171875 180.54837036132812 C 403.90087890625 185.52532958984375 389.3865966796875 190.36404418945312 374.3194580078125 195.06451416015625 C 359.3905029296875 199.626708984375 344.80712890625 204.05068969726562 330.5693359375 208.33639526367188 C 330.2928466796875 206.95391845703125 329.73992919921875 205.43316650390625 328.9105224609375 203.774169921875 C 328.0811767578125 201.97695922851562 327.1826171875 200.45623779296875 326.21502685546875 199.21197509765625 C 339.89990234375 194.92626953125 354.1376953125 190.294921875 368.928466796875 185.31796264648438 C 383.857421875 180.2027587890625 398.02606201171875 175.15667724609375 411.4344482421875 170.17971801757812 C 424.8428955078125 165.06451416015625 436.2469482421875 160.36404418945312 445.6466064453125 156.07833862304688M 321.0313720703125 305.3870849609375 C 324.832763671875 305.3870849609375 328.63409423828125 305.3870849609375 332.4354248046875 305.3870849609375 C 332.4354248046875 353.35943603515625 332.4354248046875 401.331787109375 332.4354248046875 449.30413818359375 C 332.4354248046875 455.110595703125 334.09423828125 459.0506591796875 337.4117431640625 461.1243896484375 C 340.72930908203125 463.33642578125 348.1246337890625 464.4423828125 359.59783935546875 464.4423828125 C 362.2242431640625 464.4423828125 367.2696533203125 464.4423828125 374.734130859375 464.4423828125 C 382.3367919921875 464.4423828125 390.90716552734375 464.4423828125 400.445068359375 464.4423828125 C 410.1212158203125 464.4423828125 419.03717041015625 464.4423828125 427.19281005859375 464.4423828125 C 435.4866943359375 464.4423828125 441.49969482421875 464.4423828125 445.23193359375 464.4423828125 C 451.8670654296875 464.4423828125 456.8433837890625 463.0599365234375 460.160888671875 460.294921875 C 463.4783935546875 457.668212890625 465.69012451171875 452.2764892578125 466.7960205078125 444.11981201171875 C 468.0400390625 435.82489013671875 468.9385986328125 423.45159912109375 469.491455078125 407.0 C 471.2884521484375 408.10595703125 473.2237548828125 409.142822265625 475.29718017578125 410.110595703125 C 477.5089111328125 410.9400634765625 479.51324462890625 411.63134765625 481.31024169921875 412.184326171875 C 480.61907958984375 429.18896484375 479.305908203125 442.25341796875 477.37066650390625 451.37786865234375 C 475.57366943359375 460.5023193359375 472.18701171875 466.86175537109375 467.210693359375 470.45623779296875 C 462.37255859375 474.0506591796875 455.1845703125 475.847900390625 445.6466064453125 475.847900390625 C 443.98785400390625 475.847900390625 440.255615234375 475.847900390625 434.449951171875 475.847900390625 C 428.782470703125 475.847900390625 422.0782470703125 475.847900390625 414.3372802734375 475.847900390625 C 406.734619140625 475.847900390625 398.99365234375 475.847900390625 391.114501953125 475.847900390625 C 383.37353515625 475.847900390625 376.6002197265625 475.847900390625 370.7945556640625 475.847900390625 C 365.1270751953125 475.847900390625 361.6712646484375 475.847900390625 360.42724609375 475.847900390625 C 350.33636474609375 475.847900390625 342.3189697265625 475.15667724609375 336.375 473.774169921875 C 330.5693359375 472.52996826171875 326.56060791015625 469.97235107421875 324.34893798828125 466.10137939453125 C 322.13720703125 462.23040771484375 321.0313720703125 456.63134765625 321.0313720703125 449.30413818359375 C 321.0313720703125 401.331787109375 321.0313720703125 353.35943603515625 321.0313720703125 305.3870849609375M 451.8670654296875 332.13824462890625 C 454.7008056640625 335.3179931640625 457.5345458984375 338.4976806640625 460.3682861328125 341.67742919921875 C 450.27734375 348.036865234375 437.974853515625 354.0506591796875 423.4605712890625 359.7188720703125 C 408.9462890625 365.24884033203125 393.6717529296875 370.43316650390625 377.636962890625 375.2718505859375 C 361.6021728515625 379.97235107421875 346.189453125 384.3271484375 331.398681640625 388.33642578125 C 331.12225341796875 386.95391845703125 330.50018310546875 385.364013671875 329.5325927734375 383.56683349609375 C 328.56500244140625 381.63134765625 327.66650390625 380.04150390625 326.83709716796875 378.7972412109375 C 341.48956298828125 374.78802490234375 356.76409912109375 370.294921875 372.66064453125 365.3179931640625 C 388.5572509765625 360.2027587890625 403.4862060546875 354.88018798828125 417.447509765625 349.3502197265625 C 431.4088134765625 343.6820068359375 442.88201904296875 337.9447021484375 451.8670654296875 332.13824462890625M 238.50747680664062 154.626708984375 C 241.41033935546875 153.17510986328125 244.31317138671875 151.7235107421875 247.21600341796875 150.27188110351562 C 254.95697021484375 158.9815673828125 262.49053955078125 168.52072143554688 269.8167724609375 178.889404296875 C 277.1430358886719 189.258056640625 283.84722900390625 199.41934204101562 289.9294128417969 209.37326049804688 C 296.0115661621094 219.32717895507812 300.780517578125 228.10598754882812 304.236328125 235.70965576171875 C 301.3334655761719 237.5760498046875 298.43060302734375 239.4423828125 295.52777099609375 241.30874633789062 C 292.34844970703125 233.4285888671875 287.6485900878906 224.4423828125 281.4281921386719 214.3502197265625 C 275.3460388183594 204.258056640625 268.5727233886719 193.95852661132812 261.1082458496094 183.45159912109375 C 253.781982421875 172.9447021484375 246.2484130859375 163.33639526367188 238.50747680664062 154.626708984375"/>
  </g>
</svg>
