<?xml version="1.0" ?>
<svg xmlns="http://www.w3.org/2000/svg" version="1.1" width="600" height="600">
  <defs/>
  <g>
    <path stroke-width="0" fill="rgb(0, 0, 0)" opacity="1.0" d="M 126.39132690429688 283.4202880859375 C 135.81484985351562 283.4202880859375 145.23834228515625 283.4202880859375 154.661865234375 283.4202880859375 C 154.661865234375 283.8765869140625 154.661865234375 284.33294677734375 154.661865234375 284.789306640625 C 145.23834228515625 284.789306640625 135.81484985351562 284.789306640625 126.39132690429688 284.789306640625 C 126.39132690429688 284.33294677734375 126.39132690429688 283.8765869140625 126.39132690429688 283.4202880859375M 125.84765625 283.4202880859375 C 126.28890991210938 283.4202880859375 126.73013305664062 283.4202880859375 127.17138671875 283.4202880859375 C 127.17138671875 287.905029296875 127.17138671875 292.3897705078125 127.17138671875 296.87451171875 C 127.17138671875 298.68414306640625 127.1004638671875 300.64324951171875 126.95864868164062 302.7518310546875 C 126.83258056640625 304.8447265625 126.56466674804688 306.9769287109375 126.15496826171875 309.1485595703125 C 125.7452392578125 311.3043212890625 125.14642333984375 313.4129638671875 124.35848999023438 315.474365234375 C 123.57058715820312 317.52001953125 122.50689697265625 319.4320068359375 121.16741943359375 321.21014404296875 C 121.12014770507812 321.1314697265625 121.03347778320312 321.03704833984375 120.90740966796875 320.9268798828125 C 120.78134155273438 320.8167724609375 120.64739990234375 320.70654296875 120.50558471679688 320.596435546875 C 120.3795166015625 320.50201416015625 120.25344848632812 320.42333984375 120.12738037109375 320.3603515625 C 121.43533325195312 318.62939453125 122.46749877929688 316.78045654296875 123.22390747070312 314.8134765625 C 123.98031616210938 312.83074951171875 124.547607421875 310.80078125 124.92581176757812 308.7236328125 C 125.30401611328125 306.6307373046875 125.54824829101562 304.5850830078125 125.6585693359375 302.586669921875 C 125.78463745117188 300.57244873046875 125.84765625 298.66839599609375 125.84765625 296.87451171875 C 125.84765625 292.3897705078125 125.84765625 287.905029296875 125.84765625 283.4202880859375M 154.11819458007812 283.4202880859375 C 154.54367065429688 283.4202880859375 154.96914672851562 283.4202880859375 155.39462280273438 283.4202880859375 C 155.4261474609375 286.111083984375 155.4576416015625 288.872802734375 155.48916625976562 291.7052001953125 C 155.52069091796875 294.52197265625 155.57583618164062 297.29937744140625 155.65463256835938 300.03741455078125 C 155.74917602539062 302.759765625 155.875244140625 305.31683349609375 156.0328369140625 307.70867919921875 C 156.1904296875 310.1005859375 156.395263671875 312.20916748046875 156.64739990234375 314.0345458984375 C 156.8995361328125 315.85992431640625 157.2147216796875 317.2918701171875 157.5928955078125 318.3304443359375 C 157.97109985351562 319.384765625 158.43597412109375 319.91192626953125 158.98751831054688 319.91192626953125 C 159.31845092773438 319.91192626953125 159.56271362304688 319.17236328125 159.72027587890625 317.693115234375 C 159.89361572265625 316.1982421875 159.99606323242188 314.3807373046875 160.027587890625 312.2406005859375 C 160.18515014648438 312.3665771484375 160.374267578125 312.48455810546875 160.59487915039062 312.5947265625 C 160.81549072265625 312.6890869140625 161.00460815429688 312.767822265625 161.16217041015625 312.83074951171875 C 161.09915161132812 314.923583984375 161.00460815429688 316.575927734375 160.8785400390625 317.78759765625 C 160.76821899414062 318.9835205078125 160.547607421875 319.833251953125 160.2166748046875 320.3367919921875 C 159.90151977539062 320.8560791015625 159.44451904296875 321.1314697265625 158.845703125 321.1629638671875 C 157.93170166015625 321.1629638671875 157.19107055664062 320.533447265625 156.623779296875 319.27459716796875 C 156.07223510742188 318.031494140625 155.63885498046875 316.26116943359375 155.32369995117188 313.9637451171875 C 155.008544921875 311.666259765625 154.780029296875 308.95184326171875 154.63821411132812 305.82037353515625 C 154.51214599609375 302.6732177734375 154.40972900390625 299.20343017578125 154.3309326171875 295.4110107421875 C 154.25213623046875 291.61865234375 154.18121337890625 287.62176513671875 154.11819458007812 283.4202880859375M 139.604736328125 289.81689453125 C 140.06170654296875 289.81689453125 140.51870727539062 289.81689453125 140.9757080078125 289.81689453125 C 140.9757080078125 298.60546875 140.9757080078125 307.39398193359375 140.9757080078125 316.1824951171875 C 140.51870727539062 316.1824951171875 140.06170654296875 316.1824951171875 139.604736328125 316.1824951171875 C 139.604736328125 307.39398193359375 139.604736328125 298.60546875 139.604736328125 289.81689453125M 132.25344848632812 297.2049560546875 C 132.25344848632812 300.19482421875 132.25344848632812 303.1845703125 132.25344848632812 306.1744384765625 C 137.65069580078125 306.1744384765625 143.04794311523438 306.1744384765625 148.44515991210938 306.1744384765625 C 148.44515991210938 303.1845703125 148.44515991210938 300.19482421875 148.44515991210938 297.2049560546875 C 143.04794311523438 297.2049560546875 137.65069580078125 297.2049560546875 132.25344848632812 297.2049560546875M 130.88247680664062 295.88311767578125 C 137.17794799804688 295.88311767578125 143.47341918945312 295.88311767578125 149.76889038085938 295.88311767578125 C 149.76889038085938 299.7620849609375 149.76889038085938 303.6409912109375 149.76889038085938 307.5198974609375 C 143.47341918945312 307.5198974609375 137.17794799804688 307.5198974609375 130.88247680664062 307.5198974609375 C 130.88247680664062 303.6409912109375 130.88247680664062 299.7620849609375 130.88247680664062 295.88311767578125M 149.36703491210938 287.45654296875 C 149.80038452148438 287.7869873046875 150.2337646484375 288.117431640625 150.6671142578125 288.4478759765625 C 148.98095703125 288.9356689453125 146.97177124023438 289.368408203125 144.6395263671875 289.74609375 C 142.30728149414062 290.123779296875 139.86474609375 290.44635009765625 137.3118896484375 290.7138671875 C 134.759033203125 290.98138427734375 132.28497314453125 291.2095947265625 129.88967895507812 291.39837646484375 C 129.85818481445312 291.24102783203125 129.79513549804688 291.05218505859375 129.70059204101562 290.8319091796875 C 129.62179565429688 290.611572265625 129.51937866210938 290.4227294921875 129.393310546875 290.265380859375 C 131.14248657226562 290.1080322265625 132.95468139648438 289.94281005859375 134.8299560546875 289.76971435546875 C 136.7052001953125 289.58087158203125 138.54891967773438 289.368408203125 140.36114501953125 289.1324462890625 C 142.1890869140625 288.8963623046875 143.875244140625 288.63671875 145.4195556640625 288.353515625 C 146.96389770507812 288.05450439453125 148.27972412109375 287.7554931640625 149.36703491210938 287.45654296875M 127.38412475585938 316.229736328125 C 129.25936889648438 316.13525390625 131.4576416015625 316.01727294921875 133.97900390625 315.8756103515625 C 136.51608276367188 315.71826171875 139.23440551757812 315.545166015625 142.13394165039062 315.3563232421875 C 145.04925537109375 315.15179443359375 147.98818969726562 314.96295166015625 150.95074462890625 314.78985595703125 C 150.93499755859375 315.22259521484375 150.91925048828125 315.65533447265625 150.90347290039062 316.08807373046875 C 148.03546142578125 316.27691650390625 145.17532348632812 316.46575927734375 142.32305908203125 316.654541015625 C 139.48654174804688 316.82763671875 136.7918701171875 317.000732421875 134.239013671875 317.173828125 C 131.701904296875 317.3311767578125 129.46420288085938 317.47283935546875 127.52593994140625 317.5987548828125 C 127.47866821289062 317.14239501953125 127.431396484375 316.68603515625 127.38412475585938 316.229736328125M 145.96322631835938 310.069091796875 C 146.32568359375 309.90386962890625 146.6881103515625 309.7386474609375 147.05056762695312 309.5733642578125 C 148.01181030273438 310.5333251953125 148.93368530273438 311.60333251953125 149.816162109375 312.7835693359375 C 150.6986083984375 313.9637451171875 151.48654174804688 315.13604736328125 152.17990112304688 316.300537109375 C 152.873291015625 317.4649658203125 153.36965942382812 318.52716064453125 153.6690673828125 319.487060546875 C 153.27511596679688 319.6837158203125 152.88116455078125 319.88043212890625 152.4871826171875 320.0771484375 C 152.15628051757812 319.11724853515625 151.65200805664062 318.0550537109375 150.97439575195312 316.890625 C 150.29678344726562 315.7261962890625 149.52462768554688 314.54595947265625 148.65789794921875 313.35003662109375 C 147.79119873046875 312.154052734375 146.89297485351562 311.0604248046875 145.96322631835938 310.069091796875"/>
    <path stroke-width="0" fill="rgb(0, 0, 0)" opacity="1.0" d="M 173.95010375976562 285.591796875 C 184.374267578125 285.591796875 194.79843139648438 285.591796875 205.22259521484375 285.591796875 C 205.22259521484375 286.04815673828125 205.22259521484375 286.5045166015625 205.22259521484375 286.9608154296875 C 194.79843139648438 286.9608154296875 184.374267578125 286.9608154296875 173.95010375976562 286.9608154296875 C 173.95010375976562 286.5045166015625 173.95010375976562 286.04815673828125 173.95010375976562 285.591796875M 174.44647216796875 291.9412841796875 C 183.1923828125 291.9412841796875 191.93829345703125 291.9412841796875 200.68417358398438 291.9412841796875 C 200.68417358398438 292.38189697265625 200.68417358398438 292.822509765625 200.68417358398438 293.2630615234375 C 191.93829345703125 293.2630615234375 183.1923828125 293.2630615234375 174.44647216796875 293.2630615234375 C 174.44647216796875 292.822509765625 174.44647216796875 292.38189697265625 174.44647216796875 291.9412841796875M 169.41168212890625 298.2435302734375 C 178.91400146484375 298.2435302734375 188.41629028320312 298.2435302734375 197.9185791015625 298.2435302734375 C 197.9185791015625 298.68414306640625 197.9185791015625 299.124755859375 197.9185791015625 299.5653076171875 C 188.41629028320312 299.5653076171875 178.91400146484375 299.5653076171875 169.41168212890625 299.5653076171875 C 169.41168212890625 299.124755859375 169.41168212890625 298.68414306640625 169.41168212890625 298.2435302734375M 175.67562866210938 280.3753662109375 C 176.14837646484375 280.4854736328125 176.62115478515625 280.595703125 177.09390258789062 280.705810546875 C 175.97503662109375 284.08905029296875 174.54104614257812 287.2283935546875 172.7918701171875 290.123779296875 C 171.05844116210938 293.00341796875 169.13592529296875 295.45037841796875 167.0242919921875 297.464599609375 C 166.96124267578125 297.37017822265625 166.8509521484375 297.26788330078125 166.693359375 297.15771484375 C 166.55154418945312 297.0318603515625 166.39395141601562 296.913818359375 166.22061157226562 296.8037109375 C 166.04727172851562 296.67779541015625 165.90545654296875 296.5833740234375 165.79513549804688 296.52044677734375 C 167.93829345703125 294.5849609375 169.86080932617188 292.2166748046875 171.56271362304688 289.4156494140625 C 173.28036499023438 286.59893798828125 174.65133666992188 283.58544921875 175.67562866210938 280.3753662109375M 188.79449462890625 300.9107666015625 C 189.20419311523438 301.06024169921875 189.61392211914062 301.209716796875 190.02362060546875 301.3592529296875 C 188.33749389648438 304.2703857421875 186.31253051757812 306.96124267578125 183.94879150390625 309.4317626953125 C 181.58502197265625 311.8865966796875 179.0242919921875 314.09747314453125 176.26657104492188 316.064453125 C 173.52462768554688 318.0157470703125 170.64871215820312 319.73095703125 167.63885498046875 321.21014404296875 C 167.59158325195312 321.1314697265625 167.50491333007812 321.02130126953125 167.37884521484375 320.879638671875 C 167.2528076171875 320.738037109375 167.11883544921875 320.60430908203125 166.97702026367188 320.4783935546875 C 166.8509521484375 320.3682861328125 166.72488403320312 320.2659912109375 166.59881591796875 320.17156982421875 C 169.62442016601562 318.78680419921875 172.52395629882812 317.134521484375 175.29742431640625 315.2147216796875 C 178.0709228515625 313.294921875 180.60800170898438 311.1312255859375 182.90872192382812 308.7236328125 C 185.2252197265625 306.30029296875 187.1871337890625 303.696044921875 188.79449462890625 300.9107666015625M 197.18582153320312 298.2435302734375 C 197.62704467773438 298.2435302734375 198.06829833984375 298.2435302734375 198.509521484375 298.2435302734375 C 198.57257080078125 301.3907470703125 198.6671142578125 304.2861328125 198.79318237304688 306.92974853515625 C 198.93499755859375 309.5733642578125 199.1871337890625 311.86297607421875 199.549560546875 313.7984619140625 C 199.91201782226562 315.71826171875 200.42416381835938 317.21319580078125 201.08599853515625 318.283203125 C 201.76361083984375 319.3690185546875 202.63034057617188 319.91192626953125 203.6861572265625 319.91192626953125 C 204.2376708984375 319.91192626953125 204.60012817382812 319.282470703125 204.77346801757812 318.0235595703125 C 204.96258544921875 316.7647705078125 205.06500244140625 315.128173828125 205.08074951171875 313.114013671875 C 205.23834228515625 313.22412109375 205.44320678710938 313.33428955078125 205.69534301757812 313.4444580078125 C 205.96322631835938 313.5545654296875 206.1680908203125 313.64111328125 206.30990600585938 313.7041015625 C 206.24688720703125 315.608154296875 206.12869262695312 317.10302734375 205.95535278320312 318.1888427734375 C 205.79776000976562 319.27459716796875 205.53775024414062 320.0299072265625 205.17529296875 320.454833984375 C 204.8128662109375 320.8953857421875 204.28497314453125 321.1314697265625 203.59161376953125 321.1629638671875 C 202.23638916015625 321.1629638671875 201.14117431640625 320.6357421875 200.30596923828125 319.5814208984375 C 199.47076416015625 318.52716064453125 198.8404541015625 317.0086669921875 198.41497802734375 315.02587890625 C 197.989501953125 313.043212890625 197.69009399414062 310.6434326171875 197.51675415039062 307.82672119140625 C 197.35916137695312 304.9942626953125 197.24884033203125 301.7998046875 197.18582153320312 298.2435302734375M 171.56271362304688 304.00286865234375 C 171.87786865234375 303.7275390625 172.19305419921875 303.4521484375 172.50820922851562 303.1767578125 C 174.38345336914062 304.1995849609375 176.27444458007812 305.3482666015625 178.18121337890625 306.6229248046875 C 180.08798217773438 307.89752197265625 181.93170166015625 309.21148681640625 183.71240234375 310.56475830078125 C 185.49310302734375 311.90234375 187.13198852539062 313.2398681640625 188.6290283203125 314.577392578125 C 190.14181518554688 315.8992919921875 191.39462280273438 317.14239501953125 192.38739013671875 318.306884765625 C 192.04071044921875 318.62939453125 191.69403076171875 318.9520263671875 191.34735107421875 319.27459716796875 C 190.33880615234375 318.09442138671875 189.09390258789062 316.8433837890625 187.61260986328125 315.5216064453125 C 186.13131713867188 314.18402099609375 184.50033569335938 312.83074951171875 182.71963500976562 311.46173095703125 C 180.93893432617188 310.07696533203125 179.09521484375 308.74725341796875 177.18844604492188 307.47265625 C 175.28167724609375 306.18231201171875 173.40643310546875 305.0257568359375 171.56271362304688 304.00286865234375"/>
    <path stroke-width="0" fill="rgb(0, 0, 0)" opacity="1.0" d="M 223.91989135742188 294.8917236328125 C 226.81155395507812 294.8917236328125 229.70321655273438 294.8917236328125 232.59487915039062 294.8917236328125 C 232.59487915039062 295.3402099609375 232.59487915039062 295.7886962890625 232.59487915039062 296.2371826171875 C 229.70321655273438 296.2371826171875 226.81155395507812 296.2371826171875 223.91989135742188 296.2371826171875 C 223.91989135742188 295.7886962890625 223.91989135742188 295.3402099609375 223.91989135742188 294.8917236328125M 223.56533813476562 280.3753662109375 C 224.00656127929688 280.3753662109375 224.44781494140625 280.3753662109375 224.8890380859375 280.3753662109375 C 224.8890380859375 292.53924560546875 224.8890380859375 304.703125 224.8890380859375 316.86700439453125 C 224.44781494140625 316.96142578125 224.00656127929688 317.05584716796875 223.56533813476562 317.1502685546875 C 223.56533813476562 304.8919677734375 223.56533813476562 292.6336669921875 223.56533813476562 280.3753662109375M 215.2685546875 289.32122802734375 C 215.7176513671875 289.32122802734375 216.16677856445312 289.32122802734375 216.61590576171875 289.32122802734375 C 216.61590576171875 298.95947265625 216.61590576171875 308.5977783203125 216.61590576171875 318.236083984375 C 216.16677856445312 318.306884765625 215.7176513671875 318.377685546875 215.2685546875 318.448486328125 C 215.2685546875 308.7393798828125 215.2685546875 299.03033447265625 215.2685546875 289.32122802734375M 211.2738037109375 318.731689453125 C 213.02297973632812 318.4327392578125 215.06369018554688 318.07080078125 217.39593505859375 317.64593505859375 C 219.7281494140625 317.2210693359375 222.21798706054688 316.7647705078125 224.86538696289062 316.27691650390625 C 227.5128173828125 315.7890625 230.183837890625 315.29345703125 232.8785400390625 314.78985595703125 C 232.90216064453125 315.269775390625 232.92581176757812 315.749755859375 232.94943237304688 316.229736328125 C 230.38082885742188 316.68603515625 227.79644775390625 317.15814208984375 225.19631958007812 317.64593505859375 C 222.59619140625 318.1180419921875 220.1300048828125 318.5743408203125 217.79776000976562 319.01495361328125 C 215.46551513671875 319.45556640625 213.393310546875 319.8568115234375 211.58108520507812 320.21875 C 211.47866821289062 319.72308349609375 211.376220703125 319.2274169921875 211.2738037109375 318.731689453125M 249.1175537109375 290.35980224609375 C 249.54302978515625 290.6903076171875 249.968505859375 291.020751953125 250.39395141601562 291.3511962890625 C 249.21209716796875 292.31103515625 247.8489990234375 293.2867431640625 246.30465698242188 294.278076171875 C 244.76034545898438 295.253662109375 243.12933349609375 296.213623046875 241.41168212890625 297.15771484375 C 239.70977783203125 298.086181640625 238.02362060546875 298.9752197265625 236.35324096679688 299.824951171875 C 236.30596923828125 299.6676025390625 236.21929931640625 299.4945068359375 236.09323120117188 299.3056640625 C 235.9671630859375 299.11688232421875 235.84112548828125 298.94378662109375 235.71502685546875 298.786376953125 C 237.35391235351562 297.9681396484375 239.008544921875 297.0791015625 240.67892456054688 296.119140625 C 242.36508178710938 295.1435546875 243.94879150390625 294.16790771484375 245.4300537109375 293.1922607421875 C 246.911376953125 292.200927734375 248.1405029296875 291.25677490234375 249.1175537109375 290.35980224609375M 235.50228881835938 280.3753662109375 C 235.99868774414062 280.3753662109375 236.49508666992188 280.3753662109375 236.991455078125 280.3753662109375 C 236.991455078125 291.94915771484375 236.991455078125 303.52294921875 236.991455078125 315.0966796875 C 236.991455078125 316.2139892578125 237.15692138671875 316.96142578125 237.48785400390625 317.339111328125 C 237.81878662109375 317.716796875 238.5909423828125 317.90557861328125 239.8043212890625 317.90557861328125 C 240.08798217773438 317.90557861328125 240.60012817382812 317.90557861328125 241.34075927734375 317.90557861328125 C 242.0814208984375 317.90557861328125 242.90084838867188 317.90557861328125 243.799072265625 317.90557861328125 C 244.71307373046875 317.90557861328125 245.5718994140625 317.90557861328125 246.37557983398438 317.90557861328125 C 247.17926025390625 317.90557861328125 247.7623291015625 317.90557861328125 248.124755859375 317.90557861328125 C 248.91265869140625 317.90557861328125 249.4957275390625 317.6695556640625 249.87393188476562 317.197509765625 C 250.25213623046875 316.70965576171875 250.51214599609375 315.8363037109375 250.65399169921875 314.577392578125 C 250.81155395507812 313.31854248046875 250.921875 311.53253173828125 250.98489379882812 309.2193603515625 C 251.22125244140625 309.3924560546875 251.4576416015625 309.5340576171875 251.69403076171875 309.64422607421875 C 251.9461669921875 309.7386474609375 252.17465209960938 309.81732177734375 252.3795166015625 309.8802490234375 C 252.28497314453125 312.2406005859375 252.12738037109375 314.1053466796875 251.90676879882812 315.474365234375 C 251.701904296875 316.82763671875 251.31582641601562 317.7796630859375 250.74853515625 318.3304443359375 C 250.18121337890625 318.89697265625 249.306640625 319.18017578125 248.124755859375 319.18017578125 C 247.90411376953125 319.18017578125 247.39987182617188 319.18017578125 246.6119384765625 319.18017578125 C 245.82403564453125 319.18017578125 244.94155883789062 319.18017578125 243.96453857421875 319.18017578125 C 242.98751831054688 319.18017578125 242.10504150390625 319.18017578125 241.317138671875 319.18017578125 C 240.52920532226562 319.18017578125 240.04071044921875 319.18017578125 239.85162353515625 319.18017578125 C 238.73275756835938 319.18017578125 237.858154296875 319.070068359375 237.22784423828125 318.8497314453125 C 236.59750366210938 318.6451416015625 236.14837646484375 318.243896484375 235.8804931640625 317.64593505859375 C 235.62835693359375 317.0322265625 235.50228881835938 316.1510009765625 235.50228881835938 315.0023193359375 C 235.50228881835938 303.4599609375 235.50228881835938 291.91766357421875 235.50228881835938 280.3753662109375"/>
    <path stroke-width="0" fill="rgb(0, 0, 0)" opacity="1.0" d="M 279.2081298828125 280.328125 C 279.64935302734375 280.422607421875 280.0906066894531 280.5169677734375 280.5318603515625 280.61138916015625 C 279.94879150390625 283.06622314453125 279.223876953125 285.418701171875 278.357177734375 287.6689453125 C 277.5062255859375 289.919189453125 276.52923583984375 292.00421142578125 275.4261474609375 293.92401123046875 C 274.33880615234375 295.82806396484375 273.13330078125 297.52752685546875 271.8095703125 299.0224609375 C 271.7465515136719 298.92803955078125 271.64410400390625 298.82574462890625 271.5023193359375 298.715576171875 C 271.376220703125 298.60546875 271.2344055175781 298.503173828125 271.07684326171875 298.40875244140625 C 270.93499755859375 298.298583984375 270.8010559082031 298.2120361328125 270.67498779296875 298.14910888671875 C 271.9986877441406 296.73291015625 273.1963195800781 295.0963134765625 274.26788330078125 293.239501953125 C 275.355224609375 291.3826904296875 276.30859375 289.360595703125 277.1280517578125 287.17327880859375 C 277.9632568359375 284.97021484375 278.6566162109375 282.68853759765625 279.2081298828125 280.328125M 295.28167724609375 288.4951171875 C 295.73077392578125 288.4951171875 296.1799011230469 288.4951171875 296.6290283203125 288.4951171875 C 296.6290283203125 288.4951171875 296.6290283203125 288.56591796875 296.6290283203125 288.70751953125 C 296.6290283203125 288.83343505859375 296.6290283203125 288.98291015625 296.6290283203125 289.156005859375 C 296.6290283203125 289.3133544921875 296.61328125 289.43927001953125 296.58172607421875 289.53369140625 C 296.2823486328125 294.78948974609375 295.98291015625 299.2113037109375 295.68353271484375 302.799072265625 C 295.38409423828125 306.37109375 295.0610656738281 309.2901611328125 294.7143859863281 311.55615234375 C 294.3834533691406 313.8221435546875 294.02099609375 315.57666015625 293.6270446777344 316.81982421875 C 293.23309326171875 318.06298828125 292.79974365234375 318.9520263671875 292.32696533203125 319.487060546875 C 291.93304443359375 319.974853515625 291.5233154296875 320.28955078125 291.09783935546875 320.43121337890625 C 290.67236328125 320.58856201171875 290.14447021484375 320.6829833984375 289.51409912109375 320.7144775390625 C 288.9310607910156 320.74591064453125 288.1667785644531 320.74591064453125 287.22125244140625 320.7144775390625 C 286.29150390625 320.6829833984375 285.33026123046875 320.6279296875 284.3374938964844 320.5491943359375 C 284.30596923828125 320.2974853515625 284.2666015625 320.045654296875 284.21929931640625 319.79388427734375 C 284.1720275878906 319.5421142578125 284.0774841308594 319.32177734375 283.9356689453125 319.13299560546875 C 285.13330078125 319.2274169921875 286.2206115722656 319.29034423828125 287.1976318359375 319.32177734375 C 288.1904296875 319.353271484375 288.8995361328125 319.3690185546875 289.32501220703125 319.3690185546875 C 289.75048828125 319.3690185546875 290.09716796875 319.3297119140625 290.36505126953125 319.2509765625 C 290.6329650878906 319.17236328125 290.8929748535156 318.999267578125 291.1451110839844 318.731689453125 C 291.5705871582031 318.275390625 291.972412109375 317.4256591796875 292.3506164550781 316.1824951171875 C 292.72882080078125 314.923583984375 293.0833740234375 313.1375732421875 293.414306640625 310.82440185546875 C 293.7452392578125 308.51123046875 294.0604248046875 305.568603515625 294.35980224609375 301.99658203125 C 294.65924072265625 298.40875244140625 294.96649169921875 294.0419921875 295.28167724609375 288.8963623046875 C 295.28167724609375 288.76263427734375 295.28167724609375 288.62890625 295.28167724609375 288.4951171875M 277.1989440917969 288.4951171875 C 283.3604736328125 288.4951171875 289.5220031738281 288.4951171875 295.68353271484375 288.4951171875 C 295.68353271484375 288.951416015625 295.68353271484375 289.40777587890625 295.68353271484375 289.8641357421875 C 289.3880615234375 289.8641357421875 283.09259033203125 289.8641357421875 276.797119140625 289.8641357421875 C 276.9310302734375 289.40777587890625 277.06500244140625 288.951416015625 277.1989440917969 288.4951171875M 283.25018310546875 288.84912109375 C 283.6598815917969 289.0616455078125 284.069580078125 289.2740478515625 284.47930908203125 289.4864501953125 C 283.77020263671875 292.240234375 282.8089294433594 295.01763916015625 281.59552001953125 297.81866455078125 C 280.39788818359375 300.6038818359375 279.01116943359375 303.1767578125 277.435302734375 305.537109375 C 275.8594970703125 307.89752197265625 274.16546630859375 309.81732177734375 272.353271484375 311.2965087890625 C 272.1956787109375 311.13916015625 272.006591796875 310.9818115234375 271.78594970703125 310.82440185546875 C 271.58111572265625 310.65130615234375 271.376220703125 310.5018310546875 271.17138671875 310.3759765625 C 272.49505615234375 309.3216552734375 273.7793884277344 308.0076904296875 275.0242919921875 306.43408203125 C 276.2691955566406 304.8447265625 277.41168212890625 303.08233642578125 278.45172119140625 301.14678955078125 C 279.4917907714844 299.2113037109375 280.4215393066406 297.19708251953125 281.240966796875 295.10418701171875 C 282.0604248046875 292.99560546875 282.7301330566406 290.91058349609375 283.25018310546875 288.84912109375M 289.8686828613281 288.84912109375 C 290.2941589355469 289.0458984375 290.7196350097656 289.2425537109375 291.1451110839844 289.43927001953125 C 290.56207275390625 292.58642578125 289.7820129394531 295.7021484375 288.80499267578125 298.786376953125 C 287.84375 301.87066650390625 286.7091369628906 304.79754638671875 285.40118408203125 307.56707763671875 C 284.1090087890625 310.32086181640625 282.6434631347656 312.8228759765625 281.00457763671875 315.0731201171875 C 279.3814697265625 317.3233642578125 277.58502197265625 319.20379638671875 275.615234375 320.7144775390625 C 275.473388671875 320.57281494140625 275.27642822265625 320.4075927734375 275.0242919921875 320.21875 C 274.78790283203125 320.045654296875 274.54364013671875 319.89617919921875 274.2915344238281 319.770263671875 C 276.2613525390625 318.35406494140625 278.07354736328125 316.54443359375 279.7281494140625 314.3414306640625 C 281.3985595703125 312.12261962890625 282.8876953125 309.64422607421875 284.1956787109375 306.9061279296875 C 285.50360107421875 304.15234375 286.6303405761719 301.23333740234375 287.5758361816406 298.14910888671875 C 288.537109375 295.0648193359375 289.3013916015625 291.96484375 289.8686828613281 288.84912109375M 256.13787841796875 305.9383544921875 C 257.5404052734375 305.5450439453125 259.1319580078125 305.080810546875 260.91265869140625 304.5457763671875 C 262.693359375 303.9949951171875 264.5922546386719 303.39703369140625 266.60931396484375 302.7518310546875 C 268.62640380859375 302.106689453125 270.6434631347656 301.4615478515625 272.6605224609375 300.81634521484375 C 272.72357177734375 301.209716796875 272.78662109375 301.6031494140625 272.8496398925781 301.99658203125 C 269.98162841796875 302.940673828125 267.11358642578125 303.8848876953125 264.2455749511719 304.8289794921875 C 261.393310546875 305.7574462890625 258.86407470703125 306.5836181640625 256.65789794921875 307.30743408203125 C 256.48455810546875 306.85107421875 256.31121826171875 306.394775390625 256.13787841796875 305.9383544921875M 264.9547119140625 280.422607421875 C 265.41168212890625 280.422607421875 265.8686828613281 280.422607421875 266.32568359375 280.422607421875 C 266.32568359375 294.002685546875 266.32568359375 307.582763671875 266.32568359375 321.1629638671875 C 265.8686828613281 321.1629638671875 265.41168212890625 321.1629638671875 264.9547119140625 321.1629638671875 C 264.9547119140625 307.582763671875 264.9547119140625 294.002685546875 264.9547119140625 280.422607421875M 259.68353271484375 283.01898193359375 C 260.1405029296875 283.0740966796875 260.5975036621094 283.129150390625 261.05450439453125 283.1842041015625 C 260.8023681640625 285.21417236328125 260.4950866699219 287.20477294921875 260.13262939453125 289.156005859375 C 259.77020263671875 291.1072998046875 259.3604736328125 292.9405517578125 258.9034729003906 294.65576171875 C 258.4622497558594 296.355224609375 257.934326171875 297.881591796875 257.31976318359375 299.23486328125 C 257.240966796875 299.17193603515625 257.11492919921875 299.1090087890625 256.9415588378906 299.0460205078125 C 256.78399658203125 298.9674072265625 256.6185302734375 298.888671875 256.4451904296875 298.81005859375 C 256.2718505859375 298.7313232421875 256.1300048828125 298.67626953125 256.01971435546875 298.644775390625 C 256.6815490722656 297.29150390625 257.240966796875 295.77294921875 257.6979675292969 294.0892333984375 C 258.15496826171875 292.3897705078125 258.5489196777344 290.5958251953125 258.87982177734375 288.70751953125 C 259.21075439453125 286.8192138671875 259.4786682128906 284.92303466796875 259.68353271484375 283.01898193359375M 259.0452880859375 290.1710205078125 C 263.33160400390625 290.1710205078125 267.61785888671875 290.1710205078125 271.90411376953125 290.1710205078125 C 271.90411376953125 290.6273193359375 271.90411376953125 291.08367919921875 271.90411376953125 291.5400390625 C 267.59423828125 291.5400390625 263.2843017578125 291.5400390625 258.9743957519531 291.5400390625 C 258.998046875 291.08367919921875 259.02166748046875 290.6273193359375 259.0452880859375 290.1710205078125"/>
    <path stroke-width="0" fill="rgb(0, 0, 0)" opacity="1.0" d="M 314.4281005859375 285.28497314453125 C 323.91461181640625 285.28497314453125 333.40118408203125 285.28497314453125 342.8876953125 285.28497314453125 C 342.8876953125 285.71771240234375 342.8876953125 286.15045166015625 342.8876953125 286.58319091796875 C 333.40118408203125 286.58319091796875 323.91461181640625 286.58319091796875 314.4281005859375 286.58319091796875 C 314.4281005859375 286.15045166015625 314.4281005859375 285.71771240234375 314.4281005859375 285.28497314453125M 337.6165771484375 285.7806396484375 C 338.05780029296875 285.7806396484375 338.4990234375 285.7806396484375 338.94024658203125 285.7806396484375 C 338.94024658203125 296.59912109375 338.94024658203125 307.4176025390625 338.94024658203125 318.236083984375 C 338.94024658203125 319.070068359375 338.79052734375 319.66796875 338.49114990234375 320.0299072265625 C 338.20751953125 320.391845703125 337.718994140625 320.6514892578125 337.025634765625 320.808837890625 C 336.36376953125 320.93475341796875 335.2843017578125 321.00555419921875 333.7872314453125 321.02130126953125 C 332.29022216796875 321.03704833984375 330.3756103515625 321.044921875 328.0433349609375 321.044921875 C 328.0118408203125 320.8245849609375 327.94091796875 320.5806884765625 327.8305969238281 320.31317138671875 C 327.72027587890625 320.045654296875 327.59423828125 319.7860107421875 327.452392578125 319.53424072265625 C 328.87066650390625 319.56573486328125 330.18646240234375 319.58935546875 331.39990234375 319.6051025390625 C 332.61328125 319.62078857421875 333.64544677734375 319.62078857421875 334.49639892578125 319.6051025390625 C 335.36309814453125 319.58935546875 335.9776611328125 319.56573486328125 336.340087890625 319.53424072265625 C 336.860107421875 319.5028076171875 337.198974609375 319.4005126953125 337.3565673828125 319.2274169921875 C 337.52984619140625 319.070068359375 337.6165771484375 318.75531005859375 337.6165771484375 318.283203125 C 337.6165771484375 307.44903564453125 337.6165771484375 296.6148681640625 337.6165771484375 285.7806396484375M 316.55548095703125 294.490478515625 C 316.9967041015625 294.490478515625 317.43792724609375 294.490478515625 317.8791809082031 294.490478515625 C 317.8791809082031 300.55670166015625 317.8791809082031 306.6229248046875 317.8791809082031 312.6890869140625 C 317.43792724609375 312.6890869140625 316.9967041015625 312.6890869140625 316.55548095703125 312.6890869140625 C 316.55548095703125 306.6229248046875 316.55548095703125 300.55670166015625 316.55548095703125 294.490478515625M 317.28826904296875 294.490478515625 C 321.48785400390625 294.490478515625 325.68743896484375 294.490478515625 329.8870849609375 294.490478515625 C 329.8870849609375 299.439453125 329.8870849609375 304.388427734375 329.8870849609375 309.33740234375 C 325.68743896484375 309.33740234375 321.48785400390625 309.33740234375 317.28826904296875 309.33740234375 C 317.28826904296875 308.888916015625 317.28826904296875 308.4404296875 317.28826904296875 307.991943359375 C 321.03875732421875 307.991943359375 324.78924560546875 307.991943359375 328.53973388671875 307.991943359375 C 328.53973388671875 303.93994140625 328.53973388671875 299.887939453125 328.53973388671875 295.8359375 C 324.78924560546875 295.8359375 321.03875732421875 295.8359375 317.28826904296875 295.8359375 C 317.28826904296875 295.387451171875 317.28826904296875 294.93896484375 317.28826904296875 294.490478515625M 312.4661865234375 280.5169677734375 C 312.90740966796875 280.62713623046875 313.3486328125 280.7373046875 313.7898864746094 280.847412109375 C 312.90740966796875 283.3494873046875 311.8909912109375 285.78851318359375 310.74066162109375 288.1646728515625 C 309.59027099609375 290.5250244140625 308.3374938964844 292.759521484375 306.9822692871094 294.8681640625 C 305.642822265625 296.9610595703125 304.2481994628906 298.85723876953125 302.7984313964844 300.55670166015625 C 302.73541259765625 300.4622802734375 302.6408386230469 300.3521728515625 302.5147705078125 300.22625732421875 C 302.40447998046875 300.0845947265625 302.2862854003906 299.9429931640625 302.16021728515625 299.8013916015625 C 302.0499267578125 299.64404296875 301.93170166015625 299.53387451171875 301.8056640625 299.470947265625 C 303.25543212890625 297.8973388671875 304.63427734375 296.1033935546875 305.94219970703125 294.0892333984375 C 307.26593017578125 292.059326171875 308.47930908203125 289.8876953125 309.5823974609375 287.5745849609375 C 310.68548583984375 285.2613525390625 311.646728515625 282.9088134765625 312.4661865234375 280.5169677734375M 308.0223388671875 291.445556640625 C 308.44781494140625 291.020751953125 308.873291015625 290.5958251953125 309.29876708984375 290.1710205078125 C 309.33026123046875 290.18670654296875 309.3617858886719 290.20245361328125 309.393310546875 290.21820068359375 C 309.393310546875 300.5330810546875 309.393310546875 310.8480224609375 309.393310546875 321.1629638671875 C 308.9363098144531 321.1629638671875 308.47930908203125 321.1629638671875 308.0223388671875 321.1629638671875 C 308.0223388671875 311.25714111328125 308.0223388671875 301.35137939453125 308.0223388671875 291.445556640625"/>
    <path stroke-width="0" fill="rgb(0, 0, 0)" opacity="1.0" d="M 349.17529296875 290.50146484375 C 361.56927490234375 290.50146484375 373.9632568359375 290.50146484375 386.357177734375 290.50146484375 C 386.357177734375 293.4283447265625 386.357177734375 296.355224609375 386.357177734375 299.2821044921875 C 385.90020751953125 299.2821044921875 385.4432373046875 299.2821044921875 384.9862060546875 299.2821044921875 C 384.9862060546875 296.8037109375 384.9862060546875 294.3253173828125 384.9862060546875 291.84686279296875 C 373.5062255859375 291.84686279296875 362.0262451171875 291.84686279296875 350.5462646484375 291.84686279296875 C 350.5462646484375 294.3253173828125 350.5462646484375 296.8037109375 350.5462646484375 299.2821044921875 C 350.08929443359375 299.2821044921875 349.63232421875 299.2821044921875 349.17529296875 299.2821044921875 C 349.17529296875 296.355224609375 349.17529296875 293.4283447265625 349.17529296875 290.50146484375M 351.2318115234375 301.1939697265625 C 361.51409912109375 301.1939697265625 371.79644775390625 301.1939697265625 382.07879638671875 301.1939697265625 C 382.07879638671875 301.6424560546875 382.07879638671875 302.0909423828125 382.07879638671875 302.5394287109375 C 371.79644775390625 302.5394287109375 361.51409912109375 302.5394287109375 351.2318115234375 302.5394287109375 C 351.2318115234375 302.0909423828125 351.2318115234375 301.6424560546875 351.2318115234375 301.1939697265625M 381.7242431640625 301.1939697265625 C 382.16546630859375 301.1939697265625 382.606689453125 301.1939697265625 383.0479736328125 301.1939697265625 C 383.0479736328125 301.1939697265625 383.0479736328125 301.24908447265625 383.0479736328125 301.3592529296875 C 383.0479736328125 301.45361328125 383.0479736328125 301.57952880859375 383.0479736328125 301.7369384765625 C 383.0479736328125 301.8785400390625 383.0479736328125 301.99658203125 383.0479736328125 302.0909423828125 C 382.82733154296875 306.2294921875 382.59881591796875 309.5498046875 382.3624267578125 312.05181884765625 C 382.1260986328125 314.5380859375 381.8424072265625 316.4263916015625 381.511474609375 317.716796875 C 381.1962890625 318.9913330078125 380.8023681640625 319.87255859375 380.32958984375 320.3603515625 C 380.01446533203125 320.7222900390625 379.63623046875 320.9583740234375 379.19500732421875 321.0684814453125 C 378.76953125 321.19439697265625 378.2100830078125 321.2730712890625 377.5167236328125 321.3045654296875 C 376.776123046875 321.3360595703125 375.6966552734375 321.328125 374.2784423828125 321.28094482421875 C 372.860107421875 321.2337646484375 371.34735107421875 321.155029296875 369.739990234375 321.044921875 C 369.70849609375 320.8245849609375 369.6533203125 320.596435546875 369.57452392578125 320.3603515625 C 369.511474609375 320.14007568359375 369.40118408203125 319.9276123046875 369.24359130859375 319.72308349609375 C 371.0242919921875 319.88043212890625 372.6710205078125 319.974853515625 374.183837890625 320.00634765625 C 375.6966552734375 320.05352783203125 376.697265625 320.0771484375 377.185791015625 320.0771484375 C 377.705810546875 320.0771484375 378.1234130859375 320.045654296875 378.4385986328125 319.98272705078125 C 378.7537841796875 319.935546875 379.02166748046875 319.8017578125 379.2423095703125 319.5814208984375 C 379.6204833984375 319.18804931640625 379.95928955078125 318.377685546875 380.2586669921875 317.1502685546875 C 380.5738525390625 315.9071044921875 380.841796875 314.0345458984375 381.0623779296875 311.53253173828125 C 381.29876708984375 309.0147705078125 381.51934814453125 305.6708984375 381.7242431640625 301.5008544921875 C 381.7242431640625 301.3985595703125 381.7242431640625 301.2962646484375 381.7242431640625 301.1939697265625M 365.3433837890625 293.85321044921875 C 365.8004150390625 293.85321044921875 366.25738525390625 293.85321044921875 366.71435546875 293.85321044921875 C 366.5567626953125 296.7171630859375 366.3204345703125 299.37652587890625 366.0052490234375 301.831298828125 C 365.6900634765625 304.2703857421875 365.1700439453125 306.5048828125 364.4451904296875 308.5347900390625 C 363.72027587890625 310.549072265625 362.703857421875 312.3665771484375 361.39593505859375 313.9873046875 C 360.0880126953125 315.608154296875 358.3861083984375 317.0164794921875 356.29022216796875 318.21240234375 C 354.2100830078125 319.424072265625 351.63360595703125 320.42333984375 348.56072998046875 321.21014404296875 C 348.4976806640625 321.0999755859375 348.4110107421875 320.97412109375 348.30072021484375 320.83245849609375 C 348.1904296875 320.69085693359375 348.080078125 320.5491943359375 347.96978759765625 320.4075927734375 C 347.875244140625 320.28173828125 347.78070068359375 320.17156982421875 347.6861572265625 320.0771484375 C 350.71173095703125 319.32177734375 353.240966796875 318.377685546875 355.2738037109375 317.24468994140625 C 357.3223876953125 316.1116943359375 358.98486328125 314.774169921875 360.2613525390625 313.23199462890625 C 361.5377197265625 311.6741943359375 362.5147705078125 309.9195556640625 363.1923828125 307.96832275390625 C 363.8699951171875 306.01708984375 364.36639404296875 303.86126708984375 364.6815185546875 301.5008544921875 C 364.9967041015625 299.1405029296875 365.21734619140625 296.59124755859375 365.3433837890625 293.85321044921875M 382.59881591796875 280.918212890625 C 383.0006103515625 281.14642333984375 383.4024658203125 281.3746337890625 383.8043212890625 281.602783203125 C 382.8746337890625 283.1134033203125 381.802978515625 284.7105712890625 380.589599609375 286.39434814453125 C 379.376220703125 288.0623779296875 378.24163818359375 289.502197265625 377.185791015625 290.7138671875 C 376.8548583984375 290.4857177734375 376.52392578125 290.257568359375 376.19305419921875 290.02935791015625 C 376.88641357421875 289.226806640625 377.6348876953125 288.29052734375 378.4385986328125 287.220458984375 C 379.2423095703125 286.13470458984375 380.006591796875 285.04107666015625 380.7314453125 283.9395751953125 C 381.456298828125 282.8380126953125 382.07879638671875 281.8309326171875 382.59881591796875 280.918212890625M 351.8699951171875 281.98046875 C 352.2481689453125 281.78369140625 352.62640380859375 281.5870361328125 353.00457763671875 281.39031982421875 C 353.69793701171875 282.1456298828125 354.3756103515625 282.97967529296875 355.03741455078125 283.892333984375 C 355.69927978515625 284.789306640625 356.30596923828125 285.6783447265625 356.8575439453125 286.5595703125 C 357.4248046875 287.425048828125 357.8660888671875 288.188232421875 358.18121337890625 288.84912109375 C 357.80303955078125 289.09307861328125 357.4248046875 289.33697509765625 357.046630859375 289.58087158203125 C 356.7156982421875 288.88848876953125 356.2744140625 288.109619140625 355.722900390625 287.244140625 C 355.17138671875 286.3629150390625 354.564697265625 285.45806884765625 353.90283203125 284.5296630859375 C 353.240966796875 283.58544921875 352.5633544921875 282.7357177734375 351.8699951171875 281.98046875M 364.20880126953125 280.918212890625 C 364.5870361328125 280.80023193359375 364.9652099609375 280.6822509765625 365.3433837890625 280.564208984375 C 366.13134765625 281.8702392578125 366.8719482421875 283.2864990234375 367.5653076171875 284.8128662109375 C 368.2586669921875 286.33929443359375 368.7156982421875 287.629638671875 368.936279296875 288.6839599609375 C 368.5423583984375 288.83343505859375 368.14837646484375 288.98291015625 367.75439453125 289.1324462890625 C 367.59686279296875 288.4085693359375 367.3367919921875 287.5745849609375 366.974365234375 286.63037109375 C 366.6119384765625 285.6705322265625 366.18646240234375 284.69488525390625 365.697998046875 283.7034912109375 C 365.2252197265625 282.6964111328125 364.72882080078125 281.76800537109375 364.20880126953125 280.918212890625"/>
    <path stroke-width="0" fill="rgb(0, 0, 0)" opacity="1.0" d="M 395.38671875 291.988525390625 C 395.38671875 294.1915283203125 395.38671875 296.39453125 395.38671875 298.59759521484375 C 400.86279296875 298.59759521484375 406.33880615234375 298.59759521484375 411.8148193359375 298.59759521484375 C 411.8148193359375 296.39453125 411.8148193359375 294.1915283203125 411.8148193359375 291.988525390625 C 406.33880615234375 291.988525390625 400.86279296875 291.988525390625 395.38671875 291.988525390625M 395.38671875 284.104736328125 C 395.38671875 286.2763671875 395.38671875 288.4478759765625 395.38671875 290.61944580078125 C 400.86279296875 290.61944580078125 406.33880615234375 290.61944580078125 411.8148193359375 290.61944580078125 C 411.8148193359375 288.4478759765625 411.8148193359375 286.2763671875 411.8148193359375 284.104736328125 C 406.33880615234375 284.104736328125 400.86279296875 284.104736328125 395.38671875 284.104736328125M 394.06298828125 282.782958984375 C 400.4215087890625 282.782958984375 406.780029296875 282.782958984375 413.1385498046875 282.782958984375 C 413.1385498046875 288.4951171875 413.1385498046875 294.207275390625 413.1385498046875 299.91943359375 C 406.780029296875 299.91943359375 400.4215087890625 299.91943359375 394.06298828125 299.91943359375 C 394.06298828125 294.207275390625 394.06298828125 288.4951171875 394.06298828125 282.782958984375M 393.8975830078125 306.43408203125 C 400.31121826171875 306.43408203125 406.724853515625 306.43408203125 413.1385498046875 306.43408203125 C 413.1385498046875 306.87469482421875 413.1385498046875 307.3153076171875 413.1385498046875 307.755859375 C 406.724853515625 307.755859375 400.31121826171875 307.755859375 393.8975830078125 307.755859375 C 393.8975830078125 307.3153076171875 393.8975830078125 306.87469482421875 393.8975830078125 306.43408203125M 392.4320068359375 317.693115234375 C 394.228515625 317.409912109375 396.30859375 317.0794677734375 398.67236328125 316.7017822265625 C 401.0518798828125 316.3240966796875 403.604736328125 315.9228515625 406.3309326171875 315.49798583984375 C 409.05712890625 315.057373046875 411.8070068359375 314.60888671875 414.5804443359375 314.152587890625 C 414.59619140625 314.577392578125 414.6119384765625 315.0023193359375 414.627685546875 315.42718505859375 C 411.96453857421875 315.8363037109375 409.3013916015625 316.26904296875 406.63818359375 316.72540283203125 C 403.97503662109375 317.1817626953125 401.44580078125 317.6065673828125 399.050537109375 318.0 C 396.6710205078125 318.3934326171875 394.5594482421875 318.7396240234375 392.7156982421875 319.03857421875 C 392.62115478515625 318.590087890625 392.526611328125 318.1416015625 392.4320068359375 317.693115234375M 414.627685546875 282.924560546875 C 420.4346923828125 282.924560546875 426.2415771484375 282.924560546875 432.048583984375 282.924560546875 C 432.048583984375 283.36517333984375 432.048583984375 283.8057861328125 432.048583984375 284.24639892578125 C 426.2415771484375 284.24639892578125 420.4346923828125 284.24639892578125 414.627685546875 284.24639892578125 C 414.627685546875 283.8057861328125 414.627685546875 283.36517333984375 414.627685546875 282.924560546875M 414.08404541015625 297.2049560546875 C 420.284912109375 297.2049560546875 426.48590087890625 297.2049560546875 432.686767578125 297.2049560546875 C 432.686767578125 297.6534423828125 432.686767578125 298.1019287109375 432.686767578125 298.5504150390625 C 426.48590087890625 298.5504150390625 420.284912109375 298.5504150390625 414.08404541015625 298.5504150390625 C 414.08404541015625 298.1019287109375 414.08404541015625 297.6534423828125 414.08404541015625 297.2049560546875M 431.646728515625 282.924560546875 C 431.7413330078125 282.924560546875 431.8358154296875 282.924560546875 431.930419921875 282.924560546875 C 432.01708984375 282.89312744140625 432.103759765625 282.86163330078125 432.1904296875 282.8302001953125 C 432.5213623046875 283.02685546875 432.852294921875 283.22357177734375 433.1832275390625 283.4202880859375 C 432.395263671875 284.5689697265625 431.473388671875 285.7255859375 430.4176025390625 286.8900146484375 C 429.36181640625 288.05450439453125 428.2666015625 289.14813232421875 427.1319580078125 290.1710205078125 C 425.99737548828125 291.19384765625 424.88641357421875 292.0986328125 423.799072265625 292.88543701171875 C 423.67303466796875 292.7437744140625 423.5233154296875 292.6021728515625 423.3499755859375 292.4605712890625 C 423.1923828125 292.30322265625 423.04266357421875 292.17730712890625 422.90087890625 292.0828857421875 C 423.9566650390625 291.3590087890625 425.0281982421875 290.4935302734375 426.1156005859375 289.4864501953125 C 427.202880859375 288.463623046875 428.235107421875 287.4093017578125 429.2120361328125 286.32354736328125 C 430.204833984375 285.23779296875 431.01641845703125 284.1912841796875 431.646728515625 283.1842041015625 C 431.646728515625 283.09765625 431.646728515625 283.0111083984375 431.646728515625 282.924560546875M 417.48785400390625 288.84912109375 C 417.802978515625 288.5816650390625 418.1181640625 288.31414794921875 418.433349609375 288.046630859375 C 419.7728271484375 288.802001953125 421.1043701171875 289.68316650390625 422.4281005859375 290.6903076171875 C 423.767578125 291.681640625 425.004638671875 292.69659423828125 426.13916015625 293.73516845703125 C 427.2738037109375 294.77374267578125 428.1719970703125 295.7178955078125 428.8338623046875 296.567626953125 C 428.5029296875 296.88232421875 428.1719970703125 297.19708251953125 427.841064453125 297.5118408203125 C 427.17926025390625 296.6148681640625 426.2889404296875 295.6470947265625 425.1700439453125 294.6085205078125 C 424.05120849609375 293.55419921875 422.82208251953125 292.52349853515625 421.48260498046875 291.51641845703125 C 420.158935546875 290.4935302734375 418.82733154296875 289.6044921875 417.48785400390625 288.84912109375M 432.28497314453125 297.2049560546875 C 432.38739013671875 297.2049560546875 432.4898681640625 297.2049560546875 432.59228515625 297.2049560546875 C 432.70257568359375 297.1734619140625 432.8128662109375 297.1419677734375 432.9232177734375 297.11053466796875 C 433.23834228515625 297.260009765625 433.55352783203125 297.4095458984375 433.86865234375 297.55902099609375 C 433.17529296875 299.28997802734375 432.4267578125 301.07598876953125 431.62310791015625 302.9171142578125 C 430.8194580078125 304.7581787109375 430.02362060546875 306.29248046875 429.2357177734375 307.5198974609375 C 428.841796875 307.3310546875 428.44781494140625 307.1422119140625 428.0538330078125 306.953369140625 C 428.5738525390625 306.16656494140625 429.078125 305.25390625 429.566650390625 304.21533203125 C 430.0709228515625 303.1610107421875 430.5594482421875 302.0594482421875 431.03216552734375 300.9107666015625 C 431.5048828125 299.7620849609375 431.9224853515625 298.6605224609375 432.28497314453125 297.606201171875 C 432.28497314453125 297.47247314453125 432.28497314453125 297.3387451171875 432.28497314453125 297.2049560546875M 422.7117919921875 297.88946533203125 C 423.1529541015625 297.88946533203125 423.59423828125 297.88946533203125 424.03546142578125 297.88946533203125 C 424.03546142578125 304.8526611328125 424.03546142578125 311.8157958984375 424.03546142578125 318.7789306640625 C 424.03546142578125 319.4083251953125 423.93304443359375 319.87255859375 423.7281494140625 320.17156982421875 C 423.5390625 320.4705810546875 423.18450927734375 320.69873046875 422.66448974609375 320.8560791015625 C 422.1129150390625 320.98193359375 421.2777099609375 321.052734375 420.158935546875 321.0684814453125 C 419.0400390625 321.084228515625 417.6060791015625 321.09210205078125 415.85687255859375 321.09210205078125 C 415.8253173828125 320.9033203125 415.74658203125 320.67510986328125 415.6204833984375 320.4075927734375 C 415.5101318359375 320.15582275390625 415.376220703125 319.91192626953125 415.2186279296875 319.6759033203125 C 416.9205322265625 319.70733642578125 418.33880615234375 319.73095703125 419.473388671875 319.7467041015625 C 420.6080322265625 319.762451171875 421.372314453125 319.7545166015625 421.7662353515625 319.72308349609375 C 422.16021728515625 319.691650390625 422.412353515625 319.6051025390625 422.52264404296875 319.46343994140625 C 422.648681640625 319.3375244140625 422.7117919921875 319.109375 422.7117919921875 318.7789306640625 C 422.7117919921875 311.8157958984375 422.7117919921875 304.8526611328125 422.7117919921875 297.88946533203125M 402.974365234375 283.373046875 C 403.40771484375 283.373046875 403.841064453125 283.373046875 404.2744140625 283.373046875 C 404.2744140625 288.9356689453125 404.2744140625 294.4984130859375 404.2744140625 300.06103515625 C 404.2744140625 300.06103515625 404.2744140625 300.06103515625 404.2744140625 300.06103515625 C 404.2744140625 305.60009765625 404.2744140625 311.13916015625 404.2744140625 316.67822265625 C 403.841064453125 316.67822265625 403.40771484375 316.67822265625 402.974365234375 316.67822265625 C 402.974365234375 311.13916015625 402.974365234375 305.60009765625 402.974365234375 300.06103515625 C 402.974365234375 300.06103515625 402.974365234375 300.06103515625 402.974365234375 300.06103515625 C 402.974365234375 294.4984130859375 402.974365234375 288.9356689453125 402.974365234375 283.373046875"/>
    <path stroke-width="0" fill="rgb(0, 0, 0)" opacity="1.0" d="M 446.49114990234375 287.6453857421875 C 450.51739501953125 287.6453857421875 454.543701171875 287.6453857421875 458.5699462890625 287.6453857421875 C 458.5699462890625 288.078125 458.5699462890625 288.5108642578125 458.5699462890625 288.943603515625 C 454.543701171875 288.943603515625 450.51739501953125 288.943603515625 446.49114990234375 288.943603515625 C 446.49114990234375 288.5108642578125 446.49114990234375 288.078125 446.49114990234375 287.6453857421875M 467.150390625 280.328125 C 467.583740234375 280.328125 468.01708984375 280.328125 468.450439453125 280.328125 C 468.450439453125 293.9161376953125 468.450439453125 307.504150390625 468.450439453125 321.09210205078125 C 468.01708984375 321.09210205078125 467.583740234375 321.09210205078125 467.150390625 321.09210205078125 C 467.150390625 307.504150390625 467.150390625 293.9161376953125 467.150390625 280.328125M 441.59814453125 296.9688720703125 C 441.8818359375 296.6856689453125 442.16546630859375 296.40240478515625 442.4490966796875 296.119140625 C 443.86737060546875 296.87451171875 445.30926513671875 297.739990234375 446.7747802734375 298.715576171875 C 448.256103515625 299.69122314453125 449.6348876953125 300.6746826171875 450.911376953125 301.66607666015625 C 452.20355224609375 302.6417236328125 453.24359130859375 303.554443359375 454.031494140625 304.4041748046875 C 453.7242431640625 304.734619140625 453.41693115234375 305.0650634765625 453.109619140625 305.3955078125 C 452.32177734375 304.5772705078125 451.28955078125 303.66455078125 450.01312255859375 302.657470703125 C 448.75244140625 301.650390625 447.389404296875 300.651123046875 445.923828125 299.6597900390625 C 444.45831298828125 298.65264892578125 443.01641845703125 297.7557373046875 441.59814453125 296.9688720703125M 448.57122802734375 280.328125 C 449.0281982421875 280.422607421875 449.4852294921875 280.5169677734375 449.9422607421875 280.61138916015625 C 449.154296875 283.475341796875 448.19305419921875 286.1976318359375 447.0584716796875 288.7783203125 C 445.923828125 291.34332275390625 444.64739990234375 293.7037353515625 443.2291259765625 295.8594970703125 C 441.82666015625 298.015380859375 440.2823486328125 299.92724609375 438.59619140625 301.59527587890625 C 438.53314208984375 301.5008544921875 438.4228515625 301.40643310546875 438.2652587890625 301.31201171875 C 438.1234130859375 301.201904296875 437.9737548828125 301.09173583984375 437.816162109375 300.9815673828125 C 437.67431640625 300.8714599609375 437.524658203125 300.784912109375 437.3670654296875 300.721923828125 C 439.084716796875 299.132568359375 440.644775390625 297.28363037109375 442.0472412109375 295.175048828125 C 443.46551513671875 293.0506591796875 444.71832275390625 290.7296142578125 445.8056640625 288.21185302734375 C 446.8929443359375 285.6783447265625 447.8148193359375 283.05047607421875 448.57122802734375 280.328125M 460.602783203125 290.85546875 C 461.6585693359375 292.759521484375 462.91925048828125 294.624267578125 464.384765625 296.4495849609375 C 465.8660888671875 298.2750244140625 467.473388671875 300.0137939453125 469.206787109375 301.66607666015625 C 470.94024658203125 303.3026123046875 472.7366943359375 304.77392578125 474.59619140625 306.08001708984375 C 476.4556884765625 307.3861083984375 478.2994384765625 308.4561767578125 480.12738037109375 309.2901611328125 C 480.0328369140625 309.35308837890625 479.9224853515625 309.447509765625 479.79644775390625 309.5733642578125 C 479.6861572265625 309.69927978515625 479.583740234375 309.8251953125 479.4891357421875 309.9510498046875 C 479.3946533203125 310.06121826171875 479.300048828125 310.17919921875 479.20550537109375 310.30511474609375 C 477.393310546875 309.3924560546875 475.5574951171875 308.25946044921875 473.697998046875 306.9061279296875 C 471.8385009765625 305.537109375 470.0262451171875 304.01861572265625 468.2613525390625 302.3505859375 C 466.51214599609375 300.6668701171875 464.8890380859375 298.888671875 463.3919677734375 297.01611328125 C 461.89495849609375 295.1435546875 460.602783203125 293.2552490234375 459.51544189453125 291.3511962890625 C 459.87786865234375 291.1859130859375 460.2403564453125 291.020751953125 460.602783203125 290.85546875M 458.09716796875 287.6453857421875 C 458.19171142578125 287.6453857421875 458.2862548828125 287.6453857421875 458.380859375 287.6453857421875 C 458.4832763671875 287.6138916015625 458.585693359375 287.5823974609375 458.6881103515625 287.55096435546875 C 458.9638671875 287.6531982421875 459.2396240234375 287.7554931640625 459.51544189453125 287.8577880859375 C 458.6014404296875 293.790283203125 457.1595458984375 298.91229248046875 455.18975830078125 303.22393798828125 C 453.2357177734375 307.5198974609375 450.8956298828125 311.1234130859375 448.16943359375 314.0345458984375 C 445.4432373046875 316.9456787109375 442.4805908203125 319.2982177734375 439.28167724609375 321.09210205078125 C 439.1871337890625 320.9661865234375 439.0689697265625 320.84033203125 438.9271240234375 320.7144775390625 C 438.801025390625 320.60430908203125 438.67498779296875 320.48626708984375 438.5489501953125 320.3603515625 C 438.4228515625 320.2344970703125 438.3046875 320.14007568359375 438.1943359375 320.0771484375 C 441.4248046875 318.3619384765625 444.38739013671875 316.0802001953125 447.08203125 313.23199462890625 C 449.7767333984375 310.3680419921875 452.0775146484375 306.85894775390625 453.9842529296875 302.70465087890625 C 455.8909912109375 298.5504150390625 457.261962890625 293.64862060546875 458.09716796875 287.9993896484375 C 458.09716796875 287.88140869140625 458.09716796875 287.763427734375 458.09716796875 287.6453857421875"/>
  </g>
</svg>
