<?xml version="1.0" encoding="utf-8"?>
<svg xmlns="http://www.w3.org/2000/svg" xmlns:ev="http://www.w3.org/2001/xml-events" xmlns:xlink="http://www.w3.org/1999/xlink" version="1.1" baseProfile="full" width="1672.0" height="1728.0" viewBox="169.0 -1596.0 1672.0 1728.0">
<defs/>
<g><path d="M 795.000000 -1340.000000 C 1108.666667 -1340.000000 1422.333333 -1340.000000 1736.000000 -1340.000000 C 1736.000000 -1321.333333 1736.000000 -1302.666667 1736.000000 -1284.000000 C 1422.333333 -1284.000000 1108.666667 -1284.000000 795.000000 -1284.000000 C 795.000000 -1302.666667 795.000000 -1321.333333 795.000000 -1340.000000z M 697.000000 -964.000000 C 1078.333333 -964.000000 1459.666667 -964.000000 1841.000000 -964.000000 C 1841.000000 -945.333333 1841.000000 -926.666667 1841.000000 -908.000000 C 1459.666667 -908.000000 1078.333333 -908.000000 697.000000 -908.000000 C 697.000000 -926.666667 697.000000 -945.333333 697.000000 -964.000000z M 712.000000 -636.000000 C 1079.333333 -636.000000 1446.666667 -636.000000 1814.000000 -636.000000 C 1814.000000 -617.333333 1814.000000 -598.666667 1814.000000 -580.000000 C 1446.666667 -580.000000 1079.333333 -580.000000 712.000000 -580.000000 C 712.000000 -598.666667 712.000000 -617.333333 712.000000 -636.000000z M 1231.000000 -1596.000000 C 1250.000000 -1596.000000 1269.000000 -1596.000000 1288.000000 -1596.000000 C 1288.000000 -1375.666667 1288.000000 -1155.333333 1288.000000 -935.000000 C 1269.000000 -935.000000 1250.000000 -935.000000 1231.000000 -935.000000 C 1231.000000 -1155.333333 1231.000000 -1375.666667 1231.000000 -1596.000000z M 1494.000000 -937.000000 C 1513.000000 -937.000000 1532.000000 -937.000000 1551.000000 -937.000000 C 1551.000000 -612.666667 1551.000000 -288.333333 1551.000000 36.000000 C 1551.000000 63.333333 1546.333333 83.333333 1537.000000 96.000000 C 1527.666667 108.666667 1512.000000 117.666667 1490.000000 123.000000 C 1468.000000 128.333333 1433.333333 131.000000 1386.000000 131.000000 C 1338.666667 131.666667 1273.333333 132.000000 1190.000000 132.000000 C 1188.666667 126.000000 1185.666667 117.333333 1181.000000 106.000000 C 1177.000000 95.333333 1171.666667 85.666667 1165.000000 77.000000 C 1237.000000 78.333333 1298.666667 79.333333 1350.000000 80.000000 C 1401.333333 80.666667 1435.333333 80.333333 1452.000000 79.000000 C 1468.000000 77.666667 1479.000000 74.000000 1485.000000 68.000000 C 1491.000000 62.666667 1494.000000 52.000000 1494.000000 36.000000 C 1494.000000 -288.333333 1494.000000 -612.666667 1494.000000 -937.000000z M 870.000000 -440.000000 C 885.333333 -450.000000 900.666667 -460.000000 916.000000 -470.000000 C 952.000000 -436.000000 987.333333 -398.000000 1022.000000 -356.000000 C 1057.333333 -314.666667 1089.666667 -273.666667 1119.000000 -233.000000 C 1149.000000 -193.000000 1171.666667 -157.000000 1187.000000 -125.000000 C 1170.333333 -112.666667 1153.666667 -100.333333 1137.000000 -88.000000 C 1121.666667 -121.333333 1099.333333 -158.333333 1070.000000 -199.000000 C 1041.333333 -240.333333 1009.666667 -282.000000 975.000000 -324.000000 C 941.000000 -366.666667 906.000000 -405.333333 870.000000 -440.000000z M 200.000000 -1461.000000 C 354.666667 -1461.000000 509.333333 -1461.000000 664.000000 -1461.000000 C 664.000000 -1057.333333 664.000000 -653.666667 664.000000 -250.000000 C 509.333333 -250.000000 354.666667 -250.000000 200.000000 -250.000000 C 200.000000 -268.333333 200.000000 -286.666667 200.000000 -305.000000 C 336.333333 -305.000000 472.666667 -305.000000 609.000000 -305.000000 C 609.000000 -671.333333 609.000000 -1037.666667 609.000000 -1404.000000 C 472.666667 -1404.000000 336.333333 -1404.000000 200.000000 -1404.000000 C 200.000000 -1423.000000 200.000000 -1442.000000 200.000000 -1461.000000z M 200.000000 -889.000000 C 344.000000 -889.000000 488.000000 -889.000000 632.000000 -889.000000 C 632.000000 -869.666667 632.000000 -850.333333 632.000000 -831.000000 C 488.000000 -831.000000 344.000000 -831.000000 200.000000 -831.000000 C 200.000000 -850.333333 200.000000 -869.666667 200.000000 -889.000000z M 169.000000 -1461.000000 C 188.333333 -1461.000000 207.666667 -1461.000000 227.000000 -1461.000000 C 227.000000 -1009.333333 227.000000 -557.666667 227.000000 -106.000000 C 207.666667 -106.000000 188.333333 -106.000000 169.000000 -106.000000 C 169.000000 -557.666667 169.000000 -1009.333333 169.000000 -1461.000000z "/>
</g>
</svg>
