<?xml version="1.0" ?>
<svg xmlns="http://www.w3.org/2000/svg" version="1.1" width="600" height="600">
  <defs/>
  <g>
    <path stroke-width="0" fill="rgb(0, 0, 0)" opacity="1.0" d="M 261.1962890625 167.60012817382812 C 332.58544921875 167.60012817382812 403.97509765625 167.60012817382812 475.3642578125 167.60012817382812 C 475.3642578125 171.3651123046875 475.3642578125 175.13006591796875 475.3642578125 178.89505004882812 C 403.97509765625 178.89505004882812 332.58544921875 178.89505004882812 261.1962890625 178.89505004882812 C 261.1962890625 175.13006591796875 261.1962890625 171.3651123046875 261.1962890625 167.60012817382812M 256.4736328125 268.0222473144531 C 330.87451171875 268.0222473144531 405.275390625 268.0222473144531 479.67626953125 268.0222473144531 C 479.67626953125 271.9925842285156 479.67626953125 275.96295166015625 479.67626953125 279.9332580566406 C 405.275390625 279.9332580566406 330.87451171875 279.9332580566406 256.4736328125 279.9332580566406 C 256.4736328125 275.96295166015625 256.4736328125 271.9925842285156 256.4736328125 268.0222473144531M 321.15478515625 448.53564453125 C 365.302734375 448.53564453125 409.45068359375 448.53564453125 453.59814453125 448.53564453125 C 453.59814453125 452.36907958984375 453.59814453125 456.2025146484375 453.59814453125 460.03594970703125 C 409.45068359375 460.03594970703125 365.302734375 460.03594970703125 321.15478515625 460.03594970703125 C 321.15478515625 456.2025146484375 321.15478515625 452.36907958984375 321.15478515625 448.53564453125M 314.78955078125 123.65261840820312 C 318.75927734375 123.65261840820312 322.72900390625 123.65261840820312 326.69921875 123.65261840820312 C 326.69921875 157.879638671875 326.69921875 192.106689453125 326.69921875 226.333740234375 C 322.72900390625 226.333740234375 318.75927734375 226.333740234375 314.78955078125 226.333740234375 C 314.78955078125 192.106689453125 314.78955078125 157.879638671875 314.78955078125 123.65261840820312M 411.70947265625 123.65261840820312 C 415.67919921875 123.65261840820312 419.64892578125 123.65261840820312 423.61865234375 123.65261840820312 C 423.61865234375 157.879638671875 423.61865234375 192.106689453125 423.61865234375 226.333740234375 C 419.64892578125 226.333740234375 415.67919921875 226.333740234375 411.70947265625 226.333740234375 C 411.70947265625 192.106689453125 411.70947265625 157.879638671875 411.70947265625 123.65261840820312M 314.78955078125 347.7027587890625 C 363.5234375 347.7027587890625 412.2568359375 347.7027587890625 460.990234375 347.7027587890625 C 460.990234375 390.828857421875 460.990234375 433.9549560546875 460.990234375 477.08099365234375 C 457.0888671875 477.08099365234375 453.1875 477.08099365234375 449.2861328125 477.08099365234375 C 449.2861328125 437.92529296875 449.2861328125 398.76953125 449.2861328125 359.61376953125 C 408.423828125 359.61376953125 367.5615234375 359.61376953125 326.69921875 359.61376953125 C 326.69921875 399.11181640625 326.69921875 438.60980224609375 326.69921875 478.1077880859375 C 322.72900390625 478.1077880859375 318.75927734375 478.1077880859375 314.78955078125 478.1077880859375 C 314.78955078125 434.63946533203125 314.78955078125 391.171142578125 314.78955078125 347.7027587890625M 353.39306640625 219.96746826171875 C 357.5 220.720458984375 361.6064453125 221.4735107421875 365.71337890625 222.22647094726562 C 356.8154296875 261.9298400878906 343.673828125 296.8414306640625 326.28857421875 326.961181640625 C 308.9033203125 357.08099365234375 287.75341796875 382.40899658203125 262.8388671875 402.94525146484375 C 262.29150390625 402.123779296875 261.47021484375 401.23388671875 260.375 400.2755126953125 C 259.27978515625 399.1802978515625 258.04736328125 398.0849609375 256.6787109375 396.98974609375 C 255.44677734375 395.89447021484375 254.3515625 395.00457763671875 253.3935546875 394.32000732421875 C 278.85546875 375.289794921875 299.8681640625 350.920166015625 316.43212890625 321.2110595703125 C 332.99609375 291.50201416015625 345.31640625 257.754150390625 353.39306640625 219.96746826171875M 139.4306640625 241.32516479492188 C 175.56982421875 241.32516479492188 211.70947265625 241.32516479492188 247.84912109375 241.32516479492188 C 247.84912109375 245.09014892578125 247.84912109375 248.8551025390625 247.84912109375 252.62008666992188 C 211.70947265625 252.62008666992188 175.56982421875 252.62008666992188 139.4306640625 252.62008666992188 C 139.4306640625 248.8551025390625 139.4306640625 245.09014892578125 139.4306640625 241.32516479492188M 141.2783203125 139.05477905273438 C 176.2548828125 139.05477905273438 211.23046875 139.05477905273438 246.20654296875 139.05477905273438 C 246.20654296875 142.88818359375 246.20654296875 146.72164916992188 246.20654296875 150.5550537109375 C 211.23046875 150.5550537109375 176.2548828125 150.5550537109375 141.2783203125 150.5550537109375 C 141.2783203125 146.72164916992188 141.2783203125 142.88818359375 141.2783203125 139.05477905273438M 139.4306640625 292.87109375 C 175.56982421875 292.87109375 211.70947265625 292.87109375 247.84912109375 292.87109375 C 247.84912109375 296.70452880859375 247.84912109375 300.5379333496094 247.84912109375 304.371337890625 C 211.70947265625 304.371337890625 175.56982421875 304.371337890625 139.4306640625 304.371337890625 C 139.4306640625 300.5379333496094 139.4306640625 296.70452880859375 139.4306640625 292.87109375M 121.9765625 189.16314697265625 C 167.3564453125 189.16314697265625 212.736328125 189.16314697265625 258.1162109375 189.16314697265625 C 258.1162109375 193.13351440429688 258.1162109375 197.10382080078125 258.1162109375 201.07415771484375 C 212.736328125 201.07415771484375 167.3564453125 201.07415771484375 121.9765625 201.07415771484375 C 121.9765625 197.10382080078125 121.9765625 193.13351440429688 121.9765625 189.16314697265625M 145.38525390625 344.62237548828125 C 179.5400390625 344.62237548828125 213.6943359375 344.62237548828125 247.84912109375 344.62237548828125 C 247.84912109375 381.3822021484375 247.84912109375 418.14202880859375 247.84912109375 454.90185546875 C 213.6943359375 454.90185546875 179.5400390625 454.90185546875 145.38525390625 454.90185546875 C 145.38525390625 451.0 145.38525390625 447.09814453125 145.38525390625 443.19622802734375 C 175.56982421875 443.19622802734375 205.7548828125 443.19622802734375 235.939453125 443.19622802734375 C 235.939453125 414.24017333984375 235.939453125 385.2840576171875 235.939453125 356.3280029296875 C 205.7548828125 356.3280029296875 175.56982421875 356.3280029296875 145.38525390625 356.3280029296875 C 145.38525390625 352.4261474609375 145.38525390625 348.52423095703125 145.38525390625 344.62237548828125M 139.4306640625 344.62237548828125 C 143.33203125 344.62237548828125 147.2333984375 344.62237548828125 151.134765625 344.62237548828125 C 151.134765625 388.22760009765625 151.134765625 431.8328857421875 151.134765625 475.4381103515625 C 147.2333984375 475.4381103515625 143.33203125 475.4381103515625 139.4306640625 475.4381103515625 C 139.4306640625 431.8328857421875 139.4306640625 388.22760009765625 139.4306640625 344.62237548828125"/>
  </g>
</svg>
