<?xml version="1.0" ?>
<svg xmlns="http://www.w3.org/2000/svg" version="1.1" width="600" height="600">
  <defs/>
  <g>
    <path stroke-width="0" fill="rgb(0, 0, 0)" opacity="1.0" d="M 168.10476684570312 355.520263671875 C 252.086181640625 355.520263671875 336.067626953125 355.520263671875 420.04901123046875 355.520263671875 C 420.04901123046875 359.5433349609375 420.04901123046875 363.56646728515625 420.04901123046875 367.589599609375 C 336.067626953125 367.589599609375 252.086181640625 367.589599609375 168.10476684570312 367.589599609375 C 168.10476684570312 363.56646728515625 168.10476684570312 359.5433349609375 168.10476684570312 355.520263671875M 169.35302734375 306.82659912109375 C 255.20687866210938 306.82659912109375 341.06072998046875 306.82659912109375 426.91455078125 306.82659912109375 C 426.91455078125 343.45086669921875 426.91455078125 380.07513427734375 426.91455078125 416.699462890625 C 341.06072998046875 416.699462890625 255.20687866210938 416.699462890625 169.35302734375 416.699462890625 C 169.35302734375 412.8150634765625 169.35302734375 408.9306640625 169.35302734375 405.0462646484375 C 251.32333374023438 405.0462646484375 333.29364013671875 405.0462646484375 415.263916015625 405.0462646484375 C 415.263916015625 376.12139892578125 415.263916015625 347.196533203125 415.263916015625 318.27166748046875 C 333.29364013671875 318.27166748046875 251.32333374023438 318.27166748046875 169.35302734375 318.27166748046875 C 169.35302734375 314.4566650390625 169.35302734375 310.6416015625 169.35302734375 306.82659912109375M 285.44293212890625 310.78033447265625 C 289.4651794433594 310.78033447265625 293.4874267578125 310.78033447265625 297.5096435546875 310.78033447265625 C 297.5096435546875 353.92486572265625 297.5096435546875 397.0693359375 297.5096435546875 440.2138671875 C 297.5096435546875 446.31793212890625 299.520751953125 450.410400390625 303.5429992675781 452.4913330078125 C 307.56524658203125 454.7109375 316.09515380859375 455.82080078125 329.1326904296875 455.82080078125 C 331.7679443359375 455.82080078125 336.344970703125 455.82080078125 342.86376953125 455.82080078125 C 349.382568359375 455.82080078125 356.9415283203125 455.82080078125 365.54083251953125 455.82080078125 C 374.27880859375 455.82080078125 383.0167236328125 455.82080078125 391.754638671875 455.82080078125 C 400.63134765625 455.82080078125 408.6064453125 455.82080078125 415.6800537109375 455.82080078125 C 422.892333984375 455.82080078125 428.232177734375 455.82080078125 431.6995849609375 455.82080078125 C 439.4666748046875 455.82080078125 445.22265625 454.5029296875 448.9674072265625 451.8670654296875 C 452.7122802734375 449.36993408203125 455.2781982421875 444.23699951171875 456.6651611328125 436.46820068359375 C 458.19085693359375 428.5606689453125 459.2310791015625 416.907470703125 459.785888671875 401.5086669921875 C 461.3115234375 402.479736328125 463.1839599609375 403.45086669921875 465.403076171875 404.4219970703125 C 467.760986328125 405.39306640625 469.8414306640625 406.15606689453125 471.64453125 406.71099853515625 C 470.81231689453125 422.94219970703125 469.28662109375 435.4970703125 467.0675048828125 444.375732421875 C 464.84832763671875 453.1156005859375 461.0341796875 459.1502685546875 455.62493896484375 462.479736328125 C 450.35443115234375 465.947998046875 442.37933349609375 467.68206787109375 431.6995849609375 467.68206787109375 C 430.1739501953125 467.68206787109375 425.94366455078125 467.68206787109375 419.0087890625 467.68206787109375 C 412.0738525390625 467.68206787109375 403.9600830078125 467.68206787109375 394.6673583984375 467.68206787109375 C 385.5133056640625 467.68206787109375 376.2899169921875 467.68206787109375 366.9971923828125 467.68206787109375 C 357.7044677734375 467.68206787109375 349.659912109375 467.68206787109375 342.86376953125 467.68206787109375 C 336.067626953125 467.68206787109375 331.8372802734375 467.68206787109375 330.1729736328125 467.68206787109375 C 318.79974365234375 467.68206787109375 309.853759765625 466.9884033203125 303.3349609375 465.6011962890625 C 296.816162109375 464.35260009765625 292.1697998046875 461.64739990234375 289.3958435058594 457.48553466796875 C 286.76055908203125 453.46240234375 285.44293212890625 447.56646728515625 285.44293212890625 439.7977294921875 C 285.44293212890625 396.7918701171875 285.44293212890625 353.7861328125 285.44293212890625 310.78033447265625M 162.48751831054688 306.82659912109375 C 166.37103271484375 306.82659912109375 170.25457763671875 306.82659912109375 174.13812255859375 306.82659912109375 C 174.13812255859375 351.427734375 174.13812255859375 396.0289306640625 174.13812255859375 440.63006591796875 C 170.25457763671875 440.63006591796875 166.37103271484375 440.63006591796875 162.48751831054688 440.63006591796875 C 162.48751831054688 396.0289306640625 162.48751831054688 351.427734375 162.48751831054688 306.82659912109375M 149.38058471679688 132.86126708984375 C 245.22064208984375 132.86126708984375 341.06072998046875 132.86126708984375 436.9007568359375 132.86126708984375 C 436.9007568359375 136.74566650390625 436.9007568359375 140.63006591796875 436.9007568359375 144.51446533203125 C 341.06072998046875 144.51446533203125 245.22064208984375 144.51446533203125 149.38058471679688 144.51446533203125 C 149.38058471679688 140.63006591796875 149.38058471679688 136.74566650390625 149.38058471679688 132.86126708984375M 168.5208740234375 220.46820068359375 C 198.61822509765625 220.46820068359375 228.71563720703125 220.46820068359375 258.81298828125 220.46820068359375 C 258.81298828125 224.4913330078125 258.81298828125 228.51446533203125 258.81298828125 232.53759765625 C 228.71563720703125 232.53759765625 198.61822509765625 232.53759765625 168.5208740234375 232.53759765625 C 168.5208740234375 228.51446533203125 168.5208740234375 224.4913330078125 168.5208740234375 220.46820068359375M 160.19900512695312 262.5028991699219 C 193.20904541015625 262.5028991699219 226.21905517578125 262.5028991699219 259.2290954589844 262.5028991699219 C 259.2290954589844 266.4566650390625 259.2290954589844 270.410400390625 259.2290954589844 274.3641662597656 C 226.21905517578125 274.3641662597656 193.20904541015625 274.3641662597656 160.19900512695312 274.3641662597656 C 160.19900512695312 270.410400390625 160.19900512695312 266.4566650390625 160.19900512695312 262.5028991699219M 324.76373291015625 262.5028991699219 C 359.5074462890625 262.5028991699219 394.251220703125 262.5028991699219 428.9949951171875 262.5028991699219 C 428.9949951171875 266.4566650390625 428.9949951171875 270.410400390625 428.9949951171875 274.3641662597656 C 394.251220703125 274.3641662597656 359.5074462890625 274.3641662597656 324.76373291015625 274.3641662597656 C 324.76373291015625 270.410400390625 324.76373291015625 266.4566650390625 324.76373291015625 262.5028991699219M 324.76373291015625 220.46820068359375 C 356.0400390625 220.46820068359375 387.31634521484375 220.46820068359375 418.5926513671875 220.46820068359375 C 418.5926513671875 224.4913330078125 418.5926513671875 228.51446533203125 418.5926513671875 232.53759765625 C 387.31634521484375 232.53759765625 356.0400390625 232.53759765625 324.76373291015625 232.53759765625 C 324.76373291015625 228.51446533203125 324.76373291015625 224.4913330078125 324.76373291015625 220.46820068359375M 285.44293212890625 137.02313232421875 C 289.4651794433594 137.02313232421875 293.4874267578125 137.02313232421875 297.5096435546875 137.02313232421875 C 297.5096435546875 188.14450073242188 297.5096435546875 239.26589965820312 297.5096435546875 290.38726806640625 C 293.4874267578125 290.38726806640625 289.4651794433594 290.38726806640625 285.44293212890625 290.38726806640625 C 285.44293212890625 239.26589965820312 285.44293212890625 188.14450073242188 285.44293212890625 137.02313232421875M 130.24029541015625 178.43353271484375 C 238.70184326171875 178.43353271484375 347.16339111328125 178.43353271484375 455.62493896484375 178.43353271484375 C 455.62493896484375 203.196533203125 455.62493896484375 227.95953369140625 455.62493896484375 252.7225341796875 C 451.67205810546875 252.7225341796875 447.71917724609375 252.7225341796875 443.76629638671875 252.7225341796875 C 443.76629638671875 231.982666015625 443.76629638671875 211.24276733398438 443.76629638671875 190.50289916992188 C 343.21051025390625 190.50289916992188 242.65472412109375 190.50289916992188 142.09896850585938 190.50289916992188 C 142.09896850585938 211.24276733398438 142.09896850585938 231.982666015625 142.09896850585938 252.7225341796875 C 138.14608764648438 252.7225341796875 134.19320678710938 252.7225341796875 130.24029541015625 252.7225341796875 C 130.24029541015625 227.95953369140625 130.24029541015625 203.196533203125 130.24029541015625 178.43353271484375"/>
  </g>
</svg>
