<?xml version="1.0" encoding="utf-8"?>
<svg xmlns="http://www.w3.org/2000/svg" xmlns:ev="http://www.w3.org/2001/xml-events" xmlns:xlink="http://www.w3.org/1999/xlink" version="1.1" baseProfile="full" width="7517.0" height="1742.0" viewBox="84.0 -1596.0 7517.0 1742.0">
<defs/>
<g><path d="M 109.000000 -1498.000000 C 324.333333 -1498.000000 539.666667 -1498.000000 755.000000 -1498.000000 C 755.000000 -1479.333333 755.000000 -1460.666667 755.000000 -1442.000000 C 539.666667 -1442.000000 324.333333 -1442.000000 109.000000 -1442.000000 C 109.000000 -1460.666667 109.000000 -1479.333333 109.000000 -1498.000000z M 138.000000 -958.000000 C 338.333333 -958.000000 538.666667 -958.000000 739.000000 -958.000000 C 739.000000 -939.333333 739.000000 -920.666667 739.000000 -902.000000 C 538.666667 -902.000000 338.333333 -902.000000 138.000000 -902.000000 C 138.000000 -920.666667 138.000000 -939.333333 138.000000 -958.000000z M 84.000000 -257.000000 C 140.666667 -272.333333 205.666667 -290.666667 279.000000 -312.000000 C 353.000000 -333.333333 431.666667 -356.333333 515.000000 -381.000000 C 599.000000 -406.333333 683.333333 -431.000000 768.000000 -455.000000 C 770.666667 -436.333333 773.333333 -417.666667 776.000000 -399.000000 C 655.333333 -363.666667 535.000000 -328.000000 415.000000 -292.000000 C 295.666667 -256.000000 191.333333 -224.666667 102.000000 -198.000000 C 96.000000 -217.666667 90.000000 -237.333333 84.000000 -257.000000z M 914.000000 -1119.000000 C 914.000000 -1029.666667 914.000000 -940.333333 914.000000 -851.000000 C 1165.000000 -851.000000 1416.000000 -851.000000 1667.000000 -851.000000 C 1667.000000 -940.333333 1667.000000 -1029.666667 1667.000000 -1119.000000 C 1416.000000 -1119.000000 1165.000000 -1119.000000 914.000000 -1119.000000z M 914.000000 -795.000000 C 914.000000 -704.000000 914.000000 -613.000000 914.000000 -522.000000 C 1165.000000 -522.000000 1416.000000 -522.000000 1667.000000 -522.000000 C 1667.000000 -613.000000 1667.000000 -704.000000 1667.000000 -795.000000 C 1416.000000 -795.000000 1165.000000 -795.000000 914.000000 -795.000000z M 914.000000 -1444.000000 C 914.000000 -1355.000000 914.000000 -1266.000000 914.000000 -1177.000000 C 1165.000000 -1177.000000 1416.000000 -1177.000000 1667.000000 -1177.000000 C 1667.000000 -1266.000000 1667.000000 -1355.000000 1667.000000 -1444.000000 C 1416.000000 -1444.000000 1165.000000 -1444.000000 914.000000 -1444.000000z M 858.000000 -1500.000000 C 1146.000000 -1500.000000 1434.000000 -1500.000000 1722.000000 -1500.000000 C 1722.000000 -1155.000000 1722.000000 -810.000000 1722.000000 -465.000000 C 1434.000000 -465.000000 1146.000000 -465.000000 858.000000 -465.000000 C 858.000000 -810.000000 858.000000 -1155.000000 858.000000 -1500.000000z M 1380.000000 -499.000000 C 1398.666667 -499.000000 1417.333333 -499.000000 1436.000000 -499.000000 C 1436.000000 -327.000000 1436.000000 -155.000000 1436.000000 17.000000 C 1436.000000 36.333333 1440.333333 49.000000 1449.000000 55.000000 C 1458.333333 61.666667 1478.333333 65.000000 1509.000000 65.000000 C 1519.000000 65.000000 1539.000000 65.000000 1569.000000 65.000000 C 1599.666667 65.000000 1631.000000 65.000000 1663.000000 65.000000 C 1695.000000 65.000000 1717.333333 65.000000 1730.000000 65.000000 C 1748.000000 65.000000 1761.333333 60.000000 1770.000000 50.000000 C 1779.333333 40.000000 1786.000000 18.333333 1790.000000 -15.000000 C 1794.666667 -48.333333 1797.666667 -98.333333 1799.000000 -165.000000 C 1804.333333 -162.333333 1809.666667 -159.333333 1815.000000 -156.000000 C 1821.000000 -153.333333 1827.333333 -150.666667 1834.000000 -148.000000 C 1841.333333 -145.333333 1847.666667 -143.333333 1853.000000 -142.000000 C 1851.666667 -71.333333 1847.333333 -17.333333 1840.000000 20.000000 C 1833.333333 58.000000 1822.000000 84.000000 1806.000000 98.000000 C 1790.000000 112.000000 1766.666667 119.000000 1736.000000 119.000000 C 1730.666667 119.000000 1716.666667 119.000000 1694.000000 119.000000 C 1672.000000 119.000000 1647.666667 119.000000 1621.000000 119.000000 C 1595.000000 119.000000 1571.000000 119.000000 1549.000000 119.000000 C 1527.666667 119.000000 1513.666667 119.000000 1507.000000 119.000000 C 1473.666667 119.000000 1447.666667 116.333333 1429.000000 111.000000 C 1411.000000 106.333333 1398.333333 96.666667 1391.000000 82.000000 C 1383.666667 67.333333 1380.000000 45.666667 1380.000000 17.000000 C 1380.000000 -155.000000 1380.000000 -327.000000 1380.000000 -499.000000z M 1066.000000 -497.000000 C 1085.000000 -497.000000 1104.000000 -497.000000 1123.000000 -497.000000 C 1113.000000 -416.333333 1097.333333 -342.666667 1076.000000 -276.000000 C 1054.666667 -210.000000 1024.666667 -150.333333 986.000000 -97.000000 C 948.000000 -43.666667 899.000000 3.000000 839.000000 43.000000 C 779.000000 83.666667 705.333333 118.000000 618.000000 146.000000 C 615.333333 140.666667 611.666667 135.000000 607.000000 129.000000 C 603.000000 123.666667 598.333333 118.000000 593.000000 112.000000 C 588.333333 106.666667 584.000000 102.666667 580.000000 100.000000 C 665.333333 74.000000 737.000000 42.000000 795.000000 4.000000 C 853.666667 -33.333333 901.333333 -77.333333 938.000000 -128.000000 C 974.666667 -178.666667 1002.666667 -234.666667 1022.000000 -296.000000 C 1042.000000 -357.333333 1056.666667 -424.333333 1066.000000 -497.000000z M 411.000000 -1475.000000 C 429.666667 -1475.000000 448.333333 -1475.000000 467.000000 -1475.000000 C 467.000000 -1097.333333 467.000000 -719.666667 467.000000 -342.000000 C 448.333333 -336.666667 429.666667 -331.333333 411.000000 -326.000000 C 411.000000 -709.000000 411.000000 -1092.000000 411.000000 -1475.000000z "/>
</g>
<g><path d="M 2511.000000 -924.000000 C 2915.000000 -972.000000 3319.000000 -1020.000000 3723.000000 -1068.000000 C 3726.000000 -1050.000000 3729.000000 -1032.000000 3732.000000 -1014.000000 C 3327.666667 -966.666667 2923.333333 -919.333333 2519.000000 -872.000000 C 2516.333333 -889.333333 2513.666667 -906.666667 2511.000000 -924.000000z M 3289.000000 -1498.000000 C 3301.000000 -1508.000000 3313.000000 -1518.000000 3325.000000 -1528.000000 C 3369.000000 -1497.333333 3414.000000 -1463.333333 3460.000000 -1426.000000 C 3506.000000 -1389.333333 3548.666667 -1352.666667 3588.000000 -1316.000000 C 3628.000000 -1279.333333 3660.666667 -1247.000000 3686.000000 -1219.000000 C 3673.333333 -1207.666667 3660.666667 -1196.333333 3648.000000 -1185.000000 C 3622.666667 -1213.000000 3590.000000 -1245.000000 3550.000000 -1281.000000 C 3510.666667 -1317.666667 3468.000000 -1355.333333 3422.000000 -1394.000000 C 3376.666667 -1432.666667 3332.333333 -1467.333333 3289.000000 -1498.000000z M 2575.000000 -1571.000000 C 2592.666667 -1565.666667 2610.333333 -1560.333333 2628.000000 -1555.000000 C 2580.000000 -1443.666667 2524.000000 -1336.333333 2460.000000 -1233.000000 C 2396.000000 -1130.333333 2326.666667 -1034.333333 2252.000000 -945.000000 C 2178.000000 -856.333333 2101.333333 -777.333333 2022.000000 -708.000000 C 2019.333333 -712.000000 2015.333333 -717.000000 2010.000000 -723.000000 C 2005.333333 -729.000000 2000.333333 -734.666667 1995.000000 -740.000000 C 1989.666667 -746.000000 1985.000000 -750.333333 1981.000000 -753.000000 C 2060.333333 -818.333333 2136.666667 -894.000000 2210.000000 -980.000000 C 2284.000000 -1066.666667 2352.000000 -1160.000000 2414.000000 -1260.000000 C 2476.666667 -1360.666667 2530.333333 -1464.333333 2575.000000 -1571.000000z M 2339.000000 -1098.000000 C 2357.333333 -1116.666667 2375.666667 -1135.333333 2394.000000 -1154.000000 C 2394.000000 -1153.333333 2394.000000 -1152.666667 2394.000000 -1152.000000 C 2394.000000 -724.000000 2394.000000 -296.000000 2394.000000 132.000000 C 2375.666667 132.000000 2357.333333 132.000000 2339.000000 132.000000 C 2339.000000 -278.000000 2339.000000 -688.000000 2339.000000 -1098.000000z M 3012.000000 -1569.000000 C 3030.666667 -1569.000000 3049.333333 -1569.000000 3068.000000 -1569.000000 C 3078.666667 -1342.333333 3096.666667 -1130.666667 3122.000000 -934.000000 C 3147.333333 -737.333333 3181.333333 -564.333333 3224.000000 -415.000000 C 3267.333333 -266.333333 3321.000000 -149.000000 3385.000000 -63.000000 C 3449.000000 22.333333 3524.000000 68.333333 3610.000000 75.000000 C 3643.333333 76.333333 3669.666667 46.000000 3689.000000 -16.000000 C 3709.000000 -78.000000 3725.333333 -168.000000 3738.000000 -286.000000 C 3743.333333 -283.333333 3748.666667 -280.333333 3754.000000 -277.000000 C 3760.000000 -274.333333 3766.000000 -271.666667 3772.000000 -269.000000 C 3778.666667 -266.333333 3784.000000 -264.333333 3788.000000 -263.000000 C 3778.000000 -165.666667 3765.000000 -87.333333 3749.000000 -28.000000 C 3733.000000 31.333333 3713.666667 73.666667 3691.000000 99.000000 C 3669.000000 125.000000 3642.000000 137.333333 3610.000000 136.000000 C 3528.000000 132.666667 3456.000000 100.666667 3394.000000 40.000000 C 3332.666667 -20.000000 3280.000000 -102.333333 3236.000000 -207.000000 C 3192.000000 -312.333333 3155.333333 -435.666667 3126.000000 -577.000000 C 3096.666667 -718.333333 3073.000000 -873.000000 3055.000000 -1041.000000 C 3037.000000 -1209.666667 3022.666667 -1385.666667 3012.000000 -1569.000000z "/>
</g>
<g><path d="M 4610.000000 23.000000 C 4969.000000 23.000000 5328.000000 23.000000 5687.000000 23.000000 C 5687.000000 41.666667 5687.000000 60.333333 5687.000000 79.000000 C 5328.000000 79.000000 4969.000000 79.000000 4610.000000 79.000000 C 4610.000000 60.333333 4610.000000 41.666667 4610.000000 23.000000z M 4683.000000 -933.000000 C 5005.666667 -933.000000 5328.333333 -933.000000 5651.000000 -933.000000 C 5651.000000 -914.333333 5651.000000 -895.666667 5651.000000 -877.000000 C 5328.333333 -877.000000 5005.666667 -877.000000 4683.000000 -877.000000 C 4683.000000 -895.666667 4683.000000 -914.333333 4683.000000 -933.000000z M 5140.000000 -1584.000000 C 5159.000000 -1584.000000 5178.000000 -1584.000000 5197.000000 -1584.000000 C 5197.000000 -1039.333333 5197.000000 -494.666667 5197.000000 50.000000 C 5178.000000 50.000000 5159.000000 50.000000 5140.000000 50.000000 C 5140.000000 -494.666667 5140.000000 -1039.333333 5140.000000 -1584.000000z M 3955.000000 -1229.000000 C 4170.000000 -1229.000000 4385.000000 -1229.000000 4600.000000 -1229.000000 C 4600.000000 -1210.333333 4600.000000 -1191.666667 4600.000000 -1173.000000 C 4385.000000 -1173.000000 4170.000000 -1173.000000 3955.000000 -1173.000000 C 3955.000000 -1191.666667 3955.000000 -1210.333333 3955.000000 -1229.000000z M 4287.000000 -735.000000 C 4306.333333 -757.666667 4325.666667 -780.333333 4345.000000 -803.000000 C 4345.000000 -490.666667 4345.000000 -178.333333 4345.000000 134.000000 C 4325.666667 134.000000 4306.333333 134.000000 4287.000000 134.000000 C 4287.000000 -155.666667 4287.000000 -445.333333 4287.000000 -735.000000z M 4287.000000 -1596.000000 C 4306.333333 -1596.000000 4325.666667 -1596.000000 4345.000000 -1596.000000 C 4345.000000 -1462.666667 4345.000000 -1329.333333 4345.000000 -1196.000000 C 4325.666667 -1196.000000 4306.333333 -1196.000000 4287.000000 -1196.000000 C 4287.000000 -1329.333333 4287.000000 -1462.666667 4287.000000 -1596.000000z M 4343.000000 -793.000000 C 4358.333333 -781.666667 4382.333333 -762.000000 4415.000000 -734.000000 C 4447.666667 -706.666667 4482.666667 -677.000000 4520.000000 -645.000000 C 4558.000000 -613.000000 4593.000000 -583.333333 4625.000000 -556.000000 C 4657.000000 -529.333333 4680.000000 -509.666667 4694.000000 -497.000000 C 4682.000000 -481.000000 4670.000000 -465.000000 4658.000000 -449.000000 C 4641.333333 -465.666667 4617.333333 -488.000000 4586.000000 -516.000000 C 4554.666667 -544.666667 4520.666667 -575.000000 4484.000000 -607.000000 C 4447.333333 -639.000000 4412.666667 -668.666667 4380.000000 -696.000000 C 4348.000000 -723.333333 4323.000000 -743.333333 4305.000000 -756.000000 C 4317.666667 -768.333333 4330.333333 -780.666667 4343.000000 -793.000000z M 4577.000000 -1229.000000 C 4581.666667 -1229.000000 4586.333333 -1229.000000 4591.000000 -1229.000000 C 4595.333333 -1230.333333 4599.666667 -1231.666667 4604.000000 -1233.000000 C 4615.666667 -1225.333333 4627.333333 -1217.666667 4639.000000 -1210.000000 C 4591.666667 -1099.333333 4529.000000 -993.333333 4451.000000 -892.000000 C 4373.666667 -791.333333 4290.000000 -699.333333 4200.000000 -616.000000 C 4110.000000 -533.333333 4021.333333 -462.333333 3934.000000 -403.000000 C 3931.333333 -408.333333 3927.333333 -413.333333 3922.000000 -418.000000 C 3917.333333 -423.333333 3912.666667 -428.333333 3908.000000 -433.000000 C 3903.333333 -437.666667 3898.666667 -441.333333 3894.000000 -444.000000 C 3980.666667 -498.666667 4068.000000 -566.666667 4156.000000 -648.000000 C 4244.666667 -729.333333 4326.333333 -818.666667 4401.000000 -916.000000 C 4476.333333 -1013.333333 4535.000000 -1112.000000 4577.000000 -1212.000000 C 4577.000000 -1217.666667 4577.000000 -1223.333333 4577.000000 -1229.000000z "/>
</g>
<g><path d="M 5956.000000 -2.000000 C 6064.666667 -4.666667 6193.000000 -8.333333 6341.000000 -13.000000 C 6489.666667 -18.333333 6649.000000 -24.000000 6819.000000 -30.000000 C 6989.666667 -36.666667 7160.666667 -44.000000 7332.000000 -52.000000 C 7331.666667 -34.000000 7331.333333 -16.000000 7331.000000 2.000000 C 7164.333333 9.333333 6997.333333 16.666667 6830.000000 24.000000 C 6663.333333 31.333333 6505.333333 37.666667 6356.000000 43.000000 C 6206.666667 49.000000 6076.000000 54.000000 5964.000000 58.000000 C 5961.333333 38.000000 5958.666667 18.000000 5956.000000 -2.000000z M 5933.000000 -616.000000 C 6461.666667 -616.000000 6990.333333 -616.000000 7519.000000 -616.000000 C 7519.000000 -597.000000 7519.000000 -578.000000 7519.000000 -559.000000 C 6990.333333 -559.000000 6461.666667 -559.000000 5933.000000 -559.000000 C 5933.000000 -578.000000 5933.000000 -597.000000 5933.000000 -616.000000z M 6248.000000 -983.000000 C 6559.000000 -983.000000 6870.000000 -983.000000 7181.000000 -983.000000 C 7181.000000 -963.666667 7181.000000 -944.333333 7181.000000 -925.000000 C 6870.000000 -925.000000 6559.000000 -925.000000 6248.000000 -925.000000 C 6248.000000 -944.333333 6248.000000 -963.666667 6248.000000 -983.000000z M 6515.000000 -584.000000 C 6534.666667 -577.333333 6554.333333 -570.666667 6574.000000 -564.000000 C 6544.666667 -501.333333 6512.666667 -434.000000 6478.000000 -362.000000 C 6443.333333 -290.666667 6407.666667 -220.333333 6371.000000 -151.000000 C 6335.000000 -82.333333 6299.666667 -21.000000 6265.000000 33.000000 C 6247.000000 26.333333 6229.000000 19.666667 6211.000000 13.000000 C 6245.666667 -40.333333 6281.666667 -102.000000 6319.000000 -172.000000 C 6357.000000 -242.666667 6393.333333 -314.333333 6428.000000 -387.000000 C 6462.666667 -460.333333 6491.666667 -526.000000 6515.000000 -584.000000z M 6950.000000 -374.000000 C 6964.333333 -383.000000 6978.666667 -392.000000 6993.000000 -401.000000 C 7054.333333 -349.666667 7115.333333 -293.333333 7176.000000 -232.000000 C 7236.666667 -170.666667 7292.333333 -110.000000 7343.000000 -50.000000 C 7393.666667 10.000000 7433.666667 64.333333 7463.000000 113.000000 C 7447.666667 123.333333 7432.333333 133.666667 7417.000000 144.000000 C 7386.333333 95.333333 7345.666667 40.666667 7295.000000 -20.000000 C 7244.333333 -80.666667 7189.333333 -142.333333 7130.000000 -205.000000 C 7070.666667 -268.333333 7010.666667 -324.666667 6950.000000 -374.000000z M 6707.000000 -1536.000000 C 6654.333333 -1454.000000 6584.666667 -1369.666667 6498.000000 -1283.000000 C 6412.000000 -1197.000000 6316.000000 -1115.000000 6210.000000 -1037.000000 C 6104.666667 -959.000000 5996.333333 -890.333333 5885.000000 -831.000000 C 5882.333333 -836.333333 5879.000000 -841.333333 5875.000000 -846.000000 C 5871.000000 -851.333333 5867.000000 -856.666667 5863.000000 -862.000000 C 5859.666667 -867.333333 5855.333333 -872.000000 5850.000000 -876.000000 C 5961.333333 -932.000000 6070.000000 -999.000000 6176.000000 -1077.000000 C 6282.666667 -1155.000000 6379.333333 -1238.333333 6466.000000 -1327.000000 C 6553.333333 -1416.333333 6622.666667 -1505.333333 6674.000000 -1594.000000 C 6692.000000 -1594.000000 6710.000000 -1594.000000 6728.000000 -1594.000000 C 6778.666667 -1522.000000 6838.333333 -1451.000000 6907.000000 -1381.000000 C 6975.666667 -1311.666667 7049.000000 -1245.666667 7127.000000 -1183.000000 C 7205.000000 -1120.333333 7284.333333 -1063.333333 7365.000000 -1012.000000 C 7445.666667 -960.666667 7524.333333 -917.666667 7601.000000 -883.000000 C 7596.333333 -878.333333 7590.000000 -870.666667 7582.000000 -860.000000 C 7574.666667 -850.000000 7568.333333 -841.666667 7563.000000 -835.000000 C 7460.333333 -886.333333 7355.333333 -949.000000 7248.000000 -1023.000000 C 7140.666667 -1097.666667 7039.666667 -1179.000000 6945.000000 -1267.000000 C 6851.000000 -1355.666667 6771.666667 -1445.333333 6707.000000 -1536.000000z "/>
</g>
</svg>
