<?xml version="1.0" encoding="utf-8"?>
<svg xmlns="http://www.w3.org/2000/svg" xmlns:ev="http://www.w3.org/2001/xml-events" xmlns:xlink="http://www.w3.org/1999/xlink" version="1.1" baseProfile="full" width="9016.7" height="1735.0" viewBox="439.3 -1601.0 9016.7 1735.0">
<defs/>
<g><path d="M 1294.000000 -1450.000000 C 1284.000000 -1440.666667 1268.000000 -1425.666667 1246.000000 -1405.000000 C 1224.000000 -1385.000000 1208.000000 -1370.333333 1198.000000 -1361.000000 C 1163.333333 -1329.000000 1120.333333 -1291.000000 1069.000000 -1247.000000 C 1018.333333 -1203.000000 964.333333 -1157.666667 907.000000 -1111.000000 C 850.333333 -1064.333333 795.333333 -1019.333333 742.000000 -976.000000 C 688.666667 -933.333333 643.000000 -896.000000 605.000000 -864.000000 C 562.333333 -826.666667 533.333333 -795.333333 518.000000 -770.000000 C 502.666667 -745.333333 503.000000 -720.666667 519.000000 -696.000000 C 535.000000 -671.333333 566.666667 -639.000000 614.000000 -599.000000 C 655.333333 -565.666667 700.333333 -529.000000 749.000000 -489.000000 C 797.666667 -449.666667 847.666667 -408.000000 899.000000 -364.000000 C 951.000000 -320.000000 1003.333333 -274.666667 1056.000000 -228.000000 C 1108.666667 -182.000000 1159.666667 -135.666667 1209.000000 -89.000000 C 1258.333333 -42.333333 1304.000000 2.666667 1346.000000 46.000000 C 1329.333333 60.666667 1312.666667 75.333333 1296.000000 90.000000 C 1269.333333 59.333333 1237.333333 25.333333 1200.000000 -12.000000 C 1161.333333 -50.000000 1115.000000 -93.666667 1061.000000 -143.000000 C 1007.666667 -192.333333 951.333333 -242.666667 892.000000 -294.000000 C 832.666667 -346.000000 774.333333 -396.000000 717.000000 -444.000000 C 660.333333 -492.000000 609.000000 -534.666667 563.000000 -572.000000 C 505.000000 -619.333333 468.666667 -659.666667 454.000000 -693.000000 C 439.333333 -726.333333 442.333333 -759.333333 463.000000 -792.000000 C 484.333333 -824.666667 520.666667 -862.666667 572.000000 -906.000000 C 606.666667 -935.333333 650.333333 -971.333333 703.000000 -1014.000000 C 756.333333 -1057.333333 812.000000 -1103.000000 870.000000 -1151.000000 C 928.666667 -1199.000000 984.000000 -1245.333333 1036.000000 -1290.000000 C 1088.000000 -1334.666667 1130.000000 -1374.333333 1162.000000 -1409.000000 C 1172.000000 -1421.000000 1184.666667 -1436.333333 1200.000000 -1455.000000 C 1215.333333 -1474.333333 1226.333333 -1490.333333 1233.000000 -1503.000000 C 1253.333333 -1485.333333 1273.666667 -1467.666667 1294.000000 -1450.000000z "/>
</g>
<g><path d="M 3020.000000 -1478.000000 C 3020.000000 -1474.666667 3019.333333 -1467.666667 3018.000000 -1457.000000 C 3016.666667 -1447.000000 3015.666667 -1436.666667 3015.000000 -1426.000000 C 3014.333333 -1416.000000 3014.000000 -1408.000000 3014.000000 -1402.000000 C 3012.666667 -1377.333333 3012.000000 -1344.666667 3012.000000 -1304.000000 C 3012.000000 -1264.000000 3012.000000 -1220.000000 3012.000000 -1172.000000 C 3012.000000 -1124.000000 3012.333333 -1075.666667 3013.000000 -1027.000000 C 3013.666667 -978.333333 3014.333333 -932.333333 3015.000000 -889.000000 C 3015.666667 -845.666667 3016.000000 -808.666667 3016.000000 -778.000000 C 2998.333333 -800.333333 2980.666667 -822.666667 2963.000000 -845.000000 C 2963.000000 -855.000000 2963.000000 -876.666667 2963.000000 -910.000000 C 2963.000000 -943.333333 2962.666667 -983.333333 2962.000000 -1030.000000 C 2961.333333 -1076.666667 2960.666667 -1124.333333 2960.000000 -1173.000000 C 2959.333333 -1221.666667 2958.666667 -1266.333333 2958.000000 -1307.000000 C 2957.333333 -1348.333333 2956.333333 -1380.000000 2955.000000 -1402.000000 C 2955.000000 -1414.666667 2954.000000 -1429.666667 2952.000000 -1447.000000 C 2950.000000 -1464.333333 2948.333333 -1474.666667 2947.000000 -1478.000000 C 2971.333333 -1478.000000 2995.666667 -1478.000000 3020.000000 -1478.000000z M 2066.000000 -1183.000000 C 2113.333333 -1184.333333 2168.000000 -1186.000000 2230.000000 -1188.000000 C 2292.000000 -1190.666667 2359.000000 -1193.333333 2431.000000 -1196.000000 C 2503.666667 -1198.666667 2578.666667 -1201.000000 2656.000000 -1203.000000 C 2733.333333 -1205.000000 2810.000000 -1206.666667 2886.000000 -1208.000000 C 2962.666667 -1209.333333 3036.333333 -1210.000000 3107.000000 -1210.000000 C 3174.333333 -1210.000000 3236.333333 -1209.666667 3293.000000 -1209.000000 C 3350.333333 -1208.333333 3401.000000 -1208.000000 3445.000000 -1208.000000 C 3489.666667 -1208.000000 3528.000000 -1207.666667 3560.000000 -1207.000000 C 3592.000000 -1206.333333 3617.333333 -1206.000000 3636.000000 -1206.000000 C 3636.000000 -1186.666667 3636.000000 -1167.333333 3636.000000 -1148.000000 C 3588.666667 -1150.666667 3524.000000 -1152.666667 3442.000000 -1154.000000 C 3360.666667 -1155.333333 3249.333333 -1156.000000 3108.000000 -1156.000000 C 3030.000000 -1156.000000 2946.000000 -1155.333333 2856.000000 -1154.000000 C 2766.000000 -1152.666667 2673.666667 -1150.333333 2579.000000 -1147.000000 C 2485.000000 -1143.666667 2394.000000 -1139.333333 2306.000000 -1134.000000 C 2218.666667 -1129.333333 2139.333333 -1123.666667 2068.000000 -1117.000000 C 2067.333333 -1139.000000 2066.666667 -1161.000000 2066.000000 -1183.000000z M 3041.000000 -636.000000 C 3041.000000 -569.333333 3028.666667 -513.333333 3004.000000 -468.000000 C 2980.000000 -423.333333 2948.666667 -389.666667 2910.000000 -367.000000 C 2872.000000 -345.000000 2831.333333 -334.000000 2788.000000 -334.000000 C 2744.666667 -334.000000 2704.666667 -340.333333 2668.000000 -353.000000 C 2631.333333 -365.666667 2599.333333 -384.666667 2572.000000 -410.000000 C 2545.333333 -436.000000 2524.666667 -467.000000 2510.000000 -503.000000 C 2495.333333 -539.000000 2488.000000 -580.000000 2488.000000 -626.000000 C 2488.000000 -680.666667 2501.333333 -731.000000 2528.000000 -777.000000 C 2555.333333 -823.666667 2591.333333 -861.333333 2636.000000 -890.000000 C 2680.666667 -918.666667 2729.333333 -933.000000 2782.000000 -933.000000 C 2847.333333 -933.000000 2901.000000 -918.333333 2943.000000 -889.000000 C 2985.666667 -859.666667 3017.333333 -818.666667 3038.000000 -766.000000 C 3059.333333 -713.333333 3070.000000 -652.666667 3070.000000 -584.000000 C 3070.000000 -517.333333 3062.000000 -451.666667 3046.000000 -387.000000 C 3030.000000 -322.333333 3002.333333 -260.666667 2963.000000 -202.000000 C 2924.333333 -144.000000 2870.666667 -91.000000 2802.000000 -43.000000 C 2734.000000 5.000000 2646.666667 45.666667 2540.000000 79.000000 C 2522.000000 63.000000 2504.000000 47.000000 2486.000000 31.000000 C 2580.000000 7.666667 2660.000000 -22.666667 2726.000000 -60.000000 C 2792.666667 -98.000000 2847.000000 -142.666667 2889.000000 -194.000000 C 2931.666667 -245.333333 2962.666667 -302.666667 2982.000000 -366.000000 C 3002.000000 -429.333333 3012.000000 -498.000000 3012.000000 -572.000000 C 3012.000000 -683.333333 2990.000000 -762.333333 2946.000000 -809.000000 C 2902.000000 -855.666667 2848.666667 -879.000000 2786.000000 -879.000000 C 2744.000000 -879.000000 2704.666667 -868.000000 2668.000000 -846.000000 C 2631.333333 -824.666667 2601.666667 -795.000000 2579.000000 -757.000000 C 2557.000000 -719.666667 2546.000000 -676.000000 2546.000000 -626.000000 C 2546.000000 -549.333333 2569.666667 -490.333333 2617.000000 -449.000000 C 2664.333333 -408.333333 2721.333333 -388.000000 2788.000000 -388.000000 C 2838.000000 -388.000000 2879.333333 -400.666667 2912.000000 -426.000000 C 2944.666667 -452.000000 2969.333333 -488.000000 2986.000000 -534.000000 C 3002.666667 -580.000000 3011.000000 -633.000000 3011.000000 -693.000000 C 3021.000000 -674.000000 3031.000000 -655.000000 3041.000000 -636.000000z M 3300.000000 -1500.000000 C 3322.000000 -1470.000000 3348.000000 -1432.000000 3378.000000 -1386.000000 C 3408.000000 -1340.000000 3433.333333 -1298.333333 3454.000000 -1261.000000 C 3435.333333 -1251.666667 3416.666667 -1242.333333 3398.000000 -1233.000000 C 3378.000000 -1271.000000 3353.333333 -1313.000000 3324.000000 -1359.000000 C 3295.333333 -1405.000000 3269.666667 -1443.666667 3247.000000 -1475.000000 C 3264.666667 -1483.333333 3282.333333 -1491.666667 3300.000000 -1500.000000z M 3510.000000 -1544.000000 C 3531.333333 -1514.666667 3556.333333 -1477.666667 3585.000000 -1433.000000 C 3614.333333 -1389.000000 3640.333333 -1347.333333 3663.000000 -1308.000000 C 3644.000000 -1298.333333 3625.000000 -1288.666667 3606.000000 -1279.000000 C 3585.333333 -1319.666667 3561.000000 -1362.000000 3533.000000 -1406.000000 C 3505.666667 -1450.666667 3480.000000 -1488.333333 3456.000000 -1519.000000 C 3474.000000 -1527.333333 3492.000000 -1535.666667 3510.000000 -1544.000000z "/>
</g>
<g><path d="M 4433.000000 -1469.000000 C 4429.666667 -1445.666667 4427.333333 -1424.333333 4426.000000 -1405.000000 C 4424.666667 -1386.333333 4423.333333 -1364.000000 4422.000000 -1338.000000 C 4420.666667 -1282.000000 4418.333333 -1212.000000 4415.000000 -1128.000000 C 4411.666667 -1044.000000 4409.000000 -954.000000 4407.000000 -858.000000 C 4405.000000 -762.000000 4403.000000 -665.333333 4401.000000 -568.000000 C 4399.666667 -470.666667 4399.000000 -380.666667 4399.000000 -298.000000 C 4399.000000 -222.000000 4414.333333 -161.000000 4445.000000 -115.000000 C 4475.666667 -69.000000 4518.333333 -35.666667 4573.000000 -15.000000 C 4628.333333 5.000000 4692.000000 15.000000 4764.000000 15.000000 C 4860.000000 15.000000 4945.333333 3.333333 5020.000000 -20.000000 C 5094.666667 -44.000000 5160.333333 -75.333333 5217.000000 -114.000000 C 5274.333333 -153.333333 5324.333333 -196.666667 5367.000000 -244.000000 C 5410.333333 -291.333333 5449.333333 -338.666667 5484.000000 -386.000000 C 5498.000000 -370.000000 5512.000000 -354.000000 5526.000000 -338.000000 C 5491.333333 -293.333333 5450.666667 -247.000000 5404.000000 -199.000000 C 5357.333333 -151.000000 5303.000000 -106.666667 5241.000000 -66.000000 C 5179.666667 -26.000000 5109.000000 6.333333 5029.000000 31.000000 C 4949.000000 56.333333 4858.666667 69.000000 4758.000000 69.000000 C 4678.666667 69.000000 4607.666667 57.000000 4545.000000 33.000000 C 4482.333333 9.666667 4432.666667 -30.000000 4396.000000 -86.000000 C 4359.333333 -142.666667 4341.000000 -221.000000 4341.000000 -321.000000 C 4341.000000 -383.666667 4341.666667 -451.000000 4343.000000 -523.000000 C 4344.333333 -595.666667 4346.333333 -669.666667 4349.000000 -745.000000 C 4351.666667 -820.333333 4353.666667 -894.000000 4355.000000 -966.000000 C 4357.000000 -1038.666667 4358.666667 -1107.000000 4360.000000 -1171.000000 C 4361.333333 -1235.000000 4362.000000 -1290.666667 4362.000000 -1338.000000 C 4362.000000 -1364.000000 4361.333333 -1387.666667 4360.000000 -1409.000000 C 4358.666667 -1431.000000 4356.333333 -1451.000000 4353.000000 -1469.000000 C 4379.666667 -1469.000000 4406.333333 -1469.000000 4433.000000 -1469.000000z "/>
</g>
<g><path d="M 7215.000000 -1227.000000 C 7234.333333 -1220.666667 7253.666667 -1214.333333 7273.000000 -1208.000000 C 7192.333333 -970.000000 7089.666667 -765.000000 6965.000000 -593.000000 C 6840.333333 -421.666667 6690.333333 -277.333333 6515.000000 -160.000000 C 6339.666667 -43.333333 6133.333333 54.666667 5896.000000 134.000000 C 5894.666667 129.333333 5891.666667 123.666667 5887.000000 117.000000 C 5883.000000 111.000000 5878.333333 104.333333 5873.000000 97.000000 C 5868.333333 89.666667 5863.333333 84.333333 5858.000000 81.000000 C 6093.333333 7.666667 6298.000000 -86.666667 6472.000000 -202.000000 C 6646.000000 -318.000000 6794.000000 -459.666667 6916.000000 -627.000000 C 7038.666667 -795.000000 7138.333333 -995.000000 7215.000000 -1227.000000z M 6211.000000 -1221.000000 C 6285.666667 -1001.000000 6385.333333 -803.666667 6510.000000 -629.000000 C 6634.666667 -454.333333 6786.666667 -306.333333 6966.000000 -185.000000 C 7145.333333 -64.333333 7352.000000 25.000000 7586.000000 83.000000 C 7582.000000 86.333333 7577.333333 91.333333 7572.000000 98.000000 C 7567.333333 104.666667 7562.333333 111.000000 7557.000000 117.000000 C 7551.666667 123.666667 7547.333333 129.333333 7544.000000 134.000000 C 7309.333333 72.666667 7102.333333 -19.666667 6923.000000 -143.000000 C 6744.333333 -266.333333 6591.666667 -417.333333 6465.000000 -596.000000 C 6338.333333 -774.666667 6235.666667 -977.333333 6157.000000 -1204.000000 C 6175.000000 -1209.666667 6193.000000 -1215.333333 6211.000000 -1221.000000z M 5868.000000 -1246.000000 C 6438.666667 -1246.000000 7009.333333 -1246.000000 7580.000000 -1246.000000 C 7580.000000 -1227.333333 7580.000000 -1208.666667 7580.000000 -1190.000000 C 7009.333333 -1190.000000 6438.666667 -1190.000000 5868.000000 -1190.000000 C 5868.000000 -1208.666667 5868.000000 -1227.333333 5868.000000 -1246.000000z M 6687.000000 -1596.000000 C 6706.333333 -1596.000000 6725.666667 -1596.000000 6745.000000 -1596.000000 C 6745.000000 -1468.333333 6745.000000 -1340.666667 6745.000000 -1213.000000 C 6725.666667 -1213.000000 6706.333333 -1213.000000 6687.000000 -1213.000000 C 6687.000000 -1340.666667 6687.000000 -1468.333333 6687.000000 -1596.000000z "/>
</g>
<g><path d="M 8125.000000 -1039.000000 C 8453.333333 -1039.000000 8781.666667 -1039.000000 9110.000000 -1039.000000 C 9110.000000 -1020.333333 9110.000000 -1001.666667 9110.000000 -983.000000 C 8781.666667 -983.000000 8453.333333 -983.000000 8125.000000 -983.000000 C 8125.000000 -1001.666667 8125.000000 -1020.333333 8125.000000 -1039.000000z M 7830.000000 -551.000000 C 8372.000000 -551.000000 8914.000000 -551.000000 9456.000000 -551.000000 C 9456.000000 -532.333333 9456.000000 -513.666667 9456.000000 -495.000000 C 8914.000000 -495.000000 8372.000000 -495.000000 7830.000000 -495.000000 C 7830.000000 -513.666667 7830.000000 -532.333333 7830.000000 -551.000000z M 8617.000000 -716.000000 C 8636.333333 -716.000000 8655.666667 -716.000000 8675.000000 -716.000000 C 8675.000000 -464.000000 8675.000000 -212.000000 8675.000000 40.000000 C 8675.000000 64.666667 8670.333333 83.000000 8661.000000 95.000000 C 8652.333333 107.000000 8637.000000 116.333333 8615.000000 123.000000 C 8594.333333 128.333333 8562.000000 131.000000 8518.000000 131.000000 C 8474.000000 131.666667 8410.333333 132.000000 8327.000000 132.000000 C 8325.666667 127.333333 8323.333333 122.000000 8320.000000 116.000000 C 8317.333333 110.666667 8314.333333 104.666667 8311.000000 98.000000 C 8307.666667 91.333333 8304.000000 85.666667 8300.000000 81.000000 C 8347.333333 81.000000 8389.666667 81.333333 8427.000000 82.000000 C 8465.000000 82.666667 8496.666667 82.666667 8522.000000 82.000000 C 8548.000000 81.333333 8566.333333 81.000000 8577.000000 81.000000 C 8592.333333 79.666667 8602.666667 76.000000 8608.000000 70.000000 C 8614.000000 64.000000 8617.000000 54.666667 8617.000000 42.000000 C 8617.000000 -210.666667 8617.000000 -463.333333 8617.000000 -716.000000z M 9095.000000 -1039.000000 C 9099.333333 -1039.000000 9103.666667 -1039.000000 9108.000000 -1039.000000 C 9112.666667 -1040.333333 9117.333333 -1041.666667 9122.000000 -1043.000000 C 9135.333333 -1033.333333 9148.666667 -1023.666667 9162.000000 -1014.000000 C 9120.000000 -969.333333 9070.666667 -924.333333 9014.000000 -879.000000 C 8958.000000 -834.333333 8899.666667 -792.333333 8839.000000 -753.000000 C 8779.000000 -714.333333 8721.666667 -681.000000 8667.000000 -653.000000 C 8663.000000 -659.000000 8657.000000 -665.666667 8649.000000 -673.000000 C 8641.666667 -680.333333 8634.666667 -685.666667 8628.000000 -689.000000 C 8683.333333 -716.333333 8740.000000 -748.666667 8798.000000 -786.000000 C 8856.666667 -824.000000 8911.666667 -863.666667 8963.000000 -905.000000 C 9015.000000 -947.000000 9059.000000 -987.000000 9095.000000 -1025.000000 C 9095.000000 -1029.666667 9095.000000 -1034.333333 9095.000000 -1039.000000z M 8609.000000 -1601.000000 C 8628.333333 -1601.000000 8647.666667 -1601.000000 8667.000000 -1601.000000 C 8667.000000 -1511.000000 8667.000000 -1421.000000 8667.000000 -1331.000000 C 8647.666667 -1331.000000 8628.333333 -1331.000000 8609.000000 -1331.000000 C 8609.000000 -1421.000000 8609.000000 -1511.000000 8609.000000 -1601.000000z M 7859.000000 -1363.000000 C 8380.333333 -1363.000000 8901.666667 -1363.000000 9423.000000 -1363.000000 C 9423.000000 -1228.000000 9423.000000 -1093.000000 9423.000000 -958.000000 C 9404.000000 -958.000000 9385.000000 -958.000000 9366.000000 -958.000000 C 9366.000000 -1074.000000 9366.000000 -1190.000000 9366.000000 -1306.000000 C 8882.666667 -1306.000000 8399.333333 -1306.000000 7916.000000 -1306.000000 C 7916.000000 -1190.000000 7916.000000 -1074.000000 7916.000000 -958.000000 C 7897.000000 -958.000000 7878.000000 -958.000000 7859.000000 -958.000000 C 7859.000000 -1093.000000 7859.000000 -1228.000000 7859.000000 -1363.000000z "/>
</g>
</svg>
