<?xml version="1.0" ?>
<svg xmlns="http://www.w3.org/2000/svg" version="1.1" width="600" height="600">
  <defs/>
  <g>
    <path stroke-width="0" fill="rgb(0, 0, 0)" opacity="1.0" d="M 392.086181640625 123.958251953125 C 391.9344482421875 126.23529052734375 391.78271484375 129.1954345703125 391.630859375 132.83871459960938 C 391.479248046875 136.33016967773438 391.4033203125 140.50473022460938 391.4033203125 145.3624267578125 C 391.4033203125 147.94308471679688 391.479248046875 152.3453369140625 391.630859375 158.56924438476562 C 391.78271484375 164.641357421875 391.9344482421875 171.70016479492188 392.086181640625 179.7457275390625 C 392.3896484375 187.79129028320312 392.6173095703125 196.06451416015625 392.76904296875 204.56546020507812 C 392.9208984375 212.91461181640625 393.072509765625 220.732421875 393.224365234375 228.01898193359375 C 393.3760986328125 235.30548095703125 393.451904296875 241.30169677734375 393.451904296875 246.007568359375 C 393.451904296875 270.44781494140625 393.224365234375 293.6736145019531 392.76904296875 315.68499755859375 C 392.3138427734375 337.6964111328125 389.734130859375 358.41748046875 385.02978515625 377.84820556640625 C 380.477294921875 397.12713623046875 371.751708984375 415.11572265625 358.85302734375 431.81402587890625 C 346.1060791015625 448.36053466796875 327.5167236328125 463.3890380859375 303.0850830078125 476.8994140625 C 298.68438720703125 473.48388671875 294.2835693359375 470.06829833984375 289.88287353515625 466.6527099609375 C 295.194091796875 464.6793212890625 300.96063232421875 461.8709716796875 307.18231201171875 458.2276611328125 C 313.404052734375 454.58447265625 318.86700439453125 450.865234375 323.5712890625 447.0701904296875 C 338.74627685546875 435.38140869140625 350.2791748046875 422.78173828125 358.170166015625 409.2713623046875 C 366.212890625 395.7608642578125 371.82763671875 380.88427734375 375.014404296875 364.641357421875 C 378.3529052734375 348.2467041015625 380.173828125 330.258056640625 380.477294921875 310.675537109375 C 380.9326171875 291.09295654296875 381.16015625 269.5369873046875 381.16015625 246.007568359375 C 381.16015625 240.0872802734375 381.008544921875 232.19354248046875 380.7049560546875 222.32635498046875 C 380.55322265625 212.45916748046875 380.249755859375 202.2125244140625 379.79443359375 191.58633422851562 C 379.3392333984375 180.96014404296875 378.9598388671875 171.39657592773438 378.6563720703125 162.8956298828125 C 378.3529052734375 154.39468383789062 378.04931640625 148.70208740234375 377.745849609375 145.81784057617188 C 377.4423828125 141.11196899414062 376.9111328125 137.08917236328125 376.1524658203125 133.74951171875 C 375.54541015625 130.40988159179688 374.9384765625 127.1461181640625 374.33154296875 123.958251953125 C 380.249755859375 123.958251953125 386.16796875 123.958251953125 392.086181640625 123.958251953125M 245.26849365234375 219.3662109375 C 250.88323974609375 220.125244140625 257.93963623046875 220.96014404296875 266.43756103515625 221.8709716796875 C 275.0872802734375 222.78179931640625 284.1922607421875 223.46490478515625 293.75250244140625 223.9202880859375 C 303.4644775390625 224.37570190429688 312.26593017578125 224.6033935546875 320.15692138671875 224.6033935546875 C 337.3045654296875 224.6033935546875 354.5281982421875 224.14801025390625 371.82763671875 223.2371826171875 C 389.1270751953125 222.32635498046875 406.047119140625 220.808349609375 422.587890625 218.68310546875 C 439.2802734375 216.40606689453125 455.062255859375 213.29412841796875 469.9337158203125 209.34722900390625 C 469.9337158203125 214.1290283203125 469.9337158203125 218.91082763671875 469.9337158203125 223.69259643554688 C 455.669189453125 226.57684326171875 440.1907958984375 229.08160400390625 423.498291015625 231.20684814453125 C 406.9576416015625 233.18026733398438 389.8857421875 234.62237548828125 372.282958984375 235.533203125 C 354.679931640625 236.29220581054688 337.15289306640625 236.67172241210938 319.70166015625 236.67172241210938 C 312.11419677734375 236.67172241210938 303.4644775390625 236.5958251953125 293.75250244140625 236.44403076171875 C 284.1922607421875 236.14041137695312 275.0872802734375 235.76092529296875 266.43756103515625 235.30548095703125 C 257.93963623046875 234.85009765625 250.88323974609375 234.31878662109375 245.26849365234375 233.71157836914062 C 245.26849365234375 228.9298095703125 245.26849365234375 224.14801025390625 245.26849365234375 219.3662109375M 167.64862060546875 129.65084838867188 C 167.0416259765625 132.23150634765625 166.28289794921875 135.41937255859375 165.37237548828125 139.21441650390625 C 164.4619140625 143.00946044921875 163.5513916015625 146.8045654296875 162.640869140625 150.599609375 C 158.39190673828125 170.18215942382812 154.52227783203125 190.90322875976562 151.03204345703125 212.7628173828125 C 147.54180908203125 234.62237548828125 144.9620361328125 257.08917236328125 143.2928466796875 280.1631774902344 C 141.62359619140625 303.08538818359375 141.4718017578125 326.159423828125 142.83758544921875 349.38519287109375 C 144.20330810546875 372.61102294921875 147.61767578125 395.38140869140625 153.0806884765625 417.6964111328125 C 156.26739501953125 405.85577392578125 160.212890625 392.4971923828125 164.9171142578125 377.6204833984375 C 169.62139892578125 362.74383544921875 174.3255615234375 348.474365234375 179.02984619140625 334.8121337890625 C 182.36834716796875 336.557861328125 185.706787109375 338.3035888671875 189.0452880859375 340.04931640625 C 186.3138427734375 347.63946533203125 183.1270751953125 357.12713623046875 179.485107421875 368.5123291015625 C 175.84307861328125 379.7457275390625 172.3529052734375 390.75140380859375 169.01434326171875 401.5294189453125 C 165.67584228515625 412.307373046875 163.32379150390625 420.808349609375 161.9580078125 427.0322265625 C 161.35101318359375 429.91650390625 160.895751953125 432.95257568359375 160.59228515625 436.140380859375 C 160.288818359375 439.3282470703125 160.288818359375 442.2125244140625 160.59228515625 444.793212890625 C 160.895751953125 446.91839599609375 161.19927978515625 449.04364013671875 161.50274658203125 451.16888427734375 C 161.8062744140625 453.142333984375 162.10980224609375 454.8121337890625 162.41326904296875 456.1783447265625 C 158.77130126953125 456.9373779296875 155.1292724609375 457.6964111328125 151.4873046875 458.4554443359375 C 148.75579833984375 449.3472900390625 145.7208251953125 437.734375 142.38232421875 423.61669921875 C 139.0438232421875 409.4990234375 136.16064453125 393.7874755859375 133.73260498046875 376.48193359375 C 131.45635986328125 359.17645263671875 130.3182373046875 341.33966064453125 130.3182373046875 322.9715576171875 C 130.3182373046875 299.2903137207031 131.5322265625 276.5199279785156 133.960205078125 254.66033935546875 C 136.5399169921875 232.80075073242188 139.34735107421875 212.6868896484375 142.38232421875 194.31878662109375 C 145.41729736328125 175.95068359375 147.69354248046875 160.69448852539062 149.2110595703125 148.55029296875 C 149.81805419921875 144.45159912109375 150.2733154296875 140.50473022460938 150.5767822265625 136.70968627929688 C 150.88031005859375 132.91461181640625 151.03204345703125 129.80264282226562 151.03204345703125 127.37380981445312 C 156.57086181640625 128.13284301757812 162.10980224609375 128.89181518554688 167.64862060546875 129.65084838867188"/>
  </g>
</svg>
