<?xml version="1.0" encoding="utf-8"?>
<svg xmlns="http://www.w3.org/2000/svg" xmlns:ev="http://www.w3.org/2001/xml-events" xmlns:xlink="http://www.w3.org/1999/xlink" version="1.1" baseProfile="full" width="7488.0" height="1736.0" viewBox="98.0 -1596.0 7488.0 1736.0">
<defs/>
<g><path d="M 952.000000 -1536.000000 C 914.000000 -1470.666667 866.000000 -1402.000000 808.000000 -1330.000000 C 750.666667 -1258.666667 685.333333 -1187.000000 612.000000 -1115.000000 C 539.333333 -1043.666667 462.666667 -975.333333 382.000000 -910.000000 C 301.333333 -844.666667 218.666667 -785.666667 134.000000 -733.000000 C 132.000000 -737.000000 129.000000 -741.666667 125.000000 -747.000000 C 121.000000 -752.333333 116.666667 -757.333333 112.000000 -762.000000 C 108.000000 -767.333333 103.333333 -772.000000 98.000000 -776.000000 C 210.666667 -844.666667 320.000000 -924.333333 426.000000 -1015.000000 C 532.666667 -1106.333333 628.666667 -1202.000000 714.000000 -1302.000000 C 800.000000 -1402.666667 868.666667 -1500.666667 920.000000 -1596.000000 C 937.666667 -1596.000000 955.333333 -1596.000000 973.000000 -1596.000000 C 1021.666667 -1521.333333 1079.666667 -1446.333333 1147.000000 -1371.000000 C 1214.333333 -1295.666667 1286.333333 -1222.333333 1363.000000 -1151.000000 C 1439.666667 -1079.666667 1518.000000 -1014.000000 1598.000000 -954.000000 C 1678.000000 -894.000000 1756.000000 -842.333333 1832.000000 -799.000000 C 1825.333333 -793.666667 1817.666667 -786.000000 1809.000000 -776.000000 C 1801.000000 -766.666667 1795.000000 -759.000000 1791.000000 -753.000000 C 1714.333333 -799.000000 1636.333333 -852.333333 1557.000000 -913.000000 C 1477.666667 -973.666667 1400.333333 -1038.666667 1325.000000 -1108.000000 C 1250.333333 -1177.333333 1181.000000 -1248.333333 1117.000000 -1321.000000 C 1053.000000 -1393.666667 998.000000 -1465.333333 952.000000 -1536.000000z M 968.000000 -611.000000 C 1177.333333 -611.000000 1386.666667 -611.000000 1596.000000 -611.000000 C 1596.000000 -591.666667 1596.000000 -572.333333 1596.000000 -553.000000 C 1386.666667 -553.000000 1177.333333 -553.000000 968.000000 -553.000000 C 968.000000 -572.333333 968.000000 -591.666667 968.000000 -611.000000z M 148.000000 21.000000 C 692.666667 21.000000 1237.333333 21.000000 1782.000000 21.000000 C 1782.000000 39.666667 1782.000000 58.333333 1782.000000 77.000000 C 1237.333333 77.000000 692.666667 77.000000 148.000000 77.000000 C 148.000000 58.333333 148.000000 39.666667 148.000000 21.000000z M 943.000000 -1098.000000 C 962.000000 -1098.000000 981.000000 -1098.000000 1000.000000 -1098.000000 C 1000.000000 -716.666667 1000.000000 -335.333333 1000.000000 46.000000 C 981.000000 46.000000 962.000000 46.000000 943.000000 46.000000 C 943.000000 -335.333333 943.000000 -716.666667 943.000000 -1098.000000z M 426.000000 -735.000000 C 444.666667 -735.000000 463.333333 -735.000000 482.000000 -735.000000 C 482.000000 -476.000000 482.000000 -217.000000 482.000000 42.000000 C 463.333333 42.000000 444.666667 42.000000 426.000000 42.000000 C 426.000000 -217.000000 426.000000 -476.000000 426.000000 -735.000000z "/>
</g></svg>
