<?xml version="1.0" encoding="utf-8"?>
<svg xmlns="http://www.w3.org/2000/svg" xmlns:ev="http://www.w3.org/2001/xml-events" xmlns:xlink="http://www.w3.org/1999/xlink" version="1.1" baseProfile="full" width="41856.0" height="1776.0" viewBox="67.0 -1634.0 41856.0 1776.0">
<defs/>
<g><path d="M 31868.000000 -1250.000000 C 32083.000000 -1250.000000 32298.000000 -1250.000000 32513.000000 -1250.000000 C 32513.000000 -1230.666667 32513.000000 -1211.333333 32513.000000 -1192.000000 C 32298.000000 -1192.000000 32083.000000 -1192.000000 31868.000000 -1192.000000 C 31868.000000 -1211.333333 31868.000000 -1230.666667 31868.000000 -1250.000000z M 30829.000000 -1469.000000 C 31151.666667 -1469.000000 31474.333333 -1469.000000 31797.000000 -1469.000000 C 31797.000000 -1449.666667 31797.000000 -1430.333333 31797.000000 -1411.000000 C 31474.333333 -1411.000000 31151.666667 -1411.000000 30829.000000 -1411.000000 C 30829.000000 -1430.333333 30829.000000 -1449.666667 30829.000000 -1469.000000z M 32124.000000 -1219.000000 C 32133.333333 -1219.000000 32142.666667 -1219.000000 32152.000000 -1219.000000 C 32152.000000 -1101.333333 32152.000000 -983.666667 32152.000000 -866.000000 C 32152.000000 -844.000000 32154.666667 -805.333333 32160.000000 -750.000000 C 32165.333333 -695.333333 32175.666667 -631.000000 32191.000000 -557.000000 C 32206.333333 -483.666667 32229.666667 -407.333333 32261.000000 -328.000000 C 32292.333333 -248.666667 32334.000000 -172.000000 32386.000000 -98.000000 C 32438.666667 -24.666667 32504.000000 38.000000 32582.000000 90.000000 C 32580.000000 94.000000 32576.333333 98.333333 32571.000000 103.000000 C 32565.666667 108.333333 32560.333333 114.000000 32555.000000 120.000000 C 32550.333333 126.000000 32546.666667 130.666667 32544.000000 134.000000 C 32462.000000 76.666667 32394.333333 10.333333 32341.000000 -65.000000 C 32288.333333 -141.000000 32246.666667 -217.666667 32216.000000 -295.000000 C 32185.333333 -372.333333 32163.000000 -443.000000 32149.000000 -507.000000 C 32135.666667 -571.000000 32127.333333 -620.333333 32124.000000 -655.000000 C 32121.333333 -620.333333 32112.666667 -571.333333 32098.000000 -508.000000 C 32084.000000 -444.666667 32061.333333 -374.333333 32030.000000 -297.000000 C 31998.666667 -220.333333 31955.666667 -144.000000 31901.000000 -68.000000 C 31847.000000 8.000000 31777.666667 76.000000 31693.000000 136.000000 C 31691.000000 132.666667 31687.333333 128.333333 31682.000000 123.000000 C 31676.666667 117.666667 31671.666667 112.333333 31667.000000 107.000000 C 31663.000000 102.333333 31659.000000 98.000000 31655.000000 94.000000 C 31737.000000 39.333333 31804.666667 -25.000000 31858.000000 -99.000000 C 31912.000000 -173.666667 31955.000000 -250.333333 31987.000000 -329.000000 C 32019.000000 -407.666667 32043.000000 -483.333333 32059.000000 -556.000000 C 32075.000000 -629.333333 32085.333333 -693.333333 32090.000000 -748.000000 C 32094.666667 -803.333333 32097.000000 -842.666667 32097.000000 -866.000000 C 32097.000000 -983.666667 32097.000000 -1101.333333 32097.000000 -1219.000000 C 32106.000000 -1219.000000 32115.000000 -1219.000000 32124.000000 -1219.000000z M 31914.000000 -1588.000000 C 31933.333333 -1584.666667 31952.666667 -1581.333333 31972.000000 -1578.000000 C 31956.666667 -1477.333333 31937.666667 -1379.000000 31915.000000 -1283.000000 C 31893.000000 -1187.000000 31867.333333 -1097.000000 31838.000000 -1013.000000 C 31809.333333 -929.000000 31776.000000 -854.333333 31738.000000 -789.000000 C 31735.333333 -791.666667 31730.666667 -794.666667 31724.000000 -798.000000 C 31718.000000 -802.000000 31711.333333 -805.666667 31704.000000 -809.000000 C 31696.666667 -812.333333 31690.000000 -814.666667 31684.000000 -816.000000 C 31723.333333 -880.000000 31757.666667 -953.333333 31787.000000 -1036.000000 C 31817.000000 -1118.666667 31842.000000 -1206.666667 31862.000000 -1300.000000 C 31882.666667 -1393.333333 31900.000000 -1489.333333 31914.000000 -1588.000000z M 32492.000000 -1250.000000 C 32496.000000 -1250.000000 32500.000000 -1250.000000 32504.000000 -1250.000000 C 32508.333333 -1251.333333 32512.666667 -1252.666667 32517.000000 -1254.000000 C 32529.333333 -1248.666667 32541.666667 -1243.333333 32554.000000 -1238.000000 C 32543.333333 -1188.666667 32531.666667 -1136.333333 32519.000000 -1081.000000 C 32506.333333 -1025.666667 32492.666667 -973.000000 32478.000000 -923.000000 C 32463.333333 -873.666667 32448.333333 -830.333333 32433.000000 -793.000000 C 32416.333333 -797.333333 32399.666667 -801.666667 32383.000000 -806.000000 C 32398.333333 -842.000000 32412.666667 -884.333333 32426.000000 -933.000000 C 32439.333333 -981.666667 32451.666667 -1032.333333 32463.000000 -1085.000000 C 32475.000000 -1137.666667 32484.666667 -1186.333333 32492.000000 -1231.000000 C 32492.000000 -1237.333333 32492.000000 -1243.666667 32492.000000 -1250.000000z M 31574.000000 -1438.000000 C 31593.333333 -1438.000000 31612.666667 -1438.000000 31632.000000 -1438.000000 C 31632.000000 -1237.000000 31632.000000 -1036.000000 31632.000000 -835.000000 C 31632.000000 -814.333333 31628.666667 -799.000000 31622.000000 -789.000000 C 31616.000000 -779.000000 31604.000000 -771.333333 31586.000000 -766.000000 C 31568.000000 -760.666667 31540.000000 -757.333333 31502.000000 -756.000000 C 31464.666667 -755.333333 31413.333333 -755.000000 31348.000000 -755.000000 C 31346.666667 -762.333333 31343.666667 -770.666667 31339.000000 -780.000000 C 31334.333333 -790.000000 31329.666667 -798.666667 31325.000000 -806.000000 C 31378.333333 -804.666667 31424.666667 -804.000000 31464.000000 -804.000000 C 31504.000000 -804.000000 31530.000000 -804.666667 31542.000000 -806.000000 C 31563.333333 -807.333333 31574.000000 -816.333333 31574.000000 -833.000000 C 31574.000000 -1034.666667 31574.000000 -1236.333333 31574.000000 -1438.000000z M 30962.000000 -1277.000000 C 31101.333333 -1277.000000 31240.666667 -1277.000000 31380.000000 -1277.000000 C 31380.000000 -1158.666667 31380.000000 -1040.333333 31380.000000 -922.000000 C 31240.666667 -922.000000 31101.333333 -922.000000 30962.000000 -922.000000 C 30962.000000 -941.000000 30962.000000 -960.000000 30962.000000 -979.000000 C 31083.000000 -979.000000 31204.000000 -979.000000 31325.000000 -979.000000 C 31325.000000 -1059.000000 31325.000000 -1139.000000 31325.000000 -1219.000000 C 31204.000000 -1219.000000 31083.000000 -1219.000000 30962.000000 -1219.000000 C 30962.000000 -1238.333333 30962.000000 -1257.666667 30962.000000 -1277.000000z M 30931.000000 -1277.000000 C 30949.666667 -1277.000000 30968.333333 -1277.000000 30987.000000 -1277.000000 C 30987.000000 -1132.333333 30987.000000 -987.666667 30987.000000 -843.000000 C 30968.333333 -843.000000 30949.666667 -843.000000 30931.000000 -843.000000 C 30931.000000 -987.666667 30931.000000 -1132.333333 30931.000000 -1277.000000z M 30950.000000 -467.000000 C 31097.333333 -467.000000 31244.666667 -467.000000 31392.000000 -467.000000 C 31392.000000 -340.666667 31392.000000 -214.333333 31392.000000 -88.000000 C 31244.666667 -88.000000 31097.333333 -88.000000 30950.000000 -88.000000 C 30950.000000 -107.333333 30950.000000 -126.666667 30950.000000 -146.000000 C 31078.666667 -146.000000 31207.333333 -146.000000 31336.000000 -146.000000 C 31336.000000 -234.333333 31336.000000 -322.666667 31336.000000 -411.000000 C 31207.333333 -411.000000 31078.666667 -411.000000 30950.000000 -411.000000 C 30950.000000 -429.666667 30950.000000 -448.333333 30950.000000 -467.000000z M 30920.000000 -467.000000 C 30938.333333 -467.000000 30956.666667 -467.000000 30975.000000 -467.000000 C 30975.000000 -317.000000 30975.000000 -167.000000 30975.000000 -17.000000 C 30956.666667 -17.000000 30938.333333 -17.000000 30920.000000 -17.000000 C 30920.000000 -167.000000 30920.000000 -317.000000 30920.000000 -467.000000z M 30814.000000 -678.000000 C 31148.000000 -678.000000 31482.000000 -678.000000 31816.000000 -678.000000 C 31816.000000 -659.333333 31816.000000 -640.666667 31816.000000 -622.000000 C 31482.000000 -622.000000 31148.000000 -622.000000 30814.000000 -622.000000 C 30814.000000 -640.666667 30814.000000 -659.333333 30814.000000 -678.000000z M 31574.000000 -647.000000 C 31593.333333 -647.000000 31612.666667 -647.000000 31632.000000 -647.000000 C 31632.000000 -414.666667 31632.000000 -182.333333 31632.000000 50.000000 C 31632.000000 72.666667 31628.333333 89.333333 31621.000000 100.000000 C 31614.333333 111.333333 31601.333333 119.666667 31582.000000 125.000000 C 31562.666667 129.666667 31533.666667 132.333333 31495.000000 133.000000 C 31457.000000 133.666667 31405.333333 134.000000 31340.000000 134.000000 C 31338.666667 128.000000 31335.666667 120.000000 31331.000000 110.000000 C 31327.000000 100.666667 31322.333333 91.666667 31317.000000 83.000000 C 31373.666667 83.666667 31421.666667 84.000000 31461.000000 84.000000 C 31501.000000 84.000000 31527.333333 83.666667 31540.000000 83.000000 C 31554.000000 81.666667 31563.000000 79.000000 31567.000000 75.000000 C 31571.666667 71.000000 31574.000000 63.333333 31574.000000 52.000000 C 31574.000000 -181.000000 31574.000000 -414.000000 31574.000000 -647.000000z "/>
</g></svg>
