<?xml version="1.0" encoding="utf-8"?>
<svg xmlns="http://www.w3.org/2000/svg" xmlns:ev="http://www.w3.org/2001/xml-events" xmlns:xlink="http://www.w3.org/1999/xlink" version="1.1" baseProfile="full" width="34199.0" height="1607.0" viewBox="282.0 -1509.0 34199.0 1607.0">
<defs/>
<g><path d="M 26114.000000 -1494.000000 C 26114.000000 -1490.000000 26113.333333 -1482.666667 26112.000000 -1472.000000 C 26110.666667 -1462.000000 26109.666667 -1452.000000 26109.000000 -1442.000000 C 26108.333333 -1432.000000 26108.000000 -1423.666667 26108.000000 -1417.000000 C 26106.666667 -1392.333333 26106.000000 -1360.000000 26106.000000 -1320.000000 C 26106.000000 -1280.000000 26106.000000 -1236.000000 26106.000000 -1188.000000 C 26106.000000 -1140.000000 26106.333333 -1091.666667 26107.000000 -1043.000000 C 26107.666667 -994.333333 26108.333333 -948.000000 26109.000000 -904.000000 C 26109.666667 -860.666667 26110.000000 -823.666667 26110.000000 -793.000000 C 26092.000000 -815.333333 26074.000000 -837.666667 26056.000000 -860.000000 C 26056.000000 -870.666667 26056.000000 -892.333333 26056.000000 -925.000000 C 26056.000000 -958.333333 26055.666667 -998.333333 26055.000000 -1045.000000 C 26054.333333 -1092.333333 26053.666667 -1140.000000 26053.000000 -1188.000000 C 26052.333333 -1236.666667 26051.666667 -1281.333333 26051.000000 -1322.000000 C 26051.000000 -1363.333333 26050.333333 -1395.000000 26049.000000 -1417.000000 C 26049.000000 -1429.666667 26048.000000 -1444.666667 26046.000000 -1462.000000 C 26044.000000 -1479.333333 26042.333333 -1490.000000 26041.000000 -1494.000000 C 26065.333333 -1494.000000 26089.666667 -1494.000000 26114.000000 -1494.000000z M 25160.000000 -1198.000000 C 25207.333333 -1199.333333 25262.000000 -1201.333333 25324.000000 -1204.000000 C 25386.000000 -1206.666667 25453.000000 -1209.000000 25525.000000 -1211.000000 C 25597.666667 -1213.666667 25672.666667 -1216.000000 25750.000000 -1218.000000 C 25827.333333 -1220.000000 25904.000000 -1221.666667 25980.000000 -1223.000000 C 26056.666667 -1224.333333 26130.000000 -1225.000000 26200.000000 -1225.000000 C 26268.000000 -1225.000000 26330.333333 -1224.666667 26387.000000 -1224.000000 C 26444.333333 -1223.333333 26495.000000 -1223.000000 26539.000000 -1223.000000 C 26583.000000 -1223.000000 26621.000000 -1222.666667 26653.000000 -1222.000000 C 26685.000000 -1221.333333 26710.666667 -1221.000000 26730.000000 -1221.000000 C 26730.000000 -1202.000000 26730.000000 -1183.000000 26730.000000 -1164.000000 C 26682.666667 -1166.000000 26618.000000 -1167.666667 26536.000000 -1169.000000 C 26454.000000 -1170.333333 26342.666667 -1171.000000 26202.000000 -1171.000000 C 26124.000000 -1171.000000 26039.666667 -1170.333333 25949.000000 -1169.000000 C 25859.000000 -1167.666667 25767.000000 -1165.333333 25673.000000 -1162.000000 C 25579.000000 -1159.333333 25488.000000 -1155.333333 25400.000000 -1150.000000 C 25312.666667 -1144.666667 25233.333333 -1139.000000 25162.000000 -1133.000000 C 25161.333333 -1154.666667 25160.666667 -1176.333333 25160.000000 -1198.000000z M 26135.000000 -651.000000 C 26135.000000 -584.333333 26122.666667 -528.666667 26098.000000 -484.000000 C 26074.000000 -439.333333 26042.666667 -405.666667 26004.000000 -383.000000 C 25966.000000 -360.333333 25925.333333 -349.000000 25882.000000 -349.000000 C 25838.000000 -349.000000 25797.666667 -355.333333 25761.000000 -368.000000 C 25725.000000 -381.333333 25693.333333 -400.666667 25666.000000 -426.000000 C 25639.333333 -452.000000 25618.666667 -482.666667 25604.000000 -518.000000 C 25589.333333 -554.000000 25582.000000 -595.000000 25582.000000 -641.000000 C 25582.000000 -696.333333 25595.333333 -747.000000 25622.000000 -793.000000 C 25649.333333 -839.000000 25685.333333 -876.333333 25730.000000 -905.000000 C 25774.666667 -933.666667 25823.333333 -948.000000 25876.000000 -948.000000 C 25941.333333 -948.000000 25995.000000 -933.333333 26037.000000 -904.000000 C 26079.000000 -874.666667 26110.666667 -833.666667 26132.000000 -781.000000 C 26153.333333 -729.000000 26164.000000 -668.333333 26164.000000 -599.000000 C 26164.000000 -532.333333 26156.000000 -466.666667 26140.000000 -402.000000 C 26124.000000 -337.333333 26096.333333 -276.000000 26057.000000 -218.000000 C 26018.333333 -160.000000 25964.666667 -107.000000 25896.000000 -59.000000 C 25827.333333 -11.000000 25740.000000 29.666667 25634.000000 63.000000 C 25616.000000 47.000000 25598.000000 31.000000 25580.000000 15.000000 C 25673.333333 -7.666667 25753.333333 -37.666667 25820.000000 -75.000000 C 25886.666667 -113.000000 25941.000000 -157.666667 25983.000000 -209.000000 C 26025.666667 -260.333333 26056.666667 -317.666667 26076.000000 -381.000000 C 26096.000000 -444.333333 26106.000000 -513.333333 26106.000000 -588.000000 C 26106.000000 -699.333333 26084.000000 -778.333333 26040.000000 -825.000000 C 25996.000000 -871.666667 25942.666667 -895.000000 25880.000000 -895.000000 C 25837.333333 -895.000000 25797.666667 -884.000000 25761.000000 -862.000000 C 25725.000000 -840.000000 25695.666667 -810.000000 25673.000000 -772.000000 C 25651.000000 -734.666667 25640.000000 -691.000000 25640.000000 -641.000000 C 25640.000000 -564.333333 25663.666667 -505.333333 25711.000000 -464.000000 C 25758.333333 -423.333333 25815.333333 -403.000000 25882.000000 -403.000000 C 25931.333333 -403.000000 25972.333333 -415.666667 26005.000000 -441.000000 C 26037.666667 -467.000000 26062.333333 -503.000000 26079.000000 -549.000000 C 26095.666667 -595.000000 26104.000000 -648.000000 26104.000000 -708.000000 C 26114.333333 -689.000000 26124.666667 -670.000000 26135.000000 -651.000000z "/>
</g></svg>
