<?xml version="1.0" ?>
<svg xmlns="http://www.w3.org/2000/svg" version="1.1" width="600" height="600">
  <defs/>
  <g>
    <path stroke-width="0" fill="rgb(0, 0, 0)" opacity="1.0" d="M 155.1015625 272.26776123046875 C 154.69891357421875 272.63934326171875 154.0546875 273.236572265625 153.16888427734375 274.0594482421875 C 152.2830810546875 274.855712890625 151.63885498046875 275.439697265625 151.2362060546875 275.811279296875 C 149.84039306640625 277.08538818359375 148.10903930664062 278.598388671875 146.04217529296875 280.3502197265625 C 144.00213623046875 282.1021728515625 141.827880859375 283.9071044921875 139.5194091796875 285.76513671875 C 137.23779296875 287.6231689453125 135.02325439453125 289.4149169921875 132.8758544921875 291.1402587890625 C 130.72845458984375 292.8389892578125 128.88970947265625 294.325439453125 127.35968017578125 295.59954833984375 C 125.64175415039062 297.0859375 124.47412109375 298.33349609375 123.85671997070312 299.3421630859375 C 123.23934936523438 300.32427978515625 123.25277709960938 301.306396484375 123.89700317382812 302.28851318359375 C 124.54119873046875 303.2706298828125 125.81625366210938 304.5579833984375 127.72207641601562 306.150634765625 C 129.38632202148438 307.477783203125 131.19818115234375 308.93768310546875 133.15771484375 310.5302734375 C 135.11721801757812 312.09637451171875 137.13040161132812 313.75537109375 139.19729614257812 315.5072021484375 C 141.291015625 317.25909423828125 143.39816284179688 319.0640869140625 145.51873779296875 320.922119140625 C 147.6392822265625 322.75360107421875 149.6927490234375 324.598388671875 151.67910766601562 326.4564208984375 C 153.66546630859375 328.314453125 155.50418090820312 330.106201171875 157.19528198242188 331.83154296875 C 156.52420043945312 332.41546630859375 155.8531494140625 332.9993896484375 155.18206787109375 333.5833740234375 C 154.10836791992188 332.36236572265625 152.8199462890625 331.0086669921875 151.31674194335938 329.522216796875 C 149.75985717773438 328.00927734375 147.89431762695312 326.2706298828125 145.72006225585938 324.306396484375 C 143.5726318359375 322.3421630859375 141.304443359375 320.338134765625 138.91543579101562 318.2943115234375 C 136.52645874023438 316.223876953125 134.177734375 314.233154296875 131.8692626953125 312.322021484375 C 129.58761596679688 310.410888671875 127.520751953125 308.7120361328125 125.66860961914062 307.2255859375 C 123.33328247070312 305.341064453125 121.870361328125 303.735107421875 121.27984619140625 302.407958984375 C 120.68930053710938 301.080810546875 120.81008911132812 299.766845703125 121.6422119140625 298.46624755859375 C 122.50115966796875 297.1656494140625 123.964111328125 295.652587890625 126.03097534179688 293.92730712890625 C 127.42678833007812 292.7593994140625 129.18499755859375 291.3260498046875 131.3055419921875 289.627197265625 C 133.45297241210938 287.90191650390625 135.6943359375 286.08367919921875 138.02963256835938 284.17254638671875 C 140.39178466796875 282.26141357421875 142.61972045898438 280.4166259765625 144.71343994140625 278.63818359375 C 146.80718994140625 276.8597412109375 148.49826049804688 275.2803955078125 149.78671264648438 273.900146484375 C 150.18936157226562 273.42236328125 150.69937133789062 272.8118896484375 151.31674194335938 272.06866455078125 C 151.93411254882812 271.29888916015625 152.37701416015625 270.661865234375 152.64544677734375 270.15753173828125 C 153.46414184570312 270.8609619140625 154.2828369140625 271.5643310546875 155.1015625 272.26776123046875"/>
    <path stroke-width="0" fill="rgb(0, 0, 0)" opacity="1.0" d="M 224.59713745117188 271.1529541015625 C 224.59713745117188 271.28564453125 224.57028198242188 271.5643310546875 224.5166015625 271.989013671875 C 224.46292114257812 272.38720703125 224.42266845703125 272.798583984375 224.39581298828125 273.22332763671875 C 224.36895751953125 273.6214599609375 224.35552978515625 273.94000244140625 224.35552978515625 274.17889404296875 C 224.3018798828125 275.1610107421875 224.2750244140625 276.461669921875 224.2750244140625 278.080810546875 C 224.2750244140625 279.67340087890625 224.2750244140625 281.42529296875 224.2750244140625 283.33642578125 C 224.2750244140625 285.24755859375 224.2884521484375 287.1719970703125 224.31527709960938 289.109619140625 C 224.34213256835938 291.04730224609375 224.36895751953125 292.8787841796875 224.39581298828125 294.6041259765625 C 224.42266845703125 296.3294677734375 224.43606567382812 297.8026123046875 224.43606567382812 299.023681640625 C 223.7247314453125 298.13446044921875 223.013427734375 297.2452392578125 222.30209350585938 296.35601806640625 C 222.30209350585938 295.9578857421875 222.30209350585938 295.09521484375 222.30209350585938 293.76806640625 C 222.30209350585938 292.44085693359375 222.28866577148438 290.8482666015625 222.2618408203125 288.990234375 C 222.2349853515625 287.13214111328125 222.2081298828125 285.2342529296875 222.18130493164062 283.296630859375 C 222.15444946289062 281.35888671875 222.12762451171875 279.58050537109375 222.10076904296875 277.9613037109375 C 222.07391357421875 276.315673828125 222.03366088867188 275.0548095703125 221.97998046875 274.17889404296875 C 221.97998046875 273.674560546875 221.939697265625 273.07733154296875 221.85919189453125 272.38720703125 C 221.77865600585938 271.697021484375 221.7115478515625 271.28564453125 221.65786743164062 271.1529541015625 C 222.63763427734375 271.1529541015625 223.61737060546875 271.1529541015625 224.59713745117188 271.1529541015625M 186.18533325195312 282.8984375 C 188.09115600585938 282.8453369140625 190.292236328125 282.77899169921875 192.78860473632812 282.6993408203125 C 195.28497314453125 282.59320068359375 197.982666015625 282.487060546875 200.88165283203125 282.380859375 C 203.80752563476562 282.274658203125 206.82730102539062 282.1817626953125 209.9410400390625 282.1021728515625 C 213.0548095703125 282.02252197265625 216.14169311523438 281.9561767578125 219.20175170898438 281.903076171875 C 222.28866577148438 281.8499755859375 225.2547607421875 281.82342529296875 228.10009765625 281.82342529296875 C 230.81118774414062 281.82342529296875 233.30755615234375 281.836669921875 235.58917236328125 281.86328125 C 237.89764404296875 281.8897705078125 239.93768310546875 281.903076171875 241.70928955078125 281.903076171875 C 243.50775146484375 281.903076171875 245.05120849609375 281.91632080078125 246.33966064453125 281.94287109375 C 247.62811279296875 281.96942138671875 248.64813232421875 281.982666015625 249.39971923828125 281.982666015625 C 249.39971923828125 282.75244140625 249.39971923828125 283.522216796875 249.39971923828125 284.2919921875 C 247.493896484375 284.185791015625 244.89016723632812 284.106201171875 241.5885009765625 284.0531005859375 C 238.313720703125 284.0 233.83099365234375 283.97344970703125 228.14035034179688 283.97344970703125 C 224.999755859375 283.97344970703125 221.61761474609375 284.0 217.99383544921875 284.0531005859375 C 214.37008666992188 284.106201171875 210.65240478515625 284.1990966796875 206.84072875976562 284.331787109375 C 203.055908203125 284.4644775390625 199.39190673828125 284.6370849609375 195.84866333007812 284.849365234375 C 192.332275390625 285.03515625 189.13800048828125 285.2608642578125 186.265869140625 285.5262451171875 C 186.239013671875 284.65032958984375 186.212158203125 283.7744140625 186.18533325195312 282.8984375M 225.44268798828125 304.67742919921875 C 225.44268798828125 307.331787109375 224.94610595703125 309.56146240234375 223.95291137695312 311.366455078125 C 222.986572265625 313.14483642578125 221.7249755859375 314.48529052734375 220.1680908203125 315.38775634765625 C 218.6380615234375 316.263671875 217.00067138671875 316.70166015625 215.25588989257812 316.70166015625 C 213.5111083984375 316.70166015625 211.90057373046875 316.44952392578125 210.42422485351562 315.9451904296875 C 208.9478759765625 315.44085693359375 207.659423828125 314.684326171875 206.55889892578125 313.67572021484375 C 205.48516845703125 312.6405029296875 204.653076171875 311.40625 204.0625 309.972900390625 C 203.47198486328125 308.53955078125 203.17669677734375 306.9071044921875 203.17669677734375 305.0755615234375 C 203.17669677734375 302.8990478515625 203.71356201171875 300.89501953125 204.78726196289062 299.0634765625 C 205.8878173828125 297.2054443359375 207.33731079101562 295.7056884765625 209.13577270507812 294.5643310546875 C 210.93423461914062 293.4229736328125 212.89373779296875 292.852294921875 215.01431274414062 292.852294921875 C 217.6448974609375 292.852294921875 219.80572509765625 293.436279296875 221.496826171875 294.6041259765625 C 223.2147216796875 295.7720947265625 224.48974609375 297.404541015625 225.3218994140625 299.50146484375 C 226.18084716796875 301.598388671875 226.61032104492188 304.01385498046875 226.61032104492188 306.747802734375 C 226.61032104492188 309.4022216796875 226.2882080078125 312.0167236328125 225.64398193359375 314.5914306640625 C 224.999755859375 317.16619873046875 223.88580322265625 319.6214599609375 222.30209350585938 321.957275390625 C 220.74520874023438 324.2666015625 218.58438110351562 326.3768310546875 215.819580078125 328.2879638671875 C 213.08163452148438 330.1990966796875 209.56524658203125 331.8182373046875 205.27044677734375 333.1453857421875 C 204.54568481445312 332.50836181640625 203.8209228515625 331.871337890625 203.09619140625 331.2342529296875 C 206.8809814453125 330.30523681640625 210.10211181640625 329.0975341796875 212.759521484375 327.611083984375 C 215.44378662109375 326.09808349609375 217.6314697265625 324.3197021484375 219.32257080078125 322.27581787109375 C 221.04049682617188 320.23193359375 222.28866577148438 317.94921875 223.06710815429688 315.4276123046875 C 223.87237548828125 312.90594482421875 224.2750244140625 310.1719970703125 224.2750244140625 307.2255859375 C 224.2750244140625 302.7928466796875 223.38922119140625 299.6474609375 221.61761474609375 297.78936767578125 C 219.84597778320312 295.93133544921875 217.69857788085938 295.0023193359375 215.17535400390625 295.0023193359375 C 213.48428344726562 295.0023193359375 211.90057373046875 295.4403076171875 210.42422485351562 296.31622314453125 C 208.9478759765625 297.1656494140625 207.75338745117188 298.3468017578125 206.84072875976562 299.8597412109375 C 205.95492553710938 301.34619140625 205.51202392578125 303.0848388671875 205.51202392578125 305.0755615234375 C 205.51202392578125 308.12811279296875 206.46493530273438 310.4771728515625 208.37075805664062 312.1229248046875 C 210.27658081054688 313.7420654296875 212.57162475585938 314.5516357421875 215.25588989257812 314.5516357421875 C 217.26910400390625 314.5516357421875 218.933349609375 314.04730224609375 220.24862670898438 313.0386962890625 C 221.56390380859375 312.00347900390625 222.55709838867188 310.570068359375 223.2281494140625 308.7386474609375 C 223.89923095703125 306.9071044921875 224.2347412109375 304.796875 224.2347412109375 302.407958984375 C 224.63739013671875 303.1644287109375 225.0400390625 303.92095947265625 225.44268798828125 304.67742919921875M 235.87103271484375 270.2769775390625 C 236.7568359375 271.471435546875 237.8037109375 272.98443603515625 239.01162719726562 274.81591796875 C 240.21954345703125 276.6474609375 241.23956298828125 278.306396484375 242.07168579101562 279.7928466796875 C 241.320068359375 280.1644287109375 240.5684814453125 280.53607177734375 239.81689453125 280.90771484375 C 239.01162719726562 279.3946533203125 238.0184326171875 277.722412109375 236.83737182617188 275.89093017578125 C 235.68313598632812 274.0594482421875 234.64971923828125 272.5198974609375 233.737060546875 271.2723388671875 C 234.4483642578125 270.9405517578125 235.15969848632812 270.6087646484375 235.87103271484375 270.2769775390625M 244.32647705078125 268.525146484375 C 245.1854248046875 269.6929931640625 246.1920166015625 271.16619873046875 247.34625244140625 272.944580078125 C 248.52734375 274.69647216796875 249.57421875 276.35546875 250.48684692382812 277.9215087890625 C 249.72183227539062 278.306396484375 248.95681762695312 278.6912841796875 248.19180297851562 279.076171875 C 247.35968017578125 277.45703125 246.37994384765625 275.771484375 245.25253295898438 274.0196533203125 C 244.1519775390625 272.2412109375 243.1185302734375 270.741455078125 242.1522216796875 269.5205078125 C 242.876953125 269.188720703125 243.60171508789062 268.85693359375 244.32647705078125 268.525146484375"/>
    <path stroke-width="0" fill="rgb(0, 0, 0)" opacity="1.0" d="M 281.4901123046875 271.51123046875 C 281.35589599609375 272.4403076171875 281.2619323730469 273.2896728515625 281.208251953125 274.0594482421875 C 281.154541015625 274.8026123046875 281.10089111328125 275.69189453125 281.04718017578125 276.72705078125 C 280.9934997558594 278.95672607421875 280.8995666503906 281.7437744140625 280.7653503417969 285.0882568359375 C 280.631103515625 288.4327392578125 280.52374267578125 292.01617431640625 280.4432373046875 295.83843994140625 C 280.3627014160156 299.66070556640625 280.28216552734375 303.509521484375 280.20166015625 307.3848876953125 C 280.14794921875 311.26025390625 280.1211242675781 314.8436279296875 280.1211242675781 318.135009765625 C 280.1211242675781 321.1610107421875 280.738525390625 323.5897216796875 281.9732666015625 325.4212646484375 C 283.2080078125 327.25274658203125 284.92596435546875 328.5799560546875 287.1270446777344 329.40277099609375 C 289.35498046875 330.1990966796875 291.91845703125 330.59722900390625 294.81744384765625 330.59722900390625 C 298.68280029296875 330.59722900390625 302.11865234375 330.1326904296875 305.1250305175781 329.2037353515625 C 308.13140869140625 328.2481689453125 310.7754211425781 327.0006103515625 313.0570373535156 325.4610595703125 C 315.365478515625 323.89501953125 317.37872314453125 322.169677734375 319.09661865234375 320.2850341796875 C 320.8414306640625 318.40045166015625 322.41168212890625 316.515869140625 323.8074951171875 314.63128662109375 C 324.3712158203125 315.268310546875 324.93487548828125 315.9053955078125 325.49859619140625 316.54241943359375 C 324.102783203125 318.32080078125 322.46533203125 320.1656494140625 320.58642578125 322.0767822265625 C 318.7073974609375 323.9879150390625 316.51971435546875 325.7530517578125 314.02337646484375 327.3721923828125 C 311.5538330078125 328.96484375 308.7085266113281 330.252197265625 305.4874267578125 331.2342529296875 C 302.26629638671875 332.242919921875 298.62908935546875 332.74725341796875 294.57586669921875 332.74725341796875 C 291.381591796875 332.74725341796875 288.5228576660156 332.26947021484375 285.9996337890625 331.31390380859375 C 283.4764404296875 330.3848876953125 281.4766845703125 328.8055419921875 280.00030517578125 326.57586669921875 C 278.52398681640625 324.3197021484375 277.78582763671875 321.2008056640625 277.78582763671875 317.21923828125 C 277.78582763671875 314.72418212890625 277.8126525878906 312.04327392578125 277.8663330078125 309.17657470703125 C 277.9200439453125 306.2833251953125 278.00054931640625 303.33697509765625 278.10791015625 300.3375244140625 C 278.21527099609375 297.338134765625 278.2958068847656 294.40509033203125 278.3494873046875 291.53839111328125 C 278.4300537109375 288.6451416015625 278.49713134765625 285.9244384765625 278.55084228515625 283.376220703125 C 278.6045227050781 280.8280029296875 278.63134765625 278.6116943359375 278.63134765625 276.72705078125 C 278.63134765625 275.69189453125 278.6045227050781 274.74957275390625 278.55084228515625 273.900146484375 C 278.49713134765625 273.02423095703125 278.4031982421875 272.2279052734375 278.26898193359375 271.51123046875 C 279.3426818847656 271.51123046875 280.4163818359375 271.51123046875 281.4901123046875 271.51123046875"/>
    <path stroke-width="0" fill="rgb(0, 0, 0)" opacity="1.0" d="M 352.83782958984375 288.6318359375 C 366.057861328125 288.6318359375 379.27783203125 288.6318359375 392.497802734375 288.6318359375 C 392.497802734375 289.37506103515625 392.497802734375 290.1182861328125 392.497802734375 290.86151123046875 C 379.27783203125 290.86151123046875 366.057861328125 290.86151123046875 352.83782958984375 290.86151123046875 C 352.83782958984375 290.1182861328125 352.83782958984375 289.37506103515625 352.83782958984375 288.6318359375M 340.9599609375 308.061767578125 C 362.78302001953125 308.061767578125 384.6060791015625 308.061767578125 406.42913818359375 308.061767578125 C 406.42913818359375 308.804931640625 406.42913818359375 309.5482177734375 406.42913818359375 310.2913818359375 C 384.6060791015625 310.2913818359375 362.78302001953125 310.2913818359375 340.9599609375 310.2913818359375 C 340.9599609375 309.5482177734375 340.9599609375 308.804931640625 340.9599609375 308.061767578125M 372.647705078125 301.4921875 C 373.4261474609375 301.4921875 374.20458984375 301.4921875 374.9830322265625 301.4921875 C 374.9830322265625 311.525634765625 374.9830322265625 321.55914306640625 374.9830322265625 331.5926513671875 C 374.9830322265625 332.57470703125 374.79510498046875 333.3046875 374.4193115234375 333.782470703125 C 374.0703125 334.26025390625 373.4530029296875 334.6318359375 372.567138671875 334.89727783203125 C 371.73504638671875 335.109619140625 370.43316650390625 335.2158203125 368.66156005859375 335.2158203125 C 366.889892578125 335.2423095703125 364.32647705078125 335.255615234375 360.97113037109375 335.255615234375 C 360.91748046875 335.06982421875 360.823486328125 334.85748291015625 360.68927001953125 334.61859130859375 C 360.5819091796875 334.40625 360.46112060546875 334.1673583984375 360.326904296875 333.90191650390625 C 360.19268798828125 333.636474609375 360.0450439453125 333.410888671875 359.884033203125 333.22503662109375 C 361.789794921875 333.22503662109375 363.49432373046875 333.23828125 364.99755859375 333.264892578125 C 366.527587890625 333.2913818359375 367.8026123046875 333.2913818359375 368.8226318359375 333.264892578125 C 369.8695068359375 333.23828125 370.607666015625 333.22503662109375 371.037109375 333.22503662109375 C 371.654541015625 333.1719970703125 372.070556640625 333.0260009765625 372.2852783203125 332.787109375 C 372.52685546875 332.5482177734375 372.647705078125 332.17657470703125 372.647705078125 331.6722412109375 C 372.647705078125 321.61224365234375 372.647705078125 311.55224609375 372.647705078125 301.4921875M 391.89385986328125 288.6318359375 C 392.068359375 288.6318359375 392.2427978515625 288.6318359375 392.417236328125 288.6318359375 C 392.60516357421875 288.5787353515625 392.7930908203125 288.52569580078125 392.98095703125 288.47259521484375 C 393.517822265625 288.85748291015625 394.0546875 289.24237060546875 394.591552734375 289.627197265625 C 392.90045166015625 291.4056396484375 390.9140625 293.1973876953125 388.6324462890625 295.0023193359375 C 386.377685546875 296.78076171875 384.0289306640625 298.4530029296875 381.5863037109375 300.01904296875 C 379.17041015625 301.55859375 376.8619384765625 302.8857421875 374.660888671875 304.0006103515625 C 374.49981689453125 303.76171875 374.25823974609375 303.4962158203125 373.9361572265625 303.20428466796875 C 373.640869140625 302.91229248046875 373.3590087890625 302.699951171875 373.090576171875 302.5672607421875 C 375.31854248046875 301.47894287109375 377.60015869140625 300.19158935546875 379.9354248046875 298.70513916015625 C 382.297607421875 297.192138671875 384.5120849609375 295.61279296875 386.5789794921875 293.96710205078125 C 388.6727294921875 292.29486083984375 390.4443359375 290.7022705078125 391.89385986328125 289.18927001953125 C 391.89385986328125 289.00347900390625 391.89385986328125 288.817626953125 391.89385986328125 288.6318359375M 372.3255615234375 266.255615234375 C 373.10400390625 266.255615234375 373.8824462890625 266.255615234375 374.660888671875 266.255615234375 C 374.660888671875 269.8389892578125 374.660888671875 273.42236328125 374.660888671875 277.0057373046875 C 373.8824462890625 277.0057373046875 373.10400390625 277.0057373046875 372.3255615234375 277.0057373046875 C 372.3255615234375 273.42236328125 372.3255615234375 269.8389892578125 372.3255615234375 266.255615234375M 342.12762451171875 275.731689453125 C 363.1185302734375 275.731689453125 384.1094970703125 275.731689453125 405.1004638671875 275.731689453125 C 405.1004638671875 281.10675048828125 405.1004638671875 286.4818115234375 405.1004638671875 291.85693359375 C 404.33544921875 291.85693359375 403.5704345703125 291.85693359375 402.805419921875 291.85693359375 C 402.805419921875 287.23828125 402.805419921875 282.6197509765625 402.805419921875 278.00115966796875 C 383.344482421875 278.00115966796875 363.883544921875 278.00115966796875 344.42266845703125 278.00115966796875 C 344.42266845703125 282.6197509765625 344.42266845703125 287.23828125 344.42266845703125 291.85693359375 C 343.65765380859375 291.85693359375 342.89263916015625 291.85693359375 342.12762451171875 291.85693359375 C 342.12762451171875 286.4818115234375 342.12762451171875 281.10675048828125 342.12762451171875 275.731689453125"/>
    <path stroke-width="0" fill="rgb(0, 0, 0)" opacity="1.0" d="M 446.77362060546875 270.436279296875 C 446.666259765625 270.6485595703125 446.54541015625 271.0467529296875 446.4112548828125 271.6307373046875 C 446.3038330078125 272.21466064453125 446.196533203125 272.7322998046875 446.089111328125 273.1834716796875 C 445.7401123046875 275.068115234375 445.3643798828125 277.66937255859375 444.96173095703125 280.9873046875 C 444.5859375 284.3052978515625 444.2637939453125 287.94171142578125 443.995361328125 291.896728515625 C 443.7537841796875 295.8516845703125 443.633056640625 299.7403564453125 443.633056640625 303.5626220703125 C 443.633056640625 306.11077880859375 443.8343505859375 308.84478759765625 444.2369384765625 311.7645263671875 C 444.6396484375 314.6578369140625 445.17645263671875 317.49798583984375 445.8475341796875 320.2850341796875 C 446.51861572265625 323.04559326171875 447.216552734375 325.5406494140625 447.9412841796875 327.7703857421875 C 447.162841796875 328.0357666015625 446.3843994140625 328.30120849609375 445.60595703125 328.566650390625 C 444.9080810546875 326.25732421875 444.2369384765625 323.66937255859375 443.5927734375 320.8026123046875 C 442.94854736328125 317.909423828125 442.42510986328125 314.9365234375 442.0224609375 311.884033203125 C 441.64666748046875 308.83154296875 441.458740234375 305.9515380859375 441.458740234375 303.24407958984375 C 441.458740234375 300.4835205078125 441.539306640625 297.6434326171875 441.7003173828125 294.7236328125 C 441.8883056640625 291.8038330078125 442.11639404296875 288.963623046875 442.38482666015625 286.203125 C 442.6800537109375 283.442626953125 442.94854736328125 280.9342041015625 443.19012451171875 278.677978515625 C 443.43170166015625 276.395263671875 443.61962890625 274.550537109375 443.7537841796875 273.1436767578125 C 443.8074951171875 272.50665283203125 443.8477783203125 271.94921875 443.8746337890625 271.471435546875 C 443.9014892578125 270.99365234375 443.9149169921875 270.6220703125 443.9149169921875 270.3565673828125 C 444.8677978515625 270.3831787109375 445.8206787109375 270.40966796875 446.77362060546875 270.436279296875M 435.6607666015625 280.90771484375 C 439.82135009765625 280.90771484375 444.16986083984375 280.76171875 448.706298828125 280.4697265625 C 453.24267578125 280.15118408203125 457.6180419921875 279.73974609375 461.83233642578125 279.2354736328125 C 466.073486328125 278.7310791015625 469.79119873046875 278.14715576171875 472.9854736328125 277.4835205078125 C 473.0123291015625 278.3197021484375 473.03912353515625 279.15576171875 473.06597900390625 279.991943359375 C 470.14013671875 280.4697265625 467.080078125 280.8944091796875 463.88580322265625 281.2659912109375 C 460.7183837890625 281.63763427734375 457.51068115234375 281.96942138671875 454.2626953125 282.26141357421875 C 451.0416259765625 282.5533447265625 447.8472900390625 282.77899169921875 444.679931640625 282.938232421875 C 441.539306640625 283.07098388671875 438.55975341796875 283.1373291015625 435.7413330078125 283.1373291015625 C 434.9091796875 283.1373291015625 433.768310546875 283.11077880859375 432.31884765625 283.0577392578125 C 430.869384765625 283.004638671875 429.41986083984375 282.938232421875 427.9703369140625 282.858642578125 C 426.54766845703125 282.77899169921875 425.3665771484375 282.7259521484375 424.4271240234375 282.6993408203125 C 424.4002685546875 281.796875 424.3734130859375 280.8944091796875 424.3465576171875 279.991943359375 C 425.232421875 280.15118408203125 426.4403076171875 280.3104248046875 427.9703369140625 280.4697265625 C 429.5272216796875 280.62896728515625 431.0438232421875 280.7484130859375 432.5201416015625 280.8280029296875 C 433.99652099609375 280.881103515625 435.04339599609375 280.90771484375 435.6607666015625 280.90771484375M 466.7445068359375 287.636474609375 C 466.63714599609375 287.84881591796875 466.543212890625 288.074462890625 466.462646484375 288.3133544921875 C 466.38214111328125 288.52569580078125 466.2882080078125 288.7513427734375 466.18084716796875 288.990234375 C 466.073486328125 289.2291259765625 465.966064453125 289.4945068359375 465.8587646484375 289.7864990234375 C 464.2750244140625 294.59088134765625 462.39599609375 299.0103759765625 460.2218017578125 303.0450439453125 C 458.0743408203125 307.0531005859375 455.69879150390625 310.66302490234375 453.0950927734375 313.874755859375 C 450.4913330078125 317.0865478515625 447.713134765625 319.8603515625 444.7603759765625 322.1961669921875 C 442.2908935546875 324.1339111328125 439.7274169921875 325.66015625 437.07000732421875 326.77496337890625 C 434.41259765625 327.86328125 432.0369873046875 328.4073486328125 429.9432373046875 328.4073486328125 C 428.4400634765625 328.4073486328125 427.08453369140625 328.1021728515625 425.8765869140625 327.49163818359375 C 424.668701171875 326.881103515625 423.729248046875 325.9786376953125 423.05810546875 324.7841796875 C 422.3870849609375 323.56317138671875 422.051513671875 322.09002685546875 422.051513671875 320.36468505859375 C 422.051513671875 317.8165283203125 422.615234375 315.30810546875 423.74267578125 312.839599609375 C 424.8699951171875 310.37103271484375 426.4000244140625 308.03515625 428.332763671875 305.83209228515625 C 430.265380859375 303.6024169921875 432.45306396484375 301.6116943359375 434.895751953125 299.8597412109375 C 437.365234375 298.08135986328125 439.942138671875 296.6612548828125 442.62646484375 295.59954833984375 C 445.20330810546875 294.59088134765625 447.9144287109375 293.807861328125 450.759765625 293.25042724609375 C 453.63189697265625 292.66650390625 456.1148681640625 292.37451171875 458.2086181640625 292.37451171875 C 463.1744384765625 292.37451171875 467.3082275390625 293.223876953125 470.60986328125 294.92266845703125 C 473.9383544921875 296.59490966796875 476.4481201171875 298.79803466796875 478.13922119140625 301.531982421875 C 479.857177734375 304.2659912109375 480.71612548828125 307.21234130859375 480.71612548828125 310.37103271484375 C 480.71612548828125 313.10498046875 480.19268798828125 315.6929931640625 479.1458740234375 318.135009765625 C 478.1258544921875 320.55047607421875 476.5689697265625 322.7403564453125 474.4752197265625 324.70458984375 C 472.4083251953125 326.6422119140625 469.8045654296875 328.2879638671875 466.66400146484375 329.64166259765625 C 463.5234375 330.995361328125 459.83251953125 332.03057861328125 455.5914306640625 332.74725341796875 C 455.1082763671875 332.03057861328125 454.6251220703125 331.31390380859375 454.14190673828125 330.59722900390625 C 458.46356201171875 330.14599609375 462.44970703125 329.0975341796875 466.100341796875 327.4517822265625 C 469.7777099609375 325.779541015625 472.73046875 323.5101318359375 474.9583740234375 320.6434326171875 C 477.213134765625 317.7501220703125 478.340576171875 314.27294921875 478.340576171875 310.2117919921875 C 478.340576171875 307.398193359375 477.5621337890625 304.796875 476.0052490234375 302.407958984375 C 474.4483642578125 300.01904296875 472.20703125 298.08135986328125 469.2811279296875 296.59490966796875 C 466.38214111328125 295.1085205078125 462.8255615234375 294.365234375 458.6112060546875 294.365234375 C 455.6317138671875 294.365234375 452.759521484375 294.73687744140625 449.9947509765625 295.4801025390625 C 447.22991943359375 296.22332763671875 444.8140869140625 297.03289794921875 442.7471923828125 297.9088134765625 C 439.499267578125 299.23602294921875 436.492919921875 301.1072998046875 433.72808837890625 303.5228271484375 C 430.9901123046875 305.938232421875 428.775634765625 308.619140625 427.08453369140625 311.56549072265625 C 425.4202880859375 314.48529052734375 424.588134765625 317.4183349609375 424.588134765625 320.36468505859375 C 424.588134765625 322.249267578125 425.05792236328125 323.6561279296875 425.9974365234375 324.5850830078125 C 426.9637451171875 325.487548828125 428.252197265625 325.9388427734375 429.86279296875 325.9388427734375 C 431.8759765625 325.9388427734375 434.0770263671875 325.474365234375 436.466064453125 324.5452880859375 C 438.85498046875 323.5897216796875 441.3648681640625 322.0501708984375 443.995361328125 319.9267578125 C 448.075439453125 316.5556640625 451.84686279296875 312.37506103515625 455.3095703125 307.3848876953125 C 458.79913330078125 302.3946533203125 461.52362060546875 296.3294677734375 463.483154296875 289.18927001953125 C 463.536865234375 288.923828125 463.590576171875 288.6849365234375 463.6441650390625 288.47259521484375 C 463.6978759765625 288.23370361328125 463.7515869140625 287.9815673828125 463.8052978515625 287.716064453125 C 463.88580322265625 287.42413330078125 463.926025390625 287.1453857421875 463.926025390625 286.8800048828125 C 464.86553955078125 287.13214111328125 465.8050537109375 287.38427734375 466.7445068359375 287.636474609375"/>
  </g>
</svg>
