<?xml version="1.0" ?>
<svg xmlns="http://www.w3.org/2000/svg" version="1.1" width="600" height="600">
  <defs/>
  <g>
    <path stroke-width="0" fill="rgb(0, 0, 0)" opacity="1.0" d="M 126.1123046875 385.3109130859375 C 242.197021484375 385.3109130859375 358.28173828125 385.3109130859375 474.3662109375 385.3109130859375 C 474.3662109375 389.28125 474.3662109375 393.2515869140625 474.3662109375 397.221923828125 C 358.28173828125 397.221923828125 242.197021484375 397.221923828125 126.1123046875 397.221923828125 C 126.1123046875 393.2515869140625 126.1123046875 389.28125 126.1123046875 385.3109130859375M 293.2578125 122.03652954101562 C 297.2275390625 122.03652954101562 301.197509765625 122.03652954101562 305.16748046875 122.03652954101562 C 305.16748046875 137.64404296875 305.16748046875 153.2515869140625 305.16748046875 168.85910034179688 C 301.197509765625 168.85910034179688 297.2275390625 168.85910034179688 293.2578125 168.85910034179688 C 293.2578125 153.2515869140625 293.2578125 137.64404296875 293.2578125 122.03652954101562M 161.635986328125 310.764404296875 C 248.767822265625 310.764404296875 335.89990234375 310.764404296875 423.03173828125 310.764404296875 C 423.03173828125 314.59783935546875 423.03173828125 318.4312744140625 423.03173828125 322.26470947265625 C 335.89990234375 322.26470947265625 248.767822265625 322.26470947265625 161.635986328125 322.26470947265625 C 161.635986328125 318.4312744140625 161.635986328125 314.59783935546875 161.635986328125 310.764404296875M 293.2578125 355.3280029296875 C 297.2275390625 355.3280029296875 301.197509765625 355.3280029296875 305.16748046875 355.3280029296875 C 305.16748046875 390.4449462890625 305.16748046875 425.5618896484375 305.16748046875 460.6788330078125 C 305.16748046875 465.6075439453125 304.277587890625 469.235595703125 302.498046875 471.56304931640625 C 300.855224609375 474.02734375 297.775146484375 475.80718994140625 293.2578125 476.9024658203125 C 288.877197265625 477.86083984375 281.553466796875 478.408447265625 271.28662109375 478.54534912109375 C 261.019775390625 478.6822509765625 246.782958984375 478.750732421875 228.576171875 478.750732421875 C 228.302490234375 477.2447509765625 227.6865234375 475.601806640625 226.72802734375 473.822021484375 C 225.90673828125 472.1790771484375 224.948486328125 470.3992919921875 223.853515625 468.48260498046875 C 234.39404296875 468.75640869140625 243.771240234375 468.893310546875 251.98486328125 468.893310546875 C 260.335205078125 468.893310546875 267.316650390625 468.8248291015625 272.92919921875 468.68798828125 C 278.6787109375 468.551025390625 282.717041015625 468.48260498046875 285.044189453125 468.48260498046875 C 288.466552734375 468.208740234375 290.65673828125 467.52423095703125 291.614990234375 466.428955078125 C 292.710205078125 465.4705810546875 293.2578125 463.6907958984375 293.2578125 461.089599609375 C 293.2578125 425.835693359375 293.2578125 390.58184814453125 293.2578125 355.3280029296875M 420.3623046875 310.764404296875 C 421.388916015625 310.764404296875 422.41552734375 310.764404296875 423.4423828125 310.764404296875 C 424.33203125 310.4906005859375 425.221923828125 310.216796875 426.11181640625 309.9429931640625 C 429.397216796875 312.3388671875 432.6826171875 314.7347412109375 435.968017578125 317.130615234375 C 424.74267578125 324.2498779296875 411.53271484375 330.889892578125 396.337646484375 337.05078125 C 381.279541015625 343.211669921875 365.673828125 348.75640869140625 349.5205078125 353.68511962890625 C 333.3671875 358.4769287109375 317.8984375 362.447265625 303.114013671875 365.59613037109375 C 302.15576171875 364.36395263671875 300.855224609375 362.9263916015625 299.212646484375 361.28350830078125 C 297.706787109375 359.640625 296.26953125 358.3399658203125 294.900390625 357.38165283203125 C 309.5478515625 354.23272705078125 324.606201171875 350.3992919921875 340.074951171875 345.88134765625 C 355.6806640625 341.2264404296875 370.465087890625 336.22930908203125 384.427978515625 330.889892578125 C 398.528076171875 325.41357421875 410.506103515625 319.80035400390625 420.3623046875 314.0501708984375 C 420.3623046875 312.9549560546875 420.3623046875 311.85968017578125 420.3623046875 310.764404296875M 193.668701171875 218.14605712890625 C 193.668701171875 234.4381103515625 193.668701171875 250.73019409179688 193.668701171875 267.0222473144531 C 264.852783203125 267.0222473144531 336.03662109375 267.0222473144531 407.220703125 267.0222473144531 C 407.220703125 250.73019409179688 407.220703125 234.4381103515625 407.220703125 218.14605712890625 C 336.03662109375 218.14605712890625 264.852783203125 218.14605712890625 193.668701171875 218.14605712890625M 182.169677734375 206.23504638671875 C 261.156494140625 206.23504638671875 340.143310546875 206.23504638671875 419.130126953125 206.23504638671875 C 419.130126953125 230.4677734375 419.130126953125 254.70050048828125 419.130126953125 278.9332580566406 C 340.143310546875 278.9332580566406 261.156494140625 278.9332580566406 182.169677734375 278.9332580566406 C 182.169677734375 254.70050048828125 182.169677734375 230.4677734375 182.169677734375 206.23504638671875M 128.165771484375 162.0821533203125 C 242.333740234375 162.0821533203125 356.501953125 162.0821533203125 470.670166015625 162.0821533203125 C 470.670166015625 165.91555786132812 470.670166015625 169.7490234375 470.670166015625 173.58242797851562 C 356.501953125 173.58242797851562 242.333740234375 173.58242797851562 128.165771484375 173.58242797851562 C 128.165771484375 169.7490234375 128.165771484375 165.91555786132812 128.165771484375 162.0821533203125"/>
  </g>
</svg>
