<?xml version="1.0" encoding="utf-8"?>
<svg xmlns="http://www.w3.org/2000/svg" xmlns:ev="http://www.w3.org/2001/xml-events" xmlns:xlink="http://www.w3.org/1999/xlink" version="1.1" baseProfile="full" width="11171.0" height="1744.0" viewBox="190.0 -1596.0 11171.0 1744.0">
<defs/>
<g><path d="M 3070.000000 -593.000000 C 3088.666667 -593.000000 3107.333333 -593.000000 3126.000000 -593.000000 C 3126.000000 -350.666667 3126.000000 -108.333333 3126.000000 134.000000 C 3107.333333 134.000000 3088.666667 134.000000 3070.000000 134.000000 C 3070.000000 -108.333333 3070.000000 -350.666667 3070.000000 -593.000000z M 2456.000000 -597.000000 C 2550.666667 -598.333333 2662.333333 -600.000000 2791.000000 -602.000000 C 2919.666667 -604.000000 3056.666667 -606.666667 3202.000000 -610.000000 C 3347.333333 -614.000000 3492.666667 -618.000000 3638.000000 -622.000000 C 3637.000000 -604.666667 3636.000000 -587.333333 3635.000000 -570.000000 C 3493.666667 -566.000000 3351.666667 -561.666667 3209.000000 -557.000000 C 3066.333333 -553.000000 2931.000000 -549.333333 2803.000000 -546.000000 C 2675.000000 -542.666667 2561.000000 -540.000000 2461.000000 -538.000000 C 2459.333333 -557.666667 2457.666667 -577.333333 2456.000000 -597.000000z M 3588.000000 -1536.000000 C 3604.666667 -1520.666667 3621.333333 -1505.333333 3638.000000 -1490.000000 C 3574.000000 -1470.666667 3498.333333 -1453.000000 3411.000000 -1437.000000 C 3324.333333 -1421.000000 3231.666667 -1406.666667 3133.000000 -1394.000000 C 3035.000000 -1381.333333 2935.333333 -1370.000000 2834.000000 -1360.000000 C 2732.666667 -1350.666667 2634.666667 -1342.666667 2540.000000 -1336.000000 C 2538.666667 -1342.666667 2536.333333 -1350.666667 2533.000000 -1360.000000 C 2530.333333 -1370.000000 2527.000000 -1378.000000 2523.000000 -1384.000000 C 2615.000000 -1392.000000 2711.333333 -1400.666667 2812.000000 -1410.000000 C 2913.333333 -1420.000000 3012.333333 -1431.333333 3109.000000 -1444.000000 C 3205.666667 -1456.666667 3295.333333 -1470.666667 3378.000000 -1486.000000 C 3460.666667 -1501.333333 3530.666667 -1518.000000 3588.000000 -1536.000000z M 3389.000000 -1252.000000 C 3405.666667 -1241.666667 3422.333333 -1231.333333 3439.000000 -1221.000000 C 3378.333333 -1148.333333 3309.666667 -1071.000000 3233.000000 -989.000000 C 3156.333333 -907.000000 3078.333333 -827.333333 2999.000000 -750.000000 C 2919.666667 -672.666667 2844.666667 -604.333333 2774.000000 -545.000000 C 2760.666667 -555.333333 2747.333333 -565.666667 2734.000000 -576.000000 C 2785.333333 -619.333333 2840.333333 -668.666667 2899.000000 -724.000000 C 2958.333333 -780.000000 3017.333333 -838.333333 3076.000000 -899.000000 C 3134.666667 -960.333333 3190.666667 -1021.333333 3244.000000 -1082.000000 C 3298.000000 -1142.666667 3346.333333 -1199.333333 3389.000000 -1252.000000z M 3009.000000 -1407.000000 C 3025.666667 -1397.000000 3042.333333 -1387.000000 3059.000000 -1377.000000 C 3029.000000 -1335.666667 2995.000000 -1292.333333 2957.000000 -1247.000000 C 2919.666667 -1201.666667 2882.000000 -1157.333333 2844.000000 -1114.000000 C 2806.666667 -1071.333333 2771.333333 -1034.000000 2738.000000 -1002.000000 C 2724.000000 -1010.333333 2710.000000 -1018.666667 2696.000000 -1027.000000 C 2730.666667 -1060.333333 2767.000000 -1099.000000 2805.000000 -1143.000000 C 2843.666667 -1187.666667 2880.666667 -1233.333333 2916.000000 -1280.000000 C 2952.000000 -1326.666667 2983.000000 -1369.000000 3009.000000 -1407.000000z M 3383.000000 -363.000000 C 3396.333333 -372.000000 3409.666667 -381.000000 3423.000000 -390.000000 C 3467.000000 -348.666667 3510.000000 -303.000000 3552.000000 -253.000000 C 3594.000000 -203.666667 3632.666667 -155.000000 3668.000000 -107.000000 C 3703.333333 -59.000000 3730.666667 -16.333333 3750.000000 21.000000 C 3736.000000 31.333333 3722.000000 41.666667 3708.000000 52.000000 C 3688.666667 13.333333 3661.333333 -30.333333 3626.000000 -79.000000 C 3590.666667 -127.666667 3551.666667 -176.666667 3509.000000 -226.000000 C 3467.000000 -276.000000 3425.000000 -321.666667 3383.000000 -363.000000z M 3333.000000 -860.000000 C 3346.000000 -869.666667 3359.000000 -879.333333 3372.000000 -889.000000 C 3422.666667 -848.333333 3473.666667 -802.666667 3525.000000 -752.000000 C 3576.333333 -701.333333 3623.333333 -651.333333 3666.000000 -602.000000 C 3709.333333 -552.666667 3743.666667 -507.666667 3769.000000 -467.000000 C 3755.666667 -456.000000 3742.333333 -445.000000 3729.000000 -434.000000 C 3704.333333 -474.666667 3670.666667 -520.000000 3628.000000 -570.000000 C 3585.333333 -620.000000 3538.333333 -670.333333 3487.000000 -721.000000 C 3435.666667 -771.666667 3384.333333 -818.000000 3333.000000 -860.000000z M 2540.000000 -1110.000000 C 2551.000000 -1121.333333 2562.000000 -1132.666667 2573.000000 -1144.000000 C 2627.666667 -1112.000000 2683.000000 -1075.666667 2739.000000 -1035.000000 C 2795.666667 -995.000000 2848.000000 -954.333333 2896.000000 -913.000000 C 2944.000000 -872.333333 2982.666667 -835.000000 3012.000000 -801.000000 C 3000.666667 -787.333333 2989.333333 -773.666667 2978.000000 -760.000000 C 2948.666667 -796.000000 2910.000000 -834.666667 2862.000000 -876.000000 C 2814.000000 -918.000000 2762.000000 -959.333333 2706.000000 -1000.000000 C 2650.666667 -1041.333333 2595.333333 -1078.000000 2540.000000 -1110.000000z M 2456.000000 -1578.000000 C 2473.666667 -1573.666667 2491.333333 -1569.333333 2509.000000 -1565.000000 C 2468.333333 -1455.000000 2421.333333 -1348.000000 2368.000000 -1244.000000 C 2315.333333 -1140.666667 2257.666667 -1043.333333 2195.000000 -952.000000 C 2133.000000 -861.333333 2069.000000 -780.000000 2003.000000 -708.000000 C 2000.333333 -712.000000 1996.666667 -717.000000 1992.000000 -723.000000 C 1987.333333 -729.000000 1982.333333 -734.333333 1977.000000 -739.000000 C 1972.333333 -744.333333 1967.333333 -749.000000 1962.000000 -753.000000 C 2028.666667 -820.333333 2092.333333 -897.666667 2153.000000 -985.000000 C 2213.666667 -1073.000000 2269.666667 -1167.666667 2321.000000 -1269.000000 C 2372.333333 -1370.333333 2417.333333 -1473.333333 2456.000000 -1578.000000z M 2266.000000 -1123.000000 C 2283.000000 -1141.000000 2300.000000 -1159.000000 2317.000000 -1177.000000 C 2318.333333 -1175.666667 2319.666667 -1174.333333 2321.000000 -1173.000000 C 2321.000000 -736.666667 2321.000000 -300.333333 2321.000000 136.000000 C 2302.666667 136.000000 2284.333333 136.000000 2266.000000 136.000000 C 2266.000000 -283.666667 2266.000000 -703.333333 2266.000000 -1123.000000z M 2761.000000 -392.000000 C 2779.666667 -386.000000 2798.333333 -380.000000 2817.000000 -374.000000 C 2778.333333 -302.666667 2729.000000 -228.333333 2669.000000 -151.000000 C 2609.000000 -73.666667 2547.000000 -7.333333 2483.000000 48.000000 C 2477.666667 42.666667 2471.000000 36.666667 2463.000000 30.000000 C 2455.666667 24.000000 2448.666667 18.333333 2442.000000 13.000000 C 2483.333333 -22.333333 2524.333333 -62.333333 2565.000000 -107.000000 C 2606.333333 -152.333333 2643.666667 -199.666667 2677.000000 -249.000000 C 2711.000000 -298.333333 2739.000000 -346.000000 2761.000000 -392.000000z "/>
</g></svg>
