<?xml version="1.0" ?>
<svg xmlns="http://www.w3.org/2000/svg" version="1.1" width="600" height="600">
  <defs/>
  <g>
    <path stroke-width="0" fill="rgb(0, 0, 0)" opacity="1.0" d="M 313.4715576171875 153.57839965820312 C 312.238037109375 149.10540771484375 310.8502197265625 144.32391357421875 309.308349609375 139.23394775390625 C 307.920654296875 133.98974609375 306.4556884765625 129.13113403320312 304.913818359375 124.65811157226562 C 310.2335205078125 123.88690185546875 315.55322265625 123.11569213867188 320.8729248046875 122.344482421875 C 321.4896240234375 128.05142211914062 323.03173828125 135.994873046875 325.498779296875 146.1748046875 C 328.1201171875 156.35476684570312 331.2039794921875 167.15167236328125 334.75048828125 178.5655517578125 C 338.2969970703125 189.97946166992188 341.689208984375 200.54498291015625 344.92724609375 210.26220703125 C 351.7117919921875 230.15939331054688 360.732177734375 250.44216918945312 371.9884033203125 271.11053466796875 C 383.2445068359375 291.62469482421875 394.6549072265625 309.7480773925781 406.219482421875 325.480712890625 C 408.532470703125 328.41131591796875 410.9224853515625 331.3419189453125 413.3895263671875 334.2724609375 C 416.0108642578125 337.203125 418.632080078125 340.0565185546875 421.2535400390625 342.8328857421875 C 418.3238525390625 346.3804931640625 415.39404296875 349.92803955078125 412.46435546875 353.4755859375 C 407.99267578125 351.93316650390625 401.747802734375 350.69921875 393.729736328125 349.7738037109375 C 385.711669921875 348.694091796875 376.9996337890625 347.6915283203125 367.5938720703125 346.76605224609375 C 358.3421630859375 345.84063720703125 349.1676025390625 344.9923095703125 340.0701904296875 344.2210693359375 C 331.126953125 343.44989013671875 323.262939453125 342.9871826171875 316.4783935546875 342.8328857421875 C 316.786865234375 338.8226318359375 317.0950927734375 334.81231689453125 317.403564453125 330.80206298828125 C 326.809326171875 331.4190673828125 336.6778564453125 332.267333984375 347.0089111328125 333.3470458984375 C 357.494140625 334.2724609375 367.439697265625 335.120849609375 376.845458984375 335.89202880859375 C 386.4056396484375 336.6632080078125 394.115234375 337.4344482421875 399.974609375 338.2056884765625 C 392.8817138671875 328.179931640625 385.1719970703125 316.2262268066406 376.845458984375 302.344482421875 C 368.6732177734375 288.46270751953125 360.732177734375 273.8097839355469 353.0224609375 258.3856201171875 C 345.312744140625 242.96142578125 338.759521484375 228.0 333.3626708984375 213.50128173828125 C 328.5826416015625 200.082275390625 324.5736083984375 188.35992431640625 321.3355712890625 178.33419799804688 C 318.097412109375 168.3084716796875 315.47607421875 160.05654907226562 313.4715576171875 153.57839965820312M 149.948486328125 201.93316650390625 C 171.843994140625 204.24679565429688 193.970947265625 206.02056884765625 216.3291015625 207.2545166015625 C 238.687255859375 208.48843383789062 260.1973876953125 208.87405395507812 280.8594970703125 208.41131591796875 C 301.67578125 207.94857788085938 320.1019287109375 206.94601440429688 336.13818359375 205.40359497070312 C 346.4691162109375 204.32391357421875 358.2650146484375 202.781494140625 371.5257568359375 200.7763671875 C 384.940673828125 198.61697387695312 398.509765625 195.84060668945312 412.233154296875 192.44729614257812 C 425.9564208984375 189.05401611328125 438.4461669921875 185.27508544921875 449.702392578125 181.11053466796875 C 450.1649169921875 185.81494140625 450.6275634765625 190.519287109375 451.090087890625 195.22366333007812 C 439.833984375 198.46273803710938 427.4984130859375 201.470458984375 414.08349609375 204.24679565429688 C 400.8226318359375 206.868896484375 387.7933349609375 209.2596435546875 374.9951171875 211.41903686523438 C 362.351318359375 213.42416381835938 351.172119140625 214.96661376953125 341.4578857421875 216.0462646484375 C 314.473876953125 219.131103515625 284.1746826171875 220.59640502929688 250.560302734375 220.44216918945312 C 216.9459228515625 220.28793334960938 183.717041015625 218.8226318359375 150.87353515625 216.0462646484375 C 150.565185546875 211.34188842773438 150.2568359375 206.63754272460938 149.948486328125 201.93316650390625M 198.05712890625 333.80975341796875 C 192.04345703125 344.76092529296875 187.1092529296875 355.2493896484375 183.25439453125 365.27508544921875 C 179.399658203125 375.14654541015625 177.47216796875 385.8663330078125 177.47216796875 397.4344482421875 C 177.47216796875 420.7249755859375 187.72607421875 437.9228515625 208.23388671875 449.0283203125 C 228.89599609375 460.1336669921875 256.9593505859375 465.994873046875 292.424072265625 466.61181640625 C 313.5487060546875 466.9202880859375 333.3626708984375 466.14910888671875 351.865966796875 464.2982177734375 C 370.369384765625 462.2930908203125 387.330810546875 459.3624267578125 402.7501220703125 455.5064697265625 C 402.7501220703125 460.442138671875 402.7501220703125 465.3779296875 402.7501220703125 470.3135986328125 C 387.6390380859375 472.93572998046875 371.063232421875 475.0950927734375 353.0224609375 476.791748046875 C 335.1358642578125 478.6427001953125 314.859375 479.41387939453125 292.1927490234375 479.10540771484375 C 266.4422607421875 478.796875 244.0069580078125 475.63494873046875 224.886962890625 469.6195068359375 C 205.766845703125 463.75836181640625 190.9642333984375 454.7352294921875 180.47900390625 442.5501708984375 C 169.99365234375 430.2108154296875 164.7510986328125 414.70947265625 164.7510986328125 396.0462646484375 C 164.7510986328125 384.78662109375 166.6785888671875 373.83544921875 170.533447265625 363.19281005859375 C 174.54248046875 352.5501708984375 179.0911865234375 341.753173828125 184.1796875 330.80206298828125 C 188.805419921875 331.80462646484375 193.4312744140625 332.80718994140625 198.05712890625 333.80975341796875"/>
  </g>
</svg>
