<?xml version="1.0" encoding="utf-8"?>
<svg xmlns="http://www.w3.org/2000/svg" xmlns:ev="http://www.w3.org/2001/xml-events" xmlns:xlink="http://www.w3.org/1999/xlink" version="1.1" baseProfile="full" width="7240.0" height="1581.0" viewBox="244.0 -1498.0 7240.0 1581.0">
<defs/>
<g><path d="M 858.000000 -1496.000000 C 855.333333 -1490.666667 852.333333 -1480.666667 849.000000 -1466.000000 C 846.333333 -1451.333333 843.666667 -1438.333333 841.000000 -1427.000000 C 832.333333 -1379.666667 823.000000 -1314.333333 813.000000 -1231.000000 C 803.666667 -1147.666667 795.666667 -1056.333333 789.000000 -957.000000 C 783.000000 -857.666667 780.000000 -760.000000 780.000000 -664.000000 C 780.000000 -600.000000 785.000000 -531.333333 795.000000 -458.000000 C 805.000000 -385.333333 818.333333 -314.000000 835.000000 -244.000000 C 851.666667 -174.666667 869.000000 -112.000000 887.000000 -56.000000 C 867.666667 -49.333333 848.333333 -42.666667 829.000000 -36.000000 C 811.666667 -94.000000 795.000000 -159.000000 779.000000 -231.000000 C 763.000000 -303.666667 750.000000 -378.333333 740.000000 -455.000000 C 730.666667 -531.666667 726.000000 -604.000000 726.000000 -672.000000 C 726.000000 -741.333333 728.000000 -812.666667 732.000000 -886.000000 C 736.666667 -959.333333 742.333333 -1030.666667 749.000000 -1100.000000 C 756.333333 -1169.333333 763.000000 -1232.333333 769.000000 -1289.000000 C 775.000000 -1346.333333 779.666667 -1392.666667 783.000000 -1428.000000 C 784.333333 -1444.000000 785.333333 -1458.000000 786.000000 -1470.000000 C 786.666667 -1482.000000 787.000000 -1491.333333 787.000000 -1498.000000 C 810.666667 -1497.333333 834.333333 -1496.666667 858.000000 -1496.000000z M 582.000000 -1233.000000 C 685.333333 -1233.000000 793.333333 -1236.666667 906.000000 -1244.000000 C 1018.666667 -1252.000000 1127.333333 -1262.333333 1232.000000 -1275.000000 C 1337.333333 -1287.666667 1429.666667 -1302.333333 1509.000000 -1319.000000 C 1509.666667 -1298.000000 1510.333333 -1277.000000 1511.000000 -1256.000000 C 1438.333333 -1244.000000 1362.333333 -1233.333333 1283.000000 -1224.000000 C 1204.333333 -1214.666667 1124.666667 -1206.333333 1044.000000 -1199.000000 C 964.000000 -1191.666667 884.666667 -1186.000000 806.000000 -1182.000000 C 728.000000 -1178.666667 654.000000 -1177.000000 584.000000 -1177.000000 C 563.333333 -1177.000000 535.000000 -1177.666667 499.000000 -1179.000000 C 463.000000 -1180.333333 427.000000 -1182.000000 391.000000 -1184.000000 C 355.666667 -1186.000000 326.333333 -1187.333333 303.000000 -1188.000000 C 302.333333 -1210.666667 301.666667 -1233.333333 301.000000 -1256.000000 C 323.000000 -1252.000000 353.000000 -1248.000000 391.000000 -1244.000000 C 429.666667 -1240.000000 467.333333 -1237.000000 504.000000 -1235.000000 C 540.666667 -1233.666667 566.666667 -1233.000000 582.000000 -1233.000000z M 1354.000000 -1064.000000 C 1351.333333 -1058.666667 1349.000000 -1053.000000 1347.000000 -1047.000000 C 1345.000000 -1041.666667 1342.666667 -1036.000000 1340.000000 -1030.000000 C 1337.333333 -1024.000000 1334.666667 -1017.333333 1332.000000 -1010.000000 C 1292.666667 -889.333333 1246.000000 -778.333333 1192.000000 -677.000000 C 1138.666667 -576.333333 1079.666667 -485.666667 1015.000000 -405.000000 C 950.333333 -324.333333 881.333333 -254.666667 808.000000 -196.000000 C 746.666667 -147.333333 683.000000 -109.000000 617.000000 -81.000000 C 551.000000 -53.666667 492.000000 -40.000000 440.000000 -40.000000 C 402.666667 -40.000000 369.000000 -47.666667 339.000000 -63.000000 C 309.000000 -78.333333 285.666667 -101.000000 269.000000 -131.000000 C 252.333333 -161.666667 244.000000 -198.666667 244.000000 -242.000000 C 244.000000 -306.000000 258.000000 -369.000000 286.000000 -431.000000 C 314.000000 -493.000000 352.000000 -551.666667 400.000000 -607.000000 C 448.000000 -663.000000 502.333333 -713.000000 563.000000 -757.000000 C 624.333333 -801.666667 688.333333 -837.333333 755.000000 -864.000000 C 819.000000 -889.333333 886.333333 -909.000000 957.000000 -923.000000 C 1028.333333 -937.666667 1090.000000 -945.000000 1142.000000 -945.000000 C 1265.333333 -945.000000 1368.000000 -923.666667 1450.000000 -881.000000 C 1532.666667 -839.000000 1595.000000 -783.666667 1637.000000 -715.000000 C 1679.666667 -646.333333 1701.000000 -572.333333 1701.000000 -493.000000 C 1701.000000 -424.333333 1688.000000 -359.333333 1662.000000 -298.000000 C 1636.666667 -237.333333 1598.000000 -182.333333 1546.000000 -133.000000 C 1494.666667 -84.333333 1430.000000 -43.000000 1352.000000 -9.000000 C 1274.000000 25.000000 1182.333333 51.000000 1077.000000 69.000000 C 1065.000000 51.000000 1053.000000 33.000000 1041.000000 15.000000 C 1148.333333 3.666667 1247.333333 -22.666667 1338.000000 -64.000000 C 1429.333333 -106.000000 1502.666667 -163.000000 1558.000000 -235.000000 C 1614.000000 -307.666667 1642.000000 -395.000000 1642.000000 -497.000000 C 1642.000000 -567.666667 1622.666667 -633.000000 1584.000000 -693.000000 C 1545.333333 -753.000000 1489.666667 -801.666667 1417.000000 -839.000000 C 1345.000000 -876.333333 1256.666667 -895.000000 1152.000000 -895.000000 C 1078.000000 -895.000000 1006.666667 -885.666667 938.000000 -867.000000 C 869.333333 -848.333333 809.333333 -828.000000 758.000000 -806.000000 C 677.333333 -772.666667 602.666667 -725.666667 534.000000 -665.000000 C 466.000000 -604.333333 411.000000 -537.000000 369.000000 -463.000000 C 327.666667 -389.666667 307.000000 -316.000000 307.000000 -242.000000 C 307.000000 -194.666667 318.666667 -159.333333 342.000000 -136.000000 C 366.000000 -113.333333 398.000000 -102.000000 438.000000 -102.000000 C 488.000000 -102.000000 542.666667 -113.666667 602.000000 -137.000000 C 661.333333 -161.000000 723.666667 -199.666667 789.000000 -253.000000 C 890.333333 -337.666667 984.000000 -442.666667 1070.000000 -568.000000 C 1156.666667 -693.333333 1224.333333 -845.666667 1273.000000 -1025.000000 C 1274.333333 -1031.666667 1275.666667 -1037.666667 1277.000000 -1043.000000 C 1278.333333 -1049.000000 1279.666667 -1055.333333 1281.000000 -1062.000000 C 1283.000000 -1069.333333 1284.000000 -1076.333333 1284.000000 -1083.000000 C 1307.333333 -1076.666667 1330.666667 -1070.333333 1354.000000 -1064.000000z "/>
</g></svg>
