<?xml version="1.0" encoding="utf-8"?>
<svg xmlns="http://www.w3.org/2000/svg" xmlns:ev="http://www.w3.org/2001/xml-events" xmlns:xlink="http://www.w3.org/1999/xlink" version="1.1" baseProfile="full" width="835.0" height="1394.0" viewBox="211.0 -1394.0 835.0 1394.0">
<defs/>
<g><path d="M 211.000000 0.000000 C 211.000000 -29.041667 211.000000 -58.083333 211.000000 -87.125000 C 211.000000 -116.166667 211.000000 -145.208333 211.000000 -174.250000 C 211.000000 -203.291667 211.000000 -232.333333 211.000000 -261.375000 C 211.000000 -290.416667 211.000000 -319.458333 211.000000 -348.500000 C 211.000000 -377.541667 211.000000 -406.583333 211.000000 -435.625000 C 211.000000 -464.666667 211.000000 -493.708333 211.000000 -522.750000 C 211.000000 -551.791667 211.000000 -580.833333 211.000000 -609.875000 C 211.000000 -638.916667 211.000000 -667.958333 211.000000 -697.000000 C 211.000000 -726.041667 211.000000 -755.083333 211.000000 -784.125000 C 211.000000 -813.166667 211.000000 -842.208333 211.000000 -871.250000 C 211.000000 -900.291667 211.000000 -929.333333 211.000000 -958.375000 C 211.000000 -987.416667 211.000000 -1016.458333 211.000000 -1045.500000 C 211.000000 -1074.541667 211.000000 -1103.583333 211.000000 -1132.625000 C 211.000000 -1161.666667 211.000000 -1190.708333 211.000000 -1219.750000 C 211.000000 -1248.791667 211.000000 -1277.833333 211.000000 -1306.875000 C 211.000000 -1335.916667 211.000000 -1364.958333 211.000000 -1394.000000 C 239.000000 -1394.000000 267.000000 -1394.000000 295.000000 -1394.000000 C 323.000000 -1394.000000 351.000000 -1394.000000 379.000000 -1394.000000 C 407.000000 -1394.000000 435.000000 -1394.000000 463.000000 -1394.000000 C 491.000000 -1394.000000 519.000000 -1394.000000 547.000000 -1394.000000 C 600.333333 -1394.000000 649.583333 -1390.833333 694.750000 -1384.500000 C 739.916667 -1378.166667 781.000000 -1368.666667 818.000000 -1356.000000 C 855.000000 -1343.666667 887.583333 -1327.500000 915.750000 -1307.500000 C 943.916667 -1287.500000 967.666667 -1263.666667 987.000000 -1236.000000 C 1006.666667 -1208.666667 1021.416667 -1176.500000 1031.250000 -1139.500000 C 1041.083333 -1102.500000 1046.000000 -1060.666667 1046.000000 -1014.000000 C 1046.000000 -969.000000 1041.166667 -927.916667 1031.500000 -890.750000 C 1021.833333 -853.583333 1007.333333 -820.333333 988.000000 -791.000000 C 969.000000 -761.666667 945.583333 -735.916667 917.750000 -713.750000 C 889.916667 -691.583333 857.666667 -673.000000 821.000000 -658.000000 C 784.666667 -643.333333 744.333333 -632.333333 700.000000 -625.000000 C 655.666667 -617.666667 607.333333 -614.000000 555.000000 -614.000000 C 509.500000 -614.000000 464.000000 -614.000000 418.500000 -614.000000 C 373.000000 -614.000000 327.500000 -614.000000 282.000000 -614.000000 C 282.000000 -562.833333 282.000000 -511.666667 282.000000 -460.500000 C 282.000000 -409.333333 282.000000 -358.166667 282.000000 -307.000000 C 282.000000 -255.833333 282.000000 -204.666667 282.000000 -153.500000 C 282.000000 -102.333333 282.000000 -51.166667 282.000000 0.000000 C 258.333333 0.000000 234.666667 0.000000 211.000000 0.000000z M 282.000000 -678.000000 C 323.333333 -678.000000 364.666667 -678.000000 406.000000 -678.000000 C 447.333333 -678.000000 488.666667 -678.000000 530.000000 -678.000000 C 567.166667 -678.000000 601.937500 -679.604167 634.312500 -682.812500 C 666.687500 -686.020833 696.666667 -690.833333 724.250000 -697.250000 C 779.416667 -710.083333 825.000000 -729.333333 861.000000 -755.000000 C 897.333333 -781.000000 924.583333 -815.583333 942.750000 -858.750000 C 960.916667 -901.916667 970.000000 -953.666667 970.000000 -1014.000000 C 970.000000 -1074.666667 960.750000 -1125.750000 942.250000 -1167.250000 C 923.750000 -1208.750000 896.000000 -1240.666667 859.000000 -1263.000000 C 822.333333 -1285.666667 775.916667 -1302.666667 719.750000 -1314.000000 C 691.666667 -1319.666667 661.145833 -1323.916667 628.187500 -1326.750000 C 595.229167 -1329.583333 559.833333 -1331.000000 522.000000 -1331.000000 C 482.000000 -1331.000000 442.000000 -1331.000000 402.000000 -1331.000000 C 362.000000 -1331.000000 322.000000 -1331.000000 282.000000 -1331.000000 C 282.000000 -1276.583333 282.000000 -1222.166667 282.000000 -1167.750000 C 282.000000 -1113.333333 282.000000 -1058.916667 282.000000 -1004.500000 C 282.000000 -977.291667 282.000000 -950.083333 282.000000 -922.875000 C 282.000000 -895.666667 282.000000 -868.458333 282.000000 -841.250000 C 282.000000 -814.041667 282.000000 -786.833333 282.000000 -759.625000 C 282.000000 -732.416667 282.000000 -705.208333 282.000000 -678.000000z "/>
</g>
</svg>
