<?xml version="1.0" ?>
<svg xmlns="http://www.w3.org/2000/svg" version="1.1" width="600" height="600">
  <defs/>
  <g>
    <path stroke-width="0" fill="rgb(0, 0, 0)" opacity="1.0" d="M 224.59228515625 203.32180786132812 C 293.9248046875 203.32180786132812 363.2574462890625 203.32180786132812 432.5899658203125 203.32180786132812 C 432.5899658203125 207.1280517578125 432.5899658203125 210.93426513671875 432.5899658203125 214.740478515625 C 363.2574462890625 214.740478515625 293.9248046875 214.740478515625 224.59228515625 214.740478515625 C 224.59228515625 210.93426513671875 224.59228515625 207.1280517578125 224.59228515625 203.32180786132812M 174.357421875 281.38409423828125 C 267.077392578125 281.38409423828125 359.7977294921875 281.38409423828125 452.517822265625 281.38409423828125 C 452.517822265625 285.259521484375 452.517822265625 289.13494873046875 452.517822265625 293.0103759765625 C 359.7977294921875 293.0103759765625 267.077392578125 293.0103759765625 174.357421875 293.0103759765625 C 174.357421875 289.13494873046875 174.357421875 285.259521484375 174.357421875 281.38409423828125M 302.435791015625 207.26641845703125 C 306.3798828125 207.26641845703125 310.3238525390625 207.26641845703125 314.2679443359375 207.26641845703125 C 314.2679443359375 227.47406005859375 314.2679443359375 247.68167114257812 314.2679443359375 267.8892822265625 C 314.2679443359375 279.23876953125 313.0224609375 291.2802734375 310.531494140625 304.01385498046875 C 308.04052734375 316.6090087890625 302.5740966796875 329.27337646484375 294.1324462890625 342.0069580078125 C 285.8291015625 354.740478515625 272.8206787109375 367.058837890625 255.10693359375 378.9619140625 C 237.3931884765625 390.7266845703125 213.4521484375 401.5224609375 183.283447265625 411.3494873046875 C 182.7298583984375 410.2421875 182.037841796875 409.20416259765625 181.20751953125 408.23529052734375 C 180.377197265625 407.1280517578125 179.4776611328125 406.020751953125 178.509033203125 404.9134521484375 C 177.6787109375 403.80621337890625 176.848388671875 402.9066162109375 176.01806640625 402.21453857421875 C 205.49462890625 392.802734375 228.813232421875 382.6297607421875 245.9732666015625 371.69549560546875 C 263.1334228515625 360.622802734375 275.6575927734375 349.06573486328125 283.545654296875 337.02423095703125 C 291.572265625 324.84429931640625 296.692626953125 312.8719482421875 298.90673828125 301.1072998046875 C 301.259521484375 289.20416259765625 302.435791015625 278.1314697265625 302.435791015625 267.8892822265625 C 302.435791015625 247.68167114257812 302.435791015625 227.47406005859375 302.435791015625 207.26641845703125M 244.10498046875 160.55364990234375 C 248.118408203125 161.52249145507812 252.131591796875 162.49136352539062 256.144775390625 163.460205078125 C 248.671875 182.28372192382812 238.777099609375 199.86160278320312 226.46044921875 216.19378662109375 C 214.282470703125 232.52593994140625 201.343017578125 246.43597412109375 187.642578125 257.92388916015625 C 187.089111328125 257.3702392578125 186.120361328125 256.6090087890625 184.7364501953125 255.64013671875 C 183.490966796875 254.6712646484375 182.17626953125 253.8408203125 180.79248046875 253.1488037109375 C 179.4085693359375 252.318359375 178.232177734375 251.62628173828125 177.263427734375 251.07266235351562 C 191.24072265625 240.138427734375 204.11083984375 226.78201293945312 215.873779296875 211.00347900390625 C 227.7752685546875 195.22491455078125 237.185546875 178.40829467773438 244.10498046875 160.55364990234375M 317.5892333984375 288.4429016113281 C 327.4149169921875 318.062255859375 343.6754150390625 342.21453857421875 366.37109375 360.899658203125 C 389.06689453125 379.58477783203125 417.298095703125 392.66436767578125 451.0648193359375 400.138427734375 C 449.4041748046875 401.5224609375 447.812744140625 403.183349609375 446.2904052734375 405.12109375 C 444.906494140625 407.058837890625 443.6610107421875 408.99658203125 442.553955078125 410.93426513671875 C 408.925537109375 402.07611083984375 380.348388671875 387.7508544921875 356.8223876953125 367.95849609375 C 333.2962646484375 348.16607666015625 316.34375 322.6297607421875 305.964599609375 291.3494873046875 C 309.8394775390625 290.380615234375 313.71435546875 289.4117736816406 317.5892333984375 288.4429016113281M 134.50146484375 134.18685913085938 C 242.513671875 134.18685913085938 350.525634765625 134.18685913085938 458.5377197265625 134.18685913085938 C 458.5377197265625 138.20071411132812 458.5377197265625 142.21453857421875 458.5377197265625 146.22836303710938 C 354.400634765625 146.22836303710938 250.2633056640625 146.22836303710938 146.1260986328125 146.22836303710938 C 146.1260986328125 253.07958984375 146.1260986328125 359.9307861328125 146.1260986328125 466.781982421875 C 142.251220703125 466.781982421875 138.37646484375 466.781982421875 134.50146484375 466.781982421875 C 134.50146484375 355.9169921875 134.50146484375 245.05191040039062 134.50146484375 134.18685913085938M 143.012451171875 433.979248046875 C 250.885986328125 433.979248046875 358.759765625 433.979248046875 466.6334228515625 433.979248046875 C 466.6334228515625 437.9930419921875 466.6334228515625 442.0069580078125 466.6334228515625 446.020751953125 C 358.759765625 446.020751953125 250.885986328125 446.020751953125 143.012451171875 446.020751953125 C 143.012451171875 442.0069580078125 143.012451171875 437.9930419921875 143.012451171875 433.979248046875"/>
  </g>
</svg>
