<?xml version="1.0" encoding="utf-8"?>
<svg xmlns="http://www.w3.org/2000/svg" xmlns:ev="http://www.w3.org/2001/xml-events" xmlns:xlink="http://www.w3.org/1999/xlink" version="1.1" baseProfile="full" width="13258.0" height="1736.0" viewBox="94.0 -1596.0 13258.0 1736.0">
<defs/>
<g><path d="M 9725.000000 -503.000000 C 10284.333333 -503.000000 10843.666667 -503.000000 11403.000000 -503.000000 C 11403.000000 -483.666667 11403.000000 -464.333333 11403.000000 -445.000000 C 10843.666667 -445.000000 10284.333333 -445.000000 9725.000000 -445.000000 C 9725.000000 -464.333333 9725.000000 -483.666667 9725.000000 -503.000000z M 9936.000000 -962.000000 C 10356.000000 -962.000000 10776.000000 -962.000000 11196.000000 -962.000000 C 11196.000000 -803.333333 11196.000000 -644.666667 11196.000000 -486.000000 C 11177.333333 -486.000000 11158.666667 -486.000000 11140.000000 -486.000000 C 11140.000000 -626.000000 11140.000000 -766.000000 11140.000000 -906.000000 C 10757.333333 -906.000000 10374.666667 -906.000000 9992.000000 -906.000000 C 9992.000000 -766.000000 9992.000000 -626.000000 9992.000000 -486.000000 C 9973.333333 -486.000000 9954.666667 -486.000000 9936.000000 -486.000000 C 9936.000000 -644.666667 9936.000000 -803.333333 9936.000000 -962.000000z M 10522.000000 -1212.000000 C 10541.000000 -1212.000000 10560.000000 -1212.000000 10579.000000 -1212.000000 C 10579.000000 -1046.000000 10579.000000 -880.000000 10579.000000 -714.000000 C 10579.000000 -651.333333 10574.666667 -588.666667 10566.000000 -526.000000 C 10558.000000 -463.333333 10539.333333 -401.000000 10510.000000 -339.000000 C 10480.666667 -277.000000 10435.333333 -217.333333 10374.000000 -160.000000 C 10312.666667 -103.333333 10229.333333 -49.333333 10124.000000 2.000000 C 10019.333333 53.333333 9887.000000 99.333333 9727.000000 140.000000 C 9724.333333 134.666667 9721.000000 129.000000 9717.000000 123.000000 C 9713.000000 117.666667 9709.000000 112.000000 9705.000000 106.000000 C 9701.666667 100.666667 9698.000000 96.000000 9694.000000 92.000000 C 9851.333333 52.666667 9981.000000 8.666667 10083.000000 -40.000000 C 10185.666667 -88.666667 10266.666667 -140.000000 10326.000000 -194.000000 C 10386.000000 -248.666667 10429.666667 -305.000000 10457.000000 -363.000000 C 10485.000000 -421.666667 10502.666667 -480.333333 10510.000000 -539.000000 C 10518.000000 -598.333333 10522.000000 -656.666667 10522.000000 -714.000000 C 10522.000000 -880.000000 10522.000000 -1046.000000 10522.000000 -1212.000000z M 10629.000000 -490.000000 C 10689.000000 -327.333333 10788.333333 -198.666667 10927.000000 -104.000000 C 11066.333333 -9.333333 11238.333333 54.666667 11443.000000 88.000000 C 11438.333333 92.000000 11433.333333 97.000000 11428.000000 103.000000 C 11422.666667 109.666667 11418.000000 116.000000 11414.000000 122.000000 C 11410.666667 128.666667 11407.000000 134.666667 11403.000000 140.000000 C 11265.666667 113.333333 11142.333333 74.000000 11033.000000 22.000000 C 10923.666667 -30.000000 10830.333333 -96.666667 10753.000000 -178.000000 C 10675.666667 -260.000000 10615.666667 -358.000000 10573.000000 -472.000000 C 10591.666667 -478.000000 10610.333333 -484.000000 10629.000000 -490.000000z M 9752.000000 -1388.000000 C 10288.333333 -1388.000000 10824.666667 -1388.000000 11361.000000 -1388.000000 C 11361.000000 -1369.333333 11361.000000 -1350.666667 11361.000000 -1332.000000 C 10824.666667 -1332.000000 10288.333333 -1332.000000 9752.000000 -1332.000000 C 9752.000000 -1350.666667 9752.000000 -1369.333333 9752.000000 -1388.000000z M 10189.000000 -1594.000000 C 10207.666667 -1594.000000 10226.333333 -1594.000000 10245.000000 -1594.000000 C 10245.000000 -1430.000000 10245.000000 -1266.000000 10245.000000 -1102.000000 C 10226.333333 -1102.000000 10207.666667 -1102.000000 10189.000000 -1102.000000 C 10189.000000 -1266.000000 10189.000000 -1430.000000 10189.000000 -1594.000000z M 10865.000000 -1594.000000 C 10883.666667 -1594.000000 10902.333333 -1594.000000 10921.000000 -1594.000000 C 10921.000000 -1430.000000 10921.000000 -1266.000000 10921.000000 -1102.000000 C 10902.333333 -1102.000000 10883.666667 -1102.000000 10865.000000 -1102.000000 C 10865.000000 -1266.000000 10865.000000 -1430.000000 10865.000000 -1594.000000z "/>
</g></svg>
