<?xml version="1.0" ?>
<svg xmlns="http://www.w3.org/2000/svg" version="1.1" width="600" height="600">
  <defs/>
  <g>
    <path stroke-width="0" fill="rgb(0, 0, 0)" opacity="1.0" d="M 299.39794921875 256.4459533691406 C 342.97735595703125 256.4459533691406 386.5567626953125 256.4459533691406 430.13616943359375 256.4459533691406 C 430.13616943359375 260.229736328125 430.13616943359375 264.01348876953125 430.13616943359375 267.79730224609375 C 386.5567626953125 267.79730224609375 342.97735595703125 267.79730224609375 299.39794921875 267.79730224609375 C 299.39794921875 264.01348876953125 299.39794921875 260.229736328125 299.39794921875 256.4459533691406M 291.4928283691406 439.89190673828125 C 341.49090576171875 439.89190673828125 391.489013671875 439.89190673828125 441.487060546875 439.89190673828125 C 441.487060546875 443.7432861328125 441.487060546875 447.5946044921875 441.487060546875 451.4459228515625 C 391.489013671875 451.4459228515625 341.49090576171875 451.4459228515625 291.4928283691406 451.4459228515625 C 291.4928283691406 447.5946044921875 291.4928283691406 443.7432861328125 291.4928283691406 439.89190673828125M 361.625244140625 139.28378295898438 C 354.3282470703125 153.33786010742188 344.869140625 168.33786010742188 333.24798583984375 184.28378295898438 C 321.761962890625 200.229736328125 308.9245910644531 215.9053955078125 294.7359619140625 231.310791015625 C 280.68243408203125 246.58108520507812 266.15594482421875 260.43243408203125 251.15655517578125 272.8648681640625 C 250.34576416015625 271.51348876953125 249.06201171875 269.89190673828125 247.30532836914062 268.0 C 245.68377685546875 266.10809326171875 244.19732666015625 264.6216125488281 242.84603881835938 263.54052734375 C 257.9805908203125 251.64865112304688 272.6422119140625 237.93243408203125 286.8308410644531 222.39190673828125 C 301.1546325683594 206.71621704101562 314.1946716308594 190.56756591796875 325.95098876953125 173.94595336914062 C 337.8424072265625 157.3243408203125 347.301513671875 141.37838745117188 354.3282470703125 126.10812377929688 C 358.44970703125 126.10812377929688 362.5711669921875 126.10812377929688 366.692626953125 126.10812377929688 C 376.286865234375 141.64865112304688 387.57025146484375 157.729736328125 400.542724609375 174.35134887695312 C 413.51519775390625 190.97296142578125 427.2308349609375 206.78378295898438 441.6898193359375 221.78378295898438 C 456.2838134765625 236.64865112304688 470.33734130859375 249.62161254882812 483.850341796875 260.70269775390625 C 482.228759765625 262.0540771484375 480.6748046875 263.74322509765625 479.1883544921875 265.770263671875 C 477.8370361328125 267.66217041015625 476.6884765625 269.35137939453125 475.7425537109375 270.83782958984375 C 461.95928955078125 258.9459228515625 447.8382568359375 245.5 433.3792724609375 230.5 C 419.0555419921875 215.3648681640625 405.610107421875 199.89190673828125 393.04296875 184.08108520507812 C 380.61102294921875 168.270263671875 370.138427734375 153.33786010742188 361.625244140625 139.28378295898438M 286.2227783203125 326.9864501953125 C 339.869384765625 326.9864501953125 393.5159912109375 326.9864501953125 447.16259765625 326.9864501953125 C 447.16259765625 375.9053955078125 447.16259765625 424.8243408203125 447.16259765625 473.7432861328125 C 443.44647216796875 473.7432861328125 439.73040771484375 473.7432861328125 436.01434326171875 473.7432861328125 C 436.01434326171875 428.6756591796875 436.01434326171875 383.60809326171875 436.01434326171875 338.54052734375 C 389.7999267578125 338.54052734375 343.58544921875 338.54052734375 297.3709716796875 338.54052734375 C 297.3709716796875 384.0810546875 297.3709716796875 429.62158203125 297.3709716796875 475.16217041015625 C 293.6549072265625 475.16217041015625 289.9388427734375 475.16217041015625 286.2227783203125 475.16217041015625 C 286.2227783203125 425.770263671875 286.2227783203125 376.37841796875 286.2227783203125 326.9864501953125M 185.68606567382812 124.48648071289062 C 189.33456420898438 126.31082153320312 192.98309326171875 128.1351318359375 196.631591796875 129.95947265625 C 192.17230224609375 138.87838745117188 187.24005126953125 148.4053955078125 181.83486938476562 158.54055786132812 C 176.42965698242188 168.54055786132812 170.88934326171875 178.33782958984375 165.2138671875 187.93243408203125 C 159.67355346679688 197.39190673828125 154.33590698242188 205.56756591796875 149.20098876953125 212.45947265625 C 146.22811889648438 210.9053955078125 143.2552490234375 209.35134887695312 140.28240966796875 207.79730224609375 C 145.41732788085938 200.6351318359375 150.75497436523438 192.12161254882812 156.2952880859375 182.25674438476562 C 161.97076416015625 172.39190673828125 167.37594604492188 162.32431030273438 172.51089477539062 152.05404663085938 C 177.64584350585938 141.78378295898438 182.03756713867188 132.5946044921875 185.68606567382812 124.48648071289062M 228.4547119140625 167.45947265625 C 232.23834228515625 169.14865112304688 236.02197265625 170.83782958984375 239.80560302734375 172.52703857421875 C 231.56268310546875 187.25674438476562 222.23870849609375 203.06756591796875 211.83370971679688 219.95947265625 C 201.4287109375 236.85137939453125 190.8885498046875 253.270263671875 180.21331787109375 269.2162170410156 C 169.67315673828125 285.16217041015625 159.60598754882812 298.9459533691406 150.01174926757812 310.56756591796875 C 146.9713134765625 308.87841796875 143.930908203125 307.189208984375 140.89047241210938 305.5 C 148.1875 296.7162170410156 155.7547607421875 286.6486511230469 163.59231567382812 275.29730224609375 C 171.56500244140625 263.810791015625 179.4700927734375 251.78378295898438 187.3076171875 239.21621704101562 C 195.28030395507812 226.64865112304688 202.77999877929688 214.148681640625 209.8067626953125 201.71621704101562 C 216.83352661132812 189.14865112304688 223.04949951171875 177.729736328125 228.4547119140625 167.45947265625M 123.05331420898438 196.24322509765625 C 125.55322265625 194.01351928710938 128.05313110351562 191.78378295898438 130.55303955078125 189.55404663085938 C 137.98519897460938 195.770263671875 145.55245971679688 202.5946044921875 153.2548828125 210.02703857421875 C 160.957275390625 217.45947265625 167.98403930664062 224.8243408203125 174.33514404296875 232.12164306640625 C 180.68624877929688 239.2838134765625 185.61849975585938 245.70269775390625 189.13189697265625 251.37838745117188 C 186.69952392578125 254.14865112304688 184.2672119140625 256.9189147949219 181.83486938476562 259.689208984375 C 177.91607666015625 253.74325561523438 172.78115844726562 246.98648071289062 166.4300537109375 239.41891479492188 C 160.07891845703125 231.85134887695312 153.1197509765625 224.35134887695312 145.55245971679688 216.91891479492188 C 138.12030029296875 209.35134887695312 130.62060546875 202.45947265625 123.05331420898438 196.24322509765625M 212.64450073242188 255.43243408203125 C 216.02276611328125 254.08108520507812 219.4010009765625 252.729736328125 222.77923583984375 251.37838745117188 C 228.4547119140625 259.4864807128906 233.85992431640625 268.20269775390625 238.99484252929688 277.52703857421875 C 244.264892578125 286.8513488769531 248.85931396484375 296.04052734375 252.778076171875 305.0946044921875 C 256.8320007324219 314.0135498046875 259.9399719238281 321.851318359375 262.10205078125 328.60809326171875 C 258.45355224609375 330.29730224609375 254.8050537109375 331.9864501953125 251.15655517578125 333.6756591796875 C 248.99444580078125 326.648681640625 245.886474609375 318.6756591796875 241.83258056640625 309.75677490234375 C 237.913818359375 300.70269775390625 233.386962890625 291.37835693359375 228.25201416015625 281.7837829589844 C 223.252197265625 272.189208984375 218.0496826171875 263.4053955078125 212.64450073242188 255.43243408203125M 120.82366943359375 302.0540771484375 C 136.90414428710938 301.51348876953125 155.68722534179688 300.770263671875 177.17288208007812 299.8243408203125 C 198.65853881835938 298.7432556152344 221.22525024414062 297.52703857421875 244.87298583984375 296.1756591796875 C 244.73785400390625 299.8243408203125 244.60272216796875 303.47296142578125 244.46759033203125 307.12164306640625 C 221.90090942382812 308.47296142578125 199.9422607421875 309.8243408203125 178.59173583984375 311.1756591796875 C 157.3763427734375 312.39190673828125 138.4581298828125 313.47296142578125 121.837158203125 314.4189453125 C 121.49932861328125 310.29730224609375 121.1614990234375 306.1756591796875 120.82366943359375 302.0540771484375M 224.1981201171875 341.7838134765625 C 227.44122314453125 340.83782958984375 230.68435668945312 339.89190673828125 233.92745971679688 338.9459228515625 C 239.8731689453125 349.89190673828125 245.2108154296875 362.0540771484375 249.94036865234375 375.43243408203125 C 254.8050537109375 388.810791015625 258.18328857421875 400.29730224609375 260.07513427734375 409.89190673828125 C 256.5617370605469 411.04052734375 253.04833984375 412.189208984375 249.53497314453125 413.33782958984375 C 247.77828979492188 403.47296142578125 244.53515625 391.851318359375 239.80560302734375 378.47296142578125 C 235.211181640625 365.0946044921875 230.00869750976562 352.8648681640625 224.1981201171875 341.7838134765625M 147.98480224609375 340.97296142578125 C 151.903564453125 341.7838134765625 155.82235717773438 342.5946044921875 159.74111938476562 343.4053955078125 C 156.36285400390625 361.5135498046875 151.97113037109375 379.2161865234375 146.56594848632812 396.5135498046875 C 141.29586791992188 413.6756591796875 135.2825927734375 428.47296142578125 128.52609252929688 440.9053955078125 C 127.71530151367188 440.5 126.63427734375 439.95947265625 125.282958984375 439.2838134765625 C 124.06680297851562 438.60809326171875 122.71551513671875 437.8648681640625 121.22906494140625 437.0540771484375 C 119.87777709960938 436.2432861328125 118.66159057617188 435.770263671875 117.58056640625 435.6351318359375 C 125.1478271484375 423.33782958984375 131.2962646484375 408.9459228515625 136.02581787109375 392.45947265625 C 140.89047241210938 375.83782958984375 144.8768310546875 358.6756591796875 147.98480224609375 340.97296142578125M 188.118408203125 303.270263671875 C 191.83447265625 303.270263671875 195.550537109375 303.270263671875 199.26663208007812 303.270263671875 C 199.26663208007812 361.10809326171875 199.26663208007812 418.9459228515625 199.26663208007812 476.7838134765625 C 195.550537109375 476.7838134765625 191.83447265625 476.7838134765625 188.118408203125 476.7838134765625 C 188.118408203125 418.9459228515625 188.118408203125 361.10809326171875 188.118408203125 303.270263671875"/>
  </g>
</svg>
