<?xml version="1.0" encoding="utf-8"?>
<svg xmlns="http://www.w3.org/2000/svg" xmlns:ev="http://www.w3.org/2001/xml-events" xmlns:xlink="http://www.w3.org/1999/xlink" version="1.1" baseProfile="full" width="41856.0" height="1776.0" viewBox="67.0 -1634.0 41856.0 1776.0">
<defs/>
<g><path d="M 28387.000000 -1263.000000 C 28381.000000 -1253.000000 28374.666667 -1241.000000 28368.000000 -1227.000000 C 28361.333333 -1213.000000 28355.666667 -1197.666667 28351.000000 -1181.000000 C 28331.666667 -1103.000000 28303.666667 -1021.666667 28267.000000 -937.000000 C 28230.333333 -852.333333 28190.333333 -772.333333 28147.000000 -697.000000 C 28103.666667 -621.666667 28060.333333 -557.000000 28017.000000 -503.000000 C 27946.333333 -415.000000 27868.000000 -335.666667 27782.000000 -265.000000 C 27696.666667 -194.333333 27608.000000 -132.333333 27516.000000 -79.000000 C 27424.666667 -26.333333 27333.666667 16.666667 27243.000000 50.000000 C 27224.333333 32.666667 27205.666667 15.333333 27187.000000 -2.000000 C 27284.333333 -30.000000 27380.666667 -70.666667 27476.000000 -124.000000 C 27571.333333 -178.000000 27661.333333 -240.666667 27746.000000 -312.000000 C 27830.666667 -383.333333 27905.000000 -458.000000 27969.000000 -536.000000 C 28021.000000 -600.000000 28069.000000 -670.333333 28113.000000 -747.000000 C 28157.666667 -823.666667 28196.333333 -903.666667 28229.000000 -987.000000 C 28261.666667 -1070.333333 28287.000000 -1151.666667 28305.000000 -1231.000000 C 28285.666667 -1231.000000 28253.000000 -1231.000000 28207.000000 -1231.000000 C 28161.000000 -1231.000000 28106.666667 -1231.000000 28044.000000 -1231.000000 C 27982.000000 -1231.000000 27918.000000 -1231.000000 27852.000000 -1231.000000 C 27786.666667 -1231.000000 27723.666667 -1231.000000 27663.000000 -1231.000000 C 27603.000000 -1231.000000 27551.333333 -1231.000000 27508.000000 -1231.000000 C 27465.333333 -1231.000000 27437.000000 -1231.000000 27423.000000 -1231.000000 C 27403.000000 -1231.000000 27384.000000 -1230.666667 27366.000000 -1230.000000 C 27348.000000 -1229.333333 27330.333333 -1229.000000 27313.000000 -1229.000000 C 27295.666667 -1229.000000 27278.666667 -1228.333333 27262.000000 -1227.000000 C 27262.000000 -1250.000000 27262.000000 -1273.000000 27262.000000 -1296.000000 C 27287.333333 -1294.666667 27312.666667 -1293.000000 27338.000000 -1291.000000 C 27364.000000 -1289.000000 27392.333333 -1288.000000 27423.000000 -1288.000000 C 27437.000000 -1288.000000 27465.333333 -1288.000000 27508.000000 -1288.000000 C 27551.333333 -1288.000000 27603.000000 -1288.000000 27663.000000 -1288.000000 C 27723.666667 -1288.000000 27786.666667 -1288.000000 27852.000000 -1288.000000 C 27918.000000 -1288.000000 27980.666667 -1288.000000 28040.000000 -1288.000000 C 28100.000000 -1288.000000 28151.333333 -1288.000000 28194.000000 -1288.000000 C 28237.333333 -1288.000000 28265.333333 -1288.000000 28278.000000 -1288.000000 C 28293.333333 -1288.000000 28306.333333 -1288.666667 28317.000000 -1290.000000 C 28327.666667 -1291.333333 28337.666667 -1294.000000 28347.000000 -1298.000000 C 28360.333333 -1286.333333 28373.666667 -1274.666667 28387.000000 -1263.000000z M 27414.000000 -895.000000 C 27504.666667 -847.666667 27596.666667 -793.666667 27690.000000 -733.000000 C 27783.333333 -673.000000 27874.000000 -610.666667 27962.000000 -546.000000 C 28050.666667 -481.333333 28133.666667 -418.000000 28211.000000 -356.000000 C 28289.000000 -294.000000 28356.666667 -237.333333 28414.000000 -186.000000 C 28399.333333 -169.333333 28384.666667 -152.666667 28370.000000 -136.000000 C 28322.666667 -180.000000 28270.000000 -226.333333 28212.000000 -275.000000 C 28154.666667 -324.333333 28093.000000 -374.666667 28027.000000 -426.000000 C 27961.000000 -477.333333 27892.000000 -528.333333 27820.000000 -579.000000 C 27748.666667 -629.666667 27675.666667 -678.000000 27601.000000 -724.000000 C 27526.333333 -770.000000 27451.666667 -812.333333 27377.000000 -851.000000 C 27389.333333 -865.666667 27401.666667 -880.333333 27414.000000 -895.000000z "/>
</g></svg>
